G75*
%MOIN*%
%OFA0B0*%
%FSLAX25Y25*%
%IPPOS*%
%LPD*%
%AMOC8*
5,1,8,0,0,1.08239X$1,22.5*
%
%ADD10OC8,0.05150*%
%ADD11R,0.05150X0.05150*%
%ADD12OC8,0.06000*%
%ADD13C,0.01000*%
%ADD14C,0.04000*%
D10*
X0131421Y0044374D03*
X0056815Y0228390D03*
X0346185Y0228390D03*
D11*
X0056815Y0214610D03*
X0121579Y0044374D03*
D12*
X0246500Y0176500D03*
X0256500Y0176500D03*
X0266500Y0176500D03*
X0266500Y0186500D03*
X0256500Y0186500D03*
X0246500Y0186500D03*
D13*
X0032250Y0019677D02*
X0026427Y0024346D01*
X0021407Y0029868D01*
X0017313Y0036107D01*
X0014245Y0042910D01*
X0012279Y0050110D01*
X0011463Y0057528D01*
X0011488Y0060476D01*
X0011500Y0060505D01*
X0011500Y0061381D01*
X0011542Y0062256D01*
X0011500Y0062371D01*
X0011500Y0064638D01*
X0012865Y0064638D01*
X0015387Y0065683D01*
X0017317Y0067613D01*
X0018362Y0070135D01*
X0018362Y0072865D01*
X0017317Y0075387D01*
X0015387Y0077317D01*
X0012865Y0078362D01*
X0011500Y0078362D01*
X0011500Y0099638D01*
X0012865Y0099638D01*
X0015387Y0100683D01*
X0017317Y0102613D01*
X0018362Y0105135D01*
X0018362Y0107865D01*
X0017317Y0110387D01*
X0015387Y0112317D01*
X0012865Y0113362D01*
X0011500Y0113362D01*
X0011500Y0134638D01*
X0012865Y0134638D01*
X0015387Y0135683D01*
X0017317Y0137613D01*
X0018362Y0140135D01*
X0018362Y0142865D01*
X0017317Y0145387D01*
X0015387Y0147317D01*
X0012865Y0148362D01*
X0011500Y0148362D01*
X0011500Y0169638D01*
X0012865Y0169638D01*
X0015387Y0170683D01*
X0017317Y0172613D01*
X0018362Y0175135D01*
X0018362Y0177865D01*
X0017317Y0180387D01*
X0015387Y0182317D01*
X0012865Y0183362D01*
X0011500Y0183362D01*
X0011500Y0195641D01*
X0011545Y0195770D01*
X0011500Y0196631D01*
X0011500Y0197495D01*
X0011483Y0197536D01*
X0011449Y0200105D01*
X0012145Y0206748D01*
X0013873Y0213200D01*
X0016588Y0219302D01*
X0020225Y0224905D01*
X0024693Y0229870D01*
X0029883Y0234074D01*
X0035666Y0237415D01*
X0041902Y0239810D01*
X0048435Y0241200D01*
X0051688Y0241500D01*
X0070820Y0241500D01*
X0070031Y0239596D01*
X0070031Y0236475D01*
X0071226Y0233591D01*
X0073433Y0231384D01*
X0076317Y0230189D01*
X0079439Y0230189D01*
X0082323Y0231384D01*
X0084530Y0233591D01*
X0085724Y0236475D01*
X0085724Y0239596D01*
X0084936Y0241500D01*
X0318064Y0241500D01*
X0317276Y0239596D01*
X0317276Y0236475D01*
X0318470Y0233591D01*
X0320677Y0231384D01*
X0323561Y0230189D01*
X0326683Y0230189D01*
X0329567Y0231384D01*
X0331774Y0233591D01*
X0332968Y0236475D01*
X0332968Y0239596D01*
X0332180Y0241500D01*
X0351312Y0241500D01*
X0354565Y0241200D01*
X0361098Y0239810D01*
X0367334Y0237415D01*
X0373117Y0234074D01*
X0378307Y0229870D01*
X0382775Y0224905D01*
X0386412Y0219302D01*
X0389127Y0213200D01*
X0390855Y0206748D01*
X0391551Y0200105D01*
X0391517Y0197536D01*
X0391500Y0197495D01*
X0391500Y0196631D01*
X0391455Y0195770D01*
X0391500Y0195641D01*
X0391500Y0067382D01*
X0391462Y0067276D01*
X0391500Y0066391D01*
X0391500Y0065505D01*
X0391511Y0065479D01*
X0391534Y0062531D01*
X0390790Y0055070D01*
X0388992Y0047790D01*
X0386176Y0040841D01*
X0382400Y0034363D01*
X0377741Y0028488D01*
X0372292Y0023336D01*
X0366166Y0019012D01*
X0359487Y0015603D01*
X0352391Y0013180D01*
X0345023Y0011792D01*
X0341342Y0011500D01*
X0056673Y0011500D01*
X0053018Y0011818D01*
X0045710Y0013335D01*
X0038730Y0015976D01*
X0032250Y0019677D01*
X0032593Y0019481D02*
X0366831Y0019481D01*
X0368245Y0020479D02*
X0031249Y0020479D01*
X0030004Y0021478D02*
X0369660Y0021478D01*
X0371075Y0022476D02*
X0028759Y0022476D01*
X0027513Y0023475D02*
X0372439Y0023475D01*
X0373495Y0024473D02*
X0026311Y0024473D01*
X0025404Y0025472D02*
X0374551Y0025472D01*
X0375607Y0026470D02*
X0024496Y0026470D01*
X0023588Y0027469D02*
X0376663Y0027469D01*
X0377719Y0028467D02*
X0022680Y0028467D01*
X0021773Y0029466D02*
X0378516Y0029466D01*
X0379308Y0030464D02*
X0021016Y0030464D01*
X0020361Y0031463D02*
X0380100Y0031463D01*
X0380892Y0032461D02*
X0019705Y0032461D01*
X0019050Y0033460D02*
X0381684Y0033460D01*
X0382456Y0034458D02*
X0018395Y0034458D01*
X0017740Y0035457D02*
X0383038Y0035457D01*
X0383620Y0036455D02*
X0017156Y0036455D01*
X0016705Y0037454D02*
X0384202Y0037454D01*
X0384784Y0038452D02*
X0016255Y0038452D01*
X0015805Y0039451D02*
X0385366Y0039451D01*
X0385948Y0040449D02*
X0124816Y0040449D01*
X0124733Y0040401D02*
X0125075Y0040599D01*
X0125354Y0040878D01*
X0125551Y0041220D01*
X0125654Y0041602D01*
X0125654Y0044087D01*
X0121866Y0044087D01*
X0121866Y0044661D01*
X0125654Y0044661D01*
X0125654Y0047146D01*
X0125551Y0047528D01*
X0125354Y0047870D01*
X0125075Y0048149D01*
X0124733Y0048347D01*
X0124351Y0048449D01*
X0121866Y0048449D01*
X0121866Y0044661D01*
X0121291Y0044661D01*
X0121291Y0044087D01*
X0117504Y0044087D01*
X0117504Y0041602D01*
X0117606Y0041220D01*
X0117804Y0040878D01*
X0118083Y0040599D01*
X0118425Y0040401D01*
X0118806Y0040299D01*
X0121291Y0040299D01*
X0121291Y0044087D01*
X0121866Y0044087D01*
X0121866Y0040299D01*
X0124351Y0040299D01*
X0124733Y0040401D01*
X0125612Y0041448D02*
X0128868Y0041448D01*
X0129816Y0040499D02*
X0127546Y0042769D01*
X0127546Y0045979D01*
X0129816Y0048249D01*
X0133026Y0048249D01*
X0135296Y0045979D01*
X0135296Y0042769D01*
X0133026Y0040499D01*
X0129816Y0040499D01*
X0127869Y0042446D02*
X0125654Y0042446D01*
X0125654Y0043445D02*
X0127546Y0043445D01*
X0127546Y0044443D02*
X0121866Y0044443D01*
X0121291Y0044443D02*
X0013826Y0044443D01*
X0014099Y0043445D02*
X0117504Y0043445D01*
X0117504Y0042446D02*
X0014454Y0042446D01*
X0014904Y0041448D02*
X0117545Y0041448D01*
X0118342Y0040449D02*
X0015355Y0040449D01*
X0013553Y0045442D02*
X0117504Y0045442D01*
X0117504Y0044661D02*
X0121291Y0044661D01*
X0121291Y0048449D01*
X0118806Y0048449D01*
X0118425Y0048347D01*
X0118083Y0048149D01*
X0117804Y0047870D01*
X0117606Y0047528D01*
X0117504Y0047146D01*
X0117504Y0044661D01*
X0117504Y0046440D02*
X0013281Y0046440D01*
X0013008Y0047439D02*
X0117582Y0047439D01*
X0118764Y0048437D02*
X0012735Y0048437D01*
X0012463Y0049436D02*
X0389399Y0049436D01*
X0389645Y0050434D02*
X0012243Y0050434D01*
X0012133Y0051433D02*
X0389892Y0051433D01*
X0390138Y0052432D02*
X0012024Y0052432D01*
X0011914Y0053430D02*
X0390385Y0053430D01*
X0390632Y0054429D02*
X0011804Y0054429D01*
X0011694Y0055427D02*
X0059106Y0055427D01*
X0059531Y0055002D02*
X0060744Y0054500D01*
X0062056Y0054500D01*
X0063269Y0055002D01*
X0064198Y0055931D01*
X0064700Y0057144D01*
X0064700Y0058456D01*
X0064671Y0058526D01*
X0108046Y0101900D01*
X0171974Y0101900D01*
X0171500Y0100756D01*
X0171500Y0099444D01*
X0172002Y0098231D01*
X0172931Y0097302D01*
X0174144Y0096800D01*
X0175456Y0096800D01*
X0176669Y0097302D01*
X0177598Y0098231D01*
X0177626Y0098300D01*
X0182604Y0098300D01*
X0187250Y0093654D01*
X0187250Y0092694D01*
X0187752Y0091481D01*
X0188681Y0090552D01*
X0189894Y0090050D01*
X0191206Y0090050D01*
X0192419Y0090552D01*
X0193348Y0091481D01*
X0193376Y0091550D01*
X0221883Y0091550D01*
X0221052Y0090719D01*
X0220550Y0089506D01*
X0220550Y0088194D01*
X0221052Y0086981D01*
X0221981Y0086052D01*
X0223024Y0085620D01*
X0220526Y0083121D01*
X0220456Y0083150D01*
X0219144Y0083150D01*
X0217931Y0082648D01*
X0217002Y0081719D01*
X0216500Y0080506D01*
X0216500Y0079194D01*
X0217002Y0077981D01*
X0217931Y0077052D01*
X0219144Y0076550D01*
X0220456Y0076550D01*
X0221669Y0077052D01*
X0222598Y0077981D01*
X0223100Y0079194D01*
X0223100Y0080506D01*
X0223071Y0080576D01*
X0245296Y0102800D01*
X0246350Y0103854D01*
X0246350Y0107624D01*
X0247494Y0107150D01*
X0248806Y0107150D01*
X0248876Y0107179D01*
X0281329Y0074726D01*
X0281300Y0074656D01*
X0281300Y0073344D01*
X0281802Y0072131D01*
X0282731Y0071202D01*
X0283944Y0070700D01*
X0285256Y0070700D01*
X0286469Y0071202D01*
X0287398Y0072131D01*
X0287900Y0073344D01*
X0287900Y0074656D01*
X0287398Y0075869D01*
X0286469Y0076798D01*
X0285256Y0077300D01*
X0283944Y0077300D01*
X0283874Y0077271D01*
X0258426Y0102720D01*
X0259469Y0103152D01*
X0260398Y0104081D01*
X0260426Y0104150D01*
X0285374Y0104150D01*
X0285402Y0104081D01*
X0286331Y0103152D01*
X0287544Y0102650D01*
X0288856Y0102650D01*
X0290069Y0103152D01*
X0290998Y0104081D01*
X0291500Y0105294D01*
X0291500Y0106606D01*
X0290998Y0107819D01*
X0290069Y0108748D01*
X0288856Y0109250D01*
X0287544Y0109250D01*
X0286331Y0108748D01*
X0285402Y0107819D01*
X0285374Y0107750D01*
X0260426Y0107750D01*
X0260398Y0107819D01*
X0259469Y0108748D01*
X0258256Y0109250D01*
X0256944Y0109250D01*
X0255731Y0108748D01*
X0254802Y0107819D01*
X0254370Y0106776D01*
X0251421Y0109724D01*
X0251450Y0109794D01*
X0251450Y0111106D01*
X0250948Y0112319D01*
X0250019Y0113248D01*
X0248806Y0113750D01*
X0247494Y0113750D01*
X0246350Y0113276D01*
X0246350Y0147504D01*
X0271846Y0173000D01*
X0272900Y0174054D01*
X0272900Y0182746D01*
X0270800Y0184846D01*
X0270800Y0188281D01*
X0268281Y0190800D01*
X0267146Y0190800D01*
X0302896Y0226550D01*
X0342545Y0226550D01*
X0344580Y0224515D01*
X0347790Y0224515D01*
X0350060Y0226785D01*
X0350060Y0229995D01*
X0347790Y0232265D01*
X0344580Y0232265D01*
X0342465Y0230150D01*
X0301404Y0230150D01*
X0261354Y0190100D01*
X0260300Y0189046D01*
X0260300Y0188781D01*
X0258281Y0190800D01*
X0254719Y0190800D01*
X0252200Y0188281D01*
X0252200Y0184719D01*
X0254719Y0182200D01*
X0258281Y0182200D01*
X0260300Y0184219D01*
X0260300Y0179904D01*
X0262200Y0178004D01*
X0262200Y0174746D01*
X0254330Y0166876D01*
X0253306Y0167300D01*
X0251994Y0167300D01*
X0250781Y0166798D01*
X0249852Y0165869D01*
X0249350Y0164656D01*
X0249350Y0163344D01*
X0249511Y0162956D01*
X0240950Y0154396D01*
X0240950Y0144650D01*
X0215876Y0144650D01*
X0216350Y0145794D01*
X0216350Y0147106D01*
X0215848Y0148319D01*
X0214919Y0149248D01*
X0214850Y0149276D01*
X0214850Y0159346D01*
X0201800Y0172396D01*
X0200746Y0173450D01*
X0197146Y0173450D01*
X0179750Y0190846D01*
X0178696Y0191900D01*
X0081354Y0191900D01*
X0066176Y0176721D01*
X0066106Y0176750D01*
X0064794Y0176750D01*
X0063581Y0176248D01*
X0062652Y0175319D01*
X0062220Y0174276D01*
X0058700Y0177796D01*
X0058700Y0210735D01*
X0059928Y0210735D01*
X0060690Y0211497D01*
X0060690Y0217724D01*
X0059928Y0218485D01*
X0053702Y0218485D01*
X0052940Y0217724D01*
X0052940Y0211497D01*
X0053702Y0210735D01*
X0055100Y0210735D01*
X0055100Y0176304D01*
X0056154Y0175250D01*
X0117804Y0113600D01*
X0199704Y0113600D01*
X0202324Y0110980D01*
X0201281Y0110548D01*
X0200352Y0109619D01*
X0200324Y0109550D01*
X0078346Y0109550D01*
X0064700Y0123196D01*
X0064700Y0124156D01*
X0064198Y0125369D01*
X0063269Y0126298D01*
X0062056Y0126800D01*
X0060744Y0126800D01*
X0059531Y0126298D01*
X0058602Y0125369D01*
X0058574Y0125300D01*
X0047126Y0125300D01*
X0047098Y0125369D01*
X0046169Y0126298D01*
X0044956Y0126800D01*
X0043644Y0126800D01*
X0042431Y0126298D01*
X0041502Y0125369D01*
X0041000Y0124156D01*
X0041000Y0122844D01*
X0041502Y0121631D01*
X0042431Y0120702D01*
X0043644Y0120200D01*
X0044956Y0120200D01*
X0046169Y0120702D01*
X0047098Y0121631D01*
X0047126Y0121700D01*
X0058574Y0121700D01*
X0058602Y0121631D01*
X0059531Y0120702D01*
X0060744Y0120200D01*
X0062056Y0120200D01*
X0062444Y0120361D01*
X0076854Y0105950D01*
X0200324Y0105950D01*
X0200352Y0105881D01*
X0201281Y0104952D01*
X0202494Y0104450D01*
X0203806Y0104450D01*
X0205019Y0104952D01*
X0205948Y0105881D01*
X0206380Y0106924D01*
X0210569Y0102736D01*
X0210252Y0102419D01*
X0209750Y0101206D01*
X0209750Y0100250D01*
X0208794Y0100250D01*
X0207581Y0099748D01*
X0206652Y0098819D01*
X0206624Y0098750D01*
X0189946Y0098750D01*
X0184250Y0104446D01*
X0183196Y0105500D01*
X0106554Y0105500D01*
X0062126Y0061071D01*
X0062056Y0061100D01*
X0060744Y0061100D01*
X0059531Y0060598D01*
X0058602Y0059669D01*
X0058100Y0058456D01*
X0058100Y0057144D01*
X0058602Y0055931D01*
X0059531Y0055002D01*
X0058397Y0056426D02*
X0011584Y0056426D01*
X0011475Y0057424D02*
X0058100Y0057424D01*
X0058100Y0058423D02*
X0011471Y0058423D01*
X0011479Y0059421D02*
X0058500Y0059421D01*
X0059353Y0060420D02*
X0011487Y0060420D01*
X0011502Y0061418D02*
X0062473Y0061418D01*
X0063471Y0062417D02*
X0011500Y0062417D01*
X0011500Y0063415D02*
X0064470Y0063415D01*
X0065468Y0064414D02*
X0011500Y0064414D01*
X0014734Y0065412D02*
X0024014Y0065412D01*
X0023361Y0065683D02*
X0025883Y0064638D01*
X0028613Y0064638D01*
X0031135Y0065683D01*
X0033066Y0067613D01*
X0034110Y0070135D01*
X0034110Y0072865D01*
X0033066Y0075387D01*
X0031135Y0077317D01*
X0028613Y0078362D01*
X0025883Y0078362D01*
X0023361Y0077317D01*
X0021431Y0075387D01*
X0020386Y0072865D01*
X0020386Y0070135D01*
X0021431Y0067613D01*
X0023361Y0065683D01*
X0022633Y0066411D02*
X0016115Y0066411D01*
X0017114Y0067409D02*
X0021634Y0067409D01*
X0021101Y0068408D02*
X0017647Y0068408D01*
X0018060Y0069406D02*
X0020688Y0069406D01*
X0020386Y0070405D02*
X0018362Y0070405D01*
X0018362Y0071403D02*
X0020386Y0071403D01*
X0020386Y0072402D02*
X0018362Y0072402D01*
X0018140Y0073400D02*
X0020608Y0073400D01*
X0021021Y0074399D02*
X0017727Y0074399D01*
X0017307Y0075397D02*
X0021441Y0075397D01*
X0022439Y0076396D02*
X0016309Y0076396D01*
X0015202Y0077394D02*
X0023546Y0077394D01*
X0030950Y0077394D02*
X0078449Y0077394D01*
X0077450Y0076396D02*
X0032057Y0076396D01*
X0033055Y0075397D02*
X0076452Y0075397D01*
X0075453Y0074399D02*
X0033475Y0074399D01*
X0033889Y0073400D02*
X0074455Y0073400D01*
X0073456Y0072402D02*
X0034110Y0072402D01*
X0034110Y0071403D02*
X0072458Y0071403D01*
X0071459Y0070405D02*
X0034110Y0070405D01*
X0033808Y0069406D02*
X0070461Y0069406D01*
X0069462Y0068408D02*
X0033395Y0068408D01*
X0032862Y0067409D02*
X0068464Y0067409D01*
X0067465Y0066411D02*
X0031863Y0066411D01*
X0030482Y0065412D02*
X0066467Y0065412D01*
X0068562Y0062417D02*
X0391522Y0062417D01*
X0391527Y0063415D02*
X0069561Y0063415D01*
X0070559Y0064414D02*
X0391519Y0064414D01*
X0391511Y0065412D02*
X0071558Y0065412D01*
X0072556Y0066411D02*
X0391499Y0066411D01*
X0391500Y0067409D02*
X0073555Y0067409D01*
X0074553Y0068408D02*
X0391500Y0068408D01*
X0391500Y0069406D02*
X0075552Y0069406D01*
X0076550Y0070405D02*
X0391500Y0070405D01*
X0391500Y0071403D02*
X0286670Y0071403D01*
X0287510Y0072402D02*
X0391500Y0072402D01*
X0391500Y0073400D02*
X0287900Y0073400D01*
X0287900Y0074399D02*
X0391500Y0074399D01*
X0391500Y0075397D02*
X0287593Y0075397D01*
X0286871Y0076396D02*
X0391500Y0076396D01*
X0391500Y0077394D02*
X0283751Y0077394D01*
X0282753Y0078393D02*
X0391500Y0078393D01*
X0391500Y0079391D02*
X0281754Y0079391D01*
X0280756Y0080390D02*
X0391500Y0080390D01*
X0391500Y0081388D02*
X0279757Y0081388D01*
X0278759Y0082387D02*
X0391500Y0082387D01*
X0391500Y0083385D02*
X0277760Y0083385D01*
X0276762Y0084384D02*
X0391500Y0084384D01*
X0391500Y0085382D02*
X0275763Y0085382D01*
X0274765Y0086381D02*
X0391500Y0086381D01*
X0391500Y0087379D02*
X0273766Y0087379D01*
X0272768Y0088378D02*
X0391500Y0088378D01*
X0391500Y0089376D02*
X0271769Y0089376D01*
X0270771Y0090375D02*
X0391500Y0090375D01*
X0391500Y0091373D02*
X0269772Y0091373D01*
X0268774Y0092372D02*
X0391500Y0092372D01*
X0391500Y0093370D02*
X0267775Y0093370D01*
X0266777Y0094369D02*
X0391500Y0094369D01*
X0391500Y0095368D02*
X0265778Y0095368D01*
X0264780Y0096366D02*
X0391500Y0096366D01*
X0391500Y0097365D02*
X0263781Y0097365D01*
X0262783Y0098363D02*
X0391500Y0098363D01*
X0391500Y0099362D02*
X0261784Y0099362D01*
X0260786Y0100360D02*
X0391500Y0100360D01*
X0391500Y0101359D02*
X0259787Y0101359D01*
X0258788Y0102357D02*
X0391500Y0102357D01*
X0391500Y0103356D02*
X0290272Y0103356D01*
X0291111Y0104354D02*
X0391500Y0104354D01*
X0391500Y0105353D02*
X0291500Y0105353D01*
X0291500Y0106351D02*
X0391500Y0106351D01*
X0391500Y0107350D02*
X0291192Y0107350D01*
X0290469Y0108348D02*
X0391500Y0108348D01*
X0391500Y0109347D02*
X0251799Y0109347D01*
X0251450Y0110345D02*
X0391500Y0110345D01*
X0391500Y0111344D02*
X0251352Y0111344D01*
X0250925Y0112342D02*
X0391500Y0112342D01*
X0391500Y0113341D02*
X0249794Y0113341D01*
X0246506Y0113341D02*
X0246350Y0113341D01*
X0246350Y0114339D02*
X0391500Y0114339D01*
X0391500Y0115338D02*
X0246350Y0115338D01*
X0246350Y0116336D02*
X0391500Y0116336D01*
X0391500Y0117335D02*
X0246350Y0117335D01*
X0246350Y0118333D02*
X0391500Y0118333D01*
X0391500Y0119332D02*
X0246350Y0119332D01*
X0246350Y0120330D02*
X0391500Y0120330D01*
X0391500Y0121329D02*
X0246350Y0121329D01*
X0246350Y0122327D02*
X0391500Y0122327D01*
X0391500Y0123326D02*
X0246350Y0123326D01*
X0246350Y0124324D02*
X0391500Y0124324D01*
X0391500Y0125323D02*
X0246350Y0125323D01*
X0246350Y0126321D02*
X0391500Y0126321D01*
X0391500Y0127320D02*
X0246350Y0127320D01*
X0246350Y0128318D02*
X0391500Y0128318D01*
X0391500Y0129317D02*
X0246350Y0129317D01*
X0246350Y0130315D02*
X0391500Y0130315D01*
X0391500Y0131314D02*
X0246350Y0131314D01*
X0246350Y0132312D02*
X0391500Y0132312D01*
X0391500Y0133311D02*
X0246350Y0133311D01*
X0246350Y0134309D02*
X0391500Y0134309D01*
X0391500Y0135308D02*
X0246350Y0135308D01*
X0246350Y0136306D02*
X0391500Y0136306D01*
X0391500Y0137305D02*
X0246350Y0137305D01*
X0246350Y0138303D02*
X0391500Y0138303D01*
X0391500Y0139302D02*
X0246350Y0139302D01*
X0246350Y0140301D02*
X0391500Y0140301D01*
X0391500Y0141299D02*
X0246350Y0141299D01*
X0246350Y0142298D02*
X0391500Y0142298D01*
X0391500Y0143296D02*
X0246350Y0143296D01*
X0246350Y0144295D02*
X0391500Y0144295D01*
X0391500Y0145293D02*
X0246350Y0145293D01*
X0246350Y0146292D02*
X0391500Y0146292D01*
X0391500Y0147290D02*
X0246350Y0147290D01*
X0247134Y0148289D02*
X0391500Y0148289D01*
X0391500Y0149287D02*
X0248133Y0149287D01*
X0249131Y0150286D02*
X0391500Y0150286D01*
X0391500Y0151284D02*
X0250130Y0151284D01*
X0251128Y0152283D02*
X0391500Y0152283D01*
X0391500Y0153281D02*
X0252127Y0153281D01*
X0253125Y0154280D02*
X0391500Y0154280D01*
X0391500Y0155278D02*
X0254124Y0155278D01*
X0255122Y0156277D02*
X0391500Y0156277D01*
X0391500Y0157275D02*
X0256121Y0157275D01*
X0257119Y0158274D02*
X0391500Y0158274D01*
X0391500Y0159272D02*
X0258118Y0159272D01*
X0259116Y0160271D02*
X0391500Y0160271D01*
X0391500Y0161269D02*
X0260115Y0161269D01*
X0261113Y0162268D02*
X0391500Y0162268D01*
X0391500Y0163266D02*
X0262112Y0163266D01*
X0263110Y0164265D02*
X0391500Y0164265D01*
X0391500Y0165263D02*
X0264109Y0165263D01*
X0265107Y0166262D02*
X0391500Y0166262D01*
X0391500Y0167260D02*
X0266106Y0167260D01*
X0267104Y0168259D02*
X0391500Y0168259D01*
X0391500Y0169257D02*
X0268103Y0169257D01*
X0269101Y0170256D02*
X0391500Y0170256D01*
X0391500Y0171254D02*
X0270100Y0171254D01*
X0271098Y0172253D02*
X0391500Y0172253D01*
X0391500Y0173251D02*
X0272097Y0173251D01*
X0272900Y0174250D02*
X0391500Y0174250D01*
X0391500Y0175248D02*
X0272900Y0175248D01*
X0272900Y0176247D02*
X0391500Y0176247D01*
X0391500Y0177245D02*
X0272900Y0177245D01*
X0272900Y0178244D02*
X0391500Y0178244D01*
X0391500Y0179242D02*
X0272900Y0179242D01*
X0272900Y0180241D02*
X0391500Y0180241D01*
X0391500Y0181239D02*
X0272900Y0181239D01*
X0272900Y0182238D02*
X0391500Y0182238D01*
X0391500Y0183237D02*
X0272409Y0183237D01*
X0271411Y0184235D02*
X0391500Y0184235D01*
X0391500Y0185234D02*
X0270800Y0185234D01*
X0270800Y0186232D02*
X0391500Y0186232D01*
X0391500Y0187231D02*
X0270800Y0187231D01*
X0270800Y0188229D02*
X0391500Y0188229D01*
X0391500Y0189228D02*
X0269854Y0189228D01*
X0268855Y0190226D02*
X0391500Y0190226D01*
X0391500Y0191225D02*
X0267570Y0191225D01*
X0268569Y0192223D02*
X0391500Y0192223D01*
X0391500Y0193222D02*
X0269567Y0193222D01*
X0270566Y0194220D02*
X0391500Y0194220D01*
X0391500Y0195219D02*
X0271564Y0195219D01*
X0272563Y0196217D02*
X0391478Y0196217D01*
X0391500Y0197216D02*
X0331643Y0197216D01*
X0331407Y0197118D02*
X0334291Y0198313D01*
X0336498Y0200520D01*
X0337693Y0203404D01*
X0337693Y0206525D01*
X0336498Y0209409D01*
X0334291Y0211616D01*
X0331407Y0212811D01*
X0328286Y0212811D01*
X0325402Y0211616D01*
X0323195Y0209409D01*
X0322000Y0206525D01*
X0322000Y0203404D01*
X0323195Y0200520D01*
X0325402Y0198313D01*
X0328286Y0197118D01*
X0331407Y0197118D01*
X0334053Y0198214D02*
X0391526Y0198214D01*
X0391540Y0199213D02*
X0335191Y0199213D01*
X0336190Y0200211D02*
X0391540Y0200211D01*
X0391436Y0201210D02*
X0336784Y0201210D01*
X0337198Y0202208D02*
X0391331Y0202208D01*
X0391226Y0203207D02*
X0337611Y0203207D01*
X0337693Y0204205D02*
X0391121Y0204205D01*
X0391017Y0205204D02*
X0337693Y0205204D01*
X0337693Y0206202D02*
X0390912Y0206202D01*
X0390733Y0207201D02*
X0337413Y0207201D01*
X0337000Y0208199D02*
X0390466Y0208199D01*
X0390199Y0209198D02*
X0336586Y0209198D01*
X0335711Y0210196D02*
X0389931Y0210196D01*
X0389664Y0211195D02*
X0334713Y0211195D01*
X0332898Y0212193D02*
X0389397Y0212193D01*
X0389130Y0213192D02*
X0289537Y0213192D01*
X0288539Y0212193D02*
X0326794Y0212193D01*
X0324980Y0211195D02*
X0287540Y0211195D01*
X0286542Y0210196D02*
X0323982Y0210196D01*
X0323107Y0209198D02*
X0285543Y0209198D01*
X0284545Y0208199D02*
X0322693Y0208199D01*
X0322280Y0207201D02*
X0283546Y0207201D01*
X0282548Y0206202D02*
X0322000Y0206202D01*
X0322000Y0205204D02*
X0281549Y0205204D01*
X0280551Y0204205D02*
X0322000Y0204205D01*
X0322082Y0203207D02*
X0279552Y0203207D01*
X0278554Y0202208D02*
X0322495Y0202208D01*
X0322909Y0201210D02*
X0277555Y0201210D01*
X0276557Y0200211D02*
X0323503Y0200211D01*
X0324502Y0199213D02*
X0275558Y0199213D01*
X0274560Y0198214D02*
X0325640Y0198214D01*
X0328050Y0197216D02*
X0273561Y0197216D01*
X0270467Y0199213D02*
X0078498Y0199213D01*
X0077598Y0198313D02*
X0079805Y0200520D01*
X0081000Y0203404D01*
X0081000Y0206525D01*
X0079805Y0209409D01*
X0077598Y0211616D01*
X0074714Y0212811D01*
X0071593Y0212811D01*
X0068709Y0211616D01*
X0066502Y0209409D01*
X0065307Y0206525D01*
X0065307Y0203404D01*
X0066502Y0200520D01*
X0068709Y0198313D01*
X0071593Y0197118D01*
X0074714Y0197118D01*
X0077598Y0198313D01*
X0077360Y0198214D02*
X0269469Y0198214D01*
X0268470Y0197216D02*
X0074950Y0197216D01*
X0071357Y0197216D02*
X0058700Y0197216D01*
X0058700Y0198214D02*
X0068947Y0198214D01*
X0067809Y0199213D02*
X0058700Y0199213D01*
X0058700Y0200211D02*
X0066810Y0200211D01*
X0066216Y0201210D02*
X0058700Y0201210D01*
X0058700Y0202208D02*
X0065802Y0202208D01*
X0065389Y0203207D02*
X0058700Y0203207D01*
X0058700Y0204205D02*
X0065307Y0204205D01*
X0065307Y0205204D02*
X0058700Y0205204D01*
X0058700Y0206202D02*
X0065307Y0206202D01*
X0065587Y0207201D02*
X0058700Y0207201D01*
X0058700Y0208199D02*
X0066000Y0208199D01*
X0066414Y0209198D02*
X0058700Y0209198D01*
X0058700Y0210196D02*
X0067289Y0210196D01*
X0068287Y0211195D02*
X0060388Y0211195D01*
X0060690Y0212193D02*
X0070102Y0212193D01*
X0076206Y0212193D02*
X0283448Y0212193D01*
X0282449Y0211195D02*
X0078020Y0211195D01*
X0079018Y0210196D02*
X0281451Y0210196D01*
X0280452Y0209198D02*
X0079893Y0209198D01*
X0080307Y0208199D02*
X0279454Y0208199D01*
X0278455Y0207201D02*
X0080720Y0207201D01*
X0081000Y0206202D02*
X0277457Y0206202D01*
X0276458Y0205204D02*
X0081000Y0205204D01*
X0081000Y0204205D02*
X0275460Y0204205D01*
X0274461Y0203207D02*
X0080918Y0203207D01*
X0080505Y0202208D02*
X0273463Y0202208D01*
X0272464Y0201210D02*
X0080091Y0201210D01*
X0079497Y0200211D02*
X0271466Y0200211D01*
X0267472Y0196217D02*
X0058700Y0196217D01*
X0058700Y0195219D02*
X0266473Y0195219D01*
X0265475Y0194220D02*
X0058700Y0194220D01*
X0058700Y0193222D02*
X0264476Y0193222D01*
X0263478Y0192223D02*
X0058700Y0192223D01*
X0058700Y0191225D02*
X0080679Y0191225D01*
X0079681Y0190226D02*
X0058700Y0190226D01*
X0058700Y0189228D02*
X0078682Y0189228D01*
X0077683Y0188229D02*
X0058700Y0188229D01*
X0058700Y0187231D02*
X0076685Y0187231D01*
X0075686Y0186232D02*
X0058700Y0186232D01*
X0058700Y0185234D02*
X0074688Y0185234D01*
X0073689Y0184235D02*
X0058700Y0184235D01*
X0058700Y0183237D02*
X0072691Y0183237D01*
X0071692Y0182238D02*
X0058700Y0182238D01*
X0058700Y0181239D02*
X0070694Y0181239D01*
X0069695Y0180241D02*
X0058700Y0180241D01*
X0058700Y0179242D02*
X0068697Y0179242D01*
X0067698Y0178244D02*
X0058700Y0178244D01*
X0059250Y0177245D02*
X0066700Y0177245D01*
X0063580Y0176247D02*
X0060249Y0176247D01*
X0061247Y0175248D02*
X0062623Y0175248D01*
X0065450Y0173450D02*
X0082100Y0190100D01*
X0177950Y0190100D01*
X0196400Y0171650D01*
X0200000Y0171650D01*
X0213050Y0158600D01*
X0213050Y0146450D01*
X0216143Y0145293D02*
X0240950Y0145293D01*
X0240950Y0146292D02*
X0216350Y0146292D01*
X0216274Y0147290D02*
X0240950Y0147290D01*
X0240950Y0148289D02*
X0215860Y0148289D01*
X0214850Y0149287D02*
X0240950Y0149287D01*
X0240950Y0150286D02*
X0214850Y0150286D01*
X0214850Y0151284D02*
X0240950Y0151284D01*
X0240950Y0152283D02*
X0214850Y0152283D01*
X0214850Y0153281D02*
X0240950Y0153281D01*
X0240950Y0154280D02*
X0214850Y0154280D01*
X0214850Y0155278D02*
X0241833Y0155278D01*
X0242831Y0156277D02*
X0214850Y0156277D01*
X0214850Y0157275D02*
X0243830Y0157275D01*
X0244828Y0158274D02*
X0214850Y0158274D01*
X0214850Y0159272D02*
X0245827Y0159272D01*
X0246825Y0160271D02*
X0213925Y0160271D01*
X0212926Y0161269D02*
X0247824Y0161269D01*
X0248822Y0162268D02*
X0211928Y0162268D01*
X0210929Y0163266D02*
X0249382Y0163266D01*
X0249350Y0164265D02*
X0209931Y0164265D01*
X0208932Y0165263D02*
X0249601Y0165263D01*
X0250245Y0166262D02*
X0207934Y0166262D01*
X0206935Y0167260D02*
X0251898Y0167260D01*
X0253402Y0167260D02*
X0254715Y0167260D01*
X0255713Y0168259D02*
X0205937Y0168259D01*
X0204938Y0169257D02*
X0256712Y0169257D01*
X0257710Y0170256D02*
X0203940Y0170256D01*
X0202941Y0171254D02*
X0258709Y0171254D01*
X0258281Y0172200D02*
X0254719Y0172200D01*
X0252200Y0174719D01*
X0252200Y0178281D01*
X0254719Y0180800D01*
X0258281Y0180800D01*
X0260800Y0178281D01*
X0260800Y0174719D01*
X0258281Y0172200D01*
X0258334Y0172253D02*
X0259707Y0172253D01*
X0259332Y0173251D02*
X0260706Y0173251D01*
X0260331Y0174250D02*
X0261704Y0174250D01*
X0262200Y0175248D02*
X0260800Y0175248D01*
X0260800Y0176247D02*
X0262200Y0176247D01*
X0262200Y0177245D02*
X0260800Y0177245D01*
X0260800Y0178244D02*
X0261960Y0178244D01*
X0260962Y0179242D02*
X0259839Y0179242D01*
X0260300Y0180241D02*
X0258840Y0180241D01*
X0260300Y0181239D02*
X0189356Y0181239D01*
X0190355Y0180241D02*
X0243877Y0180241D01*
X0244636Y0181000D02*
X0242000Y0178364D01*
X0242000Y0177000D01*
X0246000Y0177000D01*
X0246000Y0181000D01*
X0244636Y0181000D01*
X0244719Y0182200D02*
X0248281Y0182200D01*
X0250800Y0184719D01*
X0250800Y0188281D01*
X0248281Y0190800D01*
X0244719Y0190800D01*
X0242200Y0188281D01*
X0242200Y0184719D01*
X0244719Y0182200D01*
X0244681Y0182238D02*
X0188358Y0182238D01*
X0187359Y0183237D02*
X0243682Y0183237D01*
X0242684Y0184235D02*
X0186361Y0184235D01*
X0185362Y0185234D02*
X0242200Y0185234D01*
X0242200Y0186232D02*
X0184364Y0186232D01*
X0183365Y0187231D02*
X0242200Y0187231D01*
X0242200Y0188229D02*
X0182367Y0188229D01*
X0181368Y0189228D02*
X0243146Y0189228D01*
X0244145Y0190226D02*
X0180369Y0190226D01*
X0179371Y0191225D02*
X0262479Y0191225D01*
X0261480Y0190226D02*
X0258855Y0190226D01*
X0259854Y0189228D02*
X0260482Y0189228D01*
X0262100Y0188300D02*
X0262100Y0180650D01*
X0266150Y0176600D01*
X0266500Y0176500D01*
X0254000Y0164000D01*
X0252650Y0164000D01*
X0252650Y0163550D01*
X0242750Y0153650D01*
X0242750Y0142850D01*
X0211700Y0142850D01*
X0208100Y0146450D01*
X0208100Y0146900D01*
X0209000Y0147800D01*
X0209000Y0157700D01*
X0208550Y0156800D01*
X0178850Y0186500D01*
X0173450Y0186500D01*
X0150050Y0186500D01*
X0127100Y0163550D01*
X0099200Y0163550D01*
X0081200Y0163550D01*
X0074129Y0157275D02*
X0011500Y0157275D01*
X0011500Y0156277D02*
X0075128Y0156277D01*
X0076126Y0155278D02*
X0011500Y0155278D01*
X0011500Y0154280D02*
X0077125Y0154280D01*
X0078123Y0153281D02*
X0011500Y0153281D01*
X0011500Y0152283D02*
X0079122Y0152283D01*
X0080120Y0151284D02*
X0011500Y0151284D01*
X0011500Y0150286D02*
X0081119Y0150286D01*
X0082117Y0149287D02*
X0011500Y0149287D01*
X0013043Y0148289D02*
X0025705Y0148289D01*
X0025883Y0148362D02*
X0023361Y0147317D01*
X0021431Y0145387D01*
X0020386Y0142865D01*
X0020386Y0140135D01*
X0021431Y0137613D01*
X0023361Y0135683D01*
X0025883Y0134638D01*
X0028613Y0134638D01*
X0031135Y0135683D01*
X0033066Y0137613D01*
X0034110Y0140135D01*
X0034110Y0142865D01*
X0033066Y0145387D01*
X0031135Y0147317D01*
X0028613Y0148362D01*
X0025883Y0148362D01*
X0023334Y0147290D02*
X0015415Y0147290D01*
X0016413Y0146292D02*
X0022335Y0146292D01*
X0021392Y0145293D02*
X0017356Y0145293D01*
X0017770Y0144295D02*
X0020978Y0144295D01*
X0020564Y0143296D02*
X0018184Y0143296D01*
X0018362Y0142298D02*
X0020386Y0142298D01*
X0020386Y0141299D02*
X0018362Y0141299D01*
X0018362Y0140301D02*
X0020386Y0140301D01*
X0020731Y0139302D02*
X0018017Y0139302D01*
X0017604Y0138303D02*
X0021144Y0138303D01*
X0021738Y0137305D02*
X0017010Y0137305D01*
X0016011Y0136306D02*
X0022737Y0136306D01*
X0024265Y0135308D02*
X0014483Y0135308D01*
X0011500Y0134309D02*
X0097095Y0134309D01*
X0098093Y0133311D02*
X0011500Y0133311D01*
X0011500Y0132312D02*
X0099092Y0132312D01*
X0100090Y0131314D02*
X0011500Y0131314D01*
X0011500Y0130315D02*
X0101089Y0130315D01*
X0102088Y0129317D02*
X0011500Y0129317D01*
X0011500Y0128318D02*
X0103086Y0128318D01*
X0104085Y0127320D02*
X0011500Y0127320D01*
X0011500Y0126321D02*
X0042488Y0126321D01*
X0041483Y0125323D02*
X0011500Y0125323D01*
X0011500Y0124324D02*
X0041070Y0124324D01*
X0041000Y0123326D02*
X0011500Y0123326D01*
X0011500Y0122327D02*
X0041214Y0122327D01*
X0041804Y0121329D02*
X0011500Y0121329D01*
X0011500Y0120330D02*
X0043329Y0120330D01*
X0045271Y0120330D02*
X0060429Y0120330D01*
X0058904Y0121329D02*
X0046796Y0121329D01*
X0044300Y0123500D02*
X0061400Y0123500D01*
X0061850Y0123500D01*
X0077600Y0107750D01*
X0203150Y0107750D01*
X0205420Y0105353D02*
X0207952Y0105353D01*
X0206953Y0106351D02*
X0206142Y0106351D01*
X0208950Y0104354D02*
X0184341Y0104354D01*
X0183343Y0105353D02*
X0200880Y0105353D01*
X0201078Y0110345D02*
X0077550Y0110345D01*
X0076552Y0111344D02*
X0201961Y0111344D01*
X0200962Y0112342D02*
X0075553Y0112342D01*
X0074555Y0113341D02*
X0199964Y0113341D01*
X0200450Y0115400D02*
X0118550Y0115400D01*
X0056900Y0177050D01*
X0056900Y0214400D01*
X0056815Y0214610D01*
X0060690Y0214190D02*
X0285445Y0214190D01*
X0284446Y0213192D02*
X0060690Y0213192D01*
X0060690Y0215189D02*
X0286443Y0215189D01*
X0287442Y0216187D02*
X0060690Y0216187D01*
X0060690Y0217186D02*
X0288440Y0217186D01*
X0289439Y0218184D02*
X0060229Y0218184D01*
X0053401Y0218184D02*
X0016091Y0218184D01*
X0015646Y0217186D02*
X0052940Y0217186D01*
X0052940Y0216187D02*
X0015202Y0216187D01*
X0014758Y0215189D02*
X0052940Y0215189D01*
X0052940Y0214190D02*
X0014313Y0214190D01*
X0013870Y0213192D02*
X0052940Y0213192D01*
X0052940Y0212193D02*
X0013603Y0212193D01*
X0013336Y0211195D02*
X0053242Y0211195D01*
X0055100Y0210196D02*
X0013069Y0210196D01*
X0012801Y0209198D02*
X0055100Y0209198D01*
X0055100Y0208199D02*
X0012534Y0208199D01*
X0012267Y0207201D02*
X0055100Y0207201D01*
X0055100Y0206202D02*
X0012088Y0206202D01*
X0011983Y0205204D02*
X0055100Y0205204D01*
X0055100Y0204205D02*
X0011879Y0204205D01*
X0011774Y0203207D02*
X0055100Y0203207D01*
X0055100Y0202208D02*
X0011669Y0202208D01*
X0011564Y0201210D02*
X0055100Y0201210D01*
X0055100Y0200211D02*
X0011460Y0200211D01*
X0011460Y0199213D02*
X0055100Y0199213D01*
X0055100Y0198214D02*
X0011474Y0198214D01*
X0011500Y0197216D02*
X0055100Y0197216D01*
X0055100Y0196217D02*
X0011522Y0196217D01*
X0011500Y0195219D02*
X0055100Y0195219D01*
X0055100Y0194220D02*
X0011500Y0194220D01*
X0011500Y0193222D02*
X0055100Y0193222D01*
X0055100Y0192223D02*
X0011500Y0192223D01*
X0011500Y0191225D02*
X0055100Y0191225D01*
X0055100Y0190226D02*
X0011500Y0190226D01*
X0011500Y0189228D02*
X0055100Y0189228D01*
X0055100Y0188229D02*
X0011500Y0188229D01*
X0011500Y0187231D02*
X0055100Y0187231D01*
X0055100Y0186232D02*
X0011500Y0186232D01*
X0011500Y0185234D02*
X0055100Y0185234D01*
X0055100Y0184235D02*
X0011500Y0184235D01*
X0013168Y0183237D02*
X0025580Y0183237D01*
X0025883Y0183362D02*
X0023361Y0182317D01*
X0021431Y0180387D01*
X0020386Y0177865D01*
X0020386Y0175135D01*
X0021431Y0172613D01*
X0023361Y0170683D01*
X0025883Y0169638D01*
X0028613Y0169638D01*
X0031135Y0170683D01*
X0033066Y0172613D01*
X0034110Y0175135D01*
X0034110Y0177865D01*
X0033066Y0180387D01*
X0031135Y0182317D01*
X0028613Y0183362D01*
X0025883Y0183362D01*
X0023281Y0182238D02*
X0015467Y0182238D01*
X0016465Y0181239D02*
X0022283Y0181239D01*
X0021370Y0180241D02*
X0017378Y0180241D01*
X0017792Y0179242D02*
X0020956Y0179242D01*
X0020543Y0178244D02*
X0018205Y0178244D01*
X0018362Y0177245D02*
X0020386Y0177245D01*
X0020386Y0176247D02*
X0018362Y0176247D01*
X0018362Y0175248D02*
X0020386Y0175248D01*
X0020752Y0174250D02*
X0017996Y0174250D01*
X0017582Y0173251D02*
X0021166Y0173251D01*
X0021791Y0172253D02*
X0016957Y0172253D01*
X0015959Y0171254D02*
X0022789Y0171254D01*
X0024391Y0170256D02*
X0014357Y0170256D01*
X0011500Y0169257D02*
X0062147Y0169257D01*
X0063146Y0168259D02*
X0011500Y0168259D01*
X0011500Y0167260D02*
X0064144Y0167260D01*
X0065143Y0166262D02*
X0011500Y0166262D01*
X0011500Y0165263D02*
X0066141Y0165263D01*
X0067140Y0164265D02*
X0011500Y0164265D01*
X0011500Y0163266D02*
X0068138Y0163266D01*
X0069137Y0162268D02*
X0011500Y0162268D01*
X0011500Y0161269D02*
X0070135Y0161269D01*
X0071134Y0160271D02*
X0011500Y0160271D01*
X0011500Y0159272D02*
X0072132Y0159272D01*
X0073131Y0158274D02*
X0011500Y0158274D01*
X0028791Y0148289D02*
X0083116Y0148289D01*
X0084114Y0147290D02*
X0031163Y0147290D01*
X0032161Y0146292D02*
X0085113Y0146292D01*
X0086111Y0145293D02*
X0033104Y0145293D01*
X0033518Y0144295D02*
X0087110Y0144295D01*
X0088108Y0143296D02*
X0033932Y0143296D01*
X0034110Y0142298D02*
X0089107Y0142298D01*
X0090105Y0141299D02*
X0034110Y0141299D01*
X0034110Y0140301D02*
X0091104Y0140301D01*
X0092102Y0139302D02*
X0033765Y0139302D01*
X0033352Y0138303D02*
X0093101Y0138303D01*
X0094099Y0137305D02*
X0032758Y0137305D01*
X0031759Y0136306D02*
X0095098Y0136306D01*
X0096096Y0135308D02*
X0030231Y0135308D01*
X0046112Y0126321D02*
X0059588Y0126321D01*
X0058583Y0125323D02*
X0047117Y0125323D01*
X0062371Y0120330D02*
X0062474Y0120330D01*
X0063473Y0119332D02*
X0011500Y0119332D01*
X0011500Y0118333D02*
X0064471Y0118333D01*
X0065470Y0117335D02*
X0011500Y0117335D01*
X0011500Y0116336D02*
X0066468Y0116336D01*
X0067467Y0115338D02*
X0011500Y0115338D01*
X0011500Y0114339D02*
X0068465Y0114339D01*
X0069464Y0113341D02*
X0028665Y0113341D01*
X0028613Y0113362D02*
X0025883Y0113362D01*
X0023361Y0112317D01*
X0021431Y0110387D01*
X0020386Y0107865D01*
X0020386Y0105135D01*
X0021431Y0102613D01*
X0023361Y0100683D01*
X0025883Y0099638D01*
X0028613Y0099638D01*
X0031135Y0100683D01*
X0033066Y0102613D01*
X0034110Y0105135D01*
X0034110Y0107865D01*
X0033066Y0110387D01*
X0031135Y0112317D01*
X0028613Y0113362D01*
X0031075Y0112342D02*
X0070462Y0112342D01*
X0071461Y0111344D02*
X0032109Y0111344D01*
X0033083Y0110345D02*
X0072459Y0110345D01*
X0073458Y0109347D02*
X0033496Y0109347D01*
X0033910Y0108348D02*
X0074456Y0108348D01*
X0075455Y0107350D02*
X0034110Y0107350D01*
X0034110Y0106351D02*
X0076453Y0106351D01*
X0073556Y0114339D02*
X0117065Y0114339D01*
X0116067Y0115338D02*
X0072558Y0115338D01*
X0071559Y0116336D02*
X0115068Y0116336D01*
X0114070Y0117335D02*
X0070561Y0117335D01*
X0069562Y0118333D02*
X0113071Y0118333D01*
X0112073Y0119332D02*
X0068564Y0119332D01*
X0067565Y0120330D02*
X0111074Y0120330D01*
X0110076Y0121329D02*
X0066567Y0121329D01*
X0065568Y0122327D02*
X0109077Y0122327D01*
X0108079Y0123326D02*
X0064700Y0123326D01*
X0064630Y0124324D02*
X0107080Y0124324D01*
X0106082Y0125323D02*
X0064217Y0125323D01*
X0063212Y0126321D02*
X0105083Y0126321D01*
X0106407Y0105353D02*
X0034110Y0105353D01*
X0033787Y0104354D02*
X0105409Y0104354D01*
X0104410Y0103356D02*
X0033373Y0103356D01*
X0032810Y0102357D02*
X0103412Y0102357D01*
X0102413Y0101359D02*
X0031811Y0101359D01*
X0030357Y0100360D02*
X0101414Y0100360D01*
X0100416Y0099362D02*
X0011500Y0099362D01*
X0011500Y0098363D02*
X0099417Y0098363D01*
X0098419Y0097365D02*
X0011500Y0097365D01*
X0011500Y0096366D02*
X0097420Y0096366D01*
X0096422Y0095368D02*
X0011500Y0095368D01*
X0011500Y0094369D02*
X0095423Y0094369D01*
X0094425Y0093370D02*
X0011500Y0093370D01*
X0011500Y0092372D02*
X0093426Y0092372D01*
X0092428Y0091373D02*
X0062845Y0091373D01*
X0063269Y0091198D02*
X0062056Y0091700D01*
X0060744Y0091700D01*
X0059531Y0091198D01*
X0058602Y0090269D01*
X0058574Y0090200D01*
X0047126Y0090200D01*
X0047098Y0090269D01*
X0046169Y0091198D01*
X0044956Y0091700D01*
X0043644Y0091700D01*
X0042431Y0091198D01*
X0041502Y0090269D01*
X0041000Y0089056D01*
X0041000Y0087744D01*
X0041502Y0086531D01*
X0042431Y0085602D01*
X0043644Y0085100D01*
X0044956Y0085100D01*
X0046169Y0085602D01*
X0047098Y0086531D01*
X0047126Y0086600D01*
X0058574Y0086600D01*
X0058602Y0086531D01*
X0059531Y0085602D01*
X0060744Y0085100D01*
X0062056Y0085100D01*
X0063269Y0085602D01*
X0064198Y0086531D01*
X0064700Y0087744D01*
X0064700Y0089056D01*
X0064198Y0090269D01*
X0063269Y0091198D01*
X0064092Y0090375D02*
X0091429Y0090375D01*
X0090431Y0089376D02*
X0064567Y0089376D01*
X0064700Y0088378D02*
X0089432Y0088378D01*
X0088434Y0087379D02*
X0064549Y0087379D01*
X0064048Y0086381D02*
X0087435Y0086381D01*
X0086437Y0085382D02*
X0062738Y0085382D01*
X0060062Y0085382D02*
X0045638Y0085382D01*
X0046948Y0086381D02*
X0058752Y0086381D01*
X0061400Y0088400D02*
X0044300Y0088400D01*
X0041000Y0088378D02*
X0011500Y0088378D01*
X0011500Y0089376D02*
X0041133Y0089376D01*
X0041608Y0090375D02*
X0011500Y0090375D01*
X0011500Y0091373D02*
X0042855Y0091373D01*
X0045745Y0091373D02*
X0059955Y0091373D01*
X0058708Y0090375D02*
X0046992Y0090375D01*
X0041151Y0087379D02*
X0011500Y0087379D01*
X0011500Y0086381D02*
X0041652Y0086381D01*
X0042962Y0085382D02*
X0011500Y0085382D01*
X0011500Y0084384D02*
X0085438Y0084384D01*
X0084440Y0083385D02*
X0011500Y0083385D01*
X0011500Y0082387D02*
X0083441Y0082387D01*
X0082443Y0081388D02*
X0011500Y0081388D01*
X0011500Y0080390D02*
X0081444Y0080390D01*
X0080446Y0079391D02*
X0011500Y0079391D01*
X0011500Y0078393D02*
X0079447Y0078393D01*
X0081543Y0075397D02*
X0280657Y0075397D01*
X0281300Y0074399D02*
X0080544Y0074399D01*
X0079546Y0073400D02*
X0281300Y0073400D01*
X0281690Y0072402D02*
X0078547Y0072402D01*
X0077549Y0071403D02*
X0282530Y0071403D01*
X0284600Y0074000D02*
X0248150Y0110450D01*
X0247012Y0107350D02*
X0246350Y0107350D01*
X0246350Y0106351D02*
X0249703Y0106351D01*
X0250702Y0105353D02*
X0246350Y0105353D01*
X0246350Y0104354D02*
X0251700Y0104354D01*
X0252699Y0103356D02*
X0245851Y0103356D01*
X0244853Y0102357D02*
X0253697Y0102357D01*
X0254696Y0101359D02*
X0243854Y0101359D01*
X0242856Y0100360D02*
X0255694Y0100360D01*
X0256693Y0099362D02*
X0241857Y0099362D01*
X0240859Y0098363D02*
X0257691Y0098363D01*
X0258690Y0097365D02*
X0239860Y0097365D01*
X0238862Y0096366D02*
X0259688Y0096366D01*
X0260687Y0095368D02*
X0237863Y0095368D01*
X0236865Y0094369D02*
X0261685Y0094369D01*
X0262684Y0093370D02*
X0235866Y0093370D01*
X0234868Y0092372D02*
X0263682Y0092372D01*
X0264681Y0091373D02*
X0233869Y0091373D01*
X0232871Y0090375D02*
X0265679Y0090375D01*
X0266678Y0089376D02*
X0231872Y0089376D01*
X0230874Y0088378D02*
X0267676Y0088378D01*
X0268675Y0087379D02*
X0229875Y0087379D01*
X0228876Y0086381D02*
X0269674Y0086381D01*
X0270672Y0085382D02*
X0227878Y0085382D01*
X0226879Y0084384D02*
X0271671Y0084384D01*
X0272669Y0083385D02*
X0225881Y0083385D01*
X0224882Y0082387D02*
X0273668Y0082387D01*
X0274666Y0081388D02*
X0223884Y0081388D01*
X0223100Y0080390D02*
X0275665Y0080390D01*
X0276663Y0079391D02*
X0223100Y0079391D01*
X0222768Y0078393D02*
X0277662Y0078393D01*
X0278660Y0077394D02*
X0222011Y0077394D01*
X0219800Y0079850D02*
X0244550Y0104600D01*
X0244550Y0148250D01*
X0271100Y0174800D01*
X0271100Y0182000D01*
X0266600Y0186500D01*
X0266500Y0186500D01*
X0262100Y0188300D02*
X0302150Y0228350D01*
X0345800Y0228350D01*
X0346185Y0228390D01*
X0343481Y0231165D02*
X0329039Y0231165D01*
X0330347Y0232164D02*
X0344479Y0232164D01*
X0342482Y0230167D02*
X0060801Y0230167D01*
X0060890Y0230078D02*
X0058503Y0232465D01*
X0057102Y0232465D01*
X0057102Y0228677D01*
X0056528Y0228677D01*
X0056528Y0232465D01*
X0055127Y0232465D01*
X0052740Y0230078D01*
X0052740Y0228677D01*
X0056527Y0228677D01*
X0056527Y0228102D01*
X0052740Y0228102D01*
X0052740Y0226702D01*
X0055127Y0224315D01*
X0056528Y0224315D01*
X0056528Y0228102D01*
X0057102Y0228102D01*
X0057102Y0224315D01*
X0058503Y0224315D01*
X0060890Y0226702D01*
X0060890Y0228102D01*
X0057102Y0228102D01*
X0057102Y0228677D01*
X0060890Y0228677D01*
X0060890Y0230078D01*
X0060890Y0229168D02*
X0300422Y0229168D01*
X0299424Y0228170D02*
X0057102Y0228170D01*
X0056527Y0228170D02*
X0023163Y0228170D01*
X0024061Y0229168D02*
X0052740Y0229168D01*
X0052829Y0230167D02*
X0025059Y0230167D01*
X0026292Y0231165D02*
X0053828Y0231165D01*
X0054826Y0232164D02*
X0027524Y0232164D01*
X0028757Y0233162D02*
X0071655Y0233162D01*
X0070990Y0234161D02*
X0030032Y0234161D01*
X0031761Y0235159D02*
X0070576Y0235159D01*
X0070163Y0236158D02*
X0033489Y0236158D01*
X0035218Y0237156D02*
X0070031Y0237156D01*
X0070031Y0238155D02*
X0037592Y0238155D01*
X0040191Y0239153D02*
X0070031Y0239153D01*
X0070262Y0240152D02*
X0043506Y0240152D01*
X0048199Y0241150D02*
X0070675Y0241150D01*
X0084101Y0233162D02*
X0318899Y0233162D01*
X0318234Y0234161D02*
X0084766Y0234161D01*
X0085179Y0235159D02*
X0317821Y0235159D01*
X0317407Y0236158D02*
X0085593Y0236158D01*
X0085724Y0237156D02*
X0317276Y0237156D01*
X0317276Y0238155D02*
X0085724Y0238155D01*
X0085724Y0239153D02*
X0317276Y0239153D01*
X0317506Y0240152D02*
X0085494Y0240152D01*
X0085081Y0241150D02*
X0317919Y0241150D01*
X0319897Y0232164D02*
X0083103Y0232164D01*
X0081795Y0231165D02*
X0321205Y0231165D01*
X0331345Y0233162D02*
X0374243Y0233162D01*
X0375476Y0232164D02*
X0347891Y0232164D01*
X0348890Y0231165D02*
X0376708Y0231165D01*
X0377941Y0230167D02*
X0349888Y0230167D01*
X0350060Y0229168D02*
X0378939Y0229168D01*
X0379837Y0228170D02*
X0350060Y0228170D01*
X0350060Y0227171D02*
X0380736Y0227171D01*
X0381635Y0226172D02*
X0349448Y0226172D01*
X0348449Y0225174D02*
X0382533Y0225174D01*
X0383249Y0224175D02*
X0300521Y0224175D01*
X0299523Y0223177D02*
X0383897Y0223177D01*
X0384545Y0222178D02*
X0298524Y0222178D01*
X0297526Y0221180D02*
X0385193Y0221180D01*
X0385841Y0220181D02*
X0296527Y0220181D01*
X0295528Y0219183D02*
X0386465Y0219183D01*
X0386909Y0218184D02*
X0294530Y0218184D01*
X0293531Y0217186D02*
X0387354Y0217186D01*
X0387798Y0216187D02*
X0292533Y0216187D01*
X0291534Y0215189D02*
X0388242Y0215189D01*
X0388687Y0214190D02*
X0290536Y0214190D01*
X0290437Y0219183D02*
X0016535Y0219183D01*
X0017159Y0220181D02*
X0291436Y0220181D01*
X0292434Y0221180D02*
X0017807Y0221180D01*
X0018455Y0222178D02*
X0293433Y0222178D01*
X0294431Y0223177D02*
X0019103Y0223177D01*
X0019751Y0224175D02*
X0295430Y0224175D01*
X0296428Y0225174D02*
X0059362Y0225174D01*
X0060360Y0226172D02*
X0297427Y0226172D01*
X0298425Y0227171D02*
X0060890Y0227171D01*
X0057102Y0227171D02*
X0056528Y0227171D01*
X0056528Y0226172D02*
X0057102Y0226172D01*
X0057102Y0225174D02*
X0056528Y0225174D01*
X0054268Y0225174D02*
X0020467Y0225174D01*
X0021365Y0226172D02*
X0053270Y0226172D01*
X0052740Y0227171D02*
X0022264Y0227171D01*
X0056528Y0229168D02*
X0057102Y0229168D01*
X0057102Y0230167D02*
X0056528Y0230167D01*
X0056528Y0231165D02*
X0057102Y0231165D01*
X0057102Y0232164D02*
X0056528Y0232164D01*
X0058804Y0232164D02*
X0072653Y0232164D01*
X0073961Y0231165D02*
X0059802Y0231165D01*
X0055100Y0183237D02*
X0028916Y0183237D01*
X0031215Y0182238D02*
X0055100Y0182238D01*
X0055100Y0181239D02*
X0032213Y0181239D01*
X0033126Y0180241D02*
X0055100Y0180241D01*
X0055100Y0179242D02*
X0033540Y0179242D01*
X0033953Y0178244D02*
X0055100Y0178244D01*
X0055100Y0177245D02*
X0034110Y0177245D01*
X0034110Y0176247D02*
X0055157Y0176247D01*
X0056156Y0175248D02*
X0034110Y0175248D01*
X0033744Y0174250D02*
X0057155Y0174250D01*
X0058153Y0173251D02*
X0033330Y0173251D01*
X0032706Y0172253D02*
X0059152Y0172253D01*
X0060150Y0171254D02*
X0031707Y0171254D01*
X0030105Y0170256D02*
X0061149Y0170256D01*
X0090200Y0148700D02*
X0114950Y0148700D01*
X0137900Y0171650D01*
X0140150Y0171650D01*
X0138350Y0146900D02*
X0125750Y0146900D01*
X0138350Y0146900D02*
X0138350Y0146450D01*
X0167600Y0146450D01*
X0193250Y0120800D01*
X0200900Y0120800D01*
X0202700Y0122600D01*
X0206750Y0122600D01*
X0199550Y0124400D02*
X0206750Y0131600D01*
X0208100Y0146450D02*
X0196400Y0146450D01*
X0190100Y0119000D02*
X0228800Y0119000D01*
X0223850Y0109100D02*
X0242750Y0128000D01*
X0242750Y0142850D01*
X0244636Y0172000D02*
X0246000Y0172000D01*
X0246000Y0176000D01*
X0247000Y0176000D01*
X0247000Y0177000D01*
X0251000Y0177000D01*
X0251000Y0178364D01*
X0248364Y0181000D01*
X0247000Y0181000D01*
X0247000Y0177000D01*
X0246000Y0177000D01*
X0246000Y0176000D01*
X0242000Y0176000D01*
X0242000Y0174636D01*
X0244636Y0172000D01*
X0244383Y0172253D02*
X0201943Y0172253D01*
X0200944Y0173251D02*
X0243385Y0173251D01*
X0242386Y0174250D02*
X0196346Y0174250D01*
X0195347Y0175248D02*
X0242000Y0175248D01*
X0242000Y0177245D02*
X0193350Y0177245D01*
X0194349Y0176247D02*
X0246000Y0176247D01*
X0246350Y0176150D02*
X0246500Y0176500D01*
X0246350Y0176150D02*
X0245450Y0175250D01*
X0197750Y0175250D01*
X0192352Y0178244D02*
X0242000Y0178244D01*
X0242879Y0179242D02*
X0191353Y0179242D01*
X0246000Y0179242D02*
X0247000Y0179242D01*
X0247000Y0178244D02*
X0246000Y0178244D01*
X0246000Y0177245D02*
X0247000Y0177245D01*
X0247000Y0176247D02*
X0252200Y0176247D01*
X0252200Y0177245D02*
X0251000Y0177245D01*
X0251000Y0178244D02*
X0252200Y0178244D01*
X0253161Y0179242D02*
X0250121Y0179242D01*
X0249123Y0180241D02*
X0254160Y0180241D01*
X0254681Y0182238D02*
X0248319Y0182238D01*
X0249318Y0183237D02*
X0253682Y0183237D01*
X0252684Y0184235D02*
X0250316Y0184235D01*
X0250800Y0185234D02*
X0252200Y0185234D01*
X0252200Y0186232D02*
X0250800Y0186232D01*
X0250800Y0187231D02*
X0252200Y0187231D01*
X0252200Y0188229D02*
X0250800Y0188229D01*
X0249854Y0189228D02*
X0253146Y0189228D01*
X0254145Y0190226D02*
X0248855Y0190226D01*
X0258319Y0182238D02*
X0260300Y0182238D01*
X0260300Y0183237D02*
X0259318Y0183237D01*
X0252200Y0175248D02*
X0251000Y0175248D01*
X0251000Y0174636D02*
X0251000Y0176000D01*
X0247000Y0176000D01*
X0247000Y0172000D01*
X0248364Y0172000D01*
X0251000Y0174636D01*
X0250614Y0174250D02*
X0252669Y0174250D01*
X0253667Y0173251D02*
X0249615Y0173251D01*
X0248617Y0172253D02*
X0254666Y0172253D01*
X0247000Y0172253D02*
X0246000Y0172253D01*
X0246000Y0173251D02*
X0247000Y0173251D01*
X0247000Y0174250D02*
X0246000Y0174250D01*
X0246000Y0175248D02*
X0247000Y0175248D01*
X0247000Y0180241D02*
X0246000Y0180241D01*
X0313850Y0137000D02*
X0313850Y0136550D01*
X0311600Y0134300D01*
X0311600Y0120800D01*
X0311150Y0120800D01*
X0304850Y0114500D01*
X0257600Y0114500D01*
X0259869Y0108348D02*
X0285931Y0108348D01*
X0288200Y0105950D02*
X0257600Y0105950D01*
X0255331Y0108348D02*
X0252797Y0108348D01*
X0253796Y0107350D02*
X0254608Y0107350D01*
X0259672Y0103356D02*
X0286127Y0103356D01*
X0279659Y0076396D02*
X0082541Y0076396D01*
X0083540Y0077394D02*
X0217589Y0077394D01*
X0216832Y0078393D02*
X0084538Y0078393D01*
X0085537Y0079391D02*
X0216500Y0079391D01*
X0216500Y0080390D02*
X0086535Y0080390D01*
X0087534Y0081388D02*
X0216865Y0081388D01*
X0217670Y0082387D02*
X0088532Y0082387D01*
X0089531Y0083385D02*
X0220790Y0083385D01*
X0221788Y0084384D02*
X0090529Y0084384D01*
X0091528Y0085382D02*
X0222787Y0085382D01*
X0221652Y0086381D02*
X0092526Y0086381D01*
X0093525Y0087379D02*
X0220887Y0087379D01*
X0220550Y0088378D02*
X0094524Y0088378D01*
X0095522Y0089376D02*
X0220550Y0089376D01*
X0220910Y0090375D02*
X0191991Y0090375D01*
X0193240Y0091373D02*
X0221707Y0091373D01*
X0223850Y0093350D02*
X0190550Y0093350D01*
X0190100Y0093350D01*
X0183350Y0100100D01*
X0174800Y0100100D01*
X0171749Y0101359D02*
X0107504Y0101359D01*
X0106506Y0100360D02*
X0171500Y0100360D01*
X0171534Y0099362D02*
X0105507Y0099362D01*
X0104509Y0098363D02*
X0171948Y0098363D01*
X0172869Y0097365D02*
X0103510Y0097365D01*
X0102512Y0096366D02*
X0184538Y0096366D01*
X0183540Y0097365D02*
X0176731Y0097365D01*
X0182450Y0103700D02*
X0107300Y0103700D01*
X0061400Y0057800D01*
X0063694Y0055427D02*
X0390826Y0055427D01*
X0390925Y0056426D02*
X0064403Y0056426D01*
X0064700Y0057424D02*
X0391025Y0057424D01*
X0391124Y0058423D02*
X0064700Y0058423D01*
X0065567Y0059421D02*
X0391224Y0059421D01*
X0391323Y0060420D02*
X0066565Y0060420D01*
X0067564Y0061418D02*
X0391423Y0061418D01*
X0389152Y0048437D02*
X0124393Y0048437D01*
X0125575Y0047439D02*
X0129006Y0047439D01*
X0128008Y0046440D02*
X0125654Y0046440D01*
X0125654Y0045442D02*
X0127546Y0045442D01*
X0121866Y0045442D02*
X0121291Y0045442D01*
X0121291Y0046440D02*
X0121866Y0046440D01*
X0121866Y0047439D02*
X0121291Y0047439D01*
X0121291Y0048437D02*
X0121866Y0048437D01*
X0121866Y0043445D02*
X0121291Y0043445D01*
X0121291Y0042446D02*
X0121866Y0042446D01*
X0121866Y0041448D02*
X0121291Y0041448D01*
X0121291Y0040449D02*
X0121866Y0040449D01*
X0133975Y0041448D02*
X0386422Y0041448D01*
X0386827Y0042446D02*
X0134973Y0042446D01*
X0135296Y0043445D02*
X0387231Y0043445D01*
X0387636Y0044443D02*
X0135296Y0044443D01*
X0135296Y0045442D02*
X0388041Y0045442D01*
X0388445Y0046440D02*
X0134835Y0046440D01*
X0133836Y0047439D02*
X0388850Y0047439D01*
X0365129Y0018482D02*
X0034342Y0018482D01*
X0036090Y0017484D02*
X0363172Y0017484D01*
X0361215Y0016485D02*
X0037839Y0016485D01*
X0040024Y0015487D02*
X0359145Y0015487D01*
X0356221Y0014488D02*
X0042663Y0014488D01*
X0045302Y0013490D02*
X0353297Y0013490D01*
X0348733Y0012491D02*
X0049776Y0012491D01*
X0096521Y0090375D02*
X0189109Y0090375D01*
X0187860Y0091373D02*
X0097519Y0091373D01*
X0098518Y0092372D02*
X0187383Y0092372D01*
X0187250Y0093370D02*
X0099516Y0093370D01*
X0100515Y0094369D02*
X0186535Y0094369D01*
X0185537Y0095368D02*
X0101513Y0095368D01*
X0025831Y0113341D02*
X0012917Y0113341D01*
X0015327Y0112342D02*
X0023421Y0112342D01*
X0022387Y0111344D02*
X0016361Y0111344D01*
X0017335Y0110345D02*
X0021413Y0110345D01*
X0021000Y0109347D02*
X0017748Y0109347D01*
X0018162Y0108348D02*
X0020586Y0108348D01*
X0020386Y0107350D02*
X0018362Y0107350D01*
X0018362Y0106351D02*
X0020386Y0106351D01*
X0020386Y0105353D02*
X0018362Y0105353D01*
X0018039Y0104354D02*
X0020709Y0104354D01*
X0021123Y0103356D02*
X0017625Y0103356D01*
X0017062Y0102357D02*
X0021686Y0102357D01*
X0022685Y0101359D02*
X0016063Y0101359D01*
X0014609Y0100360D02*
X0024139Y0100360D01*
X0182450Y0103700D02*
X0189200Y0096950D01*
X0209450Y0096950D01*
X0207195Y0099362D02*
X0189334Y0099362D01*
X0188336Y0100360D02*
X0209750Y0100360D01*
X0209813Y0101359D02*
X0187337Y0101359D01*
X0186338Y0102357D02*
X0210227Y0102357D01*
X0209949Y0103356D02*
X0185340Y0103356D01*
X0200450Y0115400D02*
X0213050Y0102800D01*
X0213050Y0100550D01*
X0223850Y0093350D02*
X0223850Y0088850D01*
X0223850Y0093350D02*
X0223850Y0109100D01*
X0313850Y0137000D02*
X0346250Y0137000D01*
X0343921Y0225174D02*
X0301520Y0225174D01*
X0302518Y0226172D02*
X0342923Y0226172D01*
X0332010Y0234161D02*
X0372968Y0234161D01*
X0371239Y0235159D02*
X0332424Y0235159D01*
X0332837Y0236158D02*
X0369511Y0236158D01*
X0367782Y0237156D02*
X0332968Y0237156D01*
X0332968Y0238155D02*
X0365408Y0238155D01*
X0362809Y0239153D02*
X0332968Y0239153D01*
X0332738Y0240152D02*
X0359494Y0240152D01*
X0354801Y0241150D02*
X0332325Y0241150D01*
D14*
X0252650Y0164000D03*
X0213050Y0146450D03*
X0196400Y0146450D03*
X0209000Y0157700D03*
X0197750Y0175250D03*
X0173450Y0186500D03*
X0140150Y0171650D03*
X0125750Y0146900D03*
X0138350Y0146450D03*
X0099200Y0163550D03*
X0081200Y0163550D03*
X0065450Y0173450D03*
X0090200Y0148700D03*
X0061400Y0123500D03*
X0044300Y0123500D03*
X0044300Y0088400D03*
X0061400Y0088400D03*
X0061400Y0057800D03*
X0174800Y0100100D03*
X0190550Y0093350D03*
X0209450Y0096950D03*
X0213050Y0100550D03*
X0203150Y0107750D03*
X0190100Y0119000D03*
X0199550Y0124400D03*
X0206750Y0122600D03*
X0206750Y0131600D03*
X0228800Y0119000D03*
X0248150Y0110450D03*
X0257600Y0114500D03*
X0257600Y0105950D03*
X0288200Y0105950D03*
X0311600Y0120800D03*
X0313850Y0137000D03*
X0346250Y0137000D03*
X0284600Y0074000D03*
X0223850Y0088850D03*
X0219800Y0079850D03*
M02*
