%
M48
M72
T01C0.02400
T02C0.03150
T03C0.04000
T04C0.04724
T05C0.06693
%
T01
X118400Y74000
X114800Y105950
X91400Y120800
X89150Y137000
X56750Y137000
X145400Y114500
X154850Y110450
X145400Y105950
X174200Y119000
X196250Y122600
X203450Y124400
X212900Y119000
X199850Y107750
X189950Y100550
X193550Y96950
X179150Y88850
X183200Y79850
X212450Y93350
X228200Y100100
X196250Y131600
X189950Y146450
X206600Y146450
X194000Y157700
X205250Y175250
X229550Y186500
X262850Y171650
X277250Y146900
X264650Y146450
X303800Y163550
X321800Y163550
X337550Y173450
X312800Y148700
X341600Y123500
X358700Y123500
X358700Y88400
X341600Y88400
X341600Y57800
X150350Y164000
T02
X56815Y228390
X346185Y228390
X346185Y214610
X281421Y44374
X271579Y44374
T03
X156500Y176500
X146500Y176500
X136500Y176500
X136500Y186500
X146500Y186500
X156500Y186500
T04
X375752Y176500
X391500Y176500
X391500Y141500
X375752Y141500
X375752Y106500
X391500Y106500
X391500Y71500
X375752Y71500
T05
X329846Y204965
X325122Y238035
X77878Y238035
X73154Y204965
M30
