G75*
%MOIN*%
%OFA0B0*%
%FSLAX25Y25*%
%IPPOS*%
%LPD*%
%AMOC8*
5,1,8,0,0,1.08239X$1,22.5*
%
%ADD10C,0.00600*%
%ADD11C,0.00500*%
%ADD12C,0.00900*%
%ADD13C,0.00400*%
%ADD14R,0.00892X0.00042*%
%ADD15R,0.00595X0.00042*%
%ADD16R,0.01572X0.00042*%
%ADD17R,0.01402X0.00042*%
%ADD18R,0.01912X0.00042*%
%ADD19R,0.01955X0.00042*%
%ADD20R,0.02083X0.00042*%
%ADD21R,0.02295X0.00042*%
%ADD22R,0.03782X0.00042*%
%ADD23R,0.02252X0.00042*%
%ADD24R,0.03485X0.00042*%
%ADD25R,0.02635X0.00042*%
%ADD26R,0.03825X0.00042*%
%ADD27R,0.02422X0.00042*%
%ADD28R,0.03527X0.00042*%
%ADD29R,0.01785X0.00042*%
%ADD30R,0.02932X0.00042*%
%ADD31R,0.02550X0.00042*%
%ADD32R,0.02082X0.00042*%
%ADD33R,0.03145X0.00042*%
%ADD34R,0.02677X0.00042*%
%ADD35R,0.03400X0.00042*%
%ADD36R,0.02763X0.00042*%
%ADD37R,0.02507X0.00042*%
%ADD38R,0.03612X0.00042*%
%ADD39R,0.02847X0.00042*%
%ADD40R,0.02975X0.00042*%
%ADD41R,0.03995X0.00042*%
%ADD42R,0.03060X0.00042*%
%ADD43R,0.02890X0.00042*%
%ADD44R,0.04207X0.00042*%
%ADD45R,0.03145X0.00042*%
%ADD46R,0.04377X0.00042*%
%ADD47R,0.03230X0.00042*%
%ADD48R,0.04547X0.00042*%
%ADD49R,0.03315X0.00042*%
%ADD50R,0.04717X0.00042*%
%ADD51R,0.03358X0.00042*%
%ADD52R,0.04845X0.00042*%
%ADD53R,0.03442X0.00042*%
%ADD54R,0.04972X0.00042*%
%ADD55R,0.05100X0.00042*%
%ADD56R,0.03570X0.00042*%
%ADD57R,0.05270X0.00042*%
%ADD58R,0.03655X0.00042*%
%ADD59R,0.05397X0.00042*%
%ADD60R,0.03697X0.00042*%
%ADD61R,0.03570X0.00042*%
%ADD62R,0.05525X0.00042*%
%ADD63R,0.03740X0.00042*%
%ADD64R,0.05610X0.00042*%
%ADD65R,0.05738X0.00042*%
%ADD66R,0.03867X0.00042*%
%ADD67R,0.05865X0.00042*%
%ADD68R,0.03952X0.00042*%
%ADD69R,0.05950X0.00042*%
%ADD70R,0.03995X0.00042*%
%ADD71R,0.06077X0.00042*%
%ADD72R,0.04038X0.00042*%
%ADD73R,0.03910X0.00042*%
%ADD74R,0.06205X0.00042*%
%ADD75R,0.04080X0.00042*%
%ADD76R,0.06290X0.00042*%
%ADD77R,0.04122X0.00042*%
%ADD78R,0.06375X0.00042*%
%ADD79R,0.04165X0.00042*%
%ADD80R,0.06460X0.00042*%
%ADD81R,0.04208X0.00042*%
%ADD82R,0.06588X0.00042*%
%ADD83R,0.04250X0.00042*%
%ADD84R,0.06672X0.00042*%
%ADD85R,0.04292X0.00042*%
%ADD86R,0.06757X0.00042*%
%ADD87R,0.04335X0.00042*%
%ADD88R,0.06842X0.00042*%
%ADD89R,0.06927X0.00042*%
%ADD90R,0.04420X0.00042*%
%ADD91R,0.07013X0.00042*%
%ADD92R,0.04462X0.00042*%
%ADD93R,0.07097X0.00042*%
%ADD94R,0.04505X0.00042*%
%ADD95R,0.07140X0.00042*%
%ADD96R,0.01360X0.00042*%
%ADD97R,0.04590X0.00042*%
%ADD98R,0.04633X0.00042*%
%ADD99R,0.04420X0.00042*%
%ADD100R,0.04675X0.00042*%
%ADD101R,0.01317X0.00042*%
%ADD102R,0.04760X0.00042*%
%ADD103R,0.04802X0.00042*%
%ADD104R,0.00510X0.00042*%
%ADD105R,0.02040X0.00042*%
%ADD106R,0.00552X0.00042*%
%ADD107R,0.00382X0.00042*%
%ADD108R,0.01275X0.00042*%
%ADD109R,0.04845X0.00042*%
%ADD110R,0.00255X0.00042*%
%ADD111R,0.04888X0.00042*%
%ADD112R,0.04632X0.00042*%
%ADD113R,0.00127X0.00042*%
%ADD114R,0.01870X0.00042*%
%ADD115R,0.00085X0.00042*%
%ADD116R,0.04930X0.00042*%
%ADD117R,0.01827X0.00042*%
%ADD118R,0.01232X0.00042*%
%ADD119R,0.01233X0.00042*%
%ADD120R,0.01742X0.00042*%
%ADD121R,0.05015X0.00042*%
%ADD122R,0.01700X0.00042*%
%ADD123R,0.01190X0.00042*%
%ADD124R,0.05058X0.00042*%
%ADD125R,0.01657X0.00042*%
%ADD126R,0.01615X0.00042*%
%ADD127R,0.05142X0.00042*%
%ADD128R,0.01530X0.00042*%
%ADD129R,0.01445X0.00042*%
%ADD130R,0.01487X0.00042*%
%ADD131R,0.01445X0.00042*%
%ADD132R,0.05185X0.00042*%
%ADD133R,0.05227X0.00042*%
%ADD134R,0.05270X0.00042*%
%ADD135R,0.05312X0.00042*%
%ADD136R,0.05355X0.00042*%
%ADD137R,0.01147X0.00042*%
%ADD138R,0.01997X0.00042*%
%ADD139R,0.01105X0.00042*%
%ADD140R,0.01063X0.00042*%
%ADD141R,0.01020X0.00042*%
%ADD142R,0.02125X0.00042*%
%ADD143R,0.05440X0.00042*%
%ADD144R,0.00977X0.00042*%
%ADD145R,0.00935X0.00042*%
%ADD146R,0.05483X0.00042*%
%ADD147R,0.00850X0.00042*%
%ADD148R,0.00807X0.00042*%
%ADD149R,0.05057X0.00042*%
%ADD150R,0.00765X0.00042*%
%ADD151R,0.00595X0.00042*%
%ADD152R,0.00425X0.00042*%
%ADD153R,0.03783X0.00042*%
%ADD154R,0.00722X0.00042*%
%ADD155R,0.00297X0.00042*%
%ADD156R,0.00680X0.00042*%
%ADD157R,0.00213X0.00042*%
%ADD158R,0.00042X0.00042*%
%ADD159R,0.02040X0.00042*%
%ADD160R,0.01190X0.00042*%
%ADD161R,0.03357X0.00042*%
%ADD162R,0.01870X0.00042*%
%ADD163R,0.02167X0.00042*%
%ADD164R,0.02210X0.00042*%
%ADD165R,0.00467X0.00042*%
%ADD166R,0.02253X0.00042*%
%ADD167R,0.02295X0.00042*%
%ADD168R,0.02337X0.00042*%
%ADD169R,0.09350X0.00042*%
%ADD170R,0.02380X0.00042*%
%ADD171R,0.09308X0.00042*%
%ADD172R,0.09265X0.00042*%
%ADD173R,0.09222X0.00042*%
%ADD174R,0.09137X0.00042*%
%ADD175R,0.09052X0.00042*%
%ADD176R,0.09010X0.00042*%
%ADD177R,0.01828X0.00042*%
%ADD178R,0.08967X0.00042*%
%ADD179R,0.08925X0.00042*%
%ADD180R,0.08840X0.00042*%
%ADD181R,0.08755X0.00042*%
%ADD182R,0.08670X0.00042*%
%ADD183R,0.01615X0.00042*%
%ADD184R,0.03102X0.00042*%
%ADD185R,0.08627X0.00042*%
%ADD186R,0.03188X0.00042*%
%ADD187R,0.08585X0.00042*%
%ADD188R,0.01658X0.00042*%
%ADD189R,0.08542X0.00042*%
%ADD190R,0.03272X0.00042*%
%ADD191R,0.08500X0.00042*%
%ADD192R,0.08457X0.00042*%
%ADD193R,0.08372X0.00042*%
%ADD194R,0.08288X0.00042*%
%ADD195R,0.01020X0.00042*%
%ADD196R,0.08202X0.00042*%
%ADD197R,0.08117X0.00042*%
%ADD198R,0.08075X0.00042*%
%ADD199R,0.08032X0.00042*%
%ADD200R,0.07947X0.00042*%
%ADD201R,0.07905X0.00042*%
%ADD202R,0.07820X0.00042*%
%ADD203R,0.07777X0.00042*%
%ADD204R,0.07735X0.00042*%
%ADD205R,0.07650X0.00042*%
%ADD206R,0.07565X0.00042*%
%ADD207R,0.03315X0.00042*%
%ADD208R,0.07480X0.00042*%
%ADD209R,0.07437X0.00042*%
%ADD210R,0.07353X0.00042*%
%ADD211R,0.07267X0.00042*%
%ADD212R,0.07183X0.00042*%
%ADD213R,0.03740X0.00042*%
%ADD214R,0.07055X0.00042*%
%ADD215R,0.06928X0.00042*%
%ADD216R,0.06758X0.00042*%
%ADD217R,0.03103X0.00042*%
%ADD218R,0.06503X0.00042*%
%ADD219R,0.06417X0.00042*%
%ADD220R,0.06333X0.00042*%
%ADD221R,0.06162X0.00042*%
%ADD222R,0.06078X0.00042*%
%ADD223R,0.05822X0.00042*%
%ADD224R,0.00170X0.00042*%
%ADD225R,0.00340X0.00042*%
%ADD226R,0.04378X0.00042*%
%ADD227R,0.03528X0.00042*%
%ADD228R,0.03953X0.00042*%
%ADD229R,0.06332X0.00042*%
%ADD230R,0.06502X0.00042*%
%ADD231R,0.06630X0.00042*%
%ADD232R,0.06715X0.00042*%
%ADD233R,0.06800X0.00042*%
%ADD234R,0.06970X0.00042*%
%ADD235R,0.07225X0.00042*%
%ADD236R,0.07310X0.00042*%
%ADD237R,0.07395X0.00042*%
%ADD238R,0.07522X0.00042*%
%ADD239R,0.08415X0.00042*%
%ADD240R,0.07608X0.00042*%
%ADD241R,0.07692X0.00042*%
%ADD242R,0.08330X0.00042*%
%ADD243R,0.08245X0.00042*%
%ADD244R,0.08160X0.00042*%
%ADD245R,0.06970X0.00042*%
%ADD246R,0.06885X0.00042*%
%ADD247R,0.07990X0.00042*%
%ADD248R,0.06545X0.00042*%
%ADD249R,0.07863X0.00042*%
%ADD250R,0.07820X0.00042*%
%ADD251R,0.06120X0.00042*%
%ADD252R,0.07607X0.00042*%
%ADD253R,0.05992X0.00042*%
%ADD254R,0.05780X0.00042*%
%ADD255R,0.05652X0.00042*%
%ADD256R,0.07352X0.00042*%
%ADD257R,0.05567X0.00042*%
%ADD258R,0.02465X0.00042*%
%ADD259C,0.00000*%
%ADD260C,0.00300*%
D10*
X0099100Y0039100D02*
X0103504Y0039100D01*
X0102036Y0040568D01*
X0103504Y0042036D01*
X0099100Y0042036D01*
X0099100Y0043704D02*
X0099100Y0045172D01*
X0099100Y0044438D02*
X0103504Y0044438D01*
X0103504Y0043704D02*
X0103504Y0045172D01*
X0102770Y0046773D02*
X0099834Y0046773D01*
X0099100Y0047507D01*
X0099100Y0048975D01*
X0099834Y0049709D01*
X0102770Y0049709D02*
X0103504Y0048975D01*
X0103504Y0047507D01*
X0102770Y0046773D01*
D11*
X0095053Y0040801D02*
X0095053Y0039050D01*
X0091550Y0039050D01*
X0092718Y0039050D02*
X0092718Y0040801D01*
X0093301Y0041385D01*
X0094469Y0041385D01*
X0095053Y0040801D01*
X0092718Y0040218D02*
X0091550Y0041385D01*
X0092134Y0042733D02*
X0093301Y0042733D01*
X0093885Y0043317D01*
X0093885Y0044485D01*
X0093301Y0045068D01*
X0092718Y0045068D01*
X0092718Y0042733D01*
X0092134Y0042733D02*
X0091550Y0043317D01*
X0091550Y0044485D01*
X0093885Y0046416D02*
X0091550Y0047584D01*
X0093885Y0048752D01*
X0092134Y0050099D02*
X0092134Y0050683D01*
X0091550Y0050683D01*
X0091550Y0050099D01*
X0092134Y0050099D01*
X0091550Y0051941D02*
X0091550Y0054276D01*
X0091550Y0053109D02*
X0095053Y0053109D01*
X0093885Y0051941D01*
X0092134Y0055624D02*
X0092134Y0056208D01*
X0091550Y0056208D01*
X0091550Y0055624D01*
X0092134Y0055624D01*
X0092134Y0057466D02*
X0094469Y0059801D01*
X0092134Y0059801D01*
X0091550Y0059217D01*
X0091550Y0058050D01*
X0092134Y0057466D01*
X0094469Y0057466D01*
X0095053Y0058050D01*
X0095053Y0059217D01*
X0094469Y0059801D01*
X0092134Y0061149D02*
X0092134Y0061733D01*
X0091550Y0061733D01*
X0091550Y0061149D01*
X0092134Y0061149D01*
X0092134Y0062990D02*
X0094469Y0065326D01*
X0092134Y0065326D01*
X0091550Y0064742D01*
X0091550Y0063574D01*
X0092134Y0062990D01*
X0094469Y0062990D01*
X0095053Y0063574D01*
X0095053Y0064742D01*
X0094469Y0065326D01*
X0095053Y0066674D02*
X0095053Y0068425D01*
X0094469Y0069009D01*
X0093885Y0069009D01*
X0093301Y0068425D01*
X0093301Y0066674D01*
X0091550Y0066674D02*
X0091550Y0068425D01*
X0092134Y0069009D01*
X0092718Y0069009D01*
X0093301Y0068425D01*
X0093301Y0070357D02*
X0092134Y0070357D01*
X0091550Y0070941D01*
X0091550Y0072108D01*
X0092718Y0072692D02*
X0092718Y0070357D01*
X0093301Y0070357D02*
X0093885Y0070941D01*
X0093885Y0072108D01*
X0093301Y0072692D01*
X0092718Y0072692D01*
X0093885Y0074040D02*
X0093885Y0075208D01*
X0094469Y0074624D02*
X0092134Y0074624D01*
X0091550Y0075208D01*
X0092134Y0076495D02*
X0092718Y0077079D01*
X0092718Y0078831D01*
X0093301Y0078831D02*
X0091550Y0078831D01*
X0091550Y0077079D01*
X0092134Y0076495D01*
X0093885Y0077079D02*
X0093885Y0078247D01*
X0093301Y0078831D01*
X0091550Y0066674D02*
X0095053Y0066674D01*
X0087179Y0067167D02*
X0087179Y0064832D01*
X0085427Y0064832D01*
X0086011Y0066000D01*
X0086011Y0066584D01*
X0085427Y0067167D01*
X0084260Y0067167D01*
X0083676Y0066584D01*
X0083676Y0065416D01*
X0084260Y0064832D01*
X0085427Y0063484D02*
X0085427Y0061149D01*
X0087179Y0062900D01*
X0083676Y0062900D01*
X0084260Y0059801D02*
X0084844Y0059801D01*
X0085427Y0059217D01*
X0085427Y0057466D01*
X0084260Y0057466D01*
X0083676Y0058050D01*
X0083676Y0059217D01*
X0084260Y0059801D01*
X0086595Y0058633D02*
X0085427Y0057466D01*
X0086595Y0058633D02*
X0087179Y0059801D01*
X0086595Y0056118D02*
X0084260Y0053783D01*
X0083676Y0054366D01*
X0083676Y0055534D01*
X0084260Y0056118D01*
X0086595Y0056118D01*
X0087179Y0055534D01*
X0087179Y0054366D01*
X0086595Y0053783D01*
X0084260Y0053783D01*
X0085427Y0052435D02*
X0085427Y0050099D01*
X0085427Y0048752D02*
X0085427Y0046416D01*
X0085427Y0045068D02*
X0084844Y0044485D01*
X0084844Y0042733D01*
X0083676Y0042733D02*
X0087179Y0042733D01*
X0087179Y0044485D01*
X0086595Y0045068D01*
X0085427Y0045068D01*
X0083676Y0046416D02*
X0087179Y0046416D01*
X0087179Y0048752D02*
X0083676Y0048752D01*
X0084260Y0041385D02*
X0083676Y0040801D01*
X0083676Y0039634D01*
X0084260Y0039050D01*
X0085427Y0039634D02*
X0085427Y0040801D01*
X0084844Y0041385D01*
X0084260Y0041385D01*
X0085427Y0039634D02*
X0086011Y0039050D01*
X0086595Y0039050D01*
X0087179Y0039634D01*
X0087179Y0040801D01*
X0086595Y0041385D01*
D12*
X0017156Y0041107D02*
X0010450Y0041107D01*
X0010450Y0038872D02*
X0017156Y0038872D01*
X0014920Y0037754D02*
X0014920Y0041107D01*
X0014920Y0042225D01*
X0013803Y0044752D02*
X0013803Y0049223D01*
X0013803Y0051750D02*
X0014920Y0053985D01*
X0014920Y0055103D01*
X0013803Y0056220D01*
X0011568Y0056220D01*
X0010450Y0055103D01*
X0010450Y0052868D01*
X0011568Y0051750D01*
X0013803Y0051750D02*
X0017156Y0051750D01*
X0017156Y0056220D01*
X0016038Y0058748D02*
X0017156Y0059866D01*
X0017156Y0062101D01*
X0016038Y0063218D01*
X0011568Y0058748D01*
X0010450Y0059866D01*
X0010450Y0062101D01*
X0011568Y0063218D01*
X0016038Y0063218D01*
X0016038Y0058748D02*
X0011568Y0058748D01*
X0010450Y0048105D02*
X0017156Y0048105D01*
X0013803Y0044752D01*
X0012685Y0042225D02*
X0012685Y0037754D01*
D13*
X0038517Y0090800D02*
X0038517Y0093602D01*
X0040385Y0093602D02*
X0038517Y0090800D01*
X0040385Y0090800D02*
X0040385Y0093602D01*
X0041463Y0092668D02*
X0041463Y0090800D01*
X0041463Y0092201D02*
X0043332Y0092201D01*
X0043332Y0092668D02*
X0042398Y0093602D01*
X0041463Y0092668D01*
X0043332Y0092668D02*
X0043332Y0090800D01*
X0044410Y0092201D02*
X0044877Y0091734D01*
X0046278Y0091734D01*
X0046278Y0090800D02*
X0046278Y0093602D01*
X0044877Y0093602D01*
X0044410Y0093135D01*
X0044410Y0092201D01*
X0047357Y0092201D02*
X0049225Y0092201D01*
X0049225Y0092668D02*
X0048291Y0093602D01*
X0047357Y0092668D01*
X0047357Y0090800D01*
X0049225Y0090800D02*
X0049225Y0092668D01*
X0050303Y0093602D02*
X0051237Y0093602D01*
X0050770Y0093602D02*
X0050770Y0091267D01*
X0051237Y0090800D01*
X0051704Y0090800D01*
X0052171Y0091267D01*
X0056196Y0090800D02*
X0056196Y0093602D01*
X0058064Y0093602D02*
X0056196Y0090800D01*
X0058064Y0090800D02*
X0058064Y0093602D01*
X0059095Y0093602D02*
X0060029Y0093602D01*
X0059562Y0093602D02*
X0059562Y0090800D01*
X0060029Y0090800D02*
X0059095Y0090800D01*
X0064053Y0090800D02*
X0065922Y0090800D01*
X0065922Y0093602D01*
X0064053Y0093602D01*
X0064988Y0092201D02*
X0065922Y0092201D01*
X0067000Y0091267D02*
X0067467Y0090800D01*
X0068868Y0090800D01*
X0068868Y0093602D01*
X0067467Y0093602D01*
X0067000Y0093135D01*
X0067000Y0091267D01*
X0069947Y0090800D02*
X0069947Y0092668D01*
X0070881Y0093602D01*
X0071815Y0092668D01*
X0071815Y0090800D01*
X0072893Y0090800D02*
X0072893Y0093602D01*
X0073827Y0092668D01*
X0074761Y0093602D01*
X0074761Y0090800D01*
X0071815Y0092201D02*
X0069947Y0092201D01*
D14*
X0062940Y0095300D03*
X0071483Y0108007D03*
X0051210Y0095470D03*
X0041308Y0098530D03*
X0041308Y0100612D03*
D15*
X0042561Y0102312D03*
X0040011Y0102312D03*
X0041286Y0095300D03*
D16*
X0041308Y0097723D03*
X0041308Y0100315D03*
X0045005Y0101930D03*
X0044962Y0102057D03*
X0045260Y0099167D03*
X0037780Y0097935D03*
X0037780Y0097892D03*
X0037610Y0102015D03*
X0062940Y0095342D03*
X0070548Y0104523D03*
D17*
X0045430Y0100357D03*
X0044835Y0097765D03*
X0041308Y0097935D03*
X0041308Y0095342D03*
X0037780Y0097765D03*
X0037143Y0100357D03*
X0041308Y0104948D03*
X0042668Y0102652D03*
D18*
X0044962Y0101632D03*
X0044792Y0098190D03*
X0041308Y0097298D03*
X0063025Y0095385D03*
D19*
X0044771Y0098232D03*
X0044941Y0101590D03*
X0041286Y0104905D03*
X0037631Y0101632D03*
X0037631Y0101590D03*
X0037801Y0098232D03*
X0041286Y0097255D03*
X0041286Y0095385D03*
D20*
X0037823Y0098317D03*
X0037823Y0098360D03*
X0037823Y0098402D03*
X0037738Y0098615D03*
X0037652Y0098827D03*
X0037652Y0098870D03*
X0037652Y0098912D03*
X0037610Y0098998D03*
X0037652Y0101462D03*
X0045090Y0100485D03*
X0044962Y0098955D03*
X0044962Y0098912D03*
X0044877Y0098700D03*
X0044835Y0098573D03*
X0044750Y0098360D03*
X0063110Y0095427D03*
X0071440Y0107923D03*
D21*
X0050551Y0095598D03*
X0041286Y0095427D03*
X0037674Y0100910D03*
X0037674Y0100952D03*
X0041286Y0104862D03*
D22*
X0041308Y0097042D03*
X0049808Y0101632D03*
X0049808Y0102780D03*
X0054058Y0102780D03*
X0054058Y0102737D03*
X0054058Y0102695D03*
X0054058Y0102652D03*
X0054058Y0102610D03*
X0054058Y0102567D03*
X0054058Y0102525D03*
X0054058Y0102482D03*
X0054058Y0102440D03*
X0054058Y0102398D03*
X0054058Y0102355D03*
X0054058Y0102312D03*
X0054058Y0102270D03*
X0054058Y0102227D03*
X0054058Y0102185D03*
X0054058Y0102142D03*
X0054058Y0102100D03*
X0054058Y0102057D03*
X0054058Y0102015D03*
X0054058Y0101973D03*
X0054058Y0101930D03*
X0054058Y0101887D03*
X0054058Y0101845D03*
X0054058Y0101802D03*
X0054058Y0101760D03*
X0054058Y0101717D03*
X0054058Y0101675D03*
X0054058Y0101632D03*
X0054058Y0101590D03*
X0054058Y0101548D03*
X0054058Y0101505D03*
X0054058Y0101462D03*
X0054058Y0101420D03*
X0054058Y0101377D03*
X0054058Y0101335D03*
X0054058Y0101292D03*
X0054058Y0101250D03*
X0054058Y0101207D03*
X0054058Y0101165D03*
X0054058Y0101123D03*
X0054058Y0101080D03*
X0054058Y0101037D03*
X0054058Y0100995D03*
X0054058Y0100952D03*
X0054058Y0100910D03*
X0054058Y0100867D03*
X0054058Y0100825D03*
X0054058Y0100782D03*
X0054058Y0100740D03*
X0054058Y0100698D03*
X0054058Y0100655D03*
X0054058Y0100612D03*
X0054058Y0100570D03*
X0054058Y0100527D03*
X0054058Y0100485D03*
X0054058Y0100442D03*
X0054058Y0100400D03*
X0054058Y0100357D03*
X0054058Y0100315D03*
X0054058Y0100273D03*
X0054058Y0100230D03*
X0054058Y0100187D03*
X0054058Y0100145D03*
X0054058Y0100102D03*
X0054058Y0100060D03*
X0054058Y0100017D03*
X0054058Y0099975D03*
X0054058Y0099932D03*
X0054058Y0099890D03*
X0054058Y0099848D03*
X0054058Y0099805D03*
X0054058Y0099762D03*
X0054058Y0099720D03*
X0054058Y0099677D03*
X0054058Y0099635D03*
X0054058Y0099592D03*
X0054058Y0099550D03*
X0054058Y0099507D03*
X0054058Y0099465D03*
X0054058Y0099423D03*
X0054058Y0099380D03*
X0054058Y0099337D03*
X0054058Y0099295D03*
X0054058Y0099252D03*
X0054058Y0099210D03*
X0054058Y0099167D03*
X0054058Y0099125D03*
X0054058Y0099082D03*
X0054058Y0099040D03*
X0054058Y0098998D03*
X0054058Y0098955D03*
X0054058Y0098912D03*
X0054058Y0098870D03*
X0054058Y0098827D03*
X0054058Y0098785D03*
X0054058Y0098742D03*
X0054058Y0098700D03*
X0054058Y0098657D03*
X0054058Y0098615D03*
X0054058Y0098573D03*
X0054058Y0098530D03*
X0054058Y0098487D03*
X0054058Y0098445D03*
X0054058Y0098402D03*
X0054058Y0098360D03*
X0054058Y0098317D03*
X0054058Y0098275D03*
X0054058Y0098232D03*
X0054058Y0098190D03*
X0054058Y0098148D03*
X0054058Y0098105D03*
X0054058Y0098062D03*
X0054058Y0098020D03*
X0054058Y0097977D03*
X0054058Y0097935D03*
X0054058Y0097892D03*
X0054058Y0097850D03*
X0054058Y0097807D03*
X0054058Y0097765D03*
X0054058Y0097723D03*
X0054058Y0097680D03*
X0054058Y0097637D03*
X0054058Y0097595D03*
X0054058Y0097552D03*
X0054058Y0097510D03*
X0054058Y0097467D03*
X0054058Y0097425D03*
X0054058Y0097382D03*
X0054058Y0097340D03*
X0054058Y0097298D03*
X0054058Y0097255D03*
X0054058Y0097212D03*
X0054058Y0097170D03*
X0054058Y0097127D03*
X0054058Y0097085D03*
X0054058Y0097042D03*
X0054058Y0097000D03*
X0054058Y0096957D03*
X0054058Y0096915D03*
X0054058Y0096873D03*
X0054058Y0096830D03*
X0054058Y0096787D03*
X0054058Y0096745D03*
X0054058Y0096702D03*
X0054058Y0096660D03*
X0054058Y0096617D03*
X0054058Y0096575D03*
X0054058Y0096532D03*
X0054058Y0096490D03*
X0054058Y0096448D03*
X0054058Y0096405D03*
X0054058Y0096362D03*
X0054058Y0096320D03*
X0054058Y0096277D03*
X0054058Y0096235D03*
X0054058Y0096192D03*
X0054058Y0096150D03*
X0054058Y0096107D03*
X0054058Y0096065D03*
X0054058Y0096023D03*
X0054058Y0095980D03*
X0054058Y0095937D03*
X0054058Y0095895D03*
X0054058Y0095852D03*
X0054058Y0095810D03*
X0054058Y0095767D03*
X0054058Y0095725D03*
X0054058Y0095682D03*
X0054058Y0095640D03*
X0054058Y0095598D03*
X0054058Y0095555D03*
X0054058Y0095512D03*
X0054058Y0095470D03*
X0054058Y0102823D03*
X0054058Y0102865D03*
X0054058Y0102907D03*
X0054058Y0102950D03*
X0054058Y0102992D03*
X0054058Y0103035D03*
X0054058Y0103077D03*
X0054058Y0103120D03*
X0054058Y0103162D03*
X0054058Y0103205D03*
X0054058Y0103248D03*
X0054058Y0103290D03*
X0054058Y0103332D03*
X0054058Y0103375D03*
X0054058Y0103417D03*
X0054058Y0103460D03*
X0054058Y0103502D03*
X0054058Y0103545D03*
X0054058Y0103587D03*
X0054058Y0103630D03*
X0054058Y0103673D03*
X0054058Y0103715D03*
X0054058Y0103757D03*
X0054058Y0103800D03*
X0054058Y0103842D03*
X0054058Y0103885D03*
X0054058Y0103927D03*
X0054058Y0103970D03*
X0054058Y0104012D03*
X0054058Y0104055D03*
X0054058Y0104098D03*
X0054058Y0104140D03*
X0054058Y0104182D03*
X0054058Y0104225D03*
X0054058Y0104267D03*
X0054058Y0104310D03*
X0054058Y0104352D03*
X0065745Y0099082D03*
X0074330Y0095470D03*
X0074245Y0103927D03*
X0074245Y0103970D03*
D23*
X0063195Y0095470D03*
X0062855Y0104523D03*
X0045005Y0100698D03*
X0045005Y0100655D03*
X0044878Y0101250D03*
X0044878Y0101292D03*
X0037695Y0101292D03*
X0037610Y0100782D03*
X0037610Y0100740D03*
X0037610Y0100698D03*
D24*
X0048469Y0099635D03*
X0048426Y0098870D03*
X0049956Y0101845D03*
X0049956Y0102440D03*
X0059859Y0095470D03*
D25*
X0062834Y0104480D03*
X0050381Y0095682D03*
X0041286Y0095470D03*
X0041286Y0104820D03*
D26*
X0041286Y0104607D03*
X0041286Y0095682D03*
X0049786Y0096320D03*
X0049786Y0101590D03*
X0049786Y0102823D03*
X0060071Y0100740D03*
X0063981Y0096235D03*
X0065724Y0099040D03*
X0065766Y0100655D03*
X0074309Y0102015D03*
X0074309Y0102057D03*
X0074309Y0102100D03*
X0074309Y0102142D03*
X0074309Y0102185D03*
X0074309Y0102227D03*
X0074309Y0102270D03*
X0074309Y0102312D03*
X0074309Y0102355D03*
X0074309Y0102398D03*
X0074309Y0102440D03*
X0074309Y0102482D03*
X0074309Y0102525D03*
X0074309Y0102567D03*
X0074309Y0102610D03*
X0074309Y0102652D03*
X0074309Y0102695D03*
X0074309Y0102737D03*
X0074309Y0102780D03*
X0074309Y0102823D03*
X0074309Y0102865D03*
X0074309Y0102907D03*
X0074309Y0102950D03*
X0074309Y0102992D03*
X0074309Y0103035D03*
X0074309Y0103077D03*
X0074309Y0103120D03*
X0074309Y0103162D03*
X0074309Y0103205D03*
X0074309Y0103248D03*
X0074309Y0103290D03*
X0074309Y0103332D03*
X0074309Y0103375D03*
X0074309Y0103417D03*
X0074309Y0103460D03*
X0074309Y0103502D03*
X0074309Y0103545D03*
X0074266Y0103842D03*
X0074266Y0103885D03*
X0074224Y0104012D03*
X0074224Y0104055D03*
X0074224Y0104098D03*
X0074181Y0104182D03*
X0074309Y0098615D03*
X0074309Y0098573D03*
X0074309Y0098530D03*
X0074309Y0098487D03*
X0074309Y0098445D03*
X0074309Y0098402D03*
X0074309Y0098360D03*
X0074309Y0098317D03*
X0074309Y0098275D03*
X0074309Y0098232D03*
X0074309Y0098190D03*
X0074309Y0098148D03*
X0074309Y0098105D03*
X0074309Y0098062D03*
X0074309Y0098020D03*
X0074309Y0097977D03*
X0074309Y0097935D03*
X0074309Y0097892D03*
X0074309Y0097850D03*
X0074309Y0097807D03*
X0074309Y0097765D03*
X0074309Y0097723D03*
X0074309Y0097680D03*
X0074309Y0097637D03*
X0074309Y0097595D03*
X0074309Y0097552D03*
X0074309Y0097510D03*
X0074309Y0097467D03*
X0074309Y0097425D03*
X0074309Y0097382D03*
X0074309Y0097340D03*
X0074309Y0097298D03*
X0074309Y0097255D03*
X0074309Y0097212D03*
X0074309Y0097170D03*
X0074309Y0097127D03*
X0074309Y0097085D03*
X0074309Y0097042D03*
X0074309Y0097000D03*
X0074309Y0096957D03*
X0074309Y0096915D03*
X0074309Y0096873D03*
X0074309Y0096830D03*
X0074309Y0096787D03*
X0074309Y0096745D03*
X0074309Y0096702D03*
X0074309Y0096660D03*
X0074309Y0096617D03*
X0074309Y0096575D03*
X0074309Y0096532D03*
X0074309Y0096490D03*
X0074309Y0096448D03*
X0074309Y0096405D03*
X0074309Y0096362D03*
X0074309Y0096320D03*
X0074309Y0096277D03*
X0074309Y0096235D03*
X0074309Y0096192D03*
X0074309Y0096150D03*
X0074309Y0096107D03*
X0074309Y0096065D03*
X0074309Y0096023D03*
X0074309Y0095980D03*
X0074309Y0095937D03*
X0074309Y0095895D03*
X0074309Y0095852D03*
X0074309Y0095810D03*
X0074309Y0095767D03*
X0074309Y0095725D03*
X0074309Y0095682D03*
X0074309Y0095640D03*
X0074309Y0095598D03*
X0074309Y0095555D03*
X0074309Y0095512D03*
D27*
X0063280Y0095512D03*
D28*
X0063833Y0096023D03*
X0059880Y0096023D03*
X0059880Y0096065D03*
X0059880Y0096107D03*
X0059880Y0096150D03*
X0059880Y0096192D03*
X0059880Y0096235D03*
X0059880Y0096277D03*
X0059880Y0096320D03*
X0059880Y0096362D03*
X0059880Y0096405D03*
X0059880Y0096448D03*
X0059880Y0096490D03*
X0059880Y0096532D03*
X0059880Y0096575D03*
X0059880Y0096617D03*
X0059880Y0096660D03*
X0059880Y0096702D03*
X0059880Y0096745D03*
X0059880Y0096787D03*
X0059880Y0096830D03*
X0059880Y0096873D03*
X0059880Y0096915D03*
X0059880Y0096957D03*
X0059880Y0097000D03*
X0059880Y0097042D03*
X0059880Y0097085D03*
X0059880Y0097127D03*
X0059880Y0097170D03*
X0059880Y0097212D03*
X0059880Y0097255D03*
X0059880Y0097298D03*
X0059880Y0097340D03*
X0059880Y0097382D03*
X0059880Y0097425D03*
X0059880Y0097467D03*
X0059880Y0097510D03*
X0059880Y0097552D03*
X0059880Y0097595D03*
X0059880Y0097637D03*
X0059880Y0097680D03*
X0059880Y0097723D03*
X0059880Y0097765D03*
X0059880Y0097807D03*
X0059880Y0097850D03*
X0059880Y0097892D03*
X0059880Y0097935D03*
X0059880Y0097977D03*
X0059880Y0098020D03*
X0059880Y0098062D03*
X0059880Y0098105D03*
X0059880Y0098148D03*
X0059880Y0098190D03*
X0059880Y0098232D03*
X0059880Y0098275D03*
X0059880Y0098317D03*
X0059880Y0098360D03*
X0059880Y0098402D03*
X0059880Y0098445D03*
X0059880Y0098487D03*
X0059880Y0098530D03*
X0059880Y0098573D03*
X0059880Y0098615D03*
X0059880Y0098657D03*
X0059880Y0098700D03*
X0059880Y0098742D03*
X0059880Y0098785D03*
X0059880Y0098827D03*
X0059880Y0098870D03*
X0059880Y0098912D03*
X0059880Y0098955D03*
X0059880Y0098998D03*
X0059880Y0099040D03*
X0059880Y0099082D03*
X0059880Y0099125D03*
X0059880Y0099167D03*
X0059880Y0099210D03*
X0059880Y0099252D03*
X0059880Y0099295D03*
X0059880Y0099337D03*
X0059880Y0099380D03*
X0059880Y0099423D03*
X0059880Y0099465D03*
X0059880Y0099507D03*
X0059880Y0099550D03*
X0059880Y0099592D03*
X0059880Y0099635D03*
X0059880Y0099677D03*
X0059880Y0099720D03*
X0059880Y0099762D03*
X0059880Y0099805D03*
X0059880Y0099848D03*
X0059880Y0099890D03*
X0059880Y0099932D03*
X0059880Y0099975D03*
X0059880Y0100017D03*
X0059880Y0095980D03*
X0059880Y0095937D03*
X0059880Y0095895D03*
X0059880Y0095852D03*
X0059880Y0095810D03*
X0059880Y0095767D03*
X0059880Y0095725D03*
X0059880Y0095682D03*
X0059880Y0095640D03*
X0059880Y0095598D03*
X0059880Y0095555D03*
X0059880Y0095512D03*
X0049935Y0096107D03*
X0048490Y0099677D03*
X0049935Y0101802D03*
X0049935Y0102482D03*
X0049383Y0103205D03*
X0049085Y0104182D03*
X0041308Y0097127D03*
X0071483Y0107710D03*
D29*
X0050806Y0095512D03*
X0044984Y0101760D03*
X0044686Y0102440D03*
X0044644Y0102482D03*
X0041286Y0100102D03*
X0041286Y0100060D03*
X0041286Y0099507D03*
X0041286Y0099465D03*
X0041286Y0097467D03*
X0041286Y0097425D03*
X0037801Y0098105D03*
X0037461Y0099125D03*
X0037886Y0102398D03*
X0037929Y0102440D03*
D30*
X0041308Y0104777D03*
X0041308Y0095512D03*
D31*
X0063344Y0095555D03*
D32*
X0050658Y0095555D03*
X0044793Y0098487D03*
X0044920Y0098785D03*
X0044920Y0098827D03*
X0044920Y0098870D03*
X0044920Y0101462D03*
X0037483Y0100485D03*
X0037695Y0098785D03*
X0037695Y0098742D03*
X0037780Y0098530D03*
D33*
X0041286Y0095555D03*
X0039161Y0103290D03*
X0041286Y0104735D03*
X0043411Y0103290D03*
X0050126Y0102015D03*
X0050126Y0095895D03*
D34*
X0063408Y0095598D03*
D35*
X0049999Y0096023D03*
X0048384Y0098998D03*
X0048384Y0099040D03*
X0048426Y0099550D03*
X0049999Y0101887D03*
X0049999Y0102355D03*
X0049319Y0103248D03*
X0049064Y0104098D03*
X0043666Y0102780D03*
X0043624Y0102823D03*
X0043624Y0102865D03*
X0041286Y0104692D03*
X0038949Y0102823D03*
X0041286Y0097170D03*
X0041286Y0095598D03*
D36*
X0050317Y0095725D03*
X0063450Y0095640D03*
X0071483Y0107837D03*
D37*
X0050445Y0095640D03*
D38*
X0049892Y0102567D03*
X0041308Y0104650D03*
X0041308Y0095640D03*
X0059923Y0100230D03*
X0059923Y0100273D03*
X0059923Y0100315D03*
X0065915Y0100187D03*
X0065915Y0100145D03*
X0065915Y0100102D03*
X0065915Y0100060D03*
X0065915Y0099677D03*
X0065915Y0099635D03*
X0065915Y0099592D03*
X0065915Y0099550D03*
X0065915Y0099507D03*
X0065873Y0099465D03*
X0065873Y0099423D03*
X0065873Y0099380D03*
D39*
X0063493Y0095682D03*
D40*
X0063556Y0095725D03*
X0062834Y0104437D03*
X0050211Y0095810D03*
D41*
X0049701Y0096490D03*
X0049701Y0101462D03*
X0049701Y0103077D03*
X0041286Y0104565D03*
X0041286Y0095725D03*
X0065639Y0100867D03*
D42*
X0063599Y0095767D03*
X0071461Y0107795D03*
X0050169Y0102057D03*
X0050169Y0095852D03*
D43*
X0050254Y0095767D03*
D44*
X0049595Y0096702D03*
X0049595Y0101250D03*
X0041308Y0104523D03*
X0041308Y0095767D03*
X0060305Y0101037D03*
D45*
X0063641Y0095810D03*
X0043454Y0103248D03*
D46*
X0041308Y0104480D03*
X0041308Y0095810D03*
X0049510Y0096915D03*
X0049510Y0096957D03*
X0049510Y0101037D03*
X0064258Y0096745D03*
D47*
X0063684Y0095852D03*
X0062834Y0104395D03*
X0050084Y0102185D03*
X0050084Y0101973D03*
X0049191Y0103375D03*
X0049149Y0103417D03*
X0049149Y0103460D03*
X0049106Y0103502D03*
X0049106Y0103545D03*
X0049064Y0103630D03*
X0049064Y0103673D03*
X0049064Y0103715D03*
X0049021Y0103800D03*
X0043496Y0103162D03*
X0043496Y0103120D03*
X0039119Y0103162D03*
X0039076Y0103120D03*
X0050084Y0095937D03*
D48*
X0049425Y0097170D03*
X0049425Y0097212D03*
X0049425Y0100782D03*
X0049425Y0100825D03*
X0041308Y0104437D03*
X0041308Y0095852D03*
X0062812Y0104140D03*
X0064343Y0096915D03*
D49*
X0063726Y0095895D03*
X0071461Y0107752D03*
X0050041Y0102270D03*
X0050041Y0101930D03*
X0049021Y0103927D03*
X0049021Y0103970D03*
X0048384Y0099423D03*
X0048384Y0099380D03*
X0048384Y0099337D03*
X0050041Y0095980D03*
X0043539Y0103035D03*
X0039034Y0102992D03*
D50*
X0041308Y0104395D03*
X0041308Y0095895D03*
X0049340Y0097467D03*
X0049340Y0097510D03*
X0049340Y0097552D03*
X0049340Y0100485D03*
X0049340Y0100527D03*
X0062812Y0104098D03*
X0064427Y0097127D03*
D51*
X0063748Y0095937D03*
X0048362Y0099082D03*
X0048362Y0099125D03*
X0048362Y0099167D03*
X0048362Y0099210D03*
X0048362Y0099252D03*
X0048362Y0099295D03*
X0043602Y0102907D03*
X0039013Y0102950D03*
D52*
X0041286Y0104352D03*
X0041286Y0095937D03*
X0049276Y0097807D03*
X0049276Y0097850D03*
X0049276Y0097892D03*
X0049276Y0097935D03*
X0049276Y0100102D03*
X0049276Y0100145D03*
X0049276Y0100187D03*
D53*
X0048448Y0099592D03*
X0048405Y0098955D03*
X0048405Y0098912D03*
X0049977Y0096065D03*
X0049977Y0102398D03*
X0049043Y0104140D03*
X0043687Y0102737D03*
X0043687Y0102695D03*
X0038927Y0102737D03*
X0038927Y0102780D03*
X0038885Y0102695D03*
X0063790Y0095980D03*
D54*
X0064555Y0097467D03*
X0064555Y0097510D03*
X0049212Y0098317D03*
X0049212Y0098360D03*
X0049212Y0098402D03*
X0049212Y0098445D03*
X0049212Y0098487D03*
X0049212Y0098530D03*
X0049212Y0098573D03*
X0041308Y0095980D03*
X0041308Y0104310D03*
D55*
X0041286Y0104267D03*
X0041286Y0096023D03*
X0053399Y0107710D03*
X0064619Y0097723D03*
X0064619Y0097680D03*
D56*
X0063854Y0096065D03*
X0048554Y0099720D03*
X0048469Y0098827D03*
X0049106Y0104225D03*
D57*
X0041286Y0104225D03*
X0041286Y0096065D03*
D58*
X0041286Y0097085D03*
X0048511Y0098785D03*
X0049871Y0096192D03*
X0049871Y0101717D03*
X0049871Y0102610D03*
X0049149Y0104267D03*
X0059944Y0100400D03*
X0059944Y0100357D03*
X0063896Y0096107D03*
X0065851Y0099295D03*
X0065851Y0099337D03*
X0065894Y0100230D03*
X0065894Y0100273D03*
X0065894Y0100315D03*
X0065894Y0100357D03*
D59*
X0064768Y0098402D03*
X0064768Y0098360D03*
X0064768Y0098317D03*
X0041308Y0096107D03*
X0041308Y0104182D03*
D60*
X0049850Y0102652D03*
X0049850Y0101675D03*
X0049850Y0096235D03*
X0059965Y0100442D03*
X0059965Y0100485D03*
X0060008Y0100527D03*
X0060008Y0100570D03*
X0063918Y0096150D03*
X0065830Y0099252D03*
X0065873Y0100400D03*
X0065830Y0100442D03*
X0065830Y0100485D03*
D61*
X0065936Y0100017D03*
X0065936Y0099975D03*
X0065936Y0099932D03*
X0065936Y0099890D03*
X0065936Y0099848D03*
X0065936Y0099805D03*
X0065936Y0099762D03*
X0065936Y0099720D03*
X0059901Y0100060D03*
X0059901Y0100102D03*
X0059901Y0100145D03*
X0059901Y0100187D03*
X0049914Y0101760D03*
X0049914Y0102525D03*
X0049914Y0096150D03*
D62*
X0041286Y0096150D03*
X0041286Y0104140D03*
X0071461Y0107157D03*
D63*
X0071461Y0107667D03*
X0065809Y0100570D03*
X0065809Y0100527D03*
X0065809Y0099210D03*
X0065809Y0099167D03*
X0065766Y0099125D03*
X0063939Y0096192D03*
X0060029Y0100612D03*
X0049829Y0102695D03*
X0049829Y0102737D03*
X0048639Y0099762D03*
X0049829Y0096277D03*
D64*
X0041286Y0096192D03*
X0041286Y0104098D03*
X0062791Y0103842D03*
D65*
X0062812Y0103800D03*
X0041308Y0104055D03*
X0041308Y0096235D03*
D66*
X0049765Y0096362D03*
X0049765Y0102865D03*
X0049765Y0102907D03*
X0060093Y0100782D03*
X0064002Y0096277D03*
X0065702Y0098998D03*
X0065745Y0100698D03*
X0065702Y0100740D03*
X0074160Y0104225D03*
X0074160Y0104267D03*
X0074202Y0104140D03*
D67*
X0071461Y0107030D03*
X0053016Y0107625D03*
X0041286Y0104012D03*
X0041286Y0096277D03*
D68*
X0049723Y0096448D03*
X0049723Y0101505D03*
X0049723Y0102992D03*
X0049723Y0103035D03*
X0060178Y0100910D03*
X0064045Y0096320D03*
X0065618Y0098870D03*
X0065660Y0100825D03*
X0074118Y0104352D03*
D69*
X0062791Y0103715D03*
X0041286Y0103970D03*
X0041286Y0096320D03*
D70*
X0062834Y0104267D03*
X0064066Y0096362D03*
X0074054Y0104437D03*
D71*
X0041308Y0103927D03*
X0041308Y0096362D03*
D72*
X0041308Y0096957D03*
X0049340Y0104352D03*
X0049680Y0103120D03*
X0049680Y0101420D03*
X0049680Y0096532D03*
X0060220Y0100952D03*
X0064087Y0096405D03*
X0065575Y0098827D03*
D73*
X0065639Y0098912D03*
X0065681Y0098955D03*
X0065681Y0100782D03*
X0060156Y0100867D03*
X0060114Y0100825D03*
X0049744Y0101548D03*
X0049744Y0102950D03*
X0049744Y0096405D03*
X0041286Y0097000D03*
X0071461Y0107625D03*
X0074139Y0104310D03*
D74*
X0071461Y0106902D03*
X0041286Y0103885D03*
X0041286Y0096405D03*
D75*
X0049659Y0096575D03*
X0049659Y0101377D03*
X0064109Y0096448D03*
X0065596Y0100910D03*
X0071461Y0107582D03*
X0074011Y0104480D03*
D76*
X0071461Y0106860D03*
X0052804Y0107540D03*
X0041286Y0103842D03*
X0041286Y0096448D03*
D77*
X0049637Y0096617D03*
X0049637Y0101335D03*
X0060262Y0100995D03*
X0064130Y0096490D03*
X0065533Y0098785D03*
X0065575Y0100952D03*
D78*
X0071461Y0106817D03*
X0072821Y0104607D03*
X0041286Y0103800D03*
X0041286Y0096490D03*
D79*
X0041286Y0096915D03*
X0049616Y0096660D03*
X0049616Y0101292D03*
X0064151Y0096532D03*
X0065511Y0100995D03*
D80*
X0071461Y0106775D03*
X0052719Y0107498D03*
X0041286Y0103757D03*
X0041286Y0096532D03*
D81*
X0062812Y0104225D03*
X0065490Y0098742D03*
X0064173Y0096575D03*
X0073948Y0104523D03*
D82*
X0072673Y0104777D03*
X0062812Y0103460D03*
X0052655Y0107455D03*
X0041308Y0103715D03*
X0041308Y0096575D03*
D83*
X0049574Y0096745D03*
X0049574Y0096787D03*
X0049574Y0101207D03*
X0064194Y0096617D03*
X0065469Y0101037D03*
D84*
X0062812Y0103417D03*
X0041308Y0103673D03*
X0041308Y0096617D03*
D85*
X0048830Y0098700D03*
X0049552Y0096830D03*
X0049552Y0101165D03*
X0060390Y0101080D03*
X0064215Y0096660D03*
X0071483Y0107540D03*
D86*
X0072545Y0104948D03*
X0041308Y0103630D03*
X0041308Y0096660D03*
D87*
X0049531Y0096873D03*
X0049531Y0101080D03*
X0049531Y0101123D03*
X0064236Y0096702D03*
X0065384Y0098700D03*
D88*
X0062812Y0103332D03*
X0072418Y0105075D03*
X0072460Y0105032D03*
X0052527Y0107370D03*
X0041308Y0103587D03*
X0041308Y0096702D03*
D89*
X0041308Y0096745D03*
X0041308Y0103545D03*
X0052485Y0107327D03*
D90*
X0064279Y0096787D03*
X0065384Y0101080D03*
D91*
X0072290Y0105202D03*
X0041308Y0103502D03*
X0041308Y0096787D03*
D92*
X0049467Y0097042D03*
X0049467Y0100952D03*
X0064300Y0096830D03*
X0071483Y0107498D03*
D93*
X0062812Y0103205D03*
X0041308Y0103460D03*
X0041308Y0096830D03*
D94*
X0049446Y0097085D03*
X0049446Y0097127D03*
X0049446Y0100867D03*
X0049446Y0100910D03*
X0064321Y0096873D03*
D95*
X0072184Y0105330D03*
X0072141Y0105373D03*
X0071461Y0106435D03*
X0052379Y0107242D03*
X0041286Y0103417D03*
X0041286Y0096873D03*
D96*
X0041286Y0097977D03*
X0041286Y0099125D03*
X0041286Y0100442D03*
X0039926Y0102652D03*
X0037206Y0099210D03*
X0037759Y0097723D03*
X0038226Y0097042D03*
X0038269Y0097000D03*
X0038311Y0096957D03*
X0038354Y0096915D03*
X0044219Y0096915D03*
X0044261Y0096957D03*
X0044304Y0097000D03*
X0044346Y0097042D03*
X0044389Y0097085D03*
X0044431Y0097127D03*
X0044814Y0097723D03*
X0045366Y0099210D03*
D97*
X0049404Y0100698D03*
X0049404Y0100740D03*
X0049404Y0097298D03*
X0049404Y0097255D03*
X0064364Y0096957D03*
X0071461Y0107455D03*
D98*
X0064385Y0097000D03*
D99*
X0049489Y0097000D03*
X0049489Y0100995D03*
D100*
X0049361Y0100612D03*
X0049361Y0100570D03*
X0049361Y0097425D03*
X0064406Y0097085D03*
X0064406Y0097042D03*
D101*
X0044835Y0097680D03*
X0044580Y0097298D03*
X0044537Y0097255D03*
X0044495Y0097212D03*
X0044452Y0097170D03*
X0041308Y0098020D03*
X0038205Y0097085D03*
X0038163Y0097127D03*
X0038120Y0097170D03*
X0038077Y0097212D03*
X0039948Y0102610D03*
X0042625Y0102610D03*
D102*
X0049319Y0100442D03*
X0049319Y0100400D03*
X0049319Y0100357D03*
X0049319Y0097680D03*
X0049319Y0097637D03*
X0049319Y0097595D03*
X0064449Y0097170D03*
X0071461Y0107412D03*
D103*
X0064470Y0097255D03*
X0064470Y0097212D03*
X0049298Y0097723D03*
X0049298Y0097765D03*
X0049298Y0100230D03*
X0049298Y0100273D03*
X0049298Y0100315D03*
D104*
X0042689Y0097212D03*
X0070611Y0104098D03*
D105*
X0044941Y0101505D03*
X0045026Y0099082D03*
X0044984Y0099040D03*
X0044984Y0098998D03*
X0044771Y0098317D03*
X0041286Y0097212D03*
X0037589Y0099040D03*
X0037674Y0101505D03*
D106*
X0039905Y0097212D03*
X0041308Y0104990D03*
D107*
X0042668Y0097255D03*
X0039905Y0097255D03*
D108*
X0041286Y0098062D03*
X0041286Y0099082D03*
X0041286Y0100485D03*
X0039969Y0102567D03*
X0037079Y0100315D03*
X0037759Y0097680D03*
X0037929Y0097382D03*
X0037971Y0097340D03*
X0038014Y0097298D03*
X0038056Y0097255D03*
X0044601Y0097340D03*
X0044644Y0097382D03*
X0044686Y0097425D03*
X0045494Y0100315D03*
X0070526Y0104437D03*
D109*
X0064491Y0097298D03*
D110*
X0070654Y0103970D03*
X0042604Y0102227D03*
X0039969Y0102227D03*
X0039884Y0097298D03*
X0042689Y0097298D03*
D111*
X0049255Y0097977D03*
X0049255Y0098020D03*
X0049255Y0098062D03*
X0049212Y0099805D03*
X0049255Y0099932D03*
X0049255Y0099975D03*
X0049255Y0100017D03*
X0049255Y0100060D03*
X0062812Y0104055D03*
X0064512Y0097340D03*
X0071483Y0107370D03*
D112*
X0049383Y0100655D03*
X0049383Y0097382D03*
X0049383Y0097340D03*
D113*
X0042710Y0097340D03*
X0062133Y0098870D03*
D114*
X0041286Y0099635D03*
X0041286Y0099677D03*
X0041286Y0099720D03*
X0041286Y0099762D03*
X0041286Y0099805D03*
X0041286Y0099848D03*
X0041286Y0099890D03*
X0041286Y0099932D03*
X0041286Y0099975D03*
X0041286Y0097340D03*
X0037801Y0098148D03*
X0037801Y0098190D03*
X0037376Y0100442D03*
X0038014Y0102567D03*
X0038099Y0102652D03*
D115*
X0039969Y0102185D03*
X0042646Y0102185D03*
X0039884Y0097340D03*
X0070696Y0103885D03*
D116*
X0064534Y0097425D03*
X0064534Y0097382D03*
X0049234Y0098105D03*
X0049234Y0098148D03*
X0049234Y0098190D03*
X0049234Y0098232D03*
X0049234Y0098275D03*
X0049234Y0099848D03*
X0049234Y0099890D03*
D117*
X0045133Y0099125D03*
X0044793Y0098148D03*
X0044793Y0098105D03*
X0041308Y0097382D03*
X0041308Y0099550D03*
X0041308Y0099592D03*
X0041308Y0100017D03*
X0037610Y0101717D03*
X0037993Y0102525D03*
X0044580Y0102567D03*
X0044623Y0102525D03*
D118*
X0041308Y0098105D03*
X0044708Y0097467D03*
X0044793Y0097552D03*
X0044793Y0097595D03*
X0037908Y0097425D03*
X0037780Y0097595D03*
X0037780Y0097637D03*
X0037058Y0099762D03*
X0037058Y0099805D03*
X0037058Y0099848D03*
X0037058Y0099890D03*
X0037058Y0099932D03*
X0037058Y0099975D03*
X0037058Y0100017D03*
X0037058Y0100060D03*
X0037058Y0100102D03*
X0037058Y0100145D03*
X0037058Y0100187D03*
X0037058Y0100230D03*
X0037058Y0100273D03*
D119*
X0037823Y0097510D03*
X0037865Y0097467D03*
X0042625Y0102567D03*
X0045515Y0100273D03*
X0044835Y0097637D03*
X0044750Y0097510D03*
D120*
X0044793Y0098062D03*
X0044750Y0102355D03*
X0044708Y0102398D03*
X0041308Y0100145D03*
X0041308Y0099423D03*
X0041308Y0097510D03*
X0037780Y0098062D03*
X0037610Y0101760D03*
X0037610Y0101802D03*
X0037823Y0102312D03*
X0037865Y0102355D03*
X0062855Y0104565D03*
D121*
X0064576Y0097552D03*
X0071461Y0107327D03*
X0049191Y0098657D03*
X0049191Y0098615D03*
D122*
X0044814Y0098020D03*
X0044984Y0101802D03*
X0044984Y0101845D03*
X0044814Y0102270D03*
X0044771Y0102312D03*
X0041286Y0100187D03*
X0041286Y0099380D03*
X0041286Y0097552D03*
X0037801Y0098020D03*
X0037589Y0101845D03*
X0037759Y0102227D03*
X0037801Y0102270D03*
D123*
X0037079Y0099720D03*
X0037079Y0099677D03*
X0037079Y0099635D03*
X0037079Y0099592D03*
X0037079Y0099550D03*
X0037079Y0099507D03*
X0037079Y0099465D03*
X0037079Y0099423D03*
X0037121Y0099252D03*
X0037801Y0097552D03*
X0041286Y0098148D03*
X0041286Y0098190D03*
X0040011Y0102525D03*
X0045536Y0100230D03*
X0045536Y0100187D03*
X0045536Y0100145D03*
X0045536Y0100102D03*
X0045536Y0100060D03*
X0045536Y0100017D03*
X0045536Y0099975D03*
X0045536Y0099932D03*
X0045536Y0099890D03*
X0045536Y0099848D03*
X0045536Y0099805D03*
X0045536Y0099762D03*
X0045536Y0099720D03*
X0045536Y0099677D03*
X0045536Y0099635D03*
X0045536Y0099592D03*
X0045451Y0099252D03*
D124*
X0062812Y0104012D03*
X0064598Y0097637D03*
X0064598Y0097595D03*
D125*
X0044793Y0097977D03*
X0045005Y0101887D03*
X0041308Y0100230D03*
X0041308Y0099337D03*
X0041308Y0097595D03*
X0037780Y0097977D03*
X0037270Y0100400D03*
X0037695Y0102142D03*
D126*
X0037674Y0102100D03*
X0037589Y0101973D03*
X0037589Y0101930D03*
X0037589Y0101887D03*
X0037334Y0099167D03*
X0041286Y0099295D03*
X0041286Y0100273D03*
X0041286Y0097680D03*
X0041286Y0097637D03*
X0044814Y0097935D03*
X0045324Y0100400D03*
X0044984Y0101973D03*
X0044984Y0102015D03*
X0044941Y0102100D03*
X0044899Y0102142D03*
X0071461Y0107965D03*
D127*
X0064640Y0097807D03*
X0064640Y0097765D03*
D128*
X0044814Y0097850D03*
X0044814Y0097892D03*
X0041286Y0097765D03*
X0041286Y0099252D03*
D129*
X0041286Y0099167D03*
X0041286Y0100400D03*
X0041286Y0097892D03*
X0041286Y0097850D03*
X0044814Y0097807D03*
X0070526Y0104480D03*
D130*
X0041308Y0100357D03*
X0041308Y0099210D03*
X0041308Y0097807D03*
X0037780Y0097850D03*
D131*
X0037759Y0097807D03*
D132*
X0062791Y0103970D03*
X0064661Y0097892D03*
X0064661Y0097850D03*
X0071461Y0107285D03*
D133*
X0064683Y0097977D03*
X0064683Y0097935D03*
D134*
X0064704Y0098020D03*
X0064704Y0098062D03*
D135*
X0064725Y0098105D03*
X0064725Y0098148D03*
X0064725Y0098190D03*
X0071483Y0107242D03*
D136*
X0064746Y0098275D03*
X0064746Y0098232D03*
X0062791Y0103927D03*
D137*
X0070505Y0104395D03*
X0045515Y0099550D03*
X0045515Y0099507D03*
X0045515Y0099465D03*
X0045515Y0099423D03*
X0045515Y0099380D03*
X0045515Y0099337D03*
X0042583Y0102525D03*
X0041308Y0100527D03*
X0041308Y0099040D03*
X0041308Y0098232D03*
X0040033Y0102482D03*
X0037100Y0099380D03*
X0037100Y0099337D03*
X0037100Y0099295D03*
D138*
X0037568Y0099082D03*
X0037823Y0098275D03*
X0037653Y0101548D03*
X0044962Y0101548D03*
X0044793Y0098275D03*
D139*
X0041286Y0098275D03*
X0042561Y0102482D03*
D140*
X0042540Y0102440D03*
X0041308Y0098998D03*
X0041308Y0098317D03*
X0070505Y0104352D03*
D141*
X0062876Y0104607D03*
X0041286Y0100570D03*
X0041286Y0098402D03*
X0041286Y0098360D03*
D142*
X0044771Y0098402D03*
X0044771Y0098445D03*
X0044814Y0098530D03*
X0044856Y0098615D03*
X0044856Y0098657D03*
X0044899Y0098742D03*
X0044899Y0101420D03*
X0037674Y0101420D03*
X0037716Y0098700D03*
X0037716Y0098657D03*
X0037759Y0098573D03*
X0037801Y0098487D03*
X0037801Y0098445D03*
D143*
X0064789Y0098445D03*
X0064789Y0098487D03*
X0064789Y0098530D03*
X0071461Y0107200D03*
D144*
X0041308Y0098445D03*
D145*
X0041286Y0098487D03*
X0041286Y0098955D03*
X0040054Y0102398D03*
X0042519Y0102398D03*
X0070526Y0104310D03*
D146*
X0064810Y0098657D03*
X0064810Y0098615D03*
X0064810Y0098573D03*
X0062812Y0103885D03*
D147*
X0070526Y0104267D03*
X0041286Y0098573D03*
D148*
X0041308Y0098615D03*
X0041308Y0098912D03*
D149*
X0073693Y0098912D03*
X0073693Y0098870D03*
X0073693Y0098827D03*
X0073693Y0098785D03*
X0073693Y0098742D03*
X0073693Y0098700D03*
X0073693Y0098657D03*
X0073693Y0098955D03*
X0073693Y0098998D03*
X0073693Y0099040D03*
X0073693Y0099082D03*
X0073693Y0099125D03*
X0073693Y0099167D03*
X0073693Y0099210D03*
X0073693Y0099252D03*
X0073693Y0099295D03*
X0073693Y0099337D03*
X0073693Y0099380D03*
X0073693Y0099423D03*
X0073693Y0099465D03*
X0073693Y0099507D03*
X0073693Y0099550D03*
X0073693Y0099592D03*
X0073693Y0099635D03*
X0073693Y0099677D03*
X0073693Y0099720D03*
X0073693Y0099762D03*
X0073693Y0099805D03*
X0073693Y0099848D03*
X0073693Y0099890D03*
X0073693Y0099932D03*
X0073693Y0099975D03*
X0073693Y0100017D03*
X0073693Y0100060D03*
X0073693Y0100102D03*
X0073693Y0100145D03*
X0073693Y0100187D03*
X0073693Y0100230D03*
X0073693Y0100273D03*
X0073693Y0100315D03*
X0073693Y0100357D03*
X0073693Y0100400D03*
X0073693Y0100442D03*
X0073693Y0100485D03*
X0073693Y0100527D03*
X0073693Y0100570D03*
X0073693Y0100612D03*
X0073693Y0100655D03*
X0073693Y0100698D03*
X0073693Y0100740D03*
X0073693Y0100782D03*
X0073693Y0100825D03*
X0073693Y0100867D03*
X0073693Y0100910D03*
X0073693Y0100952D03*
X0073693Y0100995D03*
X0073693Y0101037D03*
X0073693Y0101080D03*
X0073693Y0101123D03*
X0073693Y0101165D03*
X0073693Y0101207D03*
X0073693Y0101250D03*
X0073693Y0101292D03*
X0073693Y0101335D03*
X0073693Y0101377D03*
X0073693Y0101420D03*
X0073693Y0101462D03*
X0073693Y0101505D03*
X0073693Y0101548D03*
X0073693Y0101590D03*
X0073693Y0101632D03*
X0073693Y0101675D03*
X0073693Y0101717D03*
X0073693Y0101760D03*
X0073693Y0101802D03*
X0073693Y0101845D03*
X0073693Y0101887D03*
X0073693Y0101930D03*
X0073693Y0101973D03*
D150*
X0042561Y0102355D03*
X0040054Y0102355D03*
X0041286Y0098700D03*
X0041286Y0098657D03*
D151*
X0062366Y0098700D03*
X0070569Y0104140D03*
D152*
X0070611Y0104055D03*
X0062281Y0098742D03*
X0042604Y0102270D03*
X0040011Y0102270D03*
D153*
X0048575Y0098742D03*
X0049212Y0104310D03*
X0060050Y0100698D03*
X0060050Y0100655D03*
X0062812Y0104310D03*
X0065788Y0100612D03*
X0074288Y0103587D03*
X0074288Y0103630D03*
X0074288Y0103673D03*
X0074288Y0103715D03*
X0074288Y0103757D03*
X0074288Y0103800D03*
D154*
X0070548Y0104225D03*
X0041308Y0100655D03*
X0041308Y0098870D03*
X0041308Y0098742D03*
D155*
X0062218Y0098785D03*
D156*
X0070569Y0104182D03*
X0041286Y0098827D03*
X0041286Y0098785D03*
D157*
X0062175Y0098827D03*
D158*
X0062090Y0098912D03*
D159*
X0037631Y0098955D03*
D160*
X0045494Y0099295D03*
D161*
X0048405Y0099465D03*
X0048405Y0099507D03*
X0050020Y0102312D03*
X0049255Y0103290D03*
X0049043Y0104012D03*
X0049043Y0104055D03*
X0038970Y0102907D03*
X0038970Y0102865D03*
D162*
X0038056Y0102610D03*
X0037631Y0101675D03*
X0044516Y0102652D03*
X0044559Y0102610D03*
X0044984Y0101675D03*
X0045196Y0100442D03*
D163*
X0045048Y0100527D03*
X0044920Y0101377D03*
X0037695Y0101377D03*
X0037695Y0101335D03*
X0037568Y0100570D03*
D164*
X0037589Y0100612D03*
X0037589Y0100655D03*
X0037546Y0100527D03*
X0044899Y0101335D03*
X0045026Y0100612D03*
X0045026Y0100570D03*
D165*
X0041308Y0100698D03*
D166*
X0044962Y0100740D03*
X0044962Y0100782D03*
X0044962Y0100825D03*
D167*
X0044941Y0100867D03*
X0044941Y0100910D03*
X0037716Y0101207D03*
X0037716Y0101250D03*
X0037631Y0100867D03*
X0037631Y0100825D03*
D168*
X0037695Y0100995D03*
X0037695Y0101037D03*
X0037695Y0101080D03*
X0037738Y0101165D03*
X0044877Y0101165D03*
X0044877Y0101207D03*
X0044877Y0101123D03*
X0044877Y0101080D03*
X0044877Y0101037D03*
X0044920Y0100995D03*
X0044920Y0100952D03*
D169*
X0062919Y0101123D03*
D170*
X0037716Y0101123D03*
D171*
X0062898Y0101165D03*
X0062898Y0101207D03*
X0062898Y0101250D03*
D172*
X0062919Y0101292D03*
D173*
X0062898Y0101335D03*
X0062898Y0101377D03*
X0062898Y0101420D03*
D174*
X0062898Y0101462D03*
X0062898Y0101505D03*
X0062898Y0101548D03*
D175*
X0062898Y0101590D03*
X0062898Y0101632D03*
D176*
X0062876Y0101675D03*
X0062876Y0101717D03*
D177*
X0044962Y0101717D03*
X0037950Y0102482D03*
D178*
X0062898Y0101760D03*
D179*
X0062876Y0101802D03*
X0062876Y0101845D03*
D180*
X0062876Y0101887D03*
X0062876Y0101930D03*
D181*
X0062876Y0101973D03*
X0062876Y0102015D03*
D182*
X0062876Y0102057D03*
X0062876Y0102100D03*
D183*
X0037631Y0102057D03*
D184*
X0039183Y0103332D03*
X0043348Y0103375D03*
X0043390Y0103332D03*
X0050148Y0102100D03*
D185*
X0051635Y0104395D03*
X0051635Y0104437D03*
X0051635Y0104480D03*
X0051635Y0104523D03*
X0051635Y0104565D03*
X0051635Y0104607D03*
X0051635Y0104650D03*
X0051635Y0104692D03*
X0051635Y0104735D03*
X0051635Y0104777D03*
X0051635Y0104820D03*
X0051635Y0104862D03*
X0051635Y0104905D03*
X0051635Y0104948D03*
X0051635Y0104990D03*
X0051635Y0105032D03*
X0051635Y0105075D03*
X0062855Y0102142D03*
D186*
X0050105Y0102142D03*
X0049085Y0103587D03*
X0043475Y0103205D03*
X0039140Y0103205D03*
X0039140Y0103248D03*
D187*
X0051656Y0105117D03*
X0051656Y0105160D03*
X0051656Y0105202D03*
X0051656Y0105245D03*
X0051656Y0105287D03*
X0051656Y0105330D03*
X0051656Y0105373D03*
X0062876Y0102185D03*
D188*
X0044877Y0102185D03*
X0044835Y0102227D03*
X0037738Y0102185D03*
D189*
X0051677Y0105415D03*
X0051677Y0105457D03*
X0051677Y0105500D03*
X0051677Y0105542D03*
X0062855Y0102227D03*
D190*
X0050062Y0102227D03*
X0049212Y0103332D03*
X0049043Y0103757D03*
X0049043Y0103842D03*
X0049043Y0103885D03*
X0043518Y0103077D03*
X0039055Y0103077D03*
X0039055Y0103035D03*
D191*
X0051699Y0105585D03*
X0051699Y0105627D03*
X0051699Y0105670D03*
X0062876Y0102270D03*
D192*
X0062855Y0102312D03*
X0051720Y0105712D03*
X0051720Y0105755D03*
X0051720Y0105798D03*
D193*
X0051762Y0105967D03*
X0051762Y0106010D03*
X0062855Y0102398D03*
X0062855Y0102355D03*
D194*
X0062855Y0102440D03*
X0051805Y0106137D03*
X0051805Y0106180D03*
D195*
X0040054Y0102440D03*
D196*
X0051848Y0106307D03*
X0062855Y0102525D03*
X0062855Y0102482D03*
D197*
X0062855Y0102567D03*
X0051890Y0106392D03*
X0051890Y0106435D03*
D198*
X0051911Y0106477D03*
X0062834Y0102610D03*
D199*
X0062855Y0102652D03*
X0051933Y0106520D03*
D200*
X0051975Y0106648D03*
X0062855Y0102695D03*
D201*
X0062834Y0102737D03*
X0051996Y0106690D03*
D202*
X0062834Y0102780D03*
D203*
X0062855Y0102823D03*
X0052060Y0106817D03*
D204*
X0062834Y0102865D03*
X0071461Y0106052D03*
D205*
X0071546Y0105967D03*
X0071589Y0105925D03*
X0062834Y0102907D03*
X0052124Y0106902D03*
D206*
X0052166Y0106987D03*
X0062834Y0102950D03*
X0071461Y0106180D03*
X0071674Y0105840D03*
D207*
X0043581Y0102992D03*
X0043581Y0102950D03*
D208*
X0052209Y0107030D03*
X0062834Y0102992D03*
X0071461Y0106223D03*
X0071759Y0105755D03*
X0071801Y0105712D03*
D209*
X0071865Y0105670D03*
X0062812Y0103035D03*
X0052230Y0107073D03*
D210*
X0062812Y0103077D03*
X0071950Y0105585D03*
D211*
X0072035Y0105500D03*
X0062812Y0103120D03*
X0052315Y0107157D03*
D212*
X0062812Y0103162D03*
D213*
X0049531Y0103162D03*
D214*
X0052421Y0107285D03*
X0062834Y0103248D03*
X0071461Y0106477D03*
X0072226Y0105287D03*
X0072269Y0105245D03*
D215*
X0072375Y0105117D03*
X0062812Y0103290D03*
D216*
X0062812Y0103375D03*
D217*
X0039225Y0103375D03*
D218*
X0062812Y0103502D03*
D219*
X0062812Y0103545D03*
X0072800Y0104650D03*
D220*
X0062812Y0103587D03*
D221*
X0062812Y0103630D03*
D222*
X0062812Y0103673D03*
D223*
X0062812Y0103757D03*
D224*
X0070696Y0103927D03*
D225*
X0070654Y0104012D03*
D226*
X0062812Y0104182D03*
D227*
X0062812Y0104352D03*
D228*
X0074075Y0104395D03*
D229*
X0072843Y0104565D03*
D230*
X0072758Y0104692D03*
X0072715Y0104735D03*
D231*
X0072651Y0104820D03*
X0072609Y0104862D03*
X0071461Y0106690D03*
D232*
X0071461Y0106648D03*
X0072566Y0104905D03*
X0052591Y0107412D03*
D233*
X0071461Y0106605D03*
X0072481Y0104990D03*
D234*
X0072354Y0105160D03*
D235*
X0072099Y0105415D03*
X0072056Y0105457D03*
X0071461Y0106392D03*
X0052336Y0107200D03*
D236*
X0071461Y0106350D03*
X0071461Y0106307D03*
X0071971Y0105542D03*
D237*
X0071886Y0105627D03*
X0071461Y0106265D03*
D238*
X0071738Y0105798D03*
D239*
X0051741Y0105840D03*
X0051741Y0105882D03*
X0051741Y0105925D03*
D240*
X0071440Y0106137D03*
X0071652Y0105882D03*
D241*
X0071525Y0106010D03*
X0071440Y0106095D03*
X0052102Y0106860D03*
D242*
X0051784Y0106095D03*
X0051784Y0106052D03*
D243*
X0051826Y0106223D03*
X0051826Y0106265D03*
D244*
X0051869Y0106350D03*
D245*
X0071461Y0106520D03*
D246*
X0071461Y0106562D03*
D247*
X0051954Y0106562D03*
X0051954Y0106605D03*
D248*
X0071461Y0106732D03*
D249*
X0052017Y0106732D03*
D250*
X0052039Y0106775D03*
D251*
X0052889Y0107582D03*
X0071461Y0106945D03*
D252*
X0052145Y0106945D03*
D253*
X0071483Y0106987D03*
D254*
X0071461Y0107073D03*
D255*
X0071483Y0107115D03*
D256*
X0052273Y0107115D03*
D257*
X0053165Y0107667D03*
D258*
X0071461Y0107880D03*
D259*
X0001300Y0101300D02*
X0001300Y0016300D01*
X0001304Y0015938D01*
X0001318Y0015575D01*
X0001339Y0015213D01*
X0001370Y0014852D01*
X0001409Y0014492D01*
X0001457Y0014133D01*
X0001514Y0013775D01*
X0001579Y0013418D01*
X0001653Y0013063D01*
X0001736Y0012710D01*
X0001827Y0012359D01*
X0001926Y0012011D01*
X0002034Y0011665D01*
X0002150Y0011321D01*
X0002275Y0010981D01*
X0002407Y0010644D01*
X0002548Y0010310D01*
X0002697Y0009979D01*
X0002854Y0009652D01*
X0003018Y0009329D01*
X0003190Y0009010D01*
X0003370Y0008696D01*
X0003558Y0008385D01*
X0003753Y0008080D01*
X0003955Y0007779D01*
X0004165Y0007483D01*
X0004381Y0007193D01*
X0004605Y0006907D01*
X0004835Y0006627D01*
X0005072Y0006353D01*
X0005316Y0006085D01*
X0005566Y0005822D01*
X0005822Y0005566D01*
X0006085Y0005316D01*
X0006353Y0005072D01*
X0006627Y0004835D01*
X0006907Y0004605D01*
X0007193Y0004381D01*
X0007483Y0004165D01*
X0007779Y0003955D01*
X0008080Y0003753D01*
X0008385Y0003558D01*
X0008696Y0003370D01*
X0009010Y0003190D01*
X0009329Y0003018D01*
X0009652Y0002854D01*
X0009979Y0002697D01*
X0010310Y0002548D01*
X0010644Y0002407D01*
X0010981Y0002275D01*
X0011321Y0002150D01*
X0011665Y0002034D01*
X0012011Y0001926D01*
X0012359Y0001827D01*
X0012710Y0001736D01*
X0013063Y0001653D01*
X0013418Y0001579D01*
X0013775Y0001514D01*
X0014133Y0001457D01*
X0014492Y0001409D01*
X0014852Y0001370D01*
X0015213Y0001339D01*
X0015575Y0001318D01*
X0015938Y0001304D01*
X0016300Y0001300D01*
X0096300Y0001300D01*
X0096662Y0001304D01*
X0097025Y0001318D01*
X0097387Y0001339D01*
X0097748Y0001370D01*
X0098108Y0001409D01*
X0098467Y0001457D01*
X0098825Y0001514D01*
X0099182Y0001579D01*
X0099537Y0001653D01*
X0099890Y0001736D01*
X0100241Y0001827D01*
X0100589Y0001926D01*
X0100935Y0002034D01*
X0101279Y0002150D01*
X0101619Y0002275D01*
X0101956Y0002407D01*
X0102290Y0002548D01*
X0102621Y0002697D01*
X0102948Y0002854D01*
X0103271Y0003018D01*
X0103590Y0003190D01*
X0103904Y0003370D01*
X0104215Y0003558D01*
X0104520Y0003753D01*
X0104821Y0003955D01*
X0105117Y0004165D01*
X0105407Y0004381D01*
X0105693Y0004605D01*
X0105973Y0004835D01*
X0106247Y0005072D01*
X0106515Y0005316D01*
X0106778Y0005566D01*
X0107034Y0005822D01*
X0107284Y0006085D01*
X0107528Y0006353D01*
X0107765Y0006627D01*
X0107995Y0006907D01*
X0108219Y0007193D01*
X0108435Y0007483D01*
X0108645Y0007779D01*
X0108847Y0008080D01*
X0109042Y0008385D01*
X0109230Y0008696D01*
X0109410Y0009010D01*
X0109582Y0009329D01*
X0109746Y0009652D01*
X0109903Y0009979D01*
X0110052Y0010310D01*
X0110193Y0010644D01*
X0110325Y0010981D01*
X0110450Y0011321D01*
X0110566Y0011665D01*
X0110674Y0012011D01*
X0110773Y0012359D01*
X0110864Y0012710D01*
X0110947Y0013063D01*
X0111021Y0013418D01*
X0111086Y0013775D01*
X0111143Y0014133D01*
X0111191Y0014492D01*
X0111230Y0014852D01*
X0111261Y0015213D01*
X0111282Y0015575D01*
X0111296Y0015938D01*
X0111300Y0016300D01*
X0111300Y0101300D01*
X0075789Y0025532D02*
X0075791Y0025625D01*
X0075797Y0025717D01*
X0075807Y0025809D01*
X0075821Y0025900D01*
X0075838Y0025991D01*
X0075860Y0026081D01*
X0075885Y0026170D01*
X0075914Y0026258D01*
X0075947Y0026344D01*
X0075984Y0026429D01*
X0076024Y0026513D01*
X0076068Y0026594D01*
X0076115Y0026674D01*
X0076165Y0026752D01*
X0076219Y0026827D01*
X0076276Y0026900D01*
X0076336Y0026970D01*
X0076399Y0027038D01*
X0076465Y0027103D01*
X0076533Y0027165D01*
X0076604Y0027225D01*
X0076678Y0027281D01*
X0076754Y0027334D01*
X0076832Y0027383D01*
X0076912Y0027430D01*
X0076994Y0027472D01*
X0077078Y0027512D01*
X0077163Y0027547D01*
X0077250Y0027579D01*
X0077338Y0027608D01*
X0077427Y0027632D01*
X0077517Y0027653D01*
X0077608Y0027669D01*
X0077700Y0027682D01*
X0077792Y0027691D01*
X0077885Y0027696D01*
X0077977Y0027697D01*
X0078070Y0027694D01*
X0078162Y0027687D01*
X0078254Y0027676D01*
X0078345Y0027661D01*
X0078436Y0027643D01*
X0078526Y0027620D01*
X0078614Y0027594D01*
X0078702Y0027564D01*
X0078788Y0027530D01*
X0078872Y0027493D01*
X0078955Y0027451D01*
X0079036Y0027407D01*
X0079116Y0027359D01*
X0079193Y0027308D01*
X0079267Y0027253D01*
X0079340Y0027195D01*
X0079410Y0027135D01*
X0079477Y0027071D01*
X0079541Y0027005D01*
X0079603Y0026935D01*
X0079661Y0026864D01*
X0079716Y0026790D01*
X0079768Y0026713D01*
X0079817Y0026634D01*
X0079863Y0026554D01*
X0079905Y0026471D01*
X0079943Y0026387D01*
X0079978Y0026301D01*
X0080009Y0026214D01*
X0080036Y0026126D01*
X0080059Y0026036D01*
X0080079Y0025946D01*
X0080095Y0025855D01*
X0080107Y0025763D01*
X0080115Y0025671D01*
X0080119Y0025578D01*
X0080119Y0025486D01*
X0080115Y0025393D01*
X0080107Y0025301D01*
X0080095Y0025209D01*
X0080079Y0025118D01*
X0080059Y0025028D01*
X0080036Y0024938D01*
X0080009Y0024850D01*
X0079978Y0024763D01*
X0079943Y0024677D01*
X0079905Y0024593D01*
X0079863Y0024510D01*
X0079817Y0024430D01*
X0079768Y0024351D01*
X0079716Y0024274D01*
X0079661Y0024200D01*
X0079603Y0024129D01*
X0079541Y0024059D01*
X0079477Y0023993D01*
X0079410Y0023929D01*
X0079340Y0023869D01*
X0079267Y0023811D01*
X0079193Y0023756D01*
X0079116Y0023705D01*
X0079037Y0023657D01*
X0078955Y0023613D01*
X0078872Y0023571D01*
X0078788Y0023534D01*
X0078702Y0023500D01*
X0078614Y0023470D01*
X0078526Y0023444D01*
X0078436Y0023421D01*
X0078345Y0023403D01*
X0078254Y0023388D01*
X0078162Y0023377D01*
X0078070Y0023370D01*
X0077977Y0023367D01*
X0077885Y0023368D01*
X0077792Y0023373D01*
X0077700Y0023382D01*
X0077608Y0023395D01*
X0077517Y0023411D01*
X0077427Y0023432D01*
X0077338Y0023456D01*
X0077250Y0023485D01*
X0077163Y0023517D01*
X0077078Y0023552D01*
X0076994Y0023592D01*
X0076912Y0023634D01*
X0076832Y0023681D01*
X0076754Y0023730D01*
X0076678Y0023783D01*
X0076604Y0023839D01*
X0076533Y0023899D01*
X0076465Y0023961D01*
X0076399Y0024026D01*
X0076336Y0024094D01*
X0076276Y0024164D01*
X0076219Y0024237D01*
X0076165Y0024312D01*
X0076115Y0024390D01*
X0076068Y0024470D01*
X0076024Y0024551D01*
X0075984Y0024635D01*
X0075947Y0024720D01*
X0075914Y0024806D01*
X0075885Y0024894D01*
X0075860Y0024983D01*
X0075838Y0025073D01*
X0075821Y0025164D01*
X0075807Y0025255D01*
X0075797Y0025347D01*
X0075791Y0025439D01*
X0075789Y0025532D01*
X0032481Y0025532D02*
X0032483Y0025625D01*
X0032489Y0025717D01*
X0032499Y0025809D01*
X0032513Y0025900D01*
X0032530Y0025991D01*
X0032552Y0026081D01*
X0032577Y0026170D01*
X0032606Y0026258D01*
X0032639Y0026344D01*
X0032676Y0026429D01*
X0032716Y0026513D01*
X0032760Y0026594D01*
X0032807Y0026674D01*
X0032857Y0026752D01*
X0032911Y0026827D01*
X0032968Y0026900D01*
X0033028Y0026970D01*
X0033091Y0027038D01*
X0033157Y0027103D01*
X0033225Y0027165D01*
X0033296Y0027225D01*
X0033370Y0027281D01*
X0033446Y0027334D01*
X0033524Y0027383D01*
X0033604Y0027430D01*
X0033686Y0027472D01*
X0033770Y0027512D01*
X0033855Y0027547D01*
X0033942Y0027579D01*
X0034030Y0027608D01*
X0034119Y0027632D01*
X0034209Y0027653D01*
X0034300Y0027669D01*
X0034392Y0027682D01*
X0034484Y0027691D01*
X0034577Y0027696D01*
X0034669Y0027697D01*
X0034762Y0027694D01*
X0034854Y0027687D01*
X0034946Y0027676D01*
X0035037Y0027661D01*
X0035128Y0027643D01*
X0035218Y0027620D01*
X0035306Y0027594D01*
X0035394Y0027564D01*
X0035480Y0027530D01*
X0035564Y0027493D01*
X0035647Y0027451D01*
X0035728Y0027407D01*
X0035808Y0027359D01*
X0035885Y0027308D01*
X0035959Y0027253D01*
X0036032Y0027195D01*
X0036102Y0027135D01*
X0036169Y0027071D01*
X0036233Y0027005D01*
X0036295Y0026935D01*
X0036353Y0026864D01*
X0036408Y0026790D01*
X0036460Y0026713D01*
X0036509Y0026634D01*
X0036555Y0026554D01*
X0036597Y0026471D01*
X0036635Y0026387D01*
X0036670Y0026301D01*
X0036701Y0026214D01*
X0036728Y0026126D01*
X0036751Y0026036D01*
X0036771Y0025946D01*
X0036787Y0025855D01*
X0036799Y0025763D01*
X0036807Y0025671D01*
X0036811Y0025578D01*
X0036811Y0025486D01*
X0036807Y0025393D01*
X0036799Y0025301D01*
X0036787Y0025209D01*
X0036771Y0025118D01*
X0036751Y0025028D01*
X0036728Y0024938D01*
X0036701Y0024850D01*
X0036670Y0024763D01*
X0036635Y0024677D01*
X0036597Y0024593D01*
X0036555Y0024510D01*
X0036509Y0024430D01*
X0036460Y0024351D01*
X0036408Y0024274D01*
X0036353Y0024200D01*
X0036295Y0024129D01*
X0036233Y0024059D01*
X0036169Y0023993D01*
X0036102Y0023929D01*
X0036032Y0023869D01*
X0035959Y0023811D01*
X0035885Y0023756D01*
X0035808Y0023705D01*
X0035729Y0023657D01*
X0035647Y0023613D01*
X0035564Y0023571D01*
X0035480Y0023534D01*
X0035394Y0023500D01*
X0035306Y0023470D01*
X0035218Y0023444D01*
X0035128Y0023421D01*
X0035037Y0023403D01*
X0034946Y0023388D01*
X0034854Y0023377D01*
X0034762Y0023370D01*
X0034669Y0023367D01*
X0034577Y0023368D01*
X0034484Y0023373D01*
X0034392Y0023382D01*
X0034300Y0023395D01*
X0034209Y0023411D01*
X0034119Y0023432D01*
X0034030Y0023456D01*
X0033942Y0023485D01*
X0033855Y0023517D01*
X0033770Y0023552D01*
X0033686Y0023592D01*
X0033604Y0023634D01*
X0033524Y0023681D01*
X0033446Y0023730D01*
X0033370Y0023783D01*
X0033296Y0023839D01*
X0033225Y0023899D01*
X0033157Y0023961D01*
X0033091Y0024026D01*
X0033028Y0024094D01*
X0032968Y0024164D01*
X0032911Y0024237D01*
X0032857Y0024312D01*
X0032807Y0024390D01*
X0032760Y0024470D01*
X0032716Y0024551D01*
X0032676Y0024635D01*
X0032639Y0024720D01*
X0032606Y0024806D01*
X0032577Y0024894D01*
X0032552Y0024983D01*
X0032530Y0025073D01*
X0032513Y0025164D01*
X0032499Y0025255D01*
X0032489Y0025347D01*
X0032483Y0025439D01*
X0032481Y0025532D01*
X0001300Y0101300D02*
X0001316Y0102639D01*
X0001365Y0103978D01*
X0001447Y0105315D01*
X0001561Y0106649D01*
X0001707Y0107981D01*
X0001886Y0109308D01*
X0002097Y0110631D01*
X0002341Y0111948D01*
X0002616Y0113259D01*
X0002923Y0114562D01*
X0003262Y0115858D01*
X0003632Y0117145D01*
X0004033Y0118423D01*
X0004466Y0119691D01*
X0004929Y0120948D01*
X0005423Y0122193D01*
X0005947Y0123426D01*
X0006500Y0124645D01*
X0007084Y0125851D01*
X0007696Y0127042D01*
X0008337Y0128218D01*
X0009007Y0129378D01*
X0009705Y0130521D01*
X0010430Y0131647D01*
X0011183Y0132755D01*
X0011962Y0133845D01*
X0012768Y0134915D01*
X0013599Y0135965D01*
X0014456Y0136994D01*
X0015338Y0138003D01*
X0016243Y0138989D01*
X0017173Y0139953D01*
X0018126Y0140895D01*
X0019101Y0141813D01*
X0020099Y0142706D01*
X0021118Y0143576D01*
X0022158Y0144420D01*
X0023218Y0145238D01*
X0024298Y0146031D01*
X0025396Y0146797D01*
X0026514Y0147536D01*
X0027648Y0148248D01*
X0028800Y0148931D01*
X0029968Y0149587D01*
X0031152Y0150214D01*
X0032350Y0150812D01*
X0033563Y0151380D01*
X0034789Y0151919D01*
X0036028Y0152428D01*
X0037279Y0152906D01*
X0038542Y0153354D01*
X0039814Y0153771D01*
X0041097Y0154157D01*
X0042389Y0154512D01*
X0043689Y0154835D01*
X0044996Y0155126D01*
X0046310Y0155385D01*
X0047630Y0155612D01*
X0048955Y0155807D01*
X0050285Y0155970D01*
X0051618Y0156100D01*
X0052953Y0156198D01*
X0054291Y0156263D01*
X0055630Y0156296D01*
X0056970Y0156296D01*
X0058309Y0156263D01*
X0059647Y0156198D01*
X0060982Y0156100D01*
X0062315Y0155970D01*
X0063645Y0155807D01*
X0064970Y0155612D01*
X0066290Y0155385D01*
X0067604Y0155126D01*
X0068911Y0154835D01*
X0070211Y0154512D01*
X0071503Y0154157D01*
X0072786Y0153771D01*
X0074058Y0153354D01*
X0075321Y0152906D01*
X0076572Y0152428D01*
X0077811Y0151919D01*
X0079037Y0151380D01*
X0080250Y0150812D01*
X0081448Y0150214D01*
X0082632Y0149587D01*
X0083800Y0148931D01*
X0084952Y0148248D01*
X0086086Y0147536D01*
X0087204Y0146797D01*
X0088302Y0146031D01*
X0089382Y0145238D01*
X0090442Y0144420D01*
X0091482Y0143576D01*
X0092501Y0142706D01*
X0093499Y0141813D01*
X0094474Y0140895D01*
X0095427Y0139953D01*
X0096357Y0138989D01*
X0097262Y0138003D01*
X0098144Y0136994D01*
X0099001Y0135965D01*
X0099832Y0134915D01*
X0100638Y0133845D01*
X0101417Y0132755D01*
X0102170Y0131647D01*
X0102895Y0130521D01*
X0103593Y0129378D01*
X0104263Y0128218D01*
X0104904Y0127042D01*
X0105516Y0125851D01*
X0106100Y0124645D01*
X0106653Y0123426D01*
X0107177Y0122193D01*
X0107671Y0120948D01*
X0108134Y0119691D01*
X0108567Y0118423D01*
X0108968Y0117145D01*
X0109338Y0115858D01*
X0109677Y0114562D01*
X0109984Y0113259D01*
X0110259Y0111948D01*
X0110503Y0110631D01*
X0110714Y0109308D01*
X0110893Y0107981D01*
X0111039Y0106649D01*
X0111153Y0105315D01*
X0111235Y0103978D01*
X0111284Y0102639D01*
X0111300Y0101300D01*
D260*
X0072748Y0044628D02*
X0073098Y0044278D01*
X0073098Y0043577D01*
X0072748Y0043227D01*
X0072047Y0043577D02*
X0072047Y0044278D01*
X0072397Y0044628D01*
X0072748Y0044628D01*
X0072047Y0043577D02*
X0071697Y0043227D01*
X0071347Y0043227D01*
X0070996Y0043577D01*
X0070996Y0044278D01*
X0071347Y0044628D01*
X0070996Y0042418D02*
X0073098Y0042418D01*
X0072397Y0041718D01*
X0073098Y0041017D01*
X0070996Y0041017D01*
X0065224Y0041017D02*
X0065224Y0042068D01*
X0064874Y0042418D01*
X0064523Y0042418D01*
X0064173Y0042068D01*
X0064173Y0041017D01*
X0063122Y0041017D02*
X0063122Y0042068D01*
X0063473Y0042418D01*
X0063823Y0042418D01*
X0064173Y0042068D01*
X0063473Y0043227D02*
X0063122Y0043577D01*
X0063122Y0044278D01*
X0063473Y0044628D01*
X0063122Y0045437D02*
X0065224Y0045437D01*
X0065224Y0046838D01*
X0065224Y0047647D02*
X0063122Y0047647D01*
X0064173Y0047997D02*
X0065224Y0049048D01*
X0064523Y0047647D02*
X0063122Y0049048D01*
X0064874Y0044628D02*
X0065224Y0044278D01*
X0065224Y0043577D01*
X0064874Y0043227D01*
X0063473Y0043227D01*
X0063122Y0041017D02*
X0065224Y0041017D01*
X0057350Y0041017D02*
X0057350Y0042068D01*
X0057000Y0042418D01*
X0055599Y0042418D01*
X0055248Y0042068D01*
X0055248Y0041017D01*
X0057350Y0041017D01*
X0057350Y0043227D02*
X0055949Y0043227D01*
X0055248Y0043927D01*
X0055949Y0044628D01*
X0057350Y0044628D01*
X0056299Y0044628D02*
X0056299Y0043227D01*
X0055248Y0045437D02*
X0055248Y0046838D01*
X0055248Y0046137D02*
X0057350Y0046137D01*
X0057350Y0047647D02*
X0055949Y0047647D01*
X0055248Y0048347D01*
X0055949Y0049048D01*
X0057350Y0049048D01*
X0056299Y0049048D02*
X0056299Y0047647D01*
X0049476Y0046488D02*
X0049476Y0045787D01*
X0049126Y0045437D01*
X0047724Y0045437D01*
X0047374Y0045787D01*
X0047374Y0046488D01*
X0047724Y0046838D01*
X0049126Y0046838D02*
X0049476Y0046488D01*
X0049126Y0044628D02*
X0049476Y0044278D01*
X0049476Y0043577D01*
X0049126Y0043227D01*
X0047724Y0043227D01*
X0047374Y0043577D01*
X0047374Y0044278D01*
X0047724Y0044628D01*
X0047374Y0042418D02*
X0048775Y0042418D01*
X0049476Y0041718D01*
X0048775Y0041017D01*
X0047374Y0041017D01*
X0041602Y0041367D02*
X0041602Y0042068D01*
X0041252Y0042418D01*
X0040551Y0042418D01*
X0040551Y0041718D01*
X0039850Y0042418D02*
X0039500Y0042068D01*
X0039500Y0041367D01*
X0039850Y0041017D01*
X0041252Y0041017D01*
X0041602Y0041367D01*
X0041602Y0043227D02*
X0039500Y0043227D01*
X0041602Y0044628D01*
X0039500Y0044628D01*
X0039500Y0045437D02*
X0039500Y0046488D01*
X0039850Y0046838D01*
X0041252Y0046838D01*
X0041602Y0046488D01*
X0041602Y0045437D01*
X0039500Y0045437D01*
M02*
