%
M48
M72
T01C0.01181
T02C0.01200
T03C0.03543
T04C0.04031
T05C0.04331
T06C0.11811
%
T01
X56418Y119410
X68623Y139489
X80040Y127284
X36733Y123347
T02
X63308Y140080
X71182Y126300
X65276Y119410
X66261Y109568
T03
X64174Y33800
X56300Y33800
X48426Y33800
X40552Y33800
X72048Y33800
T04
X56300Y138800
T05
X34646Y25532
X77954Y25532
T06
X16300Y16300
X16300Y101300
X96300Y101300
X96300Y16300
M30
