G75*
%MOIN*%
%OFA0B0*%
%FSLAX25Y25*%
%IPPOS*%
%LPD*%
%AMOC8*
5,1,8,0,0,1.08239X$1,22.5*
%
%ADD10C,0.00000*%
%ADD11C,0.00787*%
%ADD12C,0.00709*%
%ADD13R,0.02362X0.02055*%
%ADD14C,0.00100*%
D10*
X0001300Y0016300D02*
X0001300Y0101300D01*
X0001316Y0102639D01*
X0001365Y0103978D01*
X0001447Y0105315D01*
X0001561Y0106649D01*
X0001707Y0107981D01*
X0001886Y0109308D01*
X0002097Y0110631D01*
X0002341Y0111948D01*
X0002616Y0113259D01*
X0002923Y0114562D01*
X0003262Y0115858D01*
X0003632Y0117145D01*
X0004033Y0118423D01*
X0004466Y0119691D01*
X0004929Y0120948D01*
X0005423Y0122193D01*
X0005947Y0123426D01*
X0006500Y0124645D01*
X0007084Y0125851D01*
X0007696Y0127042D01*
X0008337Y0128218D01*
X0009007Y0129378D01*
X0009705Y0130521D01*
X0010430Y0131647D01*
X0011183Y0132755D01*
X0011962Y0133845D01*
X0012768Y0134915D01*
X0013599Y0135965D01*
X0014456Y0136994D01*
X0015338Y0138003D01*
X0016243Y0138989D01*
X0017173Y0139953D01*
X0018126Y0140895D01*
X0019101Y0141813D01*
X0020099Y0142706D01*
X0021118Y0143576D01*
X0022158Y0144420D01*
X0023218Y0145238D01*
X0024298Y0146031D01*
X0025396Y0146797D01*
X0026514Y0147536D01*
X0027648Y0148248D01*
X0028800Y0148931D01*
X0029968Y0149587D01*
X0031152Y0150214D01*
X0032350Y0150812D01*
X0033563Y0151380D01*
X0034789Y0151919D01*
X0036028Y0152428D01*
X0037279Y0152906D01*
X0038542Y0153354D01*
X0039814Y0153771D01*
X0041097Y0154157D01*
X0042389Y0154512D01*
X0043689Y0154835D01*
X0044996Y0155126D01*
X0046310Y0155385D01*
X0047630Y0155612D01*
X0048955Y0155807D01*
X0050285Y0155970D01*
X0051618Y0156100D01*
X0052953Y0156198D01*
X0054291Y0156263D01*
X0055630Y0156296D01*
X0056970Y0156296D01*
X0058309Y0156263D01*
X0059647Y0156198D01*
X0060982Y0156100D01*
X0062315Y0155970D01*
X0063645Y0155807D01*
X0064970Y0155612D01*
X0066290Y0155385D01*
X0067604Y0155126D01*
X0068911Y0154835D01*
X0070211Y0154512D01*
X0071503Y0154157D01*
X0072786Y0153771D01*
X0074058Y0153354D01*
X0075321Y0152906D01*
X0076572Y0152428D01*
X0077811Y0151919D01*
X0079037Y0151380D01*
X0080250Y0150812D01*
X0081448Y0150214D01*
X0082632Y0149587D01*
X0083800Y0148931D01*
X0084952Y0148248D01*
X0086086Y0147536D01*
X0087204Y0146797D01*
X0088302Y0146031D01*
X0089382Y0145238D01*
X0090442Y0144420D01*
X0091482Y0143576D01*
X0092501Y0142706D01*
X0093499Y0141813D01*
X0094474Y0140895D01*
X0095427Y0139953D01*
X0096357Y0138989D01*
X0097262Y0138003D01*
X0098144Y0136994D01*
X0099001Y0135965D01*
X0099832Y0134915D01*
X0100638Y0133845D01*
X0101417Y0132755D01*
X0102170Y0131647D01*
X0102895Y0130521D01*
X0103593Y0129378D01*
X0104263Y0128218D01*
X0104904Y0127042D01*
X0105516Y0125851D01*
X0106100Y0124645D01*
X0106653Y0123426D01*
X0107177Y0122193D01*
X0107671Y0120948D01*
X0108134Y0119691D01*
X0108567Y0118423D01*
X0108968Y0117145D01*
X0109338Y0115858D01*
X0109677Y0114562D01*
X0109984Y0113259D01*
X0110259Y0111948D01*
X0110503Y0110631D01*
X0110714Y0109308D01*
X0110893Y0107981D01*
X0111039Y0106649D01*
X0111153Y0105315D01*
X0111235Y0103978D01*
X0111284Y0102639D01*
X0111300Y0101300D01*
X0111300Y0016300D01*
X0111296Y0015938D01*
X0111282Y0015575D01*
X0111261Y0015213D01*
X0111230Y0014852D01*
X0111191Y0014492D01*
X0111143Y0014133D01*
X0111086Y0013775D01*
X0111021Y0013418D01*
X0110947Y0013063D01*
X0110864Y0012710D01*
X0110773Y0012359D01*
X0110674Y0012011D01*
X0110566Y0011665D01*
X0110450Y0011321D01*
X0110325Y0010981D01*
X0110193Y0010644D01*
X0110052Y0010310D01*
X0109903Y0009979D01*
X0109746Y0009652D01*
X0109582Y0009329D01*
X0109410Y0009010D01*
X0109230Y0008696D01*
X0109042Y0008385D01*
X0108847Y0008080D01*
X0108645Y0007779D01*
X0108435Y0007483D01*
X0108219Y0007193D01*
X0107995Y0006907D01*
X0107765Y0006627D01*
X0107528Y0006353D01*
X0107284Y0006085D01*
X0107034Y0005822D01*
X0106778Y0005566D01*
X0106515Y0005316D01*
X0106247Y0005072D01*
X0105973Y0004835D01*
X0105693Y0004605D01*
X0105407Y0004381D01*
X0105117Y0004165D01*
X0104821Y0003955D01*
X0104520Y0003753D01*
X0104215Y0003558D01*
X0103904Y0003370D01*
X0103590Y0003190D01*
X0103271Y0003018D01*
X0102948Y0002854D01*
X0102621Y0002697D01*
X0102290Y0002548D01*
X0101956Y0002407D01*
X0101619Y0002275D01*
X0101279Y0002150D01*
X0100935Y0002034D01*
X0100589Y0001926D01*
X0100241Y0001827D01*
X0099890Y0001736D01*
X0099537Y0001653D01*
X0099182Y0001579D01*
X0098825Y0001514D01*
X0098467Y0001457D01*
X0098108Y0001409D01*
X0097748Y0001370D01*
X0097387Y0001339D01*
X0097025Y0001318D01*
X0096662Y0001304D01*
X0096300Y0001300D01*
X0016300Y0001300D01*
X0015938Y0001304D01*
X0015575Y0001318D01*
X0015213Y0001339D01*
X0014852Y0001370D01*
X0014492Y0001409D01*
X0014133Y0001457D01*
X0013775Y0001514D01*
X0013418Y0001579D01*
X0013063Y0001653D01*
X0012710Y0001736D01*
X0012359Y0001827D01*
X0012011Y0001926D01*
X0011665Y0002034D01*
X0011321Y0002150D01*
X0010981Y0002275D01*
X0010644Y0002407D01*
X0010310Y0002548D01*
X0009979Y0002697D01*
X0009652Y0002854D01*
X0009329Y0003018D01*
X0009010Y0003190D01*
X0008696Y0003370D01*
X0008385Y0003558D01*
X0008080Y0003753D01*
X0007779Y0003955D01*
X0007483Y0004165D01*
X0007193Y0004381D01*
X0006907Y0004605D01*
X0006627Y0004835D01*
X0006353Y0005072D01*
X0006085Y0005316D01*
X0005822Y0005566D01*
X0005566Y0005822D01*
X0005316Y0006085D01*
X0005072Y0006353D01*
X0004835Y0006627D01*
X0004605Y0006907D01*
X0004381Y0007193D01*
X0004165Y0007483D01*
X0003955Y0007779D01*
X0003753Y0008080D01*
X0003558Y0008385D01*
X0003370Y0008696D01*
X0003190Y0009010D01*
X0003018Y0009329D01*
X0002854Y0009652D01*
X0002697Y0009979D01*
X0002548Y0010310D01*
X0002407Y0010644D01*
X0002275Y0010981D01*
X0002150Y0011321D01*
X0002034Y0011665D01*
X0001926Y0012011D01*
X0001827Y0012359D01*
X0001736Y0012710D01*
X0001653Y0013063D01*
X0001579Y0013418D01*
X0001514Y0013775D01*
X0001457Y0014133D01*
X0001409Y0014492D01*
X0001370Y0014852D01*
X0001339Y0015213D01*
X0001318Y0015575D01*
X0001304Y0015938D01*
X0001300Y0016300D01*
X0032481Y0025532D02*
X0032483Y0025625D01*
X0032489Y0025717D01*
X0032499Y0025809D01*
X0032513Y0025900D01*
X0032530Y0025991D01*
X0032552Y0026081D01*
X0032577Y0026170D01*
X0032606Y0026258D01*
X0032639Y0026344D01*
X0032676Y0026429D01*
X0032716Y0026513D01*
X0032760Y0026594D01*
X0032807Y0026674D01*
X0032857Y0026752D01*
X0032911Y0026827D01*
X0032968Y0026900D01*
X0033028Y0026970D01*
X0033091Y0027038D01*
X0033157Y0027103D01*
X0033225Y0027165D01*
X0033296Y0027225D01*
X0033370Y0027281D01*
X0033446Y0027334D01*
X0033524Y0027383D01*
X0033604Y0027430D01*
X0033686Y0027472D01*
X0033770Y0027512D01*
X0033855Y0027547D01*
X0033942Y0027579D01*
X0034030Y0027608D01*
X0034119Y0027632D01*
X0034209Y0027653D01*
X0034300Y0027669D01*
X0034392Y0027682D01*
X0034484Y0027691D01*
X0034577Y0027696D01*
X0034669Y0027697D01*
X0034762Y0027694D01*
X0034854Y0027687D01*
X0034946Y0027676D01*
X0035037Y0027661D01*
X0035128Y0027643D01*
X0035218Y0027620D01*
X0035306Y0027594D01*
X0035394Y0027564D01*
X0035480Y0027530D01*
X0035564Y0027493D01*
X0035647Y0027451D01*
X0035728Y0027407D01*
X0035808Y0027359D01*
X0035885Y0027308D01*
X0035959Y0027253D01*
X0036032Y0027195D01*
X0036102Y0027135D01*
X0036169Y0027071D01*
X0036233Y0027005D01*
X0036295Y0026935D01*
X0036353Y0026864D01*
X0036408Y0026790D01*
X0036460Y0026713D01*
X0036509Y0026634D01*
X0036555Y0026554D01*
X0036597Y0026471D01*
X0036635Y0026387D01*
X0036670Y0026301D01*
X0036701Y0026214D01*
X0036728Y0026126D01*
X0036751Y0026036D01*
X0036771Y0025946D01*
X0036787Y0025855D01*
X0036799Y0025763D01*
X0036807Y0025671D01*
X0036811Y0025578D01*
X0036811Y0025486D01*
X0036807Y0025393D01*
X0036799Y0025301D01*
X0036787Y0025209D01*
X0036771Y0025118D01*
X0036751Y0025028D01*
X0036728Y0024938D01*
X0036701Y0024850D01*
X0036670Y0024763D01*
X0036635Y0024677D01*
X0036597Y0024593D01*
X0036555Y0024510D01*
X0036509Y0024430D01*
X0036460Y0024351D01*
X0036408Y0024274D01*
X0036353Y0024200D01*
X0036295Y0024129D01*
X0036233Y0024059D01*
X0036169Y0023993D01*
X0036102Y0023929D01*
X0036032Y0023869D01*
X0035959Y0023811D01*
X0035885Y0023756D01*
X0035808Y0023705D01*
X0035729Y0023657D01*
X0035647Y0023613D01*
X0035564Y0023571D01*
X0035480Y0023534D01*
X0035394Y0023500D01*
X0035306Y0023470D01*
X0035218Y0023444D01*
X0035128Y0023421D01*
X0035037Y0023403D01*
X0034946Y0023388D01*
X0034854Y0023377D01*
X0034762Y0023370D01*
X0034669Y0023367D01*
X0034577Y0023368D01*
X0034484Y0023373D01*
X0034392Y0023382D01*
X0034300Y0023395D01*
X0034209Y0023411D01*
X0034119Y0023432D01*
X0034030Y0023456D01*
X0033942Y0023485D01*
X0033855Y0023517D01*
X0033770Y0023552D01*
X0033686Y0023592D01*
X0033604Y0023634D01*
X0033524Y0023681D01*
X0033446Y0023730D01*
X0033370Y0023783D01*
X0033296Y0023839D01*
X0033225Y0023899D01*
X0033157Y0023961D01*
X0033091Y0024026D01*
X0033028Y0024094D01*
X0032968Y0024164D01*
X0032911Y0024237D01*
X0032857Y0024312D01*
X0032807Y0024390D01*
X0032760Y0024470D01*
X0032716Y0024551D01*
X0032676Y0024635D01*
X0032639Y0024720D01*
X0032606Y0024806D01*
X0032577Y0024894D01*
X0032552Y0024983D01*
X0032530Y0025073D01*
X0032513Y0025164D01*
X0032499Y0025255D01*
X0032489Y0025347D01*
X0032483Y0025439D01*
X0032481Y0025532D01*
X0075789Y0025532D02*
X0075791Y0025625D01*
X0075797Y0025717D01*
X0075807Y0025809D01*
X0075821Y0025900D01*
X0075838Y0025991D01*
X0075860Y0026081D01*
X0075885Y0026170D01*
X0075914Y0026258D01*
X0075947Y0026344D01*
X0075984Y0026429D01*
X0076024Y0026513D01*
X0076068Y0026594D01*
X0076115Y0026674D01*
X0076165Y0026752D01*
X0076219Y0026827D01*
X0076276Y0026900D01*
X0076336Y0026970D01*
X0076399Y0027038D01*
X0076465Y0027103D01*
X0076533Y0027165D01*
X0076604Y0027225D01*
X0076678Y0027281D01*
X0076754Y0027334D01*
X0076832Y0027383D01*
X0076912Y0027430D01*
X0076994Y0027472D01*
X0077078Y0027512D01*
X0077163Y0027547D01*
X0077250Y0027579D01*
X0077338Y0027608D01*
X0077427Y0027632D01*
X0077517Y0027653D01*
X0077608Y0027669D01*
X0077700Y0027682D01*
X0077792Y0027691D01*
X0077885Y0027696D01*
X0077977Y0027697D01*
X0078070Y0027694D01*
X0078162Y0027687D01*
X0078254Y0027676D01*
X0078345Y0027661D01*
X0078436Y0027643D01*
X0078526Y0027620D01*
X0078614Y0027594D01*
X0078702Y0027564D01*
X0078788Y0027530D01*
X0078872Y0027493D01*
X0078955Y0027451D01*
X0079036Y0027407D01*
X0079116Y0027359D01*
X0079193Y0027308D01*
X0079267Y0027253D01*
X0079340Y0027195D01*
X0079410Y0027135D01*
X0079477Y0027071D01*
X0079541Y0027005D01*
X0079603Y0026935D01*
X0079661Y0026864D01*
X0079716Y0026790D01*
X0079768Y0026713D01*
X0079817Y0026634D01*
X0079863Y0026554D01*
X0079905Y0026471D01*
X0079943Y0026387D01*
X0079978Y0026301D01*
X0080009Y0026214D01*
X0080036Y0026126D01*
X0080059Y0026036D01*
X0080079Y0025946D01*
X0080095Y0025855D01*
X0080107Y0025763D01*
X0080115Y0025671D01*
X0080119Y0025578D01*
X0080119Y0025486D01*
X0080115Y0025393D01*
X0080107Y0025301D01*
X0080095Y0025209D01*
X0080079Y0025118D01*
X0080059Y0025028D01*
X0080036Y0024938D01*
X0080009Y0024850D01*
X0079978Y0024763D01*
X0079943Y0024677D01*
X0079905Y0024593D01*
X0079863Y0024510D01*
X0079817Y0024430D01*
X0079768Y0024351D01*
X0079716Y0024274D01*
X0079661Y0024200D01*
X0079603Y0024129D01*
X0079541Y0024059D01*
X0079477Y0023993D01*
X0079410Y0023929D01*
X0079340Y0023869D01*
X0079267Y0023811D01*
X0079193Y0023756D01*
X0079116Y0023705D01*
X0079037Y0023657D01*
X0078955Y0023613D01*
X0078872Y0023571D01*
X0078788Y0023534D01*
X0078702Y0023500D01*
X0078614Y0023470D01*
X0078526Y0023444D01*
X0078436Y0023421D01*
X0078345Y0023403D01*
X0078254Y0023388D01*
X0078162Y0023377D01*
X0078070Y0023370D01*
X0077977Y0023367D01*
X0077885Y0023368D01*
X0077792Y0023373D01*
X0077700Y0023382D01*
X0077608Y0023395D01*
X0077517Y0023411D01*
X0077427Y0023432D01*
X0077338Y0023456D01*
X0077250Y0023485D01*
X0077163Y0023517D01*
X0077078Y0023552D01*
X0076994Y0023592D01*
X0076912Y0023634D01*
X0076832Y0023681D01*
X0076754Y0023730D01*
X0076678Y0023783D01*
X0076604Y0023839D01*
X0076533Y0023899D01*
X0076465Y0023961D01*
X0076399Y0024026D01*
X0076336Y0024094D01*
X0076276Y0024164D01*
X0076219Y0024237D01*
X0076165Y0024312D01*
X0076115Y0024390D01*
X0076068Y0024470D01*
X0076024Y0024551D01*
X0075984Y0024635D01*
X0075947Y0024720D01*
X0075914Y0024806D01*
X0075885Y0024894D01*
X0075860Y0024983D01*
X0075838Y0025073D01*
X0075821Y0025164D01*
X0075807Y0025255D01*
X0075797Y0025347D01*
X0075791Y0025439D01*
X0075789Y0025532D01*
D11*
X0038918Y0054725D02*
X0035374Y0054725D01*
X0035374Y0057875D01*
X0038918Y0057875D01*
X0038918Y0054725D01*
X0038918Y0055511D02*
X0035374Y0055511D01*
X0035374Y0056297D02*
X0038918Y0056297D01*
X0038918Y0057083D02*
X0035374Y0057083D01*
X0035374Y0057869D02*
X0038918Y0057869D01*
X0032226Y0054725D02*
X0028682Y0054725D01*
X0028682Y0057875D01*
X0032226Y0057875D01*
X0032226Y0054725D01*
X0032226Y0055511D02*
X0028682Y0055511D01*
X0028682Y0056297D02*
X0032226Y0056297D01*
X0032226Y0057083D02*
X0028682Y0057083D01*
X0028682Y0057869D02*
X0032226Y0057869D01*
X0043682Y0112225D02*
X0047226Y0112225D01*
X0043682Y0112225D02*
X0043682Y0115375D01*
X0047226Y0115375D01*
X0047226Y0112225D01*
X0047226Y0113011D02*
X0043682Y0113011D01*
X0043682Y0113797D02*
X0047226Y0113797D01*
X0047226Y0114583D02*
X0043682Y0114583D01*
X0043682Y0115369D02*
X0047226Y0115369D01*
X0050374Y0112225D02*
X0053918Y0112225D01*
X0050374Y0112225D02*
X0050374Y0115375D01*
X0053918Y0115375D01*
X0053918Y0112225D01*
X0053918Y0113011D02*
X0050374Y0113011D01*
X0050374Y0113797D02*
X0053918Y0113797D01*
X0053918Y0114583D02*
X0050374Y0114583D01*
X0050374Y0115369D02*
X0053918Y0115369D01*
X0053918Y0122225D02*
X0050374Y0122225D01*
X0050374Y0125375D01*
X0053918Y0125375D01*
X0053918Y0122225D01*
X0053918Y0123011D02*
X0050374Y0123011D01*
X0050374Y0123797D02*
X0053918Y0123797D01*
X0053918Y0124583D02*
X0050374Y0124583D01*
X0050374Y0125369D02*
X0053918Y0125369D01*
X0058682Y0122225D02*
X0062226Y0122225D01*
X0058682Y0122225D02*
X0058682Y0125375D01*
X0062226Y0125375D01*
X0062226Y0122225D01*
X0062226Y0123011D02*
X0058682Y0123011D01*
X0058682Y0123797D02*
X0062226Y0123797D01*
X0062226Y0124583D02*
X0058682Y0124583D01*
X0058682Y0125369D02*
X0062226Y0125369D01*
X0065374Y0122225D02*
X0068918Y0122225D01*
X0065374Y0122225D02*
X0065374Y0125375D01*
X0068918Y0125375D01*
X0068918Y0122225D01*
X0068918Y0123011D02*
X0065374Y0123011D01*
X0065374Y0123797D02*
X0068918Y0123797D01*
X0068918Y0124583D02*
X0065374Y0124583D01*
X0065374Y0125369D02*
X0068918Y0125369D01*
X0068918Y0112225D02*
X0065374Y0112225D01*
X0065374Y0115375D01*
X0068918Y0115375D01*
X0068918Y0112225D01*
X0068918Y0113011D02*
X0065374Y0113011D01*
X0065374Y0113797D02*
X0068918Y0113797D01*
X0068918Y0114583D02*
X0065374Y0114583D01*
X0065374Y0115369D02*
X0068918Y0115369D01*
X0062226Y0112225D02*
X0058682Y0112225D01*
X0058682Y0115375D01*
X0062226Y0115375D01*
X0062226Y0112225D01*
X0062226Y0113011D02*
X0058682Y0113011D01*
X0058682Y0113797D02*
X0062226Y0113797D01*
X0062226Y0114583D02*
X0058682Y0114583D01*
X0058682Y0115369D02*
X0062226Y0115369D01*
X0047226Y0122225D02*
X0043682Y0122225D01*
X0043682Y0125375D01*
X0047226Y0125375D01*
X0047226Y0122225D01*
X0047226Y0123011D02*
X0043682Y0123011D01*
X0043682Y0123797D02*
X0047226Y0123797D01*
X0047226Y0124583D02*
X0043682Y0124583D01*
X0043682Y0125369D02*
X0047226Y0125369D01*
D12*
X0038367Y0077205D02*
X0036713Y0077205D01*
X0036713Y0080631D01*
X0038367Y0080631D01*
X0038367Y0077205D01*
X0038367Y0077913D02*
X0036713Y0077913D01*
X0036713Y0078621D02*
X0038367Y0078621D01*
X0038367Y0079329D02*
X0036713Y0079329D01*
X0036713Y0080037D02*
X0038367Y0080037D01*
X0038367Y0066969D02*
X0036713Y0066969D01*
X0036713Y0070395D01*
X0038367Y0070395D01*
X0038367Y0066969D01*
X0038367Y0067677D02*
X0036713Y0067677D01*
X0036713Y0068385D02*
X0038367Y0068385D01*
X0038367Y0069093D02*
X0036713Y0069093D01*
X0036713Y0069801D02*
X0038367Y0069801D01*
X0034627Y0066969D02*
X0032973Y0066969D01*
X0032973Y0070395D01*
X0034627Y0070395D01*
X0034627Y0066969D01*
X0034627Y0067677D02*
X0032973Y0067677D01*
X0032973Y0068385D02*
X0034627Y0068385D01*
X0034627Y0069093D02*
X0032973Y0069093D01*
X0032973Y0069801D02*
X0034627Y0069801D01*
X0030887Y0066969D02*
X0029233Y0066969D01*
X0029233Y0070395D01*
X0030887Y0070395D01*
X0030887Y0066969D01*
X0030887Y0067677D02*
X0029233Y0067677D01*
X0029233Y0068385D02*
X0030887Y0068385D01*
X0030887Y0069093D02*
X0029233Y0069093D01*
X0029233Y0069801D02*
X0030887Y0069801D01*
X0030887Y0077205D02*
X0029233Y0077205D01*
X0029233Y0080631D01*
X0030887Y0080631D01*
X0030887Y0077205D01*
X0030887Y0077913D02*
X0029233Y0077913D01*
X0029233Y0078621D02*
X0030887Y0078621D01*
X0030887Y0079329D02*
X0029233Y0079329D01*
X0029233Y0080037D02*
X0030887Y0080037D01*
D13*
X0052757Y0143729D03*
X0052757Y0146965D03*
X0056300Y0146965D03*
X0059843Y0146965D03*
X0059843Y0143729D03*
D14*
X0058851Y0137186D02*
X0058139Y0137737D01*
X0058140Y0137737D02*
X0058190Y0137809D01*
X0058237Y0137882D01*
X0058281Y0137958D01*
X0058321Y0138036D01*
X0058358Y0138115D01*
X0058392Y0138196D01*
X0058422Y0138278D01*
X0058448Y0138361D01*
X0058470Y0138446D01*
X0058489Y0138531D01*
X0058504Y0138617D01*
X0058516Y0138704D01*
X0058523Y0138791D01*
X0058527Y0138879D01*
X0058526Y0138966D01*
X0058522Y0139053D01*
X0058514Y0139140D01*
X0058503Y0139227D01*
X0058487Y0139313D01*
X0058468Y0139398D01*
X0058445Y0139483D01*
X0058418Y0139566D01*
X0058388Y0139648D01*
X0058354Y0139729D01*
X0058317Y0139808D01*
X0058276Y0139885D01*
X0058232Y0139961D01*
X0058184Y0140034D01*
X0058134Y0140105D01*
X0058080Y0140174D01*
X0058023Y0140241D01*
X0057964Y0140305D01*
X0057901Y0140366D01*
X0057836Y0140425D01*
X0057769Y0140481D01*
X0057699Y0140533D01*
X0057627Y0140583D01*
X0057553Y0140629D01*
X0057477Y0140672D01*
X0057399Y0140712D01*
X0057319Y0140748D01*
X0057238Y0140781D01*
X0057156Y0140810D01*
X0057072Y0140835D01*
X0056987Y0140857D01*
X0056902Y0140875D01*
X0056815Y0140889D01*
X0056729Y0140900D01*
X0056641Y0140906D01*
X0056554Y0140909D01*
X0056539Y0141808D01*
X0056540Y0141809D01*
X0056646Y0141807D01*
X0056753Y0141801D01*
X0056859Y0141791D01*
X0056965Y0141777D01*
X0057070Y0141759D01*
X0057174Y0141738D01*
X0057277Y0141712D01*
X0057380Y0141683D01*
X0057481Y0141650D01*
X0057581Y0141613D01*
X0057680Y0141573D01*
X0057777Y0141529D01*
X0057872Y0141481D01*
X0057966Y0141430D01*
X0058057Y0141376D01*
X0058147Y0141318D01*
X0058234Y0141257D01*
X0058319Y0141193D01*
X0058402Y0141126D01*
X0058482Y0141055D01*
X0058560Y0140982D01*
X0058634Y0140906D01*
X0058706Y0140827D01*
X0058775Y0140746D01*
X0058841Y0140662D01*
X0058904Y0140576D01*
X0058963Y0140488D01*
X0059019Y0140397D01*
X0059072Y0140305D01*
X0059122Y0140210D01*
X0059168Y0140114D01*
X0059210Y0140016D01*
X0059249Y0139917D01*
X0059284Y0139816D01*
X0059315Y0139715D01*
X0059342Y0139612D01*
X0059366Y0139508D01*
X0059386Y0139403D01*
X0059402Y0139298D01*
X0059414Y0139192D01*
X0059422Y0139086D01*
X0059426Y0138979D01*
X0059427Y0138872D01*
X0059423Y0138766D01*
X0059416Y0138660D01*
X0059404Y0138554D01*
X0059389Y0138448D01*
X0059370Y0138343D01*
X0059347Y0138239D01*
X0059320Y0138136D01*
X0059289Y0138034D01*
X0059255Y0137933D01*
X0059217Y0137834D01*
X0059175Y0137736D01*
X0059129Y0137639D01*
X0059081Y0137545D01*
X0059028Y0137452D01*
X0058973Y0137361D01*
X0058914Y0137272D01*
X0058851Y0137186D01*
X0058777Y0137243D01*
X0058838Y0137328D01*
X0058896Y0137416D01*
X0058951Y0137505D01*
X0059002Y0137597D01*
X0059050Y0137690D01*
X0059094Y0137785D01*
X0059134Y0137882D01*
X0059171Y0137980D01*
X0059205Y0138079D01*
X0059234Y0138180D01*
X0059260Y0138281D01*
X0059282Y0138384D01*
X0059300Y0138487D01*
X0059314Y0138591D01*
X0059324Y0138695D01*
X0059331Y0138800D01*
X0059333Y0138904D01*
X0059331Y0139009D01*
X0059326Y0139114D01*
X0059317Y0139218D01*
X0059304Y0139322D01*
X0059286Y0139425D01*
X0059265Y0139528D01*
X0059241Y0139630D01*
X0059212Y0139731D01*
X0059180Y0139830D01*
X0059144Y0139929D01*
X0059104Y0140026D01*
X0059061Y0140121D01*
X0059014Y0140215D01*
X0058963Y0140307D01*
X0058910Y0140397D01*
X0058853Y0140485D01*
X0058792Y0140570D01*
X0058729Y0140654D01*
X0058662Y0140735D01*
X0058593Y0140813D01*
X0058520Y0140889D01*
X0058445Y0140962D01*
X0058367Y0141032D01*
X0058287Y0141099D01*
X0058204Y0141163D01*
X0058118Y0141224D01*
X0058031Y0141282D01*
X0057941Y0141336D01*
X0057850Y0141387D01*
X0057756Y0141434D01*
X0057661Y0141478D01*
X0057564Y0141519D01*
X0057466Y0141555D01*
X0057367Y0141588D01*
X0057266Y0141618D01*
X0057165Y0141643D01*
X0057062Y0141665D01*
X0056959Y0141683D01*
X0056855Y0141697D01*
X0056751Y0141707D01*
X0056646Y0141713D01*
X0056541Y0141715D01*
X0056543Y0141621D01*
X0056646Y0141619D01*
X0056748Y0141613D01*
X0056851Y0141602D01*
X0056953Y0141589D01*
X0057054Y0141571D01*
X0057155Y0141549D01*
X0057255Y0141523D01*
X0057353Y0141494D01*
X0057451Y0141461D01*
X0057547Y0141424D01*
X0057642Y0141384D01*
X0057735Y0141340D01*
X0057826Y0141293D01*
X0057916Y0141242D01*
X0058003Y0141188D01*
X0058089Y0141130D01*
X0058172Y0141069D01*
X0058253Y0141005D01*
X0058331Y0140938D01*
X0058407Y0140869D01*
X0058479Y0140796D01*
X0058550Y0140721D01*
X0058617Y0140643D01*
X0058681Y0140562D01*
X0058742Y0140479D01*
X0058800Y0140394D01*
X0058855Y0140307D01*
X0058906Y0140217D01*
X0058954Y0140126D01*
X0058998Y0140033D01*
X0059039Y0139939D01*
X0059076Y0139843D01*
X0059109Y0139745D01*
X0059139Y0139647D01*
X0059165Y0139547D01*
X0059187Y0139447D01*
X0059205Y0139345D01*
X0059219Y0139243D01*
X0059230Y0139141D01*
X0059236Y0139038D01*
X0059239Y0138935D01*
X0059238Y0138832D01*
X0059232Y0138729D01*
X0059223Y0138627D01*
X0059210Y0138525D01*
X0059194Y0138423D01*
X0059173Y0138322D01*
X0059148Y0138222D01*
X0059120Y0138123D01*
X0059088Y0138025D01*
X0059052Y0137929D01*
X0059013Y0137834D01*
X0058970Y0137740D01*
X0058923Y0137648D01*
X0058873Y0137558D01*
X0058820Y0137470D01*
X0058763Y0137385D01*
X0058703Y0137301D01*
X0058629Y0137358D01*
X0058687Y0137441D01*
X0058743Y0137525D01*
X0058795Y0137612D01*
X0058844Y0137700D01*
X0058889Y0137790D01*
X0058931Y0137882D01*
X0058969Y0137976D01*
X0059004Y0138071D01*
X0059035Y0138167D01*
X0059062Y0138264D01*
X0059085Y0138363D01*
X0059105Y0138462D01*
X0059121Y0138562D01*
X0059133Y0138662D01*
X0059140Y0138763D01*
X0059144Y0138864D01*
X0059145Y0138965D01*
X0059141Y0139066D01*
X0059133Y0139167D01*
X0059121Y0139267D01*
X0059106Y0139367D01*
X0059087Y0139466D01*
X0059063Y0139564D01*
X0059036Y0139662D01*
X0059006Y0139758D01*
X0058971Y0139853D01*
X0058933Y0139947D01*
X0058892Y0140039D01*
X0058846Y0140129D01*
X0058798Y0140218D01*
X0058746Y0140304D01*
X0058690Y0140389D01*
X0058632Y0140471D01*
X0058570Y0140551D01*
X0058505Y0140629D01*
X0058437Y0140704D01*
X0058367Y0140776D01*
X0058293Y0140846D01*
X0058218Y0140912D01*
X0058139Y0140976D01*
X0058058Y0141036D01*
X0057975Y0141094D01*
X0057890Y0141148D01*
X0057802Y0141199D01*
X0057713Y0141246D01*
X0057622Y0141290D01*
X0057529Y0141330D01*
X0057435Y0141367D01*
X0057339Y0141400D01*
X0057243Y0141429D01*
X0057145Y0141455D01*
X0057046Y0141476D01*
X0056947Y0141494D01*
X0056847Y0141508D01*
X0056746Y0141518D01*
X0056645Y0141525D01*
X0056544Y0141527D01*
X0056546Y0141433D01*
X0056645Y0141431D01*
X0056744Y0141424D01*
X0056842Y0141414D01*
X0056940Y0141400D01*
X0057038Y0141382D01*
X0057134Y0141361D01*
X0057230Y0141335D01*
X0057325Y0141306D01*
X0057418Y0141273D01*
X0057510Y0141236D01*
X0057601Y0141196D01*
X0057690Y0141152D01*
X0057777Y0141105D01*
X0057862Y0141054D01*
X0057945Y0141000D01*
X0058026Y0140943D01*
X0058105Y0140883D01*
X0058181Y0140820D01*
X0058255Y0140753D01*
X0058326Y0140684D01*
X0058394Y0140612D01*
X0058459Y0140538D01*
X0058522Y0140461D01*
X0058581Y0140381D01*
X0058637Y0140300D01*
X0058690Y0140216D01*
X0058739Y0140130D01*
X0058785Y0140042D01*
X0058828Y0139953D01*
X0058867Y0139862D01*
X0058902Y0139769D01*
X0058934Y0139675D01*
X0058962Y0139580D01*
X0058986Y0139484D01*
X0059007Y0139387D01*
X0059023Y0139289D01*
X0059036Y0139191D01*
X0059045Y0139092D01*
X0059050Y0138993D01*
X0059051Y0138894D01*
X0059048Y0138795D01*
X0059041Y0138696D01*
X0059031Y0138598D01*
X0059016Y0138500D01*
X0058998Y0138402D01*
X0058976Y0138306D01*
X0058950Y0138210D01*
X0058920Y0138116D01*
X0058887Y0138022D01*
X0058850Y0137930D01*
X0058809Y0137840D01*
X0058765Y0137751D01*
X0058717Y0137664D01*
X0058666Y0137580D01*
X0058612Y0137497D01*
X0058554Y0137416D01*
X0058480Y0137474D01*
X0058536Y0137553D01*
X0058589Y0137634D01*
X0058639Y0137717D01*
X0058685Y0137803D01*
X0058728Y0137890D01*
X0058768Y0137978D01*
X0058803Y0138068D01*
X0058836Y0138160D01*
X0058864Y0138253D01*
X0058889Y0138347D01*
X0058910Y0138441D01*
X0058927Y0138537D01*
X0058940Y0138633D01*
X0058950Y0138730D01*
X0058955Y0138827D01*
X0058957Y0138924D01*
X0058955Y0139021D01*
X0058949Y0139118D01*
X0058939Y0139214D01*
X0058925Y0139310D01*
X0058907Y0139406D01*
X0058886Y0139500D01*
X0058860Y0139594D01*
X0058831Y0139687D01*
X0058799Y0139778D01*
X0058762Y0139868D01*
X0058723Y0139957D01*
X0058679Y0140043D01*
X0058632Y0140128D01*
X0058582Y0140211D01*
X0058529Y0140292D01*
X0058472Y0140371D01*
X0058412Y0140448D01*
X0058349Y0140522D01*
X0058283Y0140593D01*
X0058215Y0140662D01*
X0058144Y0140728D01*
X0058070Y0140791D01*
X0057994Y0140851D01*
X0057915Y0140907D01*
X0057834Y0140961D01*
X0057751Y0141012D01*
X0057666Y0141059D01*
X0057579Y0141102D01*
X0057491Y0141142D01*
X0057401Y0141179D01*
X0057310Y0141212D01*
X0057217Y0141241D01*
X0057124Y0141266D01*
X0057029Y0141288D01*
X0056934Y0141306D01*
X0056838Y0141320D01*
X0056741Y0141330D01*
X0056644Y0141337D01*
X0056547Y0141339D01*
X0056549Y0141245D01*
X0056644Y0141242D01*
X0056738Y0141236D01*
X0056833Y0141226D01*
X0056927Y0141212D01*
X0057020Y0141194D01*
X0057112Y0141172D01*
X0057204Y0141147D01*
X0057294Y0141118D01*
X0057383Y0141085D01*
X0057471Y0141049D01*
X0057557Y0141009D01*
X0057642Y0140965D01*
X0057724Y0140918D01*
X0057805Y0140868D01*
X0057883Y0140815D01*
X0057960Y0140758D01*
X0058033Y0140699D01*
X0058105Y0140636D01*
X0058174Y0140571D01*
X0058240Y0140502D01*
X0058303Y0140432D01*
X0058363Y0140358D01*
X0058420Y0140283D01*
X0058475Y0140204D01*
X0058525Y0140124D01*
X0058573Y0140042D01*
X0058617Y0139958D01*
X0058658Y0139872D01*
X0058695Y0139785D01*
X0058729Y0139696D01*
X0058759Y0139606D01*
X0058785Y0139515D01*
X0058807Y0139423D01*
X0058826Y0139329D01*
X0058841Y0139236D01*
X0058852Y0139141D01*
X0058859Y0139047D01*
X0058863Y0138952D01*
X0058862Y0138857D01*
X0058858Y0138762D01*
X0058850Y0138667D01*
X0058837Y0138573D01*
X0058822Y0138480D01*
X0058802Y0138387D01*
X0058778Y0138295D01*
X0058751Y0138204D01*
X0058720Y0138114D01*
X0058686Y0138026D01*
X0058647Y0137939D01*
X0058606Y0137853D01*
X0058561Y0137770D01*
X0058512Y0137688D01*
X0058461Y0137609D01*
X0058406Y0137531D01*
X0058331Y0137589D01*
X0058385Y0137664D01*
X0058435Y0137742D01*
X0058482Y0137822D01*
X0058526Y0137904D01*
X0058566Y0137987D01*
X0058603Y0138073D01*
X0058637Y0138159D01*
X0058666Y0138247D01*
X0058692Y0138336D01*
X0058714Y0138426D01*
X0058733Y0138517D01*
X0058748Y0138609D01*
X0058759Y0138701D01*
X0058766Y0138793D01*
X0058769Y0138886D01*
X0058768Y0138979D01*
X0058764Y0139071D01*
X0058755Y0139164D01*
X0058743Y0139256D01*
X0058727Y0139347D01*
X0058707Y0139438D01*
X0058684Y0139527D01*
X0058657Y0139616D01*
X0058626Y0139704D01*
X0058591Y0139790D01*
X0058553Y0139874D01*
X0058512Y0139957D01*
X0058467Y0140039D01*
X0058419Y0140118D01*
X0058367Y0140195D01*
X0058313Y0140270D01*
X0058255Y0140343D01*
X0058194Y0140413D01*
X0058131Y0140480D01*
X0058065Y0140545D01*
X0057996Y0140607D01*
X0057924Y0140666D01*
X0057850Y0140723D01*
X0057774Y0140776D01*
X0057696Y0140826D01*
X0057616Y0140872D01*
X0057534Y0140915D01*
X0057450Y0140955D01*
X0057365Y0140991D01*
X0057278Y0141024D01*
X0057190Y0141053D01*
X0057100Y0141078D01*
X0057010Y0141100D01*
X0056919Y0141118D01*
X0056828Y0141132D01*
X0056735Y0141142D01*
X0056643Y0141148D01*
X0056550Y0141151D01*
X0056552Y0141057D01*
X0056642Y0141054D01*
X0056732Y0141048D01*
X0056822Y0141038D01*
X0056912Y0141024D01*
X0057000Y0141006D01*
X0057088Y0140984D01*
X0057175Y0140959D01*
X0057261Y0140930D01*
X0057345Y0140898D01*
X0057428Y0140862D01*
X0057510Y0140822D01*
X0057589Y0140779D01*
X0057667Y0140733D01*
X0057743Y0140684D01*
X0057816Y0140631D01*
X0057888Y0140575D01*
X0057957Y0140517D01*
X0058023Y0140455D01*
X0058087Y0140391D01*
X0058148Y0140324D01*
X0058206Y0140254D01*
X0058261Y0140183D01*
X0058313Y0140109D01*
X0058361Y0140032D01*
X0058407Y0139954D01*
X0058449Y0139874D01*
X0058488Y0139792D01*
X0058523Y0139709D01*
X0058555Y0139624D01*
X0058583Y0139538D01*
X0058607Y0139451D01*
X0058628Y0139363D01*
X0058645Y0139274D01*
X0058658Y0139185D01*
X0058668Y0139095D01*
X0058673Y0139004D01*
X0058675Y0138914D01*
X0058673Y0138823D01*
X0058667Y0138733D01*
X0058657Y0138643D01*
X0058644Y0138554D01*
X0058627Y0138465D01*
X0058606Y0138377D01*
X0058581Y0138290D01*
X0058553Y0138204D01*
X0058521Y0138119D01*
X0058485Y0138036D01*
X0058446Y0137954D01*
X0058404Y0137874D01*
X0058358Y0137796D01*
X0058309Y0137720D01*
X0058257Y0137646D01*
X0058183Y0137704D01*
X0058234Y0137777D01*
X0058283Y0137853D01*
X0058328Y0137931D01*
X0058369Y0138011D01*
X0058407Y0138092D01*
X0058442Y0138175D01*
X0058472Y0138260D01*
X0058499Y0138345D01*
X0058523Y0138432D01*
X0058542Y0138520D01*
X0058558Y0138608D01*
X0058569Y0138698D01*
X0058577Y0138787D01*
X0058581Y0138877D01*
X0058580Y0138967D01*
X0058576Y0139057D01*
X0058568Y0139146D01*
X0058556Y0139235D01*
X0058540Y0139324D01*
X0058520Y0139411D01*
X0058497Y0139498D01*
X0058469Y0139584D01*
X0058438Y0139668D01*
X0058403Y0139751D01*
X0058365Y0139832D01*
X0058323Y0139911D01*
X0058278Y0139989D01*
X0058229Y0140065D01*
X0058177Y0140138D01*
X0058122Y0140209D01*
X0058063Y0140277D01*
X0058002Y0140343D01*
X0057938Y0140406D01*
X0057871Y0140466D01*
X0057802Y0140523D01*
X0057730Y0140578D01*
X0057656Y0140628D01*
X0057580Y0140676D01*
X0057502Y0140720D01*
X0057422Y0140761D01*
X0057340Y0140798D01*
X0057256Y0140832D01*
X0057172Y0140861D01*
X0057085Y0140888D01*
X0056998Y0140910D01*
X0056910Y0140928D01*
X0056822Y0140943D01*
X0056733Y0140953D01*
X0056643Y0140960D01*
X0056553Y0140963D01*
X0056018Y0141803D02*
X0056088Y0140906D01*
X0055998Y0140895D01*
X0055909Y0140880D01*
X0055820Y0140861D01*
X0055733Y0140839D01*
X0055646Y0140813D01*
X0055561Y0140783D01*
X0055477Y0140749D01*
X0055394Y0140712D01*
X0055313Y0140671D01*
X0055234Y0140627D01*
X0055157Y0140580D01*
X0055082Y0140529D01*
X0055009Y0140476D01*
X0054939Y0140419D01*
X0054871Y0140359D01*
X0054806Y0140296D01*
X0054743Y0140231D01*
X0054684Y0140163D01*
X0054627Y0140092D01*
X0054573Y0140019D01*
X0054523Y0139944D01*
X0054476Y0139867D01*
X0054432Y0139788D01*
X0054392Y0139707D01*
X0054355Y0139624D01*
X0054321Y0139540D01*
X0054292Y0139455D01*
X0054266Y0139368D01*
X0054243Y0139280D01*
X0054225Y0139192D01*
X0054210Y0139102D01*
X0054199Y0139013D01*
X0054192Y0138922D01*
X0054189Y0138832D01*
X0054190Y0138741D01*
X0054195Y0138651D01*
X0054203Y0138561D01*
X0054215Y0138471D01*
X0054231Y0138382D01*
X0054251Y0138294D01*
X0054275Y0138207D01*
X0054303Y0138121D01*
X0054334Y0138036D01*
X0053504Y0137689D01*
X0053503Y0137688D01*
X0053465Y0137789D01*
X0053431Y0137891D01*
X0053400Y0137994D01*
X0053373Y0138098D01*
X0053350Y0138203D01*
X0053330Y0138309D01*
X0053314Y0138415D01*
X0053302Y0138522D01*
X0053294Y0138629D01*
X0053290Y0138736D01*
X0053289Y0138844D01*
X0053293Y0138951D01*
X0053300Y0139059D01*
X0053311Y0139166D01*
X0053326Y0139272D01*
X0053344Y0139378D01*
X0053367Y0139483D01*
X0053393Y0139588D01*
X0053422Y0139691D01*
X0053456Y0139793D01*
X0053493Y0139894D01*
X0053534Y0139993D01*
X0053578Y0140091D01*
X0053626Y0140188D01*
X0053677Y0140282D01*
X0053731Y0140375D01*
X0053789Y0140466D01*
X0053850Y0140554D01*
X0053914Y0140641D01*
X0053981Y0140725D01*
X0054051Y0140806D01*
X0054124Y0140886D01*
X0054199Y0140962D01*
X0054278Y0141036D01*
X0054358Y0141106D01*
X0054442Y0141174D01*
X0054528Y0141239D01*
X0054616Y0141301D01*
X0054706Y0141359D01*
X0054798Y0141415D01*
X0054892Y0141467D01*
X0054988Y0141515D01*
X0055086Y0141561D01*
X0055185Y0141602D01*
X0055285Y0141640D01*
X0055387Y0141675D01*
X0055490Y0141706D01*
X0055594Y0141733D01*
X0055699Y0141756D01*
X0055805Y0141776D01*
X0055911Y0141792D01*
X0056018Y0141804D01*
X0056025Y0141710D01*
X0055920Y0141698D01*
X0055815Y0141682D01*
X0055710Y0141662D01*
X0055607Y0141639D01*
X0055504Y0141612D01*
X0055403Y0141581D01*
X0055302Y0141547D01*
X0055203Y0141508D01*
X0055106Y0141467D01*
X0055010Y0141421D01*
X0054915Y0141373D01*
X0054823Y0141321D01*
X0054732Y0141265D01*
X0054644Y0141206D01*
X0054558Y0141145D01*
X0054474Y0141080D01*
X0054392Y0141012D01*
X0054313Y0140941D01*
X0054237Y0140867D01*
X0054163Y0140791D01*
X0054093Y0140712D01*
X0054025Y0140630D01*
X0053960Y0140546D01*
X0053898Y0140460D01*
X0053839Y0140371D01*
X0053784Y0140281D01*
X0053732Y0140188D01*
X0053683Y0140094D01*
X0053638Y0139998D01*
X0053597Y0139900D01*
X0053559Y0139801D01*
X0053524Y0139701D01*
X0053493Y0139599D01*
X0053466Y0139496D01*
X0053443Y0139393D01*
X0053423Y0139288D01*
X0053408Y0139183D01*
X0053396Y0139078D01*
X0053388Y0138972D01*
X0053384Y0138866D01*
X0053383Y0138760D01*
X0053387Y0138654D01*
X0053394Y0138548D01*
X0053405Y0138442D01*
X0053421Y0138337D01*
X0053439Y0138233D01*
X0053462Y0138129D01*
X0053488Y0138026D01*
X0053519Y0137925D01*
X0053552Y0137824D01*
X0053590Y0137725D01*
X0053677Y0137761D01*
X0053640Y0137859D01*
X0053607Y0137958D01*
X0053577Y0138059D01*
X0053551Y0138160D01*
X0053529Y0138263D01*
X0053511Y0138366D01*
X0053497Y0138470D01*
X0053486Y0138574D01*
X0053480Y0138678D01*
X0053477Y0138783D01*
X0053478Y0138888D01*
X0053483Y0138992D01*
X0053492Y0139097D01*
X0053505Y0139200D01*
X0053522Y0139304D01*
X0053542Y0139407D01*
X0053566Y0139508D01*
X0053594Y0139609D01*
X0053626Y0139709D01*
X0053661Y0139808D01*
X0053700Y0139905D01*
X0053743Y0140000D01*
X0053789Y0140095D01*
X0053839Y0140187D01*
X0053891Y0140277D01*
X0053948Y0140365D01*
X0054007Y0140452D01*
X0054070Y0140536D01*
X0054136Y0140617D01*
X0054204Y0140696D01*
X0054276Y0140773D01*
X0054350Y0140846D01*
X0054427Y0140917D01*
X0054507Y0140985D01*
X0054589Y0141050D01*
X0054673Y0141112D01*
X0054760Y0141171D01*
X0054849Y0141227D01*
X0054939Y0141279D01*
X0055032Y0141327D01*
X0055127Y0141373D01*
X0055223Y0141415D01*
X0055320Y0141453D01*
X0055419Y0141487D01*
X0055519Y0141518D01*
X0055620Y0141545D01*
X0055722Y0141569D01*
X0055825Y0141588D01*
X0055928Y0141604D01*
X0056033Y0141616D01*
X0056040Y0141522D01*
X0055937Y0141511D01*
X0055835Y0141495D01*
X0055734Y0141475D01*
X0055633Y0141452D01*
X0055534Y0141425D01*
X0055435Y0141394D01*
X0055338Y0141359D01*
X0055242Y0141321D01*
X0055148Y0141279D01*
X0055055Y0141234D01*
X0054964Y0141185D01*
X0054875Y0141133D01*
X0054788Y0141077D01*
X0054703Y0141018D01*
X0054621Y0140956D01*
X0054541Y0140891D01*
X0054463Y0140823D01*
X0054388Y0140752D01*
X0054316Y0140678D01*
X0054246Y0140602D01*
X0054180Y0140523D01*
X0054116Y0140442D01*
X0054056Y0140358D01*
X0053999Y0140272D01*
X0053945Y0140184D01*
X0053895Y0140094D01*
X0053848Y0140002D01*
X0053804Y0139908D01*
X0053764Y0139813D01*
X0053728Y0139716D01*
X0053695Y0139618D01*
X0053666Y0139519D01*
X0053641Y0139419D01*
X0053620Y0139318D01*
X0053602Y0139217D01*
X0053589Y0139114D01*
X0053579Y0139011D01*
X0053573Y0138908D01*
X0053571Y0138805D01*
X0053573Y0138702D01*
X0053579Y0138599D01*
X0053588Y0138496D01*
X0053602Y0138394D01*
X0053619Y0138292D01*
X0053641Y0138191D01*
X0053666Y0138091D01*
X0053695Y0137992D01*
X0053727Y0137894D01*
X0053763Y0137797D01*
X0053850Y0137833D01*
X0053814Y0137929D01*
X0053783Y0138025D01*
X0053754Y0138123D01*
X0053730Y0138222D01*
X0053710Y0138321D01*
X0053693Y0138422D01*
X0053680Y0138522D01*
X0053671Y0138624D01*
X0053666Y0138725D01*
X0053665Y0138827D01*
X0053668Y0138929D01*
X0053675Y0139030D01*
X0053685Y0139131D01*
X0053700Y0139232D01*
X0053718Y0139332D01*
X0053741Y0139431D01*
X0053767Y0139529D01*
X0053797Y0139626D01*
X0053830Y0139722D01*
X0053867Y0139817D01*
X0053908Y0139910D01*
X0053953Y0140002D01*
X0054001Y0140091D01*
X0054052Y0140179D01*
X0054107Y0140265D01*
X0054165Y0140348D01*
X0054226Y0140430D01*
X0054290Y0140508D01*
X0054357Y0140585D01*
X0054427Y0140658D01*
X0054500Y0140729D01*
X0054576Y0140797D01*
X0054654Y0140862D01*
X0054734Y0140924D01*
X0054817Y0140983D01*
X0054902Y0141039D01*
X0054990Y0141091D01*
X0055079Y0141140D01*
X0055170Y0141185D01*
X0055262Y0141227D01*
X0055356Y0141266D01*
X0055452Y0141300D01*
X0055549Y0141331D01*
X0055647Y0141358D01*
X0055746Y0141382D01*
X0055846Y0141401D01*
X0055946Y0141417D01*
X0056047Y0141429D01*
X0056054Y0141335D01*
X0055955Y0141323D01*
X0055856Y0141308D01*
X0055758Y0141288D01*
X0055661Y0141265D01*
X0055564Y0141238D01*
X0055469Y0141207D01*
X0055375Y0141172D01*
X0055283Y0141134D01*
X0055192Y0141092D01*
X0055103Y0141047D01*
X0055016Y0140998D01*
X0054930Y0140945D01*
X0054847Y0140890D01*
X0054766Y0140831D01*
X0054688Y0140769D01*
X0054612Y0140704D01*
X0054538Y0140636D01*
X0054467Y0140565D01*
X0054400Y0140492D01*
X0054335Y0140415D01*
X0054273Y0140337D01*
X0054214Y0140256D01*
X0054159Y0140172D01*
X0054106Y0140087D01*
X0054058Y0140000D01*
X0054012Y0139911D01*
X0053971Y0139820D01*
X0053932Y0139727D01*
X0053898Y0139633D01*
X0053867Y0139538D01*
X0053840Y0139442D01*
X0053817Y0139344D01*
X0053798Y0139246D01*
X0053782Y0139147D01*
X0053771Y0139048D01*
X0053763Y0138948D01*
X0053759Y0138848D01*
X0053760Y0138748D01*
X0053764Y0138648D01*
X0053772Y0138548D01*
X0053784Y0138449D01*
X0053800Y0138350D01*
X0053820Y0138252D01*
X0053843Y0138155D01*
X0053871Y0138059D01*
X0053902Y0137964D01*
X0053937Y0137870D01*
X0054024Y0137906D01*
X0053989Y0137998D01*
X0053959Y0138092D01*
X0053932Y0138186D01*
X0053909Y0138282D01*
X0053890Y0138379D01*
X0053875Y0138476D01*
X0053864Y0138574D01*
X0053857Y0138672D01*
X0053853Y0138770D01*
X0053854Y0138868D01*
X0053858Y0138967D01*
X0053867Y0139065D01*
X0053879Y0139162D01*
X0053896Y0139259D01*
X0053916Y0139356D01*
X0053940Y0139451D01*
X0053968Y0139545D01*
X0054000Y0139638D01*
X0054035Y0139730D01*
X0054074Y0139821D01*
X0054117Y0139909D01*
X0054163Y0139996D01*
X0054212Y0140081D01*
X0054265Y0140164D01*
X0054322Y0140245D01*
X0054381Y0140323D01*
X0054444Y0140399D01*
X0054509Y0140472D01*
X0054578Y0140543D01*
X0054649Y0140611D01*
X0054723Y0140676D01*
X0054799Y0140738D01*
X0054878Y0140796D01*
X0054959Y0140852D01*
X0055043Y0140904D01*
X0055128Y0140953D01*
X0055215Y0140999D01*
X0055304Y0141041D01*
X0055395Y0141079D01*
X0055487Y0141113D01*
X0055580Y0141144D01*
X0055675Y0141171D01*
X0055770Y0141195D01*
X0055867Y0141214D01*
X0055964Y0141230D01*
X0056062Y0141241D01*
X0056069Y0141147D01*
X0055973Y0141136D01*
X0055878Y0141120D01*
X0055783Y0141101D01*
X0055689Y0141078D01*
X0055597Y0141051D01*
X0055505Y0141020D01*
X0055415Y0140985D01*
X0055326Y0140947D01*
X0055239Y0140905D01*
X0055154Y0140860D01*
X0055070Y0140811D01*
X0054989Y0140759D01*
X0054910Y0140703D01*
X0054833Y0140645D01*
X0054759Y0140583D01*
X0054687Y0140518D01*
X0054618Y0140451D01*
X0054552Y0140380D01*
X0054489Y0140307D01*
X0054429Y0140231D01*
X0054372Y0140153D01*
X0054318Y0140073D01*
X0054268Y0139991D01*
X0054221Y0139906D01*
X0054177Y0139820D01*
X0054137Y0139732D01*
X0054101Y0139642D01*
X0054069Y0139551D01*
X0054040Y0139459D01*
X0054015Y0139366D01*
X0053994Y0139271D01*
X0053977Y0139176D01*
X0053963Y0139081D01*
X0053954Y0138984D01*
X0053948Y0138888D01*
X0053947Y0138791D01*
X0053950Y0138695D01*
X0053956Y0138598D01*
X0053966Y0138502D01*
X0053981Y0138407D01*
X0053999Y0138312D01*
X0054021Y0138218D01*
X0054047Y0138125D01*
X0054077Y0138033D01*
X0054110Y0137942D01*
X0054197Y0137979D01*
X0054165Y0138065D01*
X0054137Y0138154D01*
X0054112Y0138243D01*
X0054091Y0138333D01*
X0054073Y0138424D01*
X0054059Y0138516D01*
X0054050Y0138608D01*
X0054043Y0138700D01*
X0054041Y0138793D01*
X0054042Y0138886D01*
X0054048Y0138978D01*
X0054057Y0139071D01*
X0054070Y0139162D01*
X0054086Y0139253D01*
X0054106Y0139344D01*
X0054130Y0139433D01*
X0054158Y0139522D01*
X0054189Y0139609D01*
X0054224Y0139695D01*
X0054262Y0139779D01*
X0054304Y0139862D01*
X0054349Y0139943D01*
X0054397Y0140022D01*
X0054449Y0140099D01*
X0054503Y0140174D01*
X0054561Y0140247D01*
X0054622Y0140317D01*
X0054685Y0140384D01*
X0054751Y0140449D01*
X0054820Y0140512D01*
X0054891Y0140571D01*
X0054965Y0140627D01*
X0055041Y0140680D01*
X0055119Y0140731D01*
X0055199Y0140777D01*
X0055280Y0140821D01*
X0055364Y0140861D01*
X0055449Y0140898D01*
X0055535Y0140931D01*
X0055623Y0140961D01*
X0055712Y0140987D01*
X0055802Y0141009D01*
X0055893Y0141028D01*
X0055984Y0141043D01*
X0056076Y0141054D01*
X0056084Y0140960D01*
X0055994Y0140949D01*
X0055904Y0140934D01*
X0055815Y0140916D01*
X0055727Y0140893D01*
X0055640Y0140868D01*
X0055554Y0140838D01*
X0055470Y0140805D01*
X0055387Y0140768D01*
X0055306Y0140728D01*
X0055226Y0140685D01*
X0055148Y0140638D01*
X0055072Y0140588D01*
X0054999Y0140535D01*
X0054927Y0140479D01*
X0054858Y0140420D01*
X0054792Y0140358D01*
X0054728Y0140294D01*
X0054667Y0140226D01*
X0054609Y0140157D01*
X0054554Y0140085D01*
X0054502Y0140010D01*
X0054453Y0139934D01*
X0054407Y0139856D01*
X0054365Y0139775D01*
X0054326Y0139693D01*
X0054290Y0139610D01*
X0054258Y0139525D01*
X0054230Y0139439D01*
X0054205Y0139351D01*
X0054184Y0139263D01*
X0054167Y0139174D01*
X0054153Y0139084D01*
X0054143Y0138994D01*
X0054137Y0138904D01*
X0054135Y0138813D01*
X0054137Y0138722D01*
X0054142Y0138632D01*
X0054151Y0138541D01*
X0054164Y0138452D01*
X0054180Y0138362D01*
X0054201Y0138274D01*
X0054225Y0138186D01*
X0054253Y0138100D01*
X0054284Y0138015D01*
X0053757Y0137174D02*
X0054560Y0137582D01*
X0054559Y0137582D02*
X0054603Y0137504D01*
X0054651Y0137428D01*
X0054702Y0137355D01*
X0054757Y0137283D01*
X0054814Y0137215D01*
X0054874Y0137149D01*
X0054938Y0137085D01*
X0055004Y0137025D01*
X0055073Y0136968D01*
X0055144Y0136913D01*
X0055217Y0136862D01*
X0055293Y0136814D01*
X0055371Y0136770D01*
X0055450Y0136729D01*
X0055532Y0136692D01*
X0055615Y0136658D01*
X0055699Y0136629D01*
X0055785Y0136603D01*
X0055872Y0136580D01*
X0055959Y0136562D01*
X0056048Y0136548D01*
X0056136Y0136537D01*
X0056226Y0136531D01*
X0056315Y0136528D01*
X0056405Y0136530D01*
X0056494Y0136535D01*
X0056583Y0136544D01*
X0056672Y0136558D01*
X0056759Y0136575D01*
X0056846Y0136596D01*
X0056932Y0136621D01*
X0057017Y0136650D01*
X0057100Y0136683D01*
X0057182Y0136719D01*
X0057262Y0136759D01*
X0057341Y0136802D01*
X0057417Y0136849D01*
X0057491Y0136899D01*
X0057563Y0136953D01*
X0057632Y0137010D01*
X0057699Y0137069D01*
X0057763Y0137132D01*
X0057824Y0137197D01*
X0057883Y0137265D01*
X0058593Y0136713D01*
X0058593Y0136712D01*
X0058525Y0136631D01*
X0058454Y0136552D01*
X0058380Y0136475D01*
X0058303Y0136402D01*
X0058223Y0136331D01*
X0058141Y0136263D01*
X0058057Y0136198D01*
X0057970Y0136136D01*
X0057881Y0136078D01*
X0057790Y0136023D01*
X0057697Y0135971D01*
X0057603Y0135922D01*
X0057506Y0135878D01*
X0057408Y0135836D01*
X0057308Y0135798D01*
X0057208Y0135764D01*
X0057106Y0135734D01*
X0057002Y0135707D01*
X0056899Y0135685D01*
X0056794Y0135666D01*
X0056688Y0135651D01*
X0056583Y0135639D01*
X0056476Y0135632D01*
X0056370Y0135628D01*
X0056264Y0135629D01*
X0056157Y0135633D01*
X0056051Y0135641D01*
X0055945Y0135653D01*
X0055840Y0135669D01*
X0055736Y0135689D01*
X0055632Y0135712D01*
X0055529Y0135740D01*
X0055427Y0135771D01*
X0055326Y0135805D01*
X0055227Y0135844D01*
X0055129Y0135886D01*
X0055033Y0135931D01*
X0054939Y0135981D01*
X0054846Y0136033D01*
X0054755Y0136089D01*
X0054667Y0136148D01*
X0054581Y0136210D01*
X0054497Y0136276D01*
X0054415Y0136344D01*
X0054336Y0136415D01*
X0054260Y0136490D01*
X0054186Y0136567D01*
X0054116Y0136646D01*
X0054048Y0136728D01*
X0053983Y0136813D01*
X0053922Y0136900D01*
X0053864Y0136989D01*
X0053809Y0137080D01*
X0053757Y0137173D01*
X0053841Y0137216D01*
X0053892Y0137124D01*
X0053946Y0137034D01*
X0054004Y0136947D01*
X0054065Y0136861D01*
X0054129Y0136778D01*
X0054196Y0136698D01*
X0054266Y0136619D01*
X0054339Y0136544D01*
X0054414Y0136471D01*
X0054492Y0136402D01*
X0054573Y0136335D01*
X0054657Y0136271D01*
X0054742Y0136210D01*
X0054830Y0136153D01*
X0054920Y0136099D01*
X0055012Y0136048D01*
X0055105Y0136001D01*
X0055201Y0135957D01*
X0055297Y0135917D01*
X0055396Y0135880D01*
X0055495Y0135848D01*
X0055596Y0135819D01*
X0055698Y0135793D01*
X0055801Y0135772D01*
X0055904Y0135754D01*
X0056008Y0135740D01*
X0056112Y0135730D01*
X0056217Y0135724D01*
X0056322Y0135722D01*
X0056427Y0135724D01*
X0056531Y0135729D01*
X0056636Y0135739D01*
X0056740Y0135752D01*
X0056843Y0135770D01*
X0056946Y0135791D01*
X0057048Y0135816D01*
X0057149Y0135845D01*
X0057249Y0135877D01*
X0057347Y0135913D01*
X0057444Y0135953D01*
X0057540Y0135996D01*
X0057633Y0136043D01*
X0057725Y0136094D01*
X0057815Y0136147D01*
X0057903Y0136205D01*
X0057989Y0136265D01*
X0058073Y0136328D01*
X0058154Y0136395D01*
X0058232Y0136464D01*
X0058308Y0136537D01*
X0058381Y0136612D01*
X0058452Y0136690D01*
X0058519Y0136770D01*
X0058445Y0136828D01*
X0058378Y0136749D01*
X0058309Y0136672D01*
X0058237Y0136598D01*
X0058162Y0136527D01*
X0058084Y0136459D01*
X0058004Y0136394D01*
X0057922Y0136332D01*
X0057837Y0136273D01*
X0057750Y0136217D01*
X0057661Y0136165D01*
X0057570Y0136116D01*
X0057477Y0136071D01*
X0057383Y0136029D01*
X0057287Y0135991D01*
X0057189Y0135956D01*
X0057091Y0135925D01*
X0056991Y0135898D01*
X0056891Y0135875D01*
X0056789Y0135856D01*
X0056687Y0135840D01*
X0056585Y0135828D01*
X0056482Y0135820D01*
X0056378Y0135816D01*
X0056275Y0135816D01*
X0056172Y0135820D01*
X0056069Y0135828D01*
X0055966Y0135840D01*
X0055864Y0135856D01*
X0055763Y0135875D01*
X0055662Y0135898D01*
X0055563Y0135926D01*
X0055464Y0135956D01*
X0055367Y0135991D01*
X0055271Y0136029D01*
X0055176Y0136071D01*
X0055084Y0136117D01*
X0054993Y0136165D01*
X0054904Y0136218D01*
X0054817Y0136273D01*
X0054732Y0136332D01*
X0054649Y0136394D01*
X0054569Y0136460D01*
X0054492Y0136528D01*
X0054417Y0136599D01*
X0054345Y0136673D01*
X0054275Y0136749D01*
X0054209Y0136828D01*
X0054146Y0136910D01*
X0054085Y0136994D01*
X0054028Y0137080D01*
X0053975Y0137168D01*
X0053925Y0137258D01*
X0054008Y0137301D01*
X0054058Y0137212D01*
X0054111Y0137126D01*
X0054167Y0137041D01*
X0054226Y0136959D01*
X0054289Y0136879D01*
X0054355Y0136801D01*
X0054423Y0136726D01*
X0054495Y0136654D01*
X0054569Y0136585D01*
X0054646Y0136518D01*
X0054725Y0136455D01*
X0054807Y0136394D01*
X0054891Y0136337D01*
X0054977Y0136283D01*
X0055065Y0136233D01*
X0055155Y0136186D01*
X0055247Y0136142D01*
X0055340Y0136102D01*
X0055435Y0136066D01*
X0055531Y0136033D01*
X0055629Y0136004D01*
X0055727Y0135979D01*
X0055827Y0135958D01*
X0055927Y0135941D01*
X0056027Y0135927D01*
X0056128Y0135918D01*
X0056230Y0135912D01*
X0056331Y0135910D01*
X0056433Y0135912D01*
X0056534Y0135918D01*
X0056636Y0135928D01*
X0056736Y0135942D01*
X0056836Y0135960D01*
X0056935Y0135981D01*
X0057034Y0136007D01*
X0057131Y0136036D01*
X0057227Y0136069D01*
X0057322Y0136106D01*
X0057415Y0136146D01*
X0057507Y0136190D01*
X0057597Y0136237D01*
X0057685Y0136288D01*
X0057771Y0136342D01*
X0057854Y0136399D01*
X0057936Y0136460D01*
X0058015Y0136524D01*
X0058092Y0136591D01*
X0058166Y0136660D01*
X0058237Y0136733D01*
X0058305Y0136808D01*
X0058371Y0136886D01*
X0058296Y0136943D01*
X0058232Y0136867D01*
X0058165Y0136793D01*
X0058094Y0136722D01*
X0058022Y0136654D01*
X0057946Y0136589D01*
X0057868Y0136526D01*
X0057788Y0136467D01*
X0057705Y0136411D01*
X0057620Y0136359D01*
X0057533Y0136309D01*
X0057444Y0136264D01*
X0057354Y0136221D01*
X0057262Y0136183D01*
X0057168Y0136148D01*
X0057074Y0136116D01*
X0056978Y0136089D01*
X0056881Y0136065D01*
X0056783Y0136045D01*
X0056684Y0136029D01*
X0056585Y0136017D01*
X0056486Y0136009D01*
X0056386Y0136005D01*
X0056286Y0136004D01*
X0056186Y0136008D01*
X0056087Y0136015D01*
X0055988Y0136027D01*
X0055889Y0136042D01*
X0055791Y0136061D01*
X0055694Y0136084D01*
X0055598Y0136111D01*
X0055503Y0136142D01*
X0055409Y0136176D01*
X0055317Y0136214D01*
X0055226Y0136256D01*
X0055137Y0136301D01*
X0055050Y0136350D01*
X0054964Y0136402D01*
X0054881Y0136457D01*
X0054800Y0136516D01*
X0054722Y0136577D01*
X0054646Y0136642D01*
X0054572Y0136710D01*
X0054502Y0136780D01*
X0054434Y0136853D01*
X0054369Y0136929D01*
X0054307Y0137008D01*
X0054249Y0137088D01*
X0054193Y0137171D01*
X0054141Y0137257D01*
X0054092Y0137344D01*
X0054176Y0137386D01*
X0054224Y0137301D01*
X0054275Y0137217D01*
X0054330Y0137136D01*
X0054388Y0137057D01*
X0054449Y0136980D01*
X0054513Y0136906D01*
X0054580Y0136835D01*
X0054650Y0136766D01*
X0054722Y0136700D01*
X0054797Y0136637D01*
X0054875Y0136577D01*
X0054955Y0136520D01*
X0055037Y0136467D01*
X0055121Y0136417D01*
X0055208Y0136370D01*
X0055296Y0136327D01*
X0055385Y0136287D01*
X0055476Y0136251D01*
X0055569Y0136219D01*
X0055663Y0136190D01*
X0055758Y0136165D01*
X0055853Y0136144D01*
X0055950Y0136127D01*
X0056047Y0136114D01*
X0056145Y0136105D01*
X0056242Y0136099D01*
X0056340Y0136098D01*
X0056438Y0136101D01*
X0056536Y0136107D01*
X0056634Y0136117D01*
X0056731Y0136132D01*
X0056827Y0136150D01*
X0056923Y0136172D01*
X0057017Y0136198D01*
X0057111Y0136227D01*
X0057203Y0136261D01*
X0057293Y0136298D01*
X0057383Y0136338D01*
X0057470Y0136382D01*
X0057556Y0136430D01*
X0057640Y0136481D01*
X0057721Y0136535D01*
X0057800Y0136593D01*
X0057877Y0136654D01*
X0057952Y0136718D01*
X0058024Y0136784D01*
X0058093Y0136854D01*
X0058159Y0136926D01*
X0058222Y0137001D01*
X0058148Y0137059D01*
X0058086Y0136985D01*
X0058021Y0136915D01*
X0057953Y0136847D01*
X0057882Y0136781D01*
X0057809Y0136719D01*
X0057733Y0136660D01*
X0057655Y0136604D01*
X0057575Y0136551D01*
X0057492Y0136502D01*
X0057408Y0136456D01*
X0057322Y0136413D01*
X0057234Y0136374D01*
X0057144Y0136339D01*
X0057053Y0136307D01*
X0056961Y0136279D01*
X0056868Y0136255D01*
X0056774Y0136235D01*
X0056680Y0136219D01*
X0056584Y0136206D01*
X0056489Y0136198D01*
X0056393Y0136193D01*
X0056297Y0136192D01*
X0056200Y0136195D01*
X0056105Y0136203D01*
X0056009Y0136214D01*
X0055914Y0136229D01*
X0055820Y0136247D01*
X0055726Y0136270D01*
X0055634Y0136297D01*
X0055543Y0136327D01*
X0055453Y0136361D01*
X0055364Y0136399D01*
X0055278Y0136440D01*
X0055193Y0136485D01*
X0055109Y0136533D01*
X0055028Y0136584D01*
X0054949Y0136639D01*
X0054873Y0136697D01*
X0054798Y0136758D01*
X0054727Y0136822D01*
X0054658Y0136889D01*
X0054592Y0136959D01*
X0054529Y0137032D01*
X0054468Y0137107D01*
X0054411Y0137184D01*
X0054357Y0137264D01*
X0054307Y0137345D01*
X0054260Y0137429D01*
X0054343Y0137472D01*
X0054390Y0137390D01*
X0054439Y0137310D01*
X0054492Y0137232D01*
X0054549Y0137156D01*
X0054608Y0137083D01*
X0054670Y0137013D01*
X0054735Y0136945D01*
X0054803Y0136880D01*
X0054874Y0136817D01*
X0054947Y0136758D01*
X0055023Y0136702D01*
X0055101Y0136649D01*
X0055181Y0136600D01*
X0055263Y0136553D01*
X0055347Y0136511D01*
X0055432Y0136471D01*
X0055519Y0136436D01*
X0055608Y0136404D01*
X0055698Y0136376D01*
X0055789Y0136351D01*
X0055881Y0136331D01*
X0055973Y0136314D01*
X0056067Y0136301D01*
X0056160Y0136292D01*
X0056254Y0136287D01*
X0056349Y0136286D01*
X0056443Y0136289D01*
X0056537Y0136296D01*
X0056630Y0136306D01*
X0056723Y0136321D01*
X0056815Y0136340D01*
X0056907Y0136362D01*
X0056997Y0136388D01*
X0057087Y0136418D01*
X0057175Y0136452D01*
X0057261Y0136489D01*
X0057346Y0136530D01*
X0057429Y0136574D01*
X0057510Y0136622D01*
X0057589Y0136673D01*
X0057666Y0136727D01*
X0057741Y0136785D01*
X0057813Y0136846D01*
X0057882Y0136909D01*
X0057949Y0136976D01*
X0058013Y0137045D01*
X0058074Y0137116D01*
X0057999Y0137174D01*
X0057940Y0137104D01*
X0057877Y0137037D01*
X0057812Y0136972D01*
X0057743Y0136910D01*
X0057673Y0136851D01*
X0057599Y0136795D01*
X0057524Y0136742D01*
X0057446Y0136693D01*
X0057366Y0136647D01*
X0057285Y0136604D01*
X0057201Y0136565D01*
X0057116Y0136530D01*
X0057030Y0136498D01*
X0056942Y0136470D01*
X0056854Y0136445D01*
X0056764Y0136425D01*
X0056673Y0136408D01*
X0056582Y0136395D01*
X0056490Y0136386D01*
X0056398Y0136381D01*
X0056306Y0136380D01*
X0056214Y0136383D01*
X0056122Y0136390D01*
X0056031Y0136400D01*
X0055940Y0136415D01*
X0055850Y0136433D01*
X0055760Y0136456D01*
X0055672Y0136482D01*
X0055585Y0136512D01*
X0055499Y0136545D01*
X0055415Y0136582D01*
X0055332Y0136623D01*
X0055251Y0136667D01*
X0055173Y0136715D01*
X0055096Y0136766D01*
X0055021Y0136820D01*
X0054949Y0136877D01*
X0054880Y0136937D01*
X0054813Y0137001D01*
X0054748Y0137067D01*
X0054687Y0137135D01*
X0054629Y0137207D01*
X0054573Y0137280D01*
X0054521Y0137356D01*
X0054473Y0137434D01*
X0054427Y0137514D01*
X0054511Y0137557D01*
X0054555Y0137479D01*
X0054603Y0137403D01*
X0054654Y0137329D01*
X0054709Y0137257D01*
X0054766Y0137188D01*
X0054826Y0137121D01*
X0054889Y0137057D01*
X0054955Y0136996D01*
X0055024Y0136937D01*
X0055095Y0136882D01*
X0055168Y0136830D01*
X0055244Y0136781D01*
X0055321Y0136736D01*
X0055401Y0136694D01*
X0055482Y0136655D01*
X0055565Y0136620D01*
X0055649Y0136589D01*
X0055735Y0136561D01*
X0055821Y0136537D01*
X0055909Y0136517D01*
X0055998Y0136500D01*
X0056087Y0136488D01*
X0056176Y0136480D01*
X0056266Y0136475D01*
X0056356Y0136474D01*
X0056446Y0136477D01*
X0056535Y0136485D01*
X0056625Y0136496D01*
X0056713Y0136510D01*
X0056801Y0136529D01*
X0056888Y0136552D01*
X0056974Y0136578D01*
X0057059Y0136608D01*
X0057143Y0136642D01*
X0057224Y0136679D01*
X0057305Y0136720D01*
X0057383Y0136764D01*
X0057459Y0136812D01*
X0057533Y0136863D01*
X0057605Y0136917D01*
X0057674Y0136975D01*
X0057741Y0137035D01*
X0057805Y0137098D01*
X0057867Y0137164D01*
X0057925Y0137232D01*
M02*
