G75*
%MOIN*%
%OFA0B0*%
%FSLAX25Y25*%
%IPPOS*%
%LPD*%
%AMOC8*
5,1,8,0,0,1.08239X$1,22.5*
%
%ADD10C,0.00400*%
%ADD11C,0.00500*%
%ADD12C,0.00000*%
%ADD13C,0.00300*%
%ADD14R,0.00770X0.00035*%
%ADD15R,0.01400X0.00035*%
%ADD16R,0.01855X0.00035*%
%ADD17R,0.02170X0.00035*%
%ADD18R,0.02485X0.00035*%
%ADD19R,0.02765X0.00035*%
%ADD20R,0.02975X0.00035*%
%ADD21R,0.03220X0.00035*%
%ADD22R,0.03395X0.00035*%
%ADD23R,0.03605X0.00035*%
%ADD24R,0.03780X0.00035*%
%ADD25R,0.03955X0.00035*%
%ADD26R,0.04130X0.00035*%
%ADD27R,0.04270X0.00035*%
%ADD28R,0.04375X0.00035*%
%ADD29R,0.04550X0.00035*%
%ADD30R,0.04690X0.00035*%
%ADD31R,0.04865X0.00035*%
%ADD32R,0.04970X0.00035*%
%ADD33R,0.05110X0.00035*%
%ADD34R,0.05215X0.00035*%
%ADD35R,0.05355X0.00035*%
%ADD36R,0.05460X0.00035*%
%ADD37R,0.05600X0.00035*%
%ADD38R,0.05705X0.00035*%
%ADD39R,0.05810X0.00035*%
%ADD40R,0.05915X0.00035*%
%ADD41R,0.06055X0.00035*%
%ADD42R,0.06160X0.00035*%
%ADD43R,0.06265X0.00035*%
%ADD44R,0.06335X0.00035*%
%ADD45R,0.06440X0.00035*%
%ADD46R,0.06545X0.00035*%
%ADD47R,0.03080X0.00035*%
%ADD48R,0.02660X0.00035*%
%ADD49R,0.02870X0.00035*%
%ADD50R,0.02415X0.00035*%
%ADD51R,0.02730X0.00035*%
%ADD52R,0.02310X0.00035*%
%ADD53R,0.02695X0.00035*%
%ADD54R,0.02170X0.00035*%
%ADD55R,0.02590X0.00035*%
%ADD56R,0.02100X0.00035*%
%ADD57R,0.02520X0.00035*%
%ADD58R,0.02030X0.00035*%
%ADD59R,0.02450X0.00035*%
%ADD60R,0.01960X0.00035*%
%ADD61R,0.01890X0.00035*%
%ADD62R,0.02380X0.00035*%
%ADD63R,0.01785X0.00035*%
%ADD64R,0.01750X0.00035*%
%ADD65R,0.01715X0.00035*%
%ADD66R,0.02275X0.00035*%
%ADD67R,0.01645X0.00035*%
%ADD68R,0.02240X0.00035*%
%ADD69R,0.01610X0.00035*%
%ADD70R,0.02240X0.00035*%
%ADD71R,0.01575X0.00035*%
%ADD72R,0.01540X0.00035*%
%ADD73R,0.02205X0.00035*%
%ADD74R,0.01505X0.00035*%
%ADD75R,0.01470X0.00035*%
%ADD76R,0.01435X0.00035*%
%ADD77R,0.01365X0.00035*%
%ADD78R,0.01330X0.00035*%
%ADD79R,0.01295X0.00035*%
%ADD80R,0.01295X0.00035*%
%ADD81R,0.01260X0.00035*%
%ADD82R,0.01190X0.00035*%
%ADD83R,0.01225X0.00035*%
%ADD84R,0.00385X0.00035*%
%ADD85R,0.00980X0.00035*%
%ADD86R,0.01155X0.00035*%
%ADD87R,0.01645X0.00035*%
%ADD88R,0.01015X0.00035*%
%ADD89R,0.01050X0.00035*%
%ADD90R,0.02345X0.00035*%
%ADD91R,0.01085X0.00035*%
%ADD92R,0.02905X0.00035*%
%ADD93R,0.03045X0.00035*%
%ADD94R,0.01120X0.00035*%
%ADD95R,0.02345X0.00035*%
%ADD96R,0.03255X0.00035*%
%ADD97R,0.01120X0.00035*%
%ADD98R,0.03500X0.00035*%
%ADD99R,0.02415X0.00035*%
%ADD100R,0.03640X0.00035*%
%ADD101R,0.04900X0.00035*%
%ADD102R,0.04935X0.00035*%
%ADD103R,0.05005X0.00035*%
%ADD104R,0.01680X0.00035*%
%ADD105R,0.02065X0.00035*%
%ADD106R,0.02555X0.00035*%
%ADD107R,0.02590X0.00035*%
%ADD108R,0.02625X0.00035*%
%ADD109R,0.02695X0.00035*%
%ADD110R,0.01470X0.00035*%
%ADD111R,0.02765X0.00035*%
%ADD112R,0.02800X0.00035*%
%ADD113R,0.02835X0.00035*%
%ADD114R,0.01365X0.00035*%
%ADD115R,0.02940X0.00035*%
%ADD116R,0.03010X0.00035*%
%ADD117R,0.03045X0.00035*%
%ADD118R,0.03115X0.00035*%
%ADD119R,0.03150X0.00035*%
%ADD120R,0.03185X0.00035*%
%ADD121R,0.03220X0.00035*%
%ADD122R,0.01190X0.00035*%
%ADD123R,0.03290X0.00035*%
%ADD124R,0.03325X0.00035*%
%ADD125R,0.03360X0.00035*%
%ADD126R,0.03430X0.00035*%
%ADD127R,0.03465X0.00035*%
%ADD128R,0.03535X0.00035*%
%ADD129R,0.03570X0.00035*%
%ADD130R,0.03675X0.00035*%
%ADD131R,0.03710X0.00035*%
%ADD132R,0.03745X0.00035*%
%ADD133R,0.03815X0.00035*%
%ADD134R,0.03850X0.00035*%
%ADD135R,0.03885X0.00035*%
%ADD136R,0.03920X0.00035*%
%ADD137R,0.03990X0.00035*%
%ADD138R,0.04025X0.00035*%
%ADD139R,0.02870X0.00035*%
%ADD140R,0.04095X0.00035*%
%ADD141R,0.04165X0.00035*%
%ADD142R,0.04200X0.00035*%
%ADD143R,0.04235X0.00035*%
%ADD144R,0.04270X0.00035*%
%ADD145R,0.01820X0.00035*%
%ADD146R,0.04305X0.00035*%
%ADD147R,0.04340X0.00035*%
%ADD148R,0.01925X0.00035*%
%ADD149R,0.04410X0.00035*%
%ADD150R,0.00945X0.00035*%
%ADD151R,0.00875X0.00035*%
%ADD152R,0.00840X0.00035*%
%ADD153R,0.02135X0.00035*%
%ADD154R,0.00805X0.00035*%
%ADD155R,0.00735X0.00035*%
%ADD156R,0.01995X0.00035*%
%ADD157R,0.02520X0.00035*%
%ADD158R,0.01540X0.00035*%
%ADD159R,0.00770X0.00035*%
%ADD160R,0.00665X0.00035*%
%ADD161R,0.00420X0.00035*%
%ADD162R,0.00910X0.00035*%
%ADD163R,0.04060X0.00035*%
%ADD164R,0.01015X0.00035*%
%ADD165R,0.03115X0.00035*%
%ADD166R,0.03395X0.00035*%
%ADD167R,0.03745X0.00035*%
%ADD168R,0.04340X0.00035*%
%ADD169R,0.04480X0.00035*%
%ADD170R,0.02065X0.00035*%
%ADD171R,0.04515X0.00035*%
%ADD172R,0.04585X0.00035*%
%ADD173R,0.04760X0.00035*%
%ADD174R,0.04830X0.00035*%
%ADD175R,0.07805X0.00035*%
%ADD176R,0.07840X0.00035*%
%ADD177R,0.07875X0.00035*%
%ADD178R,0.07910X0.00035*%
%ADD179R,0.07945X0.00035*%
%ADD180R,0.07980X0.00035*%
%ADD181R,0.08015X0.00035*%
%ADD182R,0.08050X0.00035*%
%ADD183R,0.05635X0.00035*%
%ADD184R,0.01995X0.00035*%
%ADD185R,0.01890X0.00035*%
%ADD186R,0.01715X0.00035*%
%ADD187R,0.00945X0.00035*%
%ADD188R,0.00560X0.00035*%
%ADD189R,0.01820X0.00035*%
%ADD190R,0.00700X0.00035*%
%ADD191R,0.00630X0.00035*%
%ADD192R,0.00525X0.00035*%
%ADD193R,0.00175X0.00035*%
%ADD194R,0.00595X0.00035*%
%ADD195R,0.00490X0.00035*%
%ADD196R,0.00210X0.00035*%
%ADD197R,0.00490X0.00035*%
%ADD198R,0.00315X0.00035*%
%ADD199R,0.00520X0.00040*%
%ADD200R,0.00520X0.00040*%
%ADD201R,0.00760X0.00040*%
%ADD202R,0.00640X0.00040*%
%ADD203R,0.00440X0.00040*%
%ADD204R,0.00480X0.00040*%
%ADD205R,0.00520X0.00040*%
%ADD206R,0.00520X0.00040*%
%ADD207R,0.01400X0.00040*%
%ADD208R,0.00800X0.00040*%
%ADD209R,0.00480X0.00040*%
%ADD210R,0.00960X0.00040*%
%ADD211R,0.01440X0.00040*%
%ADD212R,0.01080X0.00040*%
%ADD213R,0.01520X0.00040*%
%ADD214R,0.01440X0.00040*%
%ADD215R,0.00560X0.00040*%
%ADD216R,0.01480X0.00040*%
%ADD217R,0.01200X0.00040*%
%ADD218R,0.01560X0.00040*%
%ADD219R,0.01320X0.00040*%
%ADD220R,0.01560X0.00040*%
%ADD221R,0.01520X0.00040*%
%ADD222R,0.00600X0.00040*%
%ADD223R,0.00560X0.00040*%
%ADD224R,0.01400X0.00040*%
%ADD225R,0.01600X0.00040*%
%ADD226R,0.00600X0.00040*%
%ADD227R,0.00640X0.00040*%
%ADD228R,0.01640X0.00040*%
%ADD229R,0.00680X0.00040*%
%ADD230R,0.01680X0.00040*%
%ADD231R,0.01680X0.00040*%
%ADD232R,0.01640X0.00040*%
%ADD233R,0.00720X0.00040*%
%ADD234R,0.01480X0.00040*%
%ADD235R,0.00760X0.00040*%
%ADD236R,0.00720X0.00040*%
%ADD237R,0.00640X0.00040*%
%ADD238R,0.00360X0.00040*%
%ADD239R,0.00240X0.00040*%
%ADD240R,0.00160X0.00040*%
%ADD241R,0.00840X0.00040*%
%ADD242R,0.00080X0.00040*%
%ADD243R,0.00880X0.00040*%
%ADD244R,0.00920X0.00040*%
%ADD245R,0.00960X0.00040*%
%ADD246R,0.01640X0.00040*%
%ADD247R,0.01760X0.00040*%
%ADD248R,0.00440X0.00040*%
%ADD249R,0.01000X0.00040*%
%ADD250R,0.01760X0.00040*%
%ADD251R,0.00440X0.00040*%
%ADD252R,0.01320X0.00040*%
%ADD253R,0.01200X0.00040*%
%ADD254R,0.00920X0.00040*%
%ADD255R,0.00840X0.00040*%
%ADD256R,0.00800X0.00040*%
%ADD257R,0.00080X0.00040*%
%ADD258R,0.00120X0.00040*%
%ADD259R,0.00240X0.00040*%
%ADD260R,0.00720X0.00040*%
%ADD261R,0.00200X0.00040*%
%ADD262R,0.00400X0.00040*%
%ADD263R,0.01240X0.00040*%
%ADD264R,0.01640X0.00040*%
%ADD265R,0.01440X0.00040*%
%ADD266R,0.01280X0.00040*%
%ADD267R,0.01520X0.00040*%
%ADD268R,0.01280X0.00040*%
%ADD269R,0.01520X0.00040*%
%ADD270R,0.01360X0.00040*%
%ADD271R,0.01440X0.00040*%
%ADD272R,0.01240X0.00040*%
%ADD273R,0.01120X0.00040*%
%ADD274R,0.01240X0.00040*%
%ADD275R,0.01040X0.00040*%
%ADD276R,0.00840X0.00040*%
%ADD277R,0.00440X0.00040*%
%ADD278R,0.00400X0.00040*%
%ADD279R,0.00320X0.00040*%
%ADD280R,0.00920X0.00040*%
%ADD281R,0.01040X0.00040*%
%ADD282R,0.01000X0.00040*%
%ADD283R,0.01080X0.00040*%
%ADD284R,0.01160X0.00040*%
%ADD285R,0.01040X0.00040*%
%ADD286R,0.01160X0.00040*%
%ADD287R,0.01600X0.00040*%
%ADD288R,0.01720X0.00040*%
%ADD289R,0.01720X0.00040*%
%ADD290R,0.00640X0.00040*%
%ADD291R,0.00680X0.00040*%
%ADD292R,0.00360X0.00040*%
%ADD293R,0.00280X0.00040*%
%ADD294R,0.00120X0.00040*%
%ADD295R,0.00040X0.00040*%
%ADD296R,0.00040X0.00040*%
%ADD297R,0.01320X0.00040*%
%ADD298R,0.00280X0.00040*%
%ADD299R,0.00320X0.00040*%
%ADD300R,0.01320X0.00040*%
%ADD301R,0.01120X0.00040*%
%ADD302R,0.01120X0.00040*%
%ADD303R,0.01800X0.00040*%
%ADD304R,0.01920X0.00040*%
%ADD305R,0.01920X0.00040*%
%ADD306R,0.02000X0.00040*%
%ADD307R,0.02120X0.00040*%
%ADD308R,0.02200X0.00040*%
%ADD309R,0.02320X0.00040*%
%ADD310R,0.02400X0.00040*%
%ADD311R,0.02520X0.00040*%
%ADD312R,0.02600X0.00040*%
%ADD313R,0.00880X0.00040*%
%ADD314R,0.03680X0.00040*%
%ADD315R,0.03720X0.00040*%
%ADD316R,0.03800X0.00040*%
%ADD317R,0.03840X0.00040*%
%ADD318R,0.03840X0.00040*%
%ADD319R,0.03920X0.00040*%
%ADD320R,0.03960X0.00040*%
%ADD321R,0.04000X0.00040*%
%ADD322R,0.04080X0.00040*%
%ADD323R,0.04120X0.00040*%
%ADD324R,0.04160X0.00040*%
%ADD325R,0.04200X0.00040*%
%ADD326R,0.04200X0.00040*%
%ADD327R,0.04160X0.00040*%
%ADD328R,0.04120X0.00040*%
%ADD329R,0.04080X0.00040*%
%ADD330R,0.04040X0.00040*%
%ADD331R,0.04040X0.00040*%
%ADD332R,0.04040X0.00040*%
%ADD333R,0.04040X0.00040*%
%ADD334R,0.03960X0.00040*%
%ADD335R,0.03920X0.00040*%
%ADD336R,0.03920X0.00040*%
%ADD337R,0.03880X0.00040*%
%ADD338R,0.03920X0.00040*%
%ADD339R,0.03880X0.00040*%
%ADD340R,0.03800X0.00040*%
%ADD341R,0.04240X0.00040*%
%ADD342R,0.04240X0.00040*%
%ADD343R,0.04280X0.00040*%
%ADD344R,0.04360X0.00040*%
%ADD345R,0.04400X0.00040*%
%ADD346R,0.04440X0.00040*%
%ADD347R,0.04520X0.00040*%
%ADD348R,0.04520X0.00040*%
%ADD349R,0.04520X0.00040*%
%ADD350R,0.04520X0.00040*%
%ADD351R,0.04480X0.00040*%
%ADD352R,0.04440X0.00040*%
%ADD353R,0.04400X0.00040*%
%ADD354R,0.04360X0.00040*%
%ADD355R,0.04320X0.00040*%
%ADD356R,0.04240X0.00040*%
%ADD357R,0.04320X0.00040*%
%ADD358R,0.04320X0.00040*%
%ADD359R,0.04560X0.00040*%
%ADD360R,0.04720X0.00040*%
%ADD361R,0.04920X0.00040*%
%ADD362R,0.04920X0.00040*%
%ADD363R,0.05080X0.00040*%
%ADD364R,0.05240X0.00040*%
%ADD365R,0.05240X0.00040*%
%ADD366R,0.05480X0.00040*%
%ADD367R,0.05640X0.00040*%
%ADD368R,0.05640X0.00040*%
%ADD369R,0.05680X0.00040*%
%ADD370R,0.05640X0.00040*%
%ADD371R,0.05600X0.00040*%
%ADD372R,0.05600X0.00040*%
%ADD373R,0.05560X0.00040*%
%ADD374R,0.05520X0.00040*%
%ADD375R,0.05520X0.00040*%
%ADD376R,0.05480X0.00040*%
%ADD377R,0.05440X0.00040*%
%ADD378R,0.05440X0.00040*%
%ADD379R,0.05560X0.00040*%
%ADD380R,0.05680X0.00040*%
%ADD381R,0.05440X0.00040*%
%ADD382R,0.05280X0.00040*%
%ADD383R,0.04920X0.00040*%
%ADD384R,0.04600X0.00040*%
%ADD385R,0.04840X0.00040*%
%ADD386R,0.10440X0.00040*%
%ADD387R,0.10360X0.00040*%
%ADD388R,0.10360X0.00040*%
%ADD389R,0.10280X0.00040*%
%ADD390R,0.10200X0.00040*%
%ADD391R,0.10200X0.00040*%
%ADD392R,0.10120X0.00040*%
%ADD393R,0.10040X0.00040*%
%ADD394R,0.10040X0.00040*%
%ADD395R,0.09960X0.00040*%
%ADD396R,0.09880X0.00040*%
%ADD397R,0.09880X0.00040*%
%ADD398R,0.09800X0.00040*%
%ADD399R,0.09720X0.00040*%
%ADD400R,0.09720X0.00040*%
%ADD401R,0.10280X0.00040*%
%ADD402R,0.10520X0.00040*%
%ADD403R,0.10520X0.00040*%
%ADD404R,0.10600X0.00040*%
%ADD405R,0.10680X0.00040*%
%ADD406R,0.10760X0.00040*%
%ADD407R,0.10840X0.00040*%
%ADD408R,0.10920X0.00040*%
%ADD409R,0.11000X0.00040*%
%ADD410R,0.11080X0.00040*%
%ADD411R,0.11080X0.00040*%
%ADD412R,0.11160X0.00040*%
%ADD413R,0.11240X0.00040*%
%ADD414R,0.11320X0.00040*%
%ADD415R,0.11400X0.00040*%
%ADD416R,0.11400X0.00040*%
%ADD417R,0.11480X0.00040*%
%ADD418R,0.11560X0.00040*%
%ADD419R,0.11640X0.00040*%
%ADD420R,0.11640X0.00040*%
%ADD421R,0.11720X0.00040*%
%ADD422R,0.11800X0.00040*%
%ADD423R,0.11880X0.00040*%
%ADD424R,0.11880X0.00040*%
%ADD425R,0.11960X0.00040*%
%ADD426R,0.11720X0.00040*%
%ADD427R,0.11320X0.00040*%
%ADD428R,0.02760X0.00040*%
%ADD429R,0.05400X0.00040*%
%ADD430R,0.02640X0.00040*%
%ADD431R,0.05160X0.00040*%
%ADD432R,0.02560X0.00040*%
%ADD433R,0.05000X0.00040*%
%ADD434R,0.02440X0.00040*%
%ADD435R,0.04760X0.00040*%
%ADD436R,0.02440X0.00040*%
%ADD437R,0.02360X0.00040*%
%ADD438R,0.04600X0.00040*%
%ADD439R,0.02280X0.00040*%
%ADD440R,0.02240X0.00040*%
%ADD441R,0.02160X0.00040*%
%ADD442R,0.02080X0.00040*%
%ADD443R,0.01960X0.00040*%
%ADD444R,0.01880X0.00040*%
%ADD445R,0.03640X0.00040*%
%ADD446R,0.03400X0.00040*%
%ADD447R,0.03240X0.00040*%
%ADD448R,0.03000X0.00040*%
%ADD449R,0.02920X0.00040*%
%ADD450R,0.01360X0.00040*%
%ADD451R,0.02840X0.00040*%
%ADD452R,0.02840X0.00040*%
%ADD453R,0.02760X0.00040*%
%ADD454R,0.02680X0.00040*%
%ADD455R,0.02680X0.00040*%
%ADD456R,0.02600X0.00040*%
%ADD457R,0.02520X0.00040*%
%ADD458R,0.02520X0.00040*%
%ADD459R,0.02440X0.00040*%
%ADD460R,0.02360X0.00040*%
%ADD461R,0.02280X0.00040*%
%ADD462R,0.02200X0.00040*%
%ADD463R,0.02120X0.00040*%
D10*
X0009200Y0076700D02*
X0009200Y0081304D01*
X0011502Y0081304D01*
X0012269Y0080537D01*
X0012269Y0079002D01*
X0011502Y0078235D01*
X0009200Y0078235D01*
X0010735Y0078235D02*
X0012269Y0076700D01*
X0013804Y0077467D02*
X0013804Y0079002D01*
X0014571Y0079769D01*
X0016106Y0079769D01*
X0016873Y0079002D01*
X0016873Y0078235D01*
X0013804Y0078235D01*
X0013804Y0077467D02*
X0014571Y0076700D01*
X0016106Y0076700D01*
X0018408Y0079769D02*
X0019942Y0076700D01*
X0021477Y0079769D01*
X0023012Y0077467D02*
X0023779Y0077467D01*
X0023779Y0076700D01*
X0023012Y0076700D01*
X0023012Y0077467D01*
X0025314Y0076700D02*
X0025314Y0081304D01*
X0027616Y0081304D01*
X0028383Y0080537D01*
X0028383Y0079769D01*
X0027616Y0079002D01*
X0025314Y0079002D01*
X0025314Y0076700D02*
X0027616Y0076700D01*
X0028383Y0077467D01*
X0028383Y0078235D01*
X0027616Y0079002D01*
X0029918Y0079002D02*
X0029918Y0077467D01*
X0030685Y0076700D01*
X0032220Y0076700D01*
X0032987Y0078235D02*
X0032987Y0079002D01*
X0032220Y0079769D01*
X0030685Y0079769D01*
X0029918Y0079002D01*
X0029918Y0078235D02*
X0032987Y0078235D01*
X0034522Y0079769D02*
X0036056Y0079769D01*
X0035289Y0080537D02*
X0035289Y0077467D01*
X0036056Y0076700D01*
X0037591Y0077467D02*
X0038358Y0078235D01*
X0040660Y0078235D01*
X0040660Y0079002D02*
X0040660Y0076700D01*
X0038358Y0076700D01*
X0037591Y0077467D01*
X0038358Y0079769D02*
X0039893Y0079769D01*
X0040660Y0079002D01*
X0039893Y0084200D02*
X0039893Y0088804D01*
X0042195Y0088804D01*
X0042962Y0088037D01*
X0042962Y0086502D01*
X0042195Y0085735D01*
X0039893Y0085735D01*
X0038358Y0084967D02*
X0038358Y0088037D01*
X0037591Y0088804D01*
X0036056Y0088804D01*
X0035289Y0088037D01*
X0035289Y0084967D01*
X0036056Y0084200D01*
X0037591Y0084200D01*
X0038358Y0084967D01*
X0041427Y0085735D02*
X0042962Y0084200D01*
X0033754Y0088804D02*
X0030685Y0088804D01*
X0032220Y0088804D02*
X0032220Y0084200D01*
X0029150Y0084200D02*
X0029150Y0087269D01*
X0027616Y0088804D01*
X0026081Y0087269D01*
X0026081Y0084200D01*
X0024546Y0084200D02*
X0023012Y0085735D01*
X0023779Y0085735D02*
X0021477Y0085735D01*
X0021477Y0084200D02*
X0021477Y0088804D01*
X0023779Y0088804D01*
X0024546Y0088037D01*
X0024546Y0086502D01*
X0023779Y0085735D01*
X0026081Y0086502D02*
X0029150Y0086502D01*
X0019942Y0087269D02*
X0019175Y0086502D01*
X0016873Y0086502D01*
X0016873Y0084200D02*
X0016873Y0088804D01*
X0019175Y0088804D01*
X0019942Y0088037D01*
X0019942Y0087269D01*
X0019175Y0086502D02*
X0019942Y0085735D01*
X0019942Y0084967D01*
X0019175Y0084200D01*
X0016873Y0084200D01*
X0015339Y0084200D02*
X0013804Y0084200D01*
X0014571Y0084200D02*
X0014571Y0088804D01*
X0013804Y0088804D02*
X0015339Y0088804D01*
X0012269Y0088804D02*
X0012269Y0085735D01*
X0010735Y0084200D01*
X0009200Y0085735D01*
X0009200Y0088804D01*
X0099200Y0089002D02*
X0100735Y0089002D01*
X0099200Y0091304D02*
X0102269Y0091304D01*
X0104571Y0089769D02*
X0106106Y0089769D01*
X0106873Y0089002D01*
X0106873Y0086700D01*
X0104571Y0086700D01*
X0103804Y0087467D01*
X0104571Y0088235D01*
X0106873Y0088235D01*
X0108408Y0089002D02*
X0110710Y0089002D01*
X0111477Y0088235D01*
X0111477Y0087467D01*
X0110710Y0086700D01*
X0108408Y0086700D01*
X0108408Y0091304D01*
X0110710Y0091304D01*
X0111477Y0090537D01*
X0111477Y0089769D01*
X0110710Y0089002D01*
X0113012Y0089002D02*
X0113012Y0087467D01*
X0113779Y0086700D01*
X0115314Y0086700D01*
X0116081Y0087467D01*
X0116081Y0089002D01*
X0115314Y0089769D01*
X0113779Y0089769D01*
X0113012Y0089002D01*
X0099200Y0086700D02*
X0099200Y0091304D01*
D11*
X0066437Y0137063D02*
X0066437Y0150843D01*
X0056594Y0150843D01*
X0056594Y0137063D01*
X0066437Y0137063D01*
X0081185Y0037750D02*
X0041815Y0037750D01*
X0041815Y0001500D01*
X0081185Y0001500D02*
X0081185Y0037750D01*
D12*
X0001500Y0016500D02*
X0001500Y0116500D01*
X0001518Y0117961D01*
X0001571Y0119421D01*
X0001660Y0120880D01*
X0001784Y0122336D01*
X0001944Y0123788D01*
X0002139Y0125236D01*
X0002370Y0126679D01*
X0002635Y0128116D01*
X0002935Y0129546D01*
X0003270Y0130968D01*
X0003640Y0132382D01*
X0004044Y0133786D01*
X0004482Y0135180D01*
X0004954Y0136563D01*
X0005459Y0137934D01*
X0005998Y0139292D01*
X0006569Y0140637D01*
X0007173Y0141967D01*
X0007809Y0143283D01*
X0008477Y0144582D01*
X0009177Y0145865D01*
X0009908Y0147130D01*
X0010669Y0148378D01*
X0011460Y0149606D01*
X0012281Y0150815D01*
X0013131Y0152003D01*
X0014010Y0153170D01*
X0014917Y0154316D01*
X0015852Y0155439D01*
X0016814Y0156539D01*
X0017802Y0157615D01*
X0018816Y0158667D01*
X0019856Y0159694D01*
X0020920Y0160695D01*
X0022008Y0161671D01*
X0023120Y0162619D01*
X0024254Y0163540D01*
X0025411Y0164433D01*
X0026588Y0165297D01*
X0027787Y0166133D01*
X0029006Y0166939D01*
X0030244Y0167716D01*
X0031500Y0168462D01*
X0032774Y0169177D01*
X0034065Y0169861D01*
X0035373Y0170513D01*
X0036696Y0171133D01*
X0038034Y0171721D01*
X0039385Y0172276D01*
X0040750Y0172798D01*
X0042127Y0173286D01*
X0043516Y0173741D01*
X0044915Y0174162D01*
X0046324Y0174549D01*
X0047742Y0174901D01*
X0049168Y0175219D01*
X0050602Y0175502D01*
X0052042Y0175750D01*
X0053487Y0175963D01*
X0054938Y0176140D01*
X0056392Y0176282D01*
X0057849Y0176389D01*
X0059309Y0176460D01*
X0060769Y0176496D01*
X0062231Y0176496D01*
X0063691Y0176460D01*
X0065151Y0176389D01*
X0066608Y0176282D01*
X0068062Y0176140D01*
X0069513Y0175963D01*
X0070958Y0175750D01*
X0072398Y0175502D01*
X0073832Y0175219D01*
X0075258Y0174901D01*
X0076676Y0174549D01*
X0078085Y0174162D01*
X0079484Y0173741D01*
X0080873Y0173286D01*
X0082250Y0172798D01*
X0083615Y0172276D01*
X0084966Y0171721D01*
X0086304Y0171133D01*
X0087627Y0170513D01*
X0088935Y0169861D01*
X0090226Y0169177D01*
X0091500Y0168462D01*
X0092756Y0167716D01*
X0093994Y0166939D01*
X0095213Y0166133D01*
X0096412Y0165297D01*
X0097589Y0164433D01*
X0098746Y0163540D01*
X0099880Y0162619D01*
X0100992Y0161671D01*
X0102080Y0160695D01*
X0103144Y0159694D01*
X0104184Y0158667D01*
X0105198Y0157615D01*
X0106186Y0156539D01*
X0107148Y0155439D01*
X0108083Y0154316D01*
X0108990Y0153170D01*
X0109869Y0152003D01*
X0110719Y0150815D01*
X0111540Y0149606D01*
X0112331Y0148378D01*
X0113092Y0147130D01*
X0113823Y0145865D01*
X0114523Y0144582D01*
X0115191Y0143283D01*
X0115827Y0141967D01*
X0116431Y0140637D01*
X0117002Y0139292D01*
X0117541Y0137934D01*
X0118046Y0136563D01*
X0118518Y0135180D01*
X0118956Y0133786D01*
X0119360Y0132382D01*
X0119730Y0130968D01*
X0120065Y0129546D01*
X0120365Y0128116D01*
X0120630Y0126679D01*
X0120861Y0125236D01*
X0121056Y0123788D01*
X0121216Y0122336D01*
X0121340Y0120880D01*
X0121429Y0119421D01*
X0121482Y0117961D01*
X0121500Y0116500D01*
X0121500Y0016500D01*
X0121496Y0016138D01*
X0121482Y0015775D01*
X0121461Y0015413D01*
X0121430Y0015052D01*
X0121391Y0014692D01*
X0121343Y0014333D01*
X0121286Y0013975D01*
X0121221Y0013618D01*
X0121147Y0013263D01*
X0121064Y0012910D01*
X0120973Y0012559D01*
X0120874Y0012211D01*
X0120766Y0011865D01*
X0120650Y0011521D01*
X0120525Y0011181D01*
X0120393Y0010844D01*
X0120252Y0010510D01*
X0120103Y0010179D01*
X0119946Y0009852D01*
X0119782Y0009529D01*
X0119610Y0009210D01*
X0119430Y0008896D01*
X0119242Y0008585D01*
X0119047Y0008280D01*
X0118845Y0007979D01*
X0118635Y0007683D01*
X0118419Y0007393D01*
X0118195Y0007107D01*
X0117965Y0006827D01*
X0117728Y0006553D01*
X0117484Y0006285D01*
X0117234Y0006022D01*
X0116978Y0005766D01*
X0116715Y0005516D01*
X0116447Y0005272D01*
X0116173Y0005035D01*
X0115893Y0004805D01*
X0115607Y0004581D01*
X0115317Y0004365D01*
X0115021Y0004155D01*
X0114720Y0003953D01*
X0114415Y0003758D01*
X0114104Y0003570D01*
X0113790Y0003390D01*
X0113471Y0003218D01*
X0113148Y0003054D01*
X0112821Y0002897D01*
X0112490Y0002748D01*
X0112156Y0002607D01*
X0111819Y0002475D01*
X0111479Y0002350D01*
X0111135Y0002234D01*
X0110789Y0002126D01*
X0110441Y0002027D01*
X0110090Y0001936D01*
X0109737Y0001853D01*
X0109382Y0001779D01*
X0109025Y0001714D01*
X0108667Y0001657D01*
X0108308Y0001609D01*
X0107948Y0001570D01*
X0107587Y0001539D01*
X0107225Y0001518D01*
X0106862Y0001504D01*
X0106500Y0001500D01*
X0016500Y0001500D01*
X0016138Y0001504D01*
X0015775Y0001518D01*
X0015413Y0001539D01*
X0015052Y0001570D01*
X0014692Y0001609D01*
X0014333Y0001657D01*
X0013975Y0001714D01*
X0013618Y0001779D01*
X0013263Y0001853D01*
X0012910Y0001936D01*
X0012559Y0002027D01*
X0012211Y0002126D01*
X0011865Y0002234D01*
X0011521Y0002350D01*
X0011181Y0002475D01*
X0010844Y0002607D01*
X0010510Y0002748D01*
X0010179Y0002897D01*
X0009852Y0003054D01*
X0009529Y0003218D01*
X0009210Y0003390D01*
X0008896Y0003570D01*
X0008585Y0003758D01*
X0008280Y0003953D01*
X0007979Y0004155D01*
X0007683Y0004365D01*
X0007393Y0004581D01*
X0007107Y0004805D01*
X0006827Y0005035D01*
X0006553Y0005272D01*
X0006285Y0005516D01*
X0006022Y0005766D01*
X0005766Y0006022D01*
X0005516Y0006285D01*
X0005272Y0006553D01*
X0005035Y0006827D01*
X0004805Y0007107D01*
X0004581Y0007393D01*
X0004365Y0007683D01*
X0004155Y0007979D01*
X0003953Y0008280D01*
X0003758Y0008585D01*
X0003570Y0008896D01*
X0003390Y0009210D01*
X0003218Y0009529D01*
X0003054Y0009852D01*
X0002897Y0010179D01*
X0002748Y0010510D01*
X0002607Y0010844D01*
X0002475Y0011181D01*
X0002350Y0011521D01*
X0002234Y0011865D01*
X0002126Y0012211D01*
X0002027Y0012559D01*
X0001936Y0012910D01*
X0001853Y0013263D01*
X0001779Y0013618D01*
X0001714Y0013975D01*
X0001657Y0014333D01*
X0001609Y0014692D01*
X0001570Y0015052D01*
X0001539Y0015413D01*
X0001518Y0015775D01*
X0001504Y0016138D01*
X0001500Y0016500D01*
D13*
X0050048Y0039150D02*
X0050048Y0040117D01*
X0050048Y0039634D02*
X0052950Y0039634D01*
X0052950Y0040117D02*
X0052950Y0039150D01*
X0052950Y0041114D02*
X0050048Y0043049D01*
X0050531Y0044061D02*
X0050048Y0044545D01*
X0050048Y0045512D01*
X0050531Y0045996D01*
X0052466Y0045996D01*
X0052950Y0045512D01*
X0052950Y0044545D01*
X0052466Y0044061D01*
X0050531Y0044061D01*
X0060048Y0043548D02*
X0060048Y0042580D01*
X0060531Y0042097D01*
X0062466Y0042097D01*
X0062950Y0042580D01*
X0062950Y0043548D01*
X0062466Y0044031D01*
X0062466Y0045043D02*
X0060531Y0045043D01*
X0060048Y0045527D01*
X0060048Y0046494D01*
X0060531Y0046978D01*
X0062466Y0046978D02*
X0062950Y0046494D01*
X0062950Y0045527D01*
X0062466Y0045043D01*
X0060531Y0044031D02*
X0060048Y0043548D01*
X0060048Y0041085D02*
X0061983Y0041085D01*
X0062950Y0040117D01*
X0061983Y0039150D01*
X0060048Y0039150D01*
X0070048Y0039634D02*
X0070531Y0039150D01*
X0072466Y0039150D01*
X0072950Y0039634D01*
X0072950Y0040601D01*
X0072466Y0041085D01*
X0071499Y0041085D01*
X0071499Y0040117D01*
X0070531Y0041085D02*
X0070048Y0040601D01*
X0070048Y0039634D01*
X0070048Y0042097D02*
X0072950Y0044031D01*
X0070048Y0044031D01*
X0070048Y0045043D02*
X0070048Y0046494D01*
X0070531Y0046978D01*
X0072466Y0046978D01*
X0072950Y0046494D01*
X0072950Y0045043D01*
X0070048Y0045043D01*
X0070048Y0042097D02*
X0072950Y0042097D01*
D14*
X0103077Y0075125D03*
X0103112Y0075160D03*
X0103112Y0075195D03*
X0103148Y0075230D03*
X0103287Y0075545D03*
X0103323Y0075615D03*
X0103148Y0082580D03*
X0110673Y0083350D03*
X0107277Y0069000D03*
D15*
X0107277Y0069035D03*
X0110217Y0070890D03*
X0110252Y0070925D03*
X0110287Y0070960D03*
X0109202Y0072430D03*
X0111687Y0073655D03*
X0111687Y0073690D03*
X0111687Y0073725D03*
X0111723Y0073760D03*
X0111723Y0073795D03*
X0108817Y0075825D03*
X0105212Y0075475D03*
X0105177Y0075440D03*
X0105108Y0075335D03*
X0105073Y0075300D03*
X0105037Y0075230D03*
X0105002Y0075195D03*
X0104967Y0075125D03*
X0103777Y0076560D03*
X0099962Y0075650D03*
X0105037Y0072465D03*
X0105073Y0072430D03*
X0103252Y0081985D03*
X0107277Y0083315D03*
X0110602Y0082860D03*
D16*
X0110515Y0082265D03*
X0110515Y0082230D03*
X0107260Y0082755D03*
X0107260Y0082790D03*
X0103410Y0081110D03*
X0103410Y0081075D03*
X0103410Y0081040D03*
X0104005Y0076910D03*
X0106035Y0076000D03*
X0105720Y0071975D03*
X0108975Y0072115D03*
X0109640Y0070435D03*
X0107260Y0069070D03*
X0111845Y0074635D03*
X0111845Y0074670D03*
X0100015Y0075405D03*
D17*
X0104127Y0077085D03*
X0103777Y0079150D03*
X0103673Y0079570D03*
X0103673Y0079605D03*
X0105948Y0071940D03*
X0103498Y0071030D03*
X0107277Y0069105D03*
X0111862Y0075125D03*
X0109762Y0077260D03*
D18*
X0111845Y0075510D03*
X0112755Y0077820D03*
X0112755Y0077855D03*
X0112790Y0077890D03*
X0107085Y0080935D03*
X0107085Y0080970D03*
X0107085Y0081005D03*
X0107085Y0081040D03*
X0107085Y0081075D03*
X0104285Y0077225D03*
X0102500Y0072010D03*
X0102535Y0071975D03*
X0106910Y0071555D03*
X0107260Y0069140D03*
D19*
X0107260Y0069175D03*
X0108520Y0071940D03*
X0111810Y0075790D03*
X0106945Y0079395D03*
X0106945Y0079430D03*
X0106945Y0079465D03*
X0106945Y0079500D03*
X0106945Y0079535D03*
X0106945Y0079570D03*
X0102185Y0072395D03*
X0100365Y0074880D03*
D20*
X0104495Y0077400D03*
X0106910Y0078695D03*
X0106910Y0078730D03*
X0106910Y0078765D03*
X0106910Y0078800D03*
X0107260Y0069210D03*
D21*
X0107242Y0069245D03*
X0111757Y0076175D03*
D22*
X0106910Y0071730D03*
X0107225Y0069280D03*
X0101625Y0073235D03*
D23*
X0101485Y0073480D03*
X0107225Y0069315D03*
X0111670Y0076455D03*
D24*
X0111617Y0076595D03*
X0107207Y0069350D03*
X0101362Y0073760D03*
D25*
X0101275Y0074005D03*
X0101275Y0074040D03*
X0107225Y0069385D03*
X0111565Y0076700D03*
D26*
X0107242Y0076035D03*
X0107207Y0069420D03*
X0101223Y0074250D03*
X0101223Y0074285D03*
X0101223Y0074320D03*
D27*
X0107207Y0069455D03*
D28*
X0107190Y0069490D03*
X0111460Y0076945D03*
X0101170Y0074775D03*
D29*
X0107173Y0069525D03*
D30*
X0107172Y0069560D03*
X0111372Y0077085D03*
D31*
X0107155Y0069595D03*
D32*
X0107137Y0069630D03*
D33*
X0107137Y0069665D03*
D34*
X0107120Y0069700D03*
D35*
X0107120Y0069735D03*
D36*
X0107102Y0069770D03*
D37*
X0107102Y0069805D03*
X0108117Y0078205D03*
X0108117Y0078240D03*
X0108152Y0078345D03*
D38*
X0107085Y0069840D03*
D39*
X0107067Y0069875D03*
D40*
X0107050Y0069910D03*
D41*
X0107050Y0069945D03*
D42*
X0107032Y0069980D03*
D43*
X0107015Y0070015D03*
D44*
X0107015Y0070050D03*
D45*
X0106997Y0070085D03*
D46*
X0106980Y0070120D03*
D47*
X0105177Y0070155D03*
X0101852Y0072850D03*
X0106927Y0078485D03*
X0111757Y0076070D03*
D48*
X0111827Y0075685D03*
X0112492Y0077400D03*
X0112527Y0077435D03*
X0109482Y0077435D03*
X0106997Y0079990D03*
X0106997Y0080025D03*
X0106997Y0080060D03*
X0106997Y0080095D03*
X0106997Y0080130D03*
X0106997Y0080165D03*
X0102237Y0072325D03*
X0102272Y0072290D03*
X0100312Y0074915D03*
X0108957Y0070155D03*
D49*
X0105037Y0070190D03*
X0102062Y0072570D03*
X0102027Y0072605D03*
X0106927Y0079010D03*
X0106927Y0079045D03*
X0106927Y0079080D03*
X0106927Y0079115D03*
X0106927Y0079150D03*
D50*
X0107120Y0081285D03*
X0107120Y0081320D03*
X0107120Y0081355D03*
X0107120Y0081390D03*
X0107120Y0081425D03*
X0109885Y0078870D03*
X0109815Y0078625D03*
X0109815Y0078590D03*
X0109780Y0078520D03*
X0109780Y0078485D03*
X0109745Y0078380D03*
X0109605Y0077365D03*
X0112860Y0078065D03*
X0112895Y0078135D03*
X0109115Y0070190D03*
X0102710Y0071765D03*
X0102640Y0071835D03*
X0100190Y0075055D03*
D51*
X0104407Y0077330D03*
X0106962Y0079605D03*
X0106962Y0079640D03*
X0106962Y0079675D03*
X0106962Y0079710D03*
X0106962Y0079745D03*
X0112423Y0077295D03*
X0111827Y0075755D03*
X0104898Y0070225D03*
D52*
X0104267Y0070505D03*
X0104197Y0070540D03*
X0102902Y0071555D03*
X0100137Y0075125D03*
X0103987Y0078450D03*
X0103987Y0078485D03*
X0103952Y0078520D03*
X0103952Y0078555D03*
X0104197Y0077155D03*
X0107172Y0081740D03*
X0107172Y0081775D03*
X0107172Y0081810D03*
X0107172Y0081845D03*
X0110287Y0080830D03*
X0110287Y0080795D03*
X0110287Y0080760D03*
X0110287Y0080725D03*
X0110252Y0080655D03*
X0110252Y0080620D03*
X0110252Y0080585D03*
X0110252Y0080550D03*
X0110217Y0080445D03*
X0110217Y0080410D03*
X0110217Y0080375D03*
X0113052Y0078520D03*
X0113017Y0078450D03*
X0111862Y0075300D03*
X0109202Y0070225D03*
D53*
X0106910Y0071590D03*
X0104810Y0070260D03*
X0112440Y0077330D03*
X0112475Y0077365D03*
D54*
X0113157Y0078800D03*
X0113157Y0078835D03*
X0110392Y0081390D03*
X0110392Y0081425D03*
X0110392Y0081460D03*
X0110392Y0081495D03*
X0107207Y0082090D03*
X0107207Y0082125D03*
X0107207Y0082160D03*
X0107207Y0082195D03*
X0103707Y0079465D03*
X0103707Y0079430D03*
X0103707Y0079395D03*
X0103742Y0079325D03*
X0103742Y0079290D03*
X0109307Y0070260D03*
D55*
X0104722Y0070295D03*
X0102377Y0072150D03*
X0102342Y0072185D03*
X0100277Y0074950D03*
X0107032Y0080375D03*
X0107032Y0080410D03*
X0107032Y0080445D03*
X0107032Y0080480D03*
X0107032Y0080515D03*
X0112597Y0077540D03*
D56*
X0113192Y0078940D03*
X0111862Y0075020D03*
X0109377Y0070295D03*
X0103602Y0079885D03*
X0103602Y0079920D03*
X0103602Y0079955D03*
X0103602Y0079990D03*
X0103567Y0080025D03*
X0103567Y0080060D03*
X0103567Y0080095D03*
X0103567Y0080130D03*
X0107242Y0082335D03*
X0110427Y0081705D03*
X0110427Y0081670D03*
X0110427Y0081635D03*
X0100067Y0075265D03*
D57*
X0100242Y0074985D03*
X0102482Y0072045D03*
X0104617Y0070330D03*
X0107067Y0080760D03*
X0107067Y0080795D03*
X0107067Y0080830D03*
X0107067Y0080865D03*
X0107067Y0080900D03*
X0112667Y0077680D03*
D58*
X0113227Y0079045D03*
X0110462Y0081845D03*
X0110462Y0081880D03*
X0110462Y0081915D03*
X0107242Y0082440D03*
X0107242Y0082475D03*
X0107242Y0082510D03*
X0103498Y0080515D03*
X0103498Y0080480D03*
X0103498Y0080445D03*
X0103532Y0080375D03*
X0103532Y0080340D03*
X0103532Y0080305D03*
X0107312Y0076455D03*
X0109448Y0070330D03*
X0111862Y0074880D03*
X0111862Y0074915D03*
X0111862Y0074950D03*
X0100067Y0075300D03*
D59*
X0100208Y0075020D03*
X0102552Y0071940D03*
X0102587Y0071905D03*
X0102623Y0071870D03*
X0104477Y0070400D03*
X0104548Y0070365D03*
X0109762Y0078415D03*
X0109762Y0078450D03*
X0112808Y0077960D03*
X0112808Y0077925D03*
X0112842Y0077995D03*
X0112842Y0078030D03*
X0112877Y0078100D03*
X0111862Y0075475D03*
X0111862Y0075440D03*
X0107102Y0081110D03*
X0107102Y0081145D03*
X0107102Y0081180D03*
X0107102Y0081215D03*
X0107102Y0081250D03*
D60*
X0107242Y0082580D03*
X0110497Y0082125D03*
X0110497Y0082090D03*
X0110497Y0082055D03*
X0113262Y0079150D03*
X0111862Y0074845D03*
X0111862Y0074810D03*
X0108922Y0072080D03*
X0109517Y0070365D03*
X0106927Y0071485D03*
X0104057Y0076980D03*
X0103462Y0080655D03*
X0103462Y0080690D03*
X0103462Y0080725D03*
X0103462Y0080760D03*
X0100032Y0075370D03*
D61*
X0109587Y0070400D03*
X0111862Y0074705D03*
X0111862Y0074740D03*
D62*
X0111862Y0075370D03*
X0111862Y0075405D03*
X0112912Y0078170D03*
X0112912Y0078205D03*
X0112948Y0078240D03*
X0112948Y0078275D03*
X0112982Y0078345D03*
X0109937Y0079045D03*
X0109937Y0079080D03*
X0109937Y0079115D03*
X0109973Y0079185D03*
X0109973Y0079220D03*
X0109973Y0079255D03*
X0110007Y0079360D03*
X0110007Y0079395D03*
X0110042Y0079535D03*
X0110042Y0079570D03*
X0110077Y0079710D03*
X0110112Y0079885D03*
X0109902Y0079010D03*
X0109902Y0078975D03*
X0109902Y0078940D03*
X0109902Y0078905D03*
X0109867Y0078835D03*
X0109867Y0078800D03*
X0109867Y0078765D03*
X0109832Y0078695D03*
X0109832Y0078660D03*
X0109798Y0078555D03*
X0107312Y0076420D03*
X0104232Y0077190D03*
X0104057Y0078240D03*
X0104057Y0078275D03*
X0104023Y0078345D03*
X0107137Y0081460D03*
X0107137Y0081495D03*
X0107137Y0081530D03*
X0107137Y0081565D03*
X0108712Y0071975D03*
X0104407Y0070435D03*
X0104337Y0070470D03*
X0102762Y0071730D03*
D63*
X0105650Y0072010D03*
X0109010Y0072150D03*
X0109710Y0070470D03*
X0111845Y0074530D03*
X0111845Y0074565D03*
X0113315Y0079325D03*
X0110550Y0082370D03*
X0110550Y0082405D03*
X0103375Y0081285D03*
X0103375Y0081250D03*
X0103375Y0081215D03*
D64*
X0103358Y0081320D03*
X0103358Y0081355D03*
X0103358Y0081390D03*
X0103952Y0076840D03*
X0099998Y0075475D03*
X0107277Y0082895D03*
X0107277Y0082930D03*
X0107277Y0082965D03*
X0110567Y0082440D03*
X0113333Y0079395D03*
X0113333Y0079360D03*
X0111827Y0074495D03*
X0111827Y0074460D03*
X0111827Y0074425D03*
X0109762Y0070505D03*
X0108467Y0076000D03*
D65*
X0105930Y0075965D03*
X0103935Y0076805D03*
X0103340Y0081425D03*
X0103340Y0081460D03*
X0103340Y0081495D03*
X0099980Y0075510D03*
X0109045Y0072185D03*
X0109815Y0070540D03*
D66*
X0111880Y0075265D03*
X0113035Y0078485D03*
X0113070Y0078555D03*
X0113070Y0078590D03*
X0110270Y0080690D03*
X0110305Y0080865D03*
X0110305Y0080900D03*
X0110305Y0080935D03*
X0110305Y0080970D03*
X0110340Y0081110D03*
X0107190Y0081880D03*
X0107190Y0081915D03*
X0107190Y0081950D03*
X0103865Y0078835D03*
X0103900Y0078730D03*
X0103900Y0078695D03*
X0103935Y0078660D03*
X0103935Y0078625D03*
X0103935Y0078590D03*
X0102955Y0071520D03*
X0102990Y0071485D03*
X0103025Y0071450D03*
X0103060Y0071415D03*
X0103095Y0071380D03*
X0103130Y0071345D03*
X0104145Y0070575D03*
D67*
X0105475Y0072080D03*
X0105825Y0075930D03*
X0108590Y0075965D03*
X0111810Y0074320D03*
X0111810Y0074285D03*
X0111810Y0074250D03*
X0109885Y0070610D03*
X0109850Y0070575D03*
X0113350Y0079465D03*
X0110585Y0082580D03*
D68*
X0110357Y0081215D03*
X0110357Y0081180D03*
X0110357Y0081145D03*
X0110322Y0081075D03*
X0110322Y0081040D03*
X0110322Y0081005D03*
X0107207Y0081985D03*
X0103847Y0078905D03*
X0103847Y0078870D03*
X0103882Y0078800D03*
X0103882Y0078765D03*
X0103182Y0071310D03*
X0103217Y0071275D03*
X0103252Y0071240D03*
X0103917Y0070715D03*
X0104022Y0070645D03*
X0104092Y0070610D03*
X0106927Y0071520D03*
X0109727Y0077295D03*
X0113122Y0078730D03*
D69*
X0113367Y0079500D03*
X0110567Y0082615D03*
X0107277Y0083070D03*
X0107277Y0083105D03*
X0103287Y0081705D03*
X0103287Y0081670D03*
X0103882Y0076735D03*
X0105772Y0075895D03*
X0109097Y0072255D03*
X0109937Y0070645D03*
X0111792Y0074180D03*
X0111792Y0074215D03*
D70*
X0111862Y0075195D03*
X0111862Y0075230D03*
X0113087Y0078625D03*
X0113087Y0078660D03*
X0104162Y0077120D03*
X0103812Y0079010D03*
X0100137Y0075160D03*
X0103287Y0071205D03*
X0103987Y0070680D03*
D71*
X0105405Y0072115D03*
X0105685Y0075860D03*
X0103865Y0076700D03*
X0107295Y0083140D03*
X0110585Y0082685D03*
X0110585Y0082650D03*
X0113385Y0079535D03*
X0111775Y0074145D03*
X0111775Y0074110D03*
X0111775Y0074075D03*
X0109990Y0070680D03*
X0109115Y0072290D03*
X0108660Y0075930D03*
D72*
X0105632Y0075825D03*
X0103847Y0076665D03*
X0105352Y0072150D03*
X0110042Y0070715D03*
X0111757Y0074005D03*
X0111757Y0074040D03*
X0110602Y0082720D03*
X0107277Y0083175D03*
D73*
X0107190Y0082055D03*
X0107190Y0082020D03*
X0110375Y0081355D03*
X0110375Y0081320D03*
X0110375Y0081285D03*
X0110375Y0081250D03*
X0113140Y0078765D03*
X0113105Y0078695D03*
X0111880Y0075160D03*
X0108800Y0072010D03*
X0103865Y0070750D03*
X0103830Y0070785D03*
X0103760Y0070820D03*
X0103725Y0070855D03*
X0103690Y0070890D03*
X0103620Y0070925D03*
X0103585Y0070960D03*
X0103550Y0070995D03*
X0103445Y0071065D03*
X0103410Y0071100D03*
X0103375Y0071135D03*
X0103340Y0071170D03*
X0100120Y0075195D03*
X0103830Y0078940D03*
X0103830Y0078975D03*
X0103795Y0079045D03*
X0103795Y0079080D03*
X0103795Y0079115D03*
X0103760Y0079185D03*
X0103760Y0079220D03*
X0103760Y0079255D03*
X0103725Y0079360D03*
D74*
X0103270Y0081810D03*
X0103270Y0081845D03*
X0103270Y0081880D03*
X0107295Y0083210D03*
X0110585Y0082755D03*
X0113385Y0079570D03*
X0108730Y0075895D03*
X0105580Y0075790D03*
X0105545Y0075755D03*
X0105475Y0075720D03*
X0103830Y0076630D03*
X0105265Y0072220D03*
X0105300Y0072185D03*
X0109150Y0072325D03*
X0110060Y0070750D03*
D75*
X0110112Y0070785D03*
X0110148Y0070820D03*
X0105423Y0075685D03*
X0105387Y0075650D03*
X0105352Y0075615D03*
X0099962Y0075615D03*
X0103252Y0081915D03*
X0107277Y0083245D03*
X0110602Y0082790D03*
D76*
X0110620Y0082825D03*
X0113420Y0079605D03*
X0111740Y0073865D03*
X0111740Y0073830D03*
X0109185Y0072395D03*
X0110200Y0070855D03*
X0108800Y0075860D03*
X0105265Y0075510D03*
X0105160Y0075405D03*
X0105125Y0075370D03*
X0103795Y0076595D03*
X0105090Y0072395D03*
X0105125Y0072360D03*
X0105160Y0072325D03*
X0105195Y0072290D03*
X0105230Y0072255D03*
X0103235Y0081950D03*
X0107295Y0083280D03*
D77*
X0110620Y0082895D03*
X0113420Y0079640D03*
X0111670Y0073620D03*
X0111670Y0073585D03*
X0109220Y0072500D03*
X0109220Y0072465D03*
X0110340Y0070995D03*
X0108870Y0075790D03*
X0105055Y0075265D03*
X0104985Y0075160D03*
X0104915Y0075055D03*
X0104915Y0075020D03*
X0104880Y0074985D03*
X0104880Y0074950D03*
X0104845Y0074915D03*
X0104845Y0074880D03*
X0104810Y0074845D03*
X0104810Y0074810D03*
X0104810Y0074775D03*
X0104740Y0074600D03*
X0104705Y0074460D03*
X0104880Y0072710D03*
X0104915Y0072640D03*
X0104985Y0072535D03*
X0105020Y0072500D03*
X0103760Y0076525D03*
X0103235Y0082020D03*
X0103235Y0082055D03*
D78*
X0103217Y0082090D03*
X0103217Y0082125D03*
X0107277Y0083350D03*
X0103742Y0076490D03*
X0104757Y0074670D03*
X0104757Y0074635D03*
X0104723Y0074565D03*
X0104723Y0074530D03*
X0104723Y0074495D03*
X0104687Y0074425D03*
X0104687Y0074390D03*
X0104687Y0074355D03*
X0104687Y0074320D03*
X0104652Y0074250D03*
X0104652Y0074215D03*
X0104652Y0074180D03*
X0104652Y0074145D03*
X0104652Y0074110D03*
X0104652Y0074075D03*
X0104652Y0074040D03*
X0104652Y0074005D03*
X0104652Y0073585D03*
X0104652Y0073550D03*
X0104652Y0073515D03*
X0104687Y0073305D03*
X0104687Y0073270D03*
X0104723Y0073130D03*
X0104723Y0073095D03*
X0104757Y0073025D03*
X0104757Y0072990D03*
X0104792Y0072920D03*
X0104792Y0072885D03*
X0104827Y0072850D03*
X0104827Y0072815D03*
X0104862Y0072780D03*
X0104862Y0072745D03*
X0104898Y0072675D03*
X0108923Y0075755D03*
X0108957Y0075720D03*
X0108992Y0075685D03*
X0109237Y0072535D03*
X0110427Y0071100D03*
X0110392Y0071065D03*
X0110357Y0071030D03*
X0111652Y0073515D03*
X0111652Y0073550D03*
X0113437Y0079675D03*
X0099962Y0075685D03*
D79*
X0104670Y0074285D03*
X0104670Y0073480D03*
X0104670Y0073445D03*
X0104670Y0073410D03*
X0104670Y0073375D03*
X0104670Y0073340D03*
X0104705Y0073235D03*
X0104705Y0073200D03*
X0104705Y0073165D03*
X0109045Y0075615D03*
X0109255Y0072605D03*
X0109255Y0072570D03*
X0110480Y0071170D03*
X0110445Y0071135D03*
X0110620Y0082930D03*
X0110620Y0082965D03*
X0107295Y0083385D03*
D80*
X0103725Y0076455D03*
X0103690Y0076420D03*
X0104635Y0073970D03*
X0104635Y0073935D03*
X0104635Y0073900D03*
X0104635Y0073865D03*
X0104635Y0073830D03*
X0104635Y0073795D03*
X0104635Y0073760D03*
X0104635Y0073725D03*
X0104635Y0073690D03*
X0104635Y0073655D03*
X0104635Y0073620D03*
X0104740Y0073060D03*
X0104775Y0072955D03*
X0109010Y0075650D03*
X0111635Y0073480D03*
X0111635Y0073445D03*
X0111635Y0073410D03*
X0110515Y0071205D03*
D81*
X0110532Y0071240D03*
X0110567Y0071275D03*
X0109272Y0072640D03*
X0109272Y0072675D03*
X0111582Y0073270D03*
X0111582Y0073305D03*
X0111617Y0073340D03*
X0111617Y0073375D03*
X0109097Y0075545D03*
X0109062Y0075580D03*
X0103672Y0076385D03*
X0103217Y0082160D03*
X0107277Y0083420D03*
X0110637Y0083000D03*
X0113437Y0079710D03*
D82*
X0109202Y0075335D03*
X0109272Y0075125D03*
X0109272Y0075090D03*
X0109272Y0075055D03*
X0109272Y0075020D03*
X0109272Y0074985D03*
X0109272Y0074950D03*
X0109307Y0073025D03*
X0109307Y0072990D03*
X0109307Y0072955D03*
X0109307Y0072920D03*
X0109307Y0072885D03*
X0109307Y0072850D03*
X0109307Y0072815D03*
X0110707Y0071450D03*
X0110672Y0071415D03*
X0110742Y0071485D03*
X0110602Y0071310D03*
X0111477Y0072955D03*
X0111547Y0073130D03*
X0111547Y0073165D03*
X0107277Y0083455D03*
D83*
X0103200Y0082230D03*
X0103200Y0082195D03*
X0103655Y0076350D03*
X0099945Y0075720D03*
X0109115Y0075510D03*
X0109150Y0075475D03*
X0109150Y0075440D03*
X0109185Y0075405D03*
X0109185Y0075370D03*
X0109220Y0075300D03*
X0109255Y0075160D03*
X0109290Y0074915D03*
X0111565Y0073235D03*
X0111565Y0073200D03*
X0111530Y0073095D03*
X0110655Y0071380D03*
X0110620Y0071345D03*
X0109290Y0072710D03*
X0109290Y0072745D03*
X0109290Y0072780D03*
D84*
X0106945Y0071380D03*
X0103130Y0082720D03*
X0110690Y0083490D03*
D85*
X0103182Y0082440D03*
X0103532Y0076070D03*
X0103498Y0076035D03*
X0102902Y0074915D03*
X0109412Y0071415D03*
X0109412Y0071380D03*
D86*
X0109325Y0071800D03*
X0109325Y0073060D03*
X0109325Y0073095D03*
X0109325Y0073130D03*
X0109325Y0073165D03*
X0109325Y0073200D03*
X0109325Y0073235D03*
X0109325Y0073270D03*
X0109325Y0073305D03*
X0109325Y0073340D03*
X0109325Y0073375D03*
X0109325Y0073410D03*
X0109325Y0073445D03*
X0109325Y0073480D03*
X0109325Y0073515D03*
X0109325Y0073550D03*
X0109325Y0073585D03*
X0109325Y0073620D03*
X0109325Y0073655D03*
X0111460Y0072920D03*
X0111460Y0072885D03*
X0111460Y0072850D03*
X0111425Y0072815D03*
X0111425Y0072780D03*
X0111390Y0072710D03*
X0111495Y0072990D03*
X0110830Y0071625D03*
X0110795Y0071590D03*
X0110795Y0071555D03*
X0110760Y0071520D03*
X0106945Y0071415D03*
X0103620Y0076280D03*
X0103200Y0082265D03*
X0107295Y0083490D03*
X0113455Y0079745D03*
D87*
X0107330Y0076490D03*
X0106945Y0071450D03*
X0103305Y0081600D03*
X0103305Y0081635D03*
X0099980Y0075545D03*
D88*
X0099945Y0075790D03*
X0103165Y0082405D03*
X0107295Y0083595D03*
X0110655Y0083210D03*
X0110655Y0083175D03*
X0109395Y0071450D03*
D89*
X0109377Y0071485D03*
X0109377Y0071520D03*
X0109377Y0071555D03*
X0113473Y0079780D03*
X0107277Y0083560D03*
X0103183Y0082370D03*
X0103567Y0076140D03*
D90*
X0104040Y0078310D03*
X0102815Y0071660D03*
X0102850Y0071625D03*
X0102885Y0071590D03*
X0109675Y0077330D03*
X0109990Y0079290D03*
X0109990Y0079325D03*
X0110025Y0079430D03*
X0110025Y0079465D03*
X0110025Y0079500D03*
X0110060Y0079605D03*
X0110060Y0079640D03*
X0110060Y0079675D03*
X0110165Y0080060D03*
X0110165Y0080095D03*
X0110165Y0080130D03*
X0110165Y0080165D03*
X0110165Y0080200D03*
X0110200Y0080235D03*
X0110200Y0080270D03*
X0110200Y0080305D03*
X0110200Y0080340D03*
X0110235Y0080480D03*
X0110235Y0080515D03*
X0113000Y0078415D03*
X0113000Y0078380D03*
X0112965Y0078310D03*
D91*
X0110655Y0083140D03*
X0103585Y0076210D03*
X0103585Y0076175D03*
X0109360Y0071660D03*
X0109360Y0071625D03*
X0109360Y0071590D03*
X0110935Y0071800D03*
X0111005Y0071905D03*
X0111040Y0071975D03*
X0111075Y0072045D03*
X0111110Y0072080D03*
X0111110Y0072115D03*
X0111145Y0072150D03*
X0111145Y0072185D03*
X0111180Y0072220D03*
X0111180Y0072255D03*
X0111215Y0072290D03*
X0111215Y0072325D03*
X0111250Y0072360D03*
X0111250Y0072395D03*
X0111285Y0072465D03*
X0111320Y0072535D03*
D92*
X0108450Y0073690D03*
X0108450Y0073725D03*
X0108450Y0073760D03*
X0108450Y0073795D03*
X0108450Y0073830D03*
X0108450Y0073865D03*
X0108450Y0073900D03*
X0108450Y0073935D03*
X0108450Y0073970D03*
X0108450Y0074005D03*
X0108450Y0074040D03*
X0108450Y0074075D03*
X0108450Y0074110D03*
X0108450Y0074145D03*
X0106910Y0071625D03*
X0102010Y0072640D03*
X0101975Y0072675D03*
X0106910Y0078975D03*
X0111810Y0075930D03*
X0111810Y0075895D03*
D93*
X0111775Y0076035D03*
X0106910Y0078520D03*
X0106910Y0078555D03*
X0106910Y0078590D03*
X0106910Y0078625D03*
X0106910Y0071660D03*
D94*
X0107348Y0076525D03*
X0103602Y0076245D03*
X0099927Y0075755D03*
X0107277Y0083525D03*
X0110637Y0083105D03*
X0111373Y0072675D03*
X0111373Y0072640D03*
X0111337Y0072605D03*
X0111337Y0072570D03*
X0111302Y0072500D03*
X0111023Y0071940D03*
X0110987Y0071870D03*
X0110952Y0071835D03*
X0110848Y0071660D03*
D95*
X0111880Y0075335D03*
X0109955Y0079150D03*
X0110095Y0079745D03*
X0110095Y0079780D03*
X0110095Y0079815D03*
X0110095Y0079850D03*
X0110130Y0079920D03*
X0110130Y0079955D03*
X0110130Y0079990D03*
X0110130Y0080025D03*
X0107155Y0081600D03*
X0107155Y0081635D03*
X0107155Y0081670D03*
X0107155Y0081705D03*
X0104005Y0078415D03*
X0104005Y0078380D03*
X0100155Y0075090D03*
X0102780Y0071695D03*
D96*
X0101730Y0073060D03*
X0101695Y0073095D03*
X0106910Y0071695D03*
X0111740Y0076210D03*
D97*
X0111407Y0072745D03*
X0111267Y0072430D03*
X0111057Y0072010D03*
X0110917Y0071765D03*
X0110882Y0071730D03*
X0110882Y0071695D03*
X0109342Y0071695D03*
X0109342Y0071730D03*
X0109342Y0071765D03*
X0102832Y0074880D03*
X0103182Y0082300D03*
X0103182Y0082335D03*
D98*
X0101537Y0073375D03*
X0106892Y0071765D03*
X0111687Y0076385D03*
D99*
X0109850Y0078730D03*
X0104075Y0078205D03*
X0102675Y0071800D03*
D100*
X0101467Y0073515D03*
X0101467Y0073550D03*
X0101432Y0073585D03*
X0106892Y0071800D03*
X0111652Y0076490D03*
D101*
X0107452Y0071835D03*
D102*
X0107435Y0071870D03*
X0111285Y0077190D03*
D103*
X0111250Y0077225D03*
X0107400Y0071905D03*
D104*
X0109062Y0072220D03*
X0105562Y0072045D03*
X0103917Y0076770D03*
X0103323Y0081530D03*
X0103323Y0081565D03*
X0107277Y0083000D03*
X0107277Y0083035D03*
X0110567Y0082545D03*
X0110567Y0082510D03*
X0111827Y0074390D03*
X0111827Y0074355D03*
D105*
X0111880Y0074985D03*
X0113210Y0078975D03*
X0113210Y0079010D03*
X0110445Y0081740D03*
X0110445Y0081775D03*
X0110445Y0081810D03*
X0108870Y0072045D03*
D106*
X0111845Y0075580D03*
X0112615Y0077575D03*
X0112650Y0077610D03*
X0112650Y0077645D03*
X0107050Y0080550D03*
X0107050Y0080585D03*
X0107050Y0080620D03*
X0107050Y0080655D03*
X0107050Y0080690D03*
X0107050Y0080725D03*
X0104320Y0077260D03*
X0102430Y0072080D03*
D107*
X0102412Y0072115D03*
X0112562Y0077505D03*
D108*
X0112545Y0077470D03*
X0111845Y0075650D03*
X0111845Y0075615D03*
X0107295Y0076385D03*
X0104355Y0077295D03*
X0107015Y0080200D03*
X0107015Y0080235D03*
X0107015Y0080270D03*
X0107015Y0080305D03*
X0107015Y0080340D03*
X0102290Y0072255D03*
X0102325Y0072220D03*
D109*
X0102220Y0072360D03*
X0106980Y0079780D03*
X0106980Y0079815D03*
X0106980Y0079850D03*
X0106980Y0079885D03*
X0106980Y0079920D03*
X0106980Y0079955D03*
X0111845Y0075720D03*
D110*
X0111757Y0073970D03*
X0111757Y0073935D03*
X0111757Y0073900D03*
X0109167Y0072360D03*
X0105317Y0075580D03*
X0105282Y0075545D03*
D111*
X0102150Y0072430D03*
D112*
X0102133Y0072465D03*
X0102098Y0072500D03*
X0106927Y0079360D03*
X0112387Y0077260D03*
X0111827Y0075825D03*
D113*
X0111810Y0075860D03*
X0109395Y0077470D03*
X0107295Y0076350D03*
X0106945Y0079185D03*
X0106945Y0079220D03*
X0106945Y0079255D03*
X0106945Y0079290D03*
X0106945Y0079325D03*
X0104460Y0077365D03*
X0102080Y0072535D03*
D114*
X0104950Y0072570D03*
X0104950Y0072605D03*
X0104775Y0074705D03*
X0104775Y0074740D03*
X0104950Y0075090D03*
D115*
X0101957Y0072710D03*
X0106927Y0078835D03*
X0106927Y0078870D03*
X0106927Y0078905D03*
X0106927Y0078940D03*
X0111792Y0075965D03*
D116*
X0111792Y0076000D03*
X0109307Y0077505D03*
X0106927Y0078660D03*
X0101922Y0072745D03*
D117*
X0101905Y0072780D03*
X0101870Y0072815D03*
X0107295Y0076315D03*
D118*
X0106910Y0078380D03*
X0106910Y0078415D03*
X0106910Y0078450D03*
X0104565Y0077435D03*
X0101835Y0072885D03*
D119*
X0101817Y0072920D03*
X0101783Y0072955D03*
X0111758Y0076140D03*
D120*
X0101765Y0072990D03*
D121*
X0101748Y0073025D03*
X0107277Y0076280D03*
D122*
X0109237Y0075265D03*
X0109237Y0075230D03*
X0109237Y0075195D03*
X0111512Y0073060D03*
X0111512Y0073025D03*
X0110637Y0083035D03*
X0110637Y0083070D03*
X0103637Y0076315D03*
D123*
X0104652Y0077470D03*
X0101677Y0073130D03*
X0111722Y0076245D03*
D124*
X0101660Y0073165D03*
D125*
X0101642Y0073200D03*
X0107277Y0076245D03*
X0109132Y0077540D03*
X0111722Y0076280D03*
D126*
X0101607Y0073270D03*
X0101573Y0073305D03*
D127*
X0101555Y0073340D03*
X0104740Y0077505D03*
X0111705Y0076350D03*
D128*
X0111670Y0076420D03*
X0107260Y0076210D03*
X0101520Y0073410D03*
D129*
X0101502Y0073445D03*
D130*
X0101415Y0073620D03*
X0107260Y0076175D03*
D131*
X0111652Y0076525D03*
X0101397Y0073655D03*
D132*
X0101380Y0073690D03*
X0101380Y0073725D03*
X0104880Y0077540D03*
D133*
X0107260Y0076140D03*
X0101345Y0073830D03*
X0101345Y0073795D03*
D134*
X0101327Y0073865D03*
X0111617Y0076630D03*
D135*
X0111600Y0076665D03*
X0101310Y0073900D03*
D136*
X0101292Y0073935D03*
X0101292Y0073970D03*
X0107242Y0076105D03*
D137*
X0101257Y0074110D03*
X0101257Y0074075D03*
D138*
X0101240Y0074145D03*
X0101240Y0074180D03*
X0111565Y0076735D03*
D139*
X0108467Y0074180D03*
D140*
X0101240Y0074215D03*
D141*
X0101205Y0074355D03*
X0101205Y0074390D03*
X0111530Y0076805D03*
D142*
X0111512Y0076840D03*
X0101187Y0074460D03*
X0101187Y0074425D03*
D143*
X0101205Y0074495D03*
X0111495Y0076875D03*
D144*
X0101187Y0074600D03*
X0101187Y0074565D03*
X0101187Y0074530D03*
D145*
X0099998Y0075440D03*
X0103987Y0076875D03*
X0107277Y0082825D03*
X0107277Y0082860D03*
X0113298Y0079290D03*
X0111827Y0074600D03*
D146*
X0101170Y0074635D03*
D147*
X0101187Y0074670D03*
X0101187Y0074705D03*
X0101187Y0074740D03*
D148*
X0104040Y0076945D03*
X0103445Y0080795D03*
X0103445Y0080830D03*
X0103445Y0080865D03*
X0107260Y0082615D03*
X0107260Y0082650D03*
X0107260Y0082685D03*
X0110515Y0082195D03*
X0110515Y0082160D03*
X0113280Y0079220D03*
X0113280Y0079185D03*
X0111845Y0074775D03*
D149*
X0101187Y0074810D03*
X0101187Y0074845D03*
D150*
X0102955Y0074950D03*
X0103480Y0075965D03*
X0103480Y0076000D03*
X0107295Y0083630D03*
X0110655Y0083245D03*
D151*
X0110655Y0083280D03*
X0107295Y0083665D03*
X0103165Y0082510D03*
X0103445Y0075895D03*
X0103445Y0075860D03*
X0103410Y0075825D03*
X0102990Y0074985D03*
D152*
X0103007Y0075020D03*
X0103042Y0075055D03*
X0103392Y0075790D03*
X0099927Y0075825D03*
X0103147Y0082545D03*
D153*
X0103620Y0079850D03*
X0103620Y0079815D03*
X0103620Y0079780D03*
X0103655Y0079745D03*
X0103655Y0079710D03*
X0103655Y0079675D03*
X0103655Y0079640D03*
X0103690Y0079535D03*
X0103690Y0079500D03*
X0104110Y0077050D03*
X0100085Y0075230D03*
X0107225Y0082230D03*
X0107225Y0082265D03*
X0107225Y0082300D03*
X0110410Y0081600D03*
X0110410Y0081565D03*
X0110410Y0081530D03*
X0113175Y0078905D03*
X0113175Y0078870D03*
X0111880Y0075090D03*
X0111880Y0075055D03*
D154*
X0110655Y0083315D03*
X0107295Y0083700D03*
X0103375Y0075755D03*
X0103375Y0075720D03*
X0103340Y0075650D03*
X0103060Y0075090D03*
D155*
X0103165Y0075265D03*
X0103165Y0075300D03*
X0103200Y0075335D03*
X0103200Y0075370D03*
X0103235Y0075405D03*
X0103235Y0075440D03*
X0103270Y0075475D03*
X0103270Y0075510D03*
X0103305Y0075580D03*
X0107295Y0083735D03*
D156*
X0107260Y0082545D03*
X0103515Y0080410D03*
X0100050Y0075335D03*
D157*
X0109552Y0077400D03*
X0111862Y0075545D03*
X0112702Y0077715D03*
X0112702Y0077750D03*
X0112737Y0077785D03*
D158*
X0103287Y0081740D03*
X0103287Y0081775D03*
X0099962Y0075580D03*
D159*
X0103357Y0075685D03*
X0113507Y0079850D03*
D160*
X0110690Y0083385D03*
X0107295Y0083770D03*
X0099945Y0075860D03*
D161*
X0099927Y0075895D03*
D162*
X0103462Y0075930D03*
D163*
X0107242Y0076070D03*
X0111547Y0076770D03*
D164*
X0103550Y0076105D03*
D165*
X0111775Y0076105D03*
D166*
X0111705Y0076315D03*
D167*
X0111635Y0076560D03*
D168*
X0111477Y0076910D03*
D169*
X0111442Y0076980D03*
D170*
X0107225Y0082370D03*
X0107225Y0082405D03*
X0103550Y0080270D03*
X0103550Y0080235D03*
X0103550Y0080200D03*
X0103550Y0080165D03*
X0104075Y0077015D03*
D171*
X0111425Y0077015D03*
D172*
X0111390Y0077050D03*
D173*
X0111337Y0077120D03*
D174*
X0111302Y0077155D03*
D175*
X0106910Y0077575D03*
X0106910Y0077610D03*
D176*
X0106892Y0077645D03*
X0106892Y0077680D03*
X0106892Y0077715D03*
X0106892Y0077750D03*
D177*
X0106910Y0077785D03*
D178*
X0106892Y0077820D03*
X0106892Y0077855D03*
X0106892Y0077890D03*
X0106892Y0077925D03*
D179*
X0106910Y0077960D03*
D180*
X0106892Y0077995D03*
X0106892Y0078030D03*
X0106892Y0078065D03*
X0106892Y0078100D03*
D181*
X0106910Y0078135D03*
D182*
X0106892Y0078170D03*
D183*
X0108135Y0078275D03*
X0108135Y0078310D03*
D184*
X0110480Y0081950D03*
X0110480Y0081985D03*
X0110480Y0082020D03*
X0113245Y0079115D03*
X0113245Y0079080D03*
X0103480Y0080550D03*
X0103480Y0080585D03*
X0103480Y0080620D03*
D185*
X0103427Y0080900D03*
X0103427Y0080935D03*
X0103427Y0080970D03*
X0103427Y0081005D03*
X0107277Y0082720D03*
X0113297Y0079255D03*
D186*
X0113350Y0079430D03*
X0110550Y0082475D03*
D187*
X0113490Y0079815D03*
X0103165Y0082475D03*
D188*
X0107312Y0083805D03*
X0113542Y0079885D03*
D189*
X0110532Y0082300D03*
X0110532Y0082335D03*
X0103392Y0081180D03*
X0103392Y0081145D03*
D190*
X0103148Y0082615D03*
D191*
X0103148Y0082650D03*
D192*
X0103130Y0082685D03*
D193*
X0103130Y0082755D03*
X0107330Y0083910D03*
D194*
X0110690Y0083420D03*
D195*
X0110672Y0083455D03*
D196*
X0110707Y0083525D03*
D197*
X0107312Y0083840D03*
D198*
X0107330Y0083875D03*
D199*
X0107760Y0048600D03*
X0107760Y0047600D03*
X0107560Y0046800D03*
X0107560Y0046600D03*
X0107560Y0046400D03*
X0107560Y0046200D03*
X0107560Y0046000D03*
X0108200Y0046000D03*
X0108240Y0045800D03*
X0108360Y0045400D03*
X0107560Y0045200D03*
X0107560Y0045000D03*
X0107560Y0044800D03*
X0107560Y0044000D03*
X0106400Y0044800D03*
X0106400Y0045000D03*
X0106400Y0045200D03*
X0105040Y0045200D03*
X0105040Y0045000D03*
X0105040Y0044800D03*
X0105040Y0044600D03*
X0105040Y0044400D03*
X0105040Y0044200D03*
X0105040Y0044000D03*
X0104200Y0044000D03*
X0104200Y0044600D03*
X0104200Y0045400D03*
X0105040Y0046000D03*
X0106160Y0047200D03*
X0106160Y0047400D03*
X0106160Y0047600D03*
X0106160Y0047800D03*
X0106160Y0048000D03*
X0106160Y0048200D03*
X0106160Y0048400D03*
X0105000Y0048400D03*
X0104240Y0048400D03*
X0103040Y0047800D03*
X0101160Y0048000D03*
X0101160Y0048200D03*
X0101160Y0048400D03*
X0100400Y0048400D03*
X0100400Y0048200D03*
X0100400Y0048000D03*
X0100400Y0047800D03*
X0101160Y0047000D03*
X0101160Y0046800D03*
X0101160Y0046600D03*
X0101160Y0046400D03*
X0101160Y0046200D03*
X0101160Y0046000D03*
X0101160Y0045200D03*
X0101160Y0045000D03*
X0101160Y0044800D03*
X0101160Y0044600D03*
X0101160Y0044400D03*
X0101160Y0044200D03*
X0101160Y0044000D03*
X0109400Y0045800D03*
X0110400Y0045400D03*
X0110760Y0047800D03*
X0110800Y0048200D03*
X0110760Y0048400D03*
X0109560Y0048400D03*
X0109560Y0048200D03*
X0109560Y0048000D03*
X0109560Y0047800D03*
X0112200Y0045400D03*
X0112200Y0044600D03*
X0113040Y0044600D03*
X0113040Y0044800D03*
X0113040Y0045000D03*
X0113040Y0045200D03*
X0113040Y0046000D03*
X0113560Y0047200D03*
X0113560Y0047400D03*
X0113560Y0047600D03*
X0113560Y0047800D03*
X0113560Y0048000D03*
X0113560Y0048200D03*
X0113560Y0048400D03*
X0114840Y0048200D03*
X0114840Y0048000D03*
X0116560Y0048400D03*
X0116640Y0048600D03*
X0114440Y0045400D03*
X0114440Y0044600D03*
X0113040Y0044400D03*
X0113040Y0044200D03*
X0113040Y0044000D03*
D200*
X0110480Y0045600D03*
X0110520Y0045800D03*
X0111520Y0048000D03*
X0111520Y0048200D03*
X0111520Y0048400D03*
X0111520Y0048600D03*
X0111520Y0048800D03*
X0111520Y0049000D03*
X0112720Y0049000D03*
X0112720Y0048800D03*
X0112720Y0048600D03*
X0112720Y0048400D03*
X0112720Y0048200D03*
X0112720Y0048000D03*
X0114880Y0047800D03*
X0114880Y0048400D03*
X0108920Y0047800D03*
X0108320Y0045600D03*
X0102320Y0045200D03*
X0102320Y0045000D03*
X0102320Y0044800D03*
X0102320Y0044600D03*
X0102320Y0044400D03*
X0102320Y0044200D03*
X0102320Y0044000D03*
X0102320Y0047800D03*
X0102320Y0048000D03*
X0102320Y0048200D03*
X0102320Y0048400D03*
D201*
X0103520Y0044000D03*
X0111520Y0044000D03*
X0115080Y0044000D03*
D202*
X0115020Y0046000D03*
X0110660Y0047600D03*
X0109380Y0045600D03*
X0106860Y0044000D03*
X0107860Y0048400D03*
X0104020Y0050800D03*
X0103140Y0047600D03*
X0102220Y0047600D03*
X0112940Y0050800D03*
D203*
X0108800Y0044000D03*
X0106200Y0051400D03*
X0099200Y0048200D03*
D204*
X0099220Y0048400D03*
X0099220Y0048000D03*
X0099220Y0047800D03*
X0103020Y0048400D03*
X0104980Y0048200D03*
X0104980Y0048000D03*
X0104980Y0047800D03*
X0104980Y0047600D03*
X0104980Y0047400D03*
X0104980Y0047200D03*
X0103020Y0044600D03*
X0108420Y0045200D03*
X0108500Y0045000D03*
X0109100Y0045000D03*
X0110300Y0045000D03*
X0110340Y0045200D03*
X0111020Y0044600D03*
X0109980Y0044000D03*
X0112220Y0044000D03*
X0110780Y0048000D03*
X0115940Y0047600D03*
X0116580Y0047800D03*
X0117740Y0048400D03*
D205*
X0117600Y0047560D03*
X0116600Y0047720D03*
X0116600Y0047760D03*
X0116560Y0047840D03*
X0116560Y0047880D03*
X0116560Y0048360D03*
X0116600Y0048520D03*
X0114840Y0048360D03*
X0114840Y0048320D03*
X0114840Y0048280D03*
X0114840Y0048240D03*
X0114840Y0048160D03*
X0114840Y0048120D03*
X0114840Y0048080D03*
X0114840Y0048040D03*
X0114840Y0047960D03*
X0114840Y0047920D03*
X0114840Y0047880D03*
X0113560Y0047880D03*
X0113560Y0047920D03*
X0113560Y0047960D03*
X0113560Y0048040D03*
X0113560Y0048080D03*
X0113560Y0048120D03*
X0113560Y0048160D03*
X0113560Y0048240D03*
X0113560Y0048280D03*
X0113560Y0048320D03*
X0113560Y0048360D03*
X0113560Y0048440D03*
X0113560Y0048480D03*
X0113560Y0049080D03*
X0113560Y0049120D03*
X0113560Y0047840D03*
X0113560Y0047760D03*
X0113560Y0047720D03*
X0113560Y0047680D03*
X0113560Y0047640D03*
X0113560Y0047560D03*
X0113560Y0047520D03*
X0113560Y0047480D03*
X0113560Y0047440D03*
X0113560Y0047360D03*
X0113560Y0047320D03*
X0113560Y0047280D03*
X0113560Y0047240D03*
X0113560Y0047160D03*
X0113560Y0047120D03*
X0113040Y0045960D03*
X0113040Y0045920D03*
X0113040Y0045240D03*
X0113040Y0045160D03*
X0113040Y0045120D03*
X0113040Y0045080D03*
X0113040Y0045040D03*
X0113040Y0044960D03*
X0113040Y0044920D03*
X0113040Y0044880D03*
X0113040Y0044840D03*
X0113040Y0044760D03*
X0113040Y0044720D03*
X0113040Y0044680D03*
X0113040Y0044640D03*
X0113040Y0044560D03*
X0113040Y0044520D03*
X0113040Y0044480D03*
X0113040Y0044440D03*
X0113040Y0044360D03*
X0113040Y0044320D03*
X0113040Y0044280D03*
X0113040Y0044240D03*
X0113040Y0044160D03*
X0113040Y0044120D03*
X0113040Y0044080D03*
X0113040Y0044040D03*
X0112200Y0044520D03*
X0112200Y0044560D03*
X0112200Y0044640D03*
X0112200Y0044680D03*
X0112200Y0045240D03*
X0112200Y0045440D03*
X0112200Y0045480D03*
X0111040Y0044720D03*
X0111040Y0044520D03*
X0111040Y0044480D03*
X0110360Y0045240D03*
X0110400Y0045360D03*
X0110440Y0045480D03*
X0110440Y0045520D03*
X0110440Y0045560D03*
X0110560Y0045880D03*
X0110560Y0045920D03*
X0110760Y0047760D03*
X0110760Y0047840D03*
X0110760Y0047880D03*
X0110800Y0048040D03*
X0110800Y0048080D03*
X0110800Y0048120D03*
X0110800Y0048160D03*
X0110760Y0048360D03*
X0110760Y0048440D03*
X0110760Y0048480D03*
X0109600Y0048480D03*
X0109600Y0048520D03*
X0109560Y0048440D03*
X0109560Y0048360D03*
X0109560Y0048320D03*
X0109560Y0048280D03*
X0109560Y0048240D03*
X0109560Y0048160D03*
X0109560Y0048120D03*
X0109560Y0048080D03*
X0109560Y0048040D03*
X0109560Y0047960D03*
X0109560Y0047920D03*
X0109560Y0047880D03*
X0109560Y0047840D03*
X0109600Y0047760D03*
X0109600Y0047720D03*
X0108200Y0045960D03*
X0108240Y0045880D03*
X0108240Y0045840D03*
X0108360Y0045480D03*
X0108360Y0045440D03*
X0108400Y0045320D03*
X0108400Y0045280D03*
X0108440Y0045160D03*
X0107560Y0045160D03*
X0107560Y0045120D03*
X0107560Y0045080D03*
X0107560Y0045040D03*
X0107560Y0044960D03*
X0107560Y0044920D03*
X0107560Y0044880D03*
X0107560Y0044840D03*
X0107560Y0044760D03*
X0107560Y0044720D03*
X0107560Y0044680D03*
X0107560Y0045240D03*
X0107560Y0045280D03*
X0107560Y0045320D03*
X0107560Y0045960D03*
X0107560Y0046040D03*
X0107560Y0046080D03*
X0107560Y0046120D03*
X0107560Y0046160D03*
X0107560Y0046240D03*
X0107560Y0046280D03*
X0107560Y0046320D03*
X0107560Y0046360D03*
X0107560Y0046440D03*
X0107560Y0046480D03*
X0107560Y0046520D03*
X0107560Y0046560D03*
X0107560Y0046640D03*
X0107560Y0046680D03*
X0107560Y0046720D03*
X0107560Y0046760D03*
X0106160Y0047080D03*
X0106160Y0047120D03*
X0106160Y0047160D03*
X0106160Y0047240D03*
X0106160Y0047280D03*
X0106160Y0047320D03*
X0106160Y0047360D03*
X0106160Y0047440D03*
X0106160Y0047480D03*
X0106160Y0047520D03*
X0106160Y0047560D03*
X0106160Y0047640D03*
X0106160Y0047680D03*
X0106160Y0047720D03*
X0106160Y0047760D03*
X0106160Y0047840D03*
X0106160Y0047880D03*
X0106160Y0047920D03*
X0106160Y0047960D03*
X0106160Y0048040D03*
X0106160Y0048080D03*
X0106160Y0048120D03*
X0106160Y0048160D03*
X0106160Y0048240D03*
X0106160Y0048280D03*
X0106160Y0048320D03*
X0106160Y0048360D03*
X0106160Y0048440D03*
X0105000Y0048440D03*
X0105000Y0048480D03*
X0104200Y0048480D03*
X0104200Y0048520D03*
X0104200Y0048440D03*
X0103040Y0048440D03*
X0103040Y0048480D03*
X0103040Y0048360D03*
X0103040Y0047840D03*
X0103040Y0047760D03*
X0103040Y0047720D03*
X0104200Y0045480D03*
X0104200Y0045440D03*
X0104200Y0045360D03*
X0104200Y0045320D03*
X0104200Y0045280D03*
X0104200Y0045240D03*
X0104200Y0044760D03*
X0104200Y0044720D03*
X0104200Y0044680D03*
X0104200Y0044640D03*
X0104200Y0044560D03*
X0104200Y0044520D03*
X0105040Y0044520D03*
X0105040Y0044560D03*
X0105040Y0044640D03*
X0105040Y0044680D03*
X0105040Y0044720D03*
X0105040Y0044760D03*
X0105040Y0044840D03*
X0105040Y0044880D03*
X0105040Y0044920D03*
X0105040Y0044960D03*
X0105040Y0045040D03*
X0105040Y0045080D03*
X0105040Y0045120D03*
X0105040Y0045160D03*
X0105040Y0045240D03*
X0105040Y0045280D03*
X0105040Y0045920D03*
X0105040Y0045960D03*
X0105040Y0044480D03*
X0105040Y0044440D03*
X0105040Y0044360D03*
X0105040Y0044320D03*
X0105040Y0044280D03*
X0105040Y0044240D03*
X0105040Y0044160D03*
X0105040Y0044120D03*
X0105040Y0044080D03*
X0105040Y0044040D03*
X0106400Y0044680D03*
X0106400Y0044720D03*
X0106400Y0044760D03*
X0106400Y0044840D03*
X0106400Y0044880D03*
X0106400Y0044920D03*
X0106400Y0044960D03*
X0106400Y0045040D03*
X0106400Y0045080D03*
X0106400Y0045120D03*
X0106400Y0045160D03*
X0106400Y0045240D03*
X0106400Y0045280D03*
X0106400Y0045320D03*
X0107560Y0044040D03*
X0108800Y0044080D03*
X0108800Y0044120D03*
X0110000Y0044080D03*
X0107760Y0048480D03*
X0107760Y0048520D03*
X0107760Y0048560D03*
X0107800Y0048640D03*
X0104000Y0050760D03*
X0101160Y0049120D03*
X0101160Y0049080D03*
X0101160Y0048360D03*
X0101160Y0048320D03*
X0101160Y0048280D03*
X0101160Y0048240D03*
X0101160Y0048160D03*
X0101160Y0048120D03*
X0101160Y0048080D03*
X0101160Y0048040D03*
X0101160Y0047960D03*
X0101160Y0047920D03*
X0101160Y0047880D03*
X0101160Y0047840D03*
X0101160Y0047160D03*
X0101160Y0047120D03*
X0101160Y0047080D03*
X0101160Y0047040D03*
X0101160Y0046960D03*
X0101160Y0046920D03*
X0101160Y0046880D03*
X0101160Y0046840D03*
X0101160Y0046760D03*
X0101160Y0046720D03*
X0101160Y0046680D03*
X0101160Y0046640D03*
X0101160Y0046560D03*
X0101160Y0046520D03*
X0101160Y0046480D03*
X0101160Y0046440D03*
X0101160Y0046360D03*
X0101160Y0046320D03*
X0101160Y0046280D03*
X0101160Y0046240D03*
X0101160Y0046160D03*
X0101160Y0046120D03*
X0101160Y0046080D03*
X0101160Y0046040D03*
X0101160Y0045960D03*
X0101160Y0045320D03*
X0101160Y0045280D03*
X0101160Y0045240D03*
X0101160Y0045160D03*
X0101160Y0045120D03*
X0101160Y0045080D03*
X0101160Y0045040D03*
X0101160Y0044960D03*
X0101160Y0044920D03*
X0101160Y0044880D03*
X0101160Y0044840D03*
X0101160Y0044760D03*
X0101160Y0044720D03*
X0101160Y0044680D03*
X0101160Y0044640D03*
X0101160Y0044560D03*
X0101160Y0044520D03*
X0101160Y0044480D03*
X0101160Y0044440D03*
X0101160Y0044360D03*
X0101160Y0044320D03*
X0101160Y0044280D03*
X0101160Y0044240D03*
X0101160Y0044160D03*
X0101160Y0044120D03*
X0101160Y0044080D03*
X0101160Y0044040D03*
X0103040Y0044480D03*
X0103040Y0044720D03*
X0100400Y0047840D03*
X0100400Y0047880D03*
X0100400Y0047920D03*
X0100400Y0047960D03*
X0100400Y0048040D03*
X0100400Y0048080D03*
X0100400Y0048120D03*
X0100400Y0048160D03*
X0100400Y0048240D03*
X0100400Y0048280D03*
X0100400Y0048320D03*
X0100400Y0048360D03*
X0100400Y0048440D03*
X0100360Y0048520D03*
X0100360Y0047720D03*
X0099240Y0047720D03*
X0099240Y0048520D03*
X0112960Y0050760D03*
X0114440Y0045360D03*
X0114400Y0044760D03*
X0114440Y0044640D03*
X0115600Y0045240D03*
X0115600Y0045280D03*
X0115600Y0045320D03*
X0115600Y0045360D03*
D206*
X0114480Y0045440D03*
X0114480Y0044560D03*
X0114880Y0047840D03*
X0114880Y0048440D03*
X0112720Y0048440D03*
X0112720Y0048480D03*
X0112720Y0048520D03*
X0112720Y0048560D03*
X0112720Y0048640D03*
X0112720Y0048680D03*
X0112720Y0048720D03*
X0112720Y0048760D03*
X0112720Y0048840D03*
X0112720Y0048880D03*
X0112720Y0048920D03*
X0112720Y0048960D03*
X0112720Y0049040D03*
X0112720Y0049080D03*
X0112720Y0049120D03*
X0112720Y0048360D03*
X0112720Y0048320D03*
X0112720Y0048280D03*
X0112720Y0048240D03*
X0112720Y0048160D03*
X0112720Y0048120D03*
X0112720Y0048080D03*
X0112720Y0048040D03*
X0112720Y0047960D03*
X0112720Y0047920D03*
X0112720Y0047880D03*
X0112720Y0047840D03*
X0112720Y0047160D03*
X0112720Y0047120D03*
X0111520Y0047840D03*
X0111520Y0047880D03*
X0111520Y0047920D03*
X0111520Y0047960D03*
X0111520Y0048040D03*
X0111520Y0048080D03*
X0111520Y0048120D03*
X0111520Y0048160D03*
X0111520Y0048240D03*
X0111520Y0048280D03*
X0111520Y0048320D03*
X0111520Y0048360D03*
X0111520Y0048440D03*
X0111520Y0048480D03*
X0111520Y0048520D03*
X0111520Y0048560D03*
X0111520Y0048640D03*
X0111520Y0048680D03*
X0111520Y0048720D03*
X0111520Y0048760D03*
X0111520Y0048840D03*
X0111520Y0048880D03*
X0111520Y0048920D03*
X0111520Y0048960D03*
X0111520Y0049040D03*
X0111520Y0049080D03*
X0111520Y0049120D03*
X0108920Y0047760D03*
X0108920Y0047720D03*
X0108920Y0047680D03*
X0108320Y0047080D03*
X0108280Y0045720D03*
X0108280Y0045680D03*
X0108280Y0045640D03*
X0108320Y0045560D03*
X0108320Y0045520D03*
X0108480Y0045040D03*
X0110280Y0044960D03*
X0110320Y0045080D03*
X0110320Y0045120D03*
X0110480Y0045640D03*
X0110480Y0045680D03*
X0110520Y0045720D03*
X0110520Y0045760D03*
X0108320Y0049160D03*
X0104080Y0047560D03*
X0103080Y0047680D03*
X0102320Y0047840D03*
X0102320Y0047880D03*
X0102320Y0047920D03*
X0102320Y0047960D03*
X0102320Y0048040D03*
X0102320Y0048080D03*
X0102320Y0048160D03*
X0102320Y0048240D03*
X0102320Y0048280D03*
X0102320Y0048320D03*
X0102320Y0048360D03*
X0102320Y0048440D03*
X0103080Y0048560D03*
X0102320Y0045360D03*
X0102320Y0045320D03*
X0102320Y0045280D03*
X0102320Y0045240D03*
X0102320Y0045160D03*
X0102320Y0045120D03*
X0102320Y0045080D03*
X0102320Y0045040D03*
X0102320Y0044960D03*
X0102320Y0044920D03*
X0102320Y0044880D03*
X0102320Y0044840D03*
X0102320Y0044760D03*
X0102320Y0044720D03*
X0102320Y0044680D03*
X0102320Y0044640D03*
X0102320Y0044560D03*
X0102320Y0044520D03*
X0102320Y0044480D03*
X0102320Y0044440D03*
X0102320Y0044360D03*
X0102320Y0044320D03*
X0102320Y0044280D03*
X0102320Y0044240D03*
X0102320Y0044160D03*
X0102320Y0044120D03*
X0102320Y0044080D03*
X0102320Y0044040D03*
X0117720Y0048520D03*
X0117720Y0048560D03*
D207*
X0115520Y0048880D03*
X0115520Y0047360D03*
X0114000Y0048920D03*
X0114000Y0049040D03*
X0113480Y0045760D03*
X0111760Y0045120D03*
X0111760Y0044040D03*
X0108280Y0047280D03*
X0108400Y0048080D03*
X0108360Y0048120D03*
X0108320Y0048160D03*
X0108360Y0048960D03*
X0110160Y0048840D03*
X0107120Y0045920D03*
X0105480Y0045760D03*
X0107120Y0044080D03*
X0103760Y0044040D03*
X0103760Y0045120D03*
X0101600Y0045920D03*
X0101600Y0049040D03*
X0099800Y0048840D03*
X0103640Y0048840D03*
X0105440Y0049040D03*
D208*
X0106100Y0051560D03*
X0108340Y0049120D03*
X0108300Y0047120D03*
X0109380Y0045360D03*
X0109980Y0044560D03*
X0109980Y0044520D03*
X0108780Y0044520D03*
X0108780Y0044560D03*
X0107420Y0044440D03*
X0106860Y0044040D03*
X0110860Y0051560D03*
X0115020Y0045960D03*
X0112900Y0062240D03*
X0104060Y0062240D03*
D209*
X0104020Y0062360D03*
X0112940Y0062360D03*
X0112700Y0049160D03*
X0113540Y0049160D03*
X0113540Y0047080D03*
X0112700Y0047080D03*
X0111580Y0046040D03*
X0112220Y0045360D03*
X0112220Y0045320D03*
X0112220Y0045280D03*
X0112220Y0044760D03*
X0112220Y0044720D03*
X0111020Y0044680D03*
X0111020Y0044640D03*
X0111020Y0044560D03*
X0110260Y0044880D03*
X0110260Y0044920D03*
X0110300Y0045040D03*
X0110340Y0045160D03*
X0110380Y0045280D03*
X0110380Y0045320D03*
X0110420Y0045440D03*
X0109660Y0045080D03*
X0109660Y0045040D03*
X0109700Y0044960D03*
X0109700Y0044920D03*
X0109140Y0045120D03*
X0109140Y0045160D03*
X0109060Y0044880D03*
X0108540Y0044880D03*
X0108540Y0044840D03*
X0108500Y0044920D03*
X0108500Y0044960D03*
X0108460Y0045080D03*
X0108460Y0045120D03*
X0108420Y0045240D03*
X0108380Y0045360D03*
X0109380Y0045840D03*
X0109380Y0045880D03*
X0110180Y0047080D03*
X0110780Y0047920D03*
X0110780Y0047960D03*
X0110780Y0048240D03*
X0110780Y0048280D03*
X0110780Y0048320D03*
X0110180Y0049160D03*
X0111540Y0049160D03*
X0108740Y0048680D03*
X0107580Y0046840D03*
X0104980Y0047080D03*
X0104980Y0047120D03*
X0104980Y0047160D03*
X0104980Y0047240D03*
X0104980Y0047280D03*
X0104980Y0047320D03*
X0104980Y0047360D03*
X0104980Y0047440D03*
X0104980Y0047480D03*
X0104980Y0047520D03*
X0104980Y0047560D03*
X0104980Y0047640D03*
X0104980Y0047680D03*
X0104980Y0047720D03*
X0104980Y0047760D03*
X0104980Y0047840D03*
X0104980Y0047880D03*
X0104980Y0047920D03*
X0104980Y0047960D03*
X0104980Y0048040D03*
X0104980Y0048080D03*
X0104980Y0048120D03*
X0104980Y0048160D03*
X0104980Y0048240D03*
X0104980Y0048280D03*
X0104980Y0048320D03*
X0104980Y0048360D03*
X0104980Y0049080D03*
X0104980Y0049120D03*
X0104980Y0049160D03*
X0103060Y0048520D03*
X0103020Y0047880D03*
X0102340Y0048120D03*
X0101140Y0049160D03*
X0099780Y0049160D03*
X0099220Y0048480D03*
X0099220Y0048440D03*
X0099220Y0048360D03*
X0099220Y0048320D03*
X0099220Y0048280D03*
X0099220Y0048240D03*
X0099220Y0047960D03*
X0099220Y0047920D03*
X0099220Y0047880D03*
X0099220Y0047840D03*
X0099220Y0047760D03*
X0103580Y0046040D03*
X0103020Y0044680D03*
X0103020Y0044640D03*
X0103020Y0044560D03*
X0103020Y0044520D03*
X0108780Y0044040D03*
X0109980Y0044040D03*
X0114420Y0044680D03*
X0114420Y0044720D03*
X0114420Y0045240D03*
X0114420Y0045280D03*
X0114420Y0045320D03*
X0115460Y0044440D03*
X0117220Y0047080D03*
X0117740Y0048360D03*
X0117740Y0048440D03*
X0117740Y0048480D03*
X0116580Y0048480D03*
X0116580Y0048440D03*
X0115540Y0049160D03*
D210*
X0117180Y0049040D03*
X0117220Y0047160D03*
X0115020Y0045920D03*
X0115060Y0044040D03*
X0108780Y0044760D03*
X0103620Y0049040D03*
D211*
X0101620Y0047240D03*
X0101620Y0045880D03*
X0103740Y0044080D03*
X0108380Y0048920D03*
X0110180Y0047440D03*
X0111620Y0045760D03*
X0111740Y0045080D03*
X0111740Y0044080D03*
X0115020Y0045680D03*
X0117220Y0047360D03*
X0114020Y0048960D03*
X0112860Y0051120D03*
D212*
X0108600Y0047920D03*
X0115080Y0044080D03*
X0112880Y0062120D03*
X0104080Y0062120D03*
X0099800Y0047240D03*
D213*
X0101660Y0047320D03*
X0101660Y0048920D03*
X0103660Y0047480D03*
X0103700Y0045040D03*
X0103700Y0044120D03*
X0105500Y0048920D03*
X0104100Y0051160D03*
X0108300Y0048760D03*
X0111660Y0045680D03*
X0111700Y0045040D03*
X0111700Y0044160D03*
X0115060Y0044360D03*
X0115100Y0044280D03*
X0115540Y0047440D03*
X0115460Y0047560D03*
X0115460Y0048680D03*
X0112860Y0051160D03*
D214*
X0107100Y0045880D03*
X0107100Y0044120D03*
X0103700Y0047360D03*
X0104100Y0051120D03*
D215*
X0104180Y0048560D03*
X0104220Y0048360D03*
X0105020Y0048520D03*
X0105020Y0048560D03*
X0106140Y0048520D03*
X0106140Y0048480D03*
X0107780Y0048440D03*
X0108900Y0047840D03*
X0108900Y0047640D03*
X0109620Y0047680D03*
X0109620Y0048560D03*
X0110740Y0048560D03*
X0110740Y0048520D03*
X0110740Y0047720D03*
X0110740Y0047680D03*
X0110700Y0047640D03*
X0111540Y0047760D03*
X0111580Y0047720D03*
X0111580Y0047680D03*
X0112700Y0047760D03*
X0113580Y0048520D03*
X0114900Y0048520D03*
X0114900Y0048480D03*
X0114940Y0048560D03*
X0114900Y0047760D03*
X0114900Y0047720D03*
X0114940Y0047680D03*
X0116620Y0047680D03*
X0116660Y0047640D03*
X0116620Y0048560D03*
X0115540Y0045480D03*
X0115580Y0045440D03*
X0114500Y0045480D03*
X0114500Y0044520D03*
X0113060Y0045280D03*
X0113060Y0045320D03*
X0113060Y0045360D03*
X0112180Y0045520D03*
X0112180Y0044480D03*
X0110540Y0045840D03*
X0110580Y0045960D03*
X0109380Y0045760D03*
X0109380Y0045720D03*
X0108260Y0045760D03*
X0108220Y0045920D03*
X0107540Y0045360D03*
X0107540Y0044640D03*
X0107540Y0044560D03*
X0106460Y0044520D03*
X0106420Y0044560D03*
X0106420Y0044640D03*
X0106420Y0045360D03*
X0105060Y0045360D03*
X0105060Y0045320D03*
X0104180Y0045520D03*
X0104180Y0044480D03*
X0103100Y0047640D03*
X0102300Y0047680D03*
X0102300Y0047720D03*
X0102300Y0047760D03*
X0102300Y0048480D03*
X0102300Y0048520D03*
X0102300Y0048560D03*
X0101180Y0048520D03*
X0101180Y0048480D03*
X0101180Y0048440D03*
X0101180Y0047760D03*
X0101180Y0047720D03*
X0100380Y0047760D03*
X0100340Y0047680D03*
X0100380Y0048480D03*
X0100340Y0048560D03*
X0099260Y0048560D03*
X0099260Y0047680D03*
X0101180Y0045360D03*
X0106180Y0051440D03*
X0110780Y0051440D03*
X0109980Y0044160D03*
X0109980Y0044120D03*
X0108780Y0044160D03*
D216*
X0107080Y0044160D03*
X0107080Y0045840D03*
X0105520Y0045840D03*
X0105520Y0045880D03*
X0103680Y0045640D03*
X0103600Y0045760D03*
X0103720Y0045080D03*
X0101640Y0045840D03*
X0101640Y0047280D03*
X0101640Y0048960D03*
X0099800Y0048760D03*
X0099800Y0047480D03*
X0099800Y0047440D03*
X0103640Y0048760D03*
X0105480Y0048960D03*
X0108280Y0048720D03*
X0108280Y0047320D03*
X0111680Y0045640D03*
X0111720Y0044120D03*
X0113520Y0045840D03*
X0113520Y0045880D03*
X0115040Y0045640D03*
X0115080Y0044240D03*
X0117160Y0047520D03*
X0117160Y0048760D03*
X0115520Y0048840D03*
X0112240Y0047240D03*
X0112840Y0061960D03*
X0104120Y0061960D03*
D217*
X0103620Y0048960D03*
X0099780Y0048960D03*
X0110180Y0048960D03*
X0110180Y0047280D03*
X0113900Y0048680D03*
X0117180Y0048960D03*
X0117220Y0047240D03*
X0115060Y0044120D03*
D218*
X0115080Y0044320D03*
X0115520Y0047480D03*
X0115480Y0047520D03*
X0115480Y0048720D03*
X0115520Y0048760D03*
X0117200Y0047480D03*
X0112200Y0047360D03*
X0112200Y0047320D03*
X0111680Y0044960D03*
X0110160Y0047520D03*
X0110160Y0048720D03*
X0108360Y0048840D03*
X0105520Y0048840D03*
X0105520Y0048880D03*
X0103680Y0047440D03*
X0103640Y0045680D03*
X0103680Y0044160D03*
X0101680Y0045720D03*
X0101680Y0045760D03*
X0101680Y0047360D03*
X0101680Y0048880D03*
X0099800Y0048720D03*
X0099800Y0048680D03*
X0099800Y0047560D03*
X0099800Y0047520D03*
X0107040Y0045760D03*
X0107040Y0045720D03*
X0107040Y0044240D03*
X0104120Y0061920D03*
X0112840Y0061920D03*
D219*
X0112880Y0051080D03*
X0115520Y0048920D03*
X0115520Y0047320D03*
X0115080Y0044160D03*
X0104080Y0051080D03*
D220*
X0103680Y0045000D03*
X0103680Y0044200D03*
X0111680Y0044200D03*
X0111680Y0045000D03*
D221*
X0108340Y0048800D03*
X0107060Y0045800D03*
X0107060Y0044200D03*
X0103700Y0047400D03*
X0101660Y0045800D03*
X0115540Y0048800D03*
D222*
X0114960Y0048600D03*
X0113600Y0048600D03*
X0113760Y0046000D03*
X0113080Y0045400D03*
X0116680Y0047600D03*
X0109640Y0048600D03*
X0108880Y0047600D03*
X0106080Y0048600D03*
X0105040Y0048600D03*
X0104160Y0048600D03*
X0102280Y0048600D03*
X0101200Y0048600D03*
X0100320Y0048600D03*
X0099280Y0048600D03*
X0105760Y0046000D03*
X0108800Y0044200D03*
D223*
X0109980Y0044200D03*
X0110580Y0046000D03*
X0111540Y0047800D03*
X0110700Y0048600D03*
X0112700Y0047800D03*
X0115580Y0045400D03*
X0117700Y0048600D03*
X0107540Y0045400D03*
X0107540Y0044600D03*
X0106420Y0044600D03*
X0106420Y0045400D03*
X0106860Y0046000D03*
X0105060Y0045400D03*
X0102300Y0045400D03*
X0101860Y0046000D03*
X0101180Y0045400D03*
X0101180Y0047800D03*
X0103100Y0048600D03*
D224*
X0101600Y0047200D03*
X0099800Y0047400D03*
X0108280Y0048200D03*
X0110160Y0047400D03*
X0111640Y0045800D03*
X0112280Y0047200D03*
X0115080Y0044200D03*
D225*
X0111660Y0044240D03*
X0111660Y0044280D03*
X0111660Y0044920D03*
X0110180Y0047560D03*
X0110180Y0048680D03*
X0108260Y0047360D03*
X0107020Y0045680D03*
X0107020Y0045640D03*
X0107020Y0044360D03*
X0107020Y0044320D03*
X0107020Y0044280D03*
X0103660Y0044240D03*
X0103660Y0044920D03*
X0103660Y0044960D03*
X0101700Y0045680D03*
X0101700Y0047440D03*
X0101700Y0048840D03*
X0105540Y0048760D03*
D226*
X0105680Y0049120D03*
X0106120Y0048560D03*
X0107840Y0048680D03*
X0109680Y0048640D03*
X0109640Y0047640D03*
X0111600Y0047640D03*
X0112000Y0047120D03*
X0112680Y0047680D03*
X0112680Y0047720D03*
X0113600Y0048560D03*
X0114240Y0049120D03*
X0114960Y0047640D03*
X0116680Y0048640D03*
X0117680Y0048640D03*
X0115520Y0045520D03*
X0114520Y0045520D03*
X0114520Y0044480D03*
X0113080Y0045440D03*
X0111080Y0044760D03*
X0111080Y0044440D03*
X0109400Y0045680D03*
X0108800Y0044240D03*
X0107520Y0044520D03*
X0107520Y0045440D03*
X0106480Y0045480D03*
X0106440Y0045440D03*
X0106480Y0044480D03*
X0105080Y0045440D03*
X0103080Y0044760D03*
X0103080Y0044440D03*
X0102280Y0045440D03*
X0101200Y0045440D03*
X0101880Y0047120D03*
X0102280Y0047640D03*
X0102240Y0048640D03*
X0103120Y0048640D03*
X0104120Y0048640D03*
X0101200Y0048560D03*
X0101200Y0047680D03*
X0100320Y0047640D03*
X0099280Y0047640D03*
X0104040Y0062320D03*
X0112920Y0062320D03*
D227*
X0110820Y0051480D03*
X0110660Y0048640D03*
X0112660Y0047640D03*
X0112140Y0044440D03*
X0109980Y0044320D03*
X0109980Y0044280D03*
X0109980Y0044240D03*
X0108780Y0044280D03*
X0109380Y0045640D03*
X0106060Y0048640D03*
X0106140Y0051480D03*
X0103180Y0048680D03*
X0101860Y0049120D03*
X0101220Y0047640D03*
X0101220Y0045480D03*
X0102260Y0045480D03*
X0104140Y0044440D03*
X0114580Y0044440D03*
X0117620Y0048680D03*
D228*
X0112160Y0047520D03*
X0112160Y0047480D03*
X0112160Y0047440D03*
X0111640Y0044880D03*
X0111640Y0044840D03*
X0111640Y0044360D03*
X0111640Y0044320D03*
X0105560Y0048680D03*
X0105560Y0048720D03*
X0103640Y0044880D03*
X0103640Y0044840D03*
X0103640Y0044320D03*
X0103640Y0044280D03*
X0101720Y0045560D03*
X0101720Y0045640D03*
X0101720Y0047480D03*
X0101720Y0047520D03*
X0101720Y0047560D03*
X0101720Y0048680D03*
X0101720Y0048720D03*
X0101720Y0048760D03*
D229*
X0101240Y0048640D03*
X0099800Y0049120D03*
X0099800Y0047120D03*
X0101240Y0045520D03*
X0102240Y0045520D03*
X0103200Y0047560D03*
X0104080Y0048680D03*
X0103640Y0049120D03*
X0105080Y0048640D03*
X0107800Y0047560D03*
X0108840Y0047560D03*
X0110160Y0047120D03*
X0109400Y0045560D03*
X0108800Y0044360D03*
X0108800Y0044320D03*
X0110000Y0044360D03*
X0112120Y0045560D03*
X0114600Y0045560D03*
X0115520Y0047120D03*
X0115000Y0048640D03*
X0115520Y0049120D03*
X0117160Y0049120D03*
X0113640Y0048640D03*
X0107480Y0045520D03*
X0104040Y0062280D03*
X0112920Y0062280D03*
D230*
X0112820Y0061880D03*
X0104140Y0061880D03*
X0112140Y0047560D03*
X0117140Y0047920D03*
X0117140Y0047960D03*
X0117140Y0048040D03*
X0117140Y0048080D03*
X0117140Y0048120D03*
X0117140Y0048160D03*
X0117140Y0048240D03*
X0117140Y0048280D03*
X0117140Y0048320D03*
X0103620Y0044360D03*
D231*
X0103620Y0044400D03*
X0103620Y0044800D03*
X0108260Y0047400D03*
X0111620Y0044400D03*
X0117140Y0048000D03*
X0117140Y0048200D03*
D232*
X0107000Y0045600D03*
X0107000Y0044400D03*
D233*
X0108780Y0044400D03*
X0109980Y0044400D03*
X0112620Y0047600D03*
D234*
X0115000Y0044400D03*
X0115520Y0047400D03*
X0117240Y0047400D03*
X0099800Y0048800D03*
D235*
X0101880Y0049080D03*
X0101880Y0047160D03*
X0103680Y0047120D03*
X0105680Y0049080D03*
X0106120Y0051520D03*
X0109400Y0045440D03*
X0108800Y0044480D03*
X0110000Y0044480D03*
X0112000Y0047160D03*
X0114240Y0049080D03*
X0110840Y0051520D03*
X0106560Y0044440D03*
D236*
X0108780Y0044440D03*
X0109980Y0044440D03*
X0109380Y0045480D03*
X0109380Y0045520D03*
X0108820Y0047880D03*
X0110180Y0049120D03*
X0104020Y0050840D03*
X0117220Y0047120D03*
D237*
X0116700Y0048680D03*
X0113100Y0045480D03*
X0107500Y0045480D03*
X0107500Y0044480D03*
X0106500Y0045520D03*
X0105100Y0045480D03*
X0104100Y0045560D03*
X0100300Y0048640D03*
X0099300Y0048640D03*
D238*
X0104000Y0050680D03*
X0106240Y0051360D03*
X0108800Y0048640D03*
X0106840Y0046040D03*
X0105760Y0046040D03*
X0110720Y0051360D03*
X0112960Y0050680D03*
X0112000Y0047080D03*
X0113760Y0046040D03*
X0115480Y0044480D03*
D239*
X0115500Y0044520D03*
X0110700Y0051320D03*
X0104100Y0047640D03*
D240*
X0104100Y0047680D03*
X0103220Y0045480D03*
X0108820Y0048560D03*
X0111220Y0045480D03*
X0114380Y0048640D03*
X0117660Y0047680D03*
X0115500Y0044560D03*
D241*
X0110000Y0044600D03*
X0108800Y0044600D03*
X0103600Y0046000D03*
D242*
X0103980Y0050600D03*
X0112980Y0050600D03*
X0114380Y0048600D03*
X0115500Y0044600D03*
D243*
X0115540Y0047160D03*
X0110180Y0047160D03*
X0110180Y0049080D03*
X0109380Y0045280D03*
X0109380Y0045240D03*
X0109980Y0044680D03*
X0109980Y0044640D03*
X0108780Y0044640D03*
X0108780Y0044680D03*
X0103620Y0049080D03*
X0099780Y0049080D03*
D244*
X0104040Y0050920D03*
X0108800Y0044720D03*
X0110000Y0044720D03*
X0110000Y0044760D03*
D245*
X0109980Y0044800D03*
X0108780Y0044800D03*
D246*
X0111640Y0044800D03*
X0101720Y0045600D03*
D247*
X0103620Y0048000D03*
X0103620Y0048200D03*
X0115020Y0045200D03*
X0115020Y0045000D03*
X0115020Y0044800D03*
D248*
X0115520Y0047080D03*
X0117160Y0049160D03*
X0112960Y0050720D03*
X0111240Y0045560D03*
X0109640Y0045160D03*
X0109640Y0045120D03*
X0109720Y0044880D03*
X0109120Y0045040D03*
X0109120Y0045080D03*
X0109080Y0044960D03*
X0109080Y0044920D03*
X0109040Y0044840D03*
X0103680Y0047080D03*
D249*
X0103600Y0045960D03*
X0099800Y0049040D03*
X0108320Y0049080D03*
X0110160Y0049040D03*
X0111640Y0045960D03*
X0110000Y0044840D03*
X0115520Y0049040D03*
X0112880Y0062160D03*
X0104080Y0062160D03*
D250*
X0104140Y0061840D03*
X0112820Y0061840D03*
X0103620Y0048240D03*
X0103620Y0048160D03*
X0103620Y0048120D03*
X0103620Y0048080D03*
X0103620Y0048040D03*
X0108260Y0047480D03*
X0115020Y0045160D03*
X0115020Y0045120D03*
X0115020Y0045080D03*
X0115020Y0045040D03*
X0115020Y0044960D03*
X0115020Y0044920D03*
X0115020Y0044880D03*
X0115020Y0044840D03*
D251*
X0110760Y0051400D03*
X0109680Y0045000D03*
D252*
X0111640Y0045840D03*
X0111800Y0045160D03*
X0113440Y0045640D03*
X0113440Y0045680D03*
X0113960Y0048840D03*
X0117160Y0048880D03*
X0108200Y0048280D03*
X0105440Y0045680D03*
X0103800Y0045160D03*
X0103640Y0048880D03*
X0099800Y0048880D03*
X0099800Y0047360D03*
D253*
X0103860Y0045200D03*
X0111860Y0045200D03*
D254*
X0109400Y0045200D03*
D255*
X0109400Y0045320D03*
X0099800Y0047160D03*
D256*
X0109380Y0045400D03*
X0111620Y0046000D03*
D257*
X0111220Y0045440D03*
X0113900Y0045480D03*
X0117660Y0047720D03*
X0104100Y0047720D03*
X0103220Y0045440D03*
D258*
X0105880Y0045480D03*
X0107720Y0047760D03*
X0106280Y0051280D03*
X0110680Y0051280D03*
D259*
X0112980Y0050640D03*
X0111220Y0045520D03*
X0106260Y0051320D03*
X0103980Y0050640D03*
X0103220Y0045520D03*
X0117660Y0047640D03*
D260*
X0116740Y0047560D03*
X0115460Y0045560D03*
X0113740Y0045960D03*
X0113140Y0045520D03*
X0112940Y0050840D03*
X0106860Y0045960D03*
X0105740Y0045960D03*
X0105140Y0045520D03*
X0101860Y0045960D03*
D261*
X0105880Y0045520D03*
X0107720Y0047720D03*
X0113880Y0045520D03*
X0115960Y0047680D03*
X0115960Y0048560D03*
X0112960Y0062480D03*
X0104000Y0062480D03*
D262*
X0103620Y0049160D03*
X0101860Y0049160D03*
X0101860Y0047080D03*
X0103220Y0045560D03*
X0105700Y0049160D03*
X0107740Y0047640D03*
X0109380Y0045960D03*
X0115020Y0046040D03*
X0115940Y0048640D03*
X0114260Y0049160D03*
D263*
X0113400Y0045560D03*
X0105400Y0045560D03*
D264*
X0107000Y0045560D03*
D265*
X0105500Y0045800D03*
X0103700Y0045600D03*
X0111700Y0045600D03*
X0113500Y0045800D03*
D266*
X0113420Y0045600D03*
X0108340Y0049000D03*
X0105420Y0045600D03*
D267*
X0115020Y0045600D03*
D268*
X0115020Y0045760D03*
X0117220Y0047280D03*
X0113940Y0048760D03*
X0110180Y0048920D03*
X0110180Y0047320D03*
X0108300Y0047240D03*
X0105420Y0045640D03*
X0103620Y0045880D03*
X0099780Y0047320D03*
X0099780Y0048920D03*
X0104100Y0062040D03*
X0112860Y0062040D03*
D269*
X0110180Y0048760D03*
X0110180Y0047480D03*
X0111620Y0045720D03*
X0112220Y0047280D03*
X0108380Y0048880D03*
X0103620Y0048720D03*
X0103620Y0047520D03*
X0103620Y0045720D03*
X0117220Y0047440D03*
X0117180Y0048720D03*
D270*
X0117180Y0048840D03*
X0117220Y0047320D03*
X0115020Y0045720D03*
X0113460Y0045720D03*
X0113980Y0048880D03*
X0110180Y0048880D03*
X0110180Y0047360D03*
X0108420Y0048040D03*
X0108260Y0048240D03*
X0105460Y0045720D03*
X0103620Y0045840D03*
X0103700Y0047320D03*
D271*
X0103620Y0048800D03*
X0105460Y0049000D03*
X0103620Y0045800D03*
X0101620Y0049000D03*
X0110180Y0048800D03*
X0114020Y0049000D03*
X0117180Y0048800D03*
D272*
X0115040Y0045800D03*
D273*
X0115020Y0045840D03*
X0111620Y0045920D03*
X0110180Y0047240D03*
X0103620Y0045920D03*
D274*
X0103680Y0047280D03*
X0103640Y0048920D03*
X0104080Y0051040D03*
X0108160Y0048320D03*
X0108520Y0047960D03*
X0111640Y0045880D03*
X0113920Y0048720D03*
X0112880Y0051040D03*
X0115520Y0048960D03*
X0117160Y0048920D03*
X0115520Y0047280D03*
D275*
X0115020Y0045880D03*
X0108060Y0048360D03*
X0104060Y0050960D03*
D276*
X0104040Y0050880D03*
X0105760Y0045920D03*
X0112920Y0050880D03*
X0113760Y0045920D03*
X0117160Y0049080D03*
D277*
X0109400Y0045920D03*
X0104000Y0050720D03*
X0099200Y0048160D03*
X0099200Y0048120D03*
X0099200Y0048080D03*
X0099200Y0048040D03*
X0099800Y0047080D03*
D278*
X0104100Y0047600D03*
X0109380Y0046000D03*
X0112940Y0062400D03*
X0104020Y0062400D03*
D279*
X0101860Y0046040D03*
X0115940Y0047640D03*
D280*
X0115520Y0049080D03*
X0112920Y0050920D03*
X0103680Y0047160D03*
D281*
X0108300Y0047160D03*
X0112900Y0050960D03*
D282*
X0110160Y0047200D03*
X0115520Y0047200D03*
X0099800Y0047200D03*
D283*
X0099800Y0049000D03*
X0103640Y0049000D03*
X0103680Y0047200D03*
X0117160Y0049000D03*
D284*
X0115520Y0049000D03*
X0108320Y0047200D03*
D285*
X0117220Y0047200D03*
D286*
X0115520Y0047240D03*
X0108360Y0049040D03*
X0103680Y0047240D03*
X0099800Y0047280D03*
X0104080Y0062080D03*
X0112880Y0062080D03*
D287*
X0112860Y0051200D03*
X0112180Y0047400D03*
X0105540Y0048800D03*
X0104100Y0051200D03*
X0101700Y0048800D03*
X0101700Y0047400D03*
D288*
X0103640Y0047920D03*
X0103640Y0047960D03*
X0103640Y0048280D03*
X0103640Y0048320D03*
X0108240Y0047440D03*
X0112840Y0051240D03*
D289*
X0108280Y0047520D03*
X0104120Y0051240D03*
D290*
X0100300Y0047600D03*
X0099300Y0047600D03*
X0109700Y0047600D03*
D291*
X0111640Y0047600D03*
X0115000Y0047600D03*
X0101240Y0047600D03*
D292*
X0117640Y0047600D03*
D293*
X0107720Y0047680D03*
X0104000Y0062440D03*
X0112960Y0062440D03*
D294*
X0115960Y0048520D03*
X0115960Y0047720D03*
D295*
X0115960Y0047760D03*
X0115960Y0048480D03*
X0108840Y0048520D03*
D296*
X0107720Y0047800D03*
D297*
X0108480Y0048000D03*
D298*
X0108800Y0048600D03*
D299*
X0115940Y0048600D03*
D300*
X0113960Y0048800D03*
D301*
X0110180Y0049000D03*
D302*
X0112900Y0051000D03*
X0104060Y0051000D03*
D303*
X0104120Y0051280D03*
X0112840Y0051280D03*
D304*
X0104140Y0051320D03*
D305*
X0112820Y0051320D03*
D306*
X0112820Y0051360D03*
X0104140Y0051360D03*
D307*
X0104160Y0051400D03*
X0112800Y0051400D03*
D308*
X0112800Y0051440D03*
X0104160Y0051440D03*
X0108480Y0063680D03*
X0108480Y0063720D03*
X0108480Y0063760D03*
X0108480Y0063840D03*
X0108480Y0063880D03*
D309*
X0104180Y0051480D03*
X0112780Y0051480D03*
D310*
X0112780Y0051520D03*
X0104180Y0051520D03*
D311*
X0104200Y0051560D03*
X0112760Y0051560D03*
D312*
X0112760Y0051600D03*
X0104200Y0051600D03*
X0108480Y0062800D03*
D313*
X0112900Y0062200D03*
X0110900Y0051600D03*
X0106060Y0051600D03*
X0104060Y0062200D03*
D314*
X0104700Y0051640D03*
X0112260Y0051640D03*
D315*
X0112280Y0051680D03*
X0104680Y0051680D03*
D316*
X0104680Y0051720D03*
X0108480Y0061760D03*
X0112280Y0051720D03*
D317*
X0111620Y0053440D03*
X0111580Y0053480D03*
X0111580Y0053520D03*
X0111540Y0053560D03*
X0105460Y0053640D03*
X0105460Y0053680D03*
X0105460Y0053720D03*
X0105420Y0053560D03*
X0105380Y0053520D03*
X0105380Y0053480D03*
X0104660Y0051760D03*
D318*
X0111500Y0053640D03*
X0111500Y0053680D03*
X0111500Y0053720D03*
X0112300Y0051760D03*
D319*
X0112300Y0051800D03*
X0111740Y0053200D03*
X0111500Y0053800D03*
X0105460Y0053800D03*
X0104660Y0051800D03*
D320*
X0104640Y0051840D03*
X0105120Y0053040D03*
X0105160Y0053080D03*
X0105200Y0053160D03*
X0105480Y0053840D03*
X0105480Y0053880D03*
X0111480Y0053880D03*
X0111480Y0053840D03*
X0111760Y0053160D03*
X0111800Y0053080D03*
X0111840Y0053040D03*
X0112320Y0051840D03*
D321*
X0112340Y0051880D03*
X0111940Y0052840D03*
X0111900Y0052920D03*
X0111860Y0052960D03*
X0111500Y0053920D03*
X0105460Y0053920D03*
X0105100Y0052960D03*
X0105060Y0052920D03*
X0105020Y0052840D03*
X0104620Y0051880D03*
D322*
X0104620Y0051920D03*
X0104860Y0052560D03*
X0104900Y0052640D03*
X0104940Y0052680D03*
X0105020Y0055120D03*
X0105100Y0058040D03*
X0111860Y0058040D03*
X0111940Y0055120D03*
X0112020Y0052680D03*
X0112060Y0052640D03*
X0112100Y0052560D03*
X0112340Y0051920D03*
D323*
X0112360Y0051960D03*
X0112200Y0052360D03*
X0112160Y0052440D03*
X0111840Y0058080D03*
X0105040Y0055080D03*
X0104840Y0052520D03*
X0104840Y0052480D03*
X0104800Y0052440D03*
X0104760Y0052360D03*
X0104600Y0051960D03*
D324*
X0104620Y0052000D03*
X0104780Y0052400D03*
X0112180Y0052400D03*
X0112340Y0052000D03*
D325*
X0112360Y0052040D03*
X0112360Y0052080D03*
X0112320Y0052120D03*
X0112320Y0052160D03*
X0111480Y0054120D03*
X0111480Y0054160D03*
X0111800Y0054960D03*
X0112000Y0057960D03*
X0111800Y0058120D03*
X0111760Y0058160D03*
X0108480Y0061680D03*
X0105200Y0058160D03*
X0105160Y0058120D03*
X0104960Y0057960D03*
X0105160Y0054960D03*
X0105480Y0054160D03*
X0105480Y0054120D03*
X0104640Y0052160D03*
X0104640Y0052120D03*
X0104600Y0052080D03*
X0104600Y0052040D03*
D326*
X0104680Y0052200D03*
X0105120Y0055000D03*
X0111840Y0055000D03*
X0112280Y0052200D03*
D327*
X0112260Y0052240D03*
X0112260Y0052280D03*
X0112220Y0052320D03*
X0112020Y0055160D03*
X0104940Y0055160D03*
X0104740Y0052320D03*
X0104700Y0052280D03*
X0104700Y0052240D03*
D328*
X0105480Y0054040D03*
X0105480Y0054080D03*
X0105080Y0055040D03*
X0105120Y0058080D03*
X0111480Y0054080D03*
X0111480Y0054040D03*
X0111880Y0055040D03*
X0111920Y0055080D03*
X0112120Y0052520D03*
X0112120Y0052480D03*
D329*
X0112060Y0052600D03*
X0111500Y0054000D03*
X0111900Y0058000D03*
X0105460Y0054000D03*
X0104900Y0052600D03*
X0105060Y0058000D03*
D330*
X0105480Y0053960D03*
X0105040Y0052880D03*
X0104960Y0052760D03*
X0104960Y0052720D03*
X0111480Y0053960D03*
X0111920Y0052880D03*
X0108480Y0061720D03*
D331*
X0112000Y0052760D03*
X0112000Y0052720D03*
D332*
X0105000Y0052800D03*
D333*
X0111960Y0052800D03*
D334*
X0111840Y0053000D03*
X0105120Y0053000D03*
D335*
X0105180Y0053120D03*
X0111780Y0053120D03*
D336*
X0105220Y0053200D03*
D337*
X0105240Y0053240D03*
X0105280Y0053320D03*
X0105320Y0053360D03*
X0105360Y0053440D03*
X0105480Y0053760D03*
X0111480Y0053760D03*
X0111640Y0053360D03*
X0111680Y0053320D03*
X0111720Y0053240D03*
D338*
X0111700Y0053280D03*
X0105260Y0053280D03*
D339*
X0105320Y0053400D03*
X0111640Y0053400D03*
D340*
X0111520Y0053600D03*
X0105440Y0053600D03*
D341*
X0105460Y0054200D03*
X0105220Y0058200D03*
X0111740Y0058200D03*
D342*
X0111500Y0054200D03*
D343*
X0111480Y0054240D03*
X0111480Y0054280D03*
X0111720Y0054880D03*
X0111680Y0058240D03*
X0105480Y0054280D03*
X0105480Y0054240D03*
X0105240Y0054880D03*
X0105280Y0058240D03*
D344*
X0105320Y0058280D03*
X0105360Y0058320D03*
X0104840Y0057920D03*
X0105480Y0054360D03*
X0105480Y0054320D03*
X0111480Y0054320D03*
X0111480Y0054360D03*
X0112120Y0057920D03*
X0111640Y0058280D03*
X0111600Y0058320D03*
D345*
X0111500Y0054400D03*
X0105460Y0054400D03*
D346*
X0105480Y0054440D03*
X0105480Y0054480D03*
X0105360Y0054720D03*
X0108480Y0061640D03*
X0111560Y0058360D03*
X0111480Y0054480D03*
X0111480Y0054440D03*
D347*
X0111480Y0054520D03*
X0111480Y0054560D03*
X0111520Y0054640D03*
X0112280Y0055240D03*
X0105480Y0054560D03*
X0105480Y0054520D03*
X0104720Y0057880D03*
D348*
X0105440Y0058400D03*
X0105440Y0054600D03*
D349*
X0111520Y0054600D03*
X0111520Y0058400D03*
D350*
X0112240Y0057880D03*
X0105440Y0054640D03*
D351*
X0105420Y0054680D03*
X0111540Y0054680D03*
D352*
X0111600Y0054720D03*
X0105400Y0058360D03*
D353*
X0105340Y0054760D03*
X0111620Y0054760D03*
D354*
X0111680Y0054800D03*
X0105280Y0054800D03*
D355*
X0105260Y0054840D03*
X0111700Y0054840D03*
D356*
X0111780Y0054920D03*
X0105180Y0054920D03*
D357*
X0104820Y0055200D03*
D358*
X0112140Y0055200D03*
D359*
X0104700Y0055240D03*
D360*
X0104580Y0055280D03*
X0104580Y0057840D03*
X0105580Y0058480D03*
X0111380Y0058480D03*
X0112380Y0057840D03*
X0112380Y0055280D03*
D361*
X0104440Y0055320D03*
D362*
X0112520Y0055320D03*
D363*
X0112640Y0055360D03*
X0112600Y0057760D03*
X0104360Y0057760D03*
X0104320Y0055360D03*
D364*
X0104200Y0055400D03*
D365*
X0112760Y0055400D03*
D366*
X0112880Y0055440D03*
X0113200Y0056160D03*
X0113200Y0056240D03*
X0113200Y0056280D03*
X0113200Y0056320D03*
X0113200Y0056360D03*
X0113200Y0056760D03*
X0113200Y0056840D03*
X0113200Y0056880D03*
X0113200Y0056920D03*
X0113200Y0056960D03*
X0104080Y0055440D03*
X0103760Y0056160D03*
X0103760Y0056240D03*
X0103760Y0056280D03*
X0103760Y0056320D03*
X0103760Y0056360D03*
X0103760Y0056760D03*
X0103760Y0056840D03*
X0103760Y0056880D03*
X0103760Y0056920D03*
X0103760Y0056960D03*
D367*
X0103840Y0057360D03*
X0103840Y0055720D03*
X0103840Y0055680D03*
X0103920Y0055520D03*
X0103960Y0055480D03*
X0113040Y0055520D03*
X0113120Y0055680D03*
X0113120Y0055720D03*
X0113120Y0057360D03*
D368*
X0113000Y0055480D03*
D369*
X0113060Y0055560D03*
X0113100Y0055640D03*
X0113100Y0057440D03*
X0113100Y0057480D03*
X0113060Y0057520D03*
X0113060Y0057560D03*
X0103900Y0057560D03*
X0103900Y0057520D03*
X0103860Y0057480D03*
X0103860Y0057440D03*
X0103860Y0055640D03*
X0103900Y0055560D03*
D370*
X0103880Y0055600D03*
X0103840Y0057400D03*
X0113120Y0057400D03*
X0113080Y0055600D03*
D371*
X0113140Y0055760D03*
X0113140Y0055840D03*
X0113140Y0057280D03*
X0113140Y0057320D03*
X0112980Y0057640D03*
X0103980Y0057640D03*
X0103820Y0057320D03*
X0103820Y0057280D03*
X0103820Y0055840D03*
X0103820Y0055760D03*
D372*
X0103820Y0055800D03*
X0113140Y0055800D03*
D373*
X0113160Y0055880D03*
X0113160Y0055920D03*
X0113160Y0055960D03*
X0113160Y0057160D03*
X0113160Y0057240D03*
X0103800Y0057240D03*
X0103800Y0057160D03*
X0103800Y0055960D03*
X0103800Y0055920D03*
X0103800Y0055880D03*
D374*
X0103780Y0056000D03*
X0103780Y0057000D03*
X0113180Y0057000D03*
X0113180Y0056000D03*
D375*
X0113180Y0056040D03*
X0113180Y0056080D03*
X0113180Y0056120D03*
X0113180Y0057040D03*
X0113180Y0057080D03*
X0113180Y0057120D03*
X0103780Y0057120D03*
X0103780Y0057080D03*
X0103780Y0057040D03*
X0103780Y0056120D03*
X0103780Y0056080D03*
X0103780Y0056040D03*
D376*
X0103760Y0056200D03*
X0103760Y0056400D03*
X0103760Y0056800D03*
X0113200Y0056800D03*
X0113200Y0056400D03*
X0113200Y0056200D03*
D377*
X0113220Y0056440D03*
X0113220Y0056480D03*
X0113220Y0056520D03*
X0113220Y0056560D03*
X0113220Y0056640D03*
X0113220Y0056680D03*
X0113220Y0056720D03*
X0112860Y0057680D03*
X0103740Y0056720D03*
X0103740Y0056680D03*
X0103740Y0056640D03*
X0103740Y0056560D03*
X0103740Y0056520D03*
X0103740Y0056480D03*
X0103740Y0056440D03*
D378*
X0103740Y0056600D03*
X0113220Y0056600D03*
D379*
X0113160Y0057200D03*
X0103800Y0057200D03*
D380*
X0103940Y0057600D03*
X0113020Y0057600D03*
D381*
X0104100Y0057680D03*
D382*
X0104220Y0057720D03*
X0112740Y0057720D03*
D383*
X0112480Y0057800D03*
X0104480Y0057800D03*
D384*
X0105520Y0058440D03*
X0111440Y0058440D03*
D385*
X0111280Y0058520D03*
X0105680Y0058520D03*
D386*
X0108480Y0058560D03*
X0108480Y0059920D03*
D387*
X0108480Y0058600D03*
D388*
X0108480Y0058640D03*
X0108480Y0059840D03*
X0108480Y0059880D03*
D389*
X0108480Y0058760D03*
X0108480Y0058720D03*
X0108480Y0058680D03*
D390*
X0108480Y0058800D03*
D391*
X0108480Y0058840D03*
X0108480Y0059720D03*
X0108480Y0059760D03*
D392*
X0108480Y0059680D03*
X0108480Y0058920D03*
X0108480Y0058880D03*
D393*
X0108480Y0058960D03*
X0108480Y0059040D03*
X0108480Y0059640D03*
D394*
X0108480Y0059600D03*
X0108480Y0059000D03*
D395*
X0108480Y0059080D03*
X0108480Y0059120D03*
X0108480Y0059560D03*
D396*
X0108480Y0059520D03*
X0108480Y0059480D03*
X0108480Y0059160D03*
D397*
X0108480Y0059200D03*
D398*
X0108480Y0059240D03*
X0108480Y0059280D03*
X0108480Y0059320D03*
X0108480Y0059440D03*
D399*
X0108480Y0059360D03*
D400*
X0108480Y0059400D03*
D401*
X0108480Y0059800D03*
D402*
X0108480Y0059960D03*
D403*
X0108480Y0060000D03*
D404*
X0108480Y0060040D03*
D405*
X0108480Y0060080D03*
D406*
X0108480Y0060120D03*
X0108480Y0060160D03*
D407*
X0108480Y0060200D03*
D408*
X0108480Y0060240D03*
X0108480Y0060280D03*
D409*
X0108480Y0060320D03*
D410*
X0108480Y0060360D03*
D411*
X0108480Y0060400D03*
D412*
X0108480Y0060440D03*
D413*
X0108480Y0060480D03*
X0108480Y0060520D03*
D414*
X0108480Y0060560D03*
D415*
X0108480Y0060600D03*
D416*
X0108480Y0060640D03*
X0108480Y0061360D03*
D417*
X0108480Y0061320D03*
X0108480Y0060680D03*
D418*
X0108480Y0060720D03*
X0108480Y0061280D03*
D419*
X0108480Y0061240D03*
X0108480Y0060760D03*
D420*
X0108480Y0060800D03*
D421*
X0108480Y0060840D03*
D422*
X0108480Y0060880D03*
X0108480Y0060920D03*
X0108480Y0061160D03*
D423*
X0108480Y0061120D03*
X0108480Y0061080D03*
X0108480Y0060960D03*
D424*
X0108480Y0061000D03*
D425*
X0108480Y0061040D03*
D426*
X0108480Y0061200D03*
D427*
X0108480Y0061400D03*
D428*
X0108480Y0062240D03*
X0108480Y0062280D03*
X0108480Y0062320D03*
X0108480Y0062360D03*
X0104240Y0061440D03*
X0112720Y0061440D03*
D429*
X0108480Y0061440D03*
D430*
X0104220Y0061480D03*
X0112740Y0061480D03*
D431*
X0108480Y0061480D03*
D432*
X0104220Y0061520D03*
X0112740Y0061520D03*
D433*
X0108480Y0061520D03*
D434*
X0104200Y0061560D03*
D435*
X0108480Y0061560D03*
D436*
X0108480Y0063040D03*
X0108480Y0063080D03*
X0108480Y0063120D03*
X0108480Y0063160D03*
X0108480Y0063240D03*
X0112760Y0061560D03*
D437*
X0112760Y0061600D03*
X0108480Y0063400D03*
X0104200Y0061600D03*
D438*
X0108480Y0061600D03*
D439*
X0108480Y0063480D03*
X0108480Y0063520D03*
X0108480Y0063560D03*
X0108480Y0063640D03*
X0104200Y0061640D03*
D440*
X0112780Y0061640D03*
D441*
X0112780Y0061680D03*
X0104180Y0061680D03*
D442*
X0104180Y0061720D03*
X0112780Y0061720D03*
D443*
X0112800Y0061760D03*
X0104160Y0061760D03*
D444*
X0104160Y0061800D03*
X0112800Y0061800D03*
D445*
X0108480Y0061800D03*
D446*
X0108480Y0061840D03*
D447*
X0108480Y0061880D03*
D448*
X0108480Y0061920D03*
D449*
X0108480Y0061960D03*
D450*
X0112860Y0062000D03*
X0104100Y0062000D03*
D451*
X0108480Y0062000D03*
D452*
X0108480Y0062040D03*
X0108480Y0062080D03*
X0108480Y0062120D03*
X0108480Y0062160D03*
D453*
X0108480Y0062200D03*
D454*
X0108480Y0062400D03*
X0108480Y0062600D03*
D455*
X0108480Y0062560D03*
X0108480Y0062520D03*
X0108480Y0062480D03*
X0108480Y0062440D03*
D456*
X0108480Y0062640D03*
X0108480Y0062680D03*
X0108480Y0062720D03*
X0108480Y0062760D03*
D457*
X0108480Y0062840D03*
X0108480Y0062880D03*
X0108480Y0062920D03*
X0108480Y0062960D03*
D458*
X0108480Y0063000D03*
D459*
X0108480Y0063200D03*
D460*
X0108480Y0063280D03*
X0108480Y0063320D03*
X0108480Y0063360D03*
X0108480Y0063440D03*
D461*
X0108480Y0063600D03*
D462*
X0108480Y0063800D03*
D463*
X0108480Y0063920D03*
M02*
