G75*
%MOIN*%
%OFA0B0*%
%FSLAX25Y25*%
%IPPOS*%
%LPD*%
%AMOC8*
5,1,8,0,0,1.08239X$1,22.5*
%
%ADD10C,0.00500*%
%ADD11C,0.00000*%
%ADD12C,0.00400*%
%ADD13C,0.00800*%
%ADD14C,0.01600*%
%ADD15C,0.00600*%
%ADD16R,0.42000X0.03000*%
%ADD17R,0.07500X0.02000*%
%ADD18R,0.03000X0.02000*%
%ADD19R,0.02400X0.02150*%
%ADD20R,0.05512X0.02559*%
%ADD21R,0.03400X0.02400*%
%ADD22R,0.02559X0.05512*%
%ADD23R,0.01000X0.02400*%
%ADD24R,0.00900X0.02400*%
D10*
X0010000Y0005000D02*
X0340000Y0005000D01*
X0340140Y0005002D01*
X0340280Y0005008D01*
X0340420Y0005018D01*
X0340560Y0005031D01*
X0340699Y0005049D01*
X0340838Y0005071D01*
X0340975Y0005096D01*
X0341113Y0005125D01*
X0341249Y0005158D01*
X0341384Y0005195D01*
X0341518Y0005236D01*
X0341651Y0005281D01*
X0341783Y0005329D01*
X0341913Y0005381D01*
X0342042Y0005436D01*
X0342169Y0005495D01*
X0342295Y0005558D01*
X0342419Y0005624D01*
X0342540Y0005693D01*
X0342660Y0005766D01*
X0342778Y0005843D01*
X0342893Y0005922D01*
X0343007Y0006005D01*
X0343117Y0006091D01*
X0343226Y0006180D01*
X0343332Y0006272D01*
X0343435Y0006367D01*
X0343536Y0006464D01*
X0343633Y0006565D01*
X0343728Y0006668D01*
X0343820Y0006774D01*
X0343909Y0006883D01*
X0343995Y0006993D01*
X0344078Y0007107D01*
X0344157Y0007222D01*
X0344234Y0007340D01*
X0344307Y0007460D01*
X0344376Y0007581D01*
X0344442Y0007705D01*
X0344505Y0007831D01*
X0344564Y0007958D01*
X0344619Y0008087D01*
X0344671Y0008217D01*
X0344719Y0008349D01*
X0344764Y0008482D01*
X0344805Y0008616D01*
X0344842Y0008751D01*
X0344875Y0008887D01*
X0344904Y0009025D01*
X0344929Y0009162D01*
X0344951Y0009301D01*
X0344969Y0009440D01*
X0344982Y0009580D01*
X0344992Y0009720D01*
X0344998Y0009860D01*
X0345000Y0010000D01*
X0345000Y0140000D01*
X0344998Y0140140D01*
X0344992Y0140280D01*
X0344982Y0140420D01*
X0344969Y0140560D01*
X0344951Y0140699D01*
X0344929Y0140838D01*
X0344904Y0140975D01*
X0344875Y0141113D01*
X0344842Y0141249D01*
X0344805Y0141384D01*
X0344764Y0141518D01*
X0344719Y0141651D01*
X0344671Y0141783D01*
X0344619Y0141913D01*
X0344564Y0142042D01*
X0344505Y0142169D01*
X0344442Y0142295D01*
X0344376Y0142419D01*
X0344307Y0142540D01*
X0344234Y0142660D01*
X0344157Y0142778D01*
X0344078Y0142893D01*
X0343995Y0143007D01*
X0343909Y0143117D01*
X0343820Y0143226D01*
X0343728Y0143332D01*
X0343633Y0143435D01*
X0343536Y0143536D01*
X0343435Y0143633D01*
X0343332Y0143728D01*
X0343226Y0143820D01*
X0343117Y0143909D01*
X0343007Y0143995D01*
X0342893Y0144078D01*
X0342778Y0144157D01*
X0342660Y0144234D01*
X0342540Y0144307D01*
X0342419Y0144376D01*
X0342295Y0144442D01*
X0342169Y0144505D01*
X0342042Y0144564D01*
X0341913Y0144619D01*
X0341783Y0144671D01*
X0341651Y0144719D01*
X0341518Y0144764D01*
X0341384Y0144805D01*
X0341249Y0144842D01*
X0341113Y0144875D01*
X0340975Y0144904D01*
X0340838Y0144929D01*
X0340699Y0144951D01*
X0340560Y0144969D01*
X0340420Y0144982D01*
X0340280Y0144992D01*
X0340140Y0144998D01*
X0340000Y0145000D01*
X0010000Y0145000D01*
X0009860Y0144998D01*
X0009720Y0144992D01*
X0009580Y0144982D01*
X0009440Y0144969D01*
X0009301Y0144951D01*
X0009162Y0144929D01*
X0009025Y0144904D01*
X0008887Y0144875D01*
X0008751Y0144842D01*
X0008616Y0144805D01*
X0008482Y0144764D01*
X0008349Y0144719D01*
X0008217Y0144671D01*
X0008087Y0144619D01*
X0007958Y0144564D01*
X0007831Y0144505D01*
X0007705Y0144442D01*
X0007581Y0144376D01*
X0007460Y0144307D01*
X0007340Y0144234D01*
X0007222Y0144157D01*
X0007107Y0144078D01*
X0006993Y0143995D01*
X0006883Y0143909D01*
X0006774Y0143820D01*
X0006668Y0143728D01*
X0006565Y0143633D01*
X0006464Y0143536D01*
X0006367Y0143435D01*
X0006272Y0143332D01*
X0006180Y0143226D01*
X0006091Y0143117D01*
X0006005Y0143007D01*
X0005922Y0142893D01*
X0005843Y0142778D01*
X0005766Y0142660D01*
X0005693Y0142540D01*
X0005624Y0142419D01*
X0005558Y0142295D01*
X0005495Y0142169D01*
X0005436Y0142042D01*
X0005381Y0141913D01*
X0005329Y0141783D01*
X0005281Y0141651D01*
X0005236Y0141518D01*
X0005195Y0141384D01*
X0005158Y0141249D01*
X0005125Y0141113D01*
X0005096Y0140975D01*
X0005071Y0140838D01*
X0005049Y0140699D01*
X0005031Y0140560D01*
X0005018Y0140420D01*
X0005008Y0140280D01*
X0005002Y0140140D01*
X0005000Y0140000D01*
X0005000Y0010000D01*
X0005002Y0009860D01*
X0005008Y0009720D01*
X0005018Y0009580D01*
X0005031Y0009440D01*
X0005049Y0009301D01*
X0005071Y0009162D01*
X0005096Y0009025D01*
X0005125Y0008887D01*
X0005158Y0008751D01*
X0005195Y0008616D01*
X0005236Y0008482D01*
X0005281Y0008349D01*
X0005329Y0008217D01*
X0005381Y0008087D01*
X0005436Y0007958D01*
X0005495Y0007831D01*
X0005558Y0007705D01*
X0005624Y0007581D01*
X0005693Y0007460D01*
X0005766Y0007340D01*
X0005843Y0007222D01*
X0005922Y0007107D01*
X0006005Y0006993D01*
X0006091Y0006883D01*
X0006180Y0006774D01*
X0006272Y0006668D01*
X0006367Y0006565D01*
X0006464Y0006464D01*
X0006565Y0006367D01*
X0006668Y0006272D01*
X0006774Y0006180D01*
X0006883Y0006091D01*
X0006993Y0006005D01*
X0007107Y0005922D01*
X0007222Y0005843D01*
X0007340Y0005766D01*
X0007460Y0005693D01*
X0007581Y0005624D01*
X0007705Y0005558D01*
X0007831Y0005495D01*
X0007958Y0005436D01*
X0008087Y0005381D01*
X0008217Y0005329D01*
X0008349Y0005281D01*
X0008482Y0005236D01*
X0008616Y0005195D01*
X0008751Y0005158D01*
X0008887Y0005125D01*
X0009025Y0005096D01*
X0009162Y0005071D01*
X0009301Y0005049D01*
X0009440Y0005031D01*
X0009580Y0005018D01*
X0009720Y0005008D01*
X0009860Y0005002D01*
X0010000Y0005000D01*
X0028162Y0022250D02*
X0027145Y0023268D01*
X0027145Y0025303D01*
X0028162Y0026320D01*
X0032232Y0026320D02*
X0033250Y0025303D01*
X0033250Y0023268D01*
X0032232Y0022250D01*
X0028162Y0022250D01*
X0029180Y0028327D02*
X0027145Y0030362D01*
X0033250Y0030362D01*
X0033250Y0028327D02*
X0033250Y0032397D01*
X0021972Y0035000D02*
X0021977Y0035442D01*
X0021994Y0035885D01*
X0022021Y0036326D01*
X0022059Y0036767D01*
X0022108Y0037207D01*
X0022167Y0037645D01*
X0022237Y0038082D01*
X0022318Y0038517D01*
X0022410Y0038950D01*
X0022512Y0039380D01*
X0022625Y0039808D01*
X0022748Y0040233D01*
X0022882Y0040655D01*
X0023026Y0041073D01*
X0023180Y0041488D01*
X0023344Y0041899D01*
X0023519Y0042306D01*
X0023703Y0042708D01*
X0023897Y0043106D01*
X0024101Y0043498D01*
X0024314Y0043886D01*
X0024537Y0044268D01*
X0024769Y0044645D01*
X0025010Y0045016D01*
X0025261Y0045381D01*
X0025520Y0045739D01*
X0025788Y0046091D01*
X0026064Y0046437D01*
X0026349Y0046775D01*
X0026642Y0047107D01*
X0026943Y0047431D01*
X0027252Y0047748D01*
X0027569Y0048057D01*
X0027893Y0048358D01*
X0028225Y0048651D01*
X0028563Y0048936D01*
X0028909Y0049212D01*
X0029261Y0049480D01*
X0029619Y0049739D01*
X0029984Y0049990D01*
X0030355Y0050231D01*
X0030732Y0050463D01*
X0031114Y0050686D01*
X0031502Y0050899D01*
X0031894Y0051103D01*
X0032292Y0051297D01*
X0032694Y0051481D01*
X0033101Y0051656D01*
X0033512Y0051820D01*
X0033927Y0051974D01*
X0034345Y0052118D01*
X0034767Y0052252D01*
X0035192Y0052375D01*
X0035620Y0052488D01*
X0036050Y0052590D01*
X0036483Y0052682D01*
X0036918Y0052763D01*
X0037355Y0052833D01*
X0037793Y0052892D01*
X0038233Y0052941D01*
X0038674Y0052979D01*
X0039115Y0053006D01*
X0039558Y0053023D01*
X0040000Y0053028D01*
X0040442Y0053023D01*
X0040885Y0053006D01*
X0041326Y0052979D01*
X0041767Y0052941D01*
X0042207Y0052892D01*
X0042645Y0052833D01*
X0043082Y0052763D01*
X0043517Y0052682D01*
X0043950Y0052590D01*
X0044380Y0052488D01*
X0044808Y0052375D01*
X0045233Y0052252D01*
X0045655Y0052118D01*
X0046073Y0051974D01*
X0046488Y0051820D01*
X0046899Y0051656D01*
X0047306Y0051481D01*
X0047708Y0051297D01*
X0048106Y0051103D01*
X0048498Y0050899D01*
X0048886Y0050686D01*
X0049268Y0050463D01*
X0049645Y0050231D01*
X0050016Y0049990D01*
X0050381Y0049739D01*
X0050739Y0049480D01*
X0051091Y0049212D01*
X0051437Y0048936D01*
X0051775Y0048651D01*
X0052107Y0048358D01*
X0052431Y0048057D01*
X0052748Y0047748D01*
X0053057Y0047431D01*
X0053358Y0047107D01*
X0053651Y0046775D01*
X0053936Y0046437D01*
X0054212Y0046091D01*
X0054480Y0045739D01*
X0054739Y0045381D01*
X0054990Y0045016D01*
X0055231Y0044645D01*
X0055463Y0044268D01*
X0055686Y0043886D01*
X0055899Y0043498D01*
X0056103Y0043106D01*
X0056297Y0042708D01*
X0056481Y0042306D01*
X0056656Y0041899D01*
X0056820Y0041488D01*
X0056974Y0041073D01*
X0057118Y0040655D01*
X0057252Y0040233D01*
X0057375Y0039808D01*
X0057488Y0039380D01*
X0057590Y0038950D01*
X0057682Y0038517D01*
X0057763Y0038082D01*
X0057833Y0037645D01*
X0057892Y0037207D01*
X0057941Y0036767D01*
X0057979Y0036326D01*
X0058006Y0035885D01*
X0058023Y0035442D01*
X0058028Y0035000D01*
X0058023Y0034558D01*
X0058006Y0034115D01*
X0057979Y0033674D01*
X0057941Y0033233D01*
X0057892Y0032793D01*
X0057833Y0032355D01*
X0057763Y0031918D01*
X0057682Y0031483D01*
X0057590Y0031050D01*
X0057488Y0030620D01*
X0057375Y0030192D01*
X0057252Y0029767D01*
X0057118Y0029345D01*
X0056974Y0028927D01*
X0056820Y0028512D01*
X0056656Y0028101D01*
X0056481Y0027694D01*
X0056297Y0027292D01*
X0056103Y0026894D01*
X0055899Y0026502D01*
X0055686Y0026114D01*
X0055463Y0025732D01*
X0055231Y0025355D01*
X0054990Y0024984D01*
X0054739Y0024619D01*
X0054480Y0024261D01*
X0054212Y0023909D01*
X0053936Y0023563D01*
X0053651Y0023225D01*
X0053358Y0022893D01*
X0053057Y0022569D01*
X0052748Y0022252D01*
X0052431Y0021943D01*
X0052107Y0021642D01*
X0051775Y0021349D01*
X0051437Y0021064D01*
X0051091Y0020788D01*
X0050739Y0020520D01*
X0050381Y0020261D01*
X0050016Y0020010D01*
X0049645Y0019769D01*
X0049268Y0019537D01*
X0048886Y0019314D01*
X0048498Y0019101D01*
X0048106Y0018897D01*
X0047708Y0018703D01*
X0047306Y0018519D01*
X0046899Y0018344D01*
X0046488Y0018180D01*
X0046073Y0018026D01*
X0045655Y0017882D01*
X0045233Y0017748D01*
X0044808Y0017625D01*
X0044380Y0017512D01*
X0043950Y0017410D01*
X0043517Y0017318D01*
X0043082Y0017237D01*
X0042645Y0017167D01*
X0042207Y0017108D01*
X0041767Y0017059D01*
X0041326Y0017021D01*
X0040885Y0016994D01*
X0040442Y0016977D01*
X0040000Y0016972D01*
X0039558Y0016977D01*
X0039115Y0016994D01*
X0038674Y0017021D01*
X0038233Y0017059D01*
X0037793Y0017108D01*
X0037355Y0017167D01*
X0036918Y0017237D01*
X0036483Y0017318D01*
X0036050Y0017410D01*
X0035620Y0017512D01*
X0035192Y0017625D01*
X0034767Y0017748D01*
X0034345Y0017882D01*
X0033927Y0018026D01*
X0033512Y0018180D01*
X0033101Y0018344D01*
X0032694Y0018519D01*
X0032292Y0018703D01*
X0031894Y0018897D01*
X0031502Y0019101D01*
X0031114Y0019314D01*
X0030732Y0019537D01*
X0030355Y0019769D01*
X0029984Y0020010D01*
X0029619Y0020261D01*
X0029261Y0020520D01*
X0028909Y0020788D01*
X0028563Y0021064D01*
X0028225Y0021349D01*
X0027893Y0021642D01*
X0027569Y0021943D01*
X0027252Y0022252D01*
X0026943Y0022569D01*
X0026642Y0022893D01*
X0026349Y0023225D01*
X0026064Y0023563D01*
X0025788Y0023909D01*
X0025520Y0024261D01*
X0025261Y0024619D01*
X0025010Y0024984D01*
X0024769Y0025355D01*
X0024537Y0025732D01*
X0024314Y0026114D01*
X0024101Y0026502D01*
X0023897Y0026894D01*
X0023703Y0027292D01*
X0023519Y0027694D01*
X0023344Y0028101D01*
X0023180Y0028512D01*
X0023026Y0028927D01*
X0022882Y0029345D01*
X0022748Y0029767D01*
X0022625Y0030192D01*
X0022512Y0030620D01*
X0022410Y0031050D01*
X0022318Y0031483D01*
X0022237Y0031918D01*
X0022167Y0032355D01*
X0022108Y0032793D01*
X0022059Y0033233D01*
X0022021Y0033674D01*
X0021994Y0034115D01*
X0021977Y0034558D01*
X0021972Y0035000D01*
X0155000Y0037500D02*
X0155000Y0022500D01*
X0180000Y0045000D02*
X0180009Y0045736D01*
X0180036Y0046472D01*
X0180081Y0047207D01*
X0180144Y0047941D01*
X0180226Y0048672D01*
X0180325Y0049402D01*
X0180442Y0050129D01*
X0180576Y0050853D01*
X0180729Y0051573D01*
X0180899Y0052289D01*
X0181087Y0053001D01*
X0181292Y0053709D01*
X0181514Y0054410D01*
X0181754Y0055107D01*
X0182010Y0055797D01*
X0182284Y0056481D01*
X0182574Y0057157D01*
X0182880Y0057827D01*
X0183203Y0058488D01*
X0183542Y0059142D01*
X0183897Y0059787D01*
X0184268Y0060423D01*
X0184654Y0061050D01*
X0185056Y0061667D01*
X0185472Y0062274D01*
X0185904Y0062871D01*
X0186350Y0063457D01*
X0186810Y0064032D01*
X0187284Y0064595D01*
X0187771Y0065147D01*
X0188273Y0065686D01*
X0188787Y0066213D01*
X0189314Y0066727D01*
X0189853Y0067229D01*
X0190405Y0067716D01*
X0190968Y0068190D01*
X0191543Y0068650D01*
X0192129Y0069096D01*
X0192726Y0069528D01*
X0193333Y0069944D01*
X0193950Y0070346D01*
X0194577Y0070732D01*
X0195213Y0071103D01*
X0195858Y0071458D01*
X0196512Y0071797D01*
X0197173Y0072120D01*
X0197843Y0072426D01*
X0198519Y0072716D01*
X0199203Y0072990D01*
X0199893Y0073246D01*
X0200590Y0073486D01*
X0201291Y0073708D01*
X0201999Y0073913D01*
X0202711Y0074101D01*
X0203427Y0074271D01*
X0204147Y0074424D01*
X0204871Y0074558D01*
X0205598Y0074675D01*
X0206328Y0074774D01*
X0207059Y0074856D01*
X0207793Y0074919D01*
X0208528Y0074964D01*
X0209264Y0074991D01*
X0210000Y0075000D01*
X0210736Y0074991D01*
X0211472Y0074964D01*
X0212207Y0074919D01*
X0212941Y0074856D01*
X0213672Y0074774D01*
X0214402Y0074675D01*
X0215129Y0074558D01*
X0215853Y0074424D01*
X0216573Y0074271D01*
X0217289Y0074101D01*
X0218001Y0073913D01*
X0218709Y0073708D01*
X0219410Y0073486D01*
X0220107Y0073246D01*
X0220797Y0072990D01*
X0221481Y0072716D01*
X0222157Y0072426D01*
X0222827Y0072120D01*
X0223488Y0071797D01*
X0224142Y0071458D01*
X0224787Y0071103D01*
X0225423Y0070732D01*
X0226050Y0070346D01*
X0226667Y0069944D01*
X0227274Y0069528D01*
X0227871Y0069096D01*
X0228457Y0068650D01*
X0229032Y0068190D01*
X0229595Y0067716D01*
X0230147Y0067229D01*
X0230686Y0066727D01*
X0231213Y0066213D01*
X0231727Y0065686D01*
X0232229Y0065147D01*
X0232716Y0064595D01*
X0233190Y0064032D01*
X0233650Y0063457D01*
X0234096Y0062871D01*
X0234528Y0062274D01*
X0234944Y0061667D01*
X0235346Y0061050D01*
X0235732Y0060423D01*
X0236103Y0059787D01*
X0236458Y0059142D01*
X0236797Y0058488D01*
X0237120Y0057827D01*
X0237426Y0057157D01*
X0237716Y0056481D01*
X0237990Y0055797D01*
X0238246Y0055107D01*
X0238486Y0054410D01*
X0238708Y0053709D01*
X0238913Y0053001D01*
X0239101Y0052289D01*
X0239271Y0051573D01*
X0239424Y0050853D01*
X0239558Y0050129D01*
X0239675Y0049402D01*
X0239774Y0048672D01*
X0239856Y0047941D01*
X0239919Y0047207D01*
X0239964Y0046472D01*
X0239991Y0045736D01*
X0240000Y0045000D01*
X0239991Y0044264D01*
X0239964Y0043528D01*
X0239919Y0042793D01*
X0239856Y0042059D01*
X0239774Y0041328D01*
X0239675Y0040598D01*
X0239558Y0039871D01*
X0239424Y0039147D01*
X0239271Y0038427D01*
X0239101Y0037711D01*
X0238913Y0036999D01*
X0238708Y0036291D01*
X0238486Y0035590D01*
X0238246Y0034893D01*
X0237990Y0034203D01*
X0237716Y0033519D01*
X0237426Y0032843D01*
X0237120Y0032173D01*
X0236797Y0031512D01*
X0236458Y0030858D01*
X0236103Y0030213D01*
X0235732Y0029577D01*
X0235346Y0028950D01*
X0234944Y0028333D01*
X0234528Y0027726D01*
X0234096Y0027129D01*
X0233650Y0026543D01*
X0233190Y0025968D01*
X0232716Y0025405D01*
X0232229Y0024853D01*
X0231727Y0024314D01*
X0231213Y0023787D01*
X0230686Y0023273D01*
X0230147Y0022771D01*
X0229595Y0022284D01*
X0229032Y0021810D01*
X0228457Y0021350D01*
X0227871Y0020904D01*
X0227274Y0020472D01*
X0226667Y0020056D01*
X0226050Y0019654D01*
X0225423Y0019268D01*
X0224787Y0018897D01*
X0224142Y0018542D01*
X0223488Y0018203D01*
X0222827Y0017880D01*
X0222157Y0017574D01*
X0221481Y0017284D01*
X0220797Y0017010D01*
X0220107Y0016754D01*
X0219410Y0016514D01*
X0218709Y0016292D01*
X0218001Y0016087D01*
X0217289Y0015899D01*
X0216573Y0015729D01*
X0215853Y0015576D01*
X0215129Y0015442D01*
X0214402Y0015325D01*
X0213672Y0015226D01*
X0212941Y0015144D01*
X0212207Y0015081D01*
X0211472Y0015036D01*
X0210736Y0015009D01*
X0210000Y0015000D01*
X0209264Y0015009D01*
X0208528Y0015036D01*
X0207793Y0015081D01*
X0207059Y0015144D01*
X0206328Y0015226D01*
X0205598Y0015325D01*
X0204871Y0015442D01*
X0204147Y0015576D01*
X0203427Y0015729D01*
X0202711Y0015899D01*
X0201999Y0016087D01*
X0201291Y0016292D01*
X0200590Y0016514D01*
X0199893Y0016754D01*
X0199203Y0017010D01*
X0198519Y0017284D01*
X0197843Y0017574D01*
X0197173Y0017880D01*
X0196512Y0018203D01*
X0195858Y0018542D01*
X0195213Y0018897D01*
X0194577Y0019268D01*
X0193950Y0019654D01*
X0193333Y0020056D01*
X0192726Y0020472D01*
X0192129Y0020904D01*
X0191543Y0021350D01*
X0190968Y0021810D01*
X0190405Y0022284D01*
X0189853Y0022771D01*
X0189314Y0023273D01*
X0188787Y0023787D01*
X0188273Y0024314D01*
X0187771Y0024853D01*
X0187284Y0025405D01*
X0186810Y0025968D01*
X0186350Y0026543D01*
X0185904Y0027129D01*
X0185472Y0027726D01*
X0185056Y0028333D01*
X0184654Y0028950D01*
X0184268Y0029577D01*
X0183897Y0030213D01*
X0183542Y0030858D01*
X0183203Y0031512D01*
X0182880Y0032173D01*
X0182574Y0032843D01*
X0182284Y0033519D01*
X0182010Y0034203D01*
X0181754Y0034893D01*
X0181514Y0035590D01*
X0181292Y0036291D01*
X0181087Y0036999D01*
X0180899Y0037711D01*
X0180729Y0038427D01*
X0180576Y0039147D01*
X0180442Y0039871D01*
X0180325Y0040598D01*
X0180226Y0041328D01*
X0180144Y0042059D01*
X0180081Y0042793D01*
X0180036Y0043528D01*
X0180009Y0044264D01*
X0180000Y0045000D01*
X0155000Y0057500D02*
X0155000Y0072500D01*
X0167500Y0080000D02*
X0182500Y0080000D01*
X0178500Y0103000D02*
X0141500Y0103000D01*
X0140500Y0104000D01*
X0140000Y0115500D01*
X0141300Y0105400D02*
X0141302Y0105463D01*
X0141308Y0105525D01*
X0141318Y0105587D01*
X0141331Y0105649D01*
X0141349Y0105709D01*
X0141370Y0105768D01*
X0141395Y0105826D01*
X0141424Y0105882D01*
X0141456Y0105936D01*
X0141491Y0105988D01*
X0141529Y0106037D01*
X0141571Y0106085D01*
X0141615Y0106129D01*
X0141663Y0106171D01*
X0141712Y0106209D01*
X0141764Y0106244D01*
X0141818Y0106276D01*
X0141874Y0106305D01*
X0141932Y0106330D01*
X0141991Y0106351D01*
X0142051Y0106369D01*
X0142113Y0106382D01*
X0142175Y0106392D01*
X0142237Y0106398D01*
X0142300Y0106400D01*
X0142363Y0106398D01*
X0142425Y0106392D01*
X0142487Y0106382D01*
X0142549Y0106369D01*
X0142609Y0106351D01*
X0142668Y0106330D01*
X0142726Y0106305D01*
X0142782Y0106276D01*
X0142836Y0106244D01*
X0142888Y0106209D01*
X0142937Y0106171D01*
X0142985Y0106129D01*
X0143029Y0106085D01*
X0143071Y0106037D01*
X0143109Y0105988D01*
X0143144Y0105936D01*
X0143176Y0105882D01*
X0143205Y0105826D01*
X0143230Y0105768D01*
X0143251Y0105709D01*
X0143269Y0105649D01*
X0143282Y0105587D01*
X0143292Y0105525D01*
X0143298Y0105463D01*
X0143300Y0105400D01*
X0143298Y0105337D01*
X0143292Y0105275D01*
X0143282Y0105213D01*
X0143269Y0105151D01*
X0143251Y0105091D01*
X0143230Y0105032D01*
X0143205Y0104974D01*
X0143176Y0104918D01*
X0143144Y0104864D01*
X0143109Y0104812D01*
X0143071Y0104763D01*
X0143029Y0104715D01*
X0142985Y0104671D01*
X0142937Y0104629D01*
X0142888Y0104591D01*
X0142836Y0104556D01*
X0142782Y0104524D01*
X0142726Y0104495D01*
X0142668Y0104470D01*
X0142609Y0104449D01*
X0142549Y0104431D01*
X0142487Y0104418D01*
X0142425Y0104408D01*
X0142363Y0104402D01*
X0142300Y0104400D01*
X0142237Y0104402D01*
X0142175Y0104408D01*
X0142113Y0104418D01*
X0142051Y0104431D01*
X0141991Y0104449D01*
X0141932Y0104470D01*
X0141874Y0104495D01*
X0141818Y0104524D01*
X0141764Y0104556D01*
X0141712Y0104591D01*
X0141663Y0104629D01*
X0141615Y0104671D01*
X0141571Y0104715D01*
X0141529Y0104763D01*
X0141491Y0104812D01*
X0141456Y0104864D01*
X0141424Y0104918D01*
X0141395Y0104974D01*
X0141370Y0105032D01*
X0141349Y0105091D01*
X0141331Y0105151D01*
X0141318Y0105213D01*
X0141308Y0105275D01*
X0141302Y0105337D01*
X0141300Y0105400D01*
X0178500Y0103000D02*
X0179500Y0104000D01*
X0180000Y0115500D01*
X0198750Y0131250D02*
X0198750Y0133750D01*
X0198750Y0131250D02*
X0231250Y0131250D01*
X0231250Y0133750D01*
X0248750Y0133750D02*
X0248750Y0131250D01*
X0281250Y0131250D01*
X0281250Y0133750D01*
X0293750Y0133750D02*
X0293750Y0131250D01*
X0326250Y0131250D01*
X0326250Y0133750D01*
X0291972Y0055000D02*
X0291977Y0055442D01*
X0291994Y0055885D01*
X0292021Y0056326D01*
X0292059Y0056767D01*
X0292108Y0057207D01*
X0292167Y0057645D01*
X0292237Y0058082D01*
X0292318Y0058517D01*
X0292410Y0058950D01*
X0292512Y0059380D01*
X0292625Y0059808D01*
X0292748Y0060233D01*
X0292882Y0060655D01*
X0293026Y0061073D01*
X0293180Y0061488D01*
X0293344Y0061899D01*
X0293519Y0062306D01*
X0293703Y0062708D01*
X0293897Y0063106D01*
X0294101Y0063498D01*
X0294314Y0063886D01*
X0294537Y0064268D01*
X0294769Y0064645D01*
X0295010Y0065016D01*
X0295261Y0065381D01*
X0295520Y0065739D01*
X0295788Y0066091D01*
X0296064Y0066437D01*
X0296349Y0066775D01*
X0296642Y0067107D01*
X0296943Y0067431D01*
X0297252Y0067748D01*
X0297569Y0068057D01*
X0297893Y0068358D01*
X0298225Y0068651D01*
X0298563Y0068936D01*
X0298909Y0069212D01*
X0299261Y0069480D01*
X0299619Y0069739D01*
X0299984Y0069990D01*
X0300355Y0070231D01*
X0300732Y0070463D01*
X0301114Y0070686D01*
X0301502Y0070899D01*
X0301894Y0071103D01*
X0302292Y0071297D01*
X0302694Y0071481D01*
X0303101Y0071656D01*
X0303512Y0071820D01*
X0303927Y0071974D01*
X0304345Y0072118D01*
X0304767Y0072252D01*
X0305192Y0072375D01*
X0305620Y0072488D01*
X0306050Y0072590D01*
X0306483Y0072682D01*
X0306918Y0072763D01*
X0307355Y0072833D01*
X0307793Y0072892D01*
X0308233Y0072941D01*
X0308674Y0072979D01*
X0309115Y0073006D01*
X0309558Y0073023D01*
X0310000Y0073028D01*
X0310442Y0073023D01*
X0310885Y0073006D01*
X0311326Y0072979D01*
X0311767Y0072941D01*
X0312207Y0072892D01*
X0312645Y0072833D01*
X0313082Y0072763D01*
X0313517Y0072682D01*
X0313950Y0072590D01*
X0314380Y0072488D01*
X0314808Y0072375D01*
X0315233Y0072252D01*
X0315655Y0072118D01*
X0316073Y0071974D01*
X0316488Y0071820D01*
X0316899Y0071656D01*
X0317306Y0071481D01*
X0317708Y0071297D01*
X0318106Y0071103D01*
X0318498Y0070899D01*
X0318886Y0070686D01*
X0319268Y0070463D01*
X0319645Y0070231D01*
X0320016Y0069990D01*
X0320381Y0069739D01*
X0320739Y0069480D01*
X0321091Y0069212D01*
X0321437Y0068936D01*
X0321775Y0068651D01*
X0322107Y0068358D01*
X0322431Y0068057D01*
X0322748Y0067748D01*
X0323057Y0067431D01*
X0323358Y0067107D01*
X0323651Y0066775D01*
X0323936Y0066437D01*
X0324212Y0066091D01*
X0324480Y0065739D01*
X0324739Y0065381D01*
X0324990Y0065016D01*
X0325231Y0064645D01*
X0325463Y0064268D01*
X0325686Y0063886D01*
X0325899Y0063498D01*
X0326103Y0063106D01*
X0326297Y0062708D01*
X0326481Y0062306D01*
X0326656Y0061899D01*
X0326820Y0061488D01*
X0326974Y0061073D01*
X0327118Y0060655D01*
X0327252Y0060233D01*
X0327375Y0059808D01*
X0327488Y0059380D01*
X0327590Y0058950D01*
X0327682Y0058517D01*
X0327763Y0058082D01*
X0327833Y0057645D01*
X0327892Y0057207D01*
X0327941Y0056767D01*
X0327979Y0056326D01*
X0328006Y0055885D01*
X0328023Y0055442D01*
X0328028Y0055000D01*
X0328023Y0054558D01*
X0328006Y0054115D01*
X0327979Y0053674D01*
X0327941Y0053233D01*
X0327892Y0052793D01*
X0327833Y0052355D01*
X0327763Y0051918D01*
X0327682Y0051483D01*
X0327590Y0051050D01*
X0327488Y0050620D01*
X0327375Y0050192D01*
X0327252Y0049767D01*
X0327118Y0049345D01*
X0326974Y0048927D01*
X0326820Y0048512D01*
X0326656Y0048101D01*
X0326481Y0047694D01*
X0326297Y0047292D01*
X0326103Y0046894D01*
X0325899Y0046502D01*
X0325686Y0046114D01*
X0325463Y0045732D01*
X0325231Y0045355D01*
X0324990Y0044984D01*
X0324739Y0044619D01*
X0324480Y0044261D01*
X0324212Y0043909D01*
X0323936Y0043563D01*
X0323651Y0043225D01*
X0323358Y0042893D01*
X0323057Y0042569D01*
X0322748Y0042252D01*
X0322431Y0041943D01*
X0322107Y0041642D01*
X0321775Y0041349D01*
X0321437Y0041064D01*
X0321091Y0040788D01*
X0320739Y0040520D01*
X0320381Y0040261D01*
X0320016Y0040010D01*
X0319645Y0039769D01*
X0319268Y0039537D01*
X0318886Y0039314D01*
X0318498Y0039101D01*
X0318106Y0038897D01*
X0317708Y0038703D01*
X0317306Y0038519D01*
X0316899Y0038344D01*
X0316488Y0038180D01*
X0316073Y0038026D01*
X0315655Y0037882D01*
X0315233Y0037748D01*
X0314808Y0037625D01*
X0314380Y0037512D01*
X0313950Y0037410D01*
X0313517Y0037318D01*
X0313082Y0037237D01*
X0312645Y0037167D01*
X0312207Y0037108D01*
X0311767Y0037059D01*
X0311326Y0037021D01*
X0310885Y0036994D01*
X0310442Y0036977D01*
X0310000Y0036972D01*
X0309558Y0036977D01*
X0309115Y0036994D01*
X0308674Y0037021D01*
X0308233Y0037059D01*
X0307793Y0037108D01*
X0307355Y0037167D01*
X0306918Y0037237D01*
X0306483Y0037318D01*
X0306050Y0037410D01*
X0305620Y0037512D01*
X0305192Y0037625D01*
X0304767Y0037748D01*
X0304345Y0037882D01*
X0303927Y0038026D01*
X0303512Y0038180D01*
X0303101Y0038344D01*
X0302694Y0038519D01*
X0302292Y0038703D01*
X0301894Y0038897D01*
X0301502Y0039101D01*
X0301114Y0039314D01*
X0300732Y0039537D01*
X0300355Y0039769D01*
X0299984Y0040010D01*
X0299619Y0040261D01*
X0299261Y0040520D01*
X0298909Y0040788D01*
X0298563Y0041064D01*
X0298225Y0041349D01*
X0297893Y0041642D01*
X0297569Y0041943D01*
X0297252Y0042252D01*
X0296943Y0042569D01*
X0296642Y0042893D01*
X0296349Y0043225D01*
X0296064Y0043563D01*
X0295788Y0043909D01*
X0295520Y0044261D01*
X0295261Y0044619D01*
X0295010Y0044984D01*
X0294769Y0045355D01*
X0294537Y0045732D01*
X0294314Y0046114D01*
X0294101Y0046502D01*
X0293897Y0046894D01*
X0293703Y0047292D01*
X0293519Y0047694D01*
X0293344Y0048101D01*
X0293180Y0048512D01*
X0293026Y0048927D01*
X0292882Y0049345D01*
X0292748Y0049767D01*
X0292625Y0050192D01*
X0292512Y0050620D01*
X0292410Y0051050D01*
X0292318Y0051483D01*
X0292237Y0051918D01*
X0292167Y0052355D01*
X0292108Y0052793D01*
X0292059Y0053233D01*
X0292021Y0053674D01*
X0291994Y0054115D01*
X0291977Y0054558D01*
X0291972Y0055000D01*
X0276243Y0048255D02*
X0272173Y0048255D01*
X0272173Y0045203D01*
X0274208Y0046220D01*
X0275225Y0046220D01*
X0276243Y0045203D01*
X0276243Y0043168D01*
X0275225Y0042150D01*
X0273190Y0042150D01*
X0272173Y0043168D01*
X0270166Y0043168D02*
X0269148Y0042150D01*
X0267113Y0042150D01*
X0266096Y0043168D01*
X0266096Y0047238D01*
X0267113Y0048255D01*
X0269148Y0048255D01*
X0270166Y0047238D01*
X0246972Y0055000D02*
X0246977Y0055442D01*
X0246994Y0055885D01*
X0247021Y0056326D01*
X0247059Y0056767D01*
X0247108Y0057207D01*
X0247167Y0057645D01*
X0247237Y0058082D01*
X0247318Y0058517D01*
X0247410Y0058950D01*
X0247512Y0059380D01*
X0247625Y0059808D01*
X0247748Y0060233D01*
X0247882Y0060655D01*
X0248026Y0061073D01*
X0248180Y0061488D01*
X0248344Y0061899D01*
X0248519Y0062306D01*
X0248703Y0062708D01*
X0248897Y0063106D01*
X0249101Y0063498D01*
X0249314Y0063886D01*
X0249537Y0064268D01*
X0249769Y0064645D01*
X0250010Y0065016D01*
X0250261Y0065381D01*
X0250520Y0065739D01*
X0250788Y0066091D01*
X0251064Y0066437D01*
X0251349Y0066775D01*
X0251642Y0067107D01*
X0251943Y0067431D01*
X0252252Y0067748D01*
X0252569Y0068057D01*
X0252893Y0068358D01*
X0253225Y0068651D01*
X0253563Y0068936D01*
X0253909Y0069212D01*
X0254261Y0069480D01*
X0254619Y0069739D01*
X0254984Y0069990D01*
X0255355Y0070231D01*
X0255732Y0070463D01*
X0256114Y0070686D01*
X0256502Y0070899D01*
X0256894Y0071103D01*
X0257292Y0071297D01*
X0257694Y0071481D01*
X0258101Y0071656D01*
X0258512Y0071820D01*
X0258927Y0071974D01*
X0259345Y0072118D01*
X0259767Y0072252D01*
X0260192Y0072375D01*
X0260620Y0072488D01*
X0261050Y0072590D01*
X0261483Y0072682D01*
X0261918Y0072763D01*
X0262355Y0072833D01*
X0262793Y0072892D01*
X0263233Y0072941D01*
X0263674Y0072979D01*
X0264115Y0073006D01*
X0264558Y0073023D01*
X0265000Y0073028D01*
X0265442Y0073023D01*
X0265885Y0073006D01*
X0266326Y0072979D01*
X0266767Y0072941D01*
X0267207Y0072892D01*
X0267645Y0072833D01*
X0268082Y0072763D01*
X0268517Y0072682D01*
X0268950Y0072590D01*
X0269380Y0072488D01*
X0269808Y0072375D01*
X0270233Y0072252D01*
X0270655Y0072118D01*
X0271073Y0071974D01*
X0271488Y0071820D01*
X0271899Y0071656D01*
X0272306Y0071481D01*
X0272708Y0071297D01*
X0273106Y0071103D01*
X0273498Y0070899D01*
X0273886Y0070686D01*
X0274268Y0070463D01*
X0274645Y0070231D01*
X0275016Y0069990D01*
X0275381Y0069739D01*
X0275739Y0069480D01*
X0276091Y0069212D01*
X0276437Y0068936D01*
X0276775Y0068651D01*
X0277107Y0068358D01*
X0277431Y0068057D01*
X0277748Y0067748D01*
X0278057Y0067431D01*
X0278358Y0067107D01*
X0278651Y0066775D01*
X0278936Y0066437D01*
X0279212Y0066091D01*
X0279480Y0065739D01*
X0279739Y0065381D01*
X0279990Y0065016D01*
X0280231Y0064645D01*
X0280463Y0064268D01*
X0280686Y0063886D01*
X0280899Y0063498D01*
X0281103Y0063106D01*
X0281297Y0062708D01*
X0281481Y0062306D01*
X0281656Y0061899D01*
X0281820Y0061488D01*
X0281974Y0061073D01*
X0282118Y0060655D01*
X0282252Y0060233D01*
X0282375Y0059808D01*
X0282488Y0059380D01*
X0282590Y0058950D01*
X0282682Y0058517D01*
X0282763Y0058082D01*
X0282833Y0057645D01*
X0282892Y0057207D01*
X0282941Y0056767D01*
X0282979Y0056326D01*
X0283006Y0055885D01*
X0283023Y0055442D01*
X0283028Y0055000D01*
X0283023Y0054558D01*
X0283006Y0054115D01*
X0282979Y0053674D01*
X0282941Y0053233D01*
X0282892Y0052793D01*
X0282833Y0052355D01*
X0282763Y0051918D01*
X0282682Y0051483D01*
X0282590Y0051050D01*
X0282488Y0050620D01*
X0282375Y0050192D01*
X0282252Y0049767D01*
X0282118Y0049345D01*
X0281974Y0048927D01*
X0281820Y0048512D01*
X0281656Y0048101D01*
X0281481Y0047694D01*
X0281297Y0047292D01*
X0281103Y0046894D01*
X0280899Y0046502D01*
X0280686Y0046114D01*
X0280463Y0045732D01*
X0280231Y0045355D01*
X0279990Y0044984D01*
X0279739Y0044619D01*
X0279480Y0044261D01*
X0279212Y0043909D01*
X0278936Y0043563D01*
X0278651Y0043225D01*
X0278358Y0042893D01*
X0278057Y0042569D01*
X0277748Y0042252D01*
X0277431Y0041943D01*
X0277107Y0041642D01*
X0276775Y0041349D01*
X0276437Y0041064D01*
X0276091Y0040788D01*
X0275739Y0040520D01*
X0275381Y0040261D01*
X0275016Y0040010D01*
X0274645Y0039769D01*
X0274268Y0039537D01*
X0273886Y0039314D01*
X0273498Y0039101D01*
X0273106Y0038897D01*
X0272708Y0038703D01*
X0272306Y0038519D01*
X0271899Y0038344D01*
X0271488Y0038180D01*
X0271073Y0038026D01*
X0270655Y0037882D01*
X0270233Y0037748D01*
X0269808Y0037625D01*
X0269380Y0037512D01*
X0268950Y0037410D01*
X0268517Y0037318D01*
X0268082Y0037237D01*
X0267645Y0037167D01*
X0267207Y0037108D01*
X0266767Y0037059D01*
X0266326Y0037021D01*
X0265885Y0036994D01*
X0265442Y0036977D01*
X0265000Y0036972D01*
X0264558Y0036977D01*
X0264115Y0036994D01*
X0263674Y0037021D01*
X0263233Y0037059D01*
X0262793Y0037108D01*
X0262355Y0037167D01*
X0261918Y0037237D01*
X0261483Y0037318D01*
X0261050Y0037410D01*
X0260620Y0037512D01*
X0260192Y0037625D01*
X0259767Y0037748D01*
X0259345Y0037882D01*
X0258927Y0038026D01*
X0258512Y0038180D01*
X0258101Y0038344D01*
X0257694Y0038519D01*
X0257292Y0038703D01*
X0256894Y0038897D01*
X0256502Y0039101D01*
X0256114Y0039314D01*
X0255732Y0039537D01*
X0255355Y0039769D01*
X0254984Y0040010D01*
X0254619Y0040261D01*
X0254261Y0040520D01*
X0253909Y0040788D01*
X0253563Y0041064D01*
X0253225Y0041349D01*
X0252893Y0041642D01*
X0252569Y0041943D01*
X0252252Y0042252D01*
X0251943Y0042569D01*
X0251642Y0042893D01*
X0251349Y0043225D01*
X0251064Y0043563D01*
X0250788Y0043909D01*
X0250520Y0044261D01*
X0250261Y0044619D01*
X0250010Y0044984D01*
X0249769Y0045355D01*
X0249537Y0045732D01*
X0249314Y0046114D01*
X0249101Y0046502D01*
X0248897Y0046894D01*
X0248703Y0047292D01*
X0248519Y0047694D01*
X0248344Y0048101D01*
X0248180Y0048512D01*
X0248026Y0048927D01*
X0247882Y0049345D01*
X0247748Y0049767D01*
X0247625Y0050192D01*
X0247512Y0050620D01*
X0247410Y0051050D01*
X0247318Y0051483D01*
X0247237Y0051918D01*
X0247167Y0052355D01*
X0247108Y0052793D01*
X0247059Y0053233D01*
X0247021Y0053674D01*
X0246994Y0054115D01*
X0246977Y0054558D01*
X0246972Y0055000D01*
X0311096Y0047238D02*
X0311096Y0043168D01*
X0312113Y0042150D01*
X0314148Y0042150D01*
X0315166Y0043168D01*
X0317173Y0043168D02*
X0318190Y0042150D01*
X0320225Y0042150D01*
X0321243Y0043168D01*
X0321243Y0044185D01*
X0320225Y0045203D01*
X0317173Y0045203D01*
X0317173Y0043168D01*
X0317173Y0045203D02*
X0319208Y0047238D01*
X0321243Y0048255D01*
X0315166Y0047238D02*
X0314148Y0048255D01*
X0312113Y0048255D01*
X0311096Y0047238D01*
X0326250Y0018750D02*
X0293750Y0018750D01*
X0293750Y0016250D01*
X0281250Y0016250D02*
X0281250Y0018750D01*
X0248750Y0018750D01*
X0248750Y0016250D01*
X0326250Y0016250D02*
X0326250Y0018750D01*
D11*
X0328701Y0075000D02*
X0328703Y0075158D01*
X0328709Y0075316D01*
X0328719Y0075474D01*
X0328733Y0075632D01*
X0328751Y0075789D01*
X0328772Y0075946D01*
X0328798Y0076102D01*
X0328828Y0076258D01*
X0328861Y0076413D01*
X0328899Y0076566D01*
X0328940Y0076719D01*
X0328985Y0076871D01*
X0329034Y0077022D01*
X0329087Y0077171D01*
X0329143Y0077319D01*
X0329203Y0077465D01*
X0329267Y0077610D01*
X0329335Y0077753D01*
X0329406Y0077895D01*
X0329480Y0078035D01*
X0329558Y0078172D01*
X0329640Y0078308D01*
X0329724Y0078442D01*
X0329813Y0078573D01*
X0329904Y0078702D01*
X0329999Y0078829D01*
X0330096Y0078954D01*
X0330197Y0079076D01*
X0330301Y0079195D01*
X0330408Y0079312D01*
X0330518Y0079426D01*
X0330631Y0079537D01*
X0330746Y0079646D01*
X0330864Y0079751D01*
X0330985Y0079853D01*
X0331108Y0079953D01*
X0331234Y0080049D01*
X0331362Y0080142D01*
X0331492Y0080232D01*
X0331625Y0080318D01*
X0331760Y0080402D01*
X0331896Y0080481D01*
X0332035Y0080558D01*
X0332176Y0080630D01*
X0332318Y0080700D01*
X0332462Y0080765D01*
X0332608Y0080827D01*
X0332755Y0080885D01*
X0332904Y0080940D01*
X0333054Y0080991D01*
X0333205Y0081038D01*
X0333357Y0081081D01*
X0333510Y0081120D01*
X0333665Y0081156D01*
X0333820Y0081187D01*
X0333976Y0081215D01*
X0334132Y0081239D01*
X0334289Y0081259D01*
X0334447Y0081275D01*
X0334604Y0081287D01*
X0334763Y0081295D01*
X0334921Y0081299D01*
X0335079Y0081299D01*
X0335237Y0081295D01*
X0335396Y0081287D01*
X0335553Y0081275D01*
X0335711Y0081259D01*
X0335868Y0081239D01*
X0336024Y0081215D01*
X0336180Y0081187D01*
X0336335Y0081156D01*
X0336490Y0081120D01*
X0336643Y0081081D01*
X0336795Y0081038D01*
X0336946Y0080991D01*
X0337096Y0080940D01*
X0337245Y0080885D01*
X0337392Y0080827D01*
X0337538Y0080765D01*
X0337682Y0080700D01*
X0337824Y0080630D01*
X0337965Y0080558D01*
X0338104Y0080481D01*
X0338240Y0080402D01*
X0338375Y0080318D01*
X0338508Y0080232D01*
X0338638Y0080142D01*
X0338766Y0080049D01*
X0338892Y0079953D01*
X0339015Y0079853D01*
X0339136Y0079751D01*
X0339254Y0079646D01*
X0339369Y0079537D01*
X0339482Y0079426D01*
X0339592Y0079312D01*
X0339699Y0079195D01*
X0339803Y0079076D01*
X0339904Y0078954D01*
X0340001Y0078829D01*
X0340096Y0078702D01*
X0340187Y0078573D01*
X0340276Y0078442D01*
X0340360Y0078308D01*
X0340442Y0078172D01*
X0340520Y0078035D01*
X0340594Y0077895D01*
X0340665Y0077753D01*
X0340733Y0077610D01*
X0340797Y0077465D01*
X0340857Y0077319D01*
X0340913Y0077171D01*
X0340966Y0077022D01*
X0341015Y0076871D01*
X0341060Y0076719D01*
X0341101Y0076566D01*
X0341139Y0076413D01*
X0341172Y0076258D01*
X0341202Y0076102D01*
X0341228Y0075946D01*
X0341249Y0075789D01*
X0341267Y0075632D01*
X0341281Y0075474D01*
X0341291Y0075316D01*
X0341297Y0075158D01*
X0341299Y0075000D01*
X0341297Y0074842D01*
X0341291Y0074684D01*
X0341281Y0074526D01*
X0341267Y0074368D01*
X0341249Y0074211D01*
X0341228Y0074054D01*
X0341202Y0073898D01*
X0341172Y0073742D01*
X0341139Y0073587D01*
X0341101Y0073434D01*
X0341060Y0073281D01*
X0341015Y0073129D01*
X0340966Y0072978D01*
X0340913Y0072829D01*
X0340857Y0072681D01*
X0340797Y0072535D01*
X0340733Y0072390D01*
X0340665Y0072247D01*
X0340594Y0072105D01*
X0340520Y0071965D01*
X0340442Y0071828D01*
X0340360Y0071692D01*
X0340276Y0071558D01*
X0340187Y0071427D01*
X0340096Y0071298D01*
X0340001Y0071171D01*
X0339904Y0071046D01*
X0339803Y0070924D01*
X0339699Y0070805D01*
X0339592Y0070688D01*
X0339482Y0070574D01*
X0339369Y0070463D01*
X0339254Y0070354D01*
X0339136Y0070249D01*
X0339015Y0070147D01*
X0338892Y0070047D01*
X0338766Y0069951D01*
X0338638Y0069858D01*
X0338508Y0069768D01*
X0338375Y0069682D01*
X0338240Y0069598D01*
X0338104Y0069519D01*
X0337965Y0069442D01*
X0337824Y0069370D01*
X0337682Y0069300D01*
X0337538Y0069235D01*
X0337392Y0069173D01*
X0337245Y0069115D01*
X0337096Y0069060D01*
X0336946Y0069009D01*
X0336795Y0068962D01*
X0336643Y0068919D01*
X0336490Y0068880D01*
X0336335Y0068844D01*
X0336180Y0068813D01*
X0336024Y0068785D01*
X0335868Y0068761D01*
X0335711Y0068741D01*
X0335553Y0068725D01*
X0335396Y0068713D01*
X0335237Y0068705D01*
X0335079Y0068701D01*
X0334921Y0068701D01*
X0334763Y0068705D01*
X0334604Y0068713D01*
X0334447Y0068725D01*
X0334289Y0068741D01*
X0334132Y0068761D01*
X0333976Y0068785D01*
X0333820Y0068813D01*
X0333665Y0068844D01*
X0333510Y0068880D01*
X0333357Y0068919D01*
X0333205Y0068962D01*
X0333054Y0069009D01*
X0332904Y0069060D01*
X0332755Y0069115D01*
X0332608Y0069173D01*
X0332462Y0069235D01*
X0332318Y0069300D01*
X0332176Y0069370D01*
X0332035Y0069442D01*
X0331896Y0069519D01*
X0331760Y0069598D01*
X0331625Y0069682D01*
X0331492Y0069768D01*
X0331362Y0069858D01*
X0331234Y0069951D01*
X0331108Y0070047D01*
X0330985Y0070147D01*
X0330864Y0070249D01*
X0330746Y0070354D01*
X0330631Y0070463D01*
X0330518Y0070574D01*
X0330408Y0070688D01*
X0330301Y0070805D01*
X0330197Y0070924D01*
X0330096Y0071046D01*
X0329999Y0071171D01*
X0329904Y0071298D01*
X0329813Y0071427D01*
X0329724Y0071558D01*
X0329640Y0071692D01*
X0329558Y0071828D01*
X0329480Y0071965D01*
X0329406Y0072105D01*
X0329335Y0072247D01*
X0329267Y0072390D01*
X0329203Y0072535D01*
X0329143Y0072681D01*
X0329087Y0072829D01*
X0329034Y0072978D01*
X0328985Y0073129D01*
X0328940Y0073281D01*
X0328899Y0073434D01*
X0328861Y0073587D01*
X0328828Y0073742D01*
X0328798Y0073898D01*
X0328772Y0074054D01*
X0328751Y0074211D01*
X0328733Y0074368D01*
X0328719Y0074526D01*
X0328709Y0074684D01*
X0328703Y0074842D01*
X0328701Y0075000D01*
X0008701Y0075000D02*
X0008703Y0075158D01*
X0008709Y0075316D01*
X0008719Y0075474D01*
X0008733Y0075632D01*
X0008751Y0075789D01*
X0008772Y0075946D01*
X0008798Y0076102D01*
X0008828Y0076258D01*
X0008861Y0076413D01*
X0008899Y0076566D01*
X0008940Y0076719D01*
X0008985Y0076871D01*
X0009034Y0077022D01*
X0009087Y0077171D01*
X0009143Y0077319D01*
X0009203Y0077465D01*
X0009267Y0077610D01*
X0009335Y0077753D01*
X0009406Y0077895D01*
X0009480Y0078035D01*
X0009558Y0078172D01*
X0009640Y0078308D01*
X0009724Y0078442D01*
X0009813Y0078573D01*
X0009904Y0078702D01*
X0009999Y0078829D01*
X0010096Y0078954D01*
X0010197Y0079076D01*
X0010301Y0079195D01*
X0010408Y0079312D01*
X0010518Y0079426D01*
X0010631Y0079537D01*
X0010746Y0079646D01*
X0010864Y0079751D01*
X0010985Y0079853D01*
X0011108Y0079953D01*
X0011234Y0080049D01*
X0011362Y0080142D01*
X0011492Y0080232D01*
X0011625Y0080318D01*
X0011760Y0080402D01*
X0011896Y0080481D01*
X0012035Y0080558D01*
X0012176Y0080630D01*
X0012318Y0080700D01*
X0012462Y0080765D01*
X0012608Y0080827D01*
X0012755Y0080885D01*
X0012904Y0080940D01*
X0013054Y0080991D01*
X0013205Y0081038D01*
X0013357Y0081081D01*
X0013510Y0081120D01*
X0013665Y0081156D01*
X0013820Y0081187D01*
X0013976Y0081215D01*
X0014132Y0081239D01*
X0014289Y0081259D01*
X0014447Y0081275D01*
X0014604Y0081287D01*
X0014763Y0081295D01*
X0014921Y0081299D01*
X0015079Y0081299D01*
X0015237Y0081295D01*
X0015396Y0081287D01*
X0015553Y0081275D01*
X0015711Y0081259D01*
X0015868Y0081239D01*
X0016024Y0081215D01*
X0016180Y0081187D01*
X0016335Y0081156D01*
X0016490Y0081120D01*
X0016643Y0081081D01*
X0016795Y0081038D01*
X0016946Y0080991D01*
X0017096Y0080940D01*
X0017245Y0080885D01*
X0017392Y0080827D01*
X0017538Y0080765D01*
X0017682Y0080700D01*
X0017824Y0080630D01*
X0017965Y0080558D01*
X0018104Y0080481D01*
X0018240Y0080402D01*
X0018375Y0080318D01*
X0018508Y0080232D01*
X0018638Y0080142D01*
X0018766Y0080049D01*
X0018892Y0079953D01*
X0019015Y0079853D01*
X0019136Y0079751D01*
X0019254Y0079646D01*
X0019369Y0079537D01*
X0019482Y0079426D01*
X0019592Y0079312D01*
X0019699Y0079195D01*
X0019803Y0079076D01*
X0019904Y0078954D01*
X0020001Y0078829D01*
X0020096Y0078702D01*
X0020187Y0078573D01*
X0020276Y0078442D01*
X0020360Y0078308D01*
X0020442Y0078172D01*
X0020520Y0078035D01*
X0020594Y0077895D01*
X0020665Y0077753D01*
X0020733Y0077610D01*
X0020797Y0077465D01*
X0020857Y0077319D01*
X0020913Y0077171D01*
X0020966Y0077022D01*
X0021015Y0076871D01*
X0021060Y0076719D01*
X0021101Y0076566D01*
X0021139Y0076413D01*
X0021172Y0076258D01*
X0021202Y0076102D01*
X0021228Y0075946D01*
X0021249Y0075789D01*
X0021267Y0075632D01*
X0021281Y0075474D01*
X0021291Y0075316D01*
X0021297Y0075158D01*
X0021299Y0075000D01*
X0021297Y0074842D01*
X0021291Y0074684D01*
X0021281Y0074526D01*
X0021267Y0074368D01*
X0021249Y0074211D01*
X0021228Y0074054D01*
X0021202Y0073898D01*
X0021172Y0073742D01*
X0021139Y0073587D01*
X0021101Y0073434D01*
X0021060Y0073281D01*
X0021015Y0073129D01*
X0020966Y0072978D01*
X0020913Y0072829D01*
X0020857Y0072681D01*
X0020797Y0072535D01*
X0020733Y0072390D01*
X0020665Y0072247D01*
X0020594Y0072105D01*
X0020520Y0071965D01*
X0020442Y0071828D01*
X0020360Y0071692D01*
X0020276Y0071558D01*
X0020187Y0071427D01*
X0020096Y0071298D01*
X0020001Y0071171D01*
X0019904Y0071046D01*
X0019803Y0070924D01*
X0019699Y0070805D01*
X0019592Y0070688D01*
X0019482Y0070574D01*
X0019369Y0070463D01*
X0019254Y0070354D01*
X0019136Y0070249D01*
X0019015Y0070147D01*
X0018892Y0070047D01*
X0018766Y0069951D01*
X0018638Y0069858D01*
X0018508Y0069768D01*
X0018375Y0069682D01*
X0018240Y0069598D01*
X0018104Y0069519D01*
X0017965Y0069442D01*
X0017824Y0069370D01*
X0017682Y0069300D01*
X0017538Y0069235D01*
X0017392Y0069173D01*
X0017245Y0069115D01*
X0017096Y0069060D01*
X0016946Y0069009D01*
X0016795Y0068962D01*
X0016643Y0068919D01*
X0016490Y0068880D01*
X0016335Y0068844D01*
X0016180Y0068813D01*
X0016024Y0068785D01*
X0015868Y0068761D01*
X0015711Y0068741D01*
X0015553Y0068725D01*
X0015396Y0068713D01*
X0015237Y0068705D01*
X0015079Y0068701D01*
X0014921Y0068701D01*
X0014763Y0068705D01*
X0014604Y0068713D01*
X0014447Y0068725D01*
X0014289Y0068741D01*
X0014132Y0068761D01*
X0013976Y0068785D01*
X0013820Y0068813D01*
X0013665Y0068844D01*
X0013510Y0068880D01*
X0013357Y0068919D01*
X0013205Y0068962D01*
X0013054Y0069009D01*
X0012904Y0069060D01*
X0012755Y0069115D01*
X0012608Y0069173D01*
X0012462Y0069235D01*
X0012318Y0069300D01*
X0012176Y0069370D01*
X0012035Y0069442D01*
X0011896Y0069519D01*
X0011760Y0069598D01*
X0011625Y0069682D01*
X0011492Y0069768D01*
X0011362Y0069858D01*
X0011234Y0069951D01*
X0011108Y0070047D01*
X0010985Y0070147D01*
X0010864Y0070249D01*
X0010746Y0070354D01*
X0010631Y0070463D01*
X0010518Y0070574D01*
X0010408Y0070688D01*
X0010301Y0070805D01*
X0010197Y0070924D01*
X0010096Y0071046D01*
X0009999Y0071171D01*
X0009904Y0071298D01*
X0009813Y0071427D01*
X0009724Y0071558D01*
X0009640Y0071692D01*
X0009558Y0071828D01*
X0009480Y0071965D01*
X0009406Y0072105D01*
X0009335Y0072247D01*
X0009267Y0072390D01*
X0009203Y0072535D01*
X0009143Y0072681D01*
X0009087Y0072829D01*
X0009034Y0072978D01*
X0008985Y0073129D01*
X0008940Y0073281D01*
X0008899Y0073434D01*
X0008861Y0073587D01*
X0008828Y0073742D01*
X0008798Y0073898D01*
X0008772Y0074054D01*
X0008751Y0074211D01*
X0008733Y0074368D01*
X0008719Y0074526D01*
X0008709Y0074684D01*
X0008703Y0074842D01*
X0008701Y0075000D01*
D12*
X0020356Y0123950D02*
X0022959Y0123950D01*
X0023826Y0124817D01*
X0023826Y0125685D01*
X0022959Y0126552D01*
X0020356Y0126552D01*
X0018670Y0126552D02*
X0015200Y0126552D01*
X0020356Y0123950D02*
X0020356Y0129154D01*
X0022959Y0129154D01*
X0023826Y0128287D01*
X0023826Y0127420D01*
X0022959Y0126552D01*
X0043950Y0126552D02*
X0047420Y0126552D01*
X0049106Y0126552D02*
X0050841Y0126552D01*
X0045685Y0128287D02*
X0045685Y0124817D01*
X0049106Y0123950D02*
X0052576Y0123950D01*
X0049106Y0123950D02*
X0049106Y0129154D01*
X0052576Y0129154D01*
X0083950Y0129154D02*
X0083950Y0123950D01*
X0086552Y0123950D01*
X0087420Y0124817D01*
X0087420Y0125685D01*
X0086552Y0126552D01*
X0083950Y0126552D01*
X0086552Y0126552D02*
X0087420Y0127420D01*
X0087420Y0128287D01*
X0086552Y0129154D01*
X0083950Y0129154D01*
X0089106Y0129154D02*
X0091709Y0129154D01*
X0092576Y0128287D01*
X0092576Y0127420D01*
X0091709Y0126552D01*
X0089106Y0126552D01*
X0091709Y0126552D02*
X0092576Y0125685D01*
X0092576Y0124817D01*
X0091709Y0123950D01*
X0089106Y0123950D01*
X0089106Y0129154D01*
X0094263Y0127420D02*
X0095998Y0129154D01*
X0097700Y0129154D02*
X0097700Y0123950D01*
X0101170Y0123950D01*
X0102857Y0123950D02*
X0104592Y0125685D01*
X0104592Y0127420D01*
X0102857Y0129154D01*
X0108950Y0129154D02*
X0111552Y0129154D01*
X0112420Y0128287D01*
X0112420Y0127420D01*
X0111552Y0126552D01*
X0108950Y0126552D01*
X0111552Y0126552D02*
X0112420Y0125685D01*
X0112420Y0124817D01*
X0111552Y0123950D01*
X0108950Y0123950D01*
X0108950Y0129154D01*
X0114106Y0129154D02*
X0116709Y0129154D01*
X0117576Y0128287D01*
X0117576Y0127420D01*
X0116709Y0126552D01*
X0114106Y0126552D01*
X0116709Y0126552D02*
X0117576Y0125685D01*
X0117576Y0124817D01*
X0116709Y0123950D01*
X0114106Y0123950D01*
X0114106Y0129154D01*
X0119263Y0127420D02*
X0120998Y0129154D01*
X0122700Y0129154D02*
X0125303Y0129154D01*
X0126170Y0128287D01*
X0126170Y0126552D01*
X0125303Y0125685D01*
X0122700Y0125685D01*
X0122700Y0123950D02*
X0122700Y0129154D01*
X0119263Y0127420D02*
X0119263Y0125685D01*
X0120998Y0123950D01*
X0124435Y0125685D02*
X0126170Y0123950D01*
X0127857Y0123950D02*
X0129592Y0125685D01*
X0129592Y0127420D01*
X0127857Y0129154D01*
X0095998Y0123950D02*
X0094263Y0125685D01*
X0094263Y0127420D01*
X0206450Y0128287D02*
X0207317Y0129154D01*
X0209052Y0129154D01*
X0209920Y0128287D01*
X0209920Y0127420D01*
X0206450Y0123950D01*
X0209920Y0123950D01*
X0211606Y0124817D02*
X0215076Y0128287D01*
X0215076Y0124817D01*
X0214209Y0123950D01*
X0212474Y0123950D01*
X0211606Y0124817D01*
X0211606Y0128287D01*
X0212474Y0129154D01*
X0214209Y0129154D01*
X0215076Y0128287D01*
X0216763Y0128287D02*
X0217630Y0129154D01*
X0219365Y0129154D01*
X0220232Y0128287D01*
X0216763Y0124817D01*
X0217630Y0123950D01*
X0219365Y0123950D01*
X0220232Y0124817D01*
X0220232Y0128287D01*
X0221919Y0129154D02*
X0221919Y0125685D01*
X0223654Y0123950D01*
X0225389Y0125685D01*
X0225389Y0129154D01*
X0216763Y0128287D02*
X0216763Y0124817D01*
X0253950Y0126552D02*
X0257420Y0126552D01*
X0259106Y0124817D02*
X0259974Y0124817D01*
X0259974Y0123950D01*
X0259106Y0123950D01*
X0259106Y0124817D01*
X0256552Y0123950D02*
X0256552Y0129154D01*
X0253950Y0126552D01*
X0261685Y0128287D02*
X0262552Y0129154D01*
X0264287Y0129154D01*
X0265154Y0128287D01*
X0265154Y0127420D01*
X0261685Y0123950D01*
X0265154Y0123950D01*
X0266841Y0125685D02*
X0268576Y0123950D01*
X0270311Y0125685D01*
X0270311Y0129154D01*
X0271997Y0127420D02*
X0273732Y0129154D01*
X0275435Y0129154D02*
X0275435Y0123950D01*
X0278905Y0123950D01*
X0280591Y0123950D02*
X0282326Y0125685D01*
X0282326Y0127420D01*
X0280591Y0129154D01*
X0273732Y0123950D02*
X0271997Y0125685D01*
X0271997Y0127420D01*
X0266841Y0129154D02*
X0266841Y0125685D01*
X0296450Y0126552D02*
X0299920Y0126552D01*
X0301606Y0124817D02*
X0302474Y0124817D01*
X0302474Y0123950D01*
X0301606Y0123950D01*
X0301606Y0124817D01*
X0299052Y0123950D02*
X0299052Y0129154D01*
X0296450Y0126552D01*
X0304185Y0128287D02*
X0305052Y0129154D01*
X0306787Y0129154D01*
X0307654Y0128287D01*
X0307654Y0127420D01*
X0304185Y0123950D01*
X0307654Y0123950D01*
X0309341Y0125685D02*
X0311076Y0123950D01*
X0312811Y0125685D01*
X0312811Y0129154D01*
X0314497Y0127420D02*
X0316232Y0129154D01*
X0317935Y0129154D02*
X0320537Y0129154D01*
X0321405Y0128287D01*
X0321405Y0126552D01*
X0320537Y0125685D01*
X0317935Y0125685D01*
X0319670Y0125685D02*
X0321405Y0123950D01*
X0323091Y0123950D02*
X0324826Y0125685D01*
X0324826Y0127420D01*
X0323091Y0129154D01*
X0317935Y0129154D02*
X0317935Y0123950D01*
X0316232Y0123950D02*
X0314497Y0125685D01*
X0314497Y0127420D01*
X0309341Y0129154D02*
X0309341Y0125685D01*
X0225646Y0033304D02*
X0223044Y0030702D01*
X0226513Y0030702D01*
X0225646Y0028100D02*
X0225646Y0033304D01*
X0221357Y0032437D02*
X0220489Y0033304D01*
X0218755Y0033304D01*
X0217887Y0032437D01*
X0217887Y0028967D01*
X0218755Y0028100D01*
X0220489Y0028100D01*
X0221357Y0028967D01*
X0252700Y0022802D02*
X0256170Y0022802D01*
X0257856Y0021935D02*
X0260459Y0021935D01*
X0261326Y0022802D01*
X0261326Y0024537D01*
X0260459Y0025404D01*
X0257856Y0025404D01*
X0257856Y0020200D01*
X0255302Y0020200D02*
X0255302Y0025404D01*
X0252700Y0022802D01*
X0263013Y0023670D02*
X0264748Y0025404D01*
X0264748Y0020200D01*
X0266482Y0020200D02*
X0263013Y0020200D01*
X0268169Y0020200D02*
X0271639Y0020200D01*
X0273326Y0021935D02*
X0273326Y0023670D01*
X0275060Y0025404D01*
X0276763Y0025404D02*
X0276763Y0020200D01*
X0280233Y0020200D01*
X0281920Y0020200D02*
X0283654Y0021935D01*
X0283654Y0023670D01*
X0281920Y0025404D01*
X0275060Y0020200D02*
X0273326Y0021935D01*
X0268169Y0020200D02*
X0268169Y0025404D01*
X0295200Y0022802D02*
X0298670Y0022802D01*
X0300356Y0021935D02*
X0302959Y0021935D01*
X0303826Y0022802D01*
X0303826Y0024537D01*
X0302959Y0025404D01*
X0300356Y0025404D01*
X0300356Y0020200D01*
X0297802Y0020200D02*
X0297802Y0025404D01*
X0295200Y0022802D01*
X0305513Y0023670D02*
X0307248Y0025404D01*
X0307248Y0020200D01*
X0308982Y0020200D02*
X0305513Y0020200D01*
X0310669Y0020200D02*
X0314139Y0020200D01*
X0315826Y0021935D02*
X0315826Y0023670D01*
X0317560Y0025404D01*
X0319263Y0025404D02*
X0321865Y0025404D01*
X0322733Y0024537D01*
X0322733Y0022802D01*
X0321865Y0021935D01*
X0319263Y0021935D01*
X0320998Y0021935D02*
X0322733Y0020200D01*
X0324420Y0020200D02*
X0326154Y0021935D01*
X0326154Y0023670D01*
X0324420Y0025404D01*
X0319263Y0025404D02*
X0319263Y0020200D01*
X0317560Y0020200D02*
X0315826Y0021935D01*
X0310669Y0020200D02*
X0310669Y0025404D01*
X0302019Y0011054D02*
X0298950Y0011054D01*
X0302019Y0011054D02*
X0302019Y0010287D01*
X0298950Y0007217D01*
X0298950Y0006450D01*
X0318950Y0006450D02*
X0322019Y0006450D01*
X0320485Y0006450D02*
X0320485Y0011054D01*
X0318950Y0009519D01*
X0277019Y0006450D02*
X0273950Y0006450D01*
X0275485Y0006450D02*
X0275485Y0011054D01*
X0273950Y0009519D01*
X0257019Y0010287D02*
X0253950Y0007217D01*
X0253950Y0006450D01*
X0253950Y0011054D02*
X0257019Y0011054D01*
X0257019Y0010287D01*
X0178826Y0018950D02*
X0178826Y0022420D01*
X0177091Y0024154D01*
X0175356Y0022420D01*
X0175356Y0018950D01*
X0175356Y0021552D02*
X0178826Y0021552D01*
X0173670Y0021552D02*
X0170200Y0021552D01*
D13*
X0222500Y0040000D02*
X0227500Y0040000D01*
X0272500Y0050000D02*
X0277500Y0050000D01*
X0317500Y0050000D02*
X0322500Y0050000D01*
X0035000Y0027500D02*
X0035000Y0022500D01*
D14*
X0075000Y0042750D02*
X0080000Y0042750D01*
X0085000Y0042750D01*
X0085000Y0047500D02*
X0080000Y0047500D01*
X0075000Y0047500D01*
X0110000Y0037500D02*
X0115000Y0037500D01*
X0120000Y0037500D01*
X0120000Y0032750D02*
X0115000Y0032750D01*
X0110000Y0032750D01*
D15*
X0115000Y0032750D02*
X0115000Y0020000D01*
X0105000Y0009000D02*
X0104913Y0009002D01*
X0104826Y0009008D01*
X0104739Y0009017D01*
X0104653Y0009030D01*
X0104567Y0009047D01*
X0104482Y0009068D01*
X0104399Y0009093D01*
X0104316Y0009121D01*
X0104235Y0009152D01*
X0104155Y0009187D01*
X0104077Y0009226D01*
X0104000Y0009268D01*
X0103925Y0009313D01*
X0103853Y0009362D01*
X0103782Y0009413D01*
X0103714Y0009468D01*
X0103649Y0009525D01*
X0103586Y0009586D01*
X0103525Y0009649D01*
X0103468Y0009714D01*
X0103413Y0009782D01*
X0103362Y0009853D01*
X0103313Y0009925D01*
X0103268Y0010000D01*
X0103226Y0010077D01*
X0103187Y0010155D01*
X0103152Y0010235D01*
X0103121Y0010316D01*
X0103093Y0010399D01*
X0103068Y0010482D01*
X0103047Y0010567D01*
X0103030Y0010653D01*
X0103017Y0010739D01*
X0103008Y0010826D01*
X0103002Y0010913D01*
X0103000Y0011000D01*
X0103000Y0059000D01*
X0103002Y0059087D01*
X0103008Y0059174D01*
X0103017Y0059261D01*
X0103030Y0059347D01*
X0103047Y0059433D01*
X0103068Y0059518D01*
X0103093Y0059601D01*
X0103121Y0059684D01*
X0103152Y0059765D01*
X0103187Y0059845D01*
X0103226Y0059923D01*
X0103268Y0060000D01*
X0103313Y0060075D01*
X0103362Y0060147D01*
X0103413Y0060218D01*
X0103468Y0060286D01*
X0103525Y0060351D01*
X0103586Y0060414D01*
X0103649Y0060475D01*
X0103714Y0060532D01*
X0103782Y0060587D01*
X0103853Y0060638D01*
X0103925Y0060687D01*
X0104000Y0060732D01*
X0104077Y0060774D01*
X0104155Y0060813D01*
X0104235Y0060848D01*
X0104316Y0060879D01*
X0104399Y0060907D01*
X0104482Y0060932D01*
X0104567Y0060953D01*
X0104653Y0060970D01*
X0104739Y0060983D01*
X0104826Y0060992D01*
X0104913Y0060998D01*
X0105000Y0061000D01*
X0125000Y0061000D01*
X0125087Y0060998D01*
X0125174Y0060992D01*
X0125261Y0060983D01*
X0125347Y0060970D01*
X0125433Y0060953D01*
X0125518Y0060932D01*
X0125601Y0060907D01*
X0125684Y0060879D01*
X0125765Y0060848D01*
X0125845Y0060813D01*
X0125923Y0060774D01*
X0126000Y0060732D01*
X0126075Y0060687D01*
X0126147Y0060638D01*
X0126218Y0060587D01*
X0126286Y0060532D01*
X0126351Y0060475D01*
X0126414Y0060414D01*
X0126475Y0060351D01*
X0126532Y0060286D01*
X0126587Y0060218D01*
X0126638Y0060147D01*
X0126687Y0060075D01*
X0126732Y0060000D01*
X0126774Y0059923D01*
X0126813Y0059845D01*
X0126848Y0059765D01*
X0126879Y0059684D01*
X0126907Y0059601D01*
X0126932Y0059518D01*
X0126953Y0059433D01*
X0126970Y0059347D01*
X0126983Y0059261D01*
X0126992Y0059174D01*
X0126998Y0059087D01*
X0127000Y0059000D01*
X0127000Y0011000D01*
X0126998Y0010913D01*
X0126992Y0010826D01*
X0126983Y0010739D01*
X0126970Y0010653D01*
X0126953Y0010567D01*
X0126932Y0010482D01*
X0126907Y0010399D01*
X0126879Y0010316D01*
X0126848Y0010235D01*
X0126813Y0010155D01*
X0126774Y0010077D01*
X0126732Y0010000D01*
X0126687Y0009925D01*
X0126638Y0009853D01*
X0126587Y0009782D01*
X0126532Y0009714D01*
X0126475Y0009649D01*
X0126414Y0009586D01*
X0126351Y0009525D01*
X0126286Y0009468D01*
X0126218Y0009413D01*
X0126147Y0009362D01*
X0126075Y0009313D01*
X0126000Y0009268D01*
X0125923Y0009226D01*
X0125845Y0009187D01*
X0125765Y0009152D01*
X0125684Y0009121D01*
X0125601Y0009093D01*
X0125518Y0009068D01*
X0125433Y0009047D01*
X0125347Y0009030D01*
X0125261Y0009017D01*
X0125174Y0009008D01*
X0125087Y0009002D01*
X0125000Y0009000D01*
X0105000Y0009000D01*
X0092000Y0011000D02*
X0092000Y0079000D01*
X0091998Y0079087D01*
X0091992Y0079174D01*
X0091983Y0079261D01*
X0091970Y0079347D01*
X0091953Y0079433D01*
X0091932Y0079518D01*
X0091907Y0079601D01*
X0091879Y0079684D01*
X0091848Y0079765D01*
X0091813Y0079845D01*
X0091774Y0079923D01*
X0091732Y0080000D01*
X0091687Y0080075D01*
X0091638Y0080147D01*
X0091587Y0080218D01*
X0091532Y0080286D01*
X0091475Y0080351D01*
X0091414Y0080414D01*
X0091351Y0080475D01*
X0091286Y0080532D01*
X0091218Y0080587D01*
X0091147Y0080638D01*
X0091075Y0080687D01*
X0091000Y0080732D01*
X0090923Y0080774D01*
X0090845Y0080813D01*
X0090765Y0080848D01*
X0090684Y0080879D01*
X0090601Y0080907D01*
X0090518Y0080932D01*
X0090433Y0080953D01*
X0090347Y0080970D01*
X0090261Y0080983D01*
X0090174Y0080992D01*
X0090087Y0080998D01*
X0090000Y0081000D01*
X0070000Y0081000D01*
X0069913Y0080998D01*
X0069826Y0080992D01*
X0069739Y0080983D01*
X0069653Y0080970D01*
X0069567Y0080953D01*
X0069482Y0080932D01*
X0069399Y0080907D01*
X0069316Y0080879D01*
X0069235Y0080848D01*
X0069155Y0080813D01*
X0069077Y0080774D01*
X0069000Y0080732D01*
X0068925Y0080687D01*
X0068853Y0080638D01*
X0068782Y0080587D01*
X0068714Y0080532D01*
X0068649Y0080475D01*
X0068586Y0080414D01*
X0068525Y0080351D01*
X0068468Y0080286D01*
X0068413Y0080218D01*
X0068362Y0080147D01*
X0068313Y0080075D01*
X0068268Y0080000D01*
X0068226Y0079923D01*
X0068187Y0079845D01*
X0068152Y0079765D01*
X0068121Y0079684D01*
X0068093Y0079601D01*
X0068068Y0079518D01*
X0068047Y0079433D01*
X0068030Y0079347D01*
X0068017Y0079261D01*
X0068008Y0079174D01*
X0068002Y0079087D01*
X0068000Y0079000D01*
X0068000Y0011000D01*
X0068002Y0010913D01*
X0068008Y0010826D01*
X0068017Y0010739D01*
X0068030Y0010653D01*
X0068047Y0010567D01*
X0068068Y0010482D01*
X0068093Y0010399D01*
X0068121Y0010316D01*
X0068152Y0010235D01*
X0068187Y0010155D01*
X0068226Y0010077D01*
X0068268Y0010000D01*
X0068313Y0009925D01*
X0068362Y0009853D01*
X0068413Y0009782D01*
X0068468Y0009714D01*
X0068525Y0009649D01*
X0068586Y0009586D01*
X0068649Y0009525D01*
X0068714Y0009468D01*
X0068782Y0009413D01*
X0068853Y0009362D01*
X0068925Y0009313D01*
X0069000Y0009268D01*
X0069077Y0009226D01*
X0069155Y0009187D01*
X0069235Y0009152D01*
X0069316Y0009121D01*
X0069399Y0009093D01*
X0069482Y0009068D01*
X0069567Y0009047D01*
X0069653Y0009030D01*
X0069739Y0009017D01*
X0069826Y0009008D01*
X0069913Y0009002D01*
X0070000Y0009000D01*
X0090000Y0009000D01*
X0090087Y0009002D01*
X0090174Y0009008D01*
X0090261Y0009017D01*
X0090347Y0009030D01*
X0090433Y0009047D01*
X0090518Y0009068D01*
X0090601Y0009093D01*
X0090684Y0009121D01*
X0090765Y0009152D01*
X0090845Y0009187D01*
X0090923Y0009226D01*
X0091000Y0009268D01*
X0091075Y0009313D01*
X0091147Y0009362D01*
X0091218Y0009413D01*
X0091286Y0009468D01*
X0091351Y0009525D01*
X0091414Y0009586D01*
X0091475Y0009649D01*
X0091532Y0009714D01*
X0091587Y0009782D01*
X0091638Y0009853D01*
X0091687Y0009925D01*
X0091732Y0010000D01*
X0091774Y0010077D01*
X0091813Y0010155D01*
X0091848Y0010235D01*
X0091879Y0010316D01*
X0091907Y0010399D01*
X0091932Y0010482D01*
X0091953Y0010567D01*
X0091970Y0010653D01*
X0091983Y0010739D01*
X0091992Y0010826D01*
X0091998Y0010913D01*
X0092000Y0011000D01*
X0080000Y0020000D02*
X0080000Y0042750D01*
X0080000Y0047500D02*
X0080000Y0070000D01*
X0085796Y0070978D02*
X0086630Y0070144D01*
X0085796Y0070978D02*
X0085796Y0072646D01*
X0086630Y0073480D01*
X0087464Y0073480D01*
X0090800Y0070144D01*
X0090800Y0073480D01*
X0089966Y0068323D02*
X0090800Y0067489D01*
X0090800Y0065821D01*
X0089966Y0064987D01*
X0086630Y0064987D01*
X0085796Y0065821D01*
X0085796Y0067489D01*
X0086630Y0068323D01*
X0110000Y0066500D02*
X0110000Y0073500D01*
X0110002Y0073560D01*
X0110007Y0073621D01*
X0110016Y0073680D01*
X0110029Y0073739D01*
X0110045Y0073798D01*
X0110065Y0073855D01*
X0110088Y0073910D01*
X0110115Y0073965D01*
X0110144Y0074017D01*
X0110177Y0074068D01*
X0110213Y0074117D01*
X0110251Y0074163D01*
X0110293Y0074207D01*
X0110337Y0074249D01*
X0110383Y0074287D01*
X0110432Y0074323D01*
X0110483Y0074356D01*
X0110535Y0074385D01*
X0110590Y0074412D01*
X0110645Y0074435D01*
X0110702Y0074455D01*
X0110761Y0074471D01*
X0110820Y0074484D01*
X0110879Y0074493D01*
X0110940Y0074498D01*
X0111000Y0074500D01*
X0112500Y0074500D01*
X0113000Y0074000D01*
X0127000Y0074000D01*
X0127500Y0074500D01*
X0129000Y0074500D01*
X0129060Y0074498D01*
X0129121Y0074493D01*
X0129180Y0074484D01*
X0129239Y0074471D01*
X0129298Y0074455D01*
X0129355Y0074435D01*
X0129410Y0074412D01*
X0129465Y0074385D01*
X0129517Y0074356D01*
X0129568Y0074323D01*
X0129617Y0074287D01*
X0129663Y0074249D01*
X0129707Y0074207D01*
X0129749Y0074163D01*
X0129787Y0074117D01*
X0129823Y0074068D01*
X0129856Y0074017D01*
X0129885Y0073965D01*
X0129912Y0073910D01*
X0129935Y0073855D01*
X0129955Y0073798D01*
X0129971Y0073739D01*
X0129984Y0073680D01*
X0129993Y0073621D01*
X0129998Y0073560D01*
X0130000Y0073500D01*
X0130000Y0066500D01*
X0129998Y0066440D01*
X0129993Y0066379D01*
X0129984Y0066320D01*
X0129971Y0066261D01*
X0129955Y0066202D01*
X0129935Y0066145D01*
X0129912Y0066090D01*
X0129885Y0066035D01*
X0129856Y0065983D01*
X0129823Y0065932D01*
X0129787Y0065883D01*
X0129749Y0065837D01*
X0129707Y0065793D01*
X0129663Y0065751D01*
X0129617Y0065713D01*
X0129568Y0065677D01*
X0129517Y0065644D01*
X0129465Y0065615D01*
X0129410Y0065588D01*
X0129355Y0065565D01*
X0129298Y0065545D01*
X0129239Y0065529D01*
X0129180Y0065516D01*
X0129121Y0065507D01*
X0129060Y0065502D01*
X0129000Y0065500D01*
X0127500Y0065500D01*
X0127000Y0066000D01*
X0113000Y0066000D01*
X0112500Y0065500D01*
X0111000Y0065500D01*
X0110940Y0065502D01*
X0110879Y0065507D01*
X0110820Y0065516D01*
X0110761Y0065529D01*
X0110702Y0065545D01*
X0110645Y0065565D01*
X0110590Y0065588D01*
X0110535Y0065615D01*
X0110483Y0065644D01*
X0110432Y0065677D01*
X0110383Y0065713D01*
X0110337Y0065751D01*
X0110293Y0065793D01*
X0110251Y0065837D01*
X0110213Y0065883D01*
X0110177Y0065932D01*
X0110144Y0065983D01*
X0110115Y0066035D01*
X0110088Y0066090D01*
X0110065Y0066145D01*
X0110045Y0066202D01*
X0110029Y0066261D01*
X0110016Y0066320D01*
X0110007Y0066379D01*
X0110002Y0066440D01*
X0110000Y0066500D01*
X0109550Y0075050D02*
X0109550Y0080054D01*
X0112052Y0080054D01*
X0112886Y0079220D01*
X0112886Y0077552D01*
X0112052Y0076718D01*
X0109550Y0076718D01*
X0111218Y0076718D02*
X0112886Y0075050D01*
X0117209Y0075050D02*
X0117209Y0080054D01*
X0114706Y0077552D01*
X0118043Y0077552D01*
X0113000Y0081000D02*
X0127000Y0081000D01*
X0127500Y0080500D01*
X0129000Y0080500D01*
X0129060Y0080502D01*
X0129121Y0080507D01*
X0129180Y0080516D01*
X0129239Y0080529D01*
X0129298Y0080545D01*
X0129355Y0080565D01*
X0129410Y0080588D01*
X0129465Y0080615D01*
X0129517Y0080644D01*
X0129568Y0080677D01*
X0129617Y0080713D01*
X0129663Y0080751D01*
X0129707Y0080793D01*
X0129749Y0080837D01*
X0129787Y0080883D01*
X0129823Y0080932D01*
X0129856Y0080983D01*
X0129885Y0081035D01*
X0129912Y0081090D01*
X0129935Y0081145D01*
X0129955Y0081202D01*
X0129971Y0081261D01*
X0129984Y0081320D01*
X0129993Y0081379D01*
X0129998Y0081440D01*
X0130000Y0081500D01*
X0130000Y0088500D01*
X0129998Y0088560D01*
X0129993Y0088621D01*
X0129984Y0088680D01*
X0129971Y0088739D01*
X0129955Y0088798D01*
X0129935Y0088855D01*
X0129912Y0088910D01*
X0129885Y0088965D01*
X0129856Y0089017D01*
X0129823Y0089068D01*
X0129787Y0089117D01*
X0129749Y0089163D01*
X0129707Y0089207D01*
X0129663Y0089249D01*
X0129617Y0089287D01*
X0129568Y0089323D01*
X0129517Y0089356D01*
X0129465Y0089385D01*
X0129410Y0089412D01*
X0129355Y0089435D01*
X0129298Y0089455D01*
X0129239Y0089471D01*
X0129180Y0089484D01*
X0129121Y0089493D01*
X0129060Y0089498D01*
X0129000Y0089500D01*
X0127500Y0089500D01*
X0127000Y0089000D01*
X0113000Y0089000D01*
X0112500Y0089500D01*
X0111000Y0089500D01*
X0110940Y0089498D01*
X0110879Y0089493D01*
X0110820Y0089484D01*
X0110761Y0089471D01*
X0110702Y0089455D01*
X0110645Y0089435D01*
X0110590Y0089412D01*
X0110535Y0089385D01*
X0110483Y0089356D01*
X0110432Y0089323D01*
X0110383Y0089287D01*
X0110337Y0089249D01*
X0110293Y0089207D01*
X0110251Y0089163D01*
X0110213Y0089117D01*
X0110177Y0089068D01*
X0110144Y0089017D01*
X0110115Y0088965D01*
X0110088Y0088910D01*
X0110065Y0088855D01*
X0110045Y0088798D01*
X0110029Y0088739D01*
X0110016Y0088680D01*
X0110007Y0088621D01*
X0110002Y0088560D01*
X0110000Y0088500D01*
X0110000Y0081500D01*
X0110002Y0081440D01*
X0110007Y0081379D01*
X0110016Y0081320D01*
X0110029Y0081261D01*
X0110045Y0081202D01*
X0110065Y0081145D01*
X0110088Y0081090D01*
X0110115Y0081035D01*
X0110144Y0080983D01*
X0110177Y0080932D01*
X0110213Y0080883D01*
X0110251Y0080837D01*
X0110293Y0080793D01*
X0110337Y0080751D01*
X0110383Y0080713D01*
X0110432Y0080677D01*
X0110483Y0080644D01*
X0110535Y0080615D01*
X0110590Y0080588D01*
X0110645Y0080565D01*
X0110702Y0080545D01*
X0110761Y0080529D01*
X0110820Y0080516D01*
X0110879Y0080507D01*
X0110940Y0080502D01*
X0111000Y0080500D01*
X0112500Y0080500D01*
X0113000Y0081000D01*
X0112886Y0090050D02*
X0111218Y0091718D01*
X0112052Y0091718D02*
X0109550Y0091718D01*
X0109550Y0090050D02*
X0109550Y0095054D01*
X0112052Y0095054D01*
X0112886Y0094220D01*
X0112886Y0092552D01*
X0112052Y0091718D01*
X0114706Y0090884D02*
X0115540Y0090050D01*
X0117209Y0090050D01*
X0118043Y0090884D01*
X0118043Y0091718D01*
X0117209Y0092552D01*
X0116374Y0092552D01*
X0117209Y0092552D02*
X0118043Y0093386D01*
X0118043Y0094220D01*
X0117209Y0095054D01*
X0115540Y0095054D01*
X0114706Y0094220D01*
X0095000Y0101500D02*
X0095000Y0108500D01*
X0094998Y0108560D01*
X0094993Y0108621D01*
X0094984Y0108680D01*
X0094971Y0108739D01*
X0094955Y0108798D01*
X0094935Y0108855D01*
X0094912Y0108910D01*
X0094885Y0108965D01*
X0094856Y0109017D01*
X0094823Y0109068D01*
X0094787Y0109117D01*
X0094749Y0109163D01*
X0094707Y0109207D01*
X0094663Y0109249D01*
X0094617Y0109287D01*
X0094568Y0109323D01*
X0094517Y0109356D01*
X0094465Y0109385D01*
X0094410Y0109412D01*
X0094355Y0109435D01*
X0094298Y0109455D01*
X0094239Y0109471D01*
X0094180Y0109484D01*
X0094121Y0109493D01*
X0094060Y0109498D01*
X0094000Y0109500D01*
X0092500Y0109500D01*
X0092000Y0109000D01*
X0068000Y0109000D01*
X0067500Y0109500D01*
X0066000Y0109500D01*
X0065940Y0109498D01*
X0065879Y0109493D01*
X0065820Y0109484D01*
X0065761Y0109471D01*
X0065702Y0109455D01*
X0065645Y0109435D01*
X0065590Y0109412D01*
X0065535Y0109385D01*
X0065483Y0109356D01*
X0065432Y0109323D01*
X0065383Y0109287D01*
X0065337Y0109249D01*
X0065293Y0109207D01*
X0065251Y0109163D01*
X0065213Y0109117D01*
X0065177Y0109068D01*
X0065144Y0109017D01*
X0065115Y0108965D01*
X0065088Y0108910D01*
X0065065Y0108855D01*
X0065045Y0108798D01*
X0065029Y0108739D01*
X0065016Y0108680D01*
X0065007Y0108621D01*
X0065002Y0108560D01*
X0065000Y0108500D01*
X0065000Y0101500D01*
X0065002Y0101440D01*
X0065007Y0101379D01*
X0065016Y0101320D01*
X0065029Y0101261D01*
X0065045Y0101202D01*
X0065065Y0101145D01*
X0065088Y0101090D01*
X0065115Y0101035D01*
X0065144Y0100983D01*
X0065177Y0100932D01*
X0065213Y0100883D01*
X0065251Y0100837D01*
X0065293Y0100793D01*
X0065337Y0100751D01*
X0065383Y0100713D01*
X0065432Y0100677D01*
X0065483Y0100644D01*
X0065535Y0100615D01*
X0065590Y0100588D01*
X0065645Y0100565D01*
X0065702Y0100545D01*
X0065761Y0100529D01*
X0065820Y0100516D01*
X0065879Y0100507D01*
X0065940Y0100502D01*
X0066000Y0100500D01*
X0067500Y0100500D01*
X0068000Y0101000D01*
X0092000Y0101000D01*
X0092500Y0100500D01*
X0094000Y0100500D01*
X0094060Y0100502D01*
X0094121Y0100507D01*
X0094180Y0100516D01*
X0094239Y0100529D01*
X0094298Y0100545D01*
X0094355Y0100565D01*
X0094410Y0100588D01*
X0094465Y0100615D01*
X0094517Y0100644D01*
X0094568Y0100677D01*
X0094617Y0100713D01*
X0094663Y0100751D01*
X0094707Y0100793D01*
X0094749Y0100837D01*
X0094787Y0100883D01*
X0094823Y0100932D01*
X0094856Y0100983D01*
X0094885Y0101035D01*
X0094912Y0101090D01*
X0094935Y0101145D01*
X0094955Y0101202D01*
X0094971Y0101261D01*
X0094984Y0101320D01*
X0094993Y0101379D01*
X0094998Y0101440D01*
X0095000Y0101500D01*
X0073043Y0110050D02*
X0069706Y0110050D01*
X0073043Y0113386D01*
X0073043Y0114220D01*
X0072209Y0115054D01*
X0070540Y0115054D01*
X0069706Y0114220D01*
X0067886Y0114220D02*
X0067886Y0112552D01*
X0067052Y0111718D01*
X0064550Y0111718D01*
X0064550Y0110050D02*
X0064550Y0115054D01*
X0067052Y0115054D01*
X0067886Y0114220D01*
X0066218Y0111718D02*
X0067886Y0110050D01*
X0043500Y0097500D02*
X0036500Y0097500D01*
X0036440Y0097498D01*
X0036379Y0097493D01*
X0036320Y0097484D01*
X0036261Y0097471D01*
X0036202Y0097455D01*
X0036145Y0097435D01*
X0036090Y0097412D01*
X0036035Y0097385D01*
X0035983Y0097356D01*
X0035932Y0097323D01*
X0035883Y0097287D01*
X0035837Y0097249D01*
X0035793Y0097207D01*
X0035751Y0097163D01*
X0035713Y0097117D01*
X0035677Y0097068D01*
X0035644Y0097017D01*
X0035615Y0096965D01*
X0035588Y0096910D01*
X0035565Y0096855D01*
X0035545Y0096798D01*
X0035529Y0096739D01*
X0035516Y0096680D01*
X0035507Y0096621D01*
X0035502Y0096560D01*
X0035500Y0096500D01*
X0035500Y0095000D01*
X0036000Y0094500D01*
X0036000Y0075500D01*
X0035500Y0075000D01*
X0035500Y0073500D01*
X0035502Y0073440D01*
X0035507Y0073379D01*
X0035516Y0073320D01*
X0035529Y0073261D01*
X0035545Y0073202D01*
X0035565Y0073145D01*
X0035588Y0073090D01*
X0035615Y0073035D01*
X0035644Y0072983D01*
X0035677Y0072932D01*
X0035713Y0072883D01*
X0035751Y0072837D01*
X0035793Y0072793D01*
X0035837Y0072751D01*
X0035883Y0072713D01*
X0035932Y0072677D01*
X0035983Y0072644D01*
X0036035Y0072615D01*
X0036090Y0072588D01*
X0036145Y0072565D01*
X0036202Y0072545D01*
X0036261Y0072529D01*
X0036320Y0072516D01*
X0036379Y0072507D01*
X0036440Y0072502D01*
X0036500Y0072500D01*
X0043500Y0072500D01*
X0043560Y0072502D01*
X0043621Y0072507D01*
X0043680Y0072516D01*
X0043739Y0072529D01*
X0043798Y0072545D01*
X0043855Y0072565D01*
X0043910Y0072588D01*
X0043965Y0072615D01*
X0044017Y0072644D01*
X0044068Y0072677D01*
X0044117Y0072713D01*
X0044163Y0072751D01*
X0044207Y0072793D01*
X0044249Y0072837D01*
X0044287Y0072883D01*
X0044323Y0072932D01*
X0044356Y0072983D01*
X0044385Y0073035D01*
X0044412Y0073090D01*
X0044435Y0073145D01*
X0044455Y0073202D01*
X0044471Y0073261D01*
X0044484Y0073320D01*
X0044493Y0073379D01*
X0044498Y0073440D01*
X0044500Y0073500D01*
X0044500Y0075000D01*
X0044000Y0075500D01*
X0044000Y0094500D01*
X0044500Y0095000D01*
X0044500Y0096500D01*
X0044498Y0096560D01*
X0044493Y0096621D01*
X0044484Y0096680D01*
X0044471Y0096739D01*
X0044455Y0096798D01*
X0044435Y0096855D01*
X0044412Y0096910D01*
X0044385Y0096965D01*
X0044356Y0097017D01*
X0044323Y0097068D01*
X0044287Y0097117D01*
X0044249Y0097163D01*
X0044207Y0097207D01*
X0044163Y0097249D01*
X0044117Y0097287D01*
X0044068Y0097323D01*
X0044017Y0097356D01*
X0043965Y0097385D01*
X0043910Y0097412D01*
X0043855Y0097435D01*
X0043798Y0097455D01*
X0043739Y0097471D01*
X0043680Y0097484D01*
X0043621Y0097493D01*
X0043560Y0097498D01*
X0043500Y0097500D01*
X0034950Y0080543D02*
X0034950Y0077206D01*
X0034950Y0078874D02*
X0029946Y0078874D01*
X0031614Y0077206D01*
X0030780Y0075386D02*
X0032448Y0075386D01*
X0033282Y0074552D01*
X0033282Y0072050D01*
X0034950Y0072050D02*
X0029946Y0072050D01*
X0029946Y0074552D01*
X0030780Y0075386D01*
X0033282Y0073718D02*
X0034950Y0075386D01*
X0115000Y0050000D02*
X0115000Y0037500D01*
X0121630Y0044987D02*
X0124966Y0044987D01*
X0125800Y0045821D01*
X0125800Y0047489D01*
X0124966Y0048323D01*
X0124966Y0050144D02*
X0125800Y0050978D01*
X0125800Y0052646D01*
X0124966Y0053480D01*
X0124132Y0053480D01*
X0123298Y0052646D01*
X0123298Y0051812D01*
X0123298Y0052646D02*
X0122464Y0053480D01*
X0121630Y0053480D01*
X0120796Y0052646D01*
X0120796Y0050978D01*
X0121630Y0050144D01*
X0121630Y0048323D02*
X0120796Y0047489D01*
X0120796Y0045821D01*
X0121630Y0044987D01*
X0143196Y0052300D02*
X0143196Y0054802D01*
X0144030Y0055636D01*
X0147366Y0055636D01*
X0148200Y0054802D01*
X0148200Y0052300D01*
X0143196Y0052300D01*
X0144030Y0057456D02*
X0143196Y0058290D01*
X0143196Y0059959D01*
X0144030Y0060793D01*
X0144864Y0060793D01*
X0148200Y0057456D01*
X0148200Y0060793D01*
X0150000Y0061500D02*
X0155000Y0067500D01*
X0160000Y0067500D01*
X0155000Y0067500D02*
X0150000Y0067500D01*
X0155000Y0067500D02*
X0160000Y0061500D01*
X0150000Y0061500D01*
X0177987Y0068200D02*
X0177987Y0073204D01*
X0180489Y0073204D01*
X0181323Y0072370D01*
X0181323Y0069034D01*
X0180489Y0068200D01*
X0177987Y0068200D01*
X0183144Y0069034D02*
X0183978Y0068200D01*
X0185646Y0068200D01*
X0186480Y0069034D01*
X0186480Y0069868D01*
X0185646Y0070702D01*
X0184812Y0070702D01*
X0185646Y0070702D02*
X0186480Y0071536D01*
X0186480Y0072370D01*
X0185646Y0073204D01*
X0183978Y0073204D01*
X0183144Y0072370D01*
X0178500Y0075000D02*
X0172500Y0080000D01*
X0172500Y0085000D01*
X0172500Y0080000D02*
X0178500Y0085000D01*
X0178500Y0075000D01*
X0172500Y0075000D02*
X0172500Y0080000D01*
X0196500Y0088500D02*
X0233500Y0088500D01*
X0233500Y0111500D01*
X0196500Y0111500D01*
X0196500Y0088500D01*
X0203000Y0092000D02*
X0207000Y0092000D01*
X0205000Y0094000D02*
X0205000Y0090000D01*
X0223000Y0092000D02*
X0227000Y0092000D01*
X0223012Y0100550D02*
X0223012Y0105554D01*
X0221344Y0103886D01*
X0219676Y0105554D01*
X0219676Y0100550D01*
X0217855Y0101384D02*
X0217021Y0100550D01*
X0215353Y0100550D01*
X0214519Y0101384D01*
X0214519Y0102218D01*
X0215353Y0103052D01*
X0217021Y0103052D01*
X0217855Y0102218D01*
X0217855Y0101384D01*
X0217021Y0103052D02*
X0217855Y0103886D01*
X0217855Y0104720D01*
X0217021Y0105554D01*
X0215353Y0105554D01*
X0214519Y0104720D01*
X0214519Y0103886D01*
X0215353Y0103052D01*
X0212699Y0101384D02*
X0211865Y0100550D01*
X0210197Y0100550D01*
X0209363Y0101384D01*
X0212699Y0104720D01*
X0212699Y0101384D01*
X0209363Y0101384D02*
X0209363Y0104720D01*
X0210197Y0105554D01*
X0211865Y0105554D01*
X0212699Y0104720D01*
X0207543Y0105554D02*
X0204206Y0105554D01*
X0204206Y0100550D01*
X0202386Y0101384D02*
X0201552Y0100550D01*
X0199050Y0100550D01*
X0199050Y0105554D01*
X0201552Y0105554D01*
X0202386Y0104720D01*
X0202386Y0101384D01*
X0204206Y0103052D02*
X0205874Y0103052D01*
X0205100Y0109500D02*
X0205102Y0109430D01*
X0205108Y0109359D01*
X0205117Y0109290D01*
X0205130Y0109221D01*
X0205147Y0109152D01*
X0205168Y0109085D01*
X0205192Y0109019D01*
X0205220Y0108954D01*
X0205251Y0108891D01*
X0205286Y0108830D01*
X0205324Y0108770D01*
X0205365Y0108713D01*
X0205409Y0108658D01*
X0205456Y0108606D01*
X0205506Y0108556D01*
X0205558Y0108509D01*
X0205613Y0108465D01*
X0205670Y0108424D01*
X0205730Y0108386D01*
X0205791Y0108351D01*
X0205854Y0108320D01*
X0205919Y0108292D01*
X0205985Y0108268D01*
X0206052Y0108247D01*
X0206121Y0108230D01*
X0206190Y0108217D01*
X0206259Y0108208D01*
X0206330Y0108202D01*
X0206400Y0108200D01*
X0206470Y0108202D01*
X0206541Y0108208D01*
X0206610Y0108217D01*
X0206679Y0108230D01*
X0206748Y0108247D01*
X0206815Y0108268D01*
X0206881Y0108292D01*
X0206946Y0108320D01*
X0207009Y0108351D01*
X0207070Y0108386D01*
X0207130Y0108424D01*
X0207187Y0108465D01*
X0207242Y0108509D01*
X0207294Y0108556D01*
X0207344Y0108606D01*
X0207391Y0108658D01*
X0207435Y0108713D01*
X0207476Y0108770D01*
X0207514Y0108830D01*
X0207549Y0108891D01*
X0207580Y0108954D01*
X0207608Y0109019D01*
X0207632Y0109085D01*
X0207653Y0109152D01*
X0207670Y0109221D01*
X0207683Y0109290D01*
X0207692Y0109359D01*
X0207698Y0109430D01*
X0207700Y0109500D01*
X0205100Y0109500D02*
X0205098Y0109570D01*
X0205092Y0109641D01*
X0205083Y0109710D01*
X0205070Y0109779D01*
X0205053Y0109848D01*
X0205032Y0109915D01*
X0205008Y0109981D01*
X0204980Y0110046D01*
X0204949Y0110109D01*
X0204914Y0110170D01*
X0204876Y0110230D01*
X0204835Y0110287D01*
X0204791Y0110342D01*
X0204744Y0110394D01*
X0204694Y0110444D01*
X0204642Y0110491D01*
X0204587Y0110535D01*
X0204530Y0110576D01*
X0204470Y0110614D01*
X0204409Y0110649D01*
X0204346Y0110680D01*
X0204281Y0110708D01*
X0204215Y0110732D01*
X0204148Y0110753D01*
X0204079Y0110770D01*
X0204010Y0110783D01*
X0203941Y0110792D01*
X0203870Y0110798D01*
X0203800Y0110800D01*
X0203730Y0110798D01*
X0203659Y0110792D01*
X0203590Y0110783D01*
X0203521Y0110770D01*
X0203452Y0110753D01*
X0203385Y0110732D01*
X0203319Y0110708D01*
X0203254Y0110680D01*
X0203191Y0110649D01*
X0203130Y0110614D01*
X0203070Y0110576D01*
X0203013Y0110535D01*
X0202958Y0110491D01*
X0202906Y0110444D01*
X0202856Y0110394D01*
X0202809Y0110342D01*
X0202765Y0110287D01*
X0202724Y0110230D01*
X0202686Y0110170D01*
X0202651Y0110109D01*
X0202620Y0110046D01*
X0202592Y0109981D01*
X0202568Y0109915D01*
X0202547Y0109848D01*
X0202530Y0109779D01*
X0202517Y0109710D01*
X0202508Y0109641D01*
X0202502Y0109570D01*
X0202500Y0109500D01*
X0222500Y0109500D02*
X0222502Y0109570D01*
X0222508Y0109641D01*
X0222517Y0109710D01*
X0222530Y0109779D01*
X0222547Y0109848D01*
X0222568Y0109915D01*
X0222592Y0109981D01*
X0222620Y0110046D01*
X0222651Y0110109D01*
X0222686Y0110170D01*
X0222724Y0110230D01*
X0222765Y0110287D01*
X0222809Y0110342D01*
X0222856Y0110394D01*
X0222906Y0110444D01*
X0222958Y0110491D01*
X0223013Y0110535D01*
X0223070Y0110576D01*
X0223130Y0110614D01*
X0223191Y0110649D01*
X0223254Y0110680D01*
X0223319Y0110708D01*
X0223385Y0110732D01*
X0223452Y0110753D01*
X0223521Y0110770D01*
X0223590Y0110783D01*
X0223659Y0110792D01*
X0223730Y0110798D01*
X0223800Y0110800D01*
X0223870Y0110798D01*
X0223941Y0110792D01*
X0224010Y0110783D01*
X0224079Y0110770D01*
X0224148Y0110753D01*
X0224215Y0110732D01*
X0224281Y0110708D01*
X0224346Y0110680D01*
X0224409Y0110649D01*
X0224470Y0110614D01*
X0224530Y0110576D01*
X0224587Y0110535D01*
X0224642Y0110491D01*
X0224694Y0110444D01*
X0224744Y0110394D01*
X0224791Y0110342D01*
X0224835Y0110287D01*
X0224876Y0110230D01*
X0224914Y0110170D01*
X0224949Y0110109D01*
X0224980Y0110046D01*
X0225008Y0109981D01*
X0225032Y0109915D01*
X0225053Y0109848D01*
X0225070Y0109779D01*
X0225083Y0109710D01*
X0225092Y0109641D01*
X0225098Y0109570D01*
X0225100Y0109500D01*
X0225102Y0109430D01*
X0225108Y0109359D01*
X0225117Y0109290D01*
X0225130Y0109221D01*
X0225147Y0109152D01*
X0225168Y0109085D01*
X0225192Y0109019D01*
X0225220Y0108954D01*
X0225251Y0108891D01*
X0225286Y0108830D01*
X0225324Y0108770D01*
X0225365Y0108713D01*
X0225409Y0108658D01*
X0225456Y0108606D01*
X0225506Y0108556D01*
X0225558Y0108509D01*
X0225613Y0108465D01*
X0225670Y0108424D01*
X0225730Y0108386D01*
X0225791Y0108351D01*
X0225854Y0108320D01*
X0225919Y0108292D01*
X0225985Y0108268D01*
X0226052Y0108247D01*
X0226121Y0108230D01*
X0226190Y0108217D01*
X0226259Y0108208D01*
X0226330Y0108202D01*
X0226400Y0108200D01*
X0226470Y0108202D01*
X0226541Y0108208D01*
X0226610Y0108217D01*
X0226679Y0108230D01*
X0226748Y0108247D01*
X0226815Y0108268D01*
X0226881Y0108292D01*
X0226946Y0108320D01*
X0227009Y0108351D01*
X0227070Y0108386D01*
X0227130Y0108424D01*
X0227187Y0108465D01*
X0227242Y0108509D01*
X0227294Y0108556D01*
X0227344Y0108606D01*
X0227391Y0108658D01*
X0227435Y0108713D01*
X0227476Y0108770D01*
X0227514Y0108830D01*
X0227549Y0108891D01*
X0227580Y0108954D01*
X0227608Y0109019D01*
X0227632Y0109085D01*
X0227653Y0109152D01*
X0227670Y0109221D01*
X0227683Y0109290D01*
X0227692Y0109359D01*
X0227698Y0109430D01*
X0227700Y0109500D01*
X0246500Y0111500D02*
X0283500Y0111500D01*
X0283500Y0088500D01*
X0246500Y0088500D01*
X0246500Y0111500D01*
X0252500Y0109500D02*
X0252502Y0109570D01*
X0252508Y0109641D01*
X0252517Y0109710D01*
X0252530Y0109779D01*
X0252547Y0109848D01*
X0252568Y0109915D01*
X0252592Y0109981D01*
X0252620Y0110046D01*
X0252651Y0110109D01*
X0252686Y0110170D01*
X0252724Y0110230D01*
X0252765Y0110287D01*
X0252809Y0110342D01*
X0252856Y0110394D01*
X0252906Y0110444D01*
X0252958Y0110491D01*
X0253013Y0110535D01*
X0253070Y0110576D01*
X0253130Y0110614D01*
X0253191Y0110649D01*
X0253254Y0110680D01*
X0253319Y0110708D01*
X0253385Y0110732D01*
X0253452Y0110753D01*
X0253521Y0110770D01*
X0253590Y0110783D01*
X0253659Y0110792D01*
X0253730Y0110798D01*
X0253800Y0110800D01*
X0253870Y0110798D01*
X0253941Y0110792D01*
X0254010Y0110783D01*
X0254079Y0110770D01*
X0254148Y0110753D01*
X0254215Y0110732D01*
X0254281Y0110708D01*
X0254346Y0110680D01*
X0254409Y0110649D01*
X0254470Y0110614D01*
X0254530Y0110576D01*
X0254587Y0110535D01*
X0254642Y0110491D01*
X0254694Y0110444D01*
X0254744Y0110394D01*
X0254791Y0110342D01*
X0254835Y0110287D01*
X0254876Y0110230D01*
X0254914Y0110170D01*
X0254949Y0110109D01*
X0254980Y0110046D01*
X0255008Y0109981D01*
X0255032Y0109915D01*
X0255053Y0109848D01*
X0255070Y0109779D01*
X0255083Y0109710D01*
X0255092Y0109641D01*
X0255098Y0109570D01*
X0255100Y0109500D01*
X0255102Y0109430D01*
X0255108Y0109359D01*
X0255117Y0109290D01*
X0255130Y0109221D01*
X0255147Y0109152D01*
X0255168Y0109085D01*
X0255192Y0109019D01*
X0255220Y0108954D01*
X0255251Y0108891D01*
X0255286Y0108830D01*
X0255324Y0108770D01*
X0255365Y0108713D01*
X0255409Y0108658D01*
X0255456Y0108606D01*
X0255506Y0108556D01*
X0255558Y0108509D01*
X0255613Y0108465D01*
X0255670Y0108424D01*
X0255730Y0108386D01*
X0255791Y0108351D01*
X0255854Y0108320D01*
X0255919Y0108292D01*
X0255985Y0108268D01*
X0256052Y0108247D01*
X0256121Y0108230D01*
X0256190Y0108217D01*
X0256259Y0108208D01*
X0256330Y0108202D01*
X0256400Y0108200D01*
X0256470Y0108202D01*
X0256541Y0108208D01*
X0256610Y0108217D01*
X0256679Y0108230D01*
X0256748Y0108247D01*
X0256815Y0108268D01*
X0256881Y0108292D01*
X0256946Y0108320D01*
X0257009Y0108351D01*
X0257070Y0108386D01*
X0257130Y0108424D01*
X0257187Y0108465D01*
X0257242Y0108509D01*
X0257294Y0108556D01*
X0257344Y0108606D01*
X0257391Y0108658D01*
X0257435Y0108713D01*
X0257476Y0108770D01*
X0257514Y0108830D01*
X0257549Y0108891D01*
X0257580Y0108954D01*
X0257608Y0109019D01*
X0257632Y0109085D01*
X0257653Y0109152D01*
X0257670Y0109221D01*
X0257683Y0109290D01*
X0257692Y0109359D01*
X0257698Y0109430D01*
X0257700Y0109500D01*
X0256709Y0105554D02*
X0254206Y0105554D01*
X0254206Y0100550D01*
X0256709Y0100550D01*
X0257543Y0101384D01*
X0257543Y0104720D01*
X0256709Y0105554D01*
X0259363Y0105554D02*
X0261031Y0105554D01*
X0260197Y0105554D02*
X0260197Y0100550D01*
X0259363Y0100550D02*
X0261031Y0100550D01*
X0262800Y0100550D02*
X0266137Y0103886D01*
X0266137Y0104720D01*
X0265303Y0105554D01*
X0263634Y0105554D01*
X0262800Y0104720D01*
X0267957Y0103052D02*
X0267957Y0101384D01*
X0268791Y0100550D01*
X0270459Y0100550D01*
X0271293Y0101384D01*
X0271293Y0102218D01*
X0270459Y0103052D01*
X0267957Y0103052D01*
X0269625Y0104720D01*
X0271293Y0105554D01*
X0273113Y0104720D02*
X0273947Y0105554D01*
X0275615Y0105554D01*
X0276449Y0104720D01*
X0273113Y0101384D01*
X0273947Y0100550D01*
X0275615Y0100550D01*
X0276449Y0101384D01*
X0276449Y0104720D01*
X0273113Y0104720D02*
X0273113Y0101384D01*
X0278270Y0099716D02*
X0281606Y0099716D01*
X0283426Y0100550D02*
X0286762Y0100550D01*
X0285094Y0100550D02*
X0285094Y0105554D01*
X0283426Y0103886D01*
X0277700Y0109500D02*
X0277698Y0109430D01*
X0277692Y0109359D01*
X0277683Y0109290D01*
X0277670Y0109221D01*
X0277653Y0109152D01*
X0277632Y0109085D01*
X0277608Y0109019D01*
X0277580Y0108954D01*
X0277549Y0108891D01*
X0277514Y0108830D01*
X0277476Y0108770D01*
X0277435Y0108713D01*
X0277391Y0108658D01*
X0277344Y0108606D01*
X0277294Y0108556D01*
X0277242Y0108509D01*
X0277187Y0108465D01*
X0277130Y0108424D01*
X0277070Y0108386D01*
X0277009Y0108351D01*
X0276946Y0108320D01*
X0276881Y0108292D01*
X0276815Y0108268D01*
X0276748Y0108247D01*
X0276679Y0108230D01*
X0276610Y0108217D01*
X0276541Y0108208D01*
X0276470Y0108202D01*
X0276400Y0108200D01*
X0276330Y0108202D01*
X0276259Y0108208D01*
X0276190Y0108217D01*
X0276121Y0108230D01*
X0276052Y0108247D01*
X0275985Y0108268D01*
X0275919Y0108292D01*
X0275854Y0108320D01*
X0275791Y0108351D01*
X0275730Y0108386D01*
X0275670Y0108424D01*
X0275613Y0108465D01*
X0275558Y0108509D01*
X0275506Y0108556D01*
X0275456Y0108606D01*
X0275409Y0108658D01*
X0275365Y0108713D01*
X0275324Y0108770D01*
X0275286Y0108830D01*
X0275251Y0108891D01*
X0275220Y0108954D01*
X0275192Y0109019D01*
X0275168Y0109085D01*
X0275147Y0109152D01*
X0275130Y0109221D01*
X0275117Y0109290D01*
X0275108Y0109359D01*
X0275102Y0109430D01*
X0275100Y0109500D01*
X0275098Y0109570D01*
X0275092Y0109641D01*
X0275083Y0109710D01*
X0275070Y0109779D01*
X0275053Y0109848D01*
X0275032Y0109915D01*
X0275008Y0109981D01*
X0274980Y0110046D01*
X0274949Y0110109D01*
X0274914Y0110170D01*
X0274876Y0110230D01*
X0274835Y0110287D01*
X0274791Y0110342D01*
X0274744Y0110394D01*
X0274694Y0110444D01*
X0274642Y0110491D01*
X0274587Y0110535D01*
X0274530Y0110576D01*
X0274470Y0110614D01*
X0274409Y0110649D01*
X0274346Y0110680D01*
X0274281Y0110708D01*
X0274215Y0110732D01*
X0274148Y0110753D01*
X0274079Y0110770D01*
X0274010Y0110783D01*
X0273941Y0110792D01*
X0273870Y0110798D01*
X0273800Y0110800D01*
X0273730Y0110798D01*
X0273659Y0110792D01*
X0273590Y0110783D01*
X0273521Y0110770D01*
X0273452Y0110753D01*
X0273385Y0110732D01*
X0273319Y0110708D01*
X0273254Y0110680D01*
X0273191Y0110649D01*
X0273130Y0110614D01*
X0273070Y0110576D01*
X0273013Y0110535D01*
X0272958Y0110491D01*
X0272906Y0110444D01*
X0272856Y0110394D01*
X0272809Y0110342D01*
X0272765Y0110287D01*
X0272724Y0110230D01*
X0272686Y0110170D01*
X0272651Y0110109D01*
X0272620Y0110046D01*
X0272592Y0109981D01*
X0272568Y0109915D01*
X0272547Y0109848D01*
X0272530Y0109779D01*
X0272517Y0109710D01*
X0272508Y0109641D01*
X0272502Y0109570D01*
X0272500Y0109500D01*
X0266137Y0100550D02*
X0262800Y0100550D01*
X0252386Y0101384D02*
X0251552Y0100550D01*
X0249884Y0100550D01*
X0249050Y0101384D01*
X0249884Y0103052D02*
X0251552Y0103052D01*
X0252386Y0102218D01*
X0252386Y0101384D01*
X0249884Y0103052D02*
X0249050Y0103886D01*
X0249050Y0104720D01*
X0249884Y0105554D01*
X0251552Y0105554D01*
X0252386Y0104720D01*
X0255000Y0094000D02*
X0255000Y0090000D01*
X0253000Y0092000D02*
X0257000Y0092000D01*
X0273000Y0092000D02*
X0277000Y0092000D01*
X0291500Y0088500D02*
X0328500Y0088500D01*
X0328500Y0111500D01*
X0291500Y0111500D01*
X0291500Y0088500D01*
X0298000Y0092000D02*
X0302000Y0092000D01*
X0300000Y0094000D02*
X0300000Y0090000D01*
X0318000Y0092000D02*
X0322000Y0092000D01*
X0323270Y0099716D02*
X0326606Y0099716D01*
X0328426Y0100550D02*
X0331762Y0103886D01*
X0331762Y0104720D01*
X0330928Y0105554D01*
X0329260Y0105554D01*
X0328426Y0104720D01*
X0321449Y0104720D02*
X0321449Y0101384D01*
X0320615Y0100550D01*
X0318947Y0100550D01*
X0318113Y0101384D01*
X0321449Y0104720D01*
X0320615Y0105554D01*
X0318947Y0105554D01*
X0318113Y0104720D01*
X0318113Y0101384D01*
X0316293Y0101384D02*
X0316293Y0102218D01*
X0315459Y0103052D01*
X0312957Y0103052D01*
X0312957Y0101384D01*
X0313791Y0100550D01*
X0315459Y0100550D01*
X0316293Y0101384D01*
X0314625Y0104720D02*
X0312957Y0103052D01*
X0311137Y0103886D02*
X0311137Y0104720D01*
X0310303Y0105554D01*
X0308634Y0105554D01*
X0307800Y0104720D01*
X0306031Y0105554D02*
X0304363Y0105554D01*
X0305197Y0105554D02*
X0305197Y0100550D01*
X0304363Y0100550D02*
X0306031Y0100550D01*
X0307800Y0100550D02*
X0311137Y0103886D01*
X0314625Y0104720D02*
X0316293Y0105554D01*
X0317500Y0109500D02*
X0317502Y0109570D01*
X0317508Y0109641D01*
X0317517Y0109710D01*
X0317530Y0109779D01*
X0317547Y0109848D01*
X0317568Y0109915D01*
X0317592Y0109981D01*
X0317620Y0110046D01*
X0317651Y0110109D01*
X0317686Y0110170D01*
X0317724Y0110230D01*
X0317765Y0110287D01*
X0317809Y0110342D01*
X0317856Y0110394D01*
X0317906Y0110444D01*
X0317958Y0110491D01*
X0318013Y0110535D01*
X0318070Y0110576D01*
X0318130Y0110614D01*
X0318191Y0110649D01*
X0318254Y0110680D01*
X0318319Y0110708D01*
X0318385Y0110732D01*
X0318452Y0110753D01*
X0318521Y0110770D01*
X0318590Y0110783D01*
X0318659Y0110792D01*
X0318730Y0110798D01*
X0318800Y0110800D01*
X0318870Y0110798D01*
X0318941Y0110792D01*
X0319010Y0110783D01*
X0319079Y0110770D01*
X0319148Y0110753D01*
X0319215Y0110732D01*
X0319281Y0110708D01*
X0319346Y0110680D01*
X0319409Y0110649D01*
X0319470Y0110614D01*
X0319530Y0110576D01*
X0319587Y0110535D01*
X0319642Y0110491D01*
X0319694Y0110444D01*
X0319744Y0110394D01*
X0319791Y0110342D01*
X0319835Y0110287D01*
X0319876Y0110230D01*
X0319914Y0110170D01*
X0319949Y0110109D01*
X0319980Y0110046D01*
X0320008Y0109981D01*
X0320032Y0109915D01*
X0320053Y0109848D01*
X0320070Y0109779D01*
X0320083Y0109710D01*
X0320092Y0109641D01*
X0320098Y0109570D01*
X0320100Y0109500D01*
X0320102Y0109430D01*
X0320108Y0109359D01*
X0320117Y0109290D01*
X0320130Y0109221D01*
X0320147Y0109152D01*
X0320168Y0109085D01*
X0320192Y0109019D01*
X0320220Y0108954D01*
X0320251Y0108891D01*
X0320286Y0108830D01*
X0320324Y0108770D01*
X0320365Y0108713D01*
X0320409Y0108658D01*
X0320456Y0108606D01*
X0320506Y0108556D01*
X0320558Y0108509D01*
X0320613Y0108465D01*
X0320670Y0108424D01*
X0320730Y0108386D01*
X0320791Y0108351D01*
X0320854Y0108320D01*
X0320919Y0108292D01*
X0320985Y0108268D01*
X0321052Y0108247D01*
X0321121Y0108230D01*
X0321190Y0108217D01*
X0321259Y0108208D01*
X0321330Y0108202D01*
X0321400Y0108200D01*
X0321470Y0108202D01*
X0321541Y0108208D01*
X0321610Y0108217D01*
X0321679Y0108230D01*
X0321748Y0108247D01*
X0321815Y0108268D01*
X0321881Y0108292D01*
X0321946Y0108320D01*
X0322009Y0108351D01*
X0322070Y0108386D01*
X0322130Y0108424D01*
X0322187Y0108465D01*
X0322242Y0108509D01*
X0322294Y0108556D01*
X0322344Y0108606D01*
X0322391Y0108658D01*
X0322435Y0108713D01*
X0322476Y0108770D01*
X0322514Y0108830D01*
X0322549Y0108891D01*
X0322580Y0108954D01*
X0322608Y0109019D01*
X0322632Y0109085D01*
X0322653Y0109152D01*
X0322670Y0109221D01*
X0322683Y0109290D01*
X0322692Y0109359D01*
X0322698Y0109430D01*
X0322700Y0109500D01*
X0328426Y0100550D02*
X0331762Y0100550D01*
X0311137Y0100550D02*
X0307800Y0100550D01*
X0302543Y0101384D02*
X0302543Y0104720D01*
X0301709Y0105554D01*
X0299206Y0105554D01*
X0299206Y0100550D01*
X0301709Y0100550D01*
X0302543Y0101384D01*
X0297386Y0101384D02*
X0296552Y0100550D01*
X0294884Y0100550D01*
X0294050Y0101384D01*
X0294884Y0103052D02*
X0296552Y0103052D01*
X0297386Y0102218D01*
X0297386Y0101384D01*
X0294884Y0103052D02*
X0294050Y0103886D01*
X0294050Y0104720D01*
X0294884Y0105554D01*
X0296552Y0105554D01*
X0297386Y0104720D01*
X0297500Y0109500D02*
X0297502Y0109570D01*
X0297508Y0109641D01*
X0297517Y0109710D01*
X0297530Y0109779D01*
X0297547Y0109848D01*
X0297568Y0109915D01*
X0297592Y0109981D01*
X0297620Y0110046D01*
X0297651Y0110109D01*
X0297686Y0110170D01*
X0297724Y0110230D01*
X0297765Y0110287D01*
X0297809Y0110342D01*
X0297856Y0110394D01*
X0297906Y0110444D01*
X0297958Y0110491D01*
X0298013Y0110535D01*
X0298070Y0110576D01*
X0298130Y0110614D01*
X0298191Y0110649D01*
X0298254Y0110680D01*
X0298319Y0110708D01*
X0298385Y0110732D01*
X0298452Y0110753D01*
X0298521Y0110770D01*
X0298590Y0110783D01*
X0298659Y0110792D01*
X0298730Y0110798D01*
X0298800Y0110800D01*
X0298870Y0110798D01*
X0298941Y0110792D01*
X0299010Y0110783D01*
X0299079Y0110770D01*
X0299148Y0110753D01*
X0299215Y0110732D01*
X0299281Y0110708D01*
X0299346Y0110680D01*
X0299409Y0110649D01*
X0299470Y0110614D01*
X0299530Y0110576D01*
X0299587Y0110535D01*
X0299642Y0110491D01*
X0299694Y0110444D01*
X0299744Y0110394D01*
X0299791Y0110342D01*
X0299835Y0110287D01*
X0299876Y0110230D01*
X0299914Y0110170D01*
X0299949Y0110109D01*
X0299980Y0110046D01*
X0300008Y0109981D01*
X0300032Y0109915D01*
X0300053Y0109848D01*
X0300070Y0109779D01*
X0300083Y0109710D01*
X0300092Y0109641D01*
X0300098Y0109570D01*
X0300100Y0109500D01*
X0300102Y0109430D01*
X0300108Y0109359D01*
X0300117Y0109290D01*
X0300130Y0109221D01*
X0300147Y0109152D01*
X0300168Y0109085D01*
X0300192Y0109019D01*
X0300220Y0108954D01*
X0300251Y0108891D01*
X0300286Y0108830D01*
X0300324Y0108770D01*
X0300365Y0108713D01*
X0300409Y0108658D01*
X0300456Y0108606D01*
X0300506Y0108556D01*
X0300558Y0108509D01*
X0300613Y0108465D01*
X0300670Y0108424D01*
X0300730Y0108386D01*
X0300791Y0108351D01*
X0300854Y0108320D01*
X0300919Y0108292D01*
X0300985Y0108268D01*
X0301052Y0108247D01*
X0301121Y0108230D01*
X0301190Y0108217D01*
X0301259Y0108208D01*
X0301330Y0108202D01*
X0301400Y0108200D01*
X0301470Y0108202D01*
X0301541Y0108208D01*
X0301610Y0108217D01*
X0301679Y0108230D01*
X0301748Y0108247D01*
X0301815Y0108268D01*
X0301881Y0108292D01*
X0301946Y0108320D01*
X0302009Y0108351D01*
X0302070Y0108386D01*
X0302130Y0108424D01*
X0302187Y0108465D01*
X0302242Y0108509D01*
X0302294Y0108556D01*
X0302344Y0108606D01*
X0302391Y0108658D01*
X0302435Y0108713D01*
X0302476Y0108770D01*
X0302514Y0108830D01*
X0302549Y0108891D01*
X0302580Y0108954D01*
X0302608Y0109019D01*
X0302632Y0109085D01*
X0302653Y0109152D01*
X0302670Y0109221D01*
X0302683Y0109290D01*
X0302692Y0109359D01*
X0302698Y0109430D01*
X0302700Y0109500D01*
X0174418Y0121500D02*
X0171082Y0121500D01*
X0172750Y0121500D02*
X0172750Y0126504D01*
X0171082Y0124836D01*
X0169262Y0124836D02*
X0168428Y0124002D01*
X0169262Y0123168D01*
X0169262Y0122334D01*
X0168428Y0121500D01*
X0166760Y0121500D01*
X0165926Y0122334D01*
X0164105Y0122334D02*
X0163271Y0121500D01*
X0161603Y0121500D01*
X0160769Y0122334D01*
X0160769Y0124002D02*
X0162437Y0124836D01*
X0163271Y0124836D01*
X0164105Y0124002D01*
X0164105Y0122334D01*
X0160769Y0124002D02*
X0160769Y0126504D01*
X0164105Y0126504D01*
X0165926Y0125670D02*
X0166760Y0126504D01*
X0168428Y0126504D01*
X0169262Y0125670D01*
X0169262Y0124836D01*
X0168428Y0124002D02*
X0167594Y0124002D01*
X0158949Y0121500D02*
X0156447Y0124002D01*
X0155613Y0123168D02*
X0158949Y0126504D01*
X0155613Y0126504D02*
X0155613Y0121500D01*
X0153793Y0122334D02*
X0152959Y0121500D01*
X0151290Y0121500D01*
X0150456Y0122334D01*
X0151290Y0124002D02*
X0152959Y0124002D01*
X0153793Y0123168D01*
X0153793Y0122334D01*
X0151290Y0124002D02*
X0150456Y0124836D01*
X0150456Y0125670D01*
X0151290Y0126504D01*
X0152959Y0126504D01*
X0153793Y0125670D01*
X0148636Y0125670D02*
X0147802Y0126504D01*
X0146134Y0126504D01*
X0145300Y0125670D01*
X0148636Y0125670D02*
X0148636Y0124836D01*
X0145300Y0121500D01*
X0148636Y0121500D01*
X0150000Y0032500D02*
X0155000Y0032500D01*
X0160000Y0032500D01*
X0155000Y0032500D02*
X0150000Y0026500D01*
X0160000Y0026500D01*
X0155000Y0032500D01*
X0148200Y0025793D02*
X0148200Y0022456D01*
X0148200Y0024124D02*
X0143196Y0024124D01*
X0144864Y0022456D01*
X0144030Y0020636D02*
X0143196Y0019802D01*
X0143196Y0017300D01*
X0148200Y0017300D01*
X0148200Y0019802D01*
X0147366Y0020636D01*
X0144030Y0020636D01*
D16*
X0160000Y0118500D03*
D17*
X0142750Y0116000D03*
X0177250Y0116000D03*
D18*
X0165000Y0116000D03*
X0155000Y0116000D03*
D19*
X0040000Y0098575D03*
X0040000Y0071425D03*
D20*
X0039994Y0079580D03*
X0039994Y0090380D03*
D21*
X0063300Y0105000D03*
X0096700Y0105000D03*
D22*
X0085380Y0105006D03*
X0074580Y0105006D03*
X0117080Y0085006D03*
X0122880Y0085006D03*
X0122880Y0070006D03*
X0117080Y0070006D03*
D23*
X0130500Y0070000D03*
X0130500Y0085000D03*
D24*
X0109550Y0085000D03*
X0109550Y0070000D03*
M02*
