G75*
%MOIN*%
%OFA0B0*%
%FSLAX25Y25*%
%IPPOS*%
%LPD*%
%AMOC8*
5,1,8,0,0,1.08239X$1,22.5*
%
%ADD10C,0.00300*%
%ADD11C,0.00400*%
%ADD12C,0.00800*%
%ADD13C,0.00100*%
%ADD14R,0.01800X0.03000*%
%ADD15C,0.00500*%
%ADD16C,0.00000*%
%ADD17C,0.02200*%
%ADD18R,0.00506X0.00023*%
%ADD19R,0.00920X0.00023*%
%ADD20R,0.01219X0.00023*%
%ADD21R,0.01426X0.00023*%
%ADD22R,0.01633X0.00023*%
%ADD23R,0.01817X0.00023*%
%ADD24R,0.01955X0.00023*%
%ADD25R,0.02116X0.00023*%
%ADD26R,0.02231X0.00023*%
%ADD27R,0.02369X0.00023*%
%ADD28R,0.02484X0.00023*%
%ADD29R,0.02599X0.00023*%
%ADD30R,0.02714X0.00023*%
%ADD31R,0.02806X0.00023*%
%ADD32R,0.02875X0.00023*%
%ADD33R,0.02990X0.00023*%
%ADD34R,0.03082X0.00023*%
%ADD35R,0.03197X0.00023*%
%ADD36R,0.03266X0.00023*%
%ADD37R,0.03358X0.00023*%
%ADD38R,0.03427X0.00023*%
%ADD39R,0.03519X0.00023*%
%ADD40R,0.03588X0.00023*%
%ADD41R,0.03680X0.00023*%
%ADD42R,0.03749X0.00023*%
%ADD43R,0.03818X0.00023*%
%ADD44R,0.03887X0.00023*%
%ADD45R,0.03979X0.00023*%
%ADD46R,0.04048X0.00023*%
%ADD47R,0.04117X0.00023*%
%ADD48R,0.04163X0.00023*%
%ADD49R,0.04232X0.00023*%
%ADD50R,0.04301X0.00023*%
%ADD51R,0.02024X0.00023*%
%ADD52R,0.01748X0.00023*%
%ADD53R,0.01886X0.00023*%
%ADD54R,0.01587X0.00023*%
%ADD55R,0.01794X0.00023*%
%ADD56R,0.01518X0.00023*%
%ADD57R,0.01771X0.00023*%
%ADD58R,0.01426X0.00023*%
%ADD59R,0.01702X0.00023*%
%ADD60R,0.01380X0.00023*%
%ADD61R,0.01656X0.00023*%
%ADD62R,0.01334X0.00023*%
%ADD63R,0.01610X0.00023*%
%ADD64R,0.01288X0.00023*%
%ADD65R,0.01610X0.00023*%
%ADD66R,0.01242X0.00023*%
%ADD67R,0.01564X0.00023*%
%ADD68R,0.01564X0.00023*%
%ADD69R,0.01173X0.00023*%
%ADD70R,0.01518X0.00023*%
%ADD71R,0.01150X0.00023*%
%ADD72R,0.01127X0.00023*%
%ADD73R,0.01495X0.00023*%
%ADD74R,0.01081X0.00023*%
%ADD75R,0.01472X0.00023*%
%ADD76R,0.01081X0.00023*%
%ADD77R,0.01058X0.00023*%
%ADD78R,0.01472X0.00023*%
%ADD79R,0.01035X0.00023*%
%ADD80R,0.01012X0.00023*%
%ADD81R,0.01449X0.00023*%
%ADD82R,0.00989X0.00023*%
%ADD83R,0.01449X0.00023*%
%ADD84R,0.00966X0.00023*%
%ADD85R,0.00966X0.00023*%
%ADD86R,0.00943X0.00023*%
%ADD87R,0.00920X0.00023*%
%ADD88R,0.00897X0.00023*%
%ADD89R,0.01426X0.00023*%
%ADD90R,0.00874X0.00023*%
%ADD91R,0.00874X0.00023*%
%ADD92R,0.00851X0.00023*%
%ADD93R,0.00851X0.00023*%
%ADD94R,0.00828X0.00023*%
%ADD95R,0.00828X0.00023*%
%ADD96R,0.00782X0.00023*%
%ADD97R,0.01495X0.00023*%
%ADD98R,0.00805X0.00023*%
%ADD99R,0.00253X0.00023*%
%ADD100R,0.00644X0.00023*%
%ADD101R,0.00805X0.00023*%
%ADD102R,0.00759X0.00023*%
%ADD103R,0.00644X0.00023*%
%ADD104R,0.00782X0.00023*%
%ADD105R,0.01081X0.00023*%
%ADD106R,0.00667X0.00023*%
%ADD107R,0.01288X0.00023*%
%ADD108R,0.00690X0.00023*%
%ADD109R,0.01633X0.00023*%
%ADD110R,0.00690X0.00023*%
%ADD111R,0.00759X0.00023*%
%ADD112R,0.01541X0.00023*%
%ADD113R,0.01771X0.00023*%
%ADD114R,0.00713X0.00023*%
%ADD115R,0.00759X0.00023*%
%ADD116R,0.01541X0.00023*%
%ADD117R,0.01909X0.00023*%
%ADD118R,0.00713X0.00023*%
%ADD119R,0.02001X0.00023*%
%ADD120R,0.00736X0.00023*%
%ADD121R,0.02139X0.00023*%
%ADD122R,0.00736X0.00023*%
%ADD123R,0.01587X0.00023*%
%ADD124R,0.02300X0.00023*%
%ADD125R,0.01587X0.00023*%
%ADD126R,0.02392X0.00023*%
%ADD127R,0.00759X0.00023*%
%ADD128R,0.03220X0.00023*%
%ADD129R,0.03243X0.00023*%
%ADD130R,0.03289X0.00023*%
%ADD131R,0.01426X0.00023*%
%ADD132R,0.01219X0.00023*%
%ADD133R,0.01173X0.00023*%
%ADD134R,0.01104X0.00023*%
%ADD135R,0.01357X0.00023*%
%ADD136R,0.01679X0.00023*%
%ADD137R,0.01081X0.00023*%
%ADD138R,0.01702X0.00023*%
%ADD139R,0.01173X0.00023*%
%ADD140R,0.01127X0.00023*%
%ADD141R,0.01725X0.00023*%
%ADD142R,0.00989X0.00023*%
%ADD143R,0.01725X0.00023*%
%ADD144R,0.00943X0.00023*%
%ADD145R,0.01058X0.00023*%
%ADD146R,0.01035X0.00023*%
%ADD147R,0.01748X0.00023*%
%ADD148R,0.00943X0.00023*%
%ADD149R,0.01817X0.00023*%
%ADD150R,0.01817X0.00023*%
%ADD151R,0.01840X0.00023*%
%ADD152R,0.00897X0.00023*%
%ADD153R,0.01840X0.00023*%
%ADD154R,0.01863X0.00023*%
%ADD155R,0.01886X0.00023*%
%ADD156R,0.00851X0.00023*%
%ADD157R,0.01909X0.00023*%
%ADD158R,0.00828X0.00023*%
%ADD159R,0.01932X0.00023*%
%ADD160R,0.01978X0.00023*%
%ADD161R,0.02001X0.00023*%
%ADD162R,0.02047X0.00023*%
%ADD163R,0.02070X0.00023*%
%ADD164R,0.02070X0.00023*%
%ADD165R,0.02093X0.00023*%
%ADD166R,0.02116X0.00023*%
%ADD167R,0.00851X0.00023*%
%ADD168R,0.02139X0.00023*%
%ADD169R,0.02162X0.00023*%
%ADD170R,0.02185X0.00023*%
%ADD171R,0.02208X0.00023*%
%ADD172R,0.02231X0.00023*%
%ADD173R,0.02254X0.00023*%
%ADD174R,0.02254X0.00023*%
%ADD175R,0.02277X0.00023*%
%ADD176R,0.02300X0.00023*%
%ADD177R,0.02323X0.00023*%
%ADD178R,0.02346X0.00023*%
%ADD179R,0.02369X0.00023*%
%ADD180R,0.02392X0.00023*%
%ADD181R,0.02392X0.00023*%
%ADD182R,0.02392X0.00023*%
%ADD183R,0.02415X0.00023*%
%ADD184R,0.02438X0.00023*%
%ADD185R,0.00920X0.00023*%
%ADD186R,0.02461X0.00023*%
%ADD187R,0.01909X0.00023*%
%ADD188R,0.02461X0.00023*%
%ADD189R,0.02484X0.00023*%
%ADD190R,0.00920X0.00023*%
%ADD191R,0.02507X0.00023*%
%ADD192R,0.02530X0.00023*%
%ADD193R,0.02553X0.00023*%
%ADD194R,0.02576X0.00023*%
%ADD195R,0.02576X0.00023*%
%ADD196R,0.01012X0.00023*%
%ADD197R,0.02599X0.00023*%
%ADD198R,0.01012X0.00023*%
%ADD199R,0.02622X0.00023*%
%ADD200R,0.02622X0.00023*%
%ADD201R,0.02645X0.00023*%
%ADD202R,0.02645X0.00023*%
%ADD203R,0.02691X0.00023*%
%ADD204R,0.02714X0.00023*%
%ADD205R,0.02737X0.00023*%
%ADD206R,0.01104X0.00023*%
%ADD207R,0.02760X0.00023*%
%ADD208R,0.02760X0.00023*%
%ADD209R,0.01150X0.00023*%
%ADD210R,0.02783X0.00023*%
%ADD211R,0.02806X0.00023*%
%ADD212R,0.01196X0.00023*%
%ADD213R,0.02829X0.00023*%
%ADD214R,0.02852X0.00023*%
%ADD215R,0.01242X0.00023*%
%ADD216R,0.02852X0.00023*%
%ADD217R,0.01242X0.00023*%
%ADD218R,0.02875X0.00023*%
%ADD219R,0.01265X0.00023*%
%ADD220R,0.02898X0.00023*%
%ADD221R,0.02898X0.00023*%
%ADD222R,0.01334X0.00023*%
%ADD223R,0.01748X0.00023*%
%ADD224R,0.00621X0.00023*%
%ADD225R,0.00575X0.00023*%
%ADD226R,0.00552X0.00023*%
%ADD227R,0.00552X0.00023*%
%ADD228R,0.01403X0.00023*%
%ADD229R,0.00529X0.00023*%
%ADD230R,0.01403X0.00023*%
%ADD231R,0.00506X0.00023*%
%ADD232R,0.00506X0.00023*%
%ADD233R,0.00506X0.00023*%
%ADD234R,0.00483X0.00023*%
%ADD235R,0.00483X0.00023*%
%ADD236R,0.01311X0.00023*%
%ADD237R,0.00943X0.00023*%
%ADD238R,0.01564X0.00023*%
%ADD239R,0.01196X0.00023*%
%ADD240R,0.00828X0.00023*%
%ADD241R,0.00529X0.00023*%
%ADD242R,0.01748X0.00023*%
%ADD243R,0.00529X0.00023*%
%ADD244R,0.01794X0.00023*%
%ADD245R,0.00667X0.00023*%
%ADD246R,0.00575X0.00023*%
%ADD247R,0.00437X0.00023*%
%ADD248R,0.00276X0.00023*%
%ADD249R,0.00598X0.00023*%
%ADD250R,0.00621X0.00023*%
%ADD251R,0.02668X0.00023*%
%ADD252R,0.02024X0.00023*%
%ADD253R,0.02576X0.00023*%
%ADD254R,0.02047X0.00023*%
%ADD255R,0.02323X0.00023*%
%ADD256R,0.02162X0.00023*%
%ADD257R,0.02208X0.00023*%
%ADD258R,0.02001X0.00023*%
%ADD259R,0.02231X0.00023*%
%ADD260R,0.02484X0.00023*%
%ADD261R,0.02668X0.00023*%
%ADD262R,0.02737X0.00023*%
%ADD263R,0.01265X0.00023*%
%ADD264R,0.02944X0.00023*%
%ADD265R,0.02967X0.00023*%
%ADD266R,0.03013X0.00023*%
%ADD267R,0.03082X0.00023*%
%ADD268R,0.03128X0.00023*%
%ADD269R,0.03174X0.00023*%
%ADD270R,0.01679X0.00023*%
%ADD271R,0.01863X0.00023*%
%ADD272R,0.02162X0.00023*%
%ADD273R,0.02277X0.00023*%
%ADD274R,0.05129X0.00023*%
%ADD275R,0.05129X0.00023*%
%ADD276R,0.05152X0.00023*%
%ADD277R,0.05152X0.00023*%
%ADD278R,0.01656X0.00023*%
%ADD279R,0.05175X0.00023*%
%ADD280R,0.05198X0.00023*%
%ADD281R,0.05198X0.00023*%
%ADD282R,0.05221X0.00023*%
%ADD283R,0.05244X0.00023*%
%ADD284R,0.05244X0.00023*%
%ADD285R,0.05267X0.00023*%
%ADD286R,0.05290X0.00023*%
%ADD287R,0.03680X0.00023*%
%ADD288R,0.03703X0.00023*%
%ADD289R,0.03703X0.00023*%
%ADD290R,0.01495X0.00023*%
%ADD291R,0.01495X0.00023*%
%ADD292R,0.01587X0.00023*%
%ADD293R,0.01978X0.00023*%
%ADD294R,0.01955X0.00023*%
%ADD295R,0.01932X0.00023*%
%ADD296R,0.01380X0.00023*%
%ADD297R,0.01909X0.00023*%
%ADD298R,0.01357X0.00023*%
%ADD299R,0.01334X0.00023*%
%ADD300R,0.01311X0.00023*%
%ADD301R,0.01173X0.00023*%
%ADD302R,0.01403X0.00023*%
%ADD303R,0.01403X0.00023*%
%ADD304R,0.00690X0.00023*%
%ADD305R,0.00368X0.00023*%
%ADD306R,0.01334X0.00023*%
%ADD307R,0.01104X0.00023*%
%ADD308R,0.01012X0.00023*%
%ADD309R,0.00460X0.00023*%
%ADD310R,0.00414X0.00023*%
%ADD311R,0.00345X0.00023*%
%ADD312R,0.00253X0.00023*%
%ADD313R,0.00115X0.00023*%
%ADD314R,0.00667X0.00023*%
%ADD315R,0.00667X0.00023*%
%ADD316R,0.00529X0.00023*%
%ADD317R,0.00437X0.00023*%
%ADD318R,0.00391X0.00023*%
%ADD319R,0.00322X0.00023*%
%ADD320R,0.00138X0.00023*%
%ADD321R,0.00690X0.00023*%
%ADD322R,0.00437X0.00023*%
%ADD323R,0.00368X0.00023*%
%ADD324R,0.00207X0.00023*%
%ADD325R,0.00115X0.00023*%
%ADD326R,0.00260X0.00020*%
%ADD327R,0.00380X0.00020*%
%ADD328R,0.00320X0.00020*%
%ADD329R,0.00220X0.00020*%
%ADD330R,0.00240X0.00020*%
%ADD331R,0.00260X0.00020*%
%ADD332R,0.00700X0.00020*%
%ADD333R,0.00400X0.00020*%
%ADD334R,0.00240X0.00020*%
%ADD335R,0.00480X0.00020*%
%ADD336R,0.00720X0.00020*%
%ADD337R,0.00700X0.00020*%
%ADD338R,0.00540X0.00020*%
%ADD339R,0.00760X0.00020*%
%ADD340R,0.00720X0.00020*%
%ADD341R,0.00280X0.00020*%
%ADD342R,0.00740X0.00020*%
%ADD343R,0.00600X0.00020*%
%ADD344R,0.00780X0.00020*%
%ADD345R,0.00740X0.00020*%
%ADD346R,0.00280X0.00020*%
%ADD347R,0.00760X0.00020*%
%ADD348R,0.00660X0.00020*%
%ADD349R,0.00780X0.00020*%
%ADD350R,0.00300X0.00020*%
%ADD351R,0.00800X0.00020*%
%ADD352R,0.00300X0.00020*%
%ADD353R,0.00320X0.00020*%
%ADD354R,0.00820X0.00020*%
%ADD355R,0.00800X0.00020*%
%ADD356R,0.00320X0.00020*%
%ADD357R,0.00340X0.00020*%
%ADD358R,0.00840X0.00020*%
%ADD359R,0.00340X0.00020*%
%ADD360R,0.00820X0.00020*%
%ADD361R,0.00840X0.00020*%
%ADD362R,0.00820X0.00020*%
%ADD363R,0.00360X0.00020*%
%ADD364R,0.00740X0.00020*%
%ADD365R,0.00320X0.00020*%
%ADD366R,0.00380X0.00020*%
%ADD367R,0.00360X0.00020*%
%ADD368R,0.00180X0.00020*%
%ADD369R,0.00400X0.00020*%
%ADD370R,0.00120X0.00020*%
%ADD371R,0.00080X0.00020*%
%ADD372R,0.00420X0.00020*%
%ADD373R,0.00040X0.00020*%
%ADD374R,0.00440X0.00020*%
%ADD375R,0.00440X0.00020*%
%ADD376R,0.00460X0.00020*%
%ADD377R,0.00460X0.00020*%
%ADD378R,0.00480X0.00020*%
%ADD379R,0.00880X0.00020*%
%ADD380R,0.00220X0.00020*%
%ADD381R,0.00500X0.00020*%
%ADD382R,0.00880X0.00020*%
%ADD383R,0.00240X0.00020*%
%ADD384R,0.00240X0.00020*%
%ADD385R,0.00220X0.00020*%
%ADD386R,0.00220X0.00020*%
%ADD387R,0.00040X0.00020*%
%ADD388R,0.00080X0.00020*%
%ADD389R,0.00060X0.00020*%
%ADD390R,0.00340X0.00020*%
%ADD391R,0.00100X0.00020*%
%ADD392R,0.00820X0.00020*%
%ADD393R,0.00200X0.00020*%
%ADD394R,0.00620X0.00020*%
%ADD395R,0.00340X0.00020*%
%ADD396R,0.00640X0.00020*%
%ADD397R,0.00640X0.00020*%
%ADD398R,0.00660X0.00020*%
%ADD399R,0.00680X0.00020*%
%ADD400R,0.00740X0.00020*%
%ADD401R,0.00720X0.00020*%
%ADD402R,0.00620X0.00020*%
%ADD403R,0.00680X0.00020*%
%ADD404R,0.00560X0.00020*%
%ADD405R,0.00520X0.00020*%
%ADD406R,0.00560X0.00020*%
%ADD407R,0.00420X0.00020*%
%ADD408R,0.00200X0.00020*%
%ADD409R,0.00160X0.00020*%
%ADD410R,0.00180X0.00020*%
%ADD411R,0.00420X0.00020*%
%ADD412R,0.00520X0.00020*%
%ADD413R,0.00500X0.00020*%
%ADD414R,0.00580X0.00020*%
%ADD415R,0.00540X0.00020*%
%ADD416R,0.00580X0.00020*%
%ADD417R,0.00640X0.00020*%
%ADD418R,0.00600X0.00020*%
%ADD419R,0.00620X0.00020*%
%ADD420R,0.00860X0.00020*%
%ADD421R,0.00860X0.00020*%
%ADD422R,0.00120X0.00020*%
%ADD423R,0.00120X0.00020*%
%ADD424R,0.00140X0.00020*%
%ADD425R,0.00040X0.00020*%
%ADD426R,0.00060X0.00020*%
%ADD427R,0.00020X0.00020*%
%ADD428R,0.00020X0.00020*%
%ADD429R,0.00540X0.00020*%
%ADD430R,0.00520X0.00020*%
%ADD431R,0.00020X0.00020*%
%ADD432R,0.00100X0.00020*%
%ADD433R,0.00140X0.00020*%
%ADD434R,0.00160X0.00020*%
%ADD435R,0.00900X0.00020*%
%ADD436R,0.00960X0.00020*%
%ADD437R,0.00120X0.00020*%
%ADD438R,0.01000X0.00020*%
%ADD439R,0.01060X0.00020*%
%ADD440R,0.01100X0.00020*%
%ADD441R,0.01160X0.00020*%
%ADD442R,0.01200X0.00020*%
%ADD443R,0.01260X0.00020*%
%ADD444R,0.01300X0.00020*%
%ADD445R,0.00440X0.00020*%
%ADD446R,0.01840X0.00020*%
%ADD447R,0.01840X0.00020*%
%ADD448R,0.01860X0.00020*%
%ADD449R,0.01900X0.00020*%
%ADD450R,0.01920X0.00020*%
%ADD451R,0.01920X0.00020*%
%ADD452R,0.01960X0.00020*%
%ADD453R,0.01980X0.00020*%
%ADD454R,0.02000X0.00020*%
%ADD455R,0.02040X0.00020*%
%ADD456R,0.02060X0.00020*%
%ADD457R,0.02080X0.00020*%
%ADD458R,0.02100X0.00020*%
%ADD459R,0.02100X0.00020*%
%ADD460R,0.02080X0.00020*%
%ADD461R,0.02060X0.00020*%
%ADD462R,0.02040X0.00020*%
%ADD463R,0.02040X0.00020*%
%ADD464R,0.02040X0.00020*%
%ADD465R,0.02020X0.00020*%
%ADD466R,0.02020X0.00020*%
%ADD467R,0.02020X0.00020*%
%ADD468R,0.02020X0.00020*%
%ADD469R,0.02000X0.00020*%
%ADD470R,0.01980X0.00020*%
%ADD471R,0.01940X0.00020*%
%ADD472R,0.01940X0.00020*%
%ADD473R,0.01920X0.00020*%
%ADD474R,0.01920X0.00020*%
%ADD475R,0.02120X0.00020*%
%ADD476R,0.02120X0.00020*%
%ADD477R,0.02140X0.00020*%
%ADD478R,0.02140X0.00020*%
%ADD479R,0.02180X0.00020*%
%ADD480R,0.02180X0.00020*%
%ADD481R,0.02200X0.00020*%
%ADD482R,0.02220X0.00020*%
%ADD483R,0.02220X0.00020*%
%ADD484R,0.02260X0.00020*%
%ADD485R,0.02260X0.00020*%
%ADD486R,0.02240X0.00020*%
%ADD487R,0.02220X0.00020*%
%ADD488R,0.02200X0.00020*%
%ADD489R,0.02160X0.00020*%
%ADD490R,0.02160X0.00020*%
%ADD491R,0.02280X0.00020*%
%ADD492R,0.02360X0.00020*%
%ADD493R,0.02460X0.00020*%
%ADD494R,0.02540X0.00020*%
%ADD495R,0.02620X0.00020*%
%ADD496R,0.02620X0.00020*%
%ADD497R,0.02740X0.00020*%
%ADD498R,0.02820X0.00020*%
%ADD499R,0.02820X0.00020*%
%ADD500R,0.02840X0.00020*%
%ADD501R,0.02840X0.00020*%
%ADD502R,0.02800X0.00020*%
%ADD503R,0.02800X0.00020*%
%ADD504R,0.02780X0.00020*%
%ADD505R,0.02780X0.00020*%
%ADD506R,0.02760X0.00020*%
%ADD507R,0.02760X0.00020*%
%ADD508R,0.02740X0.00020*%
%ADD509R,0.02740X0.00020*%
%ADD510R,0.02740X0.00020*%
%ADD511R,0.02720X0.00020*%
%ADD512R,0.02720X0.00020*%
%ADD513R,0.02720X0.00020*%
%ADD514R,0.02720X0.00020*%
%ADD515R,0.02820X0.00020*%
%ADD516R,0.02820X0.00020*%
%ADD517R,0.02840X0.00020*%
%ADD518R,0.02840X0.00020*%
%ADD519R,0.02640X0.00020*%
%ADD520R,0.02540X0.00020*%
%ADD521R,0.02360X0.00020*%
%ADD522R,0.02220X0.00020*%
%ADD523R,0.02300X0.00020*%
%ADD524R,0.02420X0.00020*%
%ADD525R,0.05220X0.00020*%
%ADD526R,0.05180X0.00020*%
%ADD527R,0.05180X0.00020*%
%ADD528R,0.05140X0.00020*%
%ADD529R,0.05140X0.00020*%
%ADD530R,0.05100X0.00020*%
%ADD531R,0.05100X0.00020*%
%ADD532R,0.05060X0.00020*%
%ADD533R,0.05020X0.00020*%
%ADD534R,0.05020X0.00020*%
%ADD535R,0.04980X0.00020*%
%ADD536R,0.04940X0.00020*%
%ADD537R,0.04940X0.00020*%
%ADD538R,0.04900X0.00020*%
%ADD539R,0.04900X0.00020*%
%ADD540R,0.04860X0.00020*%
%ADD541R,0.04860X0.00020*%
%ADD542R,0.04980X0.00020*%
%ADD543R,0.05220X0.00020*%
%ADD544R,0.05260X0.00020*%
%ADD545R,0.05260X0.00020*%
%ADD546R,0.05300X0.00020*%
%ADD547R,0.05340X0.00020*%
%ADD548R,0.05380X0.00020*%
%ADD549R,0.05380X0.00020*%
%ADD550R,0.05420X0.00020*%
%ADD551R,0.05460X0.00020*%
%ADD552R,0.05460X0.00020*%
%ADD553R,0.05500X0.00020*%
%ADD554R,0.05540X0.00020*%
%ADD555R,0.05540X0.00020*%
%ADD556R,0.05580X0.00020*%
%ADD557R,0.05620X0.00020*%
%ADD558R,0.05660X0.00020*%
%ADD559R,0.05700X0.00020*%
%ADD560R,0.05700X0.00020*%
%ADD561R,0.05740X0.00020*%
%ADD562R,0.05780X0.00020*%
%ADD563R,0.05820X0.00020*%
%ADD564R,0.05820X0.00020*%
%ADD565R,0.05860X0.00020*%
%ADD566R,0.05900X0.00020*%
%ADD567R,0.05940X0.00020*%
%ADD568R,0.05940X0.00020*%
%ADD569R,0.05980X0.00020*%
%ADD570R,0.05900X0.00020*%
%ADD571R,0.05860X0.00020*%
%ADD572R,0.05660X0.00020*%
%ADD573R,0.01380X0.00020*%
%ADD574R,0.02700X0.00020*%
%ADD575R,0.01320X0.00020*%
%ADD576R,0.02580X0.00020*%
%ADD577R,0.01320X0.00020*%
%ADD578R,0.01280X0.00020*%
%ADD579R,0.02500X0.00020*%
%ADD580R,0.01220X0.00020*%
%ADD581R,0.02380X0.00020*%
%ADD582R,0.01220X0.00020*%
%ADD583R,0.01180X0.00020*%
%ADD584R,0.02300X0.00020*%
%ADD585R,0.01140X0.00020*%
%ADD586R,0.01120X0.00020*%
%ADD587R,0.01080X0.00020*%
%ADD588R,0.01040X0.00020*%
%ADD589R,0.00980X0.00020*%
%ADD590R,0.01900X0.00020*%
%ADD591R,0.00940X0.00020*%
%ADD592R,0.01820X0.00020*%
%ADD593R,0.00940X0.00020*%
%ADD594R,0.01700X0.00020*%
%ADD595R,0.01620X0.00020*%
%ADD596R,0.01500X0.00020*%
%ADD597R,0.01460X0.00020*%
%ADD598R,0.01420X0.00020*%
%ADD599R,0.01420X0.00020*%
%ADD600R,0.01380X0.00020*%
%ADD601R,0.01340X0.00020*%
%ADD602R,0.00140X0.00020*%
%ADD603R,0.01340X0.00020*%
%ADD604R,0.00140X0.00020*%
%ADD605R,0.01300X0.00020*%
%ADD606R,0.01260X0.00020*%
%ADD607R,0.01220X0.00020*%
%ADD608R,0.01180X0.00020*%
%ADD609R,0.01140X0.00020*%
%ADD610R,0.01140X0.00020*%
%ADD611R,0.01100X0.00020*%
D10*
X0022947Y0054156D02*
X0022947Y0056007D01*
X0023564Y0056625D01*
X0024798Y0056625D01*
X0025416Y0056007D01*
X0025416Y0054156D01*
X0026650Y0054156D02*
X0022947Y0054156D01*
X0025416Y0055390D02*
X0026650Y0056625D01*
X0026033Y0057839D02*
X0024798Y0057839D01*
X0024181Y0058456D01*
X0024181Y0059691D01*
X0024798Y0060308D01*
X0025416Y0060308D01*
X0025416Y0057839D01*
X0026033Y0057839D02*
X0026650Y0058456D01*
X0026650Y0059691D01*
X0026650Y0062757D02*
X0024181Y0063991D01*
X0024798Y0067047D02*
X0024798Y0068898D01*
X0025416Y0069516D01*
X0026033Y0069516D01*
X0026650Y0068898D01*
X0026650Y0067047D01*
X0022947Y0067047D01*
X0022947Y0068898D01*
X0023564Y0069516D01*
X0024181Y0069516D01*
X0024798Y0068898D01*
X0024798Y0070730D02*
X0024181Y0071347D01*
X0024181Y0072582D01*
X0024798Y0073199D01*
X0025416Y0073199D01*
X0025416Y0070730D01*
X0026033Y0070730D02*
X0024798Y0070730D01*
X0026033Y0070730D02*
X0026650Y0071347D01*
X0026650Y0072582D01*
X0026033Y0075030D02*
X0023564Y0075030D01*
X0024181Y0074413D02*
X0024181Y0075648D01*
X0024181Y0077486D02*
X0024181Y0078720D01*
X0024798Y0079337D01*
X0026650Y0079337D01*
X0026650Y0077486D01*
X0026033Y0076869D01*
X0025416Y0077486D01*
X0025416Y0079337D01*
X0026650Y0080552D02*
X0024181Y0083021D01*
X0023564Y0083021D01*
X0022947Y0082403D01*
X0022947Y0081169D01*
X0023564Y0080552D01*
X0026650Y0080552D02*
X0026650Y0083021D01*
X0026650Y0075648D02*
X0026033Y0075030D01*
X0026033Y0065823D02*
X0026650Y0065823D01*
X0026650Y0065205D01*
X0026033Y0065205D01*
X0026033Y0065823D01*
X0026650Y0062757D02*
X0024181Y0061522D01*
X0045348Y0061656D02*
X0045348Y0063107D01*
X0045831Y0063591D01*
X0046799Y0063591D01*
X0047283Y0063107D01*
X0047283Y0061656D01*
X0048250Y0061656D02*
X0045348Y0061656D01*
X0047283Y0062623D02*
X0048250Y0063591D01*
X0048250Y0064602D02*
X0045348Y0066537D01*
X0045348Y0064602D02*
X0048250Y0066537D01*
X0055348Y0066537D02*
X0058250Y0064602D01*
X0058250Y0066537D02*
X0055348Y0064602D01*
X0055348Y0063591D02*
X0055348Y0061656D01*
X0055348Y0062623D02*
X0058250Y0062623D01*
X0065348Y0061656D02*
X0067283Y0061656D01*
X0068250Y0062623D01*
X0067283Y0063591D01*
X0065348Y0063591D01*
X0065831Y0064602D02*
X0065348Y0065086D01*
X0065348Y0066054D01*
X0065831Y0066537D01*
X0065831Y0067549D02*
X0065348Y0068033D01*
X0065348Y0069000D01*
X0065831Y0069484D01*
X0065831Y0067549D02*
X0067766Y0067549D01*
X0068250Y0068033D01*
X0068250Y0069000D01*
X0067766Y0069484D01*
X0067766Y0066537D02*
X0068250Y0066054D01*
X0068250Y0065086D01*
X0067766Y0064602D01*
X0065831Y0064602D01*
X0075348Y0064602D02*
X0078250Y0066537D01*
X0075348Y0066537D01*
X0075348Y0067549D02*
X0075348Y0069000D01*
X0075831Y0069484D01*
X0077766Y0069484D01*
X0078250Y0069000D01*
X0078250Y0067549D01*
X0075348Y0067549D01*
X0075348Y0064602D02*
X0078250Y0064602D01*
X0077766Y0063591D02*
X0076799Y0063591D01*
X0076799Y0062623D01*
X0077766Y0061656D02*
X0075831Y0061656D01*
X0075348Y0062140D01*
X0075348Y0063107D01*
X0075831Y0063591D01*
X0077766Y0063591D02*
X0078250Y0063107D01*
X0078250Y0062140D01*
X0077766Y0061656D01*
X0096057Y0080406D02*
X0096057Y0083308D01*
X0097992Y0083308D01*
X0097024Y0081857D02*
X0096057Y0081857D01*
X0099003Y0080890D02*
X0099487Y0081373D01*
X0100938Y0081373D01*
X0100938Y0081857D02*
X0100938Y0080406D01*
X0099487Y0080406D01*
X0099003Y0080890D01*
X0099487Y0082341D02*
X0100455Y0082341D01*
X0100938Y0081857D01*
X0101950Y0081857D02*
X0103401Y0081857D01*
X0103885Y0081373D01*
X0103885Y0080890D01*
X0103401Y0080406D01*
X0101950Y0080406D01*
X0101950Y0083308D01*
X0103401Y0083308D01*
X0103885Y0082825D01*
X0103885Y0082341D01*
X0103401Y0081857D01*
X0104897Y0081857D02*
X0104897Y0080890D01*
X0105380Y0080406D01*
X0106348Y0080406D01*
X0106831Y0080890D01*
X0106831Y0081857D01*
X0106348Y0082341D01*
X0105380Y0082341D01*
X0104897Y0081857D01*
D11*
X0021600Y0082597D02*
X0020833Y0081829D01*
X0020065Y0082597D01*
X0020065Y0084899D01*
X0019298Y0084899D02*
X0021600Y0084899D01*
X0021600Y0082597D01*
X0020833Y0079527D02*
X0016996Y0079527D01*
X0016996Y0078760D02*
X0016996Y0080295D01*
X0018531Y0082597D02*
X0018531Y0084131D01*
X0019298Y0084899D01*
X0019298Y0086433D02*
X0018531Y0087201D01*
X0018531Y0089503D01*
X0016996Y0091037D02*
X0021600Y0091037D01*
X0021600Y0089503D02*
X0021600Y0087201D01*
X0020833Y0086433D01*
X0019298Y0086433D01*
X0020065Y0091037D02*
X0018531Y0093339D01*
X0020065Y0091037D02*
X0021600Y0093339D01*
X0020833Y0079527D02*
X0021600Y0078760D01*
X0021600Y0077993D01*
X0020833Y0077226D01*
X0020065Y0075691D02*
X0019298Y0075691D01*
X0018531Y0074924D01*
X0018531Y0073389D01*
X0019298Y0072622D01*
X0020833Y0072622D01*
X0021600Y0073389D01*
X0021600Y0074924D01*
X0020065Y0075691D02*
X0020065Y0072622D01*
X0019298Y0071087D02*
X0021600Y0071087D01*
X0019298Y0071087D02*
X0018531Y0070320D01*
X0018531Y0068018D01*
X0021600Y0068018D01*
X0020833Y0066483D02*
X0019298Y0066483D01*
X0018531Y0065716D01*
X0018531Y0064181D01*
X0019298Y0063414D01*
X0020833Y0063414D01*
X0021600Y0064181D01*
X0021600Y0065716D01*
X0020833Y0066483D01*
X0021600Y0061879D02*
X0019298Y0061879D01*
X0018531Y0061112D01*
X0018531Y0059577D01*
X0019298Y0058810D01*
X0019298Y0057275D02*
X0017763Y0057275D01*
X0016996Y0056508D01*
X0016996Y0054206D01*
X0021600Y0054206D01*
X0020065Y0054206D02*
X0020065Y0056508D01*
X0019298Y0057275D01*
X0016996Y0058810D02*
X0021600Y0058810D01*
D12*
X0066288Y0086250D02*
X0066288Y0089400D01*
X0066288Y0086250D02*
X0068650Y0086250D01*
X0074950Y0086250D02*
X0077312Y0086250D01*
X0077312Y0089400D01*
D13*
X0074377Y0081957D02*
X0073877Y0081957D01*
X0073627Y0081707D01*
X0073627Y0081457D01*
X0073877Y0081207D01*
X0074377Y0081207D01*
X0074628Y0080956D01*
X0074628Y0080706D01*
X0074377Y0080456D01*
X0073877Y0080456D01*
X0073627Y0080706D01*
X0073627Y0080956D01*
X0073877Y0081207D01*
X0074377Y0081207D02*
X0074628Y0081457D01*
X0074628Y0081707D01*
X0074377Y0081957D01*
X0073154Y0081707D02*
X0073154Y0081457D01*
X0072904Y0081207D01*
X0073154Y0080956D01*
X0073154Y0080706D01*
X0072904Y0080456D01*
X0072404Y0080456D01*
X0072153Y0080706D01*
X0071681Y0080456D02*
X0070680Y0080456D01*
X0071181Y0080456D02*
X0071181Y0081957D01*
X0070680Y0081457D01*
X0070208Y0081707D02*
X0069958Y0081957D01*
X0069457Y0081957D01*
X0069207Y0081707D01*
X0069207Y0081457D01*
X0069457Y0081207D01*
X0069958Y0081207D01*
X0070208Y0080956D01*
X0070208Y0080706D01*
X0069958Y0080456D01*
X0069457Y0080456D01*
X0069207Y0080706D01*
X0068735Y0080706D02*
X0068484Y0080456D01*
X0067984Y0080456D01*
X0067734Y0080706D01*
X0067261Y0080706D02*
X0067011Y0080456D01*
X0066260Y0080456D01*
X0066260Y0081957D01*
X0067011Y0081957D01*
X0067261Y0081707D01*
X0067261Y0081457D01*
X0067011Y0081207D01*
X0066260Y0081207D01*
X0067011Y0081207D02*
X0067261Y0080956D01*
X0067261Y0080706D01*
X0067984Y0081207D02*
X0067734Y0081457D01*
X0067734Y0081707D01*
X0067984Y0081957D01*
X0068484Y0081957D01*
X0068735Y0081707D01*
X0068484Y0081207D02*
X0068735Y0080956D01*
X0068735Y0080706D01*
X0068484Y0081207D02*
X0067984Y0081207D01*
X0072153Y0081707D02*
X0072404Y0081957D01*
X0072904Y0081957D01*
X0073154Y0081707D01*
X0072904Y0081207D02*
X0072654Y0081207D01*
X0088350Y0092056D02*
X0088350Y0093557D01*
X0089101Y0093557D01*
X0089351Y0093307D01*
X0089351Y0092807D01*
X0089101Y0092556D01*
X0088350Y0092556D01*
X0088850Y0092556D02*
X0089351Y0092056D01*
X0089823Y0092056D02*
X0090824Y0092056D01*
X0090324Y0092056D02*
X0090324Y0093557D01*
X0089823Y0093057D01*
X0089823Y0107056D02*
X0090824Y0107056D01*
X0090324Y0107056D02*
X0090324Y0108557D01*
X0089823Y0108057D01*
X0089351Y0108307D02*
X0089101Y0108557D01*
X0088600Y0108557D01*
X0088350Y0108307D01*
X0088350Y0107306D01*
X0088600Y0107056D01*
X0089101Y0107056D01*
X0089351Y0107306D01*
X0070824Y0107056D02*
X0069823Y0107056D01*
X0070824Y0108057D01*
X0070824Y0108307D01*
X0070574Y0108557D01*
X0070073Y0108557D01*
X0069823Y0108307D01*
X0069351Y0108307D02*
X0069351Y0107807D01*
X0069101Y0107556D01*
X0068350Y0107556D01*
X0068350Y0107056D02*
X0068350Y0108557D01*
X0069101Y0108557D01*
X0069351Y0108307D01*
X0068850Y0107556D02*
X0069351Y0107056D01*
X0050824Y0107807D02*
X0049823Y0107807D01*
X0050574Y0108557D01*
X0050574Y0107056D01*
X0049351Y0107056D02*
X0048850Y0107556D01*
X0049101Y0107556D02*
X0048350Y0107556D01*
X0048350Y0107056D02*
X0048350Y0108557D01*
X0049101Y0108557D01*
X0049351Y0108307D01*
X0049351Y0107807D01*
X0049101Y0107556D01*
X0049101Y0093557D02*
X0049351Y0093307D01*
X0049351Y0092807D01*
X0049101Y0092556D01*
X0048350Y0092556D01*
X0048350Y0092056D02*
X0048350Y0093557D01*
X0049101Y0093557D01*
X0048850Y0092556D02*
X0049351Y0092056D01*
X0049823Y0092306D02*
X0049823Y0092807D01*
X0050574Y0092807D01*
X0050824Y0092556D01*
X0050824Y0092306D01*
X0050574Y0092056D01*
X0050073Y0092056D01*
X0049823Y0092306D01*
X0049823Y0092807D02*
X0050324Y0093307D01*
X0050824Y0093557D01*
X0030824Y0093307D02*
X0030574Y0093557D01*
X0030073Y0093557D01*
X0029823Y0093307D01*
X0029351Y0093307D02*
X0029101Y0093557D01*
X0028600Y0093557D01*
X0028350Y0093307D01*
X0028350Y0092306D01*
X0028600Y0092056D01*
X0029101Y0092056D01*
X0029351Y0092306D01*
X0029823Y0092056D02*
X0030824Y0093057D01*
X0030824Y0093307D01*
X0030824Y0092056D02*
X0029823Y0092056D01*
X0030073Y0107056D02*
X0029823Y0107306D01*
X0030073Y0107056D02*
X0030574Y0107056D01*
X0030824Y0107306D01*
X0030824Y0107556D01*
X0030574Y0107807D01*
X0030324Y0107807D01*
X0030574Y0107807D02*
X0030824Y0108057D01*
X0030824Y0108307D01*
X0030574Y0108557D01*
X0030073Y0108557D01*
X0029823Y0108307D01*
X0029351Y0108307D02*
X0029351Y0107807D01*
X0029101Y0107556D01*
X0028350Y0107556D01*
X0028350Y0107056D02*
X0028350Y0108557D01*
X0029101Y0108557D01*
X0029351Y0108307D01*
X0028850Y0107556D02*
X0029351Y0107056D01*
X0057282Y0156880D02*
X0057282Y0157631D01*
X0057532Y0157881D01*
X0058032Y0157881D01*
X0058283Y0157631D01*
X0058283Y0156880D01*
X0058783Y0156880D02*
X0057282Y0156880D01*
X0058533Y0158353D02*
X0058783Y0158604D01*
X0058783Y0158854D01*
X0058533Y0159104D01*
X0057282Y0159104D01*
X0057282Y0158854D02*
X0057282Y0159354D01*
X0057782Y0159827D02*
X0057282Y0160327D01*
X0058783Y0160327D01*
X0058783Y0159827D02*
X0058783Y0160828D01*
D14*
X0051800Y0104006D03*
X0051800Y0089006D03*
X0031800Y0104006D03*
X0071800Y0104006D03*
X0091800Y0089006D03*
D15*
X0086800Y0054006D02*
X0081800Y0054006D01*
X0086800Y0054006D02*
X0086800Y0019006D01*
X0041800Y0054006D02*
X0036800Y0054006D01*
X0036800Y0019006D01*
X0049989Y0124990D02*
X0073611Y0124990D01*
X0073611Y0172628D01*
X0071643Y0172628D01*
X0071643Y0180502D01*
X0051957Y0180502D01*
X0051957Y0172628D01*
X0049989Y0172628D01*
X0049989Y0124990D01*
D16*
X0021800Y0019006D02*
X0101800Y0019006D01*
X0102162Y0019010D01*
X0102525Y0019024D01*
X0102887Y0019045D01*
X0103248Y0019076D01*
X0103608Y0019115D01*
X0103967Y0019163D01*
X0104325Y0019220D01*
X0104682Y0019285D01*
X0105037Y0019359D01*
X0105390Y0019442D01*
X0105741Y0019533D01*
X0106089Y0019632D01*
X0106435Y0019740D01*
X0106779Y0019856D01*
X0107119Y0019981D01*
X0107456Y0020113D01*
X0107790Y0020254D01*
X0108121Y0020403D01*
X0108448Y0020560D01*
X0108771Y0020724D01*
X0109090Y0020896D01*
X0109404Y0021076D01*
X0109715Y0021264D01*
X0110020Y0021459D01*
X0110321Y0021661D01*
X0110617Y0021871D01*
X0110907Y0022087D01*
X0111193Y0022311D01*
X0111473Y0022541D01*
X0111747Y0022778D01*
X0112015Y0023022D01*
X0112278Y0023272D01*
X0112534Y0023528D01*
X0112784Y0023791D01*
X0113028Y0024059D01*
X0113265Y0024333D01*
X0113495Y0024613D01*
X0113719Y0024899D01*
X0113935Y0025189D01*
X0114145Y0025485D01*
X0114347Y0025786D01*
X0114542Y0026091D01*
X0114730Y0026402D01*
X0114910Y0026716D01*
X0115082Y0027035D01*
X0115246Y0027358D01*
X0115403Y0027685D01*
X0115552Y0028016D01*
X0115693Y0028350D01*
X0115825Y0028687D01*
X0115950Y0029027D01*
X0116066Y0029371D01*
X0116174Y0029717D01*
X0116273Y0030065D01*
X0116364Y0030416D01*
X0116447Y0030769D01*
X0116521Y0031124D01*
X0116586Y0031481D01*
X0116643Y0031839D01*
X0116691Y0032198D01*
X0116730Y0032558D01*
X0116761Y0032919D01*
X0116782Y0033281D01*
X0116796Y0033644D01*
X0116800Y0034006D01*
X0116800Y0119006D01*
X0116784Y0120345D01*
X0116735Y0121684D01*
X0116653Y0123021D01*
X0116539Y0124355D01*
X0116393Y0125687D01*
X0116214Y0127014D01*
X0116003Y0128337D01*
X0115759Y0129654D01*
X0115484Y0130965D01*
X0115177Y0132268D01*
X0114838Y0133564D01*
X0114468Y0134851D01*
X0114067Y0136129D01*
X0113634Y0137397D01*
X0113171Y0138654D01*
X0112677Y0139899D01*
X0112153Y0141132D01*
X0111600Y0142351D01*
X0111016Y0143557D01*
X0110404Y0144748D01*
X0109763Y0145924D01*
X0109093Y0147084D01*
X0108395Y0148227D01*
X0107670Y0149353D01*
X0106917Y0150461D01*
X0106138Y0151551D01*
X0105332Y0152621D01*
X0104501Y0153671D01*
X0103644Y0154700D01*
X0102762Y0155709D01*
X0101857Y0156695D01*
X0100927Y0157659D01*
X0099974Y0158601D01*
X0098999Y0159519D01*
X0098001Y0160412D01*
X0096982Y0161282D01*
X0095942Y0162126D01*
X0094882Y0162944D01*
X0093802Y0163737D01*
X0092704Y0164503D01*
X0091586Y0165242D01*
X0090452Y0165954D01*
X0089300Y0166637D01*
X0088132Y0167293D01*
X0086948Y0167920D01*
X0085750Y0168518D01*
X0084537Y0169086D01*
X0083311Y0169625D01*
X0082072Y0170134D01*
X0080821Y0170612D01*
X0079558Y0171060D01*
X0078286Y0171477D01*
X0077003Y0171863D01*
X0075711Y0172218D01*
X0074411Y0172541D01*
X0073104Y0172832D01*
X0071790Y0173091D01*
X0070470Y0173318D01*
X0069145Y0173513D01*
X0067815Y0173676D01*
X0066482Y0173806D01*
X0065147Y0173904D01*
X0063809Y0173969D01*
X0062470Y0174002D01*
X0061130Y0174002D01*
X0059791Y0173969D01*
X0058453Y0173904D01*
X0057118Y0173806D01*
X0055785Y0173676D01*
X0054455Y0173513D01*
X0053130Y0173318D01*
X0051810Y0173091D01*
X0050496Y0172832D01*
X0049189Y0172541D01*
X0047889Y0172218D01*
X0046597Y0171863D01*
X0045314Y0171477D01*
X0044042Y0171060D01*
X0042779Y0170612D01*
X0041528Y0170134D01*
X0040289Y0169625D01*
X0039063Y0169086D01*
X0037850Y0168518D01*
X0036652Y0167920D01*
X0035468Y0167293D01*
X0034300Y0166637D01*
X0033148Y0165954D01*
X0032014Y0165242D01*
X0030896Y0164503D01*
X0029798Y0163737D01*
X0028718Y0162944D01*
X0027658Y0162126D01*
X0026618Y0161282D01*
X0025599Y0160412D01*
X0024601Y0159519D01*
X0023626Y0158601D01*
X0022673Y0157659D01*
X0021743Y0156695D01*
X0020838Y0155709D01*
X0019956Y0154700D01*
X0019099Y0153671D01*
X0018268Y0152621D01*
X0017462Y0151551D01*
X0016683Y0150461D01*
X0015930Y0149353D01*
X0015205Y0148227D01*
X0014507Y0147084D01*
X0013837Y0145924D01*
X0013196Y0144748D01*
X0012584Y0143557D01*
X0012000Y0142351D01*
X0011447Y0141132D01*
X0010923Y0139899D01*
X0010429Y0138654D01*
X0009966Y0137397D01*
X0009533Y0136129D01*
X0009132Y0134851D01*
X0008762Y0133564D01*
X0008423Y0132268D01*
X0008116Y0130965D01*
X0007841Y0129654D01*
X0007597Y0128337D01*
X0007386Y0127014D01*
X0007207Y0125687D01*
X0007061Y0124355D01*
X0006947Y0123021D01*
X0006865Y0121684D01*
X0006816Y0120345D01*
X0006800Y0119006D01*
X0006800Y0034006D01*
X0006804Y0033644D01*
X0006818Y0033281D01*
X0006839Y0032919D01*
X0006870Y0032558D01*
X0006909Y0032198D01*
X0006957Y0031839D01*
X0007014Y0031481D01*
X0007079Y0031124D01*
X0007153Y0030769D01*
X0007236Y0030416D01*
X0007327Y0030065D01*
X0007426Y0029717D01*
X0007534Y0029371D01*
X0007650Y0029027D01*
X0007775Y0028687D01*
X0007907Y0028350D01*
X0008048Y0028016D01*
X0008197Y0027685D01*
X0008354Y0027358D01*
X0008518Y0027035D01*
X0008690Y0026716D01*
X0008870Y0026402D01*
X0009058Y0026091D01*
X0009253Y0025786D01*
X0009455Y0025485D01*
X0009665Y0025189D01*
X0009881Y0024899D01*
X0010105Y0024613D01*
X0010335Y0024333D01*
X0010572Y0024059D01*
X0010816Y0023791D01*
X0011066Y0023528D01*
X0011322Y0023272D01*
X0011585Y0023022D01*
X0011853Y0022778D01*
X0012127Y0022541D01*
X0012407Y0022311D01*
X0012693Y0022087D01*
X0012983Y0021871D01*
X0013279Y0021661D01*
X0013580Y0021459D01*
X0013885Y0021264D01*
X0014196Y0021076D01*
X0014510Y0020896D01*
X0014829Y0020724D01*
X0015152Y0020560D01*
X0015479Y0020403D01*
X0015810Y0020254D01*
X0016144Y0020113D01*
X0016481Y0019981D01*
X0016821Y0019856D01*
X0017165Y0019740D01*
X0017511Y0019632D01*
X0017859Y0019533D01*
X0018210Y0019442D01*
X0018563Y0019359D01*
X0018918Y0019285D01*
X0019275Y0019220D01*
X0019633Y0019163D01*
X0019992Y0019115D01*
X0020352Y0019076D01*
X0020713Y0019045D01*
X0021075Y0019024D01*
X0021438Y0019010D01*
X0021800Y0019006D01*
X0059438Y0139163D02*
X0059440Y0139260D01*
X0059446Y0139357D01*
X0059456Y0139453D01*
X0059470Y0139549D01*
X0059488Y0139645D01*
X0059509Y0139739D01*
X0059535Y0139833D01*
X0059564Y0139925D01*
X0059598Y0140016D01*
X0059634Y0140106D01*
X0059675Y0140194D01*
X0059719Y0140280D01*
X0059767Y0140365D01*
X0059818Y0140447D01*
X0059872Y0140528D01*
X0059930Y0140606D01*
X0059991Y0140681D01*
X0060054Y0140754D01*
X0060121Y0140825D01*
X0060191Y0140892D01*
X0060263Y0140957D01*
X0060338Y0141018D01*
X0060416Y0141077D01*
X0060495Y0141132D01*
X0060577Y0141184D01*
X0060661Y0141232D01*
X0060747Y0141277D01*
X0060835Y0141319D01*
X0060924Y0141357D01*
X0061015Y0141391D01*
X0061107Y0141421D01*
X0061200Y0141448D01*
X0061295Y0141470D01*
X0061390Y0141489D01*
X0061486Y0141504D01*
X0061582Y0141515D01*
X0061679Y0141522D01*
X0061776Y0141525D01*
X0061873Y0141524D01*
X0061970Y0141519D01*
X0062066Y0141510D01*
X0062162Y0141497D01*
X0062258Y0141480D01*
X0062353Y0141459D01*
X0062446Y0141435D01*
X0062539Y0141406D01*
X0062631Y0141374D01*
X0062721Y0141338D01*
X0062809Y0141299D01*
X0062896Y0141255D01*
X0062981Y0141209D01*
X0063064Y0141158D01*
X0063145Y0141105D01*
X0063223Y0141048D01*
X0063300Y0140988D01*
X0063373Y0140925D01*
X0063444Y0140859D01*
X0063512Y0140790D01*
X0063578Y0140718D01*
X0063640Y0140644D01*
X0063699Y0140567D01*
X0063755Y0140488D01*
X0063808Y0140406D01*
X0063858Y0140323D01*
X0063903Y0140237D01*
X0063946Y0140150D01*
X0063985Y0140061D01*
X0064020Y0139971D01*
X0064051Y0139879D01*
X0064078Y0139786D01*
X0064102Y0139692D01*
X0064122Y0139597D01*
X0064138Y0139501D01*
X0064150Y0139405D01*
X0064158Y0139308D01*
X0064162Y0139211D01*
X0064162Y0139115D01*
X0064158Y0139018D01*
X0064150Y0138921D01*
X0064138Y0138825D01*
X0064122Y0138729D01*
X0064102Y0138634D01*
X0064078Y0138540D01*
X0064051Y0138447D01*
X0064020Y0138355D01*
X0063985Y0138265D01*
X0063946Y0138176D01*
X0063903Y0138089D01*
X0063858Y0138003D01*
X0063808Y0137920D01*
X0063755Y0137838D01*
X0063699Y0137759D01*
X0063640Y0137682D01*
X0063578Y0137608D01*
X0063512Y0137536D01*
X0063444Y0137467D01*
X0063373Y0137401D01*
X0063300Y0137338D01*
X0063223Y0137278D01*
X0063145Y0137221D01*
X0063064Y0137168D01*
X0062981Y0137117D01*
X0062896Y0137071D01*
X0062809Y0137027D01*
X0062721Y0136988D01*
X0062631Y0136952D01*
X0062539Y0136920D01*
X0062446Y0136891D01*
X0062353Y0136867D01*
X0062258Y0136846D01*
X0062162Y0136829D01*
X0062066Y0136816D01*
X0061970Y0136807D01*
X0061873Y0136802D01*
X0061776Y0136801D01*
X0061679Y0136804D01*
X0061582Y0136811D01*
X0061486Y0136822D01*
X0061390Y0136837D01*
X0061295Y0136856D01*
X0061200Y0136878D01*
X0061107Y0136905D01*
X0061015Y0136935D01*
X0060924Y0136969D01*
X0060835Y0137007D01*
X0060747Y0137049D01*
X0060661Y0137094D01*
X0060577Y0137142D01*
X0060495Y0137194D01*
X0060416Y0137249D01*
X0060338Y0137308D01*
X0060263Y0137369D01*
X0060191Y0137434D01*
X0060121Y0137501D01*
X0060054Y0137572D01*
X0059991Y0137645D01*
X0059930Y0137720D01*
X0059872Y0137798D01*
X0059818Y0137879D01*
X0059767Y0137961D01*
X0059719Y0138046D01*
X0059675Y0138132D01*
X0059634Y0138220D01*
X0059598Y0138310D01*
X0059564Y0138401D01*
X0059535Y0138493D01*
X0059509Y0138587D01*
X0059488Y0138681D01*
X0059470Y0138777D01*
X0059456Y0138873D01*
X0059446Y0138969D01*
X0059440Y0139066D01*
X0059438Y0139163D01*
X0059438Y0166722D02*
X0059440Y0166819D01*
X0059446Y0166916D01*
X0059456Y0167012D01*
X0059470Y0167108D01*
X0059488Y0167204D01*
X0059509Y0167298D01*
X0059535Y0167392D01*
X0059564Y0167484D01*
X0059598Y0167575D01*
X0059634Y0167665D01*
X0059675Y0167753D01*
X0059719Y0167839D01*
X0059767Y0167924D01*
X0059818Y0168006D01*
X0059872Y0168087D01*
X0059930Y0168165D01*
X0059991Y0168240D01*
X0060054Y0168313D01*
X0060121Y0168384D01*
X0060191Y0168451D01*
X0060263Y0168516D01*
X0060338Y0168577D01*
X0060416Y0168636D01*
X0060495Y0168691D01*
X0060577Y0168743D01*
X0060661Y0168791D01*
X0060747Y0168836D01*
X0060835Y0168878D01*
X0060924Y0168916D01*
X0061015Y0168950D01*
X0061107Y0168980D01*
X0061200Y0169007D01*
X0061295Y0169029D01*
X0061390Y0169048D01*
X0061486Y0169063D01*
X0061582Y0169074D01*
X0061679Y0169081D01*
X0061776Y0169084D01*
X0061873Y0169083D01*
X0061970Y0169078D01*
X0062066Y0169069D01*
X0062162Y0169056D01*
X0062258Y0169039D01*
X0062353Y0169018D01*
X0062446Y0168994D01*
X0062539Y0168965D01*
X0062631Y0168933D01*
X0062721Y0168897D01*
X0062809Y0168858D01*
X0062896Y0168814D01*
X0062981Y0168768D01*
X0063064Y0168717D01*
X0063145Y0168664D01*
X0063223Y0168607D01*
X0063300Y0168547D01*
X0063373Y0168484D01*
X0063444Y0168418D01*
X0063512Y0168349D01*
X0063578Y0168277D01*
X0063640Y0168203D01*
X0063699Y0168126D01*
X0063755Y0168047D01*
X0063808Y0167965D01*
X0063858Y0167882D01*
X0063903Y0167796D01*
X0063946Y0167709D01*
X0063985Y0167620D01*
X0064020Y0167530D01*
X0064051Y0167438D01*
X0064078Y0167345D01*
X0064102Y0167251D01*
X0064122Y0167156D01*
X0064138Y0167060D01*
X0064150Y0166964D01*
X0064158Y0166867D01*
X0064162Y0166770D01*
X0064162Y0166674D01*
X0064158Y0166577D01*
X0064150Y0166480D01*
X0064138Y0166384D01*
X0064122Y0166288D01*
X0064102Y0166193D01*
X0064078Y0166099D01*
X0064051Y0166006D01*
X0064020Y0165914D01*
X0063985Y0165824D01*
X0063946Y0165735D01*
X0063903Y0165648D01*
X0063858Y0165562D01*
X0063808Y0165479D01*
X0063755Y0165397D01*
X0063699Y0165318D01*
X0063640Y0165241D01*
X0063578Y0165167D01*
X0063512Y0165095D01*
X0063444Y0165026D01*
X0063373Y0164960D01*
X0063300Y0164897D01*
X0063223Y0164837D01*
X0063145Y0164780D01*
X0063064Y0164727D01*
X0062981Y0164676D01*
X0062896Y0164630D01*
X0062809Y0164586D01*
X0062721Y0164547D01*
X0062631Y0164511D01*
X0062539Y0164479D01*
X0062446Y0164450D01*
X0062353Y0164426D01*
X0062258Y0164405D01*
X0062162Y0164388D01*
X0062066Y0164375D01*
X0061970Y0164366D01*
X0061873Y0164361D01*
X0061776Y0164360D01*
X0061679Y0164363D01*
X0061582Y0164370D01*
X0061486Y0164381D01*
X0061390Y0164396D01*
X0061295Y0164415D01*
X0061200Y0164437D01*
X0061107Y0164464D01*
X0061015Y0164494D01*
X0060924Y0164528D01*
X0060835Y0164566D01*
X0060747Y0164608D01*
X0060661Y0164653D01*
X0060577Y0164701D01*
X0060495Y0164753D01*
X0060416Y0164808D01*
X0060338Y0164867D01*
X0060263Y0164928D01*
X0060191Y0164993D01*
X0060121Y0165060D01*
X0060054Y0165131D01*
X0059991Y0165204D01*
X0059930Y0165279D01*
X0059872Y0165357D01*
X0059818Y0165438D01*
X0059767Y0165520D01*
X0059719Y0165605D01*
X0059675Y0165691D01*
X0059634Y0165779D01*
X0059598Y0165869D01*
X0059564Y0165960D01*
X0059535Y0166052D01*
X0059509Y0166146D01*
X0059488Y0166240D01*
X0059470Y0166336D01*
X0059456Y0166432D01*
X0059446Y0166528D01*
X0059440Y0166625D01*
X0059438Y0166722D01*
D17*
X0091800Y0104126D02*
X0091800Y0103886D01*
X0031800Y0089126D02*
X0031800Y0088886D01*
D18*
X0102239Y0069006D03*
D19*
X0102239Y0069029D03*
X0104171Y0070248D03*
X0104217Y0070294D03*
X0105160Y0072157D03*
X0104424Y0078114D03*
X0100882Y0073261D03*
X0100767Y0073100D03*
X0100767Y0071283D03*
X0097432Y0073376D03*
D20*
X0099698Y0076941D03*
X0102228Y0078045D03*
X0101423Y0073606D03*
X0103355Y0071053D03*
X0103792Y0069949D03*
X0102228Y0069052D03*
X0105241Y0072709D03*
D21*
X0106103Y0075469D03*
X0104286Y0077148D03*
X0104286Y0077194D03*
X0102193Y0077608D03*
X0102193Y0077654D03*
X0099870Y0075975D03*
X0099893Y0075883D03*
X0099893Y0075837D03*
X0099939Y0075676D03*
X0102239Y0069075D03*
D22*
X0102228Y0069098D03*
X0099123Y0070961D03*
X0100273Y0074411D03*
X0102113Y0076872D03*
X0102113Y0076918D03*
X0105839Y0074825D03*
X0105862Y0074848D03*
D23*
X0103056Y0070938D03*
X0102228Y0069121D03*
X0097697Y0072870D03*
X0102021Y0075860D03*
X0102021Y0075906D03*
X0102021Y0075952D03*
D24*
X0101998Y0075423D03*
X0101998Y0075400D03*
X0100411Y0074526D03*
X0102228Y0069144D03*
D25*
X0102216Y0069167D03*
X0105184Y0073721D03*
D26*
X0101998Y0070800D03*
X0102205Y0069190D03*
D27*
X0102205Y0069213D03*
D28*
X0102193Y0069236D03*
D29*
X0102205Y0069259D03*
X0105057Y0074066D03*
X0098295Y0072295D03*
D30*
X0098260Y0072479D03*
X0102216Y0073629D03*
X0102194Y0069282D03*
D31*
X0102194Y0069305D03*
X0098237Y0072640D03*
X0098237Y0072686D03*
D32*
X0102182Y0069328D03*
X0104988Y0074227D03*
D33*
X0102170Y0069351D03*
D34*
X0102170Y0069374D03*
D35*
X0102159Y0069397D03*
D36*
X0102148Y0069420D03*
D37*
X0102148Y0069443D03*
D38*
X0102136Y0069466D03*
D39*
X0102136Y0069489D03*
D40*
X0102124Y0069512D03*
D41*
X0102124Y0069535D03*
X0102791Y0075078D03*
D42*
X0102113Y0069558D03*
D43*
X0102101Y0069581D03*
D44*
X0102090Y0069604D03*
D45*
X0102090Y0069627D03*
D46*
X0102078Y0069650D03*
D47*
X0102067Y0069673D03*
D48*
X0102067Y0069696D03*
D49*
X0102055Y0069719D03*
D50*
X0102044Y0069742D03*
D51*
X0100859Y0069765D03*
X0098674Y0071536D03*
X0102009Y0075239D03*
D52*
X0098950Y0071168D03*
X0103343Y0069765D03*
D53*
X0103021Y0072410D03*
X0102009Y0075584D03*
X0102009Y0075653D03*
X0098812Y0071352D03*
X0100767Y0069788D03*
D54*
X0103447Y0069788D03*
X0103861Y0075170D03*
X0103907Y0075331D03*
X0103953Y0075492D03*
X0102136Y0077102D03*
X0102136Y0077171D03*
X0097582Y0072985D03*
D55*
X0100353Y0074480D03*
X0102032Y0075975D03*
X0102032Y0075998D03*
X0102032Y0076044D03*
X0105620Y0074457D03*
X0100675Y0069811D03*
D56*
X0100215Y0070018D03*
X0103504Y0069811D03*
X0100215Y0074365D03*
X0100077Y0075239D03*
X0100054Y0075262D03*
X0102170Y0077401D03*
X0102170Y0077447D03*
X0104217Y0076780D03*
X0104217Y0076757D03*
X0104217Y0076711D03*
X0104194Y0076665D03*
X0104194Y0076619D03*
X0104171Y0076504D03*
X0106034Y0075262D03*
D57*
X0105655Y0074503D03*
X0102044Y0076113D03*
X0102044Y0076159D03*
X0100618Y0069834D03*
D58*
X0103573Y0069834D03*
X0099916Y0075791D03*
D59*
X0102078Y0076504D03*
X0102078Y0076550D03*
X0102078Y0076573D03*
X0105735Y0074618D03*
X0100560Y0069857D03*
X0099020Y0071076D03*
D60*
X0097502Y0073123D03*
X0099824Y0076182D03*
X0099824Y0076205D03*
X0099802Y0076251D03*
X0099802Y0076297D03*
X0102216Y0077769D03*
X0104309Y0077355D03*
X0104309Y0077332D03*
X0105252Y0072962D03*
X0103620Y0069857D03*
D61*
X0100491Y0069880D03*
X0099088Y0071007D03*
X0097616Y0072939D03*
X0102102Y0076757D03*
X0102102Y0076780D03*
X0102102Y0076826D03*
X0103734Y0074526D03*
X0105252Y0073307D03*
X0105805Y0074733D03*
X0105827Y0074779D03*
D62*
X0105252Y0072893D03*
X0103666Y0069880D03*
X0102262Y0073905D03*
X0099755Y0076550D03*
X0099755Y0076573D03*
X0102216Y0077861D03*
D63*
X0102124Y0077056D03*
X0102124Y0077010D03*
X0103872Y0075216D03*
X0105873Y0074871D03*
X0105896Y0074917D03*
X0105252Y0073238D03*
X0100445Y0069903D03*
X0099180Y0070892D03*
X0099134Y0070938D03*
D64*
X0097478Y0073192D03*
X0099732Y0076688D03*
X0099732Y0076734D03*
X0104355Y0077585D03*
X0104355Y0077631D03*
X0105252Y0072824D03*
X0103711Y0069903D03*
D65*
X0100399Y0069926D03*
X0099157Y0070915D03*
X0097593Y0072962D03*
X0102124Y0076964D03*
X0102124Y0076987D03*
X0102124Y0077033D03*
X0103872Y0075193D03*
X0105873Y0074894D03*
X0105896Y0074940D03*
X0105920Y0074986D03*
X0105252Y0073261D03*
D66*
X0103757Y0069926D03*
X0102239Y0078022D03*
D67*
X0100353Y0069949D03*
D68*
X0100308Y0069972D03*
X0099273Y0070800D03*
X0102262Y0073882D03*
X0100123Y0075101D03*
X0100101Y0075147D03*
X0102148Y0077194D03*
X0102148Y0077240D03*
X0104080Y0076044D03*
X0104056Y0075929D03*
X0104034Y0075837D03*
X0104034Y0075814D03*
X0104010Y0075722D03*
X0103987Y0075630D03*
X0103987Y0075607D03*
X0103965Y0075561D03*
X0103965Y0075515D03*
X0103941Y0075469D03*
X0103941Y0075423D03*
X0103919Y0075354D03*
X0105942Y0075055D03*
X0105942Y0075032D03*
X0105966Y0075101D03*
X0105988Y0075147D03*
X0105252Y0073215D03*
X0103183Y0070961D03*
D69*
X0103838Y0069972D03*
X0105241Y0072640D03*
D70*
X0105252Y0073146D03*
X0106011Y0075216D03*
X0104171Y0076481D03*
X0104171Y0076527D03*
X0104194Y0076596D03*
X0104194Y0076642D03*
X0104217Y0076734D03*
X0102170Y0077378D03*
X0102170Y0077424D03*
X0100054Y0075285D03*
X0100077Y0075216D03*
X0097547Y0073031D03*
X0099364Y0070685D03*
X0100261Y0069995D03*
D71*
X0103022Y0073606D03*
X0105230Y0072617D03*
X0105230Y0072571D03*
X0103873Y0069995D03*
X0104402Y0077838D03*
X0102240Y0078160D03*
X0099663Y0077102D03*
D72*
X0099652Y0077194D03*
X0101354Y0073583D03*
X0103907Y0070018D03*
X0104390Y0077861D03*
D73*
X0104206Y0076688D03*
X0100020Y0075377D03*
X0099445Y0070616D03*
X0099491Y0070570D03*
X0100181Y0070041D03*
D74*
X0103930Y0070041D03*
D75*
X0102009Y0070662D03*
X0100146Y0070064D03*
X0100101Y0070087D03*
X0100031Y0070133D03*
X0099617Y0070455D03*
X0099571Y0070501D03*
X0097548Y0073054D03*
X0100009Y0075423D03*
X0099985Y0075515D03*
X0102194Y0077539D03*
X0104263Y0077033D03*
X0104263Y0076987D03*
X0104241Y0076918D03*
X0106080Y0075400D03*
X0106058Y0075354D03*
X0103849Y0074457D03*
X0105252Y0073100D03*
D76*
X0105218Y0072479D03*
X0103953Y0070064D03*
X0099629Y0077286D03*
X0097444Y0073307D03*
D77*
X0100009Y0074089D03*
X0101251Y0073537D03*
X0099617Y0077332D03*
X0099617Y0077355D03*
X0102239Y0078275D03*
X0105206Y0072433D03*
X0103987Y0070087D03*
D78*
X0105252Y0073077D03*
X0106058Y0075331D03*
X0104241Y0076895D03*
X0104241Y0076941D03*
X0104263Y0077010D03*
X0100192Y0074342D03*
X0100009Y0075446D03*
X0099985Y0075492D03*
X0099962Y0075584D03*
X0099548Y0070524D03*
X0099595Y0070478D03*
X0100077Y0070110D03*
D79*
X0101009Y0071053D03*
X0099997Y0074066D03*
X0103148Y0073560D03*
X0105195Y0072341D03*
X0104022Y0070110D03*
X0104413Y0077999D03*
D80*
X0104424Y0078022D03*
X0100974Y0071076D03*
X0099985Y0074043D03*
X0097432Y0073330D03*
X0099617Y0077401D03*
X0104056Y0070133D03*
D81*
X0103240Y0070984D03*
X0106069Y0075377D03*
X0104275Y0077056D03*
X0104275Y0077102D03*
X0102182Y0077585D03*
X0099928Y0075745D03*
X0099928Y0075699D03*
X0099951Y0075653D03*
X0099974Y0075538D03*
X0097536Y0073077D03*
X0099675Y0070409D03*
X0099721Y0070363D03*
X0099790Y0070317D03*
X0099836Y0070271D03*
X0099928Y0070202D03*
X0099997Y0070156D03*
D82*
X0100940Y0071099D03*
X0101101Y0073445D03*
X0099974Y0074020D03*
X0099606Y0077424D03*
X0099606Y0077470D03*
X0103470Y0071191D03*
X0104068Y0070156D03*
X0106253Y0075952D03*
X0104413Y0078045D03*
D83*
X0104275Y0077125D03*
X0104275Y0077079D03*
X0106092Y0075423D03*
X0105264Y0073054D03*
X0102182Y0077562D03*
X0099905Y0075814D03*
X0099928Y0075722D03*
X0099951Y0075630D03*
X0099951Y0075607D03*
X0099974Y0075561D03*
X0099652Y0070432D03*
X0099698Y0070386D03*
X0099813Y0070294D03*
X0099882Y0070248D03*
X0099905Y0070225D03*
X0099974Y0070179D03*
D84*
X0100928Y0073307D03*
X0100952Y0073330D03*
X0100998Y0073376D03*
X0103481Y0071214D03*
X0104102Y0070179D03*
X0105184Y0072226D03*
X0105184Y0072272D03*
X0104424Y0078068D03*
X0099595Y0077493D03*
D85*
X0102239Y0078367D03*
X0101020Y0073399D03*
X0100974Y0073353D03*
X0097432Y0073353D03*
X0104125Y0070202D03*
X0105184Y0072249D03*
D86*
X0105172Y0072180D03*
X0104160Y0070225D03*
X0103493Y0071237D03*
X0103240Y0073514D03*
X0100848Y0073215D03*
X0099951Y0073997D03*
X0100802Y0071237D03*
X0100871Y0071168D03*
X0106276Y0075975D03*
X0102251Y0078390D03*
D87*
X0103252Y0073491D03*
X0103505Y0071260D03*
X0104195Y0070271D03*
X0105137Y0072088D03*
X0100791Y0071260D03*
X0100745Y0073077D03*
X0100791Y0073146D03*
X0100859Y0073238D03*
D88*
X0100687Y0072985D03*
X0100664Y0072916D03*
X0100641Y0072870D03*
X0100618Y0072824D03*
X0100595Y0072778D03*
X0100710Y0071352D03*
X0100756Y0071306D03*
X0103516Y0071306D03*
X0104252Y0070317D03*
X0105126Y0072042D03*
X0099583Y0077585D03*
D89*
X0099916Y0075768D03*
X0100170Y0074319D03*
X0099755Y0070340D03*
D90*
X0100652Y0071490D03*
X0100629Y0071536D03*
X0100606Y0071582D03*
X0100584Y0071651D03*
X0100560Y0071697D03*
X0100537Y0071812D03*
X0100514Y0071973D03*
X0100514Y0072019D03*
X0100514Y0072318D03*
X0100514Y0072364D03*
X0100514Y0072387D03*
X0100514Y0072433D03*
X0100537Y0072525D03*
X0100537Y0072548D03*
X0100560Y0072640D03*
X0100584Y0072732D03*
X0103343Y0073422D03*
X0103527Y0071329D03*
X0104309Y0070386D03*
X0104263Y0070340D03*
X0105114Y0071973D03*
X0102239Y0078436D03*
X0099571Y0077608D03*
D91*
X0099571Y0077631D03*
X0099916Y0073928D03*
X0100584Y0072709D03*
X0100560Y0072663D03*
X0100560Y0072617D03*
X0100537Y0072571D03*
X0100537Y0072502D03*
X0100514Y0072456D03*
X0100514Y0072410D03*
X0100514Y0072341D03*
X0100514Y0072295D03*
X0100514Y0071996D03*
X0100537Y0071835D03*
X0100560Y0071720D03*
X0100584Y0071628D03*
X0100606Y0071559D03*
X0100629Y0071513D03*
X0100652Y0071467D03*
X0100675Y0071421D03*
X0103320Y0073445D03*
X0103366Y0073399D03*
X0105114Y0071996D03*
X0104286Y0070363D03*
X0106287Y0076021D03*
X0097432Y0073399D03*
D92*
X0103539Y0071352D03*
X0104321Y0070409D03*
X0104436Y0078160D03*
D93*
X0103378Y0073376D03*
X0105103Y0071950D03*
X0105103Y0071904D03*
X0104367Y0070455D03*
X0104344Y0070432D03*
X0100595Y0071605D03*
X0100549Y0071743D03*
X0100549Y0071789D03*
X0100526Y0071858D03*
X0100526Y0071904D03*
X0100526Y0071950D03*
X0100503Y0072065D03*
X0100503Y0072111D03*
X0100503Y0072157D03*
X0100503Y0072180D03*
X0100503Y0072226D03*
X0100503Y0072272D03*
X0100526Y0072479D03*
X0099905Y0073905D03*
D94*
X0104378Y0070478D03*
D95*
X0104402Y0070501D03*
X0103551Y0071398D03*
X0103412Y0073330D03*
X0105091Y0071858D03*
X0105069Y0071812D03*
X0106287Y0076044D03*
D96*
X0104447Y0078252D03*
X0103527Y0073077D03*
X0103550Y0073031D03*
X0103550Y0072985D03*
X0103550Y0072916D03*
X0103573Y0071628D03*
X0103573Y0071559D03*
X0103573Y0071513D03*
X0104493Y0070616D03*
X0104424Y0070524D03*
X0105022Y0071674D03*
X0105045Y0071720D03*
X0099847Y0073813D03*
D97*
X0100043Y0075308D03*
X0100043Y0075354D03*
X0099997Y0075469D03*
X0102182Y0077493D03*
X0104229Y0076872D03*
X0104229Y0076826D03*
X0106046Y0075308D03*
X0105264Y0073123D03*
X0099514Y0070547D03*
X0099468Y0070593D03*
X0099422Y0070639D03*
X0099399Y0070662D03*
D98*
X0099859Y0073836D03*
X0097421Y0073422D03*
X0099560Y0077700D03*
X0103470Y0073261D03*
X0103493Y0073215D03*
X0103539Y0073054D03*
X0103562Y0072893D03*
X0103562Y0071490D03*
X0103562Y0071444D03*
X0104436Y0070547D03*
X0105034Y0071697D03*
X0105057Y0071789D03*
D99*
X0102021Y0070570D03*
X0104482Y0078528D03*
D100*
X0099548Y0077838D03*
X0099778Y0073652D03*
X0103642Y0070570D03*
D101*
X0104459Y0070570D03*
X0103562Y0071467D03*
X0105057Y0071766D03*
X0103516Y0073146D03*
X0103493Y0073192D03*
X0103470Y0073238D03*
X0103447Y0073284D03*
X0099560Y0077677D03*
D102*
X0099560Y0077723D03*
X0099836Y0073790D03*
X0102021Y0070593D03*
X0103585Y0071697D03*
X0103585Y0071743D03*
X0103585Y0071789D03*
X0103585Y0071812D03*
X0103585Y0071858D03*
X0103585Y0071904D03*
X0103585Y0071950D03*
X0103585Y0071973D03*
X0103585Y0072019D03*
X0103585Y0072065D03*
X0104942Y0071444D03*
X0104965Y0071490D03*
X0104528Y0070662D03*
D103*
X0103642Y0070593D03*
X0099364Y0072893D03*
X0099755Y0073629D03*
D104*
X0103504Y0073169D03*
X0103527Y0073123D03*
X0103527Y0073100D03*
X0103550Y0073008D03*
X0103550Y0072962D03*
X0103550Y0072939D03*
X0103573Y0071651D03*
X0103573Y0071605D03*
X0103573Y0071582D03*
X0103573Y0071536D03*
X0104470Y0070593D03*
X0104516Y0070639D03*
X0104999Y0071605D03*
X0105022Y0071651D03*
X0105045Y0071743D03*
X0104447Y0078229D03*
X0102239Y0078505D03*
D105*
X0099629Y0077309D03*
X0101285Y0073560D03*
X0102274Y0073928D03*
X0102021Y0070616D03*
X0105218Y0072456D03*
X0105218Y0072502D03*
D106*
X0103631Y0070616D03*
D107*
X0103320Y0071030D03*
X0102009Y0070639D03*
X0100123Y0074250D03*
X0099732Y0076665D03*
X0099732Y0076711D03*
X0102216Y0077930D03*
X0104355Y0077608D03*
X0106172Y0075676D03*
X0105252Y0072847D03*
D108*
X0103620Y0070662D03*
X0103620Y0070639D03*
X0099802Y0073698D03*
D109*
X0099100Y0070984D03*
X0101998Y0070685D03*
X0105241Y0073284D03*
X0105839Y0074802D03*
X0102113Y0076849D03*
X0102113Y0076895D03*
X0102113Y0076941D03*
D110*
X0099548Y0077792D03*
X0103620Y0070685D03*
D111*
X0104551Y0070685D03*
X0104574Y0070731D03*
X0104988Y0071559D03*
X0106299Y0076067D03*
X0102251Y0078528D03*
D112*
X0102159Y0077355D03*
X0102159Y0077332D03*
X0102159Y0077286D03*
X0104183Y0076573D03*
X0104183Y0076550D03*
X0104160Y0076458D03*
X0104160Y0076412D03*
X0104160Y0076389D03*
X0104137Y0076343D03*
X0104137Y0076297D03*
X0104114Y0076251D03*
X0104114Y0076205D03*
X0104114Y0076182D03*
X0104091Y0076136D03*
X0104091Y0076090D03*
X0104068Y0075998D03*
X0104068Y0075975D03*
X0104045Y0075883D03*
X0104022Y0075768D03*
X0103999Y0075676D03*
X0103815Y0074480D03*
X0105264Y0073169D03*
X0106000Y0075193D03*
X0100089Y0075193D03*
X0097559Y0073008D03*
X0099307Y0070754D03*
X0099353Y0070708D03*
D113*
X0098916Y0071214D03*
X0101998Y0070708D03*
X0105241Y0073422D03*
X0105632Y0074480D03*
X0102044Y0076090D03*
X0102044Y0076136D03*
X0102044Y0076182D03*
X0102044Y0076205D03*
D114*
X0104459Y0078298D03*
X0099813Y0073744D03*
X0103608Y0070754D03*
X0103608Y0070708D03*
X0104689Y0070915D03*
X0104712Y0070961D03*
X0104735Y0071007D03*
X0104758Y0071030D03*
X0104781Y0071076D03*
X0104804Y0071122D03*
X0104827Y0071168D03*
X0104850Y0071214D03*
X0104850Y0071237D03*
X0104873Y0071283D03*
X0104896Y0071329D03*
D115*
X0104988Y0071536D03*
X0104988Y0071582D03*
X0104551Y0070708D03*
D116*
X0105977Y0075124D03*
X0106000Y0075170D03*
X0104045Y0075860D03*
X0104045Y0075906D03*
X0104068Y0076021D03*
X0104091Y0076067D03*
X0104091Y0076113D03*
X0104114Y0076228D03*
X0104137Y0076274D03*
X0104137Y0076320D03*
X0104137Y0076366D03*
X0104160Y0076435D03*
X0104022Y0075791D03*
X0102159Y0077309D03*
X0100089Y0075170D03*
X0100112Y0075124D03*
X0099284Y0070777D03*
X0099330Y0070731D03*
D117*
X0098755Y0071421D03*
X0101998Y0070731D03*
D118*
X0103608Y0070731D03*
X0104643Y0070846D03*
X0104758Y0071053D03*
X0104781Y0071099D03*
X0104804Y0071145D03*
X0104827Y0071191D03*
X0099813Y0073721D03*
D119*
X0098709Y0071490D03*
X0101998Y0070754D03*
X0105195Y0073629D03*
X0101998Y0075262D03*
X0101998Y0075308D03*
D120*
X0102285Y0073951D03*
X0103596Y0070823D03*
X0103596Y0070800D03*
X0104585Y0070754D03*
X0104609Y0070800D03*
X0104631Y0070823D03*
X0104655Y0070869D03*
X0104908Y0071375D03*
X0104930Y0071398D03*
X0104448Y0078275D03*
X0102240Y0078551D03*
X0099548Y0077769D03*
D121*
X0098594Y0071674D03*
X0101998Y0070777D03*
D122*
X0103596Y0070777D03*
X0104609Y0070777D03*
X0104677Y0070892D03*
X0104701Y0070938D03*
X0104723Y0070984D03*
X0104862Y0071260D03*
X0104884Y0071306D03*
X0104908Y0071352D03*
X0104930Y0071421D03*
X0104953Y0071467D03*
X0099824Y0073767D03*
X0099319Y0072870D03*
X0097409Y0073445D03*
X0099548Y0077746D03*
D123*
X0100135Y0075055D03*
X0103884Y0075239D03*
X0103884Y0075262D03*
X0103930Y0075400D03*
X0099238Y0070823D03*
X0099192Y0070869D03*
D124*
X0101987Y0070823D03*
D125*
X0099215Y0070846D03*
X0103769Y0074503D03*
X0105908Y0074963D03*
X0105931Y0075009D03*
D126*
X0101987Y0070846D03*
D127*
X0103585Y0070846D03*
X0103585Y0071674D03*
X0103585Y0071720D03*
X0103585Y0071766D03*
X0103585Y0071835D03*
X0103585Y0071881D03*
X0103585Y0071927D03*
X0103585Y0071996D03*
X0103585Y0072042D03*
X0104965Y0071513D03*
X0105011Y0071628D03*
D128*
X0102355Y0070869D03*
D129*
X0102343Y0070892D03*
X0104873Y0074388D03*
D130*
X0104850Y0074411D03*
X0102320Y0070915D03*
D131*
X0101365Y0070938D03*
X0103872Y0074434D03*
X0105252Y0073031D03*
X0106103Y0075446D03*
X0104286Y0077171D03*
X0104286Y0077217D03*
X0102193Y0077631D03*
X0102193Y0077677D03*
X0099870Y0075952D03*
X0099893Y0075860D03*
D132*
X0099698Y0076918D03*
X0099698Y0076964D03*
X0102228Y0078068D03*
X0104367Y0077723D03*
X0104367Y0077700D03*
X0105241Y0072732D03*
X0101216Y0070961D03*
X0100089Y0074204D03*
X0097467Y0073215D03*
D133*
X0101170Y0070984D03*
X0105241Y0072663D03*
D134*
X0103412Y0071122D03*
X0101112Y0071007D03*
D135*
X0100135Y0074273D03*
X0099790Y0076343D03*
X0099790Y0076389D03*
X0099790Y0076412D03*
X0102205Y0077815D03*
X0104321Y0077401D03*
X0106138Y0075561D03*
X0105264Y0072939D03*
X0103286Y0071007D03*
D136*
X0105241Y0073330D03*
X0105770Y0074664D03*
X0105770Y0074687D03*
X0102090Y0076619D03*
X0102090Y0076665D03*
X0102090Y0076711D03*
X0099054Y0071030D03*
D137*
X0101055Y0071030D03*
X0103102Y0073583D03*
X0106230Y0075883D03*
X0104413Y0077930D03*
D138*
X0105712Y0074595D03*
X0102078Y0076481D03*
X0102078Y0076527D03*
X0098996Y0071099D03*
X0099042Y0071053D03*
X0097639Y0072916D03*
D139*
X0099675Y0077033D03*
X0099675Y0077079D03*
X0103378Y0071076D03*
X0104390Y0077815D03*
D140*
X0106230Y0075860D03*
X0103401Y0071099D03*
X0100043Y0074135D03*
X0097444Y0073284D03*
X0099652Y0077171D03*
X0099652Y0077217D03*
D141*
X0102067Y0076458D03*
X0102067Y0076412D03*
X0102067Y0076389D03*
X0100319Y0074457D03*
X0098985Y0071122D03*
X0105241Y0073376D03*
X0105701Y0074572D03*
D142*
X0103194Y0073537D03*
X0101124Y0073468D03*
X0101055Y0073422D03*
X0100917Y0071122D03*
X0099606Y0077447D03*
X0102251Y0078344D03*
D143*
X0102067Y0076435D03*
X0102067Y0076366D03*
X0102251Y0073859D03*
X0098962Y0071145D03*
X0105241Y0073353D03*
D144*
X0105172Y0072203D03*
X0104436Y0078091D03*
X0100917Y0073284D03*
X0100848Y0071191D03*
X0100894Y0071145D03*
X0099583Y0077516D03*
D145*
X0102239Y0078252D03*
X0104402Y0077953D03*
X0106241Y0075906D03*
X0105206Y0072410D03*
X0103435Y0071145D03*
D146*
X0103447Y0071168D03*
X0105195Y0072364D03*
X0105195Y0072387D03*
X0106253Y0075929D03*
X0104413Y0077976D03*
X0102251Y0078298D03*
X0101193Y0073514D03*
D147*
X0102055Y0076228D03*
X0102055Y0076274D03*
X0102055Y0076320D03*
X0098927Y0071191D03*
D148*
X0100825Y0071214D03*
D149*
X0098893Y0071237D03*
X0102021Y0075837D03*
X0102021Y0075883D03*
X0102021Y0075929D03*
X0105218Y0073468D03*
D150*
X0098870Y0071260D03*
D151*
X0098858Y0071283D03*
X0102009Y0075814D03*
D152*
X0103286Y0073468D03*
X0103516Y0071283D03*
X0105126Y0072019D03*
X0106276Y0075998D03*
X0104436Y0078137D03*
X0100779Y0073123D03*
X0100733Y0073054D03*
X0100710Y0073008D03*
X0100687Y0072962D03*
X0100664Y0072939D03*
X0100641Y0072893D03*
X0100618Y0072847D03*
X0100618Y0072801D03*
X0100595Y0072755D03*
X0100572Y0072686D03*
X0100549Y0072594D03*
X0100664Y0071444D03*
X0100687Y0071398D03*
X0100710Y0071375D03*
X0100733Y0071329D03*
X0099928Y0073951D03*
X0099583Y0077562D03*
D153*
X0098835Y0071306D03*
X0105229Y0073491D03*
X0105597Y0074434D03*
D154*
X0105218Y0073514D03*
X0103631Y0074572D03*
X0102251Y0073836D03*
X0102021Y0075722D03*
X0102021Y0075768D03*
X0098824Y0071329D03*
D155*
X0098790Y0071375D03*
X0102009Y0075607D03*
X0102009Y0075630D03*
X0102009Y0075676D03*
D156*
X0099882Y0073882D03*
X0103539Y0071375D03*
X0104436Y0078183D03*
D157*
X0105218Y0073537D03*
X0103010Y0072387D03*
X0103010Y0072364D03*
X0103010Y0072318D03*
X0103010Y0072272D03*
X0103010Y0072226D03*
X0103010Y0072180D03*
X0103010Y0072157D03*
X0103010Y0072111D03*
X0098778Y0071398D03*
D158*
X0099870Y0073859D03*
X0103551Y0071421D03*
X0105069Y0071835D03*
X0105091Y0071881D03*
X0104448Y0078206D03*
D159*
X0102009Y0075515D03*
X0102009Y0075469D03*
X0105206Y0073583D03*
X0098743Y0071444D03*
D160*
X0098720Y0071467D03*
X0103573Y0074595D03*
X0105206Y0073606D03*
D161*
X0098686Y0071513D03*
D162*
X0098663Y0071559D03*
X0100457Y0074549D03*
X0101998Y0075170D03*
X0101998Y0075216D03*
D163*
X0105184Y0073698D03*
X0098652Y0071582D03*
D164*
X0098628Y0071605D03*
D165*
X0098617Y0071628D03*
D166*
X0098605Y0071651D03*
X0102239Y0073790D03*
D167*
X0103401Y0073353D03*
X0105103Y0071927D03*
X0100572Y0071674D03*
X0100549Y0071766D03*
X0100526Y0071881D03*
X0100526Y0071927D03*
X0100503Y0072042D03*
X0100503Y0072088D03*
X0100503Y0072134D03*
X0100503Y0072203D03*
X0100503Y0072249D03*
X0102251Y0078459D03*
D168*
X0105172Y0073744D03*
X0098571Y0071697D03*
D169*
X0098559Y0071720D03*
D170*
X0098548Y0071743D03*
D171*
X0098537Y0071766D03*
X0102239Y0073767D03*
D172*
X0098525Y0071789D03*
D173*
X0098513Y0071812D03*
D174*
X0098490Y0071835D03*
D175*
X0098479Y0071858D03*
X0105149Y0073836D03*
D176*
X0105137Y0073859D03*
X0098467Y0071881D03*
D177*
X0098456Y0071904D03*
X0105126Y0073882D03*
D178*
X0098445Y0071927D03*
D179*
X0098433Y0071950D03*
X0105126Y0073905D03*
D180*
X0098421Y0071973D03*
D181*
X0098421Y0071996D03*
X0105114Y0073928D03*
D182*
X0098398Y0072019D03*
D183*
X0098387Y0072042D03*
X0102228Y0073721D03*
D184*
X0105114Y0073951D03*
X0098375Y0072065D03*
D185*
X0100813Y0073169D03*
X0099595Y0077539D03*
X0105137Y0072111D03*
X0105137Y0072065D03*
D186*
X0105103Y0073974D03*
X0098364Y0072088D03*
D187*
X0103010Y0072088D03*
X0103010Y0072134D03*
X0103010Y0072203D03*
X0103010Y0072249D03*
X0103010Y0072295D03*
X0103010Y0072341D03*
X0105218Y0073560D03*
D188*
X0100664Y0074618D03*
X0098364Y0072111D03*
D189*
X0098352Y0072134D03*
D190*
X0099939Y0073974D03*
X0100721Y0073031D03*
X0102239Y0078413D03*
X0105160Y0072134D03*
D191*
X0102228Y0073698D03*
X0098341Y0072180D03*
X0098341Y0072157D03*
D192*
X0098330Y0072203D03*
X0105091Y0074020D03*
D193*
X0105080Y0074043D03*
X0098318Y0072226D03*
D194*
X0098306Y0072249D03*
D195*
X0098306Y0072272D03*
D196*
X0101159Y0073491D03*
X0105184Y0072295D03*
D197*
X0098295Y0072318D03*
D198*
X0105184Y0072318D03*
D199*
X0098284Y0072341D03*
D200*
X0098284Y0072364D03*
D201*
X0098272Y0072387D03*
X0105057Y0074089D03*
D202*
X0098272Y0072410D03*
D203*
X0098272Y0072433D03*
D204*
X0098260Y0072456D03*
X0098260Y0072502D03*
D205*
X0098249Y0072525D03*
X0098249Y0072548D03*
D206*
X0100031Y0074112D03*
X0099640Y0077240D03*
X0102239Y0078229D03*
X0104401Y0077907D03*
X0105229Y0072548D03*
X0105229Y0072525D03*
D207*
X0098237Y0072571D03*
D208*
X0098237Y0072594D03*
X0105022Y0074158D03*
D209*
X0105230Y0072594D03*
X0106219Y0075814D03*
X0106219Y0075837D03*
X0102240Y0078137D03*
X0102240Y0078183D03*
X0099663Y0077148D03*
X0099663Y0077125D03*
X0100055Y0074158D03*
X0097455Y0073261D03*
D210*
X0098249Y0072617D03*
X0105011Y0074181D03*
D211*
X0098237Y0072663D03*
D212*
X0099686Y0076987D03*
X0102239Y0078114D03*
X0104378Y0077769D03*
X0106195Y0075768D03*
X0105229Y0072686D03*
D213*
X0098226Y0072709D03*
D214*
X0098237Y0072732D03*
X0098237Y0072755D03*
X0104999Y0074204D03*
D215*
X0105252Y0072755D03*
X0099709Y0076826D03*
X0099709Y0076872D03*
D216*
X0098237Y0072778D03*
D217*
X0099709Y0076849D03*
X0099709Y0076895D03*
X0106195Y0075745D03*
X0105252Y0072778D03*
D218*
X0098226Y0072801D03*
D219*
X0099721Y0076757D03*
X0099721Y0076780D03*
X0102228Y0077976D03*
X0104367Y0077654D03*
X0106184Y0075722D03*
X0105241Y0072801D03*
D220*
X0098237Y0072824D03*
D221*
X0098237Y0072847D03*
D222*
X0097502Y0073146D03*
X0099755Y0076527D03*
X0102216Y0077838D03*
X0102216Y0077884D03*
X0105252Y0072916D03*
X0105252Y0072870D03*
D223*
X0105666Y0074526D03*
X0102055Y0076251D03*
X0102055Y0076297D03*
X0102055Y0076343D03*
X0097662Y0072893D03*
D224*
X0099399Y0072916D03*
X0099744Y0073606D03*
X0102251Y0078620D03*
X0104459Y0078367D03*
X0106322Y0076113D03*
D225*
X0104459Y0078390D03*
X0102251Y0078643D03*
X0099721Y0073537D03*
X0099721Y0073514D03*
X0099422Y0072939D03*
D226*
X0099434Y0072962D03*
X0099686Y0073468D03*
X0099525Y0077907D03*
D227*
X0097409Y0073491D03*
X0099456Y0072985D03*
D228*
X0100158Y0074296D03*
X0099882Y0075906D03*
X0099836Y0076113D03*
X0102205Y0077746D03*
X0106115Y0075492D03*
X0105264Y0072985D03*
D229*
X0099675Y0073422D03*
X0099468Y0073008D03*
D230*
X0099882Y0075929D03*
X0099836Y0076090D03*
X0099836Y0076136D03*
X0102205Y0077700D03*
X0102205Y0077723D03*
X0106115Y0075515D03*
X0105264Y0073008D03*
X0097513Y0073100D03*
D231*
X0099480Y0073031D03*
X0099502Y0073077D03*
X0099641Y0073353D03*
X0099663Y0073399D03*
D232*
X0099502Y0073054D03*
X0104470Y0078436D03*
X0106334Y0076136D03*
D233*
X0099525Y0077930D03*
X0099617Y0073307D03*
X0099525Y0073100D03*
D234*
X0099537Y0073123D03*
X0099560Y0073169D03*
X0099583Y0073215D03*
X0099606Y0073261D03*
X0099629Y0073330D03*
X0102251Y0078689D03*
D235*
X0099606Y0073284D03*
X0099583Y0073238D03*
X0099560Y0073192D03*
X0099537Y0073146D03*
D236*
X0097490Y0073169D03*
X0099767Y0076504D03*
X0099744Y0076619D03*
X0102228Y0077907D03*
X0104344Y0077562D03*
X0104344Y0077539D03*
X0106161Y0075630D03*
D237*
X0100825Y0073192D03*
D238*
X0100238Y0074388D03*
X0100123Y0075078D03*
X0102148Y0077217D03*
X0102148Y0077263D03*
X0104102Y0076159D03*
X0104056Y0075952D03*
X0104010Y0075745D03*
X0104010Y0075699D03*
X0103987Y0075653D03*
X0103965Y0075584D03*
X0103965Y0075538D03*
X0103941Y0075446D03*
X0103919Y0075377D03*
X0103895Y0075285D03*
X0105966Y0075078D03*
X0105252Y0073192D03*
D239*
X0104378Y0077746D03*
X0102239Y0078091D03*
X0099686Y0077010D03*
X0100077Y0074181D03*
X0097455Y0073238D03*
D240*
X0099571Y0077654D03*
X0102239Y0078482D03*
X0103435Y0073307D03*
D241*
X0099652Y0073376D03*
D242*
X0103688Y0074549D03*
X0105229Y0073399D03*
X0105689Y0074549D03*
D243*
X0099675Y0073445D03*
D244*
X0102032Y0076021D03*
X0102032Y0076067D03*
X0105230Y0073445D03*
D245*
X0102251Y0078597D03*
X0099537Y0077815D03*
X0099790Y0073675D03*
X0097421Y0073468D03*
D246*
X0099698Y0073491D03*
X0099537Y0077884D03*
D247*
X0097421Y0073514D03*
D248*
X0097409Y0073537D03*
D249*
X0099732Y0073560D03*
D250*
X0099744Y0073583D03*
X0099537Y0077861D03*
D251*
X0102216Y0073652D03*
D252*
X0105184Y0073652D03*
D253*
X0102216Y0073675D03*
D254*
X0101998Y0075193D03*
X0105195Y0073675D03*
D255*
X0102228Y0073744D03*
D256*
X0105160Y0073767D03*
D257*
X0105160Y0073790D03*
X0103459Y0074618D03*
D258*
X0102251Y0073813D03*
X0101998Y0075285D03*
X0101998Y0075331D03*
D259*
X0105149Y0073813D03*
D260*
X0105091Y0073997D03*
D261*
X0105045Y0074112D03*
D262*
X0105034Y0074135D03*
D263*
X0106184Y0075699D03*
X0104367Y0077677D03*
X0102228Y0077953D03*
X0102228Y0077999D03*
X0099721Y0076803D03*
X0100112Y0074227D03*
D264*
X0104977Y0074250D03*
D265*
X0104965Y0074273D03*
D266*
X0104942Y0074296D03*
D267*
X0104930Y0074319D03*
D268*
X0104908Y0074342D03*
D269*
X0104884Y0074365D03*
D270*
X0105747Y0074641D03*
X0102090Y0076596D03*
X0102090Y0076642D03*
X0102090Y0076688D03*
X0100296Y0074434D03*
D271*
X0100388Y0074503D03*
X0102021Y0075699D03*
X0102021Y0075745D03*
X0102021Y0075791D03*
D272*
X0100514Y0074572D03*
D273*
X0100572Y0074595D03*
D274*
X0101998Y0074641D03*
D275*
X0101998Y0074664D03*
D276*
X0101986Y0074687D03*
X0101986Y0074733D03*
D277*
X0101986Y0074756D03*
X0101986Y0074710D03*
D278*
X0102102Y0076734D03*
X0102102Y0076803D03*
X0105805Y0074756D03*
X0105781Y0074710D03*
D279*
X0101998Y0074779D03*
D280*
X0101986Y0074802D03*
X0101986Y0074871D03*
D281*
X0101986Y0074848D03*
X0101986Y0074825D03*
D282*
X0101998Y0074894D03*
D283*
X0101987Y0074917D03*
X0101987Y0074963D03*
D284*
X0101987Y0074986D03*
X0101987Y0074940D03*
D285*
X0101998Y0075009D03*
D286*
X0101986Y0075032D03*
D287*
X0102791Y0075055D03*
X0102814Y0075147D03*
D288*
X0102803Y0075101D03*
D289*
X0102803Y0075124D03*
D290*
X0104252Y0076964D03*
X0106023Y0075239D03*
X0100020Y0075400D03*
D291*
X0100043Y0075331D03*
X0102182Y0077470D03*
X0102182Y0077516D03*
X0104229Y0076849D03*
X0104229Y0076803D03*
X0106046Y0075285D03*
D292*
X0103907Y0075308D03*
X0102136Y0077079D03*
X0102136Y0077125D03*
X0102136Y0077148D03*
D293*
X0102009Y0075354D03*
D294*
X0101998Y0075377D03*
X0101998Y0075446D03*
D295*
X0102009Y0075492D03*
X0102009Y0075538D03*
D296*
X0099824Y0076159D03*
X0099824Y0076228D03*
X0099802Y0076274D03*
X0099802Y0076320D03*
X0104309Y0077309D03*
X0106127Y0075538D03*
D297*
X0101998Y0075561D03*
D298*
X0102205Y0077792D03*
X0104321Y0077424D03*
X0104321Y0077378D03*
X0106138Y0075584D03*
X0099790Y0076366D03*
D299*
X0099778Y0076458D03*
X0104332Y0077447D03*
X0104332Y0077493D03*
X0106149Y0075607D03*
D300*
X0106161Y0075653D03*
X0104344Y0077516D03*
X0099744Y0076642D03*
X0099744Y0076596D03*
D301*
X0099675Y0077056D03*
X0104390Y0077792D03*
X0106207Y0075791D03*
D302*
X0104298Y0077240D03*
X0104298Y0077286D03*
X0099859Y0076044D03*
X0099859Y0075998D03*
D303*
X0099859Y0076021D03*
X0099859Y0076067D03*
X0104298Y0077263D03*
D304*
X0106310Y0076090D03*
D305*
X0106356Y0076159D03*
D306*
X0104332Y0077470D03*
X0099778Y0076481D03*
X0099778Y0076435D03*
D307*
X0099640Y0077263D03*
X0102239Y0078206D03*
X0104401Y0077884D03*
D308*
X0102239Y0078321D03*
X0099617Y0077378D03*
D309*
X0099525Y0077953D03*
D310*
X0099526Y0077976D03*
D311*
X0099514Y0077999D03*
D312*
X0099514Y0078022D03*
D313*
X0099514Y0078045D03*
D314*
X0104459Y0078321D03*
D315*
X0104459Y0078344D03*
D316*
X0104459Y0078413D03*
X0102251Y0078666D03*
D317*
X0104482Y0078459D03*
D318*
X0104482Y0078482D03*
D319*
X0104470Y0078505D03*
X0102262Y0078758D03*
D320*
X0104493Y0078551D03*
D321*
X0102239Y0078574D03*
D322*
X0102251Y0078712D03*
D323*
X0102262Y0078735D03*
D324*
X0102274Y0078781D03*
D325*
X0102274Y0078804D03*
D326*
X0103360Y0055366D03*
X0103360Y0055346D03*
X0103360Y0055306D03*
X0103360Y0055266D03*
X0103360Y0055246D03*
X0103360Y0055206D03*
X0103360Y0055166D03*
X0103360Y0055146D03*
X0103360Y0055106D03*
X0103360Y0055066D03*
X0103360Y0055046D03*
X0103360Y0055006D03*
X0103360Y0054966D03*
X0103360Y0054946D03*
X0103360Y0054906D03*
X0103360Y0054866D03*
X0103360Y0054846D03*
X0103360Y0054806D03*
X0103360Y0054766D03*
X0103360Y0054746D03*
X0103000Y0054846D03*
X0103000Y0054866D03*
X0103000Y0054906D03*
X0102980Y0055006D03*
X0102980Y0055046D03*
X0102980Y0054746D03*
X0102980Y0054706D03*
X0102400Y0054666D03*
X0102380Y0054706D03*
X0102380Y0054746D03*
X0102380Y0054766D03*
X0102380Y0054806D03*
X0102380Y0054846D03*
X0102380Y0054866D03*
X0102380Y0054906D03*
X0102380Y0054946D03*
X0102380Y0054966D03*
X0102380Y0055006D03*
X0102400Y0055046D03*
X0102400Y0055066D03*
X0102060Y0054706D03*
X0102060Y0054666D03*
X0102060Y0054646D03*
X0101760Y0054346D03*
X0101480Y0054606D03*
X0101380Y0054206D03*
X0101380Y0054166D03*
X0101380Y0054146D03*
X0101380Y0054106D03*
X0101380Y0054066D03*
X0101380Y0054046D03*
X0101380Y0054006D03*
X0101380Y0053966D03*
X0101380Y0053946D03*
X0101380Y0053906D03*
X0101380Y0053866D03*
X0101380Y0053846D03*
X0101380Y0053806D03*
X0101700Y0053806D03*
X0101720Y0053746D03*
X0101720Y0053706D03*
X0101740Y0053666D03*
X0101740Y0053646D03*
X0101760Y0053606D03*
X0101760Y0053566D03*
X0101780Y0053546D03*
X0101780Y0053506D03*
X0101800Y0053466D03*
X0101800Y0053446D03*
X0101380Y0053446D03*
X0101380Y0053466D03*
X0101380Y0053406D03*
X0101380Y0053366D03*
X0101380Y0053346D03*
X0101380Y0053306D03*
X0101380Y0053266D03*
X0101380Y0053246D03*
X0101380Y0053206D03*
X0101380Y0053166D03*
X0101380Y0053146D03*
X0101380Y0052806D03*
X0102000Y0052846D03*
X0102000Y0052866D03*
X0102600Y0052846D03*
X0102760Y0053346D03*
X0102760Y0053366D03*
X0102800Y0053506D03*
X0102820Y0053546D03*
X0102820Y0053566D03*
X0102840Y0053606D03*
X0102840Y0053646D03*
X0102860Y0053666D03*
X0102860Y0053706D03*
X0102880Y0053746D03*
X0102880Y0053766D03*
X0102300Y0053706D03*
X0103120Y0053166D03*
X0103120Y0053066D03*
X0103120Y0053046D03*
X0103700Y0053066D03*
X0103700Y0053106D03*
X0103700Y0053146D03*
X0103700Y0053506D03*
X0103700Y0053546D03*
X0104120Y0053406D03*
X0104120Y0053366D03*
X0104120Y0053346D03*
X0104120Y0053306D03*
X0104120Y0053266D03*
X0104120Y0053246D03*
X0104120Y0053206D03*
X0104120Y0053166D03*
X0104120Y0053146D03*
X0104120Y0053106D03*
X0104120Y0053066D03*
X0104120Y0053046D03*
X0104120Y0053006D03*
X0104120Y0052966D03*
X0104120Y0052946D03*
X0104120Y0052906D03*
X0104120Y0052866D03*
X0104120Y0052846D03*
X0104120Y0052806D03*
X0104820Y0053106D03*
X0104820Y0053506D03*
X0105400Y0053466D03*
X0105400Y0053446D03*
X0105040Y0054706D03*
X0105020Y0054746D03*
X0105020Y0054766D03*
X0105020Y0054806D03*
X0105020Y0054846D03*
X0105020Y0054866D03*
X0105020Y0054906D03*
X0105020Y0054946D03*
X0105020Y0054966D03*
X0105040Y0055006D03*
X0104380Y0055006D03*
X0104380Y0055046D03*
X0104380Y0054966D03*
X0104380Y0054946D03*
X0104380Y0054906D03*
X0104380Y0054866D03*
X0104380Y0054846D03*
X0104380Y0054806D03*
X0104380Y0054766D03*
X0104380Y0054746D03*
X0104380Y0054706D03*
X0104380Y0054666D03*
X0104380Y0054646D03*
X0104380Y0054606D03*
X0104380Y0054566D03*
X0104380Y0054546D03*
X0104380Y0054506D03*
X0104380Y0054466D03*
X0104380Y0054446D03*
X0104380Y0054406D03*
X0104380Y0054366D03*
X0103960Y0054366D03*
X0103960Y0054746D03*
X0103960Y0054766D03*
X0103960Y0054806D03*
X0103960Y0054846D03*
X0103960Y0054866D03*
X0103960Y0054906D03*
X0103960Y0054946D03*
X0103960Y0054966D03*
X0103960Y0055006D03*
X0103960Y0055046D03*
X0103960Y0055066D03*
X0103960Y0055106D03*
X0103960Y0055146D03*
X0103960Y0055166D03*
X0103960Y0055206D03*
X0103960Y0055246D03*
X0103960Y0055266D03*
X0103960Y0055306D03*
X0103960Y0055346D03*
X0103960Y0055366D03*
X0104380Y0055366D03*
X0104380Y0055346D03*
X0105880Y0055006D03*
X0105900Y0055066D03*
X0105920Y0055106D03*
X0105880Y0054746D03*
X0105900Y0054666D03*
X0106460Y0055066D03*
X0104120Y0053806D03*
X0104120Y0053766D03*
X0101480Y0055046D03*
X0101480Y0055066D03*
X0101480Y0055106D03*
X0100680Y0055006D03*
X0100680Y0054966D03*
X0100680Y0054946D03*
X0100680Y0054906D03*
X0100680Y0054866D03*
X0100680Y0054846D03*
X0100680Y0054806D03*
X0100680Y0054766D03*
X0100680Y0054746D03*
X0100680Y0054706D03*
X0100680Y0054666D03*
X0100680Y0054646D03*
X0100680Y0054606D03*
X0100680Y0054566D03*
X0100680Y0054546D03*
X0100680Y0054506D03*
X0100680Y0054466D03*
X0100680Y0054446D03*
X0100680Y0054406D03*
X0100680Y0054366D03*
X0100680Y0054346D03*
X0100120Y0053806D03*
X0100120Y0053766D03*
X0100120Y0053446D03*
X0100120Y0053406D03*
X0100120Y0053366D03*
X0100120Y0053346D03*
X0100120Y0053306D03*
X0100120Y0053266D03*
X0100120Y0053246D03*
X0100120Y0053206D03*
X0100120Y0053166D03*
X0100120Y0053146D03*
X0100120Y0053106D03*
X0100120Y0053066D03*
X0100120Y0053046D03*
X0100120Y0053006D03*
X0100120Y0052966D03*
X0100120Y0052946D03*
X0100120Y0052906D03*
X0100120Y0052866D03*
X0100120Y0052846D03*
X0100120Y0052806D03*
X0099700Y0052806D03*
X0099700Y0053066D03*
X0099700Y0053106D03*
X0099700Y0053146D03*
X0099700Y0053166D03*
X0099700Y0053446D03*
X0099700Y0053466D03*
X0099700Y0053506D03*
X0099700Y0053546D03*
X0099120Y0053166D03*
X0099120Y0053046D03*
X0098760Y0053046D03*
X0098760Y0053066D03*
X0098760Y0053106D03*
X0098760Y0053146D03*
X0098760Y0053166D03*
X0098760Y0053206D03*
X0098760Y0053246D03*
X0098760Y0053266D03*
X0098760Y0053306D03*
X0098760Y0053346D03*
X0098760Y0053366D03*
X0098760Y0053406D03*
X0098760Y0053446D03*
X0098760Y0053466D03*
X0098760Y0053006D03*
X0098760Y0052966D03*
X0098760Y0052946D03*
X0098760Y0052906D03*
X0098760Y0052866D03*
X0098760Y0052846D03*
X0098760Y0052806D03*
X0098180Y0052806D03*
X0098180Y0052846D03*
X0098180Y0052866D03*
X0098180Y0052906D03*
X0098180Y0052946D03*
X0098180Y0052966D03*
X0098180Y0053006D03*
X0098180Y0053046D03*
X0098180Y0053066D03*
X0098180Y0053106D03*
X0098180Y0053146D03*
X0098180Y0053166D03*
X0098180Y0053206D03*
X0098180Y0053246D03*
X0098180Y0053266D03*
X0098180Y0053306D03*
X0098180Y0053346D03*
X0098180Y0053366D03*
X0098180Y0053406D03*
X0098180Y0053446D03*
X0098180Y0053466D03*
X0098180Y0053806D03*
X0098180Y0053846D03*
X0098180Y0053866D03*
X0098180Y0053906D03*
X0098180Y0053946D03*
X0098180Y0053966D03*
X0098180Y0054006D03*
X0098180Y0054046D03*
X0098180Y0054066D03*
X0098180Y0054106D03*
X0098180Y0054146D03*
X0098180Y0054166D03*
X0098180Y0054206D03*
X0098180Y0054246D03*
X0098180Y0054266D03*
X0098180Y0054306D03*
X0098180Y0054346D03*
X0098180Y0054366D03*
X0098180Y0054746D03*
X0098180Y0054766D03*
X0098180Y0054806D03*
X0098180Y0054846D03*
X0098180Y0054866D03*
X0098180Y0054906D03*
X0098180Y0054946D03*
X0098180Y0054966D03*
X0098180Y0055006D03*
X0098180Y0055346D03*
X0098180Y0055366D03*
X0097780Y0055066D03*
X0097800Y0055006D03*
X0097800Y0054966D03*
X0097800Y0054946D03*
X0097800Y0054906D03*
X0097800Y0054866D03*
X0097800Y0054846D03*
X0097800Y0054806D03*
X0097800Y0054766D03*
X0097800Y0054746D03*
X0097800Y0054706D03*
X0097780Y0054666D03*
X0097220Y0054666D03*
X0097220Y0055066D03*
X0098760Y0055006D03*
X0098760Y0054966D03*
X0098760Y0054946D03*
X0098760Y0054906D03*
X0098760Y0054846D03*
X0098760Y0054806D03*
X0098760Y0054766D03*
X0098760Y0054746D03*
X0098760Y0054706D03*
X0099120Y0054706D03*
X0099120Y0054666D03*
X0099140Y0054646D03*
X0099120Y0055046D03*
X0099700Y0055046D03*
X0099700Y0055066D03*
X0099720Y0055006D03*
X0100100Y0055006D03*
X0100100Y0055046D03*
X0100800Y0053466D03*
X0100800Y0053446D03*
X0100800Y0053406D03*
X0100800Y0053366D03*
X0100800Y0053346D03*
X0100800Y0053306D03*
X0100800Y0053266D03*
X0100800Y0053246D03*
X0100800Y0053206D03*
X0100800Y0053166D03*
X0100800Y0053146D03*
D327*
X0102000Y0053046D03*
X0102600Y0053046D03*
X0103360Y0052806D03*
X0104720Y0055346D03*
X0103020Y0056566D03*
X0100660Y0056566D03*
X0100440Y0055346D03*
X0099440Y0054366D03*
X0098540Y0055346D03*
X0099360Y0052806D03*
X0105140Y0052806D03*
D328*
X0104070Y0056206D03*
X0102930Y0054606D03*
X0101530Y0055006D03*
X0100670Y0056546D03*
X0099170Y0054606D03*
X0098530Y0055366D03*
X0098730Y0053546D03*
X0101030Y0052806D03*
D329*
X0102000Y0052806D03*
X0102140Y0053266D03*
X0102160Y0053346D03*
X0102440Y0053306D03*
X0102460Y0053246D03*
X0102300Y0053766D03*
X0099440Y0054346D03*
X0099600Y0056166D03*
X0100700Y0056506D03*
X0097200Y0054906D03*
X0097200Y0054866D03*
X0097200Y0054846D03*
X0097500Y0054346D03*
X0105360Y0054346D03*
D330*
X0105570Y0054606D03*
X0105890Y0054706D03*
X0105890Y0055046D03*
X0106470Y0055046D03*
X0106470Y0055006D03*
X0106210Y0054346D03*
X0104810Y0053466D03*
X0104810Y0053446D03*
X0104810Y0053166D03*
X0104810Y0053146D03*
X0103710Y0053166D03*
X0103710Y0053446D03*
X0103710Y0053466D03*
X0103710Y0052806D03*
X0103110Y0053106D03*
X0103110Y0053146D03*
X0102730Y0053246D03*
X0102730Y0053266D03*
X0102770Y0053406D03*
X0102790Y0053446D03*
X0102790Y0053466D03*
X0102430Y0053346D03*
X0102170Y0053366D03*
X0102130Y0053246D03*
X0101870Y0053246D03*
X0101830Y0053346D03*
X0101830Y0053366D03*
X0101810Y0053406D03*
X0102290Y0053746D03*
X0102690Y0054346D03*
X0102990Y0054766D03*
X0102990Y0054806D03*
X0102990Y0054946D03*
X0102990Y0054966D03*
X0101970Y0055146D03*
X0102590Y0052806D03*
X0104370Y0054346D03*
X0100090Y0054346D03*
X0100090Y0054366D03*
X0100090Y0054406D03*
X0100090Y0054446D03*
X0100090Y0054466D03*
X0100090Y0054506D03*
X0100090Y0054546D03*
X0100090Y0054566D03*
X0100090Y0054606D03*
X0100090Y0054646D03*
X0100090Y0054666D03*
X0100090Y0054706D03*
X0100090Y0054746D03*
X0100090Y0054766D03*
X0100090Y0054806D03*
X0100090Y0054846D03*
X0100090Y0054866D03*
X0100090Y0054906D03*
X0100090Y0054946D03*
X0100090Y0054966D03*
X0100090Y0055346D03*
X0100090Y0055366D03*
X0099130Y0055066D03*
X0099110Y0055006D03*
X0099110Y0054746D03*
X0098770Y0054866D03*
X0097210Y0054806D03*
X0097210Y0054766D03*
X0097210Y0054746D03*
X0097210Y0054706D03*
X0097210Y0054946D03*
X0097210Y0054966D03*
X0097210Y0055006D03*
X0097210Y0055046D03*
X0099110Y0053146D03*
X0099110Y0053106D03*
X0099110Y0053066D03*
D331*
X0098760Y0053086D03*
X0098760Y0053126D03*
X0098760Y0053186D03*
X0098760Y0053226D03*
X0098760Y0053286D03*
X0098760Y0053326D03*
X0098760Y0053386D03*
X0098760Y0053426D03*
X0098760Y0053486D03*
X0098760Y0053026D03*
X0098760Y0052986D03*
X0098760Y0052926D03*
X0098760Y0052886D03*
X0098760Y0052826D03*
X0098180Y0052826D03*
X0098180Y0052886D03*
X0098180Y0052926D03*
X0098180Y0052986D03*
X0098180Y0053026D03*
X0098180Y0053086D03*
X0098180Y0053126D03*
X0098180Y0053186D03*
X0098180Y0053226D03*
X0098180Y0053286D03*
X0098180Y0053326D03*
X0098180Y0053386D03*
X0098180Y0053426D03*
X0098180Y0053786D03*
X0098180Y0053826D03*
X0098180Y0053886D03*
X0098180Y0053926D03*
X0098180Y0053986D03*
X0098180Y0054026D03*
X0098180Y0054086D03*
X0098180Y0054126D03*
X0098180Y0054186D03*
X0098180Y0054226D03*
X0098180Y0054286D03*
X0098180Y0054326D03*
X0098180Y0054386D03*
X0098180Y0054726D03*
X0098180Y0054786D03*
X0098180Y0054826D03*
X0098180Y0054886D03*
X0098180Y0054926D03*
X0098180Y0054986D03*
X0097800Y0054986D03*
X0097800Y0055026D03*
X0097800Y0054926D03*
X0097800Y0054886D03*
X0097800Y0054826D03*
X0097800Y0054786D03*
X0097800Y0054726D03*
X0098760Y0054726D03*
X0098760Y0054786D03*
X0098760Y0054826D03*
X0098760Y0054886D03*
X0098760Y0054926D03*
X0098760Y0054986D03*
X0098760Y0055026D03*
X0099120Y0055026D03*
X0099120Y0054986D03*
X0099140Y0055086D03*
X0099120Y0054726D03*
X0099120Y0054686D03*
X0099640Y0054586D03*
X0099700Y0055026D03*
X0100100Y0055026D03*
X0100680Y0055026D03*
X0100680Y0054986D03*
X0100680Y0054926D03*
X0100680Y0054886D03*
X0100680Y0054826D03*
X0100680Y0054786D03*
X0100680Y0054726D03*
X0100680Y0054686D03*
X0100680Y0054626D03*
X0100680Y0054586D03*
X0100680Y0054526D03*
X0100680Y0054486D03*
X0100680Y0054426D03*
X0100680Y0054386D03*
X0101380Y0054186D03*
X0101380Y0054126D03*
X0101380Y0054086D03*
X0101380Y0054026D03*
X0101380Y0053986D03*
X0101380Y0053926D03*
X0101380Y0053886D03*
X0101380Y0053826D03*
X0101380Y0053786D03*
X0101700Y0053786D03*
X0101720Y0053726D03*
X0101740Y0053626D03*
X0101760Y0053586D03*
X0101780Y0053526D03*
X0101820Y0053386D03*
X0101840Y0053326D03*
X0101380Y0053326D03*
X0101380Y0053286D03*
X0101380Y0053226D03*
X0101380Y0053186D03*
X0101380Y0053386D03*
X0101380Y0053426D03*
X0100800Y0053426D03*
X0100800Y0053386D03*
X0100800Y0053326D03*
X0100800Y0053286D03*
X0100800Y0053226D03*
X0100800Y0053186D03*
X0100120Y0053186D03*
X0100120Y0053226D03*
X0100120Y0053286D03*
X0100120Y0053326D03*
X0100120Y0053386D03*
X0100120Y0053426D03*
X0100120Y0053126D03*
X0100120Y0053086D03*
X0100120Y0053026D03*
X0100120Y0052986D03*
X0100120Y0052926D03*
X0100120Y0052886D03*
X0100120Y0052826D03*
X0099700Y0053086D03*
X0099700Y0053126D03*
X0099700Y0053186D03*
X0099700Y0053426D03*
X0099700Y0053486D03*
X0099700Y0053526D03*
X0100120Y0053786D03*
X0101380Y0052826D03*
X0102740Y0053286D03*
X0102780Y0053426D03*
X0102800Y0053486D03*
X0102820Y0053586D03*
X0102840Y0053626D03*
X0102860Y0053686D03*
X0103700Y0053526D03*
X0103700Y0053426D03*
X0103700Y0053126D03*
X0103700Y0053086D03*
X0104120Y0053086D03*
X0104120Y0053126D03*
X0104120Y0053186D03*
X0104120Y0053226D03*
X0104120Y0053286D03*
X0104120Y0053326D03*
X0104120Y0053386D03*
X0104120Y0053426D03*
X0104120Y0053786D03*
X0103960Y0054386D03*
X0103960Y0054726D03*
X0103960Y0054786D03*
X0103960Y0054826D03*
X0103960Y0054886D03*
X0103960Y0054926D03*
X0103960Y0054986D03*
X0103960Y0055026D03*
X0103960Y0055086D03*
X0103960Y0055126D03*
X0103960Y0055186D03*
X0103960Y0055226D03*
X0103960Y0055286D03*
X0103960Y0055326D03*
X0104380Y0055026D03*
X0104380Y0054986D03*
X0104380Y0054926D03*
X0104380Y0054886D03*
X0104380Y0054826D03*
X0104380Y0054786D03*
X0104380Y0054726D03*
X0104380Y0054686D03*
X0104380Y0054626D03*
X0104380Y0054586D03*
X0104380Y0054526D03*
X0104380Y0054486D03*
X0104380Y0054426D03*
X0104380Y0054386D03*
X0105040Y0054726D03*
X0105020Y0054786D03*
X0105020Y0054826D03*
X0105020Y0054886D03*
X0105020Y0054926D03*
X0105020Y0054986D03*
X0105040Y0055026D03*
X0105880Y0054986D03*
X0105880Y0054726D03*
X0105900Y0054686D03*
X0106400Y0054586D03*
X0106460Y0055086D03*
X0105400Y0053486D03*
X0105400Y0053426D03*
X0104840Y0053526D03*
X0104820Y0053486D03*
X0104800Y0053186D03*
X0104820Y0053126D03*
X0104840Y0053086D03*
X0104120Y0053026D03*
X0104120Y0052986D03*
X0104120Y0052926D03*
X0104120Y0052886D03*
X0104120Y0052826D03*
X0103360Y0054726D03*
X0103360Y0054786D03*
X0103360Y0054826D03*
X0103360Y0054886D03*
X0103360Y0054926D03*
X0103360Y0054986D03*
X0103360Y0055026D03*
X0103360Y0055086D03*
X0103360Y0055126D03*
X0103360Y0055186D03*
X0103360Y0055226D03*
X0103360Y0055286D03*
X0103360Y0055326D03*
X0102980Y0055026D03*
X0102980Y0054986D03*
X0103000Y0054886D03*
X0103000Y0054826D03*
X0102980Y0054726D03*
X0102980Y0054686D03*
X0102400Y0054686D03*
X0102380Y0054726D03*
X0102380Y0054786D03*
X0102380Y0054826D03*
X0102380Y0054886D03*
X0102380Y0054926D03*
X0102380Y0054986D03*
X0102380Y0055026D03*
X0102060Y0054686D03*
X0101480Y0055086D03*
X0101500Y0055126D03*
X0101760Y0055386D03*
X0099600Y0056186D03*
X0104080Y0056186D03*
D332*
X0104600Y0055326D03*
X0105360Y0054486D03*
X0104340Y0053686D03*
X0103480Y0052826D03*
X0102680Y0055226D03*
X0101780Y0055286D03*
X0101760Y0054886D03*
X0100320Y0055326D03*
X0099420Y0055226D03*
X0098400Y0055326D03*
X0097500Y0055226D03*
X0099480Y0052826D03*
X0100340Y0053686D03*
D333*
X0101030Y0052826D03*
X0101310Y0053026D03*
X0101990Y0053086D03*
X0102290Y0053486D03*
X0102590Y0053086D03*
X0105110Y0053786D03*
X0103030Y0056586D03*
X0100650Y0056586D03*
X0099630Y0061926D03*
X0104050Y0061926D03*
D334*
X0104070Y0061986D03*
X0099610Y0061986D03*
X0100090Y0055386D03*
X0100090Y0054986D03*
X0100090Y0054926D03*
X0100090Y0054886D03*
X0100090Y0054826D03*
X0100090Y0054786D03*
X0100090Y0054726D03*
X0100090Y0054686D03*
X0100090Y0054626D03*
X0100090Y0054586D03*
X0100090Y0054526D03*
X0100090Y0054486D03*
X0100090Y0054426D03*
X0100090Y0054386D03*
X0099390Y0053826D03*
X0099110Y0053126D03*
X0099110Y0053086D03*
X0098170Y0055386D03*
X0097490Y0055386D03*
X0097210Y0055026D03*
X0097210Y0054986D03*
X0097210Y0054926D03*
X0097210Y0054786D03*
X0097210Y0054726D03*
X0097210Y0054686D03*
X0101390Y0054226D03*
X0101790Y0053486D03*
X0101810Y0053426D03*
X0101870Y0053226D03*
X0102170Y0053386D03*
X0102430Y0053326D03*
X0102770Y0053386D03*
X0102810Y0053526D03*
X0103110Y0053126D03*
X0103110Y0053086D03*
X0102590Y0052826D03*
X0101990Y0052826D03*
X0102290Y0053726D03*
X0103390Y0053826D03*
X0103710Y0053486D03*
X0103710Y0053186D03*
X0104810Y0053426D03*
X0105330Y0053026D03*
X0105890Y0055026D03*
X0106470Y0055026D03*
X0106470Y0054986D03*
X0105370Y0055386D03*
X0104370Y0055386D03*
X0103370Y0055386D03*
X0102990Y0054926D03*
X0102990Y0054786D03*
X0102690Y0055386D03*
D335*
X0101990Y0053186D03*
X0099410Y0055326D03*
X0105130Y0052826D03*
X0106210Y0054386D03*
X0106190Y0055326D03*
D336*
X0104030Y0056366D03*
X0103470Y0053346D03*
X0103470Y0052846D03*
X0100330Y0055306D03*
X0099470Y0052846D03*
D337*
X0099480Y0053366D03*
X0098400Y0053766D03*
X0098400Y0054406D03*
X0097500Y0054506D03*
X0101160Y0053766D03*
X0101740Y0054446D03*
X0101800Y0054846D03*
X0101780Y0054866D03*
X0101740Y0054906D03*
X0102680Y0054506D03*
X0103740Y0054406D03*
X0103420Y0053706D03*
X0103480Y0053366D03*
X0104600Y0055266D03*
X0105360Y0055246D03*
X0105140Y0052906D03*
X0101160Y0052846D03*
D338*
X0099440Y0054406D03*
X0099420Y0055306D03*
X0099640Y0061866D03*
X0104040Y0061866D03*
X0106180Y0055306D03*
X0105140Y0052846D03*
D339*
X0105150Y0052946D03*
X0105110Y0053606D03*
X0105330Y0055146D03*
X0105370Y0055206D03*
X0106190Y0055166D03*
X0103710Y0054446D03*
X0103410Y0053666D03*
X0103430Y0053646D03*
X0102690Y0054546D03*
X0101770Y0055206D03*
X0101790Y0055246D03*
X0100350Y0055266D03*
X0099410Y0055166D03*
X0099410Y0054566D03*
X0099430Y0054546D03*
X0099450Y0054506D03*
X0099410Y0053666D03*
X0099450Y0052866D03*
X0098430Y0053706D03*
X0098430Y0054466D03*
X0098430Y0055266D03*
X0101130Y0053706D03*
X0101130Y0052906D03*
D340*
X0101150Y0052866D03*
X0101150Y0053746D03*
X0100350Y0053706D03*
X0099450Y0053606D03*
X0099410Y0053706D03*
X0098410Y0053746D03*
X0098410Y0055306D03*
X0099410Y0055206D03*
X0099650Y0056366D03*
X0101790Y0055266D03*
X0102690Y0055206D03*
X0103450Y0053606D03*
X0104350Y0053706D03*
X0105110Y0053646D03*
X0104610Y0055306D03*
X0106190Y0055206D03*
D341*
X0106450Y0055106D03*
X0105910Y0054646D03*
X0105070Y0054646D03*
X0105050Y0054666D03*
X0105050Y0055046D03*
X0105050Y0055066D03*
X0104390Y0055066D03*
X0103950Y0054706D03*
X0103390Y0054666D03*
X0103390Y0054646D03*
X0103370Y0054706D03*
X0102970Y0054666D03*
X0102970Y0054646D03*
X0102970Y0055066D03*
X0102950Y0055106D03*
X0102410Y0054646D03*
X0102890Y0053806D03*
X0102290Y0053666D03*
X0101710Y0053766D03*
X0101370Y0053506D03*
X0101370Y0053106D03*
X0100830Y0053066D03*
X0100810Y0053106D03*
X0100810Y0053506D03*
X0101030Y0053806D03*
X0100130Y0053506D03*
X0100130Y0053466D03*
X0099690Y0053566D03*
X0099690Y0053046D03*
X0098750Y0053506D03*
X0098530Y0053806D03*
X0098190Y0053506D03*
X0098190Y0054666D03*
X0098190Y0054706D03*
X0098190Y0055046D03*
X0098190Y0055066D03*
X0097790Y0055046D03*
X0097770Y0054646D03*
X0097230Y0054646D03*
X0098750Y0054646D03*
X0098750Y0054666D03*
X0098750Y0055046D03*
X0098750Y0055066D03*
X0099150Y0055106D03*
X0100110Y0055066D03*
X0100670Y0055066D03*
X0100670Y0055046D03*
X0102590Y0052906D03*
X0102590Y0052866D03*
X0103690Y0053046D03*
X0103690Y0053566D03*
X0104130Y0053466D03*
X0104130Y0053446D03*
X0104850Y0053546D03*
X0104850Y0053066D03*
X0105390Y0053506D03*
X0105370Y0053546D03*
D342*
X0105360Y0054506D03*
X0106180Y0054566D03*
X0106220Y0054506D03*
X0104360Y0053746D03*
X0103460Y0052866D03*
X0101740Y0054466D03*
X0101740Y0055166D03*
X0100360Y0053746D03*
X0099460Y0053346D03*
X0098420Y0054446D03*
D343*
X0099530Y0053406D03*
X0102690Y0054446D03*
X0103530Y0053406D03*
X0104550Y0055146D03*
X0105130Y0052866D03*
D344*
X0105360Y0055186D03*
X0103700Y0054486D03*
X0103440Y0053286D03*
X0101780Y0055226D03*
X0100360Y0055226D03*
X0099440Y0054526D03*
X0098440Y0054486D03*
X0098440Y0053686D03*
X0099440Y0052886D03*
X0101120Y0052926D03*
X0101120Y0053686D03*
X0097500Y0054586D03*
D345*
X0098420Y0055286D03*
X0099420Y0055186D03*
X0100340Y0055286D03*
X0100360Y0053726D03*
X0101140Y0053726D03*
X0101140Y0052886D03*
X0099440Y0053626D03*
X0098420Y0053726D03*
X0103440Y0053626D03*
X0103720Y0054426D03*
X0104360Y0053726D03*
X0105120Y0053626D03*
X0105140Y0052926D03*
X0105360Y0055226D03*
X0106180Y0055186D03*
X0104020Y0061786D03*
X0099660Y0061786D03*
D346*
X0100690Y0056526D03*
X0100110Y0055086D03*
X0099710Y0054986D03*
X0099690Y0055086D03*
X0099150Y0054626D03*
X0098750Y0054686D03*
X0098750Y0055086D03*
X0098190Y0055026D03*
X0098190Y0054686D03*
X0097790Y0054686D03*
X0097770Y0055086D03*
X0097230Y0055086D03*
X0098190Y0053486D03*
X0100130Y0053486D03*
X0100810Y0053486D03*
X0100810Y0053126D03*
X0100810Y0053086D03*
X0101370Y0053086D03*
X0101370Y0053126D03*
X0101370Y0053486D03*
X0101730Y0053686D03*
X0102290Y0053686D03*
X0102870Y0053726D03*
X0102890Y0053786D03*
X0102950Y0054626D03*
X0103370Y0054686D03*
X0102970Y0055086D03*
X0102410Y0055086D03*
X0102050Y0054726D03*
X0102050Y0054626D03*
X0101490Y0055026D03*
X0102990Y0056526D03*
X0103950Y0054686D03*
X0105050Y0054686D03*
X0105070Y0055086D03*
X0105910Y0055086D03*
X0105930Y0054626D03*
X0105390Y0053526D03*
X0104130Y0053486D03*
X0102590Y0052886D03*
X0101990Y0052886D03*
D347*
X0103450Y0052886D03*
X0103450Y0053326D03*
X0102690Y0055186D03*
X0101750Y0055186D03*
X0099650Y0056386D03*
X0099450Y0053326D03*
X0104030Y0056386D03*
X0105330Y0054586D03*
X0105370Y0054526D03*
X0106210Y0054526D03*
X0105130Y0052986D03*
D348*
X0105140Y0052886D03*
X0104320Y0053626D03*
X0103500Y0053386D03*
X0103420Y0053726D03*
X0104580Y0055226D03*
X0099500Y0053386D03*
X0097500Y0054486D03*
D349*
X0097500Y0054566D03*
X0097500Y0055146D03*
X0097500Y0055166D03*
X0098440Y0055246D03*
X0098440Y0053666D03*
X0099420Y0053646D03*
X0099440Y0053306D03*
X0099440Y0052906D03*
X0101120Y0053666D03*
X0100360Y0055246D03*
X0102680Y0055166D03*
X0102680Y0054566D03*
X0103700Y0054466D03*
X0103440Y0053306D03*
X0103440Y0052906D03*
X0105140Y0052966D03*
X0105360Y0054546D03*
X0105340Y0054566D03*
X0105340Y0055166D03*
X0106200Y0054546D03*
X0104020Y0061766D03*
X0099660Y0061766D03*
D350*
X0099620Y0061966D03*
X0104060Y0061966D03*
X0104720Y0055366D03*
X0104400Y0055106D03*
X0103940Y0054666D03*
X0103940Y0054646D03*
X0103600Y0054366D03*
X0104140Y0053506D03*
X0104480Y0053806D03*
X0104860Y0053566D03*
X0105360Y0053566D03*
X0104860Y0053046D03*
X0105940Y0054606D03*
X0105080Y0055106D03*
X0102420Y0055106D03*
X0102040Y0054606D03*
X0101520Y0055146D03*
X0100640Y0055106D03*
X0100440Y0055366D03*
X0100120Y0055106D03*
X0099680Y0055106D03*
X0098740Y0055106D03*
X0098200Y0055106D03*
X0097760Y0055106D03*
X0097240Y0055106D03*
X0098200Y0054646D03*
X0098540Y0054366D03*
X0100480Y0053806D03*
X0100840Y0053546D03*
X0100840Y0053046D03*
X0101360Y0053066D03*
X0102000Y0052906D03*
X0102300Y0053646D03*
D351*
X0101730Y0054486D03*
X0102690Y0054586D03*
X0103430Y0052926D03*
X0101110Y0052986D03*
X0101110Y0053626D03*
X0099430Y0053286D03*
X0099430Y0052926D03*
X0098450Y0054526D03*
X0098450Y0055226D03*
X0100370Y0055186D03*
D352*
X0100660Y0055086D03*
X0099660Y0055126D03*
X0099160Y0055126D03*
X0098720Y0055126D03*
X0098740Y0054626D03*
X0098200Y0055086D03*
X0097760Y0054626D03*
X0097240Y0054626D03*
X0098200Y0053526D03*
X0098740Y0053526D03*
X0099140Y0053186D03*
X0099140Y0053026D03*
X0100140Y0053526D03*
X0100820Y0053526D03*
X0101360Y0053526D03*
X0102000Y0052926D03*
X0103140Y0053026D03*
X0103140Y0053186D03*
X0104140Y0053526D03*
X0103400Y0054626D03*
X0102420Y0054626D03*
X0102440Y0055126D03*
X0104400Y0055086D03*
X0105080Y0054626D03*
X0105940Y0055126D03*
X0106440Y0055126D03*
D353*
X0104890Y0053026D03*
X0102590Y0052926D03*
X0102290Y0053626D03*
X0099650Y0053586D03*
X0098210Y0054626D03*
X0097750Y0055126D03*
X0097250Y0055126D03*
D354*
X0099420Y0053246D03*
X0099420Y0052966D03*
X0099420Y0052946D03*
X0100380Y0055146D03*
X0100380Y0055166D03*
X0103680Y0054566D03*
X0103680Y0054546D03*
X0103420Y0053246D03*
X0103420Y0053206D03*
X0103420Y0052966D03*
D355*
X0103430Y0052946D03*
X0103430Y0053266D03*
X0103690Y0054506D03*
X0102690Y0055146D03*
X0104030Y0056406D03*
X0100370Y0055206D03*
X0099650Y0056406D03*
X0098450Y0055206D03*
X0098450Y0054506D03*
X0098450Y0053646D03*
X0099430Y0053266D03*
X0101110Y0052966D03*
X0101110Y0052946D03*
X0101110Y0053646D03*
D356*
X0101350Y0053546D03*
X0101350Y0053046D03*
X0101990Y0052946D03*
X0102590Y0052946D03*
X0102590Y0052966D03*
X0102290Y0053606D03*
X0102450Y0054606D03*
X0100850Y0053566D03*
X0100150Y0053546D03*
X0099190Y0055146D03*
X0098710Y0054606D03*
X0097750Y0054606D03*
X0097250Y0054606D03*
X0098210Y0053546D03*
X0099610Y0056206D03*
X0103010Y0056546D03*
X0104150Y0053546D03*
X0105110Y0053806D03*
X0105950Y0055146D03*
X0106410Y0055146D03*
D357*
X0105100Y0054606D03*
X0102000Y0052966D03*
X0097500Y0054366D03*
X0097500Y0055366D03*
D358*
X0099410Y0052986D03*
X0103670Y0054586D03*
X0106170Y0054786D03*
X0106170Y0054826D03*
X0106170Y0054886D03*
X0106170Y0054926D03*
D359*
X0105100Y0055126D03*
X0104900Y0053586D03*
X0102600Y0052986D03*
X0102000Y0052986D03*
X0102300Y0053586D03*
X0101500Y0054586D03*
X0099200Y0054586D03*
D360*
X0099420Y0053226D03*
X0103420Y0053226D03*
X0103420Y0052986D03*
X0103680Y0054526D03*
D361*
X0103410Y0053006D03*
X0101730Y0054506D03*
X0099410Y0053206D03*
X0099410Y0053006D03*
X0099670Y0061746D03*
X0104010Y0061746D03*
X0106170Y0054966D03*
X0106170Y0054946D03*
X0106170Y0054906D03*
X0106170Y0054866D03*
X0106170Y0054846D03*
X0106170Y0054806D03*
X0106170Y0054766D03*
D362*
X0101100Y0053606D03*
X0101100Y0053006D03*
X0098460Y0053606D03*
X0098460Y0054546D03*
X0098460Y0054566D03*
X0098460Y0055146D03*
X0098460Y0055166D03*
D363*
X0100170Y0053566D03*
X0101990Y0053006D03*
X0102590Y0053006D03*
X0102290Y0053546D03*
X0102290Y0053566D03*
X0102010Y0054746D03*
X0102690Y0055366D03*
X0103910Y0054606D03*
X0104170Y0053566D03*
X0106210Y0054366D03*
D364*
X0105100Y0053006D03*
X0097500Y0054546D03*
X0097500Y0055206D03*
D365*
X0099670Y0053026D03*
X0100630Y0055126D03*
X0102930Y0055126D03*
X0103930Y0054626D03*
X0103670Y0053026D03*
D366*
X0103600Y0054386D03*
X0102300Y0053526D03*
X0100880Y0053026D03*
X0098540Y0054386D03*
D367*
X0098530Y0053786D03*
X0099610Y0056226D03*
X0100470Y0053786D03*
X0101030Y0053786D03*
X0101990Y0053026D03*
X0102590Y0053026D03*
X0104470Y0053786D03*
X0105330Y0053586D03*
X0105970Y0054586D03*
X0104070Y0056226D03*
D368*
X0104080Y0056146D03*
X0103600Y0054346D03*
X0105340Y0053046D03*
X0106420Y0054606D03*
X0099600Y0056146D03*
D369*
X0101770Y0055366D03*
X0101750Y0054366D03*
X0102290Y0053506D03*
X0101990Y0053066D03*
X0102590Y0053066D03*
X0103410Y0053806D03*
D370*
X0103210Y0053566D03*
X0105350Y0053066D03*
X0102950Y0056466D03*
X0099210Y0053566D03*
D371*
X0102010Y0055086D03*
X0104790Y0055126D03*
X0105350Y0053086D03*
D372*
X0104060Y0056246D03*
X0102600Y0053106D03*
X0102300Y0053466D03*
X0102000Y0053106D03*
X0099400Y0053806D03*
D373*
X0099650Y0054666D03*
X0104550Y0053546D03*
X0105350Y0053106D03*
D374*
X0105370Y0054386D03*
X0102690Y0054386D03*
X0102290Y0053426D03*
X0101990Y0053126D03*
X0102590Y0053126D03*
D375*
X0102590Y0053146D03*
X0102290Y0053446D03*
X0101990Y0053146D03*
X0102690Y0055346D03*
X0100630Y0056606D03*
X0099410Y0055346D03*
X0097490Y0055346D03*
X0099630Y0061906D03*
D376*
X0099620Y0056266D03*
X0102000Y0053166D03*
X0102300Y0053406D03*
X0102600Y0053166D03*
X0104060Y0056266D03*
X0105360Y0055346D03*
D377*
X0102600Y0053186D03*
X0099440Y0054386D03*
D378*
X0101990Y0053206D03*
X0102590Y0053206D03*
X0105110Y0053766D03*
D379*
X0105110Y0053406D03*
X0105110Y0053366D03*
X0105110Y0053346D03*
X0105110Y0053306D03*
X0105110Y0053266D03*
X0105110Y0053246D03*
X0105110Y0053206D03*
X0101730Y0054546D03*
X0099410Y0054806D03*
X0099410Y0054846D03*
X0099410Y0054866D03*
X0099410Y0054906D03*
D380*
X0102120Y0053226D03*
X0102420Y0053386D03*
X0103220Y0053586D03*
X0106180Y0055386D03*
D381*
X0105360Y0055326D03*
X0103420Y0053786D03*
X0102600Y0053226D03*
X0102680Y0055326D03*
X0099400Y0053786D03*
X0097500Y0055326D03*
X0099640Y0061886D03*
X0104040Y0061886D03*
D382*
X0104010Y0061726D03*
X0099670Y0061726D03*
X0099410Y0054926D03*
X0099410Y0054886D03*
X0099410Y0054826D03*
X0105110Y0053386D03*
X0105110Y0053326D03*
X0105110Y0053286D03*
X0105110Y0053226D03*
D383*
X0103950Y0054346D03*
X0102750Y0053306D03*
X0102450Y0053266D03*
X0102150Y0053306D03*
X0101850Y0053306D03*
X0101850Y0053266D03*
D384*
X0101850Y0053286D03*
X0102450Y0053286D03*
X0102750Y0053326D03*
X0103950Y0055386D03*
D385*
X0102160Y0053326D03*
X0102140Y0053286D03*
X0097200Y0054826D03*
X0097200Y0054886D03*
D386*
X0102420Y0053366D03*
X0102980Y0056506D03*
X0104080Y0056166D03*
D387*
X0103210Y0053526D03*
X0099210Y0053526D03*
D388*
X0099210Y0053546D03*
X0099650Y0054646D03*
X0103210Y0053546D03*
X0106430Y0054646D03*
D389*
X0105580Y0054666D03*
X0105580Y0055066D03*
X0102940Y0056446D03*
X0100740Y0056446D03*
X0100540Y0053546D03*
D390*
X0101340Y0053566D03*
X0099640Y0055146D03*
X0099420Y0055366D03*
X0098220Y0054606D03*
X0098220Y0053566D03*
X0098720Y0053566D03*
X0102680Y0054366D03*
X0103420Y0054606D03*
X0105360Y0054366D03*
X0105360Y0055366D03*
X0106180Y0055366D03*
X0104060Y0061946D03*
X0099620Y0061946D03*
D391*
X0099600Y0062046D03*
X0104080Y0062046D03*
X0105580Y0054646D03*
X0104540Y0053566D03*
X0101460Y0054666D03*
X0100540Y0053566D03*
D392*
X0101100Y0053586D03*
X0098460Y0053586D03*
X0098460Y0053626D03*
X0098460Y0054586D03*
X0098460Y0055186D03*
D393*
X0098530Y0055386D03*
X0099410Y0055386D03*
X0100450Y0055386D03*
X0101470Y0054626D03*
X0102290Y0053786D03*
X0104730Y0055386D03*
X0105570Y0055126D03*
X0105110Y0053826D03*
X0099210Y0053586D03*
D394*
X0100300Y0053586D03*
X0101860Y0054786D03*
X0104040Y0056326D03*
X0105360Y0055286D03*
X0104300Y0053586D03*
X0099640Y0056326D03*
D395*
X0100140Y0055126D03*
X0102020Y0054586D03*
X0103660Y0053586D03*
X0104420Y0055126D03*
X0098220Y0055126D03*
D396*
X0097490Y0055266D03*
X0097490Y0054466D03*
X0099410Y0053746D03*
X0100310Y0053606D03*
X0101770Y0055306D03*
X0102690Y0055266D03*
X0102690Y0054466D03*
X0104310Y0053606D03*
X0106210Y0054446D03*
D397*
X0105110Y0053686D03*
X0104570Y0055186D03*
X0100310Y0053626D03*
X0104030Y0061826D03*
D398*
X0104040Y0056346D03*
X0104580Y0055206D03*
X0105360Y0055266D03*
X0105360Y0054466D03*
X0106180Y0055246D03*
X0104320Y0053646D03*
X0101840Y0054806D03*
X0101700Y0054946D03*
X0100320Y0053646D03*
X0099420Y0055246D03*
X0099640Y0056346D03*
X0097500Y0055246D03*
D399*
X0099450Y0054466D03*
X0100330Y0053666D03*
X0102690Y0055246D03*
X0104590Y0055246D03*
X0104330Y0053666D03*
X0105110Y0053666D03*
X0106210Y0054466D03*
X0104030Y0061806D03*
X0099650Y0061806D03*
D400*
X0097500Y0055186D03*
X0097500Y0054526D03*
X0099400Y0053686D03*
D401*
X0099450Y0054486D03*
X0098410Y0054426D03*
X0102690Y0054526D03*
X0103410Y0053686D03*
X0104610Y0055286D03*
X0106210Y0054486D03*
D402*
X0106180Y0055266D03*
X0105120Y0053706D03*
X0103420Y0053746D03*
X0101680Y0054966D03*
X0099420Y0055266D03*
D403*
X0099410Y0053726D03*
X0101730Y0054926D03*
X0101810Y0054826D03*
X0102690Y0054486D03*
X0106190Y0055226D03*
D404*
X0105110Y0053726D03*
X0102690Y0054426D03*
D405*
X0105110Y0053746D03*
X0106210Y0054406D03*
D406*
X0104050Y0056306D03*
X0102690Y0055306D03*
X0103410Y0053766D03*
X0099410Y0053766D03*
X0099630Y0056306D03*
D407*
X0099620Y0056246D03*
X0100480Y0053766D03*
X0104480Y0053766D03*
X0106180Y0055346D03*
D408*
X0102290Y0053806D03*
X0099650Y0054606D03*
X0098530Y0054346D03*
X0099610Y0062006D03*
X0104070Y0062006D03*
D409*
X0105570Y0054626D03*
X0098530Y0053826D03*
D410*
X0100480Y0053826D03*
X0101020Y0053826D03*
X0102000Y0055126D03*
X0102960Y0056486D03*
X0100720Y0056486D03*
X0104480Y0053826D03*
D411*
X0097500Y0054386D03*
D412*
X0101750Y0054386D03*
X0104050Y0056286D03*
D413*
X0105360Y0054406D03*
X0102680Y0054406D03*
X0101760Y0055346D03*
X0097500Y0054406D03*
D414*
X0097500Y0054446D03*
X0101760Y0054406D03*
X0105360Y0055306D03*
X0104040Y0061846D03*
X0099640Y0061846D03*
D415*
X0097500Y0054426D03*
D416*
X0099440Y0054426D03*
X0101780Y0055326D03*
X0105360Y0054426D03*
D417*
X0101750Y0054426D03*
X0099650Y0061826D03*
D418*
X0099410Y0055286D03*
X0097490Y0055286D03*
X0102690Y0055286D03*
X0106190Y0055286D03*
X0106210Y0054426D03*
D419*
X0105360Y0054446D03*
X0104560Y0055166D03*
X0099440Y0054446D03*
D420*
X0099420Y0054786D03*
X0099660Y0056426D03*
X0101720Y0054526D03*
X0104020Y0056426D03*
D421*
X0101740Y0054566D03*
X0099420Y0054766D03*
X0099420Y0054946D03*
X0099420Y0054966D03*
D422*
X0099650Y0054626D03*
X0099590Y0056126D03*
X0104090Y0056126D03*
D423*
X0106430Y0054626D03*
D424*
X0101460Y0054646D03*
D425*
X0099590Y0056106D03*
X0104090Y0056106D03*
X0104790Y0055106D03*
X0106430Y0054666D03*
D426*
X0101460Y0054686D03*
D427*
X0105580Y0054686D03*
D428*
X0101460Y0054706D03*
D429*
X0101900Y0054766D03*
X0097500Y0055306D03*
D430*
X0099630Y0056286D03*
X0101630Y0054986D03*
D431*
X0102020Y0055066D03*
X0105580Y0055046D03*
D432*
X0105580Y0055086D03*
D433*
X0102000Y0055106D03*
D434*
X0105570Y0055106D03*
D435*
X0104020Y0056446D03*
X0099660Y0056446D03*
D436*
X0099670Y0056466D03*
X0104010Y0056466D03*
D437*
X0100730Y0056466D03*
D438*
X0099670Y0056486D03*
X0104010Y0056486D03*
D439*
X0104000Y0056506D03*
X0101840Y0062766D03*
X0099680Y0056506D03*
D440*
X0099680Y0056526D03*
X0101840Y0062686D03*
X0101840Y0062726D03*
X0104000Y0056526D03*
D441*
X0103990Y0056546D03*
X0099690Y0056546D03*
D442*
X0099690Y0056566D03*
X0103990Y0056566D03*
D443*
X0103980Y0056586D03*
X0101840Y0062226D03*
X0101840Y0062286D03*
X0099700Y0056586D03*
D444*
X0099700Y0056606D03*
X0101840Y0062146D03*
X0101840Y0062166D03*
X0101840Y0062206D03*
X0103980Y0056606D03*
D445*
X0103050Y0056606D03*
X0104050Y0061906D03*
D446*
X0099950Y0056626D03*
D447*
X0103730Y0056626D03*
D448*
X0103740Y0056646D03*
X0099940Y0056646D03*
D449*
X0099940Y0056666D03*
X0100320Y0057606D03*
X0103360Y0057606D03*
X0103740Y0056666D03*
D450*
X0103370Y0057586D03*
X0100330Y0057626D03*
X0099930Y0056686D03*
D451*
X0100310Y0057586D03*
X0103350Y0057626D03*
X0103410Y0057526D03*
X0103750Y0056686D03*
D452*
X0103750Y0056706D03*
X0103490Y0057366D03*
X0103470Y0057406D03*
X0103450Y0057446D03*
X0103350Y0057706D03*
X0100330Y0057706D03*
X0100230Y0057446D03*
X0100210Y0057406D03*
X0100190Y0057366D03*
X0099930Y0056706D03*
D453*
X0099920Y0056726D03*
X0100160Y0057326D03*
X0100200Y0057386D03*
X0100340Y0057726D03*
X0103340Y0057726D03*
X0103480Y0057386D03*
X0103520Y0057326D03*
X0103760Y0056726D03*
D454*
X0103770Y0056746D03*
X0103550Y0057266D03*
X0103350Y0057766D03*
X0100330Y0057766D03*
X0100130Y0057266D03*
X0099910Y0056746D03*
D455*
X0099910Y0056766D03*
X0100070Y0057146D03*
X0100330Y0057806D03*
X0100110Y0058366D03*
X0100130Y0059806D03*
X0103570Y0058366D03*
X0103610Y0057146D03*
X0103630Y0057106D03*
X0103770Y0056766D03*
D456*
X0103780Y0056786D03*
X0103700Y0056986D03*
X0103680Y0057026D03*
X0103340Y0057826D03*
X0103540Y0058326D03*
X0100340Y0057826D03*
X0100140Y0058326D03*
X0100000Y0057026D03*
X0099980Y0056986D03*
X0099900Y0056786D03*
D457*
X0099910Y0056806D03*
X0099950Y0056946D03*
X0099970Y0056966D03*
X0099990Y0057006D03*
X0103690Y0057006D03*
X0103710Y0056966D03*
X0103730Y0056946D03*
X0103770Y0056806D03*
D458*
X0103780Y0056826D03*
X0103760Y0056886D03*
X0103340Y0057886D03*
X0103500Y0058286D03*
X0103600Y0059786D03*
X0103480Y0059886D03*
X0100200Y0059886D03*
X0100080Y0059786D03*
X0100180Y0058286D03*
X0100340Y0057886D03*
X0099920Y0056886D03*
X0099900Y0056826D03*
D459*
X0099900Y0056846D03*
X0099920Y0056866D03*
X0099940Y0056906D03*
X0100340Y0057866D03*
X0100160Y0058306D03*
X0100180Y0059866D03*
X0101840Y0061646D03*
X0103500Y0059866D03*
X0103520Y0058306D03*
X0103340Y0057866D03*
X0103740Y0056906D03*
X0103760Y0056866D03*
X0103780Y0056846D03*
D460*
X0103730Y0056926D03*
X0103610Y0058386D03*
X0100070Y0058386D03*
X0099950Y0056926D03*
D461*
X0100020Y0057046D03*
X0100020Y0057066D03*
X0100340Y0057846D03*
X0100120Y0058346D03*
X0100160Y0059846D03*
X0103520Y0059846D03*
X0103560Y0058346D03*
X0103340Y0057846D03*
X0103660Y0057066D03*
X0103660Y0057046D03*
D462*
X0103630Y0057126D03*
X0103530Y0059826D03*
X0100030Y0057086D03*
D463*
X0100050Y0057126D03*
X0100150Y0059826D03*
X0103650Y0057086D03*
D464*
X0103350Y0057806D03*
X0103550Y0059806D03*
X0100050Y0057106D03*
D465*
X0100080Y0057166D03*
X0100120Y0057246D03*
X0103580Y0057206D03*
D466*
X0103560Y0057246D03*
X0103600Y0057166D03*
X0101840Y0061666D03*
X0100100Y0057206D03*
D467*
X0100080Y0057186D03*
D468*
X0100340Y0057786D03*
X0103340Y0057786D03*
X0103600Y0057186D03*
D469*
X0103570Y0057226D03*
X0103530Y0057286D03*
X0100150Y0057286D03*
X0100110Y0057226D03*
D470*
X0100160Y0057306D03*
X0100180Y0057346D03*
X0100340Y0057746D03*
X0103340Y0057746D03*
X0103500Y0057346D03*
X0103520Y0057306D03*
D471*
X0103460Y0057426D03*
X0103420Y0057486D03*
X0103340Y0057686D03*
X0100340Y0057686D03*
X0100280Y0057526D03*
X0100260Y0057486D03*
X0100220Y0057426D03*
D472*
X0100240Y0057466D03*
X0100260Y0057506D03*
X0103420Y0057506D03*
X0103440Y0057466D03*
D473*
X0103390Y0057546D03*
X0103390Y0057566D03*
X0103350Y0057646D03*
X0103350Y0057666D03*
X0100290Y0057566D03*
X0100290Y0057546D03*
D474*
X0100330Y0057646D03*
X0100330Y0057666D03*
D475*
X0100330Y0057906D03*
X0103470Y0059906D03*
D476*
X0103490Y0058266D03*
X0103350Y0057906D03*
X0100190Y0058266D03*
X0100210Y0059906D03*
D477*
X0100240Y0059926D03*
X0100340Y0057926D03*
X0103340Y0057926D03*
X0103440Y0059926D03*
D478*
X0103460Y0058246D03*
X0103340Y0057946D03*
X0100340Y0057946D03*
X0100220Y0058246D03*
D479*
X0100240Y0058206D03*
X0100340Y0057966D03*
X0100020Y0059766D03*
X0100260Y0059946D03*
X0100280Y0059966D03*
X0103400Y0059966D03*
X0103420Y0059946D03*
X0103660Y0059766D03*
X0103440Y0058206D03*
X0103340Y0057966D03*
D480*
X0103340Y0057986D03*
X0100340Y0057986D03*
D481*
X0100330Y0058006D03*
X0103350Y0058006D03*
D482*
X0103340Y0058026D03*
X0100340Y0058026D03*
X0100300Y0059986D03*
X0101840Y0061626D03*
D483*
X0103400Y0058166D03*
X0103340Y0058046D03*
X0100340Y0058046D03*
D484*
X0100340Y0058066D03*
X0100320Y0058106D03*
X0099960Y0059746D03*
X0100320Y0060006D03*
X0103360Y0060006D03*
X0103720Y0059746D03*
X0103360Y0058106D03*
X0103340Y0058066D03*
D485*
X0103340Y0058086D03*
X0103360Y0058126D03*
X0103740Y0058426D03*
X0100340Y0058086D03*
X0100320Y0058126D03*
D486*
X0100310Y0058146D03*
X0103370Y0058146D03*
D487*
X0100280Y0058166D03*
D488*
X0100270Y0058186D03*
X0103410Y0058186D03*
D489*
X0103450Y0058226D03*
X0100230Y0058226D03*
D490*
X0100010Y0058406D03*
X0103670Y0058406D03*
D491*
X0099950Y0058426D03*
D492*
X0099890Y0058446D03*
X0100390Y0060046D03*
X0103290Y0060046D03*
X0103790Y0058446D03*
D493*
X0103860Y0058466D03*
X0103840Y0059706D03*
X0099840Y0059706D03*
X0099820Y0058466D03*
D494*
X0099760Y0058486D03*
X0099780Y0059686D03*
X0103920Y0058486D03*
D495*
X0099700Y0058506D03*
D496*
X0103980Y0058506D03*
D497*
X0104040Y0058526D03*
X0099640Y0058526D03*
X0099480Y0058886D03*
X0099480Y0058926D03*
X0099480Y0058986D03*
X0099480Y0059186D03*
X0099480Y0059226D03*
X0099480Y0059286D03*
D498*
X0099520Y0059506D03*
X0099520Y0058666D03*
X0099520Y0058646D03*
X0099580Y0058546D03*
X0104120Y0058566D03*
D499*
X0104100Y0058546D03*
X0104140Y0058606D03*
X0104160Y0058646D03*
X0104160Y0058666D03*
X0104160Y0059506D03*
X0099560Y0058566D03*
X0099540Y0058606D03*
D500*
X0099550Y0058586D03*
X0099550Y0059586D03*
X0104150Y0059526D03*
X0104150Y0058626D03*
D501*
X0104130Y0058586D03*
X0104130Y0059586D03*
X0099530Y0059526D03*
X0099530Y0058626D03*
D502*
X0099510Y0058686D03*
X0099510Y0058726D03*
X0099590Y0059626D03*
X0104090Y0059626D03*
X0104170Y0058726D03*
X0104170Y0058686D03*
D503*
X0104170Y0058706D03*
X0104170Y0059446D03*
X0104170Y0059466D03*
X0099510Y0059466D03*
X0099510Y0059446D03*
X0099510Y0058706D03*
D504*
X0099500Y0058746D03*
X0099500Y0058766D03*
X0099500Y0059406D03*
X0104180Y0059406D03*
X0104180Y0058766D03*
X0104180Y0058746D03*
D505*
X0104180Y0058786D03*
X0104180Y0059386D03*
X0104180Y0059426D03*
X0099500Y0059426D03*
X0099500Y0059386D03*
X0099500Y0058786D03*
D506*
X0099490Y0058806D03*
X0099490Y0058846D03*
X0099490Y0058866D03*
X0099490Y0059306D03*
X0099490Y0059346D03*
X0099490Y0059366D03*
X0104190Y0059366D03*
X0104190Y0059346D03*
X0104190Y0059306D03*
X0104190Y0058866D03*
X0104190Y0058846D03*
X0104190Y0058806D03*
D507*
X0104190Y0058826D03*
X0104190Y0059326D03*
X0099490Y0059326D03*
X0099490Y0058826D03*
D508*
X0104200Y0058886D03*
X0104200Y0058926D03*
X0104200Y0058986D03*
X0104200Y0059186D03*
X0104200Y0059226D03*
X0104200Y0059286D03*
D509*
X0099480Y0059266D03*
X0099480Y0059246D03*
X0099480Y0059206D03*
X0099480Y0059006D03*
X0099480Y0058966D03*
X0099480Y0058946D03*
X0099480Y0058906D03*
D510*
X0104200Y0058906D03*
X0104200Y0058946D03*
X0104200Y0058966D03*
X0104200Y0059006D03*
X0104200Y0059206D03*
X0104200Y0059246D03*
X0104200Y0059266D03*
D511*
X0099470Y0059126D03*
X0099470Y0059086D03*
X0099470Y0059026D03*
D512*
X0104210Y0059026D03*
X0104210Y0059086D03*
X0104210Y0059126D03*
D513*
X0104030Y0059646D03*
X0099470Y0059166D03*
X0099470Y0059146D03*
X0099470Y0059106D03*
X0099470Y0059066D03*
X0099470Y0059046D03*
D514*
X0099650Y0059646D03*
X0104210Y0059166D03*
X0104210Y0059146D03*
X0104210Y0059106D03*
X0104210Y0059066D03*
X0104210Y0059046D03*
D515*
X0099520Y0059486D03*
D516*
X0104160Y0059486D03*
D517*
X0104130Y0059566D03*
X0104110Y0059606D03*
X0099570Y0059606D03*
X0099530Y0059546D03*
D518*
X0099550Y0059566D03*
X0104150Y0059546D03*
D519*
X0103970Y0059666D03*
X0099710Y0059666D03*
D520*
X0103900Y0059686D03*
D521*
X0103790Y0059726D03*
X0099890Y0059726D03*
D522*
X0103380Y0059986D03*
D523*
X0103320Y0060026D03*
X0100360Y0060026D03*
D524*
X0100440Y0060066D03*
X0103240Y0060066D03*
D525*
X0101840Y0060086D03*
D526*
X0101840Y0060106D03*
X0101840Y0060746D03*
D527*
X0101840Y0060726D03*
X0101840Y0060126D03*
D528*
X0101840Y0060146D03*
X0101840Y0060166D03*
X0101840Y0060706D03*
D529*
X0101840Y0060186D03*
D530*
X0101840Y0060206D03*
X0101840Y0060666D03*
D531*
X0101840Y0060686D03*
X0101840Y0060226D03*
D532*
X0101840Y0060246D03*
X0101840Y0060266D03*
X0101840Y0060646D03*
D533*
X0101840Y0060626D03*
X0101840Y0060326D03*
X0101840Y0060286D03*
D534*
X0101840Y0060306D03*
X0101840Y0060606D03*
D535*
X0101840Y0060366D03*
X0101840Y0060346D03*
D536*
X0101840Y0060386D03*
D537*
X0101840Y0060406D03*
X0101840Y0060546D03*
X0101840Y0060566D03*
D538*
X0101840Y0060526D03*
X0101840Y0060426D03*
D539*
X0101840Y0060446D03*
X0101840Y0060466D03*
D540*
X0101840Y0060486D03*
D541*
X0101840Y0060506D03*
D542*
X0101840Y0060586D03*
D543*
X0101840Y0060766D03*
D544*
X0101840Y0060786D03*
D545*
X0101840Y0060806D03*
D546*
X0101840Y0060826D03*
D547*
X0101840Y0060846D03*
D548*
X0101840Y0060866D03*
D549*
X0101840Y0060886D03*
D550*
X0101840Y0060906D03*
D551*
X0101840Y0060926D03*
D552*
X0101840Y0060946D03*
D553*
X0101840Y0060966D03*
D554*
X0101840Y0060986D03*
D555*
X0101840Y0061006D03*
D556*
X0101840Y0061026D03*
D557*
X0101840Y0061046D03*
X0101840Y0061066D03*
D558*
X0101840Y0061086D03*
D559*
X0101840Y0061106D03*
D560*
X0101840Y0061126D03*
X0101840Y0061486D03*
D561*
X0101840Y0061466D03*
X0101840Y0061146D03*
D562*
X0101840Y0061166D03*
X0101840Y0061446D03*
D563*
X0101840Y0061426D03*
X0101840Y0061186D03*
D564*
X0101840Y0061206D03*
D565*
X0101840Y0061226D03*
D566*
X0101840Y0061246D03*
X0101840Y0061266D03*
D567*
X0101840Y0061286D03*
D568*
X0101840Y0061306D03*
X0101840Y0061346D03*
X0101840Y0061366D03*
D569*
X0101840Y0061326D03*
D570*
X0101840Y0061386D03*
D571*
X0101840Y0061406D03*
D572*
X0101840Y0061506D03*
D573*
X0101840Y0061926D03*
X0101840Y0061986D03*
X0099720Y0061526D03*
X0103960Y0061526D03*
D574*
X0101840Y0061526D03*
D575*
X0099710Y0061546D03*
D576*
X0101840Y0061546D03*
D577*
X0103970Y0061546D03*
D578*
X0103970Y0061566D03*
X0099710Y0061566D03*
D579*
X0101840Y0061566D03*
D580*
X0101840Y0062326D03*
X0101840Y0062386D03*
X0101840Y0062426D03*
X0099700Y0061586D03*
D581*
X0101840Y0061586D03*
D582*
X0103980Y0061586D03*
D583*
X0103980Y0061606D03*
X0101840Y0062446D03*
X0101840Y0062466D03*
X0101840Y0062506D03*
X0099700Y0061606D03*
D584*
X0101840Y0061606D03*
D585*
X0099700Y0061626D03*
D586*
X0103990Y0061626D03*
D587*
X0103990Y0061646D03*
X0099690Y0061646D03*
D588*
X0099690Y0061666D03*
X0103990Y0061666D03*
D589*
X0104000Y0061686D03*
X0099680Y0061686D03*
D590*
X0101840Y0061686D03*
D591*
X0099680Y0061706D03*
D592*
X0101840Y0061706D03*
D593*
X0104000Y0061706D03*
D594*
X0101840Y0061726D03*
D595*
X0101840Y0061746D03*
D596*
X0101840Y0061766D03*
D597*
X0101840Y0061786D03*
D598*
X0101840Y0061806D03*
X0101840Y0061846D03*
X0101840Y0061866D03*
D599*
X0101840Y0061886D03*
X0101840Y0061826D03*
D600*
X0101840Y0061906D03*
X0101840Y0061946D03*
X0101840Y0061966D03*
D601*
X0101840Y0062006D03*
X0101840Y0062046D03*
X0101840Y0062066D03*
X0101840Y0062106D03*
D602*
X0099600Y0062026D03*
D603*
X0101840Y0062026D03*
X0101840Y0062086D03*
D604*
X0104080Y0062026D03*
D605*
X0101840Y0062126D03*
X0101840Y0062186D03*
D606*
X0101840Y0062246D03*
X0101840Y0062266D03*
X0101840Y0062306D03*
D607*
X0101840Y0062346D03*
X0101840Y0062366D03*
X0101840Y0062406D03*
D608*
X0101840Y0062486D03*
X0101840Y0062526D03*
D609*
X0101840Y0062546D03*
X0101840Y0062566D03*
X0101840Y0062606D03*
D610*
X0101840Y0062626D03*
X0101840Y0062586D03*
D611*
X0101840Y0062646D03*
X0101840Y0062666D03*
X0101840Y0062706D03*
X0101840Y0062746D03*
M02*
