G75*
%MOIN*%
%OFA0B0*%
%FSLAX25Y25*%
%IPPOS*%
%LPD*%
%AMOC8*
5,1,8,0,0,1.08239X$1,22.5*
%
%ADD10C,0.13398*%
%ADD11C,0.07887*%
%ADD12C,0.06343*%
%ADD13OC8,0.06343*%
%ADD14C,0.07887*%
%ADD15R,0.07887X0.07887*%
%ADD16R,0.07300X0.07300*%
%ADD17C,0.06800*%
%ADD18C,0.08400*%
%ADD19OC8,0.09300*%
%ADD20OC8,0.07400*%
D10*
X0011000Y0071750D03*
X0331000Y0071750D03*
D11*
X0319543Y0131750D02*
X0312457Y0131750D01*
X0299543Y0131750D02*
X0292457Y0131750D01*
X0274543Y0131750D02*
X0267457Y0131750D01*
X0254543Y0131750D02*
X0247457Y0131750D01*
X0224543Y0131750D02*
X0217457Y0131750D01*
X0204543Y0131750D02*
X0197457Y0131750D01*
X0114543Y0131750D02*
X0107457Y0131750D01*
X0094543Y0131750D02*
X0087457Y0131750D01*
X0017043Y0131750D02*
X0009957Y0131750D01*
X0009957Y0106750D02*
X0017043Y0106750D01*
X0247457Y0011750D02*
X0254543Y0011750D01*
X0267457Y0011750D02*
X0274543Y0011750D01*
X0292457Y0011750D02*
X0299543Y0011750D01*
X0312457Y0011750D02*
X0319543Y0011750D01*
D12*
X0296000Y0085500D03*
X0251000Y0085500D03*
X0201000Y0085500D03*
D13*
X0221000Y0085500D03*
X0271000Y0085500D03*
X0316000Y0085500D03*
X0316000Y0115500D03*
X0296000Y0115500D03*
X0271000Y0115500D03*
X0251000Y0115500D03*
X0221000Y0115500D03*
X0201000Y0115500D03*
D14*
X0221000Y0046750D03*
X0271000Y0046750D03*
X0316000Y0046750D03*
X0036000Y0040500D03*
D15*
X0056000Y0040500D03*
X0251000Y0046750D03*
X0296000Y0046750D03*
D16*
X0191000Y0046750D03*
D17*
X0166000Y0101250D02*
X0166000Y0107250D01*
X0156000Y0107250D02*
X0156000Y0101250D01*
X0146000Y0101250D02*
X0146000Y0107250D01*
D18*
X0144750Y0074250D03*
X0159750Y0074250D03*
X0184750Y0074250D03*
X0144750Y0049250D03*
X0144750Y0036750D03*
X0144750Y0011750D03*
D19*
X0081000Y0014250D03*
X0111000Y0014250D03*
X0111000Y0054250D03*
X0081000Y0074250D03*
D20*
X0099750Y0071750D03*
X0129750Y0071750D03*
X0129750Y0086750D03*
X0099750Y0086750D03*
X0112250Y0109250D03*
X0062250Y0109250D03*
X0044750Y0109250D03*
X0044750Y0069250D03*
M02*
