%
M48
M72
T01C0.03200
T02C0.03937
T03C0.04000
T04C0.04400
T05C0.04724
T06C0.12598
%
T01
X26250Y85000
X46250Y85000
X71250Y85000
X91250Y85000
X121250Y85000
X141250Y85000
X141250Y115000
X121250Y115000
X91250Y115000
X71250Y115000
X46250Y115000
X26250Y115000
X211250Y85000
X241250Y85000
X241250Y70000
X211250Y70000
X241250Y105000
X291250Y105000
X306250Y105000
X306250Y65000
T02
X306250Y45000
X306250Y25000
X151250Y45000
X121250Y45000
X91250Y55000
X71250Y55000
X46250Y55000
X26250Y55000
T03
X176250Y110000
X186250Y110000
X196250Y110000
X266250Y75000
X231250Y55000
X231250Y15000
X266250Y15000
T04
X191250Y20000
X191250Y40000
X191250Y55000
X191250Y75000
X181250Y80000
X161250Y80000
T05
X26250Y15000
X46250Y15000
X71250Y15000
X91250Y15000
X171250Y15000
X141250Y135000
X121250Y135000
X91250Y135000
X71250Y135000
X46250Y135000
X26250Y135000
X231250Y135000
X251250Y135000
X296250Y135000
X326250Y135000
T06
X331250Y75000
X11250Y75000
M30
