G75*
%MOIN*%
%OFA0B0*%
%FSLAX25Y25*%
%IPPOS*%
%LPD*%
%AMOC8*
5,1,8,0,0,1.08239X$1,22.5*
%
%ADD10C,0.13398*%
%ADD11C,0.07887*%
%ADD12C,0.07887*%
%ADD13R,0.07300X0.07300*%
%ADD14R,0.07887X0.07887*%
%ADD15OC8,0.09300*%
%ADD16C,0.08400*%
%ADD17C,0.06000*%
%ADD18OC8,0.06000*%
%ADD19C,0.06800*%
%ADD20OC8,0.07400*%
D10*
X0015000Y0075000D03*
X0335000Y0075000D03*
D11*
X0323543Y0015000D02*
X0316457Y0015000D01*
X0303543Y0015000D02*
X0296457Y0015000D01*
X0278543Y0015000D02*
X0271457Y0015000D01*
X0258543Y0015000D02*
X0251457Y0015000D01*
X0178543Y0015000D02*
X0171457Y0015000D01*
X0201457Y0135000D02*
X0208543Y0135000D01*
X0221457Y0135000D02*
X0228543Y0135000D01*
X0251457Y0135000D02*
X0258543Y0135000D01*
X0271457Y0135000D02*
X0278543Y0135000D01*
X0296457Y0135000D02*
X0303543Y0135000D01*
X0316457Y0135000D02*
X0323543Y0135000D01*
X0118543Y0135000D02*
X0111457Y0135000D01*
X0098543Y0135000D02*
X0091457Y0135000D01*
X0053543Y0135000D02*
X0046457Y0135000D01*
X0023543Y0135000D02*
X0016457Y0135000D01*
D12*
X0040000Y0025000D03*
X0225000Y0045000D03*
X0275000Y0055000D03*
X0320000Y0055000D03*
D13*
X0195000Y0045000D03*
D14*
X0255000Y0055000D03*
X0300000Y0055000D03*
X0040000Y0045000D03*
D15*
X0080000Y0015000D03*
X0115000Y0015000D03*
X0115000Y0055000D03*
X0080000Y0075000D03*
D16*
X0155000Y0075000D03*
X0165000Y0080000D03*
X0185000Y0080000D03*
X0155000Y0055000D03*
X0155000Y0040000D03*
X0155000Y0020000D03*
D17*
X0205000Y0085000D03*
X0255000Y0085000D03*
X0300000Y0085000D03*
D18*
X0320000Y0085000D03*
X0275000Y0085000D03*
X0225000Y0085000D03*
X0225000Y0115000D03*
X0205000Y0115000D03*
X0255000Y0115000D03*
X0275000Y0115000D03*
X0300000Y0115000D03*
X0320000Y0115000D03*
D19*
X0170000Y0113000D02*
X0170000Y0107000D01*
X0160000Y0107000D02*
X0160000Y0113000D01*
X0150000Y0113000D02*
X0150000Y0107000D01*
D20*
X0105000Y0105000D03*
X0105000Y0085000D03*
X0135000Y0085000D03*
X0135000Y0070000D03*
X0105000Y0070000D03*
X0040000Y0065000D03*
X0040000Y0105000D03*
X0055000Y0105000D03*
M02*
