G75*
%MOIN*%
%OFA0B0*%
%FSLAX25Y25*%
%IPPOS*%
%LPD*%
%AMOC8*
5,1,8,0,0,1.08239X$1,22.5*
%
%ADD10C,0.00500*%
%ADD11C,0.05543*%
%ADD12C,0.15811*%
%ADD13R,0.01575X0.00787*%
%ADD14R,0.00787X0.01575*%
%ADD15R,0.03150X0.03150*%
%ADD16C,0.00400*%
D10*
X0011800Y0016800D02*
X0011800Y0116800D01*
X0011815Y0118018D01*
X0011859Y0119234D01*
X0011933Y0120450D01*
X0012037Y0121663D01*
X0012170Y0122873D01*
X0012333Y0124080D01*
X0012525Y0125282D01*
X0012746Y0126480D01*
X0012996Y0127672D01*
X0013275Y0128857D01*
X0013583Y0130035D01*
X0013920Y0131205D01*
X0014285Y0132367D01*
X0014678Y0133519D01*
X0015099Y0134662D01*
X0015548Y0135793D01*
X0016024Y0136914D01*
X0016528Y0138023D01*
X0017058Y0139119D01*
X0017615Y0140202D01*
X0018198Y0141271D01*
X0018806Y0142325D01*
X0019441Y0143365D01*
X0020100Y0144388D01*
X0020784Y0145396D01*
X0021493Y0146386D01*
X0022225Y0147359D01*
X0022981Y0148313D01*
X0023760Y0149249D01*
X0024561Y0150166D01*
X0025385Y0151063D01*
X0026230Y0151939D01*
X0027096Y0152795D01*
X0027983Y0153630D01*
X0028890Y0154442D01*
X0029816Y0155232D01*
X0030762Y0156000D01*
X0031725Y0156744D01*
X0032707Y0157464D01*
X0033706Y0158161D01*
X0034721Y0158833D01*
X0035753Y0159480D01*
X0036800Y0160101D01*
X0037862Y0160697D01*
X0038938Y0161267D01*
X0040027Y0161811D01*
X0041130Y0162327D01*
X0042245Y0162817D01*
X0043371Y0163280D01*
X0044508Y0163715D01*
X0045656Y0164122D01*
X0046813Y0164501D01*
X0047979Y0164852D01*
X0049153Y0165174D01*
X0050335Y0165468D01*
X0051524Y0165733D01*
X0052718Y0165968D01*
X0053918Y0166175D01*
X0055123Y0166352D01*
X0056331Y0166500D01*
X0057543Y0166618D01*
X0058758Y0166707D01*
X0059974Y0166767D01*
X0061191Y0166796D01*
X0062409Y0166796D01*
X0063626Y0166767D01*
X0064842Y0166707D01*
X0066057Y0166618D01*
X0067269Y0166500D01*
X0068477Y0166352D01*
X0069682Y0166175D01*
X0070882Y0165968D01*
X0072076Y0165733D01*
X0073265Y0165468D01*
X0074447Y0165174D01*
X0075621Y0164852D01*
X0076787Y0164501D01*
X0077944Y0164122D01*
X0079092Y0163715D01*
X0080229Y0163280D01*
X0081355Y0162817D01*
X0082470Y0162327D01*
X0083573Y0161811D01*
X0084662Y0161267D01*
X0085738Y0160697D01*
X0086800Y0160101D01*
X0087847Y0159480D01*
X0088879Y0158833D01*
X0089894Y0158161D01*
X0090893Y0157464D01*
X0091875Y0156744D01*
X0092838Y0156000D01*
X0093784Y0155232D01*
X0094710Y0154442D01*
X0095617Y0153630D01*
X0096504Y0152795D01*
X0097370Y0151939D01*
X0098215Y0151063D01*
X0099039Y0150166D01*
X0099840Y0149249D01*
X0100619Y0148313D01*
X0101375Y0147359D01*
X0102107Y0146386D01*
X0102816Y0145396D01*
X0103500Y0144388D01*
X0104159Y0143365D01*
X0104794Y0142325D01*
X0105402Y0141271D01*
X0105985Y0140202D01*
X0106542Y0139119D01*
X0107072Y0138023D01*
X0107576Y0136914D01*
X0108052Y0135793D01*
X0108501Y0134662D01*
X0108922Y0133519D01*
X0109315Y0132367D01*
X0109680Y0131205D01*
X0110017Y0130035D01*
X0110325Y0128857D01*
X0110604Y0127672D01*
X0110854Y0126480D01*
X0111075Y0125282D01*
X0111267Y0124080D01*
X0111430Y0122873D01*
X0111563Y0121663D01*
X0111667Y0120450D01*
X0111741Y0119234D01*
X0111785Y0118018D01*
X0111800Y0116800D01*
X0111800Y0016800D01*
X0111797Y0016558D01*
X0111788Y0016317D01*
X0111774Y0016076D01*
X0111753Y0015835D01*
X0111727Y0015595D01*
X0111695Y0015355D01*
X0111657Y0015116D01*
X0111614Y0014879D01*
X0111564Y0014642D01*
X0111509Y0014407D01*
X0111449Y0014173D01*
X0111382Y0013941D01*
X0111311Y0013710D01*
X0111233Y0013481D01*
X0111150Y0013254D01*
X0111062Y0013029D01*
X0110968Y0012806D01*
X0110869Y0012586D01*
X0110764Y0012368D01*
X0110655Y0012153D01*
X0110540Y0011940D01*
X0110420Y0011730D01*
X0110295Y0011524D01*
X0110165Y0011320D01*
X0110030Y0011119D01*
X0109890Y0010922D01*
X0109746Y0010728D01*
X0109597Y0010538D01*
X0109443Y0010352D01*
X0109285Y0010169D01*
X0109123Y0009990D01*
X0108956Y0009815D01*
X0108785Y0009644D01*
X0108610Y0009477D01*
X0108431Y0009315D01*
X0108248Y0009157D01*
X0108062Y0009003D01*
X0107872Y0008854D01*
X0107678Y0008710D01*
X0107481Y0008570D01*
X0107280Y0008435D01*
X0107076Y0008305D01*
X0106870Y0008180D01*
X0106660Y0008060D01*
X0106447Y0007945D01*
X0106232Y0007836D01*
X0106014Y0007731D01*
X0105794Y0007632D01*
X0105571Y0007538D01*
X0105346Y0007450D01*
X0105119Y0007367D01*
X0104890Y0007289D01*
X0104659Y0007218D01*
X0104427Y0007151D01*
X0104193Y0007091D01*
X0103958Y0007036D01*
X0103721Y0006986D01*
X0103484Y0006943D01*
X0103245Y0006905D01*
X0103005Y0006873D01*
X0102765Y0006847D01*
X0102524Y0006826D01*
X0102283Y0006812D01*
X0102042Y0006803D01*
X0101800Y0006800D01*
X0021800Y0006800D01*
X0021558Y0006803D01*
X0021317Y0006812D01*
X0021076Y0006826D01*
X0020835Y0006847D01*
X0020595Y0006873D01*
X0020355Y0006905D01*
X0020116Y0006943D01*
X0019879Y0006986D01*
X0019642Y0007036D01*
X0019407Y0007091D01*
X0019173Y0007151D01*
X0018941Y0007218D01*
X0018710Y0007289D01*
X0018481Y0007367D01*
X0018254Y0007450D01*
X0018029Y0007538D01*
X0017806Y0007632D01*
X0017586Y0007731D01*
X0017368Y0007836D01*
X0017153Y0007945D01*
X0016940Y0008060D01*
X0016730Y0008180D01*
X0016524Y0008305D01*
X0016320Y0008435D01*
X0016119Y0008570D01*
X0015922Y0008710D01*
X0015728Y0008854D01*
X0015538Y0009003D01*
X0015352Y0009157D01*
X0015169Y0009315D01*
X0014990Y0009477D01*
X0014815Y0009644D01*
X0014644Y0009815D01*
X0014477Y0009990D01*
X0014315Y0010169D01*
X0014157Y0010352D01*
X0014003Y0010538D01*
X0013854Y0010728D01*
X0013710Y0010922D01*
X0013570Y0011119D01*
X0013435Y0011320D01*
X0013305Y0011524D01*
X0013180Y0011730D01*
X0013060Y0011940D01*
X0012945Y0012153D01*
X0012836Y0012368D01*
X0012731Y0012586D01*
X0012632Y0012806D01*
X0012538Y0013029D01*
X0012450Y0013254D01*
X0012367Y0013481D01*
X0012289Y0013710D01*
X0012218Y0013941D01*
X0012151Y0014173D01*
X0012091Y0014407D01*
X0012036Y0014642D01*
X0011986Y0014879D01*
X0011943Y0015116D01*
X0011905Y0015355D01*
X0011873Y0015595D01*
X0011847Y0015835D01*
X0011826Y0016076D01*
X0011812Y0016317D01*
X0011803Y0016558D01*
X0011800Y0016800D01*
D11*
X0046800Y0034028D02*
X0046800Y0039572D01*
X0056800Y0039572D02*
X0056800Y0034028D01*
X0066800Y0034028D02*
X0066800Y0039572D01*
X0076800Y0039572D02*
X0076800Y0034028D01*
D12*
X0099300Y0019300D03*
X0099300Y0116800D03*
X0024300Y0116800D03*
X0024300Y0019300D03*
D13*
X0056288Y0102902D03*
X0056288Y0104477D03*
X0056288Y0106052D03*
X0056288Y0107627D03*
X0056288Y0109202D03*
X0056288Y0110776D03*
X0067312Y0110776D03*
X0067312Y0109202D03*
X0067312Y0107627D03*
X0067312Y0106052D03*
X0067312Y0104477D03*
X0067312Y0102902D03*
D14*
X0065776Y0101288D03*
X0064202Y0101288D03*
X0062627Y0101288D03*
X0061052Y0101288D03*
X0059477Y0101288D03*
X0057902Y0101288D03*
X0057863Y0112312D03*
X0059438Y0112312D03*
X0061013Y0112312D03*
X0062587Y0112312D03*
X0064162Y0112312D03*
X0065737Y0112312D03*
D15*
X0064753Y0071800D03*
X0058847Y0071800D03*
X0049753Y0071800D03*
X0043847Y0071800D03*
X0034753Y0071800D03*
X0028847Y0071800D03*
X0073847Y0071800D03*
X0079753Y0071800D03*
X0088847Y0071800D03*
X0094753Y0071800D03*
D16*
X0094600Y0071800D01*
X0091800Y0074600D01*
X0087000Y0074600D01*
X0087000Y0084600D01*
X0068600Y0103000D01*
X0069400Y0103800D01*
X0069400Y0112600D01*
X0067000Y0115000D01*
X0062600Y0115000D01*
X0061000Y0113400D01*
X0059400Y0115000D01*
X0055400Y0115000D01*
X0035000Y0094600D01*
X0035000Y0071800D01*
X0034753Y0071800D01*
X0029000Y0071800D02*
X0028847Y0071800D01*
X0029000Y0071800D02*
X0029000Y0046200D01*
X0045000Y0030200D01*
X0049000Y0030200D01*
X0051400Y0032600D01*
X0054600Y0029400D01*
X0067800Y0029400D01*
X0070600Y0032200D01*
X0070600Y0041400D01*
X0068600Y0043400D01*
X0063400Y0043400D01*
X0056800Y0036800D01*
X0052200Y0033000D02*
X0055000Y0030200D01*
X0058600Y0030200D01*
X0065000Y0036600D01*
X0066600Y0036600D01*
X0066800Y0036800D01*
X0076800Y0036800D02*
X0077400Y0037400D01*
X0077400Y0068200D01*
X0073800Y0071800D01*
X0073847Y0071800D01*
X0073800Y0071800D02*
X0071000Y0069000D01*
X0062600Y0069000D01*
X0059800Y0071800D01*
X0061000Y0073000D01*
X0061000Y0101000D01*
X0061052Y0101288D01*
X0061000Y0101400D01*
X0061000Y0102600D01*
X0061800Y0103400D01*
X0063400Y0103400D01*
X0063400Y0110200D01*
X0064200Y0111000D01*
X0064200Y0112200D01*
X0064162Y0112312D01*
X0064200Y0112600D01*
X0064200Y0113400D01*
X0065000Y0114200D01*
X0066600Y0114200D01*
X0067400Y0113400D01*
X0067400Y0111000D01*
X0067312Y0110776D01*
X0067400Y0103000D02*
X0067312Y0102902D01*
X0067400Y0103000D02*
X0068600Y0103000D01*
X0064200Y0102600D02*
X0064200Y0101400D01*
X0064202Y0101288D01*
X0064200Y0102600D02*
X0063400Y0103400D01*
X0062627Y0101288D02*
X0062600Y0101000D01*
X0062600Y0089000D01*
X0079800Y0071800D01*
X0079753Y0071800D01*
X0077000Y0069800D02*
X0077800Y0069000D01*
X0081800Y0069000D01*
X0086200Y0073400D01*
X0086200Y0073800D01*
X0087000Y0074600D01*
X0085800Y0071800D02*
X0082200Y0068200D01*
X0077400Y0068200D01*
X0077000Y0069800D02*
X0077000Y0073400D01*
X0075800Y0074600D01*
X0071800Y0074600D01*
X0069000Y0071800D01*
X0064753Y0071800D01*
X0059800Y0071800D02*
X0058847Y0071800D01*
X0059000Y0071800D01*
X0052200Y0069400D02*
X0049800Y0071800D01*
X0049753Y0071800D01*
X0049800Y0071800D02*
X0049800Y0090200D01*
X0059400Y0099800D01*
X0059400Y0101000D01*
X0059477Y0101288D01*
X0059400Y0101400D01*
X0059400Y0109400D01*
X0061000Y0111000D01*
X0061000Y0112200D01*
X0061013Y0112312D01*
X0061000Y0112600D01*
X0061000Y0113400D01*
X0059400Y0113400D02*
X0059400Y0112600D01*
X0059438Y0112312D01*
X0059400Y0113400D02*
X0058600Y0114200D01*
X0055800Y0114200D01*
X0044200Y0102600D01*
X0044200Y0071800D01*
X0043847Y0071800D01*
X0044200Y0071800D02*
X0044200Y0055800D01*
X0046600Y0053400D01*
X0046600Y0037000D01*
X0046800Y0036800D01*
X0051400Y0032600D02*
X0051400Y0049800D01*
X0047000Y0054200D01*
X0047000Y0104200D01*
X0055000Y0112200D01*
X0057800Y0112200D01*
X0057863Y0112312D01*
X0085800Y0071800D02*
X0088847Y0071800D01*
X0052200Y0069400D02*
X0052200Y0033000D01*
M02*
