G75*
%MOIN*%
%OFA0B0*%
%FSLAX25Y25*%
%IPPOS*%
%LPD*%
%AMOC8*
5,1,8,0,0,1.08239X$1,22.5*
%
%ADD10C,0.00600*%
%ADD11C,0.01600*%
%ADD12C,0.00500*%
%ADD13C,0.00400*%
%ADD14R,0.01181X0.00591*%
%ADD15R,0.01181X0.01181*%
%ADD16C,0.00100*%
%ADD17R,0.01800X0.03000*%
%ADD18C,0.00300*%
%ADD19C,0.00000*%
D10*
X0071641Y0010761D02*
X0071641Y0017167D01*
X0074844Y0017167D01*
X0075912Y0016099D01*
X0075912Y0013964D01*
X0074844Y0012897D01*
X0071641Y0012897D01*
X0073776Y0012897D02*
X0075912Y0010761D01*
X0078087Y0011829D02*
X0078087Y0013964D01*
X0079154Y0015032D01*
X0081289Y0015032D01*
X0082357Y0013964D01*
X0082357Y0012897D01*
X0078087Y0012897D01*
X0078087Y0011829D02*
X0079154Y0010761D01*
X0081289Y0010761D01*
X0084532Y0015032D02*
X0086667Y0010761D01*
X0088803Y0015032D01*
X0090978Y0011829D02*
X0092045Y0011829D01*
X0092045Y0010761D01*
X0090978Y0010761D01*
X0090978Y0011829D01*
X0094200Y0010761D02*
X0097403Y0010761D01*
X0098471Y0011829D01*
X0098471Y0012897D01*
X0097403Y0013964D01*
X0094200Y0013964D01*
X0094200Y0010761D02*
X0094200Y0017167D01*
X0097403Y0017167D01*
X0098471Y0016099D01*
X0098471Y0015032D01*
X0097403Y0013964D01*
X0100646Y0013964D02*
X0100646Y0011829D01*
X0101714Y0010761D01*
X0103849Y0010761D01*
X0104916Y0012897D02*
X0100646Y0012897D01*
X0100646Y0013964D02*
X0101714Y0015032D01*
X0103849Y0015032D01*
X0104916Y0013964D01*
X0104916Y0012897D01*
X0107091Y0015032D02*
X0109227Y0015032D01*
X0108159Y0016099D02*
X0108159Y0011829D01*
X0109227Y0010761D01*
X0111388Y0011829D02*
X0112456Y0012897D01*
X0115659Y0012897D01*
X0115659Y0013964D02*
X0115659Y0010761D01*
X0112456Y0010761D01*
X0111388Y0011829D01*
X0112456Y0015032D02*
X0114591Y0015032D01*
X0115659Y0013964D01*
D11*
X0117404Y0145501D02*
X0119074Y0144765D01*
X0120726Y0143987D01*
X0122358Y0143170D01*
X0123970Y0142313D01*
X0125560Y0141416D01*
X0127128Y0140481D01*
X0128672Y0139508D01*
X0130192Y0138497D01*
X0131687Y0137449D01*
X0133155Y0136365D01*
X0134597Y0135245D01*
X0136011Y0134090D01*
X0137396Y0132901D01*
X0138751Y0131678D01*
X0140076Y0130422D01*
X0141370Y0129135D01*
X0142632Y0127816D01*
X0143861Y0126466D01*
X0145057Y0125087D01*
X0146218Y0123679D01*
X0147345Y0122242D01*
X0148436Y0120779D01*
X0149491Y0119289D01*
X0150510Y0117774D01*
X0151490Y0116235D01*
X0152433Y0114671D01*
X0153337Y0113086D01*
X0154202Y0111478D01*
X0155028Y0109850D01*
X0155813Y0108202D01*
X0156557Y0106535D01*
X0157261Y0104851D01*
X0157923Y0103149D01*
X0158543Y0101432D01*
X0159121Y0099701D01*
X0159656Y0097956D01*
X0160148Y0096198D01*
X0160597Y0094428D01*
X0161003Y0092649D01*
X0161364Y0090859D01*
X0161682Y0089062D01*
X0161956Y0087257D01*
X0162185Y0085446D01*
X0162370Y0083630D01*
X0162510Y0081810D01*
X0162606Y0079987D01*
X0162657Y0078162D01*
X0162663Y0076337D01*
X0162625Y0074511D01*
X0162541Y0072688D01*
X0162413Y0070867D01*
X0162241Y0069050D01*
X0162024Y0067237D01*
X0161762Y0065430D01*
X0161457Y0063631D01*
X0161107Y0061839D01*
X0160714Y0060057D01*
X0160277Y0058284D01*
X0159797Y0056523D01*
X0159273Y0054774D01*
X0158707Y0053039D01*
X0158099Y0051318D01*
X0157449Y0049612D01*
X0156757Y0047923D01*
X0156023Y0046251D01*
X0155249Y0044598D01*
X0154435Y0042964D01*
X0153581Y0041350D01*
X0152688Y0039758D01*
X0151756Y0038189D01*
X0150786Y0036643D01*
X0149778Y0035121D01*
X0148733Y0033624D01*
X0147652Y0032153D01*
X0146535Y0030709D01*
X0145383Y0029293D01*
X0144196Y0027906D01*
X0142976Y0026548D01*
X0141723Y0025220D01*
X0140438Y0023924D01*
X0139122Y0022659D01*
X0137775Y0021427D01*
X0136398Y0020229D01*
X0134992Y0019064D01*
X0133558Y0017935D01*
X0132097Y0016840D01*
X0130609Y0015782D01*
X0129096Y0014761D01*
X0127558Y0013777D01*
X0125997Y0012832D01*
X0124413Y0011924D01*
X0122807Y0011056D01*
X0121181Y0010227D01*
X0119534Y0009439D01*
X0117869Y0008691D01*
X0116186Y0007984D01*
X0114486Y0007319D01*
X0112771Y0006695D01*
X0111040Y0006114D01*
X0109296Y0005575D01*
X0107539Y0005080D01*
X0105771Y0004627D01*
X0103992Y0004218D01*
X0102203Y0003853D01*
X0100406Y0003531D01*
X0098602Y0003254D01*
X0096791Y0003021D01*
X0094976Y0002832D01*
X0093156Y0002689D01*
X0091333Y0002589D01*
X0089508Y0002535D01*
X0087683Y0002525D01*
X0085858Y0002560D01*
X0084034Y0002639D01*
X0082213Y0002763D01*
X0080395Y0002932D01*
X0078582Y0003146D01*
X0076775Y0003403D01*
X0074975Y0003705D01*
X0073182Y0004051D01*
X0071399Y0004441D01*
X0069626Y0004875D01*
X0067864Y0005351D01*
X0066114Y0005871D01*
X0064377Y0006434D01*
X0062655Y0007039D01*
X0060948Y0007686D01*
X0059257Y0008374D01*
X0057584Y0009104D01*
X0055929Y0009875D01*
X0054294Y0010686D01*
X0052679Y0011536D01*
X0051085Y0012427D01*
X0049513Y0013355D01*
X0047965Y0014323D01*
X0046441Y0015327D01*
X0044942Y0016369D01*
X0043469Y0017448D01*
X0042023Y0018562D01*
X0040605Y0019711D01*
X0039215Y0020894D01*
X0037855Y0022112D01*
X0036525Y0023362D01*
X0035226Y0024644D01*
X0033958Y0025958D01*
X0032724Y0027303D01*
X0031523Y0028677D01*
X0030355Y0030081D01*
X0029223Y0031513D01*
X0028126Y0032972D01*
X0027065Y0034457D01*
X0026040Y0035968D01*
X0025054Y0037504D01*
X0024105Y0039063D01*
X0023194Y0040645D01*
X0022323Y0042249D01*
X0021491Y0043874D01*
X0020699Y0045519D01*
X0019948Y0047183D01*
X0019238Y0048865D01*
X0018569Y0050563D01*
X0017942Y0052278D01*
X0017357Y0054007D01*
X0016815Y0055750D01*
X0016316Y0057506D01*
X0015860Y0059273D01*
X0015447Y0061052D01*
X0015078Y0062839D01*
X0014753Y0064636D01*
X0014472Y0066439D01*
X0014235Y0068249D01*
X0014043Y0070065D01*
X0013896Y0071884D01*
X0013793Y0073707D01*
X0013734Y0075531D01*
X0013721Y0077357D01*
X0013752Y0079182D01*
X0013828Y0081006D01*
X0013949Y0082827D01*
X0014114Y0084645D01*
X0014324Y0086459D01*
X0014578Y0088266D01*
X0014876Y0090067D01*
X0015218Y0091860D01*
X0015605Y0093644D01*
X0016035Y0095419D01*
X0016508Y0097182D01*
X0017024Y0098933D01*
X0017583Y0100670D01*
X0018185Y0102394D01*
X0018828Y0104102D01*
X0019513Y0105794D01*
X0020240Y0107469D01*
X0021007Y0109125D01*
X0021815Y0110762D01*
X0022662Y0112379D01*
X0023549Y0113974D01*
X0024475Y0115548D01*
X0025439Y0117098D01*
X0026441Y0118624D01*
X0027480Y0120125D01*
X0028555Y0121600D01*
X0029666Y0123048D01*
X0030812Y0124469D01*
X0031993Y0125861D01*
X0033208Y0127224D01*
X0034455Y0128557D01*
X0035735Y0129858D01*
X0037047Y0131128D01*
X0038389Y0132365D01*
X0039761Y0133569D01*
X0041162Y0134740D01*
X0042591Y0135875D01*
X0044048Y0136975D01*
X0045532Y0138039D01*
X0047041Y0139066D01*
X0048574Y0140056D01*
X0050132Y0141008D01*
X0051712Y0141922D01*
X0053314Y0142797D01*
X0054938Y0143632D01*
X0056581Y0144427D01*
X0058243Y0145181D01*
X0059923Y0145895D01*
X0059924Y0145894D02*
X0117798Y0145894D01*
D12*
X0117601Y0145383D02*
X0117601Y0094595D01*
X0060121Y0094595D01*
X0060121Y0145383D01*
X0117601Y0145383D01*
X0044148Y0103824D02*
X0044125Y0098009D01*
X0037219Y0097985D01*
X0037219Y0103831D01*
X0044148Y0103824D01*
X0043703Y0103658D02*
X0043703Y0101194D01*
X0043888Y0101194D01*
X0043888Y0101099D01*
X0041841Y0101099D01*
X0041841Y0103587D01*
X0041818Y0103587D01*
X0041979Y0103706D02*
X0043633Y0103706D01*
X0043633Y0101422D01*
X0042916Y0110580D02*
X0034097Y0110580D01*
X0034097Y0116052D01*
X0042916Y0116052D01*
X0042916Y0110580D01*
X0077837Y0067430D02*
X0077837Y0046957D01*
X0098310Y0046957D01*
X0098310Y0067430D01*
X0077837Y0067430D01*
X0080104Y0062706D02*
X0080106Y0062787D01*
X0080112Y0062868D01*
X0080122Y0062949D01*
X0080136Y0063029D01*
X0080153Y0063109D01*
X0080175Y0063187D01*
X0080200Y0063264D01*
X0080229Y0063340D01*
X0080262Y0063415D01*
X0080298Y0063488D01*
X0080338Y0063559D01*
X0080381Y0063627D01*
X0080428Y0063694D01*
X0080477Y0063759D01*
X0080530Y0063820D01*
X0080586Y0063880D01*
X0080645Y0063936D01*
X0080706Y0063990D01*
X0080770Y0064040D01*
X0080836Y0064087D01*
X0080904Y0064132D01*
X0080974Y0064172D01*
X0081047Y0064209D01*
X0081121Y0064243D01*
X0081196Y0064273D01*
X0081273Y0064299D01*
X0081352Y0064322D01*
X0081431Y0064340D01*
X0081511Y0064355D01*
X0081591Y0064366D01*
X0081672Y0064373D01*
X0081754Y0064376D01*
X0081835Y0064375D01*
X0081916Y0064370D01*
X0081997Y0064361D01*
X0082077Y0064348D01*
X0082157Y0064332D01*
X0082236Y0064311D01*
X0082313Y0064287D01*
X0082390Y0064258D01*
X0082464Y0064227D01*
X0082538Y0064191D01*
X0082609Y0064152D01*
X0082678Y0064110D01*
X0082746Y0064064D01*
X0082811Y0064015D01*
X0082873Y0063963D01*
X0082933Y0063908D01*
X0082990Y0063850D01*
X0083045Y0063790D01*
X0083096Y0063727D01*
X0083144Y0063661D01*
X0083189Y0063593D01*
X0083230Y0063523D01*
X0083268Y0063451D01*
X0083303Y0063378D01*
X0083334Y0063303D01*
X0083361Y0063226D01*
X0083384Y0063148D01*
X0083404Y0063069D01*
X0083420Y0062989D01*
X0083432Y0062909D01*
X0083440Y0062828D01*
X0083444Y0062747D01*
X0083444Y0062665D01*
X0083440Y0062584D01*
X0083432Y0062503D01*
X0083420Y0062423D01*
X0083404Y0062343D01*
X0083384Y0062264D01*
X0083361Y0062186D01*
X0083334Y0062109D01*
X0083303Y0062034D01*
X0083268Y0061961D01*
X0083230Y0061889D01*
X0083189Y0061819D01*
X0083144Y0061751D01*
X0083096Y0061685D01*
X0083045Y0061622D01*
X0082990Y0061562D01*
X0082933Y0061504D01*
X0082873Y0061449D01*
X0082811Y0061397D01*
X0082746Y0061348D01*
X0082678Y0061302D01*
X0082609Y0061260D01*
X0082538Y0061221D01*
X0082464Y0061185D01*
X0082390Y0061154D01*
X0082313Y0061125D01*
X0082236Y0061101D01*
X0082157Y0061080D01*
X0082077Y0061064D01*
X0081997Y0061051D01*
X0081916Y0061042D01*
X0081835Y0061037D01*
X0081754Y0061036D01*
X0081672Y0061039D01*
X0081591Y0061046D01*
X0081511Y0061057D01*
X0081431Y0061072D01*
X0081352Y0061090D01*
X0081273Y0061113D01*
X0081196Y0061139D01*
X0081121Y0061169D01*
X0081047Y0061203D01*
X0080974Y0061240D01*
X0080904Y0061280D01*
X0080836Y0061325D01*
X0080770Y0061372D01*
X0080706Y0061422D01*
X0080645Y0061476D01*
X0080586Y0061532D01*
X0080530Y0061592D01*
X0080477Y0061653D01*
X0080428Y0061718D01*
X0080381Y0061785D01*
X0080338Y0061853D01*
X0080298Y0061924D01*
X0080262Y0061997D01*
X0080229Y0062072D01*
X0080200Y0062148D01*
X0080175Y0062225D01*
X0080153Y0062303D01*
X0080136Y0062383D01*
X0080122Y0062463D01*
X0080112Y0062544D01*
X0080106Y0062625D01*
X0080104Y0062706D01*
X0080104Y0052076D02*
X0080106Y0052157D01*
X0080112Y0052238D01*
X0080122Y0052319D01*
X0080136Y0052399D01*
X0080153Y0052479D01*
X0080175Y0052557D01*
X0080200Y0052634D01*
X0080229Y0052710D01*
X0080262Y0052785D01*
X0080298Y0052858D01*
X0080338Y0052929D01*
X0080381Y0052997D01*
X0080428Y0053064D01*
X0080477Y0053129D01*
X0080530Y0053190D01*
X0080586Y0053250D01*
X0080645Y0053306D01*
X0080706Y0053360D01*
X0080770Y0053410D01*
X0080836Y0053457D01*
X0080904Y0053502D01*
X0080974Y0053542D01*
X0081047Y0053579D01*
X0081121Y0053613D01*
X0081196Y0053643D01*
X0081273Y0053669D01*
X0081352Y0053692D01*
X0081431Y0053710D01*
X0081511Y0053725D01*
X0081591Y0053736D01*
X0081672Y0053743D01*
X0081754Y0053746D01*
X0081835Y0053745D01*
X0081916Y0053740D01*
X0081997Y0053731D01*
X0082077Y0053718D01*
X0082157Y0053702D01*
X0082236Y0053681D01*
X0082313Y0053657D01*
X0082390Y0053628D01*
X0082464Y0053597D01*
X0082538Y0053561D01*
X0082609Y0053522D01*
X0082678Y0053480D01*
X0082746Y0053434D01*
X0082811Y0053385D01*
X0082873Y0053333D01*
X0082933Y0053278D01*
X0082990Y0053220D01*
X0083045Y0053160D01*
X0083096Y0053097D01*
X0083144Y0053031D01*
X0083189Y0052963D01*
X0083230Y0052893D01*
X0083268Y0052821D01*
X0083303Y0052748D01*
X0083334Y0052673D01*
X0083361Y0052596D01*
X0083384Y0052518D01*
X0083404Y0052439D01*
X0083420Y0052359D01*
X0083432Y0052279D01*
X0083440Y0052198D01*
X0083444Y0052117D01*
X0083444Y0052035D01*
X0083440Y0051954D01*
X0083432Y0051873D01*
X0083420Y0051793D01*
X0083404Y0051713D01*
X0083384Y0051634D01*
X0083361Y0051556D01*
X0083334Y0051479D01*
X0083303Y0051404D01*
X0083268Y0051331D01*
X0083230Y0051259D01*
X0083189Y0051189D01*
X0083144Y0051121D01*
X0083096Y0051055D01*
X0083045Y0050992D01*
X0082990Y0050932D01*
X0082933Y0050874D01*
X0082873Y0050819D01*
X0082811Y0050767D01*
X0082746Y0050718D01*
X0082678Y0050672D01*
X0082609Y0050630D01*
X0082538Y0050591D01*
X0082464Y0050555D01*
X0082390Y0050524D01*
X0082313Y0050495D01*
X0082236Y0050471D01*
X0082157Y0050450D01*
X0082077Y0050434D01*
X0081997Y0050421D01*
X0081916Y0050412D01*
X0081835Y0050407D01*
X0081754Y0050406D01*
X0081672Y0050409D01*
X0081591Y0050416D01*
X0081511Y0050427D01*
X0081431Y0050442D01*
X0081352Y0050460D01*
X0081273Y0050483D01*
X0081196Y0050509D01*
X0081121Y0050539D01*
X0081047Y0050573D01*
X0080974Y0050610D01*
X0080904Y0050650D01*
X0080836Y0050695D01*
X0080770Y0050742D01*
X0080706Y0050792D01*
X0080645Y0050846D01*
X0080586Y0050902D01*
X0080530Y0050962D01*
X0080477Y0051023D01*
X0080428Y0051088D01*
X0080381Y0051155D01*
X0080338Y0051223D01*
X0080298Y0051294D01*
X0080262Y0051367D01*
X0080229Y0051442D01*
X0080200Y0051518D01*
X0080175Y0051595D01*
X0080153Y0051673D01*
X0080136Y0051753D01*
X0080122Y0051833D01*
X0080112Y0051914D01*
X0080106Y0051995D01*
X0080104Y0052076D01*
X0129097Y0051682D02*
X0129097Y0065855D01*
X0153703Y0065855D01*
X0153703Y0051682D01*
X0129097Y0051682D01*
D13*
X0041146Y0051154D02*
X0039612Y0051154D01*
X0038844Y0051921D01*
X0038844Y0054990D01*
X0039612Y0055757D01*
X0041146Y0055757D01*
X0041914Y0054990D01*
X0043448Y0053455D02*
X0046518Y0053455D01*
X0045750Y0051154D02*
X0045750Y0055757D01*
X0043448Y0053455D01*
X0041914Y0051921D02*
X0041146Y0051154D01*
X0038865Y0079146D02*
X0037331Y0079146D01*
X0036563Y0079913D01*
X0035029Y0079913D02*
X0034261Y0079146D01*
X0032727Y0079146D01*
X0031959Y0079913D01*
X0031959Y0082982D01*
X0032727Y0083750D01*
X0034261Y0083750D01*
X0035029Y0082982D01*
X0036563Y0082982D02*
X0037331Y0083750D01*
X0038865Y0083750D01*
X0039633Y0082982D01*
X0039633Y0082215D01*
X0038865Y0081448D01*
X0039633Y0080680D01*
X0039633Y0079913D01*
X0038865Y0079146D01*
X0038865Y0081448D02*
X0038098Y0081448D01*
X0025984Y0096744D02*
X0022915Y0096744D01*
X0022148Y0097511D01*
X0022148Y0099046D01*
X0022915Y0099813D01*
X0023682Y0101348D02*
X0022148Y0102883D01*
X0026751Y0102883D01*
X0026751Y0104417D02*
X0026751Y0101348D01*
X0025984Y0099813D02*
X0026751Y0099046D01*
X0026751Y0097511D01*
X0025984Y0096744D01*
X0070951Y0149913D02*
X0073253Y0149913D01*
X0074020Y0150681D01*
X0074020Y0151448D01*
X0073253Y0152215D01*
X0070951Y0152215D01*
X0070951Y0149913D02*
X0070951Y0154517D01*
X0073253Y0154517D01*
X0074020Y0153750D01*
X0074020Y0152983D01*
X0073253Y0152215D01*
X0075555Y0149913D02*
X0078624Y0149913D01*
X0080159Y0149913D02*
X0083228Y0149913D01*
X0084762Y0149913D02*
X0087832Y0149913D01*
X0089366Y0149913D02*
X0092436Y0152983D01*
X0092436Y0153750D01*
X0091668Y0154517D01*
X0090134Y0154517D01*
X0089366Y0153750D01*
X0086297Y0154517D02*
X0086297Y0149913D01*
X0089366Y0149913D02*
X0092436Y0149913D01*
X0093970Y0149913D02*
X0097040Y0149913D01*
X0098574Y0149913D02*
X0101643Y0149913D01*
X0103178Y0149913D02*
X0103178Y0154517D01*
X0105480Y0154517D01*
X0106247Y0153750D01*
X0106247Y0152215D01*
X0105480Y0151448D01*
X0103178Y0151448D01*
X0104713Y0151448D02*
X0106247Y0149913D01*
X0098574Y0149913D02*
X0098574Y0154517D01*
X0095505Y0154517D02*
X0095505Y0149913D01*
X0093970Y0152983D02*
X0095505Y0154517D01*
X0086297Y0154517D02*
X0084762Y0152983D01*
X0083228Y0154517D02*
X0080159Y0154517D01*
X0080159Y0149913D01*
X0080159Y0152215D02*
X0081693Y0152215D01*
X0075555Y0154517D02*
X0075555Y0149913D01*
X0125910Y0054320D02*
X0125910Y0049717D01*
X0124376Y0049717D02*
X0127445Y0049717D01*
X0124376Y0052786D02*
X0125910Y0054320D01*
X0110096Y0035285D02*
X0110096Y0030681D01*
X0108562Y0030681D02*
X0111631Y0030681D01*
X0108562Y0033750D02*
X0110096Y0035285D01*
X0107027Y0029914D02*
X0103958Y0029914D01*
X0102423Y0031448D02*
X0101656Y0030681D01*
X0100121Y0030681D01*
X0099354Y0031448D01*
X0102423Y0034518D01*
X0102423Y0031448D01*
X0099354Y0031448D02*
X0099354Y0034518D01*
X0100121Y0035285D01*
X0101656Y0035285D01*
X0102423Y0034518D01*
X0097819Y0034518D02*
X0097819Y0032983D01*
X0097052Y0032216D01*
X0094750Y0032216D01*
X0093560Y0031448D02*
X0092793Y0030681D01*
X0091258Y0030681D01*
X0090491Y0031448D01*
X0093560Y0034518D01*
X0093560Y0031448D01*
X0094750Y0030681D02*
X0094750Y0035285D01*
X0097052Y0035285D01*
X0097819Y0034518D01*
X0093560Y0034518D02*
X0092793Y0035285D01*
X0091258Y0035285D01*
X0090491Y0034518D01*
X0090491Y0031448D01*
X0088956Y0029914D02*
X0085887Y0029914D01*
X0084352Y0031448D02*
X0083585Y0030681D01*
X0082050Y0030681D01*
X0081283Y0031448D01*
X0084352Y0034518D01*
X0084352Y0031448D01*
X0081283Y0031448D02*
X0081283Y0034518D01*
X0082050Y0035285D01*
X0083585Y0035285D01*
X0084352Y0034518D01*
X0079748Y0034518D02*
X0079748Y0032983D01*
X0078981Y0032216D01*
X0076679Y0032216D01*
X0076679Y0030681D02*
X0076679Y0035285D01*
X0078981Y0035285D01*
X0079748Y0034518D01*
D14*
X0079570Y0029457D03*
X0079570Y0026505D03*
X0097640Y0026505D03*
X0097640Y0029457D03*
D15*
X0097640Y0027981D03*
X0079570Y0027981D03*
D16*
X0130411Y0086622D02*
X0130411Y0088123D01*
X0131162Y0088123D01*
X0131412Y0087873D01*
X0131412Y0087372D01*
X0131162Y0087122D01*
X0130411Y0087122D01*
X0130911Y0087122D02*
X0131412Y0086622D01*
X0131884Y0086622D02*
X0132885Y0087623D01*
X0132885Y0087873D01*
X0132635Y0088123D01*
X0132134Y0088123D01*
X0131884Y0087873D01*
X0131884Y0086622D02*
X0132885Y0086622D01*
X0132674Y0097645D02*
X0132174Y0097645D01*
X0131924Y0097895D01*
X0132924Y0098896D01*
X0132924Y0097895D01*
X0132674Y0097645D01*
X0131924Y0097895D02*
X0131924Y0098896D01*
X0132174Y0099147D01*
X0132674Y0099147D01*
X0132924Y0098896D01*
X0131451Y0098896D02*
X0131451Y0098396D01*
X0131201Y0098146D01*
X0130450Y0098146D01*
X0130951Y0098146D02*
X0131451Y0097645D01*
X0130450Y0097645D02*
X0130450Y0099147D01*
X0131201Y0099147D01*
X0131451Y0098896D01*
X0131372Y0109063D02*
X0130872Y0109563D01*
X0131122Y0109563D02*
X0130372Y0109563D01*
X0130372Y0109063D02*
X0130372Y0110564D01*
X0131122Y0110564D01*
X0131372Y0110314D01*
X0131372Y0109813D01*
X0131122Y0109563D01*
X0131845Y0109313D02*
X0132095Y0109063D01*
X0132595Y0109063D01*
X0132846Y0109313D01*
X0132846Y0109563D01*
X0132595Y0109813D01*
X0132345Y0109813D01*
X0132595Y0109813D02*
X0132846Y0110063D01*
X0132846Y0110314D01*
X0132595Y0110564D01*
X0132095Y0110564D01*
X0131845Y0110314D01*
X0131662Y0120086D02*
X0131412Y0120336D01*
X0131412Y0120837D01*
X0132162Y0120837D01*
X0132413Y0120587D01*
X0132413Y0120336D01*
X0132162Y0120086D01*
X0131662Y0120086D01*
X0130939Y0120086D02*
X0130439Y0120587D01*
X0130689Y0120587D02*
X0129938Y0120587D01*
X0129938Y0120086D02*
X0129938Y0121587D01*
X0130689Y0121587D01*
X0130939Y0121337D01*
X0130939Y0120837D01*
X0130689Y0120587D01*
X0131412Y0120837D02*
X0131912Y0121337D01*
X0132413Y0121587D01*
D17*
X0133388Y0117036D03*
X0133822Y0106013D03*
X0133900Y0094595D03*
X0133861Y0083572D03*
D18*
X0086052Y0074762D02*
X0085568Y0075246D01*
X0084600Y0075246D01*
X0084117Y0074762D01*
X0083105Y0074762D02*
X0082621Y0075246D01*
X0081654Y0075246D01*
X0081170Y0074762D01*
X0081170Y0074279D01*
X0081654Y0073795D01*
X0082621Y0073795D01*
X0083105Y0073311D01*
X0083105Y0072827D01*
X0082621Y0072344D01*
X0081654Y0072344D01*
X0081170Y0072827D01*
X0080158Y0072827D02*
X0080158Y0075246D01*
X0082137Y0075730D02*
X0082137Y0071860D01*
X0084117Y0072344D02*
X0086052Y0074279D01*
X0086052Y0074762D01*
X0086052Y0072344D02*
X0084117Y0072344D01*
X0080158Y0072827D02*
X0079675Y0072344D01*
X0078707Y0072344D01*
X0078223Y0072827D01*
X0078223Y0075246D01*
D19*
X0132443Y0058375D02*
X0132445Y0058463D01*
X0132451Y0058551D01*
X0132461Y0058639D01*
X0132475Y0058727D01*
X0132492Y0058813D01*
X0132514Y0058899D01*
X0132539Y0058983D01*
X0132569Y0059067D01*
X0132601Y0059149D01*
X0132638Y0059229D01*
X0132678Y0059308D01*
X0132722Y0059385D01*
X0132769Y0059460D01*
X0132819Y0059532D01*
X0132873Y0059603D01*
X0132929Y0059670D01*
X0132989Y0059736D01*
X0133051Y0059798D01*
X0133117Y0059858D01*
X0133184Y0059914D01*
X0133255Y0059968D01*
X0133327Y0060018D01*
X0133402Y0060065D01*
X0133479Y0060109D01*
X0133558Y0060149D01*
X0133638Y0060186D01*
X0133720Y0060218D01*
X0133804Y0060248D01*
X0133888Y0060273D01*
X0133974Y0060295D01*
X0134060Y0060312D01*
X0134148Y0060326D01*
X0134236Y0060336D01*
X0134324Y0060342D01*
X0134412Y0060344D01*
X0134500Y0060342D01*
X0134588Y0060336D01*
X0134676Y0060326D01*
X0134764Y0060312D01*
X0134850Y0060295D01*
X0134936Y0060273D01*
X0135020Y0060248D01*
X0135104Y0060218D01*
X0135186Y0060186D01*
X0135266Y0060149D01*
X0135345Y0060109D01*
X0135422Y0060065D01*
X0135497Y0060018D01*
X0135569Y0059968D01*
X0135640Y0059914D01*
X0135707Y0059858D01*
X0135773Y0059798D01*
X0135835Y0059736D01*
X0135895Y0059670D01*
X0135951Y0059603D01*
X0136005Y0059532D01*
X0136055Y0059460D01*
X0136102Y0059385D01*
X0136146Y0059308D01*
X0136186Y0059229D01*
X0136223Y0059149D01*
X0136255Y0059067D01*
X0136285Y0058983D01*
X0136310Y0058899D01*
X0136332Y0058813D01*
X0136349Y0058727D01*
X0136363Y0058639D01*
X0136373Y0058551D01*
X0136379Y0058463D01*
X0136381Y0058375D01*
X0136379Y0058287D01*
X0136373Y0058199D01*
X0136363Y0058111D01*
X0136349Y0058023D01*
X0136332Y0057937D01*
X0136310Y0057851D01*
X0136285Y0057767D01*
X0136255Y0057683D01*
X0136223Y0057601D01*
X0136186Y0057521D01*
X0136146Y0057442D01*
X0136102Y0057365D01*
X0136055Y0057290D01*
X0136005Y0057218D01*
X0135951Y0057147D01*
X0135895Y0057080D01*
X0135835Y0057014D01*
X0135773Y0056952D01*
X0135707Y0056892D01*
X0135640Y0056836D01*
X0135569Y0056782D01*
X0135497Y0056732D01*
X0135422Y0056685D01*
X0135345Y0056641D01*
X0135266Y0056601D01*
X0135186Y0056564D01*
X0135104Y0056532D01*
X0135020Y0056502D01*
X0134936Y0056477D01*
X0134850Y0056455D01*
X0134764Y0056438D01*
X0134676Y0056424D01*
X0134588Y0056414D01*
X0134500Y0056408D01*
X0134412Y0056406D01*
X0134324Y0056408D01*
X0134236Y0056414D01*
X0134148Y0056424D01*
X0134060Y0056438D01*
X0133974Y0056455D01*
X0133888Y0056477D01*
X0133804Y0056502D01*
X0133720Y0056532D01*
X0133638Y0056564D01*
X0133558Y0056601D01*
X0133479Y0056641D01*
X0133402Y0056685D01*
X0133327Y0056732D01*
X0133255Y0056782D01*
X0133184Y0056836D01*
X0133117Y0056892D01*
X0133051Y0056952D01*
X0132989Y0057014D01*
X0132929Y0057080D01*
X0132873Y0057147D01*
X0132819Y0057218D01*
X0132769Y0057290D01*
X0132722Y0057365D01*
X0132678Y0057442D01*
X0132638Y0057521D01*
X0132601Y0057601D01*
X0132569Y0057683D01*
X0132539Y0057767D01*
X0132514Y0057851D01*
X0132492Y0057937D01*
X0132475Y0058023D01*
X0132461Y0058111D01*
X0132451Y0058199D01*
X0132445Y0058287D01*
X0132443Y0058375D01*
X0146616Y0058375D02*
X0146618Y0058463D01*
X0146624Y0058551D01*
X0146634Y0058639D01*
X0146648Y0058727D01*
X0146665Y0058813D01*
X0146687Y0058899D01*
X0146712Y0058983D01*
X0146742Y0059067D01*
X0146774Y0059149D01*
X0146811Y0059229D01*
X0146851Y0059308D01*
X0146895Y0059385D01*
X0146942Y0059460D01*
X0146992Y0059532D01*
X0147046Y0059603D01*
X0147102Y0059670D01*
X0147162Y0059736D01*
X0147224Y0059798D01*
X0147290Y0059858D01*
X0147357Y0059914D01*
X0147428Y0059968D01*
X0147500Y0060018D01*
X0147575Y0060065D01*
X0147652Y0060109D01*
X0147731Y0060149D01*
X0147811Y0060186D01*
X0147893Y0060218D01*
X0147977Y0060248D01*
X0148061Y0060273D01*
X0148147Y0060295D01*
X0148233Y0060312D01*
X0148321Y0060326D01*
X0148409Y0060336D01*
X0148497Y0060342D01*
X0148585Y0060344D01*
X0148673Y0060342D01*
X0148761Y0060336D01*
X0148849Y0060326D01*
X0148937Y0060312D01*
X0149023Y0060295D01*
X0149109Y0060273D01*
X0149193Y0060248D01*
X0149277Y0060218D01*
X0149359Y0060186D01*
X0149439Y0060149D01*
X0149518Y0060109D01*
X0149595Y0060065D01*
X0149670Y0060018D01*
X0149742Y0059968D01*
X0149813Y0059914D01*
X0149880Y0059858D01*
X0149946Y0059798D01*
X0150008Y0059736D01*
X0150068Y0059670D01*
X0150124Y0059603D01*
X0150178Y0059532D01*
X0150228Y0059460D01*
X0150275Y0059385D01*
X0150319Y0059308D01*
X0150359Y0059229D01*
X0150396Y0059149D01*
X0150428Y0059067D01*
X0150458Y0058983D01*
X0150483Y0058899D01*
X0150505Y0058813D01*
X0150522Y0058727D01*
X0150536Y0058639D01*
X0150546Y0058551D01*
X0150552Y0058463D01*
X0150554Y0058375D01*
X0150552Y0058287D01*
X0150546Y0058199D01*
X0150536Y0058111D01*
X0150522Y0058023D01*
X0150505Y0057937D01*
X0150483Y0057851D01*
X0150458Y0057767D01*
X0150428Y0057683D01*
X0150396Y0057601D01*
X0150359Y0057521D01*
X0150319Y0057442D01*
X0150275Y0057365D01*
X0150228Y0057290D01*
X0150178Y0057218D01*
X0150124Y0057147D01*
X0150068Y0057080D01*
X0150008Y0057014D01*
X0149946Y0056952D01*
X0149880Y0056892D01*
X0149813Y0056836D01*
X0149742Y0056782D01*
X0149670Y0056732D01*
X0149595Y0056685D01*
X0149518Y0056641D01*
X0149439Y0056601D01*
X0149359Y0056564D01*
X0149277Y0056532D01*
X0149193Y0056502D01*
X0149109Y0056477D01*
X0149023Y0056455D01*
X0148937Y0056438D01*
X0148849Y0056424D01*
X0148761Y0056414D01*
X0148673Y0056408D01*
X0148585Y0056406D01*
X0148497Y0056408D01*
X0148409Y0056414D01*
X0148321Y0056424D01*
X0148233Y0056438D01*
X0148147Y0056455D01*
X0148061Y0056477D01*
X0147977Y0056502D01*
X0147893Y0056532D01*
X0147811Y0056564D01*
X0147731Y0056601D01*
X0147652Y0056641D01*
X0147575Y0056685D01*
X0147500Y0056732D01*
X0147428Y0056782D01*
X0147357Y0056836D01*
X0147290Y0056892D01*
X0147224Y0056952D01*
X0147162Y0057014D01*
X0147102Y0057080D01*
X0147046Y0057147D01*
X0146992Y0057218D01*
X0146942Y0057290D01*
X0146895Y0057365D01*
X0146851Y0057442D01*
X0146811Y0057521D01*
X0146774Y0057601D01*
X0146742Y0057683D01*
X0146712Y0057767D01*
X0146687Y0057851D01*
X0146665Y0057937D01*
X0146648Y0058023D01*
X0146634Y0058111D01*
X0146624Y0058199D01*
X0146618Y0058287D01*
X0146616Y0058375D01*
M02*
