G75*
%MOIN*%
%OFA0B0*%
%FSLAX25Y25*%
%IPPOS*%
%LPD*%
%AMOC8*
5,1,8,0,0,1.08239X$1,22.5*
%
%ADD10C,0.01600*%
%ADD11C,0.00300*%
%ADD12C,0.00600*%
%ADD13C,0.00800*%
%ADD14C,0.00100*%
%ADD15C,0.02200*%
%ADD16C,0.00400*%
%ADD17R,0.00984X0.00886*%
%ADD18R,0.01800X0.03000*%
%ADD19C,0.00500*%
%ADD20C,0.00000*%
%ADD21R,0.00035X0.00770*%
%ADD22R,0.00035X0.01400*%
%ADD23R,0.00035X0.01855*%
%ADD24R,0.00035X0.02170*%
%ADD25R,0.00035X0.02485*%
%ADD26R,0.00035X0.02765*%
%ADD27R,0.00035X0.02975*%
%ADD28R,0.00035X0.03220*%
%ADD29R,0.00035X0.03395*%
%ADD30R,0.00035X0.03605*%
%ADD31R,0.00035X0.03780*%
%ADD32R,0.00035X0.03955*%
%ADD33R,0.00035X0.04130*%
%ADD34R,0.00035X0.04270*%
%ADD35R,0.00035X0.04375*%
%ADD36R,0.00035X0.04550*%
%ADD37R,0.00035X0.04690*%
%ADD38R,0.00035X0.04865*%
%ADD39R,0.00035X0.04970*%
%ADD40R,0.00035X0.05110*%
%ADD41R,0.00035X0.05215*%
%ADD42R,0.00035X0.05355*%
%ADD43R,0.00035X0.05460*%
%ADD44R,0.00035X0.05600*%
%ADD45R,0.00035X0.05705*%
%ADD46R,0.00035X0.05810*%
%ADD47R,0.00035X0.05915*%
%ADD48R,0.00035X0.06055*%
%ADD49R,0.00035X0.06160*%
%ADD50R,0.00035X0.06265*%
%ADD51R,0.00035X0.06335*%
%ADD52R,0.00035X0.06440*%
%ADD53R,0.00035X0.06545*%
%ADD54R,0.00035X0.03080*%
%ADD55R,0.00035X0.02660*%
%ADD56R,0.00035X0.02870*%
%ADD57R,0.00035X0.02415*%
%ADD58R,0.00035X0.02730*%
%ADD59R,0.00035X0.02310*%
%ADD60R,0.00035X0.02695*%
%ADD61R,0.00035X0.02170*%
%ADD62R,0.00035X0.02590*%
%ADD63R,0.00035X0.02100*%
%ADD64R,0.00035X0.02520*%
%ADD65R,0.00035X0.02030*%
%ADD66R,0.00035X0.02450*%
%ADD67R,0.00035X0.01960*%
%ADD68R,0.00035X0.01890*%
%ADD69R,0.00035X0.02380*%
%ADD70R,0.00035X0.01785*%
%ADD71R,0.00035X0.01750*%
%ADD72R,0.00035X0.01715*%
%ADD73R,0.00035X0.02275*%
%ADD74R,0.00035X0.01645*%
%ADD75R,0.00035X0.02240*%
%ADD76R,0.00035X0.01610*%
%ADD77R,0.00035X0.02240*%
%ADD78R,0.00035X0.01575*%
%ADD79R,0.00035X0.01540*%
%ADD80R,0.00035X0.02205*%
%ADD81R,0.00035X0.01505*%
%ADD82R,0.00035X0.01470*%
%ADD83R,0.00035X0.01435*%
%ADD84R,0.00035X0.01365*%
%ADD85R,0.00035X0.01330*%
%ADD86R,0.00035X0.01295*%
%ADD87R,0.00035X0.01295*%
%ADD88R,0.00035X0.01260*%
%ADD89R,0.00035X0.01190*%
%ADD90R,0.00035X0.01225*%
%ADD91R,0.00035X0.00385*%
%ADD92R,0.00035X0.00980*%
%ADD93R,0.00035X0.01155*%
%ADD94R,0.00035X0.01645*%
%ADD95R,0.00035X0.01015*%
%ADD96R,0.00035X0.01050*%
%ADD97R,0.00035X0.02345*%
%ADD98R,0.00035X0.01085*%
%ADD99R,0.00035X0.02905*%
%ADD100R,0.00035X0.03045*%
%ADD101R,0.00035X0.01120*%
%ADD102R,0.00035X0.02345*%
%ADD103R,0.00035X0.03255*%
%ADD104R,0.00035X0.01120*%
%ADD105R,0.00035X0.03500*%
%ADD106R,0.00035X0.02415*%
%ADD107R,0.00035X0.03640*%
%ADD108R,0.00035X0.04900*%
%ADD109R,0.00035X0.04935*%
%ADD110R,0.00035X0.05005*%
%ADD111R,0.00035X0.01680*%
%ADD112R,0.00035X0.02065*%
%ADD113R,0.00035X0.02555*%
%ADD114R,0.00035X0.02590*%
%ADD115R,0.00035X0.02625*%
%ADD116R,0.00035X0.02695*%
%ADD117R,0.00035X0.01470*%
%ADD118R,0.00035X0.02765*%
%ADD119R,0.00035X0.02800*%
%ADD120R,0.00035X0.02835*%
%ADD121R,0.00035X0.01365*%
%ADD122R,0.00035X0.02940*%
%ADD123R,0.00035X0.03010*%
%ADD124R,0.00035X0.03045*%
%ADD125R,0.00035X0.03115*%
%ADD126R,0.00035X0.03150*%
%ADD127R,0.00035X0.03185*%
%ADD128R,0.00035X0.03220*%
%ADD129R,0.00035X0.01190*%
%ADD130R,0.00035X0.03290*%
%ADD131R,0.00035X0.03325*%
%ADD132R,0.00035X0.03360*%
%ADD133R,0.00035X0.03430*%
%ADD134R,0.00035X0.03465*%
%ADD135R,0.00035X0.03535*%
%ADD136R,0.00035X0.03570*%
%ADD137R,0.00035X0.03675*%
%ADD138R,0.00035X0.03710*%
%ADD139R,0.00035X0.03745*%
%ADD140R,0.00035X0.03815*%
%ADD141R,0.00035X0.03850*%
%ADD142R,0.00035X0.03885*%
%ADD143R,0.00035X0.03920*%
%ADD144R,0.00035X0.03990*%
%ADD145R,0.00035X0.04025*%
%ADD146R,0.00035X0.02870*%
%ADD147R,0.00035X0.04095*%
%ADD148R,0.00035X0.04165*%
%ADD149R,0.00035X0.04200*%
%ADD150R,0.00035X0.04235*%
%ADD151R,0.00035X0.04270*%
%ADD152R,0.00035X0.01820*%
%ADD153R,0.00035X0.04305*%
%ADD154R,0.00035X0.04340*%
%ADD155R,0.00035X0.01925*%
%ADD156R,0.00035X0.04410*%
%ADD157R,0.00035X0.00945*%
%ADD158R,0.00035X0.00875*%
%ADD159R,0.00035X0.00840*%
%ADD160R,0.00035X0.02135*%
%ADD161R,0.00035X0.00805*%
%ADD162R,0.00035X0.00735*%
%ADD163R,0.00035X0.01995*%
%ADD164R,0.00035X0.02520*%
%ADD165R,0.00035X0.01540*%
%ADD166R,0.00035X0.00770*%
%ADD167R,0.00035X0.00665*%
%ADD168R,0.00035X0.00420*%
%ADD169R,0.00035X0.00910*%
%ADD170R,0.00035X0.04060*%
%ADD171R,0.00035X0.01015*%
%ADD172R,0.00035X0.03115*%
%ADD173R,0.00035X0.03395*%
%ADD174R,0.00035X0.03745*%
%ADD175R,0.00035X0.04340*%
%ADD176R,0.00035X0.04480*%
%ADD177R,0.00035X0.02065*%
%ADD178R,0.00035X0.04515*%
%ADD179R,0.00035X0.04585*%
%ADD180R,0.00035X0.04760*%
%ADD181R,0.00035X0.04830*%
%ADD182R,0.00035X0.07805*%
%ADD183R,0.00035X0.07840*%
%ADD184R,0.00035X0.07875*%
%ADD185R,0.00035X0.07910*%
%ADD186R,0.00035X0.07945*%
%ADD187R,0.00035X0.07980*%
%ADD188R,0.00035X0.08015*%
%ADD189R,0.00035X0.08050*%
%ADD190R,0.00035X0.05635*%
%ADD191R,0.00035X0.01995*%
%ADD192R,0.00035X0.01890*%
%ADD193R,0.00035X0.01715*%
%ADD194R,0.00035X0.00945*%
%ADD195R,0.00035X0.00560*%
%ADD196R,0.00035X0.01820*%
%ADD197R,0.00035X0.00700*%
%ADD198R,0.00035X0.00630*%
%ADD199R,0.00035X0.00525*%
%ADD200R,0.00035X0.00175*%
%ADD201R,0.00035X0.00595*%
%ADD202R,0.00035X0.00490*%
%ADD203R,0.00035X0.00210*%
%ADD204R,0.00035X0.00490*%
%ADD205R,0.00035X0.00315*%
%ADD206R,0.00040X0.00520*%
%ADD207R,0.00040X0.00520*%
%ADD208R,0.00040X0.00760*%
%ADD209R,0.00040X0.00640*%
%ADD210R,0.00040X0.00440*%
%ADD211R,0.00040X0.00480*%
%ADD212R,0.00040X0.00520*%
%ADD213R,0.00040X0.00520*%
%ADD214R,0.00040X0.01400*%
%ADD215R,0.00040X0.00800*%
%ADD216R,0.00040X0.00480*%
%ADD217R,0.00040X0.00960*%
%ADD218R,0.00040X0.01440*%
%ADD219R,0.00040X0.01080*%
%ADD220R,0.00040X0.01520*%
%ADD221R,0.00040X0.01440*%
%ADD222R,0.00040X0.00560*%
%ADD223R,0.00040X0.01480*%
%ADD224R,0.00040X0.01200*%
%ADD225R,0.00040X0.01560*%
%ADD226R,0.00040X0.01320*%
%ADD227R,0.00040X0.01560*%
%ADD228R,0.00040X0.01520*%
%ADD229R,0.00040X0.00600*%
%ADD230R,0.00040X0.00560*%
%ADD231R,0.00040X0.01400*%
%ADD232R,0.00040X0.01600*%
%ADD233R,0.00040X0.00600*%
%ADD234R,0.00040X0.00640*%
%ADD235R,0.00040X0.01640*%
%ADD236R,0.00040X0.00680*%
%ADD237R,0.00040X0.01680*%
%ADD238R,0.00040X0.01680*%
%ADD239R,0.00040X0.01640*%
%ADD240R,0.00040X0.00720*%
%ADD241R,0.00040X0.01480*%
%ADD242R,0.00040X0.00760*%
%ADD243R,0.00040X0.00720*%
%ADD244R,0.00040X0.00640*%
%ADD245R,0.00040X0.00360*%
%ADD246R,0.00040X0.00240*%
%ADD247R,0.00040X0.00160*%
%ADD248R,0.00040X0.00840*%
%ADD249R,0.00040X0.00080*%
%ADD250R,0.00040X0.00880*%
%ADD251R,0.00040X0.00920*%
%ADD252R,0.00040X0.00960*%
%ADD253R,0.00040X0.01640*%
%ADD254R,0.00040X0.01760*%
%ADD255R,0.00040X0.00440*%
%ADD256R,0.00040X0.01000*%
%ADD257R,0.00040X0.01760*%
%ADD258R,0.00040X0.00440*%
%ADD259R,0.00040X0.01320*%
%ADD260R,0.00040X0.01200*%
%ADD261R,0.00040X0.00920*%
%ADD262R,0.00040X0.00840*%
%ADD263R,0.00040X0.00800*%
%ADD264R,0.00040X0.00080*%
%ADD265R,0.00040X0.00120*%
%ADD266R,0.00040X0.00240*%
%ADD267R,0.00040X0.00720*%
%ADD268R,0.00040X0.00200*%
%ADD269R,0.00040X0.00400*%
%ADD270R,0.00040X0.01240*%
%ADD271R,0.00040X0.01640*%
%ADD272R,0.00040X0.01440*%
%ADD273R,0.00040X0.01280*%
%ADD274R,0.00040X0.01520*%
%ADD275R,0.00040X0.01280*%
%ADD276R,0.00040X0.01520*%
%ADD277R,0.00040X0.01360*%
%ADD278R,0.00040X0.01440*%
%ADD279R,0.00040X0.01240*%
%ADD280R,0.00040X0.01120*%
%ADD281R,0.00040X0.01240*%
%ADD282R,0.00040X0.01040*%
%ADD283R,0.00040X0.00840*%
%ADD284R,0.00040X0.00440*%
%ADD285R,0.00040X0.00400*%
%ADD286R,0.00040X0.00320*%
%ADD287R,0.00040X0.00920*%
%ADD288R,0.00040X0.01040*%
%ADD289R,0.00040X0.01000*%
%ADD290R,0.00040X0.01080*%
%ADD291R,0.00040X0.01160*%
%ADD292R,0.00040X0.01040*%
%ADD293R,0.00040X0.01160*%
%ADD294R,0.00040X0.01600*%
%ADD295R,0.00040X0.01720*%
%ADD296R,0.00040X0.01720*%
%ADD297R,0.00040X0.00640*%
%ADD298R,0.00040X0.00680*%
%ADD299R,0.00040X0.00360*%
%ADD300R,0.00040X0.00280*%
%ADD301R,0.00040X0.00120*%
%ADD302R,0.00040X0.00040*%
%ADD303R,0.00040X0.00040*%
%ADD304R,0.00040X0.01320*%
%ADD305R,0.00040X0.00280*%
%ADD306R,0.00040X0.00320*%
%ADD307R,0.00040X0.01320*%
%ADD308R,0.00040X0.01120*%
%ADD309R,0.00040X0.01120*%
%ADD310R,0.00040X0.01800*%
%ADD311R,0.00040X0.01920*%
%ADD312R,0.00040X0.01920*%
%ADD313R,0.00040X0.02000*%
%ADD314R,0.00040X0.02120*%
%ADD315R,0.00040X0.02200*%
%ADD316R,0.00040X0.02320*%
%ADD317R,0.00040X0.02400*%
%ADD318R,0.00040X0.02520*%
%ADD319R,0.00040X0.02600*%
%ADD320R,0.00040X0.00880*%
%ADD321R,0.00040X0.03680*%
%ADD322R,0.00040X0.03720*%
%ADD323R,0.00040X0.03800*%
%ADD324R,0.00040X0.03840*%
%ADD325R,0.00040X0.03840*%
%ADD326R,0.00040X0.03920*%
%ADD327R,0.00040X0.03960*%
%ADD328R,0.00040X0.04000*%
%ADD329R,0.00040X0.04080*%
%ADD330R,0.00040X0.04120*%
%ADD331R,0.00040X0.04160*%
%ADD332R,0.00040X0.04200*%
%ADD333R,0.00040X0.04200*%
%ADD334R,0.00040X0.04160*%
%ADD335R,0.00040X0.04120*%
%ADD336R,0.00040X0.04080*%
%ADD337R,0.00040X0.04040*%
%ADD338R,0.00040X0.04040*%
%ADD339R,0.00040X0.04040*%
%ADD340R,0.00040X0.04040*%
%ADD341R,0.00040X0.03960*%
%ADD342R,0.00040X0.03920*%
%ADD343R,0.00040X0.03920*%
%ADD344R,0.00040X0.03880*%
%ADD345R,0.00040X0.03920*%
%ADD346R,0.00040X0.03880*%
%ADD347R,0.00040X0.03800*%
%ADD348R,0.00040X0.04240*%
%ADD349R,0.00040X0.04240*%
%ADD350R,0.00040X0.04280*%
%ADD351R,0.00040X0.04360*%
%ADD352R,0.00040X0.04400*%
%ADD353R,0.00040X0.04440*%
%ADD354R,0.00040X0.04520*%
%ADD355R,0.00040X0.04520*%
%ADD356R,0.00040X0.04520*%
%ADD357R,0.00040X0.04520*%
%ADD358R,0.00040X0.04480*%
%ADD359R,0.00040X0.04440*%
%ADD360R,0.00040X0.04400*%
%ADD361R,0.00040X0.04360*%
%ADD362R,0.00040X0.04320*%
%ADD363R,0.00040X0.04240*%
%ADD364R,0.00040X0.04320*%
%ADD365R,0.00040X0.04320*%
%ADD366R,0.00040X0.04560*%
%ADD367R,0.00040X0.04720*%
%ADD368R,0.00040X0.04920*%
%ADD369R,0.00040X0.04920*%
%ADD370R,0.00040X0.05080*%
%ADD371R,0.00040X0.05240*%
%ADD372R,0.00040X0.05240*%
%ADD373R,0.00040X0.05480*%
%ADD374R,0.00040X0.05640*%
%ADD375R,0.00040X0.05640*%
%ADD376R,0.00040X0.05680*%
%ADD377R,0.00040X0.05640*%
%ADD378R,0.00040X0.05600*%
%ADD379R,0.00040X0.05600*%
%ADD380R,0.00040X0.05560*%
%ADD381R,0.00040X0.05520*%
%ADD382R,0.00040X0.05520*%
%ADD383R,0.00040X0.05480*%
%ADD384R,0.00040X0.05440*%
%ADD385R,0.00040X0.05440*%
%ADD386R,0.00040X0.05560*%
%ADD387R,0.00040X0.05680*%
%ADD388R,0.00040X0.05440*%
%ADD389R,0.00040X0.05280*%
%ADD390R,0.00040X0.04920*%
%ADD391R,0.00040X0.04600*%
%ADD392R,0.00040X0.04840*%
%ADD393R,0.00040X0.10440*%
%ADD394R,0.00040X0.10360*%
%ADD395R,0.00040X0.10360*%
%ADD396R,0.00040X0.10280*%
%ADD397R,0.00040X0.10200*%
%ADD398R,0.00040X0.10200*%
%ADD399R,0.00040X0.10120*%
%ADD400R,0.00040X0.10040*%
%ADD401R,0.00040X0.10040*%
%ADD402R,0.00040X0.09960*%
%ADD403R,0.00040X0.09880*%
%ADD404R,0.00040X0.09880*%
%ADD405R,0.00040X0.09800*%
%ADD406R,0.00040X0.09720*%
%ADD407R,0.00040X0.09720*%
%ADD408R,0.00040X0.10280*%
%ADD409R,0.00040X0.10520*%
%ADD410R,0.00040X0.10520*%
%ADD411R,0.00040X0.10600*%
%ADD412R,0.00040X0.10680*%
%ADD413R,0.00040X0.10760*%
%ADD414R,0.00040X0.10840*%
%ADD415R,0.00040X0.10920*%
%ADD416R,0.00040X0.11000*%
%ADD417R,0.00040X0.11080*%
%ADD418R,0.00040X0.11080*%
%ADD419R,0.00040X0.11160*%
%ADD420R,0.00040X0.11240*%
%ADD421R,0.00040X0.11320*%
%ADD422R,0.00040X0.11400*%
%ADD423R,0.00040X0.11400*%
%ADD424R,0.00040X0.11480*%
%ADD425R,0.00040X0.11560*%
%ADD426R,0.00040X0.11640*%
%ADD427R,0.00040X0.11640*%
%ADD428R,0.00040X0.11720*%
%ADD429R,0.00040X0.11800*%
%ADD430R,0.00040X0.11880*%
%ADD431R,0.00040X0.11880*%
%ADD432R,0.00040X0.11960*%
%ADD433R,0.00040X0.11720*%
%ADD434R,0.00040X0.11320*%
%ADD435R,0.00040X0.02760*%
%ADD436R,0.00040X0.05400*%
%ADD437R,0.00040X0.02640*%
%ADD438R,0.00040X0.05160*%
%ADD439R,0.00040X0.02560*%
%ADD440R,0.00040X0.05000*%
%ADD441R,0.00040X0.02440*%
%ADD442R,0.00040X0.04760*%
%ADD443R,0.00040X0.02440*%
%ADD444R,0.00040X0.02360*%
%ADD445R,0.00040X0.04600*%
%ADD446R,0.00040X0.02280*%
%ADD447R,0.00040X0.02240*%
%ADD448R,0.00040X0.02160*%
%ADD449R,0.00040X0.02080*%
%ADD450R,0.00040X0.01960*%
%ADD451R,0.00040X0.01880*%
%ADD452R,0.00040X0.03640*%
%ADD453R,0.00040X0.03400*%
%ADD454R,0.00040X0.03240*%
%ADD455R,0.00040X0.03000*%
%ADD456R,0.00040X0.02920*%
%ADD457R,0.00040X0.01360*%
%ADD458R,0.00040X0.02840*%
%ADD459R,0.00040X0.02840*%
%ADD460R,0.00040X0.02760*%
%ADD461R,0.00040X0.02680*%
%ADD462R,0.00040X0.02680*%
%ADD463R,0.00040X0.02600*%
%ADD464R,0.00040X0.02520*%
%ADD465R,0.00040X0.02520*%
%ADD466R,0.00040X0.02440*%
%ADD467R,0.00040X0.02360*%
%ADD468R,0.00040X0.02280*%
%ADD469R,0.00040X0.02200*%
%ADD470R,0.00040X0.02120*%
D10*
X0027000Y0005737D02*
X0027000Y0215737D01*
X0282000Y0215737D01*
X0287000Y0210737D01*
X0287000Y0165737D01*
X0297000Y0155737D01*
X0297000Y0025737D01*
X0287000Y0015737D01*
X0287000Y0005737D01*
X0027000Y0005737D01*
D11*
X0150110Y0020887D02*
X0150110Y0024590D01*
X0151962Y0024590D01*
X0152579Y0023973D01*
X0152579Y0022739D01*
X0151962Y0022121D01*
X0150110Y0022121D01*
X0151345Y0022121D02*
X0152579Y0020887D01*
X0153793Y0021504D02*
X0154411Y0020887D01*
X0155645Y0020887D01*
X0156262Y0021504D01*
X0156262Y0022121D01*
X0155645Y0022739D01*
X0154411Y0022739D01*
X0153793Y0023356D01*
X0153793Y0023973D01*
X0154411Y0024590D01*
X0155645Y0024590D01*
X0156262Y0023973D01*
X0157477Y0024590D02*
X0159945Y0024590D01*
X0158711Y0024590D02*
X0158711Y0020887D01*
X0163970Y0021504D02*
X0164587Y0020887D01*
X0165822Y0020887D01*
X0166439Y0021504D01*
X0166439Y0022121D01*
X0165822Y0022739D01*
X0165204Y0022739D01*
X0165822Y0022739D02*
X0166439Y0023356D01*
X0166439Y0023973D01*
X0165822Y0024590D01*
X0164587Y0024590D01*
X0163970Y0023973D01*
X0167653Y0023356D02*
X0168888Y0020887D01*
X0170122Y0023356D01*
X0174970Y0022739D02*
X0176204Y0023356D01*
X0176822Y0023356D01*
X0177439Y0022739D01*
X0177439Y0021504D01*
X0176822Y0020887D01*
X0175587Y0020887D01*
X0174970Y0021504D01*
X0174970Y0022739D02*
X0174970Y0024590D01*
X0177439Y0024590D01*
X0178653Y0023356D02*
X0179888Y0020887D01*
X0181122Y0023356D01*
X0187690Y0023973D02*
X0187690Y0021504D01*
X0188307Y0020887D01*
X0189541Y0020887D01*
X0190159Y0021504D01*
X0190159Y0022739D01*
X0188924Y0022739D01*
X0187690Y0023973D02*
X0188307Y0024590D01*
X0189541Y0024590D01*
X0190159Y0023973D01*
X0191373Y0023356D02*
X0193224Y0023356D01*
X0193842Y0022739D01*
X0193842Y0020887D01*
X0195056Y0021504D02*
X0195056Y0022739D01*
X0195673Y0023356D01*
X0197525Y0023356D01*
X0197525Y0024590D02*
X0197525Y0020887D01*
X0195673Y0020887D01*
X0195056Y0021504D01*
X0191373Y0020887D02*
X0191373Y0023356D01*
X0203470Y0024590D02*
X0203470Y0022121D01*
X0204704Y0020887D01*
X0205939Y0022121D01*
X0205939Y0024590D01*
X0207153Y0023356D02*
X0207770Y0023356D01*
X0207770Y0020887D01*
X0207153Y0020887D02*
X0208388Y0020887D01*
X0209609Y0020887D02*
X0209609Y0023356D01*
X0211460Y0023356D01*
X0212077Y0022739D01*
X0212077Y0020887D01*
X0207770Y0024590D02*
X0207770Y0025207D01*
X0225650Y0023973D02*
X0225650Y0021504D01*
X0228119Y0023973D01*
X0228119Y0021504D01*
X0227502Y0020887D01*
X0226267Y0020887D01*
X0225650Y0021504D01*
X0225650Y0023973D02*
X0226267Y0024590D01*
X0227502Y0024590D01*
X0228119Y0023973D01*
X0235650Y0023356D02*
X0236884Y0024590D01*
X0236884Y0020887D01*
X0235650Y0020887D02*
X0238119Y0020887D01*
X0245650Y0020887D02*
X0248119Y0023356D01*
X0248119Y0023973D01*
X0247502Y0024590D01*
X0246267Y0024590D01*
X0245650Y0023973D01*
X0245650Y0020887D02*
X0248119Y0020887D01*
X0255650Y0021504D02*
X0256267Y0020887D01*
X0257502Y0020887D01*
X0258119Y0021504D01*
X0258119Y0022121D01*
X0257502Y0022739D01*
X0256884Y0022739D01*
X0257502Y0022739D02*
X0258119Y0023356D01*
X0258119Y0023973D01*
X0257502Y0024590D01*
X0256267Y0024590D01*
X0255650Y0023973D01*
X0265650Y0022739D02*
X0268119Y0022739D01*
X0267502Y0024590D02*
X0267502Y0020887D01*
X0265650Y0022739D02*
X0267502Y0024590D01*
X0275650Y0024590D02*
X0275650Y0022739D01*
X0276884Y0023356D01*
X0277502Y0023356D01*
X0278119Y0022739D01*
X0278119Y0021504D01*
X0277502Y0020887D01*
X0276267Y0020887D01*
X0275650Y0021504D01*
X0275650Y0024590D02*
X0278119Y0024590D01*
X0265978Y0011410D02*
X0264744Y0011410D01*
X0265361Y0011410D02*
X0265361Y0007707D01*
X0264744Y0007707D02*
X0265978Y0007707D01*
X0267199Y0007707D02*
X0267199Y0010176D01*
X0269051Y0010176D01*
X0269668Y0009559D01*
X0269668Y0007707D01*
X0259847Y0007707D02*
X0257995Y0007707D01*
X0257378Y0008324D01*
X0257378Y0009559D01*
X0257995Y0010176D01*
X0259847Y0010176D01*
X0259847Y0007090D01*
X0259229Y0006473D01*
X0258612Y0006473D01*
X0256163Y0008324D02*
X0256163Y0009559D01*
X0255546Y0010176D01*
X0254312Y0010176D01*
X0253695Y0009559D01*
X0253695Y0008324D01*
X0254312Y0007707D01*
X0255546Y0007707D01*
X0256163Y0008324D01*
X0252474Y0007707D02*
X0251239Y0007707D01*
X0251856Y0007707D02*
X0251856Y0011410D01*
X0251239Y0011410D01*
X0249408Y0010176D02*
X0248173Y0010176D01*
X0248173Y0008941D02*
X0250025Y0008941D01*
X0250025Y0009559D02*
X0250025Y0007707D01*
X0248173Y0007707D01*
X0247556Y0008324D01*
X0248173Y0008941D01*
X0249408Y0010176D02*
X0250025Y0009559D01*
X0246342Y0009559D02*
X0246342Y0007707D01*
X0246342Y0009559D02*
X0245724Y0010176D01*
X0243873Y0010176D01*
X0243873Y0007707D01*
X0242659Y0007707D02*
X0242659Y0010176D01*
X0241424Y0011410D01*
X0240190Y0010176D01*
X0240190Y0007707D01*
X0240190Y0009559D02*
X0242659Y0009559D01*
X0062283Y0155493D02*
X0058580Y0155493D01*
X0058580Y0157345D01*
X0059197Y0157962D01*
X0060431Y0157962D01*
X0061049Y0157345D01*
X0061049Y0155493D01*
X0061049Y0156728D02*
X0062283Y0157962D01*
X0061666Y0159176D02*
X0060431Y0159176D01*
X0059814Y0159794D01*
X0059814Y0161028D01*
X0060431Y0161645D01*
X0061049Y0161645D01*
X0061049Y0159176D01*
X0061666Y0159176D02*
X0062283Y0159794D01*
X0062283Y0161028D01*
X0062283Y0164094D02*
X0059814Y0162860D01*
X0059814Y0165328D02*
X0062283Y0164094D01*
X0062283Y0166543D02*
X0062283Y0167160D01*
X0061666Y0167160D01*
X0061666Y0166543D01*
X0062283Y0166543D01*
X0062283Y0168384D02*
X0058580Y0168384D01*
X0058580Y0170236D01*
X0059197Y0170853D01*
X0059814Y0170853D01*
X0060431Y0170236D01*
X0060431Y0168384D01*
X0060431Y0170236D02*
X0061049Y0170853D01*
X0061666Y0170853D01*
X0062283Y0170236D01*
X0062283Y0168384D01*
X0061666Y0172067D02*
X0060431Y0172067D01*
X0059814Y0172685D01*
X0059814Y0173919D01*
X0060431Y0174536D01*
X0061049Y0174536D01*
X0061049Y0172067D01*
X0061666Y0172067D02*
X0062283Y0172685D01*
X0062283Y0173919D01*
X0061666Y0176368D02*
X0059197Y0176368D01*
X0059814Y0175751D02*
X0059814Y0176985D01*
X0059814Y0178823D02*
X0059814Y0180058D01*
X0060431Y0180675D01*
X0062283Y0180675D01*
X0062283Y0178823D01*
X0061666Y0178206D01*
X0061049Y0178823D01*
X0061049Y0180675D01*
X0062283Y0176985D02*
X0061666Y0176368D01*
X0056283Y0176378D02*
X0054431Y0176378D01*
X0053814Y0175761D01*
X0053814Y0174526D01*
X0054431Y0173909D01*
X0055049Y0172695D02*
X0055666Y0172695D01*
X0056283Y0172077D01*
X0056283Y0170843D01*
X0055666Y0170226D01*
X0054431Y0170843D02*
X0054431Y0172077D01*
X0055049Y0172695D01*
X0056283Y0173909D02*
X0052580Y0173909D01*
X0053197Y0172695D02*
X0052580Y0172077D01*
X0052580Y0170843D01*
X0053197Y0170226D01*
X0053814Y0170226D01*
X0054431Y0170843D01*
X0052580Y0165328D02*
X0052580Y0162860D01*
X0056283Y0162860D01*
X0056283Y0165328D01*
X0054431Y0164094D02*
X0054431Y0162860D01*
X0056283Y0161645D02*
X0056283Y0159176D01*
X0052580Y0159176D01*
X0053197Y0157962D02*
X0053814Y0157962D01*
X0054431Y0157345D01*
X0054431Y0155493D01*
X0052580Y0155493D02*
X0056283Y0155493D01*
X0056283Y0157345D01*
X0055666Y0157962D01*
X0055049Y0157962D01*
X0054431Y0157345D01*
X0053197Y0157962D02*
X0052580Y0157345D01*
X0052580Y0155493D01*
X0054431Y0177592D02*
X0053814Y0178209D01*
X0053814Y0179444D01*
X0054431Y0180061D01*
X0055049Y0180061D01*
X0055049Y0177592D01*
X0055666Y0177592D02*
X0054431Y0177592D01*
X0055666Y0177592D02*
X0056283Y0178209D01*
X0056283Y0179444D01*
X0056283Y0181275D02*
X0056283Y0182510D01*
X0056283Y0181893D02*
X0053814Y0181893D01*
X0053814Y0181275D01*
X0052580Y0181893D02*
X0051963Y0181893D01*
X0052580Y0183731D02*
X0052580Y0184348D01*
X0056283Y0184348D01*
X0056283Y0183731D02*
X0056283Y0184965D01*
X0055666Y0186186D02*
X0054431Y0186186D01*
X0053814Y0186803D01*
X0053814Y0188655D01*
X0052580Y0188655D02*
X0056283Y0188655D01*
X0056283Y0186803D01*
X0055666Y0186186D01*
X0036535Y0187497D02*
X0032832Y0187497D01*
X0032832Y0189966D01*
X0034066Y0191797D02*
X0034066Y0193032D01*
X0034683Y0193649D01*
X0036535Y0193649D01*
X0036535Y0191797D01*
X0035918Y0191180D01*
X0035301Y0191797D01*
X0035301Y0193649D01*
X0034683Y0194863D02*
X0034683Y0196715D01*
X0035301Y0197332D01*
X0035918Y0197332D01*
X0036535Y0196715D01*
X0036535Y0194863D01*
X0032832Y0194863D01*
X0032832Y0196715D01*
X0033449Y0197332D01*
X0034066Y0197332D01*
X0034683Y0196715D01*
X0034683Y0198547D02*
X0035918Y0198547D01*
X0036535Y0199164D01*
X0036535Y0200398D01*
X0035918Y0201015D01*
X0034683Y0201015D01*
X0034066Y0200398D01*
X0034066Y0199164D01*
X0034683Y0198547D01*
X0034683Y0188731D02*
X0034683Y0187497D01*
X0111145Y0196887D02*
X0111145Y0199356D01*
X0112380Y0200590D01*
X0113614Y0199356D01*
X0113614Y0196887D01*
X0114828Y0196887D02*
X0114828Y0200590D01*
X0116680Y0200590D01*
X0117297Y0199973D01*
X0117297Y0198739D01*
X0116680Y0198121D01*
X0114828Y0198121D01*
X0116063Y0198121D02*
X0117297Y0196887D01*
X0118511Y0197504D02*
X0118511Y0198739D01*
X0119129Y0199356D01*
X0120363Y0199356D01*
X0120980Y0198739D01*
X0120980Y0198121D01*
X0118511Y0198121D01*
X0118511Y0197504D02*
X0119129Y0196887D01*
X0120363Y0196887D01*
X0122812Y0196887D02*
X0122812Y0199973D01*
X0123429Y0200590D01*
X0123429Y0198739D02*
X0122195Y0198739D01*
X0126101Y0198739D02*
X0126101Y0197504D01*
X0126718Y0196887D01*
X0128569Y0196887D01*
X0128569Y0196270D02*
X0128569Y0199356D01*
X0126718Y0199356D01*
X0126101Y0198739D01*
X0127335Y0195653D02*
X0127952Y0195653D01*
X0128569Y0196270D01*
X0129784Y0196887D02*
X0129784Y0199356D01*
X0131635Y0199356D01*
X0132252Y0198739D01*
X0132252Y0196887D01*
X0133467Y0197504D02*
X0133467Y0198739D01*
X0134084Y0199356D01*
X0135936Y0199356D01*
X0135936Y0200590D02*
X0135936Y0196887D01*
X0134084Y0196887D01*
X0133467Y0197504D01*
X0138284Y0196887D02*
X0140752Y0196887D01*
X0139518Y0196887D02*
X0139518Y0200590D01*
X0138284Y0199356D01*
X0141967Y0199973D02*
X0142584Y0200590D01*
X0143818Y0200590D01*
X0144436Y0199973D01*
X0144436Y0199356D01*
X0143818Y0198739D01*
X0144436Y0198121D01*
X0144436Y0197504D01*
X0143818Y0196887D01*
X0142584Y0196887D01*
X0141967Y0197504D01*
X0143201Y0198739D02*
X0143818Y0198739D01*
X0148284Y0199356D02*
X0149518Y0200590D01*
X0149518Y0196887D01*
X0148284Y0196887D02*
X0150752Y0196887D01*
X0151967Y0196887D02*
X0154436Y0199356D01*
X0154436Y0199973D01*
X0153818Y0200590D01*
X0152584Y0200590D01*
X0151967Y0199973D01*
X0151967Y0196887D02*
X0154436Y0196887D01*
X0158284Y0196887D02*
X0160752Y0196887D01*
X0161967Y0196887D02*
X0164436Y0196887D01*
X0163201Y0196887D02*
X0163201Y0200590D01*
X0161967Y0199356D01*
X0159518Y0200590D02*
X0159518Y0196887D01*
X0158284Y0199356D02*
X0159518Y0200590D01*
X0168284Y0199356D02*
X0169518Y0200590D01*
X0169518Y0196887D01*
X0168284Y0196887D02*
X0170752Y0196887D01*
X0171967Y0197504D02*
X0174436Y0199973D01*
X0174436Y0197504D01*
X0173818Y0196887D01*
X0172584Y0196887D01*
X0171967Y0197504D01*
X0171967Y0199973D01*
X0172584Y0200590D01*
X0173818Y0200590D01*
X0174436Y0199973D01*
X0179967Y0199973D02*
X0179967Y0199356D01*
X0180584Y0198739D01*
X0182436Y0198739D01*
X0182436Y0199973D02*
X0182436Y0197504D01*
X0181818Y0196887D01*
X0180584Y0196887D01*
X0179967Y0197504D01*
X0179967Y0199973D02*
X0180584Y0200590D01*
X0181818Y0200590D01*
X0182436Y0199973D01*
X0189967Y0199973D02*
X0189967Y0199356D01*
X0190584Y0198739D01*
X0191818Y0198739D01*
X0192436Y0198121D01*
X0192436Y0197504D01*
X0191818Y0196887D01*
X0190584Y0196887D01*
X0189967Y0197504D01*
X0189967Y0198121D01*
X0190584Y0198739D01*
X0191818Y0198739D02*
X0192436Y0199356D01*
X0192436Y0199973D01*
X0191818Y0200590D01*
X0190584Y0200590D01*
X0189967Y0199973D01*
X0184194Y0210887D02*
X0182960Y0210887D01*
X0182343Y0211504D01*
X0182343Y0213973D01*
X0182960Y0214590D01*
X0184194Y0214590D01*
X0184812Y0213973D01*
X0184812Y0211504D01*
X0184194Y0210887D01*
X0181128Y0214590D02*
X0178660Y0210887D01*
X0177439Y0210887D02*
X0176204Y0210887D01*
X0176821Y0210887D02*
X0176821Y0214590D01*
X0176204Y0214590D02*
X0177439Y0214590D01*
X0171300Y0210887D02*
X0170066Y0210887D01*
X0170683Y0210887D02*
X0170683Y0214590D01*
X0170066Y0214590D01*
X0168234Y0213356D02*
X0168851Y0212739D01*
X0168851Y0210887D01*
X0167000Y0210887D01*
X0166383Y0211504D01*
X0167000Y0212121D01*
X0168851Y0212121D01*
X0168234Y0213356D02*
X0167000Y0213356D01*
X0165162Y0213356D02*
X0163927Y0213356D01*
X0164544Y0213973D02*
X0164544Y0211504D01*
X0165162Y0210887D01*
X0162706Y0210887D02*
X0161472Y0210887D01*
X0162089Y0210887D02*
X0162089Y0213356D01*
X0161472Y0213356D01*
X0160257Y0213356D02*
X0158406Y0213356D01*
X0157789Y0212739D01*
X0157789Y0211504D01*
X0158406Y0210887D01*
X0160257Y0210887D01*
X0160257Y0210270D02*
X0160257Y0213356D01*
X0162089Y0214590D02*
X0162089Y0215207D01*
X0160257Y0210270D02*
X0159640Y0209653D01*
X0159023Y0209653D01*
X0156568Y0210887D02*
X0155333Y0210887D01*
X0155950Y0210887D02*
X0155950Y0213356D01*
X0155333Y0213356D01*
X0154119Y0213973D02*
X0153502Y0214590D01*
X0151650Y0214590D01*
X0151650Y0210887D01*
X0153502Y0210887D01*
X0154119Y0211504D01*
X0154119Y0213973D01*
X0155950Y0214590D02*
X0155950Y0215207D01*
X0113614Y0198739D02*
X0111145Y0198739D01*
X0205967Y0197504D02*
X0205967Y0196887D01*
X0205967Y0197504D02*
X0208436Y0199973D01*
X0208436Y0200590D01*
X0205967Y0200590D01*
X0215967Y0198739D02*
X0215967Y0197504D01*
X0216584Y0196887D01*
X0217818Y0196887D01*
X0218436Y0197504D01*
X0218436Y0198121D01*
X0217818Y0198739D01*
X0215967Y0198739D01*
X0217201Y0199973D01*
X0218436Y0200590D01*
X0225967Y0200590D02*
X0225967Y0198739D01*
X0227201Y0199356D01*
X0227818Y0199356D01*
X0228436Y0198739D01*
X0228436Y0197504D01*
X0227818Y0196887D01*
X0226584Y0196887D01*
X0225967Y0197504D01*
X0225967Y0200590D02*
X0228436Y0200590D01*
X0235967Y0198739D02*
X0238436Y0198739D01*
X0237818Y0200590D02*
X0237818Y0196887D01*
X0235967Y0198739D02*
X0237818Y0200590D01*
X0245967Y0199973D02*
X0246584Y0200590D01*
X0247818Y0200590D01*
X0248436Y0199973D01*
X0248436Y0199356D01*
X0247818Y0198739D01*
X0248436Y0198121D01*
X0248436Y0197504D01*
X0247818Y0196887D01*
X0246584Y0196887D01*
X0245967Y0197504D01*
X0247201Y0198739D02*
X0247818Y0198739D01*
X0255967Y0199973D02*
X0256584Y0200590D01*
X0257818Y0200590D01*
X0258436Y0199973D01*
X0258436Y0199356D01*
X0255967Y0196887D01*
X0258436Y0196887D01*
X0265967Y0196887D02*
X0268436Y0196887D01*
X0267201Y0196887D02*
X0267201Y0200590D01*
X0265967Y0199356D01*
X0275967Y0199973D02*
X0275967Y0197504D01*
X0278436Y0199973D01*
X0278436Y0197504D01*
X0277818Y0196887D01*
X0276584Y0196887D01*
X0275967Y0197504D01*
X0275967Y0199973D02*
X0276584Y0200590D01*
X0277818Y0200590D01*
X0278436Y0199973D01*
X0260812Y0211504D02*
X0260812Y0213973D01*
X0260194Y0214590D01*
X0258960Y0214590D01*
X0258343Y0213973D01*
X0258343Y0211504D01*
X0258960Y0210887D01*
X0260194Y0210887D01*
X0260812Y0211504D01*
X0257128Y0214590D02*
X0254660Y0210887D01*
X0253439Y0210887D02*
X0252204Y0210887D01*
X0252821Y0210887D02*
X0252821Y0214590D01*
X0252204Y0214590D02*
X0253439Y0214590D01*
X0246683Y0214590D02*
X0246683Y0210887D01*
X0246066Y0210887D02*
X0247300Y0210887D01*
X0244851Y0210887D02*
X0244851Y0212739D01*
X0244234Y0213356D01*
X0243000Y0213356D01*
X0243000Y0212121D02*
X0244851Y0212121D01*
X0244851Y0210887D02*
X0243000Y0210887D01*
X0242383Y0211504D01*
X0243000Y0212121D01*
X0241162Y0210887D02*
X0240544Y0211504D01*
X0240544Y0213973D01*
X0239927Y0213356D02*
X0241162Y0213356D01*
X0238089Y0213356D02*
X0238089Y0210887D01*
X0237472Y0210887D02*
X0238706Y0210887D01*
X0236257Y0210887D02*
X0234406Y0210887D01*
X0233789Y0211504D01*
X0233789Y0212739D01*
X0234406Y0213356D01*
X0236257Y0213356D01*
X0236257Y0210270D01*
X0235640Y0209653D01*
X0235023Y0209653D01*
X0232568Y0210887D02*
X0231333Y0210887D01*
X0231950Y0210887D02*
X0231950Y0213356D01*
X0231333Y0213356D01*
X0230119Y0213973D02*
X0229502Y0214590D01*
X0227650Y0214590D01*
X0227650Y0210887D01*
X0229502Y0210887D01*
X0230119Y0211504D01*
X0230119Y0213973D01*
X0231950Y0214590D02*
X0231950Y0215207D01*
X0237472Y0213356D02*
X0238089Y0213356D01*
X0238089Y0214590D02*
X0238089Y0215207D01*
X0246066Y0214590D02*
X0246683Y0214590D01*
D12*
X0239500Y0085737D02*
X0234500Y0085737D01*
X0232000Y0083237D01*
X0232000Y0078237D01*
X0234500Y0075737D01*
X0232000Y0073237D01*
X0232000Y0068237D01*
X0234500Y0065737D01*
X0232000Y0063237D01*
X0232000Y0058237D01*
X0234500Y0055737D01*
X0232000Y0053237D01*
X0232000Y0048237D01*
X0234500Y0045737D01*
X0239500Y0045737D01*
X0242000Y0048237D01*
X0242000Y0053237D01*
X0239500Y0055737D01*
X0242000Y0058237D01*
X0242000Y0063237D01*
X0239500Y0065737D01*
X0242000Y0068237D01*
X0242000Y0073237D01*
X0239500Y0075737D01*
X0242000Y0078237D01*
X0242000Y0083237D01*
X0239500Y0085737D01*
X0223595Y0084210D02*
X0223595Y0079939D01*
X0222528Y0078872D01*
X0219325Y0078872D01*
X0219325Y0085277D01*
X0222528Y0085277D01*
X0223595Y0084210D01*
X0217150Y0085277D02*
X0217150Y0078872D01*
X0212879Y0085277D01*
X0212879Y0078872D01*
X0210704Y0079939D02*
X0210704Y0082074D01*
X0208569Y0082074D01*
X0206434Y0079939D02*
X0207501Y0078872D01*
X0209637Y0078872D01*
X0210704Y0079939D01*
X0206434Y0079939D02*
X0206434Y0084210D01*
X0207501Y0085277D01*
X0209637Y0085277D01*
X0210704Y0084210D01*
X0209637Y0073466D02*
X0210704Y0072399D01*
X0210704Y0071331D01*
X0209637Y0070263D01*
X0210704Y0069196D01*
X0210704Y0068128D01*
X0209637Y0067061D01*
X0207501Y0067061D01*
X0206434Y0068128D01*
X0208569Y0070263D02*
X0209637Y0070263D01*
X0206434Y0072399D02*
X0207501Y0073466D01*
X0209637Y0073466D01*
X0216102Y0072399D02*
X0217170Y0073466D01*
X0219305Y0073466D01*
X0220372Y0072399D01*
X0220372Y0071331D01*
X0219305Y0070263D01*
X0220372Y0069196D01*
X0220372Y0068128D01*
X0219305Y0067061D01*
X0217170Y0067061D01*
X0216102Y0068128D01*
X0213947Y0068128D02*
X0213947Y0067061D01*
X0212879Y0067061D01*
X0212879Y0068128D01*
X0213947Y0068128D01*
X0218237Y0070263D02*
X0219305Y0070263D01*
X0222548Y0069196D02*
X0222548Y0073466D01*
X0226818Y0073466D02*
X0226818Y0069196D01*
X0224683Y0067061D01*
X0222548Y0069196D01*
X0221460Y0061655D02*
X0223595Y0059520D01*
X0223595Y0055250D01*
X0223595Y0058452D02*
X0219325Y0058452D01*
X0219325Y0059520D02*
X0221460Y0061655D01*
X0219325Y0059520D02*
X0219325Y0055250D01*
X0217150Y0056317D02*
X0217150Y0060587D01*
X0216082Y0061655D01*
X0212879Y0061655D01*
X0212879Y0055250D01*
X0216082Y0055250D01*
X0217150Y0056317D01*
X0210704Y0056317D02*
X0209637Y0055250D01*
X0207501Y0055250D01*
X0206434Y0056317D01*
X0207501Y0058452D02*
X0206434Y0059520D01*
X0206434Y0060587D01*
X0207501Y0061655D01*
X0209637Y0061655D01*
X0210704Y0060587D01*
X0209637Y0058452D02*
X0210704Y0057385D01*
X0210704Y0056317D01*
X0209637Y0058452D02*
X0207501Y0058452D01*
X0207501Y0049844D02*
X0206434Y0048776D01*
X0206434Y0047709D01*
X0207501Y0046641D01*
X0209637Y0046641D01*
X0210704Y0045574D01*
X0210704Y0044506D01*
X0209637Y0043439D01*
X0207501Y0043439D01*
X0206434Y0044506D01*
X0207501Y0049844D02*
X0209637Y0049844D01*
X0210704Y0048776D01*
X0212879Y0048776D02*
X0212879Y0044506D01*
X0213947Y0043439D01*
X0216082Y0043439D01*
X0217150Y0044506D01*
X0219325Y0043439D02*
X0223595Y0043439D01*
X0219325Y0043439D02*
X0219325Y0049844D01*
X0217150Y0048776D02*
X0216082Y0049844D01*
X0213947Y0049844D01*
X0212879Y0048776D01*
D13*
X0127512Y0160343D02*
X0127512Y0163493D01*
X0125150Y0163493D01*
X0118850Y0163493D02*
X0116488Y0163493D01*
X0116488Y0160343D01*
D14*
X0118800Y0167787D02*
X0119551Y0167787D01*
X0119801Y0168037D01*
X0119801Y0168287D01*
X0119551Y0168538D01*
X0118800Y0168538D01*
X0118800Y0169288D02*
X0118800Y0167787D01*
X0119551Y0168538D02*
X0119801Y0168788D01*
X0119801Y0169038D01*
X0119551Y0169288D01*
X0118800Y0169288D01*
X0120273Y0169038D02*
X0120273Y0168788D01*
X0120523Y0168538D01*
X0121024Y0168538D01*
X0121274Y0168287D01*
X0121274Y0168037D01*
X0121024Y0167787D01*
X0120523Y0167787D01*
X0120273Y0168037D01*
X0120273Y0169038D02*
X0120523Y0169288D01*
X0121024Y0169288D01*
X0121274Y0169038D01*
X0121747Y0169038D02*
X0121747Y0168788D01*
X0121997Y0168538D01*
X0122497Y0168538D01*
X0122747Y0168287D01*
X0122747Y0168037D01*
X0122497Y0167787D01*
X0121997Y0167787D01*
X0121747Y0168037D01*
X0121747Y0169038D02*
X0121997Y0169288D01*
X0122497Y0169288D01*
X0122747Y0169038D01*
X0123220Y0168788D02*
X0123720Y0169288D01*
X0123720Y0167787D01*
X0123220Y0167787D02*
X0124221Y0167787D01*
X0124693Y0168037D02*
X0124943Y0167787D01*
X0125444Y0167787D01*
X0125694Y0168037D01*
X0125694Y0168287D01*
X0125444Y0168538D01*
X0125193Y0168538D01*
X0125444Y0168538D02*
X0125694Y0168788D01*
X0125694Y0169038D01*
X0125444Y0169288D01*
X0124943Y0169288D01*
X0124693Y0169038D01*
X0126166Y0169038D02*
X0126166Y0168788D01*
X0126416Y0168538D01*
X0126917Y0168538D01*
X0127167Y0168287D01*
X0127167Y0168037D01*
X0126917Y0167787D01*
X0126416Y0167787D01*
X0126166Y0168037D01*
X0126166Y0168287D01*
X0126416Y0168538D01*
X0126917Y0168538D02*
X0127167Y0168788D01*
X0127167Y0169038D01*
X0126917Y0169288D01*
X0126416Y0169288D01*
X0126166Y0169038D01*
X0120774Y0140288D02*
X0120273Y0140288D01*
X0120023Y0140038D01*
X0119551Y0140038D02*
X0119301Y0140288D01*
X0118800Y0140288D01*
X0118550Y0140038D01*
X0118550Y0139037D01*
X0118800Y0138787D01*
X0119301Y0138787D01*
X0119551Y0139037D01*
X0120023Y0138787D02*
X0121024Y0139788D01*
X0121024Y0140038D01*
X0120774Y0140288D01*
X0121024Y0138787D02*
X0120023Y0138787D01*
X0173550Y0138787D02*
X0173550Y0140288D01*
X0174301Y0140288D01*
X0174551Y0140038D01*
X0174551Y0139538D01*
X0174301Y0139287D01*
X0173550Y0139287D01*
X0174050Y0139287D02*
X0174551Y0138787D01*
X0175023Y0139538D02*
X0176024Y0139538D01*
X0175774Y0140288D02*
X0175023Y0139538D01*
X0175774Y0140288D02*
X0175774Y0138787D01*
X0175774Y0115288D02*
X0176024Y0115038D01*
X0176024Y0114788D01*
X0175774Y0114538D01*
X0176024Y0114287D01*
X0176024Y0114037D01*
X0175774Y0113787D01*
X0175273Y0113787D01*
X0175023Y0114037D01*
X0174551Y0113787D02*
X0174050Y0114287D01*
X0174301Y0114287D02*
X0173550Y0114287D01*
X0173550Y0113787D02*
X0173550Y0115288D01*
X0174301Y0115288D01*
X0174551Y0115038D01*
X0174551Y0114538D01*
X0174301Y0114287D01*
X0175023Y0115038D02*
X0175273Y0115288D01*
X0175774Y0115288D01*
X0175774Y0114538D02*
X0175524Y0114538D01*
X0175774Y0090288D02*
X0175273Y0090288D01*
X0175023Y0090038D01*
X0174551Y0090038D02*
X0174551Y0089538D01*
X0174301Y0089287D01*
X0173550Y0089287D01*
X0173550Y0088787D02*
X0173550Y0090288D01*
X0174301Y0090288D01*
X0174551Y0090038D01*
X0174050Y0089287D02*
X0174551Y0088787D01*
X0175023Y0088787D02*
X0176024Y0089788D01*
X0176024Y0090038D01*
X0175774Y0090288D01*
X0176024Y0088787D02*
X0175023Y0088787D01*
X0175524Y0065288D02*
X0175524Y0063787D01*
X0176024Y0063787D02*
X0175023Y0063787D01*
X0174551Y0063787D02*
X0174050Y0064287D01*
X0174301Y0064287D02*
X0173550Y0064287D01*
X0173550Y0063787D02*
X0173550Y0065288D01*
X0174301Y0065288D01*
X0174551Y0065038D01*
X0174551Y0064538D01*
X0174301Y0064287D01*
X0175023Y0064788D02*
X0175524Y0065288D01*
X0146024Y0065288D02*
X0145023Y0065288D01*
X0145023Y0064538D01*
X0145524Y0064788D01*
X0145774Y0064788D01*
X0146024Y0064538D01*
X0146024Y0064037D01*
X0145774Y0063787D01*
X0145273Y0063787D01*
X0145023Y0064037D01*
X0144551Y0063787D02*
X0144050Y0064287D01*
X0144301Y0064287D02*
X0143550Y0064287D01*
X0143550Y0063787D02*
X0143550Y0065288D01*
X0144301Y0065288D01*
X0144551Y0065038D01*
X0144551Y0064538D01*
X0144301Y0064287D01*
X0121024Y0064287D02*
X0120774Y0064538D01*
X0120023Y0064538D01*
X0120023Y0064037D01*
X0120273Y0063787D01*
X0120774Y0063787D01*
X0121024Y0064037D01*
X0121024Y0064287D01*
X0120524Y0065038D02*
X0120023Y0064538D01*
X0119551Y0064538D02*
X0119301Y0064287D01*
X0118550Y0064287D01*
X0118550Y0063787D02*
X0118550Y0065288D01*
X0119301Y0065288D01*
X0119551Y0065038D01*
X0119551Y0064538D01*
X0119050Y0064287D02*
X0119551Y0063787D01*
X0120524Y0065038D02*
X0121024Y0065288D01*
X0143550Y0088787D02*
X0143550Y0090288D01*
X0144301Y0090288D01*
X0144551Y0090038D01*
X0144551Y0089538D01*
X0144301Y0089287D01*
X0143550Y0089287D01*
X0144050Y0089287D02*
X0144551Y0088787D01*
X0145023Y0088787D02*
X0145023Y0089037D01*
X0146024Y0090038D01*
X0146024Y0090288D01*
X0145023Y0090288D01*
D15*
X0122000Y0135617D02*
X0122000Y0135857D01*
D16*
X0090144Y0160641D02*
X0089377Y0159874D01*
X0087842Y0159874D01*
X0087075Y0160641D01*
X0090144Y0163711D01*
X0090144Y0160641D01*
X0090144Y0163711D02*
X0089377Y0164478D01*
X0087842Y0164478D01*
X0087075Y0163711D01*
X0087075Y0160641D01*
X0085540Y0159107D02*
X0082471Y0159107D01*
X0080936Y0160641D02*
X0080169Y0159874D01*
X0078634Y0159874D01*
X0077867Y0160641D01*
X0080936Y0163711D01*
X0080936Y0160641D01*
X0077867Y0160641D02*
X0077867Y0163711D01*
X0078634Y0164478D01*
X0080169Y0164478D01*
X0080936Y0163711D01*
X0076332Y0163711D02*
X0075565Y0164478D01*
X0073263Y0164478D01*
X0073263Y0159874D01*
X0073263Y0161409D02*
X0075565Y0161409D01*
X0076332Y0162176D01*
X0076332Y0163711D01*
X0076213Y0169359D02*
X0077787Y0169359D01*
X0077787Y0172115D02*
X0076213Y0172115D01*
X0078634Y0174874D02*
X0077867Y0175641D01*
X0080936Y0178711D01*
X0080936Y0175641D01*
X0080169Y0174874D01*
X0078634Y0174874D01*
X0077867Y0175641D02*
X0077867Y0178711D01*
X0078634Y0179478D01*
X0080169Y0179478D01*
X0080936Y0178711D01*
X0076332Y0178711D02*
X0076332Y0177176D01*
X0075565Y0176409D01*
X0073263Y0176409D01*
X0073263Y0174874D02*
X0073263Y0179478D01*
X0075565Y0179478D01*
X0076332Y0178711D01*
X0082471Y0174107D02*
X0085540Y0174107D01*
X0087075Y0174874D02*
X0090144Y0174874D01*
X0088609Y0174874D02*
X0088609Y0179478D01*
X0087075Y0177943D01*
X0077787Y0157115D02*
X0076213Y0157115D01*
X0076213Y0154359D02*
X0077787Y0154359D01*
X0026800Y0121259D02*
X0026800Y0119724D01*
X0026033Y0118957D01*
X0026800Y0117422D02*
X0026800Y0114353D01*
X0026800Y0115887D02*
X0022196Y0115887D01*
X0023731Y0114353D01*
X0026800Y0112818D02*
X0026800Y0109749D01*
X0026800Y0111283D02*
X0022196Y0111283D01*
X0023731Y0109749D01*
X0022196Y0108214D02*
X0022196Y0105145D01*
X0026800Y0105145D01*
X0026800Y0108214D01*
X0024498Y0106679D02*
X0024498Y0105145D01*
X0026800Y0103610D02*
X0026800Y0100541D01*
X0022196Y0100541D01*
X0022963Y0099006D02*
X0023731Y0099006D01*
X0024498Y0098239D01*
X0024498Y0095937D01*
X0026800Y0095937D02*
X0022196Y0095937D01*
X0022196Y0098239D01*
X0022963Y0099006D01*
X0024498Y0098239D02*
X0025265Y0099006D01*
X0026033Y0099006D01*
X0026800Y0098239D01*
X0026800Y0095937D01*
X0022963Y0118957D02*
X0022196Y0119724D01*
X0022196Y0121259D01*
X0022963Y0122026D01*
X0023731Y0122026D01*
X0024498Y0121259D01*
X0025265Y0122026D01*
X0026033Y0122026D01*
X0026800Y0121259D01*
X0024498Y0121259D02*
X0024498Y0120491D01*
X0194877Y0162079D02*
X0197946Y0162079D01*
X0196412Y0162079D02*
X0196412Y0166683D01*
X0194877Y0165148D01*
D17*
X0076508Y0171869D03*
X0076508Y0156869D03*
D18*
X0147000Y0085737D03*
X0177000Y0085737D03*
X0177000Y0060737D03*
X0147000Y0060737D03*
X0122000Y0060737D03*
X0177000Y0110737D03*
X0177000Y0135737D03*
D19*
X0199598Y0164044D02*
X0199598Y0178217D01*
X0224205Y0178217D01*
X0224205Y0164044D01*
X0199598Y0164044D01*
X0241764Y0135973D02*
X0241764Y0115501D01*
X0262236Y0115501D01*
X0262236Y0135973D01*
X0241764Y0135973D01*
X0244031Y0131249D02*
X0244033Y0131330D01*
X0244039Y0131411D01*
X0244049Y0131492D01*
X0244063Y0131572D01*
X0244080Y0131652D01*
X0244102Y0131730D01*
X0244127Y0131807D01*
X0244156Y0131883D01*
X0244189Y0131958D01*
X0244225Y0132031D01*
X0244265Y0132102D01*
X0244308Y0132170D01*
X0244355Y0132237D01*
X0244404Y0132302D01*
X0244457Y0132363D01*
X0244513Y0132423D01*
X0244572Y0132479D01*
X0244633Y0132533D01*
X0244697Y0132583D01*
X0244763Y0132630D01*
X0244831Y0132675D01*
X0244901Y0132715D01*
X0244974Y0132752D01*
X0245048Y0132786D01*
X0245123Y0132816D01*
X0245200Y0132842D01*
X0245279Y0132865D01*
X0245358Y0132883D01*
X0245438Y0132898D01*
X0245518Y0132909D01*
X0245599Y0132916D01*
X0245681Y0132919D01*
X0245762Y0132918D01*
X0245843Y0132913D01*
X0245924Y0132904D01*
X0246004Y0132891D01*
X0246084Y0132875D01*
X0246163Y0132854D01*
X0246240Y0132830D01*
X0246317Y0132801D01*
X0246391Y0132770D01*
X0246465Y0132734D01*
X0246536Y0132695D01*
X0246605Y0132653D01*
X0246673Y0132607D01*
X0246738Y0132558D01*
X0246800Y0132506D01*
X0246860Y0132451D01*
X0246917Y0132393D01*
X0246972Y0132333D01*
X0247023Y0132270D01*
X0247071Y0132204D01*
X0247116Y0132136D01*
X0247157Y0132066D01*
X0247195Y0131994D01*
X0247230Y0131921D01*
X0247261Y0131846D01*
X0247288Y0131769D01*
X0247311Y0131691D01*
X0247331Y0131612D01*
X0247347Y0131532D01*
X0247359Y0131452D01*
X0247367Y0131371D01*
X0247371Y0131290D01*
X0247371Y0131208D01*
X0247367Y0131127D01*
X0247359Y0131046D01*
X0247347Y0130966D01*
X0247331Y0130886D01*
X0247311Y0130807D01*
X0247288Y0130729D01*
X0247261Y0130652D01*
X0247230Y0130577D01*
X0247195Y0130504D01*
X0247157Y0130432D01*
X0247116Y0130362D01*
X0247071Y0130294D01*
X0247023Y0130228D01*
X0246972Y0130165D01*
X0246917Y0130105D01*
X0246860Y0130047D01*
X0246800Y0129992D01*
X0246738Y0129940D01*
X0246673Y0129891D01*
X0246605Y0129845D01*
X0246536Y0129803D01*
X0246465Y0129764D01*
X0246391Y0129728D01*
X0246317Y0129697D01*
X0246240Y0129668D01*
X0246163Y0129644D01*
X0246084Y0129623D01*
X0246004Y0129607D01*
X0245924Y0129594D01*
X0245843Y0129585D01*
X0245762Y0129580D01*
X0245681Y0129579D01*
X0245599Y0129582D01*
X0245518Y0129589D01*
X0245438Y0129600D01*
X0245358Y0129615D01*
X0245279Y0129633D01*
X0245200Y0129656D01*
X0245123Y0129682D01*
X0245048Y0129712D01*
X0244974Y0129746D01*
X0244901Y0129783D01*
X0244831Y0129823D01*
X0244763Y0129868D01*
X0244697Y0129915D01*
X0244633Y0129965D01*
X0244572Y0130019D01*
X0244513Y0130075D01*
X0244457Y0130135D01*
X0244404Y0130196D01*
X0244355Y0130261D01*
X0244308Y0130328D01*
X0244265Y0130396D01*
X0244225Y0130467D01*
X0244189Y0130540D01*
X0244156Y0130615D01*
X0244127Y0130691D01*
X0244102Y0130768D01*
X0244080Y0130846D01*
X0244063Y0130926D01*
X0244049Y0131006D01*
X0244039Y0131087D01*
X0244033Y0131168D01*
X0244031Y0131249D01*
X0244031Y0120619D02*
X0244033Y0120700D01*
X0244039Y0120781D01*
X0244049Y0120862D01*
X0244063Y0120942D01*
X0244080Y0121022D01*
X0244102Y0121100D01*
X0244127Y0121177D01*
X0244156Y0121253D01*
X0244189Y0121328D01*
X0244225Y0121401D01*
X0244265Y0121472D01*
X0244308Y0121540D01*
X0244355Y0121607D01*
X0244404Y0121672D01*
X0244457Y0121733D01*
X0244513Y0121793D01*
X0244572Y0121849D01*
X0244633Y0121903D01*
X0244697Y0121953D01*
X0244763Y0122000D01*
X0244831Y0122045D01*
X0244901Y0122085D01*
X0244974Y0122122D01*
X0245048Y0122156D01*
X0245123Y0122186D01*
X0245200Y0122212D01*
X0245279Y0122235D01*
X0245358Y0122253D01*
X0245438Y0122268D01*
X0245518Y0122279D01*
X0245599Y0122286D01*
X0245681Y0122289D01*
X0245762Y0122288D01*
X0245843Y0122283D01*
X0245924Y0122274D01*
X0246004Y0122261D01*
X0246084Y0122245D01*
X0246163Y0122224D01*
X0246240Y0122200D01*
X0246317Y0122171D01*
X0246391Y0122140D01*
X0246465Y0122104D01*
X0246536Y0122065D01*
X0246605Y0122023D01*
X0246673Y0121977D01*
X0246738Y0121928D01*
X0246800Y0121876D01*
X0246860Y0121821D01*
X0246917Y0121763D01*
X0246972Y0121703D01*
X0247023Y0121640D01*
X0247071Y0121574D01*
X0247116Y0121506D01*
X0247157Y0121436D01*
X0247195Y0121364D01*
X0247230Y0121291D01*
X0247261Y0121216D01*
X0247288Y0121139D01*
X0247311Y0121061D01*
X0247331Y0120982D01*
X0247347Y0120902D01*
X0247359Y0120822D01*
X0247367Y0120741D01*
X0247371Y0120660D01*
X0247371Y0120578D01*
X0247367Y0120497D01*
X0247359Y0120416D01*
X0247347Y0120336D01*
X0247331Y0120256D01*
X0247311Y0120177D01*
X0247288Y0120099D01*
X0247261Y0120022D01*
X0247230Y0119947D01*
X0247195Y0119874D01*
X0247157Y0119802D01*
X0247116Y0119732D01*
X0247071Y0119664D01*
X0247023Y0119598D01*
X0246972Y0119535D01*
X0246917Y0119475D01*
X0246860Y0119417D01*
X0246800Y0119362D01*
X0246738Y0119310D01*
X0246673Y0119261D01*
X0246605Y0119215D01*
X0246536Y0119173D01*
X0246465Y0119134D01*
X0246391Y0119098D01*
X0246317Y0119067D01*
X0246240Y0119038D01*
X0246163Y0119014D01*
X0246084Y0118993D01*
X0246004Y0118977D01*
X0245924Y0118964D01*
X0245843Y0118955D01*
X0245762Y0118950D01*
X0245681Y0118949D01*
X0245599Y0118952D01*
X0245518Y0118959D01*
X0245438Y0118970D01*
X0245358Y0118985D01*
X0245279Y0119003D01*
X0245200Y0119026D01*
X0245123Y0119052D01*
X0245048Y0119082D01*
X0244974Y0119116D01*
X0244901Y0119153D01*
X0244831Y0119193D01*
X0244763Y0119238D01*
X0244697Y0119285D01*
X0244633Y0119335D01*
X0244572Y0119389D01*
X0244513Y0119445D01*
X0244457Y0119505D01*
X0244404Y0119566D01*
X0244355Y0119631D01*
X0244308Y0119698D01*
X0244265Y0119766D01*
X0244225Y0119837D01*
X0244189Y0119910D01*
X0244156Y0119985D01*
X0244127Y0120061D01*
X0244102Y0120138D01*
X0244080Y0120216D01*
X0244063Y0120296D01*
X0244049Y0120376D01*
X0244039Y0120457D01*
X0244033Y0120538D01*
X0244031Y0120619D01*
X0239250Y0088886D02*
X0239250Y0085883D01*
X0239250Y0087384D02*
X0234746Y0087384D01*
X0236247Y0085883D01*
X0243746Y0082884D02*
X0245247Y0081383D01*
X0243746Y0082884D02*
X0248250Y0082884D01*
X0248250Y0081383D02*
X0248250Y0084386D01*
X0246749Y0079782D02*
X0243746Y0079782D01*
X0246749Y0079782D02*
X0248250Y0078280D01*
X0246749Y0076779D01*
X0243746Y0076779D01*
X0244497Y0075178D02*
X0243746Y0074427D01*
X0243746Y0072926D01*
X0244497Y0072175D01*
X0245247Y0072175D01*
X0245998Y0072926D01*
X0245998Y0074427D01*
X0246749Y0075178D01*
X0247499Y0075178D01*
X0248250Y0074427D01*
X0248250Y0072926D01*
X0247499Y0072175D01*
X0236998Y0043386D02*
X0236998Y0040383D01*
X0234746Y0042635D01*
X0239250Y0042635D01*
X0091567Y0088099D02*
X0091567Y0124517D01*
X0028772Y0124517D01*
X0028772Y0088099D01*
X0091567Y0088099D01*
D20*
X0027000Y0005737D02*
X0027000Y0215737D01*
X0281000Y0215737D01*
X0287000Y0209737D01*
X0287000Y0164737D01*
X0297000Y0154737D01*
X0297000Y0025737D01*
X0287000Y0015737D01*
X0287000Y0005737D01*
X0027000Y0005737D01*
X0075701Y0015737D02*
X0075703Y0015895D01*
X0075709Y0016053D01*
X0075719Y0016211D01*
X0075733Y0016369D01*
X0075751Y0016526D01*
X0075772Y0016683D01*
X0075798Y0016839D01*
X0075828Y0016995D01*
X0075861Y0017150D01*
X0075899Y0017303D01*
X0075940Y0017456D01*
X0075985Y0017608D01*
X0076034Y0017759D01*
X0076087Y0017908D01*
X0076143Y0018056D01*
X0076203Y0018202D01*
X0076267Y0018347D01*
X0076335Y0018490D01*
X0076406Y0018632D01*
X0076480Y0018772D01*
X0076558Y0018909D01*
X0076640Y0019045D01*
X0076724Y0019179D01*
X0076813Y0019310D01*
X0076904Y0019439D01*
X0076999Y0019566D01*
X0077096Y0019691D01*
X0077197Y0019813D01*
X0077301Y0019932D01*
X0077408Y0020049D01*
X0077518Y0020163D01*
X0077631Y0020274D01*
X0077746Y0020383D01*
X0077864Y0020488D01*
X0077985Y0020590D01*
X0078108Y0020690D01*
X0078234Y0020786D01*
X0078362Y0020879D01*
X0078492Y0020969D01*
X0078625Y0021055D01*
X0078760Y0021139D01*
X0078896Y0021218D01*
X0079035Y0021295D01*
X0079176Y0021367D01*
X0079318Y0021437D01*
X0079462Y0021502D01*
X0079608Y0021564D01*
X0079755Y0021622D01*
X0079904Y0021677D01*
X0080054Y0021728D01*
X0080205Y0021775D01*
X0080357Y0021818D01*
X0080510Y0021857D01*
X0080665Y0021893D01*
X0080820Y0021924D01*
X0080976Y0021952D01*
X0081132Y0021976D01*
X0081289Y0021996D01*
X0081447Y0022012D01*
X0081604Y0022024D01*
X0081763Y0022032D01*
X0081921Y0022036D01*
X0082079Y0022036D01*
X0082237Y0022032D01*
X0082396Y0022024D01*
X0082553Y0022012D01*
X0082711Y0021996D01*
X0082868Y0021976D01*
X0083024Y0021952D01*
X0083180Y0021924D01*
X0083335Y0021893D01*
X0083490Y0021857D01*
X0083643Y0021818D01*
X0083795Y0021775D01*
X0083946Y0021728D01*
X0084096Y0021677D01*
X0084245Y0021622D01*
X0084392Y0021564D01*
X0084538Y0021502D01*
X0084682Y0021437D01*
X0084824Y0021367D01*
X0084965Y0021295D01*
X0085104Y0021218D01*
X0085240Y0021139D01*
X0085375Y0021055D01*
X0085508Y0020969D01*
X0085638Y0020879D01*
X0085766Y0020786D01*
X0085892Y0020690D01*
X0086015Y0020590D01*
X0086136Y0020488D01*
X0086254Y0020383D01*
X0086369Y0020274D01*
X0086482Y0020163D01*
X0086592Y0020049D01*
X0086699Y0019932D01*
X0086803Y0019813D01*
X0086904Y0019691D01*
X0087001Y0019566D01*
X0087096Y0019439D01*
X0087187Y0019310D01*
X0087276Y0019179D01*
X0087360Y0019045D01*
X0087442Y0018909D01*
X0087520Y0018772D01*
X0087594Y0018632D01*
X0087665Y0018490D01*
X0087733Y0018347D01*
X0087797Y0018202D01*
X0087857Y0018056D01*
X0087913Y0017908D01*
X0087966Y0017759D01*
X0088015Y0017608D01*
X0088060Y0017456D01*
X0088101Y0017303D01*
X0088139Y0017150D01*
X0088172Y0016995D01*
X0088202Y0016839D01*
X0088228Y0016683D01*
X0088249Y0016526D01*
X0088267Y0016369D01*
X0088281Y0016211D01*
X0088291Y0016053D01*
X0088297Y0015895D01*
X0088299Y0015737D01*
X0088297Y0015579D01*
X0088291Y0015421D01*
X0088281Y0015263D01*
X0088267Y0015105D01*
X0088249Y0014948D01*
X0088228Y0014791D01*
X0088202Y0014635D01*
X0088172Y0014479D01*
X0088139Y0014324D01*
X0088101Y0014171D01*
X0088060Y0014018D01*
X0088015Y0013866D01*
X0087966Y0013715D01*
X0087913Y0013566D01*
X0087857Y0013418D01*
X0087797Y0013272D01*
X0087733Y0013127D01*
X0087665Y0012984D01*
X0087594Y0012842D01*
X0087520Y0012702D01*
X0087442Y0012565D01*
X0087360Y0012429D01*
X0087276Y0012295D01*
X0087187Y0012164D01*
X0087096Y0012035D01*
X0087001Y0011908D01*
X0086904Y0011783D01*
X0086803Y0011661D01*
X0086699Y0011542D01*
X0086592Y0011425D01*
X0086482Y0011311D01*
X0086369Y0011200D01*
X0086254Y0011091D01*
X0086136Y0010986D01*
X0086015Y0010884D01*
X0085892Y0010784D01*
X0085766Y0010688D01*
X0085638Y0010595D01*
X0085508Y0010505D01*
X0085375Y0010419D01*
X0085240Y0010335D01*
X0085104Y0010256D01*
X0084965Y0010179D01*
X0084824Y0010107D01*
X0084682Y0010037D01*
X0084538Y0009972D01*
X0084392Y0009910D01*
X0084245Y0009852D01*
X0084096Y0009797D01*
X0083946Y0009746D01*
X0083795Y0009699D01*
X0083643Y0009656D01*
X0083490Y0009617D01*
X0083335Y0009581D01*
X0083180Y0009550D01*
X0083024Y0009522D01*
X0082868Y0009498D01*
X0082711Y0009478D01*
X0082553Y0009462D01*
X0082396Y0009450D01*
X0082237Y0009442D01*
X0082079Y0009438D01*
X0081921Y0009438D01*
X0081763Y0009442D01*
X0081604Y0009450D01*
X0081447Y0009462D01*
X0081289Y0009478D01*
X0081132Y0009498D01*
X0080976Y0009522D01*
X0080820Y0009550D01*
X0080665Y0009581D01*
X0080510Y0009617D01*
X0080357Y0009656D01*
X0080205Y0009699D01*
X0080054Y0009746D01*
X0079904Y0009797D01*
X0079755Y0009852D01*
X0079608Y0009910D01*
X0079462Y0009972D01*
X0079318Y0010037D01*
X0079176Y0010107D01*
X0079035Y0010179D01*
X0078896Y0010256D01*
X0078760Y0010335D01*
X0078625Y0010419D01*
X0078492Y0010505D01*
X0078362Y0010595D01*
X0078234Y0010688D01*
X0078108Y0010784D01*
X0077985Y0010884D01*
X0077864Y0010986D01*
X0077746Y0011091D01*
X0077631Y0011200D01*
X0077518Y0011311D01*
X0077408Y0011425D01*
X0077301Y0011542D01*
X0077197Y0011661D01*
X0077096Y0011783D01*
X0076999Y0011908D01*
X0076904Y0012035D01*
X0076813Y0012164D01*
X0076724Y0012295D01*
X0076640Y0012429D01*
X0076558Y0012565D01*
X0076480Y0012702D01*
X0076406Y0012842D01*
X0076335Y0012984D01*
X0076267Y0013127D01*
X0076203Y0013272D01*
X0076143Y0013418D01*
X0076087Y0013566D01*
X0076034Y0013715D01*
X0075985Y0013866D01*
X0075940Y0014018D01*
X0075899Y0014171D01*
X0075861Y0014324D01*
X0075828Y0014479D01*
X0075798Y0014635D01*
X0075772Y0014791D01*
X0075751Y0014948D01*
X0075733Y0015105D01*
X0075719Y0015263D01*
X0075709Y0015421D01*
X0075703Y0015579D01*
X0075701Y0015737D01*
X0202944Y0170737D02*
X0202946Y0170825D01*
X0202952Y0170913D01*
X0202962Y0171001D01*
X0202976Y0171089D01*
X0202993Y0171175D01*
X0203015Y0171261D01*
X0203040Y0171345D01*
X0203070Y0171429D01*
X0203102Y0171511D01*
X0203139Y0171591D01*
X0203179Y0171670D01*
X0203223Y0171747D01*
X0203270Y0171822D01*
X0203320Y0171894D01*
X0203374Y0171965D01*
X0203430Y0172032D01*
X0203490Y0172098D01*
X0203552Y0172160D01*
X0203618Y0172220D01*
X0203685Y0172276D01*
X0203756Y0172330D01*
X0203828Y0172380D01*
X0203903Y0172427D01*
X0203980Y0172471D01*
X0204059Y0172511D01*
X0204139Y0172548D01*
X0204221Y0172580D01*
X0204305Y0172610D01*
X0204389Y0172635D01*
X0204475Y0172657D01*
X0204561Y0172674D01*
X0204649Y0172688D01*
X0204737Y0172698D01*
X0204825Y0172704D01*
X0204913Y0172706D01*
X0205001Y0172704D01*
X0205089Y0172698D01*
X0205177Y0172688D01*
X0205265Y0172674D01*
X0205351Y0172657D01*
X0205437Y0172635D01*
X0205521Y0172610D01*
X0205605Y0172580D01*
X0205687Y0172548D01*
X0205767Y0172511D01*
X0205846Y0172471D01*
X0205923Y0172427D01*
X0205998Y0172380D01*
X0206070Y0172330D01*
X0206141Y0172276D01*
X0206208Y0172220D01*
X0206274Y0172160D01*
X0206336Y0172098D01*
X0206396Y0172032D01*
X0206452Y0171965D01*
X0206506Y0171894D01*
X0206556Y0171822D01*
X0206603Y0171747D01*
X0206647Y0171670D01*
X0206687Y0171591D01*
X0206724Y0171511D01*
X0206756Y0171429D01*
X0206786Y0171345D01*
X0206811Y0171261D01*
X0206833Y0171175D01*
X0206850Y0171089D01*
X0206864Y0171001D01*
X0206874Y0170913D01*
X0206880Y0170825D01*
X0206882Y0170737D01*
X0206880Y0170649D01*
X0206874Y0170561D01*
X0206864Y0170473D01*
X0206850Y0170385D01*
X0206833Y0170299D01*
X0206811Y0170213D01*
X0206786Y0170129D01*
X0206756Y0170045D01*
X0206724Y0169963D01*
X0206687Y0169883D01*
X0206647Y0169804D01*
X0206603Y0169727D01*
X0206556Y0169652D01*
X0206506Y0169580D01*
X0206452Y0169509D01*
X0206396Y0169442D01*
X0206336Y0169376D01*
X0206274Y0169314D01*
X0206208Y0169254D01*
X0206141Y0169198D01*
X0206070Y0169144D01*
X0205998Y0169094D01*
X0205923Y0169047D01*
X0205846Y0169003D01*
X0205767Y0168963D01*
X0205687Y0168926D01*
X0205605Y0168894D01*
X0205521Y0168864D01*
X0205437Y0168839D01*
X0205351Y0168817D01*
X0205265Y0168800D01*
X0205177Y0168786D01*
X0205089Y0168776D01*
X0205001Y0168770D01*
X0204913Y0168768D01*
X0204825Y0168770D01*
X0204737Y0168776D01*
X0204649Y0168786D01*
X0204561Y0168800D01*
X0204475Y0168817D01*
X0204389Y0168839D01*
X0204305Y0168864D01*
X0204221Y0168894D01*
X0204139Y0168926D01*
X0204059Y0168963D01*
X0203980Y0169003D01*
X0203903Y0169047D01*
X0203828Y0169094D01*
X0203756Y0169144D01*
X0203685Y0169198D01*
X0203618Y0169254D01*
X0203552Y0169314D01*
X0203490Y0169376D01*
X0203430Y0169442D01*
X0203374Y0169509D01*
X0203320Y0169580D01*
X0203270Y0169652D01*
X0203223Y0169727D01*
X0203179Y0169804D01*
X0203139Y0169883D01*
X0203102Y0169963D01*
X0203070Y0170045D01*
X0203040Y0170129D01*
X0203015Y0170213D01*
X0202993Y0170299D01*
X0202976Y0170385D01*
X0202962Y0170473D01*
X0202952Y0170561D01*
X0202946Y0170649D01*
X0202944Y0170737D01*
X0217118Y0170737D02*
X0217120Y0170825D01*
X0217126Y0170913D01*
X0217136Y0171001D01*
X0217150Y0171089D01*
X0217167Y0171175D01*
X0217189Y0171261D01*
X0217214Y0171345D01*
X0217244Y0171429D01*
X0217276Y0171511D01*
X0217313Y0171591D01*
X0217353Y0171670D01*
X0217397Y0171747D01*
X0217444Y0171822D01*
X0217494Y0171894D01*
X0217548Y0171965D01*
X0217604Y0172032D01*
X0217664Y0172098D01*
X0217726Y0172160D01*
X0217792Y0172220D01*
X0217859Y0172276D01*
X0217930Y0172330D01*
X0218002Y0172380D01*
X0218077Y0172427D01*
X0218154Y0172471D01*
X0218233Y0172511D01*
X0218313Y0172548D01*
X0218395Y0172580D01*
X0218479Y0172610D01*
X0218563Y0172635D01*
X0218649Y0172657D01*
X0218735Y0172674D01*
X0218823Y0172688D01*
X0218911Y0172698D01*
X0218999Y0172704D01*
X0219087Y0172706D01*
X0219175Y0172704D01*
X0219263Y0172698D01*
X0219351Y0172688D01*
X0219439Y0172674D01*
X0219525Y0172657D01*
X0219611Y0172635D01*
X0219695Y0172610D01*
X0219779Y0172580D01*
X0219861Y0172548D01*
X0219941Y0172511D01*
X0220020Y0172471D01*
X0220097Y0172427D01*
X0220172Y0172380D01*
X0220244Y0172330D01*
X0220315Y0172276D01*
X0220382Y0172220D01*
X0220448Y0172160D01*
X0220510Y0172098D01*
X0220570Y0172032D01*
X0220626Y0171965D01*
X0220680Y0171894D01*
X0220730Y0171822D01*
X0220777Y0171747D01*
X0220821Y0171670D01*
X0220861Y0171591D01*
X0220898Y0171511D01*
X0220930Y0171429D01*
X0220960Y0171345D01*
X0220985Y0171261D01*
X0221007Y0171175D01*
X0221024Y0171089D01*
X0221038Y0171001D01*
X0221048Y0170913D01*
X0221054Y0170825D01*
X0221056Y0170737D01*
X0221054Y0170649D01*
X0221048Y0170561D01*
X0221038Y0170473D01*
X0221024Y0170385D01*
X0221007Y0170299D01*
X0220985Y0170213D01*
X0220960Y0170129D01*
X0220930Y0170045D01*
X0220898Y0169963D01*
X0220861Y0169883D01*
X0220821Y0169804D01*
X0220777Y0169727D01*
X0220730Y0169652D01*
X0220680Y0169580D01*
X0220626Y0169509D01*
X0220570Y0169442D01*
X0220510Y0169376D01*
X0220448Y0169314D01*
X0220382Y0169254D01*
X0220315Y0169198D01*
X0220244Y0169144D01*
X0220172Y0169094D01*
X0220097Y0169047D01*
X0220020Y0169003D01*
X0219941Y0168963D01*
X0219861Y0168926D01*
X0219779Y0168894D01*
X0219695Y0168864D01*
X0219611Y0168839D01*
X0219525Y0168817D01*
X0219439Y0168800D01*
X0219351Y0168786D01*
X0219263Y0168776D01*
X0219175Y0168770D01*
X0219087Y0168768D01*
X0218999Y0168770D01*
X0218911Y0168776D01*
X0218823Y0168786D01*
X0218735Y0168800D01*
X0218649Y0168817D01*
X0218563Y0168839D01*
X0218479Y0168864D01*
X0218395Y0168894D01*
X0218313Y0168926D01*
X0218233Y0168963D01*
X0218154Y0169003D01*
X0218077Y0169047D01*
X0218002Y0169094D01*
X0217930Y0169144D01*
X0217859Y0169198D01*
X0217792Y0169254D01*
X0217726Y0169314D01*
X0217664Y0169376D01*
X0217604Y0169442D01*
X0217548Y0169509D01*
X0217494Y0169580D01*
X0217444Y0169652D01*
X0217397Y0169727D01*
X0217353Y0169804D01*
X0217313Y0169883D01*
X0217276Y0169963D01*
X0217244Y0170045D01*
X0217214Y0170129D01*
X0217189Y0170213D01*
X0217167Y0170299D01*
X0217150Y0170385D01*
X0217136Y0170473D01*
X0217126Y0170561D01*
X0217120Y0170649D01*
X0217118Y0170737D01*
X0280701Y0145737D02*
X0280703Y0145895D01*
X0280709Y0146053D01*
X0280719Y0146211D01*
X0280733Y0146369D01*
X0280751Y0146526D01*
X0280772Y0146683D01*
X0280798Y0146839D01*
X0280828Y0146995D01*
X0280861Y0147150D01*
X0280899Y0147303D01*
X0280940Y0147456D01*
X0280985Y0147608D01*
X0281034Y0147759D01*
X0281087Y0147908D01*
X0281143Y0148056D01*
X0281203Y0148202D01*
X0281267Y0148347D01*
X0281335Y0148490D01*
X0281406Y0148632D01*
X0281480Y0148772D01*
X0281558Y0148909D01*
X0281640Y0149045D01*
X0281724Y0149179D01*
X0281813Y0149310D01*
X0281904Y0149439D01*
X0281999Y0149566D01*
X0282096Y0149691D01*
X0282197Y0149813D01*
X0282301Y0149932D01*
X0282408Y0150049D01*
X0282518Y0150163D01*
X0282631Y0150274D01*
X0282746Y0150383D01*
X0282864Y0150488D01*
X0282985Y0150590D01*
X0283108Y0150690D01*
X0283234Y0150786D01*
X0283362Y0150879D01*
X0283492Y0150969D01*
X0283625Y0151055D01*
X0283760Y0151139D01*
X0283896Y0151218D01*
X0284035Y0151295D01*
X0284176Y0151367D01*
X0284318Y0151437D01*
X0284462Y0151502D01*
X0284608Y0151564D01*
X0284755Y0151622D01*
X0284904Y0151677D01*
X0285054Y0151728D01*
X0285205Y0151775D01*
X0285357Y0151818D01*
X0285510Y0151857D01*
X0285665Y0151893D01*
X0285820Y0151924D01*
X0285976Y0151952D01*
X0286132Y0151976D01*
X0286289Y0151996D01*
X0286447Y0152012D01*
X0286604Y0152024D01*
X0286763Y0152032D01*
X0286921Y0152036D01*
X0287079Y0152036D01*
X0287237Y0152032D01*
X0287396Y0152024D01*
X0287553Y0152012D01*
X0287711Y0151996D01*
X0287868Y0151976D01*
X0288024Y0151952D01*
X0288180Y0151924D01*
X0288335Y0151893D01*
X0288490Y0151857D01*
X0288643Y0151818D01*
X0288795Y0151775D01*
X0288946Y0151728D01*
X0289096Y0151677D01*
X0289245Y0151622D01*
X0289392Y0151564D01*
X0289538Y0151502D01*
X0289682Y0151437D01*
X0289824Y0151367D01*
X0289965Y0151295D01*
X0290104Y0151218D01*
X0290240Y0151139D01*
X0290375Y0151055D01*
X0290508Y0150969D01*
X0290638Y0150879D01*
X0290766Y0150786D01*
X0290892Y0150690D01*
X0291015Y0150590D01*
X0291136Y0150488D01*
X0291254Y0150383D01*
X0291369Y0150274D01*
X0291482Y0150163D01*
X0291592Y0150049D01*
X0291699Y0149932D01*
X0291803Y0149813D01*
X0291904Y0149691D01*
X0292001Y0149566D01*
X0292096Y0149439D01*
X0292187Y0149310D01*
X0292276Y0149179D01*
X0292360Y0149045D01*
X0292442Y0148909D01*
X0292520Y0148772D01*
X0292594Y0148632D01*
X0292665Y0148490D01*
X0292733Y0148347D01*
X0292797Y0148202D01*
X0292857Y0148056D01*
X0292913Y0147908D01*
X0292966Y0147759D01*
X0293015Y0147608D01*
X0293060Y0147456D01*
X0293101Y0147303D01*
X0293139Y0147150D01*
X0293172Y0146995D01*
X0293202Y0146839D01*
X0293228Y0146683D01*
X0293249Y0146526D01*
X0293267Y0146369D01*
X0293281Y0146211D01*
X0293291Y0146053D01*
X0293297Y0145895D01*
X0293299Y0145737D01*
X0293297Y0145579D01*
X0293291Y0145421D01*
X0293281Y0145263D01*
X0293267Y0145105D01*
X0293249Y0144948D01*
X0293228Y0144791D01*
X0293202Y0144635D01*
X0293172Y0144479D01*
X0293139Y0144324D01*
X0293101Y0144171D01*
X0293060Y0144018D01*
X0293015Y0143866D01*
X0292966Y0143715D01*
X0292913Y0143566D01*
X0292857Y0143418D01*
X0292797Y0143272D01*
X0292733Y0143127D01*
X0292665Y0142984D01*
X0292594Y0142842D01*
X0292520Y0142702D01*
X0292442Y0142565D01*
X0292360Y0142429D01*
X0292276Y0142295D01*
X0292187Y0142164D01*
X0292096Y0142035D01*
X0292001Y0141908D01*
X0291904Y0141783D01*
X0291803Y0141661D01*
X0291699Y0141542D01*
X0291592Y0141425D01*
X0291482Y0141311D01*
X0291369Y0141200D01*
X0291254Y0141091D01*
X0291136Y0140986D01*
X0291015Y0140884D01*
X0290892Y0140784D01*
X0290766Y0140688D01*
X0290638Y0140595D01*
X0290508Y0140505D01*
X0290375Y0140419D01*
X0290240Y0140335D01*
X0290104Y0140256D01*
X0289965Y0140179D01*
X0289824Y0140107D01*
X0289682Y0140037D01*
X0289538Y0139972D01*
X0289392Y0139910D01*
X0289245Y0139852D01*
X0289096Y0139797D01*
X0288946Y0139746D01*
X0288795Y0139699D01*
X0288643Y0139656D01*
X0288490Y0139617D01*
X0288335Y0139581D01*
X0288180Y0139550D01*
X0288024Y0139522D01*
X0287868Y0139498D01*
X0287711Y0139478D01*
X0287553Y0139462D01*
X0287396Y0139450D01*
X0287237Y0139442D01*
X0287079Y0139438D01*
X0286921Y0139438D01*
X0286763Y0139442D01*
X0286604Y0139450D01*
X0286447Y0139462D01*
X0286289Y0139478D01*
X0286132Y0139498D01*
X0285976Y0139522D01*
X0285820Y0139550D01*
X0285665Y0139581D01*
X0285510Y0139617D01*
X0285357Y0139656D01*
X0285205Y0139699D01*
X0285054Y0139746D01*
X0284904Y0139797D01*
X0284755Y0139852D01*
X0284608Y0139910D01*
X0284462Y0139972D01*
X0284318Y0140037D01*
X0284176Y0140107D01*
X0284035Y0140179D01*
X0283896Y0140256D01*
X0283760Y0140335D01*
X0283625Y0140419D01*
X0283492Y0140505D01*
X0283362Y0140595D01*
X0283234Y0140688D01*
X0283108Y0140784D01*
X0282985Y0140884D01*
X0282864Y0140986D01*
X0282746Y0141091D01*
X0282631Y0141200D01*
X0282518Y0141311D01*
X0282408Y0141425D01*
X0282301Y0141542D01*
X0282197Y0141661D01*
X0282096Y0141783D01*
X0281999Y0141908D01*
X0281904Y0142035D01*
X0281813Y0142164D01*
X0281724Y0142295D01*
X0281640Y0142429D01*
X0281558Y0142565D01*
X0281480Y0142702D01*
X0281406Y0142842D01*
X0281335Y0142984D01*
X0281267Y0143127D01*
X0281203Y0143272D01*
X0281143Y0143418D01*
X0281087Y0143566D01*
X0281034Y0143715D01*
X0280985Y0143866D01*
X0280940Y0144018D01*
X0280899Y0144171D01*
X0280861Y0144324D01*
X0280828Y0144479D01*
X0280798Y0144635D01*
X0280772Y0144791D01*
X0280751Y0144948D01*
X0280733Y0145105D01*
X0280719Y0145263D01*
X0280709Y0145421D01*
X0280703Y0145579D01*
X0280701Y0145737D01*
X0080701Y0205737D02*
X0080703Y0205895D01*
X0080709Y0206053D01*
X0080719Y0206211D01*
X0080733Y0206369D01*
X0080751Y0206526D01*
X0080772Y0206683D01*
X0080798Y0206839D01*
X0080828Y0206995D01*
X0080861Y0207150D01*
X0080899Y0207303D01*
X0080940Y0207456D01*
X0080985Y0207608D01*
X0081034Y0207759D01*
X0081087Y0207908D01*
X0081143Y0208056D01*
X0081203Y0208202D01*
X0081267Y0208347D01*
X0081335Y0208490D01*
X0081406Y0208632D01*
X0081480Y0208772D01*
X0081558Y0208909D01*
X0081640Y0209045D01*
X0081724Y0209179D01*
X0081813Y0209310D01*
X0081904Y0209439D01*
X0081999Y0209566D01*
X0082096Y0209691D01*
X0082197Y0209813D01*
X0082301Y0209932D01*
X0082408Y0210049D01*
X0082518Y0210163D01*
X0082631Y0210274D01*
X0082746Y0210383D01*
X0082864Y0210488D01*
X0082985Y0210590D01*
X0083108Y0210690D01*
X0083234Y0210786D01*
X0083362Y0210879D01*
X0083492Y0210969D01*
X0083625Y0211055D01*
X0083760Y0211139D01*
X0083896Y0211218D01*
X0084035Y0211295D01*
X0084176Y0211367D01*
X0084318Y0211437D01*
X0084462Y0211502D01*
X0084608Y0211564D01*
X0084755Y0211622D01*
X0084904Y0211677D01*
X0085054Y0211728D01*
X0085205Y0211775D01*
X0085357Y0211818D01*
X0085510Y0211857D01*
X0085665Y0211893D01*
X0085820Y0211924D01*
X0085976Y0211952D01*
X0086132Y0211976D01*
X0086289Y0211996D01*
X0086447Y0212012D01*
X0086604Y0212024D01*
X0086763Y0212032D01*
X0086921Y0212036D01*
X0087079Y0212036D01*
X0087237Y0212032D01*
X0087396Y0212024D01*
X0087553Y0212012D01*
X0087711Y0211996D01*
X0087868Y0211976D01*
X0088024Y0211952D01*
X0088180Y0211924D01*
X0088335Y0211893D01*
X0088490Y0211857D01*
X0088643Y0211818D01*
X0088795Y0211775D01*
X0088946Y0211728D01*
X0089096Y0211677D01*
X0089245Y0211622D01*
X0089392Y0211564D01*
X0089538Y0211502D01*
X0089682Y0211437D01*
X0089824Y0211367D01*
X0089965Y0211295D01*
X0090104Y0211218D01*
X0090240Y0211139D01*
X0090375Y0211055D01*
X0090508Y0210969D01*
X0090638Y0210879D01*
X0090766Y0210786D01*
X0090892Y0210690D01*
X0091015Y0210590D01*
X0091136Y0210488D01*
X0091254Y0210383D01*
X0091369Y0210274D01*
X0091482Y0210163D01*
X0091592Y0210049D01*
X0091699Y0209932D01*
X0091803Y0209813D01*
X0091904Y0209691D01*
X0092001Y0209566D01*
X0092096Y0209439D01*
X0092187Y0209310D01*
X0092276Y0209179D01*
X0092360Y0209045D01*
X0092442Y0208909D01*
X0092520Y0208772D01*
X0092594Y0208632D01*
X0092665Y0208490D01*
X0092733Y0208347D01*
X0092797Y0208202D01*
X0092857Y0208056D01*
X0092913Y0207908D01*
X0092966Y0207759D01*
X0093015Y0207608D01*
X0093060Y0207456D01*
X0093101Y0207303D01*
X0093139Y0207150D01*
X0093172Y0206995D01*
X0093202Y0206839D01*
X0093228Y0206683D01*
X0093249Y0206526D01*
X0093267Y0206369D01*
X0093281Y0206211D01*
X0093291Y0206053D01*
X0093297Y0205895D01*
X0093299Y0205737D01*
X0093297Y0205579D01*
X0093291Y0205421D01*
X0093281Y0205263D01*
X0093267Y0205105D01*
X0093249Y0204948D01*
X0093228Y0204791D01*
X0093202Y0204635D01*
X0093172Y0204479D01*
X0093139Y0204324D01*
X0093101Y0204171D01*
X0093060Y0204018D01*
X0093015Y0203866D01*
X0092966Y0203715D01*
X0092913Y0203566D01*
X0092857Y0203418D01*
X0092797Y0203272D01*
X0092733Y0203127D01*
X0092665Y0202984D01*
X0092594Y0202842D01*
X0092520Y0202702D01*
X0092442Y0202565D01*
X0092360Y0202429D01*
X0092276Y0202295D01*
X0092187Y0202164D01*
X0092096Y0202035D01*
X0092001Y0201908D01*
X0091904Y0201783D01*
X0091803Y0201661D01*
X0091699Y0201542D01*
X0091592Y0201425D01*
X0091482Y0201311D01*
X0091369Y0201200D01*
X0091254Y0201091D01*
X0091136Y0200986D01*
X0091015Y0200884D01*
X0090892Y0200784D01*
X0090766Y0200688D01*
X0090638Y0200595D01*
X0090508Y0200505D01*
X0090375Y0200419D01*
X0090240Y0200335D01*
X0090104Y0200256D01*
X0089965Y0200179D01*
X0089824Y0200107D01*
X0089682Y0200037D01*
X0089538Y0199972D01*
X0089392Y0199910D01*
X0089245Y0199852D01*
X0089096Y0199797D01*
X0088946Y0199746D01*
X0088795Y0199699D01*
X0088643Y0199656D01*
X0088490Y0199617D01*
X0088335Y0199581D01*
X0088180Y0199550D01*
X0088024Y0199522D01*
X0087868Y0199498D01*
X0087711Y0199478D01*
X0087553Y0199462D01*
X0087396Y0199450D01*
X0087237Y0199442D01*
X0087079Y0199438D01*
X0086921Y0199438D01*
X0086763Y0199442D01*
X0086604Y0199450D01*
X0086447Y0199462D01*
X0086289Y0199478D01*
X0086132Y0199498D01*
X0085976Y0199522D01*
X0085820Y0199550D01*
X0085665Y0199581D01*
X0085510Y0199617D01*
X0085357Y0199656D01*
X0085205Y0199699D01*
X0085054Y0199746D01*
X0084904Y0199797D01*
X0084755Y0199852D01*
X0084608Y0199910D01*
X0084462Y0199972D01*
X0084318Y0200037D01*
X0084176Y0200107D01*
X0084035Y0200179D01*
X0083896Y0200256D01*
X0083760Y0200335D01*
X0083625Y0200419D01*
X0083492Y0200505D01*
X0083362Y0200595D01*
X0083234Y0200688D01*
X0083108Y0200784D01*
X0082985Y0200884D01*
X0082864Y0200986D01*
X0082746Y0201091D01*
X0082631Y0201200D01*
X0082518Y0201311D01*
X0082408Y0201425D01*
X0082301Y0201542D01*
X0082197Y0201661D01*
X0082096Y0201783D01*
X0081999Y0201908D01*
X0081904Y0202035D01*
X0081813Y0202164D01*
X0081724Y0202295D01*
X0081640Y0202429D01*
X0081558Y0202565D01*
X0081480Y0202702D01*
X0081406Y0202842D01*
X0081335Y0202984D01*
X0081267Y0203127D01*
X0081203Y0203272D01*
X0081143Y0203418D01*
X0081087Y0203566D01*
X0081034Y0203715D01*
X0080985Y0203866D01*
X0080940Y0204018D01*
X0080899Y0204171D01*
X0080861Y0204324D01*
X0080828Y0204479D01*
X0080798Y0204635D01*
X0080772Y0204791D01*
X0080751Y0204948D01*
X0080733Y0205105D01*
X0080719Y0205263D01*
X0080709Y0205421D01*
X0080703Y0205579D01*
X0080701Y0205737D01*
D21*
X0054185Y0195491D03*
X0048060Y0191291D03*
X0048025Y0191326D03*
X0047990Y0191326D03*
X0047955Y0191361D03*
X0047640Y0191501D03*
X0047570Y0191536D03*
X0040605Y0191361D03*
X0039835Y0198886D03*
D22*
X0040325Y0198816D03*
X0039870Y0195491D03*
X0041200Y0191466D03*
X0046625Y0191991D03*
X0047745Y0193391D03*
X0047710Y0193426D03*
X0047850Y0193321D03*
X0047885Y0193286D03*
X0047955Y0193251D03*
X0047990Y0193216D03*
X0048060Y0193181D03*
X0050720Y0193251D03*
X0050755Y0193286D03*
X0050755Y0197416D03*
X0052225Y0198501D03*
X0052260Y0198466D03*
X0052295Y0198431D03*
X0049530Y0199901D03*
X0049495Y0199901D03*
X0049460Y0199901D03*
X0049425Y0199936D03*
X0049390Y0199936D03*
X0047360Y0197031D03*
X0054150Y0195491D03*
X0047535Y0188176D03*
D23*
X0047780Y0188228D03*
X0046275Y0192218D03*
X0047185Y0194248D03*
X0051070Y0197188D03*
X0052750Y0197853D03*
X0054115Y0195473D03*
X0051210Y0193933D03*
X0048550Y0200058D03*
X0048515Y0200058D03*
X0040955Y0198728D03*
X0040920Y0198728D03*
X0040430Y0195473D03*
X0040395Y0195473D03*
X0042075Y0191623D03*
X0042110Y0191623D03*
X0042145Y0191623D03*
D24*
X0043580Y0191886D03*
X0043615Y0191886D03*
X0044035Y0191991D03*
X0046100Y0192341D03*
X0051245Y0194161D03*
X0052155Y0191711D03*
X0054080Y0195491D03*
X0048060Y0200076D03*
X0045925Y0197976D03*
D25*
X0047675Y0200058D03*
X0045365Y0200968D03*
X0045330Y0200968D03*
X0045295Y0201003D03*
X0054045Y0195473D03*
X0051630Y0195123D03*
X0051210Y0190748D03*
X0051175Y0190713D03*
X0045960Y0192498D03*
X0042250Y0195298D03*
X0042215Y0195298D03*
X0042180Y0195298D03*
X0042145Y0195298D03*
X0042110Y0195298D03*
D26*
X0043615Y0195158D03*
X0043650Y0195158D03*
X0043685Y0195158D03*
X0043720Y0195158D03*
X0043755Y0195158D03*
X0043790Y0195158D03*
X0050790Y0190398D03*
X0048305Y0188578D03*
X0051245Y0196733D03*
X0054010Y0195473D03*
X0047395Y0200023D03*
D27*
X0053975Y0195473D03*
X0045785Y0192708D03*
X0044490Y0195123D03*
X0044455Y0195123D03*
X0044420Y0195123D03*
X0044385Y0195123D03*
D28*
X0047010Y0199971D03*
X0053940Y0195456D03*
D29*
X0053905Y0195438D03*
X0051455Y0195123D03*
X0049950Y0189838D03*
D30*
X0049705Y0189698D03*
X0053870Y0195438D03*
X0046730Y0199883D03*
D31*
X0046590Y0199831D03*
X0053835Y0195421D03*
X0049425Y0189576D03*
D32*
X0049180Y0189488D03*
X0049145Y0189488D03*
X0053800Y0195438D03*
X0046485Y0199778D03*
D33*
X0047150Y0195456D03*
X0053765Y0195421D03*
X0048935Y0189436D03*
X0048900Y0189436D03*
X0048865Y0189436D03*
D34*
X0053730Y0195421D03*
D35*
X0053695Y0195403D03*
X0048410Y0189383D03*
X0046240Y0199673D03*
D36*
X0053660Y0195386D03*
D37*
X0053625Y0195386D03*
X0046100Y0199586D03*
D38*
X0053590Y0195368D03*
D39*
X0053555Y0195351D03*
D40*
X0053520Y0195351D03*
D41*
X0053485Y0195333D03*
D42*
X0053450Y0195333D03*
D43*
X0053415Y0195316D03*
D44*
X0053380Y0195316D03*
X0044980Y0196331D03*
X0044945Y0196331D03*
X0044840Y0196366D03*
D45*
X0053345Y0195298D03*
D46*
X0053310Y0195281D03*
D47*
X0053275Y0195263D03*
D48*
X0053240Y0195263D03*
D49*
X0053205Y0195246D03*
D50*
X0053170Y0195228D03*
D51*
X0053135Y0195228D03*
D52*
X0053100Y0195211D03*
D53*
X0053065Y0195193D03*
D54*
X0053030Y0193391D03*
X0050335Y0190066D03*
X0044700Y0195141D03*
X0047115Y0199971D03*
D55*
X0047500Y0200041D03*
X0045785Y0200706D03*
X0045750Y0200741D03*
X0045750Y0197696D03*
X0043195Y0195211D03*
X0043160Y0195211D03*
X0043125Y0195211D03*
X0043090Y0195211D03*
X0043055Y0195211D03*
X0043020Y0195211D03*
X0050860Y0190451D03*
X0050895Y0190486D03*
X0048270Y0188526D03*
X0053030Y0197171D03*
D56*
X0052995Y0193251D03*
X0050615Y0190276D03*
X0050580Y0190241D03*
X0044175Y0195141D03*
X0044140Y0195141D03*
X0044105Y0195141D03*
X0044070Y0195141D03*
X0044035Y0195141D03*
D57*
X0041900Y0195333D03*
X0041865Y0195333D03*
X0041830Y0195333D03*
X0041795Y0195333D03*
X0041760Y0195333D03*
X0044315Y0198098D03*
X0044560Y0198028D03*
X0044595Y0198028D03*
X0044665Y0197993D03*
X0044700Y0197993D03*
X0044805Y0197958D03*
X0045820Y0197818D03*
X0045120Y0201073D03*
X0045050Y0201108D03*
X0052995Y0197328D03*
X0051420Y0190923D03*
X0051350Y0190853D03*
X0048130Y0188403D03*
D58*
X0045855Y0192621D03*
X0043580Y0195176D03*
X0043545Y0195176D03*
X0043510Y0195176D03*
X0043475Y0195176D03*
X0043440Y0195176D03*
X0045890Y0200636D03*
X0047430Y0200041D03*
X0052960Y0193111D03*
D59*
X0052680Y0192481D03*
X0052645Y0192411D03*
X0051630Y0191116D03*
X0048060Y0188351D03*
X0046030Y0192411D03*
X0044735Y0192201D03*
X0044700Y0192201D03*
X0044665Y0192166D03*
X0044630Y0192166D03*
X0041445Y0195386D03*
X0041410Y0195386D03*
X0041375Y0195386D03*
X0041340Y0195386D03*
X0042355Y0198501D03*
X0042390Y0198501D03*
X0042425Y0198501D03*
X0042460Y0198501D03*
X0042530Y0198466D03*
X0042565Y0198466D03*
X0042600Y0198466D03*
X0042635Y0198466D03*
X0042740Y0198431D03*
X0042775Y0198431D03*
X0042810Y0198431D03*
X0044665Y0201266D03*
X0044735Y0201231D03*
X0047885Y0200076D03*
X0052960Y0197416D03*
D60*
X0051595Y0195123D03*
X0052925Y0193023D03*
X0045855Y0200653D03*
X0045820Y0200688D03*
D61*
X0044385Y0201371D03*
X0044350Y0201371D03*
X0041795Y0198606D03*
X0041760Y0198606D03*
X0041725Y0198606D03*
X0041690Y0198606D03*
X0041095Y0195421D03*
X0041060Y0195421D03*
X0041025Y0195421D03*
X0040990Y0195421D03*
X0043720Y0191921D03*
X0043755Y0191921D03*
X0043790Y0191921D03*
X0043860Y0191956D03*
X0043895Y0191956D03*
X0052925Y0197521D03*
D62*
X0052890Y0192936D03*
X0051035Y0190591D03*
X0051000Y0190556D03*
X0048235Y0188491D03*
X0042810Y0195246D03*
X0042775Y0195246D03*
X0042740Y0195246D03*
X0042705Y0195246D03*
X0042670Y0195246D03*
X0045645Y0200811D03*
D63*
X0044245Y0201406D03*
X0041550Y0198641D03*
X0041515Y0198641D03*
X0041480Y0198641D03*
X0040850Y0195456D03*
X0043055Y0191781D03*
X0043090Y0191781D03*
X0043125Y0191781D03*
X0043160Y0191781D03*
X0043195Y0191816D03*
X0043230Y0191816D03*
X0043265Y0191816D03*
X0043300Y0191816D03*
X0047920Y0188281D03*
X0052890Y0197591D03*
X0048165Y0200076D03*
D64*
X0045505Y0200881D03*
X0042425Y0195281D03*
X0042390Y0195281D03*
X0042355Y0195281D03*
X0042320Y0195281D03*
X0042285Y0195281D03*
X0048200Y0188456D03*
X0051140Y0190696D03*
X0052855Y0192831D03*
D65*
X0052855Y0197661D03*
X0048305Y0200076D03*
X0048270Y0200076D03*
X0048235Y0200076D03*
X0044140Y0201441D03*
X0041340Y0198676D03*
X0041305Y0198676D03*
X0041270Y0198676D03*
X0040745Y0195456D03*
X0040710Y0195456D03*
X0040675Y0195456D03*
X0042670Y0191711D03*
X0042705Y0191711D03*
X0042740Y0191711D03*
X0042810Y0191746D03*
X0042845Y0191746D03*
X0042880Y0191746D03*
X0046730Y0195526D03*
X0047885Y0188281D03*
D66*
X0048165Y0188421D03*
X0051245Y0190766D03*
X0051280Y0190801D03*
X0051315Y0190836D03*
X0052785Y0192691D03*
X0052820Y0192761D03*
X0044770Y0197976D03*
X0044735Y0197976D03*
X0045225Y0201021D03*
X0045260Y0201021D03*
X0045190Y0201056D03*
X0045155Y0201056D03*
X0045085Y0201091D03*
X0047710Y0200076D03*
X0047745Y0200076D03*
X0042075Y0195316D03*
X0042040Y0195316D03*
X0042005Y0195316D03*
X0041970Y0195316D03*
X0041935Y0195316D03*
D67*
X0040605Y0195456D03*
X0041060Y0198711D03*
X0041095Y0198711D03*
X0041130Y0198711D03*
X0044035Y0201476D03*
X0048340Y0200076D03*
X0048375Y0200076D03*
X0052820Y0197731D03*
X0051105Y0197136D03*
X0051700Y0195141D03*
X0046205Y0192271D03*
X0042530Y0191676D03*
X0042495Y0191676D03*
X0042460Y0191676D03*
X0042425Y0191676D03*
X0047815Y0188246D03*
D68*
X0052785Y0197801D03*
X0048480Y0200076D03*
X0048445Y0200076D03*
D69*
X0047815Y0200076D03*
X0047780Y0200076D03*
X0045015Y0201126D03*
X0044980Y0201126D03*
X0044945Y0201161D03*
X0044910Y0201161D03*
X0044840Y0201196D03*
X0044140Y0198151D03*
X0044105Y0198151D03*
X0044070Y0198151D03*
X0044000Y0198186D03*
X0043965Y0198186D03*
X0043930Y0198186D03*
X0043825Y0198221D03*
X0043790Y0198221D03*
X0043650Y0198256D03*
X0043615Y0198256D03*
X0043475Y0198291D03*
X0043300Y0198326D03*
X0044175Y0198116D03*
X0044210Y0198116D03*
X0044245Y0198116D03*
X0044280Y0198116D03*
X0044350Y0198081D03*
X0044385Y0198081D03*
X0044420Y0198081D03*
X0044490Y0198046D03*
X0044525Y0198046D03*
X0044630Y0198011D03*
X0046765Y0195526D03*
X0045995Y0192446D03*
X0044945Y0192271D03*
X0044910Y0192271D03*
X0044840Y0192236D03*
X0041725Y0195351D03*
X0041690Y0195351D03*
X0041655Y0195351D03*
X0041620Y0195351D03*
X0051210Y0196926D03*
X0052750Y0192621D03*
X0052715Y0192551D03*
X0051455Y0190976D03*
D70*
X0051175Y0193863D03*
X0051035Y0197223D03*
X0052715Y0197923D03*
X0048655Y0200058D03*
X0048620Y0200058D03*
X0043860Y0201528D03*
X0040815Y0198763D03*
X0040780Y0198763D03*
X0041900Y0191588D03*
X0041935Y0191588D03*
X0041970Y0191588D03*
D71*
X0041865Y0191571D03*
X0041830Y0191571D03*
X0041795Y0191571D03*
X0040290Y0195491D03*
X0040255Y0195491D03*
X0040220Y0195491D03*
X0040745Y0198781D03*
X0043790Y0201546D03*
X0043825Y0201546D03*
X0048690Y0200041D03*
X0048725Y0200041D03*
X0048760Y0200041D03*
X0052680Y0197976D03*
X0047185Y0196681D03*
X0046345Y0192166D03*
X0047710Y0188211D03*
D72*
X0047675Y0188193D03*
X0046380Y0192148D03*
X0047220Y0194143D03*
X0051000Y0197258D03*
X0052645Y0198028D03*
X0041760Y0191553D03*
X0041725Y0191553D03*
X0041690Y0191553D03*
D73*
X0044350Y0192078D03*
X0044455Y0192113D03*
X0044490Y0192113D03*
X0044525Y0192148D03*
X0044560Y0192148D03*
X0044595Y0192148D03*
X0041305Y0195403D03*
X0041270Y0195403D03*
X0041235Y0195403D03*
X0042075Y0198553D03*
X0042215Y0198518D03*
X0042250Y0198518D03*
X0042285Y0198518D03*
X0042320Y0198518D03*
X0042495Y0198483D03*
X0044595Y0201283D03*
X0044630Y0201283D03*
X0044700Y0201248D03*
X0047920Y0200093D03*
X0052610Y0192358D03*
X0051840Y0191343D03*
X0051805Y0191308D03*
X0051770Y0191273D03*
X0051735Y0191238D03*
X0051700Y0191203D03*
X0051665Y0191168D03*
D74*
X0051105Y0193688D03*
X0047255Y0194038D03*
X0047220Y0196803D03*
X0048865Y0200023D03*
X0048900Y0200023D03*
X0048935Y0200023D03*
X0052575Y0198098D03*
X0052610Y0198063D03*
X0043720Y0201563D03*
X0040605Y0198798D03*
D75*
X0041970Y0198571D03*
X0042005Y0198571D03*
X0042040Y0198571D03*
X0042110Y0198536D03*
X0042145Y0198536D03*
X0042180Y0198536D03*
X0044455Y0201336D03*
X0045890Y0197941D03*
X0041200Y0195421D03*
X0044280Y0192061D03*
X0044315Y0192061D03*
X0044385Y0192096D03*
X0044420Y0192096D03*
X0051875Y0191396D03*
X0051910Y0191431D03*
X0051945Y0191466D03*
X0052470Y0192131D03*
X0052540Y0192236D03*
X0052575Y0192306D03*
X0051665Y0195141D03*
D76*
X0050930Y0197311D03*
X0052540Y0198151D03*
X0049005Y0200006D03*
X0048970Y0200006D03*
X0043685Y0201581D03*
X0040570Y0198781D03*
X0040115Y0195491D03*
X0040080Y0195491D03*
X0041480Y0191501D03*
X0041515Y0191501D03*
X0046450Y0192096D03*
X0047290Y0193986D03*
D77*
X0046065Y0192376D03*
X0044175Y0192026D03*
X0048025Y0188351D03*
X0051980Y0191501D03*
X0052505Y0192201D03*
X0047990Y0200076D03*
X0047955Y0200076D03*
X0044560Y0201301D03*
X0044525Y0201301D03*
D78*
X0043650Y0201598D03*
X0040535Y0198798D03*
X0040500Y0198798D03*
X0040045Y0195508D03*
X0046485Y0192078D03*
X0047325Y0193898D03*
X0047255Y0196873D03*
X0050895Y0197328D03*
X0052505Y0198203D03*
X0049110Y0199988D03*
X0049075Y0199988D03*
X0049040Y0199988D03*
X0051070Y0193618D03*
D79*
X0051035Y0193566D03*
X0047360Y0193846D03*
X0046520Y0192061D03*
X0040010Y0195491D03*
X0040465Y0198816D03*
X0049145Y0199971D03*
X0049180Y0199971D03*
X0052470Y0198256D03*
D80*
X0051175Y0197013D03*
X0048025Y0200093D03*
X0044490Y0201318D03*
X0044420Y0201353D03*
X0041935Y0198588D03*
X0041900Y0198588D03*
X0041865Y0198588D03*
X0041830Y0198588D03*
X0041165Y0195403D03*
X0041130Y0195403D03*
X0043825Y0191938D03*
X0043930Y0191973D03*
X0043965Y0191973D03*
X0044000Y0191973D03*
X0044070Y0192008D03*
X0044105Y0192008D03*
X0044140Y0192008D03*
X0044210Y0192043D03*
X0044245Y0192043D03*
X0047990Y0188333D03*
X0052015Y0191553D03*
X0052050Y0191588D03*
X0052085Y0191623D03*
X0052120Y0191658D03*
X0052190Y0191763D03*
X0052225Y0191798D03*
X0052260Y0191833D03*
X0052295Y0191903D03*
X0052330Y0191938D03*
X0052365Y0191973D03*
X0052400Y0192043D03*
X0052435Y0192078D03*
D81*
X0051000Y0193513D03*
X0050965Y0193478D03*
X0047465Y0193688D03*
X0047430Y0193758D03*
X0047395Y0193793D03*
X0046555Y0192043D03*
X0047290Y0196943D03*
X0050860Y0197363D03*
X0052435Y0198273D03*
X0043615Y0201598D03*
X0040430Y0198798D03*
X0039975Y0195508D03*
X0041305Y0191483D03*
X0041340Y0191483D03*
X0041375Y0191483D03*
D82*
X0041270Y0191466D03*
X0039940Y0195491D03*
X0040395Y0198816D03*
X0047500Y0193636D03*
X0047535Y0193601D03*
X0047570Y0193566D03*
X0052365Y0198361D03*
X0052400Y0198326D03*
X0047570Y0188176D03*
D83*
X0046590Y0192008D03*
X0047815Y0193338D03*
X0047780Y0193373D03*
X0047675Y0193478D03*
X0050790Y0193303D03*
X0050825Y0193338D03*
X0050860Y0193373D03*
X0050895Y0193408D03*
X0050930Y0193443D03*
X0050790Y0197398D03*
X0052330Y0198413D03*
X0049355Y0199953D03*
X0049320Y0199953D03*
X0047325Y0197013D03*
X0043580Y0201633D03*
X0040360Y0198833D03*
X0039905Y0195508D03*
X0041235Y0191448D03*
D84*
X0041165Y0191448D03*
X0041130Y0191448D03*
X0046660Y0191973D03*
X0047920Y0193268D03*
X0048025Y0193198D03*
X0048130Y0193128D03*
X0048165Y0193128D03*
X0048200Y0193093D03*
X0048235Y0193093D03*
X0048270Y0193058D03*
X0048305Y0193058D03*
X0048340Y0193023D03*
X0048375Y0193023D03*
X0048410Y0193023D03*
X0048585Y0192953D03*
X0048725Y0192918D03*
X0050475Y0193093D03*
X0050545Y0193128D03*
X0050650Y0193198D03*
X0050685Y0193233D03*
X0050685Y0197433D03*
X0050720Y0197433D03*
X0052190Y0198553D03*
X0049600Y0199883D03*
X0049565Y0199883D03*
X0047395Y0197083D03*
X0043545Y0201633D03*
X0040290Y0198833D03*
D85*
X0039835Y0195491D03*
X0041060Y0191431D03*
X0041095Y0191431D03*
X0046695Y0191956D03*
X0048515Y0192971D03*
X0048550Y0192971D03*
X0048620Y0192936D03*
X0048655Y0192936D03*
X0048690Y0192936D03*
X0048760Y0192901D03*
X0048795Y0192901D03*
X0048830Y0192901D03*
X0048865Y0192901D03*
X0048935Y0192866D03*
X0048970Y0192866D03*
X0049005Y0192866D03*
X0049040Y0192866D03*
X0049075Y0192866D03*
X0049110Y0192866D03*
X0049145Y0192866D03*
X0049180Y0192866D03*
X0049600Y0192866D03*
X0049635Y0192866D03*
X0049670Y0192866D03*
X0049880Y0192901D03*
X0049915Y0192901D03*
X0050055Y0192936D03*
X0050090Y0192936D03*
X0050160Y0192971D03*
X0050195Y0192971D03*
X0050265Y0193006D03*
X0050300Y0193006D03*
X0050335Y0193041D03*
X0050370Y0193041D03*
X0050405Y0193076D03*
X0050440Y0193076D03*
X0050510Y0193111D03*
X0050650Y0197451D03*
X0052085Y0198641D03*
X0052120Y0198606D03*
X0052155Y0198571D03*
X0049670Y0199866D03*
X0049635Y0199866D03*
X0047500Y0197206D03*
X0047465Y0197171D03*
X0047430Y0197136D03*
X0043510Y0201651D03*
X0047500Y0188176D03*
D86*
X0048900Y0192883D03*
X0049705Y0192883D03*
X0049740Y0192883D03*
X0049775Y0192883D03*
X0049810Y0192883D03*
X0049845Y0192883D03*
X0049950Y0192918D03*
X0049985Y0192918D03*
X0050020Y0192918D03*
X0050580Y0197468D03*
X0050615Y0197468D03*
X0052015Y0198693D03*
X0052050Y0198658D03*
X0047570Y0197258D03*
X0040255Y0198833D03*
X0040220Y0198833D03*
X0039800Y0195508D03*
D87*
X0046730Y0191938D03*
X0046765Y0191903D03*
X0049215Y0192848D03*
X0049250Y0192848D03*
X0049285Y0192848D03*
X0049320Y0192848D03*
X0049355Y0192848D03*
X0049390Y0192848D03*
X0049425Y0192848D03*
X0049460Y0192848D03*
X0049495Y0192848D03*
X0049530Y0192848D03*
X0049565Y0192848D03*
X0050125Y0192953D03*
X0050230Y0192988D03*
X0047535Y0197223D03*
X0049705Y0199848D03*
X0049740Y0199848D03*
X0049775Y0199848D03*
X0051980Y0198728D03*
D88*
X0051945Y0198746D03*
X0051910Y0198781D03*
X0050545Y0197486D03*
X0050510Y0197486D03*
X0049915Y0199796D03*
X0049880Y0199796D03*
X0049845Y0199831D03*
X0049810Y0199831D03*
X0047640Y0197311D03*
X0047605Y0197276D03*
X0046800Y0191886D03*
X0041025Y0191431D03*
X0039765Y0195491D03*
X0040185Y0198851D03*
X0043475Y0201651D03*
D89*
X0047850Y0197416D03*
X0048060Y0197486D03*
X0048095Y0197486D03*
X0048130Y0197486D03*
X0048165Y0197486D03*
X0048200Y0197486D03*
X0048235Y0197486D03*
X0050160Y0197521D03*
X0050195Y0197521D03*
X0050230Y0197521D03*
X0050265Y0197521D03*
X0050300Y0197521D03*
X0050335Y0197521D03*
X0050370Y0197521D03*
X0051735Y0198921D03*
X0051700Y0198956D03*
X0051770Y0198886D03*
X0051875Y0198816D03*
X0050230Y0199691D03*
X0050055Y0199761D03*
X0050020Y0199761D03*
X0039730Y0195491D03*
D90*
X0040955Y0191413D03*
X0040990Y0191413D03*
X0046835Y0191868D03*
X0047465Y0188158D03*
X0047675Y0197328D03*
X0047710Y0197363D03*
X0047745Y0197363D03*
X0047780Y0197398D03*
X0047815Y0197398D03*
X0047885Y0197433D03*
X0048025Y0197468D03*
X0048270Y0197503D03*
X0050405Y0197503D03*
X0050440Y0197503D03*
X0050475Y0197503D03*
X0051805Y0198868D03*
X0051840Y0198833D03*
X0050090Y0199743D03*
X0049985Y0199778D03*
X0049950Y0199778D03*
D91*
X0051805Y0195158D03*
X0040465Y0191343D03*
X0039695Y0198903D03*
D92*
X0040745Y0191396D03*
X0047115Y0191746D03*
X0047150Y0191711D03*
X0048270Y0191116D03*
X0051770Y0197626D03*
X0051805Y0197626D03*
D93*
X0051385Y0197538D03*
X0050125Y0197538D03*
X0050090Y0197538D03*
X0050055Y0197538D03*
X0050020Y0197538D03*
X0049985Y0197538D03*
X0049950Y0197538D03*
X0049915Y0197538D03*
X0049880Y0197538D03*
X0049845Y0197538D03*
X0049810Y0197538D03*
X0049775Y0197538D03*
X0049740Y0197538D03*
X0049705Y0197538D03*
X0049670Y0197538D03*
X0049635Y0197538D03*
X0049600Y0197538D03*
X0049565Y0197538D03*
X0049530Y0197538D03*
X0050265Y0199673D03*
X0050300Y0199673D03*
X0050335Y0199673D03*
X0050370Y0199638D03*
X0050405Y0199638D03*
X0050475Y0199603D03*
X0050195Y0199708D03*
X0051560Y0199043D03*
X0051595Y0199008D03*
X0051630Y0199008D03*
X0051665Y0198973D03*
X0051770Y0195158D03*
X0046905Y0191833D03*
X0040920Y0191413D03*
X0039695Y0195508D03*
X0043440Y0201668D03*
D94*
X0046695Y0195543D03*
X0051735Y0195158D03*
X0047640Y0188193D03*
X0041585Y0191518D03*
X0041550Y0191518D03*
D95*
X0040780Y0191378D03*
X0039590Y0195508D03*
X0039975Y0198868D03*
X0040010Y0198868D03*
X0051735Y0197608D03*
X0047395Y0188158D03*
D96*
X0047045Y0191781D03*
X0040815Y0191396D03*
X0039625Y0195491D03*
X0043405Y0201686D03*
X0051630Y0197591D03*
X0051665Y0197591D03*
X0051700Y0197591D03*
D97*
X0045855Y0197888D03*
X0043895Y0198203D03*
X0043860Y0198203D03*
X0043755Y0198238D03*
X0043720Y0198238D03*
X0043685Y0198238D03*
X0043580Y0198273D03*
X0043545Y0198273D03*
X0043510Y0198273D03*
X0043125Y0198378D03*
X0043090Y0198378D03*
X0043055Y0198378D03*
X0043020Y0198378D03*
X0042985Y0198378D03*
X0042950Y0198413D03*
X0042915Y0198413D03*
X0042880Y0198413D03*
X0042845Y0198413D03*
X0042705Y0198448D03*
X0042670Y0198448D03*
X0044770Y0201213D03*
X0044805Y0201213D03*
X0044875Y0201178D03*
X0044875Y0192253D03*
X0051525Y0191028D03*
X0051560Y0191063D03*
X0051595Y0191098D03*
D98*
X0047010Y0191798D03*
X0046975Y0191798D03*
X0051525Y0197573D03*
X0051560Y0197573D03*
X0051595Y0197573D03*
X0051385Y0199148D03*
X0051280Y0199218D03*
X0051210Y0199253D03*
X0051140Y0199288D03*
X0051105Y0199323D03*
X0051070Y0199323D03*
X0051035Y0199358D03*
X0051000Y0199358D03*
X0050965Y0199393D03*
X0050930Y0199393D03*
X0050895Y0199428D03*
X0050860Y0199428D03*
X0050825Y0199463D03*
X0050790Y0199463D03*
X0050720Y0199498D03*
X0050650Y0199533D03*
X0040045Y0198868D03*
D99*
X0044210Y0195123D03*
X0049040Y0196663D03*
X0049075Y0196663D03*
X0049110Y0196663D03*
X0049145Y0196663D03*
X0049180Y0196663D03*
X0049215Y0196663D03*
X0049250Y0196663D03*
X0049285Y0196663D03*
X0049320Y0196663D03*
X0049355Y0196663D03*
X0049390Y0196663D03*
X0049425Y0196663D03*
X0049460Y0196663D03*
X0049495Y0196663D03*
X0051560Y0195123D03*
X0050545Y0190223D03*
X0050510Y0190188D03*
X0047290Y0200023D03*
X0047255Y0200023D03*
D100*
X0047150Y0199988D03*
X0044665Y0195123D03*
X0044630Y0195123D03*
X0044595Y0195123D03*
X0044560Y0195123D03*
X0051525Y0195123D03*
D101*
X0051525Y0199061D03*
X0051350Y0199166D03*
X0051315Y0199201D03*
X0051245Y0199236D03*
X0050685Y0199516D03*
X0050615Y0199551D03*
X0050580Y0199551D03*
X0050545Y0199586D03*
X0050510Y0199586D03*
X0046660Y0195561D03*
X0046940Y0191816D03*
X0047430Y0188141D03*
X0039660Y0195491D03*
X0040080Y0198851D03*
D102*
X0043160Y0198343D03*
X0043195Y0198343D03*
X0043230Y0198343D03*
X0043265Y0198343D03*
X0043335Y0198308D03*
X0043370Y0198308D03*
X0043405Y0198308D03*
X0043440Y0198308D03*
X0044035Y0198168D03*
X0047850Y0200093D03*
X0041585Y0195368D03*
X0041550Y0195368D03*
X0041515Y0195368D03*
X0041480Y0195368D03*
X0044770Y0192218D03*
X0044805Y0192218D03*
X0048095Y0188368D03*
X0051490Y0190993D03*
D103*
X0050125Y0189943D03*
X0050090Y0189908D03*
X0051490Y0195123D03*
X0046975Y0199953D03*
D104*
X0050440Y0199621D03*
X0050755Y0199481D03*
X0051175Y0199271D03*
X0051420Y0199131D03*
X0051455Y0199096D03*
X0051490Y0199096D03*
X0051490Y0197556D03*
X0051455Y0197556D03*
X0051420Y0197556D03*
X0048305Y0191046D03*
X0040885Y0191396D03*
X0040850Y0191396D03*
D105*
X0049810Y0189751D03*
X0051420Y0195106D03*
X0046800Y0199901D03*
D106*
X0044455Y0198063D03*
X0044980Y0192288D03*
X0051385Y0190888D03*
D107*
X0049670Y0189681D03*
X0049635Y0189681D03*
X0049600Y0189646D03*
X0051385Y0195106D03*
X0046695Y0199866D03*
D108*
X0051350Y0195666D03*
D109*
X0051315Y0195648D03*
X0045995Y0199498D03*
D110*
X0045960Y0199463D03*
X0051280Y0195613D03*
D111*
X0050965Y0197276D03*
X0051140Y0193776D03*
X0046415Y0192131D03*
X0041655Y0191536D03*
X0041620Y0191536D03*
X0040185Y0195491D03*
X0040150Y0195491D03*
X0040640Y0198781D03*
X0040675Y0198781D03*
X0048795Y0200041D03*
X0048830Y0200041D03*
D112*
X0048200Y0200093D03*
X0044210Y0201423D03*
X0044175Y0201423D03*
X0041445Y0198658D03*
X0041410Y0198658D03*
X0041375Y0198658D03*
X0051140Y0197083D03*
D113*
X0047605Y0200058D03*
X0045610Y0200828D03*
X0045575Y0200863D03*
X0045540Y0200863D03*
X0042635Y0195263D03*
X0042600Y0195263D03*
X0042565Y0195263D03*
X0042530Y0195263D03*
X0042495Y0195263D03*
X0042460Y0195263D03*
X0045925Y0192533D03*
X0051105Y0190643D03*
D114*
X0051070Y0190626D03*
X0045680Y0200776D03*
D115*
X0045715Y0200758D03*
X0047535Y0200058D03*
X0047570Y0200058D03*
X0046800Y0195508D03*
X0042985Y0195228D03*
X0042950Y0195228D03*
X0042915Y0195228D03*
X0042880Y0195228D03*
X0042845Y0195228D03*
X0045890Y0192568D03*
X0050930Y0190503D03*
X0050965Y0190538D03*
D116*
X0050825Y0190433D03*
X0043405Y0195193D03*
X0043370Y0195193D03*
X0043335Y0195193D03*
X0043300Y0195193D03*
X0043265Y0195193D03*
X0043230Y0195193D03*
X0047465Y0200058D03*
D117*
X0049215Y0199971D03*
X0049250Y0199971D03*
X0049285Y0199971D03*
X0050825Y0197381D03*
X0047605Y0193531D03*
X0047640Y0193496D03*
D118*
X0050755Y0190363D03*
D119*
X0050720Y0190346D03*
X0050685Y0190311D03*
X0043825Y0195141D03*
X0045925Y0200601D03*
X0047360Y0200041D03*
D120*
X0047325Y0200023D03*
X0045715Y0197608D03*
X0046835Y0195508D03*
X0044000Y0195158D03*
X0043965Y0195158D03*
X0043930Y0195158D03*
X0043895Y0195158D03*
X0043860Y0195158D03*
X0045820Y0192673D03*
X0050650Y0190293D03*
D121*
X0050615Y0193163D03*
X0050580Y0193163D03*
X0048480Y0192988D03*
X0048445Y0192988D03*
X0048095Y0193163D03*
D122*
X0050475Y0190171D03*
X0044350Y0195141D03*
X0044315Y0195141D03*
X0044280Y0195141D03*
X0044245Y0195141D03*
X0047220Y0200006D03*
D123*
X0047185Y0200006D03*
X0045680Y0197521D03*
X0044525Y0195141D03*
X0050440Y0190136D03*
D124*
X0050405Y0190118D03*
X0050370Y0190083D03*
X0046870Y0195508D03*
D125*
X0044805Y0195123D03*
X0044770Y0195123D03*
X0044735Y0195123D03*
X0045750Y0192778D03*
X0050300Y0190048D03*
D126*
X0050265Y0190031D03*
X0050230Y0189996D03*
X0047045Y0199971D03*
D127*
X0050195Y0189978D03*
D128*
X0050160Y0189961D03*
X0046905Y0195491D03*
D129*
X0047920Y0197451D03*
X0047955Y0197451D03*
X0047990Y0197451D03*
X0050125Y0199726D03*
X0050160Y0199726D03*
X0046870Y0191851D03*
X0040150Y0198851D03*
X0040115Y0198851D03*
D130*
X0046940Y0199936D03*
X0045715Y0192866D03*
X0050055Y0189891D03*
D131*
X0050020Y0189873D03*
D132*
X0049985Y0189856D03*
X0046940Y0195491D03*
X0045645Y0197346D03*
X0046905Y0199936D03*
D133*
X0049915Y0189821D03*
X0049880Y0189786D03*
D134*
X0049845Y0189768D03*
X0045680Y0192953D03*
X0046835Y0199918D03*
D135*
X0046765Y0199883D03*
X0046975Y0195473D03*
X0049775Y0189733D03*
D136*
X0049740Y0189716D03*
D137*
X0049565Y0189628D03*
X0047010Y0195473D03*
D138*
X0046660Y0199866D03*
X0049530Y0189611D03*
D139*
X0049495Y0189593D03*
X0049460Y0189593D03*
X0045645Y0193093D03*
D140*
X0049355Y0189558D03*
X0049390Y0189558D03*
X0047045Y0195473D03*
D141*
X0046555Y0199831D03*
X0049320Y0189541D03*
D142*
X0049285Y0189523D03*
X0046520Y0199813D03*
D143*
X0047080Y0195456D03*
X0049215Y0189506D03*
X0049250Y0189506D03*
D144*
X0049110Y0189471D03*
X0049075Y0189471D03*
D145*
X0049040Y0189453D03*
X0049005Y0189453D03*
X0046450Y0199778D03*
D146*
X0049005Y0196681D03*
D147*
X0048970Y0189453D03*
D148*
X0048830Y0189418D03*
X0048795Y0189418D03*
X0046380Y0199743D03*
D149*
X0046345Y0199726D03*
X0048725Y0189401D03*
X0048760Y0189401D03*
D150*
X0048690Y0189418D03*
X0046310Y0199708D03*
D151*
X0048585Y0189401D03*
X0048620Y0189401D03*
X0048655Y0189401D03*
D152*
X0047745Y0188211D03*
X0046310Y0192201D03*
X0040360Y0195491D03*
X0040325Y0195491D03*
X0043895Y0201511D03*
X0048585Y0200041D03*
D153*
X0048550Y0189383D03*
D154*
X0048515Y0189401D03*
X0048480Y0189401D03*
X0048445Y0189401D03*
D155*
X0046240Y0192253D03*
X0042390Y0191658D03*
X0042355Y0191658D03*
X0042320Y0191658D03*
X0040570Y0195473D03*
X0040535Y0195473D03*
X0040500Y0195473D03*
X0040990Y0198728D03*
X0041025Y0198728D03*
X0043965Y0201493D03*
X0044000Y0201493D03*
X0048410Y0200058D03*
D156*
X0048375Y0189401D03*
X0048340Y0189401D03*
D157*
X0048235Y0191168D03*
X0047220Y0191693D03*
X0047185Y0191693D03*
X0039555Y0195508D03*
X0039940Y0198868D03*
D158*
X0039905Y0198868D03*
X0039520Y0195508D03*
X0040675Y0191378D03*
X0047290Y0191658D03*
X0047325Y0191658D03*
X0047360Y0191623D03*
X0048200Y0191203D03*
D159*
X0048165Y0191221D03*
X0048130Y0191256D03*
X0047395Y0191606D03*
X0047360Y0188141D03*
X0040640Y0191361D03*
D160*
X0043335Y0191833D03*
X0043370Y0191833D03*
X0043405Y0191833D03*
X0043440Y0191868D03*
X0043475Y0191868D03*
X0043510Y0191868D03*
X0043545Y0191868D03*
X0043650Y0191903D03*
X0043685Y0191903D03*
X0046135Y0192323D03*
X0047955Y0188298D03*
X0040955Y0195438D03*
X0040920Y0195438D03*
X0040885Y0195438D03*
X0041585Y0198623D03*
X0041620Y0198623D03*
X0041655Y0198623D03*
X0044280Y0201388D03*
X0044315Y0201388D03*
X0048095Y0200093D03*
X0048130Y0200093D03*
D161*
X0039870Y0198868D03*
X0039485Y0195508D03*
X0047430Y0191588D03*
X0047465Y0191588D03*
X0047535Y0191553D03*
X0048095Y0191273D03*
D162*
X0047920Y0191378D03*
X0047885Y0191378D03*
X0047850Y0191413D03*
X0047815Y0191413D03*
X0047780Y0191448D03*
X0047745Y0191448D03*
X0047710Y0191483D03*
X0047675Y0191483D03*
X0047605Y0191518D03*
X0039450Y0195508D03*
D163*
X0040640Y0195473D03*
X0042775Y0191728D03*
X0047850Y0188263D03*
D164*
X0045785Y0197766D03*
X0047640Y0200076D03*
X0045470Y0200916D03*
X0045435Y0200916D03*
X0045400Y0200951D03*
D165*
X0041445Y0191501D03*
X0041410Y0191501D03*
X0047605Y0188176D03*
D166*
X0047500Y0191571D03*
X0043335Y0201721D03*
D167*
X0039800Y0198903D03*
X0039415Y0195508D03*
X0047325Y0188158D03*
D168*
X0047290Y0188141D03*
D169*
X0047255Y0191676D03*
D170*
X0047115Y0195456D03*
X0046415Y0199761D03*
D171*
X0047080Y0191763D03*
D172*
X0047080Y0199988D03*
D173*
X0046870Y0199918D03*
D174*
X0046625Y0199848D03*
D175*
X0046275Y0199691D03*
D176*
X0046205Y0199656D03*
D177*
X0040815Y0195438D03*
X0040780Y0195438D03*
X0042915Y0191763D03*
X0042950Y0191763D03*
X0042985Y0191763D03*
X0043020Y0191763D03*
X0046170Y0192288D03*
D178*
X0046170Y0199638D03*
D179*
X0046135Y0199603D03*
D180*
X0046065Y0199551D03*
D181*
X0046030Y0199516D03*
D182*
X0045610Y0195123D03*
X0045575Y0195123D03*
D183*
X0045540Y0195106D03*
X0045505Y0195106D03*
X0045470Y0195106D03*
X0045435Y0195106D03*
D184*
X0045400Y0195123D03*
D185*
X0045365Y0195106D03*
X0045330Y0195106D03*
X0045295Y0195106D03*
X0045260Y0195106D03*
D186*
X0045225Y0195123D03*
D187*
X0045190Y0195106D03*
X0045155Y0195106D03*
X0045120Y0195106D03*
X0045085Y0195106D03*
D188*
X0045050Y0195123D03*
D189*
X0045015Y0195106D03*
D190*
X0044910Y0196348D03*
X0044875Y0196348D03*
D191*
X0041235Y0198693D03*
X0041200Y0198693D03*
X0041165Y0198693D03*
X0044070Y0201458D03*
X0044105Y0201458D03*
X0042635Y0191693D03*
X0042600Y0191693D03*
X0042565Y0191693D03*
D192*
X0042285Y0191641D03*
X0042250Y0191641D03*
X0042215Y0191641D03*
X0042180Y0191641D03*
X0040465Y0195491D03*
X0043930Y0201511D03*
D193*
X0043755Y0201563D03*
X0040710Y0198763D03*
D194*
X0043370Y0201703D03*
X0040710Y0191378D03*
D195*
X0039380Y0195526D03*
X0043300Y0201756D03*
D196*
X0040885Y0198746D03*
X0040850Y0198746D03*
X0042005Y0191606D03*
X0042040Y0191606D03*
D197*
X0040570Y0191361D03*
D198*
X0040535Y0191361D03*
D199*
X0040500Y0191343D03*
D200*
X0040430Y0191343D03*
X0039275Y0195543D03*
D201*
X0039765Y0198903D03*
D202*
X0039730Y0198886D03*
D203*
X0039660Y0198921D03*
D204*
X0039345Y0195526D03*
D205*
X0039310Y0195543D03*
D206*
X0074270Y0193973D03*
X0075270Y0193973D03*
X0076070Y0193773D03*
X0076270Y0193773D03*
X0076470Y0193773D03*
X0076670Y0193773D03*
X0076870Y0193773D03*
X0076870Y0194413D03*
X0077070Y0194453D03*
X0077470Y0194573D03*
X0077670Y0193773D03*
X0077870Y0193773D03*
X0078070Y0193773D03*
X0078870Y0193773D03*
X0078070Y0192613D03*
X0077870Y0192613D03*
X0077670Y0192613D03*
X0077670Y0191253D03*
X0077870Y0191253D03*
X0078070Y0191253D03*
X0078270Y0191253D03*
X0078470Y0191253D03*
X0078670Y0191253D03*
X0078870Y0191253D03*
X0078870Y0190413D03*
X0078270Y0190413D03*
X0077470Y0190413D03*
X0076870Y0191253D03*
X0075670Y0192373D03*
X0075470Y0192373D03*
X0075270Y0192373D03*
X0075070Y0192373D03*
X0074870Y0192373D03*
X0074670Y0192373D03*
X0074470Y0192373D03*
X0074470Y0191213D03*
X0074470Y0190453D03*
X0075070Y0189253D03*
X0074870Y0187373D03*
X0074670Y0187373D03*
X0074470Y0187373D03*
X0074470Y0186613D03*
X0074670Y0186613D03*
X0074870Y0186613D03*
X0075070Y0186613D03*
X0075870Y0187373D03*
X0076070Y0187373D03*
X0076270Y0187373D03*
X0076470Y0187373D03*
X0076670Y0187373D03*
X0076870Y0187373D03*
X0077670Y0187373D03*
X0077870Y0187373D03*
X0078070Y0187373D03*
X0078270Y0187373D03*
X0078470Y0187373D03*
X0078670Y0187373D03*
X0078870Y0187373D03*
X0077070Y0195613D03*
X0077470Y0196613D03*
X0077470Y0198413D03*
X0078270Y0198413D03*
X0078270Y0199253D03*
X0078070Y0199253D03*
X0077870Y0199253D03*
X0077670Y0199253D03*
X0076870Y0199253D03*
X0075670Y0199773D03*
X0075470Y0199773D03*
X0075270Y0199773D03*
X0075070Y0199773D03*
X0074870Y0199773D03*
X0074670Y0199773D03*
X0074470Y0199773D03*
X0074670Y0201053D03*
X0074870Y0201053D03*
X0074470Y0202773D03*
X0074270Y0202853D03*
X0077470Y0200653D03*
X0078270Y0200653D03*
X0078470Y0199253D03*
X0078670Y0199253D03*
X0078870Y0199253D03*
X0075070Y0196973D03*
X0074670Y0197013D03*
X0074470Y0196973D03*
X0074470Y0195773D03*
X0074670Y0195773D03*
X0074870Y0195773D03*
X0075070Y0195773D03*
D207*
X0075070Y0195133D03*
X0077270Y0194533D03*
X0077270Y0196693D03*
X0077070Y0196733D03*
X0074870Y0197733D03*
X0074670Y0197733D03*
X0074470Y0197733D03*
X0074270Y0197733D03*
X0074070Y0197733D03*
X0073870Y0197733D03*
X0073870Y0198933D03*
X0074070Y0198933D03*
X0074270Y0198933D03*
X0074470Y0198933D03*
X0074670Y0198933D03*
X0074870Y0198933D03*
X0075070Y0201093D03*
X0074470Y0201093D03*
X0074470Y0188533D03*
X0074670Y0188533D03*
X0074870Y0188533D03*
X0075070Y0188533D03*
X0077670Y0188533D03*
X0077870Y0188533D03*
X0078070Y0188533D03*
X0078270Y0188533D03*
X0078470Y0188533D03*
X0078670Y0188533D03*
X0078870Y0188533D03*
D208*
X0078870Y0189733D03*
X0078870Y0197733D03*
X0078870Y0201293D03*
D209*
X0076870Y0201233D03*
X0075270Y0196873D03*
X0077270Y0195593D03*
X0074470Y0194073D03*
X0078870Y0193073D03*
X0075270Y0189353D03*
X0075270Y0188433D03*
X0072070Y0190233D03*
X0072070Y0199153D03*
D210*
X0071470Y0192413D03*
X0074670Y0185413D03*
X0078870Y0195013D03*
D211*
X0077870Y0194713D03*
X0077670Y0194633D03*
X0077870Y0195313D03*
X0077870Y0196513D03*
X0077670Y0196553D03*
X0078270Y0197233D03*
X0078870Y0196193D03*
X0078870Y0198433D03*
X0074870Y0196993D03*
X0074870Y0191193D03*
X0074670Y0191193D03*
X0075070Y0191193D03*
X0075270Y0191193D03*
X0075470Y0191193D03*
X0075670Y0191193D03*
X0074470Y0189233D03*
X0074470Y0185433D03*
X0074870Y0185433D03*
X0075070Y0185433D03*
X0078270Y0189233D03*
X0075270Y0202153D03*
X0075070Y0202793D03*
X0074470Y0203953D03*
D212*
X0075310Y0203813D03*
X0075150Y0202813D03*
X0075110Y0202813D03*
X0075030Y0202773D03*
X0074990Y0202773D03*
X0074510Y0202773D03*
X0074350Y0202813D03*
X0074510Y0201053D03*
X0074550Y0201053D03*
X0074590Y0201053D03*
X0074630Y0201053D03*
X0074710Y0201053D03*
X0074750Y0201053D03*
X0074790Y0201053D03*
X0074830Y0201053D03*
X0074910Y0201053D03*
X0074950Y0201053D03*
X0074990Y0201053D03*
X0074990Y0199773D03*
X0074950Y0199773D03*
X0074910Y0199773D03*
X0074830Y0199773D03*
X0074790Y0199773D03*
X0074750Y0199773D03*
X0074710Y0199773D03*
X0074630Y0199773D03*
X0074590Y0199773D03*
X0074550Y0199773D03*
X0074510Y0199773D03*
X0074430Y0199773D03*
X0074390Y0199773D03*
X0073790Y0199773D03*
X0073750Y0199773D03*
X0075030Y0199773D03*
X0075110Y0199773D03*
X0075150Y0199773D03*
X0075190Y0199773D03*
X0075230Y0199773D03*
X0075310Y0199773D03*
X0075350Y0199773D03*
X0075390Y0199773D03*
X0075430Y0199773D03*
X0075510Y0199773D03*
X0075550Y0199773D03*
X0075590Y0199773D03*
X0075630Y0199773D03*
X0075710Y0199773D03*
X0075750Y0199773D03*
X0076910Y0199253D03*
X0076950Y0199253D03*
X0077630Y0199253D03*
X0077710Y0199253D03*
X0077750Y0199253D03*
X0077790Y0199253D03*
X0077830Y0199253D03*
X0077910Y0199253D03*
X0077950Y0199253D03*
X0077990Y0199253D03*
X0078030Y0199253D03*
X0078110Y0199253D03*
X0078150Y0199253D03*
X0078190Y0199253D03*
X0078230Y0199253D03*
X0078310Y0199253D03*
X0078350Y0199253D03*
X0078390Y0199253D03*
X0078430Y0199253D03*
X0078510Y0199253D03*
X0078550Y0199253D03*
X0078590Y0199253D03*
X0078630Y0199253D03*
X0078710Y0199253D03*
X0078750Y0199253D03*
X0078790Y0199253D03*
X0078830Y0199253D03*
X0078350Y0198413D03*
X0078310Y0198413D03*
X0078230Y0198413D03*
X0078190Y0198413D03*
X0077630Y0198413D03*
X0077430Y0198413D03*
X0077390Y0198413D03*
X0078150Y0197253D03*
X0078350Y0197253D03*
X0078390Y0197253D03*
X0077630Y0196573D03*
X0077510Y0196613D03*
X0077390Y0196653D03*
X0077350Y0196653D03*
X0077310Y0196653D03*
X0076990Y0196773D03*
X0076950Y0196773D03*
X0075110Y0196973D03*
X0075030Y0196973D03*
X0074990Y0196973D03*
X0074830Y0197013D03*
X0074790Y0197013D03*
X0074750Y0197013D03*
X0074710Y0197013D03*
X0074510Y0196973D03*
X0074430Y0196973D03*
X0074390Y0196973D03*
X0074390Y0195813D03*
X0074350Y0195813D03*
X0074430Y0195773D03*
X0074510Y0195773D03*
X0074550Y0195773D03*
X0074590Y0195773D03*
X0074630Y0195773D03*
X0074710Y0195773D03*
X0074750Y0195773D03*
X0074790Y0195773D03*
X0074830Y0195773D03*
X0074910Y0195773D03*
X0074950Y0195773D03*
X0074990Y0195773D03*
X0075030Y0195773D03*
X0075110Y0195813D03*
X0075150Y0195813D03*
X0074390Y0193973D03*
X0074350Y0193973D03*
X0074310Y0193973D03*
X0074230Y0194013D03*
X0074430Y0192373D03*
X0074510Y0192373D03*
X0074550Y0192373D03*
X0074590Y0192373D03*
X0074630Y0192373D03*
X0074710Y0192373D03*
X0074750Y0192373D03*
X0074790Y0192373D03*
X0074830Y0192373D03*
X0074910Y0192373D03*
X0074950Y0192373D03*
X0074990Y0192373D03*
X0075030Y0192373D03*
X0075110Y0192373D03*
X0075150Y0192373D03*
X0075190Y0192373D03*
X0075230Y0192373D03*
X0075310Y0192373D03*
X0075350Y0192373D03*
X0075390Y0192373D03*
X0075430Y0192373D03*
X0075510Y0192373D03*
X0075550Y0192373D03*
X0075590Y0192373D03*
X0075630Y0192373D03*
X0075710Y0192373D03*
X0075750Y0192373D03*
X0075790Y0192373D03*
X0076110Y0193773D03*
X0076150Y0193773D03*
X0076190Y0193773D03*
X0076230Y0193773D03*
X0076310Y0193773D03*
X0076350Y0193773D03*
X0076390Y0193773D03*
X0076430Y0193773D03*
X0076510Y0193773D03*
X0076550Y0193773D03*
X0076590Y0193773D03*
X0076630Y0193773D03*
X0076710Y0193773D03*
X0076750Y0193773D03*
X0076790Y0193773D03*
X0076830Y0193773D03*
X0076910Y0193773D03*
X0077550Y0193773D03*
X0077590Y0193773D03*
X0077630Y0193773D03*
X0077710Y0193773D03*
X0077750Y0193773D03*
X0077790Y0193773D03*
X0077830Y0193773D03*
X0077910Y0193773D03*
X0077950Y0193773D03*
X0077990Y0193773D03*
X0078030Y0193773D03*
X0078110Y0193773D03*
X0078150Y0193773D03*
X0078190Y0193773D03*
X0078830Y0193773D03*
X0078790Y0195013D03*
X0078750Y0195013D03*
X0077710Y0194653D03*
X0077590Y0194613D03*
X0077550Y0194613D03*
X0077430Y0194573D03*
X0077390Y0194573D03*
X0077030Y0194453D03*
X0076990Y0194453D03*
X0076910Y0194413D03*
X0077550Y0192613D03*
X0077590Y0192613D03*
X0077630Y0192613D03*
X0077710Y0192613D03*
X0077750Y0192613D03*
X0077790Y0192613D03*
X0077830Y0192613D03*
X0077910Y0192613D03*
X0077950Y0192613D03*
X0077990Y0192613D03*
X0078030Y0192613D03*
X0078110Y0192613D03*
X0078150Y0192613D03*
X0078190Y0192613D03*
X0078190Y0191253D03*
X0078150Y0191253D03*
X0078110Y0191253D03*
X0078030Y0191253D03*
X0077990Y0191253D03*
X0077950Y0191253D03*
X0077910Y0191253D03*
X0077830Y0191253D03*
X0077790Y0191253D03*
X0077750Y0191253D03*
X0077710Y0191253D03*
X0077630Y0191253D03*
X0077590Y0191253D03*
X0076950Y0191253D03*
X0076910Y0191253D03*
X0077390Y0190413D03*
X0077430Y0190413D03*
X0077510Y0190413D03*
X0077550Y0190413D03*
X0077590Y0190413D03*
X0077630Y0190413D03*
X0078110Y0190413D03*
X0078150Y0190413D03*
X0078190Y0190413D03*
X0078230Y0190413D03*
X0078310Y0190413D03*
X0078350Y0190413D03*
X0078350Y0191253D03*
X0078310Y0191253D03*
X0078230Y0191253D03*
X0078390Y0191253D03*
X0078430Y0191253D03*
X0078510Y0191253D03*
X0078550Y0191253D03*
X0078590Y0191253D03*
X0078630Y0191253D03*
X0078710Y0191253D03*
X0078750Y0191253D03*
X0078790Y0191253D03*
X0078830Y0191253D03*
X0078390Y0189253D03*
X0078150Y0189253D03*
X0078150Y0187373D03*
X0078110Y0187373D03*
X0078030Y0187373D03*
X0077990Y0187373D03*
X0077950Y0187373D03*
X0077910Y0187373D03*
X0077830Y0187373D03*
X0077790Y0187373D03*
X0077750Y0187373D03*
X0077710Y0187373D03*
X0077630Y0187373D03*
X0077590Y0187373D03*
X0077550Y0187373D03*
X0076910Y0187373D03*
X0076830Y0187373D03*
X0076790Y0187373D03*
X0076750Y0187373D03*
X0076710Y0187373D03*
X0076630Y0187373D03*
X0076590Y0187373D03*
X0076550Y0187373D03*
X0076510Y0187373D03*
X0076430Y0187373D03*
X0076390Y0187373D03*
X0076350Y0187373D03*
X0076310Y0187373D03*
X0076230Y0187373D03*
X0076190Y0187373D03*
X0076150Y0187373D03*
X0076110Y0187373D03*
X0076030Y0187373D03*
X0075990Y0187373D03*
X0075950Y0187373D03*
X0075910Y0187373D03*
X0075830Y0187373D03*
X0075790Y0187373D03*
X0075750Y0187373D03*
X0075710Y0187373D03*
X0075030Y0187373D03*
X0074990Y0187373D03*
X0074950Y0187373D03*
X0074910Y0187373D03*
X0074830Y0187373D03*
X0074790Y0187373D03*
X0074750Y0187373D03*
X0074710Y0187373D03*
X0074630Y0187373D03*
X0074590Y0187373D03*
X0074550Y0187373D03*
X0074510Y0187373D03*
X0073790Y0187373D03*
X0073750Y0187373D03*
X0074350Y0186573D03*
X0074430Y0186613D03*
X0074510Y0186613D03*
X0074550Y0186613D03*
X0074590Y0186613D03*
X0074630Y0186613D03*
X0074710Y0186613D03*
X0074750Y0186613D03*
X0074790Y0186613D03*
X0074830Y0186613D03*
X0074910Y0186613D03*
X0074950Y0186613D03*
X0074990Y0186613D03*
X0075030Y0186613D03*
X0075150Y0186573D03*
X0075150Y0185453D03*
X0074350Y0185453D03*
X0074390Y0189253D03*
X0074430Y0189253D03*
X0074510Y0189253D03*
X0075030Y0189253D03*
X0075110Y0189253D03*
X0075150Y0189253D03*
X0074430Y0190413D03*
X0074390Y0190413D03*
X0074350Y0190413D03*
X0074390Y0191213D03*
X0074430Y0191213D03*
X0072110Y0190213D03*
X0078190Y0187373D03*
X0078230Y0187373D03*
X0078310Y0187373D03*
X0078350Y0187373D03*
X0078390Y0187373D03*
X0078430Y0187373D03*
X0078510Y0187373D03*
X0078550Y0187373D03*
X0078590Y0187373D03*
X0078630Y0187373D03*
X0078710Y0187373D03*
X0078750Y0187373D03*
X0078790Y0187373D03*
X0078830Y0187373D03*
X0078790Y0196213D03*
X0078110Y0200613D03*
X0078230Y0200653D03*
X0077510Y0200653D03*
X0077510Y0201813D03*
X0077550Y0201813D03*
X0077590Y0201813D03*
X0077630Y0201813D03*
X0072110Y0199173D03*
D213*
X0073750Y0198933D03*
X0073790Y0198933D03*
X0073830Y0198933D03*
X0073910Y0198933D03*
X0073950Y0198933D03*
X0073990Y0198933D03*
X0074030Y0198933D03*
X0074110Y0198933D03*
X0074150Y0198933D03*
X0074190Y0198933D03*
X0074230Y0198933D03*
X0074310Y0198933D03*
X0074350Y0198933D03*
X0074390Y0198933D03*
X0074430Y0198933D03*
X0074510Y0198933D03*
X0074550Y0198933D03*
X0074590Y0198933D03*
X0074630Y0198933D03*
X0074710Y0198933D03*
X0074750Y0198933D03*
X0074790Y0198933D03*
X0074830Y0198933D03*
X0074910Y0198933D03*
X0074950Y0198933D03*
X0074990Y0198933D03*
X0075030Y0198933D03*
X0075710Y0198933D03*
X0075750Y0198933D03*
X0075030Y0197733D03*
X0074990Y0197733D03*
X0074950Y0197733D03*
X0074910Y0197733D03*
X0074830Y0197733D03*
X0074790Y0197733D03*
X0074750Y0197733D03*
X0074710Y0197733D03*
X0074630Y0197733D03*
X0074590Y0197733D03*
X0074550Y0197733D03*
X0074510Y0197733D03*
X0074430Y0197733D03*
X0074390Y0197733D03*
X0074350Y0197733D03*
X0074310Y0197733D03*
X0074230Y0197733D03*
X0074190Y0197733D03*
X0074150Y0197733D03*
X0074110Y0197733D03*
X0074030Y0197733D03*
X0073990Y0197733D03*
X0073950Y0197733D03*
X0073910Y0197733D03*
X0073830Y0197733D03*
X0073790Y0197733D03*
X0073750Y0197733D03*
X0074430Y0201093D03*
X0075030Y0201093D03*
X0077430Y0200693D03*
X0078310Y0200693D03*
X0077150Y0196733D03*
X0077110Y0196733D03*
X0077190Y0196693D03*
X0077230Y0196693D03*
X0077750Y0196533D03*
X0077790Y0196533D03*
X0077910Y0196493D03*
X0077830Y0194693D03*
X0077350Y0194533D03*
X0077310Y0194533D03*
X0077230Y0194493D03*
X0077190Y0194493D03*
X0077150Y0194493D03*
X0075790Y0194533D03*
X0075190Y0195133D03*
X0075150Y0195133D03*
X0075110Y0195133D03*
X0073710Y0194533D03*
X0075310Y0190293D03*
X0075190Y0189293D03*
X0075030Y0188533D03*
X0074990Y0188533D03*
X0074950Y0188533D03*
X0074910Y0188533D03*
X0074830Y0188533D03*
X0074790Y0188533D03*
X0074710Y0188533D03*
X0074630Y0188533D03*
X0074590Y0188533D03*
X0074550Y0188533D03*
X0074510Y0188533D03*
X0074430Y0188533D03*
X0074310Y0189293D03*
X0077510Y0188533D03*
X0077550Y0188533D03*
X0077590Y0188533D03*
X0077630Y0188533D03*
X0077710Y0188533D03*
X0077750Y0188533D03*
X0077790Y0188533D03*
X0077830Y0188533D03*
X0077910Y0188533D03*
X0077950Y0188533D03*
X0077990Y0188533D03*
X0078030Y0188533D03*
X0078110Y0188533D03*
X0078150Y0188533D03*
X0078190Y0188533D03*
X0078230Y0188533D03*
X0078310Y0188533D03*
X0078350Y0188533D03*
X0078390Y0188533D03*
X0078430Y0188533D03*
X0078510Y0188533D03*
X0078550Y0188533D03*
X0078590Y0188533D03*
X0078630Y0188533D03*
X0078710Y0188533D03*
X0078750Y0188533D03*
X0078790Y0188533D03*
X0078830Y0188533D03*
X0074350Y0203933D03*
X0074310Y0203933D03*
D214*
X0073990Y0201733D03*
X0075510Y0201733D03*
X0073950Y0200213D03*
X0073830Y0200213D03*
X0077110Y0199693D03*
X0077750Y0197973D03*
X0078830Y0197973D03*
X0078790Y0193333D03*
X0076950Y0193333D03*
X0077110Y0191693D03*
X0077750Y0189973D03*
X0078830Y0189973D03*
X0076950Y0187813D03*
X0073830Y0187813D03*
X0074030Y0186013D03*
X0074030Y0189853D03*
X0073830Y0191653D03*
X0073910Y0194573D03*
X0074710Y0194533D03*
X0074750Y0194573D03*
X0074790Y0194613D03*
X0075590Y0194493D03*
X0074030Y0196373D03*
D215*
X0073750Y0194553D03*
X0075750Y0194513D03*
X0077510Y0195593D03*
X0078310Y0194993D03*
X0078350Y0194993D03*
X0078350Y0196193D03*
X0078310Y0196193D03*
X0078430Y0193633D03*
X0078830Y0193073D03*
X0071310Y0192313D03*
X0071310Y0197073D03*
X0076910Y0201233D03*
X0060630Y0199113D03*
X0060630Y0190273D03*
D216*
X0060510Y0190233D03*
X0060510Y0199153D03*
X0073710Y0198913D03*
X0073710Y0199753D03*
X0073710Y0197753D03*
X0074550Y0196993D03*
X0074590Y0196993D03*
X0074630Y0196993D03*
X0074910Y0196993D03*
X0074950Y0196993D03*
X0075790Y0196393D03*
X0076990Y0195593D03*
X0077030Y0195593D03*
X0077710Y0195353D03*
X0077750Y0195353D03*
X0077990Y0195273D03*
X0077990Y0194753D03*
X0078030Y0194753D03*
X0077950Y0194713D03*
X0077910Y0194713D03*
X0077790Y0194673D03*
X0077750Y0194673D03*
X0077630Y0194633D03*
X0077510Y0194593D03*
X0077790Y0195873D03*
X0077830Y0195873D03*
X0077910Y0195913D03*
X0077950Y0195913D03*
X0077950Y0196473D03*
X0077990Y0196473D03*
X0077830Y0196513D03*
X0077710Y0196553D03*
X0077590Y0196593D03*
X0077550Y0196593D03*
X0077430Y0196633D03*
X0078190Y0197233D03*
X0078230Y0197233D03*
X0078310Y0197233D03*
X0078830Y0196193D03*
X0078830Y0194993D03*
X0076030Y0193793D03*
X0074190Y0194953D03*
X0073710Y0196393D03*
X0075790Y0198913D03*
X0075790Y0199753D03*
X0077550Y0200633D03*
X0077590Y0200633D03*
X0077630Y0200633D03*
X0078150Y0200633D03*
X0078190Y0200633D03*
X0078430Y0201673D03*
X0075790Y0203433D03*
X0074510Y0203953D03*
X0074430Y0203953D03*
X0074390Y0203953D03*
X0074390Y0202793D03*
X0074430Y0202793D03*
X0073710Y0201753D03*
X0076830Y0197793D03*
X0077510Y0198433D03*
X0077550Y0198433D03*
X0077590Y0198433D03*
X0078110Y0198433D03*
X0078150Y0198433D03*
X0075790Y0191193D03*
X0075750Y0191193D03*
X0075710Y0191193D03*
X0075630Y0191193D03*
X0075590Y0191193D03*
X0075550Y0191193D03*
X0075510Y0191193D03*
X0075430Y0191193D03*
X0075390Y0191193D03*
X0075350Y0191193D03*
X0075310Y0191193D03*
X0075230Y0191193D03*
X0075190Y0191193D03*
X0075150Y0191193D03*
X0075110Y0191193D03*
X0075030Y0191193D03*
X0074990Y0191193D03*
X0074950Y0191193D03*
X0074910Y0191193D03*
X0074830Y0191193D03*
X0074790Y0191193D03*
X0074750Y0191193D03*
X0074710Y0191193D03*
X0074630Y0191193D03*
X0074590Y0191193D03*
X0074550Y0191193D03*
X0074510Y0191193D03*
X0073790Y0191193D03*
X0073750Y0191193D03*
X0073710Y0191193D03*
X0074350Y0189273D03*
X0074990Y0189233D03*
X0074750Y0188553D03*
X0073710Y0187353D03*
X0073710Y0185993D03*
X0074390Y0185433D03*
X0074430Y0185433D03*
X0074510Y0185433D03*
X0074550Y0185433D03*
X0074590Y0185433D03*
X0074630Y0185433D03*
X0074910Y0185433D03*
X0074950Y0185433D03*
X0074990Y0185433D03*
X0075030Y0185433D03*
X0075110Y0185433D03*
X0076830Y0189793D03*
X0078190Y0189233D03*
X0078230Y0189233D03*
X0078310Y0189233D03*
X0078350Y0189233D03*
D217*
X0073830Y0189833D03*
X0078110Y0194993D03*
X0078830Y0201273D03*
X0076950Y0201233D03*
X0075710Y0203433D03*
X0073830Y0203393D03*
D218*
X0075510Y0203433D03*
X0077190Y0201233D03*
X0077790Y0197953D03*
X0077110Y0197833D03*
X0078790Y0197953D03*
X0075430Y0196393D03*
X0073950Y0194593D03*
X0071750Y0199073D03*
X0073910Y0200233D03*
X0078790Y0189953D03*
X0076990Y0187833D03*
X0075630Y0187833D03*
D219*
X0075630Y0186013D03*
X0074950Y0194813D03*
X0078790Y0201293D03*
X0060750Y0199093D03*
X0060750Y0190293D03*
D220*
X0071710Y0190313D03*
X0073950Y0191713D03*
X0075390Y0189873D03*
X0075550Y0187873D03*
X0073950Y0187873D03*
X0077830Y0189913D03*
X0078750Y0189913D03*
X0074110Y0194513D03*
X0077190Y0197873D03*
X0077830Y0197913D03*
X0078710Y0197913D03*
X0078510Y0201273D03*
X0078590Y0201313D03*
X0075430Y0201753D03*
X0075310Y0201673D03*
X0074190Y0201673D03*
X0071710Y0199073D03*
D221*
X0076990Y0193313D03*
X0078750Y0193313D03*
X0075510Y0189913D03*
X0071750Y0190313D03*
D222*
X0071430Y0192393D03*
X0074350Y0192353D03*
X0074390Y0192353D03*
X0074350Y0191233D03*
X0074310Y0191233D03*
X0074510Y0190433D03*
X0074310Y0190393D03*
X0075230Y0189313D03*
X0075190Y0188513D03*
X0075150Y0188513D03*
X0075110Y0188513D03*
X0074390Y0188513D03*
X0074350Y0188513D03*
X0074310Y0188513D03*
X0074350Y0187393D03*
X0074390Y0187393D03*
X0074430Y0187393D03*
X0075110Y0187393D03*
X0075150Y0187393D03*
X0075110Y0186593D03*
X0075190Y0186553D03*
X0074390Y0186593D03*
X0074310Y0186553D03*
X0074310Y0185473D03*
X0075190Y0185473D03*
X0077510Y0187393D03*
X0077350Y0190393D03*
X0077510Y0191273D03*
X0077550Y0191273D03*
X0078390Y0190393D03*
X0078310Y0192633D03*
X0078350Y0192673D03*
X0078230Y0192633D03*
X0077510Y0192633D03*
X0077510Y0193753D03*
X0078230Y0193753D03*
X0078310Y0193753D03*
X0078710Y0194993D03*
X0078710Y0196193D03*
X0078750Y0196193D03*
X0077150Y0195593D03*
X0077110Y0195593D03*
X0077110Y0194473D03*
X0076950Y0194433D03*
X0075230Y0195113D03*
X0075030Y0195113D03*
X0075190Y0195833D03*
X0074310Y0195833D03*
X0074310Y0196953D03*
X0074350Y0196953D03*
X0075150Y0196953D03*
X0075190Y0196953D03*
X0075230Y0196913D03*
X0075110Y0197753D03*
X0075150Y0197793D03*
X0075190Y0197793D03*
X0075110Y0198913D03*
X0074350Y0199793D03*
X0074350Y0201113D03*
X0074390Y0201113D03*
X0074310Y0201153D03*
X0075110Y0201113D03*
X0075150Y0201113D03*
X0075190Y0201153D03*
X0075190Y0202833D03*
X0075230Y0202873D03*
X0074310Y0202833D03*
X0077390Y0201753D03*
X0077430Y0201793D03*
X0077390Y0200713D03*
X0078350Y0200713D03*
X0077590Y0199273D03*
X0077550Y0199273D03*
X0077510Y0199273D03*
X0077350Y0198393D03*
X0078390Y0198393D03*
X0077030Y0196753D03*
X0076910Y0196793D03*
X0074430Y0193993D03*
X0071430Y0196993D03*
D223*
X0074150Y0194493D03*
X0075550Y0194493D03*
X0077030Y0193293D03*
X0077030Y0191733D03*
X0076990Y0191733D03*
X0077230Y0189893D03*
X0077110Y0189813D03*
X0077790Y0189933D03*
X0077030Y0187853D03*
X0075590Y0187853D03*
X0073910Y0187853D03*
X0074110Y0186013D03*
X0075390Y0186013D03*
X0075430Y0186013D03*
X0074110Y0189853D03*
X0073910Y0191693D03*
X0078710Y0193293D03*
X0078750Y0197933D03*
X0077230Y0197893D03*
X0075630Y0198453D03*
X0076990Y0199733D03*
X0077030Y0199733D03*
X0077230Y0201253D03*
X0078630Y0201293D03*
X0075350Y0203373D03*
X0074110Y0203373D03*
X0074030Y0201733D03*
X0060910Y0199053D03*
X0060910Y0190333D03*
D224*
X0073910Y0189833D03*
X0073910Y0185993D03*
X0073910Y0196393D03*
X0075590Y0196393D03*
X0074190Y0200113D03*
X0073910Y0203393D03*
X0075630Y0203433D03*
X0078750Y0201273D03*
D225*
X0078550Y0201293D03*
X0075390Y0201733D03*
X0075350Y0201693D03*
X0074150Y0201693D03*
X0074110Y0201733D03*
X0075390Y0203413D03*
X0075510Y0198413D03*
X0075550Y0198413D03*
X0075350Y0196373D03*
X0074150Y0196373D03*
X0074030Y0194573D03*
X0074030Y0191733D03*
X0073990Y0191733D03*
X0075430Y0189893D03*
X0077190Y0189853D03*
X0078710Y0189893D03*
X0077150Y0187893D03*
X0077110Y0187893D03*
X0075510Y0187893D03*
X0073990Y0187893D03*
X0074150Y0186013D03*
X0074190Y0186013D03*
X0075310Y0186013D03*
X0075350Y0186013D03*
X0077110Y0193253D03*
X0077150Y0193253D03*
X0078630Y0193253D03*
X0077910Y0197893D03*
X0060950Y0199053D03*
X0060950Y0190333D03*
D226*
X0071790Y0190293D03*
X0071790Y0199093D03*
X0073950Y0201733D03*
X0075550Y0201733D03*
X0078710Y0201293D03*
D227*
X0078670Y0197893D03*
X0077870Y0197893D03*
X0077870Y0189893D03*
X0078670Y0189893D03*
D228*
X0077070Y0187873D03*
X0075470Y0189913D03*
X0077070Y0193273D03*
X0078670Y0193273D03*
X0074070Y0194553D03*
X0074070Y0201753D03*
D229*
X0074270Y0201173D03*
X0074270Y0199813D03*
X0076870Y0199973D03*
X0077470Y0199293D03*
X0074270Y0195853D03*
X0075270Y0195093D03*
X0074270Y0192293D03*
X0074270Y0191253D03*
X0074270Y0190373D03*
X0074270Y0188493D03*
X0074270Y0187413D03*
X0074270Y0186533D03*
X0074270Y0185493D03*
X0076870Y0191973D03*
X0078670Y0195013D03*
X0075270Y0202893D03*
D230*
X0074270Y0203913D03*
X0077470Y0201793D03*
X0075070Y0198913D03*
X0075070Y0197753D03*
X0074270Y0196913D03*
X0076870Y0196793D03*
X0078670Y0196193D03*
X0078270Y0193753D03*
X0077470Y0193753D03*
X0076870Y0193073D03*
X0077470Y0192633D03*
X0078270Y0192633D03*
X0077470Y0191273D03*
X0074270Y0189313D03*
X0075070Y0187393D03*
X0076870Y0188073D03*
X0077470Y0188513D03*
X0077470Y0187393D03*
D231*
X0075670Y0187813D03*
X0075470Y0186013D03*
X0074670Y0194493D03*
X0075470Y0196373D03*
X0075670Y0198493D03*
X0077070Y0197853D03*
X0078670Y0201293D03*
D232*
X0078630Y0197873D03*
X0078590Y0197873D03*
X0077950Y0197873D03*
X0075310Y0196393D03*
X0074190Y0196393D03*
X0075510Y0194473D03*
X0077190Y0193233D03*
X0077230Y0193233D03*
X0078510Y0193233D03*
X0078550Y0193233D03*
X0078590Y0193233D03*
X0078630Y0189873D03*
X0077950Y0189873D03*
X0077910Y0189873D03*
X0077190Y0187913D03*
X0075430Y0187913D03*
X0074030Y0187913D03*
X0074110Y0191753D03*
D233*
X0073750Y0191893D03*
X0074310Y0192333D03*
X0074190Y0194053D03*
X0074230Y0195893D03*
X0075230Y0195853D03*
X0075230Y0197813D03*
X0075750Y0198213D03*
X0075190Y0198893D03*
X0075150Y0198893D03*
X0074310Y0199813D03*
X0073750Y0200453D03*
X0075230Y0201173D03*
X0074230Y0202893D03*
X0074230Y0203893D03*
X0077350Y0201733D03*
X0077350Y0200733D03*
X0078390Y0200733D03*
X0077430Y0199293D03*
X0078110Y0197293D03*
X0078430Y0197293D03*
X0077190Y0195613D03*
X0078630Y0195013D03*
X0078350Y0193733D03*
X0077430Y0193733D03*
X0077390Y0192693D03*
X0077430Y0192653D03*
X0078390Y0192693D03*
X0077430Y0191293D03*
X0078110Y0189293D03*
X0078430Y0189293D03*
X0077430Y0188493D03*
X0077430Y0187413D03*
X0075750Y0188093D03*
X0075230Y0188493D03*
X0074230Y0188453D03*
X0074230Y0189333D03*
X0074230Y0190333D03*
X0074310Y0187413D03*
X0075190Y0187413D03*
X0075230Y0186533D03*
X0075230Y0185493D03*
X0060550Y0190253D03*
X0060550Y0199133D03*
D234*
X0071390Y0197033D03*
X0074230Y0196873D03*
X0075230Y0198873D03*
X0078430Y0198353D03*
X0078550Y0196193D03*
X0078590Y0196193D03*
X0078630Y0196193D03*
X0078590Y0194993D03*
X0077230Y0195593D03*
X0074230Y0192273D03*
X0071390Y0192353D03*
X0074190Y0189393D03*
X0073750Y0188073D03*
X0075230Y0187433D03*
X0077390Y0187433D03*
X0077390Y0188473D03*
X0078430Y0190353D03*
X0078430Y0200793D03*
X0074190Y0203833D03*
D235*
X0075350Y0198373D03*
X0075390Y0198373D03*
X0075430Y0198373D03*
X0077990Y0197853D03*
X0078030Y0197853D03*
X0078510Y0197853D03*
X0078550Y0197853D03*
X0074190Y0191773D03*
X0074150Y0191773D03*
X0077990Y0189853D03*
X0078030Y0189853D03*
X0078550Y0189853D03*
X0078590Y0189853D03*
X0077310Y0187933D03*
X0077230Y0187933D03*
X0075390Y0187933D03*
X0075350Y0187933D03*
X0075310Y0187933D03*
X0074190Y0187933D03*
X0074150Y0187933D03*
X0074110Y0187933D03*
D236*
X0074230Y0187453D03*
X0073750Y0186013D03*
X0075750Y0186013D03*
X0077350Y0187453D03*
X0077350Y0188453D03*
X0075310Y0189413D03*
X0074190Y0190293D03*
X0073750Y0189853D03*
X0074230Y0191293D03*
X0075310Y0194013D03*
X0075310Y0195053D03*
X0075750Y0196373D03*
X0077310Y0195613D03*
X0078510Y0195013D03*
X0078550Y0195013D03*
X0078510Y0196213D03*
X0077310Y0198333D03*
X0077310Y0200813D03*
X0075750Y0201733D03*
X0074230Y0201213D03*
X0073750Y0201733D03*
X0073750Y0203373D03*
X0074230Y0199853D03*
X0077350Y0193693D03*
X0060590Y0190253D03*
X0060590Y0199133D03*
D237*
X0060990Y0199033D03*
X0060990Y0190353D03*
X0075310Y0198353D03*
X0074950Y0203353D03*
X0074910Y0203353D03*
X0074830Y0203353D03*
X0074790Y0203353D03*
X0074750Y0203353D03*
X0074710Y0203353D03*
X0074630Y0203353D03*
X0074590Y0203353D03*
X0074550Y0203353D03*
X0078510Y0189833D03*
D238*
X0078470Y0189833D03*
X0078070Y0189833D03*
X0075470Y0194473D03*
X0078470Y0197833D03*
X0074870Y0203353D03*
X0074670Y0203353D03*
D239*
X0077270Y0193213D03*
X0078470Y0193213D03*
D240*
X0078470Y0194993D03*
X0078470Y0196193D03*
X0075270Y0198833D03*
D241*
X0075470Y0201733D03*
X0075470Y0203453D03*
X0078470Y0201213D03*
X0074070Y0186013D03*
D242*
X0073790Y0188093D03*
X0075710Y0188093D03*
X0075750Y0189893D03*
X0073790Y0191893D03*
X0071350Y0192333D03*
X0071350Y0197053D03*
X0073790Y0200453D03*
X0075710Y0198213D03*
X0077430Y0195613D03*
X0078390Y0195013D03*
X0078390Y0196213D03*
X0078430Y0192773D03*
D243*
X0078430Y0194993D03*
X0078430Y0196193D03*
X0077390Y0195593D03*
X0077350Y0195593D03*
X0074990Y0195033D03*
X0073750Y0196393D03*
X0072030Y0190233D03*
X0075750Y0203433D03*
D244*
X0074190Y0202913D03*
X0077390Y0199313D03*
X0077390Y0193713D03*
X0078390Y0193713D03*
X0077350Y0192713D03*
X0077390Y0191313D03*
X0077310Y0190313D03*
X0074230Y0186513D03*
X0074230Y0185513D03*
D245*
X0072190Y0190213D03*
X0071510Y0192453D03*
X0074230Y0195013D03*
X0076830Y0193053D03*
X0076830Y0191973D03*
X0071510Y0196933D03*
X0072190Y0199173D03*
X0075790Y0198213D03*
X0076830Y0199973D03*
X0078390Y0201693D03*
D246*
X0078350Y0201713D03*
X0071550Y0196913D03*
X0075230Y0190313D03*
D247*
X0075190Y0190313D03*
X0077390Y0189433D03*
X0074310Y0195033D03*
X0077390Y0197433D03*
X0078310Y0201713D03*
X0075190Y0203873D03*
X0074230Y0200593D03*
D248*
X0078270Y0196213D03*
X0078270Y0195013D03*
X0076870Y0189813D03*
D249*
X0072270Y0190193D03*
X0072270Y0199193D03*
X0074270Y0200593D03*
X0078270Y0201713D03*
D250*
X0075710Y0201753D03*
X0075710Y0196393D03*
X0073790Y0196393D03*
X0077590Y0195593D03*
X0077630Y0195593D03*
X0078190Y0194993D03*
X0078230Y0194993D03*
X0078230Y0196193D03*
X0078190Y0196193D03*
X0073790Y0189833D03*
X0073790Y0185993D03*
D251*
X0071950Y0190253D03*
X0078150Y0195013D03*
X0078150Y0196213D03*
X0078110Y0196213D03*
D252*
X0078070Y0196193D03*
X0078070Y0194993D03*
D253*
X0078070Y0197853D03*
X0077270Y0187933D03*
D254*
X0074870Y0189833D03*
X0074670Y0189833D03*
X0077670Y0201233D03*
X0077870Y0201233D03*
X0078070Y0201233D03*
D255*
X0075790Y0201733D03*
X0073710Y0203373D03*
X0072150Y0199173D03*
X0077310Y0197453D03*
X0077710Y0195853D03*
X0077750Y0195853D03*
X0077990Y0195933D03*
X0077830Y0195333D03*
X0077790Y0195333D03*
X0077910Y0195293D03*
X0077950Y0195293D03*
X0078030Y0195253D03*
X0075790Y0189893D03*
D256*
X0076910Y0189813D03*
X0073830Y0186013D03*
X0073790Y0194533D03*
X0073830Y0196373D03*
X0076910Y0197853D03*
X0078030Y0196213D03*
X0073830Y0201733D03*
X0060710Y0199093D03*
X0060710Y0190293D03*
D257*
X0061030Y0190353D03*
X0061030Y0199033D03*
X0074630Y0189833D03*
X0074710Y0189833D03*
X0074750Y0189833D03*
X0074790Y0189833D03*
X0074830Y0189833D03*
X0075390Y0194473D03*
X0077710Y0201233D03*
X0077750Y0201233D03*
X0077790Y0201233D03*
X0077830Y0201233D03*
X0077910Y0201233D03*
X0077950Y0201233D03*
X0077990Y0201233D03*
X0078030Y0201233D03*
D258*
X0077870Y0195893D03*
X0071470Y0196973D03*
D259*
X0074590Y0194413D03*
X0077190Y0191653D03*
X0077710Y0190013D03*
X0073990Y0189853D03*
X0073990Y0186013D03*
X0075510Y0186013D03*
X0077030Y0197853D03*
X0077710Y0198013D03*
X0077230Y0199653D03*
X0077190Y0199653D03*
X0074030Y0200173D03*
X0073990Y0203373D03*
D260*
X0077670Y0198073D03*
X0077670Y0190073D03*
D261*
X0077670Y0195613D03*
D262*
X0077550Y0195613D03*
X0075710Y0186013D03*
D263*
X0077470Y0195593D03*
X0076870Y0197833D03*
D264*
X0077430Y0197433D03*
X0077390Y0200113D03*
X0075150Y0203873D03*
X0075150Y0190313D03*
X0077430Y0189433D03*
D265*
X0077390Y0192093D03*
X0075110Y0193933D03*
X0071590Y0192493D03*
X0071590Y0196893D03*
D266*
X0072230Y0199193D03*
X0077350Y0197433D03*
X0071550Y0192473D03*
X0072230Y0190193D03*
X0077350Y0189433D03*
X0075230Y0203873D03*
D267*
X0075310Y0202953D03*
X0077310Y0201673D03*
X0076910Y0199953D03*
X0077350Y0199353D03*
X0072030Y0199153D03*
X0076910Y0193073D03*
X0076910Y0191953D03*
X0077350Y0191353D03*
X0076910Y0188073D03*
D268*
X0077350Y0192093D03*
X0075150Y0193933D03*
X0077350Y0200093D03*
X0075190Y0202173D03*
X0074310Y0202173D03*
X0060390Y0199173D03*
X0060390Y0190213D03*
D269*
X0073710Y0189833D03*
X0073710Y0188073D03*
X0075790Y0188073D03*
X0077310Y0189433D03*
X0073710Y0191913D03*
X0075230Y0193953D03*
X0076910Y0195593D03*
X0076830Y0201233D03*
X0074230Y0202153D03*
X0073710Y0200473D03*
D270*
X0077310Y0199613D03*
X0077310Y0191613D03*
D271*
X0077310Y0193213D03*
D272*
X0077070Y0191713D03*
X0077270Y0189913D03*
X0077270Y0197913D03*
X0077070Y0199713D03*
D273*
X0077270Y0199633D03*
X0073870Y0194553D03*
X0077270Y0191633D03*
D274*
X0077270Y0201233D03*
D275*
X0077110Y0201233D03*
X0075590Y0203433D03*
X0074110Y0200153D03*
X0073950Y0196393D03*
X0075550Y0196393D03*
X0075630Y0194513D03*
X0077230Y0191633D03*
X0076990Y0189833D03*
X0075550Y0185993D03*
X0073950Y0185993D03*
X0060830Y0190313D03*
X0060830Y0199073D03*
D276*
X0074110Y0196393D03*
X0075390Y0196393D03*
X0075590Y0198433D03*
X0077150Y0197833D03*
X0073990Y0194593D03*
X0074150Y0189833D03*
X0075350Y0189833D03*
X0077150Y0189833D03*
X0075430Y0203433D03*
X0074150Y0203393D03*
D277*
X0074030Y0203393D03*
X0075550Y0203433D03*
X0077150Y0201233D03*
X0077150Y0199673D03*
X0073990Y0200193D03*
X0073990Y0196393D03*
X0075510Y0196393D03*
X0074830Y0194633D03*
X0074630Y0194473D03*
X0077150Y0191673D03*
X0077030Y0189833D03*
X0075550Y0189913D03*
D278*
X0074070Y0189833D03*
X0073870Y0191673D03*
X0077070Y0189833D03*
X0073870Y0187833D03*
X0074070Y0196393D03*
X0073870Y0200233D03*
X0074070Y0203393D03*
D279*
X0077070Y0201253D03*
D280*
X0077030Y0201233D03*
X0076950Y0197833D03*
X0075630Y0196393D03*
X0076950Y0189833D03*
D281*
X0075590Y0189893D03*
X0073950Y0189853D03*
X0071830Y0190293D03*
X0074550Y0194373D03*
X0074910Y0194733D03*
X0076990Y0197853D03*
X0074150Y0200133D03*
X0073910Y0201733D03*
X0073950Y0203373D03*
X0075590Y0201733D03*
X0071830Y0199093D03*
D282*
X0074510Y0194273D03*
X0071910Y0190273D03*
X0076990Y0201233D03*
D283*
X0076950Y0199973D03*
X0073790Y0203373D03*
X0071990Y0199133D03*
X0076950Y0191973D03*
X0071990Y0190253D03*
D284*
X0072150Y0190213D03*
X0074710Y0185413D03*
X0074750Y0185413D03*
X0074790Y0185413D03*
X0074830Y0185413D03*
X0075790Y0186013D03*
X0076950Y0195613D03*
D285*
X0076870Y0195593D03*
X0075270Y0190313D03*
X0060470Y0190233D03*
X0060470Y0199153D03*
D286*
X0075230Y0202153D03*
X0076830Y0188073D03*
D287*
X0075710Y0189893D03*
X0071950Y0199133D03*
X0073790Y0201733D03*
D288*
X0071910Y0199113D03*
X0075710Y0194513D03*
D289*
X0075670Y0196373D03*
X0075670Y0201733D03*
X0075670Y0186013D03*
D290*
X0073870Y0186013D03*
X0073870Y0189853D03*
X0075670Y0189893D03*
X0073870Y0203373D03*
D291*
X0073870Y0201733D03*
X0075670Y0194533D03*
D292*
X0075670Y0203433D03*
D293*
X0075630Y0201733D03*
X0073830Y0194573D03*
X0075630Y0189893D03*
X0075590Y0186013D03*
X0060790Y0190293D03*
X0060790Y0199093D03*
D294*
X0071670Y0199073D03*
X0075470Y0198393D03*
X0074070Y0191753D03*
X0071670Y0190313D03*
X0074070Y0187913D03*
X0075470Y0187913D03*
D295*
X0074950Y0189853D03*
X0074910Y0189853D03*
X0074590Y0189853D03*
X0074550Y0189853D03*
X0075430Y0194453D03*
X0071630Y0199053D03*
D296*
X0075350Y0194493D03*
X0071630Y0190333D03*
D297*
X0075270Y0186513D03*
X0075270Y0185513D03*
X0075270Y0195913D03*
D298*
X0075270Y0197853D03*
X0075270Y0201213D03*
X0075270Y0187453D03*
D299*
X0075270Y0203853D03*
D300*
X0075190Y0193933D03*
X0060430Y0190213D03*
X0060430Y0199173D03*
D301*
X0074350Y0202173D03*
X0075150Y0202173D03*
D302*
X0075110Y0202173D03*
X0074390Y0202173D03*
X0074350Y0195053D03*
D303*
X0075070Y0193933D03*
D304*
X0074870Y0194693D03*
D305*
X0074270Y0195013D03*
D306*
X0074270Y0202153D03*
D307*
X0074070Y0200173D03*
D308*
X0073870Y0196393D03*
D309*
X0071870Y0199113D03*
X0071870Y0190273D03*
D310*
X0071590Y0190333D03*
X0071590Y0199053D03*
D311*
X0071550Y0190353D03*
D312*
X0071550Y0199033D03*
D313*
X0071510Y0199033D03*
X0071510Y0190353D03*
D314*
X0071470Y0190373D03*
X0071470Y0199013D03*
D315*
X0071430Y0199013D03*
X0071430Y0190373D03*
X0059190Y0194693D03*
X0059150Y0194693D03*
X0059110Y0194693D03*
X0059030Y0194693D03*
X0058990Y0194693D03*
D316*
X0071390Y0190393D03*
X0071390Y0198993D03*
D317*
X0071350Y0198993D03*
X0071350Y0190393D03*
D318*
X0071310Y0190413D03*
X0071310Y0198973D03*
D319*
X0071270Y0198973D03*
X0071270Y0190413D03*
X0060070Y0194693D03*
D320*
X0060670Y0190273D03*
X0071270Y0192273D03*
X0071270Y0197113D03*
X0060670Y0199113D03*
D321*
X0071230Y0198473D03*
X0071230Y0190913D03*
D322*
X0071190Y0190893D03*
X0071190Y0198493D03*
D323*
X0071150Y0198493D03*
X0061110Y0194693D03*
X0071150Y0190893D03*
D324*
X0071110Y0190873D03*
X0069390Y0191593D03*
X0069350Y0191593D03*
X0069310Y0191633D03*
X0069230Y0191673D03*
X0069190Y0191673D03*
X0069150Y0191673D03*
X0069310Y0197753D03*
X0069350Y0197793D03*
X0069390Y0197793D03*
X0069430Y0197833D03*
D325*
X0069230Y0197713D03*
X0069190Y0197713D03*
X0069150Y0197713D03*
X0071110Y0198513D03*
D326*
X0071070Y0198513D03*
X0069670Y0197953D03*
X0069070Y0197713D03*
X0069070Y0191673D03*
X0071070Y0190873D03*
D327*
X0071030Y0190853D03*
X0069830Y0191333D03*
X0069790Y0191373D03*
X0069710Y0191413D03*
X0069030Y0191693D03*
X0068990Y0191693D03*
X0068990Y0197693D03*
X0069030Y0197693D03*
X0069710Y0197973D03*
X0069790Y0198013D03*
X0069830Y0198053D03*
X0071030Y0198533D03*
D328*
X0070990Y0198553D03*
X0070030Y0198153D03*
X0069950Y0198113D03*
X0069910Y0198073D03*
X0068950Y0197713D03*
X0068950Y0191673D03*
X0069910Y0191313D03*
X0069950Y0191273D03*
X0070030Y0191233D03*
X0070990Y0190833D03*
D329*
X0070950Y0190833D03*
X0070310Y0191073D03*
X0070230Y0191113D03*
X0070190Y0191153D03*
X0067750Y0191233D03*
X0064830Y0191313D03*
X0064830Y0198073D03*
X0067750Y0198153D03*
X0070190Y0198233D03*
X0070230Y0198273D03*
X0070310Y0198313D03*
X0070950Y0198553D03*
D330*
X0070910Y0198573D03*
X0070510Y0198413D03*
X0070430Y0198373D03*
X0064790Y0198053D03*
X0067790Y0191253D03*
X0070350Y0191053D03*
X0070390Y0191053D03*
X0070430Y0191013D03*
X0070510Y0190973D03*
X0070910Y0190813D03*
D331*
X0070870Y0190833D03*
X0070470Y0190993D03*
X0070470Y0198393D03*
X0070870Y0198553D03*
D332*
X0070830Y0198573D03*
X0070790Y0198573D03*
X0070750Y0198533D03*
X0070710Y0198533D03*
X0068750Y0197693D03*
X0068710Y0197693D03*
X0067910Y0198013D03*
X0064910Y0198213D03*
X0064750Y0198013D03*
X0064710Y0197973D03*
X0061190Y0194693D03*
X0064710Y0191413D03*
X0064750Y0191373D03*
X0064910Y0191173D03*
X0067910Y0191373D03*
X0068710Y0191693D03*
X0068750Y0191693D03*
X0070710Y0190853D03*
X0070750Y0190853D03*
X0070790Y0190813D03*
X0070830Y0190813D03*
D333*
X0070670Y0190893D03*
X0067870Y0191333D03*
X0067870Y0198053D03*
X0070670Y0198493D03*
D334*
X0070630Y0198473D03*
X0070590Y0198473D03*
X0070550Y0198433D03*
X0067710Y0198233D03*
X0067710Y0191153D03*
X0070550Y0190953D03*
X0070590Y0190913D03*
X0070630Y0190913D03*
D335*
X0068830Y0191693D03*
X0068790Y0191693D03*
X0067830Y0191293D03*
X0064790Y0191333D03*
X0067830Y0198093D03*
X0067790Y0198133D03*
X0068790Y0197693D03*
X0068830Y0197693D03*
X0070350Y0198333D03*
X0070390Y0198333D03*
D336*
X0070270Y0198273D03*
X0068870Y0197713D03*
X0064870Y0198113D03*
X0064870Y0191273D03*
X0068870Y0191673D03*
X0070270Y0191113D03*
D337*
X0070150Y0191173D03*
X0070110Y0191173D03*
X0069990Y0191253D03*
X0068910Y0191693D03*
X0061150Y0194693D03*
X0068910Y0197693D03*
X0069990Y0198133D03*
D338*
X0070110Y0198213D03*
X0070150Y0198213D03*
D339*
X0070070Y0191213D03*
D340*
X0070070Y0198173D03*
D341*
X0069870Y0198053D03*
X0069870Y0191333D03*
D342*
X0069750Y0191393D03*
X0069750Y0197993D03*
D343*
X0069670Y0191433D03*
D344*
X0069630Y0191453D03*
X0069550Y0191493D03*
X0069510Y0191533D03*
X0069430Y0191573D03*
X0069110Y0191693D03*
X0069110Y0197693D03*
X0069510Y0197853D03*
X0069550Y0197893D03*
X0069630Y0197933D03*
D345*
X0069590Y0197913D03*
X0069590Y0191473D03*
D346*
X0069470Y0191533D03*
X0069470Y0197853D03*
D347*
X0069270Y0197733D03*
X0069270Y0191653D03*
D348*
X0068670Y0191673D03*
X0064670Y0191433D03*
X0064670Y0197953D03*
D349*
X0068670Y0197713D03*
D350*
X0068630Y0197693D03*
X0068590Y0197693D03*
X0067990Y0197933D03*
X0064630Y0197893D03*
X0064630Y0191493D03*
X0067990Y0191453D03*
X0068590Y0191693D03*
X0068630Y0191693D03*
D351*
X0068550Y0191693D03*
X0068510Y0191693D03*
X0064950Y0191053D03*
X0064590Y0191533D03*
X0064550Y0191573D03*
X0064550Y0197813D03*
X0064590Y0197853D03*
X0064950Y0198333D03*
X0068510Y0197693D03*
X0068550Y0197693D03*
D352*
X0068470Y0197713D03*
X0068470Y0191673D03*
D353*
X0068430Y0191693D03*
X0068390Y0191693D03*
X0068150Y0191573D03*
X0061230Y0194693D03*
X0064510Y0197773D03*
X0068390Y0197693D03*
X0068430Y0197693D03*
D354*
X0068350Y0197693D03*
X0068310Y0197693D03*
X0068230Y0197733D03*
X0067630Y0198493D03*
X0068310Y0191693D03*
X0068350Y0191693D03*
X0064990Y0190933D03*
D355*
X0064470Y0191653D03*
X0068270Y0191653D03*
D356*
X0068270Y0197733D03*
X0064470Y0197733D03*
D357*
X0064990Y0198453D03*
X0068230Y0191653D03*
D358*
X0068190Y0191633D03*
X0068190Y0197753D03*
D359*
X0068150Y0197813D03*
X0064510Y0191613D03*
D360*
X0068110Y0191553D03*
X0068110Y0197833D03*
D361*
X0068070Y0197893D03*
X0068070Y0191493D03*
D362*
X0068030Y0191473D03*
X0068030Y0197913D03*
D363*
X0067950Y0197993D03*
X0067950Y0191393D03*
D364*
X0067670Y0191033D03*
D365*
X0067670Y0198353D03*
D366*
X0067630Y0190913D03*
D367*
X0067590Y0190793D03*
X0065030Y0190793D03*
X0064390Y0191793D03*
X0064390Y0197593D03*
X0065030Y0198593D03*
X0067590Y0198593D03*
D368*
X0067550Y0190653D03*
D369*
X0067550Y0198733D03*
D370*
X0067510Y0198853D03*
X0065110Y0198813D03*
X0065110Y0190573D03*
X0067510Y0190533D03*
D371*
X0067470Y0190413D03*
D372*
X0067470Y0198973D03*
D373*
X0067430Y0199093D03*
X0066710Y0199413D03*
X0066630Y0199413D03*
X0066590Y0199413D03*
X0066550Y0199413D03*
X0066510Y0199413D03*
X0066110Y0199413D03*
X0066030Y0199413D03*
X0065990Y0199413D03*
X0065950Y0199413D03*
X0065910Y0199413D03*
X0067430Y0190293D03*
X0066710Y0189973D03*
X0066630Y0189973D03*
X0066590Y0189973D03*
X0066550Y0189973D03*
X0066510Y0189973D03*
X0066110Y0189973D03*
X0066030Y0189973D03*
X0065990Y0189973D03*
X0065950Y0189973D03*
X0065910Y0189973D03*
D374*
X0065510Y0190053D03*
X0067150Y0190053D03*
X0067190Y0190053D03*
X0067350Y0190133D03*
X0067390Y0190173D03*
X0067350Y0199253D03*
X0067190Y0199333D03*
X0067150Y0199333D03*
X0065510Y0199333D03*
D375*
X0067390Y0199213D03*
D376*
X0067310Y0199273D03*
X0067230Y0199313D03*
X0065430Y0199313D03*
X0065390Y0199313D03*
X0065350Y0199273D03*
X0065310Y0199273D03*
X0065310Y0190113D03*
X0065350Y0190113D03*
X0065390Y0190073D03*
X0065430Y0190073D03*
X0067230Y0190073D03*
X0067310Y0190113D03*
D377*
X0067270Y0190093D03*
X0065470Y0190053D03*
X0065470Y0199333D03*
X0067270Y0199293D03*
D378*
X0067110Y0199353D03*
X0067030Y0199353D03*
X0065590Y0199353D03*
X0065550Y0199353D03*
X0065230Y0199193D03*
X0065230Y0190193D03*
X0065550Y0190033D03*
X0065590Y0190033D03*
X0067030Y0190033D03*
X0067110Y0190033D03*
D379*
X0067070Y0190033D03*
X0067070Y0199353D03*
D380*
X0066990Y0199373D03*
X0066950Y0199373D03*
X0066910Y0199373D03*
X0065710Y0199373D03*
X0065630Y0199373D03*
X0065630Y0190013D03*
X0065710Y0190013D03*
X0066910Y0190013D03*
X0066950Y0190013D03*
X0066990Y0190013D03*
D381*
X0066870Y0189993D03*
X0065870Y0189993D03*
X0065870Y0199393D03*
X0066870Y0199393D03*
D382*
X0066830Y0199393D03*
X0066790Y0199393D03*
X0066750Y0199393D03*
X0065830Y0199393D03*
X0065790Y0199393D03*
X0065750Y0199393D03*
X0065750Y0189993D03*
X0065790Y0189993D03*
X0065830Y0189993D03*
X0066750Y0189993D03*
X0066790Y0189993D03*
X0066830Y0189993D03*
D383*
X0066670Y0189973D03*
X0066470Y0189973D03*
X0066070Y0189973D03*
X0066070Y0199413D03*
X0066470Y0199413D03*
X0066670Y0199413D03*
D384*
X0066430Y0199433D03*
X0066390Y0199433D03*
X0066350Y0199433D03*
X0066310Y0199433D03*
X0066230Y0199433D03*
X0066190Y0199433D03*
X0066150Y0199433D03*
X0065190Y0199073D03*
X0066150Y0189953D03*
X0066190Y0189953D03*
X0066230Y0189953D03*
X0066310Y0189953D03*
X0066350Y0189953D03*
X0066390Y0189953D03*
X0066430Y0189953D03*
D385*
X0066270Y0189953D03*
X0066270Y0199433D03*
D386*
X0065670Y0199373D03*
X0065670Y0190013D03*
D387*
X0065270Y0190153D03*
X0065270Y0199233D03*
D388*
X0065190Y0190313D03*
D389*
X0065150Y0190433D03*
X0065150Y0198953D03*
D390*
X0065070Y0198693D03*
X0065070Y0190693D03*
D391*
X0064430Y0191733D03*
X0064430Y0197653D03*
D392*
X0064350Y0197493D03*
X0064350Y0191893D03*
D393*
X0064310Y0194693D03*
X0062950Y0194693D03*
D394*
X0064270Y0194693D03*
D395*
X0064230Y0194693D03*
X0063030Y0194693D03*
X0062990Y0194693D03*
D396*
X0064110Y0194693D03*
X0064150Y0194693D03*
X0064190Y0194693D03*
D397*
X0064070Y0194693D03*
D398*
X0064030Y0194693D03*
X0063150Y0194693D03*
X0063110Y0194693D03*
D399*
X0063190Y0194693D03*
X0063950Y0194693D03*
X0063990Y0194693D03*
D400*
X0063910Y0194693D03*
X0063830Y0194693D03*
X0063230Y0194693D03*
D401*
X0063270Y0194693D03*
X0063870Y0194693D03*
D402*
X0063790Y0194693D03*
X0063750Y0194693D03*
X0063310Y0194693D03*
D403*
X0063350Y0194693D03*
X0063390Y0194693D03*
X0063710Y0194693D03*
D404*
X0063670Y0194693D03*
D405*
X0063630Y0194693D03*
X0063590Y0194693D03*
X0063550Y0194693D03*
X0063430Y0194693D03*
D406*
X0063510Y0194693D03*
D407*
X0063470Y0194693D03*
D408*
X0063070Y0194693D03*
D409*
X0062910Y0194693D03*
D410*
X0062870Y0194693D03*
D411*
X0062830Y0194693D03*
D412*
X0062790Y0194693D03*
D413*
X0062750Y0194693D03*
X0062710Y0194693D03*
D414*
X0062670Y0194693D03*
D415*
X0062630Y0194693D03*
X0062590Y0194693D03*
D416*
X0062550Y0194693D03*
D417*
X0062510Y0194693D03*
D418*
X0062470Y0194693D03*
D419*
X0062430Y0194693D03*
D420*
X0062390Y0194693D03*
X0062350Y0194693D03*
D421*
X0062310Y0194693D03*
D422*
X0062270Y0194693D03*
D423*
X0062230Y0194693D03*
X0061510Y0194693D03*
D424*
X0061550Y0194693D03*
X0062190Y0194693D03*
D425*
X0062150Y0194693D03*
X0061590Y0194693D03*
D426*
X0061630Y0194693D03*
X0062110Y0194693D03*
D427*
X0062070Y0194693D03*
D428*
X0062030Y0194693D03*
D429*
X0061990Y0194693D03*
X0061950Y0194693D03*
X0061710Y0194693D03*
D430*
X0061750Y0194693D03*
X0061790Y0194693D03*
X0061910Y0194693D03*
D431*
X0061870Y0194693D03*
D432*
X0061830Y0194693D03*
D433*
X0061670Y0194693D03*
D434*
X0061470Y0194693D03*
D435*
X0060630Y0194693D03*
X0060590Y0194693D03*
X0060550Y0194693D03*
X0060510Y0194693D03*
X0061430Y0190453D03*
X0061430Y0198933D03*
D436*
X0061430Y0194693D03*
D437*
X0061390Y0190433D03*
X0061390Y0198953D03*
D438*
X0061390Y0194693D03*
D439*
X0061350Y0190433D03*
X0061350Y0198953D03*
D440*
X0061350Y0194693D03*
D441*
X0061310Y0190413D03*
D442*
X0061310Y0194693D03*
D443*
X0059830Y0194693D03*
X0059790Y0194693D03*
X0059750Y0194693D03*
X0059710Y0194693D03*
X0059630Y0194693D03*
X0061310Y0198973D03*
D444*
X0061270Y0198973D03*
X0059470Y0194693D03*
X0061270Y0190413D03*
D445*
X0061270Y0194693D03*
D446*
X0059390Y0194693D03*
X0059350Y0194693D03*
X0059310Y0194693D03*
X0059230Y0194693D03*
X0061230Y0190413D03*
D447*
X0061230Y0198993D03*
D448*
X0061190Y0198993D03*
X0061190Y0190393D03*
D449*
X0061150Y0190393D03*
X0061150Y0198993D03*
D450*
X0061110Y0199013D03*
X0061110Y0190373D03*
D451*
X0061070Y0190373D03*
X0061070Y0199013D03*
D452*
X0061070Y0194693D03*
D453*
X0061030Y0194693D03*
D454*
X0060990Y0194693D03*
D455*
X0060950Y0194693D03*
D456*
X0060910Y0194693D03*
D457*
X0060870Y0190313D03*
X0060870Y0199073D03*
D458*
X0060870Y0194693D03*
D459*
X0060830Y0194693D03*
X0060790Y0194693D03*
X0060750Y0194693D03*
X0060710Y0194693D03*
D460*
X0060670Y0194693D03*
D461*
X0060470Y0194693D03*
X0060270Y0194693D03*
D462*
X0060310Y0194693D03*
X0060350Y0194693D03*
X0060390Y0194693D03*
X0060430Y0194693D03*
D463*
X0060230Y0194693D03*
X0060190Y0194693D03*
X0060150Y0194693D03*
X0060110Y0194693D03*
D464*
X0060030Y0194693D03*
X0059990Y0194693D03*
X0059950Y0194693D03*
X0059910Y0194693D03*
D465*
X0059870Y0194693D03*
D466*
X0059670Y0194693D03*
D467*
X0059590Y0194693D03*
X0059550Y0194693D03*
X0059510Y0194693D03*
X0059430Y0194693D03*
D468*
X0059270Y0194693D03*
D469*
X0059070Y0194693D03*
D470*
X0058950Y0194693D03*
M02*
