G75*
%MOIN*%
%OFA0B0*%
%FSLAX25Y25*%
%IPPOS*%
%LPD*%
%AMOC8*
5,1,8,0,0,1.08239X$1,22.5*
%
%ADD10C,0.06600*%
%ADD11C,0.00000*%
%ADD12C,0.05543*%
%ADD13C,0.15811*%
%ADD14C,0.01600*%
%ADD15C,0.00600*%
%ADD16C,0.02400*%
D10*
X0051800Y0094006D03*
X0061800Y0094006D03*
X0071800Y0094006D03*
D11*
X0116800Y0119006D02*
X0116784Y0120345D01*
X0116735Y0121684D01*
X0116653Y0123021D01*
X0116539Y0124355D01*
X0116393Y0125687D01*
X0116214Y0127014D01*
X0116003Y0128337D01*
X0115759Y0129654D01*
X0115484Y0130965D01*
X0115177Y0132268D01*
X0114838Y0133564D01*
X0114468Y0134851D01*
X0114067Y0136129D01*
X0113634Y0137397D01*
X0113171Y0138654D01*
X0112677Y0139899D01*
X0112153Y0141132D01*
X0111600Y0142351D01*
X0111016Y0143557D01*
X0110404Y0144748D01*
X0109763Y0145924D01*
X0109093Y0147084D01*
X0108395Y0148227D01*
X0107670Y0149353D01*
X0106917Y0150461D01*
X0106138Y0151551D01*
X0105332Y0152621D01*
X0104501Y0153671D01*
X0103644Y0154700D01*
X0102762Y0155709D01*
X0101857Y0156695D01*
X0100927Y0157659D01*
X0099974Y0158601D01*
X0098999Y0159519D01*
X0098001Y0160412D01*
X0096982Y0161282D01*
X0095942Y0162126D01*
X0094882Y0162944D01*
X0093802Y0163737D01*
X0092704Y0164503D01*
X0091586Y0165242D01*
X0090452Y0165954D01*
X0089300Y0166637D01*
X0088132Y0167293D01*
X0086948Y0167920D01*
X0085750Y0168518D01*
X0084537Y0169086D01*
X0083311Y0169625D01*
X0082072Y0170134D01*
X0080821Y0170612D01*
X0079558Y0171060D01*
X0078286Y0171477D01*
X0077003Y0171863D01*
X0075711Y0172218D01*
X0074411Y0172541D01*
X0073104Y0172832D01*
X0071790Y0173091D01*
X0070470Y0173318D01*
X0069145Y0173513D01*
X0067815Y0173676D01*
X0066482Y0173806D01*
X0065147Y0173904D01*
X0063809Y0173969D01*
X0062470Y0174002D01*
X0061130Y0174002D01*
X0059791Y0173969D01*
X0058453Y0173904D01*
X0057118Y0173806D01*
X0055785Y0173676D01*
X0054455Y0173513D01*
X0053130Y0173318D01*
X0051810Y0173091D01*
X0050496Y0172832D01*
X0049189Y0172541D01*
X0047889Y0172218D01*
X0046597Y0171863D01*
X0045314Y0171477D01*
X0044042Y0171060D01*
X0042779Y0170612D01*
X0041528Y0170134D01*
X0040289Y0169625D01*
X0039063Y0169086D01*
X0037850Y0168518D01*
X0036652Y0167920D01*
X0035468Y0167293D01*
X0034300Y0166637D01*
X0033148Y0165954D01*
X0032014Y0165242D01*
X0030896Y0164503D01*
X0029798Y0163737D01*
X0028718Y0162944D01*
X0027658Y0162126D01*
X0026618Y0161282D01*
X0025599Y0160412D01*
X0024601Y0159519D01*
X0023626Y0158601D01*
X0022673Y0157659D01*
X0021743Y0156695D01*
X0020838Y0155709D01*
X0019956Y0154700D01*
X0019099Y0153671D01*
X0018268Y0152621D01*
X0017462Y0151551D01*
X0016683Y0150461D01*
X0015930Y0149353D01*
X0015205Y0148227D01*
X0014507Y0147084D01*
X0013837Y0145924D01*
X0013196Y0144748D01*
X0012584Y0143557D01*
X0012000Y0142351D01*
X0011447Y0141132D01*
X0010923Y0139899D01*
X0010429Y0138654D01*
X0009966Y0137397D01*
X0009533Y0136129D01*
X0009132Y0134851D01*
X0008762Y0133564D01*
X0008423Y0132268D01*
X0008116Y0130965D01*
X0007841Y0129654D01*
X0007597Y0128337D01*
X0007386Y0127014D01*
X0007207Y0125687D01*
X0007061Y0124355D01*
X0006947Y0123021D01*
X0006865Y0121684D01*
X0006816Y0120345D01*
X0006800Y0119006D01*
X0006800Y0034006D01*
X0006804Y0033644D01*
X0006818Y0033281D01*
X0006839Y0032919D01*
X0006870Y0032558D01*
X0006909Y0032198D01*
X0006957Y0031839D01*
X0007014Y0031481D01*
X0007079Y0031124D01*
X0007153Y0030769D01*
X0007236Y0030416D01*
X0007327Y0030065D01*
X0007426Y0029717D01*
X0007534Y0029371D01*
X0007650Y0029027D01*
X0007775Y0028687D01*
X0007907Y0028350D01*
X0008048Y0028016D01*
X0008197Y0027685D01*
X0008354Y0027358D01*
X0008518Y0027035D01*
X0008690Y0026716D01*
X0008870Y0026402D01*
X0009058Y0026091D01*
X0009253Y0025786D01*
X0009455Y0025485D01*
X0009665Y0025189D01*
X0009881Y0024899D01*
X0010105Y0024613D01*
X0010335Y0024333D01*
X0010572Y0024059D01*
X0010816Y0023791D01*
X0011066Y0023528D01*
X0011322Y0023272D01*
X0011585Y0023022D01*
X0011853Y0022778D01*
X0012127Y0022541D01*
X0012407Y0022311D01*
X0012693Y0022087D01*
X0012983Y0021871D01*
X0013279Y0021661D01*
X0013580Y0021459D01*
X0013885Y0021264D01*
X0014196Y0021076D01*
X0014510Y0020896D01*
X0014829Y0020724D01*
X0015152Y0020560D01*
X0015479Y0020403D01*
X0015810Y0020254D01*
X0016144Y0020113D01*
X0016481Y0019981D01*
X0016821Y0019856D01*
X0017165Y0019740D01*
X0017511Y0019632D01*
X0017859Y0019533D01*
X0018210Y0019442D01*
X0018563Y0019359D01*
X0018918Y0019285D01*
X0019275Y0019220D01*
X0019633Y0019163D01*
X0019992Y0019115D01*
X0020352Y0019076D01*
X0020713Y0019045D01*
X0021075Y0019024D01*
X0021438Y0019010D01*
X0021800Y0019006D01*
X0101800Y0019006D01*
X0102162Y0019010D01*
X0102525Y0019024D01*
X0102887Y0019045D01*
X0103248Y0019076D01*
X0103608Y0019115D01*
X0103967Y0019163D01*
X0104325Y0019220D01*
X0104682Y0019285D01*
X0105037Y0019359D01*
X0105390Y0019442D01*
X0105741Y0019533D01*
X0106089Y0019632D01*
X0106435Y0019740D01*
X0106779Y0019856D01*
X0107119Y0019981D01*
X0107456Y0020113D01*
X0107790Y0020254D01*
X0108121Y0020403D01*
X0108448Y0020560D01*
X0108771Y0020724D01*
X0109090Y0020896D01*
X0109404Y0021076D01*
X0109715Y0021264D01*
X0110020Y0021459D01*
X0110321Y0021661D01*
X0110617Y0021871D01*
X0110907Y0022087D01*
X0111193Y0022311D01*
X0111473Y0022541D01*
X0111747Y0022778D01*
X0112015Y0023022D01*
X0112278Y0023272D01*
X0112534Y0023528D01*
X0112784Y0023791D01*
X0113028Y0024059D01*
X0113265Y0024333D01*
X0113495Y0024613D01*
X0113719Y0024899D01*
X0113935Y0025189D01*
X0114145Y0025485D01*
X0114347Y0025786D01*
X0114542Y0026091D01*
X0114730Y0026402D01*
X0114910Y0026716D01*
X0115082Y0027035D01*
X0115246Y0027358D01*
X0115403Y0027685D01*
X0115552Y0028016D01*
X0115693Y0028350D01*
X0115825Y0028687D01*
X0115950Y0029027D01*
X0116066Y0029371D01*
X0116174Y0029717D01*
X0116273Y0030065D01*
X0116364Y0030416D01*
X0116447Y0030769D01*
X0116521Y0031124D01*
X0116586Y0031481D01*
X0116643Y0031839D01*
X0116691Y0032198D01*
X0116730Y0032558D01*
X0116761Y0032919D01*
X0116782Y0033281D01*
X0116796Y0033644D01*
X0116800Y0034006D01*
X0116800Y0119006D01*
D12*
X0076800Y0056778D02*
X0076800Y0051234D01*
X0066800Y0051234D02*
X0066800Y0056778D01*
X0056800Y0056778D02*
X0056800Y0051234D01*
X0046800Y0051234D02*
X0046800Y0056778D01*
D13*
X0021800Y0034006D03*
X0021800Y0119006D03*
X0101800Y0119006D03*
X0101800Y0034006D03*
D14*
X0013764Y0023534D02*
X0011328Y0025970D01*
X0009605Y0028954D01*
X0008713Y0032283D01*
X0008600Y0034006D01*
X0008600Y0119006D01*
X0008764Y0123180D01*
X0010070Y0131425D01*
X0012650Y0139365D01*
X0016440Y0146803D01*
X0021346Y0153557D01*
X0027249Y0159459D01*
X0034003Y0164366D01*
X0041441Y0168156D01*
X0049381Y0170736D01*
X0057626Y0172042D01*
X0065974Y0172042D01*
X0074219Y0170736D01*
X0082159Y0168156D01*
X0089597Y0164366D01*
X0096351Y0159459D01*
X0102254Y0153557D01*
X0107160Y0146803D01*
X0110950Y0139365D01*
X0113530Y0131425D01*
X0114836Y0123180D01*
X0115000Y0119006D01*
X0115000Y0034006D01*
X0114887Y0032283D01*
X0113995Y0028954D01*
X0112272Y0025970D01*
X0109836Y0023534D01*
X0106851Y0021811D01*
X0103523Y0020919D01*
X0101800Y0020806D01*
X0021800Y0020806D01*
X0020077Y0020919D01*
X0016749Y0021811D01*
X0013764Y0023534D01*
X0013497Y0023801D02*
X0110103Y0023801D01*
X0111702Y0025400D02*
X0106385Y0025400D01*
X0107298Y0025778D02*
X0110028Y0028508D01*
X0111505Y0032075D01*
X0111505Y0035936D01*
X0110028Y0039504D01*
X0107298Y0042234D01*
X0103731Y0043711D01*
X0099869Y0043711D01*
X0096302Y0042234D01*
X0093572Y0039504D01*
X0092094Y0035936D01*
X0092094Y0032075D01*
X0093572Y0028508D01*
X0096302Y0025778D01*
X0099869Y0024300D01*
X0103731Y0024300D01*
X0107298Y0025778D01*
X0108518Y0026998D02*
X0112866Y0026998D01*
X0113789Y0028597D02*
X0110065Y0028597D01*
X0110727Y0030195D02*
X0114328Y0030195D01*
X0114756Y0031794D02*
X0111389Y0031794D01*
X0111505Y0033393D02*
X0114960Y0033393D01*
X0115000Y0034991D02*
X0111505Y0034991D01*
X0111235Y0036590D02*
X0115000Y0036590D01*
X0115000Y0038188D02*
X0110573Y0038188D01*
X0109745Y0039787D02*
X0115000Y0039787D01*
X0115000Y0041385D02*
X0108146Y0041385D01*
X0105488Y0042984D02*
X0115000Y0042984D01*
X0115000Y0044582D02*
X0008600Y0044582D01*
X0008600Y0042984D02*
X0018112Y0042984D01*
X0019869Y0043711D02*
X0016302Y0042234D01*
X0013572Y0039504D01*
X0012094Y0035936D01*
X0012094Y0032075D01*
X0013572Y0028508D01*
X0016302Y0025778D01*
X0019869Y0024300D01*
X0023731Y0024300D01*
X0027298Y0025778D01*
X0030028Y0028508D01*
X0031505Y0032075D01*
X0031505Y0035936D01*
X0030028Y0039504D01*
X0027298Y0042234D01*
X0023731Y0043711D01*
X0019869Y0043711D01*
X0015453Y0041385D02*
X0008600Y0041385D01*
X0008600Y0039787D02*
X0013855Y0039787D01*
X0013027Y0038188D02*
X0008600Y0038188D01*
X0008600Y0036590D02*
X0012365Y0036590D01*
X0012094Y0034991D02*
X0008600Y0034991D01*
X0008640Y0033393D02*
X0012094Y0033393D01*
X0012211Y0031794D02*
X0008844Y0031794D01*
X0009272Y0030195D02*
X0012873Y0030195D01*
X0013535Y0028597D02*
X0009811Y0028597D01*
X0010734Y0026998D02*
X0015082Y0026998D01*
X0017215Y0025400D02*
X0011898Y0025400D01*
X0016069Y0022203D02*
X0107531Y0022203D01*
X0097215Y0025400D02*
X0026385Y0025400D01*
X0028518Y0026998D02*
X0095082Y0026998D01*
X0093535Y0028597D02*
X0030065Y0028597D01*
X0030727Y0030195D02*
X0092873Y0030195D01*
X0092211Y0031794D02*
X0031389Y0031794D01*
X0031505Y0033393D02*
X0092094Y0033393D01*
X0092094Y0034991D02*
X0031505Y0034991D01*
X0031235Y0036590D02*
X0092365Y0036590D01*
X0093027Y0038188D02*
X0030573Y0038188D01*
X0029745Y0039787D02*
X0093855Y0039787D01*
X0095453Y0041385D02*
X0028146Y0041385D01*
X0025488Y0042984D02*
X0098112Y0042984D01*
X0086870Y0062506D02*
X0094100Y0069736D01*
X0094100Y0080463D01*
X0094543Y0080907D01*
X0095000Y0082009D01*
X0095000Y0083203D01*
X0094543Y0084305D01*
X0093699Y0085149D01*
X0092597Y0085606D01*
X0091403Y0085606D01*
X0090301Y0085149D01*
X0089457Y0084305D01*
X0089000Y0083203D01*
X0089000Y0082009D01*
X0089457Y0080907D01*
X0089900Y0080463D01*
X0089900Y0071476D01*
X0085130Y0066706D01*
X0070730Y0066706D01*
X0069500Y0065476D01*
X0068576Y0064552D01*
X0068600Y0064609D01*
X0068600Y0065803D01*
X0068143Y0066905D01*
X0067299Y0067749D01*
X0066197Y0068206D01*
X0065003Y0068206D01*
X0063901Y0067749D01*
X0063457Y0067306D01*
X0055670Y0067306D01*
X0047600Y0075376D01*
X0047600Y0076003D01*
X0047143Y0077105D01*
X0046299Y0077949D01*
X0045197Y0078406D01*
X0044003Y0078406D01*
X0042901Y0077949D01*
X0042057Y0077105D01*
X0041600Y0076003D01*
X0041600Y0074809D01*
X0042057Y0073707D01*
X0042901Y0072863D01*
X0044003Y0072406D01*
X0044630Y0072406D01*
X0052700Y0064336D01*
X0053930Y0063106D01*
X0063457Y0063106D01*
X0063901Y0062663D01*
X0065003Y0062206D01*
X0066197Y0062206D01*
X0066254Y0062230D01*
X0065008Y0060984D01*
X0064210Y0060653D01*
X0062924Y0059367D01*
X0062228Y0057687D01*
X0062228Y0050325D01*
X0062924Y0048645D01*
X0064210Y0047359D01*
X0065891Y0046663D01*
X0067709Y0046663D01*
X0069390Y0047359D01*
X0070676Y0048645D01*
X0071372Y0050325D01*
X0071372Y0057687D01*
X0070676Y0059367D01*
X0070003Y0060039D01*
X0072470Y0062506D01*
X0086870Y0062506D01*
X0088128Y0063764D02*
X0115000Y0063764D01*
X0115000Y0062166D02*
X0072130Y0062166D01*
X0070531Y0060567D02*
X0074238Y0060567D01*
X0074404Y0060688D02*
X0073822Y0060265D01*
X0073313Y0059756D01*
X0072890Y0059174D01*
X0072563Y0058532D01*
X0072341Y0057848D01*
X0072228Y0057137D01*
X0072228Y0054092D01*
X0076714Y0054092D01*
X0076714Y0061349D01*
X0076440Y0061349D01*
X0075729Y0061237D01*
X0075045Y0061014D01*
X0074404Y0060688D01*
X0076714Y0060567D02*
X0076886Y0060567D01*
X0076886Y0061349D02*
X0076886Y0054092D01*
X0076714Y0054092D01*
X0076714Y0053920D01*
X0072228Y0053920D01*
X0072228Y0050874D01*
X0072341Y0050164D01*
X0072563Y0049479D01*
X0072890Y0048838D01*
X0073313Y0048256D01*
X0073822Y0047747D01*
X0074404Y0047324D01*
X0075045Y0046998D01*
X0075729Y0046775D01*
X0076440Y0046663D01*
X0076714Y0046663D01*
X0076714Y0053920D01*
X0076886Y0053920D01*
X0076886Y0054092D01*
X0081372Y0054092D01*
X0081372Y0057137D01*
X0081259Y0057848D01*
X0081037Y0058532D01*
X0080710Y0059174D01*
X0080287Y0059756D01*
X0079778Y0060265D01*
X0079196Y0060688D01*
X0078555Y0061014D01*
X0077871Y0061237D01*
X0077160Y0061349D01*
X0076886Y0061349D01*
X0076886Y0058969D02*
X0076714Y0058969D01*
X0076714Y0057370D02*
X0076886Y0057370D01*
X0076886Y0055772D02*
X0076714Y0055772D01*
X0076714Y0054173D02*
X0076886Y0054173D01*
X0076886Y0053920D02*
X0081372Y0053920D01*
X0081372Y0050874D01*
X0081259Y0050164D01*
X0081037Y0049479D01*
X0080710Y0048838D01*
X0080287Y0048256D01*
X0079778Y0047747D01*
X0079196Y0047324D01*
X0078555Y0046998D01*
X0077871Y0046775D01*
X0077160Y0046663D01*
X0076886Y0046663D01*
X0076886Y0053920D01*
X0076886Y0052575D02*
X0076714Y0052575D01*
X0076714Y0050976D02*
X0076886Y0050976D01*
X0076886Y0049378D02*
X0076714Y0049378D01*
X0076714Y0047779D02*
X0076886Y0047779D01*
X0079810Y0047779D02*
X0115000Y0047779D01*
X0115000Y0046181D02*
X0008600Y0046181D01*
X0008600Y0047779D02*
X0043790Y0047779D01*
X0044210Y0047359D02*
X0045891Y0046663D01*
X0047709Y0046663D01*
X0049390Y0047359D01*
X0050676Y0048645D01*
X0051372Y0050325D01*
X0051372Y0057687D01*
X0050676Y0059367D01*
X0049390Y0060653D01*
X0047709Y0061349D01*
X0045891Y0061349D01*
X0044210Y0060653D01*
X0042924Y0059367D01*
X0042228Y0057687D01*
X0042228Y0050325D01*
X0042924Y0048645D01*
X0044210Y0047359D01*
X0042621Y0049378D02*
X0008600Y0049378D01*
X0008600Y0050976D02*
X0042228Y0050976D01*
X0042228Y0052575D02*
X0008600Y0052575D01*
X0008600Y0054173D02*
X0042228Y0054173D01*
X0042228Y0055772D02*
X0008600Y0055772D01*
X0008600Y0057370D02*
X0042228Y0057370D01*
X0042759Y0058969D02*
X0008600Y0058969D01*
X0008600Y0060567D02*
X0044124Y0060567D01*
X0048476Y0068560D02*
X0008600Y0068560D01*
X0008600Y0070158D02*
X0046878Y0070158D01*
X0045279Y0071757D02*
X0008600Y0071757D01*
X0008600Y0073355D02*
X0042408Y0073355D01*
X0041600Y0074954D02*
X0008600Y0074954D01*
X0008600Y0076552D02*
X0041828Y0076552D01*
X0043387Y0078151D02*
X0008600Y0078151D01*
X0008600Y0079749D02*
X0089900Y0079749D01*
X0089900Y0078151D02*
X0045813Y0078151D01*
X0047372Y0076552D02*
X0089900Y0076552D01*
X0089900Y0074954D02*
X0048022Y0074954D01*
X0049620Y0073355D02*
X0089900Y0073355D01*
X0089900Y0071757D02*
X0051219Y0071757D01*
X0052817Y0070158D02*
X0088583Y0070158D01*
X0086984Y0068560D02*
X0054416Y0068560D01*
X0052700Y0064336D02*
X0052700Y0064336D01*
X0053272Y0063764D02*
X0008600Y0063764D01*
X0008600Y0062166D02*
X0066190Y0062166D01*
X0064124Y0060567D02*
X0059476Y0060567D01*
X0059390Y0060653D02*
X0057709Y0061349D01*
X0055891Y0061349D01*
X0054210Y0060653D01*
X0052924Y0059367D01*
X0052228Y0057687D01*
X0052228Y0050325D01*
X0052924Y0048645D01*
X0054210Y0047359D01*
X0055891Y0046663D01*
X0057709Y0046663D01*
X0059390Y0047359D01*
X0060676Y0048645D01*
X0061372Y0050325D01*
X0061372Y0057687D01*
X0060676Y0059367D01*
X0059390Y0060653D01*
X0060841Y0058969D02*
X0062759Y0058969D01*
X0062228Y0057370D02*
X0061372Y0057370D01*
X0061372Y0055772D02*
X0062228Y0055772D01*
X0062228Y0054173D02*
X0061372Y0054173D01*
X0061372Y0052575D02*
X0062228Y0052575D01*
X0062228Y0050976D02*
X0061372Y0050976D01*
X0060979Y0049378D02*
X0062621Y0049378D01*
X0063790Y0047779D02*
X0059810Y0047779D01*
X0053790Y0047779D02*
X0049810Y0047779D01*
X0050979Y0049378D02*
X0052621Y0049378D01*
X0052228Y0050976D02*
X0051372Y0050976D01*
X0051372Y0052575D02*
X0052228Y0052575D01*
X0052228Y0054173D02*
X0051372Y0054173D01*
X0051372Y0055772D02*
X0052228Y0055772D01*
X0052228Y0057370D02*
X0051372Y0057370D01*
X0050841Y0058969D02*
X0052759Y0058969D01*
X0054124Y0060567D02*
X0049476Y0060567D01*
X0051673Y0065363D02*
X0008600Y0065363D01*
X0008600Y0066961D02*
X0050075Y0066961D01*
X0051399Y0088906D02*
X0050606Y0089031D01*
X0049842Y0089280D01*
X0049127Y0089644D01*
X0048478Y0090116D01*
X0047910Y0090683D01*
X0047438Y0091333D01*
X0047074Y0092048D01*
X0046826Y0092812D01*
X0046700Y0093605D01*
X0046700Y0093920D01*
X0051714Y0093920D01*
X0051714Y0094092D01*
X0051714Y0099106D01*
X0051399Y0099106D01*
X0050606Y0098980D01*
X0049842Y0098732D01*
X0049127Y0098368D01*
X0048478Y0097896D01*
X0047910Y0097328D01*
X0047438Y0096679D01*
X0047074Y0095964D01*
X0046826Y0095200D01*
X0046700Y0094407D01*
X0046700Y0094092D01*
X0051714Y0094092D01*
X0051886Y0094092D01*
X0051886Y0099106D01*
X0052201Y0099106D01*
X0052994Y0098980D01*
X0053758Y0098732D01*
X0054473Y0098368D01*
X0055122Y0097896D01*
X0055690Y0097328D01*
X0056162Y0096679D01*
X0056526Y0095964D01*
X0056774Y0095200D01*
X0056774Y0095200D01*
X0057476Y0096895D01*
X0058911Y0098329D01*
X0060350Y0098925D01*
X0061130Y0099706D01*
X0080900Y0119476D01*
X0080900Y0129063D01*
X0080457Y0129507D01*
X0080000Y0130609D01*
X0080000Y0131803D01*
X0080457Y0132905D01*
X0081301Y0133749D01*
X0082403Y0134206D01*
X0083597Y0134206D01*
X0084699Y0133749D01*
X0085543Y0132905D01*
X0086000Y0131803D01*
X0086000Y0130609D01*
X0085543Y0129507D01*
X0085100Y0129063D01*
X0085100Y0117736D01*
X0065191Y0097827D01*
X0066124Y0096895D01*
X0066800Y0095262D01*
X0067476Y0096895D01*
X0068911Y0098329D01*
X0070786Y0099106D01*
X0072814Y0099106D01*
X0074689Y0098329D01*
X0076124Y0096895D01*
X0076900Y0095020D01*
X0076900Y0092991D01*
X0076124Y0091117D01*
X0074689Y0089682D01*
X0072814Y0088906D01*
X0070786Y0088906D01*
X0068911Y0089682D01*
X0067476Y0091117D01*
X0066800Y0092750D01*
X0066124Y0091117D01*
X0064689Y0089682D01*
X0062814Y0088906D01*
X0060786Y0088906D01*
X0058911Y0089682D01*
X0057476Y0091117D01*
X0056774Y0092812D01*
X0056774Y0092812D01*
X0056526Y0092048D01*
X0056162Y0091333D01*
X0055690Y0090683D01*
X0055122Y0090116D01*
X0054473Y0089644D01*
X0053758Y0089280D01*
X0052994Y0089031D01*
X0052201Y0088906D01*
X0051886Y0088906D01*
X0051886Y0093920D01*
X0051714Y0093920D01*
X0051714Y0088906D01*
X0051399Y0088906D01*
X0051714Y0089340D02*
X0051886Y0089340D01*
X0051886Y0090939D02*
X0051714Y0090939D01*
X0051714Y0092537D02*
X0051886Y0092537D01*
X0051886Y0094136D02*
X0051714Y0094136D01*
X0051714Y0095734D02*
X0051886Y0095734D01*
X0051886Y0097333D02*
X0051714Y0097333D01*
X0051714Y0098931D02*
X0051886Y0098931D01*
X0053145Y0098931D02*
X0060356Y0098931D01*
X0061954Y0100530D02*
X0008600Y0100530D01*
X0008600Y0102128D02*
X0063553Y0102128D01*
X0065151Y0103727D02*
X0008600Y0103727D01*
X0008600Y0105326D02*
X0066750Y0105326D01*
X0068348Y0106924D02*
X0008600Y0106924D01*
X0008600Y0108523D02*
X0069947Y0108523D01*
X0071545Y0110121D02*
X0025712Y0110121D01*
X0027298Y0110778D02*
X0023731Y0109300D01*
X0019869Y0109300D01*
X0016302Y0110778D01*
X0013572Y0113508D01*
X0012094Y0117075D01*
X0012094Y0120936D01*
X0013572Y0124504D01*
X0016302Y0127234D01*
X0019869Y0128711D01*
X0023731Y0128711D01*
X0027298Y0127234D01*
X0030028Y0124504D01*
X0031505Y0120936D01*
X0031505Y0117075D01*
X0030028Y0113508D01*
X0027298Y0110778D01*
X0028239Y0111720D02*
X0073144Y0111720D01*
X0074742Y0113318D02*
X0029838Y0113318D01*
X0030611Y0114917D02*
X0076341Y0114917D01*
X0077939Y0116515D02*
X0031273Y0116515D01*
X0031505Y0118114D02*
X0079538Y0118114D01*
X0080900Y0119712D02*
X0031505Y0119712D01*
X0031351Y0121311D02*
X0080900Y0121311D01*
X0080900Y0122909D02*
X0030688Y0122909D01*
X0030024Y0124508D02*
X0080900Y0124508D01*
X0080900Y0126106D02*
X0028425Y0126106D01*
X0026161Y0127705D02*
X0080900Y0127705D01*
X0080660Y0129303D02*
X0009734Y0129303D01*
X0009481Y0127705D02*
X0017439Y0127705D01*
X0015175Y0126106D02*
X0009227Y0126106D01*
X0008974Y0124508D02*
X0013576Y0124508D01*
X0012912Y0122909D02*
X0008753Y0122909D01*
X0008691Y0121311D02*
X0012249Y0121311D01*
X0012094Y0119712D02*
X0008628Y0119712D01*
X0008600Y0118114D02*
X0012094Y0118114D01*
X0012327Y0116515D02*
X0008600Y0116515D01*
X0008600Y0114917D02*
X0012989Y0114917D01*
X0013762Y0113318D02*
X0008600Y0113318D01*
X0008600Y0111720D02*
X0015361Y0111720D01*
X0017888Y0110121D02*
X0008600Y0110121D01*
X0008600Y0098931D02*
X0050455Y0098931D01*
X0047915Y0097333D02*
X0008600Y0097333D01*
X0008600Y0095734D02*
X0046999Y0095734D01*
X0046700Y0094136D02*
X0008600Y0094136D01*
X0008600Y0092537D02*
X0046915Y0092537D01*
X0047724Y0090939D02*
X0008600Y0090939D01*
X0008600Y0089340D02*
X0049723Y0089340D01*
X0053877Y0089340D02*
X0059737Y0089340D01*
X0057654Y0090939D02*
X0055876Y0090939D01*
X0056685Y0092537D02*
X0056888Y0092537D01*
X0056996Y0095734D02*
X0056601Y0095734D01*
X0055685Y0097333D02*
X0057915Y0097333D01*
X0063863Y0089340D02*
X0069737Y0089340D01*
X0067654Y0090939D02*
X0065945Y0090939D01*
X0066712Y0092537D02*
X0066888Y0092537D01*
X0066996Y0095734D02*
X0066604Y0095734D01*
X0065685Y0097333D02*
X0067915Y0097333D01*
X0066295Y0098931D02*
X0070364Y0098931D01*
X0067894Y0100530D02*
X0078833Y0100530D01*
X0078901Y0100463D02*
X0080003Y0100006D01*
X0080582Y0100006D01*
X0096200Y0083885D01*
X0096200Y0083209D01*
X0096657Y0082107D01*
X0097501Y0081263D01*
X0098603Y0080806D01*
X0099797Y0080806D01*
X0100899Y0081263D01*
X0101743Y0082107D01*
X0102200Y0083209D01*
X0102200Y0084403D01*
X0101743Y0085505D01*
X0100899Y0086349D01*
X0099797Y0086806D01*
X0099218Y0086806D01*
X0083600Y0102927D01*
X0083600Y0103603D01*
X0083143Y0104705D01*
X0082299Y0105549D01*
X0081197Y0106006D01*
X0080003Y0106006D01*
X0078901Y0105549D01*
X0078057Y0104705D01*
X0077600Y0103603D01*
X0077600Y0102409D01*
X0078057Y0101307D01*
X0078901Y0100463D01*
X0077716Y0102128D02*
X0069492Y0102128D01*
X0071091Y0103727D02*
X0077652Y0103727D01*
X0078677Y0105326D02*
X0072689Y0105326D01*
X0074288Y0106924D02*
X0115000Y0106924D01*
X0115000Y0105326D02*
X0082523Y0105326D01*
X0083548Y0103727D02*
X0115000Y0103727D01*
X0115000Y0102128D02*
X0084374Y0102128D01*
X0085922Y0100530D02*
X0115000Y0100530D01*
X0115000Y0098931D02*
X0087471Y0098931D01*
X0089019Y0097333D02*
X0115000Y0097333D01*
X0115000Y0095734D02*
X0090568Y0095734D01*
X0092117Y0094136D02*
X0115000Y0094136D01*
X0115000Y0092537D02*
X0093665Y0092537D01*
X0095214Y0090939D02*
X0115000Y0090939D01*
X0115000Y0089340D02*
X0096762Y0089340D01*
X0098311Y0087742D02*
X0115000Y0087742D01*
X0115000Y0086143D02*
X0101105Y0086143D01*
X0102141Y0084545D02*
X0115000Y0084545D01*
X0115000Y0082946D02*
X0102091Y0082946D01*
X0100985Y0081348D02*
X0115000Y0081348D01*
X0115000Y0079749D02*
X0094100Y0079749D01*
X0094100Y0078151D02*
X0115000Y0078151D01*
X0115000Y0076552D02*
X0094100Y0076552D01*
X0094100Y0074954D02*
X0115000Y0074954D01*
X0115000Y0073355D02*
X0094100Y0073355D01*
X0094100Y0071757D02*
X0115000Y0071757D01*
X0115000Y0070158D02*
X0094100Y0070158D01*
X0092924Y0068560D02*
X0115000Y0068560D01*
X0115000Y0066961D02*
X0091325Y0066961D01*
X0089727Y0065363D02*
X0115000Y0065363D01*
X0115000Y0060567D02*
X0079362Y0060567D01*
X0080814Y0058969D02*
X0115000Y0058969D01*
X0115000Y0057370D02*
X0081335Y0057370D01*
X0081372Y0055772D02*
X0115000Y0055772D01*
X0115000Y0054173D02*
X0081372Y0054173D01*
X0081372Y0052575D02*
X0115000Y0052575D01*
X0115000Y0050976D02*
X0081372Y0050976D01*
X0080985Y0049378D02*
X0115000Y0049378D01*
X0097415Y0081348D02*
X0094726Y0081348D01*
X0095000Y0082946D02*
X0096309Y0082946D01*
X0095560Y0084545D02*
X0094304Y0084545D01*
X0094012Y0086143D02*
X0008600Y0086143D01*
X0008600Y0084545D02*
X0089696Y0084545D01*
X0089000Y0082946D02*
X0008600Y0082946D01*
X0008600Y0081348D02*
X0089274Y0081348D01*
X0092463Y0087742D02*
X0008600Y0087742D01*
X0009987Y0130902D02*
X0080000Y0130902D01*
X0080289Y0132500D02*
X0010419Y0132500D01*
X0010939Y0134099D02*
X0082145Y0134099D01*
X0083855Y0134099D02*
X0112661Y0134099D01*
X0112142Y0135697D02*
X0011458Y0135697D01*
X0011977Y0137296D02*
X0111623Y0137296D01*
X0111103Y0138894D02*
X0012497Y0138894D01*
X0013224Y0140493D02*
X0110376Y0140493D01*
X0109561Y0142091D02*
X0014039Y0142091D01*
X0014853Y0143690D02*
X0108747Y0143690D01*
X0107932Y0145288D02*
X0015668Y0145288D01*
X0016501Y0146887D02*
X0107099Y0146887D01*
X0105938Y0148485D02*
X0017662Y0148485D01*
X0018823Y0150084D02*
X0104777Y0150084D01*
X0103615Y0151682D02*
X0019985Y0151682D01*
X0021146Y0153281D02*
X0102454Y0153281D01*
X0100931Y0154879D02*
X0022669Y0154879D01*
X0024268Y0156478D02*
X0099332Y0156478D01*
X0097734Y0158076D02*
X0025866Y0158076D01*
X0027546Y0159675D02*
X0096054Y0159675D01*
X0093854Y0161273D02*
X0029746Y0161273D01*
X0031946Y0162872D02*
X0091654Y0162872D01*
X0089393Y0164470D02*
X0034207Y0164470D01*
X0037345Y0166069D02*
X0086255Y0166069D01*
X0083118Y0167667D02*
X0040482Y0167667D01*
X0044856Y0169266D02*
X0078744Y0169266D01*
X0073408Y0170864D02*
X0050192Y0170864D01*
X0085100Y0127705D02*
X0097439Y0127705D01*
X0096302Y0127234D02*
X0093572Y0124504D01*
X0092094Y0120936D01*
X0092094Y0117075D01*
X0093572Y0113508D01*
X0096302Y0110778D01*
X0099869Y0109300D01*
X0103731Y0109300D01*
X0107298Y0110778D01*
X0110028Y0113508D01*
X0111505Y0117075D01*
X0111505Y0120936D01*
X0110028Y0124504D01*
X0107298Y0127234D01*
X0103731Y0128711D01*
X0099869Y0128711D01*
X0096302Y0127234D01*
X0095175Y0126106D02*
X0085100Y0126106D01*
X0085100Y0124508D02*
X0093576Y0124508D01*
X0092912Y0122909D02*
X0085100Y0122909D01*
X0085100Y0121311D02*
X0092249Y0121311D01*
X0092094Y0119712D02*
X0085100Y0119712D01*
X0085100Y0118114D02*
X0092094Y0118114D01*
X0092327Y0116515D02*
X0083879Y0116515D01*
X0082281Y0114917D02*
X0092989Y0114917D01*
X0093762Y0113318D02*
X0080682Y0113318D01*
X0079084Y0111720D02*
X0095361Y0111720D01*
X0097888Y0110121D02*
X0077485Y0110121D01*
X0075886Y0108523D02*
X0115000Y0108523D01*
X0115000Y0110121D02*
X0105712Y0110121D01*
X0108239Y0111720D02*
X0115000Y0111720D01*
X0115000Y0113318D02*
X0109838Y0113318D01*
X0110611Y0114917D02*
X0115000Y0114917D01*
X0115000Y0116515D02*
X0111273Y0116515D01*
X0111505Y0118114D02*
X0115000Y0118114D01*
X0114972Y0119712D02*
X0111505Y0119712D01*
X0111351Y0121311D02*
X0114909Y0121311D01*
X0114847Y0122909D02*
X0110688Y0122909D01*
X0110024Y0124508D02*
X0114626Y0124508D01*
X0114373Y0126106D02*
X0108425Y0126106D01*
X0106161Y0127705D02*
X0114119Y0127705D01*
X0113866Y0129303D02*
X0085340Y0129303D01*
X0086000Y0130902D02*
X0113613Y0130902D01*
X0113181Y0132500D02*
X0085711Y0132500D01*
X0081623Y0098931D02*
X0073236Y0098931D01*
X0075685Y0097333D02*
X0083172Y0097333D01*
X0084720Y0095734D02*
X0076604Y0095734D01*
X0076900Y0094136D02*
X0086269Y0094136D01*
X0087818Y0092537D02*
X0076712Y0092537D01*
X0075945Y0090939D02*
X0089366Y0090939D01*
X0090915Y0089340D02*
X0073863Y0089340D01*
X0068087Y0066961D02*
X0085385Y0066961D01*
X0072786Y0058969D02*
X0070841Y0058969D01*
X0071372Y0057370D02*
X0072265Y0057370D01*
X0072228Y0055772D02*
X0071372Y0055772D01*
X0071372Y0054173D02*
X0072228Y0054173D01*
X0072228Y0052575D02*
X0071372Y0052575D01*
X0071372Y0050976D02*
X0072228Y0050976D01*
X0072615Y0049378D02*
X0070979Y0049378D01*
X0069810Y0047779D02*
X0073790Y0047779D01*
X0069387Y0065363D02*
X0068600Y0065363D01*
D15*
X0065600Y0065206D02*
X0054800Y0065206D01*
X0044600Y0075406D01*
X0061800Y0094006D02*
X0062000Y0094006D01*
X0062000Y0097606D01*
X0083000Y0118606D01*
X0083000Y0131206D01*
X0080600Y0103006D02*
X0099200Y0083806D01*
X0092000Y0082606D02*
X0092000Y0070606D01*
X0086000Y0064606D01*
X0071600Y0064606D01*
X0066800Y0059806D01*
X0066800Y0054006D01*
D16*
X0065600Y0065206D03*
X0044600Y0075406D03*
X0080600Y0103006D03*
X0092000Y0082606D03*
X0099200Y0083806D03*
X0083000Y0131206D03*
M02*
