G75*
%MOIN*%
%OFA0B0*%
%FSLAX25Y25*%
%IPPOS*%
%LPD*%
%AMOC8*
5,1,8,0,0,1.08239X$1,22.5*
%
%ADD10C,0.00000*%
%ADD11C,0.05543*%
%ADD12C,0.15811*%
%ADD13C,0.01000*%
%ADD14C,0.04000*%
%ADD15C,0.01600*%
D10*
X0003800Y0017800D02*
X0003800Y0117800D01*
X0003818Y0119261D01*
X0003871Y0120721D01*
X0003960Y0122180D01*
X0004084Y0123636D01*
X0004244Y0125088D01*
X0004439Y0126536D01*
X0004670Y0127979D01*
X0004935Y0129416D01*
X0005235Y0130846D01*
X0005570Y0132268D01*
X0005940Y0133682D01*
X0006344Y0135086D01*
X0006782Y0136480D01*
X0007254Y0137863D01*
X0007759Y0139234D01*
X0008298Y0140592D01*
X0008869Y0141937D01*
X0009473Y0143267D01*
X0010109Y0144583D01*
X0010777Y0145882D01*
X0011477Y0147165D01*
X0012208Y0148430D01*
X0012969Y0149678D01*
X0013760Y0150906D01*
X0014581Y0152115D01*
X0015431Y0153303D01*
X0016310Y0154470D01*
X0017217Y0155616D01*
X0018152Y0156739D01*
X0019114Y0157839D01*
X0020102Y0158915D01*
X0021116Y0159967D01*
X0022156Y0160994D01*
X0023220Y0161995D01*
X0024308Y0162971D01*
X0025420Y0163919D01*
X0026554Y0164840D01*
X0027711Y0165733D01*
X0028888Y0166597D01*
X0030087Y0167433D01*
X0031306Y0168239D01*
X0032544Y0169016D01*
X0033800Y0169762D01*
X0035074Y0170477D01*
X0036365Y0171161D01*
X0037673Y0171813D01*
X0038996Y0172433D01*
X0040334Y0173021D01*
X0041685Y0173576D01*
X0043050Y0174098D01*
X0044427Y0174586D01*
X0045816Y0175041D01*
X0047215Y0175462D01*
X0048624Y0175849D01*
X0050042Y0176201D01*
X0051468Y0176519D01*
X0052902Y0176802D01*
X0054342Y0177050D01*
X0055787Y0177263D01*
X0057238Y0177440D01*
X0058692Y0177582D01*
X0060149Y0177689D01*
X0061609Y0177760D01*
X0063069Y0177796D01*
X0064531Y0177796D01*
X0065991Y0177760D01*
X0067451Y0177689D01*
X0068908Y0177582D01*
X0070362Y0177440D01*
X0071813Y0177263D01*
X0073258Y0177050D01*
X0074698Y0176802D01*
X0076132Y0176519D01*
X0077558Y0176201D01*
X0078976Y0175849D01*
X0080385Y0175462D01*
X0081784Y0175041D01*
X0083173Y0174586D01*
X0084550Y0174098D01*
X0085915Y0173576D01*
X0087266Y0173021D01*
X0088604Y0172433D01*
X0089927Y0171813D01*
X0091235Y0171161D01*
X0092526Y0170477D01*
X0093800Y0169762D01*
X0095056Y0169016D01*
X0096294Y0168239D01*
X0097513Y0167433D01*
X0098712Y0166597D01*
X0099889Y0165733D01*
X0101046Y0164840D01*
X0102180Y0163919D01*
X0103292Y0162971D01*
X0104380Y0161995D01*
X0105444Y0160994D01*
X0106484Y0159967D01*
X0107498Y0158915D01*
X0108486Y0157839D01*
X0109448Y0156739D01*
X0110383Y0155616D01*
X0111290Y0154470D01*
X0112169Y0153303D01*
X0113019Y0152115D01*
X0113840Y0150906D01*
X0114631Y0149678D01*
X0115392Y0148430D01*
X0116123Y0147165D01*
X0116823Y0145882D01*
X0117491Y0144583D01*
X0118127Y0143267D01*
X0118731Y0141937D01*
X0119302Y0140592D01*
X0119841Y0139234D01*
X0120346Y0137863D01*
X0120818Y0136480D01*
X0121256Y0135086D01*
X0121660Y0133682D01*
X0122030Y0132268D01*
X0122365Y0130846D01*
X0122665Y0129416D01*
X0122930Y0127979D01*
X0123161Y0126536D01*
X0123356Y0125088D01*
X0123516Y0123636D01*
X0123640Y0122180D01*
X0123729Y0120721D01*
X0123782Y0119261D01*
X0123800Y0117800D01*
X0123800Y0017800D01*
X0123796Y0017438D01*
X0123782Y0017075D01*
X0123761Y0016713D01*
X0123730Y0016352D01*
X0123691Y0015992D01*
X0123643Y0015633D01*
X0123586Y0015275D01*
X0123521Y0014918D01*
X0123447Y0014563D01*
X0123364Y0014210D01*
X0123273Y0013859D01*
X0123174Y0013511D01*
X0123066Y0013165D01*
X0122950Y0012821D01*
X0122825Y0012481D01*
X0122693Y0012144D01*
X0122552Y0011810D01*
X0122403Y0011479D01*
X0122246Y0011152D01*
X0122082Y0010829D01*
X0121910Y0010510D01*
X0121730Y0010196D01*
X0121542Y0009885D01*
X0121347Y0009580D01*
X0121145Y0009279D01*
X0120935Y0008983D01*
X0120719Y0008693D01*
X0120495Y0008407D01*
X0120265Y0008127D01*
X0120028Y0007853D01*
X0119784Y0007585D01*
X0119534Y0007322D01*
X0119278Y0007066D01*
X0119015Y0006816D01*
X0118747Y0006572D01*
X0118473Y0006335D01*
X0118193Y0006105D01*
X0117907Y0005881D01*
X0117617Y0005665D01*
X0117321Y0005455D01*
X0117020Y0005253D01*
X0116715Y0005058D01*
X0116404Y0004870D01*
X0116090Y0004690D01*
X0115771Y0004518D01*
X0115448Y0004354D01*
X0115121Y0004197D01*
X0114790Y0004048D01*
X0114456Y0003907D01*
X0114119Y0003775D01*
X0113779Y0003650D01*
X0113435Y0003534D01*
X0113089Y0003426D01*
X0112741Y0003327D01*
X0112390Y0003236D01*
X0112037Y0003153D01*
X0111682Y0003079D01*
X0111325Y0003014D01*
X0110967Y0002957D01*
X0110608Y0002909D01*
X0110248Y0002870D01*
X0109887Y0002839D01*
X0109525Y0002818D01*
X0109162Y0002804D01*
X0108800Y0002800D01*
X0018800Y0002800D01*
X0018438Y0002804D01*
X0018075Y0002818D01*
X0017713Y0002839D01*
X0017352Y0002870D01*
X0016992Y0002909D01*
X0016633Y0002957D01*
X0016275Y0003014D01*
X0015918Y0003079D01*
X0015563Y0003153D01*
X0015210Y0003236D01*
X0014859Y0003327D01*
X0014511Y0003426D01*
X0014165Y0003534D01*
X0013821Y0003650D01*
X0013481Y0003775D01*
X0013144Y0003907D01*
X0012810Y0004048D01*
X0012479Y0004197D01*
X0012152Y0004354D01*
X0011829Y0004518D01*
X0011510Y0004690D01*
X0011196Y0004870D01*
X0010885Y0005058D01*
X0010580Y0005253D01*
X0010279Y0005455D01*
X0009983Y0005665D01*
X0009693Y0005881D01*
X0009407Y0006105D01*
X0009127Y0006335D01*
X0008853Y0006572D01*
X0008585Y0006816D01*
X0008322Y0007066D01*
X0008066Y0007322D01*
X0007816Y0007585D01*
X0007572Y0007853D01*
X0007335Y0008127D01*
X0007105Y0008407D01*
X0006881Y0008693D01*
X0006665Y0008983D01*
X0006455Y0009279D01*
X0006253Y0009580D01*
X0006058Y0009885D01*
X0005870Y0010196D01*
X0005690Y0010510D01*
X0005518Y0010829D01*
X0005354Y0011152D01*
X0005197Y0011479D01*
X0005048Y0011810D01*
X0004907Y0012144D01*
X0004775Y0012481D01*
X0004650Y0012821D01*
X0004534Y0013165D01*
X0004426Y0013511D01*
X0004327Y0013859D01*
X0004236Y0014210D01*
X0004153Y0014563D01*
X0004079Y0014918D01*
X0004014Y0015275D01*
X0003957Y0015633D01*
X0003909Y0015992D01*
X0003870Y0016352D01*
X0003839Y0016713D01*
X0003818Y0017075D01*
X0003804Y0017438D01*
X0003800Y0017800D01*
D11*
X0048800Y0030028D02*
X0048800Y0035572D01*
X0058800Y0035572D02*
X0058800Y0030028D01*
X0068800Y0030028D02*
X0068800Y0035572D01*
X0078800Y0035572D02*
X0078800Y0030028D01*
D12*
X0108800Y0017800D03*
X0108800Y0107800D03*
X0018800Y0107800D03*
X0018800Y0017800D03*
D13*
X0059887Y0067745D02*
X0052997Y0074635D01*
X0059887Y0067745D02*
X0059887Y0033296D01*
X0058902Y0033296D01*
X0058800Y0032800D01*
D14*
X0052997Y0074635D03*
X0064808Y0143532D03*
D15*
X0009376Y0013897D02*
X0010708Y0011591D01*
X0012591Y0009708D01*
X0014897Y0008376D01*
X0017469Y0007687D01*
X0018800Y0007600D01*
X0108800Y0007600D01*
X0110131Y0007687D01*
X0112703Y0008376D01*
X0115009Y0009708D01*
X0116892Y0011591D01*
X0118224Y0013897D01*
X0118913Y0016469D01*
X0119000Y0017800D01*
X0119000Y0117800D01*
X0118846Y0121925D01*
X0117616Y0130083D01*
X0115184Y0137967D01*
X0111605Y0145400D01*
X0111605Y0145400D01*
X0106957Y0152217D01*
X0106957Y0152217D01*
X0101346Y0158264D01*
X0094895Y0163408D01*
X0087750Y0167533D01*
X0080070Y0170548D01*
X0072027Y0172383D01*
X0063800Y0173000D01*
X0055573Y0172383D01*
X0047530Y0170548D01*
X0039850Y0167533D01*
X0032705Y0163408D01*
X0026254Y0158264D01*
X0020643Y0152217D01*
X0015995Y0145400D01*
X0012416Y0137967D01*
X0009984Y0130083D01*
X0008754Y0121925D01*
X0008600Y0117800D01*
X0008600Y0017800D01*
X0008687Y0016469D01*
X0009376Y0013897D01*
X0009191Y0014588D02*
X0010058Y0014588D01*
X0009494Y0015949D02*
X0010911Y0012529D01*
X0013529Y0009911D01*
X0016949Y0008494D01*
X0020651Y0008494D01*
X0024071Y0009911D01*
X0026689Y0012529D01*
X0028105Y0015949D01*
X0028105Y0019651D01*
X0026689Y0023071D01*
X0024071Y0025689D01*
X0020651Y0027105D01*
X0016949Y0027105D01*
X0013529Y0025689D01*
X0010911Y0023071D01*
X0009494Y0019651D01*
X0009494Y0015949D01*
X0009494Y0016187D02*
X0008763Y0016187D01*
X0008601Y0017785D02*
X0009494Y0017785D01*
X0009494Y0019384D02*
X0008600Y0019384D01*
X0008600Y0020982D02*
X0010046Y0020982D01*
X0010708Y0022581D02*
X0008600Y0022581D01*
X0008600Y0024179D02*
X0012019Y0024179D01*
X0013743Y0025778D02*
X0008600Y0025778D01*
X0008600Y0027376D02*
X0045553Y0027376D01*
X0045263Y0027665D02*
X0044628Y0029199D01*
X0044628Y0036401D01*
X0045263Y0037935D01*
X0046437Y0039108D01*
X0047970Y0039743D01*
X0049630Y0039743D01*
X0051163Y0039108D01*
X0052337Y0037935D01*
X0052972Y0036401D01*
X0052972Y0029199D01*
X0052337Y0027665D01*
X0051163Y0026492D01*
X0049630Y0025857D01*
X0047970Y0025857D01*
X0046437Y0026492D01*
X0045263Y0027665D01*
X0044721Y0028975D02*
X0008600Y0028975D01*
X0008600Y0030573D02*
X0044628Y0030573D01*
X0044628Y0032172D02*
X0008600Y0032172D01*
X0008600Y0033770D02*
X0044628Y0033770D01*
X0044628Y0035369D02*
X0008600Y0035369D01*
X0008600Y0036967D02*
X0044863Y0036967D01*
X0045895Y0038566D02*
X0008600Y0038566D01*
X0008600Y0040164D02*
X0057987Y0040164D01*
X0057987Y0039743D02*
X0057970Y0039743D01*
X0056437Y0039108D01*
X0055263Y0037935D01*
X0054628Y0036401D01*
X0054628Y0029199D01*
X0055263Y0027665D01*
X0056437Y0026492D01*
X0057970Y0025857D01*
X0059630Y0025857D01*
X0061163Y0026492D01*
X0062337Y0027665D01*
X0062972Y0029199D01*
X0062972Y0036401D01*
X0062337Y0037935D01*
X0061787Y0038485D01*
X0061787Y0068532D01*
X0060674Y0069645D01*
X0056386Y0073932D01*
X0056397Y0073958D01*
X0056397Y0075311D01*
X0055879Y0076561D01*
X0054923Y0077517D01*
X0053673Y0078035D01*
X0052321Y0078035D01*
X0051071Y0077517D01*
X0050114Y0076561D01*
X0049597Y0075311D01*
X0049597Y0073958D01*
X0050114Y0072709D01*
X0051071Y0071752D01*
X0052321Y0071235D01*
X0053673Y0071235D01*
X0053699Y0071245D01*
X0057987Y0066958D01*
X0057987Y0039743D01*
X0057987Y0041763D02*
X0008600Y0041763D01*
X0008600Y0043361D02*
X0057987Y0043361D01*
X0057987Y0044960D02*
X0008600Y0044960D01*
X0008600Y0046558D02*
X0057987Y0046558D01*
X0057987Y0048157D02*
X0008600Y0048157D01*
X0008600Y0049755D02*
X0057987Y0049755D01*
X0057987Y0051354D02*
X0008600Y0051354D01*
X0008600Y0052952D02*
X0057987Y0052952D01*
X0057987Y0054551D02*
X0008600Y0054551D01*
X0008600Y0056149D02*
X0057987Y0056149D01*
X0057987Y0057748D02*
X0008600Y0057748D01*
X0008600Y0059346D02*
X0057987Y0059346D01*
X0057987Y0060945D02*
X0008600Y0060945D01*
X0008600Y0062543D02*
X0057987Y0062543D01*
X0057987Y0064142D02*
X0008600Y0064142D01*
X0008600Y0065740D02*
X0057987Y0065740D01*
X0057606Y0067339D02*
X0008600Y0067339D01*
X0008600Y0068937D02*
X0056007Y0068937D01*
X0054409Y0070536D02*
X0008600Y0070536D01*
X0008600Y0072134D02*
X0050689Y0072134D01*
X0049690Y0073733D02*
X0008600Y0073733D01*
X0008600Y0075332D02*
X0049605Y0075332D01*
X0050484Y0076930D02*
X0008600Y0076930D01*
X0008600Y0078529D02*
X0119000Y0078529D01*
X0119000Y0080127D02*
X0008600Y0080127D01*
X0008600Y0081726D02*
X0119000Y0081726D01*
X0119000Y0083324D02*
X0008600Y0083324D01*
X0008600Y0084923D02*
X0119000Y0084923D01*
X0119000Y0086521D02*
X0008600Y0086521D01*
X0008600Y0088120D02*
X0119000Y0088120D01*
X0119000Y0089718D02*
X0008600Y0089718D01*
X0008600Y0091317D02*
X0119000Y0091317D01*
X0119000Y0092915D02*
X0008600Y0092915D01*
X0008600Y0094514D02*
X0119000Y0094514D01*
X0119000Y0096112D02*
X0008600Y0096112D01*
X0008600Y0097711D02*
X0119000Y0097711D01*
X0119000Y0099309D02*
X0112618Y0099309D01*
X0114071Y0099911D02*
X0116689Y0102529D01*
X0118105Y0105949D01*
X0118105Y0109651D01*
X0116689Y0113071D01*
X0114071Y0115689D01*
X0110651Y0117105D01*
X0106949Y0117105D01*
X0103529Y0115689D01*
X0100911Y0113071D01*
X0099494Y0109651D01*
X0099494Y0105949D01*
X0100911Y0102529D01*
X0103529Y0099911D01*
X0106949Y0098494D01*
X0110651Y0098494D01*
X0114071Y0099911D01*
X0115068Y0100908D02*
X0119000Y0100908D01*
X0119000Y0102506D02*
X0116666Y0102506D01*
X0117342Y0104105D02*
X0119000Y0104105D01*
X0119000Y0105703D02*
X0118004Y0105703D01*
X0118105Y0107302D02*
X0119000Y0107302D01*
X0119000Y0108900D02*
X0118105Y0108900D01*
X0117754Y0110499D02*
X0119000Y0110499D01*
X0119000Y0112097D02*
X0117092Y0112097D01*
X0116064Y0113696D02*
X0119000Y0113696D01*
X0119000Y0115294D02*
X0114466Y0115294D01*
X0111164Y0116893D02*
X0119000Y0116893D01*
X0118974Y0118491D02*
X0008626Y0118491D01*
X0008600Y0116893D02*
X0016436Y0116893D01*
X0016949Y0117105D02*
X0013529Y0115689D01*
X0010911Y0113071D01*
X0009494Y0109651D01*
X0009494Y0105949D01*
X0010911Y0102529D01*
X0013529Y0099911D01*
X0016949Y0098494D01*
X0020651Y0098494D01*
X0024071Y0099911D01*
X0026689Y0102529D01*
X0028105Y0105949D01*
X0028105Y0109651D01*
X0026689Y0113071D01*
X0024071Y0115689D01*
X0020651Y0117105D01*
X0016949Y0117105D01*
X0021164Y0116893D02*
X0106436Y0116893D01*
X0103134Y0115294D02*
X0024466Y0115294D01*
X0026064Y0113696D02*
X0101536Y0113696D01*
X0100508Y0112097D02*
X0027092Y0112097D01*
X0027754Y0110499D02*
X0099846Y0110499D01*
X0099494Y0108900D02*
X0028105Y0108900D01*
X0028105Y0107302D02*
X0099494Y0107302D01*
X0099596Y0105703D02*
X0028004Y0105703D01*
X0027342Y0104105D02*
X0100258Y0104105D01*
X0100934Y0102506D02*
X0026666Y0102506D01*
X0025068Y0100908D02*
X0102532Y0100908D01*
X0104982Y0099309D02*
X0022618Y0099309D01*
X0014982Y0099309D02*
X0008600Y0099309D01*
X0008600Y0100908D02*
X0012532Y0100908D01*
X0010934Y0102506D02*
X0008600Y0102506D01*
X0008600Y0104105D02*
X0010258Y0104105D01*
X0009596Y0105703D02*
X0008600Y0105703D01*
X0008600Y0107302D02*
X0009494Y0107302D01*
X0009494Y0108900D02*
X0008600Y0108900D01*
X0008600Y0110499D02*
X0009846Y0110499D01*
X0010508Y0112097D02*
X0008600Y0112097D01*
X0008600Y0113696D02*
X0011536Y0113696D01*
X0013134Y0115294D02*
X0008600Y0115294D01*
X0008686Y0120090D02*
X0118914Y0120090D01*
X0118855Y0121688D02*
X0008745Y0121688D01*
X0008960Y0123287D02*
X0118640Y0123287D01*
X0118399Y0124885D02*
X0009201Y0124885D01*
X0009441Y0126484D02*
X0118159Y0126484D01*
X0117918Y0128082D02*
X0009682Y0128082D01*
X0009923Y0129681D02*
X0117677Y0129681D01*
X0117247Y0131279D02*
X0010353Y0131279D01*
X0010846Y0132878D02*
X0116754Y0132878D01*
X0116261Y0134476D02*
X0011339Y0134476D01*
X0011832Y0136075D02*
X0115768Y0136075D01*
X0115275Y0137673D02*
X0012325Y0137673D01*
X0013044Y0139272D02*
X0114556Y0139272D01*
X0113786Y0140870D02*
X0013814Y0140870D01*
X0014584Y0142469D02*
X0113016Y0142469D01*
X0112246Y0144068D02*
X0015354Y0144068D01*
X0016177Y0145666D02*
X0111423Y0145666D01*
X0110333Y0147265D02*
X0017267Y0147265D01*
X0018356Y0148863D02*
X0109244Y0148863D01*
X0108154Y0150462D02*
X0019446Y0150462D01*
X0020536Y0152060D02*
X0107064Y0152060D01*
X0105619Y0153659D02*
X0021981Y0153659D01*
X0023464Y0155257D02*
X0104136Y0155257D01*
X0102653Y0156856D02*
X0024947Y0156856D01*
X0026492Y0158454D02*
X0101108Y0158454D01*
X0099103Y0160053D02*
X0028497Y0160053D01*
X0030501Y0161651D02*
X0097099Y0161651D01*
X0095094Y0163250D02*
X0032506Y0163250D01*
X0035198Y0164848D02*
X0092402Y0164848D01*
X0089633Y0166447D02*
X0037967Y0166447D01*
X0041153Y0168045D02*
X0086447Y0168045D01*
X0082374Y0169644D02*
X0045226Y0169644D01*
X0050573Y0171242D02*
X0077027Y0171242D01*
X0065926Y0172841D02*
X0061674Y0172841D01*
X0055510Y0076930D02*
X0119000Y0076930D01*
X0119000Y0075332D02*
X0056388Y0075332D01*
X0056585Y0073733D02*
X0119000Y0073733D01*
X0119000Y0072134D02*
X0058184Y0072134D01*
X0059782Y0070536D02*
X0119000Y0070536D01*
X0119000Y0068937D02*
X0061381Y0068937D01*
X0061787Y0067339D02*
X0119000Y0067339D01*
X0119000Y0065740D02*
X0061787Y0065740D01*
X0061787Y0064142D02*
X0119000Y0064142D01*
X0119000Y0062543D02*
X0061787Y0062543D01*
X0061787Y0060945D02*
X0119000Y0060945D01*
X0119000Y0059346D02*
X0061787Y0059346D01*
X0061787Y0057748D02*
X0119000Y0057748D01*
X0119000Y0056149D02*
X0061787Y0056149D01*
X0061787Y0054551D02*
X0119000Y0054551D01*
X0119000Y0052952D02*
X0061787Y0052952D01*
X0061787Y0051354D02*
X0119000Y0051354D01*
X0119000Y0049755D02*
X0061787Y0049755D01*
X0061787Y0048157D02*
X0119000Y0048157D01*
X0119000Y0046558D02*
X0061787Y0046558D01*
X0061787Y0044960D02*
X0119000Y0044960D01*
X0119000Y0043361D02*
X0061787Y0043361D01*
X0061787Y0041763D02*
X0119000Y0041763D01*
X0119000Y0040164D02*
X0061787Y0040164D01*
X0061787Y0038566D02*
X0065895Y0038566D01*
X0066437Y0039108D02*
X0065263Y0037935D01*
X0064628Y0036401D01*
X0064628Y0029199D01*
X0065263Y0027665D01*
X0066437Y0026492D01*
X0067970Y0025857D01*
X0069630Y0025857D01*
X0071163Y0026492D01*
X0072337Y0027665D01*
X0072972Y0029199D01*
X0072972Y0036401D01*
X0072337Y0037935D01*
X0071163Y0039108D01*
X0069630Y0039743D01*
X0067970Y0039743D01*
X0066437Y0039108D01*
X0064863Y0036967D02*
X0062737Y0036967D01*
X0062972Y0035369D02*
X0064628Y0035369D01*
X0064628Y0033770D02*
X0062972Y0033770D01*
X0062972Y0032172D02*
X0064628Y0032172D01*
X0064628Y0030573D02*
X0062972Y0030573D01*
X0062879Y0028975D02*
X0064721Y0028975D01*
X0065553Y0027376D02*
X0062047Y0027376D01*
X0055553Y0027376D02*
X0052047Y0027376D01*
X0052879Y0028975D02*
X0054721Y0028975D01*
X0054628Y0030573D02*
X0052972Y0030573D01*
X0052972Y0032172D02*
X0054628Y0032172D01*
X0054628Y0033770D02*
X0052972Y0033770D01*
X0052972Y0035369D02*
X0054628Y0035369D01*
X0054863Y0036967D02*
X0052737Y0036967D01*
X0051705Y0038566D02*
X0055895Y0038566D01*
X0071705Y0038566D02*
X0075329Y0038566D01*
X0075313Y0038550D02*
X0074890Y0037968D01*
X0074563Y0037327D01*
X0074341Y0036642D01*
X0074228Y0035931D01*
X0074228Y0032886D01*
X0078714Y0032886D01*
X0078714Y0040143D01*
X0078440Y0040143D01*
X0077729Y0040031D01*
X0077045Y0039808D01*
X0076404Y0039482D01*
X0075822Y0039059D01*
X0075313Y0038550D01*
X0074447Y0036967D02*
X0072737Y0036967D01*
X0072972Y0035369D02*
X0074228Y0035369D01*
X0074228Y0033770D02*
X0072972Y0033770D01*
X0072972Y0032172D02*
X0074228Y0032172D01*
X0074228Y0032714D02*
X0074228Y0029669D01*
X0074341Y0028958D01*
X0074563Y0028273D01*
X0074890Y0027632D01*
X0075313Y0027050D01*
X0075822Y0026541D01*
X0076404Y0026118D01*
X0077045Y0025792D01*
X0077729Y0025569D01*
X0078440Y0025457D01*
X0078714Y0025457D01*
X0078714Y0032714D01*
X0078886Y0032714D01*
X0078886Y0032886D01*
X0083372Y0032886D01*
X0083372Y0035931D01*
X0083259Y0036642D01*
X0083037Y0037327D01*
X0082710Y0037968D01*
X0082287Y0038550D01*
X0081778Y0039059D01*
X0081196Y0039482D01*
X0080555Y0039808D01*
X0079871Y0040031D01*
X0079160Y0040143D01*
X0078886Y0040143D01*
X0078886Y0032886D01*
X0078714Y0032886D01*
X0078714Y0032714D01*
X0074228Y0032714D01*
X0074228Y0030573D02*
X0072972Y0030573D01*
X0072879Y0028975D02*
X0074338Y0028975D01*
X0075076Y0027376D02*
X0072047Y0027376D01*
X0077088Y0025778D02*
X0023857Y0025778D01*
X0025581Y0024179D02*
X0102019Y0024179D01*
X0100911Y0023071D02*
X0099494Y0019651D01*
X0099494Y0015949D01*
X0100911Y0012529D01*
X0103529Y0009911D01*
X0106949Y0008494D01*
X0110651Y0008494D01*
X0114071Y0009911D01*
X0116689Y0012529D01*
X0118105Y0015949D01*
X0118105Y0019651D01*
X0116689Y0023071D01*
X0114071Y0025689D01*
X0110651Y0027105D01*
X0106949Y0027105D01*
X0103529Y0025689D01*
X0100911Y0023071D01*
X0100708Y0022581D02*
X0026892Y0022581D01*
X0027554Y0020982D02*
X0100046Y0020982D01*
X0099494Y0019384D02*
X0028105Y0019384D01*
X0028105Y0017785D02*
X0099494Y0017785D01*
X0099494Y0016187D02*
X0028105Y0016187D01*
X0027542Y0014588D02*
X0100058Y0014588D01*
X0100720Y0012990D02*
X0026880Y0012990D01*
X0025551Y0011391D02*
X0102049Y0011391D01*
X0103815Y0009793D02*
X0023785Y0009793D01*
X0015577Y0008194D02*
X0112023Y0008194D01*
X0113785Y0009793D02*
X0115094Y0009793D01*
X0115551Y0011391D02*
X0116693Y0011391D01*
X0116880Y0012990D02*
X0117700Y0012990D01*
X0117542Y0014588D02*
X0118409Y0014588D01*
X0118105Y0016187D02*
X0118837Y0016187D01*
X0118999Y0017785D02*
X0118105Y0017785D01*
X0118105Y0019384D02*
X0119000Y0019384D01*
X0119000Y0020982D02*
X0117554Y0020982D01*
X0116892Y0022581D02*
X0119000Y0022581D01*
X0119000Y0024179D02*
X0115581Y0024179D01*
X0113857Y0025778D02*
X0119000Y0025778D01*
X0119000Y0027376D02*
X0082524Y0027376D01*
X0082710Y0027632D02*
X0082287Y0027050D01*
X0081778Y0026541D01*
X0081196Y0026118D01*
X0080555Y0025792D01*
X0079871Y0025569D01*
X0079160Y0025457D01*
X0078886Y0025457D01*
X0078886Y0032714D01*
X0083372Y0032714D01*
X0083372Y0029669D01*
X0083259Y0028958D01*
X0083037Y0028273D01*
X0082710Y0027632D01*
X0083262Y0028975D02*
X0119000Y0028975D01*
X0119000Y0030573D02*
X0083372Y0030573D01*
X0083372Y0032172D02*
X0119000Y0032172D01*
X0119000Y0033770D02*
X0083372Y0033770D01*
X0083372Y0035369D02*
X0119000Y0035369D01*
X0119000Y0036967D02*
X0083153Y0036967D01*
X0082271Y0038566D02*
X0119000Y0038566D01*
X0103743Y0025778D02*
X0080512Y0025778D01*
X0078886Y0025778D02*
X0078714Y0025778D01*
X0078714Y0027376D02*
X0078886Y0027376D01*
X0078886Y0028975D02*
X0078714Y0028975D01*
X0078714Y0030573D02*
X0078886Y0030573D01*
X0078886Y0032172D02*
X0078714Y0032172D01*
X0078714Y0033770D02*
X0078886Y0033770D01*
X0078886Y0035369D02*
X0078714Y0035369D01*
X0078714Y0036967D02*
X0078886Y0036967D01*
X0078886Y0038566D02*
X0078714Y0038566D01*
X0013815Y0009793D02*
X0012506Y0009793D01*
X0012049Y0011391D02*
X0010907Y0011391D01*
X0010720Y0012990D02*
X0009900Y0012990D01*
M02*
