G75*
%MOIN*%
%OFA0B0*%
%FSLAX25Y25*%
%IPPOS*%
%LPD*%
%AMOC8*
5,1,8,0,0,1.08239X$1,22.5*
%
%ADD10C,0.01000*%
%ADD11C,0.01600*%
%ADD12C,0.00600*%
%ADD13C,0.01200*%
%ADD14C,0.02000*%
%ADD15C,0.00400*%
%ADD16C,0.02200*%
%ADD17C,0.00100*%
%ADD18R,0.01800X0.03000*%
%ADD19C,0.00800*%
%ADD20R,0.03000X0.01800*%
%ADD21C,0.00500*%
%ADD22C,0.00000*%
%ADD23C,0.02756*%
%ADD24R,0.26600X0.00100*%
%ADD25R,0.26800X0.00100*%
%ADD26R,0.27000X0.00100*%
%ADD27R,0.27200X0.00100*%
%ADD28R,0.27400X0.00100*%
%ADD29R,0.27600X0.00100*%
%ADD30R,0.27800X0.00100*%
%ADD31R,0.28000X0.00100*%
%ADD32R,0.28200X0.00100*%
%ADD33R,0.28400X0.00100*%
%ADD34R,0.30400X0.00100*%
%ADD35R,0.30600X0.00100*%
%ADD36R,0.30800X0.00100*%
%ADD37R,0.31000X0.00100*%
%ADD38R,0.31200X0.00100*%
%ADD39R,0.31400X0.00100*%
%ADD40R,0.31600X0.00100*%
%ADD41R,0.31800X0.00100*%
%ADD42R,0.32000X0.00100*%
%ADD43R,0.32200X0.00100*%
%ADD44R,0.32400X0.00100*%
%ADD45R,0.32600X0.00100*%
%ADD46R,0.33800X0.00100*%
%ADD47R,0.34000X0.00100*%
%ADD48R,0.34200X0.00100*%
%ADD49R,0.34400X0.00100*%
%ADD50R,0.34600X0.00100*%
%ADD51R,0.34800X0.00100*%
%ADD52R,0.35000X0.00100*%
%ADD53R,0.35200X0.00100*%
%ADD54R,0.35400X0.00100*%
%ADD55R,0.35600X0.00100*%
%ADD56R,0.12500X0.00100*%
%ADD57R,0.12300X0.00100*%
%ADD58R,0.12400X0.00100*%
%ADD59R,0.12600X0.00100*%
%ADD60R,0.12700X0.00100*%
%ADD61R,0.36600X0.00100*%
%ADD62R,0.36800X0.00100*%
%ADD63R,0.37000X0.00100*%
%ADD64R,0.37200X0.00100*%
%ADD65R,0.18800X0.00100*%
%ADD66R,0.18700X0.00100*%
%ADD67R,0.18600X0.00100*%
%ADD68R,0.18900X0.00100*%
%ADD69R,0.06800X0.00100*%
%ADD70R,0.25500X0.00100*%
%ADD71R,0.25700X0.00100*%
%ADD72R,0.25800X0.00100*%
%ADD73R,0.38200X0.00100*%
%ADD74R,0.38400X0.00100*%
%ADD75R,0.38600X0.00100*%
%ADD76R,0.38800X0.00100*%
%ADD77R,0.39000X0.00100*%
%ADD78R,0.25200X0.00100*%
%ADD79R,0.13600X0.00100*%
%ADD80R,0.25000X0.00100*%
%ADD81R,0.13500X0.00100*%
%ADD82R,0.13700X0.00100*%
%ADD83R,0.10900X0.00100*%
%ADD84R,0.10700X0.00100*%
%ADD85R,0.10500X0.00100*%
%ADD86R,0.02300X0.00100*%
%ADD87R,0.01000X0.00100*%
%ADD88R,0.02100X0.00100*%
%ADD89R,0.13400X0.00100*%
%ADD90R,0.00800X0.00100*%
%ADD91R,0.01900X0.00100*%
%ADD92R,0.02000X0.00100*%
%ADD93R,0.00600X0.00100*%
%ADD94R,0.01700X0.00100*%
%ADD95R,0.01800X0.00100*%
%ADD96R,0.00500X0.00100*%
%ADD97R,0.01500X0.00100*%
%ADD98R,0.04700X0.00100*%
%ADD99R,0.00400X0.00100*%
%ADD100R,0.01400X0.00100*%
%ADD101R,0.04600X0.00100*%
%ADD102R,0.01600X0.00100*%
%ADD103R,0.00300X0.00100*%
%ADD104R,0.01200X0.00100*%
%ADD105R,0.04500X0.00100*%
%ADD106R,0.01100X0.00100*%
%ADD107R,0.00200X0.00100*%
%ADD108R,0.04400X0.00100*%
%ADD109R,0.00100X0.00100*%
%ADD110R,0.00700X0.00100*%
%ADD111R,0.01300X0.00100*%
%ADD112R,0.02200X0.00100*%
%ADD113R,0.13900X0.00100*%
%ADD114R,0.02400X0.00100*%
%ADD115R,0.13800X0.00100*%
%ADD116R,0.14000X0.00100*%
%ADD117R,0.02500X0.00100*%
%ADD118R,0.14100X0.00100*%
%ADD119R,0.00900X0.00100*%
%ADD120R,0.14200X0.00100*%
%ADD121R,0.14300X0.00100*%
%ADD122R,0.14400X0.00100*%
%ADD123R,0.14500X0.00100*%
%ADD124R,0.14600X0.00100*%
%ADD125R,0.14800X0.00100*%
%ADD126R,0.14700X0.00100*%
%ADD127R,0.14900X0.00100*%
%ADD128R,0.15000X0.00100*%
%ADD129R,0.15100X0.00100*%
%ADD130R,0.15200X0.00100*%
%ADD131R,0.15300X0.00100*%
%ADD132R,0.03000X0.00100*%
%ADD133R,0.17100X0.00100*%
%ADD134R,0.17200X0.00100*%
%ADD135R,0.05400X0.00100*%
%ADD136R,0.05300X0.00100*%
%ADD137R,0.17300X0.00100*%
%ADD138R,0.20700X0.00100*%
%ADD139R,0.03200X0.00100*%
%ADD140R,0.17000X0.00100*%
%ADD141R,0.03100X0.00100*%
%ADD142R,0.16800X0.00100*%
%ADD143R,0.02900X0.00100*%
%ADD144R,0.16700X0.00100*%
%ADD145R,0.04000X0.00100*%
%ADD146R,0.13200X0.00100*%
%ADD147R,0.13100X0.00100*%
%ADD148R,0.13000X0.00100*%
%ADD149R,0.12800X0.00100*%
%ADD150R,0.16100X0.00100*%
%ADD151R,0.16000X0.00100*%
%ADD152R,0.15900X0.00100*%
%ADD153R,0.04100X0.00100*%
%ADD154R,0.04300X0.00100*%
%ADD155R,0.36400X0.00100*%
%ADD156R,0.36200X0.00100*%
%ADD157R,0.36000X0.00100*%
%ADD158R,0.35800X0.00100*%
%ADD159R,0.12900X0.00100*%
%ADD160R,0.12200X0.00100*%
%ADD161R,0.02800X0.00100*%
%ADD162R,0.12100X0.00100*%
%ADD163R,0.02700X0.00100*%
%ADD164R,0.02600X0.00100*%
%ADD165R,0.12000X0.00100*%
%ADD166R,0.11900X0.00100*%
%ADD167R,0.11800X0.00100*%
%ADD168R,0.11700X0.00100*%
%ADD169R,0.11500X0.00100*%
%ADD170R,0.11400X0.00100*%
%ADD171R,0.11300X0.00100*%
%ADD172R,0.11200X0.00100*%
%ADD173R,0.11100X0.00100*%
%ADD174R,0.11000X0.00100*%
%ADD175R,0.03300X0.00100*%
%ADD176R,0.03400X0.00100*%
%ADD177R,0.10800X0.00100*%
%ADD178R,0.11600X0.00100*%
%ADD179R,0.03500X0.00100*%
%ADD180R,0.03700X0.00100*%
%ADD181R,0.10600X0.00100*%
%ADD182R,0.10400X0.00100*%
%ADD183R,0.10300X0.00100*%
%ADD184R,0.03600X0.00100*%
%ADD185R,0.10200X0.00100*%
%ADD186R,0.10100X0.00100*%
%ADD187R,0.10000X0.00100*%
%ADD188R,0.09900X0.00100*%
%ADD189R,0.09800X0.00100*%
%ADD190R,0.03900X0.00100*%
%ADD191R,0.07400X0.00100*%
%ADD192R,0.09700X0.00100*%
%ADD193R,0.09600X0.00100*%
%ADD194R,0.09500X0.00100*%
%ADD195R,0.09400X0.00100*%
%ADD196R,0.05100X0.00100*%
%ADD197R,0.09300X0.00100*%
%ADD198R,0.05000X0.00100*%
%ADD199R,0.09200X0.00100*%
%ADD200R,0.09100X0.00100*%
%ADD201R,0.08500X0.00100*%
%ADD202R,0.08400X0.00100*%
%ADD203R,0.08200X0.00100*%
%ADD204R,0.08100X0.00100*%
%ADD205R,0.08000X0.00100*%
%ADD206R,0.07900X0.00100*%
%ADD207R,0.07800X0.00100*%
%ADD208R,0.07700X0.00100*%
%ADD209R,0.07600X0.00100*%
%ADD210R,0.24600X0.00100*%
%ADD211R,0.24400X0.00100*%
%ADD212R,0.24200X0.00100*%
%ADD213R,0.23800X0.00100*%
%ADD214R,0.23600X0.00100*%
%ADD215R,0.23400X0.00100*%
%ADD216R,0.23000X0.00100*%
%ADD217R,0.22800X0.00100*%
%ADD218R,0.22400X0.00100*%
%ADD219R,0.22200X0.00100*%
%ADD220R,0.21800X0.00100*%
%ADD221R,0.21600X0.00100*%
%ADD222R,0.21200X0.00100*%
%ADD223R,0.21000X0.00100*%
%ADD224R,0.20600X0.00100*%
%ADD225R,0.20200X0.00100*%
%ADD226R,0.20000X0.00100*%
%ADD227R,0.19600X0.00100*%
%ADD228R,0.19200X0.00100*%
%ADD229R,0.18400X0.00100*%
%ADD230R,0.18000X0.00100*%
%ADD231R,0.17600X0.00100*%
%ADD232R,0.16400X0.00100*%
%ADD233R,0.15400X0.00100*%
%ADD234R,0.08600X0.00100*%
%ADD235R,0.06400X0.00100*%
D10*
X0056500Y0006500D02*
X0341500Y0006500D01*
X0342889Y0006578D01*
X0344275Y0006688D01*
X0345658Y0006832D01*
X0347038Y0007010D01*
X0348413Y0007221D01*
X0349782Y0007465D01*
X0351145Y0007742D01*
X0352501Y0008052D01*
X0353849Y0008394D01*
X0355188Y0008769D01*
X0356518Y0009177D01*
X0357837Y0009616D01*
X0359146Y0010087D01*
X0360443Y0010590D01*
X0361727Y0011123D01*
X0362998Y0011688D01*
X0364255Y0012283D01*
X0365498Y0012909D01*
X0366724Y0013564D01*
X0367935Y0014248D01*
X0369129Y0014962D01*
X0370305Y0015704D01*
X0371463Y0016475D01*
X0372602Y0017273D01*
X0373721Y0018099D01*
X0374820Y0018951D01*
X0375898Y0019830D01*
X0376955Y0020734D01*
X0377989Y0021664D01*
X0379001Y0022619D01*
X0379989Y0023597D01*
X0380953Y0024600D01*
X0381893Y0025625D01*
X0382808Y0026672D01*
X0383697Y0027742D01*
X0384560Y0028833D01*
X0385396Y0029944D01*
X0386206Y0031075D01*
X0386988Y0032225D01*
X0387741Y0033394D01*
X0388467Y0034581D01*
X0389163Y0035785D01*
X0389830Y0037005D01*
X0390468Y0038241D01*
X0391075Y0039492D01*
X0391652Y0040758D01*
X0392198Y0042037D01*
X0392714Y0043329D01*
X0393197Y0044633D01*
X0393650Y0045948D01*
X0394070Y0047274D01*
X0394458Y0048609D01*
X0394814Y0049954D01*
X0395137Y0051307D01*
X0395427Y0052667D01*
X0395685Y0054034D01*
X0395909Y0055406D01*
X0396100Y0056784D01*
X0396258Y0058166D01*
X0396382Y0059551D01*
X0396473Y0060939D01*
X0396530Y0062328D01*
X0396553Y0063719D01*
X0396543Y0065110D01*
X0396500Y0066500D01*
X0396500Y0196500D01*
X0396547Y0197649D01*
X0396566Y0198798D01*
X0396557Y0199947D01*
X0396520Y0201096D01*
X0396455Y0202244D01*
X0396363Y0203389D01*
X0396243Y0204533D01*
X0396096Y0205673D01*
X0395921Y0206809D01*
X0395718Y0207940D01*
X0395489Y0209066D01*
X0395232Y0210187D01*
X0394948Y0211301D01*
X0394637Y0212407D01*
X0394300Y0213506D01*
X0393936Y0214597D01*
X0393546Y0215678D01*
X0393130Y0216749D01*
X0392688Y0217811D01*
X0392221Y0218861D01*
X0391729Y0219899D01*
X0391211Y0220926D01*
X0390669Y0221939D01*
X0390103Y0222940D01*
X0389512Y0223926D01*
X0388898Y0224897D01*
X0388261Y0225854D01*
X0387600Y0226795D01*
X0386917Y0227719D01*
X0386212Y0228627D01*
X0385485Y0229518D01*
X0384737Y0230390D01*
X0383968Y0231245D01*
X0383179Y0232080D01*
X0382370Y0232897D01*
X0381541Y0233693D01*
X0380693Y0234469D01*
X0379827Y0235225D01*
X0378943Y0235959D01*
X0378041Y0236672D01*
X0377122Y0237363D01*
X0376187Y0238031D01*
X0375236Y0238676D01*
X0374269Y0239299D01*
X0373288Y0239898D01*
X0372293Y0240473D01*
X0371284Y0241023D01*
X0370262Y0241549D01*
X0369228Y0242051D01*
X0368181Y0242527D01*
X0367124Y0242978D01*
X0366056Y0243403D01*
X0364978Y0243802D01*
X0363891Y0244175D01*
X0362795Y0244522D01*
X0361691Y0244842D01*
X0360580Y0245135D01*
X0359461Y0245401D01*
X0358337Y0245641D01*
X0357207Y0245853D01*
X0356073Y0246037D01*
X0354934Y0246194D01*
X0353792Y0246324D01*
X0352647Y0246426D01*
X0351500Y0246500D01*
X0051500Y0246500D01*
X0050335Y0246425D01*
X0049172Y0246320D01*
X0048012Y0246188D01*
X0046856Y0246026D01*
X0045704Y0245837D01*
X0044557Y0245619D01*
X0043416Y0245374D01*
X0042281Y0245100D01*
X0041153Y0244798D01*
X0040033Y0244469D01*
X0038922Y0244113D01*
X0037819Y0243729D01*
X0036726Y0243319D01*
X0035644Y0242881D01*
X0034572Y0242418D01*
X0033513Y0241928D01*
X0032465Y0241412D01*
X0031431Y0240871D01*
X0030410Y0240304D01*
X0029404Y0239713D01*
X0028412Y0239097D01*
X0027436Y0238457D01*
X0026475Y0237793D01*
X0025532Y0237106D01*
X0024605Y0236396D01*
X0023696Y0235663D01*
X0022805Y0234909D01*
X0021934Y0234132D01*
X0021081Y0233335D01*
X0020248Y0232516D01*
X0019436Y0231678D01*
X0018644Y0230820D01*
X0017874Y0229943D01*
X0017126Y0229047D01*
X0016399Y0228133D01*
X0015696Y0227201D01*
X0015015Y0226253D01*
X0014358Y0225288D01*
X0013725Y0224307D01*
X0013116Y0223311D01*
X0012532Y0222300D01*
X0011972Y0221276D01*
X0011438Y0220238D01*
X0010930Y0219187D01*
X0010448Y0218124D01*
X0009991Y0217049D01*
X0009562Y0215964D01*
X0009159Y0214868D01*
X0008783Y0213763D01*
X0008434Y0212648D01*
X0008113Y0211526D01*
X0007819Y0210396D01*
X0007554Y0209259D01*
X0007316Y0208117D01*
X0007106Y0206968D01*
X0006925Y0205815D01*
X0006772Y0204658D01*
X0006647Y0203497D01*
X0006551Y0202333D01*
X0006483Y0201168D01*
X0006445Y0200001D01*
X0006434Y0198834D01*
X0006453Y0197666D01*
X0006500Y0196500D01*
X0006500Y0061500D01*
X0006455Y0060211D01*
X0006441Y0058921D01*
X0006459Y0057631D01*
X0006508Y0056342D01*
X0006589Y0055055D01*
X0006702Y0053770D01*
X0006846Y0052488D01*
X0007022Y0051210D01*
X0007228Y0049937D01*
X0007466Y0048669D01*
X0007735Y0047407D01*
X0008035Y0046153D01*
X0008366Y0044906D01*
X0008727Y0043667D01*
X0009119Y0042438D01*
X0009540Y0041219D01*
X0009991Y0040011D01*
X0010472Y0038814D01*
X0010982Y0037629D01*
X0011521Y0036457D01*
X0012089Y0035298D01*
X0012684Y0034154D01*
X0013308Y0033025D01*
X0013959Y0031911D01*
X0014638Y0030814D01*
X0015343Y0029734D01*
X0016074Y0028671D01*
X0016831Y0027627D01*
X0017614Y0026602D01*
X0018422Y0025596D01*
X0019254Y0024610D01*
X0020109Y0023645D01*
X0020989Y0022701D01*
X0021891Y0021779D01*
X0022816Y0020880D01*
X0023762Y0020003D01*
X0024730Y0019150D01*
X0025718Y0018321D01*
X0026726Y0017517D01*
X0027754Y0016737D01*
X0028801Y0015983D01*
X0029866Y0015255D01*
X0030948Y0014553D01*
X0032047Y0013878D01*
X0033163Y0013230D01*
X0034294Y0012610D01*
X0035440Y0012018D01*
X0036600Y0011453D01*
X0037773Y0010918D01*
X0038960Y0010412D01*
X0040158Y0009934D01*
X0041368Y0009487D01*
X0042588Y0009069D01*
X0043819Y0008681D01*
X0045058Y0008324D01*
X0046306Y0007997D01*
X0047561Y0007701D01*
X0048824Y0007436D01*
X0050092Y0007201D01*
X0051366Y0006998D01*
X0052645Y0006827D01*
X0053927Y0006686D01*
X0055212Y0006578D01*
X0056500Y0006500D01*
X0374689Y0115358D02*
X0374689Y0124413D01*
X0374689Y0115358D02*
X0381776Y0115358D01*
X0391224Y0115358D02*
X0393980Y0115358D01*
X0374689Y0138587D02*
X0374689Y0147642D01*
X0381776Y0147642D01*
X0391224Y0147642D02*
X0393980Y0147642D01*
D11*
X0330000Y0133000D02*
X0325000Y0133000D01*
X0306499Y0151500D02*
X0306018Y0151154D01*
X0305544Y0150796D01*
X0305080Y0150427D01*
X0304624Y0150047D01*
X0304178Y0149655D01*
X0303742Y0149253D01*
X0303316Y0148841D01*
X0302899Y0148418D01*
X0302493Y0147985D01*
X0302098Y0147543D01*
X0301714Y0147091D01*
X0301340Y0146629D01*
X0300979Y0146159D01*
X0300628Y0145681D01*
X0300289Y0145193D01*
X0299963Y0144698D01*
X0299648Y0144195D01*
X0299346Y0143685D01*
X0299056Y0143167D01*
X0298779Y0142642D01*
X0298514Y0142111D01*
X0298263Y0141574D01*
X0298025Y0141030D01*
X0297800Y0140481D01*
X0297588Y0139927D01*
X0297390Y0139367D01*
X0297206Y0138803D01*
X0297035Y0138235D01*
X0296879Y0137663D01*
X0296736Y0137087D01*
X0296607Y0136508D01*
X0296492Y0135926D01*
X0296392Y0135341D01*
X0296306Y0134754D01*
X0296234Y0134165D01*
X0296176Y0133574D01*
X0296133Y0132982D01*
X0296104Y0132390D01*
X0296090Y0131797D01*
X0296090Y0131203D01*
X0296104Y0130610D01*
X0296133Y0130018D01*
X0296176Y0129426D01*
X0296234Y0128835D01*
X0296306Y0128246D01*
X0296392Y0127659D01*
X0296492Y0127074D01*
X0296607Y0126492D01*
X0296736Y0125913D01*
X0296879Y0125337D01*
X0297035Y0124765D01*
X0297206Y0124197D01*
X0297390Y0123633D01*
X0297588Y0123073D01*
X0297800Y0122519D01*
X0298025Y0121970D01*
X0298263Y0121426D01*
X0298514Y0120889D01*
X0298779Y0120358D01*
X0299056Y0119833D01*
X0299346Y0119315D01*
X0299648Y0118805D01*
X0299963Y0118302D01*
X0300289Y0117807D01*
X0300628Y0117319D01*
X0300979Y0116841D01*
X0301340Y0116371D01*
X0301714Y0115909D01*
X0302098Y0115457D01*
X0302493Y0115015D01*
X0302899Y0114582D01*
X0303316Y0114159D01*
X0303742Y0113747D01*
X0304178Y0113345D01*
X0304624Y0112953D01*
X0305080Y0112573D01*
X0305544Y0112204D01*
X0306018Y0111846D01*
X0306499Y0111500D01*
X0320500Y0124500D02*
X0325500Y0122500D01*
X0298500Y0131500D02*
X0298502Y0131696D01*
X0298510Y0131893D01*
X0298522Y0132089D01*
X0298539Y0132284D01*
X0298560Y0132479D01*
X0298587Y0132674D01*
X0298618Y0132868D01*
X0298654Y0133061D01*
X0298694Y0133253D01*
X0298740Y0133444D01*
X0298790Y0133634D01*
X0298844Y0133822D01*
X0298904Y0134009D01*
X0298968Y0134195D01*
X0299036Y0134379D01*
X0299109Y0134561D01*
X0299186Y0134742D01*
X0299268Y0134920D01*
X0299354Y0135097D01*
X0299445Y0135271D01*
X0299539Y0135443D01*
X0299638Y0135613D01*
X0299741Y0135780D01*
X0299848Y0135945D01*
X0299959Y0136106D01*
X0300074Y0136266D01*
X0300193Y0136422D01*
X0300316Y0136575D01*
X0300442Y0136725D01*
X0300572Y0136872D01*
X0300706Y0137016D01*
X0300843Y0137157D01*
X0300984Y0137294D01*
X0301128Y0137428D01*
X0301275Y0137558D01*
X0301425Y0137684D01*
X0301578Y0137807D01*
X0301734Y0137926D01*
X0301894Y0138041D01*
X0302055Y0138152D01*
X0302220Y0138259D01*
X0302387Y0138362D01*
X0302557Y0138461D01*
X0302729Y0138555D01*
X0302903Y0138646D01*
X0303080Y0138732D01*
X0303258Y0138814D01*
X0303439Y0138891D01*
X0303621Y0138964D01*
X0303805Y0139032D01*
X0303991Y0139096D01*
X0304178Y0139156D01*
X0304366Y0139210D01*
X0304556Y0139260D01*
X0304747Y0139306D01*
X0304939Y0139346D01*
X0305132Y0139382D01*
X0305326Y0139413D01*
X0305521Y0139440D01*
X0305716Y0139461D01*
X0305911Y0139478D01*
X0306107Y0139490D01*
X0306304Y0139498D01*
X0306500Y0139500D01*
X0306696Y0139498D01*
X0306893Y0139490D01*
X0307089Y0139478D01*
X0307284Y0139461D01*
X0307479Y0139440D01*
X0307674Y0139413D01*
X0307868Y0139382D01*
X0308061Y0139346D01*
X0308253Y0139306D01*
X0308444Y0139260D01*
X0308634Y0139210D01*
X0308822Y0139156D01*
X0309009Y0139096D01*
X0309195Y0139032D01*
X0309379Y0138964D01*
X0309561Y0138891D01*
X0309742Y0138814D01*
X0309920Y0138732D01*
X0310097Y0138646D01*
X0310271Y0138555D01*
X0310443Y0138461D01*
X0310613Y0138362D01*
X0310780Y0138259D01*
X0310945Y0138152D01*
X0311106Y0138041D01*
X0311266Y0137926D01*
X0311422Y0137807D01*
X0311575Y0137684D01*
X0311725Y0137558D01*
X0311872Y0137428D01*
X0312016Y0137294D01*
X0312157Y0137157D01*
X0312294Y0137016D01*
X0312428Y0136872D01*
X0312558Y0136725D01*
X0312684Y0136575D01*
X0312807Y0136422D01*
X0312926Y0136266D01*
X0313041Y0136106D01*
X0313152Y0135945D01*
X0313259Y0135780D01*
X0313362Y0135613D01*
X0313461Y0135443D01*
X0313555Y0135271D01*
X0313646Y0135097D01*
X0313732Y0134920D01*
X0313814Y0134742D01*
X0313891Y0134561D01*
X0313964Y0134379D01*
X0314032Y0134195D01*
X0314096Y0134009D01*
X0314156Y0133822D01*
X0314210Y0133634D01*
X0314260Y0133444D01*
X0314306Y0133253D01*
X0314346Y0133061D01*
X0314382Y0132868D01*
X0314413Y0132674D01*
X0314440Y0132479D01*
X0314461Y0132284D01*
X0314478Y0132089D01*
X0314490Y0131893D01*
X0314498Y0131696D01*
X0314500Y0131500D01*
X0314498Y0131304D01*
X0314490Y0131107D01*
X0314478Y0130911D01*
X0314461Y0130716D01*
X0314440Y0130521D01*
X0314413Y0130326D01*
X0314382Y0130132D01*
X0314346Y0129939D01*
X0314306Y0129747D01*
X0314260Y0129556D01*
X0314210Y0129366D01*
X0314156Y0129178D01*
X0314096Y0128991D01*
X0314032Y0128805D01*
X0313964Y0128621D01*
X0313891Y0128439D01*
X0313814Y0128258D01*
X0313732Y0128080D01*
X0313646Y0127903D01*
X0313555Y0127729D01*
X0313461Y0127557D01*
X0313362Y0127387D01*
X0313259Y0127220D01*
X0313152Y0127055D01*
X0313041Y0126894D01*
X0312926Y0126734D01*
X0312807Y0126578D01*
X0312684Y0126425D01*
X0312558Y0126275D01*
X0312428Y0126128D01*
X0312294Y0125984D01*
X0312157Y0125843D01*
X0312016Y0125706D01*
X0311872Y0125572D01*
X0311725Y0125442D01*
X0311575Y0125316D01*
X0311422Y0125193D01*
X0311266Y0125074D01*
X0311106Y0124959D01*
X0310945Y0124848D01*
X0310780Y0124741D01*
X0310613Y0124638D01*
X0310443Y0124539D01*
X0310271Y0124445D01*
X0310097Y0124354D01*
X0309920Y0124268D01*
X0309742Y0124186D01*
X0309561Y0124109D01*
X0309379Y0124036D01*
X0309195Y0123968D01*
X0309009Y0123904D01*
X0308822Y0123844D01*
X0308634Y0123790D01*
X0308444Y0123740D01*
X0308253Y0123694D01*
X0308061Y0123654D01*
X0307868Y0123618D01*
X0307674Y0123587D01*
X0307479Y0123560D01*
X0307284Y0123539D01*
X0307089Y0123522D01*
X0306893Y0123510D01*
X0306696Y0123502D01*
X0306500Y0123500D01*
X0306304Y0123502D01*
X0306107Y0123510D01*
X0305911Y0123522D01*
X0305716Y0123539D01*
X0305521Y0123560D01*
X0305326Y0123587D01*
X0305132Y0123618D01*
X0304939Y0123654D01*
X0304747Y0123694D01*
X0304556Y0123740D01*
X0304366Y0123790D01*
X0304178Y0123844D01*
X0303991Y0123904D01*
X0303805Y0123968D01*
X0303621Y0124036D01*
X0303439Y0124109D01*
X0303258Y0124186D01*
X0303080Y0124268D01*
X0302903Y0124354D01*
X0302729Y0124445D01*
X0302557Y0124539D01*
X0302387Y0124638D01*
X0302220Y0124741D01*
X0302055Y0124848D01*
X0301894Y0124959D01*
X0301734Y0125074D01*
X0301578Y0125193D01*
X0301425Y0125316D01*
X0301275Y0125442D01*
X0301128Y0125572D01*
X0300984Y0125706D01*
X0300843Y0125843D01*
X0300706Y0125984D01*
X0300572Y0126128D01*
X0300442Y0126275D01*
X0300316Y0126425D01*
X0300193Y0126578D01*
X0300074Y0126734D01*
X0299959Y0126894D01*
X0299848Y0127055D01*
X0299741Y0127220D01*
X0299638Y0127387D01*
X0299539Y0127557D01*
X0299445Y0127729D01*
X0299354Y0127903D01*
X0299268Y0128080D01*
X0299186Y0128258D01*
X0299109Y0128439D01*
X0299036Y0128621D01*
X0298968Y0128805D01*
X0298904Y0128991D01*
X0298844Y0129178D01*
X0298790Y0129366D01*
X0298740Y0129556D01*
X0298694Y0129747D01*
X0298654Y0129939D01*
X0298618Y0130132D01*
X0298587Y0130326D01*
X0298560Y0130521D01*
X0298539Y0130716D01*
X0298522Y0130911D01*
X0298510Y0131107D01*
X0298502Y0131304D01*
X0298500Y0131500D01*
X0306501Y0111500D02*
X0306982Y0111846D01*
X0307456Y0112204D01*
X0307920Y0112573D01*
X0308376Y0112953D01*
X0308822Y0113345D01*
X0309258Y0113747D01*
X0309684Y0114159D01*
X0310101Y0114582D01*
X0310507Y0115015D01*
X0310902Y0115457D01*
X0311286Y0115909D01*
X0311660Y0116371D01*
X0312021Y0116841D01*
X0312372Y0117319D01*
X0312711Y0117807D01*
X0313037Y0118302D01*
X0313352Y0118805D01*
X0313654Y0119315D01*
X0313944Y0119833D01*
X0314221Y0120358D01*
X0314486Y0120889D01*
X0314737Y0121426D01*
X0314975Y0121970D01*
X0315200Y0122519D01*
X0315412Y0123073D01*
X0315610Y0123633D01*
X0315794Y0124197D01*
X0315965Y0124765D01*
X0316121Y0125337D01*
X0316264Y0125913D01*
X0316393Y0126492D01*
X0316508Y0127074D01*
X0316608Y0127659D01*
X0316694Y0128246D01*
X0316766Y0128835D01*
X0316824Y0129426D01*
X0316867Y0130018D01*
X0316896Y0130610D01*
X0316910Y0131203D01*
X0316910Y0131797D01*
X0316896Y0132390D01*
X0316867Y0132982D01*
X0316824Y0133574D01*
X0316766Y0134165D01*
X0316694Y0134754D01*
X0316608Y0135341D01*
X0316508Y0135926D01*
X0316393Y0136508D01*
X0316264Y0137087D01*
X0316121Y0137663D01*
X0315965Y0138235D01*
X0315794Y0138803D01*
X0315610Y0139367D01*
X0315412Y0139927D01*
X0315200Y0140481D01*
X0314975Y0141030D01*
X0314737Y0141574D01*
X0314486Y0142111D01*
X0314221Y0142642D01*
X0313944Y0143167D01*
X0313654Y0143685D01*
X0313352Y0144195D01*
X0313037Y0144698D01*
X0312711Y0145193D01*
X0312372Y0145681D01*
X0312021Y0146159D01*
X0311660Y0146629D01*
X0311286Y0147091D01*
X0310902Y0147543D01*
X0310507Y0147985D01*
X0310101Y0148418D01*
X0309684Y0148841D01*
X0309258Y0149253D01*
X0308822Y0149655D01*
X0308376Y0150047D01*
X0307920Y0150427D01*
X0307456Y0150796D01*
X0306982Y0151154D01*
X0306501Y0151500D01*
X0319500Y0141000D02*
X0324500Y0143000D01*
X0103035Y0170400D02*
X0103037Y0170447D01*
X0103043Y0170494D01*
X0103053Y0170541D01*
X0103066Y0170586D01*
X0103084Y0170630D01*
X0103105Y0170672D01*
X0103129Y0170713D01*
X0103157Y0170751D01*
X0103188Y0170787D01*
X0103222Y0170820D01*
X0103258Y0170850D01*
X0103297Y0170877D01*
X0103338Y0170901D01*
X0103381Y0170921D01*
X0103425Y0170937D01*
X0103471Y0170950D01*
X0103517Y0170959D01*
X0103565Y0170964D01*
X0103612Y0170965D01*
X0103659Y0170962D01*
X0103706Y0170955D01*
X0103752Y0170944D01*
X0103797Y0170930D01*
X0103841Y0170911D01*
X0103882Y0170889D01*
X0103922Y0170864D01*
X0103960Y0170835D01*
X0103995Y0170804D01*
X0104028Y0170769D01*
X0104057Y0170732D01*
X0104083Y0170693D01*
X0104106Y0170651D01*
X0104125Y0170608D01*
X0104141Y0170563D01*
X0104153Y0170517D01*
X0104161Y0170471D01*
X0104165Y0170424D01*
X0104165Y0170376D01*
X0104161Y0170329D01*
X0104153Y0170283D01*
X0104141Y0170237D01*
X0104125Y0170192D01*
X0104106Y0170149D01*
X0104083Y0170107D01*
X0104057Y0170068D01*
X0104028Y0170031D01*
X0103995Y0169996D01*
X0103960Y0169965D01*
X0103922Y0169936D01*
X0103883Y0169911D01*
X0103841Y0169889D01*
X0103797Y0169870D01*
X0103752Y0169856D01*
X0103706Y0169845D01*
X0103659Y0169838D01*
X0103612Y0169835D01*
X0103565Y0169836D01*
X0103517Y0169841D01*
X0103471Y0169850D01*
X0103425Y0169863D01*
X0103381Y0169879D01*
X0103338Y0169899D01*
X0103297Y0169923D01*
X0103258Y0169950D01*
X0103222Y0169980D01*
X0103188Y0170013D01*
X0103157Y0170049D01*
X0103129Y0170087D01*
X0103105Y0170128D01*
X0103084Y0170170D01*
X0103066Y0170214D01*
X0103053Y0170259D01*
X0103043Y0170306D01*
X0103037Y0170353D01*
X0103035Y0170400D01*
X0071500Y0041999D02*
X0071416Y0041886D01*
X0071336Y0041771D01*
X0071258Y0041653D01*
X0071184Y0041533D01*
X0071114Y0041411D01*
X0071047Y0041287D01*
X0070983Y0041162D01*
X0070923Y0041034D01*
X0070867Y0040905D01*
X0070814Y0040775D01*
X0070765Y0040643D01*
X0070720Y0040509D01*
X0070679Y0040375D01*
X0070641Y0040239D01*
X0070607Y0040102D01*
X0070577Y0039965D01*
X0070551Y0039826D01*
X0070529Y0039687D01*
X0070511Y0039548D01*
X0070497Y0039408D01*
X0070487Y0039267D01*
X0070480Y0039126D01*
X0070478Y0038986D01*
X0070480Y0038845D01*
X0070485Y0038704D01*
X0070495Y0038564D01*
X0070508Y0038423D01*
X0070526Y0038284D01*
X0070547Y0038145D01*
X0070573Y0038006D01*
X0070602Y0037868D01*
X0070635Y0037731D01*
X0070672Y0037596D01*
X0070713Y0037461D01*
X0070758Y0037327D01*
X0070806Y0037195D01*
X0070858Y0037064D01*
X0070914Y0036935D01*
X0070973Y0036807D01*
X0071036Y0036681D01*
X0071103Y0036557D01*
X0071172Y0036435D01*
X0071246Y0036315D01*
X0071323Y0036197D01*
X0071403Y0036081D01*
X0071486Y0035967D01*
X0071572Y0035856D01*
X0071662Y0035747D01*
X0071754Y0035641D01*
X0071850Y0035538D01*
X0071948Y0035437D01*
X0072050Y0035339D01*
X0072154Y0035244D01*
X0072260Y0035152D01*
X0072369Y0035063D01*
X0072481Y0034977D01*
X0072595Y0034895D01*
X0072711Y0034815D01*
X0072830Y0034739D01*
X0072950Y0034666D01*
X0073073Y0034597D01*
X0073197Y0034531D01*
X0073324Y0034469D01*
X0073452Y0034410D01*
X0073581Y0034355D01*
X0073712Y0034304D01*
X0073845Y0034256D01*
X0073979Y0034212D01*
X0074114Y0034172D01*
X0074250Y0034136D01*
X0074387Y0034103D01*
X0074525Y0034075D01*
X0074663Y0034050D01*
X0074802Y0034029D01*
X0074942Y0034013D01*
X0075082Y0034000D01*
X0075223Y0033991D01*
X0075364Y0033986D01*
X0075505Y0033985D01*
X0075645Y0033988D01*
X0075786Y0033995D01*
X0075926Y0034006D01*
X0076066Y0034021D01*
X0076206Y0034040D01*
X0076345Y0034063D01*
X0076483Y0034090D01*
X0076621Y0034120D01*
X0076757Y0034155D01*
X0076893Y0034193D01*
X0077027Y0034235D01*
X0077160Y0034281D01*
X0077292Y0034331D01*
X0077422Y0034384D01*
X0077551Y0034441D01*
X0077678Y0034502D01*
X0077803Y0034566D01*
X0077927Y0034634D01*
X0078048Y0034705D01*
X0078168Y0034779D01*
X0078285Y0034857D01*
X0078400Y0034938D01*
X0078513Y0035023D01*
X0078623Y0035110D01*
X0078731Y0035201D01*
X0078836Y0035295D01*
X0078939Y0035391D01*
X0079038Y0035490D01*
X0079135Y0035593D01*
X0079229Y0035698D01*
X0079320Y0035805D01*
X0079408Y0035915D01*
X0079493Y0036027D01*
X0079574Y0036142D01*
X0079653Y0036259D01*
X0079728Y0036379D01*
X0079799Y0036500D01*
X0095500Y0046500D02*
X0095760Y0046236D01*
X0096014Y0045967D01*
X0096261Y0045692D01*
X0096501Y0045411D01*
X0096735Y0045124D01*
X0096961Y0044831D01*
X0097181Y0044533D01*
X0097393Y0044230D01*
X0097598Y0043922D01*
X0097795Y0043609D01*
X0097985Y0043292D01*
X0098167Y0042970D01*
X0098341Y0042643D01*
X0098508Y0042313D01*
X0098666Y0041979D01*
X0098816Y0041641D01*
X0098958Y0041299D01*
X0099092Y0040954D01*
X0099218Y0040606D01*
X0099335Y0040255D01*
X0099443Y0039902D01*
X0099543Y0039546D01*
X0099635Y0039187D01*
X0099718Y0038827D01*
X0099792Y0038464D01*
X0099857Y0038100D01*
X0099914Y0037734D01*
X0099961Y0037368D01*
X0100000Y0037000D01*
X0100027Y0036689D01*
X0100046Y0036376D01*
X0100058Y0036064D01*
X0100062Y0035751D01*
X0100058Y0035438D01*
X0100047Y0035125D01*
X0100028Y0034813D01*
X0100002Y0034502D01*
X0099968Y0034191D01*
X0099926Y0033881D01*
X0099876Y0033572D01*
X0099820Y0033264D01*
X0099755Y0032958D01*
X0099683Y0032653D01*
X0099604Y0032351D01*
X0099517Y0032050D01*
X0099423Y0031752D01*
X0099322Y0031456D01*
X0099214Y0031162D01*
X0099098Y0030872D01*
X0098975Y0030584D01*
X0098845Y0030299D01*
X0098709Y0030018D01*
X0098565Y0029740D01*
X0098415Y0029465D01*
X0098258Y0029195D01*
X0098095Y0028928D01*
X0097925Y0028665D01*
X0097748Y0028407D01*
X0097566Y0028153D01*
X0097377Y0027904D01*
X0097182Y0027659D01*
X0096981Y0027419D01*
X0096775Y0027184D01*
X0096563Y0026954D01*
X0096345Y0026730D01*
X0096122Y0026510D01*
X0095893Y0026297D01*
X0095659Y0026089D01*
X0095421Y0025887D01*
X0095177Y0025690D01*
X0094929Y0025500D01*
X0094676Y0025316D01*
X0094418Y0025138D01*
X0094157Y0024966D01*
X0093891Y0024801D01*
X0093621Y0024643D01*
X0093348Y0024491D01*
X0093071Y0024346D01*
X0092790Y0024207D01*
X0092506Y0024076D01*
X0092219Y0023952D01*
X0091929Y0023834D01*
X0091637Y0023724D01*
X0091341Y0023621D01*
X0091043Y0023525D01*
X0090743Y0023437D01*
X0090441Y0023356D01*
X0090137Y0023282D01*
X0089831Y0023216D01*
X0089524Y0023157D01*
X0089216Y0023106D01*
X0088906Y0023062D01*
X0088595Y0023026D01*
X0088283Y0022998D01*
X0087971Y0022977D01*
X0087659Y0022964D01*
X0087346Y0022958D01*
X0087033Y0022960D01*
X0086720Y0022970D01*
X0086408Y0022988D01*
X0086096Y0023013D01*
X0085785Y0023045D01*
X0085475Y0023086D01*
X0085166Y0023134D01*
X0084858Y0023189D01*
X0084552Y0023252D01*
X0084247Y0023323D01*
X0083944Y0023400D01*
X0083643Y0023486D01*
X0083344Y0023578D01*
X0083047Y0023678D01*
X0082754Y0023785D01*
X0082462Y0023900D01*
X0082174Y0024021D01*
X0081889Y0024149D01*
X0081607Y0024285D01*
X0081328Y0024427D01*
X0081053Y0024576D01*
X0080782Y0024732D01*
X0080514Y0024894D01*
X0080251Y0025063D01*
X0079992Y0025238D01*
X0079737Y0025419D01*
X0079486Y0025607D01*
X0079241Y0025801D01*
X0079000Y0026000D01*
X0078759Y0026176D01*
X0078515Y0026347D01*
X0078266Y0026511D01*
X0078014Y0026670D01*
X0077758Y0026822D01*
X0077499Y0026968D01*
X0077236Y0027108D01*
X0076969Y0027242D01*
X0076700Y0027369D01*
X0076428Y0027490D01*
X0076152Y0027604D01*
X0075875Y0027712D01*
X0075594Y0027813D01*
X0075312Y0027907D01*
X0075027Y0027994D01*
X0074740Y0028075D01*
X0074451Y0028149D01*
X0074161Y0028216D01*
X0073869Y0028275D01*
X0073576Y0028328D01*
X0073281Y0028374D01*
X0072986Y0028413D01*
X0072690Y0028444D01*
X0072393Y0028469D01*
X0072096Y0028486D01*
X0071798Y0028497D01*
X0071500Y0028500D01*
X0071499Y0028500D02*
X0071304Y0028515D01*
X0071109Y0028534D01*
X0070915Y0028558D01*
X0070721Y0028587D01*
X0070528Y0028621D01*
X0070336Y0028659D01*
X0070145Y0028702D01*
X0069955Y0028750D01*
X0069767Y0028802D01*
X0069579Y0028859D01*
X0069393Y0028921D01*
X0069209Y0028986D01*
X0069026Y0029057D01*
X0068845Y0029132D01*
X0068666Y0029211D01*
X0068489Y0029294D01*
X0068314Y0029382D01*
X0068141Y0029474D01*
X0067970Y0029570D01*
X0067802Y0029671D01*
X0067636Y0029775D01*
X0067473Y0029884D01*
X0067313Y0029996D01*
X0067155Y0030112D01*
X0067000Y0030232D01*
X0066849Y0030356D01*
X0066700Y0030483D01*
X0066554Y0030614D01*
X0066412Y0030749D01*
X0066273Y0030887D01*
X0066137Y0031028D01*
X0066005Y0031173D01*
X0065877Y0031321D01*
X0065752Y0031471D01*
X0065630Y0031625D01*
X0065513Y0031782D01*
X0065399Y0031941D01*
X0065290Y0032104D01*
X0065184Y0032268D01*
X0065082Y0032436D01*
X0064985Y0032606D01*
X0064891Y0032778D01*
X0064802Y0032952D01*
X0064717Y0033129D01*
X0064637Y0033307D01*
X0064560Y0033488D01*
X0064489Y0033670D01*
X0064421Y0033854D01*
X0064358Y0034039D01*
X0064300Y0034226D01*
X0064246Y0034415D01*
X0064197Y0034604D01*
X0064153Y0034795D01*
X0064113Y0034987D01*
X0064078Y0035179D01*
X0064047Y0035373D01*
X0064022Y0035567D01*
X0064001Y0035762D01*
X0063984Y0035957D01*
X0063973Y0036152D01*
X0063966Y0036348D01*
X0063964Y0036544D01*
X0063967Y0036740D01*
X0063974Y0036935D01*
X0063987Y0037131D01*
X0064004Y0037326D01*
X0064026Y0037521D01*
X0064052Y0037715D01*
X0064083Y0037908D01*
X0064119Y0038100D01*
X0064160Y0038292D01*
X0064205Y0038483D01*
X0064255Y0038672D01*
X0064310Y0038860D01*
X0064369Y0039047D01*
X0064433Y0039232D01*
X0064501Y0039416D01*
X0064573Y0039598D01*
X0064650Y0039778D01*
X0064731Y0039956D01*
X0064817Y0040132D01*
X0064907Y0040306D01*
X0065001Y0040478D01*
X0065099Y0040647D01*
X0065202Y0040814D01*
X0065308Y0040978D01*
X0065419Y0041140D01*
X0065533Y0041299D01*
X0065651Y0041456D01*
X0065773Y0041609D01*
X0065898Y0041759D01*
X0066028Y0041906D01*
X0066160Y0042050D01*
X0066297Y0042191D01*
X0066436Y0042328D01*
X0066579Y0042462D01*
X0066725Y0042593D01*
X0066874Y0042720D01*
X0067027Y0042843D01*
X0067182Y0042962D01*
X0067340Y0043078D01*
X0067501Y0043189D01*
X0067665Y0043297D01*
X0067831Y0043401D01*
X0067999Y0043500D01*
D12*
X0176800Y0025003D02*
X0178935Y0025003D01*
X0177868Y0027138D02*
X0177868Y0021800D01*
X0181097Y0022868D02*
X0182165Y0023935D01*
X0185367Y0023935D01*
X0185367Y0025003D02*
X0185367Y0021800D01*
X0182165Y0021800D01*
X0181097Y0022868D01*
X0182165Y0026070D02*
X0184300Y0026070D01*
X0185367Y0025003D01*
X0187542Y0026070D02*
X0190745Y0026070D01*
X0191813Y0025003D01*
X0191813Y0022868D01*
X0190745Y0021800D01*
X0187542Y0021800D01*
X0187542Y0028205D01*
X0193988Y0028205D02*
X0193988Y0021800D01*
X0193988Y0023935D02*
X0197191Y0021800D01*
X0199359Y0022868D02*
X0200427Y0021800D01*
X0203630Y0021800D01*
X0203630Y0026070D01*
X0205805Y0026070D02*
X0205805Y0021800D01*
X0205805Y0023935D02*
X0207940Y0026070D01*
X0209007Y0026070D01*
X0212244Y0026070D02*
X0214379Y0026070D01*
X0215446Y0025003D01*
X0215446Y0021800D01*
X0212244Y0021800D01*
X0211176Y0022868D01*
X0212244Y0023935D01*
X0215446Y0023935D01*
X0217621Y0022868D02*
X0217621Y0021800D01*
X0218689Y0021800D01*
X0218689Y0022868D01*
X0217621Y0022868D01*
X0220844Y0022868D02*
X0221912Y0021800D01*
X0224047Y0021800D01*
X0225115Y0022868D01*
X0225115Y0025003D01*
X0224047Y0026070D01*
X0221912Y0026070D01*
X0220844Y0025003D01*
X0220844Y0022868D01*
X0227290Y0023935D02*
X0229425Y0026070D01*
X0230492Y0026070D01*
X0232661Y0025003D02*
X0233729Y0026070D01*
X0236931Y0026070D01*
X0236931Y0020732D01*
X0235864Y0019665D01*
X0234796Y0019665D01*
X0233729Y0021800D02*
X0236931Y0021800D01*
X0233729Y0021800D02*
X0232661Y0022868D01*
X0232661Y0025003D01*
X0227290Y0026070D02*
X0227290Y0021800D01*
X0229412Y0018205D02*
X0229412Y0011800D01*
X0226209Y0011800D01*
X0225141Y0012868D01*
X0225141Y0015003D01*
X0226209Y0016070D01*
X0229412Y0016070D01*
X0222973Y0016070D02*
X0221905Y0016070D01*
X0219770Y0013935D01*
X0219770Y0011800D02*
X0219770Y0016070D01*
X0217595Y0015003D02*
X0217595Y0011800D01*
X0214392Y0011800D01*
X0213324Y0012868D01*
X0214392Y0013935D01*
X0217595Y0013935D01*
X0217595Y0015003D02*
X0216527Y0016070D01*
X0214392Y0016070D01*
X0211149Y0015003D02*
X0210082Y0016070D01*
X0207947Y0016070D01*
X0206879Y0015003D01*
X0206879Y0012868D01*
X0207947Y0011800D01*
X0210082Y0011800D01*
X0211149Y0012868D01*
X0211149Y0015003D01*
X0204704Y0016070D02*
X0203636Y0015003D01*
X0200433Y0015003D01*
X0198258Y0015003D02*
X0197191Y0016070D01*
X0195056Y0016070D01*
X0193988Y0015003D01*
X0193988Y0012868D01*
X0195056Y0011800D01*
X0197191Y0011800D01*
X0198258Y0012868D01*
X0198258Y0015003D01*
X0200433Y0018205D02*
X0200433Y0011800D01*
X0203636Y0011800D01*
X0204704Y0012868D01*
X0204704Y0013935D01*
X0203636Y0015003D01*
X0204704Y0016070D02*
X0204704Y0017138D01*
X0203636Y0018205D01*
X0200433Y0018205D01*
X0199359Y0022868D02*
X0199359Y0026070D01*
X0197191Y0026070D02*
X0193988Y0023935D01*
X0191813Y0016070D02*
X0188610Y0016070D01*
X0187542Y0015003D01*
X0187542Y0012868D01*
X0188610Y0011800D01*
X0191813Y0011800D01*
X0185381Y0011800D02*
X0183245Y0011800D01*
X0184313Y0011800D02*
X0184313Y0016070D01*
X0183245Y0016070D01*
X0184313Y0018205D02*
X0184313Y0019273D01*
X0181070Y0017138D02*
X0181070Y0015003D01*
X0180003Y0013935D01*
X0176800Y0013935D01*
X0176800Y0011800D02*
X0176800Y0018205D01*
X0180003Y0018205D01*
X0181070Y0017138D01*
X0177868Y0027138D02*
X0178935Y0028205D01*
X0187701Y0082701D02*
X0187701Y0108902D01*
X0189098Y0110299D01*
X0215299Y0110299D01*
X0215299Y0082701D01*
X0187701Y0082701D01*
X0189286Y0107300D02*
X0189288Y0107375D01*
X0189294Y0107449D01*
X0189304Y0107523D01*
X0189317Y0107596D01*
X0189335Y0107669D01*
X0189356Y0107740D01*
X0189381Y0107811D01*
X0189410Y0107880D01*
X0189443Y0107947D01*
X0189479Y0108012D01*
X0189518Y0108076D01*
X0189560Y0108137D01*
X0189606Y0108196D01*
X0189655Y0108253D01*
X0189707Y0108306D01*
X0189761Y0108357D01*
X0189818Y0108406D01*
X0189878Y0108450D01*
X0189940Y0108492D01*
X0190004Y0108531D01*
X0190070Y0108566D01*
X0190137Y0108597D01*
X0190207Y0108625D01*
X0190277Y0108649D01*
X0190349Y0108670D01*
X0190422Y0108686D01*
X0190495Y0108699D01*
X0190570Y0108708D01*
X0190644Y0108713D01*
X0190719Y0108714D01*
X0190793Y0108711D01*
X0190868Y0108704D01*
X0190941Y0108693D01*
X0191015Y0108679D01*
X0191087Y0108660D01*
X0191158Y0108638D01*
X0191228Y0108612D01*
X0191297Y0108582D01*
X0191363Y0108549D01*
X0191428Y0108512D01*
X0191491Y0108472D01*
X0191552Y0108428D01*
X0191610Y0108382D01*
X0191666Y0108332D01*
X0191719Y0108280D01*
X0191770Y0108225D01*
X0191817Y0108167D01*
X0191861Y0108107D01*
X0191902Y0108044D01*
X0191940Y0107980D01*
X0191974Y0107914D01*
X0192005Y0107845D01*
X0192032Y0107776D01*
X0192055Y0107705D01*
X0192074Y0107633D01*
X0192090Y0107560D01*
X0192102Y0107486D01*
X0192110Y0107412D01*
X0192114Y0107337D01*
X0192114Y0107263D01*
X0192110Y0107188D01*
X0192102Y0107114D01*
X0192090Y0107040D01*
X0192074Y0106967D01*
X0192055Y0106895D01*
X0192032Y0106824D01*
X0192005Y0106755D01*
X0191974Y0106686D01*
X0191940Y0106620D01*
X0191902Y0106556D01*
X0191861Y0106493D01*
X0191817Y0106433D01*
X0191770Y0106375D01*
X0191719Y0106320D01*
X0191666Y0106268D01*
X0191610Y0106218D01*
X0191552Y0106172D01*
X0191491Y0106128D01*
X0191428Y0106088D01*
X0191363Y0106051D01*
X0191297Y0106018D01*
X0191228Y0105988D01*
X0191158Y0105962D01*
X0191087Y0105940D01*
X0191015Y0105921D01*
X0190941Y0105907D01*
X0190868Y0105896D01*
X0190793Y0105889D01*
X0190719Y0105886D01*
X0190644Y0105887D01*
X0190570Y0105892D01*
X0190495Y0105901D01*
X0190422Y0105914D01*
X0190349Y0105930D01*
X0190277Y0105951D01*
X0190207Y0105975D01*
X0190137Y0106003D01*
X0190070Y0106034D01*
X0190004Y0106069D01*
X0189940Y0106108D01*
X0189878Y0106150D01*
X0189818Y0106194D01*
X0189761Y0106243D01*
X0189707Y0106294D01*
X0189655Y0106347D01*
X0189606Y0106404D01*
X0189560Y0106463D01*
X0189518Y0106524D01*
X0189479Y0106588D01*
X0189443Y0106653D01*
X0189410Y0106720D01*
X0189381Y0106789D01*
X0189356Y0106860D01*
X0189335Y0106931D01*
X0189317Y0107004D01*
X0189304Y0107077D01*
X0189294Y0107151D01*
X0189288Y0107225D01*
X0189286Y0107300D01*
X0186028Y0154984D02*
X0186028Y0178016D01*
X0226972Y0178016D01*
X0226972Y0154984D01*
X0186028Y0154984D01*
X0188057Y0158823D02*
X0188059Y0158908D01*
X0188065Y0158992D01*
X0188075Y0159077D01*
X0188089Y0159160D01*
X0188106Y0159243D01*
X0188128Y0159325D01*
X0188154Y0159406D01*
X0188183Y0159486D01*
X0188216Y0159564D01*
X0188252Y0159640D01*
X0188292Y0159715D01*
X0188336Y0159788D01*
X0188383Y0159859D01*
X0188433Y0159927D01*
X0188486Y0159993D01*
X0188543Y0160056D01*
X0188602Y0160117D01*
X0188664Y0160175D01*
X0188729Y0160230D01*
X0188796Y0160282D01*
X0188865Y0160330D01*
X0188937Y0160375D01*
X0189011Y0160417D01*
X0189087Y0160455D01*
X0189164Y0160490D01*
X0189243Y0160521D01*
X0189323Y0160549D01*
X0189405Y0160572D01*
X0189487Y0160592D01*
X0189570Y0160608D01*
X0189654Y0160620D01*
X0189739Y0160628D01*
X0189824Y0160632D01*
X0189908Y0160632D01*
X0189993Y0160628D01*
X0190078Y0160620D01*
X0190162Y0160608D01*
X0190245Y0160592D01*
X0190327Y0160572D01*
X0190409Y0160549D01*
X0190489Y0160521D01*
X0190568Y0160490D01*
X0190645Y0160455D01*
X0190721Y0160417D01*
X0190795Y0160375D01*
X0190867Y0160330D01*
X0190936Y0160282D01*
X0191003Y0160230D01*
X0191068Y0160175D01*
X0191130Y0160117D01*
X0191189Y0160056D01*
X0191246Y0159993D01*
X0191299Y0159927D01*
X0191349Y0159859D01*
X0191396Y0159788D01*
X0191440Y0159715D01*
X0191480Y0159640D01*
X0191516Y0159564D01*
X0191549Y0159486D01*
X0191578Y0159406D01*
X0191604Y0159325D01*
X0191626Y0159243D01*
X0191643Y0159160D01*
X0191657Y0159077D01*
X0191667Y0158992D01*
X0191673Y0158908D01*
X0191675Y0158823D01*
X0191673Y0158738D01*
X0191667Y0158654D01*
X0191657Y0158569D01*
X0191643Y0158486D01*
X0191626Y0158403D01*
X0191604Y0158321D01*
X0191578Y0158240D01*
X0191549Y0158160D01*
X0191516Y0158082D01*
X0191480Y0158006D01*
X0191440Y0157931D01*
X0191396Y0157858D01*
X0191349Y0157787D01*
X0191299Y0157719D01*
X0191246Y0157653D01*
X0191189Y0157590D01*
X0191130Y0157529D01*
X0191068Y0157471D01*
X0191003Y0157416D01*
X0190936Y0157364D01*
X0190867Y0157316D01*
X0190795Y0157271D01*
X0190721Y0157229D01*
X0190645Y0157191D01*
X0190568Y0157156D01*
X0190489Y0157125D01*
X0190409Y0157097D01*
X0190327Y0157074D01*
X0190245Y0157054D01*
X0190162Y0157038D01*
X0190078Y0157026D01*
X0189993Y0157018D01*
X0189908Y0157014D01*
X0189824Y0157014D01*
X0189739Y0157018D01*
X0189654Y0157026D01*
X0189570Y0157038D01*
X0189487Y0157054D01*
X0189405Y0157074D01*
X0189323Y0157097D01*
X0189243Y0157125D01*
X0189164Y0157156D01*
X0189087Y0157191D01*
X0189011Y0157229D01*
X0188937Y0157271D01*
X0188865Y0157316D01*
X0188796Y0157364D01*
X0188729Y0157416D01*
X0188664Y0157471D01*
X0188602Y0157529D01*
X0188543Y0157590D01*
X0188486Y0157653D01*
X0188433Y0157719D01*
X0188383Y0157787D01*
X0188336Y0157858D01*
X0188292Y0157931D01*
X0188252Y0158006D01*
X0188216Y0158082D01*
X0188183Y0158160D01*
X0188154Y0158240D01*
X0188128Y0158321D01*
X0188106Y0158403D01*
X0188089Y0158486D01*
X0188075Y0158569D01*
X0188065Y0158654D01*
X0188059Y0158738D01*
X0188057Y0158823D01*
X0241500Y0174000D02*
X0241500Y0189000D01*
X0244000Y0191500D01*
X0249000Y0191500D01*
X0251500Y0189000D01*
X0251500Y0174000D01*
X0249000Y0171500D01*
X0244000Y0171500D01*
X0241500Y0174000D01*
X0251500Y0174000D02*
X0254000Y0171500D01*
X0259000Y0171500D01*
X0261500Y0174000D01*
X0261500Y0189000D01*
X0259000Y0191500D01*
X0254000Y0191500D01*
X0251500Y0189000D01*
X0261500Y0189000D02*
X0264000Y0191500D01*
X0269000Y0191500D01*
X0271500Y0189000D01*
X0271500Y0174000D01*
X0269000Y0171500D01*
X0264000Y0171500D01*
X0261500Y0174000D01*
X0105799Y0173598D02*
X0105799Y0159402D01*
X0087201Y0159402D01*
X0087201Y0173598D01*
X0105799Y0173598D01*
D13*
X0062909Y0177822D02*
X0059306Y0174219D01*
X0052100Y0174219D01*
X0057505Y0174219D02*
X0057505Y0181425D01*
X0059306Y0181425D02*
X0062909Y0177822D01*
X0059306Y0181425D02*
X0052100Y0181425D01*
X0052100Y0146425D02*
X0052100Y0141020D01*
X0053902Y0139219D01*
X0055703Y0139219D01*
X0057505Y0141020D01*
X0057505Y0146425D01*
X0062909Y0146425D02*
X0062909Y0141020D01*
X0061108Y0139219D01*
X0059306Y0139219D01*
X0057505Y0141020D01*
X0052100Y0146425D02*
X0062909Y0146425D01*
X0061108Y0111425D02*
X0053902Y0111425D01*
X0052100Y0109623D01*
X0052100Y0106020D01*
X0053902Y0104219D01*
X0061108Y0104219D02*
X0062909Y0106020D01*
X0062909Y0109623D01*
X0061108Y0111425D01*
X0062909Y0076425D02*
X0052100Y0076425D01*
X0052100Y0071020D01*
X0053902Y0069219D01*
X0061108Y0069219D01*
X0062909Y0071020D01*
X0062909Y0076425D01*
D14*
X0265500Y0194000D02*
X0265502Y0194063D01*
X0265508Y0194125D01*
X0265518Y0194187D01*
X0265531Y0194249D01*
X0265549Y0194309D01*
X0265570Y0194368D01*
X0265595Y0194426D01*
X0265624Y0194482D01*
X0265656Y0194536D01*
X0265691Y0194588D01*
X0265729Y0194637D01*
X0265771Y0194685D01*
X0265815Y0194729D01*
X0265863Y0194771D01*
X0265912Y0194809D01*
X0265964Y0194844D01*
X0266018Y0194876D01*
X0266074Y0194905D01*
X0266132Y0194930D01*
X0266191Y0194951D01*
X0266251Y0194969D01*
X0266313Y0194982D01*
X0266375Y0194992D01*
X0266437Y0194998D01*
X0266500Y0195000D01*
X0266563Y0194998D01*
X0266625Y0194992D01*
X0266687Y0194982D01*
X0266749Y0194969D01*
X0266809Y0194951D01*
X0266868Y0194930D01*
X0266926Y0194905D01*
X0266982Y0194876D01*
X0267036Y0194844D01*
X0267088Y0194809D01*
X0267137Y0194771D01*
X0267185Y0194729D01*
X0267229Y0194685D01*
X0267271Y0194637D01*
X0267309Y0194588D01*
X0267344Y0194536D01*
X0267376Y0194482D01*
X0267405Y0194426D01*
X0267430Y0194368D01*
X0267451Y0194309D01*
X0267469Y0194249D01*
X0267482Y0194187D01*
X0267492Y0194125D01*
X0267498Y0194063D01*
X0267500Y0194000D01*
X0267498Y0193937D01*
X0267492Y0193875D01*
X0267482Y0193813D01*
X0267469Y0193751D01*
X0267451Y0193691D01*
X0267430Y0193632D01*
X0267405Y0193574D01*
X0267376Y0193518D01*
X0267344Y0193464D01*
X0267309Y0193412D01*
X0267271Y0193363D01*
X0267229Y0193315D01*
X0267185Y0193271D01*
X0267137Y0193229D01*
X0267088Y0193191D01*
X0267036Y0193156D01*
X0266982Y0193124D01*
X0266926Y0193095D01*
X0266868Y0193070D01*
X0266809Y0193049D01*
X0266749Y0193031D01*
X0266687Y0193018D01*
X0266625Y0193008D01*
X0266563Y0193002D01*
X0266500Y0193000D01*
X0266437Y0193002D01*
X0266375Y0193008D01*
X0266313Y0193018D01*
X0266251Y0193031D01*
X0266191Y0193049D01*
X0266132Y0193070D01*
X0266074Y0193095D01*
X0266018Y0193124D01*
X0265964Y0193156D01*
X0265912Y0193191D01*
X0265863Y0193229D01*
X0265815Y0193271D01*
X0265771Y0193315D01*
X0265729Y0193363D01*
X0265691Y0193412D01*
X0265656Y0193464D01*
X0265624Y0193518D01*
X0265595Y0193574D01*
X0265570Y0193632D01*
X0265549Y0193691D01*
X0265531Y0193751D01*
X0265518Y0193813D01*
X0265508Y0193875D01*
X0265502Y0193937D01*
X0265500Y0194000D01*
D15*
X0386696Y0193556D02*
X0391300Y0193556D01*
X0391300Y0192022D02*
X0391300Y0195091D01*
X0388231Y0192022D02*
X0386696Y0193556D01*
X0390533Y0190487D02*
X0391300Y0190487D01*
X0391300Y0189720D01*
X0390533Y0189720D01*
X0390533Y0190487D01*
X0390533Y0188185D02*
X0391300Y0187418D01*
X0391300Y0185883D01*
X0390533Y0185116D01*
X0387463Y0188185D01*
X0390533Y0188185D01*
X0390533Y0185116D02*
X0387463Y0185116D01*
X0386696Y0185883D01*
X0386696Y0187418D01*
X0387463Y0188185D01*
X0386696Y0178977D02*
X0389765Y0178977D01*
X0391300Y0177442D01*
X0389765Y0175908D01*
X0386696Y0175908D01*
X0386696Y0174373D02*
X0386696Y0171304D01*
X0391300Y0171304D01*
X0391300Y0174373D01*
X0388998Y0172839D02*
X0388998Y0171304D01*
X0388998Y0169769D02*
X0389765Y0169002D01*
X0389765Y0166700D01*
X0389765Y0168235D02*
X0391300Y0169769D01*
X0388998Y0169769D02*
X0387463Y0169769D01*
X0386696Y0169002D01*
X0386696Y0166700D01*
X0391300Y0166700D01*
X0138294Y0044376D02*
X0135225Y0044376D01*
X0136759Y0045911D02*
X0136759Y0042841D01*
X0117625Y0044376D02*
X0114556Y0044376D01*
D16*
X0166500Y0096380D02*
X0166500Y0096620D01*
X0166500Y0106380D02*
X0166500Y0106620D01*
X0166500Y0131380D02*
X0166500Y0131620D01*
X0136500Y0151380D02*
X0136500Y0151620D01*
X0136500Y0166380D02*
X0136500Y0166620D01*
X0136500Y0181380D02*
X0136500Y0181620D01*
X0216500Y0191380D02*
X0216500Y0191620D01*
X0346500Y0106620D02*
X0346500Y0106380D01*
X0346500Y0096620D02*
X0346500Y0096380D01*
X0236500Y0096620D02*
X0236500Y0096380D01*
D17*
X0235274Y0099550D02*
X0235524Y0099800D01*
X0235524Y0100050D01*
X0235274Y0100301D01*
X0234523Y0100301D01*
X0234523Y0099800D01*
X0234773Y0099550D01*
X0235274Y0099550D01*
X0234523Y0100301D02*
X0235024Y0100801D01*
X0235524Y0101051D01*
X0234051Y0100801D02*
X0233801Y0101051D01*
X0233300Y0101051D01*
X0233050Y0100801D01*
X0233050Y0099800D01*
X0233300Y0099550D01*
X0233801Y0099550D01*
X0234051Y0099800D01*
X0215274Y0134550D02*
X0214773Y0134550D01*
X0214523Y0134800D01*
X0214051Y0134550D02*
X0213550Y0135050D01*
X0213801Y0135050D02*
X0213050Y0135050D01*
X0213050Y0134550D02*
X0213050Y0136051D01*
X0213801Y0136051D01*
X0214051Y0135801D01*
X0214051Y0135301D01*
X0213801Y0135050D01*
X0214523Y0135801D02*
X0214773Y0136051D01*
X0215274Y0136051D01*
X0215524Y0135801D01*
X0215524Y0135551D01*
X0215274Y0135301D01*
X0215524Y0135050D01*
X0215524Y0134800D01*
X0215274Y0134550D01*
X0215274Y0135301D02*
X0215024Y0135301D01*
X0165524Y0135551D02*
X0165524Y0135801D01*
X0165274Y0136051D01*
X0164773Y0136051D01*
X0164523Y0135801D01*
X0164051Y0135801D02*
X0163801Y0136051D01*
X0163300Y0136051D01*
X0163050Y0135801D01*
X0163050Y0134800D01*
X0163300Y0134550D01*
X0163801Y0134550D01*
X0164051Y0134800D01*
X0164523Y0134550D02*
X0165524Y0135551D01*
X0165524Y0134550D02*
X0164523Y0134550D01*
X0158774Y0151050D02*
X0158273Y0151050D01*
X0158023Y0151300D01*
X0157551Y0151300D02*
X0157301Y0151050D01*
X0156800Y0151050D01*
X0156550Y0151300D01*
X0156550Y0152301D01*
X0156800Y0152551D01*
X0157301Y0152551D01*
X0157551Y0152301D01*
X0158023Y0152551D02*
X0158023Y0151801D01*
X0158524Y0152051D01*
X0158774Y0152051D01*
X0159024Y0151801D01*
X0159024Y0151300D01*
X0158774Y0151050D01*
X0159024Y0152551D02*
X0158023Y0152551D01*
X0135524Y0154800D02*
X0135524Y0155801D01*
X0135274Y0156051D01*
X0134773Y0156051D01*
X0134523Y0155801D01*
X0134523Y0155551D01*
X0134773Y0155301D01*
X0135524Y0155301D01*
X0135524Y0154800D02*
X0135274Y0154550D01*
X0134773Y0154550D01*
X0134523Y0154800D01*
X0134051Y0154800D02*
X0133801Y0154550D01*
X0133300Y0154550D01*
X0133050Y0154800D01*
X0133050Y0155801D01*
X0133300Y0156051D01*
X0133801Y0156051D01*
X0134051Y0155801D01*
X0133801Y0169550D02*
X0134051Y0169800D01*
X0133801Y0169550D02*
X0133300Y0169550D01*
X0133050Y0169800D01*
X0133050Y0170801D01*
X0133300Y0171051D01*
X0133801Y0171051D01*
X0134051Y0170801D01*
X0134523Y0170801D02*
X0134523Y0170551D01*
X0134773Y0170301D01*
X0135274Y0170301D01*
X0135524Y0170050D01*
X0135524Y0169800D01*
X0135274Y0169550D01*
X0134773Y0169550D01*
X0134523Y0169800D01*
X0134523Y0170050D01*
X0134773Y0170301D01*
X0135274Y0170301D02*
X0135524Y0170551D01*
X0135524Y0170801D01*
X0135274Y0171051D01*
X0134773Y0171051D01*
X0134523Y0170801D01*
X0124550Y0172603D02*
X0124550Y0173354D01*
X0124300Y0173604D01*
X0123299Y0173604D01*
X0123049Y0173354D01*
X0123049Y0172603D01*
X0124550Y0172603D01*
X0124550Y0174077D02*
X0124550Y0175078D01*
X0124550Y0174577D02*
X0123049Y0174577D01*
X0123549Y0174077D01*
X0133300Y0184550D02*
X0133801Y0184550D01*
X0134051Y0184800D01*
X0134523Y0184800D02*
X0134523Y0184550D01*
X0134523Y0184800D02*
X0135524Y0185801D01*
X0135524Y0186051D01*
X0134523Y0186051D01*
X0134051Y0185801D02*
X0133801Y0186051D01*
X0133300Y0186051D01*
X0133050Y0185801D01*
X0133050Y0184800D01*
X0133300Y0184550D01*
X0154157Y0178701D02*
X0154157Y0177200D01*
X0155158Y0177200D01*
X0155630Y0177200D02*
X0156631Y0177200D01*
X0157103Y0177200D02*
X0157854Y0177200D01*
X0158104Y0177450D01*
X0158104Y0178451D01*
X0157854Y0178701D01*
X0157103Y0178701D01*
X0157103Y0177200D01*
X0156131Y0177951D02*
X0155630Y0177951D01*
X0155630Y0178701D02*
X0155630Y0177200D01*
X0155630Y0178701D02*
X0156631Y0178701D01*
X0158577Y0178201D02*
X0159077Y0178701D01*
X0159077Y0177200D01*
X0158577Y0177200D02*
X0159578Y0177200D01*
X0169157Y0177200D02*
X0170158Y0177200D01*
X0170630Y0177200D02*
X0171631Y0177200D01*
X0172103Y0177200D02*
X0172854Y0177200D01*
X0173104Y0177450D01*
X0173104Y0178451D01*
X0172854Y0178701D01*
X0172103Y0178701D01*
X0172103Y0177200D01*
X0171131Y0177951D02*
X0170630Y0177951D01*
X0170630Y0178701D02*
X0170630Y0177200D01*
X0169157Y0177200D02*
X0169157Y0178701D01*
X0170630Y0178701D02*
X0171631Y0178701D01*
X0173577Y0178451D02*
X0173827Y0178701D01*
X0174327Y0178701D01*
X0174578Y0178451D01*
X0174578Y0178201D01*
X0173577Y0177200D01*
X0174578Y0177200D01*
X0174578Y0186950D02*
X0173577Y0186950D01*
X0174578Y0187951D01*
X0174578Y0188201D01*
X0174327Y0188451D01*
X0173827Y0188451D01*
X0173577Y0188201D01*
X0173104Y0188201D02*
X0173104Y0187701D01*
X0172854Y0187450D01*
X0172103Y0187450D01*
X0172103Y0186950D02*
X0172103Y0188451D01*
X0172854Y0188451D01*
X0173104Y0188201D01*
X0172604Y0187450D02*
X0173104Y0186950D01*
X0159578Y0186950D02*
X0158577Y0186950D01*
X0158104Y0186950D02*
X0157604Y0187450D01*
X0157854Y0187450D02*
X0157103Y0187450D01*
X0157103Y0186950D02*
X0157103Y0188451D01*
X0157854Y0188451D01*
X0158104Y0188201D01*
X0158104Y0187701D01*
X0157854Y0187450D01*
X0158577Y0187951D02*
X0159077Y0188451D01*
X0159077Y0186950D01*
X0217103Y0187200D02*
X0217354Y0186950D01*
X0217854Y0186950D01*
X0218104Y0187200D01*
X0218577Y0186950D02*
X0219578Y0186950D01*
X0219077Y0186950D02*
X0219077Y0188451D01*
X0218577Y0187951D01*
X0218104Y0188201D02*
X0217854Y0188451D01*
X0217354Y0188451D01*
X0217103Y0188201D01*
X0217103Y0187200D01*
X0100524Y0145801D02*
X0100524Y0145551D01*
X0100274Y0145301D01*
X0099773Y0145301D01*
X0099523Y0145551D01*
X0099523Y0145801D01*
X0099773Y0146051D01*
X0100274Y0146051D01*
X0100524Y0145801D01*
X0100274Y0145301D02*
X0100524Y0145050D01*
X0100524Y0144800D01*
X0100274Y0144550D01*
X0099773Y0144550D01*
X0099523Y0144800D01*
X0099523Y0145050D01*
X0099773Y0145301D01*
X0099051Y0145301D02*
X0098801Y0145050D01*
X0098050Y0145050D01*
X0098050Y0144550D02*
X0098050Y0146051D01*
X0098801Y0146051D01*
X0099051Y0145801D01*
X0099051Y0145301D01*
X0098550Y0145050D02*
X0099051Y0144550D01*
X0085524Y0144800D02*
X0085524Y0145050D01*
X0085274Y0145301D01*
X0084523Y0145301D01*
X0084523Y0144800D01*
X0084773Y0144550D01*
X0085274Y0144550D01*
X0085524Y0144800D01*
X0085024Y0145801D02*
X0084523Y0145301D01*
X0084051Y0145301D02*
X0083801Y0145050D01*
X0083050Y0145050D01*
X0083050Y0144550D02*
X0083050Y0146051D01*
X0083801Y0146051D01*
X0084051Y0145801D01*
X0084051Y0145301D01*
X0083550Y0145050D02*
X0084051Y0144550D01*
X0085024Y0145801D02*
X0085524Y0146051D01*
X0081050Y0157103D02*
X0079549Y0157103D01*
X0079549Y0157854D01*
X0079799Y0158104D01*
X0080299Y0158104D01*
X0080550Y0157854D01*
X0080550Y0157103D01*
X0080550Y0157604D02*
X0081050Y0158104D01*
X0080800Y0158577D02*
X0081050Y0158827D01*
X0081050Y0159327D01*
X0080800Y0159578D01*
X0080299Y0159578D01*
X0080049Y0159327D01*
X0080049Y0159077D01*
X0080299Y0158577D01*
X0079549Y0158577D01*
X0079549Y0159578D01*
X0061050Y0160630D02*
X0059549Y0160630D01*
X0059549Y0161381D01*
X0059799Y0161631D01*
X0060299Y0161631D01*
X0060550Y0161381D01*
X0060550Y0160630D01*
X0060550Y0161131D02*
X0061050Y0161631D01*
X0061050Y0162103D02*
X0061050Y0163104D01*
X0061050Y0162604D02*
X0059549Y0162604D01*
X0060049Y0162103D01*
X0059799Y0163577D02*
X0059549Y0163827D01*
X0059549Y0164327D01*
X0059799Y0164578D01*
X0060800Y0163577D01*
X0061050Y0163827D01*
X0061050Y0164327D01*
X0060800Y0164578D01*
X0059799Y0164578D01*
X0059799Y0163577D02*
X0060800Y0163577D01*
X0083050Y0131051D02*
X0083801Y0131051D01*
X0084051Y0130801D01*
X0084051Y0130301D01*
X0083801Y0130050D01*
X0083050Y0130050D01*
X0083050Y0129550D02*
X0083050Y0131051D01*
X0083550Y0130050D02*
X0084051Y0129550D01*
X0084523Y0129550D02*
X0084523Y0129800D01*
X0085524Y0130801D01*
X0085524Y0131051D01*
X0084523Y0131051D01*
X0098050Y0131051D02*
X0098801Y0131051D01*
X0099051Y0130801D01*
X0099051Y0130301D01*
X0098801Y0130050D01*
X0098050Y0130050D01*
X0098050Y0129550D02*
X0098050Y0131051D01*
X0098550Y0130050D02*
X0099051Y0129550D01*
X0099523Y0129800D02*
X0099773Y0129550D01*
X0100274Y0129550D01*
X0100524Y0129800D01*
X0100524Y0130801D01*
X0100274Y0131051D01*
X0099773Y0131051D01*
X0099523Y0130801D01*
X0099523Y0130551D01*
X0099773Y0130301D01*
X0100524Y0130301D01*
X0053450Y0126997D02*
X0053450Y0125997D01*
X0053450Y0125524D02*
X0053450Y0124523D01*
X0053450Y0124051D02*
X0052950Y0123550D01*
X0052950Y0123801D02*
X0052950Y0123050D01*
X0053450Y0123050D02*
X0051949Y0123050D01*
X0051949Y0123801D01*
X0052199Y0124051D01*
X0052699Y0124051D01*
X0052950Y0123801D01*
X0052449Y0124523D02*
X0051949Y0125024D01*
X0053450Y0125024D01*
X0052449Y0125997D02*
X0051949Y0126497D01*
X0053450Y0126497D01*
X0053450Y0091997D02*
X0053450Y0090997D01*
X0052449Y0091997D01*
X0052199Y0091997D01*
X0051949Y0091747D01*
X0051949Y0091247D01*
X0052199Y0090997D01*
X0051949Y0090024D02*
X0053450Y0090024D01*
X0053450Y0090524D02*
X0053450Y0089523D01*
X0053450Y0089051D02*
X0052950Y0088550D01*
X0052950Y0088801D02*
X0052950Y0088050D01*
X0053450Y0088050D02*
X0051949Y0088050D01*
X0051949Y0088801D01*
X0052199Y0089051D01*
X0052699Y0089051D01*
X0052950Y0088801D01*
X0052449Y0089523D02*
X0051949Y0090024D01*
X0052199Y0056997D02*
X0052449Y0056997D01*
X0052699Y0056747D01*
X0052950Y0056997D01*
X0053200Y0056997D01*
X0053450Y0056747D01*
X0053450Y0056247D01*
X0053200Y0055997D01*
X0053450Y0055524D02*
X0053450Y0054523D01*
X0053450Y0054051D02*
X0052950Y0053550D01*
X0052950Y0053801D02*
X0052950Y0053050D01*
X0053450Y0053050D02*
X0051949Y0053050D01*
X0051949Y0053801D01*
X0052199Y0054051D01*
X0052699Y0054051D01*
X0052950Y0053801D01*
X0052449Y0054523D02*
X0051949Y0055024D01*
X0053450Y0055024D01*
X0052199Y0055997D02*
X0051949Y0056247D01*
X0051949Y0056747D01*
X0052199Y0056997D01*
X0052699Y0056747D02*
X0052699Y0056497D01*
X0163050Y0099800D02*
X0163300Y0099550D01*
X0163801Y0099550D01*
X0164051Y0099800D01*
X0164523Y0099800D02*
X0164773Y0099550D01*
X0165274Y0099550D01*
X0165524Y0099800D01*
X0165524Y0100050D01*
X0165274Y0100301D01*
X0165024Y0100301D01*
X0165274Y0100301D02*
X0165524Y0100551D01*
X0165524Y0100801D01*
X0165274Y0101051D01*
X0164773Y0101051D01*
X0164523Y0100801D01*
X0164051Y0100801D02*
X0163801Y0101051D01*
X0163300Y0101051D01*
X0163050Y0100801D01*
X0163050Y0099800D01*
X0163300Y0109550D02*
X0163801Y0109550D01*
X0164051Y0109800D01*
X0164523Y0110301D02*
X0165524Y0110301D01*
X0165274Y0111051D02*
X0164523Y0110301D01*
X0164051Y0110801D02*
X0163801Y0111051D01*
X0163300Y0111051D01*
X0163050Y0110801D01*
X0163050Y0109800D01*
X0163300Y0109550D01*
X0165274Y0109550D02*
X0165274Y0111051D01*
X0173050Y0080078D02*
X0173050Y0079077D01*
X0173050Y0079577D02*
X0171549Y0079577D01*
X0172049Y0079077D01*
X0171799Y0078604D02*
X0171549Y0078604D01*
X0171799Y0078604D02*
X0172299Y0078104D01*
X0173050Y0078104D01*
X0172299Y0078104D02*
X0171799Y0077603D01*
X0171549Y0077603D01*
X0345630Y0092200D02*
X0345880Y0091950D01*
X0346381Y0091950D01*
X0346631Y0092200D01*
X0347103Y0091950D02*
X0348104Y0091950D01*
X0348577Y0091950D02*
X0349578Y0091950D01*
X0349077Y0091950D02*
X0349077Y0093451D01*
X0348577Y0092951D01*
X0347604Y0093451D02*
X0347604Y0091950D01*
X0347103Y0092951D02*
X0347604Y0093451D01*
X0346631Y0093201D02*
X0346381Y0093451D01*
X0345880Y0093451D01*
X0345630Y0093201D01*
X0345630Y0092200D01*
X0345880Y0101950D02*
X0346381Y0101950D01*
X0346631Y0102200D01*
X0347103Y0101950D02*
X0348104Y0101950D01*
X0347604Y0101950D02*
X0347604Y0103451D01*
X0347103Y0102951D01*
X0346631Y0103201D02*
X0346381Y0103451D01*
X0345880Y0103451D01*
X0345630Y0103201D01*
X0345630Y0102200D01*
X0345880Y0101950D01*
X0348577Y0102200D02*
X0349578Y0103201D01*
X0349578Y0102200D01*
X0349327Y0101950D01*
X0348827Y0101950D01*
X0348577Y0102200D01*
X0348577Y0103201D01*
X0348827Y0103451D01*
X0349327Y0103451D01*
X0349578Y0103201D01*
X0345274Y0119550D02*
X0345274Y0121051D01*
X0344523Y0120301D01*
X0345524Y0120301D01*
X0344051Y0120301D02*
X0343801Y0120050D01*
X0343050Y0120050D01*
X0343050Y0119550D02*
X0343050Y0121051D01*
X0343801Y0121051D01*
X0344051Y0120801D01*
X0344051Y0120301D01*
X0343550Y0120050D02*
X0344051Y0119550D01*
D18*
X0346500Y0116500D03*
X0216500Y0131500D03*
X0171500Y0191500D03*
X0156500Y0191500D03*
X0101500Y0141500D03*
X0086500Y0141500D03*
X0086500Y0126500D03*
X0101500Y0126500D03*
D19*
X0110791Y0157445D02*
X0110791Y0175555D01*
X0112563Y0175555D01*
X0120437Y0175555D02*
X0122209Y0175555D01*
X0122209Y0157445D01*
X0120437Y0157445D01*
X0120437Y0162563D02*
X0112563Y0162563D01*
X0112563Y0157445D02*
X0110791Y0157445D01*
X0155831Y0179689D02*
X0155831Y0181500D01*
X0157051Y0182420D01*
X0155831Y0183311D02*
X0155831Y0181500D01*
X0155891Y0181400D02*
X0157051Y0180640D01*
X0170831Y0181500D02*
X0172051Y0182420D01*
X0170831Y0183311D02*
X0170831Y0181500D01*
X0170831Y0179689D01*
X0172051Y0180640D02*
X0170891Y0181400D01*
X0042602Y0180634D02*
X0042602Y0186343D01*
X0038665Y0186343D01*
X0030988Y0186343D02*
X0020358Y0186343D01*
X0010122Y0186343D02*
X0005594Y0186343D01*
X0005594Y0181618D01*
X0001657Y0181618D01*
X0001657Y0176500D01*
X0001657Y0171382D01*
X0005594Y0171382D01*
X0005594Y0166657D01*
X0009925Y0166657D01*
X0005594Y0171382D02*
X0005594Y0176500D01*
X0005594Y0181618D01*
X0020161Y0166657D02*
X0030988Y0166657D01*
X0038862Y0166657D02*
X0042602Y0166657D01*
X0042602Y0172563D01*
X0042602Y0151343D02*
X0038665Y0151343D01*
X0042602Y0151343D02*
X0042602Y0145634D01*
X0042602Y0137563D02*
X0042602Y0131657D01*
X0038862Y0131657D01*
X0030988Y0131657D02*
X0020161Y0131657D01*
X0009925Y0131657D02*
X0005594Y0131657D01*
X0005594Y0136382D01*
X0001657Y0136382D01*
X0001657Y0141500D01*
X0001657Y0146618D01*
X0005594Y0146618D01*
X0005594Y0151343D01*
X0010122Y0151343D01*
X0005594Y0146618D02*
X0005594Y0141500D01*
X0005594Y0136382D01*
X0020358Y0151343D02*
X0030988Y0151343D01*
X0030988Y0116343D02*
X0020358Y0116343D01*
X0010122Y0116343D02*
X0005594Y0116343D01*
X0005594Y0111618D01*
X0001657Y0111618D01*
X0001657Y0106500D01*
X0001657Y0101382D01*
X0005594Y0101382D01*
X0005594Y0096657D01*
X0009925Y0096657D01*
X0005594Y0101382D02*
X0005594Y0106500D01*
X0005594Y0111618D01*
X0020161Y0096657D02*
X0030988Y0096657D01*
X0038862Y0096657D02*
X0042602Y0096657D01*
X0042602Y0102563D01*
X0042602Y0110634D02*
X0042602Y0116343D01*
X0038665Y0116343D01*
X0038665Y0081343D02*
X0042602Y0081343D01*
X0042602Y0075634D01*
X0042602Y0067563D02*
X0042602Y0061657D01*
X0038862Y0061657D01*
X0030988Y0061657D02*
X0020161Y0061657D01*
X0009925Y0061657D02*
X0005594Y0061657D01*
X0005594Y0066382D01*
X0001657Y0066382D01*
X0001657Y0071500D01*
X0001657Y0076618D01*
X0005594Y0076618D01*
X0005594Y0081343D01*
X0010122Y0081343D01*
X0005594Y0076618D02*
X0005594Y0071500D01*
X0005594Y0066382D01*
X0020358Y0081343D02*
X0030988Y0081343D01*
X0163981Y0083897D02*
X0169099Y0083897D01*
X0169099Y0069133D02*
X0163981Y0069133D01*
X0277878Y0066185D02*
X0277878Y0026815D01*
X0281815Y0022878D01*
X0285752Y0022878D01*
X0297563Y0022878D02*
X0305437Y0022878D01*
X0317248Y0022878D02*
X0321185Y0022878D01*
X0325122Y0026815D01*
X0325122Y0066185D01*
X0321185Y0070122D01*
X0317248Y0070122D01*
X0305437Y0070122D02*
X0297563Y0070122D01*
X0285752Y0070122D02*
X0281815Y0070122D01*
X0277878Y0066185D01*
X0287720Y0046500D02*
X0287724Y0046838D01*
X0287737Y0047176D01*
X0287757Y0047514D01*
X0287786Y0047851D01*
X0287824Y0048187D01*
X0287869Y0048522D01*
X0287923Y0048856D01*
X0287985Y0049188D01*
X0288055Y0049519D01*
X0288133Y0049848D01*
X0288219Y0050175D01*
X0288313Y0050500D01*
X0288416Y0050823D01*
X0288526Y0051142D01*
X0288643Y0051459D01*
X0288769Y0051773D01*
X0288902Y0052084D01*
X0289043Y0052392D01*
X0289191Y0052696D01*
X0289347Y0052996D01*
X0289510Y0053292D01*
X0289680Y0053584D01*
X0289858Y0053872D01*
X0290042Y0054156D01*
X0290234Y0054435D01*
X0290432Y0054709D01*
X0290637Y0054978D01*
X0290848Y0055242D01*
X0291066Y0055501D01*
X0291290Y0055754D01*
X0291520Y0056002D01*
X0291756Y0056244D01*
X0291998Y0056480D01*
X0292246Y0056710D01*
X0292499Y0056934D01*
X0292758Y0057152D01*
X0293022Y0057363D01*
X0293291Y0057568D01*
X0293565Y0057766D01*
X0293844Y0057958D01*
X0294128Y0058142D01*
X0294416Y0058320D01*
X0294708Y0058490D01*
X0295004Y0058653D01*
X0295304Y0058809D01*
X0295608Y0058957D01*
X0295916Y0059098D01*
X0296227Y0059231D01*
X0296541Y0059357D01*
X0296858Y0059474D01*
X0297177Y0059584D01*
X0297500Y0059687D01*
X0297825Y0059781D01*
X0298152Y0059867D01*
X0298481Y0059945D01*
X0298812Y0060015D01*
X0299144Y0060077D01*
X0299478Y0060131D01*
X0299813Y0060176D01*
X0300149Y0060214D01*
X0300486Y0060243D01*
X0300824Y0060263D01*
X0301162Y0060276D01*
X0301500Y0060280D01*
X0301838Y0060276D01*
X0302176Y0060263D01*
X0302514Y0060243D01*
X0302851Y0060214D01*
X0303187Y0060176D01*
X0303522Y0060131D01*
X0303856Y0060077D01*
X0304188Y0060015D01*
X0304519Y0059945D01*
X0304848Y0059867D01*
X0305175Y0059781D01*
X0305500Y0059687D01*
X0305823Y0059584D01*
X0306142Y0059474D01*
X0306459Y0059357D01*
X0306773Y0059231D01*
X0307084Y0059098D01*
X0307392Y0058957D01*
X0307696Y0058809D01*
X0307996Y0058653D01*
X0308292Y0058490D01*
X0308584Y0058320D01*
X0308872Y0058142D01*
X0309156Y0057958D01*
X0309435Y0057766D01*
X0309709Y0057568D01*
X0309978Y0057363D01*
X0310242Y0057152D01*
X0310501Y0056934D01*
X0310754Y0056710D01*
X0311002Y0056480D01*
X0311244Y0056244D01*
X0311480Y0056002D01*
X0311710Y0055754D01*
X0311934Y0055501D01*
X0312152Y0055242D01*
X0312363Y0054978D01*
X0312568Y0054709D01*
X0312766Y0054435D01*
X0312958Y0054156D01*
X0313142Y0053872D01*
X0313320Y0053584D01*
X0313490Y0053292D01*
X0313653Y0052996D01*
X0313809Y0052696D01*
X0313957Y0052392D01*
X0314098Y0052084D01*
X0314231Y0051773D01*
X0314357Y0051459D01*
X0314474Y0051142D01*
X0314584Y0050823D01*
X0314687Y0050500D01*
X0314781Y0050175D01*
X0314867Y0049848D01*
X0314945Y0049519D01*
X0315015Y0049188D01*
X0315077Y0048856D01*
X0315131Y0048522D01*
X0315176Y0048187D01*
X0315214Y0047851D01*
X0315243Y0047514D01*
X0315263Y0047176D01*
X0315276Y0046838D01*
X0315280Y0046500D01*
X0315276Y0046162D01*
X0315263Y0045824D01*
X0315243Y0045486D01*
X0315214Y0045149D01*
X0315176Y0044813D01*
X0315131Y0044478D01*
X0315077Y0044144D01*
X0315015Y0043812D01*
X0314945Y0043481D01*
X0314867Y0043152D01*
X0314781Y0042825D01*
X0314687Y0042500D01*
X0314584Y0042177D01*
X0314474Y0041858D01*
X0314357Y0041541D01*
X0314231Y0041227D01*
X0314098Y0040916D01*
X0313957Y0040608D01*
X0313809Y0040304D01*
X0313653Y0040004D01*
X0313490Y0039708D01*
X0313320Y0039416D01*
X0313142Y0039128D01*
X0312958Y0038844D01*
X0312766Y0038565D01*
X0312568Y0038291D01*
X0312363Y0038022D01*
X0312152Y0037758D01*
X0311934Y0037499D01*
X0311710Y0037246D01*
X0311480Y0036998D01*
X0311244Y0036756D01*
X0311002Y0036520D01*
X0310754Y0036290D01*
X0310501Y0036066D01*
X0310242Y0035848D01*
X0309978Y0035637D01*
X0309709Y0035432D01*
X0309435Y0035234D01*
X0309156Y0035042D01*
X0308872Y0034858D01*
X0308584Y0034680D01*
X0308292Y0034510D01*
X0307996Y0034347D01*
X0307696Y0034191D01*
X0307392Y0034043D01*
X0307084Y0033902D01*
X0306773Y0033769D01*
X0306459Y0033643D01*
X0306142Y0033526D01*
X0305823Y0033416D01*
X0305500Y0033313D01*
X0305175Y0033219D01*
X0304848Y0033133D01*
X0304519Y0033055D01*
X0304188Y0032985D01*
X0303856Y0032923D01*
X0303522Y0032869D01*
X0303187Y0032824D01*
X0302851Y0032786D01*
X0302514Y0032757D01*
X0302176Y0032737D01*
X0301838Y0032724D01*
X0301500Y0032720D01*
X0301162Y0032724D01*
X0300824Y0032737D01*
X0300486Y0032757D01*
X0300149Y0032786D01*
X0299813Y0032824D01*
X0299478Y0032869D01*
X0299144Y0032923D01*
X0298812Y0032985D01*
X0298481Y0033055D01*
X0298152Y0033133D01*
X0297825Y0033219D01*
X0297500Y0033313D01*
X0297177Y0033416D01*
X0296858Y0033526D01*
X0296541Y0033643D01*
X0296227Y0033769D01*
X0295916Y0033902D01*
X0295608Y0034043D01*
X0295304Y0034191D01*
X0295004Y0034347D01*
X0294708Y0034510D01*
X0294416Y0034680D01*
X0294128Y0034858D01*
X0293844Y0035042D01*
X0293565Y0035234D01*
X0293291Y0035432D01*
X0293022Y0035637D01*
X0292758Y0035848D01*
X0292499Y0036066D01*
X0292246Y0036290D01*
X0291998Y0036520D01*
X0291756Y0036756D01*
X0291520Y0036998D01*
X0291290Y0037246D01*
X0291066Y0037499D01*
X0290848Y0037758D01*
X0290637Y0038022D01*
X0290432Y0038291D01*
X0290234Y0038565D01*
X0290042Y0038844D01*
X0289858Y0039128D01*
X0289680Y0039416D01*
X0289510Y0039708D01*
X0289347Y0040004D01*
X0289191Y0040304D01*
X0289043Y0040608D01*
X0288902Y0040916D01*
X0288769Y0041227D01*
X0288643Y0041541D01*
X0288526Y0041858D01*
X0288416Y0042177D01*
X0288313Y0042500D01*
X0288219Y0042825D01*
X0288133Y0043152D01*
X0288055Y0043481D01*
X0287985Y0043812D01*
X0287923Y0044144D01*
X0287869Y0044478D01*
X0287824Y0044813D01*
X0287786Y0045149D01*
X0287757Y0045486D01*
X0287737Y0045824D01*
X0287724Y0046162D01*
X0287720Y0046500D01*
X0302602Y0123626D02*
X0302602Y0135398D01*
X0306303Y0139374D02*
X0306697Y0139374D01*
X0310319Y0135280D02*
X0310319Y0123626D01*
X0309492Y0123626D01*
X0303508Y0123626D02*
X0302602Y0123626D01*
D20*
X0076500Y0156500D03*
X0056500Y0161500D03*
X0056500Y0126500D03*
X0056500Y0091500D03*
X0056500Y0056500D03*
D21*
X0107406Y0036500D02*
X0107412Y0036969D01*
X0107429Y0037437D01*
X0107458Y0037905D01*
X0107498Y0038372D01*
X0107550Y0038837D01*
X0107613Y0039302D01*
X0107687Y0039764D01*
X0107773Y0040225D01*
X0107870Y0040684D01*
X0107978Y0041139D01*
X0108098Y0041593D01*
X0108228Y0042043D01*
X0108370Y0042489D01*
X0108522Y0042933D01*
X0108685Y0043372D01*
X0108859Y0043807D01*
X0109044Y0044238D01*
X0109239Y0044664D01*
X0109445Y0045085D01*
X0109661Y0045501D01*
X0109887Y0045911D01*
X0110123Y0046316D01*
X0110368Y0046715D01*
X0110624Y0047108D01*
X0110889Y0047494D01*
X0111164Y0047874D01*
X0111447Y0048247D01*
X0111740Y0048613D01*
X0112042Y0048972D01*
X0112352Y0049323D01*
X0112671Y0049666D01*
X0112999Y0050001D01*
X0113334Y0050329D01*
X0113677Y0050648D01*
X0114028Y0050958D01*
X0114387Y0051260D01*
X0114753Y0051553D01*
X0115126Y0051836D01*
X0115506Y0052111D01*
X0115892Y0052376D01*
X0116285Y0052632D01*
X0116684Y0052877D01*
X0117089Y0053113D01*
X0117499Y0053339D01*
X0117915Y0053555D01*
X0118336Y0053761D01*
X0118762Y0053956D01*
X0119193Y0054141D01*
X0119628Y0054315D01*
X0120067Y0054478D01*
X0120511Y0054630D01*
X0120957Y0054772D01*
X0121407Y0054902D01*
X0121861Y0055022D01*
X0122316Y0055130D01*
X0122775Y0055227D01*
X0123236Y0055313D01*
X0123698Y0055387D01*
X0124163Y0055450D01*
X0124628Y0055502D01*
X0125095Y0055542D01*
X0125563Y0055571D01*
X0126031Y0055588D01*
X0126500Y0055594D01*
X0126969Y0055588D01*
X0127437Y0055571D01*
X0127905Y0055542D01*
X0128372Y0055502D01*
X0128837Y0055450D01*
X0129302Y0055387D01*
X0129764Y0055313D01*
X0130225Y0055227D01*
X0130684Y0055130D01*
X0131139Y0055022D01*
X0131593Y0054902D01*
X0132043Y0054772D01*
X0132489Y0054630D01*
X0132933Y0054478D01*
X0133372Y0054315D01*
X0133807Y0054141D01*
X0134238Y0053956D01*
X0134664Y0053761D01*
X0135085Y0053555D01*
X0135501Y0053339D01*
X0135911Y0053113D01*
X0136316Y0052877D01*
X0136715Y0052632D01*
X0137108Y0052376D01*
X0137494Y0052111D01*
X0137874Y0051836D01*
X0138247Y0051553D01*
X0138613Y0051260D01*
X0138972Y0050958D01*
X0139323Y0050648D01*
X0139666Y0050329D01*
X0140001Y0050001D01*
X0140329Y0049666D01*
X0140648Y0049323D01*
X0140958Y0048972D01*
X0141260Y0048613D01*
X0141553Y0048247D01*
X0141836Y0047874D01*
X0142111Y0047494D01*
X0142376Y0047108D01*
X0142632Y0046715D01*
X0142877Y0046316D01*
X0143113Y0045911D01*
X0143339Y0045501D01*
X0143555Y0045085D01*
X0143761Y0044664D01*
X0143956Y0044238D01*
X0144141Y0043807D01*
X0144315Y0043372D01*
X0144478Y0042933D01*
X0144630Y0042489D01*
X0144772Y0042043D01*
X0144902Y0041593D01*
X0145022Y0041139D01*
X0145130Y0040684D01*
X0145227Y0040225D01*
X0145313Y0039764D01*
X0145387Y0039302D01*
X0145450Y0038837D01*
X0145502Y0038372D01*
X0145542Y0037905D01*
X0145571Y0037437D01*
X0145588Y0036969D01*
X0145594Y0036500D01*
X0145588Y0036031D01*
X0145571Y0035563D01*
X0145542Y0035095D01*
X0145502Y0034628D01*
X0145450Y0034163D01*
X0145387Y0033698D01*
X0145313Y0033236D01*
X0145227Y0032775D01*
X0145130Y0032316D01*
X0145022Y0031861D01*
X0144902Y0031407D01*
X0144772Y0030957D01*
X0144630Y0030511D01*
X0144478Y0030067D01*
X0144315Y0029628D01*
X0144141Y0029193D01*
X0143956Y0028762D01*
X0143761Y0028336D01*
X0143555Y0027915D01*
X0143339Y0027499D01*
X0143113Y0027089D01*
X0142877Y0026684D01*
X0142632Y0026285D01*
X0142376Y0025892D01*
X0142111Y0025506D01*
X0141836Y0025126D01*
X0141553Y0024753D01*
X0141260Y0024387D01*
X0140958Y0024028D01*
X0140648Y0023677D01*
X0140329Y0023334D01*
X0140001Y0022999D01*
X0139666Y0022671D01*
X0139323Y0022352D01*
X0138972Y0022042D01*
X0138613Y0021740D01*
X0138247Y0021447D01*
X0137874Y0021164D01*
X0137494Y0020889D01*
X0137108Y0020624D01*
X0136715Y0020368D01*
X0136316Y0020123D01*
X0135911Y0019887D01*
X0135501Y0019661D01*
X0135085Y0019445D01*
X0134664Y0019239D01*
X0134238Y0019044D01*
X0133807Y0018859D01*
X0133372Y0018685D01*
X0132933Y0018522D01*
X0132489Y0018370D01*
X0132043Y0018228D01*
X0131593Y0018098D01*
X0131139Y0017978D01*
X0130684Y0017870D01*
X0130225Y0017773D01*
X0129764Y0017687D01*
X0129302Y0017613D01*
X0128837Y0017550D01*
X0128372Y0017498D01*
X0127905Y0017458D01*
X0127437Y0017429D01*
X0126969Y0017412D01*
X0126500Y0017406D01*
X0126031Y0017412D01*
X0125563Y0017429D01*
X0125095Y0017458D01*
X0124628Y0017498D01*
X0124163Y0017550D01*
X0123698Y0017613D01*
X0123236Y0017687D01*
X0122775Y0017773D01*
X0122316Y0017870D01*
X0121861Y0017978D01*
X0121407Y0018098D01*
X0120957Y0018228D01*
X0120511Y0018370D01*
X0120067Y0018522D01*
X0119628Y0018685D01*
X0119193Y0018859D01*
X0118762Y0019044D01*
X0118336Y0019239D01*
X0117915Y0019445D01*
X0117499Y0019661D01*
X0117089Y0019887D01*
X0116684Y0020123D01*
X0116285Y0020368D01*
X0115892Y0020624D01*
X0115506Y0020889D01*
X0115126Y0021164D01*
X0114753Y0021447D01*
X0114387Y0021740D01*
X0114028Y0022042D01*
X0113677Y0022352D01*
X0113334Y0022671D01*
X0112999Y0022999D01*
X0112671Y0023334D01*
X0112352Y0023677D01*
X0112042Y0024028D01*
X0111740Y0024387D01*
X0111447Y0024753D01*
X0111164Y0025126D01*
X0110889Y0025506D01*
X0110624Y0025892D01*
X0110368Y0026285D01*
X0110123Y0026684D01*
X0109887Y0027089D01*
X0109661Y0027499D01*
X0109445Y0027915D01*
X0109239Y0028336D01*
X0109044Y0028762D01*
X0108859Y0029193D01*
X0108685Y0029628D01*
X0108522Y0030067D01*
X0108370Y0030511D01*
X0108228Y0030957D01*
X0108098Y0031407D01*
X0107978Y0031861D01*
X0107870Y0032316D01*
X0107773Y0032775D01*
X0107687Y0033236D01*
X0107613Y0033698D01*
X0107550Y0034163D01*
X0107498Y0034628D01*
X0107458Y0035095D01*
X0107429Y0035563D01*
X0107412Y0036031D01*
X0107406Y0036500D01*
X0053862Y0203783D02*
X0053862Y0239217D01*
X0349138Y0239217D01*
X0349138Y0203783D01*
X0053862Y0203783D01*
D22*
X0069808Y0204965D02*
X0069810Y0205080D01*
X0069816Y0205196D01*
X0069826Y0205311D01*
X0069840Y0205426D01*
X0069858Y0205540D01*
X0069880Y0205653D01*
X0069905Y0205766D01*
X0069935Y0205877D01*
X0069968Y0205988D01*
X0070005Y0206097D01*
X0070046Y0206205D01*
X0070091Y0206312D01*
X0070139Y0206417D01*
X0070191Y0206520D01*
X0070247Y0206621D01*
X0070306Y0206721D01*
X0070368Y0206818D01*
X0070434Y0206913D01*
X0070502Y0207006D01*
X0070574Y0207096D01*
X0070649Y0207184D01*
X0070728Y0207269D01*
X0070809Y0207351D01*
X0070892Y0207431D01*
X0070979Y0207507D01*
X0071068Y0207581D01*
X0071159Y0207651D01*
X0071253Y0207719D01*
X0071349Y0207783D01*
X0071448Y0207843D01*
X0071548Y0207900D01*
X0071650Y0207954D01*
X0071754Y0208004D01*
X0071860Y0208051D01*
X0071967Y0208094D01*
X0072076Y0208133D01*
X0072186Y0208168D01*
X0072297Y0208199D01*
X0072409Y0208227D01*
X0072522Y0208251D01*
X0072636Y0208271D01*
X0072751Y0208287D01*
X0072866Y0208299D01*
X0072981Y0208307D01*
X0073096Y0208311D01*
X0073212Y0208311D01*
X0073327Y0208307D01*
X0073442Y0208299D01*
X0073557Y0208287D01*
X0073672Y0208271D01*
X0073786Y0208251D01*
X0073899Y0208227D01*
X0074011Y0208199D01*
X0074122Y0208168D01*
X0074232Y0208133D01*
X0074341Y0208094D01*
X0074448Y0208051D01*
X0074554Y0208004D01*
X0074658Y0207954D01*
X0074760Y0207900D01*
X0074860Y0207843D01*
X0074959Y0207783D01*
X0075055Y0207719D01*
X0075149Y0207651D01*
X0075240Y0207581D01*
X0075329Y0207507D01*
X0075416Y0207431D01*
X0075499Y0207351D01*
X0075580Y0207269D01*
X0075659Y0207184D01*
X0075734Y0207096D01*
X0075806Y0207006D01*
X0075874Y0206913D01*
X0075940Y0206818D01*
X0076002Y0206721D01*
X0076061Y0206621D01*
X0076117Y0206520D01*
X0076169Y0206417D01*
X0076217Y0206312D01*
X0076262Y0206205D01*
X0076303Y0206097D01*
X0076340Y0205988D01*
X0076373Y0205877D01*
X0076403Y0205766D01*
X0076428Y0205653D01*
X0076450Y0205540D01*
X0076468Y0205426D01*
X0076482Y0205311D01*
X0076492Y0205196D01*
X0076498Y0205080D01*
X0076500Y0204965D01*
X0076498Y0204850D01*
X0076492Y0204734D01*
X0076482Y0204619D01*
X0076468Y0204504D01*
X0076450Y0204390D01*
X0076428Y0204277D01*
X0076403Y0204164D01*
X0076373Y0204053D01*
X0076340Y0203942D01*
X0076303Y0203833D01*
X0076262Y0203725D01*
X0076217Y0203618D01*
X0076169Y0203513D01*
X0076117Y0203410D01*
X0076061Y0203309D01*
X0076002Y0203209D01*
X0075940Y0203112D01*
X0075874Y0203017D01*
X0075806Y0202924D01*
X0075734Y0202834D01*
X0075659Y0202746D01*
X0075580Y0202661D01*
X0075499Y0202579D01*
X0075416Y0202499D01*
X0075329Y0202423D01*
X0075240Y0202349D01*
X0075149Y0202279D01*
X0075055Y0202211D01*
X0074959Y0202147D01*
X0074860Y0202087D01*
X0074760Y0202030D01*
X0074658Y0201976D01*
X0074554Y0201926D01*
X0074448Y0201879D01*
X0074341Y0201836D01*
X0074232Y0201797D01*
X0074122Y0201762D01*
X0074011Y0201731D01*
X0073899Y0201703D01*
X0073786Y0201679D01*
X0073672Y0201659D01*
X0073557Y0201643D01*
X0073442Y0201631D01*
X0073327Y0201623D01*
X0073212Y0201619D01*
X0073096Y0201619D01*
X0072981Y0201623D01*
X0072866Y0201631D01*
X0072751Y0201643D01*
X0072636Y0201659D01*
X0072522Y0201679D01*
X0072409Y0201703D01*
X0072297Y0201731D01*
X0072186Y0201762D01*
X0072076Y0201797D01*
X0071967Y0201836D01*
X0071860Y0201879D01*
X0071754Y0201926D01*
X0071650Y0201976D01*
X0071548Y0202030D01*
X0071448Y0202087D01*
X0071349Y0202147D01*
X0071253Y0202211D01*
X0071159Y0202279D01*
X0071068Y0202349D01*
X0070979Y0202423D01*
X0070892Y0202499D01*
X0070809Y0202579D01*
X0070728Y0202661D01*
X0070649Y0202746D01*
X0070574Y0202834D01*
X0070502Y0202924D01*
X0070434Y0203017D01*
X0070368Y0203112D01*
X0070306Y0203209D01*
X0070247Y0203309D01*
X0070191Y0203410D01*
X0070139Y0203513D01*
X0070091Y0203618D01*
X0070046Y0203725D01*
X0070005Y0203833D01*
X0069968Y0203942D01*
X0069935Y0204053D01*
X0069905Y0204164D01*
X0069880Y0204277D01*
X0069858Y0204390D01*
X0069840Y0204504D01*
X0069826Y0204619D01*
X0069816Y0204734D01*
X0069810Y0204850D01*
X0069808Y0204965D01*
X0024886Y0176500D02*
X0024888Y0176597D01*
X0024894Y0176694D01*
X0024904Y0176790D01*
X0024918Y0176886D01*
X0024936Y0176982D01*
X0024957Y0177076D01*
X0024983Y0177170D01*
X0025012Y0177262D01*
X0025046Y0177353D01*
X0025082Y0177443D01*
X0025123Y0177531D01*
X0025167Y0177617D01*
X0025215Y0177702D01*
X0025266Y0177784D01*
X0025320Y0177865D01*
X0025378Y0177943D01*
X0025439Y0178018D01*
X0025502Y0178091D01*
X0025569Y0178162D01*
X0025639Y0178229D01*
X0025711Y0178294D01*
X0025786Y0178355D01*
X0025864Y0178414D01*
X0025943Y0178469D01*
X0026025Y0178521D01*
X0026109Y0178569D01*
X0026195Y0178614D01*
X0026283Y0178656D01*
X0026372Y0178694D01*
X0026463Y0178728D01*
X0026555Y0178758D01*
X0026648Y0178785D01*
X0026743Y0178807D01*
X0026838Y0178826D01*
X0026934Y0178841D01*
X0027030Y0178852D01*
X0027127Y0178859D01*
X0027224Y0178862D01*
X0027321Y0178861D01*
X0027418Y0178856D01*
X0027514Y0178847D01*
X0027610Y0178834D01*
X0027706Y0178817D01*
X0027801Y0178796D01*
X0027894Y0178772D01*
X0027987Y0178743D01*
X0028079Y0178711D01*
X0028169Y0178675D01*
X0028257Y0178636D01*
X0028344Y0178592D01*
X0028429Y0178546D01*
X0028512Y0178495D01*
X0028593Y0178442D01*
X0028671Y0178385D01*
X0028748Y0178325D01*
X0028821Y0178262D01*
X0028892Y0178196D01*
X0028960Y0178127D01*
X0029026Y0178055D01*
X0029088Y0177981D01*
X0029147Y0177904D01*
X0029203Y0177825D01*
X0029256Y0177743D01*
X0029306Y0177660D01*
X0029351Y0177574D01*
X0029394Y0177487D01*
X0029433Y0177398D01*
X0029468Y0177308D01*
X0029499Y0177216D01*
X0029526Y0177123D01*
X0029550Y0177029D01*
X0029570Y0176934D01*
X0029586Y0176838D01*
X0029598Y0176742D01*
X0029606Y0176645D01*
X0029610Y0176548D01*
X0029610Y0176452D01*
X0029606Y0176355D01*
X0029598Y0176258D01*
X0029586Y0176162D01*
X0029570Y0176066D01*
X0029550Y0175971D01*
X0029526Y0175877D01*
X0029499Y0175784D01*
X0029468Y0175692D01*
X0029433Y0175602D01*
X0029394Y0175513D01*
X0029351Y0175426D01*
X0029306Y0175340D01*
X0029256Y0175257D01*
X0029203Y0175175D01*
X0029147Y0175096D01*
X0029088Y0175019D01*
X0029026Y0174945D01*
X0028960Y0174873D01*
X0028892Y0174804D01*
X0028821Y0174738D01*
X0028748Y0174675D01*
X0028671Y0174615D01*
X0028593Y0174558D01*
X0028512Y0174505D01*
X0028429Y0174454D01*
X0028344Y0174408D01*
X0028257Y0174364D01*
X0028169Y0174325D01*
X0028079Y0174289D01*
X0027987Y0174257D01*
X0027894Y0174228D01*
X0027801Y0174204D01*
X0027706Y0174183D01*
X0027610Y0174166D01*
X0027514Y0174153D01*
X0027418Y0174144D01*
X0027321Y0174139D01*
X0027224Y0174138D01*
X0027127Y0174141D01*
X0027030Y0174148D01*
X0026934Y0174159D01*
X0026838Y0174174D01*
X0026743Y0174193D01*
X0026648Y0174215D01*
X0026555Y0174242D01*
X0026463Y0174272D01*
X0026372Y0174306D01*
X0026283Y0174344D01*
X0026195Y0174386D01*
X0026109Y0174431D01*
X0026025Y0174479D01*
X0025943Y0174531D01*
X0025864Y0174586D01*
X0025786Y0174645D01*
X0025711Y0174706D01*
X0025639Y0174771D01*
X0025569Y0174838D01*
X0025502Y0174909D01*
X0025439Y0174982D01*
X0025378Y0175057D01*
X0025320Y0175135D01*
X0025266Y0175216D01*
X0025215Y0175298D01*
X0025167Y0175383D01*
X0025123Y0175469D01*
X0025082Y0175557D01*
X0025046Y0175647D01*
X0025012Y0175738D01*
X0024983Y0175830D01*
X0024957Y0175924D01*
X0024936Y0176018D01*
X0024918Y0176114D01*
X0024904Y0176210D01*
X0024894Y0176306D01*
X0024888Y0176403D01*
X0024886Y0176500D01*
X0009138Y0176500D02*
X0009140Y0176597D01*
X0009146Y0176694D01*
X0009156Y0176790D01*
X0009170Y0176886D01*
X0009188Y0176982D01*
X0009209Y0177076D01*
X0009235Y0177170D01*
X0009264Y0177262D01*
X0009298Y0177353D01*
X0009334Y0177443D01*
X0009375Y0177531D01*
X0009419Y0177617D01*
X0009467Y0177702D01*
X0009518Y0177784D01*
X0009572Y0177865D01*
X0009630Y0177943D01*
X0009691Y0178018D01*
X0009754Y0178091D01*
X0009821Y0178162D01*
X0009891Y0178229D01*
X0009963Y0178294D01*
X0010038Y0178355D01*
X0010116Y0178414D01*
X0010195Y0178469D01*
X0010277Y0178521D01*
X0010361Y0178569D01*
X0010447Y0178614D01*
X0010535Y0178656D01*
X0010624Y0178694D01*
X0010715Y0178728D01*
X0010807Y0178758D01*
X0010900Y0178785D01*
X0010995Y0178807D01*
X0011090Y0178826D01*
X0011186Y0178841D01*
X0011282Y0178852D01*
X0011379Y0178859D01*
X0011476Y0178862D01*
X0011573Y0178861D01*
X0011670Y0178856D01*
X0011766Y0178847D01*
X0011862Y0178834D01*
X0011958Y0178817D01*
X0012053Y0178796D01*
X0012146Y0178772D01*
X0012239Y0178743D01*
X0012331Y0178711D01*
X0012421Y0178675D01*
X0012509Y0178636D01*
X0012596Y0178592D01*
X0012681Y0178546D01*
X0012764Y0178495D01*
X0012845Y0178442D01*
X0012923Y0178385D01*
X0013000Y0178325D01*
X0013073Y0178262D01*
X0013144Y0178196D01*
X0013212Y0178127D01*
X0013278Y0178055D01*
X0013340Y0177981D01*
X0013399Y0177904D01*
X0013455Y0177825D01*
X0013508Y0177743D01*
X0013558Y0177660D01*
X0013603Y0177574D01*
X0013646Y0177487D01*
X0013685Y0177398D01*
X0013720Y0177308D01*
X0013751Y0177216D01*
X0013778Y0177123D01*
X0013802Y0177029D01*
X0013822Y0176934D01*
X0013838Y0176838D01*
X0013850Y0176742D01*
X0013858Y0176645D01*
X0013862Y0176548D01*
X0013862Y0176452D01*
X0013858Y0176355D01*
X0013850Y0176258D01*
X0013838Y0176162D01*
X0013822Y0176066D01*
X0013802Y0175971D01*
X0013778Y0175877D01*
X0013751Y0175784D01*
X0013720Y0175692D01*
X0013685Y0175602D01*
X0013646Y0175513D01*
X0013603Y0175426D01*
X0013558Y0175340D01*
X0013508Y0175257D01*
X0013455Y0175175D01*
X0013399Y0175096D01*
X0013340Y0175019D01*
X0013278Y0174945D01*
X0013212Y0174873D01*
X0013144Y0174804D01*
X0013073Y0174738D01*
X0013000Y0174675D01*
X0012923Y0174615D01*
X0012845Y0174558D01*
X0012764Y0174505D01*
X0012681Y0174454D01*
X0012596Y0174408D01*
X0012509Y0174364D01*
X0012421Y0174325D01*
X0012331Y0174289D01*
X0012239Y0174257D01*
X0012146Y0174228D01*
X0012053Y0174204D01*
X0011958Y0174183D01*
X0011862Y0174166D01*
X0011766Y0174153D01*
X0011670Y0174144D01*
X0011573Y0174139D01*
X0011476Y0174138D01*
X0011379Y0174141D01*
X0011282Y0174148D01*
X0011186Y0174159D01*
X0011090Y0174174D01*
X0010995Y0174193D01*
X0010900Y0174215D01*
X0010807Y0174242D01*
X0010715Y0174272D01*
X0010624Y0174306D01*
X0010535Y0174344D01*
X0010447Y0174386D01*
X0010361Y0174431D01*
X0010277Y0174479D01*
X0010195Y0174531D01*
X0010116Y0174586D01*
X0010038Y0174645D01*
X0009963Y0174706D01*
X0009891Y0174771D01*
X0009821Y0174838D01*
X0009754Y0174909D01*
X0009691Y0174982D01*
X0009630Y0175057D01*
X0009572Y0175135D01*
X0009518Y0175216D01*
X0009467Y0175298D01*
X0009419Y0175383D01*
X0009375Y0175469D01*
X0009334Y0175557D01*
X0009298Y0175647D01*
X0009264Y0175738D01*
X0009235Y0175830D01*
X0009209Y0175924D01*
X0009188Y0176018D01*
X0009170Y0176114D01*
X0009156Y0176210D01*
X0009146Y0176306D01*
X0009140Y0176403D01*
X0009138Y0176500D01*
X0009138Y0141500D02*
X0009140Y0141597D01*
X0009146Y0141694D01*
X0009156Y0141790D01*
X0009170Y0141886D01*
X0009188Y0141982D01*
X0009209Y0142076D01*
X0009235Y0142170D01*
X0009264Y0142262D01*
X0009298Y0142353D01*
X0009334Y0142443D01*
X0009375Y0142531D01*
X0009419Y0142617D01*
X0009467Y0142702D01*
X0009518Y0142784D01*
X0009572Y0142865D01*
X0009630Y0142943D01*
X0009691Y0143018D01*
X0009754Y0143091D01*
X0009821Y0143162D01*
X0009891Y0143229D01*
X0009963Y0143294D01*
X0010038Y0143355D01*
X0010116Y0143414D01*
X0010195Y0143469D01*
X0010277Y0143521D01*
X0010361Y0143569D01*
X0010447Y0143614D01*
X0010535Y0143656D01*
X0010624Y0143694D01*
X0010715Y0143728D01*
X0010807Y0143758D01*
X0010900Y0143785D01*
X0010995Y0143807D01*
X0011090Y0143826D01*
X0011186Y0143841D01*
X0011282Y0143852D01*
X0011379Y0143859D01*
X0011476Y0143862D01*
X0011573Y0143861D01*
X0011670Y0143856D01*
X0011766Y0143847D01*
X0011862Y0143834D01*
X0011958Y0143817D01*
X0012053Y0143796D01*
X0012146Y0143772D01*
X0012239Y0143743D01*
X0012331Y0143711D01*
X0012421Y0143675D01*
X0012509Y0143636D01*
X0012596Y0143592D01*
X0012681Y0143546D01*
X0012764Y0143495D01*
X0012845Y0143442D01*
X0012923Y0143385D01*
X0013000Y0143325D01*
X0013073Y0143262D01*
X0013144Y0143196D01*
X0013212Y0143127D01*
X0013278Y0143055D01*
X0013340Y0142981D01*
X0013399Y0142904D01*
X0013455Y0142825D01*
X0013508Y0142743D01*
X0013558Y0142660D01*
X0013603Y0142574D01*
X0013646Y0142487D01*
X0013685Y0142398D01*
X0013720Y0142308D01*
X0013751Y0142216D01*
X0013778Y0142123D01*
X0013802Y0142029D01*
X0013822Y0141934D01*
X0013838Y0141838D01*
X0013850Y0141742D01*
X0013858Y0141645D01*
X0013862Y0141548D01*
X0013862Y0141452D01*
X0013858Y0141355D01*
X0013850Y0141258D01*
X0013838Y0141162D01*
X0013822Y0141066D01*
X0013802Y0140971D01*
X0013778Y0140877D01*
X0013751Y0140784D01*
X0013720Y0140692D01*
X0013685Y0140602D01*
X0013646Y0140513D01*
X0013603Y0140426D01*
X0013558Y0140340D01*
X0013508Y0140257D01*
X0013455Y0140175D01*
X0013399Y0140096D01*
X0013340Y0140019D01*
X0013278Y0139945D01*
X0013212Y0139873D01*
X0013144Y0139804D01*
X0013073Y0139738D01*
X0013000Y0139675D01*
X0012923Y0139615D01*
X0012845Y0139558D01*
X0012764Y0139505D01*
X0012681Y0139454D01*
X0012596Y0139408D01*
X0012509Y0139364D01*
X0012421Y0139325D01*
X0012331Y0139289D01*
X0012239Y0139257D01*
X0012146Y0139228D01*
X0012053Y0139204D01*
X0011958Y0139183D01*
X0011862Y0139166D01*
X0011766Y0139153D01*
X0011670Y0139144D01*
X0011573Y0139139D01*
X0011476Y0139138D01*
X0011379Y0139141D01*
X0011282Y0139148D01*
X0011186Y0139159D01*
X0011090Y0139174D01*
X0010995Y0139193D01*
X0010900Y0139215D01*
X0010807Y0139242D01*
X0010715Y0139272D01*
X0010624Y0139306D01*
X0010535Y0139344D01*
X0010447Y0139386D01*
X0010361Y0139431D01*
X0010277Y0139479D01*
X0010195Y0139531D01*
X0010116Y0139586D01*
X0010038Y0139645D01*
X0009963Y0139706D01*
X0009891Y0139771D01*
X0009821Y0139838D01*
X0009754Y0139909D01*
X0009691Y0139982D01*
X0009630Y0140057D01*
X0009572Y0140135D01*
X0009518Y0140216D01*
X0009467Y0140298D01*
X0009419Y0140383D01*
X0009375Y0140469D01*
X0009334Y0140557D01*
X0009298Y0140647D01*
X0009264Y0140738D01*
X0009235Y0140830D01*
X0009209Y0140924D01*
X0009188Y0141018D01*
X0009170Y0141114D01*
X0009156Y0141210D01*
X0009146Y0141306D01*
X0009140Y0141403D01*
X0009138Y0141500D01*
X0024886Y0141500D02*
X0024888Y0141597D01*
X0024894Y0141694D01*
X0024904Y0141790D01*
X0024918Y0141886D01*
X0024936Y0141982D01*
X0024957Y0142076D01*
X0024983Y0142170D01*
X0025012Y0142262D01*
X0025046Y0142353D01*
X0025082Y0142443D01*
X0025123Y0142531D01*
X0025167Y0142617D01*
X0025215Y0142702D01*
X0025266Y0142784D01*
X0025320Y0142865D01*
X0025378Y0142943D01*
X0025439Y0143018D01*
X0025502Y0143091D01*
X0025569Y0143162D01*
X0025639Y0143229D01*
X0025711Y0143294D01*
X0025786Y0143355D01*
X0025864Y0143414D01*
X0025943Y0143469D01*
X0026025Y0143521D01*
X0026109Y0143569D01*
X0026195Y0143614D01*
X0026283Y0143656D01*
X0026372Y0143694D01*
X0026463Y0143728D01*
X0026555Y0143758D01*
X0026648Y0143785D01*
X0026743Y0143807D01*
X0026838Y0143826D01*
X0026934Y0143841D01*
X0027030Y0143852D01*
X0027127Y0143859D01*
X0027224Y0143862D01*
X0027321Y0143861D01*
X0027418Y0143856D01*
X0027514Y0143847D01*
X0027610Y0143834D01*
X0027706Y0143817D01*
X0027801Y0143796D01*
X0027894Y0143772D01*
X0027987Y0143743D01*
X0028079Y0143711D01*
X0028169Y0143675D01*
X0028257Y0143636D01*
X0028344Y0143592D01*
X0028429Y0143546D01*
X0028512Y0143495D01*
X0028593Y0143442D01*
X0028671Y0143385D01*
X0028748Y0143325D01*
X0028821Y0143262D01*
X0028892Y0143196D01*
X0028960Y0143127D01*
X0029026Y0143055D01*
X0029088Y0142981D01*
X0029147Y0142904D01*
X0029203Y0142825D01*
X0029256Y0142743D01*
X0029306Y0142660D01*
X0029351Y0142574D01*
X0029394Y0142487D01*
X0029433Y0142398D01*
X0029468Y0142308D01*
X0029499Y0142216D01*
X0029526Y0142123D01*
X0029550Y0142029D01*
X0029570Y0141934D01*
X0029586Y0141838D01*
X0029598Y0141742D01*
X0029606Y0141645D01*
X0029610Y0141548D01*
X0029610Y0141452D01*
X0029606Y0141355D01*
X0029598Y0141258D01*
X0029586Y0141162D01*
X0029570Y0141066D01*
X0029550Y0140971D01*
X0029526Y0140877D01*
X0029499Y0140784D01*
X0029468Y0140692D01*
X0029433Y0140602D01*
X0029394Y0140513D01*
X0029351Y0140426D01*
X0029306Y0140340D01*
X0029256Y0140257D01*
X0029203Y0140175D01*
X0029147Y0140096D01*
X0029088Y0140019D01*
X0029026Y0139945D01*
X0028960Y0139873D01*
X0028892Y0139804D01*
X0028821Y0139738D01*
X0028748Y0139675D01*
X0028671Y0139615D01*
X0028593Y0139558D01*
X0028512Y0139505D01*
X0028429Y0139454D01*
X0028344Y0139408D01*
X0028257Y0139364D01*
X0028169Y0139325D01*
X0028079Y0139289D01*
X0027987Y0139257D01*
X0027894Y0139228D01*
X0027801Y0139204D01*
X0027706Y0139183D01*
X0027610Y0139166D01*
X0027514Y0139153D01*
X0027418Y0139144D01*
X0027321Y0139139D01*
X0027224Y0139138D01*
X0027127Y0139141D01*
X0027030Y0139148D01*
X0026934Y0139159D01*
X0026838Y0139174D01*
X0026743Y0139193D01*
X0026648Y0139215D01*
X0026555Y0139242D01*
X0026463Y0139272D01*
X0026372Y0139306D01*
X0026283Y0139344D01*
X0026195Y0139386D01*
X0026109Y0139431D01*
X0026025Y0139479D01*
X0025943Y0139531D01*
X0025864Y0139586D01*
X0025786Y0139645D01*
X0025711Y0139706D01*
X0025639Y0139771D01*
X0025569Y0139838D01*
X0025502Y0139909D01*
X0025439Y0139982D01*
X0025378Y0140057D01*
X0025320Y0140135D01*
X0025266Y0140216D01*
X0025215Y0140298D01*
X0025167Y0140383D01*
X0025123Y0140469D01*
X0025082Y0140557D01*
X0025046Y0140647D01*
X0025012Y0140738D01*
X0024983Y0140830D01*
X0024957Y0140924D01*
X0024936Y0141018D01*
X0024918Y0141114D01*
X0024904Y0141210D01*
X0024894Y0141306D01*
X0024888Y0141403D01*
X0024886Y0141500D01*
X0024886Y0106500D02*
X0024888Y0106597D01*
X0024894Y0106694D01*
X0024904Y0106790D01*
X0024918Y0106886D01*
X0024936Y0106982D01*
X0024957Y0107076D01*
X0024983Y0107170D01*
X0025012Y0107262D01*
X0025046Y0107353D01*
X0025082Y0107443D01*
X0025123Y0107531D01*
X0025167Y0107617D01*
X0025215Y0107702D01*
X0025266Y0107784D01*
X0025320Y0107865D01*
X0025378Y0107943D01*
X0025439Y0108018D01*
X0025502Y0108091D01*
X0025569Y0108162D01*
X0025639Y0108229D01*
X0025711Y0108294D01*
X0025786Y0108355D01*
X0025864Y0108414D01*
X0025943Y0108469D01*
X0026025Y0108521D01*
X0026109Y0108569D01*
X0026195Y0108614D01*
X0026283Y0108656D01*
X0026372Y0108694D01*
X0026463Y0108728D01*
X0026555Y0108758D01*
X0026648Y0108785D01*
X0026743Y0108807D01*
X0026838Y0108826D01*
X0026934Y0108841D01*
X0027030Y0108852D01*
X0027127Y0108859D01*
X0027224Y0108862D01*
X0027321Y0108861D01*
X0027418Y0108856D01*
X0027514Y0108847D01*
X0027610Y0108834D01*
X0027706Y0108817D01*
X0027801Y0108796D01*
X0027894Y0108772D01*
X0027987Y0108743D01*
X0028079Y0108711D01*
X0028169Y0108675D01*
X0028257Y0108636D01*
X0028344Y0108592D01*
X0028429Y0108546D01*
X0028512Y0108495D01*
X0028593Y0108442D01*
X0028671Y0108385D01*
X0028748Y0108325D01*
X0028821Y0108262D01*
X0028892Y0108196D01*
X0028960Y0108127D01*
X0029026Y0108055D01*
X0029088Y0107981D01*
X0029147Y0107904D01*
X0029203Y0107825D01*
X0029256Y0107743D01*
X0029306Y0107660D01*
X0029351Y0107574D01*
X0029394Y0107487D01*
X0029433Y0107398D01*
X0029468Y0107308D01*
X0029499Y0107216D01*
X0029526Y0107123D01*
X0029550Y0107029D01*
X0029570Y0106934D01*
X0029586Y0106838D01*
X0029598Y0106742D01*
X0029606Y0106645D01*
X0029610Y0106548D01*
X0029610Y0106452D01*
X0029606Y0106355D01*
X0029598Y0106258D01*
X0029586Y0106162D01*
X0029570Y0106066D01*
X0029550Y0105971D01*
X0029526Y0105877D01*
X0029499Y0105784D01*
X0029468Y0105692D01*
X0029433Y0105602D01*
X0029394Y0105513D01*
X0029351Y0105426D01*
X0029306Y0105340D01*
X0029256Y0105257D01*
X0029203Y0105175D01*
X0029147Y0105096D01*
X0029088Y0105019D01*
X0029026Y0104945D01*
X0028960Y0104873D01*
X0028892Y0104804D01*
X0028821Y0104738D01*
X0028748Y0104675D01*
X0028671Y0104615D01*
X0028593Y0104558D01*
X0028512Y0104505D01*
X0028429Y0104454D01*
X0028344Y0104408D01*
X0028257Y0104364D01*
X0028169Y0104325D01*
X0028079Y0104289D01*
X0027987Y0104257D01*
X0027894Y0104228D01*
X0027801Y0104204D01*
X0027706Y0104183D01*
X0027610Y0104166D01*
X0027514Y0104153D01*
X0027418Y0104144D01*
X0027321Y0104139D01*
X0027224Y0104138D01*
X0027127Y0104141D01*
X0027030Y0104148D01*
X0026934Y0104159D01*
X0026838Y0104174D01*
X0026743Y0104193D01*
X0026648Y0104215D01*
X0026555Y0104242D01*
X0026463Y0104272D01*
X0026372Y0104306D01*
X0026283Y0104344D01*
X0026195Y0104386D01*
X0026109Y0104431D01*
X0026025Y0104479D01*
X0025943Y0104531D01*
X0025864Y0104586D01*
X0025786Y0104645D01*
X0025711Y0104706D01*
X0025639Y0104771D01*
X0025569Y0104838D01*
X0025502Y0104909D01*
X0025439Y0104982D01*
X0025378Y0105057D01*
X0025320Y0105135D01*
X0025266Y0105216D01*
X0025215Y0105298D01*
X0025167Y0105383D01*
X0025123Y0105469D01*
X0025082Y0105557D01*
X0025046Y0105647D01*
X0025012Y0105738D01*
X0024983Y0105830D01*
X0024957Y0105924D01*
X0024936Y0106018D01*
X0024918Y0106114D01*
X0024904Y0106210D01*
X0024894Y0106306D01*
X0024888Y0106403D01*
X0024886Y0106500D01*
X0009138Y0106500D02*
X0009140Y0106597D01*
X0009146Y0106694D01*
X0009156Y0106790D01*
X0009170Y0106886D01*
X0009188Y0106982D01*
X0009209Y0107076D01*
X0009235Y0107170D01*
X0009264Y0107262D01*
X0009298Y0107353D01*
X0009334Y0107443D01*
X0009375Y0107531D01*
X0009419Y0107617D01*
X0009467Y0107702D01*
X0009518Y0107784D01*
X0009572Y0107865D01*
X0009630Y0107943D01*
X0009691Y0108018D01*
X0009754Y0108091D01*
X0009821Y0108162D01*
X0009891Y0108229D01*
X0009963Y0108294D01*
X0010038Y0108355D01*
X0010116Y0108414D01*
X0010195Y0108469D01*
X0010277Y0108521D01*
X0010361Y0108569D01*
X0010447Y0108614D01*
X0010535Y0108656D01*
X0010624Y0108694D01*
X0010715Y0108728D01*
X0010807Y0108758D01*
X0010900Y0108785D01*
X0010995Y0108807D01*
X0011090Y0108826D01*
X0011186Y0108841D01*
X0011282Y0108852D01*
X0011379Y0108859D01*
X0011476Y0108862D01*
X0011573Y0108861D01*
X0011670Y0108856D01*
X0011766Y0108847D01*
X0011862Y0108834D01*
X0011958Y0108817D01*
X0012053Y0108796D01*
X0012146Y0108772D01*
X0012239Y0108743D01*
X0012331Y0108711D01*
X0012421Y0108675D01*
X0012509Y0108636D01*
X0012596Y0108592D01*
X0012681Y0108546D01*
X0012764Y0108495D01*
X0012845Y0108442D01*
X0012923Y0108385D01*
X0013000Y0108325D01*
X0013073Y0108262D01*
X0013144Y0108196D01*
X0013212Y0108127D01*
X0013278Y0108055D01*
X0013340Y0107981D01*
X0013399Y0107904D01*
X0013455Y0107825D01*
X0013508Y0107743D01*
X0013558Y0107660D01*
X0013603Y0107574D01*
X0013646Y0107487D01*
X0013685Y0107398D01*
X0013720Y0107308D01*
X0013751Y0107216D01*
X0013778Y0107123D01*
X0013802Y0107029D01*
X0013822Y0106934D01*
X0013838Y0106838D01*
X0013850Y0106742D01*
X0013858Y0106645D01*
X0013862Y0106548D01*
X0013862Y0106452D01*
X0013858Y0106355D01*
X0013850Y0106258D01*
X0013838Y0106162D01*
X0013822Y0106066D01*
X0013802Y0105971D01*
X0013778Y0105877D01*
X0013751Y0105784D01*
X0013720Y0105692D01*
X0013685Y0105602D01*
X0013646Y0105513D01*
X0013603Y0105426D01*
X0013558Y0105340D01*
X0013508Y0105257D01*
X0013455Y0105175D01*
X0013399Y0105096D01*
X0013340Y0105019D01*
X0013278Y0104945D01*
X0013212Y0104873D01*
X0013144Y0104804D01*
X0013073Y0104738D01*
X0013000Y0104675D01*
X0012923Y0104615D01*
X0012845Y0104558D01*
X0012764Y0104505D01*
X0012681Y0104454D01*
X0012596Y0104408D01*
X0012509Y0104364D01*
X0012421Y0104325D01*
X0012331Y0104289D01*
X0012239Y0104257D01*
X0012146Y0104228D01*
X0012053Y0104204D01*
X0011958Y0104183D01*
X0011862Y0104166D01*
X0011766Y0104153D01*
X0011670Y0104144D01*
X0011573Y0104139D01*
X0011476Y0104138D01*
X0011379Y0104141D01*
X0011282Y0104148D01*
X0011186Y0104159D01*
X0011090Y0104174D01*
X0010995Y0104193D01*
X0010900Y0104215D01*
X0010807Y0104242D01*
X0010715Y0104272D01*
X0010624Y0104306D01*
X0010535Y0104344D01*
X0010447Y0104386D01*
X0010361Y0104431D01*
X0010277Y0104479D01*
X0010195Y0104531D01*
X0010116Y0104586D01*
X0010038Y0104645D01*
X0009963Y0104706D01*
X0009891Y0104771D01*
X0009821Y0104838D01*
X0009754Y0104909D01*
X0009691Y0104982D01*
X0009630Y0105057D01*
X0009572Y0105135D01*
X0009518Y0105216D01*
X0009467Y0105298D01*
X0009419Y0105383D01*
X0009375Y0105469D01*
X0009334Y0105557D01*
X0009298Y0105647D01*
X0009264Y0105738D01*
X0009235Y0105830D01*
X0009209Y0105924D01*
X0009188Y0106018D01*
X0009170Y0106114D01*
X0009156Y0106210D01*
X0009146Y0106306D01*
X0009140Y0106403D01*
X0009138Y0106500D01*
X0009138Y0071500D02*
X0009140Y0071597D01*
X0009146Y0071694D01*
X0009156Y0071790D01*
X0009170Y0071886D01*
X0009188Y0071982D01*
X0009209Y0072076D01*
X0009235Y0072170D01*
X0009264Y0072262D01*
X0009298Y0072353D01*
X0009334Y0072443D01*
X0009375Y0072531D01*
X0009419Y0072617D01*
X0009467Y0072702D01*
X0009518Y0072784D01*
X0009572Y0072865D01*
X0009630Y0072943D01*
X0009691Y0073018D01*
X0009754Y0073091D01*
X0009821Y0073162D01*
X0009891Y0073229D01*
X0009963Y0073294D01*
X0010038Y0073355D01*
X0010116Y0073414D01*
X0010195Y0073469D01*
X0010277Y0073521D01*
X0010361Y0073569D01*
X0010447Y0073614D01*
X0010535Y0073656D01*
X0010624Y0073694D01*
X0010715Y0073728D01*
X0010807Y0073758D01*
X0010900Y0073785D01*
X0010995Y0073807D01*
X0011090Y0073826D01*
X0011186Y0073841D01*
X0011282Y0073852D01*
X0011379Y0073859D01*
X0011476Y0073862D01*
X0011573Y0073861D01*
X0011670Y0073856D01*
X0011766Y0073847D01*
X0011862Y0073834D01*
X0011958Y0073817D01*
X0012053Y0073796D01*
X0012146Y0073772D01*
X0012239Y0073743D01*
X0012331Y0073711D01*
X0012421Y0073675D01*
X0012509Y0073636D01*
X0012596Y0073592D01*
X0012681Y0073546D01*
X0012764Y0073495D01*
X0012845Y0073442D01*
X0012923Y0073385D01*
X0013000Y0073325D01*
X0013073Y0073262D01*
X0013144Y0073196D01*
X0013212Y0073127D01*
X0013278Y0073055D01*
X0013340Y0072981D01*
X0013399Y0072904D01*
X0013455Y0072825D01*
X0013508Y0072743D01*
X0013558Y0072660D01*
X0013603Y0072574D01*
X0013646Y0072487D01*
X0013685Y0072398D01*
X0013720Y0072308D01*
X0013751Y0072216D01*
X0013778Y0072123D01*
X0013802Y0072029D01*
X0013822Y0071934D01*
X0013838Y0071838D01*
X0013850Y0071742D01*
X0013858Y0071645D01*
X0013862Y0071548D01*
X0013862Y0071452D01*
X0013858Y0071355D01*
X0013850Y0071258D01*
X0013838Y0071162D01*
X0013822Y0071066D01*
X0013802Y0070971D01*
X0013778Y0070877D01*
X0013751Y0070784D01*
X0013720Y0070692D01*
X0013685Y0070602D01*
X0013646Y0070513D01*
X0013603Y0070426D01*
X0013558Y0070340D01*
X0013508Y0070257D01*
X0013455Y0070175D01*
X0013399Y0070096D01*
X0013340Y0070019D01*
X0013278Y0069945D01*
X0013212Y0069873D01*
X0013144Y0069804D01*
X0013073Y0069738D01*
X0013000Y0069675D01*
X0012923Y0069615D01*
X0012845Y0069558D01*
X0012764Y0069505D01*
X0012681Y0069454D01*
X0012596Y0069408D01*
X0012509Y0069364D01*
X0012421Y0069325D01*
X0012331Y0069289D01*
X0012239Y0069257D01*
X0012146Y0069228D01*
X0012053Y0069204D01*
X0011958Y0069183D01*
X0011862Y0069166D01*
X0011766Y0069153D01*
X0011670Y0069144D01*
X0011573Y0069139D01*
X0011476Y0069138D01*
X0011379Y0069141D01*
X0011282Y0069148D01*
X0011186Y0069159D01*
X0011090Y0069174D01*
X0010995Y0069193D01*
X0010900Y0069215D01*
X0010807Y0069242D01*
X0010715Y0069272D01*
X0010624Y0069306D01*
X0010535Y0069344D01*
X0010447Y0069386D01*
X0010361Y0069431D01*
X0010277Y0069479D01*
X0010195Y0069531D01*
X0010116Y0069586D01*
X0010038Y0069645D01*
X0009963Y0069706D01*
X0009891Y0069771D01*
X0009821Y0069838D01*
X0009754Y0069909D01*
X0009691Y0069982D01*
X0009630Y0070057D01*
X0009572Y0070135D01*
X0009518Y0070216D01*
X0009467Y0070298D01*
X0009419Y0070383D01*
X0009375Y0070469D01*
X0009334Y0070557D01*
X0009298Y0070647D01*
X0009264Y0070738D01*
X0009235Y0070830D01*
X0009209Y0070924D01*
X0009188Y0071018D01*
X0009170Y0071114D01*
X0009156Y0071210D01*
X0009146Y0071306D01*
X0009140Y0071403D01*
X0009138Y0071500D01*
X0024886Y0071500D02*
X0024888Y0071597D01*
X0024894Y0071694D01*
X0024904Y0071790D01*
X0024918Y0071886D01*
X0024936Y0071982D01*
X0024957Y0072076D01*
X0024983Y0072170D01*
X0025012Y0072262D01*
X0025046Y0072353D01*
X0025082Y0072443D01*
X0025123Y0072531D01*
X0025167Y0072617D01*
X0025215Y0072702D01*
X0025266Y0072784D01*
X0025320Y0072865D01*
X0025378Y0072943D01*
X0025439Y0073018D01*
X0025502Y0073091D01*
X0025569Y0073162D01*
X0025639Y0073229D01*
X0025711Y0073294D01*
X0025786Y0073355D01*
X0025864Y0073414D01*
X0025943Y0073469D01*
X0026025Y0073521D01*
X0026109Y0073569D01*
X0026195Y0073614D01*
X0026283Y0073656D01*
X0026372Y0073694D01*
X0026463Y0073728D01*
X0026555Y0073758D01*
X0026648Y0073785D01*
X0026743Y0073807D01*
X0026838Y0073826D01*
X0026934Y0073841D01*
X0027030Y0073852D01*
X0027127Y0073859D01*
X0027224Y0073862D01*
X0027321Y0073861D01*
X0027418Y0073856D01*
X0027514Y0073847D01*
X0027610Y0073834D01*
X0027706Y0073817D01*
X0027801Y0073796D01*
X0027894Y0073772D01*
X0027987Y0073743D01*
X0028079Y0073711D01*
X0028169Y0073675D01*
X0028257Y0073636D01*
X0028344Y0073592D01*
X0028429Y0073546D01*
X0028512Y0073495D01*
X0028593Y0073442D01*
X0028671Y0073385D01*
X0028748Y0073325D01*
X0028821Y0073262D01*
X0028892Y0073196D01*
X0028960Y0073127D01*
X0029026Y0073055D01*
X0029088Y0072981D01*
X0029147Y0072904D01*
X0029203Y0072825D01*
X0029256Y0072743D01*
X0029306Y0072660D01*
X0029351Y0072574D01*
X0029394Y0072487D01*
X0029433Y0072398D01*
X0029468Y0072308D01*
X0029499Y0072216D01*
X0029526Y0072123D01*
X0029550Y0072029D01*
X0029570Y0071934D01*
X0029586Y0071838D01*
X0029598Y0071742D01*
X0029606Y0071645D01*
X0029610Y0071548D01*
X0029610Y0071452D01*
X0029606Y0071355D01*
X0029598Y0071258D01*
X0029586Y0071162D01*
X0029570Y0071066D01*
X0029550Y0070971D01*
X0029526Y0070877D01*
X0029499Y0070784D01*
X0029468Y0070692D01*
X0029433Y0070602D01*
X0029394Y0070513D01*
X0029351Y0070426D01*
X0029306Y0070340D01*
X0029256Y0070257D01*
X0029203Y0070175D01*
X0029147Y0070096D01*
X0029088Y0070019D01*
X0029026Y0069945D01*
X0028960Y0069873D01*
X0028892Y0069804D01*
X0028821Y0069738D01*
X0028748Y0069675D01*
X0028671Y0069615D01*
X0028593Y0069558D01*
X0028512Y0069505D01*
X0028429Y0069454D01*
X0028344Y0069408D01*
X0028257Y0069364D01*
X0028169Y0069325D01*
X0028079Y0069289D01*
X0027987Y0069257D01*
X0027894Y0069228D01*
X0027801Y0069204D01*
X0027706Y0069183D01*
X0027610Y0069166D01*
X0027514Y0069153D01*
X0027418Y0069144D01*
X0027321Y0069139D01*
X0027224Y0069138D01*
X0027127Y0069141D01*
X0027030Y0069148D01*
X0026934Y0069159D01*
X0026838Y0069174D01*
X0026743Y0069193D01*
X0026648Y0069215D01*
X0026555Y0069242D01*
X0026463Y0069272D01*
X0026372Y0069306D01*
X0026283Y0069344D01*
X0026195Y0069386D01*
X0026109Y0069431D01*
X0026025Y0069479D01*
X0025943Y0069531D01*
X0025864Y0069586D01*
X0025786Y0069645D01*
X0025711Y0069706D01*
X0025639Y0069771D01*
X0025569Y0069838D01*
X0025502Y0069909D01*
X0025439Y0069982D01*
X0025378Y0070057D01*
X0025320Y0070135D01*
X0025266Y0070216D01*
X0025215Y0070298D01*
X0025167Y0070383D01*
X0025123Y0070469D01*
X0025082Y0070557D01*
X0025046Y0070647D01*
X0025012Y0070738D01*
X0024983Y0070830D01*
X0024957Y0070924D01*
X0024936Y0071018D01*
X0024918Y0071114D01*
X0024904Y0071210D01*
X0024894Y0071306D01*
X0024888Y0071403D01*
X0024886Y0071500D01*
X0074532Y0238035D02*
X0074534Y0238150D01*
X0074540Y0238266D01*
X0074550Y0238381D01*
X0074564Y0238496D01*
X0074582Y0238610D01*
X0074604Y0238723D01*
X0074629Y0238836D01*
X0074659Y0238947D01*
X0074692Y0239058D01*
X0074729Y0239167D01*
X0074770Y0239275D01*
X0074815Y0239382D01*
X0074863Y0239487D01*
X0074915Y0239590D01*
X0074971Y0239691D01*
X0075030Y0239791D01*
X0075092Y0239888D01*
X0075158Y0239983D01*
X0075226Y0240076D01*
X0075298Y0240166D01*
X0075373Y0240254D01*
X0075452Y0240339D01*
X0075533Y0240421D01*
X0075616Y0240501D01*
X0075703Y0240577D01*
X0075792Y0240651D01*
X0075883Y0240721D01*
X0075977Y0240789D01*
X0076073Y0240853D01*
X0076172Y0240913D01*
X0076272Y0240970D01*
X0076374Y0241024D01*
X0076478Y0241074D01*
X0076584Y0241121D01*
X0076691Y0241164D01*
X0076800Y0241203D01*
X0076910Y0241238D01*
X0077021Y0241269D01*
X0077133Y0241297D01*
X0077246Y0241321D01*
X0077360Y0241341D01*
X0077475Y0241357D01*
X0077590Y0241369D01*
X0077705Y0241377D01*
X0077820Y0241381D01*
X0077936Y0241381D01*
X0078051Y0241377D01*
X0078166Y0241369D01*
X0078281Y0241357D01*
X0078396Y0241341D01*
X0078510Y0241321D01*
X0078623Y0241297D01*
X0078735Y0241269D01*
X0078846Y0241238D01*
X0078956Y0241203D01*
X0079065Y0241164D01*
X0079172Y0241121D01*
X0079278Y0241074D01*
X0079382Y0241024D01*
X0079484Y0240970D01*
X0079584Y0240913D01*
X0079683Y0240853D01*
X0079779Y0240789D01*
X0079873Y0240721D01*
X0079964Y0240651D01*
X0080053Y0240577D01*
X0080140Y0240501D01*
X0080223Y0240421D01*
X0080304Y0240339D01*
X0080383Y0240254D01*
X0080458Y0240166D01*
X0080530Y0240076D01*
X0080598Y0239983D01*
X0080664Y0239888D01*
X0080726Y0239791D01*
X0080785Y0239691D01*
X0080841Y0239590D01*
X0080893Y0239487D01*
X0080941Y0239382D01*
X0080986Y0239275D01*
X0081027Y0239167D01*
X0081064Y0239058D01*
X0081097Y0238947D01*
X0081127Y0238836D01*
X0081152Y0238723D01*
X0081174Y0238610D01*
X0081192Y0238496D01*
X0081206Y0238381D01*
X0081216Y0238266D01*
X0081222Y0238150D01*
X0081224Y0238035D01*
X0081222Y0237920D01*
X0081216Y0237804D01*
X0081206Y0237689D01*
X0081192Y0237574D01*
X0081174Y0237460D01*
X0081152Y0237347D01*
X0081127Y0237234D01*
X0081097Y0237123D01*
X0081064Y0237012D01*
X0081027Y0236903D01*
X0080986Y0236795D01*
X0080941Y0236688D01*
X0080893Y0236583D01*
X0080841Y0236480D01*
X0080785Y0236379D01*
X0080726Y0236279D01*
X0080664Y0236182D01*
X0080598Y0236087D01*
X0080530Y0235994D01*
X0080458Y0235904D01*
X0080383Y0235816D01*
X0080304Y0235731D01*
X0080223Y0235649D01*
X0080140Y0235569D01*
X0080053Y0235493D01*
X0079964Y0235419D01*
X0079873Y0235349D01*
X0079779Y0235281D01*
X0079683Y0235217D01*
X0079584Y0235157D01*
X0079484Y0235100D01*
X0079382Y0235046D01*
X0079278Y0234996D01*
X0079172Y0234949D01*
X0079065Y0234906D01*
X0078956Y0234867D01*
X0078846Y0234832D01*
X0078735Y0234801D01*
X0078623Y0234773D01*
X0078510Y0234749D01*
X0078396Y0234729D01*
X0078281Y0234713D01*
X0078166Y0234701D01*
X0078051Y0234693D01*
X0077936Y0234689D01*
X0077820Y0234689D01*
X0077705Y0234693D01*
X0077590Y0234701D01*
X0077475Y0234713D01*
X0077360Y0234729D01*
X0077246Y0234749D01*
X0077133Y0234773D01*
X0077021Y0234801D01*
X0076910Y0234832D01*
X0076800Y0234867D01*
X0076691Y0234906D01*
X0076584Y0234949D01*
X0076478Y0234996D01*
X0076374Y0235046D01*
X0076272Y0235100D01*
X0076172Y0235157D01*
X0076073Y0235217D01*
X0075977Y0235281D01*
X0075883Y0235349D01*
X0075792Y0235419D01*
X0075703Y0235493D01*
X0075616Y0235569D01*
X0075533Y0235649D01*
X0075452Y0235731D01*
X0075373Y0235816D01*
X0075298Y0235904D01*
X0075226Y0235994D01*
X0075158Y0236087D01*
X0075092Y0236182D01*
X0075030Y0236279D01*
X0074971Y0236379D01*
X0074915Y0236480D01*
X0074863Y0236583D01*
X0074815Y0236688D01*
X0074770Y0236795D01*
X0074729Y0236903D01*
X0074692Y0237012D01*
X0074659Y0237123D01*
X0074629Y0237234D01*
X0074604Y0237347D01*
X0074582Y0237460D01*
X0074564Y0237574D01*
X0074550Y0237689D01*
X0074540Y0237804D01*
X0074534Y0237920D01*
X0074532Y0238035D01*
X0321776Y0238035D02*
X0321778Y0238150D01*
X0321784Y0238266D01*
X0321794Y0238381D01*
X0321808Y0238496D01*
X0321826Y0238610D01*
X0321848Y0238723D01*
X0321873Y0238836D01*
X0321903Y0238947D01*
X0321936Y0239058D01*
X0321973Y0239167D01*
X0322014Y0239275D01*
X0322059Y0239382D01*
X0322107Y0239487D01*
X0322159Y0239590D01*
X0322215Y0239691D01*
X0322274Y0239791D01*
X0322336Y0239888D01*
X0322402Y0239983D01*
X0322470Y0240076D01*
X0322542Y0240166D01*
X0322617Y0240254D01*
X0322696Y0240339D01*
X0322777Y0240421D01*
X0322860Y0240501D01*
X0322947Y0240577D01*
X0323036Y0240651D01*
X0323127Y0240721D01*
X0323221Y0240789D01*
X0323317Y0240853D01*
X0323416Y0240913D01*
X0323516Y0240970D01*
X0323618Y0241024D01*
X0323722Y0241074D01*
X0323828Y0241121D01*
X0323935Y0241164D01*
X0324044Y0241203D01*
X0324154Y0241238D01*
X0324265Y0241269D01*
X0324377Y0241297D01*
X0324490Y0241321D01*
X0324604Y0241341D01*
X0324719Y0241357D01*
X0324834Y0241369D01*
X0324949Y0241377D01*
X0325064Y0241381D01*
X0325180Y0241381D01*
X0325295Y0241377D01*
X0325410Y0241369D01*
X0325525Y0241357D01*
X0325640Y0241341D01*
X0325754Y0241321D01*
X0325867Y0241297D01*
X0325979Y0241269D01*
X0326090Y0241238D01*
X0326200Y0241203D01*
X0326309Y0241164D01*
X0326416Y0241121D01*
X0326522Y0241074D01*
X0326626Y0241024D01*
X0326728Y0240970D01*
X0326828Y0240913D01*
X0326927Y0240853D01*
X0327023Y0240789D01*
X0327117Y0240721D01*
X0327208Y0240651D01*
X0327297Y0240577D01*
X0327384Y0240501D01*
X0327467Y0240421D01*
X0327548Y0240339D01*
X0327627Y0240254D01*
X0327702Y0240166D01*
X0327774Y0240076D01*
X0327842Y0239983D01*
X0327908Y0239888D01*
X0327970Y0239791D01*
X0328029Y0239691D01*
X0328085Y0239590D01*
X0328137Y0239487D01*
X0328185Y0239382D01*
X0328230Y0239275D01*
X0328271Y0239167D01*
X0328308Y0239058D01*
X0328341Y0238947D01*
X0328371Y0238836D01*
X0328396Y0238723D01*
X0328418Y0238610D01*
X0328436Y0238496D01*
X0328450Y0238381D01*
X0328460Y0238266D01*
X0328466Y0238150D01*
X0328468Y0238035D01*
X0328466Y0237920D01*
X0328460Y0237804D01*
X0328450Y0237689D01*
X0328436Y0237574D01*
X0328418Y0237460D01*
X0328396Y0237347D01*
X0328371Y0237234D01*
X0328341Y0237123D01*
X0328308Y0237012D01*
X0328271Y0236903D01*
X0328230Y0236795D01*
X0328185Y0236688D01*
X0328137Y0236583D01*
X0328085Y0236480D01*
X0328029Y0236379D01*
X0327970Y0236279D01*
X0327908Y0236182D01*
X0327842Y0236087D01*
X0327774Y0235994D01*
X0327702Y0235904D01*
X0327627Y0235816D01*
X0327548Y0235731D01*
X0327467Y0235649D01*
X0327384Y0235569D01*
X0327297Y0235493D01*
X0327208Y0235419D01*
X0327117Y0235349D01*
X0327023Y0235281D01*
X0326927Y0235217D01*
X0326828Y0235157D01*
X0326728Y0235100D01*
X0326626Y0235046D01*
X0326522Y0234996D01*
X0326416Y0234949D01*
X0326309Y0234906D01*
X0326200Y0234867D01*
X0326090Y0234832D01*
X0325979Y0234801D01*
X0325867Y0234773D01*
X0325754Y0234749D01*
X0325640Y0234729D01*
X0325525Y0234713D01*
X0325410Y0234701D01*
X0325295Y0234693D01*
X0325180Y0234689D01*
X0325064Y0234689D01*
X0324949Y0234693D01*
X0324834Y0234701D01*
X0324719Y0234713D01*
X0324604Y0234729D01*
X0324490Y0234749D01*
X0324377Y0234773D01*
X0324265Y0234801D01*
X0324154Y0234832D01*
X0324044Y0234867D01*
X0323935Y0234906D01*
X0323828Y0234949D01*
X0323722Y0234996D01*
X0323618Y0235046D01*
X0323516Y0235100D01*
X0323416Y0235157D01*
X0323317Y0235217D01*
X0323221Y0235281D01*
X0323127Y0235349D01*
X0323036Y0235419D01*
X0322947Y0235493D01*
X0322860Y0235569D01*
X0322777Y0235649D01*
X0322696Y0235731D01*
X0322617Y0235816D01*
X0322542Y0235904D01*
X0322470Y0235994D01*
X0322402Y0236087D01*
X0322336Y0236182D01*
X0322274Y0236279D01*
X0322215Y0236379D01*
X0322159Y0236480D01*
X0322107Y0236583D01*
X0322059Y0236688D01*
X0322014Y0236795D01*
X0321973Y0236903D01*
X0321936Y0237012D01*
X0321903Y0237123D01*
X0321873Y0237234D01*
X0321848Y0237347D01*
X0321826Y0237460D01*
X0321808Y0237574D01*
X0321794Y0237689D01*
X0321784Y0237804D01*
X0321778Y0237920D01*
X0321776Y0238035D01*
X0326500Y0204965D02*
X0326502Y0205080D01*
X0326508Y0205196D01*
X0326518Y0205311D01*
X0326532Y0205426D01*
X0326550Y0205540D01*
X0326572Y0205653D01*
X0326597Y0205766D01*
X0326627Y0205877D01*
X0326660Y0205988D01*
X0326697Y0206097D01*
X0326738Y0206205D01*
X0326783Y0206312D01*
X0326831Y0206417D01*
X0326883Y0206520D01*
X0326939Y0206621D01*
X0326998Y0206721D01*
X0327060Y0206818D01*
X0327126Y0206913D01*
X0327194Y0207006D01*
X0327266Y0207096D01*
X0327341Y0207184D01*
X0327420Y0207269D01*
X0327501Y0207351D01*
X0327584Y0207431D01*
X0327671Y0207507D01*
X0327760Y0207581D01*
X0327851Y0207651D01*
X0327945Y0207719D01*
X0328041Y0207783D01*
X0328140Y0207843D01*
X0328240Y0207900D01*
X0328342Y0207954D01*
X0328446Y0208004D01*
X0328552Y0208051D01*
X0328659Y0208094D01*
X0328768Y0208133D01*
X0328878Y0208168D01*
X0328989Y0208199D01*
X0329101Y0208227D01*
X0329214Y0208251D01*
X0329328Y0208271D01*
X0329443Y0208287D01*
X0329558Y0208299D01*
X0329673Y0208307D01*
X0329788Y0208311D01*
X0329904Y0208311D01*
X0330019Y0208307D01*
X0330134Y0208299D01*
X0330249Y0208287D01*
X0330364Y0208271D01*
X0330478Y0208251D01*
X0330591Y0208227D01*
X0330703Y0208199D01*
X0330814Y0208168D01*
X0330924Y0208133D01*
X0331033Y0208094D01*
X0331140Y0208051D01*
X0331246Y0208004D01*
X0331350Y0207954D01*
X0331452Y0207900D01*
X0331552Y0207843D01*
X0331651Y0207783D01*
X0331747Y0207719D01*
X0331841Y0207651D01*
X0331932Y0207581D01*
X0332021Y0207507D01*
X0332108Y0207431D01*
X0332191Y0207351D01*
X0332272Y0207269D01*
X0332351Y0207184D01*
X0332426Y0207096D01*
X0332498Y0207006D01*
X0332566Y0206913D01*
X0332632Y0206818D01*
X0332694Y0206721D01*
X0332753Y0206621D01*
X0332809Y0206520D01*
X0332861Y0206417D01*
X0332909Y0206312D01*
X0332954Y0206205D01*
X0332995Y0206097D01*
X0333032Y0205988D01*
X0333065Y0205877D01*
X0333095Y0205766D01*
X0333120Y0205653D01*
X0333142Y0205540D01*
X0333160Y0205426D01*
X0333174Y0205311D01*
X0333184Y0205196D01*
X0333190Y0205080D01*
X0333192Y0204965D01*
X0333190Y0204850D01*
X0333184Y0204734D01*
X0333174Y0204619D01*
X0333160Y0204504D01*
X0333142Y0204390D01*
X0333120Y0204277D01*
X0333095Y0204164D01*
X0333065Y0204053D01*
X0333032Y0203942D01*
X0332995Y0203833D01*
X0332954Y0203725D01*
X0332909Y0203618D01*
X0332861Y0203513D01*
X0332809Y0203410D01*
X0332753Y0203309D01*
X0332694Y0203209D01*
X0332632Y0203112D01*
X0332566Y0203017D01*
X0332498Y0202924D01*
X0332426Y0202834D01*
X0332351Y0202746D01*
X0332272Y0202661D01*
X0332191Y0202579D01*
X0332108Y0202499D01*
X0332021Y0202423D01*
X0331932Y0202349D01*
X0331841Y0202279D01*
X0331747Y0202211D01*
X0331651Y0202147D01*
X0331552Y0202087D01*
X0331452Y0202030D01*
X0331350Y0201976D01*
X0331246Y0201926D01*
X0331140Y0201879D01*
X0331033Y0201836D01*
X0330924Y0201797D01*
X0330814Y0201762D01*
X0330703Y0201731D01*
X0330591Y0201703D01*
X0330478Y0201679D01*
X0330364Y0201659D01*
X0330249Y0201643D01*
X0330134Y0201631D01*
X0330019Y0201623D01*
X0329904Y0201619D01*
X0329788Y0201619D01*
X0329673Y0201623D01*
X0329558Y0201631D01*
X0329443Y0201643D01*
X0329328Y0201659D01*
X0329214Y0201679D01*
X0329101Y0201703D01*
X0328989Y0201731D01*
X0328878Y0201762D01*
X0328768Y0201797D01*
X0328659Y0201836D01*
X0328552Y0201879D01*
X0328446Y0201926D01*
X0328342Y0201976D01*
X0328240Y0202030D01*
X0328140Y0202087D01*
X0328041Y0202147D01*
X0327945Y0202211D01*
X0327851Y0202279D01*
X0327760Y0202349D01*
X0327671Y0202423D01*
X0327584Y0202499D01*
X0327501Y0202579D01*
X0327420Y0202661D01*
X0327341Y0202746D01*
X0327266Y0202834D01*
X0327194Y0202924D01*
X0327126Y0203017D01*
X0327060Y0203112D01*
X0326998Y0203209D01*
X0326939Y0203309D01*
X0326883Y0203410D01*
X0326831Y0203513D01*
X0326783Y0203618D01*
X0326738Y0203725D01*
X0326697Y0203833D01*
X0326660Y0203942D01*
X0326627Y0204053D01*
X0326597Y0204164D01*
X0326572Y0204277D01*
X0326550Y0204390D01*
X0326532Y0204504D01*
X0326518Y0204619D01*
X0326508Y0204734D01*
X0326502Y0204850D01*
X0326500Y0204965D01*
D23*
X0318036Y0064217D02*
X0318038Y0064286D01*
X0318044Y0064354D01*
X0318054Y0064422D01*
X0318068Y0064489D01*
X0318086Y0064556D01*
X0318107Y0064621D01*
X0318133Y0064685D01*
X0318162Y0064747D01*
X0318194Y0064807D01*
X0318230Y0064866D01*
X0318270Y0064922D01*
X0318312Y0064976D01*
X0318358Y0065027D01*
X0318407Y0065076D01*
X0318458Y0065122D01*
X0318512Y0065164D01*
X0318568Y0065204D01*
X0318626Y0065240D01*
X0318687Y0065272D01*
X0318749Y0065301D01*
X0318813Y0065327D01*
X0318878Y0065348D01*
X0318945Y0065366D01*
X0319012Y0065380D01*
X0319080Y0065390D01*
X0319148Y0065396D01*
X0319217Y0065398D01*
X0319286Y0065396D01*
X0319354Y0065390D01*
X0319422Y0065380D01*
X0319489Y0065366D01*
X0319556Y0065348D01*
X0319621Y0065327D01*
X0319685Y0065301D01*
X0319747Y0065272D01*
X0319807Y0065240D01*
X0319866Y0065204D01*
X0319922Y0065164D01*
X0319976Y0065122D01*
X0320027Y0065076D01*
X0320076Y0065027D01*
X0320122Y0064976D01*
X0320164Y0064922D01*
X0320204Y0064866D01*
X0320240Y0064807D01*
X0320272Y0064747D01*
X0320301Y0064685D01*
X0320327Y0064621D01*
X0320348Y0064556D01*
X0320366Y0064489D01*
X0320380Y0064422D01*
X0320390Y0064354D01*
X0320396Y0064286D01*
X0320398Y0064217D01*
X0320396Y0064148D01*
X0320390Y0064080D01*
X0320380Y0064012D01*
X0320366Y0063945D01*
X0320348Y0063878D01*
X0320327Y0063813D01*
X0320301Y0063749D01*
X0320272Y0063687D01*
X0320240Y0063626D01*
X0320204Y0063568D01*
X0320164Y0063512D01*
X0320122Y0063458D01*
X0320076Y0063407D01*
X0320027Y0063358D01*
X0319976Y0063312D01*
X0319922Y0063270D01*
X0319866Y0063230D01*
X0319808Y0063194D01*
X0319747Y0063162D01*
X0319685Y0063133D01*
X0319621Y0063107D01*
X0319556Y0063086D01*
X0319489Y0063068D01*
X0319422Y0063054D01*
X0319354Y0063044D01*
X0319286Y0063038D01*
X0319217Y0063036D01*
X0319148Y0063038D01*
X0319080Y0063044D01*
X0319012Y0063054D01*
X0318945Y0063068D01*
X0318878Y0063086D01*
X0318813Y0063107D01*
X0318749Y0063133D01*
X0318687Y0063162D01*
X0318626Y0063194D01*
X0318568Y0063230D01*
X0318512Y0063270D01*
X0318458Y0063312D01*
X0318407Y0063358D01*
X0318358Y0063407D01*
X0318312Y0063458D01*
X0318270Y0063512D01*
X0318230Y0063568D01*
X0318194Y0063626D01*
X0318162Y0063687D01*
X0318133Y0063749D01*
X0318107Y0063813D01*
X0318086Y0063878D01*
X0318068Y0063945D01*
X0318054Y0064012D01*
X0318044Y0064080D01*
X0318038Y0064148D01*
X0318036Y0064217D01*
X0282602Y0064217D02*
X0282604Y0064286D01*
X0282610Y0064354D01*
X0282620Y0064422D01*
X0282634Y0064489D01*
X0282652Y0064556D01*
X0282673Y0064621D01*
X0282699Y0064685D01*
X0282728Y0064747D01*
X0282760Y0064807D01*
X0282796Y0064866D01*
X0282836Y0064922D01*
X0282878Y0064976D01*
X0282924Y0065027D01*
X0282973Y0065076D01*
X0283024Y0065122D01*
X0283078Y0065164D01*
X0283134Y0065204D01*
X0283192Y0065240D01*
X0283253Y0065272D01*
X0283315Y0065301D01*
X0283379Y0065327D01*
X0283444Y0065348D01*
X0283511Y0065366D01*
X0283578Y0065380D01*
X0283646Y0065390D01*
X0283714Y0065396D01*
X0283783Y0065398D01*
X0283852Y0065396D01*
X0283920Y0065390D01*
X0283988Y0065380D01*
X0284055Y0065366D01*
X0284122Y0065348D01*
X0284187Y0065327D01*
X0284251Y0065301D01*
X0284313Y0065272D01*
X0284373Y0065240D01*
X0284432Y0065204D01*
X0284488Y0065164D01*
X0284542Y0065122D01*
X0284593Y0065076D01*
X0284642Y0065027D01*
X0284688Y0064976D01*
X0284730Y0064922D01*
X0284770Y0064866D01*
X0284806Y0064807D01*
X0284838Y0064747D01*
X0284867Y0064685D01*
X0284893Y0064621D01*
X0284914Y0064556D01*
X0284932Y0064489D01*
X0284946Y0064422D01*
X0284956Y0064354D01*
X0284962Y0064286D01*
X0284964Y0064217D01*
X0284962Y0064148D01*
X0284956Y0064080D01*
X0284946Y0064012D01*
X0284932Y0063945D01*
X0284914Y0063878D01*
X0284893Y0063813D01*
X0284867Y0063749D01*
X0284838Y0063687D01*
X0284806Y0063626D01*
X0284770Y0063568D01*
X0284730Y0063512D01*
X0284688Y0063458D01*
X0284642Y0063407D01*
X0284593Y0063358D01*
X0284542Y0063312D01*
X0284488Y0063270D01*
X0284432Y0063230D01*
X0284374Y0063194D01*
X0284313Y0063162D01*
X0284251Y0063133D01*
X0284187Y0063107D01*
X0284122Y0063086D01*
X0284055Y0063068D01*
X0283988Y0063054D01*
X0283920Y0063044D01*
X0283852Y0063038D01*
X0283783Y0063036D01*
X0283714Y0063038D01*
X0283646Y0063044D01*
X0283578Y0063054D01*
X0283511Y0063068D01*
X0283444Y0063086D01*
X0283379Y0063107D01*
X0283315Y0063133D01*
X0283253Y0063162D01*
X0283192Y0063194D01*
X0283134Y0063230D01*
X0283078Y0063270D01*
X0283024Y0063312D01*
X0282973Y0063358D01*
X0282924Y0063407D01*
X0282878Y0063458D01*
X0282836Y0063512D01*
X0282796Y0063568D01*
X0282760Y0063626D01*
X0282728Y0063687D01*
X0282699Y0063749D01*
X0282673Y0063813D01*
X0282652Y0063878D01*
X0282634Y0063945D01*
X0282620Y0064012D01*
X0282610Y0064080D01*
X0282604Y0064148D01*
X0282602Y0064217D01*
X0282602Y0028783D02*
X0282604Y0028852D01*
X0282610Y0028920D01*
X0282620Y0028988D01*
X0282634Y0029055D01*
X0282652Y0029122D01*
X0282673Y0029187D01*
X0282699Y0029251D01*
X0282728Y0029313D01*
X0282760Y0029373D01*
X0282796Y0029432D01*
X0282836Y0029488D01*
X0282878Y0029542D01*
X0282924Y0029593D01*
X0282973Y0029642D01*
X0283024Y0029688D01*
X0283078Y0029730D01*
X0283134Y0029770D01*
X0283192Y0029806D01*
X0283253Y0029838D01*
X0283315Y0029867D01*
X0283379Y0029893D01*
X0283444Y0029914D01*
X0283511Y0029932D01*
X0283578Y0029946D01*
X0283646Y0029956D01*
X0283714Y0029962D01*
X0283783Y0029964D01*
X0283852Y0029962D01*
X0283920Y0029956D01*
X0283988Y0029946D01*
X0284055Y0029932D01*
X0284122Y0029914D01*
X0284187Y0029893D01*
X0284251Y0029867D01*
X0284313Y0029838D01*
X0284373Y0029806D01*
X0284432Y0029770D01*
X0284488Y0029730D01*
X0284542Y0029688D01*
X0284593Y0029642D01*
X0284642Y0029593D01*
X0284688Y0029542D01*
X0284730Y0029488D01*
X0284770Y0029432D01*
X0284806Y0029373D01*
X0284838Y0029313D01*
X0284867Y0029251D01*
X0284893Y0029187D01*
X0284914Y0029122D01*
X0284932Y0029055D01*
X0284946Y0028988D01*
X0284956Y0028920D01*
X0284962Y0028852D01*
X0284964Y0028783D01*
X0284962Y0028714D01*
X0284956Y0028646D01*
X0284946Y0028578D01*
X0284932Y0028511D01*
X0284914Y0028444D01*
X0284893Y0028379D01*
X0284867Y0028315D01*
X0284838Y0028253D01*
X0284806Y0028192D01*
X0284770Y0028134D01*
X0284730Y0028078D01*
X0284688Y0028024D01*
X0284642Y0027973D01*
X0284593Y0027924D01*
X0284542Y0027878D01*
X0284488Y0027836D01*
X0284432Y0027796D01*
X0284374Y0027760D01*
X0284313Y0027728D01*
X0284251Y0027699D01*
X0284187Y0027673D01*
X0284122Y0027652D01*
X0284055Y0027634D01*
X0283988Y0027620D01*
X0283920Y0027610D01*
X0283852Y0027604D01*
X0283783Y0027602D01*
X0283714Y0027604D01*
X0283646Y0027610D01*
X0283578Y0027620D01*
X0283511Y0027634D01*
X0283444Y0027652D01*
X0283379Y0027673D01*
X0283315Y0027699D01*
X0283253Y0027728D01*
X0283192Y0027760D01*
X0283134Y0027796D01*
X0283078Y0027836D01*
X0283024Y0027878D01*
X0282973Y0027924D01*
X0282924Y0027973D01*
X0282878Y0028024D01*
X0282836Y0028078D01*
X0282796Y0028134D01*
X0282760Y0028192D01*
X0282728Y0028253D01*
X0282699Y0028315D01*
X0282673Y0028379D01*
X0282652Y0028444D01*
X0282634Y0028511D01*
X0282620Y0028578D01*
X0282610Y0028646D01*
X0282604Y0028714D01*
X0282602Y0028783D01*
X0318036Y0028783D02*
X0318038Y0028852D01*
X0318044Y0028920D01*
X0318054Y0028988D01*
X0318068Y0029055D01*
X0318086Y0029122D01*
X0318107Y0029187D01*
X0318133Y0029251D01*
X0318162Y0029313D01*
X0318194Y0029373D01*
X0318230Y0029432D01*
X0318270Y0029488D01*
X0318312Y0029542D01*
X0318358Y0029593D01*
X0318407Y0029642D01*
X0318458Y0029688D01*
X0318512Y0029730D01*
X0318568Y0029770D01*
X0318626Y0029806D01*
X0318687Y0029838D01*
X0318749Y0029867D01*
X0318813Y0029893D01*
X0318878Y0029914D01*
X0318945Y0029932D01*
X0319012Y0029946D01*
X0319080Y0029956D01*
X0319148Y0029962D01*
X0319217Y0029964D01*
X0319286Y0029962D01*
X0319354Y0029956D01*
X0319422Y0029946D01*
X0319489Y0029932D01*
X0319556Y0029914D01*
X0319621Y0029893D01*
X0319685Y0029867D01*
X0319747Y0029838D01*
X0319807Y0029806D01*
X0319866Y0029770D01*
X0319922Y0029730D01*
X0319976Y0029688D01*
X0320027Y0029642D01*
X0320076Y0029593D01*
X0320122Y0029542D01*
X0320164Y0029488D01*
X0320204Y0029432D01*
X0320240Y0029373D01*
X0320272Y0029313D01*
X0320301Y0029251D01*
X0320327Y0029187D01*
X0320348Y0029122D01*
X0320366Y0029055D01*
X0320380Y0028988D01*
X0320390Y0028920D01*
X0320396Y0028852D01*
X0320398Y0028783D01*
X0320396Y0028714D01*
X0320390Y0028646D01*
X0320380Y0028578D01*
X0320366Y0028511D01*
X0320348Y0028444D01*
X0320327Y0028379D01*
X0320301Y0028315D01*
X0320272Y0028253D01*
X0320240Y0028192D01*
X0320204Y0028134D01*
X0320164Y0028078D01*
X0320122Y0028024D01*
X0320076Y0027973D01*
X0320027Y0027924D01*
X0319976Y0027878D01*
X0319922Y0027836D01*
X0319866Y0027796D01*
X0319808Y0027760D01*
X0319747Y0027728D01*
X0319685Y0027699D01*
X0319621Y0027673D01*
X0319556Y0027652D01*
X0319489Y0027634D01*
X0319422Y0027620D01*
X0319354Y0027610D01*
X0319286Y0027604D01*
X0319217Y0027602D01*
X0319148Y0027604D01*
X0319080Y0027610D01*
X0319012Y0027620D01*
X0318945Y0027634D01*
X0318878Y0027652D01*
X0318813Y0027673D01*
X0318749Y0027699D01*
X0318687Y0027728D01*
X0318626Y0027760D01*
X0318568Y0027796D01*
X0318512Y0027836D01*
X0318458Y0027878D01*
X0318407Y0027924D01*
X0318358Y0027973D01*
X0318312Y0028024D01*
X0318270Y0028078D01*
X0318230Y0028134D01*
X0318194Y0028192D01*
X0318162Y0028253D01*
X0318133Y0028315D01*
X0318107Y0028379D01*
X0318086Y0028444D01*
X0318068Y0028511D01*
X0318054Y0028578D01*
X0318044Y0028646D01*
X0318038Y0028714D01*
X0318036Y0028783D01*
D24*
X0206650Y0029200D03*
D25*
X0206650Y0029300D03*
D26*
X0206650Y0029400D03*
D27*
X0206650Y0029500D03*
D28*
X0206650Y0029600D03*
D29*
X0206650Y0029700D03*
D30*
X0206650Y0029800D03*
D31*
X0206650Y0029900D03*
D32*
X0206650Y0030000D03*
D33*
X0206650Y0030100D03*
D34*
X0206650Y0031200D03*
D35*
X0206650Y0031300D03*
D36*
X0206650Y0031400D03*
D37*
X0206650Y0031500D03*
D38*
X0206650Y0031600D03*
D39*
X0206650Y0031700D03*
X0206650Y0031800D03*
D40*
X0206650Y0031900D03*
D41*
X0206650Y0032000D03*
D42*
X0206650Y0032100D03*
X0206650Y0032200D03*
D43*
X0206650Y0032300D03*
D44*
X0206650Y0032400D03*
D45*
X0206650Y0032500D03*
X0206650Y0032600D03*
D46*
X0206650Y0033500D03*
D47*
X0206650Y0033600D03*
D48*
X0206650Y0033700D03*
X0206650Y0033800D03*
D49*
X0206650Y0033900D03*
X0206650Y0034000D03*
D50*
X0206650Y0034100D03*
D51*
X0206650Y0034200D03*
X0206650Y0034300D03*
D52*
X0206650Y0034400D03*
X0206650Y0034500D03*
D53*
X0206650Y0034600D03*
X0206650Y0034700D03*
D54*
X0206650Y0034800D03*
X0206650Y0034900D03*
D55*
X0206650Y0035000D03*
X0206650Y0035100D03*
D56*
X0218300Y0035200D03*
D57*
X0218400Y0035300D03*
X0218500Y0035400D03*
X0218500Y0035500D03*
X0218100Y0053700D03*
X0195600Y0054300D03*
X0195600Y0054400D03*
X0195100Y0053400D03*
D58*
X0195050Y0053300D03*
X0218050Y0053600D03*
X0218550Y0035700D03*
X0218550Y0035600D03*
D59*
X0218550Y0035800D03*
X0219150Y0050900D03*
X0219150Y0051000D03*
X0219150Y0051100D03*
X0219050Y0051200D03*
X0219050Y0051300D03*
X0218950Y0051400D03*
X0218050Y0053500D03*
D60*
X0218000Y0053400D03*
X0219200Y0050800D03*
X0219200Y0050700D03*
X0219200Y0050600D03*
X0218500Y0035900D03*
D61*
X0206650Y0036000D03*
X0206650Y0036100D03*
D62*
X0206650Y0036200D03*
X0206650Y0036300D03*
X0206650Y0036400D03*
D63*
X0206650Y0036500D03*
X0206650Y0036600D03*
D64*
X0206650Y0036700D03*
X0206650Y0036800D03*
D65*
X0197450Y0036900D03*
X0206650Y0061800D03*
D66*
X0197200Y0037400D03*
X0197200Y0037300D03*
X0197200Y0037200D03*
X0197300Y0037000D03*
D67*
X0197250Y0037100D03*
D68*
X0197200Y0037500D03*
D69*
X0203350Y0037600D03*
D70*
X0212800Y0037700D03*
X0212900Y0037800D03*
X0212900Y0037900D03*
X0212900Y0038000D03*
D71*
X0212900Y0038100D03*
D72*
X0212850Y0038200D03*
D73*
X0206650Y0038300D03*
D74*
X0206650Y0038400D03*
X0206650Y0038500D03*
X0206650Y0038600D03*
X0206650Y0038700D03*
D75*
X0206650Y0038800D03*
X0206650Y0038900D03*
X0206650Y0039000D03*
D76*
X0206650Y0039100D03*
X0206650Y0039200D03*
X0206650Y0039300D03*
X0206650Y0039400D03*
D77*
X0206650Y0039500D03*
X0206650Y0039600D03*
X0206650Y0039700D03*
D78*
X0199750Y0039800D03*
D79*
X0193850Y0040100D03*
X0193550Y0041700D03*
X0193550Y0041800D03*
X0194450Y0050300D03*
X0194450Y0050400D03*
X0194450Y0050500D03*
X0219350Y0048800D03*
X0219750Y0041800D03*
X0219750Y0041700D03*
X0219450Y0040000D03*
X0219350Y0039800D03*
D80*
X0199650Y0039900D03*
D81*
X0193800Y0040200D03*
X0193800Y0040300D03*
X0193700Y0040400D03*
X0193700Y0040500D03*
X0193700Y0040600D03*
X0193600Y0041000D03*
X0194500Y0050600D03*
X0194500Y0050700D03*
X0194500Y0050800D03*
X0219300Y0048900D03*
X0219400Y0048700D03*
X0219400Y0048600D03*
X0219500Y0048400D03*
X0219500Y0048300D03*
X0219500Y0048200D03*
X0219500Y0048100D03*
X0219500Y0048000D03*
X0219600Y0040500D03*
X0219500Y0040200D03*
X0219500Y0040100D03*
X0219400Y0039900D03*
D82*
X0219700Y0041900D03*
X0219500Y0047700D03*
X0219500Y0047800D03*
X0219500Y0047900D03*
X0193600Y0041900D03*
X0193900Y0040000D03*
D83*
X0206600Y0040000D03*
X0217900Y0055100D03*
X0217900Y0055200D03*
X0215600Y0058000D03*
X0196300Y0056400D03*
D84*
X0196400Y0056700D03*
X0215500Y0058200D03*
X0217800Y0055500D03*
X0217800Y0055400D03*
X0206600Y0040100D03*
D85*
X0206600Y0040200D03*
X0217700Y0055700D03*
X0217700Y0055800D03*
X0215400Y0058400D03*
X0196500Y0056900D03*
D86*
X0205100Y0055700D03*
X0208500Y0057600D03*
X0202600Y0040300D03*
D87*
X0203050Y0042000D03*
X0203050Y0042100D03*
X0208650Y0042200D03*
X0208750Y0042300D03*
X0208850Y0042400D03*
X0208850Y0043700D03*
X0208850Y0043800D03*
X0210350Y0045100D03*
X0210650Y0041000D03*
X0208850Y0040300D03*
X0209150Y0053400D03*
X0207050Y0055300D03*
D88*
X0205000Y0055600D03*
X0208600Y0057500D03*
X0207600Y0045600D03*
X0207600Y0045500D03*
X0210700Y0040300D03*
X0202600Y0040400D03*
D89*
X0193650Y0040700D03*
X0193650Y0040800D03*
X0193650Y0040900D03*
X0193550Y0041100D03*
X0193550Y0041200D03*
X0193550Y0041300D03*
X0193550Y0041400D03*
X0193550Y0041500D03*
X0193550Y0041600D03*
X0194550Y0050900D03*
X0194550Y0051000D03*
X0194550Y0051100D03*
X0194650Y0051200D03*
X0194650Y0051300D03*
X0194750Y0051400D03*
X0206650Y0063000D03*
X0219450Y0048500D03*
X0219750Y0041600D03*
X0219750Y0041500D03*
X0219750Y0041400D03*
X0219750Y0041300D03*
X0219750Y0041200D03*
X0219550Y0040400D03*
X0219550Y0040300D03*
D90*
X0210650Y0041100D03*
X0208850Y0040400D03*
X0203150Y0042600D03*
X0203150Y0042700D03*
X0203150Y0042800D03*
X0203150Y0042900D03*
X0203150Y0043000D03*
X0208750Y0044100D03*
X0208750Y0044200D03*
X0208750Y0044300D03*
X0208250Y0045800D03*
X0210350Y0049700D03*
X0210350Y0049800D03*
X0209250Y0053600D03*
X0209250Y0053700D03*
X0211050Y0056700D03*
X0203350Y0047100D03*
D91*
X0210400Y0046200D03*
X0210700Y0040400D03*
X0211100Y0055300D03*
X0211100Y0055400D03*
X0211100Y0055500D03*
X0211100Y0055600D03*
X0208700Y0057300D03*
X0208700Y0057400D03*
X0204900Y0057300D03*
X0203200Y0058200D03*
X0203200Y0058300D03*
X0203200Y0058400D03*
D92*
X0203250Y0058100D03*
X0204950Y0057400D03*
X0207650Y0045700D03*
X0202650Y0040500D03*
D93*
X0203250Y0044300D03*
X0203250Y0044400D03*
X0203250Y0044500D03*
X0203250Y0044600D03*
X0203250Y0044700D03*
X0203250Y0044800D03*
X0203250Y0044900D03*
X0203250Y0045000D03*
X0203250Y0045100D03*
X0203250Y0045200D03*
X0203250Y0045300D03*
X0203250Y0045400D03*
X0203250Y0045500D03*
X0203250Y0045600D03*
X0203250Y0045700D03*
X0203250Y0045800D03*
X0203250Y0045900D03*
X0203250Y0046000D03*
X0203250Y0046100D03*
X0203250Y0046200D03*
X0203250Y0046300D03*
X0203250Y0046400D03*
X0203250Y0046500D03*
X0203250Y0046600D03*
X0203250Y0046700D03*
X0203250Y0046800D03*
X0208250Y0045900D03*
X0208450Y0045200D03*
X0208550Y0045100D03*
X0208650Y0044800D03*
X0208650Y0044700D03*
X0208650Y0044600D03*
X0210650Y0041300D03*
X0208850Y0040500D03*
X0210150Y0049200D03*
X0210250Y0049400D03*
X0208350Y0054200D03*
D94*
X0206700Y0054700D03*
X0206700Y0054800D03*
X0206600Y0054400D03*
X0204800Y0056900D03*
X0204800Y0057000D03*
X0208800Y0057000D03*
X0208800Y0057100D03*
X0211000Y0056300D03*
X0211000Y0056200D03*
X0211000Y0054700D03*
X0211000Y0054600D03*
X0210700Y0040500D03*
X0202700Y0040700D03*
D95*
X0202650Y0040600D03*
X0210350Y0046100D03*
X0211050Y0054800D03*
X0211050Y0054900D03*
X0211050Y0055000D03*
X0211050Y0055100D03*
X0211050Y0055200D03*
X0211050Y0055700D03*
X0211050Y0055800D03*
X0211050Y0055900D03*
X0211050Y0056000D03*
X0211050Y0056100D03*
X0208750Y0057200D03*
X0206650Y0054600D03*
X0206650Y0054500D03*
X0204850Y0057100D03*
X0204850Y0057200D03*
D96*
X0207500Y0053400D03*
X0208300Y0054100D03*
X0211000Y0054100D03*
X0210200Y0049300D03*
X0208100Y0047100D03*
X0208300Y0046200D03*
X0208300Y0046100D03*
X0208300Y0046000D03*
X0208600Y0045000D03*
X0208600Y0044900D03*
X0210400Y0044600D03*
X0210400Y0044500D03*
X0208800Y0040600D03*
D97*
X0210700Y0040600D03*
X0210300Y0045800D03*
X0202800Y0041000D03*
X0209000Y0053200D03*
X0211000Y0054500D03*
X0211000Y0056400D03*
X0206800Y0056500D03*
X0206800Y0055000D03*
D98*
X0207000Y0052300D03*
X0206800Y0059400D03*
X0215300Y0040600D03*
D99*
X0210650Y0041400D03*
X0208850Y0040700D03*
X0208550Y0041600D03*
X0210450Y0044400D03*
X0208150Y0047000D03*
X0208850Y0049800D03*
X0210350Y0053300D03*
X0210350Y0057500D03*
X0206850Y0056800D03*
D100*
X0206750Y0056600D03*
X0211050Y0056500D03*
X0210350Y0045700D03*
X0210350Y0045600D03*
X0210350Y0045500D03*
X0209050Y0043000D03*
X0209050Y0042900D03*
X0210650Y0040700D03*
X0202850Y0041100D03*
X0202850Y0041200D03*
D101*
X0215250Y0040700D03*
X0206950Y0059000D03*
D102*
X0206750Y0056400D03*
X0206750Y0054900D03*
X0206550Y0054300D03*
X0208850Y0054300D03*
X0208850Y0054400D03*
X0208850Y0054500D03*
X0208850Y0054600D03*
X0208850Y0054700D03*
X0208850Y0054800D03*
X0208850Y0054900D03*
X0208850Y0055000D03*
X0208850Y0055100D03*
X0208850Y0055200D03*
X0208850Y0055300D03*
X0208850Y0055400D03*
X0208850Y0055500D03*
X0208850Y0055600D03*
X0208850Y0055700D03*
X0208850Y0055800D03*
X0208850Y0055900D03*
X0208850Y0056000D03*
X0208850Y0056100D03*
X0208850Y0056200D03*
X0208850Y0056300D03*
X0208850Y0056400D03*
X0208850Y0056500D03*
X0208850Y0056600D03*
X0208850Y0056700D03*
X0208850Y0056800D03*
X0208850Y0056900D03*
X0204750Y0056800D03*
X0204750Y0056700D03*
X0204750Y0056600D03*
X0204750Y0056500D03*
X0204750Y0056400D03*
X0210350Y0046000D03*
X0210350Y0045900D03*
X0202750Y0040900D03*
X0202750Y0040800D03*
D103*
X0208600Y0041500D03*
X0208800Y0040900D03*
X0208800Y0040800D03*
X0210600Y0041500D03*
X0208300Y0046300D03*
X0208300Y0046400D03*
X0208300Y0046500D03*
X0208300Y0046600D03*
X0208300Y0046700D03*
X0208200Y0046800D03*
X0208200Y0046900D03*
X0209100Y0049100D03*
X0209000Y0049200D03*
X0208900Y0049700D03*
D104*
X0207450Y0053200D03*
X0206950Y0055200D03*
X0211050Y0056600D03*
X0202850Y0056800D03*
X0210350Y0045400D03*
X0210350Y0045300D03*
X0208950Y0043400D03*
X0208950Y0043300D03*
X0208950Y0042700D03*
X0208950Y0042600D03*
X0210650Y0040800D03*
X0202950Y0041500D03*
X0202950Y0041600D03*
D105*
X0215200Y0040900D03*
X0215200Y0040800D03*
X0215300Y0041100D03*
X0206900Y0059100D03*
X0206900Y0059200D03*
X0206900Y0059300D03*
D106*
X0206800Y0056700D03*
X0209100Y0053300D03*
X0211000Y0054300D03*
X0210400Y0045200D03*
X0208900Y0043600D03*
X0208900Y0043500D03*
X0208900Y0042500D03*
X0210700Y0040900D03*
X0203000Y0041700D03*
X0203000Y0041800D03*
X0203000Y0041900D03*
D107*
X0208650Y0041400D03*
X0208750Y0041100D03*
X0208750Y0041000D03*
X0210650Y0041600D03*
X0210450Y0044300D03*
X0208950Y0049300D03*
X0208950Y0049400D03*
X0208950Y0049500D03*
X0208950Y0049600D03*
X0210250Y0053400D03*
X0208350Y0054000D03*
X0207550Y0053500D03*
X0207450Y0055500D03*
X0210250Y0057400D03*
D108*
X0215250Y0041000D03*
D109*
X0210600Y0041700D03*
X0208700Y0041300D03*
X0208700Y0041200D03*
X0210500Y0044200D03*
X0210200Y0053500D03*
X0207600Y0053600D03*
X0210200Y0057300D03*
D110*
X0210500Y0057600D03*
X0209300Y0054100D03*
X0209300Y0054000D03*
X0209300Y0053900D03*
X0209300Y0053800D03*
X0210400Y0053200D03*
X0207500Y0053300D03*
X0207200Y0055400D03*
X0210300Y0049600D03*
X0210300Y0049500D03*
X0210000Y0049100D03*
X0210400Y0044800D03*
X0210400Y0044700D03*
X0208700Y0044500D03*
X0208700Y0044400D03*
X0210600Y0041200D03*
X0203200Y0043100D03*
X0203200Y0043200D03*
X0203200Y0043300D03*
X0203200Y0043400D03*
X0203200Y0043500D03*
X0203200Y0043600D03*
X0203200Y0043700D03*
X0203200Y0043800D03*
X0203200Y0043900D03*
X0203200Y0044000D03*
X0203200Y0044100D03*
X0203200Y0044200D03*
X0203300Y0046900D03*
X0203300Y0047000D03*
D111*
X0205100Y0045700D03*
X0205100Y0045600D03*
X0205100Y0045500D03*
X0205100Y0045400D03*
X0205100Y0045300D03*
X0205100Y0042100D03*
X0205100Y0042000D03*
X0205100Y0041900D03*
X0205100Y0041800D03*
X0205100Y0041700D03*
X0202900Y0041400D03*
X0202900Y0041300D03*
X0209000Y0042800D03*
X0209000Y0043100D03*
X0209000Y0043200D03*
X0209600Y0049000D03*
X0211000Y0054400D03*
X0206900Y0055100D03*
X0206500Y0054200D03*
X0202900Y0055600D03*
X0202900Y0055700D03*
X0202900Y0055800D03*
X0202900Y0055900D03*
X0202900Y0056000D03*
X0202900Y0056100D03*
X0202900Y0056200D03*
X0202900Y0056900D03*
X0202900Y0057000D03*
X0202900Y0057100D03*
X0202900Y0057200D03*
X0202900Y0057300D03*
X0202900Y0057400D03*
D112*
X0207650Y0045400D03*
X0207650Y0045300D03*
X0207650Y0041900D03*
X0207650Y0041800D03*
X0207650Y0041700D03*
D113*
X0193700Y0042000D03*
X0194500Y0050000D03*
D114*
X0207750Y0042000D03*
D115*
X0219650Y0042000D03*
X0219450Y0047600D03*
X0194450Y0050100D03*
X0194450Y0050200D03*
D116*
X0193750Y0042100D03*
X0219550Y0042100D03*
X0219350Y0047500D03*
X0218850Y0049900D03*
X0206650Y0062900D03*
D117*
X0204000Y0054000D03*
X0207800Y0042100D03*
D118*
X0219500Y0042200D03*
X0218800Y0049700D03*
X0218800Y0049800D03*
X0193800Y0042200D03*
D119*
X0203100Y0042200D03*
X0203100Y0042300D03*
X0203100Y0042400D03*
X0203100Y0042500D03*
X0208800Y0043900D03*
X0208800Y0044000D03*
X0210400Y0044900D03*
X0210400Y0045000D03*
X0210400Y0049900D03*
X0209200Y0053500D03*
X0209200Y0054200D03*
X0211000Y0054200D03*
X0206500Y0054100D03*
D120*
X0193850Y0042300D03*
X0219450Y0042300D03*
D121*
X0218800Y0049500D03*
X0218800Y0049600D03*
X0193900Y0042400D03*
D122*
X0193950Y0042500D03*
X0219350Y0042400D03*
X0218750Y0049300D03*
X0218750Y0049400D03*
X0206650Y0062800D03*
D123*
X0219300Y0045800D03*
X0219300Y0045700D03*
X0219300Y0042500D03*
X0194000Y0042600D03*
D124*
X0193950Y0042700D03*
X0219250Y0042600D03*
X0219250Y0045900D03*
X0219250Y0046000D03*
X0218750Y0049200D03*
D125*
X0219150Y0046200D03*
X0219250Y0045100D03*
X0219250Y0045000D03*
X0219250Y0044900D03*
X0219250Y0044800D03*
X0219250Y0042700D03*
X0194050Y0042900D03*
X0194050Y0043000D03*
X0194550Y0048400D03*
X0194550Y0048500D03*
X0194550Y0048600D03*
D126*
X0194000Y0042800D03*
X0219300Y0045200D03*
X0219300Y0045300D03*
X0219300Y0045400D03*
X0219300Y0045500D03*
X0219300Y0045600D03*
X0219200Y0046100D03*
X0218700Y0049000D03*
X0218700Y0049100D03*
D127*
X0219200Y0044700D03*
X0219200Y0044600D03*
X0219200Y0044500D03*
X0219200Y0044400D03*
X0219200Y0042800D03*
X0194100Y0043100D03*
X0194500Y0048000D03*
X0194500Y0048100D03*
X0194500Y0048200D03*
X0194500Y0048300D03*
X0194600Y0048700D03*
X0194600Y0048800D03*
X0194700Y0048900D03*
D128*
X0194450Y0047900D03*
X0194450Y0047800D03*
X0194450Y0047700D03*
X0194450Y0047600D03*
X0194450Y0047500D03*
X0194450Y0047400D03*
X0194150Y0043300D03*
X0194150Y0043200D03*
X0219150Y0042900D03*
X0219150Y0044100D03*
X0219150Y0044200D03*
X0219150Y0044300D03*
X0206650Y0062700D03*
D129*
X0201700Y0059800D03*
X0201600Y0059700D03*
X0217400Y0052200D03*
X0217500Y0052000D03*
X0217500Y0051900D03*
X0219100Y0044000D03*
X0219100Y0043900D03*
X0219100Y0043800D03*
X0219100Y0043000D03*
X0194200Y0043400D03*
X0194200Y0043500D03*
X0194200Y0043600D03*
X0194400Y0046700D03*
X0194400Y0046800D03*
X0194400Y0046900D03*
X0194400Y0047000D03*
X0194400Y0047100D03*
X0194400Y0047200D03*
X0194400Y0047300D03*
D130*
X0194350Y0046600D03*
X0194350Y0046500D03*
X0194350Y0046400D03*
X0194350Y0046300D03*
X0194350Y0046200D03*
X0194350Y0046100D03*
X0194350Y0046000D03*
X0194350Y0045900D03*
X0194350Y0045800D03*
X0194350Y0045700D03*
X0194250Y0043900D03*
X0194250Y0043800D03*
X0194250Y0043700D03*
X0217550Y0051700D03*
X0217550Y0051800D03*
X0217450Y0052100D03*
X0219050Y0043700D03*
X0219050Y0043600D03*
X0219050Y0043500D03*
X0219050Y0043100D03*
X0201550Y0059600D03*
D131*
X0201500Y0059500D03*
X0217300Y0052300D03*
X0217600Y0051600D03*
X0217600Y0051500D03*
X0219000Y0043400D03*
X0219000Y0043300D03*
X0219000Y0043200D03*
X0194300Y0044000D03*
X0194300Y0044100D03*
X0194300Y0044200D03*
X0194300Y0044300D03*
X0194300Y0044400D03*
X0194300Y0044500D03*
X0194300Y0044600D03*
X0194300Y0044700D03*
X0194300Y0044800D03*
X0194300Y0044900D03*
X0194300Y0045000D03*
X0194300Y0045100D03*
X0194300Y0045200D03*
X0194300Y0045300D03*
X0194300Y0045400D03*
X0194300Y0045500D03*
X0194300Y0045600D03*
D132*
X0205950Y0043900D03*
X0205950Y0043800D03*
X0205950Y0043700D03*
X0205950Y0043600D03*
X0205950Y0043500D03*
X0206450Y0049300D03*
X0206450Y0049400D03*
X0206450Y0049500D03*
X0206550Y0049700D03*
X0204150Y0053400D03*
X0203750Y0054300D03*
X0203750Y0054400D03*
X0203750Y0054500D03*
X0203750Y0054600D03*
X0203750Y0054700D03*
X0206650Y0064100D03*
D133*
X0195800Y0049100D03*
X0217900Y0046800D03*
X0217900Y0046700D03*
X0218000Y0046400D03*
X0218000Y0046300D03*
D134*
X0217950Y0046500D03*
X0217950Y0046600D03*
X0217850Y0046900D03*
X0217850Y0047000D03*
X0217850Y0047100D03*
X0217850Y0047200D03*
X0217750Y0047400D03*
X0206650Y0062200D03*
X0197450Y0053200D03*
D135*
X0205650Y0047200D03*
D136*
X0205600Y0047300D03*
X0205600Y0047400D03*
D137*
X0217800Y0047300D03*
D138*
X0197600Y0049000D03*
D139*
X0203850Y0055000D03*
X0206350Y0049100D03*
D140*
X0195750Y0049200D03*
D141*
X0204200Y0053300D03*
X0203800Y0054800D03*
X0203800Y0054900D03*
X0206600Y0049800D03*
X0206400Y0049200D03*
D142*
X0195750Y0049300D03*
X0195750Y0049400D03*
X0195750Y0049500D03*
X0195750Y0049600D03*
X0206650Y0062300D03*
D143*
X0205400Y0055900D03*
X0206500Y0049600D03*
D144*
X0195800Y0049700D03*
X0195800Y0049800D03*
X0195800Y0049900D03*
D145*
X0207050Y0049900D03*
X0207050Y0051500D03*
X0207050Y0051600D03*
X0207050Y0051700D03*
X0207050Y0051800D03*
D146*
X0219150Y0050000D03*
D147*
X0219200Y0050100D03*
X0217900Y0053200D03*
D148*
X0219250Y0050200D03*
D149*
X0219250Y0050300D03*
X0219250Y0050400D03*
X0219250Y0050500D03*
X0206650Y0063100D03*
D150*
X0196100Y0051600D03*
X0196100Y0051500D03*
D151*
X0196150Y0051700D03*
X0196150Y0051800D03*
X0196350Y0052300D03*
X0206650Y0062500D03*
D152*
X0196300Y0052200D03*
X0196200Y0052100D03*
X0196200Y0052000D03*
X0196200Y0051900D03*
D153*
X0204300Y0057600D03*
X0207000Y0052100D03*
X0207000Y0052000D03*
X0207000Y0051900D03*
D154*
X0207000Y0052200D03*
D155*
X0206650Y0052400D03*
X0206650Y0052500D03*
D156*
X0206650Y0052600D03*
X0206650Y0052700D03*
D157*
X0206650Y0052800D03*
X0206650Y0052900D03*
D158*
X0206650Y0053000D03*
X0206650Y0053100D03*
D159*
X0218000Y0053300D03*
D160*
X0206650Y0063200D03*
X0195650Y0054600D03*
X0195650Y0054500D03*
X0195050Y0053500D03*
D161*
X0204150Y0053500D03*
D162*
X0195700Y0054700D03*
X0195100Y0053700D03*
X0195100Y0053600D03*
X0218100Y0053800D03*
D163*
X0204100Y0053600D03*
X0203900Y0054200D03*
D164*
X0203950Y0054100D03*
X0204050Y0053900D03*
X0204050Y0053800D03*
X0204050Y0053700D03*
X0205250Y0055800D03*
D165*
X0195750Y0054900D03*
X0195750Y0054800D03*
X0195350Y0054200D03*
X0195250Y0054100D03*
X0195150Y0053900D03*
X0195150Y0053800D03*
X0218150Y0053900D03*
D166*
X0218100Y0054000D03*
X0195800Y0055000D03*
X0195200Y0054000D03*
D167*
X0195850Y0055100D03*
X0195850Y0055200D03*
X0218150Y0054100D03*
D168*
X0218100Y0054200D03*
X0195900Y0055300D03*
D169*
X0196000Y0055600D03*
X0218100Y0054400D03*
X0218100Y0054300D03*
D170*
X0218050Y0054500D03*
X0196050Y0055700D03*
X0196050Y0055800D03*
D171*
X0196100Y0055900D03*
X0218100Y0054600D03*
D172*
X0218050Y0054700D03*
X0215750Y0057700D03*
X0196150Y0056000D03*
D173*
X0196200Y0056100D03*
X0196200Y0056200D03*
X0215700Y0057800D03*
X0218000Y0054900D03*
X0218000Y0054800D03*
D174*
X0217950Y0055000D03*
X0215650Y0057900D03*
X0206650Y0063400D03*
X0196250Y0056300D03*
D175*
X0203900Y0055200D03*
X0203900Y0055100D03*
D176*
X0203950Y0055300D03*
D177*
X0196350Y0056500D03*
X0196350Y0056600D03*
X0215550Y0058100D03*
X0217850Y0055300D03*
D178*
X0206650Y0063300D03*
X0195950Y0055500D03*
X0195950Y0055400D03*
D179*
X0204000Y0055400D03*
X0205700Y0056000D03*
D180*
X0204100Y0055500D03*
D181*
X0196450Y0056800D03*
X0215450Y0058300D03*
X0217750Y0055600D03*
D182*
X0217650Y0055900D03*
X0215350Y0058500D03*
X0196550Y0057000D03*
D183*
X0196600Y0057100D03*
X0196600Y0057200D03*
X0215300Y0058600D03*
X0217600Y0056000D03*
D184*
X0205750Y0056100D03*
X0205750Y0056200D03*
X0205750Y0056300D03*
D185*
X0215250Y0058700D03*
X0216350Y0057600D03*
X0217550Y0056200D03*
X0217550Y0056100D03*
X0206650Y0063500D03*
X0196650Y0057300D03*
D186*
X0196700Y0057400D03*
X0215200Y0058800D03*
X0217400Y0056400D03*
X0217500Y0056300D03*
D187*
X0217350Y0056500D03*
X0217350Y0056600D03*
X0215150Y0058900D03*
X0196750Y0057500D03*
D188*
X0196800Y0057600D03*
X0215100Y0059000D03*
X0216600Y0057500D03*
X0216700Y0057400D03*
X0216900Y0057200D03*
X0217200Y0056800D03*
X0217300Y0056700D03*
D189*
X0217150Y0056900D03*
X0217050Y0057000D03*
X0216950Y0057100D03*
X0216850Y0057300D03*
X0215050Y0059100D03*
X0196850Y0057700D03*
D190*
X0204200Y0057500D03*
D191*
X0205950Y0057700D03*
X0205950Y0057800D03*
X0205950Y0057900D03*
X0205950Y0058000D03*
D192*
X0215000Y0059200D03*
X0196900Y0057800D03*
D193*
X0196950Y0057900D03*
X0214950Y0059300D03*
D194*
X0197000Y0058000D03*
D195*
X0197050Y0058100D03*
X0206650Y0063600D03*
X0214850Y0059400D03*
D196*
X0207100Y0058100D03*
D197*
X0214800Y0059500D03*
X0197100Y0058200D03*
D198*
X0207150Y0058200D03*
X0207150Y0058300D03*
X0207150Y0058400D03*
X0207150Y0058500D03*
X0207150Y0058600D03*
X0207150Y0058700D03*
X0207150Y0058800D03*
X0207150Y0058900D03*
X0206650Y0064000D03*
D199*
X0214750Y0059600D03*
X0197150Y0058300D03*
D200*
X0197200Y0058400D03*
X0214600Y0059800D03*
X0214700Y0059700D03*
D201*
X0197000Y0058500D03*
D202*
X0197050Y0058600D03*
D203*
X0197050Y0058700D03*
D204*
X0197100Y0058800D03*
D205*
X0197150Y0058900D03*
D206*
X0197200Y0059000D03*
D207*
X0197250Y0059100D03*
D208*
X0197300Y0059200D03*
X0197400Y0059300D03*
D209*
X0197550Y0059400D03*
X0206650Y0063800D03*
D210*
X0206650Y0059900D03*
D211*
X0206650Y0060000D03*
D212*
X0206650Y0060100D03*
D213*
X0206650Y0060200D03*
D214*
X0206650Y0060300D03*
D215*
X0206650Y0060400D03*
D216*
X0206650Y0060500D03*
D217*
X0206650Y0060600D03*
D218*
X0206650Y0060700D03*
D219*
X0206650Y0060800D03*
D220*
X0206650Y0060900D03*
D221*
X0206650Y0061000D03*
D222*
X0206650Y0061100D03*
D223*
X0206650Y0061200D03*
D224*
X0206650Y0061300D03*
D225*
X0206650Y0061400D03*
D226*
X0206650Y0061500D03*
D227*
X0206650Y0061600D03*
D228*
X0206650Y0061700D03*
D229*
X0206650Y0061900D03*
D230*
X0206650Y0062000D03*
D231*
X0206650Y0062100D03*
D232*
X0206650Y0062400D03*
D233*
X0206650Y0062600D03*
D234*
X0206650Y0063700D03*
D235*
X0206650Y0063900D03*
M02*
