G75*
%MOIN*%
%OFA0B0*%
%FSLAX25Y25*%
%IPPOS*%
%LPD*%
%AMOC8*
5,1,8,0,0,1.08239X$1,22.5*
%
%ADD10R,0.05131X0.04737*%
%ADD11R,0.07099X0.07887*%
%ADD12R,0.02170X0.06300*%
%ADD13C,0.01421*%
%ADD14R,0.05800X0.03000*%
%ADD15R,0.03000X0.05800*%
%ADD16R,0.04737X0.05131*%
%ADD17C,0.07493*%
%ADD18OC8,0.05950*%
%ADD19R,0.05950X0.05950*%
%ADD20R,0.03200X0.09500*%
%ADD21R,0.06587X0.05800*%
%ADD22R,0.06902X0.07099*%
%ADD23C,0.02572*%
%ADD24R,0.06040X0.13760*%
%ADD25R,0.03950X0.05131*%
%ADD26OC8,0.06800*%
%ADD27R,0.08674X0.09855*%
%ADD28R,0.06706X0.09068*%
%ADD29R,0.09068X0.06706*%
%ADD30C,0.05524*%
%ADD31R,0.06312X0.02375*%
%ADD32R,0.08280X0.08674*%
%ADD33R,0.05800X0.09461*%
%ADD34C,0.04800*%
D10*
X0163154Y0096500D03*
X0169846Y0096500D03*
X0169846Y0106500D03*
X0163154Y0106500D03*
X0163154Y0131500D03*
X0169846Y0131500D03*
X0139846Y0151500D03*
X0133154Y0151500D03*
X0133154Y0166500D03*
X0139846Y0166500D03*
X0139846Y0181500D03*
X0133154Y0181500D03*
X0153154Y0191500D03*
X0159846Y0191500D03*
X0168154Y0191500D03*
X0174846Y0191500D03*
X0213154Y0191500D03*
X0219846Y0191500D03*
X0219846Y0131500D03*
X0213154Y0131500D03*
X0233154Y0096500D03*
X0239846Y0096500D03*
X0343154Y0096500D03*
X0349846Y0096500D03*
X0349846Y0106500D03*
X0343154Y0106500D03*
X0343154Y0116500D03*
X0349846Y0116500D03*
X0104846Y0126500D03*
X0098154Y0126500D03*
X0089846Y0126500D03*
X0083154Y0126500D03*
X0083154Y0141500D03*
X0089846Y0141500D03*
X0098154Y0141500D03*
X0104846Y0141500D03*
D11*
X0155988Y0146500D03*
X0167012Y0146500D03*
D12*
X0189866Y0152106D03*
X0192425Y0152106D03*
X0194984Y0152106D03*
X0197543Y0152106D03*
X0200102Y0152106D03*
X0202661Y0152106D03*
X0205220Y0152106D03*
X0207780Y0152106D03*
X0210339Y0152106D03*
X0212898Y0152106D03*
X0215457Y0152106D03*
X0218016Y0152106D03*
X0220575Y0152106D03*
X0223134Y0152106D03*
X0223134Y0180894D03*
X0220575Y0180894D03*
X0218016Y0180894D03*
X0215457Y0180894D03*
X0212898Y0180894D03*
X0210339Y0180894D03*
X0207780Y0180894D03*
X0205220Y0180894D03*
X0202661Y0180894D03*
X0200102Y0180894D03*
X0197543Y0180894D03*
X0194984Y0180894D03*
X0192425Y0180894D03*
X0189866Y0180894D03*
D13*
X0176611Y0179842D02*
X0176611Y0183158D01*
X0176611Y0179842D02*
X0173295Y0179842D01*
X0173295Y0183158D01*
X0176611Y0183158D01*
X0176611Y0181262D02*
X0173295Y0181262D01*
X0173295Y0182682D02*
X0176611Y0182682D01*
X0169705Y0183158D02*
X0169705Y0179842D01*
X0166389Y0179842D01*
X0166389Y0183158D01*
X0169705Y0183158D01*
X0169705Y0181262D02*
X0166389Y0181262D01*
X0166389Y0182682D02*
X0169705Y0182682D01*
X0161611Y0183158D02*
X0161611Y0179842D01*
X0158295Y0179842D01*
X0158295Y0183158D01*
X0161611Y0183158D01*
X0161611Y0181262D02*
X0158295Y0181262D01*
X0158295Y0182682D02*
X0161611Y0182682D01*
X0154705Y0183158D02*
X0154705Y0179842D01*
X0151389Y0179842D01*
X0151389Y0183158D01*
X0154705Y0183158D01*
X0154705Y0181262D02*
X0151389Y0181262D01*
X0151389Y0182682D02*
X0154705Y0182682D01*
D14*
X0184600Y0107524D03*
X0184600Y0104374D03*
X0184600Y0101224D03*
X0184600Y0098075D03*
X0184600Y0094925D03*
X0184600Y0091776D03*
X0184600Y0088626D03*
X0184600Y0085476D03*
X0218400Y0085476D03*
X0218400Y0088626D03*
X0218400Y0091776D03*
X0218400Y0094925D03*
X0218400Y0098075D03*
X0218400Y0101224D03*
X0218400Y0104374D03*
X0218400Y0107524D03*
D15*
X0212524Y0113400D03*
X0209374Y0113400D03*
X0206224Y0113400D03*
X0203075Y0113400D03*
X0199925Y0113400D03*
X0196776Y0113400D03*
X0193626Y0113400D03*
X0190476Y0113400D03*
X0190476Y0079600D03*
X0193626Y0079600D03*
X0196776Y0079600D03*
X0199925Y0079600D03*
X0203075Y0079600D03*
X0206224Y0079600D03*
X0209374Y0079600D03*
X0212524Y0079600D03*
D16*
X0056500Y0053154D03*
X0056500Y0059846D03*
X0056500Y0088154D03*
X0056500Y0094846D03*
X0056500Y0123154D03*
X0056500Y0129846D03*
X0076500Y0153154D03*
X0076500Y0159846D03*
X0056500Y0158154D03*
X0056500Y0164846D03*
X0306539Y0124177D03*
D17*
X0329846Y0204965D03*
X0325122Y0238035D03*
X0077878Y0238035D03*
X0073154Y0204965D03*
D18*
X0056815Y0228390D03*
X0346185Y0228390D03*
X0131421Y0044374D03*
D19*
X0121579Y0044374D03*
X0056815Y0214610D03*
D20*
X0089000Y0176800D03*
X0094000Y0176800D03*
X0099000Y0176800D03*
X0104000Y0176800D03*
X0104000Y0156200D03*
X0099000Y0156200D03*
X0094000Y0156200D03*
X0089000Y0156200D03*
D21*
X0116500Y0158035D03*
X0116500Y0174965D03*
D22*
X0291657Y0073961D03*
X0311343Y0073961D03*
X0311343Y0019039D03*
X0291657Y0019039D03*
D23*
X0169364Y0071776D02*
X0163636Y0071776D01*
X0163636Y0076500D02*
X0169364Y0076500D01*
X0169364Y0081224D02*
X0163636Y0081224D01*
D24*
X0166490Y0076510D03*
D25*
X0303941Y0138862D03*
X0309059Y0138862D03*
D26*
X0266500Y0176500D03*
X0256500Y0176500D03*
X0246500Y0176500D03*
X0246500Y0186500D03*
X0256500Y0186500D03*
X0266500Y0186500D03*
D27*
X0015437Y0187720D03*
X0015437Y0165280D03*
X0015437Y0152720D03*
X0015437Y0130280D03*
X0015437Y0117720D03*
X0015437Y0095280D03*
X0015437Y0082720D03*
X0015437Y0060280D03*
D28*
X0035122Y0062642D03*
X0035122Y0080358D03*
X0035122Y0097642D03*
X0035122Y0115358D03*
X0035122Y0132642D03*
X0035122Y0150358D03*
X0035122Y0167642D03*
X0035122Y0185358D03*
D29*
X0045161Y0176500D03*
X0045161Y0141500D03*
X0045161Y0106500D03*
X0045161Y0071500D03*
D30*
X0027248Y0071500D03*
X0011500Y0071500D03*
X0011500Y0106500D03*
X0027248Y0106500D03*
X0027248Y0141500D03*
X0011500Y0141500D03*
X0011500Y0176500D03*
X0027248Y0176500D03*
D31*
X0375280Y0136618D03*
X0375280Y0134059D03*
X0375280Y0131500D03*
X0375280Y0128941D03*
X0375280Y0126382D03*
D32*
X0386500Y0126579D03*
X0386500Y0136421D03*
D33*
X0386500Y0147248D03*
X0386500Y0115752D03*
D34*
X0346250Y0137000D03*
X0313850Y0137000D03*
X0311600Y0120800D03*
X0288200Y0105950D03*
X0257600Y0105950D03*
X0248150Y0110450D03*
X0257600Y0114500D03*
X0228800Y0119000D03*
X0206750Y0122600D03*
X0199550Y0124400D03*
X0190100Y0119000D03*
X0203150Y0107750D03*
X0213050Y0100550D03*
X0209450Y0096950D03*
X0223850Y0088850D03*
X0219800Y0079850D03*
X0190550Y0093350D03*
X0174800Y0100100D03*
X0206750Y0131600D03*
X0213050Y0146450D03*
X0196400Y0146450D03*
X0209000Y0157700D03*
X0197750Y0175250D03*
X0173450Y0186500D03*
X0140150Y0171650D03*
X0125750Y0146900D03*
X0138350Y0146450D03*
X0099200Y0163550D03*
X0081200Y0163550D03*
X0065450Y0173450D03*
X0090200Y0148700D03*
X0061400Y0123500D03*
X0044300Y0123500D03*
X0044300Y0088400D03*
X0061400Y0088400D03*
X0061400Y0057800D03*
X0252650Y0164000D03*
X0284600Y0074000D03*
M02*
