G75*
%MOIN*%
%OFA0B0*%
%FSLAX25Y25*%
%IPPOS*%
%LPD*%
%AMOC8*
5,1,8,0,0,1.08239X$1,22.5*
%
%ADD10R,0.15748X0.06299*%
%ADD11C,0.06600*%
%ADD12C,0.06000*%
%ADD13C,0.07050*%
%ADD14OC8,0.06600*%
%ADD15C,0.01000*%
D10*
X0249992Y0165000D03*
X0274008Y0165000D03*
D11*
X0272000Y0065000D03*
X0272000Y0040000D03*
X0232000Y0040000D03*
X0232000Y0065000D03*
D12*
X0150000Y0100000D02*
X0144000Y0100000D01*
X0144000Y0110000D02*
X0150000Y0110000D01*
X0150000Y0120000D02*
X0144000Y0120000D01*
X0144000Y0130000D02*
X0150000Y0130000D01*
X0150000Y0140000D02*
X0144000Y0140000D01*
X0144000Y0150000D02*
X0150000Y0150000D01*
X0150000Y0160000D02*
X0144000Y0160000D01*
X0144000Y0170000D02*
X0150000Y0170000D01*
X0100000Y0170000D02*
X0094000Y0170000D01*
X0094000Y0160000D02*
X0100000Y0160000D01*
X0100000Y0150000D02*
X0094000Y0150000D01*
X0094000Y0140000D02*
X0100000Y0140000D01*
X0100000Y0130000D02*
X0094000Y0130000D01*
X0094000Y0120000D02*
X0100000Y0120000D01*
X0100000Y0110000D02*
X0094000Y0110000D01*
X0094000Y0100000D02*
X0100000Y0100000D01*
D13*
X0087472Y0063525D02*
X0087472Y0056475D01*
X0107157Y0056475D02*
X0107157Y0063525D01*
X0126843Y0063525D02*
X0126843Y0056475D01*
X0146528Y0056475D02*
X0146528Y0063525D01*
X0258475Y0105157D02*
X0265525Y0105157D01*
X0265525Y0124843D02*
X0258475Y0124843D01*
D14*
X0257000Y0205000D03*
X0267000Y0205000D03*
X0277000Y0205000D03*
X0247000Y0205000D03*
X0237000Y0205000D03*
X0227000Y0205000D03*
X0217000Y0205000D03*
X0207000Y0205000D03*
X0191000Y0205000D03*
X0181000Y0205000D03*
X0171000Y0205000D03*
X0161000Y0205000D03*
X0151000Y0205000D03*
X0141000Y0205000D03*
X0131000Y0205000D03*
X0121000Y0205000D03*
X0157000Y0015000D03*
X0167000Y0015000D03*
X0177000Y0015000D03*
X0187000Y0015000D03*
X0197000Y0015000D03*
X0207000Y0015000D03*
X0227000Y0015000D03*
X0237000Y0015000D03*
X0247000Y0015000D03*
X0257000Y0015000D03*
X0267000Y0015000D03*
X0277000Y0015000D03*
D15*
X0247500Y0040100D02*
X0271800Y0064400D01*
X0272000Y0065000D01*
X0271800Y0065300D01*
X0262800Y0074300D01*
X0262800Y0104900D01*
X0262000Y0105157D01*
X0262000Y0124843D02*
X0261900Y0125600D01*
X0250200Y0137300D01*
X0250200Y0164300D01*
X0249992Y0165000D01*
X0241200Y0169700D02*
X0269100Y0169700D01*
X0273600Y0165200D01*
X0274008Y0165000D01*
X0241200Y0169700D02*
X0232200Y0160700D01*
X0232200Y0065300D01*
X0232000Y0065000D01*
X0232200Y0040100D02*
X0232000Y0040000D01*
X0232200Y0040100D02*
X0247500Y0040100D01*
X0154800Y0068900D02*
X0146700Y0060800D01*
X0146528Y0060000D01*
X0154800Y0068900D02*
X0154800Y0142700D01*
X0147600Y0149900D01*
X0147000Y0150000D01*
X0147000Y0160000D02*
X0147600Y0160700D01*
X0232200Y0160700D01*
X0180900Y0201200D02*
X0180900Y0204800D01*
X0181000Y0205000D01*
X0180900Y0201200D02*
X0158400Y0178700D01*
X0145800Y0178700D01*
X0107100Y0140000D01*
X0097000Y0140000D01*
X0097000Y0130000D02*
X0097200Y0129200D01*
X0097200Y0120200D01*
X0097000Y0120000D01*
X0097000Y0150000D02*
X0097200Y0150800D01*
X0115200Y0150800D01*
X0169200Y0204800D01*
X0171000Y0204800D01*
X0171000Y0205000D01*
X0161000Y0205000D02*
X0160200Y0204800D01*
X0116100Y0160700D01*
X0097200Y0160700D01*
X0097000Y0160000D01*
X0147000Y0130000D02*
X0146700Y0129200D01*
X0108000Y0090500D01*
X0108000Y0060800D01*
X0107157Y0060000D01*
X0112500Y0054500D02*
X0108900Y0050900D01*
X0097200Y0050900D01*
X0088200Y0059900D01*
X0087472Y0060000D01*
X0112500Y0054500D02*
X0112500Y0085100D01*
X0146700Y0119300D01*
X0147000Y0120000D01*
M02*
