G75*
%MOIN*%
%OFA0B0*%
%FSLAX25Y25*%
%IPPOS*%
%LPD*%
%AMOC8*
5,1,8,0,0,1.08239X$1,22.5*
%
%ADD10C,0.00400*%
%ADD11C,0.00600*%
%ADD12C,0.01600*%
%ADD13R,0.15000X0.15000*%
%ADD14C,0.00300*%
%ADD15C,0.00800*%
%ADD16C,0.00500*%
%ADD17R,0.02000X0.10000*%
%ADD18R,0.07500X0.03000*%
%ADD19R,0.00035X0.00770*%
%ADD20R,0.00035X0.01400*%
%ADD21R,0.00035X0.01855*%
%ADD22R,0.00035X0.02170*%
%ADD23R,0.00035X0.02485*%
%ADD24R,0.00035X0.02765*%
%ADD25R,0.00035X0.02975*%
%ADD26R,0.00035X0.03220*%
%ADD27R,0.00035X0.03395*%
%ADD28R,0.00035X0.03605*%
%ADD29R,0.00035X0.03780*%
%ADD30R,0.00035X0.03955*%
%ADD31R,0.00035X0.04130*%
%ADD32R,0.00035X0.04270*%
%ADD33R,0.00035X0.04375*%
%ADD34R,0.00035X0.04550*%
%ADD35R,0.00035X0.04690*%
%ADD36R,0.00035X0.04865*%
%ADD37R,0.00035X0.04970*%
%ADD38R,0.00035X0.05110*%
%ADD39R,0.00035X0.05215*%
%ADD40R,0.00035X0.05355*%
%ADD41R,0.00035X0.05460*%
%ADD42R,0.00035X0.05600*%
%ADD43R,0.00035X0.05705*%
%ADD44R,0.00035X0.05810*%
%ADD45R,0.00035X0.05915*%
%ADD46R,0.00035X0.06055*%
%ADD47R,0.00035X0.06160*%
%ADD48R,0.00035X0.06265*%
%ADD49R,0.00035X0.06335*%
%ADD50R,0.00035X0.06440*%
%ADD51R,0.00035X0.06545*%
%ADD52R,0.00035X0.03080*%
%ADD53R,0.00035X0.02660*%
%ADD54R,0.00035X0.02870*%
%ADD55R,0.00035X0.02415*%
%ADD56R,0.00035X0.02730*%
%ADD57R,0.00035X0.02310*%
%ADD58R,0.00035X0.02695*%
%ADD59R,0.00035X0.02170*%
%ADD60R,0.00035X0.02590*%
%ADD61R,0.00035X0.02100*%
%ADD62R,0.00035X0.02520*%
%ADD63R,0.00035X0.02030*%
%ADD64R,0.00035X0.02450*%
%ADD65R,0.00035X0.01960*%
%ADD66R,0.00035X0.01890*%
%ADD67R,0.00035X0.02380*%
%ADD68R,0.00035X0.01785*%
%ADD69R,0.00035X0.01750*%
%ADD70R,0.00035X0.01715*%
%ADD71R,0.00035X0.02275*%
%ADD72R,0.00035X0.01645*%
%ADD73R,0.00035X0.02240*%
%ADD74R,0.00035X0.01610*%
%ADD75R,0.00035X0.02240*%
%ADD76R,0.00035X0.01575*%
%ADD77R,0.00035X0.01540*%
%ADD78R,0.00035X0.02205*%
%ADD79R,0.00035X0.01505*%
%ADD80R,0.00035X0.01470*%
%ADD81R,0.00035X0.01435*%
%ADD82R,0.00035X0.01365*%
%ADD83R,0.00035X0.01330*%
%ADD84R,0.00035X0.01295*%
%ADD85R,0.00035X0.01295*%
%ADD86R,0.00035X0.01260*%
%ADD87R,0.00035X0.01190*%
%ADD88R,0.00035X0.01225*%
%ADD89R,0.00035X0.00385*%
%ADD90R,0.00035X0.00980*%
%ADD91R,0.00035X0.01155*%
%ADD92R,0.00035X0.01645*%
%ADD93R,0.00035X0.01015*%
%ADD94R,0.00035X0.01050*%
%ADD95R,0.00035X0.02345*%
%ADD96R,0.00035X0.01085*%
%ADD97R,0.00035X0.02905*%
%ADD98R,0.00035X0.03045*%
%ADD99R,0.00035X0.01120*%
%ADD100R,0.00035X0.02345*%
%ADD101R,0.00035X0.03255*%
%ADD102R,0.00035X0.01120*%
%ADD103R,0.00035X0.03500*%
%ADD104R,0.00035X0.02415*%
%ADD105R,0.00035X0.03640*%
%ADD106R,0.00035X0.04900*%
%ADD107R,0.00035X0.04935*%
%ADD108R,0.00035X0.05005*%
%ADD109R,0.00035X0.01680*%
%ADD110R,0.00035X0.02065*%
%ADD111R,0.00035X0.02555*%
%ADD112R,0.00035X0.02590*%
%ADD113R,0.00035X0.02625*%
%ADD114R,0.00035X0.02695*%
%ADD115R,0.00035X0.01470*%
%ADD116R,0.00035X0.02765*%
%ADD117R,0.00035X0.02800*%
%ADD118R,0.00035X0.02835*%
%ADD119R,0.00035X0.01365*%
%ADD120R,0.00035X0.02940*%
%ADD121R,0.00035X0.03010*%
%ADD122R,0.00035X0.03045*%
%ADD123R,0.00035X0.03115*%
%ADD124R,0.00035X0.03150*%
%ADD125R,0.00035X0.03185*%
%ADD126R,0.00035X0.03220*%
%ADD127R,0.00035X0.01190*%
%ADD128R,0.00035X0.03290*%
%ADD129R,0.00035X0.03325*%
%ADD130R,0.00035X0.03360*%
%ADD131R,0.00035X0.03430*%
%ADD132R,0.00035X0.03465*%
%ADD133R,0.00035X0.03535*%
%ADD134R,0.00035X0.03570*%
%ADD135R,0.00035X0.03675*%
%ADD136R,0.00035X0.03710*%
%ADD137R,0.00035X0.03745*%
%ADD138R,0.00035X0.03815*%
%ADD139R,0.00035X0.03850*%
%ADD140R,0.00035X0.03885*%
%ADD141R,0.00035X0.03920*%
%ADD142R,0.00035X0.03990*%
%ADD143R,0.00035X0.04025*%
%ADD144R,0.00035X0.02870*%
%ADD145R,0.00035X0.04095*%
%ADD146R,0.00035X0.04165*%
%ADD147R,0.00035X0.04200*%
%ADD148R,0.00035X0.04235*%
%ADD149R,0.00035X0.04270*%
%ADD150R,0.00035X0.01820*%
%ADD151R,0.00035X0.04305*%
%ADD152R,0.00035X0.04340*%
%ADD153R,0.00035X0.01925*%
%ADD154R,0.00035X0.04410*%
%ADD155R,0.00035X0.00945*%
%ADD156R,0.00035X0.00875*%
%ADD157R,0.00035X0.00840*%
%ADD158R,0.00035X0.02135*%
%ADD159R,0.00035X0.00805*%
%ADD160R,0.00035X0.00735*%
%ADD161R,0.00035X0.01995*%
%ADD162R,0.00035X0.02520*%
%ADD163R,0.00035X0.01540*%
%ADD164R,0.00035X0.00770*%
%ADD165R,0.00035X0.00665*%
%ADD166R,0.00035X0.00420*%
%ADD167R,0.00035X0.00910*%
%ADD168R,0.00035X0.04060*%
%ADD169R,0.00035X0.01015*%
%ADD170R,0.00035X0.03115*%
%ADD171R,0.00035X0.03395*%
%ADD172R,0.00035X0.03745*%
%ADD173R,0.00035X0.04340*%
%ADD174R,0.00035X0.04480*%
%ADD175R,0.00035X0.02065*%
%ADD176R,0.00035X0.04515*%
%ADD177R,0.00035X0.04585*%
%ADD178R,0.00035X0.04760*%
%ADD179R,0.00035X0.04830*%
%ADD180R,0.00035X0.07805*%
%ADD181R,0.00035X0.07840*%
%ADD182R,0.00035X0.07875*%
%ADD183R,0.00035X0.07910*%
%ADD184R,0.00035X0.07945*%
%ADD185R,0.00035X0.07980*%
%ADD186R,0.00035X0.08015*%
%ADD187R,0.00035X0.08050*%
%ADD188R,0.00035X0.05635*%
%ADD189R,0.00035X0.01995*%
%ADD190R,0.00035X0.01890*%
%ADD191R,0.00035X0.01715*%
%ADD192R,0.00035X0.00945*%
%ADD193R,0.00035X0.00560*%
%ADD194R,0.00035X0.01820*%
%ADD195R,0.00035X0.00700*%
%ADD196R,0.00035X0.00630*%
%ADD197R,0.00035X0.00525*%
%ADD198R,0.00035X0.00175*%
%ADD199R,0.00035X0.00595*%
%ADD200R,0.00035X0.00490*%
%ADD201R,0.00035X0.00210*%
%ADD202R,0.00035X0.00490*%
%ADD203R,0.00035X0.00315*%
%ADD204R,0.00040X0.00520*%
%ADD205R,0.00040X0.00520*%
%ADD206R,0.00040X0.00760*%
%ADD207R,0.00040X0.00640*%
%ADD208R,0.00040X0.00440*%
%ADD209R,0.00040X0.00480*%
%ADD210R,0.00040X0.00520*%
%ADD211R,0.00040X0.00520*%
%ADD212R,0.00040X0.01400*%
%ADD213R,0.00040X0.00800*%
%ADD214R,0.00040X0.00480*%
%ADD215R,0.00040X0.00960*%
%ADD216R,0.00040X0.01440*%
%ADD217R,0.00040X0.01080*%
%ADD218R,0.00040X0.01520*%
%ADD219R,0.00040X0.01440*%
%ADD220R,0.00040X0.00560*%
%ADD221R,0.00040X0.01480*%
%ADD222R,0.00040X0.01200*%
%ADD223R,0.00040X0.01560*%
%ADD224R,0.00040X0.01320*%
%ADD225R,0.00040X0.01560*%
%ADD226R,0.00040X0.01520*%
%ADD227R,0.00040X0.00600*%
%ADD228R,0.00040X0.00560*%
%ADD229R,0.00040X0.01400*%
%ADD230R,0.00040X0.01600*%
%ADD231R,0.00040X0.00600*%
%ADD232R,0.00040X0.00640*%
%ADD233R,0.00040X0.01640*%
%ADD234R,0.00040X0.00680*%
%ADD235R,0.00040X0.01680*%
%ADD236R,0.00040X0.01680*%
%ADD237R,0.00040X0.01640*%
%ADD238R,0.00040X0.00720*%
%ADD239R,0.00040X0.01480*%
%ADD240R,0.00040X0.00760*%
%ADD241R,0.00040X0.00720*%
%ADD242R,0.00040X0.00640*%
%ADD243R,0.00040X0.00360*%
%ADD244R,0.00040X0.00240*%
%ADD245R,0.00040X0.00160*%
%ADD246R,0.00040X0.00840*%
%ADD247R,0.00040X0.00080*%
%ADD248R,0.00040X0.00880*%
%ADD249R,0.00040X0.00920*%
%ADD250R,0.00040X0.00960*%
%ADD251R,0.00040X0.01640*%
%ADD252R,0.00040X0.01760*%
%ADD253R,0.00040X0.00440*%
%ADD254R,0.00040X0.01000*%
%ADD255R,0.00040X0.01760*%
%ADD256R,0.00040X0.00440*%
%ADD257R,0.00040X0.01320*%
%ADD258R,0.00040X0.01200*%
%ADD259R,0.00040X0.00920*%
%ADD260R,0.00040X0.00840*%
%ADD261R,0.00040X0.00800*%
%ADD262R,0.00040X0.00080*%
%ADD263R,0.00040X0.00120*%
%ADD264R,0.00040X0.00240*%
%ADD265R,0.00040X0.00720*%
%ADD266R,0.00040X0.00200*%
%ADD267R,0.00040X0.00400*%
%ADD268R,0.00040X0.01240*%
%ADD269R,0.00040X0.01640*%
%ADD270R,0.00040X0.01440*%
%ADD271R,0.00040X0.01280*%
%ADD272R,0.00040X0.01520*%
%ADD273R,0.00040X0.01280*%
%ADD274R,0.00040X0.01520*%
%ADD275R,0.00040X0.01360*%
%ADD276R,0.00040X0.01440*%
%ADD277R,0.00040X0.01240*%
%ADD278R,0.00040X0.01120*%
%ADD279R,0.00040X0.01240*%
%ADD280R,0.00040X0.01040*%
%ADD281R,0.00040X0.00840*%
%ADD282R,0.00040X0.00440*%
%ADD283R,0.00040X0.00400*%
%ADD284R,0.00040X0.00320*%
%ADD285R,0.00040X0.00920*%
%ADD286R,0.00040X0.01040*%
%ADD287R,0.00040X0.01000*%
%ADD288R,0.00040X0.01080*%
%ADD289R,0.00040X0.01160*%
%ADD290R,0.00040X0.01040*%
%ADD291R,0.00040X0.01160*%
%ADD292R,0.00040X0.01600*%
%ADD293R,0.00040X0.01720*%
%ADD294R,0.00040X0.01720*%
%ADD295R,0.00040X0.00640*%
%ADD296R,0.00040X0.00680*%
%ADD297R,0.00040X0.00360*%
%ADD298R,0.00040X0.00280*%
%ADD299R,0.00040X0.00120*%
%ADD300R,0.00040X0.00040*%
%ADD301R,0.00040X0.00040*%
%ADD302R,0.00040X0.01320*%
%ADD303R,0.00040X0.00280*%
%ADD304R,0.00040X0.00320*%
%ADD305R,0.00040X0.01320*%
%ADD306R,0.00040X0.01120*%
%ADD307R,0.00040X0.01120*%
%ADD308R,0.00040X0.01800*%
%ADD309R,0.00040X0.01920*%
%ADD310R,0.00040X0.01920*%
%ADD311R,0.00040X0.02000*%
%ADD312R,0.00040X0.02120*%
%ADD313R,0.00040X0.02200*%
%ADD314R,0.00040X0.02320*%
%ADD315R,0.00040X0.02400*%
%ADD316R,0.00040X0.02520*%
%ADD317R,0.00040X0.02600*%
%ADD318R,0.00040X0.00880*%
%ADD319R,0.00040X0.03680*%
%ADD320R,0.00040X0.03720*%
%ADD321R,0.00040X0.03800*%
%ADD322R,0.00040X0.03840*%
%ADD323R,0.00040X0.03840*%
%ADD324R,0.00040X0.03920*%
%ADD325R,0.00040X0.03960*%
%ADD326R,0.00040X0.04000*%
%ADD327R,0.00040X0.04080*%
%ADD328R,0.00040X0.04120*%
%ADD329R,0.00040X0.04160*%
%ADD330R,0.00040X0.04200*%
%ADD331R,0.00040X0.04200*%
%ADD332R,0.00040X0.04160*%
%ADD333R,0.00040X0.04120*%
%ADD334R,0.00040X0.04080*%
%ADD335R,0.00040X0.04040*%
%ADD336R,0.00040X0.04040*%
%ADD337R,0.00040X0.04040*%
%ADD338R,0.00040X0.04040*%
%ADD339R,0.00040X0.03960*%
%ADD340R,0.00040X0.03920*%
%ADD341R,0.00040X0.03920*%
%ADD342R,0.00040X0.03880*%
%ADD343R,0.00040X0.03920*%
%ADD344R,0.00040X0.03880*%
%ADD345R,0.00040X0.03800*%
%ADD346R,0.00040X0.04240*%
%ADD347R,0.00040X0.04240*%
%ADD348R,0.00040X0.04280*%
%ADD349R,0.00040X0.04360*%
%ADD350R,0.00040X0.04400*%
%ADD351R,0.00040X0.04440*%
%ADD352R,0.00040X0.04520*%
%ADD353R,0.00040X0.04520*%
%ADD354R,0.00040X0.04520*%
%ADD355R,0.00040X0.04520*%
%ADD356R,0.00040X0.04480*%
%ADD357R,0.00040X0.04440*%
%ADD358R,0.00040X0.04400*%
%ADD359R,0.00040X0.04360*%
%ADD360R,0.00040X0.04320*%
%ADD361R,0.00040X0.04240*%
%ADD362R,0.00040X0.04320*%
%ADD363R,0.00040X0.04320*%
%ADD364R,0.00040X0.04560*%
%ADD365R,0.00040X0.04720*%
%ADD366R,0.00040X0.04920*%
%ADD367R,0.00040X0.04920*%
%ADD368R,0.00040X0.05080*%
%ADD369R,0.00040X0.05240*%
%ADD370R,0.00040X0.05240*%
%ADD371R,0.00040X0.05480*%
%ADD372R,0.00040X0.05640*%
%ADD373R,0.00040X0.05640*%
%ADD374R,0.00040X0.05680*%
%ADD375R,0.00040X0.05640*%
%ADD376R,0.00040X0.05600*%
%ADD377R,0.00040X0.05600*%
%ADD378R,0.00040X0.05560*%
%ADD379R,0.00040X0.05520*%
%ADD380R,0.00040X0.05520*%
%ADD381R,0.00040X0.05480*%
%ADD382R,0.00040X0.05440*%
%ADD383R,0.00040X0.05440*%
%ADD384R,0.00040X0.05560*%
%ADD385R,0.00040X0.05680*%
%ADD386R,0.00040X0.05440*%
%ADD387R,0.00040X0.05280*%
%ADD388R,0.00040X0.04920*%
%ADD389R,0.00040X0.04600*%
%ADD390R,0.00040X0.04840*%
%ADD391R,0.00040X0.10440*%
%ADD392R,0.00040X0.10360*%
%ADD393R,0.00040X0.10360*%
%ADD394R,0.00040X0.10280*%
%ADD395R,0.00040X0.10200*%
%ADD396R,0.00040X0.10200*%
%ADD397R,0.00040X0.10120*%
%ADD398R,0.00040X0.10040*%
%ADD399R,0.00040X0.10040*%
%ADD400R,0.00040X0.09960*%
%ADD401R,0.00040X0.09880*%
%ADD402R,0.00040X0.09880*%
%ADD403R,0.00040X0.09800*%
%ADD404R,0.00040X0.09720*%
%ADD405R,0.00040X0.09720*%
%ADD406R,0.00040X0.10280*%
%ADD407R,0.00040X0.10520*%
%ADD408R,0.00040X0.10520*%
%ADD409R,0.00040X0.10600*%
%ADD410R,0.00040X0.10680*%
%ADD411R,0.00040X0.10760*%
%ADD412R,0.00040X0.10840*%
%ADD413R,0.00040X0.10920*%
%ADD414R,0.00040X0.11000*%
%ADD415R,0.00040X0.11080*%
%ADD416R,0.00040X0.11080*%
%ADD417R,0.00040X0.11160*%
%ADD418R,0.00040X0.11240*%
%ADD419R,0.00040X0.11320*%
%ADD420R,0.00040X0.11400*%
%ADD421R,0.00040X0.11400*%
%ADD422R,0.00040X0.11480*%
%ADD423R,0.00040X0.11560*%
%ADD424R,0.00040X0.11640*%
%ADD425R,0.00040X0.11640*%
%ADD426R,0.00040X0.11720*%
%ADD427R,0.00040X0.11800*%
%ADD428R,0.00040X0.11880*%
%ADD429R,0.00040X0.11880*%
%ADD430R,0.00040X0.11960*%
%ADD431R,0.00040X0.11720*%
%ADD432R,0.00040X0.11320*%
%ADD433R,0.00040X0.02760*%
%ADD434R,0.00040X0.05400*%
%ADD435R,0.00040X0.02640*%
%ADD436R,0.00040X0.05160*%
%ADD437R,0.00040X0.02560*%
%ADD438R,0.00040X0.05000*%
%ADD439R,0.00040X0.02440*%
%ADD440R,0.00040X0.04760*%
%ADD441R,0.00040X0.02440*%
%ADD442R,0.00040X0.02360*%
%ADD443R,0.00040X0.04600*%
%ADD444R,0.00040X0.02280*%
%ADD445R,0.00040X0.02240*%
%ADD446R,0.00040X0.02160*%
%ADD447R,0.00040X0.02080*%
%ADD448R,0.00040X0.01960*%
%ADD449R,0.00040X0.01880*%
%ADD450R,0.00040X0.03640*%
%ADD451R,0.00040X0.03400*%
%ADD452R,0.00040X0.03240*%
%ADD453R,0.00040X0.03000*%
%ADD454R,0.00040X0.02920*%
%ADD455R,0.00040X0.01360*%
%ADD456R,0.00040X0.02840*%
%ADD457R,0.00040X0.02840*%
%ADD458R,0.00040X0.02760*%
%ADD459R,0.00040X0.02680*%
%ADD460R,0.00040X0.02680*%
%ADD461R,0.00040X0.02600*%
%ADD462R,0.00040X0.02520*%
%ADD463R,0.00040X0.02520*%
%ADD464R,0.00040X0.02440*%
%ADD465R,0.00040X0.02360*%
%ADD466R,0.00040X0.02280*%
%ADD467R,0.00040X0.02200*%
%ADD468R,0.00040X0.02120*%
D10*
X0245310Y0183802D02*
X0246078Y0183035D01*
X0247612Y0183035D01*
X0248380Y0183802D01*
X0249914Y0183802D02*
X0250681Y0183035D01*
X0252216Y0183035D01*
X0252983Y0183802D01*
X0252983Y0184569D01*
X0252216Y0185337D01*
X0249914Y0185337D01*
X0249914Y0183802D01*
X0249914Y0185337D02*
X0251449Y0186871D01*
X0252983Y0187639D01*
X0248380Y0186871D02*
X0247612Y0187639D01*
X0246078Y0187639D01*
X0245310Y0186871D01*
X0245310Y0183802D01*
X0287963Y0132477D02*
X0287196Y0131710D01*
X0287196Y0129408D01*
X0291800Y0129408D01*
X0291800Y0131710D01*
X0291033Y0132477D01*
X0287963Y0132477D01*
X0287196Y0127873D02*
X0291800Y0127873D01*
X0287196Y0124804D01*
X0291800Y0124804D01*
X0291033Y0123269D02*
X0289498Y0123269D01*
X0289498Y0121735D01*
X0287963Y0123269D02*
X0287196Y0122502D01*
X0287196Y0120967D01*
X0287963Y0120200D01*
X0291033Y0120200D01*
X0291800Y0120967D01*
X0291800Y0122502D01*
X0291033Y0123269D01*
X0290265Y0112477D02*
X0287196Y0112477D01*
X0287196Y0109408D02*
X0290265Y0109408D01*
X0291800Y0110942D01*
X0290265Y0112477D01*
X0288731Y0107873D02*
X0287963Y0107873D01*
X0287196Y0107106D01*
X0287196Y0105571D01*
X0287963Y0104804D01*
X0288731Y0107873D02*
X0291800Y0104804D01*
X0291800Y0107873D01*
X0291800Y0103269D02*
X0291800Y0100200D01*
X0291800Y0101735D02*
X0287196Y0101735D01*
X0288731Y0100200D01*
D11*
X0278500Y0095358D02*
X0269098Y0095358D01*
X0243098Y0095358D01*
X0242299Y0095358D01*
X0242299Y0134657D01*
X0243098Y0134657D01*
X0269098Y0134657D01*
X0278500Y0134657D01*
X0278500Y0095358D01*
X0269098Y0095358D02*
X0269098Y0101657D01*
X0269098Y0108657D02*
X0269098Y0121358D01*
X0269098Y0128358D02*
X0269098Y0134657D01*
X0246300Y0124857D02*
X0246302Y0124946D01*
X0246308Y0125035D01*
X0246318Y0125124D01*
X0246332Y0125212D01*
X0246349Y0125299D01*
X0246371Y0125385D01*
X0246397Y0125471D01*
X0246426Y0125555D01*
X0246459Y0125638D01*
X0246495Y0125719D01*
X0246536Y0125799D01*
X0246579Y0125876D01*
X0246626Y0125952D01*
X0246677Y0126025D01*
X0246730Y0126096D01*
X0246787Y0126165D01*
X0246847Y0126231D01*
X0246910Y0126295D01*
X0246975Y0126355D01*
X0247043Y0126413D01*
X0247114Y0126467D01*
X0247187Y0126518D01*
X0247262Y0126566D01*
X0247339Y0126611D01*
X0247418Y0126652D01*
X0247499Y0126689D01*
X0247581Y0126723D01*
X0247665Y0126754D01*
X0247750Y0126780D01*
X0247836Y0126803D01*
X0247923Y0126821D01*
X0248011Y0126836D01*
X0248100Y0126847D01*
X0248189Y0126854D01*
X0248278Y0126857D01*
X0248367Y0126856D01*
X0248456Y0126851D01*
X0248544Y0126842D01*
X0248633Y0126829D01*
X0248720Y0126812D01*
X0248807Y0126792D01*
X0248893Y0126767D01*
X0248977Y0126739D01*
X0249060Y0126707D01*
X0249142Y0126671D01*
X0249222Y0126632D01*
X0249300Y0126589D01*
X0249376Y0126543D01*
X0249450Y0126493D01*
X0249522Y0126440D01*
X0249591Y0126384D01*
X0249658Y0126325D01*
X0249722Y0126263D01*
X0249783Y0126199D01*
X0249842Y0126131D01*
X0249897Y0126061D01*
X0249949Y0125989D01*
X0249998Y0125914D01*
X0250043Y0125838D01*
X0250085Y0125759D01*
X0250123Y0125679D01*
X0250158Y0125597D01*
X0250189Y0125513D01*
X0250217Y0125428D01*
X0250240Y0125342D01*
X0250260Y0125255D01*
X0250276Y0125168D01*
X0250288Y0125079D01*
X0250296Y0124991D01*
X0250300Y0124902D01*
X0250300Y0124812D01*
X0250296Y0124723D01*
X0250288Y0124635D01*
X0250276Y0124546D01*
X0250260Y0124459D01*
X0250240Y0124372D01*
X0250217Y0124286D01*
X0250189Y0124201D01*
X0250158Y0124117D01*
X0250123Y0124035D01*
X0250085Y0123955D01*
X0250043Y0123876D01*
X0249998Y0123800D01*
X0249949Y0123725D01*
X0249897Y0123653D01*
X0249842Y0123583D01*
X0249783Y0123515D01*
X0249722Y0123451D01*
X0249658Y0123389D01*
X0249591Y0123330D01*
X0249522Y0123274D01*
X0249450Y0123221D01*
X0249376Y0123171D01*
X0249300Y0123125D01*
X0249222Y0123082D01*
X0249142Y0123043D01*
X0249060Y0123007D01*
X0248977Y0122975D01*
X0248893Y0122947D01*
X0248807Y0122922D01*
X0248720Y0122902D01*
X0248633Y0122885D01*
X0248544Y0122872D01*
X0248456Y0122863D01*
X0248367Y0122858D01*
X0248278Y0122857D01*
X0248189Y0122860D01*
X0248100Y0122867D01*
X0248011Y0122878D01*
X0247923Y0122893D01*
X0247836Y0122911D01*
X0247750Y0122934D01*
X0247665Y0122960D01*
X0247581Y0122991D01*
X0247499Y0123025D01*
X0247418Y0123062D01*
X0247339Y0123103D01*
X0247262Y0123148D01*
X0247187Y0123196D01*
X0247114Y0123247D01*
X0247043Y0123301D01*
X0246975Y0123359D01*
X0246910Y0123419D01*
X0246847Y0123483D01*
X0246787Y0123549D01*
X0246730Y0123618D01*
X0246677Y0123689D01*
X0246626Y0123762D01*
X0246579Y0123838D01*
X0246536Y0123915D01*
X0246495Y0123995D01*
X0246459Y0124076D01*
X0246426Y0124159D01*
X0246397Y0124243D01*
X0246371Y0124329D01*
X0246349Y0124415D01*
X0246332Y0124502D01*
X0246318Y0124590D01*
X0246308Y0124679D01*
X0246302Y0124768D01*
X0246300Y0124857D01*
X0243098Y0134657D02*
X0243098Y0095358D01*
X0246300Y0105157D02*
X0246302Y0105246D01*
X0246308Y0105335D01*
X0246318Y0105424D01*
X0246332Y0105512D01*
X0246349Y0105599D01*
X0246371Y0105685D01*
X0246397Y0105771D01*
X0246426Y0105855D01*
X0246459Y0105938D01*
X0246495Y0106019D01*
X0246536Y0106099D01*
X0246579Y0106176D01*
X0246626Y0106252D01*
X0246677Y0106325D01*
X0246730Y0106396D01*
X0246787Y0106465D01*
X0246847Y0106531D01*
X0246910Y0106595D01*
X0246975Y0106655D01*
X0247043Y0106713D01*
X0247114Y0106767D01*
X0247187Y0106818D01*
X0247262Y0106866D01*
X0247339Y0106911D01*
X0247418Y0106952D01*
X0247499Y0106989D01*
X0247581Y0107023D01*
X0247665Y0107054D01*
X0247750Y0107080D01*
X0247836Y0107103D01*
X0247923Y0107121D01*
X0248011Y0107136D01*
X0248100Y0107147D01*
X0248189Y0107154D01*
X0248278Y0107157D01*
X0248367Y0107156D01*
X0248456Y0107151D01*
X0248544Y0107142D01*
X0248633Y0107129D01*
X0248720Y0107112D01*
X0248807Y0107092D01*
X0248893Y0107067D01*
X0248977Y0107039D01*
X0249060Y0107007D01*
X0249142Y0106971D01*
X0249222Y0106932D01*
X0249300Y0106889D01*
X0249376Y0106843D01*
X0249450Y0106793D01*
X0249522Y0106740D01*
X0249591Y0106684D01*
X0249658Y0106625D01*
X0249722Y0106563D01*
X0249783Y0106499D01*
X0249842Y0106431D01*
X0249897Y0106361D01*
X0249949Y0106289D01*
X0249998Y0106214D01*
X0250043Y0106138D01*
X0250085Y0106059D01*
X0250123Y0105979D01*
X0250158Y0105897D01*
X0250189Y0105813D01*
X0250217Y0105728D01*
X0250240Y0105642D01*
X0250260Y0105555D01*
X0250276Y0105468D01*
X0250288Y0105379D01*
X0250296Y0105291D01*
X0250300Y0105202D01*
X0250300Y0105112D01*
X0250296Y0105023D01*
X0250288Y0104935D01*
X0250276Y0104846D01*
X0250260Y0104759D01*
X0250240Y0104672D01*
X0250217Y0104586D01*
X0250189Y0104501D01*
X0250158Y0104417D01*
X0250123Y0104335D01*
X0250085Y0104255D01*
X0250043Y0104176D01*
X0249998Y0104100D01*
X0249949Y0104025D01*
X0249897Y0103953D01*
X0249842Y0103883D01*
X0249783Y0103815D01*
X0249722Y0103751D01*
X0249658Y0103689D01*
X0249591Y0103630D01*
X0249522Y0103574D01*
X0249450Y0103521D01*
X0249376Y0103471D01*
X0249300Y0103425D01*
X0249222Y0103382D01*
X0249142Y0103343D01*
X0249060Y0103307D01*
X0248977Y0103275D01*
X0248893Y0103247D01*
X0248807Y0103222D01*
X0248720Y0103202D01*
X0248633Y0103185D01*
X0248544Y0103172D01*
X0248456Y0103163D01*
X0248367Y0103158D01*
X0248278Y0103157D01*
X0248189Y0103160D01*
X0248100Y0103167D01*
X0248011Y0103178D01*
X0247923Y0103193D01*
X0247836Y0103211D01*
X0247750Y0103234D01*
X0247665Y0103260D01*
X0247581Y0103291D01*
X0247499Y0103325D01*
X0247418Y0103362D01*
X0247339Y0103403D01*
X0247262Y0103448D01*
X0247187Y0103496D01*
X0247114Y0103547D01*
X0247043Y0103601D01*
X0246975Y0103659D01*
X0246910Y0103719D01*
X0246847Y0103783D01*
X0246787Y0103849D01*
X0246730Y0103918D01*
X0246677Y0103989D01*
X0246626Y0104062D01*
X0246579Y0104138D01*
X0246536Y0104215D01*
X0246495Y0104295D01*
X0246459Y0104376D01*
X0246426Y0104459D01*
X0246397Y0104543D01*
X0246371Y0104629D01*
X0246349Y0104715D01*
X0246332Y0104802D01*
X0246318Y0104890D01*
X0246308Y0104979D01*
X0246302Y0105068D01*
X0246300Y0105157D01*
X0244000Y0070000D02*
X0244000Y0060000D01*
X0260000Y0060000D01*
X0260000Y0070000D01*
X0244000Y0070000D01*
X0249500Y0065000D02*
X0252000Y0065000D01*
X0252000Y0062500D01*
X0252000Y0065000D02*
X0252000Y0067500D01*
X0252000Y0065000D02*
X0256000Y0067500D01*
X0256000Y0062500D01*
X0252000Y0065000D01*
X0258000Y0065000D01*
X0260000Y0045000D02*
X0244000Y0045000D01*
X0244000Y0035000D01*
X0260000Y0035000D01*
X0260000Y0045000D01*
X0256000Y0042500D02*
X0252000Y0040000D01*
X0252000Y0037500D01*
X0252000Y0040000D02*
X0249500Y0040000D01*
X0252000Y0040000D02*
X0252000Y0042500D01*
X0252000Y0040000D02*
X0258000Y0040000D01*
X0256000Y0037500D02*
X0252000Y0040000D01*
X0256000Y0042500D02*
X0256000Y0037500D01*
X0156374Y0043500D02*
X0156374Y0052902D01*
X0156374Y0078902D01*
X0077673Y0078902D01*
X0077673Y0079701D01*
X0156374Y0079701D01*
X0156374Y0078902D01*
X0144572Y0073700D02*
X0144574Y0073789D01*
X0144580Y0073878D01*
X0144590Y0073967D01*
X0144604Y0074055D01*
X0144621Y0074142D01*
X0144643Y0074228D01*
X0144669Y0074314D01*
X0144698Y0074398D01*
X0144731Y0074481D01*
X0144767Y0074562D01*
X0144808Y0074642D01*
X0144851Y0074719D01*
X0144898Y0074795D01*
X0144949Y0074868D01*
X0145002Y0074939D01*
X0145059Y0075008D01*
X0145119Y0075074D01*
X0145182Y0075138D01*
X0145247Y0075198D01*
X0145315Y0075256D01*
X0145386Y0075310D01*
X0145459Y0075361D01*
X0145534Y0075409D01*
X0145611Y0075454D01*
X0145690Y0075495D01*
X0145771Y0075532D01*
X0145853Y0075566D01*
X0145937Y0075597D01*
X0146022Y0075623D01*
X0146108Y0075646D01*
X0146195Y0075664D01*
X0146283Y0075679D01*
X0146372Y0075690D01*
X0146461Y0075697D01*
X0146550Y0075700D01*
X0146639Y0075699D01*
X0146728Y0075694D01*
X0146816Y0075685D01*
X0146905Y0075672D01*
X0146992Y0075655D01*
X0147079Y0075635D01*
X0147165Y0075610D01*
X0147249Y0075582D01*
X0147332Y0075550D01*
X0147414Y0075514D01*
X0147494Y0075475D01*
X0147572Y0075432D01*
X0147648Y0075386D01*
X0147722Y0075336D01*
X0147794Y0075283D01*
X0147863Y0075227D01*
X0147930Y0075168D01*
X0147994Y0075106D01*
X0148055Y0075042D01*
X0148114Y0074974D01*
X0148169Y0074904D01*
X0148221Y0074832D01*
X0148270Y0074757D01*
X0148315Y0074681D01*
X0148357Y0074602D01*
X0148395Y0074522D01*
X0148430Y0074440D01*
X0148461Y0074356D01*
X0148489Y0074271D01*
X0148512Y0074185D01*
X0148532Y0074098D01*
X0148548Y0074011D01*
X0148560Y0073922D01*
X0148568Y0073834D01*
X0148572Y0073745D01*
X0148572Y0073655D01*
X0148568Y0073566D01*
X0148560Y0073478D01*
X0148548Y0073389D01*
X0148532Y0073302D01*
X0148512Y0073215D01*
X0148489Y0073129D01*
X0148461Y0073044D01*
X0148430Y0072960D01*
X0148395Y0072878D01*
X0148357Y0072798D01*
X0148315Y0072719D01*
X0148270Y0072643D01*
X0148221Y0072568D01*
X0148169Y0072496D01*
X0148114Y0072426D01*
X0148055Y0072358D01*
X0147994Y0072294D01*
X0147930Y0072232D01*
X0147863Y0072173D01*
X0147794Y0072117D01*
X0147722Y0072064D01*
X0147648Y0072014D01*
X0147572Y0071968D01*
X0147494Y0071925D01*
X0147414Y0071886D01*
X0147332Y0071850D01*
X0147249Y0071818D01*
X0147165Y0071790D01*
X0147079Y0071765D01*
X0146992Y0071745D01*
X0146905Y0071728D01*
X0146816Y0071715D01*
X0146728Y0071706D01*
X0146639Y0071701D01*
X0146550Y0071700D01*
X0146461Y0071703D01*
X0146372Y0071710D01*
X0146283Y0071721D01*
X0146195Y0071736D01*
X0146108Y0071754D01*
X0146022Y0071777D01*
X0145937Y0071803D01*
X0145853Y0071834D01*
X0145771Y0071868D01*
X0145690Y0071905D01*
X0145611Y0071946D01*
X0145534Y0071991D01*
X0145459Y0072039D01*
X0145386Y0072090D01*
X0145315Y0072144D01*
X0145247Y0072202D01*
X0145182Y0072262D01*
X0145119Y0072326D01*
X0145059Y0072392D01*
X0145002Y0072461D01*
X0144949Y0072532D01*
X0144898Y0072605D01*
X0144851Y0072681D01*
X0144808Y0072758D01*
X0144767Y0072838D01*
X0144731Y0072919D01*
X0144698Y0073002D01*
X0144669Y0073086D01*
X0144643Y0073172D01*
X0144621Y0073258D01*
X0144604Y0073345D01*
X0144590Y0073433D01*
X0144580Y0073522D01*
X0144574Y0073611D01*
X0144572Y0073700D01*
X0124872Y0073700D02*
X0124874Y0073789D01*
X0124880Y0073878D01*
X0124890Y0073967D01*
X0124904Y0074055D01*
X0124921Y0074142D01*
X0124943Y0074228D01*
X0124969Y0074314D01*
X0124998Y0074398D01*
X0125031Y0074481D01*
X0125067Y0074562D01*
X0125108Y0074642D01*
X0125151Y0074719D01*
X0125198Y0074795D01*
X0125249Y0074868D01*
X0125302Y0074939D01*
X0125359Y0075008D01*
X0125419Y0075074D01*
X0125482Y0075138D01*
X0125547Y0075198D01*
X0125615Y0075256D01*
X0125686Y0075310D01*
X0125759Y0075361D01*
X0125834Y0075409D01*
X0125911Y0075454D01*
X0125990Y0075495D01*
X0126071Y0075532D01*
X0126153Y0075566D01*
X0126237Y0075597D01*
X0126322Y0075623D01*
X0126408Y0075646D01*
X0126495Y0075664D01*
X0126583Y0075679D01*
X0126672Y0075690D01*
X0126761Y0075697D01*
X0126850Y0075700D01*
X0126939Y0075699D01*
X0127028Y0075694D01*
X0127116Y0075685D01*
X0127205Y0075672D01*
X0127292Y0075655D01*
X0127379Y0075635D01*
X0127465Y0075610D01*
X0127549Y0075582D01*
X0127632Y0075550D01*
X0127714Y0075514D01*
X0127794Y0075475D01*
X0127872Y0075432D01*
X0127948Y0075386D01*
X0128022Y0075336D01*
X0128094Y0075283D01*
X0128163Y0075227D01*
X0128230Y0075168D01*
X0128294Y0075106D01*
X0128355Y0075042D01*
X0128414Y0074974D01*
X0128469Y0074904D01*
X0128521Y0074832D01*
X0128570Y0074757D01*
X0128615Y0074681D01*
X0128657Y0074602D01*
X0128695Y0074522D01*
X0128730Y0074440D01*
X0128761Y0074356D01*
X0128789Y0074271D01*
X0128812Y0074185D01*
X0128832Y0074098D01*
X0128848Y0074011D01*
X0128860Y0073922D01*
X0128868Y0073834D01*
X0128872Y0073745D01*
X0128872Y0073655D01*
X0128868Y0073566D01*
X0128860Y0073478D01*
X0128848Y0073389D01*
X0128832Y0073302D01*
X0128812Y0073215D01*
X0128789Y0073129D01*
X0128761Y0073044D01*
X0128730Y0072960D01*
X0128695Y0072878D01*
X0128657Y0072798D01*
X0128615Y0072719D01*
X0128570Y0072643D01*
X0128521Y0072568D01*
X0128469Y0072496D01*
X0128414Y0072426D01*
X0128355Y0072358D01*
X0128294Y0072294D01*
X0128230Y0072232D01*
X0128163Y0072173D01*
X0128094Y0072117D01*
X0128022Y0072064D01*
X0127948Y0072014D01*
X0127872Y0071968D01*
X0127794Y0071925D01*
X0127714Y0071886D01*
X0127632Y0071850D01*
X0127549Y0071818D01*
X0127465Y0071790D01*
X0127379Y0071765D01*
X0127292Y0071745D01*
X0127205Y0071728D01*
X0127116Y0071715D01*
X0127028Y0071706D01*
X0126939Y0071701D01*
X0126850Y0071700D01*
X0126761Y0071703D01*
X0126672Y0071710D01*
X0126583Y0071721D01*
X0126495Y0071736D01*
X0126408Y0071754D01*
X0126322Y0071777D01*
X0126237Y0071803D01*
X0126153Y0071834D01*
X0126071Y0071868D01*
X0125990Y0071905D01*
X0125911Y0071946D01*
X0125834Y0071991D01*
X0125759Y0072039D01*
X0125686Y0072090D01*
X0125615Y0072144D01*
X0125547Y0072202D01*
X0125482Y0072262D01*
X0125419Y0072326D01*
X0125359Y0072392D01*
X0125302Y0072461D01*
X0125249Y0072532D01*
X0125198Y0072605D01*
X0125151Y0072681D01*
X0125108Y0072758D01*
X0125067Y0072838D01*
X0125031Y0072919D01*
X0124998Y0073002D01*
X0124969Y0073086D01*
X0124943Y0073172D01*
X0124921Y0073258D01*
X0124904Y0073345D01*
X0124890Y0073433D01*
X0124880Y0073522D01*
X0124874Y0073611D01*
X0124872Y0073700D01*
X0105172Y0073700D02*
X0105174Y0073789D01*
X0105180Y0073878D01*
X0105190Y0073967D01*
X0105204Y0074055D01*
X0105221Y0074142D01*
X0105243Y0074228D01*
X0105269Y0074314D01*
X0105298Y0074398D01*
X0105331Y0074481D01*
X0105367Y0074562D01*
X0105408Y0074642D01*
X0105451Y0074719D01*
X0105498Y0074795D01*
X0105549Y0074868D01*
X0105602Y0074939D01*
X0105659Y0075008D01*
X0105719Y0075074D01*
X0105782Y0075138D01*
X0105847Y0075198D01*
X0105915Y0075256D01*
X0105986Y0075310D01*
X0106059Y0075361D01*
X0106134Y0075409D01*
X0106211Y0075454D01*
X0106290Y0075495D01*
X0106371Y0075532D01*
X0106453Y0075566D01*
X0106537Y0075597D01*
X0106622Y0075623D01*
X0106708Y0075646D01*
X0106795Y0075664D01*
X0106883Y0075679D01*
X0106972Y0075690D01*
X0107061Y0075697D01*
X0107150Y0075700D01*
X0107239Y0075699D01*
X0107328Y0075694D01*
X0107416Y0075685D01*
X0107505Y0075672D01*
X0107592Y0075655D01*
X0107679Y0075635D01*
X0107765Y0075610D01*
X0107849Y0075582D01*
X0107932Y0075550D01*
X0108014Y0075514D01*
X0108094Y0075475D01*
X0108172Y0075432D01*
X0108248Y0075386D01*
X0108322Y0075336D01*
X0108394Y0075283D01*
X0108463Y0075227D01*
X0108530Y0075168D01*
X0108594Y0075106D01*
X0108655Y0075042D01*
X0108714Y0074974D01*
X0108769Y0074904D01*
X0108821Y0074832D01*
X0108870Y0074757D01*
X0108915Y0074681D01*
X0108957Y0074602D01*
X0108995Y0074522D01*
X0109030Y0074440D01*
X0109061Y0074356D01*
X0109089Y0074271D01*
X0109112Y0074185D01*
X0109132Y0074098D01*
X0109148Y0074011D01*
X0109160Y0073922D01*
X0109168Y0073834D01*
X0109172Y0073745D01*
X0109172Y0073655D01*
X0109168Y0073566D01*
X0109160Y0073478D01*
X0109148Y0073389D01*
X0109132Y0073302D01*
X0109112Y0073215D01*
X0109089Y0073129D01*
X0109061Y0073044D01*
X0109030Y0072960D01*
X0108995Y0072878D01*
X0108957Y0072798D01*
X0108915Y0072719D01*
X0108870Y0072643D01*
X0108821Y0072568D01*
X0108769Y0072496D01*
X0108714Y0072426D01*
X0108655Y0072358D01*
X0108594Y0072294D01*
X0108530Y0072232D01*
X0108463Y0072173D01*
X0108394Y0072117D01*
X0108322Y0072064D01*
X0108248Y0072014D01*
X0108172Y0071968D01*
X0108094Y0071925D01*
X0108014Y0071886D01*
X0107932Y0071850D01*
X0107849Y0071818D01*
X0107765Y0071790D01*
X0107679Y0071765D01*
X0107592Y0071745D01*
X0107505Y0071728D01*
X0107416Y0071715D01*
X0107328Y0071706D01*
X0107239Y0071701D01*
X0107150Y0071700D01*
X0107061Y0071703D01*
X0106972Y0071710D01*
X0106883Y0071721D01*
X0106795Y0071736D01*
X0106708Y0071754D01*
X0106622Y0071777D01*
X0106537Y0071803D01*
X0106453Y0071834D01*
X0106371Y0071868D01*
X0106290Y0071905D01*
X0106211Y0071946D01*
X0106134Y0071991D01*
X0106059Y0072039D01*
X0105986Y0072090D01*
X0105915Y0072144D01*
X0105847Y0072202D01*
X0105782Y0072262D01*
X0105719Y0072326D01*
X0105659Y0072392D01*
X0105602Y0072461D01*
X0105549Y0072532D01*
X0105498Y0072605D01*
X0105451Y0072681D01*
X0105408Y0072758D01*
X0105367Y0072838D01*
X0105331Y0072919D01*
X0105298Y0073002D01*
X0105269Y0073086D01*
X0105243Y0073172D01*
X0105221Y0073258D01*
X0105204Y0073345D01*
X0105190Y0073433D01*
X0105180Y0073522D01*
X0105174Y0073611D01*
X0105172Y0073700D01*
X0085472Y0073700D02*
X0085474Y0073789D01*
X0085480Y0073878D01*
X0085490Y0073967D01*
X0085504Y0074055D01*
X0085521Y0074142D01*
X0085543Y0074228D01*
X0085569Y0074314D01*
X0085598Y0074398D01*
X0085631Y0074481D01*
X0085667Y0074562D01*
X0085708Y0074642D01*
X0085751Y0074719D01*
X0085798Y0074795D01*
X0085849Y0074868D01*
X0085902Y0074939D01*
X0085959Y0075008D01*
X0086019Y0075074D01*
X0086082Y0075138D01*
X0086147Y0075198D01*
X0086215Y0075256D01*
X0086286Y0075310D01*
X0086359Y0075361D01*
X0086434Y0075409D01*
X0086511Y0075454D01*
X0086590Y0075495D01*
X0086671Y0075532D01*
X0086753Y0075566D01*
X0086837Y0075597D01*
X0086922Y0075623D01*
X0087008Y0075646D01*
X0087095Y0075664D01*
X0087183Y0075679D01*
X0087272Y0075690D01*
X0087361Y0075697D01*
X0087450Y0075700D01*
X0087539Y0075699D01*
X0087628Y0075694D01*
X0087716Y0075685D01*
X0087805Y0075672D01*
X0087892Y0075655D01*
X0087979Y0075635D01*
X0088065Y0075610D01*
X0088149Y0075582D01*
X0088232Y0075550D01*
X0088314Y0075514D01*
X0088394Y0075475D01*
X0088472Y0075432D01*
X0088548Y0075386D01*
X0088622Y0075336D01*
X0088694Y0075283D01*
X0088763Y0075227D01*
X0088830Y0075168D01*
X0088894Y0075106D01*
X0088955Y0075042D01*
X0089014Y0074974D01*
X0089069Y0074904D01*
X0089121Y0074832D01*
X0089170Y0074757D01*
X0089215Y0074681D01*
X0089257Y0074602D01*
X0089295Y0074522D01*
X0089330Y0074440D01*
X0089361Y0074356D01*
X0089389Y0074271D01*
X0089412Y0074185D01*
X0089432Y0074098D01*
X0089448Y0074011D01*
X0089460Y0073922D01*
X0089468Y0073834D01*
X0089472Y0073745D01*
X0089472Y0073655D01*
X0089468Y0073566D01*
X0089460Y0073478D01*
X0089448Y0073389D01*
X0089432Y0073302D01*
X0089412Y0073215D01*
X0089389Y0073129D01*
X0089361Y0073044D01*
X0089330Y0072960D01*
X0089295Y0072878D01*
X0089257Y0072798D01*
X0089215Y0072719D01*
X0089170Y0072643D01*
X0089121Y0072568D01*
X0089069Y0072496D01*
X0089014Y0072426D01*
X0088955Y0072358D01*
X0088894Y0072294D01*
X0088830Y0072232D01*
X0088763Y0072173D01*
X0088694Y0072117D01*
X0088622Y0072064D01*
X0088548Y0072014D01*
X0088472Y0071968D01*
X0088394Y0071925D01*
X0088314Y0071886D01*
X0088232Y0071850D01*
X0088149Y0071818D01*
X0088065Y0071790D01*
X0087979Y0071765D01*
X0087892Y0071745D01*
X0087805Y0071728D01*
X0087716Y0071715D01*
X0087628Y0071706D01*
X0087539Y0071701D01*
X0087450Y0071700D01*
X0087361Y0071703D01*
X0087272Y0071710D01*
X0087183Y0071721D01*
X0087095Y0071736D01*
X0087008Y0071754D01*
X0086922Y0071777D01*
X0086837Y0071803D01*
X0086753Y0071834D01*
X0086671Y0071868D01*
X0086590Y0071905D01*
X0086511Y0071946D01*
X0086434Y0071991D01*
X0086359Y0072039D01*
X0086286Y0072090D01*
X0086215Y0072144D01*
X0086147Y0072202D01*
X0086082Y0072262D01*
X0086019Y0072326D01*
X0085959Y0072392D01*
X0085902Y0072461D01*
X0085849Y0072532D01*
X0085798Y0072605D01*
X0085751Y0072681D01*
X0085708Y0072758D01*
X0085667Y0072838D01*
X0085631Y0072919D01*
X0085598Y0073002D01*
X0085569Y0073086D01*
X0085543Y0073172D01*
X0085521Y0073258D01*
X0085504Y0073345D01*
X0085490Y0073433D01*
X0085480Y0073522D01*
X0085474Y0073611D01*
X0085472Y0073700D01*
X0077673Y0078902D02*
X0077673Y0052902D01*
X0083972Y0052902D01*
X0090972Y0052902D02*
X0103673Y0052902D01*
X0110673Y0052902D02*
X0123374Y0052902D01*
X0130374Y0052902D02*
X0143071Y0052902D01*
X0150071Y0052902D02*
X0156374Y0052902D01*
X0156374Y0043500D02*
X0077673Y0043500D01*
X0077673Y0052902D01*
X0086362Y0041016D02*
X0087430Y0041016D01*
X0088497Y0039948D01*
X0088497Y0036745D01*
X0085295Y0036745D02*
X0085295Y0039948D01*
X0086362Y0041016D01*
X0088497Y0039948D02*
X0089565Y0041016D01*
X0090632Y0041016D01*
X0091700Y0039948D01*
X0091700Y0036745D01*
X0085295Y0036745D01*
X0085295Y0032435D02*
X0091700Y0032435D01*
X0091700Y0030300D02*
X0091700Y0034570D01*
X0087430Y0030300D02*
X0085295Y0032435D01*
X0105295Y0032435D02*
X0107430Y0030300D01*
X0105295Y0032435D02*
X0111700Y0032435D01*
X0111700Y0030300D02*
X0111700Y0034570D01*
X0111700Y0036745D02*
X0107430Y0036745D01*
X0105295Y0038881D01*
X0107430Y0041016D01*
X0111700Y0041016D01*
X0108497Y0041016D02*
X0108497Y0036745D01*
X0125295Y0038881D02*
X0127430Y0041016D01*
X0131700Y0041016D01*
X0128497Y0041016D02*
X0128497Y0036745D01*
X0127430Y0036745D02*
X0125295Y0038881D01*
X0127430Y0036745D02*
X0131700Y0036745D01*
X0131700Y0034570D02*
X0131700Y0030300D01*
X0127430Y0034570D01*
X0126362Y0034570D01*
X0125295Y0033503D01*
X0125295Y0031368D01*
X0126362Y0030300D01*
X0145295Y0031368D02*
X0146362Y0030300D01*
X0145295Y0031368D02*
X0145295Y0033503D01*
X0146362Y0034570D01*
X0147430Y0034570D01*
X0151700Y0030300D01*
X0151700Y0034570D01*
X0151700Y0036745D02*
X0151700Y0039948D01*
X0150632Y0041016D01*
X0149565Y0041016D01*
X0148497Y0039948D01*
X0148497Y0036745D01*
X0145295Y0036745D02*
X0145295Y0039948D01*
X0146362Y0041016D01*
X0147430Y0041016D01*
X0148497Y0039948D01*
X0151700Y0036745D02*
X0145295Y0036745D01*
X0144500Y0095000D02*
X0142000Y0097500D01*
X0142000Y0102500D01*
X0144500Y0105000D01*
X0142000Y0107500D01*
X0142000Y0112500D01*
X0144500Y0115000D01*
X0142000Y0117500D01*
X0142000Y0122500D01*
X0144500Y0125000D01*
X0142000Y0127500D01*
X0142000Y0132500D01*
X0144500Y0135000D01*
X0142000Y0137500D01*
X0142000Y0142500D01*
X0144500Y0145000D01*
X0142000Y0147500D01*
X0142000Y0152500D01*
X0144500Y0155000D01*
X0142000Y0157500D01*
X0142000Y0162500D01*
X0144500Y0165000D01*
X0142000Y0167500D01*
X0142000Y0172500D01*
X0144500Y0175000D01*
X0149500Y0175000D01*
X0152000Y0172500D01*
X0152000Y0167500D01*
X0149500Y0165000D01*
X0152000Y0162500D01*
X0152000Y0157500D01*
X0149500Y0155000D01*
X0152000Y0152500D01*
X0152000Y0147500D01*
X0149500Y0145000D01*
X0152000Y0142500D01*
X0152000Y0137500D01*
X0149500Y0135000D01*
X0152000Y0132500D01*
X0152000Y0127500D01*
X0149500Y0125000D01*
X0152000Y0122500D01*
X0152000Y0117500D01*
X0149500Y0115000D01*
X0152000Y0112500D01*
X0152000Y0107500D01*
X0149500Y0105000D01*
X0152000Y0102500D01*
X0152000Y0097500D01*
X0149500Y0095000D01*
X0144500Y0095000D01*
X0102000Y0097500D02*
X0102000Y0102500D01*
X0099500Y0105000D01*
X0102000Y0107500D01*
X0102000Y0112500D01*
X0099500Y0115000D01*
X0102000Y0117500D01*
X0102000Y0122500D01*
X0099500Y0125000D01*
X0102000Y0127500D01*
X0102000Y0132500D01*
X0099500Y0135000D01*
X0102000Y0137500D01*
X0102000Y0142500D01*
X0099500Y0145000D01*
X0102000Y0147500D01*
X0102000Y0152500D01*
X0099500Y0155000D01*
X0102000Y0157500D01*
X0102000Y0162500D01*
X0099500Y0165000D01*
X0102000Y0167500D01*
X0102000Y0172500D01*
X0099500Y0175000D01*
X0094500Y0175000D01*
X0092000Y0172500D01*
X0092000Y0167500D01*
X0094500Y0165000D01*
X0092000Y0162500D01*
X0092000Y0157500D01*
X0094500Y0155000D01*
X0092000Y0152500D01*
X0092000Y0147500D01*
X0094500Y0145000D01*
X0092000Y0142500D01*
X0092000Y0137500D01*
X0094500Y0135000D01*
X0092000Y0132500D01*
X0092000Y0127500D01*
X0094500Y0125000D01*
X0092000Y0122500D01*
X0092000Y0117500D01*
X0094500Y0115000D01*
X0092000Y0112500D01*
X0092000Y0107500D01*
X0094500Y0105000D01*
X0092000Y0102500D01*
X0092000Y0097500D01*
X0094500Y0095000D01*
X0099500Y0095000D01*
X0102000Y0097500D01*
D12*
X0097000Y0025000D02*
X0077000Y0025000D01*
X0077000Y0045000D01*
X0157000Y0045000D01*
X0157000Y0025000D01*
X0137000Y0025000D01*
X0137000Y0045000D01*
X0117000Y0045000D02*
X0117000Y0025000D01*
X0137000Y0025000D01*
X0117000Y0025000D02*
X0097000Y0025000D01*
X0097000Y0045000D01*
X0097000Y0095000D02*
X0147000Y0095000D01*
X0132000Y0100000D02*
X0132000Y0110000D01*
X0122000Y0110000D01*
X0122000Y0100000D01*
X0132000Y0100000D01*
X0132000Y0165000D02*
X0122000Y0165000D01*
X0122000Y0170000D01*
X0132000Y0170000D01*
X0132000Y0165000D01*
X0147000Y0175000D02*
X0097000Y0175000D01*
X0277000Y0135000D02*
X0277000Y0115000D01*
X0297000Y0115000D01*
X0297000Y0135000D01*
X0277000Y0135000D01*
X0277000Y0115000D02*
X0277000Y0095000D01*
X0297000Y0095000D01*
X0297000Y0115000D01*
D13*
X0119500Y0142500D03*
D14*
X0051850Y0143751D02*
X0049381Y0144985D01*
X0051233Y0146199D02*
X0051233Y0146817D01*
X0051850Y0146817D01*
X0051850Y0146199D01*
X0051233Y0146199D01*
X0051850Y0148041D02*
X0048147Y0148041D01*
X0048147Y0149893D01*
X0048764Y0150510D01*
X0049381Y0150510D01*
X0049998Y0149893D01*
X0049998Y0148041D01*
X0049998Y0149893D02*
X0050616Y0150510D01*
X0051233Y0150510D01*
X0051850Y0149893D01*
X0051850Y0148041D01*
X0051233Y0151724D02*
X0049998Y0151724D01*
X0049381Y0152341D01*
X0049381Y0153576D01*
X0049998Y0154193D01*
X0050616Y0154193D01*
X0050616Y0151724D01*
X0051233Y0151724D02*
X0051850Y0152341D01*
X0051850Y0153576D01*
X0051233Y0156024D02*
X0048764Y0156024D01*
X0049381Y0155407D02*
X0049381Y0156642D01*
X0049381Y0158480D02*
X0049381Y0159714D01*
X0049998Y0160331D01*
X0051850Y0160331D01*
X0051850Y0158480D01*
X0051233Y0157863D01*
X0050616Y0158480D01*
X0050616Y0160331D01*
X0047084Y0160328D02*
X0046467Y0160945D01*
X0043381Y0160945D01*
X0043381Y0159094D01*
X0043998Y0158477D01*
X0045233Y0158477D01*
X0045850Y0159094D01*
X0045850Y0160945D01*
X0047084Y0160328D02*
X0047084Y0159711D01*
X0045850Y0157262D02*
X0043998Y0157262D01*
X0043381Y0156645D01*
X0043381Y0154793D01*
X0045850Y0154793D01*
X0045850Y0153572D02*
X0045850Y0152338D01*
X0045850Y0152955D02*
X0043381Y0152955D01*
X0043381Y0152338D01*
X0043998Y0151124D02*
X0045233Y0151124D01*
X0045850Y0150506D01*
X0045850Y0148655D01*
X0047084Y0148655D02*
X0043381Y0148655D01*
X0043381Y0150506D01*
X0043998Y0151124D01*
X0042147Y0152955D02*
X0041530Y0152955D01*
X0043998Y0147440D02*
X0045233Y0147440D01*
X0045850Y0146823D01*
X0045850Y0144972D01*
X0047084Y0144972D02*
X0043381Y0144972D01*
X0043381Y0146823D01*
X0043998Y0147440D01*
X0043998Y0143757D02*
X0044616Y0143757D01*
X0044616Y0141289D01*
X0045233Y0141289D02*
X0043998Y0141289D01*
X0043381Y0141906D01*
X0043381Y0143140D01*
X0043998Y0143757D01*
X0045850Y0143140D02*
X0045850Y0141906D01*
X0045233Y0141289D01*
X0045850Y0140068D02*
X0045233Y0139450D01*
X0042764Y0139450D01*
X0043381Y0138833D02*
X0043381Y0140068D01*
X0042764Y0137619D02*
X0042147Y0137002D01*
X0042147Y0135767D01*
X0042764Y0135150D01*
X0043381Y0135150D01*
X0043998Y0135767D01*
X0043998Y0137002D01*
X0044616Y0137619D01*
X0045233Y0137619D01*
X0045850Y0137002D01*
X0045850Y0135767D01*
X0045233Y0135150D01*
X0048147Y0135150D02*
X0048147Y0137002D01*
X0048764Y0137619D01*
X0049998Y0137619D01*
X0050616Y0137002D01*
X0050616Y0135150D01*
X0051850Y0135150D02*
X0048147Y0135150D01*
X0050616Y0136384D02*
X0051850Y0137619D01*
X0051233Y0138833D02*
X0049998Y0138833D01*
X0049381Y0139450D01*
X0049381Y0140685D01*
X0049998Y0141302D01*
X0050616Y0141302D01*
X0050616Y0138833D01*
X0051233Y0138833D02*
X0051850Y0139450D01*
X0051850Y0140685D01*
X0051850Y0143751D02*
X0049381Y0142516D01*
X0051233Y0156024D02*
X0051850Y0156642D01*
X0045850Y0165843D02*
X0042147Y0165843D01*
X0043381Y0167077D01*
X0042147Y0168312D01*
X0045850Y0168312D01*
X0045233Y0169526D02*
X0043998Y0169526D01*
X0043381Y0170143D01*
X0043381Y0171378D01*
X0043998Y0171995D01*
X0045233Y0171995D01*
X0045850Y0171378D01*
X0045850Y0170143D01*
X0045233Y0169526D01*
X0043381Y0173209D02*
X0043381Y0174444D01*
X0042764Y0173826D02*
X0045233Y0173826D01*
X0045850Y0174444D01*
X0045233Y0175665D02*
X0043998Y0175665D01*
X0043381Y0176282D01*
X0043381Y0177516D01*
X0043998Y0178133D01*
X0045233Y0178133D01*
X0045850Y0177516D01*
X0045850Y0176282D01*
X0045233Y0175665D01*
X0045850Y0179348D02*
X0043381Y0179348D01*
X0043381Y0180582D02*
X0044616Y0179348D01*
X0043381Y0180582D02*
X0043381Y0181199D01*
X0036850Y0182784D02*
X0033147Y0182784D01*
X0033147Y0185252D01*
X0034381Y0187084D02*
X0034381Y0188318D01*
X0034998Y0188936D01*
X0036850Y0188936D01*
X0036850Y0187084D01*
X0036233Y0186467D01*
X0035616Y0187084D01*
X0035616Y0188936D01*
X0034998Y0190150D02*
X0034998Y0192002D01*
X0035616Y0192619D01*
X0036233Y0192619D01*
X0036850Y0192002D01*
X0036850Y0190150D01*
X0033147Y0190150D01*
X0033147Y0192002D01*
X0033764Y0192619D01*
X0034381Y0192619D01*
X0034998Y0192002D01*
X0034998Y0193833D02*
X0036233Y0193833D01*
X0036850Y0194450D01*
X0036850Y0195685D01*
X0036233Y0196302D01*
X0034998Y0196302D01*
X0034381Y0195685D01*
X0034381Y0194450D01*
X0034998Y0193833D01*
X0034998Y0184018D02*
X0034998Y0182784D01*
X0111145Y0196150D02*
X0111145Y0198619D01*
X0112380Y0199853D01*
X0113614Y0198619D01*
X0113614Y0196150D01*
X0114828Y0196150D02*
X0114828Y0199853D01*
X0116680Y0199853D01*
X0117297Y0199236D01*
X0117297Y0198002D01*
X0116680Y0197384D01*
X0114828Y0197384D01*
X0116063Y0197384D02*
X0117297Y0196150D01*
X0118511Y0196767D02*
X0118511Y0198002D01*
X0119129Y0198619D01*
X0120363Y0198619D01*
X0120980Y0198002D01*
X0120980Y0197384D01*
X0118511Y0197384D01*
X0118511Y0196767D02*
X0119129Y0196150D01*
X0120363Y0196150D01*
X0122812Y0196150D02*
X0122812Y0199236D01*
X0123429Y0199853D01*
X0123429Y0198002D02*
X0122195Y0198002D01*
X0126101Y0198002D02*
X0126101Y0196767D01*
X0126718Y0196150D01*
X0128569Y0196150D01*
X0128569Y0195533D02*
X0128569Y0198619D01*
X0126718Y0198619D01*
X0126101Y0198002D01*
X0128569Y0195533D02*
X0127952Y0194916D01*
X0127335Y0194916D01*
X0129784Y0196150D02*
X0129784Y0198619D01*
X0131635Y0198619D01*
X0132252Y0198002D01*
X0132252Y0196150D01*
X0133467Y0196767D02*
X0133467Y0198002D01*
X0134084Y0198619D01*
X0135936Y0198619D01*
X0135936Y0199853D02*
X0135936Y0196150D01*
X0134084Y0196150D01*
X0133467Y0196767D01*
X0138284Y0196150D02*
X0140752Y0196150D01*
X0139518Y0196150D02*
X0139518Y0199853D01*
X0138284Y0198619D01*
X0141967Y0199236D02*
X0142584Y0199853D01*
X0143818Y0199853D01*
X0144436Y0199236D01*
X0144436Y0198619D01*
X0143818Y0198002D01*
X0144436Y0197384D01*
X0144436Y0196767D01*
X0143818Y0196150D01*
X0142584Y0196150D01*
X0141967Y0196767D01*
X0143201Y0198002D02*
X0143818Y0198002D01*
X0148284Y0198619D02*
X0149518Y0199853D01*
X0149518Y0196150D01*
X0148284Y0196150D02*
X0150752Y0196150D01*
X0151967Y0196150D02*
X0154436Y0198619D01*
X0154436Y0199236D01*
X0153818Y0199853D01*
X0152584Y0199853D01*
X0151967Y0199236D01*
X0151967Y0196150D02*
X0154436Y0196150D01*
X0158284Y0196150D02*
X0160752Y0196150D01*
X0161967Y0196150D02*
X0164436Y0196150D01*
X0163201Y0196150D02*
X0163201Y0199853D01*
X0161967Y0198619D01*
X0159518Y0199853D02*
X0159518Y0196150D01*
X0158284Y0198619D02*
X0159518Y0199853D01*
X0168284Y0198619D02*
X0169518Y0199853D01*
X0169518Y0196150D01*
X0168284Y0196150D02*
X0170752Y0196150D01*
X0171967Y0196767D02*
X0174436Y0199236D01*
X0174436Y0196767D01*
X0173818Y0196150D01*
X0172584Y0196150D01*
X0171967Y0196767D01*
X0171967Y0199236D01*
X0172584Y0199853D01*
X0173818Y0199853D01*
X0174436Y0199236D01*
X0179967Y0199236D02*
X0179967Y0198619D01*
X0180584Y0198002D01*
X0182436Y0198002D01*
X0182436Y0199236D02*
X0181818Y0199853D01*
X0180584Y0199853D01*
X0179967Y0199236D01*
X0182436Y0199236D02*
X0182436Y0196767D01*
X0181818Y0196150D01*
X0180584Y0196150D01*
X0179967Y0196767D01*
X0189967Y0196767D02*
X0189967Y0197384D01*
X0190584Y0198002D01*
X0191818Y0198002D01*
X0192436Y0197384D01*
X0192436Y0196767D01*
X0191818Y0196150D01*
X0190584Y0196150D01*
X0189967Y0196767D01*
X0190584Y0198002D02*
X0189967Y0198619D01*
X0189967Y0199236D01*
X0190584Y0199853D01*
X0191818Y0199853D01*
X0192436Y0199236D01*
X0192436Y0198619D01*
X0191818Y0198002D01*
X0205967Y0196767D02*
X0205967Y0196150D01*
X0205967Y0196767D02*
X0208436Y0199236D01*
X0208436Y0199853D01*
X0205967Y0199853D01*
X0215967Y0198002D02*
X0215967Y0196767D01*
X0216584Y0196150D01*
X0217818Y0196150D01*
X0218436Y0196767D01*
X0218436Y0197384D01*
X0217818Y0198002D01*
X0215967Y0198002D01*
X0217201Y0199236D01*
X0218436Y0199853D01*
X0225967Y0199853D02*
X0225967Y0198002D01*
X0227201Y0198619D01*
X0227818Y0198619D01*
X0228436Y0198002D01*
X0228436Y0196767D01*
X0227818Y0196150D01*
X0226584Y0196150D01*
X0225967Y0196767D01*
X0225967Y0199853D02*
X0228436Y0199853D01*
X0235967Y0198002D02*
X0238436Y0198002D01*
X0237818Y0199853D02*
X0237818Y0196150D01*
X0235967Y0198002D02*
X0237818Y0199853D01*
X0245967Y0199236D02*
X0246584Y0199853D01*
X0247818Y0199853D01*
X0248436Y0199236D01*
X0248436Y0198619D01*
X0247818Y0198002D01*
X0248436Y0197384D01*
X0248436Y0196767D01*
X0247818Y0196150D01*
X0246584Y0196150D01*
X0245967Y0196767D01*
X0247201Y0198002D02*
X0247818Y0198002D01*
X0255967Y0199236D02*
X0256584Y0199853D01*
X0257818Y0199853D01*
X0258436Y0199236D01*
X0258436Y0198619D01*
X0255967Y0196150D01*
X0258436Y0196150D01*
X0265967Y0196150D02*
X0268436Y0196150D01*
X0267201Y0196150D02*
X0267201Y0199853D01*
X0265967Y0198619D01*
X0275967Y0199236D02*
X0275967Y0196767D01*
X0278436Y0199236D01*
X0278436Y0196767D01*
X0277818Y0196150D01*
X0276584Y0196150D01*
X0275967Y0196767D01*
X0275967Y0199236D02*
X0276584Y0199853D01*
X0277818Y0199853D01*
X0278436Y0199236D01*
X0260812Y0210767D02*
X0260812Y0213236D01*
X0260194Y0213853D01*
X0258960Y0213853D01*
X0258343Y0213236D01*
X0258343Y0210767D01*
X0258960Y0210150D01*
X0260194Y0210150D01*
X0260812Y0210767D01*
X0257128Y0213853D02*
X0254660Y0210150D01*
X0253439Y0210150D02*
X0252204Y0210150D01*
X0252821Y0210150D02*
X0252821Y0213853D01*
X0252204Y0213853D02*
X0253439Y0213853D01*
X0246683Y0213853D02*
X0246683Y0210150D01*
X0246066Y0210150D02*
X0247300Y0210150D01*
X0244851Y0210150D02*
X0244851Y0212002D01*
X0244234Y0212619D01*
X0243000Y0212619D01*
X0243000Y0211384D02*
X0244851Y0211384D01*
X0244851Y0210150D02*
X0243000Y0210150D01*
X0242383Y0210767D01*
X0243000Y0211384D01*
X0241162Y0210150D02*
X0240544Y0210767D01*
X0240544Y0213236D01*
X0239927Y0212619D02*
X0241162Y0212619D01*
X0238089Y0212619D02*
X0238089Y0210150D01*
X0237472Y0210150D02*
X0238706Y0210150D01*
X0236257Y0210150D02*
X0234406Y0210150D01*
X0233789Y0210767D01*
X0233789Y0212002D01*
X0234406Y0212619D01*
X0236257Y0212619D01*
X0236257Y0209533D01*
X0235640Y0208916D01*
X0235023Y0208916D01*
X0232568Y0210150D02*
X0231333Y0210150D01*
X0231950Y0210150D02*
X0231950Y0212619D01*
X0231333Y0212619D01*
X0230119Y0213236D02*
X0229502Y0213853D01*
X0227650Y0213853D01*
X0227650Y0210150D01*
X0229502Y0210150D01*
X0230119Y0210767D01*
X0230119Y0213236D01*
X0231950Y0213853D02*
X0231950Y0214470D01*
X0237472Y0212619D02*
X0238089Y0212619D01*
X0238089Y0213853D02*
X0238089Y0214470D01*
X0246066Y0213853D02*
X0246683Y0213853D01*
X0184812Y0213236D02*
X0184812Y0210767D01*
X0184194Y0210150D01*
X0182960Y0210150D01*
X0182343Y0210767D01*
X0182343Y0213236D01*
X0182960Y0213853D01*
X0184194Y0213853D01*
X0184812Y0213236D01*
X0181128Y0213853D02*
X0178660Y0210150D01*
X0177439Y0210150D02*
X0176204Y0210150D01*
X0176821Y0210150D02*
X0176821Y0213853D01*
X0176204Y0213853D02*
X0177439Y0213853D01*
X0170683Y0213853D02*
X0170683Y0210150D01*
X0170066Y0210150D02*
X0171300Y0210150D01*
X0168851Y0210150D02*
X0168851Y0212002D01*
X0168234Y0212619D01*
X0167000Y0212619D01*
X0167000Y0211384D02*
X0168851Y0211384D01*
X0168851Y0210150D02*
X0167000Y0210150D01*
X0166383Y0210767D01*
X0167000Y0211384D01*
X0165162Y0210150D02*
X0164544Y0210767D01*
X0164544Y0213236D01*
X0163927Y0212619D02*
X0165162Y0212619D01*
X0162089Y0212619D02*
X0162089Y0210150D01*
X0161472Y0210150D02*
X0162706Y0210150D01*
X0160257Y0210150D02*
X0158406Y0210150D01*
X0157789Y0210767D01*
X0157789Y0212002D01*
X0158406Y0212619D01*
X0160257Y0212619D01*
X0160257Y0209533D01*
X0159640Y0208916D01*
X0159023Y0208916D01*
X0156568Y0210150D02*
X0155333Y0210150D01*
X0155950Y0210150D02*
X0155950Y0212619D01*
X0155333Y0212619D01*
X0154119Y0213236D02*
X0153502Y0213853D01*
X0151650Y0213853D01*
X0151650Y0210150D01*
X0153502Y0210150D01*
X0154119Y0210767D01*
X0154119Y0213236D01*
X0155950Y0213853D02*
X0155950Y0214470D01*
X0161472Y0212619D02*
X0162089Y0212619D01*
X0162089Y0213853D02*
X0162089Y0214470D01*
X0170066Y0213853D02*
X0170683Y0213853D01*
X0113614Y0198002D02*
X0111145Y0198002D01*
X0150110Y0023853D02*
X0151962Y0023853D01*
X0152579Y0023236D01*
X0152579Y0022002D01*
X0151962Y0021384D01*
X0150110Y0021384D01*
X0150110Y0020150D02*
X0150110Y0023853D01*
X0153793Y0023236D02*
X0153793Y0022619D01*
X0154411Y0022002D01*
X0155645Y0022002D01*
X0156262Y0021384D01*
X0156262Y0020767D01*
X0155645Y0020150D01*
X0154411Y0020150D01*
X0153793Y0020767D01*
X0152579Y0020150D02*
X0151345Y0021384D01*
X0153793Y0023236D02*
X0154411Y0023853D01*
X0155645Y0023853D01*
X0156262Y0023236D01*
X0157477Y0023853D02*
X0159945Y0023853D01*
X0158711Y0023853D02*
X0158711Y0020150D01*
X0163970Y0020767D02*
X0164587Y0020150D01*
X0165822Y0020150D01*
X0166439Y0020767D01*
X0166439Y0021384D01*
X0165822Y0022002D01*
X0165204Y0022002D01*
X0165822Y0022002D02*
X0166439Y0022619D01*
X0166439Y0023236D01*
X0165822Y0023853D01*
X0164587Y0023853D01*
X0163970Y0023236D01*
X0167653Y0022619D02*
X0168888Y0020150D01*
X0170122Y0022619D01*
X0174970Y0022002D02*
X0176204Y0022619D01*
X0176822Y0022619D01*
X0177439Y0022002D01*
X0177439Y0020767D01*
X0176822Y0020150D01*
X0175587Y0020150D01*
X0174970Y0020767D01*
X0174970Y0022002D02*
X0174970Y0023853D01*
X0177439Y0023853D01*
X0178653Y0022619D02*
X0179888Y0020150D01*
X0181122Y0022619D01*
X0187690Y0023236D02*
X0187690Y0020767D01*
X0188307Y0020150D01*
X0189541Y0020150D01*
X0190159Y0020767D01*
X0190159Y0022002D01*
X0188924Y0022002D01*
X0187690Y0023236D02*
X0188307Y0023853D01*
X0189541Y0023853D01*
X0190159Y0023236D01*
X0191373Y0022619D02*
X0191373Y0020150D01*
X0193842Y0020150D02*
X0193842Y0022002D01*
X0193224Y0022619D01*
X0191373Y0022619D01*
X0195056Y0022002D02*
X0195056Y0020767D01*
X0195673Y0020150D01*
X0197525Y0020150D01*
X0197525Y0023853D01*
X0197525Y0022619D02*
X0195673Y0022619D01*
X0195056Y0022002D01*
X0203470Y0021384D02*
X0204704Y0020150D01*
X0205939Y0021384D01*
X0205939Y0023853D01*
X0207153Y0022619D02*
X0207770Y0022619D01*
X0207770Y0020150D01*
X0207153Y0020150D02*
X0208388Y0020150D01*
X0209609Y0020150D02*
X0209609Y0022619D01*
X0211460Y0022619D01*
X0212077Y0022002D01*
X0212077Y0020150D01*
X0207770Y0023853D02*
X0207770Y0024470D01*
X0203470Y0023853D02*
X0203470Y0021384D01*
X0225650Y0020767D02*
X0228119Y0023236D01*
X0228119Y0020767D01*
X0227502Y0020150D01*
X0226267Y0020150D01*
X0225650Y0020767D01*
X0225650Y0023236D01*
X0226267Y0023853D01*
X0227502Y0023853D01*
X0228119Y0023236D01*
X0235650Y0022619D02*
X0236884Y0023853D01*
X0236884Y0020150D01*
X0235650Y0020150D02*
X0238119Y0020150D01*
X0245650Y0020150D02*
X0248119Y0022619D01*
X0248119Y0023236D01*
X0247502Y0023853D01*
X0246267Y0023853D01*
X0245650Y0023236D01*
X0245650Y0020150D02*
X0248119Y0020150D01*
X0255650Y0020767D02*
X0256267Y0020150D01*
X0257502Y0020150D01*
X0258119Y0020767D01*
X0258119Y0021384D01*
X0257502Y0022002D01*
X0256884Y0022002D01*
X0257502Y0022002D02*
X0258119Y0022619D01*
X0258119Y0023236D01*
X0257502Y0023853D01*
X0256267Y0023853D01*
X0255650Y0023236D01*
X0265650Y0022002D02*
X0268119Y0022002D01*
X0267502Y0023853D02*
X0267502Y0020150D01*
X0265650Y0022002D02*
X0267502Y0023853D01*
X0275650Y0023853D02*
X0275650Y0022002D01*
X0276884Y0022619D01*
X0277502Y0022619D01*
X0278119Y0022002D01*
X0278119Y0020767D01*
X0277502Y0020150D01*
X0276267Y0020150D01*
X0275650Y0020767D01*
X0275650Y0023853D02*
X0278119Y0023853D01*
X0269051Y0009439D02*
X0267199Y0009439D01*
X0267199Y0006970D01*
X0265978Y0006970D02*
X0264744Y0006970D01*
X0265361Y0006970D02*
X0265361Y0010673D01*
X0264744Y0010673D02*
X0265978Y0010673D01*
X0269051Y0009439D02*
X0269668Y0008822D01*
X0269668Y0006970D01*
X0259847Y0006970D02*
X0257995Y0006970D01*
X0257378Y0007587D01*
X0257378Y0008822D01*
X0257995Y0009439D01*
X0259847Y0009439D01*
X0259847Y0006353D01*
X0259229Y0005736D01*
X0258612Y0005736D01*
X0256163Y0007587D02*
X0256163Y0008822D01*
X0255546Y0009439D01*
X0254312Y0009439D01*
X0253695Y0008822D01*
X0253695Y0007587D01*
X0254312Y0006970D01*
X0255546Y0006970D01*
X0256163Y0007587D01*
X0252474Y0006970D02*
X0251239Y0006970D01*
X0251856Y0006970D02*
X0251856Y0010673D01*
X0251239Y0010673D01*
X0249408Y0009439D02*
X0250025Y0008822D01*
X0250025Y0006970D01*
X0248173Y0006970D01*
X0247556Y0007587D01*
X0248173Y0008204D01*
X0250025Y0008204D01*
X0249408Y0009439D02*
X0248173Y0009439D01*
X0246342Y0008822D02*
X0246342Y0006970D01*
X0246342Y0008822D02*
X0245724Y0009439D01*
X0243873Y0009439D01*
X0243873Y0006970D01*
X0242659Y0006970D02*
X0242659Y0009439D01*
X0241424Y0010673D01*
X0240190Y0009439D01*
X0240190Y0006970D01*
X0240190Y0008822D02*
X0242659Y0008822D01*
D15*
X0245465Y0148465D02*
X0245465Y0160669D01*
X0245465Y0169331D02*
X0245465Y0181535D01*
X0274992Y0181535D01*
X0278535Y0177992D01*
X0278535Y0169331D01*
X0278535Y0160669D02*
X0278535Y0152008D01*
X0274992Y0148465D01*
X0245465Y0148465D01*
X0247237Y0169134D02*
X0247344Y0169493D01*
X0247460Y0169848D01*
X0247585Y0170201D01*
X0247719Y0170551D01*
X0247861Y0170897D01*
X0248011Y0171240D01*
X0248169Y0171579D01*
X0248336Y0171914D01*
X0248511Y0172245D01*
X0248694Y0172571D01*
X0248885Y0172893D01*
X0249084Y0173211D01*
X0249290Y0173523D01*
X0249504Y0173830D01*
X0249725Y0174132D01*
X0249954Y0174428D01*
X0250189Y0174719D01*
X0250432Y0175004D01*
X0250682Y0175283D01*
X0250938Y0175556D01*
X0251201Y0175822D01*
X0251470Y0176082D01*
X0251746Y0176335D01*
X0252027Y0176582D01*
X0252315Y0176821D01*
X0252608Y0177054D01*
X0252907Y0177279D01*
X0253211Y0177497D01*
X0253521Y0177707D01*
X0253835Y0177910D01*
X0254155Y0178105D01*
X0254479Y0178292D01*
X0254807Y0178472D01*
X0255140Y0178643D01*
X0255477Y0178806D01*
X0255818Y0178961D01*
X0256162Y0179107D01*
X0256510Y0179245D01*
X0256861Y0179375D01*
X0257215Y0179496D01*
X0257572Y0179608D01*
X0257932Y0179711D01*
X0258294Y0179806D01*
X0258658Y0179892D01*
X0259025Y0179969D01*
X0259393Y0180037D01*
X0259762Y0180096D01*
X0260133Y0180146D01*
X0260505Y0180187D01*
X0260878Y0180219D01*
X0261252Y0180242D01*
X0261626Y0180255D01*
X0262000Y0180260D01*
X0262374Y0180255D01*
X0262748Y0180242D01*
X0263122Y0180219D01*
X0263495Y0180187D01*
X0263867Y0180146D01*
X0264238Y0180096D01*
X0264607Y0180037D01*
X0264975Y0179969D01*
X0265342Y0179892D01*
X0265706Y0179806D01*
X0266068Y0179711D01*
X0266428Y0179608D01*
X0266785Y0179496D01*
X0267139Y0179375D01*
X0267490Y0179245D01*
X0267838Y0179107D01*
X0268182Y0178961D01*
X0268523Y0178806D01*
X0268860Y0178643D01*
X0269193Y0178472D01*
X0269521Y0178292D01*
X0269845Y0178105D01*
X0270165Y0177910D01*
X0270479Y0177707D01*
X0270789Y0177497D01*
X0271093Y0177279D01*
X0271392Y0177054D01*
X0271685Y0176821D01*
X0271973Y0176582D01*
X0272254Y0176335D01*
X0272530Y0176082D01*
X0272799Y0175822D01*
X0273062Y0175556D01*
X0273318Y0175283D01*
X0273568Y0175004D01*
X0273811Y0174719D01*
X0274046Y0174428D01*
X0274275Y0174132D01*
X0274496Y0173830D01*
X0274710Y0173523D01*
X0274916Y0173211D01*
X0275115Y0172893D01*
X0275306Y0172571D01*
X0275489Y0172245D01*
X0275664Y0171914D01*
X0275831Y0171579D01*
X0275989Y0171240D01*
X0276139Y0170897D01*
X0276281Y0170551D01*
X0276415Y0170201D01*
X0276540Y0169848D01*
X0276656Y0169493D01*
X0276763Y0169134D01*
X0276763Y0160866D02*
X0276656Y0160507D01*
X0276540Y0160152D01*
X0276415Y0159799D01*
X0276281Y0159449D01*
X0276139Y0159103D01*
X0275989Y0158760D01*
X0275831Y0158421D01*
X0275664Y0158086D01*
X0275489Y0157755D01*
X0275306Y0157429D01*
X0275115Y0157107D01*
X0274916Y0156789D01*
X0274710Y0156477D01*
X0274496Y0156170D01*
X0274275Y0155868D01*
X0274046Y0155572D01*
X0273811Y0155281D01*
X0273568Y0154996D01*
X0273318Y0154717D01*
X0273062Y0154444D01*
X0272799Y0154178D01*
X0272530Y0153918D01*
X0272254Y0153665D01*
X0271973Y0153418D01*
X0271685Y0153179D01*
X0271392Y0152946D01*
X0271093Y0152721D01*
X0270789Y0152503D01*
X0270479Y0152293D01*
X0270165Y0152090D01*
X0269845Y0151895D01*
X0269521Y0151708D01*
X0269193Y0151528D01*
X0268860Y0151357D01*
X0268523Y0151194D01*
X0268182Y0151039D01*
X0267838Y0150893D01*
X0267490Y0150755D01*
X0267139Y0150625D01*
X0266785Y0150504D01*
X0266428Y0150392D01*
X0266068Y0150289D01*
X0265706Y0150194D01*
X0265342Y0150108D01*
X0264975Y0150031D01*
X0264607Y0149963D01*
X0264238Y0149904D01*
X0263867Y0149854D01*
X0263495Y0149813D01*
X0263122Y0149781D01*
X0262748Y0149758D01*
X0262374Y0149745D01*
X0262000Y0149740D01*
X0261626Y0149745D01*
X0261252Y0149758D01*
X0260878Y0149781D01*
X0260505Y0149813D01*
X0260133Y0149854D01*
X0259762Y0149904D01*
X0259393Y0149963D01*
X0259025Y0150031D01*
X0258658Y0150108D01*
X0258294Y0150194D01*
X0257932Y0150289D01*
X0257572Y0150392D01*
X0257215Y0150504D01*
X0256861Y0150625D01*
X0256510Y0150755D01*
X0256162Y0150893D01*
X0255818Y0151039D01*
X0255477Y0151194D01*
X0255140Y0151357D01*
X0254807Y0151528D01*
X0254479Y0151708D01*
X0254155Y0151895D01*
X0253835Y0152090D01*
X0253521Y0152293D01*
X0253211Y0152503D01*
X0252907Y0152721D01*
X0252608Y0152946D01*
X0252315Y0153179D01*
X0252027Y0153418D01*
X0251746Y0153665D01*
X0251470Y0153918D01*
X0251201Y0154178D01*
X0250938Y0154444D01*
X0250682Y0154717D01*
X0250432Y0154996D01*
X0250189Y0155281D01*
X0249954Y0155572D01*
X0249725Y0155868D01*
X0249504Y0156170D01*
X0249290Y0156477D01*
X0249084Y0156789D01*
X0248885Y0157107D01*
X0248694Y0157429D01*
X0248511Y0157755D01*
X0248336Y0158086D01*
X0248169Y0158421D01*
X0248011Y0158760D01*
X0247861Y0159103D01*
X0247719Y0159449D01*
X0247585Y0159799D01*
X0247460Y0160152D01*
X0247344Y0160507D01*
X0247237Y0160866D01*
D16*
X0276450Y0130734D02*
X0276450Y0127731D01*
X0276450Y0129232D02*
X0271946Y0129232D01*
X0273447Y0127731D01*
X0272697Y0126130D02*
X0271946Y0126130D01*
X0272697Y0126130D02*
X0274198Y0124628D01*
X0276450Y0124628D01*
X0274198Y0124628D02*
X0272697Y0123127D01*
X0271946Y0123127D01*
X0276450Y0121526D02*
X0276450Y0118523D01*
X0271946Y0118523D01*
X0272697Y0116922D02*
X0274198Y0116922D01*
X0274949Y0116171D01*
X0274949Y0113919D01*
X0276450Y0113919D02*
X0271946Y0113919D01*
X0271946Y0116171D01*
X0272697Y0116922D01*
X0272697Y0112318D02*
X0274198Y0112318D01*
X0274949Y0111567D01*
X0274949Y0109315D01*
X0276450Y0109315D02*
X0271946Y0109315D01*
X0271946Y0111567D01*
X0272697Y0112318D01*
X0271946Y0107714D02*
X0275699Y0107714D01*
X0276450Y0106963D01*
X0276450Y0105462D01*
X0275699Y0104711D01*
X0271946Y0104711D01*
X0272697Y0103110D02*
X0271946Y0102359D01*
X0271946Y0100858D01*
X0272697Y0100107D01*
X0273447Y0100107D01*
X0274198Y0100858D01*
X0274198Y0102359D01*
X0274949Y0103110D01*
X0275699Y0103110D01*
X0276450Y0102359D01*
X0276450Y0100858D01*
X0275699Y0100107D01*
X0254250Y0100410D02*
X0254250Y0097407D01*
X0254250Y0098909D02*
X0249746Y0098909D01*
X0251247Y0097407D01*
X0250497Y0116907D02*
X0249746Y0117658D01*
X0249746Y0119159D01*
X0250497Y0119910D01*
X0251247Y0119910D01*
X0254250Y0116907D01*
X0254250Y0119910D01*
X0251106Y0076254D02*
X0249605Y0076254D01*
X0248854Y0075503D01*
X0247253Y0075503D02*
X0247253Y0072501D01*
X0246502Y0071750D01*
X0244250Y0071750D01*
X0244250Y0076254D01*
X0246502Y0076254D01*
X0247253Y0075503D01*
X0248854Y0072501D02*
X0249605Y0071750D01*
X0251106Y0071750D01*
X0251856Y0072501D01*
X0251856Y0073251D01*
X0251106Y0074002D01*
X0250355Y0074002D01*
X0251106Y0074002D02*
X0251856Y0074753D01*
X0251856Y0075503D01*
X0251106Y0076254D01*
X0251106Y0051254D02*
X0248854Y0049002D01*
X0251856Y0049002D01*
X0251106Y0046750D02*
X0251106Y0051254D01*
X0247253Y0050503D02*
X0247253Y0047501D01*
X0246502Y0046750D01*
X0244250Y0046750D01*
X0244250Y0051254D01*
X0246502Y0051254D01*
X0247253Y0050503D01*
X0158250Y0098250D02*
X0158250Y0101253D01*
X0158250Y0099751D02*
X0153746Y0099751D01*
X0155247Y0098250D01*
X0140250Y0098253D02*
X0135746Y0098253D01*
X0137247Y0096751D01*
X0135746Y0095250D01*
X0140250Y0095250D01*
X0139499Y0099854D02*
X0136497Y0099854D01*
X0135746Y0100605D01*
X0135746Y0102106D01*
X0136497Y0102856D01*
X0139499Y0102856D01*
X0140250Y0102106D01*
X0140250Y0100605D01*
X0139499Y0099854D01*
X0135746Y0104458D02*
X0135746Y0107460D01*
X0135746Y0105959D02*
X0140250Y0105959D01*
X0140250Y0109062D02*
X0140250Y0112064D01*
X0140250Y0110563D02*
X0135746Y0110563D01*
X0137247Y0109062D01*
X0141001Y0113666D02*
X0141001Y0116668D01*
X0140250Y0118270D02*
X0137247Y0121272D01*
X0136497Y0121272D01*
X0135746Y0120522D01*
X0135746Y0119020D01*
X0136497Y0118270D01*
X0140250Y0118270D02*
X0140250Y0121272D01*
X0108250Y0101253D02*
X0108250Y0098250D01*
X0108250Y0099751D02*
X0103746Y0099751D01*
X0105247Y0098250D01*
X0090250Y0098253D02*
X0085746Y0098253D01*
X0087247Y0096751D01*
X0085746Y0095250D01*
X0090250Y0095250D01*
X0089499Y0099854D02*
X0086497Y0099854D01*
X0085746Y0100605D01*
X0085746Y0102106D01*
X0086497Y0102856D01*
X0089499Y0102856D01*
X0090250Y0102106D01*
X0090250Y0100605D01*
X0089499Y0099854D01*
X0085746Y0104458D02*
X0085746Y0107460D01*
X0085746Y0105959D02*
X0090250Y0105959D01*
X0090250Y0109062D02*
X0090250Y0112064D01*
X0090250Y0110563D02*
X0085746Y0110563D01*
X0087247Y0109062D01*
X0091001Y0113666D02*
X0091001Y0116668D01*
X0090250Y0118270D02*
X0090250Y0121272D01*
X0090250Y0119771D02*
X0085746Y0119771D01*
X0087247Y0118270D01*
X0087247Y0167750D02*
X0086497Y0167750D01*
X0085746Y0168501D01*
X0085746Y0170002D01*
X0086497Y0170753D01*
X0087247Y0170753D01*
X0087998Y0170002D01*
X0087998Y0168501D01*
X0087247Y0167750D01*
X0087998Y0168501D02*
X0088749Y0167750D01*
X0089499Y0167750D01*
X0090250Y0168501D01*
X0090250Y0170002D01*
X0089499Y0170753D01*
X0088749Y0170753D01*
X0087998Y0170002D01*
X0135746Y0170002D02*
X0135746Y0168501D01*
X0136497Y0167750D01*
X0137247Y0167750D01*
X0137998Y0168501D01*
X0137998Y0170002D01*
X0138749Y0170753D01*
X0139499Y0170753D01*
X0140250Y0170002D01*
X0140250Y0168501D01*
X0139499Y0167750D01*
X0138749Y0167750D01*
X0137998Y0168501D01*
X0137998Y0170002D02*
X0137247Y0170753D01*
X0136497Y0170753D01*
X0135746Y0170002D01*
X0083573Y0036701D02*
X0083573Y0035950D01*
X0082822Y0035950D01*
X0082822Y0036701D01*
X0083573Y0036701D01*
D17*
X0246500Y0040000D03*
X0246500Y0065000D03*
D18*
X0240250Y0065000D03*
X0263750Y0065000D03*
X0263750Y0040000D03*
X0240250Y0040000D03*
D19*
X0048375Y0186577D03*
X0048340Y0186612D03*
X0048305Y0186612D03*
X0048270Y0186648D03*
X0047955Y0186787D03*
X0047885Y0186823D03*
X0054500Y0190777D03*
X0040920Y0186648D03*
X0040150Y0194173D03*
D20*
X0040640Y0194102D03*
X0040185Y0190777D03*
X0041515Y0186752D03*
X0046940Y0187277D03*
X0048060Y0188677D03*
X0048025Y0188712D03*
X0048165Y0188608D03*
X0048200Y0188573D03*
X0048270Y0188537D03*
X0048305Y0188502D03*
X0048375Y0188467D03*
X0051035Y0188537D03*
X0051070Y0188573D03*
X0054465Y0190777D03*
X0051070Y0192702D03*
X0052540Y0193787D03*
X0052575Y0193752D03*
X0052610Y0193717D03*
X0049845Y0195187D03*
X0049810Y0195187D03*
X0049775Y0195187D03*
X0049740Y0195223D03*
X0049705Y0195223D03*
X0047675Y0192317D03*
X0047850Y0183462D03*
D21*
X0048095Y0183515D03*
X0046590Y0187505D03*
X0047500Y0189535D03*
X0042460Y0186910D03*
X0042425Y0186910D03*
X0042390Y0186910D03*
X0040745Y0190760D03*
X0040710Y0190760D03*
X0041235Y0194015D03*
X0041270Y0194015D03*
X0048830Y0195345D03*
X0048865Y0195345D03*
X0053065Y0193140D03*
X0051385Y0192475D03*
X0051525Y0189220D03*
X0054430Y0190760D03*
D22*
X0054395Y0190777D03*
X0051560Y0189448D03*
X0052470Y0186998D03*
X0046415Y0187627D03*
X0044350Y0187277D03*
X0043930Y0187173D03*
X0043895Y0187173D03*
X0046240Y0193262D03*
X0048375Y0195362D03*
D23*
X0047990Y0195345D03*
X0045680Y0196255D03*
X0045645Y0196255D03*
X0045610Y0196290D03*
X0042565Y0190585D03*
X0042530Y0190585D03*
X0042495Y0190585D03*
X0042460Y0190585D03*
X0042425Y0190585D03*
X0046275Y0187785D03*
X0051490Y0186000D03*
X0051525Y0186035D03*
X0051945Y0190410D03*
X0054360Y0190760D03*
D24*
X0054325Y0190760D03*
X0051560Y0192020D03*
X0047710Y0195310D03*
X0044105Y0190445D03*
X0044070Y0190445D03*
X0044035Y0190445D03*
X0044000Y0190445D03*
X0043965Y0190445D03*
X0043930Y0190445D03*
X0048620Y0183865D03*
X0051105Y0185685D03*
D25*
X0046100Y0187995D03*
X0044805Y0190410D03*
X0044770Y0190410D03*
X0044735Y0190410D03*
X0044700Y0190410D03*
X0054290Y0190760D03*
D26*
X0054255Y0190742D03*
X0047325Y0195257D03*
D27*
X0051770Y0190410D03*
X0054220Y0190725D03*
X0050265Y0185125D03*
D28*
X0050020Y0184985D03*
X0054185Y0190725D03*
X0047045Y0195170D03*
D29*
X0046905Y0195117D03*
X0054150Y0190707D03*
X0049740Y0184862D03*
D30*
X0049495Y0184775D03*
X0049460Y0184775D03*
X0054115Y0190725D03*
X0046800Y0195065D03*
D31*
X0047465Y0190742D03*
X0049180Y0184723D03*
X0049215Y0184723D03*
X0049250Y0184723D03*
X0054080Y0190707D03*
D32*
X0054045Y0190707D03*
D33*
X0054010Y0190690D03*
X0048725Y0184670D03*
X0046555Y0194960D03*
D34*
X0053975Y0190673D03*
D35*
X0053940Y0190672D03*
X0046415Y0194872D03*
D36*
X0053905Y0190655D03*
D37*
X0053870Y0190637D03*
D38*
X0053835Y0190637D03*
D39*
X0053800Y0190620D03*
D40*
X0053765Y0190620D03*
D41*
X0053730Y0190602D03*
D42*
X0053695Y0190602D03*
X0045295Y0191617D03*
X0045260Y0191617D03*
X0045155Y0191652D03*
D43*
X0053660Y0190585D03*
D44*
X0053625Y0190567D03*
D45*
X0053590Y0190550D03*
D46*
X0053555Y0190550D03*
D47*
X0053520Y0190532D03*
D48*
X0053485Y0190515D03*
D49*
X0053450Y0190515D03*
D50*
X0053415Y0190497D03*
D51*
X0053380Y0190480D03*
D52*
X0053345Y0188677D03*
X0050650Y0185352D03*
X0045015Y0190427D03*
X0047430Y0195257D03*
D53*
X0047815Y0195327D03*
X0046100Y0195992D03*
X0046065Y0196027D03*
X0046065Y0192982D03*
X0043510Y0190497D03*
X0043475Y0190497D03*
X0043440Y0190497D03*
X0043405Y0190497D03*
X0043370Y0190497D03*
X0043335Y0190497D03*
X0048585Y0183812D03*
X0051175Y0185737D03*
X0051210Y0185772D03*
X0053345Y0192457D03*
D54*
X0053310Y0188537D03*
X0050930Y0185562D03*
X0050895Y0185527D03*
X0044490Y0190427D03*
X0044455Y0190427D03*
X0044420Y0190427D03*
X0044385Y0190427D03*
X0044350Y0190427D03*
D55*
X0042215Y0190620D03*
X0042180Y0190620D03*
X0042145Y0190620D03*
X0042110Y0190620D03*
X0042075Y0190620D03*
X0044630Y0193385D03*
X0044875Y0193315D03*
X0044910Y0193315D03*
X0044980Y0193280D03*
X0045015Y0193280D03*
X0045120Y0193245D03*
X0046135Y0193105D03*
X0045435Y0196360D03*
X0045365Y0196395D03*
X0053310Y0192615D03*
X0051735Y0186210D03*
X0051665Y0186140D03*
X0048445Y0183690D03*
D56*
X0046170Y0187907D03*
X0043895Y0190462D03*
X0043860Y0190462D03*
X0043825Y0190462D03*
X0043790Y0190462D03*
X0043755Y0190462D03*
X0046205Y0195923D03*
X0047745Y0195327D03*
X0053275Y0188398D03*
D57*
X0052995Y0187767D03*
X0052960Y0187697D03*
X0051945Y0186402D03*
X0048375Y0183637D03*
X0046345Y0187697D03*
X0045050Y0187487D03*
X0045015Y0187487D03*
X0044980Y0187452D03*
X0044945Y0187452D03*
X0041760Y0190672D03*
X0041725Y0190672D03*
X0041690Y0190672D03*
X0041655Y0190672D03*
X0042670Y0193787D03*
X0042705Y0193787D03*
X0042740Y0193787D03*
X0042775Y0193787D03*
X0042845Y0193752D03*
X0042880Y0193752D03*
X0042915Y0193752D03*
X0042950Y0193752D03*
X0043055Y0193717D03*
X0043090Y0193717D03*
X0043125Y0193717D03*
X0044980Y0196552D03*
X0045050Y0196517D03*
X0048200Y0195362D03*
X0053275Y0192702D03*
D58*
X0051910Y0190410D03*
X0053240Y0188310D03*
X0046170Y0195940D03*
X0046135Y0195975D03*
D59*
X0044700Y0196657D03*
X0044665Y0196657D03*
X0042110Y0193892D03*
X0042075Y0193892D03*
X0042040Y0193892D03*
X0042005Y0193892D03*
X0041410Y0190707D03*
X0041375Y0190707D03*
X0041340Y0190707D03*
X0041305Y0190707D03*
X0044035Y0187207D03*
X0044070Y0187207D03*
X0044105Y0187207D03*
X0044175Y0187242D03*
X0044210Y0187242D03*
X0053240Y0192807D03*
D60*
X0053205Y0188222D03*
X0051350Y0185877D03*
X0051315Y0185842D03*
X0048550Y0183777D03*
X0043125Y0190532D03*
X0043090Y0190532D03*
X0043055Y0190532D03*
X0043020Y0190532D03*
X0042985Y0190532D03*
X0045960Y0196097D03*
D61*
X0044560Y0196692D03*
X0041865Y0193927D03*
X0041830Y0193927D03*
X0041795Y0193927D03*
X0041165Y0190742D03*
X0043370Y0187067D03*
X0043405Y0187067D03*
X0043440Y0187067D03*
X0043475Y0187067D03*
X0043510Y0187102D03*
X0043545Y0187102D03*
X0043580Y0187102D03*
X0043615Y0187102D03*
X0048235Y0183567D03*
X0053205Y0192877D03*
X0048480Y0195362D03*
D62*
X0045820Y0196167D03*
X0042740Y0190567D03*
X0042705Y0190567D03*
X0042670Y0190567D03*
X0042635Y0190567D03*
X0042600Y0190567D03*
X0048515Y0183742D03*
X0051455Y0185982D03*
X0053170Y0188117D03*
D63*
X0053170Y0192948D03*
X0048620Y0195362D03*
X0048585Y0195362D03*
X0048550Y0195362D03*
X0044455Y0196727D03*
X0041655Y0193962D03*
X0041620Y0193962D03*
X0041585Y0193962D03*
X0041060Y0190742D03*
X0041025Y0190742D03*
X0040990Y0190742D03*
X0042985Y0186998D03*
X0043020Y0186998D03*
X0043055Y0186998D03*
X0043125Y0187032D03*
X0043160Y0187032D03*
X0043195Y0187032D03*
X0047045Y0190812D03*
X0048200Y0183567D03*
D64*
X0048480Y0183708D03*
X0051560Y0186052D03*
X0051595Y0186087D03*
X0051630Y0186123D03*
X0053100Y0187977D03*
X0053135Y0188048D03*
X0045085Y0193262D03*
X0045050Y0193262D03*
X0045540Y0196308D03*
X0045575Y0196308D03*
X0045505Y0196342D03*
X0045470Y0196342D03*
X0045400Y0196377D03*
X0048025Y0195362D03*
X0048060Y0195362D03*
X0042390Y0190602D03*
X0042355Y0190602D03*
X0042320Y0190602D03*
X0042285Y0190602D03*
X0042250Y0190602D03*
D65*
X0040920Y0190742D03*
X0042740Y0186962D03*
X0042775Y0186962D03*
X0042810Y0186962D03*
X0042845Y0186962D03*
X0046520Y0187557D03*
X0048130Y0183532D03*
X0052015Y0190427D03*
X0051420Y0192422D03*
X0053135Y0193017D03*
X0048690Y0195362D03*
X0048655Y0195362D03*
X0044350Y0196762D03*
X0041445Y0193997D03*
X0041410Y0193997D03*
X0041375Y0193997D03*
D66*
X0048760Y0195362D03*
X0048795Y0195362D03*
X0053100Y0193087D03*
D67*
X0051525Y0192212D03*
X0053065Y0187907D03*
X0053030Y0187837D03*
X0051770Y0186262D03*
X0046310Y0187732D03*
X0045260Y0187557D03*
X0045225Y0187557D03*
X0045155Y0187523D03*
X0042040Y0190637D03*
X0042005Y0190637D03*
X0041970Y0190637D03*
X0041935Y0190637D03*
X0047080Y0190812D03*
X0044945Y0193298D03*
X0044840Y0193332D03*
X0044805Y0193332D03*
X0044735Y0193367D03*
X0044700Y0193367D03*
X0044665Y0193367D03*
X0044595Y0193402D03*
X0044560Y0193402D03*
X0044525Y0193402D03*
X0044490Y0193402D03*
X0044455Y0193437D03*
X0044420Y0193437D03*
X0044385Y0193437D03*
X0044315Y0193473D03*
X0044280Y0193473D03*
X0044245Y0193473D03*
X0044140Y0193507D03*
X0044105Y0193507D03*
X0043965Y0193542D03*
X0043930Y0193542D03*
X0043790Y0193577D03*
X0043615Y0193612D03*
X0045155Y0196482D03*
X0045225Y0196448D03*
X0045260Y0196448D03*
X0045295Y0196412D03*
X0045330Y0196412D03*
X0048095Y0195362D03*
X0048130Y0195362D03*
D68*
X0048935Y0195345D03*
X0048970Y0195345D03*
X0053030Y0193210D03*
X0051350Y0192510D03*
X0051490Y0189150D03*
X0042285Y0186875D03*
X0042250Y0186875D03*
X0042215Y0186875D03*
X0041130Y0194050D03*
X0041095Y0194050D03*
X0044175Y0196815D03*
D69*
X0044140Y0196833D03*
X0044105Y0196833D03*
X0041060Y0194067D03*
X0040605Y0190777D03*
X0040570Y0190777D03*
X0040535Y0190777D03*
X0042110Y0186858D03*
X0042145Y0186858D03*
X0042180Y0186858D03*
X0046660Y0187452D03*
X0048025Y0183498D03*
X0047500Y0191967D03*
X0049005Y0195327D03*
X0049040Y0195327D03*
X0049075Y0195327D03*
X0052995Y0193262D03*
D70*
X0052960Y0193315D03*
X0051315Y0192545D03*
X0047535Y0189430D03*
X0046695Y0187435D03*
X0042075Y0186840D03*
X0042040Y0186840D03*
X0042005Y0186840D03*
X0047990Y0183480D03*
D71*
X0051980Y0186455D03*
X0052015Y0186490D03*
X0052050Y0186525D03*
X0052085Y0186560D03*
X0052120Y0186595D03*
X0052155Y0186630D03*
X0052925Y0187645D03*
X0044910Y0187435D03*
X0044875Y0187435D03*
X0044840Y0187435D03*
X0044805Y0187400D03*
X0044770Y0187400D03*
X0044665Y0187365D03*
X0041620Y0190690D03*
X0041585Y0190690D03*
X0041550Y0190690D03*
X0042390Y0193840D03*
X0042530Y0193805D03*
X0042565Y0193805D03*
X0042600Y0193805D03*
X0042635Y0193805D03*
X0042810Y0193770D03*
X0044910Y0196570D03*
X0044945Y0196570D03*
X0045015Y0196535D03*
X0048235Y0195380D03*
D72*
X0049180Y0195310D03*
X0049215Y0195310D03*
X0049250Y0195310D03*
X0052890Y0193385D03*
X0052925Y0193350D03*
X0051420Y0188975D03*
X0047570Y0189325D03*
X0047535Y0192090D03*
X0044035Y0196850D03*
X0040920Y0194085D03*
D73*
X0042285Y0193857D03*
X0042320Y0193857D03*
X0042355Y0193857D03*
X0042425Y0193822D03*
X0042460Y0193822D03*
X0042495Y0193822D03*
X0044770Y0196622D03*
X0046205Y0193227D03*
X0041515Y0190707D03*
X0044595Y0187347D03*
X0044630Y0187347D03*
X0044700Y0187382D03*
X0044735Y0187382D03*
X0052190Y0186682D03*
X0052225Y0186717D03*
X0052260Y0186752D03*
X0052785Y0187417D03*
X0052855Y0187522D03*
X0052890Y0187592D03*
X0051980Y0190427D03*
D74*
X0051245Y0192597D03*
X0052855Y0193437D03*
X0049320Y0195292D03*
X0049285Y0195292D03*
X0044000Y0196867D03*
X0040885Y0194067D03*
X0040430Y0190777D03*
X0040395Y0190777D03*
X0041795Y0186787D03*
X0041830Y0186787D03*
X0046765Y0187382D03*
X0047605Y0189272D03*
D75*
X0046380Y0187662D03*
X0044490Y0187312D03*
X0048340Y0183637D03*
X0052295Y0186787D03*
X0052820Y0187487D03*
X0048305Y0195362D03*
X0048270Y0195362D03*
X0044875Y0196587D03*
X0044840Y0196587D03*
D76*
X0043965Y0196885D03*
X0040850Y0194085D03*
X0040815Y0194085D03*
X0040360Y0190795D03*
X0046800Y0187365D03*
X0047640Y0189185D03*
X0047570Y0192160D03*
X0049355Y0195275D03*
X0049390Y0195275D03*
X0049425Y0195275D03*
X0052820Y0193490D03*
X0051210Y0192615D03*
X0051385Y0188905D03*
D77*
X0051350Y0188852D03*
X0047675Y0189132D03*
X0046835Y0187347D03*
X0040325Y0190777D03*
X0040780Y0194102D03*
X0049460Y0195257D03*
X0049495Y0195257D03*
X0052785Y0193542D03*
D78*
X0051490Y0192300D03*
X0048340Y0195380D03*
X0044805Y0196605D03*
X0044735Y0196640D03*
X0042250Y0193875D03*
X0042215Y0193875D03*
X0042180Y0193875D03*
X0042145Y0193875D03*
X0041480Y0190690D03*
X0041445Y0190690D03*
X0044140Y0187225D03*
X0044245Y0187260D03*
X0044280Y0187260D03*
X0044315Y0187260D03*
X0044385Y0187295D03*
X0044420Y0187295D03*
X0044455Y0187295D03*
X0044525Y0187330D03*
X0044560Y0187330D03*
X0048305Y0183620D03*
X0052330Y0186840D03*
X0052365Y0186875D03*
X0052400Y0186910D03*
X0052435Y0186945D03*
X0052505Y0187050D03*
X0052540Y0187085D03*
X0052575Y0187120D03*
X0052610Y0187190D03*
X0052645Y0187225D03*
X0052680Y0187260D03*
X0052715Y0187330D03*
X0052750Y0187365D03*
D79*
X0051315Y0188800D03*
X0051280Y0188765D03*
X0051175Y0192650D03*
X0052750Y0193560D03*
X0047605Y0192230D03*
X0047710Y0189080D03*
X0047745Y0189045D03*
X0047780Y0188975D03*
X0046870Y0187330D03*
X0041690Y0186770D03*
X0041655Y0186770D03*
X0041620Y0186770D03*
X0040290Y0190795D03*
X0040745Y0194085D03*
X0043930Y0196885D03*
D80*
X0040710Y0194102D03*
X0040255Y0190777D03*
X0041585Y0186752D03*
X0047815Y0188923D03*
X0047850Y0188887D03*
X0047885Y0188852D03*
X0052680Y0193648D03*
X0052715Y0193612D03*
X0047885Y0183462D03*
D81*
X0046905Y0187295D03*
X0048130Y0188625D03*
X0048095Y0188660D03*
X0047990Y0188765D03*
X0051105Y0188590D03*
X0051140Y0188625D03*
X0051175Y0188660D03*
X0051210Y0188695D03*
X0051245Y0188730D03*
X0051105Y0192685D03*
X0052645Y0193700D03*
X0049670Y0195240D03*
X0049635Y0195240D03*
X0047640Y0192300D03*
X0043895Y0196920D03*
X0040675Y0194120D03*
X0040220Y0190795D03*
X0041550Y0186735D03*
D82*
X0041480Y0186735D03*
X0041445Y0186735D03*
X0046975Y0187260D03*
X0048235Y0188555D03*
X0048340Y0188485D03*
X0048445Y0188415D03*
X0048480Y0188415D03*
X0048515Y0188380D03*
X0048550Y0188380D03*
X0048585Y0188345D03*
X0048620Y0188345D03*
X0048655Y0188310D03*
X0048690Y0188310D03*
X0048725Y0188310D03*
X0048900Y0188240D03*
X0049040Y0188205D03*
X0050790Y0188380D03*
X0050860Y0188415D03*
X0050965Y0188485D03*
X0051000Y0188520D03*
X0051000Y0192720D03*
X0051035Y0192720D03*
X0052505Y0193840D03*
X0049915Y0195170D03*
X0049880Y0195170D03*
X0047710Y0192370D03*
X0043860Y0196920D03*
X0040605Y0194120D03*
D83*
X0043825Y0196937D03*
X0047815Y0192492D03*
X0047780Y0192457D03*
X0047745Y0192423D03*
X0050965Y0192737D03*
X0052400Y0193927D03*
X0052435Y0193892D03*
X0052470Y0193857D03*
X0049985Y0195152D03*
X0049950Y0195152D03*
X0040150Y0190777D03*
X0041375Y0186717D03*
X0041410Y0186717D03*
X0047010Y0187242D03*
X0048830Y0188257D03*
X0048865Y0188257D03*
X0048935Y0188223D03*
X0048970Y0188223D03*
X0049005Y0188223D03*
X0049075Y0188187D03*
X0049110Y0188187D03*
X0049145Y0188187D03*
X0049180Y0188187D03*
X0049250Y0188152D03*
X0049285Y0188152D03*
X0049320Y0188152D03*
X0049355Y0188152D03*
X0049390Y0188152D03*
X0049425Y0188152D03*
X0049460Y0188152D03*
X0049495Y0188152D03*
X0049915Y0188152D03*
X0049950Y0188152D03*
X0049985Y0188152D03*
X0050195Y0188187D03*
X0050230Y0188187D03*
X0050370Y0188223D03*
X0050405Y0188223D03*
X0050475Y0188257D03*
X0050510Y0188257D03*
X0050580Y0188292D03*
X0050615Y0188292D03*
X0050650Y0188327D03*
X0050685Y0188327D03*
X0050720Y0188362D03*
X0050755Y0188362D03*
X0050825Y0188398D03*
X0047815Y0183462D03*
D84*
X0049215Y0188170D03*
X0050020Y0188170D03*
X0050055Y0188170D03*
X0050090Y0188170D03*
X0050125Y0188170D03*
X0050160Y0188170D03*
X0050265Y0188205D03*
X0050300Y0188205D03*
X0050335Y0188205D03*
X0050895Y0192755D03*
X0050930Y0192755D03*
X0052330Y0193980D03*
X0052365Y0193945D03*
X0047885Y0192545D03*
X0040570Y0194120D03*
X0040535Y0194120D03*
X0040115Y0190795D03*
D85*
X0047045Y0187225D03*
X0047080Y0187190D03*
X0049530Y0188135D03*
X0049565Y0188135D03*
X0049600Y0188135D03*
X0049635Y0188135D03*
X0049670Y0188135D03*
X0049705Y0188135D03*
X0049740Y0188135D03*
X0049775Y0188135D03*
X0049810Y0188135D03*
X0049845Y0188135D03*
X0049880Y0188135D03*
X0050440Y0188240D03*
X0050545Y0188275D03*
X0047850Y0192510D03*
X0052295Y0194015D03*
X0050090Y0195135D03*
X0050055Y0195135D03*
X0050020Y0195135D03*
D86*
X0050125Y0195117D03*
X0050160Y0195117D03*
X0050195Y0195082D03*
X0050230Y0195082D03*
X0052225Y0194067D03*
X0052260Y0194032D03*
X0050860Y0192772D03*
X0050825Y0192772D03*
X0047955Y0192597D03*
X0047920Y0192562D03*
X0047115Y0187172D03*
X0041340Y0186717D03*
X0040080Y0190777D03*
X0040500Y0194137D03*
X0043790Y0196937D03*
D87*
X0048165Y0192702D03*
X0048375Y0192772D03*
X0048410Y0192772D03*
X0048445Y0192772D03*
X0048480Y0192772D03*
X0048515Y0192772D03*
X0048550Y0192772D03*
X0050475Y0192807D03*
X0050510Y0192807D03*
X0050545Y0192807D03*
X0050580Y0192807D03*
X0050615Y0192807D03*
X0050650Y0192807D03*
X0050685Y0192807D03*
X0052050Y0194207D03*
X0052085Y0194172D03*
X0052015Y0194242D03*
X0052190Y0194102D03*
X0050545Y0194977D03*
X0050370Y0195047D03*
X0050335Y0195047D03*
X0040045Y0190777D03*
D88*
X0041270Y0186700D03*
X0041305Y0186700D03*
X0047150Y0187155D03*
X0047780Y0183445D03*
X0047990Y0192615D03*
X0048025Y0192650D03*
X0048060Y0192650D03*
X0048095Y0192685D03*
X0048130Y0192685D03*
X0048200Y0192720D03*
X0048340Y0192755D03*
X0048585Y0192790D03*
X0050720Y0192790D03*
X0050755Y0192790D03*
X0050790Y0192790D03*
X0052120Y0194155D03*
X0052155Y0194120D03*
X0050405Y0195030D03*
X0050300Y0195065D03*
X0050265Y0195065D03*
D89*
X0052120Y0190445D03*
X0040780Y0186630D03*
X0040010Y0194190D03*
D90*
X0041060Y0186682D03*
X0047430Y0187032D03*
X0047465Y0186998D03*
X0048585Y0186402D03*
X0052085Y0192912D03*
X0052120Y0192912D03*
D91*
X0051700Y0192825D03*
X0050440Y0192825D03*
X0050405Y0192825D03*
X0050370Y0192825D03*
X0050335Y0192825D03*
X0050300Y0192825D03*
X0050265Y0192825D03*
X0050230Y0192825D03*
X0050195Y0192825D03*
X0050160Y0192825D03*
X0050125Y0192825D03*
X0050090Y0192825D03*
X0050055Y0192825D03*
X0050020Y0192825D03*
X0049985Y0192825D03*
X0049950Y0192825D03*
X0049915Y0192825D03*
X0049880Y0192825D03*
X0049845Y0192825D03*
X0050580Y0194960D03*
X0050615Y0194960D03*
X0050650Y0194960D03*
X0050685Y0194925D03*
X0050720Y0194925D03*
X0050790Y0194890D03*
X0050510Y0194995D03*
X0051875Y0194330D03*
X0051910Y0194295D03*
X0051945Y0194295D03*
X0051980Y0194260D03*
X0052085Y0190445D03*
X0047220Y0187120D03*
X0041235Y0186700D03*
X0040010Y0190795D03*
X0043755Y0196955D03*
D92*
X0047010Y0190830D03*
X0052050Y0190445D03*
X0047955Y0183480D03*
X0041900Y0186805D03*
X0041865Y0186805D03*
D93*
X0041095Y0186665D03*
X0039905Y0190795D03*
X0040290Y0194155D03*
X0040325Y0194155D03*
X0052050Y0192895D03*
X0047710Y0183445D03*
D94*
X0047360Y0187067D03*
X0041130Y0186683D03*
X0039940Y0190777D03*
X0043720Y0196973D03*
X0051945Y0192877D03*
X0051980Y0192877D03*
X0052015Y0192877D03*
D95*
X0046170Y0193175D03*
X0044210Y0193490D03*
X0044175Y0193490D03*
X0044070Y0193525D03*
X0044035Y0193525D03*
X0044000Y0193525D03*
X0043895Y0193560D03*
X0043860Y0193560D03*
X0043825Y0193560D03*
X0043440Y0193665D03*
X0043405Y0193665D03*
X0043370Y0193665D03*
X0043335Y0193665D03*
X0043300Y0193665D03*
X0043265Y0193700D03*
X0043230Y0193700D03*
X0043195Y0193700D03*
X0043160Y0193700D03*
X0043020Y0193735D03*
X0042985Y0193735D03*
X0045085Y0196500D03*
X0045120Y0196500D03*
X0045190Y0196465D03*
X0045190Y0187540D03*
X0051840Y0186315D03*
X0051875Y0186350D03*
X0051910Y0186385D03*
D96*
X0047325Y0187085D03*
X0047290Y0187085D03*
X0051840Y0192860D03*
X0051875Y0192860D03*
X0051910Y0192860D03*
X0051700Y0194435D03*
X0051595Y0194505D03*
X0051525Y0194540D03*
X0051455Y0194575D03*
X0051420Y0194610D03*
X0051385Y0194610D03*
X0051350Y0194645D03*
X0051315Y0194645D03*
X0051280Y0194680D03*
X0051245Y0194680D03*
X0051210Y0194715D03*
X0051175Y0194715D03*
X0051140Y0194750D03*
X0051105Y0194750D03*
X0051035Y0194785D03*
X0050965Y0194820D03*
X0040360Y0194155D03*
D97*
X0044525Y0190410D03*
X0049355Y0191950D03*
X0049390Y0191950D03*
X0049425Y0191950D03*
X0049460Y0191950D03*
X0049495Y0191950D03*
X0049530Y0191950D03*
X0049565Y0191950D03*
X0049600Y0191950D03*
X0049635Y0191950D03*
X0049670Y0191950D03*
X0049705Y0191950D03*
X0049740Y0191950D03*
X0049775Y0191950D03*
X0049810Y0191950D03*
X0051875Y0190410D03*
X0050860Y0185510D03*
X0050825Y0185475D03*
X0047605Y0195310D03*
X0047570Y0195310D03*
D98*
X0047465Y0195275D03*
X0044980Y0190410D03*
X0044945Y0190410D03*
X0044910Y0190410D03*
X0044875Y0190410D03*
X0051840Y0190410D03*
D99*
X0051840Y0194348D03*
X0051665Y0194452D03*
X0051630Y0194487D03*
X0051560Y0194523D03*
X0051000Y0194802D03*
X0050930Y0194837D03*
X0050895Y0194837D03*
X0050860Y0194873D03*
X0050825Y0194873D03*
X0046975Y0190848D03*
X0047255Y0187102D03*
X0047745Y0183427D03*
X0039975Y0190777D03*
X0040395Y0194137D03*
D100*
X0043475Y0193630D03*
X0043510Y0193630D03*
X0043545Y0193630D03*
X0043580Y0193630D03*
X0043650Y0193595D03*
X0043685Y0193595D03*
X0043720Y0193595D03*
X0043755Y0193595D03*
X0044350Y0193455D03*
X0041900Y0190655D03*
X0041865Y0190655D03*
X0041830Y0190655D03*
X0041795Y0190655D03*
X0045085Y0187505D03*
X0045120Y0187505D03*
X0048410Y0183655D03*
X0051805Y0186280D03*
X0048165Y0195380D03*
D101*
X0047290Y0195240D03*
X0051805Y0190410D03*
X0050440Y0185230D03*
X0050405Y0185195D03*
D102*
X0048620Y0186332D03*
X0051735Y0192842D03*
X0051770Y0192842D03*
X0051805Y0192842D03*
X0051805Y0194382D03*
X0051770Y0194382D03*
X0051735Y0194417D03*
X0051490Y0194557D03*
X0051070Y0194767D03*
X0050755Y0194907D03*
X0041200Y0186682D03*
X0041165Y0186682D03*
D103*
X0050125Y0185037D03*
X0051735Y0190392D03*
X0047115Y0195187D03*
D104*
X0044770Y0193350D03*
X0045295Y0187575D03*
X0051700Y0186175D03*
D105*
X0049985Y0184967D03*
X0049950Y0184967D03*
X0049915Y0184932D03*
X0051700Y0190392D03*
X0047010Y0195152D03*
D106*
X0051665Y0190952D03*
D107*
X0051630Y0190935D03*
X0046310Y0194785D03*
D108*
X0046275Y0194750D03*
X0051595Y0190900D03*
D109*
X0051280Y0192562D03*
X0051455Y0189062D03*
X0046730Y0187417D03*
X0041970Y0186823D03*
X0041935Y0186823D03*
X0040500Y0190777D03*
X0040465Y0190777D03*
X0040955Y0194067D03*
X0040990Y0194067D03*
X0049110Y0195327D03*
X0049145Y0195327D03*
D110*
X0048515Y0195380D03*
X0044525Y0196710D03*
X0044490Y0196710D03*
X0041760Y0193945D03*
X0041725Y0193945D03*
X0041690Y0193945D03*
X0051455Y0192370D03*
D111*
X0047920Y0195345D03*
X0045925Y0196115D03*
X0045890Y0196150D03*
X0045855Y0196150D03*
X0042950Y0190550D03*
X0042915Y0190550D03*
X0042880Y0190550D03*
X0042845Y0190550D03*
X0042810Y0190550D03*
X0042775Y0190550D03*
X0046240Y0187820D03*
X0051420Y0185930D03*
D112*
X0051385Y0185912D03*
X0045995Y0196062D03*
D113*
X0046030Y0196045D03*
X0047850Y0195345D03*
X0047885Y0195345D03*
X0047115Y0190795D03*
X0043300Y0190515D03*
X0043265Y0190515D03*
X0043230Y0190515D03*
X0043195Y0190515D03*
X0043160Y0190515D03*
X0046205Y0187855D03*
X0051245Y0185790D03*
X0051280Y0185825D03*
D114*
X0051140Y0185720D03*
X0043720Y0190480D03*
X0043685Y0190480D03*
X0043650Y0190480D03*
X0043615Y0190480D03*
X0043580Y0190480D03*
X0043545Y0190480D03*
X0047780Y0195345D03*
D115*
X0049530Y0195257D03*
X0049565Y0195257D03*
X0049600Y0195257D03*
X0051140Y0192667D03*
X0047920Y0188817D03*
X0047955Y0188782D03*
D116*
X0051070Y0185650D03*
D117*
X0051035Y0185633D03*
X0051000Y0185598D03*
X0044140Y0190427D03*
X0046240Y0195887D03*
X0047675Y0195327D03*
D118*
X0047640Y0195310D03*
X0046030Y0192895D03*
X0047150Y0190795D03*
X0044315Y0190445D03*
X0044280Y0190445D03*
X0044245Y0190445D03*
X0044210Y0190445D03*
X0044175Y0190445D03*
X0046135Y0187960D03*
X0050965Y0185580D03*
D119*
X0050930Y0188450D03*
X0050895Y0188450D03*
X0048795Y0188275D03*
X0048760Y0188275D03*
X0048410Y0188450D03*
D120*
X0050790Y0185457D03*
X0044665Y0190427D03*
X0044630Y0190427D03*
X0044595Y0190427D03*
X0044560Y0190427D03*
X0047535Y0195292D03*
D121*
X0047500Y0195292D03*
X0045995Y0192807D03*
X0044840Y0190427D03*
X0050755Y0185422D03*
D122*
X0050720Y0185405D03*
X0050685Y0185370D03*
X0047185Y0190795D03*
D123*
X0045120Y0190410D03*
X0045085Y0190410D03*
X0045050Y0190410D03*
X0046065Y0188065D03*
X0050615Y0185335D03*
D124*
X0050580Y0185317D03*
X0050545Y0185283D03*
X0047360Y0195258D03*
D125*
X0050510Y0185265D03*
D126*
X0050475Y0185248D03*
X0047220Y0190777D03*
D127*
X0048235Y0192737D03*
X0048270Y0192737D03*
X0048305Y0192737D03*
X0050440Y0195012D03*
X0050475Y0195012D03*
X0047185Y0187137D03*
X0040465Y0194137D03*
X0040430Y0194137D03*
D128*
X0047255Y0195222D03*
X0046030Y0188152D03*
X0050370Y0185177D03*
D129*
X0050335Y0185160D03*
D130*
X0050300Y0185142D03*
X0047255Y0190777D03*
X0045960Y0192632D03*
X0047220Y0195222D03*
D131*
X0050230Y0185107D03*
X0050195Y0185073D03*
D132*
X0050160Y0185055D03*
X0045995Y0188240D03*
X0047150Y0195205D03*
D133*
X0047080Y0195170D03*
X0047290Y0190760D03*
X0050090Y0185020D03*
D134*
X0050055Y0185002D03*
D135*
X0049880Y0184915D03*
X0047325Y0190760D03*
D136*
X0049845Y0184897D03*
X0046975Y0195152D03*
D137*
X0045960Y0188380D03*
X0049775Y0184880D03*
X0049810Y0184880D03*
D138*
X0049705Y0184845D03*
X0049670Y0184845D03*
X0047360Y0190760D03*
D139*
X0046870Y0195117D03*
X0049635Y0184827D03*
D140*
X0049600Y0184810D03*
X0046835Y0195100D03*
D141*
X0047395Y0190742D03*
X0049530Y0184792D03*
X0049565Y0184792D03*
D142*
X0049425Y0184757D03*
X0049390Y0184757D03*
D143*
X0049355Y0184740D03*
X0049320Y0184740D03*
X0046765Y0195065D03*
D144*
X0049320Y0191967D03*
D145*
X0049285Y0184740D03*
D146*
X0049145Y0184705D03*
X0049110Y0184705D03*
X0046695Y0195030D03*
D147*
X0046660Y0195012D03*
X0049040Y0184687D03*
X0049075Y0184687D03*
D148*
X0049005Y0184705D03*
X0046625Y0194995D03*
D149*
X0048900Y0184687D03*
X0048935Y0184687D03*
X0048970Y0184687D03*
D150*
X0048060Y0183498D03*
X0046625Y0187487D03*
X0040675Y0190777D03*
X0040640Y0190777D03*
X0044210Y0196798D03*
X0048900Y0195327D03*
D151*
X0048865Y0184670D03*
D152*
X0048830Y0184687D03*
X0048795Y0184687D03*
X0048760Y0184687D03*
D153*
X0046555Y0187540D03*
X0042705Y0186945D03*
X0042670Y0186945D03*
X0042635Y0186945D03*
X0040885Y0190760D03*
X0040850Y0190760D03*
X0040815Y0190760D03*
X0041305Y0194015D03*
X0041340Y0194015D03*
X0044280Y0196780D03*
X0044315Y0196780D03*
X0048725Y0195345D03*
D154*
X0048690Y0184687D03*
X0048655Y0184687D03*
D155*
X0048550Y0186455D03*
X0047535Y0186980D03*
X0047500Y0186980D03*
X0039870Y0190795D03*
X0040255Y0194155D03*
D156*
X0040220Y0194155D03*
X0039835Y0190795D03*
X0040990Y0186665D03*
X0047605Y0186945D03*
X0047640Y0186945D03*
X0047675Y0186910D03*
X0048515Y0186490D03*
D157*
X0048480Y0186507D03*
X0048445Y0186542D03*
X0047710Y0186892D03*
X0047675Y0183427D03*
X0040955Y0186647D03*
D158*
X0043650Y0187120D03*
X0043685Y0187120D03*
X0043720Y0187120D03*
X0043755Y0187155D03*
X0043790Y0187155D03*
X0043825Y0187155D03*
X0043860Y0187155D03*
X0043965Y0187190D03*
X0044000Y0187190D03*
X0046450Y0187610D03*
X0048270Y0183585D03*
X0041270Y0190725D03*
X0041235Y0190725D03*
X0041200Y0190725D03*
X0041900Y0193910D03*
X0041935Y0193910D03*
X0041970Y0193910D03*
X0044595Y0196675D03*
X0044630Y0196675D03*
X0048410Y0195380D03*
X0048445Y0195380D03*
D159*
X0040185Y0194155D03*
X0039800Y0190795D03*
X0047745Y0186875D03*
X0047780Y0186875D03*
X0047850Y0186840D03*
X0048410Y0186560D03*
D160*
X0048235Y0186665D03*
X0048200Y0186665D03*
X0048165Y0186700D03*
X0048130Y0186700D03*
X0048095Y0186735D03*
X0048060Y0186735D03*
X0048025Y0186770D03*
X0047990Y0186770D03*
X0047920Y0186805D03*
X0039765Y0190795D03*
D161*
X0040955Y0190760D03*
X0043090Y0187015D03*
X0048165Y0183550D03*
D162*
X0046100Y0193052D03*
X0047955Y0195362D03*
X0045785Y0196202D03*
X0045750Y0196202D03*
X0045715Y0196237D03*
D163*
X0041760Y0186787D03*
X0041725Y0186787D03*
X0047920Y0183462D03*
D164*
X0047815Y0186857D03*
X0043650Y0197007D03*
D165*
X0040115Y0194190D03*
X0039730Y0190795D03*
X0047640Y0183445D03*
D166*
X0047605Y0183427D03*
D167*
X0047570Y0186962D03*
D168*
X0047430Y0190742D03*
X0046730Y0195047D03*
D169*
X0047395Y0187050D03*
D170*
X0047395Y0195275D03*
D171*
X0047185Y0195205D03*
D172*
X0046940Y0195135D03*
D173*
X0046590Y0194977D03*
D174*
X0046520Y0194942D03*
D175*
X0041130Y0190725D03*
X0041095Y0190725D03*
X0043230Y0187050D03*
X0043265Y0187050D03*
X0043300Y0187050D03*
X0043335Y0187050D03*
X0046485Y0187575D03*
D176*
X0046485Y0194925D03*
D177*
X0046450Y0194890D03*
D178*
X0046380Y0194837D03*
D179*
X0046345Y0194802D03*
D180*
X0045925Y0190410D03*
X0045890Y0190410D03*
D181*
X0045855Y0190392D03*
X0045820Y0190392D03*
X0045785Y0190392D03*
X0045750Y0190392D03*
D182*
X0045715Y0190410D03*
D183*
X0045680Y0190392D03*
X0045645Y0190392D03*
X0045610Y0190392D03*
X0045575Y0190392D03*
D184*
X0045540Y0190410D03*
D185*
X0045505Y0190392D03*
X0045470Y0190392D03*
X0045435Y0190392D03*
X0045400Y0190392D03*
D186*
X0045365Y0190410D03*
D187*
X0045330Y0190392D03*
D188*
X0045225Y0191635D03*
X0045190Y0191635D03*
D189*
X0041550Y0193980D03*
X0041515Y0193980D03*
X0041480Y0193980D03*
X0044385Y0196745D03*
X0044420Y0196745D03*
X0042950Y0186980D03*
X0042915Y0186980D03*
X0042880Y0186980D03*
D190*
X0042600Y0186927D03*
X0042565Y0186927D03*
X0042530Y0186927D03*
X0042495Y0186927D03*
X0040780Y0190777D03*
X0044245Y0196797D03*
D191*
X0044070Y0196850D03*
X0041025Y0194050D03*
D192*
X0043685Y0196990D03*
X0041025Y0186665D03*
D193*
X0039695Y0190812D03*
X0043615Y0197042D03*
D194*
X0041200Y0194032D03*
X0041165Y0194032D03*
X0042320Y0186892D03*
X0042355Y0186892D03*
D195*
X0040885Y0186648D03*
D196*
X0040850Y0186648D03*
D197*
X0040815Y0186630D03*
D198*
X0040745Y0186630D03*
X0039590Y0190830D03*
D199*
X0040080Y0194190D03*
D200*
X0040045Y0194172D03*
D201*
X0039975Y0194207D03*
D202*
X0039660Y0190812D03*
D203*
X0039625Y0190830D03*
D204*
X0074900Y0189260D03*
X0075900Y0189260D03*
X0076700Y0189060D03*
X0076900Y0189060D03*
X0077100Y0189060D03*
X0077300Y0189060D03*
X0077500Y0189060D03*
X0077500Y0189700D03*
X0077700Y0189740D03*
X0078100Y0189860D03*
X0078300Y0189060D03*
X0078500Y0189060D03*
X0078700Y0189060D03*
X0079500Y0189060D03*
X0078700Y0187900D03*
X0078500Y0187900D03*
X0078300Y0187900D03*
X0078300Y0186540D03*
X0078500Y0186540D03*
X0078700Y0186540D03*
X0078900Y0186540D03*
X0079100Y0186540D03*
X0079300Y0186540D03*
X0079500Y0186540D03*
X0079500Y0185700D03*
X0078900Y0185700D03*
X0078100Y0185700D03*
X0077500Y0186540D03*
X0076300Y0187660D03*
X0076100Y0187660D03*
X0075900Y0187660D03*
X0075700Y0187660D03*
X0075500Y0187660D03*
X0075300Y0187660D03*
X0075100Y0187660D03*
X0075100Y0186500D03*
X0075100Y0185740D03*
X0075700Y0184540D03*
X0075500Y0182660D03*
X0075300Y0182660D03*
X0075100Y0182660D03*
X0075100Y0181900D03*
X0075300Y0181900D03*
X0075500Y0181900D03*
X0075700Y0181900D03*
X0076500Y0182660D03*
X0076700Y0182660D03*
X0076900Y0182660D03*
X0077100Y0182660D03*
X0077300Y0182660D03*
X0077500Y0182660D03*
X0078300Y0182660D03*
X0078500Y0182660D03*
X0078700Y0182660D03*
X0078900Y0182660D03*
X0079100Y0182660D03*
X0079300Y0182660D03*
X0079500Y0182660D03*
X0077700Y0190900D03*
X0078100Y0191900D03*
X0078100Y0193700D03*
X0078900Y0193700D03*
X0078900Y0194540D03*
X0078700Y0194540D03*
X0078500Y0194540D03*
X0078300Y0194540D03*
X0079100Y0194540D03*
X0079300Y0194540D03*
X0079500Y0194540D03*
X0078900Y0195940D03*
X0078100Y0195940D03*
X0077500Y0194540D03*
X0076300Y0195060D03*
X0076100Y0195060D03*
X0075900Y0195060D03*
X0075700Y0195060D03*
X0075500Y0195060D03*
X0075300Y0195060D03*
X0075100Y0195060D03*
X0075300Y0196340D03*
X0075500Y0196340D03*
X0075100Y0198060D03*
X0074900Y0198140D03*
X0075300Y0192300D03*
X0075100Y0192260D03*
X0075700Y0192260D03*
X0075700Y0191060D03*
X0075500Y0191060D03*
X0075300Y0191060D03*
X0075100Y0191060D03*
D205*
X0075700Y0190420D03*
X0077900Y0189820D03*
X0077900Y0191980D03*
X0077700Y0192020D03*
X0075500Y0193020D03*
X0075300Y0193020D03*
X0075100Y0193020D03*
X0074900Y0193020D03*
X0074700Y0193020D03*
X0074500Y0193020D03*
X0074500Y0194220D03*
X0074700Y0194220D03*
X0074900Y0194220D03*
X0075100Y0194220D03*
X0075300Y0194220D03*
X0075500Y0194220D03*
X0075700Y0196380D03*
X0075100Y0196380D03*
X0075100Y0183820D03*
X0075300Y0183820D03*
X0075500Y0183820D03*
X0075700Y0183820D03*
X0078300Y0183820D03*
X0078500Y0183820D03*
X0078700Y0183820D03*
X0078900Y0183820D03*
X0079100Y0183820D03*
X0079300Y0183820D03*
X0079500Y0183820D03*
D206*
X0079500Y0185020D03*
X0079500Y0193020D03*
X0079500Y0196580D03*
D207*
X0077500Y0196520D03*
X0072700Y0194440D03*
X0075900Y0192160D03*
X0077900Y0190880D03*
X0075100Y0189360D03*
X0079500Y0188360D03*
X0075900Y0184640D03*
X0075900Y0183720D03*
X0072700Y0185520D03*
D208*
X0072100Y0187700D03*
X0079500Y0190300D03*
X0075300Y0180700D03*
D209*
X0075100Y0180720D03*
X0075500Y0180720D03*
X0075700Y0180720D03*
X0075100Y0184520D03*
X0075300Y0186480D03*
X0075500Y0186480D03*
X0075700Y0186480D03*
X0075900Y0186480D03*
X0076100Y0186480D03*
X0076300Y0186480D03*
X0078900Y0184520D03*
X0078300Y0189920D03*
X0078500Y0190000D03*
X0078500Y0190600D03*
X0078500Y0191800D03*
X0078300Y0191840D03*
X0078900Y0192520D03*
X0079500Y0191480D03*
X0079500Y0193720D03*
X0075500Y0192280D03*
X0075900Y0197440D03*
X0075700Y0198080D03*
X0075100Y0199240D03*
D210*
X0075940Y0199100D03*
X0075780Y0198100D03*
X0075740Y0198100D03*
X0075660Y0198060D03*
X0075620Y0198060D03*
X0075140Y0198060D03*
X0074980Y0198100D03*
X0075140Y0196340D03*
X0075180Y0196340D03*
X0075220Y0196340D03*
X0075260Y0196340D03*
X0075340Y0196340D03*
X0075380Y0196340D03*
X0075420Y0196340D03*
X0075460Y0196340D03*
X0075540Y0196340D03*
X0075580Y0196340D03*
X0075620Y0196340D03*
X0075620Y0195060D03*
X0075580Y0195060D03*
X0075540Y0195060D03*
X0075460Y0195060D03*
X0075420Y0195060D03*
X0075380Y0195060D03*
X0075340Y0195060D03*
X0075260Y0195060D03*
X0075220Y0195060D03*
X0075180Y0195060D03*
X0075140Y0195060D03*
X0075060Y0195060D03*
X0075020Y0195060D03*
X0074420Y0195060D03*
X0074380Y0195060D03*
X0075660Y0195060D03*
X0075740Y0195060D03*
X0075780Y0195060D03*
X0075820Y0195060D03*
X0075860Y0195060D03*
X0075940Y0195060D03*
X0075980Y0195060D03*
X0076020Y0195060D03*
X0076060Y0195060D03*
X0076140Y0195060D03*
X0076180Y0195060D03*
X0076220Y0195060D03*
X0076260Y0195060D03*
X0076340Y0195060D03*
X0076380Y0195060D03*
X0077540Y0194540D03*
X0077580Y0194540D03*
X0078260Y0194540D03*
X0078340Y0194540D03*
X0078380Y0194540D03*
X0078420Y0194540D03*
X0078460Y0194540D03*
X0078540Y0194540D03*
X0078580Y0194540D03*
X0078620Y0194540D03*
X0078660Y0194540D03*
X0078740Y0194540D03*
X0078780Y0194540D03*
X0078820Y0194540D03*
X0078860Y0194540D03*
X0078940Y0194540D03*
X0078980Y0194540D03*
X0079020Y0194540D03*
X0079060Y0194540D03*
X0079140Y0194540D03*
X0079180Y0194540D03*
X0079220Y0194540D03*
X0079260Y0194540D03*
X0079340Y0194540D03*
X0079380Y0194540D03*
X0079420Y0194540D03*
X0079460Y0194540D03*
X0078980Y0193700D03*
X0078940Y0193700D03*
X0078860Y0193700D03*
X0078820Y0193700D03*
X0078260Y0193700D03*
X0078060Y0193700D03*
X0078020Y0193700D03*
X0078780Y0192540D03*
X0078980Y0192540D03*
X0079020Y0192540D03*
X0078260Y0191860D03*
X0078140Y0191900D03*
X0078020Y0191940D03*
X0077980Y0191940D03*
X0077940Y0191940D03*
X0077620Y0192060D03*
X0077580Y0192060D03*
X0075740Y0192260D03*
X0075660Y0192260D03*
X0075620Y0192260D03*
X0075460Y0192300D03*
X0075420Y0192300D03*
X0075380Y0192300D03*
X0075340Y0192300D03*
X0075140Y0192260D03*
X0075060Y0192260D03*
X0075020Y0192260D03*
X0075020Y0191100D03*
X0074980Y0191100D03*
X0075060Y0191060D03*
X0075140Y0191060D03*
X0075180Y0191060D03*
X0075220Y0191060D03*
X0075260Y0191060D03*
X0075340Y0191060D03*
X0075380Y0191060D03*
X0075420Y0191060D03*
X0075460Y0191060D03*
X0075540Y0191060D03*
X0075580Y0191060D03*
X0075620Y0191060D03*
X0075660Y0191060D03*
X0075740Y0191100D03*
X0075780Y0191100D03*
X0075020Y0189260D03*
X0074980Y0189260D03*
X0074940Y0189260D03*
X0074860Y0189300D03*
X0075060Y0187660D03*
X0075140Y0187660D03*
X0075180Y0187660D03*
X0075220Y0187660D03*
X0075260Y0187660D03*
X0075340Y0187660D03*
X0075380Y0187660D03*
X0075420Y0187660D03*
X0075460Y0187660D03*
X0075540Y0187660D03*
X0075580Y0187660D03*
X0075620Y0187660D03*
X0075660Y0187660D03*
X0075740Y0187660D03*
X0075780Y0187660D03*
X0075820Y0187660D03*
X0075860Y0187660D03*
X0075940Y0187660D03*
X0075980Y0187660D03*
X0076020Y0187660D03*
X0076060Y0187660D03*
X0076140Y0187660D03*
X0076180Y0187660D03*
X0076220Y0187660D03*
X0076260Y0187660D03*
X0076340Y0187660D03*
X0076380Y0187660D03*
X0076420Y0187660D03*
X0076740Y0189060D03*
X0076780Y0189060D03*
X0076820Y0189060D03*
X0076860Y0189060D03*
X0076940Y0189060D03*
X0076980Y0189060D03*
X0077020Y0189060D03*
X0077060Y0189060D03*
X0077140Y0189060D03*
X0077180Y0189060D03*
X0077220Y0189060D03*
X0077260Y0189060D03*
X0077340Y0189060D03*
X0077380Y0189060D03*
X0077420Y0189060D03*
X0077460Y0189060D03*
X0077540Y0189060D03*
X0077540Y0189700D03*
X0077620Y0189740D03*
X0077660Y0189740D03*
X0078020Y0189860D03*
X0078060Y0189860D03*
X0078180Y0189900D03*
X0078220Y0189900D03*
X0078340Y0189940D03*
X0078340Y0189060D03*
X0078380Y0189060D03*
X0078420Y0189060D03*
X0078460Y0189060D03*
X0078540Y0189060D03*
X0078580Y0189060D03*
X0078620Y0189060D03*
X0078660Y0189060D03*
X0078740Y0189060D03*
X0078780Y0189060D03*
X0078820Y0189060D03*
X0078260Y0189060D03*
X0078220Y0189060D03*
X0078180Y0189060D03*
X0078180Y0187900D03*
X0078220Y0187900D03*
X0078260Y0187900D03*
X0078340Y0187900D03*
X0078380Y0187900D03*
X0078420Y0187900D03*
X0078460Y0187900D03*
X0078540Y0187900D03*
X0078580Y0187900D03*
X0078620Y0187900D03*
X0078660Y0187900D03*
X0078740Y0187900D03*
X0078780Y0187900D03*
X0078820Y0187900D03*
X0079460Y0189060D03*
X0079420Y0190300D03*
X0079380Y0190300D03*
X0079420Y0191500D03*
X0078740Y0195900D03*
X0078860Y0195940D03*
X0078140Y0195940D03*
X0078140Y0197100D03*
X0078180Y0197100D03*
X0078220Y0197100D03*
X0078260Y0197100D03*
X0072740Y0194460D03*
X0075020Y0186500D03*
X0075060Y0186500D03*
X0075060Y0185700D03*
X0075020Y0185700D03*
X0074980Y0185700D03*
X0075020Y0184540D03*
X0075060Y0184540D03*
X0075140Y0184540D03*
X0075660Y0184540D03*
X0075740Y0184540D03*
X0075780Y0184540D03*
X0075660Y0182660D03*
X0075620Y0182660D03*
X0075580Y0182660D03*
X0075540Y0182660D03*
X0075460Y0182660D03*
X0075420Y0182660D03*
X0075380Y0182660D03*
X0075340Y0182660D03*
X0075260Y0182660D03*
X0075220Y0182660D03*
X0075180Y0182660D03*
X0075140Y0182660D03*
X0074420Y0182660D03*
X0074380Y0182660D03*
X0074980Y0181860D03*
X0075060Y0181900D03*
X0075140Y0181900D03*
X0075180Y0181900D03*
X0075220Y0181900D03*
X0075260Y0181900D03*
X0075340Y0181900D03*
X0075380Y0181900D03*
X0075420Y0181900D03*
X0075460Y0181900D03*
X0075540Y0181900D03*
X0075580Y0181900D03*
X0075620Y0181900D03*
X0075660Y0181900D03*
X0075780Y0181860D03*
X0076340Y0182660D03*
X0076380Y0182660D03*
X0076420Y0182660D03*
X0076460Y0182660D03*
X0076540Y0182660D03*
X0076580Y0182660D03*
X0076620Y0182660D03*
X0076660Y0182660D03*
X0076740Y0182660D03*
X0076780Y0182660D03*
X0076820Y0182660D03*
X0076860Y0182660D03*
X0076940Y0182660D03*
X0076980Y0182660D03*
X0077020Y0182660D03*
X0077060Y0182660D03*
X0077140Y0182660D03*
X0077180Y0182660D03*
X0077220Y0182660D03*
X0077260Y0182660D03*
X0077340Y0182660D03*
X0077380Y0182660D03*
X0077420Y0182660D03*
X0077460Y0182660D03*
X0077540Y0182660D03*
X0078180Y0182660D03*
X0078220Y0182660D03*
X0078260Y0182660D03*
X0078340Y0182660D03*
X0078380Y0182660D03*
X0078420Y0182660D03*
X0078460Y0182660D03*
X0078540Y0182660D03*
X0078580Y0182660D03*
X0078620Y0182660D03*
X0078660Y0182660D03*
X0078740Y0182660D03*
X0078780Y0182660D03*
X0078820Y0182660D03*
X0078860Y0182660D03*
X0078940Y0182660D03*
X0078980Y0182660D03*
X0079020Y0182660D03*
X0079060Y0182660D03*
X0079140Y0182660D03*
X0079180Y0182660D03*
X0079220Y0182660D03*
X0079260Y0182660D03*
X0079340Y0182660D03*
X0079380Y0182660D03*
X0079420Y0182660D03*
X0079460Y0182660D03*
X0079020Y0184540D03*
X0078780Y0184540D03*
X0078780Y0185700D03*
X0078740Y0185700D03*
X0078820Y0185700D03*
X0078860Y0185700D03*
X0078940Y0185700D03*
X0078980Y0185700D03*
X0078260Y0185700D03*
X0078220Y0185700D03*
X0078180Y0185700D03*
X0078140Y0185700D03*
X0078060Y0185700D03*
X0078020Y0185700D03*
X0078220Y0186540D03*
X0078260Y0186540D03*
X0078340Y0186540D03*
X0078380Y0186540D03*
X0078420Y0186540D03*
X0078460Y0186540D03*
X0078540Y0186540D03*
X0078580Y0186540D03*
X0078620Y0186540D03*
X0078660Y0186540D03*
X0078740Y0186540D03*
X0078780Y0186540D03*
X0078820Y0186540D03*
X0078860Y0186540D03*
X0078940Y0186540D03*
X0078980Y0186540D03*
X0079020Y0186540D03*
X0079060Y0186540D03*
X0079140Y0186540D03*
X0079180Y0186540D03*
X0079220Y0186540D03*
X0079260Y0186540D03*
X0079340Y0186540D03*
X0079380Y0186540D03*
X0079420Y0186540D03*
X0079460Y0186540D03*
X0077580Y0186540D03*
X0077540Y0186540D03*
X0072740Y0185500D03*
X0074980Y0180740D03*
X0075780Y0180740D03*
D211*
X0075660Y0183820D03*
X0075620Y0183820D03*
X0075580Y0183820D03*
X0075540Y0183820D03*
X0075460Y0183820D03*
X0075420Y0183820D03*
X0075340Y0183820D03*
X0075260Y0183820D03*
X0075220Y0183820D03*
X0075180Y0183820D03*
X0075140Y0183820D03*
X0075060Y0183820D03*
X0074940Y0184580D03*
X0075820Y0184580D03*
X0075940Y0185580D03*
X0078140Y0183820D03*
X0078180Y0183820D03*
X0078220Y0183820D03*
X0078260Y0183820D03*
X0078340Y0183820D03*
X0078380Y0183820D03*
X0078420Y0183820D03*
X0078460Y0183820D03*
X0078540Y0183820D03*
X0078580Y0183820D03*
X0078620Y0183820D03*
X0078660Y0183820D03*
X0078740Y0183820D03*
X0078780Y0183820D03*
X0078820Y0183820D03*
X0078860Y0183820D03*
X0078940Y0183820D03*
X0078980Y0183820D03*
X0079020Y0183820D03*
X0079060Y0183820D03*
X0079140Y0183820D03*
X0079180Y0183820D03*
X0079220Y0183820D03*
X0079260Y0183820D03*
X0079340Y0183820D03*
X0079380Y0183820D03*
X0079420Y0183820D03*
X0079460Y0183820D03*
X0077860Y0189780D03*
X0077820Y0189780D03*
X0077780Y0189780D03*
X0077940Y0189820D03*
X0077980Y0189820D03*
X0078460Y0189980D03*
X0078540Y0191780D03*
X0078420Y0191820D03*
X0078380Y0191820D03*
X0077860Y0191980D03*
X0077820Y0191980D03*
X0077780Y0192020D03*
X0077740Y0192020D03*
X0075660Y0193020D03*
X0075620Y0193020D03*
X0075580Y0193020D03*
X0075540Y0193020D03*
X0075460Y0193020D03*
X0075420Y0193020D03*
X0075380Y0193020D03*
X0075340Y0193020D03*
X0075260Y0193020D03*
X0075220Y0193020D03*
X0075180Y0193020D03*
X0075140Y0193020D03*
X0075060Y0193020D03*
X0075020Y0193020D03*
X0074980Y0193020D03*
X0074940Y0193020D03*
X0074860Y0193020D03*
X0074820Y0193020D03*
X0074780Y0193020D03*
X0074740Y0193020D03*
X0074660Y0193020D03*
X0074620Y0193020D03*
X0074580Y0193020D03*
X0074540Y0193020D03*
X0074460Y0193020D03*
X0074420Y0193020D03*
X0074380Y0193020D03*
X0074380Y0194220D03*
X0074420Y0194220D03*
X0074460Y0194220D03*
X0074540Y0194220D03*
X0074580Y0194220D03*
X0074620Y0194220D03*
X0074660Y0194220D03*
X0074740Y0194220D03*
X0074780Y0194220D03*
X0074820Y0194220D03*
X0074860Y0194220D03*
X0074940Y0194220D03*
X0074980Y0194220D03*
X0075020Y0194220D03*
X0075060Y0194220D03*
X0075140Y0194220D03*
X0075180Y0194220D03*
X0075220Y0194220D03*
X0075260Y0194220D03*
X0075340Y0194220D03*
X0075380Y0194220D03*
X0075420Y0194220D03*
X0075460Y0194220D03*
X0075540Y0194220D03*
X0075580Y0194220D03*
X0075620Y0194220D03*
X0075660Y0194220D03*
X0076340Y0194220D03*
X0076380Y0194220D03*
X0075660Y0196380D03*
X0075060Y0196380D03*
X0074980Y0199220D03*
X0074940Y0199220D03*
X0078060Y0195980D03*
X0078940Y0195980D03*
X0075820Y0190420D03*
X0075780Y0190420D03*
X0075740Y0190420D03*
X0076420Y0189820D03*
X0074340Y0189820D03*
D212*
X0074540Y0189860D03*
X0075340Y0189820D03*
X0075380Y0189860D03*
X0075420Y0189900D03*
X0076220Y0189780D03*
X0077580Y0188620D03*
X0077740Y0186980D03*
X0078380Y0185260D03*
X0079460Y0185260D03*
X0077580Y0183100D03*
X0074460Y0183100D03*
X0074660Y0181300D03*
X0074660Y0185140D03*
X0074460Y0186940D03*
X0074660Y0191660D03*
X0074580Y0195500D03*
X0074460Y0195500D03*
X0074620Y0197020D03*
X0076140Y0197020D03*
X0077740Y0194980D03*
X0078380Y0193260D03*
X0079460Y0193260D03*
X0079420Y0188620D03*
D213*
X0079460Y0188360D03*
X0079060Y0188920D03*
X0078980Y0190280D03*
X0078940Y0190280D03*
X0078140Y0190880D03*
X0078940Y0191480D03*
X0078980Y0191480D03*
X0076380Y0189800D03*
X0074380Y0189840D03*
X0071940Y0187600D03*
X0071940Y0192360D03*
X0077540Y0196520D03*
X0061260Y0194400D03*
X0061260Y0185560D03*
D214*
X0061140Y0185520D03*
X0061140Y0194440D03*
X0074340Y0194200D03*
X0074340Y0195040D03*
X0074340Y0193040D03*
X0075180Y0192280D03*
X0075220Y0192280D03*
X0075260Y0192280D03*
X0075540Y0192280D03*
X0075580Y0192280D03*
X0076420Y0191680D03*
X0077620Y0190880D03*
X0077660Y0190880D03*
X0078340Y0190640D03*
X0078380Y0190640D03*
X0078620Y0190560D03*
X0078620Y0190040D03*
X0078660Y0190040D03*
X0078580Y0190000D03*
X0078540Y0190000D03*
X0078420Y0189960D03*
X0078380Y0189960D03*
X0078260Y0189920D03*
X0078140Y0189880D03*
X0078420Y0191160D03*
X0078460Y0191160D03*
X0078540Y0191200D03*
X0078580Y0191200D03*
X0078580Y0191760D03*
X0078620Y0191760D03*
X0078460Y0191800D03*
X0078340Y0191840D03*
X0078220Y0191880D03*
X0078180Y0191880D03*
X0078060Y0191920D03*
X0078820Y0192520D03*
X0078860Y0192520D03*
X0078940Y0192520D03*
X0079460Y0191480D03*
X0079460Y0190280D03*
X0076660Y0189080D03*
X0074820Y0190240D03*
X0074340Y0191680D03*
X0076420Y0194200D03*
X0076420Y0195040D03*
X0078180Y0195920D03*
X0078220Y0195920D03*
X0078260Y0195920D03*
X0078780Y0195920D03*
X0078820Y0195920D03*
X0079060Y0196960D03*
X0076420Y0198720D03*
X0075140Y0199240D03*
X0075060Y0199240D03*
X0075020Y0199240D03*
X0075020Y0198080D03*
X0075060Y0198080D03*
X0074340Y0197040D03*
X0077460Y0193080D03*
X0078140Y0193720D03*
X0078180Y0193720D03*
X0078220Y0193720D03*
X0078740Y0193720D03*
X0078780Y0193720D03*
X0076420Y0186480D03*
X0076380Y0186480D03*
X0076340Y0186480D03*
X0076260Y0186480D03*
X0076220Y0186480D03*
X0076180Y0186480D03*
X0076140Y0186480D03*
X0076060Y0186480D03*
X0076020Y0186480D03*
X0075980Y0186480D03*
X0075940Y0186480D03*
X0075860Y0186480D03*
X0075820Y0186480D03*
X0075780Y0186480D03*
X0075740Y0186480D03*
X0075660Y0186480D03*
X0075620Y0186480D03*
X0075580Y0186480D03*
X0075540Y0186480D03*
X0075460Y0186480D03*
X0075420Y0186480D03*
X0075380Y0186480D03*
X0075340Y0186480D03*
X0075260Y0186480D03*
X0075220Y0186480D03*
X0075180Y0186480D03*
X0075140Y0186480D03*
X0074420Y0186480D03*
X0074380Y0186480D03*
X0074340Y0186480D03*
X0074980Y0184560D03*
X0075620Y0184520D03*
X0075380Y0183840D03*
X0074340Y0182640D03*
X0074340Y0181280D03*
X0075020Y0180720D03*
X0075060Y0180720D03*
X0075140Y0180720D03*
X0075180Y0180720D03*
X0075220Y0180720D03*
X0075260Y0180720D03*
X0075540Y0180720D03*
X0075580Y0180720D03*
X0075620Y0180720D03*
X0075660Y0180720D03*
X0075740Y0180720D03*
X0077460Y0185080D03*
X0078820Y0184520D03*
X0078860Y0184520D03*
X0078940Y0184520D03*
X0078980Y0184520D03*
D215*
X0074460Y0185120D03*
X0078740Y0190280D03*
X0079460Y0196560D03*
X0077580Y0196520D03*
X0076340Y0198720D03*
X0074460Y0198680D03*
D216*
X0076140Y0198720D03*
X0077820Y0196520D03*
X0078420Y0193240D03*
X0077740Y0193120D03*
X0079420Y0193240D03*
X0076060Y0191680D03*
X0074580Y0189880D03*
X0072380Y0194360D03*
X0074540Y0195520D03*
X0079420Y0185240D03*
X0077620Y0183120D03*
X0076260Y0183120D03*
D217*
X0076260Y0181300D03*
X0075580Y0190100D03*
X0079420Y0196580D03*
X0061380Y0194380D03*
X0061380Y0185580D03*
D218*
X0072340Y0185600D03*
X0074580Y0187000D03*
X0076020Y0185160D03*
X0076180Y0183160D03*
X0074580Y0183160D03*
X0078460Y0185200D03*
X0079380Y0185200D03*
X0074740Y0189800D03*
X0077820Y0193160D03*
X0078460Y0193200D03*
X0079340Y0193200D03*
X0079140Y0196560D03*
X0079220Y0196600D03*
X0076060Y0197040D03*
X0075940Y0196960D03*
X0074820Y0196960D03*
X0072340Y0194360D03*
D219*
X0077620Y0188600D03*
X0079380Y0188600D03*
X0076140Y0185200D03*
X0072380Y0185600D03*
D220*
X0072060Y0187680D03*
X0074980Y0187640D03*
X0075020Y0187640D03*
X0074980Y0186520D03*
X0074940Y0186520D03*
X0075140Y0185720D03*
X0074940Y0185680D03*
X0075860Y0184600D03*
X0075820Y0183800D03*
X0075780Y0183800D03*
X0075740Y0183800D03*
X0075020Y0183800D03*
X0074980Y0183800D03*
X0074940Y0183800D03*
X0074980Y0182680D03*
X0075020Y0182680D03*
X0075060Y0182680D03*
X0075740Y0182680D03*
X0075780Y0182680D03*
X0075740Y0181880D03*
X0075820Y0181840D03*
X0075020Y0181880D03*
X0074940Y0181840D03*
X0074940Y0180760D03*
X0075820Y0180760D03*
X0078140Y0182680D03*
X0077980Y0185680D03*
X0078140Y0186560D03*
X0078180Y0186560D03*
X0079020Y0185680D03*
X0078940Y0187920D03*
X0078980Y0187960D03*
X0078860Y0187920D03*
X0078140Y0187920D03*
X0078140Y0189040D03*
X0078860Y0189040D03*
X0078940Y0189040D03*
X0079340Y0190280D03*
X0079340Y0191480D03*
X0079380Y0191480D03*
X0077780Y0190880D03*
X0077740Y0190880D03*
X0077740Y0189760D03*
X0077580Y0189720D03*
X0075860Y0190400D03*
X0075660Y0190400D03*
X0075820Y0191120D03*
X0074940Y0191120D03*
X0074940Y0192240D03*
X0074980Y0192240D03*
X0075780Y0192240D03*
X0075820Y0192240D03*
X0075860Y0192200D03*
X0075740Y0193040D03*
X0075780Y0193080D03*
X0075820Y0193080D03*
X0075740Y0194200D03*
X0074980Y0195080D03*
X0074980Y0196400D03*
X0075020Y0196400D03*
X0074940Y0196440D03*
X0075740Y0196400D03*
X0075780Y0196400D03*
X0075820Y0196440D03*
X0075820Y0198120D03*
X0075860Y0198160D03*
X0074940Y0198120D03*
X0078020Y0197040D03*
X0078060Y0197080D03*
X0078020Y0196000D03*
X0078980Y0196000D03*
X0078220Y0194560D03*
X0078180Y0194560D03*
X0078140Y0194560D03*
X0077980Y0193680D03*
X0079020Y0193680D03*
X0077660Y0192040D03*
X0077540Y0192080D03*
X0075060Y0189280D03*
X0072060Y0192280D03*
D221*
X0074780Y0189780D03*
X0076180Y0189780D03*
X0077660Y0188580D03*
X0077660Y0187020D03*
X0077620Y0187020D03*
X0077860Y0185180D03*
X0077740Y0185100D03*
X0078420Y0185220D03*
X0077660Y0183140D03*
X0076220Y0183140D03*
X0074540Y0183140D03*
X0074740Y0181300D03*
X0076020Y0181300D03*
X0076060Y0181300D03*
X0074740Y0185140D03*
X0074540Y0186980D03*
X0079340Y0188580D03*
X0079380Y0193220D03*
X0077860Y0193180D03*
X0076260Y0193740D03*
X0077620Y0195020D03*
X0077660Y0195020D03*
X0077860Y0196540D03*
X0079260Y0196580D03*
X0075980Y0198660D03*
X0074740Y0198660D03*
X0074660Y0197020D03*
X0061540Y0194340D03*
X0061540Y0185620D03*
D222*
X0074540Y0185120D03*
X0074540Y0181280D03*
X0074540Y0191680D03*
X0076220Y0191680D03*
X0074820Y0195400D03*
X0074540Y0198680D03*
X0076260Y0198720D03*
X0079380Y0196560D03*
D223*
X0079180Y0196580D03*
X0076020Y0197020D03*
X0075980Y0196980D03*
X0074780Y0196980D03*
X0074740Y0197020D03*
X0076020Y0198700D03*
X0076140Y0193700D03*
X0076180Y0193700D03*
X0075980Y0191660D03*
X0074780Y0191660D03*
X0074660Y0189860D03*
X0074660Y0187020D03*
X0074620Y0187020D03*
X0076060Y0185180D03*
X0077820Y0185140D03*
X0079340Y0185180D03*
X0077780Y0183180D03*
X0077740Y0183180D03*
X0076140Y0183180D03*
X0074620Y0183180D03*
X0074780Y0181300D03*
X0074820Y0181300D03*
X0075940Y0181300D03*
X0075980Y0181300D03*
X0077740Y0188540D03*
X0077780Y0188540D03*
X0079260Y0188540D03*
X0078540Y0193180D03*
X0061580Y0194340D03*
X0061580Y0185620D03*
D224*
X0072420Y0185580D03*
X0072420Y0194380D03*
X0074580Y0197020D03*
X0076180Y0197020D03*
X0079340Y0196580D03*
D225*
X0079300Y0193180D03*
X0078500Y0193180D03*
X0078500Y0185180D03*
X0079300Y0185180D03*
D226*
X0077700Y0183160D03*
X0076100Y0185200D03*
X0077700Y0188560D03*
X0079300Y0188560D03*
X0074700Y0189840D03*
X0074700Y0197040D03*
D227*
X0074900Y0196460D03*
X0074900Y0195100D03*
X0077500Y0195260D03*
X0078100Y0194580D03*
X0074900Y0191140D03*
X0075900Y0190380D03*
X0074900Y0187580D03*
X0074900Y0186540D03*
X0074900Y0185660D03*
X0074900Y0183780D03*
X0074900Y0182700D03*
X0074900Y0181820D03*
X0074900Y0180780D03*
X0077500Y0187260D03*
X0079300Y0190300D03*
X0075900Y0198180D03*
D228*
X0074900Y0199200D03*
X0078100Y0197080D03*
X0075700Y0194200D03*
X0075700Y0193040D03*
X0074900Y0192200D03*
X0077500Y0192080D03*
X0079300Y0191480D03*
X0078900Y0189040D03*
X0078100Y0189040D03*
X0077500Y0188360D03*
X0078100Y0187920D03*
X0078900Y0187920D03*
X0078100Y0186560D03*
X0074900Y0184600D03*
X0075700Y0182680D03*
X0077500Y0183360D03*
X0078100Y0183800D03*
X0078100Y0182680D03*
D229*
X0076300Y0183100D03*
X0076100Y0181300D03*
X0075300Y0189780D03*
X0076100Y0191660D03*
X0076300Y0193780D03*
X0077700Y0193140D03*
X0079300Y0196580D03*
D230*
X0079260Y0193160D03*
X0079220Y0193160D03*
X0078580Y0193160D03*
X0075940Y0191680D03*
X0074820Y0191680D03*
X0076140Y0189760D03*
X0077820Y0188520D03*
X0077860Y0188520D03*
X0079140Y0188520D03*
X0079180Y0188520D03*
X0079220Y0188520D03*
X0079260Y0185160D03*
X0078580Y0185160D03*
X0078540Y0185160D03*
X0077820Y0183200D03*
X0076060Y0183200D03*
X0074660Y0183200D03*
X0074740Y0187040D03*
D231*
X0074380Y0187180D03*
X0074940Y0187620D03*
X0074820Y0189340D03*
X0074860Y0191180D03*
X0075860Y0191140D03*
X0075860Y0193100D03*
X0076380Y0193500D03*
X0075820Y0194180D03*
X0075780Y0194180D03*
X0074940Y0195100D03*
X0074380Y0195740D03*
X0075860Y0196460D03*
X0074860Y0198180D03*
X0074860Y0199180D03*
X0077980Y0197020D03*
X0077980Y0196020D03*
X0079020Y0196020D03*
X0078060Y0194580D03*
X0078740Y0192580D03*
X0079060Y0192580D03*
X0077820Y0190900D03*
X0079260Y0190300D03*
X0078980Y0189020D03*
X0078060Y0189020D03*
X0078020Y0187980D03*
X0078060Y0187940D03*
X0079020Y0187980D03*
X0078060Y0186580D03*
X0078740Y0184580D03*
X0079060Y0184580D03*
X0078060Y0183780D03*
X0078060Y0182700D03*
X0076380Y0183380D03*
X0075860Y0183780D03*
X0074860Y0183740D03*
X0074860Y0184620D03*
X0074860Y0185620D03*
X0074940Y0182700D03*
X0075820Y0182700D03*
X0075860Y0181820D03*
X0075860Y0180780D03*
X0061180Y0185540D03*
X0061180Y0194420D03*
D232*
X0072020Y0192320D03*
X0074860Y0192160D03*
X0075860Y0194160D03*
X0079060Y0193640D03*
X0079180Y0191480D03*
X0079220Y0191480D03*
X0079260Y0191480D03*
X0079220Y0190280D03*
X0077860Y0190880D03*
X0074860Y0187560D03*
X0072020Y0187640D03*
X0074820Y0184680D03*
X0074380Y0183360D03*
X0075860Y0182720D03*
X0078020Y0182720D03*
X0078020Y0183760D03*
X0079060Y0185640D03*
X0079060Y0196080D03*
X0074820Y0199120D03*
D233*
X0075980Y0193660D03*
X0076020Y0193660D03*
X0076060Y0193660D03*
X0078620Y0193140D03*
X0078660Y0193140D03*
X0079140Y0193140D03*
X0079180Y0193140D03*
X0074820Y0187060D03*
X0074780Y0187060D03*
X0078620Y0185140D03*
X0078660Y0185140D03*
X0079180Y0185140D03*
X0079220Y0185140D03*
X0077940Y0183220D03*
X0077860Y0183220D03*
X0076020Y0183220D03*
X0075980Y0183220D03*
X0075940Y0183220D03*
X0074820Y0183220D03*
X0074780Y0183220D03*
X0074740Y0183220D03*
D234*
X0074860Y0182740D03*
X0074380Y0181300D03*
X0076380Y0181300D03*
X0077980Y0182740D03*
X0077980Y0183740D03*
X0075940Y0184700D03*
X0074820Y0185580D03*
X0074380Y0185140D03*
X0074860Y0186580D03*
X0075940Y0189300D03*
X0075940Y0190340D03*
X0076380Y0191660D03*
X0077940Y0190900D03*
X0079140Y0191500D03*
X0079140Y0190300D03*
X0079180Y0190300D03*
X0077980Y0188980D03*
X0077940Y0193620D03*
X0077940Y0196100D03*
X0076380Y0197020D03*
X0074860Y0196500D03*
X0074380Y0197020D03*
X0074380Y0198660D03*
X0074860Y0195140D03*
X0061220Y0194420D03*
X0061220Y0185540D03*
D235*
X0061620Y0185640D03*
X0061620Y0194320D03*
X0075180Y0198640D03*
X0075220Y0198640D03*
X0075260Y0198640D03*
X0075340Y0198640D03*
X0075380Y0198640D03*
X0075420Y0198640D03*
X0075460Y0198640D03*
X0075540Y0198640D03*
X0075580Y0198640D03*
X0075940Y0193640D03*
X0079140Y0185120D03*
D236*
X0079100Y0185120D03*
X0078700Y0185120D03*
X0076100Y0189760D03*
X0079100Y0193120D03*
X0075500Y0198640D03*
X0075300Y0198640D03*
D237*
X0077900Y0188500D03*
X0079100Y0188500D03*
D238*
X0079100Y0190280D03*
X0079100Y0191480D03*
X0075900Y0194120D03*
D239*
X0076100Y0197020D03*
X0076100Y0198740D03*
X0079100Y0196500D03*
X0074700Y0181300D03*
D240*
X0074420Y0183380D03*
X0076340Y0183380D03*
X0076380Y0185180D03*
X0074420Y0187180D03*
X0071980Y0187620D03*
X0071980Y0192340D03*
X0076340Y0193500D03*
X0074420Y0195740D03*
X0078060Y0190900D03*
X0079020Y0191500D03*
X0079020Y0190300D03*
X0079060Y0188060D03*
D241*
X0079060Y0190280D03*
X0079060Y0191480D03*
X0078020Y0190880D03*
X0077980Y0190880D03*
X0075620Y0190320D03*
X0074380Y0191680D03*
X0072660Y0185520D03*
X0076380Y0198720D03*
D242*
X0074820Y0198200D03*
X0078020Y0194600D03*
X0078020Y0189000D03*
X0079020Y0189000D03*
X0077980Y0188000D03*
X0078020Y0186600D03*
X0077940Y0185600D03*
X0074860Y0181800D03*
X0074860Y0180800D03*
D243*
X0072820Y0185500D03*
X0072140Y0187740D03*
X0074860Y0190300D03*
X0077460Y0188340D03*
X0077460Y0187260D03*
X0072140Y0192220D03*
X0072820Y0194460D03*
X0076420Y0193500D03*
X0077460Y0195260D03*
X0079020Y0196980D03*
D244*
X0078980Y0197000D03*
X0072180Y0192200D03*
X0075860Y0185600D03*
D245*
X0075820Y0185600D03*
X0078020Y0184720D03*
X0074940Y0190320D03*
X0078020Y0192720D03*
X0078940Y0197000D03*
X0075820Y0199160D03*
X0074860Y0195880D03*
D246*
X0078900Y0191500D03*
X0078900Y0190300D03*
X0077500Y0185100D03*
D247*
X0072900Y0185480D03*
X0072900Y0194480D03*
X0074900Y0195880D03*
X0078900Y0197000D03*
D248*
X0076340Y0197040D03*
X0076340Y0191680D03*
X0074420Y0191680D03*
X0078220Y0190880D03*
X0078260Y0190880D03*
X0078820Y0191480D03*
X0078860Y0191480D03*
X0078860Y0190280D03*
X0078820Y0190280D03*
X0074420Y0185120D03*
X0074420Y0181280D03*
D249*
X0072580Y0185540D03*
X0078780Y0190300D03*
X0078780Y0191500D03*
X0078740Y0191500D03*
D250*
X0078700Y0191480D03*
X0078700Y0190280D03*
D251*
X0078700Y0193140D03*
X0077900Y0183220D03*
D252*
X0075500Y0185120D03*
X0075300Y0185120D03*
X0078300Y0196520D03*
X0078500Y0196520D03*
X0078700Y0196520D03*
D253*
X0076420Y0197020D03*
X0074340Y0198660D03*
X0072780Y0194460D03*
X0077940Y0192740D03*
X0078340Y0191140D03*
X0078380Y0191140D03*
X0078620Y0191220D03*
X0078460Y0190620D03*
X0078420Y0190620D03*
X0078540Y0190580D03*
X0078580Y0190580D03*
X0078660Y0190540D03*
X0076420Y0185180D03*
D254*
X0077540Y0185100D03*
X0074460Y0181300D03*
X0074420Y0189820D03*
X0074460Y0191660D03*
X0077540Y0193140D03*
X0078660Y0191500D03*
X0074460Y0197020D03*
X0061340Y0194380D03*
X0061340Y0185580D03*
D255*
X0061660Y0185640D03*
X0061660Y0194320D03*
X0076020Y0189760D03*
X0075460Y0185120D03*
X0075420Y0185120D03*
X0075380Y0185120D03*
X0075340Y0185120D03*
X0075260Y0185120D03*
X0078340Y0196520D03*
X0078380Y0196520D03*
X0078420Y0196520D03*
X0078460Y0196520D03*
X0078540Y0196520D03*
X0078580Y0196520D03*
X0078620Y0196520D03*
X0078660Y0196520D03*
D256*
X0078500Y0191180D03*
X0072100Y0192260D03*
D257*
X0075220Y0189700D03*
X0077820Y0186940D03*
X0078340Y0185300D03*
X0074620Y0185140D03*
X0074620Y0181300D03*
X0076140Y0181300D03*
X0077660Y0193140D03*
X0078340Y0193300D03*
X0077860Y0194940D03*
X0077820Y0194940D03*
X0074660Y0195460D03*
X0074620Y0198660D03*
D258*
X0078300Y0193360D03*
X0078300Y0185360D03*
D259*
X0078300Y0190900D03*
D260*
X0078180Y0190900D03*
X0076340Y0181300D03*
D261*
X0078100Y0190880D03*
X0077500Y0193120D03*
D262*
X0078060Y0192720D03*
X0078020Y0195400D03*
X0075780Y0199160D03*
X0075780Y0185600D03*
X0078060Y0184720D03*
D263*
X0078020Y0187380D03*
X0075740Y0189220D03*
X0072220Y0187780D03*
X0072220Y0192180D03*
D264*
X0072860Y0194480D03*
X0077980Y0192720D03*
X0072180Y0187760D03*
X0072860Y0185480D03*
X0077980Y0184720D03*
X0075860Y0199160D03*
D265*
X0075940Y0198240D03*
X0077940Y0196960D03*
X0077540Y0195240D03*
X0077980Y0194640D03*
X0072660Y0194440D03*
X0077540Y0188360D03*
X0077540Y0187240D03*
X0077980Y0186640D03*
X0077540Y0183360D03*
D266*
X0077980Y0187380D03*
X0075780Y0189220D03*
X0077980Y0195380D03*
X0075820Y0197460D03*
X0074940Y0197460D03*
X0061020Y0194460D03*
X0061020Y0185500D03*
D267*
X0074340Y0185120D03*
X0074340Y0183360D03*
X0076420Y0183360D03*
X0077940Y0184720D03*
X0074340Y0187200D03*
X0075860Y0189240D03*
X0077540Y0190880D03*
X0077460Y0196520D03*
X0074860Y0197440D03*
X0074340Y0195760D03*
D268*
X0077940Y0194900D03*
X0077940Y0186900D03*
D269*
X0077940Y0188500D03*
D270*
X0077700Y0187000D03*
X0077900Y0185200D03*
X0077900Y0193200D03*
X0077700Y0195000D03*
D271*
X0077900Y0194920D03*
X0074500Y0189840D03*
X0077900Y0186920D03*
D272*
X0077900Y0196520D03*
D273*
X0077740Y0196520D03*
X0076220Y0198720D03*
X0074740Y0195440D03*
X0074580Y0191680D03*
X0076180Y0191680D03*
X0076260Y0189800D03*
X0077860Y0186920D03*
X0077620Y0185120D03*
X0076180Y0181280D03*
X0074580Y0181280D03*
X0061460Y0185600D03*
X0061460Y0194360D03*
D274*
X0074620Y0189880D03*
X0074740Y0191680D03*
X0076020Y0191680D03*
X0076220Y0193720D03*
X0077780Y0193120D03*
X0076060Y0198720D03*
X0074780Y0198680D03*
X0074780Y0185120D03*
X0075980Y0185120D03*
X0077780Y0185120D03*
D275*
X0077660Y0185120D03*
X0076180Y0185200D03*
X0077780Y0186960D03*
X0075460Y0189920D03*
X0075260Y0189760D03*
X0074620Y0191680D03*
X0076140Y0191680D03*
X0077780Y0194960D03*
X0077780Y0196520D03*
X0076180Y0198720D03*
X0074660Y0198680D03*
X0074620Y0195480D03*
D276*
X0074500Y0195520D03*
X0074700Y0198680D03*
X0074700Y0191680D03*
X0074500Y0186960D03*
X0074700Y0185120D03*
X0074500Y0183120D03*
X0077700Y0185120D03*
D277*
X0077700Y0196540D03*
D278*
X0077660Y0196520D03*
X0077580Y0193120D03*
X0076260Y0191680D03*
X0077580Y0185120D03*
D279*
X0076220Y0185180D03*
X0074580Y0185140D03*
X0072460Y0185580D03*
X0075180Y0189660D03*
X0075540Y0190020D03*
X0077620Y0193140D03*
X0074780Y0195420D03*
X0074540Y0197020D03*
X0074580Y0198660D03*
X0076220Y0197020D03*
X0072460Y0194380D03*
D280*
X0077620Y0196520D03*
X0075140Y0189560D03*
X0072540Y0185560D03*
D281*
X0072620Y0185540D03*
X0077580Y0187260D03*
X0072620Y0194420D03*
X0077580Y0195260D03*
X0074420Y0198660D03*
D282*
X0077580Y0190900D03*
X0072780Y0185500D03*
X0075340Y0180700D03*
X0075380Y0180700D03*
X0075420Y0180700D03*
X0075460Y0180700D03*
X0076420Y0181300D03*
D283*
X0075900Y0185600D03*
X0077500Y0190880D03*
X0061100Y0194440D03*
X0061100Y0185520D03*
D284*
X0077460Y0183360D03*
X0075860Y0197440D03*
D285*
X0074420Y0197020D03*
X0072580Y0194420D03*
X0076340Y0185180D03*
D286*
X0076340Y0189800D03*
X0072540Y0194400D03*
D287*
X0076300Y0197020D03*
X0076300Y0191660D03*
X0076300Y0181300D03*
D288*
X0074500Y0181300D03*
X0074500Y0185140D03*
X0076300Y0185180D03*
X0074500Y0198660D03*
D289*
X0074500Y0197020D03*
X0076300Y0189820D03*
D290*
X0076300Y0198720D03*
D291*
X0076260Y0197020D03*
X0074460Y0189860D03*
X0076260Y0185180D03*
X0076220Y0181300D03*
X0061420Y0185580D03*
X0061420Y0194380D03*
D292*
X0072300Y0194360D03*
X0076100Y0193680D03*
X0074700Y0187040D03*
X0072300Y0185600D03*
X0074700Y0183200D03*
X0076100Y0183200D03*
D293*
X0075580Y0185140D03*
X0075540Y0185140D03*
X0075220Y0185140D03*
X0075180Y0185140D03*
X0076060Y0189740D03*
X0072260Y0194340D03*
D294*
X0075980Y0189780D03*
X0072260Y0185620D03*
D295*
X0075900Y0181800D03*
X0075900Y0180800D03*
X0075900Y0191200D03*
D296*
X0075900Y0193140D03*
X0075900Y0196500D03*
X0075900Y0182740D03*
D297*
X0075900Y0199140D03*
D298*
X0075820Y0189220D03*
X0061060Y0185500D03*
X0061060Y0194460D03*
D299*
X0074980Y0197460D03*
X0075780Y0197460D03*
D300*
X0075740Y0197460D03*
X0075020Y0197460D03*
X0074980Y0190340D03*
D301*
X0075700Y0189220D03*
D302*
X0075500Y0189980D03*
D303*
X0074900Y0190300D03*
D304*
X0074900Y0197440D03*
D305*
X0074700Y0195460D03*
D306*
X0074500Y0191680D03*
D307*
X0072500Y0194400D03*
X0072500Y0185560D03*
D308*
X0072220Y0185620D03*
X0072220Y0194340D03*
D309*
X0072180Y0185640D03*
D310*
X0072180Y0194320D03*
D311*
X0072140Y0194320D03*
X0072140Y0185640D03*
D312*
X0072100Y0185660D03*
X0072100Y0194300D03*
D313*
X0072060Y0194300D03*
X0072060Y0185660D03*
X0059820Y0189980D03*
X0059780Y0189980D03*
X0059740Y0189980D03*
X0059660Y0189980D03*
X0059620Y0189980D03*
D314*
X0072020Y0185680D03*
X0072020Y0194280D03*
D315*
X0071980Y0194280D03*
X0071980Y0185680D03*
D316*
X0071940Y0185700D03*
X0071940Y0194260D03*
D317*
X0071900Y0194260D03*
X0071900Y0185700D03*
X0060700Y0189980D03*
D318*
X0061300Y0185560D03*
X0061300Y0194400D03*
X0071900Y0192400D03*
X0071900Y0187560D03*
D319*
X0071860Y0186200D03*
X0071860Y0193760D03*
D320*
X0071820Y0193780D03*
X0071820Y0186180D03*
D321*
X0071780Y0186180D03*
X0071780Y0193780D03*
X0061740Y0189980D03*
D322*
X0069780Y0186960D03*
X0069820Y0186960D03*
X0069860Y0186960D03*
X0069940Y0186920D03*
X0069980Y0186880D03*
X0070020Y0186880D03*
X0071740Y0186160D03*
X0069940Y0193040D03*
X0069980Y0193080D03*
X0070020Y0193080D03*
X0070060Y0193120D03*
D323*
X0069860Y0193000D03*
X0069820Y0193000D03*
X0069780Y0193000D03*
X0071740Y0193800D03*
D324*
X0071700Y0193800D03*
X0070300Y0193240D03*
X0069700Y0193000D03*
X0069700Y0186960D03*
X0071700Y0186160D03*
D325*
X0071660Y0186140D03*
X0070460Y0186620D03*
X0070420Y0186660D03*
X0070340Y0186700D03*
X0069660Y0186980D03*
X0069620Y0186980D03*
X0069620Y0192980D03*
X0069660Y0192980D03*
X0070340Y0193260D03*
X0070420Y0193300D03*
X0070460Y0193340D03*
X0071660Y0193820D03*
D326*
X0071620Y0193840D03*
X0070660Y0193440D03*
X0070580Y0193400D03*
X0070540Y0193360D03*
X0069580Y0193000D03*
X0069580Y0186960D03*
X0070540Y0186600D03*
X0070580Y0186560D03*
X0070660Y0186520D03*
X0071620Y0186120D03*
D327*
X0071580Y0186120D03*
X0070940Y0186360D03*
X0070860Y0186400D03*
X0070820Y0186440D03*
X0068380Y0186520D03*
X0065460Y0186600D03*
X0065460Y0193360D03*
X0068380Y0193440D03*
X0070820Y0193520D03*
X0070860Y0193560D03*
X0070940Y0193600D03*
X0071580Y0193840D03*
D328*
X0071540Y0193860D03*
X0071140Y0193700D03*
X0071060Y0193660D03*
X0065420Y0193340D03*
X0068420Y0186540D03*
X0070980Y0186340D03*
X0071020Y0186340D03*
X0071060Y0186300D03*
X0071140Y0186260D03*
X0071540Y0186100D03*
D329*
X0071500Y0186120D03*
X0071100Y0186280D03*
X0071100Y0193680D03*
X0071500Y0193840D03*
D330*
X0071460Y0193860D03*
X0071420Y0193860D03*
X0071380Y0193820D03*
X0071340Y0193820D03*
X0069380Y0192980D03*
X0069340Y0192980D03*
X0068540Y0193300D03*
X0065540Y0193500D03*
X0065380Y0193300D03*
X0065340Y0193260D03*
X0061820Y0189980D03*
X0065340Y0186700D03*
X0065380Y0186660D03*
X0065540Y0186460D03*
X0068540Y0186660D03*
X0069340Y0186980D03*
X0069380Y0186980D03*
X0071340Y0186140D03*
X0071380Y0186140D03*
X0071420Y0186100D03*
X0071460Y0186100D03*
D331*
X0071300Y0186180D03*
X0068500Y0186620D03*
X0068500Y0193340D03*
X0071300Y0193780D03*
D332*
X0071260Y0193760D03*
X0071220Y0193760D03*
X0071180Y0193720D03*
X0068340Y0193520D03*
X0068340Y0186440D03*
X0071180Y0186240D03*
X0071220Y0186200D03*
X0071260Y0186200D03*
D333*
X0069460Y0186980D03*
X0069420Y0186980D03*
X0068460Y0186580D03*
X0065420Y0186620D03*
X0068460Y0193380D03*
X0068420Y0193420D03*
X0069420Y0192980D03*
X0069460Y0192980D03*
X0070980Y0193620D03*
X0071020Y0193620D03*
D334*
X0070900Y0193560D03*
X0069500Y0193000D03*
X0065500Y0193400D03*
X0065500Y0186560D03*
X0069500Y0186960D03*
X0070900Y0186400D03*
D335*
X0070780Y0186460D03*
X0070740Y0186460D03*
X0070620Y0186540D03*
X0069540Y0186980D03*
X0069540Y0192980D03*
X0070620Y0193420D03*
X0061780Y0189980D03*
D336*
X0070740Y0193500D03*
X0070780Y0193500D03*
D337*
X0070700Y0186500D03*
D338*
X0070700Y0193460D03*
D339*
X0070500Y0193340D03*
X0070500Y0186620D03*
D340*
X0070380Y0186680D03*
X0070380Y0193280D03*
D341*
X0070300Y0186720D03*
D342*
X0070260Y0186740D03*
X0070180Y0186780D03*
X0070140Y0186820D03*
X0070060Y0186860D03*
X0069740Y0186980D03*
X0069740Y0192980D03*
X0070140Y0193140D03*
X0070180Y0193180D03*
X0070260Y0193220D03*
D343*
X0070220Y0193200D03*
X0070220Y0186760D03*
D344*
X0070100Y0186820D03*
X0070100Y0193140D03*
D345*
X0069900Y0193020D03*
X0069900Y0186940D03*
D346*
X0069300Y0186960D03*
X0065300Y0186720D03*
X0065300Y0193240D03*
D347*
X0069300Y0193000D03*
D348*
X0069260Y0192980D03*
X0069220Y0192980D03*
X0068620Y0193220D03*
X0065260Y0193180D03*
X0065260Y0186780D03*
X0068620Y0186740D03*
X0069220Y0186980D03*
X0069260Y0186980D03*
D349*
X0069180Y0186980D03*
X0069140Y0186980D03*
X0065580Y0186340D03*
X0065220Y0186820D03*
X0065180Y0186860D03*
X0065180Y0193100D03*
X0065220Y0193140D03*
X0065580Y0193620D03*
X0069140Y0192980D03*
X0069180Y0192980D03*
D350*
X0069100Y0193000D03*
X0069100Y0186960D03*
D351*
X0069060Y0186980D03*
X0069020Y0186980D03*
X0068780Y0186860D03*
X0069020Y0192980D03*
X0069060Y0192980D03*
X0065140Y0193060D03*
X0061860Y0189980D03*
D352*
X0065620Y0186220D03*
X0068940Y0186980D03*
X0068980Y0186980D03*
X0068980Y0192980D03*
X0068940Y0192980D03*
X0068860Y0193020D03*
X0068260Y0193780D03*
D353*
X0068900Y0186940D03*
X0065100Y0186940D03*
D354*
X0065100Y0193020D03*
X0068900Y0193020D03*
D355*
X0065620Y0193740D03*
X0068860Y0186940D03*
D356*
X0068820Y0186920D03*
X0068820Y0193040D03*
D357*
X0068780Y0193100D03*
X0065140Y0186900D03*
D358*
X0068740Y0186840D03*
X0068740Y0193120D03*
D359*
X0068700Y0193180D03*
X0068700Y0186780D03*
D360*
X0068660Y0186760D03*
X0068660Y0193200D03*
D361*
X0068580Y0193280D03*
X0068580Y0186680D03*
D362*
X0068300Y0186320D03*
D363*
X0068300Y0193640D03*
D364*
X0068260Y0186200D03*
D365*
X0068220Y0186080D03*
X0065660Y0186080D03*
X0065020Y0187080D03*
X0065020Y0192880D03*
X0065660Y0193880D03*
X0068220Y0193880D03*
D366*
X0068180Y0185940D03*
D367*
X0068180Y0194020D03*
D368*
X0068140Y0194140D03*
X0065740Y0194100D03*
X0065740Y0185860D03*
X0068140Y0185820D03*
D369*
X0068100Y0185700D03*
D370*
X0068100Y0194260D03*
D371*
X0068060Y0194380D03*
X0067340Y0194700D03*
X0067260Y0194700D03*
X0067220Y0194700D03*
X0067180Y0194700D03*
X0067140Y0194700D03*
X0066740Y0194700D03*
X0066660Y0194700D03*
X0066620Y0194700D03*
X0066580Y0194700D03*
X0066540Y0194700D03*
X0068060Y0185580D03*
X0067340Y0185260D03*
X0067260Y0185260D03*
X0067220Y0185260D03*
X0067180Y0185260D03*
X0067140Y0185260D03*
X0066740Y0185260D03*
X0066660Y0185260D03*
X0066620Y0185260D03*
X0066580Y0185260D03*
X0066540Y0185260D03*
D372*
X0066140Y0185340D03*
X0067780Y0185340D03*
X0067820Y0185340D03*
X0067980Y0185420D03*
X0068020Y0185460D03*
X0067980Y0194540D03*
X0067820Y0194620D03*
X0067780Y0194620D03*
X0066140Y0194620D03*
D373*
X0068020Y0194500D03*
D374*
X0067940Y0194560D03*
X0067860Y0194600D03*
X0066060Y0194600D03*
X0066020Y0194600D03*
X0065980Y0194560D03*
X0065940Y0194560D03*
X0065940Y0185400D03*
X0065980Y0185400D03*
X0066020Y0185360D03*
X0066060Y0185360D03*
X0067860Y0185360D03*
X0067940Y0185400D03*
D375*
X0067900Y0185380D03*
X0066100Y0185340D03*
X0066100Y0194620D03*
X0067900Y0194580D03*
D376*
X0067740Y0194640D03*
X0067660Y0194640D03*
X0066220Y0194640D03*
X0066180Y0194640D03*
X0065860Y0194480D03*
X0065860Y0185480D03*
X0066180Y0185320D03*
X0066220Y0185320D03*
X0067660Y0185320D03*
X0067740Y0185320D03*
D377*
X0067700Y0185320D03*
X0067700Y0194640D03*
D378*
X0067620Y0194660D03*
X0067580Y0194660D03*
X0067540Y0194660D03*
X0066340Y0194660D03*
X0066260Y0194660D03*
X0066260Y0185300D03*
X0066340Y0185300D03*
X0067540Y0185300D03*
X0067580Y0185300D03*
X0067620Y0185300D03*
D379*
X0067500Y0185280D03*
X0066500Y0185280D03*
X0066500Y0194680D03*
X0067500Y0194680D03*
D380*
X0067460Y0194680D03*
X0067420Y0194680D03*
X0067380Y0194680D03*
X0066460Y0194680D03*
X0066420Y0194680D03*
X0066380Y0194680D03*
X0066380Y0185280D03*
X0066420Y0185280D03*
X0066460Y0185280D03*
X0067380Y0185280D03*
X0067420Y0185280D03*
X0067460Y0185280D03*
D381*
X0067300Y0185260D03*
X0067100Y0185260D03*
X0066700Y0185260D03*
X0066700Y0194700D03*
X0067100Y0194700D03*
X0067300Y0194700D03*
D382*
X0067060Y0194720D03*
X0067020Y0194720D03*
X0066980Y0194720D03*
X0066940Y0194720D03*
X0066860Y0194720D03*
X0066820Y0194720D03*
X0066780Y0194720D03*
X0065820Y0194360D03*
X0066780Y0185240D03*
X0066820Y0185240D03*
X0066860Y0185240D03*
X0066940Y0185240D03*
X0066980Y0185240D03*
X0067020Y0185240D03*
X0067060Y0185240D03*
D383*
X0066900Y0185240D03*
X0066900Y0194720D03*
D384*
X0066300Y0194660D03*
X0066300Y0185300D03*
D385*
X0065900Y0185440D03*
X0065900Y0194520D03*
D386*
X0065820Y0185600D03*
D387*
X0065780Y0185720D03*
X0065780Y0194240D03*
D388*
X0065700Y0193980D03*
X0065700Y0185980D03*
D389*
X0065060Y0187020D03*
X0065060Y0192940D03*
D390*
X0064980Y0192780D03*
X0064980Y0187180D03*
D391*
X0064940Y0189980D03*
X0063580Y0189980D03*
D392*
X0064900Y0189980D03*
D393*
X0064860Y0189980D03*
X0063660Y0189980D03*
X0063620Y0189980D03*
D394*
X0064740Y0189980D03*
X0064780Y0189980D03*
X0064820Y0189980D03*
D395*
X0064700Y0189980D03*
D396*
X0064660Y0189980D03*
X0063780Y0189980D03*
X0063740Y0189980D03*
D397*
X0063820Y0189980D03*
X0064580Y0189980D03*
X0064620Y0189980D03*
D398*
X0064540Y0189980D03*
X0064460Y0189980D03*
X0063860Y0189980D03*
D399*
X0063900Y0189980D03*
X0064500Y0189980D03*
D400*
X0064420Y0189980D03*
X0064380Y0189980D03*
X0063940Y0189980D03*
D401*
X0063980Y0189980D03*
X0064020Y0189980D03*
X0064340Y0189980D03*
D402*
X0064300Y0189980D03*
D403*
X0064260Y0189980D03*
X0064220Y0189980D03*
X0064180Y0189980D03*
X0064060Y0189980D03*
D404*
X0064140Y0189980D03*
D405*
X0064100Y0189980D03*
D406*
X0063700Y0189980D03*
D407*
X0063540Y0189980D03*
D408*
X0063500Y0189980D03*
D409*
X0063460Y0189980D03*
D410*
X0063420Y0189980D03*
D411*
X0063380Y0189980D03*
X0063340Y0189980D03*
D412*
X0063300Y0189980D03*
D413*
X0063260Y0189980D03*
X0063220Y0189980D03*
D414*
X0063180Y0189980D03*
D415*
X0063140Y0189980D03*
D416*
X0063100Y0189980D03*
D417*
X0063060Y0189980D03*
D418*
X0063020Y0189980D03*
X0062980Y0189980D03*
D419*
X0062940Y0189980D03*
D420*
X0062900Y0189980D03*
D421*
X0062860Y0189980D03*
X0062140Y0189980D03*
D422*
X0062180Y0189980D03*
X0062820Y0189980D03*
D423*
X0062780Y0189980D03*
X0062220Y0189980D03*
D424*
X0062260Y0189980D03*
X0062740Y0189980D03*
D425*
X0062700Y0189980D03*
D426*
X0062660Y0189980D03*
D427*
X0062620Y0189980D03*
X0062580Y0189980D03*
X0062340Y0189980D03*
D428*
X0062380Y0189980D03*
X0062420Y0189980D03*
X0062540Y0189980D03*
D429*
X0062500Y0189980D03*
D430*
X0062460Y0189980D03*
D431*
X0062300Y0189980D03*
D432*
X0062100Y0189980D03*
D433*
X0061260Y0189980D03*
X0061220Y0189980D03*
X0061180Y0189980D03*
X0061140Y0189980D03*
X0062060Y0185740D03*
X0062060Y0194220D03*
D434*
X0062060Y0189980D03*
D435*
X0062020Y0185720D03*
X0062020Y0194240D03*
D436*
X0062020Y0189980D03*
D437*
X0061980Y0185720D03*
X0061980Y0194240D03*
D438*
X0061980Y0189980D03*
D439*
X0061940Y0185700D03*
D440*
X0061940Y0189980D03*
D441*
X0060460Y0189980D03*
X0060420Y0189980D03*
X0060380Y0189980D03*
X0060340Y0189980D03*
X0060260Y0189980D03*
X0061940Y0194260D03*
D442*
X0061900Y0194260D03*
X0060100Y0189980D03*
X0061900Y0185700D03*
D443*
X0061900Y0189980D03*
D444*
X0060020Y0189980D03*
X0059980Y0189980D03*
X0059940Y0189980D03*
X0059860Y0189980D03*
X0061860Y0185700D03*
D445*
X0061860Y0194280D03*
D446*
X0061820Y0194280D03*
X0061820Y0185680D03*
D447*
X0061780Y0185680D03*
X0061780Y0194280D03*
D448*
X0061740Y0194300D03*
X0061740Y0185660D03*
D449*
X0061700Y0185660D03*
X0061700Y0194300D03*
D450*
X0061700Y0189980D03*
D451*
X0061660Y0189980D03*
D452*
X0061620Y0189980D03*
D453*
X0061580Y0189980D03*
D454*
X0061540Y0189980D03*
D455*
X0061500Y0185600D03*
X0061500Y0194360D03*
D456*
X0061500Y0189980D03*
D457*
X0061460Y0189980D03*
X0061420Y0189980D03*
X0061380Y0189980D03*
X0061340Y0189980D03*
D458*
X0061300Y0189980D03*
D459*
X0061100Y0189980D03*
X0060900Y0189980D03*
D460*
X0060940Y0189980D03*
X0060980Y0189980D03*
X0061020Y0189980D03*
X0061060Y0189980D03*
D461*
X0060860Y0189980D03*
X0060820Y0189980D03*
X0060780Y0189980D03*
X0060740Y0189980D03*
D462*
X0060660Y0189980D03*
X0060620Y0189980D03*
X0060580Y0189980D03*
X0060540Y0189980D03*
D463*
X0060500Y0189980D03*
D464*
X0060300Y0189980D03*
D465*
X0060220Y0189980D03*
X0060180Y0189980D03*
X0060140Y0189980D03*
X0060060Y0189980D03*
D466*
X0059900Y0189980D03*
D467*
X0059700Y0189980D03*
D468*
X0059580Y0189980D03*
M02*
