G75*
%MOIN*%
%OFA0B0*%
%FSLAX25Y25*%
%IPPOS*%
%LPD*%
%AMOC8*
5,1,8,0,0,1.08239X$1,22.5*
%
%ADD10C,0.00400*%
%ADD11C,0.00500*%
%ADD12C,0.00000*%
%ADD13C,0.00300*%
%ADD14C,0.00200*%
%ADD15R,0.00770X0.00035*%
%ADD16R,0.01400X0.00035*%
%ADD17R,0.01855X0.00035*%
%ADD18R,0.02170X0.00035*%
%ADD19R,0.02485X0.00035*%
%ADD20R,0.02765X0.00035*%
%ADD21R,0.02975X0.00035*%
%ADD22R,0.03220X0.00035*%
%ADD23R,0.03395X0.00035*%
%ADD24R,0.03605X0.00035*%
%ADD25R,0.03780X0.00035*%
%ADD26R,0.03955X0.00035*%
%ADD27R,0.04130X0.00035*%
%ADD28R,0.04270X0.00035*%
%ADD29R,0.04375X0.00035*%
%ADD30R,0.04550X0.00035*%
%ADD31R,0.04690X0.00035*%
%ADD32R,0.04865X0.00035*%
%ADD33R,0.04970X0.00035*%
%ADD34R,0.05110X0.00035*%
%ADD35R,0.05215X0.00035*%
%ADD36R,0.05355X0.00035*%
%ADD37R,0.05460X0.00035*%
%ADD38R,0.05600X0.00035*%
%ADD39R,0.05705X0.00035*%
%ADD40R,0.05810X0.00035*%
%ADD41R,0.05915X0.00035*%
%ADD42R,0.06055X0.00035*%
%ADD43R,0.06160X0.00035*%
%ADD44R,0.06265X0.00035*%
%ADD45R,0.06335X0.00035*%
%ADD46R,0.06440X0.00035*%
%ADD47R,0.06545X0.00035*%
%ADD48R,0.03080X0.00035*%
%ADD49R,0.02660X0.00035*%
%ADD50R,0.02870X0.00035*%
%ADD51R,0.02415X0.00035*%
%ADD52R,0.02730X0.00035*%
%ADD53R,0.02310X0.00035*%
%ADD54R,0.02695X0.00035*%
%ADD55R,0.02170X0.00035*%
%ADD56R,0.02590X0.00035*%
%ADD57R,0.02100X0.00035*%
%ADD58R,0.02520X0.00035*%
%ADD59R,0.02030X0.00035*%
%ADD60R,0.02450X0.00035*%
%ADD61R,0.01960X0.00035*%
%ADD62R,0.01890X0.00035*%
%ADD63R,0.02380X0.00035*%
%ADD64R,0.01785X0.00035*%
%ADD65R,0.01750X0.00035*%
%ADD66R,0.01715X0.00035*%
%ADD67R,0.02275X0.00035*%
%ADD68R,0.01645X0.00035*%
%ADD69R,0.02240X0.00035*%
%ADD70R,0.01610X0.00035*%
%ADD71R,0.02240X0.00035*%
%ADD72R,0.01575X0.00035*%
%ADD73R,0.01540X0.00035*%
%ADD74R,0.02205X0.00035*%
%ADD75R,0.01505X0.00035*%
%ADD76R,0.01470X0.00035*%
%ADD77R,0.01435X0.00035*%
%ADD78R,0.01365X0.00035*%
%ADD79R,0.01330X0.00035*%
%ADD80R,0.01295X0.00035*%
%ADD81R,0.01295X0.00035*%
%ADD82R,0.01260X0.00035*%
%ADD83R,0.01190X0.00035*%
%ADD84R,0.01225X0.00035*%
%ADD85R,0.00385X0.00035*%
%ADD86R,0.00980X0.00035*%
%ADD87R,0.01155X0.00035*%
%ADD88R,0.01645X0.00035*%
%ADD89R,0.01015X0.00035*%
%ADD90R,0.01050X0.00035*%
%ADD91R,0.02345X0.00035*%
%ADD92R,0.01085X0.00035*%
%ADD93R,0.02905X0.00035*%
%ADD94R,0.03045X0.00035*%
%ADD95R,0.01120X0.00035*%
%ADD96R,0.02345X0.00035*%
%ADD97R,0.03255X0.00035*%
%ADD98R,0.01120X0.00035*%
%ADD99R,0.03500X0.00035*%
%ADD100R,0.02415X0.00035*%
%ADD101R,0.03640X0.00035*%
%ADD102R,0.04900X0.00035*%
%ADD103R,0.04935X0.00035*%
%ADD104R,0.05005X0.00035*%
%ADD105R,0.01680X0.00035*%
%ADD106R,0.02065X0.00035*%
%ADD107R,0.02555X0.00035*%
%ADD108R,0.02590X0.00035*%
%ADD109R,0.02625X0.00035*%
%ADD110R,0.02695X0.00035*%
%ADD111R,0.01470X0.00035*%
%ADD112R,0.02765X0.00035*%
%ADD113R,0.02800X0.00035*%
%ADD114R,0.02835X0.00035*%
%ADD115R,0.01365X0.00035*%
%ADD116R,0.02940X0.00035*%
%ADD117R,0.03010X0.00035*%
%ADD118R,0.03045X0.00035*%
%ADD119R,0.03115X0.00035*%
%ADD120R,0.03150X0.00035*%
%ADD121R,0.03185X0.00035*%
%ADD122R,0.03220X0.00035*%
%ADD123R,0.01190X0.00035*%
%ADD124R,0.03290X0.00035*%
%ADD125R,0.03325X0.00035*%
%ADD126R,0.03360X0.00035*%
%ADD127R,0.03430X0.00035*%
%ADD128R,0.03465X0.00035*%
%ADD129R,0.03535X0.00035*%
%ADD130R,0.03570X0.00035*%
%ADD131R,0.03675X0.00035*%
%ADD132R,0.03710X0.00035*%
%ADD133R,0.03745X0.00035*%
%ADD134R,0.03815X0.00035*%
%ADD135R,0.03850X0.00035*%
%ADD136R,0.03885X0.00035*%
%ADD137R,0.03920X0.00035*%
%ADD138R,0.03990X0.00035*%
%ADD139R,0.04025X0.00035*%
%ADD140R,0.02870X0.00035*%
%ADD141R,0.04095X0.00035*%
%ADD142R,0.04165X0.00035*%
%ADD143R,0.04200X0.00035*%
%ADD144R,0.04235X0.00035*%
%ADD145R,0.04270X0.00035*%
%ADD146R,0.01820X0.00035*%
%ADD147R,0.04305X0.00035*%
%ADD148R,0.04340X0.00035*%
%ADD149R,0.01925X0.00035*%
%ADD150R,0.04410X0.00035*%
%ADD151R,0.00945X0.00035*%
%ADD152R,0.00875X0.00035*%
%ADD153R,0.00840X0.00035*%
%ADD154R,0.02135X0.00035*%
%ADD155R,0.00805X0.00035*%
%ADD156R,0.00735X0.00035*%
%ADD157R,0.01995X0.00035*%
%ADD158R,0.02520X0.00035*%
%ADD159R,0.01540X0.00035*%
%ADD160R,0.00770X0.00035*%
%ADD161R,0.00665X0.00035*%
%ADD162R,0.00420X0.00035*%
%ADD163R,0.00910X0.00035*%
%ADD164R,0.04060X0.00035*%
%ADD165R,0.01015X0.00035*%
%ADD166R,0.03115X0.00035*%
%ADD167R,0.03395X0.00035*%
%ADD168R,0.03745X0.00035*%
%ADD169R,0.04340X0.00035*%
%ADD170R,0.04480X0.00035*%
%ADD171R,0.02065X0.00035*%
%ADD172R,0.04515X0.00035*%
%ADD173R,0.04585X0.00035*%
%ADD174R,0.04760X0.00035*%
%ADD175R,0.04830X0.00035*%
%ADD176R,0.07805X0.00035*%
%ADD177R,0.07840X0.00035*%
%ADD178R,0.07875X0.00035*%
%ADD179R,0.07910X0.00035*%
%ADD180R,0.07945X0.00035*%
%ADD181R,0.07980X0.00035*%
%ADD182R,0.08015X0.00035*%
%ADD183R,0.08050X0.00035*%
%ADD184R,0.05635X0.00035*%
%ADD185R,0.01995X0.00035*%
%ADD186R,0.01890X0.00035*%
%ADD187R,0.01715X0.00035*%
%ADD188R,0.00945X0.00035*%
%ADD189R,0.00560X0.00035*%
%ADD190R,0.01820X0.00035*%
%ADD191R,0.00700X0.00035*%
%ADD192R,0.00630X0.00035*%
%ADD193R,0.00525X0.00035*%
%ADD194R,0.00175X0.00035*%
%ADD195R,0.00595X0.00035*%
%ADD196R,0.00490X0.00035*%
%ADD197R,0.00210X0.00035*%
%ADD198R,0.00490X0.00035*%
%ADD199R,0.00315X0.00035*%
%ADD200R,0.00520X0.00040*%
%ADD201R,0.00520X0.00040*%
%ADD202R,0.00760X0.00040*%
%ADD203R,0.00640X0.00040*%
%ADD204R,0.00440X0.00040*%
%ADD205R,0.00480X0.00040*%
%ADD206R,0.00520X0.00040*%
%ADD207R,0.00520X0.00040*%
%ADD208R,0.01400X0.00040*%
%ADD209R,0.00800X0.00040*%
%ADD210R,0.00480X0.00040*%
%ADD211R,0.00960X0.00040*%
%ADD212R,0.01440X0.00040*%
%ADD213R,0.01080X0.00040*%
%ADD214R,0.01520X0.00040*%
%ADD215R,0.01440X0.00040*%
%ADD216R,0.00560X0.00040*%
%ADD217R,0.01480X0.00040*%
%ADD218R,0.01200X0.00040*%
%ADD219R,0.01560X0.00040*%
%ADD220R,0.01320X0.00040*%
%ADD221R,0.01560X0.00040*%
%ADD222R,0.01520X0.00040*%
%ADD223R,0.00600X0.00040*%
%ADD224R,0.00560X0.00040*%
%ADD225R,0.01400X0.00040*%
%ADD226R,0.01600X0.00040*%
%ADD227R,0.00600X0.00040*%
%ADD228R,0.00640X0.00040*%
%ADD229R,0.01640X0.00040*%
%ADD230R,0.00680X0.00040*%
%ADD231R,0.01680X0.00040*%
%ADD232R,0.01680X0.00040*%
%ADD233R,0.01640X0.00040*%
%ADD234R,0.00720X0.00040*%
%ADD235R,0.01480X0.00040*%
%ADD236R,0.00760X0.00040*%
%ADD237R,0.00720X0.00040*%
%ADD238R,0.00640X0.00040*%
%ADD239R,0.00360X0.00040*%
%ADD240R,0.00240X0.00040*%
%ADD241R,0.00160X0.00040*%
%ADD242R,0.00840X0.00040*%
%ADD243R,0.00080X0.00040*%
%ADD244R,0.00880X0.00040*%
%ADD245R,0.00920X0.00040*%
%ADD246R,0.00960X0.00040*%
%ADD247R,0.01640X0.00040*%
%ADD248R,0.01760X0.00040*%
%ADD249R,0.00440X0.00040*%
%ADD250R,0.01000X0.00040*%
%ADD251R,0.01760X0.00040*%
%ADD252R,0.00440X0.00040*%
%ADD253R,0.01320X0.00040*%
%ADD254R,0.01200X0.00040*%
%ADD255R,0.00920X0.00040*%
%ADD256R,0.00840X0.00040*%
%ADD257R,0.00800X0.00040*%
%ADD258R,0.00080X0.00040*%
%ADD259R,0.00120X0.00040*%
%ADD260R,0.00240X0.00040*%
%ADD261R,0.00720X0.00040*%
%ADD262R,0.00200X0.00040*%
%ADD263R,0.00400X0.00040*%
%ADD264R,0.01240X0.00040*%
%ADD265R,0.01640X0.00040*%
%ADD266R,0.01440X0.00040*%
%ADD267R,0.01280X0.00040*%
%ADD268R,0.01520X0.00040*%
%ADD269R,0.01280X0.00040*%
%ADD270R,0.01520X0.00040*%
%ADD271R,0.01360X0.00040*%
%ADD272R,0.01440X0.00040*%
%ADD273R,0.01240X0.00040*%
%ADD274R,0.01120X0.00040*%
%ADD275R,0.01240X0.00040*%
%ADD276R,0.01040X0.00040*%
%ADD277R,0.00840X0.00040*%
%ADD278R,0.00440X0.00040*%
%ADD279R,0.00400X0.00040*%
%ADD280R,0.00320X0.00040*%
%ADD281R,0.00920X0.00040*%
%ADD282R,0.01040X0.00040*%
%ADD283R,0.01000X0.00040*%
%ADD284R,0.01080X0.00040*%
%ADD285R,0.01160X0.00040*%
%ADD286R,0.01040X0.00040*%
%ADD287R,0.01160X0.00040*%
%ADD288R,0.01600X0.00040*%
%ADD289R,0.01720X0.00040*%
%ADD290R,0.01720X0.00040*%
%ADD291R,0.00640X0.00040*%
%ADD292R,0.00680X0.00040*%
%ADD293R,0.00360X0.00040*%
%ADD294R,0.00280X0.00040*%
%ADD295R,0.00120X0.00040*%
%ADD296R,0.00040X0.00040*%
%ADD297R,0.00040X0.00040*%
%ADD298R,0.01320X0.00040*%
%ADD299R,0.00280X0.00040*%
%ADD300R,0.00320X0.00040*%
%ADD301R,0.01320X0.00040*%
%ADD302R,0.01120X0.00040*%
%ADD303R,0.01120X0.00040*%
%ADD304R,0.01800X0.00040*%
%ADD305R,0.01920X0.00040*%
%ADD306R,0.01920X0.00040*%
%ADD307R,0.02000X0.00040*%
%ADD308R,0.02120X0.00040*%
%ADD309R,0.02200X0.00040*%
%ADD310R,0.02320X0.00040*%
%ADD311R,0.02400X0.00040*%
%ADD312R,0.02520X0.00040*%
%ADD313R,0.02600X0.00040*%
%ADD314R,0.00880X0.00040*%
%ADD315R,0.03680X0.00040*%
%ADD316R,0.03720X0.00040*%
%ADD317R,0.03800X0.00040*%
%ADD318R,0.03840X0.00040*%
%ADD319R,0.03840X0.00040*%
%ADD320R,0.03920X0.00040*%
%ADD321R,0.03960X0.00040*%
%ADD322R,0.04000X0.00040*%
%ADD323R,0.04080X0.00040*%
%ADD324R,0.04120X0.00040*%
%ADD325R,0.04160X0.00040*%
%ADD326R,0.04200X0.00040*%
%ADD327R,0.04200X0.00040*%
%ADD328R,0.04160X0.00040*%
%ADD329R,0.04120X0.00040*%
%ADD330R,0.04080X0.00040*%
%ADD331R,0.04040X0.00040*%
%ADD332R,0.04040X0.00040*%
%ADD333R,0.04040X0.00040*%
%ADD334R,0.04040X0.00040*%
%ADD335R,0.03960X0.00040*%
%ADD336R,0.03920X0.00040*%
%ADD337R,0.03920X0.00040*%
%ADD338R,0.03880X0.00040*%
%ADD339R,0.03920X0.00040*%
%ADD340R,0.03880X0.00040*%
%ADD341R,0.03800X0.00040*%
%ADD342R,0.04240X0.00040*%
%ADD343R,0.04240X0.00040*%
%ADD344R,0.04280X0.00040*%
%ADD345R,0.04360X0.00040*%
%ADD346R,0.04400X0.00040*%
%ADD347R,0.04440X0.00040*%
%ADD348R,0.04520X0.00040*%
%ADD349R,0.04520X0.00040*%
%ADD350R,0.04520X0.00040*%
%ADD351R,0.04520X0.00040*%
%ADD352R,0.04480X0.00040*%
%ADD353R,0.04440X0.00040*%
%ADD354R,0.04400X0.00040*%
%ADD355R,0.04360X0.00040*%
%ADD356R,0.04320X0.00040*%
%ADD357R,0.04240X0.00040*%
%ADD358R,0.04320X0.00040*%
%ADD359R,0.04320X0.00040*%
%ADD360R,0.04560X0.00040*%
%ADD361R,0.04720X0.00040*%
%ADD362R,0.04920X0.00040*%
%ADD363R,0.04920X0.00040*%
%ADD364R,0.05080X0.00040*%
%ADD365R,0.05240X0.00040*%
%ADD366R,0.05240X0.00040*%
%ADD367R,0.05480X0.00040*%
%ADD368R,0.05640X0.00040*%
%ADD369R,0.05640X0.00040*%
%ADD370R,0.05680X0.00040*%
%ADD371R,0.05640X0.00040*%
%ADD372R,0.05600X0.00040*%
%ADD373R,0.05600X0.00040*%
%ADD374R,0.05560X0.00040*%
%ADD375R,0.05520X0.00040*%
%ADD376R,0.05520X0.00040*%
%ADD377R,0.05480X0.00040*%
%ADD378R,0.05440X0.00040*%
%ADD379R,0.05440X0.00040*%
%ADD380R,0.05560X0.00040*%
%ADD381R,0.05680X0.00040*%
%ADD382R,0.05440X0.00040*%
%ADD383R,0.05280X0.00040*%
%ADD384R,0.04920X0.00040*%
%ADD385R,0.04600X0.00040*%
%ADD386R,0.04840X0.00040*%
%ADD387R,0.10440X0.00040*%
%ADD388R,0.10360X0.00040*%
%ADD389R,0.10360X0.00040*%
%ADD390R,0.10280X0.00040*%
%ADD391R,0.10200X0.00040*%
%ADD392R,0.10200X0.00040*%
%ADD393R,0.10120X0.00040*%
%ADD394R,0.10040X0.00040*%
%ADD395R,0.10040X0.00040*%
%ADD396R,0.09960X0.00040*%
%ADD397R,0.09880X0.00040*%
%ADD398R,0.09880X0.00040*%
%ADD399R,0.09800X0.00040*%
%ADD400R,0.09720X0.00040*%
%ADD401R,0.09720X0.00040*%
%ADD402R,0.10280X0.00040*%
%ADD403R,0.10520X0.00040*%
%ADD404R,0.10520X0.00040*%
%ADD405R,0.10600X0.00040*%
%ADD406R,0.10680X0.00040*%
%ADD407R,0.10760X0.00040*%
%ADD408R,0.10840X0.00040*%
%ADD409R,0.10920X0.00040*%
%ADD410R,0.11000X0.00040*%
%ADD411R,0.11080X0.00040*%
%ADD412R,0.11080X0.00040*%
%ADD413R,0.11160X0.00040*%
%ADD414R,0.11240X0.00040*%
%ADD415R,0.11320X0.00040*%
%ADD416R,0.11400X0.00040*%
%ADD417R,0.11400X0.00040*%
%ADD418R,0.11480X0.00040*%
%ADD419R,0.11560X0.00040*%
%ADD420R,0.11640X0.00040*%
%ADD421R,0.11640X0.00040*%
%ADD422R,0.11720X0.00040*%
%ADD423R,0.11800X0.00040*%
%ADD424R,0.11880X0.00040*%
%ADD425R,0.11880X0.00040*%
%ADD426R,0.11960X0.00040*%
%ADD427R,0.11720X0.00040*%
%ADD428R,0.11320X0.00040*%
%ADD429R,0.02760X0.00040*%
%ADD430R,0.05400X0.00040*%
%ADD431R,0.02640X0.00040*%
%ADD432R,0.05160X0.00040*%
%ADD433R,0.02560X0.00040*%
%ADD434R,0.05000X0.00040*%
%ADD435R,0.02440X0.00040*%
%ADD436R,0.04760X0.00040*%
%ADD437R,0.02440X0.00040*%
%ADD438R,0.02360X0.00040*%
%ADD439R,0.04600X0.00040*%
%ADD440R,0.02280X0.00040*%
%ADD441R,0.02240X0.00040*%
%ADD442R,0.02160X0.00040*%
%ADD443R,0.02080X0.00040*%
%ADD444R,0.01960X0.00040*%
%ADD445R,0.01880X0.00040*%
%ADD446R,0.03640X0.00040*%
%ADD447R,0.03400X0.00040*%
%ADD448R,0.03240X0.00040*%
%ADD449R,0.03000X0.00040*%
%ADD450R,0.02920X0.00040*%
%ADD451R,0.01360X0.00040*%
%ADD452R,0.02840X0.00040*%
%ADD453R,0.02840X0.00040*%
%ADD454R,0.02760X0.00040*%
%ADD455R,0.02680X0.00040*%
%ADD456R,0.02680X0.00040*%
%ADD457R,0.02600X0.00040*%
%ADD458R,0.02520X0.00040*%
%ADD459R,0.02520X0.00040*%
%ADD460R,0.02440X0.00040*%
%ADD461R,0.02360X0.00040*%
%ADD462R,0.02280X0.00040*%
%ADD463R,0.02200X0.00040*%
%ADD464R,0.02120X0.00040*%
D10*
X0011700Y0081700D02*
X0011700Y0086304D01*
X0014002Y0086304D01*
X0014769Y0085537D01*
X0014769Y0084002D01*
X0014002Y0083235D01*
X0011700Y0083235D01*
X0013235Y0083235D02*
X0014769Y0081700D01*
X0016304Y0082467D02*
X0016304Y0084002D01*
X0017071Y0084769D01*
X0018606Y0084769D01*
X0019373Y0084002D01*
X0019373Y0083235D01*
X0016304Y0083235D01*
X0016304Y0082467D02*
X0017071Y0081700D01*
X0018606Y0081700D01*
X0020908Y0084769D02*
X0022442Y0081700D01*
X0023977Y0084769D01*
X0025512Y0082467D02*
X0026279Y0082467D01*
X0026279Y0081700D01*
X0025512Y0081700D01*
X0025512Y0082467D01*
X0027814Y0081700D02*
X0027814Y0086304D01*
X0030116Y0086304D01*
X0030883Y0085537D01*
X0030883Y0084769D01*
X0030116Y0084002D01*
X0027814Y0084002D01*
X0027814Y0081700D02*
X0030116Y0081700D01*
X0030883Y0082467D01*
X0030883Y0083235D01*
X0030116Y0084002D01*
X0032418Y0084002D02*
X0032418Y0082467D01*
X0033185Y0081700D01*
X0034720Y0081700D01*
X0035487Y0083235D02*
X0032418Y0083235D01*
X0032418Y0084002D02*
X0033185Y0084769D01*
X0034720Y0084769D01*
X0035487Y0084002D01*
X0035487Y0083235D01*
X0037022Y0084769D02*
X0038556Y0084769D01*
X0037789Y0085537D02*
X0037789Y0082467D01*
X0038556Y0081700D01*
X0040091Y0082467D02*
X0040858Y0083235D01*
X0043160Y0083235D01*
X0043160Y0084002D02*
X0043160Y0081700D01*
X0040858Y0081700D01*
X0040091Y0082467D01*
X0040858Y0084769D02*
X0042393Y0084769D01*
X0043160Y0084002D01*
X0033185Y0089200D02*
X0031650Y0090735D01*
X0032418Y0090735D02*
X0030116Y0090735D01*
X0030116Y0089200D02*
X0030116Y0093804D01*
X0032418Y0093804D01*
X0033185Y0093037D01*
X0033185Y0091502D01*
X0032418Y0090735D01*
X0028581Y0089967D02*
X0028581Y0093037D01*
X0027814Y0093804D01*
X0026279Y0093804D01*
X0025512Y0093037D01*
X0025512Y0089967D01*
X0026279Y0089200D01*
X0027814Y0089200D01*
X0028581Y0089967D01*
X0023977Y0089200D02*
X0020908Y0089200D01*
X0020908Y0093804D01*
X0019373Y0093037D02*
X0018606Y0093804D01*
X0017071Y0093804D01*
X0016304Y0093037D01*
X0016304Y0089967D01*
X0017071Y0089200D01*
X0018606Y0089200D01*
X0019373Y0089967D01*
X0019373Y0093037D01*
X0014769Y0093037D02*
X0014002Y0093804D01*
X0012467Y0093804D01*
X0011700Y0093037D01*
X0011700Y0089967D01*
X0012467Y0089200D01*
X0014002Y0089200D01*
X0014769Y0089967D01*
X0052605Y0156621D02*
X0051838Y0157389D01*
X0052605Y0156621D02*
X0054140Y0156621D01*
X0054907Y0157389D01*
X0054907Y0158156D01*
X0054140Y0158923D01*
X0052605Y0158923D01*
X0051838Y0159691D01*
X0051838Y0160458D01*
X0052605Y0161225D01*
X0054140Y0161225D01*
X0054907Y0160458D01*
X0056442Y0159691D02*
X0057976Y0161225D01*
X0057976Y0156621D01*
X0056442Y0156621D02*
X0059511Y0156621D01*
X0061046Y0156621D02*
X0064115Y0156621D01*
X0065650Y0157389D02*
X0068719Y0160458D01*
X0068719Y0157389D01*
X0067952Y0156621D01*
X0066417Y0156621D01*
X0065650Y0157389D01*
X0065650Y0160458D01*
X0066417Y0161225D01*
X0067952Y0161225D01*
X0068719Y0160458D01*
X0070253Y0161225D02*
X0070253Y0158923D01*
X0071788Y0159691D01*
X0072555Y0159691D01*
X0073323Y0158923D01*
X0073323Y0157389D01*
X0072555Y0156621D01*
X0071021Y0156621D01*
X0070253Y0157389D01*
X0070253Y0161225D02*
X0073323Y0161225D01*
X0074857Y0160458D02*
X0074857Y0159691D01*
X0075625Y0158923D01*
X0077927Y0158923D01*
X0077927Y0157389D02*
X0077927Y0160458D01*
X0077159Y0161225D01*
X0075625Y0161225D01*
X0074857Y0160458D01*
X0074857Y0157389D02*
X0075625Y0156621D01*
X0077159Y0156621D01*
X0077927Y0157389D01*
X0062580Y0156621D02*
X0062580Y0161225D01*
X0061046Y0159691D01*
X0101700Y0088804D02*
X0104769Y0088804D01*
X0103235Y0086502D02*
X0101700Y0086502D01*
X0101700Y0084200D02*
X0101700Y0088804D01*
X0107071Y0087269D02*
X0108606Y0087269D01*
X0109373Y0086502D01*
X0109373Y0084200D01*
X0107071Y0084200D01*
X0106304Y0084967D01*
X0107071Y0085735D01*
X0109373Y0085735D01*
X0110908Y0086502D02*
X0113210Y0086502D01*
X0113977Y0085735D01*
X0113977Y0084967D01*
X0113210Y0084200D01*
X0110908Y0084200D01*
X0110908Y0088804D01*
X0113210Y0088804D01*
X0113977Y0088037D01*
X0113977Y0087269D01*
X0113210Y0086502D01*
X0115512Y0086502D02*
X0115512Y0084967D01*
X0116279Y0084200D01*
X0117814Y0084200D01*
X0118581Y0084967D01*
X0118581Y0086502D01*
X0117814Y0087269D01*
X0116279Y0087269D01*
X0115512Y0086502D01*
D11*
X0089000Y0040250D02*
X0039000Y0040250D01*
X0039000Y0004000D01*
X0034276Y0064531D02*
X0044118Y0064531D01*
X0044118Y0068469D01*
X0033882Y0068469D01*
X0033882Y0064531D01*
X0051382Y0064531D02*
X0051382Y0068469D01*
X0061618Y0068469D01*
X0061618Y0064531D01*
X0051776Y0064531D01*
X0068882Y0064531D02*
X0068882Y0068469D01*
X0079118Y0068469D01*
X0079118Y0064531D01*
X0069276Y0064531D01*
X0089000Y0040250D02*
X0089000Y0004000D01*
X0070299Y0138232D02*
X0057701Y0138232D01*
X0057701Y0154768D01*
X0070299Y0154768D01*
X0070299Y0138232D01*
D12*
X0004000Y0119000D02*
X0004000Y0019000D01*
X0004004Y0018638D01*
X0004018Y0018275D01*
X0004039Y0017913D01*
X0004070Y0017552D01*
X0004109Y0017192D01*
X0004157Y0016833D01*
X0004214Y0016475D01*
X0004279Y0016118D01*
X0004353Y0015763D01*
X0004436Y0015410D01*
X0004527Y0015059D01*
X0004626Y0014711D01*
X0004734Y0014365D01*
X0004850Y0014021D01*
X0004975Y0013681D01*
X0005107Y0013344D01*
X0005248Y0013010D01*
X0005397Y0012679D01*
X0005554Y0012352D01*
X0005718Y0012029D01*
X0005890Y0011710D01*
X0006070Y0011396D01*
X0006258Y0011085D01*
X0006453Y0010780D01*
X0006655Y0010479D01*
X0006865Y0010183D01*
X0007081Y0009893D01*
X0007305Y0009607D01*
X0007535Y0009327D01*
X0007772Y0009053D01*
X0008016Y0008785D01*
X0008266Y0008522D01*
X0008522Y0008266D01*
X0008785Y0008016D01*
X0009053Y0007772D01*
X0009327Y0007535D01*
X0009607Y0007305D01*
X0009893Y0007081D01*
X0010183Y0006865D01*
X0010479Y0006655D01*
X0010780Y0006453D01*
X0011085Y0006258D01*
X0011396Y0006070D01*
X0011710Y0005890D01*
X0012029Y0005718D01*
X0012352Y0005554D01*
X0012679Y0005397D01*
X0013010Y0005248D01*
X0013344Y0005107D01*
X0013681Y0004975D01*
X0014021Y0004850D01*
X0014365Y0004734D01*
X0014711Y0004626D01*
X0015059Y0004527D01*
X0015410Y0004436D01*
X0015763Y0004353D01*
X0016118Y0004279D01*
X0016475Y0004214D01*
X0016833Y0004157D01*
X0017192Y0004109D01*
X0017552Y0004070D01*
X0017913Y0004039D01*
X0018275Y0004018D01*
X0018638Y0004004D01*
X0019000Y0004000D01*
X0109000Y0004000D01*
X0109362Y0004004D01*
X0109725Y0004018D01*
X0110087Y0004039D01*
X0110448Y0004070D01*
X0110808Y0004109D01*
X0111167Y0004157D01*
X0111525Y0004214D01*
X0111882Y0004279D01*
X0112237Y0004353D01*
X0112590Y0004436D01*
X0112941Y0004527D01*
X0113289Y0004626D01*
X0113635Y0004734D01*
X0113979Y0004850D01*
X0114319Y0004975D01*
X0114656Y0005107D01*
X0114990Y0005248D01*
X0115321Y0005397D01*
X0115648Y0005554D01*
X0115971Y0005718D01*
X0116290Y0005890D01*
X0116604Y0006070D01*
X0116915Y0006258D01*
X0117220Y0006453D01*
X0117521Y0006655D01*
X0117817Y0006865D01*
X0118107Y0007081D01*
X0118393Y0007305D01*
X0118673Y0007535D01*
X0118947Y0007772D01*
X0119215Y0008016D01*
X0119478Y0008266D01*
X0119734Y0008522D01*
X0119984Y0008785D01*
X0120228Y0009053D01*
X0120465Y0009327D01*
X0120695Y0009607D01*
X0120919Y0009893D01*
X0121135Y0010183D01*
X0121345Y0010479D01*
X0121547Y0010780D01*
X0121742Y0011085D01*
X0121930Y0011396D01*
X0122110Y0011710D01*
X0122282Y0012029D01*
X0122446Y0012352D01*
X0122603Y0012679D01*
X0122752Y0013010D01*
X0122893Y0013344D01*
X0123025Y0013681D01*
X0123150Y0014021D01*
X0123266Y0014365D01*
X0123374Y0014711D01*
X0123473Y0015059D01*
X0123564Y0015410D01*
X0123647Y0015763D01*
X0123721Y0016118D01*
X0123786Y0016475D01*
X0123843Y0016833D01*
X0123891Y0017192D01*
X0123930Y0017552D01*
X0123961Y0017913D01*
X0123982Y0018275D01*
X0123996Y0018638D01*
X0124000Y0019000D01*
X0124000Y0119000D01*
X0123982Y0120461D01*
X0123929Y0121921D01*
X0123840Y0123380D01*
X0123716Y0124836D01*
X0123556Y0126288D01*
X0123361Y0127736D01*
X0123130Y0129179D01*
X0122865Y0130616D01*
X0122565Y0132046D01*
X0122230Y0133468D01*
X0121860Y0134882D01*
X0121456Y0136286D01*
X0121018Y0137680D01*
X0120546Y0139063D01*
X0120041Y0140434D01*
X0119502Y0141792D01*
X0118931Y0143137D01*
X0118327Y0144467D01*
X0117691Y0145783D01*
X0117023Y0147082D01*
X0116323Y0148365D01*
X0115592Y0149630D01*
X0114831Y0150878D01*
X0114040Y0152106D01*
X0113219Y0153315D01*
X0112369Y0154503D01*
X0111490Y0155670D01*
X0110583Y0156816D01*
X0109648Y0157939D01*
X0108686Y0159039D01*
X0107698Y0160115D01*
X0106684Y0161167D01*
X0105644Y0162194D01*
X0104580Y0163195D01*
X0103492Y0164171D01*
X0102380Y0165119D01*
X0101246Y0166040D01*
X0100089Y0166933D01*
X0098912Y0167797D01*
X0097713Y0168633D01*
X0096494Y0169439D01*
X0095256Y0170216D01*
X0094000Y0170962D01*
X0092726Y0171677D01*
X0091435Y0172361D01*
X0090127Y0173013D01*
X0088804Y0173633D01*
X0087466Y0174221D01*
X0086115Y0174776D01*
X0084750Y0175298D01*
X0083373Y0175786D01*
X0081984Y0176241D01*
X0080585Y0176662D01*
X0079176Y0177049D01*
X0077758Y0177401D01*
X0076332Y0177719D01*
X0074898Y0178002D01*
X0073458Y0178250D01*
X0072013Y0178463D01*
X0070562Y0178640D01*
X0069108Y0178782D01*
X0067651Y0178889D01*
X0066191Y0178960D01*
X0064731Y0178996D01*
X0063269Y0178996D01*
X0061809Y0178960D01*
X0060349Y0178889D01*
X0058892Y0178782D01*
X0057438Y0178640D01*
X0055987Y0178463D01*
X0054542Y0178250D01*
X0053102Y0178002D01*
X0051668Y0177719D01*
X0050242Y0177401D01*
X0048824Y0177049D01*
X0047415Y0176662D01*
X0046016Y0176241D01*
X0044627Y0175786D01*
X0043250Y0175298D01*
X0041885Y0174776D01*
X0040534Y0174221D01*
X0039196Y0173633D01*
X0037873Y0173013D01*
X0036565Y0172361D01*
X0035274Y0171677D01*
X0034000Y0170962D01*
X0032744Y0170216D01*
X0031506Y0169439D01*
X0030287Y0168633D01*
X0029088Y0167797D01*
X0027911Y0166933D01*
X0026754Y0166040D01*
X0025620Y0165119D01*
X0024508Y0164171D01*
X0023420Y0163195D01*
X0022356Y0162194D01*
X0021316Y0161167D01*
X0020302Y0160115D01*
X0019314Y0159039D01*
X0018352Y0157939D01*
X0017417Y0156816D01*
X0016510Y0155670D01*
X0015631Y0154503D01*
X0014781Y0153315D01*
X0013960Y0152106D01*
X0013169Y0150878D01*
X0012408Y0149630D01*
X0011677Y0148365D01*
X0010977Y0147082D01*
X0010309Y0145783D01*
X0009673Y0144467D01*
X0009069Y0143137D01*
X0008498Y0141792D01*
X0007959Y0140434D01*
X0007454Y0139063D01*
X0006982Y0137680D01*
X0006544Y0136286D01*
X0006140Y0134882D01*
X0005770Y0133468D01*
X0005435Y0132046D01*
X0005135Y0130616D01*
X0004870Y0129179D01*
X0004639Y0127736D01*
X0004444Y0126288D01*
X0004284Y0124836D01*
X0004160Y0123380D01*
X0004071Y0121921D01*
X0004018Y0120461D01*
X0004000Y0119000D01*
D13*
X0050450Y0049478D02*
X0050450Y0047543D01*
X0047548Y0047543D01*
X0048031Y0046531D02*
X0047548Y0046048D01*
X0047548Y0045080D01*
X0048031Y0044597D01*
X0049966Y0044597D01*
X0050450Y0045080D01*
X0050450Y0046048D01*
X0049966Y0046531D01*
X0049966Y0043585D02*
X0049483Y0043585D01*
X0048999Y0043101D01*
X0048999Y0042134D01*
X0048515Y0041650D01*
X0048031Y0041650D01*
X0047548Y0042134D01*
X0047548Y0043101D01*
X0048031Y0043585D01*
X0049966Y0043585D02*
X0050450Y0043101D01*
X0050450Y0042134D01*
X0049966Y0041650D01*
X0057548Y0042134D02*
X0058031Y0041650D01*
X0058515Y0041650D01*
X0058999Y0042134D01*
X0058999Y0043101D01*
X0059483Y0043585D01*
X0059966Y0043585D01*
X0060450Y0043101D01*
X0060450Y0042134D01*
X0059966Y0041650D01*
X0058031Y0043585D02*
X0057548Y0043101D01*
X0057548Y0042134D01*
X0057548Y0044597D02*
X0057548Y0046048D01*
X0058031Y0046531D01*
X0059966Y0046531D01*
X0060450Y0046048D01*
X0060450Y0044597D01*
X0057548Y0044597D01*
X0058515Y0047543D02*
X0057548Y0048511D01*
X0058515Y0049478D01*
X0060450Y0049478D01*
X0058999Y0049478D02*
X0058999Y0047543D01*
X0058515Y0047543D02*
X0060450Y0047543D01*
X0067548Y0048027D02*
X0068031Y0047543D01*
X0069966Y0047543D01*
X0070450Y0048027D01*
X0070450Y0048994D01*
X0069966Y0049478D01*
X0068031Y0049478D02*
X0067548Y0048994D01*
X0067548Y0048027D01*
X0068031Y0046531D02*
X0067548Y0046048D01*
X0067548Y0045080D01*
X0068031Y0044597D01*
X0069966Y0044597D01*
X0070450Y0045080D01*
X0070450Y0046048D01*
X0069966Y0046531D01*
X0069483Y0043585D02*
X0067548Y0043585D01*
X0067548Y0041650D02*
X0069483Y0041650D01*
X0070450Y0042617D01*
X0069483Y0043585D01*
X0077548Y0043101D02*
X0077548Y0042134D01*
X0078031Y0041650D01*
X0079966Y0041650D01*
X0080450Y0042134D01*
X0080450Y0043101D01*
X0079966Y0043585D01*
X0078999Y0043585D01*
X0078999Y0042617D01*
X0078031Y0043585D02*
X0077548Y0043101D01*
X0077548Y0044597D02*
X0080450Y0046531D01*
X0077548Y0046531D01*
X0077548Y0047543D02*
X0077548Y0048994D01*
X0078031Y0049478D01*
X0079966Y0049478D01*
X0080450Y0048994D01*
X0080450Y0047543D01*
X0077548Y0047543D01*
X0077548Y0044597D02*
X0080450Y0044597D01*
D14*
X0074660Y0069356D02*
X0073192Y0069356D01*
X0073926Y0069356D02*
X0073926Y0071558D01*
X0073192Y0070824D01*
X0072450Y0071191D02*
X0072083Y0071558D01*
X0071349Y0071558D01*
X0070982Y0071191D01*
X0070982Y0069723D01*
X0071349Y0069356D01*
X0072083Y0069356D01*
X0072450Y0069723D01*
X0057160Y0069356D02*
X0055692Y0069356D01*
X0057160Y0070824D01*
X0057160Y0071191D01*
X0056793Y0071558D01*
X0056059Y0071558D01*
X0055692Y0071191D01*
X0054950Y0071191D02*
X0054950Y0070457D01*
X0054583Y0070090D01*
X0053482Y0070090D01*
X0054216Y0070090D02*
X0054950Y0069356D01*
X0053482Y0069356D02*
X0053482Y0071558D01*
X0054583Y0071558D01*
X0054950Y0071191D01*
X0039660Y0069356D02*
X0038192Y0069356D01*
X0038926Y0069356D02*
X0038926Y0071558D01*
X0038192Y0070824D01*
X0037450Y0071191D02*
X0037450Y0070457D01*
X0037083Y0070090D01*
X0035982Y0070090D01*
X0036716Y0070090D02*
X0037450Y0069356D01*
X0035982Y0069356D02*
X0035982Y0071558D01*
X0037083Y0071558D01*
X0037450Y0071191D01*
D15*
X0105577Y0072625D03*
X0105612Y0072660D03*
X0105612Y0072695D03*
X0105648Y0072730D03*
X0105787Y0073045D03*
X0105823Y0073115D03*
X0105648Y0080080D03*
X0113173Y0080850D03*
X0109777Y0066500D03*
D16*
X0109777Y0066535D03*
X0111702Y0069930D03*
X0112787Y0068460D03*
X0112752Y0068425D03*
X0112717Y0068390D03*
X0114187Y0071155D03*
X0114187Y0071190D03*
X0114187Y0071225D03*
X0114223Y0071260D03*
X0114223Y0071295D03*
X0111317Y0073325D03*
X0107712Y0072975D03*
X0107677Y0072940D03*
X0107608Y0072835D03*
X0107573Y0072800D03*
X0107537Y0072730D03*
X0107502Y0072695D03*
X0107467Y0072625D03*
X0106277Y0074060D03*
X0102462Y0073150D03*
X0107537Y0069965D03*
X0107573Y0069930D03*
X0105752Y0079485D03*
X0109777Y0080815D03*
X0113102Y0080360D03*
D17*
X0113015Y0079765D03*
X0113015Y0079730D03*
X0109760Y0080255D03*
X0109760Y0080290D03*
X0105910Y0078610D03*
X0105910Y0078575D03*
X0105910Y0078540D03*
X0106505Y0074410D03*
X0108535Y0073500D03*
X0108220Y0069475D03*
X0109760Y0066570D03*
X0112140Y0067935D03*
X0111475Y0069615D03*
X0114345Y0072135D03*
X0114345Y0072170D03*
X0102515Y0072905D03*
D18*
X0106173Y0077070D03*
X0106173Y0077105D03*
X0106277Y0076650D03*
X0106627Y0074585D03*
X0108448Y0069440D03*
X0105998Y0068530D03*
X0109777Y0066605D03*
X0114362Y0072625D03*
X0112262Y0074760D03*
D19*
X0114345Y0073010D03*
X0115255Y0075320D03*
X0115255Y0075355D03*
X0115290Y0075390D03*
X0109585Y0078435D03*
X0109585Y0078470D03*
X0109585Y0078505D03*
X0109585Y0078540D03*
X0109585Y0078575D03*
X0106785Y0074725D03*
X0105000Y0069510D03*
X0105035Y0069475D03*
X0109410Y0069055D03*
X0109760Y0066640D03*
D20*
X0109760Y0066675D03*
X0111020Y0069440D03*
X0114310Y0073290D03*
X0109445Y0076895D03*
X0109445Y0076930D03*
X0109445Y0076965D03*
X0109445Y0077000D03*
X0109445Y0077035D03*
X0109445Y0077070D03*
X0104685Y0069895D03*
X0102865Y0072380D03*
D21*
X0106995Y0074900D03*
X0109410Y0076195D03*
X0109410Y0076230D03*
X0109410Y0076265D03*
X0109410Y0076300D03*
X0109760Y0066710D03*
D22*
X0109742Y0066745D03*
X0114257Y0073675D03*
D23*
X0109410Y0069230D03*
X0109725Y0066780D03*
X0104125Y0070735D03*
D24*
X0103985Y0070980D03*
X0109725Y0066815D03*
X0114170Y0073955D03*
D25*
X0114117Y0074095D03*
X0109707Y0066850D03*
X0103862Y0071260D03*
D26*
X0103775Y0071505D03*
X0103775Y0071540D03*
X0109725Y0066885D03*
X0114065Y0074200D03*
D27*
X0109742Y0073535D03*
X0109707Y0066920D03*
X0103723Y0071750D03*
X0103723Y0071785D03*
X0103723Y0071820D03*
D28*
X0109707Y0066955D03*
D29*
X0109690Y0066990D03*
X0113960Y0074445D03*
X0103670Y0072275D03*
D30*
X0109673Y0067025D03*
D31*
X0109672Y0067060D03*
X0113872Y0074585D03*
D32*
X0109655Y0067095D03*
D33*
X0109637Y0067130D03*
D34*
X0109637Y0067165D03*
D35*
X0109620Y0067200D03*
D36*
X0109620Y0067235D03*
D37*
X0109602Y0067270D03*
D38*
X0109602Y0067305D03*
X0110617Y0075705D03*
X0110617Y0075740D03*
X0110652Y0075845D03*
D39*
X0109585Y0067340D03*
D40*
X0109567Y0067375D03*
D41*
X0109550Y0067410D03*
D42*
X0109550Y0067445D03*
D43*
X0109532Y0067480D03*
D44*
X0109515Y0067515D03*
D45*
X0109515Y0067550D03*
D46*
X0109497Y0067585D03*
D47*
X0109480Y0067620D03*
D48*
X0107677Y0067655D03*
X0104352Y0070350D03*
X0109427Y0075985D03*
X0114257Y0073570D03*
D49*
X0114327Y0073185D03*
X0114992Y0074900D03*
X0115027Y0074935D03*
X0111982Y0074935D03*
X0109497Y0077490D03*
X0109497Y0077525D03*
X0109497Y0077560D03*
X0109497Y0077595D03*
X0109497Y0077630D03*
X0109497Y0077665D03*
X0102812Y0072415D03*
X0104737Y0069825D03*
X0104772Y0069790D03*
X0111457Y0067655D03*
D50*
X0107537Y0067690D03*
X0104562Y0070070D03*
X0104527Y0070105D03*
X0109427Y0076510D03*
X0109427Y0076545D03*
X0109427Y0076580D03*
X0109427Y0076615D03*
X0109427Y0076650D03*
D51*
X0109620Y0078785D03*
X0109620Y0078820D03*
X0109620Y0078855D03*
X0109620Y0078890D03*
X0109620Y0078925D03*
X0112385Y0076370D03*
X0112315Y0076125D03*
X0112315Y0076090D03*
X0112280Y0076020D03*
X0112280Y0075985D03*
X0112245Y0075880D03*
X0112105Y0074865D03*
X0115360Y0075565D03*
X0115395Y0075635D03*
X0111615Y0067690D03*
X0105210Y0069265D03*
X0105140Y0069335D03*
X0102690Y0072555D03*
D52*
X0106907Y0074830D03*
X0109462Y0077105D03*
X0109462Y0077140D03*
X0109462Y0077175D03*
X0109462Y0077210D03*
X0109462Y0077245D03*
X0114923Y0074795D03*
X0114327Y0073255D03*
X0107398Y0067725D03*
D53*
X0106767Y0068005D03*
X0106697Y0068040D03*
X0105402Y0069055D03*
X0102637Y0072625D03*
X0106697Y0074655D03*
X0106487Y0075950D03*
X0106487Y0075985D03*
X0106452Y0076020D03*
X0106452Y0076055D03*
X0109672Y0079240D03*
X0109672Y0079275D03*
X0109672Y0079310D03*
X0109672Y0079345D03*
X0112787Y0078330D03*
X0112787Y0078295D03*
X0112787Y0078260D03*
X0112787Y0078225D03*
X0112752Y0078155D03*
X0112752Y0078120D03*
X0112752Y0078085D03*
X0112752Y0078050D03*
X0112717Y0077945D03*
X0112717Y0077910D03*
X0112717Y0077875D03*
X0115552Y0076020D03*
X0115517Y0075950D03*
X0114362Y0072800D03*
X0111702Y0067725D03*
D54*
X0109410Y0069090D03*
X0107310Y0067760D03*
X0114940Y0074830D03*
X0114975Y0074865D03*
D55*
X0115657Y0076300D03*
X0115657Y0076335D03*
X0112892Y0078890D03*
X0112892Y0078925D03*
X0112892Y0078960D03*
X0112892Y0078995D03*
X0109707Y0079590D03*
X0109707Y0079625D03*
X0109707Y0079660D03*
X0109707Y0079695D03*
X0106242Y0076825D03*
X0106242Y0076790D03*
X0106207Y0076895D03*
X0106207Y0076930D03*
X0106207Y0076965D03*
X0111807Y0067760D03*
D56*
X0107222Y0067795D03*
X0104877Y0069650D03*
X0104842Y0069685D03*
X0102777Y0072450D03*
X0109532Y0077875D03*
X0109532Y0077910D03*
X0109532Y0077945D03*
X0109532Y0077980D03*
X0109532Y0078015D03*
X0115097Y0075040D03*
D57*
X0115692Y0076440D03*
X0112927Y0079135D03*
X0112927Y0079170D03*
X0112927Y0079205D03*
X0109742Y0079835D03*
X0106067Y0077630D03*
X0106067Y0077595D03*
X0106067Y0077560D03*
X0106067Y0077525D03*
X0106102Y0077490D03*
X0106102Y0077455D03*
X0106102Y0077420D03*
X0106102Y0077385D03*
X0102567Y0072765D03*
X0111877Y0067795D03*
X0114362Y0072520D03*
D58*
X0115167Y0075180D03*
X0109567Y0078260D03*
X0109567Y0078295D03*
X0109567Y0078330D03*
X0109567Y0078365D03*
X0109567Y0078400D03*
X0102742Y0072485D03*
X0104982Y0069545D03*
X0107117Y0067830D03*
D59*
X0109812Y0073955D03*
X0106032Y0077805D03*
X0106032Y0077840D03*
X0106032Y0077875D03*
X0105998Y0077945D03*
X0105998Y0077980D03*
X0105998Y0078015D03*
X0109742Y0079940D03*
X0109742Y0079975D03*
X0109742Y0080010D03*
X0112962Y0079415D03*
X0112962Y0079380D03*
X0112962Y0079345D03*
X0115727Y0076545D03*
X0114362Y0072450D03*
X0114362Y0072415D03*
X0114362Y0072380D03*
X0111948Y0067830D03*
X0102567Y0072800D03*
D60*
X0102708Y0072520D03*
X0105052Y0069440D03*
X0105087Y0069405D03*
X0105123Y0069370D03*
X0106977Y0067900D03*
X0107048Y0067865D03*
X0112262Y0075915D03*
X0112262Y0075950D03*
X0114362Y0072975D03*
X0114362Y0072940D03*
X0115308Y0075425D03*
X0115308Y0075460D03*
X0115342Y0075495D03*
X0115342Y0075530D03*
X0115377Y0075600D03*
X0109602Y0078610D03*
X0109602Y0078645D03*
X0109602Y0078680D03*
X0109602Y0078715D03*
X0109602Y0078750D03*
D61*
X0109742Y0080080D03*
X0112997Y0079625D03*
X0112997Y0079590D03*
X0112997Y0079555D03*
X0115762Y0076650D03*
X0114362Y0072345D03*
X0114362Y0072310D03*
X0111422Y0069580D03*
X0112017Y0067865D03*
X0109427Y0068985D03*
X0106557Y0074480D03*
X0105962Y0078155D03*
X0105962Y0078190D03*
X0105962Y0078225D03*
X0105962Y0078260D03*
X0102532Y0072870D03*
D62*
X0112087Y0067900D03*
X0114362Y0072205D03*
X0114362Y0072240D03*
D63*
X0114362Y0072870D03*
X0114362Y0072905D03*
X0115412Y0075670D03*
X0115412Y0075705D03*
X0115448Y0075740D03*
X0115448Y0075775D03*
X0115482Y0075845D03*
X0112437Y0076545D03*
X0112437Y0076580D03*
X0112437Y0076615D03*
X0112473Y0076685D03*
X0112473Y0076720D03*
X0112473Y0076755D03*
X0112507Y0076860D03*
X0112507Y0076895D03*
X0112542Y0077035D03*
X0112542Y0077070D03*
X0112577Y0077210D03*
X0112612Y0077385D03*
X0112402Y0076510D03*
X0112402Y0076475D03*
X0112402Y0076440D03*
X0112402Y0076405D03*
X0112367Y0076335D03*
X0112367Y0076300D03*
X0112367Y0076265D03*
X0112332Y0076195D03*
X0112332Y0076160D03*
X0112298Y0076055D03*
X0109812Y0073920D03*
X0106732Y0074690D03*
X0106557Y0075740D03*
X0106557Y0075775D03*
X0106523Y0075845D03*
X0109637Y0078960D03*
X0109637Y0078995D03*
X0109637Y0079030D03*
X0109637Y0079065D03*
X0111212Y0069475D03*
X0106907Y0067935D03*
X0106837Y0067970D03*
X0105262Y0069230D03*
D64*
X0108150Y0069510D03*
X0111510Y0069650D03*
X0112210Y0067970D03*
X0114345Y0072030D03*
X0114345Y0072065D03*
X0115815Y0076825D03*
X0113050Y0079870D03*
X0113050Y0079905D03*
X0105875Y0078785D03*
X0105875Y0078750D03*
X0105875Y0078715D03*
D65*
X0105858Y0078820D03*
X0105858Y0078855D03*
X0105858Y0078890D03*
X0106452Y0074340D03*
X0102498Y0072975D03*
X0109777Y0080395D03*
X0109777Y0080430D03*
X0109777Y0080465D03*
X0113067Y0079940D03*
X0115833Y0076895D03*
X0115833Y0076860D03*
X0114327Y0071995D03*
X0114327Y0071960D03*
X0114327Y0071925D03*
X0112262Y0068005D03*
X0110967Y0073500D03*
D66*
X0108430Y0073465D03*
X0106435Y0074305D03*
X0105840Y0078925D03*
X0105840Y0078960D03*
X0105840Y0078995D03*
X0102480Y0073010D03*
X0111545Y0069685D03*
X0112315Y0068040D03*
D67*
X0114380Y0072765D03*
X0115535Y0075985D03*
X0115570Y0076055D03*
X0115570Y0076090D03*
X0112770Y0078190D03*
X0112805Y0078365D03*
X0112805Y0078400D03*
X0112805Y0078435D03*
X0112805Y0078470D03*
X0112840Y0078610D03*
X0109690Y0079380D03*
X0109690Y0079415D03*
X0109690Y0079450D03*
X0106365Y0076335D03*
X0106400Y0076230D03*
X0106400Y0076195D03*
X0106435Y0076160D03*
X0106435Y0076125D03*
X0106435Y0076090D03*
X0105455Y0069020D03*
X0105490Y0068985D03*
X0105525Y0068950D03*
X0105560Y0068915D03*
X0105595Y0068880D03*
X0105630Y0068845D03*
X0106645Y0068075D03*
D68*
X0107975Y0069580D03*
X0108325Y0073430D03*
X0111090Y0073465D03*
X0114310Y0071820D03*
X0114310Y0071785D03*
X0114310Y0071750D03*
X0112385Y0068110D03*
X0112350Y0068075D03*
X0115850Y0076965D03*
X0113085Y0080080D03*
D69*
X0112857Y0078715D03*
X0112857Y0078680D03*
X0112857Y0078645D03*
X0112822Y0078575D03*
X0112822Y0078540D03*
X0112822Y0078505D03*
X0115622Y0076230D03*
X0112227Y0074795D03*
X0109707Y0079485D03*
X0106347Y0076405D03*
X0106347Y0076370D03*
X0106382Y0076300D03*
X0106382Y0076265D03*
X0105682Y0068810D03*
X0105717Y0068775D03*
X0105752Y0068740D03*
X0106417Y0068215D03*
X0106522Y0068145D03*
X0106592Y0068110D03*
X0109427Y0069020D03*
D70*
X0111597Y0069755D03*
X0112437Y0068145D03*
X0114292Y0071680D03*
X0114292Y0071715D03*
X0115867Y0077000D03*
X0113067Y0080115D03*
X0109777Y0080570D03*
X0109777Y0080605D03*
X0105787Y0079205D03*
X0105787Y0079170D03*
X0106382Y0074235D03*
X0108272Y0073395D03*
D71*
X0106662Y0074620D03*
X0106312Y0076510D03*
X0102637Y0072660D03*
X0105787Y0068705D03*
X0106487Y0068180D03*
X0114362Y0072695D03*
X0114362Y0072730D03*
X0115587Y0076125D03*
X0115587Y0076160D03*
D72*
X0115885Y0077035D03*
X0113085Y0080150D03*
X0113085Y0080185D03*
X0109795Y0080640D03*
X0106365Y0074200D03*
X0108185Y0073360D03*
X0111160Y0073430D03*
X0111615Y0069790D03*
X0112490Y0068180D03*
X0114275Y0071575D03*
X0114275Y0071610D03*
X0114275Y0071645D03*
X0107905Y0069615D03*
D73*
X0107852Y0069650D03*
X0108132Y0073325D03*
X0106347Y0074165D03*
X0109777Y0080675D03*
X0113102Y0080220D03*
X0114257Y0071540D03*
X0114257Y0071505D03*
X0112542Y0068215D03*
D74*
X0111300Y0069510D03*
X0114380Y0072660D03*
X0115605Y0076195D03*
X0115640Y0076265D03*
X0112875Y0078750D03*
X0112875Y0078785D03*
X0112875Y0078820D03*
X0112875Y0078855D03*
X0109690Y0079520D03*
X0109690Y0079555D03*
X0106260Y0076755D03*
X0106260Y0076720D03*
X0106260Y0076685D03*
X0106295Y0076615D03*
X0106295Y0076580D03*
X0106295Y0076545D03*
X0106330Y0076475D03*
X0106330Y0076440D03*
X0106225Y0076860D03*
X0102620Y0072695D03*
X0105840Y0068670D03*
X0105875Y0068635D03*
X0105910Y0068600D03*
X0105945Y0068565D03*
X0106050Y0068495D03*
X0106085Y0068460D03*
X0106120Y0068425D03*
X0106190Y0068390D03*
X0106225Y0068355D03*
X0106260Y0068320D03*
X0106330Y0068285D03*
X0106365Y0068250D03*
D75*
X0107800Y0069685D03*
X0107765Y0069720D03*
X0107975Y0073220D03*
X0108045Y0073255D03*
X0108080Y0073290D03*
X0106330Y0074130D03*
X0105770Y0079310D03*
X0105770Y0079345D03*
X0105770Y0079380D03*
X0109795Y0080710D03*
X0113085Y0080255D03*
X0115885Y0077070D03*
X0111230Y0073395D03*
X0111650Y0069825D03*
X0112560Y0068250D03*
D76*
X0112612Y0068285D03*
X0112648Y0068320D03*
X0107852Y0073115D03*
X0107887Y0073150D03*
X0107923Y0073185D03*
X0105752Y0079415D03*
X0109777Y0080745D03*
X0113102Y0080290D03*
X0102462Y0073115D03*
D77*
X0106295Y0074095D03*
X0107625Y0072870D03*
X0107660Y0072905D03*
X0107765Y0073010D03*
X0107590Y0069895D03*
X0107625Y0069860D03*
X0107660Y0069825D03*
X0107695Y0069790D03*
X0107730Y0069755D03*
X0111300Y0073360D03*
X0111685Y0069895D03*
X0112700Y0068355D03*
X0114240Y0071330D03*
X0114240Y0071365D03*
X0115920Y0077105D03*
X0113120Y0080325D03*
X0109795Y0080780D03*
X0105735Y0079450D03*
D78*
X0105735Y0079520D03*
X0105735Y0079555D03*
X0106260Y0074025D03*
X0107555Y0072765D03*
X0107485Y0072660D03*
X0107415Y0072555D03*
X0107415Y0072520D03*
X0107380Y0072485D03*
X0107380Y0072450D03*
X0107345Y0072415D03*
X0107345Y0072380D03*
X0107310Y0072345D03*
X0107310Y0072310D03*
X0107310Y0072275D03*
X0107240Y0072100D03*
X0107205Y0071960D03*
X0107380Y0070210D03*
X0107415Y0070140D03*
X0107485Y0070035D03*
X0107520Y0070000D03*
X0111720Y0070000D03*
X0111720Y0069965D03*
X0112840Y0068495D03*
X0114170Y0071085D03*
X0114170Y0071120D03*
X0111370Y0073290D03*
X0115920Y0077140D03*
X0113120Y0080395D03*
D79*
X0115937Y0077175D03*
X0111492Y0073185D03*
X0111457Y0073220D03*
X0111423Y0073255D03*
X0111737Y0070035D03*
X0112927Y0068600D03*
X0112892Y0068565D03*
X0112857Y0068530D03*
X0114152Y0071015D03*
X0114152Y0071050D03*
X0109777Y0080850D03*
X0105717Y0079625D03*
X0105717Y0079590D03*
X0106242Y0073990D03*
X0107257Y0072170D03*
X0107257Y0072135D03*
X0107223Y0072065D03*
X0107223Y0072030D03*
X0107223Y0071995D03*
X0107187Y0071925D03*
X0107187Y0071890D03*
X0107187Y0071855D03*
X0107187Y0071820D03*
X0107152Y0071750D03*
X0107152Y0071715D03*
X0107152Y0071680D03*
X0107152Y0071645D03*
X0107152Y0071610D03*
X0107152Y0071575D03*
X0107152Y0071540D03*
X0107152Y0071505D03*
X0107152Y0071085D03*
X0107152Y0071050D03*
X0107152Y0071015D03*
X0107187Y0070805D03*
X0107187Y0070770D03*
X0107223Y0070630D03*
X0107223Y0070595D03*
X0107257Y0070525D03*
X0107257Y0070490D03*
X0107292Y0070420D03*
X0107292Y0070385D03*
X0107327Y0070350D03*
X0107327Y0070315D03*
X0107362Y0070280D03*
X0107362Y0070245D03*
X0107398Y0070175D03*
X0102462Y0073185D03*
D80*
X0107170Y0071785D03*
X0107170Y0070980D03*
X0107170Y0070945D03*
X0107170Y0070910D03*
X0107170Y0070875D03*
X0107170Y0070840D03*
X0107205Y0070735D03*
X0107205Y0070700D03*
X0107205Y0070665D03*
X0111755Y0070105D03*
X0111755Y0070070D03*
X0112980Y0068670D03*
X0112945Y0068635D03*
X0111545Y0073115D03*
X0113120Y0080430D03*
X0113120Y0080465D03*
X0109795Y0080885D03*
D81*
X0106225Y0073955D03*
X0106190Y0073920D03*
X0107135Y0071470D03*
X0107135Y0071435D03*
X0107135Y0071400D03*
X0107135Y0071365D03*
X0107135Y0071330D03*
X0107135Y0071295D03*
X0107135Y0071260D03*
X0107135Y0071225D03*
X0107135Y0071190D03*
X0107135Y0071155D03*
X0107135Y0071120D03*
X0107240Y0070560D03*
X0107275Y0070455D03*
X0111510Y0073150D03*
X0114135Y0070980D03*
X0114135Y0070945D03*
X0114135Y0070910D03*
X0113015Y0068705D03*
D82*
X0113032Y0068740D03*
X0113067Y0068775D03*
X0111772Y0070140D03*
X0111772Y0070175D03*
X0114082Y0070770D03*
X0114082Y0070805D03*
X0114117Y0070840D03*
X0114117Y0070875D03*
X0111597Y0073045D03*
X0111562Y0073080D03*
X0115937Y0077210D03*
X0113137Y0080500D03*
X0109777Y0080920D03*
X0105717Y0079660D03*
X0106172Y0073885D03*
D83*
X0109777Y0080955D03*
X0111702Y0072835D03*
X0111772Y0072625D03*
X0111772Y0072590D03*
X0111772Y0072555D03*
X0111772Y0072520D03*
X0111772Y0072485D03*
X0111772Y0072450D03*
X0111807Y0070525D03*
X0111807Y0070490D03*
X0111807Y0070455D03*
X0111807Y0070420D03*
X0111807Y0070385D03*
X0111807Y0070350D03*
X0111807Y0070315D03*
X0113207Y0068950D03*
X0113172Y0068915D03*
X0113242Y0068985D03*
X0113102Y0068810D03*
X0113977Y0070455D03*
X0114047Y0070630D03*
X0114047Y0070665D03*
D84*
X0114065Y0070700D03*
X0114065Y0070735D03*
X0114030Y0070595D03*
X0113155Y0068880D03*
X0113120Y0068845D03*
X0111790Y0070210D03*
X0111790Y0070245D03*
X0111790Y0070280D03*
X0111790Y0072415D03*
X0111755Y0072660D03*
X0111720Y0072800D03*
X0111685Y0072870D03*
X0111685Y0072905D03*
X0111650Y0072940D03*
X0111650Y0072975D03*
X0111615Y0073010D03*
X0106155Y0073850D03*
X0102445Y0073220D03*
X0105700Y0079695D03*
X0105700Y0079730D03*
D85*
X0105630Y0080220D03*
X0113190Y0080990D03*
X0109445Y0068880D03*
D86*
X0111912Y0068880D03*
X0111912Y0068915D03*
X0105402Y0072415D03*
X0105998Y0073535D03*
X0106032Y0073570D03*
X0105682Y0079940D03*
D87*
X0105700Y0079765D03*
X0109795Y0080990D03*
X0106120Y0073780D03*
X0109445Y0068915D03*
X0111825Y0069300D03*
X0111825Y0070560D03*
X0111825Y0070595D03*
X0111825Y0070630D03*
X0111825Y0070665D03*
X0111825Y0070700D03*
X0111825Y0070735D03*
X0111825Y0070770D03*
X0111825Y0070805D03*
X0111825Y0070840D03*
X0111825Y0070875D03*
X0111825Y0070910D03*
X0111825Y0070945D03*
X0111825Y0070980D03*
X0111825Y0071015D03*
X0111825Y0071050D03*
X0111825Y0071085D03*
X0111825Y0071120D03*
X0111825Y0071155D03*
X0113890Y0070210D03*
X0113925Y0070280D03*
X0113925Y0070315D03*
X0113960Y0070350D03*
X0113960Y0070385D03*
X0113960Y0070420D03*
X0113995Y0070490D03*
X0113330Y0069125D03*
X0113295Y0069090D03*
X0113295Y0069055D03*
X0113260Y0069020D03*
X0115955Y0077245D03*
D88*
X0109830Y0073990D03*
X0109445Y0068950D03*
X0102480Y0073045D03*
X0105805Y0079100D03*
X0105805Y0079135D03*
D89*
X0105665Y0079905D03*
X0109795Y0081095D03*
X0113155Y0080710D03*
X0113155Y0080675D03*
X0111895Y0068950D03*
X0102445Y0073290D03*
D90*
X0106067Y0073640D03*
X0105683Y0079870D03*
X0109777Y0081060D03*
X0115973Y0077280D03*
X0111877Y0069055D03*
X0111877Y0069020D03*
X0111877Y0068985D03*
D91*
X0112175Y0074830D03*
X0112490Y0076790D03*
X0112490Y0076825D03*
X0112525Y0076930D03*
X0112525Y0076965D03*
X0112525Y0077000D03*
X0112560Y0077105D03*
X0112560Y0077140D03*
X0112560Y0077175D03*
X0112665Y0077560D03*
X0112665Y0077595D03*
X0112665Y0077630D03*
X0112665Y0077665D03*
X0112665Y0077700D03*
X0112700Y0077735D03*
X0112700Y0077770D03*
X0112700Y0077805D03*
X0112700Y0077840D03*
X0112735Y0077980D03*
X0112735Y0078015D03*
X0115500Y0075915D03*
X0115500Y0075880D03*
X0115465Y0075810D03*
X0106540Y0075810D03*
X0105315Y0069160D03*
X0105350Y0069125D03*
X0105385Y0069090D03*
D92*
X0106085Y0073675D03*
X0106085Y0073710D03*
X0111860Y0069160D03*
X0111860Y0069125D03*
X0111860Y0069090D03*
X0113435Y0069300D03*
X0113505Y0069405D03*
X0113540Y0069475D03*
X0113575Y0069545D03*
X0113610Y0069580D03*
X0113610Y0069615D03*
X0113645Y0069650D03*
X0113645Y0069685D03*
X0113680Y0069720D03*
X0113680Y0069755D03*
X0113715Y0069790D03*
X0113715Y0069825D03*
X0113750Y0069860D03*
X0113750Y0069895D03*
X0113785Y0069965D03*
X0113820Y0070035D03*
X0113155Y0080640D03*
D93*
X0109410Y0076475D03*
X0110950Y0071645D03*
X0110950Y0071610D03*
X0110950Y0071575D03*
X0110950Y0071540D03*
X0110950Y0071505D03*
X0110950Y0071470D03*
X0110950Y0071435D03*
X0110950Y0071400D03*
X0110950Y0071365D03*
X0110950Y0071330D03*
X0110950Y0071295D03*
X0110950Y0071260D03*
X0110950Y0071225D03*
X0110950Y0071190D03*
X0109410Y0069125D03*
X0104510Y0070140D03*
X0104475Y0070175D03*
X0114310Y0073395D03*
X0114310Y0073430D03*
D94*
X0114275Y0073535D03*
X0109410Y0076020D03*
X0109410Y0076055D03*
X0109410Y0076090D03*
X0109410Y0076125D03*
X0109410Y0069160D03*
D95*
X0113348Y0069160D03*
X0113452Y0069335D03*
X0113487Y0069370D03*
X0113523Y0069440D03*
X0113802Y0070000D03*
X0113837Y0070070D03*
X0113837Y0070105D03*
X0113873Y0070140D03*
X0113873Y0070175D03*
X0109848Y0074025D03*
X0106102Y0073745D03*
X0102427Y0073255D03*
X0109777Y0081025D03*
X0113137Y0080605D03*
D96*
X0112630Y0077525D03*
X0112630Y0077490D03*
X0112630Y0077455D03*
X0112630Y0077420D03*
X0112595Y0077350D03*
X0112595Y0077315D03*
X0112595Y0077280D03*
X0112595Y0077245D03*
X0112455Y0076650D03*
X0109655Y0079100D03*
X0109655Y0079135D03*
X0109655Y0079170D03*
X0109655Y0079205D03*
X0106505Y0075915D03*
X0106505Y0075880D03*
X0102655Y0072590D03*
X0105280Y0069195D03*
X0114380Y0072835D03*
D97*
X0114240Y0073710D03*
X0109410Y0069195D03*
X0104230Y0070560D03*
X0104195Y0070595D03*
D98*
X0105332Y0072380D03*
X0105682Y0079800D03*
X0105682Y0079835D03*
X0111842Y0069265D03*
X0111842Y0069230D03*
X0111842Y0069195D03*
X0113382Y0069195D03*
X0113382Y0069230D03*
X0113417Y0069265D03*
X0113557Y0069510D03*
X0113767Y0069930D03*
X0113907Y0070245D03*
D99*
X0114187Y0073885D03*
X0109392Y0069265D03*
X0104037Y0070875D03*
D100*
X0105175Y0069300D03*
X0106575Y0075705D03*
X0112350Y0076230D03*
D101*
X0114152Y0073990D03*
X0109392Y0069300D03*
X0103967Y0071015D03*
X0103967Y0071050D03*
X0103932Y0071085D03*
D102*
X0109952Y0069335D03*
D103*
X0109935Y0069370D03*
X0113785Y0074690D03*
D104*
X0113750Y0074725D03*
X0109900Y0069405D03*
D105*
X0108062Y0069545D03*
X0111562Y0069720D03*
X0114327Y0071855D03*
X0114327Y0071890D03*
X0113067Y0080010D03*
X0113067Y0080045D03*
X0109777Y0080500D03*
X0109777Y0080535D03*
X0105823Y0079065D03*
X0105823Y0079030D03*
X0106417Y0074270D03*
D106*
X0111370Y0069545D03*
X0114380Y0072485D03*
X0115710Y0076475D03*
X0115710Y0076510D03*
X0112945Y0079240D03*
X0112945Y0079275D03*
X0112945Y0079310D03*
D107*
X0115150Y0075145D03*
X0115150Y0075110D03*
X0115115Y0075075D03*
X0114345Y0073080D03*
X0109550Y0078050D03*
X0109550Y0078085D03*
X0109550Y0078120D03*
X0109550Y0078155D03*
X0109550Y0078190D03*
X0109550Y0078225D03*
X0106820Y0074760D03*
X0104930Y0069580D03*
D108*
X0104912Y0069615D03*
X0115062Y0075005D03*
D109*
X0115045Y0074970D03*
X0114345Y0073150D03*
X0114345Y0073115D03*
X0109795Y0073885D03*
X0106855Y0074795D03*
X0109515Y0077700D03*
X0109515Y0077735D03*
X0109515Y0077770D03*
X0109515Y0077805D03*
X0109515Y0077840D03*
X0104790Y0069755D03*
X0104825Y0069720D03*
D110*
X0104720Y0069860D03*
X0109480Y0077280D03*
X0109480Y0077315D03*
X0109480Y0077350D03*
X0109480Y0077385D03*
X0109480Y0077420D03*
X0109480Y0077455D03*
X0114345Y0073220D03*
D111*
X0114257Y0071470D03*
X0114257Y0071435D03*
X0114257Y0071400D03*
X0111667Y0069860D03*
X0107817Y0073080D03*
X0107782Y0073045D03*
D112*
X0104650Y0069930D03*
D113*
X0104633Y0069965D03*
X0104598Y0070000D03*
X0109427Y0076860D03*
X0114887Y0074760D03*
X0114327Y0073325D03*
D114*
X0114310Y0073360D03*
X0111895Y0074970D03*
X0109795Y0073850D03*
X0109445Y0076685D03*
X0109445Y0076720D03*
X0109445Y0076755D03*
X0109445Y0076790D03*
X0109445Y0076825D03*
X0106960Y0074865D03*
X0104580Y0070035D03*
D115*
X0107450Y0070070D03*
X0107450Y0070105D03*
X0107275Y0072205D03*
X0107275Y0072240D03*
X0107450Y0072590D03*
D116*
X0104457Y0070210D03*
X0109427Y0076335D03*
X0109427Y0076370D03*
X0109427Y0076405D03*
X0109427Y0076440D03*
X0114292Y0073465D03*
D117*
X0114292Y0073500D03*
X0111807Y0075005D03*
X0109427Y0076160D03*
X0104422Y0070245D03*
D118*
X0104405Y0070280D03*
X0104370Y0070315D03*
X0109795Y0073815D03*
D119*
X0109410Y0075880D03*
X0109410Y0075915D03*
X0109410Y0075950D03*
X0107065Y0074935D03*
X0104335Y0070385D03*
D120*
X0104317Y0070420D03*
X0104283Y0070455D03*
X0114258Y0073640D03*
D121*
X0104265Y0070490D03*
D122*
X0104248Y0070525D03*
X0109777Y0073780D03*
D123*
X0111737Y0072765D03*
X0111737Y0072730D03*
X0111737Y0072695D03*
X0114012Y0070560D03*
X0114012Y0070525D03*
X0113137Y0080535D03*
X0113137Y0080570D03*
X0106137Y0073815D03*
D124*
X0107152Y0074970D03*
X0104177Y0070630D03*
X0114222Y0073745D03*
D125*
X0104160Y0070665D03*
D126*
X0104142Y0070700D03*
X0109777Y0073745D03*
X0111632Y0075040D03*
X0114222Y0073780D03*
D127*
X0104107Y0070770D03*
X0104073Y0070805D03*
D128*
X0104055Y0070840D03*
X0107240Y0075005D03*
X0114205Y0073850D03*
D129*
X0114170Y0073920D03*
X0109760Y0073710D03*
X0104020Y0070910D03*
D130*
X0104002Y0070945D03*
D131*
X0103915Y0071120D03*
X0109760Y0073675D03*
D132*
X0114152Y0074025D03*
X0103897Y0071155D03*
D133*
X0103880Y0071190D03*
X0103880Y0071225D03*
X0107380Y0075040D03*
D134*
X0109760Y0073640D03*
X0103845Y0071330D03*
X0103845Y0071295D03*
D135*
X0103827Y0071365D03*
X0114117Y0074130D03*
D136*
X0114100Y0074165D03*
X0103810Y0071400D03*
D137*
X0103792Y0071435D03*
X0103792Y0071470D03*
X0109742Y0073605D03*
D138*
X0103757Y0071610D03*
X0103757Y0071575D03*
D139*
X0103740Y0071645D03*
X0103740Y0071680D03*
X0114065Y0074235D03*
D140*
X0110967Y0071680D03*
D141*
X0103740Y0071715D03*
D142*
X0103705Y0071855D03*
X0103705Y0071890D03*
X0114030Y0074305D03*
D143*
X0114012Y0074340D03*
X0103687Y0071960D03*
X0103687Y0071925D03*
D144*
X0103705Y0071995D03*
X0113995Y0074375D03*
D145*
X0103687Y0072100D03*
X0103687Y0072065D03*
X0103687Y0072030D03*
D146*
X0102498Y0072940D03*
X0106487Y0074375D03*
X0109777Y0080325D03*
X0109777Y0080360D03*
X0115798Y0076790D03*
X0114327Y0072100D03*
D147*
X0103670Y0072135D03*
D148*
X0103687Y0072170D03*
X0103687Y0072205D03*
X0103687Y0072240D03*
D149*
X0106540Y0074445D03*
X0105945Y0078295D03*
X0105945Y0078330D03*
X0105945Y0078365D03*
X0109760Y0080115D03*
X0109760Y0080150D03*
X0109760Y0080185D03*
X0113015Y0079695D03*
X0113015Y0079660D03*
X0115780Y0076720D03*
X0115780Y0076685D03*
X0114345Y0072275D03*
D150*
X0103687Y0072310D03*
X0103687Y0072345D03*
D151*
X0105455Y0072450D03*
X0105980Y0073465D03*
X0105980Y0073500D03*
X0109795Y0081130D03*
X0113155Y0080745D03*
D152*
X0113155Y0080780D03*
X0109795Y0081165D03*
X0105665Y0080010D03*
X0105945Y0073395D03*
X0105945Y0073360D03*
X0105910Y0073325D03*
X0105490Y0072485D03*
D153*
X0105507Y0072520D03*
X0105542Y0072555D03*
X0105892Y0073290D03*
X0102427Y0073325D03*
X0105647Y0080045D03*
D154*
X0106120Y0077350D03*
X0106120Y0077315D03*
X0106120Y0077280D03*
X0106155Y0077245D03*
X0106155Y0077210D03*
X0106155Y0077175D03*
X0106155Y0077140D03*
X0106190Y0077035D03*
X0106190Y0077000D03*
X0106610Y0074550D03*
X0102585Y0072730D03*
X0109725Y0079730D03*
X0109725Y0079765D03*
X0109725Y0079800D03*
X0112910Y0079100D03*
X0112910Y0079065D03*
X0112910Y0079030D03*
X0115675Y0076405D03*
X0115675Y0076370D03*
X0114380Y0072590D03*
X0114380Y0072555D03*
D155*
X0113155Y0080815D03*
X0109795Y0081200D03*
X0105875Y0073255D03*
X0105875Y0073220D03*
X0105840Y0073150D03*
X0105560Y0072590D03*
D156*
X0105665Y0072765D03*
X0105665Y0072800D03*
X0105700Y0072835D03*
X0105700Y0072870D03*
X0105735Y0072905D03*
X0105735Y0072940D03*
X0105770Y0072975D03*
X0105770Y0073010D03*
X0105805Y0073080D03*
X0109795Y0081235D03*
D157*
X0109760Y0080045D03*
X0106015Y0077910D03*
X0102550Y0072835D03*
D158*
X0112052Y0074900D03*
X0114362Y0073045D03*
X0115202Y0075215D03*
X0115202Y0075250D03*
X0115237Y0075285D03*
D159*
X0105787Y0079240D03*
X0105787Y0079275D03*
X0102462Y0073080D03*
D160*
X0105857Y0073185D03*
X0116007Y0077350D03*
D161*
X0113190Y0080885D03*
X0109795Y0081270D03*
X0102445Y0073360D03*
D162*
X0102427Y0073395D03*
D163*
X0105962Y0073430D03*
D164*
X0109742Y0073570D03*
X0114047Y0074270D03*
D165*
X0106050Y0073605D03*
D166*
X0114275Y0073605D03*
D167*
X0114205Y0073815D03*
D168*
X0114135Y0074060D03*
D169*
X0113977Y0074410D03*
D170*
X0113942Y0074480D03*
D171*
X0109725Y0079870D03*
X0109725Y0079905D03*
X0106050Y0077770D03*
X0106050Y0077735D03*
X0106050Y0077700D03*
X0106050Y0077665D03*
X0106575Y0074515D03*
D172*
X0113925Y0074515D03*
D173*
X0113890Y0074550D03*
D174*
X0113837Y0074620D03*
D175*
X0113802Y0074655D03*
D176*
X0109410Y0075075D03*
X0109410Y0075110D03*
D177*
X0109392Y0075145D03*
X0109392Y0075180D03*
X0109392Y0075215D03*
X0109392Y0075250D03*
D178*
X0109410Y0075285D03*
D179*
X0109392Y0075320D03*
X0109392Y0075355D03*
X0109392Y0075390D03*
X0109392Y0075425D03*
D180*
X0109410Y0075460D03*
D181*
X0109392Y0075495D03*
X0109392Y0075530D03*
X0109392Y0075565D03*
X0109392Y0075600D03*
D182*
X0109410Y0075635D03*
D183*
X0109392Y0075670D03*
D184*
X0110635Y0075775D03*
X0110635Y0075810D03*
D185*
X0112980Y0079450D03*
X0112980Y0079485D03*
X0112980Y0079520D03*
X0115745Y0076615D03*
X0115745Y0076580D03*
X0105980Y0078050D03*
X0105980Y0078085D03*
X0105980Y0078120D03*
D186*
X0105927Y0078400D03*
X0105927Y0078435D03*
X0105927Y0078470D03*
X0105927Y0078505D03*
X0109777Y0080220D03*
X0115797Y0076755D03*
D187*
X0115850Y0076930D03*
X0113050Y0079975D03*
D188*
X0115990Y0077315D03*
X0105665Y0079975D03*
D189*
X0109812Y0081305D03*
X0116042Y0077385D03*
D190*
X0113032Y0079800D03*
X0113032Y0079835D03*
X0105892Y0078680D03*
X0105892Y0078645D03*
D191*
X0105648Y0080115D03*
D192*
X0105648Y0080150D03*
D193*
X0105630Y0080185D03*
D194*
X0105630Y0080255D03*
X0109830Y0081410D03*
D195*
X0113190Y0080920D03*
D196*
X0113172Y0080955D03*
D197*
X0113207Y0081025D03*
D198*
X0109812Y0081340D03*
D199*
X0109830Y0081375D03*
D200*
X0110260Y0046100D03*
X0110260Y0045100D03*
X0110060Y0044300D03*
X0110060Y0044100D03*
X0110060Y0043900D03*
X0110060Y0043700D03*
X0110060Y0043500D03*
X0110700Y0043500D03*
X0110740Y0043300D03*
X0110860Y0042900D03*
X0110060Y0042700D03*
X0110060Y0042500D03*
X0110060Y0042300D03*
X0110060Y0041500D03*
X0108900Y0042300D03*
X0108900Y0042500D03*
X0108900Y0042700D03*
X0107540Y0042700D03*
X0107540Y0042500D03*
X0107540Y0042300D03*
X0107540Y0042100D03*
X0107540Y0041900D03*
X0107540Y0041700D03*
X0107540Y0041500D03*
X0106700Y0041500D03*
X0106700Y0042100D03*
X0106700Y0042900D03*
X0107540Y0043500D03*
X0108660Y0044700D03*
X0108660Y0044900D03*
X0108660Y0045100D03*
X0108660Y0045300D03*
X0108660Y0045500D03*
X0108660Y0045700D03*
X0108660Y0045900D03*
X0107500Y0045900D03*
X0106740Y0045900D03*
X0105540Y0045300D03*
X0103660Y0045500D03*
X0103660Y0045700D03*
X0103660Y0045900D03*
X0102900Y0045900D03*
X0102900Y0045700D03*
X0102900Y0045500D03*
X0102900Y0045300D03*
X0103660Y0044500D03*
X0103660Y0044300D03*
X0103660Y0044100D03*
X0103660Y0043900D03*
X0103660Y0043700D03*
X0103660Y0043500D03*
X0103660Y0042700D03*
X0103660Y0042500D03*
X0103660Y0042300D03*
X0103660Y0042100D03*
X0103660Y0041900D03*
X0103660Y0041700D03*
X0103660Y0041500D03*
X0111900Y0043300D03*
X0112900Y0042900D03*
X0114700Y0042900D03*
X0114700Y0042100D03*
X0115540Y0042100D03*
X0115540Y0042300D03*
X0115540Y0042500D03*
X0115540Y0042700D03*
X0115540Y0041900D03*
X0115540Y0041700D03*
X0115540Y0041500D03*
X0116940Y0042100D03*
X0116940Y0042900D03*
X0115540Y0043500D03*
X0116060Y0044700D03*
X0116060Y0044900D03*
X0116060Y0045100D03*
X0116060Y0045300D03*
X0116060Y0045500D03*
X0116060Y0045700D03*
X0116060Y0045900D03*
X0117340Y0045700D03*
X0117340Y0045500D03*
X0119060Y0045900D03*
X0119140Y0046100D03*
X0113300Y0045700D03*
X0113260Y0045900D03*
X0113260Y0045300D03*
X0112060Y0045300D03*
X0112060Y0045500D03*
X0112060Y0045700D03*
X0112060Y0045900D03*
D201*
X0111420Y0045300D03*
X0110820Y0043100D03*
X0112980Y0043100D03*
X0113020Y0043300D03*
X0114020Y0045500D03*
X0114020Y0045700D03*
X0114020Y0045900D03*
X0114020Y0046100D03*
X0114020Y0046300D03*
X0114020Y0046500D03*
X0115220Y0046500D03*
X0115220Y0046300D03*
X0115220Y0046100D03*
X0115220Y0045900D03*
X0115220Y0045700D03*
X0115220Y0045500D03*
X0117380Y0045300D03*
X0117380Y0045900D03*
X0104820Y0045900D03*
X0104820Y0045700D03*
X0104820Y0045500D03*
X0104820Y0045300D03*
X0104820Y0042700D03*
X0104820Y0042500D03*
X0104820Y0042300D03*
X0104820Y0042100D03*
X0104820Y0041900D03*
X0104820Y0041700D03*
X0104820Y0041500D03*
D202*
X0106020Y0041500D03*
X0114020Y0041500D03*
X0117580Y0041500D03*
D203*
X0117520Y0043500D03*
X0115440Y0048300D03*
X0113160Y0045100D03*
X0111880Y0043100D03*
X0109360Y0041500D03*
X0110360Y0045900D03*
X0106520Y0048300D03*
X0105640Y0045100D03*
X0104720Y0045100D03*
D204*
X0101700Y0045700D03*
X0108700Y0048900D03*
X0111300Y0041500D03*
D205*
X0111000Y0042500D03*
X0110920Y0042700D03*
X0111600Y0042500D03*
X0112800Y0042500D03*
X0112840Y0042700D03*
X0113520Y0042100D03*
X0112480Y0041500D03*
X0114720Y0041500D03*
X0113280Y0045500D03*
X0118440Y0045100D03*
X0119080Y0045300D03*
X0120240Y0045900D03*
X0107480Y0045700D03*
X0107480Y0045500D03*
X0107480Y0045300D03*
X0107480Y0045100D03*
X0107480Y0044900D03*
X0107480Y0044700D03*
X0105520Y0045900D03*
X0105520Y0042100D03*
X0101720Y0045300D03*
X0101720Y0045500D03*
X0101720Y0045900D03*
D206*
X0101740Y0046020D03*
X0101740Y0045220D03*
X0102860Y0045220D03*
X0102900Y0045340D03*
X0102900Y0045380D03*
X0102900Y0045420D03*
X0102900Y0045460D03*
X0102900Y0045540D03*
X0102900Y0045580D03*
X0102900Y0045620D03*
X0102900Y0045660D03*
X0102900Y0045740D03*
X0102900Y0045780D03*
X0102900Y0045820D03*
X0102900Y0045860D03*
X0102900Y0045940D03*
X0102860Y0046020D03*
X0103660Y0045860D03*
X0103660Y0045820D03*
X0103660Y0045780D03*
X0103660Y0045740D03*
X0103660Y0045660D03*
X0103660Y0045620D03*
X0103660Y0045580D03*
X0103660Y0045540D03*
X0103660Y0045460D03*
X0103660Y0045420D03*
X0103660Y0045380D03*
X0103660Y0045340D03*
X0103660Y0044660D03*
X0103660Y0044620D03*
X0103660Y0044580D03*
X0103660Y0044540D03*
X0103660Y0044460D03*
X0103660Y0044420D03*
X0103660Y0044380D03*
X0103660Y0044340D03*
X0103660Y0044260D03*
X0103660Y0044220D03*
X0103660Y0044180D03*
X0103660Y0044140D03*
X0103660Y0044060D03*
X0103660Y0044020D03*
X0103660Y0043980D03*
X0103660Y0043940D03*
X0103660Y0043860D03*
X0103660Y0043820D03*
X0103660Y0043780D03*
X0103660Y0043740D03*
X0103660Y0043660D03*
X0103660Y0043620D03*
X0103660Y0043580D03*
X0103660Y0043540D03*
X0103660Y0043460D03*
X0103660Y0042820D03*
X0103660Y0042780D03*
X0103660Y0042740D03*
X0103660Y0042660D03*
X0103660Y0042620D03*
X0103660Y0042580D03*
X0103660Y0042540D03*
X0103660Y0042460D03*
X0103660Y0042420D03*
X0103660Y0042380D03*
X0103660Y0042340D03*
X0103660Y0042260D03*
X0103660Y0042220D03*
X0103660Y0042180D03*
X0103660Y0042140D03*
X0103660Y0042060D03*
X0103660Y0042020D03*
X0103660Y0041980D03*
X0103660Y0041940D03*
X0103660Y0041860D03*
X0103660Y0041820D03*
X0103660Y0041780D03*
X0103660Y0041740D03*
X0103660Y0041660D03*
X0103660Y0041620D03*
X0103660Y0041580D03*
X0103660Y0041540D03*
X0105540Y0041980D03*
X0105540Y0042220D03*
X0106700Y0042220D03*
X0106700Y0042260D03*
X0106700Y0042180D03*
X0106700Y0042140D03*
X0106700Y0042060D03*
X0106700Y0042020D03*
X0106700Y0042740D03*
X0106700Y0042780D03*
X0106700Y0042820D03*
X0106700Y0042860D03*
X0106700Y0042940D03*
X0106700Y0042980D03*
X0107540Y0042780D03*
X0107540Y0042740D03*
X0107540Y0042660D03*
X0107540Y0042620D03*
X0107540Y0042580D03*
X0107540Y0042540D03*
X0107540Y0042460D03*
X0107540Y0042420D03*
X0107540Y0042380D03*
X0107540Y0042340D03*
X0107540Y0042260D03*
X0107540Y0042220D03*
X0107540Y0042180D03*
X0107540Y0042140D03*
X0107540Y0042060D03*
X0107540Y0042020D03*
X0107540Y0041980D03*
X0107540Y0041940D03*
X0107540Y0041860D03*
X0107540Y0041820D03*
X0107540Y0041780D03*
X0107540Y0041740D03*
X0107540Y0041660D03*
X0107540Y0041620D03*
X0107540Y0041580D03*
X0107540Y0041540D03*
X0108900Y0042180D03*
X0108900Y0042220D03*
X0108900Y0042260D03*
X0108900Y0042340D03*
X0108900Y0042380D03*
X0108900Y0042420D03*
X0108900Y0042460D03*
X0108900Y0042540D03*
X0108900Y0042580D03*
X0108900Y0042620D03*
X0108900Y0042660D03*
X0108900Y0042740D03*
X0108900Y0042780D03*
X0108900Y0042820D03*
X0110060Y0042820D03*
X0110060Y0042780D03*
X0110060Y0042740D03*
X0110060Y0042660D03*
X0110060Y0042620D03*
X0110060Y0042580D03*
X0110060Y0042540D03*
X0110060Y0042460D03*
X0110060Y0042420D03*
X0110060Y0042380D03*
X0110060Y0042340D03*
X0110060Y0042260D03*
X0110060Y0042220D03*
X0110060Y0042180D03*
X0110060Y0041540D03*
X0111300Y0041580D03*
X0111300Y0041620D03*
X0110940Y0042660D03*
X0110900Y0042780D03*
X0110900Y0042820D03*
X0110860Y0042940D03*
X0110860Y0042980D03*
X0110740Y0043340D03*
X0110740Y0043380D03*
X0110700Y0043460D03*
X0110060Y0043460D03*
X0110060Y0043540D03*
X0110060Y0043580D03*
X0110060Y0043620D03*
X0110060Y0043660D03*
X0110060Y0043740D03*
X0110060Y0043780D03*
X0110060Y0043820D03*
X0110060Y0043860D03*
X0110060Y0043940D03*
X0110060Y0043980D03*
X0110060Y0044020D03*
X0110060Y0044060D03*
X0110060Y0044140D03*
X0110060Y0044180D03*
X0110060Y0044220D03*
X0110060Y0044260D03*
X0108660Y0044580D03*
X0108660Y0044620D03*
X0108660Y0044660D03*
X0108660Y0044740D03*
X0108660Y0044780D03*
X0108660Y0044820D03*
X0108660Y0044860D03*
X0108660Y0044940D03*
X0108660Y0044980D03*
X0108660Y0045020D03*
X0108660Y0045060D03*
X0108660Y0045140D03*
X0108660Y0045180D03*
X0108660Y0045220D03*
X0108660Y0045260D03*
X0108660Y0045340D03*
X0108660Y0045380D03*
X0108660Y0045420D03*
X0108660Y0045460D03*
X0108660Y0045540D03*
X0108660Y0045580D03*
X0108660Y0045620D03*
X0108660Y0045660D03*
X0108660Y0045740D03*
X0108660Y0045780D03*
X0108660Y0045820D03*
X0108660Y0045860D03*
X0108660Y0045940D03*
X0107500Y0045940D03*
X0107500Y0045980D03*
X0106700Y0045980D03*
X0106700Y0046020D03*
X0106700Y0045940D03*
X0105540Y0045940D03*
X0105540Y0045980D03*
X0105540Y0045860D03*
X0105540Y0045340D03*
X0105540Y0045260D03*
X0105540Y0045220D03*
X0106500Y0048260D03*
X0107540Y0043460D03*
X0107540Y0043420D03*
X0110260Y0045980D03*
X0110260Y0046020D03*
X0110260Y0046060D03*
X0110300Y0046140D03*
X0112060Y0045940D03*
X0112100Y0045980D03*
X0112100Y0046020D03*
X0112060Y0045860D03*
X0112060Y0045820D03*
X0112060Y0045780D03*
X0112060Y0045740D03*
X0112060Y0045660D03*
X0112060Y0045620D03*
X0112060Y0045580D03*
X0112060Y0045540D03*
X0112060Y0045460D03*
X0112060Y0045420D03*
X0112060Y0045380D03*
X0112060Y0045340D03*
X0112100Y0045260D03*
X0112100Y0045220D03*
X0113260Y0045260D03*
X0113260Y0045340D03*
X0113260Y0045380D03*
X0113300Y0045540D03*
X0113300Y0045580D03*
X0113300Y0045620D03*
X0113300Y0045660D03*
X0113260Y0045860D03*
X0113260Y0045940D03*
X0113260Y0045980D03*
X0113060Y0043420D03*
X0113060Y0043380D03*
X0112940Y0043060D03*
X0112940Y0043020D03*
X0112940Y0042980D03*
X0112900Y0042860D03*
X0112860Y0042740D03*
X0113540Y0042220D03*
X0113540Y0042020D03*
X0113540Y0041980D03*
X0112500Y0041580D03*
X0114700Y0042020D03*
X0114700Y0042060D03*
X0114700Y0042140D03*
X0114700Y0042180D03*
X0114700Y0042740D03*
X0114700Y0042940D03*
X0114700Y0042980D03*
X0115540Y0042740D03*
X0115540Y0042660D03*
X0115540Y0042620D03*
X0115540Y0042580D03*
X0115540Y0042540D03*
X0115540Y0042460D03*
X0115540Y0042420D03*
X0115540Y0042380D03*
X0115540Y0042340D03*
X0115540Y0042260D03*
X0115540Y0042220D03*
X0115540Y0042180D03*
X0115540Y0042140D03*
X0115540Y0042060D03*
X0115540Y0042020D03*
X0115540Y0041980D03*
X0115540Y0041940D03*
X0115540Y0041860D03*
X0115540Y0041820D03*
X0115540Y0041780D03*
X0115540Y0041740D03*
X0115540Y0041660D03*
X0115540Y0041620D03*
X0115540Y0041580D03*
X0115540Y0041540D03*
X0116940Y0042140D03*
X0116900Y0042260D03*
X0116940Y0042860D03*
X0118100Y0042860D03*
X0118100Y0042820D03*
X0118100Y0042780D03*
X0118100Y0042740D03*
X0120100Y0045060D03*
X0119100Y0045220D03*
X0119100Y0045260D03*
X0119060Y0045340D03*
X0119060Y0045380D03*
X0119060Y0045860D03*
X0119100Y0046020D03*
X0117340Y0045860D03*
X0117340Y0045820D03*
X0117340Y0045780D03*
X0117340Y0045740D03*
X0117340Y0045660D03*
X0117340Y0045620D03*
X0117340Y0045580D03*
X0117340Y0045540D03*
X0117340Y0045460D03*
X0117340Y0045420D03*
X0117340Y0045380D03*
X0116060Y0045380D03*
X0116060Y0045420D03*
X0116060Y0045460D03*
X0116060Y0045540D03*
X0116060Y0045580D03*
X0116060Y0045620D03*
X0116060Y0045660D03*
X0116060Y0045740D03*
X0116060Y0045780D03*
X0116060Y0045820D03*
X0116060Y0045860D03*
X0116060Y0045940D03*
X0116060Y0045980D03*
X0116060Y0046580D03*
X0116060Y0046620D03*
X0116060Y0045340D03*
X0116060Y0045260D03*
X0116060Y0045220D03*
X0116060Y0045180D03*
X0116060Y0045140D03*
X0116060Y0045060D03*
X0116060Y0045020D03*
X0116060Y0044980D03*
X0116060Y0044940D03*
X0116060Y0044860D03*
X0116060Y0044820D03*
X0116060Y0044780D03*
X0116060Y0044740D03*
X0116060Y0044660D03*
X0116060Y0044620D03*
X0115540Y0043460D03*
X0115540Y0043420D03*
X0115460Y0048260D03*
X0103660Y0046620D03*
X0103660Y0046580D03*
D207*
X0104820Y0045940D03*
X0104820Y0045860D03*
X0104820Y0045820D03*
X0104820Y0045780D03*
X0104820Y0045740D03*
X0104820Y0045660D03*
X0104820Y0045580D03*
X0104820Y0045540D03*
X0104820Y0045460D03*
X0104820Y0045420D03*
X0104820Y0045380D03*
X0104820Y0045340D03*
X0105580Y0045180D03*
X0105580Y0046060D03*
X0106580Y0045060D03*
X0104820Y0042860D03*
X0104820Y0042820D03*
X0104820Y0042780D03*
X0104820Y0042740D03*
X0104820Y0042660D03*
X0104820Y0042620D03*
X0104820Y0042580D03*
X0104820Y0042540D03*
X0104820Y0042460D03*
X0104820Y0042420D03*
X0104820Y0042380D03*
X0104820Y0042340D03*
X0104820Y0042260D03*
X0104820Y0042220D03*
X0104820Y0042180D03*
X0104820Y0042140D03*
X0104820Y0042060D03*
X0104820Y0042020D03*
X0104820Y0041980D03*
X0104820Y0041940D03*
X0104820Y0041860D03*
X0104820Y0041820D03*
X0104820Y0041780D03*
X0104820Y0041740D03*
X0104820Y0041660D03*
X0104820Y0041620D03*
X0104820Y0041580D03*
X0104820Y0041540D03*
X0110780Y0043140D03*
X0110780Y0043180D03*
X0110780Y0043220D03*
X0110820Y0043060D03*
X0110820Y0043020D03*
X0110980Y0042540D03*
X0110820Y0044580D03*
X0111420Y0045180D03*
X0111420Y0045220D03*
X0111420Y0045260D03*
X0110820Y0046660D03*
X0113020Y0043260D03*
X0113020Y0043220D03*
X0112980Y0043180D03*
X0112980Y0043140D03*
X0112820Y0042620D03*
X0112820Y0042580D03*
X0112780Y0042460D03*
X0114020Y0045340D03*
X0114020Y0045380D03*
X0114020Y0045420D03*
X0114020Y0045460D03*
X0114020Y0045540D03*
X0114020Y0045580D03*
X0114020Y0045620D03*
X0114020Y0045660D03*
X0114020Y0045740D03*
X0114020Y0045780D03*
X0114020Y0045820D03*
X0114020Y0045860D03*
X0114020Y0045940D03*
X0114020Y0045980D03*
X0114020Y0046020D03*
X0114020Y0046060D03*
X0114020Y0046140D03*
X0114020Y0046180D03*
X0114020Y0046220D03*
X0114020Y0046260D03*
X0114020Y0046340D03*
X0114020Y0046380D03*
X0114020Y0046420D03*
X0114020Y0046460D03*
X0114020Y0046540D03*
X0114020Y0046580D03*
X0114020Y0046620D03*
X0115220Y0046620D03*
X0115220Y0046580D03*
X0115220Y0046540D03*
X0115220Y0046460D03*
X0115220Y0046420D03*
X0115220Y0046380D03*
X0115220Y0046340D03*
X0115220Y0046260D03*
X0115220Y0046220D03*
X0115220Y0046180D03*
X0115220Y0046140D03*
X0115220Y0046060D03*
X0115220Y0046020D03*
X0115220Y0045980D03*
X0115220Y0045940D03*
X0115220Y0045860D03*
X0115220Y0045820D03*
X0115220Y0045780D03*
X0115220Y0045740D03*
X0115220Y0045660D03*
X0115220Y0045620D03*
X0115220Y0045580D03*
X0115220Y0045540D03*
X0115220Y0045460D03*
X0115220Y0045420D03*
X0115220Y0045380D03*
X0115220Y0045340D03*
X0115220Y0044660D03*
X0115220Y0044620D03*
X0117380Y0045340D03*
X0117380Y0045940D03*
X0120220Y0046020D03*
X0120220Y0046060D03*
X0116980Y0042940D03*
X0116980Y0042060D03*
D208*
X0115980Y0043260D03*
X0114260Y0042620D03*
X0114260Y0041540D03*
X0112660Y0046340D03*
X0110860Y0046460D03*
X0110820Y0045660D03*
X0110860Y0045620D03*
X0110900Y0045580D03*
X0110780Y0044780D03*
X0109620Y0043420D03*
X0107980Y0043260D03*
X0106260Y0042620D03*
X0106260Y0041540D03*
X0104100Y0043420D03*
X0104100Y0046540D03*
X0106140Y0046340D03*
X0107940Y0046540D03*
X0109620Y0041580D03*
X0116500Y0046420D03*
X0116500Y0046540D03*
X0118020Y0046380D03*
X0118020Y0044860D03*
X0102300Y0046340D03*
D209*
X0108600Y0049060D03*
X0110840Y0046620D03*
X0110800Y0044620D03*
X0111880Y0042860D03*
X0112480Y0042060D03*
X0112480Y0042020D03*
X0111280Y0042020D03*
X0111280Y0042060D03*
X0109920Y0041940D03*
X0109360Y0041540D03*
X0113360Y0049060D03*
X0117520Y0043460D03*
X0115400Y0059740D03*
X0106560Y0059740D03*
D210*
X0106520Y0059860D03*
X0115440Y0059860D03*
X0115200Y0046660D03*
X0116040Y0046660D03*
X0114040Y0046660D03*
X0113280Y0045820D03*
X0113280Y0045780D03*
X0113280Y0045740D03*
X0113280Y0045460D03*
X0113280Y0045420D03*
X0112680Y0044580D03*
X0111880Y0043380D03*
X0111880Y0043340D03*
X0111640Y0042660D03*
X0111640Y0042620D03*
X0111560Y0042380D03*
X0111040Y0042380D03*
X0111040Y0042340D03*
X0111000Y0042420D03*
X0111000Y0042460D03*
X0110960Y0042580D03*
X0110960Y0042620D03*
X0110920Y0042740D03*
X0110880Y0042860D03*
X0112160Y0042580D03*
X0112160Y0042540D03*
X0112200Y0042460D03*
X0112200Y0042420D03*
X0112760Y0042420D03*
X0112760Y0042380D03*
X0112800Y0042540D03*
X0112840Y0042660D03*
X0112880Y0042780D03*
X0112880Y0042820D03*
X0112920Y0042940D03*
X0113520Y0042180D03*
X0113520Y0042140D03*
X0113520Y0042060D03*
X0112480Y0041540D03*
X0111280Y0041540D03*
X0110080Y0044340D03*
X0111240Y0046180D03*
X0112680Y0046660D03*
X0114080Y0043540D03*
X0114720Y0042860D03*
X0114720Y0042820D03*
X0114720Y0042780D03*
X0114720Y0042260D03*
X0114720Y0042220D03*
X0115200Y0044580D03*
X0116040Y0044580D03*
X0116920Y0042820D03*
X0116920Y0042780D03*
X0116920Y0042740D03*
X0116920Y0042220D03*
X0116920Y0042180D03*
X0117960Y0041940D03*
X0119720Y0044580D03*
X0120240Y0045860D03*
X0120240Y0045940D03*
X0120240Y0045980D03*
X0119080Y0045980D03*
X0119080Y0045940D03*
X0118040Y0046660D03*
X0107480Y0046660D03*
X0107480Y0046620D03*
X0107480Y0046580D03*
X0107480Y0045860D03*
X0107480Y0045820D03*
X0107480Y0045780D03*
X0107480Y0045740D03*
X0107480Y0045660D03*
X0107480Y0045620D03*
X0107480Y0045580D03*
X0107480Y0045540D03*
X0107480Y0045460D03*
X0107480Y0045420D03*
X0107480Y0045380D03*
X0107480Y0045340D03*
X0107480Y0045260D03*
X0107480Y0045220D03*
X0107480Y0045180D03*
X0107480Y0045140D03*
X0107480Y0045060D03*
X0107480Y0045020D03*
X0107480Y0044980D03*
X0107480Y0044940D03*
X0107480Y0044860D03*
X0107480Y0044820D03*
X0107480Y0044780D03*
X0107480Y0044740D03*
X0107480Y0044660D03*
X0107480Y0044620D03*
X0107480Y0044580D03*
X0106080Y0043540D03*
X0105520Y0042180D03*
X0105520Y0042140D03*
X0105520Y0042060D03*
X0105520Y0042020D03*
X0105520Y0045380D03*
X0105560Y0046020D03*
X0104840Y0045620D03*
X0103640Y0046660D03*
X0102280Y0046660D03*
X0101720Y0045980D03*
X0101720Y0045940D03*
X0101720Y0045860D03*
X0101720Y0045820D03*
X0101720Y0045780D03*
X0101720Y0045740D03*
X0101720Y0045460D03*
X0101720Y0045420D03*
X0101720Y0045380D03*
X0101720Y0045340D03*
X0101720Y0045260D03*
D211*
X0106120Y0046540D03*
X0111280Y0042260D03*
X0117560Y0041540D03*
X0117520Y0043420D03*
X0119720Y0044660D03*
X0119680Y0046540D03*
D212*
X0119720Y0044860D03*
X0117520Y0043180D03*
X0114240Y0042580D03*
X0114120Y0043260D03*
X0114240Y0041580D03*
X0112680Y0044940D03*
X0110880Y0046420D03*
X0106240Y0041580D03*
X0104120Y0043380D03*
X0104120Y0044740D03*
X0115360Y0048620D03*
X0116520Y0046460D03*
D213*
X0117580Y0041580D03*
X0111100Y0045420D03*
X0102300Y0044740D03*
X0106580Y0059620D03*
X0115380Y0059620D03*
D214*
X0115360Y0048660D03*
X0117960Y0046180D03*
X0117960Y0045060D03*
X0118040Y0044940D03*
X0117560Y0041860D03*
X0117600Y0041780D03*
X0114200Y0041660D03*
X0114200Y0042540D03*
X0114160Y0043180D03*
X0110800Y0046260D03*
X0108000Y0046420D03*
X0106600Y0048660D03*
X0104160Y0046420D03*
X0104160Y0044820D03*
X0106160Y0044980D03*
X0106200Y0042540D03*
X0106200Y0041620D03*
D215*
X0106200Y0044860D03*
X0106600Y0048620D03*
X0109600Y0043380D03*
X0109600Y0041620D03*
D216*
X0110040Y0042060D03*
X0110040Y0042140D03*
X0110040Y0042860D03*
X0110760Y0043260D03*
X0110720Y0043420D03*
X0111880Y0043260D03*
X0111880Y0043220D03*
X0113040Y0043340D03*
X0113080Y0043460D03*
X0114680Y0043020D03*
X0115560Y0042860D03*
X0115560Y0042820D03*
X0115560Y0042780D03*
X0114680Y0041980D03*
X0112480Y0041660D03*
X0112480Y0041620D03*
X0111280Y0041660D03*
X0108960Y0042020D03*
X0108920Y0042060D03*
X0108920Y0042140D03*
X0108920Y0042860D03*
X0107560Y0042860D03*
X0107560Y0042820D03*
X0106680Y0043020D03*
X0106680Y0041980D03*
X0103680Y0042860D03*
X0103680Y0045220D03*
X0103680Y0045260D03*
X0103680Y0045940D03*
X0103680Y0045980D03*
X0103680Y0046020D03*
X0102880Y0045980D03*
X0102840Y0046060D03*
X0102880Y0045260D03*
X0102840Y0045180D03*
X0101760Y0045180D03*
X0101760Y0046060D03*
X0104800Y0046060D03*
X0104800Y0046020D03*
X0104800Y0045980D03*
X0104800Y0045260D03*
X0104800Y0045220D03*
X0104800Y0045180D03*
X0105600Y0045140D03*
X0106720Y0045860D03*
X0106680Y0046060D03*
X0107520Y0046060D03*
X0107520Y0046020D03*
X0108640Y0046020D03*
X0108640Y0045980D03*
X0110280Y0045940D03*
X0111400Y0045340D03*
X0111400Y0045140D03*
X0112120Y0045180D03*
X0112120Y0046060D03*
X0113240Y0046060D03*
X0113240Y0046020D03*
X0113240Y0045220D03*
X0113240Y0045180D03*
X0113200Y0045140D03*
X0114040Y0045260D03*
X0114080Y0045220D03*
X0114080Y0045180D03*
X0115200Y0045260D03*
X0116080Y0046020D03*
X0117400Y0046020D03*
X0117400Y0045980D03*
X0117440Y0046060D03*
X0117400Y0045260D03*
X0117400Y0045220D03*
X0117440Y0045180D03*
X0119120Y0045180D03*
X0119160Y0045140D03*
X0119120Y0046060D03*
X0118040Y0042980D03*
X0118080Y0042940D03*
X0117000Y0042980D03*
X0117000Y0042020D03*
X0113280Y0048940D03*
X0108680Y0048940D03*
D217*
X0107980Y0046460D03*
X0108020Y0043380D03*
X0108020Y0043340D03*
X0109580Y0043340D03*
X0109580Y0041660D03*
X0110780Y0044820D03*
X0110780Y0046220D03*
X0114740Y0044740D03*
X0114180Y0043140D03*
X0114220Y0041620D03*
X0116020Y0043340D03*
X0116020Y0043380D03*
X0117540Y0043140D03*
X0117580Y0041740D03*
X0119660Y0045020D03*
X0119660Y0046260D03*
X0118020Y0046340D03*
X0115340Y0059460D03*
X0106620Y0059460D03*
X0106140Y0046260D03*
X0104140Y0046460D03*
X0104140Y0044780D03*
X0104140Y0043340D03*
X0106100Y0043260D03*
X0106180Y0043140D03*
X0106220Y0042580D03*
X0102300Y0044940D03*
X0102300Y0044980D03*
X0102300Y0046260D03*
D218*
X0102280Y0046460D03*
X0106120Y0046460D03*
X0112680Y0046460D03*
X0112680Y0044780D03*
X0116400Y0046180D03*
X0117560Y0041620D03*
X0119720Y0044740D03*
X0119680Y0046460D03*
D219*
X0119700Y0044980D03*
X0118020Y0044980D03*
X0117980Y0045020D03*
X0117980Y0046220D03*
X0118020Y0046260D03*
X0117580Y0041820D03*
X0114180Y0042460D03*
X0114700Y0044820D03*
X0114700Y0044860D03*
X0112660Y0045020D03*
X0112660Y0046220D03*
X0110860Y0046340D03*
X0108020Y0046340D03*
X0108020Y0046380D03*
X0106180Y0044940D03*
X0106140Y0043180D03*
X0106180Y0041660D03*
X0104180Y0043220D03*
X0104180Y0043260D03*
X0104180Y0044860D03*
X0104180Y0046380D03*
X0102300Y0046220D03*
X0102300Y0046180D03*
X0102300Y0045060D03*
X0102300Y0045020D03*
X0109540Y0043260D03*
X0109540Y0043220D03*
X0109540Y0041740D03*
X0106620Y0059420D03*
X0115340Y0059420D03*
D220*
X0115380Y0048580D03*
X0118020Y0046420D03*
X0118020Y0044820D03*
X0117580Y0041660D03*
X0106580Y0048580D03*
D221*
X0106180Y0042500D03*
X0106180Y0041700D03*
X0114180Y0041700D03*
X0114180Y0042500D03*
D222*
X0110840Y0046300D03*
X0109560Y0043300D03*
X0109560Y0041700D03*
X0106200Y0044900D03*
X0104160Y0043300D03*
X0118040Y0046300D03*
D223*
X0117460Y0046100D03*
X0116100Y0046100D03*
X0116260Y0043500D03*
X0115580Y0042900D03*
X0119180Y0045100D03*
X0112140Y0046100D03*
X0111380Y0045100D03*
X0111300Y0041700D03*
X0108260Y0043500D03*
X0108580Y0046100D03*
X0107540Y0046100D03*
X0106660Y0046100D03*
X0104780Y0046100D03*
X0103700Y0046100D03*
X0102820Y0046100D03*
X0101780Y0046100D03*
D224*
X0103680Y0045300D03*
X0104360Y0043500D03*
X0104800Y0042900D03*
X0103680Y0042900D03*
X0105600Y0046100D03*
X0107560Y0042900D03*
X0108920Y0042900D03*
X0109360Y0043500D03*
X0110040Y0042900D03*
X0110040Y0042100D03*
X0108920Y0042100D03*
X0112480Y0041700D03*
X0113080Y0043500D03*
X0114040Y0045300D03*
X0113200Y0046100D03*
X0115200Y0045300D03*
X0118080Y0042900D03*
X0120200Y0046100D03*
D225*
X0117580Y0041700D03*
X0114140Y0043300D03*
X0114780Y0044700D03*
X0112660Y0044900D03*
X0110780Y0045700D03*
X0104100Y0044700D03*
X0102300Y0044900D03*
D226*
X0104200Y0044940D03*
X0104200Y0046340D03*
X0104200Y0043180D03*
X0106160Y0042460D03*
X0106160Y0042420D03*
X0106160Y0041740D03*
X0108040Y0046260D03*
X0110760Y0044860D03*
X0109520Y0043180D03*
X0109520Y0043140D03*
X0109520Y0041860D03*
X0109520Y0041820D03*
X0109520Y0041780D03*
X0112680Y0045060D03*
X0112680Y0046180D03*
X0114160Y0042420D03*
X0114160Y0041780D03*
X0114160Y0041740D03*
D227*
X0113580Y0041940D03*
X0113580Y0042260D03*
X0111900Y0043180D03*
X0111300Y0041740D03*
X0110020Y0042020D03*
X0110020Y0042940D03*
X0108980Y0042980D03*
X0108940Y0042940D03*
X0108980Y0041980D03*
X0107580Y0042940D03*
X0105580Y0042260D03*
X0105580Y0041940D03*
X0104780Y0042940D03*
X0103700Y0042940D03*
X0104380Y0044620D03*
X0104780Y0045140D03*
X0104740Y0046140D03*
X0105620Y0046140D03*
X0106620Y0046140D03*
X0108180Y0046620D03*
X0108620Y0046060D03*
X0110340Y0046180D03*
X0112180Y0046140D03*
X0112140Y0045140D03*
X0114100Y0045140D03*
X0114500Y0044620D03*
X0115180Y0045180D03*
X0115180Y0045220D03*
X0116100Y0046060D03*
X0116740Y0046620D03*
X0117460Y0045140D03*
X0119180Y0046140D03*
X0120180Y0046140D03*
X0118020Y0043020D03*
X0117020Y0043020D03*
X0117020Y0041980D03*
X0115580Y0042940D03*
X0103700Y0045180D03*
X0103700Y0046060D03*
X0102820Y0045140D03*
X0101780Y0045140D03*
X0106540Y0059820D03*
X0115420Y0059820D03*
D228*
X0113320Y0048980D03*
X0113160Y0046140D03*
X0115160Y0045140D03*
X0114640Y0041940D03*
X0112480Y0041820D03*
X0112480Y0041780D03*
X0112480Y0041740D03*
X0111280Y0041780D03*
X0111880Y0043140D03*
X0108560Y0046140D03*
X0108640Y0048980D03*
X0105680Y0046180D03*
X0104360Y0046620D03*
X0103720Y0045140D03*
X0103720Y0042980D03*
X0104760Y0042980D03*
X0106640Y0041940D03*
X0117080Y0041940D03*
X0120120Y0046180D03*
D229*
X0114660Y0045020D03*
X0114660Y0044980D03*
X0114660Y0044940D03*
X0114140Y0042380D03*
X0114140Y0042340D03*
X0114140Y0041860D03*
X0114140Y0041820D03*
X0108060Y0046180D03*
X0108060Y0046220D03*
X0106140Y0042380D03*
X0106140Y0042340D03*
X0106140Y0041820D03*
X0106140Y0041780D03*
X0104220Y0043060D03*
X0104220Y0043140D03*
X0104220Y0044980D03*
X0104220Y0045020D03*
X0104220Y0045060D03*
X0104220Y0046180D03*
X0104220Y0046220D03*
X0104220Y0046260D03*
D230*
X0103740Y0046140D03*
X0105700Y0045060D03*
X0106580Y0046180D03*
X0106140Y0046620D03*
X0107580Y0046140D03*
X0110300Y0045060D03*
X0111340Y0045060D03*
X0111900Y0043060D03*
X0112500Y0041860D03*
X0111300Y0041860D03*
X0111300Y0041820D03*
X0109980Y0043020D03*
X0112660Y0044620D03*
X0114620Y0043060D03*
X0117100Y0043060D03*
X0118020Y0044620D03*
X0117500Y0046140D03*
X0118020Y0046620D03*
X0119660Y0046620D03*
X0116140Y0046140D03*
X0115420Y0059780D03*
X0106540Y0059780D03*
X0102300Y0046620D03*
X0102300Y0044620D03*
X0103740Y0043020D03*
X0104740Y0043020D03*
D231*
X0106120Y0041860D03*
X0114640Y0045060D03*
X0119640Y0045420D03*
X0119640Y0045460D03*
X0119640Y0045540D03*
X0119640Y0045580D03*
X0119640Y0045620D03*
X0119640Y0045660D03*
X0119640Y0045740D03*
X0119640Y0045780D03*
X0119640Y0045820D03*
X0115320Y0059380D03*
X0106640Y0059380D03*
D232*
X0110760Y0044900D03*
X0114120Y0041900D03*
X0119640Y0045500D03*
X0119640Y0045700D03*
X0106120Y0042300D03*
X0106120Y0041900D03*
D233*
X0109500Y0041900D03*
X0109500Y0043100D03*
D234*
X0111280Y0041900D03*
X0112480Y0041900D03*
X0115120Y0045100D03*
D235*
X0117500Y0041900D03*
X0118020Y0044900D03*
X0119740Y0044900D03*
X0102300Y0046300D03*
D236*
X0104380Y0046580D03*
X0104380Y0044660D03*
X0106180Y0044620D03*
X0108180Y0046580D03*
X0108620Y0049020D03*
X0113340Y0049020D03*
X0116740Y0046580D03*
X0114500Y0044660D03*
X0111900Y0042940D03*
X0112500Y0041980D03*
X0111300Y0041980D03*
X0109060Y0041940D03*
D237*
X0111280Y0041940D03*
X0112480Y0041940D03*
X0111880Y0042980D03*
X0111880Y0043020D03*
X0111320Y0045380D03*
X0112680Y0046620D03*
X0106520Y0048340D03*
X0119720Y0044620D03*
D238*
X0119200Y0046180D03*
X0115600Y0042980D03*
X0110000Y0042980D03*
X0110000Y0041980D03*
X0109000Y0043020D03*
X0107600Y0042980D03*
X0106600Y0043060D03*
X0102800Y0046140D03*
X0101800Y0046140D03*
D239*
X0106500Y0048180D03*
X0108740Y0048860D03*
X0111300Y0046140D03*
X0109340Y0043540D03*
X0108260Y0043540D03*
X0113220Y0048860D03*
X0115460Y0048180D03*
X0114500Y0044580D03*
X0116260Y0043540D03*
X0117980Y0041980D03*
D240*
X0118000Y0042020D03*
X0113200Y0048820D03*
X0106600Y0045140D03*
D241*
X0106600Y0045180D03*
X0105720Y0042980D03*
X0111320Y0046060D03*
X0113720Y0042980D03*
X0116880Y0046140D03*
X0120160Y0045180D03*
X0118000Y0042060D03*
D242*
X0112500Y0042100D03*
X0111300Y0042100D03*
X0106100Y0043500D03*
D243*
X0106480Y0048100D03*
X0115480Y0048100D03*
X0116880Y0046100D03*
X0118000Y0042100D03*
D244*
X0118040Y0044660D03*
X0112680Y0044660D03*
X0112680Y0046580D03*
X0111880Y0042780D03*
X0111880Y0042740D03*
X0112480Y0042180D03*
X0112480Y0042140D03*
X0111280Y0042140D03*
X0111280Y0042180D03*
X0106120Y0046580D03*
X0102280Y0046580D03*
D245*
X0106540Y0048420D03*
X0111300Y0042220D03*
X0112500Y0042220D03*
X0112500Y0042260D03*
D246*
X0112480Y0042300D03*
X0111280Y0042300D03*
D247*
X0114140Y0042300D03*
X0104220Y0043100D03*
D248*
X0106120Y0045500D03*
X0106120Y0045700D03*
X0117520Y0042700D03*
X0117520Y0042500D03*
X0117520Y0042300D03*
D249*
X0118020Y0044580D03*
X0119660Y0046660D03*
X0115460Y0048220D03*
X0113740Y0043060D03*
X0112140Y0042660D03*
X0112140Y0042620D03*
X0112220Y0042380D03*
X0111620Y0042540D03*
X0111620Y0042580D03*
X0111580Y0042460D03*
X0111580Y0042420D03*
X0111540Y0042340D03*
X0106180Y0044580D03*
D250*
X0106100Y0043460D03*
X0102300Y0046540D03*
X0110820Y0046580D03*
X0112660Y0046540D03*
X0114140Y0043460D03*
X0112500Y0042340D03*
X0118020Y0046540D03*
X0115380Y0059660D03*
X0106580Y0059660D03*
D251*
X0106640Y0059340D03*
X0115320Y0059340D03*
X0110760Y0044980D03*
X0106120Y0045540D03*
X0106120Y0045580D03*
X0106120Y0045620D03*
X0106120Y0045660D03*
X0106120Y0045740D03*
X0117520Y0042660D03*
X0117520Y0042620D03*
X0117520Y0042580D03*
X0117520Y0042540D03*
X0117520Y0042460D03*
X0117520Y0042420D03*
X0117520Y0042380D03*
X0117520Y0042340D03*
D252*
X0112180Y0042500D03*
X0113260Y0048900D03*
D253*
X0110700Y0045780D03*
X0107940Y0043180D03*
X0106300Y0042660D03*
X0106140Y0046380D03*
X0102300Y0046380D03*
X0102300Y0044860D03*
X0114140Y0043340D03*
X0114300Y0042660D03*
X0115940Y0043140D03*
X0115940Y0043180D03*
X0116460Y0046340D03*
X0119660Y0046380D03*
D254*
X0114360Y0042700D03*
X0106360Y0042700D03*
D255*
X0111900Y0042700D03*
D256*
X0111900Y0042820D03*
X0102300Y0044660D03*
D257*
X0111880Y0042900D03*
X0114120Y0043500D03*
D258*
X0113720Y0042940D03*
X0116400Y0042980D03*
X0120160Y0045220D03*
X0106600Y0045220D03*
X0105720Y0042940D03*
D259*
X0108380Y0042980D03*
X0110220Y0045260D03*
X0108780Y0048780D03*
X0113180Y0048780D03*
D260*
X0115480Y0048140D03*
X0113720Y0043020D03*
X0108760Y0048820D03*
X0106480Y0048140D03*
X0105720Y0043020D03*
X0120160Y0045140D03*
D261*
X0119240Y0045060D03*
X0117960Y0043060D03*
X0116240Y0043460D03*
X0115640Y0043020D03*
X0115440Y0048340D03*
X0109360Y0043460D03*
X0108240Y0043460D03*
X0107640Y0043020D03*
X0104360Y0043460D03*
D262*
X0108380Y0043020D03*
X0110220Y0045220D03*
X0116380Y0043020D03*
X0118460Y0045180D03*
X0118460Y0046060D03*
X0115460Y0059980D03*
X0106500Y0059980D03*
D263*
X0106120Y0046660D03*
X0104360Y0046660D03*
X0104360Y0044580D03*
X0105720Y0043060D03*
X0108200Y0046660D03*
X0110240Y0045140D03*
X0111880Y0043460D03*
X0117520Y0043540D03*
X0118440Y0046140D03*
X0116760Y0046660D03*
D264*
X0115900Y0043060D03*
X0107900Y0043060D03*
D265*
X0109500Y0043060D03*
D266*
X0108000Y0043300D03*
X0106200Y0043100D03*
X0114200Y0043100D03*
X0116000Y0043300D03*
D267*
X0115920Y0043100D03*
X0110840Y0046500D03*
X0107920Y0043100D03*
D268*
X0117520Y0043100D03*
D269*
X0117520Y0043260D03*
X0119720Y0044780D03*
X0116440Y0046260D03*
X0112680Y0046420D03*
X0112680Y0044820D03*
X0110800Y0044740D03*
X0107920Y0043140D03*
X0106120Y0043380D03*
X0102280Y0044820D03*
X0102280Y0046420D03*
X0106600Y0059540D03*
X0115360Y0059540D03*
D270*
X0112680Y0046260D03*
X0112680Y0044980D03*
X0114720Y0044780D03*
X0114120Y0043220D03*
X0110880Y0046380D03*
X0106120Y0046220D03*
X0106120Y0045020D03*
X0106120Y0043220D03*
X0119720Y0044940D03*
X0119680Y0046220D03*
D271*
X0119680Y0046340D03*
X0119720Y0044820D03*
X0117520Y0043220D03*
X0115960Y0043220D03*
X0116480Y0046380D03*
X0112680Y0046380D03*
X0112680Y0044860D03*
X0110920Y0045540D03*
X0110760Y0045740D03*
X0107960Y0043220D03*
X0106120Y0043340D03*
X0106200Y0044820D03*
D272*
X0106120Y0046300D03*
X0104120Y0046500D03*
X0106120Y0043300D03*
X0107960Y0046500D03*
X0112680Y0046300D03*
X0116520Y0046500D03*
X0119680Y0046300D03*
D273*
X0117540Y0043300D03*
D274*
X0117520Y0043340D03*
X0114120Y0043420D03*
X0112680Y0044740D03*
X0106120Y0043420D03*
D275*
X0106180Y0044780D03*
X0106140Y0046420D03*
X0106580Y0048540D03*
X0110660Y0045820D03*
X0111020Y0045460D03*
X0114140Y0043380D03*
X0116420Y0046220D03*
X0115380Y0048540D03*
X0118020Y0046460D03*
X0119660Y0046420D03*
X0118020Y0044780D03*
D276*
X0117520Y0043380D03*
X0110560Y0045860D03*
X0106560Y0048460D03*
D277*
X0106540Y0048380D03*
X0108260Y0043420D03*
X0116260Y0043420D03*
X0115420Y0048380D03*
X0119660Y0046580D03*
D278*
X0111900Y0043420D03*
X0106500Y0048220D03*
X0101700Y0045660D03*
X0101700Y0045620D03*
X0101700Y0045580D03*
X0101700Y0045540D03*
X0102300Y0044580D03*
D279*
X0106600Y0045100D03*
X0111880Y0043500D03*
X0115440Y0059900D03*
X0106520Y0059900D03*
D280*
X0104360Y0043540D03*
X0118440Y0045140D03*
D281*
X0118020Y0046580D03*
X0115420Y0048420D03*
X0106180Y0044660D03*
D282*
X0110800Y0044660D03*
X0115400Y0048460D03*
D283*
X0118020Y0044700D03*
X0112660Y0044700D03*
X0102300Y0044700D03*
D284*
X0102300Y0046500D03*
X0106140Y0046500D03*
X0106180Y0044700D03*
X0119660Y0046500D03*
D285*
X0118020Y0046500D03*
X0110820Y0044700D03*
D286*
X0119720Y0044700D03*
D287*
X0118020Y0044740D03*
X0110860Y0046540D03*
X0106180Y0044740D03*
X0102300Y0044780D03*
X0106580Y0059580D03*
X0115380Y0059580D03*
D288*
X0115360Y0048700D03*
X0114680Y0044900D03*
X0108040Y0046300D03*
X0106600Y0048700D03*
X0104200Y0046300D03*
X0104200Y0044900D03*
D289*
X0106140Y0045420D03*
X0106140Y0045460D03*
X0106140Y0045780D03*
X0106140Y0045820D03*
X0110740Y0044940D03*
X0115340Y0048740D03*
D290*
X0110780Y0045020D03*
X0106620Y0048740D03*
D291*
X0102800Y0045100D03*
X0101800Y0045100D03*
X0112200Y0045100D03*
D292*
X0114140Y0045100D03*
X0117500Y0045100D03*
X0103740Y0045100D03*
D293*
X0120140Y0045100D03*
D294*
X0110220Y0045180D03*
X0106500Y0059940D03*
X0115460Y0059940D03*
D295*
X0118460Y0046020D03*
X0118460Y0045220D03*
D296*
X0118460Y0045260D03*
X0118460Y0045980D03*
X0111340Y0046020D03*
D297*
X0110220Y0045300D03*
D298*
X0110980Y0045500D03*
D299*
X0111300Y0046100D03*
D300*
X0118440Y0046100D03*
D301*
X0116460Y0046300D03*
D302*
X0112680Y0046500D03*
D303*
X0115400Y0048500D03*
X0106560Y0048500D03*
D304*
X0106620Y0048780D03*
X0115340Y0048780D03*
D305*
X0106640Y0048820D03*
D306*
X0115320Y0048820D03*
D307*
X0115320Y0048860D03*
X0106640Y0048860D03*
D308*
X0106660Y0048900D03*
X0115300Y0048900D03*
D309*
X0115300Y0048940D03*
X0110980Y0061180D03*
X0110980Y0061220D03*
X0110980Y0061260D03*
X0110980Y0061340D03*
X0110980Y0061380D03*
X0106660Y0048940D03*
D310*
X0106680Y0048980D03*
X0115280Y0048980D03*
D311*
X0115280Y0049020D03*
X0106680Y0049020D03*
D312*
X0106700Y0049060D03*
X0115260Y0049060D03*
D313*
X0115260Y0049100D03*
X0110980Y0060300D03*
X0106700Y0049100D03*
D314*
X0108560Y0049100D03*
X0113400Y0049100D03*
X0115400Y0059700D03*
X0106560Y0059700D03*
D315*
X0107200Y0049140D03*
X0114760Y0049140D03*
D316*
X0114780Y0049180D03*
X0107180Y0049180D03*
D317*
X0107180Y0049220D03*
X0110980Y0059260D03*
X0114780Y0049220D03*
D318*
X0114120Y0050940D03*
X0114080Y0050980D03*
X0114080Y0051020D03*
X0114040Y0051060D03*
X0107960Y0051140D03*
X0107960Y0051180D03*
X0107960Y0051220D03*
X0107920Y0051060D03*
X0107880Y0051020D03*
X0107880Y0050980D03*
X0107160Y0049260D03*
D319*
X0114000Y0051140D03*
X0114000Y0051180D03*
X0114000Y0051220D03*
X0114800Y0049260D03*
D320*
X0114800Y0049300D03*
X0114240Y0050700D03*
X0114000Y0051300D03*
X0107960Y0051300D03*
X0107160Y0049300D03*
D321*
X0107140Y0049340D03*
X0107620Y0050540D03*
X0107660Y0050580D03*
X0107700Y0050660D03*
X0107980Y0051340D03*
X0107980Y0051380D03*
X0113980Y0051380D03*
X0113980Y0051340D03*
X0114260Y0050660D03*
X0114300Y0050580D03*
X0114340Y0050540D03*
X0114820Y0049340D03*
D322*
X0114840Y0049380D03*
X0114440Y0050340D03*
X0114400Y0050420D03*
X0114360Y0050460D03*
X0114000Y0051420D03*
X0107960Y0051420D03*
X0107600Y0050460D03*
X0107560Y0050420D03*
X0107520Y0050340D03*
X0107120Y0049380D03*
D323*
X0107120Y0049420D03*
X0107360Y0050060D03*
X0107400Y0050140D03*
X0107440Y0050180D03*
X0107520Y0052620D03*
X0107600Y0055540D03*
X0114360Y0055540D03*
X0114440Y0052620D03*
X0114520Y0050180D03*
X0114560Y0050140D03*
X0114600Y0050060D03*
X0114840Y0049420D03*
D324*
X0114860Y0049460D03*
X0114700Y0049860D03*
X0114660Y0049940D03*
X0114340Y0055580D03*
X0107540Y0052580D03*
X0107340Y0050020D03*
X0107340Y0049980D03*
X0107300Y0049940D03*
X0107260Y0049860D03*
X0107100Y0049460D03*
D325*
X0107120Y0049500D03*
X0107280Y0049900D03*
X0114680Y0049900D03*
X0114840Y0049500D03*
D326*
X0114860Y0049540D03*
X0114860Y0049580D03*
X0114820Y0049620D03*
X0114820Y0049660D03*
X0113980Y0051620D03*
X0113980Y0051660D03*
X0114300Y0052460D03*
X0114500Y0055460D03*
X0114300Y0055620D03*
X0114260Y0055660D03*
X0110980Y0059180D03*
X0107700Y0055660D03*
X0107660Y0055620D03*
X0107460Y0055460D03*
X0107660Y0052460D03*
X0107980Y0051660D03*
X0107980Y0051620D03*
X0107140Y0049660D03*
X0107140Y0049620D03*
X0107100Y0049580D03*
X0107100Y0049540D03*
D327*
X0107180Y0049700D03*
X0107620Y0052500D03*
X0114340Y0052500D03*
X0114780Y0049700D03*
D328*
X0114760Y0049740D03*
X0114760Y0049780D03*
X0114720Y0049820D03*
X0114520Y0052660D03*
X0107440Y0052660D03*
X0107240Y0049820D03*
X0107200Y0049780D03*
X0107200Y0049740D03*
D329*
X0107980Y0051540D03*
X0107980Y0051580D03*
X0107580Y0052540D03*
X0107620Y0055580D03*
X0114380Y0052540D03*
X0114420Y0052580D03*
X0113980Y0051580D03*
X0113980Y0051540D03*
X0114620Y0050020D03*
X0114620Y0049980D03*
D330*
X0114560Y0050100D03*
X0114000Y0051500D03*
X0114400Y0055500D03*
X0107560Y0055500D03*
X0107960Y0051500D03*
X0107400Y0050100D03*
D331*
X0107460Y0050220D03*
X0107460Y0050260D03*
X0107540Y0050380D03*
X0107980Y0051460D03*
X0110980Y0059220D03*
X0113980Y0051460D03*
X0114420Y0050380D03*
D332*
X0114500Y0050260D03*
X0114500Y0050220D03*
D333*
X0107500Y0050300D03*
D334*
X0114460Y0050300D03*
D335*
X0114340Y0050500D03*
X0107620Y0050500D03*
D336*
X0107680Y0050620D03*
X0114280Y0050620D03*
D337*
X0107720Y0050700D03*
D338*
X0107740Y0050740D03*
X0107780Y0050820D03*
X0107820Y0050860D03*
X0107860Y0050940D03*
X0107980Y0051260D03*
X0113980Y0051260D03*
X0114140Y0050860D03*
X0114180Y0050820D03*
X0114220Y0050740D03*
D339*
X0114200Y0050780D03*
X0107760Y0050780D03*
D340*
X0107820Y0050900D03*
X0114140Y0050900D03*
D341*
X0114020Y0051100D03*
X0107940Y0051100D03*
D342*
X0107960Y0051700D03*
X0107720Y0055700D03*
X0114240Y0055700D03*
D343*
X0114000Y0051700D03*
D344*
X0113980Y0051740D03*
X0113980Y0051780D03*
X0114220Y0052380D03*
X0114180Y0055740D03*
X0107780Y0055740D03*
X0107740Y0052380D03*
X0107980Y0051780D03*
X0107980Y0051740D03*
D345*
X0107980Y0051820D03*
X0107980Y0051860D03*
X0107340Y0055420D03*
X0107820Y0055780D03*
X0107860Y0055820D03*
X0114100Y0055820D03*
X0114140Y0055780D03*
X0114620Y0055420D03*
X0113980Y0051860D03*
X0113980Y0051820D03*
D346*
X0114000Y0051900D03*
X0107960Y0051900D03*
D347*
X0107980Y0051940D03*
X0107980Y0051980D03*
X0107860Y0052220D03*
X0110980Y0059140D03*
X0114060Y0055860D03*
X0113980Y0051980D03*
X0113980Y0051940D03*
D348*
X0113980Y0052020D03*
X0113980Y0052060D03*
X0114020Y0052140D03*
X0114780Y0052740D03*
X0107980Y0052060D03*
X0107980Y0052020D03*
X0107220Y0055380D03*
D349*
X0107940Y0055900D03*
X0107940Y0052100D03*
D350*
X0114020Y0052100D03*
X0114020Y0055900D03*
D351*
X0114740Y0055380D03*
X0107940Y0052140D03*
D352*
X0107920Y0052180D03*
X0114040Y0052180D03*
D353*
X0114100Y0052220D03*
X0107900Y0055860D03*
D354*
X0107840Y0052260D03*
X0114120Y0052260D03*
D355*
X0114180Y0052300D03*
X0107780Y0052300D03*
D356*
X0107760Y0052340D03*
X0114200Y0052340D03*
D357*
X0114280Y0052420D03*
X0107680Y0052420D03*
D358*
X0107320Y0052700D03*
D359*
X0114640Y0052700D03*
D360*
X0107200Y0052740D03*
D361*
X0107080Y0052780D03*
X0107080Y0055340D03*
X0108080Y0055980D03*
X0113880Y0055980D03*
X0114880Y0055340D03*
X0114880Y0052780D03*
D362*
X0106940Y0052820D03*
D363*
X0115020Y0052820D03*
D364*
X0115140Y0052860D03*
X0115100Y0055260D03*
X0106860Y0055260D03*
X0106820Y0052860D03*
D365*
X0106700Y0052900D03*
D366*
X0115260Y0052900D03*
D367*
X0115380Y0052940D03*
X0115700Y0053660D03*
X0115700Y0053740D03*
X0115700Y0053780D03*
X0115700Y0053820D03*
X0115700Y0053860D03*
X0115700Y0054260D03*
X0115700Y0054340D03*
X0115700Y0054380D03*
X0115700Y0054420D03*
X0115700Y0054460D03*
X0106580Y0052940D03*
X0106260Y0053660D03*
X0106260Y0053740D03*
X0106260Y0053780D03*
X0106260Y0053820D03*
X0106260Y0053860D03*
X0106260Y0054260D03*
X0106260Y0054340D03*
X0106260Y0054380D03*
X0106260Y0054420D03*
X0106260Y0054460D03*
D368*
X0106340Y0054860D03*
X0106340Y0053220D03*
X0106340Y0053180D03*
X0106420Y0053020D03*
X0106460Y0052980D03*
X0115540Y0053020D03*
X0115620Y0053180D03*
X0115620Y0053220D03*
X0115620Y0054860D03*
D369*
X0115500Y0052980D03*
D370*
X0115560Y0053060D03*
X0115600Y0053140D03*
X0115600Y0054940D03*
X0115600Y0054980D03*
X0115560Y0055020D03*
X0115560Y0055060D03*
X0106400Y0055060D03*
X0106400Y0055020D03*
X0106360Y0054980D03*
X0106360Y0054940D03*
X0106360Y0053140D03*
X0106400Y0053060D03*
D371*
X0106380Y0053100D03*
X0106340Y0054900D03*
X0115620Y0054900D03*
X0115580Y0053100D03*
D372*
X0115640Y0053260D03*
X0115640Y0053340D03*
X0115640Y0054780D03*
X0115640Y0054820D03*
X0115480Y0055140D03*
X0106480Y0055140D03*
X0106320Y0054820D03*
X0106320Y0054780D03*
X0106320Y0053340D03*
X0106320Y0053260D03*
D373*
X0106320Y0053300D03*
X0115640Y0053300D03*
D374*
X0115660Y0053380D03*
X0115660Y0053420D03*
X0115660Y0053460D03*
X0115660Y0054660D03*
X0115660Y0054740D03*
X0106300Y0054740D03*
X0106300Y0054660D03*
X0106300Y0053460D03*
X0106300Y0053420D03*
X0106300Y0053380D03*
D375*
X0106280Y0053500D03*
X0106280Y0054500D03*
X0115680Y0054500D03*
X0115680Y0053500D03*
D376*
X0115680Y0053540D03*
X0115680Y0053580D03*
X0115680Y0053620D03*
X0115680Y0054540D03*
X0115680Y0054580D03*
X0115680Y0054620D03*
X0106280Y0054620D03*
X0106280Y0054580D03*
X0106280Y0054540D03*
X0106280Y0053620D03*
X0106280Y0053580D03*
X0106280Y0053540D03*
D377*
X0106260Y0053700D03*
X0106260Y0053900D03*
X0106260Y0054300D03*
X0115700Y0054300D03*
X0115700Y0053900D03*
X0115700Y0053700D03*
D378*
X0115720Y0053940D03*
X0115720Y0053980D03*
X0115720Y0054020D03*
X0115720Y0054060D03*
X0115720Y0054140D03*
X0115720Y0054180D03*
X0115720Y0054220D03*
X0115360Y0055180D03*
X0106240Y0054220D03*
X0106240Y0054180D03*
X0106240Y0054140D03*
X0106240Y0054060D03*
X0106240Y0054020D03*
X0106240Y0053980D03*
X0106240Y0053940D03*
D379*
X0106240Y0054100D03*
X0115720Y0054100D03*
D380*
X0115660Y0054700D03*
X0106300Y0054700D03*
D381*
X0106440Y0055100D03*
X0115520Y0055100D03*
D382*
X0106600Y0055180D03*
D383*
X0106720Y0055220D03*
X0115240Y0055220D03*
D384*
X0114980Y0055300D03*
X0106980Y0055300D03*
D385*
X0108020Y0055940D03*
X0113940Y0055940D03*
D386*
X0113780Y0056020D03*
X0108180Y0056020D03*
D387*
X0110980Y0056060D03*
X0110980Y0057420D03*
D388*
X0110980Y0056100D03*
D389*
X0110980Y0056140D03*
X0110980Y0057340D03*
X0110980Y0057380D03*
D390*
X0110980Y0056260D03*
X0110980Y0056220D03*
X0110980Y0056180D03*
D391*
X0110980Y0056300D03*
D392*
X0110980Y0056340D03*
X0110980Y0057220D03*
X0110980Y0057260D03*
D393*
X0110980Y0057180D03*
X0110980Y0056420D03*
X0110980Y0056380D03*
D394*
X0110980Y0056460D03*
X0110980Y0056540D03*
X0110980Y0057140D03*
D395*
X0110980Y0057100D03*
X0110980Y0056500D03*
D396*
X0110980Y0056580D03*
X0110980Y0056620D03*
X0110980Y0057060D03*
D397*
X0110980Y0057020D03*
X0110980Y0056980D03*
X0110980Y0056660D03*
D398*
X0110980Y0056700D03*
D399*
X0110980Y0056740D03*
X0110980Y0056780D03*
X0110980Y0056820D03*
X0110980Y0056940D03*
D400*
X0110980Y0056860D03*
D401*
X0110980Y0056900D03*
D402*
X0110980Y0057300D03*
D403*
X0110980Y0057460D03*
D404*
X0110980Y0057500D03*
D405*
X0110980Y0057540D03*
D406*
X0110980Y0057580D03*
D407*
X0110980Y0057620D03*
X0110980Y0057660D03*
D408*
X0110980Y0057700D03*
D409*
X0110980Y0057740D03*
X0110980Y0057780D03*
D410*
X0110980Y0057820D03*
D411*
X0110980Y0057860D03*
D412*
X0110980Y0057900D03*
D413*
X0110980Y0057940D03*
D414*
X0110980Y0057980D03*
X0110980Y0058020D03*
D415*
X0110980Y0058060D03*
D416*
X0110980Y0058100D03*
D417*
X0110980Y0058140D03*
X0110980Y0058860D03*
D418*
X0110980Y0058820D03*
X0110980Y0058180D03*
D419*
X0110980Y0058220D03*
X0110980Y0058780D03*
D420*
X0110980Y0058740D03*
X0110980Y0058260D03*
D421*
X0110980Y0058300D03*
D422*
X0110980Y0058340D03*
D423*
X0110980Y0058380D03*
X0110980Y0058420D03*
X0110980Y0058660D03*
D424*
X0110980Y0058620D03*
X0110980Y0058580D03*
X0110980Y0058460D03*
D425*
X0110980Y0058500D03*
D426*
X0110980Y0058540D03*
D427*
X0110980Y0058700D03*
D428*
X0110980Y0058900D03*
D429*
X0110980Y0059740D03*
X0110980Y0059780D03*
X0110980Y0059820D03*
X0110980Y0059860D03*
X0106740Y0058940D03*
X0115220Y0058940D03*
D430*
X0110980Y0058940D03*
D431*
X0106720Y0058980D03*
X0115240Y0058980D03*
D432*
X0110980Y0058980D03*
D433*
X0106720Y0059020D03*
X0115240Y0059020D03*
D434*
X0110980Y0059020D03*
D435*
X0106700Y0059060D03*
D436*
X0110980Y0059060D03*
D437*
X0110980Y0060540D03*
X0110980Y0060580D03*
X0110980Y0060620D03*
X0110980Y0060660D03*
X0110980Y0060740D03*
X0115260Y0059060D03*
D438*
X0115260Y0059100D03*
X0110980Y0060900D03*
X0106700Y0059100D03*
D439*
X0110980Y0059100D03*
D440*
X0110980Y0060980D03*
X0110980Y0061020D03*
X0110980Y0061060D03*
X0110980Y0061140D03*
X0106700Y0059140D03*
D441*
X0115280Y0059140D03*
D442*
X0115280Y0059180D03*
X0106680Y0059180D03*
D443*
X0106680Y0059220D03*
X0115280Y0059220D03*
D444*
X0115300Y0059260D03*
X0106660Y0059260D03*
D445*
X0106660Y0059300D03*
X0115300Y0059300D03*
D446*
X0110980Y0059300D03*
D447*
X0110980Y0059340D03*
D448*
X0110980Y0059380D03*
D449*
X0110980Y0059420D03*
D450*
X0110980Y0059460D03*
D451*
X0106600Y0059500D03*
X0115360Y0059500D03*
D452*
X0110980Y0059500D03*
D453*
X0110980Y0059540D03*
X0110980Y0059580D03*
X0110980Y0059620D03*
X0110980Y0059660D03*
D454*
X0110980Y0059700D03*
D455*
X0110980Y0059900D03*
X0110980Y0060100D03*
D456*
X0110980Y0060060D03*
X0110980Y0060020D03*
X0110980Y0059980D03*
X0110980Y0059940D03*
D457*
X0110980Y0060140D03*
X0110980Y0060180D03*
X0110980Y0060220D03*
X0110980Y0060260D03*
D458*
X0110980Y0060340D03*
X0110980Y0060380D03*
X0110980Y0060420D03*
X0110980Y0060460D03*
D459*
X0110980Y0060500D03*
D460*
X0110980Y0060700D03*
D461*
X0110980Y0060780D03*
X0110980Y0060820D03*
X0110980Y0060860D03*
X0110980Y0060940D03*
D462*
X0110980Y0061100D03*
D463*
X0110980Y0061300D03*
D464*
X0110980Y0061420D03*
M02*
