%
M48
M72
T01C0.01200
T02C0.03543
T03C0.03937
T04C0.04000
%
T01
X153450Y118450
X165950Y190950
X175950Y190950
X184700Y192200
X165950Y24700
X175950Y23450
T02
X175950Y53450
X165950Y53450
X185950Y53450
X224700Y53450
X224700Y63450
X224700Y73450
X224700Y103450
X224700Y113450
X224700Y123450
T03
X248194Y118450
X248194Y128450
X248194Y108450
X248194Y98450
X248194Y78450
X248194Y68450
X248194Y58450
X248194Y48450
T04
X83706Y20950
X83706Y30950
X83706Y40950
X83706Y60950
X83706Y70950
X83706Y80950
X83706Y100950
X83706Y110950
X83706Y120950
X109700Y123450
X109700Y113450
X109700Y103450
X127200Y103450
X127200Y113450
X127200Y123450
X144700Y123450
X144700Y113450
X144700Y103450
X162200Y103450
X162200Y113450
X162200Y123450
X179700Y123450
X179700Y113450
X179700Y103450
X197200Y103450
X197200Y113450
X197200Y123450
X197200Y150950
X197200Y160950
X197200Y170950
X179700Y170950
X179700Y160950
X179700Y150950
X162200Y150950
X162200Y160950
X162200Y170950
X144700Y170950
X144700Y160950
X144700Y150950
X127200Y150950
X127200Y160950
X127200Y170950
X109700Y170950
X109700Y160950
X109700Y150950
X83706Y150950
X83706Y160950
X83706Y140950
X83706Y180950
X83706Y190950
X83706Y200950
X104950Y205450
X114950Y206450
X124950Y205450
X134950Y206450
X144950Y205450
X154950Y206450
X164950Y205450
X174950Y206450
X184950Y205450
X194950Y206450
X210950Y205450
X220950Y206450
X230950Y205450
X240950Y206450
X250950Y205450
X260950Y206450
X270950Y205450
X280950Y206450
X265000Y169850
X265000Y152050
X239400Y152050
X239400Y169850
X130950Y58706
X120950Y58706
X110950Y58706
X170950Y16450
X160950Y15450
X180950Y15450
X190950Y16450
X200950Y15450
X210950Y16450
X230950Y15450
X240950Y16450
X250950Y15450
X260950Y16450
X270950Y15450
X280950Y16450
M30
