G75*
%MOIN*%
%OFA0B0*%
%FSLAX25Y25*%
%IPPOS*%
%LPD*%
%AMOC8*
5,1,8,0,0,1.08239X$1,22.5*
%
%ADD10R,0.05512X0.06299*%
%ADD11R,0.01370X0.05500*%
%ADD12R,0.03937X0.04331*%
%ADD13R,0.01378X0.05315*%
%ADD14C,0.00000*%
%ADD15R,0.04331X0.08268*%
%ADD16R,0.10236X0.04724*%
%ADD17C,0.05543*%
%ADD18C,0.15811*%
%ADD19R,0.03150X0.03150*%
%ADD20C,0.00600*%
%ADD21C,0.02400*%
%ADD22C,0.01600*%
D10*
X0061288Y0115906D03*
X0072312Y0115906D03*
D11*
X0073139Y0103400D03*
X0075698Y0103400D03*
X0078257Y0103400D03*
X0080816Y0103400D03*
X0083375Y0103400D03*
X0085934Y0103400D03*
X0070580Y0103400D03*
X0068020Y0103400D03*
X0065461Y0103400D03*
X0062902Y0103400D03*
X0060343Y0103400D03*
X0057784Y0103400D03*
X0055225Y0103400D03*
X0052666Y0103400D03*
X0052666Y0074612D03*
X0055225Y0074612D03*
X0057784Y0074612D03*
X0060343Y0074612D03*
X0062902Y0074612D03*
X0065461Y0074612D03*
X0068020Y0074612D03*
X0070580Y0074612D03*
X0073139Y0074612D03*
X0075698Y0074612D03*
X0078257Y0074612D03*
X0080816Y0074612D03*
X0083375Y0074612D03*
X0085934Y0074612D03*
D12*
X0086800Y0113159D03*
X0086800Y0119852D03*
D13*
X0066918Y0152195D03*
X0064359Y0152195D03*
X0061800Y0152195D03*
X0059241Y0152195D03*
X0056682Y0152195D03*
D14*
X0050185Y0152195D02*
X0050187Y0152279D01*
X0050193Y0152362D01*
X0050203Y0152445D01*
X0050217Y0152528D01*
X0050234Y0152610D01*
X0050256Y0152691D01*
X0050281Y0152770D01*
X0050310Y0152849D01*
X0050343Y0152926D01*
X0050379Y0153001D01*
X0050419Y0153075D01*
X0050462Y0153147D01*
X0050509Y0153216D01*
X0050559Y0153283D01*
X0050612Y0153348D01*
X0050668Y0153410D01*
X0050726Y0153470D01*
X0050788Y0153527D01*
X0050852Y0153580D01*
X0050919Y0153631D01*
X0050988Y0153678D01*
X0051059Y0153723D01*
X0051132Y0153763D01*
X0051207Y0153800D01*
X0051284Y0153834D01*
X0051362Y0153864D01*
X0051441Y0153890D01*
X0051522Y0153913D01*
X0051604Y0153931D01*
X0051686Y0153946D01*
X0051769Y0153957D01*
X0051852Y0153964D01*
X0051936Y0153967D01*
X0052020Y0153966D01*
X0052103Y0153961D01*
X0052187Y0153952D01*
X0052269Y0153939D01*
X0052351Y0153923D01*
X0052432Y0153902D01*
X0052513Y0153878D01*
X0052591Y0153850D01*
X0052669Y0153818D01*
X0052745Y0153782D01*
X0052819Y0153743D01*
X0052891Y0153701D01*
X0052961Y0153655D01*
X0053029Y0153606D01*
X0053094Y0153554D01*
X0053157Y0153499D01*
X0053217Y0153441D01*
X0053275Y0153380D01*
X0053329Y0153316D01*
X0053381Y0153250D01*
X0053429Y0153182D01*
X0053474Y0153111D01*
X0053515Y0153038D01*
X0053554Y0152964D01*
X0053588Y0152888D01*
X0053619Y0152810D01*
X0053646Y0152731D01*
X0053670Y0152650D01*
X0053689Y0152569D01*
X0053705Y0152487D01*
X0053717Y0152404D01*
X0053725Y0152320D01*
X0053729Y0152237D01*
X0053729Y0152153D01*
X0053725Y0152070D01*
X0053717Y0151986D01*
X0053705Y0151903D01*
X0053689Y0151821D01*
X0053670Y0151740D01*
X0053646Y0151659D01*
X0053619Y0151580D01*
X0053588Y0151502D01*
X0053554Y0151426D01*
X0053515Y0151352D01*
X0053474Y0151279D01*
X0053429Y0151208D01*
X0053381Y0151140D01*
X0053329Y0151074D01*
X0053275Y0151010D01*
X0053217Y0150949D01*
X0053157Y0150891D01*
X0053094Y0150836D01*
X0053029Y0150784D01*
X0052961Y0150735D01*
X0052891Y0150689D01*
X0052819Y0150647D01*
X0052745Y0150608D01*
X0052669Y0150572D01*
X0052591Y0150540D01*
X0052513Y0150512D01*
X0052432Y0150488D01*
X0052351Y0150467D01*
X0052269Y0150451D01*
X0052187Y0150438D01*
X0052103Y0150429D01*
X0052020Y0150424D01*
X0051936Y0150423D01*
X0051852Y0150426D01*
X0051769Y0150433D01*
X0051686Y0150444D01*
X0051604Y0150459D01*
X0051522Y0150477D01*
X0051441Y0150500D01*
X0051362Y0150526D01*
X0051284Y0150556D01*
X0051207Y0150590D01*
X0051132Y0150627D01*
X0051059Y0150667D01*
X0050988Y0150712D01*
X0050919Y0150759D01*
X0050852Y0150810D01*
X0050788Y0150863D01*
X0050726Y0150920D01*
X0050668Y0150980D01*
X0050612Y0151042D01*
X0050559Y0151107D01*
X0050509Y0151174D01*
X0050462Y0151243D01*
X0050419Y0151315D01*
X0050379Y0151389D01*
X0050343Y0151464D01*
X0050310Y0151541D01*
X0050281Y0151620D01*
X0050256Y0151699D01*
X0050234Y0151780D01*
X0050217Y0151862D01*
X0050203Y0151945D01*
X0050193Y0152028D01*
X0050187Y0152111D01*
X0050185Y0152195D01*
X0045068Y0164006D02*
X0045070Y0164107D01*
X0045076Y0164208D01*
X0045086Y0164309D01*
X0045100Y0164409D01*
X0045118Y0164508D01*
X0045140Y0164607D01*
X0045165Y0164705D01*
X0045195Y0164802D01*
X0045228Y0164897D01*
X0045265Y0164991D01*
X0045306Y0165084D01*
X0045350Y0165175D01*
X0045398Y0165264D01*
X0045450Y0165351D01*
X0045505Y0165436D01*
X0045563Y0165518D01*
X0045624Y0165599D01*
X0045689Y0165677D01*
X0045756Y0165752D01*
X0045826Y0165824D01*
X0045900Y0165894D01*
X0045976Y0165961D01*
X0046054Y0166025D01*
X0046135Y0166085D01*
X0046218Y0166142D01*
X0046304Y0166196D01*
X0046392Y0166247D01*
X0046481Y0166294D01*
X0046572Y0166338D01*
X0046665Y0166377D01*
X0046760Y0166414D01*
X0046855Y0166446D01*
X0046952Y0166475D01*
X0047051Y0166499D01*
X0047149Y0166520D01*
X0047249Y0166537D01*
X0047349Y0166550D01*
X0047450Y0166559D01*
X0047551Y0166564D01*
X0047652Y0166565D01*
X0047753Y0166562D01*
X0047854Y0166555D01*
X0047955Y0166544D01*
X0048055Y0166529D01*
X0048154Y0166510D01*
X0048253Y0166487D01*
X0048350Y0166461D01*
X0048447Y0166430D01*
X0048542Y0166396D01*
X0048635Y0166358D01*
X0048728Y0166316D01*
X0048818Y0166271D01*
X0048907Y0166222D01*
X0048993Y0166170D01*
X0049077Y0166114D01*
X0049160Y0166055D01*
X0049239Y0165993D01*
X0049317Y0165928D01*
X0049391Y0165860D01*
X0049463Y0165788D01*
X0049532Y0165715D01*
X0049598Y0165638D01*
X0049661Y0165559D01*
X0049721Y0165477D01*
X0049777Y0165393D01*
X0049830Y0165307D01*
X0049880Y0165219D01*
X0049926Y0165129D01*
X0049969Y0165038D01*
X0050008Y0164944D01*
X0050043Y0164849D01*
X0050074Y0164753D01*
X0050102Y0164656D01*
X0050126Y0164558D01*
X0050146Y0164459D01*
X0050162Y0164359D01*
X0050174Y0164258D01*
X0050182Y0164158D01*
X0050186Y0164057D01*
X0050186Y0163955D01*
X0050182Y0163854D01*
X0050174Y0163754D01*
X0050162Y0163653D01*
X0050146Y0163553D01*
X0050126Y0163454D01*
X0050102Y0163356D01*
X0050074Y0163259D01*
X0050043Y0163163D01*
X0050008Y0163068D01*
X0049969Y0162974D01*
X0049926Y0162883D01*
X0049880Y0162793D01*
X0049830Y0162705D01*
X0049777Y0162619D01*
X0049721Y0162535D01*
X0049661Y0162453D01*
X0049598Y0162374D01*
X0049532Y0162297D01*
X0049463Y0162224D01*
X0049391Y0162152D01*
X0049317Y0162084D01*
X0049239Y0162019D01*
X0049160Y0161957D01*
X0049077Y0161898D01*
X0048993Y0161842D01*
X0048906Y0161790D01*
X0048818Y0161741D01*
X0048728Y0161696D01*
X0048635Y0161654D01*
X0048542Y0161616D01*
X0048447Y0161582D01*
X0048350Y0161551D01*
X0048253Y0161525D01*
X0048154Y0161502D01*
X0048055Y0161483D01*
X0047955Y0161468D01*
X0047854Y0161457D01*
X0047753Y0161450D01*
X0047652Y0161447D01*
X0047551Y0161448D01*
X0047450Y0161453D01*
X0047349Y0161462D01*
X0047249Y0161475D01*
X0047149Y0161492D01*
X0047051Y0161513D01*
X0046952Y0161537D01*
X0046855Y0161566D01*
X0046760Y0161598D01*
X0046665Y0161635D01*
X0046572Y0161674D01*
X0046481Y0161718D01*
X0046392Y0161765D01*
X0046304Y0161816D01*
X0046218Y0161870D01*
X0046135Y0161927D01*
X0046054Y0161987D01*
X0045976Y0162051D01*
X0045900Y0162118D01*
X0045826Y0162188D01*
X0045756Y0162260D01*
X0045689Y0162335D01*
X0045624Y0162413D01*
X0045563Y0162494D01*
X0045505Y0162576D01*
X0045450Y0162661D01*
X0045398Y0162748D01*
X0045350Y0162837D01*
X0045306Y0162928D01*
X0045265Y0163021D01*
X0045228Y0163115D01*
X0045195Y0163210D01*
X0045165Y0163307D01*
X0045140Y0163405D01*
X0045118Y0163504D01*
X0045100Y0163603D01*
X0045086Y0163703D01*
X0045076Y0163804D01*
X0045070Y0163905D01*
X0045068Y0164006D01*
X0069871Y0152195D02*
X0069873Y0152279D01*
X0069879Y0152362D01*
X0069889Y0152445D01*
X0069903Y0152528D01*
X0069920Y0152610D01*
X0069942Y0152691D01*
X0069967Y0152770D01*
X0069996Y0152849D01*
X0070029Y0152926D01*
X0070065Y0153001D01*
X0070105Y0153075D01*
X0070148Y0153147D01*
X0070195Y0153216D01*
X0070245Y0153283D01*
X0070298Y0153348D01*
X0070354Y0153410D01*
X0070412Y0153470D01*
X0070474Y0153527D01*
X0070538Y0153580D01*
X0070605Y0153631D01*
X0070674Y0153678D01*
X0070745Y0153723D01*
X0070818Y0153763D01*
X0070893Y0153800D01*
X0070970Y0153834D01*
X0071048Y0153864D01*
X0071127Y0153890D01*
X0071208Y0153913D01*
X0071290Y0153931D01*
X0071372Y0153946D01*
X0071455Y0153957D01*
X0071538Y0153964D01*
X0071622Y0153967D01*
X0071706Y0153966D01*
X0071789Y0153961D01*
X0071873Y0153952D01*
X0071955Y0153939D01*
X0072037Y0153923D01*
X0072118Y0153902D01*
X0072199Y0153878D01*
X0072277Y0153850D01*
X0072355Y0153818D01*
X0072431Y0153782D01*
X0072505Y0153743D01*
X0072577Y0153701D01*
X0072647Y0153655D01*
X0072715Y0153606D01*
X0072780Y0153554D01*
X0072843Y0153499D01*
X0072903Y0153441D01*
X0072961Y0153380D01*
X0073015Y0153316D01*
X0073067Y0153250D01*
X0073115Y0153182D01*
X0073160Y0153111D01*
X0073201Y0153038D01*
X0073240Y0152964D01*
X0073274Y0152888D01*
X0073305Y0152810D01*
X0073332Y0152731D01*
X0073356Y0152650D01*
X0073375Y0152569D01*
X0073391Y0152487D01*
X0073403Y0152404D01*
X0073411Y0152320D01*
X0073415Y0152237D01*
X0073415Y0152153D01*
X0073411Y0152070D01*
X0073403Y0151986D01*
X0073391Y0151903D01*
X0073375Y0151821D01*
X0073356Y0151740D01*
X0073332Y0151659D01*
X0073305Y0151580D01*
X0073274Y0151502D01*
X0073240Y0151426D01*
X0073201Y0151352D01*
X0073160Y0151279D01*
X0073115Y0151208D01*
X0073067Y0151140D01*
X0073015Y0151074D01*
X0072961Y0151010D01*
X0072903Y0150949D01*
X0072843Y0150891D01*
X0072780Y0150836D01*
X0072715Y0150784D01*
X0072647Y0150735D01*
X0072577Y0150689D01*
X0072505Y0150647D01*
X0072431Y0150608D01*
X0072355Y0150572D01*
X0072277Y0150540D01*
X0072199Y0150512D01*
X0072118Y0150488D01*
X0072037Y0150467D01*
X0071955Y0150451D01*
X0071873Y0150438D01*
X0071789Y0150429D01*
X0071706Y0150424D01*
X0071622Y0150423D01*
X0071538Y0150426D01*
X0071455Y0150433D01*
X0071372Y0150444D01*
X0071290Y0150459D01*
X0071208Y0150477D01*
X0071127Y0150500D01*
X0071048Y0150526D01*
X0070970Y0150556D01*
X0070893Y0150590D01*
X0070818Y0150627D01*
X0070745Y0150667D01*
X0070674Y0150712D01*
X0070605Y0150759D01*
X0070538Y0150810D01*
X0070474Y0150863D01*
X0070412Y0150920D01*
X0070354Y0150980D01*
X0070298Y0151042D01*
X0070245Y0151107D01*
X0070195Y0151174D01*
X0070148Y0151243D01*
X0070105Y0151315D01*
X0070065Y0151389D01*
X0070029Y0151464D01*
X0069996Y0151541D01*
X0069967Y0151620D01*
X0069942Y0151699D01*
X0069920Y0151780D01*
X0069903Y0151862D01*
X0069889Y0151945D01*
X0069879Y0152028D01*
X0069873Y0152111D01*
X0069871Y0152195D01*
X0073414Y0164006D02*
X0073416Y0164107D01*
X0073422Y0164208D01*
X0073432Y0164309D01*
X0073446Y0164409D01*
X0073464Y0164508D01*
X0073486Y0164607D01*
X0073511Y0164705D01*
X0073541Y0164802D01*
X0073574Y0164897D01*
X0073611Y0164991D01*
X0073652Y0165084D01*
X0073696Y0165175D01*
X0073744Y0165264D01*
X0073796Y0165351D01*
X0073851Y0165436D01*
X0073909Y0165518D01*
X0073970Y0165599D01*
X0074035Y0165677D01*
X0074102Y0165752D01*
X0074172Y0165824D01*
X0074246Y0165894D01*
X0074322Y0165961D01*
X0074400Y0166025D01*
X0074481Y0166085D01*
X0074564Y0166142D01*
X0074650Y0166196D01*
X0074738Y0166247D01*
X0074827Y0166294D01*
X0074918Y0166338D01*
X0075011Y0166377D01*
X0075106Y0166414D01*
X0075201Y0166446D01*
X0075298Y0166475D01*
X0075397Y0166499D01*
X0075495Y0166520D01*
X0075595Y0166537D01*
X0075695Y0166550D01*
X0075796Y0166559D01*
X0075897Y0166564D01*
X0075998Y0166565D01*
X0076099Y0166562D01*
X0076200Y0166555D01*
X0076301Y0166544D01*
X0076401Y0166529D01*
X0076500Y0166510D01*
X0076599Y0166487D01*
X0076696Y0166461D01*
X0076793Y0166430D01*
X0076888Y0166396D01*
X0076981Y0166358D01*
X0077074Y0166316D01*
X0077164Y0166271D01*
X0077253Y0166222D01*
X0077339Y0166170D01*
X0077423Y0166114D01*
X0077506Y0166055D01*
X0077585Y0165993D01*
X0077663Y0165928D01*
X0077737Y0165860D01*
X0077809Y0165788D01*
X0077878Y0165715D01*
X0077944Y0165638D01*
X0078007Y0165559D01*
X0078067Y0165477D01*
X0078123Y0165393D01*
X0078176Y0165307D01*
X0078226Y0165219D01*
X0078272Y0165129D01*
X0078315Y0165038D01*
X0078354Y0164944D01*
X0078389Y0164849D01*
X0078420Y0164753D01*
X0078448Y0164656D01*
X0078472Y0164558D01*
X0078492Y0164459D01*
X0078508Y0164359D01*
X0078520Y0164258D01*
X0078528Y0164158D01*
X0078532Y0164057D01*
X0078532Y0163955D01*
X0078528Y0163854D01*
X0078520Y0163754D01*
X0078508Y0163653D01*
X0078492Y0163553D01*
X0078472Y0163454D01*
X0078448Y0163356D01*
X0078420Y0163259D01*
X0078389Y0163163D01*
X0078354Y0163068D01*
X0078315Y0162974D01*
X0078272Y0162883D01*
X0078226Y0162793D01*
X0078176Y0162705D01*
X0078123Y0162619D01*
X0078067Y0162535D01*
X0078007Y0162453D01*
X0077944Y0162374D01*
X0077878Y0162297D01*
X0077809Y0162224D01*
X0077737Y0162152D01*
X0077663Y0162084D01*
X0077585Y0162019D01*
X0077506Y0161957D01*
X0077423Y0161898D01*
X0077339Y0161842D01*
X0077252Y0161790D01*
X0077164Y0161741D01*
X0077074Y0161696D01*
X0076981Y0161654D01*
X0076888Y0161616D01*
X0076793Y0161582D01*
X0076696Y0161551D01*
X0076599Y0161525D01*
X0076500Y0161502D01*
X0076401Y0161483D01*
X0076301Y0161468D01*
X0076200Y0161457D01*
X0076099Y0161450D01*
X0075998Y0161447D01*
X0075897Y0161448D01*
X0075796Y0161453D01*
X0075695Y0161462D01*
X0075595Y0161475D01*
X0075495Y0161492D01*
X0075397Y0161513D01*
X0075298Y0161537D01*
X0075201Y0161566D01*
X0075106Y0161598D01*
X0075011Y0161635D01*
X0074918Y0161674D01*
X0074827Y0161718D01*
X0074738Y0161765D01*
X0074650Y0161816D01*
X0074564Y0161870D01*
X0074481Y0161927D01*
X0074400Y0161987D01*
X0074322Y0162051D01*
X0074246Y0162118D01*
X0074172Y0162188D01*
X0074102Y0162260D01*
X0074035Y0162335D01*
X0073970Y0162413D01*
X0073909Y0162494D01*
X0073851Y0162576D01*
X0073796Y0162661D01*
X0073744Y0162748D01*
X0073696Y0162837D01*
X0073652Y0162928D01*
X0073611Y0163021D01*
X0073574Y0163115D01*
X0073541Y0163210D01*
X0073511Y0163307D01*
X0073486Y0163405D01*
X0073464Y0163504D01*
X0073446Y0163603D01*
X0073432Y0163703D01*
X0073422Y0163804D01*
X0073416Y0163905D01*
X0073414Y0164006D01*
X0116800Y0119006D02*
X0116784Y0120345D01*
X0116735Y0121684D01*
X0116653Y0123021D01*
X0116539Y0124355D01*
X0116393Y0125687D01*
X0116214Y0127014D01*
X0116003Y0128337D01*
X0115759Y0129654D01*
X0115484Y0130965D01*
X0115177Y0132268D01*
X0114838Y0133564D01*
X0114468Y0134851D01*
X0114067Y0136129D01*
X0113634Y0137397D01*
X0113171Y0138654D01*
X0112677Y0139899D01*
X0112153Y0141132D01*
X0111600Y0142351D01*
X0111016Y0143557D01*
X0110404Y0144748D01*
X0109763Y0145924D01*
X0109093Y0147084D01*
X0108395Y0148227D01*
X0107670Y0149353D01*
X0106917Y0150461D01*
X0106138Y0151551D01*
X0105332Y0152621D01*
X0104501Y0153671D01*
X0103644Y0154700D01*
X0102762Y0155709D01*
X0101857Y0156695D01*
X0100927Y0157659D01*
X0099974Y0158601D01*
X0098999Y0159519D01*
X0098001Y0160412D01*
X0096982Y0161282D01*
X0095942Y0162126D01*
X0094882Y0162944D01*
X0093802Y0163737D01*
X0092704Y0164503D01*
X0091586Y0165242D01*
X0090452Y0165954D01*
X0089300Y0166637D01*
X0088132Y0167293D01*
X0086948Y0167920D01*
X0085750Y0168518D01*
X0084537Y0169086D01*
X0083311Y0169625D01*
X0082072Y0170134D01*
X0080821Y0170612D01*
X0079558Y0171060D01*
X0078286Y0171477D01*
X0077003Y0171863D01*
X0075711Y0172218D01*
X0074411Y0172541D01*
X0073104Y0172832D01*
X0071790Y0173091D01*
X0070470Y0173318D01*
X0069145Y0173513D01*
X0067815Y0173676D01*
X0066482Y0173806D01*
X0065147Y0173904D01*
X0063809Y0173969D01*
X0062470Y0174002D01*
X0061130Y0174002D01*
X0059791Y0173969D01*
X0058453Y0173904D01*
X0057118Y0173806D01*
X0055785Y0173676D01*
X0054455Y0173513D01*
X0053130Y0173318D01*
X0051810Y0173091D01*
X0050496Y0172832D01*
X0049189Y0172541D01*
X0047889Y0172218D01*
X0046597Y0171863D01*
X0045314Y0171477D01*
X0044042Y0171060D01*
X0042779Y0170612D01*
X0041528Y0170134D01*
X0040289Y0169625D01*
X0039063Y0169086D01*
X0037850Y0168518D01*
X0036652Y0167920D01*
X0035468Y0167293D01*
X0034300Y0166637D01*
X0033148Y0165954D01*
X0032014Y0165242D01*
X0030896Y0164503D01*
X0029798Y0163737D01*
X0028718Y0162944D01*
X0027658Y0162126D01*
X0026618Y0161282D01*
X0025599Y0160412D01*
X0024601Y0159519D01*
X0023626Y0158601D01*
X0022673Y0157659D01*
X0021743Y0156695D01*
X0020838Y0155709D01*
X0019956Y0154700D01*
X0019099Y0153671D01*
X0018268Y0152621D01*
X0017462Y0151551D01*
X0016683Y0150461D01*
X0015930Y0149353D01*
X0015205Y0148227D01*
X0014507Y0147084D01*
X0013837Y0145924D01*
X0013196Y0144748D01*
X0012584Y0143557D01*
X0012000Y0142351D01*
X0011447Y0141132D01*
X0010923Y0139899D01*
X0010429Y0138654D01*
X0009966Y0137397D01*
X0009533Y0136129D01*
X0009132Y0134851D01*
X0008762Y0133564D01*
X0008423Y0132268D01*
X0008116Y0130965D01*
X0007841Y0129654D01*
X0007597Y0128337D01*
X0007386Y0127014D01*
X0007207Y0125687D01*
X0007061Y0124355D01*
X0006947Y0123021D01*
X0006865Y0121684D01*
X0006816Y0120345D01*
X0006800Y0119006D01*
X0006800Y0034006D01*
X0006804Y0033644D01*
X0006818Y0033281D01*
X0006839Y0032919D01*
X0006870Y0032558D01*
X0006909Y0032198D01*
X0006957Y0031839D01*
X0007014Y0031481D01*
X0007079Y0031124D01*
X0007153Y0030769D01*
X0007236Y0030416D01*
X0007327Y0030065D01*
X0007426Y0029717D01*
X0007534Y0029371D01*
X0007650Y0029027D01*
X0007775Y0028687D01*
X0007907Y0028350D01*
X0008048Y0028016D01*
X0008197Y0027685D01*
X0008354Y0027358D01*
X0008518Y0027035D01*
X0008690Y0026716D01*
X0008870Y0026402D01*
X0009058Y0026091D01*
X0009253Y0025786D01*
X0009455Y0025485D01*
X0009665Y0025189D01*
X0009881Y0024899D01*
X0010105Y0024613D01*
X0010335Y0024333D01*
X0010572Y0024059D01*
X0010816Y0023791D01*
X0011066Y0023528D01*
X0011322Y0023272D01*
X0011585Y0023022D01*
X0011853Y0022778D01*
X0012127Y0022541D01*
X0012407Y0022311D01*
X0012693Y0022087D01*
X0012983Y0021871D01*
X0013279Y0021661D01*
X0013580Y0021459D01*
X0013885Y0021264D01*
X0014196Y0021076D01*
X0014510Y0020896D01*
X0014829Y0020724D01*
X0015152Y0020560D01*
X0015479Y0020403D01*
X0015810Y0020254D01*
X0016144Y0020113D01*
X0016481Y0019981D01*
X0016821Y0019856D01*
X0017165Y0019740D01*
X0017511Y0019632D01*
X0017859Y0019533D01*
X0018210Y0019442D01*
X0018563Y0019359D01*
X0018918Y0019285D01*
X0019275Y0019220D01*
X0019633Y0019163D01*
X0019992Y0019115D01*
X0020352Y0019076D01*
X0020713Y0019045D01*
X0021075Y0019024D01*
X0021438Y0019010D01*
X0021800Y0019006D01*
X0101800Y0019006D01*
X0102162Y0019010D01*
X0102525Y0019024D01*
X0102887Y0019045D01*
X0103248Y0019076D01*
X0103608Y0019115D01*
X0103967Y0019163D01*
X0104325Y0019220D01*
X0104682Y0019285D01*
X0105037Y0019359D01*
X0105390Y0019442D01*
X0105741Y0019533D01*
X0106089Y0019632D01*
X0106435Y0019740D01*
X0106779Y0019856D01*
X0107119Y0019981D01*
X0107456Y0020113D01*
X0107790Y0020254D01*
X0108121Y0020403D01*
X0108448Y0020560D01*
X0108771Y0020724D01*
X0109090Y0020896D01*
X0109404Y0021076D01*
X0109715Y0021264D01*
X0110020Y0021459D01*
X0110321Y0021661D01*
X0110617Y0021871D01*
X0110907Y0022087D01*
X0111193Y0022311D01*
X0111473Y0022541D01*
X0111747Y0022778D01*
X0112015Y0023022D01*
X0112278Y0023272D01*
X0112534Y0023528D01*
X0112784Y0023791D01*
X0113028Y0024059D01*
X0113265Y0024333D01*
X0113495Y0024613D01*
X0113719Y0024899D01*
X0113935Y0025189D01*
X0114145Y0025485D01*
X0114347Y0025786D01*
X0114542Y0026091D01*
X0114730Y0026402D01*
X0114910Y0026716D01*
X0115082Y0027035D01*
X0115246Y0027358D01*
X0115403Y0027685D01*
X0115552Y0028016D01*
X0115693Y0028350D01*
X0115825Y0028687D01*
X0115950Y0029027D01*
X0116066Y0029371D01*
X0116174Y0029717D01*
X0116273Y0030065D01*
X0116364Y0030416D01*
X0116447Y0030769D01*
X0116521Y0031124D01*
X0116586Y0031481D01*
X0116643Y0031839D01*
X0116691Y0032198D01*
X0116730Y0032558D01*
X0116761Y0032919D01*
X0116782Y0033281D01*
X0116796Y0033644D01*
X0116800Y0034006D01*
X0116800Y0119006D01*
D15*
X0068769Y0163037D03*
X0055225Y0163037D03*
D16*
X0037627Y0093848D03*
X0037627Y0084006D03*
X0037627Y0074163D03*
X0015973Y0074163D03*
X0015973Y0084006D03*
X0015973Y0093848D03*
D17*
X0046800Y0056778D02*
X0046800Y0051234D01*
X0056800Y0051234D02*
X0056800Y0056778D01*
X0066800Y0056778D02*
X0066800Y0051234D01*
X0076800Y0051234D02*
X0076800Y0056778D01*
D18*
X0101800Y0034006D03*
X0101800Y0119006D03*
X0021800Y0119006D03*
X0021800Y0034006D03*
D19*
X0044400Y0112953D03*
X0044400Y0118859D03*
X0041800Y0131053D03*
X0041800Y0136959D03*
X0041800Y0141703D03*
X0041800Y0147609D03*
X0031800Y0147609D03*
X0031800Y0141703D03*
X0031800Y0136959D03*
X0031800Y0131053D03*
X0091800Y0131053D03*
X0091800Y0136959D03*
X0091800Y0141703D03*
X0091800Y0147609D03*
X0095097Y0096606D03*
X0101003Y0096606D03*
X0101003Y0087806D03*
X0095097Y0087806D03*
X0095097Y0079006D03*
X0101003Y0079006D03*
D20*
X0103400Y0082006D02*
X0098450Y0082006D01*
X0095450Y0079006D01*
X0095097Y0079006D01*
X0060800Y0079006D01*
X0060800Y0082006D01*
X0050600Y0082006D01*
X0042800Y0074206D01*
X0038000Y0074206D01*
X0037627Y0074163D01*
X0037400Y0083806D02*
X0034400Y0083806D01*
X0029000Y0079606D01*
X0029000Y0056806D01*
X0041000Y0044806D01*
X0063800Y0044806D01*
X0066800Y0047806D01*
X0066800Y0054006D01*
X0057200Y0054406D02*
X0057200Y0064006D01*
X0062600Y0069406D01*
X0062600Y0074206D01*
X0062902Y0074508D01*
X0062902Y0074612D01*
X0060800Y0074806D02*
X0060343Y0074612D01*
X0060800Y0074806D02*
X0060800Y0079006D01*
X0052666Y0074612D02*
X0052400Y0074206D01*
X0052400Y0069406D01*
X0047000Y0064006D01*
X0047000Y0054406D01*
X0046800Y0054006D01*
X0056800Y0054006D02*
X0057200Y0054406D01*
X0037400Y0083806D02*
X0037627Y0084006D01*
X0034400Y0083806D02*
X0029000Y0089206D01*
X0029000Y0100606D01*
X0035000Y0106606D01*
X0035000Y0128806D01*
X0039800Y0133606D01*
X0044600Y0133606D01*
X0044600Y0145006D01*
X0042200Y0147406D01*
X0041800Y0147609D01*
X0042200Y0148006D01*
X0051200Y0157006D01*
X0073400Y0157006D01*
X0082400Y0148006D01*
X0091400Y0148006D01*
X0091800Y0147609D01*
X0091800Y0141703D02*
X0092000Y0141406D01*
X0092000Y0137206D01*
X0091800Y0136959D01*
X0081200Y0135406D02*
X0081200Y0116206D01*
X0084200Y0113206D01*
X0086600Y0113206D01*
X0086800Y0113159D01*
X0086600Y0112606D01*
X0102100Y0097006D01*
X0100850Y0097006D01*
X0101003Y0096606D01*
X0106400Y0100006D02*
X0106400Y0085006D01*
X0103400Y0082006D01*
X0097350Y0088006D02*
X0095097Y0087806D01*
X0093200Y0088006D02*
X0080600Y0100606D01*
X0080600Y0095806D01*
X0077000Y0092206D01*
X0042200Y0092206D01*
X0037627Y0093848D01*
X0050000Y0095806D02*
X0039200Y0106606D01*
X0039200Y0125806D01*
X0041600Y0127606D01*
X0041600Y0130606D01*
X0041800Y0131053D01*
X0044600Y0133606D02*
X0044600Y0119806D01*
X0044400Y0118859D01*
X0044400Y0112953D02*
X0044600Y0112606D01*
X0050000Y0112606D01*
X0060800Y0112606D02*
X0063200Y0110206D01*
X0071000Y0110206D01*
X0072800Y0108406D01*
X0072800Y0097006D01*
X0072800Y0103006D01*
X0073139Y0103400D01*
X0072800Y0103606D01*
X0072800Y0097006D01*
X0075800Y0097006D02*
X0075800Y0101206D01*
X0075698Y0103400D01*
X0080816Y0103400D02*
X0080600Y0101206D01*
X0080600Y0100606D01*
X0083375Y0103400D02*
X0083000Y0104206D01*
X0083000Y0107806D01*
X0080000Y0110806D01*
X0080000Y0133606D01*
X0064400Y0149206D01*
X0064400Y0151606D01*
X0064359Y0152195D01*
X0062000Y0152206D02*
X0061800Y0152195D01*
X0062000Y0152206D02*
X0062000Y0147406D01*
X0062000Y0152206D02*
X0062000Y0154606D01*
X0066918Y0152195D02*
X0067400Y0149806D01*
X0067400Y0149206D01*
X0081200Y0135406D01*
X0086800Y0119852D02*
X0087200Y0119806D01*
X0088400Y0118006D01*
X0106400Y0100006D01*
X0097350Y0088006D02*
X0093200Y0088006D01*
X0089000Y0103606D02*
X0086000Y0103606D01*
X0085934Y0103400D01*
X0068020Y0103400D02*
X0068000Y0103006D01*
X0068000Y0098806D01*
X0065000Y0095806D01*
X0050000Y0095806D01*
X0060800Y0112606D02*
X0060800Y0116206D01*
X0061288Y0115906D01*
X0065461Y0103400D02*
X0065600Y0103006D01*
X0065600Y0100606D01*
X0063200Y0098206D01*
X0041800Y0136959D02*
X0041600Y0137206D01*
X0041600Y0141406D01*
X0041800Y0141703D01*
X0041600Y0147406D02*
X0041800Y0147609D01*
X0041600Y0147406D02*
X0032000Y0147406D01*
X0031800Y0147609D01*
X0031800Y0141703D02*
X0032000Y0141406D01*
X0032000Y0137206D01*
X0031800Y0136959D01*
X0031800Y0131053D02*
X0032000Y0130606D01*
X0032000Y0127006D01*
D21*
X0032000Y0127006D03*
X0050000Y0112606D03*
X0051800Y0124006D03*
X0062000Y0147406D03*
X0089000Y0103606D03*
X0075800Y0097006D03*
X0072800Y0097006D03*
X0063200Y0098206D03*
X0060800Y0082006D03*
D22*
X0011328Y0025970D02*
X0013764Y0023534D01*
X0016749Y0021811D01*
X0020077Y0020919D01*
X0021800Y0020806D01*
X0101800Y0020806D01*
X0103523Y0020919D01*
X0106851Y0021811D01*
X0109836Y0023534D01*
X0112272Y0025970D01*
X0113995Y0028954D01*
X0114887Y0032283D01*
X0115000Y0034006D01*
X0115000Y0119006D01*
X0114836Y0123180D01*
X0113530Y0131425D01*
X0110950Y0139365D01*
X0107160Y0146803D01*
X0102254Y0153557D01*
X0096351Y0159459D01*
X0089597Y0164366D01*
X0082159Y0168156D01*
X0074219Y0170736D01*
X0065974Y0172042D01*
X0057626Y0172042D01*
X0049381Y0170736D01*
X0041441Y0168156D01*
X0034003Y0164366D01*
X0027249Y0159459D01*
X0021346Y0153557D01*
X0016440Y0146803D01*
X0012650Y0139365D01*
X0010070Y0131425D01*
X0008764Y0123180D01*
X0008600Y0119006D01*
X0008600Y0034006D01*
X0008713Y0032283D01*
X0009605Y0028954D01*
X0011328Y0025970D01*
X0011898Y0025400D02*
X0018260Y0025400D01*
X0019949Y0024700D02*
X0016529Y0026117D01*
X0013911Y0028735D01*
X0012494Y0032155D01*
X0012494Y0035857D01*
X0013911Y0039277D01*
X0016529Y0041895D01*
X0019949Y0043311D01*
X0023651Y0043311D01*
X0027071Y0041895D01*
X0029689Y0039277D01*
X0031105Y0035857D01*
X0031105Y0032155D01*
X0029689Y0028735D01*
X0027071Y0026117D01*
X0023651Y0024700D01*
X0019949Y0024700D01*
X0016069Y0022203D02*
X0107531Y0022203D01*
X0105340Y0025400D02*
X0111702Y0025400D01*
X0112866Y0026998D02*
X0107953Y0026998D01*
X0107071Y0026117D02*
X0109689Y0028735D01*
X0111105Y0032155D01*
X0111105Y0035857D01*
X0109689Y0039277D01*
X0107071Y0041895D01*
X0103651Y0043311D01*
X0099949Y0043311D01*
X0096529Y0041895D01*
X0093911Y0039277D01*
X0092494Y0035857D01*
X0092494Y0032155D01*
X0093911Y0028735D01*
X0096529Y0026117D01*
X0099949Y0024700D01*
X0103651Y0024700D01*
X0107071Y0026117D01*
X0109551Y0028597D02*
X0113789Y0028597D01*
X0114328Y0030195D02*
X0110294Y0030195D01*
X0110956Y0031794D02*
X0114756Y0031794D01*
X0114960Y0033393D02*
X0111105Y0033393D01*
X0111105Y0034991D02*
X0115000Y0034991D01*
X0115000Y0036590D02*
X0110802Y0036590D01*
X0110140Y0038188D02*
X0115000Y0038188D01*
X0115000Y0039787D02*
X0109179Y0039787D01*
X0107581Y0041385D02*
X0115000Y0041385D01*
X0115000Y0042984D02*
X0104442Y0042984D01*
X0099158Y0042984D02*
X0024442Y0042984D01*
X0027581Y0041385D02*
X0096019Y0041385D01*
X0094421Y0039787D02*
X0029179Y0039787D01*
X0030140Y0038188D02*
X0093460Y0038188D01*
X0092798Y0036590D02*
X0030802Y0036590D01*
X0031105Y0034991D02*
X0092494Y0034991D01*
X0092494Y0033393D02*
X0031105Y0033393D01*
X0030956Y0031794D02*
X0092644Y0031794D01*
X0093306Y0030195D02*
X0030294Y0030195D01*
X0029551Y0028597D02*
X0094049Y0028597D01*
X0095647Y0026998D02*
X0027953Y0026998D01*
X0025340Y0025400D02*
X0098260Y0025400D01*
X0110103Y0023801D02*
X0013497Y0023801D01*
X0015647Y0026998D02*
X0010734Y0026998D01*
X0009811Y0028597D02*
X0014049Y0028597D01*
X0013306Y0030195D02*
X0009272Y0030195D01*
X0008844Y0031794D02*
X0012644Y0031794D01*
X0012494Y0033393D02*
X0008640Y0033393D01*
X0008600Y0034991D02*
X0012494Y0034991D01*
X0012798Y0036590D02*
X0008600Y0036590D01*
X0008600Y0038188D02*
X0013460Y0038188D01*
X0014421Y0039787D02*
X0008600Y0039787D01*
X0008600Y0041385D02*
X0016019Y0041385D01*
X0019158Y0042984D02*
X0008600Y0042984D01*
X0008600Y0044582D02*
X0038820Y0044582D01*
X0040296Y0043106D02*
X0064504Y0043106D01*
X0065500Y0044102D01*
X0068500Y0047102D01*
X0068500Y0047423D01*
X0069163Y0047698D01*
X0070337Y0048871D01*
X0070972Y0050404D01*
X0070972Y0057607D01*
X0070337Y0059141D01*
X0069163Y0060314D01*
X0067630Y0060949D01*
X0065970Y0060949D01*
X0064437Y0060314D01*
X0063263Y0059141D01*
X0062628Y0057607D01*
X0062628Y0050404D01*
X0063263Y0048871D01*
X0064362Y0047772D01*
X0063096Y0046506D01*
X0041704Y0046506D01*
X0030700Y0057510D01*
X0030700Y0078774D01*
X0032589Y0080244D01*
X0043325Y0080244D01*
X0044145Y0081064D01*
X0044145Y0086948D01*
X0043325Y0087768D01*
X0032842Y0087768D01*
X0030700Y0089910D01*
X0030700Y0099902D01*
X0035704Y0104906D01*
X0035704Y0104906D01*
X0036700Y0105902D01*
X0036700Y0128102D01*
X0038825Y0130227D01*
X0038825Y0128898D01*
X0039539Y0128185D01*
X0038633Y0127506D01*
X0038496Y0127506D01*
X0038083Y0127093D01*
X0037617Y0126743D01*
X0037597Y0126607D01*
X0037500Y0126510D01*
X0037500Y0125927D01*
X0037418Y0125349D01*
X0037500Y0125239D01*
X0037500Y0105902D01*
X0048300Y0095102D01*
X0049296Y0094106D01*
X0065704Y0094106D01*
X0069700Y0098102D01*
X0069700Y0098850D01*
X0070579Y0098850D01*
X0070579Y0103399D01*
X0070580Y0103399D01*
X0070580Y0098850D01*
X0070967Y0098850D01*
X0070596Y0098479D01*
X0070200Y0097523D01*
X0070200Y0096489D01*
X0070596Y0095533D01*
X0071327Y0094802D01*
X0072283Y0094406D01*
X0073317Y0094406D01*
X0074273Y0094802D01*
X0074300Y0094829D01*
X0074327Y0094802D01*
X0075283Y0094406D01*
X0076317Y0094406D01*
X0077134Y0094744D01*
X0076296Y0093906D01*
X0044145Y0093906D01*
X0044145Y0096791D01*
X0043325Y0097611D01*
X0031929Y0097611D01*
X0031109Y0096791D01*
X0031109Y0090906D01*
X0031929Y0090086D01*
X0043325Y0090086D01*
X0043744Y0090506D01*
X0077704Y0090506D01*
X0082300Y0095102D01*
X0082300Y0096502D01*
X0092122Y0086679D01*
X0092122Y0085651D01*
X0092943Y0084831D01*
X0097252Y0084831D01*
X0097826Y0085405D01*
X0097988Y0085126D01*
X0098323Y0084791D01*
X0098733Y0084554D01*
X0099191Y0084431D01*
X0101003Y0084431D01*
X0102815Y0084431D01*
X0103272Y0084554D01*
X0103683Y0084791D01*
X0104018Y0085126D01*
X0104255Y0085536D01*
X0104378Y0085994D01*
X0104378Y0087806D01*
X0104378Y0089618D01*
X0104255Y0090075D01*
X0104018Y0090486D01*
X0103683Y0090821D01*
X0103272Y0091058D01*
X0102815Y0091181D01*
X0101003Y0091181D01*
X0101003Y0087806D01*
X0104378Y0087806D01*
X0101003Y0087806D01*
X0101003Y0087806D01*
X0101003Y0087806D01*
X0101003Y0084431D01*
X0101003Y0087806D01*
X0101003Y0087806D01*
X0101003Y0091181D01*
X0099191Y0091181D01*
X0098733Y0091058D01*
X0098323Y0090821D01*
X0097988Y0090486D01*
X0097826Y0090206D01*
X0097252Y0090781D01*
X0092943Y0090781D01*
X0092886Y0090724D01*
X0084360Y0099250D01*
X0084640Y0099250D01*
X0084654Y0099264D01*
X0084669Y0099250D01*
X0087199Y0099250D01*
X0088019Y0100070D01*
X0088019Y0101198D01*
X0088483Y0101006D01*
X0089517Y0101006D01*
X0090473Y0101402D01*
X0091204Y0102133D01*
X0091600Y0103089D01*
X0091600Y0104123D01*
X0091204Y0105079D01*
X0090473Y0105810D01*
X0089517Y0106206D01*
X0088483Y0106206D01*
X0088019Y0106014D01*
X0088019Y0106730D01*
X0087199Y0107550D01*
X0084700Y0107550D01*
X0084700Y0108510D01*
X0083704Y0109506D01*
X0081700Y0111510D01*
X0081700Y0113302D01*
X0082500Y0112502D01*
X0083431Y0111570D01*
X0083431Y0110414D01*
X0084252Y0109594D01*
X0087196Y0109594D01*
X0096748Y0099981D01*
X0095097Y0099981D01*
X0093285Y0099981D01*
X0092828Y0099858D01*
X0092417Y0099621D01*
X0092082Y0099286D01*
X0091845Y0098875D01*
X0091722Y0098418D01*
X0091722Y0096606D01*
X0095097Y0096606D01*
X0095097Y0096606D01*
X0095097Y0099981D01*
X0095097Y0096606D01*
X0095097Y0096606D01*
X0091722Y0096606D01*
X0091722Y0094794D01*
X0091845Y0094336D01*
X0092082Y0093926D01*
X0092417Y0093591D01*
X0092828Y0093354D01*
X0093285Y0093231D01*
X0095097Y0093231D01*
X0095097Y0096606D01*
X0095097Y0096606D01*
X0095097Y0093231D01*
X0096909Y0093231D01*
X0097367Y0093354D01*
X0097777Y0093591D01*
X0098112Y0093926D01*
X0098274Y0094205D01*
X0098848Y0093631D01*
X0103157Y0093631D01*
X0103978Y0094451D01*
X0103978Y0098761D01*
X0103157Y0099581D01*
X0101938Y0099581D01*
X0090168Y0111426D01*
X0090168Y0113833D01*
X0104700Y0099302D01*
X0104700Y0085710D01*
X0102696Y0083706D01*
X0097746Y0083706D01*
X0096021Y0081981D01*
X0092943Y0081981D01*
X0092122Y0081161D01*
X0092122Y0080706D01*
X0063076Y0080706D01*
X0063400Y0081489D01*
X0063400Y0082523D01*
X0063004Y0083479D01*
X0062273Y0084210D01*
X0061317Y0084606D01*
X0060283Y0084606D01*
X0059327Y0084210D01*
X0058823Y0083706D01*
X0049896Y0083706D01*
X0048900Y0082710D01*
X0043720Y0077530D01*
X0043325Y0077926D01*
X0031929Y0077926D01*
X0031109Y0077105D01*
X0031109Y0071221D01*
X0031929Y0070401D01*
X0043325Y0070401D01*
X0044145Y0071221D01*
X0044145Y0073147D01*
X0044500Y0073502D01*
X0051304Y0080306D01*
X0058823Y0080306D01*
X0059100Y0080029D01*
X0059100Y0078762D01*
X0059078Y0078762D01*
X0059064Y0078748D01*
X0059049Y0078762D01*
X0056519Y0078762D01*
X0056505Y0078748D01*
X0056490Y0078762D01*
X0053960Y0078762D01*
X0053946Y0078748D01*
X0053931Y0078762D01*
X0051401Y0078762D01*
X0050581Y0077942D01*
X0050581Y0071282D01*
X0050700Y0071163D01*
X0050700Y0070110D01*
X0046296Y0065706D01*
X0045300Y0064710D01*
X0045300Y0060672D01*
X0044437Y0060314D01*
X0043263Y0059141D01*
X0042628Y0057607D01*
X0042628Y0050404D01*
X0043263Y0048871D01*
X0044437Y0047698D01*
X0045970Y0047063D01*
X0047630Y0047063D01*
X0049163Y0047698D01*
X0050337Y0048871D01*
X0050972Y0050404D01*
X0050972Y0057607D01*
X0050337Y0059141D01*
X0049163Y0060314D01*
X0048700Y0060506D01*
X0048700Y0063302D01*
X0053104Y0067706D01*
X0054100Y0068702D01*
X0054100Y0070462D01*
X0056490Y0070462D01*
X0056505Y0070477D01*
X0056519Y0070462D01*
X0059049Y0070462D01*
X0059064Y0070477D01*
X0059078Y0070462D01*
X0060900Y0070462D01*
X0060900Y0070110D01*
X0056496Y0065706D01*
X0055500Y0064710D01*
X0055500Y0060754D01*
X0054437Y0060314D01*
X0053263Y0059141D01*
X0052628Y0057607D01*
X0052628Y0050404D01*
X0053263Y0048871D01*
X0054437Y0047698D01*
X0055970Y0047063D01*
X0057630Y0047063D01*
X0059163Y0047698D01*
X0060337Y0048871D01*
X0060972Y0050404D01*
X0060972Y0057607D01*
X0060337Y0059141D01*
X0059163Y0060314D01*
X0058900Y0060423D01*
X0058900Y0063302D01*
X0063304Y0067706D01*
X0064300Y0068702D01*
X0064300Y0070462D01*
X0066190Y0070462D01*
X0066230Y0070422D01*
X0066641Y0070185D01*
X0067098Y0070062D01*
X0068020Y0070062D01*
X0068020Y0074612D01*
X0068021Y0074612D01*
X0068021Y0070062D01*
X0068942Y0070062D01*
X0069400Y0070185D01*
X0069811Y0070422D01*
X0069851Y0070462D01*
X0071844Y0070462D01*
X0071859Y0070477D01*
X0071874Y0070462D01*
X0074404Y0070462D01*
X0074418Y0070477D01*
X0074433Y0070462D01*
X0076963Y0070462D01*
X0076977Y0070477D01*
X0076992Y0070462D01*
X0079522Y0070462D01*
X0079536Y0070477D01*
X0079551Y0070462D01*
X0082081Y0070462D01*
X0082095Y0070477D01*
X0082110Y0070462D01*
X0084640Y0070462D01*
X0084654Y0070477D01*
X0084669Y0070462D01*
X0087199Y0070462D01*
X0088019Y0071282D01*
X0088019Y0077306D01*
X0092122Y0077306D01*
X0092122Y0076851D01*
X0092943Y0076031D01*
X0097252Y0076031D01*
X0097826Y0076605D01*
X0097988Y0076326D01*
X0098323Y0075991D01*
X0098733Y0075754D01*
X0099191Y0075631D01*
X0101003Y0075631D01*
X0102815Y0075631D01*
X0103272Y0075754D01*
X0103683Y0075991D01*
X0104018Y0076326D01*
X0104255Y0076736D01*
X0104378Y0077194D01*
X0104378Y0079006D01*
X0104378Y0080579D01*
X0105100Y0081302D01*
X0107104Y0083306D01*
X0108100Y0084302D01*
X0108100Y0100710D01*
X0107104Y0101706D01*
X0098516Y0110294D01*
X0099949Y0109700D01*
X0103651Y0109700D01*
X0107071Y0111117D01*
X0109689Y0113735D01*
X0111105Y0117155D01*
X0111105Y0120857D01*
X0109689Y0124277D01*
X0107071Y0126895D01*
X0103651Y0128311D01*
X0099949Y0128311D01*
X0096529Y0126895D01*
X0093911Y0124277D01*
X0092494Y0120857D01*
X0092494Y0117155D01*
X0093088Y0115722D01*
X0090168Y0118642D01*
X0090168Y0122598D01*
X0089348Y0123418D01*
X0084252Y0123418D01*
X0083431Y0122598D01*
X0083431Y0117107D01*
X0084033Y0116506D01*
X0083668Y0116142D01*
X0082900Y0116910D01*
X0082900Y0136110D01*
X0081904Y0137106D01*
X0070001Y0149009D01*
X0070932Y0148623D01*
X0072353Y0148623D01*
X0073666Y0149167D01*
X0074670Y0150172D01*
X0075214Y0151484D01*
X0075214Y0152788D01*
X0081696Y0146306D01*
X0088825Y0146306D01*
X0088825Y0145454D01*
X0089623Y0144656D01*
X0088825Y0143858D01*
X0088825Y0139548D01*
X0089043Y0139331D01*
X0088825Y0139113D01*
X0088825Y0134804D01*
X0089399Y0134230D01*
X0089120Y0134068D01*
X0088785Y0133733D01*
X0088548Y0133323D01*
X0088425Y0132865D01*
X0088425Y0131053D01*
X0088425Y0129241D01*
X0088548Y0128784D01*
X0088785Y0128373D01*
X0089120Y0128038D01*
X0089530Y0127801D01*
X0089988Y0127678D01*
X0091800Y0127678D01*
X0093612Y0127678D01*
X0094070Y0127801D01*
X0094480Y0128038D01*
X0094815Y0128373D01*
X0095052Y0128784D01*
X0095175Y0129241D01*
X0095175Y0131053D01*
X0091800Y0131053D01*
X0091800Y0127678D01*
X0091800Y0131053D01*
X0091800Y0131053D01*
X0091800Y0131053D01*
X0088425Y0131053D01*
X0091800Y0131053D01*
X0091800Y0131053D01*
X0095175Y0131053D01*
X0095175Y0132865D01*
X0095052Y0133323D01*
X0094815Y0133733D01*
X0094480Y0134068D01*
X0094201Y0134230D01*
X0094775Y0134804D01*
X0094775Y0139113D01*
X0094557Y0139331D01*
X0094775Y0139548D01*
X0094775Y0143858D01*
X0093977Y0144656D01*
X0094775Y0145454D01*
X0094775Y0149763D01*
X0093955Y0150583D01*
X0089645Y0150583D01*
X0088825Y0149763D01*
X0088825Y0149706D01*
X0083104Y0149706D01*
X0075100Y0157710D01*
X0074104Y0158706D01*
X0072734Y0158706D01*
X0072734Y0161081D01*
X0073504Y0160310D01*
X0075106Y0159647D01*
X0076840Y0159647D01*
X0078442Y0160310D01*
X0079669Y0161537D01*
X0080332Y0163139D01*
X0080332Y0164873D01*
X0079669Y0166475D01*
X0078442Y0167701D01*
X0076840Y0168365D01*
X0075106Y0168365D01*
X0073504Y0167701D01*
X0072734Y0166931D01*
X0072734Y0167408D01*
X0072611Y0167866D01*
X0072374Y0168276D01*
X0072039Y0168612D01*
X0071629Y0168849D01*
X0071171Y0168971D01*
X0069051Y0168971D01*
X0069051Y0163320D01*
X0068486Y0163320D01*
X0068486Y0168971D01*
X0066366Y0168971D01*
X0065908Y0168849D01*
X0065498Y0168612D01*
X0065163Y0168276D01*
X0064926Y0167866D01*
X0064803Y0167408D01*
X0064803Y0163320D01*
X0068486Y0163320D01*
X0068486Y0162755D01*
X0064803Y0162755D01*
X0064803Y0158706D01*
X0059191Y0158706D01*
X0059191Y0162755D01*
X0055508Y0162755D01*
X0055508Y0163320D01*
X0059191Y0163320D01*
X0059191Y0167408D01*
X0059068Y0167866D01*
X0058831Y0168276D01*
X0058496Y0168612D01*
X0058085Y0168849D01*
X0057628Y0168971D01*
X0055508Y0168971D01*
X0055508Y0163320D01*
X0054942Y0163320D01*
X0054942Y0168971D01*
X0052823Y0168971D01*
X0052365Y0168849D01*
X0051955Y0168612D01*
X0051619Y0168276D01*
X0051383Y0167866D01*
X0051260Y0167408D01*
X0051260Y0166537D01*
X0050096Y0167701D01*
X0048494Y0168365D01*
X0046760Y0168365D01*
X0045158Y0167701D01*
X0043931Y0166475D01*
X0043268Y0164873D01*
X0043268Y0163139D01*
X0043931Y0161537D01*
X0045158Y0160310D01*
X0046760Y0159647D01*
X0048494Y0159647D01*
X0050096Y0160310D01*
X0051260Y0161474D01*
X0051260Y0158706D01*
X0050496Y0158706D01*
X0042373Y0150583D01*
X0039645Y0150583D01*
X0038825Y0149763D01*
X0038825Y0149106D01*
X0034775Y0149106D01*
X0034775Y0149763D01*
X0033955Y0150583D01*
X0029645Y0150583D01*
X0028825Y0149763D01*
X0028825Y0145454D01*
X0029623Y0144656D01*
X0028825Y0143858D01*
X0028825Y0139548D01*
X0029043Y0139331D01*
X0028825Y0139113D01*
X0028825Y0134804D01*
X0029623Y0134006D01*
X0028825Y0133208D01*
X0028825Y0128898D01*
X0029634Y0128089D01*
X0029400Y0127523D01*
X0029400Y0126489D01*
X0029796Y0125533D01*
X0030527Y0124802D01*
X0031483Y0124406D01*
X0032517Y0124406D01*
X0033300Y0124730D01*
X0033300Y0107310D01*
X0028296Y0102306D01*
X0028296Y0102306D01*
X0027300Y0101310D01*
X0027300Y0088502D01*
X0031109Y0084693D01*
X0031109Y0083400D01*
X0028417Y0081306D01*
X0028296Y0081306D01*
X0027873Y0080883D01*
X0027400Y0080515D01*
X0027385Y0080396D01*
X0027300Y0080310D01*
X0027300Y0079712D01*
X0027226Y0079118D01*
X0027300Y0079023D01*
X0027300Y0056102D01*
X0028296Y0055106D01*
X0040296Y0043106D01*
X0037221Y0046181D02*
X0008600Y0046181D01*
X0008600Y0047779D02*
X0035623Y0047779D01*
X0034024Y0049378D02*
X0008600Y0049378D01*
X0008600Y0050976D02*
X0032426Y0050976D01*
X0034037Y0054173D02*
X0042628Y0054173D01*
X0042628Y0052575D02*
X0035635Y0052575D01*
X0037234Y0050976D02*
X0042628Y0050976D01*
X0043054Y0049378D02*
X0038832Y0049378D01*
X0040431Y0047779D02*
X0044356Y0047779D01*
X0049244Y0047779D02*
X0054356Y0047779D01*
X0053054Y0049378D02*
X0050546Y0049378D01*
X0050972Y0050976D02*
X0052628Y0050976D01*
X0052628Y0052575D02*
X0050972Y0052575D01*
X0050972Y0054173D02*
X0052628Y0054173D01*
X0052628Y0055772D02*
X0050972Y0055772D01*
X0050972Y0057370D02*
X0052628Y0057370D01*
X0053192Y0058969D02*
X0050408Y0058969D01*
X0048700Y0060567D02*
X0055048Y0060567D01*
X0055500Y0062166D02*
X0048700Y0062166D01*
X0049162Y0063764D02*
X0055500Y0063764D01*
X0056153Y0065363D02*
X0050761Y0065363D01*
X0052359Y0066961D02*
X0057751Y0066961D01*
X0059350Y0068560D02*
X0053958Y0068560D01*
X0054100Y0070158D02*
X0060900Y0070158D01*
X0062559Y0066961D02*
X0115000Y0066961D01*
X0115000Y0065363D02*
X0060961Y0065363D01*
X0059362Y0063764D02*
X0115000Y0063764D01*
X0115000Y0062166D02*
X0058900Y0062166D01*
X0058900Y0060567D02*
X0065048Y0060567D01*
X0063192Y0058969D02*
X0060408Y0058969D01*
X0060972Y0057370D02*
X0062628Y0057370D01*
X0062628Y0055772D02*
X0060972Y0055772D01*
X0060972Y0054173D02*
X0062628Y0054173D01*
X0062628Y0052575D02*
X0060972Y0052575D01*
X0060972Y0050976D02*
X0062628Y0050976D01*
X0063054Y0049378D02*
X0060546Y0049378D01*
X0059244Y0047779D02*
X0064356Y0047779D01*
X0065980Y0044582D02*
X0115000Y0044582D01*
X0115000Y0046181D02*
X0067579Y0046181D01*
X0069244Y0047779D02*
X0073790Y0047779D01*
X0073822Y0047747D02*
X0074404Y0047324D01*
X0075045Y0046998D01*
X0075729Y0046775D01*
X0076440Y0046663D01*
X0076714Y0046663D01*
X0076714Y0053920D01*
X0072228Y0053920D01*
X0072228Y0050874D01*
X0072341Y0050164D01*
X0072563Y0049479D01*
X0072890Y0048838D01*
X0073313Y0048256D01*
X0073822Y0047747D01*
X0072615Y0049378D02*
X0070546Y0049378D01*
X0070972Y0050976D02*
X0072228Y0050976D01*
X0072228Y0052575D02*
X0070972Y0052575D01*
X0070972Y0054173D02*
X0072228Y0054173D01*
X0072228Y0054092D02*
X0076714Y0054092D01*
X0076714Y0061349D01*
X0076440Y0061349D01*
X0075729Y0061237D01*
X0075045Y0061014D01*
X0074404Y0060688D01*
X0073822Y0060265D01*
X0073313Y0059756D01*
X0072890Y0059174D01*
X0072563Y0058532D01*
X0072341Y0057848D01*
X0072228Y0057137D01*
X0072228Y0054092D01*
X0072228Y0055772D02*
X0070972Y0055772D01*
X0070972Y0057370D02*
X0072265Y0057370D01*
X0072786Y0058969D02*
X0070408Y0058969D01*
X0068552Y0060567D02*
X0074238Y0060567D01*
X0076714Y0060567D02*
X0076886Y0060567D01*
X0076886Y0061349D02*
X0076886Y0054092D01*
X0076714Y0054092D01*
X0076714Y0053920D01*
X0076886Y0053920D01*
X0076886Y0054092D01*
X0081372Y0054092D01*
X0081372Y0057137D01*
X0081259Y0057848D01*
X0081037Y0058532D01*
X0080710Y0059174D01*
X0080287Y0059756D01*
X0079778Y0060265D01*
X0079196Y0060688D01*
X0078555Y0061014D01*
X0077871Y0061237D01*
X0077160Y0061349D01*
X0076886Y0061349D01*
X0076886Y0058969D02*
X0076714Y0058969D01*
X0076714Y0057370D02*
X0076886Y0057370D01*
X0076886Y0055772D02*
X0076714Y0055772D01*
X0076714Y0054173D02*
X0076886Y0054173D01*
X0076886Y0053920D02*
X0081372Y0053920D01*
X0081372Y0050874D01*
X0081259Y0050164D01*
X0081037Y0049479D01*
X0080710Y0048838D01*
X0080287Y0048256D01*
X0079778Y0047747D01*
X0079196Y0047324D01*
X0078555Y0046998D01*
X0077871Y0046775D01*
X0077160Y0046663D01*
X0076886Y0046663D01*
X0076886Y0053920D01*
X0076886Y0052575D02*
X0076714Y0052575D01*
X0076714Y0050976D02*
X0076886Y0050976D01*
X0076886Y0049378D02*
X0076714Y0049378D01*
X0076714Y0047779D02*
X0076886Y0047779D01*
X0079810Y0047779D02*
X0115000Y0047779D01*
X0115000Y0049378D02*
X0080985Y0049378D01*
X0081372Y0050976D02*
X0115000Y0050976D01*
X0115000Y0052575D02*
X0081372Y0052575D01*
X0081372Y0054173D02*
X0115000Y0054173D01*
X0115000Y0055772D02*
X0081372Y0055772D01*
X0081335Y0057370D02*
X0115000Y0057370D01*
X0115000Y0058969D02*
X0080814Y0058969D01*
X0079362Y0060567D02*
X0115000Y0060567D01*
X0115000Y0068560D02*
X0064158Y0068560D01*
X0064300Y0070158D02*
X0066740Y0070158D01*
X0068020Y0070158D02*
X0068021Y0070158D01*
X0069301Y0070158D02*
X0115000Y0070158D01*
X0115000Y0071757D02*
X0088019Y0071757D01*
X0088019Y0073355D02*
X0115000Y0073355D01*
X0115000Y0074954D02*
X0088019Y0074954D01*
X0088019Y0076552D02*
X0092421Y0076552D01*
X0092310Y0081348D02*
X0063342Y0081348D01*
X0063225Y0082946D02*
X0096986Y0082946D01*
X0098766Y0084545D02*
X0061465Y0084545D01*
X0060135Y0084545D02*
X0044145Y0084545D01*
X0044145Y0086143D02*
X0092122Y0086143D01*
X0091060Y0087742D02*
X0043351Y0087742D01*
X0044145Y0082946D02*
X0049136Y0082946D01*
X0047538Y0081348D02*
X0044145Y0081348D01*
X0044341Y0078151D02*
X0030700Y0078151D01*
X0030700Y0076552D02*
X0031109Y0076552D01*
X0031109Y0074954D02*
X0030700Y0074954D01*
X0030700Y0073355D02*
X0031109Y0073355D01*
X0031109Y0071757D02*
X0030700Y0071757D01*
X0030700Y0070158D02*
X0050700Y0070158D01*
X0050581Y0071757D02*
X0044145Y0071757D01*
X0044354Y0073355D02*
X0050581Y0073355D01*
X0050581Y0074954D02*
X0045952Y0074954D01*
X0047551Y0076552D02*
X0050581Y0076552D01*
X0050790Y0078151D02*
X0049149Y0078151D01*
X0050748Y0079749D02*
X0059100Y0079749D01*
X0068020Y0073355D02*
X0068021Y0073355D01*
X0068020Y0071757D02*
X0068021Y0071757D01*
X0078137Y0090939D02*
X0087863Y0090939D01*
X0089461Y0089340D02*
X0031270Y0089340D01*
X0031109Y0090939D02*
X0030700Y0090939D01*
X0030700Y0092537D02*
X0031109Y0092537D01*
X0031109Y0094136D02*
X0030700Y0094136D01*
X0030700Y0095734D02*
X0031109Y0095734D01*
X0030700Y0097333D02*
X0031651Y0097333D01*
X0030700Y0098931D02*
X0044470Y0098931D01*
X0043602Y0097333D02*
X0046069Y0097333D01*
X0047667Y0095734D02*
X0044145Y0095734D01*
X0044145Y0094136D02*
X0049266Y0094136D01*
X0050704Y0097506D02*
X0040900Y0107310D01*
X0040900Y0124956D01*
X0042167Y0125906D01*
X0042304Y0125906D01*
X0042717Y0126318D01*
X0042900Y0126456D01*
X0042900Y0121833D01*
X0042245Y0121833D01*
X0041425Y0121013D01*
X0041425Y0116704D01*
X0042223Y0115906D01*
X0041425Y0115108D01*
X0041425Y0110798D01*
X0042245Y0109978D01*
X0046555Y0109978D01*
X0047375Y0110798D01*
X0047375Y0110906D01*
X0048023Y0110906D01*
X0048527Y0110402D01*
X0049483Y0110006D01*
X0050517Y0110006D01*
X0051473Y0110402D01*
X0052204Y0111133D01*
X0052600Y0112089D01*
X0052600Y0113123D01*
X0052204Y0114079D01*
X0051473Y0114810D01*
X0050517Y0115206D01*
X0049483Y0115206D01*
X0048527Y0114810D01*
X0048023Y0114306D01*
X0047375Y0114306D01*
X0047375Y0115108D01*
X0046577Y0115906D01*
X0047375Y0116704D01*
X0047375Y0121013D01*
X0046555Y0121833D01*
X0046300Y0121833D01*
X0046300Y0145710D01*
X0044775Y0147235D01*
X0044775Y0148177D01*
X0048386Y0151788D01*
X0048386Y0151484D01*
X0048930Y0150172D01*
X0049934Y0149167D01*
X0051247Y0148623D01*
X0052668Y0148623D01*
X0053981Y0149167D01*
X0054193Y0149379D01*
X0054193Y0149300D01*
X0054316Y0148843D01*
X0054553Y0148432D01*
X0054888Y0148097D01*
X0055298Y0147860D01*
X0055756Y0147737D01*
X0056682Y0147737D01*
X0057608Y0147737D01*
X0058066Y0147860D01*
X0058476Y0148097D01*
X0058516Y0148137D01*
X0059489Y0148137D01*
X0059400Y0147923D01*
X0059400Y0146889D01*
X0059796Y0145933D01*
X0060527Y0145202D01*
X0061483Y0144806D01*
X0062517Y0144806D01*
X0063473Y0145202D01*
X0064204Y0145933D01*
X0064516Y0146686D01*
X0078300Y0132902D01*
X0078300Y0110102D01*
X0080852Y0107550D01*
X0080087Y0107550D01*
X0080047Y0107590D01*
X0079637Y0107827D01*
X0079179Y0107950D01*
X0078257Y0107950D01*
X0078257Y0103400D01*
X0078257Y0103400D01*
X0078257Y0107950D01*
X0077335Y0107950D01*
X0076877Y0107827D01*
X0076466Y0107590D01*
X0076426Y0107550D01*
X0074500Y0107550D01*
X0074500Y0109110D01*
X0073504Y0110106D01*
X0072700Y0110910D01*
X0071734Y0111876D01*
X0071734Y0115328D01*
X0072890Y0115328D01*
X0072890Y0116484D01*
X0076868Y0116484D01*
X0076868Y0119292D01*
X0076745Y0119750D01*
X0076508Y0120161D01*
X0076173Y0120496D01*
X0075762Y0120733D01*
X0075305Y0120855D01*
X0072890Y0120855D01*
X0072890Y0116484D01*
X0071734Y0116484D01*
X0071734Y0120855D01*
X0069319Y0120855D01*
X0068861Y0120733D01*
X0068451Y0120496D01*
X0068116Y0120161D01*
X0067879Y0119750D01*
X0067756Y0119292D01*
X0067756Y0116484D01*
X0071734Y0116484D01*
X0071734Y0115328D01*
X0067756Y0115328D01*
X0067756Y0112519D01*
X0067879Y0112062D01*
X0067968Y0111906D01*
X0065174Y0111906D01*
X0065444Y0112176D01*
X0065444Y0119635D01*
X0064624Y0120455D01*
X0057952Y0120455D01*
X0057132Y0119635D01*
X0057132Y0112176D01*
X0057952Y0111356D01*
X0059645Y0111356D01*
X0062496Y0108506D01*
X0070296Y0108506D01*
X0070852Y0107950D01*
X0070580Y0107950D01*
X0070580Y0103400D01*
X0070579Y0103400D01*
X0070579Y0107950D01*
X0069658Y0107950D01*
X0069200Y0107827D01*
X0068789Y0107590D01*
X0068749Y0107550D01*
X0066756Y0107550D01*
X0066741Y0107535D01*
X0066726Y0107550D01*
X0064196Y0107550D01*
X0064182Y0107535D01*
X0064167Y0107550D01*
X0062174Y0107550D01*
X0062134Y0107590D01*
X0061723Y0107827D01*
X0061265Y0107950D01*
X0060343Y0107950D01*
X0059421Y0107950D01*
X0059064Y0107854D01*
X0058706Y0107950D01*
X0057784Y0107950D01*
X0056862Y0107950D01*
X0056404Y0107827D01*
X0055994Y0107590D01*
X0055954Y0107550D01*
X0053960Y0107550D01*
X0053946Y0107535D01*
X0053931Y0107550D01*
X0051401Y0107550D01*
X0050581Y0106730D01*
X0050581Y0100070D01*
X0051401Y0099250D01*
X0053931Y0099250D01*
X0053946Y0099264D01*
X0053960Y0099250D01*
X0055954Y0099250D01*
X0055994Y0099209D01*
X0056404Y0098972D01*
X0056862Y0098850D01*
X0057784Y0098850D01*
X0057784Y0103399D01*
X0057784Y0103399D01*
X0057784Y0098850D01*
X0058706Y0098850D01*
X0059064Y0098945D01*
X0059421Y0098850D01*
X0060343Y0098850D01*
X0060343Y0103399D01*
X0060343Y0103399D01*
X0060343Y0103400D02*
X0057858Y0103400D01*
X0057784Y0103400D01*
X0057784Y0107950D01*
X0057784Y0103400D01*
X0057784Y0103400D01*
X0060343Y0103400D01*
X0060343Y0107950D01*
X0060343Y0103400D01*
X0060343Y0103400D01*
X0060343Y0103400D01*
X0060343Y0103399D02*
X0060343Y0098850D01*
X0060652Y0098850D01*
X0060600Y0098723D01*
X0060600Y0097689D01*
X0060676Y0097506D01*
X0050704Y0097506D01*
X0049279Y0098931D02*
X0056557Y0098931D01*
X0057784Y0098931D02*
X0057784Y0098931D01*
X0059012Y0098931D02*
X0059116Y0098931D01*
X0060343Y0098931D02*
X0060343Y0098931D01*
X0060343Y0100530D02*
X0060343Y0100530D01*
X0060343Y0102128D02*
X0060343Y0102128D01*
X0060343Y0103727D02*
X0060343Y0103727D01*
X0060343Y0105326D02*
X0060343Y0105326D01*
X0060343Y0106924D02*
X0060343Y0106924D01*
X0060881Y0110121D02*
X0050795Y0110121D01*
X0052447Y0111720D02*
X0057589Y0111720D01*
X0057132Y0113318D02*
X0052519Y0113318D01*
X0051216Y0114917D02*
X0057132Y0114917D01*
X0057132Y0116515D02*
X0047186Y0116515D01*
X0047375Y0114917D02*
X0048784Y0114917D01*
X0047375Y0118114D02*
X0057132Y0118114D01*
X0057209Y0119712D02*
X0047375Y0119712D01*
X0047078Y0121311D02*
X0078300Y0121311D01*
X0078300Y0122909D02*
X0046300Y0122909D01*
X0046300Y0124508D02*
X0078300Y0124508D01*
X0078300Y0126106D02*
X0046300Y0126106D01*
X0046300Y0127705D02*
X0078300Y0127705D01*
X0078300Y0129303D02*
X0046300Y0129303D01*
X0046300Y0130902D02*
X0078300Y0130902D01*
X0078300Y0132500D02*
X0046300Y0132500D01*
X0046300Y0134099D02*
X0077103Y0134099D01*
X0075505Y0135697D02*
X0046300Y0135697D01*
X0046300Y0137296D02*
X0073906Y0137296D01*
X0072307Y0138894D02*
X0046300Y0138894D01*
X0046300Y0140493D02*
X0070709Y0140493D01*
X0069110Y0142091D02*
X0046300Y0142091D01*
X0046300Y0143690D02*
X0067512Y0143690D01*
X0065913Y0145288D02*
X0063559Y0145288D01*
X0060441Y0145288D02*
X0046300Y0145288D01*
X0045123Y0146887D02*
X0059401Y0146887D01*
X0056682Y0147737D02*
X0056682Y0152195D01*
X0056682Y0152195D01*
X0056682Y0147737D01*
X0056682Y0148485D02*
X0056682Y0148485D01*
X0056682Y0150084D02*
X0056682Y0150084D01*
X0056682Y0151682D02*
X0056682Y0151682D01*
X0054522Y0148485D02*
X0045084Y0148485D01*
X0046682Y0150084D02*
X0049017Y0150084D01*
X0048386Y0151682D02*
X0048281Y0151682D01*
X0046669Y0154879D02*
X0022669Y0154879D01*
X0021146Y0153281D02*
X0045071Y0153281D01*
X0043472Y0151682D02*
X0019985Y0151682D01*
X0018823Y0150084D02*
X0029146Y0150084D01*
X0028825Y0148485D02*
X0017662Y0148485D01*
X0016501Y0146887D02*
X0028825Y0146887D01*
X0028991Y0145288D02*
X0015668Y0145288D01*
X0014853Y0143690D02*
X0028825Y0143690D01*
X0028825Y0142091D02*
X0014039Y0142091D01*
X0013224Y0140493D02*
X0028825Y0140493D01*
X0028825Y0138894D02*
X0012497Y0138894D01*
X0011977Y0137296D02*
X0028825Y0137296D01*
X0028825Y0135697D02*
X0011458Y0135697D01*
X0010939Y0134099D02*
X0029530Y0134099D01*
X0028825Y0132500D02*
X0010419Y0132500D01*
X0009987Y0130902D02*
X0028825Y0130902D01*
X0028825Y0129303D02*
X0009734Y0129303D01*
X0009481Y0127705D02*
X0018484Y0127705D01*
X0019949Y0128311D02*
X0016529Y0126895D01*
X0013911Y0124277D01*
X0012494Y0120857D01*
X0012494Y0117155D01*
X0013911Y0113735D01*
X0016529Y0111117D01*
X0019949Y0109700D01*
X0023651Y0109700D01*
X0027071Y0111117D01*
X0029689Y0113735D01*
X0031105Y0117155D01*
X0031105Y0120857D01*
X0029689Y0124277D01*
X0027071Y0126895D01*
X0023651Y0128311D01*
X0019949Y0128311D01*
X0015740Y0126106D02*
X0009227Y0126106D01*
X0008974Y0124508D02*
X0014142Y0124508D01*
X0013345Y0122909D02*
X0008753Y0122909D01*
X0008691Y0121311D02*
X0012682Y0121311D01*
X0012494Y0119712D02*
X0008628Y0119712D01*
X0008600Y0118114D02*
X0012494Y0118114D01*
X0012759Y0116515D02*
X0008600Y0116515D01*
X0008600Y0114917D02*
X0013422Y0114917D01*
X0014328Y0113318D02*
X0008600Y0113318D01*
X0008600Y0111720D02*
X0015926Y0111720D01*
X0018933Y0110121D02*
X0008600Y0110121D01*
X0008600Y0108523D02*
X0033300Y0108523D01*
X0033300Y0110121D02*
X0024667Y0110121D01*
X0027674Y0111720D02*
X0033300Y0111720D01*
X0033300Y0113318D02*
X0029272Y0113318D01*
X0030178Y0114917D02*
X0033300Y0114917D01*
X0033300Y0116515D02*
X0030840Y0116515D01*
X0031105Y0118114D02*
X0033300Y0118114D01*
X0033300Y0119712D02*
X0031105Y0119712D01*
X0030918Y0121311D02*
X0033300Y0121311D01*
X0033300Y0122909D02*
X0030255Y0122909D01*
X0029458Y0124508D02*
X0031237Y0124508D01*
X0032763Y0124508D02*
X0033300Y0124508D01*
X0036700Y0124508D02*
X0037500Y0124508D01*
X0037500Y0126106D02*
X0036700Y0126106D01*
X0036700Y0127705D02*
X0038898Y0127705D01*
X0038825Y0129303D02*
X0037901Y0129303D01*
X0040900Y0124508D02*
X0042900Y0124508D01*
X0042900Y0126106D02*
X0042504Y0126106D01*
X0042900Y0122909D02*
X0040900Y0122909D01*
X0040900Y0121311D02*
X0041722Y0121311D01*
X0041425Y0119712D02*
X0040900Y0119712D01*
X0040900Y0118114D02*
X0041425Y0118114D01*
X0041614Y0116515D02*
X0040900Y0116515D01*
X0040900Y0114917D02*
X0041425Y0114917D01*
X0041425Y0113318D02*
X0040900Y0113318D01*
X0040900Y0111720D02*
X0041425Y0111720D01*
X0040900Y0110121D02*
X0042103Y0110121D01*
X0040900Y0108523D02*
X0062479Y0108523D01*
X0065444Y0113318D02*
X0067756Y0113318D01*
X0067756Y0114917D02*
X0065444Y0114917D01*
X0065444Y0116515D02*
X0067756Y0116515D01*
X0067756Y0118114D02*
X0065444Y0118114D01*
X0065367Y0119712D02*
X0067868Y0119712D01*
X0071734Y0119712D02*
X0072890Y0119712D01*
X0072890Y0118114D02*
X0071734Y0118114D01*
X0071734Y0116515D02*
X0072890Y0116515D01*
X0072890Y0115328D02*
X0076868Y0115328D01*
X0076868Y0112519D01*
X0076745Y0112062D01*
X0076508Y0111651D01*
X0076173Y0111316D01*
X0075762Y0111079D01*
X0075305Y0110956D01*
X0072890Y0110956D01*
X0072890Y0115328D01*
X0072890Y0114917D02*
X0071734Y0114917D01*
X0071734Y0113318D02*
X0072890Y0113318D01*
X0072890Y0111720D02*
X0071890Y0111720D01*
X0073489Y0110121D02*
X0078300Y0110121D01*
X0078300Y0111720D02*
X0076548Y0111720D01*
X0076868Y0113318D02*
X0078300Y0113318D01*
X0078300Y0114917D02*
X0076868Y0114917D01*
X0076868Y0116515D02*
X0078300Y0116515D01*
X0078300Y0118114D02*
X0076868Y0118114D01*
X0076755Y0119712D02*
X0078300Y0119712D01*
X0082900Y0119712D02*
X0083431Y0119712D01*
X0083431Y0118114D02*
X0082900Y0118114D01*
X0083295Y0116515D02*
X0084023Y0116515D01*
X0083431Y0121311D02*
X0082900Y0121311D01*
X0082900Y0122909D02*
X0083743Y0122909D01*
X0082900Y0124508D02*
X0094142Y0124508D01*
X0093345Y0122909D02*
X0089857Y0122909D01*
X0090168Y0121311D02*
X0092682Y0121311D01*
X0092494Y0119712D02*
X0090168Y0119712D01*
X0090696Y0118114D02*
X0092494Y0118114D01*
X0092295Y0116515D02*
X0092760Y0116515D01*
X0090684Y0113318D02*
X0090168Y0113318D01*
X0090168Y0111720D02*
X0092282Y0111720D01*
X0091465Y0110121D02*
X0093881Y0110121D01*
X0093054Y0108523D02*
X0095479Y0108523D01*
X0094642Y0106924D02*
X0097078Y0106924D01*
X0096230Y0105326D02*
X0098676Y0105326D01*
X0097818Y0103727D02*
X0100275Y0103727D01*
X0099407Y0102128D02*
X0101873Y0102128D01*
X0100995Y0100530D02*
X0103472Y0100530D01*
X0103807Y0098931D02*
X0104700Y0098931D01*
X0104700Y0097333D02*
X0103978Y0097333D01*
X0103978Y0095734D02*
X0104700Y0095734D01*
X0104700Y0094136D02*
X0103662Y0094136D01*
X0104700Y0092537D02*
X0091073Y0092537D01*
X0091961Y0094136D02*
X0089474Y0094136D01*
X0087876Y0095734D02*
X0091722Y0095734D01*
X0091722Y0097333D02*
X0086277Y0097333D01*
X0084679Y0098931D02*
X0091877Y0098931D01*
X0095097Y0098931D02*
X0095097Y0098931D01*
X0095097Y0097333D02*
X0095097Y0097333D01*
X0095097Y0095734D02*
X0095097Y0095734D01*
X0095097Y0094136D02*
X0095097Y0094136D01*
X0092671Y0090939D02*
X0098527Y0090939D01*
X0101003Y0090939D02*
X0101003Y0090939D01*
X0101003Y0089340D02*
X0101003Y0089340D01*
X0101003Y0087742D02*
X0101003Y0087742D01*
X0101003Y0086143D02*
X0101003Y0086143D01*
X0101003Y0084545D02*
X0101003Y0084545D01*
X0103239Y0084545D02*
X0103535Y0084545D01*
X0104378Y0086143D02*
X0104700Y0086143D01*
X0104700Y0087742D02*
X0104378Y0087742D01*
X0104378Y0089340D02*
X0104700Y0089340D01*
X0104700Y0090939D02*
X0103479Y0090939D01*
X0108100Y0090939D02*
X0115000Y0090939D01*
X0115000Y0092537D02*
X0108100Y0092537D01*
X0108100Y0094136D02*
X0115000Y0094136D01*
X0115000Y0095734D02*
X0108100Y0095734D01*
X0108100Y0097333D02*
X0115000Y0097333D01*
X0115000Y0098931D02*
X0108100Y0098931D01*
X0108100Y0100530D02*
X0115000Y0100530D01*
X0115000Y0102128D02*
X0106682Y0102128D01*
X0105083Y0103727D02*
X0115000Y0103727D01*
X0115000Y0105326D02*
X0103485Y0105326D01*
X0101886Y0106924D02*
X0115000Y0106924D01*
X0115000Y0108523D02*
X0100288Y0108523D01*
X0098933Y0110121D02*
X0098689Y0110121D01*
X0093026Y0103727D02*
X0091600Y0103727D01*
X0091437Y0105326D02*
X0090957Y0105326D01*
X0089849Y0106924D02*
X0087824Y0106924D01*
X0088261Y0108523D02*
X0084688Y0108523D01*
X0083725Y0110121D02*
X0083089Y0110121D01*
X0083282Y0111720D02*
X0081700Y0111720D01*
X0079879Y0108523D02*
X0074500Y0108523D01*
X0078257Y0106924D02*
X0078257Y0106924D01*
X0078257Y0105326D02*
X0078257Y0105326D01*
X0078257Y0103727D02*
X0078257Y0103727D01*
X0078257Y0103399D02*
X0078257Y0098850D01*
X0078900Y0098850D01*
X0078900Y0096510D01*
X0078061Y0095672D01*
X0078400Y0096489D01*
X0078400Y0097523D01*
X0078004Y0098479D01*
X0077633Y0098850D01*
X0078257Y0098850D01*
X0078257Y0103399D01*
X0078257Y0103399D01*
X0078257Y0102128D02*
X0078257Y0102128D01*
X0078257Y0100530D02*
X0078257Y0100530D01*
X0078257Y0098931D02*
X0078257Y0098931D01*
X0078400Y0097333D02*
X0078900Y0097333D01*
X0078124Y0095734D02*
X0078088Y0095734D01*
X0079736Y0092537D02*
X0086264Y0092537D01*
X0084666Y0094136D02*
X0081334Y0094136D01*
X0082300Y0095734D02*
X0083067Y0095734D01*
X0088019Y0100530D02*
X0096202Y0100530D01*
X0094614Y0102128D02*
X0091200Y0102128D01*
X0098234Y0094136D02*
X0098343Y0094136D01*
X0106745Y0082946D02*
X0115000Y0082946D01*
X0115000Y0081348D02*
X0105146Y0081348D01*
X0104378Y0079749D02*
X0115000Y0079749D01*
X0115000Y0078151D02*
X0104378Y0078151D01*
X0104378Y0079006D02*
X0101003Y0079006D01*
X0104378Y0079006D01*
X0104149Y0076552D02*
X0115000Y0076552D01*
X0115000Y0084545D02*
X0108100Y0084545D01*
X0108100Y0086143D02*
X0115000Y0086143D01*
X0115000Y0087742D02*
X0108100Y0087742D01*
X0108100Y0089340D02*
X0115000Y0089340D01*
X0115000Y0110121D02*
X0104667Y0110121D01*
X0107674Y0111720D02*
X0115000Y0111720D01*
X0115000Y0113318D02*
X0109272Y0113318D01*
X0110178Y0114917D02*
X0115000Y0114917D01*
X0115000Y0116515D02*
X0110840Y0116515D01*
X0111105Y0118114D02*
X0115000Y0118114D01*
X0114972Y0119712D02*
X0111105Y0119712D01*
X0110918Y0121311D02*
X0114909Y0121311D01*
X0114847Y0122909D02*
X0110255Y0122909D01*
X0109458Y0124508D02*
X0114626Y0124508D01*
X0114373Y0126106D02*
X0107860Y0126106D01*
X0105116Y0127705D02*
X0114119Y0127705D01*
X0113866Y0129303D02*
X0095175Y0129303D01*
X0095175Y0130902D02*
X0113613Y0130902D01*
X0113181Y0132500D02*
X0095175Y0132500D01*
X0094427Y0134099D02*
X0112661Y0134099D01*
X0112142Y0135697D02*
X0094775Y0135697D01*
X0094775Y0137296D02*
X0111623Y0137296D01*
X0111103Y0138894D02*
X0094775Y0138894D01*
X0094775Y0140493D02*
X0110376Y0140493D01*
X0109561Y0142091D02*
X0094775Y0142091D01*
X0094775Y0143690D02*
X0108747Y0143690D01*
X0107932Y0145288D02*
X0094609Y0145288D01*
X0094775Y0146887D02*
X0107099Y0146887D01*
X0105938Y0148485D02*
X0094775Y0148485D01*
X0094454Y0150084D02*
X0104777Y0150084D01*
X0103615Y0151682D02*
X0081128Y0151682D01*
X0082726Y0150084D02*
X0089146Y0150084D01*
X0088991Y0145288D02*
X0073722Y0145288D01*
X0075320Y0143690D02*
X0088825Y0143690D01*
X0088825Y0142091D02*
X0076919Y0142091D01*
X0078517Y0140493D02*
X0088825Y0140493D01*
X0088825Y0138894D02*
X0080116Y0138894D01*
X0081714Y0137296D02*
X0088825Y0137296D01*
X0088825Y0135697D02*
X0082900Y0135697D01*
X0082900Y0134099D02*
X0089173Y0134099D01*
X0088425Y0132500D02*
X0082900Y0132500D01*
X0082900Y0130902D02*
X0088425Y0130902D01*
X0088425Y0129303D02*
X0082900Y0129303D01*
X0082900Y0127705D02*
X0089890Y0127705D01*
X0091800Y0127705D02*
X0091800Y0127705D01*
X0091800Y0129303D02*
X0091800Y0129303D01*
X0091800Y0130902D02*
X0091800Y0130902D01*
X0093710Y0127705D02*
X0098484Y0127705D01*
X0095740Y0126106D02*
X0082900Y0126106D01*
X0081904Y0137106D02*
X0081904Y0137106D01*
X0081115Y0146887D02*
X0072123Y0146887D01*
X0070525Y0148485D02*
X0079516Y0148485D01*
X0077918Y0150084D02*
X0074583Y0150084D01*
X0075214Y0151682D02*
X0076319Y0151682D01*
X0077931Y0154879D02*
X0100931Y0154879D01*
X0102454Y0153281D02*
X0079529Y0153281D01*
X0076332Y0156478D02*
X0099332Y0156478D01*
X0097734Y0158076D02*
X0074734Y0158076D01*
X0075038Y0159675D02*
X0072734Y0159675D01*
X0068486Y0162872D02*
X0055508Y0162872D01*
X0055508Y0164470D02*
X0054942Y0164470D01*
X0054942Y0166069D02*
X0055508Y0166069D01*
X0055508Y0167667D02*
X0054942Y0167667D01*
X0051329Y0167667D02*
X0050130Y0167667D01*
X0050192Y0170864D02*
X0073408Y0170864D01*
X0073470Y0167667D02*
X0072664Y0167667D01*
X0069051Y0167667D02*
X0068486Y0167667D01*
X0068486Y0166069D02*
X0069051Y0166069D01*
X0069051Y0164470D02*
X0068486Y0164470D01*
X0064803Y0164470D02*
X0059191Y0164470D01*
X0059191Y0166069D02*
X0064803Y0166069D01*
X0064873Y0167667D02*
X0059121Y0167667D01*
X0059191Y0161273D02*
X0064803Y0161273D01*
X0064803Y0159675D02*
X0059191Y0159675D01*
X0051260Y0159675D02*
X0048562Y0159675D01*
X0049866Y0158076D02*
X0025866Y0158076D01*
X0024268Y0156478D02*
X0048268Y0156478D01*
X0046692Y0159675D02*
X0027546Y0159675D01*
X0029746Y0161273D02*
X0044195Y0161273D01*
X0043378Y0162872D02*
X0031946Y0162872D01*
X0034207Y0164470D02*
X0043268Y0164470D01*
X0043763Y0166069D02*
X0037345Y0166069D01*
X0040482Y0167667D02*
X0045124Y0167667D01*
X0044856Y0169266D02*
X0078744Y0169266D01*
X0078476Y0167667D02*
X0083118Y0167667D01*
X0086255Y0166069D02*
X0079837Y0166069D01*
X0080332Y0164470D02*
X0089393Y0164470D01*
X0091654Y0162872D02*
X0080222Y0162872D01*
X0079405Y0161273D02*
X0093854Y0161273D01*
X0096054Y0159675D02*
X0076908Y0159675D01*
X0051260Y0161273D02*
X0051059Y0161273D01*
X0039146Y0150084D02*
X0034454Y0150084D01*
X0029475Y0127705D02*
X0025116Y0127705D01*
X0027860Y0126106D02*
X0029558Y0126106D01*
X0036700Y0122909D02*
X0037500Y0122909D01*
X0037500Y0121311D02*
X0036700Y0121311D01*
X0036700Y0119712D02*
X0037500Y0119712D01*
X0037500Y0118114D02*
X0036700Y0118114D01*
X0036700Y0116515D02*
X0037500Y0116515D01*
X0037500Y0114917D02*
X0036700Y0114917D01*
X0036700Y0113318D02*
X0037500Y0113318D01*
X0037500Y0111720D02*
X0036700Y0111720D01*
X0036700Y0110121D02*
X0037500Y0110121D01*
X0037500Y0108523D02*
X0036700Y0108523D01*
X0036700Y0106924D02*
X0037500Y0106924D01*
X0038076Y0105326D02*
X0036124Y0105326D01*
X0034525Y0103727D02*
X0039675Y0103727D01*
X0041273Y0102128D02*
X0032927Y0102128D01*
X0031328Y0100530D02*
X0042872Y0100530D01*
X0044483Y0103727D02*
X0050581Y0103727D01*
X0050581Y0102128D02*
X0046082Y0102128D01*
X0047680Y0100530D02*
X0050581Y0100530D01*
X0050581Y0105326D02*
X0042885Y0105326D01*
X0041286Y0106924D02*
X0050776Y0106924D01*
X0049205Y0110121D02*
X0046697Y0110121D01*
X0057784Y0106924D02*
X0057784Y0106924D01*
X0057784Y0105326D02*
X0057784Y0105326D01*
X0057784Y0103727D02*
X0057784Y0103727D01*
X0057784Y0103400D02*
X0057784Y0103400D01*
X0057784Y0102128D02*
X0057784Y0102128D01*
X0057784Y0100530D02*
X0057784Y0100530D01*
X0065734Y0094136D02*
X0076526Y0094136D01*
X0070512Y0095734D02*
X0067333Y0095734D01*
X0068931Y0097333D02*
X0070200Y0097333D01*
X0070579Y0098931D02*
X0070580Y0098931D01*
X0070579Y0100530D02*
X0070580Y0100530D01*
X0070579Y0102128D02*
X0070580Y0102128D01*
X0070579Y0103727D02*
X0070580Y0103727D01*
X0070579Y0105326D02*
X0070580Y0105326D01*
X0070579Y0106924D02*
X0070580Y0106924D01*
X0045939Y0079749D02*
X0031953Y0079749D01*
X0030526Y0082946D02*
X0022491Y0082946D01*
X0022491Y0081348D02*
X0028471Y0081348D01*
X0027300Y0079749D02*
X0008600Y0079749D01*
X0009455Y0081064D02*
X0010275Y0080244D01*
X0021671Y0080244D01*
X0022491Y0081064D01*
X0022491Y0086948D01*
X0021671Y0087768D01*
X0010275Y0087768D01*
X0009455Y0086948D01*
X0009455Y0081064D01*
X0009455Y0081348D02*
X0008600Y0081348D01*
X0008600Y0082946D02*
X0009455Y0082946D01*
X0009455Y0084545D02*
X0008600Y0084545D01*
X0008600Y0086143D02*
X0009455Y0086143D01*
X0010249Y0087742D02*
X0008600Y0087742D01*
X0008600Y0089340D02*
X0027300Y0089340D01*
X0027300Y0090939D02*
X0022491Y0090939D01*
X0022491Y0090906D02*
X0022491Y0096791D01*
X0021671Y0097611D01*
X0010275Y0097611D01*
X0009455Y0096791D01*
X0009455Y0090906D01*
X0010275Y0090086D01*
X0021671Y0090086D01*
X0022491Y0090906D01*
X0022491Y0092537D02*
X0027300Y0092537D01*
X0027300Y0094136D02*
X0022491Y0094136D01*
X0022491Y0095734D02*
X0027300Y0095734D01*
X0027300Y0097333D02*
X0021949Y0097333D01*
X0027300Y0098931D02*
X0008600Y0098931D01*
X0008600Y0097333D02*
X0009998Y0097333D01*
X0009455Y0095734D02*
X0008600Y0095734D01*
X0008600Y0094136D02*
X0009455Y0094136D01*
X0009455Y0092537D02*
X0008600Y0092537D01*
X0008600Y0090939D02*
X0009455Y0090939D01*
X0008600Y0100530D02*
X0027300Y0100530D01*
X0028118Y0102128D02*
X0008600Y0102128D01*
X0008600Y0103727D02*
X0029717Y0103727D01*
X0031315Y0105326D02*
X0008600Y0105326D01*
X0008600Y0106924D02*
X0032914Y0106924D01*
X0028060Y0087742D02*
X0021697Y0087742D01*
X0022491Y0086143D02*
X0029658Y0086143D01*
X0031109Y0084545D02*
X0022491Y0084545D01*
X0021671Y0077926D02*
X0010275Y0077926D01*
X0009455Y0077105D01*
X0009455Y0071221D01*
X0010275Y0070401D01*
X0021671Y0070401D01*
X0022491Y0071221D01*
X0022491Y0077105D01*
X0021671Y0077926D01*
X0022491Y0076552D02*
X0027300Y0076552D01*
X0027300Y0074954D02*
X0022491Y0074954D01*
X0022491Y0073355D02*
X0027300Y0073355D01*
X0027300Y0071757D02*
X0022491Y0071757D01*
X0027300Y0070158D02*
X0008600Y0070158D01*
X0008600Y0068560D02*
X0027300Y0068560D01*
X0027300Y0066961D02*
X0008600Y0066961D01*
X0008600Y0065363D02*
X0027300Y0065363D01*
X0027300Y0063764D02*
X0008600Y0063764D01*
X0008600Y0062166D02*
X0027300Y0062166D01*
X0027300Y0060567D02*
X0008600Y0060567D01*
X0008600Y0058969D02*
X0027300Y0058969D01*
X0027300Y0057370D02*
X0008600Y0057370D01*
X0008600Y0055772D02*
X0027630Y0055772D01*
X0029229Y0054173D02*
X0008600Y0054173D01*
X0008600Y0052575D02*
X0030827Y0052575D01*
X0032438Y0055772D02*
X0042628Y0055772D01*
X0042628Y0057370D02*
X0030840Y0057370D01*
X0030700Y0058969D02*
X0043192Y0058969D01*
X0045048Y0060567D02*
X0030700Y0060567D01*
X0030700Y0062166D02*
X0045300Y0062166D01*
X0045300Y0063764D02*
X0030700Y0063764D01*
X0030700Y0065363D02*
X0045953Y0065363D01*
X0047551Y0066961D02*
X0030700Y0066961D01*
X0030700Y0068560D02*
X0049150Y0068560D01*
X0027300Y0078151D02*
X0008600Y0078151D01*
X0008600Y0076552D02*
X0009455Y0076552D01*
X0009455Y0074954D02*
X0008600Y0074954D01*
X0008600Y0073355D02*
X0009455Y0073355D01*
X0009455Y0071757D02*
X0008600Y0071757D01*
X0097773Y0076552D02*
X0097857Y0076552D01*
X0101003Y0076552D02*
X0101003Y0076552D01*
X0101003Y0075631D02*
X0101003Y0079006D01*
X0101003Y0079006D01*
X0101003Y0079006D01*
X0101003Y0075631D01*
X0101003Y0078151D02*
X0101003Y0078151D01*
M02*
