G75*
%MOIN*%
%OFA0B0*%
%FSLAX25Y25*%
%IPPOS*%
%LPD*%
%AMOC8*
5,1,8,0,0,1.08239X$1,22.5*
%
%ADD10C,0.00400*%
%ADD11C,0.00300*%
%ADD12C,0.00000*%
%ADD13C,0.00500*%
%ADD14R,0.01012X0.00046*%
%ADD15R,0.01840X0.00046*%
%ADD16R,0.02438X0.00046*%
%ADD17R,0.02852X0.00046*%
%ADD18R,0.03266X0.00046*%
%ADD19R,0.03634X0.00046*%
%ADD20R,0.03910X0.00046*%
%ADD21R,0.04232X0.00046*%
%ADD22R,0.04462X0.00046*%
%ADD23R,0.04738X0.00046*%
%ADD24R,0.04968X0.00046*%
%ADD25R,0.05198X0.00046*%
%ADD26R,0.05428X0.00046*%
%ADD27R,0.05612X0.00046*%
%ADD28R,0.05750X0.00046*%
%ADD29R,0.05980X0.00046*%
%ADD30R,0.06164X0.00046*%
%ADD31R,0.06394X0.00046*%
%ADD32R,0.06532X0.00046*%
%ADD33R,0.06716X0.00046*%
%ADD34R,0.06854X0.00046*%
%ADD35R,0.07038X0.00046*%
%ADD36R,0.07176X0.00046*%
%ADD37R,0.07360X0.00046*%
%ADD38R,0.07498X0.00046*%
%ADD39R,0.07636X0.00046*%
%ADD40R,0.07774X0.00046*%
%ADD41R,0.07958X0.00046*%
%ADD42R,0.08096X0.00046*%
%ADD43R,0.08234X0.00046*%
%ADD44R,0.08326X0.00046*%
%ADD45R,0.08464X0.00046*%
%ADD46R,0.08602X0.00046*%
%ADD47R,0.04048X0.00046*%
%ADD48R,0.03496X0.00046*%
%ADD49R,0.03772X0.00046*%
%ADD50R,0.03174X0.00046*%
%ADD51R,0.03588X0.00046*%
%ADD52R,0.03036X0.00046*%
%ADD53R,0.03542X0.00046*%
%ADD54R,0.03404X0.00046*%
%ADD55R,0.02760X0.00046*%
%ADD56R,0.03312X0.00046*%
%ADD57R,0.02668X0.00046*%
%ADD58R,0.03220X0.00046*%
%ADD59R,0.02576X0.00046*%
%ADD60R,0.03220X0.00046*%
%ADD61R,0.02484X0.00046*%
%ADD62R,0.03128X0.00046*%
%ADD63R,0.02346X0.00046*%
%ADD64R,0.02300X0.00046*%
%ADD65R,0.02254X0.00046*%
%ADD66R,0.02990X0.00046*%
%ADD67R,0.02162X0.00046*%
%ADD68R,0.02944X0.00046*%
%ADD69R,0.02116X0.00046*%
%ADD70R,0.02070X0.00046*%
%ADD71R,0.02024X0.00046*%
%ADD72R,0.02898X0.00046*%
%ADD73R,0.01978X0.00046*%
%ADD74R,0.01932X0.00046*%
%ADD75R,0.02898X0.00046*%
%ADD76R,0.01886X0.00046*%
%ADD77R,0.01840X0.00046*%
%ADD78R,0.01794X0.00046*%
%ADD79R,0.01748X0.00046*%
%ADD80R,0.01702X0.00046*%
%ADD81R,0.01656X0.00046*%
%ADD82R,0.01564X0.00046*%
%ADD83R,0.01610X0.00046*%
%ADD84R,0.02990X0.00046*%
%ADD85R,0.00506X0.00046*%
%ADD86R,0.01288X0.00046*%
%ADD87R,0.01518X0.00046*%
%ADD88R,0.01564X0.00046*%
%ADD89R,0.01334X0.00046*%
%ADD90R,0.01380X0.00046*%
%ADD91R,0.03082X0.00046*%
%ADD92R,0.01426X0.00046*%
%ADD93R,0.03818X0.00046*%
%ADD94R,0.04002X0.00046*%
%ADD95R,0.01472X0.00046*%
%ADD96R,0.04278X0.00046*%
%ADD97R,0.04462X0.00046*%
%ADD98R,0.04600X0.00046*%
%ADD99R,0.04784X0.00046*%
%ADD100R,0.01426X0.00046*%
%ADD101R,0.06440X0.00046*%
%ADD102R,0.06486X0.00046*%
%ADD103R,0.06578X0.00046*%
%ADD104R,0.02208X0.00046*%
%ADD105R,0.02714X0.00046*%
%ADD106R,0.03358X0.00046*%
%ADD107R,0.02070X0.00046*%
%ADD108R,0.03404X0.00046*%
%ADD109R,0.03450X0.00046*%
%ADD110R,0.01978X0.00046*%
%ADD111R,0.03634X0.00046*%
%ADD112R,0.03680X0.00046*%
%ADD113R,0.03726X0.00046*%
%ADD114R,0.03864X0.00046*%
%ADD115R,0.03956X0.00046*%
%ADD116R,0.04094X0.00046*%
%ADD117R,0.04140X0.00046*%
%ADD118R,0.04140X0.00046*%
%ADD119R,0.04186X0.00046*%
%ADD120R,0.01748X0.00046*%
%ADD121R,0.04324X0.00046*%
%ADD122R,0.04370X0.00046*%
%ADD123R,0.04416X0.00046*%
%ADD124R,0.04508X0.00046*%
%ADD125R,0.01656X0.00046*%
%ADD126R,0.04554X0.00046*%
%ADD127R,0.04646X0.00046*%
%ADD128R,0.04692X0.00046*%
%ADD129R,0.04784X0.00046*%
%ADD130R,0.04830X0.00046*%
%ADD131R,0.04876X0.00046*%
%ADD132R,0.04922X0.00046*%
%ADD133R,0.05014X0.00046*%
%ADD134R,0.05060X0.00046*%
%ADD135R,0.05106X0.00046*%
%ADD136R,0.05152X0.00046*%
%ADD137R,0.05244X0.00046*%
%ADD138R,0.05290X0.00046*%
%ADD139R,0.05382X0.00046*%
%ADD140R,0.02162X0.00046*%
%ADD141R,0.05474X0.00046*%
%ADD142R,0.05520X0.00046*%
%ADD143R,0.05566X0.00046*%
%ADD144R,0.05612X0.00046*%
%ADD145R,0.02392X0.00046*%
%ADD146R,0.05658X0.00046*%
%ADD147R,0.05704X0.00046*%
%ADD148R,0.02484X0.00046*%
%ADD149R,0.02530X0.00046*%
%ADD150R,0.05796X0.00046*%
%ADD151R,0.01242X0.00046*%
%ADD152R,0.01150X0.00046*%
%ADD153R,0.01104X0.00046*%
%ADD154R,0.02806X0.00046*%
%ADD155R,0.01058X0.00046*%
%ADD156R,0.01012X0.00046*%
%ADD157R,0.00966X0.00046*%
%ADD158R,0.02622X0.00046*%
%ADD159R,0.02576X0.00046*%
%ADD160R,0.02392X0.00046*%
%ADD161R,0.01334X0.00046*%
%ADD162R,0.00874X0.00046*%
%ADD163R,0.03726X0.00046*%
%ADD164R,0.00552X0.00046*%
%ADD165R,0.01196X0.00046*%
%ADD166R,0.01242X0.00046*%
%ADD167R,0.05336X0.00046*%
%ADD168R,0.02668X0.00046*%
%ADD169R,0.04876X0.00046*%
%ADD170R,0.05290X0.00046*%
%ADD171R,0.05520X0.00046*%
%ADD172R,0.05704X0.00046*%
%ADD173R,0.05888X0.00046*%
%ADD174R,0.05934X0.00046*%
%ADD175R,0.02806X0.00046*%
%ADD176R,0.06026X0.00046*%
%ADD177R,0.06164X0.00046*%
%ADD178R,0.06256X0.00046*%
%ADD179R,0.06348X0.00046*%
%ADD180R,0.03128X0.00046*%
%ADD181R,0.03956X0.00046*%
%ADD182R,0.10258X0.00046*%
%ADD183R,0.10304X0.00046*%
%ADD184R,0.10350X0.00046*%
%ADD185R,0.10396X0.00046*%
%ADD186R,0.10442X0.00046*%
%ADD187R,0.10488X0.00046*%
%ADD188R,0.10534X0.00046*%
%ADD189R,0.10580X0.00046*%
%ADD190R,0.07406X0.00046*%
%ADD191R,0.00736X0.00046*%
%ADD192R,0.03312X0.00046*%
%ADD193R,0.00920X0.00046*%
%ADD194R,0.00828X0.00046*%
%ADD195R,0.00690X0.00046*%
%ADD196R,0.00230X0.00046*%
%ADD197R,0.00782X0.00046*%
%ADD198R,0.00644X0.00046*%
%ADD199R,0.00276X0.00046*%
%ADD200R,0.00414X0.00046*%
%ADD201C,0.00800*%
%ADD202C,0.00100*%
%ADD203C,0.00600*%
%ADD204R,0.00650X0.00050*%
%ADD205R,0.00950X0.00050*%
%ADD206R,0.00800X0.00050*%
%ADD207R,0.00550X0.00050*%
%ADD208R,0.00600X0.00050*%
%ADD209R,0.01750X0.00050*%
%ADD210R,0.01000X0.00050*%
%ADD211R,0.01200X0.00050*%
%ADD212R,0.01800X0.00050*%
%ADD213R,0.01350X0.00050*%
%ADD214R,0.01900X0.00050*%
%ADD215R,0.00700X0.00050*%
%ADD216R,0.01850X0.00050*%
%ADD217R,0.01500X0.00050*%
%ADD218R,0.01950X0.00050*%
%ADD219R,0.01650X0.00050*%
%ADD220R,0.00750X0.00050*%
%ADD221R,0.02000X0.00050*%
%ADD222R,0.02050X0.00050*%
%ADD223R,0.00850X0.00050*%
%ADD224R,0.02100X0.00050*%
%ADD225R,0.00900X0.00050*%
%ADD226R,0.00450X0.00050*%
%ADD227R,0.00300X0.00050*%
%ADD228R,0.00200X0.00050*%
%ADD229R,0.01050X0.00050*%
%ADD230R,0.00100X0.00050*%
%ADD231R,0.01100X0.00050*%
%ADD232R,0.01150X0.00050*%
%ADD233R,0.02200X0.00050*%
%ADD234R,0.01250X0.00050*%
%ADD235R,0.00150X0.00050*%
%ADD236R,0.00250X0.00050*%
%ADD237R,0.00500X0.00050*%
%ADD238R,0.01550X0.00050*%
%ADD239R,0.01600X0.00050*%
%ADD240R,0.01700X0.00050*%
%ADD241R,0.01400X0.00050*%
%ADD242R,0.01300X0.00050*%
%ADD243R,0.00400X0.00050*%
%ADD244R,0.01450X0.00050*%
%ADD245R,0.02150X0.00050*%
%ADD246R,0.00350X0.00050*%
%ADD247R,0.00050X0.00050*%
%ADD248R,0.02250X0.00050*%
%ADD249R,0.02400X0.00050*%
%ADD250R,0.02500X0.00050*%
%ADD251R,0.02650X0.00050*%
%ADD252R,0.02750X0.00050*%
%ADD253R,0.02900X0.00050*%
%ADD254R,0.03000X0.00050*%
%ADD255R,0.03150X0.00050*%
%ADD256R,0.03250X0.00050*%
%ADD257R,0.04600X0.00050*%
%ADD258R,0.04650X0.00050*%
%ADD259R,0.04750X0.00050*%
%ADD260R,0.04800X0.00050*%
%ADD261R,0.04900X0.00050*%
%ADD262R,0.04950X0.00050*%
%ADD263R,0.05000X0.00050*%
%ADD264R,0.05100X0.00050*%
%ADD265R,0.05150X0.00050*%
%ADD266R,0.05200X0.00050*%
%ADD267R,0.05250X0.00050*%
%ADD268R,0.05050X0.00050*%
%ADD269R,0.04850X0.00050*%
%ADD270R,0.05300X0.00050*%
%ADD271R,0.05350X0.00050*%
%ADD272R,0.05450X0.00050*%
%ADD273R,0.05500X0.00050*%
%ADD274R,0.05550X0.00050*%
%ADD275R,0.05650X0.00050*%
%ADD276R,0.05600X0.00050*%
%ADD277R,0.05400X0.00050*%
%ADD278R,0.05700X0.00050*%
%ADD279R,0.05900X0.00050*%
%ADD280R,0.06150X0.00050*%
%ADD281R,0.06350X0.00050*%
%ADD282R,0.06550X0.00050*%
%ADD283R,0.06850X0.00050*%
%ADD284R,0.07050X0.00050*%
%ADD285R,0.07100X0.00050*%
%ADD286R,0.07000X0.00050*%
%ADD287R,0.06950X0.00050*%
%ADD288R,0.06900X0.00050*%
%ADD289R,0.06800X0.00050*%
%ADD290R,0.06600X0.00050*%
%ADD291R,0.05750X0.00050*%
%ADD292R,0.06050X0.00050*%
%ADD293R,0.13050X0.00050*%
%ADD294R,0.12950X0.00050*%
%ADD295R,0.12850X0.00050*%
%ADD296R,0.12750X0.00050*%
%ADD297R,0.12650X0.00050*%
%ADD298R,0.12550X0.00050*%
%ADD299R,0.12450X0.00050*%
%ADD300R,0.12350X0.00050*%
%ADD301R,0.12250X0.00050*%
%ADD302R,0.12150X0.00050*%
%ADD303R,0.13150X0.00050*%
%ADD304R,0.13250X0.00050*%
%ADD305R,0.13350X0.00050*%
%ADD306R,0.13450X0.00050*%
%ADD307R,0.13550X0.00050*%
%ADD308R,0.13650X0.00050*%
%ADD309R,0.13750X0.00050*%
%ADD310R,0.13850X0.00050*%
%ADD311R,0.13950X0.00050*%
%ADD312R,0.14050X0.00050*%
%ADD313R,0.14150X0.00050*%
%ADD314R,0.14250X0.00050*%
%ADD315R,0.14350X0.00050*%
%ADD316R,0.14450X0.00050*%
%ADD317R,0.14550X0.00050*%
%ADD318R,0.14650X0.00050*%
%ADD319R,0.14750X0.00050*%
%ADD320R,0.14850X0.00050*%
%ADD321R,0.14950X0.00050*%
%ADD322R,0.03450X0.00050*%
%ADD323R,0.06750X0.00050*%
%ADD324R,0.03300X0.00050*%
%ADD325R,0.06450X0.00050*%
%ADD326R,0.03200X0.00050*%
%ADD327R,0.06250X0.00050*%
%ADD328R,0.03050X0.00050*%
%ADD329R,0.05950X0.00050*%
%ADD330R,0.02950X0.00050*%
%ADD331R,0.02850X0.00050*%
%ADD332R,0.02800X0.00050*%
%ADD333R,0.02700X0.00050*%
%ADD334R,0.02600X0.00050*%
%ADD335R,0.02450X0.00050*%
%ADD336R,0.02350X0.00050*%
%ADD337R,0.04550X0.00050*%
%ADD338R,0.04250X0.00050*%
%ADD339R,0.04050X0.00050*%
%ADD340R,0.03750X0.00050*%
%ADD341R,0.03650X0.00050*%
%ADD342R,0.03550X0.00050*%
%ADD343R,0.03350X0.00050*%
D10*
X0016996Y0051706D02*
X0021600Y0051706D01*
X0021600Y0054775D01*
X0021600Y0056310D02*
X0021600Y0059379D01*
X0021600Y0060914D02*
X0021600Y0063216D01*
X0020833Y0063983D01*
X0017763Y0063983D01*
X0016996Y0063216D01*
X0016996Y0060914D01*
X0021600Y0060914D01*
X0021600Y0056310D02*
X0016996Y0056310D01*
X0016996Y0059379D01*
X0019298Y0057844D02*
X0019298Y0056310D01*
X0017763Y0070122D02*
X0016996Y0070122D01*
X0017763Y0070122D02*
X0019298Y0071656D01*
X0021600Y0071656D01*
X0020833Y0074726D02*
X0019298Y0074726D01*
X0018531Y0075493D01*
X0018531Y0077027D01*
X0019298Y0077795D01*
X0020065Y0077795D01*
X0020065Y0074726D01*
X0020833Y0074726D02*
X0021600Y0075493D01*
X0021600Y0077027D01*
X0021600Y0079329D02*
X0021600Y0080864D01*
X0021600Y0080097D02*
X0016996Y0080097D01*
X0016996Y0079329D01*
X0016996Y0082399D02*
X0016996Y0083166D01*
X0021600Y0083166D01*
X0021600Y0082399D02*
X0021600Y0083933D01*
X0020833Y0085468D02*
X0021600Y0086235D01*
X0021600Y0087770D01*
X0020833Y0088537D01*
X0019298Y0088537D01*
X0018531Y0087770D01*
X0018531Y0086235D01*
X0019298Y0085468D01*
X0020833Y0085468D01*
X0020833Y0090072D02*
X0018531Y0090072D01*
X0018531Y0093141D02*
X0020833Y0093141D01*
X0021600Y0092374D01*
X0020833Y0091607D01*
X0021600Y0090839D01*
X0020833Y0090072D01*
X0017763Y0073191D02*
X0016996Y0073191D01*
X0017763Y0073191D02*
X0019298Y0071656D01*
D11*
X0023564Y0072530D02*
X0026033Y0072530D01*
X0026650Y0073148D01*
X0026033Y0074369D02*
X0025416Y0074986D01*
X0025416Y0076837D01*
X0024798Y0076837D02*
X0026650Y0076837D01*
X0026650Y0074986D01*
X0026033Y0074369D01*
X0024181Y0074986D02*
X0024181Y0076220D01*
X0024798Y0076837D01*
X0023564Y0078052D02*
X0022947Y0078669D01*
X0022947Y0079903D01*
X0023564Y0080521D01*
X0024181Y0080521D01*
X0026650Y0078052D01*
X0026650Y0080521D01*
X0024181Y0073148D02*
X0024181Y0071913D01*
X0024798Y0070699D02*
X0025416Y0070699D01*
X0025416Y0068230D01*
X0026033Y0068230D02*
X0024798Y0068230D01*
X0024181Y0068847D01*
X0024181Y0070082D01*
X0024798Y0070699D01*
X0026650Y0068847D02*
X0026033Y0068230D01*
X0026650Y0068847D02*
X0026650Y0070082D01*
X0026033Y0067016D02*
X0026650Y0066398D01*
X0026650Y0064547D01*
X0022947Y0064547D01*
X0022947Y0066398D01*
X0023564Y0067016D01*
X0024181Y0067016D01*
X0024798Y0066398D01*
X0024798Y0064547D01*
X0026033Y0063323D02*
X0026650Y0063323D01*
X0026650Y0062705D01*
X0026033Y0062705D01*
X0026033Y0063323D01*
X0024181Y0061491D02*
X0026650Y0060257D01*
X0024181Y0059022D01*
X0024798Y0057808D02*
X0025416Y0057808D01*
X0025416Y0055339D01*
X0026033Y0055339D02*
X0024798Y0055339D01*
X0024181Y0055956D01*
X0024181Y0057191D01*
X0024798Y0057808D01*
X0026650Y0055956D02*
X0026033Y0055339D01*
X0026650Y0055956D02*
X0026650Y0057191D01*
X0026650Y0054125D02*
X0025416Y0052890D01*
X0025416Y0053507D02*
X0025416Y0051656D01*
X0026650Y0051656D02*
X0022947Y0051656D01*
X0022947Y0053507D01*
X0023564Y0054125D01*
X0024798Y0054125D01*
X0025416Y0053507D01*
X0024798Y0066398D02*
X0025416Y0067016D01*
X0026033Y0067016D01*
X0045348Y0065518D02*
X0045831Y0066002D01*
X0047766Y0066002D01*
X0048250Y0065518D01*
X0048250Y0064551D01*
X0047766Y0064067D01*
X0045831Y0064067D01*
X0045348Y0064551D01*
X0045348Y0065518D01*
X0045348Y0063055D02*
X0048250Y0061120D01*
X0048250Y0060123D02*
X0048250Y0059156D01*
X0048250Y0059640D02*
X0045348Y0059640D01*
X0045348Y0060123D02*
X0045348Y0059156D01*
X0055348Y0059156D02*
X0057283Y0059156D01*
X0058250Y0060123D01*
X0057283Y0061091D01*
X0055348Y0061091D01*
X0055831Y0062102D02*
X0055348Y0062586D01*
X0055348Y0063554D01*
X0055831Y0064037D01*
X0055831Y0065049D02*
X0055348Y0065533D01*
X0055348Y0066500D01*
X0055831Y0066984D01*
X0055831Y0065049D02*
X0057766Y0065049D01*
X0058250Y0065533D01*
X0058250Y0066500D01*
X0057766Y0066984D01*
X0057766Y0064037D02*
X0058250Y0063554D01*
X0058250Y0062586D01*
X0057766Y0062102D01*
X0055831Y0062102D01*
X0065348Y0062102D02*
X0068250Y0064037D01*
X0065348Y0064037D01*
X0065348Y0065049D02*
X0065348Y0066500D01*
X0065831Y0066984D01*
X0067766Y0066984D01*
X0068250Y0066500D01*
X0068250Y0065049D01*
X0065348Y0065049D01*
X0065348Y0062102D02*
X0068250Y0062102D01*
X0067766Y0061091D02*
X0066799Y0061091D01*
X0066799Y0060123D01*
X0067766Y0059156D02*
X0065831Y0059156D01*
X0065348Y0059640D01*
X0065348Y0060607D01*
X0065831Y0061091D01*
X0067766Y0061091D02*
X0068250Y0060607D01*
X0068250Y0059640D01*
X0067766Y0059156D01*
X0053831Y0077656D02*
X0051897Y0077656D01*
X0052864Y0077656D02*
X0052864Y0080558D01*
X0051897Y0079591D01*
X0050885Y0080075D02*
X0050401Y0080558D01*
X0048950Y0080558D01*
X0048950Y0077656D01*
X0048950Y0078623D02*
X0050401Y0078623D01*
X0050885Y0079107D01*
X0050885Y0080075D01*
X0049917Y0078623D02*
X0050885Y0077656D01*
D12*
X0016800Y0024006D02*
X0096800Y0024006D01*
X0097042Y0024009D01*
X0097283Y0024018D01*
X0097524Y0024032D01*
X0097765Y0024053D01*
X0098005Y0024079D01*
X0098245Y0024111D01*
X0098484Y0024149D01*
X0098721Y0024192D01*
X0098958Y0024242D01*
X0099193Y0024297D01*
X0099427Y0024357D01*
X0099659Y0024424D01*
X0099890Y0024495D01*
X0100119Y0024573D01*
X0100346Y0024656D01*
X0100571Y0024744D01*
X0100794Y0024838D01*
X0101014Y0024937D01*
X0101232Y0025042D01*
X0101447Y0025151D01*
X0101660Y0025266D01*
X0101870Y0025386D01*
X0102076Y0025511D01*
X0102280Y0025641D01*
X0102481Y0025776D01*
X0102678Y0025916D01*
X0102872Y0026060D01*
X0103062Y0026209D01*
X0103248Y0026363D01*
X0103431Y0026521D01*
X0103610Y0026683D01*
X0103785Y0026850D01*
X0103956Y0027021D01*
X0104123Y0027196D01*
X0104285Y0027375D01*
X0104443Y0027558D01*
X0104597Y0027744D01*
X0104746Y0027934D01*
X0104890Y0028128D01*
X0105030Y0028325D01*
X0105165Y0028526D01*
X0105295Y0028730D01*
X0105420Y0028936D01*
X0105540Y0029146D01*
X0105655Y0029359D01*
X0105764Y0029574D01*
X0105869Y0029792D01*
X0105968Y0030012D01*
X0106062Y0030235D01*
X0106150Y0030460D01*
X0106233Y0030687D01*
X0106311Y0030916D01*
X0106382Y0031147D01*
X0106449Y0031379D01*
X0106509Y0031613D01*
X0106564Y0031848D01*
X0106614Y0032085D01*
X0106657Y0032322D01*
X0106695Y0032561D01*
X0106727Y0032801D01*
X0106753Y0033041D01*
X0106774Y0033282D01*
X0106788Y0033523D01*
X0106797Y0033764D01*
X0106800Y0034006D01*
X0106800Y0104006D01*
X0106785Y0105224D01*
X0106741Y0106440D01*
X0106667Y0107656D01*
X0106563Y0108869D01*
X0106430Y0110079D01*
X0106267Y0111286D01*
X0106075Y0112488D01*
X0105854Y0113686D01*
X0105604Y0114878D01*
X0105325Y0116063D01*
X0105017Y0117241D01*
X0104680Y0118411D01*
X0104315Y0119573D01*
X0103922Y0120725D01*
X0103501Y0121868D01*
X0103052Y0122999D01*
X0102576Y0124120D01*
X0102072Y0125229D01*
X0101542Y0126325D01*
X0100985Y0127408D01*
X0100402Y0128477D01*
X0099794Y0129531D01*
X0099159Y0130571D01*
X0098500Y0131594D01*
X0097816Y0132602D01*
X0097107Y0133592D01*
X0096375Y0134565D01*
X0095619Y0135519D01*
X0094840Y0136455D01*
X0094039Y0137372D01*
X0093215Y0138269D01*
X0092370Y0139145D01*
X0091504Y0140001D01*
X0090617Y0140836D01*
X0089710Y0141648D01*
X0088784Y0142438D01*
X0087838Y0143206D01*
X0086875Y0143950D01*
X0085893Y0144670D01*
X0084894Y0145367D01*
X0083879Y0146039D01*
X0082847Y0146686D01*
X0081800Y0147307D01*
X0080738Y0147903D01*
X0079662Y0148473D01*
X0078573Y0149017D01*
X0077470Y0149533D01*
X0076355Y0150023D01*
X0075229Y0150486D01*
X0074092Y0150921D01*
X0072944Y0151328D01*
X0071787Y0151707D01*
X0070621Y0152058D01*
X0069447Y0152380D01*
X0068265Y0152674D01*
X0067076Y0152939D01*
X0065882Y0153174D01*
X0064682Y0153381D01*
X0063477Y0153558D01*
X0062269Y0153706D01*
X0061057Y0153824D01*
X0059842Y0153913D01*
X0058626Y0153973D01*
X0057409Y0154002D01*
X0056191Y0154002D01*
X0054974Y0153973D01*
X0053758Y0153913D01*
X0052543Y0153824D01*
X0051331Y0153706D01*
X0050123Y0153558D01*
X0048918Y0153381D01*
X0047718Y0153174D01*
X0046524Y0152939D01*
X0045335Y0152674D01*
X0044153Y0152380D01*
X0042979Y0152058D01*
X0041813Y0151707D01*
X0040656Y0151328D01*
X0039508Y0150921D01*
X0038371Y0150486D01*
X0037245Y0150023D01*
X0036130Y0149533D01*
X0035027Y0149017D01*
X0033938Y0148473D01*
X0032862Y0147903D01*
X0031800Y0147307D01*
X0030753Y0146686D01*
X0029721Y0146039D01*
X0028706Y0145367D01*
X0027707Y0144670D01*
X0026725Y0143950D01*
X0025762Y0143206D01*
X0024816Y0142438D01*
X0023890Y0141648D01*
X0022983Y0140836D01*
X0022096Y0140001D01*
X0021230Y0139145D01*
X0020385Y0138269D01*
X0019561Y0137372D01*
X0018760Y0136455D01*
X0017981Y0135519D01*
X0017225Y0134565D01*
X0016493Y0133592D01*
X0015784Y0132602D01*
X0015100Y0131594D01*
X0014441Y0130571D01*
X0013806Y0129531D01*
X0013198Y0128477D01*
X0012615Y0127408D01*
X0012058Y0126325D01*
X0011528Y0125229D01*
X0011024Y0124120D01*
X0010548Y0122999D01*
X0010099Y0121868D01*
X0009678Y0120725D01*
X0009285Y0119573D01*
X0008920Y0118411D01*
X0008583Y0117241D01*
X0008275Y0116063D01*
X0007996Y0114878D01*
X0007746Y0113686D01*
X0007525Y0112488D01*
X0007333Y0111286D01*
X0007170Y0110079D01*
X0007037Y0108869D01*
X0006933Y0107656D01*
X0006859Y0106440D01*
X0006815Y0105224D01*
X0006800Y0104006D01*
X0006800Y0034006D01*
X0006803Y0033764D01*
X0006812Y0033523D01*
X0006826Y0033282D01*
X0006847Y0033041D01*
X0006873Y0032801D01*
X0006905Y0032561D01*
X0006943Y0032322D01*
X0006986Y0032085D01*
X0007036Y0031848D01*
X0007091Y0031613D01*
X0007151Y0031379D01*
X0007218Y0031147D01*
X0007289Y0030916D01*
X0007367Y0030687D01*
X0007450Y0030460D01*
X0007538Y0030235D01*
X0007632Y0030012D01*
X0007731Y0029792D01*
X0007836Y0029574D01*
X0007945Y0029359D01*
X0008060Y0029146D01*
X0008180Y0028936D01*
X0008305Y0028730D01*
X0008435Y0028526D01*
X0008570Y0028325D01*
X0008710Y0028128D01*
X0008854Y0027934D01*
X0009003Y0027744D01*
X0009157Y0027558D01*
X0009315Y0027375D01*
X0009477Y0027196D01*
X0009644Y0027021D01*
X0009815Y0026850D01*
X0009990Y0026683D01*
X0010169Y0026521D01*
X0010352Y0026363D01*
X0010538Y0026209D01*
X0010728Y0026060D01*
X0010922Y0025916D01*
X0011119Y0025776D01*
X0011320Y0025641D01*
X0011524Y0025511D01*
X0011730Y0025386D01*
X0011940Y0025266D01*
X0012153Y0025151D01*
X0012368Y0025042D01*
X0012586Y0024937D01*
X0012806Y0024838D01*
X0013029Y0024744D01*
X0013254Y0024656D01*
X0013481Y0024573D01*
X0013710Y0024495D01*
X0013941Y0024424D01*
X0014173Y0024357D01*
X0014407Y0024297D01*
X0014642Y0024242D01*
X0014879Y0024192D01*
X0015116Y0024149D01*
X0015355Y0024111D01*
X0015595Y0024079D01*
X0015835Y0024053D01*
X0016076Y0024032D01*
X0016317Y0024018D01*
X0016558Y0024009D01*
X0016800Y0024006D01*
D13*
X0036800Y0024006D02*
X0036800Y0054006D01*
X0041800Y0054006D01*
X0071800Y0054006D02*
X0076800Y0054006D01*
X0076800Y0024006D01*
X0063906Y0144256D02*
X0062405Y0144256D01*
X0061654Y0145007D01*
X0061654Y0146508D01*
X0062405Y0147258D01*
X0063906Y0147258D01*
X0064656Y0146508D01*
X0064656Y0145007D01*
X0063906Y0144256D01*
X0060053Y0145007D02*
X0059302Y0144256D01*
X0057050Y0144256D01*
X0057050Y0148760D01*
X0059302Y0148760D01*
X0060053Y0148009D01*
X0060053Y0147258D01*
X0059302Y0146508D01*
X0057050Y0146508D01*
X0055449Y0146508D02*
X0055449Y0144256D01*
X0053197Y0144256D01*
X0052446Y0145007D01*
X0053197Y0145757D01*
X0055449Y0145757D01*
X0055449Y0146508D02*
X0054698Y0147258D01*
X0053197Y0147258D01*
X0050845Y0148760D02*
X0047842Y0148760D01*
X0047842Y0144256D01*
X0047842Y0146508D02*
X0049343Y0146508D01*
X0059302Y0146508D02*
X0060053Y0145757D01*
X0060053Y0145007D01*
D14*
X0057679Y0121506D03*
D15*
X0057679Y0121552D03*
X0060209Y0126014D03*
X0061635Y0124082D03*
X0063521Y0127762D03*
X0063521Y0127808D03*
X0059703Y0130476D03*
X0054965Y0130016D03*
X0054919Y0129970D03*
X0054827Y0129832D03*
X0054781Y0129786D03*
X0054735Y0129694D03*
X0053079Y0131442D03*
X0054735Y0126060D03*
X0054781Y0126014D03*
X0048065Y0130246D03*
X0057679Y0140320D03*
X0062049Y0139722D03*
D16*
X0061934Y0138940D03*
X0061934Y0138894D03*
X0057656Y0139584D03*
X0057656Y0139630D03*
X0052596Y0137422D03*
X0052596Y0137376D03*
X0052596Y0137330D03*
X0053378Y0131902D03*
X0056046Y0130706D03*
X0059910Y0125600D03*
X0060784Y0123392D03*
X0057656Y0121598D03*
X0055632Y0125416D03*
X0048134Y0129924D03*
X0063682Y0128958D03*
X0063682Y0128912D03*
D17*
X0063705Y0129556D03*
X0060945Y0132362D03*
X0061773Y0137790D03*
X0061773Y0137836D03*
X0061773Y0137882D03*
X0061773Y0137928D03*
X0065407Y0134432D03*
X0065407Y0134386D03*
X0057587Y0138710D03*
X0057587Y0138756D03*
X0057587Y0138802D03*
X0057587Y0138848D03*
X0052941Y0135444D03*
X0052941Y0135398D03*
X0052987Y0135260D03*
X0052987Y0135214D03*
X0052987Y0135168D03*
X0053033Y0135076D03*
X0053033Y0135030D03*
X0053079Y0134846D03*
X0053539Y0132132D03*
X0055931Y0125370D03*
X0057679Y0121644D03*
X0060347Y0123162D03*
X0052711Y0124174D03*
D18*
X0051446Y0125416D03*
X0051400Y0125462D03*
X0053746Y0132316D03*
X0057426Y0137192D03*
X0057426Y0137238D03*
X0057426Y0137284D03*
X0057426Y0137330D03*
X0057426Y0137376D03*
X0063682Y0130062D03*
X0064878Y0133098D03*
X0064878Y0133144D03*
X0064924Y0133190D03*
X0057196Y0124864D03*
X0057656Y0121690D03*
D19*
X0057656Y0121736D03*
X0059312Y0125370D03*
X0048594Y0129234D03*
D20*
X0054022Y0132546D03*
X0057196Y0134248D03*
X0057196Y0134294D03*
X0057196Y0134340D03*
X0057196Y0134386D03*
X0057656Y0121782D03*
D21*
X0057633Y0121828D03*
X0050411Y0126796D03*
X0057679Y0131074D03*
X0063567Y0130936D03*
D22*
X0063498Y0131120D03*
X0057610Y0121874D03*
D23*
X0057610Y0121920D03*
X0050066Y0127394D03*
X0063452Y0131304D03*
D24*
X0063383Y0131488D03*
X0057587Y0121966D03*
X0049905Y0127762D03*
D25*
X0049790Y0128084D03*
X0049790Y0128130D03*
X0057610Y0122012D03*
X0063314Y0131626D03*
D26*
X0057633Y0130752D03*
X0057587Y0122058D03*
X0049721Y0128406D03*
X0049721Y0128452D03*
X0049721Y0128498D03*
D27*
X0057587Y0122104D03*
D28*
X0057564Y0122150D03*
X0049652Y0129096D03*
X0063176Y0131948D03*
D29*
X0057541Y0122196D03*
D30*
X0057541Y0122242D03*
D31*
X0057518Y0122288D03*
D32*
X0057495Y0122334D03*
D33*
X0057495Y0122380D03*
D34*
X0057472Y0122426D03*
D35*
X0057472Y0122472D03*
D36*
X0057449Y0122518D03*
D37*
X0057449Y0122564D03*
X0058783Y0133604D03*
X0058783Y0133650D03*
X0058829Y0133788D03*
D38*
X0057426Y0122610D03*
D39*
X0057403Y0122656D03*
D40*
X0057380Y0122702D03*
D41*
X0057380Y0122748D03*
D42*
X0057357Y0122794D03*
D43*
X0057334Y0122840D03*
D44*
X0057334Y0122886D03*
D45*
X0057311Y0122932D03*
D46*
X0057288Y0122978D03*
D47*
X0054919Y0123024D03*
X0050549Y0126566D03*
X0057219Y0133972D03*
X0063567Y0130798D03*
D48*
X0063659Y0130292D03*
X0064533Y0132546D03*
X0064579Y0132592D03*
X0060577Y0132592D03*
X0057311Y0135950D03*
X0057311Y0135996D03*
X0057311Y0136042D03*
X0057311Y0136088D03*
X0057311Y0136134D03*
X0057311Y0136180D03*
X0051055Y0125876D03*
X0051101Y0125830D03*
X0048525Y0129280D03*
X0059887Y0123024D03*
D49*
X0059243Y0128314D03*
X0057219Y0134662D03*
X0057219Y0134708D03*
X0057219Y0134754D03*
X0057219Y0134800D03*
X0057219Y0134846D03*
X0050779Y0126244D03*
X0050825Y0126198D03*
X0054735Y0123070D03*
D50*
X0051676Y0125140D03*
X0051630Y0125186D03*
X0051584Y0125232D03*
X0048364Y0129464D03*
X0053470Y0133604D03*
X0057472Y0137652D03*
X0057472Y0137698D03*
X0057472Y0137744D03*
X0057472Y0137790D03*
X0057472Y0137836D03*
X0061106Y0134478D03*
X0061060Y0134294D03*
X0061014Y0134156D03*
X0061014Y0134110D03*
X0060968Y0134018D03*
X0060968Y0133972D03*
X0060922Y0133834D03*
X0060738Y0132500D03*
X0065016Y0133420D03*
X0065062Y0133512D03*
X0060094Y0123070D03*
D51*
X0054551Y0123116D03*
X0053907Y0132454D03*
X0057265Y0135444D03*
X0057265Y0135490D03*
X0057265Y0135536D03*
X0057265Y0135582D03*
X0057265Y0135628D03*
X0064441Y0132408D03*
X0063659Y0130384D03*
D52*
X0063705Y0129786D03*
X0065223Y0133926D03*
X0065269Y0134018D03*
X0061543Y0136456D03*
X0061543Y0136502D03*
X0061543Y0136548D03*
X0061589Y0136686D03*
X0061589Y0136732D03*
X0061589Y0136778D03*
X0061589Y0136824D03*
X0061635Y0136916D03*
X0061635Y0136962D03*
X0061635Y0137008D03*
X0061635Y0137054D03*
X0057541Y0138250D03*
X0057541Y0138296D03*
X0057541Y0138342D03*
X0057541Y0138388D03*
X0053309Y0134064D03*
X0053309Y0134018D03*
X0053355Y0133972D03*
X0053355Y0133926D03*
X0053631Y0132224D03*
X0048295Y0129556D03*
X0051929Y0124864D03*
X0053631Y0123530D03*
X0053723Y0123484D03*
X0060209Y0123116D03*
D53*
X0057196Y0124910D03*
X0054436Y0123162D03*
X0051032Y0125922D03*
X0057288Y0135674D03*
X0057288Y0135720D03*
X0057288Y0135766D03*
X0057288Y0135812D03*
X0057288Y0135858D03*
X0057288Y0135904D03*
X0064464Y0132454D03*
X0064510Y0132500D03*
X0063682Y0130338D03*
D54*
X0064671Y0132730D03*
X0054321Y0123208D03*
X0051285Y0125600D03*
X0051239Y0125646D03*
X0048479Y0129326D03*
D55*
X0048203Y0129740D03*
X0052849Y0135812D03*
X0052849Y0135858D03*
X0052849Y0135904D03*
X0052849Y0135950D03*
X0052803Y0135996D03*
X0052803Y0136042D03*
X0052803Y0136088D03*
X0052803Y0136134D03*
X0057633Y0139032D03*
X0061819Y0138204D03*
X0061819Y0138158D03*
X0061819Y0138112D03*
X0065453Y0134570D03*
X0063705Y0129418D03*
X0060439Y0123208D03*
D56*
X0063705Y0130108D03*
X0064763Y0132914D03*
X0064809Y0132960D03*
X0064809Y0133006D03*
X0064855Y0133052D03*
X0060669Y0132546D03*
X0054183Y0123254D03*
X0051377Y0125508D03*
X0048433Y0129372D03*
D57*
X0048203Y0129786D03*
X0052757Y0136364D03*
X0052757Y0136410D03*
X0052757Y0136456D03*
X0052711Y0136548D03*
X0052711Y0136594D03*
X0052711Y0136640D03*
X0057633Y0139170D03*
X0057633Y0139216D03*
X0057633Y0139262D03*
X0061865Y0138480D03*
X0061865Y0138434D03*
X0061865Y0138388D03*
X0065499Y0134708D03*
X0063705Y0129326D03*
X0063705Y0129280D03*
X0063705Y0129234D03*
X0060531Y0123254D03*
D58*
X0063705Y0129970D03*
X0063705Y0130016D03*
X0060945Y0133880D03*
X0060945Y0133926D03*
X0054091Y0123300D03*
X0051469Y0125370D03*
X0048387Y0129418D03*
D59*
X0053447Y0131994D03*
X0052665Y0136824D03*
X0052665Y0136870D03*
X0052665Y0136916D03*
X0052665Y0136962D03*
X0057633Y0139354D03*
X0063705Y0129188D03*
X0063705Y0129142D03*
X0065545Y0134846D03*
X0059841Y0125554D03*
X0060623Y0123300D03*
X0057219Y0124772D03*
D60*
X0053999Y0123346D03*
X0051561Y0125278D03*
X0051515Y0125324D03*
X0057449Y0137422D03*
X0057449Y0137468D03*
X0057449Y0137514D03*
X0057449Y0137560D03*
X0057449Y0137606D03*
X0065039Y0133466D03*
X0064993Y0133374D03*
X0064993Y0133328D03*
X0064947Y0133282D03*
X0064947Y0133236D03*
D61*
X0060715Y0123346D03*
X0057679Y0139538D03*
D62*
X0057495Y0138020D03*
X0057495Y0137974D03*
X0057495Y0137928D03*
X0057495Y0137882D03*
X0061313Y0135398D03*
X0061313Y0135352D03*
X0061267Y0135168D03*
X0061267Y0135122D03*
X0061221Y0134984D03*
X0061221Y0134938D03*
X0061221Y0134892D03*
X0061175Y0134800D03*
X0061175Y0134754D03*
X0061175Y0134708D03*
X0061129Y0134662D03*
X0061129Y0134616D03*
X0061129Y0134570D03*
X0061129Y0134524D03*
X0061083Y0134432D03*
X0061083Y0134386D03*
X0061083Y0134340D03*
X0061037Y0134248D03*
X0061037Y0134202D03*
X0061405Y0135812D03*
X0065131Y0133696D03*
X0065131Y0133650D03*
X0065085Y0133604D03*
X0065085Y0133558D03*
X0063705Y0129924D03*
X0063705Y0129878D03*
X0059565Y0125416D03*
X0057725Y0131258D03*
X0053447Y0133650D03*
X0053447Y0133696D03*
X0053401Y0133788D03*
X0051745Y0125094D03*
X0053815Y0123438D03*
X0053907Y0123392D03*
D63*
X0055540Y0125462D03*
X0059956Y0125646D03*
X0060876Y0123438D03*
X0063682Y0128774D03*
X0063682Y0128820D03*
X0065614Y0135076D03*
X0061980Y0139078D03*
X0061980Y0139124D03*
X0052550Y0137652D03*
X0052550Y0137606D03*
X0052550Y0137560D03*
D64*
X0052527Y0137698D03*
X0052527Y0137744D03*
X0052527Y0137790D03*
X0057679Y0139768D03*
X0057679Y0139814D03*
X0057679Y0139860D03*
X0062003Y0139170D03*
X0065637Y0135168D03*
X0065637Y0135122D03*
X0063659Y0128728D03*
X0063659Y0128682D03*
X0063659Y0128636D03*
X0060945Y0123484D03*
X0059243Y0130706D03*
X0053309Y0131810D03*
X0048111Y0130016D03*
D65*
X0048088Y0130062D03*
X0053286Y0131764D03*
X0055908Y0130660D03*
X0060002Y0125692D03*
X0061014Y0123530D03*
X0065660Y0135214D03*
X0061980Y0139216D03*
X0052504Y0137928D03*
X0052504Y0137882D03*
X0052504Y0137836D03*
D66*
X0053194Y0134432D03*
X0053240Y0134294D03*
X0053240Y0134248D03*
X0051998Y0124818D03*
X0052044Y0124772D03*
X0052090Y0124726D03*
X0052228Y0124588D03*
X0053562Y0123576D03*
X0063728Y0129740D03*
X0065246Y0133972D03*
X0065292Y0134064D03*
X0065292Y0134110D03*
X0061612Y0136870D03*
X0061658Y0137100D03*
X0061658Y0137146D03*
X0061658Y0137192D03*
X0061658Y0137238D03*
X0061704Y0137422D03*
D67*
X0062026Y0139354D03*
X0065660Y0135260D03*
X0057748Y0131350D03*
X0055770Y0130614D03*
X0055310Y0125554D03*
X0057242Y0124726D03*
X0061060Y0123576D03*
X0061106Y0123622D03*
X0052458Y0138066D03*
X0052458Y0138112D03*
X0048088Y0130108D03*
D68*
X0048295Y0129602D03*
X0052297Y0124542D03*
X0052343Y0124496D03*
X0052389Y0124450D03*
X0052435Y0124404D03*
X0053263Y0123760D03*
X0053355Y0123714D03*
X0053401Y0123668D03*
X0053493Y0123622D03*
X0057219Y0124818D03*
X0053585Y0132178D03*
X0053217Y0134340D03*
X0053217Y0134386D03*
X0053171Y0134478D03*
X0053171Y0134524D03*
X0053125Y0134662D03*
X0057587Y0138572D03*
X0061727Y0137560D03*
X0061727Y0137514D03*
X0061727Y0137468D03*
X0061681Y0137376D03*
X0061681Y0137330D03*
X0061681Y0137284D03*
X0065361Y0134294D03*
X0065315Y0134202D03*
X0065315Y0134156D03*
X0063705Y0129694D03*
X0063705Y0129648D03*
X0060899Y0132408D03*
D69*
X0063613Y0128360D03*
X0063613Y0128314D03*
X0060071Y0125784D03*
X0061175Y0123668D03*
X0055701Y0130568D03*
X0053217Y0131672D03*
X0052435Y0138158D03*
X0052435Y0138204D03*
X0057679Y0139998D03*
X0057679Y0140044D03*
X0062003Y0139400D03*
X0065683Y0135306D03*
D70*
X0065706Y0135352D03*
X0060094Y0125830D03*
X0061244Y0123714D03*
X0053194Y0131626D03*
X0057702Y0140090D03*
D71*
X0057679Y0140136D03*
X0062049Y0139538D03*
X0055517Y0130476D03*
X0053171Y0131580D03*
X0055149Y0125646D03*
X0061313Y0123760D03*
X0063567Y0128084D03*
X0063567Y0128130D03*
X0052435Y0138250D03*
X0052435Y0138296D03*
X0048065Y0130154D03*
D72*
X0053148Y0134570D03*
X0053148Y0134616D03*
X0053102Y0134708D03*
X0053102Y0134754D03*
X0053102Y0134800D03*
X0053056Y0134892D03*
X0053056Y0134938D03*
X0053056Y0134984D03*
X0052642Y0124220D03*
X0052780Y0124128D03*
X0052826Y0124082D03*
X0053056Y0123898D03*
X0053148Y0123852D03*
X0053194Y0123806D03*
X0059680Y0125462D03*
X0065338Y0134248D03*
X0065384Y0134340D03*
D73*
X0065706Y0135398D03*
X0062026Y0139584D03*
X0059588Y0130568D03*
X0060140Y0125876D03*
X0061336Y0123806D03*
X0055080Y0125692D03*
X0055310Y0130338D03*
X0052412Y0138342D03*
X0052412Y0138388D03*
X0052412Y0138434D03*
D74*
X0052389Y0138480D03*
X0057679Y0140228D03*
X0062049Y0139630D03*
X0055241Y0130292D03*
X0055195Y0130246D03*
X0055149Y0130200D03*
X0055103Y0130154D03*
X0055057Y0130108D03*
X0060163Y0125922D03*
X0061451Y0123898D03*
X0061405Y0123852D03*
X0063567Y0127946D03*
X0063567Y0127992D03*
X0063567Y0128038D03*
X0048065Y0130200D03*
D75*
X0048272Y0129648D03*
X0052504Y0124358D03*
X0052550Y0124312D03*
X0052596Y0124266D03*
X0052872Y0124036D03*
X0052964Y0123990D03*
X0053010Y0123944D03*
X0053010Y0135122D03*
X0057564Y0138618D03*
X0057564Y0138664D03*
X0061750Y0137744D03*
X0061750Y0137698D03*
X0061750Y0137652D03*
X0061750Y0137606D03*
X0063728Y0129602D03*
D76*
X0063544Y0127900D03*
X0063544Y0127854D03*
X0061520Y0123944D03*
X0060186Y0125968D03*
X0059680Y0130522D03*
X0055034Y0130062D03*
X0054896Y0129924D03*
X0054850Y0129878D03*
X0053102Y0131488D03*
X0054804Y0125968D03*
X0054850Y0125922D03*
X0054896Y0125876D03*
X0054942Y0125830D03*
X0054988Y0125784D03*
X0052366Y0138526D03*
X0057702Y0140274D03*
X0062072Y0139676D03*
X0065752Y0135444D03*
D77*
X0063475Y0127716D03*
X0063475Y0127670D03*
X0063475Y0127624D03*
X0061589Y0124036D03*
X0061543Y0123990D03*
X0054643Y0129556D03*
X0054689Y0129648D03*
X0052389Y0138572D03*
D78*
X0052366Y0138618D03*
X0052366Y0138664D03*
X0053056Y0131396D03*
X0054482Y0129280D03*
X0054482Y0129234D03*
X0054436Y0129188D03*
X0054436Y0129142D03*
X0054436Y0129096D03*
X0054390Y0129050D03*
X0054390Y0129004D03*
X0054344Y0128866D03*
X0054298Y0128682D03*
X0054528Y0129326D03*
X0054528Y0129372D03*
X0054574Y0129418D03*
X0054574Y0129464D03*
X0054620Y0129510D03*
X0054666Y0129602D03*
X0054758Y0129740D03*
X0054528Y0126382D03*
X0054574Y0126290D03*
X0054620Y0126244D03*
X0054620Y0126198D03*
X0054666Y0126152D03*
X0054712Y0126106D03*
X0059772Y0130430D03*
X0060232Y0126106D03*
X0060232Y0126060D03*
X0061704Y0124128D03*
X0063452Y0127532D03*
X0063452Y0127578D03*
X0065752Y0135490D03*
X0062072Y0139768D03*
D79*
X0059841Y0130384D03*
X0059887Y0130338D03*
X0059933Y0130292D03*
X0060255Y0126152D03*
X0061819Y0124266D03*
X0061773Y0124220D03*
X0061727Y0124174D03*
X0054551Y0126336D03*
X0054505Y0126428D03*
X0054505Y0126474D03*
X0054459Y0126520D03*
X0054459Y0126566D03*
X0054413Y0126612D03*
X0054413Y0126658D03*
X0054367Y0126750D03*
X0054367Y0126796D03*
X0054367Y0128912D03*
X0054367Y0128958D03*
X0053033Y0131350D03*
D80*
X0053010Y0131304D03*
X0052964Y0131258D03*
X0054252Y0128452D03*
X0054206Y0128038D03*
X0054206Y0127992D03*
X0054206Y0127946D03*
X0054206Y0127900D03*
X0054206Y0127854D03*
X0054206Y0127808D03*
X0054206Y0127762D03*
X0054206Y0127716D03*
X0054206Y0127670D03*
X0054206Y0127624D03*
X0054206Y0127578D03*
X0054252Y0127394D03*
X0054252Y0127348D03*
X0054252Y0127302D03*
X0054252Y0127256D03*
X0054252Y0127210D03*
X0054298Y0127072D03*
X0054298Y0127026D03*
X0054298Y0126980D03*
X0054344Y0126842D03*
X0054390Y0126704D03*
X0059956Y0130246D03*
X0060002Y0130200D03*
X0060278Y0126244D03*
X0060278Y0126198D03*
X0061934Y0124404D03*
X0061888Y0124358D03*
X0061842Y0124312D03*
X0063406Y0127302D03*
X0063406Y0127348D03*
X0063406Y0127394D03*
X0062072Y0139814D03*
X0062072Y0139860D03*
X0057702Y0140412D03*
D81*
X0057679Y0140458D03*
X0052343Y0138802D03*
X0060025Y0130154D03*
X0060071Y0130108D03*
X0060301Y0126336D03*
X0060301Y0126290D03*
X0062003Y0124496D03*
X0061957Y0124450D03*
X0063383Y0127210D03*
X0063383Y0127256D03*
X0065775Y0135582D03*
D82*
X0062095Y0139952D03*
X0062095Y0139998D03*
X0057679Y0140504D03*
X0052895Y0131120D03*
X0060255Y0129740D03*
X0060255Y0129694D03*
X0060255Y0129648D03*
X0060301Y0129556D03*
X0060301Y0129510D03*
X0060301Y0129464D03*
X0060301Y0129418D03*
X0060301Y0129372D03*
X0060301Y0129326D03*
X0060347Y0126796D03*
X0060347Y0126750D03*
X0060347Y0126704D03*
X0060347Y0126658D03*
X0060347Y0126612D03*
X0060347Y0126566D03*
X0060347Y0126520D03*
X0062187Y0124726D03*
X0062233Y0124772D03*
X0062049Y0124542D03*
X0063199Y0126704D03*
X0063245Y0126796D03*
X0063245Y0126842D03*
D83*
X0063268Y0126888D03*
X0063314Y0127026D03*
X0063314Y0127072D03*
X0062118Y0124634D03*
X0062072Y0124588D03*
X0060324Y0126382D03*
X0060324Y0126428D03*
X0060324Y0126474D03*
X0060324Y0129280D03*
X0060278Y0129602D03*
X0060232Y0129786D03*
X0060186Y0129878D03*
X0060186Y0129924D03*
X0060140Y0129970D03*
X0060140Y0130016D03*
X0060094Y0130062D03*
X0052918Y0131166D03*
X0048042Y0130338D03*
X0052320Y0138848D03*
X0052320Y0138894D03*
D84*
X0053286Y0134202D03*
X0053286Y0134156D03*
X0053286Y0134110D03*
X0057564Y0138434D03*
X0057564Y0138480D03*
X0057564Y0138526D03*
X0052136Y0124680D03*
X0052182Y0124634D03*
D85*
X0057242Y0124634D03*
X0052228Y0139538D03*
X0062164Y0140550D03*
D86*
X0052297Y0139170D03*
X0052757Y0130798D03*
X0052711Y0130752D03*
X0051929Y0129280D03*
X0060485Y0124680D03*
X0060485Y0124634D03*
D87*
X0060370Y0125186D03*
X0060370Y0126842D03*
X0060370Y0126888D03*
X0060370Y0126934D03*
X0060370Y0126980D03*
X0060370Y0127026D03*
X0060370Y0127072D03*
X0060370Y0127118D03*
X0060370Y0127164D03*
X0060370Y0127210D03*
X0060370Y0127256D03*
X0060370Y0127302D03*
X0060370Y0127348D03*
X0060370Y0127394D03*
X0060370Y0127440D03*
X0060370Y0127486D03*
X0060370Y0127532D03*
X0060370Y0127578D03*
X0060370Y0127624D03*
X0063176Y0126658D03*
X0063176Y0126612D03*
X0063176Y0126566D03*
X0063130Y0126520D03*
X0063130Y0126474D03*
X0063084Y0126382D03*
X0063222Y0126750D03*
X0062348Y0124956D03*
X0062302Y0124910D03*
X0062302Y0124864D03*
X0062256Y0124818D03*
X0057242Y0124680D03*
X0052872Y0131074D03*
X0052320Y0138940D03*
X0057702Y0140550D03*
X0065798Y0135628D03*
D88*
X0060209Y0129832D03*
X0063291Y0126980D03*
X0063291Y0126934D03*
X0062141Y0124680D03*
D89*
X0060462Y0124726D03*
X0052780Y0130844D03*
X0052274Y0139124D03*
X0057702Y0140688D03*
D90*
X0057679Y0140642D03*
X0052297Y0139078D03*
X0052803Y0130890D03*
X0060439Y0124864D03*
X0060439Y0124818D03*
X0060439Y0124772D03*
X0065821Y0135674D03*
D91*
X0065200Y0133880D03*
X0065200Y0133834D03*
X0065154Y0133742D03*
X0063728Y0129832D03*
X0060830Y0132454D03*
X0061198Y0134846D03*
X0061244Y0135030D03*
X0061244Y0135076D03*
X0061290Y0135214D03*
X0061290Y0135260D03*
X0061290Y0135306D03*
X0061336Y0135444D03*
X0061336Y0135490D03*
X0061336Y0135536D03*
X0061382Y0135628D03*
X0061382Y0135674D03*
X0061382Y0135720D03*
X0061382Y0135766D03*
X0061428Y0135858D03*
X0061428Y0135904D03*
X0061428Y0135950D03*
X0061428Y0135996D03*
X0061474Y0136042D03*
X0061474Y0136088D03*
X0061474Y0136134D03*
X0061474Y0136180D03*
X0061474Y0136226D03*
X0061520Y0136272D03*
X0061520Y0136318D03*
X0061520Y0136364D03*
X0061520Y0136410D03*
X0061566Y0136594D03*
X0061566Y0136640D03*
X0057518Y0138066D03*
X0057518Y0138112D03*
X0057518Y0138158D03*
X0057518Y0138204D03*
X0053424Y0133742D03*
X0053378Y0133834D03*
X0053378Y0133880D03*
X0048318Y0129510D03*
X0051768Y0125048D03*
X0051814Y0125002D03*
X0051860Y0124956D03*
X0051906Y0124910D03*
D92*
X0052826Y0130936D03*
X0052826Y0130982D03*
X0060416Y0125002D03*
X0060416Y0124956D03*
X0060416Y0124910D03*
X0062578Y0125324D03*
X0062624Y0125416D03*
X0062670Y0125508D03*
X0062716Y0125554D03*
X0062716Y0125600D03*
X0062762Y0125646D03*
X0062762Y0125692D03*
X0062808Y0125738D03*
X0062808Y0125784D03*
X0062992Y0126152D03*
D93*
X0059220Y0127670D03*
X0059220Y0127716D03*
X0059220Y0127762D03*
X0059220Y0127808D03*
X0059220Y0127854D03*
X0059220Y0127900D03*
X0059220Y0127946D03*
X0059220Y0127992D03*
X0059220Y0128038D03*
X0059220Y0128084D03*
X0059220Y0128130D03*
X0059220Y0128176D03*
X0059220Y0128222D03*
X0059220Y0128268D03*
X0057196Y0124956D03*
X0050756Y0126290D03*
X0050710Y0126336D03*
X0057196Y0134616D03*
X0063636Y0130614D03*
X0063636Y0130568D03*
D94*
X0063590Y0130752D03*
X0057702Y0131120D03*
X0057196Y0134018D03*
X0057196Y0134064D03*
X0057196Y0134110D03*
X0057196Y0134156D03*
X0057196Y0125002D03*
X0050618Y0126474D03*
X0050572Y0126520D03*
D95*
X0051837Y0129234D03*
X0052849Y0131028D03*
X0048019Y0130384D03*
X0052297Y0138986D03*
X0052297Y0139032D03*
X0057679Y0140596D03*
X0062095Y0140044D03*
X0057771Y0131396D03*
X0060393Y0125140D03*
X0060393Y0125094D03*
X0060393Y0125048D03*
X0062371Y0125002D03*
X0062417Y0125048D03*
X0062417Y0125094D03*
X0062463Y0125140D03*
X0062509Y0125232D03*
X0062555Y0125278D03*
X0062601Y0125370D03*
X0062647Y0125462D03*
X0062923Y0126014D03*
X0062969Y0126106D03*
X0063015Y0126198D03*
X0063015Y0126244D03*
X0063061Y0126290D03*
X0063061Y0126336D03*
X0063107Y0126428D03*
D96*
X0063544Y0130982D03*
X0057196Y0125048D03*
X0050388Y0126842D03*
X0050342Y0126888D03*
D97*
X0050250Y0127072D03*
X0057196Y0125094D03*
D98*
X0057173Y0125140D03*
X0063475Y0131212D03*
X0050135Y0127256D03*
D99*
X0057173Y0125186D03*
D100*
X0062486Y0125186D03*
X0062854Y0125830D03*
X0062854Y0125876D03*
X0062900Y0125922D03*
X0062900Y0125968D03*
X0062946Y0126060D03*
X0062118Y0140090D03*
D101*
X0057909Y0125232D03*
D102*
X0057886Y0125278D03*
X0062946Y0132270D03*
D103*
X0062900Y0132316D03*
X0057840Y0125324D03*
D104*
X0060025Y0125738D03*
X0063659Y0128544D03*
X0063659Y0128590D03*
X0062003Y0139262D03*
X0062003Y0139308D03*
X0057679Y0139906D03*
X0057679Y0139952D03*
X0052481Y0138020D03*
X0052481Y0137974D03*
X0053263Y0131718D03*
X0055425Y0125508D03*
D105*
X0059772Y0125508D03*
X0063728Y0129372D03*
X0065476Y0134616D03*
X0065476Y0134662D03*
X0061842Y0138250D03*
X0061842Y0138296D03*
X0061842Y0138342D03*
X0057610Y0139078D03*
X0057610Y0139124D03*
X0052780Y0136318D03*
X0052780Y0136272D03*
X0052780Y0136226D03*
X0052780Y0136180D03*
X0053470Y0132040D03*
D106*
X0053792Y0132362D03*
X0057380Y0136686D03*
X0057380Y0136732D03*
X0057380Y0136778D03*
X0057380Y0136824D03*
X0057380Y0136870D03*
X0057380Y0136916D03*
X0064740Y0132868D03*
X0064740Y0132822D03*
X0064694Y0132776D03*
X0063682Y0130154D03*
X0051308Y0125554D03*
D107*
X0055218Y0125600D03*
X0055586Y0130522D03*
X0059496Y0130614D03*
X0063590Y0128268D03*
X0063590Y0128222D03*
X0063590Y0128176D03*
X0062026Y0139446D03*
X0062026Y0139492D03*
D108*
X0057357Y0136640D03*
X0057357Y0136594D03*
X0057357Y0136548D03*
X0057357Y0136502D03*
X0057357Y0136456D03*
X0064625Y0132684D03*
X0051193Y0125692D03*
D109*
X0051170Y0125738D03*
X0051124Y0125784D03*
X0053838Y0132408D03*
X0057702Y0131212D03*
X0057334Y0136226D03*
X0057334Y0136272D03*
X0057334Y0136318D03*
X0057334Y0136364D03*
X0057334Y0136410D03*
X0064602Y0132638D03*
X0063682Y0130246D03*
X0063682Y0130200D03*
D110*
X0057702Y0140182D03*
X0053148Y0131534D03*
X0055402Y0130384D03*
X0055448Y0130430D03*
X0055034Y0125738D03*
D111*
X0050986Y0125968D03*
X0050940Y0126014D03*
X0057242Y0135168D03*
X0057242Y0135214D03*
X0057242Y0135260D03*
X0057242Y0135306D03*
X0057242Y0135352D03*
X0057242Y0135398D03*
X0063636Y0130430D03*
D112*
X0063659Y0130476D03*
X0064395Y0132362D03*
X0057219Y0135122D03*
X0050871Y0126106D03*
X0050917Y0126060D03*
D113*
X0050848Y0126152D03*
X0053976Y0132500D03*
X0057702Y0131166D03*
X0057242Y0134892D03*
X0057242Y0134938D03*
X0057242Y0134984D03*
X0057242Y0135030D03*
X0057242Y0135076D03*
X0060462Y0132638D03*
D114*
X0063613Y0130660D03*
X0057219Y0134432D03*
X0057219Y0134478D03*
X0057219Y0134524D03*
X0057219Y0134570D03*
X0050687Y0126382D03*
D115*
X0050641Y0126428D03*
X0063613Y0130706D03*
D116*
X0063590Y0130844D03*
X0057196Y0133834D03*
X0057196Y0133880D03*
X0057196Y0133926D03*
X0054114Y0132592D03*
X0050526Y0126612D03*
D117*
X0050503Y0126658D03*
X0063567Y0130890D03*
D118*
X0050457Y0126704D03*
D119*
X0050434Y0126750D03*
D120*
X0054229Y0127440D03*
X0054229Y0127486D03*
X0054229Y0127532D03*
X0054275Y0127164D03*
X0054275Y0127118D03*
X0054321Y0126934D03*
X0054321Y0126888D03*
X0054229Y0128084D03*
X0054229Y0128130D03*
X0054229Y0128176D03*
X0054229Y0128222D03*
X0054229Y0128268D03*
X0054229Y0128314D03*
X0054229Y0128360D03*
X0054229Y0128406D03*
X0054275Y0128498D03*
X0054275Y0128544D03*
X0054275Y0128590D03*
X0054275Y0128636D03*
X0054321Y0128728D03*
X0054321Y0128774D03*
X0054321Y0128820D03*
X0048065Y0130292D03*
X0052343Y0138710D03*
X0052343Y0138756D03*
X0057679Y0140366D03*
X0065775Y0135536D03*
X0063429Y0127486D03*
X0063429Y0127440D03*
D121*
X0063521Y0131028D03*
X0054229Y0132638D03*
X0050319Y0126934D03*
D122*
X0050296Y0126980D03*
D123*
X0050273Y0127026D03*
X0057679Y0131028D03*
X0060117Y0132730D03*
X0063521Y0131074D03*
D124*
X0050227Y0127118D03*
X0050181Y0127164D03*
D125*
X0052941Y0131212D03*
X0062095Y0139906D03*
X0063337Y0127164D03*
X0063337Y0127118D03*
D126*
X0063498Y0131166D03*
X0054344Y0132684D03*
X0050158Y0127210D03*
D127*
X0050112Y0127302D03*
X0057656Y0130982D03*
X0063452Y0131258D03*
D128*
X0050089Y0127348D03*
D129*
X0050043Y0127440D03*
X0050043Y0127486D03*
X0049997Y0127532D03*
X0063429Y0131350D03*
D130*
X0057656Y0130936D03*
X0049974Y0127578D03*
D131*
X0049951Y0127624D03*
D132*
X0049928Y0127670D03*
X0049928Y0127716D03*
X0054528Y0132730D03*
X0063406Y0131442D03*
D133*
X0057656Y0130890D03*
X0049882Y0127854D03*
X0049882Y0127808D03*
D134*
X0049859Y0127900D03*
X0063383Y0131534D03*
D135*
X0063360Y0131580D03*
X0049836Y0127946D03*
D136*
X0049813Y0127992D03*
X0049813Y0128038D03*
X0057633Y0130844D03*
D137*
X0049767Y0128222D03*
X0049767Y0128176D03*
D138*
X0049744Y0128268D03*
X0049744Y0128314D03*
D139*
X0049744Y0128360D03*
D140*
X0059404Y0130660D03*
X0063636Y0128498D03*
X0063636Y0128452D03*
X0063636Y0128406D03*
D141*
X0063268Y0131764D03*
X0049698Y0128590D03*
X0049698Y0128544D03*
D142*
X0049675Y0128636D03*
X0049675Y0128682D03*
D143*
X0049698Y0128728D03*
X0063222Y0131856D03*
D144*
X0049675Y0128866D03*
X0049675Y0128820D03*
X0049675Y0128774D03*
D145*
X0053355Y0131856D03*
X0052573Y0137468D03*
X0052573Y0137514D03*
X0063659Y0128866D03*
X0065591Y0135030D03*
D146*
X0049652Y0128912D03*
D147*
X0049675Y0128958D03*
X0049675Y0129004D03*
X0049675Y0129050D03*
D148*
X0052619Y0137146D03*
X0052619Y0137192D03*
X0052619Y0137238D03*
X0052619Y0137284D03*
X0063705Y0129050D03*
X0063705Y0129004D03*
X0065591Y0134984D03*
D149*
X0065568Y0134938D03*
X0065568Y0134892D03*
X0061934Y0138802D03*
X0061934Y0138848D03*
X0057656Y0139400D03*
X0057656Y0139446D03*
X0057656Y0139492D03*
X0052642Y0137100D03*
X0052642Y0137054D03*
X0052642Y0137008D03*
X0053424Y0131948D03*
X0063682Y0129096D03*
D150*
X0049675Y0129142D03*
X0049675Y0129188D03*
D151*
X0051998Y0129326D03*
X0057702Y0140734D03*
D152*
X0057702Y0140780D03*
X0062118Y0140274D03*
X0052274Y0139262D03*
X0052642Y0130568D03*
X0052642Y0130522D03*
X0052596Y0130476D03*
X0052044Y0129372D03*
D153*
X0052067Y0129418D03*
X0052113Y0129464D03*
X0052573Y0130430D03*
X0048019Y0130476D03*
X0052251Y0139308D03*
D154*
X0052872Y0135766D03*
X0052872Y0135720D03*
X0052872Y0135674D03*
X0052918Y0135628D03*
X0052918Y0135582D03*
X0052918Y0135536D03*
X0052918Y0135490D03*
X0052964Y0135352D03*
X0052964Y0135306D03*
X0057610Y0138894D03*
X0057610Y0138940D03*
X0057610Y0138986D03*
X0061796Y0138066D03*
X0061796Y0138020D03*
X0061796Y0137974D03*
X0063728Y0129510D03*
X0063728Y0129464D03*
X0048226Y0129694D03*
D155*
X0052136Y0129510D03*
X0052504Y0130246D03*
X0052550Y0130338D03*
X0052550Y0130384D03*
X0057702Y0140826D03*
X0062118Y0140320D03*
D156*
X0062141Y0140366D03*
X0065867Y0135766D03*
X0052527Y0130292D03*
X0052481Y0130200D03*
X0052435Y0130108D03*
X0052251Y0129694D03*
X0052205Y0129648D03*
X0052205Y0129602D03*
X0052159Y0129556D03*
X0052251Y0139354D03*
D157*
X0057702Y0140872D03*
X0052458Y0130154D03*
X0052412Y0130062D03*
X0052412Y0130016D03*
X0052366Y0129970D03*
X0052366Y0129924D03*
X0052320Y0129878D03*
X0052320Y0129832D03*
X0052274Y0129786D03*
X0052274Y0129740D03*
D158*
X0048180Y0129832D03*
X0052734Y0136502D03*
X0052688Y0136686D03*
X0052688Y0136732D03*
X0052688Y0136778D03*
X0057656Y0139308D03*
X0061888Y0138618D03*
X0061888Y0138572D03*
X0061888Y0138526D03*
X0065522Y0134800D03*
X0065522Y0134754D03*
D159*
X0061911Y0138664D03*
X0061911Y0138710D03*
X0061911Y0138756D03*
X0048157Y0129878D03*
D160*
X0048111Y0129970D03*
X0057679Y0139676D03*
X0057679Y0139722D03*
X0061957Y0139032D03*
X0061957Y0138986D03*
D161*
X0062118Y0140136D03*
X0062118Y0140182D03*
X0048042Y0130430D03*
D162*
X0048042Y0130522D03*
X0057702Y0140918D03*
X0062164Y0140412D03*
D163*
X0063636Y0130522D03*
D164*
X0048019Y0130568D03*
D165*
X0052665Y0130614D03*
D166*
X0052688Y0130660D03*
X0052688Y0130706D03*
X0052274Y0139216D03*
X0062118Y0140228D03*
X0065844Y0135720D03*
D167*
X0063291Y0131718D03*
X0057633Y0130798D03*
D168*
X0057725Y0131304D03*
D169*
X0063429Y0131396D03*
D170*
X0063314Y0131672D03*
D171*
X0063245Y0131810D03*
D172*
X0063199Y0131902D03*
D173*
X0063153Y0131994D03*
D174*
X0063130Y0132040D03*
D175*
X0065430Y0134478D03*
X0065430Y0134524D03*
X0053516Y0132086D03*
D176*
X0063084Y0132086D03*
D177*
X0063061Y0132132D03*
D178*
X0063015Y0132178D03*
D179*
X0062969Y0132224D03*
D180*
X0060991Y0134064D03*
X0061359Y0135582D03*
X0065177Y0133788D03*
X0053677Y0132270D03*
D181*
X0057219Y0134202D03*
X0060347Y0132684D03*
D182*
X0057196Y0132776D03*
X0057196Y0132822D03*
D183*
X0057173Y0132868D03*
X0057173Y0132914D03*
X0057173Y0132960D03*
X0057173Y0133006D03*
D184*
X0057196Y0133052D03*
D185*
X0057173Y0133098D03*
X0057173Y0133144D03*
X0057173Y0133190D03*
X0057173Y0133236D03*
D186*
X0057196Y0133282D03*
D187*
X0057173Y0133328D03*
X0057173Y0133374D03*
X0057173Y0133420D03*
X0057173Y0133466D03*
D188*
X0057196Y0133512D03*
D189*
X0057173Y0133558D03*
D190*
X0058806Y0133696D03*
X0058806Y0133742D03*
D191*
X0057725Y0140964D03*
X0065913Y0135812D03*
D192*
X0057403Y0136962D03*
X0057403Y0137008D03*
X0057403Y0137054D03*
X0057403Y0137100D03*
X0057403Y0137146D03*
D193*
X0052251Y0139400D03*
D194*
X0052251Y0139446D03*
D195*
X0052228Y0139492D03*
D196*
X0052228Y0139584D03*
X0057748Y0141102D03*
D197*
X0062164Y0140458D03*
D198*
X0062141Y0140504D03*
X0057725Y0141010D03*
D199*
X0062187Y0140596D03*
D200*
X0057748Y0141056D03*
D201*
X0066800Y0111506D02*
X0066800Y0096506D01*
X0066800Y0082006D02*
X0066800Y0079006D01*
X0067800Y0079006D01*
X0066800Y0079006D02*
X0066800Y0076006D01*
X0046800Y0076006D01*
X0046800Y0079006D01*
X0045800Y0079006D01*
X0046800Y0079006D02*
X0046800Y0082006D01*
X0066800Y0082006D01*
D202*
X0067129Y0111815D02*
X0066409Y0111275D01*
X0066410Y0111276D02*
X0066229Y0111509D01*
X0066043Y0111737D01*
X0065851Y0111961D01*
X0065654Y0112180D01*
X0065452Y0112394D01*
X0065244Y0112603D01*
X0065031Y0112806D01*
X0064814Y0113005D01*
X0064591Y0113198D01*
X0064364Y0113386D01*
X0064133Y0113568D01*
X0063897Y0113745D01*
X0063656Y0113915D01*
X0063412Y0114080D01*
X0063164Y0114238D01*
X0062912Y0114391D01*
X0062656Y0114537D01*
X0062397Y0114677D01*
X0062134Y0114811D01*
X0061869Y0114938D01*
X0061600Y0115059D01*
X0061328Y0115173D01*
X0061054Y0115280D01*
X0060777Y0115381D01*
X0060498Y0115475D01*
X0060216Y0115562D01*
X0059933Y0115642D01*
X0059647Y0115715D01*
X0059360Y0115781D01*
X0059071Y0115840D01*
X0058781Y0115892D01*
X0058490Y0115937D01*
X0058198Y0115975D01*
X0057905Y0116005D01*
X0057611Y0116029D01*
X0057317Y0116045D01*
X0057023Y0116054D01*
X0056728Y0116056D01*
X0056433Y0116050D01*
X0056139Y0116038D01*
X0055845Y0116018D01*
X0055552Y0115991D01*
X0055259Y0115957D01*
X0054967Y0115916D01*
X0054677Y0115867D01*
X0054387Y0115812D01*
X0054100Y0115750D01*
X0053813Y0115680D01*
X0053529Y0115603D01*
X0053246Y0115520D01*
X0052966Y0115430D01*
X0052688Y0115333D01*
X0052412Y0115229D01*
X0052139Y0115118D01*
X0051869Y0115001D01*
X0051601Y0114877D01*
X0051337Y0114747D01*
X0051076Y0114610D01*
X0050819Y0114467D01*
X0050565Y0114317D01*
X0050314Y0114162D01*
X0050068Y0114000D01*
X0049826Y0113833D01*
X0049588Y0113659D01*
X0049354Y0113480D01*
X0049124Y0113295D01*
X0048900Y0113105D01*
X0048679Y0112909D01*
X0048464Y0112708D01*
X0048254Y0112501D01*
X0048049Y0112290D01*
X0047849Y0112073D01*
X0047654Y0111852D01*
X0047465Y0111626D01*
X0047282Y0111396D01*
X0047104Y0111161D01*
X0046932Y0110921D01*
X0046766Y0110678D01*
X0046606Y0110431D01*
X0046452Y0110180D01*
X0046304Y0109925D01*
X0046162Y0109666D01*
X0046027Y0109405D01*
X0045898Y0109140D01*
X0045776Y0108872D01*
X0045660Y0108601D01*
X0045551Y0108327D01*
X0045449Y0108051D01*
X0045354Y0107772D01*
X0045265Y0107491D01*
X0045183Y0107208D01*
X0045108Y0106923D01*
X0045041Y0106636D01*
X0044980Y0106348D01*
X0044926Y0106058D01*
X0044879Y0105767D01*
X0044840Y0105475D01*
X0044808Y0105183D01*
X0044782Y0104889D01*
X0044764Y0104595D01*
X0044754Y0104301D01*
X0044750Y0104006D01*
X0044754Y0103711D01*
X0044764Y0103417D01*
X0044782Y0103123D01*
X0044808Y0102829D01*
X0044840Y0102537D01*
X0044879Y0102245D01*
X0044926Y0101954D01*
X0044980Y0101664D01*
X0045041Y0101376D01*
X0045108Y0101089D01*
X0045183Y0100804D01*
X0045265Y0100521D01*
X0045354Y0100240D01*
X0045449Y0099961D01*
X0045551Y0099685D01*
X0045660Y0099411D01*
X0045776Y0099140D01*
X0045898Y0098872D01*
X0046027Y0098607D01*
X0046162Y0098346D01*
X0046304Y0098087D01*
X0046452Y0097832D01*
X0046606Y0097581D01*
X0046766Y0097334D01*
X0046932Y0097091D01*
X0047104Y0096851D01*
X0047282Y0096616D01*
X0047465Y0096386D01*
X0047654Y0096160D01*
X0047849Y0095939D01*
X0048049Y0095722D01*
X0048254Y0095511D01*
X0048464Y0095304D01*
X0048679Y0095103D01*
X0048900Y0094907D01*
X0049124Y0094717D01*
X0049354Y0094532D01*
X0049588Y0094353D01*
X0049826Y0094179D01*
X0050068Y0094012D01*
X0050314Y0093850D01*
X0050565Y0093695D01*
X0050819Y0093545D01*
X0051076Y0093402D01*
X0051337Y0093265D01*
X0051601Y0093135D01*
X0051869Y0093011D01*
X0052139Y0092894D01*
X0052412Y0092783D01*
X0052688Y0092679D01*
X0052966Y0092582D01*
X0053246Y0092492D01*
X0053529Y0092409D01*
X0053813Y0092332D01*
X0054100Y0092262D01*
X0054387Y0092200D01*
X0054677Y0092145D01*
X0054967Y0092096D01*
X0055259Y0092055D01*
X0055552Y0092021D01*
X0055845Y0091994D01*
X0056139Y0091974D01*
X0056433Y0091962D01*
X0056728Y0091956D01*
X0057023Y0091958D01*
X0057317Y0091967D01*
X0057611Y0091983D01*
X0057905Y0092007D01*
X0058198Y0092037D01*
X0058490Y0092075D01*
X0058781Y0092120D01*
X0059071Y0092172D01*
X0059360Y0092231D01*
X0059647Y0092297D01*
X0059933Y0092370D01*
X0060216Y0092450D01*
X0060498Y0092537D01*
X0060777Y0092631D01*
X0061054Y0092732D01*
X0061328Y0092839D01*
X0061600Y0092953D01*
X0061869Y0093074D01*
X0062134Y0093201D01*
X0062397Y0093335D01*
X0062656Y0093475D01*
X0062912Y0093621D01*
X0063164Y0093774D01*
X0063412Y0093932D01*
X0063656Y0094097D01*
X0063897Y0094267D01*
X0064133Y0094444D01*
X0064364Y0094626D01*
X0064591Y0094814D01*
X0064814Y0095007D01*
X0065031Y0095206D01*
X0065244Y0095409D01*
X0065452Y0095618D01*
X0065654Y0095832D01*
X0065851Y0096051D01*
X0066043Y0096275D01*
X0066229Y0096503D01*
X0066410Y0096736D01*
X0067129Y0096197D01*
X0067130Y0096196D01*
X0066936Y0095946D01*
X0066736Y0095700D01*
X0066530Y0095460D01*
X0066318Y0095225D01*
X0066100Y0094995D01*
X0065877Y0094770D01*
X0065649Y0094551D01*
X0065415Y0094337D01*
X0065176Y0094129D01*
X0064932Y0093927D01*
X0064683Y0093732D01*
X0064429Y0093542D01*
X0064171Y0093359D01*
X0063909Y0093182D01*
X0063642Y0093011D01*
X0063371Y0092847D01*
X0063096Y0092690D01*
X0062818Y0092539D01*
X0062535Y0092395D01*
X0062250Y0092259D01*
X0061961Y0092129D01*
X0061669Y0092006D01*
X0061374Y0091891D01*
X0061077Y0091783D01*
X0060776Y0091682D01*
X0060474Y0091588D01*
X0060169Y0091502D01*
X0059862Y0091423D01*
X0059554Y0091352D01*
X0059244Y0091289D01*
X0058932Y0091233D01*
X0058619Y0091184D01*
X0058305Y0091144D01*
X0057990Y0091111D01*
X0057674Y0091086D01*
X0057358Y0091068D01*
X0057042Y0091058D01*
X0056725Y0091056D01*
X0056408Y0091062D01*
X0056092Y0091075D01*
X0055776Y0091097D01*
X0055461Y0091125D01*
X0055146Y0091162D01*
X0054833Y0091206D01*
X0054520Y0091258D01*
X0054209Y0091318D01*
X0053900Y0091385D01*
X0053592Y0091460D01*
X0053286Y0091542D01*
X0052983Y0091631D01*
X0052681Y0091728D01*
X0052382Y0091833D01*
X0052086Y0091945D01*
X0051792Y0092063D01*
X0051502Y0092189D01*
X0051215Y0092322D01*
X0050930Y0092463D01*
X0050650Y0092610D01*
X0050373Y0092763D01*
X0050100Y0092924D01*
X0049831Y0093091D01*
X0049566Y0093265D01*
X0049306Y0093445D01*
X0049050Y0093631D01*
X0048799Y0093824D01*
X0048552Y0094022D01*
X0048310Y0094227D01*
X0048074Y0094437D01*
X0047842Y0094654D01*
X0047617Y0094876D01*
X0047396Y0095103D01*
X0047181Y0095335D01*
X0046972Y0095573D01*
X0046769Y0095816D01*
X0046571Y0096064D01*
X0046380Y0096316D01*
X0046195Y0096573D01*
X0046017Y0096835D01*
X0045845Y0097101D01*
X0045679Y0097370D01*
X0045520Y0097644D01*
X0045368Y0097922D01*
X0045223Y0098203D01*
X0045084Y0098488D01*
X0044953Y0098776D01*
X0044829Y0099068D01*
X0044711Y0099362D01*
X0044601Y0099659D01*
X0044499Y0099958D01*
X0044404Y0100260D01*
X0044316Y0100564D01*
X0044235Y0100871D01*
X0044162Y0101179D01*
X0044097Y0101489D01*
X0044039Y0101800D01*
X0043989Y0102113D01*
X0043947Y0102427D01*
X0043912Y0102741D01*
X0043885Y0103057D01*
X0043865Y0103373D01*
X0043854Y0103689D01*
X0043850Y0104006D01*
X0043854Y0104323D01*
X0043865Y0104639D01*
X0043885Y0104955D01*
X0043912Y0105271D01*
X0043947Y0105585D01*
X0043989Y0105899D01*
X0044039Y0106212D01*
X0044097Y0106523D01*
X0044162Y0106833D01*
X0044235Y0107141D01*
X0044316Y0107448D01*
X0044404Y0107752D01*
X0044499Y0108054D01*
X0044601Y0108353D01*
X0044711Y0108650D01*
X0044829Y0108944D01*
X0044953Y0109236D01*
X0045084Y0109524D01*
X0045223Y0109809D01*
X0045368Y0110090D01*
X0045520Y0110368D01*
X0045679Y0110642D01*
X0045845Y0110911D01*
X0046017Y0111177D01*
X0046195Y0111439D01*
X0046380Y0111696D01*
X0046571Y0111948D01*
X0046769Y0112196D01*
X0046972Y0112439D01*
X0047181Y0112677D01*
X0047396Y0112909D01*
X0047617Y0113136D01*
X0047842Y0113358D01*
X0048074Y0113575D01*
X0048310Y0113785D01*
X0048552Y0113990D01*
X0048799Y0114188D01*
X0049050Y0114381D01*
X0049306Y0114567D01*
X0049566Y0114747D01*
X0049831Y0114921D01*
X0050100Y0115088D01*
X0050373Y0115249D01*
X0050650Y0115402D01*
X0050930Y0115549D01*
X0051215Y0115690D01*
X0051502Y0115823D01*
X0051792Y0115949D01*
X0052086Y0116067D01*
X0052382Y0116179D01*
X0052681Y0116284D01*
X0052983Y0116381D01*
X0053286Y0116470D01*
X0053592Y0116552D01*
X0053900Y0116627D01*
X0054209Y0116694D01*
X0054520Y0116754D01*
X0054833Y0116806D01*
X0055146Y0116850D01*
X0055461Y0116887D01*
X0055776Y0116915D01*
X0056092Y0116937D01*
X0056408Y0116950D01*
X0056725Y0116956D01*
X0057042Y0116954D01*
X0057358Y0116944D01*
X0057674Y0116926D01*
X0057990Y0116901D01*
X0058305Y0116868D01*
X0058619Y0116828D01*
X0058932Y0116779D01*
X0059244Y0116723D01*
X0059554Y0116660D01*
X0059862Y0116589D01*
X0060169Y0116510D01*
X0060474Y0116424D01*
X0060776Y0116330D01*
X0061077Y0116229D01*
X0061374Y0116121D01*
X0061669Y0116006D01*
X0061961Y0115883D01*
X0062250Y0115753D01*
X0062535Y0115617D01*
X0062818Y0115473D01*
X0063096Y0115322D01*
X0063371Y0115165D01*
X0063642Y0115001D01*
X0063909Y0114830D01*
X0064171Y0114653D01*
X0064429Y0114470D01*
X0064683Y0114280D01*
X0064932Y0114085D01*
X0065176Y0113883D01*
X0065415Y0113675D01*
X0065649Y0113461D01*
X0065877Y0113242D01*
X0066100Y0113017D01*
X0066318Y0112787D01*
X0066530Y0112552D01*
X0066736Y0112312D01*
X0066936Y0112066D01*
X0067130Y0111816D01*
X0067055Y0111760D01*
X0066862Y0112008D01*
X0066663Y0112252D01*
X0066459Y0112490D01*
X0066249Y0112724D01*
X0066033Y0112952D01*
X0065811Y0113175D01*
X0065584Y0113393D01*
X0065352Y0113605D01*
X0065115Y0113811D01*
X0064873Y0114012D01*
X0064625Y0114206D01*
X0064374Y0114394D01*
X0064117Y0114576D01*
X0063857Y0114752D01*
X0063592Y0114921D01*
X0063323Y0115084D01*
X0063050Y0115240D01*
X0062774Y0115390D01*
X0062494Y0115532D01*
X0062210Y0115668D01*
X0061923Y0115797D01*
X0061633Y0115919D01*
X0061341Y0116033D01*
X0061045Y0116141D01*
X0060747Y0116241D01*
X0060447Y0116334D01*
X0060144Y0116419D01*
X0059840Y0116497D01*
X0059534Y0116568D01*
X0059226Y0116631D01*
X0058916Y0116687D01*
X0058606Y0116735D01*
X0058294Y0116775D01*
X0057981Y0116808D01*
X0057668Y0116833D01*
X0057354Y0116850D01*
X0057040Y0116860D01*
X0056725Y0116862D01*
X0056411Y0116856D01*
X0056097Y0116843D01*
X0055783Y0116822D01*
X0055470Y0116793D01*
X0055158Y0116757D01*
X0054847Y0116713D01*
X0054537Y0116661D01*
X0054228Y0116602D01*
X0053921Y0116535D01*
X0053615Y0116461D01*
X0053312Y0116380D01*
X0053010Y0116291D01*
X0052711Y0116194D01*
X0052414Y0116091D01*
X0052120Y0115980D01*
X0051829Y0115862D01*
X0051540Y0115737D01*
X0051255Y0115605D01*
X0050973Y0115466D01*
X0050695Y0115320D01*
X0050420Y0115167D01*
X0050149Y0115008D01*
X0049882Y0114842D01*
X0049619Y0114669D01*
X0049360Y0114491D01*
X0049106Y0114306D01*
X0048857Y0114114D01*
X0048612Y0113917D01*
X0048372Y0113714D01*
X0048137Y0113505D01*
X0047907Y0113290D01*
X0047683Y0113070D01*
X0047464Y0112845D01*
X0047251Y0112614D01*
X0047043Y0112378D01*
X0046841Y0112136D01*
X0046646Y0111891D01*
X0046456Y0111640D01*
X0046272Y0111385D01*
X0046095Y0111125D01*
X0045924Y0110861D01*
X0045760Y0110593D01*
X0045602Y0110321D01*
X0045451Y0110046D01*
X0045307Y0109766D01*
X0045169Y0109484D01*
X0045039Y0109198D01*
X0044915Y0108909D01*
X0044799Y0108616D01*
X0044690Y0108322D01*
X0044588Y0108024D01*
X0044494Y0107725D01*
X0044406Y0107422D01*
X0044326Y0107118D01*
X0044254Y0106813D01*
X0044189Y0106505D01*
X0044132Y0106196D01*
X0044082Y0105885D01*
X0044040Y0105574D01*
X0044005Y0105261D01*
X0043979Y0104948D01*
X0043959Y0104634D01*
X0043948Y0104320D01*
X0043944Y0104006D01*
X0043948Y0103692D01*
X0043959Y0103378D01*
X0043979Y0103064D01*
X0044005Y0102751D01*
X0044040Y0102438D01*
X0044082Y0102127D01*
X0044132Y0101816D01*
X0044189Y0101507D01*
X0044254Y0101199D01*
X0044326Y0100894D01*
X0044406Y0100590D01*
X0044494Y0100287D01*
X0044588Y0099988D01*
X0044690Y0099690D01*
X0044799Y0099396D01*
X0044915Y0099103D01*
X0045039Y0098814D01*
X0045169Y0098528D01*
X0045307Y0098246D01*
X0045451Y0097966D01*
X0045602Y0097691D01*
X0045760Y0097419D01*
X0045924Y0097151D01*
X0046095Y0096887D01*
X0046272Y0096627D01*
X0046456Y0096372D01*
X0046646Y0096121D01*
X0046841Y0095876D01*
X0047043Y0095634D01*
X0047251Y0095398D01*
X0047464Y0095167D01*
X0047683Y0094942D01*
X0047907Y0094722D01*
X0048137Y0094507D01*
X0048372Y0094298D01*
X0048612Y0094095D01*
X0048857Y0093898D01*
X0049106Y0093706D01*
X0049360Y0093521D01*
X0049619Y0093343D01*
X0049882Y0093170D01*
X0050149Y0093004D01*
X0050420Y0092845D01*
X0050695Y0092692D01*
X0050973Y0092546D01*
X0051255Y0092407D01*
X0051540Y0092275D01*
X0051829Y0092150D01*
X0052120Y0092032D01*
X0052414Y0091921D01*
X0052711Y0091818D01*
X0053010Y0091721D01*
X0053312Y0091632D01*
X0053615Y0091551D01*
X0053921Y0091477D01*
X0054228Y0091410D01*
X0054537Y0091351D01*
X0054847Y0091299D01*
X0055158Y0091255D01*
X0055470Y0091219D01*
X0055783Y0091190D01*
X0056097Y0091169D01*
X0056411Y0091156D01*
X0056725Y0091150D01*
X0057040Y0091152D01*
X0057354Y0091162D01*
X0057668Y0091179D01*
X0057981Y0091204D01*
X0058294Y0091237D01*
X0058606Y0091277D01*
X0058916Y0091325D01*
X0059226Y0091381D01*
X0059534Y0091444D01*
X0059840Y0091515D01*
X0060144Y0091593D01*
X0060447Y0091678D01*
X0060747Y0091771D01*
X0061045Y0091871D01*
X0061341Y0091979D01*
X0061633Y0092093D01*
X0061923Y0092215D01*
X0062210Y0092344D01*
X0062494Y0092480D01*
X0062774Y0092622D01*
X0063050Y0092772D01*
X0063323Y0092928D01*
X0063592Y0093091D01*
X0063857Y0093260D01*
X0064117Y0093436D01*
X0064374Y0093618D01*
X0064625Y0093806D01*
X0064873Y0094000D01*
X0065115Y0094201D01*
X0065352Y0094407D01*
X0065584Y0094619D01*
X0065811Y0094837D01*
X0066033Y0095060D01*
X0066249Y0095288D01*
X0066459Y0095522D01*
X0066663Y0095760D01*
X0066862Y0096004D01*
X0067055Y0096252D01*
X0066980Y0096309D01*
X0066788Y0096062D01*
X0066591Y0095820D01*
X0066388Y0095583D01*
X0066179Y0095352D01*
X0065965Y0095125D01*
X0065745Y0094903D01*
X0065520Y0094687D01*
X0065289Y0094477D01*
X0065054Y0094272D01*
X0064813Y0094073D01*
X0064568Y0093880D01*
X0064318Y0093694D01*
X0064064Y0093513D01*
X0063805Y0093338D01*
X0063542Y0093170D01*
X0063275Y0093009D01*
X0063004Y0092854D01*
X0062730Y0092705D01*
X0062452Y0092564D01*
X0062170Y0092429D01*
X0061886Y0092301D01*
X0061598Y0092180D01*
X0061307Y0092066D01*
X0061014Y0091960D01*
X0060718Y0091860D01*
X0060420Y0091768D01*
X0060120Y0091683D01*
X0059817Y0091606D01*
X0059513Y0091536D01*
X0059208Y0091473D01*
X0058901Y0091418D01*
X0058592Y0091370D01*
X0058283Y0091330D01*
X0057972Y0091298D01*
X0057661Y0091273D01*
X0057350Y0091256D01*
X0057038Y0091246D01*
X0056726Y0091244D01*
X0056414Y0091250D01*
X0056102Y0091263D01*
X0055791Y0091284D01*
X0055480Y0091312D01*
X0055170Y0091349D01*
X0054861Y0091392D01*
X0054553Y0091443D01*
X0054246Y0091502D01*
X0053942Y0091568D01*
X0053638Y0091642D01*
X0053337Y0091723D01*
X0053038Y0091811D01*
X0052741Y0091907D01*
X0052446Y0092010D01*
X0052154Y0092120D01*
X0051865Y0092237D01*
X0051578Y0092361D01*
X0051295Y0092492D01*
X0051015Y0092630D01*
X0050739Y0092775D01*
X0050466Y0092927D01*
X0050197Y0093085D01*
X0049932Y0093250D01*
X0049671Y0093421D01*
X0049415Y0093598D01*
X0049162Y0093782D01*
X0048915Y0093972D01*
X0048672Y0094167D01*
X0048433Y0094369D01*
X0048200Y0094577D01*
X0047972Y0094790D01*
X0047750Y0095008D01*
X0047532Y0095232D01*
X0047321Y0095461D01*
X0047115Y0095696D01*
X0046914Y0095935D01*
X0046720Y0096179D01*
X0046532Y0096428D01*
X0046349Y0096681D01*
X0046173Y0096939D01*
X0046004Y0097201D01*
X0045841Y0097467D01*
X0045684Y0097737D01*
X0045534Y0098011D01*
X0045391Y0098288D01*
X0045254Y0098568D01*
X0045125Y0098852D01*
X0045002Y0099139D01*
X0044887Y0099429D01*
X0044779Y0099722D01*
X0044677Y0100017D01*
X0044583Y0100315D01*
X0044497Y0100615D01*
X0044418Y0100916D01*
X0044346Y0101220D01*
X0044281Y0101525D01*
X0044224Y0101832D01*
X0044175Y0102140D01*
X0044133Y0102450D01*
X0044099Y0102760D01*
X0044072Y0103071D01*
X0044053Y0103382D01*
X0044042Y0103694D01*
X0044038Y0104006D01*
X0044042Y0104318D01*
X0044053Y0104630D01*
X0044072Y0104941D01*
X0044099Y0105252D01*
X0044133Y0105562D01*
X0044175Y0105872D01*
X0044224Y0106180D01*
X0044281Y0106487D01*
X0044346Y0106792D01*
X0044418Y0107096D01*
X0044497Y0107397D01*
X0044583Y0107697D01*
X0044677Y0107995D01*
X0044779Y0108290D01*
X0044887Y0108583D01*
X0045002Y0108873D01*
X0045125Y0109160D01*
X0045254Y0109444D01*
X0045391Y0109724D01*
X0045534Y0110001D01*
X0045684Y0110275D01*
X0045841Y0110545D01*
X0046004Y0110811D01*
X0046173Y0111073D01*
X0046349Y0111331D01*
X0046532Y0111584D01*
X0046720Y0111833D01*
X0046914Y0112077D01*
X0047115Y0112316D01*
X0047321Y0112551D01*
X0047532Y0112780D01*
X0047750Y0113004D01*
X0047972Y0113222D01*
X0048200Y0113435D01*
X0048433Y0113643D01*
X0048672Y0113845D01*
X0048915Y0114040D01*
X0049162Y0114230D01*
X0049415Y0114414D01*
X0049671Y0114591D01*
X0049932Y0114762D01*
X0050197Y0114927D01*
X0050466Y0115085D01*
X0050739Y0115237D01*
X0051015Y0115382D01*
X0051295Y0115520D01*
X0051578Y0115651D01*
X0051865Y0115775D01*
X0052154Y0115892D01*
X0052446Y0116002D01*
X0052741Y0116105D01*
X0053038Y0116201D01*
X0053337Y0116289D01*
X0053638Y0116370D01*
X0053942Y0116444D01*
X0054246Y0116510D01*
X0054553Y0116569D01*
X0054861Y0116620D01*
X0055170Y0116663D01*
X0055480Y0116700D01*
X0055791Y0116728D01*
X0056102Y0116749D01*
X0056414Y0116762D01*
X0056726Y0116768D01*
X0057038Y0116766D01*
X0057350Y0116756D01*
X0057661Y0116739D01*
X0057972Y0116714D01*
X0058283Y0116682D01*
X0058592Y0116642D01*
X0058901Y0116594D01*
X0059208Y0116539D01*
X0059513Y0116476D01*
X0059817Y0116406D01*
X0060120Y0116329D01*
X0060420Y0116244D01*
X0060718Y0116152D01*
X0061014Y0116052D01*
X0061307Y0115946D01*
X0061598Y0115832D01*
X0061886Y0115711D01*
X0062170Y0115583D01*
X0062452Y0115448D01*
X0062730Y0115307D01*
X0063004Y0115158D01*
X0063275Y0115003D01*
X0063542Y0114842D01*
X0063805Y0114674D01*
X0064064Y0114499D01*
X0064318Y0114318D01*
X0064568Y0114132D01*
X0064813Y0113939D01*
X0065054Y0113740D01*
X0065289Y0113535D01*
X0065520Y0113325D01*
X0065745Y0113109D01*
X0065965Y0112887D01*
X0066179Y0112660D01*
X0066388Y0112429D01*
X0066591Y0112192D01*
X0066788Y0111950D01*
X0066980Y0111703D01*
X0066904Y0111647D01*
X0066714Y0111892D01*
X0066519Y0112132D01*
X0066317Y0112367D01*
X0066110Y0112597D01*
X0065897Y0112822D01*
X0065679Y0113042D01*
X0065455Y0113256D01*
X0065226Y0113465D01*
X0064993Y0113668D01*
X0064754Y0113866D01*
X0064511Y0114057D01*
X0064262Y0114243D01*
X0064010Y0114422D01*
X0063753Y0114595D01*
X0063492Y0114762D01*
X0063227Y0114923D01*
X0062958Y0115076D01*
X0062686Y0115224D01*
X0062410Y0115364D01*
X0062130Y0115498D01*
X0061848Y0115625D01*
X0061562Y0115745D01*
X0061274Y0115858D01*
X0060983Y0115964D01*
X0060689Y0116062D01*
X0060393Y0116154D01*
X0060095Y0116238D01*
X0059795Y0116315D01*
X0059493Y0116384D01*
X0059190Y0116447D01*
X0058885Y0116501D01*
X0058579Y0116549D01*
X0058271Y0116588D01*
X0057963Y0116620D01*
X0057655Y0116645D01*
X0057345Y0116662D01*
X0057036Y0116672D01*
X0056726Y0116674D01*
X0056416Y0116668D01*
X0056107Y0116655D01*
X0055798Y0116634D01*
X0055489Y0116606D01*
X0055182Y0116570D01*
X0054875Y0116527D01*
X0054569Y0116476D01*
X0054265Y0116418D01*
X0053962Y0116352D01*
X0053661Y0116279D01*
X0053362Y0116199D01*
X0053065Y0116111D01*
X0052770Y0116016D01*
X0052478Y0115914D01*
X0052188Y0115805D01*
X0051901Y0115688D01*
X0051617Y0115565D01*
X0051336Y0115435D01*
X0051058Y0115298D01*
X0050784Y0115154D01*
X0050513Y0115004D01*
X0050246Y0114847D01*
X0049983Y0114683D01*
X0049724Y0114513D01*
X0049469Y0114337D01*
X0049218Y0114155D01*
X0048973Y0113966D01*
X0048731Y0113772D01*
X0048495Y0113572D01*
X0048264Y0113366D01*
X0048037Y0113154D01*
X0047816Y0112937D01*
X0047601Y0112715D01*
X0047390Y0112488D01*
X0047186Y0112255D01*
X0046987Y0112017D01*
X0046794Y0111775D01*
X0046607Y0111528D01*
X0046426Y0111277D01*
X0046252Y0111021D01*
X0046083Y0110761D01*
X0045921Y0110497D01*
X0045766Y0110229D01*
X0045617Y0109957D01*
X0045475Y0109682D01*
X0045339Y0109403D01*
X0045211Y0109122D01*
X0045089Y0108837D01*
X0044975Y0108549D01*
X0044867Y0108258D01*
X0044767Y0107965D01*
X0044673Y0107670D01*
X0044587Y0107372D01*
X0044509Y0107073D01*
X0044438Y0106771D01*
X0044374Y0106468D01*
X0044317Y0106164D01*
X0044268Y0105858D01*
X0044227Y0105551D01*
X0044193Y0105243D01*
X0044166Y0104934D01*
X0044147Y0104625D01*
X0044136Y0104316D01*
X0044132Y0104006D01*
X0044136Y0103696D01*
X0044147Y0103387D01*
X0044166Y0103078D01*
X0044193Y0102769D01*
X0044227Y0102461D01*
X0044268Y0102154D01*
X0044317Y0101848D01*
X0044374Y0101544D01*
X0044438Y0101241D01*
X0044509Y0100939D01*
X0044587Y0100640D01*
X0044673Y0100342D01*
X0044767Y0100047D01*
X0044867Y0099754D01*
X0044975Y0099463D01*
X0045089Y0099175D01*
X0045211Y0098890D01*
X0045339Y0098609D01*
X0045475Y0098330D01*
X0045617Y0098055D01*
X0045766Y0097783D01*
X0045921Y0097515D01*
X0046083Y0097251D01*
X0046252Y0096991D01*
X0046426Y0096735D01*
X0046607Y0096484D01*
X0046794Y0096237D01*
X0046987Y0095995D01*
X0047186Y0095757D01*
X0047390Y0095524D01*
X0047601Y0095297D01*
X0047816Y0095075D01*
X0048037Y0094858D01*
X0048264Y0094646D01*
X0048495Y0094440D01*
X0048731Y0094240D01*
X0048973Y0094046D01*
X0049218Y0093857D01*
X0049469Y0093675D01*
X0049724Y0093499D01*
X0049983Y0093329D01*
X0050246Y0093165D01*
X0050513Y0093008D01*
X0050784Y0092858D01*
X0051058Y0092714D01*
X0051336Y0092577D01*
X0051617Y0092447D01*
X0051901Y0092324D01*
X0052188Y0092207D01*
X0052478Y0092098D01*
X0052770Y0091996D01*
X0053065Y0091901D01*
X0053362Y0091813D01*
X0053661Y0091733D01*
X0053962Y0091660D01*
X0054265Y0091594D01*
X0054569Y0091536D01*
X0054875Y0091485D01*
X0055182Y0091442D01*
X0055489Y0091406D01*
X0055798Y0091378D01*
X0056107Y0091357D01*
X0056416Y0091344D01*
X0056726Y0091338D01*
X0057036Y0091340D01*
X0057345Y0091350D01*
X0057655Y0091367D01*
X0057963Y0091392D01*
X0058271Y0091424D01*
X0058579Y0091463D01*
X0058885Y0091511D01*
X0059190Y0091565D01*
X0059493Y0091628D01*
X0059795Y0091697D01*
X0060095Y0091774D01*
X0060393Y0091858D01*
X0060689Y0091950D01*
X0060983Y0092048D01*
X0061274Y0092154D01*
X0061562Y0092267D01*
X0061848Y0092387D01*
X0062130Y0092514D01*
X0062410Y0092648D01*
X0062686Y0092788D01*
X0062958Y0092936D01*
X0063227Y0093089D01*
X0063492Y0093250D01*
X0063753Y0093417D01*
X0064010Y0093590D01*
X0064262Y0093769D01*
X0064511Y0093955D01*
X0064754Y0094146D01*
X0064993Y0094344D01*
X0065226Y0094547D01*
X0065455Y0094756D01*
X0065679Y0094970D01*
X0065897Y0095190D01*
X0066110Y0095415D01*
X0066317Y0095645D01*
X0066519Y0095880D01*
X0066714Y0096120D01*
X0066904Y0096365D01*
X0066829Y0096422D01*
X0066641Y0096179D01*
X0066446Y0095940D01*
X0066246Y0095707D01*
X0066041Y0095479D01*
X0065829Y0095255D01*
X0065613Y0095037D01*
X0065391Y0094824D01*
X0065164Y0094617D01*
X0064932Y0094415D01*
X0064695Y0094219D01*
X0064453Y0094029D01*
X0064207Y0093845D01*
X0063956Y0093667D01*
X0063701Y0093495D01*
X0063442Y0093330D01*
X0063179Y0093170D01*
X0062912Y0093018D01*
X0062642Y0092871D01*
X0062368Y0092732D01*
X0062091Y0092599D01*
X0061810Y0092473D01*
X0061527Y0092354D01*
X0061240Y0092242D01*
X0060951Y0092137D01*
X0060660Y0092039D01*
X0060366Y0091948D01*
X0060070Y0091865D01*
X0059773Y0091788D01*
X0059473Y0091719D01*
X0059172Y0091658D01*
X0058869Y0091603D01*
X0058565Y0091557D01*
X0058260Y0091517D01*
X0057955Y0091485D01*
X0057648Y0091461D01*
X0057341Y0091444D01*
X0057034Y0091434D01*
X0056726Y0091432D01*
X0056419Y0091438D01*
X0056112Y0091451D01*
X0055805Y0091471D01*
X0055499Y0091500D01*
X0055193Y0091535D01*
X0054889Y0091578D01*
X0054586Y0091629D01*
X0054284Y0091686D01*
X0053983Y0091752D01*
X0053684Y0091824D01*
X0053388Y0091904D01*
X0053093Y0091991D01*
X0052800Y0092085D01*
X0052510Y0092187D01*
X0052222Y0092295D01*
X0051937Y0092410D01*
X0051655Y0092533D01*
X0051376Y0092662D01*
X0051100Y0092798D01*
X0050828Y0092941D01*
X0050559Y0093090D01*
X0050294Y0093246D01*
X0050033Y0093408D01*
X0049776Y0093577D01*
X0049523Y0093752D01*
X0049275Y0093933D01*
X0049031Y0094120D01*
X0048791Y0094313D01*
X0048557Y0094511D01*
X0048327Y0094716D01*
X0048102Y0094926D01*
X0047883Y0095141D01*
X0047669Y0095362D01*
X0047460Y0095587D01*
X0047257Y0095818D01*
X0047060Y0096054D01*
X0046868Y0096295D01*
X0046683Y0096540D01*
X0046503Y0096789D01*
X0046330Y0097043D01*
X0046163Y0097301D01*
X0046002Y0097563D01*
X0045848Y0097829D01*
X0045700Y0098099D01*
X0045559Y0098372D01*
X0045424Y0098649D01*
X0045297Y0098928D01*
X0045176Y0099211D01*
X0045062Y0099497D01*
X0044956Y0099785D01*
X0044856Y0100076D01*
X0044763Y0100369D01*
X0044678Y0100665D01*
X0044600Y0100962D01*
X0044529Y0101261D01*
X0044466Y0101562D01*
X0044410Y0101864D01*
X0044361Y0102168D01*
X0044320Y0102473D01*
X0044286Y0102778D01*
X0044260Y0103084D01*
X0044241Y0103391D01*
X0044230Y0103699D01*
X0044226Y0104006D01*
X0044230Y0104313D01*
X0044241Y0104621D01*
X0044260Y0104928D01*
X0044286Y0105234D01*
X0044320Y0105539D01*
X0044361Y0105844D01*
X0044410Y0106148D01*
X0044466Y0106450D01*
X0044529Y0106751D01*
X0044600Y0107050D01*
X0044678Y0107347D01*
X0044763Y0107643D01*
X0044856Y0107936D01*
X0044956Y0108227D01*
X0045062Y0108515D01*
X0045176Y0108801D01*
X0045297Y0109084D01*
X0045424Y0109363D01*
X0045559Y0109640D01*
X0045700Y0109913D01*
X0045848Y0110183D01*
X0046002Y0110449D01*
X0046163Y0110711D01*
X0046330Y0110969D01*
X0046503Y0111223D01*
X0046683Y0111472D01*
X0046868Y0111717D01*
X0047060Y0111958D01*
X0047257Y0112194D01*
X0047460Y0112425D01*
X0047669Y0112650D01*
X0047883Y0112871D01*
X0048102Y0113086D01*
X0048327Y0113296D01*
X0048557Y0113501D01*
X0048791Y0113699D01*
X0049031Y0113892D01*
X0049275Y0114079D01*
X0049523Y0114260D01*
X0049776Y0114435D01*
X0050033Y0114604D01*
X0050294Y0114766D01*
X0050559Y0114922D01*
X0050828Y0115071D01*
X0051100Y0115214D01*
X0051376Y0115350D01*
X0051655Y0115479D01*
X0051937Y0115602D01*
X0052222Y0115717D01*
X0052510Y0115825D01*
X0052800Y0115927D01*
X0053093Y0116021D01*
X0053388Y0116108D01*
X0053684Y0116188D01*
X0053983Y0116260D01*
X0054284Y0116326D01*
X0054586Y0116383D01*
X0054889Y0116434D01*
X0055193Y0116477D01*
X0055499Y0116512D01*
X0055805Y0116541D01*
X0056112Y0116561D01*
X0056419Y0116574D01*
X0056726Y0116580D01*
X0057034Y0116578D01*
X0057341Y0116568D01*
X0057648Y0116551D01*
X0057955Y0116527D01*
X0058260Y0116495D01*
X0058565Y0116455D01*
X0058869Y0116409D01*
X0059172Y0116354D01*
X0059473Y0116293D01*
X0059773Y0116224D01*
X0060070Y0116147D01*
X0060366Y0116064D01*
X0060660Y0115973D01*
X0060951Y0115875D01*
X0061240Y0115770D01*
X0061527Y0115658D01*
X0061810Y0115539D01*
X0062091Y0115413D01*
X0062368Y0115280D01*
X0062642Y0115141D01*
X0062912Y0114994D01*
X0063179Y0114842D01*
X0063442Y0114682D01*
X0063701Y0114517D01*
X0063956Y0114345D01*
X0064207Y0114167D01*
X0064453Y0113983D01*
X0064695Y0113793D01*
X0064932Y0113597D01*
X0065164Y0113395D01*
X0065391Y0113188D01*
X0065613Y0112975D01*
X0065829Y0112757D01*
X0066041Y0112533D01*
X0066246Y0112305D01*
X0066446Y0112072D01*
X0066641Y0111833D01*
X0066829Y0111590D01*
X0066754Y0111534D01*
X0066567Y0111775D01*
X0066374Y0112012D01*
X0066175Y0112243D01*
X0065971Y0112470D01*
X0065762Y0112692D01*
X0065547Y0112908D01*
X0065326Y0113119D01*
X0065101Y0113325D01*
X0064871Y0113525D01*
X0064635Y0113720D01*
X0064396Y0113908D01*
X0064151Y0114091D01*
X0063902Y0114268D01*
X0063649Y0114438D01*
X0063392Y0114603D01*
X0063131Y0114761D01*
X0062866Y0114912D01*
X0062598Y0115057D01*
X0062326Y0115196D01*
X0062051Y0115328D01*
X0061772Y0115453D01*
X0061491Y0115571D01*
X0061207Y0115682D01*
X0060920Y0115786D01*
X0060631Y0115884D01*
X0060339Y0115974D01*
X0060046Y0116057D01*
X0059750Y0116132D01*
X0059453Y0116201D01*
X0059154Y0116262D01*
X0058853Y0116316D01*
X0058552Y0116362D01*
X0058249Y0116402D01*
X0057946Y0116433D01*
X0057641Y0116458D01*
X0057337Y0116474D01*
X0057032Y0116484D01*
X0056727Y0116486D01*
X0056422Y0116480D01*
X0056117Y0116467D01*
X0055812Y0116447D01*
X0055508Y0116419D01*
X0055205Y0116384D01*
X0054903Y0116341D01*
X0054602Y0116291D01*
X0054302Y0116234D01*
X0054004Y0116169D01*
X0053708Y0116097D01*
X0053413Y0116018D01*
X0053120Y0115931D01*
X0052830Y0115838D01*
X0052542Y0115737D01*
X0052256Y0115629D01*
X0051973Y0115515D01*
X0051693Y0115393D01*
X0051416Y0115265D01*
X0051143Y0115130D01*
X0050873Y0114989D01*
X0050606Y0114840D01*
X0050343Y0114686D01*
X0050084Y0114525D01*
X0049828Y0114357D01*
X0049577Y0114184D01*
X0049331Y0114004D01*
X0049089Y0113818D01*
X0048851Y0113627D01*
X0048618Y0113430D01*
X0048390Y0113227D01*
X0048167Y0113018D01*
X0047949Y0112805D01*
X0047737Y0112586D01*
X0047530Y0112362D01*
X0047328Y0112132D01*
X0047132Y0111898D01*
X0046942Y0111660D01*
X0046758Y0111416D01*
X0046580Y0111169D01*
X0046408Y0110917D01*
X0046242Y0110660D01*
X0046083Y0110400D01*
X0045929Y0110136D01*
X0045783Y0109869D01*
X0045643Y0109598D01*
X0045509Y0109323D01*
X0045383Y0109046D01*
X0045263Y0108765D01*
X0045150Y0108481D01*
X0045044Y0108195D01*
X0044945Y0107907D01*
X0044853Y0107616D01*
X0044769Y0107322D01*
X0044691Y0107027D01*
X0044621Y0106730D01*
X0044558Y0106432D01*
X0044502Y0106132D01*
X0044454Y0105830D01*
X0044413Y0105528D01*
X0044380Y0105225D01*
X0044354Y0104921D01*
X0044335Y0104616D01*
X0044324Y0104311D01*
X0044320Y0104006D01*
X0044324Y0103701D01*
X0044335Y0103396D01*
X0044354Y0103091D01*
X0044380Y0102787D01*
X0044413Y0102484D01*
X0044454Y0102182D01*
X0044502Y0101880D01*
X0044558Y0101580D01*
X0044621Y0101282D01*
X0044691Y0100985D01*
X0044769Y0100690D01*
X0044853Y0100396D01*
X0044945Y0100105D01*
X0045044Y0099817D01*
X0045150Y0099531D01*
X0045263Y0099247D01*
X0045383Y0098966D01*
X0045509Y0098689D01*
X0045643Y0098414D01*
X0045783Y0098143D01*
X0045929Y0097876D01*
X0046083Y0097612D01*
X0046242Y0097352D01*
X0046408Y0097095D01*
X0046580Y0096843D01*
X0046758Y0096596D01*
X0046942Y0096352D01*
X0047132Y0096114D01*
X0047328Y0095880D01*
X0047530Y0095650D01*
X0047737Y0095426D01*
X0047949Y0095207D01*
X0048167Y0094994D01*
X0048390Y0094785D01*
X0048618Y0094582D01*
X0048851Y0094385D01*
X0049089Y0094194D01*
X0049331Y0094008D01*
X0049577Y0093828D01*
X0049828Y0093655D01*
X0050084Y0093487D01*
X0050343Y0093326D01*
X0050606Y0093172D01*
X0050873Y0093023D01*
X0051143Y0092882D01*
X0051416Y0092747D01*
X0051693Y0092619D01*
X0051973Y0092497D01*
X0052256Y0092383D01*
X0052542Y0092275D01*
X0052830Y0092174D01*
X0053120Y0092081D01*
X0053413Y0091994D01*
X0053708Y0091915D01*
X0054004Y0091843D01*
X0054302Y0091778D01*
X0054602Y0091721D01*
X0054903Y0091671D01*
X0055205Y0091628D01*
X0055508Y0091593D01*
X0055812Y0091565D01*
X0056117Y0091545D01*
X0056422Y0091532D01*
X0056727Y0091526D01*
X0057032Y0091528D01*
X0057337Y0091538D01*
X0057641Y0091554D01*
X0057946Y0091579D01*
X0058249Y0091610D01*
X0058552Y0091650D01*
X0058853Y0091696D01*
X0059154Y0091750D01*
X0059453Y0091811D01*
X0059750Y0091880D01*
X0060046Y0091955D01*
X0060339Y0092038D01*
X0060631Y0092128D01*
X0060920Y0092226D01*
X0061207Y0092330D01*
X0061491Y0092441D01*
X0061772Y0092559D01*
X0062051Y0092684D01*
X0062326Y0092816D01*
X0062598Y0092955D01*
X0062866Y0093100D01*
X0063131Y0093251D01*
X0063392Y0093409D01*
X0063649Y0093574D01*
X0063902Y0093744D01*
X0064151Y0093921D01*
X0064396Y0094104D01*
X0064635Y0094292D01*
X0064871Y0094487D01*
X0065101Y0094687D01*
X0065326Y0094893D01*
X0065547Y0095104D01*
X0065762Y0095320D01*
X0065971Y0095542D01*
X0066175Y0095769D01*
X0066374Y0096000D01*
X0066567Y0096237D01*
X0066754Y0096478D01*
X0066679Y0096534D01*
X0066493Y0096295D01*
X0066302Y0096060D01*
X0066105Y0095831D01*
X0065902Y0095606D01*
X0065694Y0095385D01*
X0065480Y0095171D01*
X0065262Y0094961D01*
X0065038Y0094757D01*
X0064810Y0094558D01*
X0064576Y0094365D01*
X0064338Y0094178D01*
X0064096Y0093997D01*
X0063849Y0093821D01*
X0063598Y0093652D01*
X0063342Y0093489D01*
X0063083Y0093332D01*
X0062820Y0093182D01*
X0062554Y0093038D01*
X0062284Y0092900D01*
X0062011Y0092769D01*
X0061735Y0092645D01*
X0061455Y0092528D01*
X0061173Y0092418D01*
X0060889Y0092314D01*
X0060602Y0092218D01*
X0060312Y0092128D01*
X0060021Y0092046D01*
X0059728Y0091971D01*
X0059432Y0091903D01*
X0059136Y0091842D01*
X0058838Y0091789D01*
X0058538Y0091743D01*
X0058238Y0091704D01*
X0057937Y0091672D01*
X0057635Y0091648D01*
X0057332Y0091631D01*
X0057030Y0091622D01*
X0056727Y0091620D01*
X0056424Y0091626D01*
X0056122Y0091639D01*
X0055819Y0091659D01*
X0055518Y0091687D01*
X0055217Y0091722D01*
X0054917Y0091764D01*
X0054618Y0091814D01*
X0054321Y0091871D01*
X0054025Y0091935D01*
X0053731Y0092006D01*
X0053438Y0092085D01*
X0053148Y0092171D01*
X0052859Y0092264D01*
X0052574Y0092363D01*
X0052290Y0092470D01*
X0052010Y0092584D01*
X0051732Y0092704D01*
X0051457Y0092832D01*
X0051185Y0092966D01*
X0050917Y0093106D01*
X0050652Y0093253D01*
X0050391Y0093407D01*
X0050134Y0093567D01*
X0049881Y0093733D01*
X0049632Y0093905D01*
X0049387Y0094083D01*
X0049146Y0094268D01*
X0048911Y0094458D01*
X0048680Y0094653D01*
X0048453Y0094855D01*
X0048232Y0095061D01*
X0048016Y0095274D01*
X0047805Y0095491D01*
X0047600Y0095713D01*
X0047400Y0095941D01*
X0047205Y0096173D01*
X0047017Y0096410D01*
X0046834Y0096652D01*
X0046657Y0096897D01*
X0046486Y0097148D01*
X0046322Y0097402D01*
X0046163Y0097660D01*
X0046011Y0097922D01*
X0045866Y0098187D01*
X0045727Y0098456D01*
X0045594Y0098729D01*
X0045469Y0099004D01*
X0045350Y0099283D01*
X0045238Y0099564D01*
X0045133Y0099848D01*
X0045034Y0100135D01*
X0044943Y0100424D01*
X0044859Y0100715D01*
X0044782Y0101008D01*
X0044713Y0101302D01*
X0044650Y0101599D01*
X0044595Y0101896D01*
X0044547Y0102195D01*
X0044506Y0102495D01*
X0044473Y0102797D01*
X0044447Y0103098D01*
X0044429Y0103401D01*
X0044418Y0103703D01*
X0044414Y0104006D01*
X0044418Y0104309D01*
X0044429Y0104611D01*
X0044447Y0104914D01*
X0044473Y0105215D01*
X0044506Y0105517D01*
X0044547Y0105817D01*
X0044595Y0106116D01*
X0044650Y0106413D01*
X0044713Y0106710D01*
X0044782Y0107004D01*
X0044859Y0107297D01*
X0044943Y0107588D01*
X0045034Y0107877D01*
X0045133Y0108164D01*
X0045238Y0108448D01*
X0045350Y0108729D01*
X0045469Y0109008D01*
X0045594Y0109283D01*
X0045727Y0109556D01*
X0045866Y0109825D01*
X0046011Y0110090D01*
X0046163Y0110352D01*
X0046322Y0110610D01*
X0046486Y0110864D01*
X0046657Y0111115D01*
X0046834Y0111360D01*
X0047017Y0111602D01*
X0047205Y0111839D01*
X0047400Y0112071D01*
X0047600Y0112299D01*
X0047805Y0112521D01*
X0048016Y0112738D01*
X0048232Y0112951D01*
X0048453Y0113157D01*
X0048680Y0113359D01*
X0048911Y0113554D01*
X0049146Y0113744D01*
X0049387Y0113929D01*
X0049632Y0114107D01*
X0049881Y0114279D01*
X0050134Y0114445D01*
X0050391Y0114605D01*
X0050652Y0114759D01*
X0050917Y0114906D01*
X0051185Y0115046D01*
X0051457Y0115180D01*
X0051732Y0115308D01*
X0052010Y0115428D01*
X0052290Y0115542D01*
X0052574Y0115649D01*
X0052859Y0115748D01*
X0053148Y0115841D01*
X0053438Y0115927D01*
X0053731Y0116006D01*
X0054025Y0116077D01*
X0054321Y0116141D01*
X0054618Y0116198D01*
X0054917Y0116248D01*
X0055217Y0116290D01*
X0055518Y0116325D01*
X0055819Y0116353D01*
X0056122Y0116373D01*
X0056424Y0116386D01*
X0056727Y0116392D01*
X0057030Y0116390D01*
X0057332Y0116381D01*
X0057635Y0116364D01*
X0057937Y0116340D01*
X0058238Y0116308D01*
X0058538Y0116269D01*
X0058838Y0116223D01*
X0059136Y0116170D01*
X0059432Y0116109D01*
X0059728Y0116041D01*
X0060021Y0115966D01*
X0060312Y0115884D01*
X0060602Y0115794D01*
X0060889Y0115698D01*
X0061173Y0115594D01*
X0061455Y0115484D01*
X0061735Y0115367D01*
X0062011Y0115243D01*
X0062284Y0115112D01*
X0062554Y0114974D01*
X0062820Y0114830D01*
X0063083Y0114680D01*
X0063342Y0114523D01*
X0063598Y0114360D01*
X0063849Y0114191D01*
X0064096Y0114015D01*
X0064338Y0113834D01*
X0064576Y0113647D01*
X0064810Y0113454D01*
X0065038Y0113255D01*
X0065262Y0113051D01*
X0065480Y0112841D01*
X0065694Y0112627D01*
X0065902Y0112406D01*
X0066105Y0112181D01*
X0066302Y0111952D01*
X0066493Y0111717D01*
X0066679Y0111478D01*
X0066604Y0111421D01*
X0066419Y0111659D01*
X0066229Y0111891D01*
X0066034Y0112120D01*
X0065833Y0112343D01*
X0065626Y0112561D01*
X0065414Y0112775D01*
X0065197Y0112983D01*
X0064975Y0113185D01*
X0064748Y0113382D01*
X0064517Y0113574D01*
X0064281Y0113760D01*
X0064040Y0113940D01*
X0063795Y0114114D01*
X0063546Y0114282D01*
X0063292Y0114444D01*
X0063035Y0114599D01*
X0062774Y0114748D01*
X0062510Y0114891D01*
X0062242Y0115028D01*
X0061971Y0115157D01*
X0061697Y0115280D01*
X0061420Y0115397D01*
X0061140Y0115506D01*
X0060857Y0115609D01*
X0060573Y0115705D01*
X0060285Y0115793D01*
X0059996Y0115875D01*
X0059705Y0115950D01*
X0059412Y0116017D01*
X0059118Y0116078D01*
X0058822Y0116131D01*
X0058525Y0116176D01*
X0058227Y0116215D01*
X0057928Y0116246D01*
X0057628Y0116270D01*
X0057328Y0116287D01*
X0057028Y0116296D01*
X0056727Y0116298D01*
X0056427Y0116292D01*
X0056126Y0116280D01*
X0055827Y0116259D01*
X0055527Y0116232D01*
X0055229Y0116197D01*
X0054931Y0116155D01*
X0054635Y0116106D01*
X0054340Y0116049D01*
X0054046Y0115985D01*
X0053754Y0115915D01*
X0053464Y0115837D01*
X0053175Y0115751D01*
X0052889Y0115659D01*
X0052605Y0115560D01*
X0052324Y0115454D01*
X0052046Y0115341D01*
X0051770Y0115222D01*
X0051497Y0115095D01*
X0051228Y0114962D01*
X0050962Y0114823D01*
X0050699Y0114677D01*
X0050440Y0114525D01*
X0050184Y0114366D01*
X0049933Y0114201D01*
X0049686Y0114030D01*
X0049443Y0113853D01*
X0049204Y0113670D01*
X0048970Y0113482D01*
X0048741Y0113288D01*
X0048517Y0113088D01*
X0048297Y0112883D01*
X0048083Y0112672D01*
X0047873Y0112456D01*
X0047669Y0112236D01*
X0047471Y0112010D01*
X0047278Y0111779D01*
X0047091Y0111544D01*
X0046909Y0111305D01*
X0046734Y0111061D01*
X0046564Y0110812D01*
X0046401Y0110560D01*
X0046244Y0110304D01*
X0046093Y0110044D01*
X0045949Y0109780D01*
X0045811Y0109513D01*
X0045679Y0109243D01*
X0045555Y0108970D01*
X0045437Y0108693D01*
X0045326Y0108414D01*
X0045221Y0108132D01*
X0045124Y0107848D01*
X0045033Y0107561D01*
X0044950Y0107272D01*
X0044874Y0106982D01*
X0044804Y0106689D01*
X0044742Y0106395D01*
X0044688Y0106100D01*
X0044640Y0105803D01*
X0044600Y0105505D01*
X0044567Y0105206D01*
X0044541Y0104907D01*
X0044523Y0104607D01*
X0044512Y0104307D01*
X0044508Y0104006D01*
X0044512Y0103705D01*
X0044523Y0103405D01*
X0044541Y0103105D01*
X0044567Y0102806D01*
X0044600Y0102507D01*
X0044640Y0102209D01*
X0044688Y0101912D01*
X0044742Y0101617D01*
X0044804Y0101323D01*
X0044874Y0101030D01*
X0044950Y0100740D01*
X0045033Y0100451D01*
X0045124Y0100164D01*
X0045221Y0099880D01*
X0045326Y0099598D01*
X0045437Y0099319D01*
X0045555Y0099042D01*
X0045679Y0098769D01*
X0045811Y0098499D01*
X0045949Y0098232D01*
X0046093Y0097968D01*
X0046244Y0097708D01*
X0046401Y0097452D01*
X0046564Y0097200D01*
X0046734Y0096951D01*
X0046909Y0096707D01*
X0047091Y0096468D01*
X0047278Y0096233D01*
X0047471Y0096002D01*
X0047669Y0095776D01*
X0047873Y0095556D01*
X0048083Y0095340D01*
X0048297Y0095129D01*
X0048517Y0094924D01*
X0048741Y0094724D01*
X0048970Y0094530D01*
X0049204Y0094342D01*
X0049443Y0094159D01*
X0049686Y0093982D01*
X0049933Y0093811D01*
X0050184Y0093646D01*
X0050440Y0093487D01*
X0050699Y0093335D01*
X0050962Y0093189D01*
X0051228Y0093050D01*
X0051497Y0092917D01*
X0051770Y0092790D01*
X0052046Y0092671D01*
X0052324Y0092558D01*
X0052605Y0092452D01*
X0052889Y0092353D01*
X0053175Y0092261D01*
X0053464Y0092175D01*
X0053754Y0092097D01*
X0054046Y0092027D01*
X0054340Y0091963D01*
X0054635Y0091906D01*
X0054931Y0091857D01*
X0055229Y0091815D01*
X0055527Y0091780D01*
X0055827Y0091753D01*
X0056126Y0091732D01*
X0056427Y0091720D01*
X0056727Y0091714D01*
X0057028Y0091716D01*
X0057328Y0091725D01*
X0057628Y0091742D01*
X0057928Y0091766D01*
X0058227Y0091797D01*
X0058525Y0091836D01*
X0058822Y0091881D01*
X0059118Y0091934D01*
X0059412Y0091995D01*
X0059705Y0092062D01*
X0059996Y0092137D01*
X0060285Y0092219D01*
X0060573Y0092307D01*
X0060857Y0092403D01*
X0061140Y0092506D01*
X0061420Y0092615D01*
X0061697Y0092732D01*
X0061971Y0092855D01*
X0062242Y0092984D01*
X0062510Y0093121D01*
X0062774Y0093264D01*
X0063035Y0093413D01*
X0063292Y0093568D01*
X0063546Y0093730D01*
X0063795Y0093898D01*
X0064040Y0094072D01*
X0064281Y0094252D01*
X0064517Y0094438D01*
X0064748Y0094630D01*
X0064975Y0094827D01*
X0065197Y0095029D01*
X0065414Y0095237D01*
X0065626Y0095451D01*
X0065833Y0095669D01*
X0066034Y0095892D01*
X0066229Y0096121D01*
X0066419Y0096353D01*
X0066604Y0096591D01*
X0066528Y0096647D01*
X0066346Y0096412D01*
X0066157Y0096181D01*
X0065963Y0095954D01*
X0065763Y0095732D01*
X0065558Y0095516D01*
X0065348Y0095304D01*
X0065133Y0095098D01*
X0064913Y0094897D01*
X0064687Y0094701D01*
X0064458Y0094511D01*
X0064223Y0094327D01*
X0063984Y0094148D01*
X0063741Y0093975D01*
X0063494Y0093809D01*
X0063242Y0093648D01*
X0062987Y0093494D01*
X0062728Y0093346D01*
X0062466Y0093204D01*
X0062200Y0093069D01*
X0061931Y0092940D01*
X0061659Y0092818D01*
X0061384Y0092702D01*
X0061106Y0092593D01*
X0060826Y0092492D01*
X0060543Y0092397D01*
X0060258Y0092309D01*
X0059971Y0092228D01*
X0059683Y0092153D01*
X0059392Y0092087D01*
X0059100Y0092027D01*
X0058806Y0091974D01*
X0058511Y0091929D01*
X0058216Y0091890D01*
X0057919Y0091859D01*
X0057622Y0091836D01*
X0057324Y0091819D01*
X0057026Y0091810D01*
X0056728Y0091808D01*
X0056429Y0091814D01*
X0056131Y0091826D01*
X0055834Y0091846D01*
X0055537Y0091874D01*
X0055241Y0091908D01*
X0054945Y0091950D01*
X0054651Y0091999D01*
X0054358Y0092055D01*
X0054067Y0092118D01*
X0053777Y0092189D01*
X0053489Y0092266D01*
X0053203Y0092350D01*
X0052919Y0092442D01*
X0052637Y0092540D01*
X0052358Y0092645D01*
X0052082Y0092757D01*
X0051808Y0092876D01*
X0051538Y0093001D01*
X0051270Y0093133D01*
X0051006Y0093272D01*
X0050745Y0093417D01*
X0050488Y0093568D01*
X0050235Y0093725D01*
X0049986Y0093889D01*
X0049740Y0094059D01*
X0049499Y0094234D01*
X0049262Y0094416D01*
X0049030Y0094603D01*
X0048803Y0094795D01*
X0048580Y0094994D01*
X0048362Y0095197D01*
X0048149Y0095406D01*
X0047941Y0095620D01*
X0047739Y0095840D01*
X0047542Y0096063D01*
X0047351Y0096292D01*
X0047165Y0096526D01*
X0046985Y0096763D01*
X0046811Y0097005D01*
X0046643Y0097252D01*
X0046481Y0097502D01*
X0046325Y0097756D01*
X0046175Y0098014D01*
X0046032Y0098276D01*
X0045895Y0098541D01*
X0045764Y0098809D01*
X0045641Y0099080D01*
X0045524Y0099355D01*
X0045413Y0099632D01*
X0045310Y0099912D01*
X0045213Y0100194D01*
X0045123Y0100478D01*
X0045041Y0100765D01*
X0044965Y0101053D01*
X0044896Y0101343D01*
X0044835Y0101635D01*
X0044780Y0101928D01*
X0044733Y0102223D01*
X0044693Y0102518D01*
X0044660Y0102815D01*
X0044635Y0103112D01*
X0044617Y0103410D01*
X0044606Y0103708D01*
X0044602Y0104006D01*
X0044606Y0104304D01*
X0044617Y0104602D01*
X0044635Y0104900D01*
X0044660Y0105197D01*
X0044693Y0105494D01*
X0044733Y0105789D01*
X0044780Y0106084D01*
X0044835Y0106377D01*
X0044896Y0106669D01*
X0044965Y0106959D01*
X0045041Y0107247D01*
X0045123Y0107534D01*
X0045213Y0107818D01*
X0045310Y0108100D01*
X0045413Y0108380D01*
X0045524Y0108657D01*
X0045641Y0108932D01*
X0045764Y0109203D01*
X0045895Y0109471D01*
X0046032Y0109736D01*
X0046175Y0109998D01*
X0046325Y0110256D01*
X0046481Y0110510D01*
X0046643Y0110760D01*
X0046811Y0111007D01*
X0046985Y0111249D01*
X0047165Y0111486D01*
X0047351Y0111720D01*
X0047542Y0111949D01*
X0047739Y0112172D01*
X0047941Y0112392D01*
X0048149Y0112606D01*
X0048362Y0112815D01*
X0048580Y0113018D01*
X0048803Y0113217D01*
X0049030Y0113409D01*
X0049262Y0113596D01*
X0049499Y0113778D01*
X0049740Y0113953D01*
X0049986Y0114123D01*
X0050235Y0114287D01*
X0050488Y0114444D01*
X0050745Y0114595D01*
X0051006Y0114740D01*
X0051270Y0114879D01*
X0051538Y0115011D01*
X0051808Y0115136D01*
X0052082Y0115255D01*
X0052358Y0115367D01*
X0052637Y0115472D01*
X0052919Y0115570D01*
X0053203Y0115662D01*
X0053489Y0115746D01*
X0053777Y0115823D01*
X0054067Y0115894D01*
X0054358Y0115957D01*
X0054651Y0116013D01*
X0054945Y0116062D01*
X0055241Y0116104D01*
X0055537Y0116138D01*
X0055834Y0116166D01*
X0056131Y0116186D01*
X0056429Y0116198D01*
X0056728Y0116204D01*
X0057026Y0116202D01*
X0057324Y0116193D01*
X0057622Y0116176D01*
X0057919Y0116153D01*
X0058216Y0116122D01*
X0058511Y0116083D01*
X0058806Y0116038D01*
X0059100Y0115985D01*
X0059392Y0115925D01*
X0059683Y0115859D01*
X0059971Y0115784D01*
X0060258Y0115703D01*
X0060543Y0115615D01*
X0060826Y0115520D01*
X0061106Y0115419D01*
X0061384Y0115310D01*
X0061659Y0115194D01*
X0061931Y0115072D01*
X0062200Y0114943D01*
X0062466Y0114808D01*
X0062728Y0114666D01*
X0062987Y0114518D01*
X0063242Y0114364D01*
X0063494Y0114203D01*
X0063741Y0114037D01*
X0063984Y0113864D01*
X0064223Y0113685D01*
X0064458Y0113501D01*
X0064687Y0113311D01*
X0064913Y0113115D01*
X0065133Y0112914D01*
X0065348Y0112708D01*
X0065558Y0112496D01*
X0065763Y0112280D01*
X0065963Y0112058D01*
X0066157Y0111831D01*
X0066346Y0111600D01*
X0066528Y0111365D01*
X0066453Y0111308D01*
X0066272Y0111542D01*
X0066085Y0111771D01*
X0065892Y0111996D01*
X0065694Y0112216D01*
X0065491Y0112431D01*
X0065282Y0112641D01*
X0065068Y0112846D01*
X0064850Y0113045D01*
X0064626Y0113239D01*
X0064398Y0113428D01*
X0064166Y0113611D01*
X0063929Y0113788D01*
X0063687Y0113959D01*
X0063442Y0114125D01*
X0063193Y0114284D01*
X0062939Y0114437D01*
X0062683Y0114584D01*
X0062422Y0114725D01*
X0062158Y0114859D01*
X0061891Y0114987D01*
X0061621Y0115108D01*
X0061349Y0115223D01*
X0061073Y0115331D01*
X0060795Y0115432D01*
X0060514Y0115526D01*
X0060232Y0115613D01*
X0059947Y0115694D01*
X0059660Y0115767D01*
X0059372Y0115834D01*
X0059082Y0115893D01*
X0058790Y0115945D01*
X0058498Y0115990D01*
X0058204Y0116028D01*
X0057910Y0116059D01*
X0057615Y0116083D01*
X0057320Y0116099D01*
X0057024Y0116108D01*
X0056728Y0116110D01*
X0056432Y0116104D01*
X0056136Y0116092D01*
X0055841Y0116072D01*
X0055546Y0116045D01*
X0055252Y0116011D01*
X0054959Y0115969D01*
X0054667Y0115921D01*
X0054377Y0115865D01*
X0054088Y0115802D01*
X0053800Y0115732D01*
X0053514Y0115655D01*
X0053230Y0115572D01*
X0052949Y0115481D01*
X0052669Y0115383D01*
X0052392Y0115279D01*
X0052118Y0115168D01*
X0051847Y0115050D01*
X0051578Y0114926D01*
X0051313Y0114795D01*
X0051051Y0114657D01*
X0050792Y0114514D01*
X0050537Y0114364D01*
X0050285Y0114207D01*
X0050038Y0114045D01*
X0049795Y0113877D01*
X0049555Y0113702D01*
X0049320Y0113522D01*
X0049090Y0113337D01*
X0048864Y0113145D01*
X0048643Y0112949D01*
X0048427Y0112747D01*
X0048216Y0112539D01*
X0048010Y0112327D01*
X0047809Y0112109D01*
X0047613Y0111887D01*
X0047423Y0111660D01*
X0047239Y0111429D01*
X0047061Y0111193D01*
X0046888Y0110953D01*
X0046721Y0110708D01*
X0046560Y0110460D01*
X0046405Y0110207D01*
X0046257Y0109951D01*
X0046115Y0109692D01*
X0045979Y0109429D01*
X0045849Y0109163D01*
X0045727Y0108894D01*
X0045610Y0108621D01*
X0045501Y0108346D01*
X0045398Y0108069D01*
X0045302Y0107789D01*
X0045213Y0107507D01*
X0045131Y0107222D01*
X0045056Y0106936D01*
X0044988Y0106648D01*
X0044927Y0106359D01*
X0044873Y0106068D01*
X0044826Y0105775D01*
X0044786Y0105482D01*
X0044754Y0105188D01*
X0044729Y0104893D01*
X0044710Y0104598D01*
X0044700Y0104302D01*
X0044696Y0104006D01*
X0044700Y0103710D01*
X0044710Y0103414D01*
X0044729Y0103119D01*
X0044754Y0102824D01*
X0044786Y0102530D01*
X0044826Y0102237D01*
X0044873Y0101944D01*
X0044927Y0101653D01*
X0044988Y0101364D01*
X0045056Y0101076D01*
X0045131Y0100790D01*
X0045213Y0100505D01*
X0045302Y0100223D01*
X0045398Y0099943D01*
X0045501Y0099666D01*
X0045610Y0099391D01*
X0045727Y0099118D01*
X0045849Y0098849D01*
X0045979Y0098583D01*
X0046115Y0098320D01*
X0046257Y0098061D01*
X0046405Y0097805D01*
X0046560Y0097552D01*
X0046721Y0097304D01*
X0046888Y0097059D01*
X0047061Y0096819D01*
X0047239Y0096583D01*
X0047423Y0096352D01*
X0047613Y0096125D01*
X0047809Y0095903D01*
X0048010Y0095685D01*
X0048216Y0095473D01*
X0048427Y0095265D01*
X0048643Y0095063D01*
X0048864Y0094867D01*
X0049090Y0094675D01*
X0049320Y0094490D01*
X0049555Y0094310D01*
X0049795Y0094135D01*
X0050038Y0093967D01*
X0050285Y0093805D01*
X0050537Y0093648D01*
X0050792Y0093498D01*
X0051051Y0093355D01*
X0051313Y0093217D01*
X0051578Y0093086D01*
X0051847Y0092962D01*
X0052118Y0092844D01*
X0052392Y0092733D01*
X0052669Y0092629D01*
X0052949Y0092531D01*
X0053230Y0092440D01*
X0053514Y0092357D01*
X0053800Y0092280D01*
X0054088Y0092210D01*
X0054377Y0092147D01*
X0054667Y0092091D01*
X0054959Y0092043D01*
X0055252Y0092001D01*
X0055546Y0091967D01*
X0055841Y0091940D01*
X0056136Y0091920D01*
X0056432Y0091908D01*
X0056728Y0091902D01*
X0057024Y0091904D01*
X0057320Y0091913D01*
X0057615Y0091929D01*
X0057910Y0091953D01*
X0058204Y0091984D01*
X0058498Y0092022D01*
X0058790Y0092067D01*
X0059082Y0092119D01*
X0059372Y0092178D01*
X0059660Y0092245D01*
X0059947Y0092318D01*
X0060232Y0092399D01*
X0060514Y0092486D01*
X0060795Y0092580D01*
X0061073Y0092681D01*
X0061349Y0092789D01*
X0061621Y0092904D01*
X0061891Y0093025D01*
X0062158Y0093153D01*
X0062422Y0093287D01*
X0062683Y0093428D01*
X0062939Y0093575D01*
X0063193Y0093728D01*
X0063442Y0093887D01*
X0063687Y0094053D01*
X0063929Y0094224D01*
X0064166Y0094401D01*
X0064398Y0094584D01*
X0064626Y0094773D01*
X0064850Y0094967D01*
X0065068Y0095166D01*
X0065282Y0095371D01*
X0065491Y0095581D01*
X0065694Y0095796D01*
X0065892Y0096016D01*
X0066085Y0096241D01*
X0066272Y0096470D01*
X0066453Y0096704D01*
D203*
X0046800Y0104006D02*
X0046803Y0104251D01*
X0046812Y0104497D01*
X0046827Y0104742D01*
X0046848Y0104986D01*
X0046875Y0105230D01*
X0046908Y0105473D01*
X0046947Y0105716D01*
X0046992Y0105957D01*
X0047043Y0106197D01*
X0047100Y0106436D01*
X0047162Y0106673D01*
X0047231Y0106909D01*
X0047305Y0107143D01*
X0047385Y0107375D01*
X0047470Y0107605D01*
X0047561Y0107833D01*
X0047658Y0108058D01*
X0047760Y0108282D01*
X0047868Y0108502D01*
X0047981Y0108720D01*
X0048099Y0108935D01*
X0048223Y0109147D01*
X0048351Y0109356D01*
X0048485Y0109562D01*
X0048624Y0109764D01*
X0048768Y0109963D01*
X0048917Y0110158D01*
X0049070Y0110350D01*
X0049228Y0110538D01*
X0049390Y0110722D01*
X0049558Y0110901D01*
X0049729Y0111077D01*
X0049905Y0111248D01*
X0050084Y0111416D01*
X0050268Y0111578D01*
X0050456Y0111736D01*
X0050648Y0111889D01*
X0050843Y0112038D01*
X0051042Y0112182D01*
X0051244Y0112321D01*
X0051450Y0112455D01*
X0051659Y0112583D01*
X0051871Y0112707D01*
X0052086Y0112825D01*
X0052304Y0112938D01*
X0052524Y0113046D01*
X0052748Y0113148D01*
X0052973Y0113245D01*
X0053201Y0113336D01*
X0053431Y0113421D01*
X0053663Y0113501D01*
X0053897Y0113575D01*
X0054133Y0113644D01*
X0054370Y0113706D01*
X0054609Y0113763D01*
X0054849Y0113814D01*
X0055090Y0113859D01*
X0055333Y0113898D01*
X0055576Y0113931D01*
X0055820Y0113958D01*
X0056064Y0113979D01*
X0056309Y0113994D01*
X0056555Y0114003D01*
X0056800Y0114006D01*
X0057045Y0114003D01*
X0057291Y0113994D01*
X0057536Y0113979D01*
X0057780Y0113958D01*
X0058024Y0113931D01*
X0058267Y0113898D01*
X0058510Y0113859D01*
X0058751Y0113814D01*
X0058991Y0113763D01*
X0059230Y0113706D01*
X0059467Y0113644D01*
X0059703Y0113575D01*
X0059937Y0113501D01*
X0060169Y0113421D01*
X0060399Y0113336D01*
X0060627Y0113245D01*
X0060852Y0113148D01*
X0061076Y0113046D01*
X0061296Y0112938D01*
X0061514Y0112825D01*
X0061729Y0112707D01*
X0061941Y0112583D01*
X0062150Y0112455D01*
X0062356Y0112321D01*
X0062558Y0112182D01*
X0062757Y0112038D01*
X0062952Y0111889D01*
X0063144Y0111736D01*
X0063332Y0111578D01*
X0063516Y0111416D01*
X0063695Y0111248D01*
X0063871Y0111077D01*
X0064042Y0110901D01*
X0064210Y0110722D01*
X0064372Y0110538D01*
X0064530Y0110350D01*
X0064683Y0110158D01*
X0064832Y0109963D01*
X0064976Y0109764D01*
X0065115Y0109562D01*
X0065249Y0109356D01*
X0065377Y0109147D01*
X0065501Y0108935D01*
X0065619Y0108720D01*
X0065732Y0108502D01*
X0065840Y0108282D01*
X0065942Y0108058D01*
X0066039Y0107833D01*
X0066130Y0107605D01*
X0066215Y0107375D01*
X0066295Y0107143D01*
X0066369Y0106909D01*
X0066438Y0106673D01*
X0066500Y0106436D01*
X0066557Y0106197D01*
X0066608Y0105957D01*
X0066653Y0105716D01*
X0066692Y0105473D01*
X0066725Y0105230D01*
X0066752Y0104986D01*
X0066773Y0104742D01*
X0066788Y0104497D01*
X0066797Y0104251D01*
X0066800Y0104006D01*
X0066797Y0103761D01*
X0066788Y0103515D01*
X0066773Y0103270D01*
X0066752Y0103026D01*
X0066725Y0102782D01*
X0066692Y0102539D01*
X0066653Y0102296D01*
X0066608Y0102055D01*
X0066557Y0101815D01*
X0066500Y0101576D01*
X0066438Y0101339D01*
X0066369Y0101103D01*
X0066295Y0100869D01*
X0066215Y0100637D01*
X0066130Y0100407D01*
X0066039Y0100179D01*
X0065942Y0099954D01*
X0065840Y0099730D01*
X0065732Y0099510D01*
X0065619Y0099292D01*
X0065501Y0099077D01*
X0065377Y0098865D01*
X0065249Y0098656D01*
X0065115Y0098450D01*
X0064976Y0098248D01*
X0064832Y0098049D01*
X0064683Y0097854D01*
X0064530Y0097662D01*
X0064372Y0097474D01*
X0064210Y0097290D01*
X0064042Y0097111D01*
X0063871Y0096935D01*
X0063695Y0096764D01*
X0063516Y0096596D01*
X0063332Y0096434D01*
X0063144Y0096276D01*
X0062952Y0096123D01*
X0062757Y0095974D01*
X0062558Y0095830D01*
X0062356Y0095691D01*
X0062150Y0095557D01*
X0061941Y0095429D01*
X0061729Y0095305D01*
X0061514Y0095187D01*
X0061296Y0095074D01*
X0061076Y0094966D01*
X0060852Y0094864D01*
X0060627Y0094767D01*
X0060399Y0094676D01*
X0060169Y0094591D01*
X0059937Y0094511D01*
X0059703Y0094437D01*
X0059467Y0094368D01*
X0059230Y0094306D01*
X0058991Y0094249D01*
X0058751Y0094198D01*
X0058510Y0094153D01*
X0058267Y0094114D01*
X0058024Y0094081D01*
X0057780Y0094054D01*
X0057536Y0094033D01*
X0057291Y0094018D01*
X0057045Y0094009D01*
X0056800Y0094006D01*
X0056555Y0094009D01*
X0056309Y0094018D01*
X0056064Y0094033D01*
X0055820Y0094054D01*
X0055576Y0094081D01*
X0055333Y0094114D01*
X0055090Y0094153D01*
X0054849Y0094198D01*
X0054609Y0094249D01*
X0054370Y0094306D01*
X0054133Y0094368D01*
X0053897Y0094437D01*
X0053663Y0094511D01*
X0053431Y0094591D01*
X0053201Y0094676D01*
X0052973Y0094767D01*
X0052748Y0094864D01*
X0052524Y0094966D01*
X0052304Y0095074D01*
X0052086Y0095187D01*
X0051871Y0095305D01*
X0051659Y0095429D01*
X0051450Y0095557D01*
X0051244Y0095691D01*
X0051042Y0095830D01*
X0050843Y0095974D01*
X0050648Y0096123D01*
X0050456Y0096276D01*
X0050268Y0096434D01*
X0050084Y0096596D01*
X0049905Y0096764D01*
X0049729Y0096935D01*
X0049558Y0097111D01*
X0049390Y0097290D01*
X0049228Y0097474D01*
X0049070Y0097662D01*
X0048917Y0097854D01*
X0048768Y0098049D01*
X0048624Y0098248D01*
X0048485Y0098450D01*
X0048351Y0098656D01*
X0048223Y0098865D01*
X0048099Y0099077D01*
X0047981Y0099292D01*
X0047868Y0099510D01*
X0047760Y0099730D01*
X0047658Y0099954D01*
X0047561Y0100179D01*
X0047470Y0100407D01*
X0047385Y0100637D01*
X0047305Y0100869D01*
X0047231Y0101103D01*
X0047162Y0101339D01*
X0047100Y0101576D01*
X0047043Y0101815D01*
X0046992Y0102055D01*
X0046947Y0102296D01*
X0046908Y0102539D01*
X0046875Y0102782D01*
X0046848Y0103026D01*
X0046827Y0103270D01*
X0046812Y0103515D01*
X0046803Y0103761D01*
X0046800Y0104006D01*
D204*
X0080225Y0064031D03*
X0080225Y0063031D03*
X0081625Y0063031D03*
X0081675Y0063131D03*
X0081675Y0063181D03*
X0081675Y0063231D03*
X0081675Y0063281D03*
X0081675Y0063331D03*
X0081675Y0063381D03*
X0081675Y0063431D03*
X0081675Y0063481D03*
X0081675Y0063531D03*
X0081675Y0063581D03*
X0081675Y0063631D03*
X0081675Y0063681D03*
X0081675Y0063731D03*
X0081675Y0063781D03*
X0081675Y0063831D03*
X0081675Y0063881D03*
X0081675Y0063931D03*
X0081625Y0064031D03*
X0082625Y0063881D03*
X0082625Y0063831D03*
X0082625Y0063781D03*
X0082625Y0063731D03*
X0082625Y0063681D03*
X0082625Y0063631D03*
X0082625Y0063581D03*
X0082625Y0063531D03*
X0082625Y0063481D03*
X0082625Y0063431D03*
X0082625Y0063381D03*
X0082625Y0063331D03*
X0082625Y0063281D03*
X0082625Y0063231D03*
X0082625Y0063181D03*
X0082625Y0062331D03*
X0082625Y0062281D03*
X0082625Y0062231D03*
X0082625Y0062181D03*
X0082625Y0062131D03*
X0082625Y0062081D03*
X0082625Y0062031D03*
X0082625Y0061981D03*
X0082625Y0061931D03*
X0082625Y0061881D03*
X0082625Y0061831D03*
X0082625Y0061781D03*
X0082625Y0061731D03*
X0082625Y0061681D03*
X0082625Y0061631D03*
X0082625Y0061581D03*
X0082625Y0061531D03*
X0082625Y0061481D03*
X0082625Y0061431D03*
X0082625Y0061381D03*
X0082625Y0061331D03*
X0082625Y0061281D03*
X0082625Y0061231D03*
X0082625Y0061181D03*
X0082625Y0061131D03*
X0082625Y0061081D03*
X0082625Y0061031D03*
X0082625Y0060981D03*
X0082625Y0060931D03*
X0082625Y0060881D03*
X0082625Y0060831D03*
X0082625Y0060031D03*
X0082625Y0059981D03*
X0082625Y0059931D03*
X0082625Y0059881D03*
X0082625Y0059831D03*
X0082625Y0059781D03*
X0082625Y0059731D03*
X0082625Y0059681D03*
X0082625Y0059631D03*
X0082625Y0059581D03*
X0082625Y0059531D03*
X0082625Y0059481D03*
X0082625Y0059431D03*
X0082625Y0059381D03*
X0082625Y0059331D03*
X0082625Y0059281D03*
X0082625Y0059231D03*
X0082625Y0059181D03*
X0082625Y0059131D03*
X0082625Y0059081D03*
X0082625Y0059031D03*
X0082625Y0058981D03*
X0082625Y0058931D03*
X0082625Y0058881D03*
X0082625Y0058831D03*
X0082625Y0058781D03*
X0082625Y0058731D03*
X0082625Y0058681D03*
X0082625Y0058631D03*
X0082625Y0058581D03*
X0082625Y0058531D03*
X0082625Y0058481D03*
X0082625Y0058431D03*
X0082625Y0058381D03*
X0084075Y0058381D03*
X0084075Y0058431D03*
X0084075Y0058481D03*
X0084075Y0058531D03*
X0084075Y0058581D03*
X0084075Y0058631D03*
X0084075Y0058681D03*
X0084075Y0058731D03*
X0084075Y0058781D03*
X0084075Y0058831D03*
X0084075Y0058881D03*
X0084075Y0058931D03*
X0084075Y0058981D03*
X0084075Y0059031D03*
X0084075Y0059081D03*
X0084075Y0059131D03*
X0084075Y0059181D03*
X0084075Y0059231D03*
X0084075Y0059281D03*
X0084075Y0059331D03*
X0084075Y0059381D03*
X0084075Y0059431D03*
X0084075Y0059481D03*
X0084075Y0059531D03*
X0084075Y0059581D03*
X0084075Y0059631D03*
X0084075Y0059681D03*
X0084075Y0059731D03*
X0084075Y0059781D03*
X0084075Y0059831D03*
X0084075Y0059881D03*
X0084075Y0059931D03*
X0084075Y0059981D03*
X0084075Y0060031D03*
X0084075Y0060081D03*
X0084975Y0059281D03*
X0084975Y0058981D03*
X0086425Y0059031D03*
X0086425Y0059081D03*
X0086425Y0059131D03*
X0086425Y0059181D03*
X0086425Y0059231D03*
X0086425Y0059281D03*
X0086425Y0059331D03*
X0086425Y0059931D03*
X0086425Y0059981D03*
X0086425Y0060031D03*
X0086425Y0060081D03*
X0086425Y0060131D03*
X0086425Y0060181D03*
X0086425Y0060231D03*
X0087475Y0059981D03*
X0087475Y0059931D03*
X0087475Y0059881D03*
X0087475Y0059831D03*
X0087475Y0059781D03*
X0087475Y0059731D03*
X0087475Y0059681D03*
X0087475Y0059631D03*
X0087475Y0059581D03*
X0087475Y0059531D03*
X0087475Y0059481D03*
X0087475Y0059431D03*
X0087475Y0059381D03*
X0087475Y0059331D03*
X0087475Y0059281D03*
X0087475Y0059231D03*
X0087475Y0059181D03*
X0087475Y0059131D03*
X0087475Y0059081D03*
X0087475Y0059031D03*
X0087475Y0058981D03*
X0087475Y0058931D03*
X0087475Y0058881D03*
X0087475Y0058831D03*
X0087475Y0058781D03*
X0087475Y0058731D03*
X0087475Y0058681D03*
X0087475Y0058631D03*
X0087475Y0058581D03*
X0087475Y0058531D03*
X0087475Y0058481D03*
X0087475Y0058431D03*
X0087475Y0058381D03*
X0086425Y0058381D03*
X0087475Y0060781D03*
X0087475Y0060831D03*
X0087475Y0060881D03*
X0089175Y0060031D03*
X0089175Y0059981D03*
X0089175Y0059931D03*
X0089175Y0059881D03*
X0089175Y0059831D03*
X0089175Y0059781D03*
X0089175Y0059731D03*
X0089175Y0059681D03*
X0089175Y0059631D03*
X0089175Y0059581D03*
X0089175Y0059531D03*
X0089175Y0059481D03*
X0089175Y0059431D03*
X0089175Y0059381D03*
X0089175Y0059331D03*
X0089175Y0059281D03*
X0089175Y0059231D03*
X0090625Y0059231D03*
X0090625Y0059281D03*
X0090625Y0059331D03*
X0090625Y0059381D03*
X0090625Y0059431D03*
X0090625Y0059481D03*
X0090625Y0059531D03*
X0090625Y0059581D03*
X0090625Y0059631D03*
X0090625Y0059681D03*
X0090625Y0059731D03*
X0090625Y0059781D03*
X0090625Y0059831D03*
X0090625Y0059881D03*
X0090625Y0059931D03*
X0090625Y0059981D03*
X0090625Y0060031D03*
X0090625Y0060831D03*
X0090625Y0060881D03*
X0090625Y0060931D03*
X0090625Y0060981D03*
X0090625Y0061031D03*
X0090625Y0061081D03*
X0090625Y0061131D03*
X0090625Y0061181D03*
X0090625Y0061231D03*
X0090625Y0061281D03*
X0090625Y0061331D03*
X0090625Y0061381D03*
X0090625Y0061431D03*
X0090625Y0061481D03*
X0090625Y0061531D03*
X0090625Y0061581D03*
X0090625Y0061631D03*
X0090625Y0061681D03*
X0090625Y0061731D03*
X0090625Y0061781D03*
X0090625Y0061831D03*
X0090625Y0061881D03*
X0091575Y0062231D03*
X0090875Y0062881D03*
X0090875Y0063981D03*
X0090875Y0064031D03*
X0090875Y0064081D03*
X0090875Y0064131D03*
X0090925Y0064181D03*
X0091575Y0064831D03*
X0093125Y0063931D03*
X0093125Y0063881D03*
X0093125Y0063831D03*
X0093125Y0063781D03*
X0093125Y0063731D03*
X0093125Y0063681D03*
X0093125Y0063631D03*
X0093125Y0063581D03*
X0093125Y0063531D03*
X0093125Y0063481D03*
X0093125Y0063431D03*
X0093125Y0063381D03*
X0093125Y0063331D03*
X0093125Y0063281D03*
X0093125Y0063231D03*
X0093125Y0063181D03*
X0093125Y0063131D03*
X0093175Y0063081D03*
X0093175Y0063031D03*
X0092325Y0063031D03*
X0092325Y0063081D03*
X0092325Y0063131D03*
X0092325Y0062981D03*
X0093175Y0063981D03*
X0093175Y0064031D03*
X0094625Y0063981D03*
X0094625Y0063931D03*
X0094625Y0063881D03*
X0094625Y0063831D03*
X0094675Y0063631D03*
X0094675Y0063581D03*
X0094675Y0063531D03*
X0094675Y0063481D03*
X0094675Y0063431D03*
X0094625Y0063231D03*
X0094625Y0063181D03*
X0094625Y0063131D03*
X0094625Y0063081D03*
X0095575Y0063181D03*
X0095575Y0063231D03*
X0095575Y0063281D03*
X0095575Y0063331D03*
X0095575Y0063381D03*
X0095575Y0063431D03*
X0095575Y0063481D03*
X0095575Y0063531D03*
X0095575Y0063581D03*
X0095575Y0063631D03*
X0095575Y0063681D03*
X0095575Y0063731D03*
X0095575Y0063781D03*
X0095575Y0063831D03*
X0095575Y0063881D03*
X0095575Y0063931D03*
X0095575Y0063981D03*
X0095575Y0064031D03*
X0095575Y0064081D03*
X0095575Y0064131D03*
X0095575Y0064181D03*
X0095575Y0064231D03*
X0095575Y0064281D03*
X0095575Y0064331D03*
X0095575Y0064381D03*
X0095575Y0064431D03*
X0095575Y0064481D03*
X0095575Y0064531D03*
X0095575Y0064581D03*
X0095575Y0064631D03*
X0095575Y0064681D03*
X0095575Y0064731D03*
X0095575Y0064781D03*
X0097075Y0064781D03*
X0097075Y0064731D03*
X0097075Y0064681D03*
X0097075Y0064631D03*
X0097075Y0064581D03*
X0097075Y0064531D03*
X0097075Y0064481D03*
X0097075Y0064431D03*
X0097075Y0064381D03*
X0097075Y0064331D03*
X0097075Y0064281D03*
X0097075Y0064231D03*
X0097075Y0064181D03*
X0097075Y0064131D03*
X0097075Y0064081D03*
X0097075Y0064031D03*
X0097075Y0063981D03*
X0097075Y0063931D03*
X0097075Y0063881D03*
X0097075Y0063831D03*
X0097075Y0063781D03*
X0097075Y0063731D03*
X0097075Y0063681D03*
X0097075Y0063631D03*
X0097075Y0063581D03*
X0097075Y0063531D03*
X0097075Y0063481D03*
X0097075Y0063431D03*
X0097075Y0063381D03*
X0097075Y0063331D03*
X0097075Y0063281D03*
X0097075Y0063231D03*
X0097075Y0063181D03*
X0097075Y0062331D03*
X0097075Y0062281D03*
X0098125Y0062281D03*
X0098125Y0062331D03*
X0098125Y0062381D03*
X0098125Y0062431D03*
X0098125Y0062481D03*
X0098125Y0062531D03*
X0098125Y0062581D03*
X0098125Y0062631D03*
X0098125Y0062681D03*
X0098125Y0062731D03*
X0098125Y0062781D03*
X0098125Y0062831D03*
X0098125Y0062881D03*
X0098125Y0062931D03*
X0098125Y0062981D03*
X0098125Y0063031D03*
X0098125Y0063081D03*
X0098125Y0063131D03*
X0098125Y0063181D03*
X0098125Y0063231D03*
X0098125Y0063281D03*
X0098125Y0063331D03*
X0098125Y0063381D03*
X0098125Y0063431D03*
X0098125Y0063481D03*
X0098125Y0063531D03*
X0098125Y0063581D03*
X0098125Y0063631D03*
X0098125Y0063681D03*
X0098125Y0063731D03*
X0098125Y0063781D03*
X0098125Y0063831D03*
X0098125Y0063881D03*
X0098125Y0063931D03*
X0098125Y0063981D03*
X0098125Y0064731D03*
X0098125Y0064781D03*
X0099775Y0063931D03*
X0099775Y0063881D03*
X0099725Y0063831D03*
X0099725Y0063781D03*
X0099725Y0063731D03*
X0099725Y0063681D03*
X0099725Y0063631D03*
X0099725Y0063581D03*
X0099725Y0063531D03*
X0099725Y0063481D03*
X0099725Y0063431D03*
X0099725Y0063381D03*
X0099725Y0063331D03*
X0099725Y0063281D03*
X0099725Y0063231D03*
X0099775Y0063181D03*
X0099775Y0063131D03*
X0101875Y0063181D03*
X0101875Y0063231D03*
X0101925Y0063081D03*
X0101925Y0063031D03*
X0101875Y0063831D03*
X0101875Y0063881D03*
X0101925Y0064031D03*
X0101975Y0064131D03*
X0103325Y0064081D03*
X0103325Y0064031D03*
X0103175Y0062831D03*
X0100675Y0060081D03*
X0100675Y0060031D03*
X0100675Y0059981D03*
X0100675Y0059931D03*
X0099275Y0060181D03*
X0099225Y0060131D03*
X0099225Y0060081D03*
X0099175Y0059331D03*
X0099225Y0059181D03*
X0099225Y0059131D03*
X0099275Y0059081D03*
X0097475Y0059081D03*
X0097475Y0059131D03*
X0097475Y0059181D03*
X0097475Y0059231D03*
X0097475Y0059281D03*
X0097475Y0059331D03*
X0097475Y0059381D03*
X0097475Y0059431D03*
X0097475Y0059481D03*
X0097475Y0059531D03*
X0097475Y0059581D03*
X0097475Y0059631D03*
X0097475Y0059681D03*
X0097475Y0059731D03*
X0097475Y0059781D03*
X0097475Y0059831D03*
X0097475Y0059881D03*
X0097475Y0059931D03*
X0097475Y0060781D03*
X0097475Y0060831D03*
X0097475Y0060881D03*
X0096425Y0060231D03*
X0096425Y0060181D03*
X0096425Y0060131D03*
X0096425Y0059931D03*
X0096425Y0059231D03*
X0096425Y0059181D03*
X0096425Y0059131D03*
X0096425Y0059081D03*
X0096425Y0059031D03*
X0097475Y0059031D03*
X0097475Y0058981D03*
X0097475Y0058931D03*
X0097475Y0058881D03*
X0097475Y0058831D03*
X0097475Y0058781D03*
X0097475Y0058731D03*
X0097475Y0058681D03*
X0097475Y0058631D03*
X0097475Y0058581D03*
X0097475Y0058531D03*
X0097475Y0058481D03*
X0097475Y0058431D03*
X0097475Y0058381D03*
X0094975Y0058981D03*
X0094975Y0059031D03*
X0094975Y0059281D03*
X0094025Y0059581D03*
X0094075Y0059731D03*
X0094075Y0059781D03*
X0094125Y0059931D03*
X0094175Y0060081D03*
X0094175Y0060131D03*
X0094225Y0060231D03*
X0094225Y0060281D03*
X0094225Y0060331D03*
X0094275Y0060381D03*
X0094275Y0060431D03*
X0094275Y0060481D03*
X0094325Y0060531D03*
X0094325Y0060581D03*
X0094325Y0060631D03*
X0094375Y0060731D03*
X0094375Y0060781D03*
X0093675Y0058481D03*
X0092175Y0058481D03*
X0092175Y0058531D03*
X0091775Y0059681D03*
X0091725Y0059831D03*
X0091675Y0059981D03*
X0091675Y0060031D03*
X0091625Y0060131D03*
X0091625Y0060181D03*
X0091625Y0060231D03*
X0091575Y0060281D03*
X0091575Y0060331D03*
X0091575Y0060381D03*
X0091525Y0060431D03*
X0091525Y0060481D03*
X0091525Y0060531D03*
X0091475Y0060631D03*
X0091475Y0060681D03*
X0091475Y0060731D03*
X0091425Y0060831D03*
X0091425Y0060881D03*
X0092925Y0060631D03*
X0090625Y0058431D03*
X0090625Y0058381D03*
X0088875Y0062231D03*
X0088875Y0062281D03*
X0088875Y0062331D03*
X0088875Y0062381D03*
X0088875Y0062431D03*
X0088875Y0062481D03*
X0088875Y0062531D03*
X0088875Y0062581D03*
X0088875Y0062631D03*
X0088875Y0062681D03*
X0088875Y0062731D03*
X0088875Y0062781D03*
X0088875Y0062831D03*
X0088875Y0062881D03*
X0088875Y0062931D03*
X0088875Y0062981D03*
X0088875Y0063031D03*
X0088875Y0063081D03*
X0088875Y0063131D03*
X0088875Y0063181D03*
X0088875Y0063231D03*
X0088875Y0063281D03*
X0088875Y0063331D03*
X0088875Y0063381D03*
X0088875Y0063431D03*
X0088875Y0063481D03*
X0088875Y0063531D03*
X0088875Y0063581D03*
X0088875Y0063631D03*
X0088875Y0063681D03*
X0088875Y0063731D03*
X0088875Y0063781D03*
X0088875Y0063831D03*
X0088875Y0063881D03*
X0088875Y0063931D03*
X0087425Y0063931D03*
X0087425Y0063981D03*
X0087425Y0063881D03*
X0086475Y0063881D03*
X0086425Y0063931D03*
X0086425Y0063981D03*
X0086425Y0064031D03*
X0086275Y0062831D03*
X0085025Y0062981D03*
X0084975Y0063031D03*
X0084975Y0063081D03*
X0084975Y0063131D03*
X0084975Y0063181D03*
X0084975Y0063831D03*
X0084975Y0063931D03*
X0084975Y0063981D03*
X0085025Y0064081D03*
X0084075Y0063931D03*
X0084075Y0063881D03*
X0084075Y0063831D03*
X0084075Y0063781D03*
X0084075Y0063731D03*
X0084075Y0063681D03*
X0084075Y0063631D03*
X0084075Y0063581D03*
X0084075Y0063481D03*
X0084075Y0063431D03*
X0084075Y0063381D03*
X0084075Y0063331D03*
X0084075Y0063281D03*
X0084075Y0063231D03*
X0084075Y0063181D03*
X0084075Y0063131D03*
X0082625Y0064731D03*
X0082625Y0064781D03*
X0086175Y0066831D03*
X0097375Y0066831D03*
D205*
X0098975Y0064731D03*
X0096175Y0062331D03*
X0095575Y0058381D03*
X0093675Y0058981D03*
X0092925Y0060181D03*
X0092175Y0058981D03*
X0089375Y0058931D03*
X0085575Y0058381D03*
X0085775Y0062281D03*
X0083525Y0062331D03*
X0083525Y0064731D03*
X0088275Y0064731D03*
X0088825Y0067781D03*
X0094725Y0067781D03*
X0100025Y0058381D03*
D206*
X0099400Y0058931D03*
X0099950Y0060881D03*
X0097550Y0060231D03*
X0096350Y0058931D03*
X0093650Y0058781D03*
X0093650Y0058731D03*
X0093650Y0058681D03*
X0092150Y0058731D03*
X0092900Y0060381D03*
X0092900Y0060431D03*
X0090550Y0060231D03*
X0090550Y0058981D03*
X0089750Y0058381D03*
X0089300Y0060281D03*
X0087550Y0060231D03*
X0086350Y0058931D03*
X0086300Y0060331D03*
X0084000Y0060231D03*
X0082700Y0060231D03*
X0082700Y0062931D03*
X0081550Y0062881D03*
X0080300Y0062881D03*
X0080300Y0064181D03*
X0081550Y0064181D03*
X0083500Y0064781D03*
X0085150Y0064231D03*
X0085100Y0062881D03*
X0083950Y0062881D03*
X0086200Y0066881D03*
X0088850Y0067731D03*
X0088750Y0064181D03*
X0091000Y0063881D03*
X0093300Y0062881D03*
X0094500Y0062881D03*
X0094500Y0064181D03*
X0097000Y0062931D03*
X0097350Y0066881D03*
X0094700Y0067731D03*
X0102050Y0064231D03*
X0103200Y0064231D03*
D207*
X0102625Y0064831D03*
X0100575Y0062231D03*
X0097375Y0066781D03*
X0094625Y0067631D03*
X0088925Y0067631D03*
X0086175Y0066781D03*
X0085775Y0062231D03*
X0080925Y0062231D03*
X0080175Y0063431D03*
X0080175Y0063481D03*
X0080175Y0063531D03*
X0080175Y0063581D03*
X0080175Y0063631D03*
X0092525Y0059581D03*
X0092525Y0059531D03*
X0092475Y0059431D03*
X0092575Y0059681D03*
X0092575Y0059731D03*
X0093225Y0059781D03*
X0093225Y0059831D03*
X0093275Y0059631D03*
X0093325Y0059481D03*
X0092925Y0060781D03*
X0092175Y0058381D03*
X0095225Y0060331D03*
D208*
X0095650Y0060931D03*
X0096450Y0060081D03*
X0096450Y0060031D03*
X0096450Y0059981D03*
X0096450Y0059331D03*
X0096450Y0059281D03*
X0096450Y0058381D03*
X0094950Y0059081D03*
X0094950Y0059131D03*
X0094950Y0059181D03*
X0094950Y0059231D03*
X0094000Y0059481D03*
X0094000Y0059531D03*
X0094050Y0059631D03*
X0094050Y0059681D03*
X0094100Y0059831D03*
X0094100Y0059881D03*
X0094150Y0059981D03*
X0094150Y0060031D03*
X0094200Y0060181D03*
X0093250Y0059731D03*
X0093250Y0059681D03*
X0093300Y0059581D03*
X0093300Y0059531D03*
X0092600Y0059781D03*
X0092600Y0059831D03*
X0092550Y0059631D03*
X0092500Y0059481D03*
X0091850Y0059481D03*
X0091850Y0059431D03*
X0091800Y0059531D03*
X0091800Y0059581D03*
X0091800Y0059631D03*
X0091750Y0059731D03*
X0091750Y0059781D03*
X0091700Y0059881D03*
X0091700Y0059931D03*
X0091650Y0060081D03*
X0092900Y0060681D03*
X0092900Y0060731D03*
X0093900Y0062231D03*
X0094650Y0063281D03*
X0094650Y0063331D03*
X0094650Y0063381D03*
X0094650Y0063681D03*
X0094650Y0063731D03*
X0094650Y0063781D03*
X0093900Y0064831D03*
X0092100Y0064231D03*
X0090650Y0061931D03*
X0092150Y0058431D03*
X0093650Y0058431D03*
X0093650Y0058381D03*
X0097050Y0062231D03*
X0098100Y0062231D03*
X0099200Y0060031D03*
X0099200Y0059981D03*
X0099200Y0059931D03*
X0099200Y0059281D03*
X0099200Y0059231D03*
X0100500Y0058931D03*
X0102700Y0062231D03*
X0101900Y0063131D03*
X0101900Y0063931D03*
X0101900Y0063981D03*
X0101100Y0062881D03*
X0100600Y0064831D03*
X0098100Y0064831D03*
X0097050Y0064831D03*
X0095600Y0064831D03*
X0103350Y0063981D03*
X0103350Y0063931D03*
X0103350Y0063881D03*
X0103350Y0063831D03*
X0097350Y0081331D03*
X0086200Y0081331D03*
X0087400Y0064831D03*
X0087400Y0064781D03*
X0087400Y0064731D03*
X0087400Y0063831D03*
X0087400Y0063781D03*
X0087400Y0063731D03*
X0087400Y0063681D03*
X0087400Y0063631D03*
X0087400Y0063581D03*
X0087400Y0063531D03*
X0087400Y0063481D03*
X0087400Y0063431D03*
X0087400Y0063381D03*
X0087400Y0063331D03*
X0087400Y0063281D03*
X0087400Y0063231D03*
X0087400Y0063181D03*
X0087400Y0063131D03*
X0087400Y0063081D03*
X0087400Y0063031D03*
X0087400Y0062981D03*
X0087400Y0062931D03*
X0087400Y0062881D03*
X0087400Y0062831D03*
X0087400Y0062781D03*
X0087400Y0062731D03*
X0087400Y0062681D03*
X0087400Y0062631D03*
X0087400Y0062581D03*
X0087400Y0062531D03*
X0087400Y0062481D03*
X0087400Y0062431D03*
X0087400Y0062381D03*
X0087400Y0062331D03*
X0087400Y0062281D03*
X0087400Y0062231D03*
X0085650Y0060931D03*
X0084950Y0059231D03*
X0084950Y0059181D03*
X0084950Y0059131D03*
X0084950Y0059081D03*
X0084950Y0059031D03*
X0084950Y0063231D03*
X0084950Y0063881D03*
X0085000Y0064031D03*
X0084100Y0063531D03*
X0082600Y0064831D03*
X0080900Y0064831D03*
X0080200Y0063981D03*
X0080200Y0063931D03*
X0080200Y0063881D03*
X0080200Y0063831D03*
X0080200Y0063781D03*
X0080200Y0063731D03*
X0080200Y0063681D03*
X0080200Y0063381D03*
X0080200Y0063331D03*
X0080200Y0063281D03*
X0080200Y0063231D03*
X0080200Y0063181D03*
X0080200Y0063131D03*
X0080200Y0063081D03*
D209*
X0080925Y0062631D03*
X0080925Y0064431D03*
X0083175Y0064681D03*
X0083175Y0062381D03*
X0083175Y0060781D03*
X0085875Y0059781D03*
X0085875Y0058431D03*
X0088025Y0060581D03*
X0090075Y0060781D03*
X0091525Y0062481D03*
X0091675Y0063481D03*
X0091625Y0063531D03*
X0091575Y0063581D03*
X0091525Y0063631D03*
X0091625Y0064581D03*
X0093875Y0064431D03*
X0093875Y0062631D03*
X0096525Y0062381D03*
X0095725Y0060631D03*
X0095875Y0059781D03*
X0095875Y0058431D03*
X0098025Y0060581D03*
X0100025Y0058631D03*
X0100575Y0062581D03*
X0100575Y0064481D03*
X0098675Y0064531D03*
X0098675Y0064681D03*
X0090075Y0058481D03*
X0087975Y0064681D03*
X0085725Y0064431D03*
D210*
X0088800Y0067831D03*
X0091600Y0064781D03*
X0091550Y0062281D03*
X0092900Y0060131D03*
X0092900Y0060081D03*
X0092150Y0059081D03*
X0092150Y0059031D03*
X0093650Y0059031D03*
X0093650Y0059081D03*
X0095700Y0060881D03*
X0099950Y0060831D03*
X0094750Y0067831D03*
X0090450Y0058931D03*
X0089750Y0058431D03*
X0086250Y0081181D03*
X0097300Y0081181D03*
D211*
X0102650Y0064681D03*
X0102700Y0062331D03*
X0100000Y0058431D03*
X0099950Y0060781D03*
X0093650Y0059381D03*
X0092150Y0059381D03*
X0092150Y0059331D03*
X0085700Y0064681D03*
D212*
X0085700Y0064381D03*
X0086300Y0067281D03*
X0088000Y0064631D03*
X0085800Y0062581D03*
X0085700Y0060631D03*
X0085800Y0060381D03*
X0085850Y0058481D03*
X0088050Y0060631D03*
X0090050Y0060731D03*
X0090050Y0058531D03*
X0093900Y0062681D03*
X0093900Y0064381D03*
X0091650Y0064531D03*
X0095700Y0060581D03*
X0095800Y0060381D03*
X0095850Y0059731D03*
X0095850Y0058481D03*
X0098050Y0060631D03*
X0099950Y0060481D03*
X0102700Y0062581D03*
X0102650Y0064381D03*
X0098700Y0064581D03*
X0098700Y0064631D03*
X0097250Y0067281D03*
X0083200Y0064631D03*
X0083200Y0062431D03*
X0083200Y0060731D03*
D213*
X0080925Y0062431D03*
X0080925Y0064631D03*
X0085725Y0064631D03*
X0085775Y0062381D03*
X0091925Y0063281D03*
X0100025Y0058481D03*
X0102625Y0064631D03*
X0097275Y0081031D03*
X0086275Y0081031D03*
D214*
X0086300Y0067331D03*
X0085700Y0064281D03*
X0085700Y0062781D03*
X0085750Y0062731D03*
X0085800Y0062631D03*
X0085700Y0060531D03*
X0085800Y0059681D03*
X0085800Y0058531D03*
X0083250Y0060631D03*
X0083250Y0062531D03*
X0083250Y0064531D03*
X0088050Y0064531D03*
X0091550Y0064331D03*
X0091600Y0064381D03*
X0091650Y0064481D03*
X0093900Y0064331D03*
X0093900Y0062731D03*
X0096450Y0062481D03*
X0095700Y0060531D03*
X0095750Y0060481D03*
X0095800Y0059681D03*
X0095800Y0058581D03*
X0099950Y0060381D03*
X0100000Y0058831D03*
X0100050Y0058731D03*
X0100600Y0062681D03*
X0100500Y0062831D03*
X0100500Y0064231D03*
X0100600Y0064381D03*
X0102650Y0064281D03*
X0102700Y0062681D03*
X0097250Y0067331D03*
X0090000Y0060631D03*
X0090000Y0058631D03*
D215*
X0090600Y0059081D03*
X0090600Y0059131D03*
X0090600Y0059181D03*
X0090600Y0060081D03*
X0090600Y0060131D03*
X0091500Y0060581D03*
X0091450Y0060781D03*
X0092900Y0060581D03*
X0092900Y0060531D03*
X0093650Y0058631D03*
X0093650Y0058581D03*
X0093650Y0058531D03*
X0092150Y0058581D03*
X0094350Y0060681D03*
X0094400Y0060831D03*
X0094400Y0060881D03*
X0096400Y0060281D03*
X0097500Y0060081D03*
X0097500Y0060031D03*
X0097500Y0059981D03*
X0096400Y0058981D03*
X0099300Y0059031D03*
X0099300Y0060231D03*
X0100600Y0060231D03*
X0100650Y0060181D03*
X0100650Y0060131D03*
X0099850Y0062981D03*
X0099800Y0063031D03*
X0099800Y0063081D03*
X0099800Y0063981D03*
X0099800Y0064031D03*
X0099850Y0064081D03*
X0098150Y0064031D03*
X0097050Y0063131D03*
X0097050Y0063081D03*
X0095650Y0063031D03*
X0095650Y0062981D03*
X0095600Y0063081D03*
X0095600Y0063131D03*
X0094600Y0063031D03*
X0094600Y0062981D03*
X0094550Y0062931D03*
X0094600Y0064031D03*
X0094600Y0064081D03*
X0094550Y0064131D03*
X0093200Y0064081D03*
X0093200Y0062981D03*
X0092300Y0062931D03*
X0092300Y0063181D03*
X0090900Y0063931D03*
X0088850Y0063981D03*
X0088850Y0064031D03*
X0087450Y0064031D03*
X0087450Y0064081D03*
X0086450Y0063831D03*
X0086400Y0064081D03*
X0085050Y0064131D03*
X0084050Y0064081D03*
X0084050Y0064031D03*
X0084050Y0063981D03*
X0084050Y0063081D03*
X0084050Y0063031D03*
X0084050Y0062981D03*
X0085050Y0062931D03*
X0082650Y0063031D03*
X0082650Y0063081D03*
X0082650Y0063131D03*
X0082650Y0063931D03*
X0082650Y0063981D03*
X0082650Y0064031D03*
X0081650Y0063981D03*
X0081600Y0064081D03*
X0081650Y0063081D03*
X0081600Y0062981D03*
X0080250Y0062981D03*
X0080250Y0064081D03*
X0082650Y0060131D03*
X0082650Y0060081D03*
X0083500Y0060881D03*
X0084050Y0060131D03*
X0086400Y0060281D03*
X0087500Y0060131D03*
X0087500Y0060081D03*
X0087500Y0060031D03*
X0086400Y0058981D03*
X0089200Y0059081D03*
X0089200Y0059131D03*
X0089200Y0059181D03*
X0089250Y0059031D03*
X0089200Y0060081D03*
X0089200Y0060131D03*
X0089750Y0060881D03*
X0088900Y0067681D03*
X0094650Y0067681D03*
X0101950Y0064081D03*
X0101950Y0062981D03*
X0102000Y0062931D03*
X0103300Y0064131D03*
D216*
X0102625Y0064331D03*
X0102625Y0062781D03*
X0102725Y0062631D03*
X0100575Y0062631D03*
X0099975Y0060431D03*
X0099925Y0058881D03*
X0100025Y0058681D03*
X0098075Y0060681D03*
X0098075Y0060731D03*
X0095775Y0060431D03*
X0095825Y0058531D03*
X0096475Y0062431D03*
X0100575Y0064431D03*
X0091525Y0064281D03*
X0091525Y0062531D03*
X0090025Y0060681D03*
X0090025Y0058581D03*
X0088075Y0060681D03*
X0088075Y0060731D03*
X0085775Y0060431D03*
X0085675Y0060581D03*
X0085825Y0059731D03*
X0083225Y0060681D03*
X0083225Y0062481D03*
X0083225Y0064581D03*
X0080925Y0064381D03*
X0080925Y0064331D03*
X0080925Y0062731D03*
X0080925Y0062681D03*
X0085725Y0064331D03*
X0088025Y0064581D03*
X0086325Y0080831D03*
X0097225Y0080831D03*
D217*
X0093900Y0064581D03*
X0093900Y0062481D03*
X0096000Y0059881D03*
X0098550Y0064231D03*
X0100000Y0058531D03*
X0102700Y0062431D03*
X0102650Y0064581D03*
X0085700Y0064581D03*
X0086000Y0059881D03*
X0080900Y0064581D03*
D218*
X0080925Y0064281D03*
X0080925Y0064231D03*
X0080925Y0062831D03*
X0080925Y0062781D03*
X0083275Y0062581D03*
X0083275Y0060581D03*
X0083275Y0060531D03*
X0085725Y0060481D03*
X0085775Y0059631D03*
X0085775Y0058631D03*
X0085775Y0058581D03*
X0085775Y0062681D03*
X0088075Y0064431D03*
X0088075Y0064481D03*
X0091625Y0064431D03*
X0093875Y0064281D03*
X0093875Y0062781D03*
X0096425Y0062581D03*
X0096425Y0062531D03*
X0095775Y0059631D03*
X0095775Y0059581D03*
X0095775Y0058631D03*
X0100025Y0058781D03*
X0100575Y0062731D03*
X0100525Y0062781D03*
X0100525Y0064281D03*
X0100575Y0064331D03*
X0102675Y0062731D03*
X0089975Y0060581D03*
X0089975Y0060531D03*
X0089975Y0058681D03*
X0083275Y0064481D03*
X0086325Y0080781D03*
X0097225Y0080781D03*
D219*
X0097275Y0067231D03*
X0098625Y0064431D03*
X0098625Y0064381D03*
X0100575Y0064531D03*
X0100575Y0062531D03*
X0102625Y0064481D03*
X0097975Y0060481D03*
X0097975Y0060431D03*
X0095925Y0059831D03*
X0095725Y0060681D03*
X0091775Y0063381D03*
X0091425Y0063731D03*
X0087975Y0060481D03*
X0085925Y0059831D03*
X0085725Y0064481D03*
X0086275Y0067231D03*
X0080925Y0064481D03*
X0080925Y0062581D03*
X0100025Y0058581D03*
D220*
X0099325Y0058981D03*
X0099325Y0060281D03*
X0098375Y0060881D03*
X0097525Y0060181D03*
X0097525Y0060131D03*
X0096175Y0062281D03*
X0095675Y0062931D03*
X0097025Y0062981D03*
X0097025Y0063031D03*
X0098175Y0064081D03*
X0098175Y0064131D03*
X0098975Y0064781D03*
X0099875Y0064131D03*
X0099875Y0062931D03*
X0102025Y0062881D03*
X0102025Y0064181D03*
X0103275Y0064181D03*
X0100575Y0060281D03*
X0095025Y0059331D03*
X0095025Y0058931D03*
X0092925Y0060481D03*
X0092175Y0058681D03*
X0092175Y0058631D03*
X0090575Y0059031D03*
X0090575Y0060181D03*
X0089275Y0060231D03*
X0089225Y0060181D03*
X0088375Y0060881D03*
X0087525Y0060181D03*
X0089275Y0058981D03*
X0092275Y0062881D03*
X0093225Y0062931D03*
X0093225Y0064131D03*
X0093275Y0064181D03*
X0090975Y0064231D03*
X0088825Y0064081D03*
X0088775Y0064131D03*
X0088275Y0064781D03*
X0087475Y0064131D03*
X0086375Y0064131D03*
X0086325Y0064181D03*
X0085075Y0064181D03*
X0084025Y0064131D03*
X0083975Y0064181D03*
X0084025Y0062931D03*
X0083525Y0062281D03*
X0082675Y0062981D03*
X0082675Y0064081D03*
X0082675Y0064131D03*
X0081575Y0064131D03*
X0081575Y0062931D03*
X0080275Y0062931D03*
X0080275Y0064131D03*
X0082675Y0060181D03*
X0084025Y0060181D03*
X0085025Y0059331D03*
X0085025Y0058931D03*
X0086225Y0081281D03*
X0097325Y0081281D03*
D221*
X0097250Y0067381D03*
X0093900Y0064231D03*
X0093900Y0062831D03*
X0091500Y0062581D03*
X0089950Y0060481D03*
X0089950Y0060431D03*
X0089950Y0058831D03*
X0089950Y0058781D03*
X0089950Y0058731D03*
X0085750Y0058681D03*
X0085750Y0059531D03*
X0085750Y0059581D03*
X0083300Y0060481D03*
X0083300Y0062631D03*
X0083300Y0062681D03*
X0083300Y0064381D03*
X0083300Y0064431D03*
X0086300Y0067381D03*
X0088100Y0064381D03*
X0088100Y0064331D03*
X0096400Y0062631D03*
X0095750Y0059531D03*
X0095750Y0058731D03*
X0095750Y0058681D03*
D222*
X0095725Y0058781D03*
X0095725Y0058831D03*
X0095725Y0059381D03*
X0095725Y0059431D03*
X0095725Y0059481D03*
X0096375Y0062681D03*
X0096375Y0062731D03*
X0096375Y0062781D03*
X0089925Y0060381D03*
X0089925Y0060331D03*
X0089925Y0058881D03*
X0088125Y0064231D03*
X0088125Y0064281D03*
X0085725Y0059481D03*
X0085725Y0059431D03*
X0085725Y0058781D03*
X0085725Y0058731D03*
X0083325Y0060331D03*
X0083325Y0060381D03*
X0083325Y0060431D03*
X0083325Y0062731D03*
X0083325Y0062781D03*
X0083325Y0062831D03*
X0083325Y0064231D03*
X0083325Y0064281D03*
X0083325Y0064331D03*
D223*
X0082725Y0064181D03*
X0082725Y0062881D03*
X0080925Y0062281D03*
X0082725Y0060281D03*
X0083975Y0060281D03*
X0085175Y0062831D03*
X0086275Y0064231D03*
X0085725Y0064781D03*
X0087525Y0064181D03*
X0090525Y0060281D03*
X0092175Y0058831D03*
X0092175Y0058781D03*
X0093675Y0058831D03*
X0092925Y0060331D03*
X0093875Y0062281D03*
X0092225Y0062831D03*
X0090925Y0062831D03*
X0095725Y0062881D03*
X0096325Y0060331D03*
X0098225Y0064181D03*
X0099925Y0064181D03*
X0100575Y0064781D03*
X0099925Y0062881D03*
X0100575Y0062281D03*
X0099425Y0060331D03*
X0102625Y0064781D03*
X0097325Y0081231D03*
X0086225Y0081231D03*
X0080925Y0064781D03*
D224*
X0085700Y0059381D03*
X0085700Y0058881D03*
X0085700Y0058831D03*
X0091500Y0062631D03*
X0096350Y0062831D03*
X0095700Y0058881D03*
X0102600Y0063281D03*
X0102600Y0063331D03*
X0102600Y0063381D03*
X0102600Y0063431D03*
X0102600Y0063481D03*
X0102600Y0063531D03*
X0102600Y0063581D03*
X0102600Y0063631D03*
X0102600Y0063681D03*
X0102600Y0063731D03*
X0102600Y0063781D03*
X0097200Y0080731D03*
X0086350Y0080731D03*
D225*
X0086200Y0066931D03*
X0088350Y0060831D03*
X0087600Y0060281D03*
X0089750Y0060831D03*
X0092150Y0058931D03*
X0092150Y0058881D03*
X0093650Y0058881D03*
X0093650Y0058931D03*
X0092900Y0060231D03*
X0092900Y0060281D03*
X0092200Y0063231D03*
X0093900Y0064781D03*
X0096950Y0062881D03*
X0098350Y0060831D03*
X0097600Y0060281D03*
X0100500Y0060331D03*
X0102700Y0062281D03*
X0102100Y0062831D03*
X0097350Y0066931D03*
X0083500Y0060831D03*
D226*
X0088375Y0060931D03*
X0089725Y0060931D03*
X0092175Y0064181D03*
X0094575Y0067581D03*
X0097375Y0066731D03*
X0096175Y0062231D03*
X0098375Y0060931D03*
X0100525Y0058981D03*
X0103225Y0062881D03*
X0088975Y0067581D03*
X0086175Y0066731D03*
D227*
X0086150Y0066681D03*
X0086300Y0062931D03*
X0085200Y0060281D03*
X0089000Y0067531D03*
X0094550Y0067531D03*
X0097400Y0066681D03*
X0095200Y0060281D03*
X0100550Y0059031D03*
X0103250Y0062931D03*
D228*
X0103250Y0062981D03*
X0099150Y0064181D03*
X0100550Y0059081D03*
X0095200Y0060231D03*
X0092200Y0064081D03*
X0086300Y0062981D03*
X0085200Y0060231D03*
D229*
X0085675Y0060881D03*
X0088375Y0060781D03*
X0092175Y0059131D03*
X0092925Y0060031D03*
X0093675Y0059131D03*
X0098375Y0060781D03*
X0102625Y0064731D03*
X0097325Y0066981D03*
X0086225Y0066981D03*
X0080925Y0062331D03*
D230*
X0085200Y0060181D03*
X0086300Y0063031D03*
X0086150Y0066631D03*
X0095200Y0060181D03*
X0098550Y0060231D03*
X0100550Y0059131D03*
X0103250Y0063031D03*
X0099150Y0064131D03*
X0097400Y0066631D03*
D231*
X0094800Y0067881D03*
X0093900Y0064731D03*
X0093900Y0062331D03*
X0092900Y0059981D03*
X0092900Y0059931D03*
X0092150Y0059231D03*
X0092150Y0059181D03*
X0093650Y0059181D03*
X0093650Y0059231D03*
X0100600Y0062331D03*
X0088750Y0067881D03*
X0085700Y0064731D03*
X0080900Y0064731D03*
X0086250Y0081131D03*
X0097300Y0081131D03*
D232*
X0097325Y0067031D03*
X0100575Y0064731D03*
X0093675Y0059331D03*
X0093675Y0059281D03*
X0092925Y0059881D03*
X0092175Y0059281D03*
X0085775Y0062331D03*
X0086225Y0067031D03*
D233*
X0085700Y0063681D03*
X0085700Y0063631D03*
X0085700Y0063581D03*
X0085700Y0063531D03*
X0085700Y0063481D03*
X0085700Y0063431D03*
X0085700Y0063381D03*
X0091500Y0062731D03*
X0099950Y0059881D03*
X0099950Y0059831D03*
X0099950Y0059781D03*
X0099950Y0059731D03*
X0099950Y0059681D03*
X0099950Y0059631D03*
X0099950Y0059581D03*
X0099950Y0059531D03*
X0099950Y0059481D03*
X0099950Y0059431D03*
X0099950Y0059381D03*
X0097200Y0080681D03*
X0086350Y0080681D03*
D234*
X0086275Y0081081D03*
X0097275Y0081081D03*
X0100575Y0064681D03*
X0100575Y0062381D03*
X0095725Y0060831D03*
X0093875Y0062381D03*
X0093875Y0064681D03*
X0091575Y0064731D03*
X0093675Y0059431D03*
X0085675Y0060831D03*
X0080925Y0062381D03*
X0080925Y0064681D03*
D235*
X0088525Y0060231D03*
X0090825Y0063081D03*
X0089025Y0067481D03*
X0094525Y0067481D03*
X0101125Y0064031D03*
X0101125Y0063031D03*
D236*
X0101125Y0062981D03*
X0101125Y0064081D03*
X0098525Y0060281D03*
X0090825Y0063031D03*
X0088525Y0060281D03*
X0086175Y0081481D03*
X0097375Y0081481D03*
D237*
X0097350Y0081381D03*
X0086200Y0081381D03*
X0085700Y0064831D03*
X0086300Y0062881D03*
X0085200Y0060331D03*
X0083500Y0062231D03*
X0083500Y0064831D03*
X0088300Y0064831D03*
X0090850Y0062931D03*
X0092900Y0060881D03*
X0092900Y0060831D03*
X0099950Y0060931D03*
X0101100Y0064181D03*
X0099000Y0064831D03*
D238*
X0098575Y0064281D03*
X0100575Y0064581D03*
X0102625Y0064531D03*
X0100575Y0062481D03*
X0099975Y0060631D03*
X0097925Y0060331D03*
X0095725Y0060731D03*
X0091825Y0063331D03*
X0091375Y0063781D03*
X0087925Y0060331D03*
X0085775Y0062481D03*
X0085725Y0064531D03*
X0086275Y0067181D03*
X0097275Y0067181D03*
D239*
X0098600Y0064331D03*
X0099950Y0060581D03*
X0097950Y0060381D03*
X0093900Y0062531D03*
X0093900Y0064531D03*
X0091600Y0064631D03*
X0091550Y0062431D03*
X0087950Y0060431D03*
X0087950Y0060381D03*
X0085700Y0060731D03*
X0080900Y0062531D03*
X0080900Y0064531D03*
X0086300Y0080931D03*
X0097250Y0080931D03*
X0102700Y0062481D03*
D240*
X0102700Y0062531D03*
X0102650Y0064431D03*
X0099950Y0060531D03*
X0098000Y0060531D03*
X0098650Y0064481D03*
X0093900Y0064481D03*
X0093900Y0062581D03*
X0091700Y0063431D03*
X0091500Y0063681D03*
X0088000Y0060531D03*
X0085700Y0060681D03*
X0085800Y0062531D03*
X0086300Y0080881D03*
X0097250Y0080881D03*
D241*
X0097300Y0067131D03*
X0093900Y0064631D03*
X0093900Y0062431D03*
X0095700Y0060781D03*
X0099950Y0060681D03*
X0085700Y0060781D03*
X0086250Y0067131D03*
D242*
X0086250Y0067081D03*
X0091250Y0063831D03*
X0091550Y0062331D03*
X0097300Y0067081D03*
X0099950Y0060731D03*
X0102700Y0062381D03*
D243*
X0101100Y0062931D03*
X0101100Y0064131D03*
X0083500Y0060931D03*
D244*
X0085775Y0062431D03*
X0080925Y0062481D03*
X0091575Y0062381D03*
X0091625Y0064681D03*
X0100575Y0064631D03*
X0100575Y0062431D03*
X0097275Y0080981D03*
X0086275Y0080981D03*
D245*
X0086325Y0067431D03*
X0085725Y0063781D03*
X0085725Y0063731D03*
X0085725Y0063331D03*
X0085725Y0063281D03*
X0091475Y0062681D03*
X0091525Y0062781D03*
X0097225Y0067431D03*
D246*
X0092175Y0064131D03*
X0090825Y0062981D03*
X0086175Y0081431D03*
X0097375Y0081431D03*
D247*
X0101125Y0063981D03*
X0101125Y0063081D03*
X0092225Y0064031D03*
X0090825Y0063131D03*
D248*
X0086325Y0067481D03*
X0097225Y0067481D03*
D249*
X0097200Y0067531D03*
X0086350Y0067531D03*
D250*
X0086350Y0067581D03*
X0097200Y0067581D03*
D251*
X0097175Y0067631D03*
X0086375Y0067631D03*
X0091775Y0083281D03*
D252*
X0091775Y0083231D03*
X0091775Y0083181D03*
X0091775Y0083131D03*
X0091775Y0083081D03*
X0091775Y0083031D03*
X0091775Y0082981D03*
X0086375Y0067681D03*
X0097175Y0067681D03*
D253*
X0097150Y0067731D03*
X0086400Y0067731D03*
D254*
X0086400Y0067781D03*
X0097150Y0067781D03*
D255*
X0097125Y0067831D03*
X0091775Y0081931D03*
X0091775Y0081981D03*
X0091775Y0082031D03*
X0091775Y0082081D03*
X0091775Y0082131D03*
X0086425Y0067831D03*
D256*
X0086425Y0067881D03*
X0091775Y0081681D03*
X0091775Y0081731D03*
X0091775Y0081781D03*
X0091775Y0081831D03*
X0091775Y0081881D03*
X0097125Y0067881D03*
D257*
X0096500Y0067931D03*
X0087050Y0067931D03*
D258*
X0087025Y0067981D03*
X0096525Y0067981D03*
D259*
X0096525Y0068031D03*
X0095575Y0070381D03*
X0087975Y0070381D03*
X0087025Y0068031D03*
X0091775Y0080581D03*
D260*
X0088000Y0070531D03*
X0088000Y0070481D03*
X0088000Y0070431D03*
X0087950Y0070331D03*
X0087900Y0070281D03*
X0087900Y0070231D03*
X0087000Y0068081D03*
X0095550Y0070431D03*
X0095550Y0070481D03*
X0095550Y0070531D03*
X0095600Y0070331D03*
X0095650Y0070281D03*
X0095650Y0070231D03*
X0095700Y0070181D03*
X0096550Y0068081D03*
D261*
X0096550Y0068131D03*
X0095900Y0069781D03*
X0095850Y0069881D03*
X0095800Y0069981D03*
X0095550Y0070631D03*
X0088000Y0070631D03*
X0087750Y0069981D03*
X0087700Y0069881D03*
X0087650Y0069781D03*
X0087000Y0068131D03*
D262*
X0086975Y0068181D03*
X0087575Y0069631D03*
X0087575Y0069681D03*
X0087625Y0069731D03*
X0087675Y0069831D03*
X0088025Y0070681D03*
X0088025Y0070731D03*
X0095525Y0070731D03*
X0095525Y0070681D03*
X0095875Y0069831D03*
X0095925Y0069731D03*
X0095975Y0069681D03*
X0095975Y0069631D03*
X0096575Y0068181D03*
D263*
X0096600Y0068231D03*
X0096100Y0069431D03*
X0096050Y0069531D03*
X0096000Y0069581D03*
X0095550Y0070781D03*
X0088000Y0070781D03*
X0087550Y0069581D03*
X0087500Y0069531D03*
X0087450Y0069431D03*
X0086950Y0068231D03*
D264*
X0086950Y0068281D03*
X0087250Y0069081D03*
X0087300Y0069131D03*
X0087300Y0069181D03*
X0087350Y0069231D03*
X0088000Y0070881D03*
X0087450Y0072281D03*
X0087500Y0075881D03*
X0087550Y0075931D03*
X0096000Y0075931D03*
X0096050Y0075881D03*
X0096100Y0072281D03*
X0095550Y0070881D03*
X0096200Y0069231D03*
X0096250Y0069181D03*
X0096250Y0069131D03*
X0096300Y0069081D03*
X0096600Y0068281D03*
D265*
X0096625Y0068331D03*
X0096425Y0068831D03*
X0096375Y0068931D03*
X0096325Y0068981D03*
X0096325Y0069031D03*
X0095525Y0070931D03*
X0095525Y0070981D03*
X0096025Y0072181D03*
X0096075Y0072231D03*
X0095975Y0075981D03*
X0087575Y0075981D03*
X0087475Y0072231D03*
X0087525Y0072181D03*
X0088025Y0070981D03*
X0088025Y0070931D03*
X0087225Y0069031D03*
X0087225Y0068981D03*
X0087175Y0068931D03*
X0087125Y0068831D03*
X0086925Y0068331D03*
D266*
X0086950Y0068381D03*
X0087050Y0068681D03*
X0087050Y0068731D03*
X0087100Y0068781D03*
X0087150Y0068881D03*
X0087350Y0072331D03*
X0096200Y0072331D03*
X0096400Y0068881D03*
X0096450Y0068781D03*
X0096500Y0068731D03*
X0096500Y0068681D03*
X0096600Y0068381D03*
D267*
X0096625Y0068431D03*
X0096625Y0068481D03*
X0096575Y0068531D03*
X0096575Y0068581D03*
X0096525Y0068631D03*
X0095525Y0071031D03*
X0095525Y0071081D03*
X0095925Y0072081D03*
X0095975Y0072131D03*
X0096175Y0075831D03*
X0095925Y0076031D03*
X0095875Y0076081D03*
X0091775Y0080481D03*
X0087675Y0076081D03*
X0087625Y0076031D03*
X0087375Y0075831D03*
X0087575Y0072131D03*
X0087625Y0072081D03*
X0088025Y0071081D03*
X0088025Y0071031D03*
X0087025Y0068631D03*
X0086975Y0068581D03*
X0086975Y0068531D03*
X0086925Y0068481D03*
X0086925Y0068431D03*
D268*
X0087375Y0069281D03*
X0087375Y0069331D03*
X0087425Y0069381D03*
X0087475Y0069481D03*
X0088025Y0070831D03*
X0091775Y0080531D03*
X0095525Y0070831D03*
X0096075Y0069481D03*
X0096125Y0069381D03*
X0096175Y0069331D03*
X0096175Y0069281D03*
D269*
X0095825Y0069931D03*
X0095775Y0070031D03*
X0095725Y0070081D03*
X0095725Y0070131D03*
X0095525Y0070581D03*
X0088025Y0070581D03*
X0087875Y0070181D03*
X0087825Y0070131D03*
X0087825Y0070081D03*
X0087775Y0070031D03*
X0087725Y0069931D03*
D270*
X0088000Y0071131D03*
X0087650Y0072031D03*
X0087700Y0076131D03*
X0095850Y0076131D03*
X0095900Y0072031D03*
X0095550Y0071131D03*
D271*
X0095525Y0071181D03*
X0095525Y0071231D03*
X0095825Y0071981D03*
X0095775Y0076181D03*
X0087775Y0076181D03*
X0087725Y0071981D03*
X0088025Y0071231D03*
X0088025Y0071181D03*
D272*
X0088025Y0071281D03*
X0088025Y0071331D03*
X0087775Y0071881D03*
X0087225Y0075781D03*
X0087825Y0076231D03*
X0087875Y0076281D03*
X0095675Y0076281D03*
X0095725Y0076231D03*
X0096325Y0075781D03*
X0095775Y0071881D03*
X0095525Y0071331D03*
X0095525Y0071281D03*
D273*
X0095550Y0071381D03*
X0095700Y0071831D03*
X0088000Y0071381D03*
X0087850Y0071831D03*
D274*
X0087875Y0071781D03*
X0088025Y0071481D03*
X0088025Y0071431D03*
X0087925Y0076331D03*
X0091775Y0080431D03*
X0095625Y0076331D03*
X0095675Y0071781D03*
X0095525Y0071481D03*
X0095525Y0071431D03*
D275*
X0095525Y0071531D03*
X0095525Y0071581D03*
X0095575Y0071631D03*
X0095575Y0071681D03*
X0096525Y0072431D03*
X0096475Y0075731D03*
X0095575Y0076381D03*
X0087975Y0076381D03*
X0087075Y0075731D03*
X0087975Y0071681D03*
X0087975Y0071631D03*
X0088025Y0071581D03*
X0088025Y0071531D03*
D276*
X0087950Y0071731D03*
X0095600Y0071731D03*
D277*
X0095800Y0071931D03*
X0096350Y0072381D03*
X0087750Y0071931D03*
X0087200Y0072381D03*
D278*
X0087050Y0072431D03*
D279*
X0086900Y0072481D03*
X0086900Y0075681D03*
X0088150Y0076481D03*
X0095400Y0076481D03*
X0096650Y0075681D03*
X0096650Y0072481D03*
D280*
X0096825Y0072531D03*
X0096775Y0075631D03*
X0086775Y0075631D03*
X0086725Y0072531D03*
D281*
X0086575Y0072581D03*
X0086625Y0075581D03*
X0096925Y0075581D03*
X0096975Y0072581D03*
D282*
X0097125Y0072631D03*
X0086425Y0072631D03*
D283*
X0086275Y0072681D03*
X0085875Y0073581D03*
X0085875Y0073631D03*
X0085875Y0073681D03*
X0085875Y0073731D03*
X0085875Y0073781D03*
X0085875Y0073831D03*
X0085875Y0073881D03*
X0085875Y0074331D03*
X0085875Y0074381D03*
X0085875Y0074431D03*
X0085875Y0074481D03*
X0085875Y0074531D03*
X0085875Y0074581D03*
X0097275Y0072681D03*
X0097675Y0073581D03*
X0097675Y0073631D03*
X0097675Y0073681D03*
X0097675Y0073731D03*
X0097675Y0073781D03*
X0097675Y0073831D03*
X0097675Y0073881D03*
X0097675Y0074331D03*
X0097675Y0074381D03*
X0097675Y0074431D03*
X0097675Y0074481D03*
X0097675Y0074531D03*
X0097675Y0074581D03*
D284*
X0097575Y0075081D03*
X0097575Y0075131D03*
X0097575Y0073031D03*
X0097575Y0072981D03*
X0097525Y0072881D03*
X0097475Y0072781D03*
X0097425Y0072731D03*
X0086125Y0072731D03*
X0086075Y0072781D03*
X0086025Y0072881D03*
X0085975Y0072981D03*
X0085975Y0073031D03*
X0085975Y0075081D03*
X0085975Y0075131D03*
D285*
X0086000Y0075181D03*
X0086000Y0075231D03*
X0086050Y0075281D03*
X0086050Y0075331D03*
X0086100Y0075381D03*
X0086000Y0072931D03*
X0086050Y0072831D03*
X0097500Y0072831D03*
X0097550Y0072931D03*
X0097550Y0075181D03*
X0097550Y0075231D03*
X0097500Y0075281D03*
X0097500Y0075331D03*
X0097450Y0075381D03*
D286*
X0097400Y0075431D03*
X0097600Y0075031D03*
X0097600Y0074981D03*
X0097600Y0073181D03*
X0097600Y0073131D03*
X0097600Y0073081D03*
X0085950Y0073081D03*
X0085950Y0073131D03*
X0085950Y0073181D03*
X0085950Y0074981D03*
X0085950Y0075031D03*
X0086150Y0075431D03*
D287*
X0085925Y0074931D03*
X0085925Y0074881D03*
X0085925Y0074831D03*
X0085925Y0073331D03*
X0085925Y0073281D03*
X0085925Y0073231D03*
X0097625Y0073231D03*
X0097625Y0073281D03*
X0097625Y0073331D03*
X0097625Y0074831D03*
X0097625Y0074881D03*
X0097625Y0074931D03*
D288*
X0097650Y0074781D03*
X0097650Y0074731D03*
X0097650Y0074681D03*
X0097650Y0074631D03*
X0097650Y0073531D03*
X0097650Y0073481D03*
X0097650Y0073431D03*
X0097650Y0073381D03*
X0085900Y0073381D03*
X0085900Y0073431D03*
X0085900Y0073481D03*
X0085900Y0073531D03*
X0085900Y0074631D03*
X0085900Y0074681D03*
X0085900Y0074731D03*
X0085900Y0074781D03*
D289*
X0085850Y0074281D03*
X0085850Y0074231D03*
X0085850Y0074181D03*
X0085850Y0074131D03*
X0085850Y0074081D03*
X0085850Y0074031D03*
X0085850Y0073981D03*
X0085850Y0073931D03*
X0086300Y0075481D03*
X0097250Y0075481D03*
X0097700Y0074281D03*
X0097700Y0074231D03*
X0097700Y0074181D03*
X0097700Y0074131D03*
X0097700Y0074081D03*
X0097700Y0074031D03*
X0097700Y0073981D03*
X0097700Y0073931D03*
D290*
X0097100Y0075531D03*
X0086450Y0075531D03*
D291*
X0088075Y0076431D03*
X0091775Y0080381D03*
X0095475Y0076431D03*
D292*
X0095275Y0076531D03*
X0088275Y0076531D03*
D293*
X0091775Y0076581D03*
X0091775Y0078281D03*
D294*
X0091775Y0078231D03*
X0091775Y0078181D03*
X0091775Y0076681D03*
X0091775Y0076631D03*
D295*
X0091775Y0076731D03*
X0091775Y0076781D03*
X0091775Y0076831D03*
X0091775Y0078131D03*
D296*
X0091775Y0078081D03*
X0091775Y0078031D03*
X0091775Y0076931D03*
X0091775Y0076881D03*
D297*
X0091775Y0076981D03*
X0091775Y0077031D03*
X0091775Y0077981D03*
D298*
X0091775Y0077931D03*
X0091775Y0077881D03*
X0091775Y0077181D03*
X0091775Y0077131D03*
X0091775Y0077081D03*
D299*
X0091775Y0077231D03*
X0091775Y0077281D03*
X0091775Y0077831D03*
D300*
X0091775Y0077781D03*
X0091775Y0077731D03*
X0091775Y0077381D03*
X0091775Y0077331D03*
D301*
X0091775Y0077431D03*
X0091775Y0077481D03*
X0091775Y0077531D03*
X0091775Y0077681D03*
D302*
X0091775Y0077631D03*
X0091775Y0077581D03*
D303*
X0091775Y0078331D03*
X0091775Y0078381D03*
D304*
X0091775Y0078431D03*
D305*
X0091775Y0078481D03*
D306*
X0091775Y0078531D03*
X0091775Y0078581D03*
D307*
X0091775Y0078631D03*
D308*
X0091775Y0078681D03*
X0091775Y0078731D03*
D309*
X0091775Y0078781D03*
D310*
X0091775Y0078831D03*
X0091775Y0078881D03*
D311*
X0091775Y0078931D03*
D312*
X0091775Y0078981D03*
X0091775Y0079031D03*
D313*
X0091775Y0079081D03*
X0091775Y0080131D03*
D314*
X0091775Y0080081D03*
X0091775Y0079181D03*
X0091775Y0079131D03*
D315*
X0091775Y0079231D03*
X0091775Y0080031D03*
D316*
X0091775Y0079981D03*
X0091775Y0079281D03*
D317*
X0091775Y0079331D03*
X0091775Y0079381D03*
X0091775Y0079931D03*
D318*
X0091775Y0079881D03*
X0091775Y0079431D03*
D319*
X0091775Y0079481D03*
X0091775Y0079531D03*
X0091775Y0079831D03*
D320*
X0091775Y0079781D03*
X0091775Y0079731D03*
X0091775Y0079631D03*
X0091775Y0079581D03*
D321*
X0091775Y0079681D03*
D322*
X0091775Y0081131D03*
X0091775Y0081181D03*
X0091775Y0081231D03*
X0091775Y0081281D03*
X0091775Y0081331D03*
X0086475Y0080181D03*
X0097075Y0080181D03*
D323*
X0091775Y0080181D03*
D324*
X0086450Y0080231D03*
X0097100Y0080231D03*
D325*
X0091775Y0080231D03*
D326*
X0086450Y0080281D03*
X0097100Y0080281D03*
D327*
X0091775Y0080281D03*
D328*
X0091775Y0082181D03*
X0091775Y0082231D03*
X0091775Y0082281D03*
X0091775Y0082331D03*
X0091775Y0082381D03*
X0091775Y0082431D03*
X0086425Y0080331D03*
X0097125Y0080331D03*
D329*
X0091775Y0080331D03*
D330*
X0091775Y0082481D03*
X0091775Y0082531D03*
X0091775Y0082581D03*
X0091775Y0082631D03*
X0091775Y0082681D03*
X0086425Y0080381D03*
X0097125Y0080381D03*
D331*
X0091775Y0082731D03*
X0091775Y0082781D03*
X0091775Y0082831D03*
X0091775Y0082881D03*
X0091775Y0082931D03*
X0086425Y0080431D03*
D332*
X0097150Y0080431D03*
D333*
X0097150Y0080481D03*
X0086400Y0080481D03*
D334*
X0086400Y0080531D03*
X0097150Y0080531D03*
D335*
X0097175Y0080581D03*
X0086375Y0080581D03*
D336*
X0086375Y0080631D03*
X0097175Y0080631D03*
D337*
X0091775Y0080631D03*
D338*
X0091775Y0080681D03*
D339*
X0091775Y0080731D03*
D340*
X0091775Y0080781D03*
D341*
X0091775Y0080831D03*
D342*
X0091775Y0080881D03*
X0091775Y0080931D03*
X0091775Y0080981D03*
X0091775Y0081031D03*
X0091775Y0081081D03*
D343*
X0091775Y0081381D03*
X0091775Y0081431D03*
X0091775Y0081481D03*
X0091775Y0081531D03*
X0091775Y0081581D03*
X0091775Y0081631D03*
M02*
