G75*
%MOIN*%
%OFA0B0*%
%FSLAX25Y25*%
%IPPOS*%
%LPD*%
%AMOC8*
5,1,8,0,0,1.08239X$1,22.5*
%
%ADD10C,0.00300*%
%ADD11C,0.00500*%
%ADD12C,0.00000*%
%ADD13R,0.01800X0.03000*%
%ADD14C,0.00800*%
%ADD15C,0.00100*%
%ADD16C,0.00600*%
%ADD17R,0.00770X0.00035*%
%ADD18R,0.01400X0.00035*%
%ADD19R,0.01855X0.00035*%
%ADD20R,0.02170X0.00035*%
%ADD21R,0.02485X0.00035*%
%ADD22R,0.02765X0.00035*%
%ADD23R,0.02975X0.00035*%
%ADD24R,0.03220X0.00035*%
%ADD25R,0.03395X0.00035*%
%ADD26R,0.03605X0.00035*%
%ADD27R,0.03780X0.00035*%
%ADD28R,0.03955X0.00035*%
%ADD29R,0.04130X0.00035*%
%ADD30R,0.04270X0.00035*%
%ADD31R,0.04375X0.00035*%
%ADD32R,0.04550X0.00035*%
%ADD33R,0.04690X0.00035*%
%ADD34R,0.04865X0.00035*%
%ADD35R,0.04970X0.00035*%
%ADD36R,0.05110X0.00035*%
%ADD37R,0.05215X0.00035*%
%ADD38R,0.05355X0.00035*%
%ADD39R,0.05460X0.00035*%
%ADD40R,0.05600X0.00035*%
%ADD41R,0.05705X0.00035*%
%ADD42R,0.05810X0.00035*%
%ADD43R,0.05915X0.00035*%
%ADD44R,0.06055X0.00035*%
%ADD45R,0.06160X0.00035*%
%ADD46R,0.06265X0.00035*%
%ADD47R,0.06335X0.00035*%
%ADD48R,0.06440X0.00035*%
%ADD49R,0.06545X0.00035*%
%ADD50R,0.03080X0.00035*%
%ADD51R,0.02660X0.00035*%
%ADD52R,0.02870X0.00035*%
%ADD53R,0.02415X0.00035*%
%ADD54R,0.02730X0.00035*%
%ADD55R,0.02310X0.00035*%
%ADD56R,0.02695X0.00035*%
%ADD57R,0.02170X0.00035*%
%ADD58R,0.02590X0.00035*%
%ADD59R,0.02100X0.00035*%
%ADD60R,0.02520X0.00035*%
%ADD61R,0.02030X0.00035*%
%ADD62R,0.02450X0.00035*%
%ADD63R,0.01960X0.00035*%
%ADD64R,0.01890X0.00035*%
%ADD65R,0.02380X0.00035*%
%ADD66R,0.01785X0.00035*%
%ADD67R,0.01750X0.00035*%
%ADD68R,0.01715X0.00035*%
%ADD69R,0.02275X0.00035*%
%ADD70R,0.01645X0.00035*%
%ADD71R,0.02240X0.00035*%
%ADD72R,0.01610X0.00035*%
%ADD73R,0.02240X0.00035*%
%ADD74R,0.01575X0.00035*%
%ADD75R,0.01540X0.00035*%
%ADD76R,0.02205X0.00035*%
%ADD77R,0.01505X0.00035*%
%ADD78R,0.01470X0.00035*%
%ADD79R,0.01435X0.00035*%
%ADD80R,0.01365X0.00035*%
%ADD81R,0.01330X0.00035*%
%ADD82R,0.01295X0.00035*%
%ADD83R,0.01295X0.00035*%
%ADD84R,0.01260X0.00035*%
%ADD85R,0.01190X0.00035*%
%ADD86R,0.01225X0.00035*%
%ADD87R,0.00385X0.00035*%
%ADD88R,0.00980X0.00035*%
%ADD89R,0.01155X0.00035*%
%ADD90R,0.01645X0.00035*%
%ADD91R,0.01015X0.00035*%
%ADD92R,0.01050X0.00035*%
%ADD93R,0.02345X0.00035*%
%ADD94R,0.01085X0.00035*%
%ADD95R,0.02905X0.00035*%
%ADD96R,0.03045X0.00035*%
%ADD97R,0.01120X0.00035*%
%ADD98R,0.02345X0.00035*%
%ADD99R,0.03255X0.00035*%
%ADD100R,0.01120X0.00035*%
%ADD101R,0.03500X0.00035*%
%ADD102R,0.02415X0.00035*%
%ADD103R,0.03640X0.00035*%
%ADD104R,0.04900X0.00035*%
%ADD105R,0.04935X0.00035*%
%ADD106R,0.05005X0.00035*%
%ADD107R,0.01680X0.00035*%
%ADD108R,0.02065X0.00035*%
%ADD109R,0.02555X0.00035*%
%ADD110R,0.02590X0.00035*%
%ADD111R,0.02625X0.00035*%
%ADD112R,0.02695X0.00035*%
%ADD113R,0.01470X0.00035*%
%ADD114R,0.02765X0.00035*%
%ADD115R,0.02800X0.00035*%
%ADD116R,0.02835X0.00035*%
%ADD117R,0.01365X0.00035*%
%ADD118R,0.02940X0.00035*%
%ADD119R,0.03010X0.00035*%
%ADD120R,0.03045X0.00035*%
%ADD121R,0.03115X0.00035*%
%ADD122R,0.03150X0.00035*%
%ADD123R,0.03185X0.00035*%
%ADD124R,0.03220X0.00035*%
%ADD125R,0.01190X0.00035*%
%ADD126R,0.03290X0.00035*%
%ADD127R,0.03325X0.00035*%
%ADD128R,0.03360X0.00035*%
%ADD129R,0.03430X0.00035*%
%ADD130R,0.03465X0.00035*%
%ADD131R,0.03535X0.00035*%
%ADD132R,0.03570X0.00035*%
%ADD133R,0.03675X0.00035*%
%ADD134R,0.03710X0.00035*%
%ADD135R,0.03745X0.00035*%
%ADD136R,0.03815X0.00035*%
%ADD137R,0.03850X0.00035*%
%ADD138R,0.03885X0.00035*%
%ADD139R,0.03920X0.00035*%
%ADD140R,0.03990X0.00035*%
%ADD141R,0.04025X0.00035*%
%ADD142R,0.02870X0.00035*%
%ADD143R,0.04095X0.00035*%
%ADD144R,0.04165X0.00035*%
%ADD145R,0.04200X0.00035*%
%ADD146R,0.04235X0.00035*%
%ADD147R,0.04270X0.00035*%
%ADD148R,0.01820X0.00035*%
%ADD149R,0.04305X0.00035*%
%ADD150R,0.04340X0.00035*%
%ADD151R,0.01925X0.00035*%
%ADD152R,0.04410X0.00035*%
%ADD153R,0.00945X0.00035*%
%ADD154R,0.00875X0.00035*%
%ADD155R,0.00840X0.00035*%
%ADD156R,0.02135X0.00035*%
%ADD157R,0.00805X0.00035*%
%ADD158R,0.00735X0.00035*%
%ADD159R,0.01995X0.00035*%
%ADD160R,0.02520X0.00035*%
%ADD161R,0.01540X0.00035*%
%ADD162R,0.00770X0.00035*%
%ADD163R,0.00665X0.00035*%
%ADD164R,0.00420X0.00035*%
%ADD165R,0.00910X0.00035*%
%ADD166R,0.04060X0.00035*%
%ADD167R,0.01015X0.00035*%
%ADD168R,0.03115X0.00035*%
%ADD169R,0.03395X0.00035*%
%ADD170R,0.03745X0.00035*%
%ADD171R,0.04340X0.00035*%
%ADD172R,0.04480X0.00035*%
%ADD173R,0.02065X0.00035*%
%ADD174R,0.04515X0.00035*%
%ADD175R,0.04585X0.00035*%
%ADD176R,0.04760X0.00035*%
%ADD177R,0.04830X0.00035*%
%ADD178R,0.07805X0.00035*%
%ADD179R,0.07840X0.00035*%
%ADD180R,0.07875X0.00035*%
%ADD181R,0.07910X0.00035*%
%ADD182R,0.07945X0.00035*%
%ADD183R,0.07980X0.00035*%
%ADD184R,0.08015X0.00035*%
%ADD185R,0.08050X0.00035*%
%ADD186R,0.05635X0.00035*%
%ADD187R,0.01995X0.00035*%
%ADD188R,0.01890X0.00035*%
%ADD189R,0.01715X0.00035*%
%ADD190R,0.00945X0.00035*%
%ADD191R,0.00560X0.00035*%
%ADD192R,0.01820X0.00035*%
%ADD193R,0.00700X0.00035*%
%ADD194R,0.00630X0.00035*%
%ADD195R,0.00525X0.00035*%
%ADD196R,0.00175X0.00035*%
%ADD197R,0.00595X0.00035*%
%ADD198R,0.00490X0.00035*%
%ADD199R,0.00210X0.00035*%
%ADD200R,0.00490X0.00035*%
%ADD201R,0.00315X0.00035*%
%ADD202R,0.00520X0.00040*%
%ADD203R,0.00520X0.00040*%
%ADD204R,0.00760X0.00040*%
%ADD205R,0.00640X0.00040*%
%ADD206R,0.00440X0.00040*%
%ADD207R,0.00480X0.00040*%
%ADD208R,0.00520X0.00040*%
%ADD209R,0.00520X0.00040*%
%ADD210R,0.01400X0.00040*%
%ADD211R,0.00800X0.00040*%
%ADD212R,0.00480X0.00040*%
%ADD213R,0.00960X0.00040*%
%ADD214R,0.01440X0.00040*%
%ADD215R,0.01080X0.00040*%
%ADD216R,0.01520X0.00040*%
%ADD217R,0.01440X0.00040*%
%ADD218R,0.00560X0.00040*%
%ADD219R,0.01480X0.00040*%
%ADD220R,0.01200X0.00040*%
%ADD221R,0.01560X0.00040*%
%ADD222R,0.01320X0.00040*%
%ADD223R,0.01560X0.00040*%
%ADD224R,0.01520X0.00040*%
%ADD225R,0.00600X0.00040*%
%ADD226R,0.00560X0.00040*%
%ADD227R,0.01400X0.00040*%
%ADD228R,0.01600X0.00040*%
%ADD229R,0.00600X0.00040*%
%ADD230R,0.00640X0.00040*%
%ADD231R,0.01640X0.00040*%
%ADD232R,0.00680X0.00040*%
%ADD233R,0.01680X0.00040*%
%ADD234R,0.01680X0.00040*%
%ADD235R,0.01640X0.00040*%
%ADD236R,0.00720X0.00040*%
%ADD237R,0.01480X0.00040*%
%ADD238R,0.00760X0.00040*%
%ADD239R,0.00720X0.00040*%
%ADD240R,0.00640X0.00040*%
%ADD241R,0.00360X0.00040*%
%ADD242R,0.00240X0.00040*%
%ADD243R,0.00160X0.00040*%
%ADD244R,0.00840X0.00040*%
%ADD245R,0.00080X0.00040*%
%ADD246R,0.00880X0.00040*%
%ADD247R,0.00920X0.00040*%
%ADD248R,0.00960X0.00040*%
%ADD249R,0.01640X0.00040*%
%ADD250R,0.01760X0.00040*%
%ADD251R,0.00440X0.00040*%
%ADD252R,0.01000X0.00040*%
%ADD253R,0.01760X0.00040*%
%ADD254R,0.00440X0.00040*%
%ADD255R,0.01320X0.00040*%
%ADD256R,0.01200X0.00040*%
%ADD257R,0.00920X0.00040*%
%ADD258R,0.00840X0.00040*%
%ADD259R,0.00800X0.00040*%
%ADD260R,0.00080X0.00040*%
%ADD261R,0.00120X0.00040*%
%ADD262R,0.00240X0.00040*%
%ADD263R,0.00720X0.00040*%
%ADD264R,0.00200X0.00040*%
%ADD265R,0.00400X0.00040*%
%ADD266R,0.01240X0.00040*%
%ADD267R,0.01640X0.00040*%
%ADD268R,0.01440X0.00040*%
%ADD269R,0.01280X0.00040*%
%ADD270R,0.01520X0.00040*%
%ADD271R,0.01280X0.00040*%
%ADD272R,0.01520X0.00040*%
%ADD273R,0.01360X0.00040*%
%ADD274R,0.01440X0.00040*%
%ADD275R,0.01240X0.00040*%
%ADD276R,0.01120X0.00040*%
%ADD277R,0.01240X0.00040*%
%ADD278R,0.01040X0.00040*%
%ADD279R,0.00840X0.00040*%
%ADD280R,0.00440X0.00040*%
%ADD281R,0.00400X0.00040*%
%ADD282R,0.00320X0.00040*%
%ADD283R,0.00920X0.00040*%
%ADD284R,0.01040X0.00040*%
%ADD285R,0.01000X0.00040*%
%ADD286R,0.01080X0.00040*%
%ADD287R,0.01160X0.00040*%
%ADD288R,0.01040X0.00040*%
%ADD289R,0.01160X0.00040*%
%ADD290R,0.01600X0.00040*%
%ADD291R,0.01720X0.00040*%
%ADD292R,0.01720X0.00040*%
%ADD293R,0.00640X0.00040*%
%ADD294R,0.00680X0.00040*%
%ADD295R,0.00360X0.00040*%
%ADD296R,0.00280X0.00040*%
%ADD297R,0.00120X0.00040*%
%ADD298R,0.00040X0.00040*%
%ADD299R,0.00040X0.00040*%
%ADD300R,0.01320X0.00040*%
%ADD301R,0.00280X0.00040*%
%ADD302R,0.00320X0.00040*%
%ADD303R,0.01320X0.00040*%
%ADD304R,0.01120X0.00040*%
%ADD305R,0.01120X0.00040*%
%ADD306R,0.01800X0.00040*%
%ADD307R,0.01920X0.00040*%
%ADD308R,0.01920X0.00040*%
%ADD309R,0.02000X0.00040*%
%ADD310R,0.02120X0.00040*%
%ADD311R,0.02200X0.00040*%
%ADD312R,0.02320X0.00040*%
%ADD313R,0.02400X0.00040*%
%ADD314R,0.02520X0.00040*%
%ADD315R,0.02600X0.00040*%
%ADD316R,0.00880X0.00040*%
%ADD317R,0.03680X0.00040*%
%ADD318R,0.03720X0.00040*%
%ADD319R,0.03800X0.00040*%
%ADD320R,0.03840X0.00040*%
%ADD321R,0.03840X0.00040*%
%ADD322R,0.03920X0.00040*%
%ADD323R,0.03960X0.00040*%
%ADD324R,0.04000X0.00040*%
%ADD325R,0.04080X0.00040*%
%ADD326R,0.04120X0.00040*%
%ADD327R,0.04160X0.00040*%
%ADD328R,0.04200X0.00040*%
%ADD329R,0.04200X0.00040*%
%ADD330R,0.04160X0.00040*%
%ADD331R,0.04120X0.00040*%
%ADD332R,0.04080X0.00040*%
%ADD333R,0.04040X0.00040*%
%ADD334R,0.04040X0.00040*%
%ADD335R,0.04040X0.00040*%
%ADD336R,0.04040X0.00040*%
%ADD337R,0.03960X0.00040*%
%ADD338R,0.03920X0.00040*%
%ADD339R,0.03920X0.00040*%
%ADD340R,0.03880X0.00040*%
%ADD341R,0.03920X0.00040*%
%ADD342R,0.03880X0.00040*%
%ADD343R,0.03800X0.00040*%
%ADD344R,0.04240X0.00040*%
%ADD345R,0.04240X0.00040*%
%ADD346R,0.04280X0.00040*%
%ADD347R,0.04360X0.00040*%
%ADD348R,0.04400X0.00040*%
%ADD349R,0.04440X0.00040*%
%ADD350R,0.04520X0.00040*%
%ADD351R,0.04520X0.00040*%
%ADD352R,0.04520X0.00040*%
%ADD353R,0.04520X0.00040*%
%ADD354R,0.04480X0.00040*%
%ADD355R,0.04440X0.00040*%
%ADD356R,0.04400X0.00040*%
%ADD357R,0.04360X0.00040*%
%ADD358R,0.04320X0.00040*%
%ADD359R,0.04240X0.00040*%
%ADD360R,0.04320X0.00040*%
%ADD361R,0.04320X0.00040*%
%ADD362R,0.04560X0.00040*%
%ADD363R,0.04720X0.00040*%
%ADD364R,0.04920X0.00040*%
%ADD365R,0.04920X0.00040*%
%ADD366R,0.05080X0.00040*%
%ADD367R,0.05240X0.00040*%
%ADD368R,0.05240X0.00040*%
%ADD369R,0.05480X0.00040*%
%ADD370R,0.05640X0.00040*%
%ADD371R,0.05640X0.00040*%
%ADD372R,0.05680X0.00040*%
%ADD373R,0.05640X0.00040*%
%ADD374R,0.05600X0.00040*%
%ADD375R,0.05600X0.00040*%
%ADD376R,0.05560X0.00040*%
%ADD377R,0.05520X0.00040*%
%ADD378R,0.05520X0.00040*%
%ADD379R,0.05480X0.00040*%
%ADD380R,0.05440X0.00040*%
%ADD381R,0.05440X0.00040*%
%ADD382R,0.05560X0.00040*%
%ADD383R,0.05680X0.00040*%
%ADD384R,0.05440X0.00040*%
%ADD385R,0.05280X0.00040*%
%ADD386R,0.04920X0.00040*%
%ADD387R,0.04600X0.00040*%
%ADD388R,0.04840X0.00040*%
%ADD389R,0.10440X0.00040*%
%ADD390R,0.10360X0.00040*%
%ADD391R,0.10360X0.00040*%
%ADD392R,0.10280X0.00040*%
%ADD393R,0.10200X0.00040*%
%ADD394R,0.10200X0.00040*%
%ADD395R,0.10120X0.00040*%
%ADD396R,0.10040X0.00040*%
%ADD397R,0.10040X0.00040*%
%ADD398R,0.09960X0.00040*%
%ADD399R,0.09880X0.00040*%
%ADD400R,0.09880X0.00040*%
%ADD401R,0.09800X0.00040*%
%ADD402R,0.09720X0.00040*%
%ADD403R,0.09720X0.00040*%
%ADD404R,0.10280X0.00040*%
%ADD405R,0.10520X0.00040*%
%ADD406R,0.10520X0.00040*%
%ADD407R,0.10600X0.00040*%
%ADD408R,0.10680X0.00040*%
%ADD409R,0.10760X0.00040*%
%ADD410R,0.10840X0.00040*%
%ADD411R,0.10920X0.00040*%
%ADD412R,0.11000X0.00040*%
%ADD413R,0.11080X0.00040*%
%ADD414R,0.11080X0.00040*%
%ADD415R,0.11160X0.00040*%
%ADD416R,0.11240X0.00040*%
%ADD417R,0.11320X0.00040*%
%ADD418R,0.11400X0.00040*%
%ADD419R,0.11400X0.00040*%
%ADD420R,0.11480X0.00040*%
%ADD421R,0.11560X0.00040*%
%ADD422R,0.11640X0.00040*%
%ADD423R,0.11640X0.00040*%
%ADD424R,0.11720X0.00040*%
%ADD425R,0.11800X0.00040*%
%ADD426R,0.11880X0.00040*%
%ADD427R,0.11880X0.00040*%
%ADD428R,0.11960X0.00040*%
%ADD429R,0.11720X0.00040*%
%ADD430R,0.11320X0.00040*%
%ADD431R,0.02760X0.00040*%
%ADD432R,0.05400X0.00040*%
%ADD433R,0.02640X0.00040*%
%ADD434R,0.05160X0.00040*%
%ADD435R,0.02560X0.00040*%
%ADD436R,0.05000X0.00040*%
%ADD437R,0.02440X0.00040*%
%ADD438R,0.04760X0.00040*%
%ADD439R,0.02440X0.00040*%
%ADD440R,0.02360X0.00040*%
%ADD441R,0.04600X0.00040*%
%ADD442R,0.02280X0.00040*%
%ADD443R,0.02240X0.00040*%
%ADD444R,0.02160X0.00040*%
%ADD445R,0.02080X0.00040*%
%ADD446R,0.01960X0.00040*%
%ADD447R,0.01880X0.00040*%
%ADD448R,0.03640X0.00040*%
%ADD449R,0.03400X0.00040*%
%ADD450R,0.03240X0.00040*%
%ADD451R,0.03000X0.00040*%
%ADD452R,0.02920X0.00040*%
%ADD453R,0.01360X0.00040*%
%ADD454R,0.02840X0.00040*%
%ADD455R,0.02840X0.00040*%
%ADD456R,0.02760X0.00040*%
%ADD457R,0.02680X0.00040*%
%ADD458R,0.02680X0.00040*%
%ADD459R,0.02600X0.00040*%
%ADD460R,0.02520X0.00040*%
%ADD461R,0.02520X0.00040*%
%ADD462R,0.02440X0.00040*%
%ADD463R,0.02360X0.00040*%
%ADD464R,0.02280X0.00040*%
%ADD465R,0.02200X0.00040*%
%ADD466R,0.02120X0.00040*%
D10*
X0008034Y0064150D02*
X0008034Y0067853D01*
X0010502Y0067853D01*
X0012334Y0066619D02*
X0013568Y0066619D01*
X0014186Y0066002D01*
X0014186Y0064150D01*
X0012334Y0064150D01*
X0011717Y0064767D01*
X0012334Y0065384D01*
X0014186Y0065384D01*
X0015400Y0066002D02*
X0017252Y0066002D01*
X0017869Y0065384D01*
X0017869Y0064767D01*
X0017252Y0064150D01*
X0015400Y0064150D01*
X0015400Y0067853D01*
X0017252Y0067853D01*
X0017869Y0067236D01*
X0017869Y0066619D01*
X0017252Y0066002D01*
X0019083Y0066002D02*
X0019083Y0064767D01*
X0019700Y0064150D01*
X0020935Y0064150D01*
X0021552Y0064767D01*
X0021552Y0066002D01*
X0020935Y0066619D01*
X0019700Y0066619D01*
X0019083Y0066002D01*
X0009268Y0066002D02*
X0008034Y0066002D01*
X0026650Y0084634D02*
X0027134Y0084150D01*
X0028101Y0084150D01*
X0028585Y0084634D01*
X0028585Y0087052D01*
X0029597Y0086569D02*
X0030080Y0087052D01*
X0031048Y0087052D01*
X0031531Y0086569D01*
X0031531Y0086085D01*
X0029597Y0084150D01*
X0031531Y0084150D01*
X0026650Y0084634D02*
X0026650Y0087052D01*
X0035948Y0078548D02*
X0036431Y0079031D01*
X0036915Y0079031D01*
X0037399Y0078548D01*
X0037883Y0079031D01*
X0038366Y0079031D01*
X0038850Y0078548D01*
X0038850Y0077580D01*
X0038366Y0077097D01*
X0038366Y0076085D02*
X0038850Y0075601D01*
X0038850Y0074634D01*
X0038366Y0074150D01*
X0036431Y0074150D01*
X0035948Y0074634D01*
X0035948Y0075601D01*
X0036431Y0076085D01*
X0036431Y0077097D02*
X0035948Y0077580D01*
X0035948Y0078548D01*
X0037399Y0078548D02*
X0037399Y0078064D01*
X0038257Y0055102D02*
X0039708Y0055102D01*
X0040192Y0054619D01*
X0040192Y0053651D01*
X0039708Y0053167D01*
X0038257Y0053167D01*
X0038257Y0052200D02*
X0038257Y0055102D01*
X0039224Y0053167D02*
X0040192Y0052200D01*
X0041203Y0052684D02*
X0041687Y0052200D01*
X0042655Y0052200D01*
X0043138Y0052684D01*
X0043138Y0053167D01*
X0042655Y0053651D01*
X0041203Y0053651D01*
X0041203Y0052684D01*
X0041203Y0053651D02*
X0042171Y0054619D01*
X0043138Y0055102D01*
X0047548Y0046531D02*
X0050450Y0044597D01*
X0050450Y0043585D02*
X0049483Y0042617D01*
X0049483Y0043101D02*
X0049483Y0041650D01*
X0050450Y0041650D02*
X0047548Y0041650D01*
X0047548Y0043101D01*
X0048031Y0043585D01*
X0048999Y0043585D01*
X0049483Y0043101D01*
X0047548Y0044597D02*
X0050450Y0046531D01*
X0057548Y0046531D02*
X0060450Y0044597D01*
X0060450Y0046531D02*
X0057548Y0044597D01*
X0057548Y0043585D02*
X0057548Y0041650D01*
X0057548Y0042617D02*
X0060450Y0042617D01*
X0067548Y0041650D02*
X0069483Y0041650D01*
X0070450Y0042617D01*
X0069483Y0043585D01*
X0067548Y0043585D01*
X0068031Y0044597D02*
X0067548Y0045080D01*
X0067548Y0046048D01*
X0068031Y0046531D01*
X0068031Y0047543D02*
X0067548Y0048027D01*
X0067548Y0048994D01*
X0068031Y0049478D01*
X0068031Y0047543D02*
X0069966Y0047543D01*
X0070450Y0048027D01*
X0070450Y0048994D01*
X0069966Y0049478D01*
X0069966Y0046531D02*
X0070450Y0046048D01*
X0070450Y0045080D01*
X0069966Y0044597D01*
X0068031Y0044597D01*
X0077548Y0044597D02*
X0080450Y0046531D01*
X0077548Y0046531D01*
X0077548Y0047543D02*
X0077548Y0048994D01*
X0078031Y0049478D01*
X0079966Y0049478D01*
X0080450Y0048994D01*
X0080450Y0047543D01*
X0077548Y0047543D01*
X0077548Y0044597D02*
X0080450Y0044597D01*
X0079966Y0043585D02*
X0078999Y0043585D01*
X0078999Y0042617D01*
X0079966Y0041650D02*
X0078031Y0041650D01*
X0077548Y0042134D01*
X0077548Y0043101D01*
X0078031Y0043585D01*
X0079966Y0043585D02*
X0080450Y0043101D01*
X0080450Y0042134D01*
X0079966Y0041650D01*
X0092900Y0062900D02*
X0092900Y0065802D01*
X0094351Y0065802D01*
X0094835Y0065319D01*
X0094835Y0064351D01*
X0094351Y0063867D01*
X0092900Y0063867D01*
X0093867Y0063867D02*
X0094835Y0062900D01*
X0095847Y0064351D02*
X0097781Y0064351D01*
X0097298Y0062900D02*
X0097298Y0065802D01*
X0095847Y0064351D01*
X0096330Y0071650D02*
X0095847Y0072134D01*
X0096330Y0071650D02*
X0097298Y0071650D01*
X0097781Y0072134D01*
X0097781Y0072617D01*
X0097298Y0073101D01*
X0096814Y0073101D01*
X0097298Y0073101D02*
X0097781Y0073585D01*
X0097781Y0074069D01*
X0097298Y0074552D01*
X0096330Y0074552D01*
X0095847Y0074069D01*
X0094835Y0074069D02*
X0094835Y0073101D01*
X0094351Y0072617D01*
X0092900Y0072617D01*
X0092900Y0071650D02*
X0092900Y0074552D01*
X0094351Y0074552D01*
X0094835Y0074069D01*
X0093867Y0072617D02*
X0094835Y0071650D01*
X0094835Y0080400D02*
X0093867Y0081367D01*
X0094351Y0081367D02*
X0092900Y0081367D01*
X0092900Y0080400D02*
X0092900Y0083302D01*
X0094351Y0083302D01*
X0094835Y0082819D01*
X0094835Y0081851D01*
X0094351Y0081367D01*
X0095847Y0080884D02*
X0096330Y0080400D01*
X0097298Y0080400D01*
X0097781Y0080884D01*
X0097781Y0081851D01*
X0097298Y0082335D01*
X0096814Y0082335D01*
X0095847Y0081851D01*
X0095847Y0083302D01*
X0097781Y0083302D01*
X0100950Y0047220D02*
X0100950Y0046603D01*
X0100950Y0045369D02*
X0100950Y0042900D01*
X0100333Y0042900D02*
X0101568Y0042900D01*
X0102789Y0044752D02*
X0105257Y0044752D01*
X0106472Y0045369D02*
X0107089Y0044752D01*
X0108323Y0044752D01*
X0108940Y0044134D01*
X0108940Y0043517D01*
X0108323Y0042900D01*
X0107089Y0042900D01*
X0106472Y0043517D01*
X0106472Y0045369D02*
X0106472Y0045986D01*
X0107089Y0046603D01*
X0108323Y0046603D01*
X0108940Y0045986D01*
X0110155Y0046603D02*
X0110155Y0043517D01*
X0110772Y0042900D01*
X0112006Y0042900D01*
X0112624Y0043517D01*
X0112624Y0046603D01*
X0113838Y0046603D02*
X0116307Y0042900D01*
X0116307Y0046603D01*
X0113838Y0046603D02*
X0113838Y0042900D01*
X0113340Y0039069D02*
X0113340Y0037134D01*
X0113823Y0036650D01*
X0114820Y0037134D02*
X0115304Y0037617D01*
X0116755Y0037617D01*
X0116755Y0038101D02*
X0116755Y0036650D01*
X0115304Y0036650D01*
X0114820Y0037134D01*
X0115304Y0038585D02*
X0116271Y0038585D01*
X0116755Y0038101D01*
X0113823Y0038585D02*
X0112856Y0038585D01*
X0111844Y0038101D02*
X0111844Y0037617D01*
X0109909Y0037617D01*
X0109909Y0037134D02*
X0109909Y0038101D01*
X0110393Y0038585D01*
X0111361Y0038585D01*
X0111844Y0038101D01*
X0111361Y0036650D02*
X0110393Y0036650D01*
X0109909Y0037134D01*
X0108898Y0037134D02*
X0108414Y0036650D01*
X0106963Y0036650D01*
X0106963Y0039552D01*
X0108414Y0039552D01*
X0108898Y0039069D01*
X0108898Y0038585D01*
X0108414Y0038101D01*
X0106963Y0038101D01*
X0105973Y0037134D02*
X0105973Y0036650D01*
X0105490Y0036650D01*
X0105490Y0037134D01*
X0105973Y0037134D01*
X0104478Y0037617D02*
X0104478Y0039552D01*
X0104478Y0037617D02*
X0103511Y0036650D01*
X0102543Y0037617D01*
X0102543Y0039552D01*
X0101531Y0039552D02*
X0099597Y0039552D01*
X0099597Y0036650D01*
X0101531Y0036650D01*
X0100564Y0038101D02*
X0099597Y0038101D01*
X0098585Y0038101D02*
X0098101Y0037617D01*
X0096650Y0037617D01*
X0096650Y0036650D02*
X0096650Y0039552D01*
X0098101Y0039552D01*
X0098585Y0039069D01*
X0098585Y0038101D01*
X0097617Y0037617D02*
X0098585Y0036650D01*
X0099119Y0042900D02*
X0099119Y0046603D01*
X0100333Y0045369D02*
X0100950Y0045369D01*
X0099119Y0042900D02*
X0097884Y0044134D01*
X0096650Y0042900D01*
X0096650Y0046603D01*
X0108414Y0038101D02*
X0108898Y0037617D01*
X0108898Y0037134D01*
X0061978Y0104322D02*
X0060043Y0104322D01*
X0061011Y0104322D02*
X0061011Y0107224D01*
X0060043Y0106257D01*
X0059031Y0107224D02*
X0059031Y0104322D01*
X0057097Y0107224D01*
X0057097Y0104322D01*
X0056085Y0104805D02*
X0055601Y0104322D01*
X0054634Y0104322D01*
X0054150Y0104805D01*
X0054150Y0106740D01*
X0054634Y0107224D01*
X0055601Y0107224D01*
X0056085Y0106740D01*
D11*
X0050417Y0112465D02*
X0050417Y0099079D01*
X0077583Y0099079D01*
X0077583Y0112465D01*
X0050417Y0112465D01*
X0039000Y0040250D02*
X0089000Y0040250D01*
X0089000Y0004000D01*
X0039000Y0004000D02*
X0039000Y0040250D01*
D12*
X0004000Y0019000D02*
X0004000Y0119000D01*
X0004000Y0019000D02*
X0004004Y0018638D01*
X0004018Y0018275D01*
X0004039Y0017913D01*
X0004070Y0017552D01*
X0004109Y0017192D01*
X0004157Y0016833D01*
X0004214Y0016475D01*
X0004279Y0016118D01*
X0004353Y0015763D01*
X0004436Y0015410D01*
X0004527Y0015059D01*
X0004626Y0014711D01*
X0004734Y0014365D01*
X0004850Y0014021D01*
X0004975Y0013681D01*
X0005107Y0013344D01*
X0005248Y0013010D01*
X0005397Y0012679D01*
X0005554Y0012352D01*
X0005718Y0012029D01*
X0005890Y0011710D01*
X0006070Y0011396D01*
X0006258Y0011085D01*
X0006453Y0010780D01*
X0006655Y0010479D01*
X0006865Y0010183D01*
X0007081Y0009893D01*
X0007305Y0009607D01*
X0007535Y0009327D01*
X0007772Y0009053D01*
X0008016Y0008785D01*
X0008266Y0008522D01*
X0008522Y0008266D01*
X0008785Y0008016D01*
X0009053Y0007772D01*
X0009327Y0007535D01*
X0009607Y0007305D01*
X0009893Y0007081D01*
X0010183Y0006865D01*
X0010479Y0006655D01*
X0010780Y0006453D01*
X0011085Y0006258D01*
X0011396Y0006070D01*
X0011710Y0005890D01*
X0012029Y0005718D01*
X0012352Y0005554D01*
X0012679Y0005397D01*
X0013010Y0005248D01*
X0013344Y0005107D01*
X0013681Y0004975D01*
X0014021Y0004850D01*
X0014365Y0004734D01*
X0014711Y0004626D01*
X0015059Y0004527D01*
X0015410Y0004436D01*
X0015763Y0004353D01*
X0016118Y0004279D01*
X0016475Y0004214D01*
X0016833Y0004157D01*
X0017192Y0004109D01*
X0017552Y0004070D01*
X0017913Y0004039D01*
X0018275Y0004018D01*
X0018638Y0004004D01*
X0019000Y0004000D01*
X0109000Y0004000D01*
X0109362Y0004004D01*
X0109725Y0004018D01*
X0110087Y0004039D01*
X0110448Y0004070D01*
X0110808Y0004109D01*
X0111167Y0004157D01*
X0111525Y0004214D01*
X0111882Y0004279D01*
X0112237Y0004353D01*
X0112590Y0004436D01*
X0112941Y0004527D01*
X0113289Y0004626D01*
X0113635Y0004734D01*
X0113979Y0004850D01*
X0114319Y0004975D01*
X0114656Y0005107D01*
X0114990Y0005248D01*
X0115321Y0005397D01*
X0115648Y0005554D01*
X0115971Y0005718D01*
X0116290Y0005890D01*
X0116604Y0006070D01*
X0116915Y0006258D01*
X0117220Y0006453D01*
X0117521Y0006655D01*
X0117817Y0006865D01*
X0118107Y0007081D01*
X0118393Y0007305D01*
X0118673Y0007535D01*
X0118947Y0007772D01*
X0119215Y0008016D01*
X0119478Y0008266D01*
X0119734Y0008522D01*
X0119984Y0008785D01*
X0120228Y0009053D01*
X0120465Y0009327D01*
X0120695Y0009607D01*
X0120919Y0009893D01*
X0121135Y0010183D01*
X0121345Y0010479D01*
X0121547Y0010780D01*
X0121742Y0011085D01*
X0121930Y0011396D01*
X0122110Y0011710D01*
X0122282Y0012029D01*
X0122446Y0012352D01*
X0122603Y0012679D01*
X0122752Y0013010D01*
X0122893Y0013344D01*
X0123025Y0013681D01*
X0123150Y0014021D01*
X0123266Y0014365D01*
X0123374Y0014711D01*
X0123473Y0015059D01*
X0123564Y0015410D01*
X0123647Y0015763D01*
X0123721Y0016118D01*
X0123786Y0016475D01*
X0123843Y0016833D01*
X0123891Y0017192D01*
X0123930Y0017552D01*
X0123961Y0017913D01*
X0123982Y0018275D01*
X0123996Y0018638D01*
X0124000Y0019000D01*
X0124000Y0119000D01*
X0123982Y0120461D01*
X0123929Y0121921D01*
X0123840Y0123380D01*
X0123716Y0124836D01*
X0123556Y0126288D01*
X0123361Y0127736D01*
X0123130Y0129179D01*
X0122865Y0130616D01*
X0122565Y0132046D01*
X0122230Y0133468D01*
X0121860Y0134882D01*
X0121456Y0136286D01*
X0121018Y0137680D01*
X0120546Y0139063D01*
X0120041Y0140434D01*
X0119502Y0141792D01*
X0118931Y0143137D01*
X0118327Y0144467D01*
X0117691Y0145783D01*
X0117023Y0147082D01*
X0116323Y0148365D01*
X0115592Y0149630D01*
X0114831Y0150878D01*
X0114040Y0152106D01*
X0113219Y0153315D01*
X0112369Y0154503D01*
X0111490Y0155670D01*
X0110583Y0156816D01*
X0109648Y0157939D01*
X0108686Y0159039D01*
X0107698Y0160115D01*
X0106684Y0161167D01*
X0105644Y0162194D01*
X0104580Y0163195D01*
X0103492Y0164171D01*
X0102380Y0165119D01*
X0101246Y0166040D01*
X0100089Y0166933D01*
X0098912Y0167797D01*
X0097713Y0168633D01*
X0096494Y0169439D01*
X0095256Y0170216D01*
X0094000Y0170962D01*
X0092726Y0171677D01*
X0091435Y0172361D01*
X0090127Y0173013D01*
X0088804Y0173633D01*
X0087466Y0174221D01*
X0086115Y0174776D01*
X0084750Y0175298D01*
X0083373Y0175786D01*
X0081984Y0176241D01*
X0080585Y0176662D01*
X0079176Y0177049D01*
X0077758Y0177401D01*
X0076332Y0177719D01*
X0074898Y0178002D01*
X0073458Y0178250D01*
X0072013Y0178463D01*
X0070562Y0178640D01*
X0069108Y0178782D01*
X0067651Y0178889D01*
X0066191Y0178960D01*
X0064731Y0178996D01*
X0063269Y0178996D01*
X0061809Y0178960D01*
X0060349Y0178889D01*
X0058892Y0178782D01*
X0057438Y0178640D01*
X0055987Y0178463D01*
X0054542Y0178250D01*
X0053102Y0178002D01*
X0051668Y0177719D01*
X0050242Y0177401D01*
X0048824Y0177049D01*
X0047415Y0176662D01*
X0046016Y0176241D01*
X0044627Y0175786D01*
X0043250Y0175298D01*
X0041885Y0174776D01*
X0040534Y0174221D01*
X0039196Y0173633D01*
X0037873Y0173013D01*
X0036565Y0172361D01*
X0035274Y0171677D01*
X0034000Y0170962D01*
X0032744Y0170216D01*
X0031506Y0169439D01*
X0030287Y0168633D01*
X0029088Y0167797D01*
X0027911Y0166933D01*
X0026754Y0166040D01*
X0025620Y0165119D01*
X0024508Y0164171D01*
X0023420Y0163195D01*
X0022356Y0162194D01*
X0021316Y0161167D01*
X0020302Y0160115D01*
X0019314Y0159039D01*
X0018352Y0157939D01*
X0017417Y0156816D01*
X0016510Y0155670D01*
X0015631Y0154503D01*
X0014781Y0153315D01*
X0013960Y0152106D01*
X0013169Y0150878D01*
X0012408Y0149630D01*
X0011677Y0148365D01*
X0010977Y0147082D01*
X0010309Y0145783D01*
X0009673Y0144467D01*
X0009069Y0143137D01*
X0008498Y0141792D01*
X0007959Y0140434D01*
X0007454Y0139063D01*
X0006982Y0137680D01*
X0006544Y0136286D01*
X0006140Y0134882D01*
X0005770Y0133468D01*
X0005435Y0132046D01*
X0005135Y0130616D01*
X0004870Y0129179D01*
X0004639Y0127736D01*
X0004444Y0126288D01*
X0004284Y0124836D01*
X0004160Y0123380D01*
X0004071Y0121921D01*
X0004018Y0120461D01*
X0004000Y0119000D01*
D13*
X0041500Y0057750D03*
X0095250Y0060250D03*
X0095250Y0069000D03*
X0095250Y0077750D03*
D14*
X0069512Y0069394D02*
X0069512Y0066244D01*
X0067150Y0066244D01*
X0060850Y0066244D02*
X0058488Y0066244D01*
X0058488Y0069394D01*
D15*
X0058460Y0061951D02*
X0059211Y0061951D01*
X0059461Y0061701D01*
X0059461Y0061451D01*
X0059211Y0061201D01*
X0058460Y0061201D01*
X0058460Y0061951D02*
X0058460Y0060450D01*
X0059211Y0060450D01*
X0059461Y0060700D01*
X0059461Y0060950D01*
X0059211Y0061201D01*
X0059934Y0061451D02*
X0060184Y0061201D01*
X0060684Y0061201D01*
X0060935Y0060950D01*
X0060935Y0060700D01*
X0060684Y0060450D01*
X0060184Y0060450D01*
X0059934Y0060700D01*
X0059934Y0061451D02*
X0059934Y0061701D01*
X0060184Y0061951D01*
X0060684Y0061951D01*
X0060935Y0061701D01*
X0061407Y0061701D02*
X0061407Y0061451D01*
X0061657Y0061201D01*
X0062158Y0061201D01*
X0062408Y0060950D01*
X0062408Y0060700D01*
X0062158Y0060450D01*
X0061657Y0060450D01*
X0061407Y0060700D01*
X0061407Y0061701D02*
X0061657Y0061951D01*
X0062158Y0061951D01*
X0062408Y0061701D01*
X0062880Y0061451D02*
X0063381Y0061951D01*
X0063381Y0060450D01*
X0063881Y0060450D02*
X0062880Y0060450D01*
X0064353Y0060700D02*
X0064604Y0060450D01*
X0065104Y0060450D01*
X0065354Y0060700D01*
X0065354Y0060950D01*
X0065104Y0061201D01*
X0064854Y0061201D01*
X0065104Y0061201D02*
X0065354Y0061451D01*
X0065354Y0061701D01*
X0065104Y0061951D01*
X0064604Y0061951D01*
X0064353Y0061701D01*
X0065827Y0061701D02*
X0065827Y0061451D01*
X0066077Y0061201D01*
X0066577Y0061201D01*
X0066828Y0060950D01*
X0066828Y0060700D01*
X0066577Y0060450D01*
X0066077Y0060450D01*
X0065827Y0060700D01*
X0065827Y0060950D01*
X0066077Y0061201D01*
X0066577Y0061201D02*
X0066828Y0061451D01*
X0066828Y0061701D01*
X0066577Y0061951D01*
X0066077Y0061951D01*
X0065827Y0061701D01*
D16*
X0034598Y0073311D02*
X0034228Y0073311D01*
X0034598Y0073311D02*
X0034598Y0079689D01*
X0034228Y0079689D01*
X0031055Y0079689D02*
X0026945Y0079689D01*
X0023772Y0079689D02*
X0023402Y0079689D01*
X0023402Y0073311D01*
X0023772Y0073311D01*
X0026945Y0073311D02*
X0027315Y0073311D01*
X0030685Y0073311D02*
X0031055Y0073311D01*
D17*
X0018173Y0060850D03*
X0010648Y0060080D03*
X0010823Y0053115D03*
X0010787Y0053045D03*
X0010648Y0052730D03*
X0010613Y0052695D03*
X0010613Y0052660D03*
X0010577Y0052625D03*
X0014777Y0046500D03*
D18*
X0014777Y0046535D03*
X0017717Y0048390D03*
X0017752Y0048425D03*
X0017788Y0048460D03*
X0016702Y0049930D03*
X0019188Y0051155D03*
X0019188Y0051190D03*
X0019188Y0051225D03*
X0019223Y0051260D03*
X0019223Y0051295D03*
X0016317Y0053325D03*
X0012712Y0052975D03*
X0012677Y0052940D03*
X0012608Y0052835D03*
X0012573Y0052800D03*
X0012537Y0052730D03*
X0012502Y0052695D03*
X0012467Y0052625D03*
X0011277Y0054060D03*
X0012537Y0049965D03*
X0012573Y0049930D03*
X0007462Y0053150D03*
X0010752Y0059485D03*
X0014777Y0060815D03*
X0018102Y0060360D03*
D19*
X0018015Y0059765D03*
X0018015Y0059730D03*
X0014760Y0060255D03*
X0014760Y0060290D03*
X0010910Y0058610D03*
X0010910Y0058575D03*
X0010910Y0058540D03*
X0011505Y0054410D03*
X0013535Y0053500D03*
X0013220Y0049475D03*
X0014760Y0046570D03*
X0016475Y0049615D03*
X0017140Y0047935D03*
X0019345Y0052135D03*
X0019345Y0052170D03*
X0007515Y0052905D03*
D20*
X0011277Y0056650D03*
X0011173Y0057070D03*
X0011173Y0057105D03*
X0011627Y0054585D03*
X0013448Y0049440D03*
X0014777Y0046605D03*
X0010998Y0048530D03*
X0017263Y0054760D03*
X0019363Y0052625D03*
D21*
X0019345Y0053010D03*
X0020255Y0055320D03*
X0020255Y0055355D03*
X0020290Y0055390D03*
X0014585Y0058435D03*
X0014585Y0058470D03*
X0014585Y0058505D03*
X0014585Y0058540D03*
X0014585Y0058575D03*
X0011785Y0054725D03*
X0010000Y0049510D03*
X0010035Y0049475D03*
X0014410Y0049055D03*
X0014760Y0046640D03*
D22*
X0014760Y0046675D03*
X0016020Y0049440D03*
X0019310Y0053290D03*
X0014445Y0056895D03*
X0014445Y0056930D03*
X0014445Y0056965D03*
X0014445Y0057000D03*
X0014445Y0057035D03*
X0014445Y0057070D03*
X0009685Y0049895D03*
X0007865Y0052380D03*
D23*
X0011995Y0054900D03*
X0014410Y0056195D03*
X0014410Y0056230D03*
X0014410Y0056265D03*
X0014410Y0056300D03*
X0014760Y0046710D03*
D24*
X0014742Y0046745D03*
X0019257Y0053675D03*
D25*
X0014410Y0049230D03*
X0014725Y0046780D03*
X0009125Y0050735D03*
D26*
X0008985Y0050980D03*
X0014725Y0046815D03*
X0019170Y0053955D03*
D27*
X0019117Y0054095D03*
X0014707Y0046850D03*
X0008863Y0051260D03*
D28*
X0008775Y0051505D03*
X0008775Y0051540D03*
X0014725Y0046885D03*
X0019065Y0054200D03*
D29*
X0014742Y0053535D03*
X0014707Y0046920D03*
X0008723Y0051750D03*
X0008723Y0051785D03*
X0008723Y0051820D03*
D30*
X0014707Y0046955D03*
D31*
X0014690Y0046990D03*
X0018960Y0054445D03*
X0008670Y0052275D03*
D32*
X0014673Y0047025D03*
D33*
X0014672Y0047060D03*
X0018872Y0054585D03*
D34*
X0014655Y0047095D03*
D35*
X0014637Y0047130D03*
D36*
X0014637Y0047165D03*
D37*
X0014620Y0047200D03*
D38*
X0014620Y0047235D03*
D39*
X0014602Y0047270D03*
D40*
X0014602Y0047305D03*
X0015617Y0055705D03*
X0015617Y0055740D03*
X0015652Y0055845D03*
D41*
X0014585Y0047340D03*
D42*
X0014567Y0047375D03*
D43*
X0014550Y0047410D03*
D44*
X0014550Y0047445D03*
D45*
X0014532Y0047480D03*
D46*
X0014515Y0047515D03*
D47*
X0014515Y0047550D03*
D48*
X0014497Y0047585D03*
D49*
X0014480Y0047620D03*
D50*
X0012677Y0047655D03*
X0009352Y0050350D03*
X0014427Y0055985D03*
X0019257Y0053570D03*
D51*
X0019327Y0053185D03*
X0019992Y0054900D03*
X0020027Y0054935D03*
X0016982Y0054935D03*
X0014497Y0057490D03*
X0014497Y0057525D03*
X0014497Y0057560D03*
X0014497Y0057595D03*
X0014497Y0057630D03*
X0014497Y0057665D03*
X0009738Y0049825D03*
X0009772Y0049790D03*
X0007812Y0052415D03*
X0016457Y0047655D03*
D52*
X0012537Y0047690D03*
X0009563Y0050070D03*
X0009527Y0050105D03*
X0014427Y0056510D03*
X0014427Y0056545D03*
X0014427Y0056580D03*
X0014427Y0056615D03*
X0014427Y0056650D03*
D53*
X0014620Y0058785D03*
X0014620Y0058820D03*
X0014620Y0058855D03*
X0014620Y0058890D03*
X0014620Y0058925D03*
X0017385Y0056370D03*
X0017315Y0056125D03*
X0017315Y0056090D03*
X0017280Y0056020D03*
X0017280Y0055985D03*
X0017245Y0055880D03*
X0017105Y0054865D03*
X0020360Y0055565D03*
X0020395Y0055635D03*
X0016615Y0047690D03*
X0010210Y0049265D03*
X0010140Y0049335D03*
X0007690Y0052555D03*
D54*
X0011907Y0054830D03*
X0014462Y0057105D03*
X0014462Y0057140D03*
X0014462Y0057175D03*
X0014462Y0057210D03*
X0014462Y0057245D03*
X0019923Y0054795D03*
X0019327Y0053255D03*
X0012398Y0047725D03*
D55*
X0011767Y0048005D03*
X0011697Y0048040D03*
X0010402Y0049055D03*
X0007637Y0052625D03*
X0011487Y0055950D03*
X0011487Y0055985D03*
X0011452Y0056020D03*
X0011452Y0056055D03*
X0011697Y0054655D03*
X0014672Y0059240D03*
X0014672Y0059275D03*
X0014672Y0059310D03*
X0014672Y0059345D03*
X0017788Y0058330D03*
X0017788Y0058295D03*
X0017788Y0058260D03*
X0017788Y0058225D03*
X0017752Y0058155D03*
X0017752Y0058120D03*
X0017752Y0058085D03*
X0017752Y0058050D03*
X0017717Y0057945D03*
X0017717Y0057910D03*
X0017717Y0057875D03*
X0019363Y0052800D03*
X0020517Y0055950D03*
X0020552Y0056020D03*
X0016702Y0047725D03*
D56*
X0014410Y0049090D03*
X0012310Y0047760D03*
X0019940Y0054830D03*
X0019975Y0054865D03*
D57*
X0020657Y0056300D03*
X0020657Y0056335D03*
X0017892Y0058890D03*
X0017892Y0058925D03*
X0017892Y0058960D03*
X0017892Y0058995D03*
X0014707Y0059590D03*
X0014707Y0059625D03*
X0014707Y0059660D03*
X0014707Y0059695D03*
X0011207Y0056965D03*
X0011207Y0056930D03*
X0011207Y0056895D03*
X0011242Y0056825D03*
X0011242Y0056790D03*
X0016807Y0047760D03*
D58*
X0020097Y0055040D03*
X0014532Y0057875D03*
X0014532Y0057910D03*
X0014532Y0057945D03*
X0014532Y0057980D03*
X0014532Y0058015D03*
X0009842Y0049685D03*
X0009877Y0049650D03*
X0012222Y0047795D03*
X0007777Y0052450D03*
D59*
X0007567Y0052765D03*
X0011102Y0057385D03*
X0011102Y0057420D03*
X0011102Y0057455D03*
X0011102Y0057490D03*
X0011067Y0057525D03*
X0011067Y0057560D03*
X0011067Y0057595D03*
X0011067Y0057630D03*
X0014742Y0059835D03*
X0017927Y0059205D03*
X0017927Y0059170D03*
X0017927Y0059135D03*
X0020692Y0056440D03*
X0019363Y0052520D03*
X0016877Y0047795D03*
D60*
X0020167Y0055180D03*
X0014567Y0058260D03*
X0014567Y0058295D03*
X0014567Y0058330D03*
X0014567Y0058365D03*
X0014567Y0058400D03*
X0009982Y0049545D03*
X0012117Y0047830D03*
X0007742Y0052485D03*
D61*
X0007567Y0052800D03*
X0011032Y0057805D03*
X0011032Y0057840D03*
X0011032Y0057875D03*
X0010998Y0057945D03*
X0010998Y0057980D03*
X0010998Y0058015D03*
X0014742Y0059940D03*
X0014742Y0059975D03*
X0014742Y0060010D03*
X0017963Y0059415D03*
X0017963Y0059380D03*
X0017963Y0059345D03*
X0020727Y0056545D03*
X0019363Y0052450D03*
X0019363Y0052415D03*
X0019363Y0052380D03*
X0016948Y0047830D03*
X0014812Y0053955D03*
D62*
X0017263Y0055915D03*
X0017263Y0055950D03*
X0020308Y0055460D03*
X0020308Y0055425D03*
X0020342Y0055495D03*
X0020342Y0055530D03*
X0020377Y0055600D03*
X0019363Y0052975D03*
X0019363Y0052940D03*
X0014602Y0058610D03*
X0014602Y0058645D03*
X0014602Y0058680D03*
X0014602Y0058715D03*
X0014602Y0058750D03*
X0010052Y0049440D03*
X0010088Y0049405D03*
X0010123Y0049370D03*
X0011977Y0047900D03*
X0012048Y0047865D03*
X0007708Y0052520D03*
D63*
X0007532Y0052870D03*
X0010962Y0058155D03*
X0010962Y0058190D03*
X0010962Y0058225D03*
X0010962Y0058260D03*
X0011557Y0054480D03*
X0014742Y0060080D03*
X0017997Y0059625D03*
X0017997Y0059590D03*
X0017997Y0059555D03*
X0020763Y0056650D03*
X0019363Y0052345D03*
X0019363Y0052310D03*
X0017017Y0047865D03*
X0016422Y0049580D03*
X0014427Y0048985D03*
D64*
X0017088Y0047900D03*
X0019363Y0052205D03*
X0019363Y0052240D03*
D65*
X0019363Y0052870D03*
X0019363Y0052905D03*
X0020413Y0055670D03*
X0020413Y0055705D03*
X0020448Y0055740D03*
X0020448Y0055775D03*
X0020482Y0055845D03*
X0017438Y0056545D03*
X0017438Y0056580D03*
X0017438Y0056615D03*
X0017473Y0056685D03*
X0017473Y0056720D03*
X0017473Y0056755D03*
X0017507Y0056860D03*
X0017507Y0056895D03*
X0017542Y0057035D03*
X0017542Y0057070D03*
X0017577Y0057210D03*
X0017613Y0057385D03*
X0017402Y0056510D03*
X0017402Y0056475D03*
X0017402Y0056440D03*
X0017402Y0056405D03*
X0017367Y0056335D03*
X0017367Y0056300D03*
X0017367Y0056265D03*
X0017332Y0056195D03*
X0017332Y0056160D03*
X0017298Y0056055D03*
X0014812Y0053920D03*
X0011732Y0054690D03*
X0011557Y0055740D03*
X0011557Y0055775D03*
X0011523Y0055845D03*
X0014637Y0058960D03*
X0014637Y0058995D03*
X0014637Y0059030D03*
X0014637Y0059065D03*
X0016212Y0049475D03*
X0011907Y0047935D03*
X0011837Y0047970D03*
X0010263Y0049230D03*
D66*
X0013150Y0049510D03*
X0016510Y0049650D03*
X0017210Y0047970D03*
X0019345Y0052030D03*
X0019345Y0052065D03*
X0020815Y0056825D03*
X0018050Y0059870D03*
X0018050Y0059905D03*
X0010875Y0058785D03*
X0010875Y0058750D03*
X0010875Y0058715D03*
D67*
X0010858Y0058820D03*
X0010858Y0058855D03*
X0010858Y0058890D03*
X0011452Y0054340D03*
X0007498Y0052975D03*
X0014777Y0060395D03*
X0014777Y0060430D03*
X0014777Y0060465D03*
X0018067Y0059940D03*
X0020833Y0056895D03*
X0020833Y0056860D03*
X0019327Y0051995D03*
X0019327Y0051960D03*
X0019327Y0051925D03*
X0017263Y0048005D03*
X0015967Y0053500D03*
D68*
X0013430Y0053465D03*
X0011435Y0054305D03*
X0010840Y0058925D03*
X0010840Y0058960D03*
X0010840Y0058995D03*
X0007480Y0053010D03*
X0016545Y0049685D03*
X0017315Y0048040D03*
D69*
X0019380Y0052765D03*
X0020535Y0055985D03*
X0020570Y0056055D03*
X0020570Y0056090D03*
X0017770Y0058190D03*
X0017805Y0058365D03*
X0017805Y0058400D03*
X0017805Y0058435D03*
X0017805Y0058470D03*
X0017840Y0058610D03*
X0014690Y0059380D03*
X0014690Y0059415D03*
X0014690Y0059450D03*
X0011365Y0056335D03*
X0011400Y0056230D03*
X0011400Y0056195D03*
X0011435Y0056160D03*
X0011435Y0056125D03*
X0011435Y0056090D03*
X0010455Y0049020D03*
X0010490Y0048985D03*
X0010525Y0048950D03*
X0010560Y0048915D03*
X0010595Y0048880D03*
X0010630Y0048845D03*
X0011645Y0048075D03*
D70*
X0012975Y0049580D03*
X0013325Y0053430D03*
X0016090Y0053465D03*
X0017385Y0048110D03*
X0017350Y0048075D03*
X0019310Y0051750D03*
X0019310Y0051785D03*
X0019310Y0051820D03*
X0020850Y0056965D03*
X0018085Y0060080D03*
D71*
X0017857Y0058715D03*
X0017857Y0058680D03*
X0017857Y0058645D03*
X0017822Y0058575D03*
X0017822Y0058540D03*
X0017822Y0058505D03*
X0017227Y0054795D03*
X0014707Y0059485D03*
X0011347Y0056405D03*
X0011347Y0056370D03*
X0011382Y0056300D03*
X0011382Y0056265D03*
X0010682Y0048810D03*
X0010717Y0048775D03*
X0010752Y0048740D03*
X0011417Y0048215D03*
X0011522Y0048145D03*
X0011592Y0048110D03*
X0014427Y0049020D03*
X0020622Y0056230D03*
D72*
X0020867Y0057000D03*
X0018067Y0060115D03*
X0014777Y0060570D03*
X0014777Y0060605D03*
X0010787Y0059205D03*
X0010787Y0059170D03*
X0011382Y0054235D03*
X0013272Y0053395D03*
X0016597Y0049755D03*
X0017438Y0048145D03*
X0019292Y0051680D03*
X0019292Y0051715D03*
D73*
X0019363Y0052695D03*
X0019363Y0052730D03*
X0020588Y0056125D03*
X0020588Y0056160D03*
X0011662Y0054620D03*
X0011312Y0056510D03*
X0007637Y0052660D03*
X0010787Y0048705D03*
X0011487Y0048180D03*
D74*
X0012905Y0049615D03*
X0016615Y0049790D03*
X0017490Y0048180D03*
X0019275Y0051575D03*
X0019275Y0051610D03*
X0019275Y0051645D03*
X0016160Y0053430D03*
X0013185Y0053360D03*
X0011365Y0054200D03*
X0014795Y0060640D03*
X0018085Y0060185D03*
X0018085Y0060150D03*
X0020885Y0057035D03*
D75*
X0018102Y0060220D03*
X0014777Y0060675D03*
X0011347Y0054165D03*
X0013132Y0053325D03*
X0012852Y0049650D03*
X0017542Y0048215D03*
X0019257Y0051505D03*
X0019257Y0051540D03*
D76*
X0019380Y0052660D03*
X0020605Y0056195D03*
X0020640Y0056265D03*
X0017875Y0058750D03*
X0017875Y0058785D03*
X0017875Y0058820D03*
X0017875Y0058855D03*
X0014690Y0059520D03*
X0014690Y0059555D03*
X0011225Y0056860D03*
X0011260Y0056755D03*
X0011260Y0056720D03*
X0011260Y0056685D03*
X0011295Y0056615D03*
X0011295Y0056580D03*
X0011295Y0056545D03*
X0011330Y0056475D03*
X0011330Y0056440D03*
X0007620Y0052695D03*
X0010840Y0048670D03*
X0010875Y0048635D03*
X0010910Y0048600D03*
X0010945Y0048565D03*
X0011050Y0048495D03*
X0011085Y0048460D03*
X0011120Y0048425D03*
X0011190Y0048390D03*
X0011225Y0048355D03*
X0011260Y0048320D03*
X0011330Y0048285D03*
X0011365Y0048250D03*
X0016300Y0049510D03*
D77*
X0016650Y0049825D03*
X0017560Y0048250D03*
X0016230Y0053395D03*
X0013080Y0053290D03*
X0013045Y0053255D03*
X0012975Y0053220D03*
X0011330Y0054130D03*
X0012765Y0049720D03*
X0012800Y0049685D03*
X0010770Y0059310D03*
X0010770Y0059345D03*
X0010770Y0059380D03*
X0014795Y0060710D03*
X0018085Y0060255D03*
X0020885Y0057070D03*
D78*
X0018102Y0060290D03*
X0014777Y0060745D03*
X0010752Y0059415D03*
X0012923Y0053185D03*
X0012887Y0053150D03*
X0012852Y0053115D03*
X0017648Y0048320D03*
X0017613Y0048285D03*
X0007462Y0053115D03*
D79*
X0011295Y0054095D03*
X0012625Y0052870D03*
X0012660Y0052905D03*
X0012765Y0053010D03*
X0012590Y0049895D03*
X0012625Y0049860D03*
X0012660Y0049825D03*
X0012695Y0049790D03*
X0012730Y0049755D03*
X0016300Y0053360D03*
X0016685Y0049895D03*
X0017700Y0048355D03*
X0019240Y0051330D03*
X0019240Y0051365D03*
X0020920Y0057105D03*
X0018120Y0060325D03*
X0014795Y0060780D03*
X0010735Y0059450D03*
D80*
X0010735Y0059520D03*
X0010735Y0059555D03*
X0011260Y0054025D03*
X0012555Y0052765D03*
X0012485Y0052660D03*
X0012415Y0052555D03*
X0012415Y0052520D03*
X0012380Y0052485D03*
X0012380Y0052450D03*
X0012345Y0052415D03*
X0012345Y0052380D03*
X0012310Y0052345D03*
X0012310Y0052310D03*
X0012310Y0052275D03*
X0012240Y0052100D03*
X0012205Y0051960D03*
X0012380Y0050210D03*
X0012415Y0050140D03*
X0012485Y0050035D03*
X0012520Y0050000D03*
X0016370Y0053290D03*
X0016720Y0050000D03*
X0016720Y0049965D03*
X0017840Y0048495D03*
X0019170Y0051085D03*
X0019170Y0051120D03*
X0020920Y0057140D03*
X0018120Y0060395D03*
D81*
X0020938Y0057175D03*
X0019152Y0051050D03*
X0019152Y0051015D03*
X0016738Y0050035D03*
X0017927Y0048600D03*
X0017892Y0048565D03*
X0017857Y0048530D03*
X0016492Y0053185D03*
X0016457Y0053220D03*
X0016423Y0053255D03*
X0012257Y0052170D03*
X0012257Y0052135D03*
X0012223Y0052065D03*
X0012223Y0052030D03*
X0012223Y0051995D03*
X0012187Y0051925D03*
X0012187Y0051890D03*
X0012187Y0051855D03*
X0012187Y0051820D03*
X0012152Y0051750D03*
X0012152Y0051715D03*
X0012152Y0051680D03*
X0012152Y0051645D03*
X0012152Y0051610D03*
X0012152Y0051575D03*
X0012152Y0051540D03*
X0012152Y0051505D03*
X0012152Y0051085D03*
X0012152Y0051050D03*
X0012152Y0051015D03*
X0012187Y0050805D03*
X0012187Y0050770D03*
X0012223Y0050630D03*
X0012223Y0050595D03*
X0012257Y0050525D03*
X0012257Y0050490D03*
X0012292Y0050420D03*
X0012292Y0050385D03*
X0012327Y0050350D03*
X0012327Y0050315D03*
X0012362Y0050280D03*
X0012362Y0050245D03*
X0012398Y0050175D03*
X0011242Y0053990D03*
X0007462Y0053185D03*
X0010717Y0059590D03*
X0010717Y0059625D03*
X0014777Y0060850D03*
D82*
X0014795Y0060885D03*
X0018120Y0060465D03*
X0018120Y0060430D03*
X0016545Y0053115D03*
X0016755Y0050105D03*
X0016755Y0050070D03*
X0017980Y0048670D03*
X0017945Y0048635D03*
X0012205Y0050665D03*
X0012205Y0050700D03*
X0012205Y0050735D03*
X0012170Y0050840D03*
X0012170Y0050875D03*
X0012170Y0050910D03*
X0012170Y0050945D03*
X0012170Y0050980D03*
X0012170Y0051785D03*
D83*
X0012135Y0051470D03*
X0012135Y0051435D03*
X0012135Y0051400D03*
X0012135Y0051365D03*
X0012135Y0051330D03*
X0012135Y0051295D03*
X0012135Y0051260D03*
X0012135Y0051225D03*
X0012135Y0051190D03*
X0012135Y0051155D03*
X0012135Y0051120D03*
X0012240Y0050560D03*
X0012275Y0050455D03*
X0011190Y0053920D03*
X0011225Y0053955D03*
X0016510Y0053150D03*
X0019135Y0050980D03*
X0019135Y0050945D03*
X0019135Y0050910D03*
X0018015Y0048705D03*
D84*
X0018032Y0048740D03*
X0018067Y0048775D03*
X0016772Y0050140D03*
X0016772Y0050175D03*
X0019082Y0050770D03*
X0019082Y0050805D03*
X0019117Y0050840D03*
X0019117Y0050875D03*
X0016597Y0053045D03*
X0016563Y0053080D03*
X0018138Y0060500D03*
X0020938Y0057210D03*
X0014777Y0060920D03*
X0010717Y0059660D03*
X0011172Y0053885D03*
D85*
X0014777Y0060955D03*
X0016702Y0052835D03*
X0016772Y0052625D03*
X0016772Y0052590D03*
X0016772Y0052555D03*
X0016772Y0052520D03*
X0016772Y0052485D03*
X0016772Y0052450D03*
X0016807Y0050525D03*
X0016807Y0050490D03*
X0016807Y0050455D03*
X0016807Y0050420D03*
X0016807Y0050385D03*
X0016807Y0050350D03*
X0016807Y0050315D03*
X0018207Y0048950D03*
X0018172Y0048915D03*
X0018242Y0048985D03*
X0018102Y0048810D03*
X0018977Y0050455D03*
X0019047Y0050630D03*
X0019047Y0050665D03*
D86*
X0019065Y0050700D03*
X0019065Y0050735D03*
X0019030Y0050595D03*
X0018155Y0048880D03*
X0018120Y0048845D03*
X0016790Y0050210D03*
X0016790Y0050245D03*
X0016790Y0050280D03*
X0016790Y0052415D03*
X0016755Y0052660D03*
X0016720Y0052800D03*
X0016685Y0052870D03*
X0016685Y0052905D03*
X0016650Y0052940D03*
X0016650Y0052975D03*
X0016615Y0053010D03*
X0011155Y0053850D03*
X0007445Y0053220D03*
X0010700Y0059695D03*
X0010700Y0059730D03*
D87*
X0010630Y0060220D03*
X0014445Y0048880D03*
X0018190Y0060990D03*
D88*
X0016913Y0048915D03*
X0016913Y0048880D03*
X0010402Y0052415D03*
X0010998Y0053535D03*
X0011032Y0053570D03*
X0010682Y0059940D03*
D89*
X0010700Y0059765D03*
X0014795Y0060990D03*
X0011120Y0053780D03*
X0014445Y0048915D03*
X0016825Y0049300D03*
X0016825Y0050560D03*
X0016825Y0050595D03*
X0016825Y0050630D03*
X0016825Y0050665D03*
X0016825Y0050700D03*
X0016825Y0050735D03*
X0016825Y0050770D03*
X0016825Y0050805D03*
X0016825Y0050840D03*
X0016825Y0050875D03*
X0016825Y0050910D03*
X0016825Y0050945D03*
X0016825Y0050980D03*
X0016825Y0051015D03*
X0016825Y0051050D03*
X0016825Y0051085D03*
X0016825Y0051120D03*
X0016825Y0051155D03*
X0018960Y0050420D03*
X0018960Y0050385D03*
X0018960Y0050350D03*
X0018925Y0050315D03*
X0018925Y0050280D03*
X0018890Y0050210D03*
X0018995Y0050490D03*
X0018330Y0049125D03*
X0018295Y0049090D03*
X0018295Y0049055D03*
X0018260Y0049020D03*
X0020955Y0057245D03*
D90*
X0014830Y0053990D03*
X0014445Y0048950D03*
X0010805Y0059100D03*
X0010805Y0059135D03*
X0007480Y0053045D03*
D91*
X0007445Y0053290D03*
X0010665Y0059905D03*
X0014795Y0061095D03*
X0018155Y0060710D03*
X0018155Y0060675D03*
X0016895Y0048950D03*
D92*
X0016877Y0048985D03*
X0016877Y0049020D03*
X0016877Y0049055D03*
X0020973Y0057280D03*
X0014777Y0061060D03*
X0010683Y0059870D03*
X0011067Y0053640D03*
D93*
X0011540Y0055810D03*
X0010315Y0049160D03*
X0010350Y0049125D03*
X0010385Y0049090D03*
X0017175Y0054830D03*
X0017490Y0056790D03*
X0017490Y0056825D03*
X0017525Y0056930D03*
X0017525Y0056965D03*
X0017525Y0057000D03*
X0017560Y0057105D03*
X0017560Y0057140D03*
X0017560Y0057175D03*
X0017665Y0057560D03*
X0017665Y0057595D03*
X0017665Y0057630D03*
X0017665Y0057665D03*
X0017665Y0057700D03*
X0017700Y0057735D03*
X0017700Y0057770D03*
X0017700Y0057805D03*
X0017700Y0057840D03*
X0017735Y0057980D03*
X0017735Y0058015D03*
X0020465Y0055810D03*
X0020500Y0055880D03*
X0020500Y0055915D03*
D94*
X0018155Y0060640D03*
X0018820Y0050035D03*
X0018785Y0049965D03*
X0018750Y0049895D03*
X0018750Y0049860D03*
X0018715Y0049825D03*
X0018715Y0049790D03*
X0018680Y0049755D03*
X0018680Y0049720D03*
X0018645Y0049685D03*
X0018645Y0049650D03*
X0018610Y0049615D03*
X0018610Y0049580D03*
X0018575Y0049545D03*
X0018540Y0049475D03*
X0018505Y0049405D03*
X0018435Y0049300D03*
X0016860Y0049160D03*
X0016860Y0049125D03*
X0016860Y0049090D03*
X0011085Y0053675D03*
X0011085Y0053710D03*
D95*
X0009475Y0050175D03*
X0009510Y0050140D03*
X0014410Y0049125D03*
X0015950Y0051190D03*
X0015950Y0051225D03*
X0015950Y0051260D03*
X0015950Y0051295D03*
X0015950Y0051330D03*
X0015950Y0051365D03*
X0015950Y0051400D03*
X0015950Y0051435D03*
X0015950Y0051470D03*
X0015950Y0051505D03*
X0015950Y0051540D03*
X0015950Y0051575D03*
X0015950Y0051610D03*
X0015950Y0051645D03*
X0014410Y0056475D03*
X0019310Y0053430D03*
X0019310Y0053395D03*
D96*
X0019275Y0053535D03*
X0014410Y0056020D03*
X0014410Y0056055D03*
X0014410Y0056090D03*
X0014410Y0056125D03*
X0014410Y0049160D03*
D97*
X0014848Y0054025D03*
X0011102Y0053745D03*
X0007427Y0053255D03*
X0014777Y0061025D03*
X0018138Y0060605D03*
X0018873Y0050175D03*
X0018873Y0050140D03*
X0018838Y0050105D03*
X0018838Y0050070D03*
X0018802Y0050000D03*
X0018523Y0049440D03*
X0018488Y0049370D03*
X0018452Y0049335D03*
X0018348Y0049160D03*
D98*
X0019380Y0052835D03*
X0017455Y0056650D03*
X0017595Y0057245D03*
X0017595Y0057280D03*
X0017595Y0057315D03*
X0017595Y0057350D03*
X0017630Y0057420D03*
X0017630Y0057455D03*
X0017630Y0057490D03*
X0017630Y0057525D03*
X0014655Y0059100D03*
X0014655Y0059135D03*
X0014655Y0059170D03*
X0014655Y0059205D03*
X0011505Y0055915D03*
X0011505Y0055880D03*
X0007655Y0052590D03*
X0010280Y0049195D03*
D99*
X0009230Y0050560D03*
X0009195Y0050595D03*
X0014410Y0049195D03*
X0019240Y0053710D03*
D100*
X0018907Y0050245D03*
X0018767Y0049930D03*
X0018557Y0049510D03*
X0018417Y0049265D03*
X0018382Y0049230D03*
X0018382Y0049195D03*
X0016842Y0049195D03*
X0016842Y0049230D03*
X0016842Y0049265D03*
X0010332Y0052380D03*
X0010682Y0059800D03*
X0010682Y0059835D03*
D101*
X0009038Y0050875D03*
X0014392Y0049265D03*
X0019188Y0053885D03*
D102*
X0017350Y0056230D03*
X0011575Y0055705D03*
X0010175Y0049300D03*
D103*
X0008967Y0051015D03*
X0008967Y0051050D03*
X0008932Y0051085D03*
X0014392Y0049300D03*
X0019152Y0053990D03*
D104*
X0014952Y0049335D03*
D105*
X0014935Y0049370D03*
X0018785Y0054690D03*
D106*
X0018750Y0054725D03*
X0014900Y0049405D03*
D107*
X0016563Y0049720D03*
X0013062Y0049545D03*
X0011417Y0054270D03*
X0010823Y0059030D03*
X0010823Y0059065D03*
X0014777Y0060500D03*
X0014777Y0060535D03*
X0018067Y0060045D03*
X0018067Y0060010D03*
X0019327Y0051890D03*
X0019327Y0051855D03*
D108*
X0019380Y0052485D03*
X0020710Y0056475D03*
X0020710Y0056510D03*
X0017945Y0059240D03*
X0017945Y0059275D03*
X0017945Y0059310D03*
X0016370Y0049545D03*
D109*
X0019345Y0053080D03*
X0020115Y0055075D03*
X0020150Y0055110D03*
X0020150Y0055145D03*
X0014550Y0058050D03*
X0014550Y0058085D03*
X0014550Y0058120D03*
X0014550Y0058155D03*
X0014550Y0058190D03*
X0014550Y0058225D03*
X0011820Y0054760D03*
X0009930Y0049580D03*
D110*
X0009913Y0049615D03*
X0020063Y0055005D03*
D111*
X0020045Y0054970D03*
X0019345Y0053150D03*
X0019345Y0053115D03*
X0014795Y0053885D03*
X0011855Y0054795D03*
X0014515Y0057700D03*
X0014515Y0057735D03*
X0014515Y0057770D03*
X0014515Y0057805D03*
X0014515Y0057840D03*
X0009790Y0049755D03*
X0009825Y0049720D03*
D112*
X0009720Y0049860D03*
X0014480Y0057280D03*
X0014480Y0057315D03*
X0014480Y0057350D03*
X0014480Y0057385D03*
X0014480Y0057420D03*
X0014480Y0057455D03*
X0019345Y0053220D03*
D113*
X0019257Y0051470D03*
X0019257Y0051435D03*
X0019257Y0051400D03*
X0016667Y0049860D03*
X0012817Y0053080D03*
X0012782Y0053045D03*
D114*
X0009650Y0049930D03*
D115*
X0009633Y0049965D03*
X0009598Y0050000D03*
X0014427Y0056860D03*
X0019888Y0054760D03*
X0019327Y0053325D03*
D116*
X0019310Y0053360D03*
X0016895Y0054970D03*
X0014795Y0053850D03*
X0014445Y0056685D03*
X0014445Y0056720D03*
X0014445Y0056755D03*
X0014445Y0056790D03*
X0014445Y0056825D03*
X0011960Y0054865D03*
X0009580Y0050035D03*
D117*
X0012450Y0050070D03*
X0012450Y0050105D03*
X0012275Y0052205D03*
X0012275Y0052240D03*
X0012450Y0052590D03*
D118*
X0009457Y0050210D03*
X0014427Y0056335D03*
X0014427Y0056370D03*
X0014427Y0056405D03*
X0014427Y0056440D03*
X0019292Y0053465D03*
D119*
X0019292Y0053500D03*
X0016807Y0055005D03*
X0014427Y0056160D03*
X0009422Y0050245D03*
D120*
X0009405Y0050280D03*
X0009370Y0050315D03*
X0014795Y0053815D03*
D121*
X0014410Y0055880D03*
X0014410Y0055915D03*
X0014410Y0055950D03*
X0012065Y0054935D03*
X0009335Y0050385D03*
D122*
X0009317Y0050420D03*
X0009283Y0050455D03*
X0019258Y0053640D03*
D123*
X0009265Y0050490D03*
D124*
X0009248Y0050525D03*
X0014777Y0053780D03*
D125*
X0016738Y0052765D03*
X0016738Y0052730D03*
X0016738Y0052695D03*
X0019013Y0050560D03*
X0019013Y0050525D03*
X0018138Y0060535D03*
X0018138Y0060570D03*
X0011137Y0053815D03*
D126*
X0012152Y0054970D03*
X0009177Y0050630D03*
X0019222Y0053745D03*
D127*
X0009160Y0050665D03*
D128*
X0009142Y0050700D03*
X0014777Y0053745D03*
X0016632Y0055040D03*
X0019222Y0053780D03*
D129*
X0009107Y0050770D03*
X0009073Y0050805D03*
D130*
X0009055Y0050840D03*
X0012240Y0055005D03*
X0019205Y0053850D03*
D131*
X0019170Y0053920D03*
X0014760Y0053710D03*
X0009020Y0050910D03*
D132*
X0009002Y0050945D03*
D133*
X0008915Y0051120D03*
X0014760Y0053675D03*
D134*
X0019152Y0054025D03*
X0008897Y0051155D03*
D135*
X0008880Y0051190D03*
X0008880Y0051225D03*
X0012380Y0055040D03*
D136*
X0014760Y0053640D03*
X0008845Y0051330D03*
X0008845Y0051295D03*
D137*
X0008827Y0051365D03*
X0019117Y0054130D03*
D138*
X0019100Y0054165D03*
X0008810Y0051400D03*
D139*
X0008792Y0051435D03*
X0008792Y0051470D03*
X0014742Y0053605D03*
D140*
X0008757Y0051610D03*
X0008757Y0051575D03*
D141*
X0008740Y0051645D03*
X0008740Y0051680D03*
X0019065Y0054235D03*
D142*
X0015967Y0051680D03*
D143*
X0008740Y0051715D03*
D144*
X0008705Y0051855D03*
X0008705Y0051890D03*
X0019030Y0054305D03*
D145*
X0019013Y0054340D03*
X0008688Y0051960D03*
X0008688Y0051925D03*
D146*
X0008705Y0051995D03*
X0018995Y0054375D03*
D147*
X0008688Y0052100D03*
X0008688Y0052065D03*
X0008688Y0052030D03*
D148*
X0007498Y0052940D03*
X0011487Y0054375D03*
X0014777Y0060325D03*
X0014777Y0060360D03*
X0019327Y0052100D03*
X0020798Y0056790D03*
D149*
X0008670Y0052135D03*
D150*
X0008688Y0052170D03*
X0008688Y0052205D03*
X0008688Y0052240D03*
D151*
X0010945Y0058295D03*
X0010945Y0058330D03*
X0010945Y0058365D03*
X0011540Y0054445D03*
X0014760Y0060115D03*
X0014760Y0060150D03*
X0014760Y0060185D03*
X0018015Y0059695D03*
X0018015Y0059660D03*
X0020780Y0056720D03*
X0020780Y0056685D03*
X0019345Y0052275D03*
D152*
X0008688Y0052310D03*
X0008688Y0052345D03*
D153*
X0010455Y0052450D03*
X0010980Y0053465D03*
X0010980Y0053500D03*
X0014795Y0061130D03*
X0018155Y0060745D03*
D154*
X0018155Y0060780D03*
X0014795Y0061165D03*
X0010665Y0060010D03*
X0010945Y0053395D03*
X0010945Y0053360D03*
X0010910Y0053325D03*
X0010490Y0052485D03*
D155*
X0010507Y0052520D03*
X0010542Y0052555D03*
X0010892Y0053290D03*
X0007427Y0053325D03*
X0010647Y0060045D03*
D156*
X0011120Y0057350D03*
X0011120Y0057315D03*
X0011120Y0057280D03*
X0011155Y0057245D03*
X0011155Y0057210D03*
X0011155Y0057175D03*
X0011155Y0057140D03*
X0011190Y0057035D03*
X0011190Y0057000D03*
X0011610Y0054550D03*
X0014725Y0059730D03*
X0014725Y0059765D03*
X0014725Y0059800D03*
X0017910Y0059100D03*
X0017910Y0059065D03*
X0017910Y0059030D03*
X0020675Y0056405D03*
X0020675Y0056370D03*
X0019380Y0052590D03*
X0019380Y0052555D03*
X0007585Y0052730D03*
D157*
X0010560Y0052590D03*
X0010840Y0053150D03*
X0010875Y0053220D03*
X0010875Y0053255D03*
X0014795Y0061200D03*
X0018155Y0060815D03*
D158*
X0014795Y0061235D03*
X0010805Y0053080D03*
X0010770Y0053010D03*
X0010770Y0052975D03*
X0010735Y0052940D03*
X0010735Y0052905D03*
X0010700Y0052870D03*
X0010700Y0052835D03*
X0010665Y0052800D03*
X0010665Y0052765D03*
D159*
X0011015Y0057910D03*
X0014760Y0060045D03*
X0007550Y0052835D03*
D160*
X0017052Y0054900D03*
X0019363Y0053045D03*
X0020202Y0055215D03*
X0020202Y0055250D03*
X0020238Y0055285D03*
D161*
X0010787Y0059240D03*
X0010787Y0059275D03*
X0007462Y0053080D03*
D162*
X0010857Y0053185D03*
X0021007Y0057350D03*
D163*
X0018190Y0060885D03*
X0014795Y0061270D03*
X0007445Y0053360D03*
D164*
X0007427Y0053395D03*
D165*
X0010962Y0053430D03*
D166*
X0014742Y0053570D03*
X0019047Y0054270D03*
D167*
X0011050Y0053605D03*
D168*
X0019275Y0053605D03*
D169*
X0019205Y0053815D03*
D170*
X0019135Y0054060D03*
D171*
X0018977Y0054410D03*
D172*
X0018942Y0054480D03*
D173*
X0014725Y0059870D03*
X0014725Y0059905D03*
X0011575Y0054515D03*
X0011050Y0057665D03*
X0011050Y0057700D03*
X0011050Y0057735D03*
X0011050Y0057770D03*
D174*
X0018925Y0054515D03*
D175*
X0018890Y0054550D03*
D176*
X0018838Y0054620D03*
D177*
X0018802Y0054655D03*
D178*
X0014410Y0055075D03*
X0014410Y0055110D03*
D179*
X0014392Y0055145D03*
X0014392Y0055180D03*
X0014392Y0055215D03*
X0014392Y0055250D03*
D180*
X0014410Y0055285D03*
D181*
X0014392Y0055320D03*
X0014392Y0055355D03*
X0014392Y0055390D03*
X0014392Y0055425D03*
D182*
X0014410Y0055460D03*
D183*
X0014392Y0055495D03*
X0014392Y0055530D03*
X0014392Y0055565D03*
X0014392Y0055600D03*
D184*
X0014410Y0055635D03*
D185*
X0014392Y0055670D03*
D186*
X0015635Y0055775D03*
X0015635Y0055810D03*
D187*
X0017980Y0059450D03*
X0017980Y0059485D03*
X0017980Y0059520D03*
X0020745Y0056615D03*
X0020745Y0056580D03*
X0010980Y0058050D03*
X0010980Y0058085D03*
X0010980Y0058120D03*
D188*
X0010927Y0058400D03*
X0010927Y0058435D03*
X0010927Y0058470D03*
X0010927Y0058505D03*
X0014777Y0060220D03*
X0020797Y0056755D03*
D189*
X0020850Y0056930D03*
X0018050Y0059975D03*
D190*
X0020990Y0057315D03*
X0010665Y0059975D03*
D191*
X0014812Y0061305D03*
X0021042Y0057385D03*
D192*
X0018032Y0059800D03*
X0018032Y0059835D03*
X0010892Y0058680D03*
X0010892Y0058645D03*
D193*
X0010648Y0060115D03*
D194*
X0010648Y0060150D03*
D195*
X0010630Y0060185D03*
D196*
X0010630Y0060255D03*
X0014830Y0061410D03*
D197*
X0018190Y0060920D03*
D198*
X0018172Y0060955D03*
D199*
X0018207Y0061025D03*
D200*
X0014812Y0061340D03*
D201*
X0014830Y0061375D03*
D202*
X0019150Y0034650D03*
X0019150Y0034450D03*
X0019150Y0034250D03*
X0019150Y0034050D03*
X0019910Y0034250D03*
X0019910Y0034450D03*
X0019910Y0034650D03*
X0019910Y0033250D03*
X0019910Y0033050D03*
X0019910Y0032850D03*
X0019910Y0032650D03*
X0019910Y0032450D03*
X0019910Y0032250D03*
X0019910Y0031450D03*
X0019910Y0031250D03*
X0019910Y0031050D03*
X0019910Y0030850D03*
X0019910Y0030650D03*
X0019910Y0030450D03*
X0019910Y0030250D03*
X0022950Y0030250D03*
X0022950Y0030850D03*
X0022950Y0031650D03*
X0023790Y0031450D03*
X0023790Y0031250D03*
X0023790Y0031050D03*
X0023790Y0030850D03*
X0023790Y0030650D03*
X0023790Y0030450D03*
X0023790Y0030250D03*
X0025150Y0031050D03*
X0025150Y0031250D03*
X0025150Y0031450D03*
X0026310Y0031450D03*
X0026310Y0031250D03*
X0026310Y0031050D03*
X0026310Y0030250D03*
X0027110Y0031650D03*
X0026990Y0032050D03*
X0026950Y0032250D03*
X0026310Y0032250D03*
X0026310Y0032450D03*
X0026310Y0032650D03*
X0026310Y0032850D03*
X0026310Y0033050D03*
X0026510Y0033850D03*
X0026510Y0034850D03*
X0024910Y0034650D03*
X0024910Y0034450D03*
X0024910Y0034250D03*
X0024910Y0034050D03*
X0024910Y0033850D03*
X0024910Y0033650D03*
X0024910Y0033450D03*
X0023790Y0032250D03*
X0023750Y0034650D03*
X0022990Y0034650D03*
X0021790Y0034050D03*
X0028150Y0032050D03*
X0029150Y0031650D03*
X0030950Y0031650D03*
X0030950Y0030850D03*
X0031790Y0030850D03*
X0031790Y0031050D03*
X0031790Y0031250D03*
X0031790Y0031450D03*
X0031790Y0030650D03*
X0031790Y0030450D03*
X0031790Y0030250D03*
X0033190Y0030850D03*
X0033190Y0031650D03*
X0031790Y0032250D03*
X0032310Y0033450D03*
X0032310Y0033650D03*
X0032310Y0033850D03*
X0032310Y0034050D03*
X0032310Y0034250D03*
X0032310Y0034450D03*
X0032310Y0034650D03*
X0033590Y0034450D03*
X0033590Y0034250D03*
X0035310Y0034650D03*
X0035390Y0034850D03*
X0029550Y0034450D03*
X0029510Y0034650D03*
X0029510Y0034050D03*
X0028310Y0034050D03*
X0028310Y0034250D03*
X0028310Y0034450D03*
X0028310Y0034650D03*
D203*
X0027670Y0034050D03*
X0027070Y0031850D03*
X0029230Y0031850D03*
X0029270Y0032050D03*
X0030270Y0034250D03*
X0030270Y0034450D03*
X0030270Y0034650D03*
X0030270Y0034850D03*
X0030270Y0035050D03*
X0030270Y0035250D03*
X0031470Y0035250D03*
X0031470Y0035050D03*
X0031470Y0034850D03*
X0031470Y0034650D03*
X0031470Y0034450D03*
X0031470Y0034250D03*
X0033630Y0034050D03*
X0033630Y0034650D03*
X0021070Y0034650D03*
X0021070Y0034450D03*
X0021070Y0034250D03*
X0021070Y0034050D03*
X0021070Y0031450D03*
X0021070Y0031250D03*
X0021070Y0031050D03*
X0021070Y0030850D03*
X0021070Y0030650D03*
X0021070Y0030450D03*
X0021070Y0030250D03*
D204*
X0022270Y0030250D03*
X0030270Y0030250D03*
X0033830Y0030250D03*
D205*
X0033770Y0032250D03*
X0031690Y0037050D03*
X0029410Y0033850D03*
X0028130Y0031850D03*
X0025610Y0030250D03*
X0026610Y0034650D03*
X0022770Y0037050D03*
X0021890Y0033850D03*
X0020970Y0033850D03*
D206*
X0017950Y0034450D03*
X0024950Y0037650D03*
X0027550Y0030250D03*
D207*
X0027850Y0031250D03*
X0027250Y0031250D03*
X0027170Y0031450D03*
X0029050Y0031250D03*
X0029090Y0031450D03*
X0029770Y0030850D03*
X0028730Y0030250D03*
X0030970Y0030250D03*
X0029530Y0034250D03*
X0034690Y0033850D03*
X0035330Y0034050D03*
X0036490Y0034650D03*
X0023730Y0034450D03*
X0023730Y0034250D03*
X0023730Y0034050D03*
X0023730Y0033850D03*
X0023730Y0033650D03*
X0023730Y0033450D03*
X0021770Y0034650D03*
X0021770Y0030850D03*
X0017970Y0034050D03*
X0017970Y0034250D03*
X0017970Y0034650D03*
D208*
X0017990Y0034770D03*
X0017990Y0033970D03*
X0019110Y0033970D03*
X0019150Y0034090D03*
X0019150Y0034130D03*
X0019150Y0034170D03*
X0019150Y0034210D03*
X0019150Y0034290D03*
X0019150Y0034330D03*
X0019150Y0034370D03*
X0019150Y0034410D03*
X0019150Y0034490D03*
X0019150Y0034530D03*
X0019150Y0034570D03*
X0019150Y0034610D03*
X0019150Y0034690D03*
X0019110Y0034770D03*
X0019910Y0034610D03*
X0019910Y0034570D03*
X0019910Y0034530D03*
X0019910Y0034490D03*
X0019910Y0034410D03*
X0019910Y0034370D03*
X0019910Y0034330D03*
X0019910Y0034290D03*
X0019910Y0034210D03*
X0019910Y0034170D03*
X0019910Y0034130D03*
X0019910Y0034090D03*
X0019910Y0033410D03*
X0019910Y0033370D03*
X0019910Y0033330D03*
X0019910Y0033290D03*
X0019910Y0033210D03*
X0019910Y0033170D03*
X0019910Y0033130D03*
X0019910Y0033090D03*
X0019910Y0033010D03*
X0019910Y0032970D03*
X0019910Y0032930D03*
X0019910Y0032890D03*
X0019910Y0032810D03*
X0019910Y0032770D03*
X0019910Y0032730D03*
X0019910Y0032690D03*
X0019910Y0032610D03*
X0019910Y0032570D03*
X0019910Y0032530D03*
X0019910Y0032490D03*
X0019910Y0032410D03*
X0019910Y0032370D03*
X0019910Y0032330D03*
X0019910Y0032290D03*
X0019910Y0032210D03*
X0019910Y0031570D03*
X0019910Y0031530D03*
X0019910Y0031490D03*
X0019910Y0031410D03*
X0019910Y0031370D03*
X0019910Y0031330D03*
X0019910Y0031290D03*
X0019910Y0031210D03*
X0019910Y0031170D03*
X0019910Y0031130D03*
X0019910Y0031090D03*
X0019910Y0031010D03*
X0019910Y0030970D03*
X0019910Y0030930D03*
X0019910Y0030890D03*
X0019910Y0030810D03*
X0019910Y0030770D03*
X0019910Y0030730D03*
X0019910Y0030690D03*
X0019910Y0030610D03*
X0019910Y0030570D03*
X0019910Y0030530D03*
X0019910Y0030490D03*
X0019910Y0030410D03*
X0019910Y0030370D03*
X0019910Y0030330D03*
X0019910Y0030290D03*
X0021790Y0030730D03*
X0021790Y0030970D03*
X0022950Y0030970D03*
X0022950Y0031010D03*
X0022950Y0030930D03*
X0022950Y0030890D03*
X0022950Y0030810D03*
X0022950Y0030770D03*
X0022950Y0031490D03*
X0022950Y0031530D03*
X0022950Y0031570D03*
X0022950Y0031610D03*
X0022950Y0031690D03*
X0022950Y0031730D03*
X0023790Y0031530D03*
X0023790Y0031490D03*
X0023790Y0031410D03*
X0023790Y0031370D03*
X0023790Y0031330D03*
X0023790Y0031290D03*
X0023790Y0031210D03*
X0023790Y0031170D03*
X0023790Y0031130D03*
X0023790Y0031090D03*
X0023790Y0031010D03*
X0023790Y0030970D03*
X0023790Y0030930D03*
X0023790Y0030890D03*
X0023790Y0030810D03*
X0023790Y0030770D03*
X0023790Y0030730D03*
X0023790Y0030690D03*
X0023790Y0030610D03*
X0023790Y0030570D03*
X0023790Y0030530D03*
X0023790Y0030490D03*
X0023790Y0030410D03*
X0023790Y0030370D03*
X0023790Y0030330D03*
X0023790Y0030290D03*
X0025150Y0030930D03*
X0025150Y0030970D03*
X0025150Y0031010D03*
X0025150Y0031090D03*
X0025150Y0031130D03*
X0025150Y0031170D03*
X0025150Y0031210D03*
X0025150Y0031290D03*
X0025150Y0031330D03*
X0025150Y0031370D03*
X0025150Y0031410D03*
X0025150Y0031490D03*
X0025150Y0031530D03*
X0025150Y0031570D03*
X0026310Y0031570D03*
X0026310Y0031530D03*
X0026310Y0031490D03*
X0026310Y0031410D03*
X0026310Y0031370D03*
X0026310Y0031330D03*
X0026310Y0031290D03*
X0026310Y0031210D03*
X0026310Y0031170D03*
X0026310Y0031130D03*
X0026310Y0031090D03*
X0026310Y0031010D03*
X0026310Y0030970D03*
X0026310Y0030930D03*
X0026310Y0030290D03*
X0027550Y0030330D03*
X0027550Y0030370D03*
X0027190Y0031410D03*
X0027150Y0031530D03*
X0027150Y0031570D03*
X0027110Y0031690D03*
X0027110Y0031730D03*
X0026990Y0032090D03*
X0026990Y0032130D03*
X0026950Y0032210D03*
X0026310Y0032210D03*
X0026310Y0032290D03*
X0026310Y0032330D03*
X0026310Y0032370D03*
X0026310Y0032410D03*
X0026310Y0032490D03*
X0026310Y0032530D03*
X0026310Y0032570D03*
X0026310Y0032610D03*
X0026310Y0032690D03*
X0026310Y0032730D03*
X0026310Y0032770D03*
X0026310Y0032810D03*
X0026310Y0032890D03*
X0026310Y0032930D03*
X0026310Y0032970D03*
X0026310Y0033010D03*
X0024910Y0033330D03*
X0024910Y0033370D03*
X0024910Y0033410D03*
X0024910Y0033490D03*
X0024910Y0033530D03*
X0024910Y0033570D03*
X0024910Y0033610D03*
X0024910Y0033690D03*
X0024910Y0033730D03*
X0024910Y0033770D03*
X0024910Y0033810D03*
X0024910Y0033890D03*
X0024910Y0033930D03*
X0024910Y0033970D03*
X0024910Y0034010D03*
X0024910Y0034090D03*
X0024910Y0034130D03*
X0024910Y0034170D03*
X0024910Y0034210D03*
X0024910Y0034290D03*
X0024910Y0034330D03*
X0024910Y0034370D03*
X0024910Y0034410D03*
X0024910Y0034490D03*
X0024910Y0034530D03*
X0024910Y0034570D03*
X0024910Y0034610D03*
X0024910Y0034690D03*
X0023750Y0034690D03*
X0023750Y0034730D03*
X0022950Y0034730D03*
X0022950Y0034770D03*
X0022950Y0034690D03*
X0021790Y0034690D03*
X0021790Y0034730D03*
X0021790Y0034610D03*
X0021790Y0034090D03*
X0021790Y0034010D03*
X0021790Y0033970D03*
X0023790Y0032210D03*
X0023790Y0032170D03*
X0026510Y0034730D03*
X0026510Y0034770D03*
X0026510Y0034810D03*
X0026550Y0034890D03*
X0028310Y0034690D03*
X0028350Y0034730D03*
X0028350Y0034770D03*
X0028310Y0034610D03*
X0028310Y0034570D03*
X0028310Y0034530D03*
X0028310Y0034490D03*
X0028310Y0034410D03*
X0028310Y0034370D03*
X0028310Y0034330D03*
X0028310Y0034290D03*
X0028310Y0034210D03*
X0028310Y0034170D03*
X0028310Y0034130D03*
X0028310Y0034090D03*
X0028350Y0034010D03*
X0028350Y0033970D03*
X0029510Y0034010D03*
X0029510Y0034090D03*
X0029510Y0034130D03*
X0029550Y0034290D03*
X0029550Y0034330D03*
X0029550Y0034370D03*
X0029550Y0034410D03*
X0029510Y0034610D03*
X0029510Y0034690D03*
X0029510Y0034730D03*
X0029310Y0032170D03*
X0029310Y0032130D03*
X0029190Y0031810D03*
X0029190Y0031770D03*
X0029190Y0031730D03*
X0029150Y0031610D03*
X0029110Y0031490D03*
X0029790Y0030970D03*
X0029790Y0030770D03*
X0029790Y0030730D03*
X0028750Y0030330D03*
X0030950Y0030770D03*
X0030950Y0030810D03*
X0030950Y0030890D03*
X0030950Y0030930D03*
X0030950Y0031490D03*
X0030950Y0031690D03*
X0030950Y0031730D03*
X0031790Y0031490D03*
X0031790Y0031410D03*
X0031790Y0031370D03*
X0031790Y0031330D03*
X0031790Y0031290D03*
X0031790Y0031210D03*
X0031790Y0031170D03*
X0031790Y0031130D03*
X0031790Y0031090D03*
X0031790Y0031010D03*
X0031790Y0030970D03*
X0031790Y0030930D03*
X0031790Y0030890D03*
X0031790Y0030810D03*
X0031790Y0030770D03*
X0031790Y0030730D03*
X0031790Y0030690D03*
X0031790Y0030610D03*
X0031790Y0030570D03*
X0031790Y0030530D03*
X0031790Y0030490D03*
X0031790Y0030410D03*
X0031790Y0030370D03*
X0031790Y0030330D03*
X0031790Y0030290D03*
X0033190Y0030890D03*
X0033150Y0031010D03*
X0033190Y0031610D03*
X0034350Y0031610D03*
X0034350Y0031570D03*
X0034350Y0031530D03*
X0034350Y0031490D03*
X0032310Y0033370D03*
X0032310Y0033410D03*
X0032310Y0033490D03*
X0032310Y0033530D03*
X0032310Y0033570D03*
X0032310Y0033610D03*
X0032310Y0033690D03*
X0032310Y0033730D03*
X0032310Y0033770D03*
X0032310Y0033810D03*
X0032310Y0033890D03*
X0032310Y0033930D03*
X0032310Y0033970D03*
X0032310Y0034010D03*
X0032310Y0034090D03*
X0032310Y0034130D03*
X0032310Y0034170D03*
X0032310Y0034210D03*
X0032310Y0034290D03*
X0032310Y0034330D03*
X0032310Y0034370D03*
X0032310Y0034410D03*
X0032310Y0034490D03*
X0032310Y0034530D03*
X0032310Y0034570D03*
X0032310Y0034610D03*
X0032310Y0034690D03*
X0032310Y0034730D03*
X0032310Y0035330D03*
X0032310Y0035370D03*
X0033590Y0034610D03*
X0033590Y0034570D03*
X0033590Y0034530D03*
X0033590Y0034490D03*
X0033590Y0034410D03*
X0033590Y0034370D03*
X0033590Y0034330D03*
X0033590Y0034290D03*
X0033590Y0034210D03*
X0033590Y0034170D03*
X0033590Y0034130D03*
X0035310Y0034130D03*
X0035310Y0034090D03*
X0035350Y0034010D03*
X0035350Y0033970D03*
X0035310Y0034610D03*
X0035350Y0034770D03*
X0036350Y0033810D03*
X0031790Y0032210D03*
X0031790Y0032170D03*
X0031710Y0037010D03*
X0022750Y0037010D03*
X0019910Y0035370D03*
X0019910Y0035330D03*
D209*
X0021070Y0034690D03*
X0021070Y0034610D03*
X0021070Y0034570D03*
X0021070Y0034530D03*
X0021070Y0034490D03*
X0021070Y0034410D03*
X0021070Y0034330D03*
X0021070Y0034290D03*
X0021070Y0034210D03*
X0021070Y0034170D03*
X0021070Y0034130D03*
X0021070Y0034090D03*
X0021830Y0033930D03*
X0021830Y0034810D03*
X0022830Y0033810D03*
X0021070Y0031610D03*
X0021070Y0031570D03*
X0021070Y0031530D03*
X0021070Y0031490D03*
X0021070Y0031410D03*
X0021070Y0031370D03*
X0021070Y0031330D03*
X0021070Y0031290D03*
X0021070Y0031210D03*
X0021070Y0031170D03*
X0021070Y0031130D03*
X0021070Y0031090D03*
X0021070Y0031010D03*
X0021070Y0030970D03*
X0021070Y0030930D03*
X0021070Y0030890D03*
X0021070Y0030810D03*
X0021070Y0030770D03*
X0021070Y0030730D03*
X0021070Y0030690D03*
X0021070Y0030610D03*
X0021070Y0030570D03*
X0021070Y0030530D03*
X0021070Y0030490D03*
X0021070Y0030410D03*
X0021070Y0030370D03*
X0021070Y0030330D03*
X0021070Y0030290D03*
X0027030Y0031890D03*
X0027030Y0031930D03*
X0027030Y0031970D03*
X0027070Y0031810D03*
X0027070Y0031770D03*
X0027230Y0031290D03*
X0029030Y0031210D03*
X0029070Y0031330D03*
X0029070Y0031370D03*
X0029230Y0031890D03*
X0029230Y0031930D03*
X0029270Y0031970D03*
X0029270Y0032010D03*
X0030270Y0034090D03*
X0030270Y0034130D03*
X0030270Y0034170D03*
X0030270Y0034210D03*
X0030270Y0034290D03*
X0030270Y0034330D03*
X0030270Y0034370D03*
X0030270Y0034410D03*
X0030270Y0034490D03*
X0030270Y0034530D03*
X0030270Y0034570D03*
X0030270Y0034610D03*
X0030270Y0034690D03*
X0030270Y0034730D03*
X0030270Y0034770D03*
X0030270Y0034810D03*
X0030270Y0034890D03*
X0030270Y0034930D03*
X0030270Y0034970D03*
X0030270Y0035010D03*
X0030270Y0035090D03*
X0030270Y0035130D03*
X0030270Y0035170D03*
X0030270Y0035210D03*
X0030270Y0035290D03*
X0030270Y0035330D03*
X0030270Y0035370D03*
X0031470Y0035370D03*
X0031470Y0035330D03*
X0031470Y0035290D03*
X0031470Y0035210D03*
X0031470Y0035170D03*
X0031470Y0035130D03*
X0031470Y0035090D03*
X0031470Y0035010D03*
X0031470Y0034970D03*
X0031470Y0034930D03*
X0031470Y0034890D03*
X0031470Y0034810D03*
X0031470Y0034770D03*
X0031470Y0034730D03*
X0031470Y0034690D03*
X0031470Y0034610D03*
X0031470Y0034570D03*
X0031470Y0034530D03*
X0031470Y0034490D03*
X0031470Y0034410D03*
X0031470Y0034370D03*
X0031470Y0034330D03*
X0031470Y0034290D03*
X0031470Y0034210D03*
X0031470Y0034170D03*
X0031470Y0034130D03*
X0031470Y0034090D03*
X0031470Y0033410D03*
X0031470Y0033370D03*
X0033230Y0031690D03*
X0033230Y0030810D03*
X0033630Y0034090D03*
X0033630Y0034690D03*
X0036470Y0034770D03*
X0036470Y0034810D03*
X0027670Y0034010D03*
X0027670Y0033970D03*
X0027670Y0033930D03*
X0027070Y0033330D03*
X0027070Y0035410D03*
D210*
X0027110Y0035210D03*
X0027070Y0034410D03*
X0027110Y0034370D03*
X0027150Y0034330D03*
X0027030Y0033530D03*
X0025870Y0032170D03*
X0025870Y0030330D03*
X0024230Y0032010D03*
X0022510Y0031370D03*
X0022510Y0030290D03*
X0020350Y0032170D03*
X0020350Y0035290D03*
X0018550Y0035090D03*
X0022390Y0035090D03*
X0024190Y0035290D03*
X0028910Y0035090D03*
X0030510Y0031370D03*
X0030510Y0030290D03*
X0032230Y0032010D03*
X0034270Y0033610D03*
X0034270Y0035130D03*
X0032750Y0035170D03*
X0032750Y0035290D03*
D211*
X0033770Y0032210D03*
X0029610Y0037810D03*
X0027090Y0035370D03*
X0027050Y0033370D03*
X0028130Y0031610D03*
X0027530Y0030810D03*
X0027530Y0030770D03*
X0028730Y0030770D03*
X0028730Y0030810D03*
X0026170Y0030690D03*
X0025610Y0030290D03*
X0024850Y0037810D03*
X0022810Y0048490D03*
X0031650Y0048490D03*
D212*
X0031690Y0048610D03*
X0031450Y0035410D03*
X0032290Y0035410D03*
X0034290Y0035410D03*
X0035330Y0034730D03*
X0035330Y0034690D03*
X0036490Y0034690D03*
X0036490Y0034730D03*
X0036490Y0034610D03*
X0035970Y0033330D03*
X0034210Y0030690D03*
X0033170Y0030930D03*
X0033170Y0030970D03*
X0033170Y0031490D03*
X0033170Y0031530D03*
X0033170Y0031570D03*
X0032290Y0033330D03*
X0031450Y0033330D03*
X0030330Y0032290D03*
X0030970Y0031610D03*
X0030970Y0031570D03*
X0030970Y0031530D03*
X0030970Y0031010D03*
X0030970Y0030970D03*
X0029770Y0030930D03*
X0029770Y0030890D03*
X0029770Y0030810D03*
X0029010Y0031130D03*
X0029010Y0031170D03*
X0029050Y0031290D03*
X0029090Y0031410D03*
X0029130Y0031530D03*
X0029130Y0031570D03*
X0029170Y0031690D03*
X0028410Y0031330D03*
X0028410Y0031290D03*
X0028450Y0031210D03*
X0028450Y0031170D03*
X0027890Y0031370D03*
X0027890Y0031410D03*
X0027810Y0031130D03*
X0027290Y0031130D03*
X0027290Y0031090D03*
X0027250Y0031170D03*
X0027250Y0031210D03*
X0027210Y0031330D03*
X0027210Y0031370D03*
X0027170Y0031490D03*
X0027130Y0031610D03*
X0028130Y0032090D03*
X0028130Y0032130D03*
X0028930Y0033330D03*
X0029530Y0034170D03*
X0029530Y0034210D03*
X0029530Y0034490D03*
X0029530Y0034530D03*
X0029530Y0034570D03*
X0028930Y0035410D03*
X0030290Y0035410D03*
X0027490Y0034930D03*
X0026330Y0033090D03*
X0027530Y0030290D03*
X0028730Y0030290D03*
X0023730Y0033330D03*
X0023730Y0033370D03*
X0023730Y0033410D03*
X0023730Y0033490D03*
X0023730Y0033530D03*
X0023730Y0033570D03*
X0023730Y0033610D03*
X0023730Y0033690D03*
X0023730Y0033730D03*
X0023730Y0033770D03*
X0023730Y0033810D03*
X0023730Y0033890D03*
X0023730Y0033930D03*
X0023730Y0033970D03*
X0023730Y0034010D03*
X0023730Y0034090D03*
X0023730Y0034130D03*
X0023730Y0034170D03*
X0023730Y0034210D03*
X0023730Y0034290D03*
X0023730Y0034330D03*
X0023730Y0034370D03*
X0023730Y0034410D03*
X0023730Y0034490D03*
X0023730Y0034530D03*
X0023730Y0034570D03*
X0023730Y0034610D03*
X0023730Y0035330D03*
X0023730Y0035370D03*
X0023730Y0035410D03*
X0021810Y0034770D03*
X0021770Y0034130D03*
X0021090Y0034370D03*
X0019890Y0035410D03*
X0018530Y0035410D03*
X0017970Y0034730D03*
X0017970Y0034690D03*
X0017970Y0034610D03*
X0017970Y0034570D03*
X0017970Y0034530D03*
X0017970Y0034490D03*
X0017970Y0034210D03*
X0017970Y0034170D03*
X0017970Y0034130D03*
X0017970Y0034090D03*
X0017970Y0034010D03*
X0022330Y0032290D03*
X0021770Y0030930D03*
X0021770Y0030890D03*
X0021770Y0030810D03*
X0021770Y0030770D03*
X0022770Y0048610D03*
D213*
X0022370Y0035290D03*
X0027530Y0031010D03*
X0033810Y0030290D03*
X0033770Y0032170D03*
X0035970Y0033410D03*
X0035930Y0035290D03*
D214*
X0035970Y0033610D03*
X0033770Y0031930D03*
X0032770Y0035210D03*
X0031610Y0037370D03*
X0028930Y0033690D03*
X0030370Y0032010D03*
X0030490Y0031330D03*
X0030490Y0030330D03*
X0027130Y0035170D03*
X0022490Y0030330D03*
X0020370Y0032130D03*
X0020370Y0033490D03*
D215*
X0018550Y0033490D03*
X0027350Y0034170D03*
X0033830Y0030330D03*
X0031630Y0048370D03*
X0022830Y0048370D03*
D216*
X0022850Y0037410D03*
X0024250Y0035170D03*
X0022410Y0033730D03*
X0022450Y0031290D03*
X0022450Y0030370D03*
X0020410Y0033570D03*
X0020410Y0035170D03*
X0027050Y0035010D03*
X0030410Y0031930D03*
X0030450Y0031290D03*
X0030450Y0030410D03*
X0033810Y0030610D03*
X0033850Y0030530D03*
X0034290Y0033690D03*
X0034210Y0033810D03*
X0034210Y0034930D03*
X0031610Y0037410D03*
D217*
X0025850Y0032130D03*
X0025850Y0030370D03*
X0022450Y0033610D03*
X0022850Y0037370D03*
D218*
X0022930Y0034810D03*
X0022970Y0034610D03*
X0023770Y0034770D03*
X0023770Y0034810D03*
X0024890Y0034770D03*
X0024890Y0034730D03*
X0026530Y0034690D03*
X0027650Y0034090D03*
X0027650Y0033890D03*
X0028370Y0033930D03*
X0028370Y0034810D03*
X0029490Y0034810D03*
X0029490Y0034770D03*
X0029490Y0033970D03*
X0029490Y0033930D03*
X0029450Y0033890D03*
X0030290Y0034010D03*
X0030330Y0033970D03*
X0030330Y0033930D03*
X0031450Y0034010D03*
X0032330Y0034770D03*
X0033650Y0034770D03*
X0033650Y0034730D03*
X0033690Y0034810D03*
X0033650Y0034010D03*
X0033650Y0033970D03*
X0033690Y0033930D03*
X0035370Y0033930D03*
X0035410Y0033890D03*
X0035370Y0034810D03*
X0034290Y0031730D03*
X0034330Y0031690D03*
X0033250Y0031730D03*
X0033250Y0030770D03*
X0031810Y0031530D03*
X0031810Y0031570D03*
X0031810Y0031610D03*
X0030930Y0031770D03*
X0030930Y0030730D03*
X0029290Y0032090D03*
X0029330Y0032210D03*
X0028130Y0032010D03*
X0028130Y0031970D03*
X0027010Y0032010D03*
X0026970Y0032170D03*
X0026290Y0031610D03*
X0026290Y0030890D03*
X0026290Y0030810D03*
X0025210Y0030770D03*
X0025170Y0030810D03*
X0025170Y0030890D03*
X0025170Y0031610D03*
X0023810Y0031610D03*
X0023810Y0031570D03*
X0022930Y0031770D03*
X0022930Y0030730D03*
X0021850Y0033890D03*
X0021050Y0033930D03*
X0021050Y0033970D03*
X0021050Y0034010D03*
X0021050Y0034730D03*
X0021050Y0034770D03*
X0021050Y0034810D03*
X0019930Y0034770D03*
X0019930Y0034730D03*
X0019930Y0034690D03*
X0019930Y0034010D03*
X0019930Y0033970D03*
X0019130Y0034010D03*
X0019090Y0033930D03*
X0019130Y0034730D03*
X0019090Y0034810D03*
X0018010Y0034810D03*
X0018010Y0033930D03*
X0019930Y0031610D03*
X0024930Y0037690D03*
X0027530Y0030410D03*
X0028730Y0030410D03*
X0028730Y0030370D03*
X0029530Y0037690D03*
D219*
X0027030Y0034970D03*
X0027030Y0033570D03*
X0025830Y0032090D03*
X0025830Y0030410D03*
X0024270Y0032090D03*
X0024270Y0032130D03*
X0022430Y0031890D03*
X0022350Y0032010D03*
X0022470Y0031330D03*
X0020390Y0032090D03*
X0020390Y0033530D03*
X0020390Y0035210D03*
X0018550Y0035010D03*
X0018550Y0033730D03*
X0018550Y0033690D03*
X0022390Y0035010D03*
X0024230Y0035210D03*
X0030430Y0031890D03*
X0030470Y0030370D03*
X0030990Y0033490D03*
X0032270Y0032130D03*
X0032270Y0032090D03*
X0033790Y0031890D03*
X0033830Y0030490D03*
X0035910Y0033770D03*
X0035910Y0035010D03*
X0034270Y0035090D03*
X0031590Y0048210D03*
X0022870Y0048210D03*
D220*
X0022370Y0035210D03*
X0018530Y0035210D03*
X0028930Y0035210D03*
X0028930Y0033530D03*
X0032650Y0034930D03*
X0033810Y0030370D03*
X0035970Y0033490D03*
X0035930Y0035210D03*
D221*
X0035950Y0033730D03*
X0034270Y0033730D03*
X0034230Y0033770D03*
X0034230Y0034970D03*
X0034270Y0035010D03*
X0030950Y0033610D03*
X0030950Y0033570D03*
X0030430Y0031210D03*
X0028910Y0033770D03*
X0028910Y0034970D03*
X0027110Y0035090D03*
X0025790Y0032010D03*
X0025790Y0031970D03*
X0025790Y0030490D03*
X0024270Y0035090D03*
X0024270Y0035130D03*
X0022430Y0033690D03*
X0022390Y0031930D03*
X0022430Y0030410D03*
X0020430Y0031970D03*
X0020430Y0032010D03*
X0020430Y0033610D03*
X0020430Y0035130D03*
X0018550Y0034970D03*
X0018550Y0034930D03*
X0018550Y0033810D03*
X0018550Y0033770D03*
X0022870Y0048170D03*
X0031590Y0048170D03*
X0033830Y0030570D03*
D222*
X0033830Y0030410D03*
X0034270Y0033570D03*
X0034270Y0035170D03*
X0031630Y0037330D03*
X0022830Y0037330D03*
D223*
X0022430Y0031250D03*
X0022430Y0030450D03*
X0030430Y0030450D03*
X0030430Y0031250D03*
D224*
X0027090Y0035050D03*
X0025810Y0032050D03*
X0025810Y0030450D03*
X0022450Y0033650D03*
X0020410Y0032050D03*
X0034290Y0035050D03*
D225*
X0033710Y0034850D03*
X0032350Y0034850D03*
X0032510Y0032250D03*
X0031830Y0031650D03*
X0028390Y0034850D03*
X0027630Y0033850D03*
X0027550Y0030450D03*
X0024510Y0032250D03*
X0024830Y0034850D03*
X0023790Y0034850D03*
X0022910Y0034850D03*
X0021030Y0034850D03*
X0019950Y0034850D03*
X0019070Y0034850D03*
X0018030Y0034850D03*
X0035430Y0033850D03*
D226*
X0036450Y0034850D03*
X0034330Y0031650D03*
X0031450Y0034050D03*
X0030290Y0034050D03*
X0029450Y0034850D03*
X0029330Y0032250D03*
X0028730Y0030450D03*
X0026290Y0030850D03*
X0026290Y0031650D03*
X0025610Y0032250D03*
X0025170Y0031650D03*
X0025170Y0030850D03*
X0023810Y0031650D03*
X0021050Y0031650D03*
X0020610Y0032250D03*
X0019930Y0031650D03*
X0019930Y0034050D03*
X0021850Y0034850D03*
D227*
X0020350Y0033450D03*
X0018550Y0033650D03*
X0027030Y0034450D03*
X0028910Y0033650D03*
X0030390Y0032050D03*
X0031030Y0033450D03*
X0033830Y0030450D03*
D228*
X0030410Y0030490D03*
X0030410Y0030530D03*
X0030410Y0031170D03*
X0028930Y0033810D03*
X0028930Y0034930D03*
X0027010Y0033610D03*
X0025770Y0031930D03*
X0025770Y0031890D03*
X0025770Y0030610D03*
X0025770Y0030570D03*
X0025770Y0030530D03*
X0024290Y0035010D03*
X0022410Y0031210D03*
X0022410Y0031170D03*
X0022410Y0030490D03*
X0020450Y0031930D03*
X0020450Y0033690D03*
X0020450Y0035090D03*
D229*
X0019950Y0034810D03*
X0019950Y0033930D03*
X0019070Y0033890D03*
X0018030Y0033890D03*
X0019950Y0031690D03*
X0021030Y0031690D03*
X0021830Y0031010D03*
X0021830Y0030690D03*
X0023830Y0031690D03*
X0025190Y0031690D03*
X0025230Y0031730D03*
X0025230Y0030730D03*
X0026270Y0030770D03*
X0026270Y0031690D03*
X0027550Y0030490D03*
X0028150Y0031930D03*
X0028390Y0033890D03*
X0028430Y0034890D03*
X0030350Y0033890D03*
X0030750Y0033370D03*
X0031430Y0033930D03*
X0031430Y0033970D03*
X0032350Y0034810D03*
X0032990Y0035370D03*
X0033710Y0033890D03*
X0035430Y0034890D03*
X0036430Y0034890D03*
X0034270Y0031770D03*
X0033270Y0031770D03*
X0033270Y0030730D03*
X0031830Y0031690D03*
X0029830Y0031010D03*
X0029830Y0030690D03*
X0026590Y0034930D03*
X0024870Y0034810D03*
X0024430Y0035370D03*
X0022870Y0034890D03*
X0021870Y0034890D03*
X0020990Y0034890D03*
X0021030Y0033890D03*
X0020630Y0033370D03*
X0022790Y0048570D03*
X0031670Y0048570D03*
D230*
X0029570Y0037730D03*
X0029410Y0034890D03*
X0028130Y0031890D03*
X0028730Y0030570D03*
X0028730Y0030530D03*
X0028730Y0030490D03*
X0027530Y0030530D03*
X0024810Y0034890D03*
X0024890Y0037730D03*
X0021930Y0034930D03*
X0020610Y0035370D03*
X0019970Y0033890D03*
X0019970Y0031730D03*
X0021010Y0031730D03*
X0022890Y0030690D03*
X0030890Y0030690D03*
X0031410Y0033890D03*
X0033330Y0030690D03*
X0036370Y0034930D03*
D231*
X0030910Y0033770D03*
X0030910Y0033730D03*
X0030910Y0033690D03*
X0030390Y0031130D03*
X0030390Y0031090D03*
X0030390Y0030610D03*
X0030390Y0030570D03*
X0024310Y0034930D03*
X0024310Y0034970D03*
X0022390Y0031130D03*
X0022390Y0031090D03*
X0022390Y0030570D03*
X0022390Y0030530D03*
X0020470Y0031810D03*
X0020470Y0031890D03*
X0020470Y0033730D03*
X0020470Y0033770D03*
X0020470Y0033810D03*
X0020470Y0034930D03*
X0020470Y0034970D03*
X0020470Y0035010D03*
D232*
X0019990Y0034890D03*
X0018550Y0035370D03*
X0018550Y0033370D03*
X0019990Y0031770D03*
X0020990Y0031770D03*
X0021950Y0033810D03*
X0022830Y0034930D03*
X0022390Y0035370D03*
X0023830Y0034890D03*
X0026550Y0033810D03*
X0027590Y0033810D03*
X0028910Y0033370D03*
X0028150Y0031810D03*
X0027550Y0030610D03*
X0027550Y0030570D03*
X0028750Y0030610D03*
X0030870Y0031810D03*
X0032390Y0034890D03*
X0033750Y0034890D03*
X0034270Y0035370D03*
X0034270Y0033370D03*
X0033350Y0031810D03*
X0035910Y0035370D03*
X0031670Y0048530D03*
X0022790Y0048530D03*
X0026230Y0031770D03*
D233*
X0022370Y0030610D03*
X0030890Y0033810D03*
X0035890Y0034170D03*
X0035890Y0034210D03*
X0035890Y0034290D03*
X0035890Y0034330D03*
X0035890Y0034370D03*
X0035890Y0034410D03*
X0035890Y0034490D03*
X0035890Y0034530D03*
X0035890Y0034570D03*
X0031570Y0048130D03*
X0022890Y0048130D03*
D234*
X0027010Y0033650D03*
X0030370Y0030650D03*
X0035890Y0034250D03*
X0035890Y0034450D03*
X0022370Y0031050D03*
X0022370Y0030650D03*
D235*
X0025750Y0030650D03*
X0025750Y0031850D03*
D236*
X0027530Y0030650D03*
X0028730Y0030650D03*
X0031370Y0033850D03*
D237*
X0034270Y0033650D03*
X0033750Y0030650D03*
X0035990Y0033650D03*
X0018550Y0035050D03*
D238*
X0020630Y0035330D03*
X0020630Y0033410D03*
X0022430Y0033370D03*
X0024430Y0035330D03*
X0024870Y0037770D03*
X0028150Y0031690D03*
X0027550Y0030730D03*
X0028750Y0030730D03*
X0030750Y0033410D03*
X0032990Y0035330D03*
X0029590Y0037770D03*
X0025310Y0030690D03*
D239*
X0027530Y0030690D03*
X0028730Y0030690D03*
X0028130Y0031730D03*
X0028130Y0031770D03*
X0027570Y0034130D03*
X0028930Y0035370D03*
X0022770Y0037090D03*
X0035970Y0033370D03*
D240*
X0035450Y0034930D03*
X0031850Y0031730D03*
X0026250Y0031730D03*
X0026250Y0030730D03*
X0025250Y0031770D03*
X0023850Y0031730D03*
X0022850Y0031810D03*
X0019050Y0034890D03*
X0018050Y0034890D03*
D241*
X0022750Y0036930D03*
X0024990Y0037610D03*
X0027550Y0034890D03*
X0025590Y0032290D03*
X0024510Y0032290D03*
X0029470Y0037610D03*
X0031710Y0036930D03*
X0030750Y0033330D03*
X0032510Y0032290D03*
X0034230Y0030730D03*
D242*
X0034250Y0030770D03*
X0029450Y0037570D03*
X0022850Y0033890D03*
D243*
X0022850Y0033930D03*
X0021970Y0031730D03*
X0027570Y0034810D03*
X0029970Y0031730D03*
X0033130Y0034890D03*
X0034250Y0030810D03*
X0036410Y0033930D03*
D244*
X0028750Y0030850D03*
X0027550Y0030850D03*
X0022350Y0032250D03*
D245*
X0022730Y0036850D03*
X0031730Y0036850D03*
X0033130Y0034850D03*
X0034250Y0030850D03*
D246*
X0034290Y0033410D03*
X0028930Y0033410D03*
X0028930Y0035330D03*
X0028130Y0031530D03*
X0028130Y0031490D03*
X0027530Y0030930D03*
X0027530Y0030890D03*
X0028730Y0030890D03*
X0028730Y0030930D03*
X0022370Y0035330D03*
X0018530Y0035330D03*
D247*
X0022790Y0037170D03*
X0027550Y0030970D03*
X0028750Y0030970D03*
X0028750Y0031010D03*
D248*
X0028730Y0031050D03*
X0027530Y0031050D03*
D249*
X0030390Y0031050D03*
X0020470Y0031850D03*
D250*
X0022370Y0034250D03*
X0022370Y0034450D03*
X0033770Y0031450D03*
X0033770Y0031250D03*
X0033770Y0031050D03*
D251*
X0034270Y0033330D03*
X0035910Y0035410D03*
X0031710Y0036970D03*
X0029990Y0031810D03*
X0028390Y0031410D03*
X0028390Y0031370D03*
X0028470Y0031130D03*
X0027870Y0031290D03*
X0027870Y0031330D03*
X0027830Y0031210D03*
X0027830Y0031170D03*
X0027790Y0031090D03*
X0022430Y0033330D03*
D252*
X0022350Y0032210D03*
X0018550Y0035290D03*
X0022830Y0048410D03*
X0027070Y0035330D03*
X0028910Y0035290D03*
X0030390Y0032210D03*
X0028750Y0031090D03*
X0034270Y0035290D03*
X0031630Y0048410D03*
D253*
X0031570Y0048090D03*
X0022890Y0048090D03*
X0022370Y0034490D03*
X0022370Y0034410D03*
X0022370Y0034370D03*
X0022370Y0034330D03*
X0022370Y0034290D03*
X0027010Y0033730D03*
X0033770Y0031410D03*
X0033770Y0031370D03*
X0033770Y0031330D03*
X0033770Y0031290D03*
X0033770Y0031210D03*
X0033770Y0031170D03*
X0033770Y0031130D03*
X0033770Y0031090D03*
D254*
X0029510Y0037650D03*
X0028430Y0031250D03*
D255*
X0030550Y0031410D03*
X0030390Y0032090D03*
X0032190Y0031930D03*
X0032190Y0031890D03*
X0032710Y0035090D03*
X0035910Y0035130D03*
X0026950Y0034530D03*
X0024190Y0031930D03*
X0022550Y0031410D03*
X0022390Y0035130D03*
X0018550Y0035130D03*
X0018550Y0033610D03*
D256*
X0022610Y0031450D03*
X0030610Y0031450D03*
D257*
X0028150Y0031450D03*
D258*
X0028150Y0031570D03*
X0018550Y0033410D03*
D259*
X0028130Y0031650D03*
X0030370Y0032250D03*
D260*
X0029970Y0031690D03*
X0032650Y0031730D03*
X0036410Y0033970D03*
X0022850Y0033970D03*
X0021970Y0031690D03*
D261*
X0024630Y0031730D03*
X0026470Y0034010D03*
X0025030Y0037530D03*
X0029430Y0037530D03*
D262*
X0031730Y0036890D03*
X0029970Y0031770D03*
X0025010Y0037570D03*
X0022730Y0036890D03*
X0021970Y0031770D03*
X0036410Y0033890D03*
D263*
X0035490Y0033810D03*
X0034210Y0031810D03*
X0032490Y0032210D03*
X0031890Y0031770D03*
X0031690Y0037090D03*
X0025610Y0032210D03*
X0024490Y0032210D03*
X0023890Y0031770D03*
X0020610Y0032210D03*
D264*
X0024630Y0031770D03*
X0026470Y0033970D03*
X0032630Y0031770D03*
X0034710Y0033930D03*
X0034710Y0034810D03*
X0031710Y0048730D03*
X0022750Y0048730D03*
D265*
X0022370Y0035410D03*
X0020610Y0035410D03*
X0020610Y0033330D03*
X0021970Y0031810D03*
X0024450Y0035410D03*
X0026490Y0033890D03*
X0028130Y0032210D03*
X0033010Y0035410D03*
X0033770Y0032290D03*
X0034690Y0034890D03*
D266*
X0032150Y0031810D03*
X0024150Y0031810D03*
D267*
X0025750Y0031810D03*
D268*
X0024250Y0032050D03*
X0022450Y0031850D03*
X0030450Y0031850D03*
X0032250Y0032050D03*
D269*
X0032170Y0031850D03*
X0027090Y0035250D03*
X0024170Y0031850D03*
D270*
X0033770Y0031850D03*
D271*
X0033770Y0032010D03*
X0032690Y0035010D03*
X0035970Y0033530D03*
X0028930Y0033570D03*
X0028930Y0035170D03*
X0027050Y0033490D03*
X0024170Y0031890D03*
X0022370Y0032130D03*
X0018530Y0033570D03*
X0018530Y0035170D03*
X0022850Y0048290D03*
X0031610Y0048290D03*
D272*
X0028930Y0035010D03*
X0028930Y0033730D03*
X0030370Y0031970D03*
X0030970Y0033530D03*
X0027130Y0035130D03*
X0022370Y0034970D03*
X0022370Y0033770D03*
X0022370Y0031970D03*
X0035970Y0033690D03*
X0035930Y0034970D03*
D273*
X0035930Y0035090D03*
X0035970Y0033570D03*
X0033770Y0031970D03*
X0032210Y0031970D03*
X0032730Y0035130D03*
X0028930Y0035130D03*
X0028930Y0033610D03*
X0027170Y0034290D03*
X0027010Y0034490D03*
X0024210Y0031970D03*
X0022370Y0032090D03*
X0022450Y0033570D03*
D274*
X0022370Y0035050D03*
X0024210Y0035250D03*
X0022370Y0032050D03*
X0020370Y0035250D03*
X0028930Y0035050D03*
X0032770Y0035250D03*
X0035930Y0035050D03*
D275*
X0033790Y0032050D03*
D276*
X0033770Y0032090D03*
X0030370Y0032170D03*
X0028930Y0033490D03*
X0022370Y0032170D03*
D277*
X0022430Y0033530D03*
X0022390Y0035170D03*
X0022830Y0037290D03*
X0026910Y0034570D03*
X0027270Y0034210D03*
X0030390Y0032130D03*
X0032670Y0034970D03*
X0034270Y0035210D03*
X0034270Y0033530D03*
X0035910Y0035170D03*
X0031630Y0037290D03*
D278*
X0033770Y0032130D03*
X0026810Y0034610D03*
X0022810Y0037210D03*
D279*
X0022790Y0037130D03*
X0024510Y0032170D03*
X0031670Y0037130D03*
X0032510Y0032170D03*
X0035910Y0035330D03*
D280*
X0028150Y0032170D03*
X0022750Y0036970D03*
X0017950Y0034410D03*
X0017950Y0034370D03*
X0017950Y0034330D03*
X0017950Y0034290D03*
X0018550Y0033330D03*
D281*
X0022850Y0033850D03*
X0028130Y0032250D03*
X0031690Y0048650D03*
X0022770Y0048650D03*
D282*
X0020610Y0032290D03*
X0034690Y0033890D03*
D283*
X0034270Y0035330D03*
X0031670Y0037170D03*
X0022430Y0033410D03*
D284*
X0027050Y0033410D03*
X0031650Y0037210D03*
D285*
X0034270Y0033450D03*
X0028910Y0033450D03*
X0018550Y0033450D03*
D286*
X0018550Y0035250D03*
X0022390Y0035250D03*
X0022430Y0033450D03*
X0035910Y0035250D03*
D287*
X0034270Y0035250D03*
X0027070Y0033450D03*
D288*
X0035970Y0033450D03*
D289*
X0034270Y0033490D03*
X0027110Y0035290D03*
X0022430Y0033490D03*
X0018550Y0033530D03*
X0022830Y0048330D03*
X0031630Y0048330D03*
D290*
X0031610Y0037450D03*
X0030930Y0033650D03*
X0024290Y0035050D03*
X0022850Y0037450D03*
X0020450Y0035050D03*
X0020450Y0033650D03*
D291*
X0022390Y0034170D03*
X0022390Y0034210D03*
X0022390Y0034530D03*
X0022390Y0034570D03*
X0026990Y0033690D03*
X0031590Y0037490D03*
D292*
X0027030Y0033770D03*
X0022870Y0037490D03*
D293*
X0019050Y0033850D03*
X0018050Y0033850D03*
X0028450Y0033850D03*
D294*
X0030390Y0033850D03*
X0033750Y0033850D03*
X0019990Y0033850D03*
D295*
X0036390Y0033850D03*
D296*
X0031710Y0048690D03*
X0022750Y0048690D03*
X0026470Y0033930D03*
D297*
X0034710Y0033970D03*
X0034710Y0034770D03*
D298*
X0034710Y0034730D03*
X0034710Y0034010D03*
X0027590Y0034770D03*
D299*
X0026470Y0034050D03*
D300*
X0027230Y0034250D03*
D301*
X0027550Y0034850D03*
D302*
X0034690Y0034850D03*
D303*
X0032710Y0035050D03*
D304*
X0028930Y0035250D03*
D305*
X0031650Y0037250D03*
X0022810Y0037250D03*
D306*
X0022870Y0037530D03*
X0031590Y0037530D03*
D307*
X0022890Y0037570D03*
D308*
X0031570Y0037570D03*
D309*
X0031570Y0037610D03*
X0022890Y0037610D03*
D310*
X0022910Y0037650D03*
X0031550Y0037650D03*
D311*
X0031550Y0037690D03*
X0027230Y0049930D03*
X0027230Y0049970D03*
X0027230Y0050010D03*
X0027230Y0050090D03*
X0027230Y0050130D03*
X0022910Y0037690D03*
D312*
X0022930Y0037730D03*
X0031530Y0037730D03*
D313*
X0031530Y0037770D03*
X0022930Y0037770D03*
D314*
X0022950Y0037810D03*
X0031510Y0037810D03*
D315*
X0031510Y0037850D03*
X0027230Y0049050D03*
X0022950Y0037850D03*
D316*
X0024810Y0037850D03*
X0029650Y0037850D03*
X0031650Y0048450D03*
X0022810Y0048450D03*
D317*
X0023450Y0037890D03*
X0031010Y0037890D03*
D318*
X0031030Y0037930D03*
X0023430Y0037930D03*
D319*
X0023430Y0037970D03*
X0027230Y0048010D03*
X0031030Y0037970D03*
D320*
X0030370Y0039690D03*
X0030330Y0039730D03*
X0030330Y0039770D03*
X0030290Y0039810D03*
X0024210Y0039890D03*
X0024210Y0039930D03*
X0024210Y0039970D03*
X0024170Y0039810D03*
X0024130Y0039770D03*
X0024130Y0039730D03*
X0023410Y0038010D03*
D321*
X0030250Y0039890D03*
X0030250Y0039930D03*
X0030250Y0039970D03*
X0031050Y0038010D03*
D322*
X0031050Y0038050D03*
X0030490Y0039450D03*
X0030250Y0040050D03*
X0024210Y0040050D03*
X0023410Y0038050D03*
D323*
X0023390Y0038090D03*
X0023870Y0039290D03*
X0023910Y0039330D03*
X0023950Y0039410D03*
X0024230Y0040090D03*
X0024230Y0040130D03*
X0030230Y0040130D03*
X0030230Y0040090D03*
X0030510Y0039410D03*
X0030550Y0039330D03*
X0030590Y0039290D03*
X0031070Y0038090D03*
D324*
X0031090Y0038130D03*
X0030690Y0039090D03*
X0030650Y0039170D03*
X0030610Y0039210D03*
X0030250Y0040170D03*
X0024210Y0040170D03*
X0023850Y0039210D03*
X0023810Y0039170D03*
X0023770Y0039090D03*
X0023370Y0038130D03*
D325*
X0023370Y0038170D03*
X0023610Y0038810D03*
X0023650Y0038890D03*
X0023690Y0038930D03*
X0023770Y0041370D03*
X0023850Y0044290D03*
X0030610Y0044290D03*
X0030690Y0041370D03*
X0030770Y0038930D03*
X0030810Y0038890D03*
X0030850Y0038810D03*
X0031090Y0038170D03*
D326*
X0031110Y0038210D03*
X0030950Y0038610D03*
X0030910Y0038690D03*
X0030590Y0044330D03*
X0023790Y0041330D03*
X0023590Y0038770D03*
X0023590Y0038730D03*
X0023550Y0038690D03*
X0023510Y0038610D03*
X0023350Y0038210D03*
D327*
X0023370Y0038250D03*
X0023530Y0038650D03*
X0030930Y0038650D03*
X0031090Y0038250D03*
D328*
X0031110Y0038290D03*
X0031110Y0038330D03*
X0031070Y0038370D03*
X0031070Y0038410D03*
X0030230Y0040370D03*
X0030230Y0040410D03*
X0030550Y0041210D03*
X0030750Y0044210D03*
X0030550Y0044370D03*
X0030510Y0044410D03*
X0027230Y0047930D03*
X0023950Y0044410D03*
X0023910Y0044370D03*
X0023710Y0044210D03*
X0023910Y0041210D03*
X0024230Y0040410D03*
X0024230Y0040370D03*
X0023390Y0038410D03*
X0023390Y0038370D03*
X0023350Y0038330D03*
X0023350Y0038290D03*
D329*
X0023430Y0038450D03*
X0023870Y0041250D03*
X0030590Y0041250D03*
X0031030Y0038450D03*
D330*
X0031010Y0038490D03*
X0031010Y0038530D03*
X0030970Y0038570D03*
X0030770Y0041410D03*
X0023690Y0041410D03*
X0023490Y0038570D03*
X0023450Y0038530D03*
X0023450Y0038490D03*
D331*
X0024230Y0040290D03*
X0024230Y0040330D03*
X0023830Y0041290D03*
X0023870Y0044330D03*
X0030630Y0041290D03*
X0030670Y0041330D03*
X0030230Y0040330D03*
X0030230Y0040290D03*
X0030870Y0038770D03*
X0030870Y0038730D03*
D332*
X0030810Y0038850D03*
X0030250Y0040250D03*
X0030650Y0044250D03*
X0023810Y0044250D03*
X0024210Y0040250D03*
X0023650Y0038850D03*
D333*
X0023710Y0038970D03*
X0023710Y0039010D03*
X0023790Y0039130D03*
X0024230Y0040210D03*
X0027230Y0047970D03*
X0030230Y0040210D03*
X0030670Y0039130D03*
D334*
X0030750Y0039010D03*
X0030750Y0038970D03*
D335*
X0023750Y0039050D03*
D336*
X0030710Y0039050D03*
D337*
X0030590Y0039250D03*
X0023870Y0039250D03*
D338*
X0023930Y0039370D03*
X0030530Y0039370D03*
D339*
X0023970Y0039450D03*
D340*
X0023990Y0039490D03*
X0024030Y0039570D03*
X0024070Y0039610D03*
X0024110Y0039690D03*
X0024230Y0040010D03*
X0030230Y0040010D03*
X0030390Y0039610D03*
X0030430Y0039570D03*
X0030470Y0039490D03*
D341*
X0030450Y0039530D03*
X0024010Y0039530D03*
D342*
X0024070Y0039650D03*
X0030390Y0039650D03*
D343*
X0030270Y0039850D03*
X0024190Y0039850D03*
D344*
X0024210Y0040450D03*
X0023970Y0044450D03*
X0030490Y0044450D03*
D345*
X0030250Y0040450D03*
D346*
X0030230Y0040490D03*
X0030230Y0040530D03*
X0030470Y0041130D03*
X0030430Y0044490D03*
X0024030Y0044490D03*
X0023990Y0041130D03*
X0024230Y0040530D03*
X0024230Y0040490D03*
D347*
X0024230Y0040570D03*
X0024230Y0040610D03*
X0023590Y0044170D03*
X0024070Y0044530D03*
X0024110Y0044570D03*
X0030350Y0044570D03*
X0030390Y0044530D03*
X0030870Y0044170D03*
X0030230Y0040610D03*
X0030230Y0040570D03*
D348*
X0030250Y0040650D03*
X0024210Y0040650D03*
D349*
X0024230Y0040690D03*
X0024230Y0040730D03*
X0024110Y0040970D03*
X0027230Y0047890D03*
X0030310Y0044610D03*
X0030230Y0040730D03*
X0030230Y0040690D03*
D350*
X0030230Y0040770D03*
X0030230Y0040810D03*
X0030270Y0040890D03*
X0031030Y0041490D03*
X0024230Y0040810D03*
X0024230Y0040770D03*
X0023470Y0044130D03*
D351*
X0024190Y0044650D03*
X0024190Y0040850D03*
D352*
X0030270Y0040850D03*
X0030270Y0044650D03*
D353*
X0030990Y0044130D03*
X0024190Y0040890D03*
D354*
X0024170Y0040930D03*
X0030290Y0040930D03*
D355*
X0030350Y0040970D03*
X0024150Y0044610D03*
D356*
X0024090Y0041010D03*
X0030370Y0041010D03*
D357*
X0030430Y0041050D03*
X0024030Y0041050D03*
D358*
X0024010Y0041090D03*
X0030450Y0041090D03*
D359*
X0030530Y0041170D03*
X0023930Y0041170D03*
D360*
X0023570Y0041450D03*
D361*
X0030890Y0041450D03*
D362*
X0023450Y0041490D03*
D363*
X0023330Y0041530D03*
X0023330Y0044090D03*
X0024330Y0044730D03*
X0030130Y0044730D03*
X0031130Y0044090D03*
X0031130Y0041530D03*
D364*
X0023190Y0041570D03*
D365*
X0031270Y0041570D03*
D366*
X0031390Y0041610D03*
X0031350Y0044010D03*
X0023110Y0044010D03*
X0023070Y0041610D03*
D367*
X0022950Y0041650D03*
D368*
X0031510Y0041650D03*
D369*
X0031630Y0041690D03*
X0031950Y0042410D03*
X0031950Y0042490D03*
X0031950Y0042530D03*
X0031950Y0042570D03*
X0031950Y0042610D03*
X0031950Y0043010D03*
X0031950Y0043090D03*
X0031950Y0043130D03*
X0031950Y0043170D03*
X0031950Y0043210D03*
X0022830Y0041690D03*
X0022510Y0042410D03*
X0022510Y0042490D03*
X0022510Y0042530D03*
X0022510Y0042570D03*
X0022510Y0042610D03*
X0022510Y0043010D03*
X0022510Y0043090D03*
X0022510Y0043130D03*
X0022510Y0043170D03*
X0022510Y0043210D03*
D370*
X0022590Y0043610D03*
X0022590Y0041970D03*
X0022590Y0041930D03*
X0022670Y0041770D03*
X0022710Y0041730D03*
X0031790Y0041770D03*
X0031870Y0041930D03*
X0031870Y0041970D03*
X0031870Y0043610D03*
D371*
X0031750Y0041730D03*
D372*
X0031810Y0041810D03*
X0031850Y0041890D03*
X0031850Y0043690D03*
X0031850Y0043730D03*
X0031810Y0043770D03*
X0031810Y0043810D03*
X0022650Y0043810D03*
X0022650Y0043770D03*
X0022610Y0043730D03*
X0022610Y0043690D03*
X0022610Y0041890D03*
X0022650Y0041810D03*
D373*
X0022630Y0041850D03*
X0022590Y0043650D03*
X0031870Y0043650D03*
X0031830Y0041850D03*
D374*
X0031890Y0042010D03*
X0031890Y0042090D03*
X0031890Y0043530D03*
X0031890Y0043570D03*
X0031730Y0043890D03*
X0022730Y0043890D03*
X0022570Y0043570D03*
X0022570Y0043530D03*
X0022570Y0042090D03*
X0022570Y0042010D03*
D375*
X0022570Y0042050D03*
X0031890Y0042050D03*
D376*
X0031910Y0042130D03*
X0031910Y0042170D03*
X0031910Y0042210D03*
X0031910Y0043410D03*
X0031910Y0043490D03*
X0022550Y0043490D03*
X0022550Y0043410D03*
X0022550Y0042210D03*
X0022550Y0042170D03*
X0022550Y0042130D03*
D377*
X0022530Y0042250D03*
X0022530Y0043250D03*
X0031930Y0043250D03*
X0031930Y0042250D03*
D378*
X0031930Y0042290D03*
X0031930Y0042330D03*
X0031930Y0042370D03*
X0031930Y0043290D03*
X0031930Y0043330D03*
X0031930Y0043370D03*
X0022530Y0043370D03*
X0022530Y0043330D03*
X0022530Y0043290D03*
X0022530Y0042370D03*
X0022530Y0042330D03*
X0022530Y0042290D03*
D379*
X0022510Y0042450D03*
X0022510Y0042650D03*
X0022510Y0043050D03*
X0031950Y0043050D03*
X0031950Y0042650D03*
X0031950Y0042450D03*
D380*
X0031970Y0042690D03*
X0031970Y0042730D03*
X0031970Y0042770D03*
X0031970Y0042810D03*
X0031970Y0042890D03*
X0031970Y0042930D03*
X0031970Y0042970D03*
X0031610Y0043930D03*
X0022490Y0042970D03*
X0022490Y0042930D03*
X0022490Y0042890D03*
X0022490Y0042810D03*
X0022490Y0042770D03*
X0022490Y0042730D03*
X0022490Y0042690D03*
D381*
X0022490Y0042850D03*
X0031970Y0042850D03*
D382*
X0031910Y0043450D03*
X0022550Y0043450D03*
D383*
X0022690Y0043850D03*
X0031770Y0043850D03*
D384*
X0022850Y0043930D03*
D385*
X0022970Y0043970D03*
X0031490Y0043970D03*
D386*
X0031230Y0044050D03*
X0023230Y0044050D03*
D387*
X0024270Y0044690D03*
X0030190Y0044690D03*
D388*
X0030030Y0044770D03*
X0024430Y0044770D03*
D389*
X0027230Y0044810D03*
X0027230Y0046170D03*
D390*
X0027230Y0044850D03*
D391*
X0027230Y0044890D03*
X0027230Y0046090D03*
X0027230Y0046130D03*
D392*
X0027230Y0045010D03*
X0027230Y0044970D03*
X0027230Y0044930D03*
D393*
X0027230Y0045050D03*
D394*
X0027230Y0045090D03*
X0027230Y0045970D03*
X0027230Y0046010D03*
D395*
X0027230Y0045930D03*
X0027230Y0045170D03*
X0027230Y0045130D03*
D396*
X0027230Y0045210D03*
X0027230Y0045290D03*
X0027230Y0045890D03*
D397*
X0027230Y0045850D03*
X0027230Y0045250D03*
D398*
X0027230Y0045330D03*
X0027230Y0045370D03*
X0027230Y0045810D03*
D399*
X0027230Y0045770D03*
X0027230Y0045730D03*
X0027230Y0045410D03*
D400*
X0027230Y0045450D03*
D401*
X0027230Y0045490D03*
X0027230Y0045530D03*
X0027230Y0045570D03*
X0027230Y0045690D03*
D402*
X0027230Y0045610D03*
D403*
X0027230Y0045650D03*
D404*
X0027230Y0046050D03*
D405*
X0027230Y0046210D03*
D406*
X0027230Y0046250D03*
D407*
X0027230Y0046290D03*
D408*
X0027230Y0046330D03*
D409*
X0027230Y0046370D03*
X0027230Y0046410D03*
D410*
X0027230Y0046450D03*
D411*
X0027230Y0046490D03*
X0027230Y0046530D03*
D412*
X0027230Y0046570D03*
D413*
X0027230Y0046610D03*
D414*
X0027230Y0046650D03*
D415*
X0027230Y0046690D03*
D416*
X0027230Y0046730D03*
X0027230Y0046770D03*
D417*
X0027230Y0046810D03*
D418*
X0027230Y0046850D03*
D419*
X0027230Y0046890D03*
X0027230Y0047610D03*
D420*
X0027230Y0047570D03*
X0027230Y0046930D03*
D421*
X0027230Y0046970D03*
X0027230Y0047530D03*
D422*
X0027230Y0047490D03*
X0027230Y0047010D03*
D423*
X0027230Y0047050D03*
D424*
X0027230Y0047090D03*
D425*
X0027230Y0047130D03*
X0027230Y0047170D03*
X0027230Y0047410D03*
D426*
X0027230Y0047370D03*
X0027230Y0047330D03*
X0027230Y0047210D03*
D427*
X0027230Y0047250D03*
D428*
X0027230Y0047290D03*
D429*
X0027230Y0047450D03*
D430*
X0027230Y0047650D03*
D431*
X0027230Y0048490D03*
X0027230Y0048530D03*
X0027230Y0048570D03*
X0027230Y0048610D03*
X0031470Y0047690D03*
X0022990Y0047690D03*
D432*
X0027230Y0047690D03*
D433*
X0031490Y0047730D03*
X0022970Y0047730D03*
D434*
X0027230Y0047730D03*
D435*
X0031490Y0047770D03*
X0022970Y0047770D03*
D436*
X0027230Y0047770D03*
D437*
X0022950Y0047810D03*
D438*
X0027230Y0047810D03*
D439*
X0027230Y0049290D03*
X0027230Y0049330D03*
X0027230Y0049370D03*
X0027230Y0049410D03*
X0027230Y0049490D03*
X0031510Y0047810D03*
D440*
X0031510Y0047850D03*
X0027230Y0049650D03*
X0022950Y0047850D03*
D441*
X0027230Y0047850D03*
D442*
X0027230Y0049730D03*
X0027230Y0049770D03*
X0027230Y0049810D03*
X0027230Y0049890D03*
X0022950Y0047890D03*
D443*
X0031530Y0047890D03*
D444*
X0031530Y0047930D03*
X0022930Y0047930D03*
D445*
X0022930Y0047970D03*
X0031530Y0047970D03*
D446*
X0031550Y0048010D03*
X0022910Y0048010D03*
D447*
X0022910Y0048050D03*
X0031550Y0048050D03*
D448*
X0027230Y0048050D03*
D449*
X0027230Y0048090D03*
D450*
X0027230Y0048130D03*
D451*
X0027230Y0048170D03*
D452*
X0027230Y0048210D03*
D453*
X0031610Y0048250D03*
X0022850Y0048250D03*
D454*
X0027230Y0048250D03*
D455*
X0027230Y0048290D03*
X0027230Y0048330D03*
X0027230Y0048370D03*
X0027230Y0048410D03*
D456*
X0027230Y0048450D03*
D457*
X0027230Y0048650D03*
X0027230Y0048850D03*
D458*
X0027230Y0048810D03*
X0027230Y0048770D03*
X0027230Y0048730D03*
X0027230Y0048690D03*
D459*
X0027230Y0048890D03*
X0027230Y0048930D03*
X0027230Y0048970D03*
X0027230Y0049010D03*
D460*
X0027230Y0049090D03*
X0027230Y0049130D03*
X0027230Y0049170D03*
X0027230Y0049210D03*
D461*
X0027230Y0049250D03*
D462*
X0027230Y0049450D03*
D463*
X0027230Y0049530D03*
X0027230Y0049570D03*
X0027230Y0049610D03*
X0027230Y0049690D03*
D464*
X0027230Y0049850D03*
D465*
X0027230Y0050050D03*
D466*
X0027230Y0050170D03*
M02*
