G75*
%MOIN*%
%OFA0B0*%
%FSLAX25Y25*%
%IPPOS*%
%LPD*%
%AMOC8*
5,1,8,0,0,1.08239X$1,22.5*
%
%ADD10C,0.00300*%
%ADD11C,0.00800*%
%ADD12C,0.00100*%
%ADD13C,0.00500*%
%ADD14C,0.00400*%
%ADD15C,0.00000*%
%ADD16C,0.01000*%
%ADD17C,0.00600*%
%ADD18C,0.00200*%
%ADD19R,0.00460X0.00011*%
%ADD20R,0.00920X0.00011*%
%ADD21R,0.01184X0.00011*%
%ADD22R,0.01426X0.00011*%
%ADD23R,0.01610X0.00011*%
%ADD24R,0.01783X0.00011*%
%ADD25R,0.01955X0.00011*%
%ADD26R,0.02093X0.00011*%
%ADD27R,0.02242X0.00011*%
%ADD28R,0.02369X0.00011*%
%ADD29R,0.02495X0.00011*%
%ADD30R,0.02611X0.00011*%
%ADD31R,0.02714X0.00011*%
%ADD32R,0.02829X0.00011*%
%ADD33R,0.02921X0.00011*%
%ADD34R,0.03025X0.00011*%
%ADD35R,0.03128X0.00011*%
%ADD36R,0.03220X0.00011*%
%ADD37R,0.03300X0.00011*%
%ADD38R,0.03392X0.00011*%
%ADD39R,0.03473X0.00011*%
%ADD40R,0.03565X0.00011*%
%ADD41R,0.03645X0.00011*%
%ADD42R,0.03726X0.00011*%
%ADD43R,0.03806X0.00011*%
%ADD44R,0.03875X0.00011*%
%ADD45R,0.03956X0.00011*%
%ADD46R,0.04013X0.00011*%
%ADD47R,0.04082X0.00011*%
%ADD48R,0.04163X0.00011*%
%ADD49R,0.04232X0.00011*%
%ADD50R,0.04301X0.00011*%
%ADD51R,0.04370X0.00011*%
%ADD52R,0.04428X0.00011*%
%ADD53R,0.04497X0.00011*%
%ADD54R,0.04554X0.00011*%
%ADD55R,0.04623X0.00011*%
%ADD56R,0.04680X0.00011*%
%ADD57R,0.04749X0.00011*%
%ADD58R,0.04807X0.00011*%
%ADD59R,0.04864X0.00011*%
%ADD60R,0.04933X0.00011*%
%ADD61R,0.04979X0.00011*%
%ADD62R,0.05037X0.00011*%
%ADD63R,0.05094X0.00011*%
%ADD64R,0.05141X0.00011*%
%ADD65R,0.05209X0.00011*%
%ADD66R,0.05267X0.00011*%
%ADD67R,0.05313X0.00011*%
%ADD68R,0.05370X0.00011*%
%ADD69R,0.05416X0.00011*%
%ADD70R,0.05474X0.00011*%
%ADD71R,0.05520X0.00011*%
%ADD72R,0.05577X0.00011*%
%ADD73R,0.05635X0.00011*%
%ADD74R,0.05681X0.00011*%
%ADD75R,0.05738X0.00011*%
%ADD76R,0.05784X0.00011*%
%ADD77R,0.05842X0.00011*%
%ADD78R,0.05877X0.00011*%
%ADD79R,0.05922X0.00011*%
%ADD80R,0.05980X0.00011*%
%ADD81R,0.06014X0.00011*%
%ADD82R,0.06061X0.00011*%
%ADD83R,0.06118X0.00011*%
%ADD84R,0.06164X0.00011*%
%ADD85R,0.06198X0.00011*%
%ADD86R,0.06256X0.00011*%
%ADD87R,0.06302X0.00011*%
%ADD88R,0.06348X0.00011*%
%ADD89R,0.06394X0.00011*%
%ADD90R,0.06440X0.00011*%
%ADD91R,0.06475X0.00011*%
%ADD92R,0.06532X0.00011*%
%ADD93R,0.06566X0.00011*%
%ADD94R,0.06613X0.00011*%
%ADD95R,0.06647X0.00011*%
%ADD96R,0.06693X0.00011*%
%ADD97R,0.06739X0.00011*%
%ADD98R,0.06773X0.00011*%
%ADD99R,0.06831X0.00011*%
%ADD100R,0.06866X0.00011*%
%ADD101R,0.06911X0.00011*%
%ADD102R,0.06946X0.00011*%
%ADD103R,0.06980X0.00011*%
%ADD104R,0.07027X0.00011*%
%ADD105R,0.07061X0.00011*%
%ADD106R,0.07118X0.00011*%
%ADD107R,0.07153X0.00011*%
%ADD108R,0.07187X0.00011*%
%ADD109R,0.07233X0.00011*%
%ADD110R,0.07268X0.00011*%
%ADD111R,0.07314X0.00011*%
%ADD112R,0.07348X0.00011*%
%ADD113R,0.07372X0.00011*%
%ADD114R,0.07417X0.00011*%
%ADD115R,0.07452X0.00011*%
%ADD116R,0.07486X0.00011*%
%ADD117R,0.07521X0.00011*%
%ADD118R,0.07567X0.00011*%
%ADD119R,0.07602X0.00011*%
%ADD120R,0.07636X0.00011*%
%ADD121R,0.07682X0.00011*%
%ADD122R,0.07716X0.00011*%
%ADD123R,0.07751X0.00011*%
%ADD124R,0.07786X0.00011*%
%ADD125R,0.07831X0.00011*%
%ADD126R,0.07866X0.00011*%
%ADD127R,0.07889X0.00011*%
%ADD128R,0.07923X0.00011*%
%ADD129R,0.07958X0.00011*%
%ADD130R,0.08004X0.00011*%
%ADD131R,0.08038X0.00011*%
%ADD132R,0.08061X0.00011*%
%ADD133R,0.08096X0.00011*%
%ADD134R,0.08130X0.00011*%
%ADD135R,0.08165X0.00011*%
%ADD136R,0.08211X0.00011*%
%ADD137R,0.08234X0.00011*%
%ADD138R,0.08269X0.00011*%
%ADD139R,0.08303X0.00011*%
%ADD140R,0.08338X0.00011*%
%ADD141R,0.08372X0.00011*%
%ADD142R,0.08395X0.00011*%
%ADD143R,0.08430X0.00011*%
%ADD144R,0.08464X0.00011*%
%ADD145R,0.08498X0.00011*%
%ADD146R,0.08533X0.00011*%
%ADD147R,0.04381X0.00011*%
%ADD148R,0.03818X0.00011*%
%ADD149R,0.04140X0.00011*%
%ADD150R,0.03622X0.00011*%
%ADD151R,0.04025X0.00011*%
%ADD152R,0.03496X0.00011*%
%ADD153R,0.03933X0.00011*%
%ADD154R,0.03864X0.00011*%
%ADD155R,0.03312X0.00011*%
%ADD156R,0.03795X0.00011*%
%ADD157R,0.03243X0.00011*%
%ADD158R,0.03737X0.00011*%
%ADD159R,0.03186X0.00011*%
%ADD160R,0.03680X0.00011*%
%ADD161R,0.03128X0.00011*%
%ADD162R,0.03082X0.00011*%
%ADD163R,0.03599X0.00011*%
%ADD164R,0.03036X0.00011*%
%ADD165R,0.03553X0.00011*%
%ADD166R,0.02990X0.00011*%
%ADD167R,0.03530X0.00011*%
%ADD168R,0.02944X0.00011*%
%ADD169R,0.02909X0.00011*%
%ADD170R,0.03461X0.00011*%
%ADD171R,0.02875X0.00011*%
%ADD172R,0.03439X0.00011*%
%ADD173R,0.02840X0.00011*%
%ADD174R,0.02806X0.00011*%
%ADD175R,0.03381X0.00011*%
%ADD176R,0.02783X0.00011*%
%ADD177R,0.03358X0.00011*%
%ADD178R,0.02760X0.00011*%
%ADD179R,0.03335X0.00011*%
%ADD180R,0.02725X0.00011*%
%ADD181R,0.02702X0.00011*%
%ADD182R,0.03289X0.00011*%
%ADD183R,0.02668X0.00011*%
%ADD184R,0.03266X0.00011*%
%ADD185R,0.02645X0.00011*%
%ADD186R,0.02622X0.00011*%
%ADD187R,0.03231X0.00011*%
%ADD188R,0.02599X0.00011*%
%ADD189R,0.03208X0.00011*%
%ADD190R,0.02587X0.00011*%
%ADD191R,0.03197X0.00011*%
%ADD192R,0.02564X0.00011*%
%ADD193R,0.03185X0.00011*%
%ADD194R,0.02541X0.00011*%
%ADD195R,0.03163X0.00011*%
%ADD196R,0.02519X0.00011*%
%ADD197R,0.03151X0.00011*%
%ADD198R,0.03139X0.00011*%
%ADD199R,0.02484X0.00011*%
%ADD200R,0.02449X0.00011*%
%ADD201R,0.03116X0.00011*%
%ADD202R,0.02438X0.00011*%
%ADD203R,0.03105X0.00011*%
%ADD204R,0.02415X0.00011*%
%ADD205R,0.02403X0.00011*%
%ADD206R,0.02380X0.00011*%
%ADD207R,0.03059X0.00011*%
%ADD208R,0.03059X0.00011*%
%ADD209R,0.02357X0.00011*%
%ADD210R,0.02346X0.00011*%
%ADD211R,0.02323X0.00011*%
%ADD212R,0.03024X0.00011*%
%ADD213R,0.02311X0.00011*%
%ADD214R,0.02289X0.00011*%
%ADD215R,0.03002X0.00011*%
%ADD216R,0.02277X0.00011*%
%ADD217R,0.02266X0.00011*%
%ADD218R,0.02231X0.00011*%
%ADD219R,0.02978X0.00011*%
%ADD220R,0.02219X0.00011*%
%ADD221R,0.02967X0.00011*%
%ADD222R,0.02197X0.00011*%
%ADD223R,0.02955X0.00011*%
%ADD224R,0.02185X0.00011*%
%ADD225R,0.02173X0.00011*%
%ADD226R,0.02162X0.00011*%
%ADD227R,0.02150X0.00011*%
%ADD228R,0.02933X0.00011*%
%ADD229R,0.02139X0.00011*%
%ADD230R,0.02932X0.00011*%
%ADD231R,0.02127X0.00011*%
%ADD232R,0.02104X0.00011*%
%ADD233R,0.02105X0.00011*%
%ADD234R,0.02898X0.00011*%
%ADD235R,0.02081X0.00011*%
%ADD236R,0.02070X0.00011*%
%ADD237R,0.02047X0.00011*%
%ADD238R,0.02898X0.00011*%
%ADD239R,0.02886X0.00011*%
%ADD240R,0.02036X0.00011*%
%ADD241R,0.02024X0.00011*%
%ADD242R,0.02001X0.00011*%
%ADD243R,0.02864X0.00011*%
%ADD244R,0.01989X0.00011*%
%ADD245R,0.02863X0.00011*%
%ADD246R,0.01978X0.00011*%
%ADD247R,0.02852X0.00011*%
%ADD248R,0.01943X0.00011*%
%ADD249R,0.01932X0.00011*%
%ADD250R,0.01920X0.00011*%
%ADD251R,0.01909X0.00011*%
%ADD252R,0.02841X0.00011*%
%ADD253R,0.01909X0.00011*%
%ADD254R,0.01897X0.00011*%
%ADD255R,0.01886X0.00011*%
%ADD256R,0.01875X0.00011*%
%ADD257R,0.01874X0.00011*%
%ADD258R,0.01863X0.00011*%
%ADD259R,0.01852X0.00011*%
%ADD260R,0.01840X0.00011*%
%ADD261R,0.01840X0.00011*%
%ADD262R,0.01817X0.00011*%
%ADD263R,0.01817X0.00011*%
%ADD264R,0.01805X0.00011*%
%ADD265R,0.01794X0.00011*%
%ADD266R,0.01771X0.00011*%
%ADD267R,0.01748X0.00011*%
%ADD268R,0.01748X0.00011*%
%ADD269R,0.02829X0.00011*%
%ADD270R,0.01736X0.00011*%
%ADD271R,0.01725X0.00011*%
%ADD272R,0.01713X0.00011*%
%ADD273R,0.01714X0.00011*%
%ADD274R,0.01702X0.00011*%
%ADD275R,0.01691X0.00011*%
%ADD276R,0.01679X0.00011*%
%ADD277R,0.01679X0.00011*%
%ADD278R,0.01667X0.00011*%
%ADD279R,0.01644X0.00011*%
%ADD280R,0.01633X0.00011*%
%ADD281R,0.01622X0.00011*%
%ADD282R,0.01621X0.00011*%
%ADD283R,0.01598X0.00011*%
%ADD284R,0.01587X0.00011*%
%ADD285R,0.01587X0.00011*%
%ADD286R,0.01575X0.00011*%
%ADD287R,0.01564X0.00011*%
%ADD288R,0.01552X0.00011*%
%ADD289R,0.01541X0.00011*%
%ADD290R,0.01553X0.00011*%
%ADD291R,0.01230X0.00011*%
%ADD292R,0.01529X0.00011*%
%ADD293R,0.00690X0.00011*%
%ADD294R,0.01242X0.00011*%
%ADD295R,0.01530X0.00011*%
%ADD296R,0.01000X0.00011*%
%ADD297R,0.01253X0.00011*%
%ADD298R,0.01265X0.00011*%
%ADD299R,0.01518X0.00011*%
%ADD300R,0.01438X0.00011*%
%ADD301R,0.01518X0.00011*%
%ADD302R,0.01277X0.00011*%
%ADD303R,0.01288X0.00011*%
%ADD304R,0.01506X0.00011*%
%ADD305R,0.02058X0.00011*%
%ADD306R,0.01299X0.00011*%
%ADD307R,0.01311X0.00011*%
%ADD308R,0.01495X0.00011*%
%ADD309R,0.02507X0.00011*%
%ADD310R,0.01322X0.00011*%
%ADD311R,0.02610X0.00011*%
%ADD312R,0.02967X0.00011*%
%ADD313R,0.02714X0.00011*%
%ADD314R,0.01334X0.00011*%
%ADD315R,0.01495X0.00011*%
%ADD316R,0.02806X0.00011*%
%ADD317R,0.01345X0.00011*%
%ADD318R,0.01483X0.00011*%
%ADD319R,0.03047X0.00011*%
%ADD320R,0.01472X0.00011*%
%ADD321R,0.02990X0.00011*%
%ADD322R,0.01357X0.00011*%
%ADD323R,0.03427X0.00011*%
%ADD324R,0.01369X0.00011*%
%ADD325R,0.03013X0.00011*%
%ADD326R,0.01460X0.00011*%
%ADD327R,0.01380X0.00011*%
%ADD328R,0.01461X0.00011*%
%ADD329R,0.03691X0.00011*%
%ADD330R,0.03760X0.00011*%
%ADD331R,0.01391X0.00011*%
%ADD332R,0.01449X0.00011*%
%ADD333R,0.03991X0.00011*%
%ADD334R,0.04048X0.00011*%
%ADD335R,0.01403X0.00011*%
%ADD336R,0.04094X0.00011*%
%ADD337R,0.04152X0.00011*%
%ADD338R,0.04197X0.00011*%
%ADD339R,0.01414X0.00011*%
%ADD340R,0.03070X0.00011*%
%ADD341R,0.04266X0.00011*%
%ADD342R,0.04312X0.00011*%
%ADD343R,0.04358X0.00011*%
%ADD344R,0.04404X0.00011*%
%ADD345R,0.03093X0.00011*%
%ADD346R,0.04450X0.00011*%
%ADD347R,0.01426X0.00011*%
%ADD348R,0.03094X0.00011*%
%ADD349R,0.04496X0.00011*%
%ADD350R,0.04589X0.00011*%
%ADD351R,0.04634X0.00011*%
%ADD352R,0.04727X0.00011*%
%ADD353R,0.04750X0.00011*%
%ADD354R,0.04795X0.00011*%
%ADD355R,0.04841X0.00011*%
%ADD356R,0.06359X0.00011*%
%ADD357R,0.06383X0.00011*%
%ADD358R,0.06405X0.00011*%
%ADD359R,0.03151X0.00011*%
%ADD360R,0.06417X0.00011*%
%ADD361R,0.06463X0.00011*%
%ADD362R,0.03174X0.00011*%
%ADD363R,0.06474X0.00011*%
%ADD364R,0.06497X0.00011*%
%ADD365R,0.06520X0.00011*%
%ADD366R,0.06555X0.00011*%
%ADD367R,0.02576X0.00011*%
%ADD368R,0.03277X0.00011*%
%ADD369R,0.03220X0.00011*%
%ADD370R,0.02427X0.00011*%
%ADD371R,0.02392X0.00011*%
%ADD372R,0.01403X0.00011*%
%ADD373R,0.02817X0.00011*%
%ADD374R,0.02771X0.00011*%
%ADD375R,0.03255X0.00011*%
%ADD376R,0.02196X0.00011*%
%ADD377R,0.02691X0.00011*%
%ADD378R,0.02645X0.00011*%
%ADD379R,0.01392X0.00011*%
%ADD380R,0.02576X0.00011*%
%ADD381R,0.02553X0.00011*%
%ADD382R,0.02035X0.00011*%
%ADD383R,0.02461X0.00011*%
%ADD384R,0.03323X0.00011*%
%ADD385R,0.02013X0.00011*%
%ADD386R,0.02001X0.00011*%
%ADD387R,0.02358X0.00011*%
%ADD388R,0.02334X0.00011*%
%ADD389R,0.03346X0.00011*%
%ADD390R,0.01978X0.00011*%
%ADD391R,0.01966X0.00011*%
%ADD392R,0.02288X0.00011*%
%ADD393R,0.01944X0.00011*%
%ADD394R,0.03404X0.00011*%
%ADD395R,0.03404X0.00011*%
%ADD396R,0.03416X0.00011*%
%ADD397R,0.02070X0.00011*%
%ADD398R,0.03438X0.00011*%
%ADD399R,0.03450X0.00011*%
%ADD400R,0.01851X0.00011*%
%ADD401R,0.03473X0.00011*%
%ADD402R,0.03484X0.00011*%
%ADD403R,0.01828X0.00011*%
%ADD404R,0.03519X0.00011*%
%ADD405R,0.01806X0.00011*%
%ADD406R,0.03542X0.00011*%
%ADD407R,0.03565X0.00011*%
%ADD408R,0.01782X0.00011*%
%ADD409R,0.03577X0.00011*%
%ADD410R,0.03588X0.00011*%
%ADD411R,0.03611X0.00011*%
%ADD412R,0.01759X0.00011*%
%ADD413R,0.03634X0.00011*%
%ADD414R,0.03657X0.00011*%
%ADD415R,0.03703X0.00011*%
%ADD416R,0.03714X0.00011*%
%ADD417R,0.01656X0.00011*%
%ADD418R,0.03726X0.00011*%
%ADD419R,0.03761X0.00011*%
%ADD420R,0.03772X0.00011*%
%ADD421R,0.03783X0.00011*%
%ADD422R,0.03795X0.00011*%
%ADD423R,0.03830X0.00011*%
%ADD424R,0.03841X0.00011*%
%ADD425R,0.03852X0.00011*%
%ADD426R,0.03864X0.00011*%
%ADD427R,0.03887X0.00011*%
%ADD428R,0.03898X0.00011*%
%ADD429R,0.03910X0.00011*%
%ADD430R,0.03922X0.00011*%
%ADD431R,0.03944X0.00011*%
%ADD432R,0.03967X0.00011*%
%ADD433R,0.03979X0.00011*%
%ADD434R,0.03990X0.00011*%
%ADD435R,0.04002X0.00011*%
%ADD436R,0.04014X0.00011*%
%ADD437R,0.04059X0.00011*%
%ADD438R,0.04071X0.00011*%
%ADD439R,0.04083X0.00011*%
%ADD440R,0.04105X0.00011*%
%ADD441R,0.04117X0.00011*%
%ADD442R,0.04128X0.00011*%
%ADD443R,0.04151X0.00011*%
%ADD444R,0.01690X0.00011*%
%ADD445R,0.04174X0.00011*%
%ADD446R,0.04186X0.00011*%
%ADD447R,0.04209X0.00011*%
%ADD448R,0.04220X0.00011*%
%ADD449R,0.04244X0.00011*%
%ADD450R,0.04255X0.00011*%
%ADD451R,0.04278X0.00011*%
%ADD452R,0.04289X0.00011*%
%ADD453R,0.04301X0.00011*%
%ADD454R,0.04324X0.00011*%
%ADD455R,0.04336X0.00011*%
%ADD456R,0.04347X0.00011*%
%ADD457R,0.04370X0.00011*%
%ADD458R,0.04393X0.00011*%
%ADD459R,0.04405X0.00011*%
%ADD460R,0.04416X0.00011*%
%ADD461R,0.04427X0.00011*%
%ADD462R,0.04439X0.00011*%
%ADD463R,0.04462X0.00011*%
%ADD464R,0.04473X0.00011*%
%ADD465R,0.04485X0.00011*%
%ADD466R,0.04508X0.00011*%
%ADD467R,0.04519X0.00011*%
%ADD468R,0.04531X0.00011*%
%ADD469R,0.04542X0.00011*%
%ADD470R,0.04566X0.00011*%
%ADD471R,0.04577X0.00011*%
%ADD472R,0.04600X0.00011*%
%ADD473R,0.04611X0.00011*%
%ADD474R,0.04623X0.00011*%
%ADD475R,0.04646X0.00011*%
%ADD476R,0.04658X0.00011*%
%ADD477R,0.04669X0.00011*%
%ADD478R,0.04692X0.00011*%
%ADD479R,0.04703X0.00011*%
%ADD480R,0.04715X0.00011*%
%ADD481R,0.04738X0.00011*%
%ADD482R,0.04761X0.00011*%
%ADD483R,0.04772X0.00011*%
%ADD484R,0.04784X0.00011*%
%ADD485R,0.04818X0.00011*%
%ADD486R,0.04830X0.00011*%
%ADD487R,0.04853X0.00011*%
%ADD488R,0.04876X0.00011*%
%ADD489R,0.03749X0.00011*%
%ADD490R,0.04888X0.00011*%
%ADD491R,0.04899X0.00011*%
%ADD492R,0.04911X0.00011*%
%ADD493R,0.04922X0.00011*%
%ADD494R,0.04945X0.00011*%
%ADD495R,0.04956X0.00011*%
%ADD496R,0.04968X0.00011*%
%ADD497R,0.04980X0.00011*%
%ADD498R,0.04991X0.00011*%
%ADD499R,0.05003X0.00011*%
%ADD500R,0.05014X0.00011*%
%ADD501R,0.05025X0.00011*%
%ADD502R,0.05048X0.00011*%
%ADD503R,0.05060X0.00011*%
%ADD504R,0.05072X0.00011*%
%ADD505R,0.05083X0.00011*%
%ADD506R,0.05106X0.00011*%
%ADD507R,0.05117X0.00011*%
%ADD508R,0.05129X0.00011*%
%ADD509R,0.05152X0.00011*%
%ADD510R,0.05164X0.00011*%
%ADD511R,0.05175X0.00011*%
%ADD512R,0.05186X0.00011*%
%ADD513R,0.05198X0.00011*%
%ADD514R,0.05221X0.00011*%
%ADD515R,0.05232X0.00011*%
%ADD516R,0.05244X0.00011*%
%ADD517R,0.05255X0.00011*%
%ADD518R,0.05278X0.00011*%
%ADD519R,0.05290X0.00011*%
%ADD520R,0.05302X0.00011*%
%ADD521R,0.05324X0.00011*%
%ADD522R,0.05336X0.00011*%
%ADD523R,0.05347X0.00011*%
%ADD524R,0.05359X0.00011*%
%ADD525R,0.02116X0.00011*%
%ADD526R,0.05382X0.00011*%
%ADD527R,0.05394X0.00011*%
%ADD528R,0.05405X0.00011*%
%ADD529R,0.02162X0.00011*%
%ADD530R,0.05428X0.00011*%
%ADD531R,0.05439X0.00011*%
%ADD532R,0.05451X0.00011*%
%ADD533R,0.05462X0.00011*%
%ADD534R,0.02208X0.00011*%
%ADD535R,0.05485X0.00011*%
%ADD536R,0.02231X0.00011*%
%ADD537R,0.05497X0.00011*%
%ADD538R,0.05508X0.00011*%
%ADD539R,0.02254X0.00011*%
%ADD540R,0.05520X0.00011*%
%ADD541R,0.05531X0.00011*%
%ADD542R,0.05543X0.00011*%
%ADD543R,0.05555X0.00011*%
%ADD544R,0.05566X0.00011*%
%ADD545R,0.05578X0.00011*%
%ADD546R,0.05589X0.00011*%
%ADD547R,0.05600X0.00011*%
%ADD548R,0.05612X0.00011*%
%ADD549R,0.05623X0.00011*%
%ADD550R,0.02392X0.00011*%
%ADD551R,0.05646X0.00011*%
%ADD552R,0.02415X0.00011*%
%ADD553R,0.05658X0.00011*%
%ADD554R,0.05669X0.00011*%
%ADD555R,0.02450X0.00011*%
%ADD556R,0.05681X0.00011*%
%ADD557R,0.02472X0.00011*%
%ADD558R,0.05692X0.00011*%
%ADD559R,0.05704X0.00011*%
%ADD560R,0.05716X0.00011*%
%ADD561R,0.05727X0.00011*%
%ADD562R,0.02530X0.00011*%
%ADD563R,0.05739X0.00011*%
%ADD564R,0.02553X0.00011*%
%ADD565R,0.01219X0.00011*%
%ADD566R,0.01196X0.00011*%
%ADD567R,0.02633X0.00011*%
%ADD568R,0.03381X0.00011*%
%ADD569R,0.01173X0.00011*%
%ADD570R,0.01150X0.00011*%
%ADD571R,0.02656X0.00011*%
%ADD572R,0.01127X0.00011*%
%ADD573R,0.01116X0.00011*%
%ADD574R,0.03254X0.00011*%
%ADD575R,0.01092X0.00011*%
%ADD576R,0.01081X0.00011*%
%ADD577R,0.01058X0.00011*%
%ADD578R,0.01047X0.00011*%
%ADD579R,0.02737X0.00011*%
%ADD580R,0.01035X0.00011*%
%ADD581R,0.02748X0.00011*%
%ADD582R,0.01023X0.00011*%
%ADD583R,0.01012X0.00011*%
%ADD584R,0.02794X0.00011*%
%ADD585R,0.00989X0.00011*%
%ADD586R,0.00978X0.00011*%
%ADD587R,0.00966X0.00011*%
%ADD588R,0.00954X0.00011*%
%ADD589R,0.00955X0.00011*%
%ADD590R,0.00943X0.00011*%
%ADD591R,0.00931X0.00011*%
%ADD592R,0.02680X0.00011*%
%ADD593R,0.00920X0.00011*%
%ADD594R,0.02542X0.00011*%
%ADD595R,0.02426X0.00011*%
%ADD596R,0.02323X0.00011*%
%ADD597R,0.02300X0.00011*%
%ADD598R,0.03369X0.00011*%
%ADD599R,0.00977X0.00011*%
%ADD600R,0.00989X0.00011*%
%ADD601R,0.01656X0.00011*%
%ADD602R,0.01012X0.00011*%
%ADD603R,0.01046X0.00011*%
%ADD604R,0.01069X0.00011*%
%ADD605R,0.01139X0.00011*%
%ADD606R,0.03669X0.00011*%
%ADD607R,0.00908X0.00011*%
%ADD608R,0.00828X0.00011*%
%ADD609R,0.01104X0.00011*%
%ADD610R,0.00759X0.00011*%
%ADD611R,0.00678X0.00011*%
%ADD612R,0.00575X0.00011*%
%ADD613R,0.00448X0.00011*%
%ADD614R,0.00264X0.00011*%
%ADD615R,0.01138X0.00011*%
%ADD616R,0.01161X0.00011*%
%ADD617R,0.01173X0.00011*%
%ADD618R,0.03853X0.00011*%
%ADD619R,0.01208X0.00011*%
%ADD620R,0.03921X0.00011*%
%ADD621R,0.02484X0.00011*%
%ADD622R,0.02381X0.00011*%
%ADD623R,0.03979X0.00011*%
%ADD624R,0.05163X0.00011*%
%ADD625R,0.04036X0.00011*%
%ADD626R,0.05002X0.00011*%
%ADD627R,0.01334X0.00011*%
%ADD628R,0.04876X0.00011*%
%ADD629R,0.04692X0.00011*%
%ADD630R,0.04335X0.00011*%
%ADD631R,0.03600X0.00011*%
%ADD632R,0.04531X0.00011*%
%ADD633R,0.04565X0.00011*%
%ADD634R,0.04681X0.00011*%
%ADD635R,0.04784X0.00011*%
%ADD636R,0.04819X0.00011*%
%ADD637R,0.00541X0.00011*%
%ADD638R,0.04910X0.00011*%
%ADD639R,0.05037X0.00011*%
%ADD640R,0.05198X0.00011*%
%ADD641R,0.05393X0.00011*%
%ADD642R,0.05554X0.00011*%
%ADD643R,0.05750X0.00011*%
%ADD644R,0.05761X0.00011*%
%ADD645R,0.05819X0.00011*%
%ADD646R,0.05830X0.00011*%
%ADD647R,0.05865X0.00011*%
%ADD648R,0.05900X0.00011*%
%ADD649R,0.05945X0.00011*%
%ADD650R,0.06003X0.00011*%
%ADD651R,0.02772X0.00011*%
%ADD652R,0.06049X0.00011*%
%ADD653R,0.06072X0.00011*%
%ADD654R,0.06095X0.00011*%
%ADD655R,0.06141X0.00011*%
%ADD656R,0.06175X0.00011*%
%ADD657R,0.06187X0.00011*%
%ADD658R,0.06210X0.00011*%
%ADD659R,0.06244X0.00011*%
%ADD660R,0.06267X0.00011*%
%ADD661R,0.06325X0.00011*%
%ADD662R,0.03117X0.00011*%
%ADD663R,0.03634X0.00011*%
%ADD664R,0.03507X0.00011*%
%ADD665R,0.03508X0.00011*%
%ADD666R,0.03415X0.00011*%
%ADD667R,0.04209X0.00011*%
%ADD668R,0.04439X0.00011*%
%ADD669R,0.03347X0.00011*%
%ADD670R,0.10235X0.00011*%
%ADD671R,0.10247X0.00011*%
%ADD672R,0.10258X0.00011*%
%ADD673R,0.10269X0.00011*%
%ADD674R,0.03312X0.00011*%
%ADD675R,0.10281X0.00011*%
%ADD676R,0.10292X0.00011*%
%ADD677R,0.03278X0.00011*%
%ADD678R,0.10304X0.00011*%
%ADD679R,0.10316X0.00011*%
%ADD680R,0.10327X0.00011*%
%ADD681R,0.10338X0.00011*%
%ADD682R,0.10350X0.00011*%
%ADD683R,0.10361X0.00011*%
%ADD684R,0.10373X0.00011*%
%ADD685R,0.10384X0.00011*%
%ADD686R,0.10396X0.00011*%
%ADD687R,0.10419X0.00011*%
%ADD688R,0.10430X0.00011*%
%ADD689R,0.10442X0.00011*%
%ADD690R,0.10453X0.00011*%
%ADD691R,0.10465X0.00011*%
%ADD692R,0.10477X0.00011*%
%ADD693R,0.10488X0.00011*%
%ADD694R,0.10500X0.00011*%
%ADD695R,0.04140X0.00011*%
%ADD696R,0.03887X0.00011*%
%ADD697R,0.02737X0.00011*%
%ADD698R,0.02703X0.00011*%
%ADD699R,0.00851X0.00011*%
%ADD700R,0.00770X0.00011*%
%ADD701R,0.00655X0.00011*%
%ADD702R,0.00552X0.00011*%
%ADD703R,0.00379X0.00011*%
%ADD704R,0.00011X0.00011*%
%ADD705R,0.02679X0.00011*%
%ADD706R,0.02518X0.00011*%
%ADD707R,0.02128X0.00011*%
%ADD708R,0.01081X0.00011*%
%ADD709R,0.00885X0.00011*%
%ADD710R,0.00863X0.00011*%
%ADD711R,0.00839X0.00011*%
%ADD712R,0.00794X0.00011*%
%ADD713R,0.00747X0.00011*%
%ADD714R,0.00713X0.00011*%
%ADD715R,0.00690X0.00011*%
%ADD716R,0.00644X0.00011*%
%ADD717R,0.00609X0.00011*%
%ADD718R,0.00529X0.00011*%
%ADD719R,0.00471X0.00011*%
%ADD720R,0.00425X0.00011*%
%ADD721R,0.00287X0.00011*%
%ADD722R,0.00195X0.00011*%
%ADD723R,0.01207X0.00011*%
%ADD724R,0.01115X0.00011*%
%ADD725R,0.00886X0.00011*%
%ADD726R,0.00805X0.00011*%
%ADD727R,0.00782X0.00011*%
%ADD728R,0.00724X0.00011*%
%ADD729R,0.00702X0.00011*%
%ADD730R,0.00632X0.00011*%
%ADD731R,0.00598X0.00011*%
%ADD732R,0.00517X0.00011*%
%ADD733R,0.00368X0.00011*%
%ADD734R,0.00322X0.00011*%
%ADD735R,0.00230X0.00011*%
%ADD736R,0.00115X0.00011*%
%ADD737R,0.01368X0.00011*%
%ADD738R,0.00897X0.00011*%
%ADD739R,0.00874X0.00011*%
%ADD740R,0.00817X0.00011*%
%ADD741R,0.00736X0.00011*%
%ADD742R,0.00633X0.00011*%
%ADD743R,0.00586X0.00011*%
%ADD744R,0.00506X0.00011*%
%ADD745R,0.00207X0.00011*%
%ADD746R,0.00103X0.00011*%
D10*
X0047503Y0042669D02*
X0047503Y0044120D01*
X0047987Y0044603D01*
X0048954Y0044603D01*
X0049438Y0044120D01*
X0049438Y0042669D01*
X0049438Y0043636D02*
X0050406Y0044603D01*
X0050406Y0045615D02*
X0047503Y0047550D01*
X0047503Y0045615D02*
X0050406Y0047550D01*
X0050406Y0042669D02*
X0047503Y0042669D01*
X0057503Y0042669D02*
X0057503Y0044603D01*
X0057503Y0043636D02*
X0060406Y0043636D01*
X0060406Y0045615D02*
X0057503Y0047550D01*
X0057503Y0045615D02*
X0060406Y0047550D01*
X0067503Y0047066D02*
X0067503Y0046099D01*
X0067987Y0045615D01*
X0069922Y0045615D01*
X0070406Y0046099D01*
X0070406Y0047066D01*
X0069922Y0047550D01*
X0069922Y0048562D02*
X0070406Y0049045D01*
X0070406Y0050013D01*
X0069922Y0050497D01*
X0069922Y0048562D02*
X0067987Y0048562D01*
X0067503Y0049045D01*
X0067503Y0050013D01*
X0067987Y0050497D01*
X0067987Y0047550D02*
X0067503Y0047066D01*
X0067503Y0044603D02*
X0069438Y0044603D01*
X0070406Y0043636D01*
X0069438Y0042669D01*
X0067503Y0042669D01*
X0077503Y0043152D02*
X0077987Y0042669D01*
X0079922Y0042669D01*
X0080406Y0043152D01*
X0080406Y0044120D01*
X0079922Y0044603D01*
X0078954Y0044603D01*
X0078954Y0043636D01*
X0077987Y0044603D02*
X0077503Y0044120D01*
X0077503Y0043152D01*
X0077503Y0045615D02*
X0080406Y0047550D01*
X0077503Y0047550D01*
X0077503Y0048562D02*
X0077503Y0050013D01*
X0077987Y0050497D01*
X0079922Y0050497D01*
X0080406Y0050013D01*
X0080406Y0048562D01*
X0077503Y0048562D01*
X0077503Y0045615D02*
X0080406Y0045615D01*
X0095572Y0041572D02*
X0095572Y0038669D01*
X0097023Y0038669D01*
X0097507Y0039153D01*
X0097507Y0039637D01*
X0097023Y0040121D01*
X0095572Y0040121D01*
X0095572Y0041572D02*
X0097023Y0041572D01*
X0097507Y0041088D01*
X0097507Y0040604D01*
X0097023Y0040121D01*
X0098519Y0041572D02*
X0098519Y0038669D01*
X0100454Y0038669D01*
X0101465Y0038669D02*
X0103400Y0038669D01*
X0102433Y0040121D02*
X0101465Y0040121D01*
X0101465Y0041572D02*
X0101465Y0038669D01*
X0101465Y0035804D02*
X0102433Y0033869D01*
X0103400Y0035804D01*
X0104412Y0034353D02*
X0104412Y0033869D01*
X0104895Y0033869D01*
X0104895Y0034353D01*
X0104412Y0034353D01*
X0107358Y0038669D02*
X0108809Y0038669D01*
X0109293Y0039153D01*
X0109293Y0039637D01*
X0108809Y0040121D01*
X0107358Y0040121D01*
X0107358Y0041572D02*
X0107358Y0038669D01*
X0108809Y0040121D02*
X0109293Y0040604D01*
X0109293Y0041088D01*
X0108809Y0041572D01*
X0107358Y0041572D01*
X0110305Y0040604D02*
X0110305Y0038669D01*
X0110305Y0039637D02*
X0111272Y0040604D01*
X0111756Y0040604D01*
X0112760Y0040604D02*
X0113244Y0040604D01*
X0113244Y0038669D01*
X0112760Y0038669D02*
X0113728Y0038669D01*
X0114724Y0039153D02*
X0114724Y0040121D01*
X0115208Y0040604D01*
X0116659Y0040604D01*
X0117671Y0039637D02*
X0119122Y0040604D01*
X0117671Y0039637D02*
X0119122Y0038669D01*
X0117671Y0038669D02*
X0117671Y0041572D01*
X0116659Y0038669D02*
X0115208Y0038669D01*
X0114724Y0039153D01*
X0115208Y0036288D02*
X0115208Y0034353D01*
X0115692Y0033869D01*
X0116689Y0034353D02*
X0117172Y0034837D01*
X0118624Y0034837D01*
X0118624Y0035321D02*
X0118624Y0033869D01*
X0117172Y0033869D01*
X0116689Y0034353D01*
X0117172Y0035804D02*
X0118140Y0035804D01*
X0118624Y0035321D01*
X0115692Y0035804D02*
X0114724Y0035804D01*
X0113713Y0035321D02*
X0113713Y0034837D01*
X0111778Y0034837D01*
X0111778Y0035321D02*
X0112262Y0035804D01*
X0113229Y0035804D01*
X0113713Y0035321D01*
X0113229Y0033869D02*
X0112262Y0033869D01*
X0111778Y0034353D01*
X0111778Y0035321D01*
X0110766Y0035804D02*
X0110283Y0035321D01*
X0108831Y0035321D01*
X0108831Y0036772D02*
X0108831Y0033869D01*
X0110283Y0033869D01*
X0110766Y0034353D01*
X0110766Y0034837D01*
X0110283Y0035321D01*
X0110766Y0035804D02*
X0110766Y0036288D01*
X0110283Y0036772D01*
X0108831Y0036772D01*
X0113244Y0041572D02*
X0113244Y0042056D01*
X0103400Y0041572D02*
X0101465Y0041572D01*
X0097023Y0036772D02*
X0097507Y0036288D01*
X0097507Y0035321D01*
X0097023Y0034837D01*
X0095572Y0034837D01*
X0096540Y0034837D02*
X0097507Y0033869D01*
X0098519Y0034353D02*
X0098519Y0035321D01*
X0099002Y0035804D01*
X0099970Y0035804D01*
X0100454Y0035321D01*
X0100454Y0034837D01*
X0098519Y0034837D01*
X0098519Y0034353D02*
X0099002Y0033869D01*
X0099970Y0033869D01*
X0097023Y0036772D02*
X0095572Y0036772D01*
X0095572Y0033869D01*
X0021763Y0101517D02*
X0019828Y0101517D01*
X0020795Y0101517D02*
X0020795Y0104419D01*
X0019828Y0103452D01*
X0018816Y0103936D02*
X0018332Y0104419D01*
X0017365Y0104419D01*
X0016881Y0103936D01*
X0016881Y0103452D01*
X0017365Y0102968D01*
X0018332Y0102968D01*
X0018816Y0102484D01*
X0018816Y0102001D01*
X0018332Y0101517D01*
X0017365Y0101517D01*
X0016881Y0102001D01*
D11*
X0050944Y0059024D02*
X0050944Y0055875D01*
X0050944Y0059024D02*
X0053306Y0059024D01*
X0059605Y0059024D02*
X0061967Y0059024D01*
X0061967Y0055875D01*
D12*
X0061372Y0063319D02*
X0060872Y0063319D01*
X0060622Y0063569D01*
X0060622Y0063819D01*
X0060872Y0064069D01*
X0061372Y0064069D01*
X0061623Y0063819D01*
X0061623Y0063569D01*
X0061372Y0063319D01*
X0061372Y0064069D02*
X0061623Y0064319D01*
X0061623Y0064570D01*
X0061372Y0064820D01*
X0060872Y0064820D01*
X0060622Y0064570D01*
X0060622Y0064319D01*
X0060872Y0064069D01*
X0060149Y0063819D02*
X0060149Y0063569D01*
X0059899Y0063319D01*
X0059399Y0063319D01*
X0059149Y0063569D01*
X0058676Y0063319D02*
X0057675Y0063319D01*
X0058176Y0063319D02*
X0058176Y0064820D01*
X0057675Y0064319D01*
X0057203Y0064570D02*
X0056953Y0064820D01*
X0056452Y0064820D01*
X0056202Y0064570D01*
X0056202Y0064319D01*
X0056452Y0064069D01*
X0056953Y0064069D01*
X0057203Y0063819D01*
X0057203Y0063569D01*
X0056953Y0063319D01*
X0056452Y0063319D01*
X0056202Y0063569D01*
X0055730Y0063569D02*
X0055479Y0063319D01*
X0054979Y0063319D01*
X0054729Y0063569D01*
X0054256Y0063569D02*
X0054006Y0063319D01*
X0053256Y0063319D01*
X0053256Y0064820D01*
X0054006Y0064820D01*
X0054256Y0064570D01*
X0054256Y0064319D01*
X0054006Y0064069D01*
X0053256Y0064069D01*
X0054006Y0064069D02*
X0054256Y0063819D01*
X0054256Y0063569D01*
X0054979Y0064069D02*
X0055479Y0064069D01*
X0055730Y0063819D01*
X0055730Y0063569D01*
X0054979Y0064069D02*
X0054729Y0064319D01*
X0054729Y0064570D01*
X0054979Y0064820D01*
X0055479Y0064820D01*
X0055730Y0064570D01*
X0059149Y0064570D02*
X0059399Y0064820D01*
X0059899Y0064820D01*
X0060149Y0064570D01*
X0060149Y0064319D01*
X0059899Y0064069D01*
X0060149Y0063819D01*
X0059899Y0064069D02*
X0059649Y0064069D01*
D13*
X0051554Y0073326D02*
X0051554Y0087499D01*
X0076160Y0087499D01*
X0076160Y0073326D01*
X0051554Y0073326D01*
X0041574Y0063237D02*
X0041574Y0059300D01*
X0031337Y0059300D01*
X0031337Y0063237D01*
X0041180Y0063237D01*
X0036967Y0076131D02*
X0016495Y0076131D01*
X0016495Y0096603D01*
X0036967Y0096603D01*
X0036967Y0076131D01*
X0024074Y0063237D02*
X0024074Y0059300D01*
X0013837Y0059300D01*
X0013837Y0063237D01*
X0023680Y0063237D01*
X0018762Y0081249D02*
X0018764Y0081330D01*
X0018770Y0081411D01*
X0018780Y0081492D01*
X0018794Y0081572D01*
X0018811Y0081652D01*
X0018833Y0081730D01*
X0018858Y0081807D01*
X0018887Y0081883D01*
X0018920Y0081958D01*
X0018956Y0082031D01*
X0018996Y0082102D01*
X0019039Y0082170D01*
X0019086Y0082237D01*
X0019135Y0082302D01*
X0019188Y0082363D01*
X0019244Y0082423D01*
X0019303Y0082479D01*
X0019364Y0082533D01*
X0019428Y0082583D01*
X0019494Y0082630D01*
X0019562Y0082675D01*
X0019632Y0082715D01*
X0019705Y0082752D01*
X0019779Y0082786D01*
X0019854Y0082816D01*
X0019931Y0082842D01*
X0020010Y0082865D01*
X0020089Y0082883D01*
X0020169Y0082898D01*
X0020249Y0082909D01*
X0020330Y0082916D01*
X0020412Y0082919D01*
X0020493Y0082918D01*
X0020574Y0082913D01*
X0020655Y0082904D01*
X0020735Y0082891D01*
X0020815Y0082875D01*
X0020894Y0082854D01*
X0020971Y0082830D01*
X0021048Y0082801D01*
X0021122Y0082770D01*
X0021196Y0082734D01*
X0021267Y0082695D01*
X0021336Y0082653D01*
X0021404Y0082607D01*
X0021469Y0082558D01*
X0021531Y0082506D01*
X0021591Y0082451D01*
X0021648Y0082393D01*
X0021703Y0082333D01*
X0021754Y0082270D01*
X0021802Y0082204D01*
X0021847Y0082136D01*
X0021888Y0082066D01*
X0021926Y0081994D01*
X0021961Y0081921D01*
X0021992Y0081846D01*
X0022019Y0081769D01*
X0022042Y0081691D01*
X0022062Y0081612D01*
X0022078Y0081532D01*
X0022090Y0081452D01*
X0022098Y0081371D01*
X0022102Y0081290D01*
X0022102Y0081208D01*
X0022098Y0081127D01*
X0022090Y0081046D01*
X0022078Y0080966D01*
X0022062Y0080886D01*
X0022042Y0080807D01*
X0022019Y0080729D01*
X0021992Y0080652D01*
X0021961Y0080577D01*
X0021926Y0080504D01*
X0021888Y0080432D01*
X0021847Y0080362D01*
X0021802Y0080294D01*
X0021754Y0080228D01*
X0021703Y0080165D01*
X0021648Y0080105D01*
X0021591Y0080047D01*
X0021531Y0079992D01*
X0021469Y0079940D01*
X0021404Y0079891D01*
X0021336Y0079845D01*
X0021267Y0079803D01*
X0021196Y0079764D01*
X0021122Y0079728D01*
X0021048Y0079697D01*
X0020971Y0079668D01*
X0020894Y0079644D01*
X0020815Y0079623D01*
X0020735Y0079607D01*
X0020655Y0079594D01*
X0020574Y0079585D01*
X0020493Y0079580D01*
X0020412Y0079579D01*
X0020330Y0079582D01*
X0020249Y0079589D01*
X0020169Y0079600D01*
X0020089Y0079615D01*
X0020010Y0079633D01*
X0019931Y0079656D01*
X0019854Y0079682D01*
X0019779Y0079712D01*
X0019705Y0079746D01*
X0019632Y0079783D01*
X0019562Y0079823D01*
X0019494Y0079868D01*
X0019428Y0079915D01*
X0019364Y0079965D01*
X0019303Y0080019D01*
X0019244Y0080075D01*
X0019188Y0080135D01*
X0019135Y0080196D01*
X0019086Y0080261D01*
X0019039Y0080328D01*
X0018996Y0080396D01*
X0018956Y0080467D01*
X0018920Y0080540D01*
X0018887Y0080615D01*
X0018858Y0080691D01*
X0018833Y0080768D01*
X0018811Y0080846D01*
X0018794Y0080926D01*
X0018780Y0081006D01*
X0018770Y0081087D01*
X0018764Y0081168D01*
X0018762Y0081249D01*
X0018762Y0091879D02*
X0018764Y0091960D01*
X0018770Y0092041D01*
X0018780Y0092122D01*
X0018794Y0092202D01*
X0018811Y0092282D01*
X0018833Y0092360D01*
X0018858Y0092437D01*
X0018887Y0092513D01*
X0018920Y0092588D01*
X0018956Y0092661D01*
X0018996Y0092732D01*
X0019039Y0092800D01*
X0019086Y0092867D01*
X0019135Y0092932D01*
X0019188Y0092993D01*
X0019244Y0093053D01*
X0019303Y0093109D01*
X0019364Y0093163D01*
X0019428Y0093213D01*
X0019494Y0093260D01*
X0019562Y0093305D01*
X0019632Y0093345D01*
X0019705Y0093382D01*
X0019779Y0093416D01*
X0019854Y0093446D01*
X0019931Y0093472D01*
X0020010Y0093495D01*
X0020089Y0093513D01*
X0020169Y0093528D01*
X0020249Y0093539D01*
X0020330Y0093546D01*
X0020412Y0093549D01*
X0020493Y0093548D01*
X0020574Y0093543D01*
X0020655Y0093534D01*
X0020735Y0093521D01*
X0020815Y0093505D01*
X0020894Y0093484D01*
X0020971Y0093460D01*
X0021048Y0093431D01*
X0021122Y0093400D01*
X0021196Y0093364D01*
X0021267Y0093325D01*
X0021336Y0093283D01*
X0021404Y0093237D01*
X0021469Y0093188D01*
X0021531Y0093136D01*
X0021591Y0093081D01*
X0021648Y0093023D01*
X0021703Y0092963D01*
X0021754Y0092900D01*
X0021802Y0092834D01*
X0021847Y0092766D01*
X0021888Y0092696D01*
X0021926Y0092624D01*
X0021961Y0092551D01*
X0021992Y0092476D01*
X0022019Y0092399D01*
X0022042Y0092321D01*
X0022062Y0092242D01*
X0022078Y0092162D01*
X0022090Y0092082D01*
X0022098Y0092001D01*
X0022102Y0091920D01*
X0022102Y0091838D01*
X0022098Y0091757D01*
X0022090Y0091676D01*
X0022078Y0091596D01*
X0022062Y0091516D01*
X0022042Y0091437D01*
X0022019Y0091359D01*
X0021992Y0091282D01*
X0021961Y0091207D01*
X0021926Y0091134D01*
X0021888Y0091062D01*
X0021847Y0090992D01*
X0021802Y0090924D01*
X0021754Y0090858D01*
X0021703Y0090795D01*
X0021648Y0090735D01*
X0021591Y0090677D01*
X0021531Y0090622D01*
X0021469Y0090570D01*
X0021404Y0090521D01*
X0021336Y0090475D01*
X0021267Y0090433D01*
X0021196Y0090394D01*
X0021122Y0090358D01*
X0021048Y0090327D01*
X0020971Y0090298D01*
X0020894Y0090274D01*
X0020815Y0090253D01*
X0020735Y0090237D01*
X0020655Y0090224D01*
X0020574Y0090215D01*
X0020493Y0090210D01*
X0020412Y0090209D01*
X0020330Y0090212D01*
X0020249Y0090219D01*
X0020169Y0090230D01*
X0020089Y0090245D01*
X0020010Y0090263D01*
X0019931Y0090286D01*
X0019854Y0090312D01*
X0019779Y0090342D01*
X0019705Y0090376D01*
X0019632Y0090413D01*
X0019562Y0090453D01*
X0019494Y0090498D01*
X0019428Y0090545D01*
X0019364Y0090595D01*
X0019303Y0090649D01*
X0019244Y0090705D01*
X0019188Y0090765D01*
X0019135Y0090826D01*
X0019086Y0090891D01*
X0019039Y0090958D01*
X0018996Y0091026D01*
X0018956Y0091097D01*
X0018920Y0091170D01*
X0018887Y0091245D01*
X0018858Y0091321D01*
X0018833Y0091398D01*
X0018811Y0091476D01*
X0018794Y0091556D01*
X0018780Y0091636D01*
X0018770Y0091717D01*
X0018764Y0091798D01*
X0018762Y0091879D01*
X0025087Y0125550D02*
X0035324Y0125550D01*
X0035324Y0129487D01*
X0034930Y0129487D02*
X0025087Y0129487D01*
X0025087Y0125550D01*
X0025087Y0136800D02*
X0025087Y0140737D01*
X0035324Y0140737D01*
X0035324Y0136800D01*
X0025481Y0136800D01*
X0046318Y0166997D02*
X0082735Y0166997D01*
X0082735Y0104202D01*
X0046318Y0104202D01*
X0046318Y0166997D01*
X0093837Y0141987D02*
X0093837Y0138050D01*
X0104074Y0138050D01*
X0104074Y0141987D01*
X0103680Y0141987D02*
X0093837Y0141987D01*
X0093837Y0130737D02*
X0093837Y0126800D01*
X0094231Y0126800D02*
X0104074Y0126800D01*
X0104074Y0130737D01*
X0093837Y0130737D01*
X0088837Y0090737D02*
X0088837Y0086800D01*
X0089231Y0086800D02*
X0099074Y0086800D01*
X0099074Y0090737D01*
X0088837Y0090737D01*
X0088837Y0074487D02*
X0088837Y0070550D01*
X0099074Y0070550D01*
X0099074Y0074487D01*
X0098680Y0074487D02*
X0088837Y0074487D01*
X0103837Y0074487D02*
X0103837Y0070550D01*
X0114074Y0070550D01*
X0114074Y0074487D01*
X0113680Y0074487D02*
X0103837Y0074487D01*
X0103837Y0086800D02*
X0103837Y0090737D01*
X0114074Y0090737D01*
X0114074Y0086800D01*
X0104231Y0086800D01*
D14*
X0049902Y0071360D02*
X0046833Y0071360D01*
X0048367Y0071360D02*
X0048367Y0075964D01*
X0046833Y0074430D01*
X0040244Y0056072D02*
X0037175Y0056072D01*
X0037175Y0053770D01*
X0038710Y0054538D01*
X0039477Y0054538D01*
X0040244Y0053770D01*
X0040244Y0052236D01*
X0039477Y0051469D01*
X0037942Y0051469D01*
X0037175Y0052236D01*
X0035640Y0052236D02*
X0035640Y0053003D01*
X0034873Y0053770D01*
X0033339Y0053770D01*
X0032571Y0054538D01*
X0032571Y0055305D01*
X0033339Y0056072D01*
X0034873Y0056072D01*
X0035640Y0055305D01*
X0035640Y0054538D01*
X0034873Y0053770D01*
X0033339Y0053770D02*
X0032571Y0053003D01*
X0032571Y0052236D01*
X0033339Y0051469D01*
X0034873Y0051469D01*
X0035640Y0052236D01*
X0031037Y0052236D02*
X0031037Y0055305D01*
X0030269Y0056072D01*
X0028735Y0056072D01*
X0027967Y0055305D01*
X0027967Y0054538D01*
X0028735Y0053770D01*
X0031037Y0053770D01*
X0031037Y0052236D02*
X0030269Y0051469D01*
X0028735Y0051469D01*
X0027967Y0052236D01*
X0026433Y0051469D02*
X0023363Y0051469D01*
X0026433Y0054538D01*
X0026433Y0055305D01*
X0025665Y0056072D01*
X0024131Y0056072D01*
X0023363Y0055305D01*
X0021829Y0055305D02*
X0021829Y0053770D01*
X0021061Y0053003D01*
X0018759Y0053003D01*
X0018759Y0051469D02*
X0018759Y0056072D01*
X0021061Y0056072D01*
X0021829Y0055305D01*
X0017225Y0051469D02*
X0014156Y0051469D01*
X0014156Y0056072D01*
X0054156Y0168969D02*
X0056457Y0168969D01*
X0057225Y0169736D01*
X0057225Y0170503D01*
X0056457Y0171270D01*
X0054156Y0171270D01*
X0056457Y0171270D02*
X0057225Y0172038D01*
X0057225Y0172805D01*
X0056457Y0173572D01*
X0054156Y0173572D01*
X0054156Y0168969D01*
X0058759Y0168969D02*
X0058759Y0173572D01*
X0058759Y0168969D02*
X0061829Y0168969D01*
X0063363Y0168969D02*
X0066433Y0168969D01*
X0067967Y0168969D02*
X0071037Y0168969D01*
X0069502Y0168969D02*
X0069502Y0173572D01*
X0067967Y0172038D01*
X0066433Y0173572D02*
X0063363Y0173572D01*
X0063363Y0168969D01*
X0063363Y0171270D02*
X0064898Y0171270D01*
X0072571Y0172038D02*
X0074106Y0173572D01*
X0074106Y0168969D01*
X0075640Y0168969D02*
X0072571Y0168969D01*
X0077175Y0169736D02*
X0077942Y0168969D01*
X0079477Y0168969D01*
X0080244Y0169736D01*
X0080244Y0170503D01*
X0079477Y0171270D01*
X0078710Y0171270D01*
X0079477Y0171270D02*
X0080244Y0172038D01*
X0080244Y0172805D01*
X0079477Y0173572D01*
X0077942Y0173572D01*
X0077175Y0172805D01*
D15*
X0003956Y0120019D02*
X0003956Y0020019D01*
X0003960Y0019657D01*
X0003974Y0019294D01*
X0003995Y0018932D01*
X0004026Y0018571D01*
X0004065Y0018211D01*
X0004113Y0017852D01*
X0004170Y0017494D01*
X0004235Y0017137D01*
X0004309Y0016782D01*
X0004392Y0016429D01*
X0004483Y0016078D01*
X0004582Y0015730D01*
X0004690Y0015384D01*
X0004806Y0015040D01*
X0004931Y0014700D01*
X0005063Y0014363D01*
X0005204Y0014029D01*
X0005353Y0013698D01*
X0005510Y0013371D01*
X0005674Y0013048D01*
X0005846Y0012729D01*
X0006026Y0012415D01*
X0006214Y0012104D01*
X0006409Y0011799D01*
X0006611Y0011498D01*
X0006821Y0011202D01*
X0007037Y0010912D01*
X0007261Y0010626D01*
X0007491Y0010346D01*
X0007728Y0010072D01*
X0007972Y0009804D01*
X0008222Y0009541D01*
X0008478Y0009285D01*
X0008741Y0009035D01*
X0009009Y0008791D01*
X0009283Y0008554D01*
X0009563Y0008324D01*
X0009849Y0008100D01*
X0010139Y0007884D01*
X0010435Y0007674D01*
X0010736Y0007472D01*
X0011041Y0007277D01*
X0011352Y0007089D01*
X0011666Y0006909D01*
X0011985Y0006737D01*
X0012308Y0006573D01*
X0012635Y0006416D01*
X0012966Y0006267D01*
X0013300Y0006126D01*
X0013637Y0005994D01*
X0013977Y0005869D01*
X0014321Y0005753D01*
X0014667Y0005645D01*
X0015015Y0005546D01*
X0015366Y0005455D01*
X0015719Y0005372D01*
X0016074Y0005298D01*
X0016431Y0005233D01*
X0016789Y0005176D01*
X0017148Y0005128D01*
X0017508Y0005089D01*
X0017869Y0005058D01*
X0018231Y0005037D01*
X0018594Y0005023D01*
X0018956Y0005019D01*
X0108956Y0005019D01*
X0109318Y0005023D01*
X0109681Y0005037D01*
X0110043Y0005058D01*
X0110404Y0005089D01*
X0110764Y0005128D01*
X0111123Y0005176D01*
X0111481Y0005233D01*
X0111838Y0005298D01*
X0112193Y0005372D01*
X0112546Y0005455D01*
X0112897Y0005546D01*
X0113245Y0005645D01*
X0113591Y0005753D01*
X0113935Y0005869D01*
X0114275Y0005994D01*
X0114612Y0006126D01*
X0114946Y0006267D01*
X0115277Y0006416D01*
X0115604Y0006573D01*
X0115927Y0006737D01*
X0116246Y0006909D01*
X0116560Y0007089D01*
X0116871Y0007277D01*
X0117176Y0007472D01*
X0117477Y0007674D01*
X0117773Y0007884D01*
X0118063Y0008100D01*
X0118349Y0008324D01*
X0118629Y0008554D01*
X0118903Y0008791D01*
X0119171Y0009035D01*
X0119434Y0009285D01*
X0119690Y0009541D01*
X0119940Y0009804D01*
X0120184Y0010072D01*
X0120421Y0010346D01*
X0120651Y0010626D01*
X0120875Y0010912D01*
X0121091Y0011202D01*
X0121301Y0011498D01*
X0121503Y0011799D01*
X0121698Y0012104D01*
X0121886Y0012415D01*
X0122066Y0012729D01*
X0122238Y0013048D01*
X0122402Y0013371D01*
X0122559Y0013698D01*
X0122708Y0014029D01*
X0122849Y0014363D01*
X0122981Y0014700D01*
X0123106Y0015040D01*
X0123222Y0015384D01*
X0123330Y0015730D01*
X0123429Y0016078D01*
X0123520Y0016429D01*
X0123603Y0016782D01*
X0123677Y0017137D01*
X0123742Y0017494D01*
X0123799Y0017852D01*
X0123847Y0018211D01*
X0123886Y0018571D01*
X0123917Y0018932D01*
X0123938Y0019294D01*
X0123952Y0019657D01*
X0123956Y0020019D01*
X0123956Y0120019D01*
X0069073Y0080019D02*
X0069075Y0080107D01*
X0069081Y0080195D01*
X0069091Y0080283D01*
X0069105Y0080371D01*
X0069122Y0080457D01*
X0069144Y0080543D01*
X0069169Y0080627D01*
X0069199Y0080711D01*
X0069231Y0080793D01*
X0069268Y0080873D01*
X0069308Y0080952D01*
X0069352Y0081029D01*
X0069399Y0081104D01*
X0069449Y0081176D01*
X0069503Y0081247D01*
X0069559Y0081314D01*
X0069619Y0081380D01*
X0069681Y0081442D01*
X0069747Y0081502D01*
X0069814Y0081558D01*
X0069885Y0081612D01*
X0069957Y0081662D01*
X0070032Y0081709D01*
X0070109Y0081753D01*
X0070188Y0081793D01*
X0070268Y0081830D01*
X0070350Y0081862D01*
X0070434Y0081892D01*
X0070518Y0081917D01*
X0070604Y0081939D01*
X0070690Y0081956D01*
X0070778Y0081970D01*
X0070866Y0081980D01*
X0070954Y0081986D01*
X0071042Y0081988D01*
X0071130Y0081986D01*
X0071218Y0081980D01*
X0071306Y0081970D01*
X0071394Y0081956D01*
X0071480Y0081939D01*
X0071566Y0081917D01*
X0071650Y0081892D01*
X0071734Y0081862D01*
X0071816Y0081830D01*
X0071896Y0081793D01*
X0071975Y0081753D01*
X0072052Y0081709D01*
X0072127Y0081662D01*
X0072199Y0081612D01*
X0072270Y0081558D01*
X0072337Y0081502D01*
X0072403Y0081442D01*
X0072465Y0081380D01*
X0072525Y0081314D01*
X0072581Y0081247D01*
X0072635Y0081176D01*
X0072685Y0081104D01*
X0072732Y0081029D01*
X0072776Y0080952D01*
X0072816Y0080873D01*
X0072853Y0080793D01*
X0072885Y0080711D01*
X0072915Y0080627D01*
X0072940Y0080543D01*
X0072962Y0080457D01*
X0072979Y0080371D01*
X0072993Y0080283D01*
X0073003Y0080195D01*
X0073009Y0080107D01*
X0073011Y0080019D01*
X0073009Y0079931D01*
X0073003Y0079843D01*
X0072993Y0079755D01*
X0072979Y0079667D01*
X0072962Y0079581D01*
X0072940Y0079495D01*
X0072915Y0079411D01*
X0072885Y0079327D01*
X0072853Y0079245D01*
X0072816Y0079165D01*
X0072776Y0079086D01*
X0072732Y0079009D01*
X0072685Y0078934D01*
X0072635Y0078862D01*
X0072581Y0078791D01*
X0072525Y0078724D01*
X0072465Y0078658D01*
X0072403Y0078596D01*
X0072337Y0078536D01*
X0072270Y0078480D01*
X0072199Y0078426D01*
X0072127Y0078376D01*
X0072052Y0078329D01*
X0071975Y0078285D01*
X0071896Y0078245D01*
X0071816Y0078208D01*
X0071734Y0078176D01*
X0071650Y0078146D01*
X0071566Y0078121D01*
X0071480Y0078099D01*
X0071394Y0078082D01*
X0071306Y0078068D01*
X0071218Y0078058D01*
X0071130Y0078052D01*
X0071042Y0078050D01*
X0070954Y0078052D01*
X0070866Y0078058D01*
X0070778Y0078068D01*
X0070690Y0078082D01*
X0070604Y0078099D01*
X0070518Y0078121D01*
X0070434Y0078146D01*
X0070350Y0078176D01*
X0070268Y0078208D01*
X0070188Y0078245D01*
X0070109Y0078285D01*
X0070032Y0078329D01*
X0069957Y0078376D01*
X0069885Y0078426D01*
X0069814Y0078480D01*
X0069747Y0078536D01*
X0069681Y0078596D01*
X0069619Y0078658D01*
X0069559Y0078724D01*
X0069503Y0078791D01*
X0069449Y0078862D01*
X0069399Y0078934D01*
X0069352Y0079009D01*
X0069308Y0079086D01*
X0069268Y0079165D01*
X0069231Y0079245D01*
X0069199Y0079327D01*
X0069169Y0079411D01*
X0069144Y0079495D01*
X0069122Y0079581D01*
X0069105Y0079667D01*
X0069091Y0079755D01*
X0069081Y0079843D01*
X0069075Y0079931D01*
X0069073Y0080019D01*
X0054900Y0080019D02*
X0054902Y0080107D01*
X0054908Y0080195D01*
X0054918Y0080283D01*
X0054932Y0080371D01*
X0054949Y0080457D01*
X0054971Y0080543D01*
X0054996Y0080627D01*
X0055026Y0080711D01*
X0055058Y0080793D01*
X0055095Y0080873D01*
X0055135Y0080952D01*
X0055179Y0081029D01*
X0055226Y0081104D01*
X0055276Y0081176D01*
X0055330Y0081247D01*
X0055386Y0081314D01*
X0055446Y0081380D01*
X0055508Y0081442D01*
X0055574Y0081502D01*
X0055641Y0081558D01*
X0055712Y0081612D01*
X0055784Y0081662D01*
X0055859Y0081709D01*
X0055936Y0081753D01*
X0056015Y0081793D01*
X0056095Y0081830D01*
X0056177Y0081862D01*
X0056261Y0081892D01*
X0056345Y0081917D01*
X0056431Y0081939D01*
X0056517Y0081956D01*
X0056605Y0081970D01*
X0056693Y0081980D01*
X0056781Y0081986D01*
X0056869Y0081988D01*
X0056957Y0081986D01*
X0057045Y0081980D01*
X0057133Y0081970D01*
X0057221Y0081956D01*
X0057307Y0081939D01*
X0057393Y0081917D01*
X0057477Y0081892D01*
X0057561Y0081862D01*
X0057643Y0081830D01*
X0057723Y0081793D01*
X0057802Y0081753D01*
X0057879Y0081709D01*
X0057954Y0081662D01*
X0058026Y0081612D01*
X0058097Y0081558D01*
X0058164Y0081502D01*
X0058230Y0081442D01*
X0058292Y0081380D01*
X0058352Y0081314D01*
X0058408Y0081247D01*
X0058462Y0081176D01*
X0058512Y0081104D01*
X0058559Y0081029D01*
X0058603Y0080952D01*
X0058643Y0080873D01*
X0058680Y0080793D01*
X0058712Y0080711D01*
X0058742Y0080627D01*
X0058767Y0080543D01*
X0058789Y0080457D01*
X0058806Y0080371D01*
X0058820Y0080283D01*
X0058830Y0080195D01*
X0058836Y0080107D01*
X0058838Y0080019D01*
X0058836Y0079931D01*
X0058830Y0079843D01*
X0058820Y0079755D01*
X0058806Y0079667D01*
X0058789Y0079581D01*
X0058767Y0079495D01*
X0058742Y0079411D01*
X0058712Y0079327D01*
X0058680Y0079245D01*
X0058643Y0079165D01*
X0058603Y0079086D01*
X0058559Y0079009D01*
X0058512Y0078934D01*
X0058462Y0078862D01*
X0058408Y0078791D01*
X0058352Y0078724D01*
X0058292Y0078658D01*
X0058230Y0078596D01*
X0058164Y0078536D01*
X0058097Y0078480D01*
X0058026Y0078426D01*
X0057954Y0078376D01*
X0057879Y0078329D01*
X0057802Y0078285D01*
X0057723Y0078245D01*
X0057643Y0078208D01*
X0057561Y0078176D01*
X0057477Y0078146D01*
X0057393Y0078121D01*
X0057307Y0078099D01*
X0057221Y0078082D01*
X0057133Y0078068D01*
X0057045Y0078058D01*
X0056957Y0078052D01*
X0056869Y0078050D01*
X0056781Y0078052D01*
X0056693Y0078058D01*
X0056605Y0078068D01*
X0056517Y0078082D01*
X0056431Y0078099D01*
X0056345Y0078121D01*
X0056261Y0078146D01*
X0056177Y0078176D01*
X0056095Y0078208D01*
X0056015Y0078245D01*
X0055936Y0078285D01*
X0055859Y0078329D01*
X0055784Y0078376D01*
X0055712Y0078426D01*
X0055641Y0078480D01*
X0055574Y0078536D01*
X0055508Y0078596D01*
X0055446Y0078658D01*
X0055386Y0078724D01*
X0055330Y0078791D01*
X0055276Y0078862D01*
X0055226Y0078934D01*
X0055179Y0079009D01*
X0055135Y0079086D01*
X0055095Y0079165D01*
X0055058Y0079245D01*
X0055026Y0079327D01*
X0054996Y0079411D01*
X0054971Y0079495D01*
X0054949Y0079581D01*
X0054932Y0079667D01*
X0054918Y0079755D01*
X0054908Y0079843D01*
X0054902Y0079931D01*
X0054900Y0080019D01*
X0003956Y0120019D02*
X0003974Y0121480D01*
X0004027Y0122940D01*
X0004116Y0124399D01*
X0004240Y0125855D01*
X0004400Y0127307D01*
X0004595Y0128755D01*
X0004826Y0130198D01*
X0005091Y0131635D01*
X0005391Y0133065D01*
X0005726Y0134487D01*
X0006096Y0135901D01*
X0006500Y0137305D01*
X0006938Y0138699D01*
X0007410Y0140082D01*
X0007915Y0141453D01*
X0008454Y0142811D01*
X0009025Y0144156D01*
X0009629Y0145486D01*
X0010265Y0146802D01*
X0010933Y0148101D01*
X0011633Y0149384D01*
X0012364Y0150649D01*
X0013125Y0151897D01*
X0013916Y0153125D01*
X0014737Y0154334D01*
X0015587Y0155522D01*
X0016466Y0156689D01*
X0017373Y0157835D01*
X0018308Y0158958D01*
X0019270Y0160058D01*
X0020258Y0161134D01*
X0021272Y0162186D01*
X0022312Y0163213D01*
X0023376Y0164214D01*
X0024464Y0165190D01*
X0025576Y0166138D01*
X0026710Y0167059D01*
X0027867Y0167952D01*
X0029044Y0168816D01*
X0030243Y0169652D01*
X0031462Y0170458D01*
X0032700Y0171235D01*
X0033956Y0171981D01*
X0035230Y0172696D01*
X0036521Y0173380D01*
X0037829Y0174032D01*
X0039152Y0174652D01*
X0040490Y0175240D01*
X0041841Y0175795D01*
X0043206Y0176317D01*
X0044583Y0176805D01*
X0045972Y0177260D01*
X0047371Y0177681D01*
X0048780Y0178068D01*
X0050198Y0178420D01*
X0051624Y0178738D01*
X0053058Y0179021D01*
X0054498Y0179269D01*
X0055943Y0179482D01*
X0057394Y0179659D01*
X0058848Y0179801D01*
X0060305Y0179908D01*
X0061765Y0179979D01*
X0063225Y0180015D01*
X0064687Y0180015D01*
X0066147Y0179979D01*
X0067607Y0179908D01*
X0069064Y0179801D01*
X0070518Y0179659D01*
X0071969Y0179482D01*
X0073414Y0179269D01*
X0074854Y0179021D01*
X0076288Y0178738D01*
X0077714Y0178420D01*
X0079132Y0178068D01*
X0080541Y0177681D01*
X0081940Y0177260D01*
X0083329Y0176805D01*
X0084706Y0176317D01*
X0086071Y0175795D01*
X0087422Y0175240D01*
X0088760Y0174652D01*
X0090083Y0174032D01*
X0091391Y0173380D01*
X0092682Y0172696D01*
X0093956Y0171981D01*
X0095212Y0171235D01*
X0096450Y0170458D01*
X0097669Y0169652D01*
X0098868Y0168816D01*
X0100045Y0167952D01*
X0101202Y0167059D01*
X0102336Y0166138D01*
X0103448Y0165190D01*
X0104536Y0164214D01*
X0105600Y0163213D01*
X0106640Y0162186D01*
X0107654Y0161134D01*
X0108642Y0160058D01*
X0109604Y0158958D01*
X0110539Y0157835D01*
X0111446Y0156689D01*
X0112325Y0155522D01*
X0113175Y0154334D01*
X0113996Y0153125D01*
X0114787Y0151897D01*
X0115548Y0150649D01*
X0116279Y0149384D01*
X0116979Y0148101D01*
X0117647Y0146802D01*
X0118283Y0145486D01*
X0118887Y0144156D01*
X0119458Y0142811D01*
X0119997Y0141453D01*
X0120502Y0140082D01*
X0120974Y0138699D01*
X0121412Y0137305D01*
X0121816Y0135901D01*
X0122186Y0134487D01*
X0122521Y0133065D01*
X0122821Y0131635D01*
X0123086Y0130198D01*
X0123317Y0128755D01*
X0123512Y0127307D01*
X0123672Y0125855D01*
X0123796Y0124399D01*
X0123885Y0122940D01*
X0123938Y0121480D01*
X0123956Y0120019D01*
D16*
X0088956Y0041269D02*
X0038956Y0041269D01*
X0038956Y0005019D01*
X0088956Y0005019D02*
X0088956Y0041269D01*
D17*
X0027054Y0040580D02*
X0026684Y0040580D01*
X0027054Y0040580D02*
X0027054Y0046957D01*
X0026684Y0046957D01*
X0023511Y0046957D02*
X0019400Y0046957D01*
X0016227Y0046957D02*
X0015857Y0046957D01*
X0015857Y0040580D01*
X0016227Y0040580D01*
X0019400Y0040580D02*
X0019770Y0040580D01*
X0023141Y0040580D02*
X0023511Y0040580D01*
D18*
X0021432Y0056213D02*
X0019964Y0056213D01*
X0020698Y0056213D02*
X0020698Y0058414D01*
X0019964Y0057681D01*
X0019222Y0058047D02*
X0018855Y0058414D01*
X0018121Y0058414D01*
X0017754Y0058047D01*
X0017754Y0056580D01*
X0018121Y0056213D01*
X0018855Y0056213D01*
X0019222Y0056580D01*
X0035254Y0056947D02*
X0036355Y0056947D01*
X0036722Y0057314D01*
X0036722Y0058047D01*
X0036355Y0058414D01*
X0035254Y0058414D01*
X0035254Y0056213D01*
X0035988Y0056947D02*
X0036722Y0056213D01*
X0037464Y0056213D02*
X0037464Y0056580D01*
X0038932Y0058047D01*
X0038932Y0058414D01*
X0037464Y0058414D01*
X0032682Y0122463D02*
X0031214Y0122463D01*
X0032682Y0123931D01*
X0032682Y0124297D01*
X0032315Y0124664D01*
X0031581Y0124664D01*
X0031214Y0124297D01*
X0030472Y0124297D02*
X0030472Y0123564D01*
X0030105Y0123197D01*
X0029004Y0123197D01*
X0029738Y0123197D02*
X0030472Y0122463D01*
X0029004Y0122463D02*
X0029004Y0124664D01*
X0030105Y0124664D01*
X0030472Y0124297D01*
X0030865Y0141624D02*
X0029397Y0143826D01*
X0028655Y0143826D02*
X0027187Y0143826D01*
X0027921Y0143826D02*
X0027921Y0141624D01*
X0029397Y0141624D02*
X0030865Y0143826D01*
X0090937Y0093826D02*
X0090937Y0091624D01*
X0090937Y0092358D02*
X0092038Y0092358D01*
X0092405Y0092725D01*
X0092405Y0093459D01*
X0092038Y0093826D01*
X0090937Y0093826D01*
X0091671Y0092358D02*
X0092405Y0091624D01*
X0093147Y0091991D02*
X0093514Y0091624D01*
X0094248Y0091624D01*
X0094615Y0091991D01*
X0094615Y0092358D01*
X0094248Y0092725D01*
X0093147Y0092725D01*
X0093147Y0091991D01*
X0093147Y0092725D02*
X0093881Y0093459D01*
X0094615Y0093826D01*
X0105937Y0093826D02*
X0105937Y0091624D01*
X0105937Y0092358D02*
X0107038Y0092358D01*
X0107405Y0092725D01*
X0107405Y0093459D01*
X0107038Y0093826D01*
X0105937Y0093826D01*
X0106671Y0092358D02*
X0107405Y0091624D01*
X0108147Y0091991D02*
X0108514Y0091624D01*
X0109248Y0091624D01*
X0109615Y0091991D01*
X0109615Y0092725D01*
X0109248Y0093092D01*
X0108881Y0093092D01*
X0108147Y0092725D01*
X0108147Y0093826D01*
X0109615Y0093826D01*
X0108855Y0069664D02*
X0107754Y0069664D01*
X0107754Y0067463D01*
X0107754Y0068197D02*
X0108855Y0068197D01*
X0109222Y0068564D01*
X0109222Y0069297D01*
X0108855Y0069664D01*
X0108488Y0068197D02*
X0109222Y0067463D01*
X0109964Y0068564D02*
X0111432Y0068564D01*
X0111065Y0069664D02*
X0109964Y0068564D01*
X0111065Y0069664D02*
X0111065Y0067463D01*
X0096432Y0067463D02*
X0094964Y0067463D01*
X0095698Y0067463D02*
X0095698Y0069664D01*
X0094964Y0068931D01*
X0094222Y0069297D02*
X0094222Y0068564D01*
X0093855Y0068197D01*
X0092754Y0068197D01*
X0093488Y0068197D02*
X0094222Y0067463D01*
X0092754Y0067463D02*
X0092754Y0069664D01*
X0093855Y0069664D01*
X0094222Y0069297D01*
X0095937Y0131624D02*
X0095937Y0133826D01*
X0097038Y0133826D01*
X0097405Y0133459D01*
X0097405Y0132725D01*
X0097038Y0132358D01*
X0095937Y0132358D01*
X0096671Y0132358D02*
X0097405Y0131624D01*
X0098147Y0131991D02*
X0098514Y0131624D01*
X0099248Y0131624D01*
X0099615Y0131991D01*
X0099615Y0132358D01*
X0099248Y0132725D01*
X0098881Y0132725D01*
X0099248Y0132725D02*
X0099615Y0133092D01*
X0099615Y0133459D01*
X0099248Y0133826D01*
X0098514Y0133826D01*
X0098147Y0133459D01*
X0097754Y0134963D02*
X0097754Y0137164D01*
X0098855Y0137164D01*
X0099222Y0136797D01*
X0099222Y0136064D01*
X0098855Y0135697D01*
X0097754Y0135697D01*
X0098488Y0135697D02*
X0099222Y0134963D01*
X0099964Y0134963D02*
X0101432Y0137164D01*
X0099964Y0137164D02*
X0101432Y0134963D01*
D19*
X0106102Y0042519D03*
D20*
X0106102Y0042530D03*
X0100685Y0050764D03*
X0100697Y0050787D03*
X0100720Y0050833D03*
X0100720Y0050845D03*
X0100731Y0050856D03*
X0100731Y0050867D03*
X0100766Y0050925D03*
X0100766Y0050937D03*
X0100777Y0050959D03*
X0100800Y0051005D03*
D21*
X0101105Y0051695D03*
X0096436Y0051466D03*
X0100680Y0060240D03*
X0110547Y0061241D03*
X0110547Y0061252D03*
X0106096Y0042541D03*
D22*
X0106102Y0042553D03*
X0108804Y0046106D03*
X0108804Y0046118D03*
X0108804Y0046130D03*
X0110897Y0046164D03*
X0110909Y0046187D03*
X0110932Y0046221D03*
X0111415Y0047165D03*
X0111426Y0047187D03*
X0111438Y0047210D03*
X0111438Y0047222D03*
X0111461Y0047268D03*
X0111461Y0047280D03*
X0111472Y0047291D03*
X0111472Y0047302D03*
X0111484Y0047326D03*
X0101272Y0052041D03*
X0101272Y0052052D03*
X0100708Y0060045D03*
D23*
X0100743Y0059860D03*
X0100743Y0059849D03*
X0101375Y0052248D03*
X0096453Y0051339D03*
X0106102Y0042565D03*
X0110357Y0045416D03*
X0110368Y0045428D03*
X0110380Y0045440D03*
X0108712Y0047291D03*
X0108712Y0047302D03*
X0108712Y0047314D03*
X0111771Y0048142D03*
X0111771Y0048153D03*
X0111783Y0048165D03*
X0111783Y0048177D03*
X0111783Y0048188D03*
X0108505Y0051109D03*
X0108494Y0051132D03*
X0108482Y0051144D03*
X0108471Y0051166D03*
X0114221Y0056595D03*
X0110506Y0060919D03*
X0110506Y0060930D03*
D24*
X0114181Y0056514D03*
X0111915Y0048694D03*
X0111915Y0048683D03*
X0108626Y0047038D03*
X0106096Y0042576D03*
X0103175Y0047027D03*
X0103164Y0047038D03*
X0103164Y0047049D03*
X0103141Y0047073D03*
X0103060Y0050591D03*
X0103083Y0050626D03*
X0103083Y0050637D03*
X0103095Y0050649D03*
X0103129Y0050706D03*
X0103141Y0050718D03*
X0100783Y0059642D03*
D25*
X0100823Y0059401D03*
X0100823Y0059389D03*
X0101559Y0052581D03*
X0103928Y0051500D03*
X0103549Y0046670D03*
X0106102Y0042588D03*
X0109736Y0044784D03*
X0109747Y0044795D03*
X0112001Y0049096D03*
X0112001Y0049108D03*
X0112001Y0049120D03*
X0107930Y0051638D03*
X0114152Y0056410D03*
X0110460Y0060573D03*
X0110460Y0060585D03*
X0096476Y0051201D03*
D26*
X0096488Y0051132D03*
X0101628Y0052696D03*
X0107804Y0051695D03*
X0108471Y0046773D03*
X0109552Y0044634D03*
X0106102Y0042599D03*
X0112047Y0049384D03*
X0112047Y0049395D03*
X0112047Y0049407D03*
X0114117Y0056319D03*
X0110437Y0060412D03*
X0110437Y0060424D03*
X0106102Y0061045D03*
X0100869Y0059170D03*
X0100869Y0059159D03*
D27*
X0100921Y0058871D03*
X0100921Y0058860D03*
X0100921Y0058848D03*
X0106096Y0060861D03*
X0110409Y0060228D03*
X0110409Y0060217D03*
X0114077Y0056192D03*
X0112088Y0049695D03*
X0112088Y0049683D03*
X0112088Y0049671D03*
X0108396Y0046681D03*
X0109351Y0044485D03*
X0106096Y0042610D03*
X0107672Y0051741D03*
X0096505Y0051052D03*
D28*
X0096534Y0050971D03*
X0101755Y0052891D03*
X0100973Y0058538D03*
X0100973Y0058549D03*
X0100973Y0058561D03*
X0106090Y0060677D03*
X0106090Y0060688D03*
X0106090Y0060700D03*
X0110380Y0060033D03*
X0110380Y0060021D03*
X0114037Y0056077D03*
X0112105Y0049902D03*
X0109207Y0044393D03*
X0106090Y0042622D03*
D29*
X0106096Y0042634D03*
X0109075Y0044312D03*
X0112122Y0050109D03*
X0113985Y0055927D03*
X0110340Y0059780D03*
X0110340Y0059791D03*
X0110340Y0059803D03*
X0106073Y0060481D03*
X0101036Y0058170D03*
X0101036Y0058159D03*
X0101036Y0058147D03*
X0101036Y0058135D03*
X0107499Y0051776D03*
D30*
X0112134Y0050281D03*
X0113939Y0055778D03*
X0106096Y0042645D03*
X0101128Y0057618D03*
X0101128Y0057630D03*
X0101128Y0057641D03*
X0101117Y0057652D03*
X0101117Y0057664D03*
X0101117Y0057676D03*
X0101117Y0057687D03*
D31*
X0106090Y0042656D03*
D32*
X0106090Y0042668D03*
X0101421Y0044956D03*
X0101375Y0044991D03*
X0101364Y0045002D03*
X0101341Y0045014D03*
X0101329Y0045026D03*
X0101318Y0045037D03*
X0101283Y0045060D03*
X0101272Y0045071D03*
X0101237Y0045095D03*
X0101226Y0045106D03*
X0101168Y0045152D03*
X0101111Y0045198D03*
X0096649Y0050672D03*
X0101973Y0053167D03*
X0101444Y0056042D03*
X0101444Y0056054D03*
X0101433Y0056088D03*
X0101433Y0056100D03*
X0101433Y0056112D03*
X0101421Y0056134D03*
X0101421Y0056146D03*
X0101410Y0056192D03*
X0106010Y0059803D03*
X0106010Y0059815D03*
X0106010Y0059826D03*
X0110196Y0058883D03*
X0110196Y0058871D03*
X0110196Y0058860D03*
X0110184Y0058814D03*
X0113818Y0055410D03*
X0113818Y0055398D03*
X0112139Y0050591D03*
X0112139Y0050580D03*
D33*
X0112139Y0050706D03*
X0109299Y0053444D03*
X0110115Y0058377D03*
X0110115Y0058388D03*
X0110115Y0058400D03*
X0110127Y0058423D03*
X0110127Y0058434D03*
X0110127Y0058446D03*
X0110127Y0058458D03*
X0105975Y0059562D03*
X0101617Y0055421D03*
X0101617Y0055410D03*
X0101617Y0055398D03*
X0101628Y0055387D03*
X0101628Y0055376D03*
X0101628Y0055364D03*
X0101640Y0055341D03*
X0102019Y0053213D03*
X0100547Y0045692D03*
X0100559Y0045681D03*
X0100570Y0045670D03*
X0100582Y0045658D03*
X0100593Y0045646D03*
X0101916Y0044623D03*
X0101939Y0044612D03*
X0106090Y0042680D03*
X0113749Y0055203D03*
D34*
X0113652Y0054938D03*
X0113640Y0054916D03*
X0113640Y0054904D03*
X0112134Y0050833D03*
X0109995Y0057652D03*
X0109995Y0057664D03*
X0109995Y0057676D03*
X0101784Y0054904D03*
X0101784Y0054892D03*
X0101772Y0054927D03*
X0096724Y0050534D03*
X0106085Y0042691D03*
D35*
X0106090Y0042702D03*
X0112128Y0050959D03*
X0109414Y0055065D03*
X0109414Y0055077D03*
X0109414Y0055088D03*
D36*
X0109126Y0053559D03*
X0112128Y0051052D03*
X0113324Y0054180D03*
X0106090Y0042714D03*
D37*
X0106085Y0042726D03*
X0099725Y0046578D03*
X0099714Y0046590D03*
X0102186Y0053386D03*
X0105820Y0058020D03*
X0105820Y0058032D03*
X0105820Y0058044D03*
X0105820Y0058055D03*
X0105820Y0058066D03*
X0109086Y0053581D03*
X0112122Y0051144D03*
X0113192Y0053915D03*
X0113203Y0053938D03*
D38*
X0113054Y0053673D03*
X0113042Y0053662D03*
X0112111Y0051235D03*
X0107821Y0046371D03*
X0108339Y0044025D03*
X0106085Y0042737D03*
X0102853Y0044163D03*
X0099610Y0046716D03*
X0099599Y0046727D03*
X0099587Y0046739D03*
X0102232Y0053420D03*
X0105763Y0057445D03*
X0105763Y0057457D03*
X0105763Y0057469D03*
X0105763Y0057480D03*
X0105774Y0057515D03*
X0105774Y0057526D03*
X0105774Y0057537D03*
X0105774Y0057549D03*
X0105774Y0057560D03*
D39*
X0105722Y0057043D03*
X0105722Y0057031D03*
X0105722Y0057020D03*
X0105722Y0057009D03*
X0105722Y0056997D03*
X0105722Y0056985D03*
X0102272Y0053455D03*
X0106079Y0042748D03*
D40*
X0106079Y0042760D03*
X0105630Y0045945D03*
X0108954Y0053651D03*
X0105688Y0056514D03*
X0105688Y0056526D03*
X0105688Y0056537D03*
X0105688Y0056548D03*
X0105688Y0056560D03*
X0105688Y0056571D03*
X0112852Y0053409D03*
X0112864Y0053420D03*
X0099386Y0047003D03*
D41*
X0099300Y0047119D03*
X0099288Y0047130D03*
X0103106Y0044083D03*
X0106073Y0042771D03*
X0112076Y0051488D03*
X0108902Y0053673D03*
X0105659Y0056123D03*
X0105659Y0056134D03*
X0105659Y0056146D03*
X0105659Y0056158D03*
X0105659Y0056169D03*
X0105659Y0056180D03*
X0102347Y0053512D03*
D42*
X0105642Y0055801D03*
X0105642Y0055812D03*
X0105642Y0055824D03*
X0105642Y0055835D03*
X0112059Y0051569D03*
X0106079Y0042783D03*
D43*
X0106073Y0042795D03*
X0099139Y0047337D03*
X0099127Y0047348D03*
X0102416Y0053559D03*
X0105625Y0055502D03*
X0105625Y0055513D03*
X0105625Y0055525D03*
X0105625Y0055537D03*
X0105625Y0055548D03*
X0106131Y0052155D03*
X0112053Y0051638D03*
D44*
X0112042Y0051695D03*
X0105625Y0046003D03*
X0106073Y0042806D03*
X0099070Y0047429D03*
X0102451Y0053581D03*
D45*
X0102491Y0053605D03*
X0105619Y0055099D03*
X0105619Y0055111D03*
X0105619Y0055123D03*
X0112024Y0051776D03*
X0112024Y0051765D03*
X0106067Y0042817D03*
X0099006Y0047521D03*
X0098995Y0047533D03*
D46*
X0098955Y0047602D03*
X0106062Y0042829D03*
X0112019Y0051822D03*
X0105613Y0054984D03*
D47*
X0106062Y0042841D03*
D48*
X0106056Y0042852D03*
X0111990Y0051937D03*
X0108643Y0053754D03*
X0105619Y0054697D03*
D49*
X0106113Y0052075D03*
X0098776Y0047866D03*
X0106056Y0042863D03*
D50*
X0106056Y0042875D03*
X0098730Y0047946D03*
X0111955Y0052052D03*
D51*
X0106056Y0042887D03*
X0102686Y0053696D03*
D52*
X0108511Y0053777D03*
X0106050Y0042898D03*
D53*
X0106050Y0042909D03*
X0111915Y0052202D03*
D54*
X0106102Y0052006D03*
X0105607Y0046152D03*
X0106044Y0042921D03*
X0098558Y0048245D03*
X0098546Y0048257D03*
D55*
X0106044Y0042933D03*
X0111886Y0052294D03*
D56*
X0105602Y0046187D03*
X0106039Y0042944D03*
X0098472Y0048418D03*
D57*
X0098426Y0048510D03*
X0106039Y0042955D03*
X0111858Y0052385D03*
D58*
X0106033Y0042967D03*
X0098397Y0048579D03*
D59*
X0098357Y0048671D03*
X0106027Y0042978D03*
X0111835Y0052455D03*
D60*
X0106027Y0042990D03*
X0098322Y0048763D03*
D61*
X0106027Y0043002D03*
D62*
X0106021Y0043013D03*
X0098270Y0048901D03*
X0098270Y0048912D03*
D63*
X0098242Y0048993D03*
X0106016Y0043024D03*
X0111777Y0052604D03*
D64*
X0111766Y0052638D03*
X0106016Y0043036D03*
X0098219Y0049062D03*
X0098219Y0049073D03*
D65*
X0106062Y0051834D03*
X0111743Y0052684D03*
X0106016Y0043048D03*
D66*
X0106010Y0043059D03*
X0098167Y0049258D03*
X0098167Y0049269D03*
D67*
X0098144Y0049349D03*
X0106056Y0051799D03*
X0106010Y0043070D03*
D68*
X0106004Y0043082D03*
X0098127Y0049441D03*
X0098127Y0049453D03*
X0111708Y0052777D03*
D69*
X0106004Y0043094D03*
X0098115Y0049522D03*
X0098115Y0049534D03*
D70*
X0098098Y0049626D03*
X0098098Y0049637D03*
X0105998Y0043105D03*
X0111679Y0052834D03*
D71*
X0105998Y0043116D03*
D72*
X0105993Y0043128D03*
D73*
X0105987Y0043140D03*
X0098075Y0049936D03*
X0098075Y0049948D03*
X0098075Y0049959D03*
X0111633Y0052926D03*
D74*
X0105987Y0043151D03*
D75*
X0105981Y0043162D03*
D76*
X0105981Y0043174D03*
X0111582Y0053006D03*
D77*
X0105975Y0043185D03*
D78*
X0105970Y0043197D03*
X0111559Y0053052D03*
D79*
X0111547Y0053076D03*
X0105970Y0043209D03*
D80*
X0105964Y0043220D03*
X0111530Y0053098D03*
D81*
X0111513Y0053121D03*
X0105958Y0043231D03*
D82*
X0105958Y0043243D03*
D83*
X0105952Y0043255D03*
X0111484Y0053167D03*
D84*
X0105952Y0043266D03*
D85*
X0105947Y0043277D03*
D86*
X0105941Y0043289D03*
D87*
X0105941Y0043301D03*
X0111426Y0053248D03*
D88*
X0111403Y0053271D03*
X0105941Y0043312D03*
D89*
X0105929Y0043323D03*
D90*
X0105929Y0043335D03*
X0106297Y0046291D03*
X0111380Y0053305D03*
D91*
X0105924Y0043346D03*
D92*
X0105918Y0043358D03*
X0106251Y0046348D03*
D93*
X0105912Y0043370D03*
D94*
X0105912Y0043381D03*
D95*
X0105906Y0043392D03*
D96*
X0105906Y0043404D03*
D97*
X0105906Y0043416D03*
D98*
X0105901Y0043427D03*
D99*
X0105895Y0043438D03*
D100*
X0105889Y0043450D03*
D101*
X0105889Y0043462D03*
D102*
X0105883Y0043473D03*
D103*
X0105878Y0043484D03*
D104*
X0105878Y0043496D03*
D105*
X0105872Y0043508D03*
D106*
X0105866Y0043519D03*
D107*
X0105860Y0043530D03*
D108*
X0105855Y0043542D03*
D109*
X0105855Y0043553D03*
D110*
X0105849Y0043565D03*
D111*
X0105849Y0043577D03*
D112*
X0105843Y0043588D03*
X0107177Y0054536D03*
X0107177Y0054548D03*
X0107177Y0054559D03*
X0107189Y0054570D03*
X0107189Y0054582D03*
X0107189Y0054594D03*
X0107189Y0054605D03*
X0107200Y0054616D03*
X0107200Y0054628D03*
X0107200Y0054640D03*
X0107200Y0054651D03*
X0107212Y0054662D03*
X0107212Y0054674D03*
X0107212Y0054685D03*
D113*
X0105843Y0043599D03*
D114*
X0105843Y0043611D03*
D115*
X0105837Y0043623D03*
D116*
X0105832Y0043634D03*
D117*
X0105826Y0043645D03*
D118*
X0105826Y0043657D03*
D119*
X0105820Y0043669D03*
D120*
X0105814Y0043680D03*
D121*
X0105814Y0043691D03*
D122*
X0105809Y0043703D03*
D123*
X0105803Y0043715D03*
D124*
X0105797Y0043726D03*
D125*
X0105797Y0043737D03*
D126*
X0105791Y0043749D03*
D127*
X0105791Y0043760D03*
D128*
X0105786Y0043772D03*
D129*
X0105780Y0043784D03*
D130*
X0105780Y0043795D03*
D131*
X0105774Y0043806D03*
D132*
X0105774Y0043818D03*
D133*
X0105768Y0043830D03*
D134*
X0105762Y0043841D03*
D135*
X0105757Y0043852D03*
D136*
X0105757Y0043864D03*
D137*
X0105757Y0043876D03*
D138*
X0105751Y0043887D03*
D139*
X0105745Y0043898D03*
D140*
X0105740Y0043910D03*
D141*
X0105734Y0043921D03*
D142*
X0105734Y0043933D03*
D143*
X0105728Y0043945D03*
D144*
X0105722Y0043956D03*
D145*
X0105728Y0043967D03*
D146*
X0105722Y0043979D03*
D147*
X0103624Y0043991D03*
X0098667Y0048050D03*
D148*
X0099121Y0047360D03*
X0105619Y0045991D03*
X0108091Y0043991D03*
X0112047Y0051649D03*
X0105619Y0055491D03*
D149*
X0111990Y0051926D03*
X0103491Y0044002D03*
X0098845Y0047762D03*
D150*
X0099311Y0047095D03*
X0099323Y0047084D03*
X0097023Y0050235D03*
X0105625Y0045957D03*
X0108201Y0044002D03*
X0112076Y0051477D03*
X0105659Y0056203D03*
X0105659Y0056215D03*
X0105659Y0056227D03*
X0105659Y0056238D03*
D151*
X0105619Y0054973D03*
X0105619Y0054962D03*
X0105619Y0054950D03*
X0112013Y0051834D03*
X0103411Y0044013D03*
X0098937Y0047624D03*
D152*
X0099455Y0046912D03*
X0099466Y0046900D03*
X0102951Y0044128D03*
X0105630Y0045934D03*
X0108275Y0044013D03*
X0112093Y0051351D03*
X0112921Y0053490D03*
X0105711Y0056848D03*
X0105711Y0056859D03*
X0105711Y0056870D03*
X0105711Y0056882D03*
X0105711Y0056894D03*
X0105711Y0056905D03*
D153*
X0105619Y0055180D03*
X0105619Y0055169D03*
X0105619Y0055157D03*
X0106125Y0052133D03*
X0105619Y0046015D03*
X0103342Y0044025D03*
X0099018Y0047498D03*
X0112024Y0051753D03*
D154*
X0103296Y0044037D03*
D155*
X0102732Y0044209D03*
X0108390Y0044037D03*
X0112116Y0051155D03*
X0112116Y0051166D03*
X0113163Y0053869D03*
X0113186Y0053903D03*
X0105814Y0057952D03*
X0105814Y0057963D03*
X0105814Y0057974D03*
X0105814Y0057986D03*
X0105814Y0057998D03*
X0105814Y0058009D03*
X0096856Y0050362D03*
D156*
X0097109Y0050201D03*
X0103238Y0044048D03*
D157*
X0102652Y0044244D03*
X0099823Y0046463D03*
X0099811Y0046474D03*
X0102169Y0053363D03*
X0105849Y0058308D03*
X0105849Y0058320D03*
X0105849Y0058331D03*
X0105849Y0058342D03*
X0105849Y0058354D03*
X0113289Y0054110D03*
X0113289Y0054099D03*
X0113301Y0054122D03*
X0108436Y0044048D03*
D158*
X0103187Y0044059D03*
X0099208Y0047245D03*
X0099196Y0047256D03*
X0106131Y0052167D03*
X0105636Y0055744D03*
X0105636Y0055755D03*
X0105636Y0055766D03*
X0105636Y0055778D03*
X0105636Y0055790D03*
D159*
X0105878Y0058584D03*
X0105878Y0058595D03*
X0105878Y0058607D03*
X0105878Y0058619D03*
X0105878Y0058630D03*
X0102140Y0053340D03*
X0099921Y0046348D03*
X0108477Y0044059D03*
X0112122Y0051017D03*
X0113399Y0054329D03*
X0113399Y0054341D03*
D160*
X0112772Y0053340D03*
X0112070Y0051523D03*
X0105653Y0055996D03*
X0105653Y0056008D03*
X0102364Y0053524D03*
X0099259Y0047165D03*
X0099271Y0047153D03*
X0103146Y0044071D03*
D161*
X0102445Y0044335D03*
X0100030Y0046221D03*
X0101904Y0054570D03*
X0101904Y0054582D03*
X0101893Y0054594D03*
X0101893Y0054605D03*
X0105906Y0058848D03*
X0105906Y0058860D03*
X0105906Y0058871D03*
X0105906Y0058883D03*
X0105906Y0058895D03*
X0109448Y0055203D03*
X0109437Y0055169D03*
X0109437Y0055157D03*
X0109437Y0055145D03*
X0109425Y0055123D03*
X0109425Y0055111D03*
X0109425Y0055099D03*
X0109402Y0055042D03*
X0109402Y0055030D03*
X0109184Y0053524D03*
X0113496Y0054548D03*
X0113496Y0054559D03*
X0113508Y0054570D03*
X0113508Y0054582D03*
X0113519Y0054605D03*
X0108517Y0044071D03*
D162*
X0108551Y0044083D03*
X0112139Y0050902D03*
X0113565Y0054720D03*
X0113565Y0054731D03*
X0113577Y0054743D03*
X0109598Y0055755D03*
X0109598Y0055766D03*
X0109598Y0055778D03*
X0109598Y0055790D03*
X0109609Y0055801D03*
X0109609Y0055812D03*
X0109609Y0055824D03*
X0109609Y0055835D03*
X0109621Y0055847D03*
X0109621Y0055859D03*
X0109621Y0055870D03*
X0109621Y0055881D03*
X0109632Y0055893D03*
X0109632Y0055905D03*
X0109632Y0055916D03*
X0109632Y0055927D03*
X0109644Y0055951D03*
X0109644Y0055962D03*
X0109644Y0055973D03*
X0109655Y0055996D03*
X0109655Y0056008D03*
X0109655Y0056020D03*
X0109667Y0056042D03*
X0109667Y0056054D03*
X0109667Y0056066D03*
X0109678Y0056100D03*
X0109678Y0056112D03*
X0109690Y0056158D03*
X0109690Y0056169D03*
X0109701Y0056203D03*
X0109701Y0056215D03*
X0109713Y0056261D03*
X0109724Y0056319D03*
X0109736Y0056365D03*
X0109747Y0056422D03*
X0109586Y0055732D03*
X0109586Y0055720D03*
X0109575Y0055686D03*
X0109575Y0055674D03*
X0109563Y0055640D03*
X0101858Y0054697D03*
X0101847Y0054720D03*
X0102353Y0044381D03*
X0102376Y0044370D03*
D163*
X0103060Y0044094D03*
X0099346Y0047049D03*
X0105671Y0056319D03*
X0105671Y0056330D03*
X0105671Y0056341D03*
X0105671Y0056353D03*
X0105671Y0056365D03*
X0105671Y0056376D03*
D164*
X0105941Y0059182D03*
X0105941Y0059194D03*
X0105941Y0059205D03*
X0105941Y0059216D03*
X0109977Y0057572D03*
X0109977Y0057560D03*
X0109966Y0057515D03*
X0109966Y0057503D03*
X0109966Y0057491D03*
X0109954Y0057469D03*
X0109954Y0057457D03*
X0109954Y0057445D03*
X0109954Y0057434D03*
X0109954Y0057423D03*
X0109943Y0057399D03*
X0109943Y0057388D03*
X0109943Y0057377D03*
X0109943Y0057365D03*
X0109931Y0057330D03*
X0109931Y0057319D03*
X0109230Y0053490D03*
X0112139Y0050845D03*
X0113623Y0054870D03*
X0113634Y0054881D03*
X0113634Y0054892D03*
X0107999Y0046417D03*
X0108586Y0044094D03*
X0102284Y0044416D03*
X0102261Y0044427D03*
X0100248Y0045991D03*
X0100237Y0046003D03*
X0100225Y0046015D03*
X0100214Y0046026D03*
X0102065Y0053271D03*
X0101801Y0054846D03*
X0101801Y0054858D03*
X0101789Y0054870D03*
X0101789Y0054881D03*
D165*
X0102301Y0053478D03*
X0105694Y0056583D03*
X0112088Y0051408D03*
X0112088Y0051396D03*
X0103026Y0044105D03*
X0099403Y0046980D03*
X0099392Y0046992D03*
X0096977Y0050258D03*
D166*
X0100329Y0045911D03*
X0100340Y0045899D03*
X0100352Y0045888D03*
X0102134Y0044496D03*
X0102157Y0044485D03*
X0108620Y0044105D03*
X0112139Y0050787D03*
X0112139Y0050798D03*
X0113680Y0055019D03*
X0110035Y0057894D03*
X0110035Y0057905D03*
X0110046Y0057940D03*
X0110046Y0057952D03*
X0110046Y0057963D03*
X0110046Y0057974D03*
X0110046Y0057986D03*
X0110058Y0058032D03*
X0105964Y0059366D03*
X0101732Y0055053D03*
X0101732Y0055042D03*
X0101743Y0055019D03*
D167*
X0105694Y0056652D03*
X0105694Y0056663D03*
X0105694Y0056675D03*
X0105694Y0056687D03*
X0105694Y0056698D03*
X0105694Y0056709D03*
X0112881Y0053444D03*
X0112087Y0051385D03*
X0102991Y0044117D03*
X0099426Y0046946D03*
D168*
X0100467Y0045773D03*
X0100478Y0045762D03*
X0100490Y0045750D03*
X0100501Y0045738D03*
X0100513Y0045727D03*
X0100524Y0045716D03*
X0101996Y0044577D03*
X0102019Y0044566D03*
X0096695Y0050591D03*
X0102031Y0053225D03*
X0101674Y0055226D03*
X0101663Y0055249D03*
X0101663Y0055260D03*
X0101663Y0055272D03*
X0101651Y0055295D03*
X0105975Y0059492D03*
X0105975Y0059504D03*
X0105975Y0059516D03*
X0110104Y0058331D03*
X0110104Y0058320D03*
X0110104Y0058308D03*
X0110104Y0058296D03*
X0110104Y0058285D03*
X0110092Y0058251D03*
X0110092Y0058239D03*
X0109287Y0053455D03*
X0112139Y0050741D03*
X0112139Y0050730D03*
X0113726Y0055134D03*
X0113726Y0055145D03*
X0108655Y0044117D03*
D169*
X0108684Y0044128D03*
X0108063Y0046440D03*
X0112145Y0050695D03*
X0113755Y0055215D03*
X0113755Y0055226D03*
X0110133Y0058469D03*
X0110133Y0058480D03*
X0110133Y0058492D03*
X0110133Y0058503D03*
X0105981Y0059573D03*
X0105981Y0059584D03*
X0105981Y0059596D03*
X0101588Y0055513D03*
X0101600Y0055479D03*
X0101600Y0055467D03*
X0101600Y0055456D03*
X0101611Y0055445D03*
X0101611Y0055433D03*
X0106154Y0052282D03*
X0100611Y0045635D03*
X0100622Y0045623D03*
X0100634Y0045612D03*
X0100645Y0045601D03*
X0100657Y0045589D03*
X0101864Y0044658D03*
X0101899Y0044634D03*
X0096678Y0050615D03*
D170*
X0096931Y0050292D03*
X0099507Y0046842D03*
X0102922Y0044140D03*
X0109006Y0053627D03*
X0105728Y0057055D03*
X0105728Y0057066D03*
X0105728Y0057077D03*
X0105728Y0057089D03*
X0105728Y0057101D03*
X0105728Y0057112D03*
X0112950Y0053524D03*
X0112962Y0053535D03*
X0112099Y0051316D03*
D171*
X0112139Y0050649D03*
X0112139Y0050637D03*
X0113784Y0055295D03*
X0113784Y0055306D03*
X0110161Y0058653D03*
X0110161Y0058665D03*
X0110161Y0058676D03*
X0110161Y0058687D03*
X0105998Y0059688D03*
X0105998Y0059699D03*
X0105998Y0059711D03*
X0105998Y0059723D03*
X0101513Y0055778D03*
X0101525Y0055744D03*
X0101525Y0055732D03*
X0101536Y0055709D03*
X0101536Y0055698D03*
X0101536Y0055686D03*
X0101548Y0055663D03*
X0101548Y0055652D03*
X0101996Y0053191D03*
X0100789Y0045474D03*
X0100800Y0045462D03*
X0100812Y0045451D03*
X0100823Y0045440D03*
X0101720Y0044749D03*
X0101755Y0044727D03*
X0101789Y0044703D03*
X0108712Y0044140D03*
D172*
X0102888Y0044152D03*
X0112985Y0053570D03*
D173*
X0112145Y0050603D03*
X0108741Y0044152D03*
X0101140Y0045175D03*
X0110179Y0058780D03*
X0110179Y0058791D03*
X0110179Y0058802D03*
D174*
X0110207Y0058941D03*
X0110207Y0058952D03*
X0110207Y0058963D03*
X0113830Y0055445D03*
X0112139Y0050557D03*
X0108770Y0044163D03*
X0106159Y0052294D03*
X0101962Y0053156D03*
X0101398Y0056238D03*
X0101387Y0056284D03*
X0101387Y0056295D03*
X0101387Y0056307D03*
X0101375Y0056319D03*
X0101375Y0056330D03*
X0101375Y0056341D03*
X0101375Y0056353D03*
X0101352Y0056434D03*
D175*
X0105780Y0057572D03*
X0105780Y0057584D03*
X0105780Y0057595D03*
X0105780Y0057606D03*
X0105780Y0057618D03*
X0105780Y0057630D03*
X0113059Y0053685D03*
X0102824Y0044174D03*
X0099627Y0046693D03*
X0099616Y0046705D03*
D176*
X0096637Y0050706D03*
X0101950Y0053145D03*
X0101341Y0056491D03*
X0101341Y0056502D03*
X0101329Y0056537D03*
X0101329Y0056548D03*
X0101329Y0056560D03*
X0101318Y0056583D03*
X0101318Y0056595D03*
X0101318Y0056606D03*
X0101306Y0056652D03*
X0106021Y0059906D03*
X0106021Y0059918D03*
X0106021Y0059930D03*
X0110219Y0059044D03*
X0110219Y0059033D03*
X0110219Y0059021D03*
X0113841Y0055491D03*
X0113841Y0055479D03*
X0109391Y0053374D03*
X0112139Y0050523D03*
X0108793Y0044174D03*
D177*
X0105630Y0045911D03*
X0102790Y0044186D03*
X0099650Y0046670D03*
X0099639Y0046681D03*
X0096879Y0050338D03*
X0102215Y0053409D03*
X0105791Y0057698D03*
X0105791Y0057710D03*
X0105791Y0057721D03*
X0105791Y0057733D03*
X0105791Y0057745D03*
X0105791Y0057756D03*
X0113105Y0053766D03*
X0113094Y0053742D03*
D178*
X0113853Y0055525D03*
X0113864Y0055537D03*
X0113864Y0055548D03*
X0110230Y0059102D03*
X0110230Y0059113D03*
X0110230Y0059124D03*
X0106021Y0059952D03*
X0106021Y0059964D03*
X0101272Y0056824D03*
X0101272Y0056813D03*
X0101283Y0056778D03*
X0101283Y0056767D03*
X0101283Y0056755D03*
X0101283Y0056744D03*
X0101295Y0056721D03*
X0101295Y0056709D03*
X0096626Y0050718D03*
X0108816Y0044186D03*
X0112139Y0050488D03*
X0112139Y0050499D03*
D179*
X0112116Y0051178D03*
X0113128Y0053812D03*
X0113140Y0053823D03*
X0113151Y0053846D03*
X0109069Y0053593D03*
X0105803Y0057825D03*
X0105803Y0057837D03*
X0105803Y0057848D03*
X0105803Y0057859D03*
X0105803Y0057871D03*
X0105803Y0057883D03*
X0102203Y0053398D03*
X0096867Y0050350D03*
X0099673Y0046635D03*
X0099685Y0046624D03*
X0102767Y0044198D03*
D180*
X0108155Y0046486D03*
X0108845Y0044198D03*
X0112145Y0050442D03*
X0109420Y0053352D03*
X0113882Y0055594D03*
X0113882Y0055605D03*
X0110248Y0059205D03*
X0110248Y0059216D03*
X0110248Y0059228D03*
X0106039Y0060045D03*
X0101922Y0053110D03*
X0101243Y0056962D03*
X0101243Y0056974D03*
X0101243Y0056985D03*
X0101243Y0056997D03*
X0101232Y0057009D03*
X0101232Y0057020D03*
X0101232Y0057031D03*
X0096620Y0050741D03*
D181*
X0096609Y0050764D03*
X0101910Y0053098D03*
X0101220Y0057089D03*
X0101220Y0057101D03*
X0101209Y0057135D03*
X0101209Y0057146D03*
X0101209Y0057158D03*
X0101209Y0057170D03*
X0106039Y0060079D03*
X0106039Y0060091D03*
X0106039Y0060102D03*
X0110259Y0059297D03*
X0110259Y0059285D03*
X0110259Y0059274D03*
X0109431Y0053340D03*
X0106154Y0052305D03*
X0104302Y0046371D03*
X0108868Y0044209D03*
D182*
X0105630Y0045899D03*
X0102709Y0044220D03*
X0099754Y0046544D03*
X0099742Y0046555D03*
X0099731Y0046566D03*
X0096844Y0050373D03*
X0106148Y0052236D03*
X0105826Y0058078D03*
X0105826Y0058090D03*
X0105826Y0058101D03*
X0105826Y0058112D03*
X0105826Y0058124D03*
X0112116Y0051132D03*
X0113197Y0053927D03*
X0113209Y0053949D03*
X0113220Y0053973D03*
D183*
X0113910Y0055686D03*
X0113910Y0055698D03*
X0110276Y0059377D03*
X0110276Y0059389D03*
X0110276Y0059401D03*
X0106044Y0060148D03*
X0106044Y0060159D03*
X0106044Y0060171D03*
X0101168Y0057388D03*
X0101168Y0057377D03*
X0101168Y0057365D03*
X0101168Y0057353D03*
X0101180Y0057319D03*
X0101180Y0057308D03*
X0108896Y0044220D03*
X0112139Y0050362D03*
X0112139Y0050373D03*
D184*
X0112116Y0051109D03*
X0113243Y0054019D03*
X0113255Y0054030D03*
X0113255Y0054041D03*
X0113266Y0054053D03*
X0109103Y0053570D03*
X0105837Y0058193D03*
X0105837Y0058205D03*
X0105837Y0058216D03*
X0105837Y0058227D03*
X0105837Y0058239D03*
X0099777Y0046509D03*
X0096833Y0050384D03*
X0102675Y0044232D03*
D185*
X0108919Y0044232D03*
X0101157Y0057445D03*
X0101157Y0057457D03*
X0101157Y0057469D03*
X0106056Y0060217D03*
D186*
X0106056Y0060240D03*
X0106056Y0060252D03*
X0106056Y0060263D03*
X0110299Y0059527D03*
X0110299Y0059516D03*
X0110299Y0059504D03*
X0113933Y0055766D03*
X0113933Y0055755D03*
X0112139Y0050304D03*
X0112139Y0050292D03*
X0108942Y0044244D03*
X0101881Y0053052D03*
X0101134Y0057572D03*
X0101134Y0057584D03*
X0101134Y0057595D03*
X0101134Y0057606D03*
X0096591Y0050810D03*
D187*
X0096816Y0050408D03*
X0099829Y0046452D03*
X0099840Y0046440D03*
X0099852Y0046428D03*
X0102623Y0044255D03*
X0105855Y0058366D03*
X0105855Y0058377D03*
X0105855Y0058388D03*
X0105855Y0058400D03*
X0105855Y0058412D03*
X0112122Y0051074D03*
X0112122Y0051063D03*
X0113307Y0054134D03*
X0113307Y0054145D03*
X0113318Y0054156D03*
X0113318Y0054168D03*
D188*
X0113945Y0055790D03*
X0110299Y0059538D03*
X0110299Y0059550D03*
X0110299Y0059562D03*
X0106056Y0060298D03*
X0101870Y0053041D03*
X0104664Y0051776D03*
X0106159Y0052316D03*
X0101111Y0057698D03*
X0101111Y0057710D03*
X0101111Y0057721D03*
X0101111Y0057733D03*
X0096580Y0050833D03*
X0108965Y0044255D03*
X0112139Y0050270D03*
D189*
X0112122Y0051040D03*
X0113353Y0054237D03*
X0113364Y0054248D03*
X0113364Y0054260D03*
X0105866Y0058480D03*
X0105866Y0058492D03*
X0105866Y0058503D03*
X0105866Y0058515D03*
X0105866Y0058527D03*
X0096804Y0050419D03*
X0102600Y0044266D03*
X0105636Y0045888D03*
D190*
X0108983Y0044266D03*
X0112134Y0050235D03*
X0112134Y0050246D03*
X0112134Y0050258D03*
X0113951Y0055801D03*
X0113951Y0055812D03*
X0110305Y0059573D03*
X0110305Y0059584D03*
X0106062Y0060309D03*
X0106062Y0060320D03*
X0106062Y0060332D03*
X0101094Y0057813D03*
X0101105Y0057767D03*
X0101105Y0057756D03*
X0101105Y0057745D03*
D191*
X0105872Y0058538D03*
X0105872Y0058549D03*
X0105872Y0058561D03*
X0105872Y0058573D03*
X0106148Y0052248D03*
X0102571Y0044278D03*
X0099903Y0046371D03*
X0099892Y0046383D03*
X0099880Y0046394D03*
X0096798Y0050430D03*
X0112128Y0051028D03*
X0113370Y0054271D03*
X0113381Y0054283D03*
X0113381Y0054295D03*
X0113393Y0054317D03*
D192*
X0113962Y0055835D03*
X0113962Y0055847D03*
X0110317Y0059630D03*
X0110317Y0059642D03*
X0110317Y0059653D03*
X0106062Y0060366D03*
X0101082Y0057894D03*
X0101082Y0057883D03*
X0101082Y0057871D03*
X0101082Y0057859D03*
X0101853Y0053018D03*
X0096574Y0050856D03*
X0109006Y0044278D03*
X0112134Y0050212D03*
X0112134Y0050223D03*
D193*
X0113387Y0054306D03*
X0113410Y0054352D03*
X0109305Y0054709D03*
X0109144Y0053547D03*
X0102543Y0044290D03*
X0099909Y0046359D03*
D194*
X0101841Y0053006D03*
X0101071Y0057940D03*
X0101071Y0057952D03*
X0101071Y0057963D03*
X0101071Y0057974D03*
X0106073Y0060401D03*
X0106073Y0060412D03*
X0110328Y0059711D03*
X0110328Y0059699D03*
X0112134Y0050189D03*
X0112134Y0050177D03*
X0109029Y0044290D03*
D195*
X0107936Y0046394D03*
X0112134Y0050994D03*
X0113433Y0054409D03*
X0113445Y0054433D03*
X0113445Y0054444D03*
X0113456Y0054455D03*
X0109351Y0054846D03*
X0109351Y0054858D03*
X0109351Y0054870D03*
X0109339Y0054835D03*
X0109339Y0054823D03*
X0109339Y0054812D03*
X0109328Y0054789D03*
X0109167Y0053535D03*
X0105889Y0058699D03*
X0105889Y0058710D03*
X0105889Y0058722D03*
X0105889Y0058734D03*
X0105889Y0058745D03*
X0102129Y0053328D03*
X0096781Y0050453D03*
X0102520Y0044301D03*
D196*
X0096563Y0050879D03*
X0101048Y0058066D03*
X0101048Y0058078D03*
X0101048Y0058090D03*
X0108258Y0046555D03*
X0109052Y0044301D03*
X0112134Y0050143D03*
X0113974Y0055893D03*
X0110328Y0059745D03*
D197*
X0109356Y0054892D03*
X0109356Y0054881D03*
X0113462Y0054478D03*
X0113462Y0054467D03*
X0102491Y0044312D03*
D198*
X0102474Y0044324D03*
X0100024Y0046233D03*
X0100013Y0046245D03*
X0100001Y0046256D03*
X0099990Y0046267D03*
X0096770Y0050465D03*
X0102117Y0053317D03*
X0101922Y0054536D03*
X0101910Y0054548D03*
X0101910Y0054559D03*
X0105901Y0058802D03*
X0105901Y0058814D03*
X0105901Y0058826D03*
X0105901Y0058837D03*
X0109408Y0055053D03*
X0109397Y0055019D03*
X0109397Y0055008D03*
X0109397Y0054996D03*
X0109385Y0054984D03*
X0109385Y0054973D03*
X0109374Y0054938D03*
X0112134Y0050971D03*
X0113468Y0054490D03*
X0113479Y0054513D03*
X0113479Y0054524D03*
X0113491Y0054536D03*
X0105636Y0045877D03*
D199*
X0108275Y0046566D03*
X0109092Y0044324D03*
X0112128Y0050085D03*
X0112128Y0050097D03*
X0101812Y0052972D03*
X0101030Y0058181D03*
X0101030Y0058193D03*
X0101030Y0058205D03*
X0096557Y0050902D03*
D200*
X0101013Y0058285D03*
X0101013Y0058296D03*
X0101013Y0058308D03*
X0101795Y0052949D03*
X0109109Y0044335D03*
X0114008Y0055985D03*
D201*
X0113514Y0054594D03*
X0112134Y0050948D03*
X0112134Y0050937D03*
X0109431Y0055134D03*
X0109443Y0055180D03*
X0109443Y0055191D03*
X0109454Y0055215D03*
X0109454Y0055226D03*
X0109454Y0055237D03*
X0109466Y0055249D03*
X0109466Y0055260D03*
X0109466Y0055272D03*
X0109477Y0055295D03*
X0109477Y0055306D03*
X0106142Y0052259D03*
X0101887Y0054616D03*
X0101887Y0054628D03*
X0105912Y0058906D03*
X0105912Y0058917D03*
X0105912Y0058929D03*
X0105912Y0058941D03*
X0100047Y0046210D03*
X0100059Y0046198D03*
X0102428Y0044347D03*
D202*
X0096545Y0050937D03*
X0101007Y0058320D03*
X0101007Y0058331D03*
X0101007Y0058342D03*
X0101789Y0052937D03*
X0106079Y0060573D03*
X0110368Y0059918D03*
X0114014Y0055996D03*
X0112116Y0050016D03*
X0109126Y0044347D03*
D203*
X0102399Y0044359D03*
X0100087Y0046164D03*
X0100076Y0046176D03*
X0100064Y0046187D03*
X0096764Y0050477D03*
X0101870Y0054651D03*
X0101870Y0054662D03*
X0101881Y0054640D03*
X0105918Y0058952D03*
X0105918Y0058963D03*
X0105918Y0058975D03*
X0105918Y0058987D03*
X0109529Y0055502D03*
X0109517Y0055456D03*
X0109517Y0055445D03*
X0109506Y0055421D03*
X0109506Y0055410D03*
X0109506Y0055398D03*
X0109494Y0055376D03*
X0109494Y0055364D03*
X0109494Y0055352D03*
X0109483Y0055341D03*
X0109483Y0055330D03*
X0109483Y0055318D03*
X0109471Y0055284D03*
X0113531Y0054640D03*
X0113531Y0054628D03*
X0113542Y0054651D03*
X0113542Y0054662D03*
D204*
X0109149Y0044359D03*
D205*
X0109167Y0044370D03*
X0108316Y0046601D03*
X0105648Y0045784D03*
X0104521Y0051753D03*
X0101772Y0052915D03*
X0100990Y0058423D03*
X0100990Y0058434D03*
X0100990Y0058446D03*
X0106085Y0060631D03*
X0106085Y0060642D03*
X0110374Y0059987D03*
X0110374Y0059976D03*
X0114020Y0056031D03*
X0112111Y0049959D03*
D206*
X0112111Y0049924D03*
X0112111Y0049913D03*
X0108327Y0046612D03*
X0109190Y0044381D03*
X0114031Y0056054D03*
X0114031Y0056066D03*
X0100979Y0058492D03*
X0100979Y0058503D03*
X0100979Y0058515D03*
X0100979Y0058527D03*
D207*
X0101835Y0054755D03*
X0102077Y0053283D03*
X0096741Y0050511D03*
X0102330Y0044393D03*
X0109805Y0056687D03*
X0109816Y0056733D03*
X0109816Y0056744D03*
X0109816Y0056755D03*
X0109839Y0056836D03*
X0109839Y0056848D03*
X0109839Y0056859D03*
X0109839Y0056870D03*
X0109851Y0056894D03*
X0109851Y0056905D03*
X0109851Y0056916D03*
X0109851Y0056928D03*
X0109885Y0057077D03*
X0109885Y0057089D03*
X0109897Y0057135D03*
X0109897Y0057146D03*
X0113588Y0054777D03*
D208*
X0113600Y0054801D03*
X0113600Y0054812D03*
X0113611Y0054835D03*
X0109793Y0056629D03*
X0109828Y0056778D03*
X0109828Y0056790D03*
X0109828Y0056802D03*
X0109828Y0056813D03*
X0109862Y0056951D03*
X0109862Y0056962D03*
X0109862Y0056974D03*
X0109862Y0056985D03*
X0109874Y0057009D03*
X0109874Y0057020D03*
X0109874Y0057031D03*
X0109908Y0057192D03*
X0109218Y0053501D03*
X0105929Y0059102D03*
X0105929Y0059113D03*
X0105929Y0059124D03*
X0105929Y0059136D03*
X0101824Y0054789D03*
X0101824Y0054777D03*
X0100168Y0046072D03*
X0100179Y0046060D03*
X0102307Y0044405D03*
D209*
X0101749Y0052880D03*
X0110386Y0060045D03*
X0110386Y0060056D03*
X0110386Y0060067D03*
X0112111Y0049890D03*
X0112111Y0049878D03*
X0109224Y0044405D03*
D210*
X0109241Y0044416D03*
X0112105Y0049844D03*
X0112105Y0049855D03*
X0112105Y0049867D03*
X0114037Y0056088D03*
X0110391Y0060079D03*
X0110391Y0060091D03*
X0106090Y0060712D03*
X0106090Y0060723D03*
X0100961Y0058619D03*
X0100961Y0058607D03*
X0104480Y0051741D03*
X0104043Y0046428D03*
D211*
X0109264Y0044427D03*
X0112105Y0049821D03*
X0112105Y0049833D03*
D212*
X0109960Y0057480D03*
X0109972Y0057526D03*
X0109972Y0057537D03*
X0109972Y0057549D03*
X0109983Y0057584D03*
X0109983Y0057595D03*
X0109983Y0057606D03*
X0109983Y0057618D03*
X0105947Y0059228D03*
X0105947Y0059240D03*
X0105947Y0059251D03*
X0105947Y0059262D03*
X0106154Y0052270D03*
X0100266Y0045980D03*
X0102221Y0044451D03*
X0102244Y0044439D03*
D213*
X0104003Y0046440D03*
X0105648Y0045773D03*
X0108362Y0046647D03*
X0109282Y0044439D03*
X0112099Y0049787D03*
X0112099Y0049798D03*
X0112099Y0049809D03*
X0114054Y0056123D03*
X0114054Y0056134D03*
X0110397Y0060125D03*
X0110397Y0060137D03*
X0106096Y0060769D03*
X0106096Y0060780D03*
X0100944Y0058710D03*
X0100944Y0058699D03*
D214*
X0096517Y0051028D03*
X0109293Y0044451D03*
X0110397Y0060159D03*
D215*
X0110041Y0057928D03*
X0110041Y0057917D03*
X0110029Y0057883D03*
X0110029Y0057871D03*
X0110029Y0057859D03*
X0110029Y0057848D03*
X0110029Y0057837D03*
X0110018Y0057813D03*
X0110018Y0057802D03*
X0110018Y0057791D03*
X0109247Y0053478D03*
X0113663Y0054973D03*
X0113663Y0054984D03*
X0113675Y0054996D03*
X0113675Y0055008D03*
X0105958Y0059320D03*
X0105958Y0059331D03*
X0105958Y0059343D03*
X0105958Y0059355D03*
X0101738Y0055030D03*
X0101749Y0055008D03*
X0101749Y0054996D03*
X0101749Y0054984D03*
X0101761Y0054973D03*
X0101761Y0054962D03*
X0096712Y0050557D03*
X0100312Y0045923D03*
X0102175Y0044473D03*
X0102198Y0044462D03*
D216*
X0103974Y0046452D03*
X0109310Y0044462D03*
X0112093Y0049729D03*
X0112093Y0049741D03*
X0112093Y0049752D03*
X0114060Y0056158D03*
X0110403Y0060171D03*
X0110403Y0060183D03*
X0106102Y0060815D03*
X0100927Y0058802D03*
X0100927Y0058791D03*
X0101709Y0052823D03*
D217*
X0106096Y0060827D03*
X0106096Y0060838D03*
X0110409Y0060205D03*
X0110409Y0060194D03*
X0114066Y0056169D03*
X0112088Y0049717D03*
X0108385Y0046670D03*
X0109328Y0044473D03*
D218*
X0109368Y0044496D03*
X0103940Y0046463D03*
X0110414Y0060240D03*
X0110414Y0060252D03*
X0106102Y0060873D03*
X0106102Y0060884D03*
X0114083Y0056203D03*
D219*
X0113698Y0055065D03*
X0113698Y0055053D03*
X0113686Y0055042D03*
X0113686Y0055030D03*
X0112134Y0050776D03*
X0109270Y0053466D03*
X0110052Y0057998D03*
X0110052Y0058009D03*
X0110052Y0058020D03*
X0110064Y0058044D03*
X0110064Y0058055D03*
X0110064Y0058066D03*
X0110064Y0058078D03*
X0110075Y0058135D03*
X0105958Y0059377D03*
X0105958Y0059389D03*
X0105958Y0059401D03*
X0101703Y0055134D03*
X0101715Y0055099D03*
X0101715Y0055088D03*
X0101726Y0055077D03*
X0101726Y0055065D03*
X0100369Y0045865D03*
X0100381Y0045853D03*
X0102094Y0044520D03*
X0102117Y0044508D03*
X0105636Y0045853D03*
D220*
X0103911Y0046474D03*
X0106165Y0052351D03*
X0101692Y0052788D03*
X0100910Y0058906D03*
X0100910Y0058917D03*
X0100910Y0058929D03*
X0096505Y0051063D03*
X0108408Y0046693D03*
X0109397Y0044520D03*
X0109385Y0044508D03*
X0112076Y0049637D03*
X0114077Y0056215D03*
D221*
X0113715Y0055111D03*
X0113703Y0055088D03*
X0113703Y0055077D03*
X0112139Y0050764D03*
X0112139Y0050752D03*
X0108034Y0046428D03*
X0102077Y0044531D03*
X0100455Y0045784D03*
X0100444Y0045796D03*
X0100432Y0045808D03*
X0100409Y0045830D03*
X0100398Y0045842D03*
X0096706Y0050569D03*
X0102042Y0053237D03*
X0101709Y0055111D03*
X0101709Y0055123D03*
X0101686Y0055191D03*
X0110081Y0058147D03*
X0110081Y0058159D03*
X0110081Y0058170D03*
X0110081Y0058181D03*
D222*
X0114089Y0056238D03*
X0112076Y0049602D03*
X0112076Y0049591D03*
X0109408Y0044531D03*
D223*
X0102060Y0044542D03*
X0102037Y0044554D03*
X0096701Y0050580D03*
X0101692Y0055169D03*
X0101692Y0055180D03*
X0101680Y0055203D03*
X0101680Y0055215D03*
X0101669Y0055237D03*
X0105970Y0059458D03*
X0105970Y0059470D03*
X0105970Y0059481D03*
X0110098Y0058273D03*
X0110098Y0058262D03*
X0110087Y0058227D03*
X0110087Y0058216D03*
X0110087Y0058205D03*
X0110087Y0058193D03*
X0113721Y0055123D03*
X0113709Y0055099D03*
D224*
X0114094Y0056249D03*
X0110426Y0060309D03*
X0106102Y0060930D03*
X0106102Y0060941D03*
X0100892Y0059009D03*
X0100892Y0058998D03*
X0100892Y0058987D03*
X0101674Y0052765D03*
X0096499Y0051086D03*
X0107712Y0051730D03*
X0108425Y0046716D03*
X0109425Y0044542D03*
X0112070Y0049568D03*
X0112070Y0049580D03*
D225*
X0112076Y0049556D03*
X0109443Y0044554D03*
X0105648Y0045762D03*
X0104302Y0051684D03*
X0106108Y0060953D03*
X0110420Y0060320D03*
D226*
X0106102Y0060965D03*
X0101663Y0052753D03*
X0103859Y0046498D03*
X0108436Y0046727D03*
X0109460Y0044566D03*
X0114094Y0056261D03*
D227*
X0114100Y0056273D03*
X0110432Y0060355D03*
X0106108Y0060976D03*
X0100887Y0059055D03*
X0100887Y0059044D03*
X0101657Y0052742D03*
X0104268Y0051673D03*
X0103831Y0046509D03*
X0109477Y0044577D03*
X0112065Y0049499D03*
X0112065Y0049510D03*
X0112065Y0049522D03*
D228*
X0113732Y0055157D03*
X0113732Y0055169D03*
X0110110Y0058342D03*
X0110110Y0058354D03*
X0110110Y0058366D03*
X0110121Y0058412D03*
X0101646Y0055330D03*
X0101646Y0055318D03*
X0101646Y0055306D03*
X0101657Y0055284D03*
X0096689Y0050603D03*
X0100542Y0045704D03*
X0101979Y0044588D03*
D229*
X0101651Y0052730D03*
X0107746Y0051719D03*
X0108448Y0046739D03*
X0109494Y0044588D03*
X0112059Y0049476D03*
X0112059Y0049487D03*
X0114106Y0056284D03*
X0110426Y0060366D03*
X0106102Y0060987D03*
X0106102Y0060999D03*
X0100881Y0059090D03*
X0100881Y0059078D03*
X0100881Y0059067D03*
D230*
X0101634Y0055352D03*
X0105981Y0059527D03*
X0105981Y0059538D03*
X0105981Y0059550D03*
X0112145Y0050718D03*
X0113744Y0055180D03*
X0113744Y0055191D03*
X0101956Y0044600D03*
D231*
X0103808Y0046520D03*
X0104233Y0051661D03*
X0101646Y0052719D03*
X0096494Y0051109D03*
X0106108Y0061010D03*
X0110432Y0060390D03*
X0110432Y0060378D03*
X0114112Y0056295D03*
X0112053Y0049465D03*
X0108454Y0046751D03*
X0109512Y0044600D03*
D232*
X0109523Y0044612D03*
X0101634Y0052708D03*
X0106108Y0061034D03*
D233*
X0100864Y0059148D03*
X0104210Y0051649D03*
X0107775Y0051707D03*
X0108465Y0046762D03*
X0109535Y0044623D03*
X0112053Y0049419D03*
X0112053Y0049430D03*
X0114112Y0056307D03*
X0103785Y0046532D03*
X0096494Y0051120D03*
D234*
X0096672Y0050626D03*
X0100685Y0045566D03*
X0100697Y0045555D03*
X0101847Y0044669D03*
X0101881Y0044646D03*
X0102008Y0053202D03*
X0101594Y0055491D03*
X0101594Y0055502D03*
X0105987Y0059608D03*
X0105987Y0059619D03*
X0105987Y0059630D03*
X0105987Y0059642D03*
X0110138Y0058549D03*
X0110138Y0058538D03*
X0110138Y0058527D03*
X0110138Y0058515D03*
X0112139Y0050684D03*
X0112139Y0050672D03*
D235*
X0112042Y0049373D03*
X0112042Y0049361D03*
X0109569Y0044646D03*
X0104187Y0051638D03*
X0104164Y0051627D03*
X0101623Y0052684D03*
X0103739Y0046555D03*
X0103762Y0046544D03*
X0100864Y0059182D03*
X0100864Y0059194D03*
X0106108Y0061056D03*
X0110443Y0060447D03*
X0110443Y0060435D03*
X0114123Y0056330D03*
D236*
X0109586Y0044658D03*
X0101617Y0052673D03*
D237*
X0101605Y0052662D03*
X0104112Y0051603D03*
X0100846Y0059251D03*
X0110449Y0060481D03*
X0114129Y0056353D03*
X0112036Y0049315D03*
X0112036Y0049303D03*
X0109609Y0044680D03*
X0109598Y0044669D03*
D238*
X0101824Y0044680D03*
X0100708Y0045543D03*
X0100674Y0045577D03*
X0101582Y0055525D03*
X0101582Y0055537D03*
X0101582Y0055548D03*
X0101571Y0055559D03*
X0101571Y0055571D03*
X0110150Y0058584D03*
X0110150Y0058595D03*
X0113772Y0055272D03*
X0113761Y0055249D03*
X0113761Y0055237D03*
D239*
X0113767Y0055260D03*
X0113778Y0055284D03*
X0109316Y0053432D03*
X0112145Y0050660D03*
X0105636Y0045842D03*
X0101807Y0044692D03*
X0101772Y0044715D03*
X0100772Y0045485D03*
X0100760Y0045497D03*
X0100749Y0045509D03*
X0100737Y0045520D03*
X0100726Y0045531D03*
X0096666Y0050637D03*
X0101565Y0055583D03*
X0101565Y0055594D03*
X0101565Y0055605D03*
X0101554Y0055617D03*
X0101554Y0055628D03*
X0101554Y0055640D03*
X0101542Y0055674D03*
X0105993Y0059653D03*
X0105993Y0059665D03*
X0105993Y0059677D03*
X0110156Y0058641D03*
X0110156Y0058630D03*
X0110156Y0058619D03*
X0110156Y0058607D03*
X0110144Y0058573D03*
X0110144Y0058561D03*
D240*
X0114135Y0056365D03*
X0109627Y0044692D03*
X0096482Y0051155D03*
D241*
X0096476Y0051166D03*
X0101594Y0052638D03*
X0104066Y0051580D03*
X0104089Y0051592D03*
X0107861Y0051673D03*
X0108505Y0046820D03*
X0109655Y0044715D03*
X0109644Y0044703D03*
X0112024Y0049246D03*
X0112024Y0049258D03*
X0110449Y0060493D03*
X0110449Y0060505D03*
X0100846Y0059285D03*
X0100846Y0059274D03*
X0103675Y0046590D03*
D242*
X0104009Y0051546D03*
X0104032Y0051558D03*
X0101582Y0052627D03*
X0096476Y0051178D03*
X0100835Y0059320D03*
X0100835Y0059331D03*
X0107884Y0051661D03*
X0112013Y0049200D03*
X0112013Y0049188D03*
X0109667Y0044727D03*
X0114140Y0056387D03*
D243*
X0106004Y0059734D03*
X0101531Y0055720D03*
X0100875Y0045394D03*
X0101738Y0044738D03*
D244*
X0103601Y0046635D03*
X0103624Y0046624D03*
X0101577Y0052616D03*
X0100829Y0059343D03*
X0100829Y0059355D03*
X0106108Y0061148D03*
X0106108Y0061160D03*
X0110455Y0060551D03*
X0110455Y0060539D03*
X0112007Y0049177D03*
X0108523Y0046842D03*
X0109696Y0044749D03*
X0109684Y0044738D03*
D245*
X0108086Y0046452D03*
X0112145Y0050626D03*
X0109328Y0053420D03*
X0113790Y0055318D03*
X0113790Y0055330D03*
X0110167Y0058699D03*
X0110167Y0058710D03*
X0110167Y0058722D03*
X0101496Y0055847D03*
X0101496Y0055835D03*
X0101508Y0055812D03*
X0101508Y0055801D03*
X0101508Y0055790D03*
X0101519Y0055766D03*
X0101519Y0055755D03*
X0096666Y0050649D03*
X0100841Y0045428D03*
X0100852Y0045416D03*
X0100864Y0045405D03*
X0100887Y0045382D03*
X0100933Y0045348D03*
X0100944Y0045336D03*
X0101600Y0044830D03*
X0101634Y0044807D03*
X0101669Y0044784D03*
X0101680Y0044773D03*
X0101703Y0044761D03*
D246*
X0103986Y0051534D03*
X0107907Y0051649D03*
X0112013Y0049166D03*
X0112013Y0049154D03*
X0108528Y0046854D03*
X0109724Y0044773D03*
X0109713Y0044761D03*
X0100823Y0059366D03*
X0106102Y0061171D03*
X0110460Y0060562D03*
D247*
X0110173Y0058768D03*
X0110173Y0058756D03*
X0110173Y0058745D03*
X0110173Y0058734D03*
X0105998Y0059745D03*
X0105998Y0059757D03*
X0101467Y0055962D03*
X0101467Y0055951D03*
X0101479Y0055916D03*
X0101479Y0055905D03*
X0101479Y0055893D03*
X0101490Y0055881D03*
X0101490Y0055870D03*
X0101490Y0055859D03*
X0101502Y0055824D03*
X0101985Y0053179D03*
X0100904Y0045370D03*
X0100915Y0045359D03*
X0100961Y0045324D03*
X0100973Y0045313D03*
X0100984Y0045302D03*
X0100996Y0045290D03*
X0101042Y0045255D03*
X0101053Y0045244D03*
X0101502Y0044899D03*
X0101548Y0044865D03*
X0101582Y0044841D03*
X0101617Y0044819D03*
X0101651Y0044795D03*
X0112139Y0050615D03*
X0113795Y0055341D03*
X0113795Y0055352D03*
D248*
X0110466Y0060596D03*
X0106108Y0061195D03*
X0106108Y0061206D03*
X0100818Y0059423D03*
X0100818Y0059412D03*
X0101554Y0052570D03*
X0103520Y0046693D03*
X0109765Y0044807D03*
D249*
X0109782Y0044819D03*
X0108551Y0046888D03*
X0105653Y0045738D03*
X0103503Y0046705D03*
X0103859Y0051454D03*
X0100812Y0059435D03*
X0110460Y0060608D03*
X0114152Y0056422D03*
X0111990Y0049062D03*
X0111990Y0049051D03*
X0111990Y0049039D03*
D250*
X0111984Y0049027D03*
X0111984Y0049016D03*
X0108557Y0046900D03*
X0109788Y0044830D03*
X0107971Y0051615D03*
X0103842Y0051442D03*
X0103831Y0051431D03*
X0101542Y0052558D03*
X0103474Y0046727D03*
X0103486Y0046716D03*
X0096471Y0051212D03*
X0100818Y0059446D03*
X0106108Y0061217D03*
X0106108Y0061229D03*
X0110466Y0060620D03*
X0114158Y0056434D03*
D251*
X0114163Y0056445D03*
X0110472Y0060631D03*
X0103813Y0051420D03*
X0103779Y0051396D03*
X0100812Y0059458D03*
X0100812Y0059470D03*
X0109816Y0044853D03*
X0109805Y0044841D03*
X0111978Y0048981D03*
X0111978Y0048993D03*
X0111978Y0049005D03*
D252*
X0109351Y0053409D03*
X0113801Y0055364D03*
X0113813Y0055376D03*
X0113813Y0055387D03*
X0110190Y0058826D03*
X0110190Y0058837D03*
X0110190Y0058848D03*
X0106004Y0059769D03*
X0106004Y0059780D03*
X0106004Y0059791D03*
X0101439Y0056077D03*
X0101439Y0056066D03*
X0101450Y0056031D03*
X0101450Y0056020D03*
X0101450Y0056008D03*
X0101462Y0055996D03*
X0101462Y0055985D03*
X0101462Y0055973D03*
X0101473Y0055939D03*
X0101473Y0055927D03*
X0096655Y0050660D03*
X0101013Y0045278D03*
X0101025Y0045267D03*
X0101071Y0045233D03*
X0101082Y0045221D03*
X0101094Y0045209D03*
X0101128Y0045187D03*
X0101151Y0045163D03*
X0101197Y0045129D03*
X0101209Y0045117D03*
X0101255Y0045083D03*
X0101301Y0045048D03*
X0101393Y0044980D03*
X0101404Y0044968D03*
X0101439Y0044945D03*
X0101450Y0044934D03*
X0101473Y0044922D03*
X0101485Y0044910D03*
X0101519Y0044887D03*
X0101531Y0044876D03*
X0101565Y0044853D03*
D253*
X0103457Y0046739D03*
X0103790Y0051408D03*
X0101536Y0052546D03*
X0106171Y0052374D03*
X0107988Y0051603D03*
X0108563Y0046912D03*
X0109828Y0044865D03*
D254*
X0109845Y0044876D03*
X0108569Y0046923D03*
X0111973Y0048959D03*
X0111973Y0048970D03*
X0103762Y0051385D03*
X0103750Y0051373D03*
X0101531Y0052535D03*
X0103451Y0046751D03*
X0096471Y0051224D03*
X0100806Y0059481D03*
X0100806Y0059492D03*
X0106108Y0061241D03*
X0106108Y0061252D03*
X0110466Y0060642D03*
D255*
X0110472Y0060654D03*
X0110472Y0060666D03*
X0114163Y0056456D03*
X0111967Y0048947D03*
X0111967Y0048935D03*
X0111967Y0048924D03*
X0109851Y0044887D03*
X0108574Y0046934D03*
X0108011Y0051592D03*
X0103733Y0051362D03*
X0103721Y0051351D03*
X0103710Y0051339D03*
X0103675Y0051316D03*
X0101525Y0052523D03*
X0103422Y0046773D03*
X0103434Y0046762D03*
X0100800Y0059504D03*
D256*
X0103382Y0046808D03*
X0109868Y0044899D03*
X0111961Y0048901D03*
X0111961Y0048912D03*
D257*
X0109880Y0044910D03*
X0108580Y0046946D03*
X0108028Y0051580D03*
X0103693Y0051327D03*
X0103658Y0051305D03*
X0103647Y0051293D03*
X0103635Y0051281D03*
X0101519Y0052512D03*
X0103394Y0046796D03*
X0103405Y0046785D03*
X0100806Y0059516D03*
X0106108Y0061263D03*
X0106108Y0061275D03*
D258*
X0110472Y0060677D03*
X0114175Y0056468D03*
X0108045Y0051569D03*
X0108586Y0046958D03*
X0109897Y0044922D03*
X0111955Y0048878D03*
X0111955Y0048890D03*
X0103618Y0051270D03*
X0103606Y0051259D03*
X0103595Y0051247D03*
X0103583Y0051235D03*
X0103572Y0051224D03*
X0101513Y0052501D03*
X0103365Y0046820D03*
X0096465Y0051235D03*
X0100800Y0059527D03*
X0100800Y0059538D03*
D259*
X0100795Y0059550D03*
X0100795Y0059562D03*
X0106108Y0061287D03*
X0110478Y0060700D03*
X0110478Y0060688D03*
X0103555Y0051212D03*
X0103543Y0051201D03*
X0103532Y0051190D03*
X0103520Y0051178D03*
X0103509Y0051166D03*
X0103336Y0046854D03*
X0103348Y0046842D03*
X0108592Y0046969D03*
X0109903Y0044934D03*
X0111950Y0048844D03*
X0111950Y0048855D03*
X0111950Y0048866D03*
D260*
X0109943Y0044968D03*
X0109920Y0044945D03*
X0108597Y0046980D03*
X0108068Y0051558D03*
X0103307Y0046877D03*
X0101502Y0052489D03*
X0096465Y0051247D03*
X0100789Y0059573D03*
X0106102Y0061298D03*
X0114175Y0056480D03*
D261*
X0111944Y0048832D03*
X0111944Y0048820D03*
X0109931Y0044956D03*
X0103319Y0046866D03*
D262*
X0103342Y0050994D03*
X0103376Y0051028D03*
X0101490Y0052466D03*
X0100789Y0059596D03*
X0108103Y0051534D03*
X0109954Y0044980D03*
X0110483Y0060734D03*
D263*
X0106102Y0061321D03*
X0101479Y0052455D03*
X0103307Y0050948D03*
X0103319Y0050959D03*
X0103330Y0050971D03*
X0103353Y0051005D03*
X0103365Y0051017D03*
X0103388Y0051040D03*
X0103399Y0051052D03*
X0108114Y0051523D03*
X0108609Y0047003D03*
X0109977Y0045002D03*
X0109966Y0044991D03*
X0111932Y0048763D03*
X0111932Y0048774D03*
X0096465Y0051259D03*
D264*
X0101473Y0052443D03*
X0103267Y0050902D03*
X0103267Y0050891D03*
X0103279Y0050913D03*
X0103290Y0050925D03*
X0103302Y0050937D03*
X0103336Y0050983D03*
X0103244Y0050867D03*
X0103210Y0050821D03*
X0103221Y0046969D03*
X0103233Y0046958D03*
X0103244Y0046946D03*
X0108615Y0047015D03*
X0109983Y0045014D03*
X0111927Y0048740D03*
X0111927Y0048752D03*
X0108132Y0051512D03*
X0106108Y0061333D03*
X0100783Y0059619D03*
X0100783Y0059608D03*
D265*
X0100777Y0059630D03*
X0101467Y0052431D03*
X0103215Y0050833D03*
X0103227Y0050845D03*
X0103238Y0050856D03*
X0103204Y0050810D03*
X0103192Y0050798D03*
X0103181Y0050787D03*
X0103181Y0050776D03*
X0103169Y0050764D03*
X0103158Y0050752D03*
X0103146Y0050730D03*
X0103123Y0050695D03*
X0103192Y0047003D03*
X0103204Y0046992D03*
X0103215Y0046980D03*
X0108620Y0047027D03*
X0110023Y0045048D03*
X0110012Y0045037D03*
X0110000Y0045026D03*
X0111921Y0048705D03*
X0111921Y0048717D03*
X0111921Y0048728D03*
X0108149Y0051500D03*
X0110483Y0060746D03*
X0110483Y0060758D03*
D266*
X0110483Y0060769D03*
X0106102Y0061355D03*
X0100777Y0059665D03*
X0100777Y0059653D03*
X0101456Y0052409D03*
X0103100Y0050660D03*
X0103066Y0050603D03*
X0103054Y0050580D03*
X0103043Y0050569D03*
X0103031Y0050545D03*
X0103020Y0050523D03*
X0103008Y0050511D03*
X0103008Y0050499D03*
X0102997Y0050488D03*
X0102997Y0050477D03*
X0102985Y0050465D03*
X0102974Y0050442D03*
X0102962Y0050419D03*
X0103100Y0047130D03*
X0103112Y0047119D03*
X0103112Y0047107D03*
X0103123Y0047095D03*
X0103135Y0047084D03*
X0105653Y0045727D03*
X0108632Y0047049D03*
X0110058Y0045083D03*
X0110046Y0045071D03*
X0110035Y0045060D03*
X0111909Y0048659D03*
X0111909Y0048671D03*
X0108172Y0051477D03*
D267*
X0108218Y0051442D03*
X0108643Y0047084D03*
X0110104Y0045129D03*
X0110081Y0045106D03*
X0110069Y0045095D03*
X0111886Y0048567D03*
X0111886Y0048579D03*
X0111886Y0048591D03*
X0103054Y0047199D03*
X0103043Y0047210D03*
X0103043Y0047222D03*
X0103020Y0047256D03*
X0102836Y0050120D03*
X0102836Y0050131D03*
X0102847Y0050155D03*
X0102847Y0050166D03*
X0102882Y0050235D03*
X0102882Y0050246D03*
X0102893Y0050270D03*
X0101444Y0052385D03*
D268*
X0102905Y0050292D03*
X0102870Y0050223D03*
X0102870Y0050212D03*
X0102859Y0050189D03*
X0102859Y0050177D03*
X0102824Y0050097D03*
X0103031Y0047234D03*
X0103066Y0047176D03*
X0103077Y0047165D03*
X0108206Y0051454D03*
X0110092Y0045117D03*
X0106102Y0061378D03*
D269*
X0101180Y0045141D03*
D270*
X0103026Y0047245D03*
X0103014Y0047268D03*
X0103003Y0047280D03*
X0102991Y0047302D03*
X0102980Y0047326D03*
X0102750Y0049867D03*
X0102761Y0049902D03*
X0102761Y0049913D03*
X0102773Y0049936D03*
X0102773Y0049948D03*
X0102773Y0049959D03*
X0102784Y0049970D03*
X0102784Y0049982D03*
X0102784Y0049994D03*
X0102796Y0050005D03*
X0102796Y0050016D03*
X0102796Y0050028D03*
X0102807Y0050040D03*
X0102807Y0050051D03*
X0102807Y0050062D03*
X0102819Y0050074D03*
X0102819Y0050085D03*
X0102830Y0050109D03*
X0102842Y0050143D03*
X0101439Y0052374D03*
X0100772Y0059699D03*
X0106108Y0061390D03*
X0110489Y0060803D03*
X0114192Y0056537D03*
X0108247Y0051420D03*
X0108235Y0051431D03*
X0108649Y0047095D03*
X0110110Y0045141D03*
X0111881Y0048545D03*
X0111881Y0048556D03*
D271*
X0111875Y0048533D03*
X0111875Y0048521D03*
X0110138Y0045163D03*
X0110127Y0045152D03*
X0108655Y0047107D03*
X0108655Y0047119D03*
X0108252Y0051408D03*
X0102767Y0049924D03*
X0102755Y0049890D03*
X0102755Y0049878D03*
X0102744Y0049855D03*
X0102744Y0049844D03*
X0102744Y0049833D03*
X0102732Y0049821D03*
X0102732Y0049809D03*
X0102732Y0049798D03*
X0102732Y0049787D03*
X0102721Y0049775D03*
X0102721Y0049763D03*
X0102721Y0049752D03*
X0102721Y0049741D03*
X0102709Y0049717D03*
X0102709Y0049706D03*
X0102709Y0049695D03*
X0102698Y0049660D03*
X0102916Y0047441D03*
X0102928Y0047417D03*
X0102939Y0047395D03*
X0102951Y0047383D03*
X0102951Y0047371D03*
X0102962Y0047360D03*
X0102962Y0047348D03*
X0102974Y0047337D03*
X0102985Y0047314D03*
X0102997Y0047291D03*
X0101433Y0052362D03*
X0096453Y0051293D03*
X0100766Y0059711D03*
X0100766Y0059723D03*
X0110495Y0060815D03*
X0110495Y0060827D03*
D272*
X0106108Y0061402D03*
X0100760Y0059734D03*
X0101427Y0052351D03*
X0102715Y0049729D03*
X0102704Y0049683D03*
X0102704Y0049671D03*
X0102692Y0049648D03*
X0102692Y0049637D03*
X0102692Y0049626D03*
X0102692Y0049614D03*
X0102692Y0049602D03*
X0102669Y0049522D03*
X0102669Y0049510D03*
X0102669Y0049499D03*
X0102669Y0049487D03*
X0102658Y0049430D03*
X0102658Y0049419D03*
X0102853Y0047590D03*
X0102865Y0047555D03*
X0102876Y0047533D03*
X0102899Y0047487D03*
X0102899Y0047475D03*
X0102911Y0047463D03*
X0102911Y0047452D03*
X0102934Y0047406D03*
X0108661Y0047130D03*
X0110167Y0045198D03*
X0110144Y0045175D03*
X0111869Y0048487D03*
X0111869Y0048498D03*
X0111869Y0048510D03*
X0108281Y0051385D03*
X0114204Y0056548D03*
D273*
X0108270Y0051396D03*
X0102681Y0049591D03*
X0102681Y0049580D03*
X0102681Y0049568D03*
X0102681Y0049556D03*
X0102681Y0049545D03*
X0102888Y0047509D03*
X0102888Y0047498D03*
X0102922Y0047429D03*
X0110156Y0045187D03*
D274*
X0110173Y0045209D03*
X0108666Y0047141D03*
X0108666Y0047153D03*
X0108298Y0051373D03*
X0111863Y0048476D03*
X0111863Y0048464D03*
X0111852Y0048441D03*
X0102882Y0047521D03*
X0102870Y0047544D03*
X0102859Y0047567D03*
X0102859Y0047578D03*
X0102847Y0047602D03*
X0102847Y0047613D03*
X0102836Y0047624D03*
X0102836Y0047636D03*
X0102824Y0047659D03*
X0102824Y0047670D03*
X0102813Y0047682D03*
X0102813Y0047694D03*
X0102801Y0047716D03*
X0102801Y0047728D03*
X0102790Y0047762D03*
X0102778Y0047797D03*
X0102767Y0047831D03*
X0102629Y0049108D03*
X0102629Y0049120D03*
X0102629Y0049131D03*
X0102629Y0049142D03*
X0102629Y0049154D03*
X0102640Y0049234D03*
X0102640Y0049246D03*
X0102640Y0049258D03*
X0102640Y0049269D03*
X0102640Y0049280D03*
X0102640Y0049292D03*
X0102640Y0049303D03*
X0102640Y0049315D03*
X0102652Y0049338D03*
X0102652Y0049349D03*
X0102652Y0049361D03*
X0102652Y0049373D03*
X0102652Y0049384D03*
X0102652Y0049395D03*
X0102652Y0049407D03*
X0102663Y0049441D03*
X0102663Y0049453D03*
X0102663Y0049465D03*
X0102663Y0049476D03*
X0102675Y0049534D03*
X0101421Y0052340D03*
X0096453Y0051305D03*
X0100766Y0059745D03*
X0106102Y0061413D03*
X0110495Y0060838D03*
D275*
X0110501Y0060849D03*
X0108304Y0051362D03*
X0108316Y0051351D03*
X0108672Y0047165D03*
X0110202Y0045233D03*
X0110190Y0045221D03*
X0111846Y0048406D03*
X0111846Y0048418D03*
X0111846Y0048430D03*
X0102830Y0047648D03*
X0102807Y0047705D03*
X0102796Y0047740D03*
X0102796Y0047751D03*
X0102773Y0047809D03*
X0102773Y0047820D03*
X0102761Y0047843D03*
X0102761Y0047855D03*
X0102761Y0047866D03*
X0102750Y0047877D03*
X0102750Y0047889D03*
X0102750Y0047901D03*
X0102750Y0047912D03*
X0102738Y0047923D03*
X0102738Y0047935D03*
X0102738Y0047946D03*
X0102727Y0047970D03*
X0102727Y0047981D03*
X0102727Y0047992D03*
X0102715Y0048016D03*
X0102715Y0048027D03*
X0102715Y0048038D03*
X0102692Y0048130D03*
X0102692Y0048142D03*
X0102692Y0048153D03*
X0102681Y0048188D03*
X0102681Y0048199D03*
X0102681Y0048211D03*
X0102669Y0048257D03*
X0102669Y0048269D03*
X0102669Y0048280D03*
X0102646Y0048418D03*
X0102646Y0048430D03*
X0102646Y0048441D03*
X0102646Y0048452D03*
X0102646Y0048464D03*
X0102635Y0048545D03*
X0102635Y0048556D03*
X0102635Y0048567D03*
X0102635Y0048579D03*
X0102635Y0048591D03*
X0102635Y0048602D03*
X0102635Y0048613D03*
X0102623Y0048705D03*
X0102623Y0048717D03*
X0102623Y0048728D03*
X0102623Y0048740D03*
X0102623Y0048752D03*
X0102623Y0048763D03*
X0102623Y0048774D03*
X0102623Y0048786D03*
X0102623Y0048798D03*
X0102623Y0048809D03*
X0102623Y0048820D03*
X0102623Y0048832D03*
X0102623Y0048844D03*
X0102623Y0048855D03*
X0102623Y0048866D03*
X0102623Y0048878D03*
X0102623Y0048890D03*
X0102623Y0048901D03*
X0102623Y0048912D03*
X0102623Y0048924D03*
X0102623Y0048935D03*
X0102623Y0048947D03*
X0102623Y0048959D03*
X0102623Y0048970D03*
X0102623Y0048981D03*
X0102623Y0048993D03*
X0102623Y0049005D03*
X0102623Y0049016D03*
X0102623Y0049027D03*
X0102623Y0049039D03*
X0102623Y0049051D03*
X0102623Y0049062D03*
X0102623Y0049073D03*
X0102623Y0049085D03*
X0102623Y0049096D03*
X0102635Y0049166D03*
X0102635Y0049177D03*
X0102635Y0049188D03*
X0102635Y0049200D03*
X0102635Y0049212D03*
X0102635Y0049223D03*
X0102646Y0049327D03*
X0101416Y0052328D03*
X0100760Y0059757D03*
X0100760Y0059769D03*
D276*
X0100754Y0059780D03*
X0101410Y0052316D03*
X0102629Y0048694D03*
X0102629Y0048683D03*
X0102629Y0048671D03*
X0102629Y0048659D03*
X0102629Y0048648D03*
X0102629Y0048637D03*
X0102629Y0048625D03*
X0102640Y0048533D03*
X0102640Y0048521D03*
X0102640Y0048510D03*
X0102640Y0048498D03*
X0102640Y0048487D03*
X0102640Y0048476D03*
X0102652Y0048406D03*
X0102652Y0048395D03*
X0102652Y0048384D03*
X0102663Y0048326D03*
X0102663Y0048315D03*
X0102663Y0048303D03*
X0102663Y0048291D03*
X0102675Y0048245D03*
X0102675Y0048234D03*
X0102675Y0048223D03*
X0102686Y0048177D03*
X0102686Y0048165D03*
X0102698Y0048119D03*
X0102698Y0048108D03*
X0102709Y0048062D03*
X0102709Y0048050D03*
X0102721Y0048004D03*
X0102732Y0047958D03*
X0108678Y0047176D03*
X0110230Y0045267D03*
X0110207Y0045244D03*
X0111840Y0048384D03*
X0111840Y0048395D03*
X0108333Y0051327D03*
X0110495Y0060861D03*
X0096453Y0051316D03*
D277*
X0110219Y0045255D03*
D278*
X0110236Y0045278D03*
X0110248Y0045290D03*
X0110259Y0045302D03*
X0108684Y0047187D03*
X0108684Y0047199D03*
X0111823Y0048326D03*
X0111823Y0048337D03*
X0111835Y0048349D03*
X0111835Y0048360D03*
X0111835Y0048372D03*
X0108362Y0051305D03*
X0108350Y0051316D03*
X0114204Y0056571D03*
X0110501Y0060873D03*
X0106108Y0061436D03*
X0106108Y0061448D03*
X0100749Y0059791D03*
X0101404Y0052305D03*
D279*
X0101393Y0052282D03*
X0096448Y0051327D03*
X0100749Y0059815D03*
X0100749Y0059826D03*
X0106108Y0061459D03*
X0110501Y0060895D03*
X0110501Y0060884D03*
X0108396Y0051259D03*
X0108408Y0051247D03*
X0108419Y0051235D03*
X0108695Y0047245D03*
X0108695Y0047234D03*
X0110294Y0045336D03*
X0110282Y0045324D03*
X0110271Y0045313D03*
X0111800Y0048245D03*
X0111812Y0048269D03*
X0111812Y0048280D03*
X0111812Y0048291D03*
D280*
X0111806Y0048257D03*
X0111794Y0048234D03*
X0111794Y0048223D03*
X0110322Y0045370D03*
X0110311Y0045359D03*
X0110299Y0045348D03*
X0108701Y0047256D03*
X0108436Y0051212D03*
X0108425Y0051224D03*
X0114209Y0056583D03*
X0110506Y0060907D03*
X0106102Y0061470D03*
X0101387Y0052270D03*
D281*
X0100749Y0059837D03*
X0108465Y0051178D03*
X0108477Y0051155D03*
X0111789Y0048211D03*
X0111789Y0048199D03*
X0110351Y0045405D03*
X0110328Y0045382D03*
D282*
X0110340Y0045394D03*
X0108707Y0047268D03*
X0108707Y0047280D03*
X0105659Y0045716D03*
X0108454Y0051190D03*
X0108442Y0051201D03*
X0101381Y0052259D03*
X0106108Y0061482D03*
D283*
X0106108Y0061494D03*
X0100737Y0059872D03*
X0101370Y0052236D03*
X0108500Y0051120D03*
X0108511Y0051098D03*
X0108523Y0051086D03*
X0108534Y0051063D03*
X0108718Y0047337D03*
X0108718Y0047326D03*
X0110397Y0045462D03*
X0110386Y0045451D03*
X0111754Y0048096D03*
X0111766Y0048119D03*
X0111766Y0048130D03*
D284*
X0111760Y0048108D03*
X0111748Y0048084D03*
X0111748Y0048073D03*
X0110414Y0045485D03*
X0110403Y0045474D03*
X0108724Y0047348D03*
X0108724Y0047360D03*
X0108724Y0047371D03*
X0108551Y0051028D03*
X0108551Y0051040D03*
X0114221Y0056606D03*
X0101364Y0052224D03*
D285*
X0100156Y0050201D03*
X0108528Y0051074D03*
X0108540Y0051052D03*
X0110426Y0045497D03*
X0110506Y0060941D03*
D286*
X0110512Y0060953D03*
X0106108Y0061505D03*
X0106108Y0061516D03*
X0100737Y0059895D03*
X0100737Y0059884D03*
X0101358Y0052213D03*
X0096448Y0051351D03*
X0108557Y0051017D03*
X0108569Y0051005D03*
X0108569Y0050994D03*
X0108580Y0050983D03*
X0108580Y0050971D03*
X0108592Y0050948D03*
X0108730Y0047395D03*
X0108730Y0047383D03*
X0110455Y0045531D03*
X0110443Y0045520D03*
X0110432Y0045509D03*
X0111731Y0048016D03*
X0111731Y0048027D03*
X0111743Y0048038D03*
X0111743Y0048050D03*
X0111743Y0048062D03*
D287*
X0111725Y0048004D03*
X0111725Y0047992D03*
X0110472Y0045555D03*
X0110460Y0045543D03*
X0108735Y0047406D03*
X0108735Y0047417D03*
X0108735Y0047429D03*
X0108632Y0050856D03*
X0108620Y0050879D03*
X0108620Y0050891D03*
X0108609Y0050913D03*
X0108609Y0050925D03*
X0108597Y0050937D03*
X0108586Y0050959D03*
X0101352Y0052202D03*
X0101341Y0052190D03*
X0100731Y0059906D03*
X0110506Y0060965D03*
D288*
X0110512Y0060976D03*
X0106108Y0061528D03*
X0100737Y0059918D03*
X0101335Y0052178D03*
X0096448Y0051362D03*
X0108615Y0050902D03*
X0108626Y0050867D03*
X0108649Y0050821D03*
X0108649Y0050810D03*
X0108649Y0050798D03*
X0108661Y0050787D03*
X0108661Y0050776D03*
X0108672Y0050741D03*
X0108741Y0050316D03*
X0108741Y0050304D03*
X0108741Y0050292D03*
X0108741Y0047463D03*
X0108741Y0047452D03*
X0108741Y0047441D03*
X0110501Y0045589D03*
X0110489Y0045577D03*
X0110478Y0045566D03*
X0111708Y0047935D03*
X0111708Y0047946D03*
X0111708Y0047958D03*
X0114227Y0056617D03*
D289*
X0108666Y0050764D03*
X0108666Y0050752D03*
X0108678Y0050730D03*
X0108678Y0050718D03*
X0108678Y0050706D03*
X0108689Y0050695D03*
X0108689Y0050684D03*
X0108689Y0050672D03*
X0108689Y0050660D03*
X0108701Y0050649D03*
X0108701Y0050637D03*
X0108701Y0050626D03*
X0108701Y0050615D03*
X0108712Y0050591D03*
X0108712Y0050580D03*
X0108712Y0050569D03*
X0108712Y0050557D03*
X0108712Y0050545D03*
X0108724Y0050523D03*
X0108724Y0050511D03*
X0108724Y0050499D03*
X0108724Y0050488D03*
X0108724Y0050477D03*
X0108724Y0050465D03*
X0108735Y0050442D03*
X0108735Y0050430D03*
X0108735Y0050419D03*
X0108735Y0050408D03*
X0108735Y0050396D03*
X0108735Y0050384D03*
X0108735Y0050373D03*
X0108735Y0050362D03*
X0108735Y0050350D03*
X0108735Y0050338D03*
X0108735Y0050327D03*
X0108747Y0047509D03*
X0108747Y0047498D03*
X0108747Y0047487D03*
X0108747Y0047475D03*
X0110529Y0045635D03*
X0110541Y0045646D03*
X0110518Y0045612D03*
X0110506Y0045601D03*
X0111691Y0047889D03*
X0111691Y0047901D03*
X0111702Y0047912D03*
X0111702Y0047923D03*
X0101329Y0052167D03*
X0100731Y0059930D03*
D290*
X0108638Y0050845D03*
X0108638Y0050833D03*
X0111720Y0047981D03*
X0111720Y0047970D03*
X0110524Y0045623D03*
D291*
X0108902Y0045658D03*
X0101140Y0051776D03*
X0096436Y0051454D03*
X0100691Y0060205D03*
X0110547Y0061217D03*
D292*
X0106108Y0061540D03*
X0106108Y0061551D03*
X0100726Y0059941D03*
X0110547Y0045658D03*
D293*
X0105665Y0045670D03*
X0106136Y0061988D03*
D294*
X0106113Y0061735D03*
X0110541Y0061206D03*
X0101145Y0051787D03*
X0100352Y0050292D03*
X0108896Y0045670D03*
D295*
X0108753Y0047521D03*
X0108753Y0047533D03*
X0108753Y0047544D03*
X0108753Y0047555D03*
X0108730Y0050453D03*
X0108718Y0050534D03*
X0108707Y0050603D03*
X0106177Y0052397D03*
X0101324Y0052155D03*
X0110512Y0060987D03*
X0114227Y0056629D03*
X0111685Y0047877D03*
X0111685Y0047866D03*
X0111674Y0047855D03*
X0111674Y0047843D03*
X0110570Y0045681D03*
X0110558Y0045670D03*
D296*
X0105659Y0045681D03*
X0100553Y0050523D03*
X0100553Y0050534D03*
X0100565Y0050545D03*
X0100921Y0051281D03*
X0100933Y0051305D03*
X0100933Y0051316D03*
X0100668Y0060355D03*
X0106119Y0061862D03*
X0110558Y0061355D03*
X0114307Y0056778D03*
D297*
X0114273Y0056721D03*
X0106108Y0061723D03*
X0100691Y0060194D03*
X0100691Y0060183D03*
X0101163Y0051822D03*
X0101151Y0051799D03*
X0105659Y0045692D03*
X0108891Y0045681D03*
D298*
X0108885Y0045692D03*
X0108885Y0045704D03*
X0100340Y0050281D03*
X0101157Y0051810D03*
X0101168Y0051834D03*
X0110541Y0061195D03*
D299*
X0110518Y0060999D03*
X0100731Y0059952D03*
X0101318Y0052144D03*
X0096442Y0051373D03*
X0108758Y0047624D03*
X0108758Y0047613D03*
X0108758Y0047602D03*
X0108758Y0047590D03*
X0108758Y0047578D03*
X0108758Y0047567D03*
X0110610Y0045738D03*
X0110598Y0045716D03*
X0110575Y0045692D03*
X0111656Y0047785D03*
X0111656Y0047797D03*
X0111668Y0047809D03*
X0111668Y0047820D03*
X0111668Y0047831D03*
D300*
X0111513Y0047395D03*
X0111501Y0047371D03*
X0111501Y0047360D03*
X0111490Y0047348D03*
X0111490Y0047337D03*
X0111478Y0047314D03*
X0110903Y0046176D03*
X0110892Y0046152D03*
X0110880Y0046141D03*
X0110869Y0046118D03*
X0110857Y0046106D03*
X0110857Y0046095D03*
X0110846Y0046084D03*
X0110834Y0046060D03*
X0110823Y0046049D03*
X0108799Y0046141D03*
X0108799Y0046152D03*
X0108799Y0046164D03*
X0105659Y0045704D03*
X0101278Y0052063D03*
X0100714Y0060033D03*
X0106108Y0061609D03*
X0110524Y0061068D03*
X0114250Y0056663D03*
D301*
X0110587Y0045704D03*
D302*
X0108879Y0045716D03*
X0101174Y0051845D03*
X0096436Y0051442D03*
X0100691Y0060171D03*
X0106108Y0061712D03*
X0110535Y0061183D03*
D303*
X0114267Y0056709D03*
X0106182Y0052409D03*
X0108873Y0045738D03*
X0108873Y0045727D03*
X0101180Y0051856D03*
X0100697Y0060159D03*
D304*
X0100726Y0059964D03*
X0106108Y0061562D03*
X0110512Y0061010D03*
X0101312Y0052133D03*
X0100197Y0050212D03*
X0108764Y0047694D03*
X0108764Y0047682D03*
X0108764Y0047670D03*
X0108764Y0047659D03*
X0108764Y0047648D03*
X0108764Y0047636D03*
X0110627Y0045762D03*
X0110639Y0045773D03*
X0110616Y0045750D03*
X0110604Y0045727D03*
X0111628Y0047705D03*
X0111639Y0047740D03*
X0111639Y0047751D03*
X0111651Y0047762D03*
X0111651Y0047774D03*
D305*
X0112042Y0049327D03*
X0108488Y0046796D03*
X0105648Y0045750D03*
X0103716Y0046566D03*
X0104141Y0051615D03*
X0106165Y0052362D03*
X0107833Y0051684D03*
X0114123Y0056341D03*
X0110443Y0060459D03*
X0110443Y0060470D03*
X0106108Y0061080D03*
X0106108Y0061091D03*
X0100852Y0059240D03*
X0100852Y0059228D03*
D306*
X0106108Y0061701D03*
X0110535Y0061171D03*
X0101186Y0051880D03*
X0101186Y0051868D03*
X0100323Y0050270D03*
X0108868Y0045762D03*
X0108868Y0045750D03*
D307*
X0108862Y0045773D03*
X0108862Y0045784D03*
X0101191Y0051891D03*
X0100697Y0060137D03*
X0100697Y0060148D03*
X0106113Y0061689D03*
D308*
X0110518Y0061022D03*
X0111633Y0047728D03*
X0111633Y0047716D03*
X0110656Y0045808D03*
X0110656Y0045796D03*
X0110644Y0045784D03*
D309*
X0112128Y0050120D03*
X0112128Y0050131D03*
X0113979Y0055905D03*
X0113979Y0055916D03*
X0110334Y0059757D03*
X0110334Y0059769D03*
X0106079Y0060470D03*
X0101042Y0058124D03*
X0101042Y0058112D03*
X0101042Y0058101D03*
X0101824Y0052984D03*
X0096557Y0050891D03*
X0104170Y0046394D03*
X0105642Y0045796D03*
D310*
X0108856Y0045796D03*
X0108856Y0045808D03*
X0101197Y0051902D03*
X0096436Y0051431D03*
X0110535Y0061148D03*
X0110535Y0061160D03*
X0114261Y0056698D03*
D311*
X0106062Y0060274D03*
X0106062Y0060286D03*
X0096586Y0050821D03*
X0105648Y0045808D03*
X0108212Y0046520D03*
D312*
X0101697Y0055145D03*
X0101697Y0055157D03*
X0105964Y0059412D03*
X0105964Y0059423D03*
X0105964Y0059435D03*
X0105964Y0059446D03*
X0110069Y0058124D03*
X0110069Y0058112D03*
X0110069Y0058101D03*
X0110069Y0058090D03*
X0100421Y0045819D03*
D313*
X0096614Y0050752D03*
X0101226Y0057043D03*
X0101226Y0057055D03*
X0101226Y0057066D03*
X0101226Y0057077D03*
X0101214Y0057112D03*
X0101214Y0057123D03*
X0106033Y0060056D03*
X0106033Y0060067D03*
X0110253Y0059262D03*
X0110253Y0059251D03*
X0110253Y0059240D03*
X0113887Y0055617D03*
X0112139Y0050430D03*
X0112139Y0050419D03*
X0105642Y0045819D03*
D314*
X0108850Y0045819D03*
X0108850Y0045830D03*
X0100306Y0050258D03*
X0101203Y0051914D03*
D315*
X0101306Y0052121D03*
X0100720Y0059976D03*
X0108770Y0047831D03*
X0108770Y0047820D03*
X0108770Y0047809D03*
X0108770Y0047797D03*
X0108770Y0047785D03*
X0108770Y0047774D03*
X0108770Y0047762D03*
X0108770Y0047751D03*
X0108770Y0047740D03*
X0108770Y0047728D03*
X0108770Y0047716D03*
X0108770Y0047705D03*
X0110667Y0045819D03*
X0110679Y0045830D03*
X0111610Y0047659D03*
X0111622Y0047682D03*
X0111622Y0047694D03*
X0114232Y0056641D03*
D316*
X0106010Y0059849D03*
X0106010Y0059860D03*
X0101364Y0056399D03*
X0101364Y0056387D03*
X0101364Y0056376D03*
X0105642Y0045830D03*
D317*
X0108845Y0045842D03*
X0108845Y0045853D03*
X0108845Y0045865D03*
X0101220Y0051937D03*
X0100703Y0060113D03*
X0106108Y0061666D03*
X0110535Y0061137D03*
D318*
X0106108Y0061574D03*
X0106108Y0061585D03*
X0100726Y0059987D03*
X0101301Y0052109D03*
X0108776Y0048671D03*
X0108776Y0048659D03*
X0108776Y0048648D03*
X0108776Y0048637D03*
X0108776Y0048625D03*
X0108776Y0048613D03*
X0108776Y0048602D03*
X0108776Y0048591D03*
X0108776Y0048579D03*
X0108776Y0048567D03*
X0108776Y0048556D03*
X0108776Y0048545D03*
X0108776Y0048533D03*
X0108776Y0048521D03*
X0108776Y0048510D03*
X0108776Y0048498D03*
X0108776Y0048487D03*
X0108776Y0048476D03*
X0108776Y0048464D03*
X0108776Y0048452D03*
X0108776Y0048441D03*
X0108776Y0048430D03*
X0108776Y0048418D03*
X0108776Y0048406D03*
X0108776Y0048395D03*
X0108776Y0048384D03*
X0108776Y0048372D03*
X0108776Y0048360D03*
X0108776Y0048349D03*
X0108776Y0048337D03*
X0108776Y0048326D03*
X0108776Y0048315D03*
X0108776Y0048303D03*
X0108776Y0048291D03*
X0108776Y0048280D03*
X0108776Y0048269D03*
X0108776Y0048257D03*
X0108776Y0048245D03*
X0108776Y0048234D03*
X0108776Y0048223D03*
X0108776Y0048211D03*
X0108776Y0048199D03*
X0108776Y0048188D03*
X0108776Y0048177D03*
X0108776Y0048165D03*
X0108776Y0048153D03*
X0108776Y0048142D03*
X0108776Y0048130D03*
X0108776Y0048119D03*
X0108776Y0048108D03*
X0108776Y0048096D03*
X0108776Y0048084D03*
X0108776Y0048073D03*
X0108776Y0048062D03*
X0108776Y0048050D03*
X0108776Y0048038D03*
X0108776Y0048027D03*
X0108776Y0048016D03*
X0108776Y0048004D03*
X0108776Y0047992D03*
X0108776Y0047981D03*
X0108776Y0047970D03*
X0108776Y0047958D03*
X0108776Y0047946D03*
X0108776Y0047935D03*
X0108776Y0047923D03*
X0108776Y0047912D03*
X0108776Y0047901D03*
X0108776Y0047889D03*
X0108776Y0047877D03*
X0108776Y0047866D03*
X0108776Y0047855D03*
X0108776Y0047843D03*
X0108776Y0046233D03*
X0110685Y0045842D03*
X0110696Y0045853D03*
X0110708Y0045877D03*
X0111582Y0047578D03*
X0111593Y0047602D03*
X0111593Y0047613D03*
X0111605Y0047636D03*
X0111605Y0047648D03*
X0111616Y0047670D03*
D319*
X0112134Y0050856D03*
X0112134Y0050867D03*
X0113606Y0054823D03*
X0113617Y0054846D03*
X0113617Y0054858D03*
X0109845Y0056882D03*
X0109857Y0056940D03*
X0109868Y0056997D03*
X0109880Y0057043D03*
X0109880Y0057055D03*
X0109880Y0057066D03*
X0109891Y0057101D03*
X0109891Y0057112D03*
X0109891Y0057123D03*
X0109903Y0057158D03*
X0109903Y0057170D03*
X0109903Y0057181D03*
X0109914Y0057204D03*
X0109914Y0057216D03*
X0109914Y0057227D03*
X0109914Y0057238D03*
X0109914Y0057250D03*
X0109926Y0057262D03*
X0109926Y0057273D03*
X0109926Y0057284D03*
X0109926Y0057296D03*
X0109926Y0057308D03*
X0109937Y0057342D03*
X0109937Y0057353D03*
X0109949Y0057411D03*
X0105935Y0059148D03*
X0105935Y0059159D03*
X0105935Y0059170D03*
X0101807Y0054835D03*
X0101807Y0054823D03*
X0101818Y0054812D03*
X0101818Y0054801D03*
X0096735Y0050523D03*
X0100197Y0046049D03*
X0100208Y0046037D03*
X0105636Y0045865D03*
D320*
X0108781Y0046221D03*
X0110702Y0045865D03*
X0110713Y0045888D03*
X0110725Y0045899D03*
X0110736Y0045911D03*
X0110736Y0045923D03*
X0110748Y0045934D03*
X0111564Y0047533D03*
X0111576Y0047555D03*
X0111576Y0047567D03*
X0111587Y0047590D03*
X0111599Y0047624D03*
X0110518Y0061034D03*
X0100720Y0059998D03*
X0101295Y0052098D03*
X0096442Y0051385D03*
D321*
X0100363Y0045877D03*
X0102042Y0053248D03*
D322*
X0101226Y0051960D03*
X0101226Y0051948D03*
X0100283Y0050246D03*
X0096442Y0051420D03*
X0100708Y0060102D03*
X0110529Y0061126D03*
X0114255Y0056687D03*
X0108839Y0045911D03*
X0108839Y0045899D03*
X0108839Y0045888D03*
X0108839Y0045877D03*
D323*
X0105630Y0045923D03*
X0099547Y0046796D03*
X0096913Y0050304D03*
X0105745Y0057250D03*
X0105745Y0057262D03*
X0105745Y0057273D03*
X0105745Y0057284D03*
X0105745Y0057296D03*
X0105745Y0057308D03*
X0112990Y0053581D03*
X0113002Y0053593D03*
X0112105Y0051281D03*
X0112105Y0051270D03*
D324*
X0108833Y0045945D03*
X0108833Y0045934D03*
X0108833Y0045923D03*
X0101232Y0051971D03*
X0100703Y0060091D03*
D325*
X0101766Y0054950D03*
X0101766Y0054938D03*
X0101778Y0054916D03*
X0102054Y0053259D03*
X0105952Y0059274D03*
X0105952Y0059285D03*
X0105952Y0059297D03*
X0105952Y0059309D03*
X0110023Y0057825D03*
X0110012Y0057779D03*
X0110012Y0057767D03*
X0110012Y0057756D03*
X0110012Y0057745D03*
X0110012Y0057733D03*
X0110000Y0057721D03*
X0110000Y0057710D03*
X0110000Y0057698D03*
X0110000Y0057687D03*
X0109989Y0057641D03*
X0109989Y0057630D03*
X0113657Y0054962D03*
X0113657Y0054950D03*
X0113646Y0054927D03*
X0112139Y0050821D03*
X0112139Y0050810D03*
X0100306Y0045934D03*
X0100294Y0045945D03*
X0100283Y0045957D03*
X0100271Y0045969D03*
X0096718Y0050545D03*
D326*
X0100231Y0050223D03*
X0108787Y0046210D03*
X0108787Y0046198D03*
X0110754Y0045945D03*
X0110788Y0045991D03*
X0111570Y0047544D03*
X0114238Y0056652D03*
X0106108Y0061597D03*
D327*
X0110529Y0061114D03*
X0110529Y0061102D03*
X0100708Y0060079D03*
X0101237Y0051983D03*
X0108827Y0045980D03*
X0108827Y0045969D03*
X0108827Y0045957D03*
D328*
X0110765Y0045957D03*
X0110765Y0045969D03*
X0110777Y0045980D03*
X0111547Y0047487D03*
X0111559Y0047509D03*
X0111559Y0047521D03*
X0110524Y0061045D03*
X0100714Y0060010D03*
X0101289Y0052087D03*
D329*
X0099242Y0047187D03*
X0099254Y0047176D03*
X0105625Y0045969D03*
X0112065Y0051534D03*
X0105648Y0055927D03*
X0105648Y0055939D03*
X0105648Y0055951D03*
X0105648Y0055962D03*
X0105648Y0055973D03*
X0105648Y0055985D03*
D330*
X0105625Y0045980D03*
X0099173Y0047280D03*
D331*
X0108822Y0046026D03*
X0108822Y0046015D03*
X0108822Y0046003D03*
X0108822Y0045991D03*
X0111053Y0046428D03*
X0111064Y0046452D03*
X0111110Y0046532D03*
X0111122Y0046555D03*
X0111133Y0046578D03*
X0111145Y0046601D03*
X0111156Y0046612D03*
X0111156Y0046624D03*
X0111168Y0046635D03*
X0111168Y0046647D03*
X0111179Y0046659D03*
X0111179Y0046670D03*
X0111191Y0046681D03*
X0111191Y0046693D03*
X0111202Y0046705D03*
X0111202Y0046716D03*
X0111214Y0046727D03*
X0111214Y0046739D03*
X0111237Y0046773D03*
X0111237Y0046785D03*
X0111248Y0046796D03*
X0111248Y0046808D03*
X0111260Y0046820D03*
X0111260Y0046831D03*
X0111271Y0046842D03*
X0111271Y0046854D03*
X0111283Y0046866D03*
X0111283Y0046877D03*
X0111294Y0046888D03*
X0111294Y0046900D03*
X0111317Y0046946D03*
X0111329Y0046969D03*
X0114250Y0056675D03*
X0106108Y0061643D03*
D332*
X0110518Y0061056D03*
X0100720Y0060021D03*
X0101283Y0052075D03*
X0096442Y0051396D03*
X0108793Y0046187D03*
X0108793Y0046176D03*
X0110794Y0046003D03*
X0110805Y0046015D03*
X0110805Y0046026D03*
X0110817Y0046037D03*
X0110840Y0046072D03*
X0111507Y0047383D03*
X0111518Y0047406D03*
X0111518Y0047417D03*
X0111530Y0047429D03*
X0111530Y0047441D03*
X0111530Y0047452D03*
X0111541Y0047463D03*
X0111541Y0047475D03*
X0111553Y0047498D03*
D333*
X0112019Y0051799D03*
X0105613Y0055030D03*
X0105613Y0055042D03*
X0105613Y0046026D03*
X0098978Y0047567D03*
D334*
X0098926Y0047636D03*
X0098914Y0047648D03*
X0102537Y0053627D03*
X0105619Y0054904D03*
X0105619Y0054916D03*
X0105619Y0054927D03*
X0105619Y0046037D03*
D335*
X0108816Y0046037D03*
X0108816Y0046049D03*
X0108816Y0046060D03*
X0111001Y0046337D03*
X0111012Y0046359D03*
X0111024Y0046383D03*
X0111035Y0046394D03*
X0111035Y0046405D03*
X0111047Y0046417D03*
X0111070Y0046463D03*
X0111081Y0046474D03*
X0111081Y0046486D03*
X0111093Y0046498D03*
X0111104Y0046520D03*
X0111116Y0046544D03*
X0111127Y0046566D03*
X0111300Y0046912D03*
X0111311Y0046934D03*
X0111323Y0046958D03*
X0111334Y0046980D03*
X0111334Y0046992D03*
X0111357Y0047027D03*
X0111357Y0047038D03*
X0111369Y0047049D03*
X0111369Y0047061D03*
X0111380Y0047084D03*
X0111392Y0047107D03*
X0101249Y0052006D03*
X0096442Y0051408D03*
X0106113Y0061631D03*
X0110529Y0061091D03*
D336*
X0105619Y0054835D03*
X0105619Y0054823D03*
X0105619Y0054812D03*
X0102560Y0053639D03*
X0098880Y0047705D03*
X0098891Y0047694D03*
X0105619Y0046049D03*
X0112001Y0051880D03*
D337*
X0105625Y0054709D03*
X0105625Y0054720D03*
X0105613Y0046060D03*
D338*
X0105613Y0046072D03*
X0098805Y0047820D03*
X0111984Y0051971D03*
D339*
X0111455Y0047256D03*
X0111444Y0047234D03*
X0111432Y0047199D03*
X0111421Y0047176D03*
X0111409Y0047153D03*
X0111409Y0047141D03*
X0111398Y0047130D03*
X0111398Y0047119D03*
X0111386Y0047095D03*
X0111375Y0047073D03*
X0111018Y0046371D03*
X0111007Y0046348D03*
X0110995Y0046325D03*
X0110984Y0046313D03*
X0110984Y0046302D03*
X0110972Y0046291D03*
X0110972Y0046279D03*
X0110961Y0046267D03*
X0110949Y0046245D03*
X0110938Y0046233D03*
X0110926Y0046210D03*
X0108810Y0046095D03*
X0108810Y0046084D03*
X0108810Y0046072D03*
X0100254Y0050235D03*
X0101255Y0052017D03*
X0106108Y0061620D03*
X0110524Y0061080D03*
D340*
X0109834Y0056824D03*
X0109822Y0056767D03*
X0109811Y0056721D03*
X0109811Y0056709D03*
X0109811Y0056698D03*
X0109799Y0056675D03*
X0109799Y0056663D03*
X0109799Y0056652D03*
X0109799Y0056641D03*
X0109788Y0056617D03*
X0109788Y0056606D03*
X0109788Y0056595D03*
X0109788Y0056583D03*
X0109776Y0056571D03*
X0109776Y0056560D03*
X0109776Y0056548D03*
X0109776Y0056537D03*
X0109776Y0056526D03*
X0109765Y0056514D03*
X0109765Y0056502D03*
X0109765Y0056491D03*
X0109765Y0056480D03*
X0109753Y0056468D03*
X0109753Y0056456D03*
X0109753Y0056445D03*
X0109753Y0056434D03*
X0109742Y0056410D03*
X0109742Y0056399D03*
X0109742Y0056387D03*
X0109742Y0056376D03*
X0109730Y0056353D03*
X0109730Y0056341D03*
X0109730Y0056330D03*
X0109719Y0056307D03*
X0109719Y0056295D03*
X0109719Y0056284D03*
X0109719Y0056273D03*
X0109707Y0056249D03*
X0109707Y0056238D03*
X0109707Y0056227D03*
X0109696Y0056192D03*
X0109696Y0056180D03*
X0109684Y0056146D03*
X0109684Y0056134D03*
X0109684Y0056123D03*
X0109673Y0056088D03*
X0109673Y0056077D03*
X0109661Y0056031D03*
X0109650Y0055985D03*
X0109638Y0055939D03*
X0112134Y0050891D03*
X0112134Y0050879D03*
X0113583Y0054755D03*
X0113583Y0054766D03*
X0113594Y0054789D03*
X0105924Y0059044D03*
X0105924Y0059055D03*
X0105924Y0059067D03*
X0105924Y0059078D03*
X0105924Y0059090D03*
X0101830Y0054766D03*
X0101841Y0054743D03*
X0101841Y0054731D03*
X0096747Y0050499D03*
X0100128Y0046118D03*
X0100139Y0046106D03*
X0100151Y0046095D03*
X0100162Y0046084D03*
D341*
X0098759Y0047901D03*
X0098748Y0047912D03*
X0105613Y0046084D03*
D342*
X0105613Y0046095D03*
X0102658Y0053685D03*
X0098713Y0047970D03*
D343*
X0098690Y0048016D03*
X0105613Y0046106D03*
X0106108Y0052052D03*
X0111950Y0052098D03*
D344*
X0111938Y0052133D03*
X0106108Y0052041D03*
X0105613Y0046118D03*
D345*
X0100116Y0046130D03*
X0109523Y0055467D03*
X0109523Y0055479D03*
X0109523Y0055491D03*
X0109558Y0055594D03*
X0109558Y0055605D03*
X0109558Y0055617D03*
X0109558Y0055628D03*
X0113548Y0054685D03*
X0113548Y0054674D03*
D346*
X0111927Y0052167D03*
X0105613Y0046130D03*
X0098621Y0048130D03*
D347*
X0101260Y0052029D03*
X0111449Y0047245D03*
X0110955Y0046256D03*
X0110920Y0046198D03*
X0110874Y0046130D03*
D348*
X0107971Y0046405D03*
X0112134Y0050913D03*
X0112134Y0050925D03*
X0113560Y0054697D03*
X0113560Y0054709D03*
X0109581Y0055698D03*
X0109581Y0055709D03*
X0109592Y0055744D03*
X0109569Y0055663D03*
X0109569Y0055652D03*
X0109546Y0055583D03*
X0109546Y0055571D03*
X0109546Y0055559D03*
X0109546Y0055548D03*
X0109535Y0055537D03*
X0109535Y0055525D03*
X0109535Y0055513D03*
X0109512Y0055433D03*
X0109500Y0055387D03*
X0109201Y0053512D03*
X0105924Y0058998D03*
X0105924Y0059009D03*
X0105924Y0059021D03*
X0105924Y0059033D03*
X0101853Y0054709D03*
X0101864Y0054685D03*
X0101864Y0054674D03*
X0102094Y0053294D03*
X0096758Y0050488D03*
X0100093Y0046152D03*
X0100105Y0046141D03*
D349*
X0098587Y0048188D03*
X0105613Y0046141D03*
D350*
X0105602Y0046164D03*
X0098529Y0048303D03*
D351*
X0098506Y0048349D03*
X0105602Y0046176D03*
D352*
X0105602Y0046198D03*
X0111869Y0052362D03*
X0098449Y0048476D03*
X0098449Y0048464D03*
D353*
X0105602Y0046210D03*
D354*
X0105602Y0046221D03*
X0106085Y0051948D03*
X0098403Y0048567D03*
D355*
X0098380Y0048625D03*
X0105602Y0046233D03*
X0106085Y0051937D03*
X0111835Y0052443D03*
D356*
X0106338Y0046245D03*
D357*
X0106326Y0046256D03*
X0111398Y0053283D03*
D358*
X0111386Y0053294D03*
X0106315Y0046267D03*
D359*
X0099984Y0046279D03*
X0099972Y0046291D03*
X0099961Y0046302D03*
X0105895Y0058756D03*
X0105895Y0058768D03*
X0105895Y0058780D03*
X0105895Y0058791D03*
X0109379Y0054962D03*
X0109379Y0054950D03*
X0109368Y0054927D03*
X0109368Y0054916D03*
X0109368Y0054904D03*
X0112128Y0050983D03*
X0113473Y0054502D03*
D360*
X0106309Y0046279D03*
D361*
X0106286Y0046302D03*
D362*
X0099949Y0046313D03*
X0099938Y0046325D03*
X0099926Y0046337D03*
X0096787Y0050442D03*
X0105883Y0058641D03*
X0105883Y0058653D03*
X0105883Y0058665D03*
X0105883Y0058676D03*
X0105883Y0058687D03*
X0109333Y0054801D03*
X0109322Y0054777D03*
X0109322Y0054766D03*
X0109322Y0054755D03*
X0109310Y0054743D03*
X0109310Y0054731D03*
X0109310Y0054720D03*
X0109299Y0054697D03*
X0112128Y0051005D03*
X0113416Y0054363D03*
X0113416Y0054375D03*
X0113427Y0054387D03*
X0113427Y0054398D03*
X0113439Y0054421D03*
D363*
X0106280Y0046313D03*
D364*
X0106269Y0046325D03*
D365*
X0106257Y0046337D03*
D366*
X0106240Y0046359D03*
D367*
X0104216Y0046383D03*
X0096580Y0050845D03*
X0101099Y0057779D03*
X0101099Y0057791D03*
X0101099Y0057802D03*
X0106067Y0060344D03*
X0106067Y0060355D03*
X0113956Y0055824D03*
D368*
X0113226Y0053984D03*
X0113215Y0053961D03*
X0112122Y0051120D03*
X0107879Y0046383D03*
X0102175Y0053374D03*
X0105832Y0058135D03*
X0105832Y0058147D03*
X0105832Y0058159D03*
X0105832Y0058170D03*
X0105832Y0058181D03*
X0099760Y0046532D03*
X0099771Y0046520D03*
D369*
X0099857Y0046417D03*
X0099869Y0046405D03*
X0102157Y0053352D03*
X0105860Y0058423D03*
X0105860Y0058434D03*
X0105860Y0058446D03*
X0105860Y0058458D03*
X0105860Y0058469D03*
X0113347Y0054226D03*
X0113347Y0054214D03*
X0113335Y0054202D03*
X0113335Y0054191D03*
D370*
X0114020Y0056008D03*
X0110363Y0059930D03*
X0106085Y0060585D03*
X0106085Y0060596D03*
X0106085Y0060608D03*
X0101002Y0058377D03*
X0101002Y0058366D03*
X0101002Y0058354D03*
X0101784Y0052926D03*
X0104118Y0046405D03*
X0108304Y0046590D03*
X0112122Y0049994D03*
X0112122Y0050005D03*
D371*
X0104078Y0046417D03*
X0106090Y0060654D03*
X0106090Y0060666D03*
D372*
X0100708Y0060067D03*
X0100708Y0060056D03*
X0111346Y0047015D03*
X0111346Y0047003D03*
X0111139Y0046590D03*
X0111058Y0046440D03*
D373*
X0108109Y0046463D03*
X0112145Y0050569D03*
X0109362Y0053398D03*
X0113824Y0055421D03*
X0113824Y0055433D03*
X0110202Y0058895D03*
X0110202Y0058906D03*
X0110202Y0058917D03*
X0110202Y0058929D03*
X0106016Y0059837D03*
X0101393Y0056273D03*
X0101393Y0056261D03*
X0101393Y0056249D03*
X0101404Y0056227D03*
X0101404Y0056215D03*
X0101404Y0056203D03*
X0101416Y0056180D03*
X0101416Y0056169D03*
X0101416Y0056158D03*
X0101427Y0056123D03*
X0096643Y0050684D03*
D374*
X0101312Y0056617D03*
X0101312Y0056629D03*
X0101312Y0056641D03*
X0101301Y0056663D03*
X0101301Y0056675D03*
X0101301Y0056687D03*
X0101301Y0056698D03*
X0106027Y0059941D03*
X0110225Y0059090D03*
X0110225Y0059078D03*
X0110225Y0059067D03*
X0110225Y0059055D03*
X0112145Y0050511D03*
X0108132Y0046474D03*
D375*
X0112122Y0051086D03*
X0112122Y0051098D03*
X0113272Y0054065D03*
X0113272Y0054076D03*
X0113284Y0054087D03*
X0105843Y0058251D03*
X0105843Y0058262D03*
X0105843Y0058273D03*
X0105843Y0058285D03*
X0105843Y0058296D03*
X0099794Y0046498D03*
X0099806Y0046486D03*
D376*
X0103888Y0046486D03*
X0108419Y0046705D03*
X0101680Y0052777D03*
X0100898Y0058963D03*
X0100898Y0058975D03*
X0096505Y0051074D03*
X0110420Y0060286D03*
X0110420Y0060298D03*
D377*
X0110265Y0059331D03*
X0110265Y0059320D03*
X0110265Y0059309D03*
X0106044Y0060113D03*
X0106044Y0060125D03*
X0106044Y0060137D03*
X0101191Y0057250D03*
X0101191Y0057238D03*
X0101191Y0057227D03*
X0101203Y0057216D03*
X0101203Y0057204D03*
X0101203Y0057192D03*
X0101203Y0057181D03*
X0108172Y0046498D03*
X0112139Y0050384D03*
X0112139Y0050396D03*
X0112139Y0050408D03*
X0113899Y0055652D03*
D378*
X0113922Y0055720D03*
X0113922Y0055732D03*
X0110288Y0059446D03*
X0110288Y0059458D03*
X0110288Y0059470D03*
X0112139Y0050338D03*
X0112139Y0050327D03*
X0108195Y0046509D03*
X0101145Y0057491D03*
X0101145Y0057503D03*
X0101145Y0057515D03*
X0096591Y0050798D03*
D379*
X0101243Y0051995D03*
X0111306Y0046923D03*
X0111225Y0046762D03*
X0111225Y0046751D03*
X0111099Y0046509D03*
D380*
X0108229Y0046532D03*
X0101858Y0053030D03*
X0101088Y0057825D03*
X0101088Y0057837D03*
X0101088Y0057848D03*
X0110311Y0059596D03*
X0110311Y0059608D03*
X0110311Y0059619D03*
D381*
X0106067Y0060378D03*
X0106067Y0060390D03*
X0113968Y0055859D03*
X0108241Y0046544D03*
D382*
X0108500Y0046808D03*
X0112030Y0049269D03*
X0112030Y0049280D03*
X0112030Y0049292D03*
X0106108Y0061102D03*
X0106108Y0061114D03*
X0100852Y0059262D03*
X0101600Y0052650D03*
X0103693Y0046578D03*
D383*
X0108287Y0046578D03*
X0114002Y0055962D03*
X0114002Y0055973D03*
X0110357Y0059860D03*
X0110357Y0059872D03*
X0110357Y0059884D03*
X0106079Y0060527D03*
X0106079Y0060539D03*
X0106079Y0060551D03*
X0101019Y0058273D03*
X0101019Y0058262D03*
X0101019Y0058251D03*
X0096545Y0050925D03*
D384*
X0099691Y0046612D03*
X0099702Y0046601D03*
X0105809Y0057894D03*
X0105809Y0057905D03*
X0105809Y0057917D03*
X0105809Y0057928D03*
X0105809Y0057940D03*
X0113157Y0053858D03*
X0113146Y0053834D03*
D385*
X0114135Y0056376D03*
X0110455Y0060516D03*
X0110455Y0060527D03*
X0106108Y0061126D03*
X0106108Y0061137D03*
X0100841Y0059309D03*
X0100841Y0059297D03*
X0104049Y0051569D03*
X0103658Y0046601D03*
X0108511Y0046831D03*
X0112019Y0049212D03*
X0112019Y0049223D03*
X0112019Y0049234D03*
D386*
X0103641Y0046612D03*
D387*
X0106165Y0052340D03*
X0108339Y0046624D03*
X0100967Y0058573D03*
X0100967Y0058584D03*
X0100967Y0058595D03*
X0096528Y0050983D03*
D388*
X0096528Y0050994D03*
X0101738Y0052869D03*
X0100956Y0058630D03*
X0100956Y0058641D03*
X0100956Y0058653D03*
X0106096Y0060734D03*
X0106096Y0060746D03*
X0114043Y0056100D03*
X0108350Y0046635D03*
D389*
X0112111Y0051190D03*
X0112111Y0051201D03*
X0113100Y0053754D03*
X0099668Y0046647D03*
X0099656Y0046659D03*
D390*
X0103583Y0046647D03*
X0101571Y0052604D03*
X0096476Y0051190D03*
D391*
X0101565Y0052592D03*
X0103946Y0051512D03*
X0103969Y0051523D03*
X0103566Y0046659D03*
X0108534Y0046866D03*
X0112007Y0049131D03*
X0112007Y0049142D03*
X0114146Y0056399D03*
X0106108Y0061183D03*
X0100829Y0059377D03*
D392*
X0100933Y0058780D03*
X0100933Y0058768D03*
X0100933Y0058756D03*
X0101715Y0052834D03*
X0107626Y0051753D03*
X0108373Y0046659D03*
X0112099Y0049763D03*
X0112099Y0049775D03*
X0106096Y0060792D03*
X0106096Y0060803D03*
D393*
X0107948Y0051627D03*
X0111996Y0049085D03*
X0111996Y0049073D03*
X0108546Y0046877D03*
X0103532Y0046681D03*
X0103877Y0051466D03*
X0103900Y0051477D03*
X0103911Y0051488D03*
D394*
X0099581Y0046751D03*
X0112105Y0051247D03*
X0112105Y0051259D03*
D395*
X0113025Y0053639D03*
X0113036Y0053651D03*
X0105757Y0057388D03*
X0105757Y0057399D03*
X0105757Y0057411D03*
X0105757Y0057423D03*
X0105757Y0057434D03*
X0105768Y0057491D03*
X0105768Y0057503D03*
X0099570Y0046762D03*
X0096902Y0050316D03*
D396*
X0099553Y0046785D03*
X0099564Y0046773D03*
X0102244Y0053432D03*
X0105751Y0057319D03*
X0105751Y0057330D03*
X0105751Y0057342D03*
X0105751Y0057353D03*
X0105751Y0057365D03*
X0105751Y0057377D03*
X0113019Y0053627D03*
X0113019Y0053616D03*
D397*
X0112036Y0049349D03*
X0112036Y0049338D03*
X0108482Y0046785D03*
X0100858Y0059205D03*
X0100858Y0059216D03*
X0106102Y0061068D03*
X0096488Y0051144D03*
D398*
X0099530Y0046808D03*
X0105740Y0057181D03*
X0105740Y0057192D03*
X0105740Y0057204D03*
X0105740Y0057216D03*
X0105740Y0057227D03*
X0105740Y0057238D03*
X0112099Y0051293D03*
D399*
X0112105Y0051305D03*
X0112967Y0053547D03*
X0112979Y0053559D03*
X0106136Y0052213D03*
X0102261Y0053444D03*
X0105734Y0057123D03*
X0105734Y0057135D03*
X0105734Y0057146D03*
X0105734Y0057158D03*
X0105734Y0057170D03*
X0099512Y0046831D03*
X0099524Y0046820D03*
D400*
X0103359Y0046831D03*
D401*
X0099501Y0046854D03*
X0099489Y0046866D03*
D402*
X0099484Y0046877D03*
X0099472Y0046888D03*
X0096942Y0050281D03*
X0105717Y0056916D03*
X0105717Y0056928D03*
X0105717Y0056940D03*
X0105717Y0056951D03*
X0105717Y0056962D03*
X0105717Y0056974D03*
X0112927Y0053501D03*
X0112939Y0053512D03*
X0112099Y0051339D03*
X0112099Y0051327D03*
D403*
X0111938Y0048809D03*
X0111938Y0048798D03*
X0111938Y0048786D03*
X0108603Y0046992D03*
X0108086Y0051546D03*
X0103497Y0051155D03*
X0103486Y0051144D03*
X0103474Y0051132D03*
X0103463Y0051120D03*
X0103451Y0051109D03*
X0103440Y0051098D03*
X0103428Y0051086D03*
X0103417Y0051074D03*
X0103405Y0051063D03*
X0101496Y0052477D03*
X0103267Y0046923D03*
X0103279Y0046912D03*
X0103290Y0046900D03*
X0103302Y0046888D03*
X0100795Y0059584D03*
X0106108Y0061309D03*
X0110478Y0060723D03*
X0110478Y0060712D03*
X0114181Y0056491D03*
D404*
X0112898Y0053455D03*
X0112093Y0051373D03*
X0112093Y0051362D03*
X0108977Y0053639D03*
X0106136Y0052202D03*
X0105699Y0056721D03*
X0105699Y0056733D03*
X0105699Y0056744D03*
X0105699Y0056755D03*
X0105699Y0056767D03*
X0099432Y0046934D03*
X0099443Y0046923D03*
X0096959Y0050270D03*
D405*
X0103256Y0050879D03*
X0103256Y0046934D03*
X0114181Y0056502D03*
D406*
X0112875Y0053432D03*
X0105688Y0056595D03*
X0105688Y0056606D03*
X0105688Y0056617D03*
X0105688Y0056629D03*
X0105688Y0056641D03*
X0099409Y0046969D03*
X0099420Y0046958D03*
D407*
X0099374Y0047015D03*
D408*
X0103152Y0047061D03*
X0103187Y0047015D03*
X0103026Y0050534D03*
X0103037Y0050557D03*
X0103072Y0050615D03*
X0103106Y0050672D03*
X0103118Y0050684D03*
X0103152Y0050741D03*
X0101462Y0052420D03*
X0096459Y0051270D03*
X0106108Y0061344D03*
X0108166Y0051488D03*
D409*
X0105682Y0056445D03*
X0105682Y0056456D03*
X0105682Y0056468D03*
X0105682Y0056480D03*
X0105682Y0056491D03*
X0105682Y0056502D03*
X0112088Y0051420D03*
X0099369Y0047027D03*
X0097000Y0050246D03*
D410*
X0099351Y0047038D03*
X0102318Y0053490D03*
X0105676Y0056387D03*
X0105676Y0056399D03*
X0105676Y0056410D03*
X0105676Y0056422D03*
X0105676Y0056434D03*
X0112829Y0053386D03*
X0112841Y0053398D03*
X0112082Y0051442D03*
X0112082Y0051431D03*
D411*
X0112082Y0051454D03*
X0112082Y0051466D03*
X0112818Y0053374D03*
X0105665Y0056249D03*
X0105665Y0056261D03*
X0105665Y0056273D03*
X0105665Y0056284D03*
X0105665Y0056295D03*
X0105665Y0056307D03*
X0102330Y0053501D03*
X0099328Y0047073D03*
X0099340Y0047061D03*
D412*
X0103060Y0047187D03*
X0103083Y0047153D03*
X0103095Y0047141D03*
X0102865Y0050201D03*
X0102888Y0050258D03*
X0102899Y0050281D03*
X0102911Y0050304D03*
X0102911Y0050316D03*
X0102922Y0050327D03*
X0102922Y0050338D03*
X0102934Y0050350D03*
X0102934Y0050362D03*
X0102945Y0050373D03*
X0102945Y0050384D03*
X0102957Y0050396D03*
X0102957Y0050408D03*
X0102968Y0050430D03*
X0102980Y0050453D03*
X0101450Y0052397D03*
X0106177Y0052385D03*
X0108189Y0051466D03*
X0108638Y0047073D03*
X0108638Y0047061D03*
X0111892Y0048602D03*
X0111892Y0048613D03*
X0111904Y0048625D03*
X0111904Y0048637D03*
X0111904Y0048648D03*
X0114192Y0056526D03*
X0110489Y0060780D03*
X0110489Y0060792D03*
X0106108Y0061367D03*
X0100772Y0059688D03*
X0100772Y0059677D03*
X0096459Y0051281D03*
D413*
X0099305Y0047107D03*
D414*
X0099282Y0047141D03*
X0097040Y0050223D03*
X0105653Y0056054D03*
X0105653Y0056066D03*
X0105653Y0056077D03*
X0105653Y0056088D03*
X0105653Y0056100D03*
X0105653Y0056112D03*
X0112783Y0053352D03*
X0112070Y0051500D03*
D415*
X0112070Y0051546D03*
X0112749Y0053328D03*
X0108873Y0053685D03*
X0105642Y0055859D03*
X0105642Y0055870D03*
X0105642Y0055881D03*
X0105642Y0055893D03*
X0105642Y0055905D03*
X0105642Y0055916D03*
X0099236Y0047199D03*
D416*
X0099231Y0047210D03*
X0099219Y0047222D03*
X0097069Y0050212D03*
X0102382Y0053535D03*
X0105636Y0055847D03*
X0112065Y0051558D03*
D417*
X0111817Y0048315D03*
X0111817Y0048303D03*
X0108689Y0047222D03*
X0108689Y0047210D03*
X0108379Y0051281D03*
X0108367Y0051293D03*
X0101398Y0052294D03*
D418*
X0099213Y0047234D03*
D419*
X0099185Y0047268D03*
X0105636Y0055686D03*
D420*
X0105630Y0055674D03*
X0105630Y0055663D03*
X0105630Y0055652D03*
X0105630Y0055640D03*
X0105630Y0055628D03*
X0108839Y0053696D03*
X0112059Y0051603D03*
X0099167Y0047291D03*
D421*
X0099162Y0047302D03*
X0099150Y0047314D03*
X0105625Y0055583D03*
X0105625Y0055594D03*
X0105625Y0055605D03*
X0105625Y0055617D03*
X0112053Y0051627D03*
X0112053Y0051615D03*
D422*
X0105630Y0055559D03*
X0105630Y0055571D03*
X0099144Y0047326D03*
D423*
X0099116Y0047371D03*
X0105625Y0055445D03*
X0105625Y0055456D03*
X0105625Y0055467D03*
X0105625Y0055479D03*
X0108810Y0053708D03*
X0112042Y0051661D03*
D424*
X0112047Y0051673D03*
X0105619Y0055410D03*
X0105619Y0055421D03*
X0105619Y0055433D03*
X0102433Y0053570D03*
X0099098Y0047383D03*
D425*
X0099093Y0047395D03*
X0105625Y0055387D03*
X0105625Y0055398D03*
D426*
X0105619Y0055376D03*
X0105619Y0055364D03*
X0105619Y0055352D03*
X0105619Y0055341D03*
X0105619Y0055330D03*
X0106125Y0052144D03*
X0099087Y0047406D03*
X0099075Y0047417D03*
D427*
X0099064Y0047441D03*
X0112036Y0051707D03*
X0112036Y0051719D03*
D428*
X0108776Y0053720D03*
X0105613Y0055260D03*
X0099047Y0047463D03*
X0099058Y0047452D03*
D429*
X0099041Y0047475D03*
X0105619Y0055215D03*
X0105619Y0055226D03*
X0105619Y0055237D03*
X0105619Y0055249D03*
X0112036Y0051730D03*
D430*
X0102474Y0053593D03*
X0099035Y0047487D03*
D431*
X0099012Y0047509D03*
X0105613Y0055134D03*
X0105613Y0055145D03*
D432*
X0105613Y0055088D03*
X0105613Y0055077D03*
X0108741Y0053731D03*
X0098989Y0047544D03*
D433*
X0098983Y0047555D03*
D434*
X0098966Y0047578D03*
D435*
X0098960Y0047590D03*
X0102514Y0053616D03*
X0105619Y0054996D03*
X0105619Y0055008D03*
X0105619Y0055019D03*
X0106125Y0052121D03*
X0112013Y0051810D03*
D436*
X0098943Y0047613D03*
D437*
X0098909Y0047659D03*
X0106119Y0052109D03*
X0105613Y0054892D03*
X0108695Y0053742D03*
X0112007Y0051856D03*
D438*
X0112001Y0051868D03*
X0105619Y0054846D03*
X0105619Y0054858D03*
X0105619Y0054870D03*
X0105619Y0054881D03*
X0098903Y0047670D03*
D439*
X0098897Y0047682D03*
D440*
X0098874Y0047716D03*
X0105625Y0054801D03*
X0111996Y0051902D03*
X0111996Y0051891D03*
D441*
X0106113Y0052098D03*
X0105619Y0054766D03*
X0105619Y0054777D03*
X0105619Y0054789D03*
X0098868Y0047728D03*
D442*
X0098863Y0047740D03*
X0098851Y0047751D03*
X0105625Y0054755D03*
X0111996Y0051914D03*
D443*
X0102577Y0053651D03*
X0098840Y0047774D03*
D444*
X0102658Y0048337D03*
X0102658Y0048349D03*
X0102658Y0048360D03*
X0102658Y0048372D03*
X0102704Y0048096D03*
X0102704Y0048084D03*
X0102704Y0048073D03*
X0102784Y0047785D03*
X0102784Y0047774D03*
X0108327Y0051339D03*
X0111858Y0048452D03*
X0114204Y0056560D03*
X0106108Y0061424D03*
D445*
X0111984Y0051948D03*
X0098828Y0047785D03*
D446*
X0098822Y0047797D03*
X0098811Y0047809D03*
X0106113Y0052087D03*
X0111978Y0051960D03*
D447*
X0111978Y0051983D03*
X0098799Y0047831D03*
D448*
X0098794Y0047843D03*
X0098782Y0047855D03*
X0111973Y0051995D03*
D449*
X0111973Y0052006D03*
X0098771Y0047877D03*
D450*
X0098765Y0047889D03*
X0102629Y0053673D03*
X0108597Y0053766D03*
X0111967Y0052017D03*
D451*
X0111967Y0052029D03*
X0098742Y0047923D03*
D452*
X0098736Y0047935D03*
X0106108Y0052063D03*
X0111961Y0052041D03*
D453*
X0098719Y0047958D03*
D454*
X0098707Y0047981D03*
X0111955Y0052063D03*
D455*
X0098702Y0047992D03*
D456*
X0098696Y0048004D03*
X0111944Y0052087D03*
D457*
X0111944Y0052109D03*
X0098684Y0048027D03*
X0098673Y0048038D03*
D458*
X0098661Y0048062D03*
X0111944Y0052121D03*
D459*
X0098656Y0048073D03*
D460*
X0098650Y0048084D03*
X0111932Y0052144D03*
D461*
X0098644Y0048096D03*
X0098633Y0048108D03*
D462*
X0098627Y0048119D03*
X0111932Y0052155D03*
D463*
X0106102Y0052029D03*
X0098615Y0048142D03*
D464*
X0098610Y0048153D03*
X0111927Y0052178D03*
D465*
X0111921Y0052190D03*
X0098604Y0048165D03*
X0098592Y0048177D03*
D466*
X0098581Y0048199D03*
X0102755Y0053720D03*
X0106102Y0052017D03*
D467*
X0111915Y0052213D03*
X0098575Y0048211D03*
D468*
X0098569Y0048223D03*
D469*
X0098564Y0048234D03*
X0111904Y0052236D03*
D470*
X0098541Y0048280D03*
X0098541Y0048269D03*
D471*
X0098535Y0048291D03*
X0111898Y0052259D03*
D472*
X0111898Y0052270D03*
X0102790Y0053731D03*
X0098523Y0048315D03*
D473*
X0098518Y0048326D03*
X0106096Y0051995D03*
X0111892Y0052282D03*
D474*
X0098512Y0048337D03*
D475*
X0098500Y0048360D03*
X0098489Y0048372D03*
X0106090Y0051983D03*
X0111886Y0052305D03*
D476*
X0111881Y0052316D03*
X0098483Y0048395D03*
X0098483Y0048384D03*
D477*
X0098477Y0048406D03*
X0102824Y0053742D03*
D478*
X0098466Y0048430D03*
X0111875Y0052340D03*
D479*
X0111869Y0052351D03*
X0098460Y0048441D03*
D480*
X0098454Y0048452D03*
D481*
X0098443Y0048487D03*
X0098431Y0048498D03*
X0106090Y0051960D03*
X0111863Y0052374D03*
D482*
X0098420Y0048521D03*
D483*
X0098414Y0048533D03*
X0098414Y0048545D03*
X0111858Y0052397D03*
D484*
X0102882Y0053754D03*
X0098408Y0048556D03*
D485*
X0098391Y0048591D03*
X0098391Y0048602D03*
D486*
X0098385Y0048613D03*
X0111840Y0052431D03*
D487*
X0098374Y0048637D03*
X0098362Y0048648D03*
X0098362Y0048659D03*
D488*
X0098351Y0048683D03*
D489*
X0102399Y0053547D03*
X0105630Y0055698D03*
X0105630Y0055709D03*
X0105630Y0055720D03*
X0105630Y0055732D03*
X0107643Y0049327D03*
X0107643Y0049315D03*
X0107643Y0049303D03*
X0107643Y0049292D03*
X0107643Y0049280D03*
X0107643Y0049269D03*
X0107643Y0049258D03*
X0107643Y0049246D03*
X0107643Y0049234D03*
X0107643Y0049223D03*
X0107643Y0049212D03*
X0107643Y0049200D03*
X0107643Y0049188D03*
X0107643Y0049177D03*
X0107643Y0049166D03*
X0107643Y0049154D03*
X0107643Y0049142D03*
X0107643Y0049131D03*
X0107643Y0049120D03*
X0107643Y0049108D03*
X0107643Y0049096D03*
X0107643Y0049085D03*
X0107643Y0049073D03*
X0107643Y0049062D03*
X0107643Y0049051D03*
X0107643Y0049039D03*
X0107643Y0049027D03*
X0107643Y0049016D03*
X0107643Y0049005D03*
X0107643Y0048993D03*
X0107643Y0048981D03*
X0107643Y0048970D03*
X0107643Y0048959D03*
X0107643Y0048947D03*
X0107643Y0048935D03*
X0107643Y0048924D03*
X0107643Y0048912D03*
X0107643Y0048901D03*
X0107643Y0048890D03*
X0107643Y0048878D03*
X0107643Y0048866D03*
X0107643Y0048855D03*
X0107643Y0048844D03*
X0107643Y0048832D03*
X0107643Y0048820D03*
X0107643Y0048809D03*
X0107643Y0048798D03*
X0107643Y0048786D03*
X0107643Y0048774D03*
X0107643Y0048763D03*
X0107643Y0048752D03*
X0107643Y0048740D03*
X0107643Y0048728D03*
X0107643Y0048717D03*
X0107643Y0048705D03*
X0107643Y0048694D03*
X0107643Y0048683D03*
X0112059Y0051580D03*
X0112059Y0051592D03*
X0112726Y0053317D03*
D490*
X0111823Y0052477D03*
X0102934Y0053766D03*
X0098345Y0048705D03*
X0098345Y0048694D03*
D491*
X0098339Y0048717D03*
D492*
X0098334Y0048728D03*
D493*
X0098328Y0048740D03*
X0098328Y0048752D03*
X0106079Y0051914D03*
X0111817Y0052501D03*
D494*
X0111817Y0052512D03*
X0098316Y0048774D03*
D495*
X0098311Y0048786D03*
X0098311Y0048798D03*
D496*
X0098305Y0048809D03*
X0106079Y0051902D03*
X0111806Y0052523D03*
D497*
X0111800Y0052535D03*
X0098299Y0048832D03*
X0098299Y0048820D03*
D498*
X0098293Y0048844D03*
D499*
X0098288Y0048855D03*
X0111800Y0052546D03*
D500*
X0111794Y0052558D03*
X0098282Y0048878D03*
X0098282Y0048866D03*
D501*
X0098276Y0048890D03*
D502*
X0098265Y0048924D03*
X0106073Y0051880D03*
X0111789Y0052581D03*
D503*
X0111783Y0052592D03*
X0098259Y0048947D03*
X0098259Y0048935D03*
D504*
X0098253Y0048959D03*
D505*
X0098247Y0048970D03*
X0098247Y0048981D03*
X0103031Y0053777D03*
X0106067Y0051868D03*
D506*
X0111771Y0052616D03*
X0098236Y0049016D03*
X0098236Y0049005D03*
D507*
X0098230Y0049027D03*
X0111766Y0052627D03*
D508*
X0106067Y0051856D03*
X0098224Y0049051D03*
X0098224Y0049039D03*
D509*
X0098213Y0049085D03*
D510*
X0098207Y0049096D03*
X0098207Y0049108D03*
X0111754Y0052650D03*
D511*
X0098201Y0049131D03*
X0098201Y0049120D03*
D512*
X0098196Y0049142D03*
X0098196Y0049154D03*
X0111754Y0052662D03*
D513*
X0098190Y0049166D03*
D514*
X0098190Y0049177D03*
X0098190Y0049188D03*
D515*
X0098184Y0049200D03*
X0098184Y0049212D03*
X0106062Y0051822D03*
D516*
X0111737Y0052696D03*
X0098178Y0049223D03*
D517*
X0098173Y0049234D03*
X0098173Y0049246D03*
X0111731Y0052708D03*
D518*
X0111731Y0052719D03*
X0106062Y0051810D03*
X0098161Y0049292D03*
X0098161Y0049280D03*
D519*
X0098155Y0049303D03*
X0098155Y0049315D03*
X0111725Y0052730D03*
D520*
X0111720Y0052742D03*
X0098150Y0049338D03*
X0098150Y0049327D03*
D521*
X0098150Y0049361D03*
D522*
X0098144Y0049373D03*
X0098144Y0049384D03*
X0111714Y0052753D03*
D523*
X0111708Y0052765D03*
X0106050Y0051787D03*
X0098138Y0049407D03*
X0098138Y0049395D03*
D524*
X0098132Y0049419D03*
X0098132Y0049430D03*
D525*
X0100869Y0059124D03*
X0100869Y0059136D03*
X0106102Y0061022D03*
X0110437Y0060401D03*
X0112059Y0049453D03*
X0112059Y0049441D03*
D526*
X0098121Y0049465D03*
X0098121Y0049476D03*
D527*
X0098127Y0049487D03*
D528*
X0098121Y0049499D03*
X0098121Y0049510D03*
X0111691Y0052799D03*
D529*
X0112070Y0049545D03*
X0112070Y0049534D03*
X0110426Y0060332D03*
X0110426Y0060344D03*
X0100892Y0059033D03*
X0100892Y0059021D03*
X0096499Y0051098D03*
D530*
X0098109Y0049556D03*
X0098109Y0049545D03*
X0111691Y0052811D03*
D531*
X0098104Y0049580D03*
X0098104Y0049568D03*
D532*
X0098109Y0049591D03*
X0111679Y0052823D03*
D533*
X0098104Y0049614D03*
X0098104Y0049602D03*
D534*
X0104331Y0051695D03*
X0100904Y0058941D03*
X0100904Y0058952D03*
X0106102Y0060895D03*
X0106102Y0060907D03*
X0106102Y0060919D03*
X0110414Y0060274D03*
X0110414Y0060263D03*
X0114083Y0056227D03*
X0112082Y0049626D03*
X0112082Y0049614D03*
D535*
X0098092Y0049648D03*
X0098092Y0049660D03*
D536*
X0101697Y0052799D03*
X0104365Y0051707D03*
X0100915Y0058883D03*
X0100915Y0058895D03*
X0112082Y0049660D03*
X0112082Y0049648D03*
D537*
X0111668Y0052845D03*
X0098098Y0049671D03*
D538*
X0098092Y0049683D03*
X0098092Y0049695D03*
X0098092Y0049706D03*
X0111662Y0052857D03*
D539*
X0112093Y0049706D03*
X0114071Y0056180D03*
X0106102Y0060849D03*
X0100927Y0058837D03*
X0100927Y0058826D03*
X0100927Y0058814D03*
X0101697Y0052811D03*
X0104388Y0051719D03*
X0096511Y0051040D03*
D540*
X0098086Y0049729D03*
X0098086Y0049717D03*
D541*
X0098092Y0049741D03*
X0111662Y0052869D03*
D542*
X0098086Y0049775D03*
X0098086Y0049763D03*
X0098086Y0049752D03*
D543*
X0098081Y0049787D03*
X0098081Y0049798D03*
D544*
X0098075Y0049809D03*
X0111645Y0052891D03*
D545*
X0098081Y0049833D03*
X0098081Y0049821D03*
D546*
X0098075Y0049844D03*
X0098075Y0049855D03*
X0098075Y0049867D03*
X0111645Y0052903D03*
D547*
X0098081Y0049878D03*
D548*
X0098075Y0049890D03*
X0098075Y0049902D03*
X0098075Y0049913D03*
X0111633Y0052915D03*
D549*
X0098069Y0049924D03*
D550*
X0096534Y0050959D03*
X0101766Y0052903D03*
X0100984Y0058458D03*
X0100984Y0058469D03*
X0100984Y0058480D03*
X0110380Y0059998D03*
X0110380Y0060010D03*
X0114025Y0056042D03*
X0112116Y0049948D03*
X0112116Y0049936D03*
D551*
X0098069Y0049970D03*
D552*
X0100996Y0058388D03*
X0100996Y0058400D03*
X0100996Y0058412D03*
X0106090Y0060620D03*
X0110368Y0059964D03*
X0110368Y0059952D03*
X0110368Y0059941D03*
X0114014Y0056020D03*
X0112116Y0049982D03*
X0112116Y0049970D03*
D553*
X0111622Y0052937D03*
X0098075Y0050005D03*
X0098075Y0049994D03*
X0098075Y0049982D03*
D554*
X0098069Y0050016D03*
X0098069Y0050028D03*
X0111616Y0052949D03*
D555*
X0112122Y0050051D03*
X0112122Y0050040D03*
X0112122Y0050028D03*
X0110363Y0059895D03*
X0110363Y0059906D03*
X0106085Y0060562D03*
D556*
X0098075Y0050062D03*
X0098075Y0050051D03*
X0098075Y0050040D03*
D557*
X0096551Y0050913D03*
X0101025Y0058216D03*
X0101025Y0058227D03*
X0101025Y0058239D03*
X0101807Y0052960D03*
X0110351Y0059837D03*
X0110351Y0059849D03*
X0113997Y0055951D03*
X0112122Y0050074D03*
X0112122Y0050062D03*
D558*
X0098069Y0050074D03*
D559*
X0098075Y0050085D03*
X0098075Y0050097D03*
X0098075Y0050109D03*
X0098075Y0050120D03*
X0111610Y0052960D03*
D560*
X0111605Y0052972D03*
X0098081Y0050131D03*
D561*
X0098075Y0050143D03*
X0098075Y0050155D03*
X0098075Y0050166D03*
D562*
X0101835Y0052995D03*
X0101065Y0057986D03*
X0101065Y0057998D03*
X0101065Y0058009D03*
X0106067Y0060424D03*
X0110334Y0059734D03*
X0110334Y0059723D03*
X0113968Y0055881D03*
X0112128Y0050166D03*
X0112128Y0050155D03*
D563*
X0098081Y0050177D03*
X0098081Y0050189D03*
D564*
X0101076Y0057905D03*
X0101076Y0057917D03*
X0101076Y0057928D03*
X0110322Y0059665D03*
X0110322Y0059677D03*
X0110322Y0059688D03*
X0112128Y0050201D03*
D565*
X0106113Y0061746D03*
X0100685Y0060217D03*
X0101134Y0051765D03*
X0101134Y0051753D03*
X0101122Y0051741D03*
X0100375Y0050304D03*
D566*
X0100386Y0050316D03*
X0101111Y0051707D03*
X0101111Y0051719D03*
X0100685Y0060228D03*
X0106113Y0061758D03*
D567*
X0106050Y0060228D03*
X0110294Y0059492D03*
X0110294Y0059481D03*
X0113928Y0055744D03*
X0112134Y0050316D03*
X0101887Y0053064D03*
X0101151Y0057480D03*
X0101140Y0057526D03*
X0101140Y0057537D03*
X0101140Y0057549D03*
X0101140Y0057560D03*
D568*
X0096890Y0050327D03*
X0109046Y0053605D03*
X0113071Y0053708D03*
D569*
X0106113Y0061770D03*
X0101099Y0051684D03*
X0100409Y0050338D03*
X0100398Y0050327D03*
D570*
X0100421Y0050350D03*
X0101076Y0051638D03*
D571*
X0101899Y0053076D03*
X0101163Y0057399D03*
X0101163Y0057411D03*
X0101163Y0057423D03*
X0101163Y0057434D03*
X0106050Y0060183D03*
X0106050Y0060194D03*
X0106050Y0060205D03*
X0110282Y0059435D03*
X0110282Y0059423D03*
X0110282Y0059412D03*
X0113916Y0055709D03*
X0109466Y0053317D03*
X0112134Y0050350D03*
X0096597Y0050787D03*
D572*
X0100432Y0050362D03*
X0100444Y0050373D03*
X0101053Y0051592D03*
X0101065Y0051603D03*
D573*
X0101048Y0051580D03*
X0101048Y0051569D03*
X0100450Y0050384D03*
X0100680Y0060286D03*
X0106119Y0061804D03*
D574*
X0096827Y0050396D03*
D575*
X0100461Y0050396D03*
X0100473Y0050408D03*
X0101025Y0051523D03*
X0101036Y0051546D03*
X0100680Y0060298D03*
X0106119Y0061816D03*
D576*
X0110552Y0061309D03*
X0101019Y0051512D03*
X0101019Y0051500D03*
X0100478Y0050419D03*
X0096430Y0051488D03*
D577*
X0100490Y0050430D03*
X0100501Y0050442D03*
X0100996Y0051454D03*
X0100674Y0060320D03*
X0110552Y0061321D03*
D578*
X0110558Y0061333D03*
X0114296Y0056767D03*
X0100990Y0051442D03*
X0100990Y0051431D03*
X0100507Y0050453D03*
D579*
X0101249Y0056916D03*
X0101249Y0056928D03*
X0101249Y0056940D03*
X0101249Y0056951D03*
X0110242Y0059170D03*
X0110242Y0059182D03*
X0110242Y0059194D03*
X0112139Y0050465D03*
X0112139Y0050453D03*
D580*
X0100973Y0051396D03*
X0100973Y0051408D03*
X0100524Y0050477D03*
X0100513Y0050465D03*
X0096430Y0051500D03*
X0100674Y0060332D03*
D581*
X0101255Y0056905D03*
X0101266Y0056859D03*
X0101266Y0056848D03*
X0101266Y0056836D03*
X0101278Y0056802D03*
X0101278Y0056790D03*
X0101933Y0053121D03*
X0106027Y0059976D03*
X0106027Y0059987D03*
X0106027Y0059998D03*
X0110236Y0059159D03*
X0110236Y0059148D03*
X0110236Y0059136D03*
X0113870Y0055559D03*
X0109408Y0053363D03*
X0112145Y0050477D03*
X0096620Y0050730D03*
D582*
X0100530Y0050488D03*
X0100956Y0051362D03*
X0100956Y0051373D03*
X0100967Y0051385D03*
X0100668Y0060344D03*
X0106119Y0061850D03*
X0110558Y0061344D03*
D583*
X0100950Y0051351D03*
X0100950Y0051339D03*
X0100547Y0050511D03*
X0100536Y0050499D03*
D584*
X0096643Y0050695D03*
X0101370Y0056365D03*
X0101358Y0056410D03*
X0101358Y0056422D03*
X0101347Y0056445D03*
X0101347Y0056456D03*
X0101347Y0056468D03*
X0101347Y0056480D03*
X0101335Y0056514D03*
X0101335Y0056526D03*
X0106016Y0059872D03*
X0106016Y0059884D03*
X0106016Y0059895D03*
X0110213Y0059009D03*
X0110213Y0058998D03*
X0110213Y0058987D03*
X0110213Y0058975D03*
X0113836Y0055467D03*
X0113836Y0055456D03*
X0109374Y0053386D03*
X0112145Y0050545D03*
X0112145Y0050534D03*
D585*
X0100927Y0051293D03*
X0100582Y0050569D03*
X0100570Y0050557D03*
D586*
X0100588Y0050580D03*
X0100668Y0060366D03*
D587*
X0106125Y0061873D03*
X0100892Y0051212D03*
X0100881Y0051201D03*
X0100881Y0051190D03*
X0100869Y0051166D03*
X0100605Y0050615D03*
X0100605Y0050603D03*
X0100593Y0050591D03*
D588*
X0100611Y0050626D03*
X0100852Y0051120D03*
X0100852Y0051132D03*
D589*
X0100864Y0051144D03*
X0100864Y0051155D03*
X0100875Y0051178D03*
X0100634Y0050660D03*
X0100622Y0050649D03*
X0100622Y0050637D03*
X0100668Y0060378D03*
D590*
X0106125Y0061884D03*
X0110564Y0061378D03*
X0100846Y0051109D03*
X0100835Y0051098D03*
X0100835Y0051086D03*
X0100823Y0051063D03*
X0100662Y0050718D03*
X0100651Y0050695D03*
X0100639Y0050684D03*
X0100639Y0050672D03*
D591*
X0100657Y0050706D03*
X0100668Y0050730D03*
X0100680Y0050741D03*
X0100680Y0050752D03*
X0100691Y0050776D03*
X0100703Y0050798D03*
X0100714Y0050821D03*
X0100772Y0050948D03*
X0100783Y0050971D03*
X0100795Y0050994D03*
X0100806Y0051017D03*
X0100806Y0051028D03*
X0100818Y0051040D03*
X0100818Y0051052D03*
X0100829Y0051074D03*
X0110570Y0061390D03*
X0114319Y0056790D03*
D592*
X0113905Y0055674D03*
X0113905Y0055663D03*
X0109454Y0053328D03*
X0110271Y0059343D03*
X0110271Y0059355D03*
X0110271Y0059366D03*
X0101910Y0053087D03*
X0101174Y0057330D03*
X0101174Y0057342D03*
X0096609Y0050776D03*
D593*
X0100708Y0050810D03*
X0100743Y0050879D03*
X0100743Y0050891D03*
X0100754Y0050902D03*
X0100754Y0050913D03*
X0100789Y0050983D03*
X0100662Y0060390D03*
X0106125Y0061896D03*
D594*
X0113974Y0055870D03*
X0096563Y0050867D03*
D595*
X0096540Y0050948D03*
D596*
X0096522Y0051005D03*
X0101732Y0052857D03*
X0100950Y0058665D03*
X0100950Y0058676D03*
X0100950Y0058687D03*
X0106090Y0060758D03*
X0110391Y0060113D03*
X0110391Y0060102D03*
X0114048Y0056112D03*
D597*
X0114060Y0056146D03*
X0110403Y0060148D03*
X0104434Y0051730D03*
X0101720Y0052845D03*
X0100938Y0058722D03*
X0100938Y0058734D03*
X0100938Y0058745D03*
X0096522Y0051017D03*
D598*
X0106142Y0052224D03*
X0105786Y0057641D03*
X0105786Y0057652D03*
X0105786Y0057664D03*
X0105786Y0057676D03*
X0105786Y0057687D03*
X0113077Y0053720D03*
X0113088Y0053731D03*
X0113065Y0053696D03*
X0112111Y0051224D03*
X0112111Y0051212D03*
D599*
X0110558Y0061367D03*
X0100910Y0051259D03*
X0100910Y0051247D03*
X0100898Y0051235D03*
X0100898Y0051224D03*
X0096425Y0051512D03*
D600*
X0100915Y0051270D03*
D601*
X0100754Y0059803D03*
X0108390Y0051270D03*
D602*
X0100938Y0051327D03*
D603*
X0100979Y0051420D03*
X0106188Y0052420D03*
X0106119Y0061838D03*
D604*
X0106119Y0061827D03*
X0101013Y0051488D03*
X0101002Y0051477D03*
X0101002Y0051466D03*
D605*
X0096436Y0051477D03*
D606*
X0106131Y0052178D03*
X0105648Y0056020D03*
X0105648Y0056031D03*
X0105648Y0056042D03*
X0112076Y0051512D03*
D607*
X0110570Y0061402D03*
X0100657Y0060401D03*
X0096436Y0051523D03*
D608*
X0096430Y0051534D03*
D609*
X0101030Y0051534D03*
X0101042Y0051558D03*
X0110552Y0061298D03*
X0114290Y0056755D03*
D610*
X0106136Y0061965D03*
X0096430Y0051546D03*
D611*
X0096425Y0051558D03*
D612*
X0096430Y0051569D03*
X0100651Y0060527D03*
D613*
X0096436Y0051580D03*
D614*
X0096436Y0051592D03*
X0106165Y0062103D03*
D615*
X0106119Y0061792D03*
X0110547Y0061275D03*
X0100680Y0060274D03*
X0100680Y0060263D03*
X0101071Y0051627D03*
X0101071Y0051615D03*
D616*
X0101082Y0051649D03*
X0101094Y0051673D03*
X0100680Y0060252D03*
X0106119Y0061781D03*
X0110547Y0061263D03*
X0114284Y0056744D03*
D617*
X0101088Y0051661D03*
D618*
X0112042Y0051684D03*
D619*
X0114273Y0056733D03*
X0101117Y0051730D03*
D620*
X0105613Y0055191D03*
X0105613Y0055203D03*
X0112030Y0051741D03*
D621*
X0113991Y0055939D03*
X0110345Y0059815D03*
X0110345Y0059826D03*
X0106079Y0060493D03*
X0106079Y0060505D03*
X0106079Y0060516D03*
X0106159Y0052328D03*
X0104584Y0051765D03*
D622*
X0107568Y0051765D03*
D623*
X0105619Y0055053D03*
X0105619Y0055065D03*
X0112024Y0051787D03*
D624*
X0106062Y0051845D03*
D625*
X0105613Y0054938D03*
X0112007Y0051845D03*
D626*
X0106073Y0051891D03*
D627*
X0101214Y0051926D03*
X0100697Y0060125D03*
X0106113Y0061677D03*
D628*
X0106079Y0051926D03*
X0111829Y0052466D03*
D629*
X0106090Y0051971D03*
D630*
X0111950Y0052075D03*
D631*
X0108925Y0053662D03*
X0106131Y0052190D03*
D632*
X0111909Y0052224D03*
D633*
X0111904Y0052248D03*
D634*
X0111881Y0052328D03*
D635*
X0111852Y0052409D03*
D636*
X0111846Y0052420D03*
D637*
X0106188Y0052431D03*
D638*
X0111823Y0052489D03*
D639*
X0111794Y0052570D03*
D640*
X0111748Y0052673D03*
D641*
X0111697Y0052788D03*
D642*
X0111651Y0052880D03*
D643*
X0111599Y0052984D03*
D644*
X0111593Y0052995D03*
D645*
X0111576Y0053018D03*
D646*
X0111570Y0053030D03*
D647*
X0111564Y0053041D03*
D648*
X0111547Y0053064D03*
D649*
X0111536Y0053087D03*
D650*
X0111518Y0053110D03*
D651*
X0113847Y0055502D03*
X0113847Y0055513D03*
X0101945Y0053133D03*
X0101324Y0056571D03*
X0101289Y0056733D03*
D652*
X0111507Y0053133D03*
D653*
X0111495Y0053145D03*
D654*
X0111495Y0053156D03*
D655*
X0111472Y0053179D03*
D656*
X0111467Y0053191D03*
D657*
X0111461Y0053202D03*
D658*
X0111449Y0053213D03*
D659*
X0111444Y0053225D03*
D660*
X0111432Y0053237D03*
D661*
X0111415Y0053259D03*
D662*
X0113525Y0054616D03*
X0102106Y0053305D03*
D663*
X0105665Y0056192D03*
X0112806Y0053363D03*
D664*
X0105705Y0056778D03*
X0105705Y0056790D03*
X0105705Y0056802D03*
X0105705Y0056813D03*
X0105705Y0056824D03*
X0105705Y0056836D03*
X0102290Y0053466D03*
D665*
X0112904Y0053466D03*
X0112916Y0053478D03*
D666*
X0113008Y0053605D03*
X0109029Y0053616D03*
D667*
X0102606Y0053662D03*
D668*
X0102721Y0053708D03*
D669*
X0105797Y0057767D03*
X0105797Y0057779D03*
X0105797Y0057791D03*
X0105797Y0057802D03*
X0105797Y0057813D03*
X0113123Y0053800D03*
X0113123Y0053788D03*
X0113111Y0053777D03*
D670*
X0105607Y0053788D03*
D671*
X0105602Y0053800D03*
X0105602Y0053812D03*
D672*
X0105607Y0053823D03*
X0105607Y0053834D03*
X0105607Y0053846D03*
X0105607Y0053858D03*
X0105607Y0053869D03*
D673*
X0105602Y0053880D03*
X0105602Y0053892D03*
X0105602Y0053903D03*
X0105602Y0053915D03*
X0105602Y0053927D03*
D674*
X0113174Y0053892D03*
X0113174Y0053880D03*
D675*
X0105596Y0053938D03*
X0105596Y0053949D03*
X0105596Y0053961D03*
D676*
X0105602Y0053973D03*
X0105602Y0053984D03*
X0105602Y0053995D03*
D677*
X0113238Y0054007D03*
X0113238Y0053995D03*
D678*
X0105596Y0054007D03*
X0105596Y0054019D03*
X0105596Y0054030D03*
X0105596Y0054041D03*
X0105596Y0054053D03*
D679*
X0105590Y0054065D03*
D680*
X0105596Y0054076D03*
X0105596Y0054087D03*
X0105596Y0054099D03*
X0105596Y0054110D03*
X0105596Y0054122D03*
D681*
X0105590Y0054134D03*
D682*
X0105596Y0054145D03*
X0105596Y0054156D03*
X0105596Y0054168D03*
X0105596Y0054180D03*
D683*
X0105590Y0054191D03*
D684*
X0105596Y0054202D03*
X0105596Y0054214D03*
X0105596Y0054226D03*
X0105596Y0054237D03*
D685*
X0105590Y0054248D03*
D686*
X0105596Y0054260D03*
X0105596Y0054271D03*
X0105596Y0054283D03*
X0105596Y0054295D03*
X0105596Y0054306D03*
D687*
X0105596Y0054317D03*
X0105596Y0054329D03*
X0105596Y0054341D03*
X0105596Y0054352D03*
D688*
X0105602Y0054363D03*
D689*
X0105596Y0054375D03*
X0105596Y0054387D03*
X0105596Y0054398D03*
X0105596Y0054409D03*
D690*
X0105602Y0054421D03*
D691*
X0105596Y0054433D03*
X0105596Y0054444D03*
X0105596Y0054455D03*
D692*
X0105602Y0054467D03*
X0105602Y0054478D03*
D693*
X0105596Y0054490D03*
X0105596Y0054502D03*
D694*
X0105602Y0054513D03*
X0105602Y0054524D03*
D695*
X0105619Y0054731D03*
X0105619Y0054743D03*
D696*
X0105619Y0055272D03*
X0105619Y0055284D03*
X0105619Y0055295D03*
X0105619Y0055306D03*
X0105619Y0055318D03*
D697*
X0106033Y0060010D03*
X0106033Y0060021D03*
X0106033Y0060033D03*
X0101260Y0056894D03*
X0101260Y0056882D03*
X0101260Y0056870D03*
X0113876Y0055583D03*
X0113876Y0055571D03*
D698*
X0113893Y0055628D03*
X0113893Y0055640D03*
D699*
X0114324Y0056802D03*
D700*
X0114330Y0056813D03*
X0100657Y0060459D03*
D701*
X0106142Y0061999D03*
X0110581Y0061505D03*
X0114342Y0056824D03*
D702*
X0114347Y0056836D03*
X0110587Y0061540D03*
X0106148Y0062034D03*
D703*
X0100645Y0060573D03*
X0114365Y0056848D03*
D704*
X0114399Y0056859D03*
D705*
X0101186Y0057262D03*
X0101186Y0057273D03*
X0101186Y0057284D03*
X0101186Y0057296D03*
D706*
X0101059Y0058020D03*
X0101059Y0058032D03*
X0101059Y0058044D03*
X0101059Y0058055D03*
X0106073Y0060435D03*
X0106073Y0060447D03*
X0106073Y0060459D03*
D707*
X0100875Y0059113D03*
X0100875Y0059102D03*
D708*
X0100674Y0060309D03*
D709*
X0100657Y0060412D03*
D710*
X0100657Y0060424D03*
X0110570Y0061424D03*
D711*
X0110570Y0061436D03*
X0106131Y0061930D03*
X0100657Y0060435D03*
D712*
X0100657Y0060447D03*
D713*
X0100657Y0060470D03*
X0110581Y0061470D03*
D714*
X0100651Y0060481D03*
D715*
X0100651Y0060493D03*
D716*
X0100651Y0060505D03*
D717*
X0100645Y0060516D03*
D718*
X0100651Y0060539D03*
D719*
X0100645Y0060551D03*
X0106154Y0062057D03*
X0110593Y0061562D03*
D720*
X0110593Y0061574D03*
X0106154Y0062069D03*
X0100645Y0060562D03*
D721*
X0100645Y0060585D03*
D722*
X0100645Y0060596D03*
D723*
X0110547Y0061229D03*
D724*
X0110547Y0061287D03*
D725*
X0110570Y0061413D03*
D726*
X0110575Y0061448D03*
D727*
X0110575Y0061459D03*
X0106136Y0061953D03*
D728*
X0110581Y0061482D03*
D729*
X0110581Y0061494D03*
D730*
X0110581Y0061516D03*
D731*
X0110587Y0061528D03*
D732*
X0110593Y0061551D03*
D733*
X0110598Y0061585D03*
X0106159Y0062080D03*
D734*
X0106159Y0062091D03*
X0110598Y0061597D03*
D735*
X0110610Y0061609D03*
D736*
X0110610Y0061620D03*
D737*
X0106108Y0061655D03*
D738*
X0106125Y0061908D03*
D739*
X0106125Y0061919D03*
D740*
X0106131Y0061942D03*
D741*
X0106136Y0061977D03*
D742*
X0106142Y0062011D03*
D743*
X0106142Y0062023D03*
D744*
X0106148Y0062045D03*
D745*
X0106159Y0062115D03*
D746*
X0106165Y0062126D03*
M02*
