G75*
%MOIN*%
%OFA0B0*%
%FSLAX25Y25*%
%IPPOS*%
%LPD*%
%AMOC8*
5,1,8,0,0,1.08239X$1,22.5*
%
%ADD10R,0.03150X0.03543*%
%ADD11R,0.02500X0.08000*%
%ADD12R,0.06102X0.04724*%
%ADD13C,0.01378*%
%ADD14C,0.05543*%
%ADD15C,0.15811*%
%ADD16R,0.02165X0.04724*%
%ADD17R,0.03150X0.03150*%
%ADD18C,0.01600*%
%ADD19OC8,0.04356*%
%ADD20C,0.01000*%
%ADD21C,0.04000*%
%ADD22C,0.04356*%
D10*
X0071394Y0052331D03*
X0078874Y0052331D03*
X0075134Y0060599D03*
D11*
X0077083Y0072341D03*
X0072358Y0072341D03*
X0067634Y0072341D03*
X0062909Y0072538D03*
X0058185Y0072538D03*
X0058185Y0087893D03*
X0062909Y0087893D03*
X0067634Y0087893D03*
X0072358Y0087893D03*
X0076886Y0087893D03*
D12*
X0095409Y0095816D03*
X0095409Y0076918D03*
X0113913Y0076918D03*
X0114307Y0095816D03*
D13*
X0085882Y0110875D02*
X0079386Y0110875D01*
X0085882Y0110875D02*
X0085882Y0110285D01*
X0079386Y0110285D01*
X0079386Y0110875D01*
X0079386Y0114024D02*
X0085882Y0114024D01*
X0085882Y0113434D01*
X0079386Y0113434D01*
X0079386Y0114024D01*
X0079386Y0117174D02*
X0085882Y0117174D01*
X0085882Y0116584D01*
X0079386Y0116584D01*
X0079386Y0117174D01*
X0079386Y0120323D02*
X0085882Y0120323D01*
X0085882Y0119733D01*
X0079386Y0119733D01*
X0079386Y0120323D01*
X0079386Y0123473D02*
X0085882Y0123473D01*
X0085882Y0122883D01*
X0079386Y0122883D01*
X0079386Y0123473D01*
X0079386Y0126623D02*
X0085882Y0126623D01*
X0085882Y0126033D01*
X0079386Y0126033D01*
X0079386Y0126623D01*
X0079386Y0129772D02*
X0085882Y0129772D01*
X0085882Y0129182D01*
X0079386Y0129182D01*
X0079386Y0129772D01*
X0079386Y0132922D02*
X0085882Y0132922D01*
X0085882Y0132332D01*
X0079386Y0132332D01*
X0079386Y0132922D01*
X0079386Y0136071D02*
X0085882Y0136071D01*
X0085882Y0135481D01*
X0079386Y0135481D01*
X0079386Y0136071D01*
X0079386Y0139221D02*
X0085882Y0139221D01*
X0085882Y0138631D01*
X0079386Y0138631D01*
X0079386Y0139221D01*
X0079386Y0142371D02*
X0085882Y0142371D01*
X0085882Y0141781D01*
X0079386Y0141781D01*
X0079386Y0142371D01*
X0079386Y0145520D02*
X0085882Y0145520D01*
X0085882Y0144930D01*
X0079386Y0144930D01*
X0079386Y0145520D01*
X0079386Y0148670D02*
X0085882Y0148670D01*
X0085882Y0148080D01*
X0079386Y0148080D01*
X0079386Y0148670D01*
X0079386Y0151819D02*
X0085882Y0151819D01*
X0085882Y0151229D01*
X0079386Y0151229D01*
X0079386Y0151819D01*
X0079386Y0154969D02*
X0085882Y0154969D01*
X0085882Y0154379D01*
X0079386Y0154379D01*
X0079386Y0154969D01*
X0079386Y0158001D02*
X0085882Y0158001D01*
X0085882Y0157411D01*
X0079386Y0157411D01*
X0079386Y0158001D01*
X0079386Y0161032D02*
X0085882Y0161032D01*
X0085882Y0160442D01*
X0079386Y0160442D01*
X0079386Y0161032D01*
X0079386Y0164064D02*
X0085882Y0164064D01*
X0085882Y0163474D01*
X0079386Y0163474D01*
X0079386Y0164064D01*
X0054779Y0145520D02*
X0048283Y0145520D01*
X0054779Y0145520D02*
X0054779Y0144930D01*
X0048283Y0144930D01*
X0048283Y0145520D01*
X0048283Y0142371D02*
X0054779Y0142371D01*
X0054779Y0141781D01*
X0048283Y0141781D01*
X0048283Y0142371D01*
X0048283Y0139221D02*
X0054779Y0139221D01*
X0054779Y0138631D01*
X0048283Y0138631D01*
X0048283Y0139221D01*
X0048283Y0136071D02*
X0054779Y0136071D01*
X0054779Y0135481D01*
X0048283Y0135481D01*
X0048283Y0136071D01*
X0048283Y0132922D02*
X0054779Y0132922D01*
X0054779Y0132332D01*
X0048283Y0132332D01*
X0048283Y0132922D01*
X0048283Y0129772D02*
X0054779Y0129772D01*
X0054779Y0129182D01*
X0048283Y0129182D01*
X0048283Y0129772D01*
X0048283Y0126623D02*
X0054779Y0126623D01*
X0054779Y0126033D01*
X0048283Y0126033D01*
X0048283Y0126623D01*
X0048283Y0123473D02*
X0054779Y0123473D01*
X0054779Y0122883D01*
X0048283Y0122883D01*
X0048283Y0123473D01*
X0048283Y0120323D02*
X0054779Y0120323D01*
X0054779Y0119733D01*
X0048283Y0119733D01*
X0048283Y0120323D01*
X0048283Y0117174D02*
X0054779Y0117174D01*
X0054779Y0116584D01*
X0048283Y0116584D01*
X0048283Y0117174D01*
X0048283Y0114024D02*
X0054779Y0114024D01*
X0054779Y0113434D01*
X0048283Y0113434D01*
X0048283Y0114024D01*
X0048283Y0110875D02*
X0054779Y0110875D01*
X0054779Y0110285D01*
X0048283Y0110285D01*
X0048283Y0110875D01*
X0059307Y0110678D02*
X0059307Y0104182D01*
X0058717Y0104182D01*
X0058717Y0110678D01*
X0059307Y0110678D01*
X0059307Y0105559D02*
X0058717Y0105559D01*
X0058717Y0106936D02*
X0059307Y0106936D01*
X0059307Y0108313D02*
X0058717Y0108313D01*
X0058717Y0109690D02*
X0059307Y0109690D01*
X0062456Y0110678D02*
X0062456Y0104182D01*
X0061866Y0104182D01*
X0061866Y0110678D01*
X0062456Y0110678D01*
X0062456Y0105559D02*
X0061866Y0105559D01*
X0061866Y0106936D02*
X0062456Y0106936D01*
X0062456Y0108313D02*
X0061866Y0108313D01*
X0061866Y0109690D02*
X0062456Y0109690D01*
X0065606Y0110678D02*
X0065606Y0104182D01*
X0065016Y0104182D01*
X0065016Y0110678D01*
X0065606Y0110678D01*
X0065606Y0105559D02*
X0065016Y0105559D01*
X0065016Y0106936D02*
X0065606Y0106936D01*
X0065606Y0108313D02*
X0065016Y0108313D01*
X0065016Y0109690D02*
X0065606Y0109690D01*
X0068756Y0110678D02*
X0068756Y0104182D01*
X0068166Y0104182D01*
X0068166Y0110678D01*
X0068756Y0110678D01*
X0068756Y0105559D02*
X0068166Y0105559D01*
X0068166Y0106936D02*
X0068756Y0106936D01*
X0068756Y0108313D02*
X0068166Y0108313D01*
X0068166Y0109690D02*
X0068756Y0109690D01*
X0071905Y0110678D02*
X0071905Y0104182D01*
X0071315Y0104182D01*
X0071315Y0110678D01*
X0071905Y0110678D01*
X0071905Y0105559D02*
X0071315Y0105559D01*
X0071315Y0106936D02*
X0071905Y0106936D01*
X0071905Y0108313D02*
X0071315Y0108313D01*
X0071315Y0109690D02*
X0071905Y0109690D01*
X0075055Y0110678D02*
X0075055Y0104182D01*
X0074465Y0104182D01*
X0074465Y0110678D01*
X0075055Y0110678D01*
X0075055Y0105559D02*
X0074465Y0105559D01*
X0074465Y0106936D02*
X0075055Y0106936D01*
X0075055Y0108313D02*
X0074465Y0108313D01*
X0074465Y0109690D02*
X0075055Y0109690D01*
D14*
X0072634Y0037790D02*
X0072634Y0032247D01*
X0082634Y0032247D02*
X0082634Y0037790D01*
X0062634Y0037790D02*
X0062634Y0032247D01*
X0052634Y0032247D02*
X0052634Y0037790D01*
D15*
X0022634Y0020019D03*
X0022634Y0110019D03*
X0112634Y0110019D03*
X0112634Y0020019D03*
D16*
X0113874Y0038650D03*
X0110134Y0038650D03*
X0106394Y0038650D03*
X0106394Y0048887D03*
X0113874Y0048887D03*
D17*
X0115587Y0061269D03*
X0109681Y0061269D03*
X0098087Y0061269D03*
X0092181Y0061269D03*
X0098431Y0127519D03*
X0104337Y0127519D03*
X0104337Y0138769D03*
X0098431Y0138769D03*
X0040587Y0088769D03*
X0034681Y0088769D03*
X0025587Y0088769D03*
X0019681Y0088769D03*
X0019681Y0072519D03*
X0025587Y0072519D03*
X0034681Y0072519D03*
X0040587Y0072519D03*
X0035587Y0128769D03*
X0029681Y0128769D03*
X0029681Y0140019D03*
X0035587Y0140019D03*
D18*
X0012928Y0018088D02*
X0014406Y0014521D01*
X0017136Y0011791D01*
X0020703Y0010313D01*
X0024564Y0010313D01*
X0028132Y0011791D01*
X0030862Y0014521D01*
X0032339Y0018088D01*
X0032339Y0021949D01*
X0030862Y0025516D01*
X0028132Y0028246D01*
X0024564Y0029724D01*
X0020703Y0029724D01*
X0017136Y0028246D01*
X0014406Y0025516D01*
X0012928Y0021949D01*
X0012928Y0018088D01*
X0012521Y0018687D02*
X0013210Y0016115D01*
X0014542Y0013809D01*
X0016424Y0011926D01*
X0018730Y0010595D01*
X0021302Y0009906D01*
X0022634Y0009818D01*
X0112634Y0009818D01*
X0113965Y0009906D01*
X0116537Y0010595D01*
X0118843Y0011926D01*
X0120726Y0013809D01*
X0122057Y0016115D01*
X0122747Y0018687D01*
X0122834Y0020018D01*
X0122834Y0120019D01*
X0122680Y0124144D01*
X0121450Y0132302D01*
X0119018Y0140185D01*
X0115438Y0147619D01*
X0110791Y0154435D01*
X0105179Y0160483D01*
X0098729Y0165627D01*
X0091584Y0169752D01*
X0083904Y0172766D01*
X0075861Y0174602D01*
X0072890Y0174825D01*
X0072890Y0146406D01*
X0057107Y0146406D01*
X0057173Y0146246D01*
X0057269Y0145766D01*
X0057269Y0145225D01*
X0057269Y0144685D01*
X0057173Y0144204D01*
X0056985Y0143751D01*
X0056934Y0143674D01*
X0057269Y0142866D01*
X0057269Y0141285D01*
X0056944Y0140501D01*
X0057269Y0139716D01*
X0057269Y0138136D01*
X0057244Y0138076D01*
X0058568Y0138076D01*
X0059231Y0138740D01*
X0060628Y0139318D01*
X0062140Y0139318D01*
X0063536Y0138740D01*
X0064605Y0137671D01*
X0065184Y0136274D01*
X0065184Y0134763D01*
X0064605Y0133366D01*
X0063536Y0132297D01*
X0062140Y0131719D01*
X0060628Y0131719D01*
X0059231Y0132297D01*
X0058162Y0133366D01*
X0058117Y0133476D01*
X0057244Y0133476D01*
X0057269Y0133417D01*
X0057269Y0131836D01*
X0056944Y0131052D01*
X0057269Y0130268D01*
X0057269Y0128687D01*
X0056944Y0127902D01*
X0057269Y0127118D01*
X0057269Y0125537D01*
X0056934Y0124729D01*
X0056985Y0124652D01*
X0057173Y0124199D01*
X0057269Y0123718D01*
X0057269Y0123178D01*
X0051532Y0123178D01*
X0051532Y0123178D01*
X0057269Y0123178D01*
X0057269Y0122638D01*
X0057173Y0122157D01*
X0056985Y0121704D01*
X0056934Y0121627D01*
X0057269Y0120819D01*
X0057269Y0119238D01*
X0056944Y0118454D01*
X0057269Y0117669D01*
X0057269Y0116088D01*
X0056944Y0115304D01*
X0057269Y0114520D01*
X0057269Y0112939D01*
X0057135Y0112616D01*
X0057307Y0112788D01*
X0058221Y0113167D01*
X0059802Y0113167D01*
X0060587Y0112842D01*
X0061371Y0113167D01*
X0062952Y0113167D01*
X0063736Y0112842D01*
X0064521Y0113167D01*
X0066101Y0113167D01*
X0066886Y0112842D01*
X0067670Y0113167D01*
X0069251Y0113167D01*
X0070059Y0112832D01*
X0070136Y0112884D01*
X0070589Y0113071D01*
X0071070Y0113167D01*
X0071610Y0113167D01*
X0071610Y0107430D01*
X0071610Y0107430D01*
X0071610Y0101693D01*
X0071070Y0101693D01*
X0070589Y0101789D01*
X0070136Y0101976D01*
X0070059Y0102028D01*
X0069251Y0101693D01*
X0067670Y0101693D01*
X0066886Y0102018D01*
X0066101Y0101693D01*
X0064521Y0101693D01*
X0063736Y0102018D01*
X0062952Y0101693D01*
X0061371Y0101693D01*
X0060587Y0102018D01*
X0059802Y0101693D01*
X0058221Y0101693D01*
X0057307Y0102072D01*
X0056606Y0102772D01*
X0056228Y0103687D01*
X0056228Y0108258D01*
X0055959Y0108079D01*
X0055506Y0107891D01*
X0055025Y0107795D01*
X0051532Y0107795D01*
X0051532Y0110579D01*
X0051531Y0110579D01*
X0051531Y0107795D01*
X0048038Y0107795D01*
X0047557Y0107891D01*
X0047105Y0108079D01*
X0046697Y0108351D01*
X0046350Y0108698D01*
X0046184Y0108947D01*
X0046184Y0067221D01*
X0058587Y0054818D01*
X0068019Y0054818D01*
X0068019Y0054849D01*
X0069073Y0055903D01*
X0070497Y0055903D01*
X0069584Y0056816D01*
X0069584Y0058360D01*
X0068640Y0057969D01*
X0067128Y0057969D01*
X0065731Y0058547D01*
X0064662Y0059616D01*
X0064084Y0061013D01*
X0064084Y0062524D01*
X0064662Y0063921D01*
X0065584Y0064843D01*
X0065584Y0065721D01*
X0066404Y0066541D01*
X0065638Y0066541D01*
X0065173Y0067006D01*
X0064905Y0066738D01*
X0063106Y0066738D01*
X0061572Y0065204D01*
X0062105Y0064671D01*
X0062684Y0063274D01*
X0062684Y0061763D01*
X0062105Y0060366D01*
X0061036Y0059297D01*
X0059640Y0058719D01*
X0058128Y0058719D01*
X0056731Y0059297D01*
X0055662Y0060366D01*
X0055084Y0061763D01*
X0055084Y0063274D01*
X0055662Y0064671D01*
X0056584Y0065592D01*
X0056584Y0066721D01*
X0056601Y0066738D01*
X0056189Y0066738D01*
X0055135Y0067793D01*
X0055135Y0072265D01*
X0051584Y0075816D01*
X0051584Y0092721D01*
X0052931Y0094068D01*
X0056931Y0098068D01*
X0077681Y0098068D01*
X0088506Y0108894D01*
X0088148Y0109252D01*
X0088088Y0109105D01*
X0087815Y0108698D01*
X0087469Y0108351D01*
X0087061Y0108079D01*
X0086608Y0107891D01*
X0086127Y0107795D01*
X0082634Y0107795D01*
X0082634Y0110579D01*
X0082634Y0110579D01*
X0082634Y0107795D01*
X0079141Y0107795D01*
X0078660Y0107891D01*
X0078207Y0108079D01*
X0077799Y0108351D01*
X0077544Y0108606D01*
X0077544Y0103687D01*
X0077165Y0102772D01*
X0076465Y0102072D01*
X0075550Y0101693D01*
X0073969Y0101693D01*
X0073161Y0102028D01*
X0073084Y0101976D01*
X0072632Y0101789D01*
X0072151Y0101693D01*
X0071610Y0101693D01*
X0071610Y0107430D01*
X0071610Y0107430D01*
X0071610Y0113167D01*
X0072151Y0113167D01*
X0072632Y0113071D01*
X0073084Y0112884D01*
X0073161Y0112832D01*
X0073969Y0113167D01*
X0075550Y0113167D01*
X0076465Y0112788D01*
X0077165Y0112088D01*
X0077180Y0112053D01*
X0077180Y0112054D01*
X0077232Y0112131D01*
X0076897Y0112939D01*
X0076897Y0114520D01*
X0077222Y0115304D01*
X0076897Y0116088D01*
X0076897Y0117669D01*
X0077222Y0118454D01*
X0076897Y0119238D01*
X0076897Y0120819D01*
X0077222Y0121603D01*
X0076897Y0122388D01*
X0076897Y0123968D01*
X0077222Y0124753D01*
X0076897Y0125537D01*
X0076897Y0127118D01*
X0077222Y0127902D01*
X0076897Y0128687D01*
X0076897Y0130268D01*
X0077222Y0131052D01*
X0076897Y0131836D01*
X0076897Y0133417D01*
X0076976Y0133608D01*
X0071184Y0127816D01*
X0071184Y0126513D01*
X0070605Y0125116D01*
X0069536Y0124047D01*
X0068140Y0123469D01*
X0066628Y0123469D01*
X0065231Y0124047D01*
X0064162Y0125116D01*
X0063584Y0126513D01*
X0063584Y0128024D01*
X0064162Y0129421D01*
X0065231Y0130490D01*
X0066628Y0131068D01*
X0067931Y0131068D01*
X0077122Y0140259D01*
X0077222Y0140501D01*
X0076897Y0141285D01*
X0076897Y0142866D01*
X0077232Y0143674D01*
X0077180Y0143751D01*
X0076993Y0144204D01*
X0076897Y0144685D01*
X0076897Y0145225D01*
X0082634Y0145225D01*
X0082634Y0145225D01*
X0082634Y0148009D01*
X0082634Y0148375D01*
X0082634Y0151159D01*
X0082634Y0151524D01*
X0082634Y0151524D01*
X0088371Y0151524D01*
X0088371Y0150984D01*
X0088275Y0150503D01*
X0088088Y0150050D01*
X0088020Y0149950D01*
X0088088Y0149849D01*
X0088275Y0149396D01*
X0088371Y0148915D01*
X0088371Y0148375D01*
X0082634Y0148375D01*
X0082634Y0148375D01*
X0082634Y0148375D01*
X0082634Y0151524D01*
X0082634Y0151524D01*
X0082634Y0151524D01*
X0076897Y0151524D01*
X0076897Y0150984D01*
X0076993Y0150503D01*
X0077180Y0150050D01*
X0077247Y0149950D01*
X0077180Y0149849D01*
X0076993Y0149396D01*
X0076897Y0148915D01*
X0076897Y0148375D01*
X0082634Y0148375D01*
X0088371Y0148375D01*
X0088371Y0147834D01*
X0088275Y0147354D01*
X0088206Y0147187D01*
X0089128Y0147568D01*
X0090640Y0147568D01*
X0092036Y0146990D01*
X0093105Y0145921D01*
X0093684Y0144524D01*
X0093684Y0143221D01*
X0095436Y0141469D01*
X0095751Y0141784D01*
X0096162Y0142021D01*
X0096619Y0142143D01*
X0098431Y0142143D01*
X0098431Y0138769D01*
X0098431Y0138769D01*
X0098431Y0142143D01*
X0100243Y0142143D01*
X0100701Y0142021D01*
X0101111Y0141784D01*
X0101384Y0141511D01*
X0102016Y0142143D01*
X0106657Y0142143D01*
X0107711Y0141089D01*
X0107711Y0136448D01*
X0106657Y0135394D01*
X0106184Y0135394D01*
X0106184Y0130893D01*
X0106657Y0130893D01*
X0107711Y0129839D01*
X0107711Y0125198D01*
X0106657Y0124144D01*
X0102016Y0124144D01*
X0101384Y0124776D01*
X0100752Y0124144D01*
X0096184Y0124144D01*
X0096184Y0123177D01*
X0097128Y0123568D01*
X0098640Y0123568D01*
X0100036Y0122990D01*
X0101105Y0121921D01*
X0101684Y0120524D01*
X0101684Y0119013D01*
X0101105Y0117616D01*
X0100184Y0116694D01*
X0100184Y0107816D01*
X0092346Y0099978D01*
X0095028Y0099978D01*
X0095028Y0096197D01*
X0090558Y0096197D01*
X0090558Y0098190D01*
X0080637Y0088268D01*
X0089087Y0079818D01*
X0090434Y0078471D01*
X0090434Y0072068D01*
X0109337Y0072068D01*
X0110684Y0070721D01*
X0116762Y0064643D01*
X0117907Y0064643D01*
X0118961Y0063589D01*
X0118961Y0058948D01*
X0117907Y0057894D01*
X0116184Y0057894D01*
X0116184Y0052567D01*
X0116757Y0051994D01*
X0116757Y0045779D01*
X0116184Y0045206D01*
X0116184Y0044773D01*
X0116186Y0043821D01*
X0116184Y0043819D01*
X0116184Y0043816D01*
X0115513Y0043145D01*
X0115182Y0042813D01*
X0115702Y0042813D01*
X0116757Y0041758D01*
X0116757Y0035543D01*
X0116434Y0035220D01*
X0116434Y0034816D01*
X0116062Y0034444D01*
X0115434Y0033030D01*
X0115434Y0032566D01*
X0115062Y0032194D01*
X0114849Y0031714D01*
X0114415Y0031547D01*
X0114087Y0031219D01*
X0113561Y0031219D01*
X0113070Y0031030D01*
X0112646Y0031219D01*
X0106824Y0031219D01*
X0106072Y0031093D01*
X0105897Y0031219D01*
X0105681Y0031219D01*
X0105142Y0031758D01*
X0104522Y0032201D01*
X0104486Y0032413D01*
X0104334Y0032566D01*
X0104334Y0033328D01*
X0104236Y0033917D01*
X0104081Y0034072D01*
X0104083Y0034831D01*
X0104056Y0034998D01*
X0103511Y0035543D01*
X0103511Y0036511D01*
X0099964Y0036574D01*
X0089934Y0024203D01*
X0089934Y0024066D01*
X0089345Y0023477D01*
X0088820Y0022830D01*
X0088684Y0022816D01*
X0088587Y0022719D01*
X0087754Y0022719D01*
X0086925Y0022632D01*
X0086819Y0022719D01*
X0065431Y0022719D01*
X0064084Y0024066D01*
X0061681Y0026469D01*
X0060334Y0027816D01*
X0060334Y0028251D01*
X0060044Y0028371D01*
X0058758Y0029657D01*
X0058062Y0031337D01*
X0058062Y0038700D01*
X0058758Y0040380D01*
X0060044Y0041666D01*
X0061725Y0042362D01*
X0063543Y0042362D01*
X0065223Y0041666D01*
X0066510Y0040380D01*
X0067206Y0038700D01*
X0067206Y0031337D01*
X0066510Y0029657D01*
X0065754Y0028901D01*
X0067337Y0027318D01*
X0086538Y0027318D01*
X0096584Y0039709D01*
X0096584Y0057894D01*
X0095766Y0057894D01*
X0095134Y0058526D01*
X0094502Y0057894D01*
X0089861Y0057894D01*
X0089286Y0058469D01*
X0085184Y0058469D01*
X0085184Y0048415D01*
X0085286Y0047615D01*
X0085184Y0047483D01*
X0085184Y0047316D01*
X0084614Y0046746D01*
X0080986Y0042056D01*
X0081725Y0042362D01*
X0083543Y0042362D01*
X0085223Y0041666D01*
X0086510Y0040380D01*
X0087206Y0038700D01*
X0087206Y0031337D01*
X0086510Y0029657D01*
X0085223Y0028371D01*
X0083543Y0027675D01*
X0081725Y0027675D01*
X0080044Y0028371D01*
X0078758Y0029657D01*
X0078062Y0031337D01*
X0078062Y0038277D01*
X0077206Y0037169D01*
X0077206Y0031337D01*
X0076510Y0029657D01*
X0075223Y0028371D01*
X0073543Y0027675D01*
X0071725Y0027675D01*
X0070044Y0028371D01*
X0068758Y0029657D01*
X0068062Y0031337D01*
X0068062Y0038700D01*
X0068758Y0040380D01*
X0070044Y0041666D01*
X0071725Y0042362D01*
X0073543Y0042362D01*
X0074954Y0041777D01*
X0080356Y0048760D01*
X0078128Y0048760D01*
X0077184Y0047816D01*
X0075837Y0046469D01*
X0057431Y0046469D01*
X0034756Y0069144D01*
X0032361Y0069144D01*
X0031306Y0070198D01*
X0031306Y0074839D01*
X0032361Y0075893D01*
X0032381Y0075893D01*
X0032381Y0085394D01*
X0032361Y0085394D01*
X0031306Y0086448D01*
X0031306Y0091089D01*
X0032361Y0092143D01*
X0037002Y0092143D01*
X0037634Y0091511D01*
X0038266Y0092143D01*
X0041584Y0092143D01*
X0041584Y0120216D01*
X0039684Y0118316D01*
X0039684Y0105316D01*
X0026511Y0092143D01*
X0027398Y0092143D01*
X0027856Y0092021D01*
X0028267Y0091784D01*
X0028602Y0091449D01*
X0028839Y0091038D01*
X0028961Y0090580D01*
X0028961Y0088769D01*
X0025587Y0088769D01*
X0025587Y0088768D01*
X0025587Y0088768D01*
X0025587Y0085394D01*
X0027398Y0085394D01*
X0027856Y0085516D01*
X0028267Y0085753D01*
X0028602Y0086088D01*
X0028839Y0086499D01*
X0028961Y0086957D01*
X0028961Y0088768D01*
X0025587Y0088768D01*
X0025587Y0085394D01*
X0023775Y0085394D01*
X0023317Y0085516D01*
X0022907Y0085753D01*
X0022634Y0086026D01*
X0022184Y0085576D01*
X0022184Y0075711D01*
X0022634Y0075261D01*
X0023266Y0075893D01*
X0027907Y0075893D01*
X0028961Y0074839D01*
X0028961Y0070198D01*
X0027907Y0069144D01*
X0027887Y0069144D01*
X0027887Y0067452D01*
X0028637Y0067141D01*
X0029756Y0066022D01*
X0030362Y0064560D01*
X0030362Y0062977D01*
X0029756Y0061515D01*
X0028637Y0060396D01*
X0027175Y0059791D01*
X0025593Y0059791D01*
X0024131Y0060396D01*
X0023012Y0061515D01*
X0022406Y0062977D01*
X0022406Y0064560D01*
X0023012Y0066022D01*
X0023287Y0066297D01*
X0023287Y0069144D01*
X0023266Y0069144D01*
X0022634Y0069776D01*
X0022002Y0069144D01*
X0017361Y0069144D01*
X0016306Y0070198D01*
X0016306Y0074839D01*
X0017361Y0075893D01*
X0017584Y0075893D01*
X0017584Y0085394D01*
X0017361Y0085394D01*
X0016306Y0086448D01*
X0016306Y0091089D01*
X0017361Y0092143D01*
X0020006Y0092143D01*
X0035084Y0107221D01*
X0035084Y0120221D01*
X0036431Y0121568D01*
X0041581Y0126719D01*
X0038961Y0126719D01*
X0038961Y0126448D01*
X0037907Y0125394D01*
X0033266Y0125394D01*
X0032634Y0126026D01*
X0032002Y0125394D01*
X0027361Y0125394D01*
X0026306Y0126448D01*
X0026306Y0131089D01*
X0027334Y0132116D01*
X0027334Y0136671D01*
X0026306Y0137698D01*
X0026306Y0142339D01*
X0027361Y0143393D01*
X0032002Y0143393D01*
X0032634Y0142761D01*
X0032907Y0143034D01*
X0033317Y0143271D01*
X0033775Y0143393D01*
X0035587Y0143393D01*
X0037398Y0143393D01*
X0037856Y0143271D01*
X0038267Y0143034D01*
X0038602Y0142699D01*
X0038839Y0142288D01*
X0038961Y0141830D01*
X0038961Y0140019D01*
X0035587Y0140019D01*
X0035587Y0143393D01*
X0035587Y0140019D01*
X0035587Y0140019D01*
X0035587Y0140018D01*
X0035587Y0140018D01*
X0035587Y0136644D01*
X0037398Y0136644D01*
X0037856Y0136766D01*
X0038267Y0137003D01*
X0038602Y0137338D01*
X0038839Y0137749D01*
X0038961Y0138207D01*
X0038961Y0140018D01*
X0035587Y0140018D01*
X0035587Y0136644D01*
X0033775Y0136644D01*
X0033317Y0136766D01*
X0032907Y0137003D01*
X0032634Y0137276D01*
X0032002Y0136644D01*
X0031934Y0136644D01*
X0031934Y0132143D01*
X0032002Y0132143D01*
X0032634Y0131511D01*
X0033266Y0132143D01*
X0037907Y0132143D01*
X0038732Y0131318D01*
X0043181Y0131318D01*
X0045584Y0133721D01*
X0046103Y0134241D01*
X0045795Y0134986D01*
X0045795Y0136567D01*
X0046071Y0137233D01*
X0045016Y0137978D01*
X0044390Y0137719D01*
X0042878Y0137719D01*
X0041481Y0138297D01*
X0040412Y0139366D01*
X0039834Y0140763D01*
X0039834Y0142274D01*
X0040412Y0143671D01*
X0041481Y0144740D01*
X0042878Y0145318D01*
X0044390Y0145318D01*
X0045786Y0144740D01*
X0045795Y0144732D01*
X0045795Y0145225D01*
X0051531Y0145225D01*
X0051531Y0145225D01*
X0045795Y0145225D01*
X0045795Y0145766D01*
X0045890Y0146246D01*
X0045956Y0146406D01*
X0019245Y0146406D01*
X0016250Y0140185D01*
X0013818Y0132302D01*
X0012588Y0124144D01*
X0012434Y0120019D01*
X0012434Y0020018D01*
X0012521Y0018687D01*
X0012510Y0018852D02*
X0012928Y0018852D01*
X0012905Y0017254D02*
X0013274Y0017254D01*
X0013476Y0015655D02*
X0013936Y0015655D01*
X0014399Y0014057D02*
X0014870Y0014057D01*
X0015893Y0012458D02*
X0016469Y0012458D01*
X0018272Y0010860D02*
X0019384Y0010860D01*
X0025884Y0010860D02*
X0109384Y0010860D01*
X0110703Y0010313D02*
X0107136Y0011791D01*
X0104406Y0014521D01*
X0102928Y0018088D01*
X0102928Y0021949D01*
X0104406Y0025516D01*
X0107136Y0028246D01*
X0110703Y0029724D01*
X0114564Y0029724D01*
X0118132Y0028246D01*
X0120862Y0025516D01*
X0122339Y0021949D01*
X0122339Y0018088D01*
X0120862Y0014521D01*
X0118132Y0011791D01*
X0114564Y0010313D01*
X0110703Y0010313D01*
X0106469Y0012458D02*
X0028799Y0012458D01*
X0030398Y0014057D02*
X0104870Y0014057D01*
X0103936Y0015655D02*
X0031332Y0015655D01*
X0031994Y0017254D02*
X0103274Y0017254D01*
X0102928Y0018852D02*
X0032339Y0018852D01*
X0032339Y0020451D02*
X0102928Y0020451D01*
X0102970Y0022049D02*
X0032298Y0022049D01*
X0031636Y0023648D02*
X0064502Y0023648D01*
X0062904Y0025246D02*
X0030974Y0025246D01*
X0029533Y0026845D02*
X0061305Y0026845D01*
X0059972Y0028443D02*
X0055176Y0028443D01*
X0055030Y0028337D02*
X0054389Y0028010D01*
X0053704Y0027788D01*
X0052994Y0027675D01*
X0052720Y0027675D01*
X0052720Y0034933D01*
X0057206Y0034933D01*
X0057206Y0031887D01*
X0057093Y0031176D01*
X0056871Y0030492D01*
X0056544Y0029851D01*
X0056121Y0029269D01*
X0055612Y0028760D01*
X0055030Y0028337D01*
X0052720Y0028443D02*
X0052548Y0028443D01*
X0052548Y0027675D02*
X0052274Y0027675D01*
X0051563Y0027788D01*
X0050879Y0028010D01*
X0050238Y0028337D01*
X0049656Y0028760D01*
X0049147Y0029269D01*
X0048724Y0029851D01*
X0048397Y0030492D01*
X0048175Y0031176D01*
X0048062Y0031887D01*
X0048062Y0034933D01*
X0052548Y0034933D01*
X0052548Y0035104D01*
X0048062Y0035104D01*
X0048062Y0038150D01*
X0048175Y0038861D01*
X0048397Y0039545D01*
X0048724Y0040186D01*
X0049147Y0040768D01*
X0049656Y0041277D01*
X0050238Y0041700D01*
X0050879Y0042027D01*
X0051563Y0042249D01*
X0052274Y0042362D01*
X0052548Y0042362D01*
X0052548Y0035104D01*
X0052720Y0035104D01*
X0052720Y0034933D01*
X0052548Y0034933D01*
X0052548Y0027675D01*
X0052548Y0030042D02*
X0052720Y0030042D01*
X0052720Y0031640D02*
X0052548Y0031640D01*
X0052548Y0033239D02*
X0052720Y0033239D01*
X0052720Y0034837D02*
X0052548Y0034837D01*
X0052720Y0035104D02*
X0057206Y0035104D01*
X0057206Y0038150D01*
X0057093Y0038861D01*
X0056871Y0039545D01*
X0056544Y0040186D01*
X0056121Y0040768D01*
X0055612Y0041277D01*
X0055030Y0041700D01*
X0054389Y0042027D01*
X0053704Y0042249D01*
X0052994Y0042362D01*
X0052720Y0042362D01*
X0052720Y0035104D01*
X0052720Y0036436D02*
X0052548Y0036436D01*
X0052548Y0038034D02*
X0052720Y0038034D01*
X0052720Y0039633D02*
X0052548Y0039633D01*
X0052548Y0041231D02*
X0052720Y0041231D01*
X0055658Y0041231D02*
X0059610Y0041231D01*
X0058449Y0039633D02*
X0056826Y0039633D01*
X0057206Y0038034D02*
X0058062Y0038034D01*
X0058062Y0036436D02*
X0057206Y0036436D01*
X0057206Y0034837D02*
X0058062Y0034837D01*
X0058062Y0033239D02*
X0057206Y0033239D01*
X0057166Y0031640D02*
X0058062Y0031640D01*
X0058599Y0030042D02*
X0056641Y0030042D01*
X0050091Y0028443D02*
X0027657Y0028443D01*
X0017611Y0028443D02*
X0012434Y0028443D01*
X0012434Y0026845D02*
X0015734Y0026845D01*
X0014294Y0025246D02*
X0012434Y0025246D01*
X0012434Y0023648D02*
X0013632Y0023648D01*
X0012970Y0022049D02*
X0012434Y0022049D01*
X0012434Y0020451D02*
X0012928Y0020451D01*
X0012434Y0030042D02*
X0048627Y0030042D01*
X0048101Y0031640D02*
X0012434Y0031640D01*
X0012434Y0033239D02*
X0048062Y0033239D01*
X0048062Y0034837D02*
X0012434Y0034837D01*
X0012434Y0036436D02*
X0048062Y0036436D01*
X0048062Y0038034D02*
X0012434Y0038034D01*
X0012434Y0039633D02*
X0048442Y0039633D01*
X0049610Y0041231D02*
X0012434Y0041231D01*
X0012434Y0042830D02*
X0075769Y0042830D01*
X0077005Y0044428D02*
X0012434Y0044428D01*
X0012434Y0046027D02*
X0078242Y0046027D01*
X0079478Y0047625D02*
X0076993Y0047625D01*
X0081584Y0042830D02*
X0096584Y0042830D01*
X0096584Y0044428D02*
X0082821Y0044428D01*
X0084058Y0046027D02*
X0096584Y0046027D01*
X0096584Y0047625D02*
X0085285Y0047625D01*
X0085184Y0049224D02*
X0096584Y0049224D01*
X0096584Y0050822D02*
X0085184Y0050822D01*
X0085184Y0052421D02*
X0096584Y0052421D01*
X0096584Y0054019D02*
X0085184Y0054019D01*
X0085184Y0055618D02*
X0096584Y0055618D01*
X0096584Y0057216D02*
X0085184Y0057216D01*
X0084687Y0063068D02*
X0088806Y0063068D01*
X0088806Y0063589D01*
X0089861Y0064643D01*
X0094502Y0064643D01*
X0095134Y0064011D01*
X0095766Y0064643D01*
X0100407Y0064643D01*
X0101461Y0063589D01*
X0101461Y0058948D01*
X0101184Y0058671D01*
X0101184Y0041153D01*
X0103511Y0041111D01*
X0103511Y0041758D01*
X0104565Y0042813D01*
X0108222Y0042813D01*
X0108349Y0042686D01*
X0108356Y0042690D01*
X0108814Y0042813D01*
X0110134Y0042813D01*
X0111454Y0042813D01*
X0111911Y0042690D01*
X0111919Y0042686D01*
X0112046Y0042813D01*
X0112587Y0042813D01*
X0112260Y0043139D01*
X0111586Y0043810D01*
X0111586Y0043814D01*
X0111584Y0043816D01*
X0111584Y0044767D01*
X0111583Y0045187D01*
X0110991Y0045779D01*
X0110991Y0051994D01*
X0111584Y0052587D01*
X0111584Y0057918D01*
X0111493Y0057894D01*
X0109681Y0057894D01*
X0107869Y0057894D01*
X0107412Y0058016D01*
X0107001Y0058253D01*
X0106666Y0058588D01*
X0106429Y0058999D01*
X0106306Y0059457D01*
X0106306Y0061268D01*
X0109681Y0061268D01*
X0109681Y0057894D01*
X0109681Y0061268D01*
X0109681Y0061268D01*
X0109681Y0061269D01*
X0109681Y0061269D01*
X0109681Y0064643D01*
X0107869Y0064643D01*
X0107412Y0064521D01*
X0107001Y0064284D01*
X0106666Y0063949D01*
X0106429Y0063538D01*
X0106306Y0063080D01*
X0106306Y0061269D01*
X0109681Y0061269D01*
X0109681Y0064643D01*
X0110256Y0064643D01*
X0107431Y0067469D01*
X0089087Y0067469D01*
X0085434Y0063816D01*
X0084687Y0063068D01*
X0085228Y0063610D02*
X0088828Y0063610D01*
X0086827Y0065209D02*
X0109691Y0065209D01*
X0109681Y0063610D02*
X0109681Y0063610D01*
X0109681Y0062012D02*
X0109681Y0062012D01*
X0109681Y0060413D02*
X0109681Y0060413D01*
X0109681Y0058815D02*
X0109681Y0058815D01*
X0111584Y0057216D02*
X0101184Y0057216D01*
X0101184Y0055618D02*
X0111584Y0055618D01*
X0111584Y0054019D02*
X0101184Y0054019D01*
X0101184Y0052421D02*
X0103937Y0052421D01*
X0103511Y0051994D02*
X0104565Y0053049D01*
X0108222Y0053049D01*
X0109276Y0051994D01*
X0109276Y0045779D01*
X0108222Y0044724D01*
X0104565Y0044724D01*
X0103511Y0045779D01*
X0103511Y0051994D01*
X0103511Y0050822D02*
X0101184Y0050822D01*
X0101184Y0049224D02*
X0103511Y0049224D01*
X0103511Y0047625D02*
X0101184Y0047625D01*
X0101184Y0046027D02*
X0103511Y0046027D01*
X0101184Y0044428D02*
X0111584Y0044428D01*
X0110991Y0046027D02*
X0109276Y0046027D01*
X0109276Y0047625D02*
X0110991Y0047625D01*
X0110991Y0049224D02*
X0109276Y0049224D01*
X0109276Y0050822D02*
X0110991Y0050822D01*
X0111418Y0052421D02*
X0108850Y0052421D01*
X0106535Y0058815D02*
X0101328Y0058815D01*
X0101461Y0060413D02*
X0106306Y0060413D01*
X0106306Y0062012D02*
X0101461Y0062012D01*
X0101440Y0063610D02*
X0106471Y0063610D01*
X0108092Y0066807D02*
X0088426Y0066807D01*
X0085834Y0070721D02*
X0085834Y0070721D01*
X0082181Y0067068D01*
X0079605Y0067068D01*
X0079773Y0067236D01*
X0080010Y0067647D01*
X0080133Y0068104D01*
X0080133Y0072341D01*
X0077083Y0072341D01*
X0077083Y0072341D01*
X0080133Y0072341D01*
X0080133Y0075859D01*
X0080459Y0076184D01*
X0081489Y0078672D01*
X0081489Y0080911D01*
X0085834Y0076566D01*
X0085834Y0070721D01*
X0085834Y0071603D02*
X0080133Y0071603D01*
X0080133Y0070004D02*
X0085117Y0070004D01*
X0083519Y0068406D02*
X0080133Y0068406D01*
X0080133Y0073202D02*
X0085834Y0073202D01*
X0085834Y0074800D02*
X0080133Y0074800D01*
X0080547Y0076399D02*
X0085834Y0076399D01*
X0084403Y0077997D02*
X0081209Y0077997D01*
X0081489Y0079596D02*
X0082804Y0079596D01*
X0084514Y0084391D02*
X0111584Y0084391D01*
X0111584Y0082793D02*
X0086112Y0082793D01*
X0087711Y0081194D02*
X0111584Y0081194D01*
X0111584Y0081080D02*
X0111584Y0086469D01*
X0091958Y0086469D01*
X0091036Y0085547D01*
X0089640Y0084969D01*
X0088128Y0084969D01*
X0086731Y0085547D01*
X0085662Y0086616D01*
X0085084Y0088013D01*
X0085084Y0089524D01*
X0085662Y0090921D01*
X0086731Y0091990D01*
X0088128Y0092568D01*
X0089640Y0092568D01*
X0091036Y0091990D01*
X0091958Y0091068D01*
X0111584Y0091068D01*
X0111584Y0091654D01*
X0110510Y0091654D01*
X0109456Y0092708D01*
X0109456Y0098924D01*
X0110510Y0099978D01*
X0118104Y0099978D01*
X0119158Y0098924D01*
X0119158Y0092708D01*
X0118104Y0091654D01*
X0116184Y0091654D01*
X0116184Y0081080D01*
X0117710Y0081080D01*
X0118765Y0080026D01*
X0118765Y0073810D01*
X0117710Y0072756D01*
X0110117Y0072756D01*
X0109062Y0073810D01*
X0109062Y0080026D01*
X0110117Y0081080D01*
X0111584Y0081080D01*
X0109062Y0079596D02*
X0100240Y0079596D01*
X0100261Y0079517D02*
X0100261Y0077299D01*
X0095791Y0077299D01*
X0095791Y0076537D01*
X0100261Y0076537D01*
X0100261Y0074319D01*
X0100138Y0073861D01*
X0099901Y0073451D01*
X0099566Y0073116D01*
X0099155Y0072879D01*
X0098698Y0072756D01*
X0095791Y0072756D01*
X0095791Y0076537D01*
X0095028Y0076537D01*
X0095028Y0077299D01*
X0090558Y0077299D01*
X0090558Y0079517D01*
X0090681Y0079975D01*
X0090918Y0080386D01*
X0091253Y0080721D01*
X0091663Y0080958D01*
X0092121Y0081080D01*
X0095028Y0081080D01*
X0095028Y0077299D01*
X0095791Y0077299D01*
X0095791Y0081080D01*
X0098698Y0081080D01*
X0099155Y0080958D01*
X0099566Y0080721D01*
X0099901Y0080386D01*
X0100138Y0079975D01*
X0100261Y0079517D01*
X0100261Y0077997D02*
X0109062Y0077997D01*
X0109062Y0076399D02*
X0100261Y0076399D01*
X0100261Y0074800D02*
X0109062Y0074800D01*
X0109671Y0073202D02*
X0099652Y0073202D01*
X0095791Y0073202D02*
X0095028Y0073202D01*
X0095028Y0072756D02*
X0092121Y0072756D01*
X0091663Y0072879D01*
X0091253Y0073116D01*
X0090918Y0073451D01*
X0090681Y0073861D01*
X0090558Y0074319D01*
X0090558Y0076537D01*
X0095028Y0076537D01*
X0095028Y0072756D01*
X0095028Y0074800D02*
X0095791Y0074800D01*
X0095791Y0076399D02*
X0095028Y0076399D01*
X0095028Y0077997D02*
X0095791Y0077997D01*
X0095791Y0079596D02*
X0095028Y0079596D01*
X0091479Y0085990D02*
X0111584Y0085990D01*
X0116184Y0085990D02*
X0122834Y0085990D01*
X0122834Y0087588D02*
X0116184Y0087588D01*
X0116184Y0089187D02*
X0122834Y0089187D01*
X0122834Y0090785D02*
X0116184Y0090785D01*
X0118834Y0092384D02*
X0122834Y0092384D01*
X0122834Y0093982D02*
X0119158Y0093982D01*
X0119158Y0095581D02*
X0122834Y0095581D01*
X0122834Y0097179D02*
X0119158Y0097179D01*
X0119158Y0098778D02*
X0122834Y0098778D01*
X0122834Y0100376D02*
X0114717Y0100376D01*
X0114564Y0100313D02*
X0110703Y0100313D01*
X0107136Y0101791D01*
X0104406Y0104521D01*
X0102928Y0108088D01*
X0102928Y0111949D01*
X0104406Y0115516D01*
X0107136Y0118246D01*
X0110703Y0119724D01*
X0114564Y0119724D01*
X0118132Y0118246D01*
X0120862Y0115516D01*
X0122339Y0111949D01*
X0122339Y0108088D01*
X0120862Y0104521D01*
X0118132Y0101791D01*
X0114564Y0100313D01*
X0118316Y0101975D02*
X0122834Y0101975D01*
X0122834Y0103573D02*
X0119914Y0103573D01*
X0121131Y0105172D02*
X0122834Y0105172D01*
X0122834Y0106770D02*
X0121794Y0106770D01*
X0122339Y0108369D02*
X0122834Y0108369D01*
X0122834Y0109967D02*
X0122339Y0109967D01*
X0122339Y0111566D02*
X0122834Y0111566D01*
X0122834Y0113164D02*
X0121836Y0113164D01*
X0121174Y0114763D02*
X0122834Y0114763D01*
X0122834Y0116361D02*
X0120017Y0116361D01*
X0118418Y0117960D02*
X0122834Y0117960D01*
X0122834Y0119558D02*
X0114964Y0119558D01*
X0110303Y0119558D02*
X0101684Y0119558D01*
X0101422Y0121157D02*
X0122791Y0121157D01*
X0122731Y0122755D02*
X0100271Y0122755D01*
X0100962Y0124354D02*
X0101806Y0124354D01*
X0101248Y0117960D02*
X0106850Y0117960D01*
X0105251Y0116361D02*
X0100184Y0116361D01*
X0100184Y0114763D02*
X0104094Y0114763D01*
X0103432Y0113164D02*
X0100184Y0113164D01*
X0100184Y0111566D02*
X0102928Y0111566D01*
X0102928Y0109967D02*
X0100184Y0109967D01*
X0100184Y0108369D02*
X0102928Y0108369D01*
X0103474Y0106770D02*
X0099138Y0106770D01*
X0097540Y0105172D02*
X0104136Y0105172D01*
X0105353Y0103573D02*
X0095941Y0103573D01*
X0094343Y0101975D02*
X0106952Y0101975D01*
X0109456Y0098778D02*
X0100163Y0098778D01*
X0100138Y0098873D02*
X0100261Y0098415D01*
X0100261Y0096197D01*
X0095791Y0096197D01*
X0095791Y0095435D01*
X0100261Y0095435D01*
X0100261Y0093217D01*
X0100138Y0092759D01*
X0099901Y0092348D01*
X0099566Y0092013D01*
X0099155Y0091776D01*
X0098698Y0091654D01*
X0095791Y0091654D01*
X0095791Y0095435D01*
X0095028Y0095435D01*
X0095028Y0096197D01*
X0095791Y0096197D01*
X0095791Y0099978D01*
X0098698Y0099978D01*
X0099155Y0099855D01*
X0099566Y0099618D01*
X0099901Y0099283D01*
X0100138Y0098873D01*
X0100261Y0097179D02*
X0109456Y0097179D01*
X0109456Y0095581D02*
X0095791Y0095581D01*
X0095028Y0095581D02*
X0087949Y0095581D01*
X0086350Y0093982D02*
X0090558Y0093982D01*
X0090558Y0093217D02*
X0090558Y0095435D01*
X0095028Y0095435D01*
X0095028Y0091654D01*
X0092121Y0091654D01*
X0091663Y0091776D01*
X0091253Y0092013D01*
X0090918Y0092348D01*
X0090681Y0092759D01*
X0090558Y0093217D01*
X0090898Y0092384D02*
X0090086Y0092384D01*
X0087682Y0092384D02*
X0084752Y0092384D01*
X0085606Y0090785D02*
X0083153Y0090785D01*
X0081555Y0089187D02*
X0085084Y0089187D01*
X0085260Y0087588D02*
X0081317Y0087588D01*
X0082915Y0085990D02*
X0086289Y0085990D01*
X0089309Y0079596D02*
X0090579Y0079596D01*
X0090558Y0077997D02*
X0090434Y0077997D01*
X0090434Y0076399D02*
X0090558Y0076399D01*
X0090558Y0074800D02*
X0090434Y0074800D01*
X0090434Y0073202D02*
X0091167Y0073202D01*
X0095028Y0092384D02*
X0095791Y0092384D01*
X0095791Y0093982D02*
X0095028Y0093982D01*
X0095028Y0097179D02*
X0095791Y0097179D01*
X0095791Y0098778D02*
X0095028Y0098778D01*
X0092744Y0100376D02*
X0110551Y0100376D01*
X0109456Y0093982D02*
X0100261Y0093982D01*
X0099921Y0092384D02*
X0109780Y0092384D01*
X0116184Y0084391D02*
X0122834Y0084391D01*
X0122834Y0082793D02*
X0116184Y0082793D01*
X0116184Y0081194D02*
X0122834Y0081194D01*
X0122834Y0079596D02*
X0118765Y0079596D01*
X0118765Y0077997D02*
X0122834Y0077997D01*
X0122834Y0076399D02*
X0118765Y0076399D01*
X0118765Y0074800D02*
X0122834Y0074800D01*
X0122834Y0073202D02*
X0118156Y0073202D01*
X0114598Y0066807D02*
X0122834Y0066807D01*
X0122834Y0065209D02*
X0116196Y0065209D01*
X0118940Y0063610D02*
X0122834Y0063610D01*
X0122834Y0062012D02*
X0118961Y0062012D01*
X0118961Y0060413D02*
X0122834Y0060413D01*
X0122834Y0058815D02*
X0118828Y0058815D01*
X0116184Y0057216D02*
X0122834Y0057216D01*
X0122834Y0055618D02*
X0116184Y0055618D01*
X0116184Y0054019D02*
X0122834Y0054019D01*
X0122834Y0052421D02*
X0116330Y0052421D01*
X0116757Y0050822D02*
X0122834Y0050822D01*
X0122834Y0049224D02*
X0116757Y0049224D01*
X0116757Y0047625D02*
X0122834Y0047625D01*
X0122834Y0046027D02*
X0116757Y0046027D01*
X0116185Y0044428D02*
X0122834Y0044428D01*
X0122834Y0042830D02*
X0115199Y0042830D01*
X0116757Y0041231D02*
X0122834Y0041231D01*
X0122834Y0039633D02*
X0116757Y0039633D01*
X0116757Y0038034D02*
X0122834Y0038034D01*
X0122834Y0036436D02*
X0116757Y0036436D01*
X0116434Y0034837D02*
X0122834Y0034837D01*
X0122834Y0033239D02*
X0115526Y0033239D01*
X0114657Y0031640D02*
X0122834Y0031640D01*
X0122834Y0030042D02*
X0094668Y0030042D01*
X0095964Y0031640D02*
X0105259Y0031640D01*
X0104334Y0033239D02*
X0097260Y0033239D01*
X0098556Y0034837D02*
X0104082Y0034837D01*
X0103511Y0036436D02*
X0099852Y0036436D01*
X0096522Y0039633D02*
X0086819Y0039633D01*
X0087206Y0038034D02*
X0095226Y0038034D01*
X0093930Y0036436D02*
X0087206Y0036436D01*
X0087206Y0034837D02*
X0092634Y0034837D01*
X0091338Y0033239D02*
X0087206Y0033239D01*
X0087206Y0031640D02*
X0090042Y0031640D01*
X0088746Y0030042D02*
X0086669Y0030042D01*
X0087450Y0028443D02*
X0085296Y0028443D01*
X0079972Y0028443D02*
X0075296Y0028443D01*
X0076669Y0030042D02*
X0078599Y0030042D01*
X0078062Y0031640D02*
X0077206Y0031640D01*
X0077206Y0033239D02*
X0078062Y0033239D01*
X0078062Y0034837D02*
X0077206Y0034837D01*
X0077206Y0036436D02*
X0078062Y0036436D01*
X0078062Y0038034D02*
X0077875Y0038034D01*
X0085658Y0041231D02*
X0096584Y0041231D01*
X0101184Y0041231D02*
X0103511Y0041231D01*
X0101184Y0042830D02*
X0112570Y0042830D01*
X0110134Y0042813D02*
X0110134Y0038651D01*
X0110134Y0038651D01*
X0110134Y0042813D01*
X0110134Y0041231D02*
X0110134Y0041231D01*
X0110134Y0039633D02*
X0110134Y0039633D01*
X0107611Y0028443D02*
X0093372Y0028443D01*
X0092076Y0026845D02*
X0105734Y0026845D01*
X0104294Y0025246D02*
X0090780Y0025246D01*
X0089516Y0023648D02*
X0103632Y0023648D01*
X0115884Y0010860D02*
X0116996Y0010860D01*
X0118799Y0012458D02*
X0119375Y0012458D01*
X0120398Y0014057D02*
X0120869Y0014057D01*
X0121332Y0015655D02*
X0121792Y0015655D01*
X0121994Y0017254D02*
X0122362Y0017254D01*
X0122339Y0018852D02*
X0122757Y0018852D01*
X0122834Y0020451D02*
X0122339Y0020451D01*
X0122298Y0022049D02*
X0122834Y0022049D01*
X0122834Y0023648D02*
X0121636Y0023648D01*
X0120974Y0025246D02*
X0122834Y0025246D01*
X0122834Y0026845D02*
X0119533Y0026845D01*
X0117657Y0028443D02*
X0122834Y0028443D01*
X0122834Y0068406D02*
X0112999Y0068406D01*
X0111401Y0070004D02*
X0122834Y0070004D01*
X0122834Y0071603D02*
X0109802Y0071603D01*
X0090558Y0097179D02*
X0089547Y0097179D01*
X0084784Y0105172D02*
X0077544Y0105172D01*
X0077544Y0106770D02*
X0086383Y0106770D01*
X0087486Y0108369D02*
X0087981Y0108369D01*
X0083186Y0103573D02*
X0077497Y0103573D01*
X0076231Y0101975D02*
X0081587Y0101975D01*
X0079989Y0100376D02*
X0046184Y0100376D01*
X0046184Y0098778D02*
X0078390Y0098778D01*
X0073289Y0101975D02*
X0073081Y0101975D01*
X0071610Y0101975D02*
X0071610Y0101975D01*
X0070140Y0101975D02*
X0069931Y0101975D01*
X0071610Y0103573D02*
X0071610Y0103573D01*
X0071610Y0105172D02*
X0071610Y0105172D01*
X0071610Y0106770D02*
X0071610Y0106770D01*
X0071610Y0108369D02*
X0071610Y0108369D01*
X0071610Y0109967D02*
X0071610Y0109967D01*
X0071610Y0111566D02*
X0071610Y0111566D01*
X0071610Y0113164D02*
X0071610Y0113164D01*
X0071057Y0113164D02*
X0069257Y0113164D01*
X0067664Y0113164D02*
X0066108Y0113164D01*
X0064514Y0113164D02*
X0062958Y0113164D01*
X0061365Y0113164D02*
X0059809Y0113164D01*
X0058215Y0113164D02*
X0057269Y0113164D01*
X0057168Y0114763D02*
X0076998Y0114763D01*
X0076897Y0116361D02*
X0057269Y0116361D01*
X0057148Y0117960D02*
X0077017Y0117960D01*
X0076897Y0119558D02*
X0057269Y0119558D01*
X0057128Y0121157D02*
X0077037Y0121157D01*
X0076897Y0122755D02*
X0057269Y0122755D01*
X0057109Y0124354D02*
X0064924Y0124354D01*
X0063816Y0125952D02*
X0057269Y0125952D01*
X0057089Y0127551D02*
X0063584Y0127551D01*
X0064050Y0129149D02*
X0057269Y0129149D01*
X0057070Y0130748D02*
X0065854Y0130748D01*
X0063586Y0132346D02*
X0069209Y0132346D01*
X0070808Y0133945D02*
X0064845Y0133945D01*
X0065184Y0135543D02*
X0072406Y0135543D01*
X0074005Y0137142D02*
X0064824Y0137142D01*
X0063535Y0138740D02*
X0075603Y0138740D01*
X0077155Y0140339D02*
X0057011Y0140339D01*
X0057269Y0141938D02*
X0076897Y0141938D01*
X0077174Y0143536D02*
X0056991Y0143536D01*
X0057269Y0145135D02*
X0076897Y0145135D01*
X0076897Y0145225D02*
X0076897Y0145766D01*
X0076993Y0146246D01*
X0077180Y0146699D01*
X0077247Y0146800D01*
X0077180Y0146901D01*
X0076993Y0147354D01*
X0076897Y0147834D01*
X0076897Y0148375D01*
X0082634Y0148375D01*
X0082634Y0148375D01*
X0082634Y0148375D01*
X0082634Y0145225D01*
X0082634Y0145225D01*
X0076897Y0145225D01*
X0077203Y0146733D02*
X0072890Y0146733D01*
X0072890Y0148332D02*
X0076897Y0148332D01*
X0077234Y0149930D02*
X0072890Y0149930D01*
X0072890Y0151529D02*
X0076897Y0151529D01*
X0076897Y0151524D02*
X0076897Y0152065D01*
X0076993Y0152546D01*
X0077180Y0152999D01*
X0077247Y0153099D01*
X0077180Y0153200D01*
X0076993Y0153653D01*
X0076897Y0154134D01*
X0076897Y0154674D01*
X0082634Y0154674D01*
X0088371Y0154674D01*
X0088371Y0154134D01*
X0088275Y0153653D01*
X0088088Y0153200D01*
X0088020Y0153099D01*
X0088088Y0152999D01*
X0088275Y0152546D01*
X0088371Y0152065D01*
X0088371Y0151524D01*
X0082634Y0151524D01*
X0076897Y0151524D01*
X0077229Y0153127D02*
X0072890Y0153127D01*
X0072890Y0154726D02*
X0076897Y0154726D01*
X0076897Y0154674D02*
X0076897Y0155214D01*
X0076993Y0155695D01*
X0077180Y0156148D01*
X0077208Y0156190D01*
X0077180Y0156231D01*
X0076993Y0156684D01*
X0076897Y0157165D01*
X0076897Y0157705D01*
X0082634Y0157705D01*
X0082634Y0157705D01*
X0082634Y0154921D01*
X0082634Y0154674D01*
X0082634Y0154674D01*
X0088371Y0154674D01*
X0088371Y0155214D01*
X0088275Y0155695D01*
X0088088Y0156148D01*
X0088060Y0156190D01*
X0088088Y0156231D01*
X0088275Y0156684D01*
X0088371Y0157165D01*
X0088371Y0157705D01*
X0082634Y0157705D01*
X0082634Y0154674D01*
X0082634Y0154674D01*
X0082634Y0154309D01*
X0082634Y0151525D01*
X0082634Y0151525D01*
X0082634Y0154674D01*
X0082634Y0154674D01*
X0076897Y0154674D01*
X0077142Y0156324D02*
X0072890Y0156324D01*
X0072890Y0157923D02*
X0076897Y0157923D01*
X0076897Y0157706D02*
X0076897Y0158246D01*
X0076993Y0158727D01*
X0077180Y0159180D01*
X0077208Y0159221D01*
X0077180Y0159263D01*
X0076993Y0159716D01*
X0076897Y0160197D01*
X0076897Y0160737D01*
X0082634Y0160737D01*
X0088371Y0160737D01*
X0088371Y0160197D01*
X0088275Y0159716D01*
X0088088Y0159263D01*
X0088060Y0159221D01*
X0088088Y0159180D01*
X0088275Y0158727D01*
X0088371Y0158246D01*
X0088371Y0157706D01*
X0082634Y0157706D01*
X0082634Y0160737D01*
X0082634Y0160737D01*
X0088371Y0160737D01*
X0088371Y0161277D01*
X0088275Y0161758D01*
X0088088Y0162211D01*
X0088060Y0162253D01*
X0088088Y0162294D01*
X0088275Y0162747D01*
X0088371Y0163228D01*
X0088371Y0163768D01*
X0082634Y0163768D01*
X0082634Y0163768D01*
X0082634Y0160984D01*
X0082634Y0160737D01*
X0082634Y0160737D01*
X0082634Y0160737D01*
X0082634Y0157953D01*
X0082634Y0157706D01*
X0082634Y0157706D01*
X0082634Y0157705D01*
X0082634Y0157706D01*
X0076897Y0157706D01*
X0077073Y0159521D02*
X0072890Y0159521D01*
X0072890Y0161120D02*
X0076897Y0161120D01*
X0076897Y0161277D02*
X0076993Y0161758D01*
X0077180Y0162211D01*
X0077208Y0162253D01*
X0077180Y0162294D01*
X0076993Y0162747D01*
X0076897Y0163228D01*
X0076897Y0163768D01*
X0082634Y0163768D01*
X0082634Y0160737D01*
X0076897Y0160737D01*
X0076897Y0161277D01*
X0077005Y0162718D02*
X0072890Y0162718D01*
X0072890Y0164317D02*
X0076898Y0164317D01*
X0076897Y0164309D02*
X0076993Y0164790D01*
X0077180Y0165243D01*
X0077453Y0165650D01*
X0077799Y0165997D01*
X0078207Y0166269D01*
X0078660Y0166457D01*
X0079141Y0166553D01*
X0082634Y0166553D01*
X0086127Y0166553D01*
X0086608Y0166457D01*
X0087061Y0166269D01*
X0087469Y0165997D01*
X0087815Y0165650D01*
X0088088Y0165243D01*
X0088275Y0164790D01*
X0088371Y0164309D01*
X0088371Y0163769D01*
X0082634Y0163769D01*
X0082634Y0166553D01*
X0082634Y0163769D01*
X0082634Y0163769D01*
X0082634Y0163768D01*
X0082634Y0163769D01*
X0076897Y0163769D01*
X0076897Y0164309D01*
X0077717Y0165915D02*
X0072890Y0165915D01*
X0072890Y0167514D02*
X0095461Y0167514D01*
X0092692Y0169112D02*
X0072890Y0169112D01*
X0072890Y0170711D02*
X0089141Y0170711D01*
X0087550Y0165915D02*
X0098230Y0165915D01*
X0100372Y0164317D02*
X0088369Y0164317D01*
X0088263Y0162718D02*
X0102377Y0162718D01*
X0104381Y0161120D02*
X0088371Y0161120D01*
X0088195Y0159521D02*
X0106072Y0159521D01*
X0107555Y0157923D02*
X0088371Y0157923D01*
X0088126Y0156324D02*
X0109038Y0156324D01*
X0110521Y0154726D02*
X0088371Y0154726D01*
X0088039Y0153127D02*
X0111683Y0153127D01*
X0112773Y0151529D02*
X0088371Y0151529D01*
X0088033Y0149930D02*
X0113862Y0149930D01*
X0114952Y0148332D02*
X0088371Y0148332D01*
X0092293Y0146733D02*
X0115865Y0146733D01*
X0116635Y0145135D02*
X0093431Y0145135D01*
X0093684Y0143536D02*
X0117405Y0143536D01*
X0118174Y0141938D02*
X0106863Y0141938D01*
X0107711Y0140339D02*
X0118944Y0140339D01*
X0119464Y0138740D02*
X0107711Y0138740D01*
X0107711Y0137142D02*
X0119957Y0137142D01*
X0120450Y0135543D02*
X0106807Y0135543D01*
X0106184Y0133945D02*
X0120943Y0133945D01*
X0121436Y0132346D02*
X0106184Y0132346D01*
X0106802Y0130748D02*
X0121684Y0130748D01*
X0121925Y0129149D02*
X0107711Y0129149D01*
X0107711Y0127551D02*
X0122166Y0127551D01*
X0122407Y0125952D02*
X0107711Y0125952D01*
X0106867Y0124354D02*
X0122648Y0124354D01*
X0101810Y0141938D02*
X0100845Y0141938D01*
X0098431Y0141938D02*
X0098431Y0141938D01*
X0098431Y0140339D02*
X0098431Y0140339D01*
X0096018Y0141938D02*
X0094968Y0141938D01*
X0082634Y0146733D02*
X0082634Y0146733D01*
X0082634Y0148332D02*
X0082634Y0148332D01*
X0082634Y0149930D02*
X0082634Y0149930D01*
X0082634Y0151529D02*
X0082634Y0151529D01*
X0082634Y0153127D02*
X0082634Y0153127D01*
X0082634Y0154674D02*
X0082634Y0154674D01*
X0082634Y0154726D02*
X0082634Y0154726D01*
X0082634Y0156324D02*
X0082634Y0156324D01*
X0082634Y0157923D02*
X0082634Y0157923D01*
X0082634Y0159521D02*
X0082634Y0159521D01*
X0082634Y0160737D02*
X0082634Y0160737D01*
X0082634Y0161120D02*
X0082634Y0161120D01*
X0082634Y0162718D02*
X0082634Y0162718D01*
X0082634Y0164317D02*
X0082634Y0164317D01*
X0082634Y0165915D02*
X0082634Y0165915D01*
X0085069Y0172309D02*
X0072890Y0172309D01*
X0072890Y0173908D02*
X0078903Y0173908D01*
X0057269Y0145225D02*
X0051532Y0145225D01*
X0057269Y0145225D01*
X0051532Y0145225D02*
X0051532Y0145225D01*
X0057269Y0138740D02*
X0059233Y0138740D01*
X0059182Y0132346D02*
X0057269Y0132346D01*
X0045808Y0133945D02*
X0031934Y0133945D01*
X0031934Y0135543D02*
X0045795Y0135543D01*
X0046033Y0137142D02*
X0038405Y0137142D01*
X0038961Y0138740D02*
X0041038Y0138740D01*
X0040009Y0140339D02*
X0038961Y0140339D01*
X0038933Y0141938D02*
X0039834Y0141938D01*
X0040356Y0143536D02*
X0017863Y0143536D01*
X0017093Y0141938D02*
X0026306Y0141938D01*
X0026306Y0140339D02*
X0016324Y0140339D01*
X0015804Y0138740D02*
X0026306Y0138740D01*
X0026862Y0137142D02*
X0015311Y0137142D01*
X0014818Y0135543D02*
X0027334Y0135543D01*
X0027334Y0133945D02*
X0014325Y0133945D01*
X0013832Y0132346D02*
X0027334Y0132346D01*
X0026306Y0130748D02*
X0013584Y0130748D01*
X0013343Y0129149D02*
X0026306Y0129149D01*
X0026306Y0127551D02*
X0013102Y0127551D01*
X0012861Y0125952D02*
X0026802Y0125952D01*
X0024564Y0119724D02*
X0028132Y0118246D01*
X0030862Y0115516D01*
X0032339Y0111949D01*
X0032339Y0108088D01*
X0030862Y0104521D01*
X0028132Y0101791D01*
X0024564Y0100313D01*
X0020703Y0100313D01*
X0017136Y0101791D01*
X0014406Y0104521D01*
X0012928Y0108088D01*
X0012928Y0111949D01*
X0014406Y0115516D01*
X0017136Y0118246D01*
X0020703Y0119724D01*
X0024564Y0119724D01*
X0024964Y0119558D02*
X0035084Y0119558D01*
X0035084Y0117960D02*
X0028418Y0117960D01*
X0030017Y0116361D02*
X0035084Y0116361D01*
X0035084Y0114763D02*
X0031174Y0114763D01*
X0031836Y0113164D02*
X0035084Y0113164D01*
X0035084Y0111566D02*
X0032339Y0111566D01*
X0032339Y0109967D02*
X0035084Y0109967D01*
X0035084Y0108369D02*
X0032339Y0108369D01*
X0031794Y0106770D02*
X0034633Y0106770D01*
X0033034Y0105172D02*
X0031131Y0105172D01*
X0031436Y0103573D02*
X0029914Y0103573D01*
X0029837Y0101975D02*
X0028316Y0101975D01*
X0028239Y0100376D02*
X0024717Y0100376D01*
X0026640Y0098778D02*
X0012434Y0098778D01*
X0012434Y0100376D02*
X0020551Y0100376D01*
X0016952Y0101975D02*
X0012434Y0101975D01*
X0012434Y0103573D02*
X0015353Y0103573D01*
X0014136Y0105172D02*
X0012434Y0105172D01*
X0012434Y0106770D02*
X0013474Y0106770D01*
X0012928Y0108369D02*
X0012434Y0108369D01*
X0012434Y0109967D02*
X0012928Y0109967D01*
X0012928Y0111566D02*
X0012434Y0111566D01*
X0012434Y0113164D02*
X0013432Y0113164D01*
X0014094Y0114763D02*
X0012434Y0114763D01*
X0012434Y0116361D02*
X0015251Y0116361D01*
X0016850Y0117960D02*
X0012434Y0117960D01*
X0012434Y0119558D02*
X0020303Y0119558D01*
X0012476Y0121157D02*
X0036020Y0121157D01*
X0037618Y0122755D02*
X0012536Y0122755D01*
X0012620Y0124354D02*
X0039217Y0124354D01*
X0038466Y0125952D02*
X0040815Y0125952D01*
X0040926Y0119558D02*
X0041584Y0119558D01*
X0041584Y0117960D02*
X0039684Y0117960D01*
X0039684Y0116361D02*
X0041584Y0116361D01*
X0041584Y0114763D02*
X0039684Y0114763D01*
X0039684Y0113164D02*
X0041584Y0113164D01*
X0041584Y0111566D02*
X0039684Y0111566D01*
X0039684Y0109967D02*
X0041584Y0109967D01*
X0041584Y0108369D02*
X0039684Y0108369D01*
X0039684Y0106770D02*
X0041584Y0106770D01*
X0041584Y0105172D02*
X0039540Y0105172D01*
X0037941Y0103573D02*
X0041584Y0103573D01*
X0041584Y0101975D02*
X0036343Y0101975D01*
X0034744Y0100376D02*
X0041584Y0100376D01*
X0041584Y0098778D02*
X0033146Y0098778D01*
X0031547Y0097179D02*
X0041584Y0097179D01*
X0041584Y0095581D02*
X0029949Y0095581D01*
X0028350Y0093982D02*
X0041584Y0093982D01*
X0041584Y0092384D02*
X0026752Y0092384D01*
X0028907Y0090785D02*
X0031306Y0090785D01*
X0031306Y0089187D02*
X0028961Y0089187D01*
X0028961Y0087588D02*
X0031306Y0087588D01*
X0031765Y0085990D02*
X0028503Y0085990D01*
X0025587Y0085990D02*
X0025587Y0085990D01*
X0025587Y0087588D02*
X0025587Y0087588D01*
X0022670Y0085990D02*
X0022597Y0085990D01*
X0022184Y0084391D02*
X0032381Y0084391D01*
X0032381Y0082793D02*
X0022184Y0082793D01*
X0022184Y0081194D02*
X0032381Y0081194D01*
X0032381Y0079596D02*
X0022184Y0079596D01*
X0022184Y0077997D02*
X0032381Y0077997D01*
X0032381Y0076399D02*
X0022184Y0076399D01*
X0017584Y0076399D02*
X0012434Y0076399D01*
X0012434Y0077997D02*
X0017584Y0077997D01*
X0017584Y0079596D02*
X0012434Y0079596D01*
X0012434Y0081194D02*
X0017584Y0081194D01*
X0017584Y0082793D02*
X0012434Y0082793D01*
X0012434Y0084391D02*
X0017584Y0084391D01*
X0016765Y0085990D02*
X0012434Y0085990D01*
X0012434Y0087588D02*
X0016306Y0087588D01*
X0016306Y0089187D02*
X0012434Y0089187D01*
X0012434Y0090785D02*
X0016306Y0090785D01*
X0012434Y0092384D02*
X0020246Y0092384D01*
X0021845Y0093982D02*
X0012434Y0093982D01*
X0012434Y0095581D02*
X0023443Y0095581D01*
X0025042Y0097179D02*
X0012434Y0097179D01*
X0012434Y0074800D02*
X0016306Y0074800D01*
X0016306Y0073202D02*
X0012434Y0073202D01*
X0012434Y0071603D02*
X0016306Y0071603D01*
X0016500Y0070004D02*
X0012434Y0070004D01*
X0012434Y0068406D02*
X0023287Y0068406D01*
X0023287Y0066807D02*
X0012434Y0066807D01*
X0012434Y0065209D02*
X0022675Y0065209D01*
X0022406Y0063610D02*
X0012434Y0063610D01*
X0012434Y0062012D02*
X0022806Y0062012D01*
X0024113Y0060413D02*
X0012434Y0060413D01*
X0012434Y0058815D02*
X0045085Y0058815D01*
X0046683Y0057216D02*
X0012434Y0057216D01*
X0012434Y0055618D02*
X0048282Y0055618D01*
X0049880Y0054019D02*
X0012434Y0054019D01*
X0012434Y0052421D02*
X0051479Y0052421D01*
X0053077Y0050822D02*
X0012434Y0050822D01*
X0012434Y0049224D02*
X0054676Y0049224D01*
X0056274Y0047625D02*
X0012434Y0047625D01*
X0028654Y0060413D02*
X0043486Y0060413D01*
X0041888Y0062012D02*
X0029962Y0062012D01*
X0030362Y0063610D02*
X0040289Y0063610D01*
X0038691Y0065209D02*
X0030093Y0065209D01*
X0028971Y0066807D02*
X0037092Y0066807D01*
X0035494Y0068406D02*
X0027887Y0068406D01*
X0028768Y0070004D02*
X0031500Y0070004D01*
X0031306Y0071603D02*
X0028961Y0071603D01*
X0028961Y0073202D02*
X0031306Y0073202D01*
X0031306Y0074800D02*
X0028961Y0074800D01*
X0046184Y0074800D02*
X0052600Y0074800D01*
X0051584Y0076399D02*
X0046184Y0076399D01*
X0046184Y0077997D02*
X0051584Y0077997D01*
X0051584Y0079596D02*
X0046184Y0079596D01*
X0046184Y0081194D02*
X0051584Y0081194D01*
X0051584Y0082793D02*
X0046184Y0082793D01*
X0046184Y0084391D02*
X0051584Y0084391D01*
X0051584Y0085990D02*
X0046184Y0085990D01*
X0046184Y0087588D02*
X0051584Y0087588D01*
X0051584Y0089187D02*
X0046184Y0089187D01*
X0046184Y0090785D02*
X0051584Y0090785D01*
X0051584Y0092384D02*
X0046184Y0092384D01*
X0046184Y0093982D02*
X0052845Y0093982D01*
X0054443Y0095581D02*
X0046184Y0095581D01*
X0046184Y0097179D02*
X0056042Y0097179D01*
X0057541Y0101975D02*
X0046184Y0101975D01*
X0046184Y0103573D02*
X0056275Y0103573D01*
X0056228Y0105172D02*
X0046184Y0105172D01*
X0046184Y0106770D02*
X0056228Y0106770D01*
X0051532Y0108369D02*
X0051531Y0108369D01*
X0051532Y0109967D02*
X0051531Y0109967D01*
X0046679Y0108369D02*
X0046184Y0108369D01*
X0060483Y0101975D02*
X0060691Y0101975D01*
X0063632Y0101975D02*
X0063840Y0101975D01*
X0066782Y0101975D02*
X0066990Y0101975D01*
X0072164Y0113164D02*
X0073963Y0113164D01*
X0075557Y0113164D02*
X0076897Y0113164D01*
X0077544Y0108369D02*
X0077781Y0108369D01*
X0082634Y0108369D02*
X0082634Y0108369D01*
X0082634Y0109967D02*
X0082634Y0109967D01*
X0077057Y0124354D02*
X0069843Y0124354D01*
X0070952Y0125952D02*
X0076897Y0125952D01*
X0077076Y0127551D02*
X0071184Y0127551D01*
X0072517Y0129149D02*
X0076897Y0129149D01*
X0077096Y0130748D02*
X0074116Y0130748D01*
X0075714Y0132346D02*
X0076897Y0132346D01*
X0045795Y0145135D02*
X0044834Y0145135D01*
X0042434Y0145135D02*
X0018633Y0145135D01*
X0032500Y0137142D02*
X0032768Y0137142D01*
X0031934Y0132346D02*
X0044209Y0132346D01*
X0035587Y0137142D02*
X0035587Y0137142D01*
X0035587Y0138740D02*
X0035587Y0138740D01*
X0035587Y0140339D02*
X0035587Y0140339D01*
X0035587Y0141938D02*
X0035587Y0141938D01*
X0032708Y0125952D02*
X0032560Y0125952D01*
X0046184Y0073202D02*
X0054198Y0073202D01*
X0055135Y0071603D02*
X0046184Y0071603D01*
X0046184Y0070004D02*
X0055135Y0070004D01*
X0055135Y0068406D02*
X0046184Y0068406D01*
X0046598Y0066807D02*
X0056120Y0066807D01*
X0056200Y0065209D02*
X0048196Y0065209D01*
X0049795Y0063610D02*
X0055223Y0063610D01*
X0055084Y0062012D02*
X0051393Y0062012D01*
X0052992Y0060413D02*
X0055643Y0060413D01*
X0054590Y0058815D02*
X0057895Y0058815D01*
X0056189Y0057216D02*
X0069584Y0057216D01*
X0068788Y0055618D02*
X0057787Y0055618D01*
X0059872Y0058815D02*
X0065463Y0058815D01*
X0064332Y0060413D02*
X0062125Y0060413D01*
X0062684Y0062012D02*
X0064084Y0062012D01*
X0064534Y0063610D02*
X0062545Y0063610D01*
X0061577Y0065209D02*
X0065584Y0065209D01*
X0065372Y0066807D02*
X0064974Y0066807D01*
X0065658Y0041231D02*
X0069610Y0041231D01*
X0068449Y0039633D02*
X0066819Y0039633D01*
X0067206Y0038034D02*
X0068062Y0038034D01*
X0068062Y0036436D02*
X0067206Y0036436D01*
X0067206Y0034837D02*
X0068062Y0034837D01*
X0068062Y0033239D02*
X0067206Y0033239D01*
X0067206Y0031640D02*
X0068062Y0031640D01*
X0068599Y0030042D02*
X0066669Y0030042D01*
X0066212Y0028443D02*
X0069972Y0028443D01*
D19*
X0082634Y0070019D03*
X0103884Y0065019D03*
X0115134Y0070019D03*
X0103884Y0102519D03*
X0050134Y0100019D03*
X0023884Y0132519D03*
D20*
X0029681Y0128769D02*
X0029634Y0127769D01*
X0029634Y0138769D01*
X0029681Y0140019D01*
X0035634Y0129019D02*
X0035587Y0128769D01*
X0035634Y0129019D02*
X0044134Y0129019D01*
X0047884Y0132769D01*
X0050884Y0132769D01*
X0051531Y0132627D01*
X0050884Y0129769D02*
X0051531Y0129477D01*
X0050884Y0129769D02*
X0047884Y0129769D01*
X0037384Y0119269D01*
X0037384Y0106269D01*
X0019884Y0088769D01*
X0019681Y0088769D01*
X0019884Y0088769D02*
X0019884Y0072769D01*
X0019681Y0072519D01*
X0025587Y0072519D02*
X0025587Y0064566D01*
X0026384Y0063769D01*
X0035384Y0071769D02*
X0034681Y0072519D01*
X0034681Y0088769D01*
X0040587Y0088769D02*
X0043884Y0088769D01*
X0043884Y0066269D01*
X0057634Y0052519D01*
X0071384Y0052519D01*
X0071394Y0052331D01*
X0074884Y0048769D02*
X0058384Y0048769D01*
X0035384Y0071769D01*
X0040587Y0072519D02*
X0041384Y0072519D01*
X0041384Y0073769D01*
X0040134Y0075019D01*
X0040134Y0080019D01*
X0043884Y0088769D02*
X0043884Y0122769D01*
X0046884Y0125769D01*
X0050884Y0125769D01*
X0051531Y0126328D01*
X0051531Y0135776D02*
X0061126Y0135776D01*
X0061384Y0135519D01*
X0067384Y0127269D02*
X0078884Y0138769D01*
X0081884Y0138769D01*
X0082634Y0138926D01*
X0082634Y0135776D02*
X0082884Y0135769D01*
X0086884Y0135769D01*
X0093884Y0128769D01*
X0093884Y0108019D01*
X0079634Y0093769D01*
X0074884Y0093769D01*
X0072884Y0091769D01*
X0072884Y0088769D01*
X0072358Y0087893D01*
X0076886Y0087893D02*
X0077884Y0088769D01*
X0097884Y0108769D01*
X0097884Y0119769D01*
X0098431Y0127519D02*
X0097884Y0127769D01*
X0097884Y0133769D01*
X0093884Y0137769D01*
X0093884Y0139769D01*
X0089884Y0143769D01*
X0086884Y0141769D02*
X0089884Y0138769D01*
X0089884Y0137769D01*
X0086884Y0141769D02*
X0082884Y0141769D01*
X0082634Y0142076D01*
X0089884Y0127769D02*
X0089884Y0116769D01*
X0086884Y0113769D01*
X0091384Y0109269D01*
X0091384Y0108519D01*
X0078634Y0095769D01*
X0057884Y0095769D01*
X0053884Y0091769D01*
X0053884Y0076769D01*
X0057884Y0072769D01*
X0058185Y0072538D01*
X0062909Y0072538D02*
X0062884Y0071769D01*
X0062884Y0069769D01*
X0058884Y0065769D01*
X0058884Y0062519D01*
X0067884Y0061769D02*
X0067884Y0064769D01*
X0071884Y0068769D01*
X0071884Y0071769D01*
X0072358Y0072341D01*
X0072884Y0064769D02*
X0071884Y0063769D01*
X0071884Y0057769D01*
X0077884Y0051769D01*
X0078874Y0052331D01*
X0077884Y0051769D02*
X0074884Y0048769D01*
X0082884Y0048269D02*
X0072634Y0035019D01*
X0066384Y0025019D02*
X0062634Y0028769D01*
X0062634Y0035019D01*
X0066384Y0025019D02*
X0087634Y0025019D01*
X0098884Y0038894D01*
X0105884Y0038769D01*
X0106394Y0038650D01*
X0106384Y0035019D01*
X0106634Y0033519D01*
X0113134Y0033519D01*
X0114134Y0035769D01*
X0114134Y0037769D01*
X0113874Y0038650D01*
X0113884Y0044769D02*
X0113874Y0048887D01*
X0113884Y0044769D02*
X0113884Y0060769D01*
X0115587Y0061269D01*
X0116384Y0061769D01*
X0108384Y0069769D01*
X0088134Y0069769D01*
X0083134Y0064769D01*
X0072884Y0064769D01*
X0075134Y0060599D02*
X0075884Y0060769D01*
X0082884Y0060769D01*
X0082884Y0048269D01*
X0082884Y0060769D02*
X0091884Y0060769D01*
X0092181Y0061269D01*
X0098087Y0061269D02*
X0098884Y0060769D01*
X0098884Y0038894D01*
X0088134Y0069769D02*
X0088134Y0077519D01*
X0077884Y0087769D01*
X0076886Y0087893D01*
X0088884Y0088769D02*
X0113884Y0088769D01*
X0113884Y0077769D01*
X0113913Y0076918D01*
X0113884Y0088769D02*
X0113884Y0095769D01*
X0114307Y0095816D01*
X0104337Y0127519D02*
X0103884Y0127769D01*
X0103884Y0138769D01*
X0104337Y0138769D01*
X0086884Y0113769D02*
X0082884Y0113769D01*
X0082634Y0113729D01*
X0051531Y0138926D02*
X0050884Y0138769D01*
X0047884Y0138769D01*
X0043634Y0141769D01*
X0043634Y0141519D01*
D21*
X0043634Y0141519D03*
X0061384Y0135519D03*
X0067384Y0127269D03*
X0089884Y0127769D03*
X0089884Y0137769D03*
X0089884Y0143769D03*
X0097884Y0119769D03*
X0088884Y0088769D03*
X0067884Y0061769D03*
X0058884Y0062519D03*
X0040134Y0080019D03*
D22*
X0026384Y0063769D03*
M02*
