G75*
%MOIN*%
%OFA0B0*%
%FSLAX25Y25*%
%IPPOS*%
%LPD*%
%AMOC8*
5,1,8,0,0,1.08239X$1,22.5*
%
%ADD10C,0.00300*%
%ADD11C,0.00800*%
%ADD12C,0.00100*%
%ADD13C,0.00500*%
%ADD14C,0.00400*%
%ADD15C,0.00000*%
%ADD16C,0.01000*%
%ADD17C,0.00600*%
%ADD18C,0.00200*%
%ADD19R,0.00460X0.00011*%
%ADD20R,0.00920X0.00011*%
%ADD21R,0.01184X0.00011*%
%ADD22R,0.01426X0.00011*%
%ADD23R,0.01610X0.00011*%
%ADD24R,0.01783X0.00011*%
%ADD25R,0.01955X0.00011*%
%ADD26R,0.02093X0.00011*%
%ADD27R,0.02242X0.00011*%
%ADD28R,0.02369X0.00011*%
%ADD29R,0.02495X0.00011*%
%ADD30R,0.02611X0.00011*%
%ADD31R,0.02714X0.00011*%
%ADD32R,0.02829X0.00011*%
%ADD33R,0.02921X0.00011*%
%ADD34R,0.03025X0.00011*%
%ADD35R,0.03128X0.00011*%
%ADD36R,0.03220X0.00011*%
%ADD37R,0.03300X0.00011*%
%ADD38R,0.03392X0.00011*%
%ADD39R,0.03473X0.00011*%
%ADD40R,0.03565X0.00011*%
%ADD41R,0.03645X0.00011*%
%ADD42R,0.03726X0.00011*%
%ADD43R,0.03806X0.00011*%
%ADD44R,0.03875X0.00011*%
%ADD45R,0.03956X0.00011*%
%ADD46R,0.04013X0.00011*%
%ADD47R,0.04082X0.00011*%
%ADD48R,0.04163X0.00011*%
%ADD49R,0.04232X0.00011*%
%ADD50R,0.04301X0.00011*%
%ADD51R,0.04370X0.00011*%
%ADD52R,0.04428X0.00011*%
%ADD53R,0.04497X0.00011*%
%ADD54R,0.04554X0.00011*%
%ADD55R,0.04623X0.00011*%
%ADD56R,0.04680X0.00011*%
%ADD57R,0.04749X0.00011*%
%ADD58R,0.04807X0.00011*%
%ADD59R,0.04864X0.00011*%
%ADD60R,0.04933X0.00011*%
%ADD61R,0.04979X0.00011*%
%ADD62R,0.05037X0.00011*%
%ADD63R,0.05094X0.00011*%
%ADD64R,0.05141X0.00011*%
%ADD65R,0.05209X0.00011*%
%ADD66R,0.05267X0.00011*%
%ADD67R,0.05313X0.00011*%
%ADD68R,0.05370X0.00011*%
%ADD69R,0.05416X0.00011*%
%ADD70R,0.05474X0.00011*%
%ADD71R,0.05520X0.00011*%
%ADD72R,0.05577X0.00011*%
%ADD73R,0.05635X0.00011*%
%ADD74R,0.05681X0.00011*%
%ADD75R,0.05738X0.00011*%
%ADD76R,0.05784X0.00011*%
%ADD77R,0.05842X0.00011*%
%ADD78R,0.05877X0.00011*%
%ADD79R,0.05922X0.00011*%
%ADD80R,0.05980X0.00011*%
%ADD81R,0.06014X0.00011*%
%ADD82R,0.06061X0.00011*%
%ADD83R,0.06118X0.00011*%
%ADD84R,0.06164X0.00011*%
%ADD85R,0.06198X0.00011*%
%ADD86R,0.06256X0.00011*%
%ADD87R,0.06302X0.00011*%
%ADD88R,0.06348X0.00011*%
%ADD89R,0.06394X0.00011*%
%ADD90R,0.06440X0.00011*%
%ADD91R,0.06475X0.00011*%
%ADD92R,0.06532X0.00011*%
%ADD93R,0.06566X0.00011*%
%ADD94R,0.06613X0.00011*%
%ADD95R,0.06647X0.00011*%
%ADD96R,0.06693X0.00011*%
%ADD97R,0.06739X0.00011*%
%ADD98R,0.06773X0.00011*%
%ADD99R,0.06831X0.00011*%
%ADD100R,0.06866X0.00011*%
%ADD101R,0.06911X0.00011*%
%ADD102R,0.06946X0.00011*%
%ADD103R,0.06980X0.00011*%
%ADD104R,0.07027X0.00011*%
%ADD105R,0.07061X0.00011*%
%ADD106R,0.07118X0.00011*%
%ADD107R,0.07153X0.00011*%
%ADD108R,0.07187X0.00011*%
%ADD109R,0.07233X0.00011*%
%ADD110R,0.07268X0.00011*%
%ADD111R,0.07314X0.00011*%
%ADD112R,0.07348X0.00011*%
%ADD113R,0.07372X0.00011*%
%ADD114R,0.07417X0.00011*%
%ADD115R,0.07452X0.00011*%
%ADD116R,0.07486X0.00011*%
%ADD117R,0.07521X0.00011*%
%ADD118R,0.07567X0.00011*%
%ADD119R,0.07602X0.00011*%
%ADD120R,0.07636X0.00011*%
%ADD121R,0.07682X0.00011*%
%ADD122R,0.07716X0.00011*%
%ADD123R,0.07751X0.00011*%
%ADD124R,0.07786X0.00011*%
%ADD125R,0.07831X0.00011*%
%ADD126R,0.07866X0.00011*%
%ADD127R,0.07889X0.00011*%
%ADD128R,0.07923X0.00011*%
%ADD129R,0.07958X0.00011*%
%ADD130R,0.08004X0.00011*%
%ADD131R,0.08038X0.00011*%
%ADD132R,0.08061X0.00011*%
%ADD133R,0.08096X0.00011*%
%ADD134R,0.08130X0.00011*%
%ADD135R,0.08165X0.00011*%
%ADD136R,0.08211X0.00011*%
%ADD137R,0.08234X0.00011*%
%ADD138R,0.08269X0.00011*%
%ADD139R,0.08303X0.00011*%
%ADD140R,0.08338X0.00011*%
%ADD141R,0.08372X0.00011*%
%ADD142R,0.08395X0.00011*%
%ADD143R,0.08430X0.00011*%
%ADD144R,0.08464X0.00011*%
%ADD145R,0.08498X0.00011*%
%ADD146R,0.08533X0.00011*%
%ADD147R,0.04381X0.00011*%
%ADD148R,0.03818X0.00011*%
%ADD149R,0.04140X0.00011*%
%ADD150R,0.03622X0.00011*%
%ADD151R,0.04025X0.00011*%
%ADD152R,0.03496X0.00011*%
%ADD153R,0.03933X0.00011*%
%ADD154R,0.03864X0.00011*%
%ADD155R,0.03312X0.00011*%
%ADD156R,0.03795X0.00011*%
%ADD157R,0.03243X0.00011*%
%ADD158R,0.03737X0.00011*%
%ADD159R,0.03186X0.00011*%
%ADD160R,0.03680X0.00011*%
%ADD161R,0.03128X0.00011*%
%ADD162R,0.03082X0.00011*%
%ADD163R,0.03599X0.00011*%
%ADD164R,0.03036X0.00011*%
%ADD165R,0.03553X0.00011*%
%ADD166R,0.02990X0.00011*%
%ADD167R,0.03530X0.00011*%
%ADD168R,0.02944X0.00011*%
%ADD169R,0.02909X0.00011*%
%ADD170R,0.03461X0.00011*%
%ADD171R,0.02875X0.00011*%
%ADD172R,0.03439X0.00011*%
%ADD173R,0.02840X0.00011*%
%ADD174R,0.02806X0.00011*%
%ADD175R,0.03381X0.00011*%
%ADD176R,0.02783X0.00011*%
%ADD177R,0.03358X0.00011*%
%ADD178R,0.02760X0.00011*%
%ADD179R,0.03335X0.00011*%
%ADD180R,0.02725X0.00011*%
%ADD181R,0.02702X0.00011*%
%ADD182R,0.03289X0.00011*%
%ADD183R,0.02668X0.00011*%
%ADD184R,0.03266X0.00011*%
%ADD185R,0.02645X0.00011*%
%ADD186R,0.02622X0.00011*%
%ADD187R,0.03231X0.00011*%
%ADD188R,0.02599X0.00011*%
%ADD189R,0.03208X0.00011*%
%ADD190R,0.02587X0.00011*%
%ADD191R,0.03197X0.00011*%
%ADD192R,0.02564X0.00011*%
%ADD193R,0.03185X0.00011*%
%ADD194R,0.02541X0.00011*%
%ADD195R,0.03163X0.00011*%
%ADD196R,0.02519X0.00011*%
%ADD197R,0.03151X0.00011*%
%ADD198R,0.03139X0.00011*%
%ADD199R,0.02484X0.00011*%
%ADD200R,0.02449X0.00011*%
%ADD201R,0.03116X0.00011*%
%ADD202R,0.02438X0.00011*%
%ADD203R,0.03105X0.00011*%
%ADD204R,0.02415X0.00011*%
%ADD205R,0.02403X0.00011*%
%ADD206R,0.02380X0.00011*%
%ADD207R,0.03059X0.00011*%
%ADD208R,0.03059X0.00011*%
%ADD209R,0.02357X0.00011*%
%ADD210R,0.02346X0.00011*%
%ADD211R,0.02323X0.00011*%
%ADD212R,0.03024X0.00011*%
%ADD213R,0.02311X0.00011*%
%ADD214R,0.02289X0.00011*%
%ADD215R,0.03002X0.00011*%
%ADD216R,0.02277X0.00011*%
%ADD217R,0.02266X0.00011*%
%ADD218R,0.02231X0.00011*%
%ADD219R,0.02978X0.00011*%
%ADD220R,0.02219X0.00011*%
%ADD221R,0.02967X0.00011*%
%ADD222R,0.02197X0.00011*%
%ADD223R,0.02955X0.00011*%
%ADD224R,0.02185X0.00011*%
%ADD225R,0.02173X0.00011*%
%ADD226R,0.02162X0.00011*%
%ADD227R,0.02150X0.00011*%
%ADD228R,0.02933X0.00011*%
%ADD229R,0.02139X0.00011*%
%ADD230R,0.02932X0.00011*%
%ADD231R,0.02127X0.00011*%
%ADD232R,0.02104X0.00011*%
%ADD233R,0.02105X0.00011*%
%ADD234R,0.02898X0.00011*%
%ADD235R,0.02081X0.00011*%
%ADD236R,0.02070X0.00011*%
%ADD237R,0.02047X0.00011*%
%ADD238R,0.02898X0.00011*%
%ADD239R,0.02886X0.00011*%
%ADD240R,0.02036X0.00011*%
%ADD241R,0.02024X0.00011*%
%ADD242R,0.02001X0.00011*%
%ADD243R,0.02864X0.00011*%
%ADD244R,0.01989X0.00011*%
%ADD245R,0.02863X0.00011*%
%ADD246R,0.01978X0.00011*%
%ADD247R,0.02852X0.00011*%
%ADD248R,0.01943X0.00011*%
%ADD249R,0.01932X0.00011*%
%ADD250R,0.01920X0.00011*%
%ADD251R,0.01909X0.00011*%
%ADD252R,0.02841X0.00011*%
%ADD253R,0.01909X0.00011*%
%ADD254R,0.01897X0.00011*%
%ADD255R,0.01886X0.00011*%
%ADD256R,0.01875X0.00011*%
%ADD257R,0.01874X0.00011*%
%ADD258R,0.01863X0.00011*%
%ADD259R,0.01852X0.00011*%
%ADD260R,0.01840X0.00011*%
%ADD261R,0.01840X0.00011*%
%ADD262R,0.01817X0.00011*%
%ADD263R,0.01817X0.00011*%
%ADD264R,0.01805X0.00011*%
%ADD265R,0.01794X0.00011*%
%ADD266R,0.01771X0.00011*%
%ADD267R,0.01748X0.00011*%
%ADD268R,0.01748X0.00011*%
%ADD269R,0.02829X0.00011*%
%ADD270R,0.01736X0.00011*%
%ADD271R,0.01725X0.00011*%
%ADD272R,0.01713X0.00011*%
%ADD273R,0.01714X0.00011*%
%ADD274R,0.01702X0.00011*%
%ADD275R,0.01691X0.00011*%
%ADD276R,0.01679X0.00011*%
%ADD277R,0.01679X0.00011*%
%ADD278R,0.01667X0.00011*%
%ADD279R,0.01644X0.00011*%
%ADD280R,0.01633X0.00011*%
%ADD281R,0.01622X0.00011*%
%ADD282R,0.01621X0.00011*%
%ADD283R,0.01598X0.00011*%
%ADD284R,0.01587X0.00011*%
%ADD285R,0.01587X0.00011*%
%ADD286R,0.01575X0.00011*%
%ADD287R,0.01564X0.00011*%
%ADD288R,0.01552X0.00011*%
%ADD289R,0.01541X0.00011*%
%ADD290R,0.01553X0.00011*%
%ADD291R,0.01230X0.00011*%
%ADD292R,0.01529X0.00011*%
%ADD293R,0.00690X0.00011*%
%ADD294R,0.01242X0.00011*%
%ADD295R,0.01530X0.00011*%
%ADD296R,0.01000X0.00011*%
%ADD297R,0.01253X0.00011*%
%ADD298R,0.01265X0.00011*%
%ADD299R,0.01518X0.00011*%
%ADD300R,0.01438X0.00011*%
%ADD301R,0.01518X0.00011*%
%ADD302R,0.01277X0.00011*%
%ADD303R,0.01288X0.00011*%
%ADD304R,0.01506X0.00011*%
%ADD305R,0.02058X0.00011*%
%ADD306R,0.01299X0.00011*%
%ADD307R,0.01311X0.00011*%
%ADD308R,0.01495X0.00011*%
%ADD309R,0.02507X0.00011*%
%ADD310R,0.01322X0.00011*%
%ADD311R,0.02610X0.00011*%
%ADD312R,0.02967X0.00011*%
%ADD313R,0.02714X0.00011*%
%ADD314R,0.01334X0.00011*%
%ADD315R,0.01495X0.00011*%
%ADD316R,0.02806X0.00011*%
%ADD317R,0.01345X0.00011*%
%ADD318R,0.01483X0.00011*%
%ADD319R,0.03047X0.00011*%
%ADD320R,0.01472X0.00011*%
%ADD321R,0.02990X0.00011*%
%ADD322R,0.01357X0.00011*%
%ADD323R,0.03427X0.00011*%
%ADD324R,0.01369X0.00011*%
%ADD325R,0.03013X0.00011*%
%ADD326R,0.01460X0.00011*%
%ADD327R,0.01380X0.00011*%
%ADD328R,0.01461X0.00011*%
%ADD329R,0.03691X0.00011*%
%ADD330R,0.03760X0.00011*%
%ADD331R,0.01391X0.00011*%
%ADD332R,0.01449X0.00011*%
%ADD333R,0.03991X0.00011*%
%ADD334R,0.04048X0.00011*%
%ADD335R,0.01403X0.00011*%
%ADD336R,0.04094X0.00011*%
%ADD337R,0.04152X0.00011*%
%ADD338R,0.04197X0.00011*%
%ADD339R,0.01414X0.00011*%
%ADD340R,0.03070X0.00011*%
%ADD341R,0.04266X0.00011*%
%ADD342R,0.04312X0.00011*%
%ADD343R,0.04358X0.00011*%
%ADD344R,0.04404X0.00011*%
%ADD345R,0.03093X0.00011*%
%ADD346R,0.04450X0.00011*%
%ADD347R,0.01426X0.00011*%
%ADD348R,0.03094X0.00011*%
%ADD349R,0.04496X0.00011*%
%ADD350R,0.04589X0.00011*%
%ADD351R,0.04634X0.00011*%
%ADD352R,0.04727X0.00011*%
%ADD353R,0.04750X0.00011*%
%ADD354R,0.04795X0.00011*%
%ADD355R,0.04841X0.00011*%
%ADD356R,0.06359X0.00011*%
%ADD357R,0.06383X0.00011*%
%ADD358R,0.06405X0.00011*%
%ADD359R,0.03151X0.00011*%
%ADD360R,0.06417X0.00011*%
%ADD361R,0.06463X0.00011*%
%ADD362R,0.03174X0.00011*%
%ADD363R,0.06474X0.00011*%
%ADD364R,0.06497X0.00011*%
%ADD365R,0.06520X0.00011*%
%ADD366R,0.06555X0.00011*%
%ADD367R,0.02576X0.00011*%
%ADD368R,0.03277X0.00011*%
%ADD369R,0.03220X0.00011*%
%ADD370R,0.02427X0.00011*%
%ADD371R,0.02392X0.00011*%
%ADD372R,0.01403X0.00011*%
%ADD373R,0.02817X0.00011*%
%ADD374R,0.02771X0.00011*%
%ADD375R,0.03255X0.00011*%
%ADD376R,0.02196X0.00011*%
%ADD377R,0.02691X0.00011*%
%ADD378R,0.02645X0.00011*%
%ADD379R,0.01392X0.00011*%
%ADD380R,0.02576X0.00011*%
%ADD381R,0.02553X0.00011*%
%ADD382R,0.02035X0.00011*%
%ADD383R,0.02461X0.00011*%
%ADD384R,0.03323X0.00011*%
%ADD385R,0.02013X0.00011*%
%ADD386R,0.02001X0.00011*%
%ADD387R,0.02358X0.00011*%
%ADD388R,0.02334X0.00011*%
%ADD389R,0.03346X0.00011*%
%ADD390R,0.01978X0.00011*%
%ADD391R,0.01966X0.00011*%
%ADD392R,0.02288X0.00011*%
%ADD393R,0.01944X0.00011*%
%ADD394R,0.03404X0.00011*%
%ADD395R,0.03404X0.00011*%
%ADD396R,0.03416X0.00011*%
%ADD397R,0.02070X0.00011*%
%ADD398R,0.03438X0.00011*%
%ADD399R,0.03450X0.00011*%
%ADD400R,0.01851X0.00011*%
%ADD401R,0.03473X0.00011*%
%ADD402R,0.03484X0.00011*%
%ADD403R,0.01828X0.00011*%
%ADD404R,0.03519X0.00011*%
%ADD405R,0.01806X0.00011*%
%ADD406R,0.03542X0.00011*%
%ADD407R,0.03565X0.00011*%
%ADD408R,0.01782X0.00011*%
%ADD409R,0.03577X0.00011*%
%ADD410R,0.03588X0.00011*%
%ADD411R,0.03611X0.00011*%
%ADD412R,0.01759X0.00011*%
%ADD413R,0.03634X0.00011*%
%ADD414R,0.03657X0.00011*%
%ADD415R,0.03703X0.00011*%
%ADD416R,0.03714X0.00011*%
%ADD417R,0.01656X0.00011*%
%ADD418R,0.03726X0.00011*%
%ADD419R,0.03761X0.00011*%
%ADD420R,0.03772X0.00011*%
%ADD421R,0.03783X0.00011*%
%ADD422R,0.03795X0.00011*%
%ADD423R,0.03830X0.00011*%
%ADD424R,0.03841X0.00011*%
%ADD425R,0.03852X0.00011*%
%ADD426R,0.03864X0.00011*%
%ADD427R,0.03887X0.00011*%
%ADD428R,0.03898X0.00011*%
%ADD429R,0.03910X0.00011*%
%ADD430R,0.03922X0.00011*%
%ADD431R,0.03944X0.00011*%
%ADD432R,0.03967X0.00011*%
%ADD433R,0.03979X0.00011*%
%ADD434R,0.03990X0.00011*%
%ADD435R,0.04002X0.00011*%
%ADD436R,0.04014X0.00011*%
%ADD437R,0.04059X0.00011*%
%ADD438R,0.04071X0.00011*%
%ADD439R,0.04083X0.00011*%
%ADD440R,0.04105X0.00011*%
%ADD441R,0.04117X0.00011*%
%ADD442R,0.04128X0.00011*%
%ADD443R,0.04151X0.00011*%
%ADD444R,0.01690X0.00011*%
%ADD445R,0.04174X0.00011*%
%ADD446R,0.04186X0.00011*%
%ADD447R,0.04209X0.00011*%
%ADD448R,0.04220X0.00011*%
%ADD449R,0.04244X0.00011*%
%ADD450R,0.04255X0.00011*%
%ADD451R,0.04278X0.00011*%
%ADD452R,0.04289X0.00011*%
%ADD453R,0.04301X0.00011*%
%ADD454R,0.04324X0.00011*%
%ADD455R,0.04336X0.00011*%
%ADD456R,0.04347X0.00011*%
%ADD457R,0.04370X0.00011*%
%ADD458R,0.04393X0.00011*%
%ADD459R,0.04405X0.00011*%
%ADD460R,0.04416X0.00011*%
%ADD461R,0.04427X0.00011*%
%ADD462R,0.04439X0.00011*%
%ADD463R,0.04462X0.00011*%
%ADD464R,0.04473X0.00011*%
%ADD465R,0.04485X0.00011*%
%ADD466R,0.04508X0.00011*%
%ADD467R,0.04519X0.00011*%
%ADD468R,0.04531X0.00011*%
%ADD469R,0.04542X0.00011*%
%ADD470R,0.04566X0.00011*%
%ADD471R,0.04577X0.00011*%
%ADD472R,0.04600X0.00011*%
%ADD473R,0.04611X0.00011*%
%ADD474R,0.04623X0.00011*%
%ADD475R,0.04646X0.00011*%
%ADD476R,0.04658X0.00011*%
%ADD477R,0.04669X0.00011*%
%ADD478R,0.04692X0.00011*%
%ADD479R,0.04703X0.00011*%
%ADD480R,0.04715X0.00011*%
%ADD481R,0.04738X0.00011*%
%ADD482R,0.04761X0.00011*%
%ADD483R,0.04772X0.00011*%
%ADD484R,0.04784X0.00011*%
%ADD485R,0.04818X0.00011*%
%ADD486R,0.04830X0.00011*%
%ADD487R,0.04853X0.00011*%
%ADD488R,0.04876X0.00011*%
%ADD489R,0.03749X0.00011*%
%ADD490R,0.04888X0.00011*%
%ADD491R,0.04899X0.00011*%
%ADD492R,0.04911X0.00011*%
%ADD493R,0.04922X0.00011*%
%ADD494R,0.04945X0.00011*%
%ADD495R,0.04956X0.00011*%
%ADD496R,0.04968X0.00011*%
%ADD497R,0.04980X0.00011*%
%ADD498R,0.04991X0.00011*%
%ADD499R,0.05003X0.00011*%
%ADD500R,0.05014X0.00011*%
%ADD501R,0.05025X0.00011*%
%ADD502R,0.05048X0.00011*%
%ADD503R,0.05060X0.00011*%
%ADD504R,0.05072X0.00011*%
%ADD505R,0.05083X0.00011*%
%ADD506R,0.05106X0.00011*%
%ADD507R,0.05117X0.00011*%
%ADD508R,0.05129X0.00011*%
%ADD509R,0.05152X0.00011*%
%ADD510R,0.05164X0.00011*%
%ADD511R,0.05175X0.00011*%
%ADD512R,0.05186X0.00011*%
%ADD513R,0.05198X0.00011*%
%ADD514R,0.05221X0.00011*%
%ADD515R,0.05232X0.00011*%
%ADD516R,0.05244X0.00011*%
%ADD517R,0.05255X0.00011*%
%ADD518R,0.05278X0.00011*%
%ADD519R,0.05290X0.00011*%
%ADD520R,0.05302X0.00011*%
%ADD521R,0.05324X0.00011*%
%ADD522R,0.05336X0.00011*%
%ADD523R,0.05347X0.00011*%
%ADD524R,0.05359X0.00011*%
%ADD525R,0.02116X0.00011*%
%ADD526R,0.05382X0.00011*%
%ADD527R,0.05394X0.00011*%
%ADD528R,0.05405X0.00011*%
%ADD529R,0.02162X0.00011*%
%ADD530R,0.05428X0.00011*%
%ADD531R,0.05439X0.00011*%
%ADD532R,0.05451X0.00011*%
%ADD533R,0.05462X0.00011*%
%ADD534R,0.02208X0.00011*%
%ADD535R,0.05485X0.00011*%
%ADD536R,0.02231X0.00011*%
%ADD537R,0.05497X0.00011*%
%ADD538R,0.05508X0.00011*%
%ADD539R,0.02254X0.00011*%
%ADD540R,0.05520X0.00011*%
%ADD541R,0.05531X0.00011*%
%ADD542R,0.05543X0.00011*%
%ADD543R,0.05555X0.00011*%
%ADD544R,0.05566X0.00011*%
%ADD545R,0.05578X0.00011*%
%ADD546R,0.05589X0.00011*%
%ADD547R,0.05600X0.00011*%
%ADD548R,0.05612X0.00011*%
%ADD549R,0.05623X0.00011*%
%ADD550R,0.02392X0.00011*%
%ADD551R,0.05646X0.00011*%
%ADD552R,0.02415X0.00011*%
%ADD553R,0.05658X0.00011*%
%ADD554R,0.05669X0.00011*%
%ADD555R,0.02450X0.00011*%
%ADD556R,0.05681X0.00011*%
%ADD557R,0.02472X0.00011*%
%ADD558R,0.05692X0.00011*%
%ADD559R,0.05704X0.00011*%
%ADD560R,0.05716X0.00011*%
%ADD561R,0.05727X0.00011*%
%ADD562R,0.02530X0.00011*%
%ADD563R,0.05739X0.00011*%
%ADD564R,0.02553X0.00011*%
%ADD565R,0.01219X0.00011*%
%ADD566R,0.01196X0.00011*%
%ADD567R,0.02633X0.00011*%
%ADD568R,0.03381X0.00011*%
%ADD569R,0.01173X0.00011*%
%ADD570R,0.01150X0.00011*%
%ADD571R,0.02656X0.00011*%
%ADD572R,0.01127X0.00011*%
%ADD573R,0.01116X0.00011*%
%ADD574R,0.03254X0.00011*%
%ADD575R,0.01092X0.00011*%
%ADD576R,0.01081X0.00011*%
%ADD577R,0.01058X0.00011*%
%ADD578R,0.01047X0.00011*%
%ADD579R,0.02737X0.00011*%
%ADD580R,0.01035X0.00011*%
%ADD581R,0.02748X0.00011*%
%ADD582R,0.01023X0.00011*%
%ADD583R,0.01012X0.00011*%
%ADD584R,0.02794X0.00011*%
%ADD585R,0.00989X0.00011*%
%ADD586R,0.00978X0.00011*%
%ADD587R,0.00966X0.00011*%
%ADD588R,0.00954X0.00011*%
%ADD589R,0.00955X0.00011*%
%ADD590R,0.00943X0.00011*%
%ADD591R,0.00931X0.00011*%
%ADD592R,0.02680X0.00011*%
%ADD593R,0.00920X0.00011*%
%ADD594R,0.02542X0.00011*%
%ADD595R,0.02426X0.00011*%
%ADD596R,0.02323X0.00011*%
%ADD597R,0.02300X0.00011*%
%ADD598R,0.03369X0.00011*%
%ADD599R,0.00977X0.00011*%
%ADD600R,0.00989X0.00011*%
%ADD601R,0.01656X0.00011*%
%ADD602R,0.01012X0.00011*%
%ADD603R,0.01046X0.00011*%
%ADD604R,0.01069X0.00011*%
%ADD605R,0.01139X0.00011*%
%ADD606R,0.03669X0.00011*%
%ADD607R,0.00908X0.00011*%
%ADD608R,0.00828X0.00011*%
%ADD609R,0.01104X0.00011*%
%ADD610R,0.00759X0.00011*%
%ADD611R,0.00678X0.00011*%
%ADD612R,0.00575X0.00011*%
%ADD613R,0.00448X0.00011*%
%ADD614R,0.00264X0.00011*%
%ADD615R,0.01138X0.00011*%
%ADD616R,0.01161X0.00011*%
%ADD617R,0.01173X0.00011*%
%ADD618R,0.03853X0.00011*%
%ADD619R,0.01208X0.00011*%
%ADD620R,0.03921X0.00011*%
%ADD621R,0.02484X0.00011*%
%ADD622R,0.02381X0.00011*%
%ADD623R,0.03979X0.00011*%
%ADD624R,0.05163X0.00011*%
%ADD625R,0.04036X0.00011*%
%ADD626R,0.05002X0.00011*%
%ADD627R,0.01334X0.00011*%
%ADD628R,0.04876X0.00011*%
%ADD629R,0.04692X0.00011*%
%ADD630R,0.04335X0.00011*%
%ADD631R,0.03600X0.00011*%
%ADD632R,0.04531X0.00011*%
%ADD633R,0.04565X0.00011*%
%ADD634R,0.04681X0.00011*%
%ADD635R,0.04784X0.00011*%
%ADD636R,0.04819X0.00011*%
%ADD637R,0.00541X0.00011*%
%ADD638R,0.04910X0.00011*%
%ADD639R,0.05037X0.00011*%
%ADD640R,0.05198X0.00011*%
%ADD641R,0.05393X0.00011*%
%ADD642R,0.05554X0.00011*%
%ADD643R,0.05750X0.00011*%
%ADD644R,0.05761X0.00011*%
%ADD645R,0.05819X0.00011*%
%ADD646R,0.05830X0.00011*%
%ADD647R,0.05865X0.00011*%
%ADD648R,0.05900X0.00011*%
%ADD649R,0.05945X0.00011*%
%ADD650R,0.06003X0.00011*%
%ADD651R,0.02772X0.00011*%
%ADD652R,0.06049X0.00011*%
%ADD653R,0.06072X0.00011*%
%ADD654R,0.06095X0.00011*%
%ADD655R,0.06141X0.00011*%
%ADD656R,0.06175X0.00011*%
%ADD657R,0.06187X0.00011*%
%ADD658R,0.06210X0.00011*%
%ADD659R,0.06244X0.00011*%
%ADD660R,0.06267X0.00011*%
%ADD661R,0.06325X0.00011*%
%ADD662R,0.03117X0.00011*%
%ADD663R,0.03634X0.00011*%
%ADD664R,0.03507X0.00011*%
%ADD665R,0.03508X0.00011*%
%ADD666R,0.03415X0.00011*%
%ADD667R,0.04209X0.00011*%
%ADD668R,0.04439X0.00011*%
%ADD669R,0.03347X0.00011*%
%ADD670R,0.10235X0.00011*%
%ADD671R,0.10247X0.00011*%
%ADD672R,0.10258X0.00011*%
%ADD673R,0.10269X0.00011*%
%ADD674R,0.03312X0.00011*%
%ADD675R,0.10281X0.00011*%
%ADD676R,0.10292X0.00011*%
%ADD677R,0.03278X0.00011*%
%ADD678R,0.10304X0.00011*%
%ADD679R,0.10316X0.00011*%
%ADD680R,0.10327X0.00011*%
%ADD681R,0.10338X0.00011*%
%ADD682R,0.10350X0.00011*%
%ADD683R,0.10361X0.00011*%
%ADD684R,0.10373X0.00011*%
%ADD685R,0.10384X0.00011*%
%ADD686R,0.10396X0.00011*%
%ADD687R,0.10419X0.00011*%
%ADD688R,0.10430X0.00011*%
%ADD689R,0.10442X0.00011*%
%ADD690R,0.10453X0.00011*%
%ADD691R,0.10465X0.00011*%
%ADD692R,0.10477X0.00011*%
%ADD693R,0.10488X0.00011*%
%ADD694R,0.10500X0.00011*%
%ADD695R,0.04140X0.00011*%
%ADD696R,0.03887X0.00011*%
%ADD697R,0.02737X0.00011*%
%ADD698R,0.02703X0.00011*%
%ADD699R,0.00851X0.00011*%
%ADD700R,0.00770X0.00011*%
%ADD701R,0.00655X0.00011*%
%ADD702R,0.00552X0.00011*%
%ADD703R,0.00379X0.00011*%
%ADD704R,0.00011X0.00011*%
%ADD705R,0.02679X0.00011*%
%ADD706R,0.02518X0.00011*%
%ADD707R,0.02128X0.00011*%
%ADD708R,0.01081X0.00011*%
%ADD709R,0.00885X0.00011*%
%ADD710R,0.00863X0.00011*%
%ADD711R,0.00839X0.00011*%
%ADD712R,0.00794X0.00011*%
%ADD713R,0.00747X0.00011*%
%ADD714R,0.00713X0.00011*%
%ADD715R,0.00690X0.00011*%
%ADD716R,0.00644X0.00011*%
%ADD717R,0.00609X0.00011*%
%ADD718R,0.00529X0.00011*%
%ADD719R,0.00471X0.00011*%
%ADD720R,0.00425X0.00011*%
%ADD721R,0.00287X0.00011*%
%ADD722R,0.00195X0.00011*%
%ADD723R,0.01207X0.00011*%
%ADD724R,0.01115X0.00011*%
%ADD725R,0.00886X0.00011*%
%ADD726R,0.00805X0.00011*%
%ADD727R,0.00782X0.00011*%
%ADD728R,0.00724X0.00011*%
%ADD729R,0.00702X0.00011*%
%ADD730R,0.00632X0.00011*%
%ADD731R,0.00598X0.00011*%
%ADD732R,0.00517X0.00011*%
%ADD733R,0.00368X0.00011*%
%ADD734R,0.00322X0.00011*%
%ADD735R,0.00230X0.00011*%
%ADD736R,0.00115X0.00011*%
%ADD737R,0.01368X0.00011*%
%ADD738R,0.00897X0.00011*%
%ADD739R,0.00874X0.00011*%
%ADD740R,0.00817X0.00011*%
%ADD741R,0.00736X0.00011*%
%ADD742R,0.00633X0.00011*%
%ADD743R,0.00586X0.00011*%
%ADD744R,0.00506X0.00011*%
%ADD745R,0.00207X0.00011*%
%ADD746R,0.00103X0.00011*%
D10*
X0012966Y0033869D02*
X0014417Y0033869D01*
X0014901Y0034353D01*
X0014417Y0034837D01*
X0012966Y0034837D01*
X0012966Y0035321D02*
X0012966Y0033869D01*
X0012966Y0035321D02*
X0013449Y0035804D01*
X0014417Y0035804D01*
X0015897Y0035804D02*
X0016865Y0035804D01*
X0016381Y0036288D02*
X0016381Y0034353D01*
X0015897Y0033869D01*
X0017877Y0034837D02*
X0019811Y0034837D01*
X0019811Y0035321D02*
X0019328Y0035804D01*
X0018360Y0035804D01*
X0017877Y0035321D01*
X0017877Y0034837D01*
X0018360Y0033869D02*
X0019328Y0033869D01*
X0019811Y0034353D01*
X0019811Y0035321D01*
X0020823Y0035804D02*
X0021307Y0035321D01*
X0022758Y0035321D01*
X0022758Y0036772D02*
X0022758Y0033869D01*
X0021307Y0033869D01*
X0020823Y0034353D01*
X0020823Y0034837D01*
X0021307Y0035321D01*
X0020823Y0035804D02*
X0020823Y0036288D01*
X0021307Y0036772D01*
X0022758Y0036772D01*
X0022780Y0038669D02*
X0024231Y0038669D01*
X0024231Y0041572D01*
X0022780Y0041572D01*
X0022296Y0041088D01*
X0022296Y0040604D01*
X0022780Y0040121D01*
X0024231Y0040121D01*
X0022780Y0040121D02*
X0022296Y0039637D01*
X0022296Y0039153D01*
X0022780Y0038669D01*
X0021285Y0038669D02*
X0021285Y0040604D01*
X0021285Y0039637D02*
X0020317Y0040604D01*
X0019834Y0040604D01*
X0018829Y0040604D02*
X0018346Y0040604D01*
X0018346Y0038669D01*
X0018829Y0038669D02*
X0017862Y0038669D01*
X0016865Y0039153D02*
X0016865Y0040121D01*
X0016381Y0040604D01*
X0014930Y0040604D01*
X0013918Y0039637D02*
X0012467Y0040604D01*
X0013918Y0039637D02*
X0012467Y0038669D01*
X0013918Y0038669D02*
X0013918Y0041572D01*
X0014930Y0038669D02*
X0016381Y0038669D01*
X0016865Y0039153D01*
X0018346Y0041572D02*
X0018346Y0042056D01*
X0026694Y0034353D02*
X0026694Y0033869D01*
X0027178Y0033869D01*
X0027178Y0034353D01*
X0026694Y0034353D01*
X0028189Y0035804D02*
X0029157Y0033869D01*
X0030124Y0035804D01*
X0031136Y0035321D02*
X0031136Y0034837D01*
X0033071Y0034837D01*
X0033071Y0035321D02*
X0032587Y0035804D01*
X0031620Y0035804D01*
X0031136Y0035321D01*
X0031620Y0033869D02*
X0032587Y0033869D01*
X0033071Y0034353D01*
X0033071Y0035321D01*
X0034082Y0035321D02*
X0034566Y0034837D01*
X0036017Y0034837D01*
X0035050Y0034837D02*
X0034082Y0033869D01*
X0034082Y0035321D02*
X0034082Y0036288D01*
X0034566Y0036772D01*
X0036017Y0036772D01*
X0036017Y0033869D01*
X0036017Y0038669D02*
X0034566Y0038669D01*
X0034082Y0039153D01*
X0034082Y0039637D01*
X0034566Y0040121D01*
X0036017Y0040121D01*
X0036017Y0041572D02*
X0036017Y0038669D01*
X0034566Y0040121D02*
X0034082Y0040604D01*
X0034082Y0041088D01*
X0034566Y0041572D01*
X0036017Y0041572D01*
X0033071Y0041572D02*
X0033071Y0038669D01*
X0031136Y0038669D01*
X0030124Y0038669D02*
X0028189Y0038669D01*
X0029157Y0040121D02*
X0030124Y0040121D01*
X0030124Y0041572D02*
X0030124Y0038669D01*
X0030124Y0041572D02*
X0028189Y0041572D01*
X0051184Y0043152D02*
X0051184Y0044120D01*
X0051668Y0044603D01*
X0052635Y0044603D01*
X0052635Y0043636D01*
X0051668Y0042669D02*
X0053603Y0042669D01*
X0054086Y0043152D01*
X0054086Y0044120D01*
X0053603Y0044603D01*
X0054086Y0045615D02*
X0051184Y0047550D01*
X0054086Y0047550D01*
X0054086Y0048562D02*
X0054086Y0050013D01*
X0053603Y0050497D01*
X0051668Y0050497D01*
X0051184Y0050013D01*
X0051184Y0048562D01*
X0054086Y0048562D01*
X0054086Y0045615D02*
X0051184Y0045615D01*
X0051184Y0043152D02*
X0051668Y0042669D01*
X0061184Y0043636D02*
X0062151Y0044603D01*
X0064086Y0044603D01*
X0063603Y0045615D02*
X0061668Y0045615D01*
X0061184Y0046099D01*
X0061184Y0047066D01*
X0061668Y0047550D01*
X0061668Y0048562D02*
X0061184Y0049045D01*
X0061184Y0050013D01*
X0061668Y0050497D01*
X0061668Y0048562D02*
X0063603Y0048562D01*
X0064086Y0049045D01*
X0064086Y0050013D01*
X0063603Y0050497D01*
X0063603Y0047550D02*
X0064086Y0047066D01*
X0064086Y0046099D01*
X0063603Y0045615D01*
X0064086Y0042669D02*
X0062151Y0042669D01*
X0061184Y0043636D01*
X0071184Y0043636D02*
X0074086Y0043636D01*
X0074086Y0042669D02*
X0074086Y0044603D01*
X0074086Y0045615D02*
X0071184Y0047550D01*
X0071184Y0045615D02*
X0074086Y0047550D01*
X0081184Y0047550D02*
X0084086Y0045615D01*
X0083603Y0044603D02*
X0082635Y0044603D01*
X0082151Y0044120D01*
X0082151Y0042669D01*
X0082151Y0043636D02*
X0081184Y0044603D01*
X0081184Y0045615D02*
X0084086Y0047550D01*
X0083603Y0044603D02*
X0084086Y0044120D01*
X0084086Y0042669D01*
X0081184Y0042669D01*
X0109827Y0101517D02*
X0111762Y0101517D01*
X0110794Y0101517D02*
X0110794Y0104419D01*
X0111762Y0103452D01*
X0112773Y0103936D02*
X0113257Y0104419D01*
X0114225Y0104419D01*
X0114708Y0103936D01*
X0114708Y0103452D01*
X0114225Y0102968D01*
X0113257Y0102968D01*
X0112773Y0102484D01*
X0112773Y0102001D01*
X0113257Y0101517D01*
X0114225Y0101517D01*
X0114708Y0102001D01*
D11*
X0080646Y0059024D02*
X0080646Y0055875D01*
X0080646Y0059024D02*
X0078283Y0059024D01*
X0071984Y0059024D02*
X0069622Y0059024D01*
X0069622Y0055875D01*
D12*
X0070217Y0063319D02*
X0070717Y0063319D01*
X0070968Y0063569D01*
X0070968Y0063819D01*
X0070717Y0064069D01*
X0070217Y0064069D01*
X0069967Y0063819D01*
X0069967Y0063569D01*
X0070217Y0063319D01*
X0070217Y0064069D02*
X0069967Y0064319D01*
X0069967Y0064570D01*
X0070217Y0064820D01*
X0070717Y0064820D01*
X0070968Y0064570D01*
X0070968Y0064319D01*
X0070717Y0064069D01*
X0071440Y0063819D02*
X0071440Y0063569D01*
X0071690Y0063319D01*
X0072191Y0063319D01*
X0072441Y0063569D01*
X0072913Y0063319D02*
X0073914Y0063319D01*
X0073414Y0063319D02*
X0073414Y0064820D01*
X0073914Y0064319D01*
X0074387Y0064570D02*
X0074637Y0064820D01*
X0075137Y0064820D01*
X0075387Y0064570D01*
X0075387Y0064319D01*
X0075137Y0064069D01*
X0074637Y0064069D01*
X0074387Y0063819D01*
X0074387Y0063569D01*
X0074637Y0063319D01*
X0075137Y0063319D01*
X0075387Y0063569D01*
X0075860Y0063569D02*
X0076110Y0063319D01*
X0076610Y0063319D01*
X0076861Y0063569D01*
X0077333Y0063569D02*
X0077583Y0063319D01*
X0078334Y0063319D01*
X0078334Y0064820D01*
X0077583Y0064820D01*
X0077333Y0064570D01*
X0077333Y0064319D01*
X0077583Y0064069D01*
X0078334Y0064069D01*
X0077583Y0064069D02*
X0077333Y0063819D01*
X0077333Y0063569D01*
X0076610Y0064069D02*
X0076110Y0064069D01*
X0075860Y0063819D01*
X0075860Y0063569D01*
X0076610Y0064069D02*
X0076861Y0064319D01*
X0076861Y0064570D01*
X0076610Y0064820D01*
X0076110Y0064820D01*
X0075860Y0064570D01*
X0072441Y0064570D02*
X0072191Y0064820D01*
X0071690Y0064820D01*
X0071440Y0064570D01*
X0071440Y0064319D01*
X0071690Y0064069D01*
X0071440Y0063819D01*
X0071690Y0064069D02*
X0071940Y0064069D01*
D13*
X0080035Y0073326D02*
X0080035Y0087499D01*
X0055429Y0087499D01*
X0055429Y0073326D01*
X0080035Y0073326D01*
X0090016Y0063237D02*
X0090016Y0059300D01*
X0100252Y0059300D01*
X0100252Y0063237D01*
X0090409Y0063237D01*
X0094622Y0076131D02*
X0115094Y0076131D01*
X0115094Y0096603D01*
X0094622Y0096603D01*
X0094622Y0076131D01*
X0107516Y0063237D02*
X0107516Y0059300D01*
X0117752Y0059300D01*
X0117752Y0063237D01*
X0107909Y0063237D01*
X0109487Y0081249D02*
X0109489Y0081330D01*
X0109495Y0081411D01*
X0109505Y0081492D01*
X0109519Y0081572D01*
X0109536Y0081652D01*
X0109558Y0081730D01*
X0109583Y0081807D01*
X0109612Y0081883D01*
X0109645Y0081958D01*
X0109681Y0082031D01*
X0109721Y0082102D01*
X0109764Y0082170D01*
X0109811Y0082237D01*
X0109860Y0082302D01*
X0109913Y0082363D01*
X0109969Y0082423D01*
X0110028Y0082479D01*
X0110089Y0082533D01*
X0110153Y0082583D01*
X0110219Y0082630D01*
X0110287Y0082675D01*
X0110357Y0082715D01*
X0110430Y0082752D01*
X0110504Y0082786D01*
X0110579Y0082816D01*
X0110656Y0082842D01*
X0110735Y0082865D01*
X0110814Y0082883D01*
X0110894Y0082898D01*
X0110974Y0082909D01*
X0111055Y0082916D01*
X0111137Y0082919D01*
X0111218Y0082918D01*
X0111299Y0082913D01*
X0111380Y0082904D01*
X0111460Y0082891D01*
X0111540Y0082875D01*
X0111619Y0082854D01*
X0111696Y0082830D01*
X0111773Y0082801D01*
X0111847Y0082770D01*
X0111921Y0082734D01*
X0111992Y0082695D01*
X0112061Y0082653D01*
X0112129Y0082607D01*
X0112194Y0082558D01*
X0112256Y0082506D01*
X0112316Y0082451D01*
X0112373Y0082393D01*
X0112428Y0082333D01*
X0112479Y0082270D01*
X0112527Y0082204D01*
X0112572Y0082136D01*
X0112613Y0082066D01*
X0112651Y0081994D01*
X0112686Y0081921D01*
X0112717Y0081846D01*
X0112744Y0081769D01*
X0112767Y0081691D01*
X0112787Y0081612D01*
X0112803Y0081532D01*
X0112815Y0081452D01*
X0112823Y0081371D01*
X0112827Y0081290D01*
X0112827Y0081208D01*
X0112823Y0081127D01*
X0112815Y0081046D01*
X0112803Y0080966D01*
X0112787Y0080886D01*
X0112767Y0080807D01*
X0112744Y0080729D01*
X0112717Y0080652D01*
X0112686Y0080577D01*
X0112651Y0080504D01*
X0112613Y0080432D01*
X0112572Y0080362D01*
X0112527Y0080294D01*
X0112479Y0080228D01*
X0112428Y0080165D01*
X0112373Y0080105D01*
X0112316Y0080047D01*
X0112256Y0079992D01*
X0112194Y0079940D01*
X0112129Y0079891D01*
X0112061Y0079845D01*
X0111992Y0079803D01*
X0111921Y0079764D01*
X0111847Y0079728D01*
X0111773Y0079697D01*
X0111696Y0079668D01*
X0111619Y0079644D01*
X0111540Y0079623D01*
X0111460Y0079607D01*
X0111380Y0079594D01*
X0111299Y0079585D01*
X0111218Y0079580D01*
X0111137Y0079579D01*
X0111055Y0079582D01*
X0110974Y0079589D01*
X0110894Y0079600D01*
X0110814Y0079615D01*
X0110735Y0079633D01*
X0110656Y0079656D01*
X0110579Y0079682D01*
X0110504Y0079712D01*
X0110430Y0079746D01*
X0110357Y0079783D01*
X0110287Y0079823D01*
X0110219Y0079868D01*
X0110153Y0079915D01*
X0110089Y0079965D01*
X0110028Y0080019D01*
X0109969Y0080075D01*
X0109913Y0080135D01*
X0109860Y0080196D01*
X0109811Y0080261D01*
X0109764Y0080328D01*
X0109721Y0080396D01*
X0109681Y0080467D01*
X0109645Y0080540D01*
X0109612Y0080615D01*
X0109583Y0080691D01*
X0109558Y0080768D01*
X0109536Y0080846D01*
X0109519Y0080926D01*
X0109505Y0081006D01*
X0109495Y0081087D01*
X0109489Y0081168D01*
X0109487Y0081249D01*
X0109487Y0091879D02*
X0109489Y0091960D01*
X0109495Y0092041D01*
X0109505Y0092122D01*
X0109519Y0092202D01*
X0109536Y0092282D01*
X0109558Y0092360D01*
X0109583Y0092437D01*
X0109612Y0092513D01*
X0109645Y0092588D01*
X0109681Y0092661D01*
X0109721Y0092732D01*
X0109764Y0092800D01*
X0109811Y0092867D01*
X0109860Y0092932D01*
X0109913Y0092993D01*
X0109969Y0093053D01*
X0110028Y0093109D01*
X0110089Y0093163D01*
X0110153Y0093213D01*
X0110219Y0093260D01*
X0110287Y0093305D01*
X0110357Y0093345D01*
X0110430Y0093382D01*
X0110504Y0093416D01*
X0110579Y0093446D01*
X0110656Y0093472D01*
X0110735Y0093495D01*
X0110814Y0093513D01*
X0110894Y0093528D01*
X0110974Y0093539D01*
X0111055Y0093546D01*
X0111137Y0093549D01*
X0111218Y0093548D01*
X0111299Y0093543D01*
X0111380Y0093534D01*
X0111460Y0093521D01*
X0111540Y0093505D01*
X0111619Y0093484D01*
X0111696Y0093460D01*
X0111773Y0093431D01*
X0111847Y0093400D01*
X0111921Y0093364D01*
X0111992Y0093325D01*
X0112061Y0093283D01*
X0112129Y0093237D01*
X0112194Y0093188D01*
X0112256Y0093136D01*
X0112316Y0093081D01*
X0112373Y0093023D01*
X0112428Y0092963D01*
X0112479Y0092900D01*
X0112527Y0092834D01*
X0112572Y0092766D01*
X0112613Y0092696D01*
X0112651Y0092624D01*
X0112686Y0092551D01*
X0112717Y0092476D01*
X0112744Y0092399D01*
X0112767Y0092321D01*
X0112787Y0092242D01*
X0112803Y0092162D01*
X0112815Y0092082D01*
X0112823Y0092001D01*
X0112827Y0091920D01*
X0112827Y0091838D01*
X0112823Y0091757D01*
X0112815Y0091676D01*
X0112803Y0091596D01*
X0112787Y0091516D01*
X0112767Y0091437D01*
X0112744Y0091359D01*
X0112717Y0091282D01*
X0112686Y0091207D01*
X0112651Y0091134D01*
X0112613Y0091062D01*
X0112572Y0090992D01*
X0112527Y0090924D01*
X0112479Y0090858D01*
X0112428Y0090795D01*
X0112373Y0090735D01*
X0112316Y0090677D01*
X0112256Y0090622D01*
X0112194Y0090570D01*
X0112129Y0090521D01*
X0112061Y0090475D01*
X0111992Y0090433D01*
X0111921Y0090394D01*
X0111847Y0090358D01*
X0111773Y0090327D01*
X0111696Y0090298D01*
X0111619Y0090274D01*
X0111540Y0090253D01*
X0111460Y0090237D01*
X0111380Y0090224D01*
X0111299Y0090215D01*
X0111218Y0090210D01*
X0111137Y0090209D01*
X0111055Y0090212D01*
X0110974Y0090219D01*
X0110894Y0090230D01*
X0110814Y0090245D01*
X0110735Y0090263D01*
X0110656Y0090286D01*
X0110579Y0090312D01*
X0110504Y0090342D01*
X0110430Y0090376D01*
X0110357Y0090413D01*
X0110287Y0090453D01*
X0110219Y0090498D01*
X0110153Y0090545D01*
X0110089Y0090595D01*
X0110028Y0090649D01*
X0109969Y0090705D01*
X0109913Y0090765D01*
X0109860Y0090826D01*
X0109811Y0090891D01*
X0109764Y0090958D01*
X0109721Y0091026D01*
X0109681Y0091097D01*
X0109645Y0091170D01*
X0109612Y0091245D01*
X0109583Y0091321D01*
X0109558Y0091398D01*
X0109536Y0091476D01*
X0109519Y0091556D01*
X0109505Y0091636D01*
X0109495Y0091717D01*
X0109489Y0091798D01*
X0109487Y0091879D01*
X0106502Y0125550D02*
X0096266Y0125550D01*
X0096266Y0129487D01*
X0096659Y0129487D02*
X0106502Y0129487D01*
X0106502Y0125550D01*
X0106502Y0136800D02*
X0106502Y0140737D01*
X0096266Y0140737D01*
X0096266Y0136800D01*
X0106108Y0136800D01*
X0085272Y0166997D02*
X0048854Y0166997D01*
X0048854Y0104202D01*
X0085272Y0104202D01*
X0085272Y0166997D01*
X0037752Y0141987D02*
X0037752Y0138050D01*
X0027516Y0138050D01*
X0027516Y0141987D01*
X0027909Y0141987D02*
X0037752Y0141987D01*
X0037752Y0130737D02*
X0037752Y0126800D01*
X0037358Y0126800D02*
X0027516Y0126800D01*
X0027516Y0130737D01*
X0037752Y0130737D01*
X0042752Y0090737D02*
X0042752Y0086800D01*
X0042358Y0086800D02*
X0032516Y0086800D01*
X0032516Y0090737D01*
X0042752Y0090737D01*
X0042752Y0074487D02*
X0042752Y0070550D01*
X0032516Y0070550D01*
X0032516Y0074487D01*
X0032909Y0074487D02*
X0042752Y0074487D01*
X0027752Y0074487D02*
X0027752Y0070550D01*
X0017516Y0070550D01*
X0017516Y0074487D01*
X0017909Y0074487D02*
X0027752Y0074487D01*
X0027752Y0086800D02*
X0027752Y0090737D01*
X0017516Y0090737D01*
X0017516Y0086800D01*
X0027358Y0086800D01*
D14*
X0081687Y0071360D02*
X0084757Y0071360D01*
X0083222Y0071360D02*
X0083222Y0075964D01*
X0084757Y0074430D01*
X0091345Y0056072D02*
X0094414Y0056072D01*
X0094414Y0053770D01*
X0092880Y0054538D01*
X0092112Y0054538D01*
X0091345Y0053770D01*
X0091345Y0052236D01*
X0092112Y0051469D01*
X0093647Y0051469D01*
X0094414Y0052236D01*
X0095949Y0052236D02*
X0095949Y0053003D01*
X0096716Y0053770D01*
X0098251Y0053770D01*
X0099018Y0054538D01*
X0099018Y0055305D01*
X0098251Y0056072D01*
X0096716Y0056072D01*
X0095949Y0055305D01*
X0095949Y0054538D01*
X0096716Y0053770D01*
X0098251Y0053770D02*
X0099018Y0053003D01*
X0099018Y0052236D01*
X0098251Y0051469D01*
X0096716Y0051469D01*
X0095949Y0052236D01*
X0100553Y0052236D02*
X0100553Y0055305D01*
X0101320Y0056072D01*
X0102855Y0056072D01*
X0103622Y0055305D01*
X0103622Y0054538D01*
X0102855Y0053770D01*
X0100553Y0053770D01*
X0100553Y0052236D02*
X0101320Y0051469D01*
X0102855Y0051469D01*
X0103622Y0052236D01*
X0105157Y0051469D02*
X0108226Y0051469D01*
X0105157Y0054538D01*
X0105157Y0055305D01*
X0105924Y0056072D01*
X0107459Y0056072D01*
X0108226Y0055305D01*
X0109761Y0055305D02*
X0109761Y0053770D01*
X0110528Y0053003D01*
X0112830Y0053003D01*
X0112830Y0051469D02*
X0112830Y0056072D01*
X0110528Y0056072D01*
X0109761Y0055305D01*
X0114365Y0051469D02*
X0117434Y0051469D01*
X0117434Y0056072D01*
X0077434Y0168969D02*
X0075132Y0168969D01*
X0074365Y0169736D01*
X0074365Y0170503D01*
X0075132Y0171270D01*
X0077434Y0171270D01*
X0077434Y0168969D02*
X0077434Y0173572D01*
X0075132Y0173572D01*
X0074365Y0172805D01*
X0074365Y0172038D01*
X0075132Y0171270D01*
X0072830Y0168969D02*
X0072830Y0173572D01*
X0072830Y0168969D02*
X0069761Y0168969D01*
X0068226Y0168969D02*
X0065157Y0168969D01*
X0063622Y0168969D02*
X0060553Y0168969D01*
X0062087Y0168969D02*
X0062087Y0173572D01*
X0063622Y0172038D01*
X0065157Y0173572D02*
X0068226Y0173572D01*
X0068226Y0168969D01*
X0068226Y0171270D02*
X0066691Y0171270D01*
X0059018Y0172038D02*
X0057484Y0173572D01*
X0057484Y0168969D01*
X0059018Y0168969D02*
X0055949Y0168969D01*
X0054414Y0169736D02*
X0053647Y0168969D01*
X0052112Y0168969D01*
X0051345Y0169736D01*
X0051345Y0170503D01*
X0052112Y0171270D01*
X0052880Y0171270D01*
X0052112Y0171270D02*
X0051345Y0172038D01*
X0051345Y0172805D01*
X0052112Y0173572D01*
X0053647Y0173572D01*
X0054414Y0172805D01*
D15*
X0007634Y0120019D02*
X0007634Y0020019D01*
X0007638Y0019657D01*
X0007652Y0019294D01*
X0007673Y0018932D01*
X0007704Y0018571D01*
X0007743Y0018211D01*
X0007791Y0017852D01*
X0007848Y0017494D01*
X0007913Y0017137D01*
X0007987Y0016782D01*
X0008070Y0016429D01*
X0008161Y0016078D01*
X0008260Y0015730D01*
X0008368Y0015384D01*
X0008484Y0015040D01*
X0008609Y0014700D01*
X0008741Y0014363D01*
X0008882Y0014029D01*
X0009031Y0013698D01*
X0009188Y0013371D01*
X0009352Y0013048D01*
X0009524Y0012729D01*
X0009704Y0012415D01*
X0009892Y0012104D01*
X0010087Y0011799D01*
X0010289Y0011498D01*
X0010499Y0011202D01*
X0010715Y0010912D01*
X0010939Y0010626D01*
X0011169Y0010346D01*
X0011406Y0010072D01*
X0011650Y0009804D01*
X0011900Y0009541D01*
X0012156Y0009285D01*
X0012419Y0009035D01*
X0012687Y0008791D01*
X0012961Y0008554D01*
X0013241Y0008324D01*
X0013527Y0008100D01*
X0013817Y0007884D01*
X0014113Y0007674D01*
X0014414Y0007472D01*
X0014719Y0007277D01*
X0015030Y0007089D01*
X0015344Y0006909D01*
X0015663Y0006737D01*
X0015986Y0006573D01*
X0016313Y0006416D01*
X0016644Y0006267D01*
X0016978Y0006126D01*
X0017315Y0005994D01*
X0017655Y0005869D01*
X0017999Y0005753D01*
X0018345Y0005645D01*
X0018693Y0005546D01*
X0019044Y0005455D01*
X0019397Y0005372D01*
X0019752Y0005298D01*
X0020109Y0005233D01*
X0020467Y0005176D01*
X0020826Y0005128D01*
X0021186Y0005089D01*
X0021547Y0005058D01*
X0021909Y0005037D01*
X0022272Y0005023D01*
X0022634Y0005019D01*
X0112634Y0005019D01*
X0112996Y0005023D01*
X0113359Y0005037D01*
X0113721Y0005058D01*
X0114082Y0005089D01*
X0114442Y0005128D01*
X0114801Y0005176D01*
X0115159Y0005233D01*
X0115516Y0005298D01*
X0115871Y0005372D01*
X0116224Y0005455D01*
X0116575Y0005546D01*
X0116923Y0005645D01*
X0117269Y0005753D01*
X0117613Y0005869D01*
X0117953Y0005994D01*
X0118290Y0006126D01*
X0118624Y0006267D01*
X0118955Y0006416D01*
X0119282Y0006573D01*
X0119605Y0006737D01*
X0119924Y0006909D01*
X0120238Y0007089D01*
X0120549Y0007277D01*
X0120854Y0007472D01*
X0121155Y0007674D01*
X0121451Y0007884D01*
X0121741Y0008100D01*
X0122027Y0008324D01*
X0122307Y0008554D01*
X0122581Y0008791D01*
X0122849Y0009035D01*
X0123112Y0009285D01*
X0123368Y0009541D01*
X0123618Y0009804D01*
X0123862Y0010072D01*
X0124099Y0010346D01*
X0124329Y0010626D01*
X0124553Y0010912D01*
X0124769Y0011202D01*
X0124979Y0011498D01*
X0125181Y0011799D01*
X0125376Y0012104D01*
X0125564Y0012415D01*
X0125744Y0012729D01*
X0125916Y0013048D01*
X0126080Y0013371D01*
X0126237Y0013698D01*
X0126386Y0014029D01*
X0126527Y0014363D01*
X0126659Y0014700D01*
X0126784Y0015040D01*
X0126900Y0015384D01*
X0127008Y0015730D01*
X0127107Y0016078D01*
X0127198Y0016429D01*
X0127281Y0016782D01*
X0127355Y0017137D01*
X0127420Y0017494D01*
X0127477Y0017852D01*
X0127525Y0018211D01*
X0127564Y0018571D01*
X0127595Y0018932D01*
X0127616Y0019294D01*
X0127630Y0019657D01*
X0127634Y0020019D01*
X0127634Y0120019D01*
X0072751Y0080019D02*
X0072753Y0080107D01*
X0072759Y0080195D01*
X0072769Y0080283D01*
X0072783Y0080371D01*
X0072800Y0080457D01*
X0072822Y0080543D01*
X0072847Y0080627D01*
X0072877Y0080711D01*
X0072909Y0080793D01*
X0072946Y0080873D01*
X0072986Y0080952D01*
X0073030Y0081029D01*
X0073077Y0081104D01*
X0073127Y0081176D01*
X0073181Y0081247D01*
X0073237Y0081314D01*
X0073297Y0081380D01*
X0073359Y0081442D01*
X0073425Y0081502D01*
X0073492Y0081558D01*
X0073563Y0081612D01*
X0073635Y0081662D01*
X0073710Y0081709D01*
X0073787Y0081753D01*
X0073866Y0081793D01*
X0073946Y0081830D01*
X0074028Y0081862D01*
X0074112Y0081892D01*
X0074196Y0081917D01*
X0074282Y0081939D01*
X0074368Y0081956D01*
X0074456Y0081970D01*
X0074544Y0081980D01*
X0074632Y0081986D01*
X0074720Y0081988D01*
X0074808Y0081986D01*
X0074896Y0081980D01*
X0074984Y0081970D01*
X0075072Y0081956D01*
X0075158Y0081939D01*
X0075244Y0081917D01*
X0075328Y0081892D01*
X0075412Y0081862D01*
X0075494Y0081830D01*
X0075574Y0081793D01*
X0075653Y0081753D01*
X0075730Y0081709D01*
X0075805Y0081662D01*
X0075877Y0081612D01*
X0075948Y0081558D01*
X0076015Y0081502D01*
X0076081Y0081442D01*
X0076143Y0081380D01*
X0076203Y0081314D01*
X0076259Y0081247D01*
X0076313Y0081176D01*
X0076363Y0081104D01*
X0076410Y0081029D01*
X0076454Y0080952D01*
X0076494Y0080873D01*
X0076531Y0080793D01*
X0076563Y0080711D01*
X0076593Y0080627D01*
X0076618Y0080543D01*
X0076640Y0080457D01*
X0076657Y0080371D01*
X0076671Y0080283D01*
X0076681Y0080195D01*
X0076687Y0080107D01*
X0076689Y0080019D01*
X0076687Y0079931D01*
X0076681Y0079843D01*
X0076671Y0079755D01*
X0076657Y0079667D01*
X0076640Y0079581D01*
X0076618Y0079495D01*
X0076593Y0079411D01*
X0076563Y0079327D01*
X0076531Y0079245D01*
X0076494Y0079165D01*
X0076454Y0079086D01*
X0076410Y0079009D01*
X0076363Y0078934D01*
X0076313Y0078862D01*
X0076259Y0078791D01*
X0076203Y0078724D01*
X0076143Y0078658D01*
X0076081Y0078596D01*
X0076015Y0078536D01*
X0075948Y0078480D01*
X0075877Y0078426D01*
X0075805Y0078376D01*
X0075730Y0078329D01*
X0075653Y0078285D01*
X0075574Y0078245D01*
X0075494Y0078208D01*
X0075412Y0078176D01*
X0075328Y0078146D01*
X0075244Y0078121D01*
X0075158Y0078099D01*
X0075072Y0078082D01*
X0074984Y0078068D01*
X0074896Y0078058D01*
X0074808Y0078052D01*
X0074720Y0078050D01*
X0074632Y0078052D01*
X0074544Y0078058D01*
X0074456Y0078068D01*
X0074368Y0078082D01*
X0074282Y0078099D01*
X0074196Y0078121D01*
X0074112Y0078146D01*
X0074028Y0078176D01*
X0073946Y0078208D01*
X0073866Y0078245D01*
X0073787Y0078285D01*
X0073710Y0078329D01*
X0073635Y0078376D01*
X0073563Y0078426D01*
X0073492Y0078480D01*
X0073425Y0078536D01*
X0073359Y0078596D01*
X0073297Y0078658D01*
X0073237Y0078724D01*
X0073181Y0078791D01*
X0073127Y0078862D01*
X0073077Y0078934D01*
X0073030Y0079009D01*
X0072986Y0079086D01*
X0072946Y0079165D01*
X0072909Y0079245D01*
X0072877Y0079327D01*
X0072847Y0079411D01*
X0072822Y0079495D01*
X0072800Y0079581D01*
X0072783Y0079667D01*
X0072769Y0079755D01*
X0072759Y0079843D01*
X0072753Y0079931D01*
X0072751Y0080019D01*
X0058578Y0080019D02*
X0058580Y0080107D01*
X0058586Y0080195D01*
X0058596Y0080283D01*
X0058610Y0080371D01*
X0058627Y0080457D01*
X0058649Y0080543D01*
X0058674Y0080627D01*
X0058704Y0080711D01*
X0058736Y0080793D01*
X0058773Y0080873D01*
X0058813Y0080952D01*
X0058857Y0081029D01*
X0058904Y0081104D01*
X0058954Y0081176D01*
X0059008Y0081247D01*
X0059064Y0081314D01*
X0059124Y0081380D01*
X0059186Y0081442D01*
X0059252Y0081502D01*
X0059319Y0081558D01*
X0059390Y0081612D01*
X0059462Y0081662D01*
X0059537Y0081709D01*
X0059614Y0081753D01*
X0059693Y0081793D01*
X0059773Y0081830D01*
X0059855Y0081862D01*
X0059939Y0081892D01*
X0060023Y0081917D01*
X0060109Y0081939D01*
X0060195Y0081956D01*
X0060283Y0081970D01*
X0060371Y0081980D01*
X0060459Y0081986D01*
X0060547Y0081988D01*
X0060635Y0081986D01*
X0060723Y0081980D01*
X0060811Y0081970D01*
X0060899Y0081956D01*
X0060985Y0081939D01*
X0061071Y0081917D01*
X0061155Y0081892D01*
X0061239Y0081862D01*
X0061321Y0081830D01*
X0061401Y0081793D01*
X0061480Y0081753D01*
X0061557Y0081709D01*
X0061632Y0081662D01*
X0061704Y0081612D01*
X0061775Y0081558D01*
X0061842Y0081502D01*
X0061908Y0081442D01*
X0061970Y0081380D01*
X0062030Y0081314D01*
X0062086Y0081247D01*
X0062140Y0081176D01*
X0062190Y0081104D01*
X0062237Y0081029D01*
X0062281Y0080952D01*
X0062321Y0080873D01*
X0062358Y0080793D01*
X0062390Y0080711D01*
X0062420Y0080627D01*
X0062445Y0080543D01*
X0062467Y0080457D01*
X0062484Y0080371D01*
X0062498Y0080283D01*
X0062508Y0080195D01*
X0062514Y0080107D01*
X0062516Y0080019D01*
X0062514Y0079931D01*
X0062508Y0079843D01*
X0062498Y0079755D01*
X0062484Y0079667D01*
X0062467Y0079581D01*
X0062445Y0079495D01*
X0062420Y0079411D01*
X0062390Y0079327D01*
X0062358Y0079245D01*
X0062321Y0079165D01*
X0062281Y0079086D01*
X0062237Y0079009D01*
X0062190Y0078934D01*
X0062140Y0078862D01*
X0062086Y0078791D01*
X0062030Y0078724D01*
X0061970Y0078658D01*
X0061908Y0078596D01*
X0061842Y0078536D01*
X0061775Y0078480D01*
X0061704Y0078426D01*
X0061632Y0078376D01*
X0061557Y0078329D01*
X0061480Y0078285D01*
X0061401Y0078245D01*
X0061321Y0078208D01*
X0061239Y0078176D01*
X0061155Y0078146D01*
X0061071Y0078121D01*
X0060985Y0078099D01*
X0060899Y0078082D01*
X0060811Y0078068D01*
X0060723Y0078058D01*
X0060635Y0078052D01*
X0060547Y0078050D01*
X0060459Y0078052D01*
X0060371Y0078058D01*
X0060283Y0078068D01*
X0060195Y0078082D01*
X0060109Y0078099D01*
X0060023Y0078121D01*
X0059939Y0078146D01*
X0059855Y0078176D01*
X0059773Y0078208D01*
X0059693Y0078245D01*
X0059614Y0078285D01*
X0059537Y0078329D01*
X0059462Y0078376D01*
X0059390Y0078426D01*
X0059319Y0078480D01*
X0059252Y0078536D01*
X0059186Y0078596D01*
X0059124Y0078658D01*
X0059064Y0078724D01*
X0059008Y0078791D01*
X0058954Y0078862D01*
X0058904Y0078934D01*
X0058857Y0079009D01*
X0058813Y0079086D01*
X0058773Y0079165D01*
X0058736Y0079245D01*
X0058704Y0079327D01*
X0058674Y0079411D01*
X0058649Y0079495D01*
X0058627Y0079581D01*
X0058610Y0079667D01*
X0058596Y0079755D01*
X0058586Y0079843D01*
X0058580Y0079931D01*
X0058578Y0080019D01*
X0007634Y0120019D02*
X0007652Y0121480D01*
X0007705Y0122940D01*
X0007794Y0124399D01*
X0007918Y0125855D01*
X0008078Y0127307D01*
X0008273Y0128755D01*
X0008504Y0130198D01*
X0008769Y0131635D01*
X0009069Y0133065D01*
X0009404Y0134487D01*
X0009774Y0135901D01*
X0010178Y0137305D01*
X0010616Y0138699D01*
X0011088Y0140082D01*
X0011593Y0141453D01*
X0012132Y0142811D01*
X0012703Y0144156D01*
X0013307Y0145486D01*
X0013943Y0146802D01*
X0014611Y0148101D01*
X0015311Y0149384D01*
X0016042Y0150649D01*
X0016803Y0151897D01*
X0017594Y0153125D01*
X0018415Y0154334D01*
X0019265Y0155522D01*
X0020144Y0156689D01*
X0021051Y0157835D01*
X0021986Y0158958D01*
X0022948Y0160058D01*
X0023936Y0161134D01*
X0024950Y0162186D01*
X0025990Y0163213D01*
X0027054Y0164214D01*
X0028142Y0165190D01*
X0029254Y0166138D01*
X0030388Y0167059D01*
X0031545Y0167952D01*
X0032722Y0168816D01*
X0033921Y0169652D01*
X0035140Y0170458D01*
X0036378Y0171235D01*
X0037634Y0171981D01*
X0038908Y0172696D01*
X0040199Y0173380D01*
X0041507Y0174032D01*
X0042830Y0174652D01*
X0044168Y0175240D01*
X0045519Y0175795D01*
X0046884Y0176317D01*
X0048261Y0176805D01*
X0049650Y0177260D01*
X0051049Y0177681D01*
X0052458Y0178068D01*
X0053876Y0178420D01*
X0055302Y0178738D01*
X0056736Y0179021D01*
X0058176Y0179269D01*
X0059621Y0179482D01*
X0061072Y0179659D01*
X0062526Y0179801D01*
X0063983Y0179908D01*
X0065443Y0179979D01*
X0066903Y0180015D01*
X0068365Y0180015D01*
X0069825Y0179979D01*
X0071285Y0179908D01*
X0072742Y0179801D01*
X0074196Y0179659D01*
X0075647Y0179482D01*
X0077092Y0179269D01*
X0078532Y0179021D01*
X0079966Y0178738D01*
X0081392Y0178420D01*
X0082810Y0178068D01*
X0084219Y0177681D01*
X0085618Y0177260D01*
X0087007Y0176805D01*
X0088384Y0176317D01*
X0089749Y0175795D01*
X0091100Y0175240D01*
X0092438Y0174652D01*
X0093761Y0174032D01*
X0095069Y0173380D01*
X0096360Y0172696D01*
X0097634Y0171981D01*
X0098890Y0171235D01*
X0100128Y0170458D01*
X0101347Y0169652D01*
X0102546Y0168816D01*
X0103723Y0167952D01*
X0104880Y0167059D01*
X0106014Y0166138D01*
X0107126Y0165190D01*
X0108214Y0164214D01*
X0109278Y0163213D01*
X0110318Y0162186D01*
X0111332Y0161134D01*
X0112320Y0160058D01*
X0113282Y0158958D01*
X0114217Y0157835D01*
X0115124Y0156689D01*
X0116003Y0155522D01*
X0116853Y0154334D01*
X0117674Y0153125D01*
X0118465Y0151897D01*
X0119226Y0150649D01*
X0119957Y0149384D01*
X0120657Y0148101D01*
X0121325Y0146802D01*
X0121961Y0145486D01*
X0122565Y0144156D01*
X0123136Y0142811D01*
X0123675Y0141453D01*
X0124180Y0140082D01*
X0124652Y0138699D01*
X0125090Y0137305D01*
X0125494Y0135901D01*
X0125864Y0134487D01*
X0126199Y0133065D01*
X0126499Y0131635D01*
X0126764Y0130198D01*
X0126995Y0128755D01*
X0127190Y0127307D01*
X0127350Y0125855D01*
X0127474Y0124399D01*
X0127563Y0122940D01*
X0127616Y0121480D01*
X0127634Y0120019D01*
D16*
X0092634Y0041269D02*
X0042634Y0041269D01*
X0042634Y0005019D01*
X0092634Y0005019D02*
X0092634Y0041269D01*
D17*
X0104535Y0040580D02*
X0104906Y0040580D01*
X0104535Y0040580D02*
X0104535Y0046957D01*
X0104906Y0046957D01*
X0108079Y0046957D02*
X0112189Y0046957D01*
X0115362Y0046957D02*
X0115732Y0046957D01*
X0115732Y0040580D01*
X0115362Y0040580D01*
X0112189Y0040580D02*
X0111819Y0040580D01*
X0108449Y0040580D02*
X0108079Y0040580D01*
D18*
X0110158Y0056213D02*
X0111626Y0056213D01*
X0110892Y0056213D02*
X0110892Y0058414D01*
X0111626Y0057681D01*
X0112368Y0058047D02*
X0112735Y0058414D01*
X0113469Y0058414D01*
X0113836Y0058047D01*
X0113836Y0056580D01*
X0113469Y0056213D01*
X0112735Y0056213D01*
X0112368Y0056580D01*
X0096336Y0056947D02*
X0095235Y0056947D01*
X0094868Y0057314D01*
X0094868Y0058047D01*
X0095235Y0058414D01*
X0096336Y0058414D01*
X0096336Y0056213D01*
X0095602Y0056947D02*
X0094868Y0056213D01*
X0094126Y0056213D02*
X0094126Y0056580D01*
X0092658Y0058047D01*
X0092658Y0058414D01*
X0094126Y0058414D01*
X0098908Y0122463D02*
X0100376Y0122463D01*
X0098908Y0123931D01*
X0098908Y0124297D01*
X0099275Y0124664D01*
X0100009Y0124664D01*
X0100376Y0124297D01*
X0101118Y0124297D02*
X0101118Y0123564D01*
X0101485Y0123197D01*
X0102586Y0123197D01*
X0102586Y0122463D02*
X0102586Y0124664D01*
X0101485Y0124664D01*
X0101118Y0124297D01*
X0101852Y0123197D02*
X0101118Y0122463D01*
X0100724Y0141624D02*
X0102192Y0143826D01*
X0102934Y0143826D02*
X0104402Y0143826D01*
X0103668Y0143826D02*
X0103668Y0141624D01*
X0102192Y0141624D02*
X0100724Y0143826D01*
X0040652Y0093826D02*
X0040652Y0091624D01*
X0040652Y0092358D02*
X0039551Y0092358D01*
X0039184Y0092725D01*
X0039184Y0093459D01*
X0039551Y0093826D01*
X0040652Y0093826D01*
X0039918Y0092358D02*
X0039184Y0091624D01*
X0038442Y0091991D02*
X0038075Y0091624D01*
X0037341Y0091624D01*
X0036974Y0091991D01*
X0036974Y0092358D01*
X0037341Y0092725D01*
X0038442Y0092725D01*
X0038442Y0091991D01*
X0038442Y0092725D02*
X0037708Y0093459D01*
X0036974Y0093826D01*
X0025652Y0093826D02*
X0025652Y0091624D01*
X0025652Y0092358D02*
X0024551Y0092358D01*
X0024184Y0092725D01*
X0024184Y0093459D01*
X0024551Y0093826D01*
X0025652Y0093826D01*
X0024918Y0092358D02*
X0024184Y0091624D01*
X0023442Y0091991D02*
X0023075Y0091624D01*
X0022341Y0091624D01*
X0021974Y0091991D01*
X0021974Y0092725D01*
X0022341Y0093092D01*
X0022708Y0093092D01*
X0023442Y0092725D01*
X0023442Y0093826D01*
X0021974Y0093826D01*
X0022735Y0069664D02*
X0023836Y0069664D01*
X0023836Y0067463D01*
X0023836Y0068197D02*
X0022735Y0068197D01*
X0022368Y0068564D01*
X0022368Y0069297D01*
X0022735Y0069664D01*
X0023102Y0068197D02*
X0022368Y0067463D01*
X0021626Y0068564D02*
X0020158Y0068564D01*
X0020525Y0069664D02*
X0021626Y0068564D01*
X0020525Y0069664D02*
X0020525Y0067463D01*
X0035158Y0067463D02*
X0036626Y0067463D01*
X0035892Y0067463D02*
X0035892Y0069664D01*
X0036626Y0068931D01*
X0037368Y0069297D02*
X0037368Y0068564D01*
X0037735Y0068197D01*
X0038836Y0068197D01*
X0038836Y0067463D02*
X0038836Y0069664D01*
X0037735Y0069664D01*
X0037368Y0069297D01*
X0038102Y0068197D02*
X0037368Y0067463D01*
X0035652Y0131624D02*
X0035652Y0133826D01*
X0034551Y0133826D01*
X0034184Y0133459D01*
X0034184Y0132725D01*
X0034551Y0132358D01*
X0035652Y0132358D01*
X0034918Y0132358D02*
X0034184Y0131624D01*
X0033442Y0131991D02*
X0033075Y0131624D01*
X0032341Y0131624D01*
X0031974Y0131991D01*
X0031974Y0132358D01*
X0032341Y0132725D01*
X0032708Y0132725D01*
X0032341Y0132725D02*
X0031974Y0133092D01*
X0031974Y0133459D01*
X0032341Y0133826D01*
X0033075Y0133826D01*
X0033442Y0133459D01*
X0033836Y0134963D02*
X0033836Y0137164D01*
X0032735Y0137164D01*
X0032368Y0136797D01*
X0032368Y0136064D01*
X0032735Y0135697D01*
X0033836Y0135697D01*
X0033102Y0135697D02*
X0032368Y0134963D01*
X0031626Y0134963D02*
X0030158Y0137164D01*
X0031626Y0137164D02*
X0030158Y0134963D01*
D19*
X0025488Y0042519D03*
D20*
X0025488Y0042530D03*
X0030904Y0050764D03*
X0030893Y0050787D03*
X0030870Y0050833D03*
X0030870Y0050845D03*
X0030858Y0050856D03*
X0030858Y0050867D03*
X0030824Y0050925D03*
X0030824Y0050937D03*
X0030812Y0050959D03*
X0030789Y0051005D03*
D21*
X0030484Y0051695D03*
X0035153Y0051466D03*
X0030910Y0060240D03*
X0021043Y0061241D03*
X0021043Y0061252D03*
X0025493Y0042541D03*
D22*
X0025488Y0042553D03*
X0022785Y0046106D03*
X0022785Y0046118D03*
X0022785Y0046130D03*
X0020692Y0046164D03*
X0020681Y0046187D03*
X0020658Y0046221D03*
X0020175Y0047165D03*
X0020163Y0047187D03*
X0020152Y0047210D03*
X0020152Y0047222D03*
X0020129Y0047268D03*
X0020129Y0047280D03*
X0020117Y0047291D03*
X0020117Y0047302D03*
X0020106Y0047326D03*
X0030318Y0052041D03*
X0030318Y0052052D03*
X0030881Y0060045D03*
D23*
X0030847Y0059860D03*
X0030847Y0059849D03*
X0030214Y0052248D03*
X0035136Y0051339D03*
X0025488Y0042565D03*
X0021233Y0045416D03*
X0021221Y0045428D03*
X0021210Y0045440D03*
X0022877Y0047291D03*
X0022877Y0047302D03*
X0022877Y0047314D03*
X0019818Y0048142D03*
X0019818Y0048153D03*
X0019807Y0048165D03*
X0019807Y0048177D03*
X0019807Y0048188D03*
X0023084Y0051109D03*
X0023096Y0051132D03*
X0023107Y0051144D03*
X0023119Y0051166D03*
X0017369Y0056595D03*
X0021083Y0060919D03*
X0021083Y0060930D03*
D24*
X0017409Y0056514D03*
X0019674Y0048694D03*
X0019674Y0048683D03*
X0022963Y0047038D03*
X0025493Y0042576D03*
X0028414Y0047027D03*
X0028426Y0047038D03*
X0028426Y0047049D03*
X0028449Y0047073D03*
X0028529Y0050591D03*
X0028506Y0050626D03*
X0028506Y0050637D03*
X0028495Y0050649D03*
X0028460Y0050706D03*
X0028449Y0050718D03*
X0030806Y0059642D03*
D25*
X0030766Y0059401D03*
X0030766Y0059389D03*
X0030030Y0052581D03*
X0027661Y0051500D03*
X0028041Y0046670D03*
X0025488Y0042588D03*
X0021854Y0044784D03*
X0021842Y0044795D03*
X0019588Y0049096D03*
X0019588Y0049108D03*
X0019588Y0049120D03*
X0023659Y0051638D03*
X0017438Y0056410D03*
X0021129Y0060573D03*
X0021129Y0060585D03*
X0035113Y0051201D03*
D26*
X0035102Y0051132D03*
X0029961Y0052696D03*
X0023786Y0051695D03*
X0023119Y0046773D03*
X0022038Y0044634D03*
X0025488Y0042599D03*
X0019542Y0049384D03*
X0019542Y0049395D03*
X0019542Y0049407D03*
X0017472Y0056319D03*
X0021152Y0060412D03*
X0021152Y0060424D03*
X0025488Y0061045D03*
X0030720Y0059170D03*
X0030720Y0059159D03*
D27*
X0030668Y0058871D03*
X0030668Y0058860D03*
X0030668Y0058848D03*
X0025493Y0060861D03*
X0021181Y0060228D03*
X0021181Y0060217D03*
X0017512Y0056192D03*
X0019502Y0049695D03*
X0019502Y0049683D03*
X0019502Y0049671D03*
X0023193Y0046681D03*
X0022239Y0044485D03*
X0025493Y0042610D03*
X0023918Y0051741D03*
X0035084Y0051052D03*
D28*
X0035056Y0050971D03*
X0029835Y0052891D03*
X0030617Y0058538D03*
X0030617Y0058549D03*
X0030617Y0058561D03*
X0025499Y0060677D03*
X0025499Y0060688D03*
X0025499Y0060700D03*
X0021210Y0060033D03*
X0021210Y0060021D03*
X0017553Y0056077D03*
X0019485Y0049902D03*
X0022383Y0044393D03*
X0025499Y0042622D03*
D29*
X0025493Y0042634D03*
X0022515Y0044312D03*
X0019467Y0050109D03*
X0017604Y0055927D03*
X0021250Y0059780D03*
X0021250Y0059791D03*
X0021250Y0059803D03*
X0025516Y0060481D03*
X0030553Y0058170D03*
X0030553Y0058159D03*
X0030553Y0058147D03*
X0030553Y0058135D03*
X0024090Y0051776D03*
D30*
X0019456Y0050281D03*
X0017650Y0055778D03*
X0025493Y0042645D03*
X0030461Y0057618D03*
X0030461Y0057630D03*
X0030461Y0057641D03*
X0030473Y0057652D03*
X0030473Y0057664D03*
X0030473Y0057676D03*
X0030473Y0057687D03*
D31*
X0025499Y0042656D03*
D32*
X0025499Y0042668D03*
X0030168Y0044956D03*
X0030214Y0044991D03*
X0030226Y0045002D03*
X0030249Y0045014D03*
X0030260Y0045026D03*
X0030272Y0045037D03*
X0030306Y0045060D03*
X0030318Y0045071D03*
X0030352Y0045095D03*
X0030364Y0045106D03*
X0030421Y0045152D03*
X0030479Y0045198D03*
X0034941Y0050672D03*
X0029616Y0053167D03*
X0030145Y0056042D03*
X0030145Y0056054D03*
X0030157Y0056088D03*
X0030157Y0056100D03*
X0030157Y0056112D03*
X0030168Y0056134D03*
X0030168Y0056146D03*
X0030180Y0056192D03*
X0025580Y0059803D03*
X0025580Y0059815D03*
X0025580Y0059826D03*
X0021394Y0058883D03*
X0021394Y0058871D03*
X0021394Y0058860D03*
X0021405Y0058814D03*
X0017771Y0055410D03*
X0017771Y0055398D03*
X0019450Y0050591D03*
X0019450Y0050580D03*
D33*
X0019450Y0050706D03*
X0022291Y0053444D03*
X0021474Y0058377D03*
X0021474Y0058388D03*
X0021474Y0058400D03*
X0021463Y0058423D03*
X0021463Y0058434D03*
X0021463Y0058446D03*
X0021463Y0058458D03*
X0025614Y0059562D03*
X0029973Y0055421D03*
X0029973Y0055410D03*
X0029973Y0055398D03*
X0029961Y0055387D03*
X0029961Y0055376D03*
X0029961Y0055364D03*
X0029950Y0055341D03*
X0029570Y0053213D03*
X0031042Y0045692D03*
X0031031Y0045681D03*
X0031019Y0045670D03*
X0031008Y0045658D03*
X0030996Y0045646D03*
X0029674Y0044623D03*
X0029651Y0044612D03*
X0025499Y0042680D03*
X0017840Y0055203D03*
D34*
X0017938Y0054938D03*
X0017949Y0054916D03*
X0017949Y0054904D03*
X0019456Y0050833D03*
X0021595Y0057652D03*
X0021595Y0057664D03*
X0021595Y0057676D03*
X0029806Y0054904D03*
X0029806Y0054892D03*
X0029817Y0054927D03*
X0034866Y0050534D03*
X0025505Y0042691D03*
D35*
X0025499Y0042702D03*
X0019462Y0050959D03*
X0022176Y0055065D03*
X0022176Y0055077D03*
X0022176Y0055088D03*
D36*
X0022463Y0053559D03*
X0019462Y0051052D03*
X0018266Y0054180D03*
X0025499Y0042714D03*
D37*
X0025505Y0042726D03*
X0031864Y0046578D03*
X0031876Y0046590D03*
X0029403Y0053386D03*
X0025769Y0058020D03*
X0025769Y0058032D03*
X0025769Y0058044D03*
X0025769Y0058055D03*
X0025769Y0058066D03*
X0022503Y0053581D03*
X0019467Y0051144D03*
X0018398Y0053915D03*
X0018386Y0053938D03*
D38*
X0018536Y0053673D03*
X0018547Y0053662D03*
X0019479Y0051235D03*
X0023768Y0046371D03*
X0023251Y0044025D03*
X0025505Y0042737D03*
X0028736Y0044163D03*
X0031979Y0046716D03*
X0031991Y0046727D03*
X0032002Y0046739D03*
X0029357Y0053420D03*
X0025827Y0057445D03*
X0025827Y0057457D03*
X0025827Y0057469D03*
X0025827Y0057480D03*
X0025815Y0057515D03*
X0025815Y0057526D03*
X0025815Y0057537D03*
X0025815Y0057549D03*
X0025815Y0057560D03*
D39*
X0025867Y0057043D03*
X0025867Y0057031D03*
X0025867Y0057020D03*
X0025867Y0057009D03*
X0025867Y0056997D03*
X0025867Y0056985D03*
X0029317Y0053455D03*
X0025511Y0042748D03*
D40*
X0025511Y0042760D03*
X0025959Y0045945D03*
X0022636Y0053651D03*
X0025902Y0056514D03*
X0025902Y0056526D03*
X0025902Y0056537D03*
X0025902Y0056548D03*
X0025902Y0056560D03*
X0025902Y0056571D03*
X0018737Y0053409D03*
X0018726Y0053420D03*
X0032204Y0047003D03*
D41*
X0032290Y0047119D03*
X0032301Y0047130D03*
X0028483Y0044083D03*
X0025516Y0042771D03*
X0019513Y0051488D03*
X0022687Y0053673D03*
X0025930Y0056123D03*
X0025930Y0056134D03*
X0025930Y0056146D03*
X0025930Y0056158D03*
X0025930Y0056169D03*
X0025930Y0056180D03*
X0029242Y0053512D03*
D42*
X0025948Y0055801D03*
X0025948Y0055812D03*
X0025948Y0055824D03*
X0025948Y0055835D03*
X0019531Y0051569D03*
X0025511Y0042783D03*
D43*
X0025516Y0042795D03*
X0032451Y0047337D03*
X0032462Y0047348D03*
X0029173Y0053559D03*
X0025965Y0055502D03*
X0025965Y0055513D03*
X0025965Y0055525D03*
X0025965Y0055537D03*
X0025965Y0055548D03*
X0025459Y0052155D03*
X0019536Y0051638D03*
D44*
X0019548Y0051695D03*
X0025965Y0046003D03*
X0025516Y0042806D03*
X0032520Y0047429D03*
X0029139Y0053581D03*
D45*
X0029099Y0053605D03*
X0025971Y0055099D03*
X0025971Y0055111D03*
X0025971Y0055123D03*
X0019565Y0051776D03*
X0019565Y0051765D03*
X0025522Y0042817D03*
X0032583Y0047521D03*
X0032595Y0047533D03*
D46*
X0032635Y0047602D03*
X0025528Y0042829D03*
X0019571Y0051822D03*
X0025976Y0054984D03*
D47*
X0025528Y0042841D03*
D48*
X0025534Y0042852D03*
X0019600Y0051937D03*
X0022946Y0053754D03*
X0025971Y0054697D03*
D49*
X0025476Y0052075D03*
X0032813Y0047866D03*
X0025534Y0042863D03*
D50*
X0025534Y0042875D03*
X0032859Y0047946D03*
X0019634Y0052052D03*
D51*
X0025534Y0042887D03*
X0028903Y0053696D03*
D52*
X0023078Y0053777D03*
X0025539Y0042898D03*
D53*
X0025539Y0042909D03*
X0019674Y0052202D03*
D54*
X0025488Y0052006D03*
X0025982Y0046152D03*
X0025545Y0042921D03*
X0033032Y0048245D03*
X0033043Y0048257D03*
D55*
X0025545Y0042933D03*
X0019703Y0052294D03*
D56*
X0025988Y0046187D03*
X0025551Y0042944D03*
X0033118Y0048418D03*
D57*
X0033164Y0048510D03*
X0025551Y0042955D03*
X0019732Y0052385D03*
D58*
X0025557Y0042967D03*
X0033193Y0048579D03*
D59*
X0033233Y0048671D03*
X0025562Y0042978D03*
X0019755Y0052455D03*
D60*
X0025562Y0042990D03*
X0033267Y0048763D03*
D61*
X0025562Y0043002D03*
D62*
X0025568Y0043013D03*
X0033319Y0048901D03*
X0033319Y0048912D03*
D63*
X0033348Y0048993D03*
X0025574Y0043024D03*
X0019812Y0052604D03*
D64*
X0019824Y0052638D03*
X0025574Y0043036D03*
X0033371Y0049062D03*
X0033371Y0049073D03*
D65*
X0025528Y0051834D03*
X0019847Y0052684D03*
X0025574Y0043048D03*
D66*
X0025580Y0043059D03*
X0033423Y0049258D03*
X0033423Y0049269D03*
D67*
X0033446Y0049349D03*
X0025534Y0051799D03*
X0025580Y0043070D03*
D68*
X0025585Y0043082D03*
X0033463Y0049441D03*
X0033463Y0049453D03*
X0019881Y0052777D03*
D69*
X0025585Y0043094D03*
X0033474Y0049522D03*
X0033474Y0049534D03*
D70*
X0033492Y0049626D03*
X0033492Y0049637D03*
X0025591Y0043105D03*
X0019910Y0052834D03*
D71*
X0025591Y0043116D03*
D72*
X0025597Y0043128D03*
D73*
X0025603Y0043140D03*
X0033515Y0049936D03*
X0033515Y0049948D03*
X0033515Y0049959D03*
X0019956Y0052926D03*
D74*
X0025603Y0043151D03*
D75*
X0025608Y0043162D03*
D76*
X0025608Y0043174D03*
X0020008Y0053006D03*
D77*
X0025614Y0043185D03*
D78*
X0025620Y0043197D03*
X0020031Y0053052D03*
D79*
X0020042Y0053076D03*
X0025620Y0043209D03*
D80*
X0025626Y0043220D03*
X0020060Y0053098D03*
D81*
X0020077Y0053121D03*
X0025631Y0043231D03*
D82*
X0025631Y0043243D03*
D83*
X0025637Y0043255D03*
X0020106Y0053167D03*
D84*
X0025637Y0043266D03*
D85*
X0025643Y0043277D03*
D86*
X0025649Y0043289D03*
D87*
X0025649Y0043301D03*
X0020163Y0053248D03*
D88*
X0020186Y0053271D03*
X0025649Y0043312D03*
D89*
X0025660Y0043323D03*
D90*
X0025660Y0043335D03*
X0025292Y0046291D03*
X0020209Y0053305D03*
D91*
X0025666Y0043346D03*
D92*
X0025672Y0043358D03*
X0025338Y0046348D03*
D93*
X0025677Y0043370D03*
D94*
X0025677Y0043381D03*
D95*
X0025683Y0043392D03*
D96*
X0025683Y0043404D03*
D97*
X0025683Y0043416D03*
D98*
X0025689Y0043427D03*
D99*
X0025695Y0043438D03*
D100*
X0025700Y0043450D03*
D101*
X0025700Y0043462D03*
D102*
X0025706Y0043473D03*
D103*
X0025712Y0043484D03*
D104*
X0025712Y0043496D03*
D105*
X0025718Y0043508D03*
D106*
X0025723Y0043519D03*
D107*
X0025729Y0043530D03*
D108*
X0025735Y0043542D03*
D109*
X0025735Y0043553D03*
D110*
X0025741Y0043565D03*
D111*
X0025741Y0043577D03*
D112*
X0025746Y0043588D03*
X0024412Y0054536D03*
X0024412Y0054548D03*
X0024412Y0054559D03*
X0024401Y0054570D03*
X0024401Y0054582D03*
X0024401Y0054594D03*
X0024401Y0054605D03*
X0024389Y0054616D03*
X0024389Y0054628D03*
X0024389Y0054640D03*
X0024389Y0054651D03*
X0024378Y0054662D03*
X0024378Y0054674D03*
X0024378Y0054685D03*
D113*
X0025746Y0043599D03*
D114*
X0025746Y0043611D03*
D115*
X0025752Y0043623D03*
D116*
X0025758Y0043634D03*
D117*
X0025764Y0043645D03*
D118*
X0025764Y0043657D03*
D119*
X0025769Y0043669D03*
D120*
X0025775Y0043680D03*
D121*
X0025775Y0043691D03*
D122*
X0025781Y0043703D03*
D123*
X0025787Y0043715D03*
D124*
X0025792Y0043726D03*
D125*
X0025792Y0043737D03*
D126*
X0025798Y0043749D03*
D127*
X0025798Y0043760D03*
D128*
X0025804Y0043772D03*
D129*
X0025810Y0043784D03*
D130*
X0025810Y0043795D03*
D131*
X0025815Y0043806D03*
D132*
X0025815Y0043818D03*
D133*
X0025821Y0043830D03*
D134*
X0025827Y0043841D03*
D135*
X0025833Y0043852D03*
D136*
X0025833Y0043864D03*
D137*
X0025833Y0043876D03*
D138*
X0025838Y0043887D03*
D139*
X0025844Y0043898D03*
D140*
X0025850Y0043910D03*
D141*
X0025856Y0043921D03*
D142*
X0025856Y0043933D03*
D143*
X0025861Y0043945D03*
D144*
X0025867Y0043956D03*
D145*
X0025861Y0043967D03*
D146*
X0025867Y0043979D03*
D147*
X0027966Y0043991D03*
X0032922Y0048050D03*
D148*
X0032468Y0047360D03*
X0025971Y0045991D03*
X0023498Y0043991D03*
X0019542Y0051649D03*
X0025971Y0055491D03*
D149*
X0019600Y0051926D03*
X0028098Y0044002D03*
X0032744Y0047762D03*
D150*
X0032278Y0047095D03*
X0032267Y0047084D03*
X0034567Y0050235D03*
X0025965Y0045957D03*
X0023389Y0044002D03*
X0019513Y0051477D03*
X0025930Y0056203D03*
X0025930Y0056215D03*
X0025930Y0056227D03*
X0025930Y0056238D03*
D151*
X0025971Y0054973D03*
X0025971Y0054962D03*
X0025971Y0054950D03*
X0019577Y0051834D03*
X0028179Y0044013D03*
X0032652Y0047624D03*
D152*
X0032135Y0046912D03*
X0032123Y0046900D03*
X0028639Y0044128D03*
X0025959Y0045934D03*
X0023314Y0044013D03*
X0019496Y0051351D03*
X0018668Y0053490D03*
X0025879Y0056848D03*
X0025879Y0056859D03*
X0025879Y0056870D03*
X0025879Y0056882D03*
X0025879Y0056894D03*
X0025879Y0056905D03*
D153*
X0025971Y0055180D03*
X0025971Y0055169D03*
X0025971Y0055157D03*
X0025465Y0052133D03*
X0025971Y0046015D03*
X0028248Y0044025D03*
X0032572Y0047498D03*
X0019565Y0051753D03*
D154*
X0028294Y0044037D03*
D155*
X0028857Y0044209D03*
X0023199Y0044037D03*
X0019473Y0051155D03*
X0019473Y0051166D03*
X0018427Y0053869D03*
X0018404Y0053903D03*
X0025775Y0057952D03*
X0025775Y0057963D03*
X0025775Y0057974D03*
X0025775Y0057986D03*
X0025775Y0057998D03*
X0025775Y0058009D03*
X0034734Y0050362D03*
D156*
X0034481Y0050201D03*
X0028351Y0044048D03*
D157*
X0028938Y0044244D03*
X0031767Y0046463D03*
X0031778Y0046474D03*
X0029421Y0053363D03*
X0025741Y0058308D03*
X0025741Y0058320D03*
X0025741Y0058331D03*
X0025741Y0058342D03*
X0025741Y0058354D03*
X0018300Y0054110D03*
X0018300Y0054099D03*
X0018289Y0054122D03*
X0023153Y0044048D03*
D158*
X0028403Y0044059D03*
X0032382Y0047245D03*
X0032393Y0047256D03*
X0025459Y0052167D03*
X0025953Y0055744D03*
X0025953Y0055755D03*
X0025953Y0055766D03*
X0025953Y0055778D03*
X0025953Y0055790D03*
D159*
X0025712Y0058584D03*
X0025712Y0058595D03*
X0025712Y0058607D03*
X0025712Y0058619D03*
X0025712Y0058630D03*
X0029449Y0053340D03*
X0031669Y0046348D03*
X0023113Y0044059D03*
X0019467Y0051017D03*
X0018191Y0054329D03*
X0018191Y0054341D03*
D160*
X0018818Y0053340D03*
X0019519Y0051523D03*
X0025936Y0055996D03*
X0025936Y0056008D03*
X0029225Y0053524D03*
X0032330Y0047165D03*
X0032319Y0047153D03*
X0028443Y0044071D03*
D161*
X0029145Y0044335D03*
X0031560Y0046221D03*
X0029685Y0054570D03*
X0029685Y0054582D03*
X0029697Y0054594D03*
X0029697Y0054605D03*
X0025683Y0058848D03*
X0025683Y0058860D03*
X0025683Y0058871D03*
X0025683Y0058883D03*
X0025683Y0058895D03*
X0022141Y0055203D03*
X0022153Y0055169D03*
X0022153Y0055157D03*
X0022153Y0055145D03*
X0022164Y0055123D03*
X0022164Y0055111D03*
X0022164Y0055099D03*
X0022187Y0055042D03*
X0022187Y0055030D03*
X0022406Y0053524D03*
X0018093Y0054548D03*
X0018093Y0054559D03*
X0018082Y0054570D03*
X0018082Y0054582D03*
X0018070Y0054605D03*
X0023073Y0044071D03*
D162*
X0023038Y0044083D03*
X0019450Y0050902D03*
X0018024Y0054720D03*
X0018024Y0054731D03*
X0018013Y0054743D03*
X0021992Y0055755D03*
X0021992Y0055766D03*
X0021992Y0055778D03*
X0021992Y0055790D03*
X0021980Y0055801D03*
X0021980Y0055812D03*
X0021980Y0055824D03*
X0021980Y0055835D03*
X0021969Y0055847D03*
X0021969Y0055859D03*
X0021969Y0055870D03*
X0021969Y0055881D03*
X0021957Y0055893D03*
X0021957Y0055905D03*
X0021957Y0055916D03*
X0021957Y0055927D03*
X0021946Y0055951D03*
X0021946Y0055962D03*
X0021946Y0055973D03*
X0021934Y0055996D03*
X0021934Y0056008D03*
X0021934Y0056020D03*
X0021923Y0056042D03*
X0021923Y0056054D03*
X0021923Y0056066D03*
X0021911Y0056100D03*
X0021911Y0056112D03*
X0021900Y0056158D03*
X0021900Y0056169D03*
X0021888Y0056203D03*
X0021888Y0056215D03*
X0021877Y0056261D03*
X0021865Y0056319D03*
X0021854Y0056365D03*
X0021842Y0056422D03*
X0022003Y0055732D03*
X0022003Y0055720D03*
X0022015Y0055686D03*
X0022015Y0055674D03*
X0022026Y0055640D03*
X0029731Y0054697D03*
X0029743Y0054720D03*
X0029237Y0044381D03*
X0029214Y0044370D03*
D163*
X0028529Y0044094D03*
X0032244Y0047049D03*
X0025919Y0056319D03*
X0025919Y0056330D03*
X0025919Y0056341D03*
X0025919Y0056353D03*
X0025919Y0056365D03*
X0025919Y0056376D03*
D164*
X0025649Y0059182D03*
X0025649Y0059194D03*
X0025649Y0059205D03*
X0025649Y0059216D03*
X0021612Y0057572D03*
X0021612Y0057560D03*
X0021624Y0057515D03*
X0021624Y0057503D03*
X0021624Y0057491D03*
X0021635Y0057469D03*
X0021635Y0057457D03*
X0021635Y0057445D03*
X0021635Y0057434D03*
X0021635Y0057423D03*
X0021647Y0057399D03*
X0021647Y0057388D03*
X0021647Y0057377D03*
X0021647Y0057365D03*
X0021658Y0057330D03*
X0021658Y0057319D03*
X0022360Y0053490D03*
X0019450Y0050845D03*
X0017967Y0054870D03*
X0017955Y0054881D03*
X0017955Y0054892D03*
X0023590Y0046417D03*
X0023004Y0044094D03*
X0029306Y0044416D03*
X0029329Y0044427D03*
X0031341Y0045991D03*
X0031353Y0046003D03*
X0031364Y0046015D03*
X0031376Y0046026D03*
X0029524Y0053271D03*
X0029789Y0054846D03*
X0029789Y0054858D03*
X0029800Y0054870D03*
X0029800Y0054881D03*
D165*
X0029288Y0053478D03*
X0025896Y0056583D03*
X0019502Y0051408D03*
X0019502Y0051396D03*
X0028564Y0044105D03*
X0032186Y0046980D03*
X0032198Y0046992D03*
X0034613Y0050258D03*
D166*
X0031261Y0045911D03*
X0031249Y0045899D03*
X0031238Y0045888D03*
X0029455Y0044496D03*
X0029432Y0044485D03*
X0022969Y0044105D03*
X0019450Y0050787D03*
X0019450Y0050798D03*
X0017909Y0055019D03*
X0021555Y0057894D03*
X0021555Y0057905D03*
X0021543Y0057940D03*
X0021543Y0057952D03*
X0021543Y0057963D03*
X0021543Y0057974D03*
X0021543Y0057986D03*
X0021532Y0058032D03*
X0025626Y0059366D03*
X0029858Y0055053D03*
X0029858Y0055042D03*
X0029846Y0055019D03*
D167*
X0025896Y0056652D03*
X0025896Y0056663D03*
X0025896Y0056675D03*
X0025896Y0056687D03*
X0025896Y0056698D03*
X0025896Y0056709D03*
X0018708Y0053444D03*
X0019502Y0051385D03*
X0028598Y0044117D03*
X0032163Y0046946D03*
D168*
X0031123Y0045773D03*
X0031111Y0045762D03*
X0031100Y0045750D03*
X0031088Y0045738D03*
X0031077Y0045727D03*
X0031065Y0045716D03*
X0029593Y0044577D03*
X0029570Y0044566D03*
X0034895Y0050591D03*
X0029559Y0053225D03*
X0029915Y0055226D03*
X0029927Y0055249D03*
X0029927Y0055260D03*
X0029927Y0055272D03*
X0029938Y0055295D03*
X0025614Y0059492D03*
X0025614Y0059504D03*
X0025614Y0059516D03*
X0021486Y0058331D03*
X0021486Y0058320D03*
X0021486Y0058308D03*
X0021486Y0058296D03*
X0021486Y0058285D03*
X0021497Y0058251D03*
X0021497Y0058239D03*
X0022302Y0053455D03*
X0019450Y0050741D03*
X0019450Y0050730D03*
X0017863Y0055134D03*
X0017863Y0055145D03*
X0022935Y0044117D03*
D169*
X0022906Y0044128D03*
X0023527Y0046440D03*
X0019444Y0050695D03*
X0017834Y0055215D03*
X0017834Y0055226D03*
X0021457Y0058469D03*
X0021457Y0058480D03*
X0021457Y0058492D03*
X0021457Y0058503D03*
X0025608Y0059573D03*
X0025608Y0059584D03*
X0025608Y0059596D03*
X0030001Y0055513D03*
X0029990Y0055479D03*
X0029990Y0055467D03*
X0029990Y0055456D03*
X0029978Y0055445D03*
X0029978Y0055433D03*
X0025436Y0052282D03*
X0030979Y0045635D03*
X0030967Y0045623D03*
X0030956Y0045612D03*
X0030944Y0045601D03*
X0030933Y0045589D03*
X0029725Y0044658D03*
X0029691Y0044634D03*
X0034912Y0050615D03*
D170*
X0034659Y0050292D03*
X0032083Y0046842D03*
X0028667Y0044140D03*
X0022584Y0053627D03*
X0025861Y0057055D03*
X0025861Y0057066D03*
X0025861Y0057077D03*
X0025861Y0057089D03*
X0025861Y0057101D03*
X0025861Y0057112D03*
X0018639Y0053524D03*
X0018628Y0053535D03*
X0019490Y0051316D03*
D171*
X0019450Y0050649D03*
X0019450Y0050637D03*
X0017806Y0055295D03*
X0017806Y0055306D03*
X0021428Y0058653D03*
X0021428Y0058665D03*
X0021428Y0058676D03*
X0021428Y0058687D03*
X0025591Y0059688D03*
X0025591Y0059699D03*
X0025591Y0059711D03*
X0025591Y0059723D03*
X0030076Y0055778D03*
X0030065Y0055744D03*
X0030065Y0055732D03*
X0030053Y0055709D03*
X0030053Y0055698D03*
X0030053Y0055686D03*
X0030042Y0055663D03*
X0030042Y0055652D03*
X0029593Y0053191D03*
X0030801Y0045474D03*
X0030789Y0045462D03*
X0030778Y0045451D03*
X0030766Y0045440D03*
X0029869Y0044749D03*
X0029835Y0044727D03*
X0029800Y0044703D03*
X0022877Y0044140D03*
D172*
X0028702Y0044152D03*
X0018605Y0053570D03*
D173*
X0019444Y0050603D03*
X0022848Y0044152D03*
X0030450Y0045175D03*
X0021411Y0058780D03*
X0021411Y0058791D03*
X0021411Y0058802D03*
D174*
X0021382Y0058941D03*
X0021382Y0058952D03*
X0021382Y0058963D03*
X0017760Y0055445D03*
X0019450Y0050557D03*
X0022820Y0044163D03*
X0025430Y0052294D03*
X0029628Y0053156D03*
X0030191Y0056238D03*
X0030203Y0056284D03*
X0030203Y0056295D03*
X0030203Y0056307D03*
X0030214Y0056319D03*
X0030214Y0056330D03*
X0030214Y0056341D03*
X0030214Y0056353D03*
X0030237Y0056434D03*
D175*
X0025810Y0057572D03*
X0025810Y0057584D03*
X0025810Y0057595D03*
X0025810Y0057606D03*
X0025810Y0057618D03*
X0025810Y0057630D03*
X0018530Y0053685D03*
X0028765Y0044174D03*
X0031962Y0046693D03*
X0031974Y0046705D03*
D176*
X0034952Y0050706D03*
X0029639Y0053145D03*
X0030249Y0056491D03*
X0030249Y0056502D03*
X0030260Y0056537D03*
X0030260Y0056548D03*
X0030260Y0056560D03*
X0030272Y0056583D03*
X0030272Y0056595D03*
X0030272Y0056606D03*
X0030283Y0056652D03*
X0025568Y0059906D03*
X0025568Y0059918D03*
X0025568Y0059930D03*
X0021371Y0059044D03*
X0021371Y0059033D03*
X0021371Y0059021D03*
X0017748Y0055491D03*
X0017748Y0055479D03*
X0022199Y0053374D03*
X0019450Y0050523D03*
X0022797Y0044174D03*
D177*
X0025959Y0045911D03*
X0028800Y0044186D03*
X0031939Y0046670D03*
X0031951Y0046681D03*
X0034711Y0050338D03*
X0029375Y0053409D03*
X0025798Y0057698D03*
X0025798Y0057710D03*
X0025798Y0057721D03*
X0025798Y0057733D03*
X0025798Y0057745D03*
X0025798Y0057756D03*
X0018484Y0053766D03*
X0018496Y0053742D03*
D178*
X0017737Y0055525D03*
X0017725Y0055537D03*
X0017725Y0055548D03*
X0021359Y0059102D03*
X0021359Y0059113D03*
X0021359Y0059124D03*
X0025568Y0059952D03*
X0025568Y0059964D03*
X0030318Y0056824D03*
X0030318Y0056813D03*
X0030306Y0056778D03*
X0030306Y0056767D03*
X0030306Y0056755D03*
X0030306Y0056744D03*
X0030295Y0056721D03*
X0030295Y0056709D03*
X0034964Y0050718D03*
X0022774Y0044186D03*
X0019450Y0050488D03*
X0019450Y0050499D03*
D179*
X0019473Y0051178D03*
X0018461Y0053812D03*
X0018450Y0053823D03*
X0018438Y0053846D03*
X0022521Y0053593D03*
X0025787Y0057825D03*
X0025787Y0057837D03*
X0025787Y0057848D03*
X0025787Y0057859D03*
X0025787Y0057871D03*
X0025787Y0057883D03*
X0029386Y0053398D03*
X0034722Y0050350D03*
X0031916Y0046635D03*
X0031905Y0046624D03*
X0028823Y0044198D03*
D180*
X0023435Y0046486D03*
X0022745Y0044198D03*
X0019444Y0050442D03*
X0022170Y0053352D03*
X0017708Y0055594D03*
X0017708Y0055605D03*
X0021342Y0059205D03*
X0021342Y0059216D03*
X0021342Y0059228D03*
X0025551Y0060045D03*
X0029668Y0053110D03*
X0030346Y0056962D03*
X0030346Y0056974D03*
X0030346Y0056985D03*
X0030346Y0056997D03*
X0030358Y0057009D03*
X0030358Y0057020D03*
X0030358Y0057031D03*
X0034969Y0050741D03*
D181*
X0034981Y0050764D03*
X0029679Y0053098D03*
X0030369Y0057089D03*
X0030369Y0057101D03*
X0030381Y0057135D03*
X0030381Y0057146D03*
X0030381Y0057158D03*
X0030381Y0057170D03*
X0025551Y0060079D03*
X0025551Y0060091D03*
X0025551Y0060102D03*
X0021330Y0059297D03*
X0021330Y0059285D03*
X0021330Y0059274D03*
X0022158Y0053340D03*
X0025436Y0052305D03*
X0027287Y0046371D03*
X0022722Y0044209D03*
D182*
X0025959Y0045899D03*
X0028880Y0044220D03*
X0031836Y0046544D03*
X0031847Y0046555D03*
X0031859Y0046566D03*
X0034745Y0050373D03*
X0025442Y0052236D03*
X0025764Y0058078D03*
X0025764Y0058090D03*
X0025764Y0058101D03*
X0025764Y0058112D03*
X0025764Y0058124D03*
X0019473Y0051132D03*
X0018392Y0053927D03*
X0018381Y0053949D03*
X0018369Y0053973D03*
D183*
X0017679Y0055686D03*
X0017679Y0055698D03*
X0021313Y0059377D03*
X0021313Y0059389D03*
X0021313Y0059401D03*
X0025545Y0060148D03*
X0025545Y0060159D03*
X0025545Y0060171D03*
X0030421Y0057388D03*
X0030421Y0057377D03*
X0030421Y0057365D03*
X0030421Y0057353D03*
X0030410Y0057319D03*
X0030410Y0057308D03*
X0022693Y0044220D03*
X0019450Y0050362D03*
X0019450Y0050373D03*
D184*
X0019473Y0051109D03*
X0018346Y0054019D03*
X0018335Y0054030D03*
X0018335Y0054041D03*
X0018323Y0054053D03*
X0022486Y0053570D03*
X0025752Y0058193D03*
X0025752Y0058205D03*
X0025752Y0058216D03*
X0025752Y0058227D03*
X0025752Y0058239D03*
X0031813Y0046509D03*
X0034757Y0050384D03*
X0028915Y0044232D03*
D185*
X0022670Y0044232D03*
X0030433Y0057445D03*
X0030433Y0057457D03*
X0030433Y0057469D03*
X0025534Y0060217D03*
D186*
X0025534Y0060240D03*
X0025534Y0060252D03*
X0025534Y0060263D03*
X0021290Y0059527D03*
X0021290Y0059516D03*
X0021290Y0059504D03*
X0017656Y0055766D03*
X0017656Y0055755D03*
X0019450Y0050304D03*
X0019450Y0050292D03*
X0022647Y0044244D03*
X0029708Y0053052D03*
X0030456Y0057572D03*
X0030456Y0057584D03*
X0030456Y0057595D03*
X0030456Y0057606D03*
X0034998Y0050810D03*
D187*
X0034774Y0050408D03*
X0031761Y0046452D03*
X0031749Y0046440D03*
X0031738Y0046428D03*
X0028966Y0044255D03*
X0025735Y0058366D03*
X0025735Y0058377D03*
X0025735Y0058388D03*
X0025735Y0058400D03*
X0025735Y0058412D03*
X0019467Y0051074D03*
X0019467Y0051063D03*
X0018283Y0054134D03*
X0018283Y0054145D03*
X0018271Y0054156D03*
X0018271Y0054168D03*
D188*
X0017645Y0055790D03*
X0021290Y0059538D03*
X0021290Y0059550D03*
X0021290Y0059562D03*
X0025534Y0060298D03*
X0029720Y0053041D03*
X0026925Y0051776D03*
X0025430Y0052316D03*
X0030479Y0057698D03*
X0030479Y0057710D03*
X0030479Y0057721D03*
X0030479Y0057733D03*
X0035010Y0050833D03*
X0022624Y0044255D03*
X0019450Y0050270D03*
D189*
X0019467Y0051040D03*
X0018237Y0054237D03*
X0018225Y0054248D03*
X0018225Y0054260D03*
X0025723Y0058480D03*
X0025723Y0058492D03*
X0025723Y0058503D03*
X0025723Y0058515D03*
X0025723Y0058527D03*
X0034785Y0050419D03*
X0028989Y0044266D03*
X0025953Y0045888D03*
D190*
X0022607Y0044266D03*
X0019456Y0050235D03*
X0019456Y0050246D03*
X0019456Y0050258D03*
X0017639Y0055801D03*
X0017639Y0055812D03*
X0021284Y0059573D03*
X0021284Y0059584D03*
X0025528Y0060309D03*
X0025528Y0060320D03*
X0025528Y0060332D03*
X0030496Y0057813D03*
X0030484Y0057767D03*
X0030484Y0057756D03*
X0030484Y0057745D03*
D191*
X0025718Y0058538D03*
X0025718Y0058549D03*
X0025718Y0058561D03*
X0025718Y0058573D03*
X0025442Y0052248D03*
X0029018Y0044278D03*
X0031686Y0046371D03*
X0031698Y0046383D03*
X0031709Y0046394D03*
X0034791Y0050430D03*
X0019462Y0051028D03*
X0018220Y0054271D03*
X0018208Y0054283D03*
X0018208Y0054295D03*
X0018197Y0054317D03*
D192*
X0017627Y0055835D03*
X0017627Y0055847D03*
X0021273Y0059630D03*
X0021273Y0059642D03*
X0021273Y0059653D03*
X0025528Y0060366D03*
X0030507Y0057894D03*
X0030507Y0057883D03*
X0030507Y0057871D03*
X0030507Y0057859D03*
X0029737Y0053018D03*
X0035015Y0050856D03*
X0022584Y0044278D03*
X0019456Y0050212D03*
X0019456Y0050223D03*
D193*
X0018202Y0054306D03*
X0018179Y0054352D03*
X0022285Y0054709D03*
X0022446Y0053547D03*
X0029047Y0044290D03*
X0031680Y0046359D03*
D194*
X0029748Y0053006D03*
X0030519Y0057940D03*
X0030519Y0057952D03*
X0030519Y0057963D03*
X0030519Y0057974D03*
X0025516Y0060401D03*
X0025516Y0060412D03*
X0021261Y0059711D03*
X0021261Y0059699D03*
X0019456Y0050189D03*
X0019456Y0050177D03*
X0022561Y0044290D03*
D195*
X0023653Y0046394D03*
X0019456Y0050994D03*
X0018156Y0054409D03*
X0018145Y0054433D03*
X0018145Y0054444D03*
X0018133Y0054455D03*
X0022239Y0054846D03*
X0022239Y0054858D03*
X0022239Y0054870D03*
X0022250Y0054835D03*
X0022250Y0054823D03*
X0022250Y0054812D03*
X0022262Y0054789D03*
X0022423Y0053535D03*
X0025700Y0058699D03*
X0025700Y0058710D03*
X0025700Y0058722D03*
X0025700Y0058734D03*
X0025700Y0058745D03*
X0029461Y0053328D03*
X0034808Y0050453D03*
X0029070Y0044301D03*
D196*
X0035027Y0050879D03*
X0030542Y0058066D03*
X0030542Y0058078D03*
X0030542Y0058090D03*
X0023331Y0046555D03*
X0022538Y0044301D03*
X0019456Y0050143D03*
X0017616Y0055893D03*
X0021261Y0059745D03*
D197*
X0022233Y0054892D03*
X0022233Y0054881D03*
X0018128Y0054478D03*
X0018128Y0054467D03*
X0029099Y0044312D03*
D198*
X0029116Y0044324D03*
X0031565Y0046233D03*
X0031577Y0046245D03*
X0031588Y0046256D03*
X0031600Y0046267D03*
X0034820Y0050465D03*
X0029472Y0053317D03*
X0029668Y0054536D03*
X0029679Y0054548D03*
X0029679Y0054559D03*
X0025689Y0058802D03*
X0025689Y0058814D03*
X0025689Y0058826D03*
X0025689Y0058837D03*
X0022181Y0055053D03*
X0022193Y0055019D03*
X0022193Y0055008D03*
X0022193Y0054996D03*
X0022204Y0054984D03*
X0022204Y0054973D03*
X0022216Y0054938D03*
X0019456Y0050971D03*
X0018122Y0054490D03*
X0018110Y0054513D03*
X0018110Y0054524D03*
X0018099Y0054536D03*
X0025953Y0045877D03*
D199*
X0023314Y0046566D03*
X0022498Y0044324D03*
X0019462Y0050085D03*
X0019462Y0050097D03*
X0029777Y0052972D03*
X0030559Y0058181D03*
X0030559Y0058193D03*
X0030559Y0058205D03*
X0035033Y0050902D03*
D200*
X0030576Y0058285D03*
X0030576Y0058296D03*
X0030576Y0058308D03*
X0029794Y0052949D03*
X0022480Y0044335D03*
X0017581Y0055985D03*
D201*
X0018076Y0054594D03*
X0019456Y0050948D03*
X0019456Y0050937D03*
X0022158Y0055134D03*
X0022147Y0055180D03*
X0022147Y0055191D03*
X0022135Y0055215D03*
X0022135Y0055226D03*
X0022135Y0055237D03*
X0022124Y0055249D03*
X0022124Y0055260D03*
X0022124Y0055272D03*
X0022112Y0055295D03*
X0022112Y0055306D03*
X0025447Y0052259D03*
X0029702Y0054616D03*
X0029702Y0054628D03*
X0025677Y0058906D03*
X0025677Y0058917D03*
X0025677Y0058929D03*
X0025677Y0058941D03*
X0031542Y0046210D03*
X0031531Y0046198D03*
X0029162Y0044347D03*
D202*
X0035044Y0050937D03*
X0030582Y0058320D03*
X0030582Y0058331D03*
X0030582Y0058342D03*
X0029800Y0052937D03*
X0025511Y0060573D03*
X0021221Y0059918D03*
X0017576Y0055996D03*
X0019473Y0050016D03*
X0022463Y0044347D03*
D203*
X0029191Y0044359D03*
X0031502Y0046164D03*
X0031514Y0046176D03*
X0031525Y0046187D03*
X0034826Y0050477D03*
X0029720Y0054651D03*
X0029720Y0054662D03*
X0029708Y0054640D03*
X0025672Y0058952D03*
X0025672Y0058963D03*
X0025672Y0058975D03*
X0025672Y0058987D03*
X0022061Y0055502D03*
X0022072Y0055456D03*
X0022072Y0055445D03*
X0022084Y0055421D03*
X0022084Y0055410D03*
X0022084Y0055398D03*
X0022095Y0055376D03*
X0022095Y0055364D03*
X0022095Y0055352D03*
X0022107Y0055341D03*
X0022107Y0055330D03*
X0022107Y0055318D03*
X0022118Y0055284D03*
X0018059Y0054640D03*
X0018059Y0054628D03*
X0018047Y0054651D03*
X0018047Y0054662D03*
D204*
X0022440Y0044359D03*
D205*
X0022423Y0044370D03*
X0023274Y0046601D03*
X0025942Y0045784D03*
X0027069Y0051753D03*
X0029817Y0052915D03*
X0030599Y0058423D03*
X0030599Y0058434D03*
X0030599Y0058446D03*
X0025505Y0060631D03*
X0025505Y0060642D03*
X0021215Y0059987D03*
X0021215Y0059976D03*
X0017570Y0056031D03*
X0019479Y0049959D03*
D206*
X0019479Y0049924D03*
X0019479Y0049913D03*
X0023262Y0046612D03*
X0022400Y0044381D03*
X0017558Y0056054D03*
X0017558Y0056066D03*
X0030611Y0058492D03*
X0030611Y0058503D03*
X0030611Y0058515D03*
X0030611Y0058527D03*
D207*
X0029754Y0054755D03*
X0029513Y0053283D03*
X0034849Y0050511D03*
X0029260Y0044393D03*
X0021785Y0056687D03*
X0021773Y0056733D03*
X0021773Y0056744D03*
X0021773Y0056755D03*
X0021750Y0056836D03*
X0021750Y0056848D03*
X0021750Y0056859D03*
X0021750Y0056870D03*
X0021739Y0056894D03*
X0021739Y0056905D03*
X0021739Y0056916D03*
X0021739Y0056928D03*
X0021704Y0057077D03*
X0021704Y0057089D03*
X0021693Y0057135D03*
X0021693Y0057146D03*
X0018001Y0054777D03*
D208*
X0017990Y0054801D03*
X0017990Y0054812D03*
X0017978Y0054835D03*
X0021796Y0056629D03*
X0021762Y0056778D03*
X0021762Y0056790D03*
X0021762Y0056802D03*
X0021762Y0056813D03*
X0021727Y0056951D03*
X0021727Y0056962D03*
X0021727Y0056974D03*
X0021727Y0056985D03*
X0021716Y0057009D03*
X0021716Y0057020D03*
X0021716Y0057031D03*
X0021681Y0057192D03*
X0022371Y0053501D03*
X0025660Y0059102D03*
X0025660Y0059113D03*
X0025660Y0059124D03*
X0025660Y0059136D03*
X0029766Y0054789D03*
X0029766Y0054777D03*
X0031422Y0046072D03*
X0031410Y0046060D03*
X0029283Y0044405D03*
D209*
X0029840Y0052880D03*
X0021204Y0060045D03*
X0021204Y0060056D03*
X0021204Y0060067D03*
X0019479Y0049890D03*
X0019479Y0049878D03*
X0022365Y0044405D03*
D210*
X0022348Y0044416D03*
X0019485Y0049844D03*
X0019485Y0049855D03*
X0019485Y0049867D03*
X0017553Y0056088D03*
X0021198Y0060079D03*
X0021198Y0060091D03*
X0025499Y0060712D03*
X0025499Y0060723D03*
X0030628Y0058619D03*
X0030628Y0058607D03*
X0027109Y0051741D03*
X0027546Y0046428D03*
D211*
X0022325Y0044427D03*
X0019485Y0049821D03*
X0019485Y0049833D03*
D212*
X0021629Y0057480D03*
X0021618Y0057526D03*
X0021618Y0057537D03*
X0021618Y0057549D03*
X0021606Y0057584D03*
X0021606Y0057595D03*
X0021606Y0057606D03*
X0021606Y0057618D03*
X0025643Y0059228D03*
X0025643Y0059240D03*
X0025643Y0059251D03*
X0025643Y0059262D03*
X0025436Y0052270D03*
X0031324Y0045980D03*
X0029369Y0044451D03*
X0029346Y0044439D03*
D213*
X0027586Y0046440D03*
X0025942Y0045773D03*
X0023228Y0046647D03*
X0022308Y0044439D03*
X0019490Y0049787D03*
X0019490Y0049798D03*
X0019490Y0049809D03*
X0017535Y0056123D03*
X0017535Y0056134D03*
X0021192Y0060125D03*
X0021192Y0060137D03*
X0025493Y0060769D03*
X0025493Y0060780D03*
X0030645Y0058710D03*
X0030645Y0058699D03*
D214*
X0035073Y0051028D03*
X0022296Y0044451D03*
X0021192Y0060159D03*
D215*
X0021549Y0057928D03*
X0021549Y0057917D03*
X0021560Y0057883D03*
X0021560Y0057871D03*
X0021560Y0057859D03*
X0021560Y0057848D03*
X0021560Y0057837D03*
X0021572Y0057813D03*
X0021572Y0057802D03*
X0021572Y0057791D03*
X0022342Y0053478D03*
X0017926Y0054973D03*
X0017926Y0054984D03*
X0017915Y0054996D03*
X0017915Y0055008D03*
X0025631Y0059320D03*
X0025631Y0059331D03*
X0025631Y0059343D03*
X0025631Y0059355D03*
X0029852Y0055030D03*
X0029840Y0055008D03*
X0029840Y0054996D03*
X0029840Y0054984D03*
X0029829Y0054973D03*
X0029829Y0054962D03*
X0034877Y0050557D03*
X0031278Y0045923D03*
X0029415Y0044473D03*
X0029392Y0044462D03*
D216*
X0027615Y0046452D03*
X0022279Y0044462D03*
X0019496Y0049729D03*
X0019496Y0049741D03*
X0019496Y0049752D03*
X0017530Y0056158D03*
X0021187Y0060171D03*
X0021187Y0060183D03*
X0025488Y0060815D03*
X0030663Y0058802D03*
X0030663Y0058791D03*
X0029881Y0052823D03*
D217*
X0025493Y0060827D03*
X0025493Y0060838D03*
X0021181Y0060205D03*
X0021181Y0060194D03*
X0017524Y0056169D03*
X0019502Y0049717D03*
X0023205Y0046670D03*
X0022262Y0044473D03*
D218*
X0022222Y0044496D03*
X0027650Y0046463D03*
X0021175Y0060240D03*
X0021175Y0060252D03*
X0025488Y0060873D03*
X0025488Y0060884D03*
X0017507Y0056203D03*
D219*
X0017892Y0055065D03*
X0017892Y0055053D03*
X0017903Y0055042D03*
X0017903Y0055030D03*
X0019456Y0050776D03*
X0022319Y0053466D03*
X0021537Y0057998D03*
X0021537Y0058009D03*
X0021537Y0058020D03*
X0021526Y0058044D03*
X0021526Y0058055D03*
X0021526Y0058066D03*
X0021526Y0058078D03*
X0021514Y0058135D03*
X0025631Y0059377D03*
X0025631Y0059389D03*
X0025631Y0059401D03*
X0029886Y0055134D03*
X0029875Y0055099D03*
X0029875Y0055088D03*
X0029863Y0055077D03*
X0029863Y0055065D03*
X0031220Y0045865D03*
X0031209Y0045853D03*
X0029495Y0044520D03*
X0029472Y0044508D03*
X0025953Y0045853D03*
D220*
X0027678Y0046474D03*
X0025424Y0052351D03*
X0029898Y0052788D03*
X0030680Y0058906D03*
X0030680Y0058917D03*
X0030680Y0058929D03*
X0035084Y0051063D03*
X0023182Y0046693D03*
X0022193Y0044520D03*
X0022204Y0044508D03*
X0019513Y0049637D03*
X0017512Y0056215D03*
D221*
X0017875Y0055111D03*
X0017886Y0055088D03*
X0017886Y0055077D03*
X0019450Y0050764D03*
X0019450Y0050752D03*
X0023556Y0046428D03*
X0029513Y0044531D03*
X0031134Y0045784D03*
X0031146Y0045796D03*
X0031157Y0045808D03*
X0031180Y0045830D03*
X0031192Y0045842D03*
X0034883Y0050569D03*
X0029547Y0053237D03*
X0029881Y0055111D03*
X0029881Y0055123D03*
X0029904Y0055191D03*
X0021509Y0058147D03*
X0021509Y0058159D03*
X0021509Y0058170D03*
X0021509Y0058181D03*
D222*
X0017501Y0056238D03*
X0019513Y0049602D03*
X0019513Y0049591D03*
X0022181Y0044531D03*
D223*
X0029530Y0044542D03*
X0029553Y0044554D03*
X0034889Y0050580D03*
X0029898Y0055169D03*
X0029898Y0055180D03*
X0029909Y0055203D03*
X0029909Y0055215D03*
X0029921Y0055237D03*
X0025620Y0059458D03*
X0025620Y0059470D03*
X0025620Y0059481D03*
X0021491Y0058273D03*
X0021491Y0058262D03*
X0021503Y0058227D03*
X0021503Y0058216D03*
X0021503Y0058205D03*
X0021503Y0058193D03*
X0017869Y0055123D03*
X0017880Y0055099D03*
D224*
X0017495Y0056249D03*
X0021164Y0060309D03*
X0025488Y0060930D03*
X0025488Y0060941D03*
X0030697Y0059009D03*
X0030697Y0058998D03*
X0030697Y0058987D03*
X0029915Y0052765D03*
X0035090Y0051086D03*
X0023878Y0051730D03*
X0023165Y0046716D03*
X0022164Y0044542D03*
X0019519Y0049568D03*
X0019519Y0049580D03*
D225*
X0019513Y0049556D03*
X0022147Y0044554D03*
X0025942Y0045762D03*
X0027287Y0051684D03*
X0025482Y0060953D03*
X0021169Y0060320D03*
D226*
X0025488Y0060965D03*
X0029927Y0052753D03*
X0027730Y0046498D03*
X0023153Y0046727D03*
X0022130Y0044566D03*
X0017495Y0056261D03*
D227*
X0017489Y0056273D03*
X0021158Y0060355D03*
X0025482Y0060976D03*
X0030703Y0059055D03*
X0030703Y0059044D03*
X0029932Y0052742D03*
X0027322Y0051673D03*
X0027759Y0046509D03*
X0022112Y0044577D03*
X0019525Y0049499D03*
X0019525Y0049510D03*
X0019525Y0049522D03*
D228*
X0017857Y0055157D03*
X0017857Y0055169D03*
X0021480Y0058342D03*
X0021480Y0058354D03*
X0021480Y0058366D03*
X0021468Y0058412D03*
X0029944Y0055330D03*
X0029944Y0055318D03*
X0029944Y0055306D03*
X0029932Y0055284D03*
X0034900Y0050603D03*
X0031048Y0045704D03*
X0029610Y0044588D03*
D229*
X0029938Y0052730D03*
X0023843Y0051719D03*
X0023142Y0046739D03*
X0022095Y0044588D03*
X0019531Y0049476D03*
X0019531Y0049487D03*
X0017484Y0056284D03*
X0021164Y0060366D03*
X0025488Y0060987D03*
X0025488Y0060999D03*
X0030709Y0059090D03*
X0030709Y0059078D03*
X0030709Y0059067D03*
D230*
X0029955Y0055352D03*
X0025608Y0059527D03*
X0025608Y0059538D03*
X0025608Y0059550D03*
X0019444Y0050718D03*
X0017846Y0055180D03*
X0017846Y0055191D03*
X0029633Y0044600D03*
D231*
X0027782Y0046520D03*
X0027356Y0051661D03*
X0029944Y0052719D03*
X0035096Y0051109D03*
X0025482Y0061010D03*
X0021158Y0060390D03*
X0021158Y0060378D03*
X0017478Y0056295D03*
X0019536Y0049465D03*
X0023136Y0046751D03*
X0022078Y0044600D03*
D232*
X0022066Y0044612D03*
X0029955Y0052708D03*
X0025482Y0061034D03*
D233*
X0030726Y0059148D03*
X0027379Y0051649D03*
X0023814Y0051707D03*
X0023124Y0046762D03*
X0022055Y0044623D03*
X0019536Y0049419D03*
X0019536Y0049430D03*
X0017478Y0056307D03*
X0027805Y0046532D03*
X0035096Y0051120D03*
D234*
X0034918Y0050626D03*
X0030904Y0045566D03*
X0030893Y0045555D03*
X0029743Y0044669D03*
X0029708Y0044646D03*
X0029582Y0053202D03*
X0029996Y0055491D03*
X0029996Y0055502D03*
X0025603Y0059608D03*
X0025603Y0059619D03*
X0025603Y0059630D03*
X0025603Y0059642D03*
X0021451Y0058549D03*
X0021451Y0058538D03*
X0021451Y0058527D03*
X0021451Y0058515D03*
X0019450Y0050684D03*
X0019450Y0050672D03*
D235*
X0019548Y0049373D03*
X0019548Y0049361D03*
X0022020Y0044646D03*
X0027402Y0051638D03*
X0027425Y0051627D03*
X0029967Y0052684D03*
X0027851Y0046555D03*
X0027828Y0046544D03*
X0030726Y0059182D03*
X0030726Y0059194D03*
X0025482Y0061056D03*
X0021146Y0060447D03*
X0021146Y0060435D03*
X0017466Y0056330D03*
D236*
X0022003Y0044658D03*
X0029973Y0052673D03*
D237*
X0029984Y0052662D03*
X0027477Y0051603D03*
X0030743Y0059251D03*
X0021141Y0060481D03*
X0017461Y0056353D03*
X0019554Y0049315D03*
X0019554Y0049303D03*
X0021980Y0044680D03*
X0021992Y0044669D03*
D238*
X0029766Y0044680D03*
X0030881Y0045543D03*
X0030916Y0045577D03*
X0030007Y0055525D03*
X0030007Y0055537D03*
X0030007Y0055548D03*
X0030019Y0055559D03*
X0030019Y0055571D03*
X0021440Y0058584D03*
X0021440Y0058595D03*
X0017817Y0055272D03*
X0017829Y0055249D03*
X0017829Y0055237D03*
D239*
X0017823Y0055260D03*
X0017811Y0055284D03*
X0022273Y0053432D03*
X0019444Y0050660D03*
X0025953Y0045842D03*
X0029783Y0044692D03*
X0029817Y0044715D03*
X0030818Y0045485D03*
X0030829Y0045497D03*
X0030841Y0045509D03*
X0030852Y0045520D03*
X0030864Y0045531D03*
X0034923Y0050637D03*
X0030024Y0055583D03*
X0030024Y0055594D03*
X0030024Y0055605D03*
X0030036Y0055617D03*
X0030036Y0055628D03*
X0030036Y0055640D03*
X0030047Y0055674D03*
X0025597Y0059653D03*
X0025597Y0059665D03*
X0025597Y0059677D03*
X0021434Y0058641D03*
X0021434Y0058630D03*
X0021434Y0058619D03*
X0021434Y0058607D03*
X0021445Y0058573D03*
X0021445Y0058561D03*
D240*
X0017455Y0056365D03*
X0021963Y0044692D03*
X0035107Y0051155D03*
D241*
X0035113Y0051166D03*
X0029996Y0052638D03*
X0027523Y0051580D03*
X0027500Y0051592D03*
X0023728Y0051673D03*
X0023084Y0046820D03*
X0021934Y0044715D03*
X0021946Y0044703D03*
X0019565Y0049246D03*
X0019565Y0049258D03*
X0021141Y0060493D03*
X0021141Y0060505D03*
X0030743Y0059285D03*
X0030743Y0059274D03*
X0027914Y0046590D03*
D242*
X0027581Y0051546D03*
X0027558Y0051558D03*
X0030007Y0052627D03*
X0035113Y0051178D03*
X0030755Y0059320D03*
X0030755Y0059331D03*
X0023705Y0051661D03*
X0019577Y0049200D03*
X0019577Y0049188D03*
X0021923Y0044727D03*
X0017449Y0056387D03*
D243*
X0025585Y0059734D03*
X0030059Y0055720D03*
X0030714Y0045394D03*
X0029852Y0044738D03*
D244*
X0027989Y0046635D03*
X0027966Y0046624D03*
X0030013Y0052616D03*
X0030760Y0059343D03*
X0030760Y0059355D03*
X0025482Y0061148D03*
X0025482Y0061160D03*
X0021135Y0060551D03*
X0021135Y0060539D03*
X0019582Y0049177D03*
X0023067Y0046842D03*
X0021894Y0044749D03*
X0021905Y0044738D03*
D245*
X0023504Y0046452D03*
X0019444Y0050626D03*
X0022262Y0053420D03*
X0017800Y0055318D03*
X0017800Y0055330D03*
X0021422Y0058699D03*
X0021422Y0058710D03*
X0021422Y0058722D03*
X0030093Y0055847D03*
X0030093Y0055835D03*
X0030082Y0055812D03*
X0030082Y0055801D03*
X0030082Y0055790D03*
X0030070Y0055766D03*
X0030070Y0055755D03*
X0034923Y0050649D03*
X0030749Y0045428D03*
X0030737Y0045416D03*
X0030726Y0045405D03*
X0030703Y0045382D03*
X0030657Y0045348D03*
X0030645Y0045336D03*
X0029990Y0044830D03*
X0029955Y0044807D03*
X0029921Y0044784D03*
X0029909Y0044773D03*
X0029886Y0044761D03*
D246*
X0027604Y0051534D03*
X0023682Y0051649D03*
X0019577Y0049166D03*
X0019577Y0049154D03*
X0023061Y0046854D03*
X0021865Y0044773D03*
X0021877Y0044761D03*
X0030766Y0059366D03*
X0025488Y0061171D03*
X0021129Y0060562D03*
D247*
X0021417Y0058768D03*
X0021417Y0058756D03*
X0021417Y0058745D03*
X0021417Y0058734D03*
X0025591Y0059745D03*
X0025591Y0059757D03*
X0030122Y0055962D03*
X0030122Y0055951D03*
X0030111Y0055916D03*
X0030111Y0055905D03*
X0030111Y0055893D03*
X0030099Y0055881D03*
X0030099Y0055870D03*
X0030099Y0055859D03*
X0030088Y0055824D03*
X0029605Y0053179D03*
X0030686Y0045370D03*
X0030674Y0045359D03*
X0030628Y0045324D03*
X0030617Y0045313D03*
X0030605Y0045302D03*
X0030594Y0045290D03*
X0030548Y0045255D03*
X0030536Y0045244D03*
X0030088Y0044899D03*
X0030042Y0044865D03*
X0030007Y0044841D03*
X0029973Y0044819D03*
X0029938Y0044795D03*
X0019450Y0050615D03*
X0017794Y0055341D03*
X0017794Y0055352D03*
D248*
X0021123Y0060596D03*
X0025482Y0061195D03*
X0025482Y0061206D03*
X0030772Y0059423D03*
X0030772Y0059412D03*
X0030036Y0052570D03*
X0028069Y0046693D03*
X0021825Y0044807D03*
D249*
X0021808Y0044819D03*
X0023038Y0046888D03*
X0025936Y0045738D03*
X0028087Y0046705D03*
X0027730Y0051454D03*
X0030778Y0059435D03*
X0021129Y0060608D03*
X0017438Y0056422D03*
X0019600Y0049062D03*
X0019600Y0049051D03*
X0019600Y0049039D03*
D250*
X0019605Y0049027D03*
X0019605Y0049016D03*
X0023032Y0046900D03*
X0021802Y0044830D03*
X0023619Y0051615D03*
X0027747Y0051442D03*
X0027759Y0051431D03*
X0030047Y0052558D03*
X0028115Y0046727D03*
X0028104Y0046716D03*
X0035119Y0051212D03*
X0030772Y0059446D03*
X0025482Y0061217D03*
X0025482Y0061229D03*
X0021123Y0060620D03*
X0017432Y0056434D03*
D251*
X0017426Y0056445D03*
X0021118Y0060631D03*
X0027776Y0051420D03*
X0027811Y0051396D03*
X0030778Y0059458D03*
X0030778Y0059470D03*
X0021773Y0044853D03*
X0021785Y0044841D03*
X0019611Y0048981D03*
X0019611Y0048993D03*
X0019611Y0049005D03*
D252*
X0022239Y0053409D03*
X0017788Y0055364D03*
X0017777Y0055376D03*
X0017777Y0055387D03*
X0021399Y0058826D03*
X0021399Y0058837D03*
X0021399Y0058848D03*
X0025585Y0059769D03*
X0025585Y0059780D03*
X0025585Y0059791D03*
X0030151Y0056077D03*
X0030151Y0056066D03*
X0030139Y0056031D03*
X0030139Y0056020D03*
X0030139Y0056008D03*
X0030128Y0055996D03*
X0030128Y0055985D03*
X0030128Y0055973D03*
X0030116Y0055939D03*
X0030116Y0055927D03*
X0034935Y0050660D03*
X0030576Y0045278D03*
X0030565Y0045267D03*
X0030519Y0045233D03*
X0030507Y0045221D03*
X0030496Y0045209D03*
X0030461Y0045187D03*
X0030438Y0045163D03*
X0030392Y0045129D03*
X0030381Y0045117D03*
X0030335Y0045083D03*
X0030289Y0045048D03*
X0030197Y0044980D03*
X0030185Y0044968D03*
X0030151Y0044945D03*
X0030139Y0044934D03*
X0030116Y0044922D03*
X0030105Y0044910D03*
X0030070Y0044887D03*
X0030059Y0044876D03*
X0030024Y0044853D03*
D253*
X0028133Y0046739D03*
X0027799Y0051408D03*
X0030053Y0052546D03*
X0025419Y0052374D03*
X0023602Y0051603D03*
X0023027Y0046912D03*
X0021762Y0044865D03*
D254*
X0021744Y0044876D03*
X0023021Y0046923D03*
X0019617Y0048959D03*
X0019617Y0048970D03*
X0027828Y0051385D03*
X0027839Y0051373D03*
X0030059Y0052535D03*
X0028138Y0046751D03*
X0035119Y0051224D03*
X0030783Y0059481D03*
X0030783Y0059492D03*
X0025482Y0061241D03*
X0025482Y0061252D03*
X0021123Y0060642D03*
D255*
X0021118Y0060654D03*
X0021118Y0060666D03*
X0017426Y0056456D03*
X0019623Y0048947D03*
X0019623Y0048935D03*
X0019623Y0048924D03*
X0021739Y0044887D03*
X0023015Y0046934D03*
X0023579Y0051592D03*
X0027857Y0051362D03*
X0027868Y0051351D03*
X0027880Y0051339D03*
X0027914Y0051316D03*
X0030065Y0052523D03*
X0028167Y0046773D03*
X0028156Y0046762D03*
X0030789Y0059504D03*
D256*
X0028207Y0046808D03*
X0021721Y0044899D03*
X0019628Y0048901D03*
X0019628Y0048912D03*
D257*
X0021710Y0044910D03*
X0023009Y0046946D03*
X0023561Y0051580D03*
X0027897Y0051327D03*
X0027931Y0051305D03*
X0027943Y0051293D03*
X0027954Y0051281D03*
X0030070Y0052512D03*
X0028196Y0046796D03*
X0028184Y0046785D03*
X0030783Y0059516D03*
X0025482Y0061263D03*
X0025482Y0061275D03*
D258*
X0021118Y0060677D03*
X0017415Y0056468D03*
X0023544Y0051569D03*
X0023004Y0046958D03*
X0021693Y0044922D03*
X0019634Y0048878D03*
X0019634Y0048890D03*
X0027972Y0051270D03*
X0027983Y0051259D03*
X0027995Y0051247D03*
X0028006Y0051235D03*
X0028018Y0051224D03*
X0030076Y0052501D03*
X0028225Y0046820D03*
X0035125Y0051235D03*
X0030789Y0059527D03*
X0030789Y0059538D03*
D259*
X0030795Y0059550D03*
X0030795Y0059562D03*
X0025482Y0061287D03*
X0021112Y0060700D03*
X0021112Y0060688D03*
X0028035Y0051212D03*
X0028046Y0051201D03*
X0028058Y0051190D03*
X0028069Y0051178D03*
X0028081Y0051166D03*
X0028253Y0046854D03*
X0028242Y0046842D03*
X0022998Y0046969D03*
X0021687Y0044934D03*
X0019640Y0048844D03*
X0019640Y0048855D03*
X0019640Y0048866D03*
D260*
X0021647Y0044968D03*
X0021670Y0044945D03*
X0022992Y0046980D03*
X0023521Y0051558D03*
X0028282Y0046877D03*
X0030088Y0052489D03*
X0035125Y0051247D03*
X0030801Y0059573D03*
X0025488Y0061298D03*
X0017415Y0056480D03*
D261*
X0019646Y0048832D03*
X0019646Y0048820D03*
X0021658Y0044956D03*
X0028271Y0046866D03*
D262*
X0028248Y0050994D03*
X0028213Y0051028D03*
X0030099Y0052466D03*
X0030801Y0059596D03*
X0023487Y0051534D03*
X0021635Y0044980D03*
X0021106Y0060734D03*
D263*
X0025488Y0061321D03*
X0030111Y0052455D03*
X0028282Y0050948D03*
X0028271Y0050959D03*
X0028259Y0050971D03*
X0028236Y0051005D03*
X0028225Y0051017D03*
X0028202Y0051040D03*
X0028190Y0051052D03*
X0023475Y0051523D03*
X0022981Y0047003D03*
X0021612Y0045002D03*
X0021624Y0044991D03*
X0019657Y0048763D03*
X0019657Y0048774D03*
X0035125Y0051259D03*
D264*
X0030116Y0052443D03*
X0028322Y0050902D03*
X0028322Y0050891D03*
X0028311Y0050913D03*
X0028299Y0050925D03*
X0028288Y0050937D03*
X0028253Y0050983D03*
X0028345Y0050867D03*
X0028380Y0050821D03*
X0028368Y0046969D03*
X0028357Y0046958D03*
X0028345Y0046946D03*
X0022975Y0047015D03*
X0021606Y0045014D03*
X0019663Y0048740D03*
X0019663Y0048752D03*
X0023458Y0051512D03*
X0025482Y0061333D03*
X0030806Y0059619D03*
X0030806Y0059608D03*
D265*
X0030812Y0059630D03*
X0030122Y0052431D03*
X0028374Y0050833D03*
X0028363Y0050845D03*
X0028351Y0050856D03*
X0028386Y0050810D03*
X0028397Y0050798D03*
X0028409Y0050787D03*
X0028409Y0050776D03*
X0028420Y0050764D03*
X0028432Y0050752D03*
X0028443Y0050730D03*
X0028466Y0050695D03*
X0028397Y0047003D03*
X0028386Y0046992D03*
X0028374Y0046980D03*
X0022969Y0047027D03*
X0021566Y0045048D03*
X0021578Y0045037D03*
X0021589Y0045026D03*
X0019669Y0048705D03*
X0019669Y0048717D03*
X0019669Y0048728D03*
X0023441Y0051500D03*
X0021106Y0060746D03*
X0021106Y0060758D03*
D266*
X0021106Y0060769D03*
X0025488Y0061355D03*
X0030812Y0059665D03*
X0030812Y0059653D03*
X0030134Y0052409D03*
X0028489Y0050660D03*
X0028524Y0050603D03*
X0028535Y0050580D03*
X0028547Y0050569D03*
X0028558Y0050545D03*
X0028570Y0050523D03*
X0028581Y0050511D03*
X0028581Y0050499D03*
X0028593Y0050488D03*
X0028593Y0050477D03*
X0028604Y0050465D03*
X0028616Y0050442D03*
X0028627Y0050419D03*
X0028489Y0047130D03*
X0028478Y0047119D03*
X0028478Y0047107D03*
X0028466Y0047095D03*
X0028455Y0047084D03*
X0025936Y0045727D03*
X0022958Y0047049D03*
X0021532Y0045083D03*
X0021543Y0045071D03*
X0021555Y0045060D03*
X0019680Y0048659D03*
X0019680Y0048671D03*
X0023418Y0051477D03*
D267*
X0023372Y0051442D03*
X0022946Y0047084D03*
X0021486Y0045129D03*
X0021509Y0045106D03*
X0021520Y0045095D03*
X0019703Y0048567D03*
X0019703Y0048579D03*
X0019703Y0048591D03*
X0028535Y0047199D03*
X0028547Y0047210D03*
X0028547Y0047222D03*
X0028570Y0047256D03*
X0028754Y0050120D03*
X0028754Y0050131D03*
X0028742Y0050155D03*
X0028742Y0050166D03*
X0028708Y0050235D03*
X0028708Y0050246D03*
X0028696Y0050270D03*
X0030145Y0052385D03*
D268*
X0028685Y0050292D03*
X0028719Y0050223D03*
X0028719Y0050212D03*
X0028731Y0050189D03*
X0028731Y0050177D03*
X0028765Y0050097D03*
X0028558Y0047234D03*
X0028524Y0047176D03*
X0028512Y0047165D03*
X0023383Y0051454D03*
X0021497Y0045117D03*
X0025488Y0061378D03*
D269*
X0030410Y0045141D03*
D270*
X0028564Y0047245D03*
X0028575Y0047268D03*
X0028587Y0047280D03*
X0028598Y0047302D03*
X0028610Y0047326D03*
X0028840Y0049867D03*
X0028828Y0049902D03*
X0028828Y0049913D03*
X0028817Y0049936D03*
X0028817Y0049948D03*
X0028817Y0049959D03*
X0028805Y0049970D03*
X0028805Y0049982D03*
X0028805Y0049994D03*
X0028794Y0050005D03*
X0028794Y0050016D03*
X0028794Y0050028D03*
X0028782Y0050040D03*
X0028782Y0050051D03*
X0028782Y0050062D03*
X0028771Y0050074D03*
X0028771Y0050085D03*
X0028759Y0050109D03*
X0028748Y0050143D03*
X0030151Y0052374D03*
X0030818Y0059699D03*
X0025482Y0061390D03*
X0021100Y0060803D03*
X0017397Y0056537D03*
X0023343Y0051420D03*
X0023354Y0051431D03*
X0022940Y0047095D03*
X0021480Y0045141D03*
X0019709Y0048545D03*
X0019709Y0048556D03*
D271*
X0019715Y0048533D03*
X0019715Y0048521D03*
X0021451Y0045163D03*
X0021463Y0045152D03*
X0022935Y0047107D03*
X0022935Y0047119D03*
X0023337Y0051408D03*
X0028823Y0049924D03*
X0028834Y0049890D03*
X0028834Y0049878D03*
X0028846Y0049855D03*
X0028846Y0049844D03*
X0028846Y0049833D03*
X0028857Y0049821D03*
X0028857Y0049809D03*
X0028857Y0049798D03*
X0028857Y0049787D03*
X0028869Y0049775D03*
X0028869Y0049763D03*
X0028869Y0049752D03*
X0028869Y0049741D03*
X0028880Y0049717D03*
X0028880Y0049706D03*
X0028880Y0049695D03*
X0028892Y0049660D03*
X0028673Y0047441D03*
X0028662Y0047417D03*
X0028650Y0047395D03*
X0028639Y0047383D03*
X0028639Y0047371D03*
X0028627Y0047360D03*
X0028627Y0047348D03*
X0028616Y0047337D03*
X0028604Y0047314D03*
X0028593Y0047291D03*
X0030157Y0052362D03*
X0035136Y0051293D03*
X0030824Y0059711D03*
X0030824Y0059723D03*
X0021095Y0060815D03*
X0021095Y0060827D03*
D272*
X0025482Y0061402D03*
X0030829Y0059734D03*
X0030162Y0052351D03*
X0028874Y0049729D03*
X0028886Y0049683D03*
X0028886Y0049671D03*
X0028897Y0049648D03*
X0028897Y0049637D03*
X0028897Y0049626D03*
X0028897Y0049614D03*
X0028897Y0049602D03*
X0028920Y0049522D03*
X0028920Y0049510D03*
X0028920Y0049499D03*
X0028920Y0049487D03*
X0028932Y0049430D03*
X0028932Y0049419D03*
X0028736Y0047590D03*
X0028725Y0047555D03*
X0028713Y0047533D03*
X0028690Y0047487D03*
X0028690Y0047475D03*
X0028679Y0047463D03*
X0028679Y0047452D03*
X0028656Y0047406D03*
X0022929Y0047130D03*
X0021422Y0045198D03*
X0021445Y0045175D03*
X0019720Y0048487D03*
X0019720Y0048498D03*
X0019720Y0048510D03*
X0023308Y0051385D03*
X0017386Y0056548D03*
D273*
X0023320Y0051396D03*
X0028909Y0049591D03*
X0028909Y0049580D03*
X0028909Y0049568D03*
X0028909Y0049556D03*
X0028909Y0049545D03*
X0028702Y0047509D03*
X0028702Y0047498D03*
X0028667Y0047429D03*
X0021434Y0045187D03*
D274*
X0021417Y0045209D03*
X0022923Y0047141D03*
X0022923Y0047153D03*
X0023291Y0051373D03*
X0019726Y0048476D03*
X0019726Y0048464D03*
X0019738Y0048441D03*
X0028708Y0047521D03*
X0028719Y0047544D03*
X0028731Y0047567D03*
X0028731Y0047578D03*
X0028742Y0047602D03*
X0028742Y0047613D03*
X0028754Y0047624D03*
X0028754Y0047636D03*
X0028765Y0047659D03*
X0028765Y0047670D03*
X0028777Y0047682D03*
X0028777Y0047694D03*
X0028788Y0047716D03*
X0028788Y0047728D03*
X0028800Y0047762D03*
X0028811Y0047797D03*
X0028823Y0047831D03*
X0028961Y0049108D03*
X0028961Y0049120D03*
X0028961Y0049131D03*
X0028961Y0049142D03*
X0028961Y0049154D03*
X0028949Y0049234D03*
X0028949Y0049246D03*
X0028949Y0049258D03*
X0028949Y0049269D03*
X0028949Y0049280D03*
X0028949Y0049292D03*
X0028949Y0049303D03*
X0028949Y0049315D03*
X0028938Y0049338D03*
X0028938Y0049349D03*
X0028938Y0049361D03*
X0028938Y0049373D03*
X0028938Y0049384D03*
X0028938Y0049395D03*
X0028938Y0049407D03*
X0028926Y0049441D03*
X0028926Y0049453D03*
X0028926Y0049465D03*
X0028926Y0049476D03*
X0028915Y0049534D03*
X0030168Y0052340D03*
X0035136Y0051305D03*
X0030824Y0059745D03*
X0025488Y0061413D03*
X0021095Y0060838D03*
D275*
X0021089Y0060849D03*
X0023285Y0051362D03*
X0023274Y0051351D03*
X0022917Y0047165D03*
X0021388Y0045233D03*
X0021399Y0045221D03*
X0019743Y0048406D03*
X0019743Y0048418D03*
X0019743Y0048430D03*
X0028759Y0047648D03*
X0028782Y0047705D03*
X0028794Y0047740D03*
X0028794Y0047751D03*
X0028817Y0047809D03*
X0028817Y0047820D03*
X0028828Y0047843D03*
X0028828Y0047855D03*
X0028828Y0047866D03*
X0028840Y0047877D03*
X0028840Y0047889D03*
X0028840Y0047901D03*
X0028840Y0047912D03*
X0028851Y0047923D03*
X0028851Y0047935D03*
X0028851Y0047946D03*
X0028863Y0047970D03*
X0028863Y0047981D03*
X0028863Y0047992D03*
X0028874Y0048016D03*
X0028874Y0048027D03*
X0028874Y0048038D03*
X0028897Y0048130D03*
X0028897Y0048142D03*
X0028897Y0048153D03*
X0028909Y0048188D03*
X0028909Y0048199D03*
X0028909Y0048211D03*
X0028920Y0048257D03*
X0028920Y0048269D03*
X0028920Y0048280D03*
X0028943Y0048418D03*
X0028943Y0048430D03*
X0028943Y0048441D03*
X0028943Y0048452D03*
X0028943Y0048464D03*
X0028955Y0048545D03*
X0028955Y0048556D03*
X0028955Y0048567D03*
X0028955Y0048579D03*
X0028955Y0048591D03*
X0028955Y0048602D03*
X0028955Y0048613D03*
X0028966Y0048705D03*
X0028966Y0048717D03*
X0028966Y0048728D03*
X0028966Y0048740D03*
X0028966Y0048752D03*
X0028966Y0048763D03*
X0028966Y0048774D03*
X0028966Y0048786D03*
X0028966Y0048798D03*
X0028966Y0048809D03*
X0028966Y0048820D03*
X0028966Y0048832D03*
X0028966Y0048844D03*
X0028966Y0048855D03*
X0028966Y0048866D03*
X0028966Y0048878D03*
X0028966Y0048890D03*
X0028966Y0048901D03*
X0028966Y0048912D03*
X0028966Y0048924D03*
X0028966Y0048935D03*
X0028966Y0048947D03*
X0028966Y0048959D03*
X0028966Y0048970D03*
X0028966Y0048981D03*
X0028966Y0048993D03*
X0028966Y0049005D03*
X0028966Y0049016D03*
X0028966Y0049027D03*
X0028966Y0049039D03*
X0028966Y0049051D03*
X0028966Y0049062D03*
X0028966Y0049073D03*
X0028966Y0049085D03*
X0028966Y0049096D03*
X0028955Y0049166D03*
X0028955Y0049177D03*
X0028955Y0049188D03*
X0028955Y0049200D03*
X0028955Y0049212D03*
X0028955Y0049223D03*
X0028943Y0049327D03*
X0030174Y0052328D03*
X0030829Y0059757D03*
X0030829Y0059769D03*
D276*
X0030835Y0059780D03*
X0030180Y0052316D03*
X0028961Y0048694D03*
X0028961Y0048683D03*
X0028961Y0048671D03*
X0028961Y0048659D03*
X0028961Y0048648D03*
X0028961Y0048637D03*
X0028961Y0048625D03*
X0028949Y0048533D03*
X0028949Y0048521D03*
X0028949Y0048510D03*
X0028949Y0048498D03*
X0028949Y0048487D03*
X0028949Y0048476D03*
X0028938Y0048406D03*
X0028938Y0048395D03*
X0028938Y0048384D03*
X0028926Y0048326D03*
X0028926Y0048315D03*
X0028926Y0048303D03*
X0028926Y0048291D03*
X0028915Y0048245D03*
X0028915Y0048234D03*
X0028915Y0048223D03*
X0028903Y0048177D03*
X0028903Y0048165D03*
X0028892Y0048119D03*
X0028892Y0048108D03*
X0028880Y0048062D03*
X0028880Y0048050D03*
X0028869Y0048004D03*
X0028857Y0047958D03*
X0022912Y0047176D03*
X0021359Y0045267D03*
X0021382Y0045244D03*
X0019749Y0048384D03*
X0019749Y0048395D03*
X0023257Y0051327D03*
X0021095Y0060861D03*
X0035136Y0051316D03*
D277*
X0021371Y0045255D03*
D278*
X0021353Y0045278D03*
X0021342Y0045290D03*
X0021330Y0045302D03*
X0022906Y0047187D03*
X0022906Y0047199D03*
X0019766Y0048326D03*
X0019766Y0048337D03*
X0019755Y0048349D03*
X0019755Y0048360D03*
X0019755Y0048372D03*
X0023228Y0051305D03*
X0023239Y0051316D03*
X0017386Y0056571D03*
X0021089Y0060873D03*
X0025482Y0061436D03*
X0025482Y0061448D03*
X0030841Y0059791D03*
X0030185Y0052305D03*
D279*
X0030197Y0052282D03*
X0035142Y0051327D03*
X0030841Y0059815D03*
X0030841Y0059826D03*
X0025482Y0061459D03*
X0021089Y0060895D03*
X0021089Y0060884D03*
X0023193Y0051259D03*
X0023182Y0051247D03*
X0023170Y0051235D03*
X0022894Y0047245D03*
X0022894Y0047234D03*
X0021296Y0045336D03*
X0021307Y0045324D03*
X0021319Y0045313D03*
X0019789Y0048245D03*
X0019778Y0048269D03*
X0019778Y0048280D03*
X0019778Y0048291D03*
D280*
X0019784Y0048257D03*
X0019795Y0048234D03*
X0019795Y0048223D03*
X0021267Y0045370D03*
X0021279Y0045359D03*
X0021290Y0045348D03*
X0022889Y0047256D03*
X0023153Y0051212D03*
X0023165Y0051224D03*
X0017380Y0056583D03*
X0021083Y0060907D03*
X0025488Y0061470D03*
X0030203Y0052270D03*
D281*
X0030841Y0059837D03*
X0023124Y0051178D03*
X0023113Y0051155D03*
X0019801Y0048211D03*
X0019801Y0048199D03*
X0021238Y0045405D03*
X0021261Y0045382D03*
D282*
X0021250Y0045394D03*
X0022883Y0047268D03*
X0022883Y0047280D03*
X0025930Y0045716D03*
X0023136Y0051190D03*
X0023147Y0051201D03*
X0030208Y0052259D03*
X0025482Y0061482D03*
D283*
X0025482Y0061494D03*
X0030852Y0059872D03*
X0030220Y0052236D03*
X0023090Y0051120D03*
X0023078Y0051098D03*
X0023067Y0051086D03*
X0023055Y0051063D03*
X0022871Y0047337D03*
X0022871Y0047326D03*
X0021192Y0045462D03*
X0021204Y0045451D03*
X0019835Y0048096D03*
X0019824Y0048119D03*
X0019824Y0048130D03*
D284*
X0019830Y0048108D03*
X0019841Y0048084D03*
X0019841Y0048073D03*
X0021175Y0045485D03*
X0021187Y0045474D03*
X0022866Y0047348D03*
X0022866Y0047360D03*
X0022866Y0047371D03*
X0023038Y0051028D03*
X0023038Y0051040D03*
X0017369Y0056606D03*
X0030226Y0052224D03*
D285*
X0031433Y0050201D03*
X0023061Y0051074D03*
X0023050Y0051052D03*
X0021164Y0045497D03*
X0021083Y0060941D03*
D286*
X0021077Y0060953D03*
X0025482Y0061505D03*
X0025482Y0061516D03*
X0030852Y0059895D03*
X0030852Y0059884D03*
X0030231Y0052213D03*
X0035142Y0051351D03*
X0023032Y0051017D03*
X0023021Y0051005D03*
X0023021Y0050994D03*
X0023009Y0050983D03*
X0023009Y0050971D03*
X0022998Y0050948D03*
X0022860Y0047395D03*
X0022860Y0047383D03*
X0021135Y0045531D03*
X0021146Y0045520D03*
X0021158Y0045509D03*
X0019858Y0048016D03*
X0019858Y0048027D03*
X0019847Y0048038D03*
X0019847Y0048050D03*
X0019847Y0048062D03*
D287*
X0019864Y0048004D03*
X0019864Y0047992D03*
X0021118Y0045555D03*
X0021129Y0045543D03*
X0022854Y0047406D03*
X0022854Y0047417D03*
X0022854Y0047429D03*
X0022958Y0050856D03*
X0022969Y0050879D03*
X0022969Y0050891D03*
X0022981Y0050913D03*
X0022981Y0050925D03*
X0022992Y0050937D03*
X0023004Y0050959D03*
X0030237Y0052202D03*
X0030249Y0052190D03*
X0030858Y0059906D03*
X0021083Y0060965D03*
D288*
X0021077Y0060976D03*
X0025482Y0061528D03*
X0030852Y0059918D03*
X0030254Y0052178D03*
X0035142Y0051362D03*
X0022975Y0050902D03*
X0022963Y0050867D03*
X0022940Y0050821D03*
X0022940Y0050810D03*
X0022940Y0050798D03*
X0022929Y0050787D03*
X0022929Y0050776D03*
X0022917Y0050741D03*
X0022848Y0050316D03*
X0022848Y0050304D03*
X0022848Y0050292D03*
X0022848Y0047463D03*
X0022848Y0047452D03*
X0022848Y0047441D03*
X0021089Y0045589D03*
X0021100Y0045577D03*
X0021112Y0045566D03*
X0019881Y0047935D03*
X0019881Y0047946D03*
X0019881Y0047958D03*
X0017363Y0056617D03*
D289*
X0022923Y0050764D03*
X0022923Y0050752D03*
X0022912Y0050730D03*
X0022912Y0050718D03*
X0022912Y0050706D03*
X0022900Y0050695D03*
X0022900Y0050684D03*
X0022900Y0050672D03*
X0022900Y0050660D03*
X0022889Y0050649D03*
X0022889Y0050637D03*
X0022889Y0050626D03*
X0022889Y0050615D03*
X0022877Y0050591D03*
X0022877Y0050580D03*
X0022877Y0050569D03*
X0022877Y0050557D03*
X0022877Y0050545D03*
X0022866Y0050523D03*
X0022866Y0050511D03*
X0022866Y0050499D03*
X0022866Y0050488D03*
X0022866Y0050477D03*
X0022866Y0050465D03*
X0022854Y0050442D03*
X0022854Y0050430D03*
X0022854Y0050419D03*
X0022854Y0050408D03*
X0022854Y0050396D03*
X0022854Y0050384D03*
X0022854Y0050373D03*
X0022854Y0050362D03*
X0022854Y0050350D03*
X0022854Y0050338D03*
X0022854Y0050327D03*
X0022843Y0047509D03*
X0022843Y0047498D03*
X0022843Y0047487D03*
X0022843Y0047475D03*
X0021060Y0045635D03*
X0021049Y0045646D03*
X0021072Y0045612D03*
X0021083Y0045601D03*
X0019899Y0047889D03*
X0019899Y0047901D03*
X0019887Y0047912D03*
X0019887Y0047923D03*
X0030260Y0052167D03*
X0030858Y0059930D03*
D290*
X0022952Y0050845D03*
X0022952Y0050833D03*
X0019870Y0047981D03*
X0019870Y0047970D03*
X0021066Y0045623D03*
D291*
X0022687Y0045658D03*
X0030450Y0051776D03*
X0035153Y0051454D03*
X0030898Y0060205D03*
X0021043Y0061217D03*
D292*
X0025482Y0061540D03*
X0025482Y0061551D03*
X0030864Y0059941D03*
X0021043Y0045658D03*
D293*
X0025925Y0045670D03*
X0025453Y0061988D03*
D294*
X0025476Y0061735D03*
X0021049Y0061206D03*
X0030444Y0051787D03*
X0031238Y0050292D03*
X0022693Y0045670D03*
D295*
X0022837Y0047521D03*
X0022837Y0047533D03*
X0022837Y0047544D03*
X0022837Y0047555D03*
X0022860Y0050453D03*
X0022871Y0050534D03*
X0022883Y0050603D03*
X0025413Y0052397D03*
X0030266Y0052155D03*
X0021077Y0060987D03*
X0017363Y0056629D03*
X0019904Y0047877D03*
X0019904Y0047866D03*
X0019916Y0047855D03*
X0019916Y0047843D03*
X0021020Y0045681D03*
X0021031Y0045670D03*
D296*
X0025930Y0045681D03*
X0031036Y0050523D03*
X0031036Y0050534D03*
X0031025Y0050545D03*
X0030668Y0051281D03*
X0030657Y0051305D03*
X0030657Y0051316D03*
X0030921Y0060355D03*
X0025470Y0061862D03*
X0021031Y0061355D03*
X0017282Y0056778D03*
D297*
X0017317Y0056721D03*
X0025482Y0061723D03*
X0030898Y0060194D03*
X0030898Y0060183D03*
X0030427Y0051822D03*
X0030438Y0051799D03*
X0025930Y0045692D03*
X0022699Y0045681D03*
D298*
X0022705Y0045692D03*
X0022705Y0045704D03*
X0031249Y0050281D03*
X0030433Y0051810D03*
X0030421Y0051834D03*
X0021049Y0061195D03*
D299*
X0021072Y0060999D03*
X0030858Y0059952D03*
X0030272Y0052144D03*
X0035148Y0051373D03*
X0022831Y0047624D03*
X0022831Y0047613D03*
X0022831Y0047602D03*
X0022831Y0047590D03*
X0022831Y0047578D03*
X0022831Y0047567D03*
X0020980Y0045738D03*
X0020991Y0045716D03*
X0021014Y0045692D03*
X0019933Y0047785D03*
X0019933Y0047797D03*
X0019922Y0047809D03*
X0019922Y0047820D03*
X0019922Y0047831D03*
D300*
X0020077Y0047395D03*
X0020088Y0047371D03*
X0020088Y0047360D03*
X0020100Y0047348D03*
X0020100Y0047337D03*
X0020111Y0047314D03*
X0020686Y0046176D03*
X0020698Y0046152D03*
X0020709Y0046141D03*
X0020721Y0046118D03*
X0020732Y0046106D03*
X0020732Y0046095D03*
X0020744Y0046084D03*
X0020755Y0046060D03*
X0020767Y0046049D03*
X0022791Y0046141D03*
X0022791Y0046152D03*
X0022791Y0046164D03*
X0025930Y0045704D03*
X0030312Y0052063D03*
X0030875Y0060033D03*
X0025482Y0061609D03*
X0021066Y0061068D03*
X0017340Y0056663D03*
D301*
X0021003Y0045704D03*
D302*
X0022710Y0045716D03*
X0030415Y0051845D03*
X0035153Y0051442D03*
X0030898Y0060171D03*
X0025482Y0061712D03*
X0021054Y0061183D03*
D303*
X0017323Y0056709D03*
X0025407Y0052409D03*
X0022716Y0045738D03*
X0022716Y0045727D03*
X0030410Y0051856D03*
X0030893Y0060159D03*
D304*
X0030864Y0059964D03*
X0025482Y0061562D03*
X0021077Y0061010D03*
X0030277Y0052133D03*
X0031393Y0050212D03*
X0022825Y0047694D03*
X0022825Y0047682D03*
X0022825Y0047670D03*
X0022825Y0047659D03*
X0022825Y0047648D03*
X0022825Y0047636D03*
X0020962Y0045762D03*
X0020951Y0045773D03*
X0020974Y0045750D03*
X0020985Y0045727D03*
X0019962Y0047705D03*
X0019950Y0047740D03*
X0019950Y0047751D03*
X0019939Y0047762D03*
X0019939Y0047774D03*
D305*
X0019548Y0049327D03*
X0023101Y0046796D03*
X0025942Y0045750D03*
X0027874Y0046566D03*
X0027448Y0051615D03*
X0025424Y0052362D03*
X0023757Y0051684D03*
X0017466Y0056341D03*
X0021146Y0060459D03*
X0021146Y0060470D03*
X0025482Y0061080D03*
X0025482Y0061091D03*
X0030737Y0059240D03*
X0030737Y0059228D03*
D306*
X0025482Y0061701D03*
X0021054Y0061171D03*
X0030404Y0051880D03*
X0030404Y0051868D03*
X0031266Y0050270D03*
X0022722Y0045762D03*
X0022722Y0045750D03*
D307*
X0022728Y0045773D03*
X0022728Y0045784D03*
X0030398Y0051891D03*
X0030893Y0060137D03*
X0030893Y0060148D03*
X0025476Y0061689D03*
D308*
X0021072Y0061022D03*
X0019956Y0047728D03*
X0019956Y0047716D03*
X0020934Y0045808D03*
X0020934Y0045796D03*
X0020945Y0045784D03*
D309*
X0019462Y0050120D03*
X0019462Y0050131D03*
X0017610Y0055905D03*
X0017610Y0055916D03*
X0021256Y0059757D03*
X0021256Y0059769D03*
X0025511Y0060470D03*
X0030548Y0058124D03*
X0030548Y0058112D03*
X0030548Y0058101D03*
X0029766Y0052984D03*
X0035033Y0050891D03*
X0027420Y0046394D03*
X0025948Y0045796D03*
D310*
X0022733Y0045796D03*
X0022733Y0045808D03*
X0030392Y0051902D03*
X0035153Y0051431D03*
X0021054Y0061148D03*
X0021054Y0061160D03*
X0017328Y0056698D03*
D311*
X0025528Y0060274D03*
X0025528Y0060286D03*
X0035004Y0050821D03*
X0025942Y0045808D03*
X0023377Y0046520D03*
D312*
X0029892Y0055145D03*
X0029892Y0055157D03*
X0025626Y0059412D03*
X0025626Y0059423D03*
X0025626Y0059435D03*
X0025626Y0059446D03*
X0021520Y0058124D03*
X0021520Y0058112D03*
X0021520Y0058101D03*
X0021520Y0058090D03*
X0031169Y0045819D03*
D313*
X0034975Y0050752D03*
X0030364Y0057043D03*
X0030364Y0057055D03*
X0030364Y0057066D03*
X0030364Y0057077D03*
X0030375Y0057112D03*
X0030375Y0057123D03*
X0025557Y0060056D03*
X0025557Y0060067D03*
X0021336Y0059262D03*
X0021336Y0059251D03*
X0021336Y0059240D03*
X0017702Y0055617D03*
X0019450Y0050430D03*
X0019450Y0050419D03*
X0025948Y0045819D03*
D314*
X0022739Y0045819D03*
X0022739Y0045830D03*
X0031284Y0050258D03*
X0030387Y0051914D03*
D315*
X0030283Y0052121D03*
X0030870Y0059976D03*
X0022820Y0047831D03*
X0022820Y0047820D03*
X0022820Y0047809D03*
X0022820Y0047797D03*
X0022820Y0047785D03*
X0022820Y0047774D03*
X0022820Y0047762D03*
X0022820Y0047751D03*
X0022820Y0047740D03*
X0022820Y0047728D03*
X0022820Y0047716D03*
X0022820Y0047705D03*
X0020922Y0045819D03*
X0020911Y0045830D03*
X0019979Y0047659D03*
X0019968Y0047682D03*
X0019968Y0047694D03*
X0017357Y0056641D03*
D316*
X0025580Y0059849D03*
X0025580Y0059860D03*
X0030226Y0056399D03*
X0030226Y0056387D03*
X0030226Y0056376D03*
X0025948Y0045830D03*
D317*
X0022745Y0045842D03*
X0022745Y0045853D03*
X0022745Y0045865D03*
X0030369Y0051937D03*
X0030887Y0060113D03*
X0025482Y0061666D03*
X0021054Y0061137D03*
D318*
X0025482Y0061574D03*
X0025482Y0061585D03*
X0030864Y0059987D03*
X0030289Y0052109D03*
X0022814Y0048671D03*
X0022814Y0048659D03*
X0022814Y0048648D03*
X0022814Y0048637D03*
X0022814Y0048625D03*
X0022814Y0048613D03*
X0022814Y0048602D03*
X0022814Y0048591D03*
X0022814Y0048579D03*
X0022814Y0048567D03*
X0022814Y0048556D03*
X0022814Y0048545D03*
X0022814Y0048533D03*
X0022814Y0048521D03*
X0022814Y0048510D03*
X0022814Y0048498D03*
X0022814Y0048487D03*
X0022814Y0048476D03*
X0022814Y0048464D03*
X0022814Y0048452D03*
X0022814Y0048441D03*
X0022814Y0048430D03*
X0022814Y0048418D03*
X0022814Y0048406D03*
X0022814Y0048395D03*
X0022814Y0048384D03*
X0022814Y0048372D03*
X0022814Y0048360D03*
X0022814Y0048349D03*
X0022814Y0048337D03*
X0022814Y0048326D03*
X0022814Y0048315D03*
X0022814Y0048303D03*
X0022814Y0048291D03*
X0022814Y0048280D03*
X0022814Y0048269D03*
X0022814Y0048257D03*
X0022814Y0048245D03*
X0022814Y0048234D03*
X0022814Y0048223D03*
X0022814Y0048211D03*
X0022814Y0048199D03*
X0022814Y0048188D03*
X0022814Y0048177D03*
X0022814Y0048165D03*
X0022814Y0048153D03*
X0022814Y0048142D03*
X0022814Y0048130D03*
X0022814Y0048119D03*
X0022814Y0048108D03*
X0022814Y0048096D03*
X0022814Y0048084D03*
X0022814Y0048073D03*
X0022814Y0048062D03*
X0022814Y0048050D03*
X0022814Y0048038D03*
X0022814Y0048027D03*
X0022814Y0048016D03*
X0022814Y0048004D03*
X0022814Y0047992D03*
X0022814Y0047981D03*
X0022814Y0047970D03*
X0022814Y0047958D03*
X0022814Y0047946D03*
X0022814Y0047935D03*
X0022814Y0047923D03*
X0022814Y0047912D03*
X0022814Y0047901D03*
X0022814Y0047889D03*
X0022814Y0047877D03*
X0022814Y0047866D03*
X0022814Y0047855D03*
X0022814Y0047843D03*
X0022814Y0046233D03*
X0020905Y0045842D03*
X0020893Y0045853D03*
X0020882Y0045877D03*
X0020008Y0047578D03*
X0019996Y0047602D03*
X0019996Y0047613D03*
X0019985Y0047636D03*
X0019985Y0047648D03*
X0019973Y0047670D03*
D319*
X0019456Y0050856D03*
X0019456Y0050867D03*
X0017984Y0054823D03*
X0017972Y0054846D03*
X0017972Y0054858D03*
X0021744Y0056882D03*
X0021733Y0056940D03*
X0021721Y0056997D03*
X0021710Y0057043D03*
X0021710Y0057055D03*
X0021710Y0057066D03*
X0021698Y0057101D03*
X0021698Y0057112D03*
X0021698Y0057123D03*
X0021687Y0057158D03*
X0021687Y0057170D03*
X0021687Y0057181D03*
X0021675Y0057204D03*
X0021675Y0057216D03*
X0021675Y0057227D03*
X0021675Y0057238D03*
X0021675Y0057250D03*
X0021664Y0057262D03*
X0021664Y0057273D03*
X0021664Y0057284D03*
X0021664Y0057296D03*
X0021664Y0057308D03*
X0021652Y0057342D03*
X0021652Y0057353D03*
X0021641Y0057411D03*
X0025654Y0059148D03*
X0025654Y0059159D03*
X0025654Y0059170D03*
X0029783Y0054835D03*
X0029783Y0054823D03*
X0029771Y0054812D03*
X0029771Y0054801D03*
X0034854Y0050523D03*
X0031393Y0046049D03*
X0031381Y0046037D03*
X0025953Y0045865D03*
D320*
X0022808Y0046221D03*
X0020888Y0045865D03*
X0020876Y0045888D03*
X0020865Y0045899D03*
X0020853Y0045911D03*
X0020853Y0045923D03*
X0020842Y0045934D03*
X0020025Y0047533D03*
X0020014Y0047555D03*
X0020014Y0047567D03*
X0020002Y0047590D03*
X0019991Y0047624D03*
X0021072Y0061034D03*
X0030870Y0059998D03*
X0030295Y0052098D03*
X0035148Y0051385D03*
D321*
X0031226Y0045877D03*
X0029547Y0053248D03*
D322*
X0030364Y0051960D03*
X0030364Y0051948D03*
X0031307Y0050246D03*
X0035148Y0051420D03*
X0030881Y0060102D03*
X0021060Y0061126D03*
X0017334Y0056687D03*
X0022751Y0045911D03*
X0022751Y0045899D03*
X0022751Y0045888D03*
X0022751Y0045877D03*
D323*
X0025959Y0045923D03*
X0032043Y0046796D03*
X0034676Y0050304D03*
X0025844Y0057250D03*
X0025844Y0057262D03*
X0025844Y0057273D03*
X0025844Y0057284D03*
X0025844Y0057296D03*
X0025844Y0057308D03*
X0018599Y0053581D03*
X0018588Y0053593D03*
X0019485Y0051281D03*
X0019485Y0051270D03*
D324*
X0022756Y0045945D03*
X0022756Y0045934D03*
X0022756Y0045923D03*
X0030358Y0051971D03*
X0030887Y0060091D03*
D325*
X0029823Y0054950D03*
X0029823Y0054938D03*
X0029812Y0054916D03*
X0029536Y0053259D03*
X0025637Y0059274D03*
X0025637Y0059285D03*
X0025637Y0059297D03*
X0025637Y0059309D03*
X0021566Y0057825D03*
X0021578Y0057779D03*
X0021578Y0057767D03*
X0021578Y0057756D03*
X0021578Y0057745D03*
X0021578Y0057733D03*
X0021589Y0057721D03*
X0021589Y0057710D03*
X0021589Y0057698D03*
X0021589Y0057687D03*
X0021601Y0057641D03*
X0021601Y0057630D03*
X0017932Y0054962D03*
X0017932Y0054950D03*
X0017944Y0054927D03*
X0019450Y0050821D03*
X0019450Y0050810D03*
X0031284Y0045934D03*
X0031295Y0045945D03*
X0031307Y0045957D03*
X0031318Y0045969D03*
X0034872Y0050545D03*
D326*
X0031358Y0050223D03*
X0022802Y0046210D03*
X0022802Y0046198D03*
X0020836Y0045945D03*
X0020801Y0045991D03*
X0020019Y0047544D03*
X0017351Y0056652D03*
X0025482Y0061597D03*
D327*
X0021060Y0061114D03*
X0021060Y0061102D03*
X0030881Y0060079D03*
X0030352Y0051983D03*
X0022762Y0045980D03*
X0022762Y0045969D03*
X0022762Y0045957D03*
D328*
X0020824Y0045957D03*
X0020824Y0045969D03*
X0020813Y0045980D03*
X0020042Y0047487D03*
X0020031Y0047509D03*
X0020031Y0047521D03*
X0021066Y0061045D03*
X0030875Y0060010D03*
X0030300Y0052087D03*
D329*
X0032347Y0047187D03*
X0032336Y0047176D03*
X0025965Y0045969D03*
X0019525Y0051534D03*
X0025942Y0055927D03*
X0025942Y0055939D03*
X0025942Y0055951D03*
X0025942Y0055962D03*
X0025942Y0055973D03*
X0025942Y0055985D03*
D330*
X0025965Y0045980D03*
X0032416Y0047280D03*
D331*
X0022768Y0046026D03*
X0022768Y0046015D03*
X0022768Y0046003D03*
X0022768Y0045991D03*
X0020537Y0046428D03*
X0020525Y0046452D03*
X0020479Y0046532D03*
X0020468Y0046555D03*
X0020456Y0046578D03*
X0020445Y0046601D03*
X0020433Y0046612D03*
X0020433Y0046624D03*
X0020422Y0046635D03*
X0020422Y0046647D03*
X0020410Y0046659D03*
X0020410Y0046670D03*
X0020399Y0046681D03*
X0020399Y0046693D03*
X0020387Y0046705D03*
X0020387Y0046716D03*
X0020376Y0046727D03*
X0020376Y0046739D03*
X0020353Y0046773D03*
X0020353Y0046785D03*
X0020341Y0046796D03*
X0020341Y0046808D03*
X0020330Y0046820D03*
X0020330Y0046831D03*
X0020318Y0046842D03*
X0020318Y0046854D03*
X0020307Y0046866D03*
X0020307Y0046877D03*
X0020295Y0046888D03*
X0020295Y0046900D03*
X0020272Y0046946D03*
X0020261Y0046969D03*
X0017340Y0056675D03*
X0025482Y0061643D03*
D332*
X0021072Y0061056D03*
X0030870Y0060021D03*
X0030306Y0052075D03*
X0035148Y0051396D03*
X0022797Y0046187D03*
X0022797Y0046176D03*
X0020796Y0046003D03*
X0020784Y0046015D03*
X0020784Y0046026D03*
X0020773Y0046037D03*
X0020750Y0046072D03*
X0020083Y0047383D03*
X0020071Y0047406D03*
X0020071Y0047417D03*
X0020060Y0047429D03*
X0020060Y0047441D03*
X0020060Y0047452D03*
X0020048Y0047463D03*
X0020048Y0047475D03*
X0020037Y0047498D03*
D333*
X0019571Y0051799D03*
X0025976Y0055030D03*
X0025976Y0055042D03*
X0025976Y0046026D03*
X0032612Y0047567D03*
D334*
X0032664Y0047636D03*
X0032675Y0047648D03*
X0029053Y0053627D03*
X0025971Y0054904D03*
X0025971Y0054916D03*
X0025971Y0054927D03*
X0025971Y0046037D03*
D335*
X0022774Y0046037D03*
X0022774Y0046049D03*
X0022774Y0046060D03*
X0020589Y0046337D03*
X0020577Y0046359D03*
X0020566Y0046383D03*
X0020554Y0046394D03*
X0020554Y0046405D03*
X0020543Y0046417D03*
X0020520Y0046463D03*
X0020508Y0046474D03*
X0020508Y0046486D03*
X0020497Y0046498D03*
X0020485Y0046520D03*
X0020474Y0046544D03*
X0020462Y0046566D03*
X0020290Y0046912D03*
X0020278Y0046934D03*
X0020267Y0046958D03*
X0020255Y0046980D03*
X0020255Y0046992D03*
X0020232Y0047027D03*
X0020232Y0047038D03*
X0020221Y0047049D03*
X0020221Y0047061D03*
X0020209Y0047084D03*
X0020198Y0047107D03*
X0030341Y0052006D03*
X0035148Y0051408D03*
X0025476Y0061631D03*
X0021060Y0061091D03*
D336*
X0025971Y0054835D03*
X0025971Y0054823D03*
X0025971Y0054812D03*
X0029030Y0053639D03*
X0032710Y0047705D03*
X0032698Y0047694D03*
X0025971Y0046049D03*
X0019588Y0051880D03*
D337*
X0025965Y0054709D03*
X0025965Y0054720D03*
X0025976Y0046060D03*
D338*
X0025976Y0046072D03*
X0032784Y0047820D03*
X0019605Y0051971D03*
D339*
X0020134Y0047256D03*
X0020146Y0047234D03*
X0020157Y0047199D03*
X0020169Y0047176D03*
X0020180Y0047153D03*
X0020180Y0047141D03*
X0020192Y0047130D03*
X0020192Y0047119D03*
X0020203Y0047095D03*
X0020215Y0047073D03*
X0020571Y0046371D03*
X0020583Y0046348D03*
X0020594Y0046325D03*
X0020606Y0046313D03*
X0020606Y0046302D03*
X0020617Y0046291D03*
X0020617Y0046279D03*
X0020629Y0046267D03*
X0020640Y0046245D03*
X0020652Y0046233D03*
X0020663Y0046210D03*
X0022779Y0046095D03*
X0022779Y0046084D03*
X0022779Y0046072D03*
X0031335Y0050235D03*
X0030335Y0052017D03*
X0025482Y0061620D03*
X0021066Y0061080D03*
D340*
X0021756Y0056824D03*
X0021767Y0056767D03*
X0021779Y0056721D03*
X0021779Y0056709D03*
X0021779Y0056698D03*
X0021790Y0056675D03*
X0021790Y0056663D03*
X0021790Y0056652D03*
X0021790Y0056641D03*
X0021802Y0056617D03*
X0021802Y0056606D03*
X0021802Y0056595D03*
X0021802Y0056583D03*
X0021813Y0056571D03*
X0021813Y0056560D03*
X0021813Y0056548D03*
X0021813Y0056537D03*
X0021813Y0056526D03*
X0021825Y0056514D03*
X0021825Y0056502D03*
X0021825Y0056491D03*
X0021825Y0056480D03*
X0021836Y0056468D03*
X0021836Y0056456D03*
X0021836Y0056445D03*
X0021836Y0056434D03*
X0021848Y0056410D03*
X0021848Y0056399D03*
X0021848Y0056387D03*
X0021848Y0056376D03*
X0021859Y0056353D03*
X0021859Y0056341D03*
X0021859Y0056330D03*
X0021871Y0056307D03*
X0021871Y0056295D03*
X0021871Y0056284D03*
X0021871Y0056273D03*
X0021882Y0056249D03*
X0021882Y0056238D03*
X0021882Y0056227D03*
X0021894Y0056192D03*
X0021894Y0056180D03*
X0021905Y0056146D03*
X0021905Y0056134D03*
X0021905Y0056123D03*
X0021917Y0056088D03*
X0021917Y0056077D03*
X0021928Y0056031D03*
X0021940Y0055985D03*
X0021951Y0055939D03*
X0019456Y0050891D03*
X0019456Y0050879D03*
X0018007Y0054755D03*
X0018007Y0054766D03*
X0017995Y0054789D03*
X0025666Y0059044D03*
X0025666Y0059055D03*
X0025666Y0059067D03*
X0025666Y0059078D03*
X0025666Y0059090D03*
X0029760Y0054766D03*
X0029748Y0054743D03*
X0029748Y0054731D03*
X0034843Y0050499D03*
X0031462Y0046118D03*
X0031450Y0046106D03*
X0031439Y0046095D03*
X0031427Y0046084D03*
D341*
X0032830Y0047901D03*
X0032842Y0047912D03*
X0025976Y0046084D03*
D342*
X0025976Y0046095D03*
X0028932Y0053685D03*
X0032876Y0047970D03*
D343*
X0032899Y0048016D03*
X0025976Y0046106D03*
X0025482Y0052052D03*
X0019640Y0052098D03*
D344*
X0019651Y0052133D03*
X0025482Y0052041D03*
X0025976Y0046118D03*
D345*
X0031473Y0046130D03*
X0022066Y0055467D03*
X0022066Y0055479D03*
X0022066Y0055491D03*
X0022032Y0055594D03*
X0022032Y0055605D03*
X0022032Y0055617D03*
X0022032Y0055628D03*
X0018041Y0054685D03*
X0018041Y0054674D03*
D346*
X0019663Y0052167D03*
X0025976Y0046130D03*
X0032968Y0048130D03*
D347*
X0030329Y0052029D03*
X0020140Y0047245D03*
X0020635Y0046256D03*
X0020669Y0046198D03*
X0020715Y0046130D03*
D348*
X0023619Y0046405D03*
X0019456Y0050913D03*
X0019456Y0050925D03*
X0018030Y0054697D03*
X0018030Y0054709D03*
X0022009Y0055698D03*
X0022009Y0055709D03*
X0021997Y0055744D03*
X0022020Y0055663D03*
X0022020Y0055652D03*
X0022043Y0055583D03*
X0022043Y0055571D03*
X0022043Y0055559D03*
X0022043Y0055548D03*
X0022055Y0055537D03*
X0022055Y0055525D03*
X0022055Y0055513D03*
X0022078Y0055433D03*
X0022089Y0055387D03*
X0022388Y0053512D03*
X0025666Y0058998D03*
X0025666Y0059009D03*
X0025666Y0059021D03*
X0025666Y0059033D03*
X0029737Y0054709D03*
X0029725Y0054685D03*
X0029725Y0054674D03*
X0029495Y0053294D03*
X0034831Y0050488D03*
X0031496Y0046152D03*
X0031485Y0046141D03*
D349*
X0033003Y0048188D03*
X0025976Y0046141D03*
D350*
X0025988Y0046164D03*
X0033060Y0048303D03*
D351*
X0033083Y0048349D03*
X0025988Y0046176D03*
D352*
X0025988Y0046198D03*
X0019720Y0052362D03*
X0033141Y0048476D03*
X0033141Y0048464D03*
D353*
X0025988Y0046210D03*
D354*
X0025988Y0046221D03*
X0025505Y0051948D03*
X0033187Y0048567D03*
D355*
X0033210Y0048625D03*
X0025988Y0046233D03*
X0025505Y0051937D03*
X0019755Y0052443D03*
D356*
X0025252Y0046245D03*
D357*
X0025263Y0046256D03*
X0020192Y0053283D03*
D358*
X0020203Y0053294D03*
X0025275Y0046267D03*
D359*
X0031606Y0046279D03*
X0031617Y0046291D03*
X0031629Y0046302D03*
X0025695Y0058756D03*
X0025695Y0058768D03*
X0025695Y0058780D03*
X0025695Y0058791D03*
X0022210Y0054962D03*
X0022210Y0054950D03*
X0022222Y0054927D03*
X0022222Y0054916D03*
X0022222Y0054904D03*
X0019462Y0050983D03*
X0018116Y0054502D03*
D360*
X0025281Y0046279D03*
D361*
X0025304Y0046302D03*
D362*
X0031640Y0046313D03*
X0031652Y0046325D03*
X0031663Y0046337D03*
X0034803Y0050442D03*
X0025706Y0058641D03*
X0025706Y0058653D03*
X0025706Y0058665D03*
X0025706Y0058676D03*
X0025706Y0058687D03*
X0022256Y0054801D03*
X0022268Y0054777D03*
X0022268Y0054766D03*
X0022268Y0054755D03*
X0022279Y0054743D03*
X0022279Y0054731D03*
X0022279Y0054720D03*
X0022291Y0054697D03*
X0019462Y0051005D03*
X0018174Y0054363D03*
X0018174Y0054375D03*
X0018162Y0054387D03*
X0018162Y0054398D03*
X0018151Y0054421D03*
D363*
X0025309Y0046313D03*
D364*
X0025321Y0046325D03*
D365*
X0025332Y0046337D03*
D366*
X0025350Y0046359D03*
D367*
X0027374Y0046383D03*
X0035010Y0050845D03*
X0030490Y0057779D03*
X0030490Y0057791D03*
X0030490Y0057802D03*
X0025522Y0060344D03*
X0025522Y0060355D03*
X0017633Y0055824D03*
D368*
X0018363Y0053984D03*
X0018375Y0053961D03*
X0019467Y0051120D03*
X0023711Y0046383D03*
X0029415Y0053374D03*
X0025758Y0058135D03*
X0025758Y0058147D03*
X0025758Y0058159D03*
X0025758Y0058170D03*
X0025758Y0058181D03*
X0031830Y0046532D03*
X0031818Y0046520D03*
D369*
X0031732Y0046417D03*
X0031721Y0046405D03*
X0029432Y0053352D03*
X0025729Y0058423D03*
X0025729Y0058434D03*
X0025729Y0058446D03*
X0025729Y0058458D03*
X0025729Y0058469D03*
X0018243Y0054226D03*
X0018243Y0054214D03*
X0018254Y0054202D03*
X0018254Y0054191D03*
D370*
X0017570Y0056008D03*
X0021227Y0059930D03*
X0025505Y0060585D03*
X0025505Y0060596D03*
X0025505Y0060608D03*
X0030588Y0058377D03*
X0030588Y0058366D03*
X0030588Y0058354D03*
X0029806Y0052926D03*
X0027471Y0046405D03*
X0023285Y0046590D03*
X0019467Y0049994D03*
X0019467Y0050005D03*
D371*
X0027512Y0046417D03*
X0025499Y0060654D03*
X0025499Y0060666D03*
D372*
X0030881Y0060067D03*
X0030881Y0060056D03*
X0020244Y0047015D03*
X0020244Y0047003D03*
X0020451Y0046590D03*
X0020531Y0046440D03*
D373*
X0023481Y0046463D03*
X0019444Y0050569D03*
X0022227Y0053398D03*
X0017765Y0055421D03*
X0017765Y0055433D03*
X0021388Y0058895D03*
X0021388Y0058906D03*
X0021388Y0058917D03*
X0021388Y0058929D03*
X0025574Y0059837D03*
X0030197Y0056273D03*
X0030197Y0056261D03*
X0030197Y0056249D03*
X0030185Y0056227D03*
X0030185Y0056215D03*
X0030185Y0056203D03*
X0030174Y0056180D03*
X0030174Y0056169D03*
X0030174Y0056158D03*
X0030162Y0056123D03*
X0034946Y0050684D03*
D374*
X0030277Y0056617D03*
X0030277Y0056629D03*
X0030277Y0056641D03*
X0030289Y0056663D03*
X0030289Y0056675D03*
X0030289Y0056687D03*
X0030289Y0056698D03*
X0025562Y0059941D03*
X0021365Y0059090D03*
X0021365Y0059078D03*
X0021365Y0059067D03*
X0021365Y0059055D03*
X0019444Y0050511D03*
X0023458Y0046474D03*
D375*
X0019467Y0051086D03*
X0019467Y0051098D03*
X0018317Y0054065D03*
X0018317Y0054076D03*
X0018306Y0054087D03*
X0025746Y0058251D03*
X0025746Y0058262D03*
X0025746Y0058273D03*
X0025746Y0058285D03*
X0025746Y0058296D03*
X0031795Y0046498D03*
X0031784Y0046486D03*
D376*
X0027701Y0046486D03*
X0023170Y0046705D03*
X0029909Y0052777D03*
X0030691Y0058963D03*
X0030691Y0058975D03*
X0035084Y0051074D03*
X0021169Y0060286D03*
X0021169Y0060298D03*
D377*
X0021325Y0059331D03*
X0021325Y0059320D03*
X0021325Y0059309D03*
X0025545Y0060113D03*
X0025545Y0060125D03*
X0025545Y0060137D03*
X0030398Y0057250D03*
X0030398Y0057238D03*
X0030398Y0057227D03*
X0030387Y0057216D03*
X0030387Y0057204D03*
X0030387Y0057192D03*
X0030387Y0057181D03*
X0023418Y0046498D03*
X0019450Y0050384D03*
X0019450Y0050396D03*
X0019450Y0050408D03*
X0017691Y0055652D03*
D378*
X0017668Y0055720D03*
X0017668Y0055732D03*
X0021302Y0059446D03*
X0021302Y0059458D03*
X0021302Y0059470D03*
X0019450Y0050338D03*
X0019450Y0050327D03*
X0023395Y0046509D03*
X0030444Y0057491D03*
X0030444Y0057503D03*
X0030444Y0057515D03*
X0034998Y0050798D03*
D379*
X0030346Y0051995D03*
X0020284Y0046923D03*
X0020364Y0046762D03*
X0020364Y0046751D03*
X0020491Y0046509D03*
D380*
X0023360Y0046532D03*
X0029731Y0053030D03*
X0030502Y0057825D03*
X0030502Y0057837D03*
X0030502Y0057848D03*
X0021279Y0059596D03*
X0021279Y0059608D03*
X0021279Y0059619D03*
D381*
X0025522Y0060378D03*
X0025522Y0060390D03*
X0017622Y0055859D03*
X0023349Y0046544D03*
D382*
X0023090Y0046808D03*
X0019559Y0049269D03*
X0019559Y0049280D03*
X0019559Y0049292D03*
X0025482Y0061102D03*
X0025482Y0061114D03*
X0030737Y0059262D03*
X0029990Y0052650D03*
X0027897Y0046578D03*
D383*
X0023303Y0046578D03*
X0017587Y0055962D03*
X0017587Y0055973D03*
X0021233Y0059860D03*
X0021233Y0059872D03*
X0021233Y0059884D03*
X0025511Y0060527D03*
X0025511Y0060539D03*
X0025511Y0060551D03*
X0030571Y0058273D03*
X0030571Y0058262D03*
X0030571Y0058251D03*
X0035044Y0050925D03*
D384*
X0031899Y0046612D03*
X0031887Y0046601D03*
X0025781Y0057894D03*
X0025781Y0057905D03*
X0025781Y0057917D03*
X0025781Y0057928D03*
X0025781Y0057940D03*
X0018432Y0053858D03*
X0018444Y0053834D03*
D385*
X0017455Y0056376D03*
X0021135Y0060516D03*
X0021135Y0060527D03*
X0025482Y0061126D03*
X0025482Y0061137D03*
X0030749Y0059309D03*
X0030749Y0059297D03*
X0027540Y0051569D03*
X0027931Y0046601D03*
X0023078Y0046831D03*
X0019571Y0049212D03*
X0019571Y0049223D03*
X0019571Y0049234D03*
D386*
X0027949Y0046612D03*
D387*
X0025424Y0052340D03*
X0023251Y0046624D03*
X0030622Y0058573D03*
X0030622Y0058584D03*
X0030622Y0058595D03*
X0035061Y0050983D03*
D388*
X0035061Y0050994D03*
X0029852Y0052869D03*
X0030634Y0058630D03*
X0030634Y0058641D03*
X0030634Y0058653D03*
X0025493Y0060734D03*
X0025493Y0060746D03*
X0017547Y0056100D03*
X0023239Y0046635D03*
D389*
X0019479Y0051190D03*
X0019479Y0051201D03*
X0018490Y0053754D03*
X0031922Y0046647D03*
X0031933Y0046659D03*
D390*
X0028006Y0046647D03*
X0030019Y0052604D03*
X0035113Y0051190D03*
D391*
X0030024Y0052592D03*
X0027644Y0051512D03*
X0027621Y0051523D03*
X0028023Y0046659D03*
X0023055Y0046866D03*
X0019582Y0049131D03*
X0019582Y0049142D03*
X0017443Y0056399D03*
X0025482Y0061183D03*
X0030760Y0059377D03*
D392*
X0030657Y0058780D03*
X0030657Y0058768D03*
X0030657Y0058756D03*
X0029875Y0052834D03*
X0023964Y0051753D03*
X0023216Y0046659D03*
X0019490Y0049763D03*
X0019490Y0049775D03*
X0025493Y0060792D03*
X0025493Y0060803D03*
D393*
X0023642Y0051627D03*
X0019594Y0049085D03*
X0019594Y0049073D03*
X0023044Y0046877D03*
X0028058Y0046681D03*
X0027713Y0051466D03*
X0027690Y0051477D03*
X0027678Y0051488D03*
D394*
X0032008Y0046751D03*
X0019485Y0051247D03*
X0019485Y0051259D03*
D395*
X0018565Y0053639D03*
X0018553Y0053651D03*
X0025833Y0057388D03*
X0025833Y0057399D03*
X0025833Y0057411D03*
X0025833Y0057423D03*
X0025833Y0057434D03*
X0025821Y0057491D03*
X0025821Y0057503D03*
X0032020Y0046762D03*
X0034688Y0050316D03*
D396*
X0032037Y0046785D03*
X0032025Y0046773D03*
X0029346Y0053432D03*
X0025838Y0057319D03*
X0025838Y0057330D03*
X0025838Y0057342D03*
X0025838Y0057353D03*
X0025838Y0057365D03*
X0025838Y0057377D03*
X0018570Y0053627D03*
X0018570Y0053616D03*
D397*
X0019554Y0049349D03*
X0019554Y0049338D03*
X0023107Y0046785D03*
X0030732Y0059205D03*
X0030732Y0059216D03*
X0025488Y0061068D03*
X0035102Y0051144D03*
D398*
X0032060Y0046808D03*
X0025850Y0057181D03*
X0025850Y0057192D03*
X0025850Y0057204D03*
X0025850Y0057216D03*
X0025850Y0057227D03*
X0025850Y0057238D03*
X0019490Y0051293D03*
D399*
X0019485Y0051305D03*
X0018622Y0053547D03*
X0018611Y0053559D03*
X0025453Y0052213D03*
X0029329Y0053444D03*
X0025856Y0057123D03*
X0025856Y0057135D03*
X0025856Y0057146D03*
X0025856Y0057158D03*
X0025856Y0057170D03*
X0032077Y0046831D03*
X0032066Y0046820D03*
D400*
X0028230Y0046831D03*
D401*
X0032089Y0046854D03*
X0032100Y0046866D03*
D402*
X0032106Y0046877D03*
X0032117Y0046888D03*
X0034647Y0050281D03*
X0025873Y0056916D03*
X0025873Y0056928D03*
X0025873Y0056940D03*
X0025873Y0056951D03*
X0025873Y0056962D03*
X0025873Y0056974D03*
X0018662Y0053501D03*
X0018651Y0053512D03*
X0019490Y0051339D03*
X0019490Y0051327D03*
D403*
X0019651Y0048809D03*
X0019651Y0048798D03*
X0019651Y0048786D03*
X0022986Y0046992D03*
X0023504Y0051546D03*
X0028092Y0051155D03*
X0028104Y0051144D03*
X0028115Y0051132D03*
X0028127Y0051120D03*
X0028138Y0051109D03*
X0028150Y0051098D03*
X0028161Y0051086D03*
X0028173Y0051074D03*
X0028184Y0051063D03*
X0030093Y0052477D03*
X0028322Y0046923D03*
X0028311Y0046912D03*
X0028299Y0046900D03*
X0028288Y0046888D03*
X0030795Y0059584D03*
X0025482Y0061309D03*
X0021112Y0060723D03*
X0021112Y0060712D03*
X0017409Y0056491D03*
D404*
X0018691Y0053455D03*
X0019496Y0051373D03*
X0019496Y0051362D03*
X0022613Y0053639D03*
X0025453Y0052202D03*
X0025890Y0056721D03*
X0025890Y0056733D03*
X0025890Y0056744D03*
X0025890Y0056755D03*
X0025890Y0056767D03*
X0032158Y0046934D03*
X0032146Y0046923D03*
X0034630Y0050270D03*
D405*
X0028334Y0050879D03*
X0028334Y0046934D03*
X0017409Y0056502D03*
D406*
X0018714Y0053432D03*
X0025902Y0056595D03*
X0025902Y0056606D03*
X0025902Y0056617D03*
X0025902Y0056629D03*
X0025902Y0056641D03*
X0032181Y0046969D03*
X0032169Y0046958D03*
D407*
X0032215Y0047015D03*
D408*
X0028437Y0047061D03*
X0028403Y0047015D03*
X0028564Y0050534D03*
X0028552Y0050557D03*
X0028518Y0050615D03*
X0028483Y0050672D03*
X0028472Y0050684D03*
X0028437Y0050741D03*
X0030128Y0052420D03*
X0035130Y0051270D03*
X0025482Y0061344D03*
X0023423Y0051488D03*
D409*
X0025907Y0056445D03*
X0025907Y0056456D03*
X0025907Y0056468D03*
X0025907Y0056480D03*
X0025907Y0056491D03*
X0025907Y0056502D03*
X0019502Y0051420D03*
X0032221Y0047027D03*
X0034590Y0050246D03*
D410*
X0032238Y0047038D03*
X0029271Y0053490D03*
X0025913Y0056387D03*
X0025913Y0056399D03*
X0025913Y0056410D03*
X0025913Y0056422D03*
X0025913Y0056434D03*
X0018760Y0053386D03*
X0018749Y0053398D03*
X0019508Y0051442D03*
X0019508Y0051431D03*
D411*
X0019508Y0051454D03*
X0019508Y0051466D03*
X0018772Y0053374D03*
X0025925Y0056249D03*
X0025925Y0056261D03*
X0025925Y0056273D03*
X0025925Y0056284D03*
X0025925Y0056295D03*
X0025925Y0056307D03*
X0029260Y0053501D03*
X0032261Y0047073D03*
X0032250Y0047061D03*
D412*
X0028529Y0047187D03*
X0028506Y0047153D03*
X0028495Y0047141D03*
X0028725Y0050201D03*
X0028702Y0050258D03*
X0028690Y0050281D03*
X0028679Y0050304D03*
X0028679Y0050316D03*
X0028667Y0050327D03*
X0028667Y0050338D03*
X0028656Y0050350D03*
X0028656Y0050362D03*
X0028644Y0050373D03*
X0028644Y0050384D03*
X0028633Y0050396D03*
X0028633Y0050408D03*
X0028621Y0050430D03*
X0028610Y0050453D03*
X0030139Y0052397D03*
X0025413Y0052385D03*
X0023400Y0051466D03*
X0022952Y0047073D03*
X0022952Y0047061D03*
X0019697Y0048602D03*
X0019697Y0048613D03*
X0019686Y0048625D03*
X0019686Y0048637D03*
X0019686Y0048648D03*
X0017397Y0056526D03*
X0021100Y0060780D03*
X0021100Y0060792D03*
X0025482Y0061367D03*
X0030818Y0059688D03*
X0030818Y0059677D03*
X0035130Y0051281D03*
D413*
X0032284Y0047107D03*
D414*
X0032307Y0047141D03*
X0034550Y0050223D03*
X0025936Y0056054D03*
X0025936Y0056066D03*
X0025936Y0056077D03*
X0025936Y0056088D03*
X0025936Y0056100D03*
X0025936Y0056112D03*
X0018806Y0053352D03*
X0019519Y0051500D03*
D415*
X0019519Y0051546D03*
X0018841Y0053328D03*
X0022716Y0053685D03*
X0025948Y0055859D03*
X0025948Y0055870D03*
X0025948Y0055881D03*
X0025948Y0055893D03*
X0025948Y0055905D03*
X0025948Y0055916D03*
X0032353Y0047199D03*
D416*
X0032359Y0047210D03*
X0032370Y0047222D03*
X0034521Y0050212D03*
X0029208Y0053535D03*
X0025953Y0055847D03*
X0019525Y0051558D03*
D417*
X0019772Y0048315D03*
X0019772Y0048303D03*
X0022900Y0047222D03*
X0022900Y0047210D03*
X0023211Y0051281D03*
X0023222Y0051293D03*
X0030191Y0052294D03*
D418*
X0032376Y0047234D03*
D419*
X0032405Y0047268D03*
X0025953Y0055686D03*
D420*
X0025959Y0055674D03*
X0025959Y0055663D03*
X0025959Y0055652D03*
X0025959Y0055640D03*
X0025959Y0055628D03*
X0022751Y0053696D03*
X0019531Y0051603D03*
X0032422Y0047291D03*
D421*
X0032428Y0047302D03*
X0032439Y0047314D03*
X0025965Y0055583D03*
X0025965Y0055594D03*
X0025965Y0055605D03*
X0025965Y0055617D03*
X0019536Y0051627D03*
X0019536Y0051615D03*
D422*
X0025959Y0055559D03*
X0025959Y0055571D03*
X0032445Y0047326D03*
D423*
X0032474Y0047371D03*
X0025965Y0055445D03*
X0025965Y0055456D03*
X0025965Y0055467D03*
X0025965Y0055479D03*
X0022779Y0053708D03*
X0019548Y0051661D03*
D424*
X0019542Y0051673D03*
X0025971Y0055410D03*
X0025971Y0055421D03*
X0025971Y0055433D03*
X0029156Y0053570D03*
X0032491Y0047383D03*
D425*
X0032497Y0047395D03*
X0025965Y0055387D03*
X0025965Y0055398D03*
D426*
X0025971Y0055376D03*
X0025971Y0055364D03*
X0025971Y0055352D03*
X0025971Y0055341D03*
X0025971Y0055330D03*
X0025465Y0052144D03*
X0032503Y0047406D03*
X0032514Y0047417D03*
D427*
X0032526Y0047441D03*
X0019554Y0051707D03*
X0019554Y0051719D03*
D428*
X0022814Y0053720D03*
X0025976Y0055260D03*
X0032543Y0047463D03*
X0032531Y0047452D03*
D429*
X0032549Y0047475D03*
X0025971Y0055215D03*
X0025971Y0055226D03*
X0025971Y0055237D03*
X0025971Y0055249D03*
X0019554Y0051730D03*
D430*
X0029116Y0053593D03*
X0032554Y0047487D03*
D431*
X0032577Y0047509D03*
X0025976Y0055134D03*
X0025976Y0055145D03*
D432*
X0025976Y0055088D03*
X0025976Y0055077D03*
X0022848Y0053731D03*
X0032600Y0047544D03*
D433*
X0032606Y0047555D03*
D434*
X0032623Y0047578D03*
D435*
X0032629Y0047590D03*
X0029076Y0053616D03*
X0025971Y0054996D03*
X0025971Y0055008D03*
X0025971Y0055019D03*
X0025465Y0052121D03*
X0019577Y0051810D03*
D436*
X0032646Y0047613D03*
D437*
X0032681Y0047659D03*
X0025470Y0052109D03*
X0025976Y0054892D03*
X0022894Y0053742D03*
X0019582Y0051856D03*
D438*
X0019588Y0051868D03*
X0025971Y0054846D03*
X0025971Y0054858D03*
X0025971Y0054870D03*
X0025971Y0054881D03*
X0032687Y0047670D03*
D439*
X0032692Y0047682D03*
D440*
X0032715Y0047716D03*
X0025965Y0054801D03*
X0019594Y0051902D03*
X0019594Y0051891D03*
D441*
X0025476Y0052098D03*
X0025971Y0054766D03*
X0025971Y0054777D03*
X0025971Y0054789D03*
X0032721Y0047728D03*
D442*
X0032727Y0047740D03*
X0032738Y0047751D03*
X0025965Y0054755D03*
X0019594Y0051914D03*
D443*
X0029012Y0053651D03*
X0032750Y0047774D03*
D444*
X0028932Y0048337D03*
X0028932Y0048349D03*
X0028932Y0048360D03*
X0028932Y0048372D03*
X0028886Y0048096D03*
X0028886Y0048084D03*
X0028886Y0048073D03*
X0028805Y0047785D03*
X0028805Y0047774D03*
X0023262Y0051339D03*
X0019732Y0048452D03*
X0017386Y0056560D03*
X0025482Y0061424D03*
D445*
X0019605Y0051948D03*
X0032761Y0047785D03*
D446*
X0032767Y0047797D03*
X0032779Y0047809D03*
X0025476Y0052087D03*
X0019611Y0051960D03*
D447*
X0019611Y0051983D03*
X0032790Y0047831D03*
D448*
X0032796Y0047843D03*
X0032807Y0047855D03*
X0019617Y0051995D03*
D449*
X0019617Y0052006D03*
X0032819Y0047877D03*
D450*
X0032825Y0047889D03*
X0028961Y0053673D03*
X0022992Y0053766D03*
X0019623Y0052017D03*
D451*
X0019623Y0052029D03*
X0032848Y0047923D03*
D452*
X0032853Y0047935D03*
X0025482Y0052063D03*
X0019628Y0052041D03*
D453*
X0032871Y0047958D03*
D454*
X0032882Y0047981D03*
X0019634Y0052063D03*
D455*
X0032888Y0047992D03*
D456*
X0032894Y0048004D03*
X0019646Y0052087D03*
D457*
X0019646Y0052109D03*
X0032905Y0048027D03*
X0032917Y0048038D03*
D458*
X0032928Y0048062D03*
X0019646Y0052121D03*
D459*
X0032934Y0048073D03*
D460*
X0032940Y0048084D03*
X0019657Y0052144D03*
D461*
X0032945Y0048096D03*
X0032957Y0048108D03*
D462*
X0032963Y0048119D03*
X0019657Y0052155D03*
D463*
X0025488Y0052029D03*
X0032974Y0048142D03*
D464*
X0032980Y0048153D03*
X0019663Y0052178D03*
D465*
X0019669Y0052190D03*
X0032986Y0048165D03*
X0032997Y0048177D03*
D466*
X0033009Y0048199D03*
X0028834Y0053720D03*
X0025488Y0052017D03*
D467*
X0019674Y0052213D03*
X0033014Y0048211D03*
D468*
X0033020Y0048223D03*
D469*
X0033026Y0048234D03*
X0019686Y0052236D03*
D470*
X0033049Y0048280D03*
X0033049Y0048269D03*
D471*
X0033055Y0048291D03*
X0019692Y0052259D03*
D472*
X0019692Y0052270D03*
X0028800Y0053731D03*
X0033066Y0048315D03*
D473*
X0033072Y0048326D03*
X0025493Y0051995D03*
X0019697Y0052282D03*
D474*
X0033078Y0048337D03*
D475*
X0033089Y0048360D03*
X0033101Y0048372D03*
X0025499Y0051983D03*
X0019703Y0052305D03*
D476*
X0019709Y0052316D03*
X0033106Y0048395D03*
X0033106Y0048384D03*
D477*
X0033112Y0048406D03*
X0028765Y0053742D03*
D478*
X0033124Y0048430D03*
X0019715Y0052340D03*
D479*
X0019720Y0052351D03*
X0033129Y0048441D03*
D480*
X0033135Y0048452D03*
D481*
X0033147Y0048487D03*
X0033158Y0048498D03*
X0025499Y0051960D03*
X0019726Y0052374D03*
D482*
X0033170Y0048521D03*
D483*
X0033175Y0048533D03*
X0033175Y0048545D03*
X0019732Y0052397D03*
D484*
X0028708Y0053754D03*
X0033181Y0048556D03*
D485*
X0033198Y0048591D03*
X0033198Y0048602D03*
D486*
X0033204Y0048613D03*
X0019749Y0052431D03*
D487*
X0033216Y0048637D03*
X0033227Y0048648D03*
X0033227Y0048659D03*
D488*
X0033239Y0048683D03*
D489*
X0029191Y0053547D03*
X0025959Y0055698D03*
X0025959Y0055709D03*
X0025959Y0055720D03*
X0025959Y0055732D03*
X0023947Y0049327D03*
X0023947Y0049315D03*
X0023947Y0049303D03*
X0023947Y0049292D03*
X0023947Y0049280D03*
X0023947Y0049269D03*
X0023947Y0049258D03*
X0023947Y0049246D03*
X0023947Y0049234D03*
X0023947Y0049223D03*
X0023947Y0049212D03*
X0023947Y0049200D03*
X0023947Y0049188D03*
X0023947Y0049177D03*
X0023947Y0049166D03*
X0023947Y0049154D03*
X0023947Y0049142D03*
X0023947Y0049131D03*
X0023947Y0049120D03*
X0023947Y0049108D03*
X0023947Y0049096D03*
X0023947Y0049085D03*
X0023947Y0049073D03*
X0023947Y0049062D03*
X0023947Y0049051D03*
X0023947Y0049039D03*
X0023947Y0049027D03*
X0023947Y0049016D03*
X0023947Y0049005D03*
X0023947Y0048993D03*
X0023947Y0048981D03*
X0023947Y0048970D03*
X0023947Y0048959D03*
X0023947Y0048947D03*
X0023947Y0048935D03*
X0023947Y0048924D03*
X0023947Y0048912D03*
X0023947Y0048901D03*
X0023947Y0048890D03*
X0023947Y0048878D03*
X0023947Y0048866D03*
X0023947Y0048855D03*
X0023947Y0048844D03*
X0023947Y0048832D03*
X0023947Y0048820D03*
X0023947Y0048809D03*
X0023947Y0048798D03*
X0023947Y0048786D03*
X0023947Y0048774D03*
X0023947Y0048763D03*
X0023947Y0048752D03*
X0023947Y0048740D03*
X0023947Y0048728D03*
X0023947Y0048717D03*
X0023947Y0048705D03*
X0023947Y0048694D03*
X0023947Y0048683D03*
X0019531Y0051580D03*
X0019531Y0051592D03*
X0018864Y0053317D03*
D490*
X0019766Y0052477D03*
X0028656Y0053766D03*
X0033244Y0048705D03*
X0033244Y0048694D03*
D491*
X0033250Y0048717D03*
D492*
X0033256Y0048728D03*
D493*
X0033262Y0048740D03*
X0033262Y0048752D03*
X0025511Y0051914D03*
X0019772Y0052501D03*
D494*
X0019772Y0052512D03*
X0033273Y0048774D03*
D495*
X0033279Y0048786D03*
X0033279Y0048798D03*
D496*
X0033285Y0048809D03*
X0025511Y0051902D03*
X0019784Y0052523D03*
D497*
X0019789Y0052535D03*
X0033290Y0048832D03*
X0033290Y0048820D03*
D498*
X0033296Y0048844D03*
D499*
X0033302Y0048855D03*
X0019789Y0052546D03*
D500*
X0019795Y0052558D03*
X0033308Y0048878D03*
X0033308Y0048866D03*
D501*
X0033313Y0048890D03*
D502*
X0033325Y0048924D03*
X0025516Y0051880D03*
X0019801Y0052581D03*
D503*
X0019807Y0052592D03*
X0033331Y0048947D03*
X0033331Y0048935D03*
D504*
X0033336Y0048959D03*
D505*
X0033342Y0048970D03*
X0033342Y0048981D03*
X0028558Y0053777D03*
X0025522Y0051868D03*
D506*
X0019818Y0052616D03*
X0033354Y0049016D03*
X0033354Y0049005D03*
D507*
X0033359Y0049027D03*
X0019824Y0052627D03*
D508*
X0025522Y0051856D03*
X0033365Y0049051D03*
X0033365Y0049039D03*
D509*
X0033377Y0049085D03*
D510*
X0033382Y0049096D03*
X0033382Y0049108D03*
X0019835Y0052650D03*
D511*
X0033388Y0049131D03*
X0033388Y0049120D03*
D512*
X0033394Y0049142D03*
X0033394Y0049154D03*
X0019835Y0052662D03*
D513*
X0033400Y0049166D03*
D514*
X0033400Y0049177D03*
X0033400Y0049188D03*
D515*
X0033405Y0049200D03*
X0033405Y0049212D03*
X0025528Y0051822D03*
D516*
X0019853Y0052696D03*
X0033411Y0049223D03*
D517*
X0033417Y0049234D03*
X0033417Y0049246D03*
X0019858Y0052708D03*
D518*
X0019858Y0052719D03*
X0025528Y0051810D03*
X0033428Y0049292D03*
X0033428Y0049280D03*
D519*
X0033434Y0049303D03*
X0033434Y0049315D03*
X0019864Y0052730D03*
D520*
X0019870Y0052742D03*
X0033440Y0049338D03*
X0033440Y0049327D03*
D521*
X0033440Y0049361D03*
D522*
X0033446Y0049373D03*
X0033446Y0049384D03*
X0019876Y0052753D03*
D523*
X0019881Y0052765D03*
X0025539Y0051787D03*
X0033451Y0049407D03*
X0033451Y0049395D03*
D524*
X0033457Y0049419D03*
X0033457Y0049430D03*
D525*
X0030720Y0059124D03*
X0030720Y0059136D03*
X0025488Y0061022D03*
X0021152Y0060401D03*
X0019531Y0049453D03*
X0019531Y0049441D03*
D526*
X0033469Y0049465D03*
X0033469Y0049476D03*
D527*
X0033463Y0049487D03*
D528*
X0033469Y0049499D03*
X0033469Y0049510D03*
X0019899Y0052799D03*
D529*
X0019519Y0049545D03*
X0019519Y0049534D03*
X0021164Y0060332D03*
X0021164Y0060344D03*
X0030697Y0059033D03*
X0030697Y0059021D03*
X0035090Y0051098D03*
D530*
X0033480Y0049556D03*
X0033480Y0049545D03*
X0019899Y0052811D03*
D531*
X0033486Y0049580D03*
X0033486Y0049568D03*
D532*
X0033480Y0049591D03*
X0019910Y0052823D03*
D533*
X0033486Y0049614D03*
X0033486Y0049602D03*
D534*
X0027259Y0051695D03*
X0030686Y0058941D03*
X0030686Y0058952D03*
X0025488Y0060895D03*
X0025488Y0060907D03*
X0025488Y0060919D03*
X0021175Y0060274D03*
X0021175Y0060263D03*
X0017507Y0056227D03*
X0019508Y0049626D03*
X0019508Y0049614D03*
D535*
X0033497Y0049648D03*
X0033497Y0049660D03*
D536*
X0029892Y0052799D03*
X0027224Y0051707D03*
X0030674Y0058883D03*
X0030674Y0058895D03*
X0019508Y0049660D03*
X0019508Y0049648D03*
D537*
X0019922Y0052845D03*
X0033492Y0049671D03*
D538*
X0033497Y0049683D03*
X0033497Y0049695D03*
X0033497Y0049706D03*
X0019927Y0052857D03*
D539*
X0019496Y0049706D03*
X0017518Y0056180D03*
X0025488Y0060849D03*
X0030663Y0058837D03*
X0030663Y0058826D03*
X0030663Y0058814D03*
X0029892Y0052811D03*
X0027201Y0051719D03*
X0035079Y0051040D03*
D540*
X0033503Y0049729D03*
X0033503Y0049717D03*
D541*
X0033497Y0049741D03*
X0019927Y0052869D03*
D542*
X0033503Y0049775D03*
X0033503Y0049763D03*
X0033503Y0049752D03*
D543*
X0033509Y0049787D03*
X0033509Y0049798D03*
D544*
X0033515Y0049809D03*
X0019945Y0052891D03*
D545*
X0033509Y0049833D03*
X0033509Y0049821D03*
D546*
X0033515Y0049844D03*
X0033515Y0049855D03*
X0033515Y0049867D03*
X0019945Y0052903D03*
D547*
X0033509Y0049878D03*
D548*
X0033515Y0049890D03*
X0033515Y0049902D03*
X0033515Y0049913D03*
X0019956Y0052915D03*
D549*
X0033520Y0049924D03*
D550*
X0035056Y0050959D03*
X0029823Y0052903D03*
X0030605Y0058458D03*
X0030605Y0058469D03*
X0030605Y0058480D03*
X0021210Y0059998D03*
X0021210Y0060010D03*
X0017564Y0056042D03*
X0019473Y0049948D03*
X0019473Y0049936D03*
D551*
X0033520Y0049970D03*
D552*
X0030594Y0058388D03*
X0030594Y0058400D03*
X0030594Y0058412D03*
X0025499Y0060620D03*
X0021221Y0059964D03*
X0021221Y0059952D03*
X0021221Y0059941D03*
X0017576Y0056020D03*
X0019473Y0049982D03*
X0019473Y0049970D03*
D553*
X0019968Y0052937D03*
X0033515Y0050005D03*
X0033515Y0049994D03*
X0033515Y0049982D03*
D554*
X0033520Y0050016D03*
X0033520Y0050028D03*
X0019973Y0052949D03*
D555*
X0019467Y0050051D03*
X0019467Y0050040D03*
X0019467Y0050028D03*
X0021227Y0059895D03*
X0021227Y0059906D03*
X0025505Y0060562D03*
D556*
X0033515Y0050062D03*
X0033515Y0050051D03*
X0033515Y0050040D03*
D557*
X0035038Y0050913D03*
X0030565Y0058216D03*
X0030565Y0058227D03*
X0030565Y0058239D03*
X0029783Y0052960D03*
X0021238Y0059837D03*
X0021238Y0059849D03*
X0017593Y0055951D03*
X0019467Y0050074D03*
X0019467Y0050062D03*
D558*
X0033520Y0050074D03*
D559*
X0033515Y0050085D03*
X0033515Y0050097D03*
X0033515Y0050109D03*
X0033515Y0050120D03*
X0019979Y0052960D03*
D560*
X0019985Y0052972D03*
X0033509Y0050131D03*
D561*
X0033515Y0050143D03*
X0033515Y0050155D03*
X0033515Y0050166D03*
D562*
X0029754Y0052995D03*
X0030525Y0057986D03*
X0030525Y0057998D03*
X0030525Y0058009D03*
X0025522Y0060424D03*
X0021256Y0059734D03*
X0021256Y0059723D03*
X0017622Y0055881D03*
X0019462Y0050166D03*
X0019462Y0050155D03*
D563*
X0033509Y0050177D03*
X0033509Y0050189D03*
D564*
X0030513Y0057905D03*
X0030513Y0057917D03*
X0030513Y0057928D03*
X0021267Y0059665D03*
X0021267Y0059677D03*
X0021267Y0059688D03*
X0019462Y0050201D03*
D565*
X0025476Y0061746D03*
X0030904Y0060217D03*
X0030456Y0051765D03*
X0030456Y0051753D03*
X0030467Y0051741D03*
X0031215Y0050304D03*
D566*
X0031203Y0050316D03*
X0030479Y0051707D03*
X0030479Y0051719D03*
X0030904Y0060228D03*
X0025476Y0061758D03*
D567*
X0025539Y0060228D03*
X0021296Y0059492D03*
X0021296Y0059481D03*
X0017662Y0055744D03*
X0019456Y0050316D03*
X0029702Y0053064D03*
X0030438Y0057480D03*
X0030450Y0057526D03*
X0030450Y0057537D03*
X0030450Y0057549D03*
X0030450Y0057560D03*
D568*
X0034699Y0050327D03*
X0022544Y0053605D03*
X0018519Y0053708D03*
D569*
X0025476Y0061770D03*
X0030490Y0051684D03*
X0031180Y0050338D03*
X0031192Y0050327D03*
D570*
X0031169Y0050350D03*
X0030513Y0051638D03*
D571*
X0029691Y0053076D03*
X0030427Y0057399D03*
X0030427Y0057411D03*
X0030427Y0057423D03*
X0030427Y0057434D03*
X0025539Y0060183D03*
X0025539Y0060194D03*
X0025539Y0060205D03*
X0021307Y0059435D03*
X0021307Y0059423D03*
X0021307Y0059412D03*
X0017673Y0055709D03*
X0022124Y0053317D03*
X0019456Y0050350D03*
X0034992Y0050787D03*
D572*
X0031157Y0050362D03*
X0031146Y0050373D03*
X0030536Y0051592D03*
X0030525Y0051603D03*
D573*
X0030542Y0051580D03*
X0030542Y0051569D03*
X0031140Y0050384D03*
X0030910Y0060286D03*
X0025470Y0061804D03*
D574*
X0034762Y0050396D03*
D575*
X0031128Y0050396D03*
X0031117Y0050408D03*
X0030565Y0051523D03*
X0030553Y0051546D03*
X0030910Y0060298D03*
X0025470Y0061816D03*
D576*
X0021037Y0061309D03*
X0030571Y0051512D03*
X0030571Y0051500D03*
X0031111Y0050419D03*
X0035159Y0051488D03*
D577*
X0031100Y0050430D03*
X0031088Y0050442D03*
X0030594Y0051454D03*
X0030916Y0060320D03*
X0021037Y0061321D03*
D578*
X0021031Y0061333D03*
X0017294Y0056767D03*
X0030599Y0051442D03*
X0030599Y0051431D03*
X0031082Y0050453D03*
D579*
X0030341Y0056916D03*
X0030341Y0056928D03*
X0030341Y0056940D03*
X0030341Y0056951D03*
X0021348Y0059170D03*
X0021348Y0059182D03*
X0021348Y0059194D03*
X0019450Y0050465D03*
X0019450Y0050453D03*
D580*
X0030617Y0051396D03*
X0030617Y0051408D03*
X0031065Y0050477D03*
X0031077Y0050465D03*
X0035159Y0051500D03*
X0030916Y0060332D03*
D581*
X0030335Y0056905D03*
X0030323Y0056859D03*
X0030323Y0056848D03*
X0030323Y0056836D03*
X0030312Y0056802D03*
X0030312Y0056790D03*
X0029656Y0053121D03*
X0025562Y0059976D03*
X0025562Y0059987D03*
X0025562Y0059998D03*
X0021353Y0059159D03*
X0021353Y0059148D03*
X0021353Y0059136D03*
X0017719Y0055559D03*
X0022181Y0053363D03*
X0019444Y0050477D03*
X0034969Y0050730D03*
D582*
X0031059Y0050488D03*
X0030634Y0051362D03*
X0030634Y0051373D03*
X0030622Y0051385D03*
X0030921Y0060344D03*
X0025470Y0061850D03*
X0021031Y0061344D03*
D583*
X0030640Y0051351D03*
X0030640Y0051339D03*
X0031042Y0050511D03*
X0031054Y0050499D03*
D584*
X0034946Y0050695D03*
X0030220Y0056365D03*
X0030231Y0056410D03*
X0030231Y0056422D03*
X0030243Y0056445D03*
X0030243Y0056456D03*
X0030243Y0056468D03*
X0030243Y0056480D03*
X0030254Y0056514D03*
X0030254Y0056526D03*
X0025574Y0059872D03*
X0025574Y0059884D03*
X0025574Y0059895D03*
X0021376Y0059009D03*
X0021376Y0058998D03*
X0021376Y0058987D03*
X0021376Y0058975D03*
X0017754Y0055467D03*
X0017754Y0055456D03*
X0022216Y0053386D03*
X0019444Y0050545D03*
X0019444Y0050534D03*
D585*
X0030663Y0051293D03*
X0031008Y0050569D03*
X0031019Y0050557D03*
D586*
X0031002Y0050580D03*
X0030921Y0060366D03*
D587*
X0025465Y0061873D03*
X0030697Y0051212D03*
X0030709Y0051201D03*
X0030709Y0051190D03*
X0030720Y0051166D03*
X0030985Y0050615D03*
X0030985Y0050603D03*
X0030996Y0050591D03*
D588*
X0030979Y0050626D03*
X0030737Y0051120D03*
X0030737Y0051132D03*
D589*
X0030726Y0051144D03*
X0030726Y0051155D03*
X0030714Y0051178D03*
X0030956Y0050660D03*
X0030967Y0050649D03*
X0030967Y0050637D03*
X0030921Y0060378D03*
D590*
X0025465Y0061884D03*
X0021026Y0061378D03*
X0030743Y0051109D03*
X0030755Y0051098D03*
X0030755Y0051086D03*
X0030766Y0051063D03*
X0030927Y0050718D03*
X0030939Y0050695D03*
X0030950Y0050684D03*
X0030950Y0050672D03*
D591*
X0030933Y0050706D03*
X0030921Y0050730D03*
X0030910Y0050741D03*
X0030910Y0050752D03*
X0030898Y0050776D03*
X0030887Y0050798D03*
X0030875Y0050821D03*
X0030818Y0050948D03*
X0030806Y0050971D03*
X0030795Y0050994D03*
X0030783Y0051017D03*
X0030783Y0051028D03*
X0030772Y0051040D03*
X0030772Y0051052D03*
X0030760Y0051074D03*
X0021020Y0061390D03*
X0017271Y0056790D03*
D592*
X0017685Y0055674D03*
X0017685Y0055663D03*
X0022135Y0053328D03*
X0021319Y0059343D03*
X0021319Y0059355D03*
X0021319Y0059366D03*
X0029679Y0053087D03*
X0030415Y0057330D03*
X0030415Y0057342D03*
X0034981Y0050776D03*
D593*
X0030881Y0050810D03*
X0030847Y0050879D03*
X0030847Y0050891D03*
X0030835Y0050902D03*
X0030835Y0050913D03*
X0030801Y0050983D03*
X0030927Y0060390D03*
X0025465Y0061896D03*
D594*
X0017616Y0055870D03*
X0035027Y0050867D03*
D595*
X0035050Y0050948D03*
D596*
X0035067Y0051005D03*
X0029858Y0052857D03*
X0030640Y0058665D03*
X0030640Y0058676D03*
X0030640Y0058687D03*
X0025499Y0060758D03*
X0021198Y0060113D03*
X0021198Y0060102D03*
X0017541Y0056112D03*
D597*
X0017530Y0056146D03*
X0021187Y0060148D03*
X0027155Y0051730D03*
X0029869Y0052845D03*
X0030651Y0058722D03*
X0030651Y0058734D03*
X0030651Y0058745D03*
X0035067Y0051017D03*
D598*
X0025447Y0052224D03*
X0025804Y0057641D03*
X0025804Y0057652D03*
X0025804Y0057664D03*
X0025804Y0057676D03*
X0025804Y0057687D03*
X0018513Y0053720D03*
X0018501Y0053731D03*
X0018524Y0053696D03*
X0019479Y0051224D03*
X0019479Y0051212D03*
D599*
X0021031Y0061367D03*
X0030680Y0051259D03*
X0030680Y0051247D03*
X0030691Y0051235D03*
X0030691Y0051224D03*
X0035165Y0051512D03*
D600*
X0030674Y0051270D03*
D601*
X0030835Y0059803D03*
X0023199Y0051270D03*
D602*
X0030651Y0051327D03*
D603*
X0030611Y0051420D03*
X0025401Y0052420D03*
X0025470Y0061838D03*
D604*
X0025470Y0061827D03*
X0030576Y0051488D03*
X0030588Y0051477D03*
X0030588Y0051466D03*
D605*
X0035153Y0051477D03*
D606*
X0025459Y0052178D03*
X0025942Y0056020D03*
X0025942Y0056031D03*
X0025942Y0056042D03*
X0019513Y0051512D03*
D607*
X0021020Y0061402D03*
X0030933Y0060401D03*
X0035153Y0051523D03*
D608*
X0035159Y0051534D03*
D609*
X0030559Y0051534D03*
X0030548Y0051558D03*
X0021037Y0061298D03*
X0017300Y0056755D03*
D610*
X0025453Y0061965D03*
X0035159Y0051546D03*
D611*
X0035165Y0051558D03*
D612*
X0035159Y0051569D03*
X0030939Y0060527D03*
D613*
X0035153Y0051580D03*
D614*
X0035153Y0051592D03*
X0025424Y0062103D03*
D615*
X0025470Y0061792D03*
X0021043Y0061275D03*
X0030910Y0060274D03*
X0030910Y0060263D03*
X0030519Y0051627D03*
X0030519Y0051615D03*
D616*
X0030507Y0051649D03*
X0030496Y0051673D03*
X0030910Y0060252D03*
X0025470Y0061781D03*
X0021043Y0061263D03*
X0017305Y0056744D03*
D617*
X0030502Y0051661D03*
D618*
X0019548Y0051684D03*
D619*
X0017317Y0056733D03*
X0030473Y0051730D03*
D620*
X0025976Y0055191D03*
X0025976Y0055203D03*
X0019559Y0051741D03*
D621*
X0017599Y0055939D03*
X0021244Y0059815D03*
X0021244Y0059826D03*
X0025511Y0060493D03*
X0025511Y0060505D03*
X0025511Y0060516D03*
X0025430Y0052328D03*
X0027006Y0051765D03*
D622*
X0024021Y0051765D03*
D623*
X0025971Y0055053D03*
X0025971Y0055065D03*
X0019565Y0051787D03*
D624*
X0025528Y0051845D03*
D625*
X0025976Y0054938D03*
X0019582Y0051845D03*
D626*
X0025516Y0051891D03*
D627*
X0030375Y0051926D03*
X0030893Y0060125D03*
X0025476Y0061677D03*
D628*
X0025511Y0051926D03*
X0019761Y0052466D03*
D629*
X0025499Y0051971D03*
D630*
X0019640Y0052075D03*
D631*
X0022664Y0053662D03*
X0025459Y0052190D03*
D632*
X0019680Y0052224D03*
D633*
X0019686Y0052248D03*
D634*
X0019709Y0052328D03*
D635*
X0019738Y0052409D03*
D636*
X0019743Y0052420D03*
D637*
X0025401Y0052431D03*
D638*
X0019766Y0052489D03*
D639*
X0019795Y0052570D03*
D640*
X0019841Y0052673D03*
D641*
X0019893Y0052788D03*
D642*
X0019939Y0052880D03*
D643*
X0019991Y0052984D03*
D644*
X0019996Y0052995D03*
D645*
X0020014Y0053018D03*
D646*
X0020019Y0053030D03*
D647*
X0020025Y0053041D03*
D648*
X0020042Y0053064D03*
D649*
X0020054Y0053087D03*
D650*
X0020071Y0053110D03*
D651*
X0017742Y0055502D03*
X0017742Y0055513D03*
X0029645Y0053133D03*
X0030266Y0056571D03*
X0030300Y0056733D03*
D652*
X0020083Y0053133D03*
D653*
X0020094Y0053145D03*
D654*
X0020094Y0053156D03*
D655*
X0020117Y0053179D03*
D656*
X0020123Y0053191D03*
D657*
X0020129Y0053202D03*
D658*
X0020140Y0053213D03*
D659*
X0020146Y0053225D03*
D660*
X0020157Y0053237D03*
D661*
X0020175Y0053259D03*
D662*
X0018064Y0054616D03*
X0029484Y0053305D03*
D663*
X0025925Y0056192D03*
X0018783Y0053363D03*
D664*
X0025884Y0056778D03*
X0025884Y0056790D03*
X0025884Y0056802D03*
X0025884Y0056813D03*
X0025884Y0056824D03*
X0025884Y0056836D03*
X0029300Y0053466D03*
D665*
X0018685Y0053466D03*
X0018674Y0053478D03*
D666*
X0018582Y0053605D03*
X0022561Y0053616D03*
D667*
X0028984Y0053662D03*
D668*
X0028869Y0053708D03*
D669*
X0025792Y0057767D03*
X0025792Y0057779D03*
X0025792Y0057791D03*
X0025792Y0057802D03*
X0025792Y0057813D03*
X0018467Y0053800D03*
X0018467Y0053788D03*
X0018478Y0053777D03*
D670*
X0025982Y0053788D03*
D671*
X0025988Y0053800D03*
X0025988Y0053812D03*
D672*
X0025982Y0053823D03*
X0025982Y0053834D03*
X0025982Y0053846D03*
X0025982Y0053858D03*
X0025982Y0053869D03*
D673*
X0025988Y0053880D03*
X0025988Y0053892D03*
X0025988Y0053903D03*
X0025988Y0053915D03*
X0025988Y0053927D03*
D674*
X0018415Y0053892D03*
X0018415Y0053880D03*
D675*
X0025994Y0053938D03*
X0025994Y0053949D03*
X0025994Y0053961D03*
D676*
X0025988Y0053973D03*
X0025988Y0053984D03*
X0025988Y0053995D03*
D677*
X0018352Y0054007D03*
X0018352Y0053995D03*
D678*
X0025994Y0054007D03*
X0025994Y0054019D03*
X0025994Y0054030D03*
X0025994Y0054041D03*
X0025994Y0054053D03*
D679*
X0025999Y0054065D03*
D680*
X0025994Y0054076D03*
X0025994Y0054087D03*
X0025994Y0054099D03*
X0025994Y0054110D03*
X0025994Y0054122D03*
D681*
X0025999Y0054134D03*
D682*
X0025994Y0054145D03*
X0025994Y0054156D03*
X0025994Y0054168D03*
X0025994Y0054180D03*
D683*
X0025999Y0054191D03*
D684*
X0025994Y0054202D03*
X0025994Y0054214D03*
X0025994Y0054226D03*
X0025994Y0054237D03*
D685*
X0025999Y0054248D03*
D686*
X0025994Y0054260D03*
X0025994Y0054271D03*
X0025994Y0054283D03*
X0025994Y0054295D03*
X0025994Y0054306D03*
D687*
X0025994Y0054317D03*
X0025994Y0054329D03*
X0025994Y0054341D03*
X0025994Y0054352D03*
D688*
X0025988Y0054363D03*
D689*
X0025994Y0054375D03*
X0025994Y0054387D03*
X0025994Y0054398D03*
X0025994Y0054409D03*
D690*
X0025988Y0054421D03*
D691*
X0025994Y0054433D03*
X0025994Y0054444D03*
X0025994Y0054455D03*
D692*
X0025988Y0054467D03*
X0025988Y0054478D03*
D693*
X0025994Y0054490D03*
X0025994Y0054502D03*
D694*
X0025988Y0054513D03*
X0025988Y0054524D03*
D695*
X0025971Y0054731D03*
X0025971Y0054743D03*
D696*
X0025971Y0055272D03*
X0025971Y0055284D03*
X0025971Y0055295D03*
X0025971Y0055306D03*
X0025971Y0055318D03*
D697*
X0025557Y0060010D03*
X0025557Y0060021D03*
X0025557Y0060033D03*
X0030329Y0056894D03*
X0030329Y0056882D03*
X0030329Y0056870D03*
X0017714Y0055583D03*
X0017714Y0055571D03*
D698*
X0017696Y0055628D03*
X0017696Y0055640D03*
D699*
X0017265Y0056802D03*
D700*
X0017259Y0056813D03*
X0030933Y0060459D03*
D701*
X0025447Y0061999D03*
X0021008Y0061505D03*
X0017248Y0056824D03*
D702*
X0017242Y0056836D03*
X0021003Y0061540D03*
X0025442Y0062034D03*
D703*
X0030944Y0060573D03*
X0017225Y0056848D03*
D704*
X0017190Y0056859D03*
D705*
X0030404Y0057262D03*
X0030404Y0057273D03*
X0030404Y0057284D03*
X0030404Y0057296D03*
D706*
X0030530Y0058020D03*
X0030530Y0058032D03*
X0030530Y0058044D03*
X0030530Y0058055D03*
X0025516Y0060435D03*
X0025516Y0060447D03*
X0025516Y0060459D03*
D707*
X0030714Y0059113D03*
X0030714Y0059102D03*
D708*
X0030916Y0060309D03*
D709*
X0030933Y0060412D03*
D710*
X0030933Y0060424D03*
X0021020Y0061424D03*
D711*
X0021020Y0061436D03*
X0025459Y0061930D03*
X0030933Y0060435D03*
D712*
X0030933Y0060447D03*
D713*
X0030933Y0060470D03*
X0021008Y0061470D03*
D714*
X0030939Y0060481D03*
D715*
X0030939Y0060493D03*
D716*
X0030939Y0060505D03*
D717*
X0030944Y0060516D03*
D718*
X0030939Y0060539D03*
D719*
X0030944Y0060551D03*
X0025436Y0062057D03*
X0020997Y0061562D03*
D720*
X0020997Y0061574D03*
X0025436Y0062069D03*
X0030944Y0060562D03*
D721*
X0030944Y0060585D03*
D722*
X0030944Y0060596D03*
D723*
X0021043Y0061229D03*
D724*
X0021043Y0061287D03*
D725*
X0021020Y0061413D03*
D726*
X0021014Y0061448D03*
D727*
X0021014Y0061459D03*
X0025453Y0061953D03*
D728*
X0021008Y0061482D03*
D729*
X0021008Y0061494D03*
D730*
X0021008Y0061516D03*
D731*
X0021003Y0061528D03*
D732*
X0020997Y0061551D03*
D733*
X0020991Y0061585D03*
X0025430Y0062080D03*
D734*
X0025430Y0062091D03*
X0020991Y0061597D03*
D735*
X0020980Y0061609D03*
D736*
X0020980Y0061620D03*
D737*
X0025482Y0061655D03*
D738*
X0025465Y0061908D03*
D739*
X0025465Y0061919D03*
D740*
X0025459Y0061942D03*
D741*
X0025453Y0061977D03*
D742*
X0025447Y0062011D03*
D743*
X0025447Y0062023D03*
D744*
X0025442Y0062045D03*
D745*
X0025430Y0062115D03*
D746*
X0025424Y0062126D03*
M02*
