G75*
%MOIN*%
%OFA0B0*%
%FSLAX25Y25*%
%IPPOS*%
%LPD*%
%AMOC8*
5,1,8,0,0,1.08239X$1,22.5*
%
%ADD10C,0.05543*%
%ADD11C,0.15811*%
%ADD12C,0.01600*%
%ADD13OC8,0.04356*%
%ADD14C,0.01000*%
%ADD15C,0.04000*%
%ADD16C,0.04356*%
D10*
X0052634Y0032247D02*
X0052634Y0037790D01*
X0062634Y0037790D02*
X0062634Y0032247D01*
X0072634Y0032247D02*
X0072634Y0037790D01*
X0082634Y0037790D02*
X0082634Y0032247D01*
D11*
X0112634Y0020019D03*
X0112634Y0110019D03*
X0022634Y0110019D03*
X0022634Y0020019D03*
D12*
X0014406Y0014521D02*
X0012928Y0018088D01*
X0012928Y0021949D01*
X0014406Y0025516D01*
X0017136Y0028246D01*
X0020703Y0029724D01*
X0024564Y0029724D01*
X0028132Y0028246D01*
X0030862Y0025516D01*
X0032339Y0021949D01*
X0032339Y0018088D01*
X0030862Y0014521D01*
X0028132Y0011791D01*
X0024564Y0010313D01*
X0020703Y0010313D01*
X0017136Y0011791D01*
X0014406Y0014521D01*
X0014399Y0014057D02*
X0014870Y0014057D01*
X0014542Y0013809D02*
X0016424Y0011926D01*
X0018730Y0010595D01*
X0021302Y0009906D01*
X0022634Y0009818D01*
X0112634Y0009818D01*
X0113965Y0009906D01*
X0116537Y0010595D01*
X0118843Y0011926D01*
X0120726Y0013809D01*
X0122057Y0016115D01*
X0122747Y0018687D01*
X0122834Y0020018D01*
X0122834Y0120019D01*
X0122680Y0124144D01*
X0121450Y0132302D01*
X0119018Y0140185D01*
X0115438Y0147619D01*
X0110791Y0154435D01*
X0105179Y0160483D01*
X0098729Y0165627D01*
X0091584Y0169752D01*
X0083904Y0172766D01*
X0075861Y0174602D01*
X0072890Y0174825D01*
X0072890Y0146406D01*
X0019245Y0146406D01*
X0016250Y0140185D01*
X0013818Y0132302D01*
X0012588Y0124144D01*
X0012434Y0120019D01*
X0012434Y0020018D01*
X0012521Y0018687D01*
X0013210Y0016115D01*
X0014542Y0013809D01*
X0015893Y0012458D02*
X0016469Y0012458D01*
X0018272Y0010860D02*
X0019384Y0010860D01*
X0013936Y0015655D02*
X0013476Y0015655D01*
X0013274Y0017254D02*
X0012905Y0017254D01*
X0012928Y0018852D02*
X0012510Y0018852D01*
X0012434Y0020451D02*
X0012928Y0020451D01*
X0012970Y0022049D02*
X0012434Y0022049D01*
X0012434Y0023648D02*
X0013632Y0023648D01*
X0014294Y0025246D02*
X0012434Y0025246D01*
X0012434Y0026845D02*
X0015734Y0026845D01*
X0017611Y0028443D02*
X0012434Y0028443D01*
X0012434Y0030042D02*
X0041858Y0030042D01*
X0040259Y0031640D02*
X0012434Y0031640D01*
X0012434Y0033239D02*
X0038661Y0033239D01*
X0037062Y0034837D02*
X0012434Y0034837D01*
X0012434Y0036436D02*
X0035464Y0036436D01*
X0035431Y0036469D02*
X0034084Y0037816D01*
X0034084Y0052816D01*
X0027109Y0059791D01*
X0025593Y0059791D01*
X0024131Y0060396D01*
X0023012Y0061515D01*
X0022406Y0062977D01*
X0022406Y0064560D01*
X0023012Y0066022D01*
X0024131Y0067141D01*
X0025593Y0067746D01*
X0027175Y0067746D01*
X0028637Y0067141D01*
X0029756Y0066022D01*
X0030362Y0064560D01*
X0030362Y0063043D01*
X0037337Y0056068D01*
X0038684Y0054721D01*
X0038684Y0039721D01*
X0052337Y0026068D01*
X0076681Y0026068D01*
X0079514Y0028901D01*
X0078758Y0029657D01*
X0078062Y0031337D01*
X0078062Y0038700D01*
X0078758Y0040380D01*
X0080044Y0041666D01*
X0081725Y0042362D01*
X0083543Y0042362D01*
X0085223Y0041666D01*
X0086510Y0040380D01*
X0087206Y0038700D01*
X0087206Y0031337D01*
X0086510Y0029657D01*
X0085223Y0028371D01*
X0084934Y0028251D01*
X0084934Y0027816D01*
X0078587Y0021469D01*
X0050431Y0021469D01*
X0049084Y0022816D01*
X0035431Y0036469D01*
X0034084Y0038034D02*
X0012434Y0038034D01*
X0012434Y0039633D02*
X0034084Y0039633D01*
X0034084Y0041231D02*
X0012434Y0041231D01*
X0012434Y0042830D02*
X0034084Y0042830D01*
X0034084Y0044428D02*
X0012434Y0044428D01*
X0012434Y0046027D02*
X0034084Y0046027D01*
X0034084Y0047625D02*
X0012434Y0047625D01*
X0012434Y0049224D02*
X0034084Y0049224D01*
X0034084Y0050822D02*
X0012434Y0050822D01*
X0012434Y0052421D02*
X0034084Y0052421D01*
X0032880Y0054019D02*
X0012434Y0054019D01*
X0012434Y0055618D02*
X0031282Y0055618D01*
X0029683Y0057216D02*
X0012434Y0057216D01*
X0012434Y0058815D02*
X0028085Y0058815D01*
X0031393Y0062012D02*
X0055084Y0062012D01*
X0055084Y0061763D02*
X0055084Y0062973D01*
X0041144Y0076324D01*
X0040890Y0076219D01*
X0039378Y0076219D01*
X0037981Y0076797D01*
X0036912Y0077866D01*
X0036334Y0079263D01*
X0036334Y0080774D01*
X0036912Y0082171D01*
X0037981Y0083240D01*
X0039378Y0083818D01*
X0040176Y0083818D01*
X0041334Y0085308D01*
X0041334Y0138445D01*
X0040412Y0139366D01*
X0039834Y0140763D01*
X0039834Y0142274D01*
X0040412Y0143671D01*
X0041481Y0144740D01*
X0042878Y0145318D01*
X0044390Y0145318D01*
X0045786Y0144740D01*
X0046855Y0143671D01*
X0047434Y0142274D01*
X0047434Y0140763D01*
X0046855Y0139366D01*
X0045934Y0138445D01*
X0045934Y0084662D01*
X0046034Y0083858D01*
X0045934Y0083729D01*
X0045934Y0083566D01*
X0045361Y0082993D01*
X0043830Y0081025D01*
X0043934Y0080774D01*
X0043934Y0080022D01*
X0058241Y0066318D01*
X0059431Y0066318D01*
X0060334Y0067221D01*
X0061681Y0068568D01*
X0085431Y0068568D01*
X0086584Y0069721D01*
X0086584Y0085695D01*
X0085662Y0086616D01*
X0085084Y0088013D01*
X0085084Y0089524D01*
X0085662Y0090921D01*
X0086731Y0091990D01*
X0088128Y0092568D01*
X0089640Y0092568D01*
X0091036Y0091990D01*
X0092105Y0090921D01*
X0092684Y0089524D01*
X0092684Y0088013D01*
X0092105Y0086616D01*
X0091184Y0085695D01*
X0091184Y0070321D01*
X0095084Y0074221D01*
X0095084Y0096804D01*
X0067968Y0123469D01*
X0066628Y0123469D01*
X0065231Y0124047D01*
X0064162Y0125116D01*
X0063584Y0126513D01*
X0063584Y0128024D01*
X0064162Y0129421D01*
X0065231Y0130490D01*
X0066628Y0131068D01*
X0068140Y0131068D01*
X0069536Y0130490D01*
X0070605Y0129421D01*
X0071184Y0128024D01*
X0071184Y0126758D01*
X0098325Y0100068D01*
X0098337Y0100068D01*
X0099003Y0099402D01*
X0099676Y0098740D01*
X0099676Y0098729D01*
X0099684Y0098721D01*
X0099684Y0097778D01*
X0099692Y0096835D01*
X0099684Y0096827D01*
X0099684Y0072316D01*
X0088184Y0060816D01*
X0086837Y0059469D01*
X0070958Y0059469D01*
X0070036Y0058547D01*
X0068640Y0057969D01*
X0067128Y0057969D01*
X0065731Y0058547D01*
X0064662Y0059616D01*
X0064084Y0061013D01*
X0064084Y0062524D01*
X0064662Y0063921D01*
X0064710Y0063969D01*
X0063587Y0063969D01*
X0062684Y0063066D01*
X0062684Y0061763D01*
X0062105Y0060366D01*
X0061036Y0059297D01*
X0059640Y0058719D01*
X0058128Y0058719D01*
X0056731Y0059297D01*
X0055662Y0060366D01*
X0055084Y0061763D01*
X0055643Y0060413D02*
X0032992Y0060413D01*
X0034590Y0058815D02*
X0057895Y0058815D01*
X0059872Y0058815D02*
X0065463Y0058815D01*
X0064332Y0060413D02*
X0062125Y0060413D01*
X0062684Y0062012D02*
X0064084Y0062012D01*
X0064534Y0063610D02*
X0063228Y0063610D01*
X0059920Y0066807D02*
X0057731Y0066807D01*
X0056062Y0068406D02*
X0061519Y0068406D01*
X0061894Y0073250D02*
X0059201Y0073250D01*
X0056713Y0074280D01*
X0054809Y0076184D01*
X0053779Y0078672D01*
X0053779Y0081365D01*
X0054809Y0083853D01*
X0056713Y0085757D01*
X0059201Y0086787D01*
X0061894Y0086787D01*
X0064381Y0085757D01*
X0066285Y0083853D01*
X0067316Y0081365D01*
X0067316Y0078672D01*
X0066285Y0076184D01*
X0064381Y0074280D01*
X0061894Y0073250D01*
X0064901Y0074800D02*
X0070367Y0074800D01*
X0070886Y0074280D02*
X0068982Y0076184D01*
X0067952Y0078672D01*
X0067952Y0081365D01*
X0068982Y0083853D01*
X0070886Y0085757D01*
X0073374Y0086787D01*
X0076067Y0086787D01*
X0078555Y0085757D01*
X0080459Y0083853D01*
X0081489Y0081365D01*
X0081489Y0078672D01*
X0080459Y0076184D01*
X0078555Y0074280D01*
X0076067Y0073250D01*
X0073374Y0073250D01*
X0070886Y0074280D01*
X0068894Y0076399D02*
X0066374Y0076399D01*
X0067036Y0077997D02*
X0068232Y0077997D01*
X0067952Y0079596D02*
X0067316Y0079596D01*
X0067316Y0081194D02*
X0067952Y0081194D01*
X0068543Y0082793D02*
X0066724Y0082793D01*
X0065747Y0084391D02*
X0069521Y0084391D01*
X0071449Y0085990D02*
X0063819Y0085990D01*
X0057276Y0085990D02*
X0045934Y0085990D01*
X0045934Y0087588D02*
X0085260Y0087588D01*
X0085084Y0089187D02*
X0045934Y0089187D01*
X0045934Y0090785D02*
X0085606Y0090785D01*
X0087682Y0092384D02*
X0045934Y0092384D01*
X0045934Y0093982D02*
X0095084Y0093982D01*
X0095084Y0092384D02*
X0090086Y0092384D01*
X0092162Y0090785D02*
X0095084Y0090785D01*
X0095084Y0089187D02*
X0092684Y0089187D01*
X0092508Y0087588D02*
X0095084Y0087588D01*
X0095084Y0085990D02*
X0091479Y0085990D01*
X0091184Y0084391D02*
X0095084Y0084391D01*
X0095084Y0082793D02*
X0091184Y0082793D01*
X0091184Y0081194D02*
X0095084Y0081194D01*
X0095084Y0079596D02*
X0091184Y0079596D01*
X0091184Y0077997D02*
X0095084Y0077997D01*
X0095084Y0076399D02*
X0091184Y0076399D01*
X0091184Y0074800D02*
X0095084Y0074800D01*
X0094064Y0073202D02*
X0091184Y0073202D01*
X0091184Y0071603D02*
X0092466Y0071603D01*
X0095774Y0068406D02*
X0122834Y0068406D01*
X0122834Y0070004D02*
X0097373Y0070004D01*
X0098971Y0071603D02*
X0122834Y0071603D01*
X0122834Y0073202D02*
X0099684Y0073202D01*
X0099684Y0074800D02*
X0122834Y0074800D01*
X0122834Y0076399D02*
X0099684Y0076399D01*
X0099684Y0077997D02*
X0122834Y0077997D01*
X0122834Y0079596D02*
X0099684Y0079596D01*
X0099684Y0081194D02*
X0122834Y0081194D01*
X0122834Y0082793D02*
X0099684Y0082793D01*
X0099684Y0084391D02*
X0122834Y0084391D01*
X0122834Y0085990D02*
X0099684Y0085990D01*
X0099684Y0087588D02*
X0122834Y0087588D01*
X0122834Y0089187D02*
X0099684Y0089187D01*
X0099684Y0090785D02*
X0122834Y0090785D01*
X0122834Y0092384D02*
X0099684Y0092384D01*
X0099684Y0093982D02*
X0122834Y0093982D01*
X0122834Y0095581D02*
X0099684Y0095581D01*
X0099689Y0097179D02*
X0122834Y0097179D01*
X0122834Y0098778D02*
X0099638Y0098778D01*
X0098012Y0100376D02*
X0110551Y0100376D01*
X0110703Y0100313D02*
X0107136Y0101791D01*
X0104406Y0104521D01*
X0102928Y0108088D01*
X0102928Y0111949D01*
X0104406Y0115516D01*
X0107136Y0118246D01*
X0110703Y0119724D01*
X0114564Y0119724D01*
X0118132Y0118246D01*
X0120862Y0115516D01*
X0122339Y0111949D01*
X0122339Y0108088D01*
X0120862Y0104521D01*
X0118132Y0101791D01*
X0114564Y0100313D01*
X0110703Y0100313D01*
X0114717Y0100376D02*
X0122834Y0100376D01*
X0122834Y0101975D02*
X0118316Y0101975D01*
X0119914Y0103573D02*
X0122834Y0103573D01*
X0122834Y0105172D02*
X0121131Y0105172D01*
X0121794Y0106770D02*
X0122834Y0106770D01*
X0122834Y0108369D02*
X0122339Y0108369D01*
X0122339Y0109967D02*
X0122834Y0109967D01*
X0122834Y0111566D02*
X0122339Y0111566D01*
X0122834Y0113164D02*
X0121836Y0113164D01*
X0121174Y0114763D02*
X0122834Y0114763D01*
X0122834Y0116361D02*
X0120017Y0116361D01*
X0118418Y0117960D02*
X0122834Y0117960D01*
X0122834Y0119558D02*
X0114964Y0119558D01*
X0110303Y0119558D02*
X0101684Y0119558D01*
X0101684Y0119013D02*
X0101105Y0117616D01*
X0100036Y0116547D01*
X0098640Y0115969D01*
X0097128Y0115969D01*
X0095731Y0116547D01*
X0094662Y0117616D01*
X0094084Y0119013D01*
X0094084Y0120316D01*
X0090431Y0123969D01*
X0089128Y0123969D01*
X0087731Y0124547D01*
X0086662Y0125616D01*
X0086084Y0127013D01*
X0086084Y0128524D01*
X0086662Y0129921D01*
X0087584Y0130843D01*
X0087584Y0134694D01*
X0086662Y0135616D01*
X0086084Y0137013D01*
X0086084Y0138524D01*
X0086662Y0139921D01*
X0087510Y0140769D01*
X0086810Y0141469D01*
X0073724Y0141469D01*
X0068184Y0134697D01*
X0068184Y0134566D01*
X0067591Y0133973D01*
X0067061Y0133325D01*
X0066930Y0133312D01*
X0066837Y0133219D01*
X0065999Y0133219D01*
X0065165Y0133135D01*
X0065063Y0133219D01*
X0064458Y0133219D01*
X0063536Y0132297D01*
X0062140Y0131719D01*
X0060628Y0131719D01*
X0059231Y0132297D01*
X0058162Y0133366D01*
X0057584Y0134763D01*
X0057584Y0136274D01*
X0058162Y0137671D01*
X0059231Y0138740D01*
X0060628Y0139318D01*
X0062140Y0139318D01*
X0063536Y0138740D01*
X0064458Y0137818D01*
X0064794Y0137818D01*
X0070334Y0144590D01*
X0070334Y0144721D01*
X0070926Y0145314D01*
X0071457Y0145962D01*
X0071588Y0145975D01*
X0071681Y0146068D01*
X0072519Y0146068D01*
X0073353Y0146152D01*
X0073455Y0146068D01*
X0086810Y0146068D01*
X0087731Y0146990D01*
X0089128Y0147568D01*
X0090640Y0147568D01*
X0092036Y0146990D01*
X0093105Y0145921D01*
X0093684Y0144524D01*
X0093684Y0143013D01*
X0093105Y0141616D01*
X0092258Y0140769D01*
X0093105Y0139921D01*
X0093684Y0138524D01*
X0093684Y0137013D01*
X0093105Y0135616D01*
X0092184Y0134694D01*
X0092184Y0130843D01*
X0093105Y0129921D01*
X0093684Y0128524D01*
X0093684Y0127221D01*
X0097337Y0123568D01*
X0098640Y0123568D01*
X0100036Y0122990D01*
X0101105Y0121921D01*
X0101684Y0120524D01*
X0101684Y0119013D01*
X0101248Y0117960D02*
X0106850Y0117960D01*
X0105251Y0116361D02*
X0099588Y0116361D01*
X0096180Y0116361D02*
X0081756Y0116361D01*
X0083382Y0114763D02*
X0104094Y0114763D01*
X0103432Y0113164D02*
X0085007Y0113164D01*
X0086633Y0111566D02*
X0102928Y0111566D01*
X0102928Y0109967D02*
X0088259Y0109967D01*
X0089884Y0108369D02*
X0102928Y0108369D01*
X0103474Y0106770D02*
X0091510Y0106770D01*
X0093135Y0105172D02*
X0104136Y0105172D01*
X0105353Y0103573D02*
X0094761Y0103573D01*
X0096387Y0101975D02*
X0106952Y0101975D01*
X0095084Y0095581D02*
X0045934Y0095581D01*
X0045934Y0097179D02*
X0094703Y0097179D01*
X0093077Y0098778D02*
X0045934Y0098778D01*
X0045934Y0100376D02*
X0091452Y0100376D01*
X0089826Y0101975D02*
X0045934Y0101975D01*
X0045934Y0103573D02*
X0088200Y0103573D01*
X0086575Y0105172D02*
X0045934Y0105172D01*
X0045934Y0106770D02*
X0084949Y0106770D01*
X0083324Y0108369D02*
X0045934Y0108369D01*
X0045934Y0109967D02*
X0081698Y0109967D01*
X0080072Y0111566D02*
X0045934Y0111566D01*
X0045934Y0113164D02*
X0078447Y0113164D01*
X0076821Y0114763D02*
X0045934Y0114763D01*
X0045934Y0116361D02*
X0075196Y0116361D01*
X0073570Y0117960D02*
X0045934Y0117960D01*
X0045934Y0119558D02*
X0071944Y0119558D01*
X0070319Y0121157D02*
X0045934Y0121157D01*
X0045934Y0122755D02*
X0068693Y0122755D01*
X0072003Y0125952D02*
X0086523Y0125952D01*
X0086084Y0127551D02*
X0071184Y0127551D01*
X0070718Y0129149D02*
X0086343Y0129149D01*
X0087489Y0130748D02*
X0068914Y0130748D01*
X0065854Y0130748D02*
X0045934Y0130748D01*
X0045934Y0132346D02*
X0059182Y0132346D01*
X0057923Y0133945D02*
X0045934Y0133945D01*
X0045934Y0135543D02*
X0057584Y0135543D01*
X0057943Y0137142D02*
X0045934Y0137142D01*
X0046230Y0138740D02*
X0059233Y0138740D01*
X0063535Y0138740D02*
X0065548Y0138740D01*
X0066856Y0140339D02*
X0047258Y0140339D01*
X0047434Y0141938D02*
X0068164Y0141938D01*
X0069472Y0143536D02*
X0046911Y0143536D01*
X0044834Y0145135D02*
X0070747Y0145135D01*
X0072890Y0146733D02*
X0087474Y0146733D01*
X0087080Y0140339D02*
X0072800Y0140339D01*
X0071492Y0138740D02*
X0086173Y0138740D01*
X0086084Y0137142D02*
X0070184Y0137142D01*
X0068876Y0135543D02*
X0086735Y0135543D01*
X0087584Y0133945D02*
X0067568Y0133945D01*
X0063586Y0132346D02*
X0087584Y0132346D01*
X0092184Y0132346D02*
X0121436Y0132346D01*
X0121684Y0130748D02*
X0092278Y0130748D01*
X0093425Y0129149D02*
X0121925Y0129149D01*
X0122166Y0127551D02*
X0093684Y0127551D01*
X0094953Y0125952D02*
X0122407Y0125952D01*
X0122648Y0124354D02*
X0096551Y0124354D01*
X0094084Y0119558D02*
X0078505Y0119558D01*
X0080131Y0117960D02*
X0094520Y0117960D01*
X0093243Y0121157D02*
X0076879Y0121157D01*
X0075254Y0122755D02*
X0091644Y0122755D01*
X0088198Y0124354D02*
X0073628Y0124354D01*
X0064924Y0124354D02*
X0045934Y0124354D01*
X0045934Y0125952D02*
X0063816Y0125952D01*
X0063584Y0127551D02*
X0045934Y0127551D01*
X0045934Y0129149D02*
X0064050Y0129149D01*
X0072890Y0148332D02*
X0114952Y0148332D01*
X0115865Y0146733D02*
X0092293Y0146733D01*
X0093431Y0145135D02*
X0116635Y0145135D01*
X0117405Y0143536D02*
X0093684Y0143536D01*
X0093239Y0141938D02*
X0118174Y0141938D01*
X0118944Y0140339D02*
X0092687Y0140339D01*
X0093594Y0138740D02*
X0119464Y0138740D01*
X0119957Y0137142D02*
X0093684Y0137142D01*
X0093033Y0135543D02*
X0120450Y0135543D01*
X0120943Y0133945D02*
X0092184Y0133945D01*
X0100271Y0122755D02*
X0122731Y0122755D01*
X0122791Y0121157D02*
X0101422Y0121157D01*
X0113862Y0149930D02*
X0072890Y0149930D01*
X0072890Y0151529D02*
X0112773Y0151529D01*
X0111683Y0153127D02*
X0072890Y0153127D01*
X0072890Y0154726D02*
X0110521Y0154726D01*
X0109038Y0156324D02*
X0072890Y0156324D01*
X0072890Y0157923D02*
X0107555Y0157923D01*
X0106072Y0159521D02*
X0072890Y0159521D01*
X0072890Y0161120D02*
X0104381Y0161120D01*
X0102377Y0162718D02*
X0072890Y0162718D01*
X0072890Y0164317D02*
X0100372Y0164317D01*
X0098230Y0165915D02*
X0072890Y0165915D01*
X0072890Y0167514D02*
X0095461Y0167514D01*
X0092692Y0169112D02*
X0072890Y0169112D01*
X0072890Y0170711D02*
X0089141Y0170711D01*
X0085069Y0172309D02*
X0072890Y0172309D01*
X0072890Y0173908D02*
X0078903Y0173908D01*
X0042434Y0145135D02*
X0018633Y0145135D01*
X0017863Y0143536D02*
X0040356Y0143536D01*
X0039834Y0141938D02*
X0017093Y0141938D01*
X0016324Y0140339D02*
X0040009Y0140339D01*
X0041038Y0138740D02*
X0015804Y0138740D01*
X0015311Y0137142D02*
X0041334Y0137142D01*
X0041334Y0135543D02*
X0014818Y0135543D01*
X0014325Y0133945D02*
X0041334Y0133945D01*
X0041334Y0132346D02*
X0013832Y0132346D01*
X0013584Y0130748D02*
X0041334Y0130748D01*
X0041334Y0129149D02*
X0013343Y0129149D01*
X0013102Y0127551D02*
X0041334Y0127551D01*
X0041334Y0125952D02*
X0012861Y0125952D01*
X0012620Y0124354D02*
X0041334Y0124354D01*
X0041334Y0122755D02*
X0012536Y0122755D01*
X0012476Y0121157D02*
X0041334Y0121157D01*
X0041334Y0119558D02*
X0024964Y0119558D01*
X0024564Y0119724D02*
X0028132Y0118246D01*
X0030862Y0115516D01*
X0032339Y0111949D01*
X0032339Y0108088D01*
X0030862Y0104521D01*
X0028132Y0101791D01*
X0024564Y0100313D01*
X0020703Y0100313D01*
X0017136Y0101791D01*
X0014406Y0104521D01*
X0012928Y0108088D01*
X0012928Y0111949D01*
X0014406Y0115516D01*
X0017136Y0118246D01*
X0020703Y0119724D01*
X0024564Y0119724D01*
X0028418Y0117960D02*
X0041334Y0117960D01*
X0041334Y0116361D02*
X0030017Y0116361D01*
X0031174Y0114763D02*
X0041334Y0114763D01*
X0041334Y0113164D02*
X0031836Y0113164D01*
X0032339Y0111566D02*
X0041334Y0111566D01*
X0041334Y0109967D02*
X0032339Y0109967D01*
X0032339Y0108369D02*
X0041334Y0108369D01*
X0041334Y0106770D02*
X0031794Y0106770D01*
X0031131Y0105172D02*
X0041334Y0105172D01*
X0041334Y0103573D02*
X0029914Y0103573D01*
X0028316Y0101975D02*
X0041334Y0101975D01*
X0041334Y0100376D02*
X0024717Y0100376D01*
X0020551Y0100376D02*
X0012434Y0100376D01*
X0012434Y0098778D02*
X0041334Y0098778D01*
X0041334Y0097179D02*
X0012434Y0097179D01*
X0012434Y0095581D02*
X0041334Y0095581D01*
X0041334Y0093982D02*
X0012434Y0093982D01*
X0012434Y0092384D02*
X0041334Y0092384D01*
X0041334Y0090785D02*
X0012434Y0090785D01*
X0012434Y0089187D02*
X0041334Y0089187D01*
X0041334Y0087588D02*
X0012434Y0087588D01*
X0012434Y0085990D02*
X0041334Y0085990D01*
X0040621Y0084391D02*
X0012434Y0084391D01*
X0012434Y0082793D02*
X0037534Y0082793D01*
X0036508Y0081194D02*
X0012434Y0081194D01*
X0012434Y0079596D02*
X0036334Y0079596D01*
X0036858Y0077997D02*
X0012434Y0077997D01*
X0012434Y0076399D02*
X0038943Y0076399D01*
X0042735Y0074800D02*
X0012434Y0074800D01*
X0012434Y0073202D02*
X0044404Y0073202D01*
X0046073Y0071603D02*
X0012434Y0071603D01*
X0012434Y0070004D02*
X0047742Y0070004D01*
X0049411Y0068406D02*
X0012434Y0068406D01*
X0012434Y0066807D02*
X0023797Y0066807D01*
X0022675Y0065209D02*
X0012434Y0065209D01*
X0012434Y0063610D02*
X0022406Y0063610D01*
X0022806Y0062012D02*
X0012434Y0062012D01*
X0012434Y0060413D02*
X0024113Y0060413D01*
X0030093Y0065209D02*
X0052750Y0065209D01*
X0054419Y0063610D02*
X0030362Y0063610D01*
X0028971Y0066807D02*
X0051080Y0066807D01*
X0052724Y0071603D02*
X0086584Y0071603D01*
X0086584Y0070004D02*
X0054393Y0070004D01*
X0056194Y0074800D02*
X0049386Y0074800D01*
X0051055Y0073202D02*
X0086584Y0073202D01*
X0086584Y0074800D02*
X0079074Y0074800D01*
X0080547Y0076399D02*
X0086584Y0076399D01*
X0086584Y0077997D02*
X0081209Y0077997D01*
X0081489Y0079596D02*
X0086584Y0079596D01*
X0086584Y0081194D02*
X0081489Y0081194D01*
X0080898Y0082793D02*
X0086584Y0082793D01*
X0086584Y0084391D02*
X0079920Y0084391D01*
X0077992Y0085990D02*
X0086289Y0085990D01*
X0094176Y0066807D02*
X0122834Y0066807D01*
X0122834Y0065209D02*
X0092577Y0065209D01*
X0090978Y0063610D02*
X0122834Y0063610D01*
X0122834Y0062012D02*
X0089380Y0062012D01*
X0087781Y0060413D02*
X0122834Y0060413D01*
X0122834Y0058815D02*
X0070304Y0058815D01*
X0071725Y0042362D02*
X0073543Y0042362D01*
X0075223Y0041666D01*
X0076510Y0040380D01*
X0077206Y0038700D01*
X0077206Y0031337D01*
X0076510Y0029657D01*
X0075223Y0028371D01*
X0073543Y0027675D01*
X0071725Y0027675D01*
X0070044Y0028371D01*
X0068758Y0029657D01*
X0068062Y0031337D01*
X0068062Y0038700D01*
X0068758Y0040380D01*
X0070044Y0041666D01*
X0071725Y0042362D01*
X0069610Y0041231D02*
X0065658Y0041231D01*
X0065223Y0041666D02*
X0066510Y0040380D01*
X0067206Y0038700D01*
X0067206Y0031337D01*
X0066510Y0029657D01*
X0065223Y0028371D01*
X0063543Y0027675D01*
X0061725Y0027675D01*
X0060044Y0028371D01*
X0058758Y0029657D01*
X0058062Y0031337D01*
X0058062Y0038700D01*
X0058758Y0040380D01*
X0060044Y0041666D01*
X0061725Y0042362D01*
X0063543Y0042362D01*
X0065223Y0041666D01*
X0066819Y0039633D02*
X0068449Y0039633D01*
X0068062Y0038034D02*
X0067206Y0038034D01*
X0067206Y0036436D02*
X0068062Y0036436D01*
X0068062Y0034837D02*
X0067206Y0034837D01*
X0067206Y0033239D02*
X0068062Y0033239D01*
X0068062Y0031640D02*
X0067206Y0031640D01*
X0066669Y0030042D02*
X0068599Y0030042D01*
X0069972Y0028443D02*
X0065296Y0028443D01*
X0059972Y0028443D02*
X0055176Y0028443D01*
X0055030Y0028337D02*
X0054389Y0028010D01*
X0053704Y0027788D01*
X0052994Y0027675D01*
X0052720Y0027675D01*
X0052720Y0034933D01*
X0057206Y0034933D01*
X0057206Y0031887D01*
X0057093Y0031176D01*
X0056871Y0030492D01*
X0056544Y0029851D01*
X0056121Y0029269D01*
X0055612Y0028760D01*
X0055030Y0028337D01*
X0052720Y0028443D02*
X0052548Y0028443D01*
X0052548Y0027675D02*
X0052274Y0027675D01*
X0051563Y0027788D01*
X0050879Y0028010D01*
X0050238Y0028337D01*
X0049656Y0028760D01*
X0049147Y0029269D01*
X0048724Y0029851D01*
X0048397Y0030492D01*
X0048175Y0031176D01*
X0048062Y0031887D01*
X0048062Y0034933D01*
X0052548Y0034933D01*
X0052548Y0035104D01*
X0048062Y0035104D01*
X0048062Y0038150D01*
X0048175Y0038861D01*
X0048397Y0039545D01*
X0048724Y0040186D01*
X0049147Y0040768D01*
X0049656Y0041277D01*
X0050238Y0041700D01*
X0050879Y0042027D01*
X0051563Y0042249D01*
X0052274Y0042362D01*
X0052548Y0042362D01*
X0052548Y0035104D01*
X0052720Y0035104D01*
X0052720Y0034933D01*
X0052548Y0034933D01*
X0052548Y0027675D01*
X0051560Y0026845D02*
X0077457Y0026845D01*
X0079056Y0028443D02*
X0075296Y0028443D01*
X0076669Y0030042D02*
X0078599Y0030042D01*
X0078062Y0031640D02*
X0077206Y0031640D01*
X0077206Y0033239D02*
X0078062Y0033239D01*
X0078062Y0034837D02*
X0077206Y0034837D01*
X0077206Y0036436D02*
X0078062Y0036436D01*
X0078062Y0038034D02*
X0077206Y0038034D01*
X0076819Y0039633D02*
X0078449Y0039633D01*
X0079610Y0041231D02*
X0075658Y0041231D01*
X0085296Y0028443D02*
X0107611Y0028443D01*
X0107136Y0028246D02*
X0110703Y0029724D01*
X0114564Y0029724D01*
X0118132Y0028246D01*
X0120862Y0025516D01*
X0122339Y0021949D01*
X0122339Y0018088D01*
X0120862Y0014521D01*
X0118132Y0011791D01*
X0114564Y0010313D01*
X0110703Y0010313D01*
X0107136Y0011791D01*
X0104406Y0014521D01*
X0102928Y0018088D01*
X0102928Y0021949D01*
X0104406Y0025516D01*
X0107136Y0028246D01*
X0105734Y0026845D02*
X0083963Y0026845D01*
X0082364Y0025246D02*
X0104294Y0025246D01*
X0103632Y0023648D02*
X0080766Y0023648D01*
X0079167Y0022049D02*
X0102970Y0022049D01*
X0102928Y0020451D02*
X0032339Y0020451D01*
X0032298Y0022049D02*
X0049851Y0022049D01*
X0048252Y0023648D02*
X0031636Y0023648D01*
X0030974Y0025246D02*
X0046654Y0025246D01*
X0045055Y0026845D02*
X0029533Y0026845D01*
X0027657Y0028443D02*
X0043456Y0028443D01*
X0046765Y0031640D02*
X0048101Y0031640D01*
X0048062Y0033239D02*
X0045166Y0033239D01*
X0043568Y0034837D02*
X0048062Y0034837D01*
X0048062Y0036436D02*
X0041969Y0036436D01*
X0040371Y0038034D02*
X0048062Y0038034D01*
X0048442Y0039633D02*
X0038772Y0039633D01*
X0038684Y0041231D02*
X0049610Y0041231D01*
X0052548Y0041231D02*
X0052720Y0041231D01*
X0052720Y0042362D02*
X0052994Y0042362D01*
X0053704Y0042249D01*
X0054389Y0042027D01*
X0055030Y0041700D01*
X0055612Y0041277D01*
X0056121Y0040768D01*
X0056544Y0040186D01*
X0056871Y0039545D01*
X0057093Y0038861D01*
X0057206Y0038150D01*
X0057206Y0035104D01*
X0052720Y0035104D01*
X0052720Y0042362D01*
X0052720Y0039633D02*
X0052548Y0039633D01*
X0052548Y0038034D02*
X0052720Y0038034D01*
X0052720Y0036436D02*
X0052548Y0036436D01*
X0052548Y0034837D02*
X0052720Y0034837D01*
X0052720Y0033239D02*
X0052548Y0033239D01*
X0052548Y0031640D02*
X0052720Y0031640D01*
X0052720Y0030042D02*
X0052548Y0030042D01*
X0050091Y0028443D02*
X0049962Y0028443D01*
X0048627Y0030042D02*
X0048363Y0030042D01*
X0055658Y0041231D02*
X0059610Y0041231D01*
X0058449Y0039633D02*
X0056826Y0039633D01*
X0057206Y0038034D02*
X0058062Y0038034D01*
X0058062Y0036436D02*
X0057206Y0036436D01*
X0057206Y0034837D02*
X0058062Y0034837D01*
X0058062Y0033239D02*
X0057206Y0033239D01*
X0057166Y0031640D02*
X0058062Y0031640D01*
X0058599Y0030042D02*
X0056641Y0030042D01*
X0038684Y0042830D02*
X0122834Y0042830D01*
X0122834Y0044428D02*
X0038684Y0044428D01*
X0038684Y0046027D02*
X0122834Y0046027D01*
X0122834Y0047625D02*
X0038684Y0047625D01*
X0038684Y0049224D02*
X0122834Y0049224D01*
X0122834Y0050822D02*
X0038684Y0050822D01*
X0038684Y0052421D02*
X0122834Y0052421D01*
X0122834Y0054019D02*
X0038684Y0054019D01*
X0037787Y0055618D02*
X0122834Y0055618D01*
X0122834Y0057216D02*
X0036189Y0057216D01*
X0047717Y0076399D02*
X0054721Y0076399D01*
X0054058Y0077997D02*
X0046048Y0077997D01*
X0044379Y0079596D02*
X0053779Y0079596D01*
X0053779Y0081194D02*
X0043962Y0081194D01*
X0045205Y0082793D02*
X0054370Y0082793D01*
X0055348Y0084391D02*
X0045968Y0084391D01*
X0020303Y0119558D02*
X0012434Y0119558D01*
X0012434Y0117960D02*
X0016850Y0117960D01*
X0015251Y0116361D02*
X0012434Y0116361D01*
X0012434Y0114763D02*
X0014094Y0114763D01*
X0013432Y0113164D02*
X0012434Y0113164D01*
X0012434Y0111566D02*
X0012928Y0111566D01*
X0012928Y0109967D02*
X0012434Y0109967D01*
X0012434Y0108369D02*
X0012928Y0108369D01*
X0012434Y0106770D02*
X0013474Y0106770D01*
X0014136Y0105172D02*
X0012434Y0105172D01*
X0012434Y0103573D02*
X0015353Y0103573D01*
X0016952Y0101975D02*
X0012434Y0101975D01*
X0032339Y0018852D02*
X0102928Y0018852D01*
X0103274Y0017254D02*
X0031994Y0017254D01*
X0031332Y0015655D02*
X0103936Y0015655D01*
X0104870Y0014057D02*
X0030398Y0014057D01*
X0028799Y0012458D02*
X0106469Y0012458D01*
X0109384Y0010860D02*
X0025884Y0010860D01*
X0086669Y0030042D02*
X0122834Y0030042D01*
X0122834Y0031640D02*
X0087206Y0031640D01*
X0087206Y0033239D02*
X0122834Y0033239D01*
X0122834Y0034837D02*
X0087206Y0034837D01*
X0087206Y0036436D02*
X0122834Y0036436D01*
X0122834Y0038034D02*
X0087206Y0038034D01*
X0086819Y0039633D02*
X0122834Y0039633D01*
X0122834Y0041231D02*
X0085658Y0041231D01*
X0115884Y0010860D02*
X0116996Y0010860D01*
X0118799Y0012458D02*
X0119375Y0012458D01*
X0120398Y0014057D02*
X0120869Y0014057D01*
X0121332Y0015655D02*
X0121792Y0015655D01*
X0121994Y0017254D02*
X0122362Y0017254D01*
X0122339Y0018852D02*
X0122757Y0018852D01*
X0122834Y0020451D02*
X0122339Y0020451D01*
X0122298Y0022049D02*
X0122834Y0022049D01*
X0122834Y0023648D02*
X0121636Y0023648D01*
X0120974Y0025246D02*
X0122834Y0025246D01*
X0122834Y0026845D02*
X0119533Y0026845D01*
X0117657Y0028443D02*
X0122834Y0028443D01*
D13*
X0103884Y0065019D03*
X0115134Y0070019D03*
X0103884Y0102519D03*
X0082634Y0070019D03*
X0050134Y0100019D03*
X0023884Y0132519D03*
D14*
X0043634Y0141519D02*
X0043634Y0084519D01*
X0040134Y0080019D01*
X0041134Y0079519D01*
X0058884Y0062519D01*
X0062634Y0066269D01*
X0086384Y0066269D01*
X0088884Y0068769D01*
X0088884Y0088769D01*
X0097384Y0097769D02*
X0097384Y0073269D01*
X0085884Y0061769D01*
X0067884Y0061769D01*
X0082634Y0035019D02*
X0082634Y0028769D01*
X0077634Y0023769D01*
X0051384Y0023769D01*
X0036384Y0038769D01*
X0036384Y0053769D01*
X0026384Y0063769D01*
X0067384Y0127269D02*
X0097384Y0097769D01*
X0097884Y0119769D02*
X0089884Y0127769D01*
X0089884Y0137769D01*
X0089884Y0143769D02*
X0072634Y0143769D01*
X0065884Y0135519D01*
X0061384Y0135519D01*
D15*
X0061384Y0135519D03*
X0067384Y0127269D03*
X0089884Y0127769D03*
X0089884Y0137769D03*
X0089884Y0143769D03*
X0097884Y0119769D03*
X0088884Y0088769D03*
X0067884Y0061769D03*
X0058884Y0062519D03*
X0040134Y0080019D03*
X0043634Y0141519D03*
D16*
X0026384Y0063769D03*
M02*
