G75*
%MOIN*%
%OFA0B0*%
%FSLAX25Y25*%
%IPPOS*%
%LPD*%
%AMOC8*
5,1,8,0,0,1.08239X$1,22.5*
%
%ADD10R,0.03150X0.03543*%
%ADD11R,0.02500X0.08000*%
%ADD12C,0.00000*%
%ADD13R,0.06102X0.04724*%
%ADD14C,0.01378*%
%ADD15C,0.05543*%
%ADD16C,0.15811*%
%ADD17R,0.02165X0.04724*%
%ADD18R,0.03150X0.03150*%
%ADD19C,0.01600*%
%ADD20OC8,0.04356*%
%ADD21C,0.01000*%
%ADD22C,0.04000*%
%ADD23C,0.04356*%
D10*
X0052715Y0052331D03*
X0060196Y0052331D03*
X0056456Y0060599D03*
D11*
X0054507Y0072341D03*
X0059231Y0072341D03*
X0063956Y0072341D03*
X0068680Y0072538D03*
X0073404Y0072538D03*
X0073404Y0087893D03*
X0068680Y0087893D03*
X0063956Y0087893D03*
X0059231Y0087893D03*
X0054704Y0087893D03*
D12*
X0054900Y0080019D02*
X0054902Y0080107D01*
X0054908Y0080195D01*
X0054918Y0080283D01*
X0054932Y0080371D01*
X0054949Y0080457D01*
X0054971Y0080543D01*
X0054996Y0080627D01*
X0055026Y0080711D01*
X0055058Y0080793D01*
X0055095Y0080873D01*
X0055135Y0080952D01*
X0055179Y0081029D01*
X0055226Y0081104D01*
X0055276Y0081176D01*
X0055330Y0081247D01*
X0055386Y0081314D01*
X0055446Y0081380D01*
X0055508Y0081442D01*
X0055574Y0081502D01*
X0055641Y0081558D01*
X0055712Y0081612D01*
X0055784Y0081662D01*
X0055859Y0081709D01*
X0055936Y0081753D01*
X0056015Y0081793D01*
X0056095Y0081830D01*
X0056177Y0081862D01*
X0056261Y0081892D01*
X0056345Y0081917D01*
X0056431Y0081939D01*
X0056517Y0081956D01*
X0056605Y0081970D01*
X0056693Y0081980D01*
X0056781Y0081986D01*
X0056869Y0081988D01*
X0056957Y0081986D01*
X0057045Y0081980D01*
X0057133Y0081970D01*
X0057221Y0081956D01*
X0057307Y0081939D01*
X0057393Y0081917D01*
X0057477Y0081892D01*
X0057561Y0081862D01*
X0057643Y0081830D01*
X0057723Y0081793D01*
X0057802Y0081753D01*
X0057879Y0081709D01*
X0057954Y0081662D01*
X0058026Y0081612D01*
X0058097Y0081558D01*
X0058164Y0081502D01*
X0058230Y0081442D01*
X0058292Y0081380D01*
X0058352Y0081314D01*
X0058408Y0081247D01*
X0058462Y0081176D01*
X0058512Y0081104D01*
X0058559Y0081029D01*
X0058603Y0080952D01*
X0058643Y0080873D01*
X0058680Y0080793D01*
X0058712Y0080711D01*
X0058742Y0080627D01*
X0058767Y0080543D01*
X0058789Y0080457D01*
X0058806Y0080371D01*
X0058820Y0080283D01*
X0058830Y0080195D01*
X0058836Y0080107D01*
X0058838Y0080019D01*
X0058836Y0079931D01*
X0058830Y0079843D01*
X0058820Y0079755D01*
X0058806Y0079667D01*
X0058789Y0079581D01*
X0058767Y0079495D01*
X0058742Y0079411D01*
X0058712Y0079327D01*
X0058680Y0079245D01*
X0058643Y0079165D01*
X0058603Y0079086D01*
X0058559Y0079009D01*
X0058512Y0078934D01*
X0058462Y0078862D01*
X0058408Y0078791D01*
X0058352Y0078724D01*
X0058292Y0078658D01*
X0058230Y0078596D01*
X0058164Y0078536D01*
X0058097Y0078480D01*
X0058026Y0078426D01*
X0057954Y0078376D01*
X0057879Y0078329D01*
X0057802Y0078285D01*
X0057723Y0078245D01*
X0057643Y0078208D01*
X0057561Y0078176D01*
X0057477Y0078146D01*
X0057393Y0078121D01*
X0057307Y0078099D01*
X0057221Y0078082D01*
X0057133Y0078068D01*
X0057045Y0078058D01*
X0056957Y0078052D01*
X0056869Y0078050D01*
X0056781Y0078052D01*
X0056693Y0078058D01*
X0056605Y0078068D01*
X0056517Y0078082D01*
X0056431Y0078099D01*
X0056345Y0078121D01*
X0056261Y0078146D01*
X0056177Y0078176D01*
X0056095Y0078208D01*
X0056015Y0078245D01*
X0055936Y0078285D01*
X0055859Y0078329D01*
X0055784Y0078376D01*
X0055712Y0078426D01*
X0055641Y0078480D01*
X0055574Y0078536D01*
X0055508Y0078596D01*
X0055446Y0078658D01*
X0055386Y0078724D01*
X0055330Y0078791D01*
X0055276Y0078862D01*
X0055226Y0078934D01*
X0055179Y0079009D01*
X0055135Y0079086D01*
X0055095Y0079165D01*
X0055058Y0079245D01*
X0055026Y0079327D01*
X0054996Y0079411D01*
X0054971Y0079495D01*
X0054949Y0079581D01*
X0054932Y0079667D01*
X0054918Y0079755D01*
X0054908Y0079843D01*
X0054902Y0079931D01*
X0054900Y0080019D01*
X0069073Y0080019D02*
X0069075Y0080107D01*
X0069081Y0080195D01*
X0069091Y0080283D01*
X0069105Y0080371D01*
X0069122Y0080457D01*
X0069144Y0080543D01*
X0069169Y0080627D01*
X0069199Y0080711D01*
X0069231Y0080793D01*
X0069268Y0080873D01*
X0069308Y0080952D01*
X0069352Y0081029D01*
X0069399Y0081104D01*
X0069449Y0081176D01*
X0069503Y0081247D01*
X0069559Y0081314D01*
X0069619Y0081380D01*
X0069681Y0081442D01*
X0069747Y0081502D01*
X0069814Y0081558D01*
X0069885Y0081612D01*
X0069957Y0081662D01*
X0070032Y0081709D01*
X0070109Y0081753D01*
X0070188Y0081793D01*
X0070268Y0081830D01*
X0070350Y0081862D01*
X0070434Y0081892D01*
X0070518Y0081917D01*
X0070604Y0081939D01*
X0070690Y0081956D01*
X0070778Y0081970D01*
X0070866Y0081980D01*
X0070954Y0081986D01*
X0071042Y0081988D01*
X0071130Y0081986D01*
X0071218Y0081980D01*
X0071306Y0081970D01*
X0071394Y0081956D01*
X0071480Y0081939D01*
X0071566Y0081917D01*
X0071650Y0081892D01*
X0071734Y0081862D01*
X0071816Y0081830D01*
X0071896Y0081793D01*
X0071975Y0081753D01*
X0072052Y0081709D01*
X0072127Y0081662D01*
X0072199Y0081612D01*
X0072270Y0081558D01*
X0072337Y0081502D01*
X0072403Y0081442D01*
X0072465Y0081380D01*
X0072525Y0081314D01*
X0072581Y0081247D01*
X0072635Y0081176D01*
X0072685Y0081104D01*
X0072732Y0081029D01*
X0072776Y0080952D01*
X0072816Y0080873D01*
X0072853Y0080793D01*
X0072885Y0080711D01*
X0072915Y0080627D01*
X0072940Y0080543D01*
X0072962Y0080457D01*
X0072979Y0080371D01*
X0072993Y0080283D01*
X0073003Y0080195D01*
X0073009Y0080107D01*
X0073011Y0080019D01*
X0073009Y0079931D01*
X0073003Y0079843D01*
X0072993Y0079755D01*
X0072979Y0079667D01*
X0072962Y0079581D01*
X0072940Y0079495D01*
X0072915Y0079411D01*
X0072885Y0079327D01*
X0072853Y0079245D01*
X0072816Y0079165D01*
X0072776Y0079086D01*
X0072732Y0079009D01*
X0072685Y0078934D01*
X0072635Y0078862D01*
X0072581Y0078791D01*
X0072525Y0078724D01*
X0072465Y0078658D01*
X0072403Y0078596D01*
X0072337Y0078536D01*
X0072270Y0078480D01*
X0072199Y0078426D01*
X0072127Y0078376D01*
X0072052Y0078329D01*
X0071975Y0078285D01*
X0071896Y0078245D01*
X0071816Y0078208D01*
X0071734Y0078176D01*
X0071650Y0078146D01*
X0071566Y0078121D01*
X0071480Y0078099D01*
X0071394Y0078082D01*
X0071306Y0078068D01*
X0071218Y0078058D01*
X0071130Y0078052D01*
X0071042Y0078050D01*
X0070954Y0078052D01*
X0070866Y0078058D01*
X0070778Y0078068D01*
X0070690Y0078082D01*
X0070604Y0078099D01*
X0070518Y0078121D01*
X0070434Y0078146D01*
X0070350Y0078176D01*
X0070268Y0078208D01*
X0070188Y0078245D01*
X0070109Y0078285D01*
X0070032Y0078329D01*
X0069957Y0078376D01*
X0069885Y0078426D01*
X0069814Y0078480D01*
X0069747Y0078536D01*
X0069681Y0078596D01*
X0069619Y0078658D01*
X0069559Y0078724D01*
X0069503Y0078791D01*
X0069449Y0078862D01*
X0069399Y0078934D01*
X0069352Y0079009D01*
X0069308Y0079086D01*
X0069268Y0079165D01*
X0069231Y0079245D01*
X0069199Y0079327D01*
X0069169Y0079411D01*
X0069144Y0079495D01*
X0069122Y0079581D01*
X0069105Y0079667D01*
X0069091Y0079755D01*
X0069081Y0079843D01*
X0069075Y0079931D01*
X0069073Y0080019D01*
X0123956Y0120019D02*
X0123938Y0121480D01*
X0123885Y0122940D01*
X0123796Y0124399D01*
X0123672Y0125855D01*
X0123512Y0127307D01*
X0123317Y0128755D01*
X0123086Y0130198D01*
X0122821Y0131635D01*
X0122521Y0133065D01*
X0122186Y0134487D01*
X0121816Y0135901D01*
X0121412Y0137305D01*
X0120974Y0138699D01*
X0120502Y0140082D01*
X0119997Y0141453D01*
X0119458Y0142811D01*
X0118887Y0144156D01*
X0118283Y0145486D01*
X0117647Y0146802D01*
X0116979Y0148101D01*
X0116279Y0149384D01*
X0115548Y0150649D01*
X0114787Y0151897D01*
X0113996Y0153125D01*
X0113175Y0154334D01*
X0112325Y0155522D01*
X0111446Y0156689D01*
X0110539Y0157835D01*
X0109604Y0158958D01*
X0108642Y0160058D01*
X0107654Y0161134D01*
X0106640Y0162186D01*
X0105600Y0163213D01*
X0104536Y0164214D01*
X0103448Y0165190D01*
X0102336Y0166138D01*
X0101202Y0167059D01*
X0100045Y0167952D01*
X0098868Y0168816D01*
X0097669Y0169652D01*
X0096450Y0170458D01*
X0095212Y0171235D01*
X0093956Y0171981D01*
X0092682Y0172696D01*
X0091391Y0173380D01*
X0090083Y0174032D01*
X0088760Y0174652D01*
X0087422Y0175240D01*
X0086071Y0175795D01*
X0084706Y0176317D01*
X0083329Y0176805D01*
X0081940Y0177260D01*
X0080541Y0177681D01*
X0079132Y0178068D01*
X0077714Y0178420D01*
X0076288Y0178738D01*
X0074854Y0179021D01*
X0073414Y0179269D01*
X0071969Y0179482D01*
X0070518Y0179659D01*
X0069064Y0179801D01*
X0067607Y0179908D01*
X0066147Y0179979D01*
X0064687Y0180015D01*
X0063225Y0180015D01*
X0061765Y0179979D01*
X0060305Y0179908D01*
X0058848Y0179801D01*
X0057394Y0179659D01*
X0055943Y0179482D01*
X0054498Y0179269D01*
X0053058Y0179021D01*
X0051624Y0178738D01*
X0050198Y0178420D01*
X0048780Y0178068D01*
X0047371Y0177681D01*
X0045972Y0177260D01*
X0044583Y0176805D01*
X0043206Y0176317D01*
X0041841Y0175795D01*
X0040490Y0175240D01*
X0039152Y0174652D01*
X0037829Y0174032D01*
X0036521Y0173380D01*
X0035230Y0172696D01*
X0033956Y0171981D01*
X0032700Y0171235D01*
X0031462Y0170458D01*
X0030243Y0169652D01*
X0029044Y0168816D01*
X0027867Y0167952D01*
X0026710Y0167059D01*
X0025576Y0166138D01*
X0024464Y0165190D01*
X0023376Y0164214D01*
X0022312Y0163213D01*
X0021272Y0162186D01*
X0020258Y0161134D01*
X0019270Y0160058D01*
X0018308Y0158958D01*
X0017373Y0157835D01*
X0016466Y0156689D01*
X0015587Y0155522D01*
X0014737Y0154334D01*
X0013916Y0153125D01*
X0013125Y0151897D01*
X0012364Y0150649D01*
X0011633Y0149384D01*
X0010933Y0148101D01*
X0010265Y0146802D01*
X0009629Y0145486D01*
X0009025Y0144156D01*
X0008454Y0142811D01*
X0007915Y0141453D01*
X0007410Y0140082D01*
X0006938Y0138699D01*
X0006500Y0137305D01*
X0006096Y0135901D01*
X0005726Y0134487D01*
X0005391Y0133065D01*
X0005091Y0131635D01*
X0004826Y0130198D01*
X0004595Y0128755D01*
X0004400Y0127307D01*
X0004240Y0125855D01*
X0004116Y0124399D01*
X0004027Y0122940D01*
X0003974Y0121480D01*
X0003956Y0120019D01*
X0003956Y0020019D01*
X0003960Y0019657D01*
X0003974Y0019294D01*
X0003995Y0018932D01*
X0004026Y0018571D01*
X0004065Y0018211D01*
X0004113Y0017852D01*
X0004170Y0017494D01*
X0004235Y0017137D01*
X0004309Y0016782D01*
X0004392Y0016429D01*
X0004483Y0016078D01*
X0004582Y0015730D01*
X0004690Y0015384D01*
X0004806Y0015040D01*
X0004931Y0014700D01*
X0005063Y0014363D01*
X0005204Y0014029D01*
X0005353Y0013698D01*
X0005510Y0013371D01*
X0005674Y0013048D01*
X0005846Y0012729D01*
X0006026Y0012415D01*
X0006214Y0012104D01*
X0006409Y0011799D01*
X0006611Y0011498D01*
X0006821Y0011202D01*
X0007037Y0010912D01*
X0007261Y0010626D01*
X0007491Y0010346D01*
X0007728Y0010072D01*
X0007972Y0009804D01*
X0008222Y0009541D01*
X0008478Y0009285D01*
X0008741Y0009035D01*
X0009009Y0008791D01*
X0009283Y0008554D01*
X0009563Y0008324D01*
X0009849Y0008100D01*
X0010139Y0007884D01*
X0010435Y0007674D01*
X0010736Y0007472D01*
X0011041Y0007277D01*
X0011352Y0007089D01*
X0011666Y0006909D01*
X0011985Y0006737D01*
X0012308Y0006573D01*
X0012635Y0006416D01*
X0012966Y0006267D01*
X0013300Y0006126D01*
X0013637Y0005994D01*
X0013977Y0005869D01*
X0014321Y0005753D01*
X0014667Y0005645D01*
X0015015Y0005546D01*
X0015366Y0005455D01*
X0015719Y0005372D01*
X0016074Y0005298D01*
X0016431Y0005233D01*
X0016789Y0005176D01*
X0017148Y0005128D01*
X0017508Y0005089D01*
X0017869Y0005058D01*
X0018231Y0005037D01*
X0018594Y0005023D01*
X0018956Y0005019D01*
X0108956Y0005019D01*
X0109318Y0005023D01*
X0109681Y0005037D01*
X0110043Y0005058D01*
X0110404Y0005089D01*
X0110764Y0005128D01*
X0111123Y0005176D01*
X0111481Y0005233D01*
X0111838Y0005298D01*
X0112193Y0005372D01*
X0112546Y0005455D01*
X0112897Y0005546D01*
X0113245Y0005645D01*
X0113591Y0005753D01*
X0113935Y0005869D01*
X0114275Y0005994D01*
X0114612Y0006126D01*
X0114946Y0006267D01*
X0115277Y0006416D01*
X0115604Y0006573D01*
X0115927Y0006737D01*
X0116246Y0006909D01*
X0116560Y0007089D01*
X0116871Y0007277D01*
X0117176Y0007472D01*
X0117477Y0007674D01*
X0117773Y0007884D01*
X0118063Y0008100D01*
X0118349Y0008324D01*
X0118629Y0008554D01*
X0118903Y0008791D01*
X0119171Y0009035D01*
X0119434Y0009285D01*
X0119690Y0009541D01*
X0119940Y0009804D01*
X0120184Y0010072D01*
X0120421Y0010346D01*
X0120651Y0010626D01*
X0120875Y0010912D01*
X0121091Y0011202D01*
X0121301Y0011498D01*
X0121503Y0011799D01*
X0121698Y0012104D01*
X0121886Y0012415D01*
X0122066Y0012729D01*
X0122238Y0013048D01*
X0122402Y0013371D01*
X0122559Y0013698D01*
X0122708Y0014029D01*
X0122849Y0014363D01*
X0122981Y0014700D01*
X0123106Y0015040D01*
X0123222Y0015384D01*
X0123330Y0015730D01*
X0123429Y0016078D01*
X0123520Y0016429D01*
X0123603Y0016782D01*
X0123677Y0017137D01*
X0123742Y0017494D01*
X0123799Y0017852D01*
X0123847Y0018211D01*
X0123886Y0018571D01*
X0123917Y0018932D01*
X0123938Y0019294D01*
X0123952Y0019657D01*
X0123956Y0020019D01*
X0123956Y0120019D01*
D13*
X0036180Y0095816D03*
X0036180Y0076918D03*
X0017676Y0076918D03*
X0017282Y0095816D03*
D14*
X0045708Y0110285D02*
X0052204Y0110285D01*
X0045708Y0110285D02*
X0045708Y0110875D01*
X0052204Y0110875D01*
X0052204Y0110285D01*
X0052204Y0113434D02*
X0045708Y0113434D01*
X0045708Y0114024D01*
X0052204Y0114024D01*
X0052204Y0113434D01*
X0052204Y0116584D02*
X0045708Y0116584D01*
X0045708Y0117174D01*
X0052204Y0117174D01*
X0052204Y0116584D01*
X0052204Y0119733D02*
X0045708Y0119733D01*
X0045708Y0120323D01*
X0052204Y0120323D01*
X0052204Y0119733D01*
X0052204Y0122883D02*
X0045708Y0122883D01*
X0045708Y0123473D01*
X0052204Y0123473D01*
X0052204Y0122883D01*
X0052204Y0126033D02*
X0045708Y0126033D01*
X0045708Y0126623D01*
X0052204Y0126623D01*
X0052204Y0126033D01*
X0052204Y0129182D02*
X0045708Y0129182D01*
X0045708Y0129772D01*
X0052204Y0129772D01*
X0052204Y0129182D01*
X0052204Y0132332D02*
X0045708Y0132332D01*
X0045708Y0132922D01*
X0052204Y0132922D01*
X0052204Y0132332D01*
X0052204Y0135481D02*
X0045708Y0135481D01*
X0045708Y0136071D01*
X0052204Y0136071D01*
X0052204Y0135481D01*
X0052204Y0138631D02*
X0045708Y0138631D01*
X0045708Y0139221D01*
X0052204Y0139221D01*
X0052204Y0138631D01*
X0052204Y0141781D02*
X0045708Y0141781D01*
X0045708Y0142371D01*
X0052204Y0142371D01*
X0052204Y0141781D01*
X0052204Y0144930D02*
X0045708Y0144930D01*
X0045708Y0145520D01*
X0052204Y0145520D01*
X0052204Y0144930D01*
X0052204Y0148080D02*
X0045708Y0148080D01*
X0045708Y0148670D01*
X0052204Y0148670D01*
X0052204Y0148080D01*
X0052204Y0151229D02*
X0045708Y0151229D01*
X0045708Y0151819D01*
X0052204Y0151819D01*
X0052204Y0151229D01*
X0052204Y0154379D02*
X0045708Y0154379D01*
X0045708Y0154969D01*
X0052204Y0154969D01*
X0052204Y0154379D01*
X0052204Y0157411D02*
X0045708Y0157411D01*
X0045708Y0158001D01*
X0052204Y0158001D01*
X0052204Y0157411D01*
X0052204Y0160442D02*
X0045708Y0160442D01*
X0045708Y0161032D01*
X0052204Y0161032D01*
X0052204Y0160442D01*
X0052204Y0163474D02*
X0045708Y0163474D01*
X0045708Y0164064D01*
X0052204Y0164064D01*
X0052204Y0163474D01*
X0076810Y0144930D02*
X0083306Y0144930D01*
X0076810Y0144930D02*
X0076810Y0145520D01*
X0083306Y0145520D01*
X0083306Y0144930D01*
X0083306Y0141781D02*
X0076810Y0141781D01*
X0076810Y0142371D01*
X0083306Y0142371D01*
X0083306Y0141781D01*
X0083306Y0138631D02*
X0076810Y0138631D01*
X0076810Y0139221D01*
X0083306Y0139221D01*
X0083306Y0138631D01*
X0083306Y0135481D02*
X0076810Y0135481D01*
X0076810Y0136071D01*
X0083306Y0136071D01*
X0083306Y0135481D01*
X0083306Y0132332D02*
X0076810Y0132332D01*
X0076810Y0132922D01*
X0083306Y0132922D01*
X0083306Y0132332D01*
X0083306Y0129182D02*
X0076810Y0129182D01*
X0076810Y0129772D01*
X0083306Y0129772D01*
X0083306Y0129182D01*
X0083306Y0126033D02*
X0076810Y0126033D01*
X0076810Y0126623D01*
X0083306Y0126623D01*
X0083306Y0126033D01*
X0083306Y0122883D02*
X0076810Y0122883D01*
X0076810Y0123473D01*
X0083306Y0123473D01*
X0083306Y0122883D01*
X0083306Y0119733D02*
X0076810Y0119733D01*
X0076810Y0120323D01*
X0083306Y0120323D01*
X0083306Y0119733D01*
X0083306Y0116584D02*
X0076810Y0116584D01*
X0076810Y0117174D01*
X0083306Y0117174D01*
X0083306Y0116584D01*
X0083306Y0113434D02*
X0076810Y0113434D01*
X0076810Y0114024D01*
X0083306Y0114024D01*
X0083306Y0113434D01*
X0083306Y0110285D02*
X0076810Y0110285D01*
X0076810Y0110875D01*
X0083306Y0110875D01*
X0083306Y0110285D01*
X0072873Y0110678D02*
X0072873Y0104182D01*
X0072283Y0104182D01*
X0072283Y0110678D01*
X0072873Y0110678D01*
X0072873Y0105559D02*
X0072283Y0105559D01*
X0072283Y0106936D02*
X0072873Y0106936D01*
X0072873Y0108313D02*
X0072283Y0108313D01*
X0072283Y0109690D02*
X0072873Y0109690D01*
X0069723Y0110678D02*
X0069723Y0104182D01*
X0069133Y0104182D01*
X0069133Y0110678D01*
X0069723Y0110678D01*
X0069723Y0105559D02*
X0069133Y0105559D01*
X0069133Y0106936D02*
X0069723Y0106936D01*
X0069723Y0108313D02*
X0069133Y0108313D01*
X0069133Y0109690D02*
X0069723Y0109690D01*
X0066573Y0110678D02*
X0066573Y0104182D01*
X0065983Y0104182D01*
X0065983Y0110678D01*
X0066573Y0110678D01*
X0066573Y0105559D02*
X0065983Y0105559D01*
X0065983Y0106936D02*
X0066573Y0106936D01*
X0066573Y0108313D02*
X0065983Y0108313D01*
X0065983Y0109690D02*
X0066573Y0109690D01*
X0063424Y0110678D02*
X0063424Y0104182D01*
X0062834Y0104182D01*
X0062834Y0110678D01*
X0063424Y0110678D01*
X0063424Y0105559D02*
X0062834Y0105559D01*
X0062834Y0106936D02*
X0063424Y0106936D01*
X0063424Y0108313D02*
X0062834Y0108313D01*
X0062834Y0109690D02*
X0063424Y0109690D01*
X0060274Y0110678D02*
X0060274Y0104182D01*
X0059684Y0104182D01*
X0059684Y0110678D01*
X0060274Y0110678D01*
X0060274Y0105559D02*
X0059684Y0105559D01*
X0059684Y0106936D02*
X0060274Y0106936D01*
X0060274Y0108313D02*
X0059684Y0108313D01*
X0059684Y0109690D02*
X0060274Y0109690D01*
X0057125Y0110678D02*
X0057125Y0104182D01*
X0056535Y0104182D01*
X0056535Y0110678D01*
X0057125Y0110678D01*
X0057125Y0105559D02*
X0056535Y0105559D01*
X0056535Y0106936D02*
X0057125Y0106936D01*
X0057125Y0108313D02*
X0056535Y0108313D01*
X0056535Y0109690D02*
X0057125Y0109690D01*
D15*
X0058956Y0037790D02*
X0058956Y0032247D01*
X0048956Y0032247D02*
X0048956Y0037790D01*
X0068956Y0037790D02*
X0068956Y0032247D01*
X0078956Y0032247D02*
X0078956Y0037790D01*
D16*
X0108956Y0020019D03*
X0108956Y0110019D03*
X0018956Y0110019D03*
X0018956Y0020019D03*
D17*
X0017715Y0038650D03*
X0021456Y0038650D03*
X0025196Y0038650D03*
X0025196Y0048887D03*
X0017715Y0048887D03*
D18*
X0016003Y0061269D03*
X0021908Y0061269D03*
X0033503Y0061269D03*
X0039408Y0061269D03*
X0033158Y0127519D03*
X0027253Y0127519D03*
X0027253Y0138769D03*
X0033158Y0138769D03*
X0091003Y0088769D03*
X0096908Y0088769D03*
X0106003Y0088769D03*
X0111908Y0088769D03*
X0111908Y0072519D03*
X0106003Y0072519D03*
X0096908Y0072519D03*
X0091003Y0072519D03*
X0096003Y0128769D03*
X0101908Y0128769D03*
X0101908Y0140019D03*
X0096003Y0140019D03*
D19*
X0010863Y0013809D02*
X0012746Y0011926D01*
X0015052Y0010595D01*
X0017624Y0009906D01*
X0018955Y0009818D01*
X0108956Y0009818D01*
X0110287Y0009906D01*
X0112859Y0010595D01*
X0115165Y0011926D01*
X0117048Y0013809D01*
X0118379Y0016115D01*
X0119068Y0018687D01*
X0119156Y0020018D01*
X0119156Y0120019D01*
X0119001Y0124144D01*
X0117772Y0132302D01*
X0115340Y0140185D01*
X0112344Y0146406D01*
X0085633Y0146406D01*
X0085699Y0146246D01*
X0085795Y0145766D01*
X0085795Y0145225D01*
X0080058Y0145225D01*
X0080058Y0145225D01*
X0085795Y0145225D01*
X0085795Y0144732D01*
X0085803Y0144740D01*
X0087200Y0145318D01*
X0088711Y0145318D01*
X0090108Y0144740D01*
X0091177Y0143671D01*
X0091755Y0142274D01*
X0091755Y0140763D01*
X0091177Y0139366D01*
X0090108Y0138297D01*
X0088711Y0137719D01*
X0087200Y0137719D01*
X0086574Y0137978D01*
X0085519Y0137233D01*
X0085795Y0136567D01*
X0085795Y0134986D01*
X0085486Y0134241D01*
X0086005Y0133721D01*
X0088408Y0131318D01*
X0092858Y0131318D01*
X0093682Y0132143D01*
X0098323Y0132143D01*
X0098955Y0131511D01*
X0099588Y0132143D01*
X0099656Y0132143D01*
X0099656Y0136644D01*
X0099588Y0136644D01*
X0098956Y0137276D01*
X0098683Y0137003D01*
X0098272Y0136766D01*
X0097815Y0136644D01*
X0096003Y0136644D01*
X0096003Y0140018D01*
X0096003Y0140018D01*
X0096003Y0136644D01*
X0094191Y0136644D01*
X0093733Y0136766D01*
X0093323Y0137003D01*
X0092988Y0137338D01*
X0092751Y0137749D01*
X0092628Y0138207D01*
X0092628Y0140018D01*
X0096003Y0140018D01*
X0096003Y0140019D01*
X0096003Y0140019D01*
X0096003Y0143393D01*
X0097815Y0143393D01*
X0098272Y0143271D01*
X0098683Y0143034D01*
X0098956Y0142761D01*
X0099588Y0143393D01*
X0104229Y0143393D01*
X0105283Y0142339D01*
X0105283Y0137698D01*
X0104255Y0136671D01*
X0104255Y0132116D01*
X0105283Y0131089D01*
X0105283Y0126448D01*
X0104229Y0125394D01*
X0099588Y0125394D01*
X0098955Y0126026D01*
X0098323Y0125394D01*
X0093682Y0125394D01*
X0092628Y0126448D01*
X0092628Y0126719D01*
X0090008Y0126719D01*
X0095158Y0121568D01*
X0096505Y0120221D01*
X0096505Y0107221D01*
X0111583Y0092143D01*
X0114229Y0092143D01*
X0115283Y0091089D01*
X0115283Y0086448D01*
X0114229Y0085394D01*
X0114005Y0085394D01*
X0114005Y0075893D01*
X0114229Y0075893D01*
X0115283Y0074839D01*
X0115283Y0070198D01*
X0114229Y0069144D01*
X0109588Y0069144D01*
X0108956Y0069776D01*
X0108323Y0069144D01*
X0108303Y0069144D01*
X0108303Y0066297D01*
X0108578Y0066022D01*
X0109183Y0064560D01*
X0109183Y0062977D01*
X0108578Y0061515D01*
X0107459Y0060396D01*
X0105997Y0059791D01*
X0104414Y0059791D01*
X0102952Y0060396D01*
X0101833Y0061515D01*
X0101228Y0062977D01*
X0101228Y0064560D01*
X0101833Y0066022D01*
X0102952Y0067141D01*
X0103703Y0067452D01*
X0103703Y0069144D01*
X0103682Y0069144D01*
X0102628Y0070198D01*
X0102628Y0074839D01*
X0103682Y0075893D01*
X0108323Y0075893D01*
X0108956Y0075261D01*
X0109406Y0075711D01*
X0109406Y0085576D01*
X0108955Y0086026D01*
X0108683Y0085753D01*
X0108272Y0085516D01*
X0107815Y0085394D01*
X0106003Y0085394D01*
X0106003Y0088768D01*
X0106003Y0088768D01*
X0106003Y0085394D01*
X0104191Y0085394D01*
X0103733Y0085516D01*
X0103323Y0085753D01*
X0102988Y0086088D01*
X0102751Y0086499D01*
X0102628Y0086957D01*
X0102628Y0088768D01*
X0106003Y0088768D01*
X0106003Y0088769D01*
X0102628Y0088769D01*
X0102628Y0090580D01*
X0102751Y0091038D01*
X0102988Y0091449D01*
X0103323Y0091784D01*
X0103733Y0092021D01*
X0104191Y0092143D01*
X0105078Y0092143D01*
X0091906Y0105316D01*
X0091906Y0118316D01*
X0090005Y0120216D01*
X0090005Y0092143D01*
X0093323Y0092143D01*
X0093955Y0091511D01*
X0094588Y0092143D01*
X0099229Y0092143D01*
X0100283Y0091089D01*
X0100283Y0086448D01*
X0099229Y0085394D01*
X0099208Y0085394D01*
X0099208Y0075893D01*
X0099229Y0075893D01*
X0100283Y0074839D01*
X0100283Y0070198D01*
X0099229Y0069144D01*
X0096833Y0069144D01*
X0074158Y0046469D01*
X0055753Y0046469D01*
X0054406Y0047816D01*
X0053461Y0048760D01*
X0051233Y0048760D01*
X0056635Y0041777D01*
X0058046Y0042362D01*
X0059865Y0042362D01*
X0061545Y0041666D01*
X0062831Y0040380D01*
X0063527Y0038700D01*
X0063527Y0031337D01*
X0062831Y0029657D01*
X0061545Y0028371D01*
X0059865Y0027675D01*
X0058046Y0027675D01*
X0056366Y0028371D01*
X0055080Y0029657D01*
X0054384Y0031337D01*
X0054384Y0037169D01*
X0053527Y0038277D01*
X0053527Y0031337D01*
X0052831Y0029657D01*
X0051545Y0028371D01*
X0049865Y0027675D01*
X0048046Y0027675D01*
X0046366Y0028371D01*
X0045080Y0029657D01*
X0044384Y0031337D01*
X0044384Y0038700D01*
X0045080Y0040380D01*
X0046366Y0041666D01*
X0048046Y0042362D01*
X0049865Y0042362D01*
X0050604Y0042056D01*
X0046976Y0046746D01*
X0046406Y0047316D01*
X0046406Y0047483D01*
X0046303Y0047615D01*
X0046406Y0048415D01*
X0046406Y0058469D01*
X0042303Y0058469D01*
X0041729Y0057894D01*
X0037088Y0057894D01*
X0036456Y0058526D01*
X0035823Y0057894D01*
X0035005Y0057894D01*
X0035005Y0039709D01*
X0045052Y0027318D01*
X0064253Y0027318D01*
X0065836Y0028901D01*
X0065080Y0029657D01*
X0064384Y0031337D01*
X0064384Y0038700D01*
X0065080Y0040380D01*
X0066366Y0041666D01*
X0068046Y0042362D01*
X0069865Y0042362D01*
X0071545Y0041666D01*
X0072831Y0040380D01*
X0073527Y0038700D01*
X0073527Y0031337D01*
X0072831Y0029657D01*
X0071545Y0028371D01*
X0071255Y0028251D01*
X0071255Y0027816D01*
X0069908Y0026469D01*
X0067505Y0024066D01*
X0066158Y0022719D01*
X0044771Y0022719D01*
X0044664Y0022632D01*
X0043836Y0022719D01*
X0043003Y0022719D01*
X0042906Y0022816D01*
X0042769Y0022830D01*
X0042244Y0023477D01*
X0041656Y0024066D01*
X0041656Y0024203D01*
X0031625Y0036574D01*
X0028078Y0036511D01*
X0028078Y0035543D01*
X0027534Y0034998D01*
X0027506Y0034831D01*
X0027508Y0034072D01*
X0027354Y0033917D01*
X0027255Y0033328D01*
X0027255Y0032566D01*
X0027103Y0032413D01*
X0027068Y0032201D01*
X0026447Y0031758D01*
X0025908Y0031219D01*
X0025693Y0031219D01*
X0025517Y0031093D01*
X0024765Y0031219D01*
X0018944Y0031219D01*
X0018519Y0031030D01*
X0018028Y0031219D01*
X0017503Y0031219D01*
X0017174Y0031547D01*
X0016741Y0031714D01*
X0016527Y0032194D01*
X0016156Y0032566D01*
X0016156Y0033030D01*
X0015527Y0034444D01*
X0015156Y0034816D01*
X0015156Y0035220D01*
X0014833Y0035543D01*
X0014833Y0041758D01*
X0015887Y0042813D01*
X0016407Y0042813D01*
X0016076Y0043145D01*
X0015406Y0043816D01*
X0015406Y0043819D01*
X0015403Y0043821D01*
X0015406Y0044773D01*
X0015406Y0045206D01*
X0014833Y0045779D01*
X0014833Y0051994D01*
X0015406Y0052567D01*
X0015406Y0057894D01*
X0013682Y0057894D01*
X0012628Y0058948D01*
X0012628Y0063589D01*
X0013682Y0064643D01*
X0014828Y0064643D01*
X0020906Y0070721D01*
X0022253Y0072068D01*
X0041156Y0072068D01*
X0041156Y0078471D01*
X0042503Y0079818D01*
X0050953Y0088268D01*
X0041031Y0098190D01*
X0041031Y0096197D01*
X0036561Y0096197D01*
X0035799Y0096197D01*
X0035799Y0099978D01*
X0032892Y0099978D01*
X0032434Y0099855D01*
X0032024Y0099618D01*
X0031688Y0099283D01*
X0031451Y0098873D01*
X0031329Y0098415D01*
X0031329Y0096197D01*
X0035799Y0096197D01*
X0035799Y0095435D01*
X0031329Y0095435D01*
X0031329Y0093217D01*
X0031451Y0092759D01*
X0031688Y0092348D01*
X0032024Y0092013D01*
X0032434Y0091776D01*
X0032892Y0091654D01*
X0035799Y0091654D01*
X0035799Y0095435D01*
X0036561Y0095435D01*
X0036561Y0096197D01*
X0036561Y0099978D01*
X0039243Y0099978D01*
X0031406Y0107816D01*
X0031406Y0116694D01*
X0030484Y0117616D01*
X0029906Y0119013D01*
X0029906Y0120524D01*
X0030484Y0121921D01*
X0031553Y0122990D01*
X0032950Y0123568D01*
X0034461Y0123568D01*
X0035406Y0123177D01*
X0035406Y0124144D01*
X0030838Y0124144D01*
X0030206Y0124776D01*
X0029573Y0124144D01*
X0024932Y0124144D01*
X0023878Y0125198D01*
X0023878Y0129839D01*
X0024932Y0130893D01*
X0025406Y0130893D01*
X0025406Y0135394D01*
X0024932Y0135394D01*
X0023878Y0136448D01*
X0023878Y0141089D01*
X0024932Y0142143D01*
X0029573Y0142143D01*
X0030205Y0141511D01*
X0030478Y0141784D01*
X0030889Y0142021D01*
X0031346Y0142143D01*
X0033158Y0142143D01*
X0033158Y0138769D01*
X0033158Y0138769D01*
X0033158Y0142143D01*
X0034970Y0142143D01*
X0035428Y0142021D01*
X0035838Y0141784D01*
X0036153Y0141469D01*
X0037906Y0143221D01*
X0037906Y0144524D01*
X0038484Y0145921D01*
X0039553Y0146990D01*
X0040950Y0147568D01*
X0042461Y0147568D01*
X0043383Y0147187D01*
X0043314Y0147354D01*
X0043219Y0147834D01*
X0043219Y0148375D01*
X0048955Y0148375D01*
X0048955Y0148375D01*
X0048955Y0151159D01*
X0048955Y0151524D01*
X0043219Y0151524D01*
X0043219Y0150984D01*
X0043314Y0150503D01*
X0043502Y0150050D01*
X0043569Y0149950D01*
X0043502Y0149849D01*
X0043314Y0149396D01*
X0043219Y0148915D01*
X0043219Y0148375D01*
X0048955Y0148375D01*
X0048956Y0148375D01*
X0054693Y0148375D01*
X0054693Y0148915D01*
X0054597Y0149396D01*
X0054409Y0149849D01*
X0054342Y0149950D01*
X0054409Y0150050D01*
X0054597Y0150503D01*
X0054693Y0150984D01*
X0054692Y0151524D01*
X0048956Y0151524D01*
X0048956Y0151524D01*
X0048956Y0148375D01*
X0048956Y0148375D01*
X0054692Y0148375D01*
X0054693Y0147834D01*
X0054597Y0147354D01*
X0054409Y0146901D01*
X0054342Y0146800D01*
X0054409Y0146699D01*
X0054597Y0146246D01*
X0054693Y0145766D01*
X0054693Y0145225D01*
X0054692Y0145225D02*
X0048956Y0145225D01*
X0048956Y0145225D01*
X0054693Y0145225D01*
X0054692Y0145225D02*
X0054693Y0144685D01*
X0054597Y0144204D01*
X0054409Y0143751D01*
X0054358Y0143674D01*
X0054693Y0142866D01*
X0054693Y0141285D01*
X0054368Y0140501D01*
X0054468Y0140259D01*
X0063658Y0131068D01*
X0064961Y0131068D01*
X0066358Y0130490D01*
X0067427Y0129421D01*
X0068005Y0128024D01*
X0068005Y0126513D01*
X0067427Y0125116D01*
X0066358Y0124047D01*
X0064961Y0123469D01*
X0063450Y0123469D01*
X0062053Y0124047D01*
X0060984Y0125116D01*
X0060406Y0126513D01*
X0060406Y0127816D01*
X0054614Y0133608D01*
X0054693Y0133417D01*
X0054693Y0131836D01*
X0054368Y0131052D01*
X0054693Y0130268D01*
X0054693Y0128687D01*
X0054368Y0127902D01*
X0054693Y0127118D01*
X0054693Y0125537D01*
X0054368Y0124753D01*
X0054693Y0123968D01*
X0054693Y0122388D01*
X0054368Y0121603D01*
X0054693Y0120819D01*
X0054693Y0119238D01*
X0054368Y0118454D01*
X0054693Y0117669D01*
X0054693Y0116088D01*
X0054368Y0115304D01*
X0054693Y0114520D01*
X0054693Y0112939D01*
X0054358Y0112131D01*
X0054409Y0112054D01*
X0054410Y0112053D01*
X0054424Y0112088D01*
X0055124Y0112788D01*
X0056039Y0113167D01*
X0057620Y0113167D01*
X0058428Y0112832D01*
X0058505Y0112884D01*
X0058958Y0113071D01*
X0059439Y0113167D01*
X0059979Y0113167D01*
X0059979Y0107430D01*
X0059979Y0107430D01*
X0059979Y0113167D01*
X0060520Y0113167D01*
X0061000Y0113071D01*
X0061453Y0112884D01*
X0061530Y0112832D01*
X0062338Y0113167D01*
X0063919Y0113167D01*
X0064704Y0112842D01*
X0065488Y0113167D01*
X0067069Y0113167D01*
X0067853Y0112842D01*
X0068638Y0113167D01*
X0070218Y0113167D01*
X0071003Y0112842D01*
X0071787Y0113167D01*
X0073368Y0113167D01*
X0074283Y0112788D01*
X0074454Y0112616D01*
X0074321Y0112939D01*
X0074321Y0114520D01*
X0074646Y0115304D01*
X0074321Y0116088D01*
X0074321Y0117669D01*
X0074646Y0118454D01*
X0074321Y0119238D01*
X0074321Y0120819D01*
X0074656Y0121627D01*
X0074604Y0121704D01*
X0074417Y0122157D01*
X0074321Y0122638D01*
X0074321Y0123178D01*
X0080058Y0123178D01*
X0080058Y0123178D01*
X0074321Y0123178D01*
X0074321Y0123718D01*
X0074417Y0124199D01*
X0074604Y0124652D01*
X0074656Y0124729D01*
X0074321Y0125537D01*
X0074321Y0127118D01*
X0074646Y0127902D01*
X0074321Y0128687D01*
X0074321Y0130268D01*
X0074646Y0131052D01*
X0074321Y0131836D01*
X0074321Y0133417D01*
X0074345Y0133476D01*
X0073473Y0133476D01*
X0073427Y0133366D01*
X0072358Y0132297D01*
X0070961Y0131719D01*
X0069450Y0131719D01*
X0068053Y0132297D01*
X0066984Y0133366D01*
X0066406Y0134763D01*
X0066406Y0136274D01*
X0066984Y0137671D01*
X0068053Y0138740D01*
X0069450Y0139318D01*
X0070961Y0139318D01*
X0072358Y0138740D01*
X0073022Y0138076D01*
X0074345Y0138076D01*
X0074321Y0138136D01*
X0074321Y0139716D01*
X0074646Y0140501D01*
X0074321Y0141285D01*
X0074321Y0142866D01*
X0074656Y0143674D01*
X0074604Y0143751D01*
X0074417Y0144204D01*
X0074321Y0144685D01*
X0074321Y0145225D01*
X0080058Y0145225D01*
X0080058Y0145225D01*
X0074321Y0145225D01*
X0074321Y0145766D01*
X0074417Y0146246D01*
X0074483Y0146406D01*
X0058700Y0146406D01*
X0058700Y0174825D01*
X0055728Y0174602D01*
X0047685Y0172766D01*
X0040005Y0169752D01*
X0032860Y0165627D01*
X0026410Y0160483D01*
X0020798Y0154435D01*
X0016151Y0147619D01*
X0012571Y0140185D01*
X0010139Y0132302D01*
X0008910Y0124144D01*
X0008755Y0120019D01*
X0008755Y0020018D01*
X0008843Y0018687D01*
X0009532Y0016115D01*
X0010863Y0013809D01*
X0010720Y0014057D02*
X0011192Y0014057D01*
X0010728Y0014521D02*
X0013458Y0011791D01*
X0017025Y0010313D01*
X0020886Y0010313D01*
X0024453Y0011791D01*
X0027183Y0014521D01*
X0028661Y0018088D01*
X0028661Y0021949D01*
X0027183Y0025516D01*
X0024453Y0028246D01*
X0020886Y0029724D01*
X0017025Y0029724D01*
X0013458Y0028246D01*
X0010728Y0025516D01*
X0009250Y0021949D01*
X0009250Y0018088D01*
X0010728Y0014521D01*
X0010258Y0015655D02*
X0009798Y0015655D01*
X0009596Y0017254D02*
X0009227Y0017254D01*
X0009250Y0018852D02*
X0008832Y0018852D01*
X0008755Y0020451D02*
X0009250Y0020451D01*
X0009291Y0022049D02*
X0008755Y0022049D01*
X0008755Y0023648D02*
X0009954Y0023648D01*
X0010616Y0025246D02*
X0008755Y0025246D01*
X0008755Y0026845D02*
X0012056Y0026845D01*
X0013933Y0028443D02*
X0008755Y0028443D01*
X0008755Y0030042D02*
X0036922Y0030042D01*
X0038218Y0028443D02*
X0023978Y0028443D01*
X0025855Y0026845D02*
X0039514Y0026845D01*
X0040810Y0025246D02*
X0027295Y0025246D01*
X0027957Y0023648D02*
X0042074Y0023648D01*
X0044140Y0028443D02*
X0046294Y0028443D01*
X0044921Y0030042D02*
X0042844Y0030042D01*
X0041548Y0031640D02*
X0044384Y0031640D01*
X0044384Y0033239D02*
X0040251Y0033239D01*
X0038955Y0034837D02*
X0044384Y0034837D01*
X0044384Y0036436D02*
X0037659Y0036436D01*
X0036363Y0038034D02*
X0044384Y0038034D01*
X0044770Y0039633D02*
X0035067Y0039633D01*
X0035005Y0041231D02*
X0045931Y0041231D01*
X0048768Y0044428D02*
X0035005Y0044428D01*
X0035005Y0042830D02*
X0050005Y0042830D01*
X0047532Y0046027D02*
X0035005Y0046027D01*
X0035005Y0047625D02*
X0046305Y0047625D01*
X0046406Y0049224D02*
X0035005Y0049224D01*
X0035005Y0050822D02*
X0046406Y0050822D01*
X0046406Y0052421D02*
X0035005Y0052421D01*
X0035005Y0054019D02*
X0046406Y0054019D01*
X0046406Y0055618D02*
X0035005Y0055618D01*
X0035005Y0057216D02*
X0046406Y0057216D01*
X0046903Y0063068D02*
X0042783Y0063068D01*
X0042783Y0063589D01*
X0041729Y0064643D01*
X0037088Y0064643D01*
X0036456Y0064011D01*
X0035823Y0064643D01*
X0031182Y0064643D01*
X0030128Y0063589D01*
X0030128Y0058948D01*
X0030406Y0058671D01*
X0030406Y0041153D01*
X0028078Y0041111D01*
X0028078Y0041758D01*
X0027024Y0042813D01*
X0023367Y0042813D01*
X0023240Y0042686D01*
X0023233Y0042690D01*
X0022775Y0042813D01*
X0021456Y0042813D01*
X0021456Y0038651D01*
X0021455Y0038651D01*
X0021455Y0042813D01*
X0020136Y0042813D01*
X0019678Y0042690D01*
X0019671Y0042686D01*
X0019544Y0042813D01*
X0019002Y0042813D01*
X0019329Y0043139D01*
X0020003Y0043810D01*
X0020003Y0043814D01*
X0020005Y0043816D01*
X0020005Y0044767D01*
X0020006Y0045187D01*
X0020598Y0045779D01*
X0020598Y0051994D01*
X0020005Y0052587D01*
X0020005Y0057918D01*
X0020096Y0057894D01*
X0021908Y0057894D01*
X0021908Y0061268D01*
X0021908Y0061268D01*
X0021908Y0057894D01*
X0023720Y0057894D01*
X0024178Y0058016D01*
X0024588Y0058253D01*
X0024923Y0058588D01*
X0025160Y0058999D01*
X0025283Y0059457D01*
X0025283Y0061268D01*
X0021908Y0061268D01*
X0021908Y0061269D01*
X0021908Y0064643D01*
X0021333Y0064643D01*
X0024158Y0067469D01*
X0042503Y0067469D01*
X0046156Y0063816D01*
X0046903Y0063068D01*
X0046361Y0063610D02*
X0042762Y0063610D01*
X0044762Y0065209D02*
X0021899Y0065209D01*
X0021908Y0064643D02*
X0021908Y0061269D01*
X0021908Y0061269D01*
X0025283Y0061269D01*
X0025283Y0063080D01*
X0025160Y0063538D01*
X0024923Y0063949D01*
X0024588Y0064284D01*
X0024178Y0064521D01*
X0023720Y0064643D01*
X0021908Y0064643D01*
X0021908Y0063610D02*
X0021908Y0063610D01*
X0021908Y0062012D02*
X0021908Y0062012D01*
X0021908Y0060413D02*
X0021908Y0060413D01*
X0021908Y0058815D02*
X0021908Y0058815D01*
X0020005Y0057216D02*
X0030406Y0057216D01*
X0030406Y0055618D02*
X0020005Y0055618D01*
X0020005Y0054019D02*
X0030406Y0054019D01*
X0030406Y0052421D02*
X0027652Y0052421D01*
X0028078Y0051994D02*
X0027024Y0053049D01*
X0023367Y0053049D01*
X0022313Y0051994D01*
X0022313Y0045779D01*
X0023367Y0044724D01*
X0027024Y0044724D01*
X0028078Y0045779D01*
X0028078Y0051994D01*
X0028078Y0050822D02*
X0030406Y0050822D01*
X0030406Y0049224D02*
X0028078Y0049224D01*
X0028078Y0047625D02*
X0030406Y0047625D01*
X0030406Y0046027D02*
X0028078Y0046027D01*
X0030406Y0044428D02*
X0020005Y0044428D01*
X0020598Y0046027D02*
X0022313Y0046027D01*
X0022313Y0047625D02*
X0020598Y0047625D01*
X0020598Y0049224D02*
X0022313Y0049224D01*
X0022313Y0050822D02*
X0020598Y0050822D01*
X0020172Y0052421D02*
X0022739Y0052421D01*
X0025054Y0058815D02*
X0030261Y0058815D01*
X0030128Y0060413D02*
X0025283Y0060413D01*
X0025283Y0062012D02*
X0030128Y0062012D01*
X0030150Y0063610D02*
X0025119Y0063610D01*
X0023497Y0066807D02*
X0043164Y0066807D01*
X0045755Y0070721D02*
X0045755Y0076566D01*
X0050100Y0080911D01*
X0050100Y0078672D01*
X0051131Y0076184D01*
X0051457Y0075859D01*
X0051457Y0072341D01*
X0051457Y0068104D01*
X0051579Y0067647D01*
X0051816Y0067236D01*
X0051984Y0067068D01*
X0049408Y0067068D01*
X0045755Y0070721D01*
X0045755Y0070721D01*
X0045755Y0071603D02*
X0051457Y0071603D01*
X0051457Y0072341D02*
X0054507Y0072341D01*
X0054507Y0072341D01*
X0051457Y0072341D01*
X0051457Y0073202D02*
X0045755Y0073202D01*
X0045755Y0074800D02*
X0051457Y0074800D01*
X0051042Y0076399D02*
X0045755Y0076399D01*
X0047187Y0077997D02*
X0050380Y0077997D01*
X0050100Y0079596D02*
X0048785Y0079596D01*
X0047075Y0084391D02*
X0020005Y0084391D01*
X0020005Y0082793D02*
X0045477Y0082793D01*
X0043878Y0081194D02*
X0020005Y0081194D01*
X0020005Y0081080D02*
X0020005Y0086469D01*
X0039632Y0086469D01*
X0040553Y0085547D01*
X0041950Y0084969D01*
X0043461Y0084969D01*
X0044858Y0085547D01*
X0045927Y0086616D01*
X0046505Y0088013D01*
X0046505Y0089524D01*
X0045927Y0090921D01*
X0044858Y0091990D01*
X0043461Y0092568D01*
X0041950Y0092568D01*
X0040553Y0091990D01*
X0039632Y0091068D01*
X0020005Y0091068D01*
X0020005Y0091654D01*
X0021079Y0091654D01*
X0022133Y0092708D01*
X0022133Y0098924D01*
X0021079Y0099978D01*
X0013486Y0099978D01*
X0012431Y0098924D01*
X0012431Y0092708D01*
X0013486Y0091654D01*
X0015406Y0091654D01*
X0015406Y0081080D01*
X0013879Y0081080D01*
X0012825Y0080026D01*
X0012825Y0073810D01*
X0013879Y0072756D01*
X0021473Y0072756D01*
X0022527Y0073810D01*
X0022527Y0080026D01*
X0021473Y0081080D01*
X0020005Y0081080D01*
X0022527Y0079596D02*
X0031350Y0079596D01*
X0031329Y0079517D02*
X0031329Y0077299D01*
X0035799Y0077299D01*
X0035799Y0076537D01*
X0036561Y0076537D01*
X0036561Y0072756D01*
X0039468Y0072756D01*
X0039926Y0072879D01*
X0040336Y0073116D01*
X0040671Y0073451D01*
X0040908Y0073861D01*
X0041031Y0074319D01*
X0041031Y0076537D01*
X0036561Y0076537D01*
X0036561Y0077299D01*
X0041031Y0077299D01*
X0041031Y0079517D01*
X0040908Y0079975D01*
X0040671Y0080386D01*
X0040336Y0080721D01*
X0039926Y0080958D01*
X0039468Y0081080D01*
X0036561Y0081080D01*
X0036561Y0077299D01*
X0035799Y0077299D01*
X0035799Y0081080D01*
X0032892Y0081080D01*
X0032434Y0080958D01*
X0032024Y0080721D01*
X0031688Y0080386D01*
X0031451Y0079975D01*
X0031329Y0079517D01*
X0031329Y0077997D02*
X0022527Y0077997D01*
X0022527Y0076399D02*
X0031329Y0076399D01*
X0031329Y0076537D02*
X0031329Y0074319D01*
X0031451Y0073861D01*
X0031688Y0073451D01*
X0032024Y0073116D01*
X0032434Y0072879D01*
X0032892Y0072756D01*
X0035799Y0072756D01*
X0035799Y0076537D01*
X0031329Y0076537D01*
X0031329Y0074800D02*
X0022527Y0074800D01*
X0021918Y0073202D02*
X0031938Y0073202D01*
X0035799Y0073202D02*
X0036561Y0073202D01*
X0036561Y0074800D02*
X0035799Y0074800D01*
X0035799Y0076399D02*
X0036561Y0076399D01*
X0036561Y0077997D02*
X0035799Y0077997D01*
X0035799Y0079596D02*
X0036561Y0079596D01*
X0040110Y0085990D02*
X0020005Y0085990D01*
X0015406Y0085990D02*
X0008755Y0085990D01*
X0008755Y0087588D02*
X0015406Y0087588D01*
X0015406Y0089187D02*
X0008755Y0089187D01*
X0008755Y0090785D02*
X0015406Y0090785D01*
X0012755Y0092384D02*
X0008755Y0092384D01*
X0008755Y0093982D02*
X0012431Y0093982D01*
X0012431Y0095581D02*
X0008755Y0095581D01*
X0008755Y0097179D02*
X0012431Y0097179D01*
X0012431Y0098778D02*
X0008755Y0098778D01*
X0008755Y0100376D02*
X0016872Y0100376D01*
X0017025Y0100313D02*
X0020886Y0100313D01*
X0024453Y0101791D01*
X0027183Y0104521D01*
X0028661Y0108088D01*
X0028661Y0111949D01*
X0027183Y0115516D01*
X0024453Y0118246D01*
X0020886Y0119724D01*
X0017025Y0119724D01*
X0013458Y0118246D01*
X0010728Y0115516D01*
X0009250Y0111949D01*
X0009250Y0108088D01*
X0010728Y0104521D01*
X0013458Y0101791D01*
X0017025Y0100313D01*
X0013274Y0101975D02*
X0008755Y0101975D01*
X0008755Y0103573D02*
X0011675Y0103573D01*
X0010458Y0105172D02*
X0008755Y0105172D01*
X0008755Y0106770D02*
X0009796Y0106770D01*
X0009250Y0108369D02*
X0008755Y0108369D01*
X0008755Y0109967D02*
X0009250Y0109967D01*
X0009250Y0111566D02*
X0008755Y0111566D01*
X0008755Y0113164D02*
X0009753Y0113164D01*
X0010416Y0114763D02*
X0008755Y0114763D01*
X0008755Y0116361D02*
X0011573Y0116361D01*
X0013171Y0117960D02*
X0008755Y0117960D01*
X0008755Y0119558D02*
X0016625Y0119558D01*
X0021286Y0119558D02*
X0029906Y0119558D01*
X0030168Y0121157D02*
X0008798Y0121157D01*
X0008858Y0122755D02*
X0031318Y0122755D01*
X0030628Y0124354D02*
X0029783Y0124354D01*
X0030342Y0117960D02*
X0024740Y0117960D01*
X0026338Y0116361D02*
X0031406Y0116361D01*
X0031406Y0114763D02*
X0027496Y0114763D01*
X0028158Y0113164D02*
X0031406Y0113164D01*
X0031406Y0111566D02*
X0028661Y0111566D01*
X0028661Y0109967D02*
X0031406Y0109967D01*
X0031406Y0108369D02*
X0028661Y0108369D01*
X0028115Y0106770D02*
X0032451Y0106770D01*
X0034050Y0105172D02*
X0027453Y0105172D01*
X0026236Y0103573D02*
X0035648Y0103573D01*
X0037247Y0101975D02*
X0024637Y0101975D01*
X0022133Y0098778D02*
X0031426Y0098778D01*
X0031329Y0097179D02*
X0022133Y0097179D01*
X0022133Y0095581D02*
X0035799Y0095581D01*
X0036561Y0095581D02*
X0043641Y0095581D01*
X0045239Y0093982D02*
X0041031Y0093982D01*
X0041031Y0093217D02*
X0041031Y0095435D01*
X0036561Y0095435D01*
X0036561Y0091654D01*
X0039468Y0091654D01*
X0039926Y0091776D01*
X0040336Y0092013D01*
X0040671Y0092348D01*
X0040908Y0092759D01*
X0041031Y0093217D01*
X0040692Y0092384D02*
X0041503Y0092384D01*
X0043908Y0092384D02*
X0046838Y0092384D01*
X0045983Y0090785D02*
X0048436Y0090785D01*
X0050035Y0089187D02*
X0046505Y0089187D01*
X0046330Y0087588D02*
X0050272Y0087588D01*
X0048674Y0085990D02*
X0045301Y0085990D01*
X0042280Y0079596D02*
X0041010Y0079596D01*
X0041031Y0077997D02*
X0041156Y0077997D01*
X0041156Y0076399D02*
X0041031Y0076399D01*
X0041031Y0074800D02*
X0041156Y0074800D01*
X0041156Y0073202D02*
X0040422Y0073202D01*
X0046472Y0070004D02*
X0051457Y0070004D01*
X0051457Y0068406D02*
X0048071Y0068406D01*
X0061093Y0055903D02*
X0062005Y0056816D01*
X0062005Y0058360D01*
X0062950Y0057969D01*
X0064461Y0057969D01*
X0065858Y0058547D01*
X0066927Y0059616D01*
X0067505Y0061013D01*
X0067505Y0062524D01*
X0066927Y0063921D01*
X0066005Y0064843D01*
X0066005Y0065721D01*
X0065185Y0066541D01*
X0065951Y0066541D01*
X0066416Y0067006D01*
X0066684Y0066738D01*
X0068483Y0066738D01*
X0070017Y0065204D01*
X0069484Y0064671D01*
X0068906Y0063274D01*
X0068906Y0061763D01*
X0069484Y0060366D01*
X0070553Y0059297D01*
X0071950Y0058719D01*
X0073461Y0058719D01*
X0074858Y0059297D01*
X0075927Y0060366D01*
X0076505Y0061763D01*
X0076505Y0063274D01*
X0075927Y0064671D01*
X0075005Y0065592D01*
X0075005Y0066721D01*
X0074988Y0066738D01*
X0075400Y0066738D01*
X0076454Y0067793D01*
X0076454Y0072265D01*
X0080005Y0075816D01*
X0080005Y0092721D01*
X0078658Y0094068D01*
X0074658Y0098068D01*
X0053908Y0098068D01*
X0043083Y0108894D01*
X0043441Y0109252D01*
X0043502Y0109105D01*
X0043774Y0108698D01*
X0044121Y0108351D01*
X0044529Y0108079D01*
X0044981Y0107891D01*
X0045462Y0107795D01*
X0048955Y0107795D01*
X0048955Y0110579D01*
X0048956Y0110579D01*
X0048956Y0107795D01*
X0052449Y0107795D01*
X0052930Y0107891D01*
X0053383Y0108079D01*
X0053790Y0108351D01*
X0054045Y0108606D01*
X0054045Y0103687D01*
X0054424Y0102772D01*
X0055124Y0102072D01*
X0056039Y0101693D01*
X0057620Y0101693D01*
X0058428Y0102028D01*
X0058505Y0101976D01*
X0058958Y0101789D01*
X0059439Y0101693D01*
X0059979Y0101693D01*
X0059979Y0107430D01*
X0059979Y0107430D01*
X0059979Y0101693D01*
X0060520Y0101693D01*
X0061000Y0101789D01*
X0061453Y0101976D01*
X0061530Y0102028D01*
X0062338Y0101693D01*
X0063919Y0101693D01*
X0064704Y0102018D01*
X0065488Y0101693D01*
X0067069Y0101693D01*
X0067853Y0102018D01*
X0068638Y0101693D01*
X0070218Y0101693D01*
X0071003Y0102018D01*
X0071787Y0101693D01*
X0073368Y0101693D01*
X0074283Y0102072D01*
X0074983Y0102772D01*
X0075362Y0103687D01*
X0075362Y0108258D01*
X0075631Y0108079D01*
X0076084Y0107891D01*
X0076565Y0107795D01*
X0080058Y0107795D01*
X0083551Y0107795D01*
X0084032Y0107891D01*
X0084485Y0108079D01*
X0084893Y0108351D01*
X0085239Y0108698D01*
X0085406Y0108947D01*
X0085406Y0067221D01*
X0073003Y0054818D01*
X0063570Y0054818D01*
X0063570Y0054849D01*
X0062516Y0055903D01*
X0061093Y0055903D01*
X0062005Y0057216D02*
X0075401Y0057216D01*
X0073802Y0055618D02*
X0062801Y0055618D01*
X0066126Y0058815D02*
X0071717Y0058815D01*
X0073694Y0058815D02*
X0076999Y0058815D01*
X0075947Y0060413D02*
X0078598Y0060413D01*
X0080196Y0062012D02*
X0076505Y0062012D01*
X0076366Y0063610D02*
X0081795Y0063610D01*
X0083393Y0065209D02*
X0075389Y0065209D01*
X0075469Y0066807D02*
X0084992Y0066807D01*
X0085406Y0068406D02*
X0076454Y0068406D01*
X0076454Y0070004D02*
X0085406Y0070004D01*
X0085406Y0071603D02*
X0076454Y0071603D01*
X0077391Y0073202D02*
X0085406Y0073202D01*
X0085406Y0074800D02*
X0078990Y0074800D01*
X0080005Y0076399D02*
X0085406Y0076399D01*
X0085406Y0077997D02*
X0080005Y0077997D01*
X0080005Y0079596D02*
X0085406Y0079596D01*
X0085406Y0081194D02*
X0080005Y0081194D01*
X0080005Y0082793D02*
X0085406Y0082793D01*
X0085406Y0084391D02*
X0080005Y0084391D01*
X0080005Y0085990D02*
X0085406Y0085990D01*
X0085406Y0087588D02*
X0080005Y0087588D01*
X0080005Y0089187D02*
X0085406Y0089187D01*
X0085406Y0090785D02*
X0080005Y0090785D01*
X0080005Y0092384D02*
X0085406Y0092384D01*
X0085406Y0093982D02*
X0078745Y0093982D01*
X0077146Y0095581D02*
X0085406Y0095581D01*
X0085406Y0097179D02*
X0075548Y0097179D01*
X0074048Y0101975D02*
X0085406Y0101975D01*
X0085406Y0103573D02*
X0075315Y0103573D01*
X0075362Y0105172D02*
X0085406Y0105172D01*
X0085406Y0106770D02*
X0075362Y0106770D01*
X0080058Y0107795D02*
X0080058Y0110579D01*
X0080058Y0107795D01*
X0080058Y0108369D02*
X0080058Y0108369D01*
X0080058Y0109967D02*
X0080058Y0109967D01*
X0080058Y0110579D02*
X0080058Y0110579D01*
X0084910Y0108369D02*
X0085406Y0108369D01*
X0090005Y0108369D02*
X0091906Y0108369D01*
X0091906Y0109967D02*
X0090005Y0109967D01*
X0090005Y0111566D02*
X0091906Y0111566D01*
X0091906Y0113164D02*
X0090005Y0113164D01*
X0090005Y0114763D02*
X0091906Y0114763D01*
X0091906Y0116361D02*
X0090005Y0116361D01*
X0090005Y0117960D02*
X0091906Y0117960D01*
X0090663Y0119558D02*
X0090005Y0119558D01*
X0092373Y0124354D02*
X0118969Y0124354D01*
X0119053Y0122755D02*
X0093971Y0122755D01*
X0095570Y0121157D02*
X0119113Y0121157D01*
X0119156Y0119558D02*
X0111286Y0119558D01*
X0110886Y0119724D02*
X0107025Y0119724D01*
X0103458Y0118246D01*
X0100728Y0115516D01*
X0099250Y0111949D01*
X0099250Y0108088D01*
X0100728Y0104521D01*
X0103458Y0101791D01*
X0107025Y0100313D01*
X0110886Y0100313D01*
X0114453Y0101791D01*
X0117183Y0104521D01*
X0118661Y0108088D01*
X0118661Y0111949D01*
X0117183Y0115516D01*
X0114453Y0118246D01*
X0110886Y0119724D01*
X0114740Y0117960D02*
X0119156Y0117960D01*
X0119156Y0116361D02*
X0116338Y0116361D01*
X0117496Y0114763D02*
X0119156Y0114763D01*
X0119156Y0113164D02*
X0118158Y0113164D01*
X0118661Y0111566D02*
X0119156Y0111566D01*
X0119156Y0109967D02*
X0118661Y0109967D01*
X0118661Y0108369D02*
X0119156Y0108369D01*
X0119156Y0106770D02*
X0118115Y0106770D01*
X0117453Y0105172D02*
X0119156Y0105172D01*
X0119156Y0103573D02*
X0116236Y0103573D01*
X0114637Y0101975D02*
X0119156Y0101975D01*
X0119156Y0100376D02*
X0111039Y0100376D01*
X0106872Y0100376D02*
X0103350Y0100376D01*
X0103274Y0101975D02*
X0101752Y0101975D01*
X0101675Y0103573D02*
X0100153Y0103573D01*
X0100458Y0105172D02*
X0098555Y0105172D01*
X0099796Y0106770D02*
X0096956Y0106770D01*
X0096505Y0108369D02*
X0099250Y0108369D01*
X0099250Y0109967D02*
X0096505Y0109967D01*
X0096505Y0111566D02*
X0099250Y0111566D01*
X0099753Y0113164D02*
X0096505Y0113164D01*
X0096505Y0114763D02*
X0100416Y0114763D01*
X0101573Y0116361D02*
X0096505Y0116361D01*
X0096505Y0117960D02*
X0103171Y0117960D01*
X0106625Y0119558D02*
X0096505Y0119558D01*
X0098882Y0125952D02*
X0099029Y0125952D01*
X0104787Y0125952D02*
X0118729Y0125952D01*
X0118488Y0127551D02*
X0105283Y0127551D01*
X0105283Y0129149D02*
X0118247Y0129149D01*
X0118006Y0130748D02*
X0105283Y0130748D01*
X0104255Y0132346D02*
X0117758Y0132346D01*
X0117265Y0133945D02*
X0104255Y0133945D01*
X0104255Y0135543D02*
X0116772Y0135543D01*
X0116278Y0137142D02*
X0104727Y0137142D01*
X0105283Y0138740D02*
X0115785Y0138740D01*
X0115266Y0140339D02*
X0105283Y0140339D01*
X0105283Y0141938D02*
X0114496Y0141938D01*
X0113726Y0143536D02*
X0091233Y0143536D01*
X0091755Y0141938D02*
X0092657Y0141938D01*
X0092628Y0141830D02*
X0092628Y0140019D01*
X0096003Y0140019D01*
X0096003Y0143393D01*
X0094191Y0143393D01*
X0093733Y0143271D01*
X0093323Y0143034D01*
X0092988Y0142699D01*
X0092751Y0142288D01*
X0092628Y0141830D01*
X0092628Y0140339D02*
X0091580Y0140339D01*
X0090551Y0138740D02*
X0092628Y0138740D01*
X0093184Y0137142D02*
X0085557Y0137142D01*
X0085795Y0135543D02*
X0099656Y0135543D01*
X0099656Y0133945D02*
X0085782Y0133945D01*
X0087380Y0132346D02*
X0099656Y0132346D01*
X0099090Y0137142D02*
X0098821Y0137142D01*
X0096003Y0137142D02*
X0096003Y0137142D01*
X0096003Y0138740D02*
X0096003Y0138740D01*
X0096003Y0140339D02*
X0096003Y0140339D01*
X0096003Y0141938D02*
X0096003Y0141938D01*
X0089156Y0145135D02*
X0112956Y0145135D01*
X0093124Y0125952D02*
X0090774Y0125952D01*
X0090005Y0106770D02*
X0091906Y0106770D01*
X0092050Y0105172D02*
X0090005Y0105172D01*
X0090005Y0103573D02*
X0093648Y0103573D01*
X0095247Y0101975D02*
X0090005Y0101975D01*
X0090005Y0100376D02*
X0096845Y0100376D01*
X0098444Y0098778D02*
X0090005Y0098778D01*
X0090005Y0097179D02*
X0100042Y0097179D01*
X0101641Y0095581D02*
X0090005Y0095581D01*
X0090005Y0093982D02*
X0103239Y0093982D01*
X0104838Y0092384D02*
X0090005Y0092384D01*
X0085406Y0098778D02*
X0053199Y0098778D01*
X0051600Y0100376D02*
X0085406Y0100376D01*
X0074321Y0113164D02*
X0073374Y0113164D01*
X0071781Y0113164D02*
X0070225Y0113164D01*
X0068631Y0113164D02*
X0067075Y0113164D01*
X0065482Y0113164D02*
X0063925Y0113164D01*
X0062332Y0113164D02*
X0060533Y0113164D01*
X0059979Y0113164D02*
X0059979Y0113164D01*
X0059426Y0113164D02*
X0057626Y0113164D01*
X0056033Y0113164D02*
X0054693Y0113164D01*
X0054592Y0114763D02*
X0074422Y0114763D01*
X0074321Y0116361D02*
X0054693Y0116361D01*
X0054572Y0117960D02*
X0074441Y0117960D01*
X0074321Y0119558D02*
X0054693Y0119558D01*
X0054552Y0121157D02*
X0074461Y0121157D01*
X0074321Y0122755D02*
X0054693Y0122755D01*
X0054533Y0124354D02*
X0061746Y0124354D01*
X0060638Y0125952D02*
X0054693Y0125952D01*
X0054513Y0127551D02*
X0060406Y0127551D01*
X0059072Y0129149D02*
X0054693Y0129149D01*
X0054494Y0130748D02*
X0057473Y0130748D01*
X0055875Y0132346D02*
X0054693Y0132346D01*
X0057585Y0137142D02*
X0066765Y0137142D01*
X0066406Y0135543D02*
X0059183Y0135543D01*
X0060782Y0133945D02*
X0066744Y0133945D01*
X0068004Y0132346D02*
X0062380Y0132346D01*
X0065735Y0130748D02*
X0074520Y0130748D01*
X0074321Y0132346D02*
X0072407Y0132346D01*
X0074321Y0129149D02*
X0067539Y0129149D01*
X0068005Y0127551D02*
X0074500Y0127551D01*
X0074321Y0125952D02*
X0067773Y0125952D01*
X0066665Y0124354D02*
X0074481Y0124354D01*
X0074321Y0138740D02*
X0072357Y0138740D01*
X0074579Y0140339D02*
X0054435Y0140339D01*
X0054693Y0141938D02*
X0074321Y0141938D01*
X0074598Y0143536D02*
X0054415Y0143536D01*
X0054693Y0145135D02*
X0074321Y0145135D01*
X0068054Y0138740D02*
X0055986Y0138740D01*
X0054387Y0146733D02*
X0058700Y0146733D01*
X0058700Y0148332D02*
X0054693Y0148332D01*
X0054355Y0149930D02*
X0058700Y0149930D01*
X0058700Y0151529D02*
X0054693Y0151529D01*
X0054693Y0151524D02*
X0054693Y0152065D01*
X0054597Y0152546D01*
X0054409Y0152999D01*
X0054342Y0153099D01*
X0054409Y0153200D01*
X0054597Y0153653D01*
X0054693Y0154134D01*
X0054692Y0154674D01*
X0048956Y0154674D01*
X0054693Y0154674D01*
X0054693Y0155214D01*
X0054597Y0155695D01*
X0054409Y0156148D01*
X0054381Y0156190D01*
X0054409Y0156231D01*
X0054597Y0156684D01*
X0054693Y0157165D01*
X0054692Y0157705D01*
X0048956Y0157705D01*
X0048956Y0157706D01*
X0054693Y0157706D01*
X0054693Y0158246D01*
X0054597Y0158727D01*
X0054409Y0159180D01*
X0054381Y0159221D01*
X0054409Y0159263D01*
X0054597Y0159716D01*
X0054693Y0160197D01*
X0054692Y0160737D01*
X0048956Y0160737D01*
X0054693Y0160737D01*
X0054693Y0161277D01*
X0054597Y0161758D01*
X0054409Y0162211D01*
X0054381Y0162253D01*
X0054409Y0162294D01*
X0054597Y0162747D01*
X0054693Y0163228D01*
X0054692Y0163768D01*
X0048956Y0163768D01*
X0048956Y0163769D01*
X0048955Y0163769D01*
X0048955Y0166553D01*
X0045462Y0166553D01*
X0044981Y0166457D01*
X0044529Y0166269D01*
X0044121Y0165997D01*
X0043774Y0165650D01*
X0043502Y0165243D01*
X0043314Y0164790D01*
X0043219Y0164309D01*
X0043219Y0163769D01*
X0048955Y0163769D01*
X0048955Y0163768D01*
X0043219Y0163768D01*
X0043219Y0163228D01*
X0043314Y0162747D01*
X0043502Y0162294D01*
X0043530Y0162253D01*
X0043502Y0162211D01*
X0043314Y0161758D01*
X0043219Y0161277D01*
X0043219Y0160737D01*
X0043219Y0160197D01*
X0043314Y0159716D01*
X0043502Y0159263D01*
X0043530Y0159221D01*
X0043502Y0159180D01*
X0043314Y0158727D01*
X0043219Y0158246D01*
X0043219Y0157706D01*
X0048955Y0157706D01*
X0048955Y0160737D01*
X0043219Y0160737D01*
X0048955Y0160737D01*
X0048955Y0160737D01*
X0048955Y0160984D01*
X0048955Y0163768D01*
X0048956Y0163768D01*
X0048956Y0160737D01*
X0048956Y0160737D01*
X0048955Y0160737D01*
X0048956Y0160737D01*
X0048956Y0157953D01*
X0048956Y0157706D01*
X0048955Y0157706D01*
X0048955Y0157705D01*
X0043219Y0157705D01*
X0043219Y0157165D01*
X0043314Y0156684D01*
X0043502Y0156231D01*
X0043530Y0156190D01*
X0043502Y0156148D01*
X0043314Y0155695D01*
X0043219Y0155214D01*
X0043219Y0154674D01*
X0043219Y0154134D01*
X0043314Y0153653D01*
X0043502Y0153200D01*
X0043569Y0153099D01*
X0043502Y0152999D01*
X0043314Y0152546D01*
X0043219Y0152065D01*
X0043219Y0151524D01*
X0048955Y0151524D01*
X0048955Y0151524D01*
X0048956Y0151524D01*
X0054693Y0151524D01*
X0054361Y0153127D02*
X0058700Y0153127D01*
X0058700Y0154726D02*
X0054693Y0154726D01*
X0054448Y0156324D02*
X0058700Y0156324D01*
X0058700Y0157923D02*
X0054693Y0157923D01*
X0054516Y0159521D02*
X0058700Y0159521D01*
X0058700Y0161120D02*
X0054693Y0161120D01*
X0054585Y0162718D02*
X0058700Y0162718D01*
X0058700Y0164317D02*
X0054691Y0164317D01*
X0054693Y0164309D02*
X0054597Y0164790D01*
X0054409Y0165243D01*
X0054137Y0165650D01*
X0053790Y0165997D01*
X0053383Y0166269D01*
X0052930Y0166457D01*
X0052449Y0166553D01*
X0048956Y0166553D01*
X0048956Y0163769D01*
X0054693Y0163769D01*
X0054693Y0164309D01*
X0053872Y0165915D02*
X0058700Y0165915D01*
X0058700Y0167514D02*
X0036128Y0167514D01*
X0033360Y0165915D02*
X0044039Y0165915D01*
X0043220Y0164317D02*
X0031217Y0164317D01*
X0029213Y0162718D02*
X0043326Y0162718D01*
X0043219Y0161120D02*
X0027208Y0161120D01*
X0025518Y0159521D02*
X0043395Y0159521D01*
X0043219Y0157923D02*
X0024034Y0157923D01*
X0022551Y0156324D02*
X0043463Y0156324D01*
X0043219Y0154726D02*
X0021068Y0154726D01*
X0019907Y0153127D02*
X0043550Y0153127D01*
X0043219Y0154674D02*
X0048955Y0154674D01*
X0048955Y0154674D01*
X0043219Y0154674D01*
X0043219Y0151529D02*
X0018817Y0151529D01*
X0017727Y0149930D02*
X0043556Y0149930D01*
X0043219Y0148332D02*
X0016637Y0148332D01*
X0015724Y0146733D02*
X0039296Y0146733D01*
X0038158Y0145135D02*
X0014955Y0145135D01*
X0014185Y0143536D02*
X0037906Y0143536D01*
X0036622Y0141938D02*
X0035572Y0141938D01*
X0033158Y0141938D02*
X0033158Y0141938D01*
X0033158Y0140339D02*
X0033158Y0140339D01*
X0030745Y0141938D02*
X0029779Y0141938D01*
X0024727Y0141938D02*
X0013415Y0141938D01*
X0012645Y0140339D02*
X0023878Y0140339D01*
X0023878Y0138740D02*
X0012126Y0138740D01*
X0011633Y0137142D02*
X0023878Y0137142D01*
X0024783Y0135543D02*
X0011139Y0135543D01*
X0010646Y0133945D02*
X0025406Y0133945D01*
X0025406Y0132346D02*
X0010153Y0132346D01*
X0009905Y0130748D02*
X0024787Y0130748D01*
X0023878Y0129149D02*
X0009664Y0129149D01*
X0009423Y0127551D02*
X0023878Y0127551D01*
X0023878Y0125952D02*
X0009182Y0125952D01*
X0008942Y0124354D02*
X0024722Y0124354D01*
X0021039Y0100376D02*
X0038845Y0100376D01*
X0036561Y0098778D02*
X0035799Y0098778D01*
X0035799Y0097179D02*
X0036561Y0097179D01*
X0036561Y0093982D02*
X0035799Y0093982D01*
X0035799Y0092384D02*
X0036561Y0092384D01*
X0031668Y0092384D02*
X0021809Y0092384D01*
X0022133Y0093982D02*
X0031329Y0093982D01*
X0041031Y0097179D02*
X0042042Y0097179D01*
X0046805Y0105172D02*
X0054045Y0105172D01*
X0054045Y0106770D02*
X0045206Y0106770D01*
X0044103Y0108369D02*
X0043608Y0108369D01*
X0048403Y0103573D02*
X0054092Y0103573D01*
X0055359Y0101975D02*
X0050002Y0101975D01*
X0048956Y0108369D02*
X0048955Y0108369D01*
X0048955Y0109967D02*
X0048956Y0109967D01*
X0053808Y0108369D02*
X0054045Y0108369D01*
X0058300Y0101975D02*
X0058508Y0101975D01*
X0059979Y0101975D02*
X0059979Y0101975D01*
X0061450Y0101975D02*
X0061658Y0101975D01*
X0059979Y0103573D02*
X0059979Y0103573D01*
X0059979Y0105172D02*
X0059979Y0105172D01*
X0059979Y0106770D02*
X0059979Y0106770D01*
X0059979Y0108369D02*
X0059979Y0108369D01*
X0059979Y0109967D02*
X0059979Y0109967D01*
X0059979Y0111566D02*
X0059979Y0111566D01*
X0064599Y0101975D02*
X0064808Y0101975D01*
X0067749Y0101975D02*
X0067957Y0101975D01*
X0070899Y0101975D02*
X0071107Y0101975D01*
X0066615Y0066807D02*
X0066217Y0066807D01*
X0066005Y0065209D02*
X0070012Y0065209D01*
X0069045Y0063610D02*
X0067056Y0063610D01*
X0067505Y0062012D02*
X0068906Y0062012D01*
X0069464Y0060413D02*
X0067257Y0060413D01*
X0076914Y0049224D02*
X0119156Y0049224D01*
X0119156Y0050822D02*
X0078512Y0050822D01*
X0080111Y0052421D02*
X0119156Y0052421D01*
X0119156Y0054019D02*
X0081709Y0054019D01*
X0083308Y0055618D02*
X0119156Y0055618D01*
X0119156Y0057216D02*
X0084906Y0057216D01*
X0086505Y0058815D02*
X0119156Y0058815D01*
X0119156Y0060413D02*
X0107476Y0060413D01*
X0108784Y0062012D02*
X0119156Y0062012D01*
X0119156Y0063610D02*
X0109183Y0063610D01*
X0108915Y0065209D02*
X0119156Y0065209D01*
X0119156Y0066807D02*
X0108303Y0066807D01*
X0108303Y0068406D02*
X0119156Y0068406D01*
X0119156Y0070004D02*
X0115089Y0070004D01*
X0115283Y0071603D02*
X0119156Y0071603D01*
X0119156Y0073202D02*
X0115283Y0073202D01*
X0115283Y0074800D02*
X0119156Y0074800D01*
X0119156Y0076399D02*
X0114005Y0076399D01*
X0114005Y0077997D02*
X0119156Y0077997D01*
X0119156Y0079596D02*
X0114005Y0079596D01*
X0114005Y0081194D02*
X0119156Y0081194D01*
X0119156Y0082793D02*
X0114005Y0082793D01*
X0114005Y0084391D02*
X0119156Y0084391D01*
X0119156Y0085990D02*
X0114825Y0085990D01*
X0115283Y0087588D02*
X0119156Y0087588D01*
X0119156Y0089187D02*
X0115283Y0089187D01*
X0115283Y0090785D02*
X0119156Y0090785D01*
X0119156Y0092384D02*
X0111343Y0092384D01*
X0109745Y0093982D02*
X0119156Y0093982D01*
X0119156Y0095581D02*
X0108146Y0095581D01*
X0106548Y0097179D02*
X0119156Y0097179D01*
X0119156Y0098778D02*
X0104949Y0098778D01*
X0102683Y0090785D02*
X0100283Y0090785D01*
X0100283Y0089187D02*
X0102628Y0089187D01*
X0102628Y0087588D02*
X0100283Y0087588D01*
X0099825Y0085990D02*
X0103086Y0085990D01*
X0106003Y0085990D02*
X0106003Y0085990D01*
X0106003Y0087588D02*
X0106003Y0087588D01*
X0108919Y0085990D02*
X0108992Y0085990D01*
X0109406Y0084391D02*
X0099208Y0084391D01*
X0099208Y0082793D02*
X0109406Y0082793D01*
X0109406Y0081194D02*
X0099208Y0081194D01*
X0099208Y0079596D02*
X0109406Y0079596D01*
X0109406Y0077997D02*
X0099208Y0077997D01*
X0099208Y0076399D02*
X0109406Y0076399D01*
X0102822Y0070004D02*
X0100089Y0070004D01*
X0100283Y0071603D02*
X0102628Y0071603D01*
X0102628Y0073202D02*
X0100283Y0073202D01*
X0100283Y0074800D02*
X0102628Y0074800D01*
X0103703Y0068406D02*
X0096096Y0068406D01*
X0094497Y0066807D02*
X0102619Y0066807D01*
X0101496Y0065209D02*
X0092899Y0065209D01*
X0091300Y0063610D02*
X0101228Y0063610D01*
X0101627Y0062012D02*
X0089702Y0062012D01*
X0088103Y0060413D02*
X0102935Y0060413D01*
X0119156Y0047625D02*
X0075315Y0047625D01*
X0077201Y0042027D02*
X0076559Y0041700D01*
X0075977Y0041277D01*
X0075468Y0040768D01*
X0075045Y0040186D01*
X0074719Y0039545D01*
X0074496Y0038861D01*
X0074384Y0038150D01*
X0074384Y0035104D01*
X0078870Y0035104D01*
X0078870Y0034933D01*
X0079041Y0034933D01*
X0079041Y0027675D01*
X0079315Y0027675D01*
X0080026Y0027788D01*
X0080710Y0028010D01*
X0081352Y0028337D01*
X0081934Y0028760D01*
X0082443Y0029269D01*
X0082866Y0029851D01*
X0083192Y0030492D01*
X0083415Y0031176D01*
X0083527Y0031887D01*
X0083527Y0034933D01*
X0079041Y0034933D01*
X0079041Y0035104D01*
X0083527Y0035104D01*
X0083527Y0038150D01*
X0083415Y0038861D01*
X0083192Y0039545D01*
X0082866Y0040186D01*
X0082443Y0040768D01*
X0081934Y0041277D01*
X0081352Y0041700D01*
X0080710Y0042027D01*
X0080026Y0042249D01*
X0079315Y0042362D01*
X0079041Y0042362D01*
X0079041Y0035104D01*
X0078870Y0035104D01*
X0078870Y0042362D01*
X0078596Y0042362D01*
X0077885Y0042249D01*
X0077201Y0042027D01*
X0075931Y0041231D02*
X0071980Y0041231D01*
X0073141Y0039633D02*
X0074763Y0039633D01*
X0074384Y0038034D02*
X0073527Y0038034D01*
X0073527Y0036436D02*
X0074384Y0036436D01*
X0074384Y0034933D02*
X0074384Y0031887D01*
X0074496Y0031176D01*
X0074719Y0030492D01*
X0075045Y0029851D01*
X0075468Y0029269D01*
X0075977Y0028760D01*
X0076559Y0028337D01*
X0077201Y0028010D01*
X0077885Y0027788D01*
X0078596Y0027675D01*
X0078870Y0027675D01*
X0078870Y0034933D01*
X0074384Y0034933D01*
X0074384Y0034837D02*
X0073527Y0034837D01*
X0073527Y0033239D02*
X0074384Y0033239D01*
X0074423Y0031640D02*
X0073527Y0031640D01*
X0072990Y0030042D02*
X0074948Y0030042D01*
X0076413Y0028443D02*
X0071617Y0028443D01*
X0070284Y0026845D02*
X0102056Y0026845D01*
X0100728Y0025516D02*
X0099250Y0021949D01*
X0099250Y0018088D01*
X0100728Y0014521D01*
X0103458Y0011791D01*
X0107025Y0010313D01*
X0110886Y0010313D01*
X0114453Y0011791D01*
X0117183Y0014521D01*
X0118661Y0018088D01*
X0118661Y0021949D01*
X0117183Y0025516D01*
X0114453Y0028246D01*
X0110886Y0029724D01*
X0107025Y0029724D01*
X0103458Y0028246D01*
X0100728Y0025516D01*
X0100616Y0025246D02*
X0068686Y0025246D01*
X0067087Y0023648D02*
X0099954Y0023648D01*
X0099291Y0022049D02*
X0028620Y0022049D01*
X0028661Y0020451D02*
X0099250Y0020451D01*
X0099250Y0018852D02*
X0028661Y0018852D01*
X0028315Y0017254D02*
X0099596Y0017254D01*
X0100258Y0015655D02*
X0027653Y0015655D01*
X0026719Y0014057D02*
X0101192Y0014057D01*
X0102790Y0012458D02*
X0025121Y0012458D01*
X0022206Y0010860D02*
X0105705Y0010860D01*
X0112206Y0010860D02*
X0113317Y0010860D01*
X0115121Y0012458D02*
X0115697Y0012458D01*
X0116719Y0014057D02*
X0117191Y0014057D01*
X0117653Y0015655D02*
X0118113Y0015655D01*
X0118315Y0017254D02*
X0118684Y0017254D01*
X0118661Y0018852D02*
X0119079Y0018852D01*
X0119156Y0020451D02*
X0118661Y0020451D01*
X0118620Y0022049D02*
X0119156Y0022049D01*
X0119156Y0023648D02*
X0117957Y0023648D01*
X0117295Y0025246D02*
X0119156Y0025246D01*
X0119156Y0026845D02*
X0115855Y0026845D01*
X0113978Y0028443D02*
X0119156Y0028443D01*
X0119156Y0030042D02*
X0082963Y0030042D01*
X0083488Y0031640D02*
X0119156Y0031640D01*
X0119156Y0033239D02*
X0083527Y0033239D01*
X0083527Y0034837D02*
X0119156Y0034837D01*
X0119156Y0036436D02*
X0083527Y0036436D01*
X0083527Y0038034D02*
X0119156Y0038034D01*
X0119156Y0039633D02*
X0083148Y0039633D01*
X0081980Y0041231D02*
X0119156Y0041231D01*
X0119156Y0042830D02*
X0055821Y0042830D01*
X0054584Y0044428D02*
X0119156Y0044428D01*
X0119156Y0046027D02*
X0053348Y0046027D01*
X0052111Y0047625D02*
X0054596Y0047625D01*
X0053715Y0038034D02*
X0053527Y0038034D01*
X0053527Y0036436D02*
X0054384Y0036436D01*
X0054384Y0034837D02*
X0053527Y0034837D01*
X0053527Y0033239D02*
X0054384Y0033239D01*
X0054384Y0031640D02*
X0053527Y0031640D01*
X0052990Y0030042D02*
X0054921Y0030042D01*
X0056294Y0028443D02*
X0051617Y0028443D01*
X0061617Y0028443D02*
X0065378Y0028443D01*
X0064921Y0030042D02*
X0062990Y0030042D01*
X0063527Y0031640D02*
X0064384Y0031640D01*
X0064384Y0033239D02*
X0063527Y0033239D01*
X0063527Y0034837D02*
X0064384Y0034837D01*
X0064384Y0036436D02*
X0063527Y0036436D01*
X0063527Y0038034D02*
X0064384Y0038034D01*
X0064770Y0039633D02*
X0063141Y0039633D01*
X0061980Y0041231D02*
X0065931Y0041231D01*
X0078870Y0041231D02*
X0079041Y0041231D01*
X0079041Y0039633D02*
X0078870Y0039633D01*
X0078870Y0038034D02*
X0079041Y0038034D01*
X0079041Y0036436D02*
X0078870Y0036436D01*
X0078870Y0034837D02*
X0079041Y0034837D01*
X0079041Y0033239D02*
X0078870Y0033239D01*
X0078870Y0031640D02*
X0079041Y0031640D01*
X0079041Y0030042D02*
X0078870Y0030042D01*
X0078870Y0028443D02*
X0079041Y0028443D01*
X0081498Y0028443D02*
X0103933Y0028443D01*
X0035626Y0031640D02*
X0026330Y0031640D01*
X0027255Y0033239D02*
X0034329Y0033239D01*
X0033033Y0034837D02*
X0027507Y0034837D01*
X0028078Y0036436D02*
X0031737Y0036436D01*
X0030406Y0041231D02*
X0028078Y0041231D01*
X0030406Y0042830D02*
X0019019Y0042830D01*
X0016390Y0042830D02*
X0008755Y0042830D01*
X0008755Y0044428D02*
X0015405Y0044428D01*
X0014833Y0046027D02*
X0008755Y0046027D01*
X0008755Y0047625D02*
X0014833Y0047625D01*
X0014833Y0049224D02*
X0008755Y0049224D01*
X0008755Y0050822D02*
X0014833Y0050822D01*
X0015259Y0052421D02*
X0008755Y0052421D01*
X0008755Y0054019D02*
X0015406Y0054019D01*
X0015406Y0055618D02*
X0008755Y0055618D01*
X0008755Y0057216D02*
X0015406Y0057216D01*
X0012761Y0058815D02*
X0008755Y0058815D01*
X0008755Y0060413D02*
X0012628Y0060413D01*
X0012628Y0062012D02*
X0008755Y0062012D01*
X0008755Y0063610D02*
X0012650Y0063610D01*
X0015393Y0065209D02*
X0008755Y0065209D01*
X0008755Y0066807D02*
X0016992Y0066807D01*
X0018590Y0068406D02*
X0008755Y0068406D01*
X0008755Y0070004D02*
X0020189Y0070004D01*
X0021787Y0071603D02*
X0008755Y0071603D01*
X0008755Y0073202D02*
X0013434Y0073202D01*
X0012825Y0074800D02*
X0008755Y0074800D01*
X0008755Y0076399D02*
X0012825Y0076399D01*
X0012825Y0077997D02*
X0008755Y0077997D01*
X0008755Y0079596D02*
X0012825Y0079596D01*
X0015406Y0081194D02*
X0008755Y0081194D01*
X0008755Y0082793D02*
X0015406Y0082793D01*
X0015406Y0084391D02*
X0008755Y0084391D01*
X0008755Y0041231D02*
X0014833Y0041231D01*
X0014833Y0039633D02*
X0008755Y0039633D01*
X0008755Y0038034D02*
X0014833Y0038034D01*
X0014833Y0036436D02*
X0008755Y0036436D01*
X0008755Y0034837D02*
X0015156Y0034837D01*
X0016063Y0033239D02*
X0008755Y0033239D01*
X0008755Y0031640D02*
X0016932Y0031640D01*
X0021455Y0039633D02*
X0021456Y0039633D01*
X0021455Y0041231D02*
X0021456Y0041231D01*
X0012790Y0012458D02*
X0012214Y0012458D01*
X0014594Y0010860D02*
X0015705Y0010860D01*
X0048955Y0145225D02*
X0048955Y0148009D01*
X0048955Y0148375D01*
X0048956Y0148375D01*
X0048956Y0145225D01*
X0048955Y0145225D01*
X0048955Y0146733D02*
X0048956Y0146733D01*
X0048955Y0148332D02*
X0048956Y0148332D01*
X0048955Y0149930D02*
X0048956Y0149930D01*
X0048955Y0151525D02*
X0048955Y0154309D01*
X0048955Y0154674D01*
X0048955Y0154921D01*
X0048955Y0157705D01*
X0048956Y0157705D01*
X0048956Y0154674D01*
X0048956Y0154674D01*
X0048955Y0154674D01*
X0048956Y0154674D01*
X0048956Y0151525D01*
X0048955Y0151525D01*
X0048955Y0151529D02*
X0048956Y0151529D01*
X0048955Y0153127D02*
X0048956Y0153127D01*
X0048955Y0154726D02*
X0048956Y0154726D01*
X0048955Y0156324D02*
X0048956Y0156324D01*
X0048955Y0157923D02*
X0048956Y0157923D01*
X0048955Y0159521D02*
X0048956Y0159521D01*
X0048955Y0161120D02*
X0048956Y0161120D01*
X0048955Y0162718D02*
X0048956Y0162718D01*
X0048955Y0164317D02*
X0048956Y0164317D01*
X0048955Y0165915D02*
X0048956Y0165915D01*
X0046521Y0172309D02*
X0058700Y0172309D01*
X0058700Y0170711D02*
X0042448Y0170711D01*
X0038897Y0169112D02*
X0058700Y0169112D01*
X0058700Y0173908D02*
X0052687Y0173908D01*
X0085795Y0145135D02*
X0086755Y0145135D01*
D20*
X0107706Y0132519D03*
X0081456Y0100019D03*
X0048956Y0070019D03*
X0027706Y0065019D03*
X0016456Y0070019D03*
X0027706Y0102519D03*
D21*
X0033706Y0108769D02*
X0053706Y0088769D01*
X0054704Y0087893D01*
X0053706Y0087769D01*
X0043456Y0077519D01*
X0043456Y0069769D01*
X0023206Y0069769D01*
X0015206Y0061769D01*
X0016003Y0061269D01*
X0017706Y0060769D01*
X0017706Y0044769D01*
X0017715Y0048887D01*
X0017715Y0038650D02*
X0017456Y0037769D01*
X0017456Y0035769D01*
X0018456Y0033519D01*
X0024956Y0033519D01*
X0025206Y0035019D01*
X0025196Y0038650D01*
X0025706Y0038769D01*
X0032706Y0038894D01*
X0043956Y0025019D01*
X0065206Y0025019D01*
X0068956Y0028769D01*
X0068956Y0035019D01*
X0073206Y0048769D02*
X0096206Y0071769D01*
X0096908Y0072519D01*
X0096908Y0088769D01*
X0091003Y0088769D02*
X0087706Y0088769D01*
X0087706Y0066269D01*
X0073956Y0052519D01*
X0060206Y0052519D01*
X0060196Y0052331D01*
X0056706Y0048769D02*
X0073206Y0048769D01*
X0063706Y0061769D02*
X0063706Y0064769D01*
X0059706Y0068769D01*
X0059706Y0071769D01*
X0059231Y0072341D01*
X0058706Y0064769D02*
X0059706Y0063769D01*
X0059706Y0057769D01*
X0053706Y0051769D01*
X0052715Y0052331D01*
X0053706Y0051769D02*
X0056706Y0048769D01*
X0048706Y0048269D02*
X0058956Y0035019D01*
X0048706Y0048269D02*
X0048706Y0060769D01*
X0039706Y0060769D01*
X0039408Y0061269D01*
X0033503Y0061269D02*
X0032706Y0060769D01*
X0032706Y0038894D01*
X0048706Y0060769D02*
X0055706Y0060769D01*
X0056456Y0060599D01*
X0058706Y0064769D02*
X0048456Y0064769D01*
X0043456Y0069769D01*
X0042706Y0088769D02*
X0017706Y0088769D01*
X0017706Y0077769D01*
X0017676Y0076918D01*
X0017706Y0088769D02*
X0017706Y0095769D01*
X0017282Y0095816D01*
X0033706Y0108769D02*
X0033706Y0119769D01*
X0033158Y0127519D02*
X0033706Y0127769D01*
X0033706Y0133769D01*
X0037706Y0137769D01*
X0037706Y0139769D01*
X0041706Y0143769D01*
X0044706Y0141769D02*
X0041706Y0138769D01*
X0041706Y0137769D01*
X0044706Y0135769D02*
X0037706Y0128769D01*
X0037706Y0108019D01*
X0051956Y0093769D01*
X0056706Y0093769D01*
X0058706Y0091769D01*
X0058706Y0088769D01*
X0059231Y0087893D01*
X0052956Y0095769D02*
X0073706Y0095769D01*
X0077706Y0091769D01*
X0077706Y0076769D01*
X0073706Y0072769D01*
X0073404Y0072538D01*
X0068680Y0072538D02*
X0068706Y0071769D01*
X0068706Y0069769D01*
X0072706Y0065769D01*
X0072706Y0062519D01*
X0090206Y0072519D02*
X0091003Y0072519D01*
X0090206Y0072519D02*
X0090206Y0073769D01*
X0091456Y0075019D01*
X0091456Y0080019D01*
X0087706Y0088769D02*
X0087706Y0122769D01*
X0084706Y0125769D01*
X0080706Y0125769D01*
X0080058Y0126328D01*
X0080058Y0129477D02*
X0080706Y0129769D01*
X0083706Y0129769D01*
X0094206Y0119269D01*
X0094206Y0106269D01*
X0111706Y0088769D01*
X0111908Y0088769D01*
X0111706Y0088769D02*
X0111706Y0072769D01*
X0111908Y0072519D01*
X0106003Y0072519D02*
X0106003Y0064566D01*
X0105206Y0063769D01*
X0101956Y0127769D02*
X0101908Y0128769D01*
X0101956Y0127769D02*
X0101956Y0138769D01*
X0101908Y0140019D01*
X0095956Y0129019D02*
X0096003Y0128769D01*
X0095956Y0129019D02*
X0087456Y0129019D01*
X0083706Y0132769D01*
X0080706Y0132769D01*
X0080058Y0132627D01*
X0080058Y0135776D02*
X0070463Y0135776D01*
X0070206Y0135519D01*
X0064206Y0127269D02*
X0052706Y0138769D01*
X0049706Y0138769D01*
X0048956Y0138926D01*
X0048956Y0135776D02*
X0048706Y0135769D01*
X0044706Y0135769D01*
X0044706Y0141769D02*
X0048706Y0141769D01*
X0048956Y0142076D01*
X0041706Y0127769D02*
X0041706Y0116769D01*
X0044706Y0113769D01*
X0040206Y0109269D01*
X0040206Y0108519D01*
X0052956Y0095769D01*
X0048956Y0113729D02*
X0048706Y0113769D01*
X0044706Y0113769D01*
X0027706Y0127769D02*
X0027253Y0127519D01*
X0027706Y0127769D02*
X0027706Y0138769D01*
X0027253Y0138769D01*
X0080058Y0138926D02*
X0080706Y0138769D01*
X0083706Y0138769D01*
X0087956Y0141769D01*
X0087956Y0141519D01*
D22*
X0087956Y0141519D03*
X0070206Y0135519D03*
X0064206Y0127269D03*
X0041706Y0127769D03*
X0041706Y0137769D03*
X0041706Y0143769D03*
X0033706Y0119769D03*
X0042706Y0088769D03*
X0063706Y0061769D03*
X0072706Y0062519D03*
X0091456Y0080019D03*
D23*
X0105206Y0063769D03*
M02*
