G75*
%MOIN*%
%OFA0B0*%
%FSLAX25Y25*%
%IPPOS*%
%LPD*%
%AMOC8*
5,1,8,0,0,1.08239X$1,22.5*
%
%ADD10C,0.00000*%
D10*
X0001500Y0016500D02*
X0001500Y0101500D01*
X0032681Y0025732D02*
X0032683Y0025825D01*
X0032689Y0025917D01*
X0032699Y0026009D01*
X0032713Y0026100D01*
X0032730Y0026191D01*
X0032752Y0026281D01*
X0032777Y0026370D01*
X0032806Y0026458D01*
X0032839Y0026544D01*
X0032876Y0026629D01*
X0032916Y0026713D01*
X0032960Y0026794D01*
X0033007Y0026874D01*
X0033057Y0026952D01*
X0033111Y0027027D01*
X0033168Y0027100D01*
X0033228Y0027170D01*
X0033291Y0027238D01*
X0033357Y0027303D01*
X0033425Y0027365D01*
X0033496Y0027425D01*
X0033570Y0027481D01*
X0033646Y0027534D01*
X0033724Y0027583D01*
X0033804Y0027630D01*
X0033886Y0027672D01*
X0033970Y0027712D01*
X0034055Y0027747D01*
X0034142Y0027779D01*
X0034230Y0027808D01*
X0034319Y0027832D01*
X0034409Y0027853D01*
X0034500Y0027869D01*
X0034592Y0027882D01*
X0034684Y0027891D01*
X0034777Y0027896D01*
X0034869Y0027897D01*
X0034962Y0027894D01*
X0035054Y0027887D01*
X0035146Y0027876D01*
X0035237Y0027861D01*
X0035328Y0027843D01*
X0035418Y0027820D01*
X0035506Y0027794D01*
X0035594Y0027764D01*
X0035680Y0027730D01*
X0035764Y0027693D01*
X0035847Y0027651D01*
X0035928Y0027607D01*
X0036008Y0027559D01*
X0036085Y0027508D01*
X0036159Y0027453D01*
X0036232Y0027395D01*
X0036302Y0027335D01*
X0036369Y0027271D01*
X0036433Y0027205D01*
X0036495Y0027135D01*
X0036553Y0027064D01*
X0036608Y0026990D01*
X0036660Y0026913D01*
X0036709Y0026834D01*
X0036755Y0026754D01*
X0036797Y0026671D01*
X0036835Y0026587D01*
X0036870Y0026501D01*
X0036901Y0026414D01*
X0036928Y0026326D01*
X0036951Y0026236D01*
X0036971Y0026146D01*
X0036987Y0026055D01*
X0036999Y0025963D01*
X0037007Y0025871D01*
X0037011Y0025778D01*
X0037011Y0025686D01*
X0037007Y0025593D01*
X0036999Y0025501D01*
X0036987Y0025409D01*
X0036971Y0025318D01*
X0036951Y0025228D01*
X0036928Y0025138D01*
X0036901Y0025050D01*
X0036870Y0024963D01*
X0036835Y0024877D01*
X0036797Y0024793D01*
X0036755Y0024710D01*
X0036709Y0024630D01*
X0036660Y0024551D01*
X0036608Y0024474D01*
X0036553Y0024400D01*
X0036495Y0024329D01*
X0036433Y0024259D01*
X0036369Y0024193D01*
X0036302Y0024129D01*
X0036232Y0024069D01*
X0036159Y0024011D01*
X0036085Y0023956D01*
X0036008Y0023905D01*
X0035929Y0023857D01*
X0035847Y0023813D01*
X0035764Y0023771D01*
X0035680Y0023734D01*
X0035594Y0023700D01*
X0035506Y0023670D01*
X0035418Y0023644D01*
X0035328Y0023621D01*
X0035237Y0023603D01*
X0035146Y0023588D01*
X0035054Y0023577D01*
X0034962Y0023570D01*
X0034869Y0023567D01*
X0034777Y0023568D01*
X0034684Y0023573D01*
X0034592Y0023582D01*
X0034500Y0023595D01*
X0034409Y0023611D01*
X0034319Y0023632D01*
X0034230Y0023656D01*
X0034142Y0023685D01*
X0034055Y0023717D01*
X0033970Y0023752D01*
X0033886Y0023792D01*
X0033804Y0023834D01*
X0033724Y0023881D01*
X0033646Y0023930D01*
X0033570Y0023983D01*
X0033496Y0024039D01*
X0033425Y0024099D01*
X0033357Y0024161D01*
X0033291Y0024226D01*
X0033228Y0024294D01*
X0033168Y0024364D01*
X0033111Y0024437D01*
X0033057Y0024512D01*
X0033007Y0024590D01*
X0032960Y0024670D01*
X0032916Y0024751D01*
X0032876Y0024835D01*
X0032839Y0024920D01*
X0032806Y0025006D01*
X0032777Y0025094D01*
X0032752Y0025183D01*
X0032730Y0025273D01*
X0032713Y0025364D01*
X0032699Y0025455D01*
X0032689Y0025547D01*
X0032683Y0025639D01*
X0032681Y0025732D01*
X0016500Y0001500D02*
X0016138Y0001504D01*
X0015775Y0001518D01*
X0015413Y0001539D01*
X0015052Y0001570D01*
X0014692Y0001609D01*
X0014333Y0001657D01*
X0013975Y0001714D01*
X0013618Y0001779D01*
X0013263Y0001853D01*
X0012910Y0001936D01*
X0012559Y0002027D01*
X0012211Y0002126D01*
X0011865Y0002234D01*
X0011521Y0002350D01*
X0011181Y0002475D01*
X0010844Y0002607D01*
X0010510Y0002748D01*
X0010179Y0002897D01*
X0009852Y0003054D01*
X0009529Y0003218D01*
X0009210Y0003390D01*
X0008896Y0003570D01*
X0008585Y0003758D01*
X0008280Y0003953D01*
X0007979Y0004155D01*
X0007683Y0004365D01*
X0007393Y0004581D01*
X0007107Y0004805D01*
X0006827Y0005035D01*
X0006553Y0005272D01*
X0006285Y0005516D01*
X0006022Y0005766D01*
X0005766Y0006022D01*
X0005516Y0006285D01*
X0005272Y0006553D01*
X0005035Y0006827D01*
X0004805Y0007107D01*
X0004581Y0007393D01*
X0004365Y0007683D01*
X0004155Y0007979D01*
X0003953Y0008280D01*
X0003758Y0008585D01*
X0003570Y0008896D01*
X0003390Y0009210D01*
X0003218Y0009529D01*
X0003054Y0009852D01*
X0002897Y0010179D01*
X0002748Y0010510D01*
X0002607Y0010844D01*
X0002475Y0011181D01*
X0002350Y0011521D01*
X0002234Y0011865D01*
X0002126Y0012211D01*
X0002027Y0012559D01*
X0001936Y0012910D01*
X0001853Y0013263D01*
X0001779Y0013618D01*
X0001714Y0013975D01*
X0001657Y0014333D01*
X0001609Y0014692D01*
X0001570Y0015052D01*
X0001539Y0015413D01*
X0001518Y0015775D01*
X0001504Y0016138D01*
X0001500Y0016500D01*
X0016500Y0001500D02*
X0096500Y0001500D01*
X0096862Y0001504D01*
X0097225Y0001518D01*
X0097587Y0001539D01*
X0097948Y0001570D01*
X0098308Y0001609D01*
X0098667Y0001657D01*
X0099025Y0001714D01*
X0099382Y0001779D01*
X0099737Y0001853D01*
X0100090Y0001936D01*
X0100441Y0002027D01*
X0100789Y0002126D01*
X0101135Y0002234D01*
X0101479Y0002350D01*
X0101819Y0002475D01*
X0102156Y0002607D01*
X0102490Y0002748D01*
X0102821Y0002897D01*
X0103148Y0003054D01*
X0103471Y0003218D01*
X0103790Y0003390D01*
X0104104Y0003570D01*
X0104415Y0003758D01*
X0104720Y0003953D01*
X0105021Y0004155D01*
X0105317Y0004365D01*
X0105607Y0004581D01*
X0105893Y0004805D01*
X0106173Y0005035D01*
X0106447Y0005272D01*
X0106715Y0005516D01*
X0106978Y0005766D01*
X0107234Y0006022D01*
X0107484Y0006285D01*
X0107728Y0006553D01*
X0107965Y0006827D01*
X0108195Y0007107D01*
X0108419Y0007393D01*
X0108635Y0007683D01*
X0108845Y0007979D01*
X0109047Y0008280D01*
X0109242Y0008585D01*
X0109430Y0008896D01*
X0109610Y0009210D01*
X0109782Y0009529D01*
X0109946Y0009852D01*
X0110103Y0010179D01*
X0110252Y0010510D01*
X0110393Y0010844D01*
X0110525Y0011181D01*
X0110650Y0011521D01*
X0110766Y0011865D01*
X0110874Y0012211D01*
X0110973Y0012559D01*
X0111064Y0012910D01*
X0111147Y0013263D01*
X0111221Y0013618D01*
X0111286Y0013975D01*
X0111343Y0014333D01*
X0111391Y0014692D01*
X0111430Y0015052D01*
X0111461Y0015413D01*
X0111482Y0015775D01*
X0111496Y0016138D01*
X0111500Y0016500D01*
X0111500Y0101500D01*
X0075989Y0025732D02*
X0075991Y0025825D01*
X0075997Y0025917D01*
X0076007Y0026009D01*
X0076021Y0026100D01*
X0076038Y0026191D01*
X0076060Y0026281D01*
X0076085Y0026370D01*
X0076114Y0026458D01*
X0076147Y0026544D01*
X0076184Y0026629D01*
X0076224Y0026713D01*
X0076268Y0026794D01*
X0076315Y0026874D01*
X0076365Y0026952D01*
X0076419Y0027027D01*
X0076476Y0027100D01*
X0076536Y0027170D01*
X0076599Y0027238D01*
X0076665Y0027303D01*
X0076733Y0027365D01*
X0076804Y0027425D01*
X0076878Y0027481D01*
X0076954Y0027534D01*
X0077032Y0027583D01*
X0077112Y0027630D01*
X0077194Y0027672D01*
X0077278Y0027712D01*
X0077363Y0027747D01*
X0077450Y0027779D01*
X0077538Y0027808D01*
X0077627Y0027832D01*
X0077717Y0027853D01*
X0077808Y0027869D01*
X0077900Y0027882D01*
X0077992Y0027891D01*
X0078085Y0027896D01*
X0078177Y0027897D01*
X0078270Y0027894D01*
X0078362Y0027887D01*
X0078454Y0027876D01*
X0078545Y0027861D01*
X0078636Y0027843D01*
X0078726Y0027820D01*
X0078814Y0027794D01*
X0078902Y0027764D01*
X0078988Y0027730D01*
X0079072Y0027693D01*
X0079155Y0027651D01*
X0079236Y0027607D01*
X0079316Y0027559D01*
X0079393Y0027508D01*
X0079467Y0027453D01*
X0079540Y0027395D01*
X0079610Y0027335D01*
X0079677Y0027271D01*
X0079741Y0027205D01*
X0079803Y0027135D01*
X0079861Y0027064D01*
X0079916Y0026990D01*
X0079968Y0026913D01*
X0080017Y0026834D01*
X0080063Y0026754D01*
X0080105Y0026671D01*
X0080143Y0026587D01*
X0080178Y0026501D01*
X0080209Y0026414D01*
X0080236Y0026326D01*
X0080259Y0026236D01*
X0080279Y0026146D01*
X0080295Y0026055D01*
X0080307Y0025963D01*
X0080315Y0025871D01*
X0080319Y0025778D01*
X0080319Y0025686D01*
X0080315Y0025593D01*
X0080307Y0025501D01*
X0080295Y0025409D01*
X0080279Y0025318D01*
X0080259Y0025228D01*
X0080236Y0025138D01*
X0080209Y0025050D01*
X0080178Y0024963D01*
X0080143Y0024877D01*
X0080105Y0024793D01*
X0080063Y0024710D01*
X0080017Y0024630D01*
X0079968Y0024551D01*
X0079916Y0024474D01*
X0079861Y0024400D01*
X0079803Y0024329D01*
X0079741Y0024259D01*
X0079677Y0024193D01*
X0079610Y0024129D01*
X0079540Y0024069D01*
X0079467Y0024011D01*
X0079393Y0023956D01*
X0079316Y0023905D01*
X0079237Y0023857D01*
X0079155Y0023813D01*
X0079072Y0023771D01*
X0078988Y0023734D01*
X0078902Y0023700D01*
X0078814Y0023670D01*
X0078726Y0023644D01*
X0078636Y0023621D01*
X0078545Y0023603D01*
X0078454Y0023588D01*
X0078362Y0023577D01*
X0078270Y0023570D01*
X0078177Y0023567D01*
X0078085Y0023568D01*
X0077992Y0023573D01*
X0077900Y0023582D01*
X0077808Y0023595D01*
X0077717Y0023611D01*
X0077627Y0023632D01*
X0077538Y0023656D01*
X0077450Y0023685D01*
X0077363Y0023717D01*
X0077278Y0023752D01*
X0077194Y0023792D01*
X0077112Y0023834D01*
X0077032Y0023881D01*
X0076954Y0023930D01*
X0076878Y0023983D01*
X0076804Y0024039D01*
X0076733Y0024099D01*
X0076665Y0024161D01*
X0076599Y0024226D01*
X0076536Y0024294D01*
X0076476Y0024364D01*
X0076419Y0024437D01*
X0076365Y0024512D01*
X0076315Y0024590D01*
X0076268Y0024670D01*
X0076224Y0024751D01*
X0076184Y0024835D01*
X0076147Y0024920D01*
X0076114Y0025006D01*
X0076085Y0025094D01*
X0076060Y0025183D01*
X0076038Y0025273D01*
X0076021Y0025364D01*
X0076007Y0025455D01*
X0075997Y0025547D01*
X0075991Y0025639D01*
X0075989Y0025732D01*
X0111500Y0101500D02*
X0111484Y0102839D01*
X0111435Y0104178D01*
X0111353Y0105515D01*
X0111239Y0106849D01*
X0111093Y0108181D01*
X0110914Y0109508D01*
X0110703Y0110831D01*
X0110459Y0112148D01*
X0110184Y0113459D01*
X0109877Y0114762D01*
X0109538Y0116058D01*
X0109168Y0117345D01*
X0108767Y0118623D01*
X0108334Y0119891D01*
X0107871Y0121148D01*
X0107377Y0122393D01*
X0106853Y0123626D01*
X0106300Y0124845D01*
X0105716Y0126051D01*
X0105104Y0127242D01*
X0104463Y0128418D01*
X0103793Y0129578D01*
X0103095Y0130721D01*
X0102370Y0131847D01*
X0101617Y0132955D01*
X0100838Y0134045D01*
X0100032Y0135115D01*
X0099201Y0136165D01*
X0098344Y0137194D01*
X0097462Y0138203D01*
X0096557Y0139189D01*
X0095627Y0140153D01*
X0094674Y0141095D01*
X0093699Y0142013D01*
X0092701Y0142906D01*
X0091682Y0143776D01*
X0090642Y0144620D01*
X0089582Y0145438D01*
X0088502Y0146231D01*
X0087404Y0146997D01*
X0086286Y0147736D01*
X0085152Y0148448D01*
X0084000Y0149131D01*
X0082832Y0149787D01*
X0081648Y0150414D01*
X0080450Y0151012D01*
X0079237Y0151580D01*
X0078011Y0152119D01*
X0076772Y0152628D01*
X0075521Y0153106D01*
X0074258Y0153554D01*
X0072986Y0153971D01*
X0071703Y0154357D01*
X0070411Y0154712D01*
X0069111Y0155035D01*
X0067804Y0155326D01*
X0066490Y0155585D01*
X0065170Y0155812D01*
X0063845Y0156007D01*
X0062515Y0156170D01*
X0061182Y0156300D01*
X0059847Y0156398D01*
X0058509Y0156463D01*
X0057170Y0156496D01*
X0055830Y0156496D01*
X0054491Y0156463D01*
X0053153Y0156398D01*
X0051818Y0156300D01*
X0050485Y0156170D01*
X0049155Y0156007D01*
X0047830Y0155812D01*
X0046510Y0155585D01*
X0045196Y0155326D01*
X0043889Y0155035D01*
X0042589Y0154712D01*
X0041297Y0154357D01*
X0040014Y0153971D01*
X0038742Y0153554D01*
X0037479Y0153106D01*
X0036228Y0152628D01*
X0034989Y0152119D01*
X0033763Y0151580D01*
X0032550Y0151012D01*
X0031352Y0150414D01*
X0030168Y0149787D01*
X0029000Y0149131D01*
X0027848Y0148448D01*
X0026714Y0147736D01*
X0025596Y0146997D01*
X0024498Y0146231D01*
X0023418Y0145438D01*
X0022358Y0144620D01*
X0021318Y0143776D01*
X0020299Y0142906D01*
X0019301Y0142013D01*
X0018326Y0141095D01*
X0017373Y0140153D01*
X0016443Y0139189D01*
X0015538Y0138203D01*
X0014656Y0137194D01*
X0013799Y0136165D01*
X0012968Y0135115D01*
X0012162Y0134045D01*
X0011383Y0132955D01*
X0010630Y0131847D01*
X0009905Y0130721D01*
X0009207Y0129578D01*
X0008537Y0128418D01*
X0007896Y0127242D01*
X0007284Y0126051D01*
X0006700Y0124845D01*
X0006147Y0123626D01*
X0005623Y0122393D01*
X0005129Y0121148D01*
X0004666Y0119891D01*
X0004233Y0118623D01*
X0003832Y0117345D01*
X0003462Y0116058D01*
X0003123Y0114762D01*
X0002816Y0113459D01*
X0002541Y0112148D01*
X0002297Y0110831D01*
X0002086Y0109508D01*
X0001907Y0108181D01*
X0001761Y0106849D01*
X0001647Y0105515D01*
X0001565Y0104178D01*
X0001516Y0102839D01*
X0001500Y0101500D01*
M02*
