G75*
%MOIN*%
%OFA0B0*%
%FSLAX25Y25*%
%IPPOS*%
%LPD*%
%AMOC8*
5,1,8,0,0,1.08239X$1,22.5*
%
%ADD10C,0.00600*%
%ADD11C,0.00500*%
%ADD12C,0.00900*%
%ADD13C,0.00400*%
%ADD14R,0.00892X0.00042*%
%ADD15R,0.00595X0.00042*%
%ADD16R,0.01572X0.00042*%
%ADD17R,0.01402X0.00042*%
%ADD18R,0.01912X0.00042*%
%ADD19R,0.01955X0.00042*%
%ADD20R,0.02083X0.00042*%
%ADD21R,0.02295X0.00042*%
%ADD22R,0.03782X0.00042*%
%ADD23R,0.02252X0.00042*%
%ADD24R,0.03485X0.00042*%
%ADD25R,0.02635X0.00042*%
%ADD26R,0.03825X0.00042*%
%ADD27R,0.02422X0.00042*%
%ADD28R,0.03527X0.00042*%
%ADD29R,0.01785X0.00042*%
%ADD30R,0.02932X0.00042*%
%ADD31R,0.02550X0.00042*%
%ADD32R,0.02082X0.00042*%
%ADD33R,0.03145X0.00042*%
%ADD34R,0.02677X0.00042*%
%ADD35R,0.03400X0.00042*%
%ADD36R,0.02763X0.00042*%
%ADD37R,0.02507X0.00042*%
%ADD38R,0.03612X0.00042*%
%ADD39R,0.02847X0.00042*%
%ADD40R,0.02975X0.00042*%
%ADD41R,0.03995X0.00042*%
%ADD42R,0.03060X0.00042*%
%ADD43R,0.02890X0.00042*%
%ADD44R,0.04207X0.00042*%
%ADD45R,0.03145X0.00042*%
%ADD46R,0.04377X0.00042*%
%ADD47R,0.03230X0.00042*%
%ADD48R,0.04547X0.00042*%
%ADD49R,0.03315X0.00042*%
%ADD50R,0.04717X0.00042*%
%ADD51R,0.03358X0.00042*%
%ADD52R,0.04845X0.00042*%
%ADD53R,0.03442X0.00042*%
%ADD54R,0.04972X0.00042*%
%ADD55R,0.05100X0.00042*%
%ADD56R,0.03570X0.00042*%
%ADD57R,0.05270X0.00042*%
%ADD58R,0.03655X0.00042*%
%ADD59R,0.05397X0.00042*%
%ADD60R,0.03697X0.00042*%
%ADD61R,0.03570X0.00042*%
%ADD62R,0.05525X0.00042*%
%ADD63R,0.03740X0.00042*%
%ADD64R,0.05610X0.00042*%
%ADD65R,0.05738X0.00042*%
%ADD66R,0.03867X0.00042*%
%ADD67R,0.05865X0.00042*%
%ADD68R,0.03952X0.00042*%
%ADD69R,0.05950X0.00042*%
%ADD70R,0.03995X0.00042*%
%ADD71R,0.06077X0.00042*%
%ADD72R,0.04038X0.00042*%
%ADD73R,0.03910X0.00042*%
%ADD74R,0.06205X0.00042*%
%ADD75R,0.04080X0.00042*%
%ADD76R,0.06290X0.00042*%
%ADD77R,0.04122X0.00042*%
%ADD78R,0.06375X0.00042*%
%ADD79R,0.04165X0.00042*%
%ADD80R,0.06460X0.00042*%
%ADD81R,0.04208X0.00042*%
%ADD82R,0.06588X0.00042*%
%ADD83R,0.04250X0.00042*%
%ADD84R,0.06672X0.00042*%
%ADD85R,0.04292X0.00042*%
%ADD86R,0.06757X0.00042*%
%ADD87R,0.04335X0.00042*%
%ADD88R,0.06842X0.00042*%
%ADD89R,0.06927X0.00042*%
%ADD90R,0.04420X0.00042*%
%ADD91R,0.07013X0.00042*%
%ADD92R,0.04462X0.00042*%
%ADD93R,0.07097X0.00042*%
%ADD94R,0.04505X0.00042*%
%ADD95R,0.07140X0.00042*%
%ADD96R,0.01360X0.00042*%
%ADD97R,0.04590X0.00042*%
%ADD98R,0.04633X0.00042*%
%ADD99R,0.04420X0.00042*%
%ADD100R,0.04675X0.00042*%
%ADD101R,0.01317X0.00042*%
%ADD102R,0.04760X0.00042*%
%ADD103R,0.04802X0.00042*%
%ADD104R,0.00510X0.00042*%
%ADD105R,0.02040X0.00042*%
%ADD106R,0.00552X0.00042*%
%ADD107R,0.00382X0.00042*%
%ADD108R,0.01275X0.00042*%
%ADD109R,0.04845X0.00042*%
%ADD110R,0.00255X0.00042*%
%ADD111R,0.04888X0.00042*%
%ADD112R,0.04632X0.00042*%
%ADD113R,0.00127X0.00042*%
%ADD114R,0.01870X0.00042*%
%ADD115R,0.00085X0.00042*%
%ADD116R,0.04930X0.00042*%
%ADD117R,0.01827X0.00042*%
%ADD118R,0.01232X0.00042*%
%ADD119R,0.01233X0.00042*%
%ADD120R,0.01742X0.00042*%
%ADD121R,0.05015X0.00042*%
%ADD122R,0.01700X0.00042*%
%ADD123R,0.01190X0.00042*%
%ADD124R,0.05058X0.00042*%
%ADD125R,0.01657X0.00042*%
%ADD126R,0.01615X0.00042*%
%ADD127R,0.05142X0.00042*%
%ADD128R,0.01530X0.00042*%
%ADD129R,0.01445X0.00042*%
%ADD130R,0.01487X0.00042*%
%ADD131R,0.01445X0.00042*%
%ADD132R,0.05185X0.00042*%
%ADD133R,0.05227X0.00042*%
%ADD134R,0.05270X0.00042*%
%ADD135R,0.05312X0.00042*%
%ADD136R,0.05355X0.00042*%
%ADD137R,0.01147X0.00042*%
%ADD138R,0.01997X0.00042*%
%ADD139R,0.01105X0.00042*%
%ADD140R,0.01063X0.00042*%
%ADD141R,0.01020X0.00042*%
%ADD142R,0.02125X0.00042*%
%ADD143R,0.05440X0.00042*%
%ADD144R,0.00977X0.00042*%
%ADD145R,0.00935X0.00042*%
%ADD146R,0.05483X0.00042*%
%ADD147R,0.00850X0.00042*%
%ADD148R,0.00807X0.00042*%
%ADD149R,0.05057X0.00042*%
%ADD150R,0.00765X0.00042*%
%ADD151R,0.00595X0.00042*%
%ADD152R,0.00425X0.00042*%
%ADD153R,0.03783X0.00042*%
%ADD154R,0.00722X0.00042*%
%ADD155R,0.00297X0.00042*%
%ADD156R,0.00680X0.00042*%
%ADD157R,0.00213X0.00042*%
%ADD158R,0.00042X0.00042*%
%ADD159R,0.02040X0.00042*%
%ADD160R,0.01190X0.00042*%
%ADD161R,0.03357X0.00042*%
%ADD162R,0.01870X0.00042*%
%ADD163R,0.02167X0.00042*%
%ADD164R,0.02210X0.00042*%
%ADD165R,0.00467X0.00042*%
%ADD166R,0.02253X0.00042*%
%ADD167R,0.02295X0.00042*%
%ADD168R,0.02337X0.00042*%
%ADD169R,0.09350X0.00042*%
%ADD170R,0.02380X0.00042*%
%ADD171R,0.09308X0.00042*%
%ADD172R,0.09265X0.00042*%
%ADD173R,0.09222X0.00042*%
%ADD174R,0.09137X0.00042*%
%ADD175R,0.09052X0.00042*%
%ADD176R,0.09010X0.00042*%
%ADD177R,0.01828X0.00042*%
%ADD178R,0.08967X0.00042*%
%ADD179R,0.08925X0.00042*%
%ADD180R,0.08840X0.00042*%
%ADD181R,0.08755X0.00042*%
%ADD182R,0.08670X0.00042*%
%ADD183R,0.01615X0.00042*%
%ADD184R,0.03102X0.00042*%
%ADD185R,0.08627X0.00042*%
%ADD186R,0.03188X0.00042*%
%ADD187R,0.08585X0.00042*%
%ADD188R,0.01658X0.00042*%
%ADD189R,0.08542X0.00042*%
%ADD190R,0.03272X0.00042*%
%ADD191R,0.08500X0.00042*%
%ADD192R,0.08457X0.00042*%
%ADD193R,0.08372X0.00042*%
%ADD194R,0.08288X0.00042*%
%ADD195R,0.01020X0.00042*%
%ADD196R,0.08202X0.00042*%
%ADD197R,0.08117X0.00042*%
%ADD198R,0.08075X0.00042*%
%ADD199R,0.08032X0.00042*%
%ADD200R,0.07947X0.00042*%
%ADD201R,0.07905X0.00042*%
%ADD202R,0.07820X0.00042*%
%ADD203R,0.07777X0.00042*%
%ADD204R,0.07735X0.00042*%
%ADD205R,0.07650X0.00042*%
%ADD206R,0.07565X0.00042*%
%ADD207R,0.03315X0.00042*%
%ADD208R,0.07480X0.00042*%
%ADD209R,0.07437X0.00042*%
%ADD210R,0.07353X0.00042*%
%ADD211R,0.07267X0.00042*%
%ADD212R,0.07183X0.00042*%
%ADD213R,0.03740X0.00042*%
%ADD214R,0.07055X0.00042*%
%ADD215R,0.06928X0.00042*%
%ADD216R,0.06758X0.00042*%
%ADD217R,0.03103X0.00042*%
%ADD218R,0.06503X0.00042*%
%ADD219R,0.06417X0.00042*%
%ADD220R,0.06333X0.00042*%
%ADD221R,0.06162X0.00042*%
%ADD222R,0.06078X0.00042*%
%ADD223R,0.05822X0.00042*%
%ADD224R,0.00170X0.00042*%
%ADD225R,0.00340X0.00042*%
%ADD226R,0.04378X0.00042*%
%ADD227R,0.03528X0.00042*%
%ADD228R,0.03953X0.00042*%
%ADD229R,0.06332X0.00042*%
%ADD230R,0.06502X0.00042*%
%ADD231R,0.06630X0.00042*%
%ADD232R,0.06715X0.00042*%
%ADD233R,0.06800X0.00042*%
%ADD234R,0.06970X0.00042*%
%ADD235R,0.07225X0.00042*%
%ADD236R,0.07310X0.00042*%
%ADD237R,0.07395X0.00042*%
%ADD238R,0.07522X0.00042*%
%ADD239R,0.08415X0.00042*%
%ADD240R,0.07608X0.00042*%
%ADD241R,0.07692X0.00042*%
%ADD242R,0.08330X0.00042*%
%ADD243R,0.08245X0.00042*%
%ADD244R,0.08160X0.00042*%
%ADD245R,0.06970X0.00042*%
%ADD246R,0.06885X0.00042*%
%ADD247R,0.07990X0.00042*%
%ADD248R,0.06545X0.00042*%
%ADD249R,0.07863X0.00042*%
%ADD250R,0.07820X0.00042*%
%ADD251R,0.06120X0.00042*%
%ADD252R,0.07607X0.00042*%
%ADD253R,0.05992X0.00042*%
%ADD254R,0.05780X0.00042*%
%ADD255R,0.05652X0.00042*%
%ADD256R,0.07352X0.00042*%
%ADD257R,0.05567X0.00042*%
%ADD258R,0.02465X0.00042*%
%ADD259C,0.00000*%
%ADD260C,0.00300*%
D10*
X0099300Y0039300D02*
X0103704Y0039300D01*
X0102236Y0040768D01*
X0103704Y0042236D01*
X0099300Y0042236D01*
X0099300Y0043904D02*
X0099300Y0045372D01*
X0099300Y0044638D02*
X0103704Y0044638D01*
X0103704Y0043904D02*
X0103704Y0045372D01*
X0102970Y0046973D02*
X0100034Y0046973D01*
X0099300Y0047707D01*
X0099300Y0049175D01*
X0100034Y0049909D01*
X0102970Y0049909D02*
X0103704Y0049175D01*
X0103704Y0047707D01*
X0102970Y0046973D01*
D11*
X0095253Y0041001D02*
X0095253Y0039250D01*
X0091750Y0039250D01*
X0092918Y0039250D02*
X0092918Y0041001D01*
X0093501Y0041585D01*
X0094669Y0041585D01*
X0095253Y0041001D01*
X0092918Y0040418D02*
X0091750Y0041585D01*
X0092334Y0042933D02*
X0093501Y0042933D01*
X0094085Y0043517D01*
X0094085Y0044685D01*
X0093501Y0045268D01*
X0092918Y0045268D01*
X0092918Y0042933D01*
X0092334Y0042933D02*
X0091750Y0043517D01*
X0091750Y0044685D01*
X0094085Y0046616D02*
X0091750Y0047784D01*
X0094085Y0048952D01*
X0092334Y0050299D02*
X0092334Y0050883D01*
X0091750Y0050883D01*
X0091750Y0050299D01*
X0092334Y0050299D01*
X0091750Y0052141D02*
X0091750Y0054476D01*
X0091750Y0053309D02*
X0095253Y0053309D01*
X0094085Y0052141D01*
X0092334Y0055824D02*
X0092334Y0056408D01*
X0091750Y0056408D01*
X0091750Y0055824D01*
X0092334Y0055824D01*
X0092334Y0057666D02*
X0094669Y0060001D01*
X0092334Y0060001D01*
X0091750Y0059417D01*
X0091750Y0058250D01*
X0092334Y0057666D01*
X0094669Y0057666D01*
X0095253Y0058250D01*
X0095253Y0059417D01*
X0094669Y0060001D01*
X0092334Y0061349D02*
X0092334Y0061933D01*
X0091750Y0061933D01*
X0091750Y0061349D01*
X0092334Y0061349D01*
X0092334Y0063190D02*
X0094669Y0065526D01*
X0092334Y0065526D01*
X0091750Y0064942D01*
X0091750Y0063774D01*
X0092334Y0063190D01*
X0094669Y0063190D01*
X0095253Y0063774D01*
X0095253Y0064942D01*
X0094669Y0065526D01*
X0095253Y0066874D02*
X0095253Y0068625D01*
X0094669Y0069209D01*
X0094085Y0069209D01*
X0093501Y0068625D01*
X0093501Y0066874D01*
X0091750Y0066874D02*
X0091750Y0068625D01*
X0092334Y0069209D01*
X0092918Y0069209D01*
X0093501Y0068625D01*
X0093501Y0070557D02*
X0092334Y0070557D01*
X0091750Y0071141D01*
X0091750Y0072308D01*
X0092918Y0072892D02*
X0092918Y0070557D01*
X0093501Y0070557D02*
X0094085Y0071141D01*
X0094085Y0072308D01*
X0093501Y0072892D01*
X0092918Y0072892D01*
X0094085Y0074240D02*
X0094085Y0075408D01*
X0094669Y0074824D02*
X0092334Y0074824D01*
X0091750Y0075408D01*
X0092334Y0076695D02*
X0092918Y0077279D01*
X0092918Y0079031D01*
X0093501Y0079031D02*
X0091750Y0079031D01*
X0091750Y0077279D01*
X0092334Y0076695D01*
X0094085Y0077279D02*
X0094085Y0078447D01*
X0093501Y0079031D01*
X0091750Y0066874D02*
X0095253Y0066874D01*
X0087379Y0065556D02*
X0087379Y0064388D01*
X0086795Y0063804D01*
X0086795Y0062456D02*
X0086211Y0062456D01*
X0085627Y0061873D01*
X0085044Y0062456D01*
X0084460Y0062456D01*
X0083876Y0061873D01*
X0083876Y0060705D01*
X0084460Y0060121D01*
X0085627Y0061289D02*
X0085627Y0061873D01*
X0086795Y0062456D02*
X0087379Y0061873D01*
X0087379Y0060705D01*
X0086795Y0060121D01*
X0085627Y0058773D02*
X0085627Y0056438D01*
X0087379Y0058189D01*
X0083876Y0058189D01*
X0084460Y0055090D02*
X0083876Y0054506D01*
X0083876Y0053339D01*
X0084460Y0052755D01*
X0085627Y0053923D02*
X0085627Y0054506D01*
X0085044Y0055090D01*
X0084460Y0055090D01*
X0085627Y0054506D02*
X0086211Y0055090D01*
X0086795Y0055090D01*
X0087379Y0054506D01*
X0087379Y0053339D01*
X0086795Y0052755D01*
X0085627Y0051407D02*
X0085627Y0049072D01*
X0087379Y0050823D01*
X0083876Y0050823D01*
X0084460Y0047724D02*
X0083876Y0047140D01*
X0083876Y0045972D01*
X0084460Y0045389D01*
X0085627Y0045972D02*
X0085627Y0047140D01*
X0085044Y0047724D01*
X0084460Y0047724D01*
X0085627Y0045972D02*
X0086211Y0045389D01*
X0086795Y0045389D01*
X0087379Y0045972D01*
X0087379Y0047140D01*
X0086795Y0047724D01*
X0086795Y0044041D02*
X0087379Y0043457D01*
X0087379Y0042289D01*
X0086795Y0041705D01*
X0084460Y0041705D01*
X0083876Y0042289D01*
X0083876Y0043457D01*
X0084460Y0044041D01*
X0083876Y0040418D02*
X0083876Y0039250D01*
X0083876Y0039834D02*
X0087379Y0039834D01*
X0087379Y0039250D02*
X0087379Y0040418D01*
X0083876Y0063804D02*
X0086211Y0066140D01*
X0086795Y0066140D01*
X0087379Y0065556D01*
X0083876Y0066140D02*
X0083876Y0063804D01*
D12*
X0017356Y0061183D02*
X0010650Y0061183D01*
X0010650Y0058948D02*
X0010650Y0063418D01*
X0015120Y0058948D02*
X0017356Y0061183D01*
X0017356Y0056420D02*
X0017356Y0051950D01*
X0014003Y0051950D01*
X0015120Y0054185D01*
X0015120Y0055303D01*
X0014003Y0056420D01*
X0011768Y0056420D01*
X0010650Y0055303D01*
X0010650Y0053068D01*
X0011768Y0051950D01*
X0014003Y0049423D02*
X0014003Y0044952D01*
X0017356Y0048305D01*
X0010650Y0048305D01*
X0012885Y0042425D02*
X0012885Y0037954D01*
X0015120Y0037954D02*
X0015120Y0041307D01*
X0015120Y0042425D01*
X0017356Y0041307D02*
X0010650Y0041307D01*
X0010650Y0039072D02*
X0017356Y0039072D01*
D13*
X0038717Y0091000D02*
X0038717Y0093802D01*
X0040585Y0093802D02*
X0038717Y0091000D01*
X0040585Y0091000D02*
X0040585Y0093802D01*
X0041663Y0092868D02*
X0041663Y0091000D01*
X0041663Y0092401D02*
X0043532Y0092401D01*
X0043532Y0092868D02*
X0042598Y0093802D01*
X0041663Y0092868D01*
X0043532Y0092868D02*
X0043532Y0091000D01*
X0044610Y0092401D02*
X0045077Y0091934D01*
X0046478Y0091934D01*
X0046478Y0091000D02*
X0046478Y0093802D01*
X0045077Y0093802D01*
X0044610Y0093335D01*
X0044610Y0092401D01*
X0047557Y0092401D02*
X0049425Y0092401D01*
X0049425Y0092868D02*
X0048491Y0093802D01*
X0047557Y0092868D01*
X0047557Y0091000D01*
X0049425Y0091000D02*
X0049425Y0092868D01*
X0050503Y0093802D02*
X0051437Y0093802D01*
X0050970Y0093802D02*
X0050970Y0091467D01*
X0051437Y0091000D01*
X0051904Y0091000D01*
X0052371Y0091467D01*
X0056396Y0091000D02*
X0056396Y0093802D01*
X0058264Y0093802D02*
X0056396Y0091000D01*
X0058264Y0091000D02*
X0058264Y0093802D01*
X0059295Y0093802D02*
X0060229Y0093802D01*
X0059762Y0093802D02*
X0059762Y0091000D01*
X0060229Y0091000D02*
X0059295Y0091000D01*
X0064253Y0091000D02*
X0066122Y0091000D01*
X0066122Y0093802D01*
X0064253Y0093802D01*
X0065188Y0092401D02*
X0066122Y0092401D01*
X0067200Y0091467D02*
X0067200Y0093335D01*
X0067667Y0093802D01*
X0069068Y0093802D01*
X0069068Y0091000D01*
X0067667Y0091000D01*
X0067200Y0091467D01*
X0070147Y0091000D02*
X0070147Y0092868D01*
X0071081Y0093802D01*
X0072015Y0092868D01*
X0072015Y0091000D01*
X0073093Y0091000D02*
X0073093Y0093802D01*
X0074027Y0092868D01*
X0074961Y0093802D01*
X0074961Y0091000D01*
X0072015Y0092401D02*
X0070147Y0092401D01*
D14*
X0063140Y0095500D03*
X0071683Y0108207D03*
X0051410Y0095670D03*
X0041508Y0098730D03*
X0041508Y0100812D03*
D15*
X0042761Y0102512D03*
X0040211Y0102512D03*
X0041486Y0095500D03*
D16*
X0041508Y0097923D03*
X0041508Y0100515D03*
X0045205Y0102130D03*
X0045162Y0102257D03*
X0045460Y0099367D03*
X0037980Y0098135D03*
X0037980Y0098092D03*
X0037810Y0102215D03*
X0063140Y0095542D03*
X0070748Y0104723D03*
D17*
X0045630Y0100557D03*
X0045035Y0097965D03*
X0041508Y0098135D03*
X0041508Y0095542D03*
X0037980Y0097965D03*
X0037343Y0100557D03*
X0041508Y0105148D03*
X0042868Y0102852D03*
D18*
X0045162Y0101832D03*
X0044992Y0098390D03*
X0041508Y0097498D03*
X0063225Y0095585D03*
D19*
X0044971Y0098432D03*
X0045141Y0101790D03*
X0041486Y0105105D03*
X0037831Y0101832D03*
X0037831Y0101790D03*
X0038001Y0098432D03*
X0041486Y0097455D03*
X0041486Y0095585D03*
D20*
X0038023Y0098517D03*
X0038023Y0098560D03*
X0038023Y0098602D03*
X0037938Y0098815D03*
X0037852Y0099027D03*
X0037852Y0099070D03*
X0037852Y0099112D03*
X0037810Y0099198D03*
X0037852Y0101662D03*
X0045290Y0100685D03*
X0045162Y0099155D03*
X0045162Y0099112D03*
X0045077Y0098900D03*
X0045035Y0098773D03*
X0044950Y0098560D03*
X0063310Y0095627D03*
X0071640Y0108123D03*
D21*
X0050751Y0095798D03*
X0041486Y0095627D03*
X0037874Y0101110D03*
X0037874Y0101152D03*
X0041486Y0105062D03*
D22*
X0041508Y0097242D03*
X0050008Y0101832D03*
X0050008Y0102980D03*
X0054258Y0102980D03*
X0054258Y0102937D03*
X0054258Y0102895D03*
X0054258Y0102852D03*
X0054258Y0102810D03*
X0054258Y0102767D03*
X0054258Y0102725D03*
X0054258Y0102682D03*
X0054258Y0102640D03*
X0054258Y0102598D03*
X0054258Y0102555D03*
X0054258Y0102512D03*
X0054258Y0102470D03*
X0054258Y0102427D03*
X0054258Y0102385D03*
X0054258Y0102342D03*
X0054258Y0102300D03*
X0054258Y0102257D03*
X0054258Y0102215D03*
X0054258Y0102173D03*
X0054258Y0102130D03*
X0054258Y0102087D03*
X0054258Y0102045D03*
X0054258Y0102002D03*
X0054258Y0101960D03*
X0054258Y0101917D03*
X0054258Y0101875D03*
X0054258Y0101832D03*
X0054258Y0101790D03*
X0054258Y0101748D03*
X0054258Y0101705D03*
X0054258Y0101662D03*
X0054258Y0101620D03*
X0054258Y0101577D03*
X0054258Y0101535D03*
X0054258Y0101492D03*
X0054258Y0101450D03*
X0054258Y0101407D03*
X0054258Y0101365D03*
X0054258Y0101323D03*
X0054258Y0101280D03*
X0054258Y0101237D03*
X0054258Y0101195D03*
X0054258Y0101152D03*
X0054258Y0101110D03*
X0054258Y0101067D03*
X0054258Y0101025D03*
X0054258Y0100982D03*
X0054258Y0100940D03*
X0054258Y0100898D03*
X0054258Y0100855D03*
X0054258Y0100812D03*
X0054258Y0100770D03*
X0054258Y0100727D03*
X0054258Y0100685D03*
X0054258Y0100642D03*
X0054258Y0100600D03*
X0054258Y0100557D03*
X0054258Y0100515D03*
X0054258Y0100473D03*
X0054258Y0100430D03*
X0054258Y0100387D03*
X0054258Y0100345D03*
X0054258Y0100302D03*
X0054258Y0100260D03*
X0054258Y0100217D03*
X0054258Y0100175D03*
X0054258Y0100132D03*
X0054258Y0100090D03*
X0054258Y0100048D03*
X0054258Y0100005D03*
X0054258Y0099962D03*
X0054258Y0099920D03*
X0054258Y0099877D03*
X0054258Y0099835D03*
X0054258Y0099792D03*
X0054258Y0099750D03*
X0054258Y0099707D03*
X0054258Y0099665D03*
X0054258Y0099623D03*
X0054258Y0099580D03*
X0054258Y0099537D03*
X0054258Y0099495D03*
X0054258Y0099452D03*
X0054258Y0099410D03*
X0054258Y0099367D03*
X0054258Y0099325D03*
X0054258Y0099282D03*
X0054258Y0099240D03*
X0054258Y0099198D03*
X0054258Y0099155D03*
X0054258Y0099112D03*
X0054258Y0099070D03*
X0054258Y0099027D03*
X0054258Y0098985D03*
X0054258Y0098942D03*
X0054258Y0098900D03*
X0054258Y0098857D03*
X0054258Y0098815D03*
X0054258Y0098773D03*
X0054258Y0098730D03*
X0054258Y0098687D03*
X0054258Y0098645D03*
X0054258Y0098602D03*
X0054258Y0098560D03*
X0054258Y0098517D03*
X0054258Y0098475D03*
X0054258Y0098432D03*
X0054258Y0098390D03*
X0054258Y0098348D03*
X0054258Y0098305D03*
X0054258Y0098262D03*
X0054258Y0098220D03*
X0054258Y0098177D03*
X0054258Y0098135D03*
X0054258Y0098092D03*
X0054258Y0098050D03*
X0054258Y0098007D03*
X0054258Y0097965D03*
X0054258Y0097923D03*
X0054258Y0097880D03*
X0054258Y0097837D03*
X0054258Y0097795D03*
X0054258Y0097752D03*
X0054258Y0097710D03*
X0054258Y0097667D03*
X0054258Y0097625D03*
X0054258Y0097582D03*
X0054258Y0097540D03*
X0054258Y0097498D03*
X0054258Y0097455D03*
X0054258Y0097412D03*
X0054258Y0097370D03*
X0054258Y0097327D03*
X0054258Y0097285D03*
X0054258Y0097242D03*
X0054258Y0097200D03*
X0054258Y0097157D03*
X0054258Y0097115D03*
X0054258Y0097073D03*
X0054258Y0097030D03*
X0054258Y0096987D03*
X0054258Y0096945D03*
X0054258Y0096902D03*
X0054258Y0096860D03*
X0054258Y0096817D03*
X0054258Y0096775D03*
X0054258Y0096732D03*
X0054258Y0096690D03*
X0054258Y0096648D03*
X0054258Y0096605D03*
X0054258Y0096562D03*
X0054258Y0096520D03*
X0054258Y0096477D03*
X0054258Y0096435D03*
X0054258Y0096392D03*
X0054258Y0096350D03*
X0054258Y0096307D03*
X0054258Y0096265D03*
X0054258Y0096223D03*
X0054258Y0096180D03*
X0054258Y0096137D03*
X0054258Y0096095D03*
X0054258Y0096052D03*
X0054258Y0096010D03*
X0054258Y0095967D03*
X0054258Y0095925D03*
X0054258Y0095882D03*
X0054258Y0095840D03*
X0054258Y0095798D03*
X0054258Y0095755D03*
X0054258Y0095712D03*
X0054258Y0095670D03*
X0054258Y0103023D03*
X0054258Y0103065D03*
X0054258Y0103107D03*
X0054258Y0103150D03*
X0054258Y0103192D03*
X0054258Y0103235D03*
X0054258Y0103277D03*
X0054258Y0103320D03*
X0054258Y0103362D03*
X0054258Y0103405D03*
X0054258Y0103448D03*
X0054258Y0103490D03*
X0054258Y0103532D03*
X0054258Y0103575D03*
X0054258Y0103617D03*
X0054258Y0103660D03*
X0054258Y0103702D03*
X0054258Y0103745D03*
X0054258Y0103787D03*
X0054258Y0103830D03*
X0054258Y0103873D03*
X0054258Y0103915D03*
X0054258Y0103957D03*
X0054258Y0104000D03*
X0054258Y0104042D03*
X0054258Y0104085D03*
X0054258Y0104127D03*
X0054258Y0104170D03*
X0054258Y0104212D03*
X0054258Y0104255D03*
X0054258Y0104298D03*
X0054258Y0104340D03*
X0054258Y0104382D03*
X0054258Y0104425D03*
X0054258Y0104467D03*
X0054258Y0104510D03*
X0054258Y0104552D03*
X0065945Y0099282D03*
X0074530Y0095670D03*
X0074445Y0104127D03*
X0074445Y0104170D03*
D23*
X0063055Y0104723D03*
X0063395Y0095670D03*
X0045205Y0100855D03*
X0045205Y0100898D03*
X0045078Y0101450D03*
X0045078Y0101492D03*
X0037895Y0101492D03*
X0037810Y0100982D03*
X0037810Y0100940D03*
X0037810Y0100898D03*
D24*
X0048669Y0099835D03*
X0048626Y0099070D03*
X0050156Y0102045D03*
X0050156Y0102640D03*
X0060059Y0095670D03*
D25*
X0063034Y0104680D03*
X0050581Y0095882D03*
X0041486Y0095670D03*
X0041486Y0105020D03*
D26*
X0041486Y0104807D03*
X0041486Y0095882D03*
X0049986Y0096520D03*
X0049986Y0101790D03*
X0049986Y0103023D03*
X0060271Y0100940D03*
X0064181Y0096435D03*
X0065924Y0099240D03*
X0065966Y0100855D03*
X0074509Y0102215D03*
X0074509Y0102257D03*
X0074509Y0102300D03*
X0074509Y0102342D03*
X0074509Y0102385D03*
X0074509Y0102427D03*
X0074509Y0102470D03*
X0074509Y0102512D03*
X0074509Y0102555D03*
X0074509Y0102598D03*
X0074509Y0102640D03*
X0074509Y0102682D03*
X0074509Y0102725D03*
X0074509Y0102767D03*
X0074509Y0102810D03*
X0074509Y0102852D03*
X0074509Y0102895D03*
X0074509Y0102937D03*
X0074509Y0102980D03*
X0074509Y0103023D03*
X0074509Y0103065D03*
X0074509Y0103107D03*
X0074509Y0103150D03*
X0074509Y0103192D03*
X0074509Y0103235D03*
X0074509Y0103277D03*
X0074509Y0103320D03*
X0074509Y0103362D03*
X0074509Y0103405D03*
X0074509Y0103448D03*
X0074509Y0103490D03*
X0074509Y0103532D03*
X0074509Y0103575D03*
X0074509Y0103617D03*
X0074509Y0103660D03*
X0074509Y0103702D03*
X0074509Y0103745D03*
X0074466Y0104042D03*
X0074466Y0104085D03*
X0074424Y0104212D03*
X0074424Y0104255D03*
X0074424Y0104298D03*
X0074381Y0104382D03*
X0074509Y0098815D03*
X0074509Y0098773D03*
X0074509Y0098730D03*
X0074509Y0098687D03*
X0074509Y0098645D03*
X0074509Y0098602D03*
X0074509Y0098560D03*
X0074509Y0098517D03*
X0074509Y0098475D03*
X0074509Y0098432D03*
X0074509Y0098390D03*
X0074509Y0098348D03*
X0074509Y0098305D03*
X0074509Y0098262D03*
X0074509Y0098220D03*
X0074509Y0098177D03*
X0074509Y0098135D03*
X0074509Y0098092D03*
X0074509Y0098050D03*
X0074509Y0098007D03*
X0074509Y0097965D03*
X0074509Y0097923D03*
X0074509Y0097880D03*
X0074509Y0097837D03*
X0074509Y0097795D03*
X0074509Y0097752D03*
X0074509Y0097710D03*
X0074509Y0097667D03*
X0074509Y0097625D03*
X0074509Y0097582D03*
X0074509Y0097540D03*
X0074509Y0097498D03*
X0074509Y0097455D03*
X0074509Y0097412D03*
X0074509Y0097370D03*
X0074509Y0097327D03*
X0074509Y0097285D03*
X0074509Y0097242D03*
X0074509Y0097200D03*
X0074509Y0097157D03*
X0074509Y0097115D03*
X0074509Y0097073D03*
X0074509Y0097030D03*
X0074509Y0096987D03*
X0074509Y0096945D03*
X0074509Y0096902D03*
X0074509Y0096860D03*
X0074509Y0096817D03*
X0074509Y0096775D03*
X0074509Y0096732D03*
X0074509Y0096690D03*
X0074509Y0096648D03*
X0074509Y0096605D03*
X0074509Y0096562D03*
X0074509Y0096520D03*
X0074509Y0096477D03*
X0074509Y0096435D03*
X0074509Y0096392D03*
X0074509Y0096350D03*
X0074509Y0096307D03*
X0074509Y0096265D03*
X0074509Y0096223D03*
X0074509Y0096180D03*
X0074509Y0096137D03*
X0074509Y0096095D03*
X0074509Y0096052D03*
X0074509Y0096010D03*
X0074509Y0095967D03*
X0074509Y0095925D03*
X0074509Y0095882D03*
X0074509Y0095840D03*
X0074509Y0095798D03*
X0074509Y0095755D03*
X0074509Y0095712D03*
D27*
X0063480Y0095712D03*
D28*
X0064033Y0096223D03*
X0060080Y0096223D03*
X0060080Y0096265D03*
X0060080Y0096307D03*
X0060080Y0096350D03*
X0060080Y0096392D03*
X0060080Y0096435D03*
X0060080Y0096477D03*
X0060080Y0096520D03*
X0060080Y0096562D03*
X0060080Y0096605D03*
X0060080Y0096648D03*
X0060080Y0096690D03*
X0060080Y0096732D03*
X0060080Y0096775D03*
X0060080Y0096817D03*
X0060080Y0096860D03*
X0060080Y0096902D03*
X0060080Y0096945D03*
X0060080Y0096987D03*
X0060080Y0097030D03*
X0060080Y0097073D03*
X0060080Y0097115D03*
X0060080Y0097157D03*
X0060080Y0097200D03*
X0060080Y0097242D03*
X0060080Y0097285D03*
X0060080Y0097327D03*
X0060080Y0097370D03*
X0060080Y0097412D03*
X0060080Y0097455D03*
X0060080Y0097498D03*
X0060080Y0097540D03*
X0060080Y0097582D03*
X0060080Y0097625D03*
X0060080Y0097667D03*
X0060080Y0097710D03*
X0060080Y0097752D03*
X0060080Y0097795D03*
X0060080Y0097837D03*
X0060080Y0097880D03*
X0060080Y0097923D03*
X0060080Y0097965D03*
X0060080Y0098007D03*
X0060080Y0098050D03*
X0060080Y0098092D03*
X0060080Y0098135D03*
X0060080Y0098177D03*
X0060080Y0098220D03*
X0060080Y0098262D03*
X0060080Y0098305D03*
X0060080Y0098348D03*
X0060080Y0098390D03*
X0060080Y0098432D03*
X0060080Y0098475D03*
X0060080Y0098517D03*
X0060080Y0098560D03*
X0060080Y0098602D03*
X0060080Y0098645D03*
X0060080Y0098687D03*
X0060080Y0098730D03*
X0060080Y0098773D03*
X0060080Y0098815D03*
X0060080Y0098857D03*
X0060080Y0098900D03*
X0060080Y0098942D03*
X0060080Y0098985D03*
X0060080Y0099027D03*
X0060080Y0099070D03*
X0060080Y0099112D03*
X0060080Y0099155D03*
X0060080Y0099198D03*
X0060080Y0099240D03*
X0060080Y0099282D03*
X0060080Y0099325D03*
X0060080Y0099367D03*
X0060080Y0099410D03*
X0060080Y0099452D03*
X0060080Y0099495D03*
X0060080Y0099537D03*
X0060080Y0099580D03*
X0060080Y0099623D03*
X0060080Y0099665D03*
X0060080Y0099707D03*
X0060080Y0099750D03*
X0060080Y0099792D03*
X0060080Y0099835D03*
X0060080Y0099877D03*
X0060080Y0099920D03*
X0060080Y0099962D03*
X0060080Y0100005D03*
X0060080Y0100048D03*
X0060080Y0100090D03*
X0060080Y0100132D03*
X0060080Y0100175D03*
X0060080Y0100217D03*
X0060080Y0096180D03*
X0060080Y0096137D03*
X0060080Y0096095D03*
X0060080Y0096052D03*
X0060080Y0096010D03*
X0060080Y0095967D03*
X0060080Y0095925D03*
X0060080Y0095882D03*
X0060080Y0095840D03*
X0060080Y0095798D03*
X0060080Y0095755D03*
X0060080Y0095712D03*
X0050135Y0096307D03*
X0048690Y0099877D03*
X0050135Y0102002D03*
X0050135Y0102682D03*
X0049583Y0103405D03*
X0049285Y0104382D03*
X0041508Y0097327D03*
X0071683Y0107910D03*
D29*
X0051006Y0095712D03*
X0045184Y0101960D03*
X0044886Y0102640D03*
X0044844Y0102682D03*
X0041486Y0100302D03*
X0041486Y0100260D03*
X0041486Y0099707D03*
X0041486Y0099665D03*
X0041486Y0097667D03*
X0041486Y0097625D03*
X0038001Y0098305D03*
X0037661Y0099325D03*
X0038086Y0102598D03*
X0038129Y0102640D03*
D30*
X0041508Y0104977D03*
X0041508Y0095712D03*
D31*
X0063544Y0095755D03*
D32*
X0050858Y0095755D03*
X0044993Y0098687D03*
X0045120Y0098985D03*
X0045120Y0099027D03*
X0045120Y0099070D03*
X0045120Y0101662D03*
X0037683Y0100685D03*
X0037895Y0098985D03*
X0037895Y0098942D03*
X0037980Y0098730D03*
D33*
X0041486Y0095755D03*
X0039361Y0103490D03*
X0041486Y0104935D03*
X0043611Y0103490D03*
X0050326Y0102215D03*
X0050326Y0096095D03*
D34*
X0063608Y0095798D03*
D35*
X0050199Y0096223D03*
X0048584Y0099198D03*
X0048584Y0099240D03*
X0048626Y0099750D03*
X0050199Y0102087D03*
X0050199Y0102555D03*
X0049519Y0103448D03*
X0049264Y0104298D03*
X0043866Y0102980D03*
X0043824Y0103023D03*
X0043824Y0103065D03*
X0041486Y0104892D03*
X0039149Y0103023D03*
X0041486Y0097370D03*
X0041486Y0095798D03*
D36*
X0050517Y0095925D03*
X0063650Y0095840D03*
X0071683Y0108037D03*
D37*
X0050645Y0095840D03*
D38*
X0050092Y0102767D03*
X0041508Y0104850D03*
X0041508Y0095840D03*
X0060123Y0100430D03*
X0060123Y0100473D03*
X0060123Y0100515D03*
X0066115Y0100387D03*
X0066115Y0100345D03*
X0066115Y0100302D03*
X0066115Y0100260D03*
X0066115Y0099877D03*
X0066115Y0099835D03*
X0066115Y0099792D03*
X0066115Y0099750D03*
X0066115Y0099707D03*
X0066073Y0099665D03*
X0066073Y0099623D03*
X0066073Y0099580D03*
D39*
X0063693Y0095882D03*
D40*
X0063756Y0095925D03*
X0063034Y0104637D03*
X0050411Y0096010D03*
D41*
X0049901Y0096690D03*
X0049901Y0101662D03*
X0049901Y0103277D03*
X0041486Y0104765D03*
X0041486Y0095925D03*
X0065839Y0101067D03*
D42*
X0063799Y0095967D03*
X0071661Y0107995D03*
X0050369Y0102257D03*
X0050369Y0096052D03*
D43*
X0050454Y0095967D03*
D44*
X0049795Y0096902D03*
X0049795Y0101450D03*
X0041508Y0104723D03*
X0041508Y0095967D03*
X0060505Y0101237D03*
D45*
X0063841Y0096010D03*
X0043654Y0103448D03*
D46*
X0041508Y0104680D03*
X0041508Y0096010D03*
X0049710Y0097115D03*
X0049710Y0097157D03*
X0049710Y0101237D03*
X0064458Y0096945D03*
D47*
X0063884Y0096052D03*
X0063034Y0104595D03*
X0050284Y0102385D03*
X0050284Y0102173D03*
X0049391Y0103575D03*
X0049349Y0103617D03*
X0049349Y0103660D03*
X0049306Y0103702D03*
X0049306Y0103745D03*
X0049264Y0103830D03*
X0049264Y0103873D03*
X0049264Y0103915D03*
X0049221Y0104000D03*
X0043696Y0103362D03*
X0043696Y0103320D03*
X0039319Y0103362D03*
X0039276Y0103320D03*
X0050284Y0096137D03*
D48*
X0049625Y0097370D03*
X0049625Y0097412D03*
X0049625Y0100982D03*
X0049625Y0101025D03*
X0041508Y0104637D03*
X0041508Y0096052D03*
X0063012Y0104340D03*
X0064543Y0097115D03*
D49*
X0063926Y0096095D03*
X0071661Y0107952D03*
X0050241Y0102470D03*
X0050241Y0102130D03*
X0049221Y0104127D03*
X0049221Y0104170D03*
X0048584Y0099623D03*
X0048584Y0099580D03*
X0048584Y0099537D03*
X0050241Y0096180D03*
X0043739Y0103235D03*
X0039234Y0103192D03*
D50*
X0041508Y0104595D03*
X0041508Y0096095D03*
X0049540Y0097667D03*
X0049540Y0097710D03*
X0049540Y0097752D03*
X0049540Y0100685D03*
X0049540Y0100727D03*
X0063012Y0104298D03*
X0064627Y0097327D03*
D51*
X0063948Y0096137D03*
X0048562Y0099282D03*
X0048562Y0099325D03*
X0048562Y0099367D03*
X0048562Y0099410D03*
X0048562Y0099452D03*
X0048562Y0099495D03*
X0043802Y0103107D03*
X0039213Y0103150D03*
D52*
X0041486Y0104552D03*
X0041486Y0096137D03*
X0049476Y0098007D03*
X0049476Y0098050D03*
X0049476Y0098092D03*
X0049476Y0098135D03*
X0049476Y0100302D03*
X0049476Y0100345D03*
X0049476Y0100387D03*
D53*
X0048648Y0099792D03*
X0048605Y0099155D03*
X0048605Y0099112D03*
X0050177Y0096265D03*
X0050177Y0102598D03*
X0049243Y0104340D03*
X0043887Y0102937D03*
X0043887Y0102895D03*
X0039127Y0102937D03*
X0039127Y0102980D03*
X0039085Y0102895D03*
X0063990Y0096180D03*
D54*
X0064755Y0097667D03*
X0064755Y0097710D03*
X0049412Y0098517D03*
X0049412Y0098560D03*
X0049412Y0098602D03*
X0049412Y0098645D03*
X0049412Y0098687D03*
X0049412Y0098730D03*
X0049412Y0098773D03*
X0041508Y0096180D03*
X0041508Y0104510D03*
D55*
X0041486Y0104467D03*
X0041486Y0096223D03*
X0053599Y0107910D03*
X0064819Y0097923D03*
X0064819Y0097880D03*
D56*
X0064054Y0096265D03*
X0048754Y0099920D03*
X0048669Y0099027D03*
X0049306Y0104425D03*
D57*
X0041486Y0104425D03*
X0041486Y0096265D03*
D58*
X0041486Y0097285D03*
X0048711Y0098985D03*
X0050071Y0096392D03*
X0050071Y0101917D03*
X0050071Y0102810D03*
X0049349Y0104467D03*
X0060144Y0100600D03*
X0060144Y0100557D03*
X0064096Y0096307D03*
X0066051Y0099495D03*
X0066051Y0099537D03*
X0066094Y0100430D03*
X0066094Y0100473D03*
X0066094Y0100515D03*
X0066094Y0100557D03*
D59*
X0064968Y0098602D03*
X0064968Y0098560D03*
X0064968Y0098517D03*
X0041508Y0096307D03*
X0041508Y0104382D03*
D60*
X0050050Y0102852D03*
X0050050Y0101875D03*
X0050050Y0096435D03*
X0060165Y0100642D03*
X0060165Y0100685D03*
X0060208Y0100727D03*
X0060208Y0100770D03*
X0064118Y0096350D03*
X0066030Y0099452D03*
X0066073Y0100600D03*
X0066030Y0100642D03*
X0066030Y0100685D03*
D61*
X0066136Y0100217D03*
X0066136Y0100175D03*
X0066136Y0100132D03*
X0066136Y0100090D03*
X0066136Y0100048D03*
X0066136Y0100005D03*
X0066136Y0099962D03*
X0066136Y0099920D03*
X0060101Y0100260D03*
X0060101Y0100302D03*
X0060101Y0100345D03*
X0060101Y0100387D03*
X0050114Y0101960D03*
X0050114Y0102725D03*
X0050114Y0096350D03*
D62*
X0041486Y0096350D03*
X0041486Y0104340D03*
X0071661Y0107357D03*
D63*
X0071661Y0107867D03*
X0066009Y0100770D03*
X0066009Y0100727D03*
X0066009Y0099410D03*
X0066009Y0099367D03*
X0065966Y0099325D03*
X0064139Y0096392D03*
X0060229Y0100812D03*
X0050029Y0102895D03*
X0050029Y0102937D03*
X0048839Y0099962D03*
X0050029Y0096477D03*
D64*
X0041486Y0096392D03*
X0041486Y0104298D03*
X0062991Y0104042D03*
D65*
X0063012Y0104000D03*
X0041508Y0104255D03*
X0041508Y0096435D03*
D66*
X0049965Y0096562D03*
X0049965Y0103065D03*
X0049965Y0103107D03*
X0060293Y0100982D03*
X0064202Y0096477D03*
X0065902Y0099198D03*
X0065945Y0100898D03*
X0065902Y0100940D03*
X0074360Y0104425D03*
X0074360Y0104467D03*
X0074402Y0104340D03*
D67*
X0071661Y0107230D03*
X0053216Y0107825D03*
X0041486Y0104212D03*
X0041486Y0096477D03*
D68*
X0049923Y0096648D03*
X0049923Y0101705D03*
X0049923Y0103192D03*
X0049923Y0103235D03*
X0060378Y0101110D03*
X0064245Y0096520D03*
X0065818Y0099070D03*
X0065860Y0101025D03*
X0074318Y0104552D03*
D69*
X0062991Y0103915D03*
X0041486Y0104170D03*
X0041486Y0096520D03*
D70*
X0063034Y0104467D03*
X0064266Y0096562D03*
X0074254Y0104637D03*
D71*
X0041508Y0104127D03*
X0041508Y0096562D03*
D72*
X0041508Y0097157D03*
X0049540Y0104552D03*
X0049880Y0103320D03*
X0049880Y0101620D03*
X0049880Y0096732D03*
X0060420Y0101152D03*
X0064287Y0096605D03*
X0065775Y0099027D03*
D73*
X0065839Y0099112D03*
X0065881Y0099155D03*
X0065881Y0100982D03*
X0060356Y0101067D03*
X0060314Y0101025D03*
X0049944Y0101748D03*
X0049944Y0103150D03*
X0049944Y0096605D03*
X0041486Y0097200D03*
X0071661Y0107825D03*
X0074339Y0104510D03*
D74*
X0071661Y0107102D03*
X0041486Y0104085D03*
X0041486Y0096605D03*
D75*
X0049859Y0096775D03*
X0049859Y0101577D03*
X0064309Y0096648D03*
X0065796Y0101110D03*
X0071661Y0107782D03*
X0074211Y0104680D03*
D76*
X0071661Y0107060D03*
X0053004Y0107740D03*
X0041486Y0104042D03*
X0041486Y0096648D03*
D77*
X0049837Y0096817D03*
X0049837Y0101535D03*
X0060462Y0101195D03*
X0064330Y0096690D03*
X0065733Y0098985D03*
X0065775Y0101152D03*
D78*
X0071661Y0107017D03*
X0073021Y0104807D03*
X0041486Y0104000D03*
X0041486Y0096690D03*
D79*
X0041486Y0097115D03*
X0049816Y0096860D03*
X0049816Y0101492D03*
X0064351Y0096732D03*
X0065711Y0101195D03*
D80*
X0071661Y0106975D03*
X0052919Y0107698D03*
X0041486Y0103957D03*
X0041486Y0096732D03*
D81*
X0063012Y0104425D03*
X0065690Y0098942D03*
X0064373Y0096775D03*
X0074148Y0104723D03*
D82*
X0072873Y0104977D03*
X0063012Y0103660D03*
X0052855Y0107655D03*
X0041508Y0103915D03*
X0041508Y0096775D03*
D83*
X0049774Y0096945D03*
X0049774Y0096987D03*
X0049774Y0101407D03*
X0064394Y0096817D03*
X0065669Y0101237D03*
D84*
X0063012Y0103617D03*
X0041508Y0103873D03*
X0041508Y0096817D03*
D85*
X0049030Y0098900D03*
X0049752Y0097030D03*
X0049752Y0101365D03*
X0060590Y0101280D03*
X0064415Y0096860D03*
X0071683Y0107740D03*
D86*
X0072745Y0105148D03*
X0041508Y0103830D03*
X0041508Y0096860D03*
D87*
X0049731Y0097073D03*
X0049731Y0101280D03*
X0049731Y0101323D03*
X0064436Y0096902D03*
X0065584Y0098900D03*
D88*
X0063012Y0103532D03*
X0072618Y0105275D03*
X0072660Y0105232D03*
X0052727Y0107570D03*
X0041508Y0103787D03*
X0041508Y0096902D03*
D89*
X0041508Y0096945D03*
X0041508Y0103745D03*
X0052685Y0107527D03*
D90*
X0064479Y0096987D03*
X0065584Y0101280D03*
D91*
X0072490Y0105402D03*
X0041508Y0103702D03*
X0041508Y0096987D03*
D92*
X0049667Y0097242D03*
X0049667Y0101152D03*
X0064500Y0097030D03*
X0071683Y0107698D03*
D93*
X0063012Y0103405D03*
X0041508Y0103660D03*
X0041508Y0097030D03*
D94*
X0049646Y0097285D03*
X0049646Y0097327D03*
X0049646Y0101067D03*
X0049646Y0101110D03*
X0064521Y0097073D03*
D95*
X0072384Y0105530D03*
X0072341Y0105573D03*
X0071661Y0106635D03*
X0052579Y0107442D03*
X0041486Y0103617D03*
X0041486Y0097073D03*
D96*
X0041486Y0098177D03*
X0041486Y0099325D03*
X0041486Y0100642D03*
X0040126Y0102852D03*
X0037406Y0099410D03*
X0037959Y0097923D03*
X0038426Y0097242D03*
X0038469Y0097200D03*
X0038511Y0097157D03*
X0038554Y0097115D03*
X0044419Y0097115D03*
X0044461Y0097157D03*
X0044504Y0097200D03*
X0044546Y0097242D03*
X0044589Y0097285D03*
X0044631Y0097327D03*
X0045014Y0097923D03*
X0045566Y0099410D03*
D97*
X0049604Y0100898D03*
X0049604Y0100940D03*
X0049604Y0097498D03*
X0049604Y0097455D03*
X0064564Y0097157D03*
X0071661Y0107655D03*
D98*
X0064585Y0097200D03*
D99*
X0049689Y0097200D03*
X0049689Y0101195D03*
D100*
X0049561Y0100812D03*
X0049561Y0100770D03*
X0049561Y0097625D03*
X0064606Y0097285D03*
X0064606Y0097242D03*
D101*
X0045035Y0097880D03*
X0044780Y0097498D03*
X0044737Y0097455D03*
X0044695Y0097412D03*
X0044652Y0097370D03*
X0041508Y0098220D03*
X0038405Y0097285D03*
X0038363Y0097327D03*
X0038320Y0097370D03*
X0038277Y0097412D03*
X0040148Y0102810D03*
X0042825Y0102810D03*
D102*
X0049519Y0100642D03*
X0049519Y0100600D03*
X0049519Y0100557D03*
X0049519Y0097880D03*
X0049519Y0097837D03*
X0049519Y0097795D03*
X0064649Y0097370D03*
X0071661Y0107612D03*
D103*
X0064670Y0097455D03*
X0064670Y0097412D03*
X0049498Y0097923D03*
X0049498Y0097965D03*
X0049498Y0100430D03*
X0049498Y0100473D03*
X0049498Y0100515D03*
D104*
X0042889Y0097412D03*
X0070811Y0104298D03*
D105*
X0045141Y0101705D03*
X0045226Y0099282D03*
X0045184Y0099240D03*
X0045184Y0099198D03*
X0044971Y0098517D03*
X0041486Y0097412D03*
X0037789Y0099240D03*
X0037874Y0101705D03*
D106*
X0040105Y0097412D03*
X0041508Y0105190D03*
D107*
X0042868Y0097455D03*
X0040105Y0097455D03*
D108*
X0041486Y0098262D03*
X0041486Y0099282D03*
X0041486Y0100685D03*
X0040169Y0102767D03*
X0037279Y0100515D03*
X0037959Y0097880D03*
X0038129Y0097582D03*
X0038171Y0097540D03*
X0038214Y0097498D03*
X0038256Y0097455D03*
X0044801Y0097540D03*
X0044844Y0097582D03*
X0044886Y0097625D03*
X0045694Y0100515D03*
X0070726Y0104637D03*
D109*
X0064691Y0097498D03*
D110*
X0070854Y0104170D03*
X0042804Y0102427D03*
X0040169Y0102427D03*
X0040084Y0097498D03*
X0042889Y0097498D03*
D111*
X0049455Y0098177D03*
X0049455Y0098220D03*
X0049455Y0098262D03*
X0049412Y0100005D03*
X0049455Y0100132D03*
X0049455Y0100175D03*
X0049455Y0100217D03*
X0049455Y0100260D03*
X0063012Y0104255D03*
X0064712Y0097540D03*
X0071683Y0107570D03*
D112*
X0049583Y0100855D03*
X0049583Y0097582D03*
X0049583Y0097540D03*
D113*
X0042910Y0097540D03*
X0062333Y0099070D03*
D114*
X0041486Y0099835D03*
X0041486Y0099877D03*
X0041486Y0099920D03*
X0041486Y0099962D03*
X0041486Y0100005D03*
X0041486Y0100048D03*
X0041486Y0100090D03*
X0041486Y0100132D03*
X0041486Y0100175D03*
X0041486Y0097540D03*
X0038001Y0098348D03*
X0038001Y0098390D03*
X0037576Y0100642D03*
X0038214Y0102767D03*
X0038299Y0102852D03*
D115*
X0040169Y0102385D03*
X0042846Y0102385D03*
X0040084Y0097540D03*
X0070896Y0104085D03*
D116*
X0064734Y0097625D03*
X0064734Y0097582D03*
X0049434Y0098305D03*
X0049434Y0098348D03*
X0049434Y0098390D03*
X0049434Y0098432D03*
X0049434Y0098475D03*
X0049434Y0100048D03*
X0049434Y0100090D03*
D117*
X0045333Y0099325D03*
X0044993Y0098348D03*
X0044993Y0098305D03*
X0041508Y0097582D03*
X0041508Y0099750D03*
X0041508Y0099792D03*
X0041508Y0100217D03*
X0037810Y0101917D03*
X0038193Y0102725D03*
X0044780Y0102767D03*
X0044823Y0102725D03*
D118*
X0041508Y0098305D03*
X0044908Y0097667D03*
X0044993Y0097752D03*
X0044993Y0097795D03*
X0038108Y0097625D03*
X0037980Y0097795D03*
X0037980Y0097837D03*
X0037258Y0099962D03*
X0037258Y0100005D03*
X0037258Y0100048D03*
X0037258Y0100090D03*
X0037258Y0100132D03*
X0037258Y0100175D03*
X0037258Y0100217D03*
X0037258Y0100260D03*
X0037258Y0100302D03*
X0037258Y0100345D03*
X0037258Y0100387D03*
X0037258Y0100430D03*
X0037258Y0100473D03*
D119*
X0038023Y0097710D03*
X0038065Y0097667D03*
X0042825Y0102767D03*
X0045715Y0100473D03*
X0045035Y0097837D03*
X0044950Y0097710D03*
D120*
X0044993Y0098262D03*
X0044950Y0102555D03*
X0044908Y0102598D03*
X0041508Y0100345D03*
X0041508Y0099623D03*
X0041508Y0097710D03*
X0037980Y0098262D03*
X0037810Y0101960D03*
X0037810Y0102002D03*
X0038023Y0102512D03*
X0038065Y0102555D03*
X0063055Y0104765D03*
D121*
X0064776Y0097752D03*
X0071661Y0107527D03*
X0049391Y0098857D03*
X0049391Y0098815D03*
D122*
X0045014Y0098220D03*
X0045184Y0102002D03*
X0045184Y0102045D03*
X0045014Y0102470D03*
X0044971Y0102512D03*
X0041486Y0100387D03*
X0041486Y0099580D03*
X0041486Y0097752D03*
X0038001Y0098220D03*
X0037789Y0102045D03*
X0037959Y0102427D03*
X0038001Y0102470D03*
D123*
X0037279Y0099920D03*
X0037279Y0099877D03*
X0037279Y0099835D03*
X0037279Y0099792D03*
X0037279Y0099750D03*
X0037279Y0099707D03*
X0037279Y0099665D03*
X0037279Y0099623D03*
X0037321Y0099452D03*
X0038001Y0097752D03*
X0041486Y0098348D03*
X0041486Y0098390D03*
X0040211Y0102725D03*
X0045736Y0100430D03*
X0045736Y0100387D03*
X0045736Y0100345D03*
X0045736Y0100302D03*
X0045736Y0100260D03*
X0045736Y0100217D03*
X0045736Y0100175D03*
X0045736Y0100132D03*
X0045736Y0100090D03*
X0045736Y0100048D03*
X0045736Y0100005D03*
X0045736Y0099962D03*
X0045736Y0099920D03*
X0045736Y0099877D03*
X0045736Y0099835D03*
X0045736Y0099792D03*
X0045651Y0099452D03*
D124*
X0063012Y0104212D03*
X0064798Y0097837D03*
X0064798Y0097795D03*
D125*
X0044993Y0098177D03*
X0045205Y0102087D03*
X0041508Y0100430D03*
X0041508Y0099537D03*
X0041508Y0097795D03*
X0037980Y0098177D03*
X0037470Y0100600D03*
X0037895Y0102342D03*
D126*
X0037874Y0102300D03*
X0037789Y0102173D03*
X0037789Y0102130D03*
X0037789Y0102087D03*
X0037534Y0099367D03*
X0041486Y0099495D03*
X0041486Y0100473D03*
X0041486Y0097880D03*
X0041486Y0097837D03*
X0045014Y0098135D03*
X0045524Y0100600D03*
X0045184Y0102173D03*
X0045184Y0102215D03*
X0045141Y0102300D03*
X0045099Y0102342D03*
X0071661Y0108165D03*
D127*
X0064840Y0098007D03*
X0064840Y0097965D03*
D128*
X0045014Y0098050D03*
X0045014Y0098092D03*
X0041486Y0097965D03*
X0041486Y0099452D03*
D129*
X0041486Y0099367D03*
X0041486Y0100600D03*
X0041486Y0098092D03*
X0041486Y0098050D03*
X0045014Y0098007D03*
X0070726Y0104680D03*
D130*
X0041508Y0100557D03*
X0041508Y0099410D03*
X0041508Y0098007D03*
X0037980Y0098050D03*
D131*
X0037959Y0098007D03*
D132*
X0062991Y0104170D03*
X0064861Y0098092D03*
X0064861Y0098050D03*
X0071661Y0107485D03*
D133*
X0064883Y0098177D03*
X0064883Y0098135D03*
D134*
X0064904Y0098220D03*
X0064904Y0098262D03*
D135*
X0064925Y0098305D03*
X0064925Y0098348D03*
X0064925Y0098390D03*
X0071683Y0107442D03*
D136*
X0064946Y0098475D03*
X0064946Y0098432D03*
X0062991Y0104127D03*
D137*
X0070705Y0104595D03*
X0045715Y0099750D03*
X0045715Y0099707D03*
X0045715Y0099665D03*
X0045715Y0099623D03*
X0045715Y0099580D03*
X0045715Y0099537D03*
X0042783Y0102725D03*
X0041508Y0100727D03*
X0041508Y0099240D03*
X0041508Y0098432D03*
X0040233Y0102682D03*
X0037300Y0099580D03*
X0037300Y0099537D03*
X0037300Y0099495D03*
D138*
X0037768Y0099282D03*
X0038023Y0098475D03*
X0037853Y0101748D03*
X0045162Y0101748D03*
X0044993Y0098475D03*
D139*
X0042761Y0102682D03*
X0041486Y0098475D03*
D140*
X0041508Y0098517D03*
X0041508Y0099198D03*
X0042740Y0102640D03*
X0070705Y0104552D03*
D141*
X0063076Y0104807D03*
X0041486Y0100770D03*
X0041486Y0098602D03*
X0041486Y0098560D03*
D142*
X0044971Y0098602D03*
X0044971Y0098645D03*
X0045014Y0098730D03*
X0045056Y0098815D03*
X0045056Y0098857D03*
X0045099Y0098942D03*
X0045099Y0101620D03*
X0037874Y0101620D03*
X0037916Y0098900D03*
X0037916Y0098857D03*
X0037959Y0098773D03*
X0038001Y0098687D03*
X0038001Y0098645D03*
D143*
X0064989Y0098645D03*
X0064989Y0098687D03*
X0064989Y0098730D03*
X0071661Y0107400D03*
D144*
X0041508Y0098645D03*
D145*
X0041486Y0098687D03*
X0041486Y0099155D03*
X0040254Y0102598D03*
X0042719Y0102598D03*
X0070726Y0104510D03*
D146*
X0065010Y0098857D03*
X0065010Y0098815D03*
X0065010Y0098773D03*
X0063012Y0104085D03*
D147*
X0070726Y0104467D03*
X0041486Y0098773D03*
D148*
X0041508Y0098815D03*
X0041508Y0099112D03*
D149*
X0073893Y0099112D03*
X0073893Y0099070D03*
X0073893Y0099027D03*
X0073893Y0098985D03*
X0073893Y0098942D03*
X0073893Y0098900D03*
X0073893Y0098857D03*
X0073893Y0099155D03*
X0073893Y0099198D03*
X0073893Y0099240D03*
X0073893Y0099282D03*
X0073893Y0099325D03*
X0073893Y0099367D03*
X0073893Y0099410D03*
X0073893Y0099452D03*
X0073893Y0099495D03*
X0073893Y0099537D03*
X0073893Y0099580D03*
X0073893Y0099623D03*
X0073893Y0099665D03*
X0073893Y0099707D03*
X0073893Y0099750D03*
X0073893Y0099792D03*
X0073893Y0099835D03*
X0073893Y0099877D03*
X0073893Y0099920D03*
X0073893Y0099962D03*
X0073893Y0100005D03*
X0073893Y0100048D03*
X0073893Y0100090D03*
X0073893Y0100132D03*
X0073893Y0100175D03*
X0073893Y0100217D03*
X0073893Y0100260D03*
X0073893Y0100302D03*
X0073893Y0100345D03*
X0073893Y0100387D03*
X0073893Y0100430D03*
X0073893Y0100473D03*
X0073893Y0100515D03*
X0073893Y0100557D03*
X0073893Y0100600D03*
X0073893Y0100642D03*
X0073893Y0100685D03*
X0073893Y0100727D03*
X0073893Y0100770D03*
X0073893Y0100812D03*
X0073893Y0100855D03*
X0073893Y0100898D03*
X0073893Y0100940D03*
X0073893Y0100982D03*
X0073893Y0101025D03*
X0073893Y0101067D03*
X0073893Y0101110D03*
X0073893Y0101152D03*
X0073893Y0101195D03*
X0073893Y0101237D03*
X0073893Y0101280D03*
X0073893Y0101323D03*
X0073893Y0101365D03*
X0073893Y0101407D03*
X0073893Y0101450D03*
X0073893Y0101492D03*
X0073893Y0101535D03*
X0073893Y0101577D03*
X0073893Y0101620D03*
X0073893Y0101662D03*
X0073893Y0101705D03*
X0073893Y0101748D03*
X0073893Y0101790D03*
X0073893Y0101832D03*
X0073893Y0101875D03*
X0073893Y0101917D03*
X0073893Y0101960D03*
X0073893Y0102002D03*
X0073893Y0102045D03*
X0073893Y0102087D03*
X0073893Y0102130D03*
X0073893Y0102173D03*
D150*
X0042761Y0102555D03*
X0040254Y0102555D03*
X0041486Y0098900D03*
X0041486Y0098857D03*
D151*
X0062566Y0098900D03*
X0070769Y0104340D03*
D152*
X0070811Y0104255D03*
X0062481Y0098942D03*
X0042804Y0102470D03*
X0040211Y0102470D03*
D153*
X0048775Y0098942D03*
X0049412Y0104510D03*
X0060250Y0100898D03*
X0060250Y0100855D03*
X0063012Y0104510D03*
X0065988Y0100812D03*
X0074488Y0103787D03*
X0074488Y0103830D03*
X0074488Y0103873D03*
X0074488Y0103915D03*
X0074488Y0103957D03*
X0074488Y0104000D03*
D154*
X0070748Y0104425D03*
X0041508Y0100855D03*
X0041508Y0099070D03*
X0041508Y0098942D03*
D155*
X0062418Y0098985D03*
D156*
X0070769Y0104382D03*
X0041486Y0099027D03*
X0041486Y0098985D03*
D157*
X0062375Y0099027D03*
D158*
X0062290Y0099112D03*
D159*
X0037831Y0099155D03*
D160*
X0045694Y0099495D03*
D161*
X0048605Y0099665D03*
X0048605Y0099707D03*
X0050220Y0102512D03*
X0049455Y0103490D03*
X0049243Y0104212D03*
X0049243Y0104255D03*
X0039170Y0103107D03*
X0039170Y0103065D03*
D162*
X0038256Y0102810D03*
X0037831Y0101875D03*
X0044716Y0102852D03*
X0044759Y0102810D03*
X0045184Y0101875D03*
X0045396Y0100642D03*
D163*
X0045248Y0100727D03*
X0045120Y0101577D03*
X0037895Y0101577D03*
X0037895Y0101535D03*
X0037768Y0100770D03*
D164*
X0037789Y0100812D03*
X0037789Y0100855D03*
X0037746Y0100727D03*
X0045099Y0101535D03*
X0045226Y0100812D03*
X0045226Y0100770D03*
D165*
X0041508Y0100898D03*
D166*
X0045162Y0100940D03*
X0045162Y0100982D03*
X0045162Y0101025D03*
D167*
X0045141Y0101067D03*
X0045141Y0101110D03*
X0037916Y0101407D03*
X0037916Y0101450D03*
X0037831Y0101067D03*
X0037831Y0101025D03*
D168*
X0037895Y0101195D03*
X0037895Y0101237D03*
X0037895Y0101280D03*
X0037938Y0101365D03*
X0045077Y0101365D03*
X0045077Y0101407D03*
X0045077Y0101323D03*
X0045077Y0101280D03*
X0045077Y0101237D03*
X0045120Y0101195D03*
X0045120Y0101152D03*
D169*
X0063119Y0101323D03*
D170*
X0037916Y0101323D03*
D171*
X0063098Y0101365D03*
X0063098Y0101407D03*
X0063098Y0101450D03*
D172*
X0063119Y0101492D03*
D173*
X0063098Y0101535D03*
X0063098Y0101577D03*
X0063098Y0101620D03*
D174*
X0063098Y0101662D03*
X0063098Y0101705D03*
X0063098Y0101748D03*
D175*
X0063098Y0101790D03*
X0063098Y0101832D03*
D176*
X0063076Y0101875D03*
X0063076Y0101917D03*
D177*
X0045162Y0101917D03*
X0038150Y0102682D03*
D178*
X0063098Y0101960D03*
D179*
X0063076Y0102002D03*
X0063076Y0102045D03*
D180*
X0063076Y0102087D03*
X0063076Y0102130D03*
D181*
X0063076Y0102173D03*
X0063076Y0102215D03*
D182*
X0063076Y0102257D03*
X0063076Y0102300D03*
D183*
X0037831Y0102257D03*
D184*
X0039383Y0103532D03*
X0043548Y0103575D03*
X0043590Y0103532D03*
X0050348Y0102300D03*
D185*
X0051835Y0104595D03*
X0051835Y0104637D03*
X0051835Y0104680D03*
X0051835Y0104723D03*
X0051835Y0104765D03*
X0051835Y0104807D03*
X0051835Y0104850D03*
X0051835Y0104892D03*
X0051835Y0104935D03*
X0051835Y0104977D03*
X0051835Y0105020D03*
X0051835Y0105062D03*
X0051835Y0105105D03*
X0051835Y0105148D03*
X0051835Y0105190D03*
X0051835Y0105232D03*
X0051835Y0105275D03*
X0063055Y0102342D03*
D186*
X0050305Y0102342D03*
X0049285Y0103787D03*
X0043675Y0103405D03*
X0039340Y0103405D03*
X0039340Y0103448D03*
D187*
X0051856Y0105317D03*
X0051856Y0105360D03*
X0051856Y0105402D03*
X0051856Y0105445D03*
X0051856Y0105487D03*
X0051856Y0105530D03*
X0051856Y0105573D03*
X0063076Y0102385D03*
D188*
X0045077Y0102385D03*
X0045035Y0102427D03*
X0037938Y0102385D03*
D189*
X0051877Y0105615D03*
X0051877Y0105657D03*
X0051877Y0105700D03*
X0051877Y0105742D03*
X0063055Y0102427D03*
D190*
X0050262Y0102427D03*
X0049412Y0103532D03*
X0049243Y0103957D03*
X0049243Y0104042D03*
X0049243Y0104085D03*
X0043718Y0103277D03*
X0039255Y0103277D03*
X0039255Y0103235D03*
D191*
X0051899Y0105785D03*
X0051899Y0105827D03*
X0051899Y0105870D03*
X0063076Y0102470D03*
D192*
X0063055Y0102512D03*
X0051920Y0105912D03*
X0051920Y0105955D03*
X0051920Y0105998D03*
D193*
X0051962Y0106167D03*
X0051962Y0106210D03*
X0063055Y0102598D03*
X0063055Y0102555D03*
D194*
X0063055Y0102640D03*
X0052005Y0106337D03*
X0052005Y0106380D03*
D195*
X0040254Y0102640D03*
D196*
X0052048Y0106507D03*
X0063055Y0102725D03*
X0063055Y0102682D03*
D197*
X0063055Y0102767D03*
X0052090Y0106592D03*
X0052090Y0106635D03*
D198*
X0052111Y0106677D03*
X0063034Y0102810D03*
D199*
X0063055Y0102852D03*
X0052133Y0106720D03*
D200*
X0052175Y0106848D03*
X0063055Y0102895D03*
D201*
X0063034Y0102937D03*
X0052196Y0106890D03*
D202*
X0063034Y0102980D03*
D203*
X0063055Y0103023D03*
X0052260Y0107017D03*
D204*
X0063034Y0103065D03*
X0071661Y0106252D03*
D205*
X0071746Y0106167D03*
X0071789Y0106125D03*
X0063034Y0103107D03*
X0052324Y0107102D03*
D206*
X0052366Y0107187D03*
X0063034Y0103150D03*
X0071661Y0106380D03*
X0071874Y0106040D03*
D207*
X0043781Y0103192D03*
X0043781Y0103150D03*
D208*
X0052409Y0107230D03*
X0063034Y0103192D03*
X0071661Y0106423D03*
X0071959Y0105955D03*
X0072001Y0105912D03*
D209*
X0072065Y0105870D03*
X0063012Y0103235D03*
X0052430Y0107273D03*
D210*
X0063012Y0103277D03*
X0072150Y0105785D03*
D211*
X0072235Y0105700D03*
X0063012Y0103320D03*
X0052515Y0107357D03*
D212*
X0063012Y0103362D03*
D213*
X0049731Y0103362D03*
D214*
X0052621Y0107485D03*
X0063034Y0103448D03*
X0071661Y0106677D03*
X0072426Y0105487D03*
X0072469Y0105445D03*
D215*
X0072575Y0105317D03*
X0063012Y0103490D03*
D216*
X0063012Y0103575D03*
D217*
X0039425Y0103575D03*
D218*
X0063012Y0103702D03*
D219*
X0063012Y0103745D03*
X0073000Y0104850D03*
D220*
X0063012Y0103787D03*
D221*
X0063012Y0103830D03*
D222*
X0063012Y0103873D03*
D223*
X0063012Y0103957D03*
D224*
X0070896Y0104127D03*
D225*
X0070854Y0104212D03*
D226*
X0063012Y0104382D03*
D227*
X0063012Y0104552D03*
D228*
X0074275Y0104595D03*
D229*
X0073043Y0104765D03*
D230*
X0072958Y0104892D03*
X0072915Y0104935D03*
D231*
X0072851Y0105020D03*
X0072809Y0105062D03*
X0071661Y0106890D03*
D232*
X0071661Y0106848D03*
X0072766Y0105105D03*
X0052791Y0107612D03*
D233*
X0071661Y0106805D03*
X0072681Y0105190D03*
D234*
X0072554Y0105360D03*
D235*
X0072299Y0105615D03*
X0072256Y0105657D03*
X0071661Y0106592D03*
X0052536Y0107400D03*
D236*
X0071661Y0106550D03*
X0071661Y0106507D03*
X0072171Y0105742D03*
D237*
X0072086Y0105827D03*
X0071661Y0106465D03*
D238*
X0071938Y0105998D03*
D239*
X0051941Y0106040D03*
X0051941Y0106082D03*
X0051941Y0106125D03*
D240*
X0071640Y0106337D03*
X0071852Y0106082D03*
D241*
X0071725Y0106210D03*
X0071640Y0106295D03*
X0052302Y0107060D03*
D242*
X0051984Y0106295D03*
X0051984Y0106252D03*
D243*
X0052026Y0106423D03*
X0052026Y0106465D03*
D244*
X0052069Y0106550D03*
D245*
X0071661Y0106720D03*
D246*
X0071661Y0106762D03*
D247*
X0052154Y0106762D03*
X0052154Y0106805D03*
D248*
X0071661Y0106932D03*
D249*
X0052217Y0106932D03*
D250*
X0052239Y0106975D03*
D251*
X0053089Y0107782D03*
X0071661Y0107145D03*
D252*
X0052345Y0107145D03*
D253*
X0071683Y0107187D03*
D254*
X0071661Y0107273D03*
D255*
X0071683Y0107315D03*
D256*
X0052473Y0107315D03*
D257*
X0053365Y0107867D03*
D258*
X0071661Y0108080D03*
D259*
X0001500Y0101500D02*
X0001500Y0016500D01*
X0001504Y0016138D01*
X0001518Y0015775D01*
X0001539Y0015413D01*
X0001570Y0015052D01*
X0001609Y0014692D01*
X0001657Y0014333D01*
X0001714Y0013975D01*
X0001779Y0013618D01*
X0001853Y0013263D01*
X0001936Y0012910D01*
X0002027Y0012559D01*
X0002126Y0012211D01*
X0002234Y0011865D01*
X0002350Y0011521D01*
X0002475Y0011181D01*
X0002607Y0010844D01*
X0002748Y0010510D01*
X0002897Y0010179D01*
X0003054Y0009852D01*
X0003218Y0009529D01*
X0003390Y0009210D01*
X0003570Y0008896D01*
X0003758Y0008585D01*
X0003953Y0008280D01*
X0004155Y0007979D01*
X0004365Y0007683D01*
X0004581Y0007393D01*
X0004805Y0007107D01*
X0005035Y0006827D01*
X0005272Y0006553D01*
X0005516Y0006285D01*
X0005766Y0006022D01*
X0006022Y0005766D01*
X0006285Y0005516D01*
X0006553Y0005272D01*
X0006827Y0005035D01*
X0007107Y0004805D01*
X0007393Y0004581D01*
X0007683Y0004365D01*
X0007979Y0004155D01*
X0008280Y0003953D01*
X0008585Y0003758D01*
X0008896Y0003570D01*
X0009210Y0003390D01*
X0009529Y0003218D01*
X0009852Y0003054D01*
X0010179Y0002897D01*
X0010510Y0002748D01*
X0010844Y0002607D01*
X0011181Y0002475D01*
X0011521Y0002350D01*
X0011865Y0002234D01*
X0012211Y0002126D01*
X0012559Y0002027D01*
X0012910Y0001936D01*
X0013263Y0001853D01*
X0013618Y0001779D01*
X0013975Y0001714D01*
X0014333Y0001657D01*
X0014692Y0001609D01*
X0015052Y0001570D01*
X0015413Y0001539D01*
X0015775Y0001518D01*
X0016138Y0001504D01*
X0016500Y0001500D01*
X0096500Y0001500D01*
X0096862Y0001504D01*
X0097225Y0001518D01*
X0097587Y0001539D01*
X0097948Y0001570D01*
X0098308Y0001609D01*
X0098667Y0001657D01*
X0099025Y0001714D01*
X0099382Y0001779D01*
X0099737Y0001853D01*
X0100090Y0001936D01*
X0100441Y0002027D01*
X0100789Y0002126D01*
X0101135Y0002234D01*
X0101479Y0002350D01*
X0101819Y0002475D01*
X0102156Y0002607D01*
X0102490Y0002748D01*
X0102821Y0002897D01*
X0103148Y0003054D01*
X0103471Y0003218D01*
X0103790Y0003390D01*
X0104104Y0003570D01*
X0104415Y0003758D01*
X0104720Y0003953D01*
X0105021Y0004155D01*
X0105317Y0004365D01*
X0105607Y0004581D01*
X0105893Y0004805D01*
X0106173Y0005035D01*
X0106447Y0005272D01*
X0106715Y0005516D01*
X0106978Y0005766D01*
X0107234Y0006022D01*
X0107484Y0006285D01*
X0107728Y0006553D01*
X0107965Y0006827D01*
X0108195Y0007107D01*
X0108419Y0007393D01*
X0108635Y0007683D01*
X0108845Y0007979D01*
X0109047Y0008280D01*
X0109242Y0008585D01*
X0109430Y0008896D01*
X0109610Y0009210D01*
X0109782Y0009529D01*
X0109946Y0009852D01*
X0110103Y0010179D01*
X0110252Y0010510D01*
X0110393Y0010844D01*
X0110525Y0011181D01*
X0110650Y0011521D01*
X0110766Y0011865D01*
X0110874Y0012211D01*
X0110973Y0012559D01*
X0111064Y0012910D01*
X0111147Y0013263D01*
X0111221Y0013618D01*
X0111286Y0013975D01*
X0111343Y0014333D01*
X0111391Y0014692D01*
X0111430Y0015052D01*
X0111461Y0015413D01*
X0111482Y0015775D01*
X0111496Y0016138D01*
X0111500Y0016500D01*
X0111500Y0101500D01*
X0075989Y0025732D02*
X0075991Y0025825D01*
X0075997Y0025917D01*
X0076007Y0026009D01*
X0076021Y0026100D01*
X0076038Y0026191D01*
X0076060Y0026281D01*
X0076085Y0026370D01*
X0076114Y0026458D01*
X0076147Y0026544D01*
X0076184Y0026629D01*
X0076224Y0026713D01*
X0076268Y0026794D01*
X0076315Y0026874D01*
X0076365Y0026952D01*
X0076419Y0027027D01*
X0076476Y0027100D01*
X0076536Y0027170D01*
X0076599Y0027238D01*
X0076665Y0027303D01*
X0076733Y0027365D01*
X0076804Y0027425D01*
X0076878Y0027481D01*
X0076954Y0027534D01*
X0077032Y0027583D01*
X0077112Y0027630D01*
X0077194Y0027672D01*
X0077278Y0027712D01*
X0077363Y0027747D01*
X0077450Y0027779D01*
X0077538Y0027808D01*
X0077627Y0027832D01*
X0077717Y0027853D01*
X0077808Y0027869D01*
X0077900Y0027882D01*
X0077992Y0027891D01*
X0078085Y0027896D01*
X0078177Y0027897D01*
X0078270Y0027894D01*
X0078362Y0027887D01*
X0078454Y0027876D01*
X0078545Y0027861D01*
X0078636Y0027843D01*
X0078726Y0027820D01*
X0078814Y0027794D01*
X0078902Y0027764D01*
X0078988Y0027730D01*
X0079072Y0027693D01*
X0079155Y0027651D01*
X0079236Y0027607D01*
X0079316Y0027559D01*
X0079393Y0027508D01*
X0079467Y0027453D01*
X0079540Y0027395D01*
X0079610Y0027335D01*
X0079677Y0027271D01*
X0079741Y0027205D01*
X0079803Y0027135D01*
X0079861Y0027064D01*
X0079916Y0026990D01*
X0079968Y0026913D01*
X0080017Y0026834D01*
X0080063Y0026754D01*
X0080105Y0026671D01*
X0080143Y0026587D01*
X0080178Y0026501D01*
X0080209Y0026414D01*
X0080236Y0026326D01*
X0080259Y0026236D01*
X0080279Y0026146D01*
X0080295Y0026055D01*
X0080307Y0025963D01*
X0080315Y0025871D01*
X0080319Y0025778D01*
X0080319Y0025686D01*
X0080315Y0025593D01*
X0080307Y0025501D01*
X0080295Y0025409D01*
X0080279Y0025318D01*
X0080259Y0025228D01*
X0080236Y0025138D01*
X0080209Y0025050D01*
X0080178Y0024963D01*
X0080143Y0024877D01*
X0080105Y0024793D01*
X0080063Y0024710D01*
X0080017Y0024630D01*
X0079968Y0024551D01*
X0079916Y0024474D01*
X0079861Y0024400D01*
X0079803Y0024329D01*
X0079741Y0024259D01*
X0079677Y0024193D01*
X0079610Y0024129D01*
X0079540Y0024069D01*
X0079467Y0024011D01*
X0079393Y0023956D01*
X0079316Y0023905D01*
X0079237Y0023857D01*
X0079155Y0023813D01*
X0079072Y0023771D01*
X0078988Y0023734D01*
X0078902Y0023700D01*
X0078814Y0023670D01*
X0078726Y0023644D01*
X0078636Y0023621D01*
X0078545Y0023603D01*
X0078454Y0023588D01*
X0078362Y0023577D01*
X0078270Y0023570D01*
X0078177Y0023567D01*
X0078085Y0023568D01*
X0077992Y0023573D01*
X0077900Y0023582D01*
X0077808Y0023595D01*
X0077717Y0023611D01*
X0077627Y0023632D01*
X0077538Y0023656D01*
X0077450Y0023685D01*
X0077363Y0023717D01*
X0077278Y0023752D01*
X0077194Y0023792D01*
X0077112Y0023834D01*
X0077032Y0023881D01*
X0076954Y0023930D01*
X0076878Y0023983D01*
X0076804Y0024039D01*
X0076733Y0024099D01*
X0076665Y0024161D01*
X0076599Y0024226D01*
X0076536Y0024294D01*
X0076476Y0024364D01*
X0076419Y0024437D01*
X0076365Y0024512D01*
X0076315Y0024590D01*
X0076268Y0024670D01*
X0076224Y0024751D01*
X0076184Y0024835D01*
X0076147Y0024920D01*
X0076114Y0025006D01*
X0076085Y0025094D01*
X0076060Y0025183D01*
X0076038Y0025273D01*
X0076021Y0025364D01*
X0076007Y0025455D01*
X0075997Y0025547D01*
X0075991Y0025639D01*
X0075989Y0025732D01*
X0032681Y0025732D02*
X0032683Y0025825D01*
X0032689Y0025917D01*
X0032699Y0026009D01*
X0032713Y0026100D01*
X0032730Y0026191D01*
X0032752Y0026281D01*
X0032777Y0026370D01*
X0032806Y0026458D01*
X0032839Y0026544D01*
X0032876Y0026629D01*
X0032916Y0026713D01*
X0032960Y0026794D01*
X0033007Y0026874D01*
X0033057Y0026952D01*
X0033111Y0027027D01*
X0033168Y0027100D01*
X0033228Y0027170D01*
X0033291Y0027238D01*
X0033357Y0027303D01*
X0033425Y0027365D01*
X0033496Y0027425D01*
X0033570Y0027481D01*
X0033646Y0027534D01*
X0033724Y0027583D01*
X0033804Y0027630D01*
X0033886Y0027672D01*
X0033970Y0027712D01*
X0034055Y0027747D01*
X0034142Y0027779D01*
X0034230Y0027808D01*
X0034319Y0027832D01*
X0034409Y0027853D01*
X0034500Y0027869D01*
X0034592Y0027882D01*
X0034684Y0027891D01*
X0034777Y0027896D01*
X0034869Y0027897D01*
X0034962Y0027894D01*
X0035054Y0027887D01*
X0035146Y0027876D01*
X0035237Y0027861D01*
X0035328Y0027843D01*
X0035418Y0027820D01*
X0035506Y0027794D01*
X0035594Y0027764D01*
X0035680Y0027730D01*
X0035764Y0027693D01*
X0035847Y0027651D01*
X0035928Y0027607D01*
X0036008Y0027559D01*
X0036085Y0027508D01*
X0036159Y0027453D01*
X0036232Y0027395D01*
X0036302Y0027335D01*
X0036369Y0027271D01*
X0036433Y0027205D01*
X0036495Y0027135D01*
X0036553Y0027064D01*
X0036608Y0026990D01*
X0036660Y0026913D01*
X0036709Y0026834D01*
X0036755Y0026754D01*
X0036797Y0026671D01*
X0036835Y0026587D01*
X0036870Y0026501D01*
X0036901Y0026414D01*
X0036928Y0026326D01*
X0036951Y0026236D01*
X0036971Y0026146D01*
X0036987Y0026055D01*
X0036999Y0025963D01*
X0037007Y0025871D01*
X0037011Y0025778D01*
X0037011Y0025686D01*
X0037007Y0025593D01*
X0036999Y0025501D01*
X0036987Y0025409D01*
X0036971Y0025318D01*
X0036951Y0025228D01*
X0036928Y0025138D01*
X0036901Y0025050D01*
X0036870Y0024963D01*
X0036835Y0024877D01*
X0036797Y0024793D01*
X0036755Y0024710D01*
X0036709Y0024630D01*
X0036660Y0024551D01*
X0036608Y0024474D01*
X0036553Y0024400D01*
X0036495Y0024329D01*
X0036433Y0024259D01*
X0036369Y0024193D01*
X0036302Y0024129D01*
X0036232Y0024069D01*
X0036159Y0024011D01*
X0036085Y0023956D01*
X0036008Y0023905D01*
X0035929Y0023857D01*
X0035847Y0023813D01*
X0035764Y0023771D01*
X0035680Y0023734D01*
X0035594Y0023700D01*
X0035506Y0023670D01*
X0035418Y0023644D01*
X0035328Y0023621D01*
X0035237Y0023603D01*
X0035146Y0023588D01*
X0035054Y0023577D01*
X0034962Y0023570D01*
X0034869Y0023567D01*
X0034777Y0023568D01*
X0034684Y0023573D01*
X0034592Y0023582D01*
X0034500Y0023595D01*
X0034409Y0023611D01*
X0034319Y0023632D01*
X0034230Y0023656D01*
X0034142Y0023685D01*
X0034055Y0023717D01*
X0033970Y0023752D01*
X0033886Y0023792D01*
X0033804Y0023834D01*
X0033724Y0023881D01*
X0033646Y0023930D01*
X0033570Y0023983D01*
X0033496Y0024039D01*
X0033425Y0024099D01*
X0033357Y0024161D01*
X0033291Y0024226D01*
X0033228Y0024294D01*
X0033168Y0024364D01*
X0033111Y0024437D01*
X0033057Y0024512D01*
X0033007Y0024590D01*
X0032960Y0024670D01*
X0032916Y0024751D01*
X0032876Y0024835D01*
X0032839Y0024920D01*
X0032806Y0025006D01*
X0032777Y0025094D01*
X0032752Y0025183D01*
X0032730Y0025273D01*
X0032713Y0025364D01*
X0032699Y0025455D01*
X0032689Y0025547D01*
X0032683Y0025639D01*
X0032681Y0025732D01*
X0001500Y0101500D02*
X0001516Y0102839D01*
X0001565Y0104178D01*
X0001647Y0105515D01*
X0001761Y0106849D01*
X0001907Y0108181D01*
X0002086Y0109508D01*
X0002297Y0110831D01*
X0002541Y0112148D01*
X0002816Y0113459D01*
X0003123Y0114762D01*
X0003462Y0116058D01*
X0003832Y0117345D01*
X0004233Y0118623D01*
X0004666Y0119891D01*
X0005129Y0121148D01*
X0005623Y0122393D01*
X0006147Y0123626D01*
X0006700Y0124845D01*
X0007284Y0126051D01*
X0007896Y0127242D01*
X0008537Y0128418D01*
X0009207Y0129578D01*
X0009905Y0130721D01*
X0010630Y0131847D01*
X0011383Y0132955D01*
X0012162Y0134045D01*
X0012968Y0135115D01*
X0013799Y0136165D01*
X0014656Y0137194D01*
X0015538Y0138203D01*
X0016443Y0139189D01*
X0017373Y0140153D01*
X0018326Y0141095D01*
X0019301Y0142013D01*
X0020299Y0142906D01*
X0021318Y0143776D01*
X0022358Y0144620D01*
X0023418Y0145438D01*
X0024498Y0146231D01*
X0025596Y0146997D01*
X0026714Y0147736D01*
X0027848Y0148448D01*
X0029000Y0149131D01*
X0030168Y0149787D01*
X0031352Y0150414D01*
X0032550Y0151012D01*
X0033763Y0151580D01*
X0034989Y0152119D01*
X0036228Y0152628D01*
X0037479Y0153106D01*
X0038742Y0153554D01*
X0040014Y0153971D01*
X0041297Y0154357D01*
X0042589Y0154712D01*
X0043889Y0155035D01*
X0045196Y0155326D01*
X0046510Y0155585D01*
X0047830Y0155812D01*
X0049155Y0156007D01*
X0050485Y0156170D01*
X0051818Y0156300D01*
X0053153Y0156398D01*
X0054491Y0156463D01*
X0055830Y0156496D01*
X0057170Y0156496D01*
X0058509Y0156463D01*
X0059847Y0156398D01*
X0061182Y0156300D01*
X0062515Y0156170D01*
X0063845Y0156007D01*
X0065170Y0155812D01*
X0066490Y0155585D01*
X0067804Y0155326D01*
X0069111Y0155035D01*
X0070411Y0154712D01*
X0071703Y0154357D01*
X0072986Y0153971D01*
X0074258Y0153554D01*
X0075521Y0153106D01*
X0076772Y0152628D01*
X0078011Y0152119D01*
X0079237Y0151580D01*
X0080450Y0151012D01*
X0081648Y0150414D01*
X0082832Y0149787D01*
X0084000Y0149131D01*
X0085152Y0148448D01*
X0086286Y0147736D01*
X0087404Y0146997D01*
X0088502Y0146231D01*
X0089582Y0145438D01*
X0090642Y0144620D01*
X0091682Y0143776D01*
X0092701Y0142906D01*
X0093699Y0142013D01*
X0094674Y0141095D01*
X0095627Y0140153D01*
X0096557Y0139189D01*
X0097462Y0138203D01*
X0098344Y0137194D01*
X0099201Y0136165D01*
X0100032Y0135115D01*
X0100838Y0134045D01*
X0101617Y0132955D01*
X0102370Y0131847D01*
X0103095Y0130721D01*
X0103793Y0129578D01*
X0104463Y0128418D01*
X0105104Y0127242D01*
X0105716Y0126051D01*
X0106300Y0124845D01*
X0106853Y0123626D01*
X0107377Y0122393D01*
X0107871Y0121148D01*
X0108334Y0119891D01*
X0108767Y0118623D01*
X0109168Y0117345D01*
X0109538Y0116058D01*
X0109877Y0114762D01*
X0110184Y0113459D01*
X0110459Y0112148D01*
X0110703Y0110831D01*
X0110914Y0109508D01*
X0111093Y0108181D01*
X0111239Y0106849D01*
X0111353Y0105515D01*
X0111435Y0104178D01*
X0111484Y0102839D01*
X0111500Y0101500D01*
D260*
X0072948Y0044828D02*
X0073298Y0044478D01*
X0073298Y0043777D01*
X0072948Y0043427D01*
X0072247Y0043777D02*
X0072247Y0044478D01*
X0072597Y0044828D01*
X0072948Y0044828D01*
X0072247Y0043777D02*
X0071897Y0043427D01*
X0071547Y0043427D01*
X0071196Y0043777D01*
X0071196Y0044478D01*
X0071547Y0044828D01*
X0071196Y0042618D02*
X0073298Y0042618D01*
X0072597Y0041918D01*
X0073298Y0041217D01*
X0071196Y0041217D01*
X0065424Y0041217D02*
X0065424Y0042268D01*
X0065074Y0042618D01*
X0064723Y0042618D01*
X0064373Y0042268D01*
X0064373Y0041217D01*
X0063322Y0041217D02*
X0063322Y0042268D01*
X0063673Y0042618D01*
X0064023Y0042618D01*
X0064373Y0042268D01*
X0063673Y0043427D02*
X0063322Y0043777D01*
X0063322Y0044478D01*
X0063673Y0044828D01*
X0063322Y0045637D02*
X0065424Y0045637D01*
X0065424Y0047038D01*
X0065424Y0047847D02*
X0063322Y0047847D01*
X0064373Y0048197D02*
X0065424Y0049248D01*
X0064723Y0047847D02*
X0063322Y0049248D01*
X0065074Y0044828D02*
X0065424Y0044478D01*
X0065424Y0043777D01*
X0065074Y0043427D01*
X0063673Y0043427D01*
X0063322Y0041217D02*
X0065424Y0041217D01*
X0057550Y0041217D02*
X0057550Y0042268D01*
X0057200Y0042618D01*
X0055799Y0042618D01*
X0055448Y0042268D01*
X0055448Y0041217D01*
X0057550Y0041217D01*
X0057550Y0043427D02*
X0056149Y0043427D01*
X0055448Y0044127D01*
X0056149Y0044828D01*
X0057550Y0044828D01*
X0056499Y0044828D02*
X0056499Y0043427D01*
X0055448Y0045637D02*
X0055448Y0047038D01*
X0055448Y0046337D02*
X0057550Y0046337D01*
X0057550Y0047847D02*
X0056149Y0047847D01*
X0055448Y0048547D01*
X0056149Y0049248D01*
X0057550Y0049248D01*
X0056499Y0049248D02*
X0056499Y0047847D01*
X0049676Y0046688D02*
X0049676Y0045987D01*
X0049326Y0045637D01*
X0047924Y0045637D01*
X0047574Y0045987D01*
X0047574Y0046688D01*
X0047924Y0047038D01*
X0049326Y0047038D02*
X0049676Y0046688D01*
X0049326Y0044828D02*
X0049676Y0044478D01*
X0049676Y0043777D01*
X0049326Y0043427D01*
X0047924Y0043427D01*
X0047574Y0043777D01*
X0047574Y0044478D01*
X0047924Y0044828D01*
X0047574Y0042618D02*
X0048975Y0042618D01*
X0049676Y0041918D01*
X0048975Y0041217D01*
X0047574Y0041217D01*
X0041802Y0041567D02*
X0041802Y0042268D01*
X0041452Y0042618D01*
X0040751Y0042618D01*
X0040751Y0041918D01*
X0040050Y0042618D02*
X0039700Y0042268D01*
X0039700Y0041567D01*
X0040050Y0041217D01*
X0041452Y0041217D01*
X0041802Y0041567D01*
X0041802Y0043427D02*
X0039700Y0043427D01*
X0041802Y0044828D01*
X0039700Y0044828D01*
X0039700Y0045637D02*
X0039700Y0046688D01*
X0040050Y0047038D01*
X0041452Y0047038D01*
X0041802Y0046688D01*
X0041802Y0045637D01*
X0039700Y0045637D01*
M02*
