G75*
%MOIN*%
%OFA0B0*%
%FSLAX25Y25*%
%IPPOS*%
%LPD*%
%AMOC8*
5,1,8,0,0,1.08239X$1,22.5*
%
%ADD10C,0.00000*%
%ADD11C,0.15811*%
%ADD12C,0.05600*%
%ADD13C,0.06791*%
%ADD14C,0.00600*%
%ADD15C,0.02400*%
%ADD16C,0.01000*%
%ADD17C,0.02381*%
D10*
X0001500Y0016500D02*
X0001500Y0101500D01*
X0032681Y0025732D02*
X0032683Y0025825D01*
X0032689Y0025917D01*
X0032699Y0026009D01*
X0032713Y0026100D01*
X0032730Y0026191D01*
X0032752Y0026281D01*
X0032777Y0026370D01*
X0032806Y0026458D01*
X0032839Y0026544D01*
X0032876Y0026629D01*
X0032916Y0026713D01*
X0032960Y0026794D01*
X0033007Y0026874D01*
X0033057Y0026952D01*
X0033111Y0027027D01*
X0033168Y0027100D01*
X0033228Y0027170D01*
X0033291Y0027238D01*
X0033357Y0027303D01*
X0033425Y0027365D01*
X0033496Y0027425D01*
X0033570Y0027481D01*
X0033646Y0027534D01*
X0033724Y0027583D01*
X0033804Y0027630D01*
X0033886Y0027672D01*
X0033970Y0027712D01*
X0034055Y0027747D01*
X0034142Y0027779D01*
X0034230Y0027808D01*
X0034319Y0027832D01*
X0034409Y0027853D01*
X0034500Y0027869D01*
X0034592Y0027882D01*
X0034684Y0027891D01*
X0034777Y0027896D01*
X0034869Y0027897D01*
X0034962Y0027894D01*
X0035054Y0027887D01*
X0035146Y0027876D01*
X0035237Y0027861D01*
X0035328Y0027843D01*
X0035418Y0027820D01*
X0035506Y0027794D01*
X0035594Y0027764D01*
X0035680Y0027730D01*
X0035764Y0027693D01*
X0035847Y0027651D01*
X0035928Y0027607D01*
X0036008Y0027559D01*
X0036085Y0027508D01*
X0036159Y0027453D01*
X0036232Y0027395D01*
X0036302Y0027335D01*
X0036369Y0027271D01*
X0036433Y0027205D01*
X0036495Y0027135D01*
X0036553Y0027064D01*
X0036608Y0026990D01*
X0036660Y0026913D01*
X0036709Y0026834D01*
X0036755Y0026754D01*
X0036797Y0026671D01*
X0036835Y0026587D01*
X0036870Y0026501D01*
X0036901Y0026414D01*
X0036928Y0026326D01*
X0036951Y0026236D01*
X0036971Y0026146D01*
X0036987Y0026055D01*
X0036999Y0025963D01*
X0037007Y0025871D01*
X0037011Y0025778D01*
X0037011Y0025686D01*
X0037007Y0025593D01*
X0036999Y0025501D01*
X0036987Y0025409D01*
X0036971Y0025318D01*
X0036951Y0025228D01*
X0036928Y0025138D01*
X0036901Y0025050D01*
X0036870Y0024963D01*
X0036835Y0024877D01*
X0036797Y0024793D01*
X0036755Y0024710D01*
X0036709Y0024630D01*
X0036660Y0024551D01*
X0036608Y0024474D01*
X0036553Y0024400D01*
X0036495Y0024329D01*
X0036433Y0024259D01*
X0036369Y0024193D01*
X0036302Y0024129D01*
X0036232Y0024069D01*
X0036159Y0024011D01*
X0036085Y0023956D01*
X0036008Y0023905D01*
X0035929Y0023857D01*
X0035847Y0023813D01*
X0035764Y0023771D01*
X0035680Y0023734D01*
X0035594Y0023700D01*
X0035506Y0023670D01*
X0035418Y0023644D01*
X0035328Y0023621D01*
X0035237Y0023603D01*
X0035146Y0023588D01*
X0035054Y0023577D01*
X0034962Y0023570D01*
X0034869Y0023567D01*
X0034777Y0023568D01*
X0034684Y0023573D01*
X0034592Y0023582D01*
X0034500Y0023595D01*
X0034409Y0023611D01*
X0034319Y0023632D01*
X0034230Y0023656D01*
X0034142Y0023685D01*
X0034055Y0023717D01*
X0033970Y0023752D01*
X0033886Y0023792D01*
X0033804Y0023834D01*
X0033724Y0023881D01*
X0033646Y0023930D01*
X0033570Y0023983D01*
X0033496Y0024039D01*
X0033425Y0024099D01*
X0033357Y0024161D01*
X0033291Y0024226D01*
X0033228Y0024294D01*
X0033168Y0024364D01*
X0033111Y0024437D01*
X0033057Y0024512D01*
X0033007Y0024590D01*
X0032960Y0024670D01*
X0032916Y0024751D01*
X0032876Y0024835D01*
X0032839Y0024920D01*
X0032806Y0025006D01*
X0032777Y0025094D01*
X0032752Y0025183D01*
X0032730Y0025273D01*
X0032713Y0025364D01*
X0032699Y0025455D01*
X0032689Y0025547D01*
X0032683Y0025639D01*
X0032681Y0025732D01*
X0016500Y0001500D02*
X0016138Y0001504D01*
X0015775Y0001518D01*
X0015413Y0001539D01*
X0015052Y0001570D01*
X0014692Y0001609D01*
X0014333Y0001657D01*
X0013975Y0001714D01*
X0013618Y0001779D01*
X0013263Y0001853D01*
X0012910Y0001936D01*
X0012559Y0002027D01*
X0012211Y0002126D01*
X0011865Y0002234D01*
X0011521Y0002350D01*
X0011181Y0002475D01*
X0010844Y0002607D01*
X0010510Y0002748D01*
X0010179Y0002897D01*
X0009852Y0003054D01*
X0009529Y0003218D01*
X0009210Y0003390D01*
X0008896Y0003570D01*
X0008585Y0003758D01*
X0008280Y0003953D01*
X0007979Y0004155D01*
X0007683Y0004365D01*
X0007393Y0004581D01*
X0007107Y0004805D01*
X0006827Y0005035D01*
X0006553Y0005272D01*
X0006285Y0005516D01*
X0006022Y0005766D01*
X0005766Y0006022D01*
X0005516Y0006285D01*
X0005272Y0006553D01*
X0005035Y0006827D01*
X0004805Y0007107D01*
X0004581Y0007393D01*
X0004365Y0007683D01*
X0004155Y0007979D01*
X0003953Y0008280D01*
X0003758Y0008585D01*
X0003570Y0008896D01*
X0003390Y0009210D01*
X0003218Y0009529D01*
X0003054Y0009852D01*
X0002897Y0010179D01*
X0002748Y0010510D01*
X0002607Y0010844D01*
X0002475Y0011181D01*
X0002350Y0011521D01*
X0002234Y0011865D01*
X0002126Y0012211D01*
X0002027Y0012559D01*
X0001936Y0012910D01*
X0001853Y0013263D01*
X0001779Y0013618D01*
X0001714Y0013975D01*
X0001657Y0014333D01*
X0001609Y0014692D01*
X0001570Y0015052D01*
X0001539Y0015413D01*
X0001518Y0015775D01*
X0001504Y0016138D01*
X0001500Y0016500D01*
X0016500Y0001500D02*
X0096500Y0001500D01*
X0096862Y0001504D01*
X0097225Y0001518D01*
X0097587Y0001539D01*
X0097948Y0001570D01*
X0098308Y0001609D01*
X0098667Y0001657D01*
X0099025Y0001714D01*
X0099382Y0001779D01*
X0099737Y0001853D01*
X0100090Y0001936D01*
X0100441Y0002027D01*
X0100789Y0002126D01*
X0101135Y0002234D01*
X0101479Y0002350D01*
X0101819Y0002475D01*
X0102156Y0002607D01*
X0102490Y0002748D01*
X0102821Y0002897D01*
X0103148Y0003054D01*
X0103471Y0003218D01*
X0103790Y0003390D01*
X0104104Y0003570D01*
X0104415Y0003758D01*
X0104720Y0003953D01*
X0105021Y0004155D01*
X0105317Y0004365D01*
X0105607Y0004581D01*
X0105893Y0004805D01*
X0106173Y0005035D01*
X0106447Y0005272D01*
X0106715Y0005516D01*
X0106978Y0005766D01*
X0107234Y0006022D01*
X0107484Y0006285D01*
X0107728Y0006553D01*
X0107965Y0006827D01*
X0108195Y0007107D01*
X0108419Y0007393D01*
X0108635Y0007683D01*
X0108845Y0007979D01*
X0109047Y0008280D01*
X0109242Y0008585D01*
X0109430Y0008896D01*
X0109610Y0009210D01*
X0109782Y0009529D01*
X0109946Y0009852D01*
X0110103Y0010179D01*
X0110252Y0010510D01*
X0110393Y0010844D01*
X0110525Y0011181D01*
X0110650Y0011521D01*
X0110766Y0011865D01*
X0110874Y0012211D01*
X0110973Y0012559D01*
X0111064Y0012910D01*
X0111147Y0013263D01*
X0111221Y0013618D01*
X0111286Y0013975D01*
X0111343Y0014333D01*
X0111391Y0014692D01*
X0111430Y0015052D01*
X0111461Y0015413D01*
X0111482Y0015775D01*
X0111496Y0016138D01*
X0111500Y0016500D01*
X0111500Y0101500D01*
X0075989Y0025732D02*
X0075991Y0025825D01*
X0075997Y0025917D01*
X0076007Y0026009D01*
X0076021Y0026100D01*
X0076038Y0026191D01*
X0076060Y0026281D01*
X0076085Y0026370D01*
X0076114Y0026458D01*
X0076147Y0026544D01*
X0076184Y0026629D01*
X0076224Y0026713D01*
X0076268Y0026794D01*
X0076315Y0026874D01*
X0076365Y0026952D01*
X0076419Y0027027D01*
X0076476Y0027100D01*
X0076536Y0027170D01*
X0076599Y0027238D01*
X0076665Y0027303D01*
X0076733Y0027365D01*
X0076804Y0027425D01*
X0076878Y0027481D01*
X0076954Y0027534D01*
X0077032Y0027583D01*
X0077112Y0027630D01*
X0077194Y0027672D01*
X0077278Y0027712D01*
X0077363Y0027747D01*
X0077450Y0027779D01*
X0077538Y0027808D01*
X0077627Y0027832D01*
X0077717Y0027853D01*
X0077808Y0027869D01*
X0077900Y0027882D01*
X0077992Y0027891D01*
X0078085Y0027896D01*
X0078177Y0027897D01*
X0078270Y0027894D01*
X0078362Y0027887D01*
X0078454Y0027876D01*
X0078545Y0027861D01*
X0078636Y0027843D01*
X0078726Y0027820D01*
X0078814Y0027794D01*
X0078902Y0027764D01*
X0078988Y0027730D01*
X0079072Y0027693D01*
X0079155Y0027651D01*
X0079236Y0027607D01*
X0079316Y0027559D01*
X0079393Y0027508D01*
X0079467Y0027453D01*
X0079540Y0027395D01*
X0079610Y0027335D01*
X0079677Y0027271D01*
X0079741Y0027205D01*
X0079803Y0027135D01*
X0079861Y0027064D01*
X0079916Y0026990D01*
X0079968Y0026913D01*
X0080017Y0026834D01*
X0080063Y0026754D01*
X0080105Y0026671D01*
X0080143Y0026587D01*
X0080178Y0026501D01*
X0080209Y0026414D01*
X0080236Y0026326D01*
X0080259Y0026236D01*
X0080279Y0026146D01*
X0080295Y0026055D01*
X0080307Y0025963D01*
X0080315Y0025871D01*
X0080319Y0025778D01*
X0080319Y0025686D01*
X0080315Y0025593D01*
X0080307Y0025501D01*
X0080295Y0025409D01*
X0080279Y0025318D01*
X0080259Y0025228D01*
X0080236Y0025138D01*
X0080209Y0025050D01*
X0080178Y0024963D01*
X0080143Y0024877D01*
X0080105Y0024793D01*
X0080063Y0024710D01*
X0080017Y0024630D01*
X0079968Y0024551D01*
X0079916Y0024474D01*
X0079861Y0024400D01*
X0079803Y0024329D01*
X0079741Y0024259D01*
X0079677Y0024193D01*
X0079610Y0024129D01*
X0079540Y0024069D01*
X0079467Y0024011D01*
X0079393Y0023956D01*
X0079316Y0023905D01*
X0079237Y0023857D01*
X0079155Y0023813D01*
X0079072Y0023771D01*
X0078988Y0023734D01*
X0078902Y0023700D01*
X0078814Y0023670D01*
X0078726Y0023644D01*
X0078636Y0023621D01*
X0078545Y0023603D01*
X0078454Y0023588D01*
X0078362Y0023577D01*
X0078270Y0023570D01*
X0078177Y0023567D01*
X0078085Y0023568D01*
X0077992Y0023573D01*
X0077900Y0023582D01*
X0077808Y0023595D01*
X0077717Y0023611D01*
X0077627Y0023632D01*
X0077538Y0023656D01*
X0077450Y0023685D01*
X0077363Y0023717D01*
X0077278Y0023752D01*
X0077194Y0023792D01*
X0077112Y0023834D01*
X0077032Y0023881D01*
X0076954Y0023930D01*
X0076878Y0023983D01*
X0076804Y0024039D01*
X0076733Y0024099D01*
X0076665Y0024161D01*
X0076599Y0024226D01*
X0076536Y0024294D01*
X0076476Y0024364D01*
X0076419Y0024437D01*
X0076365Y0024512D01*
X0076315Y0024590D01*
X0076268Y0024670D01*
X0076224Y0024751D01*
X0076184Y0024835D01*
X0076147Y0024920D01*
X0076114Y0025006D01*
X0076085Y0025094D01*
X0076060Y0025183D01*
X0076038Y0025273D01*
X0076021Y0025364D01*
X0076007Y0025455D01*
X0075997Y0025547D01*
X0075991Y0025639D01*
X0075989Y0025732D01*
X0111500Y0101500D02*
X0111484Y0102839D01*
X0111435Y0104178D01*
X0111353Y0105515D01*
X0111239Y0106849D01*
X0111093Y0108181D01*
X0110914Y0109508D01*
X0110703Y0110831D01*
X0110459Y0112148D01*
X0110184Y0113459D01*
X0109877Y0114762D01*
X0109538Y0116058D01*
X0109168Y0117345D01*
X0108767Y0118623D01*
X0108334Y0119891D01*
X0107871Y0121148D01*
X0107377Y0122393D01*
X0106853Y0123626D01*
X0106300Y0124845D01*
X0105716Y0126051D01*
X0105104Y0127242D01*
X0104463Y0128418D01*
X0103793Y0129578D01*
X0103095Y0130721D01*
X0102370Y0131847D01*
X0101617Y0132955D01*
X0100838Y0134045D01*
X0100032Y0135115D01*
X0099201Y0136165D01*
X0098344Y0137194D01*
X0097462Y0138203D01*
X0096557Y0139189D01*
X0095627Y0140153D01*
X0094674Y0141095D01*
X0093699Y0142013D01*
X0092701Y0142906D01*
X0091682Y0143776D01*
X0090642Y0144620D01*
X0089582Y0145438D01*
X0088502Y0146231D01*
X0087404Y0146997D01*
X0086286Y0147736D01*
X0085152Y0148448D01*
X0084000Y0149131D01*
X0082832Y0149787D01*
X0081648Y0150414D01*
X0080450Y0151012D01*
X0079237Y0151580D01*
X0078011Y0152119D01*
X0076772Y0152628D01*
X0075521Y0153106D01*
X0074258Y0153554D01*
X0072986Y0153971D01*
X0071703Y0154357D01*
X0070411Y0154712D01*
X0069111Y0155035D01*
X0067804Y0155326D01*
X0066490Y0155585D01*
X0065170Y0155812D01*
X0063845Y0156007D01*
X0062515Y0156170D01*
X0061182Y0156300D01*
X0059847Y0156398D01*
X0058509Y0156463D01*
X0057170Y0156496D01*
X0055830Y0156496D01*
X0054491Y0156463D01*
X0053153Y0156398D01*
X0051818Y0156300D01*
X0050485Y0156170D01*
X0049155Y0156007D01*
X0047830Y0155812D01*
X0046510Y0155585D01*
X0045196Y0155326D01*
X0043889Y0155035D01*
X0042589Y0154712D01*
X0041297Y0154357D01*
X0040014Y0153971D01*
X0038742Y0153554D01*
X0037479Y0153106D01*
X0036228Y0152628D01*
X0034989Y0152119D01*
X0033763Y0151580D01*
X0032550Y0151012D01*
X0031352Y0150414D01*
X0030168Y0149787D01*
X0029000Y0149131D01*
X0027848Y0148448D01*
X0026714Y0147736D01*
X0025596Y0146997D01*
X0024498Y0146231D01*
X0023418Y0145438D01*
X0022358Y0144620D01*
X0021318Y0143776D01*
X0020299Y0142906D01*
X0019301Y0142013D01*
X0018326Y0141095D01*
X0017373Y0140153D01*
X0016443Y0139189D01*
X0015538Y0138203D01*
X0014656Y0137194D01*
X0013799Y0136165D01*
X0012968Y0135115D01*
X0012162Y0134045D01*
X0011383Y0132955D01*
X0010630Y0131847D01*
X0009905Y0130721D01*
X0009207Y0129578D01*
X0008537Y0128418D01*
X0007896Y0127242D01*
X0007284Y0126051D01*
X0006700Y0124845D01*
X0006147Y0123626D01*
X0005623Y0122393D01*
X0005129Y0121148D01*
X0004666Y0119891D01*
X0004233Y0118623D01*
X0003832Y0117345D01*
X0003462Y0116058D01*
X0003123Y0114762D01*
X0002816Y0113459D01*
X0002541Y0112148D01*
X0002297Y0110831D01*
X0002086Y0109508D01*
X0001907Y0108181D01*
X0001761Y0106849D01*
X0001647Y0105515D01*
X0001565Y0104178D01*
X0001516Y0102839D01*
X0001500Y0101500D01*
D11*
X0016500Y0101500D03*
X0016500Y0016500D03*
X0096500Y0016500D03*
X0096500Y0101500D03*
D12*
X0072248Y0036800D02*
X0072248Y0031200D01*
X0064374Y0031200D02*
X0064374Y0036800D01*
X0056500Y0036800D02*
X0056500Y0031200D01*
X0048626Y0031200D02*
X0048626Y0036800D01*
X0040752Y0036800D02*
X0040752Y0031200D01*
D13*
X0056618Y0147169D03*
D14*
X0056100Y0146700D01*
X0056100Y0129900D01*
X0045900Y0119700D01*
D15*
X0045900Y0119700D03*
D16*
X0006580Y0007491D02*
X0106420Y0007491D01*
X0107210Y0008282D02*
X0104718Y0005790D01*
X0101666Y0004028D01*
X0098262Y0003115D01*
X0096500Y0003000D01*
X0016500Y0003000D01*
X0014738Y0003115D01*
X0011334Y0004028D01*
X0008282Y0005790D01*
X0005790Y0008282D01*
X0004028Y0011334D01*
X0003115Y0014738D01*
X0003000Y0016500D01*
X0003000Y0101500D01*
X0003165Y0105698D01*
X0004478Y0113989D01*
X0007072Y0121974D01*
X0010884Y0129454D01*
X0015818Y0136245D01*
X0021755Y0142182D01*
X0028546Y0147116D01*
X0036026Y0150928D01*
X0044011Y0153522D01*
X0052302Y0154835D01*
X0060698Y0154835D01*
X0068989Y0153522D01*
X0076974Y0150928D01*
X0084454Y0147116D01*
X0091245Y0142182D01*
X0097182Y0136245D01*
X0102116Y0129454D01*
X0105928Y0121974D01*
X0108522Y0113989D01*
X0109835Y0105698D01*
X0110000Y0101500D01*
X0110000Y0016500D01*
X0109885Y0014738D01*
X0108972Y0011334D01*
X0107210Y0008282D01*
X0107330Y0008490D02*
X0100694Y0008490D01*
X0101601Y0008865D02*
X0104134Y0011399D01*
X0105505Y0014709D01*
X0105505Y0018291D01*
X0104134Y0021601D01*
X0101601Y0024134D01*
X0098291Y0025505D01*
X0094709Y0025505D01*
X0091399Y0024134D01*
X0088865Y0021601D01*
X0087494Y0018291D01*
X0087494Y0014709D01*
X0088865Y0011399D01*
X0091399Y0008865D01*
X0094709Y0007494D01*
X0098291Y0007494D01*
X0101601Y0008865D01*
X0102224Y0009488D02*
X0107907Y0009488D01*
X0108483Y0010487D02*
X0103222Y0010487D01*
X0104170Y0011485D02*
X0109013Y0011485D01*
X0109280Y0012484D02*
X0104584Y0012484D01*
X0104997Y0013482D02*
X0109548Y0013482D01*
X0109816Y0014481D02*
X0105411Y0014481D01*
X0105505Y0015479D02*
X0109933Y0015479D01*
X0109999Y0016478D02*
X0105505Y0016478D01*
X0105505Y0017476D02*
X0110000Y0017476D01*
X0110000Y0018475D02*
X0105430Y0018475D01*
X0105016Y0019473D02*
X0110000Y0019473D01*
X0110000Y0020472D02*
X0104602Y0020472D01*
X0104189Y0021470D02*
X0110000Y0021470D01*
X0110000Y0022469D02*
X0103267Y0022469D01*
X0102268Y0023467D02*
X0110000Y0023467D01*
X0110000Y0024466D02*
X0100801Y0024466D01*
X0098391Y0025464D02*
X0110000Y0025464D01*
X0110000Y0026463D02*
X0081818Y0026463D01*
X0081819Y0026461D02*
X0081261Y0027809D01*
X0080230Y0028840D01*
X0078883Y0029398D01*
X0077424Y0029398D01*
X0076077Y0028840D01*
X0075046Y0027809D01*
X0074488Y0026461D01*
X0074488Y0025003D01*
X0075046Y0023656D01*
X0076077Y0022625D01*
X0077424Y0022067D01*
X0078883Y0022067D01*
X0080230Y0022625D01*
X0081261Y0023656D01*
X0081819Y0025003D01*
X0081819Y0026461D01*
X0081819Y0025464D02*
X0094609Y0025464D01*
X0092199Y0024466D02*
X0081596Y0024466D01*
X0081072Y0023467D02*
X0090732Y0023467D01*
X0089733Y0022469D02*
X0079853Y0022469D01*
X0076454Y0022469D02*
X0036546Y0022469D01*
X0036923Y0022625D02*
X0037954Y0023656D01*
X0038512Y0025003D01*
X0038512Y0026461D01*
X0037954Y0027809D01*
X0036923Y0028840D01*
X0035576Y0029398D01*
X0034117Y0029398D01*
X0032770Y0028840D01*
X0031739Y0027809D01*
X0031181Y0026461D01*
X0031181Y0025003D01*
X0031739Y0023656D01*
X0032770Y0022625D01*
X0034117Y0022067D01*
X0035576Y0022067D01*
X0036923Y0022625D01*
X0037765Y0023467D02*
X0075235Y0023467D01*
X0074711Y0024466D02*
X0038289Y0024466D01*
X0038512Y0025464D02*
X0074488Y0025464D01*
X0074489Y0026463D02*
X0038511Y0026463D01*
X0039101Y0027215D02*
X0039745Y0027006D01*
X0040366Y0026908D01*
X0040366Y0033614D01*
X0041138Y0033614D01*
X0041138Y0026908D01*
X0041759Y0027006D01*
X0042403Y0027215D01*
X0043006Y0027522D01*
X0043553Y0027920D01*
X0044032Y0028399D01*
X0044430Y0028946D01*
X0044737Y0029549D01*
X0044891Y0030025D01*
X0045320Y0028991D01*
X0046417Y0027894D01*
X0047850Y0027300D01*
X0049402Y0027300D01*
X0050835Y0027894D01*
X0051932Y0028991D01*
X0052526Y0030424D01*
X0052526Y0037576D01*
X0051932Y0039009D01*
X0050835Y0040106D01*
X0049402Y0040700D01*
X0047850Y0040700D01*
X0046417Y0040106D01*
X0045320Y0039009D01*
X0044891Y0037975D01*
X0044737Y0038451D01*
X0044430Y0039054D01*
X0044032Y0039601D01*
X0043553Y0040080D01*
X0043006Y0040478D01*
X0042403Y0040785D01*
X0041759Y0040994D01*
X0041138Y0041092D01*
X0041138Y0034386D01*
X0040366Y0034386D01*
X0040366Y0041092D01*
X0039745Y0040994D01*
X0039101Y0040785D01*
X0038498Y0040478D01*
X0037951Y0040080D01*
X0037472Y0039601D01*
X0037074Y0039054D01*
X0036767Y0038451D01*
X0036558Y0037807D01*
X0036452Y0037138D01*
X0036452Y0034386D01*
X0040366Y0034386D01*
X0040366Y0033614D01*
X0036452Y0033614D01*
X0036452Y0030862D01*
X0036558Y0030193D01*
X0036767Y0029549D01*
X0037074Y0028946D01*
X0037472Y0028399D01*
X0037951Y0027920D01*
X0038498Y0027522D01*
X0039101Y0027215D01*
X0038618Y0027461D02*
X0038098Y0027461D01*
X0037428Y0028460D02*
X0037303Y0028460D01*
X0036813Y0029458D02*
X0003000Y0029458D01*
X0003000Y0028460D02*
X0032390Y0028460D01*
X0031595Y0027461D02*
X0003000Y0027461D01*
X0003000Y0026463D02*
X0031182Y0026463D01*
X0031181Y0025464D02*
X0018391Y0025464D01*
X0018291Y0025505D02*
X0014709Y0025505D01*
X0011399Y0024134D01*
X0008865Y0021601D01*
X0007494Y0018291D01*
X0007494Y0014709D01*
X0008865Y0011399D01*
X0011399Y0008865D01*
X0014709Y0007494D01*
X0018291Y0007494D01*
X0021601Y0008865D01*
X0024134Y0011399D01*
X0025505Y0014709D01*
X0025505Y0018291D01*
X0024134Y0021601D01*
X0021601Y0024134D01*
X0018291Y0025505D01*
X0020801Y0024466D02*
X0031404Y0024466D01*
X0031928Y0023467D02*
X0022268Y0023467D01*
X0023267Y0022469D02*
X0033147Y0022469D01*
X0036516Y0030457D02*
X0003000Y0030457D01*
X0003000Y0031455D02*
X0036452Y0031455D01*
X0036452Y0032454D02*
X0003000Y0032454D01*
X0003000Y0033452D02*
X0036452Y0033452D01*
X0036452Y0034451D02*
X0003000Y0034451D01*
X0003000Y0035449D02*
X0036452Y0035449D01*
X0036452Y0036448D02*
X0003000Y0036448D01*
X0003000Y0037446D02*
X0036501Y0037446D01*
X0036765Y0038445D02*
X0003000Y0038445D01*
X0003000Y0039443D02*
X0037357Y0039443D01*
X0038449Y0040442D02*
X0003000Y0040442D01*
X0003000Y0041440D02*
X0110000Y0041440D01*
X0110000Y0040442D02*
X0073647Y0040442D01*
X0073024Y0040700D02*
X0074457Y0040106D01*
X0075554Y0039009D01*
X0076148Y0037576D01*
X0076148Y0030424D01*
X0075554Y0028991D01*
X0074457Y0027894D01*
X0073024Y0027300D01*
X0071472Y0027300D01*
X0070039Y0027894D01*
X0068942Y0028991D01*
X0068348Y0030424D01*
X0068348Y0037576D01*
X0068942Y0039009D01*
X0070039Y0040106D01*
X0071472Y0040700D01*
X0073024Y0040700D01*
X0070849Y0040442D02*
X0065773Y0040442D01*
X0065150Y0040700D02*
X0066583Y0040106D01*
X0067680Y0039009D01*
X0068274Y0037576D01*
X0068274Y0030424D01*
X0067680Y0028991D01*
X0066583Y0027894D01*
X0065150Y0027300D01*
X0063598Y0027300D01*
X0062165Y0027894D01*
X0061068Y0028991D01*
X0060474Y0030424D01*
X0060474Y0037576D01*
X0061068Y0039009D01*
X0062165Y0040106D01*
X0063598Y0040700D01*
X0065150Y0040700D01*
X0062975Y0040442D02*
X0057899Y0040442D01*
X0057276Y0040700D02*
X0058709Y0040106D01*
X0059806Y0039009D01*
X0060400Y0037576D01*
X0060400Y0030424D01*
X0059806Y0028991D01*
X0058709Y0027894D01*
X0057276Y0027300D01*
X0055724Y0027300D01*
X0054291Y0027894D01*
X0053194Y0028991D01*
X0052600Y0030424D01*
X0052600Y0037576D01*
X0053194Y0039009D01*
X0054291Y0040106D01*
X0055724Y0040700D01*
X0057276Y0040700D01*
X0055101Y0040442D02*
X0050025Y0040442D01*
X0051498Y0039443D02*
X0053628Y0039443D01*
X0052960Y0038445D02*
X0052166Y0038445D01*
X0052526Y0037446D02*
X0052600Y0037446D01*
X0052600Y0036448D02*
X0052526Y0036448D01*
X0052526Y0035449D02*
X0052600Y0035449D01*
X0052600Y0034451D02*
X0052526Y0034451D01*
X0052526Y0033452D02*
X0052600Y0033452D01*
X0052600Y0032454D02*
X0052526Y0032454D01*
X0052526Y0031455D02*
X0052600Y0031455D01*
X0052600Y0030457D02*
X0052526Y0030457D01*
X0052126Y0029458D02*
X0053000Y0029458D01*
X0053725Y0028460D02*
X0051401Y0028460D01*
X0049791Y0027461D02*
X0055335Y0027461D01*
X0057665Y0027461D02*
X0063209Y0027461D01*
X0061599Y0028460D02*
X0059275Y0028460D01*
X0060000Y0029458D02*
X0060874Y0029458D01*
X0060474Y0030457D02*
X0060400Y0030457D01*
X0060400Y0031455D02*
X0060474Y0031455D01*
X0060474Y0032454D02*
X0060400Y0032454D01*
X0060400Y0033452D02*
X0060474Y0033452D01*
X0060474Y0034451D02*
X0060400Y0034451D01*
X0060400Y0035449D02*
X0060474Y0035449D01*
X0060474Y0036448D02*
X0060400Y0036448D01*
X0060400Y0037446D02*
X0060474Y0037446D01*
X0060834Y0038445D02*
X0060040Y0038445D01*
X0059372Y0039443D02*
X0061502Y0039443D01*
X0067246Y0039443D02*
X0069376Y0039443D01*
X0068708Y0038445D02*
X0067914Y0038445D01*
X0068274Y0037446D02*
X0068348Y0037446D01*
X0068348Y0036448D02*
X0068274Y0036448D01*
X0068274Y0035449D02*
X0068348Y0035449D01*
X0068348Y0034451D02*
X0068274Y0034451D01*
X0068274Y0033452D02*
X0068348Y0033452D01*
X0068348Y0032454D02*
X0068274Y0032454D01*
X0068274Y0031455D02*
X0068348Y0031455D01*
X0068348Y0030457D02*
X0068274Y0030457D01*
X0067874Y0029458D02*
X0068748Y0029458D01*
X0069473Y0028460D02*
X0067149Y0028460D01*
X0065539Y0027461D02*
X0071083Y0027461D01*
X0073413Y0027461D02*
X0074902Y0027461D01*
X0075023Y0028460D02*
X0075697Y0028460D01*
X0075748Y0029458D02*
X0110000Y0029458D01*
X0110000Y0028460D02*
X0080610Y0028460D01*
X0081405Y0027461D02*
X0110000Y0027461D01*
X0110000Y0030457D02*
X0076148Y0030457D01*
X0076148Y0031455D02*
X0110000Y0031455D01*
X0110000Y0032454D02*
X0076148Y0032454D01*
X0076148Y0033452D02*
X0110000Y0033452D01*
X0110000Y0034451D02*
X0076148Y0034451D01*
X0076148Y0035449D02*
X0110000Y0035449D01*
X0110000Y0036448D02*
X0076148Y0036448D01*
X0076148Y0037446D02*
X0110000Y0037446D01*
X0110000Y0038445D02*
X0075788Y0038445D01*
X0075120Y0039443D02*
X0110000Y0039443D01*
X0110000Y0042439D02*
X0003000Y0042439D01*
X0003000Y0043437D02*
X0110000Y0043437D01*
X0110000Y0044436D02*
X0003000Y0044436D01*
X0003000Y0045434D02*
X0110000Y0045434D01*
X0110000Y0046433D02*
X0003000Y0046433D01*
X0003000Y0047432D02*
X0110000Y0047432D01*
X0110000Y0048430D02*
X0003000Y0048430D01*
X0003000Y0049429D02*
X0110000Y0049429D01*
X0110000Y0050427D02*
X0003000Y0050427D01*
X0003000Y0051426D02*
X0110000Y0051426D01*
X0110000Y0052424D02*
X0003000Y0052424D01*
X0003000Y0053423D02*
X0110000Y0053423D01*
X0110000Y0054421D02*
X0003000Y0054421D01*
X0003000Y0055420D02*
X0110000Y0055420D01*
X0110000Y0056418D02*
X0003000Y0056418D01*
X0003000Y0057417D02*
X0110000Y0057417D01*
X0110000Y0058415D02*
X0003000Y0058415D01*
X0003000Y0059414D02*
X0110000Y0059414D01*
X0110000Y0060412D02*
X0003000Y0060412D01*
X0003000Y0061411D02*
X0110000Y0061411D01*
X0110000Y0062409D02*
X0003000Y0062409D01*
X0003000Y0063408D02*
X0110000Y0063408D01*
X0110000Y0064406D02*
X0003000Y0064406D01*
X0003000Y0065405D02*
X0110000Y0065405D01*
X0110000Y0066403D02*
X0003000Y0066403D01*
X0003000Y0067402D02*
X0110000Y0067402D01*
X0110000Y0068400D02*
X0003000Y0068400D01*
X0003000Y0069399D02*
X0110000Y0069399D01*
X0110000Y0070397D02*
X0003000Y0070397D01*
X0003000Y0071396D02*
X0110000Y0071396D01*
X0110000Y0072394D02*
X0003000Y0072394D01*
X0003000Y0073393D02*
X0110000Y0073393D01*
X0110000Y0074391D02*
X0003000Y0074391D01*
X0003000Y0075390D02*
X0110000Y0075390D01*
X0110000Y0076388D02*
X0003000Y0076388D01*
X0003000Y0077387D02*
X0110000Y0077387D01*
X0110000Y0078385D02*
X0003000Y0078385D01*
X0003000Y0079384D02*
X0110000Y0079384D01*
X0110000Y0080382D02*
X0003000Y0080382D01*
X0003000Y0081381D02*
X0110000Y0081381D01*
X0110000Y0082379D02*
X0003000Y0082379D01*
X0003000Y0083378D02*
X0110000Y0083378D01*
X0110000Y0084376D02*
X0003000Y0084376D01*
X0003000Y0085375D02*
X0110000Y0085375D01*
X0110000Y0086373D02*
X0003000Y0086373D01*
X0003000Y0087372D02*
X0110000Y0087372D01*
X0110000Y0088370D02*
X0003000Y0088370D01*
X0003000Y0089369D02*
X0110000Y0089369D01*
X0110000Y0090368D02*
X0003000Y0090368D01*
X0003000Y0091366D02*
X0110000Y0091366D01*
X0110000Y0092365D02*
X0003000Y0092365D01*
X0003000Y0093363D02*
X0012612Y0093363D01*
X0011399Y0093865D02*
X0014709Y0092494D01*
X0018291Y0092494D01*
X0021601Y0093865D01*
X0024134Y0096399D01*
X0025505Y0099709D01*
X0025505Y0103291D01*
X0024134Y0106601D01*
X0021601Y0109134D01*
X0018291Y0110505D01*
X0014709Y0110505D01*
X0011399Y0109134D01*
X0008865Y0106601D01*
X0007494Y0103291D01*
X0007494Y0099709D01*
X0008865Y0096399D01*
X0011399Y0093865D01*
X0010903Y0094362D02*
X0003000Y0094362D01*
X0003000Y0095360D02*
X0009904Y0095360D01*
X0008906Y0096359D02*
X0003000Y0096359D01*
X0003000Y0097357D02*
X0008469Y0097357D01*
X0008055Y0098356D02*
X0003000Y0098356D01*
X0003000Y0099354D02*
X0007641Y0099354D01*
X0007494Y0100353D02*
X0003000Y0100353D01*
X0003000Y0101351D02*
X0007494Y0101351D01*
X0007494Y0102350D02*
X0003033Y0102350D01*
X0003073Y0103348D02*
X0007518Y0103348D01*
X0007932Y0104347D02*
X0003112Y0104347D01*
X0003151Y0105345D02*
X0008345Y0105345D01*
X0008759Y0106344D02*
X0003267Y0106344D01*
X0003425Y0107342D02*
X0009606Y0107342D01*
X0010605Y0108341D02*
X0003584Y0108341D01*
X0003742Y0109339D02*
X0011893Y0109339D01*
X0014304Y0110338D02*
X0003900Y0110338D01*
X0004058Y0111336D02*
X0108942Y0111336D01*
X0109100Y0110338D02*
X0098696Y0110338D01*
X0098291Y0110505D02*
X0094709Y0110505D01*
X0091399Y0109134D01*
X0088865Y0106601D01*
X0087494Y0103291D01*
X0087494Y0099709D01*
X0088865Y0096399D01*
X0091399Y0093865D01*
X0094709Y0092494D01*
X0098291Y0092494D01*
X0101601Y0093865D01*
X0104134Y0096399D01*
X0105505Y0099709D01*
X0105505Y0103291D01*
X0104134Y0106601D01*
X0101601Y0109134D01*
X0098291Y0110505D01*
X0101107Y0109339D02*
X0109258Y0109339D01*
X0109416Y0108341D02*
X0102395Y0108341D01*
X0103394Y0107342D02*
X0109575Y0107342D01*
X0109733Y0106344D02*
X0104241Y0106344D01*
X0104655Y0105345D02*
X0109849Y0105345D01*
X0109888Y0104347D02*
X0105068Y0104347D01*
X0105482Y0103348D02*
X0109927Y0103348D01*
X0109967Y0102350D02*
X0105505Y0102350D01*
X0105505Y0101351D02*
X0110000Y0101351D01*
X0110000Y0100353D02*
X0105505Y0100353D01*
X0105359Y0099354D02*
X0110000Y0099354D01*
X0110000Y0098356D02*
X0104945Y0098356D01*
X0104531Y0097357D02*
X0110000Y0097357D01*
X0110000Y0096359D02*
X0104094Y0096359D01*
X0103096Y0095360D02*
X0110000Y0095360D01*
X0110000Y0094362D02*
X0102097Y0094362D01*
X0100388Y0093363D02*
X0110000Y0093363D01*
X0108784Y0112335D02*
X0004216Y0112335D01*
X0004374Y0113333D02*
X0108626Y0113333D01*
X0108411Y0114332D02*
X0004589Y0114332D01*
X0004914Y0115330D02*
X0108086Y0115330D01*
X0107762Y0116329D02*
X0005238Y0116329D01*
X0005563Y0117327D02*
X0107437Y0117327D01*
X0107113Y0118326D02*
X0005887Y0118326D01*
X0006212Y0119324D02*
X0106788Y0119324D01*
X0106464Y0120323D02*
X0006536Y0120323D01*
X0006861Y0121321D02*
X0106139Y0121321D01*
X0105751Y0122320D02*
X0007249Y0122320D01*
X0007758Y0123318D02*
X0105242Y0123318D01*
X0104734Y0124317D02*
X0008266Y0124317D01*
X0008775Y0125315D02*
X0104225Y0125315D01*
X0103716Y0126314D02*
X0009284Y0126314D01*
X0009793Y0127312D02*
X0103207Y0127312D01*
X0102698Y0128311D02*
X0010301Y0128311D01*
X0010810Y0129309D02*
X0102190Y0129309D01*
X0101496Y0130308D02*
X0011504Y0130308D01*
X0012230Y0131306D02*
X0100770Y0131306D01*
X0100045Y0132305D02*
X0012955Y0132305D01*
X0013681Y0133303D02*
X0099319Y0133303D01*
X0098594Y0134302D02*
X0014406Y0134302D01*
X0015132Y0135301D02*
X0097868Y0135301D01*
X0097128Y0136299D02*
X0015872Y0136299D01*
X0016870Y0137298D02*
X0096130Y0137298D01*
X0095131Y0138296D02*
X0017869Y0138296D01*
X0018867Y0139295D02*
X0094133Y0139295D01*
X0093134Y0140293D02*
X0019866Y0140293D01*
X0020864Y0141292D02*
X0092136Y0141292D01*
X0091096Y0142290D02*
X0021904Y0142290D01*
X0023278Y0143289D02*
X0053630Y0143289D01*
X0053429Y0143435D02*
X0054052Y0142982D01*
X0054739Y0142632D01*
X0055472Y0142394D01*
X0056118Y0142292D01*
X0056118Y0146669D01*
X0057118Y0146669D01*
X0057118Y0142292D01*
X0057765Y0142394D01*
X0058497Y0142632D01*
X0059184Y0142982D01*
X0059807Y0143435D01*
X0060352Y0143980D01*
X0060805Y0144603D01*
X0061155Y0145290D01*
X0061393Y0146023D01*
X0061496Y0146669D01*
X0057118Y0146669D01*
X0057118Y0147669D01*
X0061496Y0147669D01*
X0061393Y0148316D01*
X0061155Y0149049D01*
X0060805Y0149735D01*
X0060352Y0150359D01*
X0059807Y0150903D01*
X0059184Y0151356D01*
X0058497Y0151706D01*
X0057765Y0151944D01*
X0057118Y0152047D01*
X0057118Y0147669D01*
X0056118Y0147669D01*
X0056118Y0146669D01*
X0051741Y0146669D01*
X0051843Y0146023D01*
X0052081Y0145290D01*
X0052431Y0144603D01*
X0052884Y0143980D01*
X0053429Y0143435D01*
X0052661Y0144287D02*
X0024652Y0144287D01*
X0026027Y0145286D02*
X0052083Y0145286D01*
X0051802Y0146284D02*
X0027401Y0146284D01*
X0028873Y0147283D02*
X0056118Y0147283D01*
X0056118Y0147669D02*
X0051741Y0147669D01*
X0051843Y0148316D01*
X0052081Y0149049D01*
X0052431Y0149735D01*
X0052884Y0150359D01*
X0053429Y0150903D01*
X0054052Y0151356D01*
X0054739Y0151706D01*
X0055472Y0151944D01*
X0056118Y0152047D01*
X0056118Y0147669D01*
X0056118Y0148281D02*
X0057118Y0148281D01*
X0057118Y0147283D02*
X0084127Y0147283D01*
X0085599Y0146284D02*
X0061435Y0146284D01*
X0061153Y0145286D02*
X0086973Y0145286D01*
X0088348Y0144287D02*
X0060575Y0144287D01*
X0059606Y0143289D02*
X0089722Y0143289D01*
X0082167Y0148281D02*
X0061399Y0148281D01*
X0061037Y0149280D02*
X0080208Y0149280D01*
X0078248Y0150278D02*
X0060411Y0150278D01*
X0059294Y0151277D02*
X0075899Y0151277D01*
X0072826Y0152275D02*
X0040174Y0152275D01*
X0037101Y0151277D02*
X0053942Y0151277D01*
X0052825Y0150278D02*
X0034752Y0150278D01*
X0032792Y0149280D02*
X0052199Y0149280D01*
X0051838Y0148281D02*
X0030833Y0148281D01*
X0043247Y0153274D02*
X0069753Y0153274D01*
X0064251Y0154272D02*
X0048749Y0154272D01*
X0056118Y0151277D02*
X0057118Y0151277D01*
X0057118Y0150278D02*
X0056118Y0150278D01*
X0056118Y0149280D02*
X0057118Y0149280D01*
X0057118Y0146284D02*
X0056118Y0146284D01*
X0056118Y0145286D02*
X0057118Y0145286D01*
X0057118Y0144287D02*
X0056118Y0144287D01*
X0056118Y0143289D02*
X0057118Y0143289D01*
X0087932Y0104347D02*
X0025068Y0104347D01*
X0024655Y0105345D02*
X0088345Y0105345D01*
X0088759Y0106344D02*
X0024241Y0106344D01*
X0023394Y0107342D02*
X0089606Y0107342D01*
X0090605Y0108341D02*
X0022395Y0108341D01*
X0021107Y0109339D02*
X0091893Y0109339D01*
X0094304Y0110338D02*
X0018696Y0110338D01*
X0025482Y0103348D02*
X0087518Y0103348D01*
X0087494Y0102350D02*
X0025505Y0102350D01*
X0025505Y0101351D02*
X0087494Y0101351D01*
X0087494Y0100353D02*
X0025505Y0100353D01*
X0025359Y0099354D02*
X0087641Y0099354D01*
X0088055Y0098356D02*
X0024945Y0098356D01*
X0024531Y0097357D02*
X0088469Y0097357D01*
X0088906Y0096359D02*
X0024094Y0096359D01*
X0023096Y0095360D02*
X0089904Y0095360D01*
X0090903Y0094362D02*
X0022097Y0094362D01*
X0020388Y0093363D02*
X0092612Y0093363D01*
X0047227Y0040442D02*
X0043055Y0040442D01*
X0044146Y0039443D02*
X0045754Y0039443D01*
X0045086Y0038445D02*
X0044739Y0038445D01*
X0041138Y0038445D02*
X0040366Y0038445D01*
X0040366Y0039443D02*
X0041138Y0039443D01*
X0041138Y0040442D02*
X0040366Y0040442D01*
X0040366Y0037446D02*
X0041138Y0037446D01*
X0041138Y0036448D02*
X0040366Y0036448D01*
X0040366Y0035449D02*
X0041138Y0035449D01*
X0041138Y0034451D02*
X0040366Y0034451D01*
X0040366Y0033452D02*
X0041138Y0033452D01*
X0041138Y0032454D02*
X0040366Y0032454D01*
X0040366Y0031455D02*
X0041138Y0031455D01*
X0041138Y0030457D02*
X0040366Y0030457D01*
X0040366Y0029458D02*
X0041138Y0029458D01*
X0041138Y0028460D02*
X0040366Y0028460D01*
X0040366Y0027461D02*
X0041138Y0027461D01*
X0042886Y0027461D02*
X0047461Y0027461D01*
X0045851Y0028460D02*
X0044076Y0028460D01*
X0044691Y0029458D02*
X0045126Y0029458D01*
X0025016Y0019473D02*
X0087984Y0019473D01*
X0087570Y0018475D02*
X0025430Y0018475D01*
X0025505Y0017476D02*
X0087494Y0017476D01*
X0087494Y0016478D02*
X0025505Y0016478D01*
X0025505Y0015479D02*
X0087494Y0015479D01*
X0087589Y0014481D02*
X0025411Y0014481D01*
X0024997Y0013482D02*
X0088003Y0013482D01*
X0088416Y0012484D02*
X0024584Y0012484D01*
X0024170Y0011485D02*
X0088830Y0011485D01*
X0089778Y0010487D02*
X0023222Y0010487D01*
X0022224Y0009488D02*
X0090776Y0009488D01*
X0092306Y0008490D02*
X0020694Y0008490D01*
X0013314Y0003497D02*
X0099686Y0003497D01*
X0102477Y0004496D02*
X0010523Y0004496D01*
X0008794Y0005494D02*
X0104206Y0005494D01*
X0105421Y0006493D02*
X0007579Y0006493D01*
X0005670Y0008490D02*
X0012306Y0008490D01*
X0010776Y0009488D02*
X0005093Y0009488D01*
X0004517Y0010487D02*
X0009778Y0010487D01*
X0008830Y0011485D02*
X0003987Y0011485D01*
X0003720Y0012484D02*
X0008416Y0012484D01*
X0008003Y0013482D02*
X0003452Y0013482D01*
X0003184Y0014481D02*
X0007589Y0014481D01*
X0007494Y0015479D02*
X0003067Y0015479D01*
X0003001Y0016478D02*
X0007494Y0016478D01*
X0007494Y0017476D02*
X0003000Y0017476D01*
X0003000Y0018475D02*
X0007570Y0018475D01*
X0007984Y0019473D02*
X0003000Y0019473D01*
X0003000Y0020472D02*
X0008398Y0020472D01*
X0008811Y0021470D02*
X0003000Y0021470D01*
X0003000Y0022469D02*
X0009733Y0022469D01*
X0010732Y0023467D02*
X0003000Y0023467D01*
X0003000Y0024466D02*
X0012199Y0024466D01*
X0014609Y0025464D02*
X0003000Y0025464D01*
X0024189Y0021470D02*
X0088811Y0021470D01*
X0088398Y0020472D02*
X0024602Y0020472D01*
D17*
X0029059Y0032996D03*
X0040083Y0047169D03*
X0044807Y0025122D03*
X0027878Y0094020D03*
X0025122Y0123547D03*
X0048350Y0131028D03*
X0068429Y0103862D03*
X0084571Y0107406D03*
X0073941Y0132209D03*
M02*
