G75*
%MOIN*%
%OFA0B0*%
%FSLAX25Y25*%
%IPPOS*%
%LPD*%
%AMOC8*
5,1,8,0,0,1.08239X$1,22.5*
%
%ADD10C,0.00600*%
%ADD11C,0.00400*%
%ADD12C,0.00300*%
%ADD13C,0.00500*%
%ADD14C,0.00000*%
%ADD15C,0.00200*%
%ADD16R,0.01012X0.00046*%
%ADD17R,0.01840X0.00046*%
%ADD18R,0.02438X0.00046*%
%ADD19R,0.02852X0.00046*%
%ADD20R,0.03266X0.00046*%
%ADD21R,0.03634X0.00046*%
%ADD22R,0.03910X0.00046*%
%ADD23R,0.04232X0.00046*%
%ADD24R,0.04462X0.00046*%
%ADD25R,0.04738X0.00046*%
%ADD26R,0.04968X0.00046*%
%ADD27R,0.05198X0.00046*%
%ADD28R,0.05428X0.00046*%
%ADD29R,0.05612X0.00046*%
%ADD30R,0.05750X0.00046*%
%ADD31R,0.05980X0.00046*%
%ADD32R,0.06164X0.00046*%
%ADD33R,0.06394X0.00046*%
%ADD34R,0.06532X0.00046*%
%ADD35R,0.06716X0.00046*%
%ADD36R,0.06854X0.00046*%
%ADD37R,0.07038X0.00046*%
%ADD38R,0.07176X0.00046*%
%ADD39R,0.07360X0.00046*%
%ADD40R,0.07498X0.00046*%
%ADD41R,0.07636X0.00046*%
%ADD42R,0.07774X0.00046*%
%ADD43R,0.07958X0.00046*%
%ADD44R,0.08096X0.00046*%
%ADD45R,0.08234X0.00046*%
%ADD46R,0.08326X0.00046*%
%ADD47R,0.08464X0.00046*%
%ADD48R,0.08602X0.00046*%
%ADD49R,0.04048X0.00046*%
%ADD50R,0.03496X0.00046*%
%ADD51R,0.03772X0.00046*%
%ADD52R,0.03174X0.00046*%
%ADD53R,0.03588X0.00046*%
%ADD54R,0.03036X0.00046*%
%ADD55R,0.03542X0.00046*%
%ADD56R,0.03404X0.00046*%
%ADD57R,0.02760X0.00046*%
%ADD58R,0.03312X0.00046*%
%ADD59R,0.02668X0.00046*%
%ADD60R,0.03220X0.00046*%
%ADD61R,0.02576X0.00046*%
%ADD62R,0.03220X0.00046*%
%ADD63R,0.02484X0.00046*%
%ADD64R,0.03128X0.00046*%
%ADD65R,0.02346X0.00046*%
%ADD66R,0.02300X0.00046*%
%ADD67R,0.02254X0.00046*%
%ADD68R,0.02990X0.00046*%
%ADD69R,0.02162X0.00046*%
%ADD70R,0.02944X0.00046*%
%ADD71R,0.02116X0.00046*%
%ADD72R,0.02070X0.00046*%
%ADD73R,0.02024X0.00046*%
%ADD74R,0.02898X0.00046*%
%ADD75R,0.01978X0.00046*%
%ADD76R,0.01932X0.00046*%
%ADD77R,0.02898X0.00046*%
%ADD78R,0.01886X0.00046*%
%ADD79R,0.01840X0.00046*%
%ADD80R,0.01794X0.00046*%
%ADD81R,0.01748X0.00046*%
%ADD82R,0.01702X0.00046*%
%ADD83R,0.01656X0.00046*%
%ADD84R,0.01564X0.00046*%
%ADD85R,0.01610X0.00046*%
%ADD86R,0.02990X0.00046*%
%ADD87R,0.00506X0.00046*%
%ADD88R,0.01288X0.00046*%
%ADD89R,0.01518X0.00046*%
%ADD90R,0.01564X0.00046*%
%ADD91R,0.01334X0.00046*%
%ADD92R,0.01380X0.00046*%
%ADD93R,0.03082X0.00046*%
%ADD94R,0.01426X0.00046*%
%ADD95R,0.03818X0.00046*%
%ADD96R,0.04002X0.00046*%
%ADD97R,0.01472X0.00046*%
%ADD98R,0.04278X0.00046*%
%ADD99R,0.04462X0.00046*%
%ADD100R,0.04600X0.00046*%
%ADD101R,0.04784X0.00046*%
%ADD102R,0.01426X0.00046*%
%ADD103R,0.06440X0.00046*%
%ADD104R,0.06486X0.00046*%
%ADD105R,0.06578X0.00046*%
%ADD106R,0.02208X0.00046*%
%ADD107R,0.02714X0.00046*%
%ADD108R,0.03358X0.00046*%
%ADD109R,0.02070X0.00046*%
%ADD110R,0.03404X0.00046*%
%ADD111R,0.03450X0.00046*%
%ADD112R,0.01978X0.00046*%
%ADD113R,0.03634X0.00046*%
%ADD114R,0.03680X0.00046*%
%ADD115R,0.03726X0.00046*%
%ADD116R,0.03864X0.00046*%
%ADD117R,0.03956X0.00046*%
%ADD118R,0.04094X0.00046*%
%ADD119R,0.04140X0.00046*%
%ADD120R,0.04140X0.00046*%
%ADD121R,0.04186X0.00046*%
%ADD122R,0.01748X0.00046*%
%ADD123R,0.04324X0.00046*%
%ADD124R,0.04370X0.00046*%
%ADD125R,0.04416X0.00046*%
%ADD126R,0.04508X0.00046*%
%ADD127R,0.01656X0.00046*%
%ADD128R,0.04554X0.00046*%
%ADD129R,0.04646X0.00046*%
%ADD130R,0.04692X0.00046*%
%ADD131R,0.04784X0.00046*%
%ADD132R,0.04830X0.00046*%
%ADD133R,0.04876X0.00046*%
%ADD134R,0.04922X0.00046*%
%ADD135R,0.05014X0.00046*%
%ADD136R,0.05060X0.00046*%
%ADD137R,0.05106X0.00046*%
%ADD138R,0.05152X0.00046*%
%ADD139R,0.05244X0.00046*%
%ADD140R,0.05290X0.00046*%
%ADD141R,0.05382X0.00046*%
%ADD142R,0.02162X0.00046*%
%ADD143R,0.05474X0.00046*%
%ADD144R,0.05520X0.00046*%
%ADD145R,0.05566X0.00046*%
%ADD146R,0.05612X0.00046*%
%ADD147R,0.02392X0.00046*%
%ADD148R,0.05658X0.00046*%
%ADD149R,0.05704X0.00046*%
%ADD150R,0.02484X0.00046*%
%ADD151R,0.02530X0.00046*%
%ADD152R,0.05796X0.00046*%
%ADD153R,0.01242X0.00046*%
%ADD154R,0.01150X0.00046*%
%ADD155R,0.01104X0.00046*%
%ADD156R,0.02806X0.00046*%
%ADD157R,0.01058X0.00046*%
%ADD158R,0.01012X0.00046*%
%ADD159R,0.00966X0.00046*%
%ADD160R,0.02622X0.00046*%
%ADD161R,0.02576X0.00046*%
%ADD162R,0.02392X0.00046*%
%ADD163R,0.01334X0.00046*%
%ADD164R,0.00874X0.00046*%
%ADD165R,0.03726X0.00046*%
%ADD166R,0.00552X0.00046*%
%ADD167R,0.01196X0.00046*%
%ADD168R,0.01242X0.00046*%
%ADD169R,0.05336X0.00046*%
%ADD170R,0.02668X0.00046*%
%ADD171R,0.04876X0.00046*%
%ADD172R,0.05290X0.00046*%
%ADD173R,0.05520X0.00046*%
%ADD174R,0.05704X0.00046*%
%ADD175R,0.05888X0.00046*%
%ADD176R,0.05934X0.00046*%
%ADD177R,0.02806X0.00046*%
%ADD178R,0.06026X0.00046*%
%ADD179R,0.06164X0.00046*%
%ADD180R,0.06256X0.00046*%
%ADD181R,0.06348X0.00046*%
%ADD182R,0.03128X0.00046*%
%ADD183R,0.03956X0.00046*%
%ADD184R,0.10258X0.00046*%
%ADD185R,0.10304X0.00046*%
%ADD186R,0.10350X0.00046*%
%ADD187R,0.10396X0.00046*%
%ADD188R,0.10442X0.00046*%
%ADD189R,0.10488X0.00046*%
%ADD190R,0.10534X0.00046*%
%ADD191R,0.10580X0.00046*%
%ADD192R,0.07406X0.00046*%
%ADD193R,0.00736X0.00046*%
%ADD194R,0.03312X0.00046*%
%ADD195R,0.00920X0.00046*%
%ADD196R,0.00828X0.00046*%
%ADD197R,0.00690X0.00046*%
%ADD198R,0.00230X0.00046*%
%ADD199R,0.00782X0.00046*%
%ADD200R,0.00644X0.00046*%
%ADD201R,0.00276X0.00046*%
%ADD202R,0.00414X0.00046*%
%ADD203R,0.00650X0.00050*%
%ADD204R,0.00950X0.00050*%
%ADD205R,0.00800X0.00050*%
%ADD206R,0.00550X0.00050*%
%ADD207R,0.00600X0.00050*%
%ADD208R,0.01750X0.00050*%
%ADD209R,0.01000X0.00050*%
%ADD210R,0.01200X0.00050*%
%ADD211R,0.01800X0.00050*%
%ADD212R,0.01350X0.00050*%
%ADD213R,0.01900X0.00050*%
%ADD214R,0.00700X0.00050*%
%ADD215R,0.01850X0.00050*%
%ADD216R,0.01500X0.00050*%
%ADD217R,0.01950X0.00050*%
%ADD218R,0.01650X0.00050*%
%ADD219R,0.00750X0.00050*%
%ADD220R,0.02000X0.00050*%
%ADD221R,0.02050X0.00050*%
%ADD222R,0.00850X0.00050*%
%ADD223R,0.02100X0.00050*%
%ADD224R,0.00900X0.00050*%
%ADD225R,0.00450X0.00050*%
%ADD226R,0.00300X0.00050*%
%ADD227R,0.00200X0.00050*%
%ADD228R,0.01050X0.00050*%
%ADD229R,0.00100X0.00050*%
%ADD230R,0.01100X0.00050*%
%ADD231R,0.01150X0.00050*%
%ADD232R,0.02200X0.00050*%
%ADD233R,0.01250X0.00050*%
%ADD234R,0.00150X0.00050*%
%ADD235R,0.00250X0.00050*%
%ADD236R,0.00500X0.00050*%
%ADD237R,0.01550X0.00050*%
%ADD238R,0.01600X0.00050*%
%ADD239R,0.01700X0.00050*%
%ADD240R,0.01400X0.00050*%
%ADD241R,0.01300X0.00050*%
%ADD242R,0.00400X0.00050*%
%ADD243R,0.01450X0.00050*%
%ADD244R,0.02150X0.00050*%
%ADD245R,0.00350X0.00050*%
%ADD246R,0.00050X0.00050*%
%ADD247R,0.02250X0.00050*%
%ADD248R,0.02400X0.00050*%
%ADD249R,0.02500X0.00050*%
%ADD250R,0.02650X0.00050*%
%ADD251R,0.02750X0.00050*%
%ADD252R,0.02900X0.00050*%
%ADD253R,0.03000X0.00050*%
%ADD254R,0.03150X0.00050*%
%ADD255R,0.03250X0.00050*%
%ADD256R,0.04600X0.00050*%
%ADD257R,0.04650X0.00050*%
%ADD258R,0.04750X0.00050*%
%ADD259R,0.04800X0.00050*%
%ADD260R,0.04900X0.00050*%
%ADD261R,0.04950X0.00050*%
%ADD262R,0.05000X0.00050*%
%ADD263R,0.05100X0.00050*%
%ADD264R,0.05150X0.00050*%
%ADD265R,0.05200X0.00050*%
%ADD266R,0.05250X0.00050*%
%ADD267R,0.05050X0.00050*%
%ADD268R,0.04850X0.00050*%
%ADD269R,0.05300X0.00050*%
%ADD270R,0.05350X0.00050*%
%ADD271R,0.05450X0.00050*%
%ADD272R,0.05500X0.00050*%
%ADD273R,0.05550X0.00050*%
%ADD274R,0.05650X0.00050*%
%ADD275R,0.05600X0.00050*%
%ADD276R,0.05400X0.00050*%
%ADD277R,0.05700X0.00050*%
%ADD278R,0.05900X0.00050*%
%ADD279R,0.06150X0.00050*%
%ADD280R,0.06350X0.00050*%
%ADD281R,0.06550X0.00050*%
%ADD282R,0.06850X0.00050*%
%ADD283R,0.07050X0.00050*%
%ADD284R,0.07100X0.00050*%
%ADD285R,0.07000X0.00050*%
%ADD286R,0.06950X0.00050*%
%ADD287R,0.06900X0.00050*%
%ADD288R,0.06800X0.00050*%
%ADD289R,0.06600X0.00050*%
%ADD290R,0.05750X0.00050*%
%ADD291R,0.06050X0.00050*%
%ADD292R,0.13050X0.00050*%
%ADD293R,0.12950X0.00050*%
%ADD294R,0.12850X0.00050*%
%ADD295R,0.12750X0.00050*%
%ADD296R,0.12650X0.00050*%
%ADD297R,0.12550X0.00050*%
%ADD298R,0.12450X0.00050*%
%ADD299R,0.12350X0.00050*%
%ADD300R,0.12250X0.00050*%
%ADD301R,0.12150X0.00050*%
%ADD302R,0.13150X0.00050*%
%ADD303R,0.13250X0.00050*%
%ADD304R,0.13350X0.00050*%
%ADD305R,0.13450X0.00050*%
%ADD306R,0.13550X0.00050*%
%ADD307R,0.13650X0.00050*%
%ADD308R,0.13750X0.00050*%
%ADD309R,0.13850X0.00050*%
%ADD310R,0.13950X0.00050*%
%ADD311R,0.14050X0.00050*%
%ADD312R,0.14150X0.00050*%
%ADD313R,0.14250X0.00050*%
%ADD314R,0.14350X0.00050*%
%ADD315R,0.14450X0.00050*%
%ADD316R,0.14550X0.00050*%
%ADD317R,0.14650X0.00050*%
%ADD318R,0.14750X0.00050*%
%ADD319R,0.14850X0.00050*%
%ADD320R,0.14950X0.00050*%
%ADD321R,0.03450X0.00050*%
%ADD322R,0.06750X0.00050*%
%ADD323R,0.03300X0.00050*%
%ADD324R,0.06450X0.00050*%
%ADD325R,0.03200X0.00050*%
%ADD326R,0.06250X0.00050*%
%ADD327R,0.03050X0.00050*%
%ADD328R,0.05950X0.00050*%
%ADD329R,0.02950X0.00050*%
%ADD330R,0.02850X0.00050*%
%ADD331R,0.02800X0.00050*%
%ADD332R,0.02700X0.00050*%
%ADD333R,0.02600X0.00050*%
%ADD334R,0.02450X0.00050*%
%ADD335R,0.02350X0.00050*%
%ADD336R,0.04550X0.00050*%
%ADD337R,0.04250X0.00050*%
%ADD338R,0.04050X0.00050*%
%ADD339R,0.03750X0.00050*%
%ADD340R,0.03650X0.00050*%
%ADD341R,0.03550X0.00050*%
%ADD342R,0.03350X0.00050*%
D10*
X0054300Y0151506D02*
X0059300Y0151506D01*
X0061800Y0154006D01*
X0064300Y0151506D01*
X0069300Y0151506D01*
X0071800Y0154006D01*
X0071800Y0159006D01*
X0069300Y0161506D01*
X0064300Y0161506D01*
X0061800Y0159006D01*
X0061800Y0154006D01*
X0061800Y0159006D02*
X0059300Y0161506D01*
X0054300Y0161506D01*
X0051800Y0159006D01*
X0051800Y0154006D01*
X0054300Y0151506D01*
X0056012Y0165373D02*
X0056012Y0169644D01*
X0053877Y0167509D02*
X0058148Y0167509D01*
X0063877Y0167509D02*
X0068148Y0167509D01*
D11*
X0032718Y0073810D02*
X0030416Y0073810D01*
X0030416Y0069206D01*
X0030416Y0070741D02*
X0032718Y0070741D01*
X0033485Y0071508D01*
X0033485Y0073043D01*
X0032718Y0073810D01*
X0028881Y0073810D02*
X0028881Y0069206D01*
X0027346Y0072275D02*
X0028881Y0073810D01*
X0027346Y0072275D02*
X0025812Y0073810D01*
X0025812Y0069206D01*
X0024277Y0069206D02*
X0021208Y0069206D01*
X0021208Y0073810D01*
X0024277Y0073810D01*
X0022742Y0071508D02*
X0021208Y0071508D01*
X0019673Y0073810D02*
X0016604Y0073810D01*
X0018139Y0073810D02*
X0018139Y0069206D01*
X0015069Y0069206D02*
X0012767Y0071508D01*
X0012000Y0070741D02*
X0015069Y0073810D01*
X0012000Y0073810D02*
X0012000Y0069206D01*
D12*
X0011950Y0067859D02*
X0013802Y0067859D01*
X0014419Y0067242D01*
X0014419Y0066007D01*
X0013802Y0065390D01*
X0011950Y0065390D01*
X0011950Y0064156D02*
X0011950Y0067859D01*
X0013184Y0065390D02*
X0014419Y0064156D01*
X0015633Y0064773D02*
X0015633Y0066007D01*
X0016250Y0066625D01*
X0017485Y0066625D01*
X0018102Y0066007D01*
X0018102Y0065390D01*
X0015633Y0065390D01*
X0015633Y0064773D02*
X0016250Y0064156D01*
X0017485Y0064156D01*
X0020551Y0064156D02*
X0019316Y0066625D01*
X0021785Y0066625D02*
X0020551Y0064156D01*
X0022999Y0064156D02*
X0023617Y0064156D01*
X0023617Y0064773D01*
X0022999Y0064773D01*
X0022999Y0064156D01*
X0024841Y0064156D02*
X0024841Y0067859D01*
X0026693Y0067859D01*
X0027310Y0067242D01*
X0027310Y0066625D01*
X0026693Y0066007D01*
X0024841Y0066007D01*
X0024841Y0064156D02*
X0026693Y0064156D01*
X0027310Y0064773D01*
X0027310Y0065390D01*
X0026693Y0066007D01*
X0028524Y0066007D02*
X0028524Y0064773D01*
X0029141Y0064156D01*
X0030376Y0064156D01*
X0030993Y0065390D02*
X0028524Y0065390D01*
X0028524Y0066007D02*
X0029141Y0066625D01*
X0030376Y0066625D01*
X0030993Y0066007D01*
X0030993Y0065390D01*
X0032207Y0066625D02*
X0033442Y0066625D01*
X0032824Y0067242D02*
X0032824Y0064773D01*
X0033442Y0064156D01*
X0034663Y0064773D02*
X0035280Y0065390D01*
X0037131Y0065390D01*
X0037131Y0066007D02*
X0037131Y0064156D01*
X0035280Y0064156D01*
X0034663Y0064773D01*
X0035280Y0066625D02*
X0036514Y0066625D01*
X0037131Y0066007D01*
X0038346Y0067242D02*
X0038963Y0067859D01*
X0040197Y0067859D01*
X0040815Y0067242D01*
X0040815Y0066625D01*
X0038346Y0064156D01*
X0040815Y0064156D01*
X0045348Y0065086D02*
X0045831Y0064602D01*
X0047766Y0064602D01*
X0048250Y0065086D01*
X0048250Y0066054D01*
X0047766Y0066537D01*
X0048250Y0067549D02*
X0048250Y0069484D01*
X0048250Y0067549D02*
X0045348Y0067549D01*
X0045831Y0066537D02*
X0045348Y0066054D01*
X0045348Y0065086D01*
X0045831Y0063591D02*
X0045348Y0063107D01*
X0045348Y0062140D01*
X0045831Y0061656D01*
X0046315Y0061656D01*
X0046799Y0062140D01*
X0046799Y0063107D01*
X0047283Y0063591D01*
X0047766Y0063591D01*
X0048250Y0063107D01*
X0048250Y0062140D01*
X0047766Y0061656D01*
X0055348Y0062140D02*
X0055831Y0061656D01*
X0056315Y0061656D01*
X0056799Y0062140D01*
X0056799Y0063107D01*
X0057283Y0063591D01*
X0057766Y0063591D01*
X0058250Y0063107D01*
X0058250Y0062140D01*
X0057766Y0061656D01*
X0055831Y0063591D02*
X0055348Y0063107D01*
X0055348Y0062140D01*
X0055348Y0064602D02*
X0055348Y0066054D01*
X0055831Y0066537D01*
X0057766Y0066537D01*
X0058250Y0066054D01*
X0058250Y0064602D01*
X0055348Y0064602D01*
X0056315Y0067549D02*
X0055348Y0068516D01*
X0056315Y0069484D01*
X0058250Y0069484D01*
X0058250Y0067549D02*
X0056315Y0067549D01*
X0056799Y0067549D02*
X0056799Y0069484D01*
X0065348Y0069000D02*
X0065348Y0068033D01*
X0065831Y0067549D01*
X0067766Y0067549D01*
X0068250Y0068033D01*
X0068250Y0069000D01*
X0067766Y0069484D01*
X0065831Y0069484D02*
X0065348Y0069000D01*
X0065831Y0066537D02*
X0065348Y0066054D01*
X0065348Y0065086D01*
X0065831Y0064602D01*
X0067766Y0064602D01*
X0068250Y0065086D01*
X0068250Y0066054D01*
X0067766Y0066537D01*
X0067283Y0063591D02*
X0065348Y0063591D01*
X0065348Y0061656D02*
X0067283Y0061656D01*
X0068250Y0062623D01*
X0067283Y0063591D01*
X0075348Y0063107D02*
X0075348Y0062140D01*
X0075831Y0061656D01*
X0077766Y0061656D01*
X0078250Y0062140D01*
X0078250Y0063107D01*
X0077766Y0063591D01*
X0076799Y0063591D01*
X0076799Y0062623D01*
X0075831Y0063591D02*
X0075348Y0063107D01*
X0075348Y0064602D02*
X0078250Y0066537D01*
X0075348Y0066537D01*
X0075348Y0067549D02*
X0075348Y0069000D01*
X0075831Y0069484D01*
X0077766Y0069484D01*
X0078250Y0069000D01*
X0078250Y0067549D01*
X0075348Y0067549D01*
X0075348Y0064602D02*
X0078250Y0064602D01*
D13*
X0081800Y0054006D02*
X0086800Y0054006D01*
X0086800Y0019006D01*
X0076918Y0077037D02*
X0066682Y0077037D01*
X0066682Y0080974D01*
X0076524Y0080974D01*
X0076918Y0080974D02*
X0076918Y0077037D01*
X0076918Y0087037D02*
X0076918Y0090974D01*
X0076524Y0090974D02*
X0066682Y0090974D01*
X0066682Y0087037D01*
X0076918Y0087037D01*
X0065009Y0097805D02*
X0058591Y0097805D01*
X0058591Y0109419D01*
X0065009Y0109419D01*
X0065009Y0097805D01*
X0059610Y0107306D02*
X0059612Y0107369D01*
X0059618Y0107431D01*
X0059628Y0107493D01*
X0059642Y0107555D01*
X0059659Y0107615D01*
X0059681Y0107674D01*
X0059706Y0107731D01*
X0059735Y0107787D01*
X0059767Y0107841D01*
X0059803Y0107893D01*
X0059842Y0107942D01*
X0059884Y0107989D01*
X0059928Y0108033D01*
X0059976Y0108074D01*
X0060026Y0108112D01*
X0060078Y0108147D01*
X0060132Y0108179D01*
X0060189Y0108207D01*
X0060247Y0108231D01*
X0060306Y0108251D01*
X0060367Y0108268D01*
X0060428Y0108281D01*
X0060490Y0108290D01*
X0060553Y0108295D01*
X0060616Y0108296D01*
X0060678Y0108293D01*
X0060741Y0108286D01*
X0060803Y0108275D01*
X0060864Y0108260D01*
X0060924Y0108242D01*
X0060982Y0108219D01*
X0061040Y0108193D01*
X0061095Y0108163D01*
X0061148Y0108130D01*
X0061200Y0108094D01*
X0061248Y0108054D01*
X0061294Y0108012D01*
X0061338Y0107966D01*
X0061378Y0107918D01*
X0061415Y0107867D01*
X0061449Y0107815D01*
X0061480Y0107760D01*
X0061507Y0107703D01*
X0061530Y0107645D01*
X0061550Y0107585D01*
X0061566Y0107524D01*
X0061578Y0107462D01*
X0061586Y0107400D01*
X0061590Y0107337D01*
X0061590Y0107275D01*
X0061586Y0107212D01*
X0061578Y0107150D01*
X0061566Y0107088D01*
X0061550Y0107027D01*
X0061530Y0106967D01*
X0061507Y0106909D01*
X0061480Y0106852D01*
X0061449Y0106797D01*
X0061415Y0106745D01*
X0061378Y0106694D01*
X0061338Y0106646D01*
X0061294Y0106600D01*
X0061248Y0106558D01*
X0061200Y0106518D01*
X0061148Y0106482D01*
X0061095Y0106449D01*
X0061040Y0106419D01*
X0060982Y0106393D01*
X0060924Y0106370D01*
X0060864Y0106352D01*
X0060803Y0106337D01*
X0060741Y0106326D01*
X0060678Y0106319D01*
X0060616Y0106316D01*
X0060553Y0106317D01*
X0060490Y0106322D01*
X0060428Y0106331D01*
X0060367Y0106344D01*
X0060306Y0106361D01*
X0060247Y0106381D01*
X0060189Y0106405D01*
X0060132Y0106433D01*
X0060078Y0106465D01*
X0060026Y0106500D01*
X0059976Y0106538D01*
X0059928Y0106579D01*
X0059884Y0106623D01*
X0059842Y0106670D01*
X0059803Y0106719D01*
X0059767Y0106771D01*
X0059735Y0106825D01*
X0059706Y0106881D01*
X0059681Y0106938D01*
X0059659Y0106997D01*
X0059642Y0107057D01*
X0059628Y0107119D01*
X0059618Y0107181D01*
X0059612Y0107243D01*
X0059610Y0107306D01*
X0056918Y0090974D02*
X0046682Y0090974D01*
X0046682Y0087037D01*
X0047076Y0087037D02*
X0056918Y0087037D01*
X0056918Y0090974D01*
X0056918Y0080974D02*
X0046682Y0080974D01*
X0046682Y0077037D01*
X0047076Y0077037D02*
X0056918Y0077037D01*
X0056918Y0080974D01*
X0041800Y0054006D02*
X0036800Y0054006D01*
X0036800Y0019006D01*
X0052842Y0136756D02*
X0052842Y0141260D01*
X0055845Y0141260D01*
X0054343Y0139008D02*
X0052842Y0139008D01*
X0057446Y0137507D02*
X0058197Y0138257D01*
X0060449Y0138257D01*
X0060449Y0139008D02*
X0060449Y0136756D01*
X0058197Y0136756D01*
X0057446Y0137507D01*
X0058197Y0139758D02*
X0059698Y0139758D01*
X0060449Y0139008D01*
X0062050Y0139008D02*
X0064302Y0139008D01*
X0065053Y0138257D01*
X0065053Y0137507D01*
X0064302Y0136756D01*
X0062050Y0136756D01*
X0062050Y0141260D01*
X0064302Y0141260D01*
X0065053Y0140509D01*
X0065053Y0139758D01*
X0064302Y0139008D01*
X0066654Y0139008D02*
X0066654Y0137507D01*
X0067405Y0136756D01*
X0068906Y0136756D01*
X0069656Y0137507D01*
X0069656Y0139008D01*
X0068906Y0139758D01*
X0067405Y0139758D01*
X0066654Y0139008D01*
D14*
X0101800Y0019006D02*
X0021800Y0019006D01*
X0021438Y0019010D01*
X0021075Y0019024D01*
X0020713Y0019045D01*
X0020352Y0019076D01*
X0019992Y0019115D01*
X0019633Y0019163D01*
X0019275Y0019220D01*
X0018918Y0019285D01*
X0018563Y0019359D01*
X0018210Y0019442D01*
X0017859Y0019533D01*
X0017511Y0019632D01*
X0017165Y0019740D01*
X0016821Y0019856D01*
X0016481Y0019981D01*
X0016144Y0020113D01*
X0015810Y0020254D01*
X0015479Y0020403D01*
X0015152Y0020560D01*
X0014829Y0020724D01*
X0014510Y0020896D01*
X0014196Y0021076D01*
X0013885Y0021264D01*
X0013580Y0021459D01*
X0013279Y0021661D01*
X0012983Y0021871D01*
X0012693Y0022087D01*
X0012407Y0022311D01*
X0012127Y0022541D01*
X0011853Y0022778D01*
X0011585Y0023022D01*
X0011322Y0023272D01*
X0011066Y0023528D01*
X0010816Y0023791D01*
X0010572Y0024059D01*
X0010335Y0024333D01*
X0010105Y0024613D01*
X0009881Y0024899D01*
X0009665Y0025189D01*
X0009455Y0025485D01*
X0009253Y0025786D01*
X0009058Y0026091D01*
X0008870Y0026402D01*
X0008690Y0026716D01*
X0008518Y0027035D01*
X0008354Y0027358D01*
X0008197Y0027685D01*
X0008048Y0028016D01*
X0007907Y0028350D01*
X0007775Y0028687D01*
X0007650Y0029027D01*
X0007534Y0029371D01*
X0007426Y0029717D01*
X0007327Y0030065D01*
X0007236Y0030416D01*
X0007153Y0030769D01*
X0007079Y0031124D01*
X0007014Y0031481D01*
X0006957Y0031839D01*
X0006909Y0032198D01*
X0006870Y0032558D01*
X0006839Y0032919D01*
X0006818Y0033281D01*
X0006804Y0033644D01*
X0006800Y0034006D01*
X0006800Y0119006D01*
X0006816Y0120345D01*
X0006865Y0121684D01*
X0006947Y0123021D01*
X0007061Y0124355D01*
X0007207Y0125687D01*
X0007386Y0127014D01*
X0007597Y0128337D01*
X0007841Y0129654D01*
X0008116Y0130965D01*
X0008423Y0132268D01*
X0008762Y0133564D01*
X0009132Y0134851D01*
X0009533Y0136129D01*
X0009966Y0137397D01*
X0010429Y0138654D01*
X0010923Y0139899D01*
X0011447Y0141132D01*
X0012000Y0142351D01*
X0012584Y0143557D01*
X0013196Y0144748D01*
X0013837Y0145924D01*
X0014507Y0147084D01*
X0015205Y0148227D01*
X0015930Y0149353D01*
X0016683Y0150461D01*
X0017462Y0151551D01*
X0018268Y0152621D01*
X0019099Y0153671D01*
X0019956Y0154700D01*
X0020838Y0155709D01*
X0021743Y0156695D01*
X0022673Y0157659D01*
X0023626Y0158601D01*
X0024601Y0159519D01*
X0025599Y0160412D01*
X0026618Y0161282D01*
X0027658Y0162126D01*
X0028718Y0162944D01*
X0029798Y0163737D01*
X0030896Y0164503D01*
X0032014Y0165242D01*
X0033148Y0165954D01*
X0034300Y0166637D01*
X0035468Y0167293D01*
X0036652Y0167920D01*
X0037850Y0168518D01*
X0039063Y0169086D01*
X0040289Y0169625D01*
X0041528Y0170134D01*
X0042779Y0170612D01*
X0044042Y0171060D01*
X0045314Y0171477D01*
X0046597Y0171863D01*
X0047889Y0172218D01*
X0049189Y0172541D01*
X0050496Y0172832D01*
X0051810Y0173091D01*
X0053130Y0173318D01*
X0054455Y0173513D01*
X0055785Y0173676D01*
X0057118Y0173806D01*
X0058453Y0173904D01*
X0059791Y0173969D01*
X0061130Y0174002D01*
X0062470Y0174002D01*
X0063809Y0173969D01*
X0065147Y0173904D01*
X0066482Y0173806D01*
X0067815Y0173676D01*
X0069145Y0173513D01*
X0070470Y0173318D01*
X0071790Y0173091D01*
X0073104Y0172832D01*
X0074411Y0172541D01*
X0075711Y0172218D01*
X0077003Y0171863D01*
X0078286Y0171477D01*
X0079558Y0171060D01*
X0080821Y0170612D01*
X0082072Y0170134D01*
X0083311Y0169625D01*
X0084537Y0169086D01*
X0085750Y0168518D01*
X0086948Y0167920D01*
X0088132Y0167293D01*
X0089300Y0166637D01*
X0090452Y0165954D01*
X0091586Y0165242D01*
X0092704Y0164503D01*
X0093802Y0163737D01*
X0094882Y0162944D01*
X0095942Y0162126D01*
X0096982Y0161282D01*
X0098001Y0160412D01*
X0098999Y0159519D01*
X0099974Y0158601D01*
X0100927Y0157659D01*
X0101857Y0156695D01*
X0102762Y0155709D01*
X0103644Y0154700D01*
X0104501Y0153671D01*
X0105332Y0152621D01*
X0106138Y0151551D01*
X0106917Y0150461D01*
X0107670Y0149353D01*
X0108395Y0148227D01*
X0109093Y0147084D01*
X0109763Y0145924D01*
X0110404Y0144748D01*
X0111016Y0143557D01*
X0111600Y0142351D01*
X0112153Y0141132D01*
X0112677Y0139899D01*
X0113171Y0138654D01*
X0113634Y0137397D01*
X0114067Y0136129D01*
X0114468Y0134851D01*
X0114838Y0133564D01*
X0115177Y0132268D01*
X0115484Y0130965D01*
X0115759Y0129654D01*
X0116003Y0128337D01*
X0116214Y0127014D01*
X0116393Y0125687D01*
X0116539Y0124355D01*
X0116653Y0123021D01*
X0116735Y0121684D01*
X0116784Y0120345D01*
X0116800Y0119006D01*
X0116800Y0034006D01*
X0116796Y0033644D01*
X0116782Y0033281D01*
X0116761Y0032919D01*
X0116730Y0032558D01*
X0116691Y0032198D01*
X0116643Y0031839D01*
X0116586Y0031481D01*
X0116521Y0031124D01*
X0116447Y0030769D01*
X0116364Y0030416D01*
X0116273Y0030065D01*
X0116174Y0029717D01*
X0116066Y0029371D01*
X0115950Y0029027D01*
X0115825Y0028687D01*
X0115693Y0028350D01*
X0115552Y0028016D01*
X0115403Y0027685D01*
X0115246Y0027358D01*
X0115082Y0027035D01*
X0114910Y0026716D01*
X0114730Y0026402D01*
X0114542Y0026091D01*
X0114347Y0025786D01*
X0114145Y0025485D01*
X0113935Y0025189D01*
X0113719Y0024899D01*
X0113495Y0024613D01*
X0113265Y0024333D01*
X0113028Y0024059D01*
X0112784Y0023791D01*
X0112534Y0023528D01*
X0112278Y0023272D01*
X0112015Y0023022D01*
X0111747Y0022778D01*
X0111473Y0022541D01*
X0111193Y0022311D01*
X0110907Y0022087D01*
X0110617Y0021871D01*
X0110321Y0021661D01*
X0110020Y0021459D01*
X0109715Y0021264D01*
X0109404Y0021076D01*
X0109090Y0020896D01*
X0108771Y0020724D01*
X0108448Y0020560D01*
X0108121Y0020403D01*
X0107790Y0020254D01*
X0107456Y0020113D01*
X0107119Y0019981D01*
X0106779Y0019856D01*
X0106435Y0019740D01*
X0106089Y0019632D01*
X0105741Y0019533D01*
X0105390Y0019442D01*
X0105037Y0019359D01*
X0104682Y0019285D01*
X0104325Y0019220D01*
X0103967Y0019163D01*
X0103608Y0019115D01*
X0103248Y0019076D01*
X0102887Y0019045D01*
X0102525Y0019024D01*
X0102162Y0019010D01*
X0101800Y0019006D01*
D15*
X0074276Y0073950D02*
X0072808Y0073950D01*
X0073542Y0073950D02*
X0073542Y0076152D01*
X0072808Y0075418D01*
X0072066Y0075785D02*
X0071699Y0076152D01*
X0070965Y0076152D01*
X0070598Y0075785D01*
X0070598Y0074317D01*
X0070965Y0073950D01*
X0071699Y0073950D01*
X0072066Y0074317D01*
X0071699Y0083950D02*
X0070965Y0083950D01*
X0070598Y0084317D01*
X0070598Y0085785D01*
X0070965Y0086152D01*
X0071699Y0086152D01*
X0072066Y0085785D01*
X0072808Y0085785D02*
X0073175Y0086152D01*
X0073909Y0086152D01*
X0074276Y0085785D01*
X0074276Y0085418D01*
X0072808Y0083950D01*
X0074276Y0083950D01*
X0072066Y0084317D02*
X0071699Y0083950D01*
X0052460Y0081862D02*
X0050992Y0081862D01*
X0051726Y0081862D02*
X0051726Y0084064D01*
X0050992Y0083330D01*
X0050250Y0083697D02*
X0050250Y0082963D01*
X0049883Y0082596D01*
X0048782Y0082596D01*
X0049516Y0082596D02*
X0050250Y0081862D01*
X0048782Y0081862D02*
X0048782Y0084064D01*
X0049883Y0084064D01*
X0050250Y0083697D01*
X0050250Y0091862D02*
X0049516Y0092596D01*
X0049883Y0092596D02*
X0048782Y0092596D01*
X0048782Y0091862D02*
X0048782Y0094064D01*
X0049883Y0094064D01*
X0050250Y0093697D01*
X0050250Y0092963D01*
X0049883Y0092596D01*
X0050992Y0091862D02*
X0052460Y0093330D01*
X0052460Y0093697D01*
X0052093Y0094064D01*
X0051359Y0094064D01*
X0050992Y0093697D01*
X0050992Y0091862D02*
X0052460Y0091862D01*
D16*
X0062679Y0114006D03*
D17*
X0062679Y0114052D03*
X0065209Y0118514D03*
X0066635Y0116582D03*
X0068521Y0120262D03*
X0068521Y0120308D03*
X0064703Y0122976D03*
X0059965Y0122516D03*
X0059919Y0122470D03*
X0059827Y0122332D03*
X0059781Y0122286D03*
X0059735Y0122194D03*
X0058079Y0123942D03*
X0059735Y0118560D03*
X0059781Y0118514D03*
X0053065Y0122746D03*
X0062679Y0132820D03*
X0067049Y0132222D03*
D18*
X0066934Y0131440D03*
X0066934Y0131394D03*
X0062656Y0132084D03*
X0062656Y0132130D03*
X0057596Y0129922D03*
X0057596Y0129876D03*
X0057596Y0129830D03*
X0058378Y0124402D03*
X0061046Y0123206D03*
X0060632Y0117916D03*
X0062656Y0114098D03*
X0064910Y0118100D03*
X0065784Y0115892D03*
X0068682Y0121412D03*
X0068682Y0121458D03*
X0053134Y0122424D03*
D19*
X0058079Y0127346D03*
X0058033Y0127530D03*
X0058033Y0127576D03*
X0057987Y0127668D03*
X0057987Y0127714D03*
X0057987Y0127760D03*
X0057941Y0127898D03*
X0057941Y0127944D03*
X0058539Y0124632D03*
X0060931Y0117870D03*
X0062679Y0114144D03*
X0065347Y0115662D03*
X0068705Y0122056D03*
X0065945Y0124862D03*
X0070407Y0126886D03*
X0070407Y0126932D03*
X0066773Y0130290D03*
X0066773Y0130336D03*
X0066773Y0130382D03*
X0066773Y0130428D03*
X0062587Y0131210D03*
X0062587Y0131256D03*
X0062587Y0131302D03*
X0062587Y0131348D03*
X0057711Y0116674D03*
D20*
X0056446Y0117916D03*
X0056400Y0117962D03*
X0058746Y0124816D03*
X0062426Y0129692D03*
X0062426Y0129738D03*
X0062426Y0129784D03*
X0062426Y0129830D03*
X0062426Y0129876D03*
X0068682Y0122562D03*
X0069878Y0125598D03*
X0069878Y0125644D03*
X0069924Y0125690D03*
X0062196Y0117364D03*
X0062656Y0114190D03*
D21*
X0062656Y0114236D03*
X0064312Y0117870D03*
X0053594Y0121734D03*
D22*
X0059022Y0125046D03*
X0062196Y0126748D03*
X0062196Y0126794D03*
X0062196Y0126840D03*
X0062196Y0126886D03*
X0062656Y0114282D03*
D23*
X0062633Y0114328D03*
X0062679Y0123574D03*
X0068567Y0123436D03*
X0055411Y0119296D03*
D24*
X0062610Y0114374D03*
X0068498Y0123620D03*
D25*
X0068452Y0123804D03*
X0062610Y0114420D03*
X0055066Y0119894D03*
D26*
X0054905Y0120262D03*
X0062587Y0114466D03*
X0068383Y0123988D03*
D27*
X0068314Y0124126D03*
X0062610Y0114512D03*
X0054790Y0120584D03*
X0054790Y0120630D03*
D28*
X0054721Y0120906D03*
X0054721Y0120952D03*
X0054721Y0120998D03*
X0062633Y0123252D03*
X0062587Y0114558D03*
D29*
X0062587Y0114604D03*
D30*
X0062564Y0114650D03*
X0068176Y0124448D03*
X0054652Y0121596D03*
D31*
X0062541Y0114696D03*
D32*
X0062541Y0114742D03*
D33*
X0062518Y0114788D03*
D34*
X0062495Y0114834D03*
D35*
X0062495Y0114880D03*
D36*
X0062472Y0114926D03*
D37*
X0062472Y0114972D03*
D38*
X0062449Y0115018D03*
D39*
X0062449Y0115064D03*
X0063783Y0126104D03*
X0063783Y0126150D03*
X0063829Y0126288D03*
D40*
X0062426Y0115110D03*
D41*
X0062403Y0115156D03*
D42*
X0062380Y0115202D03*
D43*
X0062380Y0115248D03*
D44*
X0062357Y0115294D03*
D45*
X0062334Y0115340D03*
D46*
X0062334Y0115386D03*
D47*
X0062311Y0115432D03*
D48*
X0062288Y0115478D03*
D49*
X0059919Y0115524D03*
X0055549Y0119066D03*
X0062219Y0126472D03*
X0068567Y0123298D03*
D50*
X0068659Y0122792D03*
X0069533Y0125046D03*
X0069579Y0125092D03*
X0065577Y0125092D03*
X0062311Y0128450D03*
X0062311Y0128496D03*
X0062311Y0128542D03*
X0062311Y0128588D03*
X0062311Y0128634D03*
X0062311Y0128680D03*
X0056055Y0118376D03*
X0056101Y0118330D03*
X0053525Y0121780D03*
X0064887Y0115524D03*
D51*
X0064243Y0120814D03*
X0059735Y0115570D03*
X0055825Y0118698D03*
X0055779Y0118744D03*
X0062219Y0127162D03*
X0062219Y0127208D03*
X0062219Y0127254D03*
X0062219Y0127300D03*
X0062219Y0127346D03*
D52*
X0062472Y0130152D03*
X0062472Y0130198D03*
X0062472Y0130244D03*
X0062472Y0130290D03*
X0062472Y0130336D03*
X0066106Y0126978D03*
X0066060Y0126794D03*
X0066014Y0126656D03*
X0066014Y0126610D03*
X0065968Y0126518D03*
X0065968Y0126472D03*
X0065922Y0126334D03*
X0065738Y0125000D03*
X0070016Y0125920D03*
X0070062Y0126012D03*
X0065094Y0115570D03*
X0058470Y0126104D03*
X0053364Y0121964D03*
X0056584Y0117732D03*
X0056630Y0117686D03*
X0056676Y0117640D03*
D53*
X0059551Y0115616D03*
X0058907Y0124954D03*
X0062265Y0127944D03*
X0062265Y0127990D03*
X0062265Y0128036D03*
X0062265Y0128082D03*
X0062265Y0128128D03*
X0068659Y0122884D03*
X0069441Y0124908D03*
D54*
X0070223Y0126426D03*
X0070269Y0126518D03*
X0068705Y0122286D03*
X0066543Y0128956D03*
X0066543Y0129002D03*
X0066543Y0129048D03*
X0066589Y0129186D03*
X0066589Y0129232D03*
X0066589Y0129278D03*
X0066589Y0129324D03*
X0066635Y0129416D03*
X0066635Y0129462D03*
X0066635Y0129508D03*
X0066635Y0129554D03*
X0062541Y0130750D03*
X0062541Y0130796D03*
X0062541Y0130842D03*
X0062541Y0130888D03*
X0058309Y0126564D03*
X0058309Y0126518D03*
X0058355Y0126472D03*
X0058355Y0126426D03*
X0058631Y0124724D03*
X0053295Y0122056D03*
X0056929Y0117364D03*
X0058631Y0116030D03*
X0058723Y0115984D03*
X0065209Y0115616D03*
D55*
X0062196Y0117410D03*
X0059436Y0115662D03*
X0056032Y0118422D03*
X0062288Y0128174D03*
X0062288Y0128220D03*
X0062288Y0128266D03*
X0062288Y0128312D03*
X0062288Y0128358D03*
X0062288Y0128404D03*
X0068682Y0122838D03*
X0069464Y0124954D03*
X0069510Y0125000D03*
D56*
X0069671Y0125230D03*
X0059321Y0115708D03*
X0056285Y0118100D03*
X0056239Y0118146D03*
X0053479Y0121826D03*
D57*
X0053203Y0122240D03*
X0057849Y0128312D03*
X0057849Y0128358D03*
X0057849Y0128404D03*
X0057849Y0128450D03*
X0057803Y0128496D03*
X0057803Y0128542D03*
X0057803Y0128588D03*
X0057803Y0128634D03*
X0062633Y0131532D03*
X0066819Y0130704D03*
X0066819Y0130658D03*
X0066819Y0130612D03*
X0070453Y0127070D03*
X0068705Y0121918D03*
X0065439Y0115708D03*
D58*
X0068705Y0122608D03*
X0069763Y0125414D03*
X0069809Y0125460D03*
X0069809Y0125506D03*
X0069855Y0125552D03*
X0065669Y0125046D03*
X0059183Y0115754D03*
X0056377Y0118008D03*
X0053433Y0121872D03*
D59*
X0053203Y0122286D03*
X0057757Y0128864D03*
X0057757Y0128910D03*
X0057757Y0128956D03*
X0057711Y0129048D03*
X0057711Y0129094D03*
X0057711Y0129140D03*
X0062633Y0131670D03*
X0062633Y0131716D03*
X0062633Y0131762D03*
X0066865Y0130980D03*
X0066865Y0130934D03*
X0066865Y0130888D03*
X0070499Y0127208D03*
X0068705Y0121826D03*
X0068705Y0121780D03*
X0068705Y0121734D03*
X0065531Y0115754D03*
D60*
X0068705Y0122470D03*
X0068705Y0122516D03*
X0065945Y0126380D03*
X0065945Y0126426D03*
X0059091Y0115800D03*
X0056469Y0117870D03*
X0053387Y0121918D03*
D61*
X0058447Y0124494D03*
X0057665Y0129324D03*
X0057665Y0129370D03*
X0057665Y0129416D03*
X0057665Y0129462D03*
X0062633Y0131854D03*
X0068705Y0121688D03*
X0068705Y0121642D03*
X0064841Y0118054D03*
X0065623Y0115800D03*
X0062219Y0117272D03*
X0070545Y0127346D03*
D62*
X0070039Y0125966D03*
X0069993Y0125874D03*
X0069993Y0125828D03*
X0069947Y0125782D03*
X0069947Y0125736D03*
X0062449Y0129922D03*
X0062449Y0129968D03*
X0062449Y0130014D03*
X0062449Y0130060D03*
X0062449Y0130106D03*
X0056515Y0117824D03*
X0056561Y0117778D03*
X0058999Y0115846D03*
D63*
X0065715Y0115846D03*
X0062679Y0132038D03*
D64*
X0062495Y0130520D03*
X0062495Y0130474D03*
X0062495Y0130428D03*
X0062495Y0130382D03*
X0066405Y0128312D03*
X0066313Y0127898D03*
X0066313Y0127852D03*
X0066267Y0127668D03*
X0066267Y0127622D03*
X0066221Y0127484D03*
X0066221Y0127438D03*
X0066221Y0127392D03*
X0066175Y0127300D03*
X0066175Y0127254D03*
X0066175Y0127208D03*
X0066129Y0127162D03*
X0066129Y0127116D03*
X0066129Y0127070D03*
X0066129Y0127024D03*
X0066083Y0126932D03*
X0066083Y0126886D03*
X0066083Y0126840D03*
X0066037Y0126748D03*
X0066037Y0126702D03*
X0070085Y0126104D03*
X0070085Y0126058D03*
X0070131Y0126150D03*
X0070131Y0126196D03*
X0068705Y0122424D03*
X0068705Y0122378D03*
X0064565Y0117916D03*
X0062725Y0123758D03*
X0058447Y0126150D03*
X0058447Y0126196D03*
X0058401Y0126288D03*
X0056745Y0117594D03*
X0058815Y0115938D03*
X0058907Y0115892D03*
D65*
X0060540Y0117962D03*
X0064956Y0118146D03*
X0065876Y0115938D03*
X0068682Y0121274D03*
X0068682Y0121320D03*
X0070614Y0127576D03*
X0066980Y0131578D03*
X0066980Y0131624D03*
X0057550Y0130152D03*
X0057550Y0130106D03*
X0057550Y0130060D03*
D66*
X0057527Y0130198D03*
X0057527Y0130244D03*
X0057527Y0130290D03*
X0062679Y0132268D03*
X0062679Y0132314D03*
X0062679Y0132360D03*
X0067003Y0131670D03*
X0070637Y0127668D03*
X0070637Y0127622D03*
X0068659Y0121228D03*
X0068659Y0121182D03*
X0068659Y0121136D03*
X0065945Y0115984D03*
X0064243Y0123206D03*
X0058309Y0124310D03*
X0053111Y0122516D03*
D67*
X0053088Y0122562D03*
X0058286Y0124264D03*
X0060908Y0123160D03*
X0065002Y0118192D03*
X0066014Y0116030D03*
X0070660Y0127714D03*
X0066980Y0131716D03*
X0057504Y0130428D03*
X0057504Y0130382D03*
X0057504Y0130336D03*
D68*
X0058194Y0126932D03*
X0058240Y0126794D03*
X0058240Y0126748D03*
X0066612Y0129370D03*
X0066658Y0129600D03*
X0066658Y0129646D03*
X0066658Y0129692D03*
X0066658Y0129738D03*
X0066704Y0129922D03*
X0070292Y0126610D03*
X0070292Y0126564D03*
X0070246Y0126472D03*
X0068728Y0122240D03*
X0058562Y0116076D03*
X0057228Y0117088D03*
X0057090Y0117226D03*
X0057044Y0117272D03*
X0056998Y0117318D03*
D69*
X0060310Y0118054D03*
X0062242Y0117226D03*
X0066060Y0116076D03*
X0066106Y0116122D03*
X0062748Y0123850D03*
X0060770Y0123114D03*
X0057458Y0130566D03*
X0057458Y0130612D03*
X0053088Y0122608D03*
X0067026Y0131854D03*
X0070660Y0127760D03*
D70*
X0070361Y0126794D03*
X0070315Y0126702D03*
X0070315Y0126656D03*
X0068705Y0122194D03*
X0068705Y0122148D03*
X0065899Y0124908D03*
X0066681Y0129784D03*
X0066681Y0129830D03*
X0066681Y0129876D03*
X0066727Y0129968D03*
X0066727Y0130014D03*
X0066727Y0130060D03*
X0062587Y0131072D03*
X0058125Y0127162D03*
X0058171Y0127024D03*
X0058171Y0126978D03*
X0058217Y0126886D03*
X0058217Y0126840D03*
X0058585Y0124678D03*
X0053295Y0122102D03*
X0057297Y0117042D03*
X0057343Y0116996D03*
X0057389Y0116950D03*
X0057435Y0116904D03*
X0058263Y0116260D03*
X0058355Y0116214D03*
X0058401Y0116168D03*
X0058493Y0116122D03*
X0062219Y0117318D03*
D71*
X0065071Y0118284D03*
X0066175Y0116168D03*
X0068613Y0120814D03*
X0068613Y0120860D03*
X0070683Y0127806D03*
X0067003Y0131900D03*
X0062679Y0132498D03*
X0062679Y0132544D03*
X0057435Y0130704D03*
X0057435Y0130658D03*
X0058217Y0124172D03*
X0060701Y0123068D03*
D72*
X0058194Y0124126D03*
X0065094Y0118330D03*
X0066244Y0116214D03*
X0070706Y0127852D03*
X0062702Y0132590D03*
D73*
X0062679Y0132636D03*
X0067049Y0132038D03*
X0060517Y0122976D03*
X0058171Y0124080D03*
X0060149Y0118146D03*
X0066313Y0116260D03*
X0068567Y0120584D03*
X0068567Y0120630D03*
X0057435Y0130750D03*
X0057435Y0130796D03*
X0053065Y0122654D03*
D74*
X0058056Y0127392D03*
X0058056Y0127438D03*
X0058056Y0127484D03*
X0058102Y0127300D03*
X0058102Y0127254D03*
X0058102Y0127208D03*
X0058148Y0127116D03*
X0058148Y0127070D03*
X0064680Y0117962D03*
X0058194Y0116306D03*
X0058148Y0116352D03*
X0058056Y0116398D03*
X0057826Y0116582D03*
X0057780Y0116628D03*
X0057642Y0116720D03*
X0070338Y0126748D03*
X0070384Y0126840D03*
D75*
X0070706Y0127898D03*
X0067026Y0132084D03*
X0064588Y0123068D03*
X0065140Y0118376D03*
X0066336Y0116306D03*
X0060080Y0118192D03*
X0060310Y0122838D03*
X0057412Y0130842D03*
X0057412Y0130888D03*
X0057412Y0130934D03*
D76*
X0057389Y0130980D03*
X0062679Y0132728D03*
X0067049Y0132130D03*
X0060241Y0122792D03*
X0060195Y0122746D03*
X0060149Y0122700D03*
X0060103Y0122654D03*
X0060057Y0122608D03*
X0065163Y0118422D03*
X0066451Y0116398D03*
X0066405Y0116352D03*
X0068567Y0120446D03*
X0068567Y0120492D03*
X0068567Y0120538D03*
X0053065Y0122700D03*
D77*
X0053272Y0122148D03*
X0057504Y0116858D03*
X0057550Y0116812D03*
X0057596Y0116766D03*
X0057872Y0116536D03*
X0057964Y0116490D03*
X0058010Y0116444D03*
X0058010Y0127622D03*
X0062564Y0131118D03*
X0062564Y0131164D03*
X0066750Y0130244D03*
X0066750Y0130198D03*
X0066750Y0130152D03*
X0066750Y0130106D03*
X0068728Y0122102D03*
D78*
X0068544Y0120400D03*
X0068544Y0120354D03*
X0066520Y0116444D03*
X0065186Y0118468D03*
X0064680Y0123022D03*
X0060034Y0122562D03*
X0059896Y0122424D03*
X0059850Y0122378D03*
X0058102Y0123988D03*
X0059804Y0118468D03*
X0059850Y0118422D03*
X0059896Y0118376D03*
X0059942Y0118330D03*
X0059988Y0118284D03*
X0057366Y0131026D03*
X0062702Y0132774D03*
X0067072Y0132176D03*
X0070752Y0127944D03*
D79*
X0068475Y0120216D03*
X0068475Y0120170D03*
X0068475Y0120124D03*
X0066589Y0116536D03*
X0066543Y0116490D03*
X0059643Y0122056D03*
X0059689Y0122148D03*
X0057389Y0131072D03*
D80*
X0057366Y0131118D03*
X0057366Y0131164D03*
X0058056Y0123896D03*
X0059298Y0121182D03*
X0059344Y0121366D03*
X0059390Y0121504D03*
X0059390Y0121550D03*
X0059436Y0121596D03*
X0059436Y0121642D03*
X0059436Y0121688D03*
X0059482Y0121734D03*
X0059482Y0121780D03*
X0059528Y0121826D03*
X0059528Y0121872D03*
X0059574Y0121918D03*
X0059574Y0121964D03*
X0059620Y0122010D03*
X0059666Y0122102D03*
X0059758Y0122240D03*
X0059528Y0118882D03*
X0059574Y0118790D03*
X0059620Y0118744D03*
X0059620Y0118698D03*
X0059666Y0118652D03*
X0059712Y0118606D03*
X0065232Y0118606D03*
X0065232Y0118560D03*
X0066704Y0116628D03*
X0068452Y0120032D03*
X0068452Y0120078D03*
X0064772Y0122930D03*
X0070752Y0127990D03*
X0067072Y0132268D03*
D81*
X0064841Y0122884D03*
X0064887Y0122838D03*
X0064933Y0122792D03*
X0065255Y0118652D03*
X0066727Y0116674D03*
X0066773Y0116720D03*
X0066819Y0116766D03*
X0059551Y0118836D03*
X0059505Y0118928D03*
X0059505Y0118974D03*
X0059459Y0119020D03*
X0059459Y0119066D03*
X0059413Y0119112D03*
X0059413Y0119158D03*
X0059367Y0119250D03*
X0059367Y0119296D03*
X0059367Y0121412D03*
X0059367Y0121458D03*
X0058033Y0123850D03*
D82*
X0058010Y0123804D03*
X0057964Y0123758D03*
X0059252Y0120952D03*
X0059206Y0120538D03*
X0059206Y0120492D03*
X0059206Y0120446D03*
X0059206Y0120400D03*
X0059206Y0120354D03*
X0059206Y0120308D03*
X0059206Y0120262D03*
X0059206Y0120216D03*
X0059206Y0120170D03*
X0059206Y0120124D03*
X0059206Y0120078D03*
X0059252Y0119894D03*
X0059252Y0119848D03*
X0059252Y0119802D03*
X0059252Y0119756D03*
X0059252Y0119710D03*
X0059298Y0119572D03*
X0059298Y0119526D03*
X0059298Y0119480D03*
X0059344Y0119342D03*
X0059390Y0119204D03*
X0065278Y0118744D03*
X0065278Y0118698D03*
X0066934Y0116904D03*
X0066888Y0116858D03*
X0066842Y0116812D03*
X0068406Y0119802D03*
X0068406Y0119848D03*
X0068406Y0119894D03*
X0065002Y0122700D03*
X0064956Y0122746D03*
X0067072Y0132314D03*
X0067072Y0132360D03*
X0062702Y0132912D03*
D83*
X0062679Y0132958D03*
X0057343Y0131302D03*
X0065025Y0122654D03*
X0065071Y0122608D03*
X0065301Y0118836D03*
X0065301Y0118790D03*
X0067003Y0116996D03*
X0066957Y0116950D03*
X0068383Y0119710D03*
X0068383Y0119756D03*
X0070775Y0128082D03*
D84*
X0067095Y0132452D03*
X0067095Y0132498D03*
X0062679Y0133004D03*
X0057895Y0123620D03*
X0065255Y0122240D03*
X0065255Y0122194D03*
X0065255Y0122148D03*
X0065301Y0122056D03*
X0065301Y0122010D03*
X0065301Y0121964D03*
X0065301Y0121918D03*
X0065301Y0121872D03*
X0065301Y0121826D03*
X0065347Y0119296D03*
X0065347Y0119250D03*
X0065347Y0119204D03*
X0065347Y0119158D03*
X0065347Y0119112D03*
X0065347Y0119066D03*
X0065347Y0119020D03*
X0067187Y0117226D03*
X0067233Y0117272D03*
X0067049Y0117042D03*
X0068199Y0119204D03*
X0068245Y0119296D03*
X0068245Y0119342D03*
D85*
X0068268Y0119388D03*
X0068314Y0119526D03*
X0068314Y0119572D03*
X0067118Y0117134D03*
X0067072Y0117088D03*
X0065324Y0118882D03*
X0065324Y0118928D03*
X0065324Y0118974D03*
X0065324Y0121780D03*
X0065278Y0122102D03*
X0065232Y0122286D03*
X0065186Y0122378D03*
X0065186Y0122424D03*
X0065140Y0122470D03*
X0065140Y0122516D03*
X0065094Y0122562D03*
X0057918Y0123666D03*
X0053042Y0122838D03*
X0057320Y0131348D03*
X0057320Y0131394D03*
D86*
X0058286Y0126702D03*
X0058286Y0126656D03*
X0058286Y0126610D03*
X0062564Y0130934D03*
X0062564Y0130980D03*
X0062564Y0131026D03*
X0057136Y0117180D03*
X0057182Y0117134D03*
D87*
X0062242Y0117134D03*
X0057228Y0132038D03*
X0067164Y0133050D03*
D88*
X0057297Y0131670D03*
X0057757Y0123298D03*
X0057711Y0123252D03*
X0056929Y0121780D03*
X0065485Y0117180D03*
X0065485Y0117134D03*
D89*
X0065370Y0117686D03*
X0065370Y0119342D03*
X0065370Y0119388D03*
X0065370Y0119434D03*
X0065370Y0119480D03*
X0065370Y0119526D03*
X0065370Y0119572D03*
X0065370Y0119618D03*
X0065370Y0119664D03*
X0065370Y0119710D03*
X0065370Y0119756D03*
X0065370Y0119802D03*
X0065370Y0119848D03*
X0065370Y0119894D03*
X0065370Y0119940D03*
X0065370Y0119986D03*
X0065370Y0120032D03*
X0065370Y0120078D03*
X0065370Y0120124D03*
X0067348Y0117456D03*
X0067302Y0117410D03*
X0067302Y0117364D03*
X0067256Y0117318D03*
X0068084Y0118882D03*
X0068130Y0118974D03*
X0068130Y0119020D03*
X0068176Y0119066D03*
X0068176Y0119112D03*
X0068176Y0119158D03*
X0068222Y0119250D03*
X0062242Y0117180D03*
X0057872Y0123574D03*
X0057320Y0131440D03*
X0062702Y0133050D03*
X0070798Y0128128D03*
D90*
X0068291Y0119480D03*
X0068291Y0119434D03*
X0067141Y0117180D03*
X0065209Y0122332D03*
D91*
X0065462Y0117226D03*
X0057780Y0123344D03*
X0057274Y0131624D03*
X0062702Y0133188D03*
D92*
X0062679Y0133142D03*
X0057297Y0131578D03*
X0057803Y0123390D03*
X0065439Y0117364D03*
X0065439Y0117318D03*
X0065439Y0117272D03*
X0070821Y0128174D03*
D93*
X0070200Y0126380D03*
X0070200Y0126334D03*
X0070154Y0126242D03*
X0068728Y0122332D03*
X0065830Y0124954D03*
X0066198Y0127346D03*
X0066244Y0127530D03*
X0066244Y0127576D03*
X0066290Y0127714D03*
X0066290Y0127760D03*
X0066290Y0127806D03*
X0066336Y0127944D03*
X0066336Y0127990D03*
X0066336Y0128036D03*
X0066382Y0128128D03*
X0066382Y0128174D03*
X0066382Y0128220D03*
X0066382Y0128266D03*
X0066428Y0128358D03*
X0066428Y0128404D03*
X0066428Y0128450D03*
X0066428Y0128496D03*
X0066474Y0128542D03*
X0066474Y0128588D03*
X0066474Y0128634D03*
X0066474Y0128680D03*
X0066474Y0128726D03*
X0066520Y0128772D03*
X0066520Y0128818D03*
X0066520Y0128864D03*
X0066520Y0128910D03*
X0066566Y0129094D03*
X0066566Y0129140D03*
X0062518Y0130566D03*
X0062518Y0130612D03*
X0062518Y0130658D03*
X0062518Y0130704D03*
X0058378Y0126380D03*
X0058378Y0126334D03*
X0058424Y0126242D03*
X0053318Y0122010D03*
X0056768Y0117548D03*
X0056814Y0117502D03*
X0056860Y0117456D03*
X0056906Y0117410D03*
D94*
X0057826Y0123436D03*
X0057826Y0123482D03*
X0065416Y0117502D03*
X0065416Y0117456D03*
X0065416Y0117410D03*
X0067578Y0117824D03*
X0067624Y0117916D03*
X0067670Y0118008D03*
X0067716Y0118054D03*
X0067716Y0118100D03*
X0067762Y0118146D03*
X0067762Y0118192D03*
X0067808Y0118238D03*
X0067808Y0118284D03*
X0067992Y0118652D03*
D95*
X0068636Y0123068D03*
X0068636Y0123114D03*
X0064220Y0120768D03*
X0064220Y0120722D03*
X0064220Y0120676D03*
X0064220Y0120630D03*
X0064220Y0120584D03*
X0064220Y0120538D03*
X0064220Y0120492D03*
X0064220Y0120446D03*
X0064220Y0120400D03*
X0064220Y0120354D03*
X0064220Y0120308D03*
X0064220Y0120262D03*
X0064220Y0120216D03*
X0064220Y0120170D03*
X0062196Y0117456D03*
X0055756Y0118790D03*
X0055710Y0118836D03*
X0062196Y0127116D03*
D96*
X0062196Y0126656D03*
X0062196Y0126610D03*
X0062196Y0126564D03*
X0062196Y0126518D03*
X0062702Y0123620D03*
X0062196Y0117502D03*
X0068590Y0123252D03*
X0055618Y0118974D03*
X0055572Y0119020D03*
D97*
X0056837Y0121734D03*
X0057849Y0123528D03*
X0053019Y0122884D03*
X0057297Y0131486D03*
X0057297Y0131532D03*
X0062679Y0133096D03*
X0067095Y0132544D03*
X0062771Y0123896D03*
X0065393Y0117640D03*
X0065393Y0117594D03*
X0065393Y0117548D03*
X0067371Y0117502D03*
X0067417Y0117548D03*
X0067417Y0117594D03*
X0067463Y0117640D03*
X0067509Y0117732D03*
X0067555Y0117778D03*
X0067601Y0117870D03*
X0067647Y0117962D03*
X0067923Y0118514D03*
X0067969Y0118606D03*
X0068015Y0118698D03*
X0068015Y0118744D03*
X0068061Y0118790D03*
X0068061Y0118836D03*
X0068107Y0118928D03*
D98*
X0068544Y0123482D03*
X0062196Y0117548D03*
X0055388Y0119342D03*
X0055342Y0119388D03*
D99*
X0055250Y0119572D03*
X0062196Y0117594D03*
D100*
X0062173Y0117640D03*
X0068475Y0123712D03*
X0055135Y0119756D03*
D101*
X0062173Y0117686D03*
D102*
X0067486Y0117686D03*
X0067854Y0118330D03*
X0067854Y0118376D03*
X0067900Y0118422D03*
X0067900Y0118468D03*
X0067946Y0118560D03*
X0067118Y0132590D03*
D103*
X0062909Y0117732D03*
D104*
X0062886Y0117778D03*
X0067946Y0124770D03*
D105*
X0067900Y0124816D03*
X0062840Y0117824D03*
D106*
X0065025Y0118238D03*
X0068659Y0121044D03*
X0068659Y0121090D03*
X0067003Y0131762D03*
X0067003Y0131808D03*
X0062679Y0132406D03*
X0062679Y0132452D03*
X0057481Y0130520D03*
X0057481Y0130474D03*
X0058263Y0124218D03*
X0060425Y0118008D03*
D107*
X0058470Y0124540D03*
X0057780Y0128680D03*
X0057780Y0128726D03*
X0057780Y0128772D03*
X0057780Y0128818D03*
X0062610Y0131578D03*
X0062610Y0131624D03*
X0066842Y0130842D03*
X0066842Y0130796D03*
X0066842Y0130750D03*
X0070476Y0127162D03*
X0070476Y0127116D03*
X0068728Y0121872D03*
X0064772Y0118008D03*
D108*
X0068682Y0122654D03*
X0069694Y0125276D03*
X0069740Y0125322D03*
X0069740Y0125368D03*
X0062380Y0129186D03*
X0062380Y0129232D03*
X0062380Y0129278D03*
X0062380Y0129324D03*
X0062380Y0129370D03*
X0062380Y0129416D03*
X0058792Y0124862D03*
X0056308Y0118054D03*
D109*
X0060218Y0118100D03*
X0060586Y0123022D03*
X0064496Y0123114D03*
X0068590Y0120768D03*
X0068590Y0120722D03*
X0068590Y0120676D03*
X0067026Y0131946D03*
X0067026Y0131992D03*
D110*
X0062357Y0129140D03*
X0062357Y0129094D03*
X0062357Y0129048D03*
X0062357Y0129002D03*
X0062357Y0128956D03*
X0069625Y0125184D03*
X0056193Y0118192D03*
D111*
X0056170Y0118238D03*
X0056124Y0118284D03*
X0058838Y0124908D03*
X0062702Y0123712D03*
X0062334Y0128726D03*
X0062334Y0128772D03*
X0062334Y0128818D03*
X0062334Y0128864D03*
X0062334Y0128910D03*
X0068682Y0122746D03*
X0068682Y0122700D03*
X0069602Y0125138D03*
D112*
X0062702Y0132682D03*
X0058148Y0124034D03*
X0060402Y0122884D03*
X0060448Y0122930D03*
X0060034Y0118238D03*
D113*
X0055986Y0118468D03*
X0055940Y0118514D03*
X0062242Y0127668D03*
X0062242Y0127714D03*
X0062242Y0127760D03*
X0062242Y0127806D03*
X0062242Y0127852D03*
X0062242Y0127898D03*
X0068636Y0122930D03*
D114*
X0068659Y0122976D03*
X0069395Y0124862D03*
X0062219Y0127622D03*
X0055871Y0118606D03*
X0055917Y0118560D03*
D115*
X0055848Y0118652D03*
X0058976Y0125000D03*
X0062702Y0123666D03*
X0065462Y0125138D03*
X0062242Y0127392D03*
X0062242Y0127438D03*
X0062242Y0127484D03*
X0062242Y0127530D03*
X0062242Y0127576D03*
D116*
X0062219Y0127070D03*
X0062219Y0127024D03*
X0062219Y0126978D03*
X0062219Y0126932D03*
X0068613Y0123160D03*
X0055687Y0118882D03*
D117*
X0055641Y0118928D03*
X0068613Y0123206D03*
D118*
X0068590Y0123344D03*
X0062196Y0126334D03*
X0062196Y0126380D03*
X0062196Y0126426D03*
X0059114Y0125092D03*
X0055526Y0119112D03*
D119*
X0055503Y0119158D03*
X0068567Y0123390D03*
D120*
X0055457Y0119204D03*
D121*
X0055434Y0119250D03*
D122*
X0053065Y0122792D03*
X0059321Y0121320D03*
X0059321Y0121274D03*
X0059321Y0121228D03*
X0059275Y0121136D03*
X0059275Y0121090D03*
X0059275Y0121044D03*
X0059275Y0120998D03*
X0059229Y0120906D03*
X0059229Y0120860D03*
X0059229Y0120814D03*
X0059229Y0120768D03*
X0059229Y0120722D03*
X0059229Y0120676D03*
X0059229Y0120630D03*
X0059229Y0120584D03*
X0059229Y0120032D03*
X0059229Y0119986D03*
X0059229Y0119940D03*
X0059275Y0119664D03*
X0059275Y0119618D03*
X0059321Y0119434D03*
X0059321Y0119388D03*
X0057343Y0131210D03*
X0057343Y0131256D03*
X0062679Y0132866D03*
X0070775Y0128036D03*
X0068429Y0119986D03*
X0068429Y0119940D03*
D123*
X0068521Y0123528D03*
X0059229Y0125138D03*
X0055319Y0119434D03*
D124*
X0055296Y0119480D03*
D125*
X0055273Y0119526D03*
X0062679Y0123528D03*
X0065117Y0125230D03*
X0068521Y0123574D03*
D126*
X0055227Y0119618D03*
X0055181Y0119664D03*
D127*
X0057941Y0123712D03*
X0067095Y0132406D03*
X0068337Y0119664D03*
X0068337Y0119618D03*
D128*
X0068498Y0123666D03*
X0059344Y0125184D03*
X0055158Y0119710D03*
D129*
X0055112Y0119802D03*
X0062656Y0123482D03*
X0068452Y0123758D03*
D130*
X0055089Y0119848D03*
D131*
X0055043Y0119940D03*
X0055043Y0119986D03*
X0054997Y0120032D03*
X0068429Y0123850D03*
D132*
X0062656Y0123436D03*
X0054974Y0120078D03*
D133*
X0054951Y0120124D03*
D134*
X0054928Y0120170D03*
X0054928Y0120216D03*
X0059528Y0125230D03*
X0068406Y0123942D03*
D135*
X0062656Y0123390D03*
X0054882Y0120354D03*
X0054882Y0120308D03*
D136*
X0054859Y0120400D03*
X0068383Y0124034D03*
D137*
X0068360Y0124080D03*
X0054836Y0120446D03*
D138*
X0054813Y0120492D03*
X0054813Y0120538D03*
X0062633Y0123344D03*
D139*
X0054767Y0120722D03*
X0054767Y0120676D03*
D140*
X0054744Y0120768D03*
X0054744Y0120814D03*
D141*
X0054744Y0120860D03*
D142*
X0064404Y0123160D03*
X0068636Y0120998D03*
X0068636Y0120952D03*
X0068636Y0120906D03*
D143*
X0068268Y0124264D03*
X0054698Y0121090D03*
X0054698Y0121044D03*
D144*
X0054675Y0121136D03*
X0054675Y0121182D03*
D145*
X0054698Y0121228D03*
X0068222Y0124356D03*
D146*
X0054675Y0121366D03*
X0054675Y0121320D03*
X0054675Y0121274D03*
D147*
X0058355Y0124356D03*
X0057573Y0129968D03*
X0057573Y0130014D03*
X0068659Y0121366D03*
X0070591Y0127530D03*
D148*
X0054652Y0121412D03*
D149*
X0054675Y0121458D03*
X0054675Y0121504D03*
X0054675Y0121550D03*
D150*
X0057619Y0129646D03*
X0057619Y0129692D03*
X0057619Y0129738D03*
X0057619Y0129784D03*
X0068705Y0121550D03*
X0068705Y0121504D03*
X0070591Y0127484D03*
D151*
X0070568Y0127438D03*
X0070568Y0127392D03*
X0066934Y0131302D03*
X0066934Y0131348D03*
X0062656Y0131900D03*
X0062656Y0131946D03*
X0062656Y0131992D03*
X0057642Y0129600D03*
X0057642Y0129554D03*
X0057642Y0129508D03*
X0058424Y0124448D03*
X0068682Y0121596D03*
D152*
X0054675Y0121642D03*
X0054675Y0121688D03*
D153*
X0056998Y0121826D03*
X0062702Y0133234D03*
D154*
X0062702Y0133280D03*
X0067118Y0132774D03*
X0057274Y0131762D03*
X0057642Y0123068D03*
X0057642Y0123022D03*
X0057596Y0122976D03*
X0057044Y0121872D03*
D155*
X0057067Y0121918D03*
X0057113Y0121964D03*
X0057573Y0122930D03*
X0053019Y0122976D03*
X0057251Y0131808D03*
D156*
X0057872Y0128266D03*
X0057872Y0128220D03*
X0057872Y0128174D03*
X0057918Y0128128D03*
X0057918Y0128082D03*
X0057918Y0128036D03*
X0057918Y0127990D03*
X0057964Y0127852D03*
X0057964Y0127806D03*
X0053226Y0122194D03*
X0062610Y0131394D03*
X0062610Y0131440D03*
X0062610Y0131486D03*
X0066796Y0130566D03*
X0066796Y0130520D03*
X0066796Y0130474D03*
X0068728Y0122010D03*
X0068728Y0121964D03*
D157*
X0067118Y0132820D03*
X0062702Y0133326D03*
X0057550Y0122884D03*
X0057550Y0122838D03*
X0057504Y0122746D03*
X0057136Y0122010D03*
D158*
X0057159Y0122056D03*
X0057205Y0122102D03*
X0057205Y0122148D03*
X0057251Y0122194D03*
X0057435Y0122608D03*
X0057481Y0122700D03*
X0057527Y0122792D03*
X0057251Y0131854D03*
X0067141Y0132866D03*
X0070867Y0128266D03*
D159*
X0062702Y0133372D03*
X0057458Y0122654D03*
X0057412Y0122562D03*
X0057412Y0122516D03*
X0057366Y0122470D03*
X0057366Y0122424D03*
X0057320Y0122378D03*
X0057320Y0122332D03*
X0057274Y0122286D03*
X0057274Y0122240D03*
D160*
X0053180Y0122332D03*
X0057734Y0129002D03*
X0057688Y0129186D03*
X0057688Y0129232D03*
X0057688Y0129278D03*
X0062656Y0131808D03*
X0066888Y0131118D03*
X0066888Y0131072D03*
X0066888Y0131026D03*
X0070522Y0127300D03*
X0070522Y0127254D03*
D161*
X0066911Y0131164D03*
X0066911Y0131210D03*
X0066911Y0131256D03*
X0053157Y0122378D03*
D162*
X0053111Y0122470D03*
X0062679Y0132176D03*
X0062679Y0132222D03*
X0066957Y0131532D03*
X0066957Y0131486D03*
D163*
X0067118Y0132636D03*
X0067118Y0132682D03*
X0053042Y0122930D03*
D164*
X0053042Y0123022D03*
X0062702Y0133418D03*
X0067164Y0132912D03*
D165*
X0068636Y0123022D03*
D166*
X0053019Y0123068D03*
D167*
X0057665Y0123114D03*
D168*
X0057688Y0123160D03*
X0057688Y0123206D03*
X0057274Y0131716D03*
X0067118Y0132728D03*
X0070844Y0128220D03*
D169*
X0068291Y0124218D03*
X0062633Y0123298D03*
D170*
X0062725Y0123804D03*
D171*
X0068429Y0123896D03*
D172*
X0068314Y0124172D03*
D173*
X0068245Y0124310D03*
D174*
X0068199Y0124402D03*
D175*
X0068153Y0124494D03*
D176*
X0068130Y0124540D03*
D177*
X0070430Y0126978D03*
X0070430Y0127024D03*
X0058516Y0124586D03*
D178*
X0068084Y0124586D03*
D179*
X0068061Y0124632D03*
D180*
X0068015Y0124678D03*
D181*
X0067969Y0124724D03*
D182*
X0065991Y0126564D03*
X0066359Y0128082D03*
X0070177Y0126288D03*
X0058677Y0124770D03*
D183*
X0062219Y0126702D03*
X0065347Y0125184D03*
D184*
X0062196Y0125276D03*
X0062196Y0125322D03*
D185*
X0062173Y0125368D03*
X0062173Y0125414D03*
X0062173Y0125460D03*
X0062173Y0125506D03*
D186*
X0062196Y0125552D03*
D187*
X0062173Y0125598D03*
X0062173Y0125644D03*
X0062173Y0125690D03*
X0062173Y0125736D03*
D188*
X0062196Y0125782D03*
D189*
X0062173Y0125828D03*
X0062173Y0125874D03*
X0062173Y0125920D03*
X0062173Y0125966D03*
D190*
X0062196Y0126012D03*
D191*
X0062173Y0126058D03*
D192*
X0063806Y0126196D03*
X0063806Y0126242D03*
D193*
X0062725Y0133464D03*
X0070913Y0128312D03*
D194*
X0062403Y0129462D03*
X0062403Y0129508D03*
X0062403Y0129554D03*
X0062403Y0129600D03*
X0062403Y0129646D03*
D195*
X0057251Y0131900D03*
D196*
X0057251Y0131946D03*
D197*
X0057228Y0131992D03*
D198*
X0057228Y0132084D03*
X0062748Y0133602D03*
D199*
X0067164Y0132958D03*
D200*
X0067141Y0133004D03*
X0062725Y0133510D03*
D201*
X0067187Y0133096D03*
D202*
X0062748Y0133556D03*
D203*
X0096175Y0071831D03*
X0096425Y0069031D03*
X0096425Y0068981D03*
X0096425Y0068931D03*
X0096475Y0068881D03*
X0097425Y0068881D03*
X0097425Y0068931D03*
X0097425Y0068981D03*
X0098875Y0068931D03*
X0098875Y0068881D03*
X0098875Y0068831D03*
X0098875Y0068781D03*
X0098875Y0068731D03*
X0098875Y0068681D03*
X0098875Y0068631D03*
X0098875Y0068581D03*
X0098875Y0068531D03*
X0098875Y0068481D03*
X0098875Y0068431D03*
X0098875Y0068381D03*
X0098875Y0068331D03*
X0098875Y0068281D03*
X0098875Y0068231D03*
X0098875Y0068181D03*
X0098875Y0068131D03*
X0098875Y0068081D03*
X0098875Y0068031D03*
X0098875Y0067981D03*
X0098875Y0067931D03*
X0098875Y0067881D03*
X0098875Y0067831D03*
X0098875Y0067781D03*
X0098875Y0067731D03*
X0098875Y0067681D03*
X0098875Y0067631D03*
X0098875Y0067581D03*
X0098875Y0067531D03*
X0098875Y0067481D03*
X0098875Y0067431D03*
X0098875Y0067381D03*
X0098875Y0067331D03*
X0098875Y0067281D03*
X0098875Y0067231D03*
X0097475Y0065881D03*
X0097475Y0065831D03*
X0097475Y0065781D03*
X0097475Y0064981D03*
X0097475Y0064931D03*
X0097475Y0064881D03*
X0097475Y0064831D03*
X0097475Y0064781D03*
X0097475Y0064731D03*
X0097475Y0064681D03*
X0097475Y0064631D03*
X0097475Y0064581D03*
X0097475Y0064531D03*
X0097475Y0064481D03*
X0097475Y0064431D03*
X0097475Y0064381D03*
X0097475Y0064331D03*
X0097475Y0064281D03*
X0097475Y0064231D03*
X0097475Y0064181D03*
X0097475Y0064131D03*
X0097475Y0064081D03*
X0097475Y0064031D03*
X0097475Y0063981D03*
X0097475Y0063931D03*
X0097475Y0063881D03*
X0097475Y0063831D03*
X0097475Y0063781D03*
X0097475Y0063731D03*
X0097475Y0063681D03*
X0097475Y0063631D03*
X0097475Y0063581D03*
X0097475Y0063531D03*
X0097475Y0063481D03*
X0097475Y0063431D03*
X0097475Y0063381D03*
X0096425Y0063381D03*
X0096425Y0064031D03*
X0096425Y0064081D03*
X0096425Y0064131D03*
X0096425Y0064181D03*
X0096425Y0064231D03*
X0096425Y0064281D03*
X0096425Y0064331D03*
X0096425Y0064931D03*
X0096425Y0064981D03*
X0096425Y0065031D03*
X0096425Y0065081D03*
X0096425Y0065131D03*
X0096425Y0065181D03*
X0096425Y0065231D03*
X0096275Y0067831D03*
X0095025Y0067981D03*
X0094975Y0068031D03*
X0094975Y0068081D03*
X0094975Y0068131D03*
X0094975Y0068181D03*
X0094975Y0068831D03*
X0094975Y0068931D03*
X0094975Y0068981D03*
X0095025Y0069081D03*
X0094075Y0068931D03*
X0094075Y0068881D03*
X0094075Y0068831D03*
X0094075Y0068781D03*
X0094075Y0068731D03*
X0094075Y0068681D03*
X0094075Y0068631D03*
X0094075Y0068581D03*
X0094075Y0068481D03*
X0094075Y0068431D03*
X0094075Y0068381D03*
X0094075Y0068331D03*
X0094075Y0068281D03*
X0094075Y0068231D03*
X0094075Y0068181D03*
X0094075Y0068131D03*
X0092625Y0068181D03*
X0092625Y0068231D03*
X0092625Y0068281D03*
X0092625Y0068331D03*
X0092625Y0068381D03*
X0092625Y0068431D03*
X0092625Y0068481D03*
X0092625Y0068531D03*
X0092625Y0068581D03*
X0092625Y0068631D03*
X0092625Y0068681D03*
X0092625Y0068731D03*
X0092625Y0068781D03*
X0092625Y0068831D03*
X0092625Y0068881D03*
X0092625Y0069731D03*
X0092625Y0069781D03*
X0091625Y0069031D03*
X0091675Y0068931D03*
X0091675Y0068881D03*
X0091675Y0068831D03*
X0091675Y0068781D03*
X0091675Y0068731D03*
X0091675Y0068681D03*
X0091675Y0068631D03*
X0091675Y0068581D03*
X0091675Y0068531D03*
X0091675Y0068481D03*
X0091675Y0068431D03*
X0091675Y0068381D03*
X0091675Y0068331D03*
X0091675Y0068281D03*
X0091675Y0068231D03*
X0091675Y0068181D03*
X0091675Y0068131D03*
X0091625Y0068031D03*
X0092625Y0067331D03*
X0092625Y0067281D03*
X0092625Y0067231D03*
X0092625Y0067181D03*
X0092625Y0067131D03*
X0092625Y0067081D03*
X0092625Y0067031D03*
X0092625Y0066981D03*
X0092625Y0066931D03*
X0092625Y0066881D03*
X0092625Y0066831D03*
X0092625Y0066781D03*
X0092625Y0066731D03*
X0092625Y0066681D03*
X0092625Y0066631D03*
X0092625Y0066581D03*
X0092625Y0066531D03*
X0092625Y0066481D03*
X0092625Y0066431D03*
X0092625Y0066381D03*
X0092625Y0066331D03*
X0092625Y0066281D03*
X0092625Y0066231D03*
X0092625Y0066181D03*
X0092625Y0066131D03*
X0092625Y0066081D03*
X0092625Y0066031D03*
X0092625Y0065981D03*
X0092625Y0065931D03*
X0092625Y0065881D03*
X0092625Y0065831D03*
X0092625Y0065031D03*
X0092625Y0064981D03*
X0092625Y0064931D03*
X0092625Y0064881D03*
X0092625Y0064831D03*
X0092625Y0064781D03*
X0092625Y0064731D03*
X0092625Y0064681D03*
X0092625Y0064631D03*
X0092625Y0064581D03*
X0092625Y0064531D03*
X0092625Y0064481D03*
X0092625Y0064431D03*
X0092625Y0064381D03*
X0092625Y0064331D03*
X0092625Y0064281D03*
X0092625Y0064231D03*
X0092625Y0064181D03*
X0092625Y0064131D03*
X0092625Y0064081D03*
X0092625Y0064031D03*
X0092625Y0063981D03*
X0092625Y0063931D03*
X0092625Y0063881D03*
X0092625Y0063831D03*
X0092625Y0063781D03*
X0092625Y0063731D03*
X0092625Y0063681D03*
X0092625Y0063631D03*
X0092625Y0063581D03*
X0092625Y0063531D03*
X0092625Y0063481D03*
X0092625Y0063431D03*
X0092625Y0063381D03*
X0094075Y0063381D03*
X0094075Y0063431D03*
X0094075Y0063481D03*
X0094075Y0063531D03*
X0094075Y0063581D03*
X0094075Y0063631D03*
X0094075Y0063681D03*
X0094075Y0063731D03*
X0094075Y0063781D03*
X0094075Y0063831D03*
X0094075Y0063881D03*
X0094075Y0063931D03*
X0094075Y0063981D03*
X0094075Y0064031D03*
X0094075Y0064081D03*
X0094075Y0064131D03*
X0094075Y0064181D03*
X0094075Y0064231D03*
X0094075Y0064281D03*
X0094075Y0064331D03*
X0094075Y0064381D03*
X0094075Y0064431D03*
X0094075Y0064481D03*
X0094075Y0064531D03*
X0094075Y0064581D03*
X0094075Y0064631D03*
X0094075Y0064681D03*
X0094075Y0064731D03*
X0094075Y0064781D03*
X0094075Y0064831D03*
X0094075Y0064881D03*
X0094075Y0064931D03*
X0094075Y0064981D03*
X0094075Y0065031D03*
X0094075Y0065081D03*
X0094975Y0064281D03*
X0094975Y0063981D03*
X0099175Y0064231D03*
X0099175Y0064281D03*
X0099175Y0064331D03*
X0099175Y0064381D03*
X0099175Y0064431D03*
X0099175Y0064481D03*
X0099175Y0064531D03*
X0099175Y0064581D03*
X0099175Y0064631D03*
X0099175Y0064681D03*
X0099175Y0064731D03*
X0099175Y0064781D03*
X0099175Y0064831D03*
X0099175Y0064881D03*
X0099175Y0064931D03*
X0099175Y0064981D03*
X0099175Y0065031D03*
X0100625Y0065031D03*
X0100625Y0064981D03*
X0100625Y0064931D03*
X0100625Y0064881D03*
X0100625Y0064831D03*
X0100625Y0064781D03*
X0100625Y0064731D03*
X0100625Y0064681D03*
X0100625Y0064631D03*
X0100625Y0064581D03*
X0100625Y0064531D03*
X0100625Y0064481D03*
X0100625Y0064431D03*
X0100625Y0064381D03*
X0100625Y0064331D03*
X0100625Y0064281D03*
X0100625Y0064231D03*
X0100625Y0063431D03*
X0100625Y0063381D03*
X0102175Y0063481D03*
X0102175Y0063531D03*
X0101775Y0064681D03*
X0101725Y0064831D03*
X0101675Y0064981D03*
X0101675Y0065031D03*
X0101625Y0065131D03*
X0101625Y0065181D03*
X0101625Y0065231D03*
X0101575Y0065281D03*
X0101575Y0065331D03*
X0101575Y0065381D03*
X0101525Y0065431D03*
X0101525Y0065481D03*
X0101525Y0065531D03*
X0101475Y0065631D03*
X0101475Y0065681D03*
X0101475Y0065731D03*
X0101425Y0065831D03*
X0101425Y0065881D03*
X0100625Y0065881D03*
X0100625Y0065931D03*
X0100625Y0065981D03*
X0100625Y0066031D03*
X0100625Y0066081D03*
X0100625Y0066131D03*
X0100625Y0066181D03*
X0100625Y0066231D03*
X0100625Y0066281D03*
X0100625Y0066331D03*
X0100625Y0066381D03*
X0100625Y0066431D03*
X0100625Y0066481D03*
X0100625Y0066531D03*
X0100625Y0066581D03*
X0100625Y0066631D03*
X0100625Y0066681D03*
X0100625Y0066731D03*
X0100625Y0066781D03*
X0100625Y0066831D03*
X0100625Y0066881D03*
X0101575Y0067231D03*
X0100875Y0067881D03*
X0100875Y0068981D03*
X0100875Y0069031D03*
X0100875Y0069081D03*
X0100875Y0069131D03*
X0100925Y0069181D03*
X0101575Y0069831D03*
X0103175Y0069031D03*
X0103175Y0068981D03*
X0103125Y0068931D03*
X0103125Y0068881D03*
X0103125Y0068831D03*
X0103125Y0068781D03*
X0103125Y0068731D03*
X0103125Y0068681D03*
X0103125Y0068631D03*
X0103125Y0068581D03*
X0103125Y0068531D03*
X0103125Y0068481D03*
X0103125Y0068431D03*
X0103125Y0068381D03*
X0103125Y0068331D03*
X0103125Y0068281D03*
X0103125Y0068231D03*
X0103125Y0068181D03*
X0103125Y0068131D03*
X0103175Y0068081D03*
X0103175Y0068031D03*
X0102325Y0068031D03*
X0102325Y0068081D03*
X0102325Y0068131D03*
X0102325Y0067981D03*
X0102925Y0065631D03*
X0104225Y0065331D03*
X0104225Y0065281D03*
X0104225Y0065231D03*
X0104175Y0065131D03*
X0104175Y0065081D03*
X0104125Y0064931D03*
X0104075Y0064781D03*
X0104075Y0064731D03*
X0104025Y0064581D03*
X0104275Y0065381D03*
X0104275Y0065431D03*
X0104275Y0065481D03*
X0104325Y0065531D03*
X0104325Y0065581D03*
X0104325Y0065631D03*
X0104375Y0065731D03*
X0104375Y0065781D03*
X0104975Y0064281D03*
X0104975Y0064031D03*
X0104975Y0063981D03*
X0103675Y0063481D03*
X0100625Y0065831D03*
X0104625Y0068081D03*
X0104625Y0068131D03*
X0104625Y0068181D03*
X0104625Y0068231D03*
X0104675Y0068431D03*
X0104675Y0068481D03*
X0104675Y0068531D03*
X0104675Y0068581D03*
X0104675Y0068631D03*
X0104625Y0068831D03*
X0104625Y0068881D03*
X0104625Y0068931D03*
X0104625Y0068981D03*
X0105575Y0068981D03*
X0105575Y0069031D03*
X0105575Y0069081D03*
X0105575Y0069131D03*
X0105575Y0069181D03*
X0105575Y0069231D03*
X0105575Y0069281D03*
X0105575Y0069331D03*
X0105575Y0069381D03*
X0105575Y0069431D03*
X0105575Y0069481D03*
X0105575Y0069531D03*
X0105575Y0069581D03*
X0105575Y0069631D03*
X0105575Y0069681D03*
X0105575Y0069731D03*
X0105575Y0069781D03*
X0105575Y0068931D03*
X0105575Y0068881D03*
X0105575Y0068831D03*
X0105575Y0068781D03*
X0105575Y0068731D03*
X0105575Y0068681D03*
X0105575Y0068631D03*
X0105575Y0068581D03*
X0105575Y0068531D03*
X0105575Y0068481D03*
X0105575Y0068431D03*
X0105575Y0068381D03*
X0105575Y0068331D03*
X0105575Y0068281D03*
X0105575Y0068231D03*
X0105575Y0068181D03*
X0107075Y0068181D03*
X0107075Y0068231D03*
X0107075Y0068281D03*
X0107075Y0068331D03*
X0107075Y0068381D03*
X0107075Y0068431D03*
X0107075Y0068481D03*
X0107075Y0068531D03*
X0107075Y0068581D03*
X0107075Y0068631D03*
X0107075Y0068681D03*
X0107075Y0068731D03*
X0107075Y0068781D03*
X0107075Y0068831D03*
X0107075Y0068881D03*
X0107075Y0068931D03*
X0107075Y0068981D03*
X0107075Y0069031D03*
X0107075Y0069081D03*
X0107075Y0069131D03*
X0107075Y0069181D03*
X0107075Y0069231D03*
X0107075Y0069281D03*
X0107075Y0069331D03*
X0107075Y0069381D03*
X0107075Y0069431D03*
X0107075Y0069481D03*
X0107075Y0069531D03*
X0107075Y0069581D03*
X0107075Y0069631D03*
X0107075Y0069681D03*
X0107075Y0069731D03*
X0107075Y0069781D03*
X0108125Y0069781D03*
X0108125Y0069731D03*
X0108125Y0068981D03*
X0108125Y0068931D03*
X0108125Y0068881D03*
X0108125Y0068831D03*
X0108125Y0068781D03*
X0108125Y0068731D03*
X0108125Y0068681D03*
X0108125Y0068631D03*
X0108125Y0068581D03*
X0108125Y0068531D03*
X0108125Y0068481D03*
X0108125Y0068431D03*
X0108125Y0068381D03*
X0108125Y0068331D03*
X0108125Y0068281D03*
X0108125Y0068231D03*
X0108125Y0068181D03*
X0108125Y0068131D03*
X0108125Y0068081D03*
X0108125Y0068031D03*
X0108125Y0067981D03*
X0108125Y0067931D03*
X0108125Y0067881D03*
X0108125Y0067831D03*
X0108125Y0067781D03*
X0108125Y0067731D03*
X0108125Y0067681D03*
X0108125Y0067631D03*
X0108125Y0067581D03*
X0108125Y0067531D03*
X0108125Y0067481D03*
X0108125Y0067431D03*
X0108125Y0067381D03*
X0108125Y0067331D03*
X0108125Y0067281D03*
X0107075Y0067281D03*
X0107075Y0067331D03*
X0107475Y0065881D03*
X0107475Y0065831D03*
X0107475Y0065781D03*
X0107475Y0064931D03*
X0107475Y0064881D03*
X0107475Y0064831D03*
X0107475Y0064781D03*
X0107475Y0064731D03*
X0107475Y0064681D03*
X0107475Y0064631D03*
X0107475Y0064581D03*
X0107475Y0064531D03*
X0107475Y0064481D03*
X0107475Y0064431D03*
X0107475Y0064381D03*
X0107475Y0064331D03*
X0107475Y0064281D03*
X0107475Y0064231D03*
X0107475Y0064181D03*
X0107475Y0064131D03*
X0107475Y0064081D03*
X0107475Y0064031D03*
X0107475Y0063981D03*
X0107475Y0063931D03*
X0107475Y0063881D03*
X0107475Y0063831D03*
X0107475Y0063781D03*
X0107475Y0063731D03*
X0107475Y0063681D03*
X0107475Y0063631D03*
X0107475Y0063581D03*
X0107475Y0063531D03*
X0107475Y0063481D03*
X0107475Y0063431D03*
X0107475Y0063381D03*
X0106425Y0064031D03*
X0106425Y0064081D03*
X0106425Y0064131D03*
X0106425Y0064181D03*
X0106425Y0064231D03*
X0106425Y0064931D03*
X0106425Y0065131D03*
X0106425Y0065181D03*
X0106425Y0065231D03*
X0109225Y0065131D03*
X0109225Y0065081D03*
X0109275Y0065181D03*
X0109175Y0064331D03*
X0109225Y0064181D03*
X0109225Y0064131D03*
X0109275Y0064081D03*
X0110675Y0064931D03*
X0110675Y0064981D03*
X0110675Y0065031D03*
X0110675Y0065081D03*
X0109775Y0068131D03*
X0109775Y0068181D03*
X0109725Y0068231D03*
X0109725Y0068281D03*
X0109725Y0068331D03*
X0109725Y0068381D03*
X0109725Y0068431D03*
X0109725Y0068481D03*
X0109725Y0068531D03*
X0109725Y0068581D03*
X0109725Y0068631D03*
X0109725Y0068681D03*
X0109725Y0068731D03*
X0109725Y0068781D03*
X0109725Y0068831D03*
X0109775Y0068881D03*
X0109775Y0068931D03*
X0111875Y0068881D03*
X0111875Y0068831D03*
X0111925Y0069031D03*
X0111975Y0069131D03*
X0111875Y0068231D03*
X0111875Y0068181D03*
X0111925Y0068081D03*
X0111925Y0068031D03*
X0113175Y0067831D03*
X0113325Y0069031D03*
X0113325Y0069081D03*
X0107375Y0071831D03*
X0090225Y0069031D03*
X0090225Y0068031D03*
D204*
X0093525Y0067331D03*
X0093525Y0069731D03*
X0095775Y0067281D03*
X0098275Y0069731D03*
X0098825Y0072781D03*
X0102925Y0065181D03*
X0102175Y0063981D03*
X0103675Y0063981D03*
X0105575Y0063381D03*
X0106175Y0067331D03*
X0108975Y0069731D03*
X0110025Y0063381D03*
X0104725Y0072781D03*
X0099375Y0063931D03*
X0095575Y0063381D03*
D205*
X0096350Y0063931D03*
X0096300Y0065331D03*
X0097550Y0065231D03*
X0099300Y0065281D03*
X0100550Y0065231D03*
X0100550Y0063981D03*
X0099750Y0063381D03*
X0102150Y0063731D03*
X0103650Y0063731D03*
X0103650Y0063781D03*
X0103650Y0063681D03*
X0102900Y0065381D03*
X0102900Y0065431D03*
X0103300Y0067881D03*
X0104500Y0067881D03*
X0104500Y0069181D03*
X0107000Y0067931D03*
X0107550Y0065231D03*
X0106350Y0063931D03*
X0109400Y0063931D03*
X0109950Y0065881D03*
X0112050Y0069231D03*
X0113200Y0069231D03*
X0107350Y0071881D03*
X0104700Y0072731D03*
X0101000Y0068881D03*
X0098750Y0069181D03*
X0098850Y0072731D03*
X0096200Y0071881D03*
X0095150Y0069231D03*
X0095100Y0067881D03*
X0093950Y0067881D03*
X0092700Y0067931D03*
X0091550Y0067881D03*
X0090300Y0067881D03*
X0090300Y0069181D03*
X0091550Y0069181D03*
X0093500Y0069781D03*
X0094000Y0065231D03*
X0092700Y0065231D03*
D206*
X0090925Y0067231D03*
X0090175Y0068431D03*
X0090175Y0068481D03*
X0090175Y0068531D03*
X0090175Y0068581D03*
X0090175Y0068631D03*
X0095775Y0067231D03*
X0096175Y0071781D03*
X0098925Y0072631D03*
X0104625Y0072631D03*
X0107375Y0071781D03*
X0110575Y0067231D03*
X0112625Y0069831D03*
X0105225Y0065331D03*
X0103225Y0064831D03*
X0103225Y0064781D03*
X0103275Y0064631D03*
X0103325Y0064481D03*
X0102575Y0064681D03*
X0102575Y0064731D03*
X0102525Y0064581D03*
X0102525Y0064531D03*
X0102475Y0064431D03*
X0102175Y0063381D03*
X0102925Y0065781D03*
D207*
X0102900Y0065731D03*
X0102900Y0065681D03*
X0102600Y0064831D03*
X0102600Y0064781D03*
X0102550Y0064631D03*
X0102500Y0064481D03*
X0101850Y0064481D03*
X0101850Y0064431D03*
X0101800Y0064531D03*
X0101800Y0064581D03*
X0101800Y0064631D03*
X0101750Y0064731D03*
X0101750Y0064781D03*
X0101700Y0064881D03*
X0101700Y0064931D03*
X0101650Y0065081D03*
X0103250Y0064731D03*
X0103250Y0064681D03*
X0103300Y0064581D03*
X0103300Y0064531D03*
X0104000Y0064531D03*
X0104000Y0064481D03*
X0104050Y0064631D03*
X0104050Y0064681D03*
X0104100Y0064831D03*
X0104100Y0064881D03*
X0104150Y0064981D03*
X0104150Y0065031D03*
X0104200Y0065181D03*
X0104950Y0064231D03*
X0104950Y0064181D03*
X0104950Y0064131D03*
X0104950Y0064081D03*
X0103650Y0063431D03*
X0103650Y0063381D03*
X0102150Y0063431D03*
X0100650Y0066931D03*
X0102100Y0069231D03*
X0103900Y0069831D03*
X0104650Y0068781D03*
X0104650Y0068731D03*
X0104650Y0068681D03*
X0104650Y0068381D03*
X0104650Y0068331D03*
X0104650Y0068281D03*
X0103900Y0067231D03*
X0105650Y0065931D03*
X0106450Y0065081D03*
X0106450Y0065031D03*
X0106450Y0064981D03*
X0106450Y0064331D03*
X0106450Y0064281D03*
X0106450Y0063381D03*
X0109200Y0064231D03*
X0109200Y0064281D03*
X0109200Y0064931D03*
X0109200Y0064981D03*
X0109200Y0065031D03*
X0110500Y0063931D03*
X0112700Y0067231D03*
X0111900Y0068131D03*
X0111900Y0068931D03*
X0111900Y0068981D03*
X0111100Y0067881D03*
X0110600Y0069831D03*
X0108100Y0069831D03*
X0107050Y0069831D03*
X0105600Y0069831D03*
X0107050Y0067231D03*
X0108100Y0067231D03*
X0113350Y0068831D03*
X0113350Y0068881D03*
X0113350Y0068931D03*
X0113350Y0068981D03*
X0107350Y0086331D03*
X0096200Y0086331D03*
X0097400Y0069831D03*
X0097400Y0069781D03*
X0097400Y0069731D03*
X0097400Y0068831D03*
X0097400Y0068781D03*
X0097400Y0068731D03*
X0097400Y0068681D03*
X0097400Y0068631D03*
X0097400Y0068581D03*
X0097400Y0068531D03*
X0097400Y0068481D03*
X0097400Y0068431D03*
X0097400Y0068381D03*
X0097400Y0068331D03*
X0097400Y0068281D03*
X0097400Y0068231D03*
X0097400Y0068181D03*
X0097400Y0068131D03*
X0097400Y0068081D03*
X0097400Y0068031D03*
X0097400Y0067981D03*
X0097400Y0067931D03*
X0097400Y0067881D03*
X0097400Y0067831D03*
X0097400Y0067781D03*
X0097400Y0067731D03*
X0097400Y0067681D03*
X0097400Y0067631D03*
X0097400Y0067581D03*
X0097400Y0067531D03*
X0097400Y0067481D03*
X0097400Y0067431D03*
X0097400Y0067381D03*
X0097400Y0067331D03*
X0097400Y0067281D03*
X0097400Y0067231D03*
X0095650Y0065931D03*
X0094950Y0064231D03*
X0094950Y0064181D03*
X0094950Y0064131D03*
X0094950Y0064081D03*
X0094950Y0064031D03*
X0094950Y0068231D03*
X0094950Y0068881D03*
X0095000Y0069031D03*
X0094100Y0068531D03*
X0092600Y0069831D03*
X0090900Y0069831D03*
X0090200Y0068981D03*
X0090200Y0068931D03*
X0090200Y0068881D03*
X0090200Y0068831D03*
X0090200Y0068781D03*
X0090200Y0068731D03*
X0090200Y0068681D03*
X0090200Y0068381D03*
X0090200Y0068331D03*
X0090200Y0068281D03*
X0090200Y0068231D03*
X0090200Y0068181D03*
X0090200Y0068131D03*
X0090200Y0068081D03*
D208*
X0090925Y0067631D03*
X0090925Y0069431D03*
X0093175Y0069681D03*
X0093175Y0067381D03*
X0093175Y0065781D03*
X0095875Y0064781D03*
X0095875Y0063431D03*
X0098025Y0065581D03*
X0100075Y0065781D03*
X0100075Y0063481D03*
X0101525Y0067481D03*
X0101675Y0068481D03*
X0101625Y0068531D03*
X0101575Y0068581D03*
X0101525Y0068631D03*
X0101625Y0069581D03*
X0103875Y0069431D03*
X0103875Y0067631D03*
X0105725Y0065631D03*
X0105875Y0064781D03*
X0105875Y0063431D03*
X0108025Y0065581D03*
X0106525Y0067381D03*
X0108675Y0069531D03*
X0108675Y0069681D03*
X0110575Y0069481D03*
X0110575Y0067581D03*
X0110025Y0063631D03*
X0097975Y0069681D03*
X0095725Y0069431D03*
D209*
X0098800Y0072831D03*
X0101600Y0069781D03*
X0101550Y0067281D03*
X0102900Y0065131D03*
X0102900Y0065081D03*
X0103650Y0064081D03*
X0103650Y0064031D03*
X0102150Y0064031D03*
X0102150Y0064081D03*
X0100450Y0063931D03*
X0099750Y0063431D03*
X0105700Y0065881D03*
X0109950Y0065831D03*
X0104750Y0072831D03*
X0107300Y0086181D03*
X0096250Y0086181D03*
D210*
X0095700Y0069681D03*
X0102150Y0064381D03*
X0102150Y0064331D03*
X0103650Y0064381D03*
X0110000Y0063431D03*
X0109950Y0065781D03*
X0112700Y0067331D03*
X0112650Y0069681D03*
D211*
X0112650Y0069381D03*
X0112700Y0067581D03*
X0109950Y0065481D03*
X0108050Y0065631D03*
X0105800Y0065381D03*
X0105700Y0065581D03*
X0105850Y0064731D03*
X0105850Y0063481D03*
X0103900Y0067681D03*
X0103900Y0069381D03*
X0101650Y0069531D03*
X0100050Y0065731D03*
X0098050Y0065631D03*
X0100050Y0063531D03*
X0095850Y0063481D03*
X0095800Y0065381D03*
X0095700Y0065631D03*
X0095800Y0067581D03*
X0095700Y0069381D03*
X0096300Y0072281D03*
X0098000Y0069631D03*
X0093200Y0069631D03*
X0093200Y0067431D03*
X0093200Y0065731D03*
X0107250Y0072281D03*
X0108700Y0069631D03*
X0108700Y0069581D03*
D212*
X0110025Y0063481D03*
X0112625Y0069631D03*
X0101925Y0068281D03*
X0095775Y0067381D03*
X0095725Y0069631D03*
X0090925Y0069631D03*
X0090925Y0067431D03*
X0096275Y0086031D03*
X0107275Y0086031D03*
D213*
X0107250Y0072331D03*
X0103900Y0069331D03*
X0103900Y0067731D03*
X0105700Y0065531D03*
X0105750Y0065481D03*
X0105800Y0064681D03*
X0105800Y0063581D03*
X0106450Y0067481D03*
X0109950Y0065381D03*
X0110000Y0063831D03*
X0110050Y0063731D03*
X0110600Y0067681D03*
X0110500Y0067831D03*
X0110500Y0069231D03*
X0110600Y0069381D03*
X0112650Y0069281D03*
X0112700Y0067681D03*
X0101650Y0069481D03*
X0101600Y0069381D03*
X0101550Y0069331D03*
X0100000Y0065631D03*
X0100000Y0063631D03*
X0095800Y0063531D03*
X0095800Y0064681D03*
X0095700Y0065531D03*
X0095800Y0067631D03*
X0095750Y0067731D03*
X0095700Y0067781D03*
X0095700Y0069281D03*
X0098050Y0069531D03*
X0096300Y0072331D03*
X0093250Y0069531D03*
X0093250Y0067531D03*
X0093250Y0065631D03*
D214*
X0093500Y0065881D03*
X0094050Y0065131D03*
X0096400Y0065281D03*
X0097500Y0065131D03*
X0097500Y0065081D03*
X0097500Y0065031D03*
X0096400Y0063981D03*
X0095050Y0067931D03*
X0094050Y0067981D03*
X0094050Y0068031D03*
X0094050Y0068081D03*
X0094050Y0068981D03*
X0094050Y0069031D03*
X0094050Y0069081D03*
X0095050Y0069131D03*
X0096400Y0069081D03*
X0096450Y0068831D03*
X0097450Y0069031D03*
X0097450Y0069081D03*
X0098850Y0069031D03*
X0098850Y0068981D03*
X0100900Y0068931D03*
X0102300Y0068181D03*
X0102300Y0067931D03*
X0103200Y0067981D03*
X0103200Y0069081D03*
X0104550Y0069131D03*
X0104600Y0069081D03*
X0104600Y0069031D03*
X0104600Y0068031D03*
X0104600Y0067981D03*
X0104550Y0067931D03*
X0105600Y0068081D03*
X0105600Y0068131D03*
X0105650Y0068031D03*
X0105650Y0067981D03*
X0107050Y0068081D03*
X0107050Y0068131D03*
X0108150Y0069031D03*
X0109800Y0069031D03*
X0109800Y0068981D03*
X0109850Y0069081D03*
X0109800Y0068081D03*
X0109800Y0068031D03*
X0109850Y0067981D03*
X0109300Y0065231D03*
X0109300Y0064031D03*
X0110650Y0065131D03*
X0110650Y0065181D03*
X0110600Y0065231D03*
X0112000Y0067931D03*
X0111950Y0067981D03*
X0111950Y0069081D03*
X0113300Y0069131D03*
X0107500Y0065081D03*
X0107500Y0065031D03*
X0107500Y0064981D03*
X0106400Y0065281D03*
X0106400Y0063981D03*
X0104350Y0065681D03*
X0104400Y0065831D03*
X0104400Y0065881D03*
X0102900Y0065581D03*
X0102900Y0065531D03*
X0101500Y0065581D03*
X0101450Y0065781D03*
X0100600Y0065131D03*
X0100600Y0065081D03*
X0100600Y0064181D03*
X0100600Y0064131D03*
X0100600Y0064081D03*
X0099250Y0064031D03*
X0099200Y0064081D03*
X0099200Y0064131D03*
X0099200Y0064181D03*
X0099200Y0065081D03*
X0099200Y0065131D03*
X0099750Y0065881D03*
X0102150Y0063581D03*
X0103650Y0063581D03*
X0103650Y0063631D03*
X0103650Y0063531D03*
X0104650Y0072681D03*
X0098900Y0072681D03*
X0092650Y0069031D03*
X0092650Y0068981D03*
X0092650Y0068931D03*
X0092650Y0068131D03*
X0092650Y0068081D03*
X0092650Y0068031D03*
X0091650Y0068081D03*
X0091600Y0067981D03*
X0091650Y0068981D03*
X0091600Y0069081D03*
X0090250Y0069081D03*
X0090250Y0067981D03*
X0092650Y0065131D03*
X0092650Y0065081D03*
D215*
X0093225Y0065681D03*
X0093225Y0067481D03*
X0093225Y0069581D03*
X0090925Y0069381D03*
X0090925Y0069331D03*
X0090925Y0067731D03*
X0090925Y0067681D03*
X0095725Y0069331D03*
X0098025Y0069581D03*
X0098075Y0065731D03*
X0098075Y0065681D03*
X0100025Y0065681D03*
X0100025Y0063581D03*
X0101525Y0067531D03*
X0101525Y0069281D03*
X0105775Y0065431D03*
X0105825Y0063531D03*
X0108075Y0065681D03*
X0108075Y0065731D03*
X0109975Y0065431D03*
X0109925Y0063881D03*
X0110025Y0063681D03*
X0110575Y0067631D03*
X0110575Y0069431D03*
X0112625Y0069331D03*
X0112625Y0067781D03*
X0112725Y0067631D03*
X0106475Y0067431D03*
X0095775Y0065431D03*
X0095675Y0065581D03*
X0095825Y0064731D03*
X0096325Y0085831D03*
X0107225Y0085831D03*
D216*
X0103900Y0069581D03*
X0103900Y0067481D03*
X0106000Y0064881D03*
X0110000Y0063531D03*
X0112700Y0067431D03*
X0112650Y0069581D03*
X0108550Y0069231D03*
X0095700Y0069581D03*
X0096000Y0064881D03*
X0090900Y0069581D03*
D217*
X0090925Y0069281D03*
X0090925Y0069231D03*
X0090925Y0067831D03*
X0090925Y0067781D03*
X0093275Y0067581D03*
X0093275Y0069481D03*
X0095775Y0067681D03*
X0095725Y0065481D03*
X0095775Y0064631D03*
X0095775Y0063631D03*
X0095775Y0063581D03*
X0093275Y0065531D03*
X0093275Y0065581D03*
X0098075Y0069431D03*
X0098075Y0069481D03*
X0099975Y0065581D03*
X0099975Y0065531D03*
X0099975Y0063681D03*
X0101625Y0069431D03*
X0103875Y0069281D03*
X0103875Y0067781D03*
X0106425Y0067581D03*
X0106425Y0067531D03*
X0105775Y0064631D03*
X0105775Y0064581D03*
X0105775Y0063631D03*
X0110025Y0063781D03*
X0110575Y0067731D03*
X0110525Y0067781D03*
X0110525Y0069281D03*
X0110575Y0069331D03*
X0112675Y0067731D03*
X0107225Y0085781D03*
X0096325Y0085781D03*
D218*
X0096275Y0072231D03*
X0095725Y0069481D03*
X0097975Y0065481D03*
X0095925Y0064831D03*
X0090925Y0067581D03*
X0090925Y0069481D03*
X0101425Y0068731D03*
X0101775Y0068381D03*
X0105725Y0065681D03*
X0105925Y0064831D03*
X0107975Y0065431D03*
X0107975Y0065481D03*
X0110025Y0063581D03*
X0110575Y0067531D03*
X0110575Y0069531D03*
X0108625Y0069431D03*
X0108625Y0069381D03*
X0107275Y0072231D03*
X0112625Y0069481D03*
D219*
X0112025Y0069181D03*
X0113275Y0069181D03*
X0112025Y0067881D03*
X0110575Y0065281D03*
X0109325Y0065281D03*
X0108375Y0065881D03*
X0107525Y0065181D03*
X0107525Y0065131D03*
X0106175Y0067281D03*
X0105675Y0067931D03*
X0107025Y0067981D03*
X0107025Y0068031D03*
X0108175Y0069081D03*
X0108175Y0069131D03*
X0108975Y0069781D03*
X0109875Y0069131D03*
X0109875Y0067931D03*
X0109325Y0063981D03*
X0105025Y0063931D03*
X0105025Y0064331D03*
X0102925Y0065481D03*
X0102175Y0063681D03*
X0102175Y0063631D03*
X0100575Y0064031D03*
X0100575Y0065181D03*
X0099275Y0065231D03*
X0099225Y0065181D03*
X0098375Y0065881D03*
X0097525Y0065181D03*
X0099275Y0063981D03*
X0102275Y0067881D03*
X0103225Y0067931D03*
X0103225Y0069131D03*
X0103275Y0069181D03*
X0100975Y0069231D03*
X0098825Y0069081D03*
X0098775Y0069131D03*
X0098275Y0069781D03*
X0097475Y0069131D03*
X0096375Y0069131D03*
X0096325Y0069181D03*
X0095075Y0069181D03*
X0094025Y0069131D03*
X0093975Y0069181D03*
X0094025Y0067931D03*
X0093525Y0067281D03*
X0092675Y0067981D03*
X0092675Y0069081D03*
X0092675Y0069131D03*
X0091575Y0069131D03*
X0091575Y0067931D03*
X0090275Y0067931D03*
X0090275Y0069131D03*
X0092675Y0065181D03*
X0094025Y0065181D03*
X0095025Y0064331D03*
X0095025Y0063931D03*
X0096225Y0086281D03*
X0107325Y0086281D03*
D220*
X0107250Y0072381D03*
X0103900Y0069231D03*
X0103900Y0067831D03*
X0101500Y0067581D03*
X0099950Y0065481D03*
X0099950Y0065431D03*
X0099950Y0063831D03*
X0099950Y0063781D03*
X0099950Y0063731D03*
X0095750Y0063681D03*
X0095750Y0064531D03*
X0095750Y0064581D03*
X0093300Y0065481D03*
X0093300Y0067631D03*
X0093300Y0067681D03*
X0093300Y0069381D03*
X0093300Y0069431D03*
X0096300Y0072381D03*
X0098100Y0069381D03*
X0098100Y0069331D03*
X0105750Y0064531D03*
X0105750Y0063731D03*
X0105750Y0063681D03*
X0106400Y0067631D03*
D221*
X0106375Y0067681D03*
X0106375Y0067731D03*
X0106375Y0067781D03*
X0105725Y0064481D03*
X0105725Y0064431D03*
X0105725Y0064381D03*
X0105725Y0063831D03*
X0105725Y0063781D03*
X0099925Y0063881D03*
X0099925Y0065331D03*
X0099925Y0065381D03*
X0098125Y0069231D03*
X0098125Y0069281D03*
X0095725Y0064481D03*
X0095725Y0064431D03*
X0095725Y0063781D03*
X0095725Y0063731D03*
X0093325Y0065331D03*
X0093325Y0065381D03*
X0093325Y0065431D03*
X0093325Y0067731D03*
X0093325Y0067781D03*
X0093325Y0067831D03*
X0093325Y0069231D03*
X0093325Y0069281D03*
X0093325Y0069331D03*
D222*
X0092725Y0069181D03*
X0092725Y0067881D03*
X0092725Y0065281D03*
X0093975Y0065281D03*
X0095175Y0067831D03*
X0096275Y0069231D03*
X0095725Y0069781D03*
X0097525Y0069181D03*
X0100925Y0067831D03*
X0102225Y0067831D03*
X0102925Y0065331D03*
X0102175Y0063831D03*
X0102175Y0063781D03*
X0103675Y0063831D03*
X0103875Y0067281D03*
X0105725Y0067881D03*
X0106325Y0065331D03*
X0109425Y0065331D03*
X0110575Y0067281D03*
X0109925Y0067881D03*
X0109925Y0069181D03*
X0110575Y0069781D03*
X0112625Y0069781D03*
X0108225Y0069181D03*
X0100525Y0065281D03*
X0090925Y0067281D03*
X0090925Y0069781D03*
X0096225Y0086231D03*
X0107325Y0086231D03*
D223*
X0107200Y0085731D03*
X0096350Y0085731D03*
X0101500Y0067631D03*
X0105700Y0063881D03*
X0106350Y0067831D03*
X0112600Y0068281D03*
X0112600Y0068331D03*
X0112600Y0068381D03*
X0112600Y0068431D03*
X0112600Y0068481D03*
X0112600Y0068531D03*
X0112600Y0068581D03*
X0112600Y0068631D03*
X0112600Y0068681D03*
X0112600Y0068731D03*
X0112600Y0068781D03*
X0095700Y0064381D03*
X0095700Y0063881D03*
X0095700Y0063831D03*
D224*
X0097600Y0065281D03*
X0098350Y0065831D03*
X0099750Y0065831D03*
X0102150Y0063931D03*
X0102150Y0063881D03*
X0103650Y0063881D03*
X0103650Y0063931D03*
X0102900Y0065231D03*
X0102900Y0065281D03*
X0102200Y0068231D03*
X0103900Y0069781D03*
X0106950Y0067881D03*
X0108350Y0065831D03*
X0107600Y0065281D03*
X0110500Y0065331D03*
X0112100Y0067831D03*
X0112700Y0067281D03*
X0107350Y0071931D03*
X0096200Y0071931D03*
X0093500Y0065831D03*
D225*
X0096175Y0071731D03*
X0098975Y0072581D03*
X0102175Y0069181D03*
X0099725Y0065931D03*
X0098375Y0065931D03*
X0104575Y0072581D03*
X0107375Y0071731D03*
X0106175Y0067231D03*
X0108375Y0065931D03*
X0110525Y0063981D03*
X0113225Y0067881D03*
D226*
X0113250Y0067931D03*
X0110550Y0064031D03*
X0105200Y0065281D03*
X0107400Y0071681D03*
X0104550Y0072531D03*
X0099000Y0072531D03*
X0096150Y0071681D03*
X0096300Y0067931D03*
X0095200Y0065281D03*
D227*
X0095200Y0065231D03*
X0096300Y0067981D03*
X0102200Y0069081D03*
X0105200Y0065231D03*
X0109150Y0069181D03*
X0113250Y0067981D03*
X0110550Y0064081D03*
D228*
X0108375Y0065781D03*
X0107325Y0071981D03*
X0102925Y0065031D03*
X0103675Y0064131D03*
X0102175Y0064131D03*
X0098375Y0065781D03*
X0095675Y0065881D03*
X0096225Y0071981D03*
X0090925Y0067331D03*
X0112625Y0069731D03*
D229*
X0113250Y0068031D03*
X0110550Y0064131D03*
X0108550Y0065231D03*
X0105200Y0065181D03*
X0109150Y0069131D03*
X0107400Y0071631D03*
X0096150Y0071631D03*
X0096300Y0068031D03*
X0095200Y0065181D03*
D230*
X0095700Y0069731D03*
X0098750Y0072881D03*
X0103900Y0069731D03*
X0103900Y0067331D03*
X0102900Y0064981D03*
X0102900Y0064931D03*
X0103650Y0064231D03*
X0103650Y0064181D03*
X0102150Y0064181D03*
X0102150Y0064231D03*
X0104800Y0072881D03*
X0110600Y0067331D03*
X0107300Y0086131D03*
X0096250Y0086131D03*
X0090900Y0069731D03*
D231*
X0095775Y0067331D03*
X0096225Y0072031D03*
X0102175Y0064281D03*
X0102925Y0064881D03*
X0103675Y0064331D03*
X0103675Y0064281D03*
X0107325Y0072031D03*
X0110575Y0069731D03*
D232*
X0109950Y0064881D03*
X0109950Y0064831D03*
X0109950Y0064781D03*
X0109950Y0064731D03*
X0109950Y0064681D03*
X0109950Y0064631D03*
X0109950Y0064581D03*
X0109950Y0064531D03*
X0109950Y0064481D03*
X0109950Y0064431D03*
X0109950Y0064381D03*
X0101500Y0067731D03*
X0095700Y0068381D03*
X0095700Y0068431D03*
X0095700Y0068481D03*
X0095700Y0068531D03*
X0095700Y0068581D03*
X0095700Y0068631D03*
X0095700Y0068681D03*
X0096350Y0085681D03*
X0107200Y0085681D03*
D233*
X0107275Y0086081D03*
X0096275Y0086081D03*
X0101575Y0069731D03*
X0103875Y0069681D03*
X0103875Y0067381D03*
X0105725Y0065831D03*
X0103675Y0064431D03*
X0110575Y0067381D03*
X0110575Y0069681D03*
X0095675Y0065831D03*
X0090925Y0067381D03*
X0090925Y0069681D03*
D234*
X0098525Y0065231D03*
X0100825Y0068081D03*
X0099025Y0072481D03*
X0104525Y0072481D03*
X0111125Y0069031D03*
X0111125Y0068031D03*
D235*
X0111125Y0067981D03*
X0111125Y0069081D03*
X0108525Y0065281D03*
X0100825Y0068031D03*
X0098525Y0065281D03*
X0096175Y0086481D03*
X0107375Y0086481D03*
D236*
X0107350Y0086381D03*
X0096200Y0086381D03*
X0095700Y0069831D03*
X0096300Y0067881D03*
X0095200Y0065331D03*
X0093500Y0067231D03*
X0093500Y0069831D03*
X0098300Y0069831D03*
X0100850Y0067931D03*
X0102900Y0065881D03*
X0102900Y0065831D03*
X0109950Y0065931D03*
X0111100Y0069181D03*
X0109000Y0069831D03*
D237*
X0108575Y0069281D03*
X0107275Y0072181D03*
X0110575Y0069581D03*
X0110575Y0067481D03*
X0109975Y0065631D03*
X0107925Y0065331D03*
X0105725Y0065731D03*
X0101825Y0068331D03*
X0101375Y0068781D03*
X0097925Y0065331D03*
X0095775Y0067481D03*
X0095725Y0069531D03*
X0096275Y0072181D03*
X0112625Y0069531D03*
D238*
X0112700Y0067481D03*
X0109950Y0065581D03*
X0107950Y0065381D03*
X0108600Y0069331D03*
X0103900Y0069531D03*
X0103900Y0067531D03*
X0101550Y0067431D03*
X0101600Y0069631D03*
X0097950Y0065431D03*
X0097950Y0065381D03*
X0095700Y0065731D03*
X0090900Y0067531D03*
X0090900Y0069531D03*
X0096300Y0085931D03*
X0107250Y0085931D03*
D239*
X0107250Y0085881D03*
X0096300Y0085881D03*
X0103900Y0069481D03*
X0103900Y0067581D03*
X0101700Y0068431D03*
X0101500Y0068681D03*
X0098000Y0065531D03*
X0095700Y0065681D03*
X0095800Y0067531D03*
X0108000Y0065531D03*
X0109950Y0065531D03*
X0108650Y0069481D03*
X0112650Y0069431D03*
X0112700Y0067531D03*
D240*
X0109950Y0065681D03*
X0105700Y0065781D03*
X0103900Y0067431D03*
X0103900Y0069631D03*
X0107300Y0072131D03*
X0096250Y0072131D03*
X0095700Y0065781D03*
D241*
X0096250Y0072081D03*
X0101250Y0068831D03*
X0101550Y0067331D03*
X0107300Y0072081D03*
X0109950Y0065731D03*
X0112700Y0067381D03*
D242*
X0111100Y0067931D03*
X0111100Y0069131D03*
X0093500Y0065931D03*
D243*
X0095775Y0067431D03*
X0090925Y0067481D03*
X0101575Y0067381D03*
X0101625Y0069681D03*
X0110575Y0069631D03*
X0110575Y0067431D03*
X0107275Y0085981D03*
X0096275Y0085981D03*
D244*
X0096325Y0072431D03*
X0095725Y0068781D03*
X0095725Y0068731D03*
X0095725Y0068331D03*
X0095725Y0068281D03*
X0101475Y0067681D03*
X0101525Y0067781D03*
X0107225Y0072431D03*
D245*
X0102175Y0069131D03*
X0100825Y0067981D03*
X0096175Y0086431D03*
X0107375Y0086431D03*
D246*
X0111125Y0068981D03*
X0111125Y0068081D03*
X0102225Y0069031D03*
X0100825Y0068131D03*
D247*
X0096325Y0072481D03*
X0107225Y0072481D03*
D248*
X0107200Y0072531D03*
X0096350Y0072531D03*
D249*
X0096350Y0072581D03*
X0107200Y0072581D03*
D250*
X0107175Y0072631D03*
X0101775Y0088281D03*
X0096375Y0072631D03*
D251*
X0096375Y0072681D03*
X0101775Y0087981D03*
X0101775Y0088031D03*
X0101775Y0088081D03*
X0101775Y0088131D03*
X0101775Y0088181D03*
X0101775Y0088231D03*
X0107175Y0072681D03*
D252*
X0107150Y0072731D03*
X0096400Y0072731D03*
D253*
X0096400Y0072781D03*
X0107150Y0072781D03*
D254*
X0107125Y0072831D03*
X0096425Y0072831D03*
X0101775Y0086931D03*
X0101775Y0086981D03*
X0101775Y0087031D03*
X0101775Y0087081D03*
X0101775Y0087131D03*
D255*
X0101775Y0086881D03*
X0101775Y0086831D03*
X0101775Y0086781D03*
X0101775Y0086731D03*
X0101775Y0086681D03*
X0096425Y0072881D03*
X0107125Y0072881D03*
D256*
X0106500Y0072931D03*
X0097050Y0072931D03*
D257*
X0097025Y0072981D03*
X0106525Y0072981D03*
D258*
X0106525Y0073031D03*
X0105575Y0075381D03*
X0097975Y0075381D03*
X0097025Y0073031D03*
X0101775Y0085581D03*
D259*
X0098000Y0075531D03*
X0098000Y0075481D03*
X0098000Y0075431D03*
X0097950Y0075331D03*
X0097900Y0075281D03*
X0097900Y0075231D03*
X0097000Y0073081D03*
X0105550Y0075431D03*
X0105550Y0075481D03*
X0105550Y0075531D03*
X0105600Y0075331D03*
X0105650Y0075281D03*
X0105650Y0075231D03*
X0105700Y0075181D03*
X0106550Y0073081D03*
D260*
X0106550Y0073131D03*
X0105900Y0074781D03*
X0105850Y0074881D03*
X0105800Y0074981D03*
X0105550Y0075631D03*
X0098000Y0075631D03*
X0097750Y0074981D03*
X0097700Y0074881D03*
X0097650Y0074781D03*
X0097000Y0073131D03*
D261*
X0096975Y0073181D03*
X0097575Y0074631D03*
X0097575Y0074681D03*
X0097625Y0074731D03*
X0097675Y0074831D03*
X0098025Y0075681D03*
X0098025Y0075731D03*
X0105525Y0075731D03*
X0105525Y0075681D03*
X0105875Y0074831D03*
X0105925Y0074731D03*
X0105975Y0074681D03*
X0105975Y0074631D03*
X0106575Y0073181D03*
D262*
X0106600Y0073231D03*
X0106100Y0074431D03*
X0106050Y0074531D03*
X0106000Y0074581D03*
X0105550Y0075781D03*
X0098000Y0075781D03*
X0097550Y0074581D03*
X0097500Y0074531D03*
X0097450Y0074431D03*
X0096950Y0073231D03*
D263*
X0096950Y0073281D03*
X0097250Y0074081D03*
X0097300Y0074131D03*
X0097300Y0074181D03*
X0097350Y0074231D03*
X0098000Y0075881D03*
X0097450Y0077281D03*
X0097500Y0080881D03*
X0097550Y0080931D03*
X0106000Y0080931D03*
X0106050Y0080881D03*
X0106100Y0077281D03*
X0105550Y0075881D03*
X0106200Y0074231D03*
X0106250Y0074181D03*
X0106250Y0074131D03*
X0106300Y0074081D03*
X0106600Y0073281D03*
D264*
X0106625Y0073331D03*
X0106425Y0073831D03*
X0106375Y0073931D03*
X0106325Y0073981D03*
X0106325Y0074031D03*
X0105525Y0075931D03*
X0105525Y0075981D03*
X0106025Y0077181D03*
X0106075Y0077231D03*
X0105975Y0080981D03*
X0098025Y0075981D03*
X0098025Y0075931D03*
X0097525Y0077181D03*
X0097475Y0077231D03*
X0097225Y0074031D03*
X0097225Y0073981D03*
X0097175Y0073931D03*
X0097125Y0073831D03*
X0096925Y0073331D03*
X0097575Y0080981D03*
D265*
X0097350Y0077331D03*
X0097150Y0073881D03*
X0097100Y0073781D03*
X0097050Y0073731D03*
X0097050Y0073681D03*
X0096950Y0073381D03*
X0106200Y0077331D03*
X0106400Y0073881D03*
X0106450Y0073781D03*
X0106500Y0073731D03*
X0106500Y0073681D03*
X0106600Y0073381D03*
D266*
X0106625Y0073431D03*
X0106625Y0073481D03*
X0106575Y0073531D03*
X0106575Y0073581D03*
X0106525Y0073631D03*
X0105525Y0076031D03*
X0105525Y0076081D03*
X0105925Y0077081D03*
X0105975Y0077131D03*
X0106175Y0080831D03*
X0105925Y0081031D03*
X0105875Y0081081D03*
X0101775Y0085481D03*
X0097675Y0081081D03*
X0097625Y0081031D03*
X0097375Y0080831D03*
X0097575Y0077131D03*
X0097625Y0077081D03*
X0098025Y0076081D03*
X0098025Y0076031D03*
X0097025Y0073631D03*
X0096975Y0073581D03*
X0096975Y0073531D03*
X0096925Y0073481D03*
X0096925Y0073431D03*
D267*
X0097375Y0074281D03*
X0097375Y0074331D03*
X0097425Y0074381D03*
X0097475Y0074481D03*
X0098025Y0075831D03*
X0105525Y0075831D03*
X0106075Y0074481D03*
X0106125Y0074381D03*
X0106175Y0074331D03*
X0106175Y0074281D03*
X0101775Y0085531D03*
D268*
X0098025Y0075581D03*
X0097875Y0075181D03*
X0097825Y0075131D03*
X0097825Y0075081D03*
X0097775Y0075031D03*
X0097725Y0074931D03*
X0105525Y0075581D03*
X0105725Y0075131D03*
X0105725Y0075081D03*
X0105775Y0075031D03*
X0105825Y0074931D03*
D269*
X0105550Y0076131D03*
X0105900Y0077031D03*
X0105850Y0081131D03*
X0097700Y0081131D03*
X0097650Y0077031D03*
X0098000Y0076131D03*
D270*
X0098025Y0076181D03*
X0098025Y0076231D03*
X0097725Y0076981D03*
X0097775Y0081181D03*
X0105775Y0081181D03*
X0105825Y0076981D03*
X0105525Y0076231D03*
X0105525Y0076181D03*
D271*
X0105525Y0076281D03*
X0105525Y0076331D03*
X0105775Y0076881D03*
X0106325Y0080781D03*
X0105725Y0081231D03*
X0105675Y0081281D03*
X0097875Y0081281D03*
X0097825Y0081231D03*
X0097225Y0080781D03*
X0097775Y0076881D03*
X0098025Y0076331D03*
X0098025Y0076281D03*
D272*
X0098000Y0076381D03*
X0097850Y0076831D03*
X0105550Y0076381D03*
X0105700Y0076831D03*
D273*
X0105675Y0076781D03*
X0105525Y0076481D03*
X0105525Y0076431D03*
X0105625Y0081331D03*
X0101775Y0085431D03*
X0097925Y0081331D03*
X0097875Y0076781D03*
X0098025Y0076481D03*
X0098025Y0076431D03*
D274*
X0098025Y0076531D03*
X0098025Y0076581D03*
X0097975Y0076631D03*
X0097975Y0076681D03*
X0097075Y0080731D03*
X0097975Y0081381D03*
X0105575Y0081381D03*
X0106475Y0080731D03*
X0106525Y0077431D03*
X0105575Y0076681D03*
X0105575Y0076631D03*
X0105525Y0076581D03*
X0105525Y0076531D03*
D275*
X0105600Y0076731D03*
X0097950Y0076731D03*
D276*
X0097750Y0076931D03*
X0097200Y0077381D03*
X0105800Y0076931D03*
X0106350Y0077381D03*
D277*
X0097050Y0077431D03*
D278*
X0096900Y0077481D03*
X0096900Y0080681D03*
X0098150Y0081481D03*
X0105400Y0081481D03*
X0106650Y0080681D03*
X0106650Y0077481D03*
D279*
X0106825Y0077531D03*
X0106775Y0080631D03*
X0096775Y0080631D03*
X0096725Y0077531D03*
D280*
X0096575Y0077581D03*
X0096625Y0080581D03*
X0106925Y0080581D03*
X0106975Y0077581D03*
D281*
X0107125Y0077631D03*
X0096425Y0077631D03*
D282*
X0096275Y0077681D03*
X0095875Y0078581D03*
X0095875Y0078631D03*
X0095875Y0078681D03*
X0095875Y0078731D03*
X0095875Y0078781D03*
X0095875Y0078831D03*
X0095875Y0078881D03*
X0095875Y0079331D03*
X0095875Y0079381D03*
X0095875Y0079431D03*
X0095875Y0079481D03*
X0095875Y0079531D03*
X0095875Y0079581D03*
X0107275Y0077681D03*
X0107675Y0078581D03*
X0107675Y0078631D03*
X0107675Y0078681D03*
X0107675Y0078731D03*
X0107675Y0078781D03*
X0107675Y0078831D03*
X0107675Y0078881D03*
X0107675Y0079331D03*
X0107675Y0079381D03*
X0107675Y0079431D03*
X0107675Y0079481D03*
X0107675Y0079531D03*
X0107675Y0079581D03*
D283*
X0107575Y0080081D03*
X0107575Y0080131D03*
X0107575Y0078031D03*
X0107575Y0077981D03*
X0107525Y0077881D03*
X0107475Y0077781D03*
X0107425Y0077731D03*
X0096125Y0077731D03*
X0096075Y0077781D03*
X0096025Y0077881D03*
X0095975Y0077981D03*
X0095975Y0078031D03*
X0095975Y0080081D03*
X0095975Y0080131D03*
D284*
X0096000Y0080181D03*
X0096000Y0080231D03*
X0096050Y0080281D03*
X0096050Y0080331D03*
X0096100Y0080381D03*
X0096000Y0077931D03*
X0096050Y0077831D03*
X0107500Y0077831D03*
X0107550Y0077931D03*
X0107550Y0080181D03*
X0107550Y0080231D03*
X0107500Y0080281D03*
X0107500Y0080331D03*
X0107450Y0080381D03*
D285*
X0107400Y0080431D03*
X0107600Y0080031D03*
X0107600Y0079981D03*
X0107600Y0078181D03*
X0107600Y0078131D03*
X0107600Y0078081D03*
X0095950Y0078081D03*
X0095950Y0078131D03*
X0095950Y0078181D03*
X0095950Y0079981D03*
X0095950Y0080031D03*
X0096150Y0080431D03*
D286*
X0095925Y0079931D03*
X0095925Y0079881D03*
X0095925Y0079831D03*
X0095925Y0078331D03*
X0095925Y0078281D03*
X0095925Y0078231D03*
X0107625Y0078231D03*
X0107625Y0078281D03*
X0107625Y0078331D03*
X0107625Y0079831D03*
X0107625Y0079881D03*
X0107625Y0079931D03*
D287*
X0107650Y0079781D03*
X0107650Y0079731D03*
X0107650Y0079681D03*
X0107650Y0079631D03*
X0107650Y0078531D03*
X0107650Y0078481D03*
X0107650Y0078431D03*
X0107650Y0078381D03*
X0095900Y0078381D03*
X0095900Y0078431D03*
X0095900Y0078481D03*
X0095900Y0078531D03*
X0095900Y0079631D03*
X0095900Y0079681D03*
X0095900Y0079731D03*
X0095900Y0079781D03*
D288*
X0095850Y0079281D03*
X0095850Y0079231D03*
X0095850Y0079181D03*
X0095850Y0079131D03*
X0095850Y0079081D03*
X0095850Y0079031D03*
X0095850Y0078981D03*
X0095850Y0078931D03*
X0096300Y0080481D03*
X0107250Y0080481D03*
X0107700Y0079281D03*
X0107700Y0079231D03*
X0107700Y0079181D03*
X0107700Y0079131D03*
X0107700Y0079081D03*
X0107700Y0079031D03*
X0107700Y0078981D03*
X0107700Y0078931D03*
D289*
X0107100Y0080531D03*
X0096450Y0080531D03*
D290*
X0098075Y0081431D03*
X0101775Y0085381D03*
X0105475Y0081431D03*
D291*
X0105275Y0081531D03*
X0098275Y0081531D03*
D292*
X0101775Y0081581D03*
X0101775Y0083281D03*
D293*
X0101775Y0083231D03*
X0101775Y0083181D03*
X0101775Y0081681D03*
X0101775Y0081631D03*
D294*
X0101775Y0081731D03*
X0101775Y0081781D03*
X0101775Y0081831D03*
X0101775Y0083131D03*
D295*
X0101775Y0083081D03*
X0101775Y0083031D03*
X0101775Y0081931D03*
X0101775Y0081881D03*
D296*
X0101775Y0081981D03*
X0101775Y0082031D03*
X0101775Y0082981D03*
D297*
X0101775Y0082931D03*
X0101775Y0082881D03*
X0101775Y0082181D03*
X0101775Y0082131D03*
X0101775Y0082081D03*
D298*
X0101775Y0082231D03*
X0101775Y0082281D03*
X0101775Y0082831D03*
D299*
X0101775Y0082781D03*
X0101775Y0082731D03*
X0101775Y0082381D03*
X0101775Y0082331D03*
D300*
X0101775Y0082431D03*
X0101775Y0082481D03*
X0101775Y0082531D03*
X0101775Y0082681D03*
D301*
X0101775Y0082631D03*
X0101775Y0082581D03*
D302*
X0101775Y0083331D03*
X0101775Y0083381D03*
D303*
X0101775Y0083431D03*
D304*
X0101775Y0083481D03*
D305*
X0101775Y0083531D03*
X0101775Y0083581D03*
D306*
X0101775Y0083631D03*
D307*
X0101775Y0083681D03*
X0101775Y0083731D03*
D308*
X0101775Y0083781D03*
D309*
X0101775Y0083831D03*
X0101775Y0083881D03*
D310*
X0101775Y0083931D03*
D311*
X0101775Y0083981D03*
X0101775Y0084031D03*
D312*
X0101775Y0084081D03*
X0101775Y0085131D03*
D313*
X0101775Y0085081D03*
X0101775Y0084181D03*
X0101775Y0084131D03*
D314*
X0101775Y0084231D03*
X0101775Y0085031D03*
D315*
X0101775Y0084981D03*
X0101775Y0084281D03*
D316*
X0101775Y0084331D03*
X0101775Y0084381D03*
X0101775Y0084931D03*
D317*
X0101775Y0084881D03*
X0101775Y0084431D03*
D318*
X0101775Y0084481D03*
X0101775Y0084531D03*
X0101775Y0084831D03*
D319*
X0101775Y0084781D03*
X0101775Y0084731D03*
X0101775Y0084631D03*
X0101775Y0084581D03*
D320*
X0101775Y0084681D03*
D321*
X0101775Y0086131D03*
X0101775Y0086181D03*
X0101775Y0086231D03*
X0101775Y0086281D03*
X0101775Y0086331D03*
X0096475Y0085181D03*
X0107075Y0085181D03*
D322*
X0101775Y0085181D03*
D323*
X0096450Y0085231D03*
X0107100Y0085231D03*
D324*
X0101775Y0085231D03*
D325*
X0096450Y0085281D03*
X0107100Y0085281D03*
D326*
X0101775Y0085281D03*
D327*
X0101775Y0087181D03*
X0101775Y0087231D03*
X0101775Y0087281D03*
X0101775Y0087331D03*
X0101775Y0087381D03*
X0101775Y0087431D03*
X0096425Y0085331D03*
X0107125Y0085331D03*
D328*
X0101775Y0085331D03*
D329*
X0101775Y0087481D03*
X0101775Y0087531D03*
X0101775Y0087581D03*
X0101775Y0087631D03*
X0101775Y0087681D03*
X0096425Y0085381D03*
X0107125Y0085381D03*
D330*
X0101775Y0087731D03*
X0101775Y0087781D03*
X0101775Y0087831D03*
X0101775Y0087881D03*
X0101775Y0087931D03*
X0096425Y0085431D03*
D331*
X0107150Y0085431D03*
D332*
X0107150Y0085481D03*
X0096400Y0085481D03*
D333*
X0096400Y0085531D03*
X0107150Y0085531D03*
D334*
X0107175Y0085581D03*
X0096375Y0085581D03*
D335*
X0096375Y0085631D03*
X0107175Y0085631D03*
D336*
X0101775Y0085631D03*
D337*
X0101775Y0085681D03*
D338*
X0101775Y0085731D03*
D339*
X0101775Y0085781D03*
D340*
X0101775Y0085831D03*
D341*
X0101775Y0085881D03*
X0101775Y0085931D03*
X0101775Y0085981D03*
X0101775Y0086031D03*
X0101775Y0086081D03*
D342*
X0101775Y0086381D03*
X0101775Y0086431D03*
X0101775Y0086481D03*
X0101775Y0086531D03*
X0101775Y0086581D03*
X0101775Y0086631D03*
M02*
