G75*
%MOIN*%
%OFA0B0*%
%FSLAX25Y25*%
%IPPOS*%
%LPD*%
%AMOC8*
5,1,8,0,0,1.08239X$1,22.5*
%
%ADD10C,0.01600*%
%ADD11OC8,0.06600*%
%ADD12R,0.01969X0.03937*%
%ADD13C,0.07050*%
%ADD14R,0.04331X0.03937*%
%ADD15C,0.06600*%
%ADD16R,0.10236X0.06299*%
%ADD17C,0.01000*%
%ADD18C,0.04000*%
D10*
X0027000Y0006800D02*
X0287000Y0006800D01*
X0287000Y0016800D01*
X0297000Y0026800D01*
X0297000Y0156800D01*
X0287000Y0166800D01*
X0287000Y0211800D01*
X0282000Y0216800D01*
X0027000Y0216800D01*
X0027000Y0006800D01*
D11*
X0157000Y0016800D03*
X0167000Y0016800D03*
X0177000Y0016800D03*
X0187000Y0016800D03*
X0197000Y0016800D03*
X0207000Y0016800D03*
X0227000Y0016800D03*
X0237000Y0016800D03*
X0247000Y0016800D03*
X0257000Y0016800D03*
X0267000Y0016800D03*
X0277000Y0016800D03*
X0277000Y0206800D03*
X0267000Y0206800D03*
X0257000Y0206800D03*
X0247000Y0206800D03*
X0237000Y0206800D03*
X0227000Y0206800D03*
X0217000Y0206800D03*
X0207000Y0206800D03*
X0191000Y0206800D03*
X0181000Y0206800D03*
X0171000Y0206800D03*
X0161000Y0206800D03*
X0151000Y0206800D03*
X0141000Y0206800D03*
X0131000Y0206800D03*
X0121000Y0206800D03*
D12*
X0177984Y0164162D03*
X0182000Y0164162D03*
X0186016Y0164162D03*
X0190031Y0164162D03*
X0209953Y0164162D03*
X0213969Y0164162D03*
X0217984Y0164162D03*
X0222000Y0164162D03*
X0222000Y0129438D03*
X0217984Y0129438D03*
X0213969Y0129438D03*
X0209953Y0129438D03*
X0190031Y0129438D03*
X0186016Y0129438D03*
X0182000Y0129438D03*
X0177984Y0129438D03*
X0152000Y0127438D03*
X0147984Y0127438D03*
X0143969Y0127438D03*
X0139953Y0127438D03*
X0120031Y0127438D03*
X0116016Y0127438D03*
X0112000Y0127438D03*
X0107984Y0127438D03*
X0107984Y0094162D03*
X0112000Y0094162D03*
X0116016Y0094162D03*
X0120031Y0094162D03*
X0139953Y0094162D03*
X0143969Y0094162D03*
X0147984Y0094162D03*
X0152000Y0094162D03*
X0177984Y0094162D03*
X0182000Y0094162D03*
X0186016Y0094162D03*
X0190031Y0094162D03*
X0209953Y0094162D03*
X0213969Y0094162D03*
X0217984Y0094162D03*
X0222000Y0094162D03*
X0222000Y0059438D03*
X0217984Y0059438D03*
X0213969Y0059438D03*
X0209953Y0059438D03*
X0190031Y0059438D03*
X0186016Y0059438D03*
X0182000Y0059438D03*
X0177984Y0059438D03*
X0152000Y0059438D03*
X0147984Y0059438D03*
X0143969Y0059438D03*
X0139953Y0059438D03*
X0120031Y0059438D03*
X0116016Y0059438D03*
X0112000Y0059438D03*
X0107984Y0059438D03*
X0107984Y0162162D03*
X0112000Y0162162D03*
X0116016Y0162162D03*
X0120031Y0162162D03*
X0139953Y0162162D03*
X0143969Y0162162D03*
X0147984Y0162162D03*
X0152000Y0162162D03*
D13*
X0050525Y0106643D02*
X0043475Y0106643D01*
X0043475Y0086957D02*
X0050525Y0086957D01*
X0263475Y0081957D02*
X0270525Y0081957D01*
X0270525Y0101643D02*
X0263475Y0101643D01*
X0263475Y0121957D02*
X0270525Y0121957D01*
X0270525Y0141643D02*
X0263475Y0141643D01*
X0263475Y0161957D02*
X0270525Y0161957D01*
X0270525Y0181643D02*
X0263475Y0181643D01*
X0263475Y0061643D02*
X0270525Y0061643D01*
X0270525Y0041957D02*
X0263475Y0041957D01*
D14*
X0113346Y0179800D03*
X0106654Y0179800D03*
D15*
X0093000Y0042800D03*
X0093000Y0022800D03*
X0133000Y0022800D03*
X0133000Y0042800D03*
D16*
X0094087Y0061800D03*
X0079913Y0061800D03*
D17*
X0079200Y0062600D01*
X0072000Y0062600D01*
X0047700Y0086900D01*
X0047000Y0086957D01*
X0047700Y0105800D02*
X0047000Y0106643D01*
X0047700Y0105800D02*
X0087300Y0066200D01*
X0087300Y0048200D01*
X0092700Y0042800D01*
X0093000Y0042800D01*
X0093600Y0042800D01*
X0113400Y0023000D01*
X0132300Y0023000D01*
X0133000Y0022800D01*
X0137700Y0024800D02*
X0137700Y0020300D01*
X0135000Y0017600D01*
X0116100Y0017600D01*
X0111600Y0022100D01*
X0093600Y0022100D01*
X0093000Y0022800D01*
X0116100Y0058100D02*
X0131400Y0042800D01*
X0133000Y0042800D01*
X0140400Y0053600D02*
X0154800Y0053600D01*
X0171900Y0070700D01*
X0173700Y0074300D02*
X0150300Y0074300D01*
X0148500Y0076100D01*
X0148500Y0090500D01*
X0153900Y0090500D01*
X0154800Y0091400D01*
X0154800Y0103100D01*
X0149400Y0108500D01*
X0149400Y0123800D01*
X0151200Y0125600D01*
X0151200Y0127400D01*
X0152000Y0127438D01*
X0148500Y0128300D02*
X0147984Y0127438D01*
X0148500Y0128300D02*
X0148500Y0150800D01*
X0190800Y0193100D01*
X0190800Y0206600D01*
X0191000Y0206800D01*
X0181000Y0206800D02*
X0180900Y0206600D01*
X0180900Y0185900D01*
X0140400Y0145400D01*
X0140400Y0128300D01*
X0139953Y0127438D01*
X0141300Y0123800D02*
X0138600Y0123800D01*
X0133200Y0129200D01*
X0133200Y0147200D01*
X0139500Y0153500D01*
X0139500Y0161600D01*
X0139953Y0162162D01*
X0140400Y0162500D01*
X0140400Y0163400D01*
X0143100Y0166100D01*
X0144900Y0166100D01*
X0148500Y0162500D01*
X0147984Y0162162D01*
X0143969Y0162162D02*
X0143100Y0161600D01*
X0143100Y0154400D01*
X0136800Y0148100D01*
X0136800Y0131900D01*
X0143969Y0127438D02*
X0144000Y0126500D01*
X0141300Y0123800D01*
X0144000Y0126500D02*
X0146700Y0123800D01*
X0149400Y0123800D01*
X0144000Y0126500D02*
X0144000Y0127400D01*
X0143969Y0127438D01*
X0131400Y0123800D02*
X0131400Y0175100D01*
X0140400Y0184100D01*
X0140400Y0206600D01*
X0141000Y0206800D01*
X0150300Y0206600D02*
X0151000Y0206800D01*
X0150300Y0206600D02*
X0150300Y0191300D01*
X0135000Y0176000D01*
X0135000Y0158900D01*
X0126000Y0162500D02*
X0120600Y0162500D01*
X0120031Y0162162D01*
X0116016Y0162162D02*
X0115200Y0162500D01*
X0115200Y0164300D01*
X0113400Y0166100D01*
X0113400Y0179600D01*
X0113346Y0179800D01*
X0111600Y0175100D02*
X0107100Y0179600D01*
X0106654Y0179800D01*
X0111600Y0175100D02*
X0111600Y0166100D01*
X0107100Y0166100D01*
X0105300Y0164300D01*
X0105300Y0135500D01*
X0108900Y0135500D01*
X0105300Y0135500D02*
X0105300Y0091400D01*
X0106200Y0090500D01*
X0111600Y0090500D01*
X0111600Y0094100D01*
X0112000Y0094162D01*
X0112500Y0097700D02*
X0110700Y0097700D01*
X0108000Y0095000D01*
X0107984Y0094162D01*
X0111600Y0090500D02*
X0111600Y0079700D01*
X0097200Y0065300D01*
X0137700Y0024800D01*
X0171900Y0018500D02*
X0171900Y0014900D01*
X0174600Y0012200D01*
X0215100Y0012200D01*
X0239400Y0036500D01*
X0272700Y0036500D01*
X0282600Y0046400D01*
X0282600Y0141800D01*
X0275400Y0143600D02*
X0275400Y0139100D01*
X0272700Y0136400D01*
X0268200Y0136400D01*
X0255600Y0123800D01*
X0214200Y0123800D01*
X0210600Y0127400D01*
X0210600Y0129200D01*
X0209953Y0129438D01*
X0205200Y0129200D02*
X0212400Y0122000D01*
X0256500Y0122000D01*
X0261900Y0127400D01*
X0272700Y0127400D01*
X0275400Y0124700D01*
X0275400Y0110300D01*
X0267300Y0102200D01*
X0267000Y0101643D01*
X0251100Y0097700D02*
X0266400Y0082400D01*
X0267000Y0081957D01*
X0272700Y0077000D02*
X0261000Y0077000D01*
X0243900Y0094100D01*
X0222300Y0094100D01*
X0222000Y0094162D01*
X0218700Y0094100D02*
X0217984Y0094162D01*
X0218700Y0094100D02*
X0215100Y0090500D01*
X0212400Y0090500D01*
X0210600Y0092300D01*
X0210600Y0094100D01*
X0209953Y0094162D01*
X0209700Y0095000D01*
X0207000Y0097700D01*
X0188100Y0097700D01*
X0186300Y0095900D01*
X0186300Y0095000D01*
X0186016Y0094162D01*
X0185400Y0094100D01*
X0185400Y0092300D01*
X0184500Y0091400D01*
X0214200Y0061700D01*
X0215100Y0061700D01*
X0214200Y0060800D01*
X0214200Y0059900D01*
X0213969Y0059438D01*
X0213300Y0059000D01*
X0213300Y0057200D01*
X0211500Y0055400D01*
X0207000Y0055400D01*
X0198900Y0063500D01*
X0189000Y0063500D01*
X0186300Y0060800D01*
X0186300Y0059900D01*
X0186016Y0059438D01*
X0186300Y0059000D01*
X0186300Y0017600D01*
X0187000Y0016800D01*
X0177000Y0016800D02*
X0176400Y0017600D01*
X0176400Y0055400D01*
X0171900Y0059900D01*
X0171900Y0065300D01*
X0177300Y0070700D02*
X0173700Y0074300D01*
X0177300Y0070700D02*
X0177300Y0059900D01*
X0177984Y0059438D01*
X0178200Y0059900D01*
X0181800Y0059900D01*
X0182000Y0059438D01*
X0182700Y0059900D01*
X0185400Y0059900D01*
X0186016Y0059438D01*
X0190031Y0059438D02*
X0190800Y0059000D01*
X0200700Y0059000D01*
X0216900Y0042800D01*
X0266400Y0042800D01*
X0267000Y0041957D01*
X0271800Y0055400D02*
X0279000Y0062600D01*
X0279000Y0185000D01*
X0257400Y0206600D01*
X0257000Y0206800D01*
X0237600Y0206600D02*
X0237600Y0200300D01*
X0261900Y0176000D01*
X0263700Y0176000D01*
X0277200Y0162500D01*
X0277200Y0081500D01*
X0272700Y0077000D01*
X0267000Y0061643D02*
X0266400Y0061700D01*
X0237600Y0061700D01*
X0205200Y0094100D01*
X0190800Y0094100D01*
X0190031Y0094162D01*
X0184500Y0091400D02*
X0183600Y0090500D01*
X0180000Y0090500D01*
X0178200Y0092300D01*
X0178200Y0094100D01*
X0177984Y0094162D01*
X0177300Y0095000D01*
X0172800Y0095000D01*
X0166500Y0101300D01*
X0166500Y0104900D01*
X0177300Y0115700D01*
X0177300Y0129200D01*
X0177984Y0129438D01*
X0178200Y0130100D01*
X0178200Y0158900D01*
X0180000Y0160700D01*
X0183600Y0160700D01*
X0186300Y0163400D01*
X0186016Y0164162D01*
X0186300Y0164300D01*
X0186300Y0166100D01*
X0188100Y0167900D01*
X0191700Y0167900D01*
X0195300Y0164300D01*
X0209700Y0164300D01*
X0209953Y0164162D01*
X0210600Y0164300D01*
X0210600Y0166100D01*
X0212400Y0167900D01*
X0215100Y0167900D01*
X0218700Y0164300D01*
X0217984Y0164162D01*
X0218700Y0163400D01*
X0216000Y0160700D01*
X0216000Y0142700D01*
X0214200Y0140900D01*
X0214200Y0130100D01*
X0213969Y0129438D01*
X0214200Y0129200D01*
X0214200Y0128300D01*
X0216900Y0125600D01*
X0219600Y0125600D01*
X0221400Y0127400D01*
X0221400Y0129200D01*
X0222000Y0129438D01*
X0217984Y0129438D02*
X0217800Y0130100D01*
X0217800Y0154400D01*
X0226800Y0163400D01*
X0226800Y0206600D01*
X0227000Y0206800D01*
X0237000Y0206800D02*
X0237600Y0206600D01*
X0230400Y0194900D02*
X0230400Y0187700D01*
X0261000Y0157100D01*
X0261900Y0157100D01*
X0275400Y0143600D01*
X0267000Y0141643D02*
X0266400Y0141800D01*
X0255600Y0152600D01*
X0221400Y0152600D01*
X0222000Y0164162D02*
X0222300Y0164300D01*
X0222300Y0191300D01*
X0207000Y0206600D01*
X0207000Y0206800D01*
X0171000Y0206600D02*
X0171000Y0206800D01*
X0171000Y0206600D02*
X0152100Y0187700D01*
X0152100Y0162500D01*
X0152000Y0162162D01*
X0164700Y0158900D02*
X0183600Y0177800D01*
X0218700Y0177800D01*
X0213969Y0164162D02*
X0213300Y0163400D01*
X0213300Y0142700D01*
X0201600Y0131000D01*
X0201600Y0122000D01*
X0199800Y0118400D02*
X0198000Y0120200D01*
X0198000Y0126500D01*
X0185400Y0139100D01*
X0181800Y0139100D01*
X0190800Y0143600D02*
X0199800Y0134600D01*
X0190800Y0129200D02*
X0190031Y0129438D01*
X0190800Y0129200D02*
X0190800Y0124700D01*
X0217800Y0097700D01*
X0251100Y0097700D01*
X0263700Y0118400D02*
X0266400Y0121100D01*
X0267000Y0121957D01*
X0263700Y0118400D02*
X0199800Y0118400D01*
X0194400Y0114800D02*
X0194400Y0103100D01*
X0206100Y0103100D01*
X0213300Y0095900D01*
X0213300Y0095000D01*
X0213969Y0094162D01*
X0194400Y0103100D02*
X0170100Y0103100D01*
X0164700Y0100400D02*
X0164700Y0158900D01*
X0168300Y0159800D02*
X0176400Y0167900D01*
X0179100Y0167900D01*
X0182700Y0164300D01*
X0182000Y0164162D01*
X0178200Y0163400D02*
X0178200Y0162500D01*
X0180000Y0160700D01*
X0178200Y0163400D02*
X0177984Y0164162D01*
X0168300Y0159800D02*
X0168300Y0112100D01*
X0164700Y0100400D02*
X0205200Y0059900D01*
X0209700Y0059900D01*
X0209953Y0059438D01*
X0215100Y0061700D02*
X0216900Y0063500D01*
X0219600Y0063500D01*
X0221400Y0061700D01*
X0221400Y0059900D01*
X0222000Y0059438D01*
X0218700Y0059000D02*
X0218700Y0057200D01*
X0220500Y0055400D01*
X0271800Y0055400D01*
X0218700Y0059000D02*
X0217984Y0059438D01*
X0182000Y0094162D02*
X0181800Y0095000D01*
X0181800Y0098600D01*
X0180900Y0099500D01*
X0152000Y0094162D02*
X0151200Y0095000D01*
X0151200Y0104000D01*
X0131400Y0123800D01*
X0133200Y0116600D02*
X0133200Y0095900D01*
X0138600Y0090500D01*
X0141300Y0090500D01*
X0143100Y0092300D01*
X0143100Y0094100D01*
X0143969Y0094162D01*
X0140400Y0095000D02*
X0139953Y0094162D01*
X0140400Y0095000D02*
X0140400Y0095900D01*
X0142200Y0097700D01*
X0145800Y0097700D01*
X0148500Y0095000D01*
X0147984Y0094162D01*
X0148500Y0094100D01*
X0148500Y0090500D01*
X0139500Y0079700D02*
X0126000Y0093200D01*
X0126000Y0149900D01*
X0115200Y0159800D02*
X0115200Y0161600D01*
X0116016Y0162162D01*
X0115200Y0159800D02*
X0113400Y0158000D01*
X0112500Y0158000D01*
X0112500Y0128300D01*
X0112000Y0127438D01*
X0112500Y0127400D01*
X0112500Y0097700D01*
X0113400Y0097700D01*
X0116100Y0095000D01*
X0116016Y0094162D01*
X0116100Y0094100D01*
X0116100Y0059900D01*
X0116016Y0059438D01*
X0116100Y0059000D01*
X0116100Y0058100D01*
X0116016Y0059438D02*
X0115200Y0059900D01*
X0112500Y0059900D01*
X0112000Y0059438D01*
X0111600Y0059900D01*
X0108000Y0059900D01*
X0107984Y0059438D01*
X0097200Y0065300D02*
X0094500Y0062600D01*
X0094087Y0061800D01*
X0120031Y0059438D02*
X0120600Y0059000D01*
X0131400Y0059000D01*
X0171900Y0018500D01*
X0140400Y0053600D02*
X0120600Y0073400D01*
X0120600Y0094100D01*
X0120031Y0094162D01*
X0129600Y0092300D02*
X0129600Y0178700D01*
X0136800Y0185900D01*
X0111600Y0166100D02*
X0111600Y0162500D01*
X0112000Y0162162D01*
X0107984Y0162162D02*
X0108000Y0161600D01*
X0108000Y0160700D01*
X0110700Y0158000D01*
X0112500Y0158000D01*
X0122400Y0139100D02*
X0120600Y0137300D01*
X0120600Y0128300D01*
X0120031Y0127438D01*
X0116016Y0127438D02*
X0115200Y0127400D01*
X0112500Y0127400D01*
X0112000Y0127438D02*
X0111600Y0127400D01*
X0108000Y0127400D01*
X0107984Y0127438D01*
X0129600Y0092300D02*
X0147600Y0074300D01*
X0147600Y0059900D01*
X0147984Y0059438D01*
X0151200Y0059000D02*
X0151200Y0057200D01*
X0149400Y0055400D01*
X0146700Y0055400D01*
X0144000Y0058100D01*
X0144000Y0059000D01*
X0143969Y0059438D01*
X0139953Y0059438D02*
X0139500Y0059900D01*
X0139500Y0079700D01*
X0150300Y0074300D02*
X0151200Y0073400D01*
X0151200Y0059900D01*
X0152000Y0059438D01*
X0151200Y0059000D01*
X0178200Y0129200D02*
X0177984Y0129438D01*
X0178200Y0129200D02*
X0181800Y0129200D01*
X0182000Y0129438D01*
X0182700Y0129200D01*
X0185400Y0129200D01*
X0186016Y0129438D01*
X0190800Y0143600D02*
X0190800Y0163400D01*
X0190031Y0164162D01*
D18*
X0218700Y0177800D03*
X0230400Y0194900D03*
X0221400Y0152600D03*
X0199800Y0134600D03*
X0205200Y0129200D03*
X0201600Y0122000D03*
X0194400Y0114800D03*
X0180900Y0099500D03*
X0170100Y0103100D03*
X0168300Y0112100D03*
X0136800Y0131900D03*
X0122400Y0139100D03*
X0108900Y0135500D03*
X0126000Y0149900D03*
X0135000Y0158900D03*
X0126000Y0162500D03*
X0136800Y0185900D03*
X0181800Y0139100D03*
X0133200Y0116600D03*
X0171900Y0070700D03*
X0171900Y0065300D03*
X0282600Y0141800D03*
M02*
