%
M48
M72
T01C0.0240
T02C0.0394
T03C0.0470
%
T01
X18900Y8870
X22140Y9680
X22140Y10490
X21780Y11930
X19620Y15260
X21420Y15440
X22500Y6530
T02
X22700Y1500
X23700Y1500
X24700Y1500
X25700Y1500
X26700Y1500
X27700Y1500
X20700Y1500
X19700Y1500
X18700Y1500
X17700Y1500
X16700Y1500
X15700Y1500
X16100Y20500
X15100Y20500
X14100Y20500
X13100Y20500
X12100Y20500
X17100Y20500
X18100Y20500
X19100Y20500
X20700Y20500
X21700Y20500
X22700Y20500
X23700Y20500
X24700Y20500
X25700Y20500
X26700Y20500
X27700Y20500
T03
X5200Y9016
X5200Y10984
X27200Y12516
X27200Y14484
X27200Y8484
X27200Y6516
M30
