G75*
%MOIN*%
%OFA0B0*%
%FSLAX25Y25*%
%IPPOS*%
%LPD*%
%AMOC8*
5,1,8,0,0,1.08239X$1,22.5*
%
%ADD10C,0.00000*%
%ADD11C,0.00300*%
%ADD12C,0.02200*%
%ADD13C,0.00100*%
%ADD14C,0.00800*%
%ADD15C,0.00500*%
%ADD16C,0.00600*%
%ADD17C,0.00400*%
%ADD18R,0.00591X0.01181*%
%ADD19R,0.01181X0.01181*%
%ADD20R,0.01800X0.03000*%
%ADD21R,0.00520X0.00040*%
%ADD22R,0.00520X0.00040*%
%ADD23R,0.00760X0.00040*%
%ADD24R,0.00640X0.00040*%
%ADD25R,0.00440X0.00040*%
%ADD26R,0.00480X0.00040*%
%ADD27R,0.00520X0.00040*%
%ADD28R,0.00520X0.00040*%
%ADD29R,0.01400X0.00040*%
%ADD30R,0.00800X0.00040*%
%ADD31R,0.00480X0.00040*%
%ADD32R,0.00960X0.00040*%
%ADD33R,0.01440X0.00040*%
%ADD34R,0.01080X0.00040*%
%ADD35R,0.01520X0.00040*%
%ADD36R,0.01440X0.00040*%
%ADD37R,0.00560X0.00040*%
%ADD38R,0.01480X0.00040*%
%ADD39R,0.01200X0.00040*%
%ADD40R,0.01560X0.00040*%
%ADD41R,0.01320X0.00040*%
%ADD42R,0.01560X0.00040*%
%ADD43R,0.01520X0.00040*%
%ADD44R,0.00600X0.00040*%
%ADD45R,0.00560X0.00040*%
%ADD46R,0.01400X0.00040*%
%ADD47R,0.01600X0.00040*%
%ADD48R,0.00600X0.00040*%
%ADD49R,0.00640X0.00040*%
%ADD50R,0.01640X0.00040*%
%ADD51R,0.00680X0.00040*%
%ADD52R,0.01680X0.00040*%
%ADD53R,0.01680X0.00040*%
%ADD54R,0.01640X0.00040*%
%ADD55R,0.00720X0.00040*%
%ADD56R,0.01480X0.00040*%
%ADD57R,0.00760X0.00040*%
%ADD58R,0.00720X0.00040*%
%ADD59R,0.00640X0.00040*%
%ADD60R,0.00360X0.00040*%
%ADD61R,0.00240X0.00040*%
%ADD62R,0.00160X0.00040*%
%ADD63R,0.00840X0.00040*%
%ADD64R,0.00080X0.00040*%
%ADD65R,0.00880X0.00040*%
%ADD66R,0.00920X0.00040*%
%ADD67R,0.00960X0.00040*%
%ADD68R,0.01640X0.00040*%
%ADD69R,0.01760X0.00040*%
%ADD70R,0.00440X0.00040*%
%ADD71R,0.01000X0.00040*%
%ADD72R,0.01760X0.00040*%
%ADD73R,0.00440X0.00040*%
%ADD74R,0.01320X0.00040*%
%ADD75R,0.01200X0.00040*%
%ADD76R,0.00920X0.00040*%
%ADD77R,0.00840X0.00040*%
%ADD78R,0.00800X0.00040*%
%ADD79R,0.00080X0.00040*%
%ADD80R,0.00120X0.00040*%
%ADD81R,0.00240X0.00040*%
%ADD82R,0.00720X0.00040*%
%ADD83R,0.00200X0.00040*%
%ADD84R,0.00400X0.00040*%
%ADD85R,0.01240X0.00040*%
%ADD86R,0.01640X0.00040*%
%ADD87R,0.01440X0.00040*%
%ADD88R,0.01280X0.00040*%
%ADD89R,0.01520X0.00040*%
%ADD90R,0.01280X0.00040*%
%ADD91R,0.01520X0.00040*%
%ADD92R,0.01360X0.00040*%
%ADD93R,0.01440X0.00040*%
%ADD94R,0.01240X0.00040*%
%ADD95R,0.01120X0.00040*%
%ADD96R,0.01240X0.00040*%
%ADD97R,0.01040X0.00040*%
%ADD98R,0.00840X0.00040*%
%ADD99R,0.00440X0.00040*%
%ADD100R,0.00400X0.00040*%
%ADD101R,0.00320X0.00040*%
%ADD102R,0.00920X0.00040*%
%ADD103R,0.01040X0.00040*%
%ADD104R,0.01000X0.00040*%
%ADD105R,0.01080X0.00040*%
%ADD106R,0.01160X0.00040*%
%ADD107R,0.01040X0.00040*%
%ADD108R,0.01160X0.00040*%
%ADD109R,0.01600X0.00040*%
%ADD110R,0.01720X0.00040*%
%ADD111R,0.01720X0.00040*%
%ADD112R,0.00640X0.00040*%
%ADD113R,0.00680X0.00040*%
%ADD114R,0.00360X0.00040*%
%ADD115R,0.00280X0.00040*%
%ADD116R,0.00120X0.00040*%
%ADD117R,0.00040X0.00040*%
%ADD118R,0.00040X0.00040*%
%ADD119R,0.01320X0.00040*%
%ADD120R,0.00280X0.00040*%
%ADD121R,0.00320X0.00040*%
%ADD122R,0.01320X0.00040*%
%ADD123R,0.01120X0.00040*%
%ADD124R,0.01120X0.00040*%
%ADD125R,0.01800X0.00040*%
%ADD126R,0.01920X0.00040*%
%ADD127R,0.01920X0.00040*%
%ADD128R,0.02000X0.00040*%
%ADD129R,0.02120X0.00040*%
%ADD130R,0.02200X0.00040*%
%ADD131R,0.02320X0.00040*%
%ADD132R,0.02400X0.00040*%
%ADD133R,0.02520X0.00040*%
%ADD134R,0.02600X0.00040*%
%ADD135R,0.00880X0.00040*%
%ADD136R,0.03680X0.00040*%
%ADD137R,0.03720X0.00040*%
%ADD138R,0.03800X0.00040*%
%ADD139R,0.03840X0.00040*%
%ADD140R,0.03840X0.00040*%
%ADD141R,0.03920X0.00040*%
%ADD142R,0.03960X0.00040*%
%ADD143R,0.04000X0.00040*%
%ADD144R,0.04080X0.00040*%
%ADD145R,0.04120X0.00040*%
%ADD146R,0.04160X0.00040*%
%ADD147R,0.04200X0.00040*%
%ADD148R,0.04200X0.00040*%
%ADD149R,0.04160X0.00040*%
%ADD150R,0.04120X0.00040*%
%ADD151R,0.04080X0.00040*%
%ADD152R,0.04040X0.00040*%
%ADD153R,0.04040X0.00040*%
%ADD154R,0.04040X0.00040*%
%ADD155R,0.04040X0.00040*%
%ADD156R,0.03960X0.00040*%
%ADD157R,0.03920X0.00040*%
%ADD158R,0.03920X0.00040*%
%ADD159R,0.03880X0.00040*%
%ADD160R,0.03920X0.00040*%
%ADD161R,0.03880X0.00040*%
%ADD162R,0.03800X0.00040*%
%ADD163R,0.04240X0.00040*%
%ADD164R,0.04240X0.00040*%
%ADD165R,0.04280X0.00040*%
%ADD166R,0.04360X0.00040*%
%ADD167R,0.04400X0.00040*%
%ADD168R,0.04440X0.00040*%
%ADD169R,0.04520X0.00040*%
%ADD170R,0.04520X0.00040*%
%ADD171R,0.04520X0.00040*%
%ADD172R,0.04520X0.00040*%
%ADD173R,0.04480X0.00040*%
%ADD174R,0.04440X0.00040*%
%ADD175R,0.04400X0.00040*%
%ADD176R,0.04360X0.00040*%
%ADD177R,0.04320X0.00040*%
%ADD178R,0.04240X0.00040*%
%ADD179R,0.04320X0.00040*%
%ADD180R,0.04320X0.00040*%
%ADD181R,0.04560X0.00040*%
%ADD182R,0.04720X0.00040*%
%ADD183R,0.04920X0.00040*%
%ADD184R,0.04920X0.00040*%
%ADD185R,0.05080X0.00040*%
%ADD186R,0.05240X0.00040*%
%ADD187R,0.05240X0.00040*%
%ADD188R,0.05480X0.00040*%
%ADD189R,0.05640X0.00040*%
%ADD190R,0.05640X0.00040*%
%ADD191R,0.05680X0.00040*%
%ADD192R,0.05640X0.00040*%
%ADD193R,0.05600X0.00040*%
%ADD194R,0.05600X0.00040*%
%ADD195R,0.05560X0.00040*%
%ADD196R,0.05520X0.00040*%
%ADD197R,0.05520X0.00040*%
%ADD198R,0.05480X0.00040*%
%ADD199R,0.05440X0.00040*%
%ADD200R,0.05440X0.00040*%
%ADD201R,0.05560X0.00040*%
%ADD202R,0.05680X0.00040*%
%ADD203R,0.05440X0.00040*%
%ADD204R,0.05280X0.00040*%
%ADD205R,0.04920X0.00040*%
%ADD206R,0.04600X0.00040*%
%ADD207R,0.04840X0.00040*%
%ADD208R,0.10440X0.00040*%
%ADD209R,0.10360X0.00040*%
%ADD210R,0.10360X0.00040*%
%ADD211R,0.10280X0.00040*%
%ADD212R,0.10200X0.00040*%
%ADD213R,0.10200X0.00040*%
%ADD214R,0.10120X0.00040*%
%ADD215R,0.10040X0.00040*%
%ADD216R,0.10040X0.00040*%
%ADD217R,0.09960X0.00040*%
%ADD218R,0.09880X0.00040*%
%ADD219R,0.09880X0.00040*%
%ADD220R,0.09800X0.00040*%
%ADD221R,0.09720X0.00040*%
%ADD222R,0.09720X0.00040*%
%ADD223R,0.10280X0.00040*%
%ADD224R,0.10520X0.00040*%
%ADD225R,0.10520X0.00040*%
%ADD226R,0.10600X0.00040*%
%ADD227R,0.10680X0.00040*%
%ADD228R,0.10760X0.00040*%
%ADD229R,0.10840X0.00040*%
%ADD230R,0.10920X0.00040*%
%ADD231R,0.11000X0.00040*%
%ADD232R,0.11080X0.00040*%
%ADD233R,0.11080X0.00040*%
%ADD234R,0.11160X0.00040*%
%ADD235R,0.11240X0.00040*%
%ADD236R,0.11320X0.00040*%
%ADD237R,0.11400X0.00040*%
%ADD238R,0.11400X0.00040*%
%ADD239R,0.11480X0.00040*%
%ADD240R,0.11560X0.00040*%
%ADD241R,0.11640X0.00040*%
%ADD242R,0.11640X0.00040*%
%ADD243R,0.11720X0.00040*%
%ADD244R,0.11800X0.00040*%
%ADD245R,0.11880X0.00040*%
%ADD246R,0.11880X0.00040*%
%ADD247R,0.11960X0.00040*%
%ADD248R,0.11720X0.00040*%
%ADD249R,0.11320X0.00040*%
%ADD250R,0.02760X0.00040*%
%ADD251R,0.05400X0.00040*%
%ADD252R,0.02640X0.00040*%
%ADD253R,0.05160X0.00040*%
%ADD254R,0.02560X0.00040*%
%ADD255R,0.05000X0.00040*%
%ADD256R,0.02440X0.00040*%
%ADD257R,0.04760X0.00040*%
%ADD258R,0.02440X0.00040*%
%ADD259R,0.02360X0.00040*%
%ADD260R,0.04600X0.00040*%
%ADD261R,0.02280X0.00040*%
%ADD262R,0.02240X0.00040*%
%ADD263R,0.02160X0.00040*%
%ADD264R,0.02080X0.00040*%
%ADD265R,0.01960X0.00040*%
%ADD266R,0.01880X0.00040*%
%ADD267R,0.03640X0.00040*%
%ADD268R,0.03400X0.00040*%
%ADD269R,0.03240X0.00040*%
%ADD270R,0.03000X0.00040*%
%ADD271R,0.02920X0.00040*%
%ADD272R,0.01360X0.00040*%
%ADD273R,0.02840X0.00040*%
%ADD274R,0.02840X0.00040*%
%ADD275R,0.02760X0.00040*%
%ADD276R,0.02680X0.00040*%
%ADD277R,0.02680X0.00040*%
%ADD278R,0.02600X0.00040*%
%ADD279R,0.02520X0.00040*%
%ADD280R,0.02520X0.00040*%
%ADD281R,0.02440X0.00040*%
%ADD282R,0.02360X0.00040*%
%ADD283R,0.02280X0.00040*%
%ADD284R,0.02200X0.00040*%
%ADD285R,0.02120X0.00040*%
%ADD286R,0.00770X0.00035*%
%ADD287R,0.01400X0.00035*%
%ADD288R,0.01855X0.00035*%
%ADD289R,0.02170X0.00035*%
%ADD290R,0.02485X0.00035*%
%ADD291R,0.02765X0.00035*%
%ADD292R,0.02975X0.00035*%
%ADD293R,0.03220X0.00035*%
%ADD294R,0.03395X0.00035*%
%ADD295R,0.03605X0.00035*%
%ADD296R,0.03780X0.00035*%
%ADD297R,0.03955X0.00035*%
%ADD298R,0.04130X0.00035*%
%ADD299R,0.04270X0.00035*%
%ADD300R,0.04375X0.00035*%
%ADD301R,0.04550X0.00035*%
%ADD302R,0.04690X0.00035*%
%ADD303R,0.04865X0.00035*%
%ADD304R,0.04970X0.00035*%
%ADD305R,0.05110X0.00035*%
%ADD306R,0.05215X0.00035*%
%ADD307R,0.05355X0.00035*%
%ADD308R,0.05460X0.00035*%
%ADD309R,0.05600X0.00035*%
%ADD310R,0.05705X0.00035*%
%ADD311R,0.05810X0.00035*%
%ADD312R,0.05915X0.00035*%
%ADD313R,0.06055X0.00035*%
%ADD314R,0.06160X0.00035*%
%ADD315R,0.06265X0.00035*%
%ADD316R,0.06335X0.00035*%
%ADD317R,0.06440X0.00035*%
%ADD318R,0.06545X0.00035*%
%ADD319R,0.03080X0.00035*%
%ADD320R,0.02660X0.00035*%
%ADD321R,0.02870X0.00035*%
%ADD322R,0.02415X0.00035*%
%ADD323R,0.02730X0.00035*%
%ADD324R,0.02310X0.00035*%
%ADD325R,0.02695X0.00035*%
%ADD326R,0.02170X0.00035*%
%ADD327R,0.02590X0.00035*%
%ADD328R,0.02100X0.00035*%
%ADD329R,0.02520X0.00035*%
%ADD330R,0.02030X0.00035*%
%ADD331R,0.02450X0.00035*%
%ADD332R,0.01960X0.00035*%
%ADD333R,0.01890X0.00035*%
%ADD334R,0.02380X0.00035*%
%ADD335R,0.01785X0.00035*%
%ADD336R,0.01750X0.00035*%
%ADD337R,0.01715X0.00035*%
%ADD338R,0.02275X0.00035*%
%ADD339R,0.01645X0.00035*%
%ADD340R,0.02240X0.00035*%
%ADD341R,0.01610X0.00035*%
%ADD342R,0.02240X0.00035*%
%ADD343R,0.01575X0.00035*%
%ADD344R,0.01540X0.00035*%
%ADD345R,0.02205X0.00035*%
%ADD346R,0.01505X0.00035*%
%ADD347R,0.01470X0.00035*%
%ADD348R,0.01435X0.00035*%
%ADD349R,0.01365X0.00035*%
%ADD350R,0.01330X0.00035*%
%ADD351R,0.01295X0.00035*%
%ADD352R,0.01295X0.00035*%
%ADD353R,0.01260X0.00035*%
%ADD354R,0.01190X0.00035*%
%ADD355R,0.01225X0.00035*%
%ADD356R,0.00385X0.00035*%
%ADD357R,0.00980X0.00035*%
%ADD358R,0.01155X0.00035*%
%ADD359R,0.01645X0.00035*%
%ADD360R,0.01015X0.00035*%
%ADD361R,0.01050X0.00035*%
%ADD362R,0.02345X0.00035*%
%ADD363R,0.01085X0.00035*%
%ADD364R,0.02905X0.00035*%
%ADD365R,0.03045X0.00035*%
%ADD366R,0.01120X0.00035*%
%ADD367R,0.02345X0.00035*%
%ADD368R,0.03255X0.00035*%
%ADD369R,0.01120X0.00035*%
%ADD370R,0.03500X0.00035*%
%ADD371R,0.02415X0.00035*%
%ADD372R,0.03640X0.00035*%
%ADD373R,0.04900X0.00035*%
%ADD374R,0.04935X0.00035*%
%ADD375R,0.05005X0.00035*%
%ADD376R,0.01680X0.00035*%
%ADD377R,0.02065X0.00035*%
%ADD378R,0.02555X0.00035*%
%ADD379R,0.02590X0.00035*%
%ADD380R,0.02625X0.00035*%
%ADD381R,0.02695X0.00035*%
%ADD382R,0.01470X0.00035*%
%ADD383R,0.02765X0.00035*%
%ADD384R,0.02800X0.00035*%
%ADD385R,0.02835X0.00035*%
%ADD386R,0.01365X0.00035*%
%ADD387R,0.02940X0.00035*%
%ADD388R,0.03010X0.00035*%
%ADD389R,0.03045X0.00035*%
%ADD390R,0.03115X0.00035*%
%ADD391R,0.03150X0.00035*%
%ADD392R,0.03185X0.00035*%
%ADD393R,0.03220X0.00035*%
%ADD394R,0.01190X0.00035*%
%ADD395R,0.03290X0.00035*%
%ADD396R,0.03325X0.00035*%
%ADD397R,0.03360X0.00035*%
%ADD398R,0.03430X0.00035*%
%ADD399R,0.03465X0.00035*%
%ADD400R,0.03535X0.00035*%
%ADD401R,0.03570X0.00035*%
%ADD402R,0.03675X0.00035*%
%ADD403R,0.03710X0.00035*%
%ADD404R,0.03745X0.00035*%
%ADD405R,0.03815X0.00035*%
%ADD406R,0.03850X0.00035*%
%ADD407R,0.03885X0.00035*%
%ADD408R,0.03920X0.00035*%
%ADD409R,0.03990X0.00035*%
%ADD410R,0.04025X0.00035*%
%ADD411R,0.02870X0.00035*%
%ADD412R,0.04095X0.00035*%
%ADD413R,0.04165X0.00035*%
%ADD414R,0.04200X0.00035*%
%ADD415R,0.04235X0.00035*%
%ADD416R,0.04270X0.00035*%
%ADD417R,0.01820X0.00035*%
%ADD418R,0.04305X0.00035*%
%ADD419R,0.04340X0.00035*%
%ADD420R,0.01925X0.00035*%
%ADD421R,0.04410X0.00035*%
%ADD422R,0.00945X0.00035*%
%ADD423R,0.00875X0.00035*%
%ADD424R,0.00840X0.00035*%
%ADD425R,0.02135X0.00035*%
%ADD426R,0.00805X0.00035*%
%ADD427R,0.00735X0.00035*%
%ADD428R,0.01995X0.00035*%
%ADD429R,0.02520X0.00035*%
%ADD430R,0.01540X0.00035*%
%ADD431R,0.00770X0.00035*%
%ADD432R,0.00665X0.00035*%
%ADD433R,0.00420X0.00035*%
%ADD434R,0.00910X0.00035*%
%ADD435R,0.04060X0.00035*%
%ADD436R,0.01015X0.00035*%
%ADD437R,0.03115X0.00035*%
%ADD438R,0.03395X0.00035*%
%ADD439R,0.03745X0.00035*%
%ADD440R,0.04340X0.00035*%
%ADD441R,0.04480X0.00035*%
%ADD442R,0.02065X0.00035*%
%ADD443R,0.04515X0.00035*%
%ADD444R,0.04585X0.00035*%
%ADD445R,0.04760X0.00035*%
%ADD446R,0.04830X0.00035*%
%ADD447R,0.07805X0.00035*%
%ADD448R,0.07840X0.00035*%
%ADD449R,0.07875X0.00035*%
%ADD450R,0.07910X0.00035*%
%ADD451R,0.07945X0.00035*%
%ADD452R,0.07980X0.00035*%
%ADD453R,0.08015X0.00035*%
%ADD454R,0.08050X0.00035*%
%ADD455R,0.05635X0.00035*%
%ADD456R,0.01995X0.00035*%
%ADD457R,0.01890X0.00035*%
%ADD458R,0.01715X0.00035*%
%ADD459R,0.00945X0.00035*%
%ADD460R,0.00560X0.00035*%
%ADD461R,0.01820X0.00035*%
%ADD462R,0.00700X0.00035*%
%ADD463R,0.00630X0.00035*%
%ADD464R,0.00525X0.00035*%
%ADD465R,0.00175X0.00035*%
%ADD466R,0.00595X0.00035*%
%ADD467R,0.00490X0.00035*%
%ADD468R,0.00210X0.00035*%
%ADD469R,0.00490X0.00035*%
%ADD470R,0.00315X0.00035*%
D10*
X0010800Y0005800D02*
X0191501Y0005800D01*
X0191641Y0005802D01*
X0191781Y0005808D01*
X0191921Y0005818D01*
X0192061Y0005831D01*
X0192200Y0005849D01*
X0192339Y0005871D01*
X0192476Y0005896D01*
X0192614Y0005925D01*
X0192750Y0005958D01*
X0192885Y0005995D01*
X0193019Y0006036D01*
X0193152Y0006081D01*
X0193284Y0006129D01*
X0193414Y0006181D01*
X0193543Y0006236D01*
X0193670Y0006295D01*
X0193796Y0006358D01*
X0193920Y0006424D01*
X0194041Y0006493D01*
X0194161Y0006566D01*
X0194279Y0006643D01*
X0194394Y0006722D01*
X0194508Y0006805D01*
X0194618Y0006891D01*
X0194727Y0006980D01*
X0194833Y0007072D01*
X0194936Y0007167D01*
X0195037Y0007264D01*
X0195134Y0007365D01*
X0195229Y0007468D01*
X0195321Y0007574D01*
X0195410Y0007683D01*
X0195496Y0007793D01*
X0195579Y0007907D01*
X0195658Y0008022D01*
X0195735Y0008140D01*
X0195808Y0008260D01*
X0195877Y0008381D01*
X0195943Y0008505D01*
X0196006Y0008631D01*
X0196065Y0008758D01*
X0196120Y0008887D01*
X0196172Y0009017D01*
X0196220Y0009149D01*
X0196265Y0009282D01*
X0196306Y0009416D01*
X0196343Y0009551D01*
X0196376Y0009687D01*
X0196405Y0009825D01*
X0196430Y0009962D01*
X0196452Y0010101D01*
X0196470Y0010240D01*
X0196483Y0010380D01*
X0196493Y0010520D01*
X0196499Y0010660D01*
X0196501Y0010800D01*
X0196501Y0080761D01*
X0196499Y0080901D01*
X0196493Y0081041D01*
X0196483Y0081181D01*
X0196470Y0081321D01*
X0196452Y0081460D01*
X0196430Y0081599D01*
X0196405Y0081736D01*
X0196376Y0081874D01*
X0196343Y0082010D01*
X0196306Y0082145D01*
X0196265Y0082279D01*
X0196220Y0082412D01*
X0196172Y0082544D01*
X0196120Y0082674D01*
X0196065Y0082803D01*
X0196006Y0082930D01*
X0195943Y0083056D01*
X0195877Y0083180D01*
X0195808Y0083301D01*
X0195735Y0083421D01*
X0195658Y0083539D01*
X0195579Y0083654D01*
X0195496Y0083768D01*
X0195410Y0083878D01*
X0195321Y0083987D01*
X0195229Y0084093D01*
X0195134Y0084196D01*
X0195037Y0084297D01*
X0194936Y0084394D01*
X0194833Y0084489D01*
X0194727Y0084581D01*
X0194618Y0084670D01*
X0194508Y0084756D01*
X0194394Y0084839D01*
X0194279Y0084918D01*
X0194161Y0084995D01*
X0194041Y0085068D01*
X0193920Y0085137D01*
X0193796Y0085203D01*
X0193670Y0085266D01*
X0193543Y0085325D01*
X0193414Y0085380D01*
X0193284Y0085432D01*
X0193152Y0085480D01*
X0193019Y0085525D01*
X0192885Y0085566D01*
X0192750Y0085603D01*
X0192614Y0085636D01*
X0192476Y0085665D01*
X0192339Y0085690D01*
X0192200Y0085712D01*
X0192061Y0085730D01*
X0191921Y0085743D01*
X0191781Y0085753D01*
X0191641Y0085759D01*
X0191501Y0085761D01*
X0010800Y0085761D01*
X0010660Y0085759D01*
X0010520Y0085753D01*
X0010380Y0085743D01*
X0010240Y0085730D01*
X0010101Y0085712D01*
X0009962Y0085690D01*
X0009825Y0085665D01*
X0009687Y0085636D01*
X0009551Y0085603D01*
X0009416Y0085566D01*
X0009282Y0085525D01*
X0009149Y0085480D01*
X0009017Y0085432D01*
X0008887Y0085380D01*
X0008758Y0085325D01*
X0008631Y0085266D01*
X0008505Y0085203D01*
X0008381Y0085137D01*
X0008260Y0085068D01*
X0008140Y0084995D01*
X0008022Y0084918D01*
X0007907Y0084839D01*
X0007793Y0084756D01*
X0007683Y0084670D01*
X0007574Y0084581D01*
X0007468Y0084489D01*
X0007365Y0084394D01*
X0007264Y0084297D01*
X0007167Y0084196D01*
X0007072Y0084093D01*
X0006980Y0083987D01*
X0006891Y0083878D01*
X0006805Y0083768D01*
X0006722Y0083654D01*
X0006643Y0083539D01*
X0006566Y0083421D01*
X0006493Y0083301D01*
X0006424Y0083180D01*
X0006358Y0083056D01*
X0006295Y0082930D01*
X0006236Y0082803D01*
X0006181Y0082674D01*
X0006129Y0082544D01*
X0006081Y0082412D01*
X0006036Y0082279D01*
X0005995Y0082145D01*
X0005958Y0082010D01*
X0005925Y0081874D01*
X0005896Y0081736D01*
X0005871Y0081599D01*
X0005849Y0081460D01*
X0005831Y0081321D01*
X0005818Y0081181D01*
X0005808Y0081041D01*
X0005802Y0080901D01*
X0005800Y0080761D01*
X0005800Y0010800D01*
X0005802Y0010660D01*
X0005808Y0010520D01*
X0005818Y0010380D01*
X0005831Y0010240D01*
X0005849Y0010101D01*
X0005871Y0009962D01*
X0005896Y0009825D01*
X0005925Y0009687D01*
X0005958Y0009551D01*
X0005995Y0009416D01*
X0006036Y0009282D01*
X0006081Y0009149D01*
X0006129Y0009017D01*
X0006181Y0008887D01*
X0006236Y0008758D01*
X0006295Y0008631D01*
X0006358Y0008505D01*
X0006424Y0008381D01*
X0006493Y0008260D01*
X0006566Y0008140D01*
X0006643Y0008022D01*
X0006722Y0007907D01*
X0006805Y0007793D01*
X0006891Y0007683D01*
X0006980Y0007574D01*
X0007072Y0007468D01*
X0007167Y0007365D01*
X0007264Y0007264D01*
X0007365Y0007167D01*
X0007468Y0007072D01*
X0007574Y0006980D01*
X0007683Y0006891D01*
X0007793Y0006805D01*
X0007907Y0006722D01*
X0008022Y0006643D01*
X0008140Y0006566D01*
X0008260Y0006493D01*
X0008381Y0006424D01*
X0008505Y0006358D01*
X0008631Y0006295D01*
X0008758Y0006236D01*
X0008887Y0006181D01*
X0009017Y0006129D01*
X0009149Y0006081D01*
X0009282Y0006036D01*
X0009416Y0005995D01*
X0009551Y0005958D01*
X0009687Y0005925D01*
X0009825Y0005896D01*
X0009962Y0005871D01*
X0010101Y0005849D01*
X0010240Y0005831D01*
X0010380Y0005818D01*
X0010520Y0005808D01*
X0010660Y0005802D01*
X0010800Y0005800D01*
X0177217Y0035957D02*
X0177219Y0036041D01*
X0177225Y0036124D01*
X0177235Y0036207D01*
X0177249Y0036290D01*
X0177266Y0036372D01*
X0177288Y0036453D01*
X0177313Y0036532D01*
X0177342Y0036611D01*
X0177375Y0036688D01*
X0177411Y0036763D01*
X0177451Y0036837D01*
X0177494Y0036909D01*
X0177541Y0036978D01*
X0177591Y0037045D01*
X0177644Y0037110D01*
X0177700Y0037172D01*
X0177758Y0037232D01*
X0177820Y0037289D01*
X0177884Y0037342D01*
X0177951Y0037393D01*
X0178020Y0037440D01*
X0178091Y0037485D01*
X0178164Y0037525D01*
X0178239Y0037562D01*
X0178316Y0037596D01*
X0178394Y0037626D01*
X0178473Y0037652D01*
X0178554Y0037675D01*
X0178636Y0037693D01*
X0178718Y0037708D01*
X0178801Y0037719D01*
X0178884Y0037726D01*
X0178968Y0037729D01*
X0179052Y0037728D01*
X0179135Y0037723D01*
X0179219Y0037714D01*
X0179301Y0037701D01*
X0179383Y0037685D01*
X0179464Y0037664D01*
X0179545Y0037640D01*
X0179623Y0037612D01*
X0179701Y0037580D01*
X0179777Y0037544D01*
X0179851Y0037505D01*
X0179923Y0037463D01*
X0179993Y0037417D01*
X0180061Y0037368D01*
X0180126Y0037316D01*
X0180189Y0037261D01*
X0180249Y0037203D01*
X0180307Y0037142D01*
X0180361Y0037078D01*
X0180413Y0037012D01*
X0180461Y0036944D01*
X0180506Y0036873D01*
X0180547Y0036800D01*
X0180586Y0036726D01*
X0180620Y0036650D01*
X0180651Y0036572D01*
X0180678Y0036493D01*
X0180702Y0036412D01*
X0180721Y0036331D01*
X0180737Y0036249D01*
X0180749Y0036166D01*
X0180757Y0036082D01*
X0180761Y0035999D01*
X0180761Y0035915D01*
X0180757Y0035832D01*
X0180749Y0035748D01*
X0180737Y0035665D01*
X0180721Y0035583D01*
X0180702Y0035502D01*
X0180678Y0035421D01*
X0180651Y0035342D01*
X0180620Y0035264D01*
X0180586Y0035188D01*
X0180547Y0035114D01*
X0180506Y0035041D01*
X0180461Y0034970D01*
X0180413Y0034902D01*
X0180361Y0034836D01*
X0180307Y0034772D01*
X0180249Y0034711D01*
X0180189Y0034653D01*
X0180126Y0034598D01*
X0180061Y0034546D01*
X0179993Y0034497D01*
X0179923Y0034451D01*
X0179851Y0034409D01*
X0179777Y0034370D01*
X0179701Y0034334D01*
X0179623Y0034302D01*
X0179545Y0034274D01*
X0179464Y0034250D01*
X0179383Y0034229D01*
X0179301Y0034213D01*
X0179219Y0034200D01*
X0179135Y0034191D01*
X0179052Y0034186D01*
X0178968Y0034185D01*
X0178884Y0034188D01*
X0178801Y0034195D01*
X0178718Y0034206D01*
X0178636Y0034221D01*
X0178554Y0034239D01*
X0178473Y0034262D01*
X0178394Y0034288D01*
X0178316Y0034318D01*
X0178239Y0034352D01*
X0178164Y0034389D01*
X0178091Y0034429D01*
X0178020Y0034474D01*
X0177951Y0034521D01*
X0177884Y0034572D01*
X0177820Y0034625D01*
X0177758Y0034682D01*
X0177700Y0034742D01*
X0177644Y0034804D01*
X0177591Y0034869D01*
X0177541Y0034936D01*
X0177494Y0035005D01*
X0177451Y0035077D01*
X0177411Y0035151D01*
X0177375Y0035226D01*
X0177342Y0035303D01*
X0177313Y0035382D01*
X0177288Y0035461D01*
X0177266Y0035542D01*
X0177249Y0035624D01*
X0177235Y0035707D01*
X0177225Y0035790D01*
X0177219Y0035873D01*
X0177217Y0035957D01*
X0188241Y0031627D02*
X0188243Y0031728D01*
X0188249Y0031829D01*
X0188259Y0031930D01*
X0188273Y0032030D01*
X0188291Y0032129D01*
X0188313Y0032228D01*
X0188338Y0032326D01*
X0188368Y0032423D01*
X0188401Y0032518D01*
X0188438Y0032612D01*
X0188479Y0032705D01*
X0188523Y0032796D01*
X0188571Y0032885D01*
X0188623Y0032972D01*
X0188678Y0033057D01*
X0188736Y0033139D01*
X0188797Y0033220D01*
X0188862Y0033298D01*
X0188929Y0033373D01*
X0188999Y0033445D01*
X0189073Y0033515D01*
X0189149Y0033582D01*
X0189227Y0033646D01*
X0189308Y0033706D01*
X0189391Y0033763D01*
X0189477Y0033817D01*
X0189565Y0033868D01*
X0189654Y0033915D01*
X0189745Y0033959D01*
X0189838Y0033998D01*
X0189933Y0034035D01*
X0190028Y0034067D01*
X0190125Y0034096D01*
X0190224Y0034120D01*
X0190322Y0034141D01*
X0190422Y0034158D01*
X0190522Y0034171D01*
X0190623Y0034180D01*
X0190724Y0034185D01*
X0190825Y0034186D01*
X0190926Y0034183D01*
X0191027Y0034176D01*
X0191128Y0034165D01*
X0191228Y0034150D01*
X0191327Y0034131D01*
X0191426Y0034108D01*
X0191523Y0034082D01*
X0191620Y0034051D01*
X0191715Y0034017D01*
X0191808Y0033979D01*
X0191901Y0033937D01*
X0191991Y0033892D01*
X0192080Y0033843D01*
X0192166Y0033791D01*
X0192250Y0033735D01*
X0192333Y0033676D01*
X0192412Y0033614D01*
X0192490Y0033549D01*
X0192564Y0033481D01*
X0192636Y0033409D01*
X0192705Y0033336D01*
X0192771Y0033259D01*
X0192834Y0033180D01*
X0192894Y0033098D01*
X0192950Y0033014D01*
X0193003Y0032928D01*
X0193053Y0032840D01*
X0193099Y0032750D01*
X0193142Y0032659D01*
X0193181Y0032565D01*
X0193216Y0032470D01*
X0193247Y0032374D01*
X0193275Y0032277D01*
X0193299Y0032179D01*
X0193319Y0032080D01*
X0193335Y0031980D01*
X0193347Y0031879D01*
X0193355Y0031779D01*
X0193359Y0031678D01*
X0193359Y0031576D01*
X0193355Y0031475D01*
X0193347Y0031375D01*
X0193335Y0031274D01*
X0193319Y0031174D01*
X0193299Y0031075D01*
X0193275Y0030977D01*
X0193247Y0030880D01*
X0193216Y0030784D01*
X0193181Y0030689D01*
X0193142Y0030595D01*
X0193099Y0030504D01*
X0193053Y0030414D01*
X0193003Y0030326D01*
X0192950Y0030240D01*
X0192894Y0030156D01*
X0192834Y0030074D01*
X0192771Y0029995D01*
X0192705Y0029918D01*
X0192636Y0029845D01*
X0192564Y0029773D01*
X0192490Y0029705D01*
X0192412Y0029640D01*
X0192333Y0029578D01*
X0192250Y0029519D01*
X0192166Y0029463D01*
X0192079Y0029411D01*
X0191991Y0029362D01*
X0191901Y0029317D01*
X0191808Y0029275D01*
X0191715Y0029237D01*
X0191620Y0029203D01*
X0191523Y0029172D01*
X0191426Y0029146D01*
X0191327Y0029123D01*
X0191228Y0029104D01*
X0191128Y0029089D01*
X0191027Y0029078D01*
X0190926Y0029071D01*
X0190825Y0029068D01*
X0190724Y0029069D01*
X0190623Y0029074D01*
X0190522Y0029083D01*
X0190422Y0029096D01*
X0190322Y0029113D01*
X0190224Y0029134D01*
X0190125Y0029158D01*
X0190028Y0029187D01*
X0189933Y0029219D01*
X0189838Y0029256D01*
X0189745Y0029295D01*
X0189654Y0029339D01*
X0189565Y0029386D01*
X0189477Y0029437D01*
X0189391Y0029491D01*
X0189308Y0029548D01*
X0189227Y0029608D01*
X0189149Y0029672D01*
X0189073Y0029739D01*
X0188999Y0029809D01*
X0188929Y0029881D01*
X0188862Y0029956D01*
X0188797Y0030034D01*
X0188736Y0030115D01*
X0188678Y0030197D01*
X0188623Y0030282D01*
X0188571Y0030369D01*
X0188523Y0030458D01*
X0188479Y0030549D01*
X0188438Y0030642D01*
X0188401Y0030736D01*
X0188368Y0030831D01*
X0188338Y0030928D01*
X0188313Y0031026D01*
X0188291Y0031125D01*
X0188273Y0031224D01*
X0188259Y0031324D01*
X0188249Y0031425D01*
X0188243Y0031526D01*
X0188241Y0031627D01*
X0177217Y0055643D02*
X0177219Y0055727D01*
X0177225Y0055810D01*
X0177235Y0055893D01*
X0177249Y0055976D01*
X0177266Y0056058D01*
X0177288Y0056139D01*
X0177313Y0056218D01*
X0177342Y0056297D01*
X0177375Y0056374D01*
X0177411Y0056449D01*
X0177451Y0056523D01*
X0177494Y0056595D01*
X0177541Y0056664D01*
X0177591Y0056731D01*
X0177644Y0056796D01*
X0177700Y0056858D01*
X0177758Y0056918D01*
X0177820Y0056975D01*
X0177884Y0057028D01*
X0177951Y0057079D01*
X0178020Y0057126D01*
X0178091Y0057171D01*
X0178164Y0057211D01*
X0178239Y0057248D01*
X0178316Y0057282D01*
X0178394Y0057312D01*
X0178473Y0057338D01*
X0178554Y0057361D01*
X0178636Y0057379D01*
X0178718Y0057394D01*
X0178801Y0057405D01*
X0178884Y0057412D01*
X0178968Y0057415D01*
X0179052Y0057414D01*
X0179135Y0057409D01*
X0179219Y0057400D01*
X0179301Y0057387D01*
X0179383Y0057371D01*
X0179464Y0057350D01*
X0179545Y0057326D01*
X0179623Y0057298D01*
X0179701Y0057266D01*
X0179777Y0057230D01*
X0179851Y0057191D01*
X0179923Y0057149D01*
X0179993Y0057103D01*
X0180061Y0057054D01*
X0180126Y0057002D01*
X0180189Y0056947D01*
X0180249Y0056889D01*
X0180307Y0056828D01*
X0180361Y0056764D01*
X0180413Y0056698D01*
X0180461Y0056630D01*
X0180506Y0056559D01*
X0180547Y0056486D01*
X0180586Y0056412D01*
X0180620Y0056336D01*
X0180651Y0056258D01*
X0180678Y0056179D01*
X0180702Y0056098D01*
X0180721Y0056017D01*
X0180737Y0055935D01*
X0180749Y0055852D01*
X0180757Y0055768D01*
X0180761Y0055685D01*
X0180761Y0055601D01*
X0180757Y0055518D01*
X0180749Y0055434D01*
X0180737Y0055351D01*
X0180721Y0055269D01*
X0180702Y0055188D01*
X0180678Y0055107D01*
X0180651Y0055028D01*
X0180620Y0054950D01*
X0180586Y0054874D01*
X0180547Y0054800D01*
X0180506Y0054727D01*
X0180461Y0054656D01*
X0180413Y0054588D01*
X0180361Y0054522D01*
X0180307Y0054458D01*
X0180249Y0054397D01*
X0180189Y0054339D01*
X0180126Y0054284D01*
X0180061Y0054232D01*
X0179993Y0054183D01*
X0179923Y0054137D01*
X0179851Y0054095D01*
X0179777Y0054056D01*
X0179701Y0054020D01*
X0179623Y0053988D01*
X0179545Y0053960D01*
X0179464Y0053936D01*
X0179383Y0053915D01*
X0179301Y0053899D01*
X0179219Y0053886D01*
X0179135Y0053877D01*
X0179052Y0053872D01*
X0178968Y0053871D01*
X0178884Y0053874D01*
X0178801Y0053881D01*
X0178718Y0053892D01*
X0178636Y0053907D01*
X0178554Y0053925D01*
X0178473Y0053948D01*
X0178394Y0053974D01*
X0178316Y0054004D01*
X0178239Y0054038D01*
X0178164Y0054075D01*
X0178091Y0054115D01*
X0178020Y0054160D01*
X0177951Y0054207D01*
X0177884Y0054258D01*
X0177820Y0054311D01*
X0177758Y0054368D01*
X0177700Y0054428D01*
X0177644Y0054490D01*
X0177591Y0054555D01*
X0177541Y0054622D01*
X0177494Y0054691D01*
X0177451Y0054763D01*
X0177411Y0054837D01*
X0177375Y0054912D01*
X0177342Y0054989D01*
X0177313Y0055068D01*
X0177288Y0055147D01*
X0177266Y0055228D01*
X0177249Y0055310D01*
X0177235Y0055393D01*
X0177225Y0055476D01*
X0177219Y0055559D01*
X0177217Y0055643D01*
X0188241Y0059973D02*
X0188243Y0060074D01*
X0188249Y0060175D01*
X0188259Y0060276D01*
X0188273Y0060376D01*
X0188291Y0060475D01*
X0188313Y0060574D01*
X0188338Y0060672D01*
X0188368Y0060769D01*
X0188401Y0060864D01*
X0188438Y0060958D01*
X0188479Y0061051D01*
X0188523Y0061142D01*
X0188571Y0061231D01*
X0188623Y0061318D01*
X0188678Y0061403D01*
X0188736Y0061485D01*
X0188797Y0061566D01*
X0188862Y0061644D01*
X0188929Y0061719D01*
X0188999Y0061791D01*
X0189073Y0061861D01*
X0189149Y0061928D01*
X0189227Y0061992D01*
X0189308Y0062052D01*
X0189391Y0062109D01*
X0189477Y0062163D01*
X0189565Y0062214D01*
X0189654Y0062261D01*
X0189745Y0062305D01*
X0189838Y0062344D01*
X0189933Y0062381D01*
X0190028Y0062413D01*
X0190125Y0062442D01*
X0190224Y0062466D01*
X0190322Y0062487D01*
X0190422Y0062504D01*
X0190522Y0062517D01*
X0190623Y0062526D01*
X0190724Y0062531D01*
X0190825Y0062532D01*
X0190926Y0062529D01*
X0191027Y0062522D01*
X0191128Y0062511D01*
X0191228Y0062496D01*
X0191327Y0062477D01*
X0191426Y0062454D01*
X0191523Y0062428D01*
X0191620Y0062397D01*
X0191715Y0062363D01*
X0191808Y0062325D01*
X0191901Y0062283D01*
X0191991Y0062238D01*
X0192080Y0062189D01*
X0192166Y0062137D01*
X0192250Y0062081D01*
X0192333Y0062022D01*
X0192412Y0061960D01*
X0192490Y0061895D01*
X0192564Y0061827D01*
X0192636Y0061755D01*
X0192705Y0061682D01*
X0192771Y0061605D01*
X0192834Y0061526D01*
X0192894Y0061444D01*
X0192950Y0061360D01*
X0193003Y0061274D01*
X0193053Y0061186D01*
X0193099Y0061096D01*
X0193142Y0061005D01*
X0193181Y0060911D01*
X0193216Y0060816D01*
X0193247Y0060720D01*
X0193275Y0060623D01*
X0193299Y0060525D01*
X0193319Y0060426D01*
X0193335Y0060326D01*
X0193347Y0060225D01*
X0193355Y0060125D01*
X0193359Y0060024D01*
X0193359Y0059922D01*
X0193355Y0059821D01*
X0193347Y0059721D01*
X0193335Y0059620D01*
X0193319Y0059520D01*
X0193299Y0059421D01*
X0193275Y0059323D01*
X0193247Y0059226D01*
X0193216Y0059130D01*
X0193181Y0059035D01*
X0193142Y0058941D01*
X0193099Y0058850D01*
X0193053Y0058760D01*
X0193003Y0058672D01*
X0192950Y0058586D01*
X0192894Y0058502D01*
X0192834Y0058420D01*
X0192771Y0058341D01*
X0192705Y0058264D01*
X0192636Y0058191D01*
X0192564Y0058119D01*
X0192490Y0058051D01*
X0192412Y0057986D01*
X0192333Y0057924D01*
X0192250Y0057865D01*
X0192166Y0057809D01*
X0192079Y0057757D01*
X0191991Y0057708D01*
X0191901Y0057663D01*
X0191808Y0057621D01*
X0191715Y0057583D01*
X0191620Y0057549D01*
X0191523Y0057518D01*
X0191426Y0057492D01*
X0191327Y0057469D01*
X0191228Y0057450D01*
X0191128Y0057435D01*
X0191027Y0057424D01*
X0190926Y0057417D01*
X0190825Y0057414D01*
X0190724Y0057415D01*
X0190623Y0057420D01*
X0190522Y0057429D01*
X0190422Y0057442D01*
X0190322Y0057459D01*
X0190224Y0057480D01*
X0190125Y0057504D01*
X0190028Y0057533D01*
X0189933Y0057565D01*
X0189838Y0057602D01*
X0189745Y0057641D01*
X0189654Y0057685D01*
X0189565Y0057732D01*
X0189477Y0057783D01*
X0189391Y0057837D01*
X0189308Y0057894D01*
X0189227Y0057954D01*
X0189149Y0058018D01*
X0189073Y0058085D01*
X0188999Y0058155D01*
X0188929Y0058227D01*
X0188862Y0058302D01*
X0188797Y0058380D01*
X0188736Y0058461D01*
X0188678Y0058543D01*
X0188623Y0058628D01*
X0188571Y0058715D01*
X0188523Y0058804D01*
X0188479Y0058895D01*
X0188438Y0058988D01*
X0188401Y0059082D01*
X0188368Y0059177D01*
X0188338Y0059274D01*
X0188313Y0059372D01*
X0188291Y0059471D01*
X0188273Y0059570D01*
X0188259Y0059670D01*
X0188249Y0059771D01*
X0188243Y0059872D01*
X0188241Y0059973D01*
D11*
X0161785Y0071567D02*
X0161168Y0070950D01*
X0159316Y0070950D01*
X0159316Y0074653D01*
X0161168Y0074653D01*
X0161785Y0074036D01*
X0161785Y0071567D01*
X0158102Y0070950D02*
X0158102Y0074653D01*
X0155633Y0074653D02*
X0158102Y0070950D01*
X0155633Y0070950D02*
X0155633Y0074653D01*
X0154419Y0074036D02*
X0153802Y0074653D01*
X0152567Y0074653D01*
X0151950Y0074036D01*
X0151950Y0071567D01*
X0152567Y0070950D01*
X0153802Y0070950D01*
X0154419Y0071567D01*
X0154419Y0072802D01*
X0153184Y0072802D01*
X0172584Y0028653D02*
X0175052Y0028653D01*
X0176884Y0027419D02*
X0178118Y0027419D01*
X0178736Y0026802D01*
X0178736Y0024950D01*
X0176884Y0024950D01*
X0176267Y0025567D01*
X0176884Y0026184D01*
X0178736Y0026184D01*
X0179950Y0026802D02*
X0181802Y0026802D01*
X0182419Y0026184D01*
X0182419Y0025567D01*
X0181802Y0024950D01*
X0179950Y0024950D01*
X0179950Y0028653D01*
X0181802Y0028653D01*
X0182419Y0028036D01*
X0182419Y0027419D01*
X0181802Y0026802D01*
X0183633Y0026802D02*
X0183633Y0025567D01*
X0184250Y0024950D01*
X0185485Y0024950D01*
X0186102Y0025567D01*
X0186102Y0026802D01*
X0185485Y0027419D01*
X0184250Y0027419D01*
X0183633Y0026802D01*
X0173818Y0026802D02*
X0172584Y0026802D01*
X0172584Y0028653D02*
X0172584Y0024950D01*
X0043419Y0017802D02*
X0040950Y0017802D01*
X0042184Y0019036D02*
X0042184Y0016567D01*
X0036785Y0018950D02*
X0035551Y0020184D01*
X0036168Y0020184D02*
X0034316Y0020184D01*
X0034316Y0018950D02*
X0034316Y0022653D01*
X0036168Y0022653D01*
X0036785Y0022036D01*
X0036785Y0020802D01*
X0036168Y0020184D01*
X0031868Y0018950D02*
X0031868Y0022653D01*
X0033102Y0022653D02*
X0030633Y0022653D01*
X0029419Y0022036D02*
X0028802Y0022653D01*
X0026950Y0022653D01*
X0026950Y0018950D01*
X0028802Y0018950D01*
X0029419Y0019567D01*
X0029419Y0022036D01*
X0029419Y0028950D02*
X0028184Y0030184D01*
X0028802Y0030184D02*
X0026950Y0030184D01*
X0028802Y0030184D02*
X0029419Y0030802D01*
X0029419Y0032036D01*
X0028802Y0032653D01*
X0026950Y0032653D01*
X0026950Y0028950D01*
X0030633Y0028950D02*
X0033102Y0032653D01*
X0030633Y0032653D02*
X0033102Y0028950D01*
X0042184Y0036567D02*
X0042184Y0039036D01*
X0040950Y0037802D02*
X0043419Y0037802D01*
X0033102Y0038950D02*
X0030633Y0042653D01*
X0029419Y0042653D02*
X0026950Y0042653D01*
X0028184Y0042653D02*
X0028184Y0038950D01*
X0030633Y0038950D02*
X0033102Y0042653D01*
X0032485Y0047950D02*
X0033102Y0048567D01*
X0032485Y0047950D02*
X0031250Y0047950D01*
X0030633Y0048567D01*
X0030633Y0051036D01*
X0031250Y0051653D01*
X0032485Y0051653D01*
X0033102Y0051036D01*
X0034316Y0051036D02*
X0034316Y0048567D01*
X0034933Y0047950D01*
X0036168Y0047950D01*
X0036785Y0048567D01*
X0036785Y0051036D02*
X0036168Y0051653D01*
X0034933Y0051653D01*
X0034316Y0051036D01*
X0029419Y0051653D02*
X0029419Y0049184D01*
X0028184Y0047950D01*
X0026950Y0049184D01*
X0026950Y0051653D01*
X0027567Y0057950D02*
X0028802Y0057950D01*
X0029419Y0058567D01*
X0027567Y0057950D02*
X0026950Y0058567D01*
X0026950Y0061036D01*
X0027567Y0061653D01*
X0028802Y0061653D01*
X0029419Y0061036D01*
X0030633Y0061653D02*
X0033102Y0061653D01*
X0031868Y0061653D02*
X0031868Y0057950D01*
X0034316Y0058567D02*
X0034933Y0057950D01*
X0036168Y0057950D01*
X0036785Y0058567D01*
X0036785Y0059184D01*
X0036168Y0059802D01*
X0034933Y0059802D01*
X0034316Y0060419D01*
X0034316Y0061036D01*
X0034933Y0061653D01*
X0036168Y0061653D01*
X0036785Y0061036D01*
X0042184Y0059036D02*
X0042184Y0056567D01*
X0040950Y0057802D02*
X0043419Y0057802D01*
X0036168Y0067950D02*
X0034316Y0067950D01*
X0034316Y0071653D01*
X0036168Y0071653D01*
X0036785Y0071036D01*
X0036785Y0068567D01*
X0036168Y0067950D01*
X0033102Y0067950D02*
X0033102Y0071653D01*
X0030633Y0071653D02*
X0033102Y0067950D01*
X0030633Y0067950D02*
X0030633Y0071653D01*
X0029419Y0071036D02*
X0028802Y0071653D01*
X0027567Y0071653D01*
X0026950Y0071036D01*
X0026950Y0068567D01*
X0027567Y0067950D01*
X0028802Y0067950D01*
X0029419Y0068567D01*
X0029419Y0069802D01*
X0028184Y0069802D01*
D12*
X0105800Y0075680D02*
X0105800Y0075920D01*
X0125800Y0075920D02*
X0125800Y0075680D01*
X0135800Y0015920D02*
X0135800Y0015680D01*
D13*
X0134824Y0018850D02*
X0133823Y0018850D01*
X0134824Y0019851D01*
X0134824Y0020101D01*
X0134574Y0020351D01*
X0134073Y0020351D01*
X0133823Y0020101D01*
X0133351Y0020101D02*
X0133101Y0020351D01*
X0132600Y0020351D01*
X0132350Y0020101D01*
X0132350Y0019100D01*
X0132600Y0018850D01*
X0133101Y0018850D01*
X0133351Y0019100D01*
X0098324Y0022038D02*
X0097323Y0022038D01*
X0098074Y0022788D01*
X0098074Y0021287D01*
X0096851Y0021537D02*
X0096601Y0021287D01*
X0096100Y0021287D01*
X0095850Y0021537D01*
X0095850Y0022538D01*
X0096100Y0022788D01*
X0096601Y0022788D01*
X0096851Y0022538D01*
X0084824Y0018850D02*
X0083823Y0018850D01*
X0083351Y0018850D02*
X0082850Y0019350D01*
X0083101Y0019350D02*
X0082350Y0019350D01*
X0082350Y0018850D02*
X0082350Y0020351D01*
X0083101Y0020351D01*
X0083351Y0020101D01*
X0083351Y0019601D01*
X0083101Y0019350D01*
X0083823Y0019851D02*
X0084324Y0020351D01*
X0084324Y0018850D01*
X0064574Y0028850D02*
X0064574Y0030351D01*
X0063823Y0029601D01*
X0064824Y0029601D01*
X0063351Y0029601D02*
X0063351Y0030101D01*
X0063101Y0030351D01*
X0062350Y0030351D01*
X0062350Y0028850D01*
X0062350Y0029350D02*
X0063101Y0029350D01*
X0063351Y0029601D01*
X0062850Y0029350D02*
X0063351Y0028850D01*
X0063351Y0048850D02*
X0062850Y0049350D01*
X0063101Y0049350D02*
X0062350Y0049350D01*
X0062350Y0048850D02*
X0062350Y0050351D01*
X0063101Y0050351D01*
X0063351Y0050101D01*
X0063351Y0049601D01*
X0063101Y0049350D01*
X0063823Y0049100D02*
X0064073Y0048850D01*
X0064574Y0048850D01*
X0064824Y0049100D01*
X0064824Y0049350D01*
X0064574Y0049601D01*
X0064324Y0049601D01*
X0064574Y0049601D02*
X0064824Y0049851D01*
X0064824Y0050101D01*
X0064574Y0050351D01*
X0064073Y0050351D01*
X0063823Y0050101D01*
X0090850Y0050850D02*
X0091350Y0050850D01*
X0091100Y0050850D02*
X0091100Y0052351D01*
X0090850Y0052351D02*
X0091350Y0052351D01*
X0091832Y0052101D02*
X0091832Y0051100D01*
X0092082Y0050850D01*
X0092583Y0050850D01*
X0092833Y0051100D01*
X0093305Y0050850D02*
X0094306Y0051851D01*
X0094306Y0052101D01*
X0094056Y0052351D01*
X0093556Y0052351D01*
X0093305Y0052101D01*
X0092833Y0052101D02*
X0092583Y0052351D01*
X0092082Y0052351D01*
X0091832Y0052101D01*
X0093305Y0050850D02*
X0094306Y0050850D01*
X0064824Y0068850D02*
X0063823Y0068850D01*
X0064824Y0069851D01*
X0064824Y0070101D01*
X0064574Y0070351D01*
X0064073Y0070351D01*
X0063823Y0070101D01*
X0063351Y0070101D02*
X0063101Y0070351D01*
X0062350Y0070351D01*
X0062350Y0068850D01*
X0062350Y0069350D02*
X0063101Y0069350D01*
X0063351Y0069601D01*
X0063351Y0070101D01*
X0062850Y0069350D02*
X0063351Y0068850D01*
X0082350Y0078850D02*
X0083351Y0078850D01*
X0083823Y0078850D02*
X0084824Y0078850D01*
X0084324Y0078850D02*
X0084324Y0080351D01*
X0083823Y0079851D01*
X0082350Y0080351D02*
X0082350Y0078850D01*
X0102350Y0079100D02*
X0102600Y0078850D01*
X0103101Y0078850D01*
X0103351Y0079100D01*
X0103823Y0079100D02*
X0104073Y0078850D01*
X0104574Y0078850D01*
X0104824Y0079100D01*
X0104824Y0079350D01*
X0104574Y0079601D01*
X0104324Y0079601D01*
X0104574Y0079601D02*
X0104824Y0079851D01*
X0104824Y0080101D01*
X0104574Y0080351D01*
X0104073Y0080351D01*
X0103823Y0080101D01*
X0103351Y0080101D02*
X0103101Y0080351D01*
X0102600Y0080351D01*
X0102350Y0080101D01*
X0102350Y0079100D01*
X0122350Y0079100D02*
X0122600Y0078850D01*
X0123101Y0078850D01*
X0123351Y0079100D01*
X0123823Y0078850D02*
X0124824Y0078850D01*
X0124324Y0078850D02*
X0124324Y0080351D01*
X0123823Y0079851D01*
X0123351Y0080101D02*
X0123101Y0080351D01*
X0122600Y0080351D01*
X0122350Y0080101D01*
X0122350Y0079100D01*
X0171470Y0051407D02*
X0171720Y0051657D01*
X0172220Y0051657D01*
X0172470Y0051407D01*
X0172470Y0050906D02*
X0171970Y0050906D01*
X0172470Y0050906D02*
X0172470Y0050406D01*
X0172220Y0050156D01*
X0171720Y0050156D01*
X0171470Y0050406D01*
X0171470Y0051407D01*
X0172943Y0051657D02*
X0173944Y0050156D01*
X0173944Y0051657D01*
X0174416Y0051657D02*
X0175167Y0051657D01*
X0175417Y0051407D01*
X0175417Y0050406D01*
X0175167Y0050156D01*
X0174416Y0050156D01*
X0174416Y0051657D01*
X0172943Y0051657D02*
X0172943Y0050156D01*
X0172943Y0046145D02*
X0173693Y0046145D01*
X0173944Y0045895D01*
X0173944Y0044894D01*
X0173693Y0044644D01*
X0172943Y0044644D01*
X0172943Y0046145D01*
X0174416Y0045394D02*
X0175417Y0045394D01*
X0174917Y0045895D02*
X0174917Y0044894D01*
X0173693Y0043783D02*
X0172943Y0043783D01*
X0172943Y0042281D01*
X0173693Y0042281D01*
X0173944Y0042532D01*
X0173944Y0043533D01*
X0173693Y0043783D01*
X0174416Y0043032D02*
X0175417Y0043032D01*
X0175167Y0041421D02*
X0174666Y0041421D01*
X0174416Y0041170D01*
X0174416Y0040170D01*
X0174666Y0039919D01*
X0175167Y0039919D01*
X0175417Y0040170D01*
X0175417Y0041170D02*
X0175167Y0041421D01*
X0173944Y0041170D02*
X0173693Y0041421D01*
X0173193Y0041421D01*
X0172943Y0041170D01*
X0172943Y0040170D01*
X0173193Y0039919D01*
X0173693Y0039919D01*
X0173944Y0040170D01*
X0172470Y0040420D02*
X0172470Y0041421D01*
X0171470Y0041421D02*
X0171470Y0040420D01*
X0171970Y0039919D01*
X0172470Y0040420D01*
D14*
X0115643Y0018950D02*
X0114068Y0020524D01*
X0109737Y0020524D01*
X0115643Y0018950D02*
X0115643Y0012650D01*
X0114068Y0011076D01*
X0109737Y0011076D01*
X0101863Y0011076D02*
X0095957Y0011076D01*
X0095957Y0020524D01*
X0101863Y0020524D01*
D15*
X0107300Y0019800D02*
X0107300Y0011800D01*
X0144894Y0028083D02*
X0144894Y0063517D01*
X0156706Y0063517D01*
X0156706Y0028083D01*
X0144894Y0028083D01*
X0178595Y0031036D02*
X0178595Y0038007D01*
X0186113Y0038007D01*
X0186113Y0053693D01*
X0178595Y0053693D01*
X0178595Y0060564D01*
X0202217Y0060564D01*
X0202217Y0060367D01*
X0203398Y0061942D01*
X0202217Y0060367D02*
X0202217Y0031233D01*
X0203792Y0029658D01*
X0202217Y0031036D02*
X0178595Y0031036D01*
X0199461Y0031233D02*
X0199461Y0060367D01*
X0013350Y0016501D02*
X0013350Y0015750D01*
X0012599Y0015750D01*
X0012599Y0016501D01*
X0013350Y0016501D01*
D16*
X0015800Y0018300D02*
X0018300Y0015800D01*
X0023300Y0015800D01*
X0025800Y0018300D01*
X0025800Y0023300D01*
X0023300Y0025800D01*
X0025800Y0028300D01*
X0025800Y0033300D01*
X0023300Y0035800D01*
X0018300Y0035800D01*
X0015800Y0033300D01*
X0015800Y0028300D01*
X0018300Y0025800D01*
X0023300Y0025800D01*
X0018300Y0025800D02*
X0015800Y0023300D01*
X0015800Y0018300D01*
X0018300Y0035800D02*
X0015800Y0038300D01*
X0015800Y0043300D01*
X0018300Y0045800D01*
X0015800Y0048300D01*
X0015800Y0053300D01*
X0018300Y0055800D01*
X0015800Y0058300D01*
X0015800Y0063300D01*
X0018300Y0065800D01*
X0015800Y0068300D01*
X0015800Y0073300D01*
X0018300Y0075800D01*
X0023300Y0075800D01*
X0025800Y0073300D01*
X0025800Y0068300D01*
X0023300Y0065800D01*
X0025800Y0063300D01*
X0025800Y0058300D01*
X0023300Y0055800D01*
X0025800Y0053300D01*
X0025800Y0048300D01*
X0023300Y0045800D01*
X0025800Y0043300D01*
X0025800Y0038300D01*
X0023300Y0035800D01*
X0023300Y0045800D02*
X0018300Y0045800D01*
X0018300Y0055800D02*
X0023300Y0055800D01*
X0023300Y0065800D02*
X0018300Y0065800D01*
X0085328Y0057316D02*
X0085328Y0034284D01*
X0126272Y0034284D01*
X0126272Y0057316D01*
X0085328Y0057316D01*
X0087357Y0038123D02*
X0087359Y0038208D01*
X0087365Y0038292D01*
X0087375Y0038377D01*
X0087389Y0038460D01*
X0087406Y0038543D01*
X0087428Y0038625D01*
X0087454Y0038706D01*
X0087483Y0038786D01*
X0087516Y0038864D01*
X0087552Y0038940D01*
X0087592Y0039015D01*
X0087636Y0039088D01*
X0087683Y0039159D01*
X0087733Y0039227D01*
X0087786Y0039293D01*
X0087843Y0039356D01*
X0087902Y0039417D01*
X0087964Y0039475D01*
X0088029Y0039530D01*
X0088096Y0039582D01*
X0088165Y0039630D01*
X0088237Y0039675D01*
X0088311Y0039717D01*
X0088387Y0039755D01*
X0088464Y0039790D01*
X0088543Y0039821D01*
X0088623Y0039849D01*
X0088705Y0039872D01*
X0088787Y0039892D01*
X0088870Y0039908D01*
X0088954Y0039920D01*
X0089039Y0039928D01*
X0089124Y0039932D01*
X0089208Y0039932D01*
X0089293Y0039928D01*
X0089378Y0039920D01*
X0089462Y0039908D01*
X0089545Y0039892D01*
X0089627Y0039872D01*
X0089709Y0039849D01*
X0089789Y0039821D01*
X0089868Y0039790D01*
X0089945Y0039755D01*
X0090021Y0039717D01*
X0090095Y0039675D01*
X0090167Y0039630D01*
X0090236Y0039582D01*
X0090303Y0039530D01*
X0090368Y0039475D01*
X0090430Y0039417D01*
X0090489Y0039356D01*
X0090546Y0039293D01*
X0090599Y0039227D01*
X0090649Y0039159D01*
X0090696Y0039088D01*
X0090740Y0039015D01*
X0090780Y0038940D01*
X0090816Y0038864D01*
X0090849Y0038786D01*
X0090878Y0038706D01*
X0090904Y0038625D01*
X0090926Y0038543D01*
X0090943Y0038460D01*
X0090957Y0038377D01*
X0090967Y0038292D01*
X0090973Y0038208D01*
X0090975Y0038123D01*
X0090973Y0038038D01*
X0090967Y0037954D01*
X0090957Y0037869D01*
X0090943Y0037786D01*
X0090926Y0037703D01*
X0090904Y0037621D01*
X0090878Y0037540D01*
X0090849Y0037460D01*
X0090816Y0037382D01*
X0090780Y0037306D01*
X0090740Y0037231D01*
X0090696Y0037158D01*
X0090649Y0037087D01*
X0090599Y0037019D01*
X0090546Y0036953D01*
X0090489Y0036890D01*
X0090430Y0036829D01*
X0090368Y0036771D01*
X0090303Y0036716D01*
X0090236Y0036664D01*
X0090167Y0036616D01*
X0090095Y0036571D01*
X0090021Y0036529D01*
X0089945Y0036491D01*
X0089868Y0036456D01*
X0089789Y0036425D01*
X0089709Y0036397D01*
X0089627Y0036374D01*
X0089545Y0036354D01*
X0089462Y0036338D01*
X0089378Y0036326D01*
X0089293Y0036318D01*
X0089208Y0036314D01*
X0089124Y0036314D01*
X0089039Y0036318D01*
X0088954Y0036326D01*
X0088870Y0036338D01*
X0088787Y0036354D01*
X0088705Y0036374D01*
X0088623Y0036397D01*
X0088543Y0036425D01*
X0088464Y0036456D01*
X0088387Y0036491D01*
X0088311Y0036529D01*
X0088237Y0036571D01*
X0088165Y0036616D01*
X0088096Y0036664D01*
X0088029Y0036716D01*
X0087964Y0036771D01*
X0087902Y0036829D01*
X0087843Y0036890D01*
X0087786Y0036953D01*
X0087733Y0037019D01*
X0087683Y0037087D01*
X0087636Y0037158D01*
X0087592Y0037231D01*
X0087552Y0037306D01*
X0087516Y0037382D01*
X0087483Y0037460D01*
X0087454Y0037540D01*
X0087428Y0037621D01*
X0087406Y0037703D01*
X0087389Y0037786D01*
X0087375Y0037869D01*
X0087365Y0037954D01*
X0087359Y0038038D01*
X0087357Y0038123D01*
D17*
X0040600Y0041000D02*
X0035996Y0041000D01*
X0035996Y0043302D01*
X0036763Y0044069D01*
X0038298Y0044069D01*
X0039065Y0043302D01*
X0039065Y0041000D01*
X0039065Y0042535D02*
X0040600Y0044069D01*
X0040600Y0045604D02*
X0035996Y0048673D01*
X0035996Y0045604D02*
X0040600Y0048673D01*
X0035996Y0061000D02*
X0035996Y0064069D01*
X0035996Y0062535D02*
X0040600Y0062535D01*
X0040600Y0065604D02*
X0035996Y0068673D01*
X0035996Y0065604D02*
X0040600Y0068673D01*
X0040600Y0033277D02*
X0039065Y0031742D01*
X0039065Y0032510D02*
X0039065Y0030208D01*
X0040600Y0030208D02*
X0035996Y0030208D01*
X0035996Y0032510D01*
X0036763Y0033277D01*
X0038298Y0033277D01*
X0039065Y0032510D01*
X0040600Y0028673D02*
X0035996Y0028673D01*
X0039065Y0027139D02*
X0040600Y0028673D01*
X0039065Y0027139D02*
X0040600Y0025604D01*
X0035996Y0025604D01*
X0036763Y0024069D02*
X0038298Y0024069D01*
X0039065Y0023302D01*
X0039065Y0021000D01*
X0040600Y0021000D02*
X0035996Y0021000D01*
X0035996Y0023302D01*
X0036763Y0024069D01*
D18*
X0043438Y0026391D03*
X0048162Y0026391D03*
X0048162Y0046391D03*
X0043438Y0046391D03*
X0043438Y0066391D03*
X0048162Y0066391D03*
D19*
X0045800Y0066391D03*
X0045800Y0046391D03*
X0045800Y0026391D03*
D20*
X0065800Y0025800D03*
X0085800Y0015800D03*
X0065800Y0045800D03*
X0065800Y0065800D03*
D21*
X0171700Y0068100D03*
X0171700Y0068300D03*
X0171700Y0068500D03*
X0171700Y0068700D03*
X0172460Y0068700D03*
X0172460Y0068500D03*
X0172460Y0068300D03*
X0172460Y0067300D03*
X0172460Y0067100D03*
X0172460Y0066900D03*
X0172460Y0066700D03*
X0172460Y0066500D03*
X0172460Y0066300D03*
X0172460Y0065500D03*
X0172460Y0065300D03*
X0172460Y0065100D03*
X0172460Y0064900D03*
X0172460Y0064700D03*
X0172460Y0064500D03*
X0172460Y0064300D03*
X0175500Y0064300D03*
X0175500Y0064900D03*
X0175500Y0065700D03*
X0176340Y0065500D03*
X0176340Y0065300D03*
X0176340Y0065100D03*
X0176340Y0064900D03*
X0176340Y0064700D03*
X0176340Y0064500D03*
X0176340Y0064300D03*
X0177700Y0065100D03*
X0177700Y0065300D03*
X0177700Y0065500D03*
X0178860Y0065500D03*
X0178860Y0065300D03*
X0178860Y0065100D03*
X0178860Y0064300D03*
X0179660Y0065700D03*
X0179540Y0066100D03*
X0179500Y0066300D03*
X0178860Y0066300D03*
X0178860Y0066500D03*
X0178860Y0066700D03*
X0178860Y0066900D03*
X0178860Y0067100D03*
X0179060Y0067900D03*
X0179060Y0068900D03*
X0177460Y0068700D03*
X0177460Y0068500D03*
X0177460Y0068300D03*
X0177460Y0068100D03*
X0177460Y0067900D03*
X0177460Y0067700D03*
X0177460Y0067500D03*
X0176300Y0068700D03*
X0175540Y0068700D03*
X0174340Y0068100D03*
X0176340Y0066300D03*
X0180700Y0066100D03*
X0181700Y0065700D03*
X0183500Y0065700D03*
X0183500Y0064900D03*
X0184340Y0064900D03*
X0184340Y0065100D03*
X0184340Y0065300D03*
X0184340Y0065500D03*
X0184340Y0064700D03*
X0184340Y0064500D03*
X0184340Y0064300D03*
X0185740Y0064900D03*
X0185740Y0065700D03*
X0184340Y0066300D03*
X0184860Y0067500D03*
X0184860Y0067700D03*
X0184860Y0067900D03*
X0184860Y0068100D03*
X0184860Y0068300D03*
X0184860Y0068500D03*
X0184860Y0068700D03*
X0186140Y0068500D03*
X0186140Y0068300D03*
X0187860Y0068700D03*
X0187940Y0068900D03*
X0182100Y0068500D03*
X0182060Y0068700D03*
X0182060Y0068100D03*
X0180860Y0068100D03*
X0180860Y0068300D03*
X0180860Y0068500D03*
X0180860Y0068700D03*
D22*
X0180220Y0068100D03*
X0179620Y0065900D03*
X0181780Y0065900D03*
X0181820Y0066100D03*
X0182820Y0068300D03*
X0182820Y0068500D03*
X0182820Y0068700D03*
X0182820Y0068900D03*
X0182820Y0069100D03*
X0182820Y0069300D03*
X0184020Y0069300D03*
X0184020Y0069100D03*
X0184020Y0068900D03*
X0184020Y0068700D03*
X0184020Y0068500D03*
X0184020Y0068300D03*
X0186180Y0068100D03*
X0186180Y0068700D03*
X0173620Y0068700D03*
X0173620Y0068500D03*
X0173620Y0068300D03*
X0173620Y0068100D03*
X0173620Y0065500D03*
X0173620Y0065300D03*
X0173620Y0065100D03*
X0173620Y0064900D03*
X0173620Y0064700D03*
X0173620Y0064500D03*
X0173620Y0064300D03*
D23*
X0174820Y0064300D03*
X0182820Y0064300D03*
X0186380Y0064300D03*
D24*
X0186320Y0066300D03*
X0181960Y0067900D03*
X0179160Y0068700D03*
X0175320Y0071100D03*
X0174440Y0067900D03*
X0173520Y0067900D03*
X0178160Y0064300D03*
X0180680Y0065900D03*
X0184240Y0071100D03*
D25*
X0177500Y0071700D03*
X0170500Y0068500D03*
X0180100Y0064300D03*
D26*
X0180400Y0065300D03*
X0179800Y0065300D03*
X0179720Y0065500D03*
X0181600Y0065300D03*
X0181640Y0065500D03*
X0182320Y0064900D03*
X0181280Y0064300D03*
X0183520Y0064300D03*
X0182080Y0068300D03*
X0187240Y0067900D03*
X0187880Y0068100D03*
X0189040Y0068700D03*
X0176280Y0068500D03*
X0176280Y0068300D03*
X0176280Y0068100D03*
X0176280Y0067900D03*
X0176280Y0067700D03*
X0176280Y0067500D03*
X0174320Y0068700D03*
X0170520Y0068700D03*
X0170520Y0068300D03*
X0170520Y0068100D03*
X0174320Y0064900D03*
D27*
X0174340Y0065020D03*
X0174340Y0064780D03*
X0175500Y0064820D03*
X0175500Y0064860D03*
X0175500Y0064940D03*
X0175500Y0064980D03*
X0175500Y0065020D03*
X0175500Y0065060D03*
X0175500Y0065540D03*
X0175500Y0065580D03*
X0175500Y0065620D03*
X0175500Y0065660D03*
X0175500Y0065740D03*
X0175500Y0065780D03*
X0176340Y0065580D03*
X0176340Y0065540D03*
X0176340Y0065460D03*
X0176340Y0065420D03*
X0176340Y0065380D03*
X0176340Y0065340D03*
X0176340Y0065260D03*
X0176340Y0065220D03*
X0176340Y0065180D03*
X0176340Y0065140D03*
X0176340Y0065060D03*
X0176340Y0065020D03*
X0176340Y0064980D03*
X0176340Y0064940D03*
X0176340Y0064860D03*
X0176340Y0064820D03*
X0176340Y0064780D03*
X0176340Y0064740D03*
X0176340Y0064660D03*
X0176340Y0064620D03*
X0176340Y0064580D03*
X0176340Y0064540D03*
X0176340Y0064460D03*
X0176340Y0064420D03*
X0176340Y0064380D03*
X0176340Y0064340D03*
X0177700Y0064980D03*
X0177700Y0065020D03*
X0177700Y0065060D03*
X0177700Y0065140D03*
X0177700Y0065180D03*
X0177700Y0065220D03*
X0177700Y0065260D03*
X0177700Y0065340D03*
X0177700Y0065380D03*
X0177700Y0065420D03*
X0177700Y0065460D03*
X0177700Y0065540D03*
X0177700Y0065580D03*
X0177700Y0065620D03*
X0178860Y0065620D03*
X0178860Y0065580D03*
X0178860Y0065540D03*
X0178860Y0065460D03*
X0178860Y0065420D03*
X0178860Y0065380D03*
X0178860Y0065340D03*
X0178860Y0065260D03*
X0178860Y0065220D03*
X0178860Y0065180D03*
X0178860Y0065140D03*
X0178860Y0065060D03*
X0178860Y0065020D03*
X0178860Y0064980D03*
X0178860Y0064340D03*
X0180100Y0064380D03*
X0180100Y0064420D03*
X0179740Y0065460D03*
X0179700Y0065580D03*
X0179700Y0065620D03*
X0179660Y0065740D03*
X0179660Y0065780D03*
X0179540Y0066140D03*
X0179540Y0066180D03*
X0179500Y0066260D03*
X0178860Y0066260D03*
X0178860Y0066340D03*
X0178860Y0066380D03*
X0178860Y0066420D03*
X0178860Y0066460D03*
X0178860Y0066540D03*
X0178860Y0066580D03*
X0178860Y0066620D03*
X0178860Y0066660D03*
X0178860Y0066740D03*
X0178860Y0066780D03*
X0178860Y0066820D03*
X0178860Y0066860D03*
X0178860Y0066940D03*
X0178860Y0066980D03*
X0178860Y0067020D03*
X0178860Y0067060D03*
X0177460Y0067380D03*
X0177460Y0067420D03*
X0177460Y0067460D03*
X0177460Y0067540D03*
X0177460Y0067580D03*
X0177460Y0067620D03*
X0177460Y0067660D03*
X0177460Y0067740D03*
X0177460Y0067780D03*
X0177460Y0067820D03*
X0177460Y0067860D03*
X0177460Y0067940D03*
X0177460Y0067980D03*
X0177460Y0068020D03*
X0177460Y0068060D03*
X0177460Y0068140D03*
X0177460Y0068180D03*
X0177460Y0068220D03*
X0177460Y0068260D03*
X0177460Y0068340D03*
X0177460Y0068380D03*
X0177460Y0068420D03*
X0177460Y0068460D03*
X0177460Y0068540D03*
X0177460Y0068580D03*
X0177460Y0068620D03*
X0177460Y0068660D03*
X0177460Y0068740D03*
X0176300Y0068740D03*
X0176300Y0068780D03*
X0175500Y0068780D03*
X0175500Y0068820D03*
X0175500Y0068740D03*
X0174340Y0068740D03*
X0174340Y0068780D03*
X0174340Y0068660D03*
X0174340Y0068140D03*
X0174340Y0068060D03*
X0174340Y0068020D03*
X0172460Y0068140D03*
X0172460Y0068180D03*
X0172460Y0068220D03*
X0172460Y0068260D03*
X0172460Y0068340D03*
X0172460Y0068380D03*
X0172460Y0068420D03*
X0172460Y0068460D03*
X0172460Y0068540D03*
X0172460Y0068580D03*
X0172460Y0068620D03*
X0172460Y0068660D03*
X0172460Y0069380D03*
X0172460Y0069420D03*
X0171660Y0068820D03*
X0171700Y0068740D03*
X0171700Y0068660D03*
X0171700Y0068620D03*
X0171700Y0068580D03*
X0171700Y0068540D03*
X0171700Y0068460D03*
X0171700Y0068420D03*
X0171700Y0068380D03*
X0171700Y0068340D03*
X0171700Y0068260D03*
X0171700Y0068220D03*
X0171700Y0068180D03*
X0171700Y0068140D03*
X0171660Y0068020D03*
X0172460Y0067460D03*
X0172460Y0067420D03*
X0172460Y0067380D03*
X0172460Y0067340D03*
X0172460Y0067260D03*
X0172460Y0067220D03*
X0172460Y0067180D03*
X0172460Y0067140D03*
X0172460Y0067060D03*
X0172460Y0067020D03*
X0172460Y0066980D03*
X0172460Y0066940D03*
X0172460Y0066860D03*
X0172460Y0066820D03*
X0172460Y0066780D03*
X0172460Y0066740D03*
X0172460Y0066660D03*
X0172460Y0066620D03*
X0172460Y0066580D03*
X0172460Y0066540D03*
X0172460Y0066460D03*
X0172460Y0066420D03*
X0172460Y0066380D03*
X0172460Y0066340D03*
X0172460Y0066260D03*
X0172460Y0065620D03*
X0172460Y0065580D03*
X0172460Y0065540D03*
X0172460Y0065460D03*
X0172460Y0065420D03*
X0172460Y0065380D03*
X0172460Y0065340D03*
X0172460Y0065260D03*
X0172460Y0065220D03*
X0172460Y0065180D03*
X0172460Y0065140D03*
X0172460Y0065060D03*
X0172460Y0065020D03*
X0172460Y0064980D03*
X0172460Y0064940D03*
X0172460Y0064860D03*
X0172460Y0064820D03*
X0172460Y0064780D03*
X0172460Y0064740D03*
X0172460Y0064660D03*
X0172460Y0064620D03*
X0172460Y0064580D03*
X0172460Y0064540D03*
X0172460Y0064460D03*
X0172460Y0064420D03*
X0172460Y0064380D03*
X0172460Y0064340D03*
X0176340Y0066220D03*
X0176340Y0066260D03*
X0180900Y0068020D03*
X0180900Y0068060D03*
X0180860Y0068140D03*
X0180860Y0068180D03*
X0180860Y0068220D03*
X0180860Y0068260D03*
X0180860Y0068340D03*
X0180860Y0068380D03*
X0180860Y0068420D03*
X0180860Y0068460D03*
X0180860Y0068540D03*
X0180860Y0068580D03*
X0180860Y0068620D03*
X0180860Y0068660D03*
X0180860Y0068740D03*
X0180900Y0068780D03*
X0180900Y0068820D03*
X0182060Y0068780D03*
X0182060Y0068740D03*
X0182060Y0068660D03*
X0182100Y0068460D03*
X0182100Y0068420D03*
X0182100Y0068380D03*
X0182100Y0068340D03*
X0182060Y0068180D03*
X0182060Y0068140D03*
X0182060Y0068060D03*
X0179060Y0068780D03*
X0179060Y0068820D03*
X0179060Y0068860D03*
X0179100Y0068940D03*
X0175300Y0071060D03*
X0170540Y0068820D03*
X0170540Y0068020D03*
X0181300Y0064380D03*
X0182340Y0064780D03*
X0182340Y0064820D03*
X0182340Y0065020D03*
X0181660Y0065540D03*
X0181700Y0065660D03*
X0181740Y0065780D03*
X0181740Y0065820D03*
X0181740Y0065860D03*
X0181860Y0066180D03*
X0181860Y0066220D03*
X0183500Y0065780D03*
X0183500Y0065740D03*
X0183500Y0065540D03*
X0183500Y0064980D03*
X0183500Y0064940D03*
X0183500Y0064860D03*
X0183500Y0064820D03*
X0184340Y0064820D03*
X0184340Y0064860D03*
X0184340Y0064940D03*
X0184340Y0064980D03*
X0184340Y0065020D03*
X0184340Y0065060D03*
X0184340Y0065140D03*
X0184340Y0065180D03*
X0184340Y0065220D03*
X0184340Y0065260D03*
X0184340Y0065340D03*
X0184340Y0065380D03*
X0184340Y0065420D03*
X0184340Y0065460D03*
X0184340Y0065540D03*
X0184340Y0066220D03*
X0184340Y0066260D03*
X0184340Y0064780D03*
X0184340Y0064740D03*
X0184340Y0064660D03*
X0184340Y0064620D03*
X0184340Y0064580D03*
X0184340Y0064540D03*
X0184340Y0064460D03*
X0184340Y0064420D03*
X0184340Y0064380D03*
X0184340Y0064340D03*
X0185740Y0064940D03*
X0185700Y0065060D03*
X0185740Y0065660D03*
X0186900Y0065660D03*
X0186900Y0065620D03*
X0186900Y0065580D03*
X0186900Y0065540D03*
X0187900Y0068020D03*
X0187900Y0068060D03*
X0187860Y0068140D03*
X0187860Y0068180D03*
X0187860Y0068660D03*
X0187900Y0068820D03*
X0188900Y0067860D03*
X0186140Y0068180D03*
X0186140Y0068220D03*
X0186140Y0068260D03*
X0186140Y0068340D03*
X0186140Y0068380D03*
X0186140Y0068420D03*
X0186140Y0068460D03*
X0186140Y0068540D03*
X0186140Y0068580D03*
X0186140Y0068620D03*
X0186140Y0068660D03*
X0184860Y0068660D03*
X0184860Y0068620D03*
X0184860Y0068580D03*
X0184860Y0068540D03*
X0184860Y0068460D03*
X0184860Y0068420D03*
X0184860Y0068380D03*
X0184860Y0068340D03*
X0184860Y0068260D03*
X0184860Y0068220D03*
X0184860Y0068180D03*
X0184860Y0068140D03*
X0184860Y0068060D03*
X0184860Y0068020D03*
X0184860Y0067980D03*
X0184860Y0067940D03*
X0184860Y0067860D03*
X0184860Y0067820D03*
X0184860Y0067780D03*
X0184860Y0067740D03*
X0184860Y0067660D03*
X0184860Y0067620D03*
X0184860Y0067580D03*
X0184860Y0067540D03*
X0184860Y0067460D03*
X0184860Y0067420D03*
X0184860Y0068740D03*
X0184860Y0068780D03*
X0184860Y0069380D03*
X0184860Y0069420D03*
X0184260Y0071060D03*
D28*
X0184020Y0069420D03*
X0184020Y0069380D03*
X0184020Y0069340D03*
X0184020Y0069260D03*
X0184020Y0069220D03*
X0184020Y0069180D03*
X0184020Y0069140D03*
X0184020Y0069060D03*
X0184020Y0069020D03*
X0184020Y0068980D03*
X0184020Y0068940D03*
X0184020Y0068860D03*
X0184020Y0068820D03*
X0184020Y0068780D03*
X0184020Y0068740D03*
X0184020Y0068660D03*
X0184020Y0068620D03*
X0184020Y0068580D03*
X0184020Y0068540D03*
X0184020Y0068460D03*
X0184020Y0068420D03*
X0184020Y0068380D03*
X0184020Y0068340D03*
X0184020Y0068260D03*
X0184020Y0068220D03*
X0184020Y0068180D03*
X0184020Y0068140D03*
X0184020Y0067460D03*
X0184020Y0067420D03*
X0182820Y0068140D03*
X0182820Y0068180D03*
X0182820Y0068220D03*
X0182820Y0068260D03*
X0182820Y0068340D03*
X0182820Y0068380D03*
X0182820Y0068420D03*
X0182820Y0068460D03*
X0182820Y0068540D03*
X0182820Y0068580D03*
X0182820Y0068620D03*
X0182820Y0068660D03*
X0182820Y0068740D03*
X0182820Y0068780D03*
X0182820Y0068820D03*
X0182820Y0068860D03*
X0182820Y0068940D03*
X0182820Y0068980D03*
X0182820Y0069020D03*
X0182820Y0069060D03*
X0182820Y0069140D03*
X0182820Y0069180D03*
X0182820Y0069220D03*
X0182820Y0069260D03*
X0182820Y0069340D03*
X0182820Y0069380D03*
X0182820Y0069420D03*
X0186180Y0068740D03*
X0186180Y0068140D03*
X0185780Y0065740D03*
X0185780Y0064860D03*
X0181820Y0066020D03*
X0181820Y0066060D03*
X0181780Y0065980D03*
X0181780Y0065940D03*
X0181620Y0065420D03*
X0181620Y0065380D03*
X0181580Y0065260D03*
X0179780Y0065340D03*
X0179620Y0065820D03*
X0179620Y0065860D03*
X0179580Y0065940D03*
X0179580Y0065980D03*
X0179580Y0066020D03*
X0179620Y0067380D03*
X0180220Y0067980D03*
X0180220Y0068020D03*
X0180220Y0068060D03*
X0179620Y0069460D03*
X0175380Y0067860D03*
X0174380Y0067980D03*
X0173620Y0068140D03*
X0173620Y0068180D03*
X0173620Y0068220D03*
X0173620Y0068260D03*
X0173620Y0068340D03*
X0173620Y0068380D03*
X0173620Y0068460D03*
X0173620Y0068540D03*
X0173620Y0068580D03*
X0173620Y0068620D03*
X0173620Y0068660D03*
X0173620Y0068740D03*
X0174380Y0068860D03*
X0173620Y0065660D03*
X0173620Y0065620D03*
X0173620Y0065580D03*
X0173620Y0065540D03*
X0173620Y0065460D03*
X0173620Y0065420D03*
X0173620Y0065380D03*
X0173620Y0065340D03*
X0173620Y0065260D03*
X0173620Y0065220D03*
X0173620Y0065180D03*
X0173620Y0065140D03*
X0173620Y0065060D03*
X0173620Y0065020D03*
X0173620Y0064980D03*
X0173620Y0064940D03*
X0173620Y0064860D03*
X0173620Y0064820D03*
X0173620Y0064780D03*
X0173620Y0064740D03*
X0173620Y0064660D03*
X0173620Y0064620D03*
X0173620Y0064580D03*
X0173620Y0064540D03*
X0173620Y0064460D03*
X0173620Y0064420D03*
X0173620Y0064380D03*
X0173620Y0064340D03*
X0189020Y0068820D03*
X0189020Y0068860D03*
D29*
X0186820Y0069180D03*
X0186820Y0067660D03*
X0185300Y0069220D03*
X0185300Y0069340D03*
X0181460Y0069140D03*
X0179660Y0069260D03*
X0179620Y0068460D03*
X0179660Y0068420D03*
X0179700Y0068380D03*
X0179580Y0067580D03*
X0178420Y0066220D03*
X0176780Y0066060D03*
X0175060Y0065420D03*
X0175060Y0064340D03*
X0172900Y0066220D03*
X0171100Y0069140D03*
X0172900Y0069340D03*
X0174940Y0069140D03*
X0176740Y0069340D03*
X0184780Y0066060D03*
X0183060Y0065420D03*
X0183060Y0064340D03*
X0178420Y0064380D03*
D30*
X0178160Y0064340D03*
X0178720Y0064740D03*
X0180080Y0064820D03*
X0180080Y0064860D03*
X0180680Y0065660D03*
X0181280Y0064860D03*
X0181280Y0064820D03*
X0186320Y0066260D03*
X0179600Y0067420D03*
X0179640Y0069420D03*
X0177400Y0071860D03*
X0182160Y0071860D03*
X0184200Y0082540D03*
X0175360Y0082540D03*
D31*
X0175320Y0082660D03*
X0184240Y0082660D03*
X0184000Y0069460D03*
X0184840Y0069460D03*
X0182840Y0069460D03*
X0182080Y0068620D03*
X0182080Y0068580D03*
X0182080Y0068540D03*
X0182080Y0068260D03*
X0182080Y0068220D03*
X0181480Y0067380D03*
X0180680Y0066180D03*
X0180680Y0066140D03*
X0180440Y0065460D03*
X0180440Y0065420D03*
X0180360Y0065180D03*
X0179840Y0065180D03*
X0179840Y0065140D03*
X0179800Y0065220D03*
X0179800Y0065260D03*
X0179760Y0065380D03*
X0179760Y0065420D03*
X0179720Y0065540D03*
X0179680Y0065660D03*
X0180960Y0065380D03*
X0180960Y0065340D03*
X0181000Y0065260D03*
X0181000Y0065220D03*
X0181560Y0065220D03*
X0181560Y0065180D03*
X0181600Y0065340D03*
X0181640Y0065460D03*
X0181680Y0065580D03*
X0181680Y0065620D03*
X0181720Y0065740D03*
X0182320Y0064980D03*
X0182320Y0064940D03*
X0182320Y0064860D03*
X0181280Y0064340D03*
X0180080Y0064340D03*
X0182880Y0066340D03*
X0183520Y0065660D03*
X0183520Y0065620D03*
X0183520Y0065580D03*
X0183520Y0065060D03*
X0183520Y0065020D03*
X0185720Y0065020D03*
X0185720Y0064980D03*
X0185720Y0065540D03*
X0185720Y0065580D03*
X0185720Y0065620D03*
X0186760Y0064740D03*
X0188520Y0067380D03*
X0184840Y0067380D03*
X0184000Y0067380D03*
X0187880Y0068740D03*
X0187880Y0068780D03*
X0189040Y0068780D03*
X0189040Y0068740D03*
X0189040Y0068660D03*
X0186840Y0069460D03*
X0181480Y0069460D03*
X0180040Y0068980D03*
X0178880Y0067140D03*
X0176280Y0067380D03*
X0176280Y0067420D03*
X0176280Y0067460D03*
X0176280Y0067540D03*
X0176280Y0067580D03*
X0176280Y0067620D03*
X0176280Y0067660D03*
X0176280Y0067740D03*
X0176280Y0067780D03*
X0176280Y0067820D03*
X0176280Y0067860D03*
X0176280Y0067940D03*
X0176280Y0067980D03*
X0176280Y0068020D03*
X0176280Y0068060D03*
X0176280Y0068140D03*
X0176280Y0068180D03*
X0176280Y0068220D03*
X0176280Y0068260D03*
X0176280Y0068340D03*
X0176280Y0068380D03*
X0176280Y0068420D03*
X0176280Y0068460D03*
X0176280Y0068540D03*
X0176280Y0068580D03*
X0176280Y0068620D03*
X0176280Y0068660D03*
X0176280Y0069380D03*
X0176280Y0069420D03*
X0176280Y0069460D03*
X0174360Y0068820D03*
X0174320Y0068180D03*
X0173640Y0068420D03*
X0172440Y0069460D03*
X0171080Y0069460D03*
X0170520Y0068780D03*
X0170520Y0068740D03*
X0170520Y0068660D03*
X0170520Y0068620D03*
X0170520Y0068580D03*
X0170520Y0068540D03*
X0170520Y0068260D03*
X0170520Y0068220D03*
X0170520Y0068180D03*
X0170520Y0068140D03*
X0170520Y0068060D03*
X0174880Y0066340D03*
X0174320Y0064980D03*
X0174320Y0064940D03*
X0174320Y0064860D03*
X0174320Y0064820D03*
D32*
X0180080Y0065060D03*
X0186360Y0064340D03*
X0186320Y0066220D03*
X0188520Y0067460D03*
X0188480Y0069340D03*
X0174920Y0069340D03*
D33*
X0172920Y0067540D03*
X0172920Y0066180D03*
X0175040Y0064380D03*
X0181480Y0067740D03*
X0179680Y0069220D03*
X0182920Y0066060D03*
X0183040Y0065380D03*
X0183040Y0064380D03*
X0186320Y0065980D03*
X0188520Y0067660D03*
X0185320Y0069260D03*
X0184160Y0071420D03*
D34*
X0179900Y0068220D03*
X0186380Y0064380D03*
X0171100Y0067540D03*
X0175380Y0082420D03*
X0184180Y0082420D03*
D35*
X0184160Y0071460D03*
X0186760Y0068980D03*
X0186760Y0067860D03*
X0186840Y0067740D03*
X0182960Y0065980D03*
X0183000Y0065340D03*
X0183000Y0064460D03*
X0186360Y0064660D03*
X0186400Y0064580D03*
X0179600Y0069060D03*
X0176800Y0069220D03*
X0174960Y0067780D03*
X0172960Y0067620D03*
X0172960Y0069220D03*
X0175400Y0071460D03*
X0175000Y0065340D03*
X0175000Y0064420D03*
D36*
X0178400Y0064420D03*
X0178400Y0066180D03*
X0175000Y0067660D03*
X0175400Y0071420D03*
D37*
X0177480Y0071740D03*
X0182080Y0071740D03*
X0182040Y0068860D03*
X0182040Y0068820D03*
X0182040Y0068020D03*
X0182040Y0067980D03*
X0182000Y0067940D03*
X0182840Y0068060D03*
X0182880Y0068020D03*
X0182880Y0067980D03*
X0184000Y0068060D03*
X0184880Y0068820D03*
X0186200Y0068820D03*
X0186200Y0068780D03*
X0186240Y0068860D03*
X0186200Y0068060D03*
X0186200Y0068020D03*
X0186240Y0067980D03*
X0187920Y0067980D03*
X0187960Y0067940D03*
X0187920Y0068860D03*
X0186840Y0065780D03*
X0186880Y0065740D03*
X0185800Y0065780D03*
X0185800Y0064820D03*
X0184360Y0065580D03*
X0184360Y0065620D03*
X0184360Y0065660D03*
X0183480Y0065820D03*
X0183480Y0064780D03*
X0181840Y0066140D03*
X0181880Y0066260D03*
X0180680Y0066060D03*
X0180680Y0066020D03*
X0179560Y0066060D03*
X0179520Y0066220D03*
X0178840Y0065660D03*
X0178840Y0064940D03*
X0178840Y0064860D03*
X0177760Y0064820D03*
X0177720Y0064860D03*
X0177720Y0064940D03*
X0177720Y0065660D03*
X0176360Y0065660D03*
X0176360Y0065620D03*
X0175480Y0065820D03*
X0175480Y0064780D03*
X0172480Y0065660D03*
X0172480Y0068020D03*
X0172480Y0068060D03*
X0172480Y0068740D03*
X0172480Y0068780D03*
X0172480Y0068820D03*
X0171680Y0068780D03*
X0171640Y0068860D03*
X0171680Y0068060D03*
X0171640Y0067980D03*
X0170560Y0067980D03*
X0170560Y0068860D03*
X0173600Y0068860D03*
X0173600Y0068820D03*
X0173600Y0068780D03*
X0173600Y0068060D03*
X0173600Y0068020D03*
X0173600Y0067980D03*
X0174400Y0067940D03*
X0175520Y0068660D03*
X0175480Y0068860D03*
X0176320Y0068860D03*
X0176320Y0068820D03*
X0177440Y0068820D03*
X0177440Y0068780D03*
X0179080Y0068740D03*
X0180200Y0068140D03*
X0180200Y0067940D03*
X0180920Y0067980D03*
X0180920Y0068860D03*
X0181280Y0064460D03*
X0181280Y0064420D03*
X0180080Y0064460D03*
D38*
X0178380Y0064460D03*
X0175020Y0065380D03*
X0174980Y0065940D03*
X0174900Y0066060D03*
X0176820Y0066140D03*
X0176820Y0066180D03*
X0178380Y0066140D03*
X0179580Y0067620D03*
X0179580Y0069020D03*
X0176780Y0069260D03*
X0174940Y0069060D03*
X0172940Y0069260D03*
X0172940Y0067580D03*
X0171100Y0067740D03*
X0171100Y0067780D03*
X0171100Y0069060D03*
X0172940Y0066140D03*
X0182980Y0065940D03*
X0184820Y0066140D03*
X0184820Y0066180D03*
X0186340Y0065940D03*
X0186380Y0064540D03*
X0183020Y0064420D03*
X0183540Y0067540D03*
X0186820Y0069140D03*
X0188460Y0069060D03*
X0188460Y0067820D03*
X0184140Y0082260D03*
X0175420Y0082260D03*
D39*
X0174920Y0069260D03*
X0171080Y0069260D03*
X0181480Y0069260D03*
X0181480Y0067580D03*
X0185200Y0068980D03*
X0188480Y0069260D03*
X0188520Y0067540D03*
X0186360Y0064420D03*
D40*
X0186380Y0064620D03*
X0182980Y0065260D03*
X0183500Y0067620D03*
X0183500Y0067660D03*
X0181460Y0067820D03*
X0181460Y0069020D03*
X0179660Y0069140D03*
X0176820Y0069140D03*
X0176820Y0069180D03*
X0174980Y0067740D03*
X0172980Y0067660D03*
X0172980Y0069180D03*
X0171100Y0069020D03*
X0171100Y0068980D03*
X0171100Y0067860D03*
X0171100Y0067820D03*
X0172980Y0066060D03*
X0172980Y0066020D03*
X0174940Y0065980D03*
X0178340Y0066020D03*
X0178340Y0066060D03*
X0178340Y0064540D03*
X0174980Y0064460D03*
X0186780Y0067820D03*
X0186820Y0067780D03*
X0186780Y0069020D03*
X0186820Y0069060D03*
X0188500Y0067780D03*
X0184140Y0082220D03*
X0175420Y0082220D03*
D41*
X0175380Y0071380D03*
X0184180Y0071380D03*
X0186820Y0069220D03*
X0186820Y0067620D03*
X0186380Y0064460D03*
D42*
X0182980Y0064500D03*
X0182980Y0065300D03*
X0174980Y0065300D03*
X0174980Y0064500D03*
D43*
X0178360Y0064500D03*
X0178360Y0066100D03*
X0175000Y0067700D03*
X0172960Y0066100D03*
X0179640Y0069100D03*
X0186840Y0069100D03*
D44*
X0186260Y0068900D03*
X0184900Y0068900D03*
X0187980Y0067900D03*
X0185060Y0066300D03*
X0184380Y0065700D03*
X0180100Y0064500D03*
X0177060Y0066300D03*
X0180180Y0067900D03*
X0180940Y0068900D03*
X0177380Y0068900D03*
X0176340Y0068900D03*
X0175460Y0068900D03*
X0173580Y0068900D03*
X0172500Y0068900D03*
X0171620Y0068900D03*
X0170580Y0068900D03*
D45*
X0172480Y0068100D03*
X0174400Y0068900D03*
X0173160Y0066300D03*
X0173600Y0065700D03*
X0172480Y0065700D03*
X0176360Y0065700D03*
X0177720Y0065700D03*
X0178160Y0066300D03*
X0178840Y0065700D03*
X0178840Y0064900D03*
X0177720Y0064900D03*
X0181280Y0064500D03*
X0181880Y0066300D03*
X0182840Y0068100D03*
X0182000Y0068900D03*
X0184000Y0068100D03*
X0186880Y0065700D03*
X0189000Y0068900D03*
D46*
X0183580Y0067500D03*
X0181460Y0067700D03*
X0179580Y0068500D03*
X0182940Y0066100D03*
X0186380Y0064500D03*
X0172900Y0067500D03*
X0171100Y0067700D03*
D47*
X0173000Y0067740D03*
X0173000Y0069140D03*
X0176840Y0069060D03*
X0179560Y0067660D03*
X0181480Y0067860D03*
X0181480Y0068980D03*
X0178320Y0065980D03*
X0178320Y0065940D03*
X0178320Y0064660D03*
X0178320Y0064620D03*
X0178320Y0064580D03*
X0174960Y0064540D03*
X0174960Y0065220D03*
X0174960Y0065260D03*
X0173000Y0065980D03*
X0182960Y0065220D03*
X0182960Y0064580D03*
X0182960Y0064540D03*
D48*
X0182380Y0064740D03*
X0182380Y0065060D03*
X0180700Y0065980D03*
X0178820Y0065740D03*
X0178820Y0064820D03*
X0177780Y0064780D03*
X0177740Y0065740D03*
X0177780Y0065780D03*
X0176380Y0065740D03*
X0174380Y0065060D03*
X0174380Y0064740D03*
X0173580Y0065740D03*
X0172500Y0065740D03*
X0173180Y0067420D03*
X0173580Y0067940D03*
X0173540Y0068940D03*
X0174420Y0068940D03*
X0175420Y0068940D03*
X0176980Y0069420D03*
X0177420Y0068860D03*
X0179140Y0068980D03*
X0180980Y0068940D03*
X0180940Y0067940D03*
X0182900Y0067940D03*
X0183300Y0067420D03*
X0183980Y0067980D03*
X0183980Y0068020D03*
X0184900Y0068860D03*
X0185540Y0069420D03*
X0187980Y0068940D03*
X0188980Y0068940D03*
X0186260Y0067940D03*
X0185820Y0065820D03*
X0186820Y0065820D03*
X0185820Y0064780D03*
X0184380Y0065740D03*
X0180100Y0064540D03*
X0172500Y0067980D03*
X0172500Y0068860D03*
X0171620Y0067940D03*
X0170580Y0067940D03*
X0175340Y0082620D03*
X0184220Y0082620D03*
D49*
X0182120Y0071780D03*
X0177440Y0071780D03*
X0173160Y0069420D03*
X0174480Y0068980D03*
X0172520Y0067940D03*
X0172520Y0065780D03*
X0173560Y0065780D03*
X0175440Y0064740D03*
X0180080Y0064580D03*
X0181280Y0064580D03*
X0181280Y0064540D03*
X0181280Y0064620D03*
X0180680Y0065940D03*
X0183440Y0064740D03*
X0185880Y0064740D03*
X0183960Y0067940D03*
X0181960Y0068940D03*
X0177360Y0068940D03*
X0188920Y0068980D03*
D50*
X0183460Y0067820D03*
X0183460Y0067780D03*
X0183460Y0067740D03*
X0182940Y0065180D03*
X0182940Y0065140D03*
X0182940Y0064660D03*
X0182940Y0064620D03*
X0176860Y0068980D03*
X0176860Y0069020D03*
X0173020Y0069020D03*
X0173020Y0069060D03*
X0173020Y0068980D03*
X0173020Y0067860D03*
X0173020Y0067820D03*
X0173020Y0067780D03*
X0173020Y0065940D03*
X0173020Y0065860D03*
X0174940Y0065180D03*
X0174940Y0065140D03*
X0174940Y0064620D03*
X0174940Y0064580D03*
D51*
X0173540Y0065820D03*
X0172540Y0065820D03*
X0171100Y0067420D03*
X0172540Y0068940D03*
X0171100Y0069420D03*
X0174500Y0067860D03*
X0175380Y0068980D03*
X0174940Y0069420D03*
X0176380Y0068940D03*
X0179100Y0067860D03*
X0180140Y0067860D03*
X0181460Y0067420D03*
X0180700Y0065860D03*
X0180100Y0064660D03*
X0180100Y0064620D03*
X0181300Y0064660D03*
X0183420Y0065860D03*
X0185900Y0065860D03*
X0186820Y0067420D03*
X0186300Y0068940D03*
X0186820Y0069420D03*
X0188460Y0069420D03*
X0184940Y0068940D03*
X0178780Y0065820D03*
X0175340Y0082580D03*
X0184220Y0082580D03*
D52*
X0184120Y0082180D03*
X0175440Y0082180D03*
X0188440Y0068620D03*
X0188440Y0068580D03*
X0188440Y0068540D03*
X0188440Y0068460D03*
X0188440Y0068420D03*
X0188440Y0068380D03*
X0188440Y0068340D03*
X0188440Y0068260D03*
X0188440Y0068220D03*
X0183440Y0067860D03*
X0174920Y0064660D03*
D53*
X0174920Y0064700D03*
X0174920Y0065100D03*
X0179560Y0067700D03*
X0182920Y0064700D03*
X0188440Y0068300D03*
X0188440Y0068500D03*
D54*
X0178300Y0065900D03*
X0178300Y0064700D03*
D55*
X0180080Y0064700D03*
X0181280Y0064700D03*
X0183920Y0067900D03*
D56*
X0186820Y0067700D03*
X0188540Y0067700D03*
X0186300Y0064700D03*
X0171100Y0069100D03*
D57*
X0173180Y0069380D03*
X0173180Y0067460D03*
X0174980Y0067420D03*
X0176980Y0069380D03*
X0177420Y0071820D03*
X0182140Y0071820D03*
X0185540Y0069380D03*
X0183300Y0067460D03*
X0180700Y0065740D03*
X0180100Y0064780D03*
X0181300Y0064780D03*
X0177860Y0064740D03*
D58*
X0180080Y0064740D03*
X0181280Y0064740D03*
X0180680Y0065780D03*
X0180680Y0065820D03*
X0180120Y0068180D03*
X0181480Y0069420D03*
X0175320Y0071140D03*
X0188520Y0067420D03*
D59*
X0188000Y0068980D03*
X0184400Y0065780D03*
X0178800Y0065780D03*
X0178800Y0064780D03*
X0177800Y0065820D03*
X0176400Y0065780D03*
X0175400Y0065860D03*
X0171600Y0068940D03*
X0170600Y0068940D03*
D60*
X0175300Y0070980D03*
X0177540Y0071660D03*
X0182020Y0071660D03*
X0184260Y0070980D03*
X0180100Y0068940D03*
X0183300Y0067380D03*
X0185060Y0066340D03*
X0186780Y0064780D03*
X0178140Y0066340D03*
X0177060Y0066340D03*
D61*
X0175400Y0067940D03*
X0182000Y0071620D03*
X0186800Y0064820D03*
D62*
X0186800Y0064860D03*
X0182520Y0065780D03*
X0180120Y0068860D03*
X0175400Y0067980D03*
X0174520Y0065780D03*
X0185680Y0068940D03*
X0188960Y0067980D03*
D63*
X0181300Y0064900D03*
X0180100Y0064900D03*
X0174900Y0066300D03*
D64*
X0175280Y0070900D03*
X0184280Y0070900D03*
X0185680Y0068900D03*
X0186800Y0064900D03*
D65*
X0186840Y0067460D03*
X0181480Y0067460D03*
X0181480Y0069380D03*
X0174920Y0069380D03*
X0171080Y0069380D03*
X0180080Y0064980D03*
X0180080Y0064940D03*
X0180680Y0065540D03*
X0180680Y0065580D03*
X0181280Y0064980D03*
X0181280Y0064940D03*
D66*
X0181300Y0065020D03*
X0181300Y0065060D03*
X0180100Y0065020D03*
X0175340Y0071220D03*
D67*
X0180080Y0065100D03*
X0181280Y0065100D03*
D68*
X0182940Y0065100D03*
X0173020Y0065900D03*
D69*
X0174920Y0068300D03*
X0174920Y0068500D03*
X0186320Y0065500D03*
X0186320Y0065300D03*
X0186320Y0065100D03*
D70*
X0182540Y0065860D03*
X0180940Y0065460D03*
X0180940Y0065420D03*
X0181020Y0065180D03*
X0180420Y0065340D03*
X0180420Y0065380D03*
X0180380Y0065260D03*
X0180380Y0065220D03*
X0180340Y0065140D03*
X0174980Y0067380D03*
X0184260Y0071020D03*
X0188460Y0069460D03*
X0186820Y0067380D03*
D71*
X0182940Y0066260D03*
X0181300Y0065140D03*
X0174900Y0066260D03*
X0171100Y0069340D03*
X0179620Y0069380D03*
X0181460Y0069340D03*
X0186820Y0069340D03*
X0184180Y0082460D03*
X0175380Y0082460D03*
D72*
X0175440Y0082140D03*
X0184120Y0082140D03*
X0174920Y0068540D03*
X0174920Y0068460D03*
X0174920Y0068420D03*
X0174920Y0068380D03*
X0174920Y0068340D03*
X0179560Y0067780D03*
X0186320Y0065460D03*
X0186320Y0065420D03*
X0186320Y0065380D03*
X0186320Y0065340D03*
X0186320Y0065260D03*
X0186320Y0065220D03*
X0186320Y0065180D03*
X0186320Y0065140D03*
D73*
X0180980Y0065300D03*
X0182060Y0071700D03*
D74*
X0179500Y0068580D03*
X0174940Y0069180D03*
X0171100Y0069180D03*
X0171100Y0067660D03*
X0175100Y0065460D03*
X0176740Y0065980D03*
X0182940Y0066140D03*
X0183100Y0065460D03*
X0184740Y0065940D03*
X0184740Y0065980D03*
X0185260Y0069140D03*
X0188460Y0069180D03*
D75*
X0183160Y0065500D03*
X0175160Y0065500D03*
D76*
X0180700Y0065500D03*
D77*
X0180700Y0065620D03*
X0171100Y0067460D03*
D78*
X0180680Y0065700D03*
X0182920Y0066300D03*
D79*
X0182520Y0065740D03*
X0185200Y0065780D03*
X0188960Y0068020D03*
X0175400Y0068020D03*
X0174520Y0065740D03*
D80*
X0177180Y0065780D03*
X0179020Y0068060D03*
X0177580Y0071580D03*
X0181980Y0071580D03*
D81*
X0184280Y0070940D03*
X0188960Y0067940D03*
X0182520Y0065820D03*
X0174520Y0065820D03*
X0175280Y0070940D03*
X0177560Y0071620D03*
D82*
X0184240Y0071140D03*
X0188040Y0067860D03*
X0186760Y0065860D03*
X0185040Y0066260D03*
X0184440Y0065820D03*
X0178160Y0066260D03*
X0177040Y0066260D03*
X0176440Y0065820D03*
X0173160Y0066260D03*
D83*
X0177180Y0065820D03*
X0179020Y0068020D03*
X0185180Y0065820D03*
X0187260Y0067980D03*
X0187260Y0068860D03*
X0184260Y0082780D03*
X0175300Y0082780D03*
D84*
X0174920Y0069460D03*
X0173160Y0069460D03*
X0177000Y0069460D03*
X0179040Y0067940D03*
X0180680Y0066260D03*
X0186320Y0066340D03*
X0187240Y0068940D03*
X0185560Y0069460D03*
X0174520Y0065860D03*
X0173160Y0067380D03*
D85*
X0176700Y0065860D03*
X0184700Y0065860D03*
D86*
X0178300Y0065860D03*
D87*
X0176800Y0066100D03*
X0175000Y0065900D03*
X0183000Y0065900D03*
X0184800Y0066100D03*
D88*
X0184720Y0065900D03*
X0179640Y0069300D03*
X0176720Y0065900D03*
D89*
X0186320Y0065900D03*
D90*
X0186320Y0066060D03*
X0188520Y0067580D03*
X0185240Y0069060D03*
X0181480Y0069220D03*
X0181480Y0067620D03*
X0179600Y0067540D03*
X0176720Y0065940D03*
X0174920Y0066180D03*
X0171080Y0067620D03*
X0171080Y0069220D03*
X0175400Y0082340D03*
X0184160Y0082340D03*
D91*
X0181480Y0069060D03*
X0181480Y0067780D03*
X0183520Y0067580D03*
X0182920Y0066020D03*
X0188520Y0067740D03*
X0188480Y0069020D03*
X0179680Y0069180D03*
X0174920Y0069020D03*
X0174920Y0067820D03*
X0174920Y0066020D03*
D92*
X0174920Y0066140D03*
X0176760Y0066020D03*
X0175000Y0067620D03*
X0179560Y0068540D03*
X0179720Y0068340D03*
X0181480Y0067660D03*
X0181480Y0069180D03*
X0185280Y0069180D03*
X0188480Y0069140D03*
X0188520Y0067620D03*
X0186320Y0066020D03*
X0184760Y0066020D03*
D93*
X0181480Y0069100D03*
X0185320Y0069300D03*
X0188480Y0069100D03*
X0176760Y0069300D03*
X0174920Y0069100D03*
X0172920Y0069300D03*
X0174920Y0066100D03*
D94*
X0186340Y0066100D03*
D95*
X0186320Y0066140D03*
X0182920Y0066220D03*
X0181480Y0067540D03*
X0174920Y0066220D03*
D96*
X0174980Y0067580D03*
X0174940Y0069220D03*
X0179460Y0068620D03*
X0179820Y0068260D03*
X0182940Y0066180D03*
X0186820Y0067580D03*
X0186820Y0069260D03*
X0185220Y0069020D03*
X0188460Y0069220D03*
X0184180Y0071340D03*
X0175380Y0071340D03*
D97*
X0175360Y0071260D03*
X0179360Y0068660D03*
X0186320Y0066180D03*
D98*
X0185060Y0066220D03*
X0188460Y0069380D03*
X0184220Y0071180D03*
X0175340Y0071180D03*
X0177060Y0066220D03*
D99*
X0180700Y0066220D03*
X0175300Y0071020D03*
X0170500Y0068460D03*
X0170500Y0068420D03*
X0170500Y0068380D03*
X0170500Y0068340D03*
X0171100Y0067380D03*
D100*
X0175400Y0067900D03*
X0180680Y0066300D03*
X0184240Y0082700D03*
X0175320Y0082700D03*
D101*
X0187240Y0067940D03*
X0173160Y0066340D03*
D102*
X0174980Y0067460D03*
X0184220Y0071220D03*
X0186820Y0069380D03*
D103*
X0184200Y0071260D03*
X0179600Y0067460D03*
D104*
X0181460Y0067500D03*
X0186820Y0067500D03*
X0171100Y0067500D03*
D105*
X0171100Y0069300D03*
X0174940Y0069300D03*
X0174980Y0067500D03*
X0188460Y0069300D03*
D106*
X0186820Y0069300D03*
X0179620Y0067500D03*
D107*
X0188520Y0067500D03*
D108*
X0186820Y0067540D03*
X0179660Y0069340D03*
X0174980Y0067540D03*
X0171100Y0067580D03*
X0175380Y0082380D03*
X0184180Y0082380D03*
D109*
X0184160Y0071500D03*
X0176840Y0069100D03*
X0173000Y0069100D03*
X0173000Y0067700D03*
X0175400Y0071500D03*
X0183480Y0067700D03*
D110*
X0179540Y0067740D03*
X0174940Y0068220D03*
X0174940Y0068260D03*
X0174940Y0068580D03*
X0174940Y0068620D03*
X0184140Y0071540D03*
D111*
X0179580Y0067820D03*
X0175420Y0071540D03*
D112*
X0171600Y0067900D03*
X0170600Y0067900D03*
X0181000Y0067900D03*
D113*
X0182940Y0067900D03*
X0186300Y0067900D03*
X0172540Y0067900D03*
D114*
X0188940Y0067900D03*
D115*
X0179020Y0067980D03*
X0175300Y0082740D03*
X0184260Y0082740D03*
D116*
X0187260Y0068820D03*
X0187260Y0068020D03*
D117*
X0187260Y0068060D03*
X0187260Y0068780D03*
X0180140Y0068820D03*
D118*
X0179020Y0068100D03*
D119*
X0179780Y0068300D03*
D120*
X0180100Y0068900D03*
D121*
X0187240Y0068900D03*
D122*
X0185260Y0069100D03*
D123*
X0181480Y0069300D03*
D124*
X0184200Y0071300D03*
X0175360Y0071300D03*
D125*
X0175420Y0071580D03*
X0184140Y0071580D03*
D126*
X0175440Y0071620D03*
D127*
X0184120Y0071620D03*
D128*
X0184120Y0071660D03*
X0175440Y0071660D03*
D129*
X0175460Y0071700D03*
X0184100Y0071700D03*
D130*
X0184100Y0071740D03*
X0175460Y0071740D03*
X0179780Y0083980D03*
X0179780Y0084020D03*
X0179780Y0084060D03*
X0179780Y0084140D03*
X0179780Y0084180D03*
D131*
X0175480Y0071780D03*
X0184080Y0071780D03*
D132*
X0184080Y0071820D03*
X0175480Y0071820D03*
D133*
X0175500Y0071860D03*
X0184060Y0071860D03*
D134*
X0184060Y0071900D03*
X0175500Y0071900D03*
X0179780Y0083100D03*
D135*
X0175360Y0082500D03*
X0184200Y0082500D03*
X0182200Y0071900D03*
X0177360Y0071900D03*
D136*
X0176000Y0071940D03*
X0183560Y0071940D03*
D137*
X0183580Y0071980D03*
X0175980Y0071980D03*
D138*
X0175980Y0072020D03*
X0183580Y0072020D03*
X0179780Y0082060D03*
D139*
X0176760Y0074020D03*
X0176760Y0073980D03*
X0176760Y0073940D03*
X0176720Y0073860D03*
X0176680Y0073820D03*
X0176680Y0073780D03*
X0175960Y0072060D03*
X0182840Y0073860D03*
X0182880Y0073820D03*
X0182880Y0073780D03*
X0182920Y0073740D03*
D140*
X0182800Y0073940D03*
X0182800Y0073980D03*
X0182800Y0074020D03*
X0183600Y0072060D03*
D141*
X0183600Y0072100D03*
X0183040Y0073500D03*
X0182800Y0074100D03*
X0176760Y0074100D03*
X0175960Y0072100D03*
D142*
X0175940Y0072140D03*
X0176420Y0073340D03*
X0176460Y0073380D03*
X0176500Y0073460D03*
X0176780Y0074140D03*
X0176780Y0074180D03*
X0182780Y0074180D03*
X0182780Y0074140D03*
X0183060Y0073460D03*
X0183100Y0073380D03*
X0183140Y0073340D03*
X0183620Y0072140D03*
D143*
X0183640Y0072180D03*
X0183240Y0073140D03*
X0183200Y0073220D03*
X0183160Y0073260D03*
X0182800Y0074220D03*
X0176760Y0074220D03*
X0176400Y0073260D03*
X0176360Y0073220D03*
X0176320Y0073140D03*
X0175920Y0072180D03*
D144*
X0175920Y0072220D03*
X0176160Y0072860D03*
X0176200Y0072940D03*
X0176240Y0072980D03*
X0176320Y0075420D03*
X0176400Y0078340D03*
X0183160Y0078340D03*
X0183240Y0075420D03*
X0183320Y0072980D03*
X0183360Y0072940D03*
X0183400Y0072860D03*
X0183640Y0072220D03*
D145*
X0183660Y0072260D03*
X0183500Y0072660D03*
X0183460Y0072740D03*
X0176340Y0075380D03*
X0176140Y0072820D03*
X0176140Y0072780D03*
X0176100Y0072740D03*
X0176060Y0072660D03*
X0175900Y0072260D03*
X0183140Y0078380D03*
D146*
X0183480Y0072700D03*
X0183640Y0072300D03*
X0176080Y0072700D03*
X0175920Y0072300D03*
D147*
X0175900Y0072340D03*
X0175900Y0072380D03*
X0175940Y0072420D03*
X0175940Y0072460D03*
X0176780Y0074420D03*
X0176780Y0074460D03*
X0176460Y0075260D03*
X0176260Y0078260D03*
X0176460Y0078420D03*
X0176500Y0078460D03*
X0183060Y0078460D03*
X0183100Y0078420D03*
X0183300Y0078260D03*
X0183100Y0075260D03*
X0182780Y0074460D03*
X0182780Y0074420D03*
X0183620Y0072460D03*
X0183620Y0072420D03*
X0183660Y0072380D03*
X0183660Y0072340D03*
X0179780Y0081980D03*
D148*
X0176420Y0075300D03*
X0175980Y0072500D03*
X0183580Y0072500D03*
X0183140Y0075300D03*
D149*
X0183320Y0075460D03*
X0183520Y0072620D03*
X0183560Y0072580D03*
X0183560Y0072540D03*
X0176040Y0072620D03*
X0176000Y0072580D03*
X0176000Y0072540D03*
X0176240Y0075460D03*
D150*
X0176380Y0075340D03*
X0176780Y0074380D03*
X0176780Y0074340D03*
X0182780Y0074340D03*
X0182780Y0074380D03*
X0183180Y0075340D03*
X0183220Y0075380D03*
X0183420Y0072820D03*
X0183420Y0072780D03*
X0176420Y0078380D03*
D151*
X0176360Y0078300D03*
X0183200Y0078300D03*
X0182800Y0074300D03*
X0183360Y0072900D03*
X0176760Y0074300D03*
X0176200Y0072900D03*
D152*
X0176260Y0073020D03*
X0176260Y0073060D03*
X0176340Y0073180D03*
X0176780Y0074260D03*
X0182780Y0074260D03*
X0183220Y0073180D03*
X0179780Y0082020D03*
D153*
X0183300Y0073060D03*
X0183300Y0073020D03*
D154*
X0176300Y0073100D03*
D155*
X0183260Y0073100D03*
D156*
X0183140Y0073300D03*
X0176420Y0073300D03*
D157*
X0176480Y0073420D03*
X0183080Y0073420D03*
D158*
X0176520Y0073500D03*
D159*
X0176540Y0073540D03*
X0176580Y0073620D03*
X0176620Y0073660D03*
X0176660Y0073740D03*
X0176780Y0074060D03*
X0182780Y0074060D03*
X0182940Y0073660D03*
X0182980Y0073620D03*
X0183020Y0073540D03*
D160*
X0183000Y0073580D03*
X0176560Y0073580D03*
D161*
X0176620Y0073700D03*
X0182940Y0073700D03*
D162*
X0182820Y0073900D03*
X0176740Y0073900D03*
D163*
X0176760Y0074500D03*
X0176520Y0078500D03*
X0183040Y0078500D03*
D164*
X0182800Y0074500D03*
D165*
X0182780Y0074540D03*
X0182780Y0074580D03*
X0183020Y0075180D03*
X0182980Y0078540D03*
X0176580Y0078540D03*
X0176540Y0075180D03*
X0176780Y0074580D03*
X0176780Y0074540D03*
D166*
X0176780Y0074620D03*
X0176780Y0074660D03*
X0182780Y0074660D03*
X0182780Y0074620D03*
X0183420Y0078220D03*
X0182940Y0078580D03*
X0182900Y0078620D03*
X0176660Y0078620D03*
X0176620Y0078580D03*
X0176140Y0078220D03*
D167*
X0176760Y0074700D03*
X0182800Y0074700D03*
D168*
X0182780Y0074740D03*
X0182780Y0074780D03*
X0176780Y0074780D03*
X0176780Y0074740D03*
X0176660Y0075020D03*
X0182860Y0078660D03*
X0179780Y0081940D03*
D169*
X0176020Y0078180D03*
X0176780Y0074860D03*
X0176780Y0074820D03*
X0182780Y0074820D03*
X0182780Y0074860D03*
X0182820Y0074940D03*
X0183580Y0075540D03*
D170*
X0176740Y0074900D03*
X0176740Y0078700D03*
D171*
X0182820Y0078700D03*
X0182820Y0074900D03*
D172*
X0183540Y0078180D03*
X0176740Y0074940D03*
D173*
X0176720Y0074980D03*
X0182840Y0074980D03*
D174*
X0182900Y0075020D03*
X0176700Y0078660D03*
D175*
X0176640Y0075060D03*
X0182920Y0075060D03*
D176*
X0182980Y0075100D03*
X0176580Y0075100D03*
D177*
X0176560Y0075140D03*
X0183000Y0075140D03*
D178*
X0183080Y0075220D03*
X0176480Y0075220D03*
D179*
X0176120Y0075500D03*
D180*
X0183440Y0075500D03*
D181*
X0176000Y0075540D03*
D182*
X0175880Y0075580D03*
X0175880Y0078140D03*
X0176880Y0078780D03*
X0182680Y0078780D03*
X0183680Y0078140D03*
X0183680Y0075580D03*
D183*
X0175740Y0075620D03*
D184*
X0183820Y0075620D03*
D185*
X0183940Y0075660D03*
X0183900Y0078060D03*
X0175660Y0078060D03*
X0175620Y0075660D03*
D186*
X0175500Y0075700D03*
D187*
X0184060Y0075700D03*
D188*
X0184180Y0075740D03*
X0184500Y0076460D03*
X0184500Y0076540D03*
X0184500Y0076580D03*
X0184500Y0076620D03*
X0184500Y0076660D03*
X0184500Y0077060D03*
X0184500Y0077140D03*
X0184500Y0077180D03*
X0184500Y0077220D03*
X0184500Y0077260D03*
X0175380Y0075740D03*
X0175060Y0076460D03*
X0175060Y0076540D03*
X0175060Y0076580D03*
X0175060Y0076620D03*
X0175060Y0076660D03*
X0175060Y0077060D03*
X0175060Y0077140D03*
X0175060Y0077180D03*
X0175060Y0077220D03*
X0175060Y0077260D03*
D189*
X0175140Y0077660D03*
X0175140Y0076020D03*
X0175140Y0075980D03*
X0175220Y0075820D03*
X0175260Y0075780D03*
X0184340Y0075820D03*
X0184420Y0075980D03*
X0184420Y0076020D03*
X0184420Y0077660D03*
D190*
X0184300Y0075780D03*
D191*
X0184360Y0075860D03*
X0184400Y0075940D03*
X0184400Y0077740D03*
X0184400Y0077780D03*
X0184360Y0077820D03*
X0184360Y0077860D03*
X0175200Y0077860D03*
X0175200Y0077820D03*
X0175160Y0077780D03*
X0175160Y0077740D03*
X0175160Y0075940D03*
X0175200Y0075860D03*
D192*
X0175180Y0075900D03*
X0175140Y0077700D03*
X0184420Y0077700D03*
X0184380Y0075900D03*
D193*
X0184440Y0076060D03*
X0184440Y0076140D03*
X0184440Y0077580D03*
X0184440Y0077620D03*
X0184280Y0077940D03*
X0175280Y0077940D03*
X0175120Y0077620D03*
X0175120Y0077580D03*
X0175120Y0076140D03*
X0175120Y0076060D03*
D194*
X0175120Y0076100D03*
X0184440Y0076100D03*
D195*
X0184460Y0076180D03*
X0184460Y0076220D03*
X0184460Y0076260D03*
X0184460Y0077460D03*
X0184460Y0077540D03*
X0175100Y0077540D03*
X0175100Y0077460D03*
X0175100Y0076260D03*
X0175100Y0076220D03*
X0175100Y0076180D03*
D196*
X0175080Y0076300D03*
X0175080Y0077300D03*
X0184480Y0077300D03*
X0184480Y0076300D03*
D197*
X0184480Y0076340D03*
X0184480Y0076380D03*
X0184480Y0076420D03*
X0184480Y0077340D03*
X0184480Y0077380D03*
X0184480Y0077420D03*
X0175080Y0077420D03*
X0175080Y0077380D03*
X0175080Y0077340D03*
X0175080Y0076420D03*
X0175080Y0076380D03*
X0175080Y0076340D03*
D198*
X0175060Y0076500D03*
X0175060Y0076700D03*
X0175060Y0077100D03*
X0184500Y0077100D03*
X0184500Y0076700D03*
X0184500Y0076500D03*
D199*
X0184520Y0076740D03*
X0184520Y0076780D03*
X0184520Y0076820D03*
X0184520Y0076860D03*
X0184520Y0076940D03*
X0184520Y0076980D03*
X0184520Y0077020D03*
X0184160Y0077980D03*
X0175040Y0077020D03*
X0175040Y0076980D03*
X0175040Y0076940D03*
X0175040Y0076860D03*
X0175040Y0076820D03*
X0175040Y0076780D03*
X0175040Y0076740D03*
D200*
X0175040Y0076900D03*
X0184520Y0076900D03*
D201*
X0184460Y0077500D03*
X0175100Y0077500D03*
D202*
X0175240Y0077900D03*
X0184320Y0077900D03*
D203*
X0175400Y0077980D03*
D204*
X0175520Y0078020D03*
X0184040Y0078020D03*
D205*
X0183780Y0078100D03*
X0175780Y0078100D03*
D206*
X0176820Y0078740D03*
X0182740Y0078740D03*
D207*
X0182580Y0078820D03*
X0176980Y0078820D03*
D208*
X0179780Y0078860D03*
X0179780Y0080220D03*
D209*
X0179780Y0078900D03*
D210*
X0179780Y0078940D03*
X0179780Y0080140D03*
X0179780Y0080180D03*
D211*
X0179780Y0079060D03*
X0179780Y0079020D03*
X0179780Y0078980D03*
D212*
X0179780Y0079100D03*
D213*
X0179780Y0079140D03*
X0179780Y0080020D03*
X0179780Y0080060D03*
D214*
X0179780Y0079980D03*
X0179780Y0079220D03*
X0179780Y0079180D03*
D215*
X0179780Y0079260D03*
X0179780Y0079340D03*
X0179780Y0079940D03*
D216*
X0179780Y0079900D03*
X0179780Y0079300D03*
D217*
X0179780Y0079380D03*
X0179780Y0079420D03*
X0179780Y0079860D03*
D218*
X0179780Y0079820D03*
X0179780Y0079780D03*
X0179780Y0079460D03*
D219*
X0179780Y0079500D03*
D220*
X0179780Y0079540D03*
X0179780Y0079580D03*
X0179780Y0079620D03*
X0179780Y0079740D03*
D221*
X0179780Y0079660D03*
D222*
X0179780Y0079700D03*
D223*
X0179780Y0080100D03*
D224*
X0179780Y0080260D03*
D225*
X0179780Y0080300D03*
D226*
X0179780Y0080340D03*
D227*
X0179780Y0080380D03*
D228*
X0179780Y0080420D03*
X0179780Y0080460D03*
D229*
X0179780Y0080500D03*
D230*
X0179780Y0080540D03*
X0179780Y0080580D03*
D231*
X0179780Y0080620D03*
D232*
X0179780Y0080660D03*
D233*
X0179780Y0080700D03*
D234*
X0179780Y0080740D03*
D235*
X0179780Y0080780D03*
X0179780Y0080820D03*
D236*
X0179780Y0080860D03*
D237*
X0179780Y0080900D03*
D238*
X0179780Y0080940D03*
X0179780Y0081660D03*
D239*
X0179780Y0081620D03*
X0179780Y0080980D03*
D240*
X0179780Y0081020D03*
X0179780Y0081580D03*
D241*
X0179780Y0081540D03*
X0179780Y0081060D03*
D242*
X0179780Y0081100D03*
D243*
X0179780Y0081140D03*
D244*
X0179780Y0081180D03*
X0179780Y0081220D03*
X0179780Y0081460D03*
D245*
X0179780Y0081420D03*
X0179780Y0081380D03*
X0179780Y0081260D03*
D246*
X0179780Y0081300D03*
D247*
X0179780Y0081340D03*
D248*
X0179780Y0081500D03*
D249*
X0179780Y0081700D03*
D250*
X0179780Y0082540D03*
X0179780Y0082580D03*
X0179780Y0082620D03*
X0179780Y0082660D03*
X0175540Y0081740D03*
X0184020Y0081740D03*
D251*
X0179780Y0081740D03*
D252*
X0175520Y0081780D03*
X0184040Y0081780D03*
D253*
X0179780Y0081780D03*
D254*
X0175520Y0081820D03*
X0184040Y0081820D03*
D255*
X0179780Y0081820D03*
D256*
X0175500Y0081860D03*
D257*
X0179780Y0081860D03*
D258*
X0179780Y0083340D03*
X0179780Y0083380D03*
X0179780Y0083420D03*
X0179780Y0083460D03*
X0179780Y0083540D03*
X0184060Y0081860D03*
D259*
X0184060Y0081900D03*
X0179780Y0083700D03*
X0175500Y0081900D03*
D260*
X0179780Y0081900D03*
D261*
X0179780Y0083780D03*
X0179780Y0083820D03*
X0179780Y0083860D03*
X0179780Y0083940D03*
X0175500Y0081940D03*
D262*
X0184080Y0081940D03*
D263*
X0184080Y0081980D03*
X0175480Y0081980D03*
D264*
X0175480Y0082020D03*
X0184080Y0082020D03*
D265*
X0184100Y0082060D03*
X0175460Y0082060D03*
D266*
X0175460Y0082100D03*
X0184100Y0082100D03*
D267*
X0179780Y0082100D03*
D268*
X0179780Y0082140D03*
D269*
X0179780Y0082180D03*
D270*
X0179780Y0082220D03*
D271*
X0179780Y0082260D03*
D272*
X0175400Y0082300D03*
X0184160Y0082300D03*
D273*
X0179780Y0082300D03*
D274*
X0179780Y0082340D03*
X0179780Y0082380D03*
X0179780Y0082420D03*
X0179780Y0082460D03*
D275*
X0179780Y0082500D03*
D276*
X0179780Y0082700D03*
X0179780Y0082900D03*
D277*
X0179780Y0082860D03*
X0179780Y0082820D03*
X0179780Y0082780D03*
X0179780Y0082740D03*
D278*
X0179780Y0082940D03*
X0179780Y0082980D03*
X0179780Y0083020D03*
X0179780Y0083060D03*
D279*
X0179780Y0083140D03*
X0179780Y0083180D03*
X0179780Y0083220D03*
X0179780Y0083260D03*
D280*
X0179780Y0083300D03*
D281*
X0179780Y0083500D03*
D282*
X0179780Y0083580D03*
X0179780Y0083620D03*
X0179780Y0083660D03*
X0179780Y0083740D03*
D283*
X0179780Y0083900D03*
D284*
X0179780Y0084100D03*
D285*
X0179780Y0084220D03*
D286*
X0183973Y0021650D03*
X0176448Y0020880D03*
X0176623Y0013915D03*
X0176587Y0013845D03*
X0176448Y0013530D03*
X0176412Y0013495D03*
X0176412Y0013460D03*
X0176377Y0013425D03*
X0180577Y0007300D03*
D287*
X0180577Y0007335D03*
X0183517Y0009190D03*
X0183552Y0009225D03*
X0183587Y0009260D03*
X0182502Y0010730D03*
X0184987Y0011955D03*
X0184987Y0011990D03*
X0184987Y0012025D03*
X0185023Y0012060D03*
X0185023Y0012095D03*
X0182117Y0014125D03*
X0178512Y0013775D03*
X0178477Y0013740D03*
X0178408Y0013635D03*
X0178373Y0013600D03*
X0178337Y0013530D03*
X0178302Y0013495D03*
X0178267Y0013425D03*
X0177077Y0014860D03*
X0173262Y0013950D03*
X0178337Y0010765D03*
X0178373Y0010730D03*
X0176552Y0020285D03*
X0180577Y0021615D03*
X0183902Y0021160D03*
D288*
X0183815Y0020565D03*
X0183815Y0020530D03*
X0180560Y0021055D03*
X0180560Y0021090D03*
X0176710Y0019410D03*
X0176710Y0019375D03*
X0176710Y0019340D03*
X0177305Y0015210D03*
X0179335Y0014300D03*
X0185145Y0012970D03*
X0185145Y0012935D03*
X0182275Y0010415D03*
X0179020Y0010275D03*
X0182940Y0008735D03*
X0180560Y0007370D03*
X0173315Y0013705D03*
D289*
X0177427Y0015385D03*
X0177077Y0017450D03*
X0176973Y0017870D03*
X0176973Y0017905D03*
X0183062Y0015560D03*
X0185162Y0013425D03*
X0179248Y0010240D03*
X0176798Y0009330D03*
X0180577Y0007405D03*
D290*
X0180560Y0007440D03*
X0180210Y0009855D03*
X0175835Y0010275D03*
X0175800Y0010310D03*
X0177585Y0015525D03*
X0180385Y0019235D03*
X0180385Y0019270D03*
X0180385Y0019305D03*
X0180385Y0019340D03*
X0180385Y0019375D03*
X0186055Y0016155D03*
X0186055Y0016120D03*
X0186090Y0016190D03*
X0185145Y0013810D03*
D291*
X0185110Y0014090D03*
X0180245Y0017695D03*
X0180245Y0017730D03*
X0180245Y0017765D03*
X0180245Y0017800D03*
X0180245Y0017835D03*
X0180245Y0017870D03*
X0173665Y0013180D03*
X0175485Y0010695D03*
X0181820Y0010240D03*
X0180560Y0007475D03*
D292*
X0180560Y0007510D03*
X0177795Y0015700D03*
X0180210Y0016995D03*
X0180210Y0017030D03*
X0180210Y0017065D03*
X0180210Y0017100D03*
D293*
X0185057Y0014475D03*
X0180542Y0007545D03*
D294*
X0180525Y0007580D03*
X0180210Y0010030D03*
X0174925Y0011535D03*
D295*
X0174785Y0011780D03*
X0180525Y0007615D03*
X0184970Y0014755D03*
D296*
X0184917Y0014895D03*
X0174662Y0012060D03*
X0180507Y0007650D03*
D297*
X0180525Y0007685D03*
X0174575Y0012305D03*
X0174575Y0012340D03*
X0184865Y0015000D03*
D298*
X0180542Y0014335D03*
X0174523Y0012620D03*
X0174523Y0012585D03*
X0174523Y0012550D03*
X0180507Y0007720D03*
D299*
X0180507Y0007755D03*
D300*
X0180490Y0007790D03*
X0174470Y0013075D03*
X0184760Y0015245D03*
D301*
X0180473Y0007825D03*
D302*
X0180472Y0007860D03*
X0184672Y0015385D03*
D303*
X0180455Y0007895D03*
D304*
X0180437Y0007930D03*
D305*
X0180437Y0007965D03*
D306*
X0180420Y0008000D03*
D307*
X0180420Y0008035D03*
D308*
X0180402Y0008070D03*
D309*
X0180402Y0008105D03*
X0181417Y0016505D03*
X0181417Y0016540D03*
X0181452Y0016645D03*
D310*
X0180385Y0008140D03*
D311*
X0180367Y0008175D03*
D312*
X0180350Y0008210D03*
D313*
X0180350Y0008245D03*
D314*
X0180332Y0008280D03*
D315*
X0180315Y0008315D03*
D316*
X0180315Y0008350D03*
D317*
X0180297Y0008385D03*
D318*
X0180280Y0008420D03*
D319*
X0178477Y0008455D03*
X0175152Y0011150D03*
X0185057Y0014370D03*
X0180227Y0016785D03*
D320*
X0180297Y0018290D03*
X0180297Y0018325D03*
X0180297Y0018360D03*
X0180297Y0018395D03*
X0180297Y0018430D03*
X0180297Y0018465D03*
X0182782Y0015735D03*
X0185792Y0015700D03*
X0185827Y0015735D03*
X0185127Y0013985D03*
X0182257Y0008455D03*
X0175572Y0010590D03*
X0175537Y0010625D03*
X0173612Y0013215D03*
D321*
X0175327Y0010905D03*
X0175362Y0010870D03*
X0178337Y0008490D03*
X0180227Y0017310D03*
X0180227Y0017345D03*
X0180227Y0017380D03*
X0180227Y0017415D03*
X0180227Y0017450D03*
D322*
X0180420Y0019585D03*
X0180420Y0019620D03*
X0180420Y0019655D03*
X0180420Y0019690D03*
X0180420Y0019725D03*
X0183185Y0017170D03*
X0183115Y0016925D03*
X0183115Y0016890D03*
X0183080Y0016820D03*
X0183080Y0016785D03*
X0183045Y0016680D03*
X0182905Y0015665D03*
X0186160Y0016365D03*
X0186195Y0016435D03*
X0173490Y0013355D03*
X0175940Y0010135D03*
X0176010Y0010065D03*
X0182415Y0008490D03*
D323*
X0178198Y0008525D03*
X0185127Y0014055D03*
X0185723Y0015595D03*
X0180262Y0017905D03*
X0180262Y0017940D03*
X0180262Y0017975D03*
X0180262Y0018010D03*
X0180262Y0018045D03*
X0177707Y0015630D03*
D324*
X0177497Y0015455D03*
X0177287Y0016750D03*
X0177287Y0016785D03*
X0177252Y0016820D03*
X0177252Y0016855D03*
X0180472Y0020040D03*
X0180472Y0020075D03*
X0180472Y0020110D03*
X0180472Y0020145D03*
X0183587Y0019130D03*
X0183587Y0019095D03*
X0183587Y0019060D03*
X0183587Y0019025D03*
X0183552Y0018955D03*
X0183552Y0018920D03*
X0183552Y0018885D03*
X0183552Y0018850D03*
X0183517Y0018745D03*
X0183517Y0018710D03*
X0183517Y0018675D03*
X0186352Y0016820D03*
X0186317Y0016750D03*
X0185162Y0013600D03*
X0182502Y0008525D03*
X0177567Y0008805D03*
X0177497Y0008840D03*
X0176202Y0009855D03*
X0173437Y0013425D03*
D325*
X0180210Y0009890D03*
X0178110Y0008560D03*
X0185740Y0015630D03*
X0185775Y0015665D03*
D326*
X0186457Y0017100D03*
X0186457Y0017135D03*
X0183692Y0019690D03*
X0183692Y0019725D03*
X0183692Y0019760D03*
X0183692Y0019795D03*
X0180507Y0020390D03*
X0180507Y0020425D03*
X0180507Y0020460D03*
X0180507Y0020495D03*
X0177007Y0017765D03*
X0177007Y0017730D03*
X0177007Y0017695D03*
X0177042Y0017625D03*
X0177042Y0017590D03*
X0182607Y0008560D03*
D327*
X0178022Y0008595D03*
X0175677Y0010450D03*
X0175642Y0010485D03*
X0173577Y0013250D03*
X0180332Y0018675D03*
X0180332Y0018710D03*
X0180332Y0018745D03*
X0180332Y0018780D03*
X0180332Y0018815D03*
X0185897Y0015840D03*
D328*
X0186492Y0017240D03*
X0183727Y0019935D03*
X0183727Y0019970D03*
X0183727Y0020005D03*
X0180542Y0020635D03*
X0176867Y0018430D03*
X0176867Y0018395D03*
X0176867Y0018360D03*
X0176867Y0018325D03*
X0176902Y0018290D03*
X0176902Y0018255D03*
X0176902Y0018220D03*
X0176902Y0018185D03*
X0173367Y0013565D03*
X0182677Y0008595D03*
X0185162Y0013320D03*
D329*
X0185967Y0015980D03*
X0180367Y0019060D03*
X0180367Y0019095D03*
X0180367Y0019130D03*
X0180367Y0019165D03*
X0180367Y0019200D03*
X0173542Y0013285D03*
X0175782Y0010345D03*
X0177917Y0008630D03*
D330*
X0182748Y0008630D03*
X0185162Y0013180D03*
X0185162Y0013215D03*
X0185162Y0013250D03*
X0180612Y0014755D03*
X0186527Y0017345D03*
X0183762Y0020145D03*
X0183762Y0020180D03*
X0183762Y0020215D03*
X0180542Y0020740D03*
X0180542Y0020775D03*
X0180542Y0020810D03*
X0176798Y0018815D03*
X0176798Y0018780D03*
X0176798Y0018745D03*
X0176832Y0018675D03*
X0176832Y0018640D03*
X0176832Y0018605D03*
X0173367Y0013600D03*
D331*
X0173508Y0013320D03*
X0175852Y0010240D03*
X0175887Y0010205D03*
X0175923Y0010170D03*
X0177777Y0008700D03*
X0177848Y0008665D03*
X0185162Y0013740D03*
X0185162Y0013775D03*
X0186108Y0016225D03*
X0186108Y0016260D03*
X0186142Y0016295D03*
X0186142Y0016330D03*
X0186177Y0016400D03*
X0183062Y0016715D03*
X0183062Y0016750D03*
X0180402Y0019410D03*
X0180402Y0019445D03*
X0180402Y0019480D03*
X0180402Y0019515D03*
X0180402Y0019550D03*
D332*
X0176762Y0019060D03*
X0176762Y0019025D03*
X0176762Y0018990D03*
X0176762Y0018955D03*
X0180542Y0020880D03*
X0183797Y0020425D03*
X0183797Y0020390D03*
X0183797Y0020355D03*
X0186562Y0017450D03*
X0185162Y0013145D03*
X0185162Y0013110D03*
X0182222Y0010380D03*
X0180227Y0009785D03*
X0182817Y0008665D03*
X0173332Y0013670D03*
X0177357Y0015280D03*
D333*
X0185162Y0013040D03*
X0185162Y0013005D03*
X0182887Y0008700D03*
D334*
X0182012Y0010275D03*
X0177707Y0008735D03*
X0177637Y0008770D03*
X0176062Y0010030D03*
X0180612Y0014720D03*
X0177532Y0015490D03*
X0177357Y0016540D03*
X0177357Y0016575D03*
X0177323Y0016645D03*
X0183098Y0016855D03*
X0183132Y0016960D03*
X0183132Y0016995D03*
X0183167Y0017065D03*
X0183167Y0017100D03*
X0183167Y0017135D03*
X0183202Y0017205D03*
X0183202Y0017240D03*
X0183202Y0017275D03*
X0183202Y0017310D03*
X0183237Y0017345D03*
X0183237Y0017380D03*
X0183237Y0017415D03*
X0183273Y0017485D03*
X0183273Y0017520D03*
X0183273Y0017555D03*
X0183307Y0017660D03*
X0183307Y0017695D03*
X0183342Y0017835D03*
X0183342Y0017870D03*
X0183377Y0018010D03*
X0183412Y0018185D03*
X0186282Y0016645D03*
X0186248Y0016575D03*
X0186248Y0016540D03*
X0186212Y0016505D03*
X0186212Y0016470D03*
X0185162Y0013705D03*
X0185162Y0013670D03*
X0180437Y0019760D03*
X0180437Y0019795D03*
X0180437Y0019830D03*
X0180437Y0019865D03*
D335*
X0183850Y0020670D03*
X0183850Y0020705D03*
X0176675Y0019585D03*
X0176675Y0019550D03*
X0176675Y0019515D03*
X0186615Y0017625D03*
X0185145Y0012865D03*
X0185145Y0012830D03*
X0182310Y0010450D03*
X0178950Y0010310D03*
X0183010Y0008770D03*
D336*
X0183062Y0008805D03*
X0185127Y0012725D03*
X0185127Y0012760D03*
X0185127Y0012795D03*
X0181767Y0014300D03*
X0177252Y0015140D03*
X0173298Y0013775D03*
X0176658Y0019620D03*
X0176658Y0019655D03*
X0176658Y0019690D03*
X0180577Y0021195D03*
X0180577Y0021230D03*
X0180577Y0021265D03*
X0183867Y0020740D03*
X0186633Y0017695D03*
X0186633Y0017660D03*
D337*
X0179230Y0014265D03*
X0177235Y0015105D03*
X0173280Y0013810D03*
X0182345Y0010485D03*
X0183115Y0008840D03*
X0176640Y0019725D03*
X0176640Y0019760D03*
X0176640Y0019795D03*
D338*
X0180490Y0020180D03*
X0180490Y0020215D03*
X0180490Y0020250D03*
X0183640Y0019410D03*
X0183605Y0019270D03*
X0183605Y0019235D03*
X0183605Y0019200D03*
X0183605Y0019165D03*
X0183570Y0018990D03*
X0186370Y0016890D03*
X0186370Y0016855D03*
X0186335Y0016785D03*
X0185180Y0013565D03*
X0177235Y0016890D03*
X0177235Y0016925D03*
X0177235Y0016960D03*
X0177200Y0016995D03*
X0177200Y0017030D03*
X0177165Y0017135D03*
X0176255Y0009820D03*
X0176290Y0009785D03*
X0176325Y0009750D03*
X0176360Y0009715D03*
X0176395Y0009680D03*
X0176430Y0009645D03*
X0177445Y0008875D03*
D339*
X0178775Y0010380D03*
X0183150Y0008875D03*
X0183185Y0008910D03*
X0185110Y0012550D03*
X0185110Y0012585D03*
X0185110Y0012620D03*
X0181890Y0014265D03*
X0179125Y0014230D03*
X0186650Y0017765D03*
X0183885Y0020880D03*
D340*
X0180507Y0020285D03*
X0183657Y0019515D03*
X0183657Y0019480D03*
X0183657Y0019445D03*
X0183622Y0019375D03*
X0183622Y0019340D03*
X0183622Y0019305D03*
X0186422Y0017030D03*
X0183027Y0015595D03*
X0177182Y0017065D03*
X0177182Y0017100D03*
X0177147Y0017170D03*
X0177147Y0017205D03*
X0176482Y0009610D03*
X0176517Y0009575D03*
X0176552Y0009540D03*
X0177217Y0009015D03*
X0177322Y0008945D03*
X0177392Y0008910D03*
X0180227Y0009820D03*
D341*
X0182397Y0010555D03*
X0183237Y0008945D03*
X0185092Y0012480D03*
X0185092Y0012515D03*
X0179072Y0014195D03*
X0177182Y0015035D03*
X0176587Y0019970D03*
X0176587Y0020005D03*
X0180577Y0021370D03*
X0180577Y0021405D03*
X0183867Y0020915D03*
X0186667Y0017800D03*
D342*
X0186387Y0016960D03*
X0186387Y0016925D03*
X0185162Y0013530D03*
X0185162Y0013495D03*
X0177462Y0015420D03*
X0177112Y0017310D03*
X0173437Y0013460D03*
X0176587Y0009505D03*
X0177287Y0008980D03*
D343*
X0178705Y0010415D03*
X0182415Y0010590D03*
X0183290Y0008980D03*
X0185075Y0012375D03*
X0185075Y0012410D03*
X0185075Y0012445D03*
X0181960Y0014230D03*
X0178985Y0014160D03*
X0177165Y0015000D03*
X0186685Y0017835D03*
X0183885Y0020950D03*
X0183885Y0020985D03*
X0180595Y0021440D03*
D344*
X0180577Y0021475D03*
X0183902Y0021020D03*
X0178932Y0014125D03*
X0177147Y0014965D03*
X0178652Y0010450D03*
X0183342Y0009015D03*
X0185057Y0012305D03*
X0185057Y0012340D03*
D345*
X0185180Y0013460D03*
X0182100Y0010310D03*
X0177165Y0009050D03*
X0177130Y0009085D03*
X0177060Y0009120D03*
X0177025Y0009155D03*
X0176990Y0009190D03*
X0176920Y0009225D03*
X0176885Y0009260D03*
X0176850Y0009295D03*
X0176745Y0009365D03*
X0176710Y0009400D03*
X0176675Y0009435D03*
X0176640Y0009470D03*
X0173420Y0013495D03*
X0177130Y0017240D03*
X0177130Y0017275D03*
X0177095Y0017345D03*
X0177095Y0017380D03*
X0177095Y0017415D03*
X0177060Y0017485D03*
X0177060Y0017520D03*
X0177060Y0017555D03*
X0177025Y0017660D03*
X0180490Y0020320D03*
X0180490Y0020355D03*
X0183675Y0019655D03*
X0183675Y0019620D03*
X0183675Y0019585D03*
X0183675Y0019550D03*
X0186440Y0017065D03*
X0186405Y0016995D03*
D346*
X0186685Y0017870D03*
X0183885Y0021055D03*
X0180595Y0021510D03*
X0176570Y0020180D03*
X0176570Y0020145D03*
X0176570Y0020110D03*
X0177130Y0014930D03*
X0178775Y0014020D03*
X0178845Y0014055D03*
X0178880Y0014090D03*
X0182030Y0014195D03*
X0182450Y0010625D03*
X0178600Y0010485D03*
X0178565Y0010520D03*
X0183360Y0009050D03*
D347*
X0183412Y0009085D03*
X0183448Y0009120D03*
X0178652Y0013915D03*
X0178687Y0013950D03*
X0178723Y0013985D03*
X0173262Y0013915D03*
X0176552Y0020215D03*
X0180577Y0021545D03*
X0183902Y0021090D03*
D348*
X0183920Y0021125D03*
X0180595Y0021580D03*
X0176535Y0020250D03*
X0186720Y0017905D03*
X0182100Y0014160D03*
X0178565Y0013810D03*
X0178460Y0013705D03*
X0178425Y0013670D03*
X0177095Y0014895D03*
X0178390Y0010695D03*
X0178425Y0010660D03*
X0178460Y0010625D03*
X0178495Y0010590D03*
X0178530Y0010555D03*
X0182485Y0010695D03*
X0183500Y0009155D03*
X0185040Y0012130D03*
X0185040Y0012165D03*
D349*
X0184970Y0011920D03*
X0184970Y0011885D03*
X0182520Y0010800D03*
X0182520Y0010765D03*
X0183640Y0009295D03*
X0178320Y0010800D03*
X0178285Y0010835D03*
X0178215Y0010940D03*
X0178180Y0011010D03*
X0178005Y0012760D03*
X0178040Y0012900D03*
X0178110Y0013075D03*
X0178110Y0013110D03*
X0178110Y0013145D03*
X0178145Y0013180D03*
X0178145Y0013215D03*
X0178180Y0013250D03*
X0178180Y0013285D03*
X0178215Y0013320D03*
X0178215Y0013355D03*
X0178285Y0013460D03*
X0178355Y0013565D03*
X0177060Y0014825D03*
X0182170Y0014090D03*
X0186720Y0017940D03*
X0183920Y0021195D03*
X0176535Y0020355D03*
X0176535Y0020320D03*
D350*
X0176517Y0020390D03*
X0176517Y0020425D03*
X0180577Y0021650D03*
X0186737Y0017975D03*
X0182223Y0014055D03*
X0182257Y0014020D03*
X0182292Y0013985D03*
X0184952Y0011850D03*
X0184952Y0011815D03*
X0182537Y0010835D03*
X0183727Y0009400D03*
X0183692Y0009365D03*
X0183657Y0009330D03*
X0178198Y0010975D03*
X0178162Y0011045D03*
X0178162Y0011080D03*
X0178127Y0011115D03*
X0178127Y0011150D03*
X0178092Y0011185D03*
X0178092Y0011220D03*
X0178057Y0011290D03*
X0178057Y0011325D03*
X0178023Y0011395D03*
X0178023Y0011430D03*
X0177987Y0011570D03*
X0177987Y0011605D03*
X0177952Y0011815D03*
X0177952Y0011850D03*
X0177952Y0011885D03*
X0177952Y0012305D03*
X0177952Y0012340D03*
X0177952Y0012375D03*
X0177952Y0012410D03*
X0177952Y0012445D03*
X0177952Y0012480D03*
X0177952Y0012515D03*
X0177952Y0012550D03*
X0177987Y0012620D03*
X0177987Y0012655D03*
X0177987Y0012690D03*
X0177987Y0012725D03*
X0178023Y0012795D03*
X0178023Y0012830D03*
X0178023Y0012865D03*
X0178057Y0012935D03*
X0178057Y0012970D03*
X0177042Y0014790D03*
X0173262Y0013985D03*
D351*
X0177970Y0012585D03*
X0177970Y0011780D03*
X0177970Y0011745D03*
X0177970Y0011710D03*
X0177970Y0011675D03*
X0177970Y0011640D03*
X0178005Y0011535D03*
X0178005Y0011500D03*
X0178005Y0011465D03*
X0182345Y0013915D03*
X0182555Y0010905D03*
X0182555Y0010870D03*
X0183780Y0009470D03*
X0183745Y0009435D03*
X0183920Y0021230D03*
X0183920Y0021265D03*
X0180595Y0021685D03*
D352*
X0177025Y0014755D03*
X0176990Y0014720D03*
X0177935Y0012270D03*
X0177935Y0012235D03*
X0177935Y0012200D03*
X0177935Y0012165D03*
X0177935Y0012130D03*
X0177935Y0012095D03*
X0177935Y0012060D03*
X0177935Y0012025D03*
X0177935Y0011990D03*
X0177935Y0011955D03*
X0177935Y0011920D03*
X0178040Y0011360D03*
X0178075Y0011255D03*
X0182310Y0013950D03*
X0184935Y0011780D03*
X0184935Y0011745D03*
X0184935Y0011710D03*
X0183815Y0009505D03*
D353*
X0183832Y0009540D03*
X0183867Y0009575D03*
X0182572Y0010940D03*
X0182572Y0010975D03*
X0184882Y0011570D03*
X0184882Y0011605D03*
X0184917Y0011640D03*
X0184917Y0011675D03*
X0182397Y0013845D03*
X0182362Y0013880D03*
X0176972Y0014685D03*
X0186737Y0018010D03*
X0183937Y0021300D03*
X0180577Y0021720D03*
X0176517Y0020460D03*
D354*
X0180577Y0021755D03*
X0182502Y0013635D03*
X0182572Y0013425D03*
X0182572Y0013390D03*
X0182572Y0013355D03*
X0182572Y0013320D03*
X0182572Y0013285D03*
X0182572Y0013250D03*
X0182607Y0011325D03*
X0182607Y0011290D03*
X0182607Y0011255D03*
X0182607Y0011220D03*
X0182607Y0011185D03*
X0182607Y0011150D03*
X0182607Y0011115D03*
X0184007Y0009750D03*
X0183972Y0009715D03*
X0184042Y0009785D03*
X0183902Y0009610D03*
X0184777Y0011255D03*
X0184847Y0011430D03*
X0184847Y0011465D03*
D355*
X0184865Y0011500D03*
X0184865Y0011535D03*
X0184830Y0011395D03*
X0182590Y0011080D03*
X0182590Y0011045D03*
X0182590Y0011010D03*
X0183955Y0009680D03*
X0183920Y0009645D03*
X0182590Y0013215D03*
X0182555Y0013460D03*
X0182520Y0013600D03*
X0182485Y0013670D03*
X0182485Y0013705D03*
X0182450Y0013740D03*
X0182450Y0013775D03*
X0182415Y0013810D03*
X0176955Y0014650D03*
X0173245Y0014020D03*
X0176500Y0020495D03*
X0176500Y0020530D03*
D356*
X0176430Y0021020D03*
X0183990Y0021790D03*
X0180245Y0009680D03*
D357*
X0182712Y0009680D03*
X0182712Y0009715D03*
X0176202Y0013215D03*
X0176798Y0014335D03*
X0176832Y0014370D03*
X0176482Y0020740D03*
D358*
X0176500Y0020565D03*
X0180595Y0021790D03*
X0186755Y0018045D03*
X0176920Y0014580D03*
X0182625Y0011955D03*
X0182625Y0011920D03*
X0182625Y0011885D03*
X0182625Y0011850D03*
X0182625Y0011815D03*
X0182625Y0011780D03*
X0182625Y0011745D03*
X0182625Y0011710D03*
X0182625Y0011675D03*
X0182625Y0011640D03*
X0182625Y0011605D03*
X0182625Y0011570D03*
X0182625Y0011535D03*
X0182625Y0011500D03*
X0182625Y0011465D03*
X0182625Y0011430D03*
X0182625Y0011395D03*
X0182625Y0011360D03*
X0184690Y0011010D03*
X0184725Y0011080D03*
X0184725Y0011115D03*
X0184760Y0011150D03*
X0184760Y0011185D03*
X0184760Y0011220D03*
X0184795Y0011290D03*
X0184130Y0009925D03*
X0184095Y0009890D03*
X0184095Y0009855D03*
X0184060Y0009820D03*
X0182625Y0010100D03*
X0180245Y0009715D03*
D359*
X0180245Y0009750D03*
X0173280Y0013845D03*
X0180630Y0014790D03*
X0176605Y0019900D03*
X0176605Y0019935D03*
D360*
X0176465Y0020705D03*
X0180595Y0021895D03*
X0183955Y0021510D03*
X0183955Y0021475D03*
X0173245Y0014090D03*
X0182695Y0009750D03*
D361*
X0182677Y0009785D03*
X0182677Y0009820D03*
X0182677Y0009855D03*
X0176867Y0014440D03*
X0186773Y0018080D03*
X0180577Y0021860D03*
X0176483Y0020670D03*
D362*
X0183535Y0018815D03*
X0183535Y0018780D03*
X0183500Y0018640D03*
X0183500Y0018605D03*
X0183500Y0018570D03*
X0183500Y0018535D03*
X0183465Y0018500D03*
X0183465Y0018465D03*
X0183465Y0018430D03*
X0183465Y0018395D03*
X0183465Y0018360D03*
X0183360Y0017975D03*
X0183360Y0017940D03*
X0183360Y0017905D03*
X0183325Y0017800D03*
X0183325Y0017765D03*
X0183325Y0017730D03*
X0183290Y0017625D03*
X0183290Y0017590D03*
X0186265Y0016610D03*
X0186300Y0016680D03*
X0186300Y0016715D03*
X0182975Y0015630D03*
X0177340Y0016610D03*
X0176115Y0009960D03*
X0176150Y0009925D03*
X0176185Y0009890D03*
D363*
X0182660Y0009890D03*
X0182660Y0009925D03*
X0182660Y0009960D03*
X0184235Y0010100D03*
X0184305Y0010205D03*
X0184340Y0010275D03*
X0184375Y0010345D03*
X0184410Y0010380D03*
X0184410Y0010415D03*
X0184445Y0010450D03*
X0184445Y0010485D03*
X0184480Y0010520D03*
X0184480Y0010555D03*
X0184515Y0010590D03*
X0184515Y0010625D03*
X0184550Y0010660D03*
X0184550Y0010695D03*
X0184585Y0010765D03*
X0184620Y0010835D03*
X0176885Y0014475D03*
X0176885Y0014510D03*
X0183955Y0021440D03*
D364*
X0180210Y0017275D03*
X0185110Y0014230D03*
X0185110Y0014195D03*
X0181750Y0012445D03*
X0181750Y0012410D03*
X0181750Y0012375D03*
X0181750Y0012340D03*
X0181750Y0012305D03*
X0181750Y0012270D03*
X0181750Y0012235D03*
X0181750Y0012200D03*
X0181750Y0012165D03*
X0181750Y0012130D03*
X0181750Y0012095D03*
X0181750Y0012060D03*
X0181750Y0012025D03*
X0181750Y0011990D03*
X0180210Y0009925D03*
X0175310Y0010940D03*
X0175275Y0010975D03*
D365*
X0180210Y0009960D03*
X0185075Y0014335D03*
X0180210Y0016820D03*
X0180210Y0016855D03*
X0180210Y0016890D03*
X0180210Y0016925D03*
D366*
X0180648Y0014825D03*
X0176902Y0014545D03*
X0173227Y0014055D03*
X0184148Y0009960D03*
X0184252Y0010135D03*
X0184287Y0010170D03*
X0184323Y0010240D03*
X0184602Y0010800D03*
X0184637Y0010870D03*
X0184637Y0010905D03*
X0184673Y0010940D03*
X0184673Y0010975D03*
X0183937Y0021405D03*
X0180577Y0021825D03*
D367*
X0180455Y0020005D03*
X0180455Y0019970D03*
X0180455Y0019935D03*
X0180455Y0019900D03*
X0183430Y0018325D03*
X0183430Y0018290D03*
X0183430Y0018255D03*
X0183430Y0018220D03*
X0183395Y0018150D03*
X0183395Y0018115D03*
X0183395Y0018080D03*
X0183395Y0018045D03*
X0183255Y0017450D03*
X0177305Y0016715D03*
X0177305Y0016680D03*
X0173455Y0013390D03*
X0176080Y0009995D03*
X0185180Y0013635D03*
D368*
X0185040Y0014510D03*
X0180210Y0009995D03*
X0175030Y0011360D03*
X0174995Y0011395D03*
D369*
X0176132Y0013180D03*
X0182642Y0010065D03*
X0182642Y0010030D03*
X0182642Y0009995D03*
X0184182Y0009995D03*
X0184182Y0010030D03*
X0184217Y0010065D03*
X0184357Y0010310D03*
X0184567Y0010730D03*
X0184707Y0011045D03*
X0176482Y0020600D03*
X0176482Y0020635D03*
D370*
X0184987Y0014685D03*
X0180192Y0010065D03*
X0174837Y0011675D03*
D371*
X0175975Y0010100D03*
X0177375Y0016505D03*
X0183150Y0017030D03*
D372*
X0184952Y0014790D03*
X0180192Y0010100D03*
X0174767Y0011815D03*
X0174767Y0011850D03*
X0174732Y0011885D03*
D373*
X0180752Y0010135D03*
D374*
X0180735Y0010170D03*
X0184585Y0015490D03*
D375*
X0184550Y0015525D03*
X0180700Y0010205D03*
D376*
X0182362Y0010520D03*
X0178862Y0010345D03*
X0185127Y0012655D03*
X0185127Y0012690D03*
X0177217Y0015070D03*
X0176623Y0019830D03*
X0176623Y0019865D03*
X0180577Y0021300D03*
X0180577Y0021335D03*
X0183867Y0020845D03*
X0183867Y0020810D03*
D377*
X0183745Y0020110D03*
X0183745Y0020075D03*
X0183745Y0020040D03*
X0186510Y0017310D03*
X0186510Y0017275D03*
X0185180Y0013285D03*
X0182170Y0010345D03*
D378*
X0185145Y0013880D03*
X0185915Y0015875D03*
X0185950Y0015910D03*
X0185950Y0015945D03*
X0180350Y0018850D03*
X0180350Y0018885D03*
X0180350Y0018920D03*
X0180350Y0018955D03*
X0180350Y0018990D03*
X0180350Y0019025D03*
X0177620Y0015560D03*
X0175730Y0010380D03*
D379*
X0175712Y0010415D03*
X0185862Y0015805D03*
D380*
X0185845Y0015770D03*
X0185145Y0013950D03*
X0185145Y0013915D03*
X0180595Y0014685D03*
X0177655Y0015595D03*
X0180315Y0018500D03*
X0180315Y0018535D03*
X0180315Y0018570D03*
X0180315Y0018605D03*
X0180315Y0018640D03*
X0175590Y0010555D03*
X0175625Y0010520D03*
D381*
X0175520Y0010660D03*
X0185145Y0014020D03*
X0180280Y0018080D03*
X0180280Y0018115D03*
X0180280Y0018150D03*
X0180280Y0018185D03*
X0180280Y0018220D03*
X0180280Y0018255D03*
D382*
X0178617Y0013880D03*
X0178582Y0013845D03*
X0182467Y0010660D03*
X0185057Y0012200D03*
X0185057Y0012235D03*
X0185057Y0012270D03*
D383*
X0175450Y0010730D03*
D384*
X0175433Y0010765D03*
X0175398Y0010800D03*
X0185127Y0014125D03*
X0185687Y0015560D03*
X0180227Y0017660D03*
D385*
X0180245Y0017625D03*
X0180245Y0017590D03*
X0180245Y0017555D03*
X0180245Y0017520D03*
X0180245Y0017485D03*
X0182695Y0015770D03*
X0180595Y0014650D03*
X0177760Y0015665D03*
X0185110Y0014160D03*
X0175380Y0010835D03*
D386*
X0178250Y0010870D03*
X0178250Y0010905D03*
X0178075Y0013005D03*
X0178075Y0013040D03*
X0178250Y0013390D03*
D387*
X0175257Y0011010D03*
X0185092Y0014265D03*
X0180227Y0017135D03*
X0180227Y0017170D03*
X0180227Y0017205D03*
X0180227Y0017240D03*
D388*
X0180227Y0016960D03*
X0182607Y0015805D03*
X0185092Y0014300D03*
X0175222Y0011045D03*
D389*
X0175205Y0011080D03*
X0175170Y0011115D03*
X0180595Y0014615D03*
D390*
X0180210Y0016680D03*
X0180210Y0016715D03*
X0180210Y0016750D03*
X0177865Y0015735D03*
X0175135Y0011185D03*
D391*
X0175117Y0011220D03*
X0175083Y0011255D03*
X0185058Y0014440D03*
D392*
X0175065Y0011290D03*
D393*
X0175048Y0011325D03*
X0180577Y0014580D03*
D394*
X0182537Y0013565D03*
X0182537Y0013530D03*
X0182537Y0013495D03*
X0184812Y0011360D03*
X0184812Y0011325D03*
X0176937Y0014615D03*
X0183937Y0021335D03*
X0183937Y0021370D03*
D395*
X0177952Y0015770D03*
X0174977Y0011430D03*
X0185022Y0014545D03*
D396*
X0174960Y0011465D03*
D397*
X0174942Y0011500D03*
X0180577Y0014545D03*
X0182432Y0015840D03*
X0185022Y0014580D03*
D398*
X0174907Y0011570D03*
X0174873Y0011605D03*
D399*
X0174855Y0011640D03*
X0178040Y0015805D03*
X0185005Y0014650D03*
D400*
X0184970Y0014720D03*
X0180560Y0014510D03*
X0174820Y0011710D03*
D401*
X0174802Y0011745D03*
D402*
X0174715Y0011920D03*
X0180560Y0014475D03*
D403*
X0184952Y0014825D03*
X0174697Y0011955D03*
D404*
X0174680Y0011990D03*
X0174680Y0012025D03*
X0178180Y0015840D03*
D405*
X0180560Y0014440D03*
X0174645Y0012130D03*
X0174645Y0012095D03*
D406*
X0174627Y0012165D03*
X0184917Y0014930D03*
D407*
X0184900Y0014965D03*
X0174610Y0012200D03*
D408*
X0174592Y0012235D03*
X0174592Y0012270D03*
X0180542Y0014405D03*
D409*
X0174557Y0012410D03*
X0174557Y0012375D03*
D410*
X0174540Y0012445D03*
X0174540Y0012480D03*
X0184865Y0015035D03*
D411*
X0181767Y0012480D03*
D412*
X0174540Y0012515D03*
D413*
X0174505Y0012655D03*
X0174505Y0012690D03*
X0184830Y0015105D03*
D414*
X0184812Y0015140D03*
X0174487Y0012760D03*
X0174487Y0012725D03*
D415*
X0174505Y0012795D03*
X0184795Y0015175D03*
D416*
X0174487Y0012900D03*
X0174487Y0012865D03*
X0174487Y0012830D03*
D417*
X0173298Y0013740D03*
X0177287Y0015175D03*
X0185127Y0012900D03*
X0186598Y0017590D03*
X0180577Y0021125D03*
X0180577Y0021160D03*
D418*
X0174470Y0012935D03*
D419*
X0174487Y0012970D03*
X0174487Y0013005D03*
X0174487Y0013040D03*
D420*
X0177340Y0015245D03*
X0176745Y0019095D03*
X0176745Y0019130D03*
X0176745Y0019165D03*
X0180560Y0020915D03*
X0180560Y0020950D03*
X0180560Y0020985D03*
X0183815Y0020495D03*
X0183815Y0020460D03*
X0186580Y0017520D03*
X0186580Y0017485D03*
X0185145Y0013075D03*
D421*
X0174487Y0013110D03*
X0174487Y0013145D03*
D422*
X0176255Y0013250D03*
X0176780Y0014265D03*
X0176780Y0014300D03*
X0180595Y0021930D03*
X0183955Y0021545D03*
D423*
X0183955Y0021580D03*
X0180595Y0021965D03*
X0176465Y0020810D03*
X0176745Y0014195D03*
X0176745Y0014160D03*
X0176710Y0014125D03*
X0176290Y0013285D03*
D424*
X0176307Y0013320D03*
X0176342Y0013355D03*
X0176692Y0014090D03*
X0173227Y0014125D03*
X0176447Y0020845D03*
D425*
X0180525Y0020600D03*
X0180525Y0020565D03*
X0180525Y0020530D03*
X0183710Y0019900D03*
X0183710Y0019865D03*
X0183710Y0019830D03*
X0186475Y0017205D03*
X0186475Y0017170D03*
X0185180Y0013390D03*
X0185180Y0013355D03*
X0177410Y0015350D03*
X0173385Y0013530D03*
X0176990Y0017800D03*
X0176990Y0017835D03*
X0176955Y0017940D03*
X0176955Y0017975D03*
X0176955Y0018010D03*
X0176955Y0018045D03*
X0176920Y0018080D03*
X0176920Y0018115D03*
X0176920Y0018150D03*
D426*
X0176675Y0014055D03*
X0176675Y0014020D03*
X0176640Y0013950D03*
X0176360Y0013390D03*
X0180595Y0022000D03*
X0183955Y0021615D03*
D427*
X0180595Y0022035D03*
X0176605Y0013880D03*
X0176570Y0013810D03*
X0176570Y0013775D03*
X0176535Y0013740D03*
X0176535Y0013705D03*
X0176500Y0013670D03*
X0176500Y0013635D03*
X0176465Y0013600D03*
X0176465Y0013565D03*
D428*
X0173350Y0013635D03*
X0176815Y0018710D03*
X0180560Y0020845D03*
D429*
X0186002Y0016050D03*
X0186002Y0016015D03*
X0186037Y0016085D03*
X0182852Y0015700D03*
X0185162Y0013845D03*
D430*
X0173262Y0013880D03*
X0176587Y0020040D03*
X0176587Y0020075D03*
D431*
X0186807Y0018150D03*
X0176657Y0013985D03*
D432*
X0173245Y0014160D03*
X0180595Y0022070D03*
X0183990Y0021685D03*
D433*
X0173227Y0014195D03*
D434*
X0176762Y0014230D03*
D435*
X0180542Y0014370D03*
X0184847Y0015070D03*
D436*
X0176850Y0014405D03*
D437*
X0185075Y0014405D03*
D438*
X0185005Y0014615D03*
D439*
X0184935Y0014860D03*
D440*
X0184777Y0015210D03*
D441*
X0184742Y0015280D03*
D442*
X0177375Y0015315D03*
X0176850Y0018465D03*
X0176850Y0018500D03*
X0176850Y0018535D03*
X0176850Y0018570D03*
X0180525Y0020670D03*
X0180525Y0020705D03*
D443*
X0184725Y0015315D03*
D444*
X0184690Y0015350D03*
D445*
X0184637Y0015420D03*
D446*
X0184602Y0015455D03*
D447*
X0180210Y0015875D03*
X0180210Y0015910D03*
D448*
X0180192Y0015945D03*
X0180192Y0015980D03*
X0180192Y0016015D03*
X0180192Y0016050D03*
D449*
X0180210Y0016085D03*
D450*
X0180192Y0016120D03*
X0180192Y0016155D03*
X0180192Y0016190D03*
X0180192Y0016225D03*
D451*
X0180210Y0016260D03*
D452*
X0180192Y0016295D03*
X0180192Y0016330D03*
X0180192Y0016365D03*
X0180192Y0016400D03*
D453*
X0180210Y0016435D03*
D454*
X0180192Y0016470D03*
D455*
X0181435Y0016575D03*
X0181435Y0016610D03*
D456*
X0186545Y0017380D03*
X0186545Y0017415D03*
X0183780Y0020250D03*
X0183780Y0020285D03*
X0183780Y0020320D03*
X0176780Y0018920D03*
X0176780Y0018885D03*
X0176780Y0018850D03*
D457*
X0176727Y0019200D03*
X0176727Y0019235D03*
X0176727Y0019270D03*
X0176727Y0019305D03*
X0180577Y0021020D03*
X0186597Y0017555D03*
D458*
X0186650Y0017730D03*
X0183850Y0020775D03*
D459*
X0186790Y0018115D03*
X0176465Y0020775D03*
D460*
X0180612Y0022105D03*
X0186842Y0018185D03*
D461*
X0183832Y0020600D03*
X0183832Y0020635D03*
X0176692Y0019480D03*
X0176692Y0019445D03*
D462*
X0176448Y0020915D03*
D463*
X0176448Y0020950D03*
D464*
X0176430Y0020985D03*
D465*
X0176430Y0021055D03*
X0180630Y0022210D03*
D466*
X0183990Y0021720D03*
D467*
X0183972Y0021755D03*
D468*
X0184007Y0021825D03*
D469*
X0180612Y0022140D03*
D470*
X0180630Y0022175D03*
M02*
