G75*
%MOIN*%
%OFA0B0*%
%FSLAX25Y25*%
%IPPOS*%
%LPD*%
%AMOC8*
5,1,8,0,0,1.08239X$1,22.5*
%
%ADD10C,0.00867*%
%ADD11C,0.00829*%
%ADD12C,0.00000*%
%ADD13C,0.16211*%
%ADD14C,0.06000*%
%ADD15C,0.04731*%
%ADD16R,0.04337X0.01581*%
%ADD17R,0.01581X0.04337*%
%ADD18R,0.01581X0.01581*%
%ADD19R,0.09258X0.09258*%
D10*
X0066556Y0075021D02*
X0070420Y0075021D01*
X0066556Y0075021D02*
X0066556Y0078491D01*
X0070420Y0078491D01*
X0070420Y0075021D01*
X0070420Y0075887D02*
X0066556Y0075887D01*
X0066556Y0076753D02*
X0070420Y0076753D01*
X0070420Y0077619D02*
X0066556Y0077619D01*
X0066556Y0078485D02*
X0070420Y0078485D01*
X0070460Y0082108D02*
X0066596Y0082108D01*
X0066596Y0085578D01*
X0070460Y0085578D01*
X0070460Y0082108D01*
X0070460Y0082974D02*
X0066596Y0082974D01*
X0066596Y0083840D02*
X0070460Y0083840D01*
X0070460Y0084706D02*
X0066596Y0084706D01*
X0066596Y0085572D02*
X0070460Y0085572D01*
X0073288Y0082108D02*
X0077152Y0082108D01*
X0073288Y0082108D02*
X0073288Y0085578D01*
X0077152Y0085578D01*
X0077152Y0082108D01*
X0077152Y0082974D02*
X0073288Y0082974D01*
X0073288Y0083840D02*
X0077152Y0083840D01*
X0077152Y0084706D02*
X0073288Y0084706D01*
X0073288Y0085572D02*
X0077152Y0085572D01*
X0079509Y0090912D02*
X0083373Y0090912D01*
X0083373Y0087442D01*
X0079509Y0087442D01*
X0079509Y0090912D01*
X0079509Y0088308D02*
X0083373Y0088308D01*
X0083373Y0089174D02*
X0079509Y0089174D01*
X0079509Y0090040D02*
X0083373Y0090040D01*
X0083373Y0090906D02*
X0079509Y0090906D01*
X0086202Y0090912D02*
X0090066Y0090912D01*
X0090066Y0087442D01*
X0086202Y0087442D01*
X0086202Y0090912D01*
X0086202Y0088308D02*
X0090066Y0088308D01*
X0090066Y0089174D02*
X0086202Y0089174D01*
X0086202Y0090040D02*
X0090066Y0090040D01*
X0090066Y0090906D02*
X0086202Y0090906D01*
X0077113Y0075021D02*
X0073249Y0075021D01*
X0073249Y0078491D01*
X0077113Y0078491D01*
X0077113Y0075021D01*
X0077113Y0075887D02*
X0073249Y0075887D01*
X0073249Y0076753D02*
X0077113Y0076753D01*
X0077113Y0077619D02*
X0073249Y0077619D01*
X0073249Y0078485D02*
X0077113Y0078485D01*
D11*
X0080474Y0081202D02*
X0082408Y0081202D01*
X0080474Y0081202D02*
X0080474Y0084908D01*
X0082408Y0084908D01*
X0082408Y0081202D01*
X0082408Y0082030D02*
X0080474Y0082030D01*
X0080474Y0082858D02*
X0082408Y0082858D01*
X0082408Y0083686D02*
X0080474Y0083686D01*
X0080474Y0084514D02*
X0082408Y0084514D01*
X0087954Y0081202D02*
X0089888Y0081202D01*
X0087954Y0081202D02*
X0087954Y0084908D01*
X0089888Y0084908D01*
X0089888Y0081202D01*
X0089888Y0082030D02*
X0087954Y0082030D01*
X0087954Y0082858D02*
X0089888Y0082858D01*
X0089888Y0083686D02*
X0087954Y0083686D01*
X0087954Y0084514D02*
X0089888Y0084514D01*
X0089888Y0070966D02*
X0087954Y0070966D01*
X0087954Y0074672D01*
X0089888Y0074672D01*
X0089888Y0070966D01*
X0089888Y0071794D02*
X0087954Y0071794D01*
X0087954Y0072622D02*
X0089888Y0072622D01*
X0089888Y0073450D02*
X0087954Y0073450D01*
X0087954Y0074278D02*
X0089888Y0074278D01*
X0086148Y0070966D02*
X0084214Y0070966D01*
X0084214Y0074672D01*
X0086148Y0074672D01*
X0086148Y0070966D01*
X0086148Y0071794D02*
X0084214Y0071794D01*
X0084214Y0072622D02*
X0086148Y0072622D01*
X0086148Y0073450D02*
X0084214Y0073450D01*
X0084214Y0074278D02*
X0086148Y0074278D01*
X0082408Y0070966D02*
X0080474Y0070966D01*
X0080474Y0074672D01*
X0082408Y0074672D01*
X0082408Y0070966D01*
X0082408Y0071794D02*
X0080474Y0071794D01*
X0080474Y0072622D02*
X0082408Y0072622D01*
X0082408Y0073450D02*
X0080474Y0073450D01*
X0080474Y0074278D02*
X0082408Y0074278D01*
D12*
X0001618Y0103429D02*
X0001618Y0018429D01*
X0001622Y0018067D01*
X0001636Y0017704D01*
X0001657Y0017342D01*
X0001688Y0016981D01*
X0001727Y0016621D01*
X0001775Y0016262D01*
X0001832Y0015904D01*
X0001897Y0015547D01*
X0001971Y0015192D01*
X0002054Y0014839D01*
X0002145Y0014488D01*
X0002244Y0014140D01*
X0002352Y0013794D01*
X0002468Y0013450D01*
X0002593Y0013110D01*
X0002725Y0012773D01*
X0002866Y0012439D01*
X0003015Y0012108D01*
X0003172Y0011781D01*
X0003336Y0011458D01*
X0003508Y0011139D01*
X0003688Y0010825D01*
X0003876Y0010514D01*
X0004071Y0010209D01*
X0004273Y0009908D01*
X0004483Y0009612D01*
X0004699Y0009322D01*
X0004923Y0009036D01*
X0005153Y0008756D01*
X0005390Y0008482D01*
X0005634Y0008214D01*
X0005884Y0007951D01*
X0006140Y0007695D01*
X0006403Y0007445D01*
X0006671Y0007201D01*
X0006945Y0006964D01*
X0007225Y0006734D01*
X0007511Y0006510D01*
X0007801Y0006294D01*
X0008097Y0006084D01*
X0008398Y0005882D01*
X0008703Y0005687D01*
X0009014Y0005499D01*
X0009328Y0005319D01*
X0009647Y0005147D01*
X0009970Y0004983D01*
X0010297Y0004826D01*
X0010628Y0004677D01*
X0010962Y0004536D01*
X0011299Y0004404D01*
X0011639Y0004279D01*
X0011983Y0004163D01*
X0012329Y0004055D01*
X0012677Y0003956D01*
X0013028Y0003865D01*
X0013381Y0003782D01*
X0013736Y0003708D01*
X0014093Y0003643D01*
X0014451Y0003586D01*
X0014810Y0003538D01*
X0015170Y0003499D01*
X0015531Y0003468D01*
X0015893Y0003447D01*
X0016256Y0003433D01*
X0016618Y0003429D01*
X0096618Y0003429D01*
X0096980Y0003433D01*
X0097343Y0003447D01*
X0097705Y0003468D01*
X0098066Y0003499D01*
X0098426Y0003538D01*
X0098785Y0003586D01*
X0099143Y0003643D01*
X0099500Y0003708D01*
X0099855Y0003782D01*
X0100208Y0003865D01*
X0100559Y0003956D01*
X0100907Y0004055D01*
X0101253Y0004163D01*
X0101597Y0004279D01*
X0101937Y0004404D01*
X0102274Y0004536D01*
X0102608Y0004677D01*
X0102939Y0004826D01*
X0103266Y0004983D01*
X0103589Y0005147D01*
X0103908Y0005319D01*
X0104222Y0005499D01*
X0104533Y0005687D01*
X0104838Y0005882D01*
X0105139Y0006084D01*
X0105435Y0006294D01*
X0105725Y0006510D01*
X0106011Y0006734D01*
X0106291Y0006964D01*
X0106565Y0007201D01*
X0106833Y0007445D01*
X0107096Y0007695D01*
X0107352Y0007951D01*
X0107602Y0008214D01*
X0107846Y0008482D01*
X0108083Y0008756D01*
X0108313Y0009036D01*
X0108537Y0009322D01*
X0108753Y0009612D01*
X0108963Y0009908D01*
X0109165Y0010209D01*
X0109360Y0010514D01*
X0109548Y0010825D01*
X0109728Y0011139D01*
X0109900Y0011458D01*
X0110064Y0011781D01*
X0110221Y0012108D01*
X0110370Y0012439D01*
X0110511Y0012773D01*
X0110643Y0013110D01*
X0110768Y0013450D01*
X0110884Y0013794D01*
X0110992Y0014140D01*
X0111091Y0014488D01*
X0111182Y0014839D01*
X0111265Y0015192D01*
X0111339Y0015547D01*
X0111404Y0015904D01*
X0111461Y0016262D01*
X0111509Y0016621D01*
X0111548Y0016981D01*
X0111579Y0017342D01*
X0111600Y0017704D01*
X0111614Y0018067D01*
X0111618Y0018429D01*
X0111618Y0103429D01*
X0076107Y0027661D02*
X0076109Y0027754D01*
X0076115Y0027846D01*
X0076125Y0027938D01*
X0076139Y0028029D01*
X0076156Y0028120D01*
X0076178Y0028210D01*
X0076203Y0028299D01*
X0076232Y0028387D01*
X0076265Y0028473D01*
X0076302Y0028558D01*
X0076342Y0028642D01*
X0076386Y0028723D01*
X0076433Y0028803D01*
X0076483Y0028881D01*
X0076537Y0028956D01*
X0076594Y0029029D01*
X0076654Y0029099D01*
X0076717Y0029167D01*
X0076783Y0029232D01*
X0076851Y0029294D01*
X0076922Y0029354D01*
X0076996Y0029410D01*
X0077072Y0029463D01*
X0077150Y0029512D01*
X0077230Y0029559D01*
X0077312Y0029601D01*
X0077396Y0029641D01*
X0077481Y0029676D01*
X0077568Y0029708D01*
X0077656Y0029737D01*
X0077745Y0029761D01*
X0077835Y0029782D01*
X0077926Y0029798D01*
X0078018Y0029811D01*
X0078110Y0029820D01*
X0078203Y0029825D01*
X0078295Y0029826D01*
X0078388Y0029823D01*
X0078480Y0029816D01*
X0078572Y0029805D01*
X0078663Y0029790D01*
X0078754Y0029772D01*
X0078844Y0029749D01*
X0078932Y0029723D01*
X0079020Y0029693D01*
X0079106Y0029659D01*
X0079190Y0029622D01*
X0079273Y0029580D01*
X0079354Y0029536D01*
X0079434Y0029488D01*
X0079511Y0029437D01*
X0079585Y0029382D01*
X0079658Y0029324D01*
X0079728Y0029264D01*
X0079795Y0029200D01*
X0079859Y0029134D01*
X0079921Y0029064D01*
X0079979Y0028993D01*
X0080034Y0028919D01*
X0080086Y0028842D01*
X0080135Y0028763D01*
X0080181Y0028683D01*
X0080223Y0028600D01*
X0080261Y0028516D01*
X0080296Y0028430D01*
X0080327Y0028343D01*
X0080354Y0028255D01*
X0080377Y0028165D01*
X0080397Y0028075D01*
X0080413Y0027984D01*
X0080425Y0027892D01*
X0080433Y0027800D01*
X0080437Y0027707D01*
X0080437Y0027615D01*
X0080433Y0027522D01*
X0080425Y0027430D01*
X0080413Y0027338D01*
X0080397Y0027247D01*
X0080377Y0027157D01*
X0080354Y0027067D01*
X0080327Y0026979D01*
X0080296Y0026892D01*
X0080261Y0026806D01*
X0080223Y0026722D01*
X0080181Y0026639D01*
X0080135Y0026559D01*
X0080086Y0026480D01*
X0080034Y0026403D01*
X0079979Y0026329D01*
X0079921Y0026258D01*
X0079859Y0026188D01*
X0079795Y0026122D01*
X0079728Y0026058D01*
X0079658Y0025998D01*
X0079585Y0025940D01*
X0079511Y0025885D01*
X0079434Y0025834D01*
X0079355Y0025786D01*
X0079273Y0025742D01*
X0079190Y0025700D01*
X0079106Y0025663D01*
X0079020Y0025629D01*
X0078932Y0025599D01*
X0078844Y0025573D01*
X0078754Y0025550D01*
X0078663Y0025532D01*
X0078572Y0025517D01*
X0078480Y0025506D01*
X0078388Y0025499D01*
X0078295Y0025496D01*
X0078203Y0025497D01*
X0078110Y0025502D01*
X0078018Y0025511D01*
X0077926Y0025524D01*
X0077835Y0025540D01*
X0077745Y0025561D01*
X0077656Y0025585D01*
X0077568Y0025614D01*
X0077481Y0025646D01*
X0077396Y0025681D01*
X0077312Y0025721D01*
X0077230Y0025763D01*
X0077150Y0025810D01*
X0077072Y0025859D01*
X0076996Y0025912D01*
X0076922Y0025968D01*
X0076851Y0026028D01*
X0076783Y0026090D01*
X0076717Y0026155D01*
X0076654Y0026223D01*
X0076594Y0026293D01*
X0076537Y0026366D01*
X0076483Y0026441D01*
X0076433Y0026519D01*
X0076386Y0026599D01*
X0076342Y0026680D01*
X0076302Y0026764D01*
X0076265Y0026849D01*
X0076232Y0026935D01*
X0076203Y0027023D01*
X0076178Y0027112D01*
X0076156Y0027202D01*
X0076139Y0027293D01*
X0076125Y0027384D01*
X0076115Y0027476D01*
X0076109Y0027568D01*
X0076107Y0027661D01*
X0032800Y0027661D02*
X0032802Y0027754D01*
X0032808Y0027846D01*
X0032818Y0027938D01*
X0032832Y0028029D01*
X0032849Y0028120D01*
X0032871Y0028210D01*
X0032896Y0028299D01*
X0032925Y0028387D01*
X0032958Y0028473D01*
X0032995Y0028558D01*
X0033035Y0028642D01*
X0033079Y0028723D01*
X0033126Y0028803D01*
X0033176Y0028881D01*
X0033230Y0028956D01*
X0033287Y0029029D01*
X0033347Y0029099D01*
X0033410Y0029167D01*
X0033476Y0029232D01*
X0033544Y0029294D01*
X0033615Y0029354D01*
X0033689Y0029410D01*
X0033765Y0029463D01*
X0033843Y0029512D01*
X0033923Y0029559D01*
X0034005Y0029601D01*
X0034089Y0029641D01*
X0034174Y0029676D01*
X0034261Y0029708D01*
X0034349Y0029737D01*
X0034438Y0029761D01*
X0034528Y0029782D01*
X0034619Y0029798D01*
X0034711Y0029811D01*
X0034803Y0029820D01*
X0034896Y0029825D01*
X0034988Y0029826D01*
X0035081Y0029823D01*
X0035173Y0029816D01*
X0035265Y0029805D01*
X0035356Y0029790D01*
X0035447Y0029772D01*
X0035537Y0029749D01*
X0035625Y0029723D01*
X0035713Y0029693D01*
X0035799Y0029659D01*
X0035883Y0029622D01*
X0035966Y0029580D01*
X0036047Y0029536D01*
X0036127Y0029488D01*
X0036204Y0029437D01*
X0036278Y0029382D01*
X0036351Y0029324D01*
X0036421Y0029264D01*
X0036488Y0029200D01*
X0036552Y0029134D01*
X0036614Y0029064D01*
X0036672Y0028993D01*
X0036727Y0028919D01*
X0036779Y0028842D01*
X0036828Y0028763D01*
X0036874Y0028683D01*
X0036916Y0028600D01*
X0036954Y0028516D01*
X0036989Y0028430D01*
X0037020Y0028343D01*
X0037047Y0028255D01*
X0037070Y0028165D01*
X0037090Y0028075D01*
X0037106Y0027984D01*
X0037118Y0027892D01*
X0037126Y0027800D01*
X0037130Y0027707D01*
X0037130Y0027615D01*
X0037126Y0027522D01*
X0037118Y0027430D01*
X0037106Y0027338D01*
X0037090Y0027247D01*
X0037070Y0027157D01*
X0037047Y0027067D01*
X0037020Y0026979D01*
X0036989Y0026892D01*
X0036954Y0026806D01*
X0036916Y0026722D01*
X0036874Y0026639D01*
X0036828Y0026559D01*
X0036779Y0026480D01*
X0036727Y0026403D01*
X0036672Y0026329D01*
X0036614Y0026258D01*
X0036552Y0026188D01*
X0036488Y0026122D01*
X0036421Y0026058D01*
X0036351Y0025998D01*
X0036278Y0025940D01*
X0036204Y0025885D01*
X0036127Y0025834D01*
X0036048Y0025786D01*
X0035966Y0025742D01*
X0035883Y0025700D01*
X0035799Y0025663D01*
X0035713Y0025629D01*
X0035625Y0025599D01*
X0035537Y0025573D01*
X0035447Y0025550D01*
X0035356Y0025532D01*
X0035265Y0025517D01*
X0035173Y0025506D01*
X0035081Y0025499D01*
X0034988Y0025496D01*
X0034896Y0025497D01*
X0034803Y0025502D01*
X0034711Y0025511D01*
X0034619Y0025524D01*
X0034528Y0025540D01*
X0034438Y0025561D01*
X0034349Y0025585D01*
X0034261Y0025614D01*
X0034174Y0025646D01*
X0034089Y0025681D01*
X0034005Y0025721D01*
X0033923Y0025763D01*
X0033843Y0025810D01*
X0033765Y0025859D01*
X0033689Y0025912D01*
X0033615Y0025968D01*
X0033544Y0026028D01*
X0033476Y0026090D01*
X0033410Y0026155D01*
X0033347Y0026223D01*
X0033287Y0026293D01*
X0033230Y0026366D01*
X0033176Y0026441D01*
X0033126Y0026519D01*
X0033079Y0026599D01*
X0033035Y0026680D01*
X0032995Y0026764D01*
X0032958Y0026849D01*
X0032925Y0026935D01*
X0032896Y0027023D01*
X0032871Y0027112D01*
X0032849Y0027202D01*
X0032832Y0027293D01*
X0032818Y0027384D01*
X0032808Y0027476D01*
X0032802Y0027568D01*
X0032800Y0027661D01*
X0001618Y0103429D02*
X0001634Y0104768D01*
X0001683Y0106107D01*
X0001765Y0107444D01*
X0001879Y0108778D01*
X0002025Y0110110D01*
X0002204Y0111437D01*
X0002415Y0112760D01*
X0002659Y0114077D01*
X0002934Y0115388D01*
X0003241Y0116691D01*
X0003580Y0117987D01*
X0003950Y0119274D01*
X0004351Y0120552D01*
X0004784Y0121820D01*
X0005247Y0123077D01*
X0005741Y0124322D01*
X0006265Y0125555D01*
X0006818Y0126774D01*
X0007402Y0127980D01*
X0008014Y0129171D01*
X0008655Y0130347D01*
X0009325Y0131507D01*
X0010023Y0132650D01*
X0010748Y0133776D01*
X0011501Y0134884D01*
X0012280Y0135974D01*
X0013086Y0137044D01*
X0013917Y0138094D01*
X0014774Y0139123D01*
X0015656Y0140132D01*
X0016561Y0141118D01*
X0017491Y0142082D01*
X0018444Y0143024D01*
X0019419Y0143942D01*
X0020417Y0144835D01*
X0021436Y0145705D01*
X0022476Y0146549D01*
X0023536Y0147367D01*
X0024616Y0148160D01*
X0025714Y0148926D01*
X0026832Y0149665D01*
X0027966Y0150377D01*
X0029118Y0151060D01*
X0030286Y0151716D01*
X0031470Y0152343D01*
X0032668Y0152941D01*
X0033881Y0153509D01*
X0035107Y0154048D01*
X0036346Y0154557D01*
X0037597Y0155035D01*
X0038860Y0155483D01*
X0040132Y0155900D01*
X0041415Y0156286D01*
X0042707Y0156641D01*
X0044007Y0156964D01*
X0045314Y0157255D01*
X0046628Y0157514D01*
X0047948Y0157741D01*
X0049273Y0157936D01*
X0050603Y0158099D01*
X0051936Y0158229D01*
X0053271Y0158327D01*
X0054609Y0158392D01*
X0055948Y0158425D01*
X0057288Y0158425D01*
X0058627Y0158392D01*
X0059965Y0158327D01*
X0061300Y0158229D01*
X0062633Y0158099D01*
X0063963Y0157936D01*
X0065288Y0157741D01*
X0066608Y0157514D01*
X0067922Y0157255D01*
X0069229Y0156964D01*
X0070529Y0156641D01*
X0071821Y0156286D01*
X0073104Y0155900D01*
X0074376Y0155483D01*
X0075639Y0155035D01*
X0076890Y0154557D01*
X0078129Y0154048D01*
X0079355Y0153509D01*
X0080568Y0152941D01*
X0081766Y0152343D01*
X0082950Y0151716D01*
X0084118Y0151060D01*
X0085270Y0150377D01*
X0086404Y0149665D01*
X0087522Y0148926D01*
X0088620Y0148160D01*
X0089700Y0147367D01*
X0090760Y0146549D01*
X0091800Y0145705D01*
X0092819Y0144835D01*
X0093817Y0143942D01*
X0094792Y0143024D01*
X0095745Y0142082D01*
X0096675Y0141118D01*
X0097580Y0140132D01*
X0098462Y0139123D01*
X0099319Y0138094D01*
X0100150Y0137044D01*
X0100956Y0135974D01*
X0101735Y0134884D01*
X0102488Y0133776D01*
X0103213Y0132650D01*
X0103911Y0131507D01*
X0104581Y0130347D01*
X0105222Y0129171D01*
X0105834Y0127980D01*
X0106418Y0126774D01*
X0106971Y0125555D01*
X0107495Y0124322D01*
X0107989Y0123077D01*
X0108452Y0121820D01*
X0108885Y0120552D01*
X0109286Y0119274D01*
X0109656Y0117987D01*
X0109995Y0116691D01*
X0110302Y0115388D01*
X0110577Y0114077D01*
X0110821Y0112760D01*
X0111032Y0111437D01*
X0111211Y0110110D01*
X0111357Y0108778D01*
X0111471Y0107444D01*
X0111553Y0106107D01*
X0111602Y0104768D01*
X0111618Y0103429D01*
D13*
X0096618Y0103429D03*
X0096618Y0018429D03*
X0016618Y0018429D03*
X0016618Y0103429D03*
D14*
X0040870Y0038729D02*
X0040870Y0033129D01*
X0048744Y0033129D02*
X0048744Y0038729D01*
X0056618Y0038729D02*
X0056618Y0033129D01*
X0064492Y0033129D02*
X0064492Y0038729D01*
X0072366Y0038729D02*
X0072366Y0033129D01*
D15*
X0078272Y0027661D03*
X0034965Y0027661D03*
D16*
X0050555Y0077878D03*
X0050555Y0079453D03*
X0050555Y0081028D03*
X0050555Y0082602D03*
X0062681Y0082602D03*
X0062681Y0081028D03*
X0062681Y0079453D03*
X0062681Y0077878D03*
D17*
X0058980Y0074177D03*
X0057406Y0074177D03*
X0055831Y0074177D03*
X0054256Y0074177D03*
X0054256Y0086303D03*
X0055831Y0086303D03*
X0057406Y0086303D03*
X0058980Y0086303D03*
D18*
X0057839Y0081500D03*
D19*
X0066461Y0129453D03*
X0066461Y0149138D03*
X0046776Y0149138D03*
X0046776Y0129453D03*
M02*
