G75*
%MOIN*%
%OFA0B0*%
%FSLAX24Y24*%
%IPPOS*%
%LPD*%
%AMOC8*
5,1,8,0,0,1.08239X$1,22.5*
%
%ADD10OC8,0.0660*%
%ADD11C,0.0705*%
%ADD12C,0.0100*%
%ADD13C,0.0400*%
D10*
X015700Y001500D03*
X016700Y001500D03*
X017700Y001500D03*
X018700Y001500D03*
X019700Y001500D03*
X020700Y001500D03*
X022700Y001500D03*
X023700Y001500D03*
X024700Y001500D03*
X025700Y001500D03*
X026700Y001500D03*
X027700Y001500D03*
X027700Y020500D03*
X026700Y020500D03*
X025700Y020500D03*
X024700Y020500D03*
X023700Y020500D03*
X022700Y020500D03*
X021700Y020500D03*
X020700Y020500D03*
X019100Y020500D03*
X018100Y020500D03*
X017100Y020500D03*
X016100Y020500D03*
X015100Y020500D03*
X014100Y020500D03*
X013100Y020500D03*
X012100Y020500D03*
D11*
X005553Y009016D02*
X004848Y009016D01*
X004848Y010984D02*
X005553Y010984D01*
X026848Y012516D02*
X027553Y012516D01*
X027553Y014484D02*
X026848Y014484D01*
X026848Y008484D02*
X027553Y008484D01*
X027553Y006516D02*
X026848Y006516D01*
D12*
X022500Y006530D02*
X022500Y018320D01*
X024660Y020480D01*
X024700Y020500D01*
X023700Y020500D02*
X023670Y020480D01*
X022140Y018950D01*
X022140Y010490D01*
X021420Y010400D02*
X022140Y009680D01*
X022140Y005990D01*
X017730Y001580D01*
X017700Y001500D01*
X018900Y008870D02*
X019620Y009590D01*
X019620Y015260D01*
X021420Y015440D02*
X021420Y010400D01*
X021780Y011930D02*
X021780Y020480D01*
X021700Y020500D01*
D13*
X021420Y015440D03*
X019620Y015260D03*
X021780Y011930D03*
X022140Y010490D03*
X022140Y009680D03*
X018900Y008870D03*
X022500Y006530D03*
M02*
