%
M48
M72
T01C0.01200
T02C0.02362
T03C0.03500
T04C0.04000
T05C0.09055
T06C0.09350
%
T01
X135319Y34925
X166815Y47720
X145161Y129413
X159925Y147130
X166815Y180594
X166815Y205201
X155004Y208154
X121539Y209138
X121539Y177642
T02
X124886Y168823
T03
X136831Y47996
X144831Y47996
X140831Y27996
T04
X35083Y95752
X35083Y146146
T05
X23114Y16224
X259335Y16224
X259335Y232760
X23114Y232760
T06
X130831Y40496
X130831Y27996
X150831Y27996
X150831Y40496
M30
