G75*
%MOIN*%
%OFA0B0*%
%FSLAX25Y25*%
%IPPOS*%
%LPD*%
%AMOC8*
5,1,8,0,0,1.08239X$1,22.5*
%
%ADD10C,0.00000*%
%ADD11C,0.00400*%
%ADD12C,0.00600*%
%ADD13C,0.00500*%
%ADD14C,0.00197*%
%ADD15C,0.01378*%
D10*
X0005737Y0005737D02*
X0005737Y0155068D01*
X0130186Y0155068D01*
X0130186Y0005737D01*
X0005737Y0005737D01*
X0061366Y0049359D02*
X0061368Y0049447D01*
X0061374Y0049535D01*
X0061384Y0049623D01*
X0061398Y0049711D01*
X0061415Y0049797D01*
X0061437Y0049883D01*
X0061462Y0049967D01*
X0061492Y0050051D01*
X0061524Y0050133D01*
X0061561Y0050213D01*
X0061601Y0050292D01*
X0061645Y0050369D01*
X0061692Y0050444D01*
X0061742Y0050516D01*
X0061796Y0050587D01*
X0061852Y0050654D01*
X0061912Y0050720D01*
X0061974Y0050782D01*
X0062040Y0050842D01*
X0062107Y0050898D01*
X0062178Y0050952D01*
X0062250Y0051002D01*
X0062325Y0051049D01*
X0062402Y0051093D01*
X0062481Y0051133D01*
X0062561Y0051170D01*
X0062643Y0051202D01*
X0062727Y0051232D01*
X0062811Y0051257D01*
X0062897Y0051279D01*
X0062983Y0051296D01*
X0063071Y0051310D01*
X0063159Y0051320D01*
X0063247Y0051326D01*
X0063335Y0051328D01*
X0063423Y0051326D01*
X0063511Y0051320D01*
X0063599Y0051310D01*
X0063687Y0051296D01*
X0063773Y0051279D01*
X0063859Y0051257D01*
X0063943Y0051232D01*
X0064027Y0051202D01*
X0064109Y0051170D01*
X0064189Y0051133D01*
X0064268Y0051093D01*
X0064345Y0051049D01*
X0064420Y0051002D01*
X0064492Y0050952D01*
X0064563Y0050898D01*
X0064630Y0050842D01*
X0064696Y0050782D01*
X0064758Y0050720D01*
X0064818Y0050654D01*
X0064874Y0050587D01*
X0064928Y0050516D01*
X0064978Y0050444D01*
X0065025Y0050369D01*
X0065069Y0050292D01*
X0065109Y0050213D01*
X0065146Y0050133D01*
X0065178Y0050051D01*
X0065208Y0049967D01*
X0065233Y0049883D01*
X0065255Y0049797D01*
X0065272Y0049711D01*
X0065286Y0049623D01*
X0065296Y0049535D01*
X0065302Y0049447D01*
X0065304Y0049359D01*
X0065302Y0049271D01*
X0065296Y0049183D01*
X0065286Y0049095D01*
X0065272Y0049007D01*
X0065255Y0048921D01*
X0065233Y0048835D01*
X0065208Y0048751D01*
X0065178Y0048667D01*
X0065146Y0048585D01*
X0065109Y0048505D01*
X0065069Y0048426D01*
X0065025Y0048349D01*
X0064978Y0048274D01*
X0064928Y0048202D01*
X0064874Y0048131D01*
X0064818Y0048064D01*
X0064758Y0047998D01*
X0064696Y0047936D01*
X0064630Y0047876D01*
X0064563Y0047820D01*
X0064492Y0047766D01*
X0064420Y0047716D01*
X0064345Y0047669D01*
X0064268Y0047625D01*
X0064189Y0047585D01*
X0064109Y0047548D01*
X0064027Y0047516D01*
X0063943Y0047486D01*
X0063859Y0047461D01*
X0063773Y0047439D01*
X0063687Y0047422D01*
X0063599Y0047408D01*
X0063511Y0047398D01*
X0063423Y0047392D01*
X0063335Y0047390D01*
X0063247Y0047392D01*
X0063159Y0047398D01*
X0063071Y0047408D01*
X0062983Y0047422D01*
X0062897Y0047439D01*
X0062811Y0047461D01*
X0062727Y0047486D01*
X0062643Y0047516D01*
X0062561Y0047548D01*
X0062481Y0047585D01*
X0062402Y0047625D01*
X0062325Y0047669D01*
X0062250Y0047716D01*
X0062178Y0047766D01*
X0062107Y0047820D01*
X0062040Y0047876D01*
X0061974Y0047936D01*
X0061912Y0047998D01*
X0061852Y0048064D01*
X0061796Y0048131D01*
X0061742Y0048202D01*
X0061692Y0048274D01*
X0061645Y0048349D01*
X0061601Y0048426D01*
X0061561Y0048505D01*
X0061524Y0048585D01*
X0061492Y0048667D01*
X0061462Y0048751D01*
X0061437Y0048835D01*
X0061415Y0048921D01*
X0061398Y0049007D01*
X0061384Y0049095D01*
X0061374Y0049183D01*
X0061368Y0049271D01*
X0061366Y0049359D01*
X0075540Y0049359D02*
X0075542Y0049447D01*
X0075548Y0049535D01*
X0075558Y0049623D01*
X0075572Y0049711D01*
X0075589Y0049797D01*
X0075611Y0049883D01*
X0075636Y0049967D01*
X0075666Y0050051D01*
X0075698Y0050133D01*
X0075735Y0050213D01*
X0075775Y0050292D01*
X0075819Y0050369D01*
X0075866Y0050444D01*
X0075916Y0050516D01*
X0075970Y0050587D01*
X0076026Y0050654D01*
X0076086Y0050720D01*
X0076148Y0050782D01*
X0076214Y0050842D01*
X0076281Y0050898D01*
X0076352Y0050952D01*
X0076424Y0051002D01*
X0076499Y0051049D01*
X0076576Y0051093D01*
X0076655Y0051133D01*
X0076735Y0051170D01*
X0076817Y0051202D01*
X0076901Y0051232D01*
X0076985Y0051257D01*
X0077071Y0051279D01*
X0077157Y0051296D01*
X0077245Y0051310D01*
X0077333Y0051320D01*
X0077421Y0051326D01*
X0077509Y0051328D01*
X0077597Y0051326D01*
X0077685Y0051320D01*
X0077773Y0051310D01*
X0077861Y0051296D01*
X0077947Y0051279D01*
X0078033Y0051257D01*
X0078117Y0051232D01*
X0078201Y0051202D01*
X0078283Y0051170D01*
X0078363Y0051133D01*
X0078442Y0051093D01*
X0078519Y0051049D01*
X0078594Y0051002D01*
X0078666Y0050952D01*
X0078737Y0050898D01*
X0078804Y0050842D01*
X0078870Y0050782D01*
X0078932Y0050720D01*
X0078992Y0050654D01*
X0079048Y0050587D01*
X0079102Y0050516D01*
X0079152Y0050444D01*
X0079199Y0050369D01*
X0079243Y0050292D01*
X0079283Y0050213D01*
X0079320Y0050133D01*
X0079352Y0050051D01*
X0079382Y0049967D01*
X0079407Y0049883D01*
X0079429Y0049797D01*
X0079446Y0049711D01*
X0079460Y0049623D01*
X0079470Y0049535D01*
X0079476Y0049447D01*
X0079478Y0049359D01*
X0079476Y0049271D01*
X0079470Y0049183D01*
X0079460Y0049095D01*
X0079446Y0049007D01*
X0079429Y0048921D01*
X0079407Y0048835D01*
X0079382Y0048751D01*
X0079352Y0048667D01*
X0079320Y0048585D01*
X0079283Y0048505D01*
X0079243Y0048426D01*
X0079199Y0048349D01*
X0079152Y0048274D01*
X0079102Y0048202D01*
X0079048Y0048131D01*
X0078992Y0048064D01*
X0078932Y0047998D01*
X0078870Y0047936D01*
X0078804Y0047876D01*
X0078737Y0047820D01*
X0078666Y0047766D01*
X0078594Y0047716D01*
X0078519Y0047669D01*
X0078442Y0047625D01*
X0078363Y0047585D01*
X0078283Y0047548D01*
X0078201Y0047516D01*
X0078117Y0047486D01*
X0078033Y0047461D01*
X0077947Y0047439D01*
X0077861Y0047422D01*
X0077773Y0047408D01*
X0077685Y0047398D01*
X0077597Y0047392D01*
X0077509Y0047390D01*
X0077421Y0047392D01*
X0077333Y0047398D01*
X0077245Y0047408D01*
X0077157Y0047422D01*
X0077071Y0047439D01*
X0076985Y0047461D01*
X0076901Y0047486D01*
X0076817Y0047516D01*
X0076735Y0047548D01*
X0076655Y0047585D01*
X0076576Y0047625D01*
X0076499Y0047669D01*
X0076424Y0047716D01*
X0076352Y0047766D01*
X0076281Y0047820D01*
X0076214Y0047876D01*
X0076148Y0047936D01*
X0076086Y0047998D01*
X0076026Y0048064D01*
X0075970Y0048131D01*
X0075916Y0048202D01*
X0075866Y0048274D01*
X0075819Y0048349D01*
X0075775Y0048426D01*
X0075735Y0048505D01*
X0075698Y0048585D01*
X0075666Y0048667D01*
X0075636Y0048751D01*
X0075611Y0048835D01*
X0075589Y0048921D01*
X0075572Y0049007D01*
X0075558Y0049095D01*
X0075548Y0049183D01*
X0075542Y0049271D01*
X0075540Y0049359D01*
D11*
X0056368Y0040701D02*
X0053299Y0040701D01*
X0054834Y0040701D02*
X0054834Y0045305D01*
X0053299Y0043770D01*
X0072456Y0107244D02*
X0073991Y0107244D01*
X0074758Y0108011D01*
X0076293Y0108011D02*
X0077060Y0107244D01*
X0078595Y0107244D01*
X0079362Y0108011D01*
X0079362Y0108779D01*
X0078595Y0109546D01*
X0077828Y0109546D01*
X0078595Y0109546D02*
X0079362Y0110313D01*
X0079362Y0111081D01*
X0078595Y0111848D01*
X0077060Y0111848D01*
X0076293Y0111081D01*
X0074758Y0111081D02*
X0073991Y0111848D01*
X0072456Y0111848D01*
X0071689Y0111081D01*
X0071689Y0108011D01*
X0072456Y0107244D01*
X0089146Y0109795D02*
X0089913Y0109028D01*
X0091448Y0109028D01*
X0092215Y0109795D01*
X0092215Y0110562D01*
X0091448Y0111330D01*
X0090680Y0111330D01*
X0091448Y0111330D02*
X0092215Y0112097D01*
X0092215Y0112864D01*
X0091448Y0113631D01*
X0089913Y0113631D01*
X0089146Y0112864D01*
X0093750Y0112864D02*
X0094517Y0113631D01*
X0096052Y0113631D01*
X0096819Y0112864D01*
X0096819Y0112097D01*
X0093750Y0109028D01*
X0096819Y0109028D01*
X0098354Y0109028D02*
X0099121Y0109028D01*
X0099121Y0109795D01*
X0098354Y0109795D01*
X0098354Y0109028D01*
X0100655Y0109028D02*
X0100655Y0109795D01*
X0103725Y0112864D01*
X0103725Y0113631D01*
X0100655Y0113631D01*
X0105259Y0111330D02*
X0105259Y0109795D01*
X0106027Y0109028D01*
X0107561Y0109028D01*
X0108329Y0109795D01*
X0108329Y0110562D01*
X0107561Y0111330D01*
X0105259Y0111330D01*
X0106794Y0112864D01*
X0108329Y0113631D01*
X0107889Y0112163D02*
X0107122Y0111396D01*
X0107122Y0108326D01*
X0107889Y0107559D01*
X0109424Y0107559D01*
X0110191Y0108326D01*
X0110631Y0109028D02*
X0109863Y0109795D01*
X0109863Y0110562D01*
X0110631Y0111330D01*
X0112165Y0111330D01*
X0112933Y0110562D01*
X0112933Y0109795D01*
X0112165Y0109028D01*
X0110631Y0109028D01*
X0111726Y0107559D02*
X0114795Y0110628D01*
X0114795Y0111396D01*
X0114028Y0112163D01*
X0112493Y0112163D01*
X0111726Y0111396D01*
X0112165Y0111330D02*
X0112933Y0112097D01*
X0112933Y0112864D01*
X0112165Y0113631D01*
X0110631Y0113631D01*
X0109863Y0112864D01*
X0109863Y0112097D01*
X0110631Y0111330D01*
X0110191Y0111396D02*
X0109424Y0112163D01*
X0107889Y0112163D01*
X0111726Y0107559D02*
X0114795Y0107559D01*
X0114467Y0109028D02*
X0117537Y0109028D01*
X0119071Y0109028D02*
X0119071Y0113631D01*
X0119071Y0111330D02*
X0122140Y0111330D01*
X0123675Y0109795D02*
X0123675Y0109028D01*
X0126744Y0109028D01*
X0123675Y0109795D02*
X0126744Y0112864D01*
X0126744Y0113631D01*
X0123675Y0113631D01*
X0122140Y0113631D02*
X0122140Y0109028D01*
X0114467Y0109028D02*
X0114467Y0113631D01*
X0114028Y0126496D02*
X0114028Y0131100D01*
X0111726Y0128798D01*
X0114795Y0128798D01*
X0110191Y0127263D02*
X0109424Y0126496D01*
X0107889Y0126496D01*
X0107122Y0127263D01*
X0107122Y0130333D01*
X0107889Y0131100D01*
X0109424Y0131100D01*
X0110191Y0130333D01*
X0110958Y0145157D02*
X0110191Y0145925D01*
X0110958Y0145157D02*
X0112492Y0145157D01*
X0113260Y0145925D01*
X0113260Y0147459D01*
X0112492Y0148227D01*
X0111725Y0148227D01*
X0110191Y0147459D01*
X0110191Y0149761D01*
X0113260Y0149761D01*
X0108656Y0148994D02*
X0107889Y0149761D01*
X0106354Y0149761D01*
X0105587Y0148994D01*
X0105587Y0145925D01*
X0106354Y0145157D01*
X0107889Y0145157D01*
X0108656Y0145925D01*
X0095110Y0142862D02*
X0092041Y0142862D01*
X0090506Y0142862D02*
X0088972Y0144397D01*
X0089739Y0144397D02*
X0087437Y0144397D01*
X0087437Y0142862D02*
X0087437Y0147466D01*
X0089739Y0147466D01*
X0090506Y0146699D01*
X0090506Y0145164D01*
X0089739Y0144397D01*
X0092041Y0145931D02*
X0093576Y0147466D01*
X0093576Y0142862D01*
X0093576Y0130903D02*
X0093576Y0126299D01*
X0095110Y0126299D02*
X0092041Y0126299D01*
X0090506Y0127067D02*
X0089739Y0126299D01*
X0088204Y0126299D01*
X0087437Y0127067D01*
X0087437Y0130136D01*
X0088204Y0130903D01*
X0089739Y0130903D01*
X0090506Y0130136D01*
X0092041Y0129368D02*
X0093576Y0130903D01*
D12*
X0115048Y0070737D02*
X0120048Y0070737D01*
X0122548Y0068237D01*
X0122548Y0063237D01*
X0120048Y0060737D01*
X0122548Y0058237D01*
X0122548Y0053237D01*
X0120048Y0050737D01*
X0122548Y0048237D01*
X0122548Y0043237D01*
X0120048Y0040737D01*
X0122548Y0038237D01*
X0122548Y0033237D01*
X0120048Y0030737D01*
X0122548Y0028237D01*
X0122548Y0023237D01*
X0120048Y0020737D01*
X0122548Y0018237D01*
X0122548Y0013237D01*
X0120048Y0010737D01*
X0115048Y0010737D01*
X0112548Y0013237D01*
X0112548Y0018237D01*
X0115048Y0020737D01*
X0112548Y0023237D01*
X0112548Y0028237D01*
X0115048Y0030737D01*
X0120048Y0030737D01*
X0115048Y0030737D02*
X0112548Y0033237D01*
X0112548Y0038237D01*
X0115048Y0040737D01*
X0112548Y0043237D01*
X0112548Y0048237D01*
X0115048Y0050737D01*
X0112548Y0053237D01*
X0112548Y0058237D01*
X0115048Y0060737D01*
X0112548Y0063237D01*
X0112548Y0068237D01*
X0115048Y0070737D01*
X0115048Y0060737D02*
X0120048Y0060737D01*
X0120048Y0050737D02*
X0115048Y0050737D01*
X0115048Y0040737D02*
X0120048Y0040737D01*
X0120048Y0020737D02*
X0115048Y0020737D01*
X0020737Y0018237D02*
X0020737Y0013237D01*
X0018237Y0010737D01*
X0013237Y0010737D01*
X0010737Y0013237D01*
X0010737Y0018237D01*
X0013237Y0020737D01*
X0010737Y0023237D01*
X0010737Y0028237D01*
X0013237Y0030737D01*
X0018237Y0030737D01*
X0020737Y0028237D01*
X0020737Y0023237D01*
X0018237Y0020737D01*
X0020737Y0018237D01*
X0018237Y0020737D02*
X0013237Y0020737D01*
X0013237Y0030737D02*
X0010737Y0033237D01*
X0010737Y0038237D01*
X0013237Y0040737D01*
X0010737Y0043237D01*
X0010737Y0048237D01*
X0013237Y0050737D01*
X0010737Y0053237D01*
X0010737Y0058237D01*
X0013237Y0060737D01*
X0010737Y0063237D01*
X0010737Y0068237D01*
X0013237Y0070737D01*
X0018237Y0070737D01*
X0020737Y0068237D01*
X0020737Y0063237D01*
X0018237Y0060737D01*
X0020737Y0058237D01*
X0020737Y0053237D01*
X0018237Y0050737D01*
X0020737Y0048237D01*
X0020737Y0043237D01*
X0018237Y0040737D01*
X0020737Y0038237D01*
X0020737Y0033237D01*
X0018237Y0030737D01*
X0018237Y0040737D02*
X0013237Y0040737D01*
X0013237Y0050737D02*
X0018237Y0050737D01*
X0018237Y0060737D02*
X0013237Y0060737D01*
D13*
X0008287Y0022897D02*
X0008287Y0019895D01*
X0008287Y0021396D02*
X0003783Y0021396D01*
X0005284Y0019895D01*
X0004534Y0018293D02*
X0003783Y0017543D01*
X0003783Y0015291D01*
X0008287Y0015291D01*
X0007536Y0012939D02*
X0003783Y0012939D01*
X0003783Y0012188D02*
X0003783Y0013690D01*
X0006786Y0015291D02*
X0006786Y0017543D01*
X0006035Y0018293D01*
X0004534Y0018293D01*
X0007536Y0012939D02*
X0008287Y0012188D01*
X0008287Y0011438D01*
X0007536Y0010687D01*
X0058020Y0042666D02*
X0058020Y0056839D01*
X0082627Y0056839D01*
X0082627Y0042666D01*
X0058020Y0042666D01*
X0105594Y0022147D02*
X0105594Y0020645D01*
X0106345Y0019895D01*
X0106345Y0018293D02*
X0105594Y0017543D01*
X0105594Y0015291D01*
X0110098Y0015291D01*
X0108597Y0015291D02*
X0108597Y0017543D01*
X0107846Y0018293D01*
X0106345Y0018293D01*
X0105594Y0022147D02*
X0106345Y0022897D01*
X0107095Y0022897D01*
X0110098Y0019895D01*
X0110098Y0022897D01*
X0109347Y0012939D02*
X0105594Y0012939D01*
X0105594Y0012188D02*
X0105594Y0013690D01*
X0109347Y0012939D02*
X0110098Y0012188D01*
X0110098Y0011438D01*
X0109347Y0010687D01*
D14*
X0054674Y0099674D02*
X0054674Y0170540D01*
X0015304Y0170540D01*
X0015304Y0099674D01*
X0054674Y0099674D01*
D15*
X0092981Y0104792D03*
M02*
