%
M48
M72
T01C0.02400
T02C0.03937
T03C0.04000
%
T01
X68729Y34280
X80540Y59871
X86446Y63808
X96288Y80540
X93335Y93335
X90383Y110068
X90383Y114989
X94320Y122863
X101209Y124831
X109083Y130737
X90383Y130737
X60855Y128769
X53965Y127784
X42154Y111052
X59871Y99241
X69713Y84477
X109083Y38217
X111052Y31328
X112036Y59871
X123847Y102194
T02
X74123Y49359
X59950Y49359
T03
X19910Y15737
X19910Y25737
X19910Y35737
X19910Y45737
X19910Y55737
X19910Y65737
X121721Y65737
X121721Y55737
X121721Y45737
X121721Y35737
X121721Y25737
X121721Y15737
M30
