G75*
%MOIN*%
%OFA0B0*%
%FSLAX25Y25*%
%IPPOS*%
%LPD*%
%AMOC8*
5,1,8,0,0,1.08239X$1,22.5*
%
%ADD10R,0.04331X0.03937*%
%ADD11OC8,0.06000*%
%ADD12R,0.03937X0.04331*%
%ADD13R,0.07283X0.01969*%
%ADD14R,0.01969X0.07283*%
%ADD15R,0.02500X0.08000*%
%ADD16R,0.02756X0.05512*%
%ADD17C,0.01000*%
%ADD18C,0.04000*%
D10*
X0017417Y0099622D03*
X0024110Y0099622D03*
X0037102Y0118362D03*
X0043795Y0118362D03*
X0052850Y0099307D03*
X0059543Y0099307D03*
X0025646Y0137220D03*
X0018953Y0137220D03*
X0017417Y0118559D03*
X0024110Y0118559D03*
D11*
X0013638Y0061000D03*
X0013638Y0051000D03*
X0013638Y0041000D03*
X0013638Y0031000D03*
X0013638Y0021000D03*
X0013638Y0011000D03*
X0115449Y0011000D03*
X0115449Y0021000D03*
X0115449Y0031000D03*
X0115449Y0041000D03*
X0115449Y0051000D03*
X0115449Y0061000D03*
D12*
X0043795Y0134425D03*
X0037102Y0134425D03*
D13*
X0077142Y0135094D03*
X0077142Y0132339D03*
X0077142Y0129583D03*
X0077142Y0126827D03*
X0077142Y0124071D03*
X0077142Y0121315D03*
X0077142Y0118559D03*
X0077142Y0115803D03*
X0077142Y0113047D03*
X0077142Y0110291D03*
X0077142Y0107535D03*
X0077142Y0104780D03*
X0077142Y0102024D03*
X0077142Y0137850D03*
X0077142Y0140606D03*
X0077142Y0143362D03*
X0077142Y0146118D03*
X0115331Y0146118D03*
X0115331Y0143362D03*
X0115331Y0126827D03*
X0115331Y0124071D03*
X0115331Y0121315D03*
X0115331Y0118559D03*
X0115331Y0115803D03*
X0115331Y0113047D03*
X0115331Y0110291D03*
X0115331Y0107535D03*
X0115331Y0104780D03*
X0115331Y0102024D03*
D14*
X0112811Y0096079D03*
X0110055Y0096079D03*
X0107299Y0096079D03*
X0104543Y0096079D03*
X0101787Y0096079D03*
X0099031Y0096079D03*
X0096276Y0096079D03*
X0093520Y0096079D03*
X0090764Y0096079D03*
X0088008Y0096079D03*
X0085252Y0096079D03*
X0082496Y0096079D03*
X0079740Y0096079D03*
D15*
X0070016Y0052496D03*
X0065488Y0052496D03*
X0060764Y0052496D03*
X0056039Y0052496D03*
X0051315Y0052496D03*
X0051315Y0037142D03*
X0056039Y0037142D03*
X0060764Y0036945D03*
X0065488Y0036945D03*
X0070213Y0036945D03*
D16*
X0041551Y0100055D03*
X0034858Y0100055D03*
D17*
X0009307Y0016748D02*
X0009307Y0005921D01*
X0049661Y0005921D01*
X0084110Y0040370D01*
X0084110Y0060055D01*
X0082142Y0062024D01*
X0082142Y0095488D01*
X0082496Y0096079D01*
X0080173Y0095488D02*
X0079740Y0096079D01*
X0080173Y0095488D02*
X0080173Y0059071D01*
X0078205Y0056118D02*
X0078205Y0037417D01*
X0053598Y0012811D01*
X0018165Y0012811D01*
X0018165Y0026591D01*
X0014228Y0030528D01*
X0013638Y0031000D01*
X0013638Y0021000D02*
X0013244Y0020685D01*
X0009307Y0016748D01*
X0038835Y0014780D02*
X0038835Y0093520D01*
X0038835Y0104346D01*
X0039819Y0105331D01*
X0039819Y0114189D01*
X0025055Y0114189D01*
X0025055Y0118126D01*
X0024110Y0118559D01*
X0018165Y0119110D02*
X0025055Y0126000D01*
X0025055Y0136827D01*
X0025646Y0137220D01*
X0026039Y0136827D01*
X0036866Y0136827D01*
X0036866Y0134858D01*
X0037102Y0134425D01*
X0037850Y0134858D01*
X0041787Y0138795D01*
X0067378Y0138795D01*
X0067378Y0106315D01*
X0060488Y0099425D01*
X0059543Y0099307D01*
X0059504Y0098441D01*
X0059504Y0095488D01*
X0046709Y0082693D01*
X0046709Y0041354D01*
X0050646Y0037417D01*
X0051315Y0037142D01*
X0051630Y0037417D01*
X0055567Y0037417D01*
X0056039Y0037142D01*
X0056551Y0037417D01*
X0060488Y0037417D01*
X0060764Y0036945D01*
X0061472Y0036433D01*
X0061472Y0030528D01*
X0062457Y0029543D01*
X0068362Y0030528D02*
X0052614Y0014780D01*
X0038835Y0014780D01*
X0060764Y0036945D02*
X0061472Y0037417D01*
X0065409Y0037417D01*
X0065488Y0036945D01*
X0068362Y0035449D02*
X0068362Y0030528D01*
X0068362Y0035449D02*
X0069346Y0036433D01*
X0070213Y0036945D01*
X0070016Y0052496D02*
X0069346Y0053165D01*
X0069346Y0126984D01*
X0076236Y0126984D01*
X0077142Y0126827D01*
X0077142Y0129583D02*
X0077220Y0129937D01*
X0081157Y0129937D01*
X0082142Y0128953D01*
X0082142Y0127969D01*
X0084110Y0126000D01*
X0088047Y0118126D02*
X0088047Y0104346D01*
X0085094Y0101394D01*
X0085094Y0096472D01*
X0085252Y0096079D01*
X0088008Y0096079D02*
X0088047Y0095488D01*
X0088047Y0089583D01*
X0087063Y0088598D01*
X0091000Y0095488D02*
X0090764Y0096079D01*
X0091000Y0095488D02*
X0091000Y0076787D01*
X0090016Y0075803D01*
X0076236Y0058087D02*
X0078205Y0056118D01*
X0076236Y0058087D02*
X0076236Y0101394D01*
X0077142Y0102024D01*
X0076236Y0104346D02*
X0077142Y0104780D01*
X0076236Y0104346D02*
X0071315Y0104346D01*
X0071315Y0059071D01*
X0074268Y0056118D01*
X0074268Y0055134D01*
X0065409Y0053165D02*
X0065488Y0052496D01*
X0065409Y0053165D02*
X0063441Y0055134D01*
X0063441Y0079740D01*
X0053598Y0094504D02*
X0053598Y0098441D01*
X0052850Y0099307D01*
X0052614Y0099425D01*
X0041787Y0099425D01*
X0041551Y0100055D01*
X0038835Y0093520D02*
X0017181Y0093520D01*
X0013244Y0097457D01*
X0013244Y0131906D01*
X0018165Y0136827D01*
X0018953Y0137220D01*
X0018165Y0119110D02*
X0017417Y0118559D01*
X0018165Y0118126D01*
X0018165Y0106315D01*
X0024071Y0100409D01*
X0024110Y0099622D01*
X0022102Y0095488D02*
X0033913Y0095488D01*
X0033913Y0099425D01*
X0034858Y0100055D01*
X0034898Y0100409D01*
X0034898Y0105331D01*
X0035882Y0106315D01*
X0039819Y0114189D02*
X0043756Y0118126D01*
X0043795Y0118362D01*
X0044740Y0119110D01*
X0044740Y0120094D01*
X0047693Y0123047D01*
X0054583Y0124031D02*
X0044740Y0133874D01*
X0043795Y0134425D01*
X0037102Y0134425D02*
X0036866Y0133874D01*
X0036866Y0119110D01*
X0037102Y0118362D01*
X0018165Y0099425D02*
X0022102Y0095488D01*
X0018165Y0099425D02*
X0017417Y0099622D01*
X0067378Y0138795D02*
X0067378Y0140764D01*
X0072299Y0145685D01*
X0076236Y0145685D01*
X0077142Y0146118D01*
X0085094Y0145685D01*
X0094937Y0141748D01*
X0115331Y0146118D01*
X0115606Y0145685D01*
X0115606Y0143717D01*
X0115331Y0143362D01*
X0119543Y0129937D02*
X0120528Y0128953D01*
X0120528Y0110252D01*
X0115606Y0110252D01*
X0115331Y0110291D01*
X0115331Y0107535D02*
X0115606Y0107299D01*
X0120528Y0107299D01*
X0120528Y0100409D01*
X0117575Y0097457D01*
X0112811Y0096079D02*
X0112654Y0095488D01*
X0112654Y0064976D01*
X0105764Y0058087D01*
X0105764Y0055134D01*
X0115449Y0041000D02*
X0115606Y0040370D01*
X0120528Y0035449D01*
X0120528Y0015764D01*
X0107732Y0015764D01*
X0093953Y0029543D01*
X0093953Y0095488D01*
X0093520Y0096079D01*
X0095921Y0095488D02*
X0096276Y0096079D01*
X0095921Y0095488D02*
X0095921Y0030528D01*
X0103795Y0022654D01*
X0110685Y0022654D01*
X0110685Y0026591D01*
X0114622Y0030528D01*
X0115449Y0031000D01*
X0104780Y0026591D02*
X0098874Y0032496D01*
X0098874Y0095488D01*
X0099031Y0096079D01*
X0101787Y0096079D02*
X0101827Y0095488D01*
X0101827Y0034465D01*
X0102811Y0033480D01*
X0110055Y0096079D02*
X0109701Y0096472D01*
X0109701Y0126000D01*
X0102811Y0126000D01*
X0109701Y0126000D02*
X0109701Y0126984D01*
X0114622Y0126984D01*
X0115331Y0126827D01*
X0119543Y0129937D02*
X0094937Y0129937D01*
X0094937Y0120094D01*
X0084110Y0110252D02*
X0077220Y0110252D01*
X0077142Y0110291D01*
X0077142Y0107535D02*
X0077220Y0107299D01*
X0082142Y0107299D01*
X0084110Y0105331D01*
D18*
X0084110Y0105331D03*
X0084110Y0110252D03*
X0088047Y0118126D03*
X0094937Y0120094D03*
X0102811Y0126000D03*
X0084110Y0126000D03*
X0087063Y0088598D03*
X0090016Y0075803D03*
X0080173Y0059071D03*
X0074268Y0055134D03*
X0063441Y0079740D03*
X0053598Y0094504D03*
X0035882Y0106315D03*
X0047693Y0123047D03*
X0054583Y0124031D03*
X0105764Y0055134D03*
X0102811Y0033480D03*
X0104780Y0026591D03*
X0062457Y0029543D03*
X0117575Y0097457D03*
M02*
