G75*
%MOIN*%
%OFA0B0*%
%FSLAX25Y25*%
%IPPOS*%
%LPD*%
%AMOC8*
5,1,8,0,0,1.08239X$1,22.5*
%
%ADD10R,0.02756X0.05512*%
%ADD11R,0.03150X0.03150*%
%ADD12R,0.04331X0.03937*%
%ADD13R,0.02362X0.01181*%
%ADD14R,0.01181X0.02362*%
%ADD15R,0.01181X0.01181*%
%ADD16R,0.02500X0.08000*%
%ADD17R,0.03543X0.03740*%
%ADD18C,0.00800*%
%ADD19C,0.02400*%
%ADD20C,0.01600*%
D10*
X0052054Y0127600D03*
X0058746Y0127600D03*
D11*
X0062447Y0102600D03*
X0068353Y0102600D03*
X0087447Y0087600D03*
X0093353Y0087600D03*
X0102447Y0087600D03*
X0108353Y0087600D03*
D12*
X0073746Y0087600D03*
X0067054Y0087600D03*
X0058746Y0087600D03*
X0052054Y0087600D03*
D13*
X0068983Y0124702D03*
X0068983Y0127261D03*
X0068983Y0129820D03*
X0068983Y0132380D03*
X0068983Y0134939D03*
X0068983Y0137498D03*
X0076463Y0132380D03*
X0076463Y0129820D03*
X0080400Y0129820D03*
X0080400Y0132380D03*
X0084337Y0132380D03*
X0084337Y0129820D03*
X0091817Y0129820D03*
X0091817Y0127261D03*
X0091817Y0124702D03*
X0091817Y0132380D03*
X0091817Y0134939D03*
X0091817Y0137498D03*
X0091817Y0149309D03*
X0068983Y0149309D03*
D14*
X0072723Y0137498D03*
X0075282Y0137498D03*
X0077841Y0137498D03*
X0080400Y0137498D03*
X0082959Y0137498D03*
X0085518Y0137498D03*
X0088077Y0137498D03*
X0088077Y0124702D03*
X0085518Y0124702D03*
X0082959Y0124702D03*
X0080400Y0124702D03*
X0077841Y0124702D03*
X0075282Y0124702D03*
X0072723Y0124702D03*
D15*
X0072723Y0129820D03*
X0072723Y0132380D03*
X0088077Y0132380D03*
D16*
X0089652Y0050474D03*
X0085124Y0050474D03*
X0080400Y0050474D03*
X0075676Y0050474D03*
X0070951Y0050474D03*
X0070951Y0035120D03*
X0075676Y0035120D03*
X0080400Y0034923D03*
X0085124Y0034923D03*
X0089849Y0034923D03*
D17*
X0113195Y0046301D03*
X0113195Y0052600D03*
X0129337Y0052600D03*
X0129337Y0046301D03*
D18*
X0127900Y0047600D01*
X0125400Y0050100D01*
X0125400Y0062600D01*
X0125400Y0065100D01*
X0102900Y0087600D01*
X0102447Y0087600D01*
X0107900Y0087600D02*
X0108353Y0087600D01*
X0107900Y0087600D02*
X0132900Y0062600D01*
X0132900Y0042600D01*
X0095400Y0042600D01*
X0095400Y0022600D01*
X0072900Y0022600D01*
X0065400Y0030100D01*
X0065400Y0080100D01*
X0065400Y0087600D01*
X0067054Y0087600D01*
X0073746Y0087600D01*
X0075400Y0087600D01*
X0075400Y0125100D01*
X0075282Y0124702D01*
X0075400Y0125100D02*
X0075400Y0130100D01*
X0076463Y0129820D01*
X0075400Y0130100D02*
X0075400Y0132600D01*
X0076463Y0132380D01*
X0075400Y0132600D02*
X0075400Y0137600D01*
X0075282Y0137498D01*
X0075400Y0137600D02*
X0072900Y0137600D01*
X0072723Y0137498D01*
X0075400Y0137600D02*
X0077900Y0137600D01*
X0077841Y0137498D01*
X0077900Y0137600D02*
X0080400Y0137600D01*
X0080400Y0137498D01*
X0080400Y0137600D02*
X0082900Y0137600D01*
X0082959Y0137498D01*
X0087900Y0137600D02*
X0087900Y0135100D01*
X0085400Y0132600D01*
X0084337Y0132380D01*
X0085400Y0132600D02*
X0085400Y0130100D01*
X0084337Y0129820D01*
X0085400Y0130100D02*
X0080400Y0130100D01*
X0080400Y0129820D01*
X0080400Y0130100D02*
X0080400Y0132380D01*
X0080400Y0132600D01*
X0075400Y0132600D01*
X0068983Y0129820D02*
X0067900Y0130100D01*
X0062900Y0130100D01*
X0060400Y0132600D01*
X0052900Y0132600D01*
X0052900Y0127600D01*
X0052054Y0127600D01*
X0057900Y0127600D02*
X0058746Y0127600D01*
X0067900Y0127600D01*
X0068983Y0127261D01*
X0067900Y0125100D02*
X0068983Y0124702D01*
X0067900Y0125100D02*
X0065400Y0122600D01*
X0065400Y0087600D01*
X0058746Y0087600D02*
X0057900Y0087600D01*
X0057900Y0082600D01*
X0050400Y0082600D01*
X0047900Y0085100D01*
X0047900Y0140100D01*
X0092900Y0140100D01*
X0095400Y0137600D01*
X0095400Y0135100D01*
X0092900Y0132600D01*
X0091817Y0132380D01*
X0092900Y0127600D02*
X0091817Y0127261D01*
X0092900Y0127600D02*
X0097900Y0122600D01*
X0097900Y0067600D01*
X0112900Y0052600D01*
X0113195Y0052600D01*
X0095400Y0042600D02*
X0095400Y0085100D01*
X0092900Y0087600D01*
X0093353Y0087600D01*
X0092900Y0087600D02*
X0092900Y0125100D01*
X0091817Y0124702D01*
X0080400Y0124702D02*
X0080400Y0125100D01*
X0080400Y0124702D02*
X0080400Y0057600D01*
X0085400Y0052600D01*
X0085124Y0050474D01*
X0089652Y0050474D02*
X0090400Y0050100D01*
X0092900Y0047600D01*
X0092900Y0025100D01*
X0072900Y0025100D01*
X0067900Y0030100D01*
X0067900Y0055100D01*
X0077900Y0065100D01*
X0077900Y0125100D01*
X0077841Y0124702D01*
X0072900Y0125100D02*
X0072723Y0124702D01*
X0072900Y0125100D02*
X0067900Y0120100D01*
X0067900Y0102600D01*
X0068353Y0102600D01*
X0072900Y0102600D01*
X0062900Y0102600D02*
X0062447Y0102600D01*
X0062900Y0102600D02*
X0052900Y0092600D01*
X0052900Y0087600D01*
X0052054Y0087600D01*
X0077900Y0060100D02*
X0070400Y0052600D01*
X0070951Y0050474D01*
X0080400Y0035100D02*
X0085400Y0035100D01*
X0085124Y0034923D01*
X0080400Y0034923D02*
X0080400Y0032600D01*
X0075400Y0027600D01*
X0080400Y0034923D02*
X0080400Y0035100D01*
X0089849Y0034923D02*
X0090400Y0032600D01*
X0090400Y0027600D01*
X0092900Y0082600D02*
X0087900Y0087600D01*
X0087447Y0087600D01*
X0088077Y0137498D02*
X0087900Y0137600D01*
X0092900Y0137600D01*
X0091817Y0137498D01*
D19*
X0072900Y0102600D03*
X0092900Y0082600D03*
X0097900Y0067600D03*
X0077900Y0060100D03*
X0065400Y0080100D03*
X0075400Y0027600D03*
X0090400Y0027600D03*
X0125400Y0062600D03*
D20*
X0001800Y0076087D02*
X0001800Y0001800D01*
X0068145Y0001800D01*
X0063805Y0002403D01*
X0053411Y0005347D01*
X0053411Y0005347D01*
X0043520Y0009693D01*
X0034321Y0015359D01*
X0025989Y0022236D01*
X0018683Y0030194D01*
X0018683Y0030194D01*
X0012541Y0039082D01*
X0007679Y0048730D01*
X0004192Y0058955D01*
X0004192Y0058955D01*
X0002144Y0069563D01*
X0001800Y0076087D01*
X0001800Y0074533D02*
X0001882Y0074533D01*
X0001966Y0072934D02*
X0001800Y0072934D01*
X0001800Y0071336D02*
X0002051Y0071336D01*
X0002135Y0069737D02*
X0001800Y0069737D01*
X0002144Y0069563D02*
X0002144Y0069563D01*
X0002419Y0068139D02*
X0001800Y0068139D01*
X0001800Y0066540D02*
X0002728Y0066540D01*
X0003036Y0064942D02*
X0001800Y0064942D01*
X0001800Y0063343D02*
X0003345Y0063343D01*
X0003653Y0061745D02*
X0001800Y0061745D01*
X0001800Y0060146D02*
X0003962Y0060146D01*
X0004331Y0058548D02*
X0001800Y0058548D01*
X0001800Y0056949D02*
X0004876Y0056949D01*
X0005421Y0055351D02*
X0001800Y0055351D01*
X0001800Y0053752D02*
X0005966Y0053752D01*
X0006512Y0052154D02*
X0001800Y0052154D01*
X0001800Y0050555D02*
X0007057Y0050555D01*
X0007602Y0048957D02*
X0001800Y0048957D01*
X0001800Y0047358D02*
X0008371Y0047358D01*
X0007679Y0048730D02*
X0007679Y0048730D01*
X0009176Y0045760D02*
X0001800Y0045760D01*
X0001800Y0044161D02*
X0009981Y0044161D01*
X0010787Y0042563D02*
X0001800Y0042563D01*
X0001800Y0040964D02*
X0011592Y0040964D01*
X0012398Y0039366D02*
X0001800Y0039366D01*
X0001800Y0037767D02*
X0013449Y0037767D01*
X0012541Y0039082D02*
X0012541Y0039082D01*
X0014554Y0036169D02*
X0001800Y0036169D01*
X0001800Y0034570D02*
X0015659Y0034570D01*
X0016763Y0032972D02*
X0001800Y0032972D01*
X0001800Y0031373D02*
X0017868Y0031373D01*
X0019068Y0029775D02*
X0001800Y0029775D01*
X0001800Y0028176D02*
X0020536Y0028176D01*
X0022003Y0026578D02*
X0001800Y0026578D01*
X0001800Y0024979D02*
X0023471Y0024979D01*
X0024939Y0023381D02*
X0001800Y0023381D01*
X0001800Y0021782D02*
X0026539Y0021782D01*
X0025989Y0022236D02*
X0025989Y0022236D01*
X0028476Y0020184D02*
X0001800Y0020184D01*
X0001800Y0018585D02*
X0030413Y0018585D01*
X0032349Y0016987D02*
X0001800Y0016987D01*
X0001800Y0015388D02*
X0034286Y0015388D01*
X0034321Y0015359D02*
X0034321Y0015359D01*
X0036869Y0013790D02*
X0001800Y0013790D01*
X0001800Y0012191D02*
X0039465Y0012191D01*
X0042060Y0010593D02*
X0001800Y0010593D01*
X0001800Y0008994D02*
X0045111Y0008994D01*
X0043520Y0009693D02*
X0043520Y0009693D01*
X0046022Y0014463D02*
X0055232Y0010416D01*
X0064912Y0007674D01*
X0074878Y0006290D01*
X0084938Y0006290D01*
X0094903Y0007674D01*
X0104583Y0010416D01*
X0113794Y0014463D01*
X0122360Y0019740D01*
X0130119Y0026144D01*
X0136923Y0033555D01*
X0142643Y0041831D01*
X0147170Y0050816D01*
X0150418Y0060338D01*
X0152325Y0070217D01*
X0152855Y0080264D01*
X0151998Y0090288D01*
X0149769Y0100099D01*
X0146213Y0109510D01*
X0141395Y0118342D01*
X0135408Y0126427D01*
X0128366Y0133612D01*
X0128366Y0133612D01*
X0120402Y0139760D01*
X0111668Y0144754D01*
X0102330Y0148499D01*
X0097770Y0149800D01*
X0094398Y0149800D01*
X0094398Y0148138D01*
X0093578Y0147318D01*
X0090056Y0147318D01*
X0089236Y0148138D01*
X0089236Y0149800D01*
X0071564Y0149800D01*
X0071564Y0148138D01*
X0070744Y0147318D01*
X0067222Y0147318D01*
X0066402Y0148138D01*
X0066402Y0149800D01*
X0063441Y0149800D01*
X0062717Y0149500D01*
X0061683Y0149500D01*
X0061402Y0149616D01*
X0057486Y0148499D01*
X0048148Y0144754D01*
X0039414Y0139760D01*
X0031450Y0133612D01*
X0024408Y0126427D01*
X0018421Y0118342D01*
X0018421Y0118342D01*
X0013603Y0109510D01*
X0010046Y0100099D01*
X0007818Y0090288D01*
X0006961Y0080264D01*
X0007491Y0070217D01*
X0009398Y0060338D01*
X0012645Y0050816D01*
X0017172Y0041831D01*
X0022892Y0033555D01*
X0029696Y0026144D01*
X0037455Y0019740D01*
X0046022Y0014463D01*
X0047555Y0013790D02*
X0112260Y0013790D01*
X0115295Y0015388D02*
X0044521Y0015388D01*
X0041925Y0016987D02*
X0117891Y0016987D01*
X0120486Y0018585D02*
X0039330Y0018585D01*
X0036918Y0020184D02*
X0122898Y0020184D01*
X0124835Y0021782D02*
X0097128Y0021782D01*
X0097200Y0021854D02*
X0096146Y0020800D01*
X0072154Y0020800D01*
X0071100Y0021854D01*
X0063600Y0029354D01*
X0063600Y0078223D01*
X0063196Y0078627D01*
X0062800Y0079583D01*
X0062800Y0080617D01*
X0063196Y0081573D01*
X0063600Y0081977D01*
X0063600Y0084940D01*
X0063488Y0085052D01*
X0063488Y0090148D01*
X0063600Y0090260D01*
X0063600Y0099625D01*
X0062471Y0099625D01*
X0054700Y0091854D01*
X0054700Y0090968D01*
X0054799Y0090968D01*
X0055400Y0090367D01*
X0056001Y0090968D01*
X0061492Y0090968D01*
X0062312Y0090148D01*
X0062312Y0085052D01*
X0061492Y0084231D01*
X0059700Y0084231D01*
X0059700Y0081854D01*
X0058646Y0080800D01*
X0049654Y0080800D01*
X0048600Y0081854D01*
X0046100Y0084354D01*
X0046100Y0140846D01*
X0047154Y0141900D01*
X0093646Y0141900D01*
X0094700Y0140846D01*
X0097200Y0138346D01*
X0097200Y0134354D01*
X0096146Y0133300D01*
X0094398Y0131553D01*
X0094398Y0131209D01*
X0094289Y0131100D01*
X0094398Y0130991D01*
X0094398Y0128839D01*
X0094486Y0128560D01*
X0098646Y0124400D01*
X0099700Y0123346D01*
X0099700Y0089982D01*
X0100293Y0090575D01*
X0104602Y0090575D01*
X0105400Y0089777D01*
X0106198Y0090575D01*
X0110507Y0090575D01*
X0111328Y0089755D01*
X0111328Y0086718D01*
X0133646Y0064400D01*
X0134700Y0063346D01*
X0134700Y0041854D01*
X0133646Y0040800D01*
X0097200Y0040800D01*
X0097200Y0021854D01*
X0097200Y0023381D02*
X0126771Y0023381D01*
X0128708Y0024979D02*
X0097200Y0024979D01*
X0097200Y0026578D02*
X0130517Y0026578D01*
X0131985Y0028176D02*
X0097200Y0028176D01*
X0097200Y0029775D02*
X0133453Y0029775D01*
X0134920Y0031373D02*
X0097200Y0031373D01*
X0097200Y0032972D02*
X0136388Y0032972D01*
X0137625Y0034570D02*
X0097200Y0034570D01*
X0097200Y0036169D02*
X0138730Y0036169D01*
X0139835Y0037767D02*
X0097200Y0037767D01*
X0097200Y0039366D02*
X0140939Y0039366D01*
X0142044Y0040964D02*
X0133810Y0040964D01*
X0134700Y0042563D02*
X0143012Y0042563D01*
X0143817Y0044161D02*
X0134700Y0044161D01*
X0134700Y0045760D02*
X0144623Y0045760D01*
X0145428Y0047358D02*
X0134700Y0047358D01*
X0134700Y0048957D02*
X0146233Y0048957D01*
X0147039Y0050555D02*
X0134700Y0050555D01*
X0134700Y0052154D02*
X0147627Y0052154D01*
X0148172Y0053752D02*
X0134700Y0053752D01*
X0134700Y0055351D02*
X0148717Y0055351D01*
X0149262Y0056949D02*
X0134700Y0056949D01*
X0134700Y0058548D02*
X0149807Y0058548D01*
X0150353Y0060146D02*
X0134700Y0060146D01*
X0134700Y0061745D02*
X0150690Y0061745D01*
X0150998Y0063343D02*
X0134700Y0063343D01*
X0133104Y0064942D02*
X0151307Y0064942D01*
X0151615Y0066540D02*
X0131505Y0066540D01*
X0129907Y0068139D02*
X0151924Y0068139D01*
X0152233Y0069737D02*
X0128308Y0069737D01*
X0126710Y0071336D02*
X0152384Y0071336D01*
X0152468Y0072934D02*
X0125111Y0072934D01*
X0123513Y0074533D02*
X0152553Y0074533D01*
X0152637Y0076132D02*
X0121914Y0076132D01*
X0120316Y0077730D02*
X0152721Y0077730D01*
X0152806Y0079329D02*
X0118717Y0079329D01*
X0117119Y0080927D02*
X0152798Y0080927D01*
X0152661Y0082526D02*
X0115520Y0082526D01*
X0113922Y0084124D02*
X0152525Y0084124D01*
X0152388Y0085723D02*
X0112323Y0085723D01*
X0111328Y0087321D02*
X0152251Y0087321D01*
X0152115Y0088920D02*
X0111328Y0088920D01*
X0110564Y0090518D02*
X0151945Y0090518D01*
X0151582Y0092117D02*
X0099700Y0092117D01*
X0099700Y0093715D02*
X0151219Y0093715D01*
X0150856Y0095314D02*
X0099700Y0095314D01*
X0099700Y0096912D02*
X0150493Y0096912D01*
X0150130Y0098511D02*
X0099700Y0098511D01*
X0099700Y0100109D02*
X0149765Y0100109D01*
X0149161Y0101708D02*
X0099700Y0101708D01*
X0099700Y0103306D02*
X0148557Y0103306D01*
X0147953Y0104905D02*
X0099700Y0104905D01*
X0099700Y0106503D02*
X0147349Y0106503D01*
X0146745Y0108102D02*
X0099700Y0108102D01*
X0099700Y0109700D02*
X0146109Y0109700D01*
X0145237Y0111299D02*
X0099700Y0111299D01*
X0099700Y0112897D02*
X0144365Y0112897D01*
X0143493Y0114496D02*
X0099700Y0114496D01*
X0099700Y0116094D02*
X0142621Y0116094D01*
X0141749Y0117693D02*
X0099700Y0117693D01*
X0099700Y0119291D02*
X0140692Y0119291D01*
X0139508Y0120890D02*
X0099700Y0120890D01*
X0099700Y0122488D02*
X0138325Y0122488D01*
X0137141Y0124087D02*
X0098959Y0124087D01*
X0097360Y0125685D02*
X0135958Y0125685D01*
X0134569Y0127284D02*
X0095762Y0127284D01*
X0094398Y0128882D02*
X0133002Y0128882D01*
X0131435Y0130481D02*
X0094398Y0130481D01*
X0094925Y0132079D02*
X0129868Y0132079D01*
X0128281Y0133678D02*
X0096524Y0133678D01*
X0097200Y0135276D02*
X0126210Y0135276D01*
X0124140Y0136875D02*
X0097200Y0136875D01*
X0097072Y0138473D02*
X0122069Y0138473D01*
X0119857Y0140072D02*
X0095474Y0140072D01*
X0093875Y0141670D02*
X0117061Y0141670D01*
X0114266Y0143269D02*
X0045550Y0143269D01*
X0046925Y0141670D02*
X0042755Y0141670D01*
X0039959Y0140072D02*
X0046100Y0140072D01*
X0046100Y0138473D02*
X0037747Y0138473D01*
X0035676Y0136875D02*
X0046100Y0136875D01*
X0046100Y0135276D02*
X0033605Y0135276D01*
X0031535Y0133678D02*
X0046100Y0133678D01*
X0046100Y0132079D02*
X0029947Y0132079D01*
X0028381Y0130481D02*
X0046100Y0130481D01*
X0046100Y0128882D02*
X0026814Y0128882D01*
X0025247Y0127284D02*
X0046100Y0127284D01*
X0046100Y0125685D02*
X0023858Y0125685D01*
X0024408Y0126427D02*
X0024408Y0126427D01*
X0022675Y0124087D02*
X0046100Y0124087D01*
X0046100Y0122488D02*
X0021491Y0122488D01*
X0020307Y0120890D02*
X0046100Y0120890D01*
X0046100Y0119291D02*
X0019124Y0119291D01*
X0018067Y0117693D02*
X0046100Y0117693D01*
X0046100Y0116094D02*
X0017195Y0116094D01*
X0016323Y0114496D02*
X0046100Y0114496D01*
X0046100Y0112897D02*
X0015451Y0112897D01*
X0014579Y0111299D02*
X0046100Y0111299D01*
X0046100Y0109700D02*
X0013707Y0109700D01*
X0013071Y0108102D02*
X0046100Y0108102D01*
X0046100Y0106503D02*
X0012467Y0106503D01*
X0011863Y0104905D02*
X0046100Y0104905D01*
X0046100Y0103306D02*
X0011259Y0103306D01*
X0010655Y0101708D02*
X0046100Y0101708D01*
X0046100Y0100109D02*
X0010050Y0100109D01*
X0009686Y0098511D02*
X0046100Y0098511D01*
X0046100Y0096912D02*
X0009323Y0096912D01*
X0008960Y0095314D02*
X0046100Y0095314D01*
X0046100Y0093715D02*
X0008597Y0093715D01*
X0008234Y0092117D02*
X0046100Y0092117D01*
X0046100Y0090518D02*
X0007870Y0090518D01*
X0007701Y0088920D02*
X0046100Y0088920D01*
X0046100Y0087321D02*
X0007564Y0087321D01*
X0007428Y0085723D02*
X0046100Y0085723D01*
X0046330Y0084124D02*
X0007291Y0084124D01*
X0007154Y0082526D02*
X0047929Y0082526D01*
X0049527Y0080927D02*
X0007018Y0080927D01*
X0007010Y0079329D02*
X0062905Y0079329D01*
X0062928Y0080927D02*
X0058773Y0080927D01*
X0059700Y0082526D02*
X0063600Y0082526D01*
X0063600Y0084124D02*
X0059700Y0084124D01*
X0062312Y0085723D02*
X0063488Y0085723D01*
X0063488Y0087321D02*
X0062312Y0087321D01*
X0062312Y0088920D02*
X0063488Y0088920D01*
X0063600Y0090518D02*
X0061942Y0090518D01*
X0063600Y0092117D02*
X0054962Y0092117D01*
X0055249Y0090518D02*
X0055551Y0090518D01*
X0056561Y0093715D02*
X0063600Y0093715D01*
X0063600Y0095314D02*
X0058159Y0095314D01*
X0059758Y0096912D02*
X0063600Y0096912D01*
X0063600Y0098511D02*
X0061356Y0098511D01*
X0059462Y0101708D02*
X0049700Y0101708D01*
X0049700Y0103306D02*
X0059472Y0103306D01*
X0059472Y0104755D02*
X0059472Y0101718D01*
X0052154Y0094400D01*
X0051100Y0093346D01*
X0051100Y0090968D01*
X0049700Y0090968D01*
X0049700Y0123840D01*
X0050096Y0123444D01*
X0054011Y0123444D01*
X0054831Y0124264D01*
X0054831Y0130800D01*
X0055969Y0130800D01*
X0055969Y0124264D01*
X0056789Y0123444D01*
X0060704Y0123444D01*
X0061524Y0124264D01*
X0061524Y0125800D01*
X0066054Y0125800D01*
X0063600Y0123346D01*
X0063600Y0105575D01*
X0060293Y0105575D01*
X0059472Y0104755D01*
X0059622Y0104905D02*
X0049700Y0104905D01*
X0049700Y0106503D02*
X0063600Y0106503D01*
X0063600Y0108102D02*
X0049700Y0108102D01*
X0049700Y0109700D02*
X0063600Y0109700D01*
X0063600Y0111299D02*
X0049700Y0111299D01*
X0049700Y0112897D02*
X0063600Y0112897D01*
X0063600Y0114496D02*
X0049700Y0114496D01*
X0049700Y0116094D02*
X0063600Y0116094D01*
X0063600Y0117693D02*
X0049700Y0117693D01*
X0049700Y0119291D02*
X0063600Y0119291D01*
X0063600Y0120890D02*
X0049700Y0120890D01*
X0049700Y0122488D02*
X0063600Y0122488D01*
X0064341Y0124087D02*
X0061347Y0124087D01*
X0061524Y0125685D02*
X0065940Y0125685D01*
X0071564Y0127283D02*
X0073600Y0127283D01*
X0073600Y0127830D01*
X0071564Y0127830D01*
X0071564Y0127283D01*
X0071564Y0127284D02*
X0073600Y0127284D01*
X0077200Y0127284D02*
X0089236Y0127284D01*
X0089236Y0127283D02*
X0089236Y0128432D01*
X0089345Y0128541D01*
X0089236Y0128650D01*
X0089236Y0130389D01*
X0087200Y0130389D01*
X0087200Y0130333D01*
X0087330Y0129837D01*
X0087200Y0129613D01*
X0087200Y0129354D01*
X0086918Y0129073D01*
X0086918Y0128650D01*
X0086098Y0127830D01*
X0082576Y0127830D01*
X0082369Y0128037D01*
X0082161Y0127830D01*
X0078639Y0127830D01*
X0078432Y0128037D01*
X0078224Y0127830D01*
X0077200Y0127830D01*
X0077200Y0127283D01*
X0079011Y0127283D01*
X0079120Y0127174D01*
X0079230Y0127283D01*
X0081570Y0127283D01*
X0081680Y0127174D01*
X0081789Y0127283D01*
X0084130Y0127283D01*
X0084239Y0127174D01*
X0084348Y0127283D01*
X0086689Y0127283D01*
X0086798Y0127174D01*
X0086907Y0127283D01*
X0089236Y0127283D01*
X0089236Y0128882D02*
X0086918Y0128882D01*
X0084624Y0134370D02*
X0085171Y0134917D01*
X0084348Y0134917D01*
X0084239Y0135026D01*
X0084130Y0134917D01*
X0081789Y0134917D01*
X0081680Y0135026D01*
X0081570Y0134917D01*
X0079230Y0134917D01*
X0079120Y0135026D01*
X0079011Y0134917D01*
X0077200Y0134917D01*
X0077200Y0134400D01*
X0081146Y0134400D01*
X0081176Y0134370D01*
X0082161Y0134370D01*
X0082369Y0134163D01*
X0082576Y0134370D01*
X0084624Y0134370D01*
X0073600Y0134370D02*
X0073600Y0134917D01*
X0071564Y0134917D01*
X0071564Y0134370D01*
X0073600Y0134370D01*
X0066511Y0133659D02*
X0066402Y0133768D01*
X0066402Y0136109D01*
X0066511Y0136218D01*
X0066402Y0136327D01*
X0066402Y0138300D01*
X0049700Y0138300D01*
X0049700Y0131360D01*
X0050096Y0131756D01*
X0051100Y0131756D01*
X0051100Y0133346D01*
X0052154Y0134400D01*
X0061146Y0134400D01*
X0062200Y0133346D01*
X0063646Y0131900D01*
X0066402Y0131900D01*
X0066402Y0133550D01*
X0066511Y0133659D01*
X0066492Y0133678D02*
X0061868Y0133678D01*
X0063466Y0132079D02*
X0066402Y0132079D01*
X0066402Y0135276D02*
X0049700Y0135276D01*
X0049700Y0133678D02*
X0051432Y0133678D01*
X0051100Y0132079D02*
X0049700Y0132079D01*
X0049700Y0136875D02*
X0066402Y0136875D01*
X0066475Y0148065D02*
X0056402Y0148065D01*
X0052416Y0146466D02*
X0107400Y0146466D01*
X0103414Y0148065D02*
X0094325Y0148065D01*
X0094398Y0149663D02*
X0098250Y0149663D01*
X0099121Y0154833D02*
X0103986Y0153625D01*
X0114013Y0149603D01*
X0123392Y0144241D01*
X0131943Y0137639D01*
X0139506Y0129924D01*
X0145935Y0121241D01*
X0151108Y0111757D01*
X0154927Y0101651D01*
X0154927Y0101651D01*
X0155700Y0098249D01*
X0155700Y0161000D01*
X0001800Y0161000D01*
X0001800Y0082981D01*
X0002496Y0091116D01*
X0004888Y0101651D01*
X0008708Y0111757D01*
X0013881Y0121241D01*
X0020310Y0129924D01*
X0027872Y0137639D01*
X0027872Y0137639D01*
X0036424Y0144241D01*
X0045803Y0149603D01*
X0055830Y0153625D01*
X0061073Y0154927D01*
X0061575Y0155051D01*
X0061915Y0155000D01*
X0097901Y0155000D01*
X0098241Y0155051D01*
X0098447Y0155000D01*
X0098717Y0155000D01*
X0099121Y0154833D01*
X0100628Y0154459D02*
X0155700Y0154459D01*
X0155700Y0156057D02*
X0001800Y0156057D01*
X0001800Y0154459D02*
X0059188Y0154459D01*
X0053923Y0152860D02*
X0001800Y0152860D01*
X0001800Y0151262D02*
X0049937Y0151262D01*
X0045951Y0149663D02*
X0001800Y0149663D01*
X0001800Y0148065D02*
X0043111Y0148065D01*
X0040316Y0146466D02*
X0001800Y0146466D01*
X0001800Y0144868D02*
X0037520Y0144868D01*
X0035165Y0143269D02*
X0001800Y0143269D01*
X0001800Y0141670D02*
X0033094Y0141670D01*
X0031024Y0140072D02*
X0001800Y0140072D01*
X0001800Y0138473D02*
X0028953Y0138473D01*
X0027123Y0136875D02*
X0001800Y0136875D01*
X0001800Y0135276D02*
X0025557Y0135276D01*
X0023990Y0133678D02*
X0001800Y0133678D01*
X0001800Y0132079D02*
X0022423Y0132079D01*
X0020856Y0130481D02*
X0001800Y0130481D01*
X0001800Y0128882D02*
X0019539Y0128882D01*
X0018355Y0127284D02*
X0001800Y0127284D01*
X0001800Y0125685D02*
X0017172Y0125685D01*
X0015988Y0124087D02*
X0001800Y0124087D01*
X0001800Y0122488D02*
X0014805Y0122488D01*
X0013690Y0120890D02*
X0001800Y0120890D01*
X0001800Y0119291D02*
X0012818Y0119291D01*
X0011946Y0117693D02*
X0001800Y0117693D01*
X0001800Y0116094D02*
X0011074Y0116094D01*
X0010202Y0114496D02*
X0001800Y0114496D01*
X0001800Y0112897D02*
X0009330Y0112897D01*
X0008708Y0111757D02*
X0008708Y0111757D01*
X0008535Y0111299D02*
X0001800Y0111299D01*
X0001800Y0109700D02*
X0007931Y0109700D01*
X0007326Y0108102D02*
X0001800Y0108102D01*
X0001800Y0106503D02*
X0006722Y0106503D01*
X0006118Y0104905D02*
X0001800Y0104905D01*
X0001800Y0103306D02*
X0005514Y0103306D01*
X0004910Y0101708D02*
X0001800Y0101708D01*
X0001800Y0100109D02*
X0004538Y0100109D01*
X0004888Y0101651D02*
X0004888Y0101651D01*
X0004175Y0098511D02*
X0001800Y0098511D01*
X0001800Y0096912D02*
X0003812Y0096912D01*
X0003449Y0095314D02*
X0001800Y0095314D01*
X0001800Y0093715D02*
X0003086Y0093715D01*
X0002723Y0092117D02*
X0001800Y0092117D01*
X0002496Y0091116D02*
X0002496Y0091116D01*
X0002445Y0090518D02*
X0001800Y0090518D01*
X0001800Y0088920D02*
X0002308Y0088920D01*
X0002171Y0087321D02*
X0001800Y0087321D01*
X0001800Y0085723D02*
X0002034Y0085723D01*
X0001898Y0084124D02*
X0001800Y0084124D01*
X0007094Y0077730D02*
X0063600Y0077730D01*
X0063600Y0076132D02*
X0007179Y0076132D01*
X0007263Y0074533D02*
X0063600Y0074533D01*
X0063600Y0072934D02*
X0007347Y0072934D01*
X0007432Y0071336D02*
X0063600Y0071336D01*
X0063600Y0069737D02*
X0007583Y0069737D01*
X0007892Y0068139D02*
X0063600Y0068139D01*
X0063600Y0066540D02*
X0008200Y0066540D01*
X0008509Y0064942D02*
X0063600Y0064942D01*
X0063600Y0063343D02*
X0008818Y0063343D01*
X0009126Y0061745D02*
X0063600Y0061745D01*
X0063600Y0060146D02*
X0009463Y0060146D01*
X0010008Y0058548D02*
X0063600Y0058548D01*
X0063600Y0056949D02*
X0010554Y0056949D01*
X0011099Y0055351D02*
X0063600Y0055351D01*
X0063600Y0053752D02*
X0011644Y0053752D01*
X0012189Y0052154D02*
X0063600Y0052154D01*
X0063600Y0050555D02*
X0012777Y0050555D01*
X0013582Y0048957D02*
X0063600Y0048957D01*
X0063600Y0047358D02*
X0014388Y0047358D01*
X0015193Y0045760D02*
X0063600Y0045760D01*
X0063600Y0044161D02*
X0015999Y0044161D01*
X0016804Y0042563D02*
X0063600Y0042563D01*
X0063600Y0040964D02*
X0017772Y0040964D01*
X0018876Y0039366D02*
X0063600Y0039366D01*
X0063600Y0037767D02*
X0019981Y0037767D01*
X0021086Y0036169D02*
X0063600Y0036169D01*
X0063600Y0034570D02*
X0022191Y0034570D01*
X0023428Y0032972D02*
X0063600Y0032972D01*
X0063600Y0031373D02*
X0024895Y0031373D01*
X0026363Y0029775D02*
X0063600Y0029775D01*
X0064778Y0028176D02*
X0027831Y0028176D01*
X0029298Y0026578D02*
X0066377Y0026578D01*
X0067975Y0024979D02*
X0031108Y0024979D01*
X0033044Y0023381D02*
X0069574Y0023381D01*
X0071172Y0021782D02*
X0034981Y0021782D01*
X0048749Y0007396D02*
X0001800Y0007396D01*
X0001800Y0005797D02*
X0052387Y0005797D01*
X0057465Y0004199D02*
X0001800Y0004199D01*
X0001800Y0002600D02*
X0063109Y0002600D01*
X0063805Y0002403D02*
X0063805Y0002403D01*
X0066919Y0007396D02*
X0092897Y0007396D01*
X0091671Y0001800D02*
X0096010Y0002403D01*
X0096010Y0002403D01*
X0106405Y0005347D01*
X0106405Y0005347D01*
X0116296Y0009693D01*
X0116296Y0009693D01*
X0125495Y0015359D01*
X0125495Y0015359D01*
X0133826Y0022236D01*
X0133826Y0022236D01*
X0133826Y0022236D01*
X0141133Y0030194D01*
X0141133Y0030194D01*
X0147275Y0039082D01*
X0147275Y0039082D01*
X0152136Y0048730D01*
X0152136Y0048730D01*
X0155624Y0058955D01*
X0155624Y0058955D01*
X0155700Y0059349D01*
X0155700Y0001800D01*
X0091671Y0001800D01*
X0096707Y0002600D02*
X0155700Y0002600D01*
X0155700Y0004199D02*
X0102350Y0004199D01*
X0107429Y0005797D02*
X0155700Y0005797D01*
X0155700Y0007396D02*
X0111067Y0007396D01*
X0114705Y0008994D02*
X0155700Y0008994D01*
X0155700Y0010593D02*
X0117756Y0010593D01*
X0120351Y0012191D02*
X0155700Y0012191D01*
X0155700Y0013790D02*
X0122947Y0013790D01*
X0125530Y0015388D02*
X0155700Y0015388D01*
X0155700Y0016987D02*
X0127466Y0016987D01*
X0129403Y0018585D02*
X0155700Y0018585D01*
X0155700Y0020184D02*
X0131340Y0020184D01*
X0133276Y0021782D02*
X0155700Y0021782D01*
X0155700Y0023381D02*
X0134877Y0023381D01*
X0136345Y0024979D02*
X0155700Y0024979D01*
X0155700Y0026578D02*
X0137812Y0026578D01*
X0139280Y0028176D02*
X0155700Y0028176D01*
X0155700Y0029775D02*
X0140748Y0029775D01*
X0141948Y0031373D02*
X0155700Y0031373D01*
X0155700Y0032972D02*
X0143052Y0032972D01*
X0144157Y0034570D02*
X0155700Y0034570D01*
X0155700Y0036169D02*
X0145262Y0036169D01*
X0146367Y0037767D02*
X0155700Y0037767D01*
X0155700Y0039366D02*
X0147418Y0039366D01*
X0148224Y0040964D02*
X0155700Y0040964D01*
X0155700Y0042563D02*
X0149029Y0042563D01*
X0149834Y0044161D02*
X0155700Y0044161D01*
X0155700Y0045760D02*
X0150640Y0045760D01*
X0151445Y0047358D02*
X0155700Y0047358D01*
X0155700Y0048957D02*
X0152214Y0048957D01*
X0152759Y0050555D02*
X0155700Y0050555D01*
X0155700Y0052154D02*
X0153304Y0052154D01*
X0153849Y0053752D02*
X0155700Y0053752D01*
X0155700Y0055351D02*
X0154395Y0055351D01*
X0154940Y0056949D02*
X0155700Y0056949D01*
X0155700Y0058548D02*
X0155485Y0058548D01*
X0131100Y0058548D02*
X0127200Y0058548D01*
X0127200Y0060146D02*
X0131100Y0060146D01*
X0131100Y0061745D02*
X0127860Y0061745D01*
X0128000Y0062083D02*
X0127604Y0061127D01*
X0127200Y0060723D01*
X0127200Y0055870D01*
X0131100Y0055870D01*
X0131100Y0061854D01*
X0127200Y0065754D01*
X0127200Y0064477D01*
X0127604Y0064073D01*
X0128000Y0063117D01*
X0128000Y0062083D01*
X0127906Y0063343D02*
X0129611Y0063343D01*
X0128012Y0064942D02*
X0127200Y0064942D01*
X0123539Y0064416D02*
X0103329Y0084625D01*
X0100293Y0084625D01*
X0099700Y0085218D01*
X0099700Y0069477D01*
X0100104Y0069073D01*
X0100500Y0068117D01*
X0100500Y0067546D01*
X0112176Y0055870D01*
X0115547Y0055870D01*
X0116367Y0055050D01*
X0116367Y0050150D01*
X0115667Y0049450D01*
X0116367Y0048751D01*
X0116367Y0044400D01*
X0126165Y0044400D01*
X0126165Y0046742D01*
X0126140Y0046765D01*
X0126137Y0046817D01*
X0123600Y0049354D01*
X0123600Y0060723D01*
X0123196Y0061127D01*
X0122800Y0062083D01*
X0122800Y0063117D01*
X0123196Y0064073D01*
X0123539Y0064416D01*
X0123012Y0064942D02*
X0103104Y0064942D01*
X0104702Y0063343D02*
X0122894Y0063343D01*
X0122940Y0061745D02*
X0106301Y0061745D01*
X0107899Y0060146D02*
X0123600Y0060146D01*
X0123600Y0058548D02*
X0109498Y0058548D01*
X0111096Y0056949D02*
X0123600Y0056949D01*
X0123600Y0055351D02*
X0116066Y0055351D01*
X0116367Y0053752D02*
X0123600Y0053752D01*
X0123600Y0052154D02*
X0116367Y0052154D01*
X0116367Y0050555D02*
X0123600Y0050555D01*
X0123998Y0048957D02*
X0116161Y0048957D01*
X0116367Y0047358D02*
X0125596Y0047358D01*
X0126165Y0045760D02*
X0116367Y0045760D01*
X0110024Y0045760D02*
X0097200Y0045760D01*
X0097200Y0044400D02*
X0097200Y0065076D01*
X0097383Y0065000D01*
X0097954Y0065000D01*
X0110024Y0052931D01*
X0110024Y0050150D01*
X0110723Y0049450D01*
X0110024Y0048751D01*
X0110024Y0044400D01*
X0097200Y0044400D01*
X0097200Y0047358D02*
X0110024Y0047358D01*
X0110230Y0048957D02*
X0097200Y0048957D01*
X0097200Y0050555D02*
X0110024Y0050555D01*
X0110024Y0052154D02*
X0097200Y0052154D01*
X0097200Y0053752D02*
X0109202Y0053752D01*
X0107604Y0055351D02*
X0097200Y0055351D01*
X0097200Y0056949D02*
X0106005Y0056949D01*
X0104407Y0058548D02*
X0097200Y0058548D01*
X0097200Y0060146D02*
X0102808Y0060146D01*
X0101210Y0061745D02*
X0097200Y0061745D01*
X0097200Y0063343D02*
X0099611Y0063343D01*
X0098012Y0064942D02*
X0097200Y0064942D01*
X0093600Y0064942D02*
X0082200Y0064942D01*
X0082200Y0066540D02*
X0093600Y0066540D01*
X0093600Y0068139D02*
X0082200Y0068139D01*
X0082200Y0069737D02*
X0093600Y0069737D01*
X0093600Y0071336D02*
X0082200Y0071336D01*
X0082200Y0072934D02*
X0093600Y0072934D01*
X0093600Y0074533D02*
X0082200Y0074533D01*
X0082200Y0076132D02*
X0093600Y0076132D01*
X0093600Y0077730D02*
X0082200Y0077730D01*
X0082200Y0079329D02*
X0093600Y0079329D01*
X0093417Y0080000D02*
X0092383Y0080000D01*
X0091427Y0080396D01*
X0090696Y0081127D01*
X0090300Y0082083D01*
X0090300Y0082654D01*
X0088329Y0084625D01*
X0085293Y0084625D01*
X0084472Y0085445D01*
X0084472Y0089755D01*
X0085293Y0090575D01*
X0089602Y0090575D01*
X0090400Y0089777D01*
X0091100Y0090477D01*
X0091100Y0122712D01*
X0090056Y0122712D01*
X0089947Y0122821D01*
X0089248Y0122121D01*
X0086907Y0122121D01*
X0086798Y0122230D01*
X0086689Y0122121D01*
X0084348Y0122121D01*
X0084239Y0122230D01*
X0084130Y0122121D01*
X0082200Y0122121D01*
X0082200Y0058346D01*
X0084672Y0055874D01*
X0086954Y0055874D01*
X0087388Y0055440D01*
X0087822Y0055874D01*
X0091482Y0055874D01*
X0092302Y0055054D01*
X0092302Y0050744D01*
X0093600Y0049446D01*
X0093600Y0080076D01*
X0093417Y0080000D01*
X0090896Y0080927D02*
X0082200Y0080927D01*
X0082200Y0082526D02*
X0090300Y0082526D01*
X0088830Y0084124D02*
X0082200Y0084124D01*
X0082200Y0085723D02*
X0084472Y0085723D01*
X0084472Y0087321D02*
X0082200Y0087321D01*
X0082200Y0088920D02*
X0084472Y0088920D01*
X0085236Y0090518D02*
X0082200Y0090518D01*
X0082200Y0092117D02*
X0091100Y0092117D01*
X0091100Y0093715D02*
X0082200Y0093715D01*
X0082200Y0095314D02*
X0091100Y0095314D01*
X0091100Y0096912D02*
X0082200Y0096912D01*
X0082200Y0098511D02*
X0091100Y0098511D01*
X0091100Y0100109D02*
X0082200Y0100109D01*
X0082200Y0101708D02*
X0091100Y0101708D01*
X0091100Y0103306D02*
X0082200Y0103306D01*
X0082200Y0104905D02*
X0091100Y0104905D01*
X0091100Y0106503D02*
X0082200Y0106503D01*
X0082200Y0108102D02*
X0091100Y0108102D01*
X0091100Y0109700D02*
X0082200Y0109700D01*
X0082200Y0111299D02*
X0091100Y0111299D01*
X0091100Y0112897D02*
X0082200Y0112897D01*
X0082200Y0114496D02*
X0091100Y0114496D01*
X0091100Y0116094D02*
X0082200Y0116094D01*
X0082200Y0117693D02*
X0091100Y0117693D01*
X0091100Y0119291D02*
X0082200Y0119291D01*
X0082200Y0120890D02*
X0091100Y0120890D01*
X0091100Y0122488D02*
X0089615Y0122488D01*
X0094700Y0122488D02*
X0095466Y0122488D01*
X0096100Y0121854D02*
X0094700Y0123254D01*
X0094700Y0090575D01*
X0095507Y0090575D01*
X0096100Y0089982D01*
X0096100Y0121854D01*
X0096100Y0120890D02*
X0094700Y0120890D01*
X0094700Y0119291D02*
X0096100Y0119291D01*
X0096100Y0117693D02*
X0094700Y0117693D01*
X0094700Y0116094D02*
X0096100Y0116094D01*
X0096100Y0114496D02*
X0094700Y0114496D01*
X0094700Y0112897D02*
X0096100Y0112897D01*
X0096100Y0111299D02*
X0094700Y0111299D01*
X0094700Y0109700D02*
X0096100Y0109700D01*
X0096100Y0108102D02*
X0094700Y0108102D01*
X0094700Y0106503D02*
X0096100Y0106503D01*
X0096100Y0104905D02*
X0094700Y0104905D01*
X0094700Y0103306D02*
X0096100Y0103306D01*
X0096100Y0101708D02*
X0094700Y0101708D01*
X0094700Y0100109D02*
X0096100Y0100109D01*
X0096100Y0098511D02*
X0094700Y0098511D01*
X0094700Y0096912D02*
X0096100Y0096912D01*
X0096100Y0095314D02*
X0094700Y0095314D01*
X0094700Y0093715D02*
X0096100Y0093715D01*
X0096100Y0092117D02*
X0094700Y0092117D01*
X0095564Y0090518D02*
X0096100Y0090518D01*
X0099700Y0090518D02*
X0100236Y0090518D01*
X0104659Y0090518D02*
X0106141Y0090518D01*
X0103830Y0084124D02*
X0099700Y0084124D01*
X0099700Y0082526D02*
X0105429Y0082526D01*
X0107027Y0080927D02*
X0099700Y0080927D01*
X0099700Y0079329D02*
X0108626Y0079329D01*
X0110224Y0077730D02*
X0099700Y0077730D01*
X0099700Y0076132D02*
X0111823Y0076132D01*
X0113421Y0074533D02*
X0099700Y0074533D01*
X0099700Y0072934D02*
X0115020Y0072934D01*
X0116618Y0071336D02*
X0099700Y0071336D01*
X0099700Y0069737D02*
X0118217Y0069737D01*
X0119815Y0068139D02*
X0100491Y0068139D01*
X0101505Y0066540D02*
X0121414Y0066540D01*
X0127200Y0056949D02*
X0131100Y0056949D01*
X0093600Y0056949D02*
X0083596Y0056949D01*
X0082200Y0058548D02*
X0093600Y0058548D01*
X0093600Y0060146D02*
X0082200Y0060146D01*
X0082200Y0061745D02*
X0093600Y0061745D01*
X0093600Y0063343D02*
X0082200Y0063343D01*
X0078600Y0063254D02*
X0078046Y0062700D01*
X0078417Y0062700D01*
X0078600Y0062624D01*
X0078600Y0063254D01*
X0076100Y0065846D02*
X0076100Y0084231D01*
X0071001Y0084231D01*
X0070400Y0084833D01*
X0069799Y0084231D01*
X0067200Y0084231D01*
X0067200Y0081977D01*
X0067604Y0081573D01*
X0068000Y0080617D01*
X0068000Y0079583D01*
X0067604Y0078627D01*
X0067200Y0078223D01*
X0067200Y0056946D01*
X0076100Y0065846D01*
X0076100Y0066540D02*
X0067200Y0066540D01*
X0067200Y0064942D02*
X0075196Y0064942D01*
X0073598Y0063343D02*
X0067200Y0063343D01*
X0067200Y0061745D02*
X0071999Y0061745D01*
X0070401Y0060146D02*
X0067200Y0060146D01*
X0067200Y0058548D02*
X0068802Y0058548D01*
X0067204Y0056949D02*
X0067200Y0056949D01*
X0076220Y0055874D02*
X0077505Y0055874D01*
X0078038Y0055342D01*
X0078570Y0055874D01*
X0079580Y0055874D01*
X0078600Y0056854D01*
X0078600Y0057576D01*
X0078417Y0057500D01*
X0077846Y0057500D01*
X0076220Y0055874D01*
X0077295Y0056949D02*
X0078600Y0056949D01*
X0078047Y0055351D02*
X0078029Y0055351D01*
X0078038Y0045606D02*
X0077505Y0045074D01*
X0076169Y0045074D01*
X0076508Y0044735D01*
X0077082Y0043350D01*
X0077082Y0041850D01*
X0076531Y0040520D01*
X0077505Y0040520D01*
X0078136Y0039889D01*
X0078570Y0040323D01*
X0082230Y0040323D01*
X0082762Y0039791D01*
X0083295Y0040323D01*
X0084434Y0040323D01*
X0084292Y0040465D01*
X0083718Y0041850D01*
X0083718Y0043350D01*
X0084292Y0044735D01*
X0084631Y0045074D01*
X0083295Y0045074D01*
X0082762Y0045606D01*
X0082230Y0045074D01*
X0078570Y0045074D01*
X0078038Y0045606D01*
X0076746Y0044161D02*
X0084054Y0044161D01*
X0083718Y0042563D02*
X0077082Y0042563D01*
X0076715Y0040964D02*
X0084085Y0040964D01*
X0090539Y0040323D02*
X0091100Y0040323D01*
X0091100Y0041476D01*
X0090681Y0040465D01*
X0090539Y0040323D01*
X0090888Y0040964D02*
X0091100Y0040964D01*
X0091100Y0043724D02*
X0091100Y0045074D01*
X0090342Y0045074D01*
X0090681Y0044735D01*
X0091100Y0043724D01*
X0091100Y0044161D02*
X0090919Y0044161D01*
X0092490Y0050555D02*
X0093600Y0050555D01*
X0093600Y0052154D02*
X0092302Y0052154D01*
X0092302Y0053752D02*
X0093600Y0053752D01*
X0093600Y0055351D02*
X0092005Y0055351D01*
X0076100Y0068139D02*
X0067200Y0068139D01*
X0067200Y0069737D02*
X0076100Y0069737D01*
X0076100Y0071336D02*
X0067200Y0071336D01*
X0067200Y0072934D02*
X0076100Y0072934D01*
X0076100Y0074533D02*
X0067200Y0074533D01*
X0067200Y0076132D02*
X0076100Y0076132D01*
X0076100Y0077730D02*
X0067200Y0077730D01*
X0067895Y0079329D02*
X0076100Y0079329D01*
X0076100Y0080927D02*
X0067872Y0080927D01*
X0067200Y0082526D02*
X0076100Y0082526D01*
X0076100Y0084124D02*
X0067200Y0084124D01*
X0067200Y0090968D02*
X0069799Y0090968D01*
X0070400Y0090367D01*
X0071001Y0090968D01*
X0073600Y0090968D01*
X0073600Y0100076D01*
X0073417Y0100000D01*
X0072383Y0100000D01*
X0071427Y0100396D01*
X0071328Y0100496D01*
X0071328Y0100445D01*
X0070507Y0099625D01*
X0067200Y0099625D01*
X0067200Y0090968D01*
X0067200Y0092117D02*
X0073600Y0092117D01*
X0073600Y0093715D02*
X0067200Y0093715D01*
X0067200Y0095314D02*
X0073600Y0095314D01*
X0073600Y0096912D02*
X0067200Y0096912D01*
X0067200Y0098511D02*
X0073600Y0098511D01*
X0072119Y0100109D02*
X0070991Y0100109D01*
X0071328Y0104704D02*
X0071427Y0104804D01*
X0072383Y0105200D01*
X0073417Y0105200D01*
X0073600Y0105124D01*
X0073600Y0122121D01*
X0072467Y0122121D01*
X0069700Y0119354D01*
X0069700Y0105575D01*
X0070507Y0105575D01*
X0071328Y0104755D01*
X0071328Y0104704D01*
X0071178Y0104905D02*
X0071670Y0104905D01*
X0073600Y0106503D02*
X0069700Y0106503D01*
X0069700Y0108102D02*
X0073600Y0108102D01*
X0073600Y0109700D02*
X0069700Y0109700D01*
X0069700Y0111299D02*
X0073600Y0111299D01*
X0073600Y0112897D02*
X0069700Y0112897D01*
X0069700Y0114496D02*
X0073600Y0114496D01*
X0073600Y0116094D02*
X0069700Y0116094D01*
X0069700Y0117693D02*
X0073600Y0117693D01*
X0073600Y0119291D02*
X0069700Y0119291D01*
X0071235Y0120890D02*
X0073600Y0120890D01*
X0056146Y0124087D02*
X0054654Y0124087D01*
X0054831Y0125685D02*
X0055969Y0125685D01*
X0055969Y0127284D02*
X0054831Y0127284D01*
X0054831Y0128882D02*
X0055969Y0128882D01*
X0055969Y0130481D02*
X0054831Y0130481D01*
X0048430Y0144868D02*
X0111385Y0144868D01*
X0113864Y0149663D02*
X0155700Y0149663D01*
X0155700Y0148065D02*
X0116704Y0148065D01*
X0119500Y0146466D02*
X0155700Y0146466D01*
X0155700Y0144868D02*
X0122296Y0144868D01*
X0124651Y0143269D02*
X0155700Y0143269D01*
X0155700Y0141670D02*
X0126721Y0141670D01*
X0128792Y0140072D02*
X0155700Y0140072D01*
X0155700Y0138473D02*
X0130863Y0138473D01*
X0132692Y0136875D02*
X0155700Y0136875D01*
X0155700Y0135276D02*
X0134259Y0135276D01*
X0135826Y0133678D02*
X0155700Y0133678D01*
X0155700Y0132079D02*
X0137393Y0132079D01*
X0138959Y0130481D02*
X0155700Y0130481D01*
X0155700Y0128882D02*
X0140277Y0128882D01*
X0139506Y0129924D02*
X0139506Y0129924D01*
X0141460Y0127284D02*
X0155700Y0127284D01*
X0155700Y0125685D02*
X0142644Y0125685D01*
X0143828Y0124087D02*
X0155700Y0124087D01*
X0155700Y0122488D02*
X0145011Y0122488D01*
X0146126Y0120890D02*
X0155700Y0120890D01*
X0155700Y0119291D02*
X0146998Y0119291D01*
X0147870Y0117693D02*
X0155700Y0117693D01*
X0155700Y0116094D02*
X0148742Y0116094D01*
X0149614Y0114496D02*
X0155700Y0114496D01*
X0155700Y0112897D02*
X0150486Y0112897D01*
X0151281Y0111299D02*
X0155700Y0111299D01*
X0155700Y0109700D02*
X0151885Y0109700D01*
X0152489Y0108102D02*
X0155700Y0108102D01*
X0155700Y0106503D02*
X0153093Y0106503D01*
X0153698Y0104905D02*
X0155700Y0104905D01*
X0155700Y0103306D02*
X0154302Y0103306D01*
X0154906Y0101708D02*
X0155700Y0101708D01*
X0155700Y0100109D02*
X0155277Y0100109D01*
X0155640Y0098511D02*
X0155700Y0098511D01*
X0155700Y0151262D02*
X0109878Y0151262D01*
X0105892Y0152860D02*
X0155700Y0152860D01*
X0155700Y0157656D02*
X0001800Y0157656D01*
X0001800Y0159254D02*
X0155700Y0159254D01*
X0155700Y0160853D02*
X0001800Y0160853D01*
X0063111Y0149663D02*
X0066402Y0149663D01*
X0071564Y0149663D02*
X0089236Y0149663D01*
X0089310Y0148065D02*
X0071490Y0148065D01*
X0057864Y0100109D02*
X0049700Y0100109D01*
X0049700Y0098511D02*
X0056265Y0098511D01*
X0054667Y0096912D02*
X0049700Y0096912D01*
X0049700Y0095314D02*
X0053068Y0095314D01*
X0051470Y0093715D02*
X0049700Y0093715D01*
X0049700Y0092117D02*
X0051100Y0092117D01*
X0055400Y0084833D02*
X0055833Y0084400D01*
X0054967Y0084400D01*
X0055400Y0084833D01*
X0070249Y0090518D02*
X0070551Y0090518D01*
X0089659Y0090518D02*
X0091100Y0090518D01*
X0070458Y0045074D02*
X0069700Y0045074D01*
X0069700Y0043724D01*
X0070119Y0044735D01*
X0070458Y0045074D01*
X0069881Y0044161D02*
X0069700Y0044161D01*
X0069700Y0041476D02*
X0069700Y0040520D01*
X0070096Y0040520D01*
X0069700Y0041476D01*
X0069700Y0040964D02*
X0069912Y0040964D01*
X0073313Y0030252D02*
X0072781Y0029720D01*
X0070826Y0029720D01*
X0072800Y0027746D01*
X0072800Y0028117D01*
X0073196Y0029073D01*
X0073844Y0029721D01*
X0073313Y0030252D01*
X0072836Y0029775D02*
X0073791Y0029775D01*
X0072824Y0028176D02*
X0072369Y0028176D01*
X0078000Y0027654D02*
X0078000Y0027083D01*
X0077924Y0026900D01*
X0087876Y0026900D01*
X0087800Y0027083D01*
X0087800Y0028117D01*
X0088196Y0029073D01*
X0088600Y0029477D01*
X0088600Y0029523D01*
X0088019Y0029523D01*
X0087487Y0030055D01*
X0086954Y0029523D01*
X0083295Y0029523D01*
X0082762Y0030055D01*
X0082230Y0029523D01*
X0079868Y0029523D01*
X0078000Y0027654D01*
X0078522Y0028176D02*
X0087824Y0028176D01*
X0087767Y0029775D02*
X0087206Y0029775D01*
X0083043Y0029775D02*
X0082482Y0029775D01*
X0099563Y0008994D02*
X0060253Y0008994D01*
X0054831Y0010593D02*
X0104985Y0010593D01*
X0108623Y0012191D02*
X0051193Y0012191D01*
M02*
