G75*
%MOIN*%
%OFA0B0*%
%FSLAX25Y25*%
%IPPOS*%
%LPD*%
%AMOC8*
5,1,8,0,0,1.08239X$1,22.5*
%
%ADD10C,0.07000*%
%ADD11R,0.03150X0.03150*%
%ADD12R,0.02500X0.08000*%
%ADD13R,0.02362X0.01181*%
%ADD14R,0.01181X0.02362*%
%ADD15R,0.01181X0.01181*%
%ADD16R,0.05512X0.02756*%
%ADD17R,0.03543X0.03740*%
%ADD18C,0.00800*%
%ADD19C,0.02400*%
%ADD20C,0.01600*%
D10*
X0247154Y0095068D03*
X0247154Y0145461D03*
D11*
X0191918Y0219359D03*
X0186013Y0219359D03*
X0186131Y0231209D03*
X0192036Y0231209D03*
X0134005Y0201052D03*
X0128099Y0201052D03*
D12*
X0131013Y0049398D03*
X0135737Y0049398D03*
X0140461Y0049398D03*
X0145186Y0049398D03*
X0149713Y0049398D03*
X0149910Y0033847D03*
X0145186Y0033847D03*
X0140461Y0033847D03*
X0135737Y0034044D03*
X0131013Y0034044D03*
D13*
X0129162Y0215481D03*
X0129162Y0218040D03*
X0129162Y0220599D03*
X0129162Y0223158D03*
X0129162Y0225717D03*
X0129162Y0228276D03*
X0136643Y0223158D03*
X0136643Y0220599D03*
X0140580Y0220599D03*
X0140580Y0223158D03*
X0144517Y0223158D03*
X0144517Y0220599D03*
X0151997Y0220599D03*
X0151997Y0218040D03*
X0151997Y0215481D03*
X0151997Y0223158D03*
X0151997Y0225717D03*
X0151997Y0228276D03*
X0151997Y0240087D03*
X0129162Y0240087D03*
D14*
X0132902Y0228276D03*
X0135461Y0228276D03*
X0138020Y0228276D03*
X0140580Y0228276D03*
X0143139Y0228276D03*
X0145698Y0228276D03*
X0148257Y0228276D03*
X0148257Y0215481D03*
X0145698Y0215481D03*
X0143139Y0215481D03*
X0140580Y0215481D03*
X0138020Y0215481D03*
X0135461Y0215481D03*
X0132902Y0215481D03*
D15*
X0132902Y0220599D03*
X0132902Y0223158D03*
X0148257Y0223158D03*
D16*
X0114950Y0222902D03*
X0114950Y0216209D03*
D17*
X0086288Y0044674D03*
X0086288Y0038375D03*
X0070146Y0038375D03*
X0070146Y0044674D03*
D18*
X0070146Y0045068D01*
X0074083Y0049005D01*
X0130186Y0049005D01*
X0131013Y0049398D01*
X0131170Y0049989D01*
X0131170Y0051957D01*
X0139044Y0059831D01*
X0157745Y0059831D01*
X0157745Y0214359D01*
X0155776Y0216328D01*
X0154792Y0216328D01*
X0152824Y0218296D01*
X0151997Y0218040D01*
X0151997Y0215481D02*
X0152824Y0215343D01*
X0154792Y0213375D01*
X0144517Y0220599D02*
X0143965Y0220265D01*
X0141013Y0220265D01*
X0140580Y0220599D01*
X0140028Y0220265D01*
X0137076Y0220265D01*
X0136643Y0220599D01*
X0136091Y0220265D01*
X0135107Y0220265D01*
X0135107Y0216328D01*
X0135461Y0215481D01*
X0133139Y0215343D02*
X0132902Y0215481D01*
X0133139Y0215343D02*
X0133139Y0201564D01*
X0134005Y0201052D01*
X0133139Y0200580D01*
X0067194Y0134635D01*
X0067194Y0035225D01*
X0089831Y0035225D01*
X0086879Y0038178D01*
X0086288Y0038375D01*
X0089831Y0035225D02*
X0096721Y0028335D01*
X0146918Y0028335D01*
X0149871Y0031288D01*
X0149871Y0033257D01*
X0149910Y0033847D01*
X0145186Y0033847D02*
X0144950Y0034241D01*
X0141013Y0034241D01*
X0140461Y0033847D01*
X0140028Y0034241D01*
X0136091Y0034241D01*
X0135737Y0034044D01*
X0135107Y0034241D01*
X0131170Y0034241D01*
X0131013Y0034044D01*
X0130186Y0034241D01*
X0129202Y0034241D01*
X0129202Y0040146D01*
X0145186Y0049398D02*
X0144950Y0049989D01*
X0144950Y0052942D01*
X0141013Y0056879D01*
X0143965Y0062784D02*
X0138060Y0062784D01*
X0138060Y0215343D01*
X0138020Y0215481D01*
X0140580Y0215481D02*
X0141013Y0215343D01*
X0141013Y0065737D01*
X0149871Y0056879D02*
X0149871Y0049989D01*
X0149713Y0049398D01*
X0128099Y0201052D02*
X0128217Y0201564D01*
X0128217Y0207469D01*
X0128217Y0213375D01*
X0111485Y0213375D01*
X0110501Y0214359D01*
X0110501Y0228139D01*
X0128217Y0228139D01*
X0129162Y0228276D01*
X0129202Y0228139D01*
X0133139Y0228139D01*
X0132902Y0228276D01*
X0133139Y0229123D01*
X0135107Y0229123D01*
X0135461Y0228276D01*
X0135107Y0229123D02*
X0138060Y0229123D01*
X0138020Y0228276D01*
X0138060Y0229123D02*
X0140028Y0229123D01*
X0140580Y0228276D01*
X0140028Y0228139D01*
X0139044Y0228139D01*
X0137076Y0226170D01*
X0137076Y0223217D01*
X0136643Y0223158D01*
X0136091Y0223217D01*
X0136091Y0220265D01*
X0140028Y0220265D02*
X0140028Y0223217D01*
X0140580Y0223158D01*
X0143965Y0223217D02*
X0143965Y0220265D01*
X0144517Y0223158D02*
X0143965Y0223217D01*
X0143139Y0228276D02*
X0142981Y0229123D01*
X0144950Y0231091D01*
X0155776Y0231091D01*
X0158729Y0234044D01*
X0189241Y0234044D01*
X0189241Y0229123D01*
X0188257Y0228139D01*
X0186288Y0228139D01*
X0186288Y0220265D01*
X0186013Y0219359D01*
X0191918Y0219359D02*
X0192194Y0220265D01*
X0192194Y0231091D01*
X0192036Y0231209D01*
X0186131Y0231209D02*
X0185304Y0231091D01*
X0160698Y0231091D01*
X0152824Y0223217D01*
X0151997Y0223158D01*
X0151839Y0228139D02*
X0151997Y0228276D01*
X0152824Y0228139D01*
X0155776Y0231091D01*
X0151839Y0228139D02*
X0147902Y0228139D01*
X0148257Y0228276D01*
X0142981Y0229123D02*
X0141013Y0229123D01*
X0140580Y0228276D01*
X0129162Y0220599D02*
X0128217Y0220265D01*
X0126249Y0222233D01*
X0115422Y0222233D01*
X0114950Y0222902D01*
X0115422Y0216328D02*
X0114950Y0216209D01*
X0115422Y0216328D02*
X0126249Y0216328D01*
X0128217Y0218296D01*
X0129162Y0218040D01*
X0129162Y0215481D02*
X0128217Y0215343D01*
X0128217Y0213375D01*
D19*
X0128217Y0207469D03*
X0154792Y0213375D03*
X0141013Y0065737D03*
X0143965Y0062784D03*
X0141013Y0056879D03*
X0149871Y0056879D03*
X0129202Y0040146D03*
D20*
X0011075Y0003729D02*
X0001800Y0003729D01*
X0001800Y0014462D01*
X0002010Y0013678D01*
X0002010Y0013678D01*
X0004701Y0009018D01*
X0004701Y0009018D01*
X0008506Y0005212D01*
X0008506Y0005212D01*
X0011075Y0003729D01*
X0001800Y0003729D01*
X0001800Y0005328D02*
X0008391Y0005328D01*
X0006792Y0006926D02*
X0001800Y0006926D01*
X0001800Y0008525D02*
X0005194Y0008525D01*
X0004062Y0010123D02*
X0001800Y0010123D01*
X0001800Y0011722D02*
X0003139Y0011722D01*
X0002217Y0013320D02*
X0001800Y0013320D01*
X0006977Y0015735D02*
X0005948Y0019577D01*
X0005817Y0021566D01*
X0005817Y0230432D01*
X0005910Y0231849D01*
X0006644Y0234586D01*
X0008060Y0237040D01*
X0010064Y0239044D01*
X0012518Y0240460D01*
X0015255Y0241194D01*
X0016672Y0241287D01*
X0126610Y0241287D01*
X0126581Y0241258D01*
X0126581Y0238917D01*
X0127401Y0238097D01*
X0130923Y0238097D01*
X0131743Y0238917D01*
X0131743Y0241258D01*
X0131715Y0241287D01*
X0149445Y0241287D01*
X0149416Y0241258D01*
X0149416Y0238917D01*
X0150236Y0238097D01*
X0153758Y0238097D01*
X0154578Y0238917D01*
X0154578Y0241258D01*
X0154549Y0241287D01*
X0266868Y0241287D01*
X0268087Y0241207D01*
X0270442Y0240576D01*
X0272554Y0239357D01*
X0274278Y0237633D01*
X0275497Y0235521D01*
X0275497Y0235521D01*
X0276128Y0233166D01*
X0276208Y0231947D01*
X0276208Y0017483D01*
X0276112Y0016028D01*
X0275359Y0013215D01*
X0273903Y0010693D01*
X0271844Y0008634D01*
X0269322Y0007178D01*
X0266509Y0006425D01*
X0265054Y0006329D01*
X0021054Y0006329D01*
X0019066Y0006459D01*
X0015223Y0007489D01*
X0011779Y0009478D01*
X0008966Y0012290D01*
X0006977Y0015735D01*
X0006768Y0016517D02*
X0016575Y0016517D01*
X0016575Y0016799D02*
X0017538Y0019124D01*
X0019318Y0020904D01*
X0021644Y0021868D01*
X0024161Y0021868D01*
X0026487Y0020904D01*
X0028267Y0019124D01*
X0029230Y0016799D01*
X0029230Y0014282D01*
X0028267Y0011956D01*
X0026487Y0010176D01*
X0024161Y0009213D01*
X0021644Y0009213D01*
X0019318Y0010176D01*
X0017538Y0011956D01*
X0016575Y0014282D01*
X0016575Y0016799D01*
X0017120Y0018116D02*
X0006339Y0018116D01*
X0005939Y0019714D02*
X0018128Y0019714D01*
X0020304Y0021313D02*
X0005834Y0021313D01*
X0005817Y0022911D02*
X0276208Y0022911D01*
X0276208Y0021313D02*
X0261721Y0021313D01*
X0262707Y0020904D02*
X0260381Y0021868D01*
X0257864Y0021868D01*
X0255539Y0020904D01*
X0253759Y0019124D01*
X0252795Y0016799D01*
X0252795Y0014282D01*
X0253759Y0011956D01*
X0255539Y0010176D01*
X0257864Y0009213D01*
X0260381Y0009213D01*
X0262707Y0010176D01*
X0264487Y0011956D01*
X0265450Y0014282D01*
X0265450Y0016799D01*
X0264487Y0019124D01*
X0262707Y0020904D01*
X0263897Y0019714D02*
X0276208Y0019714D01*
X0276208Y0018116D02*
X0264905Y0018116D01*
X0265450Y0016517D02*
X0276145Y0016517D01*
X0275815Y0014919D02*
X0265450Y0014919D01*
X0265052Y0013320D02*
X0275387Y0013320D01*
X0274497Y0011722D02*
X0264253Y0011722D01*
X0262580Y0010123D02*
X0273333Y0010123D01*
X0271654Y0008525D02*
X0013430Y0008525D01*
X0011133Y0010123D02*
X0019445Y0010123D01*
X0017772Y0011722D02*
X0009535Y0011722D01*
X0008371Y0013320D02*
X0016973Y0013320D01*
X0016575Y0014919D02*
X0007449Y0014919D01*
X0005817Y0024510D02*
X0276208Y0024510D01*
X0276208Y0026108D02*
X0005817Y0026108D01*
X0005817Y0027707D02*
X0094804Y0027707D01*
X0094921Y0027590D02*
X0089086Y0033425D01*
X0066448Y0033425D01*
X0065394Y0034480D01*
X0065394Y0135380D01*
X0066448Y0136435D01*
X0128091Y0198077D01*
X0125945Y0198077D01*
X0125124Y0198897D01*
X0125124Y0203207D01*
X0125945Y0204027D01*
X0126417Y0204027D01*
X0126417Y0205592D01*
X0126013Y0205997D01*
X0125617Y0206952D01*
X0125617Y0207986D01*
X0126013Y0208942D01*
X0126417Y0209346D01*
X0126417Y0211575D01*
X0110739Y0211575D01*
X0109755Y0212559D01*
X0108701Y0213613D01*
X0108701Y0228884D01*
X0109755Y0229939D01*
X0127073Y0229939D01*
X0127401Y0230267D01*
X0130923Y0230267D01*
X0131032Y0230158D01*
X0131732Y0230857D01*
X0132328Y0230857D01*
X0132393Y0230923D01*
X0132666Y0230923D01*
X0132904Y0231057D01*
X0133385Y0230923D01*
X0134746Y0230923D01*
X0135100Y0231071D01*
X0135462Y0230923D01*
X0137363Y0230923D01*
X0137399Y0230956D01*
X0138102Y0230923D01*
X0139494Y0230923D01*
X0139671Y0231038D01*
X0140216Y0230923D01*
X0140729Y0230923D01*
X0141169Y0231065D01*
X0141446Y0230923D01*
X0142236Y0230923D01*
X0143150Y0231837D01*
X0144204Y0232891D01*
X0155031Y0232891D01*
X0157984Y0235844D01*
X0189987Y0235844D01*
X0191041Y0234790D01*
X0191041Y0234184D01*
X0194191Y0234184D01*
X0195011Y0233364D01*
X0195011Y0229055D01*
X0194191Y0228235D01*
X0193994Y0228235D01*
X0193994Y0222334D01*
X0194073Y0222334D01*
X0194893Y0221514D01*
X0194893Y0217204D01*
X0194073Y0216384D01*
X0189763Y0216384D01*
X0188965Y0217182D01*
X0188167Y0216384D01*
X0183858Y0216384D01*
X0183038Y0217204D01*
X0183038Y0221514D01*
X0183858Y0222334D01*
X0184488Y0222334D01*
X0184488Y0228235D01*
X0183976Y0228235D01*
X0183156Y0229055D01*
X0183156Y0229291D01*
X0161443Y0229291D01*
X0154578Y0222426D01*
X0154578Y0221988D01*
X0154469Y0221879D01*
X0154578Y0221770D01*
X0154578Y0219429D01*
X0154469Y0219320D01*
X0154578Y0219211D01*
X0154578Y0219087D01*
X0155538Y0218128D01*
X0156522Y0218128D01*
X0158490Y0216159D01*
X0159545Y0215105D01*
X0159545Y0059086D01*
X0158490Y0058031D01*
X0152208Y0058031D01*
X0152471Y0057396D01*
X0152471Y0056362D01*
X0152075Y0055406D01*
X0151671Y0055002D01*
X0151671Y0054671D01*
X0152363Y0053978D01*
X0152363Y0044819D01*
X0151543Y0043998D01*
X0150403Y0043998D01*
X0150743Y0043659D01*
X0151317Y0042274D01*
X0151317Y0040775D01*
X0150743Y0039390D01*
X0150600Y0039247D01*
X0151740Y0039247D01*
X0152560Y0038427D01*
X0152560Y0029267D01*
X0151740Y0028447D01*
X0149576Y0028447D01*
X0147664Y0026535D01*
X0095976Y0026535D01*
X0094921Y0027590D01*
X0093206Y0029305D02*
X0005817Y0029305D01*
X0005817Y0030904D02*
X0091607Y0030904D01*
X0090009Y0032502D02*
X0005817Y0032502D01*
X0005817Y0034101D02*
X0065772Y0034101D01*
X0065394Y0035699D02*
X0005817Y0035699D01*
X0005817Y0037298D02*
X0065394Y0037298D01*
X0065394Y0038896D02*
X0005817Y0038896D01*
X0005817Y0040495D02*
X0065394Y0040495D01*
X0065394Y0042093D02*
X0005817Y0042093D01*
X0005817Y0043692D02*
X0065394Y0043692D01*
X0065394Y0045290D02*
X0005817Y0045290D01*
X0005817Y0046889D02*
X0065394Y0046889D01*
X0065394Y0048487D02*
X0005817Y0048487D01*
X0005817Y0050086D02*
X0065394Y0050086D01*
X0065394Y0051684D02*
X0005817Y0051684D01*
X0005817Y0053283D02*
X0065394Y0053283D01*
X0065394Y0054881D02*
X0005817Y0054881D01*
X0005817Y0056480D02*
X0065394Y0056480D01*
X0065394Y0058079D02*
X0005817Y0058079D01*
X0005817Y0059677D02*
X0065394Y0059677D01*
X0065394Y0061276D02*
X0005817Y0061276D01*
X0005817Y0062874D02*
X0065394Y0062874D01*
X0065394Y0064473D02*
X0005817Y0064473D01*
X0005817Y0066071D02*
X0065394Y0066071D01*
X0065394Y0067670D02*
X0005817Y0067670D01*
X0005817Y0069268D02*
X0065394Y0069268D01*
X0065394Y0070867D02*
X0005817Y0070867D01*
X0005817Y0072465D02*
X0065394Y0072465D01*
X0065394Y0074064D02*
X0005817Y0074064D01*
X0005817Y0075662D02*
X0065394Y0075662D01*
X0065394Y0077261D02*
X0005817Y0077261D01*
X0005817Y0078859D02*
X0065394Y0078859D01*
X0065394Y0080458D02*
X0005817Y0080458D01*
X0005817Y0082056D02*
X0065394Y0082056D01*
X0065394Y0083655D02*
X0005817Y0083655D01*
X0005817Y0085253D02*
X0065394Y0085253D01*
X0065394Y0086852D02*
X0005817Y0086852D01*
X0005817Y0088450D02*
X0065394Y0088450D01*
X0065394Y0090049D02*
X0005817Y0090049D01*
X0005817Y0091647D02*
X0065394Y0091647D01*
X0065394Y0093246D02*
X0005817Y0093246D01*
X0005817Y0094844D02*
X0065394Y0094844D01*
X0065394Y0096443D02*
X0005817Y0096443D01*
X0005817Y0098041D02*
X0065394Y0098041D01*
X0065394Y0099640D02*
X0005817Y0099640D01*
X0005817Y0101238D02*
X0065394Y0101238D01*
X0065394Y0102837D02*
X0005817Y0102837D01*
X0005817Y0104435D02*
X0065394Y0104435D01*
X0065394Y0106034D02*
X0005817Y0106034D01*
X0005817Y0107632D02*
X0065394Y0107632D01*
X0065394Y0109231D02*
X0005817Y0109231D01*
X0005817Y0110829D02*
X0065394Y0110829D01*
X0065394Y0112428D02*
X0005817Y0112428D01*
X0005817Y0114026D02*
X0065394Y0114026D01*
X0065394Y0115625D02*
X0005817Y0115625D01*
X0005817Y0117223D02*
X0065394Y0117223D01*
X0065394Y0118822D02*
X0005817Y0118822D01*
X0005817Y0120420D02*
X0065394Y0120420D01*
X0065394Y0122019D02*
X0005817Y0122019D01*
X0005817Y0123617D02*
X0065394Y0123617D01*
X0065394Y0125216D02*
X0005817Y0125216D01*
X0005817Y0126815D02*
X0065394Y0126815D01*
X0065394Y0128413D02*
X0005817Y0128413D01*
X0005817Y0130012D02*
X0065394Y0130012D01*
X0065394Y0131610D02*
X0005817Y0131610D01*
X0005817Y0133209D02*
X0065394Y0133209D01*
X0065394Y0134807D02*
X0005817Y0134807D01*
X0005817Y0136406D02*
X0066419Y0136406D01*
X0068018Y0138004D02*
X0005817Y0138004D01*
X0005817Y0139603D02*
X0069616Y0139603D01*
X0071215Y0141201D02*
X0005817Y0141201D01*
X0005817Y0142800D02*
X0072813Y0142800D01*
X0074412Y0144398D02*
X0005817Y0144398D01*
X0005817Y0145997D02*
X0076010Y0145997D01*
X0077609Y0147595D02*
X0005817Y0147595D01*
X0005817Y0149194D02*
X0079207Y0149194D01*
X0080806Y0150792D02*
X0005817Y0150792D01*
X0005817Y0152391D02*
X0082404Y0152391D01*
X0084003Y0153989D02*
X0005817Y0153989D01*
X0005817Y0155588D02*
X0085601Y0155588D01*
X0087200Y0157186D02*
X0005817Y0157186D01*
X0005817Y0158785D02*
X0088798Y0158785D01*
X0090397Y0160383D02*
X0005817Y0160383D01*
X0005817Y0161982D02*
X0091995Y0161982D01*
X0093594Y0163580D02*
X0005817Y0163580D01*
X0005817Y0165179D02*
X0095192Y0165179D01*
X0096791Y0166777D02*
X0005817Y0166777D01*
X0005817Y0168376D02*
X0098389Y0168376D01*
X0099988Y0169974D02*
X0005817Y0169974D01*
X0005817Y0171573D02*
X0101586Y0171573D01*
X0103185Y0173171D02*
X0005817Y0173171D01*
X0005817Y0174770D02*
X0104783Y0174770D01*
X0106382Y0176368D02*
X0005817Y0176368D01*
X0005817Y0177967D02*
X0107980Y0177967D01*
X0109579Y0179565D02*
X0005817Y0179565D01*
X0005817Y0181164D02*
X0111177Y0181164D01*
X0112776Y0182762D02*
X0005817Y0182762D01*
X0005817Y0184361D02*
X0114374Y0184361D01*
X0115973Y0185959D02*
X0005817Y0185959D01*
X0005817Y0187558D02*
X0117571Y0187558D01*
X0119170Y0189156D02*
X0005817Y0189156D01*
X0005817Y0190755D02*
X0120768Y0190755D01*
X0122367Y0192353D02*
X0005817Y0192353D01*
X0005817Y0193952D02*
X0123965Y0193952D01*
X0125564Y0195550D02*
X0005817Y0195550D01*
X0005817Y0197149D02*
X0127162Y0197149D01*
X0125274Y0198748D02*
X0005817Y0198748D01*
X0005817Y0200346D02*
X0125124Y0200346D01*
X0125124Y0201945D02*
X0005817Y0201945D01*
X0005817Y0203543D02*
X0125461Y0203543D01*
X0126417Y0205142D02*
X0005817Y0205142D01*
X0005817Y0206740D02*
X0125705Y0206740D01*
X0125763Y0208339D02*
X0005817Y0208339D01*
X0005817Y0209937D02*
X0126417Y0209937D01*
X0126417Y0211536D02*
X0005817Y0211536D01*
X0005817Y0213134D02*
X0109180Y0213134D01*
X0108701Y0214733D02*
X0005817Y0214733D01*
X0005817Y0216331D02*
X0108701Y0216331D01*
X0108701Y0217930D02*
X0005817Y0217930D01*
X0005817Y0219528D02*
X0108701Y0219528D01*
X0108701Y0221127D02*
X0005817Y0221127D01*
X0005817Y0222725D02*
X0108701Y0222725D01*
X0108701Y0224324D02*
X0005817Y0224324D01*
X0005817Y0225922D02*
X0021223Y0225922D01*
X0021644Y0225748D02*
X0019318Y0226711D01*
X0017538Y0228491D01*
X0016575Y0230817D01*
X0016575Y0233334D01*
X0017538Y0235660D01*
X0019318Y0237440D01*
X0021644Y0238403D01*
X0024161Y0238403D01*
X0026487Y0237440D01*
X0028267Y0235660D01*
X0029230Y0233334D01*
X0029230Y0230817D01*
X0028267Y0228491D01*
X0026487Y0226711D01*
X0024161Y0225748D01*
X0021644Y0225748D01*
X0024582Y0225922D02*
X0108701Y0225922D01*
X0108701Y0227521D02*
X0027296Y0227521D01*
X0028527Y0229119D02*
X0108936Y0229119D01*
X0112301Y0226339D02*
X0112301Y0225680D01*
X0118285Y0225680D01*
X0119106Y0224860D01*
X0119106Y0224033D01*
X0126581Y0224033D01*
X0126581Y0224329D01*
X0126690Y0224438D01*
X0126581Y0224547D01*
X0126581Y0226339D01*
X0112301Y0226339D01*
X0112301Y0225922D02*
X0126581Y0225922D01*
X0126581Y0224324D02*
X0119106Y0224324D01*
X0118594Y0220433D02*
X0118285Y0220124D01*
X0112301Y0220124D01*
X0112301Y0218987D01*
X0118285Y0218987D01*
X0119106Y0218167D01*
X0119106Y0218128D01*
X0125503Y0218128D01*
X0126581Y0219205D01*
X0126581Y0219211D01*
X0126607Y0219237D01*
X0126627Y0219309D01*
X0125503Y0220433D01*
X0118594Y0220433D01*
X0112301Y0219528D02*
X0126408Y0219528D01*
X0131743Y0218609D02*
X0133307Y0218609D01*
X0133307Y0218062D01*
X0131743Y0218062D01*
X0131743Y0218609D01*
X0131032Y0213600D02*
X0131339Y0213293D01*
X0131339Y0203515D01*
X0131052Y0203229D01*
X0130254Y0204027D01*
X0130017Y0204027D01*
X0130017Y0205592D01*
X0130421Y0205997D01*
X0130817Y0206952D01*
X0130817Y0207986D01*
X0130421Y0208942D01*
X0130017Y0209346D01*
X0130017Y0213491D01*
X0130923Y0213491D01*
X0131032Y0213600D01*
X0131339Y0213134D02*
X0130017Y0213134D01*
X0130017Y0211536D02*
X0131339Y0211536D01*
X0131339Y0209937D02*
X0130017Y0209937D01*
X0130671Y0208339D02*
X0131339Y0208339D01*
X0131339Y0206740D02*
X0130730Y0206740D01*
X0131339Y0205142D02*
X0130017Y0205142D01*
X0130738Y0203543D02*
X0131339Y0203543D01*
X0134939Y0204027D02*
X0136159Y0204027D01*
X0136260Y0203926D01*
X0136260Y0212900D01*
X0134939Y0212900D01*
X0134939Y0204027D01*
X0134939Y0205142D02*
X0136260Y0205142D01*
X0136260Y0206740D02*
X0134939Y0206740D01*
X0134939Y0208339D02*
X0136260Y0208339D01*
X0136260Y0209937D02*
X0134939Y0209937D01*
X0134939Y0211536D02*
X0136260Y0211536D01*
X0142813Y0211536D02*
X0152954Y0211536D01*
X0153319Y0211171D02*
X0152588Y0211902D01*
X0152192Y0212858D01*
X0152192Y0213429D01*
X0152131Y0213491D01*
X0150236Y0213491D01*
X0150127Y0213600D01*
X0149427Y0212900D01*
X0147086Y0212900D01*
X0146977Y0213009D01*
X0146868Y0212900D01*
X0144527Y0212900D01*
X0144418Y0213009D01*
X0144309Y0212900D01*
X0142813Y0212900D01*
X0142813Y0067614D01*
X0143217Y0067210D01*
X0143613Y0066254D01*
X0143613Y0065384D01*
X0144483Y0065384D01*
X0145438Y0064988D01*
X0146170Y0064257D01*
X0146565Y0063301D01*
X0146565Y0062267D01*
X0146302Y0061631D01*
X0155945Y0061631D01*
X0155945Y0211038D01*
X0155309Y0210775D01*
X0154275Y0210775D01*
X0153319Y0211171D01*
X0152192Y0213134D02*
X0149661Y0213134D01*
X0149416Y0218062D02*
X0149416Y0219211D01*
X0149525Y0219320D01*
X0149416Y0219429D01*
X0149416Y0221168D01*
X0147098Y0221168D01*
X0147098Y0219429D01*
X0146278Y0218609D01*
X0144855Y0218609D01*
X0144711Y0218465D01*
X0144469Y0218465D01*
X0144262Y0218339D01*
X0143749Y0218465D01*
X0141128Y0218465D01*
X0140502Y0218384D01*
X0140457Y0218419D01*
X0140325Y0218339D01*
X0139812Y0218465D01*
X0137191Y0218465D01*
X0136907Y0218428D01*
X0136907Y0218062D01*
X0139191Y0218062D01*
X0139300Y0217953D01*
X0139409Y0218062D01*
X0141750Y0218062D01*
X0141859Y0217953D01*
X0141968Y0218062D01*
X0144309Y0218062D01*
X0144418Y0217953D01*
X0144527Y0218062D01*
X0146868Y0218062D01*
X0146977Y0217953D01*
X0147086Y0218062D01*
X0149416Y0218062D01*
X0149416Y0219528D02*
X0147098Y0219528D01*
X0147098Y0221127D02*
X0149416Y0221127D01*
X0149416Y0225149D02*
X0149416Y0225695D01*
X0147086Y0225695D01*
X0146977Y0225804D01*
X0146868Y0225695D01*
X0144527Y0225695D01*
X0144418Y0225804D01*
X0144309Y0225695D01*
X0141968Y0225695D01*
X0141859Y0225804D01*
X0141750Y0225695D01*
X0139409Y0225695D01*
X0139300Y0225804D01*
X0139191Y0225695D01*
X0139146Y0225695D01*
X0138876Y0225424D01*
X0138876Y0225149D01*
X0142341Y0225149D01*
X0142548Y0224941D01*
X0142756Y0225149D01*
X0146278Y0225149D01*
X0146682Y0224744D01*
X0147086Y0225149D01*
X0149416Y0225149D01*
X0154877Y0222725D02*
X0184488Y0222725D01*
X0184488Y0224324D02*
X0156476Y0224324D01*
X0158074Y0225922D02*
X0184488Y0225922D01*
X0184488Y0227521D02*
X0159673Y0227521D01*
X0161271Y0229119D02*
X0183156Y0229119D01*
X0188088Y0226339D02*
X0188088Y0222334D01*
X0188167Y0222334D01*
X0188965Y0221536D01*
X0189763Y0222334D01*
X0190394Y0222334D01*
X0190394Y0227730D01*
X0190057Y0227393D01*
X0189002Y0226339D01*
X0188088Y0226339D01*
X0188088Y0225922D02*
X0190394Y0225922D01*
X0190057Y0227393D02*
X0190057Y0227393D01*
X0190184Y0227521D02*
X0190394Y0227521D01*
X0190394Y0224324D02*
X0188088Y0224324D01*
X0188088Y0222725D02*
X0190394Y0222725D01*
X0193994Y0222725D02*
X0276208Y0222725D01*
X0276208Y0221127D02*
X0194893Y0221127D01*
X0194893Y0219528D02*
X0276208Y0219528D01*
X0276208Y0217930D02*
X0194893Y0217930D01*
X0193994Y0224324D02*
X0276208Y0224324D01*
X0276208Y0225922D02*
X0260802Y0225922D01*
X0260381Y0225748D02*
X0257864Y0225748D01*
X0255539Y0226711D01*
X0253759Y0228491D01*
X0252795Y0230817D01*
X0252795Y0233334D01*
X0253759Y0235660D01*
X0255539Y0237440D01*
X0257864Y0238403D01*
X0260381Y0238403D01*
X0262707Y0237440D01*
X0264487Y0235660D01*
X0265450Y0233334D01*
X0265450Y0230817D01*
X0264487Y0228491D01*
X0262707Y0226711D01*
X0260381Y0225748D01*
X0257444Y0225922D02*
X0193994Y0225922D01*
X0193994Y0227521D02*
X0254729Y0227521D01*
X0253499Y0229119D02*
X0195011Y0229119D01*
X0195011Y0230718D02*
X0252836Y0230718D01*
X0252795Y0232316D02*
X0195011Y0232316D01*
X0194460Y0233915D02*
X0253036Y0233915D01*
X0253698Y0235513D02*
X0190317Y0235513D01*
X0183038Y0221127D02*
X0154578Y0221127D01*
X0154578Y0219528D02*
X0183038Y0219528D01*
X0183038Y0217930D02*
X0156720Y0217930D01*
X0158318Y0216331D02*
X0276208Y0216331D01*
X0276208Y0214733D02*
X0159545Y0214733D01*
X0159545Y0213134D02*
X0276208Y0213134D01*
X0276208Y0211536D02*
X0159545Y0211536D01*
X0159545Y0209937D02*
X0276208Y0209937D01*
X0276208Y0208339D02*
X0159545Y0208339D01*
X0159545Y0206740D02*
X0276208Y0206740D01*
X0276208Y0205142D02*
X0159545Y0205142D01*
X0159545Y0203543D02*
X0276208Y0203543D01*
X0276208Y0201945D02*
X0159545Y0201945D01*
X0159545Y0200346D02*
X0276208Y0200346D01*
X0276208Y0198748D02*
X0159545Y0198748D01*
X0159545Y0197149D02*
X0276208Y0197149D01*
X0276208Y0195550D02*
X0159545Y0195550D01*
X0159545Y0193952D02*
X0276208Y0193952D01*
X0276208Y0192353D02*
X0159545Y0192353D01*
X0159545Y0190755D02*
X0276208Y0190755D01*
X0276208Y0189156D02*
X0159545Y0189156D01*
X0159545Y0187558D02*
X0276208Y0187558D01*
X0276208Y0185959D02*
X0159545Y0185959D01*
X0159545Y0184361D02*
X0276208Y0184361D01*
X0276208Y0182762D02*
X0159545Y0182762D01*
X0159545Y0181164D02*
X0276208Y0181164D01*
X0276208Y0179565D02*
X0159545Y0179565D01*
X0159545Y0177967D02*
X0276208Y0177967D01*
X0276208Y0176368D02*
X0159545Y0176368D01*
X0159545Y0174770D02*
X0276208Y0174770D01*
X0276208Y0173171D02*
X0159545Y0173171D01*
X0159545Y0171573D02*
X0276208Y0171573D01*
X0276208Y0169974D02*
X0159545Y0169974D01*
X0159545Y0168376D02*
X0276208Y0168376D01*
X0276208Y0166777D02*
X0159545Y0166777D01*
X0159545Y0165179D02*
X0276208Y0165179D01*
X0276208Y0163580D02*
X0159545Y0163580D01*
X0159545Y0161982D02*
X0276208Y0161982D01*
X0276208Y0160383D02*
X0159545Y0160383D01*
X0159545Y0158785D02*
X0276208Y0158785D01*
X0276208Y0157186D02*
X0159545Y0157186D01*
X0159545Y0155588D02*
X0276208Y0155588D01*
X0276208Y0153989D02*
X0159545Y0153989D01*
X0159545Y0152391D02*
X0276208Y0152391D01*
X0276208Y0150792D02*
X0159545Y0150792D01*
X0159545Y0149194D02*
X0243957Y0149194D01*
X0244379Y0149615D02*
X0246180Y0150361D01*
X0248129Y0150361D01*
X0249930Y0149615D01*
X0251308Y0148237D01*
X0252054Y0146436D01*
X0252054Y0144487D01*
X0251308Y0142686D01*
X0249930Y0141307D01*
X0248129Y0140561D01*
X0246180Y0140561D01*
X0244379Y0141307D01*
X0243000Y0142686D01*
X0242254Y0144487D01*
X0242254Y0146436D01*
X0243000Y0148237D01*
X0244379Y0149615D01*
X0242734Y0147595D02*
X0159545Y0147595D01*
X0159545Y0145997D02*
X0242254Y0145997D01*
X0242291Y0144398D02*
X0159545Y0144398D01*
X0159545Y0142800D02*
X0242953Y0142800D01*
X0244635Y0141201D02*
X0159545Y0141201D01*
X0159545Y0139603D02*
X0276208Y0139603D01*
X0276208Y0141201D02*
X0249673Y0141201D01*
X0251356Y0142800D02*
X0276208Y0142800D01*
X0276208Y0144398D02*
X0252018Y0144398D01*
X0252054Y0145997D02*
X0276208Y0145997D01*
X0276208Y0147595D02*
X0251574Y0147595D01*
X0250352Y0149194D02*
X0276208Y0149194D01*
X0276208Y0138004D02*
X0159545Y0138004D01*
X0159545Y0136406D02*
X0276208Y0136406D01*
X0276208Y0134807D02*
X0159545Y0134807D01*
X0159545Y0133209D02*
X0276208Y0133209D01*
X0276208Y0131610D02*
X0159545Y0131610D01*
X0159545Y0130012D02*
X0276208Y0130012D01*
X0276208Y0128413D02*
X0159545Y0128413D01*
X0159545Y0126815D02*
X0276208Y0126815D01*
X0276208Y0125216D02*
X0159545Y0125216D01*
X0159545Y0123617D02*
X0276208Y0123617D01*
X0276208Y0122019D02*
X0159545Y0122019D01*
X0159545Y0120420D02*
X0276208Y0120420D01*
X0276208Y0118822D02*
X0159545Y0118822D01*
X0159545Y0117223D02*
X0276208Y0117223D01*
X0276208Y0115625D02*
X0159545Y0115625D01*
X0159545Y0114026D02*
X0276208Y0114026D01*
X0276208Y0112428D02*
X0159545Y0112428D01*
X0159545Y0110829D02*
X0276208Y0110829D01*
X0276208Y0109231D02*
X0159545Y0109231D01*
X0159545Y0107632D02*
X0276208Y0107632D01*
X0276208Y0106034D02*
X0159545Y0106034D01*
X0159545Y0104435D02*
X0276208Y0104435D01*
X0276208Y0102837D02*
X0159545Y0102837D01*
X0159545Y0101238D02*
X0276208Y0101238D01*
X0276208Y0099640D02*
X0248921Y0099640D01*
X0248129Y0099968D02*
X0249930Y0099222D01*
X0251308Y0097843D01*
X0252054Y0096042D01*
X0252054Y0094093D01*
X0251308Y0092292D01*
X0249930Y0090914D01*
X0248129Y0090168D01*
X0246180Y0090168D01*
X0244379Y0090914D01*
X0243000Y0092292D01*
X0242254Y0094093D01*
X0242254Y0096042D01*
X0243000Y0097843D01*
X0244379Y0099222D01*
X0246180Y0099968D01*
X0248129Y0099968D01*
X0245388Y0099640D02*
X0159545Y0099640D01*
X0159545Y0098041D02*
X0243198Y0098041D01*
X0242420Y0096443D02*
X0159545Y0096443D01*
X0159545Y0094844D02*
X0242254Y0094844D01*
X0242605Y0093246D02*
X0159545Y0093246D01*
X0159545Y0091647D02*
X0243645Y0091647D01*
X0250664Y0091647D02*
X0276208Y0091647D01*
X0276208Y0090049D02*
X0159545Y0090049D01*
X0159545Y0088450D02*
X0276208Y0088450D01*
X0276208Y0086852D02*
X0159545Y0086852D01*
X0159545Y0085253D02*
X0276208Y0085253D01*
X0276208Y0083655D02*
X0159545Y0083655D01*
X0159545Y0082056D02*
X0276208Y0082056D01*
X0276208Y0080458D02*
X0159545Y0080458D01*
X0159545Y0078859D02*
X0276208Y0078859D01*
X0276208Y0077261D02*
X0159545Y0077261D01*
X0159545Y0075662D02*
X0276208Y0075662D01*
X0276208Y0074064D02*
X0159545Y0074064D01*
X0159545Y0072465D02*
X0276208Y0072465D01*
X0276208Y0070867D02*
X0159545Y0070867D01*
X0159545Y0069268D02*
X0276208Y0069268D01*
X0276208Y0067670D02*
X0159545Y0067670D01*
X0159545Y0066071D02*
X0276208Y0066071D01*
X0276208Y0064473D02*
X0159545Y0064473D01*
X0159545Y0062874D02*
X0276208Y0062874D01*
X0276208Y0061276D02*
X0159545Y0061276D01*
X0159545Y0059677D02*
X0276208Y0059677D01*
X0276208Y0058079D02*
X0158538Y0058079D01*
X0155945Y0062874D02*
X0146565Y0062874D01*
X0145954Y0064473D02*
X0155945Y0064473D01*
X0155945Y0066071D02*
X0143613Y0066071D01*
X0142813Y0067670D02*
X0155945Y0067670D01*
X0155945Y0069268D02*
X0142813Y0069268D01*
X0142813Y0070867D02*
X0155945Y0070867D01*
X0155945Y0072465D02*
X0142813Y0072465D01*
X0142813Y0074064D02*
X0155945Y0074064D01*
X0155945Y0075662D02*
X0142813Y0075662D01*
X0142813Y0077261D02*
X0155945Y0077261D01*
X0155945Y0078859D02*
X0142813Y0078859D01*
X0142813Y0080458D02*
X0155945Y0080458D01*
X0155945Y0082056D02*
X0142813Y0082056D01*
X0142813Y0083655D02*
X0155945Y0083655D01*
X0155945Y0085253D02*
X0142813Y0085253D01*
X0142813Y0086852D02*
X0155945Y0086852D01*
X0155945Y0088450D02*
X0142813Y0088450D01*
X0142813Y0090049D02*
X0155945Y0090049D01*
X0155945Y0091647D02*
X0142813Y0091647D01*
X0142813Y0093246D02*
X0155945Y0093246D01*
X0155945Y0094844D02*
X0142813Y0094844D01*
X0142813Y0096443D02*
X0155945Y0096443D01*
X0155945Y0098041D02*
X0142813Y0098041D01*
X0142813Y0099640D02*
X0155945Y0099640D01*
X0155945Y0101238D02*
X0142813Y0101238D01*
X0142813Y0102837D02*
X0155945Y0102837D01*
X0155945Y0104435D02*
X0142813Y0104435D01*
X0142813Y0106034D02*
X0155945Y0106034D01*
X0155945Y0107632D02*
X0142813Y0107632D01*
X0142813Y0109231D02*
X0155945Y0109231D01*
X0155945Y0110829D02*
X0142813Y0110829D01*
X0142813Y0112428D02*
X0155945Y0112428D01*
X0155945Y0114026D02*
X0142813Y0114026D01*
X0142813Y0115625D02*
X0155945Y0115625D01*
X0155945Y0117223D02*
X0142813Y0117223D01*
X0142813Y0118822D02*
X0155945Y0118822D01*
X0155945Y0120420D02*
X0142813Y0120420D01*
X0142813Y0122019D02*
X0155945Y0122019D01*
X0155945Y0123617D02*
X0142813Y0123617D01*
X0142813Y0125216D02*
X0155945Y0125216D01*
X0155945Y0126815D02*
X0142813Y0126815D01*
X0142813Y0128413D02*
X0155945Y0128413D01*
X0155945Y0130012D02*
X0142813Y0130012D01*
X0142813Y0131610D02*
X0155945Y0131610D01*
X0155945Y0133209D02*
X0142813Y0133209D01*
X0142813Y0134807D02*
X0155945Y0134807D01*
X0155945Y0136406D02*
X0142813Y0136406D01*
X0142813Y0138004D02*
X0155945Y0138004D01*
X0155945Y0139603D02*
X0142813Y0139603D01*
X0142813Y0141201D02*
X0155945Y0141201D01*
X0155945Y0142800D02*
X0142813Y0142800D01*
X0142813Y0144398D02*
X0155945Y0144398D01*
X0155945Y0145997D02*
X0142813Y0145997D01*
X0142813Y0147595D02*
X0155945Y0147595D01*
X0155945Y0149194D02*
X0142813Y0149194D01*
X0142813Y0150792D02*
X0155945Y0150792D01*
X0155945Y0152391D02*
X0142813Y0152391D01*
X0142813Y0153989D02*
X0155945Y0153989D01*
X0155945Y0155588D02*
X0142813Y0155588D01*
X0142813Y0157186D02*
X0155945Y0157186D01*
X0155945Y0158785D02*
X0142813Y0158785D01*
X0142813Y0160383D02*
X0155945Y0160383D01*
X0155945Y0161982D02*
X0142813Y0161982D01*
X0142813Y0163580D02*
X0155945Y0163580D01*
X0155945Y0165179D02*
X0142813Y0165179D01*
X0142813Y0166777D02*
X0155945Y0166777D01*
X0155945Y0168376D02*
X0142813Y0168376D01*
X0142813Y0169974D02*
X0155945Y0169974D01*
X0155945Y0171573D02*
X0142813Y0171573D01*
X0142813Y0173171D02*
X0155945Y0173171D01*
X0155945Y0174770D02*
X0142813Y0174770D01*
X0142813Y0176368D02*
X0155945Y0176368D01*
X0155945Y0177967D02*
X0142813Y0177967D01*
X0142813Y0179565D02*
X0155945Y0179565D01*
X0155945Y0181164D02*
X0142813Y0181164D01*
X0142813Y0182762D02*
X0155945Y0182762D01*
X0155945Y0184361D02*
X0142813Y0184361D01*
X0142813Y0185959D02*
X0155945Y0185959D01*
X0155945Y0187558D02*
X0142813Y0187558D01*
X0142813Y0189156D02*
X0155945Y0189156D01*
X0155945Y0190755D02*
X0142813Y0190755D01*
X0142813Y0192353D02*
X0155945Y0192353D01*
X0155945Y0193952D02*
X0142813Y0193952D01*
X0142813Y0195550D02*
X0155945Y0195550D01*
X0155945Y0197149D02*
X0142813Y0197149D01*
X0142813Y0198748D02*
X0155945Y0198748D01*
X0155945Y0200346D02*
X0142813Y0200346D01*
X0142813Y0201945D02*
X0155945Y0201945D01*
X0155945Y0203543D02*
X0142813Y0203543D01*
X0142813Y0205142D02*
X0155945Y0205142D01*
X0155945Y0206740D02*
X0142813Y0206740D01*
X0142813Y0208339D02*
X0155945Y0208339D01*
X0155945Y0209937D02*
X0142813Y0209937D01*
X0136260Y0198178D02*
X0136159Y0198077D01*
X0133182Y0198077D01*
X0068994Y0133889D01*
X0068994Y0047944D01*
X0070477Y0047944D01*
X0072283Y0049750D01*
X0073338Y0050805D01*
X0128363Y0050805D01*
X0128363Y0053978D01*
X0129183Y0054798D01*
X0131465Y0054798D01*
X0137651Y0060984D01*
X0137314Y0060984D01*
X0136260Y0062039D01*
X0136260Y0198178D01*
X0136260Y0197149D02*
X0132254Y0197149D01*
X0130655Y0195550D02*
X0136260Y0195550D01*
X0136260Y0193952D02*
X0129057Y0193952D01*
X0127458Y0192353D02*
X0136260Y0192353D01*
X0136260Y0190755D02*
X0125860Y0190755D01*
X0124261Y0189156D02*
X0136260Y0189156D01*
X0136260Y0187558D02*
X0122663Y0187558D01*
X0121064Y0185959D02*
X0136260Y0185959D01*
X0136260Y0184361D02*
X0119466Y0184361D01*
X0117867Y0182762D02*
X0136260Y0182762D01*
X0136260Y0181164D02*
X0116269Y0181164D01*
X0114670Y0179565D02*
X0136260Y0179565D01*
X0136260Y0177967D02*
X0113072Y0177967D01*
X0111473Y0176368D02*
X0136260Y0176368D01*
X0136260Y0174770D02*
X0109874Y0174770D01*
X0108276Y0173171D02*
X0136260Y0173171D01*
X0136260Y0171573D02*
X0106677Y0171573D01*
X0105079Y0169974D02*
X0136260Y0169974D01*
X0136260Y0168376D02*
X0103480Y0168376D01*
X0101882Y0166777D02*
X0136260Y0166777D01*
X0136260Y0165179D02*
X0100283Y0165179D01*
X0098685Y0163580D02*
X0136260Y0163580D01*
X0136260Y0161982D02*
X0097086Y0161982D01*
X0095488Y0160383D02*
X0136260Y0160383D01*
X0136260Y0158785D02*
X0093889Y0158785D01*
X0092291Y0157186D02*
X0136260Y0157186D01*
X0136260Y0155588D02*
X0090692Y0155588D01*
X0089094Y0153989D02*
X0136260Y0153989D01*
X0136260Y0152391D02*
X0087495Y0152391D01*
X0085897Y0150792D02*
X0136260Y0150792D01*
X0136260Y0149194D02*
X0084298Y0149194D01*
X0082700Y0147595D02*
X0136260Y0147595D01*
X0136260Y0145997D02*
X0081101Y0145997D01*
X0079503Y0144398D02*
X0136260Y0144398D01*
X0136260Y0142800D02*
X0077904Y0142800D01*
X0076306Y0141201D02*
X0136260Y0141201D01*
X0136260Y0139603D02*
X0074707Y0139603D01*
X0073109Y0138004D02*
X0136260Y0138004D01*
X0136260Y0136406D02*
X0071510Y0136406D01*
X0069912Y0134807D02*
X0136260Y0134807D01*
X0136260Y0133209D02*
X0068994Y0133209D01*
X0068994Y0131610D02*
X0136260Y0131610D01*
X0136260Y0130012D02*
X0068994Y0130012D01*
X0068994Y0128413D02*
X0136260Y0128413D01*
X0136260Y0126815D02*
X0068994Y0126815D01*
X0068994Y0125216D02*
X0136260Y0125216D01*
X0136260Y0123617D02*
X0068994Y0123617D01*
X0068994Y0122019D02*
X0136260Y0122019D01*
X0136260Y0120420D02*
X0068994Y0120420D01*
X0068994Y0118822D02*
X0136260Y0118822D01*
X0136260Y0117223D02*
X0068994Y0117223D01*
X0068994Y0115625D02*
X0136260Y0115625D01*
X0136260Y0114026D02*
X0068994Y0114026D01*
X0068994Y0112428D02*
X0136260Y0112428D01*
X0136260Y0110829D02*
X0068994Y0110829D01*
X0068994Y0109231D02*
X0136260Y0109231D01*
X0136260Y0107632D02*
X0068994Y0107632D01*
X0068994Y0106034D02*
X0136260Y0106034D01*
X0136260Y0104435D02*
X0068994Y0104435D01*
X0068994Y0102837D02*
X0136260Y0102837D01*
X0136260Y0101238D02*
X0068994Y0101238D01*
X0068994Y0099640D02*
X0136260Y0099640D01*
X0136260Y0098041D02*
X0068994Y0098041D01*
X0068994Y0096443D02*
X0136260Y0096443D01*
X0136260Y0094844D02*
X0068994Y0094844D01*
X0068994Y0093246D02*
X0136260Y0093246D01*
X0136260Y0091647D02*
X0068994Y0091647D01*
X0068994Y0090049D02*
X0136260Y0090049D01*
X0136260Y0088450D02*
X0068994Y0088450D01*
X0068994Y0086852D02*
X0136260Y0086852D01*
X0136260Y0085253D02*
X0068994Y0085253D01*
X0068994Y0083655D02*
X0136260Y0083655D01*
X0136260Y0082056D02*
X0068994Y0082056D01*
X0068994Y0080458D02*
X0136260Y0080458D01*
X0136260Y0078859D02*
X0068994Y0078859D01*
X0068994Y0077261D02*
X0136260Y0077261D01*
X0136260Y0075662D02*
X0068994Y0075662D01*
X0068994Y0074064D02*
X0136260Y0074064D01*
X0136260Y0072465D02*
X0068994Y0072465D01*
X0068994Y0070867D02*
X0136260Y0070867D01*
X0136260Y0069268D02*
X0068994Y0069268D01*
X0068994Y0067670D02*
X0136260Y0067670D01*
X0136260Y0066071D02*
X0068994Y0066071D01*
X0068994Y0064473D02*
X0136260Y0064473D01*
X0136260Y0062874D02*
X0068994Y0062874D01*
X0068994Y0061276D02*
X0137023Y0061276D01*
X0136344Y0059677D02*
X0068994Y0059677D01*
X0068994Y0058079D02*
X0134746Y0058079D01*
X0133147Y0056480D02*
X0068994Y0056480D01*
X0068994Y0054881D02*
X0131549Y0054881D01*
X0128363Y0053283D02*
X0068994Y0053283D01*
X0068994Y0051684D02*
X0128363Y0051684D01*
X0128363Y0047205D02*
X0089379Y0047205D01*
X0089460Y0047124D01*
X0089460Y0042224D01*
X0088760Y0041524D01*
X0089460Y0040825D01*
X0089460Y0038142D01*
X0090577Y0037025D01*
X0091631Y0035971D01*
X0091631Y0035971D01*
X0097467Y0030135D01*
X0128363Y0030135D01*
X0128363Y0032534D01*
X0127402Y0033495D01*
X0127402Y0038270D01*
X0126997Y0038674D01*
X0126602Y0039629D01*
X0126602Y0040664D01*
X0126997Y0041619D01*
X0127729Y0042351D01*
X0128684Y0042746D01*
X0129719Y0042746D01*
X0129790Y0042717D01*
X0130180Y0043659D01*
X0130519Y0043998D01*
X0129183Y0043998D01*
X0128363Y0044819D01*
X0128363Y0047205D01*
X0128363Y0046889D02*
X0089460Y0046889D01*
X0089460Y0045290D02*
X0128363Y0045290D01*
X0130213Y0043692D02*
X0089460Y0043692D01*
X0089329Y0042093D02*
X0127472Y0042093D01*
X0126602Y0040495D02*
X0089460Y0040495D01*
X0089460Y0038896D02*
X0126905Y0038896D01*
X0127402Y0037298D02*
X0090304Y0037298D01*
X0090577Y0037025D02*
X0090577Y0037025D01*
X0091903Y0035699D02*
X0127402Y0035699D01*
X0127402Y0034101D02*
X0093501Y0034101D01*
X0095100Y0032502D02*
X0128363Y0032502D01*
X0128363Y0030904D02*
X0096698Y0030904D01*
X0083117Y0037025D02*
X0083117Y0040825D01*
X0083816Y0041524D01*
X0083117Y0042224D01*
X0083117Y0047124D01*
X0083197Y0047205D01*
X0074829Y0047205D01*
X0073318Y0045694D01*
X0073318Y0042224D01*
X0072618Y0041524D01*
X0073318Y0040825D01*
X0073318Y0037025D01*
X0083117Y0037025D01*
X0083117Y0037298D02*
X0073318Y0037298D01*
X0073318Y0038896D02*
X0083117Y0038896D01*
X0083117Y0040495D02*
X0073318Y0040495D01*
X0073187Y0042093D02*
X0083247Y0042093D01*
X0083117Y0043692D02*
X0073318Y0043692D01*
X0073318Y0045290D02*
X0083117Y0045290D01*
X0083117Y0046889D02*
X0074513Y0046889D01*
X0071021Y0048487D02*
X0068994Y0048487D01*
X0068994Y0050086D02*
X0072619Y0050086D01*
X0028684Y0018116D02*
X0253341Y0018116D01*
X0252795Y0016517D02*
X0029230Y0016517D01*
X0029230Y0014919D02*
X0252795Y0014919D01*
X0253193Y0013320D02*
X0028832Y0013320D01*
X0028032Y0011722D02*
X0253993Y0011722D01*
X0255666Y0010123D02*
X0026359Y0010123D01*
X0017324Y0006926D02*
X0268381Y0006926D01*
X0273939Y0003729D02*
X0279203Y0003729D01*
X0279202Y0003335D02*
X0279221Y0009313D01*
X0278140Y0007442D01*
X0275095Y0004397D01*
X0273939Y0003729D01*
X0278808Y0003729D01*
X0279202Y0003335D01*
X0279208Y0005328D02*
X0276026Y0005328D01*
X0275095Y0004397D02*
X0275095Y0004397D01*
X0275095Y0004397D01*
X0277625Y0006926D02*
X0279213Y0006926D01*
X0278140Y0007442D02*
X0278140Y0007442D01*
X0278766Y0008525D02*
X0279218Y0008525D01*
X0276208Y0027707D02*
X0148835Y0027707D01*
X0152560Y0029305D02*
X0276208Y0029305D01*
X0276208Y0030904D02*
X0152560Y0030904D01*
X0152560Y0032502D02*
X0276208Y0032502D01*
X0276208Y0034101D02*
X0152560Y0034101D01*
X0152560Y0035699D02*
X0276208Y0035699D01*
X0276208Y0037298D02*
X0152560Y0037298D01*
X0152091Y0038896D02*
X0276208Y0038896D01*
X0276208Y0040495D02*
X0151201Y0040495D01*
X0151317Y0042093D02*
X0276208Y0042093D01*
X0276208Y0043692D02*
X0150710Y0043692D01*
X0152363Y0045290D02*
X0276208Y0045290D01*
X0276208Y0046889D02*
X0152363Y0046889D01*
X0152363Y0048487D02*
X0276208Y0048487D01*
X0276208Y0050086D02*
X0152363Y0050086D01*
X0152363Y0051684D02*
X0276208Y0051684D01*
X0276208Y0053283D02*
X0152363Y0053283D01*
X0151671Y0054881D02*
X0276208Y0054881D01*
X0276208Y0056480D02*
X0152471Y0056480D01*
X0148071Y0055002D02*
X0147667Y0055406D01*
X0147271Y0056362D01*
X0147271Y0057396D01*
X0147534Y0058031D01*
X0143349Y0058031D01*
X0143613Y0057396D01*
X0143613Y0056824D01*
X0145638Y0054798D01*
X0147016Y0054798D01*
X0147450Y0054365D01*
X0147883Y0054798D01*
X0148071Y0054798D01*
X0148071Y0055002D01*
X0148071Y0054881D02*
X0145555Y0054881D01*
X0143957Y0056480D02*
X0147271Y0056480D01*
X0139416Y0054798D02*
X0138808Y0055406D01*
X0138413Y0056362D01*
X0138413Y0056654D01*
X0136557Y0054798D01*
X0137567Y0054798D01*
X0138099Y0054266D01*
X0138632Y0054798D01*
X0139416Y0054798D01*
X0139333Y0054881D02*
X0136640Y0054881D01*
X0138238Y0056480D02*
X0138413Y0056480D01*
X0138099Y0044531D02*
X0137567Y0043998D01*
X0136230Y0043998D01*
X0136570Y0043659D01*
X0137143Y0042274D01*
X0137143Y0040775D01*
X0136592Y0039444D01*
X0137567Y0039444D01*
X0138198Y0038813D01*
X0138632Y0039247D01*
X0142291Y0039247D01*
X0142824Y0038715D01*
X0143356Y0039247D01*
X0144496Y0039247D01*
X0144353Y0039390D01*
X0143780Y0040775D01*
X0143780Y0042274D01*
X0144353Y0043659D01*
X0144693Y0043998D01*
X0143356Y0043998D01*
X0142824Y0044531D01*
X0142291Y0043998D01*
X0138632Y0043998D01*
X0138099Y0044531D01*
X0136537Y0043692D02*
X0144386Y0043692D01*
X0143780Y0042093D02*
X0137143Y0042093D01*
X0137027Y0040495D02*
X0143895Y0040495D01*
X0143005Y0038896D02*
X0142642Y0038896D01*
X0138281Y0038896D02*
X0138115Y0038896D01*
X0027677Y0019714D02*
X0254348Y0019714D01*
X0256524Y0021313D02*
X0025501Y0021313D01*
X0251703Y0093246D02*
X0276208Y0093246D01*
X0276208Y0094844D02*
X0252054Y0094844D01*
X0251888Y0096443D02*
X0276208Y0096443D01*
X0276208Y0098041D02*
X0251110Y0098041D01*
X0135276Y0225149D02*
X0135276Y0225695D01*
X0134291Y0225695D01*
X0134182Y0225804D01*
X0134073Y0225695D01*
X0131743Y0225695D01*
X0131743Y0225149D01*
X0134073Y0225149D01*
X0134477Y0224744D01*
X0134882Y0225149D01*
X0135276Y0225149D01*
X0131592Y0230718D02*
X0029189Y0230718D01*
X0029230Y0232316D02*
X0143629Y0232316D01*
X0149622Y0238710D02*
X0131537Y0238710D01*
X0131743Y0240309D02*
X0149416Y0240309D01*
X0154578Y0240309D02*
X0270905Y0240309D01*
X0273200Y0238710D02*
X0154371Y0238710D01*
X0157653Y0235513D02*
X0028327Y0235513D01*
X0028989Y0233915D02*
X0156054Y0233915D01*
X0126788Y0238710D02*
X0009731Y0238710D01*
X0008132Y0237112D02*
X0018990Y0237112D01*
X0017477Y0235513D02*
X0007179Y0235513D01*
X0006464Y0233915D02*
X0016815Y0233915D01*
X0016575Y0232316D02*
X0006035Y0232316D01*
X0005836Y0230718D02*
X0016616Y0230718D01*
X0017278Y0229119D02*
X0005817Y0229119D01*
X0005817Y0227521D02*
X0018509Y0227521D01*
X0026815Y0237112D02*
X0255211Y0237112D01*
X0263035Y0237112D02*
X0274579Y0237112D01*
X0275499Y0235513D02*
X0264548Y0235513D01*
X0265210Y0233915D02*
X0275927Y0233915D01*
X0276184Y0232316D02*
X0265450Y0232316D01*
X0265409Y0230718D02*
X0276208Y0230718D01*
X0276208Y0229119D02*
X0264747Y0229119D01*
X0263516Y0227521D02*
X0276208Y0227521D01*
X0279956Y0238358D02*
X0279989Y0248611D01*
X0087539Y0246487D01*
X0268782Y0246487D01*
X0272480Y0245496D01*
X0275796Y0243582D01*
X0278503Y0240875D01*
X0278503Y0240875D01*
X0279956Y0238358D01*
X0279957Y0238710D02*
X0279752Y0238710D01*
X0279962Y0240309D02*
X0278829Y0240309D01*
X0279967Y0241907D02*
X0277470Y0241907D01*
X0275872Y0243506D02*
X0279973Y0243506D01*
X0279978Y0245104D02*
X0273158Y0245104D01*
X0272480Y0245496D02*
X0272480Y0245496D01*
X0275796Y0243582D02*
X0275796Y0243582D01*
X0279983Y0246703D02*
X0107129Y0246703D01*
X0126581Y0240309D02*
X0012255Y0240309D01*
X0009976Y0245104D02*
X0001800Y0245104D01*
X0001800Y0245540D02*
X0011422Y0245646D01*
X0010475Y0245393D01*
X0010475Y0245393D01*
X0006814Y0243279D01*
X0006814Y0243279D01*
X0003825Y0240290D01*
X0003825Y0240290D01*
X0001800Y0236782D01*
X0001800Y0245540D01*
X0001800Y0243506D02*
X0007207Y0243506D01*
X0005443Y0241907D02*
X0001800Y0241907D01*
X0001800Y0240309D02*
X0003844Y0240309D01*
X0002913Y0238710D02*
X0001800Y0238710D01*
X0001800Y0237112D02*
X0001990Y0237112D01*
X0251937Y0248301D02*
X0279988Y0248301D01*
M02*
