%
M48
M72
T01C0.01200
T02C0.03500
T03C0.04000
T04C0.09055
T05C0.09350
%
T01
X127981Y36209
X127981Y41131
X133887Y37194
X144713Y29320
X155540Y34241
X136839Y192706
X131918Y197627
X128965Y199595
X134871Y205501
X126997Y213375
X95501Y225186
T02
X157115Y38477
X157115Y30477
X137115Y34477
T03
X34635Y95068
X34635Y145461
T04
X22666Y15540
X258887Y15540
X258887Y232076
X22666Y232076
T05
X137115Y44477
X149615Y44477
X149615Y24477
X137115Y24477
M30
