G75*
%MOIN*%
%OFA0B0*%
%FSLAX25Y25*%
%IPPOS*%
%LPD*%
%AMOC8*
5,1,8,0,0,1.08239X$1,22.5*
%
%ADD10R,0.03156X0.05912*%
%ADD11R,0.03550X0.03550*%
%ADD12R,0.04731X0.04337*%
%ADD13R,0.02762X0.01581*%
%ADD14R,0.01581X0.02762*%
%ADD15R,0.01581X0.01581*%
%ADD16R,0.02900X0.08400*%
%ADD17C,0.04337*%
%ADD18R,0.03943X0.04140*%
D10*
X0109727Y0127600D03*
X0116420Y0127600D03*
D11*
X0106026Y0102600D03*
X0100121Y0102600D03*
X0081026Y0087600D03*
X0075121Y0087600D03*
X0066026Y0087600D03*
X0060121Y0087600D03*
D12*
X0094727Y0087600D03*
X0101420Y0087600D03*
X0109727Y0087600D03*
X0116420Y0087600D03*
D13*
X0099491Y0124702D03*
X0099491Y0127261D03*
X0099491Y0129820D03*
X0099491Y0132380D03*
X0099491Y0134939D03*
X0099491Y0137498D03*
X0092010Y0132380D03*
X0092010Y0129820D03*
X0088073Y0129820D03*
X0088073Y0132380D03*
X0084136Y0132380D03*
X0084136Y0129820D03*
X0076656Y0129820D03*
X0076656Y0127261D03*
X0076656Y0124702D03*
X0076656Y0132380D03*
X0076656Y0134939D03*
X0076656Y0137498D03*
X0076656Y0149309D03*
X0099491Y0149309D03*
D14*
X0095751Y0137498D03*
X0093192Y0137498D03*
X0090633Y0137498D03*
X0088073Y0137498D03*
X0085514Y0137498D03*
X0082955Y0137498D03*
X0080396Y0137498D03*
X0080396Y0124702D03*
X0082955Y0124702D03*
X0085514Y0124702D03*
X0088073Y0124702D03*
X0090633Y0124702D03*
X0093192Y0124702D03*
X0095751Y0124702D03*
D15*
X0095751Y0129820D03*
X0095751Y0132380D03*
X0080396Y0132380D03*
D16*
X0078822Y0050474D03*
X0083349Y0050474D03*
X0088073Y0050474D03*
X0092798Y0050474D03*
X0097522Y0050474D03*
X0097522Y0035120D03*
X0092798Y0035120D03*
X0088073Y0034923D03*
X0083349Y0034923D03*
X0078625Y0034923D03*
D17*
X0080987Y0042600D03*
X0095160Y0042600D03*
D18*
X0039136Y0046301D03*
X0039136Y0052600D03*
X0055278Y0052600D03*
X0055278Y0046301D03*
M02*
