G75*
%MOIN*%
%OFA0B0*%
%FSLAX25Y25*%
%IPPOS*%
%LPD*%
%AMOC8*
5,1,8,0,0,1.08239X$1,22.5*
%
%ADD10C,0.00400*%
%ADD11C,0.00500*%
%ADD12C,0.00200*%
%ADD13C,0.00300*%
%ADD14C,0.00000*%
%ADD15R,0.00770X0.00035*%
%ADD16R,0.01400X0.00035*%
%ADD17R,0.01855X0.00035*%
%ADD18R,0.02170X0.00035*%
%ADD19R,0.02485X0.00035*%
%ADD20R,0.02765X0.00035*%
%ADD21R,0.02975X0.00035*%
%ADD22R,0.03220X0.00035*%
%ADD23R,0.03395X0.00035*%
%ADD24R,0.03605X0.00035*%
%ADD25R,0.03780X0.00035*%
%ADD26R,0.03955X0.00035*%
%ADD27R,0.04130X0.00035*%
%ADD28R,0.04270X0.00035*%
%ADD29R,0.04375X0.00035*%
%ADD30R,0.04550X0.00035*%
%ADD31R,0.04690X0.00035*%
%ADD32R,0.04865X0.00035*%
%ADD33R,0.04970X0.00035*%
%ADD34R,0.05110X0.00035*%
%ADD35R,0.05215X0.00035*%
%ADD36R,0.05355X0.00035*%
%ADD37R,0.05460X0.00035*%
%ADD38R,0.05600X0.00035*%
%ADD39R,0.05705X0.00035*%
%ADD40R,0.05810X0.00035*%
%ADD41R,0.05915X0.00035*%
%ADD42R,0.06055X0.00035*%
%ADD43R,0.06160X0.00035*%
%ADD44R,0.06265X0.00035*%
%ADD45R,0.06335X0.00035*%
%ADD46R,0.06440X0.00035*%
%ADD47R,0.06545X0.00035*%
%ADD48R,0.03080X0.00035*%
%ADD49R,0.02660X0.00035*%
%ADD50R,0.02870X0.00035*%
%ADD51R,0.02415X0.00035*%
%ADD52R,0.02730X0.00035*%
%ADD53R,0.02310X0.00035*%
%ADD54R,0.02695X0.00035*%
%ADD55R,0.02170X0.00035*%
%ADD56R,0.02590X0.00035*%
%ADD57R,0.02100X0.00035*%
%ADD58R,0.02520X0.00035*%
%ADD59R,0.02030X0.00035*%
%ADD60R,0.02450X0.00035*%
%ADD61R,0.01960X0.00035*%
%ADD62R,0.01890X0.00035*%
%ADD63R,0.02380X0.00035*%
%ADD64R,0.01785X0.00035*%
%ADD65R,0.01750X0.00035*%
%ADD66R,0.01715X0.00035*%
%ADD67R,0.02275X0.00035*%
%ADD68R,0.01645X0.00035*%
%ADD69R,0.02240X0.00035*%
%ADD70R,0.01610X0.00035*%
%ADD71R,0.02240X0.00035*%
%ADD72R,0.01575X0.00035*%
%ADD73R,0.01540X0.00035*%
%ADD74R,0.02205X0.00035*%
%ADD75R,0.01505X0.00035*%
%ADD76R,0.01470X0.00035*%
%ADD77R,0.01435X0.00035*%
%ADD78R,0.01365X0.00035*%
%ADD79R,0.01330X0.00035*%
%ADD80R,0.01295X0.00035*%
%ADD81R,0.01295X0.00035*%
%ADD82R,0.01260X0.00035*%
%ADD83R,0.01190X0.00035*%
%ADD84R,0.01225X0.00035*%
%ADD85R,0.00385X0.00035*%
%ADD86R,0.00980X0.00035*%
%ADD87R,0.01155X0.00035*%
%ADD88R,0.01645X0.00035*%
%ADD89R,0.01015X0.00035*%
%ADD90R,0.01050X0.00035*%
%ADD91R,0.02345X0.00035*%
%ADD92R,0.01085X0.00035*%
%ADD93R,0.02905X0.00035*%
%ADD94R,0.03045X0.00035*%
%ADD95R,0.01120X0.00035*%
%ADD96R,0.02345X0.00035*%
%ADD97R,0.03255X0.00035*%
%ADD98R,0.01120X0.00035*%
%ADD99R,0.03500X0.00035*%
%ADD100R,0.02415X0.00035*%
%ADD101R,0.03640X0.00035*%
%ADD102R,0.04900X0.00035*%
%ADD103R,0.04935X0.00035*%
%ADD104R,0.05005X0.00035*%
%ADD105R,0.01680X0.00035*%
%ADD106R,0.02065X0.00035*%
%ADD107R,0.02555X0.00035*%
%ADD108R,0.02590X0.00035*%
%ADD109R,0.02625X0.00035*%
%ADD110R,0.02695X0.00035*%
%ADD111R,0.01470X0.00035*%
%ADD112R,0.02765X0.00035*%
%ADD113R,0.02800X0.00035*%
%ADD114R,0.02835X0.00035*%
%ADD115R,0.01365X0.00035*%
%ADD116R,0.02940X0.00035*%
%ADD117R,0.03010X0.00035*%
%ADD118R,0.03045X0.00035*%
%ADD119R,0.03115X0.00035*%
%ADD120R,0.03150X0.00035*%
%ADD121R,0.03185X0.00035*%
%ADD122R,0.03220X0.00035*%
%ADD123R,0.01190X0.00035*%
%ADD124R,0.03290X0.00035*%
%ADD125R,0.03325X0.00035*%
%ADD126R,0.03360X0.00035*%
%ADD127R,0.03430X0.00035*%
%ADD128R,0.03465X0.00035*%
%ADD129R,0.03535X0.00035*%
%ADD130R,0.03570X0.00035*%
%ADD131R,0.03675X0.00035*%
%ADD132R,0.03710X0.00035*%
%ADD133R,0.03745X0.00035*%
%ADD134R,0.03815X0.00035*%
%ADD135R,0.03850X0.00035*%
%ADD136R,0.03885X0.00035*%
%ADD137R,0.03920X0.00035*%
%ADD138R,0.03990X0.00035*%
%ADD139R,0.04025X0.00035*%
%ADD140R,0.02870X0.00035*%
%ADD141R,0.04095X0.00035*%
%ADD142R,0.04165X0.00035*%
%ADD143R,0.04200X0.00035*%
%ADD144R,0.04235X0.00035*%
%ADD145R,0.04270X0.00035*%
%ADD146R,0.01820X0.00035*%
%ADD147R,0.04305X0.00035*%
%ADD148R,0.04340X0.00035*%
%ADD149R,0.01925X0.00035*%
%ADD150R,0.04410X0.00035*%
%ADD151R,0.00945X0.00035*%
%ADD152R,0.00875X0.00035*%
%ADD153R,0.00840X0.00035*%
%ADD154R,0.02135X0.00035*%
%ADD155R,0.00805X0.00035*%
%ADD156R,0.00735X0.00035*%
%ADD157R,0.01995X0.00035*%
%ADD158R,0.02520X0.00035*%
%ADD159R,0.01540X0.00035*%
%ADD160R,0.00770X0.00035*%
%ADD161R,0.00665X0.00035*%
%ADD162R,0.00420X0.00035*%
%ADD163R,0.00910X0.00035*%
%ADD164R,0.04060X0.00035*%
%ADD165R,0.01015X0.00035*%
%ADD166R,0.03115X0.00035*%
%ADD167R,0.03395X0.00035*%
%ADD168R,0.03745X0.00035*%
%ADD169R,0.04340X0.00035*%
%ADD170R,0.04480X0.00035*%
%ADD171R,0.02065X0.00035*%
%ADD172R,0.04515X0.00035*%
%ADD173R,0.04585X0.00035*%
%ADD174R,0.04760X0.00035*%
%ADD175R,0.04830X0.00035*%
%ADD176R,0.07805X0.00035*%
%ADD177R,0.07840X0.00035*%
%ADD178R,0.07875X0.00035*%
%ADD179R,0.07910X0.00035*%
%ADD180R,0.07945X0.00035*%
%ADD181R,0.07980X0.00035*%
%ADD182R,0.08015X0.00035*%
%ADD183R,0.08050X0.00035*%
%ADD184R,0.05635X0.00035*%
%ADD185R,0.01995X0.00035*%
%ADD186R,0.01890X0.00035*%
%ADD187R,0.01715X0.00035*%
%ADD188R,0.00945X0.00035*%
%ADD189R,0.00560X0.00035*%
%ADD190R,0.01820X0.00035*%
%ADD191R,0.00700X0.00035*%
%ADD192R,0.00630X0.00035*%
%ADD193R,0.00525X0.00035*%
%ADD194R,0.00175X0.00035*%
%ADD195R,0.00595X0.00035*%
%ADD196R,0.00490X0.00035*%
%ADD197R,0.00210X0.00035*%
%ADD198R,0.00490X0.00035*%
%ADD199R,0.00315X0.00035*%
%ADD200R,0.00520X0.00040*%
%ADD201R,0.00520X0.00040*%
%ADD202R,0.00760X0.00040*%
%ADD203R,0.00640X0.00040*%
%ADD204R,0.00440X0.00040*%
%ADD205R,0.00480X0.00040*%
%ADD206R,0.00520X0.00040*%
%ADD207R,0.00520X0.00040*%
%ADD208R,0.01400X0.00040*%
%ADD209R,0.00800X0.00040*%
%ADD210R,0.00480X0.00040*%
%ADD211R,0.00960X0.00040*%
%ADD212R,0.01440X0.00040*%
%ADD213R,0.01080X0.00040*%
%ADD214R,0.01520X0.00040*%
%ADD215R,0.01440X0.00040*%
%ADD216R,0.00560X0.00040*%
%ADD217R,0.01480X0.00040*%
%ADD218R,0.01200X0.00040*%
%ADD219R,0.01560X0.00040*%
%ADD220R,0.01320X0.00040*%
%ADD221R,0.01560X0.00040*%
%ADD222R,0.01520X0.00040*%
%ADD223R,0.00600X0.00040*%
%ADD224R,0.00560X0.00040*%
%ADD225R,0.01400X0.00040*%
%ADD226R,0.01600X0.00040*%
%ADD227R,0.00600X0.00040*%
%ADD228R,0.00640X0.00040*%
%ADD229R,0.01640X0.00040*%
%ADD230R,0.00680X0.00040*%
%ADD231R,0.01680X0.00040*%
%ADD232R,0.01680X0.00040*%
%ADD233R,0.01640X0.00040*%
%ADD234R,0.00720X0.00040*%
%ADD235R,0.01480X0.00040*%
%ADD236R,0.00760X0.00040*%
%ADD237R,0.00720X0.00040*%
%ADD238R,0.00640X0.00040*%
%ADD239R,0.00360X0.00040*%
%ADD240R,0.00240X0.00040*%
%ADD241R,0.00160X0.00040*%
%ADD242R,0.00840X0.00040*%
%ADD243R,0.00080X0.00040*%
%ADD244R,0.00880X0.00040*%
%ADD245R,0.00920X0.00040*%
%ADD246R,0.00960X0.00040*%
%ADD247R,0.01640X0.00040*%
%ADD248R,0.01760X0.00040*%
%ADD249R,0.00440X0.00040*%
%ADD250R,0.01000X0.00040*%
%ADD251R,0.01760X0.00040*%
%ADD252R,0.00440X0.00040*%
%ADD253R,0.01320X0.00040*%
%ADD254R,0.01200X0.00040*%
%ADD255R,0.00920X0.00040*%
%ADD256R,0.00840X0.00040*%
%ADD257R,0.00800X0.00040*%
%ADD258R,0.00080X0.00040*%
%ADD259R,0.00120X0.00040*%
%ADD260R,0.00240X0.00040*%
%ADD261R,0.00720X0.00040*%
%ADD262R,0.00200X0.00040*%
%ADD263R,0.00400X0.00040*%
%ADD264R,0.01240X0.00040*%
%ADD265R,0.01640X0.00040*%
%ADD266R,0.01440X0.00040*%
%ADD267R,0.01280X0.00040*%
%ADD268R,0.01520X0.00040*%
%ADD269R,0.01280X0.00040*%
%ADD270R,0.01520X0.00040*%
%ADD271R,0.01360X0.00040*%
%ADD272R,0.01440X0.00040*%
%ADD273R,0.01240X0.00040*%
%ADD274R,0.01120X0.00040*%
%ADD275R,0.01240X0.00040*%
%ADD276R,0.01040X0.00040*%
%ADD277R,0.00840X0.00040*%
%ADD278R,0.00440X0.00040*%
%ADD279R,0.00400X0.00040*%
%ADD280R,0.00320X0.00040*%
%ADD281R,0.00920X0.00040*%
%ADD282R,0.01040X0.00040*%
%ADD283R,0.01000X0.00040*%
%ADD284R,0.01080X0.00040*%
%ADD285R,0.01160X0.00040*%
%ADD286R,0.01040X0.00040*%
%ADD287R,0.01160X0.00040*%
%ADD288R,0.01600X0.00040*%
%ADD289R,0.01720X0.00040*%
%ADD290R,0.01720X0.00040*%
%ADD291R,0.00640X0.00040*%
%ADD292R,0.00680X0.00040*%
%ADD293R,0.00360X0.00040*%
%ADD294R,0.00280X0.00040*%
%ADD295R,0.00120X0.00040*%
%ADD296R,0.00040X0.00040*%
%ADD297R,0.00040X0.00040*%
%ADD298R,0.01320X0.00040*%
%ADD299R,0.00280X0.00040*%
%ADD300R,0.00320X0.00040*%
%ADD301R,0.01320X0.00040*%
%ADD302R,0.01120X0.00040*%
%ADD303R,0.01120X0.00040*%
%ADD304R,0.01800X0.00040*%
%ADD305R,0.01920X0.00040*%
%ADD306R,0.01920X0.00040*%
%ADD307R,0.02000X0.00040*%
%ADD308R,0.02120X0.00040*%
%ADD309R,0.02200X0.00040*%
%ADD310R,0.02320X0.00040*%
%ADD311R,0.02400X0.00040*%
%ADD312R,0.02520X0.00040*%
%ADD313R,0.02600X0.00040*%
%ADD314R,0.00880X0.00040*%
%ADD315R,0.03680X0.00040*%
%ADD316R,0.03720X0.00040*%
%ADD317R,0.03800X0.00040*%
%ADD318R,0.03840X0.00040*%
%ADD319R,0.03840X0.00040*%
%ADD320R,0.03920X0.00040*%
%ADD321R,0.03960X0.00040*%
%ADD322R,0.04000X0.00040*%
%ADD323R,0.04080X0.00040*%
%ADD324R,0.04120X0.00040*%
%ADD325R,0.04160X0.00040*%
%ADD326R,0.04200X0.00040*%
%ADD327R,0.04200X0.00040*%
%ADD328R,0.04160X0.00040*%
%ADD329R,0.04120X0.00040*%
%ADD330R,0.04080X0.00040*%
%ADD331R,0.04040X0.00040*%
%ADD332R,0.04040X0.00040*%
%ADD333R,0.04040X0.00040*%
%ADD334R,0.04040X0.00040*%
%ADD335R,0.03960X0.00040*%
%ADD336R,0.03920X0.00040*%
%ADD337R,0.03920X0.00040*%
%ADD338R,0.03880X0.00040*%
%ADD339R,0.03920X0.00040*%
%ADD340R,0.03880X0.00040*%
%ADD341R,0.03800X0.00040*%
%ADD342R,0.04240X0.00040*%
%ADD343R,0.04240X0.00040*%
%ADD344R,0.04280X0.00040*%
%ADD345R,0.04360X0.00040*%
%ADD346R,0.04400X0.00040*%
%ADD347R,0.04440X0.00040*%
%ADD348R,0.04520X0.00040*%
%ADD349R,0.04520X0.00040*%
%ADD350R,0.04520X0.00040*%
%ADD351R,0.04520X0.00040*%
%ADD352R,0.04480X0.00040*%
%ADD353R,0.04440X0.00040*%
%ADD354R,0.04400X0.00040*%
%ADD355R,0.04360X0.00040*%
%ADD356R,0.04320X0.00040*%
%ADD357R,0.04240X0.00040*%
%ADD358R,0.04320X0.00040*%
%ADD359R,0.04320X0.00040*%
%ADD360R,0.04560X0.00040*%
%ADD361R,0.04720X0.00040*%
%ADD362R,0.04920X0.00040*%
%ADD363R,0.04920X0.00040*%
%ADD364R,0.05080X0.00040*%
%ADD365R,0.05240X0.00040*%
%ADD366R,0.05240X0.00040*%
%ADD367R,0.05480X0.00040*%
%ADD368R,0.05640X0.00040*%
%ADD369R,0.05640X0.00040*%
%ADD370R,0.05680X0.00040*%
%ADD371R,0.05640X0.00040*%
%ADD372R,0.05600X0.00040*%
%ADD373R,0.05600X0.00040*%
%ADD374R,0.05560X0.00040*%
%ADD375R,0.05520X0.00040*%
%ADD376R,0.05520X0.00040*%
%ADD377R,0.05480X0.00040*%
%ADD378R,0.05440X0.00040*%
%ADD379R,0.05440X0.00040*%
%ADD380R,0.05560X0.00040*%
%ADD381R,0.05680X0.00040*%
%ADD382R,0.05440X0.00040*%
%ADD383R,0.05280X0.00040*%
%ADD384R,0.04920X0.00040*%
%ADD385R,0.04600X0.00040*%
%ADD386R,0.04840X0.00040*%
%ADD387R,0.10440X0.00040*%
%ADD388R,0.10360X0.00040*%
%ADD389R,0.10360X0.00040*%
%ADD390R,0.10280X0.00040*%
%ADD391R,0.10200X0.00040*%
%ADD392R,0.10200X0.00040*%
%ADD393R,0.10120X0.00040*%
%ADD394R,0.10040X0.00040*%
%ADD395R,0.10040X0.00040*%
%ADD396R,0.09960X0.00040*%
%ADD397R,0.09880X0.00040*%
%ADD398R,0.09880X0.00040*%
%ADD399R,0.09800X0.00040*%
%ADD400R,0.09720X0.00040*%
%ADD401R,0.09720X0.00040*%
%ADD402R,0.10280X0.00040*%
%ADD403R,0.10520X0.00040*%
%ADD404R,0.10520X0.00040*%
%ADD405R,0.10600X0.00040*%
%ADD406R,0.10680X0.00040*%
%ADD407R,0.10760X0.00040*%
%ADD408R,0.10840X0.00040*%
%ADD409R,0.10920X0.00040*%
%ADD410R,0.11000X0.00040*%
%ADD411R,0.11080X0.00040*%
%ADD412R,0.11080X0.00040*%
%ADD413R,0.11160X0.00040*%
%ADD414R,0.11240X0.00040*%
%ADD415R,0.11320X0.00040*%
%ADD416R,0.11400X0.00040*%
%ADD417R,0.11400X0.00040*%
%ADD418R,0.11480X0.00040*%
%ADD419R,0.11560X0.00040*%
%ADD420R,0.11640X0.00040*%
%ADD421R,0.11640X0.00040*%
%ADD422R,0.11720X0.00040*%
%ADD423R,0.11800X0.00040*%
%ADD424R,0.11880X0.00040*%
%ADD425R,0.11880X0.00040*%
%ADD426R,0.11960X0.00040*%
%ADD427R,0.11720X0.00040*%
%ADD428R,0.11320X0.00040*%
%ADD429R,0.02760X0.00040*%
%ADD430R,0.05400X0.00040*%
%ADD431R,0.02640X0.00040*%
%ADD432R,0.05160X0.00040*%
%ADD433R,0.02560X0.00040*%
%ADD434R,0.05000X0.00040*%
%ADD435R,0.02440X0.00040*%
%ADD436R,0.04760X0.00040*%
%ADD437R,0.02440X0.00040*%
%ADD438R,0.02360X0.00040*%
%ADD439R,0.04600X0.00040*%
%ADD440R,0.02280X0.00040*%
%ADD441R,0.02240X0.00040*%
%ADD442R,0.02160X0.00040*%
%ADD443R,0.02080X0.00040*%
%ADD444R,0.01960X0.00040*%
%ADD445R,0.01880X0.00040*%
%ADD446R,0.03640X0.00040*%
%ADD447R,0.03400X0.00040*%
%ADD448R,0.03240X0.00040*%
%ADD449R,0.03000X0.00040*%
%ADD450R,0.02920X0.00040*%
%ADD451R,0.01360X0.00040*%
%ADD452R,0.02840X0.00040*%
%ADD453R,0.02840X0.00040*%
%ADD454R,0.02760X0.00040*%
%ADD455R,0.02680X0.00040*%
%ADD456R,0.02680X0.00040*%
%ADD457R,0.02600X0.00040*%
%ADD458R,0.02520X0.00040*%
%ADD459R,0.02520X0.00040*%
%ADD460R,0.02440X0.00040*%
%ADD461R,0.02360X0.00040*%
%ADD462R,0.02280X0.00040*%
%ADD463R,0.02200X0.00040*%
%ADD464R,0.02120X0.00040*%
D10*
X0007000Y0059206D02*
X0007000Y0063810D01*
X0009302Y0063810D01*
X0010069Y0063043D01*
X0010069Y0061508D01*
X0009302Y0060741D01*
X0007000Y0060741D01*
X0008535Y0060741D02*
X0010069Y0059206D01*
X0011604Y0059973D02*
X0011604Y0061508D01*
X0012371Y0062275D01*
X0013906Y0062275D01*
X0014673Y0061508D01*
X0014673Y0060741D01*
X0011604Y0060741D01*
X0011604Y0059973D02*
X0012371Y0059206D01*
X0013906Y0059206D01*
X0016208Y0062275D02*
X0017742Y0059206D01*
X0019277Y0062275D01*
X0020812Y0059973D02*
X0020812Y0059206D01*
X0021579Y0059206D01*
X0021579Y0059973D01*
X0020812Y0059973D01*
X0023114Y0059206D02*
X0023114Y0063810D01*
X0025416Y0063810D01*
X0026183Y0063043D01*
X0026183Y0062275D01*
X0025416Y0061508D01*
X0023114Y0061508D01*
X0025416Y0061508D02*
X0026183Y0060741D01*
X0026183Y0059973D01*
X0025416Y0059206D01*
X0023114Y0059206D01*
X0027718Y0059973D02*
X0027718Y0061508D01*
X0028485Y0062275D01*
X0030020Y0062275D01*
X0030787Y0061508D01*
X0030787Y0060741D01*
X0027718Y0060741D01*
X0027718Y0059973D02*
X0028485Y0059206D01*
X0030020Y0059206D01*
X0033089Y0059973D02*
X0033856Y0059206D01*
X0033089Y0059973D02*
X0033089Y0063043D01*
X0032322Y0062275D02*
X0033856Y0062275D01*
X0036158Y0062275D02*
X0037693Y0062275D01*
X0038460Y0061508D01*
X0038460Y0059206D01*
X0036158Y0059206D01*
X0035391Y0059973D01*
X0036158Y0060741D01*
X0038460Y0060741D01*
X0039227Y0066706D02*
X0036926Y0066706D01*
X0036926Y0071310D01*
X0039227Y0071310D01*
X0039995Y0070543D01*
X0039995Y0067473D01*
X0039227Y0066706D01*
X0035391Y0066706D02*
X0032322Y0066706D01*
X0032322Y0071310D01*
X0035391Y0071310D01*
X0033856Y0069008D02*
X0032322Y0069008D01*
X0030787Y0066706D02*
X0027718Y0066706D01*
X0027718Y0071310D01*
X0026183Y0069775D02*
X0025416Y0069775D01*
X0023881Y0068241D01*
X0023881Y0069775D02*
X0023881Y0066706D01*
X0022346Y0067473D02*
X0022346Y0069008D01*
X0021579Y0069775D01*
X0020044Y0069775D01*
X0019277Y0069008D01*
X0019277Y0067473D01*
X0020044Y0066706D01*
X0021579Y0066706D01*
X0022346Y0067473D01*
X0017742Y0066706D02*
X0016208Y0066706D01*
X0016975Y0066706D02*
X0016975Y0071310D01*
X0016208Y0071310D01*
X0014673Y0069008D02*
X0013906Y0069775D01*
X0012371Y0069775D01*
X0011604Y0069008D01*
X0011604Y0067473D01*
X0012371Y0066706D01*
X0013906Y0066706D01*
X0014673Y0067473D01*
X0014673Y0069008D01*
X0010069Y0070543D02*
X0009302Y0071310D01*
X0007767Y0071310D01*
X0007000Y0070543D01*
X0007000Y0067473D01*
X0007767Y0066706D01*
X0009302Y0066706D01*
X0010069Y0067473D01*
X0042000Y0094206D02*
X0045069Y0094206D01*
X0046604Y0094206D02*
X0049673Y0094206D01*
X0048139Y0096508D02*
X0046604Y0096508D01*
X0046604Y0098810D02*
X0046604Y0094206D01*
X0046604Y0098810D02*
X0049673Y0098810D01*
X0051208Y0098810D02*
X0051208Y0094206D01*
X0053510Y0094206D01*
X0054277Y0094973D01*
X0054277Y0098043D01*
X0053510Y0098810D01*
X0051208Y0098810D01*
X0055812Y0097275D02*
X0057346Y0098810D01*
X0057346Y0094206D01*
X0055812Y0094206D02*
X0058881Y0094206D01*
X0042000Y0094206D02*
X0042000Y0098810D01*
X0042000Y0124206D02*
X0045069Y0124206D01*
X0046604Y0124206D02*
X0049673Y0124206D01*
X0051208Y0124206D02*
X0053510Y0124206D01*
X0054277Y0124973D01*
X0054277Y0128043D01*
X0053510Y0128810D01*
X0051208Y0128810D01*
X0051208Y0124206D01*
X0048139Y0126508D02*
X0046604Y0126508D01*
X0046604Y0128810D02*
X0046604Y0124206D01*
X0046604Y0128810D02*
X0049673Y0128810D01*
X0055812Y0128043D02*
X0056579Y0128810D01*
X0058114Y0128810D01*
X0058881Y0128043D01*
X0058881Y0127275D01*
X0055812Y0124206D01*
X0058881Y0124206D01*
X0042000Y0124206D02*
X0042000Y0128810D01*
X0042000Y0159206D02*
X0045069Y0159206D01*
X0046604Y0159206D02*
X0049673Y0159206D01*
X0048139Y0161508D02*
X0046604Y0161508D01*
X0046604Y0163810D02*
X0046604Y0159206D01*
X0046604Y0163810D02*
X0049673Y0163810D01*
X0051208Y0163810D02*
X0051208Y0159206D01*
X0053510Y0159206D01*
X0054277Y0159973D01*
X0054277Y0163043D01*
X0053510Y0163810D01*
X0051208Y0163810D01*
X0055812Y0163043D02*
X0056579Y0163810D01*
X0058114Y0163810D01*
X0058881Y0163043D01*
X0058881Y0162275D01*
X0058114Y0161508D01*
X0058881Y0160741D01*
X0058881Y0159973D01*
X0058114Y0159206D01*
X0056579Y0159206D01*
X0055812Y0159973D01*
X0057346Y0161508D02*
X0058114Y0161508D01*
X0042000Y0163810D02*
X0042000Y0159206D01*
D11*
X0041957Y0153848D02*
X0041957Y0134163D01*
X0061643Y0134163D01*
X0061643Y0153848D01*
X0041957Y0153848D01*
X0036918Y0145974D02*
X0026682Y0145974D01*
X0026682Y0142037D01*
X0027076Y0142037D02*
X0036918Y0142037D01*
X0036918Y0145974D01*
X0041957Y0118848D02*
X0041957Y0099163D01*
X0061643Y0099163D01*
X0061643Y0118848D01*
X0041957Y0118848D01*
X0036918Y0110974D02*
X0026682Y0110974D01*
X0026682Y0107037D01*
X0027076Y0107037D02*
X0036918Y0107037D01*
X0036918Y0110974D01*
X0041957Y0088848D02*
X0041957Y0069163D01*
X0061643Y0069163D01*
X0061643Y0088848D01*
X0041957Y0088848D01*
X0036918Y0080974D02*
X0026682Y0080974D01*
X0026682Y0077037D01*
X0027076Y0077037D02*
X0036918Y0077037D01*
X0036918Y0080974D01*
X0036800Y0054006D02*
X0031800Y0054006D01*
X0031800Y0019006D01*
X0066800Y0054006D02*
X0071800Y0054006D01*
X0071800Y0019006D01*
D12*
X0032460Y0081862D02*
X0030992Y0081862D01*
X0031726Y0081862D02*
X0031726Y0084064D01*
X0030992Y0083330D01*
X0030250Y0083697D02*
X0029883Y0084064D01*
X0029149Y0084064D01*
X0028782Y0083697D01*
X0028782Y0082229D01*
X0029149Y0081862D01*
X0029883Y0081862D01*
X0030250Y0082229D01*
X0029883Y0111862D02*
X0030250Y0112229D01*
X0029883Y0111862D02*
X0029149Y0111862D01*
X0028782Y0112229D01*
X0028782Y0113697D01*
X0029149Y0114064D01*
X0029883Y0114064D01*
X0030250Y0113697D01*
X0030992Y0113697D02*
X0031359Y0114064D01*
X0032093Y0114064D01*
X0032460Y0113697D01*
X0032460Y0113330D01*
X0030992Y0111862D01*
X0032460Y0111862D01*
X0032093Y0146862D02*
X0031359Y0146862D01*
X0030992Y0147229D01*
X0030250Y0147229D02*
X0029883Y0146862D01*
X0029149Y0146862D01*
X0028782Y0147229D01*
X0028782Y0148697D01*
X0029149Y0149064D01*
X0029883Y0149064D01*
X0030250Y0148697D01*
X0030992Y0148697D02*
X0031359Y0149064D01*
X0032093Y0149064D01*
X0032460Y0148697D01*
X0032460Y0148330D01*
X0032093Y0147963D01*
X0032460Y0147596D01*
X0032460Y0147229D01*
X0032093Y0146862D01*
X0032093Y0147963D02*
X0031726Y0147963D01*
D13*
X0074584Y0102859D02*
X0074584Y0099156D01*
X0074584Y0101007D02*
X0075818Y0101007D01*
X0074584Y0102859D02*
X0077052Y0102859D01*
X0078884Y0101625D02*
X0080118Y0101625D01*
X0080736Y0101007D01*
X0080736Y0099156D01*
X0078884Y0099156D01*
X0078267Y0099773D01*
X0078884Y0100390D01*
X0080736Y0100390D01*
X0081950Y0101007D02*
X0083802Y0101007D01*
X0084419Y0100390D01*
X0084419Y0099773D01*
X0083802Y0099156D01*
X0081950Y0099156D01*
X0081950Y0102859D01*
X0083802Y0102859D01*
X0084419Y0102242D01*
X0084419Y0101625D01*
X0083802Y0101007D01*
X0085633Y0101007D02*
X0085633Y0099773D01*
X0086250Y0099156D01*
X0087485Y0099156D01*
X0088102Y0099773D01*
X0088102Y0101007D01*
X0087485Y0101625D01*
X0086250Y0101625D01*
X0085633Y0101007D01*
X0062766Y0069484D02*
X0063250Y0069000D01*
X0063250Y0067549D01*
X0060348Y0067549D01*
X0060348Y0069000D01*
X0060831Y0069484D01*
X0062766Y0069484D01*
X0063250Y0066537D02*
X0060348Y0066537D01*
X0060348Y0064602D02*
X0063250Y0066537D01*
X0063250Y0064602D02*
X0060348Y0064602D01*
X0060831Y0063591D02*
X0060348Y0063107D01*
X0060348Y0062140D01*
X0060831Y0061656D01*
X0062766Y0061656D01*
X0063250Y0062140D01*
X0063250Y0063107D01*
X0062766Y0063591D01*
X0061799Y0063591D01*
X0061799Y0062623D01*
X0053250Y0062623D02*
X0052283Y0063591D01*
X0050348Y0063591D01*
X0050831Y0064602D02*
X0050348Y0065086D01*
X0050348Y0066054D01*
X0050831Y0066537D01*
X0050831Y0067549D02*
X0050348Y0068033D01*
X0050348Y0069000D01*
X0050831Y0069484D01*
X0050831Y0067549D02*
X0052766Y0067549D01*
X0053250Y0068033D01*
X0053250Y0069000D01*
X0052766Y0069484D01*
X0052766Y0066537D02*
X0053250Y0066054D01*
X0053250Y0065086D01*
X0052766Y0064602D01*
X0050831Y0064602D01*
X0050348Y0061656D02*
X0052283Y0061656D01*
X0053250Y0062623D01*
X0043250Y0062623D02*
X0043250Y0061656D01*
X0043250Y0062140D02*
X0040348Y0062140D01*
X0040348Y0062623D02*
X0040348Y0061656D01*
X0043250Y0063620D02*
X0040348Y0065555D01*
X0040831Y0066567D02*
X0040348Y0067051D01*
X0040348Y0068018D01*
X0040831Y0068502D01*
X0042766Y0068502D01*
X0043250Y0068018D01*
X0043250Y0067051D01*
X0042766Y0066567D01*
X0040831Y0066567D01*
D14*
X0011800Y0024006D02*
X0091800Y0024006D01*
X0092042Y0024009D01*
X0092283Y0024018D01*
X0092524Y0024032D01*
X0092765Y0024053D01*
X0093005Y0024079D01*
X0093245Y0024111D01*
X0093484Y0024149D01*
X0093721Y0024192D01*
X0093958Y0024242D01*
X0094193Y0024297D01*
X0094427Y0024357D01*
X0094659Y0024424D01*
X0094890Y0024495D01*
X0095119Y0024573D01*
X0095346Y0024656D01*
X0095571Y0024744D01*
X0095794Y0024838D01*
X0096014Y0024937D01*
X0096232Y0025042D01*
X0096447Y0025151D01*
X0096660Y0025266D01*
X0096870Y0025386D01*
X0097076Y0025511D01*
X0097280Y0025641D01*
X0097481Y0025776D01*
X0097678Y0025916D01*
X0097872Y0026060D01*
X0098062Y0026209D01*
X0098248Y0026363D01*
X0098431Y0026521D01*
X0098610Y0026683D01*
X0098785Y0026850D01*
X0098956Y0027021D01*
X0099123Y0027196D01*
X0099285Y0027375D01*
X0099443Y0027558D01*
X0099597Y0027744D01*
X0099746Y0027934D01*
X0099890Y0028128D01*
X0100030Y0028325D01*
X0100165Y0028526D01*
X0100295Y0028730D01*
X0100420Y0028936D01*
X0100540Y0029146D01*
X0100655Y0029359D01*
X0100764Y0029574D01*
X0100869Y0029792D01*
X0100968Y0030012D01*
X0101062Y0030235D01*
X0101150Y0030460D01*
X0101233Y0030687D01*
X0101311Y0030916D01*
X0101382Y0031147D01*
X0101449Y0031379D01*
X0101509Y0031613D01*
X0101564Y0031848D01*
X0101614Y0032085D01*
X0101657Y0032322D01*
X0101695Y0032561D01*
X0101727Y0032801D01*
X0101753Y0033041D01*
X0101774Y0033282D01*
X0101788Y0033523D01*
X0101797Y0033764D01*
X0101800Y0034006D01*
X0101800Y0119006D01*
X0101785Y0120224D01*
X0101741Y0121440D01*
X0101667Y0122656D01*
X0101563Y0123869D01*
X0101430Y0125079D01*
X0101267Y0126286D01*
X0101075Y0127488D01*
X0100854Y0128686D01*
X0100604Y0129878D01*
X0100325Y0131063D01*
X0100017Y0132241D01*
X0099680Y0133411D01*
X0099315Y0134573D01*
X0098922Y0135725D01*
X0098501Y0136868D01*
X0098052Y0137999D01*
X0097576Y0139120D01*
X0097072Y0140229D01*
X0096542Y0141325D01*
X0095985Y0142408D01*
X0095402Y0143477D01*
X0094794Y0144531D01*
X0094159Y0145571D01*
X0093500Y0146594D01*
X0092816Y0147602D01*
X0092107Y0148592D01*
X0091375Y0149565D01*
X0090619Y0150519D01*
X0089840Y0151455D01*
X0089039Y0152372D01*
X0088215Y0153269D01*
X0087370Y0154145D01*
X0086504Y0155001D01*
X0085617Y0155836D01*
X0084710Y0156648D01*
X0083784Y0157438D01*
X0082838Y0158206D01*
X0081875Y0158950D01*
X0080893Y0159670D01*
X0079894Y0160367D01*
X0078879Y0161039D01*
X0077847Y0161686D01*
X0076800Y0162307D01*
X0075738Y0162903D01*
X0074662Y0163473D01*
X0073573Y0164017D01*
X0072470Y0164533D01*
X0071355Y0165023D01*
X0070229Y0165486D01*
X0069092Y0165921D01*
X0067944Y0166328D01*
X0066787Y0166707D01*
X0065621Y0167058D01*
X0064447Y0167380D01*
X0063265Y0167674D01*
X0062076Y0167939D01*
X0060882Y0168174D01*
X0059682Y0168381D01*
X0058477Y0168558D01*
X0057269Y0168706D01*
X0056057Y0168824D01*
X0054842Y0168913D01*
X0053626Y0168973D01*
X0052409Y0169002D01*
X0051191Y0169002D01*
X0049974Y0168973D01*
X0048758Y0168913D01*
X0047543Y0168824D01*
X0046331Y0168706D01*
X0045123Y0168558D01*
X0043918Y0168381D01*
X0042718Y0168174D01*
X0041524Y0167939D01*
X0040335Y0167674D01*
X0039153Y0167380D01*
X0037979Y0167058D01*
X0036813Y0166707D01*
X0035656Y0166328D01*
X0034508Y0165921D01*
X0033371Y0165486D01*
X0032245Y0165023D01*
X0031130Y0164533D01*
X0030027Y0164017D01*
X0028938Y0163473D01*
X0027862Y0162903D01*
X0026800Y0162307D01*
X0025753Y0161686D01*
X0024721Y0161039D01*
X0023706Y0160367D01*
X0022707Y0159670D01*
X0021725Y0158950D01*
X0020762Y0158206D01*
X0019816Y0157438D01*
X0018890Y0156648D01*
X0017983Y0155836D01*
X0017096Y0155001D01*
X0016230Y0154145D01*
X0015385Y0153269D01*
X0014561Y0152372D01*
X0013760Y0151455D01*
X0012981Y0150519D01*
X0012225Y0149565D01*
X0011493Y0148592D01*
X0010784Y0147602D01*
X0010100Y0146594D01*
X0009441Y0145571D01*
X0008806Y0144531D01*
X0008198Y0143477D01*
X0007615Y0142408D01*
X0007058Y0141325D01*
X0006528Y0140229D01*
X0006024Y0139120D01*
X0005548Y0137999D01*
X0005099Y0136868D01*
X0004678Y0135725D01*
X0004285Y0134573D01*
X0003920Y0133411D01*
X0003583Y0132241D01*
X0003275Y0131063D01*
X0002996Y0129878D01*
X0002746Y0128686D01*
X0002525Y0127488D01*
X0002333Y0126286D01*
X0002170Y0125079D01*
X0002037Y0123869D01*
X0001933Y0122656D01*
X0001859Y0121440D01*
X0001815Y0120224D01*
X0001800Y0119006D01*
X0001800Y0034006D01*
X0001803Y0033764D01*
X0001812Y0033523D01*
X0001826Y0033282D01*
X0001847Y0033041D01*
X0001873Y0032801D01*
X0001905Y0032561D01*
X0001943Y0032322D01*
X0001986Y0032085D01*
X0002036Y0031848D01*
X0002091Y0031613D01*
X0002151Y0031379D01*
X0002218Y0031147D01*
X0002289Y0030916D01*
X0002367Y0030687D01*
X0002450Y0030460D01*
X0002538Y0030235D01*
X0002632Y0030012D01*
X0002731Y0029792D01*
X0002836Y0029574D01*
X0002945Y0029359D01*
X0003060Y0029146D01*
X0003180Y0028936D01*
X0003305Y0028730D01*
X0003435Y0028526D01*
X0003570Y0028325D01*
X0003710Y0028128D01*
X0003854Y0027934D01*
X0004003Y0027744D01*
X0004157Y0027558D01*
X0004315Y0027375D01*
X0004477Y0027196D01*
X0004644Y0027021D01*
X0004815Y0026850D01*
X0004990Y0026683D01*
X0005169Y0026521D01*
X0005352Y0026363D01*
X0005538Y0026209D01*
X0005728Y0026060D01*
X0005922Y0025916D01*
X0006119Y0025776D01*
X0006320Y0025641D01*
X0006524Y0025511D01*
X0006730Y0025386D01*
X0006940Y0025266D01*
X0007153Y0025151D01*
X0007368Y0025042D01*
X0007586Y0024937D01*
X0007806Y0024838D01*
X0008029Y0024744D01*
X0008254Y0024656D01*
X0008481Y0024573D01*
X0008710Y0024495D01*
X0008941Y0024424D01*
X0009173Y0024357D01*
X0009407Y0024297D01*
X0009642Y0024242D01*
X0009879Y0024192D01*
X0010116Y0024149D01*
X0010355Y0024111D01*
X0010595Y0024079D01*
X0010835Y0024053D01*
X0011076Y0024032D01*
X0011317Y0024018D01*
X0011558Y0024009D01*
X0011800Y0024006D01*
D15*
X0078377Y0087631D03*
X0078413Y0087666D03*
X0078413Y0087701D03*
X0078448Y0087736D03*
X0078588Y0088051D03*
X0078623Y0088121D03*
X0078448Y0095086D03*
X0085973Y0095856D03*
X0082577Y0081506D03*
D16*
X0082577Y0081541D03*
X0084502Y0084936D03*
X0085588Y0083466D03*
X0085552Y0083431D03*
X0085517Y0083396D03*
X0086987Y0086161D03*
X0086987Y0086196D03*
X0086987Y0086231D03*
X0087023Y0086266D03*
X0087023Y0086301D03*
X0084117Y0088331D03*
X0080513Y0087981D03*
X0080477Y0087946D03*
X0080408Y0087841D03*
X0080373Y0087806D03*
X0080338Y0087736D03*
X0080302Y0087701D03*
X0080267Y0087631D03*
X0079077Y0089066D03*
X0080338Y0084971D03*
X0080373Y0084936D03*
X0075263Y0088156D03*
X0078552Y0094491D03*
X0082577Y0095821D03*
X0085902Y0095366D03*
D17*
X0085815Y0094771D03*
X0085815Y0094736D03*
X0082560Y0095261D03*
X0082560Y0095296D03*
X0079305Y0089416D03*
X0081335Y0088506D03*
X0081020Y0084481D03*
X0082560Y0081576D03*
X0084940Y0082941D03*
X0084275Y0084621D03*
X0087145Y0087141D03*
X0087145Y0087176D03*
X0078710Y0093546D03*
X0078710Y0093581D03*
X0078710Y0093616D03*
X0075315Y0087911D03*
D18*
X0079427Y0089591D03*
X0079077Y0091656D03*
X0078973Y0092076D03*
X0078973Y0092111D03*
X0081248Y0084446D03*
X0078798Y0083536D03*
X0082577Y0081611D03*
X0087162Y0087631D03*
X0085063Y0089766D03*
D19*
X0087145Y0088016D03*
X0088055Y0090326D03*
X0088055Y0090361D03*
X0088090Y0090396D03*
X0082385Y0093441D03*
X0082385Y0093476D03*
X0082385Y0093511D03*
X0082385Y0093546D03*
X0082385Y0093581D03*
X0079585Y0089731D03*
X0077800Y0084516D03*
X0077835Y0084481D03*
X0082210Y0084061D03*
X0082560Y0081646D03*
D20*
X0082560Y0081681D03*
X0083820Y0084446D03*
X0087110Y0088296D03*
X0082245Y0091901D03*
X0082245Y0091936D03*
X0082245Y0091971D03*
X0082245Y0092006D03*
X0082245Y0092041D03*
X0082245Y0092076D03*
X0077485Y0084901D03*
X0075665Y0087386D03*
D21*
X0079795Y0089906D03*
X0082210Y0091201D03*
X0082210Y0091236D03*
X0082210Y0091271D03*
X0082210Y0091306D03*
X0082560Y0081716D03*
D22*
X0082542Y0081751D03*
X0087057Y0088681D03*
D23*
X0082210Y0084236D03*
X0082525Y0081786D03*
X0076925Y0085741D03*
D24*
X0076785Y0085986D03*
X0082525Y0081821D03*
X0086970Y0088961D03*
D25*
X0086917Y0089101D03*
X0082507Y0081856D03*
X0076663Y0086266D03*
D26*
X0076575Y0086511D03*
X0076575Y0086546D03*
X0082525Y0081891D03*
X0086865Y0089206D03*
D27*
X0082542Y0088541D03*
X0082507Y0081926D03*
X0076523Y0086756D03*
X0076523Y0086791D03*
X0076523Y0086826D03*
D28*
X0082507Y0081961D03*
D29*
X0082490Y0081996D03*
X0086760Y0089451D03*
X0076470Y0087281D03*
D30*
X0082473Y0082031D03*
D31*
X0082472Y0082066D03*
X0086672Y0089591D03*
D32*
X0082455Y0082101D03*
D33*
X0082438Y0082136D03*
D34*
X0082438Y0082171D03*
D35*
X0082420Y0082206D03*
D36*
X0082420Y0082241D03*
D37*
X0082402Y0082276D03*
D38*
X0082402Y0082311D03*
X0083417Y0090711D03*
X0083417Y0090746D03*
X0083452Y0090851D03*
D39*
X0082385Y0082346D03*
D40*
X0082367Y0082381D03*
D41*
X0082350Y0082416D03*
D42*
X0082350Y0082451D03*
D43*
X0082332Y0082486D03*
D44*
X0082315Y0082521D03*
D45*
X0082315Y0082556D03*
D46*
X0082297Y0082591D03*
D47*
X0082280Y0082626D03*
D48*
X0080477Y0082661D03*
X0077152Y0085356D03*
X0082227Y0090991D03*
X0087057Y0088576D03*
D49*
X0087127Y0088191D03*
X0087792Y0089906D03*
X0087827Y0089941D03*
X0084782Y0089941D03*
X0082297Y0092496D03*
X0082297Y0092531D03*
X0082297Y0092566D03*
X0082297Y0092601D03*
X0082297Y0092636D03*
X0082297Y0092671D03*
X0077538Y0084831D03*
X0077572Y0084796D03*
X0075613Y0087421D03*
X0084257Y0082661D03*
D50*
X0080338Y0082696D03*
X0077363Y0085076D03*
X0077327Y0085111D03*
X0082227Y0091516D03*
X0082227Y0091551D03*
X0082227Y0091586D03*
X0082227Y0091621D03*
X0082227Y0091656D03*
D51*
X0082420Y0093791D03*
X0082420Y0093826D03*
X0082420Y0093861D03*
X0082420Y0093896D03*
X0082420Y0093931D03*
X0084905Y0089871D03*
X0085045Y0090886D03*
X0085080Y0090991D03*
X0085080Y0091026D03*
X0085115Y0091096D03*
X0085115Y0091131D03*
X0085185Y0091376D03*
X0088160Y0090571D03*
X0088195Y0090641D03*
X0084415Y0082696D03*
X0078010Y0084271D03*
X0077940Y0084341D03*
X0075490Y0087561D03*
D52*
X0079707Y0089836D03*
X0082263Y0092111D03*
X0082263Y0092146D03*
X0082263Y0092181D03*
X0082263Y0092216D03*
X0082263Y0092251D03*
X0087723Y0089801D03*
X0087127Y0088261D03*
X0080198Y0082731D03*
D53*
X0079567Y0083011D03*
X0079497Y0083046D03*
X0078202Y0084061D03*
X0075438Y0087631D03*
X0079497Y0089661D03*
X0079288Y0090956D03*
X0079288Y0090991D03*
X0079252Y0091026D03*
X0079252Y0091061D03*
X0082472Y0094246D03*
X0082472Y0094281D03*
X0082472Y0094316D03*
X0082472Y0094351D03*
X0085588Y0093336D03*
X0085588Y0093301D03*
X0085588Y0093266D03*
X0085588Y0093231D03*
X0085552Y0093161D03*
X0085552Y0093126D03*
X0085552Y0093091D03*
X0085552Y0093056D03*
X0085517Y0092951D03*
X0085517Y0092916D03*
X0085517Y0092881D03*
X0088352Y0091026D03*
X0088317Y0090956D03*
X0087162Y0087806D03*
X0084502Y0082731D03*
D54*
X0082210Y0084096D03*
X0080110Y0082766D03*
X0087740Y0089836D03*
X0087775Y0089871D03*
D55*
X0088457Y0091306D03*
X0088457Y0091341D03*
X0085692Y0093896D03*
X0085692Y0093931D03*
X0085692Y0093966D03*
X0085692Y0094001D03*
X0082507Y0094596D03*
X0082507Y0094631D03*
X0082507Y0094666D03*
X0082507Y0094701D03*
X0079007Y0091971D03*
X0079007Y0091936D03*
X0079007Y0091901D03*
X0079042Y0091831D03*
X0079042Y0091796D03*
X0084607Y0082766D03*
D56*
X0080022Y0082801D03*
X0077677Y0084656D03*
X0077642Y0084691D03*
X0075577Y0087456D03*
X0082332Y0092881D03*
X0082332Y0092916D03*
X0082332Y0092951D03*
X0082332Y0092986D03*
X0082332Y0093021D03*
X0087897Y0090046D03*
D57*
X0088492Y0091446D03*
X0087162Y0087526D03*
X0084677Y0082801D03*
X0078902Y0092391D03*
X0078902Y0092426D03*
X0078902Y0092461D03*
X0078902Y0092496D03*
X0078867Y0092531D03*
X0078867Y0092566D03*
X0078867Y0092601D03*
X0078867Y0092636D03*
X0082542Y0094841D03*
X0085727Y0094211D03*
X0085727Y0094176D03*
X0085727Y0094141D03*
X0075367Y0087771D03*
D58*
X0075542Y0087491D03*
X0077782Y0084551D03*
X0079917Y0082836D03*
X0082367Y0093266D03*
X0082367Y0093301D03*
X0082367Y0093336D03*
X0082367Y0093371D03*
X0082367Y0093406D03*
X0087967Y0090186D03*
D59*
X0088527Y0091551D03*
X0087162Y0087456D03*
X0087162Y0087421D03*
X0087162Y0087386D03*
X0084748Y0082836D03*
X0082613Y0088961D03*
X0078832Y0092811D03*
X0078832Y0092846D03*
X0078832Y0092881D03*
X0078798Y0092951D03*
X0078798Y0092986D03*
X0078798Y0093021D03*
X0082542Y0094946D03*
X0082542Y0094981D03*
X0082542Y0095016D03*
X0085763Y0094421D03*
X0085763Y0094386D03*
X0085763Y0094351D03*
X0075367Y0087806D03*
D60*
X0075508Y0087526D03*
X0077852Y0084446D03*
X0077888Y0084411D03*
X0077923Y0084376D03*
X0079777Y0082906D03*
X0079848Y0082871D03*
X0085063Y0090921D03*
X0085063Y0090956D03*
X0087162Y0087981D03*
X0087162Y0087946D03*
X0088108Y0090431D03*
X0088108Y0090466D03*
X0088142Y0090501D03*
X0088142Y0090536D03*
X0088177Y0090606D03*
X0082402Y0093616D03*
X0082402Y0093651D03*
X0082402Y0093686D03*
X0082402Y0093721D03*
X0082402Y0093756D03*
D61*
X0082542Y0095086D03*
X0085797Y0094631D03*
X0085797Y0094596D03*
X0085797Y0094561D03*
X0088562Y0091656D03*
X0087162Y0087351D03*
X0087162Y0087316D03*
X0084222Y0084586D03*
X0084817Y0082871D03*
X0082227Y0083991D03*
X0079357Y0089486D03*
X0078763Y0093161D03*
X0078763Y0093196D03*
X0078763Y0093231D03*
X0078763Y0093266D03*
X0075332Y0087876D03*
D62*
X0084888Y0082906D03*
X0087162Y0087211D03*
X0087162Y0087246D03*
D63*
X0087162Y0087876D03*
X0087162Y0087911D03*
X0088212Y0090676D03*
X0088212Y0090711D03*
X0088248Y0090746D03*
X0088248Y0090781D03*
X0088282Y0090851D03*
X0085238Y0091551D03*
X0085238Y0091586D03*
X0085238Y0091621D03*
X0085273Y0091691D03*
X0085273Y0091726D03*
X0085273Y0091761D03*
X0085307Y0091866D03*
X0085307Y0091901D03*
X0085342Y0092041D03*
X0085342Y0092076D03*
X0085377Y0092216D03*
X0085413Y0092391D03*
X0085202Y0091516D03*
X0085202Y0091481D03*
X0085202Y0091446D03*
X0085202Y0091411D03*
X0085167Y0091341D03*
X0085167Y0091306D03*
X0085167Y0091271D03*
X0085132Y0091201D03*
X0085132Y0091166D03*
X0085098Y0091061D03*
X0082613Y0088926D03*
X0079532Y0089696D03*
X0079357Y0090746D03*
X0079357Y0090781D03*
X0079323Y0090851D03*
X0082438Y0093966D03*
X0082438Y0094001D03*
X0082438Y0094036D03*
X0082438Y0094071D03*
X0084013Y0084481D03*
X0079707Y0082941D03*
X0079638Y0082976D03*
X0078063Y0084236D03*
D64*
X0080950Y0084516D03*
X0084310Y0084656D03*
X0085010Y0082976D03*
X0087145Y0087036D03*
X0087145Y0087071D03*
X0088615Y0091831D03*
X0085850Y0094876D03*
X0085850Y0094911D03*
X0078675Y0093791D03*
X0078675Y0093756D03*
X0078675Y0093721D03*
D65*
X0078658Y0093826D03*
X0078658Y0093861D03*
X0078658Y0093896D03*
X0079252Y0089346D03*
X0082577Y0095401D03*
X0082577Y0095436D03*
X0082577Y0095471D03*
X0085867Y0094946D03*
X0088633Y0091901D03*
X0088633Y0091866D03*
X0087127Y0087001D03*
X0087127Y0086966D03*
X0087127Y0086931D03*
X0085063Y0083011D03*
X0083767Y0088506D03*
X0075298Y0087981D03*
D66*
X0075280Y0088016D03*
X0078640Y0093931D03*
X0078640Y0093966D03*
X0078640Y0094001D03*
X0079235Y0089311D03*
X0081230Y0088471D03*
X0084345Y0084691D03*
X0085115Y0083046D03*
D67*
X0087180Y0087771D03*
X0088335Y0090991D03*
X0088370Y0091061D03*
X0088370Y0091096D03*
X0085570Y0093196D03*
X0085605Y0093371D03*
X0085605Y0093406D03*
X0085605Y0093441D03*
X0085605Y0093476D03*
X0085640Y0093616D03*
X0082490Y0094386D03*
X0082490Y0094421D03*
X0082490Y0094456D03*
X0079165Y0091341D03*
X0079200Y0091236D03*
X0079200Y0091201D03*
X0079235Y0091166D03*
X0079235Y0091131D03*
X0079235Y0091096D03*
X0078255Y0084026D03*
X0078290Y0083991D03*
X0078325Y0083956D03*
X0078360Y0083921D03*
X0078395Y0083886D03*
X0078430Y0083851D03*
X0079445Y0083081D03*
D68*
X0080775Y0084586D03*
X0081125Y0088436D03*
X0083890Y0088471D03*
X0085185Y0083116D03*
X0085150Y0083081D03*
X0087110Y0086756D03*
X0087110Y0086791D03*
X0087110Y0086826D03*
X0088650Y0091971D03*
X0085885Y0095086D03*
D69*
X0085657Y0093721D03*
X0085657Y0093686D03*
X0085657Y0093651D03*
X0085622Y0093581D03*
X0085622Y0093546D03*
X0085622Y0093511D03*
X0085027Y0089801D03*
X0088422Y0091236D03*
X0082507Y0094491D03*
X0079147Y0091411D03*
X0079147Y0091376D03*
X0079182Y0091306D03*
X0079182Y0091271D03*
X0078482Y0083816D03*
X0078517Y0083781D03*
X0078552Y0083746D03*
X0079217Y0083221D03*
X0079322Y0083151D03*
X0079392Y0083116D03*
X0082227Y0084026D03*
D70*
X0084397Y0084761D03*
X0085238Y0083151D03*
X0087092Y0086686D03*
X0087092Y0086721D03*
X0088667Y0092006D03*
X0085867Y0095121D03*
X0082577Y0095576D03*
X0082577Y0095611D03*
X0079182Y0089241D03*
X0081072Y0088401D03*
X0078588Y0094176D03*
X0078588Y0094211D03*
D71*
X0079113Y0091516D03*
X0079463Y0089626D03*
X0078588Y0083711D03*
X0079288Y0083186D03*
X0075438Y0087666D03*
X0087162Y0087701D03*
X0087162Y0087736D03*
X0088387Y0091131D03*
X0088387Y0091166D03*
D72*
X0088685Y0092041D03*
X0085885Y0095156D03*
X0085885Y0095191D03*
X0082595Y0095646D03*
X0079165Y0089206D03*
X0080985Y0088366D03*
X0080705Y0084621D03*
X0084415Y0084796D03*
X0085290Y0083186D03*
X0087075Y0086581D03*
X0087075Y0086616D03*
X0087075Y0086651D03*
X0083960Y0088436D03*
D73*
X0080932Y0088331D03*
X0079147Y0089171D03*
X0080652Y0084656D03*
X0085342Y0083221D03*
X0087057Y0086511D03*
X0087057Y0086546D03*
X0085902Y0095226D03*
X0082577Y0095681D03*
D74*
X0082490Y0094561D03*
X0082490Y0094526D03*
X0085675Y0093861D03*
X0085675Y0093826D03*
X0085675Y0093791D03*
X0085675Y0093756D03*
X0088440Y0091271D03*
X0088405Y0091201D03*
X0087180Y0087666D03*
X0084100Y0084516D03*
X0079165Y0083256D03*
X0079130Y0083291D03*
X0079060Y0083326D03*
X0079025Y0083361D03*
X0078990Y0083396D03*
X0078920Y0083431D03*
X0078885Y0083466D03*
X0078850Y0083501D03*
X0078745Y0083571D03*
X0078710Y0083606D03*
X0078675Y0083641D03*
X0078640Y0083676D03*
X0075420Y0087701D03*
X0079130Y0091446D03*
X0079130Y0091481D03*
X0079095Y0091551D03*
X0079095Y0091586D03*
X0079095Y0091621D03*
X0079060Y0091691D03*
X0079060Y0091726D03*
X0079060Y0091761D03*
X0079025Y0091866D03*
D75*
X0079130Y0089136D03*
X0080775Y0088226D03*
X0080845Y0088261D03*
X0080880Y0088296D03*
X0080565Y0084726D03*
X0080600Y0084691D03*
X0084450Y0084831D03*
X0085360Y0083256D03*
X0084030Y0088401D03*
X0088685Y0092076D03*
X0085885Y0095261D03*
X0082595Y0095716D03*
X0078570Y0094386D03*
X0078570Y0094351D03*
X0078570Y0094316D03*
D76*
X0078552Y0094421D03*
X0082577Y0095751D03*
X0085902Y0095296D03*
X0080723Y0088191D03*
X0080688Y0088156D03*
X0080652Y0088121D03*
X0075263Y0088121D03*
X0085413Y0083291D03*
X0085448Y0083326D03*
D77*
X0085500Y0083361D03*
X0084485Y0084901D03*
X0084100Y0088366D03*
X0087040Y0086371D03*
X0087040Y0086336D03*
X0088720Y0092111D03*
X0085920Y0095331D03*
X0082595Y0095786D03*
X0078535Y0094456D03*
X0079095Y0089101D03*
X0080425Y0087876D03*
X0080460Y0087911D03*
X0080565Y0088016D03*
X0080390Y0084901D03*
X0080425Y0084866D03*
X0080460Y0084831D03*
X0080495Y0084796D03*
X0080530Y0084761D03*
D78*
X0080320Y0085006D03*
X0080285Y0085041D03*
X0080215Y0085146D03*
X0080180Y0085216D03*
X0080005Y0086966D03*
X0080040Y0087106D03*
X0080110Y0087281D03*
X0080110Y0087316D03*
X0080110Y0087351D03*
X0080145Y0087386D03*
X0080145Y0087421D03*
X0080180Y0087456D03*
X0080180Y0087491D03*
X0080215Y0087526D03*
X0080215Y0087561D03*
X0080285Y0087666D03*
X0080355Y0087771D03*
X0079060Y0089031D03*
X0078535Y0094526D03*
X0078535Y0094561D03*
X0084170Y0088296D03*
X0084520Y0085006D03*
X0084520Y0084971D03*
X0085640Y0083501D03*
X0086970Y0086091D03*
X0086970Y0086126D03*
X0088720Y0092146D03*
X0085920Y0095401D03*
D79*
X0082577Y0095856D03*
X0078517Y0094631D03*
X0078517Y0094596D03*
X0079042Y0088996D03*
X0080057Y0087176D03*
X0080057Y0087141D03*
X0080023Y0087071D03*
X0080023Y0087036D03*
X0080023Y0087001D03*
X0079988Y0086931D03*
X0079988Y0086896D03*
X0079988Y0086861D03*
X0079988Y0086826D03*
X0079952Y0086756D03*
X0079952Y0086721D03*
X0079952Y0086686D03*
X0079952Y0086651D03*
X0079952Y0086616D03*
X0079952Y0086581D03*
X0079952Y0086546D03*
X0079952Y0086511D03*
X0079952Y0086091D03*
X0079952Y0086056D03*
X0079952Y0086021D03*
X0079988Y0085811D03*
X0079988Y0085776D03*
X0080023Y0085636D03*
X0080023Y0085601D03*
X0080057Y0085531D03*
X0080057Y0085496D03*
X0080092Y0085426D03*
X0080092Y0085391D03*
X0080127Y0085356D03*
X0080127Y0085321D03*
X0080163Y0085286D03*
X0080163Y0085251D03*
X0080198Y0085181D03*
X0084538Y0085041D03*
X0085727Y0083606D03*
X0085692Y0083571D03*
X0085657Y0083536D03*
X0086952Y0086021D03*
X0086952Y0086056D03*
X0084292Y0088191D03*
X0084257Y0088226D03*
X0084223Y0088261D03*
X0088737Y0092181D03*
X0075263Y0088191D03*
D80*
X0079970Y0086791D03*
X0079970Y0085986D03*
X0079970Y0085951D03*
X0079970Y0085916D03*
X0079970Y0085881D03*
X0079970Y0085846D03*
X0080005Y0085741D03*
X0080005Y0085706D03*
X0080005Y0085671D03*
X0084555Y0085111D03*
X0084555Y0085076D03*
X0085780Y0083676D03*
X0085745Y0083641D03*
X0084345Y0088121D03*
X0085920Y0095436D03*
X0085920Y0095471D03*
X0082595Y0095891D03*
D81*
X0079025Y0088961D03*
X0078990Y0088926D03*
X0079935Y0086476D03*
X0079935Y0086441D03*
X0079935Y0086406D03*
X0079935Y0086371D03*
X0079935Y0086336D03*
X0079935Y0086301D03*
X0079935Y0086266D03*
X0079935Y0086231D03*
X0079935Y0086196D03*
X0079935Y0086161D03*
X0079935Y0086126D03*
X0080040Y0085566D03*
X0080075Y0085461D03*
X0084310Y0088156D03*
X0086935Y0085986D03*
X0086935Y0085951D03*
X0086935Y0085916D03*
X0085815Y0083711D03*
D82*
X0085832Y0083746D03*
X0085867Y0083781D03*
X0084572Y0085146D03*
X0084572Y0085181D03*
X0086882Y0085776D03*
X0086882Y0085811D03*
X0086917Y0085846D03*
X0086917Y0085881D03*
X0084397Y0088051D03*
X0084363Y0088086D03*
X0088737Y0092216D03*
X0085938Y0095506D03*
X0082577Y0095926D03*
X0078517Y0094666D03*
X0078972Y0088891D03*
D83*
X0082577Y0095961D03*
X0084502Y0087841D03*
X0084572Y0087631D03*
X0084572Y0087596D03*
X0084572Y0087561D03*
X0084572Y0087526D03*
X0084572Y0087491D03*
X0084572Y0087456D03*
X0084607Y0085531D03*
X0084607Y0085496D03*
X0084607Y0085461D03*
X0084607Y0085426D03*
X0084607Y0085391D03*
X0084607Y0085356D03*
X0084607Y0085321D03*
X0085972Y0083921D03*
X0086007Y0083956D03*
X0086042Y0083991D03*
X0085902Y0083816D03*
X0086777Y0085461D03*
X0086847Y0085636D03*
X0086847Y0085671D03*
D84*
X0086865Y0085706D03*
X0086865Y0085741D03*
X0086830Y0085601D03*
X0085955Y0083886D03*
X0085920Y0083851D03*
X0084590Y0085216D03*
X0084590Y0085251D03*
X0084590Y0085286D03*
X0084590Y0087421D03*
X0084555Y0087666D03*
X0084520Y0087806D03*
X0084485Y0087876D03*
X0084485Y0087911D03*
X0084450Y0087946D03*
X0084450Y0087981D03*
X0084415Y0088016D03*
X0078955Y0088856D03*
X0078500Y0094701D03*
X0078500Y0094736D03*
X0075245Y0088226D03*
D85*
X0078430Y0095226D03*
X0082245Y0083886D03*
X0085990Y0095996D03*
D86*
X0078832Y0088576D03*
X0078798Y0088541D03*
X0078202Y0087421D03*
X0078482Y0094946D03*
X0084713Y0083921D03*
X0084713Y0083886D03*
D87*
X0084625Y0084306D03*
X0084625Y0085566D03*
X0084625Y0085601D03*
X0084625Y0085636D03*
X0084625Y0085671D03*
X0084625Y0085706D03*
X0084625Y0085741D03*
X0084625Y0085776D03*
X0084625Y0085811D03*
X0084625Y0085846D03*
X0084625Y0085881D03*
X0084625Y0085916D03*
X0084625Y0085951D03*
X0084625Y0085986D03*
X0084625Y0086021D03*
X0084625Y0086056D03*
X0084625Y0086091D03*
X0084625Y0086126D03*
X0084625Y0086161D03*
X0086760Y0085426D03*
X0086760Y0085391D03*
X0086760Y0085356D03*
X0086725Y0085321D03*
X0086725Y0085286D03*
X0086690Y0085216D03*
X0086795Y0085496D03*
X0086130Y0084131D03*
X0086095Y0084096D03*
X0086095Y0084061D03*
X0086060Y0084026D03*
X0082245Y0083921D03*
X0078920Y0088786D03*
X0078500Y0094771D03*
X0082595Y0095996D03*
X0088755Y0092251D03*
D88*
X0082630Y0088996D03*
X0082245Y0083956D03*
X0078605Y0094106D03*
X0078605Y0094141D03*
X0075280Y0088051D03*
D89*
X0075245Y0088296D03*
X0078465Y0094911D03*
X0082595Y0096101D03*
X0085955Y0095716D03*
X0085955Y0095681D03*
X0084695Y0083956D03*
D90*
X0084677Y0083991D03*
X0084677Y0084026D03*
X0084677Y0084061D03*
X0078867Y0088646D03*
X0078483Y0094876D03*
X0082577Y0096066D03*
X0088773Y0092286D03*
D91*
X0088300Y0090921D03*
X0088300Y0090886D03*
X0088265Y0090816D03*
X0085290Y0091796D03*
X0085290Y0091831D03*
X0085325Y0091936D03*
X0085325Y0091971D03*
X0085325Y0092006D03*
X0085360Y0092111D03*
X0085360Y0092146D03*
X0085360Y0092181D03*
X0085465Y0092566D03*
X0085465Y0092601D03*
X0085465Y0092636D03*
X0085465Y0092671D03*
X0085465Y0092706D03*
X0085500Y0092741D03*
X0085500Y0092776D03*
X0085500Y0092811D03*
X0085500Y0092846D03*
X0085535Y0092986D03*
X0085535Y0093021D03*
X0084975Y0089836D03*
X0079340Y0090816D03*
X0078115Y0084166D03*
X0078150Y0084131D03*
X0078185Y0084096D03*
D92*
X0078885Y0088681D03*
X0078885Y0088716D03*
X0084660Y0084166D03*
X0084660Y0084131D03*
X0084660Y0084096D03*
X0086235Y0084306D03*
X0086305Y0084411D03*
X0086340Y0084481D03*
X0086375Y0084551D03*
X0086410Y0084586D03*
X0086410Y0084621D03*
X0086445Y0084656D03*
X0086445Y0084691D03*
X0086480Y0084726D03*
X0086480Y0084761D03*
X0086515Y0084796D03*
X0086515Y0084831D03*
X0086550Y0084866D03*
X0086550Y0084901D03*
X0086585Y0084971D03*
X0086620Y0085041D03*
X0085955Y0095646D03*
D93*
X0082210Y0091481D03*
X0083750Y0086651D03*
X0083750Y0086616D03*
X0083750Y0086581D03*
X0083750Y0086546D03*
X0083750Y0086511D03*
X0083750Y0086476D03*
X0083750Y0086441D03*
X0083750Y0086406D03*
X0083750Y0086371D03*
X0083750Y0086336D03*
X0083750Y0086301D03*
X0083750Y0086266D03*
X0083750Y0086231D03*
X0083750Y0086196D03*
X0082210Y0084131D03*
X0077310Y0085146D03*
X0077275Y0085181D03*
X0087110Y0088401D03*
X0087110Y0088436D03*
D94*
X0087075Y0088541D03*
X0082210Y0091026D03*
X0082210Y0091061D03*
X0082210Y0091096D03*
X0082210Y0091131D03*
X0082210Y0084166D03*
D95*
X0082648Y0089031D03*
X0078902Y0088751D03*
X0075227Y0088261D03*
X0082577Y0096031D03*
X0085938Y0095611D03*
X0086673Y0085181D03*
X0086673Y0085146D03*
X0086637Y0085111D03*
X0086637Y0085076D03*
X0086602Y0085006D03*
X0086323Y0084446D03*
X0086287Y0084376D03*
X0086252Y0084341D03*
X0086148Y0084166D03*
D96*
X0087180Y0087841D03*
X0085255Y0091656D03*
X0085395Y0092251D03*
X0085395Y0092286D03*
X0085395Y0092321D03*
X0085395Y0092356D03*
X0085430Y0092426D03*
X0085430Y0092461D03*
X0085430Y0092496D03*
X0085430Y0092531D03*
X0082455Y0094106D03*
X0082455Y0094141D03*
X0082455Y0094176D03*
X0082455Y0094211D03*
X0079305Y0090921D03*
X0079305Y0090886D03*
X0075455Y0087596D03*
X0078080Y0084201D03*
D97*
X0077030Y0085566D03*
X0076995Y0085601D03*
X0082210Y0084201D03*
X0087040Y0088716D03*
D98*
X0086707Y0085251D03*
X0086567Y0084936D03*
X0086357Y0084516D03*
X0086217Y0084271D03*
X0086182Y0084236D03*
X0086182Y0084201D03*
X0084642Y0084201D03*
X0084642Y0084236D03*
X0084642Y0084271D03*
X0078132Y0087386D03*
X0078482Y0094806D03*
X0078482Y0094841D03*
D99*
X0076838Y0085881D03*
X0082192Y0084271D03*
X0086987Y0088891D03*
D100*
X0085150Y0091236D03*
X0079375Y0090711D03*
X0077975Y0084306D03*
D101*
X0076767Y0086021D03*
X0076767Y0086056D03*
X0076732Y0086091D03*
X0082192Y0084306D03*
X0086952Y0088996D03*
D102*
X0082752Y0084341D03*
D103*
X0082735Y0084376D03*
X0086585Y0089696D03*
D104*
X0086550Y0089731D03*
X0082700Y0084411D03*
D105*
X0080863Y0084551D03*
X0084363Y0084726D03*
X0087127Y0086861D03*
X0087127Y0086896D03*
X0085867Y0095016D03*
X0085867Y0095051D03*
X0082577Y0095506D03*
X0082577Y0095541D03*
X0079217Y0089276D03*
X0078623Y0094036D03*
X0078623Y0094071D03*
D106*
X0084170Y0084551D03*
X0087180Y0087491D03*
X0088510Y0091481D03*
X0088510Y0091516D03*
X0085745Y0094246D03*
X0085745Y0094281D03*
X0085745Y0094316D03*
D107*
X0082350Y0093231D03*
X0082350Y0093196D03*
X0082350Y0093161D03*
X0082350Y0093126D03*
X0082350Y0093091D03*
X0082350Y0093056D03*
X0079620Y0089766D03*
X0077730Y0084586D03*
X0087145Y0088086D03*
X0087915Y0090081D03*
X0087950Y0090116D03*
X0087950Y0090151D03*
D108*
X0087862Y0090011D03*
X0077713Y0084621D03*
D109*
X0077625Y0084726D03*
X0077590Y0084761D03*
X0079655Y0089801D03*
X0082595Y0088891D03*
X0082315Y0092706D03*
X0082315Y0092741D03*
X0082315Y0092776D03*
X0082315Y0092811D03*
X0082315Y0092846D03*
X0087845Y0089976D03*
X0087145Y0088156D03*
X0087145Y0088121D03*
D110*
X0087145Y0088226D03*
X0082280Y0092286D03*
X0082280Y0092321D03*
X0082280Y0092356D03*
X0082280Y0092391D03*
X0082280Y0092426D03*
X0082280Y0092461D03*
X0077520Y0084866D03*
D111*
X0080582Y0088051D03*
X0080617Y0088086D03*
X0084467Y0084866D03*
X0087057Y0086406D03*
X0087057Y0086441D03*
X0087057Y0086476D03*
D112*
X0077450Y0084936D03*
D113*
X0077433Y0084971D03*
X0077398Y0085006D03*
X0082227Y0091866D03*
X0087687Y0089766D03*
X0087127Y0088331D03*
D114*
X0087110Y0088366D03*
X0084695Y0089976D03*
X0082595Y0088856D03*
X0082245Y0091691D03*
X0082245Y0091726D03*
X0082245Y0091761D03*
X0082245Y0091796D03*
X0082245Y0091831D03*
X0079760Y0089871D03*
X0077380Y0085041D03*
D115*
X0080250Y0085076D03*
X0080250Y0085111D03*
X0080075Y0087211D03*
X0080075Y0087246D03*
X0080250Y0087596D03*
D116*
X0082227Y0091341D03*
X0082227Y0091376D03*
X0082227Y0091411D03*
X0082227Y0091446D03*
X0087092Y0088471D03*
X0077257Y0085216D03*
D117*
X0077222Y0085251D03*
X0082227Y0091166D03*
X0084607Y0090011D03*
X0087092Y0088506D03*
D118*
X0082595Y0088821D03*
X0077205Y0085286D03*
X0077170Y0085321D03*
D119*
X0077135Y0085391D03*
X0079865Y0089941D03*
X0082210Y0090886D03*
X0082210Y0090921D03*
X0082210Y0090956D03*
D120*
X0087058Y0088646D03*
X0077117Y0085426D03*
X0077083Y0085461D03*
D121*
X0077065Y0085496D03*
D122*
X0077048Y0085531D03*
X0082577Y0088786D03*
D123*
X0084538Y0087771D03*
X0084538Y0087736D03*
X0084538Y0087701D03*
X0086812Y0085566D03*
X0086812Y0085531D03*
X0085938Y0095541D03*
X0085938Y0095576D03*
X0078938Y0088821D03*
D124*
X0079952Y0089976D03*
X0076977Y0085636D03*
X0087022Y0088751D03*
D125*
X0076960Y0085671D03*
D126*
X0076942Y0085706D03*
X0082577Y0088751D03*
X0084432Y0090046D03*
X0087022Y0088786D03*
D127*
X0076907Y0085776D03*
X0076873Y0085811D03*
D128*
X0076855Y0085846D03*
X0080040Y0090011D03*
X0087005Y0088856D03*
D129*
X0086970Y0088926D03*
X0082560Y0088716D03*
X0076820Y0085916D03*
D130*
X0076802Y0085951D03*
D131*
X0076715Y0086126D03*
X0082560Y0088681D03*
D132*
X0086952Y0089031D03*
X0076697Y0086161D03*
D133*
X0076680Y0086196D03*
X0076680Y0086231D03*
X0080180Y0090046D03*
D134*
X0082560Y0088646D03*
X0076645Y0086336D03*
X0076645Y0086301D03*
D135*
X0076627Y0086371D03*
X0086917Y0089136D03*
D136*
X0086900Y0089171D03*
X0076610Y0086406D03*
D137*
X0076592Y0086441D03*
X0076592Y0086476D03*
X0082542Y0088611D03*
D138*
X0076557Y0086616D03*
X0076557Y0086581D03*
D139*
X0076540Y0086651D03*
X0076540Y0086686D03*
X0086865Y0089241D03*
D140*
X0083767Y0086686D03*
D141*
X0076540Y0086721D03*
D142*
X0076505Y0086861D03*
X0076505Y0086896D03*
X0086830Y0089311D03*
D143*
X0086812Y0089346D03*
X0076488Y0086966D03*
X0076488Y0086931D03*
D144*
X0076505Y0087001D03*
X0086795Y0089381D03*
D145*
X0076488Y0087106D03*
X0076488Y0087071D03*
X0076488Y0087036D03*
D146*
X0075298Y0087946D03*
X0079288Y0089381D03*
X0082577Y0095331D03*
X0082577Y0095366D03*
X0087127Y0087106D03*
X0088598Y0091796D03*
D147*
X0076470Y0087141D03*
D148*
X0076488Y0087176D03*
X0076488Y0087211D03*
X0076488Y0087246D03*
D149*
X0079340Y0089451D03*
X0078745Y0093301D03*
X0078745Y0093336D03*
X0078745Y0093371D03*
X0082560Y0095121D03*
X0082560Y0095156D03*
X0082560Y0095191D03*
X0085815Y0094701D03*
X0085815Y0094666D03*
X0088580Y0091726D03*
X0088580Y0091691D03*
X0087145Y0087281D03*
D150*
X0076488Y0087316D03*
X0076488Y0087351D03*
D151*
X0078255Y0087456D03*
X0078780Y0088471D03*
X0078780Y0088506D03*
X0082595Y0096136D03*
X0085955Y0095751D03*
D152*
X0085955Y0095786D03*
X0082595Y0096171D03*
X0078465Y0095016D03*
X0078745Y0088401D03*
X0078745Y0088366D03*
X0078710Y0088331D03*
X0078290Y0087491D03*
D153*
X0078307Y0087526D03*
X0078342Y0087561D03*
X0078692Y0088296D03*
X0075227Y0088331D03*
X0078447Y0095051D03*
D154*
X0078920Y0092356D03*
X0078920Y0092321D03*
X0078920Y0092286D03*
X0078955Y0092251D03*
X0078955Y0092216D03*
X0078955Y0092181D03*
X0078955Y0092146D03*
X0078990Y0092041D03*
X0078990Y0092006D03*
X0079410Y0089556D03*
X0082525Y0094736D03*
X0082525Y0094771D03*
X0082525Y0094806D03*
X0085710Y0094106D03*
X0085710Y0094071D03*
X0085710Y0094036D03*
X0088475Y0091411D03*
X0088475Y0091376D03*
X0087180Y0087596D03*
X0087180Y0087561D03*
X0075385Y0087736D03*
D155*
X0078360Y0087596D03*
X0078640Y0088156D03*
X0078675Y0088226D03*
X0078675Y0088261D03*
X0082595Y0096206D03*
X0085955Y0095821D03*
D156*
X0082595Y0096241D03*
X0078605Y0088086D03*
X0078570Y0088016D03*
X0078570Y0087981D03*
X0078535Y0087946D03*
X0078535Y0087911D03*
X0078500Y0087876D03*
X0078500Y0087841D03*
X0078465Y0087806D03*
X0078465Y0087771D03*
D157*
X0075350Y0087841D03*
X0078815Y0092916D03*
X0082560Y0095051D03*
D158*
X0084852Y0089906D03*
X0087162Y0088051D03*
X0088002Y0090221D03*
X0088002Y0090256D03*
X0088037Y0090291D03*
D159*
X0078588Y0094246D03*
X0078588Y0094281D03*
X0075263Y0088086D03*
D160*
X0078657Y0088191D03*
X0088807Y0092356D03*
D161*
X0085990Y0095891D03*
X0082595Y0096276D03*
X0075245Y0088366D03*
D162*
X0075227Y0088401D03*
D163*
X0078763Y0088436D03*
D164*
X0082542Y0088576D03*
X0086847Y0089276D03*
D165*
X0078850Y0088611D03*
D166*
X0087075Y0088611D03*
D167*
X0087005Y0088821D03*
D168*
X0086935Y0089066D03*
D169*
X0086777Y0089416D03*
D170*
X0086742Y0089486D03*
D171*
X0082525Y0094876D03*
X0082525Y0094911D03*
X0078850Y0092776D03*
X0078850Y0092741D03*
X0078850Y0092706D03*
X0078850Y0092671D03*
X0079375Y0089521D03*
D172*
X0086725Y0089521D03*
D173*
X0086690Y0089556D03*
D174*
X0086637Y0089626D03*
D175*
X0086602Y0089661D03*
D176*
X0082210Y0090081D03*
X0082210Y0090116D03*
D177*
X0082192Y0090151D03*
X0082192Y0090186D03*
X0082192Y0090221D03*
X0082192Y0090256D03*
D178*
X0082210Y0090291D03*
D179*
X0082192Y0090326D03*
X0082192Y0090361D03*
X0082192Y0090396D03*
X0082192Y0090431D03*
D180*
X0082210Y0090466D03*
D181*
X0082192Y0090501D03*
X0082192Y0090536D03*
X0082192Y0090571D03*
X0082192Y0090606D03*
D182*
X0082210Y0090641D03*
D183*
X0082192Y0090676D03*
D184*
X0083435Y0090781D03*
X0083435Y0090816D03*
D185*
X0085780Y0094456D03*
X0085780Y0094491D03*
X0085780Y0094526D03*
X0088545Y0091621D03*
X0088545Y0091586D03*
X0078780Y0093056D03*
X0078780Y0093091D03*
X0078780Y0093126D03*
D186*
X0078727Y0093406D03*
X0078727Y0093441D03*
X0078727Y0093476D03*
X0078727Y0093511D03*
X0082577Y0095226D03*
X0088597Y0091761D03*
D187*
X0088650Y0091936D03*
X0085850Y0094981D03*
D188*
X0088790Y0092321D03*
X0078465Y0094981D03*
D189*
X0082613Y0096311D03*
X0088842Y0092391D03*
D190*
X0085832Y0094806D03*
X0085832Y0094841D03*
X0078692Y0093686D03*
X0078692Y0093651D03*
D191*
X0078448Y0095121D03*
D192*
X0078448Y0095156D03*
D193*
X0078430Y0095191D03*
D194*
X0078430Y0095261D03*
X0082630Y0096416D03*
D195*
X0085990Y0095926D03*
D196*
X0085972Y0095961D03*
D197*
X0086007Y0096031D03*
D198*
X0082613Y0096346D03*
D199*
X0082630Y0096381D03*
D200*
X0081060Y0061106D03*
X0081060Y0060106D03*
X0080860Y0059306D03*
X0080860Y0059106D03*
X0080860Y0058906D03*
X0080860Y0058706D03*
X0080860Y0058506D03*
X0081500Y0058506D03*
X0081540Y0058306D03*
X0081660Y0057906D03*
X0080860Y0057706D03*
X0080860Y0057506D03*
X0080860Y0057306D03*
X0080860Y0056506D03*
X0082700Y0058306D03*
X0083700Y0057906D03*
X0085500Y0057906D03*
X0085500Y0057106D03*
X0086340Y0057106D03*
X0086340Y0057306D03*
X0086340Y0057506D03*
X0086340Y0057706D03*
X0086340Y0058506D03*
X0086860Y0059706D03*
X0086860Y0059906D03*
X0086860Y0060106D03*
X0086860Y0060306D03*
X0086860Y0060506D03*
X0086860Y0060706D03*
X0086860Y0060906D03*
X0088140Y0060706D03*
X0088140Y0060506D03*
X0089860Y0060906D03*
X0089940Y0061106D03*
X0087740Y0057906D03*
X0087740Y0057106D03*
X0086340Y0056906D03*
X0086340Y0056706D03*
X0086340Y0056506D03*
X0084060Y0060306D03*
X0084100Y0060706D03*
X0084060Y0060906D03*
X0082860Y0060906D03*
X0082860Y0060706D03*
X0082860Y0060506D03*
X0082860Y0060306D03*
X0079460Y0060306D03*
X0079460Y0060506D03*
X0079460Y0060706D03*
X0079460Y0060906D03*
X0079460Y0060106D03*
X0079460Y0059906D03*
X0079460Y0059706D03*
X0078340Y0058506D03*
X0078340Y0057706D03*
X0078340Y0057506D03*
X0078340Y0057306D03*
X0078340Y0057106D03*
X0078340Y0056906D03*
X0078340Y0056706D03*
X0078340Y0056506D03*
X0077500Y0056506D03*
X0077500Y0057106D03*
X0077500Y0057906D03*
X0079700Y0057706D03*
X0079700Y0057506D03*
X0079700Y0057306D03*
X0078300Y0060906D03*
X0077540Y0060906D03*
X0076340Y0060306D03*
X0074460Y0060506D03*
X0074460Y0060706D03*
X0074460Y0060906D03*
X0073700Y0060906D03*
X0073700Y0060706D03*
X0073700Y0060506D03*
X0073700Y0060306D03*
X0074460Y0059506D03*
X0074460Y0059306D03*
X0074460Y0059106D03*
X0074460Y0058906D03*
X0074460Y0058706D03*
X0074460Y0058506D03*
X0074460Y0057706D03*
X0074460Y0057506D03*
X0074460Y0057306D03*
X0074460Y0057106D03*
X0074460Y0056906D03*
X0074460Y0056706D03*
X0074460Y0056506D03*
D201*
X0075620Y0056506D03*
X0075620Y0056706D03*
X0075620Y0056906D03*
X0075620Y0057106D03*
X0075620Y0057306D03*
X0075620Y0057506D03*
X0075620Y0057706D03*
X0075620Y0060306D03*
X0075620Y0060506D03*
X0075620Y0060706D03*
X0075620Y0060906D03*
X0081620Y0058106D03*
X0082220Y0060306D03*
X0083820Y0058306D03*
X0083780Y0058106D03*
X0084820Y0060506D03*
X0084820Y0060706D03*
X0084820Y0060906D03*
X0084820Y0061106D03*
X0084820Y0061306D03*
X0084820Y0061506D03*
X0086020Y0061506D03*
X0086020Y0061306D03*
X0086020Y0061106D03*
X0086020Y0060906D03*
X0086020Y0060706D03*
X0086020Y0060506D03*
X0088180Y0060306D03*
X0088180Y0060906D03*
D202*
X0088380Y0056506D03*
X0084820Y0056506D03*
X0076820Y0056506D03*
D203*
X0076440Y0060106D03*
X0075520Y0060106D03*
X0077320Y0063306D03*
X0081160Y0060906D03*
X0082680Y0058106D03*
X0083960Y0060106D03*
X0086240Y0063306D03*
X0088320Y0058506D03*
X0080160Y0056506D03*
D204*
X0082100Y0056506D03*
X0079500Y0063906D03*
X0072500Y0060706D03*
D205*
X0072520Y0060906D03*
X0072520Y0060506D03*
X0072520Y0060306D03*
X0076320Y0060906D03*
X0078280Y0060706D03*
X0078280Y0060506D03*
X0078280Y0060306D03*
X0078280Y0060106D03*
X0078280Y0059906D03*
X0078280Y0059706D03*
X0076320Y0057106D03*
X0081720Y0057706D03*
X0081800Y0057506D03*
X0082400Y0057506D03*
X0083600Y0057506D03*
X0083640Y0057706D03*
X0084320Y0057106D03*
X0083280Y0056506D03*
X0085520Y0056506D03*
X0084080Y0060506D03*
X0089240Y0060106D03*
X0089880Y0060306D03*
X0091040Y0060906D03*
D206*
X0090900Y0060066D03*
X0089900Y0060226D03*
X0089900Y0060266D03*
X0089860Y0060346D03*
X0089860Y0060386D03*
X0089860Y0060866D03*
X0089900Y0061026D03*
X0088140Y0060866D03*
X0088140Y0060826D03*
X0088140Y0060786D03*
X0088140Y0060746D03*
X0088140Y0060666D03*
X0088140Y0060626D03*
X0088140Y0060586D03*
X0088140Y0060546D03*
X0088140Y0060466D03*
X0088140Y0060426D03*
X0088140Y0060386D03*
X0086860Y0060386D03*
X0086860Y0060426D03*
X0086860Y0060466D03*
X0086860Y0060546D03*
X0086860Y0060586D03*
X0086860Y0060626D03*
X0086860Y0060666D03*
X0086860Y0060746D03*
X0086860Y0060786D03*
X0086860Y0060826D03*
X0086860Y0060866D03*
X0086860Y0060946D03*
X0086860Y0060986D03*
X0086860Y0061586D03*
X0086860Y0061626D03*
X0086860Y0060346D03*
X0086860Y0060266D03*
X0086860Y0060226D03*
X0086860Y0060186D03*
X0086860Y0060146D03*
X0086860Y0060066D03*
X0086860Y0060026D03*
X0086860Y0059986D03*
X0086860Y0059946D03*
X0086860Y0059866D03*
X0086860Y0059826D03*
X0086860Y0059786D03*
X0086860Y0059746D03*
X0086860Y0059666D03*
X0086860Y0059626D03*
X0086340Y0058466D03*
X0086340Y0058426D03*
X0086340Y0057746D03*
X0086340Y0057666D03*
X0086340Y0057626D03*
X0086340Y0057586D03*
X0086340Y0057546D03*
X0086340Y0057466D03*
X0086340Y0057426D03*
X0086340Y0057386D03*
X0086340Y0057346D03*
X0086340Y0057266D03*
X0086340Y0057226D03*
X0086340Y0057186D03*
X0086340Y0057146D03*
X0086340Y0057066D03*
X0086340Y0057026D03*
X0086340Y0056986D03*
X0086340Y0056946D03*
X0086340Y0056866D03*
X0086340Y0056826D03*
X0086340Y0056786D03*
X0086340Y0056746D03*
X0086340Y0056666D03*
X0086340Y0056626D03*
X0086340Y0056586D03*
X0086340Y0056546D03*
X0085500Y0057026D03*
X0085500Y0057066D03*
X0085500Y0057146D03*
X0085500Y0057186D03*
X0085500Y0057746D03*
X0085500Y0057946D03*
X0085500Y0057986D03*
X0084340Y0057226D03*
X0084340Y0057026D03*
X0084340Y0056986D03*
X0083660Y0057746D03*
X0083700Y0057866D03*
X0083740Y0057986D03*
X0083740Y0058026D03*
X0083740Y0058066D03*
X0083860Y0058386D03*
X0083860Y0058426D03*
X0084060Y0060266D03*
X0084060Y0060346D03*
X0084060Y0060386D03*
X0084100Y0060546D03*
X0084100Y0060586D03*
X0084100Y0060626D03*
X0084100Y0060666D03*
X0084060Y0060866D03*
X0084060Y0060946D03*
X0084060Y0060986D03*
X0082900Y0060986D03*
X0082900Y0061026D03*
X0082860Y0060946D03*
X0082860Y0060866D03*
X0082860Y0060826D03*
X0082860Y0060786D03*
X0082860Y0060746D03*
X0082860Y0060666D03*
X0082860Y0060626D03*
X0082860Y0060586D03*
X0082860Y0060546D03*
X0082860Y0060466D03*
X0082860Y0060426D03*
X0082860Y0060386D03*
X0082860Y0060346D03*
X0082900Y0060266D03*
X0082900Y0060226D03*
X0081060Y0060986D03*
X0081060Y0061026D03*
X0081060Y0061066D03*
X0081100Y0061146D03*
X0080860Y0059266D03*
X0080860Y0059226D03*
X0080860Y0059186D03*
X0080860Y0059146D03*
X0080860Y0059066D03*
X0080860Y0059026D03*
X0080860Y0058986D03*
X0080860Y0058946D03*
X0080860Y0058866D03*
X0080860Y0058826D03*
X0080860Y0058786D03*
X0080860Y0058746D03*
X0080860Y0058666D03*
X0080860Y0058626D03*
X0080860Y0058586D03*
X0080860Y0058546D03*
X0080860Y0058466D03*
X0081500Y0058466D03*
X0081540Y0058386D03*
X0081540Y0058346D03*
X0081660Y0057986D03*
X0081660Y0057946D03*
X0081700Y0057826D03*
X0081700Y0057786D03*
X0081740Y0057666D03*
X0080860Y0057666D03*
X0080860Y0057626D03*
X0080860Y0057586D03*
X0080860Y0057546D03*
X0080860Y0057466D03*
X0080860Y0057426D03*
X0080860Y0057386D03*
X0080860Y0057346D03*
X0080860Y0057266D03*
X0080860Y0057226D03*
X0080860Y0057186D03*
X0080860Y0057746D03*
X0080860Y0057786D03*
X0080860Y0057826D03*
X0080860Y0056546D03*
X0082100Y0056586D03*
X0082100Y0056626D03*
X0083300Y0056586D03*
X0079700Y0057186D03*
X0079700Y0057226D03*
X0079700Y0057266D03*
X0079700Y0057346D03*
X0079700Y0057386D03*
X0079700Y0057426D03*
X0079700Y0057466D03*
X0079700Y0057546D03*
X0079700Y0057586D03*
X0079700Y0057626D03*
X0079700Y0057666D03*
X0079700Y0057746D03*
X0079700Y0057786D03*
X0079700Y0057826D03*
X0078340Y0057786D03*
X0078340Y0057746D03*
X0078340Y0057666D03*
X0078340Y0057626D03*
X0078340Y0057586D03*
X0078340Y0057546D03*
X0078340Y0057466D03*
X0078340Y0057426D03*
X0078340Y0057386D03*
X0078340Y0057346D03*
X0078340Y0057266D03*
X0078340Y0057226D03*
X0078340Y0057186D03*
X0078340Y0057146D03*
X0078340Y0057066D03*
X0078340Y0057026D03*
X0078340Y0056986D03*
X0078340Y0056946D03*
X0078340Y0056866D03*
X0078340Y0056826D03*
X0078340Y0056786D03*
X0078340Y0056746D03*
X0078340Y0056666D03*
X0078340Y0056626D03*
X0078340Y0056586D03*
X0078340Y0056546D03*
X0077500Y0057026D03*
X0077500Y0057066D03*
X0077500Y0057146D03*
X0077500Y0057186D03*
X0077500Y0057226D03*
X0077500Y0057266D03*
X0077500Y0057746D03*
X0077500Y0057786D03*
X0077500Y0057826D03*
X0077500Y0057866D03*
X0077500Y0057946D03*
X0077500Y0057986D03*
X0078340Y0058426D03*
X0078340Y0058466D03*
X0079460Y0059586D03*
X0079460Y0059626D03*
X0079460Y0059666D03*
X0079460Y0059746D03*
X0079460Y0059786D03*
X0079460Y0059826D03*
X0079460Y0059866D03*
X0079460Y0059946D03*
X0079460Y0059986D03*
X0079460Y0060026D03*
X0079460Y0060066D03*
X0079460Y0060146D03*
X0079460Y0060186D03*
X0079460Y0060226D03*
X0079460Y0060266D03*
X0079460Y0060346D03*
X0079460Y0060386D03*
X0079460Y0060426D03*
X0079460Y0060466D03*
X0079460Y0060546D03*
X0079460Y0060586D03*
X0079460Y0060626D03*
X0079460Y0060666D03*
X0079460Y0060746D03*
X0079460Y0060786D03*
X0079460Y0060826D03*
X0079460Y0060866D03*
X0079460Y0060946D03*
X0078300Y0060946D03*
X0078300Y0060986D03*
X0077500Y0060986D03*
X0077500Y0061026D03*
X0077500Y0060946D03*
X0076340Y0060946D03*
X0076340Y0060986D03*
X0076340Y0060866D03*
X0076340Y0060346D03*
X0076340Y0060266D03*
X0076340Y0060226D03*
X0074460Y0060346D03*
X0074460Y0060386D03*
X0074460Y0060426D03*
X0074460Y0060466D03*
X0074460Y0060546D03*
X0074460Y0060586D03*
X0074460Y0060626D03*
X0074460Y0060666D03*
X0074460Y0060746D03*
X0074460Y0060786D03*
X0074460Y0060826D03*
X0074460Y0060866D03*
X0074460Y0061586D03*
X0074460Y0061626D03*
X0073660Y0061026D03*
X0073700Y0060946D03*
X0073700Y0060866D03*
X0073700Y0060826D03*
X0073700Y0060786D03*
X0073700Y0060746D03*
X0073700Y0060666D03*
X0073700Y0060626D03*
X0073700Y0060586D03*
X0073700Y0060546D03*
X0073700Y0060466D03*
X0073700Y0060426D03*
X0073700Y0060386D03*
X0073700Y0060346D03*
X0073660Y0060226D03*
X0074460Y0059666D03*
X0074460Y0059626D03*
X0074460Y0059586D03*
X0074460Y0059546D03*
X0074460Y0059466D03*
X0074460Y0059426D03*
X0074460Y0059386D03*
X0074460Y0059346D03*
X0074460Y0059266D03*
X0074460Y0059226D03*
X0074460Y0059186D03*
X0074460Y0059146D03*
X0074460Y0059066D03*
X0074460Y0059026D03*
X0074460Y0058986D03*
X0074460Y0058946D03*
X0074460Y0058866D03*
X0074460Y0058826D03*
X0074460Y0058786D03*
X0074460Y0058746D03*
X0074460Y0058666D03*
X0074460Y0058626D03*
X0074460Y0058586D03*
X0074460Y0058546D03*
X0074460Y0058466D03*
X0074460Y0057826D03*
X0074460Y0057786D03*
X0074460Y0057746D03*
X0074460Y0057666D03*
X0074460Y0057626D03*
X0074460Y0057586D03*
X0074460Y0057546D03*
X0074460Y0057466D03*
X0074460Y0057426D03*
X0074460Y0057386D03*
X0074460Y0057346D03*
X0074460Y0057266D03*
X0074460Y0057226D03*
X0074460Y0057186D03*
X0074460Y0057146D03*
X0074460Y0057066D03*
X0074460Y0057026D03*
X0074460Y0056986D03*
X0074460Y0056946D03*
X0074460Y0056866D03*
X0074460Y0056826D03*
X0074460Y0056786D03*
X0074460Y0056746D03*
X0074460Y0056666D03*
X0074460Y0056626D03*
X0074460Y0056586D03*
X0074460Y0056546D03*
X0076340Y0056986D03*
X0076340Y0057226D03*
X0072540Y0060226D03*
X0072540Y0061026D03*
X0077300Y0063266D03*
X0086260Y0063266D03*
X0087740Y0057866D03*
X0087700Y0057266D03*
X0087740Y0057146D03*
X0088900Y0057746D03*
X0088900Y0057786D03*
X0088900Y0057826D03*
X0088900Y0057866D03*
D207*
X0087780Y0057946D03*
X0087780Y0057066D03*
X0086020Y0059626D03*
X0086020Y0059666D03*
X0086020Y0060346D03*
X0086020Y0060386D03*
X0086020Y0060426D03*
X0086020Y0060466D03*
X0086020Y0060546D03*
X0086020Y0060586D03*
X0086020Y0060626D03*
X0086020Y0060666D03*
X0086020Y0060746D03*
X0086020Y0060786D03*
X0086020Y0060826D03*
X0086020Y0060866D03*
X0086020Y0060946D03*
X0086020Y0060986D03*
X0086020Y0061026D03*
X0086020Y0061066D03*
X0086020Y0061146D03*
X0086020Y0061186D03*
X0086020Y0061226D03*
X0086020Y0061266D03*
X0086020Y0061346D03*
X0086020Y0061386D03*
X0086020Y0061426D03*
X0086020Y0061466D03*
X0086020Y0061546D03*
X0086020Y0061586D03*
X0086020Y0061626D03*
X0084820Y0061626D03*
X0084820Y0061586D03*
X0084820Y0061546D03*
X0084820Y0061466D03*
X0084820Y0061426D03*
X0084820Y0061386D03*
X0084820Y0061346D03*
X0084820Y0061266D03*
X0084820Y0061226D03*
X0084820Y0061186D03*
X0084820Y0061146D03*
X0084820Y0061066D03*
X0084820Y0061026D03*
X0084820Y0060986D03*
X0084820Y0060946D03*
X0084820Y0060866D03*
X0084820Y0060826D03*
X0084820Y0060786D03*
X0084820Y0060746D03*
X0084820Y0060666D03*
X0084820Y0060626D03*
X0084820Y0060586D03*
X0084820Y0060546D03*
X0084820Y0060466D03*
X0084820Y0060426D03*
X0084820Y0060386D03*
X0084820Y0060346D03*
X0083820Y0058266D03*
X0083820Y0058226D03*
X0083780Y0058186D03*
X0083780Y0058146D03*
X0083620Y0057626D03*
X0083620Y0057586D03*
X0083580Y0057466D03*
X0081780Y0057546D03*
X0081620Y0058026D03*
X0081620Y0058066D03*
X0081580Y0058146D03*
X0081580Y0058186D03*
X0081580Y0058226D03*
X0081620Y0059586D03*
X0082220Y0060186D03*
X0082220Y0060226D03*
X0082220Y0060266D03*
X0081620Y0061666D03*
X0077380Y0060066D03*
X0076380Y0060186D03*
X0075620Y0060346D03*
X0075620Y0060386D03*
X0075620Y0060426D03*
X0075620Y0060466D03*
X0075620Y0060546D03*
X0075620Y0060586D03*
X0075620Y0060666D03*
X0075620Y0060746D03*
X0075620Y0060786D03*
X0075620Y0060826D03*
X0075620Y0060866D03*
X0075620Y0060946D03*
X0076380Y0061066D03*
X0075620Y0057866D03*
X0075620Y0057826D03*
X0075620Y0057786D03*
X0075620Y0057746D03*
X0075620Y0057666D03*
X0075620Y0057626D03*
X0075620Y0057586D03*
X0075620Y0057546D03*
X0075620Y0057466D03*
X0075620Y0057426D03*
X0075620Y0057386D03*
X0075620Y0057346D03*
X0075620Y0057266D03*
X0075620Y0057226D03*
X0075620Y0057186D03*
X0075620Y0057146D03*
X0075620Y0057066D03*
X0075620Y0057026D03*
X0075620Y0056986D03*
X0075620Y0056946D03*
X0075620Y0056866D03*
X0075620Y0056826D03*
X0075620Y0056786D03*
X0075620Y0056746D03*
X0075620Y0056666D03*
X0075620Y0056626D03*
X0075620Y0056586D03*
X0075620Y0056546D03*
X0088180Y0060346D03*
X0088180Y0060946D03*
X0091020Y0061026D03*
X0091020Y0061066D03*
D208*
X0088820Y0061386D03*
X0088820Y0059866D03*
X0087300Y0061426D03*
X0087300Y0061546D03*
X0086780Y0058266D03*
X0085060Y0057626D03*
X0085060Y0056546D03*
X0083460Y0061346D03*
X0081660Y0061466D03*
X0081620Y0060666D03*
X0081660Y0060626D03*
X0081700Y0060586D03*
X0081580Y0059786D03*
X0080420Y0058426D03*
X0078780Y0058266D03*
X0080420Y0056586D03*
X0077060Y0056546D03*
X0077060Y0057626D03*
X0074900Y0058426D03*
X0074900Y0061546D03*
X0073100Y0061346D03*
X0076940Y0061346D03*
X0078740Y0061546D03*
D209*
X0079400Y0064066D03*
X0081640Y0061626D03*
X0081600Y0059626D03*
X0082680Y0057866D03*
X0082080Y0057066D03*
X0082080Y0057026D03*
X0083280Y0057026D03*
X0083280Y0057066D03*
X0080720Y0056946D03*
X0080160Y0056546D03*
X0084160Y0064066D03*
X0088320Y0058466D03*
X0086200Y0074746D03*
X0077360Y0074746D03*
D210*
X0077320Y0074866D03*
X0078280Y0061666D03*
X0078280Y0061626D03*
X0078280Y0061586D03*
X0078280Y0060866D03*
X0078280Y0060826D03*
X0078280Y0060786D03*
X0078280Y0060746D03*
X0078280Y0060666D03*
X0078280Y0060626D03*
X0078280Y0060586D03*
X0078280Y0060546D03*
X0078280Y0060466D03*
X0078280Y0060426D03*
X0078280Y0060386D03*
X0078280Y0060346D03*
X0078280Y0060266D03*
X0078280Y0060226D03*
X0078280Y0060186D03*
X0078280Y0060146D03*
X0078280Y0060066D03*
X0078280Y0060026D03*
X0078280Y0059986D03*
X0078280Y0059946D03*
X0078280Y0059866D03*
X0078280Y0059826D03*
X0078280Y0059786D03*
X0078280Y0059746D03*
X0078280Y0059666D03*
X0078280Y0059626D03*
X0078280Y0059586D03*
X0076880Y0058546D03*
X0076320Y0057186D03*
X0076320Y0057146D03*
X0076320Y0057066D03*
X0076320Y0057026D03*
X0076320Y0060386D03*
X0076360Y0061026D03*
X0075640Y0060626D03*
X0074440Y0061666D03*
X0073080Y0061666D03*
X0072520Y0060986D03*
X0072520Y0060946D03*
X0072520Y0060866D03*
X0072520Y0060826D03*
X0072520Y0060786D03*
X0072520Y0060746D03*
X0072520Y0060466D03*
X0072520Y0060426D03*
X0072520Y0060386D03*
X0072520Y0060346D03*
X0072520Y0060266D03*
X0080880Y0059346D03*
X0081680Y0057866D03*
X0081720Y0057746D03*
X0081760Y0057626D03*
X0081760Y0057586D03*
X0081800Y0057466D03*
X0081800Y0057426D03*
X0081840Y0057386D03*
X0081840Y0057346D03*
X0082360Y0057386D03*
X0082440Y0057626D03*
X0082440Y0057666D03*
X0082960Y0057586D03*
X0082960Y0057546D03*
X0083000Y0057466D03*
X0083000Y0057426D03*
X0083560Y0057426D03*
X0083560Y0057386D03*
X0083600Y0057546D03*
X0083640Y0057666D03*
X0083680Y0057786D03*
X0083680Y0057826D03*
X0083720Y0057946D03*
X0084320Y0057186D03*
X0084320Y0057146D03*
X0084320Y0057066D03*
X0083280Y0056546D03*
X0082080Y0056546D03*
X0082680Y0058346D03*
X0082680Y0058386D03*
X0083480Y0059586D03*
X0084080Y0060426D03*
X0084080Y0060466D03*
X0084080Y0060746D03*
X0084080Y0060786D03*
X0084080Y0060826D03*
X0083480Y0061666D03*
X0084840Y0061666D03*
X0086000Y0061666D03*
X0086840Y0061666D03*
X0088840Y0061666D03*
X0089880Y0060986D03*
X0089880Y0060946D03*
X0091040Y0060946D03*
X0091040Y0060986D03*
X0091040Y0060866D03*
X0090520Y0059586D03*
X0088760Y0056946D03*
X0087720Y0057186D03*
X0087720Y0057226D03*
X0087720Y0057746D03*
X0087720Y0057786D03*
X0087720Y0057826D03*
X0086840Y0059586D03*
X0086000Y0059586D03*
X0085520Y0057866D03*
X0085520Y0057826D03*
X0085520Y0057786D03*
X0085520Y0057266D03*
X0085520Y0057226D03*
X0084880Y0058546D03*
X0082040Y0061186D03*
X0086240Y0074866D03*
D211*
X0090480Y0061546D03*
X0090520Y0059666D03*
X0088320Y0058426D03*
X0088360Y0056546D03*
X0082080Y0057266D03*
X0076920Y0061546D03*
D212*
X0074920Y0059746D03*
X0074920Y0058386D03*
X0077040Y0056586D03*
X0081680Y0061426D03*
X0083480Y0059946D03*
X0084920Y0058266D03*
X0085040Y0057586D03*
X0085040Y0056586D03*
X0087320Y0061466D03*
X0088320Y0058186D03*
X0090520Y0059866D03*
X0086160Y0063626D03*
D213*
X0081900Y0060426D03*
X0088380Y0056586D03*
X0086180Y0074626D03*
X0077380Y0074626D03*
X0073100Y0059746D03*
D214*
X0074960Y0059826D03*
X0074960Y0061426D03*
X0076960Y0059986D03*
X0078800Y0061426D03*
X0077400Y0063666D03*
X0081600Y0061266D03*
X0084960Y0058186D03*
X0085000Y0057546D03*
X0085000Y0056666D03*
X0088360Y0056866D03*
X0088400Y0056786D03*
X0088840Y0059946D03*
X0088760Y0060066D03*
X0088760Y0061186D03*
X0086160Y0063666D03*
X0077000Y0057546D03*
X0077000Y0056626D03*
D215*
X0077000Y0059866D03*
X0077400Y0063626D03*
X0080400Y0058386D03*
X0080400Y0056626D03*
D216*
X0080840Y0057066D03*
X0080840Y0057146D03*
X0080840Y0057866D03*
X0081560Y0058266D03*
X0081520Y0058426D03*
X0082680Y0058266D03*
X0082680Y0058226D03*
X0083840Y0058346D03*
X0083880Y0058466D03*
X0084000Y0060146D03*
X0084040Y0060186D03*
X0084040Y0060226D03*
X0084040Y0061026D03*
X0084040Y0061066D03*
X0082920Y0061066D03*
X0082920Y0060186D03*
X0082200Y0060146D03*
X0082200Y0060346D03*
X0081080Y0060946D03*
X0079440Y0060986D03*
X0079440Y0061026D03*
X0078320Y0061026D03*
X0078320Y0061066D03*
X0077520Y0060866D03*
X0077480Y0061066D03*
X0076400Y0060146D03*
X0075600Y0060186D03*
X0075600Y0060226D03*
X0075600Y0060266D03*
X0075600Y0060986D03*
X0075600Y0061026D03*
X0075600Y0061066D03*
X0074480Y0061026D03*
X0074480Y0060986D03*
X0074480Y0060946D03*
X0074480Y0060266D03*
X0074480Y0060226D03*
X0073680Y0060266D03*
X0073640Y0060186D03*
X0073680Y0060986D03*
X0073640Y0061066D03*
X0072560Y0061066D03*
X0072560Y0060186D03*
X0074480Y0057866D03*
X0077480Y0058026D03*
X0078360Y0057866D03*
X0078360Y0057826D03*
X0077480Y0056986D03*
X0079720Y0057066D03*
X0079760Y0057026D03*
X0079720Y0057146D03*
X0079720Y0057866D03*
X0082080Y0056666D03*
X0083280Y0056666D03*
X0083280Y0056626D03*
X0085480Y0056986D03*
X0085480Y0058026D03*
X0086360Y0057866D03*
X0086360Y0057826D03*
X0086360Y0057786D03*
X0087800Y0057986D03*
X0087800Y0057026D03*
X0088840Y0057986D03*
X0088880Y0057946D03*
X0088240Y0060186D03*
X0088200Y0060226D03*
X0088200Y0060266D03*
X0088200Y0060986D03*
X0088200Y0061026D03*
X0088240Y0061066D03*
X0089920Y0061066D03*
X0089920Y0060186D03*
X0089960Y0060146D03*
X0086880Y0061026D03*
X0086000Y0060266D03*
X0084880Y0060226D03*
X0084880Y0060186D03*
X0084840Y0060266D03*
X0084080Y0063946D03*
X0079480Y0063946D03*
D217*
X0078780Y0061466D03*
X0078820Y0058386D03*
X0078820Y0058346D03*
X0080380Y0058346D03*
X0080380Y0056666D03*
X0081580Y0059826D03*
X0081580Y0061226D03*
X0085540Y0059746D03*
X0084980Y0058146D03*
X0085020Y0056626D03*
X0086820Y0058346D03*
X0086820Y0058386D03*
X0088340Y0058146D03*
X0088380Y0056746D03*
X0090460Y0060026D03*
X0090460Y0061266D03*
X0088820Y0061346D03*
X0086140Y0074466D03*
X0077420Y0074466D03*
X0076940Y0061266D03*
X0076900Y0058266D03*
X0076980Y0058146D03*
X0077020Y0057586D03*
X0074940Y0058346D03*
X0074940Y0059786D03*
X0074940Y0061466D03*
X0073100Y0061266D03*
X0073100Y0059986D03*
X0073100Y0059946D03*
D218*
X0073080Y0061466D03*
X0076920Y0061466D03*
X0083480Y0061466D03*
X0083480Y0059786D03*
X0087200Y0061186D03*
X0088360Y0056626D03*
X0090520Y0059746D03*
X0090480Y0061466D03*
D219*
X0090500Y0059986D03*
X0088820Y0059986D03*
X0088780Y0060026D03*
X0088780Y0061226D03*
X0088820Y0061266D03*
X0088380Y0056826D03*
X0084980Y0057466D03*
X0085500Y0059826D03*
X0085500Y0059866D03*
X0083460Y0060026D03*
X0083460Y0061226D03*
X0081660Y0061346D03*
X0080340Y0058266D03*
X0080340Y0058226D03*
X0080340Y0056746D03*
X0078820Y0061346D03*
X0078820Y0061386D03*
X0076980Y0059946D03*
X0076940Y0058186D03*
X0076980Y0056666D03*
X0074980Y0058226D03*
X0074980Y0058266D03*
X0074980Y0059866D03*
X0074980Y0061386D03*
X0073100Y0061226D03*
X0073100Y0061186D03*
X0073100Y0060066D03*
X0073100Y0060026D03*
X0077420Y0074426D03*
X0086140Y0074426D03*
D220*
X0086180Y0063586D03*
X0088820Y0061426D03*
X0088820Y0059826D03*
X0088380Y0056666D03*
X0077380Y0063586D03*
D221*
X0076980Y0057506D03*
X0076980Y0056706D03*
X0084980Y0056706D03*
X0084980Y0057506D03*
D222*
X0088840Y0061306D03*
X0081640Y0061306D03*
X0080360Y0058306D03*
X0080360Y0056706D03*
X0077000Y0059906D03*
X0074960Y0058306D03*
D223*
X0074500Y0061106D03*
X0073620Y0061106D03*
X0072580Y0061106D03*
X0075580Y0061106D03*
X0077460Y0061106D03*
X0078340Y0061106D03*
X0079380Y0061106D03*
X0079060Y0058506D03*
X0082180Y0060106D03*
X0082940Y0061106D03*
X0082100Y0056706D03*
X0086380Y0057906D03*
X0087060Y0058506D03*
X0086900Y0061106D03*
X0088260Y0061106D03*
X0089980Y0060106D03*
D224*
X0091000Y0061106D03*
X0088880Y0057906D03*
X0086000Y0060306D03*
X0084840Y0060306D03*
X0084000Y0061106D03*
X0083880Y0058506D03*
X0083280Y0056706D03*
X0080840Y0057106D03*
X0080840Y0057906D03*
X0080160Y0058506D03*
X0079720Y0057906D03*
X0079720Y0057106D03*
X0078360Y0057906D03*
X0076400Y0061106D03*
X0075160Y0058506D03*
X0075600Y0057906D03*
X0074480Y0057906D03*
X0074480Y0060306D03*
D225*
X0074900Y0059706D03*
X0073100Y0059906D03*
X0081580Y0060706D03*
X0083460Y0059906D03*
X0084940Y0058306D03*
X0085580Y0059706D03*
X0088380Y0056706D03*
D226*
X0084960Y0056746D03*
X0084960Y0056786D03*
X0084960Y0057426D03*
X0083480Y0060066D03*
X0083480Y0061186D03*
X0081560Y0059866D03*
X0080320Y0058186D03*
X0080320Y0058146D03*
X0080320Y0056866D03*
X0080320Y0056826D03*
X0080320Y0056786D03*
X0078840Y0061266D03*
X0076960Y0057466D03*
X0076960Y0057426D03*
X0076960Y0056746D03*
X0075000Y0058186D03*
X0075000Y0059946D03*
X0075000Y0061346D03*
D227*
X0074500Y0061066D03*
X0074500Y0060186D03*
X0073620Y0060146D03*
X0072580Y0060146D03*
X0075180Y0059626D03*
X0075580Y0060146D03*
X0075540Y0061146D03*
X0076420Y0061146D03*
X0077420Y0061146D03*
X0078980Y0061626D03*
X0079420Y0061066D03*
X0081140Y0061186D03*
X0082700Y0058186D03*
X0082100Y0056746D03*
X0080820Y0057026D03*
X0080820Y0057946D03*
X0079780Y0057986D03*
X0079740Y0057946D03*
X0079780Y0056986D03*
X0078380Y0057946D03*
X0076380Y0057266D03*
X0076380Y0056946D03*
X0075580Y0057946D03*
X0074500Y0057946D03*
X0082940Y0060146D03*
X0082980Y0061146D03*
X0084900Y0060146D03*
X0085300Y0059626D03*
X0085980Y0060186D03*
X0085980Y0060226D03*
X0086900Y0061066D03*
X0087540Y0061626D03*
X0088260Y0060146D03*
X0089980Y0061146D03*
X0090980Y0061146D03*
X0088820Y0058026D03*
X0087820Y0058026D03*
X0087820Y0056986D03*
X0086380Y0057946D03*
X0084380Y0057266D03*
X0084380Y0056946D03*
X0086220Y0074826D03*
X0077340Y0074826D03*
D228*
X0079440Y0063986D03*
X0079360Y0061146D03*
X0077440Y0056946D03*
X0075560Y0057986D03*
X0074520Y0057986D03*
X0074520Y0060146D03*
X0075160Y0061626D03*
X0076480Y0061186D03*
X0082680Y0058146D03*
X0083280Y0056826D03*
X0083280Y0056786D03*
X0083280Y0056746D03*
X0082080Y0056786D03*
X0083960Y0061146D03*
X0085960Y0060146D03*
X0085440Y0056946D03*
X0087880Y0056946D03*
X0090920Y0061186D03*
X0084120Y0063986D03*
D229*
X0085460Y0060026D03*
X0085460Y0059986D03*
X0085460Y0059946D03*
X0084940Y0057386D03*
X0084940Y0057346D03*
X0084940Y0056866D03*
X0084940Y0056826D03*
X0078860Y0061186D03*
X0078860Y0061226D03*
X0076940Y0057386D03*
X0076940Y0057346D03*
X0076940Y0056826D03*
X0076940Y0056786D03*
X0075020Y0058066D03*
X0075020Y0058146D03*
X0075020Y0059986D03*
X0075020Y0060026D03*
X0075020Y0060066D03*
X0075020Y0061186D03*
X0075020Y0061226D03*
X0075020Y0061266D03*
D230*
X0074540Y0061146D03*
X0073100Y0061626D03*
X0073100Y0059626D03*
X0074540Y0058026D03*
X0075540Y0058026D03*
X0076500Y0060066D03*
X0077380Y0061186D03*
X0076940Y0061626D03*
X0078380Y0061146D03*
X0080780Y0058026D03*
X0082100Y0056866D03*
X0082100Y0056826D03*
X0083300Y0056866D03*
X0082700Y0058066D03*
X0083460Y0059626D03*
X0082140Y0060066D03*
X0081100Y0060066D03*
X0085420Y0058066D03*
X0087900Y0058066D03*
X0088820Y0059626D03*
X0088300Y0061146D03*
X0088820Y0061626D03*
X0090460Y0061626D03*
X0086940Y0061146D03*
X0086220Y0074786D03*
X0077340Y0074786D03*
D231*
X0077440Y0074386D03*
X0085440Y0060066D03*
X0090440Y0060426D03*
X0090440Y0060466D03*
X0090440Y0060546D03*
X0090440Y0060586D03*
X0090440Y0060626D03*
X0090440Y0060666D03*
X0090440Y0060746D03*
X0090440Y0060786D03*
X0090440Y0060826D03*
X0086120Y0074386D03*
X0076920Y0056866D03*
D232*
X0076920Y0056906D03*
X0076920Y0057306D03*
X0081560Y0059906D03*
X0084920Y0056906D03*
X0090440Y0060506D03*
X0090440Y0060706D03*
D233*
X0080300Y0058106D03*
X0080300Y0056906D03*
D234*
X0082080Y0056906D03*
X0083280Y0056906D03*
X0085920Y0060106D03*
D235*
X0088820Y0059906D03*
X0090540Y0059906D03*
X0088300Y0056906D03*
X0073100Y0061306D03*
D236*
X0075180Y0061586D03*
X0075180Y0059666D03*
X0076980Y0059626D03*
X0078980Y0061586D03*
X0079420Y0064026D03*
X0082700Y0057946D03*
X0082100Y0056986D03*
X0083300Y0056986D03*
X0085300Y0059666D03*
X0087540Y0061586D03*
X0084140Y0064026D03*
X0079860Y0056946D03*
D237*
X0082080Y0056946D03*
X0083280Y0056946D03*
X0082680Y0057986D03*
X0082680Y0058026D03*
X0082120Y0060386D03*
X0083480Y0061626D03*
X0077320Y0063346D03*
X0090520Y0059626D03*
D238*
X0090000Y0061186D03*
X0086400Y0057986D03*
X0080800Y0057986D03*
X0080800Y0056986D03*
X0079800Y0058026D03*
X0078400Y0057986D03*
X0077400Y0058066D03*
X0073600Y0061146D03*
X0072600Y0061146D03*
D239*
X0077300Y0063186D03*
X0079540Y0063866D03*
X0082100Y0061146D03*
X0080140Y0058546D03*
X0079060Y0058546D03*
X0084020Y0063866D03*
X0086260Y0063186D03*
X0085300Y0059586D03*
X0087060Y0058546D03*
X0088780Y0056986D03*
D240*
X0088800Y0057026D03*
X0084000Y0063826D03*
X0077400Y0060146D03*
D241*
X0077400Y0060186D03*
X0076520Y0057986D03*
X0082120Y0061066D03*
X0084520Y0057986D03*
X0087680Y0061146D03*
X0088800Y0057066D03*
X0090960Y0060186D03*
D242*
X0083300Y0057106D03*
X0082100Y0057106D03*
X0076900Y0058506D03*
D243*
X0077280Y0063106D03*
X0086280Y0063106D03*
X0087680Y0061106D03*
X0088800Y0057106D03*
D244*
X0088840Y0059666D03*
X0083480Y0059666D03*
X0082680Y0057786D03*
X0082680Y0057746D03*
X0082080Y0057186D03*
X0082080Y0057146D03*
X0083280Y0057146D03*
X0083280Y0057186D03*
X0083480Y0061586D03*
X0076920Y0061586D03*
X0073080Y0061586D03*
D245*
X0077340Y0063426D03*
X0082100Y0057226D03*
X0083300Y0057226D03*
X0083300Y0057266D03*
D246*
X0083280Y0057306D03*
X0082080Y0057306D03*
D247*
X0084940Y0057306D03*
X0075020Y0058106D03*
D248*
X0076920Y0060506D03*
X0076920Y0060706D03*
X0088320Y0057706D03*
X0088320Y0057506D03*
X0088320Y0057306D03*
D249*
X0088820Y0059586D03*
X0090460Y0061666D03*
X0086260Y0063226D03*
X0084540Y0058066D03*
X0082940Y0057666D03*
X0082940Y0057626D03*
X0083020Y0057386D03*
X0082420Y0057546D03*
X0082420Y0057586D03*
X0082380Y0057466D03*
X0082380Y0057426D03*
X0082340Y0057346D03*
X0076980Y0059586D03*
D250*
X0076900Y0058466D03*
X0073100Y0061546D03*
X0077380Y0074666D03*
X0081620Y0061586D03*
X0083460Y0061546D03*
X0084940Y0058466D03*
X0083300Y0057346D03*
X0088820Y0061546D03*
X0086180Y0074666D03*
D251*
X0086120Y0074346D03*
X0081560Y0059986D03*
X0076920Y0060546D03*
X0076920Y0060586D03*
X0076920Y0060626D03*
X0076920Y0060666D03*
X0076920Y0060746D03*
X0077440Y0074346D03*
X0088320Y0057666D03*
X0088320Y0057626D03*
X0088320Y0057586D03*
X0088320Y0057546D03*
X0088320Y0057466D03*
X0088320Y0057426D03*
X0088320Y0057386D03*
X0088320Y0057346D03*
D252*
X0084060Y0063906D03*
X0082980Y0057506D03*
D253*
X0084940Y0058346D03*
X0085100Y0057666D03*
X0086740Y0058146D03*
X0086740Y0058186D03*
X0087260Y0061346D03*
X0090460Y0061386D03*
X0081500Y0060786D03*
X0078740Y0058186D03*
X0077100Y0057666D03*
X0076940Y0061386D03*
X0073100Y0061386D03*
X0073100Y0059866D03*
D254*
X0077160Y0057706D03*
X0085160Y0057706D03*
D255*
X0082700Y0057706D03*
D256*
X0082700Y0057826D03*
X0073100Y0059666D03*
D257*
X0082680Y0057906D03*
X0084920Y0058506D03*
D258*
X0084520Y0057946D03*
X0087200Y0057986D03*
X0090960Y0060226D03*
X0077400Y0060226D03*
X0076520Y0057946D03*
D259*
X0079180Y0057986D03*
X0081020Y0060266D03*
X0079580Y0063786D03*
X0083980Y0063786D03*
D260*
X0086280Y0063146D03*
X0084520Y0058026D03*
X0079560Y0063826D03*
X0077280Y0063146D03*
X0076520Y0058026D03*
X0090960Y0060146D03*
D261*
X0090040Y0060066D03*
X0088760Y0058066D03*
X0087040Y0058466D03*
X0086440Y0058026D03*
X0086240Y0063346D03*
X0080160Y0058466D03*
X0079040Y0058466D03*
X0078440Y0058026D03*
X0075160Y0058466D03*
D262*
X0079180Y0058026D03*
X0081020Y0060226D03*
X0087180Y0058026D03*
X0089260Y0060186D03*
X0089260Y0061066D03*
X0086260Y0074986D03*
X0077300Y0074986D03*
D263*
X0076920Y0061666D03*
X0075160Y0061666D03*
X0075160Y0059586D03*
X0076520Y0058066D03*
X0079000Y0061666D03*
X0081040Y0060146D03*
X0082680Y0058466D03*
X0087560Y0061666D03*
X0089240Y0061146D03*
X0088320Y0058546D03*
D264*
X0086700Y0058066D03*
X0078700Y0058066D03*
D265*
X0080300Y0058066D03*
D266*
X0078800Y0058306D03*
X0077000Y0058106D03*
X0085000Y0058106D03*
X0086800Y0058306D03*
D267*
X0086720Y0058106D03*
X0081640Y0061506D03*
X0078720Y0058106D03*
D268*
X0088320Y0058106D03*
D269*
X0088320Y0058266D03*
X0087240Y0061266D03*
X0090520Y0059786D03*
X0083480Y0059826D03*
X0083480Y0061426D03*
X0081600Y0059746D03*
X0078720Y0058146D03*
X0076920Y0058386D03*
X0073080Y0059826D03*
X0073080Y0061426D03*
X0077400Y0074546D03*
X0086160Y0074546D03*
D270*
X0083480Y0061266D03*
X0083480Y0059986D03*
X0084920Y0058226D03*
X0085520Y0059786D03*
X0081680Y0061386D03*
X0076920Y0061226D03*
X0076920Y0060026D03*
X0076920Y0058226D03*
X0090520Y0059946D03*
X0090480Y0061226D03*
D271*
X0090480Y0061346D03*
X0090520Y0059826D03*
X0088320Y0058226D03*
X0087280Y0061386D03*
X0086760Y0058226D03*
X0083480Y0059866D03*
X0083480Y0061386D03*
X0081720Y0060546D03*
X0081560Y0060746D03*
X0078760Y0058226D03*
X0076920Y0058346D03*
X0077000Y0059826D03*
D272*
X0076920Y0061306D03*
X0076920Y0058306D03*
X0078760Y0061506D03*
X0074920Y0061506D03*
X0083480Y0061306D03*
X0087320Y0061506D03*
X0090480Y0061306D03*
D273*
X0088340Y0058306D03*
D274*
X0088320Y0058346D03*
X0084920Y0058426D03*
X0083480Y0059746D03*
X0076920Y0058426D03*
D275*
X0076980Y0059786D03*
X0076940Y0061426D03*
X0077380Y0063546D03*
X0081460Y0060826D03*
X0081820Y0060466D03*
X0084940Y0058386D03*
X0087220Y0061226D03*
X0088820Y0061466D03*
X0088820Y0059786D03*
X0090460Y0061426D03*
X0086180Y0063546D03*
D276*
X0088320Y0058386D03*
X0081360Y0060866D03*
X0077360Y0063466D03*
D277*
X0077340Y0063386D03*
X0079060Y0058426D03*
X0086220Y0063386D03*
X0087060Y0058426D03*
X0090460Y0061586D03*
D278*
X0082700Y0058426D03*
X0077300Y0063226D03*
X0073100Y0059586D03*
X0072500Y0060546D03*
X0072500Y0060586D03*
X0072500Y0060626D03*
X0072500Y0060666D03*
D279*
X0077400Y0060106D03*
X0082680Y0058506D03*
X0086240Y0074906D03*
X0077320Y0074906D03*
D280*
X0075160Y0058546D03*
X0089240Y0060146D03*
D281*
X0088820Y0061586D03*
X0086220Y0063426D03*
X0076980Y0059666D03*
D282*
X0081600Y0059666D03*
X0086200Y0063466D03*
D283*
X0088820Y0059706D03*
X0083460Y0059706D03*
X0073100Y0059706D03*
D284*
X0073100Y0061506D03*
X0076940Y0061506D03*
X0076980Y0059706D03*
X0090460Y0061506D03*
D285*
X0088820Y0061506D03*
X0081620Y0059706D03*
D286*
X0090520Y0059706D03*
D287*
X0088820Y0059746D03*
X0081660Y0061546D03*
X0076980Y0059746D03*
X0073100Y0059786D03*
X0077380Y0074586D03*
X0086180Y0074586D03*
D288*
X0086160Y0063706D03*
X0085480Y0059906D03*
X0078840Y0061306D03*
X0077400Y0063706D03*
X0075000Y0061306D03*
X0075000Y0059906D03*
D289*
X0076940Y0060426D03*
X0076940Y0060466D03*
X0076940Y0060786D03*
X0076940Y0060826D03*
X0081540Y0059946D03*
X0086140Y0063746D03*
D290*
X0081580Y0060026D03*
X0077420Y0063746D03*
D291*
X0073600Y0060106D03*
X0072600Y0060106D03*
X0083000Y0060106D03*
D292*
X0084940Y0060106D03*
X0088300Y0060106D03*
X0074540Y0060106D03*
D293*
X0090940Y0060106D03*
D294*
X0086260Y0074946D03*
X0081020Y0060186D03*
X0077300Y0074946D03*
D295*
X0089260Y0061026D03*
X0089260Y0060226D03*
D296*
X0089260Y0060266D03*
X0089260Y0060986D03*
X0082140Y0061026D03*
D297*
X0081020Y0060306D03*
D298*
X0081780Y0060506D03*
D299*
X0082100Y0061106D03*
D300*
X0089240Y0061106D03*
D301*
X0087260Y0061306D03*
D302*
X0083480Y0061506D03*
D303*
X0086200Y0063506D03*
X0077360Y0063506D03*
D304*
X0077420Y0063786D03*
X0086140Y0063786D03*
D305*
X0077440Y0063826D03*
D306*
X0086120Y0063826D03*
D307*
X0086120Y0063866D03*
X0077440Y0063866D03*
D308*
X0077460Y0063906D03*
X0086100Y0063906D03*
D309*
X0086100Y0063946D03*
X0081780Y0076186D03*
X0081780Y0076226D03*
X0081780Y0076266D03*
X0081780Y0076346D03*
X0081780Y0076386D03*
X0077460Y0063946D03*
D310*
X0077480Y0063986D03*
X0086080Y0063986D03*
D311*
X0086080Y0064026D03*
X0077480Y0064026D03*
D312*
X0077500Y0064066D03*
X0086060Y0064066D03*
D313*
X0086060Y0064106D03*
X0081780Y0075306D03*
X0077500Y0064106D03*
D314*
X0079360Y0064106D03*
X0084200Y0064106D03*
X0086200Y0074706D03*
X0077360Y0074706D03*
D315*
X0078000Y0064146D03*
X0085560Y0064146D03*
D316*
X0085580Y0064186D03*
X0077980Y0064186D03*
D317*
X0077980Y0064226D03*
X0081780Y0074266D03*
X0085580Y0064226D03*
D318*
X0084920Y0065946D03*
X0084880Y0065986D03*
X0084880Y0066026D03*
X0084840Y0066066D03*
X0078760Y0066146D03*
X0078760Y0066186D03*
X0078760Y0066226D03*
X0078720Y0066066D03*
X0078680Y0066026D03*
X0078680Y0065986D03*
X0077960Y0064266D03*
D319*
X0084800Y0066146D03*
X0084800Y0066186D03*
X0084800Y0066226D03*
X0085600Y0064266D03*
D320*
X0085600Y0064306D03*
X0085040Y0065706D03*
X0084800Y0066306D03*
X0078760Y0066306D03*
X0077960Y0064306D03*
D321*
X0077940Y0064346D03*
X0078420Y0065546D03*
X0078460Y0065586D03*
X0078500Y0065666D03*
X0078780Y0066346D03*
X0078780Y0066386D03*
X0084780Y0066386D03*
X0084780Y0066346D03*
X0085060Y0065666D03*
X0085100Y0065586D03*
X0085140Y0065546D03*
X0085620Y0064346D03*
D322*
X0085640Y0064386D03*
X0085240Y0065346D03*
X0085200Y0065426D03*
X0085160Y0065466D03*
X0084800Y0066426D03*
X0078760Y0066426D03*
X0078400Y0065466D03*
X0078360Y0065426D03*
X0078320Y0065346D03*
X0077920Y0064386D03*
D323*
X0077920Y0064426D03*
X0078160Y0065066D03*
X0078200Y0065146D03*
X0078240Y0065186D03*
X0078320Y0067626D03*
X0078400Y0070546D03*
X0085160Y0070546D03*
X0085240Y0067626D03*
X0085320Y0065186D03*
X0085360Y0065146D03*
X0085400Y0065066D03*
X0085640Y0064426D03*
D324*
X0085660Y0064466D03*
X0085500Y0064866D03*
X0085460Y0064946D03*
X0085140Y0070586D03*
X0078340Y0067586D03*
X0078140Y0065026D03*
X0078140Y0064986D03*
X0078100Y0064946D03*
X0078060Y0064866D03*
X0077900Y0064466D03*
D325*
X0077920Y0064506D03*
X0078080Y0064906D03*
X0085480Y0064906D03*
X0085640Y0064506D03*
D326*
X0085660Y0064546D03*
X0085660Y0064586D03*
X0085620Y0064626D03*
X0085620Y0064666D03*
X0084780Y0066626D03*
X0084780Y0066666D03*
X0085100Y0067466D03*
X0085300Y0070466D03*
X0085100Y0070626D03*
X0085060Y0070666D03*
X0081780Y0074186D03*
X0078500Y0070666D03*
X0078460Y0070626D03*
X0078260Y0070466D03*
X0078460Y0067466D03*
X0078780Y0066666D03*
X0078780Y0066626D03*
X0077940Y0064666D03*
X0077940Y0064626D03*
X0077900Y0064586D03*
X0077900Y0064546D03*
D327*
X0077980Y0064706D03*
X0078420Y0067506D03*
X0085140Y0067506D03*
X0085580Y0064706D03*
D328*
X0085560Y0064746D03*
X0085560Y0064786D03*
X0085520Y0064826D03*
X0085320Y0067666D03*
X0078240Y0067666D03*
X0078040Y0064826D03*
X0078000Y0064786D03*
X0078000Y0064746D03*
D329*
X0078780Y0066546D03*
X0078780Y0066586D03*
X0078380Y0067546D03*
X0078420Y0070586D03*
X0084780Y0066586D03*
X0084780Y0066546D03*
X0085180Y0067546D03*
X0085220Y0067586D03*
X0085420Y0065026D03*
X0085420Y0064986D03*
D330*
X0085360Y0065106D03*
X0084800Y0066506D03*
X0085200Y0070506D03*
X0078760Y0066506D03*
X0078200Y0065106D03*
X0078360Y0070506D03*
D331*
X0078780Y0066466D03*
X0078340Y0065386D03*
X0078260Y0065266D03*
X0078260Y0065226D03*
X0081780Y0074226D03*
X0084780Y0066466D03*
X0085220Y0065386D03*
D332*
X0085300Y0065266D03*
X0085300Y0065226D03*
D333*
X0078300Y0065306D03*
D334*
X0085260Y0065306D03*
D335*
X0085140Y0065506D03*
X0078420Y0065506D03*
D336*
X0078480Y0065626D03*
X0085080Y0065626D03*
D337*
X0078520Y0065706D03*
D338*
X0078540Y0065746D03*
X0078580Y0065826D03*
X0078620Y0065866D03*
X0078660Y0065946D03*
X0078780Y0066266D03*
X0084780Y0066266D03*
X0084940Y0065866D03*
X0084980Y0065826D03*
X0085020Y0065746D03*
D339*
X0085000Y0065786D03*
X0078560Y0065786D03*
D340*
X0078620Y0065906D03*
X0084940Y0065906D03*
D341*
X0084820Y0066106D03*
X0078740Y0066106D03*
D342*
X0078760Y0066706D03*
X0078520Y0070706D03*
X0085040Y0070706D03*
D343*
X0084800Y0066706D03*
D344*
X0084780Y0066746D03*
X0084780Y0066786D03*
X0085020Y0067386D03*
X0084980Y0070746D03*
X0078780Y0066786D03*
X0078780Y0066746D03*
X0078540Y0067386D03*
X0078580Y0070746D03*
D345*
X0078620Y0070786D03*
X0078660Y0070826D03*
X0078140Y0070426D03*
X0078780Y0066866D03*
X0078780Y0066826D03*
X0084780Y0066826D03*
X0084780Y0066866D03*
X0085420Y0070426D03*
X0084940Y0070786D03*
X0084900Y0070826D03*
D346*
X0084800Y0066906D03*
X0078760Y0066906D03*
D347*
X0078780Y0066946D03*
X0078780Y0066986D03*
X0078660Y0067226D03*
X0081780Y0074146D03*
X0084860Y0070866D03*
X0084780Y0066986D03*
X0084780Y0066946D03*
D348*
X0084780Y0067026D03*
X0084780Y0067066D03*
X0084820Y0067146D03*
X0085580Y0067746D03*
X0078780Y0067066D03*
X0078780Y0067026D03*
X0078020Y0070386D03*
D349*
X0078740Y0070906D03*
X0078740Y0067106D03*
D350*
X0084820Y0067106D03*
X0084820Y0070906D03*
D351*
X0085540Y0070386D03*
X0078740Y0067146D03*
D352*
X0078720Y0067186D03*
X0084840Y0067186D03*
D353*
X0084900Y0067226D03*
X0078700Y0070866D03*
D354*
X0078640Y0067266D03*
X0084920Y0067266D03*
D355*
X0084980Y0067306D03*
X0078580Y0067306D03*
D356*
X0078560Y0067346D03*
X0085000Y0067346D03*
D357*
X0085080Y0067426D03*
X0078480Y0067426D03*
D358*
X0078120Y0067706D03*
D359*
X0085440Y0067706D03*
D360*
X0078000Y0067746D03*
D361*
X0077880Y0067786D03*
X0077880Y0070346D03*
X0078880Y0070986D03*
X0084680Y0070986D03*
X0085680Y0070346D03*
X0085680Y0067786D03*
D362*
X0077740Y0067826D03*
D363*
X0085820Y0067826D03*
D364*
X0085940Y0067866D03*
X0085900Y0070266D03*
X0077660Y0070266D03*
X0077620Y0067866D03*
D365*
X0077500Y0067906D03*
D366*
X0086060Y0067906D03*
D367*
X0086180Y0067946D03*
X0086500Y0068666D03*
X0086500Y0068746D03*
X0086500Y0068786D03*
X0086500Y0068826D03*
X0086500Y0068866D03*
X0086500Y0069266D03*
X0086500Y0069346D03*
X0086500Y0069386D03*
X0086500Y0069426D03*
X0086500Y0069466D03*
X0077380Y0067946D03*
X0077060Y0068666D03*
X0077060Y0068746D03*
X0077060Y0068786D03*
X0077060Y0068826D03*
X0077060Y0068866D03*
X0077060Y0069266D03*
X0077060Y0069346D03*
X0077060Y0069386D03*
X0077060Y0069426D03*
X0077060Y0069466D03*
D368*
X0077140Y0069866D03*
X0077140Y0068226D03*
X0077140Y0068186D03*
X0077220Y0068026D03*
X0077260Y0067986D03*
X0086340Y0068026D03*
X0086420Y0068186D03*
X0086420Y0068226D03*
X0086420Y0069866D03*
D369*
X0086300Y0067986D03*
D370*
X0086360Y0068066D03*
X0086400Y0068146D03*
X0086400Y0069946D03*
X0086400Y0069986D03*
X0086360Y0070026D03*
X0086360Y0070066D03*
X0077200Y0070066D03*
X0077200Y0070026D03*
X0077160Y0069986D03*
X0077160Y0069946D03*
X0077160Y0068146D03*
X0077200Y0068066D03*
D371*
X0077180Y0068106D03*
X0077140Y0069906D03*
X0086420Y0069906D03*
X0086380Y0068106D03*
D372*
X0086440Y0068266D03*
X0086440Y0068346D03*
X0086440Y0069786D03*
X0086440Y0069826D03*
X0086280Y0070146D03*
X0077280Y0070146D03*
X0077120Y0069826D03*
X0077120Y0069786D03*
X0077120Y0068346D03*
X0077120Y0068266D03*
D373*
X0077120Y0068306D03*
X0086440Y0068306D03*
D374*
X0086460Y0068386D03*
X0086460Y0068426D03*
X0086460Y0068466D03*
X0086460Y0069666D03*
X0086460Y0069746D03*
X0077100Y0069746D03*
X0077100Y0069666D03*
X0077100Y0068466D03*
X0077100Y0068426D03*
X0077100Y0068386D03*
D375*
X0077080Y0068506D03*
X0077080Y0069506D03*
X0086480Y0069506D03*
X0086480Y0068506D03*
D376*
X0086480Y0068546D03*
X0086480Y0068586D03*
X0086480Y0068626D03*
X0086480Y0069546D03*
X0086480Y0069586D03*
X0086480Y0069626D03*
X0077080Y0069626D03*
X0077080Y0069586D03*
X0077080Y0069546D03*
X0077080Y0068626D03*
X0077080Y0068586D03*
X0077080Y0068546D03*
D377*
X0077060Y0068706D03*
X0077060Y0068906D03*
X0077060Y0069306D03*
X0086500Y0069306D03*
X0086500Y0068906D03*
X0086500Y0068706D03*
D378*
X0086520Y0068946D03*
X0086520Y0068986D03*
X0086520Y0069026D03*
X0086520Y0069066D03*
X0086520Y0069146D03*
X0086520Y0069186D03*
X0086520Y0069226D03*
X0086160Y0070186D03*
X0077040Y0069226D03*
X0077040Y0069186D03*
X0077040Y0069146D03*
X0077040Y0069066D03*
X0077040Y0069026D03*
X0077040Y0068986D03*
X0077040Y0068946D03*
D379*
X0077040Y0069106D03*
X0086520Y0069106D03*
D380*
X0086460Y0069706D03*
X0077100Y0069706D03*
D381*
X0077240Y0070106D03*
X0086320Y0070106D03*
D382*
X0077400Y0070186D03*
D383*
X0077520Y0070226D03*
X0086040Y0070226D03*
D384*
X0085780Y0070306D03*
X0077780Y0070306D03*
D385*
X0078820Y0070946D03*
X0084740Y0070946D03*
D386*
X0084580Y0071026D03*
X0078980Y0071026D03*
D387*
X0081780Y0071066D03*
X0081780Y0072426D03*
D388*
X0081780Y0071106D03*
D389*
X0081780Y0071146D03*
X0081780Y0072346D03*
X0081780Y0072386D03*
D390*
X0081780Y0071266D03*
X0081780Y0071226D03*
X0081780Y0071186D03*
D391*
X0081780Y0071306D03*
D392*
X0081780Y0071346D03*
X0081780Y0072226D03*
X0081780Y0072266D03*
D393*
X0081780Y0072186D03*
X0081780Y0071426D03*
X0081780Y0071386D03*
D394*
X0081780Y0071466D03*
X0081780Y0071546D03*
X0081780Y0072146D03*
D395*
X0081780Y0072106D03*
X0081780Y0071506D03*
D396*
X0081780Y0071586D03*
X0081780Y0071626D03*
X0081780Y0072066D03*
D397*
X0081780Y0072026D03*
X0081780Y0071986D03*
X0081780Y0071666D03*
D398*
X0081780Y0071706D03*
D399*
X0081780Y0071746D03*
X0081780Y0071786D03*
X0081780Y0071826D03*
X0081780Y0071946D03*
D400*
X0081780Y0071866D03*
D401*
X0081780Y0071906D03*
D402*
X0081780Y0072306D03*
D403*
X0081780Y0072466D03*
D404*
X0081780Y0072506D03*
D405*
X0081780Y0072546D03*
D406*
X0081780Y0072586D03*
D407*
X0081780Y0072626D03*
X0081780Y0072666D03*
D408*
X0081780Y0072706D03*
D409*
X0081780Y0072746D03*
X0081780Y0072786D03*
D410*
X0081780Y0072826D03*
D411*
X0081780Y0072866D03*
D412*
X0081780Y0072906D03*
D413*
X0081780Y0072946D03*
D414*
X0081780Y0072986D03*
X0081780Y0073026D03*
D415*
X0081780Y0073066D03*
D416*
X0081780Y0073106D03*
D417*
X0081780Y0073146D03*
X0081780Y0073866D03*
D418*
X0081780Y0073826D03*
X0081780Y0073186D03*
D419*
X0081780Y0073226D03*
X0081780Y0073786D03*
D420*
X0081780Y0073746D03*
X0081780Y0073266D03*
D421*
X0081780Y0073306D03*
D422*
X0081780Y0073346D03*
D423*
X0081780Y0073386D03*
X0081780Y0073426D03*
X0081780Y0073666D03*
D424*
X0081780Y0073626D03*
X0081780Y0073586D03*
X0081780Y0073466D03*
D425*
X0081780Y0073506D03*
D426*
X0081780Y0073546D03*
D427*
X0081780Y0073706D03*
D428*
X0081780Y0073906D03*
D429*
X0081780Y0074746D03*
X0081780Y0074786D03*
X0081780Y0074826D03*
X0081780Y0074866D03*
X0077540Y0073946D03*
X0086020Y0073946D03*
D430*
X0081780Y0073946D03*
D431*
X0077520Y0073986D03*
X0086040Y0073986D03*
D432*
X0081780Y0073986D03*
D433*
X0077520Y0074026D03*
X0086040Y0074026D03*
D434*
X0081780Y0074026D03*
D435*
X0077500Y0074066D03*
D436*
X0081780Y0074066D03*
D437*
X0081780Y0075546D03*
X0081780Y0075586D03*
X0081780Y0075626D03*
X0081780Y0075666D03*
X0081780Y0075746D03*
X0086060Y0074066D03*
D438*
X0086060Y0074106D03*
X0081780Y0075906D03*
X0077500Y0074106D03*
D439*
X0081780Y0074106D03*
D440*
X0081780Y0075986D03*
X0081780Y0076026D03*
X0081780Y0076066D03*
X0081780Y0076146D03*
X0077500Y0074146D03*
D441*
X0086080Y0074146D03*
D442*
X0086080Y0074186D03*
X0077480Y0074186D03*
D443*
X0077480Y0074226D03*
X0086080Y0074226D03*
D444*
X0086100Y0074266D03*
X0077460Y0074266D03*
D445*
X0077460Y0074306D03*
X0086100Y0074306D03*
D446*
X0081780Y0074306D03*
D447*
X0081780Y0074346D03*
D448*
X0081780Y0074386D03*
D449*
X0081780Y0074426D03*
D450*
X0081780Y0074466D03*
D451*
X0077400Y0074506D03*
X0086160Y0074506D03*
D452*
X0081780Y0074506D03*
D453*
X0081780Y0074546D03*
X0081780Y0074586D03*
X0081780Y0074626D03*
X0081780Y0074666D03*
D454*
X0081780Y0074706D03*
D455*
X0081780Y0074906D03*
X0081780Y0075106D03*
D456*
X0081780Y0075066D03*
X0081780Y0075026D03*
X0081780Y0074986D03*
X0081780Y0074946D03*
D457*
X0081780Y0075146D03*
X0081780Y0075186D03*
X0081780Y0075226D03*
X0081780Y0075266D03*
D458*
X0081780Y0075346D03*
X0081780Y0075386D03*
X0081780Y0075426D03*
X0081780Y0075466D03*
D459*
X0081780Y0075506D03*
D460*
X0081780Y0075706D03*
D461*
X0081780Y0075786D03*
X0081780Y0075826D03*
X0081780Y0075866D03*
X0081780Y0075946D03*
D462*
X0081780Y0076106D03*
D463*
X0081780Y0076306D03*
D464*
X0081780Y0076426D03*
M02*
