G75*
%MOIN*%
%OFA0B0*%
%FSLAX25Y25*%
%IPPOS*%
%LPD*%
%AMOC8*
5,1,8,0,0,1.08239X$1,22.5*
%
%ADD10R,0.03550X0.03550*%
%ADD11R,0.06306X0.03943*%
%ADD12C,0.05943*%
%ADD13C,0.00000*%
%ADD14C,0.16211*%
D10*
X0048847Y0084006D03*
X0054753Y0084006D03*
X0054753Y0114006D03*
X0048847Y0114006D03*
X0048847Y0144006D03*
X0054753Y0144006D03*
X0083847Y0144006D03*
X0089753Y0144006D03*
X0089753Y0114006D03*
X0083847Y0114006D03*
X0083847Y0084006D03*
X0089753Y0084006D03*
X0118847Y0084006D03*
X0124753Y0084006D03*
X0124753Y0114006D03*
X0118847Y0114006D03*
X0118847Y0144006D03*
X0124753Y0144006D03*
D11*
X0131643Y0152313D03*
X0131643Y0165699D03*
X0111957Y0165699D03*
X0111957Y0152313D03*
X0111957Y0135699D03*
X0111957Y0122313D03*
X0111957Y0105699D03*
X0111957Y0092313D03*
X0096643Y0092313D03*
X0096643Y0105699D03*
X0096643Y0122313D03*
X0096643Y0135699D03*
X0096643Y0152313D03*
X0096643Y0165699D03*
X0076957Y0165699D03*
X0076957Y0152313D03*
X0076957Y0135699D03*
X0076957Y0122313D03*
X0076957Y0105699D03*
X0076957Y0092313D03*
X0061643Y0092313D03*
X0061643Y0105699D03*
X0061643Y0122313D03*
X0061643Y0135699D03*
X0061643Y0152313D03*
X0061643Y0165699D03*
X0041957Y0165699D03*
X0041957Y0152313D03*
X0041957Y0135699D03*
X0041957Y0122313D03*
X0041957Y0105699D03*
X0041957Y0092313D03*
X0131643Y0092313D03*
X0131643Y0105699D03*
X0131643Y0122313D03*
X0131643Y0135699D03*
D12*
X0096800Y0056778D02*
X0096800Y0051234D01*
X0086800Y0051234D02*
X0086800Y0056778D01*
X0076800Y0056778D02*
X0076800Y0051234D01*
D13*
X0016800Y0024006D02*
X0156800Y0024006D01*
X0157042Y0024009D01*
X0157283Y0024018D01*
X0157524Y0024032D01*
X0157765Y0024053D01*
X0158005Y0024079D01*
X0158245Y0024111D01*
X0158484Y0024149D01*
X0158721Y0024192D01*
X0158958Y0024242D01*
X0159193Y0024297D01*
X0159427Y0024357D01*
X0159659Y0024424D01*
X0159890Y0024495D01*
X0160119Y0024573D01*
X0160346Y0024656D01*
X0160571Y0024744D01*
X0160794Y0024838D01*
X0161014Y0024937D01*
X0161232Y0025042D01*
X0161447Y0025151D01*
X0161660Y0025266D01*
X0161870Y0025386D01*
X0162076Y0025511D01*
X0162280Y0025641D01*
X0162481Y0025776D01*
X0162678Y0025916D01*
X0162872Y0026060D01*
X0163062Y0026209D01*
X0163248Y0026363D01*
X0163431Y0026521D01*
X0163610Y0026683D01*
X0163785Y0026850D01*
X0163956Y0027021D01*
X0164123Y0027196D01*
X0164285Y0027375D01*
X0164443Y0027558D01*
X0164597Y0027744D01*
X0164746Y0027934D01*
X0164890Y0028128D01*
X0165030Y0028325D01*
X0165165Y0028526D01*
X0165295Y0028730D01*
X0165420Y0028936D01*
X0165540Y0029146D01*
X0165655Y0029359D01*
X0165764Y0029574D01*
X0165869Y0029792D01*
X0165968Y0030012D01*
X0166062Y0030235D01*
X0166150Y0030460D01*
X0166233Y0030687D01*
X0166311Y0030916D01*
X0166382Y0031147D01*
X0166449Y0031379D01*
X0166509Y0031613D01*
X0166564Y0031848D01*
X0166614Y0032085D01*
X0166657Y0032322D01*
X0166695Y0032561D01*
X0166727Y0032801D01*
X0166753Y0033041D01*
X0166774Y0033282D01*
X0166788Y0033523D01*
X0166797Y0033764D01*
X0166800Y0034006D01*
X0166800Y0124006D01*
X0166776Y0125954D01*
X0166705Y0127901D01*
X0166587Y0129846D01*
X0166421Y0131787D01*
X0166208Y0133723D01*
X0165947Y0135654D01*
X0165640Y0137578D01*
X0165286Y0139494D01*
X0164886Y0141400D01*
X0164439Y0143297D01*
X0163947Y0145182D01*
X0163408Y0147054D01*
X0162824Y0148913D01*
X0162195Y0150756D01*
X0161521Y0152584D01*
X0160803Y0154396D01*
X0160041Y0156189D01*
X0159236Y0157963D01*
X0158388Y0159716D01*
X0157497Y0161449D01*
X0156564Y0163159D01*
X0155590Y0164847D01*
X0154575Y0166510D01*
X0153520Y0168147D01*
X0152425Y0169759D01*
X0151292Y0171343D01*
X0150120Y0172900D01*
X0148910Y0174427D01*
X0147664Y0175925D01*
X0146382Y0177392D01*
X0145064Y0178827D01*
X0143712Y0180229D01*
X0142326Y0181598D01*
X0140907Y0182933D01*
X0139456Y0184233D01*
X0137974Y0185498D01*
X0136461Y0186726D01*
X0134919Y0187916D01*
X0133349Y0189069D01*
X0131751Y0190183D01*
X0130126Y0191258D01*
X0128475Y0192293D01*
X0126800Y0193288D01*
X0125101Y0194242D01*
X0123379Y0195153D01*
X0121636Y0196023D01*
X0119872Y0196850D01*
X0118088Y0197634D01*
X0116286Y0198374D01*
X0114467Y0199070D01*
X0112630Y0199721D01*
X0110779Y0200328D01*
X0108913Y0200889D01*
X0107035Y0201405D01*
X0105144Y0201874D01*
X0103242Y0202298D01*
X0101331Y0202675D01*
X0099411Y0203006D01*
X0097483Y0203289D01*
X0095550Y0203526D01*
X0093611Y0203716D01*
X0091668Y0203858D01*
X0089722Y0203953D01*
X0087774Y0204000D01*
X0085826Y0204000D01*
X0083878Y0203953D01*
X0081932Y0203858D01*
X0079989Y0203716D01*
X0078050Y0203526D01*
X0076117Y0203289D01*
X0074189Y0203006D01*
X0072269Y0202675D01*
X0070358Y0202298D01*
X0068456Y0201874D01*
X0066565Y0201405D01*
X0064687Y0200889D01*
X0062821Y0200328D01*
X0060970Y0199721D01*
X0059133Y0199070D01*
X0057314Y0198374D01*
X0055512Y0197634D01*
X0053728Y0196850D01*
X0051964Y0196023D01*
X0050221Y0195153D01*
X0048499Y0194242D01*
X0046800Y0193288D01*
X0045125Y0192293D01*
X0043474Y0191258D01*
X0041849Y0190183D01*
X0040251Y0189069D01*
X0038681Y0187916D01*
X0037139Y0186726D01*
X0035626Y0185498D01*
X0034144Y0184233D01*
X0032693Y0182933D01*
X0031274Y0181598D01*
X0029888Y0180229D01*
X0028536Y0178827D01*
X0027218Y0177392D01*
X0025936Y0175925D01*
X0024690Y0174427D01*
X0023480Y0172900D01*
X0022308Y0171343D01*
X0021175Y0169759D01*
X0020080Y0168147D01*
X0019025Y0166510D01*
X0018010Y0164847D01*
X0017036Y0163159D01*
X0016103Y0161449D01*
X0015212Y0159716D01*
X0014364Y0157963D01*
X0013559Y0156189D01*
X0012797Y0154396D01*
X0012079Y0152584D01*
X0011405Y0150756D01*
X0010776Y0148913D01*
X0010192Y0147054D01*
X0009653Y0145182D01*
X0009161Y0143297D01*
X0008714Y0141400D01*
X0008314Y0139494D01*
X0007960Y0137578D01*
X0007653Y0135654D01*
X0007392Y0133723D01*
X0007179Y0131787D01*
X0007013Y0129846D01*
X0006895Y0127901D01*
X0006824Y0125954D01*
X0006800Y0124006D01*
X0006800Y0034006D01*
X0006803Y0033764D01*
X0006812Y0033523D01*
X0006826Y0033282D01*
X0006847Y0033041D01*
X0006873Y0032801D01*
X0006905Y0032561D01*
X0006943Y0032322D01*
X0006986Y0032085D01*
X0007036Y0031848D01*
X0007091Y0031613D01*
X0007151Y0031379D01*
X0007218Y0031147D01*
X0007289Y0030916D01*
X0007367Y0030687D01*
X0007450Y0030460D01*
X0007538Y0030235D01*
X0007632Y0030012D01*
X0007731Y0029792D01*
X0007836Y0029574D01*
X0007945Y0029359D01*
X0008060Y0029146D01*
X0008180Y0028936D01*
X0008305Y0028730D01*
X0008435Y0028526D01*
X0008570Y0028325D01*
X0008710Y0028128D01*
X0008854Y0027934D01*
X0009003Y0027744D01*
X0009157Y0027558D01*
X0009315Y0027375D01*
X0009477Y0027196D01*
X0009644Y0027021D01*
X0009815Y0026850D01*
X0009990Y0026683D01*
X0010169Y0026521D01*
X0010352Y0026363D01*
X0010538Y0026209D01*
X0010728Y0026060D01*
X0010922Y0025916D01*
X0011119Y0025776D01*
X0011320Y0025641D01*
X0011524Y0025511D01*
X0011730Y0025386D01*
X0011940Y0025266D01*
X0012153Y0025151D01*
X0012368Y0025042D01*
X0012586Y0024937D01*
X0012806Y0024838D01*
X0013029Y0024744D01*
X0013254Y0024656D01*
X0013481Y0024573D01*
X0013710Y0024495D01*
X0013941Y0024424D01*
X0014173Y0024357D01*
X0014407Y0024297D01*
X0014642Y0024242D01*
X0014879Y0024192D01*
X0015116Y0024149D01*
X0015355Y0024111D01*
X0015595Y0024079D01*
X0015835Y0024053D01*
X0016076Y0024032D01*
X0016317Y0024018D01*
X0016558Y0024009D01*
X0016800Y0024006D01*
D14*
X0021800Y0039006D03*
X0021800Y0124006D03*
X0151800Y0124006D03*
X0151800Y0039006D03*
M02*
