G75*
%MOIN*%
%OFA0B0*%
%FSLAX25Y25*%
%IPPOS*%
%LPD*%
%AMOC8*
5,1,8,0,0,1.08239X$1,22.5*
%
%ADD10R,0.05000X0.02500*%
%ADD11C,0.00000*%
%ADD12R,0.03150X0.03150*%
D10*
X0051564Y0134300D03*
X0051564Y0139300D03*
X0051564Y0144300D03*
X0051564Y0149300D03*
X0072036Y0149300D03*
X0072036Y0144300D03*
X0072036Y0139300D03*
X0072036Y0134300D03*
D11*
X0001800Y0116800D02*
X0001800Y0016800D01*
X0001804Y0016438D01*
X0001818Y0016075D01*
X0001839Y0015713D01*
X0001870Y0015352D01*
X0001909Y0014992D01*
X0001957Y0014633D01*
X0002014Y0014275D01*
X0002079Y0013918D01*
X0002153Y0013563D01*
X0002236Y0013210D01*
X0002327Y0012859D01*
X0002426Y0012511D01*
X0002534Y0012165D01*
X0002650Y0011821D01*
X0002775Y0011481D01*
X0002907Y0011144D01*
X0003048Y0010810D01*
X0003197Y0010479D01*
X0003354Y0010152D01*
X0003518Y0009829D01*
X0003690Y0009510D01*
X0003870Y0009196D01*
X0004058Y0008885D01*
X0004253Y0008580D01*
X0004455Y0008279D01*
X0004665Y0007983D01*
X0004881Y0007693D01*
X0005105Y0007407D01*
X0005335Y0007127D01*
X0005572Y0006853D01*
X0005816Y0006585D01*
X0006066Y0006322D01*
X0006322Y0006066D01*
X0006585Y0005816D01*
X0006853Y0005572D01*
X0007127Y0005335D01*
X0007407Y0005105D01*
X0007693Y0004881D01*
X0007983Y0004665D01*
X0008279Y0004455D01*
X0008580Y0004253D01*
X0008885Y0004058D01*
X0009196Y0003870D01*
X0009510Y0003690D01*
X0009829Y0003518D01*
X0010152Y0003354D01*
X0010479Y0003197D01*
X0010810Y0003048D01*
X0011144Y0002907D01*
X0011481Y0002775D01*
X0011821Y0002650D01*
X0012165Y0002534D01*
X0012511Y0002426D01*
X0012859Y0002327D01*
X0013210Y0002236D01*
X0013563Y0002153D01*
X0013918Y0002079D01*
X0014275Y0002014D01*
X0014633Y0001957D01*
X0014992Y0001909D01*
X0015352Y0001870D01*
X0015713Y0001839D01*
X0016075Y0001818D01*
X0016438Y0001804D01*
X0016800Y0001800D01*
X0106800Y0001800D01*
X0107162Y0001804D01*
X0107525Y0001818D01*
X0107887Y0001839D01*
X0108248Y0001870D01*
X0108608Y0001909D01*
X0108967Y0001957D01*
X0109325Y0002014D01*
X0109682Y0002079D01*
X0110037Y0002153D01*
X0110390Y0002236D01*
X0110741Y0002327D01*
X0111089Y0002426D01*
X0111435Y0002534D01*
X0111779Y0002650D01*
X0112119Y0002775D01*
X0112456Y0002907D01*
X0112790Y0003048D01*
X0113121Y0003197D01*
X0113448Y0003354D01*
X0113771Y0003518D01*
X0114090Y0003690D01*
X0114404Y0003870D01*
X0114715Y0004058D01*
X0115020Y0004253D01*
X0115321Y0004455D01*
X0115617Y0004665D01*
X0115907Y0004881D01*
X0116193Y0005105D01*
X0116473Y0005335D01*
X0116747Y0005572D01*
X0117015Y0005816D01*
X0117278Y0006066D01*
X0117534Y0006322D01*
X0117784Y0006585D01*
X0118028Y0006853D01*
X0118265Y0007127D01*
X0118495Y0007407D01*
X0118719Y0007693D01*
X0118935Y0007983D01*
X0119145Y0008279D01*
X0119347Y0008580D01*
X0119542Y0008885D01*
X0119730Y0009196D01*
X0119910Y0009510D01*
X0120082Y0009829D01*
X0120246Y0010152D01*
X0120403Y0010479D01*
X0120552Y0010810D01*
X0120693Y0011144D01*
X0120825Y0011481D01*
X0120950Y0011821D01*
X0121066Y0012165D01*
X0121174Y0012511D01*
X0121273Y0012859D01*
X0121364Y0013210D01*
X0121447Y0013563D01*
X0121521Y0013918D01*
X0121586Y0014275D01*
X0121643Y0014633D01*
X0121691Y0014992D01*
X0121730Y0015352D01*
X0121761Y0015713D01*
X0121782Y0016075D01*
X0121796Y0016438D01*
X0121800Y0016800D01*
X0121800Y0116800D01*
X0121782Y0118261D01*
X0121729Y0119721D01*
X0121640Y0121180D01*
X0121516Y0122636D01*
X0121356Y0124088D01*
X0121161Y0125536D01*
X0120930Y0126979D01*
X0120665Y0128416D01*
X0120365Y0129846D01*
X0120030Y0131268D01*
X0119660Y0132682D01*
X0119256Y0134086D01*
X0118818Y0135480D01*
X0118346Y0136863D01*
X0117841Y0138234D01*
X0117302Y0139592D01*
X0116731Y0140937D01*
X0116127Y0142267D01*
X0115491Y0143583D01*
X0114823Y0144882D01*
X0114123Y0146165D01*
X0113392Y0147430D01*
X0112631Y0148678D01*
X0111840Y0149906D01*
X0111019Y0151115D01*
X0110169Y0152303D01*
X0109290Y0153470D01*
X0108383Y0154616D01*
X0107448Y0155739D01*
X0106486Y0156839D01*
X0105498Y0157915D01*
X0104484Y0158967D01*
X0103444Y0159994D01*
X0102380Y0160995D01*
X0101292Y0161971D01*
X0100180Y0162919D01*
X0099046Y0163840D01*
X0097889Y0164733D01*
X0096712Y0165597D01*
X0095513Y0166433D01*
X0094294Y0167239D01*
X0093056Y0168016D01*
X0091800Y0168762D01*
X0090526Y0169477D01*
X0089235Y0170161D01*
X0087927Y0170813D01*
X0086604Y0171433D01*
X0085266Y0172021D01*
X0083915Y0172576D01*
X0082550Y0173098D01*
X0081173Y0173586D01*
X0079784Y0174041D01*
X0078385Y0174462D01*
X0076976Y0174849D01*
X0075558Y0175201D01*
X0074132Y0175519D01*
X0072698Y0175802D01*
X0071258Y0176050D01*
X0069813Y0176263D01*
X0068362Y0176440D01*
X0066908Y0176582D01*
X0065451Y0176689D01*
X0063991Y0176760D01*
X0062531Y0176796D01*
X0061069Y0176796D01*
X0059609Y0176760D01*
X0058149Y0176689D01*
X0056692Y0176582D01*
X0055238Y0176440D01*
X0053787Y0176263D01*
X0052342Y0176050D01*
X0050902Y0175802D01*
X0049468Y0175519D01*
X0048042Y0175201D01*
X0046624Y0174849D01*
X0045215Y0174462D01*
X0043816Y0174041D01*
X0042427Y0173586D01*
X0041050Y0173098D01*
X0039685Y0172576D01*
X0038334Y0172021D01*
X0036996Y0171433D01*
X0035673Y0170813D01*
X0034365Y0170161D01*
X0033074Y0169477D01*
X0031800Y0168762D01*
X0030544Y0168016D01*
X0029306Y0167239D01*
X0028087Y0166433D01*
X0026888Y0165597D01*
X0025711Y0164733D01*
X0024554Y0163840D01*
X0023420Y0162919D01*
X0022308Y0161971D01*
X0021220Y0160995D01*
X0020156Y0159994D01*
X0019116Y0158967D01*
X0018102Y0157915D01*
X0017114Y0156839D01*
X0016152Y0155739D01*
X0015217Y0154616D01*
X0014310Y0153470D01*
X0013431Y0152303D01*
X0012581Y0151115D01*
X0011760Y0149906D01*
X0010969Y0148678D01*
X0010208Y0147430D01*
X0009477Y0146165D01*
X0008777Y0144882D01*
X0008109Y0143583D01*
X0007473Y0142267D01*
X0006869Y0140937D01*
X0006298Y0139592D01*
X0005759Y0138234D01*
X0005254Y0136863D01*
X0004782Y0135480D01*
X0004344Y0134086D01*
X0003940Y0132682D01*
X0003570Y0131268D01*
X0003235Y0129846D01*
X0002935Y0128416D01*
X0002670Y0126979D01*
X0002439Y0125536D01*
X0002244Y0124088D01*
X0002084Y0122636D01*
X0001960Y0121180D01*
X0001871Y0119721D01*
X0001818Y0118261D01*
X0001800Y0116800D01*
D12*
X0023847Y0056800D03*
X0029753Y0056800D03*
X0043847Y0056800D03*
X0049753Y0056800D03*
X0063847Y0056800D03*
X0069753Y0056800D03*
X0083847Y0056800D03*
X0089753Y0056800D03*
X0089753Y0071800D03*
X0083847Y0071800D03*
M02*
