G75*
%MOIN*%
%OFA0B0*%
%FSLAX25Y25*%
%IPPOS*%
%LPD*%
%AMOC8*
5,1,8,0,0,1.08239X$1,22.5*
%
%ADD10C,0.00000*%
%ADD11C,0.00300*%
%ADD12C,0.00400*%
%ADD13C,0.00600*%
%ADD14R,0.00520X0.00040*%
%ADD15R,0.00520X0.00040*%
%ADD16R,0.00760X0.00040*%
%ADD17R,0.00640X0.00040*%
%ADD18R,0.00440X0.00040*%
%ADD19R,0.00480X0.00040*%
%ADD20R,0.00520X0.00040*%
%ADD21R,0.00520X0.00040*%
%ADD22R,0.01400X0.00040*%
%ADD23R,0.00800X0.00040*%
%ADD24R,0.00480X0.00040*%
%ADD25R,0.00960X0.00040*%
%ADD26R,0.01440X0.00040*%
%ADD27R,0.01080X0.00040*%
%ADD28R,0.01520X0.00040*%
%ADD29R,0.01440X0.00040*%
%ADD30R,0.00560X0.00040*%
%ADD31R,0.01480X0.00040*%
%ADD32R,0.01200X0.00040*%
%ADD33R,0.01560X0.00040*%
%ADD34R,0.01320X0.00040*%
%ADD35R,0.01560X0.00040*%
%ADD36R,0.01520X0.00040*%
%ADD37R,0.00600X0.00040*%
%ADD38R,0.00560X0.00040*%
%ADD39R,0.01400X0.00040*%
%ADD40R,0.01600X0.00040*%
%ADD41R,0.00600X0.00040*%
%ADD42R,0.00640X0.00040*%
%ADD43R,0.01640X0.00040*%
%ADD44R,0.00680X0.00040*%
%ADD45R,0.01680X0.00040*%
%ADD46R,0.01680X0.00040*%
%ADD47R,0.01640X0.00040*%
%ADD48R,0.00720X0.00040*%
%ADD49R,0.01480X0.00040*%
%ADD50R,0.00760X0.00040*%
%ADD51R,0.00720X0.00040*%
%ADD52R,0.00640X0.00040*%
%ADD53R,0.00360X0.00040*%
%ADD54R,0.00240X0.00040*%
%ADD55R,0.00160X0.00040*%
%ADD56R,0.00840X0.00040*%
%ADD57R,0.00080X0.00040*%
%ADD58R,0.00880X0.00040*%
%ADD59R,0.00920X0.00040*%
%ADD60R,0.00960X0.00040*%
%ADD61R,0.01640X0.00040*%
%ADD62R,0.01760X0.00040*%
%ADD63R,0.00440X0.00040*%
%ADD64R,0.01000X0.00040*%
%ADD65R,0.01760X0.00040*%
%ADD66R,0.00440X0.00040*%
%ADD67R,0.01320X0.00040*%
%ADD68R,0.01200X0.00040*%
%ADD69R,0.00920X0.00040*%
%ADD70R,0.00840X0.00040*%
%ADD71R,0.00800X0.00040*%
%ADD72R,0.00080X0.00040*%
%ADD73R,0.00120X0.00040*%
%ADD74R,0.00240X0.00040*%
%ADD75R,0.00720X0.00040*%
%ADD76R,0.00200X0.00040*%
%ADD77R,0.00400X0.00040*%
%ADD78R,0.01240X0.00040*%
%ADD79R,0.01640X0.00040*%
%ADD80R,0.01440X0.00040*%
%ADD81R,0.01280X0.00040*%
%ADD82R,0.01520X0.00040*%
%ADD83R,0.01280X0.00040*%
%ADD84R,0.01520X0.00040*%
%ADD85R,0.01360X0.00040*%
%ADD86R,0.01440X0.00040*%
%ADD87R,0.01240X0.00040*%
%ADD88R,0.01120X0.00040*%
%ADD89R,0.01240X0.00040*%
%ADD90R,0.01040X0.00040*%
%ADD91R,0.00840X0.00040*%
%ADD92R,0.00440X0.00040*%
%ADD93R,0.00400X0.00040*%
%ADD94R,0.00320X0.00040*%
%ADD95R,0.00920X0.00040*%
%ADD96R,0.01040X0.00040*%
%ADD97R,0.01000X0.00040*%
%ADD98R,0.01080X0.00040*%
%ADD99R,0.01160X0.00040*%
%ADD100R,0.01040X0.00040*%
%ADD101R,0.01160X0.00040*%
%ADD102R,0.01600X0.00040*%
%ADD103R,0.01720X0.00040*%
%ADD104R,0.01720X0.00040*%
%ADD105R,0.00640X0.00040*%
%ADD106R,0.00680X0.00040*%
%ADD107R,0.00360X0.00040*%
%ADD108R,0.00280X0.00040*%
%ADD109R,0.00120X0.00040*%
%ADD110R,0.00040X0.00040*%
%ADD111R,0.00040X0.00040*%
%ADD112R,0.01320X0.00040*%
%ADD113R,0.00280X0.00040*%
%ADD114R,0.00320X0.00040*%
%ADD115R,0.01320X0.00040*%
%ADD116R,0.01120X0.00040*%
%ADD117R,0.01120X0.00040*%
%ADD118R,0.01800X0.00040*%
%ADD119R,0.01920X0.00040*%
%ADD120R,0.01920X0.00040*%
%ADD121R,0.02000X0.00040*%
%ADD122R,0.02120X0.00040*%
%ADD123R,0.02200X0.00040*%
%ADD124R,0.02320X0.00040*%
%ADD125R,0.02400X0.00040*%
%ADD126R,0.02520X0.00040*%
%ADD127R,0.02600X0.00040*%
%ADD128R,0.00880X0.00040*%
%ADD129R,0.03680X0.00040*%
%ADD130R,0.03720X0.00040*%
%ADD131R,0.03800X0.00040*%
%ADD132R,0.03840X0.00040*%
%ADD133R,0.03840X0.00040*%
%ADD134R,0.03920X0.00040*%
%ADD135R,0.03960X0.00040*%
%ADD136R,0.04000X0.00040*%
%ADD137R,0.04080X0.00040*%
%ADD138R,0.04120X0.00040*%
%ADD139R,0.04160X0.00040*%
%ADD140R,0.04200X0.00040*%
%ADD141R,0.04200X0.00040*%
%ADD142R,0.04160X0.00040*%
%ADD143R,0.04120X0.00040*%
%ADD144R,0.04080X0.00040*%
%ADD145R,0.04040X0.00040*%
%ADD146R,0.04040X0.00040*%
%ADD147R,0.04040X0.00040*%
%ADD148R,0.04040X0.00040*%
%ADD149R,0.03960X0.00040*%
%ADD150R,0.03920X0.00040*%
%ADD151R,0.03920X0.00040*%
%ADD152R,0.03880X0.00040*%
%ADD153R,0.03920X0.00040*%
%ADD154R,0.03880X0.00040*%
%ADD155R,0.03800X0.00040*%
%ADD156R,0.04240X0.00040*%
%ADD157R,0.04240X0.00040*%
%ADD158R,0.04280X0.00040*%
%ADD159R,0.04360X0.00040*%
%ADD160R,0.04400X0.00040*%
%ADD161R,0.04440X0.00040*%
%ADD162R,0.04520X0.00040*%
%ADD163R,0.04520X0.00040*%
%ADD164R,0.04520X0.00040*%
%ADD165R,0.04520X0.00040*%
%ADD166R,0.04480X0.00040*%
%ADD167R,0.04440X0.00040*%
%ADD168R,0.04400X0.00040*%
%ADD169R,0.04360X0.00040*%
%ADD170R,0.04320X0.00040*%
%ADD171R,0.04240X0.00040*%
%ADD172R,0.04320X0.00040*%
%ADD173R,0.04320X0.00040*%
%ADD174R,0.04560X0.00040*%
%ADD175R,0.04720X0.00040*%
%ADD176R,0.04920X0.00040*%
%ADD177R,0.04920X0.00040*%
%ADD178R,0.05080X0.00040*%
%ADD179R,0.05240X0.00040*%
%ADD180R,0.05240X0.00040*%
%ADD181R,0.05480X0.00040*%
%ADD182R,0.05640X0.00040*%
%ADD183R,0.05640X0.00040*%
%ADD184R,0.05680X0.00040*%
%ADD185R,0.05640X0.00040*%
%ADD186R,0.05600X0.00040*%
%ADD187R,0.05600X0.00040*%
%ADD188R,0.05560X0.00040*%
%ADD189R,0.05520X0.00040*%
%ADD190R,0.05520X0.00040*%
%ADD191R,0.05480X0.00040*%
%ADD192R,0.05440X0.00040*%
%ADD193R,0.05440X0.00040*%
%ADD194R,0.05560X0.00040*%
%ADD195R,0.05680X0.00040*%
%ADD196R,0.05440X0.00040*%
%ADD197R,0.05280X0.00040*%
%ADD198R,0.04920X0.00040*%
%ADD199R,0.04600X0.00040*%
%ADD200R,0.04840X0.00040*%
%ADD201R,0.10440X0.00040*%
%ADD202R,0.10360X0.00040*%
%ADD203R,0.10360X0.00040*%
%ADD204R,0.10280X0.00040*%
%ADD205R,0.10200X0.00040*%
%ADD206R,0.10200X0.00040*%
%ADD207R,0.10120X0.00040*%
%ADD208R,0.10040X0.00040*%
%ADD209R,0.10040X0.00040*%
%ADD210R,0.09960X0.00040*%
%ADD211R,0.09880X0.00040*%
%ADD212R,0.09880X0.00040*%
%ADD213R,0.09800X0.00040*%
%ADD214R,0.09720X0.00040*%
%ADD215R,0.09720X0.00040*%
%ADD216R,0.10280X0.00040*%
%ADD217R,0.10520X0.00040*%
%ADD218R,0.10520X0.00040*%
%ADD219R,0.10600X0.00040*%
%ADD220R,0.10680X0.00040*%
%ADD221R,0.10760X0.00040*%
%ADD222R,0.10840X0.00040*%
%ADD223R,0.10920X0.00040*%
%ADD224R,0.11000X0.00040*%
%ADD225R,0.11080X0.00040*%
%ADD226R,0.11080X0.00040*%
%ADD227R,0.11160X0.00040*%
%ADD228R,0.11240X0.00040*%
%ADD229R,0.11320X0.00040*%
%ADD230R,0.11400X0.00040*%
%ADD231R,0.11400X0.00040*%
%ADD232R,0.11480X0.00040*%
%ADD233R,0.11560X0.00040*%
%ADD234R,0.11640X0.00040*%
%ADD235R,0.11640X0.00040*%
%ADD236R,0.11720X0.00040*%
%ADD237R,0.11800X0.00040*%
%ADD238R,0.11880X0.00040*%
%ADD239R,0.11880X0.00040*%
%ADD240R,0.11960X0.00040*%
%ADD241R,0.11720X0.00040*%
%ADD242R,0.11320X0.00040*%
%ADD243R,0.02760X0.00040*%
%ADD244R,0.05400X0.00040*%
%ADD245R,0.02640X0.00040*%
%ADD246R,0.05160X0.00040*%
%ADD247R,0.02560X0.00040*%
%ADD248R,0.05000X0.00040*%
%ADD249R,0.02440X0.00040*%
%ADD250R,0.04760X0.00040*%
%ADD251R,0.02440X0.00040*%
%ADD252R,0.02360X0.00040*%
%ADD253R,0.04600X0.00040*%
%ADD254R,0.02280X0.00040*%
%ADD255R,0.02240X0.00040*%
%ADD256R,0.02160X0.00040*%
%ADD257R,0.02080X0.00040*%
%ADD258R,0.01960X0.00040*%
%ADD259R,0.01880X0.00040*%
%ADD260R,0.03640X0.00040*%
%ADD261R,0.03400X0.00040*%
%ADD262R,0.03240X0.00040*%
%ADD263R,0.03000X0.00040*%
%ADD264R,0.02920X0.00040*%
%ADD265R,0.01360X0.00040*%
%ADD266R,0.02840X0.00040*%
%ADD267R,0.02840X0.00040*%
%ADD268R,0.02760X0.00040*%
%ADD269R,0.02680X0.00040*%
%ADD270R,0.02680X0.00040*%
%ADD271R,0.02600X0.00040*%
%ADD272R,0.02520X0.00040*%
%ADD273R,0.02520X0.00040*%
%ADD274R,0.02440X0.00040*%
%ADD275R,0.02360X0.00040*%
%ADD276R,0.02280X0.00040*%
%ADD277R,0.02200X0.00040*%
%ADD278R,0.02120X0.00040*%
%ADD279R,0.00770X0.00035*%
%ADD280R,0.01400X0.00035*%
%ADD281R,0.01855X0.00035*%
%ADD282R,0.02170X0.00035*%
%ADD283R,0.02485X0.00035*%
%ADD284R,0.02765X0.00035*%
%ADD285R,0.02975X0.00035*%
%ADD286R,0.03220X0.00035*%
%ADD287R,0.03395X0.00035*%
%ADD288R,0.03605X0.00035*%
%ADD289R,0.03780X0.00035*%
%ADD290R,0.03955X0.00035*%
%ADD291R,0.04130X0.00035*%
%ADD292R,0.04270X0.00035*%
%ADD293R,0.04375X0.00035*%
%ADD294R,0.04550X0.00035*%
%ADD295R,0.04690X0.00035*%
%ADD296R,0.04865X0.00035*%
%ADD297R,0.04970X0.00035*%
%ADD298R,0.05110X0.00035*%
%ADD299R,0.05215X0.00035*%
%ADD300R,0.05355X0.00035*%
%ADD301R,0.05460X0.00035*%
%ADD302R,0.05600X0.00035*%
%ADD303R,0.05705X0.00035*%
%ADD304R,0.05810X0.00035*%
%ADD305R,0.05915X0.00035*%
%ADD306R,0.06055X0.00035*%
%ADD307R,0.06160X0.00035*%
%ADD308R,0.06265X0.00035*%
%ADD309R,0.06335X0.00035*%
%ADD310R,0.06440X0.00035*%
%ADD311R,0.06545X0.00035*%
%ADD312R,0.03080X0.00035*%
%ADD313R,0.02660X0.00035*%
%ADD314R,0.02870X0.00035*%
%ADD315R,0.02415X0.00035*%
%ADD316R,0.02730X0.00035*%
%ADD317R,0.02310X0.00035*%
%ADD318R,0.02695X0.00035*%
%ADD319R,0.02170X0.00035*%
%ADD320R,0.02590X0.00035*%
%ADD321R,0.02100X0.00035*%
%ADD322R,0.02520X0.00035*%
%ADD323R,0.02030X0.00035*%
%ADD324R,0.02450X0.00035*%
%ADD325R,0.01960X0.00035*%
%ADD326R,0.01890X0.00035*%
%ADD327R,0.02380X0.00035*%
%ADD328R,0.01785X0.00035*%
%ADD329R,0.01750X0.00035*%
%ADD330R,0.01715X0.00035*%
%ADD331R,0.02275X0.00035*%
%ADD332R,0.01645X0.00035*%
%ADD333R,0.02240X0.00035*%
%ADD334R,0.01610X0.00035*%
%ADD335R,0.02240X0.00035*%
%ADD336R,0.01575X0.00035*%
%ADD337R,0.01540X0.00035*%
%ADD338R,0.02205X0.00035*%
%ADD339R,0.01505X0.00035*%
%ADD340R,0.01470X0.00035*%
%ADD341R,0.01435X0.00035*%
%ADD342R,0.01365X0.00035*%
%ADD343R,0.01330X0.00035*%
%ADD344R,0.01295X0.00035*%
%ADD345R,0.01295X0.00035*%
%ADD346R,0.01260X0.00035*%
%ADD347R,0.01190X0.00035*%
%ADD348R,0.01225X0.00035*%
%ADD349R,0.00385X0.00035*%
%ADD350R,0.00980X0.00035*%
%ADD351R,0.01155X0.00035*%
%ADD352R,0.01645X0.00035*%
%ADD353R,0.01015X0.00035*%
%ADD354R,0.01050X0.00035*%
%ADD355R,0.02345X0.00035*%
%ADD356R,0.01085X0.00035*%
%ADD357R,0.02905X0.00035*%
%ADD358R,0.03045X0.00035*%
%ADD359R,0.01120X0.00035*%
%ADD360R,0.02345X0.00035*%
%ADD361R,0.03255X0.00035*%
%ADD362R,0.01120X0.00035*%
%ADD363R,0.03500X0.00035*%
%ADD364R,0.02415X0.00035*%
%ADD365R,0.03640X0.00035*%
%ADD366R,0.04900X0.00035*%
%ADD367R,0.04935X0.00035*%
%ADD368R,0.05005X0.00035*%
%ADD369R,0.01680X0.00035*%
%ADD370R,0.02065X0.00035*%
%ADD371R,0.02555X0.00035*%
%ADD372R,0.02590X0.00035*%
%ADD373R,0.02625X0.00035*%
%ADD374R,0.02695X0.00035*%
%ADD375R,0.01470X0.00035*%
%ADD376R,0.02765X0.00035*%
%ADD377R,0.02800X0.00035*%
%ADD378R,0.02835X0.00035*%
%ADD379R,0.01365X0.00035*%
%ADD380R,0.02940X0.00035*%
%ADD381R,0.03010X0.00035*%
%ADD382R,0.03045X0.00035*%
%ADD383R,0.03115X0.00035*%
%ADD384R,0.03150X0.00035*%
%ADD385R,0.03185X0.00035*%
%ADD386R,0.03220X0.00035*%
%ADD387R,0.01190X0.00035*%
%ADD388R,0.03290X0.00035*%
%ADD389R,0.03325X0.00035*%
%ADD390R,0.03360X0.00035*%
%ADD391R,0.03430X0.00035*%
%ADD392R,0.03465X0.00035*%
%ADD393R,0.03535X0.00035*%
%ADD394R,0.03570X0.00035*%
%ADD395R,0.03675X0.00035*%
%ADD396R,0.03710X0.00035*%
%ADD397R,0.03745X0.00035*%
%ADD398R,0.03815X0.00035*%
%ADD399R,0.03850X0.00035*%
%ADD400R,0.03885X0.00035*%
%ADD401R,0.03920X0.00035*%
%ADD402R,0.03990X0.00035*%
%ADD403R,0.04025X0.00035*%
%ADD404R,0.02870X0.00035*%
%ADD405R,0.04095X0.00035*%
%ADD406R,0.04165X0.00035*%
%ADD407R,0.04200X0.00035*%
%ADD408R,0.04235X0.00035*%
%ADD409R,0.04270X0.00035*%
%ADD410R,0.01820X0.00035*%
%ADD411R,0.04305X0.00035*%
%ADD412R,0.04340X0.00035*%
%ADD413R,0.01925X0.00035*%
%ADD414R,0.04410X0.00035*%
%ADD415R,0.00945X0.00035*%
%ADD416R,0.00875X0.00035*%
%ADD417R,0.00840X0.00035*%
%ADD418R,0.02135X0.00035*%
%ADD419R,0.00805X0.00035*%
%ADD420R,0.00735X0.00035*%
%ADD421R,0.01995X0.00035*%
%ADD422R,0.02520X0.00035*%
%ADD423R,0.01540X0.00035*%
%ADD424R,0.00770X0.00035*%
%ADD425R,0.00665X0.00035*%
%ADD426R,0.00420X0.00035*%
%ADD427R,0.00910X0.00035*%
%ADD428R,0.04060X0.00035*%
%ADD429R,0.01015X0.00035*%
%ADD430R,0.03115X0.00035*%
%ADD431R,0.03395X0.00035*%
%ADD432R,0.03745X0.00035*%
%ADD433R,0.04340X0.00035*%
%ADD434R,0.04480X0.00035*%
%ADD435R,0.02065X0.00035*%
%ADD436R,0.04515X0.00035*%
%ADD437R,0.04585X0.00035*%
%ADD438R,0.04760X0.00035*%
%ADD439R,0.04830X0.00035*%
%ADD440R,0.07805X0.00035*%
%ADD441R,0.07840X0.00035*%
%ADD442R,0.07875X0.00035*%
%ADD443R,0.07910X0.00035*%
%ADD444R,0.07945X0.00035*%
%ADD445R,0.07980X0.00035*%
%ADD446R,0.08015X0.00035*%
%ADD447R,0.08050X0.00035*%
%ADD448R,0.05635X0.00035*%
%ADD449R,0.01995X0.00035*%
%ADD450R,0.01890X0.00035*%
%ADD451R,0.01715X0.00035*%
%ADD452R,0.00945X0.00035*%
%ADD453R,0.00560X0.00035*%
%ADD454R,0.01820X0.00035*%
%ADD455R,0.00700X0.00035*%
%ADD456R,0.00630X0.00035*%
%ADD457R,0.00525X0.00035*%
%ADD458R,0.00175X0.00035*%
%ADD459R,0.00595X0.00035*%
%ADD460R,0.00490X0.00035*%
%ADD461R,0.00210X0.00035*%
%ADD462R,0.00490X0.00035*%
%ADD463R,0.00315X0.00035*%
D10*
X0022200Y0007200D02*
X0252200Y0007200D01*
X0252562Y0007204D01*
X0252925Y0007218D01*
X0253287Y0007239D01*
X0253648Y0007270D01*
X0254008Y0007309D01*
X0254367Y0007357D01*
X0254725Y0007414D01*
X0255082Y0007479D01*
X0255437Y0007553D01*
X0255790Y0007636D01*
X0256141Y0007727D01*
X0256489Y0007826D01*
X0256835Y0007934D01*
X0257179Y0008050D01*
X0257519Y0008175D01*
X0257856Y0008307D01*
X0258190Y0008448D01*
X0258521Y0008597D01*
X0258848Y0008754D01*
X0259171Y0008918D01*
X0259490Y0009090D01*
X0259804Y0009270D01*
X0260115Y0009458D01*
X0260420Y0009653D01*
X0260721Y0009855D01*
X0261017Y0010065D01*
X0261307Y0010281D01*
X0261593Y0010505D01*
X0261873Y0010735D01*
X0262147Y0010972D01*
X0262415Y0011216D01*
X0262678Y0011466D01*
X0262934Y0011722D01*
X0263184Y0011985D01*
X0263428Y0012253D01*
X0263665Y0012527D01*
X0263895Y0012807D01*
X0264119Y0013093D01*
X0264335Y0013383D01*
X0264545Y0013679D01*
X0264747Y0013980D01*
X0264942Y0014285D01*
X0265130Y0014596D01*
X0265310Y0014910D01*
X0265482Y0015229D01*
X0265646Y0015552D01*
X0265803Y0015879D01*
X0265952Y0016210D01*
X0266093Y0016544D01*
X0266225Y0016881D01*
X0266350Y0017221D01*
X0266466Y0017565D01*
X0266574Y0017911D01*
X0266673Y0018259D01*
X0266764Y0018610D01*
X0266847Y0018963D01*
X0266921Y0019318D01*
X0266986Y0019675D01*
X0267043Y0020033D01*
X0267091Y0020392D01*
X0267130Y0020752D01*
X0267161Y0021113D01*
X0267182Y0021475D01*
X0267196Y0021838D01*
X0267200Y0022200D01*
X0267200Y0142200D01*
X0267196Y0142562D01*
X0267182Y0142925D01*
X0267161Y0143287D01*
X0267130Y0143648D01*
X0267091Y0144008D01*
X0267043Y0144367D01*
X0266986Y0144725D01*
X0266921Y0145082D01*
X0266847Y0145437D01*
X0266764Y0145790D01*
X0266673Y0146141D01*
X0266574Y0146489D01*
X0266466Y0146835D01*
X0266350Y0147179D01*
X0266225Y0147519D01*
X0266093Y0147856D01*
X0265952Y0148190D01*
X0265803Y0148521D01*
X0265646Y0148848D01*
X0265482Y0149171D01*
X0265310Y0149490D01*
X0265130Y0149804D01*
X0264942Y0150115D01*
X0264747Y0150420D01*
X0264545Y0150721D01*
X0264335Y0151017D01*
X0264119Y0151307D01*
X0263895Y0151593D01*
X0263665Y0151873D01*
X0263428Y0152147D01*
X0263184Y0152415D01*
X0262934Y0152678D01*
X0262678Y0152934D01*
X0262415Y0153184D01*
X0262147Y0153428D01*
X0261873Y0153665D01*
X0261593Y0153895D01*
X0261307Y0154119D01*
X0261017Y0154335D01*
X0260721Y0154545D01*
X0260420Y0154747D01*
X0260115Y0154942D01*
X0259804Y0155130D01*
X0259490Y0155310D01*
X0259171Y0155482D01*
X0258848Y0155646D01*
X0258521Y0155803D01*
X0258190Y0155952D01*
X0257856Y0156093D01*
X0257519Y0156225D01*
X0257179Y0156350D01*
X0256835Y0156466D01*
X0256489Y0156574D01*
X0256141Y0156673D01*
X0255790Y0156764D01*
X0255437Y0156847D01*
X0255082Y0156921D01*
X0254725Y0156986D01*
X0254367Y0157043D01*
X0254008Y0157091D01*
X0253648Y0157130D01*
X0253287Y0157161D01*
X0252925Y0157182D01*
X0252562Y0157196D01*
X0252200Y0157200D01*
X0022200Y0157200D01*
X0021838Y0157196D01*
X0021475Y0157182D01*
X0021113Y0157161D01*
X0020752Y0157130D01*
X0020392Y0157091D01*
X0020033Y0157043D01*
X0019675Y0156986D01*
X0019318Y0156921D01*
X0018963Y0156847D01*
X0018610Y0156764D01*
X0018259Y0156673D01*
X0017911Y0156574D01*
X0017565Y0156466D01*
X0017221Y0156350D01*
X0016881Y0156225D01*
X0016544Y0156093D01*
X0016210Y0155952D01*
X0015879Y0155803D01*
X0015552Y0155646D01*
X0015229Y0155482D01*
X0014910Y0155310D01*
X0014596Y0155130D01*
X0014285Y0154942D01*
X0013980Y0154747D01*
X0013679Y0154545D01*
X0013383Y0154335D01*
X0013093Y0154119D01*
X0012807Y0153895D01*
X0012527Y0153665D01*
X0012253Y0153428D01*
X0011985Y0153184D01*
X0011722Y0152934D01*
X0011466Y0152678D01*
X0011216Y0152415D01*
X0010972Y0152147D01*
X0010735Y0151873D01*
X0010505Y0151593D01*
X0010281Y0151307D01*
X0010065Y0151017D01*
X0009855Y0150721D01*
X0009653Y0150420D01*
X0009458Y0150115D01*
X0009270Y0149804D01*
X0009090Y0149490D01*
X0008918Y0149171D01*
X0008754Y0148848D01*
X0008597Y0148521D01*
X0008448Y0148190D01*
X0008307Y0147856D01*
X0008175Y0147519D01*
X0008050Y0147179D01*
X0007934Y0146835D01*
X0007826Y0146489D01*
X0007727Y0146141D01*
X0007636Y0145790D01*
X0007553Y0145437D01*
X0007479Y0145082D01*
X0007414Y0144725D01*
X0007357Y0144367D01*
X0007309Y0144008D01*
X0007270Y0143648D01*
X0007239Y0143287D01*
X0007218Y0142925D01*
X0007204Y0142562D01*
X0007200Y0142200D01*
X0007200Y0022200D01*
X0007204Y0021838D01*
X0007218Y0021475D01*
X0007239Y0021113D01*
X0007270Y0020752D01*
X0007309Y0020392D01*
X0007357Y0020033D01*
X0007414Y0019675D01*
X0007479Y0019318D01*
X0007553Y0018963D01*
X0007636Y0018610D01*
X0007727Y0018259D01*
X0007826Y0017911D01*
X0007934Y0017565D01*
X0008050Y0017221D01*
X0008175Y0016881D01*
X0008307Y0016544D01*
X0008448Y0016210D01*
X0008597Y0015879D01*
X0008754Y0015552D01*
X0008918Y0015229D01*
X0009090Y0014910D01*
X0009270Y0014596D01*
X0009458Y0014285D01*
X0009653Y0013980D01*
X0009855Y0013679D01*
X0010065Y0013383D01*
X0010281Y0013093D01*
X0010505Y0012807D01*
X0010735Y0012527D01*
X0010972Y0012253D01*
X0011216Y0011985D01*
X0011466Y0011722D01*
X0011722Y0011466D01*
X0011985Y0011216D01*
X0012253Y0010972D01*
X0012527Y0010735D01*
X0012807Y0010505D01*
X0013093Y0010281D01*
X0013383Y0010065D01*
X0013679Y0009855D01*
X0013980Y0009653D01*
X0014285Y0009458D01*
X0014596Y0009270D01*
X0014910Y0009090D01*
X0015229Y0008918D01*
X0015552Y0008754D01*
X0015879Y0008597D01*
X0016210Y0008448D01*
X0016544Y0008307D01*
X0016881Y0008175D01*
X0017221Y0008050D01*
X0017565Y0007934D01*
X0017911Y0007826D01*
X0018259Y0007727D01*
X0018610Y0007636D01*
X0018963Y0007553D01*
X0019318Y0007479D01*
X0019675Y0007414D01*
X0020033Y0007357D01*
X0020392Y0007309D01*
X0020752Y0007270D01*
X0021113Y0007239D01*
X0021475Y0007218D01*
X0021838Y0007204D01*
X0022200Y0007200D01*
D11*
X0044984Y0042350D02*
X0044984Y0046053D01*
X0047452Y0046053D01*
X0049284Y0044819D02*
X0050518Y0044819D01*
X0051136Y0044202D01*
X0051136Y0042350D01*
X0049284Y0042350D01*
X0048667Y0042967D01*
X0049284Y0043584D01*
X0051136Y0043584D01*
X0052350Y0044202D02*
X0054202Y0044202D01*
X0054819Y0043584D01*
X0054819Y0042967D01*
X0054202Y0042350D01*
X0052350Y0042350D01*
X0052350Y0046053D01*
X0054202Y0046053D01*
X0054819Y0045436D01*
X0054819Y0044819D01*
X0054202Y0044202D01*
X0056033Y0044202D02*
X0056650Y0044819D01*
X0057885Y0044819D01*
X0058502Y0044202D01*
X0058502Y0042967D01*
X0057885Y0042350D01*
X0056650Y0042350D01*
X0056033Y0042967D01*
X0056033Y0044202D01*
X0046218Y0044202D02*
X0044984Y0044202D01*
X0045964Y0083801D02*
X0048433Y0083801D01*
X0049050Y0084418D01*
X0049050Y0085652D01*
X0048433Y0086269D01*
X0047198Y0086269D01*
X0047198Y0085035D01*
X0045964Y0086269D02*
X0045347Y0085652D01*
X0045347Y0084418D01*
X0045964Y0083801D01*
X0045347Y0087484D02*
X0049050Y0089952D01*
X0045347Y0089952D01*
X0045347Y0091167D02*
X0045347Y0093018D01*
X0045964Y0093636D01*
X0048433Y0093636D01*
X0049050Y0093018D01*
X0049050Y0091167D01*
X0045347Y0091167D01*
X0045347Y0087484D02*
X0049050Y0087484D01*
X0095347Y0087484D02*
X0099050Y0089952D01*
X0095347Y0089952D01*
X0095347Y0091167D02*
X0095347Y0093018D01*
X0095964Y0093636D01*
X0098433Y0093636D01*
X0099050Y0093018D01*
X0099050Y0091167D01*
X0095347Y0091167D01*
X0095347Y0087484D02*
X0099050Y0087484D01*
X0098433Y0086269D02*
X0097198Y0086269D01*
X0097198Y0085035D01*
X0095964Y0086269D02*
X0095347Y0085652D01*
X0095347Y0084418D01*
X0095964Y0083801D01*
X0098433Y0083801D01*
X0099050Y0084418D01*
X0099050Y0085652D01*
X0098433Y0086269D01*
X0145347Y0085652D02*
X0145347Y0084418D01*
X0145964Y0083801D01*
X0148433Y0083801D01*
X0149050Y0084418D01*
X0149050Y0085652D01*
X0148433Y0086269D01*
X0147198Y0086269D01*
X0147198Y0085035D01*
X0145964Y0086269D02*
X0145347Y0085652D01*
X0145347Y0087484D02*
X0149050Y0089952D01*
X0145347Y0089952D01*
X0145347Y0091167D02*
X0145347Y0093018D01*
X0145964Y0093636D01*
X0148433Y0093636D01*
X0149050Y0093018D01*
X0149050Y0091167D01*
X0145347Y0091167D01*
X0145347Y0087484D02*
X0149050Y0087484D01*
X0150964Y0079685D02*
X0150347Y0079068D01*
X0150347Y0077216D01*
X0154050Y0077216D01*
X0154050Y0079068D01*
X0153433Y0079685D01*
X0150964Y0079685D01*
X0150347Y0076002D02*
X0154050Y0076002D01*
X0150347Y0073533D01*
X0154050Y0073533D01*
X0153433Y0072319D02*
X0152198Y0072319D01*
X0152198Y0071084D01*
X0150964Y0069850D02*
X0150347Y0070467D01*
X0150347Y0071702D01*
X0150964Y0072319D01*
X0153433Y0072319D02*
X0154050Y0071702D01*
X0154050Y0070467D01*
X0153433Y0069850D01*
X0150964Y0069850D01*
X0195347Y0084418D02*
X0195964Y0083801D01*
X0198433Y0083801D01*
X0199050Y0084418D01*
X0199050Y0085652D01*
X0198433Y0086269D01*
X0197198Y0086269D01*
X0197198Y0085035D01*
X0195964Y0086269D02*
X0195347Y0085652D01*
X0195347Y0084418D01*
X0195347Y0087484D02*
X0199050Y0089952D01*
X0195347Y0089952D01*
X0195347Y0091167D02*
X0195347Y0093018D01*
X0195964Y0093636D01*
X0198433Y0093636D01*
X0199050Y0093018D01*
X0199050Y0091167D01*
X0195347Y0091167D01*
X0195347Y0087484D02*
X0199050Y0087484D01*
X0207350Y0021053D02*
X0209202Y0021053D01*
X0209819Y0020436D01*
X0209819Y0019202D01*
X0209202Y0018584D01*
X0207350Y0018584D01*
X0207350Y0017350D02*
X0207350Y0021053D01*
X0208584Y0018584D02*
X0209819Y0017350D01*
X0211033Y0017350D02*
X0213502Y0017350D01*
X0214716Y0018584D02*
X0215951Y0017350D01*
X0217185Y0018584D01*
X0217185Y0021053D01*
X0214716Y0021053D02*
X0214716Y0018584D01*
X0212268Y0019202D02*
X0211033Y0019202D01*
X0211033Y0021053D02*
X0211033Y0017350D01*
X0211033Y0021053D02*
X0213502Y0021053D01*
X0218399Y0017967D02*
X0219017Y0017967D01*
X0219017Y0017350D01*
X0218399Y0017350D01*
X0218399Y0017967D01*
X0220241Y0017350D02*
X0222093Y0017350D01*
X0222710Y0017967D01*
X0222710Y0018584D01*
X0222093Y0019202D01*
X0220241Y0019202D01*
X0220241Y0021053D02*
X0220241Y0017350D01*
X0222093Y0019202D02*
X0222710Y0019819D01*
X0222710Y0020436D01*
X0222093Y0021053D01*
X0220241Y0021053D01*
X0223924Y0019202D02*
X0224541Y0019819D01*
X0225776Y0019819D01*
X0226393Y0019202D01*
X0226393Y0018584D01*
X0223924Y0018584D01*
X0223924Y0017967D02*
X0223924Y0019202D01*
X0223924Y0017967D02*
X0224541Y0017350D01*
X0225776Y0017350D01*
X0228224Y0017967D02*
X0228842Y0017350D01*
X0228224Y0017967D02*
X0228224Y0020436D01*
X0227607Y0019819D02*
X0228842Y0019819D01*
X0230680Y0019819D02*
X0231914Y0019819D01*
X0232531Y0019202D01*
X0232531Y0017350D01*
X0230680Y0017350D01*
X0230063Y0017967D01*
X0230680Y0018584D01*
X0232531Y0018584D01*
D12*
X0230370Y0027400D02*
X0228068Y0027400D01*
X0227301Y0028167D01*
X0227301Y0029702D01*
X0228068Y0030469D01*
X0230370Y0030469D01*
X0230370Y0032004D02*
X0230370Y0027400D01*
X0225766Y0027400D02*
X0225766Y0029702D01*
X0224999Y0030469D01*
X0222697Y0030469D01*
X0222697Y0027400D01*
X0221162Y0027400D02*
X0218860Y0027400D01*
X0218093Y0028167D01*
X0218860Y0028935D01*
X0221162Y0028935D01*
X0221162Y0029702D02*
X0221162Y0027400D01*
X0221162Y0029702D02*
X0220395Y0030469D01*
X0218860Y0030469D01*
X0216558Y0029702D02*
X0216558Y0028167D01*
X0215791Y0027400D01*
X0213489Y0027400D01*
X0213489Y0025865D02*
X0213489Y0030469D01*
X0215791Y0030469D01*
X0216558Y0029702D01*
X0211954Y0030469D02*
X0208885Y0027400D01*
X0207350Y0027400D02*
X0204281Y0027400D01*
X0204281Y0032004D01*
X0207350Y0032004D01*
X0208885Y0030469D02*
X0211954Y0027400D01*
X0205816Y0029702D02*
X0204281Y0029702D01*
X0198142Y0031237D02*
X0197375Y0032004D01*
X0195841Y0032004D01*
X0195073Y0031237D01*
X0195073Y0028167D01*
X0195841Y0027400D01*
X0197375Y0027400D01*
X0198142Y0028167D01*
X0193539Y0027400D02*
X0190469Y0027400D01*
X0193539Y0030469D01*
X0193539Y0031237D01*
X0192771Y0032004D01*
X0191237Y0032004D01*
X0190469Y0031237D01*
X0188935Y0032004D02*
X0187400Y0032004D01*
X0188167Y0032004D02*
X0188167Y0027400D01*
X0187400Y0027400D02*
X0188935Y0027400D01*
D13*
X0157200Y0057456D02*
X0154700Y0054956D01*
X0149700Y0054956D01*
X0147200Y0057456D01*
X0144700Y0054956D01*
X0139700Y0054956D01*
X0137200Y0057456D01*
X0134700Y0054956D01*
X0129700Y0054956D01*
X0127200Y0057456D01*
X0124700Y0054956D01*
X0119700Y0054956D01*
X0117200Y0057456D01*
X0117200Y0062456D01*
X0119700Y0064956D01*
X0124700Y0064956D01*
X0127200Y0062456D01*
X0129700Y0064956D01*
X0134700Y0064956D01*
X0137200Y0062456D01*
X0139700Y0064956D01*
X0144700Y0064956D01*
X0147200Y0062456D01*
X0149700Y0064956D01*
X0154700Y0064956D01*
X0157200Y0062456D01*
X0157200Y0057456D01*
X0154700Y0099444D02*
X0152200Y0101944D01*
X0149700Y0099444D01*
X0144700Y0099444D01*
X0142200Y0101944D01*
X0142200Y0106944D01*
X0144700Y0109444D01*
X0149700Y0109444D01*
X0152200Y0106944D01*
X0154700Y0109444D01*
X0159700Y0109444D01*
X0162200Y0106944D01*
X0164700Y0109444D01*
X0169700Y0109444D01*
X0172200Y0106944D01*
X0174700Y0109444D01*
X0179700Y0109444D01*
X0182200Y0106944D01*
X0182200Y0101944D01*
X0179700Y0099444D01*
X0174700Y0099444D01*
X0172200Y0101944D01*
X0169700Y0099444D01*
X0164700Y0099444D01*
X0162200Y0101944D01*
X0159700Y0099444D01*
X0154700Y0099444D01*
X0132200Y0101944D02*
X0129700Y0099444D01*
X0124700Y0099444D01*
X0122200Y0101944D01*
X0119700Y0099444D01*
X0114700Y0099444D01*
X0112200Y0101944D01*
X0109700Y0099444D01*
X0104700Y0099444D01*
X0102200Y0101944D01*
X0099700Y0099444D01*
X0094700Y0099444D01*
X0092200Y0101944D01*
X0092200Y0106944D01*
X0094700Y0109444D01*
X0099700Y0109444D01*
X0102200Y0106944D01*
X0104700Y0109444D01*
X0109700Y0109444D01*
X0112200Y0106944D01*
X0114700Y0109444D01*
X0119700Y0109444D01*
X0122200Y0106944D01*
X0124700Y0109444D01*
X0129700Y0109444D01*
X0132200Y0106944D01*
X0132200Y0101944D01*
X0082200Y0101944D02*
X0079700Y0099444D01*
X0074700Y0099444D01*
X0072200Y0101944D01*
X0069700Y0099444D01*
X0064700Y0099444D01*
X0062200Y0101944D01*
X0059700Y0099444D01*
X0054700Y0099444D01*
X0052200Y0101944D01*
X0049700Y0099444D01*
X0044700Y0099444D01*
X0042200Y0101944D01*
X0042200Y0106944D01*
X0044700Y0109444D01*
X0049700Y0109444D01*
X0052200Y0106944D01*
X0054700Y0109444D01*
X0059700Y0109444D01*
X0062200Y0106944D01*
X0064700Y0109444D01*
X0069700Y0109444D01*
X0072200Y0106944D01*
X0074700Y0109444D01*
X0079700Y0109444D01*
X0082200Y0106944D01*
X0082200Y0101944D01*
X0192200Y0101944D02*
X0194700Y0099444D01*
X0199700Y0099444D01*
X0202200Y0101944D01*
X0204700Y0099444D01*
X0209700Y0099444D01*
X0212200Y0101944D01*
X0214700Y0099444D01*
X0219700Y0099444D01*
X0222200Y0101944D01*
X0224700Y0099444D01*
X0229700Y0099444D01*
X0232200Y0101944D01*
X0232200Y0106944D01*
X0229700Y0109444D01*
X0224700Y0109444D01*
X0222200Y0106944D01*
X0219700Y0109444D01*
X0214700Y0109444D01*
X0212200Y0106944D01*
X0209700Y0109444D01*
X0204700Y0109444D01*
X0202200Y0106944D01*
X0199700Y0109444D01*
X0194700Y0109444D01*
X0192200Y0106944D01*
X0192200Y0101944D01*
D14*
X0085340Y0029300D03*
X0085260Y0029100D03*
X0083540Y0028900D03*
X0083540Y0028700D03*
X0082260Y0028700D03*
X0082260Y0028900D03*
X0082260Y0029100D03*
X0082260Y0028500D03*
X0082260Y0028300D03*
X0082260Y0028100D03*
X0082260Y0027900D03*
X0081740Y0026700D03*
X0081740Y0025900D03*
X0081740Y0025700D03*
X0081740Y0025500D03*
X0081740Y0025300D03*
X0081740Y0025100D03*
X0081740Y0024900D03*
X0081740Y0024700D03*
X0080900Y0025300D03*
X0080900Y0026100D03*
X0079100Y0026100D03*
X0078100Y0026500D03*
X0077060Y0026100D03*
X0076940Y0026500D03*
X0076900Y0026700D03*
X0076260Y0026700D03*
X0076260Y0026900D03*
X0076260Y0027100D03*
X0076260Y0027300D03*
X0076260Y0027500D03*
X0076460Y0028300D03*
X0076460Y0029300D03*
X0074860Y0029100D03*
X0074860Y0028900D03*
X0074860Y0028700D03*
X0074860Y0028500D03*
X0074860Y0028300D03*
X0074860Y0028100D03*
X0074860Y0027900D03*
X0073740Y0026700D03*
X0073740Y0025900D03*
X0073740Y0025700D03*
X0073740Y0025500D03*
X0073740Y0025300D03*
X0073740Y0025100D03*
X0073740Y0024900D03*
X0073740Y0024700D03*
X0072900Y0024700D03*
X0072900Y0025300D03*
X0072900Y0026100D03*
X0075100Y0025900D03*
X0075100Y0025700D03*
X0075100Y0025500D03*
X0076260Y0025500D03*
X0076260Y0025700D03*
X0076260Y0025900D03*
X0076260Y0024700D03*
X0078260Y0028500D03*
X0078260Y0028700D03*
X0078260Y0028900D03*
X0078260Y0029100D03*
X0079460Y0029100D03*
X0079500Y0028900D03*
X0079460Y0028500D03*
X0083140Y0026100D03*
X0083140Y0025300D03*
X0073700Y0029100D03*
X0072940Y0029100D03*
X0071740Y0028500D03*
X0069860Y0028700D03*
X0069860Y0028900D03*
X0069860Y0029100D03*
X0069100Y0029100D03*
X0069100Y0028900D03*
X0069100Y0028700D03*
X0069100Y0028500D03*
X0069860Y0027700D03*
X0069860Y0027500D03*
X0069860Y0027300D03*
X0069860Y0027100D03*
X0069860Y0026900D03*
X0069860Y0026700D03*
X0069860Y0025900D03*
X0069860Y0025700D03*
X0069860Y0025500D03*
X0069860Y0025300D03*
X0069860Y0025100D03*
X0069860Y0024900D03*
X0069860Y0024700D03*
D15*
X0071020Y0024700D03*
X0071020Y0024900D03*
X0071020Y0025100D03*
X0071020Y0025300D03*
X0071020Y0025500D03*
X0071020Y0025700D03*
X0071020Y0025900D03*
X0071020Y0028500D03*
X0071020Y0028700D03*
X0071020Y0028900D03*
X0071020Y0029100D03*
X0077020Y0026300D03*
X0079180Y0026300D03*
X0079220Y0026500D03*
X0080220Y0028700D03*
X0080220Y0028900D03*
X0080220Y0029100D03*
X0080220Y0029300D03*
X0080220Y0029500D03*
X0080220Y0029700D03*
X0081420Y0029700D03*
X0081420Y0029500D03*
X0081420Y0029300D03*
X0081420Y0029100D03*
X0081420Y0028900D03*
X0081420Y0028700D03*
X0083580Y0028500D03*
X0083580Y0029100D03*
X0077620Y0028500D03*
D16*
X0080220Y0024700D03*
X0083780Y0024700D03*
X0072220Y0024700D03*
D17*
X0075560Y0024700D03*
X0078080Y0026300D03*
X0079360Y0028300D03*
X0076560Y0029100D03*
X0071840Y0028300D03*
X0070920Y0028300D03*
X0072720Y0031500D03*
X0081640Y0031500D03*
X0083720Y0026700D03*
D18*
X0077500Y0024700D03*
X0074900Y0032100D03*
X0067900Y0028900D03*
D19*
X0067920Y0029100D03*
X0067920Y0028700D03*
X0067920Y0028500D03*
X0071720Y0029100D03*
X0073680Y0028900D03*
X0073680Y0028700D03*
X0073680Y0028500D03*
X0073680Y0028300D03*
X0073680Y0028100D03*
X0073680Y0027900D03*
X0071720Y0025300D03*
X0077120Y0025900D03*
X0077200Y0025700D03*
X0077800Y0025700D03*
X0079000Y0025700D03*
X0079040Y0025900D03*
X0079720Y0025300D03*
X0078680Y0024700D03*
X0080920Y0024700D03*
X0079480Y0028700D03*
X0084640Y0028300D03*
X0085280Y0028500D03*
X0086440Y0029100D03*
D20*
X0086300Y0028260D03*
X0085300Y0028420D03*
X0085300Y0028460D03*
X0085260Y0028540D03*
X0085260Y0028580D03*
X0085260Y0029060D03*
X0085300Y0029220D03*
X0083540Y0029060D03*
X0083540Y0029020D03*
X0083540Y0028980D03*
X0083540Y0028940D03*
X0083540Y0028860D03*
X0083540Y0028820D03*
X0083540Y0028780D03*
X0083540Y0028740D03*
X0083540Y0028660D03*
X0083540Y0028620D03*
X0083540Y0028580D03*
X0082260Y0028580D03*
X0082260Y0028620D03*
X0082260Y0028660D03*
X0082260Y0028740D03*
X0082260Y0028780D03*
X0082260Y0028820D03*
X0082260Y0028860D03*
X0082260Y0028940D03*
X0082260Y0028980D03*
X0082260Y0029020D03*
X0082260Y0029060D03*
X0082260Y0029140D03*
X0082260Y0029180D03*
X0082260Y0029780D03*
X0082260Y0029820D03*
X0082260Y0028540D03*
X0082260Y0028460D03*
X0082260Y0028420D03*
X0082260Y0028380D03*
X0082260Y0028340D03*
X0082260Y0028260D03*
X0082260Y0028220D03*
X0082260Y0028180D03*
X0082260Y0028140D03*
X0082260Y0028060D03*
X0082260Y0028020D03*
X0082260Y0027980D03*
X0082260Y0027940D03*
X0082260Y0027860D03*
X0082260Y0027820D03*
X0081740Y0026660D03*
X0081740Y0026620D03*
X0081740Y0025940D03*
X0081740Y0025860D03*
X0081740Y0025820D03*
X0081740Y0025780D03*
X0081740Y0025740D03*
X0081740Y0025660D03*
X0081740Y0025620D03*
X0081740Y0025580D03*
X0081740Y0025540D03*
X0081740Y0025460D03*
X0081740Y0025420D03*
X0081740Y0025380D03*
X0081740Y0025340D03*
X0081740Y0025260D03*
X0081740Y0025220D03*
X0081740Y0025180D03*
X0081740Y0025140D03*
X0081740Y0025060D03*
X0081740Y0025020D03*
X0081740Y0024980D03*
X0081740Y0024940D03*
X0081740Y0024860D03*
X0081740Y0024820D03*
X0081740Y0024780D03*
X0081740Y0024740D03*
X0080900Y0025220D03*
X0080900Y0025260D03*
X0080900Y0025340D03*
X0080900Y0025380D03*
X0080900Y0025940D03*
X0080900Y0026140D03*
X0080900Y0026180D03*
X0079740Y0025420D03*
X0079740Y0025220D03*
X0079740Y0025180D03*
X0079060Y0025940D03*
X0079100Y0026060D03*
X0079140Y0026180D03*
X0079140Y0026220D03*
X0079140Y0026260D03*
X0079260Y0026580D03*
X0079260Y0026620D03*
X0079460Y0028460D03*
X0079460Y0028540D03*
X0079460Y0028580D03*
X0079500Y0028740D03*
X0079500Y0028780D03*
X0079500Y0028820D03*
X0079500Y0028860D03*
X0079460Y0029060D03*
X0079460Y0029140D03*
X0079460Y0029180D03*
X0078300Y0029180D03*
X0078300Y0029220D03*
X0078260Y0029140D03*
X0078260Y0029060D03*
X0078260Y0029020D03*
X0078260Y0028980D03*
X0078260Y0028940D03*
X0078260Y0028860D03*
X0078260Y0028820D03*
X0078260Y0028780D03*
X0078260Y0028740D03*
X0078260Y0028660D03*
X0078260Y0028620D03*
X0078260Y0028580D03*
X0078260Y0028540D03*
X0078300Y0028460D03*
X0078300Y0028420D03*
X0076460Y0029180D03*
X0076460Y0029220D03*
X0076460Y0029260D03*
X0076500Y0029340D03*
X0074860Y0029140D03*
X0074860Y0029060D03*
X0074860Y0029020D03*
X0074860Y0028980D03*
X0074860Y0028940D03*
X0074860Y0028860D03*
X0074860Y0028820D03*
X0074860Y0028780D03*
X0074860Y0028740D03*
X0074860Y0028660D03*
X0074860Y0028620D03*
X0074860Y0028580D03*
X0074860Y0028540D03*
X0074860Y0028460D03*
X0074860Y0028420D03*
X0074860Y0028380D03*
X0074860Y0028340D03*
X0074860Y0028260D03*
X0074860Y0028220D03*
X0074860Y0028180D03*
X0074860Y0028140D03*
X0074860Y0028060D03*
X0074860Y0028020D03*
X0074860Y0027980D03*
X0074860Y0027940D03*
X0074860Y0027860D03*
X0074860Y0027820D03*
X0074860Y0027780D03*
X0076260Y0027460D03*
X0076260Y0027420D03*
X0076260Y0027380D03*
X0076260Y0027340D03*
X0076260Y0027260D03*
X0076260Y0027220D03*
X0076260Y0027180D03*
X0076260Y0027140D03*
X0076260Y0027060D03*
X0076260Y0027020D03*
X0076260Y0026980D03*
X0076260Y0026940D03*
X0076260Y0026860D03*
X0076260Y0026820D03*
X0076260Y0026780D03*
X0076260Y0026740D03*
X0076260Y0026660D03*
X0076900Y0026660D03*
X0076940Y0026580D03*
X0076940Y0026540D03*
X0077060Y0026180D03*
X0077060Y0026140D03*
X0077100Y0026020D03*
X0077100Y0025980D03*
X0077140Y0025860D03*
X0076260Y0025860D03*
X0076260Y0025820D03*
X0076260Y0025780D03*
X0076260Y0025740D03*
X0076260Y0025660D03*
X0076260Y0025620D03*
X0076260Y0025580D03*
X0076260Y0025540D03*
X0076260Y0025460D03*
X0076260Y0025420D03*
X0076260Y0025380D03*
X0076260Y0025940D03*
X0076260Y0025980D03*
X0076260Y0026020D03*
X0075100Y0026020D03*
X0075100Y0025980D03*
X0075100Y0025940D03*
X0075100Y0025860D03*
X0075100Y0025820D03*
X0075100Y0025780D03*
X0075100Y0025740D03*
X0075100Y0025660D03*
X0075100Y0025620D03*
X0075100Y0025580D03*
X0075100Y0025540D03*
X0075100Y0025460D03*
X0075100Y0025420D03*
X0075100Y0025380D03*
X0076260Y0024740D03*
X0077500Y0024780D03*
X0077500Y0024820D03*
X0078700Y0024780D03*
X0083100Y0025460D03*
X0083140Y0025340D03*
X0083140Y0026060D03*
X0084300Y0026060D03*
X0084300Y0026020D03*
X0084300Y0025980D03*
X0084300Y0025940D03*
X0081660Y0031460D03*
X0073700Y0029180D03*
X0073700Y0029140D03*
X0072900Y0029140D03*
X0072900Y0029180D03*
X0072900Y0029220D03*
X0071740Y0029180D03*
X0071740Y0029140D03*
X0071740Y0029060D03*
X0071740Y0028540D03*
X0071740Y0028460D03*
X0071740Y0028420D03*
X0069860Y0028540D03*
X0069860Y0028580D03*
X0069860Y0028620D03*
X0069860Y0028660D03*
X0069860Y0028740D03*
X0069860Y0028780D03*
X0069860Y0028820D03*
X0069860Y0028860D03*
X0069860Y0028940D03*
X0069860Y0028980D03*
X0069860Y0029020D03*
X0069860Y0029060D03*
X0069860Y0029780D03*
X0069860Y0029820D03*
X0069060Y0029220D03*
X0069100Y0029140D03*
X0069100Y0029060D03*
X0069100Y0029020D03*
X0069100Y0028980D03*
X0069100Y0028940D03*
X0069100Y0028860D03*
X0069100Y0028820D03*
X0069100Y0028780D03*
X0069100Y0028740D03*
X0069100Y0028660D03*
X0069100Y0028620D03*
X0069100Y0028580D03*
X0069100Y0028540D03*
X0069060Y0028420D03*
X0069860Y0027860D03*
X0069860Y0027820D03*
X0069860Y0027780D03*
X0069860Y0027740D03*
X0069860Y0027660D03*
X0069860Y0027620D03*
X0069860Y0027580D03*
X0069860Y0027540D03*
X0069860Y0027460D03*
X0069860Y0027420D03*
X0069860Y0027380D03*
X0069860Y0027340D03*
X0069860Y0027260D03*
X0069860Y0027220D03*
X0069860Y0027180D03*
X0069860Y0027140D03*
X0069860Y0027060D03*
X0069860Y0027020D03*
X0069860Y0026980D03*
X0069860Y0026940D03*
X0069860Y0026860D03*
X0069860Y0026820D03*
X0069860Y0026780D03*
X0069860Y0026740D03*
X0069860Y0026660D03*
X0069860Y0026020D03*
X0069860Y0025980D03*
X0069860Y0025940D03*
X0069860Y0025860D03*
X0069860Y0025820D03*
X0069860Y0025780D03*
X0069860Y0025740D03*
X0069860Y0025660D03*
X0069860Y0025620D03*
X0069860Y0025580D03*
X0069860Y0025540D03*
X0069860Y0025460D03*
X0069860Y0025420D03*
X0069860Y0025380D03*
X0069860Y0025340D03*
X0069860Y0025260D03*
X0069860Y0025220D03*
X0069860Y0025180D03*
X0069860Y0025140D03*
X0069860Y0025060D03*
X0069860Y0025020D03*
X0069860Y0024980D03*
X0069860Y0024940D03*
X0069860Y0024860D03*
X0069860Y0024820D03*
X0069860Y0024780D03*
X0069860Y0024740D03*
X0071740Y0025180D03*
X0071740Y0025420D03*
X0072900Y0025420D03*
X0072900Y0025460D03*
X0072900Y0025380D03*
X0072900Y0025340D03*
X0072900Y0025260D03*
X0072900Y0025220D03*
X0072900Y0025940D03*
X0072900Y0025980D03*
X0072900Y0026020D03*
X0072900Y0026060D03*
X0072900Y0026140D03*
X0072900Y0026180D03*
X0073740Y0025980D03*
X0073740Y0025940D03*
X0073740Y0025860D03*
X0073740Y0025820D03*
X0073740Y0025780D03*
X0073740Y0025740D03*
X0073740Y0025660D03*
X0073740Y0025620D03*
X0073740Y0025580D03*
X0073740Y0025540D03*
X0073740Y0025460D03*
X0073740Y0025420D03*
X0073740Y0025380D03*
X0073740Y0025340D03*
X0073740Y0025260D03*
X0073740Y0025220D03*
X0073740Y0025180D03*
X0073740Y0025140D03*
X0073740Y0025060D03*
X0073740Y0025020D03*
X0073740Y0024980D03*
X0073740Y0024940D03*
X0073740Y0024860D03*
X0073740Y0024820D03*
X0073740Y0024780D03*
X0073740Y0024740D03*
X0073740Y0026620D03*
X0073740Y0026660D03*
X0067940Y0028420D03*
X0067940Y0029220D03*
X0072700Y0031460D03*
D21*
X0071780Y0029260D03*
X0071020Y0029140D03*
X0071020Y0029060D03*
X0071020Y0029020D03*
X0071020Y0028980D03*
X0071020Y0028940D03*
X0071020Y0028860D03*
X0071020Y0028780D03*
X0071020Y0028740D03*
X0071020Y0028660D03*
X0071020Y0028620D03*
X0071020Y0028580D03*
X0071020Y0028540D03*
X0071780Y0028380D03*
X0072780Y0028260D03*
X0071020Y0026060D03*
X0071020Y0026020D03*
X0071020Y0025980D03*
X0071020Y0025940D03*
X0071020Y0025860D03*
X0071020Y0025820D03*
X0071020Y0025780D03*
X0071020Y0025740D03*
X0071020Y0025660D03*
X0071020Y0025620D03*
X0071020Y0025580D03*
X0071020Y0025540D03*
X0071020Y0025460D03*
X0071020Y0025420D03*
X0071020Y0025380D03*
X0071020Y0025340D03*
X0071020Y0025260D03*
X0071020Y0025220D03*
X0071020Y0025180D03*
X0071020Y0025140D03*
X0071020Y0025060D03*
X0071020Y0025020D03*
X0071020Y0024980D03*
X0071020Y0024940D03*
X0071020Y0024860D03*
X0071020Y0024820D03*
X0071020Y0024780D03*
X0071020Y0024740D03*
X0076980Y0026340D03*
X0076980Y0026380D03*
X0076980Y0026420D03*
X0077020Y0026260D03*
X0077020Y0026220D03*
X0077180Y0025740D03*
X0078980Y0025660D03*
X0079020Y0025780D03*
X0079020Y0025820D03*
X0079180Y0026340D03*
X0079180Y0026380D03*
X0079220Y0026420D03*
X0079220Y0026460D03*
X0080220Y0028540D03*
X0080220Y0028580D03*
X0080220Y0028620D03*
X0080220Y0028660D03*
X0080220Y0028740D03*
X0080220Y0028780D03*
X0080220Y0028820D03*
X0080220Y0028860D03*
X0080220Y0028940D03*
X0080220Y0028980D03*
X0080220Y0029020D03*
X0080220Y0029060D03*
X0080220Y0029140D03*
X0080220Y0029180D03*
X0080220Y0029220D03*
X0080220Y0029260D03*
X0080220Y0029340D03*
X0080220Y0029380D03*
X0080220Y0029420D03*
X0080220Y0029460D03*
X0080220Y0029540D03*
X0080220Y0029580D03*
X0080220Y0029620D03*
X0080220Y0029660D03*
X0080220Y0029740D03*
X0080220Y0029780D03*
X0080220Y0029820D03*
X0081420Y0029820D03*
X0081420Y0029780D03*
X0081420Y0029740D03*
X0081420Y0029660D03*
X0081420Y0029620D03*
X0081420Y0029580D03*
X0081420Y0029540D03*
X0081420Y0029460D03*
X0081420Y0029420D03*
X0081420Y0029380D03*
X0081420Y0029340D03*
X0081420Y0029260D03*
X0081420Y0029220D03*
X0081420Y0029180D03*
X0081420Y0029140D03*
X0081420Y0029060D03*
X0081420Y0029020D03*
X0081420Y0028980D03*
X0081420Y0028940D03*
X0081420Y0028860D03*
X0081420Y0028820D03*
X0081420Y0028780D03*
X0081420Y0028740D03*
X0081420Y0028660D03*
X0081420Y0028620D03*
X0081420Y0028580D03*
X0081420Y0028540D03*
X0081420Y0027860D03*
X0081420Y0027820D03*
X0083580Y0028540D03*
X0083580Y0029140D03*
X0086420Y0029220D03*
X0086420Y0029260D03*
X0083180Y0026140D03*
X0083180Y0025260D03*
X0077620Y0028380D03*
X0077620Y0028420D03*
X0077620Y0028460D03*
X0077020Y0027780D03*
X0077020Y0029860D03*
D22*
X0077060Y0029660D03*
X0077020Y0028860D03*
X0077060Y0028820D03*
X0077100Y0028780D03*
X0076980Y0027980D03*
X0075820Y0026620D03*
X0074180Y0026460D03*
X0072460Y0025820D03*
X0072460Y0024740D03*
X0070300Y0026620D03*
X0068500Y0029540D03*
X0070300Y0029740D03*
X0072340Y0029540D03*
X0074140Y0029740D03*
X0078860Y0029540D03*
X0082180Y0026460D03*
X0080460Y0025820D03*
X0080460Y0024740D03*
X0075820Y0024780D03*
X0082700Y0029620D03*
X0082700Y0029740D03*
X0084220Y0029580D03*
X0084220Y0028060D03*
D23*
X0083720Y0026660D03*
X0078680Y0025260D03*
X0078680Y0025220D03*
X0078080Y0026060D03*
X0077480Y0025260D03*
X0077480Y0025220D03*
X0076120Y0025140D03*
X0075560Y0024740D03*
X0077000Y0027820D03*
X0077040Y0029820D03*
X0074800Y0032260D03*
X0079560Y0032260D03*
X0081600Y0042940D03*
X0072760Y0042940D03*
D24*
X0072720Y0043060D03*
X0081640Y0043060D03*
X0081400Y0029860D03*
X0082240Y0029860D03*
X0080240Y0029860D03*
X0079480Y0029020D03*
X0079480Y0028980D03*
X0079480Y0028940D03*
X0079480Y0028660D03*
X0079480Y0028620D03*
X0078880Y0027780D03*
X0078080Y0026580D03*
X0078080Y0026540D03*
X0077840Y0025860D03*
X0077840Y0025820D03*
X0077760Y0025580D03*
X0077240Y0025580D03*
X0077240Y0025540D03*
X0077200Y0025620D03*
X0077200Y0025660D03*
X0077160Y0025780D03*
X0077160Y0025820D03*
X0077120Y0025940D03*
X0077080Y0026060D03*
X0078360Y0025780D03*
X0078360Y0025740D03*
X0078400Y0025660D03*
X0078400Y0025620D03*
X0078960Y0025620D03*
X0078960Y0025580D03*
X0079000Y0025740D03*
X0079040Y0025860D03*
X0079080Y0025980D03*
X0079080Y0026020D03*
X0079120Y0026140D03*
X0079720Y0025380D03*
X0079720Y0025340D03*
X0079720Y0025260D03*
X0078680Y0024740D03*
X0077480Y0024740D03*
X0076280Y0027540D03*
X0077440Y0029380D03*
X0078880Y0029860D03*
X0081400Y0027780D03*
X0082240Y0027780D03*
X0083120Y0026020D03*
X0083120Y0025980D03*
X0083120Y0025940D03*
X0083120Y0025420D03*
X0083120Y0025380D03*
X0084160Y0025140D03*
X0085920Y0027780D03*
X0086440Y0029060D03*
X0086440Y0029140D03*
X0086440Y0029180D03*
X0085280Y0029180D03*
X0085280Y0029140D03*
X0084240Y0029860D03*
X0080280Y0026740D03*
X0080920Y0026060D03*
X0080920Y0026020D03*
X0080920Y0025980D03*
X0080920Y0025460D03*
X0080920Y0025420D03*
X0073680Y0027780D03*
X0073680Y0027820D03*
X0073680Y0027860D03*
X0073680Y0027940D03*
X0073680Y0027980D03*
X0073680Y0028020D03*
X0073680Y0028060D03*
X0073680Y0028140D03*
X0073680Y0028180D03*
X0073680Y0028220D03*
X0073680Y0028260D03*
X0073680Y0028340D03*
X0073680Y0028380D03*
X0073680Y0028420D03*
X0073680Y0028460D03*
X0073680Y0028540D03*
X0073680Y0028580D03*
X0073680Y0028620D03*
X0073680Y0028660D03*
X0073680Y0028740D03*
X0073680Y0028780D03*
X0073680Y0028820D03*
X0073680Y0028860D03*
X0073680Y0028940D03*
X0073680Y0028980D03*
X0073680Y0029020D03*
X0073680Y0029060D03*
X0073680Y0029780D03*
X0073680Y0029820D03*
X0073680Y0029860D03*
X0071760Y0029220D03*
X0071720Y0028580D03*
X0071040Y0028820D03*
X0069840Y0029860D03*
X0068480Y0029860D03*
X0067920Y0029180D03*
X0067920Y0029140D03*
X0067920Y0029060D03*
X0067920Y0029020D03*
X0067920Y0028980D03*
X0067920Y0028940D03*
X0067920Y0028660D03*
X0067920Y0028620D03*
X0067920Y0028580D03*
X0067920Y0028540D03*
X0067920Y0028460D03*
X0072280Y0026740D03*
X0071720Y0025380D03*
X0071720Y0025340D03*
X0071720Y0025260D03*
X0071720Y0025220D03*
D25*
X0077480Y0025460D03*
X0083760Y0024740D03*
X0083720Y0026620D03*
X0085920Y0027860D03*
X0085880Y0029740D03*
X0072320Y0029740D03*
D26*
X0070320Y0027940D03*
X0070320Y0026580D03*
X0072440Y0024780D03*
X0078880Y0028140D03*
X0080320Y0026460D03*
X0080440Y0025780D03*
X0080440Y0024780D03*
X0083720Y0026380D03*
X0085920Y0028060D03*
X0082720Y0029660D03*
X0081560Y0031820D03*
X0077080Y0029620D03*
D27*
X0077300Y0028620D03*
X0083780Y0024780D03*
X0068500Y0027940D03*
X0072780Y0042820D03*
X0081580Y0042820D03*
D28*
X0081560Y0031860D03*
X0084160Y0029380D03*
X0084160Y0028260D03*
X0084240Y0028140D03*
X0080360Y0026380D03*
X0080400Y0025740D03*
X0080400Y0024860D03*
X0083760Y0025060D03*
X0083800Y0024980D03*
X0077000Y0029460D03*
X0074200Y0029620D03*
X0072360Y0028180D03*
X0070360Y0028020D03*
X0070360Y0029620D03*
X0072800Y0031860D03*
X0072400Y0025740D03*
X0072400Y0024820D03*
D29*
X0075800Y0024820D03*
X0075800Y0026580D03*
X0072400Y0028060D03*
X0072800Y0031820D03*
D30*
X0074880Y0032140D03*
X0079480Y0032140D03*
X0079440Y0029260D03*
X0079440Y0029220D03*
X0079440Y0028420D03*
X0079440Y0028380D03*
X0079400Y0028340D03*
X0080240Y0028460D03*
X0080280Y0028420D03*
X0080280Y0028380D03*
X0081400Y0028460D03*
X0082280Y0029220D03*
X0083600Y0029220D03*
X0083600Y0029180D03*
X0083640Y0029260D03*
X0083600Y0028460D03*
X0083600Y0028420D03*
X0083640Y0028380D03*
X0085320Y0028380D03*
X0085360Y0028340D03*
X0085320Y0029260D03*
X0084240Y0026180D03*
X0084280Y0026140D03*
X0083200Y0026180D03*
X0083200Y0025220D03*
X0081760Y0025980D03*
X0081760Y0026020D03*
X0081760Y0026060D03*
X0080880Y0026220D03*
X0080880Y0025180D03*
X0079240Y0026540D03*
X0079280Y0026660D03*
X0078080Y0026460D03*
X0078080Y0026420D03*
X0076960Y0026460D03*
X0076920Y0026620D03*
X0076240Y0026060D03*
X0076240Y0025340D03*
X0076240Y0025260D03*
X0075160Y0025220D03*
X0075120Y0025260D03*
X0075120Y0025340D03*
X0075120Y0026060D03*
X0073760Y0026060D03*
X0073760Y0026020D03*
X0072880Y0026220D03*
X0072880Y0025180D03*
X0069880Y0026060D03*
X0069880Y0028420D03*
X0069880Y0028460D03*
X0069880Y0029140D03*
X0069880Y0029180D03*
X0069880Y0029220D03*
X0069080Y0029180D03*
X0069040Y0029260D03*
X0069080Y0028460D03*
X0069040Y0028380D03*
X0067960Y0028380D03*
X0067960Y0029260D03*
X0071000Y0029260D03*
X0071000Y0029220D03*
X0071000Y0029180D03*
X0071000Y0028460D03*
X0071000Y0028420D03*
X0071000Y0028380D03*
X0071800Y0028340D03*
X0072920Y0029060D03*
X0072880Y0029260D03*
X0073720Y0029260D03*
X0073720Y0029220D03*
X0074840Y0029220D03*
X0074840Y0029180D03*
X0076480Y0029140D03*
X0077600Y0028540D03*
X0077600Y0028340D03*
X0078320Y0028380D03*
X0078320Y0029260D03*
X0078680Y0024860D03*
X0078680Y0024820D03*
X0077480Y0024860D03*
D31*
X0075780Y0024860D03*
X0075780Y0026540D03*
X0074220Y0026540D03*
X0074220Y0026580D03*
X0072380Y0026340D03*
X0072300Y0026460D03*
X0072420Y0025780D03*
X0070340Y0026540D03*
X0070340Y0027980D03*
X0070340Y0029660D03*
X0068500Y0029460D03*
X0068500Y0028180D03*
X0068500Y0028140D03*
X0072340Y0029460D03*
X0074180Y0029660D03*
X0076980Y0029420D03*
X0076980Y0028020D03*
X0080380Y0026340D03*
X0080420Y0024820D03*
X0082220Y0026540D03*
X0082220Y0026580D03*
X0083740Y0026340D03*
X0083780Y0024940D03*
X0080940Y0027940D03*
X0084220Y0029540D03*
X0085860Y0029460D03*
X0085860Y0028220D03*
X0081540Y0042660D03*
X0072820Y0042660D03*
D32*
X0072320Y0029660D03*
X0068480Y0029660D03*
X0078880Y0029660D03*
X0078880Y0027980D03*
X0082600Y0029380D03*
X0085880Y0029660D03*
X0085920Y0027940D03*
X0083760Y0024820D03*
D33*
X0083780Y0025020D03*
X0080380Y0025660D03*
X0080900Y0028020D03*
X0080900Y0028060D03*
X0078860Y0028220D03*
X0078860Y0029420D03*
X0077060Y0029540D03*
X0074220Y0029540D03*
X0074220Y0029580D03*
X0072380Y0028140D03*
X0072340Y0026380D03*
X0072380Y0024860D03*
X0070380Y0026420D03*
X0070380Y0026460D03*
X0070380Y0028060D03*
X0070380Y0029580D03*
X0068500Y0029420D03*
X0068500Y0029380D03*
X0068500Y0028260D03*
X0068500Y0028220D03*
X0075740Y0026460D03*
X0075740Y0026420D03*
X0075740Y0024940D03*
X0084180Y0028220D03*
X0084220Y0028180D03*
X0084180Y0029420D03*
X0084220Y0029460D03*
X0085900Y0028180D03*
X0081540Y0042620D03*
X0072820Y0042620D03*
D34*
X0072780Y0031780D03*
X0081580Y0031780D03*
X0084220Y0029620D03*
X0084220Y0028020D03*
X0083780Y0024860D03*
D35*
X0080380Y0024900D03*
X0080380Y0025700D03*
X0072380Y0025700D03*
X0072380Y0024900D03*
D36*
X0070360Y0026500D03*
X0072400Y0028100D03*
X0075760Y0026500D03*
X0075760Y0024900D03*
X0077040Y0029500D03*
X0084240Y0029500D03*
D37*
X0083660Y0029300D03*
X0082300Y0029300D03*
X0082460Y0026700D03*
X0081780Y0026100D03*
X0077500Y0024900D03*
X0074460Y0026700D03*
X0074780Y0029300D03*
X0073740Y0029300D03*
X0072860Y0029300D03*
X0070980Y0029300D03*
X0069900Y0029300D03*
X0069020Y0029300D03*
X0067980Y0029300D03*
X0077580Y0028300D03*
X0078340Y0029300D03*
X0085380Y0028300D03*
D38*
X0086400Y0029300D03*
X0084280Y0026100D03*
X0081400Y0028500D03*
X0080240Y0028500D03*
X0079400Y0029300D03*
X0079280Y0026700D03*
X0078680Y0024900D03*
X0076240Y0025300D03*
X0076240Y0026100D03*
X0075560Y0026700D03*
X0075120Y0026100D03*
X0075120Y0025300D03*
X0073760Y0026100D03*
X0071000Y0026100D03*
X0070560Y0026700D03*
X0069880Y0026100D03*
X0069880Y0028500D03*
X0071800Y0029300D03*
D39*
X0070300Y0027900D03*
X0068500Y0028100D03*
X0076980Y0028900D03*
X0078860Y0028100D03*
X0080980Y0027900D03*
X0080340Y0026500D03*
X0083780Y0024900D03*
D40*
X0080360Y0024940D03*
X0080360Y0024980D03*
X0080360Y0025620D03*
X0078880Y0028260D03*
X0078880Y0029380D03*
X0076960Y0028060D03*
X0075720Y0026380D03*
X0075720Y0026340D03*
X0075720Y0025060D03*
X0075720Y0025020D03*
X0075720Y0024980D03*
X0072360Y0024940D03*
X0072360Y0025620D03*
X0072360Y0025660D03*
X0070400Y0026380D03*
X0070400Y0028140D03*
X0070400Y0029540D03*
X0074240Y0029460D03*
D41*
X0074380Y0029820D03*
X0074820Y0029260D03*
X0076540Y0029380D03*
X0078380Y0029340D03*
X0078340Y0028340D03*
X0080300Y0028340D03*
X0080700Y0027820D03*
X0081380Y0028380D03*
X0081380Y0028420D03*
X0082300Y0029260D03*
X0082940Y0029820D03*
X0083660Y0028340D03*
X0085380Y0029340D03*
X0086380Y0029340D03*
X0084220Y0026220D03*
X0083220Y0026220D03*
X0083220Y0025180D03*
X0081780Y0026140D03*
X0079780Y0025460D03*
X0079780Y0025140D03*
X0078100Y0026380D03*
X0077500Y0024940D03*
X0076220Y0025220D03*
X0076220Y0026140D03*
X0075180Y0026180D03*
X0075140Y0026140D03*
X0075180Y0025180D03*
X0073780Y0026140D03*
X0071780Y0025460D03*
X0071780Y0025140D03*
X0070980Y0026140D03*
X0069900Y0026140D03*
X0070580Y0027820D03*
X0070980Y0028340D03*
X0070940Y0029340D03*
X0071820Y0029340D03*
X0072820Y0029340D03*
X0069900Y0029260D03*
X0069900Y0028380D03*
X0069020Y0028340D03*
X0067980Y0028340D03*
X0072740Y0043020D03*
X0081620Y0043020D03*
D42*
X0079520Y0032180D03*
X0074840Y0032180D03*
X0074760Y0029340D03*
X0071880Y0029380D03*
X0070560Y0029820D03*
X0069920Y0028340D03*
X0069920Y0026180D03*
X0070960Y0026180D03*
X0072840Y0025140D03*
X0077480Y0024980D03*
X0078680Y0024980D03*
X0078680Y0025020D03*
X0078680Y0024940D03*
X0078080Y0026340D03*
X0080840Y0025140D03*
X0083280Y0025140D03*
X0081360Y0028340D03*
X0079360Y0029340D03*
X0086320Y0029380D03*
D43*
X0080860Y0028220D03*
X0080860Y0028180D03*
X0080860Y0028140D03*
X0080340Y0025580D03*
X0080340Y0025540D03*
X0080340Y0025060D03*
X0080340Y0025020D03*
X0074260Y0029380D03*
X0074260Y0029420D03*
X0070420Y0029420D03*
X0070420Y0029460D03*
X0070420Y0029380D03*
X0070420Y0028260D03*
X0070420Y0028220D03*
X0070420Y0028180D03*
X0070420Y0026340D03*
X0070420Y0026260D03*
X0072340Y0025580D03*
X0072340Y0025540D03*
X0072340Y0025020D03*
X0072340Y0024980D03*
D44*
X0070940Y0026220D03*
X0069940Y0026220D03*
X0068500Y0027820D03*
X0069940Y0029340D03*
X0068500Y0029820D03*
X0071900Y0028260D03*
X0072780Y0029380D03*
X0072340Y0029820D03*
X0073780Y0029340D03*
X0076500Y0028260D03*
X0077540Y0028260D03*
X0078860Y0027820D03*
X0078100Y0026260D03*
X0078700Y0025060D03*
X0077500Y0025060D03*
X0077500Y0025020D03*
X0076180Y0026220D03*
X0080820Y0026260D03*
X0083300Y0026260D03*
X0084220Y0027820D03*
X0083700Y0029340D03*
X0084220Y0029820D03*
X0085860Y0029820D03*
X0082340Y0029340D03*
X0081620Y0042980D03*
X0072740Y0042980D03*
D45*
X0072840Y0042580D03*
X0081520Y0042580D03*
X0085840Y0029020D03*
X0085840Y0028980D03*
X0085840Y0028940D03*
X0085840Y0028860D03*
X0085840Y0028820D03*
X0085840Y0028780D03*
X0085840Y0028740D03*
X0085840Y0028660D03*
X0085840Y0028620D03*
X0080840Y0028260D03*
X0072320Y0025060D03*
D46*
X0072320Y0025100D03*
X0072320Y0025500D03*
X0076960Y0028100D03*
X0080320Y0025100D03*
X0085840Y0028700D03*
X0085840Y0028900D03*
D47*
X0075700Y0026300D03*
X0075700Y0025100D03*
D48*
X0077480Y0025100D03*
X0078680Y0025100D03*
X0081320Y0028300D03*
D49*
X0084220Y0028100D03*
X0085940Y0028100D03*
X0083700Y0025100D03*
X0068500Y0029500D03*
D50*
X0070580Y0029780D03*
X0070580Y0027860D03*
X0072380Y0027820D03*
X0075260Y0025140D03*
X0077500Y0025180D03*
X0078100Y0026140D03*
X0078700Y0025180D03*
X0080700Y0027860D03*
X0082940Y0029780D03*
X0079540Y0032220D03*
X0074820Y0032220D03*
X0074380Y0029780D03*
D51*
X0072720Y0031540D03*
X0077520Y0028580D03*
X0078880Y0029820D03*
X0078080Y0026220D03*
X0078080Y0026180D03*
X0078680Y0025140D03*
X0077480Y0025140D03*
X0085920Y0027820D03*
D52*
X0085400Y0029380D03*
X0081800Y0026180D03*
X0076200Y0026180D03*
X0076200Y0025180D03*
X0075200Y0026220D03*
X0073800Y0026180D03*
X0072800Y0026260D03*
X0069000Y0029340D03*
X0068000Y0029340D03*
D53*
X0072700Y0031380D03*
X0074940Y0032060D03*
X0079420Y0032060D03*
X0081660Y0031380D03*
X0077500Y0029340D03*
X0075540Y0026740D03*
X0074460Y0026740D03*
X0080700Y0027780D03*
X0082460Y0026740D03*
X0084180Y0025180D03*
D54*
X0084200Y0025220D03*
X0079400Y0032020D03*
X0072800Y0028340D03*
D55*
X0072800Y0028380D03*
X0071920Y0026180D03*
X0077520Y0029260D03*
X0079920Y0026180D03*
X0084200Y0025260D03*
X0086360Y0028380D03*
X0083080Y0029340D03*
D56*
X0078700Y0025300D03*
X0077500Y0025300D03*
X0072300Y0026700D03*
D57*
X0072680Y0031300D03*
X0081680Y0031300D03*
X0083080Y0029300D03*
X0084200Y0025300D03*
D58*
X0084240Y0027860D03*
X0078880Y0027860D03*
X0078080Y0025980D03*
X0078080Y0025940D03*
X0078680Y0025380D03*
X0078680Y0025340D03*
X0077480Y0025340D03*
X0077480Y0025380D03*
X0078880Y0029780D03*
X0072320Y0029780D03*
X0068480Y0029780D03*
D59*
X0072740Y0031620D03*
X0077500Y0025420D03*
X0078700Y0025420D03*
X0078700Y0025460D03*
D60*
X0078680Y0025500D03*
X0077480Y0025500D03*
D61*
X0080340Y0025500D03*
X0070420Y0026300D03*
D62*
X0072320Y0028700D03*
X0072320Y0028900D03*
X0083720Y0025900D03*
X0083720Y0025700D03*
X0083720Y0025500D03*
D63*
X0084220Y0027780D03*
X0079940Y0026260D03*
X0078340Y0025860D03*
X0078340Y0025820D03*
X0078420Y0025580D03*
X0077820Y0025740D03*
X0077820Y0025780D03*
X0077780Y0025660D03*
X0077780Y0025620D03*
X0077740Y0025540D03*
X0072380Y0027780D03*
X0081660Y0031420D03*
X0085860Y0029860D03*
D64*
X0084220Y0029740D03*
X0080340Y0026660D03*
X0078700Y0025540D03*
X0072300Y0026660D03*
X0068500Y0029740D03*
X0077020Y0029780D03*
X0078860Y0029740D03*
X0081580Y0042860D03*
X0072780Y0042860D03*
D65*
X0072840Y0042540D03*
X0081520Y0042540D03*
X0076960Y0028180D03*
X0072320Y0028740D03*
X0072320Y0028780D03*
X0072320Y0028820D03*
X0072320Y0028860D03*
X0072320Y0028940D03*
X0083720Y0025860D03*
X0083720Y0025820D03*
X0083720Y0025780D03*
X0083720Y0025740D03*
X0083720Y0025660D03*
X0083720Y0025620D03*
X0083720Y0025580D03*
X0083720Y0025540D03*
D66*
X0078380Y0025700D03*
X0079460Y0032100D03*
D67*
X0076900Y0028980D03*
X0074140Y0026380D03*
X0072500Y0025860D03*
X0072340Y0029580D03*
X0068500Y0029580D03*
X0068500Y0028060D03*
X0080340Y0026540D03*
X0080500Y0025860D03*
X0082140Y0026340D03*
X0082140Y0026380D03*
X0082660Y0029540D03*
X0085860Y0029580D03*
D68*
X0080560Y0025900D03*
X0072560Y0025900D03*
D69*
X0078100Y0025900D03*
D70*
X0078100Y0026020D03*
X0068500Y0027860D03*
D71*
X0078080Y0026100D03*
X0080320Y0026700D03*
D72*
X0079920Y0026140D03*
X0082600Y0026180D03*
X0086360Y0028420D03*
X0072800Y0028420D03*
X0071920Y0026140D03*
D73*
X0074580Y0026180D03*
X0076420Y0028460D03*
X0074980Y0031980D03*
X0079380Y0031980D03*
D74*
X0081680Y0031340D03*
X0086360Y0028340D03*
X0079920Y0026220D03*
X0071920Y0026220D03*
X0072680Y0031340D03*
X0074960Y0032020D03*
D75*
X0081640Y0031540D03*
X0085440Y0028260D03*
X0082440Y0026660D03*
X0081840Y0026220D03*
X0084160Y0026260D03*
X0075560Y0026660D03*
X0074440Y0026660D03*
X0073840Y0026220D03*
X0070560Y0026660D03*
D76*
X0074580Y0026220D03*
X0076420Y0028420D03*
X0082580Y0026220D03*
X0084660Y0028380D03*
X0084660Y0029260D03*
X0081660Y0043180D03*
X0072700Y0043180D03*
D77*
X0072320Y0029860D03*
X0070560Y0029860D03*
X0070560Y0027780D03*
X0071920Y0026260D03*
X0076440Y0028340D03*
X0078080Y0026660D03*
X0074400Y0029860D03*
X0082960Y0029860D03*
X0084640Y0029340D03*
X0083720Y0026740D03*
D78*
X0082100Y0026260D03*
X0074100Y0026260D03*
D79*
X0075700Y0026260D03*
D80*
X0074200Y0026500D03*
X0072400Y0026300D03*
X0080400Y0026300D03*
X0082200Y0026500D03*
D81*
X0082120Y0026300D03*
X0074120Y0026300D03*
X0077040Y0029700D03*
D82*
X0083720Y0026300D03*
D83*
X0083720Y0026460D03*
X0085920Y0027980D03*
X0082640Y0029460D03*
X0078880Y0029620D03*
X0078880Y0028020D03*
X0077000Y0027940D03*
X0074120Y0026340D03*
X0072320Y0026580D03*
X0068480Y0028020D03*
X0068480Y0029620D03*
X0072800Y0042740D03*
X0081560Y0042740D03*
D84*
X0078880Y0029460D03*
X0078880Y0028180D03*
X0080920Y0027980D03*
X0080320Y0026420D03*
X0077080Y0029580D03*
X0072320Y0029420D03*
X0072320Y0028220D03*
X0072320Y0026420D03*
X0085920Y0028140D03*
X0085880Y0029420D03*
D85*
X0085880Y0029540D03*
X0085920Y0028020D03*
X0083720Y0026420D03*
X0082160Y0026420D03*
X0082680Y0029580D03*
X0078880Y0029580D03*
X0078880Y0028060D03*
X0077120Y0028740D03*
X0076960Y0028940D03*
X0074160Y0026420D03*
X0072320Y0026540D03*
X0072400Y0028020D03*
D86*
X0072320Y0029500D03*
X0074160Y0029700D03*
X0078880Y0029500D03*
X0082720Y0029700D03*
X0085880Y0029500D03*
X0072320Y0026500D03*
X0070320Y0029700D03*
D87*
X0083740Y0026500D03*
D88*
X0083720Y0026540D03*
X0080320Y0026620D03*
X0078880Y0027940D03*
X0072320Y0026620D03*
D89*
X0072380Y0027980D03*
X0072340Y0029620D03*
X0072780Y0031740D03*
X0076860Y0029020D03*
X0077220Y0028660D03*
X0080340Y0026580D03*
X0082620Y0029420D03*
X0084220Y0029660D03*
X0085860Y0029620D03*
X0084220Y0027980D03*
X0081580Y0031740D03*
D90*
X0076760Y0029060D03*
X0072760Y0031660D03*
X0083720Y0026580D03*
D91*
X0082460Y0026620D03*
X0085860Y0029780D03*
X0081620Y0031580D03*
X0074460Y0026620D03*
X0072740Y0031580D03*
D92*
X0072700Y0031420D03*
X0067900Y0028860D03*
X0067900Y0028820D03*
X0067900Y0028780D03*
X0067900Y0028740D03*
X0068500Y0027780D03*
X0078100Y0026620D03*
D93*
X0078080Y0026700D03*
X0072800Y0028300D03*
X0072720Y0043100D03*
X0081640Y0043100D03*
D94*
X0084640Y0028340D03*
X0070560Y0026740D03*
D95*
X0072380Y0027860D03*
X0081620Y0031620D03*
X0084220Y0029780D03*
D96*
X0081600Y0031660D03*
X0077000Y0027860D03*
D97*
X0078860Y0027900D03*
X0084220Y0027900D03*
X0068500Y0027900D03*
D98*
X0068500Y0029700D03*
X0072340Y0029700D03*
X0072380Y0027900D03*
X0085860Y0029700D03*
D99*
X0084220Y0029700D03*
X0077020Y0027900D03*
D100*
X0085920Y0027900D03*
D101*
X0084220Y0027940D03*
X0077060Y0029740D03*
X0072380Y0027940D03*
X0068500Y0027980D03*
X0072780Y0042780D03*
X0081580Y0042780D03*
D102*
X0081560Y0031900D03*
X0080880Y0028100D03*
X0074240Y0029500D03*
X0072800Y0031900D03*
X0070400Y0029500D03*
X0070400Y0028100D03*
D103*
X0072340Y0028620D03*
X0072340Y0028660D03*
X0072340Y0028980D03*
X0072340Y0029020D03*
X0076940Y0028140D03*
X0081540Y0031940D03*
D104*
X0076980Y0028220D03*
X0072820Y0031940D03*
D105*
X0069000Y0028300D03*
X0068000Y0028300D03*
X0078400Y0028300D03*
D106*
X0080340Y0028300D03*
X0083700Y0028300D03*
X0069940Y0028300D03*
D107*
X0086340Y0028300D03*
D108*
X0076420Y0028380D03*
X0072700Y0043140D03*
X0081660Y0043140D03*
D109*
X0084660Y0029220D03*
X0084660Y0028420D03*
D110*
X0084660Y0028460D03*
X0084660Y0029180D03*
X0077540Y0029220D03*
D111*
X0076420Y0028500D03*
D112*
X0077180Y0028700D03*
D113*
X0077500Y0029300D03*
D114*
X0084640Y0029300D03*
D115*
X0082660Y0029500D03*
D116*
X0078880Y0029700D03*
D117*
X0081600Y0031700D03*
X0072760Y0031700D03*
D118*
X0072820Y0031980D03*
X0081540Y0031980D03*
D119*
X0072840Y0032020D03*
D120*
X0081520Y0032020D03*
D121*
X0081520Y0032060D03*
X0072840Y0032060D03*
D122*
X0072860Y0032100D03*
X0081500Y0032100D03*
D123*
X0081500Y0032140D03*
X0072860Y0032140D03*
X0077180Y0044380D03*
X0077180Y0044420D03*
X0077180Y0044460D03*
X0077180Y0044540D03*
X0077180Y0044580D03*
D124*
X0072880Y0032180D03*
X0081480Y0032180D03*
D125*
X0081480Y0032220D03*
X0072880Y0032220D03*
D126*
X0072900Y0032260D03*
X0081460Y0032260D03*
D127*
X0081460Y0032300D03*
X0072900Y0032300D03*
X0077180Y0043500D03*
D128*
X0081600Y0042900D03*
X0072760Y0042900D03*
X0074760Y0032300D03*
X0079600Y0032300D03*
D129*
X0080960Y0032340D03*
X0073400Y0032340D03*
D130*
X0073380Y0032380D03*
X0080980Y0032380D03*
D131*
X0080980Y0032420D03*
X0073380Y0032420D03*
X0077180Y0042460D03*
D132*
X0074160Y0034420D03*
X0074160Y0034380D03*
X0074160Y0034340D03*
X0074120Y0034260D03*
X0074080Y0034220D03*
X0074080Y0034180D03*
X0073360Y0032460D03*
X0080240Y0034260D03*
X0080280Y0034220D03*
X0080280Y0034180D03*
X0080320Y0034140D03*
D133*
X0080200Y0034340D03*
X0080200Y0034380D03*
X0080200Y0034420D03*
X0081000Y0032460D03*
D134*
X0081000Y0032500D03*
X0080440Y0033900D03*
X0080200Y0034500D03*
X0074160Y0034500D03*
X0073360Y0032500D03*
D135*
X0073340Y0032540D03*
X0073820Y0033740D03*
X0073860Y0033780D03*
X0073900Y0033860D03*
X0074180Y0034540D03*
X0074180Y0034580D03*
X0080180Y0034580D03*
X0080180Y0034540D03*
X0080460Y0033860D03*
X0080500Y0033780D03*
X0080540Y0033740D03*
X0081020Y0032540D03*
D136*
X0081040Y0032580D03*
X0080640Y0033540D03*
X0080600Y0033620D03*
X0080560Y0033660D03*
X0080200Y0034620D03*
X0074160Y0034620D03*
X0073800Y0033660D03*
X0073760Y0033620D03*
X0073720Y0033540D03*
X0073320Y0032580D03*
D137*
X0073320Y0032620D03*
X0073560Y0033260D03*
X0073600Y0033340D03*
X0073640Y0033380D03*
X0073720Y0035820D03*
X0073800Y0038740D03*
X0080560Y0038740D03*
X0080640Y0035820D03*
X0080720Y0033380D03*
X0080760Y0033340D03*
X0080800Y0033260D03*
X0081040Y0032620D03*
D138*
X0081060Y0032660D03*
X0080900Y0033060D03*
X0080860Y0033140D03*
X0080540Y0038780D03*
X0073740Y0035780D03*
X0073540Y0033220D03*
X0073540Y0033180D03*
X0073500Y0033140D03*
X0073460Y0033060D03*
X0073300Y0032660D03*
D139*
X0073320Y0032700D03*
X0073480Y0033100D03*
X0080880Y0033100D03*
X0081040Y0032700D03*
D140*
X0081060Y0032740D03*
X0081060Y0032780D03*
X0081020Y0032820D03*
X0081020Y0032860D03*
X0080180Y0034820D03*
X0080180Y0034860D03*
X0080500Y0035660D03*
X0080700Y0038660D03*
X0080500Y0038820D03*
X0080460Y0038860D03*
X0077180Y0042380D03*
X0073900Y0038860D03*
X0073860Y0038820D03*
X0073660Y0038660D03*
X0073860Y0035660D03*
X0074180Y0034860D03*
X0074180Y0034820D03*
X0073340Y0032860D03*
X0073340Y0032820D03*
X0073300Y0032780D03*
X0073300Y0032740D03*
D141*
X0073380Y0032900D03*
X0073820Y0035700D03*
X0080540Y0035700D03*
X0080980Y0032900D03*
D142*
X0080960Y0032940D03*
X0080960Y0032980D03*
X0080920Y0033020D03*
X0080720Y0035860D03*
X0073640Y0035860D03*
X0073440Y0033020D03*
X0073400Y0032980D03*
X0073400Y0032940D03*
D143*
X0074180Y0034740D03*
X0074180Y0034780D03*
X0073780Y0035740D03*
X0073820Y0038780D03*
X0080580Y0035740D03*
X0080620Y0035780D03*
X0080180Y0034780D03*
X0080180Y0034740D03*
X0080820Y0033220D03*
X0080820Y0033180D03*
D144*
X0080760Y0033300D03*
X0080200Y0034700D03*
X0080600Y0038700D03*
X0074160Y0034700D03*
X0073600Y0033300D03*
X0073760Y0038700D03*
D145*
X0074180Y0034660D03*
X0073740Y0033580D03*
X0073660Y0033460D03*
X0073660Y0033420D03*
X0080180Y0034660D03*
X0080620Y0033580D03*
X0077180Y0042420D03*
D146*
X0080700Y0033460D03*
X0080700Y0033420D03*
D147*
X0073700Y0033500D03*
D148*
X0080660Y0033500D03*
D149*
X0080540Y0033700D03*
X0073820Y0033700D03*
D150*
X0073880Y0033820D03*
X0080480Y0033820D03*
D151*
X0073920Y0033900D03*
D152*
X0073940Y0033940D03*
X0073980Y0034020D03*
X0074020Y0034060D03*
X0074060Y0034140D03*
X0074180Y0034460D03*
X0080180Y0034460D03*
X0080340Y0034060D03*
X0080380Y0034020D03*
X0080420Y0033940D03*
D153*
X0080400Y0033980D03*
X0073960Y0033980D03*
D154*
X0074020Y0034100D03*
X0080340Y0034100D03*
D155*
X0080220Y0034300D03*
X0074140Y0034300D03*
D156*
X0074160Y0034900D03*
X0073920Y0038900D03*
X0080440Y0038900D03*
D157*
X0080200Y0034900D03*
D158*
X0080180Y0034940D03*
X0080180Y0034980D03*
X0080420Y0035580D03*
X0080380Y0038940D03*
X0074180Y0034980D03*
X0074180Y0034940D03*
X0073940Y0035580D03*
X0073980Y0038940D03*
D159*
X0074020Y0038980D03*
X0074060Y0039020D03*
X0073540Y0038620D03*
X0074180Y0035060D03*
X0074180Y0035020D03*
X0080180Y0035020D03*
X0080180Y0035060D03*
X0080820Y0038620D03*
X0080340Y0038980D03*
X0080300Y0039020D03*
D160*
X0080200Y0035100D03*
X0074160Y0035100D03*
D161*
X0074180Y0035140D03*
X0074180Y0035180D03*
X0074060Y0035420D03*
X0080180Y0035180D03*
X0080180Y0035140D03*
X0080260Y0039060D03*
X0077180Y0042340D03*
D162*
X0073420Y0038580D03*
X0074180Y0035260D03*
X0074180Y0035220D03*
X0080180Y0035220D03*
X0080180Y0035260D03*
X0080220Y0035340D03*
X0080980Y0035940D03*
D163*
X0074140Y0035300D03*
X0074140Y0039100D03*
D164*
X0080220Y0039100D03*
X0080220Y0035300D03*
D165*
X0080940Y0038580D03*
X0074140Y0035340D03*
D166*
X0074120Y0035380D03*
X0080240Y0035380D03*
D167*
X0080300Y0035420D03*
X0074100Y0039060D03*
D168*
X0074040Y0035460D03*
X0080320Y0035460D03*
D169*
X0080380Y0035500D03*
X0073980Y0035500D03*
D170*
X0073960Y0035540D03*
X0080400Y0035540D03*
D171*
X0080480Y0035620D03*
X0073880Y0035620D03*
D172*
X0073520Y0035900D03*
D173*
X0080840Y0035900D03*
D174*
X0073400Y0035940D03*
D175*
X0073280Y0035980D03*
X0073280Y0038540D03*
X0074280Y0039180D03*
X0080080Y0039180D03*
X0081080Y0038540D03*
X0081080Y0035980D03*
D176*
X0073140Y0036020D03*
D177*
X0081220Y0036020D03*
D178*
X0081340Y0036060D03*
X0081300Y0038460D03*
X0073060Y0038460D03*
X0073020Y0036060D03*
D179*
X0072900Y0036100D03*
D180*
X0081460Y0036100D03*
D181*
X0081580Y0036140D03*
X0081900Y0036860D03*
X0081900Y0036940D03*
X0081900Y0036980D03*
X0081900Y0037020D03*
X0081900Y0037060D03*
X0081900Y0037460D03*
X0081900Y0037540D03*
X0081900Y0037580D03*
X0081900Y0037620D03*
X0081900Y0037660D03*
X0072780Y0036140D03*
X0072460Y0036860D03*
X0072460Y0036940D03*
X0072460Y0036980D03*
X0072460Y0037020D03*
X0072460Y0037060D03*
X0072460Y0037460D03*
X0072460Y0037540D03*
X0072460Y0037580D03*
X0072460Y0037620D03*
X0072460Y0037660D03*
D182*
X0072540Y0038060D03*
X0072540Y0036420D03*
X0072540Y0036380D03*
X0072620Y0036220D03*
X0072660Y0036180D03*
X0081740Y0036220D03*
X0081820Y0036380D03*
X0081820Y0036420D03*
X0081820Y0038060D03*
D183*
X0081700Y0036180D03*
D184*
X0081760Y0036260D03*
X0081800Y0036340D03*
X0081800Y0038140D03*
X0081800Y0038180D03*
X0081760Y0038220D03*
X0081760Y0038260D03*
X0072600Y0038260D03*
X0072600Y0038220D03*
X0072560Y0038180D03*
X0072560Y0038140D03*
X0072560Y0036340D03*
X0072600Y0036260D03*
D185*
X0072580Y0036300D03*
X0072540Y0038100D03*
X0081820Y0038100D03*
X0081780Y0036300D03*
D186*
X0081840Y0036460D03*
X0081840Y0036540D03*
X0081840Y0037980D03*
X0081840Y0038020D03*
X0081680Y0038340D03*
X0072680Y0038340D03*
X0072520Y0038020D03*
X0072520Y0037980D03*
X0072520Y0036540D03*
X0072520Y0036460D03*
D187*
X0072520Y0036500D03*
X0081840Y0036500D03*
D188*
X0081860Y0036580D03*
X0081860Y0036620D03*
X0081860Y0036660D03*
X0081860Y0037860D03*
X0081860Y0037940D03*
X0072500Y0037940D03*
X0072500Y0037860D03*
X0072500Y0036660D03*
X0072500Y0036620D03*
X0072500Y0036580D03*
D189*
X0072480Y0036700D03*
X0072480Y0037700D03*
X0081880Y0037700D03*
X0081880Y0036700D03*
D190*
X0081880Y0036740D03*
X0081880Y0036780D03*
X0081880Y0036820D03*
X0081880Y0037740D03*
X0081880Y0037780D03*
X0081880Y0037820D03*
X0072480Y0037820D03*
X0072480Y0037780D03*
X0072480Y0037740D03*
X0072480Y0036820D03*
X0072480Y0036780D03*
X0072480Y0036740D03*
D191*
X0072460Y0036900D03*
X0072460Y0037100D03*
X0072460Y0037500D03*
X0081900Y0037500D03*
X0081900Y0037100D03*
X0081900Y0036900D03*
D192*
X0081920Y0037140D03*
X0081920Y0037180D03*
X0081920Y0037220D03*
X0081920Y0037260D03*
X0081920Y0037340D03*
X0081920Y0037380D03*
X0081920Y0037420D03*
X0081560Y0038380D03*
X0072440Y0037420D03*
X0072440Y0037380D03*
X0072440Y0037340D03*
X0072440Y0037260D03*
X0072440Y0037220D03*
X0072440Y0037180D03*
X0072440Y0037140D03*
D193*
X0072440Y0037300D03*
X0081920Y0037300D03*
D194*
X0081860Y0037900D03*
X0072500Y0037900D03*
D195*
X0072640Y0038300D03*
X0081720Y0038300D03*
D196*
X0072800Y0038380D03*
D197*
X0072920Y0038420D03*
X0081440Y0038420D03*
D198*
X0081180Y0038500D03*
X0073180Y0038500D03*
D199*
X0074220Y0039140D03*
X0080140Y0039140D03*
D200*
X0079980Y0039220D03*
X0074380Y0039220D03*
D201*
X0077180Y0039260D03*
X0077180Y0040620D03*
D202*
X0077180Y0039300D03*
D203*
X0077180Y0039340D03*
X0077180Y0040540D03*
X0077180Y0040580D03*
D204*
X0077180Y0039460D03*
X0077180Y0039420D03*
X0077180Y0039380D03*
D205*
X0077180Y0039500D03*
D206*
X0077180Y0039540D03*
X0077180Y0040420D03*
X0077180Y0040460D03*
D207*
X0077180Y0040380D03*
X0077180Y0039620D03*
X0077180Y0039580D03*
D208*
X0077180Y0039660D03*
X0077180Y0039740D03*
X0077180Y0040340D03*
D209*
X0077180Y0040300D03*
X0077180Y0039700D03*
D210*
X0077180Y0039780D03*
X0077180Y0039820D03*
X0077180Y0040260D03*
D211*
X0077180Y0040220D03*
X0077180Y0040180D03*
X0077180Y0039860D03*
D212*
X0077180Y0039900D03*
D213*
X0077180Y0039940D03*
X0077180Y0039980D03*
X0077180Y0040020D03*
X0077180Y0040140D03*
D214*
X0077180Y0040060D03*
D215*
X0077180Y0040100D03*
D216*
X0077180Y0040500D03*
D217*
X0077180Y0040660D03*
D218*
X0077180Y0040700D03*
D219*
X0077180Y0040740D03*
D220*
X0077180Y0040780D03*
D221*
X0077180Y0040820D03*
X0077180Y0040860D03*
D222*
X0077180Y0040900D03*
D223*
X0077180Y0040940D03*
X0077180Y0040980D03*
D224*
X0077180Y0041020D03*
D225*
X0077180Y0041060D03*
D226*
X0077180Y0041100D03*
D227*
X0077180Y0041140D03*
D228*
X0077180Y0041180D03*
X0077180Y0041220D03*
D229*
X0077180Y0041260D03*
D230*
X0077180Y0041300D03*
D231*
X0077180Y0041340D03*
X0077180Y0042060D03*
D232*
X0077180Y0042020D03*
X0077180Y0041380D03*
D233*
X0077180Y0041420D03*
X0077180Y0041980D03*
D234*
X0077180Y0041940D03*
X0077180Y0041460D03*
D235*
X0077180Y0041500D03*
D236*
X0077180Y0041540D03*
D237*
X0077180Y0041580D03*
X0077180Y0041620D03*
X0077180Y0041860D03*
D238*
X0077180Y0041820D03*
X0077180Y0041780D03*
X0077180Y0041660D03*
D239*
X0077180Y0041700D03*
D240*
X0077180Y0041740D03*
D241*
X0077180Y0041900D03*
D242*
X0077180Y0042100D03*
D243*
X0077180Y0042940D03*
X0077180Y0042980D03*
X0077180Y0043020D03*
X0077180Y0043060D03*
X0081420Y0042140D03*
X0072940Y0042140D03*
D244*
X0077180Y0042140D03*
D245*
X0081440Y0042180D03*
X0072920Y0042180D03*
D246*
X0077180Y0042180D03*
D247*
X0081440Y0042220D03*
X0072920Y0042220D03*
D248*
X0077180Y0042220D03*
D249*
X0072900Y0042260D03*
D250*
X0077180Y0042260D03*
D251*
X0077180Y0043740D03*
X0077180Y0043780D03*
X0077180Y0043820D03*
X0077180Y0043860D03*
X0077180Y0043940D03*
X0081460Y0042260D03*
D252*
X0081460Y0042300D03*
X0077180Y0044100D03*
X0072900Y0042300D03*
D253*
X0077180Y0042300D03*
D254*
X0077180Y0044180D03*
X0077180Y0044220D03*
X0077180Y0044260D03*
X0077180Y0044340D03*
X0072900Y0042340D03*
D255*
X0081480Y0042340D03*
D256*
X0081480Y0042380D03*
X0072880Y0042380D03*
D257*
X0072880Y0042420D03*
X0081480Y0042420D03*
D258*
X0081500Y0042460D03*
X0072860Y0042460D03*
D259*
X0072860Y0042500D03*
X0081500Y0042500D03*
D260*
X0077180Y0042500D03*
D261*
X0077180Y0042540D03*
D262*
X0077180Y0042580D03*
D263*
X0077180Y0042620D03*
D264*
X0077180Y0042660D03*
D265*
X0081560Y0042700D03*
X0072800Y0042700D03*
D266*
X0077180Y0042700D03*
D267*
X0077180Y0042740D03*
X0077180Y0042780D03*
X0077180Y0042820D03*
X0077180Y0042860D03*
D268*
X0077180Y0042900D03*
D269*
X0077180Y0043100D03*
X0077180Y0043300D03*
D270*
X0077180Y0043260D03*
X0077180Y0043220D03*
X0077180Y0043180D03*
X0077180Y0043140D03*
D271*
X0077180Y0043340D03*
X0077180Y0043380D03*
X0077180Y0043420D03*
X0077180Y0043460D03*
D272*
X0077180Y0043540D03*
X0077180Y0043580D03*
X0077180Y0043620D03*
X0077180Y0043660D03*
D273*
X0077180Y0043700D03*
D274*
X0077180Y0043900D03*
D275*
X0077180Y0043980D03*
X0077180Y0044020D03*
X0077180Y0044060D03*
X0077180Y0044140D03*
D276*
X0077180Y0044300D03*
D277*
X0077180Y0044500D03*
D278*
X0077180Y0044620D03*
D279*
X0056373Y0039050D03*
X0048848Y0038280D03*
X0049023Y0031315D03*
X0048987Y0031245D03*
X0048848Y0030930D03*
X0048812Y0030895D03*
X0048812Y0030860D03*
X0048777Y0030825D03*
X0052977Y0024700D03*
D280*
X0052977Y0024735D03*
X0055917Y0026590D03*
X0055952Y0026625D03*
X0055987Y0026660D03*
X0054902Y0028130D03*
X0057387Y0029355D03*
X0057387Y0029390D03*
X0057387Y0029425D03*
X0057423Y0029460D03*
X0057423Y0029495D03*
X0054517Y0031525D03*
X0050912Y0031175D03*
X0050877Y0031140D03*
X0050808Y0031035D03*
X0050773Y0031000D03*
X0050737Y0030930D03*
X0050702Y0030895D03*
X0050667Y0030825D03*
X0049477Y0032260D03*
X0045662Y0031350D03*
X0050737Y0028165D03*
X0050773Y0028130D03*
X0048952Y0037685D03*
X0052977Y0039015D03*
X0056302Y0038560D03*
D281*
X0056215Y0037965D03*
X0056215Y0037930D03*
X0052960Y0038455D03*
X0052960Y0038490D03*
X0049110Y0036810D03*
X0049110Y0036775D03*
X0049110Y0036740D03*
X0049705Y0032610D03*
X0051735Y0031700D03*
X0057545Y0030370D03*
X0057545Y0030335D03*
X0054675Y0027815D03*
X0055340Y0026135D03*
X0052960Y0024770D03*
X0051420Y0027675D03*
X0045715Y0031105D03*
D282*
X0049827Y0032785D03*
X0049477Y0034850D03*
X0049373Y0035270D03*
X0049373Y0035305D03*
X0055462Y0032960D03*
X0057562Y0030825D03*
X0051648Y0027640D03*
X0049198Y0026730D03*
X0052977Y0024805D03*
D283*
X0052960Y0024840D03*
X0052610Y0027255D03*
X0048235Y0027675D03*
X0048200Y0027710D03*
X0057545Y0031210D03*
X0058455Y0033520D03*
X0058455Y0033555D03*
X0058490Y0033590D03*
X0052785Y0036635D03*
X0052785Y0036670D03*
X0052785Y0036705D03*
X0052785Y0036740D03*
X0052785Y0036775D03*
X0049985Y0032925D03*
D284*
X0052645Y0035095D03*
X0052645Y0035130D03*
X0052645Y0035165D03*
X0052645Y0035200D03*
X0052645Y0035235D03*
X0052645Y0035270D03*
X0057510Y0031490D03*
X0054220Y0027640D03*
X0052960Y0024875D03*
X0047885Y0028095D03*
X0046065Y0030580D03*
D285*
X0050195Y0033100D03*
X0052610Y0034395D03*
X0052610Y0034430D03*
X0052610Y0034465D03*
X0052610Y0034500D03*
X0052960Y0024910D03*
D286*
X0052942Y0024945D03*
X0057457Y0031875D03*
D287*
X0052610Y0027430D03*
X0052925Y0024980D03*
X0047325Y0028935D03*
D288*
X0047185Y0029180D03*
X0052925Y0025015D03*
X0057370Y0032155D03*
D289*
X0057317Y0032295D03*
X0047062Y0029460D03*
X0052907Y0025050D03*
D290*
X0052925Y0025085D03*
X0046975Y0029705D03*
X0046975Y0029740D03*
X0057265Y0032400D03*
D291*
X0052942Y0031735D03*
X0046923Y0030020D03*
X0046923Y0029985D03*
X0046923Y0029950D03*
X0052907Y0025120D03*
D292*
X0052907Y0025155D03*
D293*
X0052890Y0025190D03*
X0046870Y0030475D03*
X0057160Y0032645D03*
D294*
X0052873Y0025225D03*
D295*
X0052872Y0025260D03*
X0057072Y0032785D03*
D296*
X0052855Y0025295D03*
D297*
X0052837Y0025330D03*
D298*
X0052837Y0025365D03*
D299*
X0052820Y0025400D03*
D300*
X0052820Y0025435D03*
D301*
X0052802Y0025470D03*
D302*
X0052802Y0025505D03*
X0053817Y0033905D03*
X0053817Y0033940D03*
X0053852Y0034045D03*
D303*
X0052785Y0025540D03*
D304*
X0052767Y0025575D03*
D305*
X0052750Y0025610D03*
D306*
X0052750Y0025645D03*
D307*
X0052732Y0025680D03*
D308*
X0052715Y0025715D03*
D309*
X0052715Y0025750D03*
D310*
X0052697Y0025785D03*
D311*
X0052680Y0025820D03*
D312*
X0050877Y0025855D03*
X0047552Y0028550D03*
X0052627Y0034185D03*
X0057457Y0031770D03*
D313*
X0057527Y0031385D03*
X0058192Y0033100D03*
X0058227Y0033135D03*
X0055182Y0033135D03*
X0052697Y0035690D03*
X0052697Y0035725D03*
X0052697Y0035760D03*
X0052697Y0035795D03*
X0052697Y0035830D03*
X0052697Y0035865D03*
X0046012Y0030615D03*
X0047937Y0028025D03*
X0047972Y0027990D03*
X0054657Y0025855D03*
D314*
X0050737Y0025890D03*
X0047762Y0028270D03*
X0047727Y0028305D03*
X0052627Y0034710D03*
X0052627Y0034745D03*
X0052627Y0034780D03*
X0052627Y0034815D03*
X0052627Y0034850D03*
D315*
X0052820Y0036985D03*
X0052820Y0037020D03*
X0052820Y0037055D03*
X0052820Y0037090D03*
X0052820Y0037125D03*
X0055585Y0034570D03*
X0055515Y0034325D03*
X0055515Y0034290D03*
X0055480Y0034220D03*
X0055480Y0034185D03*
X0055445Y0034080D03*
X0055305Y0033065D03*
X0058560Y0033765D03*
X0058595Y0033835D03*
X0048410Y0027465D03*
X0048340Y0027535D03*
X0045890Y0030755D03*
X0054815Y0025890D03*
D316*
X0050598Y0025925D03*
X0057527Y0031455D03*
X0058123Y0032995D03*
X0052662Y0035305D03*
X0052662Y0035340D03*
X0052662Y0035375D03*
X0052662Y0035410D03*
X0052662Y0035445D03*
X0050107Y0033030D03*
D317*
X0049897Y0032855D03*
X0049687Y0034150D03*
X0049687Y0034185D03*
X0049652Y0034220D03*
X0049652Y0034255D03*
X0052872Y0037440D03*
X0052872Y0037475D03*
X0052872Y0037510D03*
X0052872Y0037545D03*
X0055987Y0036530D03*
X0055987Y0036495D03*
X0055987Y0036460D03*
X0055987Y0036425D03*
X0055952Y0036355D03*
X0055952Y0036320D03*
X0055952Y0036285D03*
X0055952Y0036250D03*
X0055917Y0036145D03*
X0055917Y0036110D03*
X0055917Y0036075D03*
X0058752Y0034220D03*
X0058717Y0034150D03*
X0057562Y0031000D03*
X0054902Y0025925D03*
X0049967Y0026205D03*
X0049897Y0026240D03*
X0048602Y0027255D03*
X0045837Y0030825D03*
D318*
X0050510Y0025960D03*
X0052610Y0027290D03*
X0058140Y0033030D03*
X0058175Y0033065D03*
D319*
X0058857Y0034500D03*
X0058857Y0034535D03*
X0056092Y0037090D03*
X0056092Y0037125D03*
X0056092Y0037160D03*
X0056092Y0037195D03*
X0052907Y0037790D03*
X0052907Y0037825D03*
X0052907Y0037860D03*
X0052907Y0037895D03*
X0049407Y0035165D03*
X0049407Y0035130D03*
X0049407Y0035095D03*
X0049442Y0035025D03*
X0049442Y0034990D03*
X0055007Y0025960D03*
D320*
X0050422Y0025995D03*
X0048077Y0027850D03*
X0048042Y0027885D03*
X0045977Y0030650D03*
X0052732Y0036075D03*
X0052732Y0036110D03*
X0052732Y0036145D03*
X0052732Y0036180D03*
X0052732Y0036215D03*
X0058297Y0033240D03*
D321*
X0058892Y0034640D03*
X0056127Y0037335D03*
X0056127Y0037370D03*
X0056127Y0037405D03*
X0052942Y0038035D03*
X0049267Y0035830D03*
X0049267Y0035795D03*
X0049267Y0035760D03*
X0049267Y0035725D03*
X0049302Y0035690D03*
X0049302Y0035655D03*
X0049302Y0035620D03*
X0049302Y0035585D03*
X0045767Y0030965D03*
X0055077Y0025995D03*
X0057562Y0030720D03*
D322*
X0058367Y0033380D03*
X0052767Y0036460D03*
X0052767Y0036495D03*
X0052767Y0036530D03*
X0052767Y0036565D03*
X0052767Y0036600D03*
X0045942Y0030685D03*
X0048182Y0027745D03*
X0050317Y0026030D03*
D323*
X0055148Y0026030D03*
X0057562Y0030580D03*
X0057562Y0030615D03*
X0057562Y0030650D03*
X0053012Y0032155D03*
X0049232Y0036005D03*
X0049232Y0036040D03*
X0049232Y0036075D03*
X0049198Y0036145D03*
X0049198Y0036180D03*
X0049198Y0036215D03*
X0052942Y0038140D03*
X0052942Y0038175D03*
X0052942Y0038210D03*
X0056162Y0037615D03*
X0056162Y0037580D03*
X0056162Y0037545D03*
X0058927Y0034745D03*
X0045767Y0031000D03*
D324*
X0045908Y0030720D03*
X0048252Y0027640D03*
X0048287Y0027605D03*
X0048323Y0027570D03*
X0050177Y0026100D03*
X0050248Y0026065D03*
X0057562Y0031140D03*
X0057562Y0031175D03*
X0058508Y0033625D03*
X0058508Y0033660D03*
X0058542Y0033695D03*
X0058542Y0033730D03*
X0058577Y0033800D03*
X0055462Y0034115D03*
X0055462Y0034150D03*
X0052802Y0036810D03*
X0052802Y0036845D03*
X0052802Y0036880D03*
X0052802Y0036915D03*
X0052802Y0036950D03*
D325*
X0052942Y0038280D03*
X0056197Y0037825D03*
X0056197Y0037790D03*
X0056197Y0037755D03*
X0058962Y0034850D03*
X0057562Y0030545D03*
X0057562Y0030510D03*
X0054622Y0027780D03*
X0055217Y0026065D03*
X0052627Y0027185D03*
X0049757Y0032680D03*
X0045732Y0031070D03*
X0049162Y0036355D03*
X0049162Y0036390D03*
X0049162Y0036425D03*
X0049162Y0036460D03*
D326*
X0057562Y0030440D03*
X0057562Y0030405D03*
X0055287Y0026100D03*
D327*
X0054412Y0027675D03*
X0050107Y0026135D03*
X0050037Y0026170D03*
X0048462Y0027430D03*
X0053012Y0032120D03*
X0049932Y0032890D03*
X0049757Y0033940D03*
X0049757Y0033975D03*
X0049723Y0034045D03*
X0052837Y0037160D03*
X0052837Y0037195D03*
X0052837Y0037230D03*
X0052837Y0037265D03*
X0055812Y0035585D03*
X0055777Y0035410D03*
X0055742Y0035270D03*
X0055742Y0035235D03*
X0055707Y0035095D03*
X0055707Y0035060D03*
X0055673Y0034955D03*
X0055673Y0034920D03*
X0055673Y0034885D03*
X0055637Y0034815D03*
X0055637Y0034780D03*
X0055637Y0034745D03*
X0055602Y0034710D03*
X0055602Y0034675D03*
X0055602Y0034640D03*
X0055602Y0034605D03*
X0055567Y0034535D03*
X0055567Y0034500D03*
X0055567Y0034465D03*
X0055532Y0034395D03*
X0055532Y0034360D03*
X0055498Y0034255D03*
X0058612Y0033905D03*
X0058612Y0033870D03*
X0058648Y0033940D03*
X0058648Y0033975D03*
X0058682Y0034045D03*
X0057562Y0031105D03*
X0057562Y0031070D03*
D328*
X0057545Y0030265D03*
X0057545Y0030230D03*
X0054710Y0027850D03*
X0055410Y0026170D03*
X0051350Y0027710D03*
X0059015Y0035025D03*
X0056250Y0038070D03*
X0056250Y0038105D03*
X0049075Y0036985D03*
X0049075Y0036950D03*
X0049075Y0036915D03*
D329*
X0049058Y0037020D03*
X0049058Y0037055D03*
X0049058Y0037090D03*
X0052977Y0038595D03*
X0052977Y0038630D03*
X0052977Y0038665D03*
X0056267Y0038140D03*
X0059033Y0035095D03*
X0059033Y0035060D03*
X0054167Y0031700D03*
X0057527Y0030195D03*
X0057527Y0030160D03*
X0057527Y0030125D03*
X0049652Y0032540D03*
X0045698Y0031175D03*
X0055462Y0026205D03*
D330*
X0055515Y0026240D03*
X0054745Y0027885D03*
X0051630Y0031665D03*
X0049635Y0032505D03*
X0045680Y0031210D03*
X0049040Y0037125D03*
X0049040Y0037160D03*
X0049040Y0037195D03*
D331*
X0049565Y0034535D03*
X0049600Y0034430D03*
X0049600Y0034395D03*
X0049635Y0034360D03*
X0049635Y0034325D03*
X0049635Y0034290D03*
X0052890Y0037580D03*
X0052890Y0037615D03*
X0052890Y0037650D03*
X0056040Y0036810D03*
X0056005Y0036670D03*
X0056005Y0036635D03*
X0056005Y0036600D03*
X0056005Y0036565D03*
X0055970Y0036390D03*
X0058770Y0034290D03*
X0058770Y0034255D03*
X0058735Y0034185D03*
X0057580Y0030965D03*
X0049845Y0026275D03*
X0048830Y0027045D03*
X0048795Y0027080D03*
X0048760Y0027115D03*
X0048725Y0027150D03*
X0048690Y0027185D03*
X0048655Y0027220D03*
D332*
X0051175Y0027780D03*
X0055550Y0026275D03*
X0055585Y0026310D03*
X0057510Y0029950D03*
X0057510Y0029985D03*
X0057510Y0030020D03*
X0054290Y0031665D03*
X0051525Y0031630D03*
X0059050Y0035165D03*
X0056285Y0038280D03*
D333*
X0056057Y0036915D03*
X0056057Y0036880D03*
X0056057Y0036845D03*
X0056022Y0036775D03*
X0056022Y0036740D03*
X0056022Y0036705D03*
X0052907Y0037685D03*
X0049547Y0034605D03*
X0049547Y0034570D03*
X0049582Y0034500D03*
X0049582Y0034465D03*
X0055427Y0032995D03*
X0058822Y0034430D03*
X0052627Y0027220D03*
X0049792Y0026310D03*
X0049722Y0026345D03*
X0049617Y0026415D03*
X0048952Y0026940D03*
X0048917Y0026975D03*
X0048882Y0027010D03*
D334*
X0054797Y0027955D03*
X0055637Y0026345D03*
X0057492Y0029880D03*
X0057492Y0029915D03*
X0051472Y0031595D03*
X0049582Y0032435D03*
X0048987Y0037370D03*
X0048987Y0037405D03*
X0052977Y0038770D03*
X0052977Y0038805D03*
X0056267Y0038315D03*
X0059067Y0035200D03*
D335*
X0058787Y0034360D03*
X0058787Y0034325D03*
X0057562Y0030930D03*
X0057562Y0030895D03*
X0049862Y0032820D03*
X0049512Y0034710D03*
X0045837Y0030860D03*
X0048987Y0026905D03*
X0049687Y0026380D03*
D336*
X0051105Y0027815D03*
X0054815Y0027990D03*
X0055690Y0026380D03*
X0057475Y0029775D03*
X0057475Y0029810D03*
X0057475Y0029845D03*
X0054360Y0031630D03*
X0051385Y0031560D03*
X0049565Y0032400D03*
X0059085Y0035235D03*
X0056285Y0038350D03*
X0056285Y0038385D03*
X0052995Y0038840D03*
D337*
X0052977Y0038875D03*
X0056302Y0038420D03*
X0051332Y0031525D03*
X0049547Y0032365D03*
X0057457Y0029740D03*
X0057457Y0029705D03*
X0055742Y0026415D03*
X0051052Y0027850D03*
D338*
X0049565Y0026450D03*
X0049530Y0026485D03*
X0049460Y0026520D03*
X0049425Y0026555D03*
X0049390Y0026590D03*
X0049320Y0026625D03*
X0049285Y0026660D03*
X0049250Y0026695D03*
X0049145Y0026765D03*
X0049110Y0026800D03*
X0049075Y0026835D03*
X0049040Y0026870D03*
X0045820Y0030895D03*
X0049530Y0034640D03*
X0049530Y0034675D03*
X0049495Y0034745D03*
X0049495Y0034780D03*
X0049495Y0034815D03*
X0049460Y0034885D03*
X0049460Y0034920D03*
X0049460Y0034955D03*
X0049425Y0035060D03*
X0052890Y0037720D03*
X0052890Y0037755D03*
X0056075Y0037055D03*
X0056075Y0037020D03*
X0056075Y0036985D03*
X0056075Y0036950D03*
X0058840Y0034465D03*
X0058805Y0034395D03*
X0057580Y0030860D03*
X0054500Y0027710D03*
D339*
X0054850Y0028025D03*
X0055760Y0026450D03*
X0051000Y0027885D03*
X0050965Y0027920D03*
X0051175Y0031420D03*
X0051245Y0031455D03*
X0051280Y0031490D03*
X0049530Y0032330D03*
X0054430Y0031595D03*
X0059085Y0035270D03*
X0056285Y0038455D03*
X0052995Y0038910D03*
X0048970Y0037580D03*
X0048970Y0037545D03*
X0048970Y0037510D03*
D340*
X0048952Y0037615D03*
X0052977Y0038945D03*
X0056302Y0038490D03*
X0051123Y0031385D03*
X0051087Y0031350D03*
X0051052Y0031315D03*
X0045662Y0031315D03*
X0055812Y0026485D03*
X0055848Y0026520D03*
D341*
X0055900Y0026555D03*
X0054885Y0028095D03*
X0057440Y0029530D03*
X0057440Y0029565D03*
X0054500Y0031560D03*
X0050965Y0031210D03*
X0050860Y0031105D03*
X0050825Y0031070D03*
X0049495Y0032295D03*
X0050790Y0028095D03*
X0050825Y0028060D03*
X0050860Y0028025D03*
X0050895Y0027990D03*
X0050930Y0027955D03*
X0059120Y0035305D03*
X0056320Y0038525D03*
X0052995Y0038980D03*
X0048935Y0037650D03*
D342*
X0048935Y0037720D03*
X0048935Y0037755D03*
X0049460Y0032225D03*
X0050755Y0030965D03*
X0050685Y0030860D03*
X0050615Y0030755D03*
X0050615Y0030720D03*
X0050580Y0030685D03*
X0050580Y0030650D03*
X0050545Y0030615D03*
X0050545Y0030580D03*
X0050510Y0030545D03*
X0050510Y0030510D03*
X0050510Y0030475D03*
X0050440Y0030300D03*
X0050405Y0030160D03*
X0050580Y0028410D03*
X0050615Y0028340D03*
X0050685Y0028235D03*
X0050720Y0028200D03*
X0054920Y0028200D03*
X0054920Y0028165D03*
X0056040Y0026695D03*
X0057370Y0029285D03*
X0057370Y0029320D03*
X0054570Y0031490D03*
X0059120Y0035340D03*
X0056320Y0038595D03*
D343*
X0052977Y0039050D03*
X0048917Y0037825D03*
X0048917Y0037790D03*
X0049442Y0032190D03*
X0050457Y0030370D03*
X0050457Y0030335D03*
X0050423Y0030265D03*
X0050423Y0030230D03*
X0050423Y0030195D03*
X0050387Y0030125D03*
X0050387Y0030090D03*
X0050387Y0030055D03*
X0050387Y0030020D03*
X0050352Y0029950D03*
X0050352Y0029915D03*
X0050352Y0029880D03*
X0050352Y0029845D03*
X0050352Y0029810D03*
X0050352Y0029775D03*
X0050352Y0029740D03*
X0050352Y0029705D03*
X0050352Y0029285D03*
X0050352Y0029250D03*
X0050352Y0029215D03*
X0050387Y0029005D03*
X0050387Y0028970D03*
X0050423Y0028830D03*
X0050423Y0028795D03*
X0050457Y0028725D03*
X0050457Y0028690D03*
X0050492Y0028620D03*
X0050492Y0028585D03*
X0050527Y0028550D03*
X0050527Y0028515D03*
X0050562Y0028480D03*
X0050562Y0028445D03*
X0050598Y0028375D03*
X0054937Y0028235D03*
X0056127Y0026800D03*
X0056092Y0026765D03*
X0056057Y0026730D03*
X0057352Y0029215D03*
X0057352Y0029250D03*
X0054692Y0031385D03*
X0054657Y0031420D03*
X0054623Y0031455D03*
X0059137Y0035375D03*
X0045662Y0031385D03*
D344*
X0050370Y0029985D03*
X0050370Y0029180D03*
X0050370Y0029145D03*
X0050370Y0029110D03*
X0050370Y0029075D03*
X0050370Y0029040D03*
X0050405Y0028935D03*
X0050405Y0028900D03*
X0050405Y0028865D03*
X0054955Y0028305D03*
X0054955Y0028270D03*
X0056180Y0026870D03*
X0056145Y0026835D03*
X0054745Y0031315D03*
X0056320Y0038630D03*
X0056320Y0038665D03*
X0052995Y0039085D03*
D345*
X0049425Y0032155D03*
X0049390Y0032120D03*
X0050335Y0029670D03*
X0050335Y0029635D03*
X0050335Y0029600D03*
X0050335Y0029565D03*
X0050335Y0029530D03*
X0050335Y0029495D03*
X0050335Y0029460D03*
X0050335Y0029425D03*
X0050335Y0029390D03*
X0050335Y0029355D03*
X0050335Y0029320D03*
X0050440Y0028760D03*
X0050475Y0028655D03*
X0054710Y0031350D03*
X0057335Y0029180D03*
X0057335Y0029145D03*
X0057335Y0029110D03*
X0056215Y0026905D03*
D346*
X0056232Y0026940D03*
X0056267Y0026975D03*
X0054972Y0028340D03*
X0054972Y0028375D03*
X0057282Y0028970D03*
X0057282Y0029005D03*
X0057317Y0029040D03*
X0057317Y0029075D03*
X0054797Y0031245D03*
X0054762Y0031280D03*
X0049372Y0032085D03*
X0048917Y0037860D03*
X0052977Y0039120D03*
X0056337Y0038700D03*
X0059137Y0035410D03*
D347*
X0052977Y0039155D03*
X0054902Y0031035D03*
X0054972Y0030825D03*
X0054972Y0030790D03*
X0054972Y0030755D03*
X0054972Y0030720D03*
X0054972Y0030685D03*
X0054972Y0030650D03*
X0055007Y0028725D03*
X0055007Y0028690D03*
X0055007Y0028655D03*
X0055007Y0028620D03*
X0055007Y0028585D03*
X0055007Y0028550D03*
X0055007Y0028515D03*
X0056407Y0027150D03*
X0056372Y0027115D03*
X0056442Y0027185D03*
X0056302Y0027010D03*
X0057177Y0028655D03*
X0057247Y0028830D03*
X0057247Y0028865D03*
D348*
X0057265Y0028900D03*
X0057265Y0028935D03*
X0057230Y0028795D03*
X0056355Y0027080D03*
X0056320Y0027045D03*
X0054990Y0028410D03*
X0054990Y0028445D03*
X0054990Y0028480D03*
X0054990Y0030615D03*
X0054955Y0030860D03*
X0054920Y0031000D03*
X0054885Y0031070D03*
X0054885Y0031105D03*
X0054850Y0031140D03*
X0054850Y0031175D03*
X0054815Y0031210D03*
X0049355Y0032050D03*
X0045645Y0031420D03*
X0048900Y0037895D03*
X0048900Y0037930D03*
D349*
X0048830Y0038420D03*
X0056390Y0039190D03*
X0052645Y0027080D03*
D350*
X0055112Y0027080D03*
X0055112Y0027115D03*
X0048602Y0030615D03*
X0049198Y0031735D03*
X0049232Y0031770D03*
X0048882Y0038140D03*
D351*
X0048900Y0037965D03*
X0052995Y0039190D03*
X0059155Y0035445D03*
X0057195Y0028690D03*
X0057160Y0028620D03*
X0057160Y0028585D03*
X0057160Y0028550D03*
X0057125Y0028515D03*
X0057125Y0028480D03*
X0057090Y0028410D03*
X0056530Y0027325D03*
X0056495Y0027290D03*
X0056495Y0027255D03*
X0056460Y0027220D03*
X0055025Y0027500D03*
X0055025Y0028760D03*
X0055025Y0028795D03*
X0055025Y0028830D03*
X0055025Y0028865D03*
X0055025Y0028900D03*
X0055025Y0028935D03*
X0055025Y0028970D03*
X0055025Y0029005D03*
X0055025Y0029040D03*
X0055025Y0029075D03*
X0055025Y0029110D03*
X0055025Y0029145D03*
X0055025Y0029180D03*
X0055025Y0029215D03*
X0055025Y0029250D03*
X0055025Y0029285D03*
X0055025Y0029320D03*
X0055025Y0029355D03*
X0052645Y0027115D03*
X0049320Y0031980D03*
D352*
X0045680Y0031245D03*
X0049005Y0037300D03*
X0049005Y0037335D03*
X0053030Y0032190D03*
X0052645Y0027150D03*
D353*
X0055095Y0027150D03*
X0045645Y0031490D03*
X0048865Y0038105D03*
X0052995Y0039295D03*
X0056355Y0038910D03*
X0056355Y0038875D03*
D354*
X0052977Y0039260D03*
X0048883Y0038070D03*
X0049267Y0031840D03*
X0055077Y0027255D03*
X0055077Y0027220D03*
X0055077Y0027185D03*
X0059173Y0035480D03*
D355*
X0058700Y0034115D03*
X0058700Y0034080D03*
X0058665Y0034010D03*
X0055690Y0034990D03*
X0055690Y0035025D03*
X0055725Y0035130D03*
X0055725Y0035165D03*
X0055725Y0035200D03*
X0055760Y0035305D03*
X0055760Y0035340D03*
X0055760Y0035375D03*
X0055865Y0035760D03*
X0055865Y0035795D03*
X0055865Y0035830D03*
X0055865Y0035865D03*
X0055865Y0035900D03*
X0055900Y0035935D03*
X0055900Y0035970D03*
X0055900Y0036005D03*
X0055900Y0036040D03*
X0055935Y0036180D03*
X0055935Y0036215D03*
X0055375Y0033030D03*
X0049740Y0034010D03*
X0048515Y0027360D03*
X0048550Y0027325D03*
X0048585Y0027290D03*
D356*
X0049285Y0031875D03*
X0049285Y0031910D03*
X0055060Y0027360D03*
X0055060Y0027325D03*
X0055060Y0027290D03*
X0056635Y0027500D03*
X0056705Y0027605D03*
X0056740Y0027675D03*
X0056775Y0027745D03*
X0056810Y0027780D03*
X0056810Y0027815D03*
X0056845Y0027850D03*
X0056845Y0027885D03*
X0056880Y0027920D03*
X0056880Y0027955D03*
X0056915Y0027990D03*
X0056915Y0028025D03*
X0056950Y0028060D03*
X0056950Y0028095D03*
X0056985Y0028165D03*
X0057020Y0028235D03*
X0056355Y0038840D03*
D357*
X0052610Y0034675D03*
X0057510Y0031630D03*
X0057510Y0031595D03*
X0054150Y0029845D03*
X0054150Y0029810D03*
X0054150Y0029775D03*
X0054150Y0029740D03*
X0054150Y0029705D03*
X0054150Y0029670D03*
X0054150Y0029635D03*
X0054150Y0029600D03*
X0054150Y0029565D03*
X0054150Y0029530D03*
X0054150Y0029495D03*
X0054150Y0029460D03*
X0054150Y0029425D03*
X0054150Y0029390D03*
X0052610Y0027325D03*
X0047710Y0028340D03*
X0047675Y0028375D03*
D358*
X0052610Y0027360D03*
X0057475Y0031735D03*
X0052610Y0034220D03*
X0052610Y0034255D03*
X0052610Y0034290D03*
X0052610Y0034325D03*
D359*
X0053048Y0032225D03*
X0049302Y0031945D03*
X0045627Y0031455D03*
X0052977Y0039225D03*
X0056337Y0038805D03*
X0057073Y0028375D03*
X0057073Y0028340D03*
X0057037Y0028305D03*
X0057037Y0028270D03*
X0057002Y0028200D03*
X0056723Y0027640D03*
X0056687Y0027570D03*
X0056652Y0027535D03*
X0056548Y0027360D03*
D360*
X0057580Y0031035D03*
X0049705Y0034080D03*
X0049705Y0034115D03*
X0052855Y0037300D03*
X0052855Y0037335D03*
X0052855Y0037370D03*
X0052855Y0037405D03*
X0055830Y0035725D03*
X0055830Y0035690D03*
X0055830Y0035655D03*
X0055830Y0035620D03*
X0055795Y0035550D03*
X0055795Y0035515D03*
X0055795Y0035480D03*
X0055795Y0035445D03*
X0055655Y0034850D03*
X0045855Y0030790D03*
X0048480Y0027395D03*
D361*
X0047430Y0028760D03*
X0047395Y0028795D03*
X0052610Y0027395D03*
X0057440Y0031910D03*
D362*
X0057107Y0028445D03*
X0056967Y0028130D03*
X0056757Y0027710D03*
X0056617Y0027465D03*
X0056582Y0027430D03*
X0056582Y0027395D03*
X0055042Y0027395D03*
X0055042Y0027430D03*
X0055042Y0027465D03*
X0048532Y0030580D03*
X0048882Y0038000D03*
X0048882Y0038035D03*
D363*
X0057387Y0032085D03*
X0052592Y0027465D03*
X0047237Y0029075D03*
D364*
X0048375Y0027500D03*
X0049775Y0033905D03*
X0055550Y0034430D03*
D365*
X0057352Y0032190D03*
X0052592Y0027500D03*
X0047167Y0029215D03*
X0047167Y0029250D03*
X0047132Y0029285D03*
D366*
X0053152Y0027535D03*
D367*
X0053135Y0027570D03*
X0056985Y0032890D03*
D368*
X0056950Y0032925D03*
X0053100Y0027605D03*
D369*
X0054762Y0027920D03*
X0051262Y0027745D03*
X0057527Y0030055D03*
X0057527Y0030090D03*
X0049617Y0032470D03*
X0049023Y0037230D03*
X0049023Y0037265D03*
X0052977Y0038700D03*
X0052977Y0038735D03*
X0056267Y0038245D03*
X0056267Y0038210D03*
D370*
X0056145Y0037510D03*
X0056145Y0037475D03*
X0056145Y0037440D03*
X0058910Y0034710D03*
X0058910Y0034675D03*
X0057580Y0030685D03*
X0054570Y0027745D03*
D371*
X0048130Y0027780D03*
X0057545Y0031280D03*
X0058315Y0033275D03*
X0058350Y0033310D03*
X0058350Y0033345D03*
X0052750Y0036250D03*
X0052750Y0036285D03*
X0052750Y0036320D03*
X0052750Y0036355D03*
X0052750Y0036390D03*
X0052750Y0036425D03*
X0050020Y0032960D03*
D372*
X0058262Y0033205D03*
X0048112Y0027815D03*
D373*
X0048025Y0027920D03*
X0047990Y0027955D03*
X0052995Y0032085D03*
X0050055Y0032995D03*
X0052715Y0035900D03*
X0052715Y0035935D03*
X0052715Y0035970D03*
X0052715Y0036005D03*
X0052715Y0036040D03*
X0058245Y0033170D03*
X0057545Y0031350D03*
X0057545Y0031315D03*
D374*
X0057545Y0031420D03*
X0052680Y0035480D03*
X0052680Y0035515D03*
X0052680Y0035550D03*
X0052680Y0035585D03*
X0052680Y0035620D03*
X0052680Y0035655D03*
X0047920Y0028060D03*
D375*
X0050982Y0031245D03*
X0051017Y0031280D03*
X0054867Y0028060D03*
X0057457Y0029600D03*
X0057457Y0029635D03*
X0057457Y0029670D03*
D376*
X0047850Y0028130D03*
D377*
X0047833Y0028165D03*
X0047798Y0028200D03*
X0057527Y0031525D03*
X0058087Y0032960D03*
X0052627Y0035060D03*
D378*
X0052645Y0035025D03*
X0052645Y0034990D03*
X0052645Y0034955D03*
X0052645Y0034920D03*
X0052645Y0034885D03*
X0055095Y0033170D03*
X0052995Y0032050D03*
X0050160Y0033065D03*
X0057510Y0031560D03*
X0047780Y0028235D03*
D379*
X0050650Y0028270D03*
X0050650Y0028305D03*
X0050475Y0030405D03*
X0050475Y0030440D03*
X0050650Y0030790D03*
D380*
X0047657Y0028410D03*
X0057492Y0031665D03*
X0052627Y0034535D03*
X0052627Y0034570D03*
X0052627Y0034605D03*
X0052627Y0034640D03*
D381*
X0052627Y0034360D03*
X0055007Y0033205D03*
X0057492Y0031700D03*
X0047622Y0028445D03*
D382*
X0047605Y0028480D03*
X0047570Y0028515D03*
X0052995Y0032015D03*
D383*
X0052610Y0034080D03*
X0052610Y0034115D03*
X0052610Y0034150D03*
X0050265Y0033135D03*
X0047535Y0028585D03*
D384*
X0047517Y0028620D03*
X0047483Y0028655D03*
X0057458Y0031840D03*
D385*
X0047465Y0028690D03*
D386*
X0047448Y0028725D03*
X0052977Y0031980D03*
D387*
X0054937Y0030965D03*
X0054937Y0030930D03*
X0054937Y0030895D03*
X0057212Y0028760D03*
X0057212Y0028725D03*
X0049337Y0032015D03*
X0056337Y0038735D03*
X0056337Y0038770D03*
D388*
X0050352Y0033170D03*
X0057422Y0031945D03*
X0047377Y0028830D03*
D389*
X0047360Y0028865D03*
D390*
X0047342Y0028900D03*
X0052977Y0031945D03*
X0054832Y0033240D03*
X0057422Y0031980D03*
D391*
X0047307Y0028970D03*
X0047273Y0029005D03*
D392*
X0047255Y0029040D03*
X0050440Y0033205D03*
X0057405Y0032050D03*
D393*
X0057370Y0032120D03*
X0052960Y0031910D03*
X0047220Y0029110D03*
D394*
X0047202Y0029145D03*
D395*
X0047115Y0029320D03*
X0052960Y0031875D03*
D396*
X0057352Y0032225D03*
X0047097Y0029355D03*
D397*
X0047080Y0029390D03*
X0047080Y0029425D03*
X0050580Y0033240D03*
D398*
X0052960Y0031840D03*
X0047045Y0029530D03*
X0047045Y0029495D03*
D399*
X0047027Y0029565D03*
X0057317Y0032330D03*
D400*
X0057300Y0032365D03*
X0047010Y0029600D03*
D401*
X0046992Y0029635D03*
X0046992Y0029670D03*
X0052942Y0031805D03*
D402*
X0046957Y0029810D03*
X0046957Y0029775D03*
D403*
X0046940Y0029845D03*
X0046940Y0029880D03*
X0057265Y0032435D03*
D404*
X0054167Y0029880D03*
D405*
X0046940Y0029915D03*
D406*
X0046905Y0030055D03*
X0046905Y0030090D03*
X0057230Y0032505D03*
D407*
X0057212Y0032540D03*
X0046887Y0030160D03*
X0046887Y0030125D03*
D408*
X0046905Y0030195D03*
X0057195Y0032575D03*
D409*
X0046887Y0030300D03*
X0046887Y0030265D03*
X0046887Y0030230D03*
D410*
X0045698Y0031140D03*
X0049687Y0032575D03*
X0057527Y0030300D03*
X0058998Y0034990D03*
X0052977Y0038525D03*
X0052977Y0038560D03*
D411*
X0046870Y0030335D03*
D412*
X0046887Y0030370D03*
X0046887Y0030405D03*
X0046887Y0030440D03*
D413*
X0049740Y0032645D03*
X0057545Y0030475D03*
X0058980Y0034885D03*
X0058980Y0034920D03*
X0056215Y0037860D03*
X0056215Y0037895D03*
X0052960Y0038315D03*
X0052960Y0038350D03*
X0052960Y0038385D03*
X0049145Y0036565D03*
X0049145Y0036530D03*
X0049145Y0036495D03*
D414*
X0046887Y0030545D03*
X0046887Y0030510D03*
D415*
X0048655Y0030650D03*
X0049180Y0031665D03*
X0049180Y0031700D03*
X0052995Y0039330D03*
X0056355Y0038945D03*
D416*
X0056355Y0038980D03*
X0052995Y0039365D03*
X0048865Y0038210D03*
X0049145Y0031595D03*
X0049145Y0031560D03*
X0049110Y0031525D03*
X0048690Y0030685D03*
D417*
X0048707Y0030720D03*
X0048742Y0030755D03*
X0049092Y0031490D03*
X0045627Y0031525D03*
X0048847Y0038245D03*
D418*
X0049320Y0035550D03*
X0049320Y0035515D03*
X0049320Y0035480D03*
X0049355Y0035445D03*
X0049355Y0035410D03*
X0049355Y0035375D03*
X0049355Y0035340D03*
X0049390Y0035235D03*
X0049390Y0035200D03*
X0049810Y0032750D03*
X0045785Y0030930D03*
X0057580Y0030790D03*
X0057580Y0030755D03*
X0058875Y0034570D03*
X0058875Y0034605D03*
X0056110Y0037230D03*
X0056110Y0037265D03*
X0056110Y0037300D03*
X0052925Y0037930D03*
X0052925Y0037965D03*
X0052925Y0038000D03*
D419*
X0052995Y0039400D03*
X0056355Y0039015D03*
X0049075Y0031455D03*
X0049075Y0031420D03*
X0049040Y0031350D03*
X0048760Y0030790D03*
D420*
X0048865Y0030965D03*
X0048865Y0031000D03*
X0048900Y0031035D03*
X0048900Y0031070D03*
X0048935Y0031105D03*
X0048935Y0031140D03*
X0048970Y0031175D03*
X0048970Y0031210D03*
X0049005Y0031280D03*
X0052995Y0039435D03*
D421*
X0052960Y0038245D03*
X0049215Y0036110D03*
X0045750Y0031035D03*
D422*
X0055252Y0033100D03*
X0057562Y0031245D03*
X0058402Y0033415D03*
X0058402Y0033450D03*
X0058437Y0033485D03*
D423*
X0048987Y0037440D03*
X0048987Y0037475D03*
X0045662Y0031280D03*
D424*
X0049057Y0031385D03*
X0059207Y0035550D03*
D425*
X0056390Y0039085D03*
X0052995Y0039470D03*
X0045645Y0031560D03*
D426*
X0045627Y0031595D03*
D427*
X0049162Y0031630D03*
D428*
X0052942Y0031770D03*
X0057247Y0032470D03*
D429*
X0049250Y0031805D03*
D430*
X0057475Y0031805D03*
D431*
X0057405Y0032015D03*
D432*
X0057335Y0032260D03*
D433*
X0057177Y0032610D03*
D434*
X0057142Y0032680D03*
D435*
X0049775Y0032715D03*
X0049250Y0035865D03*
X0049250Y0035900D03*
X0049250Y0035935D03*
X0049250Y0035970D03*
X0052925Y0038070D03*
X0052925Y0038105D03*
D436*
X0057125Y0032715D03*
D437*
X0057090Y0032750D03*
D438*
X0057037Y0032820D03*
D439*
X0057002Y0032855D03*
D440*
X0052610Y0033275D03*
X0052610Y0033310D03*
D441*
X0052592Y0033345D03*
X0052592Y0033380D03*
X0052592Y0033415D03*
X0052592Y0033450D03*
D442*
X0052610Y0033485D03*
D443*
X0052592Y0033520D03*
X0052592Y0033555D03*
X0052592Y0033590D03*
X0052592Y0033625D03*
D444*
X0052610Y0033660D03*
D445*
X0052592Y0033695D03*
X0052592Y0033730D03*
X0052592Y0033765D03*
X0052592Y0033800D03*
D446*
X0052610Y0033835D03*
D447*
X0052592Y0033870D03*
D448*
X0053835Y0033975D03*
X0053835Y0034010D03*
D449*
X0056180Y0037650D03*
X0056180Y0037685D03*
X0056180Y0037720D03*
X0058945Y0034815D03*
X0058945Y0034780D03*
X0049180Y0036250D03*
X0049180Y0036285D03*
X0049180Y0036320D03*
D450*
X0049127Y0036600D03*
X0049127Y0036635D03*
X0049127Y0036670D03*
X0049127Y0036705D03*
X0052977Y0038420D03*
X0058997Y0034955D03*
D451*
X0059050Y0035130D03*
X0056250Y0038175D03*
D452*
X0059190Y0035515D03*
X0048865Y0038175D03*
D453*
X0053012Y0039505D03*
X0059242Y0035585D03*
D454*
X0056232Y0038000D03*
X0056232Y0038035D03*
X0049092Y0036880D03*
X0049092Y0036845D03*
D455*
X0048848Y0038315D03*
D456*
X0048848Y0038350D03*
D457*
X0048830Y0038385D03*
D458*
X0048830Y0038455D03*
X0053030Y0039610D03*
D459*
X0056390Y0039120D03*
D460*
X0056372Y0039155D03*
D461*
X0056407Y0039225D03*
D462*
X0053012Y0039540D03*
D463*
X0053030Y0039575D03*
M02*
