%
M48
M72
T01C0.03937
T02C0.11811
%
T01
X122200Y59956
X132200Y59956
X142200Y59956
X152200Y59956
X147200Y104444
X157200Y104444
X167200Y104444
X177200Y104444
X197200Y104444
X207200Y104444
X217200Y104444
X227200Y104444
X127200Y104444
X117200Y104444
X107200Y104444
X97200Y104444
X77200Y104444
X67200Y104444
X57200Y104444
X47200Y104444
T02
X22200Y22200
X22200Y142200
X252200Y142200
X252200Y22200
M30
