G75*
%MOIN*%
%OFA0B0*%
%FSLAX25Y25*%
%IPPOS*%
%LPD*%
%AMOC8*
5,1,8,0,0,1.08239X$1,22.5*
%
%ADD10R,0.03150X0.03543*%
%ADD11C,0.02830*%
%ADD12R,0.03150X0.03150*%
%ADD13R,0.03937X0.04331*%
%ADD14R,0.04331X0.03937*%
%ADD15R,0.05118X0.03150*%
%ADD16R,0.03150X0.05118*%
%ADD17C,0.05543*%
%ADD18C,0.15811*%
%ADD19R,0.02165X0.04724*%
%ADD20C,0.01000*%
%ADD21C,0.04000*%
D10*
X0086423Y0072863D03*
X0090163Y0081131D03*
X0093903Y0072863D03*
D11*
X0107016Y0062550D02*
X0107016Y0061050D01*
X0106310Y0061050D01*
X0106310Y0062550D01*
X0107016Y0062550D01*
X0114016Y0062550D02*
X0114016Y0061050D01*
X0113310Y0061050D01*
X0113310Y0062550D01*
X0114016Y0062550D01*
D12*
X0135163Y0088847D03*
X0135163Y0094753D03*
X0045163Y0094753D03*
X0045163Y0088847D03*
D13*
X0066816Y0076800D03*
X0073509Y0076800D03*
X0086816Y0061800D03*
X0093509Y0061800D03*
D14*
X0106816Y0076800D03*
X0113509Y0076800D03*
X0126816Y0076800D03*
X0133509Y0076800D03*
X0133509Y0061800D03*
X0126816Y0061800D03*
X0073509Y0061800D03*
X0066816Y0061800D03*
D15*
X0063785Y0103217D03*
X0063785Y0107942D03*
X0063785Y0112666D03*
X0063785Y0117391D03*
X0063785Y0122115D03*
X0063785Y0126839D03*
X0063785Y0131564D03*
X0063785Y0136288D03*
X0063785Y0141013D03*
X0063785Y0145737D03*
X0063785Y0150461D03*
X0063785Y0155186D03*
X0116541Y0155186D03*
X0116541Y0150461D03*
X0116541Y0145737D03*
X0116541Y0141013D03*
X0116541Y0136288D03*
X0116541Y0131564D03*
X0116541Y0126839D03*
X0116541Y0122115D03*
X0116541Y0117391D03*
X0116541Y0112666D03*
X0116541Y0107942D03*
X0116541Y0103217D03*
D16*
X0106304Y0091800D03*
X0102367Y0091800D03*
X0096856Y0091800D03*
X0092131Y0091800D03*
X0087407Y0091800D03*
X0082682Y0091800D03*
X0077958Y0091800D03*
X0074021Y0091800D03*
D17*
X0075163Y0034572D02*
X0075163Y0029028D01*
X0085163Y0029028D02*
X0085163Y0034572D01*
X0095163Y0034572D02*
X0095163Y0029028D01*
X0105163Y0029028D02*
X0105163Y0034572D01*
D18*
X0132663Y0014300D03*
X0132663Y0111800D03*
X0047663Y0111800D03*
X0047663Y0014300D03*
D19*
X0046423Y0056682D03*
X0050163Y0056682D03*
X0053903Y0056682D03*
X0053903Y0066918D03*
X0046423Y0066918D03*
D20*
X0043163Y0053800D02*
X0065163Y0031800D01*
X0075163Y0031800D01*
X0085163Y0021800D01*
X0107163Y0021800D01*
X0113163Y0027800D01*
X0113163Y0061800D01*
X0113663Y0061800D01*
X0115163Y0065800D02*
X0106163Y0065800D01*
X0106163Y0067800D01*
X0106163Y0065800D02*
X0106163Y0061800D01*
X0106663Y0061800D01*
X0102163Y0068800D02*
X0102163Y0043800D01*
X0110163Y0035800D01*
X0110163Y0027800D01*
X0106163Y0023800D01*
X0093163Y0023800D01*
X0085163Y0031800D01*
X0061163Y0055800D01*
X0054163Y0055800D01*
X0053903Y0056682D01*
X0053163Y0055800D01*
X0053163Y0053800D01*
X0052163Y0052800D01*
X0048163Y0052800D01*
X0047163Y0053800D01*
X0047163Y0055800D01*
X0046423Y0056682D01*
X0043163Y0053800D02*
X0043163Y0059800D01*
X0044163Y0060800D01*
X0050163Y0060800D01*
X0050163Y0068800D01*
X0041163Y0077800D01*
X0041163Y0090800D01*
X0044163Y0093800D01*
X0045163Y0093800D01*
X0045163Y0094753D01*
X0045163Y0094800D01*
X0049163Y0090800D01*
X0049163Y0084800D01*
X0063163Y0070800D01*
X0074163Y0070800D01*
X0077163Y0073800D01*
X0077163Y0079800D01*
X0076163Y0080800D01*
X0076163Y0086800D01*
X0077163Y0087800D01*
X0077163Y0091800D01*
X0077958Y0091800D01*
X0078163Y0091800D01*
X0078163Y0093800D01*
X0081163Y0096800D01*
X0103163Y0096800D01*
X0103163Y0091800D01*
X0102367Y0091800D01*
X0103163Y0096800D02*
X0103163Y0098800D01*
X0106163Y0101800D01*
X0112163Y0101800D01*
X0112163Y0139800D01*
X0114163Y0141800D01*
X0116541Y0141013D01*
X0116163Y0141800D01*
X0114163Y0141800D01*
X0112163Y0143800D01*
X0112163Y0152800D01*
X0114163Y0154800D01*
X0116163Y0154800D01*
X0116541Y0155186D01*
X0080163Y0126800D02*
X0080163Y0109800D01*
X0074163Y0098800D02*
X0067163Y0091800D01*
X0067163Y0076800D01*
X0066816Y0076800D01*
X0069163Y0072800D02*
X0064163Y0072800D01*
X0059163Y0077800D01*
X0059163Y0128800D01*
X0061163Y0130800D01*
X0063163Y0130800D01*
X0063785Y0131564D01*
X0064163Y0140800D02*
X0066163Y0140800D01*
X0080163Y0126800D01*
X0066163Y0107800D02*
X0064163Y0107800D01*
X0063785Y0107942D01*
X0066163Y0107800D02*
X0068163Y0105800D01*
X0099163Y0105800D01*
X0104163Y0105800D02*
X0097163Y0098800D01*
X0074163Y0098800D01*
X0065163Y0095800D02*
X0064163Y0096800D01*
X0064163Y0102800D01*
X0063785Y0103217D01*
X0080163Y0085800D02*
X0080163Y0072800D01*
X0084163Y0068800D01*
X0086163Y0068800D01*
X0093163Y0061800D01*
X0093509Y0061800D01*
X0096163Y0057800D02*
X0098163Y0059800D01*
X0098163Y0080800D01*
X0090163Y0080800D01*
X0090163Y0081131D01*
X0088163Y0084800D02*
X0112163Y0084800D01*
X0133163Y0063800D01*
X0133163Y0061800D01*
X0133509Y0061800D01*
X0131163Y0057800D02*
X0136163Y0057800D01*
X0139163Y0060800D01*
X0139163Y0096800D01*
X0137163Y0098800D01*
X0132163Y0098800D01*
X0123163Y0107800D01*
X0117163Y0107800D01*
X0116541Y0107942D01*
X0116541Y0103217D02*
X0115163Y0101800D01*
X0112163Y0101800D01*
X0114163Y0100800D02*
X0115163Y0101800D01*
X0116163Y0102800D01*
X0116541Y0103217D01*
X0117163Y0102800D01*
X0125163Y0094800D01*
X0135163Y0094800D01*
X0135163Y0094753D01*
X0135163Y0089800D02*
X0135163Y0088847D01*
X0135163Y0089800D02*
X0124163Y0089800D01*
X0118163Y0095800D01*
X0118163Y0091800D02*
X0117163Y0091800D01*
X0114163Y0094800D01*
X0114163Y0100800D01*
X0108163Y0105800D02*
X0104163Y0105800D01*
X0107163Y0097800D02*
X0126163Y0078800D01*
X0126163Y0076800D01*
X0126816Y0076800D01*
X0133163Y0076800D02*
X0133509Y0076800D01*
X0133163Y0076800D02*
X0118163Y0091800D01*
X0109163Y0080800D02*
X0113163Y0076800D01*
X0113509Y0076800D01*
X0109163Y0080800D02*
X0098163Y0080800D01*
X0094163Y0072800D02*
X0093903Y0072863D01*
X0094163Y0072800D02*
X0094163Y0067800D01*
X0102163Y0068800D02*
X0106163Y0072800D01*
X0106163Y0076800D01*
X0106816Y0076800D01*
X0115163Y0065800D02*
X0119163Y0061800D01*
X0126816Y0061800D01*
X0127163Y0061800D01*
X0131163Y0057800D01*
X0105163Y0031800D02*
X0097163Y0039800D01*
X0089163Y0039800D01*
X0067163Y0061800D01*
X0066816Y0061800D01*
X0065163Y0065800D02*
X0082163Y0065800D01*
X0086163Y0061800D01*
X0086816Y0061800D01*
X0079163Y0061800D02*
X0073509Y0061800D01*
X0065163Y0065800D02*
X0045163Y0085800D01*
X0045163Y0088847D01*
X0053903Y0066918D02*
X0054163Y0066800D01*
X0072163Y0048800D01*
X0075163Y0048800D01*
X0069163Y0072800D02*
X0073163Y0076800D01*
X0073509Y0076800D01*
X0084163Y0081800D02*
X0086163Y0081800D01*
X0086163Y0073800D01*
X0086423Y0072863D01*
X0086163Y0081800D02*
X0086163Y0082800D01*
X0088163Y0084800D01*
X0096163Y0057800D02*
X0096163Y0043800D01*
X0050163Y0056682D02*
X0050163Y0060800D01*
X0064163Y0140800D02*
X0063785Y0141013D01*
D21*
X0080163Y0109800D03*
X0065163Y0095800D03*
X0080163Y0085800D03*
X0084163Y0081800D03*
X0094163Y0067800D03*
X0106163Y0067800D03*
X0096163Y0043800D03*
X0079163Y0061800D03*
X0075163Y0048800D03*
X0107163Y0097800D03*
X0108163Y0105800D03*
X0099163Y0105800D03*
X0118163Y0095800D03*
M02*
