G75*
%MOIN*%
%OFA0B0*%
%FSLAX25Y25*%
%IPPOS*%
%LPD*%
%AMOC8*
5,1,8,0,0,1.08239X$1,22.5*
%
%ADD10C,0.00400*%
%ADD11C,0.00500*%
%ADD12C,0.00000*%
%ADD13C,0.00300*%
%ADD14C,0.00200*%
%ADD15R,0.00770X0.00035*%
%ADD16R,0.01400X0.00035*%
%ADD17R,0.01855X0.00035*%
%ADD18R,0.02170X0.00035*%
%ADD19R,0.02485X0.00035*%
%ADD20R,0.02765X0.00035*%
%ADD21R,0.02975X0.00035*%
%ADD22R,0.03220X0.00035*%
%ADD23R,0.03395X0.00035*%
%ADD24R,0.03605X0.00035*%
%ADD25R,0.03780X0.00035*%
%ADD26R,0.03955X0.00035*%
%ADD27R,0.04130X0.00035*%
%ADD28R,0.04270X0.00035*%
%ADD29R,0.04375X0.00035*%
%ADD30R,0.04550X0.00035*%
%ADD31R,0.04690X0.00035*%
%ADD32R,0.04865X0.00035*%
%ADD33R,0.04970X0.00035*%
%ADD34R,0.05110X0.00035*%
%ADD35R,0.05215X0.00035*%
%ADD36R,0.05355X0.00035*%
%ADD37R,0.05460X0.00035*%
%ADD38R,0.05600X0.00035*%
%ADD39R,0.05705X0.00035*%
%ADD40R,0.05810X0.00035*%
%ADD41R,0.05915X0.00035*%
%ADD42R,0.06055X0.00035*%
%ADD43R,0.06160X0.00035*%
%ADD44R,0.06265X0.00035*%
%ADD45R,0.06335X0.00035*%
%ADD46R,0.06440X0.00035*%
%ADD47R,0.06545X0.00035*%
%ADD48R,0.03080X0.00035*%
%ADD49R,0.02660X0.00035*%
%ADD50R,0.02870X0.00035*%
%ADD51R,0.02415X0.00035*%
%ADD52R,0.02730X0.00035*%
%ADD53R,0.02310X0.00035*%
%ADD54R,0.02695X0.00035*%
%ADD55R,0.02170X0.00035*%
%ADD56R,0.02590X0.00035*%
%ADD57R,0.02100X0.00035*%
%ADD58R,0.02520X0.00035*%
%ADD59R,0.02030X0.00035*%
%ADD60R,0.02450X0.00035*%
%ADD61R,0.01960X0.00035*%
%ADD62R,0.01890X0.00035*%
%ADD63R,0.02380X0.00035*%
%ADD64R,0.01785X0.00035*%
%ADD65R,0.01750X0.00035*%
%ADD66R,0.01715X0.00035*%
%ADD67R,0.02275X0.00035*%
%ADD68R,0.01645X0.00035*%
%ADD69R,0.02240X0.00035*%
%ADD70R,0.01610X0.00035*%
%ADD71R,0.02240X0.00035*%
%ADD72R,0.01575X0.00035*%
%ADD73R,0.01540X0.00035*%
%ADD74R,0.02205X0.00035*%
%ADD75R,0.01505X0.00035*%
%ADD76R,0.01470X0.00035*%
%ADD77R,0.01435X0.00035*%
%ADD78R,0.01365X0.00035*%
%ADD79R,0.01330X0.00035*%
%ADD80R,0.01295X0.00035*%
%ADD81R,0.01295X0.00035*%
%ADD82R,0.01260X0.00035*%
%ADD83R,0.01190X0.00035*%
%ADD84R,0.01225X0.00035*%
%ADD85R,0.00385X0.00035*%
%ADD86R,0.00980X0.00035*%
%ADD87R,0.01155X0.00035*%
%ADD88R,0.01645X0.00035*%
%ADD89R,0.01015X0.00035*%
%ADD90R,0.01050X0.00035*%
%ADD91R,0.02345X0.00035*%
%ADD92R,0.01085X0.00035*%
%ADD93R,0.02905X0.00035*%
%ADD94R,0.03045X0.00035*%
%ADD95R,0.01120X0.00035*%
%ADD96R,0.02345X0.00035*%
%ADD97R,0.03255X0.00035*%
%ADD98R,0.01120X0.00035*%
%ADD99R,0.03500X0.00035*%
%ADD100R,0.02415X0.00035*%
%ADD101R,0.03640X0.00035*%
%ADD102R,0.04900X0.00035*%
%ADD103R,0.04935X0.00035*%
%ADD104R,0.05005X0.00035*%
%ADD105R,0.01680X0.00035*%
%ADD106R,0.02065X0.00035*%
%ADD107R,0.02555X0.00035*%
%ADD108R,0.02590X0.00035*%
%ADD109R,0.02625X0.00035*%
%ADD110R,0.02695X0.00035*%
%ADD111R,0.01470X0.00035*%
%ADD112R,0.02765X0.00035*%
%ADD113R,0.02800X0.00035*%
%ADD114R,0.02835X0.00035*%
%ADD115R,0.01365X0.00035*%
%ADD116R,0.02940X0.00035*%
%ADD117R,0.03010X0.00035*%
%ADD118R,0.03045X0.00035*%
%ADD119R,0.03115X0.00035*%
%ADD120R,0.03150X0.00035*%
%ADD121R,0.03185X0.00035*%
%ADD122R,0.03220X0.00035*%
%ADD123R,0.01190X0.00035*%
%ADD124R,0.03290X0.00035*%
%ADD125R,0.03325X0.00035*%
%ADD126R,0.03360X0.00035*%
%ADD127R,0.03430X0.00035*%
%ADD128R,0.03465X0.00035*%
%ADD129R,0.03535X0.00035*%
%ADD130R,0.03570X0.00035*%
%ADD131R,0.03675X0.00035*%
%ADD132R,0.03710X0.00035*%
%ADD133R,0.03745X0.00035*%
%ADD134R,0.03815X0.00035*%
%ADD135R,0.03850X0.00035*%
%ADD136R,0.03885X0.00035*%
%ADD137R,0.03920X0.00035*%
%ADD138R,0.03990X0.00035*%
%ADD139R,0.04025X0.00035*%
%ADD140R,0.02870X0.00035*%
%ADD141R,0.04095X0.00035*%
%ADD142R,0.04165X0.00035*%
%ADD143R,0.04200X0.00035*%
%ADD144R,0.04235X0.00035*%
%ADD145R,0.04270X0.00035*%
%ADD146R,0.01820X0.00035*%
%ADD147R,0.04305X0.00035*%
%ADD148R,0.04340X0.00035*%
%ADD149R,0.01925X0.00035*%
%ADD150R,0.04410X0.00035*%
%ADD151R,0.00945X0.00035*%
%ADD152R,0.00875X0.00035*%
%ADD153R,0.00840X0.00035*%
%ADD154R,0.02135X0.00035*%
%ADD155R,0.00805X0.00035*%
%ADD156R,0.00735X0.00035*%
%ADD157R,0.01995X0.00035*%
%ADD158R,0.02520X0.00035*%
%ADD159R,0.01540X0.00035*%
%ADD160R,0.00770X0.00035*%
%ADD161R,0.00665X0.00035*%
%ADD162R,0.00420X0.00035*%
%ADD163R,0.00910X0.00035*%
%ADD164R,0.04060X0.00035*%
%ADD165R,0.01015X0.00035*%
%ADD166R,0.03115X0.00035*%
%ADD167R,0.03395X0.00035*%
%ADD168R,0.03745X0.00035*%
%ADD169R,0.04340X0.00035*%
%ADD170R,0.04480X0.00035*%
%ADD171R,0.02065X0.00035*%
%ADD172R,0.04515X0.00035*%
%ADD173R,0.04585X0.00035*%
%ADD174R,0.04760X0.00035*%
%ADD175R,0.04830X0.00035*%
%ADD176R,0.07805X0.00035*%
%ADD177R,0.07840X0.00035*%
%ADD178R,0.07875X0.00035*%
%ADD179R,0.07910X0.00035*%
%ADD180R,0.07945X0.00035*%
%ADD181R,0.07980X0.00035*%
%ADD182R,0.08015X0.00035*%
%ADD183R,0.08050X0.00035*%
%ADD184R,0.05635X0.00035*%
%ADD185R,0.01995X0.00035*%
%ADD186R,0.01890X0.00035*%
%ADD187R,0.01715X0.00035*%
%ADD188R,0.00945X0.00035*%
%ADD189R,0.00560X0.00035*%
%ADD190R,0.01820X0.00035*%
%ADD191R,0.00700X0.00035*%
%ADD192R,0.00630X0.00035*%
%ADD193R,0.00525X0.00035*%
%ADD194R,0.00175X0.00035*%
%ADD195R,0.00595X0.00035*%
%ADD196R,0.00490X0.00035*%
%ADD197R,0.00210X0.00035*%
%ADD198R,0.00490X0.00035*%
%ADD199R,0.00315X0.00035*%
%ADD200R,0.00520X0.00040*%
%ADD201R,0.00520X0.00040*%
%ADD202R,0.00760X0.00040*%
%ADD203R,0.00640X0.00040*%
%ADD204R,0.00440X0.00040*%
%ADD205R,0.00480X0.00040*%
%ADD206R,0.00520X0.00040*%
%ADD207R,0.00520X0.00040*%
%ADD208R,0.01400X0.00040*%
%ADD209R,0.00800X0.00040*%
%ADD210R,0.00480X0.00040*%
%ADD211R,0.00960X0.00040*%
%ADD212R,0.01440X0.00040*%
%ADD213R,0.01080X0.00040*%
%ADD214R,0.01520X0.00040*%
%ADD215R,0.01440X0.00040*%
%ADD216R,0.00560X0.00040*%
%ADD217R,0.01480X0.00040*%
%ADD218R,0.01200X0.00040*%
%ADD219R,0.01560X0.00040*%
%ADD220R,0.01320X0.00040*%
%ADD221R,0.01560X0.00040*%
%ADD222R,0.01520X0.00040*%
%ADD223R,0.00600X0.00040*%
%ADD224R,0.00560X0.00040*%
%ADD225R,0.01400X0.00040*%
%ADD226R,0.01600X0.00040*%
%ADD227R,0.00600X0.00040*%
%ADD228R,0.00640X0.00040*%
%ADD229R,0.01640X0.00040*%
%ADD230R,0.00680X0.00040*%
%ADD231R,0.01680X0.00040*%
%ADD232R,0.01680X0.00040*%
%ADD233R,0.01640X0.00040*%
%ADD234R,0.00720X0.00040*%
%ADD235R,0.01480X0.00040*%
%ADD236R,0.00760X0.00040*%
%ADD237R,0.00720X0.00040*%
%ADD238R,0.00640X0.00040*%
%ADD239R,0.00360X0.00040*%
%ADD240R,0.00240X0.00040*%
%ADD241R,0.00160X0.00040*%
%ADD242R,0.00840X0.00040*%
%ADD243R,0.00080X0.00040*%
%ADD244R,0.00880X0.00040*%
%ADD245R,0.00920X0.00040*%
%ADD246R,0.00960X0.00040*%
%ADD247R,0.01640X0.00040*%
%ADD248R,0.01760X0.00040*%
%ADD249R,0.00440X0.00040*%
%ADD250R,0.01000X0.00040*%
%ADD251R,0.01760X0.00040*%
%ADD252R,0.00440X0.00040*%
%ADD253R,0.01320X0.00040*%
%ADD254R,0.01200X0.00040*%
%ADD255R,0.00920X0.00040*%
%ADD256R,0.00840X0.00040*%
%ADD257R,0.00800X0.00040*%
%ADD258R,0.00080X0.00040*%
%ADD259R,0.00120X0.00040*%
%ADD260R,0.00240X0.00040*%
%ADD261R,0.00720X0.00040*%
%ADD262R,0.00200X0.00040*%
%ADD263R,0.00400X0.00040*%
%ADD264R,0.01240X0.00040*%
%ADD265R,0.01640X0.00040*%
%ADD266R,0.01440X0.00040*%
%ADD267R,0.01280X0.00040*%
%ADD268R,0.01520X0.00040*%
%ADD269R,0.01280X0.00040*%
%ADD270R,0.01520X0.00040*%
%ADD271R,0.01360X0.00040*%
%ADD272R,0.01440X0.00040*%
%ADD273R,0.01240X0.00040*%
%ADD274R,0.01120X0.00040*%
%ADD275R,0.01240X0.00040*%
%ADD276R,0.01040X0.00040*%
%ADD277R,0.00840X0.00040*%
%ADD278R,0.00440X0.00040*%
%ADD279R,0.00400X0.00040*%
%ADD280R,0.00320X0.00040*%
%ADD281R,0.00920X0.00040*%
%ADD282R,0.01040X0.00040*%
%ADD283R,0.01000X0.00040*%
%ADD284R,0.01080X0.00040*%
%ADD285R,0.01160X0.00040*%
%ADD286R,0.01040X0.00040*%
%ADD287R,0.01160X0.00040*%
%ADD288R,0.01600X0.00040*%
%ADD289R,0.01720X0.00040*%
%ADD290R,0.01720X0.00040*%
%ADD291R,0.00640X0.00040*%
%ADD292R,0.00680X0.00040*%
%ADD293R,0.00360X0.00040*%
%ADD294R,0.00280X0.00040*%
%ADD295R,0.00120X0.00040*%
%ADD296R,0.00040X0.00040*%
%ADD297R,0.00040X0.00040*%
%ADD298R,0.01320X0.00040*%
%ADD299R,0.00280X0.00040*%
%ADD300R,0.00320X0.00040*%
%ADD301R,0.01320X0.00040*%
%ADD302R,0.01120X0.00040*%
%ADD303R,0.01120X0.00040*%
%ADD304R,0.01800X0.00040*%
%ADD305R,0.01920X0.00040*%
%ADD306R,0.01920X0.00040*%
%ADD307R,0.02000X0.00040*%
%ADD308R,0.02120X0.00040*%
%ADD309R,0.02200X0.00040*%
%ADD310R,0.02320X0.00040*%
%ADD311R,0.02400X0.00040*%
%ADD312R,0.02520X0.00040*%
%ADD313R,0.02600X0.00040*%
%ADD314R,0.00880X0.00040*%
%ADD315R,0.03680X0.00040*%
%ADD316R,0.03720X0.00040*%
%ADD317R,0.03800X0.00040*%
%ADD318R,0.03840X0.00040*%
%ADD319R,0.03840X0.00040*%
%ADD320R,0.03920X0.00040*%
%ADD321R,0.03960X0.00040*%
%ADD322R,0.04000X0.00040*%
%ADD323R,0.04080X0.00040*%
%ADD324R,0.04120X0.00040*%
%ADD325R,0.04160X0.00040*%
%ADD326R,0.04200X0.00040*%
%ADD327R,0.04200X0.00040*%
%ADD328R,0.04160X0.00040*%
%ADD329R,0.04120X0.00040*%
%ADD330R,0.04080X0.00040*%
%ADD331R,0.04040X0.00040*%
%ADD332R,0.04040X0.00040*%
%ADD333R,0.04040X0.00040*%
%ADD334R,0.04040X0.00040*%
%ADD335R,0.03960X0.00040*%
%ADD336R,0.03920X0.00040*%
%ADD337R,0.03920X0.00040*%
%ADD338R,0.03880X0.00040*%
%ADD339R,0.03920X0.00040*%
%ADD340R,0.03880X0.00040*%
%ADD341R,0.03800X0.00040*%
%ADD342R,0.04240X0.00040*%
%ADD343R,0.04240X0.00040*%
%ADD344R,0.04280X0.00040*%
%ADD345R,0.04360X0.00040*%
%ADD346R,0.04400X0.00040*%
%ADD347R,0.04440X0.00040*%
%ADD348R,0.04520X0.00040*%
%ADD349R,0.04520X0.00040*%
%ADD350R,0.04520X0.00040*%
%ADD351R,0.04520X0.00040*%
%ADD352R,0.04480X0.00040*%
%ADD353R,0.04440X0.00040*%
%ADD354R,0.04400X0.00040*%
%ADD355R,0.04360X0.00040*%
%ADD356R,0.04320X0.00040*%
%ADD357R,0.04240X0.00040*%
%ADD358R,0.04320X0.00040*%
%ADD359R,0.04320X0.00040*%
%ADD360R,0.04560X0.00040*%
%ADD361R,0.04720X0.00040*%
%ADD362R,0.04920X0.00040*%
%ADD363R,0.04920X0.00040*%
%ADD364R,0.05080X0.00040*%
%ADD365R,0.05240X0.00040*%
%ADD366R,0.05240X0.00040*%
%ADD367R,0.05480X0.00040*%
%ADD368R,0.05640X0.00040*%
%ADD369R,0.05640X0.00040*%
%ADD370R,0.05680X0.00040*%
%ADD371R,0.05640X0.00040*%
%ADD372R,0.05600X0.00040*%
%ADD373R,0.05600X0.00040*%
%ADD374R,0.05560X0.00040*%
%ADD375R,0.05520X0.00040*%
%ADD376R,0.05520X0.00040*%
%ADD377R,0.05480X0.00040*%
%ADD378R,0.05440X0.00040*%
%ADD379R,0.05440X0.00040*%
%ADD380R,0.05560X0.00040*%
%ADD381R,0.05680X0.00040*%
%ADD382R,0.05440X0.00040*%
%ADD383R,0.05280X0.00040*%
%ADD384R,0.04920X0.00040*%
%ADD385R,0.04600X0.00040*%
%ADD386R,0.04840X0.00040*%
%ADD387R,0.10440X0.00040*%
%ADD388R,0.10360X0.00040*%
%ADD389R,0.10360X0.00040*%
%ADD390R,0.10280X0.00040*%
%ADD391R,0.10200X0.00040*%
%ADD392R,0.10200X0.00040*%
%ADD393R,0.10120X0.00040*%
%ADD394R,0.10040X0.00040*%
%ADD395R,0.10040X0.00040*%
%ADD396R,0.09960X0.00040*%
%ADD397R,0.09880X0.00040*%
%ADD398R,0.09880X0.00040*%
%ADD399R,0.09800X0.00040*%
%ADD400R,0.09720X0.00040*%
%ADD401R,0.09720X0.00040*%
%ADD402R,0.10280X0.00040*%
%ADD403R,0.10520X0.00040*%
%ADD404R,0.10520X0.00040*%
%ADD405R,0.10600X0.00040*%
%ADD406R,0.10680X0.00040*%
%ADD407R,0.10760X0.00040*%
%ADD408R,0.10840X0.00040*%
%ADD409R,0.10920X0.00040*%
%ADD410R,0.11000X0.00040*%
%ADD411R,0.11080X0.00040*%
%ADD412R,0.11080X0.00040*%
%ADD413R,0.11160X0.00040*%
%ADD414R,0.11240X0.00040*%
%ADD415R,0.11320X0.00040*%
%ADD416R,0.11400X0.00040*%
%ADD417R,0.11400X0.00040*%
%ADD418R,0.11480X0.00040*%
%ADD419R,0.11560X0.00040*%
%ADD420R,0.11640X0.00040*%
%ADD421R,0.11640X0.00040*%
%ADD422R,0.11720X0.00040*%
%ADD423R,0.11800X0.00040*%
%ADD424R,0.11880X0.00040*%
%ADD425R,0.11880X0.00040*%
%ADD426R,0.11960X0.00040*%
%ADD427R,0.11720X0.00040*%
%ADD428R,0.11320X0.00040*%
%ADD429R,0.02760X0.00040*%
%ADD430R,0.05400X0.00040*%
%ADD431R,0.02640X0.00040*%
%ADD432R,0.05160X0.00040*%
%ADD433R,0.02560X0.00040*%
%ADD434R,0.05000X0.00040*%
%ADD435R,0.02440X0.00040*%
%ADD436R,0.04760X0.00040*%
%ADD437R,0.02440X0.00040*%
%ADD438R,0.02360X0.00040*%
%ADD439R,0.04600X0.00040*%
%ADD440R,0.02280X0.00040*%
%ADD441R,0.02240X0.00040*%
%ADD442R,0.02160X0.00040*%
%ADD443R,0.02080X0.00040*%
%ADD444R,0.01960X0.00040*%
%ADD445R,0.01880X0.00040*%
%ADD446R,0.03640X0.00040*%
%ADD447R,0.03400X0.00040*%
%ADD448R,0.03240X0.00040*%
%ADD449R,0.03000X0.00040*%
%ADD450R,0.02920X0.00040*%
%ADD451R,0.01360X0.00040*%
%ADD452R,0.02840X0.00040*%
%ADD453R,0.02840X0.00040*%
%ADD454R,0.02760X0.00040*%
%ADD455R,0.02680X0.00040*%
%ADD456R,0.02680X0.00040*%
%ADD457R,0.02600X0.00040*%
%ADD458R,0.02520X0.00040*%
%ADD459R,0.02520X0.00040*%
%ADD460R,0.02440X0.00040*%
%ADD461R,0.02360X0.00040*%
%ADD462R,0.02280X0.00040*%
%ADD463R,0.02200X0.00040*%
%ADD464R,0.02120X0.00040*%
D10*
X0009200Y0059200D02*
X0009200Y0063804D01*
X0011502Y0063804D01*
X0012269Y0063037D01*
X0012269Y0061502D01*
X0011502Y0060735D01*
X0009200Y0060735D01*
X0010735Y0060735D02*
X0012269Y0059200D01*
X0013804Y0059967D02*
X0013804Y0061502D01*
X0014571Y0062269D01*
X0016106Y0062269D01*
X0016873Y0061502D01*
X0016873Y0060735D01*
X0013804Y0060735D01*
X0013804Y0059967D02*
X0014571Y0059200D01*
X0016106Y0059200D01*
X0018408Y0062269D02*
X0019942Y0059200D01*
X0021477Y0062269D01*
X0023012Y0059967D02*
X0023779Y0059967D01*
X0023779Y0059200D01*
X0023012Y0059200D01*
X0023012Y0059967D01*
X0025314Y0059200D02*
X0025314Y0063804D01*
X0027616Y0063804D01*
X0028383Y0063037D01*
X0028383Y0062269D01*
X0027616Y0061502D01*
X0025314Y0061502D01*
X0025314Y0059200D02*
X0027616Y0059200D01*
X0028383Y0059967D01*
X0028383Y0060735D01*
X0027616Y0061502D01*
X0029918Y0061502D02*
X0029918Y0059967D01*
X0030685Y0059200D01*
X0032220Y0059200D01*
X0032987Y0060735D02*
X0029918Y0060735D01*
X0029918Y0061502D02*
X0030685Y0062269D01*
X0032220Y0062269D01*
X0032987Y0061502D01*
X0032987Y0060735D01*
X0034522Y0062269D02*
X0036056Y0062269D01*
X0035289Y0063037D02*
X0035289Y0059967D01*
X0036056Y0059200D01*
X0037591Y0059967D02*
X0038358Y0060735D01*
X0040660Y0060735D01*
X0040660Y0061502D02*
X0040660Y0059200D01*
X0038358Y0059200D01*
X0037591Y0059967D01*
X0038358Y0062269D02*
X0039893Y0062269D01*
X0040660Y0061502D01*
X0039893Y0066700D02*
X0039893Y0071304D01*
X0041427Y0071304D02*
X0041427Y0066700D01*
X0044497Y0066700D01*
X0046031Y0066700D02*
X0046031Y0071304D01*
X0048333Y0071304D01*
X0049101Y0070537D01*
X0049101Y0069002D01*
X0048333Y0068235D01*
X0046031Y0068235D01*
X0047566Y0068235D02*
X0049101Y0066700D01*
X0050635Y0066700D02*
X0053705Y0066700D01*
X0052170Y0069002D02*
X0050635Y0069002D01*
X0050635Y0071304D02*
X0050635Y0066700D01*
X0050635Y0071304D02*
X0053705Y0071304D01*
X0044497Y0071304D02*
X0041427Y0071304D01*
X0041427Y0069002D02*
X0042962Y0069002D01*
X0039893Y0069002D02*
X0036824Y0069002D01*
X0035289Y0069002D02*
X0035289Y0070537D01*
X0034522Y0071304D01*
X0032220Y0071304D01*
X0032220Y0066700D01*
X0032220Y0068235D02*
X0034522Y0068235D01*
X0035289Y0069002D01*
X0036824Y0066700D02*
X0036824Y0071304D01*
X0030685Y0070537D02*
X0029918Y0071304D01*
X0028383Y0071304D01*
X0027616Y0070537D01*
X0027616Y0069769D01*
X0028383Y0069002D01*
X0029918Y0069002D01*
X0030685Y0068235D01*
X0030685Y0067467D01*
X0029918Y0066700D01*
X0028383Y0066700D01*
X0027616Y0067467D01*
X0026081Y0067467D02*
X0026081Y0070537D01*
X0025314Y0071304D01*
X0023779Y0071304D01*
X0023012Y0070537D01*
X0023012Y0067467D01*
X0023779Y0066700D01*
X0025314Y0066700D01*
X0026081Y0067467D01*
X0021477Y0066700D02*
X0021477Y0071304D01*
X0019942Y0069769D01*
X0018408Y0071304D01*
X0018408Y0066700D01*
X0015339Y0066700D02*
X0015339Y0071304D01*
X0016873Y0071304D02*
X0013804Y0071304D01*
X0012269Y0069769D02*
X0012269Y0066700D01*
X0012269Y0069002D02*
X0009200Y0069002D01*
X0009200Y0069769D02*
X0009200Y0066700D01*
X0009200Y0069769D02*
X0010735Y0071304D01*
X0012269Y0069769D01*
X0096700Y0084200D02*
X0096700Y0088804D01*
X0099769Y0088804D01*
X0102071Y0087269D02*
X0103606Y0087269D01*
X0104373Y0086502D01*
X0104373Y0084200D01*
X0102071Y0084200D01*
X0101304Y0084967D01*
X0102071Y0085735D01*
X0104373Y0085735D01*
X0105908Y0086502D02*
X0108210Y0086502D01*
X0108977Y0085735D01*
X0108977Y0084967D01*
X0108210Y0084200D01*
X0105908Y0084200D01*
X0105908Y0088804D01*
X0108210Y0088804D01*
X0108977Y0088037D01*
X0108977Y0087269D01*
X0108210Y0086502D01*
X0110512Y0086502D02*
X0110512Y0084967D01*
X0111279Y0084200D01*
X0112814Y0084200D01*
X0113581Y0084967D01*
X0113581Y0086502D01*
X0112814Y0087269D01*
X0111279Y0087269D01*
X0110512Y0086502D01*
X0098235Y0086502D02*
X0096700Y0086502D01*
D11*
X0094118Y0085969D02*
X0094118Y0082031D01*
X0084276Y0082031D01*
X0083882Y0082031D02*
X0083882Y0085969D01*
X0094118Y0085969D01*
X0076618Y0085969D02*
X0076618Y0082031D01*
X0066776Y0082031D01*
X0066382Y0082031D02*
X0066382Y0085969D01*
X0076618Y0085969D01*
X0056618Y0085969D02*
X0056618Y0082031D01*
X0046776Y0082031D01*
X0046382Y0082031D02*
X0046382Y0085969D01*
X0056618Y0085969D01*
X0039118Y0085969D02*
X0039118Y0082031D01*
X0029276Y0082031D01*
X0028882Y0082031D02*
X0028882Y0085969D01*
X0039118Y0085969D01*
X0055594Y0126657D02*
X0055594Y0146343D01*
X0067406Y0146343D01*
X0067406Y0126657D01*
X0055594Y0126657D01*
X0060319Y0131776D02*
X0060321Y0131845D01*
X0060327Y0131913D01*
X0060337Y0131981D01*
X0060351Y0132048D01*
X0060369Y0132115D01*
X0060390Y0132180D01*
X0060416Y0132244D01*
X0060445Y0132306D01*
X0060477Y0132366D01*
X0060513Y0132425D01*
X0060553Y0132481D01*
X0060595Y0132535D01*
X0060641Y0132586D01*
X0060690Y0132635D01*
X0060741Y0132681D01*
X0060795Y0132723D01*
X0060851Y0132763D01*
X0060909Y0132799D01*
X0060970Y0132831D01*
X0061032Y0132860D01*
X0061096Y0132886D01*
X0061161Y0132907D01*
X0061228Y0132925D01*
X0061295Y0132939D01*
X0061363Y0132949D01*
X0061431Y0132955D01*
X0061500Y0132957D01*
X0061569Y0132955D01*
X0061637Y0132949D01*
X0061705Y0132939D01*
X0061772Y0132925D01*
X0061839Y0132907D01*
X0061904Y0132886D01*
X0061968Y0132860D01*
X0062030Y0132831D01*
X0062090Y0132799D01*
X0062149Y0132763D01*
X0062205Y0132723D01*
X0062259Y0132681D01*
X0062310Y0132635D01*
X0062359Y0132586D01*
X0062405Y0132535D01*
X0062447Y0132481D01*
X0062487Y0132425D01*
X0062523Y0132366D01*
X0062555Y0132306D01*
X0062584Y0132244D01*
X0062610Y0132180D01*
X0062631Y0132115D01*
X0062649Y0132048D01*
X0062663Y0131981D01*
X0062673Y0131913D01*
X0062679Y0131845D01*
X0062681Y0131776D01*
X0062679Y0131707D01*
X0062673Y0131639D01*
X0062663Y0131571D01*
X0062649Y0131504D01*
X0062631Y0131437D01*
X0062610Y0131372D01*
X0062584Y0131308D01*
X0062555Y0131246D01*
X0062523Y0131185D01*
X0062487Y0131127D01*
X0062447Y0131071D01*
X0062405Y0131017D01*
X0062359Y0130966D01*
X0062310Y0130917D01*
X0062259Y0130871D01*
X0062205Y0130829D01*
X0062149Y0130789D01*
X0062091Y0130753D01*
X0062030Y0130721D01*
X0061968Y0130692D01*
X0061904Y0130666D01*
X0061839Y0130645D01*
X0061772Y0130627D01*
X0061705Y0130613D01*
X0061637Y0130603D01*
X0061569Y0130597D01*
X0061500Y0130595D01*
X0061431Y0130597D01*
X0061363Y0130603D01*
X0061295Y0130613D01*
X0061228Y0130627D01*
X0061161Y0130645D01*
X0061096Y0130666D01*
X0061032Y0130692D01*
X0060970Y0130721D01*
X0060909Y0130753D01*
X0060851Y0130789D01*
X0060795Y0130829D01*
X0060741Y0130871D01*
X0060690Y0130917D01*
X0060641Y0130966D01*
X0060595Y0131017D01*
X0060553Y0131071D01*
X0060513Y0131127D01*
X0060477Y0131185D01*
X0060445Y0131246D01*
X0060416Y0131308D01*
X0060390Y0131372D01*
X0060369Y0131437D01*
X0060351Y0131504D01*
X0060337Y0131571D01*
X0060327Y0131639D01*
X0060321Y0131707D01*
X0060319Y0131776D01*
X0036500Y0037750D02*
X0086500Y0037750D01*
X0086500Y0001500D01*
X0036500Y0001500D02*
X0036500Y0037750D01*
D12*
X0001500Y0016500D02*
X0001500Y0116500D01*
X0001518Y0117961D01*
X0001571Y0119421D01*
X0001660Y0120880D01*
X0001784Y0122336D01*
X0001944Y0123788D01*
X0002139Y0125236D01*
X0002370Y0126679D01*
X0002635Y0128116D01*
X0002935Y0129546D01*
X0003270Y0130968D01*
X0003640Y0132382D01*
X0004044Y0133786D01*
X0004482Y0135180D01*
X0004954Y0136563D01*
X0005459Y0137934D01*
X0005998Y0139292D01*
X0006569Y0140637D01*
X0007173Y0141967D01*
X0007809Y0143283D01*
X0008477Y0144582D01*
X0009177Y0145865D01*
X0009908Y0147130D01*
X0010669Y0148378D01*
X0011460Y0149606D01*
X0012281Y0150815D01*
X0013131Y0152003D01*
X0014010Y0153170D01*
X0014917Y0154316D01*
X0015852Y0155439D01*
X0016814Y0156539D01*
X0017802Y0157615D01*
X0018816Y0158667D01*
X0019856Y0159694D01*
X0020920Y0160695D01*
X0022008Y0161671D01*
X0023120Y0162619D01*
X0024254Y0163540D01*
X0025411Y0164433D01*
X0026588Y0165297D01*
X0027787Y0166133D01*
X0029006Y0166939D01*
X0030244Y0167716D01*
X0031500Y0168462D01*
X0032774Y0169177D01*
X0034065Y0169861D01*
X0035373Y0170513D01*
X0036696Y0171133D01*
X0038034Y0171721D01*
X0039385Y0172276D01*
X0040750Y0172798D01*
X0042127Y0173286D01*
X0043516Y0173741D01*
X0044915Y0174162D01*
X0046324Y0174549D01*
X0047742Y0174901D01*
X0049168Y0175219D01*
X0050602Y0175502D01*
X0052042Y0175750D01*
X0053487Y0175963D01*
X0054938Y0176140D01*
X0056392Y0176282D01*
X0057849Y0176389D01*
X0059309Y0176460D01*
X0060769Y0176496D01*
X0062231Y0176496D01*
X0063691Y0176460D01*
X0065151Y0176389D01*
X0066608Y0176282D01*
X0068062Y0176140D01*
X0069513Y0175963D01*
X0070958Y0175750D01*
X0072398Y0175502D01*
X0073832Y0175219D01*
X0075258Y0174901D01*
X0076676Y0174549D01*
X0078085Y0174162D01*
X0079484Y0173741D01*
X0080873Y0173286D01*
X0082250Y0172798D01*
X0083615Y0172276D01*
X0084966Y0171721D01*
X0086304Y0171133D01*
X0087627Y0170513D01*
X0088935Y0169861D01*
X0090226Y0169177D01*
X0091500Y0168462D01*
X0092756Y0167716D01*
X0093994Y0166939D01*
X0095213Y0166133D01*
X0096412Y0165297D01*
X0097589Y0164433D01*
X0098746Y0163540D01*
X0099880Y0162619D01*
X0100992Y0161671D01*
X0102080Y0160695D01*
X0103144Y0159694D01*
X0104184Y0158667D01*
X0105198Y0157615D01*
X0106186Y0156539D01*
X0107148Y0155439D01*
X0108083Y0154316D01*
X0108990Y0153170D01*
X0109869Y0152003D01*
X0110719Y0150815D01*
X0111540Y0149606D01*
X0112331Y0148378D01*
X0113092Y0147130D01*
X0113823Y0145865D01*
X0114523Y0144582D01*
X0115191Y0143283D01*
X0115827Y0141967D01*
X0116431Y0140637D01*
X0117002Y0139292D01*
X0117541Y0137934D01*
X0118046Y0136563D01*
X0118518Y0135180D01*
X0118956Y0133786D01*
X0119360Y0132382D01*
X0119730Y0130968D01*
X0120065Y0129546D01*
X0120365Y0128116D01*
X0120630Y0126679D01*
X0120861Y0125236D01*
X0121056Y0123788D01*
X0121216Y0122336D01*
X0121340Y0120880D01*
X0121429Y0119421D01*
X0121482Y0117961D01*
X0121500Y0116500D01*
X0121500Y0016500D01*
X0121496Y0016138D01*
X0121482Y0015775D01*
X0121461Y0015413D01*
X0121430Y0015052D01*
X0121391Y0014692D01*
X0121343Y0014333D01*
X0121286Y0013975D01*
X0121221Y0013618D01*
X0121147Y0013263D01*
X0121064Y0012910D01*
X0120973Y0012559D01*
X0120874Y0012211D01*
X0120766Y0011865D01*
X0120650Y0011521D01*
X0120525Y0011181D01*
X0120393Y0010844D01*
X0120252Y0010510D01*
X0120103Y0010179D01*
X0119946Y0009852D01*
X0119782Y0009529D01*
X0119610Y0009210D01*
X0119430Y0008896D01*
X0119242Y0008585D01*
X0119047Y0008280D01*
X0118845Y0007979D01*
X0118635Y0007683D01*
X0118419Y0007393D01*
X0118195Y0007107D01*
X0117965Y0006827D01*
X0117728Y0006553D01*
X0117484Y0006285D01*
X0117234Y0006022D01*
X0116978Y0005766D01*
X0116715Y0005516D01*
X0116447Y0005272D01*
X0116173Y0005035D01*
X0115893Y0004805D01*
X0115607Y0004581D01*
X0115317Y0004365D01*
X0115021Y0004155D01*
X0114720Y0003953D01*
X0114415Y0003758D01*
X0114104Y0003570D01*
X0113790Y0003390D01*
X0113471Y0003218D01*
X0113148Y0003054D01*
X0112821Y0002897D01*
X0112490Y0002748D01*
X0112156Y0002607D01*
X0111819Y0002475D01*
X0111479Y0002350D01*
X0111135Y0002234D01*
X0110789Y0002126D01*
X0110441Y0002027D01*
X0110090Y0001936D01*
X0109737Y0001853D01*
X0109382Y0001779D01*
X0109025Y0001714D01*
X0108667Y0001657D01*
X0108308Y0001609D01*
X0107948Y0001570D01*
X0107587Y0001539D01*
X0107225Y0001518D01*
X0106862Y0001504D01*
X0106500Y0001500D01*
X0016500Y0001500D01*
X0016138Y0001504D01*
X0015775Y0001518D01*
X0015413Y0001539D01*
X0015052Y0001570D01*
X0014692Y0001609D01*
X0014333Y0001657D01*
X0013975Y0001714D01*
X0013618Y0001779D01*
X0013263Y0001853D01*
X0012910Y0001936D01*
X0012559Y0002027D01*
X0012211Y0002126D01*
X0011865Y0002234D01*
X0011521Y0002350D01*
X0011181Y0002475D01*
X0010844Y0002607D01*
X0010510Y0002748D01*
X0010179Y0002897D01*
X0009852Y0003054D01*
X0009529Y0003218D01*
X0009210Y0003390D01*
X0008896Y0003570D01*
X0008585Y0003758D01*
X0008280Y0003953D01*
X0007979Y0004155D01*
X0007683Y0004365D01*
X0007393Y0004581D01*
X0007107Y0004805D01*
X0006827Y0005035D01*
X0006553Y0005272D01*
X0006285Y0005516D01*
X0006022Y0005766D01*
X0005766Y0006022D01*
X0005516Y0006285D01*
X0005272Y0006553D01*
X0005035Y0006827D01*
X0004805Y0007107D01*
X0004581Y0007393D01*
X0004365Y0007683D01*
X0004155Y0007979D01*
X0003953Y0008280D01*
X0003758Y0008585D01*
X0003570Y0008896D01*
X0003390Y0009210D01*
X0003218Y0009529D01*
X0003054Y0009852D01*
X0002897Y0010179D01*
X0002748Y0010510D01*
X0002607Y0010844D01*
X0002475Y0011181D01*
X0002350Y0011521D01*
X0002234Y0011865D01*
X0002126Y0012211D01*
X0002027Y0012559D01*
X0001936Y0012910D01*
X0001853Y0013263D01*
X0001779Y0013618D01*
X0001714Y0013975D01*
X0001657Y0014333D01*
X0001609Y0014692D01*
X0001570Y0015052D01*
X0001539Y0015413D01*
X0001518Y0015775D01*
X0001504Y0016138D01*
X0001500Y0016500D01*
D13*
X0045048Y0039634D02*
X0045531Y0039150D01*
X0046015Y0039150D01*
X0046499Y0039634D01*
X0046499Y0040601D01*
X0046983Y0041085D01*
X0047466Y0041085D01*
X0047950Y0040601D01*
X0047950Y0039634D01*
X0047466Y0039150D01*
X0045048Y0039634D02*
X0045048Y0040601D01*
X0045531Y0041085D01*
X0045531Y0042097D02*
X0047466Y0042097D01*
X0047950Y0042580D01*
X0047950Y0043548D01*
X0047466Y0044031D01*
X0047950Y0045043D02*
X0047950Y0046978D01*
X0047950Y0045043D02*
X0045048Y0045043D01*
X0045531Y0044031D02*
X0045048Y0043548D01*
X0045048Y0042580D01*
X0045531Y0042097D01*
X0055048Y0042097D02*
X0055048Y0043548D01*
X0055531Y0044031D01*
X0057466Y0044031D01*
X0057950Y0043548D01*
X0057950Y0042097D01*
X0055048Y0042097D01*
X0055531Y0041085D02*
X0055048Y0040601D01*
X0055048Y0039634D01*
X0055531Y0039150D01*
X0056015Y0039150D01*
X0056499Y0039634D01*
X0056499Y0040601D01*
X0056983Y0041085D01*
X0057466Y0041085D01*
X0057950Y0040601D01*
X0057950Y0039634D01*
X0057466Y0039150D01*
X0057950Y0045043D02*
X0056015Y0045043D01*
X0055048Y0046011D01*
X0056015Y0046978D01*
X0057950Y0046978D01*
X0056499Y0046978D02*
X0056499Y0045043D01*
X0065048Y0045527D02*
X0065531Y0045043D01*
X0067466Y0045043D01*
X0067950Y0045527D01*
X0067950Y0046494D01*
X0067466Y0046978D01*
X0065531Y0046978D02*
X0065048Y0046494D01*
X0065048Y0045527D01*
X0065531Y0044031D02*
X0065048Y0043548D01*
X0065048Y0042580D01*
X0065531Y0042097D01*
X0067466Y0042097D01*
X0067950Y0042580D01*
X0067950Y0043548D01*
X0067466Y0044031D01*
X0066983Y0041085D02*
X0065048Y0041085D01*
X0066983Y0041085D02*
X0067950Y0040117D01*
X0066983Y0039150D01*
X0065048Y0039150D01*
X0075048Y0039634D02*
X0075531Y0039150D01*
X0077466Y0039150D01*
X0077950Y0039634D01*
X0077950Y0040601D01*
X0077466Y0041085D01*
X0076499Y0041085D01*
X0076499Y0040117D01*
X0075531Y0041085D02*
X0075048Y0040601D01*
X0075048Y0039634D01*
X0075048Y0042097D02*
X0077950Y0044031D01*
X0075048Y0044031D01*
X0075048Y0045043D02*
X0075048Y0046494D01*
X0075531Y0046978D01*
X0077466Y0046978D01*
X0077950Y0046494D01*
X0077950Y0045043D01*
X0075048Y0045043D01*
X0075048Y0042097D02*
X0077950Y0042097D01*
D14*
X0072160Y0086856D02*
X0070692Y0086856D01*
X0071426Y0086856D02*
X0071426Y0089058D01*
X0070692Y0088324D01*
X0069950Y0088691D02*
X0069583Y0089058D01*
X0068482Y0089058D01*
X0068482Y0086856D01*
X0068482Y0087590D02*
X0069583Y0087590D01*
X0069950Y0087957D01*
X0069950Y0088691D01*
X0069216Y0087590D02*
X0069950Y0086856D01*
X0085982Y0086856D02*
X0085982Y0089058D01*
X0087083Y0089058D01*
X0087450Y0088691D01*
X0087450Y0087957D01*
X0087083Y0087590D01*
X0085982Y0087590D01*
X0086716Y0087590D02*
X0087450Y0086856D01*
X0088192Y0086856D02*
X0089660Y0088324D01*
X0089660Y0088691D01*
X0089293Y0089058D01*
X0088559Y0089058D01*
X0088192Y0088691D01*
X0088192Y0086856D02*
X0089660Y0086856D01*
X0052160Y0086856D02*
X0050692Y0086856D01*
X0052160Y0088324D01*
X0052160Y0088691D01*
X0051793Y0089058D01*
X0051059Y0089058D01*
X0050692Y0088691D01*
X0049950Y0088691D02*
X0049583Y0089058D01*
X0048849Y0089058D01*
X0048482Y0088691D01*
X0048482Y0087223D01*
X0048849Y0086856D01*
X0049583Y0086856D01*
X0049950Y0087223D01*
X0034660Y0086856D02*
X0033192Y0086856D01*
X0033926Y0086856D02*
X0033926Y0089058D01*
X0033192Y0088324D01*
X0032450Y0088691D02*
X0032083Y0089058D01*
X0031349Y0089058D01*
X0030982Y0088691D01*
X0030982Y0087223D01*
X0031349Y0086856D01*
X0032083Y0086856D01*
X0032450Y0087223D01*
D15*
X0100648Y0080080D03*
X0100823Y0073115D03*
X0100787Y0073045D03*
X0100648Y0072730D03*
X0100612Y0072695D03*
X0100612Y0072660D03*
X0100577Y0072625D03*
X0104777Y0066500D03*
X0108173Y0080850D03*
D16*
X0108102Y0080360D03*
X0104777Y0080815D03*
X0100752Y0079485D03*
X0101277Y0074060D03*
X0102677Y0072940D03*
X0102712Y0072975D03*
X0102608Y0072835D03*
X0102573Y0072800D03*
X0102537Y0072730D03*
X0102502Y0072695D03*
X0102467Y0072625D03*
X0102537Y0069965D03*
X0102573Y0069930D03*
X0104777Y0066535D03*
X0107717Y0068390D03*
X0107752Y0068425D03*
X0107787Y0068460D03*
X0106702Y0069930D03*
X0109187Y0071155D03*
X0109187Y0071190D03*
X0109187Y0071225D03*
X0109223Y0071260D03*
X0109223Y0071295D03*
X0106317Y0073325D03*
X0097462Y0073150D03*
D17*
X0097515Y0072905D03*
X0101505Y0074410D03*
X0103535Y0073500D03*
X0103220Y0069475D03*
X0104760Y0066570D03*
X0107140Y0067935D03*
X0106475Y0069615D03*
X0109345Y0072135D03*
X0109345Y0072170D03*
X0108015Y0079730D03*
X0108015Y0079765D03*
X0104760Y0080255D03*
X0104760Y0080290D03*
X0100910Y0078610D03*
X0100910Y0078575D03*
X0100910Y0078540D03*
D18*
X0101173Y0077105D03*
X0101173Y0077070D03*
X0101277Y0076650D03*
X0101627Y0074585D03*
X0103448Y0069440D03*
X0100998Y0068530D03*
X0104777Y0066605D03*
X0109362Y0072625D03*
X0107262Y0074760D03*
D19*
X0109345Y0073010D03*
X0110255Y0075320D03*
X0110255Y0075355D03*
X0110290Y0075390D03*
X0104585Y0078435D03*
X0104585Y0078470D03*
X0104585Y0078505D03*
X0104585Y0078540D03*
X0104585Y0078575D03*
X0101785Y0074725D03*
X0100000Y0069510D03*
X0100035Y0069475D03*
X0104410Y0069055D03*
X0104760Y0066640D03*
D20*
X0104760Y0066675D03*
X0106020Y0069440D03*
X0109310Y0073290D03*
X0104445Y0076895D03*
X0104445Y0076930D03*
X0104445Y0076965D03*
X0104445Y0077000D03*
X0104445Y0077035D03*
X0104445Y0077070D03*
X0099685Y0069895D03*
X0097865Y0072380D03*
D21*
X0101995Y0074900D03*
X0104410Y0076195D03*
X0104410Y0076230D03*
X0104410Y0076265D03*
X0104410Y0076300D03*
X0104760Y0066710D03*
D22*
X0104742Y0066745D03*
X0109257Y0073675D03*
D23*
X0104410Y0069230D03*
X0104725Y0066780D03*
X0099125Y0070735D03*
D24*
X0098985Y0070980D03*
X0104725Y0066815D03*
X0109170Y0073955D03*
D25*
X0109117Y0074095D03*
X0104707Y0066850D03*
X0098862Y0071260D03*
D26*
X0098775Y0071505D03*
X0098775Y0071540D03*
X0104725Y0066885D03*
X0109065Y0074200D03*
D27*
X0104742Y0073535D03*
X0104707Y0066920D03*
X0098723Y0071750D03*
X0098723Y0071785D03*
X0098723Y0071820D03*
D28*
X0104707Y0066955D03*
D29*
X0104690Y0066990D03*
X0108960Y0074445D03*
X0098670Y0072275D03*
D30*
X0104673Y0067025D03*
D31*
X0104672Y0067060D03*
X0108872Y0074585D03*
D32*
X0104655Y0067095D03*
D33*
X0104637Y0067130D03*
D34*
X0104637Y0067165D03*
D35*
X0104620Y0067200D03*
D36*
X0104620Y0067235D03*
D37*
X0104602Y0067270D03*
D38*
X0104602Y0067305D03*
X0105617Y0075705D03*
X0105617Y0075740D03*
X0105652Y0075845D03*
D39*
X0104585Y0067340D03*
D40*
X0104567Y0067375D03*
D41*
X0104550Y0067410D03*
D42*
X0104550Y0067445D03*
D43*
X0104532Y0067480D03*
D44*
X0104515Y0067515D03*
D45*
X0104515Y0067550D03*
D46*
X0104497Y0067585D03*
D47*
X0104480Y0067620D03*
D48*
X0102677Y0067655D03*
X0099352Y0070350D03*
X0104427Y0075985D03*
X0109257Y0073570D03*
D49*
X0109327Y0073185D03*
X0109992Y0074900D03*
X0110027Y0074935D03*
X0106982Y0074935D03*
X0104497Y0077490D03*
X0104497Y0077525D03*
X0104497Y0077560D03*
X0104497Y0077595D03*
X0104497Y0077630D03*
X0104497Y0077665D03*
X0099737Y0069825D03*
X0099772Y0069790D03*
X0097812Y0072415D03*
X0106457Y0067655D03*
D50*
X0102537Y0067690D03*
X0099562Y0070070D03*
X0099527Y0070105D03*
X0104427Y0076510D03*
X0104427Y0076545D03*
X0104427Y0076580D03*
X0104427Y0076615D03*
X0104427Y0076650D03*
D51*
X0104620Y0078785D03*
X0104620Y0078820D03*
X0104620Y0078855D03*
X0104620Y0078890D03*
X0104620Y0078925D03*
X0107385Y0076370D03*
X0107315Y0076125D03*
X0107315Y0076090D03*
X0107280Y0076020D03*
X0107280Y0075985D03*
X0107245Y0075880D03*
X0107105Y0074865D03*
X0110360Y0075565D03*
X0110395Y0075635D03*
X0106615Y0067690D03*
X0100210Y0069265D03*
X0100140Y0069335D03*
X0097690Y0072555D03*
D52*
X0101907Y0074830D03*
X0104462Y0077105D03*
X0104462Y0077140D03*
X0104462Y0077175D03*
X0104462Y0077210D03*
X0104462Y0077245D03*
X0109327Y0073255D03*
X0109923Y0074795D03*
X0102398Y0067725D03*
D53*
X0101767Y0068005D03*
X0101697Y0068040D03*
X0100402Y0069055D03*
X0097637Y0072625D03*
X0101697Y0074655D03*
X0101487Y0075950D03*
X0101487Y0075985D03*
X0101452Y0076020D03*
X0101452Y0076055D03*
X0104672Y0079240D03*
X0104672Y0079275D03*
X0104672Y0079310D03*
X0104672Y0079345D03*
X0107787Y0078330D03*
X0107787Y0078295D03*
X0107787Y0078260D03*
X0107787Y0078225D03*
X0107752Y0078155D03*
X0107752Y0078120D03*
X0107752Y0078085D03*
X0107752Y0078050D03*
X0107717Y0077945D03*
X0107717Y0077910D03*
X0107717Y0077875D03*
X0110552Y0076020D03*
X0110517Y0075950D03*
X0109362Y0072800D03*
X0106702Y0067725D03*
D54*
X0104410Y0069090D03*
X0102310Y0067760D03*
X0109940Y0074830D03*
X0109975Y0074865D03*
D55*
X0110657Y0076300D03*
X0110657Y0076335D03*
X0107892Y0078890D03*
X0107892Y0078925D03*
X0107892Y0078960D03*
X0107892Y0078995D03*
X0104707Y0079590D03*
X0104707Y0079625D03*
X0104707Y0079660D03*
X0104707Y0079695D03*
X0101207Y0076965D03*
X0101207Y0076930D03*
X0101207Y0076895D03*
X0101242Y0076825D03*
X0101242Y0076790D03*
X0106807Y0067760D03*
D56*
X0102222Y0067795D03*
X0099877Y0069650D03*
X0099842Y0069685D03*
X0097777Y0072450D03*
X0104532Y0077875D03*
X0104532Y0077910D03*
X0104532Y0077945D03*
X0104532Y0077980D03*
X0104532Y0078015D03*
X0110097Y0075040D03*
D57*
X0110692Y0076440D03*
X0107927Y0079135D03*
X0107927Y0079170D03*
X0107927Y0079205D03*
X0104742Y0079835D03*
X0101067Y0077630D03*
X0101067Y0077595D03*
X0101067Y0077560D03*
X0101067Y0077525D03*
X0101102Y0077490D03*
X0101102Y0077455D03*
X0101102Y0077420D03*
X0101102Y0077385D03*
X0097567Y0072765D03*
X0106877Y0067795D03*
X0109362Y0072520D03*
D58*
X0110167Y0075180D03*
X0104567Y0078260D03*
X0104567Y0078295D03*
X0104567Y0078330D03*
X0104567Y0078365D03*
X0104567Y0078400D03*
X0099982Y0069545D03*
X0102117Y0067830D03*
X0097742Y0072485D03*
D59*
X0097567Y0072800D03*
X0101032Y0077805D03*
X0101032Y0077840D03*
X0101032Y0077875D03*
X0100998Y0077945D03*
X0100998Y0077980D03*
X0100998Y0078015D03*
X0104742Y0079940D03*
X0104742Y0079975D03*
X0104742Y0080010D03*
X0107962Y0079415D03*
X0107962Y0079380D03*
X0107962Y0079345D03*
X0110727Y0076545D03*
X0109362Y0072450D03*
X0109362Y0072415D03*
X0109362Y0072380D03*
X0106948Y0067830D03*
X0104812Y0073955D03*
D60*
X0107262Y0075915D03*
X0107262Y0075950D03*
X0110308Y0075460D03*
X0110308Y0075425D03*
X0110342Y0075495D03*
X0110342Y0075530D03*
X0110377Y0075600D03*
X0109362Y0072975D03*
X0109362Y0072940D03*
X0104602Y0078610D03*
X0104602Y0078645D03*
X0104602Y0078680D03*
X0104602Y0078715D03*
X0104602Y0078750D03*
X0100052Y0069440D03*
X0100087Y0069405D03*
X0100123Y0069370D03*
X0101977Y0067900D03*
X0102048Y0067865D03*
X0097708Y0072520D03*
D61*
X0097532Y0072870D03*
X0101557Y0074480D03*
X0100962Y0078155D03*
X0100962Y0078190D03*
X0100962Y0078225D03*
X0100962Y0078260D03*
X0104742Y0080080D03*
X0107997Y0079625D03*
X0107997Y0079590D03*
X0107997Y0079555D03*
X0110762Y0076650D03*
X0109362Y0072345D03*
X0109362Y0072310D03*
X0106422Y0069580D03*
X0107017Y0067865D03*
X0104427Y0068985D03*
D62*
X0107087Y0067900D03*
X0109362Y0072205D03*
X0109362Y0072240D03*
D63*
X0109362Y0072870D03*
X0109362Y0072905D03*
X0110412Y0075670D03*
X0110412Y0075705D03*
X0110448Y0075740D03*
X0110448Y0075775D03*
X0110482Y0075845D03*
X0107437Y0076545D03*
X0107437Y0076580D03*
X0107437Y0076615D03*
X0107473Y0076685D03*
X0107473Y0076720D03*
X0107473Y0076755D03*
X0107507Y0076860D03*
X0107507Y0076895D03*
X0107542Y0077035D03*
X0107542Y0077070D03*
X0107577Y0077210D03*
X0107612Y0077385D03*
X0107402Y0076510D03*
X0107402Y0076475D03*
X0107402Y0076440D03*
X0107402Y0076405D03*
X0107367Y0076335D03*
X0107367Y0076300D03*
X0107367Y0076265D03*
X0107332Y0076195D03*
X0107332Y0076160D03*
X0107298Y0076055D03*
X0104812Y0073920D03*
X0106212Y0069475D03*
X0101907Y0067935D03*
X0101837Y0067970D03*
X0100262Y0069230D03*
X0101732Y0074690D03*
X0101557Y0075740D03*
X0101557Y0075775D03*
X0101523Y0075845D03*
X0104637Y0078960D03*
X0104637Y0078995D03*
X0104637Y0079030D03*
X0104637Y0079065D03*
D64*
X0108050Y0079870D03*
X0108050Y0079905D03*
X0110815Y0076825D03*
X0109345Y0072065D03*
X0109345Y0072030D03*
X0106510Y0069650D03*
X0107210Y0067970D03*
X0103150Y0069510D03*
X0100875Y0078715D03*
X0100875Y0078750D03*
X0100875Y0078785D03*
D65*
X0100858Y0078820D03*
X0100858Y0078855D03*
X0100858Y0078890D03*
X0101452Y0074340D03*
X0097498Y0072975D03*
X0104777Y0080395D03*
X0104777Y0080430D03*
X0104777Y0080465D03*
X0108067Y0079940D03*
X0110833Y0076895D03*
X0110833Y0076860D03*
X0109327Y0071995D03*
X0109327Y0071960D03*
X0109327Y0071925D03*
X0105967Y0073500D03*
X0107262Y0068005D03*
D66*
X0107315Y0068040D03*
X0106545Y0069685D03*
X0103430Y0073465D03*
X0101435Y0074305D03*
X0097480Y0073010D03*
X0100840Y0078925D03*
X0100840Y0078960D03*
X0100840Y0078995D03*
D67*
X0101365Y0076335D03*
X0101400Y0076230D03*
X0101400Y0076195D03*
X0101435Y0076160D03*
X0101435Y0076125D03*
X0101435Y0076090D03*
X0104690Y0079380D03*
X0104690Y0079415D03*
X0104690Y0079450D03*
X0107840Y0078610D03*
X0107805Y0078470D03*
X0107805Y0078435D03*
X0107805Y0078400D03*
X0107805Y0078365D03*
X0107770Y0078190D03*
X0110570Y0076090D03*
X0110570Y0076055D03*
X0110535Y0075985D03*
X0109380Y0072765D03*
X0101645Y0068075D03*
X0100630Y0068845D03*
X0100595Y0068880D03*
X0100560Y0068915D03*
X0100525Y0068950D03*
X0100490Y0068985D03*
X0100455Y0069020D03*
D68*
X0102975Y0069580D03*
X0103325Y0073430D03*
X0106090Y0073465D03*
X0109310Y0071820D03*
X0109310Y0071785D03*
X0109310Y0071750D03*
X0107385Y0068110D03*
X0107350Y0068075D03*
X0110850Y0076965D03*
X0108085Y0080080D03*
D69*
X0107857Y0078715D03*
X0107857Y0078680D03*
X0107857Y0078645D03*
X0107822Y0078575D03*
X0107822Y0078540D03*
X0107822Y0078505D03*
X0104707Y0079485D03*
X0107227Y0074795D03*
X0110622Y0076230D03*
X0104427Y0069020D03*
X0101592Y0068110D03*
X0101522Y0068145D03*
X0101417Y0068215D03*
X0100752Y0068740D03*
X0100717Y0068775D03*
X0100682Y0068810D03*
X0101382Y0076265D03*
X0101382Y0076300D03*
X0101347Y0076370D03*
X0101347Y0076405D03*
D70*
X0101382Y0074235D03*
X0103272Y0073395D03*
X0106597Y0069755D03*
X0107437Y0068145D03*
X0109292Y0071680D03*
X0109292Y0071715D03*
X0110867Y0077000D03*
X0108067Y0080115D03*
X0104777Y0080570D03*
X0104777Y0080605D03*
X0100787Y0079205D03*
X0100787Y0079170D03*
D71*
X0101312Y0076510D03*
X0101662Y0074620D03*
X0097637Y0072660D03*
X0100787Y0068705D03*
X0101487Y0068180D03*
X0109362Y0072695D03*
X0109362Y0072730D03*
X0110587Y0076125D03*
X0110587Y0076160D03*
D72*
X0110885Y0077035D03*
X0108085Y0080150D03*
X0108085Y0080185D03*
X0104795Y0080640D03*
X0101365Y0074200D03*
X0103185Y0073360D03*
X0102905Y0069615D03*
X0106615Y0069790D03*
X0107490Y0068180D03*
X0109275Y0071575D03*
X0109275Y0071610D03*
X0109275Y0071645D03*
X0106160Y0073430D03*
D73*
X0109257Y0071540D03*
X0109257Y0071505D03*
X0107542Y0068215D03*
X0102852Y0069650D03*
X0103132Y0073325D03*
X0101347Y0074165D03*
X0104777Y0080675D03*
X0108102Y0080220D03*
D74*
X0107875Y0078855D03*
X0107875Y0078820D03*
X0107875Y0078785D03*
X0107875Y0078750D03*
X0104690Y0079520D03*
X0104690Y0079555D03*
X0101225Y0076860D03*
X0101260Y0076755D03*
X0101260Y0076720D03*
X0101260Y0076685D03*
X0101295Y0076615D03*
X0101295Y0076580D03*
X0101295Y0076545D03*
X0101330Y0076475D03*
X0101330Y0076440D03*
X0097620Y0072695D03*
X0100840Y0068670D03*
X0100875Y0068635D03*
X0100910Y0068600D03*
X0100945Y0068565D03*
X0101050Y0068495D03*
X0101085Y0068460D03*
X0101120Y0068425D03*
X0101190Y0068390D03*
X0101225Y0068355D03*
X0101260Y0068320D03*
X0101330Y0068285D03*
X0101365Y0068250D03*
X0106300Y0069510D03*
X0109380Y0072660D03*
X0110605Y0076195D03*
X0110640Y0076265D03*
D75*
X0110885Y0077070D03*
X0108085Y0080255D03*
X0104795Y0080710D03*
X0100770Y0079380D03*
X0100770Y0079345D03*
X0100770Y0079310D03*
X0101330Y0074130D03*
X0102975Y0073220D03*
X0103045Y0073255D03*
X0103080Y0073290D03*
X0102765Y0069720D03*
X0102800Y0069685D03*
X0106650Y0069825D03*
X0107560Y0068250D03*
X0106230Y0073395D03*
D76*
X0102923Y0073185D03*
X0102887Y0073150D03*
X0102852Y0073115D03*
X0100752Y0079415D03*
X0097462Y0073115D03*
X0104777Y0080745D03*
X0108102Y0080290D03*
X0107648Y0068320D03*
X0107612Y0068285D03*
D77*
X0107700Y0068355D03*
X0106685Y0069895D03*
X0109240Y0071330D03*
X0109240Y0071365D03*
X0106300Y0073360D03*
X0102765Y0073010D03*
X0102660Y0072905D03*
X0102625Y0072870D03*
X0101295Y0074095D03*
X0102590Y0069895D03*
X0102625Y0069860D03*
X0102660Y0069825D03*
X0102695Y0069790D03*
X0102730Y0069755D03*
X0100735Y0079450D03*
X0104795Y0080780D03*
X0108120Y0080325D03*
X0110920Y0077105D03*
D78*
X0110920Y0077140D03*
X0108120Y0080395D03*
X0106370Y0073290D03*
X0106720Y0070000D03*
X0106720Y0069965D03*
X0107840Y0068495D03*
X0109170Y0071085D03*
X0109170Y0071120D03*
X0102520Y0070000D03*
X0102485Y0070035D03*
X0102415Y0070140D03*
X0102380Y0070210D03*
X0102205Y0071960D03*
X0102240Y0072100D03*
X0102310Y0072275D03*
X0102310Y0072310D03*
X0102310Y0072345D03*
X0102345Y0072380D03*
X0102345Y0072415D03*
X0102380Y0072450D03*
X0102380Y0072485D03*
X0102415Y0072520D03*
X0102415Y0072555D03*
X0102485Y0072660D03*
X0102555Y0072765D03*
X0101260Y0074025D03*
X0100735Y0079520D03*
X0100735Y0079555D03*
D79*
X0100717Y0079590D03*
X0100717Y0079625D03*
X0101242Y0073990D03*
X0102257Y0072170D03*
X0102257Y0072135D03*
X0102223Y0072065D03*
X0102223Y0072030D03*
X0102223Y0071995D03*
X0102187Y0071925D03*
X0102187Y0071890D03*
X0102187Y0071855D03*
X0102187Y0071820D03*
X0102152Y0071750D03*
X0102152Y0071715D03*
X0102152Y0071680D03*
X0102152Y0071645D03*
X0102152Y0071610D03*
X0102152Y0071575D03*
X0102152Y0071540D03*
X0102152Y0071505D03*
X0102152Y0071085D03*
X0102152Y0071050D03*
X0102152Y0071015D03*
X0102187Y0070805D03*
X0102187Y0070770D03*
X0102223Y0070630D03*
X0102223Y0070595D03*
X0102257Y0070525D03*
X0102257Y0070490D03*
X0102292Y0070420D03*
X0102292Y0070385D03*
X0102327Y0070350D03*
X0102327Y0070315D03*
X0102362Y0070280D03*
X0102362Y0070245D03*
X0102398Y0070175D03*
X0106737Y0070035D03*
X0107927Y0068600D03*
X0107892Y0068565D03*
X0107857Y0068530D03*
X0109152Y0071015D03*
X0109152Y0071050D03*
X0106492Y0073185D03*
X0106457Y0073220D03*
X0106423Y0073255D03*
X0110937Y0077175D03*
X0104777Y0080850D03*
X0097462Y0073185D03*
D80*
X0102170Y0071785D03*
X0102170Y0070980D03*
X0102170Y0070945D03*
X0102170Y0070910D03*
X0102170Y0070875D03*
X0102170Y0070840D03*
X0102205Y0070735D03*
X0102205Y0070700D03*
X0102205Y0070665D03*
X0106755Y0070105D03*
X0106755Y0070070D03*
X0107980Y0068670D03*
X0107945Y0068635D03*
X0106545Y0073115D03*
X0108120Y0080430D03*
X0108120Y0080465D03*
X0104795Y0080885D03*
D81*
X0101225Y0073955D03*
X0101190Y0073920D03*
X0102135Y0071470D03*
X0102135Y0071435D03*
X0102135Y0071400D03*
X0102135Y0071365D03*
X0102135Y0071330D03*
X0102135Y0071295D03*
X0102135Y0071260D03*
X0102135Y0071225D03*
X0102135Y0071190D03*
X0102135Y0071155D03*
X0102135Y0071120D03*
X0102240Y0070560D03*
X0102275Y0070455D03*
X0106510Y0073150D03*
X0109135Y0070980D03*
X0109135Y0070945D03*
X0109135Y0070910D03*
X0108015Y0068705D03*
D82*
X0108032Y0068740D03*
X0108067Y0068775D03*
X0106772Y0070140D03*
X0106772Y0070175D03*
X0109082Y0070770D03*
X0109082Y0070805D03*
X0109117Y0070840D03*
X0109117Y0070875D03*
X0106597Y0073045D03*
X0106562Y0073080D03*
X0101172Y0073885D03*
X0100717Y0079660D03*
X0104777Y0080920D03*
X0108137Y0080500D03*
X0110937Y0077210D03*
D83*
X0106702Y0072835D03*
X0106772Y0072625D03*
X0106772Y0072590D03*
X0106772Y0072555D03*
X0106772Y0072520D03*
X0106772Y0072485D03*
X0106772Y0072450D03*
X0106807Y0070525D03*
X0106807Y0070490D03*
X0106807Y0070455D03*
X0106807Y0070420D03*
X0106807Y0070385D03*
X0106807Y0070350D03*
X0106807Y0070315D03*
X0108207Y0068950D03*
X0108172Y0068915D03*
X0108242Y0068985D03*
X0108102Y0068810D03*
X0108977Y0070455D03*
X0109047Y0070630D03*
X0109047Y0070665D03*
X0104777Y0080955D03*
D84*
X0100700Y0079730D03*
X0100700Y0079695D03*
X0101155Y0073850D03*
X0097445Y0073220D03*
X0106615Y0073010D03*
X0106650Y0072975D03*
X0106650Y0072940D03*
X0106685Y0072905D03*
X0106685Y0072870D03*
X0106720Y0072800D03*
X0106755Y0072660D03*
X0106790Y0072415D03*
X0106790Y0070280D03*
X0106790Y0070245D03*
X0106790Y0070210D03*
X0108155Y0068880D03*
X0108120Y0068845D03*
X0109030Y0070595D03*
X0109065Y0070700D03*
X0109065Y0070735D03*
D85*
X0104445Y0068880D03*
X0100630Y0080220D03*
X0108190Y0080990D03*
D86*
X0101032Y0073570D03*
X0100998Y0073535D03*
X0100402Y0072415D03*
X0100682Y0079940D03*
X0106912Y0068915D03*
X0106912Y0068880D03*
D87*
X0106825Y0069300D03*
X0106825Y0070560D03*
X0106825Y0070595D03*
X0106825Y0070630D03*
X0106825Y0070665D03*
X0106825Y0070700D03*
X0106825Y0070735D03*
X0106825Y0070770D03*
X0106825Y0070805D03*
X0106825Y0070840D03*
X0106825Y0070875D03*
X0106825Y0070910D03*
X0106825Y0070945D03*
X0106825Y0070980D03*
X0106825Y0071015D03*
X0106825Y0071050D03*
X0106825Y0071085D03*
X0106825Y0071120D03*
X0106825Y0071155D03*
X0108960Y0070420D03*
X0108960Y0070385D03*
X0108960Y0070350D03*
X0108925Y0070315D03*
X0108925Y0070280D03*
X0108890Y0070210D03*
X0108995Y0070490D03*
X0108330Y0069125D03*
X0108295Y0069090D03*
X0108295Y0069055D03*
X0108260Y0069020D03*
X0104445Y0068915D03*
X0101120Y0073780D03*
X0100700Y0079765D03*
X0104795Y0080990D03*
X0110955Y0077245D03*
D88*
X0104830Y0073990D03*
X0104445Y0068950D03*
X0097480Y0073045D03*
X0100805Y0079100D03*
X0100805Y0079135D03*
D89*
X0100665Y0079905D03*
X0097445Y0073290D03*
X0104795Y0081095D03*
X0108155Y0080710D03*
X0108155Y0080675D03*
X0106895Y0068950D03*
D90*
X0106877Y0068985D03*
X0106877Y0069020D03*
X0106877Y0069055D03*
X0101067Y0073640D03*
X0100683Y0079870D03*
X0104777Y0081060D03*
X0110973Y0077280D03*
D91*
X0110500Y0075915D03*
X0110500Y0075880D03*
X0110465Y0075810D03*
X0107490Y0076790D03*
X0107490Y0076825D03*
X0107525Y0076930D03*
X0107525Y0076965D03*
X0107525Y0077000D03*
X0107560Y0077105D03*
X0107560Y0077140D03*
X0107560Y0077175D03*
X0107665Y0077560D03*
X0107665Y0077595D03*
X0107665Y0077630D03*
X0107665Y0077665D03*
X0107665Y0077700D03*
X0107700Y0077735D03*
X0107700Y0077770D03*
X0107700Y0077805D03*
X0107700Y0077840D03*
X0107735Y0077980D03*
X0107735Y0078015D03*
X0107175Y0074830D03*
X0101540Y0075810D03*
X0100315Y0069160D03*
X0100350Y0069125D03*
X0100385Y0069090D03*
D92*
X0101085Y0073675D03*
X0101085Y0073710D03*
X0106860Y0069160D03*
X0106860Y0069125D03*
X0106860Y0069090D03*
X0108435Y0069300D03*
X0108505Y0069405D03*
X0108540Y0069475D03*
X0108575Y0069545D03*
X0108610Y0069580D03*
X0108610Y0069615D03*
X0108645Y0069650D03*
X0108645Y0069685D03*
X0108680Y0069720D03*
X0108680Y0069755D03*
X0108715Y0069790D03*
X0108715Y0069825D03*
X0108750Y0069860D03*
X0108750Y0069895D03*
X0108785Y0069965D03*
X0108820Y0070035D03*
X0108155Y0080640D03*
D93*
X0104410Y0076475D03*
X0105950Y0071645D03*
X0105950Y0071610D03*
X0105950Y0071575D03*
X0105950Y0071540D03*
X0105950Y0071505D03*
X0105950Y0071470D03*
X0105950Y0071435D03*
X0105950Y0071400D03*
X0105950Y0071365D03*
X0105950Y0071330D03*
X0105950Y0071295D03*
X0105950Y0071260D03*
X0105950Y0071225D03*
X0105950Y0071190D03*
X0104410Y0069125D03*
X0099510Y0070140D03*
X0099475Y0070175D03*
X0109310Y0073395D03*
X0109310Y0073430D03*
D94*
X0109275Y0073535D03*
X0104410Y0076020D03*
X0104410Y0076055D03*
X0104410Y0076090D03*
X0104410Y0076125D03*
X0104410Y0069160D03*
D95*
X0104848Y0074025D03*
X0101102Y0073745D03*
X0097427Y0073255D03*
X0104777Y0081025D03*
X0108137Y0080605D03*
X0108873Y0070175D03*
X0108873Y0070140D03*
X0108837Y0070105D03*
X0108837Y0070070D03*
X0108802Y0070000D03*
X0108523Y0069440D03*
X0108487Y0069370D03*
X0108452Y0069335D03*
X0108348Y0069160D03*
D96*
X0109380Y0072835D03*
X0107455Y0076650D03*
X0107595Y0077245D03*
X0107595Y0077280D03*
X0107595Y0077315D03*
X0107595Y0077350D03*
X0107630Y0077420D03*
X0107630Y0077455D03*
X0107630Y0077490D03*
X0107630Y0077525D03*
X0104655Y0079100D03*
X0104655Y0079135D03*
X0104655Y0079170D03*
X0104655Y0079205D03*
X0101505Y0075915D03*
X0101505Y0075880D03*
X0097655Y0072590D03*
X0100280Y0069195D03*
D97*
X0099230Y0070560D03*
X0099195Y0070595D03*
X0104410Y0069195D03*
X0109240Y0073710D03*
D98*
X0108907Y0070245D03*
X0108767Y0069930D03*
X0108557Y0069510D03*
X0108417Y0069265D03*
X0108382Y0069230D03*
X0108382Y0069195D03*
X0106842Y0069195D03*
X0106842Y0069230D03*
X0106842Y0069265D03*
X0100332Y0072380D03*
X0100682Y0079800D03*
X0100682Y0079835D03*
D99*
X0099037Y0070875D03*
X0104392Y0069265D03*
X0109187Y0073885D03*
D100*
X0107350Y0076230D03*
X0101575Y0075705D03*
X0100175Y0069300D03*
D101*
X0098967Y0071015D03*
X0098967Y0071050D03*
X0098932Y0071085D03*
X0104392Y0069300D03*
X0109152Y0073990D03*
D102*
X0104952Y0069335D03*
D103*
X0104935Y0069370D03*
X0108785Y0074690D03*
D104*
X0108750Y0074725D03*
X0104900Y0069405D03*
D105*
X0106562Y0069720D03*
X0109327Y0071855D03*
X0109327Y0071890D03*
X0108067Y0080010D03*
X0108067Y0080045D03*
X0104777Y0080500D03*
X0104777Y0080535D03*
X0100823Y0079065D03*
X0100823Y0079030D03*
X0101417Y0074270D03*
X0103062Y0069545D03*
D106*
X0106370Y0069545D03*
X0109380Y0072485D03*
X0110710Y0076475D03*
X0110710Y0076510D03*
X0107945Y0079240D03*
X0107945Y0079275D03*
X0107945Y0079310D03*
D107*
X0104550Y0078225D03*
X0104550Y0078190D03*
X0104550Y0078155D03*
X0104550Y0078120D03*
X0104550Y0078085D03*
X0104550Y0078050D03*
X0101820Y0074760D03*
X0099930Y0069580D03*
X0109345Y0073080D03*
X0110115Y0075075D03*
X0110150Y0075110D03*
X0110150Y0075145D03*
D108*
X0110062Y0075005D03*
X0099912Y0069615D03*
D109*
X0099825Y0069720D03*
X0099790Y0069755D03*
X0101855Y0074795D03*
X0104515Y0077700D03*
X0104515Y0077735D03*
X0104515Y0077770D03*
X0104515Y0077805D03*
X0104515Y0077840D03*
X0104795Y0073885D03*
X0109345Y0073150D03*
X0109345Y0073115D03*
X0110045Y0074970D03*
D110*
X0109345Y0073220D03*
X0104480Y0077280D03*
X0104480Y0077315D03*
X0104480Y0077350D03*
X0104480Y0077385D03*
X0104480Y0077420D03*
X0104480Y0077455D03*
X0099720Y0069860D03*
D111*
X0102782Y0073045D03*
X0102817Y0073080D03*
X0106667Y0069860D03*
X0109257Y0071400D03*
X0109257Y0071435D03*
X0109257Y0071470D03*
D112*
X0099650Y0069930D03*
D113*
X0099633Y0069965D03*
X0099598Y0070000D03*
X0104427Y0076860D03*
X0109327Y0073325D03*
X0109887Y0074760D03*
D114*
X0109310Y0073360D03*
X0106895Y0074970D03*
X0104795Y0073850D03*
X0104445Y0076685D03*
X0104445Y0076720D03*
X0104445Y0076755D03*
X0104445Y0076790D03*
X0104445Y0076825D03*
X0101960Y0074865D03*
X0099580Y0070035D03*
D115*
X0102450Y0070070D03*
X0102450Y0070105D03*
X0102275Y0072205D03*
X0102275Y0072240D03*
X0102450Y0072590D03*
D116*
X0104427Y0076335D03*
X0104427Y0076370D03*
X0104427Y0076405D03*
X0104427Y0076440D03*
X0109292Y0073465D03*
X0099457Y0070210D03*
D117*
X0099422Y0070245D03*
X0104427Y0076160D03*
X0106807Y0075005D03*
X0109292Y0073500D03*
D118*
X0104795Y0073815D03*
X0099405Y0070280D03*
X0099370Y0070315D03*
D119*
X0099335Y0070385D03*
X0102065Y0074935D03*
X0104410Y0075880D03*
X0104410Y0075915D03*
X0104410Y0075950D03*
D120*
X0109258Y0073640D03*
X0099317Y0070420D03*
X0099283Y0070455D03*
D121*
X0099265Y0070490D03*
D122*
X0099248Y0070525D03*
X0104777Y0073780D03*
D123*
X0106737Y0072765D03*
X0106737Y0072730D03*
X0106737Y0072695D03*
X0109012Y0070560D03*
X0109012Y0070525D03*
X0101137Y0073815D03*
X0108137Y0080535D03*
X0108137Y0080570D03*
D124*
X0109222Y0073745D03*
X0102152Y0074970D03*
X0099177Y0070630D03*
D125*
X0099160Y0070665D03*
D126*
X0099142Y0070700D03*
X0104777Y0073745D03*
X0106632Y0075040D03*
X0109222Y0073780D03*
D127*
X0099107Y0070770D03*
X0099073Y0070805D03*
D128*
X0099055Y0070840D03*
X0102240Y0075005D03*
X0109205Y0073850D03*
D129*
X0109170Y0073920D03*
X0104760Y0073710D03*
X0099020Y0070910D03*
D130*
X0099002Y0070945D03*
D131*
X0098915Y0071120D03*
X0104760Y0073675D03*
D132*
X0109152Y0074025D03*
X0098897Y0071155D03*
D133*
X0098880Y0071190D03*
X0098880Y0071225D03*
X0102380Y0075040D03*
D134*
X0104760Y0073640D03*
X0098845Y0071330D03*
X0098845Y0071295D03*
D135*
X0098827Y0071365D03*
X0109117Y0074130D03*
D136*
X0109100Y0074165D03*
X0098810Y0071400D03*
D137*
X0098792Y0071435D03*
X0098792Y0071470D03*
X0104742Y0073605D03*
D138*
X0098757Y0071610D03*
X0098757Y0071575D03*
D139*
X0098740Y0071645D03*
X0098740Y0071680D03*
X0109065Y0074235D03*
D140*
X0105967Y0071680D03*
D141*
X0098740Y0071715D03*
D142*
X0098705Y0071855D03*
X0098705Y0071890D03*
X0109030Y0074305D03*
D143*
X0109012Y0074340D03*
X0098687Y0071960D03*
X0098687Y0071925D03*
D144*
X0098705Y0071995D03*
X0108995Y0074375D03*
D145*
X0098687Y0072100D03*
X0098687Y0072065D03*
X0098687Y0072030D03*
D146*
X0097498Y0072940D03*
X0101487Y0074375D03*
X0104777Y0080325D03*
X0104777Y0080360D03*
X0110798Y0076790D03*
X0109327Y0072100D03*
D147*
X0098670Y0072135D03*
D148*
X0098687Y0072170D03*
X0098687Y0072205D03*
X0098687Y0072240D03*
D149*
X0101540Y0074445D03*
X0100945Y0078295D03*
X0100945Y0078330D03*
X0100945Y0078365D03*
X0104760Y0080115D03*
X0104760Y0080150D03*
X0104760Y0080185D03*
X0108015Y0079695D03*
X0108015Y0079660D03*
X0110780Y0076720D03*
X0110780Y0076685D03*
X0109345Y0072275D03*
D150*
X0098687Y0072310D03*
X0098687Y0072345D03*
D151*
X0100455Y0072450D03*
X0100980Y0073465D03*
X0100980Y0073500D03*
X0104795Y0081130D03*
X0108155Y0080745D03*
D152*
X0108155Y0080780D03*
X0104795Y0081165D03*
X0100665Y0080010D03*
X0100945Y0073395D03*
X0100945Y0073360D03*
X0100910Y0073325D03*
X0100490Y0072485D03*
D153*
X0100507Y0072520D03*
X0100542Y0072555D03*
X0100892Y0073290D03*
X0097427Y0073325D03*
X0100647Y0080045D03*
D154*
X0101120Y0077350D03*
X0101120Y0077315D03*
X0101120Y0077280D03*
X0101155Y0077245D03*
X0101155Y0077210D03*
X0101155Y0077175D03*
X0101155Y0077140D03*
X0101190Y0077035D03*
X0101190Y0077000D03*
X0101610Y0074550D03*
X0097585Y0072730D03*
X0104725Y0079730D03*
X0104725Y0079765D03*
X0104725Y0079800D03*
X0107910Y0079100D03*
X0107910Y0079065D03*
X0107910Y0079030D03*
X0110675Y0076405D03*
X0110675Y0076370D03*
X0109380Y0072590D03*
X0109380Y0072555D03*
D155*
X0108155Y0080815D03*
X0104795Y0081200D03*
X0100875Y0073255D03*
X0100875Y0073220D03*
X0100840Y0073150D03*
X0100560Y0072590D03*
D156*
X0100665Y0072765D03*
X0100665Y0072800D03*
X0100700Y0072835D03*
X0100700Y0072870D03*
X0100735Y0072905D03*
X0100735Y0072940D03*
X0100770Y0072975D03*
X0100770Y0073010D03*
X0100805Y0073080D03*
X0104795Y0081235D03*
D157*
X0104760Y0080045D03*
X0101015Y0077910D03*
X0097550Y0072835D03*
D158*
X0107052Y0074900D03*
X0109362Y0073045D03*
X0110202Y0075215D03*
X0110202Y0075250D03*
X0110237Y0075285D03*
D159*
X0100787Y0079240D03*
X0100787Y0079275D03*
X0097462Y0073080D03*
D160*
X0100857Y0073185D03*
X0111007Y0077350D03*
D161*
X0108190Y0080885D03*
X0104795Y0081270D03*
X0097445Y0073360D03*
D162*
X0097427Y0073395D03*
D163*
X0100962Y0073430D03*
D164*
X0104742Y0073570D03*
X0109047Y0074270D03*
D165*
X0101050Y0073605D03*
D166*
X0109275Y0073605D03*
D167*
X0109205Y0073815D03*
D168*
X0109135Y0074060D03*
D169*
X0108977Y0074410D03*
D170*
X0108942Y0074480D03*
D171*
X0104725Y0079870D03*
X0104725Y0079905D03*
X0101050Y0077770D03*
X0101050Y0077735D03*
X0101050Y0077700D03*
X0101050Y0077665D03*
X0101575Y0074515D03*
D172*
X0108925Y0074515D03*
D173*
X0108890Y0074550D03*
D174*
X0108837Y0074620D03*
D175*
X0108802Y0074655D03*
D176*
X0104410Y0075075D03*
X0104410Y0075110D03*
D177*
X0104392Y0075145D03*
X0104392Y0075180D03*
X0104392Y0075215D03*
X0104392Y0075250D03*
D178*
X0104410Y0075285D03*
D179*
X0104392Y0075320D03*
X0104392Y0075355D03*
X0104392Y0075390D03*
X0104392Y0075425D03*
D180*
X0104410Y0075460D03*
D181*
X0104392Y0075495D03*
X0104392Y0075530D03*
X0104392Y0075565D03*
X0104392Y0075600D03*
D182*
X0104410Y0075635D03*
D183*
X0104392Y0075670D03*
D184*
X0105635Y0075775D03*
X0105635Y0075810D03*
D185*
X0107980Y0079450D03*
X0107980Y0079485D03*
X0107980Y0079520D03*
X0110745Y0076615D03*
X0110745Y0076580D03*
X0100980Y0078050D03*
X0100980Y0078085D03*
X0100980Y0078120D03*
D186*
X0100927Y0078400D03*
X0100927Y0078435D03*
X0100927Y0078470D03*
X0100927Y0078505D03*
X0104777Y0080220D03*
X0110797Y0076755D03*
D187*
X0110850Y0076930D03*
X0108050Y0079975D03*
D188*
X0110990Y0077315D03*
X0100665Y0079975D03*
D189*
X0104812Y0081305D03*
X0111042Y0077385D03*
D190*
X0108032Y0079800D03*
X0108032Y0079835D03*
X0100892Y0078680D03*
X0100892Y0078645D03*
D191*
X0100648Y0080115D03*
D192*
X0100648Y0080150D03*
D193*
X0100630Y0080185D03*
D194*
X0100630Y0080255D03*
X0104830Y0081410D03*
D195*
X0108190Y0080920D03*
D196*
X0108172Y0080955D03*
D197*
X0108207Y0081025D03*
D198*
X0104812Y0081340D03*
D199*
X0104830Y0081375D03*
D200*
X0105260Y0046100D03*
X0105260Y0045100D03*
X0105060Y0044300D03*
X0105060Y0044100D03*
X0105060Y0043900D03*
X0105060Y0043700D03*
X0105060Y0043500D03*
X0105700Y0043500D03*
X0105740Y0043300D03*
X0105860Y0042900D03*
X0105060Y0042700D03*
X0105060Y0042500D03*
X0105060Y0042300D03*
X0105060Y0041500D03*
X0103900Y0042300D03*
X0103900Y0042500D03*
X0103900Y0042700D03*
X0102540Y0042700D03*
X0102540Y0042500D03*
X0102540Y0042300D03*
X0102540Y0042100D03*
X0102540Y0041900D03*
X0102540Y0041700D03*
X0102540Y0041500D03*
X0101700Y0041500D03*
X0101700Y0042100D03*
X0101700Y0042900D03*
X0102540Y0043500D03*
X0103660Y0044700D03*
X0103660Y0044900D03*
X0103660Y0045100D03*
X0103660Y0045300D03*
X0103660Y0045500D03*
X0103660Y0045700D03*
X0103660Y0045900D03*
X0102500Y0045900D03*
X0101740Y0045900D03*
X0100540Y0045300D03*
X0098660Y0045500D03*
X0098660Y0045700D03*
X0098660Y0045900D03*
X0097900Y0045900D03*
X0097900Y0045700D03*
X0097900Y0045500D03*
X0097900Y0045300D03*
X0098660Y0044500D03*
X0098660Y0044300D03*
X0098660Y0044100D03*
X0098660Y0043900D03*
X0098660Y0043700D03*
X0098660Y0043500D03*
X0098660Y0042700D03*
X0098660Y0042500D03*
X0098660Y0042300D03*
X0098660Y0042100D03*
X0098660Y0041900D03*
X0098660Y0041700D03*
X0098660Y0041500D03*
X0106900Y0043300D03*
X0107900Y0042900D03*
X0108260Y0045300D03*
X0108300Y0045700D03*
X0108260Y0045900D03*
X0107060Y0045900D03*
X0107060Y0045700D03*
X0107060Y0045500D03*
X0107060Y0045300D03*
X0109700Y0042900D03*
X0109700Y0042100D03*
X0110540Y0042100D03*
X0110540Y0042300D03*
X0110540Y0042500D03*
X0110540Y0042700D03*
X0110540Y0041900D03*
X0110540Y0041700D03*
X0110540Y0041500D03*
X0110540Y0043500D03*
X0111060Y0044700D03*
X0111060Y0044900D03*
X0111060Y0045100D03*
X0111060Y0045300D03*
X0111060Y0045500D03*
X0111060Y0045700D03*
X0111060Y0045900D03*
X0112340Y0045700D03*
X0112340Y0045500D03*
X0114060Y0045900D03*
X0114140Y0046100D03*
X0111940Y0042900D03*
X0111940Y0042100D03*
D201*
X0112380Y0045300D03*
X0112380Y0045900D03*
X0110220Y0045900D03*
X0110220Y0046100D03*
X0110220Y0046300D03*
X0110220Y0046500D03*
X0110220Y0045700D03*
X0110220Y0045500D03*
X0109020Y0045500D03*
X0109020Y0045700D03*
X0109020Y0045900D03*
X0109020Y0046100D03*
X0109020Y0046300D03*
X0109020Y0046500D03*
X0106420Y0045300D03*
X0105820Y0043100D03*
X0107980Y0043100D03*
X0108020Y0043300D03*
X0099820Y0042700D03*
X0099820Y0042500D03*
X0099820Y0042300D03*
X0099820Y0042100D03*
X0099820Y0041900D03*
X0099820Y0041700D03*
X0099820Y0041500D03*
X0099820Y0045300D03*
X0099820Y0045500D03*
X0099820Y0045700D03*
X0099820Y0045900D03*
D202*
X0101020Y0041500D03*
X0109020Y0041500D03*
X0112580Y0041500D03*
D203*
X0112520Y0043500D03*
X0110440Y0048300D03*
X0108160Y0045100D03*
X0106880Y0043100D03*
X0105360Y0045900D03*
X0104360Y0041500D03*
X0100640Y0045100D03*
X0099720Y0045100D03*
X0101520Y0048300D03*
D204*
X0103700Y0048900D03*
X0106300Y0041500D03*
X0096700Y0045700D03*
D205*
X0096720Y0045900D03*
X0096720Y0045500D03*
X0096720Y0045300D03*
X0100520Y0045900D03*
X0102480Y0045700D03*
X0102480Y0045500D03*
X0102480Y0045300D03*
X0102480Y0045100D03*
X0102480Y0044900D03*
X0102480Y0044700D03*
X0100520Y0042100D03*
X0105920Y0042700D03*
X0106000Y0042500D03*
X0106600Y0042500D03*
X0107800Y0042500D03*
X0107840Y0042700D03*
X0108520Y0042100D03*
X0107480Y0041500D03*
X0109720Y0041500D03*
X0108280Y0045500D03*
X0113440Y0045100D03*
X0114080Y0045300D03*
X0115240Y0045900D03*
D206*
X0115100Y0045060D03*
X0114100Y0045220D03*
X0114100Y0045260D03*
X0114060Y0045340D03*
X0114060Y0045380D03*
X0114060Y0045860D03*
X0114100Y0046020D03*
X0112340Y0045860D03*
X0112340Y0045820D03*
X0112340Y0045780D03*
X0112340Y0045740D03*
X0112340Y0045660D03*
X0112340Y0045620D03*
X0112340Y0045580D03*
X0112340Y0045540D03*
X0112340Y0045460D03*
X0112340Y0045420D03*
X0112340Y0045380D03*
X0111060Y0045380D03*
X0111060Y0045420D03*
X0111060Y0045460D03*
X0111060Y0045540D03*
X0111060Y0045580D03*
X0111060Y0045620D03*
X0111060Y0045660D03*
X0111060Y0045740D03*
X0111060Y0045780D03*
X0111060Y0045820D03*
X0111060Y0045860D03*
X0111060Y0045940D03*
X0111060Y0045980D03*
X0111060Y0046580D03*
X0111060Y0046620D03*
X0111060Y0045340D03*
X0111060Y0045260D03*
X0111060Y0045220D03*
X0111060Y0045180D03*
X0111060Y0045140D03*
X0111060Y0045060D03*
X0111060Y0045020D03*
X0111060Y0044980D03*
X0111060Y0044940D03*
X0111060Y0044860D03*
X0111060Y0044820D03*
X0111060Y0044780D03*
X0111060Y0044740D03*
X0111060Y0044660D03*
X0111060Y0044620D03*
X0110540Y0043460D03*
X0110540Y0043420D03*
X0110540Y0042740D03*
X0110540Y0042660D03*
X0110540Y0042620D03*
X0110540Y0042580D03*
X0110540Y0042540D03*
X0110540Y0042460D03*
X0110540Y0042420D03*
X0110540Y0042380D03*
X0110540Y0042340D03*
X0110540Y0042260D03*
X0110540Y0042220D03*
X0110540Y0042180D03*
X0110540Y0042140D03*
X0110540Y0042060D03*
X0110540Y0042020D03*
X0110540Y0041980D03*
X0110540Y0041940D03*
X0110540Y0041860D03*
X0110540Y0041820D03*
X0110540Y0041780D03*
X0110540Y0041740D03*
X0110540Y0041660D03*
X0110540Y0041620D03*
X0110540Y0041580D03*
X0110540Y0041540D03*
X0109700Y0042020D03*
X0109700Y0042060D03*
X0109700Y0042140D03*
X0109700Y0042180D03*
X0109700Y0042740D03*
X0109700Y0042940D03*
X0109700Y0042980D03*
X0108540Y0042220D03*
X0108540Y0042020D03*
X0108540Y0041980D03*
X0107860Y0042740D03*
X0107900Y0042860D03*
X0107940Y0042980D03*
X0107940Y0043020D03*
X0107940Y0043060D03*
X0108060Y0043380D03*
X0108060Y0043420D03*
X0108260Y0045260D03*
X0108260Y0045340D03*
X0108260Y0045380D03*
X0108300Y0045540D03*
X0108300Y0045580D03*
X0108300Y0045620D03*
X0108300Y0045660D03*
X0108260Y0045860D03*
X0108260Y0045940D03*
X0108260Y0045980D03*
X0107100Y0045980D03*
X0107100Y0046020D03*
X0107060Y0045940D03*
X0107060Y0045860D03*
X0107060Y0045820D03*
X0107060Y0045780D03*
X0107060Y0045740D03*
X0107060Y0045660D03*
X0107060Y0045620D03*
X0107060Y0045580D03*
X0107060Y0045540D03*
X0107060Y0045460D03*
X0107060Y0045420D03*
X0107060Y0045380D03*
X0107060Y0045340D03*
X0107100Y0045260D03*
X0107100Y0045220D03*
X0105860Y0042980D03*
X0105860Y0042940D03*
X0105900Y0042820D03*
X0105900Y0042780D03*
X0105940Y0042660D03*
X0105740Y0043340D03*
X0105740Y0043380D03*
X0105700Y0043460D03*
X0105060Y0043460D03*
X0105060Y0043540D03*
X0105060Y0043580D03*
X0105060Y0043620D03*
X0105060Y0043660D03*
X0105060Y0043740D03*
X0105060Y0043780D03*
X0105060Y0043820D03*
X0105060Y0043860D03*
X0105060Y0043940D03*
X0105060Y0043980D03*
X0105060Y0044020D03*
X0105060Y0044060D03*
X0105060Y0044140D03*
X0105060Y0044180D03*
X0105060Y0044220D03*
X0105060Y0044260D03*
X0103660Y0044580D03*
X0103660Y0044620D03*
X0103660Y0044660D03*
X0103660Y0044740D03*
X0103660Y0044780D03*
X0103660Y0044820D03*
X0103660Y0044860D03*
X0103660Y0044940D03*
X0103660Y0044980D03*
X0103660Y0045020D03*
X0103660Y0045060D03*
X0103660Y0045140D03*
X0103660Y0045180D03*
X0103660Y0045220D03*
X0103660Y0045260D03*
X0103660Y0045340D03*
X0103660Y0045380D03*
X0103660Y0045420D03*
X0103660Y0045460D03*
X0103660Y0045540D03*
X0103660Y0045580D03*
X0103660Y0045620D03*
X0103660Y0045660D03*
X0103660Y0045740D03*
X0103660Y0045780D03*
X0103660Y0045820D03*
X0103660Y0045860D03*
X0103660Y0045940D03*
X0102500Y0045940D03*
X0102500Y0045980D03*
X0101700Y0045980D03*
X0101700Y0046020D03*
X0101700Y0045940D03*
X0100540Y0045940D03*
X0100540Y0045980D03*
X0100540Y0045860D03*
X0100540Y0045340D03*
X0100540Y0045260D03*
X0100540Y0045220D03*
X0098660Y0045340D03*
X0098660Y0045380D03*
X0098660Y0045420D03*
X0098660Y0045460D03*
X0098660Y0045540D03*
X0098660Y0045580D03*
X0098660Y0045620D03*
X0098660Y0045660D03*
X0098660Y0045740D03*
X0098660Y0045780D03*
X0098660Y0045820D03*
X0098660Y0045860D03*
X0098660Y0046580D03*
X0098660Y0046620D03*
X0097860Y0046020D03*
X0097900Y0045940D03*
X0097900Y0045860D03*
X0097900Y0045820D03*
X0097900Y0045780D03*
X0097900Y0045740D03*
X0097900Y0045660D03*
X0097900Y0045620D03*
X0097900Y0045580D03*
X0097900Y0045540D03*
X0097900Y0045460D03*
X0097900Y0045420D03*
X0097900Y0045380D03*
X0097900Y0045340D03*
X0097860Y0045220D03*
X0098660Y0044660D03*
X0098660Y0044620D03*
X0098660Y0044580D03*
X0098660Y0044540D03*
X0098660Y0044460D03*
X0098660Y0044420D03*
X0098660Y0044380D03*
X0098660Y0044340D03*
X0098660Y0044260D03*
X0098660Y0044220D03*
X0098660Y0044180D03*
X0098660Y0044140D03*
X0098660Y0044060D03*
X0098660Y0044020D03*
X0098660Y0043980D03*
X0098660Y0043940D03*
X0098660Y0043860D03*
X0098660Y0043820D03*
X0098660Y0043780D03*
X0098660Y0043740D03*
X0098660Y0043660D03*
X0098660Y0043620D03*
X0098660Y0043580D03*
X0098660Y0043540D03*
X0098660Y0043460D03*
X0098660Y0042820D03*
X0098660Y0042780D03*
X0098660Y0042740D03*
X0098660Y0042660D03*
X0098660Y0042620D03*
X0098660Y0042580D03*
X0098660Y0042540D03*
X0098660Y0042460D03*
X0098660Y0042420D03*
X0098660Y0042380D03*
X0098660Y0042340D03*
X0098660Y0042260D03*
X0098660Y0042220D03*
X0098660Y0042180D03*
X0098660Y0042140D03*
X0098660Y0042060D03*
X0098660Y0042020D03*
X0098660Y0041980D03*
X0098660Y0041940D03*
X0098660Y0041860D03*
X0098660Y0041820D03*
X0098660Y0041780D03*
X0098660Y0041740D03*
X0098660Y0041660D03*
X0098660Y0041620D03*
X0098660Y0041580D03*
X0098660Y0041540D03*
X0100540Y0041980D03*
X0100540Y0042220D03*
X0101700Y0042220D03*
X0101700Y0042260D03*
X0101700Y0042180D03*
X0101700Y0042140D03*
X0101700Y0042060D03*
X0101700Y0042020D03*
X0101700Y0042740D03*
X0101700Y0042780D03*
X0101700Y0042820D03*
X0101700Y0042860D03*
X0101700Y0042940D03*
X0101700Y0042980D03*
X0102540Y0042780D03*
X0102540Y0042740D03*
X0102540Y0042660D03*
X0102540Y0042620D03*
X0102540Y0042580D03*
X0102540Y0042540D03*
X0102540Y0042460D03*
X0102540Y0042420D03*
X0102540Y0042380D03*
X0102540Y0042340D03*
X0102540Y0042260D03*
X0102540Y0042220D03*
X0102540Y0042180D03*
X0102540Y0042140D03*
X0102540Y0042060D03*
X0102540Y0042020D03*
X0102540Y0041980D03*
X0102540Y0041940D03*
X0102540Y0041860D03*
X0102540Y0041820D03*
X0102540Y0041780D03*
X0102540Y0041740D03*
X0102540Y0041660D03*
X0102540Y0041620D03*
X0102540Y0041580D03*
X0102540Y0041540D03*
X0103900Y0042180D03*
X0103900Y0042220D03*
X0103900Y0042260D03*
X0103900Y0042340D03*
X0103900Y0042380D03*
X0103900Y0042420D03*
X0103900Y0042460D03*
X0103900Y0042540D03*
X0103900Y0042580D03*
X0103900Y0042620D03*
X0103900Y0042660D03*
X0103900Y0042740D03*
X0103900Y0042780D03*
X0103900Y0042820D03*
X0105060Y0042820D03*
X0105060Y0042780D03*
X0105060Y0042740D03*
X0105060Y0042660D03*
X0105060Y0042620D03*
X0105060Y0042580D03*
X0105060Y0042540D03*
X0105060Y0042460D03*
X0105060Y0042420D03*
X0105060Y0042380D03*
X0105060Y0042340D03*
X0105060Y0042260D03*
X0105060Y0042220D03*
X0105060Y0042180D03*
X0105060Y0041540D03*
X0106300Y0041580D03*
X0106300Y0041620D03*
X0107500Y0041580D03*
X0105260Y0045980D03*
X0105260Y0046020D03*
X0105260Y0046060D03*
X0105300Y0046140D03*
X0102540Y0043460D03*
X0102540Y0043420D03*
X0101500Y0048260D03*
X0096740Y0046020D03*
X0096740Y0045220D03*
X0110460Y0048260D03*
X0111940Y0042860D03*
X0111900Y0042260D03*
X0111940Y0042140D03*
X0113100Y0042740D03*
X0113100Y0042780D03*
X0113100Y0042820D03*
X0113100Y0042860D03*
D207*
X0111980Y0042940D03*
X0111980Y0042060D03*
X0110220Y0044620D03*
X0110220Y0044660D03*
X0110220Y0045340D03*
X0110220Y0045380D03*
X0110220Y0045420D03*
X0110220Y0045460D03*
X0110220Y0045540D03*
X0110220Y0045580D03*
X0110220Y0045620D03*
X0110220Y0045660D03*
X0110220Y0045740D03*
X0110220Y0045780D03*
X0110220Y0045820D03*
X0110220Y0045860D03*
X0110220Y0045940D03*
X0110220Y0045980D03*
X0110220Y0046020D03*
X0110220Y0046060D03*
X0110220Y0046140D03*
X0110220Y0046180D03*
X0110220Y0046220D03*
X0110220Y0046260D03*
X0110220Y0046340D03*
X0110220Y0046380D03*
X0110220Y0046420D03*
X0110220Y0046460D03*
X0110220Y0046540D03*
X0110220Y0046580D03*
X0110220Y0046620D03*
X0109020Y0046620D03*
X0109020Y0046580D03*
X0109020Y0046540D03*
X0109020Y0046460D03*
X0109020Y0046420D03*
X0109020Y0046380D03*
X0109020Y0046340D03*
X0109020Y0046260D03*
X0109020Y0046220D03*
X0109020Y0046180D03*
X0109020Y0046140D03*
X0109020Y0046060D03*
X0109020Y0046020D03*
X0109020Y0045980D03*
X0109020Y0045940D03*
X0109020Y0045860D03*
X0109020Y0045820D03*
X0109020Y0045780D03*
X0109020Y0045740D03*
X0109020Y0045660D03*
X0109020Y0045620D03*
X0109020Y0045580D03*
X0109020Y0045540D03*
X0109020Y0045460D03*
X0109020Y0045420D03*
X0109020Y0045380D03*
X0109020Y0045340D03*
X0108020Y0043260D03*
X0108020Y0043220D03*
X0107980Y0043180D03*
X0107980Y0043140D03*
X0107820Y0042620D03*
X0107820Y0042580D03*
X0107780Y0042460D03*
X0105980Y0042540D03*
X0105820Y0043020D03*
X0105820Y0043060D03*
X0105780Y0043140D03*
X0105780Y0043180D03*
X0105780Y0043220D03*
X0105820Y0044580D03*
X0106420Y0045180D03*
X0106420Y0045220D03*
X0106420Y0045260D03*
X0105820Y0046660D03*
X0101580Y0045060D03*
X0100580Y0045180D03*
X0099820Y0045340D03*
X0099820Y0045380D03*
X0099820Y0045420D03*
X0099820Y0045460D03*
X0099820Y0045540D03*
X0099820Y0045580D03*
X0099820Y0045660D03*
X0099820Y0045740D03*
X0099820Y0045780D03*
X0099820Y0045820D03*
X0099820Y0045860D03*
X0099820Y0045940D03*
X0100580Y0046060D03*
X0099820Y0042860D03*
X0099820Y0042820D03*
X0099820Y0042780D03*
X0099820Y0042740D03*
X0099820Y0042660D03*
X0099820Y0042620D03*
X0099820Y0042580D03*
X0099820Y0042540D03*
X0099820Y0042460D03*
X0099820Y0042420D03*
X0099820Y0042380D03*
X0099820Y0042340D03*
X0099820Y0042260D03*
X0099820Y0042220D03*
X0099820Y0042180D03*
X0099820Y0042140D03*
X0099820Y0042060D03*
X0099820Y0042020D03*
X0099820Y0041980D03*
X0099820Y0041940D03*
X0099820Y0041860D03*
X0099820Y0041820D03*
X0099820Y0041780D03*
X0099820Y0041740D03*
X0099820Y0041660D03*
X0099820Y0041620D03*
X0099820Y0041580D03*
X0099820Y0041540D03*
X0112380Y0045340D03*
X0112380Y0045940D03*
X0115220Y0046020D03*
X0115220Y0046060D03*
D208*
X0113020Y0046380D03*
X0113020Y0044860D03*
X0111500Y0046420D03*
X0111500Y0046540D03*
X0110980Y0043260D03*
X0109260Y0042620D03*
X0109260Y0041540D03*
X0105780Y0044780D03*
X0105900Y0045580D03*
X0105860Y0045620D03*
X0105820Y0045660D03*
X0105860Y0046460D03*
X0107660Y0046340D03*
X0104620Y0043420D03*
X0104620Y0041580D03*
X0102980Y0043260D03*
X0101260Y0042620D03*
X0101260Y0041540D03*
X0099100Y0043420D03*
X0099100Y0046540D03*
X0097300Y0046340D03*
X0101140Y0046340D03*
X0102940Y0046540D03*
D209*
X0103600Y0049060D03*
X0105840Y0046620D03*
X0105800Y0044620D03*
X0106880Y0042860D03*
X0106280Y0042060D03*
X0106280Y0042020D03*
X0107480Y0042020D03*
X0107480Y0042060D03*
X0104920Y0041940D03*
X0104360Y0041540D03*
X0108360Y0049060D03*
X0112520Y0043460D03*
X0110400Y0059740D03*
X0101560Y0059740D03*
D210*
X0101520Y0059860D03*
X0110440Y0059860D03*
X0110200Y0046660D03*
X0111040Y0046660D03*
X0113040Y0046660D03*
X0114080Y0045980D03*
X0114080Y0045940D03*
X0115240Y0045940D03*
X0115240Y0045980D03*
X0115240Y0045860D03*
X0114720Y0044580D03*
X0112960Y0041940D03*
X0111920Y0042180D03*
X0111920Y0042220D03*
X0111920Y0042740D03*
X0111920Y0042780D03*
X0111920Y0042820D03*
X0111040Y0044580D03*
X0110200Y0044580D03*
X0109080Y0043540D03*
X0109720Y0042860D03*
X0109720Y0042820D03*
X0109720Y0042780D03*
X0109720Y0042260D03*
X0109720Y0042220D03*
X0108520Y0042180D03*
X0108520Y0042140D03*
X0108520Y0042060D03*
X0107760Y0042380D03*
X0107760Y0042420D03*
X0107800Y0042540D03*
X0107840Y0042660D03*
X0107880Y0042780D03*
X0107880Y0042820D03*
X0107920Y0042940D03*
X0107160Y0042580D03*
X0107160Y0042540D03*
X0107200Y0042460D03*
X0107200Y0042420D03*
X0106640Y0042620D03*
X0106640Y0042660D03*
X0106560Y0042380D03*
X0106040Y0042380D03*
X0106040Y0042340D03*
X0106000Y0042420D03*
X0106000Y0042460D03*
X0105960Y0042580D03*
X0105960Y0042620D03*
X0105920Y0042740D03*
X0105880Y0042860D03*
X0106880Y0043340D03*
X0106880Y0043380D03*
X0107680Y0044580D03*
X0108280Y0045420D03*
X0108280Y0045460D03*
X0108280Y0045740D03*
X0108280Y0045780D03*
X0108280Y0045820D03*
X0107680Y0046660D03*
X0109040Y0046660D03*
X0106240Y0046180D03*
X0105080Y0044340D03*
X0106280Y0041540D03*
X0107480Y0041540D03*
X0102480Y0044580D03*
X0102480Y0044620D03*
X0102480Y0044660D03*
X0102480Y0044740D03*
X0102480Y0044780D03*
X0102480Y0044820D03*
X0102480Y0044860D03*
X0102480Y0044940D03*
X0102480Y0044980D03*
X0102480Y0045020D03*
X0102480Y0045060D03*
X0102480Y0045140D03*
X0102480Y0045180D03*
X0102480Y0045220D03*
X0102480Y0045260D03*
X0102480Y0045340D03*
X0102480Y0045380D03*
X0102480Y0045420D03*
X0102480Y0045460D03*
X0102480Y0045540D03*
X0102480Y0045580D03*
X0102480Y0045620D03*
X0102480Y0045660D03*
X0102480Y0045740D03*
X0102480Y0045780D03*
X0102480Y0045820D03*
X0102480Y0045860D03*
X0102480Y0046580D03*
X0102480Y0046620D03*
X0102480Y0046660D03*
X0100560Y0046020D03*
X0100520Y0045380D03*
X0099840Y0045620D03*
X0098640Y0046660D03*
X0097280Y0046660D03*
X0096720Y0045980D03*
X0096720Y0045940D03*
X0096720Y0045860D03*
X0096720Y0045820D03*
X0096720Y0045780D03*
X0096720Y0045740D03*
X0096720Y0045460D03*
X0096720Y0045420D03*
X0096720Y0045380D03*
X0096720Y0045340D03*
X0096720Y0045260D03*
X0100520Y0042180D03*
X0100520Y0042140D03*
X0100520Y0042060D03*
X0100520Y0042020D03*
X0101080Y0043540D03*
D211*
X0101120Y0046540D03*
X0106280Y0042260D03*
X0112560Y0041540D03*
X0112520Y0043420D03*
X0114720Y0044660D03*
X0114680Y0046540D03*
D212*
X0114720Y0044860D03*
X0112520Y0043180D03*
X0111520Y0046460D03*
X0110360Y0048620D03*
X0107680Y0044940D03*
X0109120Y0043260D03*
X0109240Y0042580D03*
X0109240Y0041580D03*
X0105880Y0046420D03*
X0101240Y0041580D03*
X0099120Y0043380D03*
X0099120Y0044740D03*
D213*
X0097300Y0044740D03*
X0106100Y0045420D03*
X0112580Y0041580D03*
X0110380Y0059620D03*
X0101580Y0059620D03*
D214*
X0101600Y0048660D03*
X0103000Y0046420D03*
X0101160Y0044980D03*
X0099160Y0044820D03*
X0099160Y0046420D03*
X0101200Y0042540D03*
X0101200Y0041620D03*
X0105800Y0046260D03*
X0109160Y0043180D03*
X0109200Y0042540D03*
X0109200Y0041660D03*
X0112560Y0041860D03*
X0112600Y0041780D03*
X0113040Y0044940D03*
X0112960Y0045060D03*
X0112960Y0046180D03*
X0110360Y0048660D03*
D215*
X0104600Y0043380D03*
X0104600Y0041620D03*
X0101200Y0044860D03*
X0101600Y0048620D03*
D216*
X0103680Y0048940D03*
X0103640Y0046020D03*
X0103640Y0045980D03*
X0102520Y0046020D03*
X0102520Y0046060D03*
X0101720Y0045860D03*
X0101680Y0046060D03*
X0100600Y0045140D03*
X0099800Y0045180D03*
X0099800Y0045220D03*
X0099800Y0045260D03*
X0099800Y0045980D03*
X0099800Y0046020D03*
X0099800Y0046060D03*
X0098680Y0046020D03*
X0098680Y0045980D03*
X0098680Y0045940D03*
X0098680Y0045260D03*
X0098680Y0045220D03*
X0097880Y0045260D03*
X0097840Y0045180D03*
X0097880Y0045980D03*
X0097840Y0046060D03*
X0096760Y0046060D03*
X0096760Y0045180D03*
X0098680Y0042860D03*
X0101680Y0043020D03*
X0102560Y0042860D03*
X0102560Y0042820D03*
X0101680Y0041980D03*
X0103920Y0042060D03*
X0103960Y0042020D03*
X0103920Y0042140D03*
X0103920Y0042860D03*
X0105040Y0042860D03*
X0105040Y0042140D03*
X0105040Y0042060D03*
X0106280Y0041660D03*
X0107480Y0041660D03*
X0107480Y0041620D03*
X0106880Y0043220D03*
X0106880Y0043260D03*
X0105760Y0043260D03*
X0105720Y0043420D03*
X0106400Y0045140D03*
X0106400Y0045340D03*
X0107120Y0045180D03*
X0107120Y0046060D03*
X0108240Y0046060D03*
X0108240Y0046020D03*
X0108240Y0045220D03*
X0108240Y0045180D03*
X0108200Y0045140D03*
X0109040Y0045260D03*
X0109080Y0045220D03*
X0109080Y0045180D03*
X0110200Y0045260D03*
X0111080Y0046020D03*
X0112400Y0046020D03*
X0112400Y0045980D03*
X0112440Y0046060D03*
X0112400Y0045260D03*
X0112400Y0045220D03*
X0112440Y0045180D03*
X0114120Y0045180D03*
X0114160Y0045140D03*
X0114120Y0046060D03*
X0113040Y0042980D03*
X0113080Y0042940D03*
X0112000Y0042980D03*
X0112000Y0042020D03*
X0110560Y0042780D03*
X0110560Y0042820D03*
X0110560Y0042860D03*
X0109680Y0043020D03*
X0109680Y0041980D03*
X0108040Y0043340D03*
X0108080Y0043460D03*
X0105280Y0045940D03*
X0108280Y0048940D03*
D217*
X0105780Y0046220D03*
X0105780Y0044820D03*
X0104580Y0043340D03*
X0104580Y0041660D03*
X0103020Y0043340D03*
X0103020Y0043380D03*
X0101180Y0043140D03*
X0101100Y0043260D03*
X0101220Y0042580D03*
X0099140Y0043340D03*
X0099140Y0044780D03*
X0099140Y0046460D03*
X0097300Y0046260D03*
X0097300Y0044980D03*
X0097300Y0044940D03*
X0101140Y0046260D03*
X0102980Y0046460D03*
X0109180Y0043140D03*
X0109220Y0041620D03*
X0111020Y0043340D03*
X0111020Y0043380D03*
X0112540Y0043140D03*
X0112580Y0041740D03*
X0114660Y0045020D03*
X0114660Y0046260D03*
X0113020Y0046340D03*
X0109740Y0044740D03*
X0110340Y0059460D03*
X0101620Y0059460D03*
D218*
X0101120Y0046460D03*
X0097280Y0046460D03*
X0107680Y0046460D03*
X0107680Y0044780D03*
X0111400Y0046180D03*
X0112560Y0041620D03*
X0114720Y0044740D03*
X0114680Y0046460D03*
D219*
X0114700Y0044980D03*
X0113020Y0044980D03*
X0112980Y0045020D03*
X0112980Y0046220D03*
X0113020Y0046260D03*
X0109700Y0044860D03*
X0109700Y0044820D03*
X0107660Y0045020D03*
X0107660Y0046220D03*
X0105860Y0046340D03*
X0104540Y0043260D03*
X0104540Y0043220D03*
X0104540Y0041740D03*
X0101180Y0041660D03*
X0101140Y0043180D03*
X0101180Y0044940D03*
X0103020Y0046340D03*
X0103020Y0046380D03*
X0099180Y0046380D03*
X0099180Y0044860D03*
X0099180Y0043260D03*
X0099180Y0043220D03*
X0097300Y0045020D03*
X0097300Y0045060D03*
X0097300Y0046180D03*
X0097300Y0046220D03*
X0101620Y0059420D03*
X0110340Y0059420D03*
X0109180Y0042460D03*
X0112580Y0041820D03*
D220*
X0112580Y0041660D03*
X0113020Y0044820D03*
X0113020Y0046420D03*
X0110380Y0048580D03*
X0101580Y0048580D03*
D221*
X0101180Y0042500D03*
X0101180Y0041700D03*
X0109180Y0041700D03*
X0109180Y0042500D03*
D222*
X0104560Y0041700D03*
X0104560Y0043300D03*
X0105840Y0046300D03*
X0101200Y0044900D03*
X0099160Y0043300D03*
X0113040Y0046300D03*
D223*
X0112460Y0046100D03*
X0111100Y0046100D03*
X0111260Y0043500D03*
X0110580Y0042900D03*
X0107140Y0046100D03*
X0106380Y0045100D03*
X0103580Y0046100D03*
X0102540Y0046100D03*
X0101660Y0046100D03*
X0099780Y0046100D03*
X0098700Y0046100D03*
X0097820Y0046100D03*
X0096780Y0046100D03*
X0103260Y0043500D03*
X0106300Y0041700D03*
X0114180Y0045100D03*
D224*
X0115200Y0046100D03*
X0113080Y0042900D03*
X0110200Y0045300D03*
X0109040Y0045300D03*
X0108200Y0046100D03*
X0108080Y0043500D03*
X0107480Y0041700D03*
X0105040Y0042100D03*
X0105040Y0042900D03*
X0104360Y0043500D03*
X0103920Y0042900D03*
X0103920Y0042100D03*
X0102560Y0042900D03*
X0099800Y0042900D03*
X0099360Y0043500D03*
X0098680Y0042900D03*
X0098680Y0045300D03*
X0100600Y0046100D03*
D225*
X0099100Y0044700D03*
X0097300Y0044900D03*
X0105780Y0045700D03*
X0107660Y0044900D03*
X0109140Y0043300D03*
X0109780Y0044700D03*
X0112580Y0041700D03*
D226*
X0109160Y0041740D03*
X0109160Y0041780D03*
X0109160Y0042420D03*
X0107680Y0045060D03*
X0107680Y0046180D03*
X0105760Y0044860D03*
X0104520Y0043180D03*
X0104520Y0043140D03*
X0104520Y0041860D03*
X0104520Y0041820D03*
X0104520Y0041780D03*
X0101160Y0041740D03*
X0101160Y0042420D03*
X0101160Y0042460D03*
X0099200Y0043180D03*
X0099200Y0044940D03*
X0099200Y0046340D03*
X0103040Y0046260D03*
D227*
X0103180Y0046620D03*
X0103620Y0046060D03*
X0105340Y0046180D03*
X0105020Y0042940D03*
X0105020Y0042020D03*
X0103980Y0041980D03*
X0103940Y0042940D03*
X0103980Y0042980D03*
X0102580Y0042940D03*
X0101620Y0046140D03*
X0100620Y0046140D03*
X0099740Y0046140D03*
X0099780Y0045140D03*
X0099380Y0044620D03*
X0098700Y0045180D03*
X0098700Y0046060D03*
X0097820Y0045140D03*
X0096780Y0045140D03*
X0098700Y0042940D03*
X0099780Y0042940D03*
X0100580Y0042260D03*
X0100580Y0041940D03*
X0106300Y0041740D03*
X0106900Y0043180D03*
X0107140Y0045140D03*
X0107180Y0046140D03*
X0109100Y0045140D03*
X0109500Y0044620D03*
X0110180Y0045180D03*
X0110180Y0045220D03*
X0111100Y0046060D03*
X0111740Y0046620D03*
X0112460Y0045140D03*
X0114180Y0046140D03*
X0115180Y0046140D03*
X0113020Y0043020D03*
X0112020Y0043020D03*
X0112020Y0041980D03*
X0110580Y0042940D03*
X0108580Y0042260D03*
X0108580Y0041940D03*
X0110420Y0059820D03*
X0101540Y0059820D03*
D228*
X0103640Y0048980D03*
X0103560Y0046140D03*
X0106880Y0043140D03*
X0107480Y0041820D03*
X0107480Y0041780D03*
X0107480Y0041740D03*
X0106280Y0041780D03*
X0108160Y0046140D03*
X0110160Y0045140D03*
X0109640Y0041940D03*
X0112080Y0041940D03*
X0115120Y0046180D03*
X0108320Y0048980D03*
X0101640Y0041940D03*
X0099760Y0042980D03*
X0098720Y0042980D03*
X0098720Y0045140D03*
X0099360Y0046620D03*
X0100680Y0046180D03*
D229*
X0099220Y0046180D03*
X0099220Y0046220D03*
X0099220Y0046260D03*
X0099220Y0045060D03*
X0099220Y0045020D03*
X0099220Y0044980D03*
X0099220Y0043140D03*
X0099220Y0043060D03*
X0101140Y0042380D03*
X0101140Y0042340D03*
X0101140Y0041820D03*
X0101140Y0041780D03*
X0103060Y0046180D03*
X0103060Y0046220D03*
X0109140Y0042380D03*
X0109140Y0042340D03*
X0109140Y0041860D03*
X0109140Y0041820D03*
X0109660Y0044940D03*
X0109660Y0044980D03*
X0109660Y0045020D03*
D230*
X0111140Y0046140D03*
X0112500Y0046140D03*
X0113020Y0046620D03*
X0113020Y0044620D03*
X0112100Y0043060D03*
X0109620Y0043060D03*
X0107500Y0041860D03*
X0106300Y0041860D03*
X0106300Y0041820D03*
X0106900Y0043060D03*
X0107660Y0044620D03*
X0106340Y0045060D03*
X0105300Y0045060D03*
X0104980Y0043020D03*
X0102580Y0046140D03*
X0101580Y0046180D03*
X0101140Y0046620D03*
X0100700Y0045060D03*
X0098740Y0046140D03*
X0097300Y0046620D03*
X0097300Y0044620D03*
X0098740Y0043020D03*
X0099740Y0043020D03*
X0101540Y0059780D03*
X0110420Y0059780D03*
X0114660Y0046620D03*
D231*
X0114640Y0045820D03*
X0114640Y0045780D03*
X0114640Y0045740D03*
X0114640Y0045660D03*
X0114640Y0045620D03*
X0114640Y0045580D03*
X0114640Y0045540D03*
X0114640Y0045460D03*
X0114640Y0045420D03*
X0109640Y0045060D03*
X0101120Y0041860D03*
X0101640Y0059380D03*
X0110320Y0059380D03*
D232*
X0114640Y0045700D03*
X0114640Y0045500D03*
X0109120Y0041900D03*
X0105760Y0044900D03*
X0101120Y0042300D03*
X0101120Y0041900D03*
D233*
X0104500Y0041900D03*
X0104500Y0043100D03*
D234*
X0106280Y0041900D03*
X0107480Y0041900D03*
X0110120Y0045100D03*
D235*
X0113020Y0044900D03*
X0114740Y0044900D03*
X0112500Y0041900D03*
X0097300Y0046300D03*
D236*
X0099380Y0046580D03*
X0099380Y0044660D03*
X0101180Y0044620D03*
X0103180Y0046580D03*
X0103620Y0049020D03*
X0106900Y0042940D03*
X0106300Y0041980D03*
X0107500Y0041980D03*
X0109500Y0044660D03*
X0111740Y0046580D03*
X0108340Y0049020D03*
X0104060Y0041940D03*
D237*
X0106280Y0041940D03*
X0107480Y0041940D03*
X0106880Y0042980D03*
X0106880Y0043020D03*
X0106320Y0045380D03*
X0107680Y0046620D03*
X0101520Y0048340D03*
X0114720Y0044620D03*
D238*
X0114200Y0046180D03*
X0110600Y0042980D03*
X0105000Y0042980D03*
X0105000Y0041980D03*
X0104000Y0043020D03*
X0102600Y0042980D03*
X0101600Y0043060D03*
X0097800Y0046140D03*
X0096800Y0046140D03*
D239*
X0101500Y0048180D03*
X0103740Y0048860D03*
X0106300Y0046140D03*
X0104340Y0043540D03*
X0103260Y0043540D03*
X0108220Y0048860D03*
X0110460Y0048180D03*
X0109500Y0044580D03*
X0111260Y0043540D03*
X0112980Y0041980D03*
D240*
X0113000Y0042020D03*
X0108200Y0048820D03*
X0101600Y0045140D03*
D241*
X0101600Y0045180D03*
X0100720Y0042980D03*
X0106320Y0046060D03*
X0108720Y0042980D03*
X0111880Y0046140D03*
X0113000Y0042060D03*
X0115160Y0045180D03*
D242*
X0107500Y0042100D03*
X0106300Y0042100D03*
X0101100Y0043500D03*
D243*
X0101480Y0048100D03*
X0110480Y0048100D03*
X0111880Y0046100D03*
X0113000Y0042100D03*
D244*
X0113040Y0044660D03*
X0107680Y0044660D03*
X0107680Y0046580D03*
X0106880Y0042780D03*
X0106880Y0042740D03*
X0106280Y0042180D03*
X0106280Y0042140D03*
X0107480Y0042140D03*
X0107480Y0042180D03*
X0101120Y0046580D03*
X0097280Y0046580D03*
D245*
X0101540Y0048420D03*
X0106300Y0042220D03*
X0107500Y0042220D03*
X0107500Y0042260D03*
D246*
X0107480Y0042300D03*
X0106280Y0042300D03*
D247*
X0109140Y0042300D03*
X0099220Y0043100D03*
D248*
X0101120Y0045500D03*
X0101120Y0045700D03*
X0112520Y0042700D03*
X0112520Y0042500D03*
X0112520Y0042300D03*
D249*
X0113020Y0044580D03*
X0114660Y0046660D03*
X0110460Y0048220D03*
X0108740Y0043060D03*
X0107140Y0042660D03*
X0107140Y0042620D03*
X0107220Y0042380D03*
X0106620Y0042540D03*
X0106620Y0042580D03*
X0106580Y0042460D03*
X0106580Y0042420D03*
X0106540Y0042340D03*
X0101180Y0044580D03*
D250*
X0101100Y0043460D03*
X0097300Y0046540D03*
X0105820Y0046580D03*
X0107660Y0046540D03*
X0109140Y0043460D03*
X0107500Y0042340D03*
X0113020Y0046540D03*
X0110380Y0059660D03*
X0101580Y0059660D03*
D251*
X0101640Y0059340D03*
X0110320Y0059340D03*
X0105760Y0044980D03*
X0101120Y0045540D03*
X0101120Y0045580D03*
X0101120Y0045620D03*
X0101120Y0045660D03*
X0101120Y0045740D03*
X0112520Y0042660D03*
X0112520Y0042620D03*
X0112520Y0042580D03*
X0112520Y0042540D03*
X0112520Y0042460D03*
X0112520Y0042420D03*
X0112520Y0042380D03*
X0112520Y0042340D03*
D252*
X0107180Y0042500D03*
X0108260Y0048900D03*
D253*
X0111460Y0046340D03*
X0110940Y0043180D03*
X0110940Y0043140D03*
X0109300Y0042660D03*
X0109140Y0043340D03*
X0105700Y0045780D03*
X0102940Y0043180D03*
X0101300Y0042660D03*
X0101140Y0046380D03*
X0097300Y0046380D03*
X0097300Y0044860D03*
X0114660Y0046380D03*
D254*
X0109360Y0042700D03*
X0101360Y0042700D03*
D255*
X0106900Y0042700D03*
D256*
X0106900Y0042820D03*
X0097300Y0044660D03*
D257*
X0106880Y0042900D03*
X0109120Y0043500D03*
D258*
X0108720Y0042940D03*
X0111400Y0042980D03*
X0115160Y0045220D03*
X0101600Y0045220D03*
X0100720Y0042940D03*
D259*
X0103380Y0042980D03*
X0105220Y0045260D03*
X0103780Y0048780D03*
X0108180Y0048780D03*
D260*
X0110480Y0048140D03*
X0108720Y0043020D03*
X0103760Y0048820D03*
X0101480Y0048140D03*
X0100720Y0043020D03*
X0115160Y0045140D03*
D261*
X0114240Y0045060D03*
X0112960Y0043060D03*
X0111240Y0043460D03*
X0110640Y0043020D03*
X0110440Y0048340D03*
X0104360Y0043460D03*
X0103240Y0043460D03*
X0102640Y0043020D03*
X0099360Y0043460D03*
D262*
X0103380Y0043020D03*
X0105220Y0045220D03*
X0111380Y0043020D03*
X0113460Y0045180D03*
X0113460Y0046060D03*
X0110460Y0059980D03*
X0101500Y0059980D03*
D263*
X0101120Y0046660D03*
X0103200Y0046660D03*
X0105240Y0045140D03*
X0106880Y0043460D03*
X0111760Y0046660D03*
X0113440Y0046140D03*
X0112520Y0043540D03*
X0100720Y0043060D03*
X0099360Y0044580D03*
X0099360Y0046660D03*
D264*
X0102900Y0043060D03*
X0110900Y0043060D03*
D265*
X0104500Y0043060D03*
D266*
X0103000Y0043300D03*
X0101200Y0043100D03*
X0109200Y0043100D03*
X0111000Y0043300D03*
D267*
X0110920Y0043100D03*
X0105840Y0046500D03*
X0102920Y0043100D03*
D268*
X0112520Y0043100D03*
D269*
X0112520Y0043260D03*
X0111440Y0046260D03*
X0114720Y0044780D03*
X0107680Y0044820D03*
X0107680Y0046420D03*
X0105800Y0044740D03*
X0102920Y0043140D03*
X0101120Y0043380D03*
X0097280Y0044820D03*
X0097280Y0046420D03*
X0101600Y0059540D03*
X0110360Y0059540D03*
D270*
X0105880Y0046380D03*
X0107680Y0046260D03*
X0107680Y0044980D03*
X0109120Y0043220D03*
X0109720Y0044780D03*
X0114720Y0044940D03*
X0114680Y0046220D03*
X0101120Y0046220D03*
X0101120Y0045020D03*
X0101120Y0043220D03*
D271*
X0101120Y0043340D03*
X0101200Y0044820D03*
X0102960Y0043220D03*
X0105760Y0045740D03*
X0105920Y0045540D03*
X0107680Y0044860D03*
X0107680Y0046380D03*
X0111480Y0046380D03*
X0110960Y0043220D03*
X0112520Y0043220D03*
X0114720Y0044820D03*
X0114680Y0046340D03*
D272*
X0114680Y0046300D03*
X0111520Y0046500D03*
X0107680Y0046300D03*
X0102960Y0046500D03*
X0101120Y0046300D03*
X0099120Y0046500D03*
X0101120Y0043300D03*
D273*
X0112540Y0043300D03*
D274*
X0112520Y0043340D03*
X0109120Y0043420D03*
X0107680Y0044740D03*
X0101120Y0043420D03*
D275*
X0101180Y0044780D03*
X0101140Y0046420D03*
X0101580Y0048540D03*
X0105660Y0045820D03*
X0106020Y0045460D03*
X0109140Y0043380D03*
X0111420Y0046220D03*
X0113020Y0046460D03*
X0113020Y0044780D03*
X0114660Y0046420D03*
X0110380Y0048540D03*
D276*
X0112520Y0043380D03*
X0105560Y0045860D03*
X0101560Y0048460D03*
D277*
X0101540Y0048380D03*
X0103260Y0043420D03*
X0110420Y0048380D03*
X0111260Y0043420D03*
X0114660Y0046580D03*
D278*
X0106900Y0043420D03*
X0101500Y0048220D03*
X0097300Y0044580D03*
X0096700Y0045540D03*
X0096700Y0045580D03*
X0096700Y0045620D03*
X0096700Y0045660D03*
D279*
X0101600Y0045100D03*
X0106880Y0043500D03*
X0110440Y0059900D03*
X0101520Y0059900D03*
D280*
X0099360Y0043540D03*
X0113440Y0045140D03*
D281*
X0113020Y0046580D03*
X0110420Y0048420D03*
X0101180Y0044660D03*
D282*
X0105800Y0044660D03*
X0110400Y0048460D03*
D283*
X0113020Y0044700D03*
X0107660Y0044700D03*
X0097300Y0044700D03*
D284*
X0097300Y0046500D03*
X0101140Y0046500D03*
X0101180Y0044700D03*
X0114660Y0046500D03*
D285*
X0113020Y0046500D03*
X0105820Y0044700D03*
D286*
X0114720Y0044700D03*
D287*
X0113020Y0044740D03*
X0105860Y0046540D03*
X0101180Y0044740D03*
X0097300Y0044780D03*
X0101580Y0059580D03*
X0110380Y0059580D03*
D288*
X0110360Y0048700D03*
X0109680Y0044900D03*
X0103040Y0046300D03*
X0101600Y0048700D03*
X0099200Y0046300D03*
X0099200Y0044900D03*
D289*
X0101140Y0045420D03*
X0101140Y0045460D03*
X0101140Y0045780D03*
X0101140Y0045820D03*
X0105740Y0044940D03*
X0110340Y0048740D03*
D290*
X0105780Y0045020D03*
X0101620Y0048740D03*
D291*
X0097800Y0045100D03*
X0096800Y0045100D03*
X0107200Y0045100D03*
D292*
X0109140Y0045100D03*
X0112500Y0045100D03*
X0098740Y0045100D03*
D293*
X0115140Y0045100D03*
D294*
X0105220Y0045180D03*
X0101500Y0059940D03*
X0110460Y0059940D03*
D295*
X0113460Y0046020D03*
X0113460Y0045220D03*
D296*
X0113460Y0045260D03*
X0113460Y0045980D03*
X0106340Y0046020D03*
D297*
X0105220Y0045300D03*
D298*
X0105980Y0045500D03*
D299*
X0106300Y0046100D03*
D300*
X0113440Y0046100D03*
D301*
X0111460Y0046300D03*
D302*
X0107680Y0046500D03*
D303*
X0110400Y0048500D03*
X0101560Y0048500D03*
D304*
X0101620Y0048780D03*
X0110340Y0048780D03*
D305*
X0101640Y0048820D03*
D306*
X0110320Y0048820D03*
D307*
X0110320Y0048860D03*
X0101640Y0048860D03*
D308*
X0101660Y0048900D03*
X0110300Y0048900D03*
D309*
X0110300Y0048940D03*
X0101660Y0048940D03*
X0105980Y0061180D03*
X0105980Y0061220D03*
X0105980Y0061260D03*
X0105980Y0061340D03*
X0105980Y0061380D03*
D310*
X0101680Y0048980D03*
X0110280Y0048980D03*
D311*
X0110280Y0049020D03*
X0101680Y0049020D03*
D312*
X0101700Y0049060D03*
X0110260Y0049060D03*
D313*
X0110260Y0049100D03*
X0105980Y0060300D03*
X0101700Y0049100D03*
D314*
X0103560Y0049100D03*
X0108400Y0049100D03*
X0110400Y0059700D03*
X0101560Y0059700D03*
D315*
X0102200Y0049140D03*
X0109760Y0049140D03*
D316*
X0109780Y0049180D03*
X0102180Y0049180D03*
D317*
X0102180Y0049220D03*
X0109780Y0049220D03*
X0105980Y0059260D03*
D318*
X0102960Y0051220D03*
X0102960Y0051180D03*
X0102960Y0051140D03*
X0102920Y0051060D03*
X0102880Y0051020D03*
X0102880Y0050980D03*
X0102160Y0049260D03*
X0109040Y0051060D03*
X0109080Y0051020D03*
X0109080Y0050980D03*
X0109120Y0050940D03*
D319*
X0109000Y0051140D03*
X0109000Y0051180D03*
X0109000Y0051220D03*
X0109800Y0049260D03*
D320*
X0109800Y0049300D03*
X0109240Y0050700D03*
X0109000Y0051300D03*
X0102960Y0051300D03*
X0102160Y0049300D03*
D321*
X0102140Y0049340D03*
X0102620Y0050540D03*
X0102660Y0050580D03*
X0102700Y0050660D03*
X0102980Y0051340D03*
X0102980Y0051380D03*
X0108980Y0051380D03*
X0108980Y0051340D03*
X0109260Y0050660D03*
X0109300Y0050580D03*
X0109340Y0050540D03*
X0109820Y0049340D03*
D322*
X0109840Y0049380D03*
X0109440Y0050340D03*
X0109400Y0050420D03*
X0109360Y0050460D03*
X0109000Y0051420D03*
X0102960Y0051420D03*
X0102600Y0050460D03*
X0102560Y0050420D03*
X0102520Y0050340D03*
X0102120Y0049380D03*
D323*
X0102120Y0049420D03*
X0102360Y0050060D03*
X0102400Y0050140D03*
X0102440Y0050180D03*
X0102520Y0052620D03*
X0102600Y0055540D03*
X0109360Y0055540D03*
X0109440Y0052620D03*
X0109520Y0050180D03*
X0109560Y0050140D03*
X0109600Y0050060D03*
X0109840Y0049420D03*
D324*
X0109860Y0049460D03*
X0109700Y0049860D03*
X0109660Y0049940D03*
X0109340Y0055580D03*
X0102540Y0052580D03*
X0102340Y0050020D03*
X0102340Y0049980D03*
X0102300Y0049940D03*
X0102260Y0049860D03*
X0102100Y0049460D03*
D325*
X0102120Y0049500D03*
X0102280Y0049900D03*
X0109680Y0049900D03*
X0109840Y0049500D03*
D326*
X0109860Y0049540D03*
X0109860Y0049580D03*
X0109820Y0049620D03*
X0109820Y0049660D03*
X0108980Y0051620D03*
X0108980Y0051660D03*
X0109300Y0052460D03*
X0109500Y0055460D03*
X0109300Y0055620D03*
X0109260Y0055660D03*
X0105980Y0059180D03*
X0102700Y0055660D03*
X0102660Y0055620D03*
X0102460Y0055460D03*
X0102660Y0052460D03*
X0102980Y0051660D03*
X0102980Y0051620D03*
X0102140Y0049660D03*
X0102140Y0049620D03*
X0102100Y0049580D03*
X0102100Y0049540D03*
D327*
X0102180Y0049700D03*
X0102620Y0052500D03*
X0109340Y0052500D03*
X0109780Y0049700D03*
D328*
X0109760Y0049740D03*
X0109760Y0049780D03*
X0109720Y0049820D03*
X0109520Y0052660D03*
X0102440Y0052660D03*
X0102240Y0049820D03*
X0102200Y0049780D03*
X0102200Y0049740D03*
D329*
X0102980Y0051540D03*
X0102980Y0051580D03*
X0102580Y0052540D03*
X0102620Y0055580D03*
X0109380Y0052540D03*
X0109420Y0052580D03*
X0108980Y0051580D03*
X0108980Y0051540D03*
X0109620Y0050020D03*
X0109620Y0049980D03*
D330*
X0109560Y0050100D03*
X0109000Y0051500D03*
X0109400Y0055500D03*
X0102560Y0055500D03*
X0102960Y0051500D03*
X0102400Y0050100D03*
D331*
X0102460Y0050220D03*
X0102460Y0050260D03*
X0102540Y0050380D03*
X0102980Y0051460D03*
X0108980Y0051460D03*
X0109420Y0050380D03*
X0105980Y0059220D03*
D332*
X0109500Y0050260D03*
X0109500Y0050220D03*
D333*
X0102500Y0050300D03*
D334*
X0109460Y0050300D03*
D335*
X0109340Y0050500D03*
X0102620Y0050500D03*
D336*
X0102680Y0050620D03*
X0109280Y0050620D03*
D337*
X0102720Y0050700D03*
D338*
X0102740Y0050740D03*
X0102780Y0050820D03*
X0102820Y0050860D03*
X0102860Y0050940D03*
X0102980Y0051260D03*
X0108980Y0051260D03*
X0109140Y0050860D03*
X0109180Y0050820D03*
X0109220Y0050740D03*
D339*
X0109200Y0050780D03*
X0102760Y0050780D03*
D340*
X0102820Y0050900D03*
X0109140Y0050900D03*
D341*
X0109020Y0051100D03*
X0102940Y0051100D03*
D342*
X0102960Y0051700D03*
X0102720Y0055700D03*
X0109240Y0055700D03*
D343*
X0109000Y0051700D03*
D344*
X0108980Y0051740D03*
X0108980Y0051780D03*
X0109220Y0052380D03*
X0109180Y0055740D03*
X0102780Y0055740D03*
X0102740Y0052380D03*
X0102980Y0051780D03*
X0102980Y0051740D03*
D345*
X0102980Y0051820D03*
X0102980Y0051860D03*
X0102340Y0055420D03*
X0102820Y0055780D03*
X0102860Y0055820D03*
X0109100Y0055820D03*
X0109140Y0055780D03*
X0109620Y0055420D03*
X0108980Y0051860D03*
X0108980Y0051820D03*
D346*
X0109000Y0051900D03*
X0102960Y0051900D03*
D347*
X0102980Y0051940D03*
X0102980Y0051980D03*
X0102860Y0052220D03*
X0105980Y0059140D03*
X0109060Y0055860D03*
X0108980Y0051980D03*
X0108980Y0051940D03*
D348*
X0108980Y0052020D03*
X0108980Y0052060D03*
X0109020Y0052140D03*
X0109780Y0052740D03*
X0102980Y0052060D03*
X0102980Y0052020D03*
X0102220Y0055380D03*
D349*
X0102940Y0055900D03*
X0102940Y0052100D03*
D350*
X0109020Y0052100D03*
X0109020Y0055900D03*
D351*
X0109740Y0055380D03*
X0102940Y0052140D03*
D352*
X0102920Y0052180D03*
X0109040Y0052180D03*
D353*
X0109100Y0052220D03*
X0102900Y0055860D03*
D354*
X0102840Y0052260D03*
X0109120Y0052260D03*
D355*
X0109180Y0052300D03*
X0102780Y0052300D03*
D356*
X0102760Y0052340D03*
X0109200Y0052340D03*
D357*
X0109280Y0052420D03*
X0102680Y0052420D03*
D358*
X0102320Y0052700D03*
D359*
X0109640Y0052700D03*
D360*
X0102200Y0052740D03*
D361*
X0102080Y0052780D03*
X0102080Y0055340D03*
X0103080Y0055980D03*
X0108880Y0055980D03*
X0109880Y0055340D03*
X0109880Y0052780D03*
D362*
X0101940Y0052820D03*
D363*
X0110020Y0052820D03*
D364*
X0110140Y0052860D03*
X0110100Y0055260D03*
X0101860Y0055260D03*
X0101820Y0052860D03*
D365*
X0101700Y0052900D03*
D366*
X0110260Y0052900D03*
D367*
X0110380Y0052940D03*
X0110700Y0053660D03*
X0110700Y0053740D03*
X0110700Y0053780D03*
X0110700Y0053820D03*
X0110700Y0053860D03*
X0110700Y0054260D03*
X0110700Y0054340D03*
X0110700Y0054380D03*
X0110700Y0054420D03*
X0110700Y0054460D03*
X0101580Y0052940D03*
X0101260Y0053660D03*
X0101260Y0053740D03*
X0101260Y0053780D03*
X0101260Y0053820D03*
X0101260Y0053860D03*
X0101260Y0054260D03*
X0101260Y0054340D03*
X0101260Y0054380D03*
X0101260Y0054420D03*
X0101260Y0054460D03*
D368*
X0101340Y0054860D03*
X0101340Y0053220D03*
X0101340Y0053180D03*
X0101420Y0053020D03*
X0101460Y0052980D03*
X0110540Y0053020D03*
X0110620Y0053180D03*
X0110620Y0053220D03*
X0110620Y0054860D03*
D369*
X0110500Y0052980D03*
D370*
X0110560Y0053060D03*
X0110600Y0053140D03*
X0110600Y0054940D03*
X0110600Y0054980D03*
X0110560Y0055020D03*
X0110560Y0055060D03*
X0101400Y0055060D03*
X0101400Y0055020D03*
X0101360Y0054980D03*
X0101360Y0054940D03*
X0101360Y0053140D03*
X0101400Y0053060D03*
D371*
X0101380Y0053100D03*
X0101340Y0054900D03*
X0110620Y0054900D03*
X0110580Y0053100D03*
D372*
X0110640Y0053260D03*
X0110640Y0053340D03*
X0110640Y0054780D03*
X0110640Y0054820D03*
X0110480Y0055140D03*
X0101480Y0055140D03*
X0101320Y0054820D03*
X0101320Y0054780D03*
X0101320Y0053340D03*
X0101320Y0053260D03*
D373*
X0101320Y0053300D03*
X0110640Y0053300D03*
D374*
X0110660Y0053380D03*
X0110660Y0053420D03*
X0110660Y0053460D03*
X0110660Y0054660D03*
X0110660Y0054740D03*
X0101300Y0054740D03*
X0101300Y0054660D03*
X0101300Y0053460D03*
X0101300Y0053420D03*
X0101300Y0053380D03*
D375*
X0101280Y0053500D03*
X0101280Y0054500D03*
X0110680Y0054500D03*
X0110680Y0053500D03*
D376*
X0110680Y0053540D03*
X0110680Y0053580D03*
X0110680Y0053620D03*
X0110680Y0054540D03*
X0110680Y0054580D03*
X0110680Y0054620D03*
X0101280Y0054620D03*
X0101280Y0054580D03*
X0101280Y0054540D03*
X0101280Y0053620D03*
X0101280Y0053580D03*
X0101280Y0053540D03*
D377*
X0101260Y0053700D03*
X0101260Y0053900D03*
X0101260Y0054300D03*
X0110700Y0054300D03*
X0110700Y0053900D03*
X0110700Y0053700D03*
D378*
X0110720Y0053940D03*
X0110720Y0053980D03*
X0110720Y0054020D03*
X0110720Y0054060D03*
X0110720Y0054140D03*
X0110720Y0054180D03*
X0110720Y0054220D03*
X0110360Y0055180D03*
X0101240Y0054220D03*
X0101240Y0054180D03*
X0101240Y0054140D03*
X0101240Y0054060D03*
X0101240Y0054020D03*
X0101240Y0053980D03*
X0101240Y0053940D03*
D379*
X0101240Y0054100D03*
X0110720Y0054100D03*
D380*
X0110660Y0054700D03*
X0101300Y0054700D03*
D381*
X0101440Y0055100D03*
X0110520Y0055100D03*
D382*
X0101600Y0055180D03*
D383*
X0101720Y0055220D03*
X0110240Y0055220D03*
D384*
X0109980Y0055300D03*
X0101980Y0055300D03*
D385*
X0103020Y0055940D03*
X0108940Y0055940D03*
D386*
X0108780Y0056020D03*
X0103180Y0056020D03*
D387*
X0105980Y0056060D03*
X0105980Y0057420D03*
D388*
X0105980Y0056100D03*
D389*
X0105980Y0056140D03*
X0105980Y0057340D03*
X0105980Y0057380D03*
D390*
X0105980Y0056260D03*
X0105980Y0056220D03*
X0105980Y0056180D03*
D391*
X0105980Y0056300D03*
D392*
X0105980Y0056340D03*
X0105980Y0057220D03*
X0105980Y0057260D03*
D393*
X0105980Y0057180D03*
X0105980Y0056420D03*
X0105980Y0056380D03*
D394*
X0105980Y0056460D03*
X0105980Y0056540D03*
X0105980Y0057140D03*
D395*
X0105980Y0057100D03*
X0105980Y0056500D03*
D396*
X0105980Y0056580D03*
X0105980Y0056620D03*
X0105980Y0057060D03*
D397*
X0105980Y0057020D03*
X0105980Y0056980D03*
X0105980Y0056660D03*
D398*
X0105980Y0056700D03*
D399*
X0105980Y0056740D03*
X0105980Y0056780D03*
X0105980Y0056820D03*
X0105980Y0056940D03*
D400*
X0105980Y0056860D03*
D401*
X0105980Y0056900D03*
D402*
X0105980Y0057300D03*
D403*
X0105980Y0057460D03*
D404*
X0105980Y0057500D03*
D405*
X0105980Y0057540D03*
D406*
X0105980Y0057580D03*
D407*
X0105980Y0057620D03*
X0105980Y0057660D03*
D408*
X0105980Y0057700D03*
D409*
X0105980Y0057740D03*
X0105980Y0057780D03*
D410*
X0105980Y0057820D03*
D411*
X0105980Y0057860D03*
D412*
X0105980Y0057900D03*
D413*
X0105980Y0057940D03*
D414*
X0105980Y0057980D03*
X0105980Y0058020D03*
D415*
X0105980Y0058060D03*
D416*
X0105980Y0058100D03*
D417*
X0105980Y0058140D03*
X0105980Y0058860D03*
D418*
X0105980Y0058820D03*
X0105980Y0058180D03*
D419*
X0105980Y0058220D03*
X0105980Y0058780D03*
D420*
X0105980Y0058740D03*
X0105980Y0058260D03*
D421*
X0105980Y0058300D03*
D422*
X0105980Y0058340D03*
D423*
X0105980Y0058380D03*
X0105980Y0058420D03*
X0105980Y0058660D03*
D424*
X0105980Y0058620D03*
X0105980Y0058580D03*
X0105980Y0058460D03*
D425*
X0105980Y0058500D03*
D426*
X0105980Y0058540D03*
D427*
X0105980Y0058700D03*
D428*
X0105980Y0058900D03*
D429*
X0105980Y0059740D03*
X0105980Y0059780D03*
X0105980Y0059820D03*
X0105980Y0059860D03*
X0110220Y0058940D03*
X0101740Y0058940D03*
D430*
X0105980Y0058940D03*
D431*
X0110240Y0058980D03*
X0101720Y0058980D03*
D432*
X0105980Y0058980D03*
D433*
X0110240Y0059020D03*
X0101720Y0059020D03*
D434*
X0105980Y0059020D03*
D435*
X0101700Y0059060D03*
D436*
X0105980Y0059060D03*
D437*
X0105980Y0060540D03*
X0105980Y0060580D03*
X0105980Y0060620D03*
X0105980Y0060660D03*
X0105980Y0060740D03*
X0110260Y0059060D03*
D438*
X0110260Y0059100D03*
X0105980Y0060900D03*
X0101700Y0059100D03*
D439*
X0105980Y0059100D03*
D440*
X0105980Y0060980D03*
X0105980Y0061020D03*
X0105980Y0061060D03*
X0105980Y0061140D03*
X0101700Y0059140D03*
D441*
X0110280Y0059140D03*
D442*
X0110280Y0059180D03*
X0101680Y0059180D03*
D443*
X0101680Y0059220D03*
X0110280Y0059220D03*
D444*
X0110300Y0059260D03*
X0101660Y0059260D03*
D445*
X0101660Y0059300D03*
X0110300Y0059300D03*
D446*
X0105980Y0059300D03*
D447*
X0105980Y0059340D03*
D448*
X0105980Y0059380D03*
D449*
X0105980Y0059420D03*
D450*
X0105980Y0059460D03*
D451*
X0110360Y0059500D03*
X0101600Y0059500D03*
D452*
X0105980Y0059500D03*
D453*
X0105980Y0059540D03*
X0105980Y0059580D03*
X0105980Y0059620D03*
X0105980Y0059660D03*
D454*
X0105980Y0059700D03*
D455*
X0105980Y0059900D03*
X0105980Y0060100D03*
D456*
X0105980Y0060060D03*
X0105980Y0060020D03*
X0105980Y0059980D03*
X0105980Y0059940D03*
D457*
X0105980Y0060140D03*
X0105980Y0060180D03*
X0105980Y0060220D03*
X0105980Y0060260D03*
D458*
X0105980Y0060340D03*
X0105980Y0060380D03*
X0105980Y0060420D03*
X0105980Y0060460D03*
D459*
X0105980Y0060500D03*
D460*
X0105980Y0060700D03*
D461*
X0105980Y0060780D03*
X0105980Y0060820D03*
X0105980Y0060860D03*
X0105980Y0060940D03*
D462*
X0105980Y0061100D03*
D463*
X0105980Y0061300D03*
D464*
X0105980Y0061420D03*
M02*
