G75*
%MOIN*%
%OFA0B0*%
%FSLAX25Y25*%
%IPPOS*%
%LPD*%
%AMOC8*
5,1,8,0,0,1.08239X$1,22.5*
%
%ADD10R,0.03150X0.01969*%
%ADD11C,0.05543*%
%ADD12C,0.00000*%
%ADD13C,0.15811*%
%ADD14R,0.03150X0.03150*%
%ADD15C,0.00600*%
%ADD16C,0.01600*%
%ADD17C,0.02400*%
D10*
X0058257Y0121722D03*
X0058257Y0126644D03*
X0058257Y0131565D03*
X0058257Y0136486D03*
X0065343Y0136486D03*
X0065343Y0131565D03*
X0065343Y0126644D03*
X0065343Y0121722D03*
D11*
X0066800Y0056778D02*
X0066800Y0051234D01*
X0076800Y0051234D02*
X0076800Y0056778D01*
X0056800Y0056778D02*
X0056800Y0051234D01*
X0046800Y0051234D02*
X0046800Y0056778D01*
D12*
X0021800Y0019006D02*
X0021438Y0019010D01*
X0021075Y0019024D01*
X0020713Y0019045D01*
X0020352Y0019076D01*
X0019992Y0019115D01*
X0019633Y0019163D01*
X0019275Y0019220D01*
X0018918Y0019285D01*
X0018563Y0019359D01*
X0018210Y0019442D01*
X0017859Y0019533D01*
X0017511Y0019632D01*
X0017165Y0019740D01*
X0016821Y0019856D01*
X0016481Y0019981D01*
X0016144Y0020113D01*
X0015810Y0020254D01*
X0015479Y0020403D01*
X0015152Y0020560D01*
X0014829Y0020724D01*
X0014510Y0020896D01*
X0014196Y0021076D01*
X0013885Y0021264D01*
X0013580Y0021459D01*
X0013279Y0021661D01*
X0012983Y0021871D01*
X0012693Y0022087D01*
X0012407Y0022311D01*
X0012127Y0022541D01*
X0011853Y0022778D01*
X0011585Y0023022D01*
X0011322Y0023272D01*
X0011066Y0023528D01*
X0010816Y0023791D01*
X0010572Y0024059D01*
X0010335Y0024333D01*
X0010105Y0024613D01*
X0009881Y0024899D01*
X0009665Y0025189D01*
X0009455Y0025485D01*
X0009253Y0025786D01*
X0009058Y0026091D01*
X0008870Y0026402D01*
X0008690Y0026716D01*
X0008518Y0027035D01*
X0008354Y0027358D01*
X0008197Y0027685D01*
X0008048Y0028016D01*
X0007907Y0028350D01*
X0007775Y0028687D01*
X0007650Y0029027D01*
X0007534Y0029371D01*
X0007426Y0029717D01*
X0007327Y0030065D01*
X0007236Y0030416D01*
X0007153Y0030769D01*
X0007079Y0031124D01*
X0007014Y0031481D01*
X0006957Y0031839D01*
X0006909Y0032198D01*
X0006870Y0032558D01*
X0006839Y0032919D01*
X0006818Y0033281D01*
X0006804Y0033644D01*
X0006800Y0034006D01*
X0006800Y0119006D01*
X0006816Y0120345D01*
X0006865Y0121684D01*
X0006947Y0123021D01*
X0007061Y0124355D01*
X0007207Y0125687D01*
X0007386Y0127014D01*
X0007597Y0128337D01*
X0007841Y0129654D01*
X0008116Y0130965D01*
X0008423Y0132268D01*
X0008762Y0133564D01*
X0009132Y0134851D01*
X0009533Y0136129D01*
X0009966Y0137397D01*
X0010429Y0138654D01*
X0010923Y0139899D01*
X0011447Y0141132D01*
X0012000Y0142351D01*
X0012584Y0143557D01*
X0013196Y0144748D01*
X0013837Y0145924D01*
X0014507Y0147084D01*
X0015205Y0148227D01*
X0015930Y0149353D01*
X0016683Y0150461D01*
X0017462Y0151551D01*
X0018268Y0152621D01*
X0019099Y0153671D01*
X0019956Y0154700D01*
X0020838Y0155709D01*
X0021743Y0156695D01*
X0022673Y0157659D01*
X0023626Y0158601D01*
X0024601Y0159519D01*
X0025599Y0160412D01*
X0026618Y0161282D01*
X0027658Y0162126D01*
X0028718Y0162944D01*
X0029798Y0163737D01*
X0030896Y0164503D01*
X0032014Y0165242D01*
X0033148Y0165954D01*
X0034300Y0166637D01*
X0035468Y0167293D01*
X0036652Y0167920D01*
X0037850Y0168518D01*
X0039063Y0169086D01*
X0040289Y0169625D01*
X0041528Y0170134D01*
X0042779Y0170612D01*
X0044042Y0171060D01*
X0045314Y0171477D01*
X0046597Y0171863D01*
X0047889Y0172218D01*
X0049189Y0172541D01*
X0050496Y0172832D01*
X0051810Y0173091D01*
X0053130Y0173318D01*
X0054455Y0173513D01*
X0055785Y0173676D01*
X0057118Y0173806D01*
X0058453Y0173904D01*
X0059791Y0173969D01*
X0061130Y0174002D01*
X0062470Y0174002D01*
X0063809Y0173969D01*
X0065147Y0173904D01*
X0066482Y0173806D01*
X0067815Y0173676D01*
X0069145Y0173513D01*
X0070470Y0173318D01*
X0071790Y0173091D01*
X0073104Y0172832D01*
X0074411Y0172541D01*
X0075711Y0172218D01*
X0077003Y0171863D01*
X0078286Y0171477D01*
X0079558Y0171060D01*
X0080821Y0170612D01*
X0082072Y0170134D01*
X0083311Y0169625D01*
X0084537Y0169086D01*
X0085750Y0168518D01*
X0086948Y0167920D01*
X0088132Y0167293D01*
X0089300Y0166637D01*
X0090452Y0165954D01*
X0091586Y0165242D01*
X0092704Y0164503D01*
X0093802Y0163737D01*
X0094882Y0162944D01*
X0095942Y0162126D01*
X0096982Y0161282D01*
X0098001Y0160412D01*
X0098999Y0159519D01*
X0099974Y0158601D01*
X0100927Y0157659D01*
X0101857Y0156695D01*
X0102762Y0155709D01*
X0103644Y0154700D01*
X0104501Y0153671D01*
X0105332Y0152621D01*
X0106138Y0151551D01*
X0106917Y0150461D01*
X0107670Y0149353D01*
X0108395Y0148227D01*
X0109093Y0147084D01*
X0109763Y0145924D01*
X0110404Y0144748D01*
X0111016Y0143557D01*
X0111600Y0142351D01*
X0112153Y0141132D01*
X0112677Y0139899D01*
X0113171Y0138654D01*
X0113634Y0137397D01*
X0114067Y0136129D01*
X0114468Y0134851D01*
X0114838Y0133564D01*
X0115177Y0132268D01*
X0115484Y0130965D01*
X0115759Y0129654D01*
X0116003Y0128337D01*
X0116214Y0127014D01*
X0116393Y0125687D01*
X0116539Y0124355D01*
X0116653Y0123021D01*
X0116735Y0121684D01*
X0116784Y0120345D01*
X0116800Y0119006D01*
X0116800Y0034006D01*
X0116796Y0033644D01*
X0116782Y0033281D01*
X0116761Y0032919D01*
X0116730Y0032558D01*
X0116691Y0032198D01*
X0116643Y0031839D01*
X0116586Y0031481D01*
X0116521Y0031124D01*
X0116447Y0030769D01*
X0116364Y0030416D01*
X0116273Y0030065D01*
X0116174Y0029717D01*
X0116066Y0029371D01*
X0115950Y0029027D01*
X0115825Y0028687D01*
X0115693Y0028350D01*
X0115552Y0028016D01*
X0115403Y0027685D01*
X0115246Y0027358D01*
X0115082Y0027035D01*
X0114910Y0026716D01*
X0114730Y0026402D01*
X0114542Y0026091D01*
X0114347Y0025786D01*
X0114145Y0025485D01*
X0113935Y0025189D01*
X0113719Y0024899D01*
X0113495Y0024613D01*
X0113265Y0024333D01*
X0113028Y0024059D01*
X0112784Y0023791D01*
X0112534Y0023528D01*
X0112278Y0023272D01*
X0112015Y0023022D01*
X0111747Y0022778D01*
X0111473Y0022541D01*
X0111193Y0022311D01*
X0110907Y0022087D01*
X0110617Y0021871D01*
X0110321Y0021661D01*
X0110020Y0021459D01*
X0109715Y0021264D01*
X0109404Y0021076D01*
X0109090Y0020896D01*
X0108771Y0020724D01*
X0108448Y0020560D01*
X0108121Y0020403D01*
X0107790Y0020254D01*
X0107456Y0020113D01*
X0107119Y0019981D01*
X0106779Y0019856D01*
X0106435Y0019740D01*
X0106089Y0019632D01*
X0105741Y0019533D01*
X0105390Y0019442D01*
X0105037Y0019359D01*
X0104682Y0019285D01*
X0104325Y0019220D01*
X0103967Y0019163D01*
X0103608Y0019115D01*
X0103248Y0019076D01*
X0102887Y0019045D01*
X0102525Y0019024D01*
X0102162Y0019010D01*
X0101800Y0019006D01*
X0021800Y0019006D01*
D13*
X0021800Y0034006D03*
X0021800Y0119006D03*
X0101800Y0119006D03*
X0101800Y0034006D03*
D14*
X0074753Y0089006D03*
X0068847Y0089006D03*
X0068847Y0104006D03*
X0074753Y0104006D03*
X0054753Y0104006D03*
X0048847Y0104006D03*
X0048847Y0089006D03*
X0054753Y0089006D03*
D15*
X0054800Y0089206D01*
X0058400Y0089206D01*
X0059000Y0089806D01*
X0059600Y0089206D01*
X0059600Y0063406D01*
X0066800Y0056206D01*
X0066800Y0054006D01*
X0064400Y0044806D02*
X0079400Y0044806D01*
X0083600Y0049006D01*
X0083600Y0077806D01*
X0077600Y0083806D01*
X0070400Y0083806D01*
X0068600Y0085606D01*
X0068600Y0088606D01*
X0068847Y0089006D01*
X0074600Y0089206D02*
X0074753Y0089006D01*
X0074600Y0089206D02*
X0074600Y0093406D01*
X0068600Y0099406D01*
X0068600Y0103606D01*
X0068847Y0104006D01*
X0069200Y0104206D01*
X0069200Y0107206D01*
X0065600Y0110806D01*
X0065600Y0121606D01*
X0065343Y0121722D01*
X0065000Y0122206D01*
X0062000Y0122206D01*
X0061400Y0121606D01*
X0058400Y0121606D01*
X0058257Y0121722D01*
X0057800Y0122006D01*
X0055800Y0122006D01*
X0054800Y0123006D01*
X0054800Y0135006D01*
X0055800Y0136006D01*
X0056800Y0136006D01*
X0057600Y0136606D01*
X0057800Y0136606D01*
X0058257Y0136486D01*
X0059800Y0138806D02*
X0060800Y0137806D01*
X0060800Y0134806D01*
X0058400Y0132406D01*
X0059000Y0131806D01*
X0058400Y0131206D01*
X0058257Y0131565D01*
X0059800Y0138806D02*
X0056400Y0138806D01*
X0050800Y0133206D01*
X0050800Y0121006D01*
X0054800Y0117006D01*
X0054800Y0104206D01*
X0054753Y0104006D01*
X0048800Y0092806D02*
X0048800Y0089206D01*
X0048847Y0089006D01*
X0048800Y0088606D01*
X0048800Y0062006D01*
X0046800Y0060006D01*
X0046800Y0054006D01*
X0056800Y0054006D02*
X0057200Y0053806D01*
X0057200Y0052006D01*
X0064400Y0044806D01*
X0077600Y0083806D02*
X0080000Y0086206D01*
X0080000Y0121006D01*
X0069800Y0131206D01*
X0065600Y0131206D01*
X0065343Y0131565D01*
X0065343Y0136486D02*
X0065000Y0136606D01*
X0065000Y0139606D01*
X0061600Y0143006D01*
X0050800Y0143006D01*
X0043400Y0135606D01*
X0043400Y0098206D01*
X0048800Y0092806D01*
X0059000Y0089806D02*
X0068600Y0099406D01*
D16*
X0011328Y0025970D02*
X0013764Y0023534D01*
X0016749Y0021811D01*
X0016749Y0021811D01*
X0020077Y0020919D01*
X0021800Y0020806D01*
X0101800Y0020806D01*
X0103523Y0020919D01*
X0106851Y0021811D01*
X0109836Y0023534D01*
X0112272Y0025970D01*
X0113995Y0028954D01*
X0114887Y0032283D01*
X0115000Y0034006D01*
X0115000Y0119006D01*
X0114836Y0123180D01*
X0113530Y0131425D01*
X0110950Y0139365D01*
X0107160Y0146803D01*
X0102254Y0153557D01*
X0096351Y0159459D01*
X0089597Y0164366D01*
X0082159Y0168156D01*
X0074219Y0170736D01*
X0065974Y0172042D01*
X0057626Y0172042D01*
X0049381Y0170736D01*
X0041441Y0168156D01*
X0034003Y0164366D01*
X0027249Y0159459D01*
X0021346Y0153557D01*
X0016440Y0146803D01*
X0012650Y0139365D01*
X0010070Y0131425D01*
X0008764Y0123180D01*
X0008600Y0119006D01*
X0008600Y0034006D01*
X0008713Y0032283D01*
X0009605Y0028954D01*
X0011328Y0025970D01*
X0011898Y0025400D02*
X0018260Y0025400D01*
X0019949Y0024700D02*
X0016529Y0026117D01*
X0013911Y0028735D01*
X0012494Y0032155D01*
X0012494Y0035857D01*
X0013911Y0039277D01*
X0016529Y0041895D01*
X0019949Y0043311D01*
X0023651Y0043311D01*
X0027071Y0041895D01*
X0029689Y0039277D01*
X0031105Y0035857D01*
X0031105Y0032155D01*
X0029689Y0028735D01*
X0027071Y0026117D01*
X0023651Y0024700D01*
X0019949Y0024700D01*
X0016069Y0022203D02*
X0107531Y0022203D01*
X0105340Y0025400D02*
X0111702Y0025400D01*
X0112866Y0026998D02*
X0107953Y0026998D01*
X0107071Y0026117D02*
X0109689Y0028735D01*
X0111105Y0032155D01*
X0111105Y0035857D01*
X0109689Y0039277D01*
X0107071Y0041895D01*
X0103651Y0043311D01*
X0099949Y0043311D01*
X0096529Y0041895D01*
X0093911Y0039277D01*
X0092494Y0035857D01*
X0092494Y0032155D01*
X0093911Y0028735D01*
X0096529Y0026117D01*
X0099949Y0024700D01*
X0103651Y0024700D01*
X0107071Y0026117D01*
X0109551Y0028597D02*
X0113789Y0028597D01*
X0114328Y0030195D02*
X0110294Y0030195D01*
X0110956Y0031794D02*
X0114756Y0031794D01*
X0114960Y0033393D02*
X0111105Y0033393D01*
X0111105Y0034991D02*
X0115000Y0034991D01*
X0115000Y0036590D02*
X0110802Y0036590D01*
X0110140Y0038188D02*
X0115000Y0038188D01*
X0115000Y0039787D02*
X0109179Y0039787D01*
X0107581Y0041385D02*
X0115000Y0041385D01*
X0115000Y0042984D02*
X0104442Y0042984D01*
X0099158Y0042984D02*
X0024442Y0042984D01*
X0027581Y0041385D02*
X0096019Y0041385D01*
X0094421Y0039787D02*
X0029179Y0039787D01*
X0030140Y0038188D02*
X0093460Y0038188D01*
X0092798Y0036590D02*
X0030802Y0036590D01*
X0031105Y0034991D02*
X0092494Y0034991D01*
X0092494Y0033393D02*
X0031105Y0033393D01*
X0030956Y0031794D02*
X0092644Y0031794D01*
X0093306Y0030195D02*
X0030294Y0030195D01*
X0029551Y0028597D02*
X0094049Y0028597D01*
X0095647Y0026998D02*
X0027953Y0026998D01*
X0025340Y0025400D02*
X0098260Y0025400D01*
X0110103Y0023801D02*
X0013497Y0023801D01*
X0015647Y0026998D02*
X0010734Y0026998D01*
X0009811Y0028597D02*
X0014049Y0028597D01*
X0013306Y0030195D02*
X0009272Y0030195D01*
X0008844Y0031794D02*
X0012644Y0031794D01*
X0012494Y0033393D02*
X0008640Y0033393D01*
X0008600Y0034991D02*
X0012494Y0034991D01*
X0012798Y0036590D02*
X0008600Y0036590D01*
X0008600Y0038188D02*
X0013460Y0038188D01*
X0014421Y0039787D02*
X0008600Y0039787D01*
X0008600Y0041385D02*
X0016019Y0041385D01*
X0019158Y0042984D02*
X0008600Y0042984D01*
X0008600Y0044582D02*
X0062220Y0044582D01*
X0062700Y0044102D02*
X0063696Y0043106D01*
X0080104Y0043106D01*
X0081100Y0044102D01*
X0084304Y0047306D01*
X0084304Y0047306D01*
X0085300Y0048302D01*
X0085300Y0078510D01*
X0080004Y0083806D01*
X0081700Y0085502D01*
X0081700Y0121710D01*
X0080704Y0122706D01*
X0070504Y0132906D01*
X0068318Y0132906D01*
X0068318Y0133129D01*
X0067498Y0133949D01*
X0063189Y0133949D01*
X0062369Y0133129D01*
X0062369Y0130001D01*
X0063189Y0129181D01*
X0067498Y0129181D01*
X0067823Y0129506D01*
X0069096Y0129506D01*
X0078300Y0120302D01*
X0078300Y0086910D01*
X0076896Y0085506D01*
X0071104Y0085506D01*
X0070579Y0086031D01*
X0071002Y0086031D01*
X0071800Y0086829D01*
X0072598Y0086031D01*
X0076907Y0086031D01*
X0077728Y0086851D01*
X0077728Y0091161D01*
X0076907Y0091981D01*
X0076300Y0091981D01*
X0076300Y0094110D01*
X0070300Y0100110D01*
X0070300Y0101031D01*
X0071002Y0101031D01*
X0071576Y0101605D01*
X0071738Y0101326D01*
X0072073Y0100991D01*
X0072483Y0100754D01*
X0072941Y0100631D01*
X0074753Y0100631D01*
X0076565Y0100631D01*
X0077022Y0100754D01*
X0077433Y0100991D01*
X0077768Y0101326D01*
X0078005Y0101736D01*
X0078128Y0102194D01*
X0078128Y0104006D01*
X0078128Y0105818D01*
X0078005Y0106275D01*
X0077768Y0106686D01*
X0077433Y0107021D01*
X0077022Y0107258D01*
X0076565Y0107381D01*
X0074753Y0107381D01*
X0074753Y0104006D01*
X0078128Y0104006D01*
X0074753Y0104006D01*
X0074753Y0104006D01*
X0074753Y0104006D01*
X0074753Y0100631D01*
X0074753Y0104006D01*
X0074753Y0104006D01*
X0074753Y0107381D01*
X0072941Y0107381D01*
X0072483Y0107258D01*
X0072073Y0107021D01*
X0071738Y0106686D01*
X0071576Y0106406D01*
X0071002Y0106981D01*
X0070900Y0106981D01*
X0070900Y0107910D01*
X0069904Y0108906D01*
X0067300Y0111510D01*
X0067300Y0119338D01*
X0067498Y0119338D01*
X0068318Y0120158D01*
X0068318Y0123287D01*
X0067498Y0124107D01*
X0063189Y0124107D01*
X0062988Y0123906D01*
X0061296Y0123906D01*
X0060954Y0123564D01*
X0060532Y0123986D01*
X0060937Y0124219D01*
X0061272Y0124554D01*
X0061509Y0124965D01*
X0061631Y0125422D01*
X0061631Y0126644D01*
X0061631Y0127865D01*
X0061509Y0128323D01*
X0061272Y0128733D01*
X0060937Y0129068D01*
X0060532Y0129302D01*
X0061231Y0130001D01*
X0061231Y0132833D01*
X0062500Y0134102D01*
X0062500Y0134791D01*
X0063189Y0134102D01*
X0067498Y0134102D01*
X0068318Y0134922D01*
X0068318Y0138050D01*
X0067498Y0138870D01*
X0066700Y0138870D01*
X0066700Y0140310D01*
X0063300Y0143710D01*
X0062304Y0144706D01*
X0050096Y0144706D01*
X0042696Y0137306D01*
X0041700Y0136310D01*
X0041700Y0097502D01*
X0047100Y0092102D01*
X0047100Y0091981D01*
X0046693Y0091981D01*
X0045872Y0091161D01*
X0045872Y0086851D01*
X0046693Y0086031D01*
X0047100Y0086031D01*
X0047100Y0062710D01*
X0046096Y0061706D01*
X0045100Y0060710D01*
X0045100Y0060589D01*
X0044437Y0060314D01*
X0043263Y0059141D01*
X0042628Y0057607D01*
X0042628Y0050404D01*
X0043263Y0048871D01*
X0044437Y0047698D01*
X0045970Y0047063D01*
X0047630Y0047063D01*
X0049163Y0047698D01*
X0050337Y0048871D01*
X0050972Y0050404D01*
X0050972Y0057607D01*
X0050337Y0059141D01*
X0049338Y0060139D01*
X0050500Y0061302D01*
X0050500Y0086031D01*
X0051002Y0086031D01*
X0051800Y0086829D01*
X0052598Y0086031D01*
X0056907Y0086031D01*
X0057728Y0086851D01*
X0057728Y0087506D01*
X0057900Y0087506D01*
X0057900Y0062702D01*
X0058896Y0061706D01*
X0062736Y0057866D01*
X0062628Y0057607D01*
X0062628Y0050404D01*
X0063263Y0048871D01*
X0064437Y0047698D01*
X0065970Y0047063D01*
X0067630Y0047063D01*
X0069163Y0047698D01*
X0070337Y0048871D01*
X0070972Y0050404D01*
X0070972Y0057607D01*
X0070337Y0059141D01*
X0069163Y0060314D01*
X0067630Y0060949D01*
X0065970Y0060949D01*
X0064903Y0060507D01*
X0061300Y0064110D01*
X0061300Y0089702D01*
X0068600Y0097002D01*
X0072900Y0092702D01*
X0072900Y0091981D01*
X0072598Y0091981D01*
X0071800Y0091183D01*
X0071002Y0091981D01*
X0066693Y0091981D01*
X0065872Y0091161D01*
X0065872Y0086851D01*
X0066693Y0086031D01*
X0066900Y0086031D01*
X0066900Y0084902D01*
X0067896Y0083906D01*
X0069696Y0082106D01*
X0076896Y0082106D01*
X0081900Y0077102D01*
X0081900Y0049710D01*
X0078696Y0046506D01*
X0065104Y0046506D01*
X0060972Y0050638D01*
X0060972Y0057607D01*
X0060337Y0059141D01*
X0059163Y0060314D01*
X0057630Y0060949D01*
X0055970Y0060949D01*
X0054437Y0060314D01*
X0053263Y0059141D01*
X0052628Y0057607D01*
X0052628Y0050404D01*
X0053263Y0048871D01*
X0054437Y0047698D01*
X0055970Y0047063D01*
X0057630Y0047063D01*
X0059121Y0047680D01*
X0062700Y0044102D01*
X0060621Y0046181D02*
X0008600Y0046181D01*
X0008600Y0047779D02*
X0044356Y0047779D01*
X0043054Y0049378D02*
X0008600Y0049378D01*
X0008600Y0050976D02*
X0042628Y0050976D01*
X0042628Y0052575D02*
X0008600Y0052575D01*
X0008600Y0054173D02*
X0042628Y0054173D01*
X0042628Y0055772D02*
X0008600Y0055772D01*
X0008600Y0057370D02*
X0042628Y0057370D01*
X0043192Y0058969D02*
X0008600Y0058969D01*
X0008600Y0060567D02*
X0045048Y0060567D01*
X0046556Y0062166D02*
X0008600Y0062166D01*
X0008600Y0063764D02*
X0047100Y0063764D01*
X0047100Y0065363D02*
X0008600Y0065363D01*
X0008600Y0066961D02*
X0047100Y0066961D01*
X0047100Y0068560D02*
X0008600Y0068560D01*
X0008600Y0070158D02*
X0047100Y0070158D01*
X0047100Y0071757D02*
X0008600Y0071757D01*
X0008600Y0073355D02*
X0047100Y0073355D01*
X0047100Y0074954D02*
X0008600Y0074954D01*
X0008600Y0076552D02*
X0047100Y0076552D01*
X0047100Y0078151D02*
X0008600Y0078151D01*
X0008600Y0079749D02*
X0047100Y0079749D01*
X0047100Y0081348D02*
X0008600Y0081348D01*
X0008600Y0082946D02*
X0047100Y0082946D01*
X0047100Y0084545D02*
X0008600Y0084545D01*
X0008600Y0086143D02*
X0046580Y0086143D01*
X0045872Y0087742D02*
X0008600Y0087742D01*
X0008600Y0089340D02*
X0045872Y0089340D01*
X0045872Y0090939D02*
X0008600Y0090939D01*
X0008600Y0092537D02*
X0046664Y0092537D01*
X0045066Y0094136D02*
X0008600Y0094136D01*
X0008600Y0095734D02*
X0043467Y0095734D01*
X0041869Y0097333D02*
X0008600Y0097333D01*
X0008600Y0098931D02*
X0041700Y0098931D01*
X0041700Y0100530D02*
X0008600Y0100530D01*
X0008600Y0102128D02*
X0041700Y0102128D01*
X0041700Y0103727D02*
X0008600Y0103727D01*
X0008600Y0105326D02*
X0041700Y0105326D01*
X0041700Y0106924D02*
X0008600Y0106924D01*
X0008600Y0108523D02*
X0041700Y0108523D01*
X0041700Y0110121D02*
X0024667Y0110121D01*
X0023651Y0109700D02*
X0027071Y0111117D01*
X0029689Y0113735D01*
X0031105Y0117155D01*
X0031105Y0120857D01*
X0029689Y0124277D01*
X0027071Y0126895D01*
X0023651Y0128311D01*
X0019949Y0128311D01*
X0016529Y0126895D01*
X0013911Y0124277D01*
X0012494Y0120857D01*
X0012494Y0117155D01*
X0013911Y0113735D01*
X0016529Y0111117D01*
X0019949Y0109700D01*
X0023651Y0109700D01*
X0027674Y0111720D02*
X0041700Y0111720D01*
X0041700Y0113318D02*
X0029272Y0113318D01*
X0030178Y0114917D02*
X0041700Y0114917D01*
X0041700Y0116515D02*
X0030840Y0116515D01*
X0031105Y0118114D02*
X0041700Y0118114D01*
X0041700Y0119712D02*
X0031105Y0119712D01*
X0030918Y0121311D02*
X0041700Y0121311D01*
X0041700Y0122909D02*
X0030255Y0122909D01*
X0029458Y0124508D02*
X0041700Y0124508D01*
X0041700Y0126106D02*
X0027860Y0126106D01*
X0025116Y0127705D02*
X0041700Y0127705D01*
X0041700Y0129303D02*
X0009734Y0129303D01*
X0009481Y0127705D02*
X0018484Y0127705D01*
X0015740Y0126106D02*
X0009227Y0126106D01*
X0008974Y0124508D02*
X0014142Y0124508D01*
X0013345Y0122909D02*
X0008753Y0122909D01*
X0008691Y0121311D02*
X0012682Y0121311D01*
X0012494Y0119712D02*
X0008628Y0119712D01*
X0008600Y0118114D02*
X0012494Y0118114D01*
X0012759Y0116515D02*
X0008600Y0116515D01*
X0008600Y0114917D02*
X0013422Y0114917D01*
X0014328Y0113318D02*
X0008600Y0113318D01*
X0008600Y0111720D02*
X0015926Y0111720D01*
X0018933Y0110121D02*
X0008600Y0110121D01*
X0009987Y0130902D02*
X0041700Y0130902D01*
X0041700Y0132500D02*
X0010419Y0132500D01*
X0010939Y0134099D02*
X0041700Y0134099D01*
X0041700Y0135697D02*
X0011458Y0135697D01*
X0011977Y0137296D02*
X0042686Y0137296D01*
X0044284Y0138894D02*
X0012497Y0138894D01*
X0013224Y0140493D02*
X0045883Y0140493D01*
X0047481Y0142091D02*
X0014039Y0142091D01*
X0014853Y0143690D02*
X0049080Y0143690D01*
X0051504Y0141306D02*
X0060896Y0141306D01*
X0063300Y0138902D01*
X0063300Y0138870D01*
X0063189Y0138870D01*
X0062500Y0138182D01*
X0062500Y0138510D01*
X0061504Y0139506D01*
X0060504Y0140506D01*
X0055696Y0140506D01*
X0054700Y0139510D01*
X0049100Y0133910D01*
X0049100Y0120302D01*
X0050096Y0119306D01*
X0053100Y0116302D01*
X0053100Y0106981D01*
X0052598Y0106981D01*
X0052024Y0106406D01*
X0051862Y0106686D01*
X0051527Y0107021D01*
X0051117Y0107258D01*
X0050659Y0107381D01*
X0048847Y0107381D01*
X0047035Y0107381D01*
X0046578Y0107258D01*
X0046167Y0107021D01*
X0045832Y0106686D01*
X0045595Y0106275D01*
X0045472Y0105818D01*
X0045472Y0104006D01*
X0048847Y0104006D01*
X0048847Y0104006D01*
X0048847Y0107381D01*
X0048847Y0104006D01*
X0048847Y0104006D01*
X0045472Y0104006D01*
X0045472Y0102194D01*
X0045595Y0101736D01*
X0045832Y0101326D01*
X0046167Y0100991D01*
X0046578Y0100754D01*
X0047035Y0100631D01*
X0048847Y0100631D01*
X0048847Y0104006D01*
X0048847Y0104006D01*
X0048847Y0100631D01*
X0050659Y0100631D01*
X0051117Y0100754D01*
X0051527Y0100991D01*
X0051862Y0101326D01*
X0052024Y0101605D01*
X0052598Y0101031D01*
X0056907Y0101031D01*
X0057728Y0101851D01*
X0057728Y0106161D01*
X0056907Y0106981D01*
X0056500Y0106981D01*
X0056500Y0117710D01*
X0052500Y0121710D01*
X0052500Y0132502D01*
X0053100Y0133102D01*
X0053100Y0122302D01*
X0054100Y0121302D01*
X0055096Y0120306D01*
X0055282Y0120306D01*
X0055282Y0120158D01*
X0056102Y0119338D01*
X0060411Y0119338D01*
X0060979Y0119906D01*
X0062104Y0119906D01*
X0062369Y0120170D01*
X0062369Y0120158D01*
X0063189Y0119338D01*
X0063900Y0119338D01*
X0063900Y0110102D01*
X0067021Y0106981D01*
X0066693Y0106981D01*
X0065872Y0106161D01*
X0065872Y0101851D01*
X0066693Y0101031D01*
X0066900Y0101031D01*
X0066900Y0100110D01*
X0058296Y0091506D01*
X0058296Y0091506D01*
X0057728Y0090938D01*
X0057728Y0091161D01*
X0056907Y0091981D01*
X0052598Y0091981D01*
X0051800Y0091183D01*
X0051002Y0091981D01*
X0050500Y0091981D01*
X0050500Y0093510D01*
X0049504Y0094506D01*
X0045100Y0098910D01*
X0045100Y0134902D01*
X0051504Y0141306D01*
X0050691Y0140493D02*
X0055683Y0140493D01*
X0054084Y0138894D02*
X0049093Y0138894D01*
X0047494Y0137296D02*
X0052486Y0137296D01*
X0050887Y0135697D02*
X0045895Y0135697D01*
X0045100Y0134099D02*
X0049289Y0134099D01*
X0049100Y0132500D02*
X0045100Y0132500D01*
X0045100Y0130902D02*
X0049100Y0130902D01*
X0049100Y0129303D02*
X0045100Y0129303D01*
X0045100Y0127705D02*
X0049100Y0127705D01*
X0049100Y0126106D02*
X0045100Y0126106D01*
X0045100Y0124508D02*
X0049100Y0124508D01*
X0049100Y0122909D02*
X0045100Y0122909D01*
X0045100Y0121311D02*
X0049100Y0121311D01*
X0049690Y0119712D02*
X0045100Y0119712D01*
X0045100Y0118114D02*
X0051288Y0118114D01*
X0050096Y0119306D02*
X0050096Y0119306D01*
X0052899Y0121311D02*
X0054091Y0121311D01*
X0054498Y0119712D02*
X0055728Y0119712D01*
X0056096Y0118114D02*
X0063900Y0118114D01*
X0063900Y0116515D02*
X0056500Y0116515D01*
X0056500Y0114917D02*
X0063900Y0114917D01*
X0063900Y0113318D02*
X0056500Y0113318D01*
X0056500Y0111720D02*
X0063900Y0111720D01*
X0063900Y0110121D02*
X0056500Y0110121D01*
X0056500Y0108523D02*
X0065479Y0108523D01*
X0066636Y0106924D02*
X0056964Y0106924D01*
X0057728Y0105326D02*
X0065872Y0105326D01*
X0065872Y0103727D02*
X0057728Y0103727D01*
X0057728Y0102128D02*
X0065872Y0102128D01*
X0066900Y0100530D02*
X0045100Y0100530D01*
X0045100Y0102128D02*
X0045490Y0102128D01*
X0045472Y0103727D02*
X0045100Y0103727D01*
X0045100Y0105326D02*
X0045472Y0105326D01*
X0045100Y0106924D02*
X0046070Y0106924D01*
X0045100Y0108523D02*
X0053100Y0108523D01*
X0053100Y0110121D02*
X0045100Y0110121D01*
X0045100Y0111720D02*
X0053100Y0111720D01*
X0053100Y0113318D02*
X0045100Y0113318D01*
X0045100Y0114917D02*
X0053100Y0114917D01*
X0052887Y0116515D02*
X0045100Y0116515D01*
X0048847Y0106924D02*
X0048847Y0106924D01*
X0048847Y0105326D02*
X0048847Y0105326D01*
X0048847Y0103727D02*
X0048847Y0103727D01*
X0048847Y0102128D02*
X0048847Y0102128D01*
X0045100Y0098931D02*
X0065721Y0098931D01*
X0064123Y0097333D02*
X0046677Y0097333D01*
X0048276Y0095734D02*
X0062524Y0095734D01*
X0060926Y0094136D02*
X0049874Y0094136D01*
X0050500Y0092537D02*
X0059327Y0092537D01*
X0057729Y0090939D02*
X0057728Y0090939D01*
X0061300Y0089340D02*
X0065872Y0089340D01*
X0065872Y0087742D02*
X0061300Y0087742D01*
X0061300Y0086143D02*
X0066580Y0086143D01*
X0067257Y0084545D02*
X0061300Y0084545D01*
X0061300Y0082946D02*
X0068855Y0082946D01*
X0071114Y0086143D02*
X0072486Y0086143D01*
X0077020Y0086143D02*
X0077533Y0086143D01*
X0077728Y0087742D02*
X0078300Y0087742D01*
X0078300Y0089340D02*
X0077728Y0089340D01*
X0077728Y0090939D02*
X0078300Y0090939D01*
X0078300Y0092537D02*
X0076300Y0092537D01*
X0076274Y0094136D02*
X0078300Y0094136D01*
X0078300Y0095734D02*
X0074676Y0095734D01*
X0073077Y0097333D02*
X0078300Y0097333D01*
X0078300Y0098931D02*
X0071479Y0098931D01*
X0070300Y0100530D02*
X0078300Y0100530D01*
X0078300Y0102128D02*
X0078110Y0102128D01*
X0078128Y0103727D02*
X0078300Y0103727D01*
X0078300Y0105326D02*
X0078128Y0105326D01*
X0078300Y0106924D02*
X0077530Y0106924D01*
X0078300Y0108523D02*
X0070288Y0108523D01*
X0071059Y0106924D02*
X0071976Y0106924D01*
X0074753Y0106924D02*
X0074753Y0106924D01*
X0074753Y0105326D02*
X0074753Y0105326D01*
X0074753Y0103727D02*
X0074753Y0103727D01*
X0074753Y0102128D02*
X0074753Y0102128D01*
X0069867Y0095734D02*
X0067333Y0095734D01*
X0065734Y0094136D02*
X0071466Y0094136D01*
X0072900Y0092537D02*
X0064136Y0092537D01*
X0062537Y0090939D02*
X0065872Y0090939D01*
X0061300Y0081348D02*
X0077654Y0081348D01*
X0079252Y0079749D02*
X0061300Y0079749D01*
X0061300Y0078151D02*
X0080851Y0078151D01*
X0081900Y0076552D02*
X0061300Y0076552D01*
X0061300Y0074954D02*
X0081900Y0074954D01*
X0081900Y0073355D02*
X0061300Y0073355D01*
X0061300Y0071757D02*
X0081900Y0071757D01*
X0081900Y0070158D02*
X0061300Y0070158D01*
X0061300Y0068560D02*
X0081900Y0068560D01*
X0081900Y0066961D02*
X0061300Y0066961D01*
X0061300Y0065363D02*
X0081900Y0065363D01*
X0081900Y0063764D02*
X0061646Y0063764D01*
X0063244Y0062166D02*
X0081900Y0062166D01*
X0081900Y0060567D02*
X0079362Y0060567D01*
X0079196Y0060688D02*
X0078555Y0061014D01*
X0077871Y0061237D01*
X0077160Y0061349D01*
X0076886Y0061349D01*
X0076886Y0054092D01*
X0076714Y0054092D01*
X0076714Y0061349D01*
X0076440Y0061349D01*
X0075729Y0061237D01*
X0075045Y0061014D01*
X0074404Y0060688D01*
X0073822Y0060265D01*
X0073313Y0059756D01*
X0072890Y0059174D01*
X0072563Y0058532D01*
X0072341Y0057848D01*
X0072228Y0057137D01*
X0072228Y0054092D01*
X0076714Y0054092D01*
X0076714Y0053920D01*
X0072228Y0053920D01*
X0072228Y0050874D01*
X0072341Y0050164D01*
X0072563Y0049479D01*
X0072890Y0048838D01*
X0073313Y0048256D01*
X0073822Y0047747D01*
X0074404Y0047324D01*
X0075045Y0046998D01*
X0075729Y0046775D01*
X0076440Y0046663D01*
X0076714Y0046663D01*
X0076714Y0053920D01*
X0076886Y0053920D01*
X0076886Y0054092D01*
X0081372Y0054092D01*
X0081372Y0057137D01*
X0081259Y0057848D01*
X0081037Y0058532D01*
X0080710Y0059174D01*
X0080287Y0059756D01*
X0079778Y0060265D01*
X0079196Y0060688D01*
X0080814Y0058969D02*
X0081900Y0058969D01*
X0081900Y0057370D02*
X0081335Y0057370D01*
X0081372Y0055772D02*
X0081900Y0055772D01*
X0081900Y0054173D02*
X0081372Y0054173D01*
X0081372Y0053920D02*
X0076886Y0053920D01*
X0076886Y0046663D01*
X0077160Y0046663D01*
X0077871Y0046775D01*
X0078555Y0046998D01*
X0079196Y0047324D01*
X0079778Y0047747D01*
X0080287Y0048256D01*
X0080710Y0048838D01*
X0081037Y0049479D01*
X0081259Y0050164D01*
X0081372Y0050874D01*
X0081372Y0053920D01*
X0081372Y0052575D02*
X0081900Y0052575D01*
X0081900Y0050976D02*
X0081372Y0050976D01*
X0081568Y0049378D02*
X0080985Y0049378D01*
X0079969Y0047779D02*
X0079810Y0047779D01*
X0076886Y0047779D02*
X0076714Y0047779D01*
X0076714Y0049378D02*
X0076886Y0049378D01*
X0076886Y0050976D02*
X0076714Y0050976D01*
X0076714Y0052575D02*
X0076886Y0052575D01*
X0076886Y0054173D02*
X0076714Y0054173D01*
X0076714Y0055772D02*
X0076886Y0055772D01*
X0076886Y0057370D02*
X0076714Y0057370D01*
X0076714Y0058969D02*
X0076886Y0058969D01*
X0076886Y0060567D02*
X0076714Y0060567D01*
X0074238Y0060567D02*
X0068552Y0060567D01*
X0070408Y0058969D02*
X0072786Y0058969D01*
X0072265Y0057370D02*
X0070972Y0057370D01*
X0070972Y0055772D02*
X0072228Y0055772D01*
X0072228Y0054173D02*
X0070972Y0054173D01*
X0070972Y0052575D02*
X0072228Y0052575D01*
X0072228Y0050976D02*
X0070972Y0050976D01*
X0070546Y0049378D02*
X0072615Y0049378D01*
X0073790Y0047779D02*
X0069244Y0047779D01*
X0064356Y0047779D02*
X0063831Y0047779D01*
X0063054Y0049378D02*
X0062232Y0049378D01*
X0062628Y0050976D02*
X0060972Y0050976D01*
X0060972Y0052575D02*
X0062628Y0052575D01*
X0062628Y0054173D02*
X0060972Y0054173D01*
X0060972Y0055772D02*
X0062628Y0055772D01*
X0062628Y0057370D02*
X0060972Y0057370D01*
X0060408Y0058969D02*
X0061633Y0058969D01*
X0060035Y0060567D02*
X0058552Y0060567D01*
X0058436Y0062166D02*
X0050500Y0062166D01*
X0050500Y0063764D02*
X0057900Y0063764D01*
X0057900Y0065363D02*
X0050500Y0065363D01*
X0050500Y0066961D02*
X0057900Y0066961D01*
X0057900Y0068560D02*
X0050500Y0068560D01*
X0050500Y0070158D02*
X0057900Y0070158D01*
X0057900Y0071757D02*
X0050500Y0071757D01*
X0050500Y0073355D02*
X0057900Y0073355D01*
X0057900Y0074954D02*
X0050500Y0074954D01*
X0050500Y0076552D02*
X0057900Y0076552D01*
X0057900Y0078151D02*
X0050500Y0078151D01*
X0050500Y0079749D02*
X0057900Y0079749D01*
X0057900Y0081348D02*
X0050500Y0081348D01*
X0050500Y0082946D02*
X0057900Y0082946D01*
X0057900Y0084545D02*
X0050500Y0084545D01*
X0051114Y0086143D02*
X0052486Y0086143D01*
X0057020Y0086143D02*
X0057900Y0086143D01*
X0052541Y0106924D02*
X0051624Y0106924D01*
X0060785Y0119712D02*
X0062815Y0119712D01*
X0063189Y0124259D02*
X0067498Y0124259D01*
X0068318Y0125080D01*
X0068318Y0128208D01*
X0067498Y0129028D01*
X0063189Y0129028D01*
X0062369Y0128208D01*
X0062369Y0125080D01*
X0063189Y0124259D01*
X0062940Y0124508D02*
X0061225Y0124508D01*
X0061631Y0126106D02*
X0062369Y0126106D01*
X0061631Y0126644D02*
X0058257Y0126644D01*
X0061631Y0126644D01*
X0061631Y0127705D02*
X0062369Y0127705D01*
X0063066Y0129303D02*
X0060534Y0129303D01*
X0061231Y0130902D02*
X0062369Y0130902D01*
X0062369Y0132500D02*
X0061231Y0132500D01*
X0062497Y0134099D02*
X0112661Y0134099D01*
X0112142Y0135697D02*
X0068318Y0135697D01*
X0068318Y0137296D02*
X0111623Y0137296D01*
X0111103Y0138894D02*
X0066700Y0138894D01*
X0066517Y0140493D02*
X0110376Y0140493D01*
X0109561Y0142091D02*
X0064919Y0142091D01*
X0063320Y0143690D02*
X0108747Y0143690D01*
X0107932Y0145288D02*
X0015668Y0145288D01*
X0016501Y0146887D02*
X0107099Y0146887D01*
X0105938Y0148485D02*
X0017662Y0148485D01*
X0018823Y0150084D02*
X0104777Y0150084D01*
X0103615Y0151682D02*
X0019985Y0151682D01*
X0021146Y0153281D02*
X0102454Y0153281D01*
X0100931Y0154879D02*
X0022669Y0154879D01*
X0024268Y0156478D02*
X0099332Y0156478D01*
X0097734Y0158076D02*
X0025866Y0158076D01*
X0027546Y0159675D02*
X0096054Y0159675D01*
X0093854Y0161273D02*
X0029746Y0161273D01*
X0031946Y0162872D02*
X0091654Y0162872D01*
X0089393Y0164470D02*
X0034207Y0164470D01*
X0037345Y0166069D02*
X0086255Y0166069D01*
X0083118Y0167667D02*
X0040482Y0167667D01*
X0044856Y0169266D02*
X0078744Y0169266D01*
X0073408Y0170864D02*
X0050192Y0170864D01*
X0060517Y0140493D02*
X0061709Y0140493D01*
X0062116Y0138894D02*
X0063300Y0138894D01*
X0067620Y0129303D02*
X0069299Y0129303D01*
X0068318Y0127705D02*
X0070897Y0127705D01*
X0072496Y0126106D02*
X0068318Y0126106D01*
X0067746Y0124508D02*
X0074094Y0124508D01*
X0075693Y0122909D02*
X0068318Y0122909D01*
X0068318Y0121311D02*
X0077291Y0121311D01*
X0078300Y0119712D02*
X0067872Y0119712D01*
X0067300Y0118114D02*
X0078300Y0118114D01*
X0078300Y0116515D02*
X0067300Y0116515D01*
X0067300Y0114917D02*
X0078300Y0114917D01*
X0078300Y0113318D02*
X0067300Y0113318D01*
X0067300Y0111720D02*
X0078300Y0111720D01*
X0078300Y0110121D02*
X0068689Y0110121D01*
X0078902Y0124508D02*
X0094142Y0124508D01*
X0093911Y0124277D02*
X0092494Y0120857D01*
X0092494Y0117155D01*
X0093911Y0113735D01*
X0096529Y0111117D01*
X0099949Y0109700D01*
X0103651Y0109700D01*
X0107071Y0111117D01*
X0109689Y0113735D01*
X0111105Y0117155D01*
X0111105Y0120857D01*
X0109689Y0124277D01*
X0107071Y0126895D01*
X0103651Y0128311D01*
X0099949Y0128311D01*
X0096529Y0126895D01*
X0093911Y0124277D01*
X0093345Y0122909D02*
X0080501Y0122909D01*
X0081700Y0121311D02*
X0092682Y0121311D01*
X0092494Y0119712D02*
X0081700Y0119712D01*
X0081700Y0118114D02*
X0092494Y0118114D01*
X0092759Y0116515D02*
X0081700Y0116515D01*
X0081700Y0114917D02*
X0093422Y0114917D01*
X0094328Y0113318D02*
X0081700Y0113318D01*
X0081700Y0111720D02*
X0095926Y0111720D01*
X0098933Y0110121D02*
X0081700Y0110121D01*
X0081700Y0108523D02*
X0115000Y0108523D01*
X0115000Y0110121D02*
X0104667Y0110121D01*
X0107674Y0111720D02*
X0115000Y0111720D01*
X0115000Y0113318D02*
X0109272Y0113318D01*
X0110178Y0114917D02*
X0115000Y0114917D01*
X0115000Y0116515D02*
X0110840Y0116515D01*
X0111105Y0118114D02*
X0115000Y0118114D01*
X0114972Y0119712D02*
X0111105Y0119712D01*
X0110918Y0121311D02*
X0114909Y0121311D01*
X0114847Y0122909D02*
X0110255Y0122909D01*
X0109458Y0124508D02*
X0114626Y0124508D01*
X0114373Y0126106D02*
X0107860Y0126106D01*
X0105116Y0127705D02*
X0114119Y0127705D01*
X0113866Y0129303D02*
X0074107Y0129303D01*
X0072508Y0130902D02*
X0113613Y0130902D01*
X0113181Y0132500D02*
X0070910Y0132500D01*
X0075705Y0127705D02*
X0098484Y0127705D01*
X0095740Y0126106D02*
X0077304Y0126106D01*
X0081700Y0106924D02*
X0115000Y0106924D01*
X0115000Y0105326D02*
X0081700Y0105326D01*
X0081700Y0103727D02*
X0115000Y0103727D01*
X0115000Y0102128D02*
X0081700Y0102128D01*
X0081700Y0100530D02*
X0115000Y0100530D01*
X0115000Y0098931D02*
X0081700Y0098931D01*
X0081700Y0097333D02*
X0115000Y0097333D01*
X0115000Y0095734D02*
X0081700Y0095734D01*
X0081700Y0094136D02*
X0115000Y0094136D01*
X0115000Y0092537D02*
X0081700Y0092537D01*
X0081700Y0090939D02*
X0115000Y0090939D01*
X0115000Y0089340D02*
X0081700Y0089340D01*
X0081700Y0087742D02*
X0115000Y0087742D01*
X0115000Y0086143D02*
X0081700Y0086143D01*
X0080743Y0084545D02*
X0115000Y0084545D01*
X0115000Y0082946D02*
X0080864Y0082946D01*
X0082462Y0081348D02*
X0115000Y0081348D01*
X0115000Y0079749D02*
X0084061Y0079749D01*
X0085300Y0078151D02*
X0115000Y0078151D01*
X0115000Y0076552D02*
X0085300Y0076552D01*
X0085300Y0074954D02*
X0115000Y0074954D01*
X0115000Y0073355D02*
X0085300Y0073355D01*
X0085300Y0071757D02*
X0115000Y0071757D01*
X0115000Y0070158D02*
X0085300Y0070158D01*
X0085300Y0068560D02*
X0115000Y0068560D01*
X0115000Y0066961D02*
X0085300Y0066961D01*
X0085300Y0065363D02*
X0115000Y0065363D01*
X0115000Y0063764D02*
X0085300Y0063764D01*
X0085300Y0062166D02*
X0115000Y0062166D01*
X0115000Y0060567D02*
X0085300Y0060567D01*
X0085300Y0058969D02*
X0115000Y0058969D01*
X0115000Y0057370D02*
X0085300Y0057370D01*
X0085300Y0055772D02*
X0115000Y0055772D01*
X0115000Y0054173D02*
X0085300Y0054173D01*
X0085300Y0052575D02*
X0115000Y0052575D01*
X0115000Y0050976D02*
X0085300Y0050976D01*
X0085300Y0049378D02*
X0115000Y0049378D01*
X0115000Y0047779D02*
X0084777Y0047779D01*
X0083179Y0046181D02*
X0115000Y0046181D01*
X0115000Y0044582D02*
X0081580Y0044582D01*
X0081100Y0044102D02*
X0081100Y0044102D01*
X0065048Y0060567D02*
X0064843Y0060567D01*
X0055048Y0060567D02*
X0049765Y0060567D01*
X0050408Y0058969D02*
X0053192Y0058969D01*
X0052628Y0057370D02*
X0050972Y0057370D01*
X0050972Y0055772D02*
X0052628Y0055772D01*
X0052628Y0054173D02*
X0050972Y0054173D01*
X0050972Y0052575D02*
X0052628Y0052575D01*
X0052628Y0050976D02*
X0050972Y0050976D01*
X0050546Y0049378D02*
X0053054Y0049378D01*
X0054356Y0047779D02*
X0049244Y0047779D01*
X0052500Y0122909D02*
X0053100Y0122909D01*
X0053100Y0124508D02*
X0052500Y0124508D01*
X0052500Y0126106D02*
X0053100Y0126106D01*
X0053100Y0127705D02*
X0052500Y0127705D01*
X0052500Y0129303D02*
X0053100Y0129303D01*
X0053100Y0130902D02*
X0052500Y0130902D01*
X0052500Y0132500D02*
X0053100Y0132500D01*
X0058257Y0126644D02*
X0058257Y0126644D01*
D17*
X0049800Y0113006D03*
M02*
