G75*
%MOIN*%
%OFA0B0*%
%FSLAX25Y25*%
%IPPOS*%
%LPD*%
%AMOC8*
5,1,8,0,0,1.08239X$1,22.5*
%
%ADD10C,0.00400*%
%ADD11C,0.00300*%
%ADD12C,0.00000*%
%ADD13C,0.00500*%
%ADD14C,0.00800*%
%ADD15R,0.00650X0.00050*%
%ADD16R,0.00950X0.00050*%
%ADD17R,0.00800X0.00050*%
%ADD18R,0.00550X0.00050*%
%ADD19R,0.00600X0.00050*%
%ADD20R,0.01750X0.00050*%
%ADD21R,0.01000X0.00050*%
%ADD22R,0.01200X0.00050*%
%ADD23R,0.01800X0.00050*%
%ADD24R,0.01350X0.00050*%
%ADD25R,0.01900X0.00050*%
%ADD26R,0.00700X0.00050*%
%ADD27R,0.01850X0.00050*%
%ADD28R,0.01500X0.00050*%
%ADD29R,0.01950X0.00050*%
%ADD30R,0.01650X0.00050*%
%ADD31R,0.00750X0.00050*%
%ADD32R,0.02000X0.00050*%
%ADD33R,0.02050X0.00050*%
%ADD34R,0.00850X0.00050*%
%ADD35R,0.02100X0.00050*%
%ADD36R,0.00900X0.00050*%
%ADD37R,0.00450X0.00050*%
%ADD38R,0.00300X0.00050*%
%ADD39R,0.00200X0.00050*%
%ADD40R,0.01050X0.00050*%
%ADD41R,0.00100X0.00050*%
%ADD42R,0.01100X0.00050*%
%ADD43R,0.01150X0.00050*%
%ADD44R,0.02200X0.00050*%
%ADD45R,0.01250X0.00050*%
%ADD46R,0.00150X0.00050*%
%ADD47R,0.00250X0.00050*%
%ADD48R,0.00500X0.00050*%
%ADD49R,0.01550X0.00050*%
%ADD50R,0.01600X0.00050*%
%ADD51R,0.01700X0.00050*%
%ADD52R,0.01400X0.00050*%
%ADD53R,0.01300X0.00050*%
%ADD54R,0.00400X0.00050*%
%ADD55R,0.01450X0.00050*%
%ADD56R,0.02150X0.00050*%
%ADD57R,0.00350X0.00050*%
%ADD58R,0.00050X0.00050*%
%ADD59R,0.02250X0.00050*%
%ADD60R,0.02400X0.00050*%
%ADD61R,0.02500X0.00050*%
%ADD62R,0.02650X0.00050*%
%ADD63R,0.02750X0.00050*%
%ADD64R,0.02900X0.00050*%
%ADD65R,0.03000X0.00050*%
%ADD66R,0.03150X0.00050*%
%ADD67R,0.03250X0.00050*%
%ADD68R,0.04600X0.00050*%
%ADD69R,0.04650X0.00050*%
%ADD70R,0.04750X0.00050*%
%ADD71R,0.04800X0.00050*%
%ADD72R,0.04900X0.00050*%
%ADD73R,0.04950X0.00050*%
%ADD74R,0.05000X0.00050*%
%ADD75R,0.05100X0.00050*%
%ADD76R,0.05150X0.00050*%
%ADD77R,0.05200X0.00050*%
%ADD78R,0.05250X0.00050*%
%ADD79R,0.05050X0.00050*%
%ADD80R,0.04850X0.00050*%
%ADD81R,0.05300X0.00050*%
%ADD82R,0.05350X0.00050*%
%ADD83R,0.05450X0.00050*%
%ADD84R,0.05500X0.00050*%
%ADD85R,0.05550X0.00050*%
%ADD86R,0.05650X0.00050*%
%ADD87R,0.05600X0.00050*%
%ADD88R,0.05400X0.00050*%
%ADD89R,0.05700X0.00050*%
%ADD90R,0.05900X0.00050*%
%ADD91R,0.06150X0.00050*%
%ADD92R,0.06350X0.00050*%
%ADD93R,0.06550X0.00050*%
%ADD94R,0.06850X0.00050*%
%ADD95R,0.07050X0.00050*%
%ADD96R,0.07100X0.00050*%
%ADD97R,0.07000X0.00050*%
%ADD98R,0.06950X0.00050*%
%ADD99R,0.06900X0.00050*%
%ADD100R,0.06800X0.00050*%
%ADD101R,0.06600X0.00050*%
%ADD102R,0.05750X0.00050*%
%ADD103R,0.06050X0.00050*%
%ADD104R,0.13050X0.00050*%
%ADD105R,0.12950X0.00050*%
%ADD106R,0.12850X0.00050*%
%ADD107R,0.12750X0.00050*%
%ADD108R,0.12650X0.00050*%
%ADD109R,0.12550X0.00050*%
%ADD110R,0.12450X0.00050*%
%ADD111R,0.12350X0.00050*%
%ADD112R,0.12250X0.00050*%
%ADD113R,0.12150X0.00050*%
%ADD114R,0.13150X0.00050*%
%ADD115R,0.13250X0.00050*%
%ADD116R,0.13350X0.00050*%
%ADD117R,0.13450X0.00050*%
%ADD118R,0.13550X0.00050*%
%ADD119R,0.13650X0.00050*%
%ADD120R,0.13750X0.00050*%
%ADD121R,0.13850X0.00050*%
%ADD122R,0.13950X0.00050*%
%ADD123R,0.14050X0.00050*%
%ADD124R,0.14150X0.00050*%
%ADD125R,0.14250X0.00050*%
%ADD126R,0.14350X0.00050*%
%ADD127R,0.14450X0.00050*%
%ADD128R,0.14550X0.00050*%
%ADD129R,0.14650X0.00050*%
%ADD130R,0.14750X0.00050*%
%ADD131R,0.14850X0.00050*%
%ADD132R,0.14950X0.00050*%
%ADD133R,0.03450X0.00050*%
%ADD134R,0.06750X0.00050*%
%ADD135R,0.03300X0.00050*%
%ADD136R,0.06450X0.00050*%
%ADD137R,0.03200X0.00050*%
%ADD138R,0.06250X0.00050*%
%ADD139R,0.03050X0.00050*%
%ADD140R,0.05950X0.00050*%
%ADD141R,0.02950X0.00050*%
%ADD142R,0.02850X0.00050*%
%ADD143R,0.02800X0.00050*%
%ADD144R,0.02700X0.00050*%
%ADD145R,0.02600X0.00050*%
%ADD146R,0.02450X0.00050*%
%ADD147R,0.02350X0.00050*%
%ADD148R,0.04550X0.00050*%
%ADD149R,0.04250X0.00050*%
%ADD150R,0.04050X0.00050*%
%ADD151R,0.03750X0.00050*%
%ADD152R,0.03650X0.00050*%
%ADD153R,0.03550X0.00050*%
%ADD154R,0.03350X0.00050*%
%ADD155R,0.01008X0.00048*%
%ADD156R,0.00672X0.00048*%
%ADD157R,0.01776X0.00048*%
%ADD158R,0.01584X0.00048*%
%ADD159R,0.02160X0.00048*%
%ADD160R,0.02208X0.00048*%
%ADD161R,0.02352X0.00048*%
%ADD162R,0.02592X0.00048*%
%ADD163R,0.04272X0.00048*%
%ADD164R,0.02544X0.00048*%
%ADD165R,0.03936X0.00048*%
%ADD166R,0.01008X0.00048*%
%ADD167R,0.02976X0.00048*%
%ADD168R,0.04320X0.00048*%
%ADD169R,0.02736X0.00048*%
%ADD170R,0.03984X0.00048*%
%ADD171R,0.04272X0.00048*%
%ADD172R,0.02016X0.00048*%
%ADD173R,0.03312X0.00048*%
%ADD174R,0.04320X0.00048*%
%ADD175R,0.02880X0.00048*%
%ADD176R,0.03984X0.00048*%
%ADD177R,0.03552X0.00048*%
%ADD178R,0.03024X0.00048*%
%ADD179R,0.02592X0.00048*%
%ADD180R,0.03840X0.00048*%
%ADD181R,0.03120X0.00048*%
%ADD182R,0.02832X0.00048*%
%ADD183R,0.04080X0.00048*%
%ADD184R,0.03216X0.00048*%
%ADD185R,0.02976X0.00048*%
%ADD186R,0.03360X0.00048*%
%ADD187R,0.04512X0.00048*%
%ADD188R,0.03456X0.00048*%
%ADD189R,0.03264X0.00048*%
%ADD190R,0.04752X0.00048*%
%ADD191R,0.04944X0.00048*%
%ADD192R,0.03648X0.00048*%
%ADD193R,0.03456X0.00048*%
%ADD194R,0.05136X0.00048*%
%ADD195R,0.03744X0.00048*%
%ADD196R,0.03552X0.00048*%
%ADD197R,0.05328X0.00048*%
%ADD198R,0.03792X0.00048*%
%ADD199R,0.05472X0.00048*%
%ADD200R,0.03888X0.00048*%
%ADD201R,0.05616X0.00048*%
%ADD202R,0.03840X0.00048*%
%ADD203R,0.05760X0.00048*%
%ADD204R,0.04032X0.00048*%
%ADD205R,0.05952X0.00048*%
%ADD206R,0.04128X0.00048*%
%ADD207R,0.06096X0.00048*%
%ADD208R,0.04176X0.00048*%
%ADD209R,0.06240X0.00048*%
%ADD210R,0.04224X0.00048*%
%ADD211R,0.06336X0.00048*%
%ADD212R,0.04176X0.00048*%
%ADD213R,0.06480X0.00048*%
%ADD214R,0.04368X0.00048*%
%ADD215R,0.04224X0.00048*%
%ADD216R,0.06624X0.00048*%
%ADD217R,0.04464X0.00048*%
%ADD218R,0.06720X0.00048*%
%ADD219R,0.04512X0.00048*%
%ADD220R,0.06864X0.00048*%
%ADD221R,0.04560X0.00048*%
%ADD222R,0.04416X0.00048*%
%ADD223R,0.07008X0.00048*%
%ADD224R,0.04608X0.00048*%
%ADD225R,0.04464X0.00048*%
%ADD226R,0.07104X0.00048*%
%ADD227R,0.04656X0.00048*%
%ADD228R,0.07200X0.00048*%
%ADD229R,0.04704X0.00048*%
%ADD230R,0.07296X0.00048*%
%ADD231R,0.07440X0.00048*%
%ADD232R,0.04800X0.00048*%
%ADD233R,0.07536X0.00048*%
%ADD234R,0.04848X0.00048*%
%ADD235R,0.04704X0.00048*%
%ADD236R,0.07632X0.00048*%
%ADD237R,0.04896X0.00048*%
%ADD238R,0.04752X0.00048*%
%ADD239R,0.07728X0.00048*%
%ADD240R,0.04944X0.00048*%
%ADD241R,0.04800X0.00048*%
%ADD242R,0.07824X0.00048*%
%ADD243R,0.04992X0.00048*%
%ADD244R,0.07920X0.00048*%
%ADD245R,0.05040X0.00048*%
%ADD246R,0.08016X0.00048*%
%ADD247R,0.05088X0.00048*%
%ADD248R,0.08064X0.00048*%
%ADD249R,0.01536X0.00048*%
%ADD250R,0.04704X0.00048*%
%ADD251R,0.05184X0.00048*%
%ADD252R,0.01536X0.00048*%
%ADD253R,0.04560X0.00048*%
%ADD254R,0.05232X0.00048*%
%ADD255R,0.05280X0.00048*%
%ADD256R,0.05280X0.00048*%
%ADD257R,0.01488X0.00048*%
%ADD258R,0.05088X0.00048*%
%ADD259R,0.01488X0.00048*%
%ADD260R,0.05376X0.00048*%
%ADD261R,0.03840X0.00048*%
%ADD262R,0.05424X0.00048*%
%ADD263R,0.05136X0.00048*%
%ADD264R,0.00576X0.00048*%
%ADD265R,0.02304X0.00048*%
%ADD266R,0.00624X0.00048*%
%ADD267R,0.05424X0.00048*%
%ADD268R,0.05184X0.00048*%
%ADD269R,0.00432X0.00048*%
%ADD270R,0.02208X0.00048*%
%ADD271R,0.01440X0.00048*%
%ADD272R,0.00288X0.00048*%
%ADD273R,0.02160X0.00048*%
%ADD274R,0.05520X0.00048*%
%ADD275R,0.05232X0.00048*%
%ADD276R,0.01440X0.00048*%
%ADD277R,0.00144X0.00048*%
%ADD278R,0.02112X0.00048*%
%ADD279R,0.00096X0.00048*%
%ADD280R,0.05568X0.00048*%
%ADD281R,0.02064X0.00048*%
%ADD282R,0.05568X0.00048*%
%ADD283R,0.01392X0.00048*%
%ADD284R,0.05616X0.00048*%
%ADD285R,0.05328X0.00048*%
%ADD286R,0.01392X0.00048*%
%ADD287R,0.02016X0.00048*%
%ADD288R,0.01968X0.00048*%
%ADD289R,0.01392X0.00048*%
%ADD290R,0.05664X0.00048*%
%ADD291R,0.01920X0.00048*%
%ADD292R,0.01344X0.00048*%
%ADD293R,0.05712X0.00048*%
%ADD294R,0.01872X0.00048*%
%ADD295R,0.05712X0.00048*%
%ADD296R,0.05376X0.00048*%
%ADD297R,0.01824X0.00048*%
%ADD298R,0.01824X0.00048*%
%ADD299R,0.05760X0.00048*%
%ADD300R,0.01776X0.00048*%
%ADD301R,0.05808X0.00048*%
%ADD302R,0.01584X0.00048*%
%ADD303R,0.01728X0.00048*%
%ADD304R,0.05808X0.00048*%
%ADD305R,0.05472X0.00048*%
%ADD306R,0.01632X0.00048*%
%ADD307R,0.01680X0.00048*%
%ADD308R,0.05856X0.00048*%
%ADD309R,0.01728X0.00048*%
%ADD310R,0.01632X0.00048*%
%ADD311R,0.01680X0.00048*%
%ADD312R,0.05856X0.00048*%
%ADD313R,0.01728X0.00048*%
%ADD314R,0.05904X0.00048*%
%ADD315R,0.05520X0.00048*%
%ADD316R,0.01920X0.00048*%
%ADD317R,0.01920X0.00048*%
%ADD318R,0.05952X0.00048*%
%ADD319R,0.01968X0.00048*%
%ADD320R,0.01440X0.00048*%
%ADD321R,0.06000X0.00048*%
%ADD322R,0.02064X0.00048*%
%ADD323R,0.06000X0.00048*%
%ADD324R,0.02112X0.00048*%
%ADD325R,0.01344X0.00048*%
%ADD326R,0.06048X0.00048*%
%ADD327R,0.01296X0.00048*%
%ADD328R,0.06048X0.00048*%
%ADD329R,0.02256X0.00048*%
%ADD330R,0.01248X0.00048*%
%ADD331R,0.02304X0.00048*%
%ADD332R,0.01200X0.00048*%
%ADD333R,0.01152X0.00048*%
%ADD334R,0.06096X0.00048*%
%ADD335R,0.02400X0.00048*%
%ADD336R,0.01152X0.00048*%
%ADD337R,0.02352X0.00048*%
%ADD338R,0.06144X0.00048*%
%ADD339R,0.02400X0.00048*%
%ADD340R,0.01104X0.00048*%
%ADD341R,0.06144X0.00048*%
%ADD342R,0.01056X0.00048*%
%ADD343R,0.06192X0.00048*%
%ADD344R,0.00960X0.00048*%
%ADD345R,0.06192X0.00048*%
%ADD346R,0.00912X0.00048*%
%ADD347R,0.00864X0.00048*%
%ADD348R,0.04896X0.00048*%
%ADD349R,0.04848X0.00048*%
%ADD350R,0.00864X0.00048*%
%ADD351R,0.00480X0.00048*%
%ADD352R,0.00816X0.00048*%
%ADD353R,0.04656X0.00048*%
%ADD354R,0.00336X0.00048*%
%ADD355R,0.04128X0.00048*%
%ADD356R,0.00768X0.00048*%
%ADD357R,0.00240X0.00048*%
%ADD358R,0.04032X0.00048*%
%ADD359R,0.00768X0.00048*%
%ADD360R,0.03936X0.00048*%
%ADD361R,0.00816X0.00048*%
%ADD362R,0.00048X0.00048*%
%ADD363R,0.03888X0.00048*%
%ADD364R,0.04416X0.00048*%
%ADD365R,0.02304X0.00048*%
%ADD366R,0.04368X0.00048*%
%ADD367R,0.03792X0.00048*%
%ADD368R,0.01440X0.00048*%
%ADD369R,0.01728X0.00048*%
%ADD370R,0.01296X0.00048*%
%ADD371R,0.01872X0.00048*%
%ADD372R,0.03744X0.00048*%
%ADD373R,0.04080X0.00048*%
%ADD374R,0.05520X0.00048*%
%ADD375R,0.04176X0.00048*%
%ADD376R,0.04176X0.00048*%
%ADD377R,0.02112X0.00048*%
%ADD378R,0.02448X0.00048*%
%ADD379R,0.02496X0.00048*%
%ADD380R,0.02496X0.00048*%
%ADD381R,0.02448X0.00048*%
%ADD382R,0.04320X0.00048*%
%ADD383R,0.02544X0.00048*%
%ADD384R,0.00528X0.00048*%
%ADD385R,0.05040X0.00048*%
%ADD386R,0.02640X0.00048*%
%ADD387R,0.04656X0.00048*%
%ADD388R,0.04992X0.00048*%
%ADD389R,0.02640X0.00048*%
%ADD390R,0.04992X0.00048*%
%ADD391R,0.10560X0.00048*%
%ADD392R,0.02688X0.00048*%
%ADD393R,0.10512X0.00048*%
%ADD394R,0.04848X0.00048*%
%ADD395R,0.10512X0.00048*%
%ADD396R,0.10464X0.00048*%
%ADD397R,0.10416X0.00048*%
%ADD398R,0.02448X0.00048*%
%ADD399R,0.10416X0.00048*%
%ADD400R,0.02448X0.00048*%
%ADD401R,0.10320X0.00048*%
%ADD402R,0.10320X0.00048*%
%ADD403R,0.02256X0.00048*%
%ADD404R,0.02256X0.00048*%
%ADD405R,0.10224X0.00048*%
%ADD406R,0.10224X0.00048*%
%ADD407R,0.10176X0.00048*%
%ADD408R,0.02112X0.00048*%
%ADD409R,0.10176X0.00048*%
%ADD410R,0.02064X0.00048*%
%ADD411R,0.10128X0.00048*%
%ADD412R,0.10080X0.00048*%
%ADD413R,0.01920X0.00048*%
%ADD414R,0.09984X0.00048*%
%ADD415R,0.03840X0.00048*%
%ADD416R,0.09984X0.00048*%
%ADD417R,0.01776X0.00048*%
%ADD418R,0.09888X0.00048*%
%ADD419R,0.03648X0.00048*%
%ADD420R,0.09888X0.00048*%
%ADD421R,0.09792X0.00048*%
%ADD422R,0.09792X0.00048*%
%ADD423R,0.03504X0.00048*%
%ADD424R,0.09744X0.00048*%
%ADD425R,0.03600X0.00048*%
%ADD426R,0.09696X0.00048*%
%ADD427R,0.00096X0.00048*%
%ADD428R,0.09648X0.00048*%
%ADD429R,0.03696X0.00048*%
%ADD430R,0.09600X0.00048*%
%ADD431R,0.00480X0.00048*%
%ADD432R,0.09552X0.00048*%
%ADD433R,0.00672X0.00048*%
%ADD434R,0.09456X0.00048*%
%ADD435R,0.09456X0.00048*%
%ADD436R,0.01056X0.00048*%
%ADD437R,0.09360X0.00048*%
%ADD438R,0.01200X0.00048*%
%ADD439R,0.09264X0.00048*%
%ADD440R,0.01248X0.00048*%
%ADD441R,0.09264X0.00048*%
%ADD442R,0.09168X0.00048*%
%ADD443R,0.01392X0.00048*%
%ADD444R,0.09120X0.00048*%
%ADD445R,0.09072X0.00048*%
%ADD446R,0.01584X0.00048*%
%ADD447R,0.08976X0.00048*%
%ADD448R,0.08928X0.00048*%
%ADD449R,0.08832X0.00048*%
%ADD450R,0.08784X0.00048*%
%ADD451R,0.08736X0.00048*%
%ADD452R,0.03792X0.00048*%
%ADD453R,0.08640X0.00048*%
%ADD454R,0.08544X0.00048*%
%ADD455R,0.08448X0.00048*%
%ADD456R,0.08400X0.00048*%
%ADD457R,0.03696X0.00048*%
%ADD458R,0.08304X0.00048*%
%ADD459R,0.08208X0.00048*%
%ADD460R,0.08112X0.00048*%
%ADD461R,0.03648X0.00048*%
%ADD462R,0.03984X0.00048*%
%ADD463R,0.07968X0.00048*%
%ADD464R,0.03600X0.00048*%
%ADD465R,0.07824X0.00048*%
%ADD466R,0.07728X0.00048*%
%ADD467R,0.03504X0.00048*%
%ADD468R,0.07632X0.00048*%
%ADD469R,0.07536X0.00048*%
%ADD470R,0.03648X0.00048*%
%ADD471R,0.08064X0.00048*%
%ADD472R,0.07440X0.00048*%
%ADD473R,0.08016X0.00048*%
%ADD474R,0.07344X0.00048*%
%ADD475R,0.07920X0.00048*%
%ADD476R,0.07248X0.00048*%
%ADD477R,0.07152X0.00048*%
%ADD478R,0.06960X0.00048*%
%ADD479R,0.06864X0.00048*%
%ADD480R,0.06720X0.00048*%
%ADD481R,0.06576X0.00048*%
%ADD482R,0.06480X0.00048*%
%ADD483R,0.07200X0.00048*%
%ADD484R,0.07104X0.00048*%
%ADD485R,0.04320X0.00048*%
%ADD486R,0.06192X0.00048*%
%ADD487R,0.07008X0.00048*%
%ADD488R,0.00192X0.00048*%
%ADD489R,0.06048X0.00048*%
%ADD490R,0.00384X0.00048*%
%ADD491R,0.05712X0.00048*%
%ADD492R,0.06336X0.00048*%
%ADD493R,0.06240X0.00048*%
%ADD494R,0.04128X0.00048*%
%ADD495R,0.03984X0.00048*%
%ADD496R,0.04512X0.00048*%
%ADD497R,0.09744X0.00048*%
%ADD498R,0.02976X0.00048*%
%ADD499R,0.07248X0.00048*%
%ADD500R,0.07344X0.00048*%
%ADD501R,0.07488X0.00048*%
%ADD502R,0.07488X0.00048*%
%ADD503R,0.07584X0.00048*%
%ADD504R,0.07680X0.00048*%
%ADD505R,0.00624X0.00048*%
%ADD506R,0.07872X0.00048*%
%ADD507R,0.09696X0.00048*%
%ADD508R,0.07920X0.00048*%
%ADD509R,0.07968X0.00048*%
%ADD510R,0.08064X0.00048*%
%ADD511R,0.08160X0.00048*%
%ADD512R,0.08160X0.00048*%
%ADD513R,0.09648X0.00048*%
%ADD514R,0.08208X0.00048*%
%ADD515R,0.08256X0.00048*%
%ADD516R,0.08304X0.00048*%
%ADD517R,0.09600X0.00048*%
%ADD518R,0.08352X0.00048*%
%ADD519R,0.08400X0.00048*%
%ADD520R,0.08448X0.00048*%
%ADD521R,0.09552X0.00048*%
%ADD522R,0.08448X0.00048*%
%ADD523R,0.08496X0.00048*%
%ADD524R,0.09504X0.00048*%
%ADD525R,0.08592X0.00048*%
%ADD526R,0.09504X0.00048*%
%ADD527R,0.08640X0.00048*%
%ADD528R,0.08688X0.00048*%
%ADD529R,0.09408X0.00048*%
%ADD530R,0.08688X0.00048*%
%ADD531R,0.08592X0.00048*%
%ADD532R,0.08544X0.00048*%
%ADD533R,0.09360X0.00048*%
%ADD534R,0.08448X0.00048*%
%ADD535R,0.09312X0.00048*%
%ADD536R,0.08352X0.00048*%
%ADD537R,0.09312X0.00048*%
%ADD538R,0.08256X0.00048*%
%ADD539R,0.08256X0.00048*%
%ADD540R,0.09216X0.00048*%
%ADD541R,0.09168X0.00048*%
%ADD542R,0.07776X0.00048*%
%ADD543R,0.09024X0.00048*%
%ADD544R,0.07680X0.00048*%
%ADD545R,0.09024X0.00048*%
%ADD546R,0.07584X0.00048*%
%ADD547R,0.07392X0.00048*%
%ADD548R,0.08880X0.00048*%
%ADD549R,0.07296X0.00048*%
%ADD550R,0.08832X0.00048*%
%ADD551R,0.08784X0.00048*%
%ADD552R,0.07104X0.00048*%
%ADD553R,0.06912X0.00048*%
%ADD554R,0.06768X0.00048*%
%ADD555R,0.06624X0.00048*%
%ADD556R,0.06528X0.00048*%
%ADD557R,0.06384X0.00048*%
%ADD558R,0.06240X0.00048*%
%ADD559R,0.05856X0.00048*%
%ADD560R,0.05184X0.00048*%
%ADD561R,0.06912X0.00048*%
%ADD562R,0.06288X0.00048*%
%ADD563R,0.03456X0.00048*%
%ADD564R,0.03120X0.00048*%
%ADD565R,0.02784X0.00048*%
D10*
X0016996Y0056706D02*
X0016996Y0059008D01*
X0017763Y0059775D01*
X0018531Y0059775D01*
X0019298Y0059008D01*
X0019298Y0056706D01*
X0019298Y0059008D02*
X0020065Y0059775D01*
X0020833Y0059775D01*
X0021600Y0059008D01*
X0021600Y0056706D01*
X0016996Y0056706D01*
X0016996Y0061310D02*
X0020833Y0061310D01*
X0021600Y0062077D01*
X0021600Y0063612D01*
X0020833Y0064379D01*
X0016996Y0064379D01*
X0016996Y0065914D02*
X0016996Y0068983D01*
X0017763Y0068983D01*
X0020833Y0065914D01*
X0021600Y0065914D01*
X0021600Y0068983D01*
X0021600Y0070518D02*
X0020833Y0070518D01*
X0017763Y0073587D01*
X0016996Y0073587D01*
X0016996Y0070518D01*
X0016996Y0075122D02*
X0021600Y0075122D01*
X0021600Y0078191D01*
X0021600Y0079726D02*
X0016996Y0079726D01*
X0016996Y0082027D01*
X0017763Y0082795D01*
X0019298Y0082795D01*
X0020065Y0082027D01*
X0020065Y0079726D01*
X0020065Y0081260D02*
X0021600Y0082795D01*
X0019298Y0076656D02*
X0019298Y0075122D01*
X0016996Y0075122D02*
X0016996Y0078191D01*
X0021600Y0073587D02*
X0021600Y0070518D01*
D11*
X0022947Y0071398D02*
X0023564Y0072016D01*
X0024181Y0072016D01*
X0024798Y0071398D01*
X0024798Y0069547D01*
X0026033Y0068323D02*
X0026650Y0068323D01*
X0026650Y0067705D01*
X0026033Y0067705D01*
X0026033Y0068323D01*
X0026650Y0069547D02*
X0026650Y0071398D01*
X0026033Y0072016D01*
X0025416Y0072016D01*
X0024798Y0071398D01*
X0024798Y0073230D02*
X0024181Y0073847D01*
X0024181Y0075082D01*
X0024798Y0075699D01*
X0025416Y0075699D01*
X0025416Y0073230D01*
X0026033Y0073230D02*
X0024798Y0073230D01*
X0026033Y0073230D02*
X0026650Y0073847D01*
X0026650Y0075082D01*
X0026033Y0077530D02*
X0026650Y0078148D01*
X0026033Y0077530D02*
X0023564Y0077530D01*
X0024181Y0076913D02*
X0024181Y0078148D01*
X0024181Y0079986D02*
X0024181Y0081220D01*
X0024798Y0081837D01*
X0026650Y0081837D01*
X0026650Y0079986D01*
X0026033Y0079369D01*
X0025416Y0079986D01*
X0025416Y0081837D01*
X0026650Y0083052D02*
X0024181Y0085521D01*
X0023564Y0085521D01*
X0022947Y0084903D01*
X0022947Y0083669D01*
X0023564Y0083052D01*
X0026650Y0083052D02*
X0026650Y0085521D01*
X0034450Y0082859D02*
X0034450Y0079156D01*
X0035684Y0081625D02*
X0036919Y0082859D01*
X0036919Y0079156D01*
X0038133Y0079156D02*
X0038133Y0081625D01*
X0039368Y0082859D01*
X0040602Y0081625D01*
X0040602Y0079156D01*
X0041816Y0079156D02*
X0043668Y0079156D01*
X0044285Y0079773D01*
X0044285Y0082242D01*
X0043668Y0082859D01*
X0041816Y0082859D01*
X0041816Y0079156D01*
X0040602Y0081007D02*
X0038133Y0081007D01*
X0035684Y0081625D02*
X0034450Y0082859D01*
X0026650Y0069547D02*
X0022947Y0069547D01*
X0022947Y0071398D01*
X0024181Y0066491D02*
X0026650Y0065257D01*
X0024181Y0064022D01*
X0024798Y0062808D02*
X0025416Y0062808D01*
X0025416Y0060339D01*
X0026033Y0060339D02*
X0024798Y0060339D01*
X0024181Y0060956D01*
X0024181Y0062191D01*
X0024798Y0062808D01*
X0026650Y0062191D02*
X0026650Y0060956D01*
X0026033Y0060339D01*
X0026650Y0059125D02*
X0025416Y0057890D01*
X0025416Y0058507D02*
X0025416Y0056656D01*
X0026650Y0056656D02*
X0022947Y0056656D01*
X0022947Y0058507D01*
X0023564Y0059125D01*
X0024798Y0059125D01*
X0025416Y0058507D01*
X0045348Y0059156D02*
X0045348Y0060123D01*
X0045348Y0059640D02*
X0048250Y0059640D01*
X0048250Y0060123D02*
X0048250Y0059156D01*
X0048250Y0061120D02*
X0045348Y0063055D01*
X0045831Y0064067D02*
X0045348Y0064551D01*
X0045348Y0065518D01*
X0045831Y0066002D01*
X0047766Y0066002D01*
X0048250Y0065518D01*
X0048250Y0064551D01*
X0047766Y0064067D01*
X0045831Y0064067D01*
X0048950Y0070156D02*
X0048950Y0073058D01*
X0050401Y0073058D01*
X0050885Y0072575D01*
X0050885Y0071607D01*
X0050401Y0071123D01*
X0048950Y0071123D01*
X0049917Y0071123D02*
X0050885Y0070156D01*
X0051897Y0070156D02*
X0053831Y0070156D01*
X0052864Y0070156D02*
X0052864Y0073058D01*
X0051897Y0072091D01*
X0055831Y0066984D02*
X0055348Y0066500D01*
X0055348Y0065533D01*
X0055831Y0065049D01*
X0057766Y0065049D01*
X0058250Y0065533D01*
X0058250Y0066500D01*
X0057766Y0066984D01*
X0057766Y0064037D02*
X0058250Y0063554D01*
X0058250Y0062586D01*
X0057766Y0062102D01*
X0055831Y0062102D01*
X0055348Y0062586D01*
X0055348Y0063554D01*
X0055831Y0064037D01*
X0055348Y0061091D02*
X0057283Y0061091D01*
X0058250Y0060123D01*
X0057283Y0059156D01*
X0055348Y0059156D01*
X0065348Y0059640D02*
X0065831Y0059156D01*
X0067766Y0059156D01*
X0068250Y0059640D01*
X0068250Y0060607D01*
X0067766Y0061091D01*
X0066799Y0061091D01*
X0066799Y0060123D01*
X0065831Y0061091D02*
X0065348Y0060607D01*
X0065348Y0059640D01*
X0065348Y0062102D02*
X0068250Y0064037D01*
X0065348Y0064037D01*
X0065348Y0065049D02*
X0065348Y0066500D01*
X0065831Y0066984D01*
X0067766Y0066984D01*
X0068250Y0066500D01*
X0068250Y0065049D01*
X0065348Y0065049D01*
X0065348Y0062102D02*
X0068250Y0062102D01*
X0068839Y0079156D02*
X0068839Y0081625D01*
X0067605Y0082859D01*
X0066371Y0081625D01*
X0066371Y0079156D01*
X0066371Y0081007D02*
X0068839Y0081007D01*
X0070054Y0080390D02*
X0071905Y0080390D01*
X0072523Y0081007D01*
X0072523Y0082242D01*
X0071905Y0082859D01*
X0070054Y0082859D01*
X0070054Y0079156D01*
X0073737Y0079156D02*
X0073737Y0081625D01*
X0074971Y0082859D01*
X0076206Y0081625D01*
X0076206Y0079156D01*
X0077420Y0079156D02*
X0077420Y0082859D01*
X0079889Y0079156D01*
X0079889Y0082859D01*
X0076206Y0081007D02*
X0073737Y0081007D01*
X0065156Y0082859D02*
X0063922Y0082859D01*
X0064539Y0082859D02*
X0064539Y0079773D01*
X0063922Y0079156D01*
X0063305Y0079156D01*
X0062687Y0079773D01*
X0057790Y0079156D02*
X0057790Y0082859D01*
X0055321Y0082859D02*
X0055321Y0079156D01*
X0054100Y0079156D02*
X0052866Y0079156D01*
X0053483Y0079156D02*
X0053483Y0082859D01*
X0052866Y0082859D02*
X0054100Y0082859D01*
X0055321Y0082859D02*
X0057790Y0079156D01*
X0047968Y0079156D02*
X0045499Y0079156D01*
X0045499Y0082859D01*
X0047968Y0082859D01*
X0046734Y0081007D02*
X0045499Y0081007D01*
X0060201Y0112656D02*
X0061435Y0112656D01*
X0062052Y0113273D01*
X0062052Y0116359D01*
X0063267Y0115125D02*
X0064501Y0116359D01*
X0064501Y0112656D01*
X0063267Y0112656D02*
X0065736Y0112656D01*
X0060201Y0112656D02*
X0059584Y0113273D01*
X0059584Y0116359D01*
D12*
X0096800Y0024006D02*
X0016800Y0024006D01*
X0016558Y0024009D01*
X0016317Y0024018D01*
X0016076Y0024032D01*
X0015835Y0024053D01*
X0015595Y0024079D01*
X0015355Y0024111D01*
X0015116Y0024149D01*
X0014879Y0024192D01*
X0014642Y0024242D01*
X0014407Y0024297D01*
X0014173Y0024357D01*
X0013941Y0024424D01*
X0013710Y0024495D01*
X0013481Y0024573D01*
X0013254Y0024656D01*
X0013029Y0024744D01*
X0012806Y0024838D01*
X0012586Y0024937D01*
X0012368Y0025042D01*
X0012153Y0025151D01*
X0011940Y0025266D01*
X0011730Y0025386D01*
X0011524Y0025511D01*
X0011320Y0025641D01*
X0011119Y0025776D01*
X0010922Y0025916D01*
X0010728Y0026060D01*
X0010538Y0026209D01*
X0010352Y0026363D01*
X0010169Y0026521D01*
X0009990Y0026683D01*
X0009815Y0026850D01*
X0009644Y0027021D01*
X0009477Y0027196D01*
X0009315Y0027375D01*
X0009157Y0027558D01*
X0009003Y0027744D01*
X0008854Y0027934D01*
X0008710Y0028128D01*
X0008570Y0028325D01*
X0008435Y0028526D01*
X0008305Y0028730D01*
X0008180Y0028936D01*
X0008060Y0029146D01*
X0007945Y0029359D01*
X0007836Y0029574D01*
X0007731Y0029792D01*
X0007632Y0030012D01*
X0007538Y0030235D01*
X0007450Y0030460D01*
X0007367Y0030687D01*
X0007289Y0030916D01*
X0007218Y0031147D01*
X0007151Y0031379D01*
X0007091Y0031613D01*
X0007036Y0031848D01*
X0006986Y0032085D01*
X0006943Y0032322D01*
X0006905Y0032561D01*
X0006873Y0032801D01*
X0006847Y0033041D01*
X0006826Y0033282D01*
X0006812Y0033523D01*
X0006803Y0033764D01*
X0006800Y0034006D01*
X0006800Y0104006D01*
X0006815Y0105224D01*
X0006859Y0106440D01*
X0006933Y0107656D01*
X0007037Y0108869D01*
X0007170Y0110079D01*
X0007333Y0111286D01*
X0007525Y0112488D01*
X0007746Y0113686D01*
X0007996Y0114878D01*
X0008275Y0116063D01*
X0008583Y0117241D01*
X0008920Y0118411D01*
X0009285Y0119573D01*
X0009678Y0120725D01*
X0010099Y0121868D01*
X0010548Y0122999D01*
X0011024Y0124120D01*
X0011528Y0125229D01*
X0012058Y0126325D01*
X0012615Y0127408D01*
X0013198Y0128477D01*
X0013806Y0129531D01*
X0014441Y0130571D01*
X0015100Y0131594D01*
X0015784Y0132602D01*
X0016493Y0133592D01*
X0017225Y0134565D01*
X0017981Y0135519D01*
X0018760Y0136455D01*
X0019561Y0137372D01*
X0020385Y0138269D01*
X0021230Y0139145D01*
X0022096Y0140001D01*
X0022983Y0140836D01*
X0023890Y0141648D01*
X0024816Y0142438D01*
X0025762Y0143206D01*
X0026725Y0143950D01*
X0027707Y0144670D01*
X0028706Y0145367D01*
X0029721Y0146039D01*
X0030753Y0146686D01*
X0031800Y0147307D01*
X0032862Y0147903D01*
X0033938Y0148473D01*
X0035027Y0149017D01*
X0036130Y0149533D01*
X0037245Y0150023D01*
X0038371Y0150486D01*
X0039508Y0150921D01*
X0040656Y0151328D01*
X0041813Y0151707D01*
X0042979Y0152058D01*
X0044153Y0152380D01*
X0045335Y0152674D01*
X0046524Y0152939D01*
X0047718Y0153174D01*
X0048918Y0153381D01*
X0050123Y0153558D01*
X0051331Y0153706D01*
X0052543Y0153824D01*
X0053758Y0153913D01*
X0054974Y0153973D01*
X0056191Y0154002D01*
X0057409Y0154002D01*
X0058626Y0153973D01*
X0059842Y0153913D01*
X0061057Y0153824D01*
X0062269Y0153706D01*
X0063477Y0153558D01*
X0064682Y0153381D01*
X0065882Y0153174D01*
X0067076Y0152939D01*
X0068265Y0152674D01*
X0069447Y0152380D01*
X0070621Y0152058D01*
X0071787Y0151707D01*
X0072944Y0151328D01*
X0074092Y0150921D01*
X0075229Y0150486D01*
X0076355Y0150023D01*
X0077470Y0149533D01*
X0078573Y0149017D01*
X0079662Y0148473D01*
X0080738Y0147903D01*
X0081800Y0147307D01*
X0082847Y0146686D01*
X0083879Y0146039D01*
X0084894Y0145367D01*
X0085893Y0144670D01*
X0086875Y0143950D01*
X0087838Y0143206D01*
X0088784Y0142438D01*
X0089710Y0141648D01*
X0090617Y0140836D01*
X0091504Y0140001D01*
X0092370Y0139145D01*
X0093215Y0138269D01*
X0094039Y0137372D01*
X0094840Y0136455D01*
X0095619Y0135519D01*
X0096375Y0134565D01*
X0097107Y0133592D01*
X0097816Y0132602D01*
X0098500Y0131594D01*
X0099159Y0130571D01*
X0099794Y0129531D01*
X0100402Y0128477D01*
X0100985Y0127408D01*
X0101542Y0126325D01*
X0102072Y0125229D01*
X0102576Y0124120D01*
X0103052Y0122999D01*
X0103501Y0121868D01*
X0103922Y0120725D01*
X0104315Y0119573D01*
X0104680Y0118411D01*
X0105017Y0117241D01*
X0105325Y0116063D01*
X0105604Y0114878D01*
X0105854Y0113686D01*
X0106075Y0112488D01*
X0106267Y0111286D01*
X0106430Y0110079D01*
X0106563Y0108869D01*
X0106667Y0107656D01*
X0106741Y0106440D01*
X0106785Y0105224D01*
X0106800Y0104006D01*
X0106800Y0034006D01*
X0106797Y0033764D01*
X0106788Y0033523D01*
X0106774Y0033282D01*
X0106753Y0033041D01*
X0106727Y0032801D01*
X0106695Y0032561D01*
X0106657Y0032322D01*
X0106614Y0032085D01*
X0106564Y0031848D01*
X0106509Y0031613D01*
X0106449Y0031379D01*
X0106382Y0031147D01*
X0106311Y0030916D01*
X0106233Y0030687D01*
X0106150Y0030460D01*
X0106062Y0030235D01*
X0105968Y0030012D01*
X0105869Y0029792D01*
X0105764Y0029574D01*
X0105655Y0029359D01*
X0105540Y0029146D01*
X0105420Y0028936D01*
X0105295Y0028730D01*
X0105165Y0028526D01*
X0105030Y0028325D01*
X0104890Y0028128D01*
X0104746Y0027934D01*
X0104597Y0027744D01*
X0104443Y0027558D01*
X0104285Y0027375D01*
X0104123Y0027196D01*
X0103956Y0027021D01*
X0103785Y0026850D01*
X0103610Y0026683D01*
X0103431Y0026521D01*
X0103248Y0026363D01*
X0103062Y0026209D01*
X0102872Y0026060D01*
X0102678Y0025916D01*
X0102481Y0025776D01*
X0102280Y0025641D01*
X0102076Y0025511D01*
X0101870Y0025386D01*
X0101660Y0025266D01*
X0101447Y0025151D01*
X0101232Y0025042D01*
X0101014Y0024937D01*
X0100794Y0024838D01*
X0100571Y0024744D01*
X0100346Y0024656D01*
X0100119Y0024573D01*
X0099890Y0024495D01*
X0099659Y0024424D01*
X0099427Y0024357D01*
X0099193Y0024297D01*
X0098958Y0024242D01*
X0098721Y0024192D01*
X0098484Y0024149D01*
X0098245Y0024111D01*
X0098005Y0024079D01*
X0097765Y0024053D01*
X0097524Y0024032D01*
X0097283Y0024018D01*
X0097042Y0024009D01*
X0096800Y0024006D01*
D13*
X0076800Y0024006D02*
X0076800Y0054006D01*
X0071800Y0054006D01*
X0041800Y0054006D02*
X0036800Y0054006D01*
X0036800Y0024006D01*
X0031997Y0126506D02*
X0032004Y0127115D01*
X0032027Y0127723D01*
X0032064Y0128331D01*
X0032116Y0128937D01*
X0032184Y0129542D01*
X0032265Y0130145D01*
X0032362Y0130746D01*
X0032474Y0131345D01*
X0032600Y0131940D01*
X0032740Y0132533D01*
X0032895Y0133121D01*
X0033065Y0133706D01*
X0033249Y0134286D01*
X0033447Y0134862D01*
X0033659Y0135432D01*
X0033885Y0135998D01*
X0034125Y0136557D01*
X0034378Y0137111D01*
X0034645Y0137658D01*
X0034926Y0138198D01*
X0035219Y0138731D01*
X0035526Y0139257D01*
X0035845Y0139776D01*
X0036177Y0140286D01*
X0036521Y0140788D01*
X0036878Y0141281D01*
X0037247Y0141766D01*
X0037627Y0142241D01*
X0038019Y0142707D01*
X0038422Y0143163D01*
X0038836Y0143609D01*
X0039262Y0144044D01*
X0039697Y0144470D01*
X0040143Y0144884D01*
X0040599Y0145287D01*
X0041065Y0145679D01*
X0041540Y0146059D01*
X0042025Y0146428D01*
X0042518Y0146785D01*
X0043020Y0147129D01*
X0043530Y0147461D01*
X0044049Y0147780D01*
X0044575Y0148087D01*
X0045108Y0148380D01*
X0045648Y0148661D01*
X0046195Y0148928D01*
X0046749Y0149181D01*
X0047308Y0149421D01*
X0047874Y0149647D01*
X0048444Y0149859D01*
X0049020Y0150057D01*
X0049600Y0150241D01*
X0050185Y0150411D01*
X0050773Y0150566D01*
X0051366Y0150706D01*
X0051961Y0150832D01*
X0052560Y0150944D01*
X0053161Y0151041D01*
X0053764Y0151122D01*
X0054369Y0151190D01*
X0054975Y0151242D01*
X0055583Y0151279D01*
X0056191Y0151302D01*
X0056800Y0151309D01*
X0057409Y0151302D01*
X0058017Y0151279D01*
X0058625Y0151242D01*
X0059231Y0151190D01*
X0059836Y0151122D01*
X0060439Y0151041D01*
X0061040Y0150944D01*
X0061639Y0150832D01*
X0062234Y0150706D01*
X0062827Y0150566D01*
X0063415Y0150411D01*
X0064000Y0150241D01*
X0064580Y0150057D01*
X0065156Y0149859D01*
X0065726Y0149647D01*
X0066292Y0149421D01*
X0066851Y0149181D01*
X0067405Y0148928D01*
X0067952Y0148661D01*
X0068492Y0148380D01*
X0069025Y0148087D01*
X0069551Y0147780D01*
X0070070Y0147461D01*
X0070580Y0147129D01*
X0071082Y0146785D01*
X0071575Y0146428D01*
X0072060Y0146059D01*
X0072535Y0145679D01*
X0073001Y0145287D01*
X0073457Y0144884D01*
X0073903Y0144470D01*
X0074338Y0144044D01*
X0074764Y0143609D01*
X0075178Y0143163D01*
X0075581Y0142707D01*
X0075973Y0142241D01*
X0076353Y0141766D01*
X0076722Y0141281D01*
X0077079Y0140788D01*
X0077423Y0140286D01*
X0077755Y0139776D01*
X0078074Y0139257D01*
X0078381Y0138731D01*
X0078674Y0138198D01*
X0078955Y0137658D01*
X0079222Y0137111D01*
X0079475Y0136557D01*
X0079715Y0135998D01*
X0079941Y0135432D01*
X0080153Y0134862D01*
X0080351Y0134286D01*
X0080535Y0133706D01*
X0080705Y0133121D01*
X0080860Y0132533D01*
X0081000Y0131940D01*
X0081126Y0131345D01*
X0081238Y0130746D01*
X0081335Y0130145D01*
X0081416Y0129542D01*
X0081484Y0128937D01*
X0081536Y0128331D01*
X0081573Y0127723D01*
X0081596Y0127115D01*
X0081603Y0126506D01*
X0081596Y0125897D01*
X0081573Y0125289D01*
X0081536Y0124681D01*
X0081484Y0124075D01*
X0081416Y0123470D01*
X0081335Y0122867D01*
X0081238Y0122266D01*
X0081126Y0121667D01*
X0081000Y0121072D01*
X0080860Y0120479D01*
X0080705Y0119891D01*
X0080535Y0119306D01*
X0080351Y0118726D01*
X0080153Y0118150D01*
X0079941Y0117580D01*
X0079715Y0117014D01*
X0079475Y0116455D01*
X0079222Y0115901D01*
X0078955Y0115354D01*
X0078674Y0114814D01*
X0078381Y0114281D01*
X0078074Y0113755D01*
X0077755Y0113236D01*
X0077423Y0112726D01*
X0077079Y0112224D01*
X0076722Y0111731D01*
X0076353Y0111246D01*
X0075973Y0110771D01*
X0075581Y0110305D01*
X0075178Y0109849D01*
X0074764Y0109403D01*
X0074338Y0108968D01*
X0073903Y0108542D01*
X0073457Y0108128D01*
X0073001Y0107725D01*
X0072535Y0107333D01*
X0072060Y0106953D01*
X0071575Y0106584D01*
X0071082Y0106227D01*
X0070580Y0105883D01*
X0070070Y0105551D01*
X0069551Y0105232D01*
X0069025Y0104925D01*
X0068492Y0104632D01*
X0067952Y0104351D01*
X0067405Y0104084D01*
X0066851Y0103831D01*
X0066292Y0103591D01*
X0065726Y0103365D01*
X0065156Y0103153D01*
X0064580Y0102955D01*
X0064000Y0102771D01*
X0063415Y0102601D01*
X0062827Y0102446D01*
X0062234Y0102306D01*
X0061639Y0102180D01*
X0061040Y0102068D01*
X0060439Y0101971D01*
X0059836Y0101890D01*
X0059231Y0101822D01*
X0058625Y0101770D01*
X0058017Y0101733D01*
X0057409Y0101710D01*
X0056800Y0101703D01*
X0056191Y0101710D01*
X0055583Y0101733D01*
X0054975Y0101770D01*
X0054369Y0101822D01*
X0053764Y0101890D01*
X0053161Y0101971D01*
X0052560Y0102068D01*
X0051961Y0102180D01*
X0051366Y0102306D01*
X0050773Y0102446D01*
X0050185Y0102601D01*
X0049600Y0102771D01*
X0049020Y0102955D01*
X0048444Y0103153D01*
X0047874Y0103365D01*
X0047308Y0103591D01*
X0046749Y0103831D01*
X0046195Y0104084D01*
X0045648Y0104351D01*
X0045108Y0104632D01*
X0044575Y0104925D01*
X0044049Y0105232D01*
X0043530Y0105551D01*
X0043020Y0105883D01*
X0042518Y0106227D01*
X0042025Y0106584D01*
X0041540Y0106953D01*
X0041065Y0107333D01*
X0040599Y0107725D01*
X0040143Y0108128D01*
X0039697Y0108542D01*
X0039262Y0108968D01*
X0038836Y0109403D01*
X0038422Y0109849D01*
X0038019Y0110305D01*
X0037627Y0110771D01*
X0037247Y0111246D01*
X0036878Y0111731D01*
X0036521Y0112224D01*
X0036177Y0112726D01*
X0035845Y0113236D01*
X0035526Y0113755D01*
X0035219Y0114281D01*
X0034926Y0114814D01*
X0034645Y0115354D01*
X0034378Y0115901D01*
X0034125Y0116455D01*
X0033885Y0117014D01*
X0033659Y0117580D01*
X0033447Y0118150D01*
X0033249Y0118726D01*
X0033065Y0119306D01*
X0032895Y0119891D01*
X0032740Y0120479D01*
X0032600Y0121072D01*
X0032474Y0121667D01*
X0032362Y0122266D01*
X0032265Y0122867D01*
X0032184Y0123470D01*
X0032116Y0124075D01*
X0032064Y0124681D01*
X0032027Y0125289D01*
X0032004Y0125897D01*
X0031997Y0126506D01*
D14*
X0046800Y0074506D02*
X0046800Y0071506D01*
X0045800Y0071506D01*
X0046800Y0071506D02*
X0046800Y0068506D01*
X0066800Y0068506D01*
X0066800Y0071506D01*
X0067800Y0071506D01*
X0066800Y0071506D02*
X0066800Y0074506D01*
X0046800Y0074506D01*
D15*
X0080225Y0059031D03*
X0080225Y0058031D03*
X0081625Y0058031D03*
X0081675Y0058131D03*
X0081675Y0058181D03*
X0081675Y0058231D03*
X0081675Y0058281D03*
X0081675Y0058331D03*
X0081675Y0058381D03*
X0081675Y0058431D03*
X0081675Y0058481D03*
X0081675Y0058531D03*
X0081675Y0058581D03*
X0081675Y0058631D03*
X0081675Y0058681D03*
X0081675Y0058731D03*
X0081675Y0058781D03*
X0081675Y0058831D03*
X0081675Y0058881D03*
X0081675Y0058931D03*
X0081625Y0059031D03*
X0082625Y0058881D03*
X0082625Y0058831D03*
X0082625Y0058781D03*
X0082625Y0058731D03*
X0082625Y0058681D03*
X0082625Y0058631D03*
X0082625Y0058581D03*
X0082625Y0058531D03*
X0082625Y0058481D03*
X0082625Y0058431D03*
X0082625Y0058381D03*
X0082625Y0058331D03*
X0082625Y0058281D03*
X0082625Y0058231D03*
X0082625Y0058181D03*
X0082625Y0057331D03*
X0082625Y0057281D03*
X0082625Y0057231D03*
X0082625Y0057181D03*
X0082625Y0057131D03*
X0082625Y0057081D03*
X0082625Y0057031D03*
X0082625Y0056981D03*
X0082625Y0056931D03*
X0082625Y0056881D03*
X0082625Y0056831D03*
X0082625Y0056781D03*
X0082625Y0056731D03*
X0082625Y0056681D03*
X0082625Y0056631D03*
X0082625Y0056581D03*
X0082625Y0056531D03*
X0082625Y0056481D03*
X0082625Y0056431D03*
X0082625Y0056381D03*
X0082625Y0056331D03*
X0082625Y0056281D03*
X0082625Y0056231D03*
X0082625Y0056181D03*
X0082625Y0056131D03*
X0082625Y0056081D03*
X0082625Y0056031D03*
X0082625Y0055981D03*
X0082625Y0055931D03*
X0082625Y0055881D03*
X0082625Y0055831D03*
X0082625Y0055031D03*
X0082625Y0054981D03*
X0082625Y0054931D03*
X0082625Y0054881D03*
X0082625Y0054831D03*
X0082625Y0054781D03*
X0082625Y0054731D03*
X0082625Y0054681D03*
X0082625Y0054631D03*
X0082625Y0054581D03*
X0082625Y0054531D03*
X0082625Y0054481D03*
X0082625Y0054431D03*
X0082625Y0054381D03*
X0082625Y0054331D03*
X0082625Y0054281D03*
X0082625Y0054231D03*
X0082625Y0054181D03*
X0082625Y0054131D03*
X0082625Y0054081D03*
X0082625Y0054031D03*
X0082625Y0053981D03*
X0082625Y0053931D03*
X0082625Y0053881D03*
X0082625Y0053831D03*
X0082625Y0053781D03*
X0082625Y0053731D03*
X0082625Y0053681D03*
X0082625Y0053631D03*
X0082625Y0053581D03*
X0082625Y0053531D03*
X0082625Y0053481D03*
X0082625Y0053431D03*
X0082625Y0053381D03*
X0084075Y0053381D03*
X0084075Y0053431D03*
X0084075Y0053481D03*
X0084075Y0053531D03*
X0084075Y0053581D03*
X0084075Y0053631D03*
X0084075Y0053681D03*
X0084075Y0053731D03*
X0084075Y0053781D03*
X0084075Y0053831D03*
X0084075Y0053881D03*
X0084075Y0053931D03*
X0084075Y0053981D03*
X0084075Y0054031D03*
X0084075Y0054081D03*
X0084075Y0054131D03*
X0084075Y0054181D03*
X0084075Y0054231D03*
X0084075Y0054281D03*
X0084075Y0054331D03*
X0084075Y0054381D03*
X0084075Y0054431D03*
X0084075Y0054481D03*
X0084075Y0054531D03*
X0084075Y0054581D03*
X0084075Y0054631D03*
X0084075Y0054681D03*
X0084075Y0054731D03*
X0084075Y0054781D03*
X0084075Y0054831D03*
X0084075Y0054881D03*
X0084075Y0054931D03*
X0084075Y0054981D03*
X0084075Y0055031D03*
X0084075Y0055081D03*
X0084975Y0054281D03*
X0084975Y0053981D03*
X0086425Y0054031D03*
X0086425Y0054081D03*
X0086425Y0054131D03*
X0086425Y0054181D03*
X0086425Y0054231D03*
X0086425Y0054281D03*
X0086425Y0054331D03*
X0086425Y0054931D03*
X0086425Y0054981D03*
X0086425Y0055031D03*
X0086425Y0055081D03*
X0086425Y0055131D03*
X0086425Y0055181D03*
X0086425Y0055231D03*
X0087475Y0054981D03*
X0087475Y0054931D03*
X0087475Y0054881D03*
X0087475Y0054831D03*
X0087475Y0054781D03*
X0087475Y0054731D03*
X0087475Y0054681D03*
X0087475Y0054631D03*
X0087475Y0054581D03*
X0087475Y0054531D03*
X0087475Y0054481D03*
X0087475Y0054431D03*
X0087475Y0054381D03*
X0087475Y0054331D03*
X0087475Y0054281D03*
X0087475Y0054231D03*
X0087475Y0054181D03*
X0087475Y0054131D03*
X0087475Y0054081D03*
X0087475Y0054031D03*
X0087475Y0053981D03*
X0087475Y0053931D03*
X0087475Y0053881D03*
X0087475Y0053831D03*
X0087475Y0053781D03*
X0087475Y0053731D03*
X0087475Y0053681D03*
X0087475Y0053631D03*
X0087475Y0053581D03*
X0087475Y0053531D03*
X0087475Y0053481D03*
X0087475Y0053431D03*
X0087475Y0053381D03*
X0086425Y0053381D03*
X0087475Y0055781D03*
X0087475Y0055831D03*
X0087475Y0055881D03*
X0089175Y0055031D03*
X0089175Y0054981D03*
X0089175Y0054931D03*
X0089175Y0054881D03*
X0089175Y0054831D03*
X0089175Y0054781D03*
X0089175Y0054731D03*
X0089175Y0054681D03*
X0089175Y0054631D03*
X0089175Y0054581D03*
X0089175Y0054531D03*
X0089175Y0054481D03*
X0089175Y0054431D03*
X0089175Y0054381D03*
X0089175Y0054331D03*
X0089175Y0054281D03*
X0089175Y0054231D03*
X0090625Y0054231D03*
X0090625Y0054281D03*
X0090625Y0054331D03*
X0090625Y0054381D03*
X0090625Y0054431D03*
X0090625Y0054481D03*
X0090625Y0054531D03*
X0090625Y0054581D03*
X0090625Y0054631D03*
X0090625Y0054681D03*
X0090625Y0054731D03*
X0090625Y0054781D03*
X0090625Y0054831D03*
X0090625Y0054881D03*
X0090625Y0054931D03*
X0090625Y0054981D03*
X0090625Y0055031D03*
X0090625Y0055831D03*
X0090625Y0055881D03*
X0090625Y0055931D03*
X0090625Y0055981D03*
X0090625Y0056031D03*
X0090625Y0056081D03*
X0090625Y0056131D03*
X0090625Y0056181D03*
X0090625Y0056231D03*
X0090625Y0056281D03*
X0090625Y0056331D03*
X0090625Y0056381D03*
X0090625Y0056431D03*
X0090625Y0056481D03*
X0090625Y0056531D03*
X0090625Y0056581D03*
X0090625Y0056631D03*
X0090625Y0056681D03*
X0090625Y0056731D03*
X0090625Y0056781D03*
X0090625Y0056831D03*
X0090625Y0056881D03*
X0091575Y0057231D03*
X0090875Y0057881D03*
X0090875Y0058981D03*
X0090875Y0059031D03*
X0090875Y0059081D03*
X0090875Y0059131D03*
X0090925Y0059181D03*
X0091575Y0059831D03*
X0093125Y0058931D03*
X0093125Y0058881D03*
X0093125Y0058831D03*
X0093125Y0058781D03*
X0093125Y0058731D03*
X0093125Y0058681D03*
X0093125Y0058631D03*
X0093125Y0058581D03*
X0093125Y0058531D03*
X0093125Y0058481D03*
X0093125Y0058431D03*
X0093125Y0058381D03*
X0093125Y0058331D03*
X0093125Y0058281D03*
X0093125Y0058231D03*
X0093125Y0058181D03*
X0093125Y0058131D03*
X0093175Y0058081D03*
X0093175Y0058031D03*
X0092325Y0058031D03*
X0092325Y0058081D03*
X0092325Y0058131D03*
X0092325Y0057981D03*
X0093175Y0058981D03*
X0093175Y0059031D03*
X0094625Y0058981D03*
X0094625Y0058931D03*
X0094625Y0058881D03*
X0094625Y0058831D03*
X0094675Y0058631D03*
X0094675Y0058581D03*
X0094675Y0058531D03*
X0094675Y0058481D03*
X0094675Y0058431D03*
X0094625Y0058231D03*
X0094625Y0058181D03*
X0094625Y0058131D03*
X0094625Y0058081D03*
X0095575Y0058181D03*
X0095575Y0058231D03*
X0095575Y0058281D03*
X0095575Y0058331D03*
X0095575Y0058381D03*
X0095575Y0058431D03*
X0095575Y0058481D03*
X0095575Y0058531D03*
X0095575Y0058581D03*
X0095575Y0058631D03*
X0095575Y0058681D03*
X0095575Y0058731D03*
X0095575Y0058781D03*
X0095575Y0058831D03*
X0095575Y0058881D03*
X0095575Y0058931D03*
X0095575Y0058981D03*
X0095575Y0059031D03*
X0095575Y0059081D03*
X0095575Y0059131D03*
X0095575Y0059181D03*
X0095575Y0059231D03*
X0095575Y0059281D03*
X0095575Y0059331D03*
X0095575Y0059381D03*
X0095575Y0059431D03*
X0095575Y0059481D03*
X0095575Y0059531D03*
X0095575Y0059581D03*
X0095575Y0059631D03*
X0095575Y0059681D03*
X0095575Y0059731D03*
X0095575Y0059781D03*
X0097075Y0059781D03*
X0097075Y0059731D03*
X0097075Y0059681D03*
X0097075Y0059631D03*
X0097075Y0059581D03*
X0097075Y0059531D03*
X0097075Y0059481D03*
X0097075Y0059431D03*
X0097075Y0059381D03*
X0097075Y0059331D03*
X0097075Y0059281D03*
X0097075Y0059231D03*
X0097075Y0059181D03*
X0097075Y0059131D03*
X0097075Y0059081D03*
X0097075Y0059031D03*
X0097075Y0058981D03*
X0097075Y0058931D03*
X0097075Y0058881D03*
X0097075Y0058831D03*
X0097075Y0058781D03*
X0097075Y0058731D03*
X0097075Y0058681D03*
X0097075Y0058631D03*
X0097075Y0058581D03*
X0097075Y0058531D03*
X0097075Y0058481D03*
X0097075Y0058431D03*
X0097075Y0058381D03*
X0097075Y0058331D03*
X0097075Y0058281D03*
X0097075Y0058231D03*
X0097075Y0058181D03*
X0097075Y0057331D03*
X0097075Y0057281D03*
X0098125Y0057281D03*
X0098125Y0057331D03*
X0098125Y0057381D03*
X0098125Y0057431D03*
X0098125Y0057481D03*
X0098125Y0057531D03*
X0098125Y0057581D03*
X0098125Y0057631D03*
X0098125Y0057681D03*
X0098125Y0057731D03*
X0098125Y0057781D03*
X0098125Y0057831D03*
X0098125Y0057881D03*
X0098125Y0057931D03*
X0098125Y0057981D03*
X0098125Y0058031D03*
X0098125Y0058081D03*
X0098125Y0058131D03*
X0098125Y0058181D03*
X0098125Y0058231D03*
X0098125Y0058281D03*
X0098125Y0058331D03*
X0098125Y0058381D03*
X0098125Y0058431D03*
X0098125Y0058481D03*
X0098125Y0058531D03*
X0098125Y0058581D03*
X0098125Y0058631D03*
X0098125Y0058681D03*
X0098125Y0058731D03*
X0098125Y0058781D03*
X0098125Y0058831D03*
X0098125Y0058881D03*
X0098125Y0058931D03*
X0098125Y0058981D03*
X0098125Y0059731D03*
X0098125Y0059781D03*
X0099775Y0058931D03*
X0099775Y0058881D03*
X0099725Y0058831D03*
X0099725Y0058781D03*
X0099725Y0058731D03*
X0099725Y0058681D03*
X0099725Y0058631D03*
X0099725Y0058581D03*
X0099725Y0058531D03*
X0099725Y0058481D03*
X0099725Y0058431D03*
X0099725Y0058381D03*
X0099725Y0058331D03*
X0099725Y0058281D03*
X0099725Y0058231D03*
X0099775Y0058181D03*
X0099775Y0058131D03*
X0101875Y0058181D03*
X0101875Y0058231D03*
X0101925Y0058081D03*
X0101925Y0058031D03*
X0101875Y0058831D03*
X0101875Y0058881D03*
X0101925Y0059031D03*
X0101975Y0059131D03*
X0103325Y0059081D03*
X0103325Y0059031D03*
X0103175Y0057831D03*
X0100675Y0055081D03*
X0100675Y0055031D03*
X0100675Y0054981D03*
X0100675Y0054931D03*
X0099275Y0055181D03*
X0099225Y0055131D03*
X0099225Y0055081D03*
X0099175Y0054331D03*
X0099225Y0054181D03*
X0099225Y0054131D03*
X0099275Y0054081D03*
X0097475Y0054081D03*
X0097475Y0054131D03*
X0097475Y0054181D03*
X0097475Y0054231D03*
X0097475Y0054281D03*
X0097475Y0054331D03*
X0097475Y0054381D03*
X0097475Y0054431D03*
X0097475Y0054481D03*
X0097475Y0054531D03*
X0097475Y0054581D03*
X0097475Y0054631D03*
X0097475Y0054681D03*
X0097475Y0054731D03*
X0097475Y0054781D03*
X0097475Y0054831D03*
X0097475Y0054881D03*
X0097475Y0054931D03*
X0097475Y0055781D03*
X0097475Y0055831D03*
X0097475Y0055881D03*
X0096425Y0055231D03*
X0096425Y0055181D03*
X0096425Y0055131D03*
X0096425Y0054931D03*
X0096425Y0054231D03*
X0096425Y0054181D03*
X0096425Y0054131D03*
X0096425Y0054081D03*
X0096425Y0054031D03*
X0097475Y0054031D03*
X0097475Y0053981D03*
X0097475Y0053931D03*
X0097475Y0053881D03*
X0097475Y0053831D03*
X0097475Y0053781D03*
X0097475Y0053731D03*
X0097475Y0053681D03*
X0097475Y0053631D03*
X0097475Y0053581D03*
X0097475Y0053531D03*
X0097475Y0053481D03*
X0097475Y0053431D03*
X0097475Y0053381D03*
X0094975Y0053981D03*
X0094975Y0054031D03*
X0094975Y0054281D03*
X0094025Y0054581D03*
X0094075Y0054731D03*
X0094075Y0054781D03*
X0094125Y0054931D03*
X0094175Y0055081D03*
X0094175Y0055131D03*
X0094225Y0055231D03*
X0094225Y0055281D03*
X0094225Y0055331D03*
X0094275Y0055381D03*
X0094275Y0055431D03*
X0094275Y0055481D03*
X0094325Y0055531D03*
X0094325Y0055581D03*
X0094325Y0055631D03*
X0094375Y0055731D03*
X0094375Y0055781D03*
X0093675Y0053481D03*
X0092175Y0053481D03*
X0092175Y0053531D03*
X0091775Y0054681D03*
X0091725Y0054831D03*
X0091675Y0054981D03*
X0091675Y0055031D03*
X0091625Y0055131D03*
X0091625Y0055181D03*
X0091625Y0055231D03*
X0091575Y0055281D03*
X0091575Y0055331D03*
X0091575Y0055381D03*
X0091525Y0055431D03*
X0091525Y0055481D03*
X0091525Y0055531D03*
X0091475Y0055631D03*
X0091475Y0055681D03*
X0091475Y0055731D03*
X0091425Y0055831D03*
X0091425Y0055881D03*
X0092925Y0055631D03*
X0090625Y0053431D03*
X0090625Y0053381D03*
X0088875Y0057231D03*
X0088875Y0057281D03*
X0088875Y0057331D03*
X0088875Y0057381D03*
X0088875Y0057431D03*
X0088875Y0057481D03*
X0088875Y0057531D03*
X0088875Y0057581D03*
X0088875Y0057631D03*
X0088875Y0057681D03*
X0088875Y0057731D03*
X0088875Y0057781D03*
X0088875Y0057831D03*
X0088875Y0057881D03*
X0088875Y0057931D03*
X0088875Y0057981D03*
X0088875Y0058031D03*
X0088875Y0058081D03*
X0088875Y0058131D03*
X0088875Y0058181D03*
X0088875Y0058231D03*
X0088875Y0058281D03*
X0088875Y0058331D03*
X0088875Y0058381D03*
X0088875Y0058431D03*
X0088875Y0058481D03*
X0088875Y0058531D03*
X0088875Y0058581D03*
X0088875Y0058631D03*
X0088875Y0058681D03*
X0088875Y0058731D03*
X0088875Y0058781D03*
X0088875Y0058831D03*
X0088875Y0058881D03*
X0088875Y0058931D03*
X0087425Y0058931D03*
X0087425Y0058981D03*
X0087425Y0058881D03*
X0086475Y0058881D03*
X0086425Y0058931D03*
X0086425Y0058981D03*
X0086425Y0059031D03*
X0086275Y0057831D03*
X0085025Y0057981D03*
X0084975Y0058031D03*
X0084975Y0058081D03*
X0084975Y0058131D03*
X0084975Y0058181D03*
X0084975Y0058831D03*
X0084975Y0058931D03*
X0084975Y0058981D03*
X0085025Y0059081D03*
X0084075Y0058931D03*
X0084075Y0058881D03*
X0084075Y0058831D03*
X0084075Y0058781D03*
X0084075Y0058731D03*
X0084075Y0058681D03*
X0084075Y0058631D03*
X0084075Y0058581D03*
X0084075Y0058481D03*
X0084075Y0058431D03*
X0084075Y0058381D03*
X0084075Y0058331D03*
X0084075Y0058281D03*
X0084075Y0058231D03*
X0084075Y0058181D03*
X0084075Y0058131D03*
X0082625Y0059731D03*
X0082625Y0059781D03*
X0086175Y0061831D03*
X0097375Y0061831D03*
D16*
X0098975Y0059731D03*
X0096175Y0057331D03*
X0095575Y0053381D03*
X0093675Y0053981D03*
X0092925Y0055181D03*
X0092175Y0053981D03*
X0089375Y0053931D03*
X0085575Y0053381D03*
X0085775Y0057281D03*
X0083525Y0057331D03*
X0083525Y0059731D03*
X0088275Y0059731D03*
X0088825Y0062781D03*
X0094725Y0062781D03*
X0100025Y0053381D03*
D17*
X0099400Y0053931D03*
X0099950Y0055881D03*
X0097550Y0055231D03*
X0096350Y0053931D03*
X0093650Y0053781D03*
X0093650Y0053731D03*
X0093650Y0053681D03*
X0092150Y0053731D03*
X0092900Y0055381D03*
X0092900Y0055431D03*
X0093300Y0057881D03*
X0094500Y0057881D03*
X0094500Y0059181D03*
X0097000Y0057931D03*
X0097350Y0061881D03*
X0094700Y0062731D03*
X0091000Y0058881D03*
X0088750Y0059181D03*
X0089300Y0055281D03*
X0090550Y0055231D03*
X0090550Y0053981D03*
X0089750Y0053381D03*
X0087550Y0055231D03*
X0086350Y0053931D03*
X0086300Y0055331D03*
X0085100Y0057881D03*
X0083950Y0057881D03*
X0082700Y0057931D03*
X0081550Y0057881D03*
X0080300Y0057881D03*
X0080300Y0059181D03*
X0081550Y0059181D03*
X0083500Y0059781D03*
X0085150Y0059231D03*
X0086200Y0061881D03*
X0088850Y0062731D03*
X0084000Y0055231D03*
X0082700Y0055231D03*
X0102050Y0059231D03*
X0103200Y0059231D03*
D18*
X0102625Y0059831D03*
X0100575Y0057231D03*
X0097375Y0061781D03*
X0094625Y0062631D03*
X0092925Y0055781D03*
X0093225Y0054831D03*
X0093225Y0054781D03*
X0093275Y0054631D03*
X0093325Y0054481D03*
X0092575Y0054681D03*
X0092575Y0054731D03*
X0092525Y0054581D03*
X0092525Y0054531D03*
X0092475Y0054431D03*
X0092175Y0053381D03*
X0095225Y0055331D03*
X0088925Y0062631D03*
X0086175Y0061781D03*
X0085775Y0057231D03*
X0080925Y0057231D03*
X0080175Y0058431D03*
X0080175Y0058481D03*
X0080175Y0058531D03*
X0080175Y0058581D03*
X0080175Y0058631D03*
D19*
X0080200Y0058681D03*
X0080200Y0058731D03*
X0080200Y0058781D03*
X0080200Y0058831D03*
X0080200Y0058881D03*
X0080200Y0058931D03*
X0080200Y0058981D03*
X0080200Y0058381D03*
X0080200Y0058331D03*
X0080200Y0058281D03*
X0080200Y0058231D03*
X0080200Y0058181D03*
X0080200Y0058131D03*
X0080200Y0058081D03*
X0080900Y0059831D03*
X0082600Y0059831D03*
X0084100Y0058531D03*
X0084950Y0058231D03*
X0084950Y0058881D03*
X0085000Y0059031D03*
X0087400Y0058831D03*
X0087400Y0058781D03*
X0087400Y0058731D03*
X0087400Y0058681D03*
X0087400Y0058631D03*
X0087400Y0058581D03*
X0087400Y0058531D03*
X0087400Y0058481D03*
X0087400Y0058431D03*
X0087400Y0058381D03*
X0087400Y0058331D03*
X0087400Y0058281D03*
X0087400Y0058231D03*
X0087400Y0058181D03*
X0087400Y0058131D03*
X0087400Y0058081D03*
X0087400Y0058031D03*
X0087400Y0057981D03*
X0087400Y0057931D03*
X0087400Y0057881D03*
X0087400Y0057831D03*
X0087400Y0057781D03*
X0087400Y0057731D03*
X0087400Y0057681D03*
X0087400Y0057631D03*
X0087400Y0057581D03*
X0087400Y0057531D03*
X0087400Y0057481D03*
X0087400Y0057431D03*
X0087400Y0057381D03*
X0087400Y0057331D03*
X0087400Y0057281D03*
X0087400Y0057231D03*
X0085650Y0055931D03*
X0084950Y0054231D03*
X0084950Y0054181D03*
X0084950Y0054131D03*
X0084950Y0054081D03*
X0084950Y0054031D03*
X0087400Y0059731D03*
X0087400Y0059781D03*
X0087400Y0059831D03*
X0090650Y0056931D03*
X0091650Y0055081D03*
X0091700Y0054931D03*
X0091700Y0054881D03*
X0091750Y0054781D03*
X0091750Y0054731D03*
X0091800Y0054631D03*
X0091800Y0054581D03*
X0091800Y0054531D03*
X0091850Y0054481D03*
X0091850Y0054431D03*
X0092500Y0054481D03*
X0092550Y0054631D03*
X0092600Y0054781D03*
X0092600Y0054831D03*
X0093250Y0054731D03*
X0093250Y0054681D03*
X0093300Y0054581D03*
X0093300Y0054531D03*
X0094000Y0054531D03*
X0094000Y0054481D03*
X0094050Y0054631D03*
X0094050Y0054681D03*
X0094100Y0054831D03*
X0094100Y0054881D03*
X0094150Y0054981D03*
X0094150Y0055031D03*
X0094200Y0055181D03*
X0094950Y0054231D03*
X0094950Y0054181D03*
X0094950Y0054131D03*
X0094950Y0054081D03*
X0093650Y0053431D03*
X0093650Y0053381D03*
X0092150Y0053431D03*
X0092900Y0055681D03*
X0092900Y0055731D03*
X0093900Y0057231D03*
X0094650Y0058281D03*
X0094650Y0058331D03*
X0094650Y0058381D03*
X0094650Y0058681D03*
X0094650Y0058731D03*
X0094650Y0058781D03*
X0093900Y0059831D03*
X0092100Y0059231D03*
X0095600Y0059831D03*
X0097050Y0059831D03*
X0098100Y0059831D03*
X0100600Y0059831D03*
X0101900Y0058981D03*
X0101900Y0058931D03*
X0101900Y0058131D03*
X0101100Y0057881D03*
X0099200Y0055031D03*
X0099200Y0054981D03*
X0099200Y0054931D03*
X0099200Y0054281D03*
X0099200Y0054231D03*
X0100500Y0053931D03*
X0102700Y0057231D03*
X0103350Y0058831D03*
X0103350Y0058881D03*
X0103350Y0058931D03*
X0103350Y0058981D03*
X0098100Y0057231D03*
X0097050Y0057231D03*
X0095650Y0055931D03*
X0096450Y0055081D03*
X0096450Y0055031D03*
X0096450Y0054981D03*
X0096450Y0054331D03*
X0096450Y0054281D03*
X0096450Y0053381D03*
X0097350Y0076331D03*
X0086200Y0076331D03*
D20*
X0087975Y0059681D03*
X0085725Y0059431D03*
X0083175Y0059681D03*
X0080925Y0059431D03*
X0080925Y0057631D03*
X0083175Y0057381D03*
X0083175Y0055781D03*
X0085875Y0054781D03*
X0085875Y0053431D03*
X0088025Y0055581D03*
X0090075Y0055781D03*
X0091525Y0057481D03*
X0091675Y0058481D03*
X0091625Y0058531D03*
X0091575Y0058581D03*
X0091525Y0058631D03*
X0091625Y0059581D03*
X0093875Y0059431D03*
X0093875Y0057631D03*
X0096525Y0057381D03*
X0095725Y0055631D03*
X0095875Y0054781D03*
X0095875Y0053431D03*
X0098025Y0055581D03*
X0100025Y0053631D03*
X0100575Y0057581D03*
X0100575Y0059481D03*
X0098675Y0059531D03*
X0098675Y0059681D03*
X0090075Y0053481D03*
D21*
X0089750Y0053431D03*
X0090450Y0053931D03*
X0092150Y0054031D03*
X0092150Y0054081D03*
X0092900Y0055081D03*
X0092900Y0055131D03*
X0093650Y0054081D03*
X0093650Y0054031D03*
X0095700Y0055881D03*
X0099950Y0055831D03*
X0094750Y0062831D03*
X0091600Y0059781D03*
X0091550Y0057281D03*
X0088800Y0062831D03*
X0086250Y0076181D03*
X0097300Y0076181D03*
D22*
X0102650Y0059681D03*
X0102700Y0057331D03*
X0100000Y0053431D03*
X0099950Y0055781D03*
X0093650Y0054381D03*
X0092150Y0054381D03*
X0092150Y0054331D03*
X0085700Y0059681D03*
D23*
X0085700Y0059381D03*
X0085800Y0057581D03*
X0085700Y0055631D03*
X0085800Y0055381D03*
X0085850Y0053481D03*
X0088050Y0055631D03*
X0090050Y0055731D03*
X0090050Y0053531D03*
X0093900Y0057681D03*
X0093900Y0059381D03*
X0091650Y0059531D03*
X0088000Y0059631D03*
X0086300Y0062281D03*
X0083200Y0059631D03*
X0083200Y0057431D03*
X0083200Y0055731D03*
X0095700Y0055581D03*
X0095800Y0055381D03*
X0095850Y0054731D03*
X0095850Y0053481D03*
X0098050Y0055631D03*
X0099950Y0055481D03*
X0102700Y0057581D03*
X0102650Y0059381D03*
X0098700Y0059581D03*
X0098700Y0059631D03*
X0097250Y0062281D03*
D24*
X0102625Y0059631D03*
X0100025Y0053481D03*
X0091925Y0058281D03*
X0085775Y0057381D03*
X0085725Y0059631D03*
X0080925Y0059631D03*
X0080925Y0057431D03*
X0086275Y0076031D03*
X0097275Y0076031D03*
D25*
X0097250Y0062331D03*
X0100600Y0059381D03*
X0100500Y0059231D03*
X0100500Y0057831D03*
X0100600Y0057681D03*
X0099950Y0055381D03*
X0100000Y0053831D03*
X0100050Y0053731D03*
X0102700Y0057681D03*
X0102650Y0059281D03*
X0096450Y0057481D03*
X0095700Y0055531D03*
X0095750Y0055481D03*
X0095800Y0054681D03*
X0095800Y0053581D03*
X0093900Y0057731D03*
X0093900Y0059331D03*
X0091650Y0059481D03*
X0091600Y0059381D03*
X0091550Y0059331D03*
X0090000Y0055631D03*
X0090000Y0053631D03*
X0085800Y0053531D03*
X0085800Y0054681D03*
X0085700Y0055531D03*
X0085800Y0057631D03*
X0085750Y0057731D03*
X0085700Y0057781D03*
X0085700Y0059281D03*
X0088050Y0059531D03*
X0086300Y0062331D03*
X0083250Y0059531D03*
X0083250Y0057531D03*
X0083250Y0055631D03*
D26*
X0083500Y0055881D03*
X0084050Y0055131D03*
X0082650Y0055131D03*
X0082650Y0055081D03*
X0082650Y0058031D03*
X0082650Y0058081D03*
X0082650Y0058131D03*
X0082650Y0058931D03*
X0082650Y0058981D03*
X0082650Y0059031D03*
X0081650Y0058981D03*
X0081600Y0059081D03*
X0081650Y0058081D03*
X0081600Y0057981D03*
X0080250Y0057981D03*
X0080250Y0059081D03*
X0084050Y0059081D03*
X0084050Y0059031D03*
X0084050Y0058981D03*
X0084050Y0058081D03*
X0084050Y0058031D03*
X0084050Y0057981D03*
X0085050Y0057931D03*
X0085050Y0059131D03*
X0086400Y0059081D03*
X0086450Y0058831D03*
X0087450Y0059031D03*
X0087450Y0059081D03*
X0088850Y0059031D03*
X0088850Y0058981D03*
X0090900Y0058931D03*
X0092300Y0058181D03*
X0092300Y0057931D03*
X0093200Y0057981D03*
X0093200Y0059081D03*
X0094550Y0059131D03*
X0094600Y0059081D03*
X0094600Y0059031D03*
X0094600Y0058031D03*
X0094600Y0057981D03*
X0094550Y0057931D03*
X0095600Y0058081D03*
X0095600Y0058131D03*
X0095650Y0058031D03*
X0095650Y0057981D03*
X0097050Y0058081D03*
X0097050Y0058131D03*
X0098150Y0059031D03*
X0099800Y0059031D03*
X0099800Y0058981D03*
X0099850Y0059081D03*
X0099800Y0058081D03*
X0099800Y0058031D03*
X0099850Y0057981D03*
X0101950Y0057981D03*
X0102000Y0057931D03*
X0101950Y0059081D03*
X0103300Y0059131D03*
X0100600Y0055231D03*
X0100650Y0055181D03*
X0100650Y0055131D03*
X0099300Y0055231D03*
X0099300Y0054031D03*
X0097500Y0054981D03*
X0097500Y0055031D03*
X0097500Y0055081D03*
X0096400Y0055281D03*
X0096400Y0053981D03*
X0094350Y0055681D03*
X0094400Y0055831D03*
X0094400Y0055881D03*
X0093650Y0053631D03*
X0093650Y0053581D03*
X0093650Y0053531D03*
X0092150Y0053581D03*
X0092900Y0055531D03*
X0092900Y0055581D03*
X0091500Y0055581D03*
X0091450Y0055781D03*
X0090600Y0055131D03*
X0090600Y0055081D03*
X0090600Y0054181D03*
X0090600Y0054131D03*
X0090600Y0054081D03*
X0089250Y0054031D03*
X0089200Y0054081D03*
X0089200Y0054131D03*
X0089200Y0054181D03*
X0089200Y0055081D03*
X0089200Y0055131D03*
X0089750Y0055881D03*
X0087500Y0055131D03*
X0087500Y0055081D03*
X0087500Y0055031D03*
X0086400Y0055281D03*
X0086400Y0053981D03*
X0088900Y0062681D03*
X0094650Y0062681D03*
D27*
X0091525Y0059281D03*
X0091525Y0057531D03*
X0090025Y0055681D03*
X0090025Y0053581D03*
X0088075Y0055681D03*
X0088075Y0055731D03*
X0085775Y0055431D03*
X0085675Y0055581D03*
X0085825Y0054731D03*
X0083225Y0055681D03*
X0083225Y0057481D03*
X0083225Y0059581D03*
X0080925Y0059381D03*
X0080925Y0059331D03*
X0080925Y0057731D03*
X0080925Y0057681D03*
X0085725Y0059331D03*
X0088025Y0059581D03*
X0096475Y0057431D03*
X0095775Y0055431D03*
X0095825Y0053531D03*
X0098075Y0055681D03*
X0098075Y0055731D03*
X0099925Y0053881D03*
X0100025Y0053681D03*
X0099975Y0055431D03*
X0100575Y0057631D03*
X0100575Y0059431D03*
X0102625Y0059331D03*
X0102625Y0057781D03*
X0102725Y0057631D03*
X0097225Y0075831D03*
X0086325Y0075831D03*
D28*
X0085700Y0059581D03*
X0086000Y0054881D03*
X0080900Y0059581D03*
X0093900Y0059581D03*
X0093900Y0057481D03*
X0096000Y0054881D03*
X0098550Y0059231D03*
X0100000Y0053531D03*
X0102700Y0057431D03*
X0102650Y0059581D03*
D29*
X0102675Y0057731D03*
X0100575Y0057731D03*
X0100525Y0057781D03*
X0100525Y0059281D03*
X0100575Y0059331D03*
X0100025Y0053781D03*
X0095775Y0053631D03*
X0095775Y0054581D03*
X0095775Y0054631D03*
X0096425Y0057531D03*
X0096425Y0057581D03*
X0093875Y0057781D03*
X0093875Y0059281D03*
X0091625Y0059431D03*
X0089975Y0055581D03*
X0089975Y0055531D03*
X0089975Y0053681D03*
X0088075Y0059431D03*
X0088075Y0059481D03*
X0085775Y0057681D03*
X0085725Y0055481D03*
X0085775Y0054631D03*
X0085775Y0053631D03*
X0085775Y0053581D03*
X0083275Y0055531D03*
X0083275Y0055581D03*
X0083275Y0057581D03*
X0083275Y0059481D03*
X0080925Y0059281D03*
X0080925Y0059231D03*
X0080925Y0057831D03*
X0080925Y0057781D03*
X0086325Y0075781D03*
X0097225Y0075781D03*
D30*
X0097275Y0062231D03*
X0098625Y0059431D03*
X0098625Y0059381D03*
X0100575Y0059531D03*
X0100575Y0057531D03*
X0102625Y0059481D03*
X0100025Y0053581D03*
X0097975Y0055431D03*
X0097975Y0055481D03*
X0095925Y0054831D03*
X0095725Y0055681D03*
X0091775Y0058381D03*
X0091425Y0058731D03*
X0087975Y0055481D03*
X0085925Y0054831D03*
X0085725Y0059481D03*
X0086275Y0062231D03*
X0080925Y0059481D03*
X0080925Y0057581D03*
D31*
X0080275Y0057931D03*
X0080275Y0059131D03*
X0081575Y0059131D03*
X0082675Y0059131D03*
X0082675Y0059081D03*
X0082675Y0057981D03*
X0081575Y0057931D03*
X0083525Y0057281D03*
X0084025Y0057931D03*
X0084025Y0059131D03*
X0083975Y0059181D03*
X0085075Y0059181D03*
X0086325Y0059181D03*
X0086375Y0059131D03*
X0087475Y0059131D03*
X0088275Y0059781D03*
X0088775Y0059131D03*
X0088825Y0059081D03*
X0090975Y0059231D03*
X0092275Y0057881D03*
X0093225Y0057931D03*
X0093225Y0059131D03*
X0093275Y0059181D03*
X0095675Y0057931D03*
X0096175Y0057281D03*
X0097025Y0057981D03*
X0097025Y0058031D03*
X0098175Y0059081D03*
X0098175Y0059131D03*
X0098975Y0059781D03*
X0099875Y0059131D03*
X0099875Y0057931D03*
X0102025Y0057881D03*
X0102025Y0059181D03*
X0103275Y0059181D03*
X0100575Y0055281D03*
X0099325Y0055281D03*
X0098375Y0055881D03*
X0097525Y0055181D03*
X0097525Y0055131D03*
X0099325Y0053981D03*
X0095025Y0053931D03*
X0095025Y0054331D03*
X0092925Y0055481D03*
X0092175Y0053681D03*
X0092175Y0053631D03*
X0090575Y0054031D03*
X0090575Y0055181D03*
X0089275Y0055231D03*
X0089225Y0055181D03*
X0088375Y0055881D03*
X0087525Y0055181D03*
X0089275Y0053981D03*
X0085025Y0053931D03*
X0085025Y0054331D03*
X0084025Y0055181D03*
X0082675Y0055181D03*
X0086225Y0076281D03*
X0097325Y0076281D03*
D32*
X0097250Y0062381D03*
X0093900Y0059231D03*
X0093900Y0057831D03*
X0091500Y0057581D03*
X0089950Y0055481D03*
X0089950Y0055431D03*
X0089950Y0053831D03*
X0089950Y0053781D03*
X0089950Y0053731D03*
X0088100Y0059331D03*
X0088100Y0059381D03*
X0086300Y0062381D03*
X0083300Y0059431D03*
X0083300Y0059381D03*
X0083300Y0057681D03*
X0083300Y0057631D03*
X0083300Y0055481D03*
X0085750Y0054581D03*
X0085750Y0054531D03*
X0085750Y0053681D03*
X0095750Y0053681D03*
X0095750Y0053731D03*
X0095750Y0054531D03*
X0096400Y0057631D03*
D33*
X0096375Y0057681D03*
X0096375Y0057731D03*
X0096375Y0057781D03*
X0095725Y0054481D03*
X0095725Y0054431D03*
X0095725Y0054381D03*
X0095725Y0053831D03*
X0095725Y0053781D03*
X0089925Y0053881D03*
X0089925Y0055331D03*
X0089925Y0055381D03*
X0088125Y0059231D03*
X0088125Y0059281D03*
X0085725Y0054481D03*
X0085725Y0054431D03*
X0085725Y0053781D03*
X0085725Y0053731D03*
X0083325Y0055331D03*
X0083325Y0055381D03*
X0083325Y0055431D03*
X0083325Y0057731D03*
X0083325Y0057781D03*
X0083325Y0057831D03*
X0083325Y0059231D03*
X0083325Y0059281D03*
X0083325Y0059331D03*
D34*
X0082725Y0059181D03*
X0082725Y0057881D03*
X0080925Y0057281D03*
X0082725Y0055281D03*
X0083975Y0055281D03*
X0085175Y0057831D03*
X0086275Y0059231D03*
X0085725Y0059781D03*
X0087525Y0059181D03*
X0090525Y0055281D03*
X0090925Y0057831D03*
X0092225Y0057831D03*
X0093875Y0057281D03*
X0092925Y0055331D03*
X0092175Y0053831D03*
X0092175Y0053781D03*
X0093675Y0053831D03*
X0096325Y0055331D03*
X0095725Y0057881D03*
X0098225Y0059181D03*
X0099925Y0059181D03*
X0100575Y0059781D03*
X0099925Y0057881D03*
X0100575Y0057281D03*
X0099425Y0055331D03*
X0102625Y0059781D03*
X0097325Y0076231D03*
X0086225Y0076231D03*
X0080925Y0059781D03*
D35*
X0085700Y0054381D03*
X0085700Y0053881D03*
X0085700Y0053831D03*
X0091500Y0057631D03*
X0096350Y0057831D03*
X0095700Y0053881D03*
X0102600Y0058281D03*
X0102600Y0058331D03*
X0102600Y0058381D03*
X0102600Y0058431D03*
X0102600Y0058481D03*
X0102600Y0058531D03*
X0102600Y0058581D03*
X0102600Y0058631D03*
X0102600Y0058681D03*
X0102600Y0058731D03*
X0102600Y0058781D03*
X0097200Y0075731D03*
X0086350Y0075731D03*
D36*
X0086200Y0061931D03*
X0088350Y0055831D03*
X0087600Y0055281D03*
X0089750Y0055831D03*
X0092150Y0053931D03*
X0092150Y0053881D03*
X0093650Y0053881D03*
X0093650Y0053931D03*
X0092900Y0055231D03*
X0092900Y0055281D03*
X0092200Y0058231D03*
X0093900Y0059781D03*
X0096950Y0057881D03*
X0098350Y0055831D03*
X0097600Y0055281D03*
X0100500Y0055331D03*
X0102100Y0057831D03*
X0102700Y0057281D03*
X0097350Y0061931D03*
X0083500Y0055831D03*
D37*
X0088375Y0055931D03*
X0089725Y0055931D03*
X0092175Y0059181D03*
X0094575Y0062581D03*
X0097375Y0061731D03*
X0096175Y0057231D03*
X0098375Y0055931D03*
X0100525Y0053981D03*
X0103225Y0057881D03*
X0088975Y0062581D03*
X0086175Y0061731D03*
D38*
X0086150Y0061681D03*
X0086300Y0057931D03*
X0085200Y0055281D03*
X0089000Y0062531D03*
X0094550Y0062531D03*
X0097400Y0061681D03*
X0095200Y0055281D03*
X0100550Y0054031D03*
X0103250Y0057931D03*
D39*
X0103250Y0057981D03*
X0099150Y0059181D03*
X0100550Y0054081D03*
X0095200Y0055231D03*
X0092200Y0059081D03*
X0086300Y0057981D03*
X0085200Y0055231D03*
D40*
X0085675Y0055881D03*
X0088375Y0055781D03*
X0092175Y0054131D03*
X0092925Y0055031D03*
X0093675Y0054131D03*
X0098375Y0055781D03*
X0102625Y0059731D03*
X0097325Y0061981D03*
X0086225Y0061981D03*
X0080925Y0057331D03*
D41*
X0085200Y0055181D03*
X0086300Y0058031D03*
X0086150Y0061631D03*
X0095200Y0055181D03*
X0098550Y0055231D03*
X0100550Y0054131D03*
X0103250Y0058031D03*
X0099150Y0059131D03*
X0097400Y0061631D03*
D42*
X0094800Y0062881D03*
X0093900Y0059731D03*
X0093900Y0057331D03*
X0092900Y0054981D03*
X0092900Y0054931D03*
X0092150Y0054231D03*
X0092150Y0054181D03*
X0093650Y0054181D03*
X0093650Y0054231D03*
X0100600Y0057331D03*
X0088750Y0062881D03*
X0085700Y0059731D03*
X0080900Y0059731D03*
X0086250Y0076131D03*
X0097300Y0076131D03*
D43*
X0097325Y0062031D03*
X0100575Y0059731D03*
X0093675Y0054331D03*
X0093675Y0054281D03*
X0092925Y0054881D03*
X0092175Y0054281D03*
X0085775Y0057331D03*
X0086225Y0062031D03*
D44*
X0085700Y0058681D03*
X0085700Y0058631D03*
X0085700Y0058581D03*
X0085700Y0058531D03*
X0085700Y0058481D03*
X0085700Y0058431D03*
X0085700Y0058381D03*
X0091500Y0057731D03*
X0099950Y0054881D03*
X0099950Y0054831D03*
X0099950Y0054781D03*
X0099950Y0054731D03*
X0099950Y0054681D03*
X0099950Y0054631D03*
X0099950Y0054581D03*
X0099950Y0054531D03*
X0099950Y0054481D03*
X0099950Y0054431D03*
X0099950Y0054381D03*
X0097200Y0075681D03*
X0086350Y0075681D03*
D45*
X0086275Y0076081D03*
X0097275Y0076081D03*
X0100575Y0059681D03*
X0100575Y0057381D03*
X0095725Y0055831D03*
X0093875Y0057381D03*
X0093875Y0059681D03*
X0091575Y0059731D03*
X0093675Y0054431D03*
X0085675Y0055831D03*
X0080925Y0057381D03*
X0080925Y0059681D03*
D46*
X0088525Y0055231D03*
X0090825Y0058081D03*
X0089025Y0062481D03*
X0094525Y0062481D03*
X0101125Y0059031D03*
X0101125Y0058031D03*
D47*
X0101125Y0057981D03*
X0101125Y0059081D03*
X0098525Y0055281D03*
X0090825Y0058031D03*
X0088525Y0055281D03*
X0086175Y0076481D03*
X0097375Y0076481D03*
D48*
X0097350Y0076381D03*
X0086200Y0076381D03*
X0085700Y0059831D03*
X0086300Y0057881D03*
X0085200Y0055331D03*
X0083500Y0057231D03*
X0083500Y0059831D03*
X0088300Y0059831D03*
X0090850Y0057931D03*
X0092900Y0055881D03*
X0092900Y0055831D03*
X0099950Y0055931D03*
X0101100Y0059181D03*
X0099000Y0059831D03*
D49*
X0098575Y0059281D03*
X0100575Y0059581D03*
X0102625Y0059531D03*
X0100575Y0057481D03*
X0099975Y0055631D03*
X0097925Y0055331D03*
X0095725Y0055731D03*
X0091825Y0058331D03*
X0091375Y0058781D03*
X0087925Y0055331D03*
X0085775Y0057481D03*
X0085725Y0059531D03*
X0086275Y0062181D03*
X0097275Y0062181D03*
D50*
X0098600Y0059331D03*
X0099950Y0055581D03*
X0097950Y0055381D03*
X0093900Y0057531D03*
X0093900Y0059531D03*
X0091600Y0059631D03*
X0091550Y0057431D03*
X0087950Y0055431D03*
X0087950Y0055381D03*
X0085700Y0055731D03*
X0080900Y0057531D03*
X0080900Y0059531D03*
X0086300Y0075931D03*
X0097250Y0075931D03*
X0102700Y0057481D03*
D51*
X0102700Y0057531D03*
X0102650Y0059431D03*
X0099950Y0055531D03*
X0098000Y0055531D03*
X0098650Y0059481D03*
X0093900Y0059481D03*
X0093900Y0057581D03*
X0091700Y0058431D03*
X0091500Y0058681D03*
X0088000Y0055531D03*
X0085700Y0055681D03*
X0085800Y0057531D03*
X0086300Y0075881D03*
X0097250Y0075881D03*
D52*
X0097300Y0062131D03*
X0093900Y0059631D03*
X0093900Y0057431D03*
X0095700Y0055781D03*
X0099950Y0055681D03*
X0085700Y0055781D03*
X0086250Y0062131D03*
D53*
X0086250Y0062081D03*
X0091250Y0058831D03*
X0091550Y0057331D03*
X0097300Y0062081D03*
X0099950Y0055731D03*
X0102700Y0057381D03*
D54*
X0101100Y0057931D03*
X0101100Y0059131D03*
X0083500Y0055931D03*
D55*
X0085775Y0057431D03*
X0080925Y0057481D03*
X0091575Y0057381D03*
X0091625Y0059681D03*
X0100575Y0059631D03*
X0100575Y0057431D03*
X0097275Y0075981D03*
X0086275Y0075981D03*
D56*
X0086325Y0062431D03*
X0085725Y0058781D03*
X0085725Y0058731D03*
X0085725Y0058331D03*
X0085725Y0058281D03*
X0091475Y0057681D03*
X0091525Y0057781D03*
X0097225Y0062431D03*
D57*
X0092175Y0059131D03*
X0090825Y0057981D03*
X0086175Y0076431D03*
X0097375Y0076431D03*
D58*
X0101125Y0058981D03*
X0101125Y0058081D03*
X0092225Y0059031D03*
X0090825Y0058131D03*
D59*
X0086325Y0062481D03*
X0097225Y0062481D03*
D60*
X0097200Y0062531D03*
X0086350Y0062531D03*
D61*
X0086350Y0062581D03*
X0097200Y0062581D03*
D62*
X0097175Y0062631D03*
X0086375Y0062631D03*
X0091775Y0078281D03*
D63*
X0091775Y0078231D03*
X0091775Y0078181D03*
X0091775Y0078131D03*
X0091775Y0078081D03*
X0091775Y0078031D03*
X0091775Y0077981D03*
X0086375Y0062681D03*
X0097175Y0062681D03*
D64*
X0097150Y0062731D03*
X0086400Y0062731D03*
D65*
X0086400Y0062781D03*
X0097150Y0062781D03*
D66*
X0097125Y0062831D03*
X0091775Y0076931D03*
X0091775Y0076981D03*
X0091775Y0077031D03*
X0091775Y0077081D03*
X0091775Y0077131D03*
X0086425Y0062831D03*
D67*
X0086425Y0062881D03*
X0091775Y0076681D03*
X0091775Y0076731D03*
X0091775Y0076781D03*
X0091775Y0076831D03*
X0091775Y0076881D03*
X0097125Y0062881D03*
D68*
X0096500Y0062931D03*
X0087050Y0062931D03*
D69*
X0087025Y0062981D03*
X0096525Y0062981D03*
D70*
X0096525Y0063031D03*
X0095575Y0065381D03*
X0087975Y0065381D03*
X0087025Y0063031D03*
X0091775Y0075581D03*
D71*
X0088000Y0065531D03*
X0088000Y0065481D03*
X0088000Y0065431D03*
X0087950Y0065331D03*
X0087900Y0065281D03*
X0087900Y0065231D03*
X0087000Y0063081D03*
X0095550Y0065431D03*
X0095550Y0065481D03*
X0095550Y0065531D03*
X0095600Y0065331D03*
X0095650Y0065281D03*
X0095650Y0065231D03*
X0095700Y0065181D03*
X0096550Y0063081D03*
D72*
X0096550Y0063131D03*
X0095900Y0064781D03*
X0095850Y0064881D03*
X0095800Y0064981D03*
X0095550Y0065631D03*
X0088000Y0065631D03*
X0087750Y0064981D03*
X0087700Y0064881D03*
X0087650Y0064781D03*
X0087000Y0063131D03*
D73*
X0086975Y0063181D03*
X0087575Y0064631D03*
X0087575Y0064681D03*
X0087625Y0064731D03*
X0087675Y0064831D03*
X0088025Y0065681D03*
X0088025Y0065731D03*
X0095525Y0065731D03*
X0095525Y0065681D03*
X0095875Y0064831D03*
X0095925Y0064731D03*
X0095975Y0064681D03*
X0095975Y0064631D03*
X0096575Y0063181D03*
D74*
X0096600Y0063231D03*
X0096100Y0064431D03*
X0096050Y0064531D03*
X0096000Y0064581D03*
X0095550Y0065781D03*
X0088000Y0065781D03*
X0087550Y0064581D03*
X0087500Y0064531D03*
X0087450Y0064431D03*
X0086950Y0063231D03*
D75*
X0086950Y0063281D03*
X0087250Y0064081D03*
X0087300Y0064131D03*
X0087300Y0064181D03*
X0087350Y0064231D03*
X0088000Y0065881D03*
X0087450Y0067281D03*
X0087500Y0070881D03*
X0087550Y0070931D03*
X0096000Y0070931D03*
X0096050Y0070881D03*
X0096100Y0067281D03*
X0095550Y0065881D03*
X0096200Y0064231D03*
X0096250Y0064181D03*
X0096250Y0064131D03*
X0096300Y0064081D03*
X0096600Y0063281D03*
D76*
X0096625Y0063331D03*
X0096425Y0063831D03*
X0096375Y0063931D03*
X0096325Y0063981D03*
X0096325Y0064031D03*
X0095525Y0065931D03*
X0095525Y0065981D03*
X0096025Y0067181D03*
X0096075Y0067231D03*
X0095975Y0070981D03*
X0087575Y0070981D03*
X0087475Y0067231D03*
X0087525Y0067181D03*
X0088025Y0065981D03*
X0088025Y0065931D03*
X0087225Y0064031D03*
X0087225Y0063981D03*
X0087175Y0063931D03*
X0087125Y0063831D03*
X0086925Y0063331D03*
D77*
X0086950Y0063381D03*
X0087050Y0063681D03*
X0087050Y0063731D03*
X0087100Y0063781D03*
X0087150Y0063881D03*
X0087350Y0067331D03*
X0096200Y0067331D03*
X0096400Y0063881D03*
X0096450Y0063781D03*
X0096500Y0063731D03*
X0096500Y0063681D03*
X0096600Y0063381D03*
D78*
X0096625Y0063431D03*
X0096625Y0063481D03*
X0096575Y0063531D03*
X0096575Y0063581D03*
X0096525Y0063631D03*
X0095525Y0066031D03*
X0095525Y0066081D03*
X0095925Y0067081D03*
X0095975Y0067131D03*
X0096175Y0070831D03*
X0095925Y0071031D03*
X0095875Y0071081D03*
X0091775Y0075481D03*
X0087675Y0071081D03*
X0087625Y0071031D03*
X0087375Y0070831D03*
X0087575Y0067131D03*
X0087625Y0067081D03*
X0088025Y0066081D03*
X0088025Y0066031D03*
X0087025Y0063631D03*
X0086975Y0063581D03*
X0086975Y0063531D03*
X0086925Y0063481D03*
X0086925Y0063431D03*
D79*
X0087375Y0064281D03*
X0087375Y0064331D03*
X0087425Y0064381D03*
X0087475Y0064481D03*
X0088025Y0065831D03*
X0091775Y0075531D03*
X0095525Y0065831D03*
X0096075Y0064481D03*
X0096125Y0064381D03*
X0096175Y0064331D03*
X0096175Y0064281D03*
D80*
X0095825Y0064931D03*
X0095775Y0065031D03*
X0095725Y0065081D03*
X0095725Y0065131D03*
X0095525Y0065581D03*
X0088025Y0065581D03*
X0087875Y0065181D03*
X0087825Y0065131D03*
X0087825Y0065081D03*
X0087775Y0065031D03*
X0087725Y0064931D03*
D81*
X0088000Y0066131D03*
X0087650Y0067031D03*
X0087700Y0071131D03*
X0095850Y0071131D03*
X0095900Y0067031D03*
X0095550Y0066131D03*
D82*
X0095525Y0066181D03*
X0095525Y0066231D03*
X0095825Y0066981D03*
X0095775Y0071181D03*
X0087775Y0071181D03*
X0087725Y0066981D03*
X0088025Y0066231D03*
X0088025Y0066181D03*
D83*
X0088025Y0066281D03*
X0088025Y0066331D03*
X0087775Y0066881D03*
X0087225Y0070781D03*
X0087825Y0071231D03*
X0087875Y0071281D03*
X0095675Y0071281D03*
X0095725Y0071231D03*
X0096325Y0070781D03*
X0095775Y0066881D03*
X0095525Y0066331D03*
X0095525Y0066281D03*
D84*
X0095550Y0066381D03*
X0095700Y0066831D03*
X0088000Y0066381D03*
X0087850Y0066831D03*
D85*
X0087875Y0066781D03*
X0088025Y0066481D03*
X0088025Y0066431D03*
X0087925Y0071331D03*
X0091775Y0075431D03*
X0095625Y0071331D03*
X0095675Y0066781D03*
X0095525Y0066481D03*
X0095525Y0066431D03*
D86*
X0095525Y0066531D03*
X0095525Y0066581D03*
X0095575Y0066631D03*
X0095575Y0066681D03*
X0096525Y0067431D03*
X0096475Y0070731D03*
X0095575Y0071381D03*
X0087975Y0071381D03*
X0087075Y0070731D03*
X0087975Y0066681D03*
X0087975Y0066631D03*
X0088025Y0066581D03*
X0088025Y0066531D03*
D87*
X0087950Y0066731D03*
X0095600Y0066731D03*
D88*
X0095800Y0066931D03*
X0096350Y0067381D03*
X0087750Y0066931D03*
X0087200Y0067381D03*
D89*
X0087050Y0067431D03*
D90*
X0086900Y0067481D03*
X0086900Y0070681D03*
X0088150Y0071481D03*
X0095400Y0071481D03*
X0096650Y0070681D03*
X0096650Y0067481D03*
D91*
X0096825Y0067531D03*
X0096775Y0070631D03*
X0086775Y0070631D03*
X0086725Y0067531D03*
D92*
X0086575Y0067581D03*
X0086625Y0070581D03*
X0096925Y0070581D03*
X0096975Y0067581D03*
D93*
X0097125Y0067631D03*
X0086425Y0067631D03*
D94*
X0086275Y0067681D03*
X0085875Y0068581D03*
X0085875Y0068631D03*
X0085875Y0068681D03*
X0085875Y0068731D03*
X0085875Y0068781D03*
X0085875Y0068831D03*
X0085875Y0068881D03*
X0085875Y0069331D03*
X0085875Y0069381D03*
X0085875Y0069431D03*
X0085875Y0069481D03*
X0085875Y0069531D03*
X0085875Y0069581D03*
X0097275Y0067681D03*
X0097675Y0068581D03*
X0097675Y0068631D03*
X0097675Y0068681D03*
X0097675Y0068731D03*
X0097675Y0068781D03*
X0097675Y0068831D03*
X0097675Y0068881D03*
X0097675Y0069331D03*
X0097675Y0069381D03*
X0097675Y0069431D03*
X0097675Y0069481D03*
X0097675Y0069531D03*
X0097675Y0069581D03*
D95*
X0097575Y0070081D03*
X0097575Y0070131D03*
X0097575Y0068031D03*
X0097575Y0067981D03*
X0097525Y0067881D03*
X0097475Y0067781D03*
X0097425Y0067731D03*
X0086125Y0067731D03*
X0086075Y0067781D03*
X0086025Y0067881D03*
X0085975Y0067981D03*
X0085975Y0068031D03*
X0085975Y0070081D03*
X0085975Y0070131D03*
D96*
X0086000Y0070181D03*
X0086000Y0070231D03*
X0086050Y0070281D03*
X0086050Y0070331D03*
X0086100Y0070381D03*
X0086000Y0067931D03*
X0086050Y0067831D03*
X0097500Y0067831D03*
X0097550Y0067931D03*
X0097550Y0070181D03*
X0097550Y0070231D03*
X0097500Y0070281D03*
X0097500Y0070331D03*
X0097450Y0070381D03*
D97*
X0097400Y0070431D03*
X0097600Y0070031D03*
X0097600Y0069981D03*
X0097600Y0068181D03*
X0097600Y0068131D03*
X0097600Y0068081D03*
X0085950Y0068081D03*
X0085950Y0068131D03*
X0085950Y0068181D03*
X0085950Y0069981D03*
X0085950Y0070031D03*
X0086150Y0070431D03*
D98*
X0085925Y0069931D03*
X0085925Y0069881D03*
X0085925Y0069831D03*
X0085925Y0068331D03*
X0085925Y0068281D03*
X0085925Y0068231D03*
X0097625Y0068231D03*
X0097625Y0068281D03*
X0097625Y0068331D03*
X0097625Y0069831D03*
X0097625Y0069881D03*
X0097625Y0069931D03*
D99*
X0097650Y0069781D03*
X0097650Y0069731D03*
X0097650Y0069681D03*
X0097650Y0069631D03*
X0097650Y0068531D03*
X0097650Y0068481D03*
X0097650Y0068431D03*
X0097650Y0068381D03*
X0085900Y0068381D03*
X0085900Y0068431D03*
X0085900Y0068481D03*
X0085900Y0068531D03*
X0085900Y0069631D03*
X0085900Y0069681D03*
X0085900Y0069731D03*
X0085900Y0069781D03*
D100*
X0085850Y0069281D03*
X0085850Y0069231D03*
X0085850Y0069181D03*
X0085850Y0069131D03*
X0085850Y0069081D03*
X0085850Y0069031D03*
X0085850Y0068981D03*
X0085850Y0068931D03*
X0086300Y0070481D03*
X0097250Y0070481D03*
X0097700Y0069281D03*
X0097700Y0069231D03*
X0097700Y0069181D03*
X0097700Y0069131D03*
X0097700Y0069081D03*
X0097700Y0069031D03*
X0097700Y0068981D03*
X0097700Y0068931D03*
D101*
X0097100Y0070531D03*
X0086450Y0070531D03*
D102*
X0088075Y0071431D03*
X0091775Y0075381D03*
X0095475Y0071431D03*
D103*
X0095275Y0071531D03*
X0088275Y0071531D03*
D104*
X0091775Y0071581D03*
X0091775Y0073281D03*
D105*
X0091775Y0073231D03*
X0091775Y0073181D03*
X0091775Y0071681D03*
X0091775Y0071631D03*
D106*
X0091775Y0071731D03*
X0091775Y0071781D03*
X0091775Y0071831D03*
X0091775Y0073131D03*
D107*
X0091775Y0073081D03*
X0091775Y0073031D03*
X0091775Y0071931D03*
X0091775Y0071881D03*
D108*
X0091775Y0071981D03*
X0091775Y0072031D03*
X0091775Y0072981D03*
D109*
X0091775Y0072931D03*
X0091775Y0072881D03*
X0091775Y0072181D03*
X0091775Y0072131D03*
X0091775Y0072081D03*
D110*
X0091775Y0072231D03*
X0091775Y0072281D03*
X0091775Y0072831D03*
D111*
X0091775Y0072781D03*
X0091775Y0072731D03*
X0091775Y0072381D03*
X0091775Y0072331D03*
D112*
X0091775Y0072431D03*
X0091775Y0072481D03*
X0091775Y0072531D03*
X0091775Y0072681D03*
D113*
X0091775Y0072631D03*
X0091775Y0072581D03*
D114*
X0091775Y0073331D03*
X0091775Y0073381D03*
D115*
X0091775Y0073431D03*
D116*
X0091775Y0073481D03*
D117*
X0091775Y0073531D03*
X0091775Y0073581D03*
D118*
X0091775Y0073631D03*
D119*
X0091775Y0073681D03*
X0091775Y0073731D03*
D120*
X0091775Y0073781D03*
D121*
X0091775Y0073831D03*
X0091775Y0073881D03*
D122*
X0091775Y0073931D03*
D123*
X0091775Y0073981D03*
X0091775Y0074031D03*
D124*
X0091775Y0074081D03*
X0091775Y0075131D03*
D125*
X0091775Y0075081D03*
X0091775Y0074181D03*
X0091775Y0074131D03*
D126*
X0091775Y0074231D03*
X0091775Y0075031D03*
D127*
X0091775Y0074981D03*
X0091775Y0074281D03*
D128*
X0091775Y0074331D03*
X0091775Y0074381D03*
X0091775Y0074931D03*
D129*
X0091775Y0074881D03*
X0091775Y0074431D03*
D130*
X0091775Y0074481D03*
X0091775Y0074531D03*
X0091775Y0074831D03*
D131*
X0091775Y0074781D03*
X0091775Y0074731D03*
X0091775Y0074631D03*
X0091775Y0074581D03*
D132*
X0091775Y0074681D03*
D133*
X0091775Y0076131D03*
X0091775Y0076181D03*
X0091775Y0076231D03*
X0091775Y0076281D03*
X0091775Y0076331D03*
X0086475Y0075181D03*
X0097075Y0075181D03*
D134*
X0091775Y0075181D03*
D135*
X0086450Y0075231D03*
X0097100Y0075231D03*
D136*
X0091775Y0075231D03*
D137*
X0086450Y0075281D03*
X0097100Y0075281D03*
D138*
X0091775Y0075281D03*
D139*
X0091775Y0077181D03*
X0091775Y0077231D03*
X0091775Y0077281D03*
X0091775Y0077331D03*
X0091775Y0077381D03*
X0091775Y0077431D03*
X0086425Y0075331D03*
X0097125Y0075331D03*
D140*
X0091775Y0075331D03*
D141*
X0091775Y0077481D03*
X0091775Y0077531D03*
X0091775Y0077581D03*
X0091775Y0077631D03*
X0091775Y0077681D03*
X0086425Y0075381D03*
X0097125Y0075381D03*
D142*
X0091775Y0077731D03*
X0091775Y0077781D03*
X0091775Y0077831D03*
X0091775Y0077881D03*
X0091775Y0077931D03*
X0086425Y0075431D03*
D143*
X0097150Y0075431D03*
D144*
X0097150Y0075481D03*
X0086400Y0075481D03*
D145*
X0086400Y0075531D03*
X0097150Y0075531D03*
D146*
X0097175Y0075581D03*
X0086375Y0075581D03*
D147*
X0086375Y0075631D03*
X0097175Y0075631D03*
D148*
X0091775Y0075631D03*
D149*
X0091775Y0075681D03*
D150*
X0091775Y0075731D03*
D151*
X0091775Y0075781D03*
D152*
X0091775Y0075831D03*
D153*
X0091775Y0075881D03*
X0091775Y0075931D03*
X0091775Y0075981D03*
X0091775Y0076031D03*
X0091775Y0076081D03*
D154*
X0091775Y0076381D03*
X0091775Y0076431D03*
X0091775Y0076481D03*
X0091775Y0076531D03*
X0091775Y0076581D03*
X0091775Y0076631D03*
D155*
X0073708Y0090006D03*
X0049276Y0084006D03*
D156*
X0049924Y0087846D03*
X0073732Y0084006D03*
D157*
X0077692Y0086982D03*
X0077884Y0091590D03*
X0049276Y0084054D03*
X0040684Y0094422D03*
D158*
X0073708Y0086982D03*
X0073708Y0084054D03*
X0077692Y0086790D03*
D159*
X0069772Y0087270D03*
X0049180Y0084102D03*
D160*
X0069604Y0091110D03*
X0073732Y0084102D03*
X0077860Y0091110D03*
D161*
X0078028Y0089862D03*
X0077884Y0088182D03*
X0077836Y0088086D03*
X0077836Y0087990D03*
X0077788Y0087894D03*
X0077740Y0087750D03*
X0077692Y0087654D03*
X0077644Y0087462D03*
X0077644Y0087414D03*
X0069820Y0087462D03*
X0069628Y0087990D03*
X0069580Y0088086D03*
X0069436Y0089862D03*
X0063148Y0084294D03*
X0049084Y0084150D03*
X0039676Y0098262D03*
D162*
X0069604Y0090294D03*
X0073732Y0084150D03*
X0077860Y0090294D03*
X0077812Y0090390D03*
X0077764Y0090726D03*
D163*
X0065500Y0087894D03*
X0064108Y0091158D03*
X0064108Y0092454D03*
X0064780Y0094182D03*
X0059308Y0094182D03*
X0059308Y0094230D03*
X0059308Y0094086D03*
X0059308Y0093990D03*
X0059308Y0093894D03*
X0059308Y0093798D03*
X0059308Y0093750D03*
X0059308Y0093654D03*
X0059308Y0093558D03*
X0059308Y0093462D03*
X0059308Y0093414D03*
X0059308Y0093318D03*
X0059308Y0093222D03*
X0059308Y0093126D03*
X0059308Y0093030D03*
X0059308Y0092982D03*
X0059308Y0092886D03*
X0059308Y0092790D03*
X0059308Y0092694D03*
X0059308Y0092598D03*
X0059308Y0092550D03*
X0059308Y0092454D03*
X0059308Y0092358D03*
X0059308Y0092262D03*
X0059308Y0092214D03*
X0059308Y0092118D03*
X0059308Y0092022D03*
X0059308Y0091926D03*
X0059308Y0091830D03*
X0059308Y0091782D03*
X0059308Y0091686D03*
X0059308Y0091590D03*
X0059308Y0091494D03*
X0059308Y0091398D03*
X0059308Y0091350D03*
X0059308Y0091254D03*
X0059308Y0091158D03*
X0059308Y0091062D03*
X0059308Y0091014D03*
X0059308Y0090918D03*
X0059308Y0090822D03*
X0059308Y0090726D03*
X0059308Y0090630D03*
X0059308Y0090582D03*
X0059308Y0090486D03*
X0059308Y0090390D03*
X0059308Y0090294D03*
X0059308Y0090198D03*
X0059308Y0090150D03*
X0059308Y0090054D03*
X0059308Y0089958D03*
X0059308Y0089862D03*
X0059308Y0089814D03*
X0059308Y0089718D03*
X0059308Y0089622D03*
X0059308Y0089526D03*
X0059308Y0089430D03*
X0059308Y0089382D03*
X0059308Y0089286D03*
X0059308Y0089190D03*
X0059308Y0089094D03*
X0059308Y0088998D03*
X0059308Y0088950D03*
X0059308Y0088854D03*
X0059308Y0088758D03*
X0059308Y0088662D03*
X0059308Y0088614D03*
X0059308Y0088518D03*
X0059308Y0088422D03*
X0059308Y0088326D03*
X0059308Y0088230D03*
X0059308Y0088182D03*
X0059308Y0088086D03*
X0059308Y0087990D03*
X0059308Y0087894D03*
X0059308Y0087798D03*
X0059308Y0087750D03*
X0059308Y0087654D03*
X0059308Y0087558D03*
X0059308Y0087462D03*
X0059308Y0087414D03*
X0059308Y0087318D03*
X0059308Y0087222D03*
X0059308Y0087126D03*
X0059308Y0087030D03*
X0059308Y0086982D03*
X0059308Y0086886D03*
X0059308Y0086790D03*
X0059308Y0086694D03*
X0059308Y0086598D03*
X0059308Y0086550D03*
X0059308Y0086454D03*
X0059308Y0086358D03*
X0059308Y0086262D03*
X0059308Y0086214D03*
X0059308Y0086118D03*
X0059308Y0086022D03*
X0059308Y0085926D03*
X0059308Y0085830D03*
X0059308Y0085782D03*
X0059308Y0085686D03*
X0059308Y0085590D03*
X0059308Y0085494D03*
X0059308Y0085398D03*
X0059308Y0085350D03*
X0059308Y0085254D03*
X0059308Y0085158D03*
X0059308Y0085062D03*
X0059308Y0085014D03*
X0059308Y0084918D03*
X0059308Y0084822D03*
X0059308Y0084726D03*
X0059308Y0084630D03*
X0059308Y0084582D03*
X0059308Y0084486D03*
X0059308Y0084390D03*
X0059308Y0084294D03*
X0059308Y0084198D03*
X0052540Y0090054D03*
X0049420Y0094182D03*
X0036508Y0093798D03*
X0036508Y0093750D03*
X0036460Y0093558D03*
X0036460Y0093462D03*
X0036460Y0093414D03*
X0036412Y0084198D03*
D164*
X0048988Y0084198D03*
X0049372Y0094422D03*
X0069532Y0090054D03*
X0069580Y0090150D03*
X0069580Y0090198D03*
X0069676Y0090726D03*
X0077884Y0090198D03*
X0077884Y0090150D03*
D165*
X0063940Y0091398D03*
X0052756Y0084198D03*
D166*
X0062524Y0084198D03*
X0073708Y0087654D03*
X0039628Y0098358D03*
D167*
X0073732Y0094758D03*
X0073732Y0084198D03*
D168*
X0073732Y0084438D03*
X0064132Y0091110D03*
X0064132Y0092502D03*
X0036532Y0093846D03*
X0036532Y0093942D03*
X0036436Y0093270D03*
X0036436Y0093174D03*
X0036436Y0093078D03*
X0036436Y0092934D03*
X0036436Y0092838D03*
X0036436Y0092742D03*
X0036436Y0092646D03*
X0036436Y0092502D03*
X0036436Y0092406D03*
X0036436Y0092310D03*
X0036436Y0092166D03*
X0036436Y0092070D03*
X0036436Y0091974D03*
X0036436Y0091878D03*
X0036436Y0091734D03*
X0036436Y0091638D03*
X0036436Y0087702D03*
X0036436Y0087606D03*
X0036436Y0087510D03*
X0036436Y0087366D03*
X0036436Y0087270D03*
X0036436Y0087174D03*
X0036436Y0087078D03*
X0036436Y0086934D03*
X0036436Y0086838D03*
X0036436Y0086742D03*
X0036436Y0086646D03*
X0036436Y0086502D03*
X0036436Y0086406D03*
X0036436Y0086310D03*
X0036436Y0086166D03*
X0036436Y0086070D03*
X0036436Y0085974D03*
X0036436Y0085878D03*
X0036436Y0085734D03*
X0036436Y0085638D03*
X0036436Y0085542D03*
X0036436Y0085446D03*
X0036436Y0085302D03*
X0036436Y0085206D03*
X0036436Y0085110D03*
X0036436Y0084966D03*
X0036436Y0084870D03*
X0036436Y0084774D03*
X0036436Y0084678D03*
X0036436Y0084534D03*
X0036436Y0084438D03*
X0036436Y0084342D03*
X0036436Y0084246D03*
D169*
X0048892Y0084246D03*
D170*
X0052732Y0084246D03*
X0052732Y0084342D03*
X0052732Y0084438D03*
X0052732Y0084534D03*
X0052732Y0084678D03*
X0052732Y0084774D03*
X0052732Y0084870D03*
X0052732Y0084966D03*
X0052732Y0085110D03*
X0052732Y0085206D03*
X0052732Y0085302D03*
X0052732Y0085446D03*
X0052732Y0085542D03*
X0052732Y0085638D03*
X0052732Y0085734D03*
X0052732Y0085878D03*
X0052732Y0085974D03*
X0052732Y0086070D03*
X0052732Y0086166D03*
X0052732Y0086310D03*
X0052732Y0086406D03*
X0052732Y0086502D03*
X0052732Y0086646D03*
X0052732Y0086742D03*
X0052732Y0086838D03*
X0052732Y0086934D03*
X0052732Y0087078D03*
X0052732Y0087174D03*
X0052732Y0087270D03*
X0052732Y0087366D03*
X0052732Y0087510D03*
X0052732Y0087606D03*
X0052732Y0087702D03*
X0052732Y0087846D03*
X0052732Y0087942D03*
X0052732Y0088038D03*
X0052732Y0088134D03*
X0052732Y0088278D03*
X0052732Y0088374D03*
X0052732Y0088470D03*
X0052732Y0088566D03*
X0052732Y0088710D03*
X0052732Y0088806D03*
X0052732Y0088902D03*
X0052732Y0089046D03*
X0052732Y0089142D03*
X0052732Y0089238D03*
X0052732Y0089334D03*
X0073708Y0086070D03*
D171*
X0073708Y0085974D03*
X0059308Y0085974D03*
X0059308Y0086070D03*
X0059308Y0086166D03*
X0059308Y0086310D03*
X0059308Y0086406D03*
X0059308Y0086502D03*
X0059308Y0086646D03*
X0059308Y0086742D03*
X0059308Y0086838D03*
X0059308Y0086934D03*
X0059308Y0087078D03*
X0059308Y0087174D03*
X0059308Y0087270D03*
X0059308Y0087366D03*
X0059308Y0087510D03*
X0059308Y0087606D03*
X0059308Y0087702D03*
X0059308Y0087846D03*
X0059308Y0087942D03*
X0059308Y0088038D03*
X0059308Y0088134D03*
X0059308Y0088278D03*
X0059308Y0088374D03*
X0059308Y0088470D03*
X0059308Y0088566D03*
X0059308Y0088710D03*
X0059308Y0088806D03*
X0059308Y0088902D03*
X0059308Y0089046D03*
X0059308Y0089142D03*
X0059308Y0089238D03*
X0059308Y0089334D03*
X0059308Y0089478D03*
X0059308Y0089574D03*
X0059308Y0089670D03*
X0059308Y0089766D03*
X0059308Y0089910D03*
X0059308Y0090006D03*
X0059308Y0090102D03*
X0059308Y0090246D03*
X0059308Y0090342D03*
X0059308Y0090438D03*
X0059308Y0090534D03*
X0059308Y0090678D03*
X0059308Y0090774D03*
X0059308Y0090870D03*
X0059308Y0090966D03*
X0059308Y0091110D03*
X0059308Y0091206D03*
X0059308Y0091302D03*
X0059308Y0091446D03*
X0059308Y0091542D03*
X0059308Y0091638D03*
X0059308Y0091734D03*
X0059308Y0091878D03*
X0059308Y0091974D03*
X0059308Y0092070D03*
X0059308Y0092166D03*
X0059308Y0092310D03*
X0059308Y0092406D03*
X0059308Y0092502D03*
X0059308Y0092646D03*
X0059308Y0092742D03*
X0059308Y0092838D03*
X0059308Y0092934D03*
X0059308Y0093078D03*
X0059308Y0093174D03*
X0059308Y0093270D03*
X0059308Y0093366D03*
X0059308Y0093510D03*
X0059308Y0093606D03*
X0059308Y0093702D03*
X0059308Y0093846D03*
X0059308Y0093942D03*
X0059308Y0094038D03*
X0059308Y0094134D03*
X0059308Y0085878D03*
X0059308Y0085734D03*
X0059308Y0085638D03*
X0059308Y0085542D03*
X0059308Y0085446D03*
X0059308Y0085302D03*
X0059308Y0085206D03*
X0059308Y0085110D03*
X0059308Y0084966D03*
X0059308Y0084870D03*
X0059308Y0084774D03*
X0059308Y0084678D03*
X0059308Y0084534D03*
X0059308Y0084438D03*
X0059308Y0084342D03*
X0059308Y0084246D03*
X0052540Y0090102D03*
X0046060Y0090006D03*
X0046108Y0088278D03*
X0036460Y0093366D03*
X0036460Y0093510D03*
X0036460Y0093606D03*
D172*
X0062980Y0084246D03*
X0069556Y0091302D03*
X0069892Y0092070D03*
X0073732Y0088710D03*
X0073732Y0086406D03*
X0077668Y0087174D03*
X0077524Y0092070D03*
D173*
X0073708Y0094710D03*
X0073708Y0084246D03*
D174*
X0073732Y0094518D03*
X0064132Y0085158D03*
X0048100Y0085062D03*
X0046132Y0088230D03*
X0036436Y0087750D03*
X0036436Y0087654D03*
X0036436Y0087558D03*
X0036436Y0087462D03*
X0036436Y0087414D03*
X0036436Y0087318D03*
X0036436Y0087222D03*
X0036436Y0087126D03*
X0036436Y0087030D03*
X0036436Y0086982D03*
X0036436Y0086886D03*
X0036436Y0086790D03*
X0036436Y0086694D03*
X0036436Y0086598D03*
X0036436Y0086550D03*
X0036436Y0086454D03*
X0036436Y0086358D03*
X0036436Y0086262D03*
X0036436Y0086214D03*
X0036436Y0086118D03*
X0036436Y0086022D03*
X0036436Y0085926D03*
X0036436Y0085830D03*
X0036436Y0085782D03*
X0036436Y0085686D03*
X0036436Y0085590D03*
X0036436Y0085494D03*
X0036436Y0085398D03*
X0036436Y0085350D03*
X0036436Y0085254D03*
X0036436Y0085158D03*
X0036436Y0085062D03*
X0036436Y0085014D03*
X0036436Y0084918D03*
X0036436Y0084822D03*
X0036436Y0084726D03*
X0036436Y0084630D03*
X0036436Y0084582D03*
X0036436Y0084486D03*
X0036436Y0084390D03*
X0036436Y0084294D03*
X0036436Y0091590D03*
X0036436Y0091686D03*
X0036436Y0091782D03*
X0036436Y0091830D03*
X0036436Y0091926D03*
X0036436Y0092022D03*
X0036436Y0092118D03*
X0036436Y0092214D03*
X0036436Y0092262D03*
X0036436Y0092358D03*
X0036436Y0092454D03*
X0036436Y0092550D03*
X0036436Y0092598D03*
X0036436Y0092694D03*
X0036436Y0092790D03*
X0036436Y0092886D03*
X0036436Y0092982D03*
X0036436Y0093030D03*
X0036436Y0093126D03*
X0036436Y0093222D03*
X0036436Y0093318D03*
X0036532Y0093894D03*
D175*
X0048820Y0084294D03*
D176*
X0048268Y0084822D03*
X0052732Y0084822D03*
X0052732Y0084918D03*
X0052732Y0085014D03*
X0052732Y0085062D03*
X0052732Y0085158D03*
X0052732Y0085254D03*
X0052732Y0085350D03*
X0052732Y0085398D03*
X0052732Y0085494D03*
X0052732Y0085590D03*
X0052732Y0085686D03*
X0052732Y0085782D03*
X0052732Y0085830D03*
X0052732Y0085926D03*
X0052732Y0086022D03*
X0052732Y0086118D03*
X0052732Y0086214D03*
X0052732Y0086262D03*
X0052732Y0086358D03*
X0052732Y0086454D03*
X0052732Y0086550D03*
X0052732Y0086598D03*
X0052732Y0086694D03*
X0052732Y0086790D03*
X0052732Y0086886D03*
X0052732Y0086982D03*
X0052732Y0087030D03*
X0052732Y0087126D03*
X0052732Y0087222D03*
X0052732Y0087318D03*
X0052732Y0087414D03*
X0052732Y0087462D03*
X0052732Y0087558D03*
X0052732Y0087654D03*
X0052732Y0087750D03*
X0052732Y0087798D03*
X0052732Y0087894D03*
X0052732Y0087990D03*
X0052732Y0088086D03*
X0052732Y0088182D03*
X0052732Y0088230D03*
X0052732Y0088326D03*
X0052732Y0088422D03*
X0052732Y0088518D03*
X0052732Y0088614D03*
X0052732Y0088662D03*
X0052732Y0088758D03*
X0052732Y0088854D03*
X0052732Y0088950D03*
X0052732Y0088998D03*
X0052732Y0089094D03*
X0052732Y0089190D03*
X0052732Y0089286D03*
X0052732Y0084726D03*
X0052732Y0084630D03*
X0052732Y0084582D03*
X0052732Y0084486D03*
X0052732Y0084390D03*
X0052732Y0084294D03*
X0063964Y0084918D03*
X0065596Y0088950D03*
X0063964Y0091350D03*
X0063964Y0092118D03*
X0039628Y0098022D03*
D177*
X0048484Y0084582D03*
X0063748Y0091590D03*
X0071284Y0092982D03*
X0071332Y0093030D03*
X0073732Y0094662D03*
X0076132Y0093030D03*
X0073732Y0084294D03*
D178*
X0048748Y0084342D03*
D179*
X0063268Y0084342D03*
X0069604Y0090342D03*
X0073732Y0094806D03*
X0077764Y0090678D03*
X0077812Y0090342D03*
X0077860Y0090246D03*
D180*
X0073732Y0084342D03*
X0065668Y0088806D03*
D181*
X0063532Y0084486D03*
X0048700Y0084390D03*
D182*
X0063388Y0084390D03*
D183*
X0064012Y0092214D03*
X0073708Y0084390D03*
X0052684Y0089622D03*
X0045916Y0089526D03*
X0045916Y0089430D03*
X0045916Y0089382D03*
X0045916Y0088950D03*
X0045916Y0088854D03*
X0045916Y0088758D03*
X0045964Y0088662D03*
X0045964Y0088614D03*
D184*
X0048652Y0084438D03*
D185*
X0063460Y0084438D03*
D186*
X0063652Y0084582D03*
X0049396Y0094326D03*
X0048580Y0084486D03*
D187*
X0046228Y0090294D03*
X0064228Y0092790D03*
X0064228Y0085350D03*
X0073732Y0084486D03*
D188*
X0063700Y0091638D03*
X0048532Y0084534D03*
D189*
X0063604Y0084534D03*
D190*
X0073708Y0084534D03*
X0047884Y0085446D03*
D191*
X0064444Y0085830D03*
X0064444Y0090486D03*
X0073708Y0084582D03*
D192*
X0071236Y0092886D03*
X0064900Y0093318D03*
X0064804Y0093126D03*
X0063796Y0091782D03*
X0063796Y0084726D03*
X0048436Y0084630D03*
D193*
X0063700Y0084630D03*
D194*
X0064540Y0086118D03*
X0064540Y0090198D03*
X0073708Y0094326D03*
X0073708Y0084630D03*
X0049420Y0093990D03*
X0047692Y0085830D03*
D195*
X0048388Y0084678D03*
X0039652Y0098070D03*
X0063844Y0091878D03*
X0065716Y0088566D03*
X0063844Y0084774D03*
X0071140Y0092646D03*
X0071188Y0092742D03*
D196*
X0063748Y0084678D03*
D197*
X0064636Y0086502D03*
X0064636Y0089910D03*
X0073708Y0094278D03*
X0073708Y0084678D03*
X0049420Y0093942D03*
X0047596Y0086070D03*
D198*
X0048364Y0084726D03*
X0063868Y0091926D03*
X0064732Y0093030D03*
X0064972Y0093894D03*
X0065692Y0088758D03*
X0065740Y0088518D03*
X0065740Y0088422D03*
X0065740Y0088326D03*
D199*
X0064708Y0089430D03*
X0064708Y0089526D03*
X0064708Y0086982D03*
X0064708Y0086886D03*
X0073732Y0084726D03*
X0073732Y0094230D03*
X0047524Y0086262D03*
D200*
X0048316Y0084774D03*
X0063916Y0084870D03*
X0065692Y0088134D03*
X0071020Y0092406D03*
X0076396Y0092406D03*
D201*
X0073708Y0084774D03*
X0064780Y0087510D03*
X0064780Y0087606D03*
X0064780Y0087702D03*
X0047452Y0086502D03*
D202*
X0063892Y0084822D03*
X0065716Y0088182D03*
X0065716Y0088230D03*
X0064660Y0092982D03*
X0071044Y0092454D03*
X0071092Y0092550D03*
D203*
X0073732Y0084822D03*
X0060052Y0098022D03*
X0047380Y0086694D03*
D204*
X0048244Y0084870D03*
X0045892Y0089046D03*
X0045892Y0089142D03*
X0045892Y0089238D03*
X0045892Y0089334D03*
X0052708Y0089478D03*
X0063988Y0091302D03*
X0063988Y0092166D03*
X0063988Y0084966D03*
D205*
X0073732Y0084870D03*
X0047284Y0087078D03*
D206*
X0045988Y0088518D03*
X0045940Y0089622D03*
X0045940Y0089718D03*
X0048196Y0084918D03*
X0052660Y0089718D03*
X0064036Y0091254D03*
X0064036Y0092262D03*
X0064036Y0085014D03*
X0073732Y0086022D03*
D207*
X0073708Y0084918D03*
X0047212Y0087414D03*
X0047212Y0087462D03*
D208*
X0046012Y0088470D03*
X0048172Y0084966D03*
X0052588Y0089910D03*
X0064060Y0091206D03*
X0064060Y0092310D03*
D209*
X0073732Y0084966D03*
D210*
X0064084Y0092358D03*
X0064420Y0092886D03*
X0048148Y0085014D03*
X0046084Y0088326D03*
X0046036Y0088422D03*
X0046036Y0089958D03*
D211*
X0049444Y0093654D03*
X0073732Y0085014D03*
D212*
X0064060Y0085062D03*
X0052588Y0089958D03*
X0046012Y0089862D03*
X0046012Y0089814D03*
D213*
X0073708Y0093894D03*
X0073708Y0085062D03*
D214*
X0064156Y0085206D03*
X0048076Y0085110D03*
X0046108Y0090102D03*
X0036604Y0094134D03*
D215*
X0039652Y0097974D03*
X0046036Y0089910D03*
X0046036Y0088374D03*
X0052564Y0090006D03*
X0064084Y0092406D03*
X0065428Y0089046D03*
X0064084Y0085110D03*
D216*
X0073732Y0085110D03*
X0073732Y0093846D03*
D217*
X0064204Y0092694D03*
X0064204Y0091014D03*
X0048028Y0085158D03*
X0036652Y0094230D03*
D218*
X0073732Y0093798D03*
X0073732Y0085158D03*
D219*
X0073732Y0094470D03*
X0064228Y0090966D03*
X0049396Y0094134D03*
X0048004Y0085206D03*
D220*
X0073708Y0085206D03*
D221*
X0064252Y0085398D03*
X0064252Y0090918D03*
X0064636Y0094230D03*
X0052348Y0090390D03*
X0047980Y0085254D03*
X0046300Y0087990D03*
D222*
X0046228Y0088086D03*
X0046180Y0090198D03*
X0052420Y0090294D03*
X0064180Y0091062D03*
X0064180Y0085254D03*
X0073732Y0085926D03*
X0039652Y0097926D03*
X0036628Y0094182D03*
D223*
X0073732Y0085254D03*
D224*
X0064276Y0085446D03*
X0064276Y0090870D03*
X0047956Y0085302D03*
X0046276Y0090342D03*
X0039652Y0097878D03*
X0036772Y0094374D03*
D225*
X0036700Y0094278D03*
X0046204Y0090246D03*
X0046252Y0088038D03*
X0052396Y0090342D03*
X0064204Y0092742D03*
X0064204Y0085302D03*
D226*
X0073732Y0085302D03*
D227*
X0064300Y0085494D03*
X0064300Y0090822D03*
X0047932Y0085350D03*
X0046300Y0090390D03*
D228*
X0039652Y0097014D03*
X0038116Y0094518D03*
X0073732Y0085350D03*
D229*
X0047908Y0085398D03*
D230*
X0060820Y0097782D03*
X0073732Y0093558D03*
X0073732Y0085398D03*
D231*
X0073708Y0085446D03*
X0073708Y0093510D03*
X0060892Y0097734D03*
X0038284Y0094710D03*
D232*
X0046420Y0090486D03*
X0047860Y0085494D03*
X0064372Y0085686D03*
D233*
X0073708Y0085494D03*
X0073708Y0093462D03*
D234*
X0064396Y0085734D03*
X0047836Y0085542D03*
D235*
X0046372Y0090438D03*
X0064324Y0090774D03*
X0064324Y0085542D03*
D236*
X0073708Y0085542D03*
X0038428Y0094902D03*
D237*
X0047812Y0085590D03*
X0064420Y0085782D03*
X0064420Y0090582D03*
D238*
X0064348Y0090726D03*
X0064348Y0085590D03*
X0073708Y0094422D03*
X0052252Y0090486D03*
X0049420Y0094086D03*
X0046396Y0087894D03*
X0036844Y0094422D03*
D239*
X0038524Y0094998D03*
X0073708Y0085590D03*
D240*
X0073708Y0094374D03*
X0064444Y0085878D03*
X0049420Y0094038D03*
X0047788Y0085638D03*
D241*
X0064372Y0085638D03*
X0064372Y0090678D03*
D242*
X0073708Y0085638D03*
D243*
X0064468Y0085926D03*
X0047764Y0085686D03*
D244*
X0073708Y0085686D03*
D245*
X0064492Y0085974D03*
X0047740Y0085734D03*
D246*
X0049420Y0092934D03*
X0073708Y0085734D03*
D247*
X0064516Y0086022D03*
X0064516Y0090294D03*
X0047716Y0085782D03*
D248*
X0039652Y0096582D03*
X0061204Y0097494D03*
X0073732Y0085782D03*
D249*
X0073732Y0087030D03*
X0073732Y0088326D03*
X0073732Y0089814D03*
X0070228Y0086022D03*
X0070324Y0085926D03*
X0070420Y0085830D03*
X0069124Y0088422D03*
X0077044Y0085830D03*
X0077140Y0085926D03*
X0078340Y0088422D03*
D250*
X0073732Y0085830D03*
D251*
X0064564Y0090102D03*
X0047668Y0085878D03*
D252*
X0069748Y0086742D03*
X0070180Y0086070D03*
X0070276Y0085974D03*
X0070372Y0085878D03*
X0075268Y0092310D03*
X0077716Y0086742D03*
X0077188Y0085974D03*
X0077092Y0085878D03*
D253*
X0073708Y0085878D03*
X0064252Y0092838D03*
D254*
X0064588Y0090054D03*
X0064588Y0086358D03*
X0047644Y0085926D03*
D255*
X0047620Y0085974D03*
X0064612Y0086406D03*
X0064612Y0090006D03*
D256*
X0064612Y0089958D03*
X0047620Y0086022D03*
D257*
X0069724Y0086694D03*
X0070012Y0086262D03*
X0070060Y0086214D03*
X0070156Y0086118D03*
X0072220Y0092262D03*
X0075244Y0092262D03*
X0077308Y0086118D03*
X0077212Y0086022D03*
D258*
X0064516Y0086070D03*
X0064516Y0090342D03*
D259*
X0070108Y0086166D03*
X0073708Y0087078D03*
X0077260Y0086070D03*
X0077356Y0086166D03*
D260*
X0064660Y0086598D03*
X0064660Y0086694D03*
X0064660Y0089718D03*
X0064660Y0089814D03*
X0047572Y0086118D03*
X0039652Y0097686D03*
D261*
X0073732Y0094614D03*
X0073732Y0086118D03*
D262*
X0064684Y0086742D03*
X0064684Y0089574D03*
X0064684Y0089670D03*
X0047548Y0086166D03*
D263*
X0064540Y0086166D03*
X0064540Y0090246D03*
D264*
X0072148Y0086166D03*
X0040612Y0093942D03*
D265*
X0073732Y0086166D03*
D266*
X0075292Y0086166D03*
D267*
X0064684Y0086790D03*
X0064684Y0089622D03*
X0047548Y0086214D03*
D268*
X0064564Y0086214D03*
X0064564Y0086262D03*
X0064564Y0090150D03*
D269*
X0072172Y0086214D03*
X0075292Y0086214D03*
D270*
X0073732Y0086214D03*
X0069796Y0087318D03*
X0073732Y0094854D03*
X0077860Y0091158D03*
X0077668Y0087318D03*
D271*
X0077716Y0086694D03*
X0077524Y0086358D03*
X0077428Y0086262D03*
X0077380Y0086214D03*
X0075220Y0092214D03*
X0069940Y0086358D03*
X0040708Y0094326D03*
D272*
X0040564Y0093798D03*
X0072244Y0091830D03*
X0075220Y0091830D03*
X0075316Y0086262D03*
X0072148Y0086262D03*
D273*
X0073708Y0086262D03*
X0069580Y0091158D03*
D274*
X0064732Y0089334D03*
X0064732Y0089238D03*
X0064732Y0087078D03*
X0047500Y0086310D03*
X0039628Y0097638D03*
D275*
X0064588Y0086310D03*
D276*
X0068980Y0089670D03*
X0069892Y0086406D03*
X0069988Y0086310D03*
X0077476Y0086310D03*
X0078484Y0089670D03*
D277*
X0072124Y0086310D03*
X0050188Y0088038D03*
D278*
X0073732Y0088902D03*
X0073732Y0089046D03*
X0073732Y0089142D03*
X0073732Y0089238D03*
X0073732Y0086310D03*
X0077668Y0087270D03*
X0077332Y0092310D03*
D279*
X0075316Y0086310D03*
X0040516Y0093702D03*
D280*
X0047476Y0086358D03*
X0064756Y0087222D03*
X0064756Y0087318D03*
X0064756Y0089190D03*
D281*
X0069388Y0088326D03*
X0069772Y0087222D03*
X0069580Y0091254D03*
X0070012Y0092214D03*
X0073708Y0088854D03*
X0073708Y0086358D03*
X0077500Y0092118D03*
D282*
X0064756Y0089142D03*
X0064756Y0087366D03*
X0064756Y0087270D03*
X0064756Y0087174D03*
X0047476Y0086406D03*
D283*
X0069820Y0086502D03*
X0077548Y0086406D03*
D284*
X0073708Y0094182D03*
X0064780Y0087654D03*
X0064780Y0087558D03*
X0064780Y0087462D03*
X0064780Y0087414D03*
X0047452Y0086454D03*
D285*
X0064636Y0086454D03*
X0064636Y0086550D03*
X0064636Y0089862D03*
D286*
X0068956Y0089622D03*
X0069772Y0086598D03*
X0069772Y0086550D03*
X0069868Y0086454D03*
X0077596Y0086454D03*
X0077692Y0086598D03*
X0078508Y0089094D03*
X0078508Y0089190D03*
X0078508Y0089286D03*
X0078508Y0089382D03*
X0078508Y0089430D03*
X0078508Y0089526D03*
X0078508Y0089622D03*
D287*
X0078052Y0088326D03*
X0077572Y0092022D03*
X0073732Y0089430D03*
X0073732Y0089382D03*
X0073732Y0088758D03*
X0073732Y0086454D03*
X0069940Y0092118D03*
D288*
X0069820Y0091974D03*
X0073708Y0089478D03*
X0073708Y0086502D03*
X0077884Y0091302D03*
X0077596Y0091974D03*
X0049372Y0094470D03*
D289*
X0069724Y0086646D03*
X0073708Y0087174D03*
X0077644Y0086502D03*
X0077692Y0086646D03*
X0078508Y0089046D03*
X0078508Y0089142D03*
X0078508Y0089238D03*
X0078508Y0089334D03*
X0078508Y0089478D03*
X0078508Y0089574D03*
D290*
X0064804Y0087798D03*
X0064804Y0087750D03*
X0047428Y0086550D03*
X0039652Y0097590D03*
D291*
X0069796Y0091926D03*
X0073732Y0089526D03*
X0073732Y0088614D03*
X0073732Y0086550D03*
X0077908Y0091398D03*
D292*
X0078484Y0088998D03*
X0078484Y0088950D03*
X0078484Y0088854D03*
X0078484Y0088758D03*
X0078484Y0088662D03*
X0077668Y0086550D03*
X0073732Y0087222D03*
X0068980Y0088518D03*
X0068932Y0088854D03*
X0068932Y0088950D03*
X0068932Y0088998D03*
X0068932Y0089094D03*
X0068932Y0089190D03*
X0068932Y0089286D03*
X0068932Y0089382D03*
X0068932Y0089430D03*
X0068932Y0089526D03*
D293*
X0047404Y0086598D03*
X0037132Y0087798D03*
X0037132Y0087894D03*
X0037132Y0087990D03*
X0037132Y0088086D03*
X0037132Y0088182D03*
X0037132Y0088230D03*
X0037132Y0088326D03*
X0037132Y0088422D03*
X0037132Y0088518D03*
X0037132Y0088614D03*
X0037132Y0088662D03*
X0037132Y0088758D03*
X0037132Y0088854D03*
X0037132Y0088950D03*
X0037132Y0088998D03*
X0037132Y0089094D03*
X0037132Y0089190D03*
X0037132Y0089286D03*
X0037132Y0089382D03*
X0037132Y0089430D03*
X0037132Y0089526D03*
X0037132Y0089622D03*
X0037132Y0089718D03*
X0037132Y0089814D03*
X0037132Y0089862D03*
X0037132Y0089958D03*
X0037132Y0090054D03*
X0037132Y0090150D03*
X0037132Y0090198D03*
X0037132Y0090294D03*
X0037132Y0090390D03*
X0037132Y0090486D03*
X0037132Y0090582D03*
X0037132Y0090630D03*
X0037132Y0090726D03*
X0037132Y0090822D03*
X0037132Y0090918D03*
X0037132Y0091014D03*
X0037132Y0091062D03*
X0037132Y0091158D03*
X0037132Y0091254D03*
X0037132Y0091350D03*
X0037132Y0091398D03*
X0037132Y0091494D03*
D294*
X0069676Y0091782D03*
X0069724Y0091830D03*
X0069772Y0087030D03*
X0073708Y0086598D03*
X0077692Y0087030D03*
X0077740Y0091782D03*
D295*
X0047404Y0086646D03*
X0037132Y0087846D03*
X0037132Y0087942D03*
X0037132Y0088038D03*
X0037132Y0088134D03*
X0037132Y0088278D03*
X0037132Y0088374D03*
X0037132Y0088470D03*
X0037132Y0088566D03*
X0037132Y0088710D03*
X0037132Y0088806D03*
X0037132Y0088902D03*
X0037132Y0089046D03*
X0037132Y0089142D03*
X0037132Y0089238D03*
X0037132Y0089334D03*
X0037132Y0089478D03*
X0037132Y0089574D03*
X0037132Y0089670D03*
X0037132Y0089766D03*
X0037132Y0089910D03*
X0037132Y0090006D03*
X0037132Y0090102D03*
X0037132Y0090246D03*
X0037132Y0090342D03*
X0037132Y0090438D03*
X0037132Y0090534D03*
X0037132Y0090678D03*
X0037132Y0090774D03*
X0037132Y0090870D03*
X0037132Y0090966D03*
X0037132Y0091110D03*
X0037132Y0091206D03*
X0037132Y0091302D03*
X0037132Y0091446D03*
X0037132Y0091542D03*
D296*
X0064660Y0089766D03*
X0064660Y0086646D03*
D297*
X0069172Y0089766D03*
X0069556Y0091542D03*
X0069652Y0091734D03*
X0073732Y0086646D03*
X0078196Y0088374D03*
X0077908Y0091446D03*
X0077908Y0091542D03*
X0077860Y0091638D03*
X0039652Y0098310D03*
D298*
X0069556Y0091590D03*
X0069604Y0091686D03*
X0073732Y0089622D03*
X0073732Y0088518D03*
X0073732Y0086694D03*
X0069748Y0086982D03*
X0077908Y0091494D03*
X0077812Y0091686D03*
D299*
X0073732Y0094134D03*
X0047380Y0086742D03*
D300*
X0069244Y0088374D03*
X0069580Y0091638D03*
X0073708Y0089670D03*
X0073708Y0086742D03*
X0077692Y0086934D03*
D301*
X0047356Y0086790D03*
D302*
X0069052Y0089718D03*
X0069724Y0086790D03*
X0078412Y0089718D03*
D303*
X0073732Y0086790D03*
D304*
X0047356Y0086838D03*
D305*
X0064708Y0086838D03*
X0064708Y0086934D03*
X0064708Y0089478D03*
D306*
X0069748Y0086838D03*
X0073732Y0086934D03*
X0073732Y0088374D03*
X0073732Y0089766D03*
X0077716Y0086838D03*
X0040708Y0094374D03*
D307*
X0073708Y0086838D03*
D308*
X0049444Y0093798D03*
X0047332Y0086886D03*
D309*
X0069748Y0086886D03*
D310*
X0073732Y0086886D03*
D311*
X0073708Y0088422D03*
X0073708Y0089718D03*
X0077692Y0086886D03*
D312*
X0047332Y0086934D03*
D313*
X0069748Y0086934D03*
D314*
X0047308Y0086982D03*
X0047308Y0087030D03*
D315*
X0064732Y0087030D03*
X0064732Y0087126D03*
X0064732Y0089286D03*
X0064732Y0089382D03*
D316*
X0069748Y0087078D03*
X0069748Y0091878D03*
D317*
X0077668Y0091878D03*
X0077668Y0087078D03*
D318*
X0073732Y0094086D03*
X0047284Y0087126D03*
D319*
X0069772Y0087126D03*
X0073708Y0088662D03*
X0069868Y0092022D03*
X0077644Y0091926D03*
X0077884Y0091350D03*
X0077692Y0087126D03*
D320*
X0073732Y0087126D03*
X0073732Y0089862D03*
D321*
X0047260Y0087270D03*
X0047260Y0087174D03*
D322*
X0069772Y0087174D03*
X0073708Y0088806D03*
X0073708Y0089334D03*
X0069964Y0092166D03*
X0077452Y0092166D03*
D323*
X0047260Y0087222D03*
X0039628Y0097494D03*
D324*
X0070036Y0092262D03*
X0073732Y0089286D03*
X0073732Y0089190D03*
X0073732Y0089094D03*
X0073732Y0088998D03*
X0073732Y0088950D03*
X0077668Y0087222D03*
X0077428Y0092214D03*
D325*
X0075172Y0092166D03*
X0078484Y0088902D03*
X0078484Y0088806D03*
X0078484Y0088710D03*
X0078436Y0088470D03*
X0073732Y0087270D03*
X0069028Y0088470D03*
X0068932Y0088902D03*
X0068932Y0089046D03*
X0068932Y0089142D03*
X0068932Y0089238D03*
X0068932Y0089334D03*
X0068932Y0089478D03*
X0068932Y0089574D03*
D326*
X0047236Y0087318D03*
D327*
X0068956Y0088614D03*
X0068956Y0088662D03*
X0068956Y0088758D03*
X0073708Y0088230D03*
X0073708Y0087318D03*
X0075148Y0092118D03*
X0078460Y0088614D03*
X0078460Y0088518D03*
D328*
X0047236Y0087366D03*
D329*
X0069772Y0087366D03*
X0077644Y0087366D03*
X0077932Y0088278D03*
D330*
X0073732Y0087366D03*
D331*
X0069796Y0087414D03*
X0069556Y0088182D03*
X0069556Y0088230D03*
X0069604Y0091014D03*
X0077812Y0091014D03*
X0077908Y0088230D03*
D332*
X0073708Y0088182D03*
X0073708Y0087414D03*
X0040732Y0094230D03*
D333*
X0049348Y0094518D03*
X0073732Y0089958D03*
X0073732Y0087462D03*
D334*
X0073708Y0094038D03*
X0047212Y0087510D03*
D335*
X0069796Y0087510D03*
X0077668Y0087606D03*
X0077716Y0087702D03*
X0077764Y0087846D03*
D336*
X0075124Y0092070D03*
X0073732Y0087510D03*
D337*
X0069772Y0087606D03*
X0069724Y0087702D03*
X0069676Y0087846D03*
X0069628Y0087942D03*
X0069628Y0088038D03*
X0069580Y0088134D03*
X0069628Y0090966D03*
X0077836Y0090966D03*
X0077836Y0088038D03*
X0077788Y0087942D03*
X0077644Y0087510D03*
D338*
X0047188Y0087558D03*
X0047188Y0087654D03*
D339*
X0069652Y0087894D03*
X0069700Y0087798D03*
X0069700Y0087750D03*
X0069748Y0087654D03*
X0069796Y0087558D03*
X0069652Y0090918D03*
X0077812Y0090918D03*
X0077764Y0087798D03*
X0077668Y0087558D03*
D340*
X0073708Y0087558D03*
D341*
X0047188Y0087606D03*
X0039652Y0097446D03*
D342*
X0073732Y0088134D03*
X0073732Y0087606D03*
D343*
X0047164Y0087702D03*
D344*
X0040708Y0094134D03*
X0073732Y0087702D03*
D345*
X0047164Y0087750D03*
X0047164Y0087798D03*
D346*
X0073708Y0087750D03*
X0073708Y0088086D03*
D347*
X0073732Y0087798D03*
D348*
X0064420Y0090534D03*
X0046516Y0087846D03*
D349*
X0052156Y0090534D03*
X0065212Y0087846D03*
D350*
X0072292Y0091974D03*
X0075124Y0091974D03*
X0073732Y0087846D03*
D351*
X0050020Y0087894D03*
X0040612Y0093894D03*
D352*
X0040684Y0094086D03*
X0073708Y0090054D03*
X0073708Y0087894D03*
D353*
X0046348Y0087942D03*
D354*
X0050092Y0087942D03*
D355*
X0052660Y0089766D03*
X0045940Y0089670D03*
X0045940Y0089574D03*
X0045988Y0088566D03*
X0065572Y0087942D03*
D356*
X0073732Y0087942D03*
X0040660Y0094038D03*
D357*
X0050140Y0087990D03*
D358*
X0052708Y0089382D03*
X0052708Y0089430D03*
X0052708Y0089526D03*
X0045892Y0089286D03*
X0045892Y0089190D03*
X0045892Y0089094D03*
X0045892Y0088998D03*
X0065524Y0088998D03*
X0065620Y0087990D03*
X0064900Y0094086D03*
D359*
X0073732Y0087990D03*
D360*
X0065668Y0088038D03*
X0065620Y0088902D03*
X0063940Y0092070D03*
D361*
X0073708Y0088038D03*
D362*
X0050236Y0088086D03*
D363*
X0063916Y0092022D03*
X0064972Y0093990D03*
X0065644Y0088854D03*
X0065692Y0088086D03*
X0071020Y0092358D03*
X0076396Y0092454D03*
X0076444Y0092358D03*
D364*
X0064180Y0092646D03*
X0052468Y0090246D03*
X0046180Y0088134D03*
D365*
X0069508Y0088278D03*
X0077860Y0088134D03*
D366*
X0064156Y0092550D03*
X0064156Y0092598D03*
X0052492Y0090198D03*
X0046156Y0090150D03*
X0046156Y0088182D03*
X0036556Y0093990D03*
X0036604Y0094086D03*
D367*
X0064972Y0093846D03*
X0065692Y0088710D03*
X0065740Y0088470D03*
X0065740Y0088374D03*
X0065740Y0088278D03*
X0076300Y0092646D03*
D368*
X0073732Y0088278D03*
D369*
X0073732Y0088470D03*
D370*
X0073708Y0089910D03*
X0072268Y0092166D03*
X0068956Y0088806D03*
X0068956Y0088710D03*
X0068956Y0088566D03*
X0078460Y0088566D03*
X0040732Y0094278D03*
D371*
X0069532Y0091446D03*
X0073708Y0089574D03*
X0073708Y0088566D03*
X0078268Y0089766D03*
X0077788Y0091734D03*
D372*
X0076276Y0092694D03*
X0071140Y0092694D03*
X0064996Y0093750D03*
X0064996Y0093798D03*
X0063844Y0091494D03*
X0065716Y0088662D03*
X0065716Y0088614D03*
D373*
X0073708Y0094566D03*
X0052684Y0089670D03*
X0052684Y0089574D03*
X0045916Y0089478D03*
X0045916Y0088902D03*
X0045916Y0088806D03*
X0045964Y0088710D03*
D374*
X0049420Y0093894D03*
X0064780Y0089094D03*
D375*
X0045964Y0089766D03*
D376*
X0052636Y0089814D03*
X0052636Y0089862D03*
D377*
X0069316Y0089814D03*
X0077380Y0092262D03*
X0078148Y0089814D03*
D378*
X0077788Y0090870D03*
X0069484Y0089910D03*
D379*
X0069508Y0090006D03*
X0077908Y0090006D03*
X0077956Y0089910D03*
D380*
X0077908Y0090054D03*
X0069652Y0090822D03*
X0069508Y0089958D03*
D381*
X0077932Y0089958D03*
D382*
X0052516Y0090150D03*
X0046084Y0090054D03*
X0036484Y0093654D03*
D383*
X0069532Y0090102D03*
X0069580Y0090246D03*
X0069676Y0090774D03*
X0077788Y0090774D03*
X0077884Y0090102D03*
D384*
X0073708Y0090102D03*
D385*
X0064492Y0090390D03*
X0039628Y0097782D03*
D386*
X0069676Y0090630D03*
X0069676Y0090582D03*
X0069676Y0090486D03*
X0069628Y0090390D03*
X0077740Y0090630D03*
X0077788Y0090486D03*
D387*
X0052300Y0090438D03*
D388*
X0064468Y0090438D03*
D389*
X0069628Y0090438D03*
X0069676Y0090534D03*
X0069676Y0090678D03*
X0077788Y0090534D03*
X0077788Y0090438D03*
D390*
X0046516Y0090534D03*
D391*
X0049300Y0090582D03*
D392*
X0077764Y0090582D03*
D393*
X0049324Y0090630D03*
X0049324Y0090726D03*
D394*
X0039628Y0097830D03*
X0064396Y0090630D03*
D395*
X0049324Y0090678D03*
D396*
X0049300Y0090774D03*
D397*
X0049324Y0090822D03*
X0049324Y0090918D03*
D398*
X0077788Y0090822D03*
D399*
X0049324Y0090870D03*
D400*
X0069628Y0090870D03*
D401*
X0049324Y0090966D03*
D402*
X0049324Y0091014D03*
X0049324Y0091062D03*
D403*
X0069580Y0091062D03*
D404*
X0077836Y0091062D03*
D405*
X0049324Y0091110D03*
D406*
X0049324Y0091158D03*
D407*
X0049348Y0091206D03*
D408*
X0069556Y0091206D03*
X0070084Y0092310D03*
X0077860Y0091206D03*
D409*
X0049348Y0091254D03*
D410*
X0077884Y0091254D03*
D411*
X0049324Y0091302D03*
D412*
X0049348Y0091350D03*
X0049348Y0091398D03*
D413*
X0069556Y0091398D03*
X0069556Y0091350D03*
X0077716Y0091830D03*
D414*
X0049348Y0091446D03*
D415*
X0063892Y0091446D03*
X0063892Y0091974D03*
X0064948Y0093942D03*
X0071092Y0092502D03*
X0076372Y0092502D03*
D416*
X0049348Y0091494D03*
D417*
X0069532Y0091494D03*
D418*
X0049348Y0091542D03*
D419*
X0049396Y0094278D03*
X0063796Y0091542D03*
X0064900Y0093270D03*
X0064996Y0093606D03*
X0071236Y0092838D03*
X0076228Y0092838D03*
D420*
X0049348Y0091590D03*
D421*
X0049348Y0091638D03*
D422*
X0049348Y0091686D03*
D423*
X0063724Y0091686D03*
X0071404Y0093126D03*
X0076060Y0093126D03*
D424*
X0062044Y0094278D03*
X0062044Y0094374D03*
X0062044Y0094470D03*
X0062044Y0094566D03*
X0062044Y0094710D03*
X0062044Y0094806D03*
X0062044Y0094902D03*
X0062044Y0095046D03*
X0049372Y0091734D03*
D425*
X0063772Y0091734D03*
X0064924Y0093366D03*
X0071260Y0092934D03*
X0076156Y0092934D03*
D426*
X0062020Y0095094D03*
X0062020Y0095190D03*
X0062020Y0095286D03*
X0062020Y0095382D03*
X0049348Y0091782D03*
D427*
X0072196Y0091782D03*
X0075220Y0091782D03*
D428*
X0061996Y0095430D03*
X0061996Y0095526D03*
X0049372Y0091830D03*
D429*
X0063820Y0091830D03*
X0064972Y0093558D03*
X0064972Y0093654D03*
X0071212Y0092790D03*
X0076252Y0092790D03*
D430*
X0061972Y0095670D03*
X0049348Y0091878D03*
D431*
X0072244Y0091878D03*
X0075172Y0091878D03*
D432*
X0061948Y0095814D03*
X0061948Y0095862D03*
X0049372Y0091926D03*
D433*
X0040660Y0093990D03*
X0072292Y0091926D03*
X0075172Y0091926D03*
D434*
X0061900Y0096102D03*
X0049372Y0091974D03*
D435*
X0049372Y0092022D03*
X0061900Y0096054D03*
D436*
X0072340Y0092022D03*
X0075124Y0092022D03*
X0040708Y0094182D03*
D437*
X0049372Y0092070D03*
X0061852Y0096246D03*
D438*
X0072316Y0092070D03*
D439*
X0049372Y0092118D03*
D440*
X0072292Y0092118D03*
D441*
X0061804Y0096438D03*
X0049372Y0092166D03*
D442*
X0049372Y0092214D03*
X0061756Y0096582D03*
D443*
X0072220Y0092214D03*
D444*
X0061732Y0096630D03*
X0049396Y0092262D03*
D445*
X0049372Y0092310D03*
X0061708Y0096678D03*
D446*
X0072172Y0092310D03*
X0073708Y0094902D03*
D447*
X0061660Y0096822D03*
X0049372Y0092358D03*
D448*
X0049396Y0092406D03*
X0061636Y0096870D03*
D449*
X0049396Y0092454D03*
D450*
X0049372Y0092502D03*
D451*
X0049396Y0092550D03*
X0039652Y0096150D03*
D452*
X0071116Y0092598D03*
X0076348Y0092598D03*
X0076348Y0092550D03*
D453*
X0049396Y0092598D03*
X0039556Y0096054D03*
D454*
X0039412Y0095910D03*
X0049396Y0092646D03*
X0061444Y0097206D03*
D455*
X0061396Y0097254D03*
X0049396Y0092694D03*
D456*
X0049420Y0092742D03*
X0061372Y0097302D03*
D457*
X0064972Y0093702D03*
X0064780Y0093078D03*
X0076252Y0092742D03*
D458*
X0061324Y0097350D03*
X0049420Y0092790D03*
D459*
X0049420Y0092838D03*
D460*
X0049420Y0092886D03*
D461*
X0064852Y0093222D03*
X0064948Y0093414D03*
X0064948Y0093462D03*
X0076180Y0092886D03*
D462*
X0064924Y0094038D03*
X0064588Y0092934D03*
D463*
X0049396Y0092982D03*
X0039652Y0096630D03*
X0038788Y0095286D03*
D464*
X0076156Y0092982D03*
D465*
X0073708Y0093318D03*
X0061084Y0097590D03*
X0049420Y0093030D03*
X0038620Y0095094D03*
D466*
X0038572Y0095046D03*
X0049420Y0093078D03*
X0061036Y0097638D03*
X0073708Y0093366D03*
D467*
X0071356Y0093078D03*
X0076108Y0093078D03*
D468*
X0073708Y0093414D03*
X0049420Y0093126D03*
D469*
X0049420Y0093174D03*
D470*
X0064852Y0093174D03*
X0064948Y0093510D03*
D471*
X0073732Y0093174D03*
X0038836Y0095334D03*
D472*
X0049420Y0093222D03*
D473*
X0073708Y0093222D03*
D474*
X0049420Y0093270D03*
D475*
X0073708Y0093270D03*
D476*
X0049420Y0093318D03*
D477*
X0049420Y0093366D03*
X0038092Y0094470D03*
D478*
X0049420Y0093414D03*
D479*
X0049420Y0093462D03*
X0073708Y0093750D03*
D480*
X0049444Y0093510D03*
D481*
X0049420Y0093558D03*
D482*
X0049420Y0093606D03*
D483*
X0073732Y0093606D03*
D484*
X0073732Y0093654D03*
D485*
X0036580Y0094038D03*
X0036484Y0093702D03*
D486*
X0049420Y0093702D03*
D487*
X0039652Y0097110D03*
X0073732Y0093702D03*
D488*
X0040516Y0093750D03*
D489*
X0049444Y0093750D03*
D490*
X0040564Y0093846D03*
D491*
X0049420Y0093846D03*
D492*
X0073732Y0093942D03*
D493*
X0073732Y0093990D03*
D494*
X0064852Y0094134D03*
D495*
X0049420Y0094230D03*
D496*
X0036724Y0094326D03*
D497*
X0062044Y0094326D03*
X0062044Y0094422D03*
X0062044Y0094518D03*
X0062044Y0094614D03*
X0062044Y0094662D03*
X0062044Y0094758D03*
X0062044Y0094854D03*
X0062044Y0094950D03*
X0062044Y0094998D03*
D498*
X0049396Y0094374D03*
D499*
X0038140Y0094566D03*
D500*
X0038188Y0094614D03*
X0038236Y0094662D03*
D501*
X0038308Y0094758D03*
D502*
X0038356Y0094806D03*
X0039652Y0096870D03*
D503*
X0038404Y0094854D03*
X0060964Y0097686D03*
D504*
X0038500Y0094950D03*
D505*
X0073708Y0094950D03*
D506*
X0039652Y0096678D03*
X0038644Y0095142D03*
D507*
X0062020Y0095142D03*
X0062020Y0095238D03*
X0062020Y0095334D03*
D508*
X0038716Y0095190D03*
D509*
X0038740Y0095238D03*
X0061156Y0097542D03*
D510*
X0038884Y0095382D03*
D511*
X0038932Y0095430D03*
D512*
X0038980Y0095478D03*
X0039652Y0096534D03*
X0061252Y0097446D03*
D513*
X0061996Y0095574D03*
X0061996Y0095478D03*
D514*
X0061276Y0097398D03*
X0039004Y0095526D03*
D515*
X0039076Y0095574D03*
D516*
X0039100Y0095622D03*
D517*
X0061972Y0095622D03*
X0061972Y0095718D03*
D518*
X0039172Y0095670D03*
D519*
X0039196Y0095718D03*
D520*
X0039268Y0095766D03*
D521*
X0061948Y0095766D03*
D522*
X0039316Y0095814D03*
D523*
X0039340Y0095862D03*
D524*
X0061924Y0095910D03*
X0061924Y0096006D03*
D525*
X0061468Y0097158D03*
X0039436Y0095958D03*
D526*
X0061924Y0095958D03*
D527*
X0061492Y0097110D03*
X0039508Y0096006D03*
D528*
X0039580Y0096102D03*
D529*
X0061876Y0096150D03*
X0061876Y0096198D03*
D530*
X0061516Y0097062D03*
X0039676Y0096198D03*
D531*
X0039676Y0096246D03*
D532*
X0039652Y0096294D03*
D533*
X0061852Y0096294D03*
D534*
X0039652Y0096342D03*
D535*
X0061828Y0096342D03*
D536*
X0039652Y0096390D03*
D537*
X0061828Y0096390D03*
D538*
X0039652Y0096438D03*
D539*
X0039652Y0096486D03*
D540*
X0061780Y0096486D03*
D541*
X0061756Y0096534D03*
D542*
X0039652Y0096726D03*
D543*
X0061684Y0096726D03*
D544*
X0039652Y0096774D03*
D545*
X0061684Y0096774D03*
D546*
X0039652Y0096822D03*
D547*
X0039652Y0096918D03*
D548*
X0061612Y0096918D03*
D549*
X0039652Y0096966D03*
D550*
X0061588Y0096966D03*
D551*
X0061564Y0097014D03*
D552*
X0060724Y0097830D03*
X0039652Y0097062D03*
D553*
X0039652Y0097158D03*
D554*
X0039628Y0097206D03*
D555*
X0039652Y0097254D03*
X0060484Y0097926D03*
D556*
X0039652Y0097302D03*
D557*
X0039628Y0097350D03*
D558*
X0039652Y0097398D03*
D559*
X0039652Y0097542D03*
D560*
X0039652Y0097734D03*
D561*
X0060628Y0097878D03*
D562*
X0060316Y0097974D03*
D563*
X0039652Y0098118D03*
D564*
X0039628Y0098166D03*
D565*
X0039652Y0098214D03*
M02*
