G75*
%MOIN*%
%OFA0B0*%
%FSLAX25Y25*%
%IPPOS*%
%LPD*%
%AMOC8*
5,1,8,0,0,1.08239X$1,22.5*
%
%ADD10R,0.17000X0.12800*%
%ADD11C,0.00000*%
%ADD12C,0.01600*%
%ADD13C,0.04000*%
%ADD14C,0.01000*%
D10*
X0025081Y0079831D03*
X0151066Y0079831D03*
D11*
X0131223Y0066918D02*
X0131225Y0067006D01*
X0131231Y0067094D01*
X0131241Y0067182D01*
X0131255Y0067270D01*
X0131272Y0067356D01*
X0131294Y0067442D01*
X0131319Y0067526D01*
X0131349Y0067610D01*
X0131381Y0067692D01*
X0131418Y0067772D01*
X0131458Y0067851D01*
X0131502Y0067928D01*
X0131549Y0068003D01*
X0131599Y0068075D01*
X0131653Y0068146D01*
X0131709Y0068213D01*
X0131769Y0068279D01*
X0131831Y0068341D01*
X0131897Y0068401D01*
X0131964Y0068457D01*
X0132035Y0068511D01*
X0132107Y0068561D01*
X0132182Y0068608D01*
X0132259Y0068652D01*
X0132338Y0068692D01*
X0132418Y0068729D01*
X0132500Y0068761D01*
X0132584Y0068791D01*
X0132668Y0068816D01*
X0132754Y0068838D01*
X0132840Y0068855D01*
X0132928Y0068869D01*
X0133016Y0068879D01*
X0133104Y0068885D01*
X0133192Y0068887D01*
X0133280Y0068885D01*
X0133368Y0068879D01*
X0133456Y0068869D01*
X0133544Y0068855D01*
X0133630Y0068838D01*
X0133716Y0068816D01*
X0133800Y0068791D01*
X0133884Y0068761D01*
X0133966Y0068729D01*
X0134046Y0068692D01*
X0134125Y0068652D01*
X0134202Y0068608D01*
X0134277Y0068561D01*
X0134349Y0068511D01*
X0134420Y0068457D01*
X0134487Y0068401D01*
X0134553Y0068341D01*
X0134615Y0068279D01*
X0134675Y0068213D01*
X0134731Y0068146D01*
X0134785Y0068075D01*
X0134835Y0068003D01*
X0134882Y0067928D01*
X0134926Y0067851D01*
X0134966Y0067772D01*
X0135003Y0067692D01*
X0135035Y0067610D01*
X0135065Y0067526D01*
X0135090Y0067442D01*
X0135112Y0067356D01*
X0135129Y0067270D01*
X0135143Y0067182D01*
X0135153Y0067094D01*
X0135159Y0067006D01*
X0135161Y0066918D01*
X0135159Y0066830D01*
X0135153Y0066742D01*
X0135143Y0066654D01*
X0135129Y0066566D01*
X0135112Y0066480D01*
X0135090Y0066394D01*
X0135065Y0066310D01*
X0135035Y0066226D01*
X0135003Y0066144D01*
X0134966Y0066064D01*
X0134926Y0065985D01*
X0134882Y0065908D01*
X0134835Y0065833D01*
X0134785Y0065761D01*
X0134731Y0065690D01*
X0134675Y0065623D01*
X0134615Y0065557D01*
X0134553Y0065495D01*
X0134487Y0065435D01*
X0134420Y0065379D01*
X0134349Y0065325D01*
X0134277Y0065275D01*
X0134202Y0065228D01*
X0134125Y0065184D01*
X0134046Y0065144D01*
X0133966Y0065107D01*
X0133884Y0065075D01*
X0133800Y0065045D01*
X0133716Y0065020D01*
X0133630Y0064998D01*
X0133544Y0064981D01*
X0133456Y0064967D01*
X0133368Y0064957D01*
X0133280Y0064951D01*
X0133192Y0064949D01*
X0133104Y0064951D01*
X0133016Y0064957D01*
X0132928Y0064967D01*
X0132840Y0064981D01*
X0132754Y0064998D01*
X0132668Y0065020D01*
X0132584Y0065045D01*
X0132500Y0065075D01*
X0132418Y0065107D01*
X0132338Y0065144D01*
X0132259Y0065184D01*
X0132182Y0065228D01*
X0132107Y0065275D01*
X0132035Y0065325D01*
X0131964Y0065379D01*
X0131897Y0065435D01*
X0131831Y0065495D01*
X0131769Y0065557D01*
X0131709Y0065623D01*
X0131653Y0065690D01*
X0131599Y0065761D01*
X0131549Y0065833D01*
X0131502Y0065908D01*
X0131458Y0065985D01*
X0131418Y0066064D01*
X0131381Y0066144D01*
X0131349Y0066226D01*
X0131319Y0066310D01*
X0131294Y0066394D01*
X0131272Y0066480D01*
X0131255Y0066566D01*
X0131241Y0066654D01*
X0131231Y0066742D01*
X0131225Y0066830D01*
X0131223Y0066918D01*
X0117049Y0066918D02*
X0117051Y0067006D01*
X0117057Y0067094D01*
X0117067Y0067182D01*
X0117081Y0067270D01*
X0117098Y0067356D01*
X0117120Y0067442D01*
X0117145Y0067526D01*
X0117175Y0067610D01*
X0117207Y0067692D01*
X0117244Y0067772D01*
X0117284Y0067851D01*
X0117328Y0067928D01*
X0117375Y0068003D01*
X0117425Y0068075D01*
X0117479Y0068146D01*
X0117535Y0068213D01*
X0117595Y0068279D01*
X0117657Y0068341D01*
X0117723Y0068401D01*
X0117790Y0068457D01*
X0117861Y0068511D01*
X0117933Y0068561D01*
X0118008Y0068608D01*
X0118085Y0068652D01*
X0118164Y0068692D01*
X0118244Y0068729D01*
X0118326Y0068761D01*
X0118410Y0068791D01*
X0118494Y0068816D01*
X0118580Y0068838D01*
X0118666Y0068855D01*
X0118754Y0068869D01*
X0118842Y0068879D01*
X0118930Y0068885D01*
X0119018Y0068887D01*
X0119106Y0068885D01*
X0119194Y0068879D01*
X0119282Y0068869D01*
X0119370Y0068855D01*
X0119456Y0068838D01*
X0119542Y0068816D01*
X0119626Y0068791D01*
X0119710Y0068761D01*
X0119792Y0068729D01*
X0119872Y0068692D01*
X0119951Y0068652D01*
X0120028Y0068608D01*
X0120103Y0068561D01*
X0120175Y0068511D01*
X0120246Y0068457D01*
X0120313Y0068401D01*
X0120379Y0068341D01*
X0120441Y0068279D01*
X0120501Y0068213D01*
X0120557Y0068146D01*
X0120611Y0068075D01*
X0120661Y0068003D01*
X0120708Y0067928D01*
X0120752Y0067851D01*
X0120792Y0067772D01*
X0120829Y0067692D01*
X0120861Y0067610D01*
X0120891Y0067526D01*
X0120916Y0067442D01*
X0120938Y0067356D01*
X0120955Y0067270D01*
X0120969Y0067182D01*
X0120979Y0067094D01*
X0120985Y0067006D01*
X0120987Y0066918D01*
X0120985Y0066830D01*
X0120979Y0066742D01*
X0120969Y0066654D01*
X0120955Y0066566D01*
X0120938Y0066480D01*
X0120916Y0066394D01*
X0120891Y0066310D01*
X0120861Y0066226D01*
X0120829Y0066144D01*
X0120792Y0066064D01*
X0120752Y0065985D01*
X0120708Y0065908D01*
X0120661Y0065833D01*
X0120611Y0065761D01*
X0120557Y0065690D01*
X0120501Y0065623D01*
X0120441Y0065557D01*
X0120379Y0065495D01*
X0120313Y0065435D01*
X0120246Y0065379D01*
X0120175Y0065325D01*
X0120103Y0065275D01*
X0120028Y0065228D01*
X0119951Y0065184D01*
X0119872Y0065144D01*
X0119792Y0065107D01*
X0119710Y0065075D01*
X0119626Y0065045D01*
X0119542Y0065020D01*
X0119456Y0064998D01*
X0119370Y0064981D01*
X0119282Y0064967D01*
X0119194Y0064957D01*
X0119106Y0064951D01*
X0119018Y0064949D01*
X0118930Y0064951D01*
X0118842Y0064957D01*
X0118754Y0064967D01*
X0118666Y0064981D01*
X0118580Y0064998D01*
X0118494Y0065020D01*
X0118410Y0065045D01*
X0118326Y0065075D01*
X0118244Y0065107D01*
X0118164Y0065144D01*
X0118085Y0065184D01*
X0118008Y0065228D01*
X0117933Y0065275D01*
X0117861Y0065325D01*
X0117790Y0065379D01*
X0117723Y0065435D01*
X0117657Y0065495D01*
X0117595Y0065557D01*
X0117535Y0065623D01*
X0117479Y0065690D01*
X0117425Y0065761D01*
X0117375Y0065833D01*
X0117328Y0065908D01*
X0117284Y0065985D01*
X0117244Y0066064D01*
X0117207Y0066144D01*
X0117175Y0066226D01*
X0117145Y0066310D01*
X0117120Y0066394D01*
X0117098Y0066480D01*
X0117081Y0066566D01*
X0117067Y0066654D01*
X0117057Y0066742D01*
X0117051Y0066830D01*
X0117049Y0066918D01*
D12*
X0162928Y0005737D02*
X0011445Y0005737D01*
X0011302Y0006131D02*
X0013861Y0152194D01*
X0076656Y0152194D01*
X0076656Y0130934D01*
X0164845Y0130934D01*
X0164845Y0124241D01*
X0162877Y0002587D01*
X0012877Y0001800D01*
X0011302Y0006131D01*
X0011323Y0007336D02*
X0162953Y0007336D01*
X0162979Y0008934D02*
X0011351Y0008934D01*
X0011379Y0010533D02*
X0163005Y0010533D01*
X0163031Y0012131D02*
X0011407Y0012131D01*
X0011435Y0013730D02*
X0163057Y0013730D01*
X0163083Y0015328D02*
X0011463Y0015328D01*
X0011491Y0016927D02*
X0163109Y0016927D01*
X0163135Y0018525D02*
X0011519Y0018525D01*
X0011547Y0020124D02*
X0163160Y0020124D01*
X0163186Y0021722D02*
X0011575Y0021722D01*
X0011603Y0023321D02*
X0163212Y0023321D01*
X0163238Y0024919D02*
X0011631Y0024919D01*
X0011659Y0026518D02*
X0163264Y0026518D01*
X0163290Y0028116D02*
X0011687Y0028116D01*
X0011715Y0029715D02*
X0163316Y0029715D01*
X0163341Y0031313D02*
X0011743Y0031313D01*
X0011771Y0032912D02*
X0163367Y0032912D01*
X0163393Y0034510D02*
X0011799Y0034510D01*
X0011827Y0036109D02*
X0163419Y0036109D01*
X0163445Y0037707D02*
X0011855Y0037707D01*
X0011883Y0039306D02*
X0163471Y0039306D01*
X0163497Y0040904D02*
X0011911Y0040904D01*
X0011939Y0042503D02*
X0163523Y0042503D01*
X0163548Y0044101D02*
X0011967Y0044101D01*
X0011995Y0045700D02*
X0163574Y0045700D01*
X0163600Y0047298D02*
X0012023Y0047298D01*
X0012051Y0048897D02*
X0163626Y0048897D01*
X0163652Y0050495D02*
X0012079Y0050495D01*
X0012107Y0052094D02*
X0163678Y0052094D01*
X0163704Y0053692D02*
X0012135Y0053692D01*
X0012163Y0055291D02*
X0163729Y0055291D01*
X0163755Y0056889D02*
X0012191Y0056889D01*
X0012219Y0058488D02*
X0097443Y0058488D01*
X0097565Y0058366D02*
X0098814Y0057849D01*
X0100167Y0057849D01*
X0101417Y0058366D01*
X0102373Y0059323D01*
X0102891Y0060573D01*
X0102891Y0061925D01*
X0102373Y0063175D01*
X0101417Y0064131D01*
X0100167Y0064649D01*
X0098814Y0064649D01*
X0098789Y0064638D01*
X0090367Y0073059D01*
X0090367Y0073834D01*
X0090940Y0073597D01*
X0092293Y0073597D01*
X0093543Y0074114D01*
X0094499Y0075071D01*
X0095017Y0076321D01*
X0095017Y0077673D01*
X0094499Y0078923D01*
X0093543Y0079879D01*
X0093517Y0079890D01*
X0093517Y0097726D01*
X0093543Y0097737D01*
X0094499Y0098693D01*
X0095017Y0099943D01*
X0095017Y0101295D01*
X0094499Y0102545D01*
X0093543Y0103501D01*
X0092293Y0104019D01*
X0090940Y0104019D01*
X0089691Y0103501D01*
X0088734Y0102545D01*
X0088217Y0101295D01*
X0088217Y0099943D01*
X0088724Y0098719D01*
X0087526Y0099917D01*
X0087536Y0099943D01*
X0087536Y0101295D01*
X0087019Y0102545D01*
X0086062Y0103501D01*
X0084813Y0104019D01*
X0083460Y0104019D01*
X0082211Y0103501D01*
X0081774Y0103065D01*
X0081338Y0103501D01*
X0080295Y0103933D01*
X0086584Y0110222D01*
X0086610Y0110211D01*
X0087962Y0110211D01*
X0089212Y0110729D01*
X0090168Y0111685D01*
X0090686Y0112935D01*
X0090686Y0114287D01*
X0090168Y0115537D01*
X0089212Y0116493D01*
X0087962Y0117011D01*
X0086610Y0117011D01*
X0085360Y0116493D01*
X0084404Y0115537D01*
X0083886Y0114287D01*
X0083886Y0112935D01*
X0083897Y0112909D01*
X0071538Y0100550D01*
X0070425Y0099437D01*
X0070425Y0094063D01*
X0070400Y0094052D01*
X0069443Y0093096D01*
X0068925Y0091846D01*
X0068925Y0090494D01*
X0069443Y0089244D01*
X0070400Y0088288D01*
X0071649Y0087770D01*
X0073002Y0087770D01*
X0074251Y0088288D01*
X0074688Y0088724D01*
X0075124Y0088288D01*
X0076374Y0087770D01*
X0077726Y0087770D01*
X0078976Y0088288D01*
X0079932Y0089244D01*
X0080450Y0090494D01*
X0080450Y0091846D01*
X0079932Y0093096D01*
X0078976Y0094052D01*
X0078950Y0094063D01*
X0078950Y0097219D01*
X0080088Y0097219D01*
X0081338Y0097737D01*
X0081774Y0098173D01*
X0082211Y0097737D01*
X0083460Y0097219D01*
X0084813Y0097219D01*
X0084839Y0097230D01*
X0086567Y0095501D01*
X0086567Y0071485D01*
X0096102Y0061951D01*
X0096091Y0061925D01*
X0096091Y0060573D01*
X0096608Y0059323D01*
X0097565Y0058366D01*
X0096292Y0060086D02*
X0012247Y0060086D01*
X0012275Y0061685D02*
X0096091Y0061685D01*
X0094769Y0063283D02*
X0012303Y0063283D01*
X0012331Y0064882D02*
X0093171Y0064882D01*
X0091572Y0066480D02*
X0012359Y0066480D01*
X0012387Y0068079D02*
X0089974Y0068079D01*
X0088375Y0069677D02*
X0012415Y0069677D01*
X0012443Y0071276D02*
X0086777Y0071276D01*
X0086567Y0072874D02*
X0034981Y0072874D01*
X0034981Y0072852D02*
X0034161Y0072031D01*
X0016001Y0072031D01*
X0015181Y0072852D01*
X0015181Y0086811D01*
X0016001Y0087631D01*
X0034161Y0087631D01*
X0034981Y0086811D01*
X0034981Y0083198D01*
X0035822Y0083546D01*
X0037175Y0083546D01*
X0038425Y0083029D01*
X0039381Y0082072D01*
X0039899Y0080823D01*
X0039899Y0079470D01*
X0039381Y0078221D01*
X0038425Y0077264D01*
X0037175Y0076746D01*
X0035822Y0076746D01*
X0034981Y0077095D01*
X0034981Y0072852D01*
X0034981Y0074473D02*
X0086567Y0074473D01*
X0086567Y0076072D02*
X0034981Y0076072D01*
X0038831Y0077670D02*
X0086567Y0077670D01*
X0086567Y0079269D02*
X0039815Y0079269D01*
X0039880Y0080867D02*
X0086567Y0080867D01*
X0086567Y0082466D02*
X0038988Y0082466D01*
X0034981Y0084064D02*
X0086567Y0084064D01*
X0086567Y0085663D02*
X0034981Y0085663D01*
X0034532Y0087261D02*
X0086567Y0087261D01*
X0086567Y0088860D02*
X0079548Y0088860D01*
X0080435Y0090458D02*
X0086567Y0090458D01*
X0086567Y0092057D02*
X0080363Y0092057D01*
X0079373Y0093655D02*
X0086567Y0093655D01*
X0086567Y0095254D02*
X0078950Y0095254D01*
X0078950Y0096852D02*
X0085216Y0096852D01*
X0087536Y0100049D02*
X0088217Y0100049D01*
X0088363Y0101648D02*
X0087390Y0101648D01*
X0086317Y0103246D02*
X0089436Y0103246D01*
X0090478Y0105611D02*
X0091728Y0105093D01*
X0093080Y0105093D01*
X0093106Y0105104D01*
X0108306Y0089904D01*
X0108296Y0089878D01*
X0108296Y0088525D01*
X0108813Y0087276D01*
X0109770Y0086319D01*
X0109940Y0086249D01*
X0109770Y0086178D01*
X0108813Y0085222D01*
X0108296Y0083972D01*
X0108296Y0082620D01*
X0108813Y0081370D01*
X0109770Y0080414D01*
X0109796Y0080403D01*
X0109796Y0078443D01*
X0109477Y0077673D01*
X0109477Y0076321D01*
X0109994Y0075071D01*
X0110951Y0074114D01*
X0112200Y0073597D01*
X0113553Y0073597D01*
X0114803Y0074114D01*
X0115759Y0075071D01*
X0116277Y0076321D01*
X0116277Y0077673D01*
X0115759Y0078923D01*
X0114803Y0079879D01*
X0113596Y0080379D01*
X0113596Y0080403D01*
X0113621Y0080414D01*
X0114578Y0081370D01*
X0115096Y0082620D01*
X0115096Y0083972D01*
X0114578Y0085222D01*
X0113621Y0086178D01*
X0113452Y0086249D01*
X0113621Y0086319D01*
X0114578Y0087276D01*
X0115096Y0088525D01*
X0115096Y0089878D01*
X0114578Y0091128D01*
X0113621Y0092084D01*
X0112372Y0092602D01*
X0111019Y0092602D01*
X0110993Y0092591D01*
X0095793Y0107791D01*
X0095804Y0107817D01*
X0095804Y0109169D01*
X0095287Y0110419D01*
X0094330Y0111375D01*
X0093080Y0111893D01*
X0091728Y0111893D01*
X0090478Y0111375D01*
X0089522Y0110419D01*
X0089004Y0109169D01*
X0089004Y0107817D01*
X0089522Y0106567D01*
X0090478Y0105611D01*
X0089646Y0106443D02*
X0082805Y0106443D01*
X0081207Y0104845D02*
X0093365Y0104845D01*
X0093798Y0103246D02*
X0094964Y0103246D01*
X0094871Y0101648D02*
X0096562Y0101648D01*
X0095017Y0100049D02*
X0098161Y0100049D01*
X0099759Y0098451D02*
X0094257Y0098451D01*
X0093517Y0096852D02*
X0101358Y0096852D01*
X0102956Y0095254D02*
X0093517Y0095254D01*
X0093517Y0093655D02*
X0104555Y0093655D01*
X0106153Y0092057D02*
X0093517Y0092057D01*
X0093517Y0090458D02*
X0107752Y0090458D01*
X0108296Y0088860D02*
X0093517Y0088860D01*
X0093517Y0087261D02*
X0108828Y0087261D01*
X0109254Y0085663D02*
X0093517Y0085663D01*
X0093517Y0084064D02*
X0108334Y0084064D01*
X0108359Y0082466D02*
X0093517Y0082466D01*
X0093517Y0080867D02*
X0109316Y0080867D01*
X0109796Y0079269D02*
X0094153Y0079269D01*
X0095017Y0077670D02*
X0109477Y0077670D01*
X0109580Y0076072D02*
X0094914Y0076072D01*
X0093901Y0074473D02*
X0110592Y0074473D01*
X0113804Y0071276D02*
X0092151Y0071276D01*
X0093749Y0069677D02*
X0112835Y0069677D01*
X0113280Y0070752D02*
X0112250Y0068264D01*
X0112250Y0065572D01*
X0113280Y0063084D01*
X0115184Y0061180D01*
X0117672Y0060150D01*
X0120365Y0060150D01*
X0122852Y0061180D01*
X0124756Y0063084D01*
X0125787Y0065572D01*
X0125787Y0068264D01*
X0124756Y0070752D01*
X0122852Y0072656D01*
X0120365Y0073687D01*
X0117672Y0073687D01*
X0115184Y0072656D01*
X0113280Y0070752D01*
X0112250Y0068079D02*
X0095348Y0068079D01*
X0096946Y0066480D02*
X0112250Y0066480D01*
X0112536Y0064882D02*
X0098545Y0064882D01*
X0102265Y0063283D02*
X0113198Y0063283D01*
X0114679Y0061685D02*
X0102891Y0061685D01*
X0102689Y0060086D02*
X0147026Y0060086D01*
X0147002Y0060110D02*
X0147959Y0059154D01*
X0149208Y0058636D01*
X0150561Y0058636D01*
X0151810Y0059154D01*
X0152767Y0060110D01*
X0153284Y0061360D01*
X0153284Y0062713D01*
X0152767Y0063962D01*
X0151810Y0064919D01*
X0150561Y0065436D01*
X0149208Y0065436D01*
X0149182Y0065425D01*
X0146072Y0068536D01*
X0146198Y0068840D01*
X0146198Y0070193D01*
X0145680Y0071442D01*
X0145491Y0071631D01*
X0150266Y0071631D01*
X0150266Y0079031D01*
X0151866Y0079031D01*
X0151866Y0079032D02*
X0151866Y0080631D01*
X0161366Y0080631D01*
X0161366Y0086468D01*
X0161243Y0086926D01*
X0161006Y0087337D01*
X0160671Y0087672D01*
X0160260Y0087909D01*
X0159803Y0088031D01*
X0151866Y0088031D01*
X0151866Y0080632D01*
X0150266Y0080632D01*
X0150266Y0088031D01*
X0142329Y0088031D01*
X0141871Y0087909D01*
X0141460Y0087672D01*
X0141125Y0087337D01*
X0140888Y0086926D01*
X0140766Y0086468D01*
X0140766Y0080631D01*
X0150266Y0080631D01*
X0150266Y0079032D01*
X0140766Y0079032D01*
X0140766Y0073195D01*
X0140888Y0072737D01*
X0141043Y0072470D01*
X0140872Y0072399D01*
X0139916Y0071442D01*
X0139398Y0070193D01*
X0139398Y0069622D01*
X0138930Y0070752D01*
X0137026Y0072656D01*
X0134538Y0073687D01*
X0131845Y0073687D01*
X0129358Y0072656D01*
X0127454Y0070752D01*
X0126423Y0068264D01*
X0126423Y0065572D01*
X0127454Y0063084D01*
X0129358Y0061180D01*
X0131845Y0060150D01*
X0134538Y0060150D01*
X0137026Y0061180D01*
X0138930Y0063084D01*
X0139960Y0065572D01*
X0139960Y0067546D01*
X0140872Y0066634D01*
X0142122Y0066117D01*
X0143117Y0066117D01*
X0146495Y0062738D01*
X0146485Y0062713D01*
X0146485Y0061360D01*
X0147002Y0060110D01*
X0146485Y0061685D02*
X0137530Y0061685D01*
X0139012Y0063283D02*
X0145950Y0063283D01*
X0144352Y0064882D02*
X0139674Y0064882D01*
X0139960Y0066480D02*
X0141243Y0066480D01*
X0139398Y0069677D02*
X0139375Y0069677D01*
X0139847Y0071276D02*
X0138406Y0071276D01*
X0136499Y0072874D02*
X0140851Y0072874D01*
X0140766Y0074473D02*
X0115161Y0074473D01*
X0115711Y0072874D02*
X0090552Y0072874D01*
X0101538Y0058488D02*
X0163781Y0058488D01*
X0163807Y0060086D02*
X0152743Y0060086D01*
X0153284Y0061685D02*
X0163833Y0061685D01*
X0163859Y0063283D02*
X0153048Y0063283D01*
X0151847Y0064882D02*
X0163885Y0064882D01*
X0163911Y0066480D02*
X0148127Y0066480D01*
X0146529Y0068079D02*
X0163936Y0068079D01*
X0163962Y0069677D02*
X0146198Y0069677D01*
X0145749Y0071276D02*
X0163988Y0071276D01*
X0164014Y0072874D02*
X0161280Y0072874D01*
X0161243Y0072737D02*
X0161366Y0073195D01*
X0161366Y0079032D01*
X0151866Y0079032D01*
X0151866Y0079031D02*
X0151866Y0071631D01*
X0159803Y0071631D01*
X0160260Y0071754D01*
X0160671Y0071991D01*
X0161006Y0072326D01*
X0161243Y0072737D01*
X0161366Y0074473D02*
X0164040Y0074473D01*
X0164066Y0076072D02*
X0161366Y0076072D01*
X0161366Y0077670D02*
X0164092Y0077670D01*
X0164117Y0079269D02*
X0151866Y0079269D01*
X0151866Y0080867D02*
X0150266Y0080867D01*
X0150266Y0079269D02*
X0115413Y0079269D01*
X0116277Y0077670D02*
X0140766Y0077670D01*
X0140766Y0076072D02*
X0116173Y0076072D01*
X0114075Y0080867D02*
X0140766Y0080867D01*
X0140766Y0082466D02*
X0115032Y0082466D01*
X0115058Y0084064D02*
X0140766Y0084064D01*
X0140766Y0085663D02*
X0114137Y0085663D01*
X0114563Y0087261D02*
X0141082Y0087261D01*
X0150266Y0087261D02*
X0151866Y0087261D01*
X0151866Y0085663D02*
X0150266Y0085663D01*
X0150266Y0084064D02*
X0151866Y0084064D01*
X0151866Y0082466D02*
X0150266Y0082466D01*
X0150266Y0077670D02*
X0151866Y0077670D01*
X0151866Y0076072D02*
X0150266Y0076072D01*
X0150266Y0074473D02*
X0151866Y0074473D01*
X0151866Y0072874D02*
X0150266Y0072874D01*
X0161366Y0080867D02*
X0164143Y0080867D01*
X0164169Y0082466D02*
X0161366Y0082466D01*
X0161366Y0084064D02*
X0164195Y0084064D01*
X0164221Y0085663D02*
X0161366Y0085663D01*
X0161050Y0087261D02*
X0164247Y0087261D01*
X0164273Y0088860D02*
X0115096Y0088860D01*
X0114855Y0090458D02*
X0164298Y0090458D01*
X0164324Y0092057D02*
X0113649Y0092057D01*
X0109929Y0093655D02*
X0164350Y0093655D01*
X0164376Y0095254D02*
X0108330Y0095254D01*
X0106732Y0096852D02*
X0164402Y0096852D01*
X0164428Y0098451D02*
X0105133Y0098451D01*
X0103535Y0100049D02*
X0164454Y0100049D01*
X0164480Y0101648D02*
X0101936Y0101648D01*
X0100338Y0103246D02*
X0164505Y0103246D01*
X0164531Y0104845D02*
X0098739Y0104845D01*
X0097141Y0106443D02*
X0114548Y0106443D01*
X0114956Y0106274D02*
X0116309Y0106274D01*
X0117558Y0106792D01*
X0118515Y0107748D01*
X0119033Y0108998D01*
X0119033Y0109424D01*
X0119852Y0109424D01*
X0121102Y0109941D01*
X0122058Y0110898D01*
X0122576Y0112147D01*
X0122576Y0113500D01*
X0122058Y0114750D01*
X0121102Y0115706D01*
X0121076Y0115717D01*
X0121076Y0115723D01*
X0121427Y0115723D01*
X0122677Y0116240D01*
X0123633Y0117197D01*
X0124151Y0118447D01*
X0124151Y0119799D01*
X0123633Y0121049D01*
X0122677Y0122005D01*
X0121427Y0122523D01*
X0120074Y0122523D01*
X0118825Y0122005D01*
X0117868Y0121049D01*
X0117351Y0119799D01*
X0117351Y0118447D01*
X0117361Y0118421D01*
X0117276Y0118335D01*
X0117276Y0115717D01*
X0117250Y0115706D01*
X0116293Y0114750D01*
X0115776Y0113500D01*
X0115776Y0113074D01*
X0114956Y0113074D01*
X0114930Y0113063D01*
X0113278Y0114716D01*
X0113397Y0114835D01*
X0113914Y0116084D01*
X0113914Y0117437D01*
X0113397Y0118687D01*
X0112440Y0119643D01*
X0111191Y0120161D01*
X0109838Y0120161D01*
X0108588Y0119643D01*
X0107632Y0118687D01*
X0107114Y0117437D01*
X0107114Y0116084D01*
X0107632Y0114835D01*
X0108588Y0113878D01*
X0108849Y0113770D01*
X0109727Y0112892D01*
X0112243Y0110376D01*
X0112233Y0110350D01*
X0112233Y0108998D01*
X0112750Y0107748D01*
X0113707Y0106792D01*
X0114956Y0106274D01*
X0112629Y0108042D02*
X0095804Y0108042D01*
X0095609Y0109640D02*
X0112233Y0109640D01*
X0111381Y0111239D02*
X0094467Y0111239D01*
X0090342Y0111239D02*
X0089722Y0111239D01*
X0089199Y0109640D02*
X0086002Y0109640D01*
X0084404Y0108042D02*
X0089004Y0108042D01*
X0090646Y0112837D02*
X0109782Y0112837D01*
X0108031Y0114436D02*
X0090625Y0114436D01*
X0089671Y0116034D02*
X0107135Y0116034D01*
X0107196Y0117633D02*
X0013255Y0117633D01*
X0013283Y0119231D02*
X0108177Y0119231D01*
X0112852Y0119231D02*
X0117351Y0119231D01*
X0117276Y0117633D02*
X0113833Y0117633D01*
X0113894Y0116034D02*
X0117276Y0116034D01*
X0116163Y0114436D02*
X0113558Y0114436D01*
X0117778Y0120830D02*
X0013311Y0120830D01*
X0013339Y0122428D02*
X0119846Y0122428D01*
X0121655Y0122428D02*
X0164816Y0122428D01*
X0164790Y0120830D02*
X0123724Y0120830D01*
X0124151Y0119231D02*
X0164764Y0119231D01*
X0164738Y0117633D02*
X0123814Y0117633D01*
X0122179Y0116034D02*
X0164712Y0116034D01*
X0164686Y0114436D02*
X0122188Y0114436D01*
X0122576Y0112837D02*
X0164661Y0112837D01*
X0164635Y0111239D02*
X0122199Y0111239D01*
X0120375Y0109640D02*
X0164609Y0109640D01*
X0164583Y0108042D02*
X0118637Y0108042D01*
X0116717Y0106443D02*
X0164557Y0106443D01*
X0164842Y0124027D02*
X0013367Y0124027D01*
X0013395Y0125625D02*
X0164845Y0125625D01*
X0164845Y0127224D02*
X0013423Y0127224D01*
X0013451Y0128822D02*
X0164845Y0128822D01*
X0164845Y0130421D02*
X0013479Y0130421D01*
X0013507Y0132019D02*
X0076656Y0132019D01*
X0076656Y0133618D02*
X0013535Y0133618D01*
X0013563Y0135216D02*
X0076656Y0135216D01*
X0076656Y0136815D02*
X0013591Y0136815D01*
X0013619Y0138413D02*
X0076656Y0138413D01*
X0076656Y0140012D02*
X0013647Y0140012D01*
X0013675Y0141610D02*
X0076656Y0141610D01*
X0076656Y0143209D02*
X0013703Y0143209D01*
X0013731Y0144807D02*
X0076656Y0144807D01*
X0076656Y0146406D02*
X0013759Y0146406D01*
X0013787Y0148005D02*
X0076656Y0148005D01*
X0076656Y0149603D02*
X0013815Y0149603D01*
X0013844Y0151202D02*
X0076656Y0151202D01*
X0084901Y0116034D02*
X0013227Y0116034D01*
X0013199Y0114436D02*
X0083948Y0114436D01*
X0083825Y0112837D02*
X0013171Y0112837D01*
X0013143Y0111239D02*
X0082227Y0111239D01*
X0080628Y0109640D02*
X0013115Y0109640D01*
X0013087Y0108042D02*
X0047678Y0108042D01*
X0047171Y0107832D02*
X0046215Y0106876D01*
X0045697Y0105626D01*
X0045697Y0104273D01*
X0046215Y0103024D01*
X0047171Y0102067D01*
X0048421Y0101550D01*
X0049773Y0101550D01*
X0051023Y0102067D01*
X0051979Y0103024D01*
X0051990Y0103050D01*
X0052503Y0103050D01*
X0052514Y0103024D01*
X0053470Y0102067D01*
X0054720Y0101550D01*
X0056073Y0101550D01*
X0057322Y0102067D01*
X0058279Y0103024D01*
X0058796Y0104273D01*
X0058796Y0105626D01*
X0058279Y0106876D01*
X0057322Y0107832D01*
X0056073Y0108350D01*
X0054720Y0108350D01*
X0053470Y0107832D01*
X0052514Y0106876D01*
X0052503Y0106850D01*
X0051990Y0106850D01*
X0051979Y0106876D01*
X0051023Y0107832D01*
X0049773Y0108350D01*
X0048421Y0108350D01*
X0047171Y0107832D01*
X0046036Y0106443D02*
X0013059Y0106443D01*
X0013031Y0104845D02*
X0045697Y0104845D01*
X0046123Y0103246D02*
X0013003Y0103246D01*
X0012975Y0101648D02*
X0048184Y0101648D01*
X0050010Y0101648D02*
X0054483Y0101648D01*
X0056309Y0101648D02*
X0072636Y0101648D01*
X0074234Y0103246D02*
X0058371Y0103246D01*
X0058796Y0104845D02*
X0075833Y0104845D01*
X0077431Y0106443D02*
X0058458Y0106443D01*
X0056816Y0108042D02*
X0079030Y0108042D01*
X0081593Y0103246D02*
X0081955Y0103246D01*
X0071037Y0100049D02*
X0012947Y0100049D01*
X0012919Y0098451D02*
X0070425Y0098451D01*
X0070425Y0096852D02*
X0012891Y0096852D01*
X0012863Y0095254D02*
X0070425Y0095254D01*
X0070002Y0093655D02*
X0012835Y0093655D01*
X0012807Y0092057D02*
X0069013Y0092057D01*
X0068940Y0090458D02*
X0012779Y0090458D01*
X0012751Y0088860D02*
X0069828Y0088860D01*
X0053977Y0108042D02*
X0050517Y0108042D01*
X0015631Y0087261D02*
X0012723Y0087261D01*
X0012695Y0085663D02*
X0015181Y0085663D01*
X0015181Y0084064D02*
X0012667Y0084064D01*
X0012639Y0082466D02*
X0015181Y0082466D01*
X0015181Y0080867D02*
X0012611Y0080867D01*
X0012583Y0079269D02*
X0015181Y0079269D01*
X0015181Y0077670D02*
X0012555Y0077670D01*
X0012527Y0076072D02*
X0015181Y0076072D01*
X0015181Y0074473D02*
X0012499Y0074473D01*
X0012471Y0072874D02*
X0015181Y0072874D01*
X0012026Y0004138D02*
X0162902Y0004138D01*
X0153844Y0002540D02*
X0012608Y0002540D01*
X0122325Y0072874D02*
X0129885Y0072874D01*
X0127977Y0071276D02*
X0124233Y0071276D01*
X0125202Y0069677D02*
X0127008Y0069677D01*
X0126423Y0068079D02*
X0125787Y0068079D01*
X0125787Y0066480D02*
X0126423Y0066480D01*
X0126709Y0064882D02*
X0125501Y0064882D01*
X0124839Y0063283D02*
X0127371Y0063283D01*
X0128853Y0061685D02*
X0123357Y0061685D01*
D13*
X0112877Y0076997D03*
X0111696Y0083296D03*
X0111696Y0089202D03*
X0110514Y0095501D03*
X0115633Y0109674D03*
X0119176Y0112824D03*
X0120751Y0119123D03*
X0110514Y0116761D03*
X0110514Y0129359D03*
X0092404Y0108493D03*
X0087286Y0113611D03*
X0084136Y0100619D03*
X0079412Y0100619D03*
X0077050Y0091170D03*
X0072325Y0091170D03*
X0055396Y0104950D03*
X0049097Y0104950D03*
X0036499Y0080146D03*
X0091617Y0076997D03*
X0096735Y0068729D03*
X0099491Y0061249D03*
X0091617Y0100619D03*
X0062877Y0142942D03*
X0142798Y0069517D03*
X0149885Y0062036D03*
D14*
X0142798Y0069123D01*
X0142798Y0069517D01*
X0112877Y0076997D02*
X0111696Y0078178D01*
X0111696Y0083296D01*
X0111696Y0089202D02*
X0092404Y0108493D01*
X0087286Y0113611D02*
X0072325Y0098650D01*
X0072325Y0091170D01*
X0077050Y0091170D02*
X0077050Y0098257D01*
X0079412Y0100619D01*
X0084136Y0100619D02*
X0088467Y0096288D01*
X0088467Y0072272D01*
X0099491Y0061249D01*
X0091617Y0076997D02*
X0091617Y0100619D01*
X0110514Y0114792D02*
X0110514Y0116761D01*
X0110514Y0114792D02*
X0115633Y0109674D01*
X0119176Y0112824D02*
X0119176Y0117548D01*
X0120751Y0119123D01*
X0055396Y0104950D02*
X0049097Y0104950D01*
X0036499Y0080146D02*
X0025081Y0080146D01*
X0025081Y0079831D01*
M02*
