G75*
%MOIN*%
%OFA0B0*%
%FSLAX25Y25*%
%IPPOS*%
%LPD*%
%AMOC8*
5,1,8,0,0,1.08239X$1,22.5*
%
%ADD10R,0.04737X0.05131*%
%ADD11R,0.05131X0.04737*%
%ADD12R,0.07099X0.11430*%
%ADD13R,0.03950X0.03950*%
%ADD14R,0.01981X0.02847*%
%ADD15R,0.06902X0.05524*%
%ADD16R,0.03300X0.08800*%
%ADD17C,0.00000*%
%ADD18C,0.04737*%
%ADD19C,0.01938*%
%ADD20R,0.04343X0.04540*%
%ADD21R,0.05918X0.05800*%
%ADD22C,0.04800*%
D10*
X0036459Y0107430D03*
X0036459Y0114123D03*
D11*
X0041144Y0096957D03*
X0047837Y0096957D03*
X0125121Y0100028D03*
X0131814Y0100028D03*
X0131814Y0088454D03*
X0125121Y0088454D03*
X0125121Y0111997D03*
X0131814Y0111997D03*
X0131814Y0122784D03*
X0125121Y0122784D03*
D12*
X0041459Y0045855D03*
X0052483Y0045855D03*
D13*
X0070121Y0038414D03*
X0076026Y0038414D03*
X0094255Y0038335D03*
X0100160Y0038335D03*
D14*
X0052168Y0108808D03*
X0050199Y0108808D03*
X0048231Y0108808D03*
X0048231Y0111761D03*
X0050199Y0111761D03*
X0052168Y0111761D03*
D15*
X0078743Y0075028D03*
X0097640Y0075028D03*
X0097640Y0056131D03*
X0079136Y0056131D03*
D16*
X0116656Y0059241D03*
X0121381Y0059241D03*
X0126105Y0059241D03*
X0130829Y0059438D03*
X0135554Y0059438D03*
X0135554Y0074792D03*
X0130829Y0074792D03*
X0126105Y0074792D03*
X0121381Y0074792D03*
X0116853Y0074792D03*
D17*
X0117049Y0066918D02*
X0117051Y0067006D01*
X0117057Y0067094D01*
X0117067Y0067182D01*
X0117081Y0067270D01*
X0117098Y0067356D01*
X0117120Y0067442D01*
X0117145Y0067526D01*
X0117175Y0067610D01*
X0117207Y0067692D01*
X0117244Y0067772D01*
X0117284Y0067851D01*
X0117328Y0067928D01*
X0117375Y0068003D01*
X0117425Y0068075D01*
X0117479Y0068146D01*
X0117535Y0068213D01*
X0117595Y0068279D01*
X0117657Y0068341D01*
X0117723Y0068401D01*
X0117790Y0068457D01*
X0117861Y0068511D01*
X0117933Y0068561D01*
X0118008Y0068608D01*
X0118085Y0068652D01*
X0118164Y0068692D01*
X0118244Y0068729D01*
X0118326Y0068761D01*
X0118410Y0068791D01*
X0118494Y0068816D01*
X0118580Y0068838D01*
X0118666Y0068855D01*
X0118754Y0068869D01*
X0118842Y0068879D01*
X0118930Y0068885D01*
X0119018Y0068887D01*
X0119106Y0068885D01*
X0119194Y0068879D01*
X0119282Y0068869D01*
X0119370Y0068855D01*
X0119456Y0068838D01*
X0119542Y0068816D01*
X0119626Y0068791D01*
X0119710Y0068761D01*
X0119792Y0068729D01*
X0119872Y0068692D01*
X0119951Y0068652D01*
X0120028Y0068608D01*
X0120103Y0068561D01*
X0120175Y0068511D01*
X0120246Y0068457D01*
X0120313Y0068401D01*
X0120379Y0068341D01*
X0120441Y0068279D01*
X0120501Y0068213D01*
X0120557Y0068146D01*
X0120611Y0068075D01*
X0120661Y0068003D01*
X0120708Y0067928D01*
X0120752Y0067851D01*
X0120792Y0067772D01*
X0120829Y0067692D01*
X0120861Y0067610D01*
X0120891Y0067526D01*
X0120916Y0067442D01*
X0120938Y0067356D01*
X0120955Y0067270D01*
X0120969Y0067182D01*
X0120979Y0067094D01*
X0120985Y0067006D01*
X0120987Y0066918D01*
X0120985Y0066830D01*
X0120979Y0066742D01*
X0120969Y0066654D01*
X0120955Y0066566D01*
X0120938Y0066480D01*
X0120916Y0066394D01*
X0120891Y0066310D01*
X0120861Y0066226D01*
X0120829Y0066144D01*
X0120792Y0066064D01*
X0120752Y0065985D01*
X0120708Y0065908D01*
X0120661Y0065833D01*
X0120611Y0065761D01*
X0120557Y0065690D01*
X0120501Y0065623D01*
X0120441Y0065557D01*
X0120379Y0065495D01*
X0120313Y0065435D01*
X0120246Y0065379D01*
X0120175Y0065325D01*
X0120103Y0065275D01*
X0120028Y0065228D01*
X0119951Y0065184D01*
X0119872Y0065144D01*
X0119792Y0065107D01*
X0119710Y0065075D01*
X0119626Y0065045D01*
X0119542Y0065020D01*
X0119456Y0064998D01*
X0119370Y0064981D01*
X0119282Y0064967D01*
X0119194Y0064957D01*
X0119106Y0064951D01*
X0119018Y0064949D01*
X0118930Y0064951D01*
X0118842Y0064957D01*
X0118754Y0064967D01*
X0118666Y0064981D01*
X0118580Y0064998D01*
X0118494Y0065020D01*
X0118410Y0065045D01*
X0118326Y0065075D01*
X0118244Y0065107D01*
X0118164Y0065144D01*
X0118085Y0065184D01*
X0118008Y0065228D01*
X0117933Y0065275D01*
X0117861Y0065325D01*
X0117790Y0065379D01*
X0117723Y0065435D01*
X0117657Y0065495D01*
X0117595Y0065557D01*
X0117535Y0065623D01*
X0117479Y0065690D01*
X0117425Y0065761D01*
X0117375Y0065833D01*
X0117328Y0065908D01*
X0117284Y0065985D01*
X0117244Y0066064D01*
X0117207Y0066144D01*
X0117175Y0066226D01*
X0117145Y0066310D01*
X0117120Y0066394D01*
X0117098Y0066480D01*
X0117081Y0066566D01*
X0117067Y0066654D01*
X0117057Y0066742D01*
X0117051Y0066830D01*
X0117049Y0066918D01*
X0131223Y0066918D02*
X0131225Y0067006D01*
X0131231Y0067094D01*
X0131241Y0067182D01*
X0131255Y0067270D01*
X0131272Y0067356D01*
X0131294Y0067442D01*
X0131319Y0067526D01*
X0131349Y0067610D01*
X0131381Y0067692D01*
X0131418Y0067772D01*
X0131458Y0067851D01*
X0131502Y0067928D01*
X0131549Y0068003D01*
X0131599Y0068075D01*
X0131653Y0068146D01*
X0131709Y0068213D01*
X0131769Y0068279D01*
X0131831Y0068341D01*
X0131897Y0068401D01*
X0131964Y0068457D01*
X0132035Y0068511D01*
X0132107Y0068561D01*
X0132182Y0068608D01*
X0132259Y0068652D01*
X0132338Y0068692D01*
X0132418Y0068729D01*
X0132500Y0068761D01*
X0132584Y0068791D01*
X0132668Y0068816D01*
X0132754Y0068838D01*
X0132840Y0068855D01*
X0132928Y0068869D01*
X0133016Y0068879D01*
X0133104Y0068885D01*
X0133192Y0068887D01*
X0133280Y0068885D01*
X0133368Y0068879D01*
X0133456Y0068869D01*
X0133544Y0068855D01*
X0133630Y0068838D01*
X0133716Y0068816D01*
X0133800Y0068791D01*
X0133884Y0068761D01*
X0133966Y0068729D01*
X0134046Y0068692D01*
X0134125Y0068652D01*
X0134202Y0068608D01*
X0134277Y0068561D01*
X0134349Y0068511D01*
X0134420Y0068457D01*
X0134487Y0068401D01*
X0134553Y0068341D01*
X0134615Y0068279D01*
X0134675Y0068213D01*
X0134731Y0068146D01*
X0134785Y0068075D01*
X0134835Y0068003D01*
X0134882Y0067928D01*
X0134926Y0067851D01*
X0134966Y0067772D01*
X0135003Y0067692D01*
X0135035Y0067610D01*
X0135065Y0067526D01*
X0135090Y0067442D01*
X0135112Y0067356D01*
X0135129Y0067270D01*
X0135143Y0067182D01*
X0135153Y0067094D01*
X0135159Y0067006D01*
X0135161Y0066918D01*
X0135159Y0066830D01*
X0135153Y0066742D01*
X0135143Y0066654D01*
X0135129Y0066566D01*
X0135112Y0066480D01*
X0135090Y0066394D01*
X0135065Y0066310D01*
X0135035Y0066226D01*
X0135003Y0066144D01*
X0134966Y0066064D01*
X0134926Y0065985D01*
X0134882Y0065908D01*
X0134835Y0065833D01*
X0134785Y0065761D01*
X0134731Y0065690D01*
X0134675Y0065623D01*
X0134615Y0065557D01*
X0134553Y0065495D01*
X0134487Y0065435D01*
X0134420Y0065379D01*
X0134349Y0065325D01*
X0134277Y0065275D01*
X0134202Y0065228D01*
X0134125Y0065184D01*
X0134046Y0065144D01*
X0133966Y0065107D01*
X0133884Y0065075D01*
X0133800Y0065045D01*
X0133716Y0065020D01*
X0133630Y0064998D01*
X0133544Y0064981D01*
X0133456Y0064967D01*
X0133368Y0064957D01*
X0133280Y0064951D01*
X0133192Y0064949D01*
X0133104Y0064951D01*
X0133016Y0064957D01*
X0132928Y0064967D01*
X0132840Y0064981D01*
X0132754Y0064998D01*
X0132668Y0065020D01*
X0132584Y0065045D01*
X0132500Y0065075D01*
X0132418Y0065107D01*
X0132338Y0065144D01*
X0132259Y0065184D01*
X0132182Y0065228D01*
X0132107Y0065275D01*
X0132035Y0065325D01*
X0131964Y0065379D01*
X0131897Y0065435D01*
X0131831Y0065495D01*
X0131769Y0065557D01*
X0131709Y0065623D01*
X0131653Y0065690D01*
X0131599Y0065761D01*
X0131549Y0065833D01*
X0131502Y0065908D01*
X0131458Y0065985D01*
X0131418Y0066064D01*
X0131381Y0066144D01*
X0131349Y0066226D01*
X0131319Y0066310D01*
X0131294Y0066394D01*
X0131272Y0066480D01*
X0131255Y0066566D01*
X0131241Y0066654D01*
X0131231Y0066742D01*
X0131225Y0066830D01*
X0131223Y0066918D01*
D18*
X0133192Y0066918D03*
X0119018Y0066918D03*
D19*
X0096835Y0088275D02*
X0096835Y0095011D01*
X0096835Y0088275D02*
X0096005Y0088275D01*
X0096005Y0095011D01*
X0096835Y0095011D01*
X0096835Y0090212D02*
X0096005Y0090212D01*
X0096005Y0092149D02*
X0096835Y0092149D01*
X0096835Y0094086D02*
X0096005Y0094086D01*
X0093685Y0095011D02*
X0093685Y0088275D01*
X0092855Y0088275D01*
X0092855Y0095011D01*
X0093685Y0095011D01*
X0093685Y0090212D02*
X0092855Y0090212D01*
X0092855Y0092149D02*
X0093685Y0092149D01*
X0093685Y0094086D02*
X0092855Y0094086D01*
X0090536Y0095011D02*
X0090536Y0088275D01*
X0089706Y0088275D01*
X0089706Y0095011D01*
X0090536Y0095011D01*
X0090536Y0090212D02*
X0089706Y0090212D01*
X0089706Y0092149D02*
X0090536Y0092149D01*
X0090536Y0094086D02*
X0089706Y0094086D01*
X0087386Y0095011D02*
X0087386Y0088275D01*
X0086556Y0088275D01*
X0086556Y0095011D01*
X0087386Y0095011D01*
X0087386Y0090212D02*
X0086556Y0090212D01*
X0086556Y0092149D02*
X0087386Y0092149D01*
X0087386Y0094086D02*
X0086556Y0094086D01*
X0084237Y0095011D02*
X0084237Y0088275D01*
X0083407Y0088275D01*
X0083407Y0095011D01*
X0084237Y0095011D01*
X0084237Y0090212D02*
X0083407Y0090212D01*
X0083407Y0092149D02*
X0084237Y0092149D01*
X0084237Y0094086D02*
X0083407Y0094086D01*
X0081087Y0095011D02*
X0081087Y0088275D01*
X0080257Y0088275D01*
X0080257Y0095011D01*
X0081087Y0095011D01*
X0081087Y0090212D02*
X0080257Y0090212D01*
X0080257Y0092149D02*
X0081087Y0092149D01*
X0081087Y0094086D02*
X0080257Y0094086D01*
X0076166Y0094377D02*
X0069430Y0094377D01*
X0069430Y0095207D01*
X0076166Y0095207D01*
X0076166Y0094377D01*
X0076166Y0097527D02*
X0069430Y0097527D01*
X0069430Y0098357D01*
X0076166Y0098357D01*
X0076166Y0097527D01*
X0076166Y0100676D02*
X0069430Y0100676D01*
X0069430Y0101506D01*
X0076166Y0101506D01*
X0076166Y0100676D01*
X0076166Y0103826D02*
X0069430Y0103826D01*
X0069430Y0104656D01*
X0076166Y0104656D01*
X0076166Y0103826D01*
X0076166Y0106976D02*
X0069430Y0106976D01*
X0069430Y0107806D01*
X0076166Y0107806D01*
X0076166Y0106976D01*
X0076166Y0110125D02*
X0069430Y0110125D01*
X0069430Y0110955D01*
X0076166Y0110955D01*
X0076166Y0110125D01*
X0076166Y0113275D02*
X0069430Y0113275D01*
X0069430Y0114105D01*
X0076166Y0114105D01*
X0076166Y0113275D01*
X0076166Y0116424D02*
X0069430Y0116424D01*
X0069430Y0117254D01*
X0076166Y0117254D01*
X0076166Y0116424D01*
X0076166Y0119574D02*
X0069430Y0119574D01*
X0069430Y0120404D01*
X0076166Y0120404D01*
X0076166Y0119574D01*
X0076166Y0122724D02*
X0069430Y0122724D01*
X0069430Y0123554D01*
X0076166Y0123554D01*
X0076166Y0122724D01*
X0076166Y0125873D02*
X0069430Y0125873D01*
X0069430Y0126703D01*
X0076166Y0126703D01*
X0076166Y0125873D01*
X0076166Y0129023D02*
X0069430Y0129023D01*
X0069430Y0129853D01*
X0076166Y0129853D01*
X0076166Y0129023D01*
X0076166Y0132172D02*
X0069430Y0132172D01*
X0069430Y0133002D01*
X0076166Y0133002D01*
X0076166Y0132172D01*
X0076166Y0135322D02*
X0069430Y0135322D01*
X0069430Y0136152D01*
X0076166Y0136152D01*
X0076166Y0135322D01*
X0076166Y0138472D02*
X0069430Y0138472D01*
X0069430Y0139302D01*
X0076166Y0139302D01*
X0076166Y0138472D01*
X0076166Y0141503D02*
X0069430Y0141503D01*
X0069430Y0142333D01*
X0076166Y0142333D01*
X0076166Y0141503D01*
X0076166Y0144535D02*
X0069430Y0144535D01*
X0069430Y0145365D01*
X0076166Y0145365D01*
X0076166Y0144535D01*
X0076166Y0147566D02*
X0069430Y0147566D01*
X0069430Y0148396D01*
X0076166Y0148396D01*
X0076166Y0147566D01*
X0100532Y0129023D02*
X0107268Y0129023D01*
X0100532Y0129023D02*
X0100532Y0129853D01*
X0107268Y0129853D01*
X0107268Y0129023D01*
X0107268Y0125873D02*
X0100532Y0125873D01*
X0100532Y0126703D01*
X0107268Y0126703D01*
X0107268Y0125873D01*
X0107268Y0122724D02*
X0100532Y0122724D01*
X0100532Y0123554D01*
X0107268Y0123554D01*
X0107268Y0122724D01*
X0107268Y0119574D02*
X0100532Y0119574D01*
X0100532Y0120404D01*
X0107268Y0120404D01*
X0107268Y0119574D01*
X0107268Y0116424D02*
X0100532Y0116424D01*
X0100532Y0117254D01*
X0107268Y0117254D01*
X0107268Y0116424D01*
X0107268Y0113275D02*
X0100532Y0113275D01*
X0100532Y0114105D01*
X0107268Y0114105D01*
X0107268Y0113275D01*
X0107268Y0110125D02*
X0100532Y0110125D01*
X0100532Y0110955D01*
X0107268Y0110955D01*
X0107268Y0110125D01*
X0107268Y0106976D02*
X0100532Y0106976D01*
X0100532Y0107806D01*
X0107268Y0107806D01*
X0107268Y0106976D01*
X0107268Y0103826D02*
X0100532Y0103826D01*
X0100532Y0104656D01*
X0107268Y0104656D01*
X0107268Y0103826D01*
X0107268Y0100676D02*
X0100532Y0100676D01*
X0100532Y0101506D01*
X0107268Y0101506D01*
X0107268Y0100676D01*
X0107268Y0097527D02*
X0100532Y0097527D01*
X0100532Y0098357D01*
X0107268Y0098357D01*
X0107268Y0097527D01*
X0107268Y0094377D02*
X0100532Y0094377D01*
X0100532Y0095207D01*
X0107268Y0095207D01*
X0107268Y0094377D01*
D20*
X0115593Y0045894D03*
X0115593Y0039595D03*
X0131735Y0039595D03*
X0131735Y0045894D03*
D21*
X0050160Y0122666D03*
X0041971Y0122706D03*
D22*
X0049097Y0104950D03*
X0055396Y0104950D03*
X0072325Y0091170D03*
X0077050Y0091170D03*
X0079412Y0100619D03*
X0084136Y0100619D03*
X0091617Y0100619D03*
X0092404Y0108493D03*
X0087286Y0113611D03*
X0110514Y0116761D03*
X0115633Y0109674D03*
X0119176Y0112824D03*
X0120751Y0119123D03*
X0110514Y0129359D03*
X0110514Y0095501D03*
X0111696Y0089202D03*
X0111696Y0083296D03*
X0112877Y0076997D03*
X0096735Y0068729D03*
X0099491Y0061249D03*
X0091617Y0076997D03*
X0142798Y0069517D03*
X0149885Y0062036D03*
X0062877Y0142942D03*
X0036499Y0080146D03*
M02*
