G75*
%MOIN*%
%OFA0B0*%
%FSLAX25Y25*%
%IPPOS*%
%LPD*%
%AMOC8*
5,1,8,0,0,1.08239X$1,22.5*
%
%ADD10R,0.03937X0.04331*%
%ADD11R,0.04331X0.03937*%
%ADD12R,0.06299X0.10630*%
%ADD13R,0.03150X0.03150*%
%ADD14R,0.01181X0.02047*%
%ADD15R,0.06102X0.04724*%
%ADD16R,0.02500X0.08000*%
%ADD17C,0.00000*%
%ADD18C,0.01378*%
%ADD19R,0.03543X0.03740*%
%ADD20R,0.05118X0.05000*%
D10*
X0036459Y0107430D03*
X0036459Y0114123D03*
D11*
X0041144Y0096957D03*
X0047837Y0096957D03*
X0125121Y0100028D03*
X0131814Y0100028D03*
X0131814Y0088454D03*
X0125121Y0088454D03*
X0125121Y0111997D03*
X0131814Y0111997D03*
X0131814Y0122784D03*
X0125121Y0122784D03*
D12*
X0041459Y0045855D03*
X0052483Y0045855D03*
D13*
X0070121Y0038414D03*
X0076026Y0038414D03*
X0094255Y0038335D03*
X0100160Y0038335D03*
D14*
X0052168Y0108808D03*
X0050199Y0108808D03*
X0048231Y0108808D03*
X0048231Y0111761D03*
X0050199Y0111761D03*
X0052168Y0111761D03*
D15*
X0078743Y0075028D03*
X0097640Y0075028D03*
X0097640Y0056131D03*
X0079136Y0056131D03*
D16*
X0116656Y0059241D03*
X0121381Y0059241D03*
X0126105Y0059241D03*
X0130829Y0059438D03*
X0135554Y0059438D03*
X0135554Y0074792D03*
X0130829Y0074792D03*
X0126105Y0074792D03*
X0121381Y0074792D03*
X0116853Y0074792D03*
D17*
X0117049Y0066918D02*
X0117051Y0067006D01*
X0117057Y0067094D01*
X0117067Y0067182D01*
X0117081Y0067270D01*
X0117098Y0067356D01*
X0117120Y0067442D01*
X0117145Y0067526D01*
X0117175Y0067610D01*
X0117207Y0067692D01*
X0117244Y0067772D01*
X0117284Y0067851D01*
X0117328Y0067928D01*
X0117375Y0068003D01*
X0117425Y0068075D01*
X0117479Y0068146D01*
X0117535Y0068213D01*
X0117595Y0068279D01*
X0117657Y0068341D01*
X0117723Y0068401D01*
X0117790Y0068457D01*
X0117861Y0068511D01*
X0117933Y0068561D01*
X0118008Y0068608D01*
X0118085Y0068652D01*
X0118164Y0068692D01*
X0118244Y0068729D01*
X0118326Y0068761D01*
X0118410Y0068791D01*
X0118494Y0068816D01*
X0118580Y0068838D01*
X0118666Y0068855D01*
X0118754Y0068869D01*
X0118842Y0068879D01*
X0118930Y0068885D01*
X0119018Y0068887D01*
X0119106Y0068885D01*
X0119194Y0068879D01*
X0119282Y0068869D01*
X0119370Y0068855D01*
X0119456Y0068838D01*
X0119542Y0068816D01*
X0119626Y0068791D01*
X0119710Y0068761D01*
X0119792Y0068729D01*
X0119872Y0068692D01*
X0119951Y0068652D01*
X0120028Y0068608D01*
X0120103Y0068561D01*
X0120175Y0068511D01*
X0120246Y0068457D01*
X0120313Y0068401D01*
X0120379Y0068341D01*
X0120441Y0068279D01*
X0120501Y0068213D01*
X0120557Y0068146D01*
X0120611Y0068075D01*
X0120661Y0068003D01*
X0120708Y0067928D01*
X0120752Y0067851D01*
X0120792Y0067772D01*
X0120829Y0067692D01*
X0120861Y0067610D01*
X0120891Y0067526D01*
X0120916Y0067442D01*
X0120938Y0067356D01*
X0120955Y0067270D01*
X0120969Y0067182D01*
X0120979Y0067094D01*
X0120985Y0067006D01*
X0120987Y0066918D01*
X0120985Y0066830D01*
X0120979Y0066742D01*
X0120969Y0066654D01*
X0120955Y0066566D01*
X0120938Y0066480D01*
X0120916Y0066394D01*
X0120891Y0066310D01*
X0120861Y0066226D01*
X0120829Y0066144D01*
X0120792Y0066064D01*
X0120752Y0065985D01*
X0120708Y0065908D01*
X0120661Y0065833D01*
X0120611Y0065761D01*
X0120557Y0065690D01*
X0120501Y0065623D01*
X0120441Y0065557D01*
X0120379Y0065495D01*
X0120313Y0065435D01*
X0120246Y0065379D01*
X0120175Y0065325D01*
X0120103Y0065275D01*
X0120028Y0065228D01*
X0119951Y0065184D01*
X0119872Y0065144D01*
X0119792Y0065107D01*
X0119710Y0065075D01*
X0119626Y0065045D01*
X0119542Y0065020D01*
X0119456Y0064998D01*
X0119370Y0064981D01*
X0119282Y0064967D01*
X0119194Y0064957D01*
X0119106Y0064951D01*
X0119018Y0064949D01*
X0118930Y0064951D01*
X0118842Y0064957D01*
X0118754Y0064967D01*
X0118666Y0064981D01*
X0118580Y0064998D01*
X0118494Y0065020D01*
X0118410Y0065045D01*
X0118326Y0065075D01*
X0118244Y0065107D01*
X0118164Y0065144D01*
X0118085Y0065184D01*
X0118008Y0065228D01*
X0117933Y0065275D01*
X0117861Y0065325D01*
X0117790Y0065379D01*
X0117723Y0065435D01*
X0117657Y0065495D01*
X0117595Y0065557D01*
X0117535Y0065623D01*
X0117479Y0065690D01*
X0117425Y0065761D01*
X0117375Y0065833D01*
X0117328Y0065908D01*
X0117284Y0065985D01*
X0117244Y0066064D01*
X0117207Y0066144D01*
X0117175Y0066226D01*
X0117145Y0066310D01*
X0117120Y0066394D01*
X0117098Y0066480D01*
X0117081Y0066566D01*
X0117067Y0066654D01*
X0117057Y0066742D01*
X0117051Y0066830D01*
X0117049Y0066918D01*
X0131223Y0066918D02*
X0131225Y0067006D01*
X0131231Y0067094D01*
X0131241Y0067182D01*
X0131255Y0067270D01*
X0131272Y0067356D01*
X0131294Y0067442D01*
X0131319Y0067526D01*
X0131349Y0067610D01*
X0131381Y0067692D01*
X0131418Y0067772D01*
X0131458Y0067851D01*
X0131502Y0067928D01*
X0131549Y0068003D01*
X0131599Y0068075D01*
X0131653Y0068146D01*
X0131709Y0068213D01*
X0131769Y0068279D01*
X0131831Y0068341D01*
X0131897Y0068401D01*
X0131964Y0068457D01*
X0132035Y0068511D01*
X0132107Y0068561D01*
X0132182Y0068608D01*
X0132259Y0068652D01*
X0132338Y0068692D01*
X0132418Y0068729D01*
X0132500Y0068761D01*
X0132584Y0068791D01*
X0132668Y0068816D01*
X0132754Y0068838D01*
X0132840Y0068855D01*
X0132928Y0068869D01*
X0133016Y0068879D01*
X0133104Y0068885D01*
X0133192Y0068887D01*
X0133280Y0068885D01*
X0133368Y0068879D01*
X0133456Y0068869D01*
X0133544Y0068855D01*
X0133630Y0068838D01*
X0133716Y0068816D01*
X0133800Y0068791D01*
X0133884Y0068761D01*
X0133966Y0068729D01*
X0134046Y0068692D01*
X0134125Y0068652D01*
X0134202Y0068608D01*
X0134277Y0068561D01*
X0134349Y0068511D01*
X0134420Y0068457D01*
X0134487Y0068401D01*
X0134553Y0068341D01*
X0134615Y0068279D01*
X0134675Y0068213D01*
X0134731Y0068146D01*
X0134785Y0068075D01*
X0134835Y0068003D01*
X0134882Y0067928D01*
X0134926Y0067851D01*
X0134966Y0067772D01*
X0135003Y0067692D01*
X0135035Y0067610D01*
X0135065Y0067526D01*
X0135090Y0067442D01*
X0135112Y0067356D01*
X0135129Y0067270D01*
X0135143Y0067182D01*
X0135153Y0067094D01*
X0135159Y0067006D01*
X0135161Y0066918D01*
X0135159Y0066830D01*
X0135153Y0066742D01*
X0135143Y0066654D01*
X0135129Y0066566D01*
X0135112Y0066480D01*
X0135090Y0066394D01*
X0135065Y0066310D01*
X0135035Y0066226D01*
X0135003Y0066144D01*
X0134966Y0066064D01*
X0134926Y0065985D01*
X0134882Y0065908D01*
X0134835Y0065833D01*
X0134785Y0065761D01*
X0134731Y0065690D01*
X0134675Y0065623D01*
X0134615Y0065557D01*
X0134553Y0065495D01*
X0134487Y0065435D01*
X0134420Y0065379D01*
X0134349Y0065325D01*
X0134277Y0065275D01*
X0134202Y0065228D01*
X0134125Y0065184D01*
X0134046Y0065144D01*
X0133966Y0065107D01*
X0133884Y0065075D01*
X0133800Y0065045D01*
X0133716Y0065020D01*
X0133630Y0064998D01*
X0133544Y0064981D01*
X0133456Y0064967D01*
X0133368Y0064957D01*
X0133280Y0064951D01*
X0133192Y0064949D01*
X0133104Y0064951D01*
X0133016Y0064957D01*
X0132928Y0064967D01*
X0132840Y0064981D01*
X0132754Y0064998D01*
X0132668Y0065020D01*
X0132584Y0065045D01*
X0132500Y0065075D01*
X0132418Y0065107D01*
X0132338Y0065144D01*
X0132259Y0065184D01*
X0132182Y0065228D01*
X0132107Y0065275D01*
X0132035Y0065325D01*
X0131964Y0065379D01*
X0131897Y0065435D01*
X0131831Y0065495D01*
X0131769Y0065557D01*
X0131709Y0065623D01*
X0131653Y0065690D01*
X0131599Y0065761D01*
X0131549Y0065833D01*
X0131502Y0065908D01*
X0131458Y0065985D01*
X0131418Y0066064D01*
X0131381Y0066144D01*
X0131349Y0066226D01*
X0131319Y0066310D01*
X0131294Y0066394D01*
X0131272Y0066480D01*
X0131255Y0066566D01*
X0131241Y0066654D01*
X0131231Y0066742D01*
X0131225Y0066830D01*
X0131223Y0066918D01*
D18*
X0107148Y0094497D02*
X0100652Y0094497D01*
X0100652Y0095087D01*
X0107148Y0095087D01*
X0107148Y0094497D01*
X0107148Y0097647D02*
X0100652Y0097647D01*
X0100652Y0098237D01*
X0107148Y0098237D01*
X0107148Y0097647D01*
X0107148Y0100796D02*
X0100652Y0100796D01*
X0100652Y0101386D01*
X0107148Y0101386D01*
X0107148Y0100796D01*
X0107148Y0103946D02*
X0100652Y0103946D01*
X0100652Y0104536D01*
X0107148Y0104536D01*
X0107148Y0103946D01*
X0107148Y0107096D02*
X0100652Y0107096D01*
X0100652Y0107686D01*
X0107148Y0107686D01*
X0107148Y0107096D01*
X0107148Y0110245D02*
X0100652Y0110245D01*
X0100652Y0110835D01*
X0107148Y0110835D01*
X0107148Y0110245D01*
X0107148Y0113395D02*
X0100652Y0113395D01*
X0100652Y0113985D01*
X0107148Y0113985D01*
X0107148Y0113395D01*
X0107148Y0116544D02*
X0100652Y0116544D01*
X0100652Y0117134D01*
X0107148Y0117134D01*
X0107148Y0116544D01*
X0107148Y0119694D02*
X0100652Y0119694D01*
X0100652Y0120284D01*
X0107148Y0120284D01*
X0107148Y0119694D01*
X0107148Y0122844D02*
X0100652Y0122844D01*
X0100652Y0123434D01*
X0107148Y0123434D01*
X0107148Y0122844D01*
X0107148Y0125993D02*
X0100652Y0125993D01*
X0100652Y0126583D01*
X0107148Y0126583D01*
X0107148Y0125993D01*
X0107148Y0129143D02*
X0100652Y0129143D01*
X0100652Y0129733D01*
X0107148Y0129733D01*
X0107148Y0129143D01*
X0076046Y0129143D02*
X0069550Y0129143D01*
X0069550Y0129733D01*
X0076046Y0129733D01*
X0076046Y0129143D01*
X0076046Y0125993D02*
X0069550Y0125993D01*
X0069550Y0126583D01*
X0076046Y0126583D01*
X0076046Y0125993D01*
X0076046Y0122844D02*
X0069550Y0122844D01*
X0069550Y0123434D01*
X0076046Y0123434D01*
X0076046Y0122844D01*
X0076046Y0119694D02*
X0069550Y0119694D01*
X0069550Y0120284D01*
X0076046Y0120284D01*
X0076046Y0119694D01*
X0076046Y0116544D02*
X0069550Y0116544D01*
X0069550Y0117134D01*
X0076046Y0117134D01*
X0076046Y0116544D01*
X0076046Y0113395D02*
X0069550Y0113395D01*
X0069550Y0113985D01*
X0076046Y0113985D01*
X0076046Y0113395D01*
X0076046Y0110245D02*
X0069550Y0110245D01*
X0069550Y0110835D01*
X0076046Y0110835D01*
X0076046Y0110245D01*
X0076046Y0107096D02*
X0069550Y0107096D01*
X0069550Y0107686D01*
X0076046Y0107686D01*
X0076046Y0107096D01*
X0076046Y0103946D02*
X0069550Y0103946D01*
X0069550Y0104536D01*
X0076046Y0104536D01*
X0076046Y0103946D01*
X0076046Y0100796D02*
X0069550Y0100796D01*
X0069550Y0101386D01*
X0076046Y0101386D01*
X0076046Y0100796D01*
X0076046Y0097647D02*
X0069550Y0097647D01*
X0069550Y0098237D01*
X0076046Y0098237D01*
X0076046Y0097647D01*
X0076046Y0094497D02*
X0069550Y0094497D01*
X0069550Y0095087D01*
X0076046Y0095087D01*
X0076046Y0094497D01*
X0080967Y0094891D02*
X0080967Y0088395D01*
X0080377Y0088395D01*
X0080377Y0094891D01*
X0080967Y0094891D01*
X0080967Y0089772D02*
X0080377Y0089772D01*
X0080377Y0091149D02*
X0080967Y0091149D01*
X0080967Y0092526D02*
X0080377Y0092526D01*
X0080377Y0093903D02*
X0080967Y0093903D01*
X0084117Y0094891D02*
X0084117Y0088395D01*
X0083527Y0088395D01*
X0083527Y0094891D01*
X0084117Y0094891D01*
X0084117Y0089772D02*
X0083527Y0089772D01*
X0083527Y0091149D02*
X0084117Y0091149D01*
X0084117Y0092526D02*
X0083527Y0092526D01*
X0083527Y0093903D02*
X0084117Y0093903D01*
X0087266Y0094891D02*
X0087266Y0088395D01*
X0086676Y0088395D01*
X0086676Y0094891D01*
X0087266Y0094891D01*
X0087266Y0089772D02*
X0086676Y0089772D01*
X0086676Y0091149D02*
X0087266Y0091149D01*
X0087266Y0092526D02*
X0086676Y0092526D01*
X0086676Y0093903D02*
X0087266Y0093903D01*
X0090416Y0094891D02*
X0090416Y0088395D01*
X0089826Y0088395D01*
X0089826Y0094891D01*
X0090416Y0094891D01*
X0090416Y0089772D02*
X0089826Y0089772D01*
X0089826Y0091149D02*
X0090416Y0091149D01*
X0090416Y0092526D02*
X0089826Y0092526D01*
X0089826Y0093903D02*
X0090416Y0093903D01*
X0093565Y0094891D02*
X0093565Y0088395D01*
X0092975Y0088395D01*
X0092975Y0094891D01*
X0093565Y0094891D01*
X0093565Y0089772D02*
X0092975Y0089772D01*
X0092975Y0091149D02*
X0093565Y0091149D01*
X0093565Y0092526D02*
X0092975Y0092526D01*
X0092975Y0093903D02*
X0093565Y0093903D01*
X0096715Y0094891D02*
X0096715Y0088395D01*
X0096125Y0088395D01*
X0096125Y0094891D01*
X0096715Y0094891D01*
X0096715Y0089772D02*
X0096125Y0089772D01*
X0096125Y0091149D02*
X0096715Y0091149D01*
X0096715Y0092526D02*
X0096125Y0092526D01*
X0096125Y0093903D02*
X0096715Y0093903D01*
X0076046Y0132292D02*
X0069550Y0132292D01*
X0069550Y0132882D01*
X0076046Y0132882D01*
X0076046Y0132292D01*
X0076046Y0135442D02*
X0069550Y0135442D01*
X0069550Y0136032D01*
X0076046Y0136032D01*
X0076046Y0135442D01*
X0076046Y0138592D02*
X0069550Y0138592D01*
X0069550Y0139182D01*
X0076046Y0139182D01*
X0076046Y0138592D01*
X0076046Y0141623D02*
X0069550Y0141623D01*
X0069550Y0142213D01*
X0076046Y0142213D01*
X0076046Y0141623D01*
X0076046Y0144655D02*
X0069550Y0144655D01*
X0069550Y0145245D01*
X0076046Y0145245D01*
X0076046Y0144655D01*
X0076046Y0147686D02*
X0069550Y0147686D01*
X0069550Y0148276D01*
X0076046Y0148276D01*
X0076046Y0147686D01*
D19*
X0115593Y0045894D03*
X0115593Y0039595D03*
X0131735Y0039595D03*
X0131735Y0045894D03*
D20*
X0050160Y0122666D03*
X0041971Y0122706D03*
M02*
