G75*
%MOIN*%
%OFA0B0*%
%FSLAX25Y25*%
%IPPOS*%
%LPD*%
%AMOC8*
5,1,8,0,0,1.08239X$1,22.5*
%
%ADD10C,0.13398*%
%ADD11C,0.07887*%
%ADD12C,0.07300*%
%ADD13R,0.07300X0.07300*%
%ADD14OC8,0.09300*%
%ADD15OC8,0.07400*%
%ADD16OC8,0.05950*%
%ADD17C,0.04800*%
D10*
X0036124Y0041125D03*
X0326124Y0041125D03*
D11*
X0342580Y0031125D02*
X0349667Y0031125D01*
X0349667Y0011125D02*
X0342580Y0011125D01*
X0329667Y0081125D02*
X0322580Y0081125D01*
X0312167Y0081125D02*
X0305080Y0081125D01*
X0294667Y0081125D02*
X0287580Y0081125D01*
X0277167Y0081125D02*
X0270080Y0081125D01*
X0234667Y0081125D02*
X0227580Y0081125D01*
X0214667Y0081125D02*
X0207580Y0081125D01*
X0184667Y0081125D02*
X0177580Y0081125D01*
X0154667Y0081125D02*
X0147580Y0081125D01*
X0134667Y0081125D02*
X0127580Y0081125D01*
X0092167Y0081125D02*
X0085080Y0081125D01*
X0074667Y0081125D02*
X0067580Y0081125D01*
X0057167Y0081125D02*
X0050080Y0081125D01*
X0039667Y0081125D02*
X0032580Y0081125D01*
D12*
X0081124Y0051125D03*
X0166124Y0051125D03*
X0196124Y0051125D03*
X0281124Y0051125D03*
D13*
X0281124Y0061125D03*
X0196124Y0061125D03*
X0166124Y0061125D03*
X0081124Y0061125D03*
D14*
X0126124Y0061125D03*
X0236124Y0061125D03*
X0236124Y0011125D03*
X0126124Y0011125D03*
D15*
X0061124Y0011125D03*
X0096124Y0011125D03*
X0146124Y0011125D03*
X0176124Y0011125D03*
X0186124Y0011125D03*
X0216124Y0011125D03*
X0266124Y0011125D03*
X0301124Y0011125D03*
X0256124Y0036125D03*
X0266124Y0041125D03*
X0301124Y0061125D03*
X0311124Y0066125D03*
X0341124Y0066125D03*
X0256124Y0066125D03*
X0216124Y0061125D03*
X0146124Y0061125D03*
X0106124Y0066125D03*
X0061124Y0061125D03*
X0051124Y0066125D03*
X0021124Y0066125D03*
X0096124Y0041125D03*
X0106124Y0036125D03*
X0176124Y0041125D03*
X0186124Y0041125D03*
D16*
X0341124Y0081125D03*
X0351124Y0081125D03*
X0021124Y0081125D03*
X0011124Y0081125D03*
D17*
X0230424Y0026025D03*
M02*
