G75*
%MOIN*%
%OFA0B0*%
%FSLAX25Y25*%
%IPPOS*%
%LPD*%
%AMOC8*
5,1,8,0,0,1.08239X$1,22.5*
%
%ADD10C,0.07087*%
%ADD11OC8,0.06600*%
%ADD12C,0.06500*%
%ADD13R,0.06500X0.06500*%
%ADD14OC8,0.08500*%
%ADD15C,0.02500*%
%ADD16C,0.01500*%
D10*
X0036457Y0085000D02*
X0043543Y0085000D01*
X0053957Y0085000D02*
X0061043Y0085000D01*
X0071457Y0085000D02*
X0078543Y0085000D01*
X0088957Y0085000D02*
X0096043Y0085000D01*
X0131457Y0085000D02*
X0138543Y0085000D01*
X0151457Y0085000D02*
X0158543Y0085000D01*
X0181457Y0085000D02*
X0188543Y0085000D01*
X0211457Y0085000D02*
X0218543Y0085000D01*
X0231457Y0085000D02*
X0238543Y0085000D01*
X0273957Y0085000D02*
X0281043Y0085000D01*
X0291457Y0085000D02*
X0298543Y0085000D01*
X0308957Y0085000D02*
X0316043Y0085000D01*
X0326457Y0085000D02*
X0333543Y0085000D01*
X0346457Y0036250D02*
X0353543Y0036250D01*
X0353543Y0016250D02*
X0346457Y0016250D01*
D11*
X0060000Y0012500D03*
X0092500Y0013750D03*
X0145000Y0017500D03*
X0178750Y0016250D03*
X0191250Y0016250D03*
X0224687Y0017500D03*
X0276500Y0013750D03*
X0310000Y0012500D03*
X0276500Y0043750D03*
X0266500Y0043750D03*
X0310000Y0062500D03*
X0326250Y0065000D03*
X0356250Y0065000D03*
X0356250Y0085000D03*
X0346250Y0085000D03*
X0266500Y0073750D03*
X0224687Y0067500D03*
X0145000Y0067500D03*
X0102500Y0073750D03*
X0060000Y0062500D03*
X0043750Y0065000D03*
X0013750Y0065000D03*
X0013750Y0085000D03*
X0023750Y0085000D03*
X0178750Y0046250D03*
X0191250Y0046250D03*
X0102500Y0043750D03*
X0092500Y0043750D03*
D12*
X0075000Y0057500D03*
X0161250Y0060000D03*
X0198750Y0060000D03*
X0285000Y0057500D03*
D13*
X0295000Y0057500D03*
X0208750Y0060000D03*
X0171250Y0060000D03*
X0085000Y0057500D03*
D14*
X0122500Y0067500D03*
X0246875Y0067500D03*
X0246875Y0017500D03*
X0122500Y0017500D03*
D15*
X0191250Y0016250D02*
X0191300Y0016250D01*
X0191300Y0038300D01*
X0198050Y0045050D01*
X0198050Y0049100D01*
X0284900Y0049100D01*
X0284900Y0057200D01*
X0285000Y0057500D01*
X0284900Y0049100D02*
X0284900Y0022100D01*
X0285800Y0021650D01*
X0294800Y0012650D01*
X0309650Y0012650D01*
X0310000Y0012500D01*
X0311000Y0013100D01*
X0314150Y0016250D01*
X0350000Y0016250D01*
X0284900Y0022100D02*
X0276800Y0014000D01*
X0276500Y0013750D01*
X0198050Y0049100D02*
X0198050Y0059000D01*
X0198750Y0060000D01*
X0198500Y0060350D01*
X0179600Y0079250D01*
X0161600Y0061250D01*
X0161600Y0060350D01*
X0161250Y0060000D01*
X0179600Y0079250D02*
X0185000Y0084650D01*
X0185000Y0085000D01*
D16*
X0057500Y0085000D02*
X0057200Y0084650D01*
X0052250Y0079700D01*
X0034250Y0079700D01*
X0029300Y0084650D01*
X0023900Y0084650D01*
X0023750Y0085000D01*
X0312500Y0085000D02*
X0312800Y0084650D01*
X0317750Y0079700D01*
X0347900Y0079700D01*
X0352850Y0084650D01*
X0356000Y0084650D01*
X0356250Y0085000D01*
M02*
