G75*
%MOIN*%
%OFA0B0*%
%FSLAX25Y25*%
%IPPOS*%
%LPD*%
%AMOC8*
5,1,8,0,0,1.08239X$1,22.5*
%
%ADD10C,0.07087*%
%ADD11OC8,0.06600*%
%ADD12C,0.06500*%
%ADD13R,0.06500X0.06500*%
%ADD14OC8,0.08500*%
%ADD15C,0.01500*%
%ADD16C,0.01000*%
%ADD17C,0.02500*%
D10*
X0012707Y0016250D02*
X0019793Y0016250D01*
X0019793Y0036250D02*
X0012707Y0036250D01*
X0032707Y0085000D02*
X0039793Y0085000D01*
X0050207Y0085000D02*
X0057293Y0085000D01*
X0067707Y0085000D02*
X0074793Y0085000D01*
X0085207Y0085000D02*
X0092293Y0085000D01*
X0127707Y0085000D02*
X0134793Y0085000D01*
X0147707Y0085000D02*
X0154793Y0085000D01*
X0177707Y0085000D02*
X0184793Y0085000D01*
X0207707Y0085000D02*
X0214793Y0085000D01*
X0227707Y0085000D02*
X0234793Y0085000D01*
X0270207Y0085000D02*
X0277293Y0085000D01*
X0287707Y0085000D02*
X0294793Y0085000D01*
X0305207Y0085000D02*
X0312293Y0085000D01*
X0322707Y0085000D02*
X0329793Y0085000D01*
D11*
X0056250Y0012500D03*
X0089750Y0013750D03*
X0141563Y0017500D03*
X0175000Y0016250D03*
X0187500Y0016250D03*
X0221250Y0017500D03*
X0273750Y0013750D03*
X0306250Y0012500D03*
X0273750Y0043750D03*
X0263750Y0043750D03*
X0306250Y0062500D03*
X0322500Y0065000D03*
X0352500Y0065000D03*
X0352500Y0085000D03*
X0342500Y0085000D03*
X0263750Y0073750D03*
X0221250Y0067500D03*
X0141563Y0067500D03*
X0099750Y0073750D03*
X0056250Y0062500D03*
X0040000Y0065000D03*
X0010000Y0065000D03*
X0010000Y0085000D03*
X0020000Y0085000D03*
X0175000Y0046250D03*
X0187500Y0046250D03*
X0099750Y0043750D03*
X0089750Y0043750D03*
D12*
X0081250Y0057500D03*
X0167500Y0060000D03*
X0205000Y0060000D03*
X0291250Y0057500D03*
D13*
X0281250Y0057500D03*
X0195000Y0060000D03*
X0157500Y0060000D03*
X0071250Y0057500D03*
D14*
X0119375Y0067500D03*
X0243750Y0067500D03*
X0243750Y0017500D03*
X0119375Y0017500D03*
D15*
X0108600Y0010050D02*
X0099700Y0018950D01*
X0046700Y0018950D01*
X0029600Y0036050D01*
X0016550Y0036050D01*
X0016250Y0036250D01*
X0089750Y0043750D02*
X0089900Y0043700D01*
X0099350Y0043700D01*
X0099750Y0043750D01*
X0100250Y0044150D01*
X0100250Y0048200D01*
X0119150Y0067100D01*
X0119375Y0067500D01*
X0099750Y0073750D02*
X0099350Y0073850D01*
X0088550Y0084650D01*
X0088750Y0085000D01*
X0071250Y0085000D02*
X0071000Y0084650D01*
X0071000Y0058100D01*
X0071250Y0057500D01*
X0071000Y0057650D01*
X0061100Y0057650D01*
X0056250Y0062500D01*
X0151550Y0066650D02*
X0157400Y0060800D01*
X0157500Y0060000D01*
X0157850Y0059900D01*
X0160550Y0059900D01*
X0174050Y0046400D01*
X0174950Y0046400D01*
X0175000Y0046250D01*
X0187500Y0046250D02*
X0187550Y0046400D01*
X0194750Y0053600D01*
X0194750Y0059900D01*
X0195000Y0060000D01*
X0194400Y0062850D01*
X0210950Y0079400D01*
X0210950Y0084650D01*
X0211250Y0085000D01*
X0221300Y0074750D02*
X0231200Y0084650D01*
X0231250Y0085000D01*
X0221300Y0074750D02*
X0221300Y0067550D01*
X0221250Y0067500D01*
X0221750Y0067100D01*
X0243350Y0045500D01*
X0243350Y0017600D01*
X0243750Y0017500D01*
X0221250Y0017500D02*
X0220850Y0017600D01*
X0219650Y0017600D01*
X0209800Y0027450D01*
X0151500Y0027450D01*
X0141650Y0017600D01*
X0141563Y0017500D01*
X0141200Y0017150D01*
X0134100Y0010050D01*
X0108600Y0010050D01*
X0243800Y0067100D02*
X0263150Y0047750D01*
X0263150Y0044150D01*
X0263750Y0043750D01*
X0264050Y0043700D01*
X0273500Y0043700D01*
X0273750Y0043750D01*
X0281250Y0057500D02*
X0281600Y0057650D01*
X0281800Y0061400D01*
X0290500Y0070100D01*
X0291050Y0070100D01*
X0291050Y0084650D01*
X0291250Y0085000D01*
X0273750Y0085000D02*
X0273500Y0084650D01*
X0264050Y0075200D01*
X0264050Y0073850D01*
X0263750Y0073750D01*
X0243750Y0067500D02*
X0243800Y0067100D01*
X0291050Y0070100D02*
X0296250Y0070100D01*
X0300000Y0067500D01*
X0305900Y0062600D01*
X0306250Y0062500D01*
X0151550Y0066650D02*
X0151550Y0084650D01*
X0151250Y0085000D01*
D16*
X0039950Y0081050D02*
X0039950Y0065300D01*
X0040000Y0065000D01*
X0019700Y0074750D02*
X0010250Y0065300D01*
X0010000Y0065000D01*
X0019700Y0074750D02*
X0019700Y0084650D01*
X0020000Y0085000D01*
X0036250Y0085000D02*
X0036350Y0084650D01*
X0039950Y0081050D01*
X0322550Y0081050D02*
X0322550Y0065300D01*
X0322500Y0065000D01*
X0352250Y0065300D02*
X0352500Y0065000D01*
X0352250Y0065300D02*
X0352250Y0084650D01*
X0352500Y0085000D01*
X0326250Y0085000D02*
X0326150Y0084650D01*
X0322550Y0081050D01*
D17*
X0291500Y0057200D02*
X0291250Y0057500D01*
X0291500Y0057200D02*
X0291500Y0027050D01*
X0290600Y0026600D01*
X0278000Y0014000D01*
X0273950Y0014000D01*
X0273750Y0013750D01*
X0272600Y0013100D01*
X0259550Y0013100D01*
X0257300Y0010850D01*
X0193400Y0010850D01*
X0188450Y0015800D01*
X0187500Y0016250D01*
X0175000Y0016250D01*
X0119600Y0017600D02*
X0119375Y0017500D01*
X0119600Y0017600D02*
X0119600Y0045500D01*
X0140750Y0066650D01*
X0141563Y0067500D01*
X0141200Y0067550D01*
X0141200Y0074750D01*
X0131300Y0084650D01*
X0131250Y0085000D01*
X0291500Y0027050D02*
X0305900Y0012650D01*
X0306250Y0012500D01*
M02*
