%
M48
M72
T01C0.02756
T02C0.03150
T03C0.03200
T04C0.04000
T05C0.12598
%
T01
X148750Y50000
X158750Y50000
X203750Y50000
X213750Y50000
X288750Y61250
X298750Y61250
X73750Y61250
X63750Y61250
T02
X71250Y85000
X88750Y85000
X53750Y85000
X36250Y85000
X131250Y85000
X151250Y85000
X181250Y85000
X211250Y85000
X231250Y85000
X273750Y85000
X291250Y85000
X308750Y85000
X326250Y85000
X211250Y15000
X181250Y15000
X151250Y15000
T03
X50000Y13750
X80000Y15000
X132500Y16250
X173750Y30000
X188750Y30000
X228750Y16250
X285000Y15000
X312500Y13750
X346250Y25000
X271250Y40000
X285000Y45000
X346250Y55000
X312500Y63750
X271250Y70000
X228750Y66250
X188750Y60000
X173750Y60000
X132500Y66250
X91250Y70000
X50000Y63750
X16250Y55000
X80000Y45000
X91250Y40000
X16250Y25000
X20000Y85000
X10000Y85000
X342500Y85000
X352500Y85000
T04
X250000Y75000
X112500Y75000
X112500Y25000
X250000Y25000
T05
X326250Y50000
X36250Y50000
M30
