G75*
%MOIN*%
%OFA0B0*%
%FSLAX25Y25*%
%IPPOS*%
%LPD*%
%AMOC8*
5,1,8,0,0,1.08239X$1,22.5*
%
%ADD10C,0.05200*%
%ADD11C,0.06000*%
%ADD12C,0.18898*%
%ADD13C,0.05200*%
%ADD14R,0.07400X0.07400*%
%ADD15C,0.07400*%
%ADD16R,0.07000X0.07000*%
%ADD17OC8,0.07400*%
%ADD18C,0.01200*%
%ADD19C,0.02400*%
%ADD20C,0.01600*%
%ADD21C,0.02000*%
%ADD22C,0.01000*%
D10*
X0166073Y0120800D03*
X0185073Y0120800D03*
D11*
X0053373Y0185900D02*
X0047373Y0185900D01*
X0027773Y0185900D02*
X0021773Y0185900D01*
X0021773Y0203700D02*
X0027773Y0203700D01*
X0047373Y0203700D02*
X0053373Y0203700D01*
D12*
X0055148Y0042194D03*
X0043337Y0023690D03*
X0031919Y0042194D03*
D13*
X0132573Y0057200D02*
X0132573Y0062400D01*
X0142573Y0062400D02*
X0142573Y0057200D01*
X0152573Y0057200D02*
X0152573Y0062400D01*
X0162573Y0062400D02*
X0162573Y0057200D01*
X0172573Y0057200D02*
X0172573Y0062400D01*
X0182573Y0062400D02*
X0182573Y0057200D01*
X0192573Y0057200D02*
X0192573Y0062400D01*
X0202573Y0062400D02*
X0202573Y0057200D01*
X0212573Y0057200D02*
X0212573Y0062400D01*
X0222573Y0062400D02*
X0222573Y0057200D01*
X0232573Y0057200D02*
X0232573Y0062400D01*
X0242573Y0062400D02*
X0242573Y0057200D01*
X0252573Y0057200D02*
X0252573Y0062400D01*
X0262573Y0062400D02*
X0262573Y0057200D01*
X0262573Y0087200D02*
X0262573Y0092400D01*
X0252573Y0092400D02*
X0252573Y0087200D01*
X0242573Y0087200D02*
X0242573Y0092400D01*
X0232573Y0092400D02*
X0232573Y0087200D01*
X0222573Y0087200D02*
X0222573Y0092400D01*
X0212573Y0092400D02*
X0212573Y0087200D01*
X0202573Y0087200D02*
X0202573Y0092400D01*
X0192573Y0092400D02*
X0192573Y0087200D01*
X0182573Y0087200D02*
X0182573Y0092400D01*
X0172573Y0092400D02*
X0172573Y0087200D01*
X0162573Y0087200D02*
X0162573Y0092400D01*
X0152573Y0092400D02*
X0152573Y0087200D01*
X0142573Y0087200D02*
X0142573Y0092400D01*
X0132573Y0092400D02*
X0132573Y0087200D01*
D14*
X0128573Y0015800D03*
X0208573Y0016800D03*
X0188573Y0207300D03*
X0082573Y0207300D03*
D15*
X0092573Y0206300D03*
X0102573Y0207300D03*
X0112573Y0206300D03*
X0122573Y0207300D03*
X0132573Y0206300D03*
X0142573Y0207300D03*
X0152573Y0206300D03*
X0162573Y0207300D03*
X0172573Y0206300D03*
X0198573Y0206300D03*
X0208573Y0207300D03*
X0218573Y0206300D03*
X0228573Y0207300D03*
X0238573Y0206300D03*
X0248573Y0207300D03*
X0258573Y0206300D03*
X0248573Y0016800D03*
X0258573Y0015800D03*
X0238573Y0015800D03*
X0228573Y0016800D03*
X0218573Y0015800D03*
X0188573Y0015800D03*
X0178573Y0016800D03*
X0168573Y0015800D03*
X0158573Y0016800D03*
X0148573Y0015800D03*
X0138573Y0016800D03*
D16*
X0259073Y0126800D03*
D17*
X0268573Y0126800D03*
X0269573Y0116800D03*
X0259573Y0116800D03*
X0258573Y0106800D03*
X0268573Y0106800D03*
D18*
X0206573Y0094000D02*
X0206573Y0085600D01*
X0202573Y0081600D01*
X0202573Y0059800D01*
X0192573Y0089800D02*
X0192573Y0090000D01*
X0198973Y0096400D01*
X0204173Y0096400D01*
X0206573Y0094000D01*
X0156173Y0028400D02*
X0168573Y0016000D01*
X0168573Y0015800D01*
X0085773Y0054000D02*
X0082173Y0054000D01*
X0052173Y0024000D01*
X0043373Y0024000D01*
X0043337Y0023690D01*
D19*
X0085773Y0054000D03*
X0093373Y0070000D03*
X0089373Y0087600D03*
X0094973Y0092000D03*
X0087373Y0103200D03*
X0072573Y0114400D03*
X0066173Y0114400D03*
X0068573Y0104800D03*
X0070573Y0096800D03*
X0060173Y0103200D03*
X0087373Y0122800D03*
X0095598Y0126400D03*
X0080573Y0133200D03*
X0068173Y0143200D03*
X0058973Y0157200D03*
X0116973Y0192800D03*
X0241773Y0116300D03*
X0192573Y0077200D03*
X0160973Y0066800D03*
X0156173Y0079600D03*
X0129373Y0047600D03*
X0156173Y0028400D03*
D20*
X0010373Y0008600D02*
X0010373Y0215000D01*
X0140486Y0215000D01*
X0140273Y0214787D01*
X0135786Y0210300D01*
X0135462Y0210624D01*
X0133587Y0211400D01*
X0131558Y0211400D01*
X0129684Y0210624D01*
X0128249Y0209189D01*
X0127673Y0207797D01*
X0127673Y0208314D01*
X0126896Y0210189D01*
X0125462Y0211624D01*
X0123587Y0212400D01*
X0121558Y0212400D01*
X0119684Y0211624D01*
X0118249Y0210189D01*
X0117583Y0208581D01*
X0117277Y0209183D01*
X0116768Y0209883D01*
X0116156Y0210495D01*
X0115455Y0211004D01*
X0114684Y0211397D01*
X0113861Y0211665D01*
X0113006Y0211800D01*
X0112773Y0211800D01*
X0112773Y0206500D01*
X0112373Y0206500D01*
X0112373Y0211800D01*
X0112140Y0211800D01*
X0111285Y0211665D01*
X0110462Y0211397D01*
X0109690Y0211004D01*
X0108990Y0210495D01*
X0108378Y0209883D01*
X0107869Y0209183D01*
X0107562Y0208581D01*
X0106896Y0210189D01*
X0105462Y0211624D01*
X0103587Y0212400D01*
X0101558Y0212400D01*
X0099684Y0211624D01*
X0098261Y0210201D01*
X0098251Y0210211D01*
X0098249Y0210211D01*
X0095360Y0213100D01*
X0089786Y0213100D01*
X0088673Y0211987D01*
X0087673Y0210987D01*
X0087673Y0211580D01*
X0086853Y0212400D01*
X0078293Y0212400D01*
X0077473Y0211580D01*
X0077473Y0203020D01*
X0078293Y0202200D01*
X0086853Y0202200D01*
X0087673Y0203020D01*
X0087673Y0204803D01*
X0088249Y0203411D01*
X0089684Y0201976D01*
X0091558Y0201200D01*
X0091668Y0201200D01*
X0090699Y0089865D01*
X0089890Y0090200D01*
X0088856Y0090200D01*
X0087900Y0089804D01*
X0087169Y0089073D01*
X0086773Y0088117D01*
X0086773Y0087083D01*
X0087169Y0086127D01*
X0087900Y0085396D01*
X0088856Y0085000D01*
X0089286Y0085000D01*
X0126773Y0047513D01*
X0126773Y0047083D01*
X0127169Y0046127D01*
X0127900Y0045396D01*
X0128856Y0045000D01*
X0129890Y0045000D01*
X0130846Y0045396D01*
X0131577Y0046127D01*
X0131973Y0047083D01*
X0131973Y0048100D01*
X0168586Y0048100D01*
X0169073Y0047613D01*
X0170186Y0046500D01*
X0252160Y0046500D01*
X0259888Y0054228D01*
X0260307Y0053809D01*
X0261571Y0053285D01*
X0240986Y0032700D01*
X0140586Y0032700D01*
X0138773Y0030887D01*
X0073173Y0096487D01*
X0073173Y0097317D01*
X0072777Y0098273D01*
X0072046Y0099004D01*
X0071090Y0099400D01*
X0070660Y0099400D01*
X0067721Y0102338D01*
X0068056Y0102200D01*
X0069090Y0102200D01*
X0070046Y0102596D01*
X0070777Y0103327D01*
X0070977Y0103810D01*
X0082607Y0115441D01*
X0082973Y0116323D01*
X0082973Y0132200D01*
X0083173Y0132683D01*
X0083173Y0133717D01*
X0082777Y0134673D01*
X0082046Y0135404D01*
X0081090Y0135800D01*
X0080056Y0135800D01*
X0079100Y0135404D01*
X0078369Y0134673D01*
X0077973Y0133717D01*
X0077973Y0132683D01*
X0078173Y0132200D01*
X0078173Y0117794D01*
X0075173Y0114794D01*
X0075173Y0114917D01*
X0074777Y0115873D01*
X0074473Y0116177D01*
X0074473Y0143187D01*
X0073360Y0144300D01*
X0061398Y0156262D01*
X0061573Y0156683D01*
X0061573Y0157717D01*
X0061177Y0158673D01*
X0060446Y0159404D01*
X0059490Y0159800D01*
X0058456Y0159800D01*
X0057500Y0159404D01*
X0056769Y0158673D01*
X0056373Y0157717D01*
X0056373Y0156683D01*
X0056769Y0155727D01*
X0057073Y0155423D01*
X0057073Y0155213D01*
X0066828Y0145457D01*
X0066700Y0145404D01*
X0065969Y0144673D01*
X0065573Y0143717D01*
X0065573Y0142683D01*
X0065969Y0141727D01*
X0066273Y0141423D01*
X0066273Y0117187D01*
X0066086Y0117000D01*
X0065673Y0117000D01*
X0065673Y0135987D01*
X0064560Y0137100D01*
X0026873Y0174787D01*
X0026873Y0181500D01*
X0028648Y0181500D01*
X0030265Y0182170D01*
X0031503Y0183408D01*
X0032173Y0185025D01*
X0032173Y0186775D01*
X0031503Y0188392D01*
X0030265Y0189630D01*
X0028648Y0190300D01*
X0020898Y0190300D01*
X0019280Y0189630D01*
X0018043Y0188392D01*
X0017373Y0186775D01*
X0017373Y0185025D01*
X0018043Y0183408D01*
X0019280Y0182170D01*
X0020898Y0181500D01*
X0023073Y0181500D01*
X0023073Y0173213D01*
X0025637Y0170649D01*
X0024904Y0170345D01*
X0023900Y0169341D01*
X0023356Y0168028D01*
X0023356Y0166607D01*
X0023900Y0165294D01*
X0024904Y0164290D01*
X0026217Y0163746D01*
X0027638Y0163746D01*
X0028951Y0164290D01*
X0029955Y0165294D01*
X0030259Y0166027D01*
X0061873Y0134413D01*
X0061873Y0105177D01*
X0061646Y0105404D01*
X0060690Y0105800D01*
X0059656Y0105800D01*
X0058700Y0105404D01*
X0057969Y0104673D01*
X0057573Y0103717D01*
X0057573Y0102683D01*
X0057969Y0101727D01*
X0058700Y0100996D01*
X0059183Y0100796D01*
X0090969Y0069010D01*
X0091169Y0068527D01*
X0091900Y0067796D01*
X0092856Y0067400D01*
X0093890Y0067400D01*
X0094846Y0067796D01*
X0095577Y0068527D01*
X0095630Y0068656D01*
X0136673Y0027613D01*
X0136673Y0021533D01*
X0135684Y0021124D01*
X0134249Y0019689D01*
X0133673Y0018297D01*
X0133673Y0020080D01*
X0132853Y0020900D01*
X0124293Y0020900D01*
X0123473Y0020080D01*
X0123473Y0011520D01*
X0124293Y0010700D01*
X0132853Y0010700D01*
X0133266Y0011113D01*
X0135338Y0009041D01*
X0135779Y0008600D01*
X0010373Y0008600D01*
X0010373Y0009997D02*
X0058922Y0009997D01*
X0058985Y0009934D02*
X0061962Y0008701D01*
X0065184Y0008701D01*
X0068161Y0009934D01*
X0070439Y0012212D01*
X0071672Y0015189D01*
X0071672Y0018411D01*
X0070439Y0021388D01*
X0068161Y0023666D01*
X0065184Y0024899D01*
X0061962Y0024899D01*
X0058985Y0023666D01*
X0056707Y0021388D01*
X0055474Y0018411D01*
X0055474Y0015189D01*
X0056707Y0012212D01*
X0058985Y0009934D01*
X0057323Y0011596D02*
X0010373Y0011596D01*
X0010373Y0013194D02*
X0039273Y0013194D01*
X0039025Y0013281D02*
X0040218Y0012864D01*
X0041449Y0012582D01*
X0042537Y0012460D01*
X0042537Y0022890D01*
X0044137Y0022890D01*
X0044137Y0024490D01*
X0054566Y0024490D01*
X0054444Y0025577D01*
X0054163Y0026809D01*
X0053746Y0028001D01*
X0053197Y0029140D01*
X0052525Y0030209D01*
X0051737Y0031197D01*
X0050844Y0032091D01*
X0050568Y0032310D01*
X0050960Y0032084D01*
X0053719Y0031345D01*
X0056576Y0031345D01*
X0059335Y0032084D01*
X0061809Y0033512D01*
X0063829Y0035532D01*
X0065257Y0038006D01*
X0065996Y0040765D01*
X0065996Y0043622D01*
X0065257Y0046381D01*
X0063829Y0048855D01*
X0061809Y0050875D01*
X0059335Y0052303D01*
X0056576Y0053043D01*
X0053719Y0053043D01*
X0050960Y0052303D01*
X0048486Y0050875D01*
X0046466Y0048855D01*
X0045038Y0046381D01*
X0044299Y0043622D01*
X0044299Y0040765D01*
X0045038Y0038006D01*
X0046466Y0035532D01*
X0048134Y0033865D01*
X0047648Y0034099D01*
X0046456Y0034516D01*
X0045224Y0034797D01*
X0044137Y0034920D01*
X0044137Y0024490D01*
X0042537Y0024490D01*
X0042537Y0034920D01*
X0041449Y0034797D01*
X0040218Y0034516D01*
X0040113Y0034479D01*
X0040320Y0034686D01*
X0041108Y0035674D01*
X0041780Y0036744D01*
X0042328Y0037882D01*
X0042745Y0039075D01*
X0043027Y0040306D01*
X0043149Y0041394D01*
X0032719Y0041394D01*
X0032719Y0042994D01*
X0031119Y0042994D01*
X0031119Y0053424D01*
X0030032Y0053301D01*
X0028800Y0053020D01*
X0027608Y0052603D01*
X0026469Y0052054D01*
X0025400Y0051382D01*
X0024412Y0050595D01*
X0023518Y0049701D01*
X0022731Y0048713D01*
X0022059Y0047644D01*
X0021510Y0046505D01*
X0021093Y0045313D01*
X0020812Y0044081D01*
X0020689Y0042994D01*
X0031119Y0042994D01*
X0031119Y0041394D01*
X0020689Y0041394D01*
X0020812Y0040306D01*
X0021093Y0039075D01*
X0021510Y0037882D01*
X0022059Y0036744D01*
X0022731Y0035674D01*
X0023518Y0034686D01*
X0024412Y0033793D01*
X0025400Y0033005D01*
X0026469Y0032333D01*
X0027608Y0031785D01*
X0028800Y0031367D01*
X0030032Y0031086D01*
X0031119Y0030964D01*
X0031119Y0041394D01*
X0032719Y0041394D01*
X0032719Y0030964D01*
X0033807Y0031086D01*
X0035038Y0031367D01*
X0035143Y0031404D01*
X0034936Y0031197D01*
X0034148Y0030209D01*
X0033476Y0029140D01*
X0032928Y0028001D01*
X0032510Y0026809D01*
X0032229Y0025577D01*
X0032107Y0024490D01*
X0042537Y0024490D01*
X0042537Y0022890D01*
X0032107Y0022890D01*
X0032229Y0021803D01*
X0032510Y0020571D01*
X0032928Y0019378D01*
X0033476Y0018240D01*
X0034148Y0017170D01*
X0034936Y0016182D01*
X0035829Y0015289D01*
X0036817Y0014501D01*
X0037887Y0013829D01*
X0039025Y0013281D01*
X0036452Y0014793D02*
X0010373Y0014793D01*
X0010373Y0016391D02*
X0034769Y0016391D01*
X0033633Y0017990D02*
X0010373Y0017990D01*
X0010373Y0019588D02*
X0032854Y0019588D01*
X0032370Y0021187D02*
X0010373Y0021187D01*
X0010373Y0022785D02*
X0032119Y0022785D01*
X0032322Y0025982D02*
X0010373Y0025982D01*
X0010373Y0024384D02*
X0042537Y0024384D01*
X0042537Y0025982D02*
X0044137Y0025982D01*
X0044137Y0024384D02*
X0060717Y0024384D01*
X0058104Y0022785D02*
X0054555Y0022785D01*
X0054566Y0022890D02*
X0044137Y0022890D01*
X0044137Y0012460D01*
X0045224Y0012582D01*
X0046456Y0012864D01*
X0047648Y0013281D01*
X0048786Y0013829D01*
X0049856Y0014501D01*
X0050844Y0015289D01*
X0051737Y0016182D01*
X0052525Y0017170D01*
X0053197Y0018240D01*
X0053746Y0019378D01*
X0054163Y0020571D01*
X0054444Y0021803D01*
X0054566Y0022890D01*
X0054303Y0021187D02*
X0056623Y0021187D01*
X0055961Y0019588D02*
X0053819Y0019588D01*
X0053040Y0017990D02*
X0055474Y0017990D01*
X0055474Y0016391D02*
X0051904Y0016391D01*
X0050222Y0014793D02*
X0055638Y0014793D01*
X0056300Y0013194D02*
X0047400Y0013194D01*
X0044137Y0013194D02*
X0042537Y0013194D01*
X0042537Y0014793D02*
X0044137Y0014793D01*
X0044137Y0016391D02*
X0042537Y0016391D01*
X0042537Y0017990D02*
X0044137Y0017990D01*
X0044137Y0019588D02*
X0042537Y0019588D01*
X0042537Y0021187D02*
X0044137Y0021187D01*
X0044137Y0022785D02*
X0042537Y0022785D01*
X0042537Y0027581D02*
X0044137Y0027581D01*
X0044137Y0029179D02*
X0042537Y0029179D01*
X0042537Y0030778D02*
X0044137Y0030778D01*
X0044137Y0032376D02*
X0042537Y0032376D01*
X0042537Y0033975D02*
X0044137Y0033975D01*
X0046443Y0035573D02*
X0041027Y0035573D01*
X0041986Y0037172D02*
X0045520Y0037172D01*
X0044833Y0038770D02*
X0042639Y0038770D01*
X0043034Y0040369D02*
X0044405Y0040369D01*
X0044299Y0041967D02*
X0032719Y0041967D01*
X0032719Y0042994D02*
X0043149Y0042994D01*
X0043027Y0044081D01*
X0042745Y0045313D01*
X0042328Y0046505D01*
X0041780Y0047644D01*
X0041108Y0048713D01*
X0040320Y0049701D01*
X0039427Y0050595D01*
X0038439Y0051382D01*
X0037369Y0052054D01*
X0036231Y0052603D01*
X0035038Y0053020D01*
X0033807Y0053301D01*
X0032719Y0053424D01*
X0032719Y0042994D01*
X0032719Y0043566D02*
X0031119Y0043566D01*
X0031119Y0045164D02*
X0032719Y0045164D01*
X0032719Y0046763D02*
X0031119Y0046763D01*
X0031119Y0048361D02*
X0032719Y0048361D01*
X0032719Y0049960D02*
X0031119Y0049960D01*
X0031119Y0051558D02*
X0032719Y0051558D01*
X0032719Y0053157D02*
X0031119Y0053157D01*
X0029400Y0053157D02*
X0010373Y0053157D01*
X0010373Y0054755D02*
X0109530Y0054755D01*
X0107932Y0056354D02*
X0010373Y0056354D01*
X0010373Y0057952D02*
X0106333Y0057952D01*
X0104735Y0059551D02*
X0010373Y0059551D01*
X0010373Y0061149D02*
X0103136Y0061149D01*
X0101538Y0062748D02*
X0010373Y0062748D01*
X0010373Y0064346D02*
X0099939Y0064346D01*
X0098341Y0065945D02*
X0010373Y0065945D01*
X0010373Y0067543D02*
X0092509Y0067543D01*
X0094236Y0067543D02*
X0096742Y0067543D01*
X0098919Y0070740D02*
X0103545Y0070740D01*
X0105144Y0069142D02*
X0100518Y0069142D01*
X0102116Y0067543D02*
X0106742Y0067543D01*
X0108341Y0065945D02*
X0103715Y0065945D01*
X0105313Y0064346D02*
X0109939Y0064346D01*
X0111538Y0062748D02*
X0106912Y0062748D01*
X0108510Y0061149D02*
X0113136Y0061149D01*
X0114735Y0059551D02*
X0110109Y0059551D01*
X0111707Y0057952D02*
X0116333Y0057952D01*
X0117932Y0056354D02*
X0113306Y0056354D01*
X0114904Y0054755D02*
X0119530Y0054755D01*
X0121129Y0053157D02*
X0116503Y0053157D01*
X0118101Y0051558D02*
X0122728Y0051558D01*
X0124326Y0049960D02*
X0119700Y0049960D01*
X0121299Y0048361D02*
X0125925Y0048361D01*
X0126905Y0046763D02*
X0122897Y0046763D01*
X0124496Y0045164D02*
X0128459Y0045164D01*
X0130287Y0045164D02*
X0253450Y0045164D01*
X0252423Y0046763D02*
X0255049Y0046763D01*
X0254021Y0048361D02*
X0256647Y0048361D01*
X0255620Y0049960D02*
X0258246Y0049960D01*
X0257218Y0051558D02*
X0259844Y0051558D01*
X0258817Y0053157D02*
X0261443Y0053157D01*
X0263620Y0049960D02*
X0276773Y0049960D01*
X0276773Y0051558D02*
X0265218Y0051558D01*
X0266817Y0053157D02*
X0276773Y0053157D01*
X0276773Y0054755D02*
X0268415Y0054755D01*
X0268473Y0054813D02*
X0268473Y0064787D01*
X0267360Y0065900D01*
X0264473Y0068787D01*
X0264473Y0083657D01*
X0264839Y0083809D01*
X0265964Y0084934D01*
X0266573Y0086404D01*
X0266573Y0093196D01*
X0265964Y0094666D01*
X0264839Y0095791D01*
X0263368Y0096400D01*
X0261777Y0096400D01*
X0260307Y0095791D01*
X0259182Y0094666D01*
X0258573Y0093196D01*
X0258573Y0086404D01*
X0259182Y0084934D01*
X0260307Y0083809D01*
X0260673Y0083657D01*
X0260673Y0067213D01*
X0261571Y0066315D01*
X0260307Y0065791D01*
X0259182Y0064666D01*
X0258573Y0063196D01*
X0258573Y0058287D01*
X0256490Y0056204D01*
X0256573Y0056404D01*
X0256573Y0063196D01*
X0255964Y0064666D01*
X0254839Y0065791D01*
X0253368Y0066400D01*
X0251777Y0066400D01*
X0250307Y0065791D01*
X0249182Y0064666D01*
X0248573Y0063196D01*
X0248573Y0058287D01*
X0246490Y0056204D01*
X0246573Y0056404D01*
X0246573Y0063196D01*
X0245964Y0064666D01*
X0244839Y0065791D01*
X0243368Y0066400D01*
X0241777Y0066400D01*
X0240307Y0065791D01*
X0239182Y0064666D01*
X0238573Y0063196D01*
X0238573Y0056404D01*
X0239182Y0054934D01*
X0240307Y0053809D01*
X0241777Y0053200D01*
X0243368Y0053200D01*
X0243569Y0053283D01*
X0242186Y0051900D01*
X0225560Y0051900D01*
X0228110Y0054450D01*
X0229010Y0055350D01*
X0229182Y0054934D01*
X0230307Y0053809D01*
X0231777Y0053200D01*
X0233368Y0053200D01*
X0234839Y0053809D01*
X0235964Y0054934D01*
X0236573Y0056404D01*
X0236573Y0063196D01*
X0235964Y0064666D01*
X0234839Y0065791D01*
X0233368Y0066400D01*
X0231777Y0066400D01*
X0230307Y0065791D01*
X0229223Y0064707D01*
X0229223Y0069463D01*
X0239460Y0079700D01*
X0253360Y0079700D01*
X0257360Y0083700D01*
X0258473Y0084813D01*
X0258473Y0093828D01*
X0258545Y0093917D01*
X0258473Y0094600D01*
X0258473Y0095287D01*
X0258392Y0095368D01*
X0258380Y0095482D01*
X0257846Y0095914D01*
X0257360Y0096400D01*
X0257245Y0096400D01*
X0251923Y0100707D01*
X0251923Y0120960D01*
X0254173Y0123922D01*
X0254173Y0122720D01*
X0254993Y0121900D01*
X0263153Y0121900D01*
X0263973Y0122720D01*
X0263973Y0124188D01*
X0266460Y0121700D01*
X0267260Y0121700D01*
X0264573Y0119012D01*
X0261685Y0121900D01*
X0257460Y0121900D01*
X0254473Y0118912D01*
X0254473Y0114688D01*
X0257260Y0111900D01*
X0256460Y0111900D01*
X0253473Y0108912D01*
X0253473Y0104688D01*
X0256460Y0101700D01*
X0260685Y0101700D01*
X0263290Y0104305D01*
X0266295Y0101300D01*
X0268373Y0101300D01*
X0268373Y0106600D01*
X0268773Y0106600D01*
X0268773Y0107000D01*
X0274073Y0107000D01*
X0274073Y0109078D01*
X0271451Y0111700D01*
X0271685Y0111700D01*
X0274673Y0114688D01*
X0274673Y0118912D01*
X0271685Y0121900D01*
X0270885Y0121900D01*
X0273673Y0124688D01*
X0273673Y0128912D01*
X0270685Y0131900D01*
X0267237Y0131900D01*
X0265434Y0133920D01*
X0265407Y0133984D01*
X0265118Y0134274D01*
X0264845Y0134579D01*
X0264782Y0134610D01*
X0264732Y0134660D01*
X0264354Y0134816D01*
X0263985Y0134994D01*
X0263915Y0134998D01*
X0263850Y0135025D01*
X0263441Y0135025D01*
X0263032Y0135048D01*
X0262966Y0135025D01*
X0255390Y0135025D01*
X0255333Y0135045D01*
X0254914Y0135025D01*
X0254495Y0135025D01*
X0254439Y0135002D01*
X0254379Y0134999D01*
X0254000Y0134820D01*
X0253613Y0134660D01*
X0253570Y0134617D01*
X0253516Y0134591D01*
X0253234Y0134281D01*
X0252938Y0133984D01*
X0252915Y0133928D01*
X0240584Y0120331D01*
X0240288Y0120034D01*
X0240265Y0119978D01*
X0240224Y0119934D01*
X0240083Y0119539D01*
X0239923Y0119152D01*
X0239923Y0119092D01*
X0239902Y0119035D01*
X0239923Y0118616D01*
X0239923Y0118127D01*
X0239569Y0117773D01*
X0239173Y0116817D01*
X0239173Y0115783D01*
X0239569Y0114827D01*
X0240300Y0114096D01*
X0241256Y0113700D01*
X0242290Y0113700D01*
X0242773Y0113900D01*
X0242800Y0113900D01*
X0243682Y0114265D01*
X0244357Y0114941D01*
X0244723Y0115823D01*
X0244723Y0117749D01*
X0248120Y0121495D01*
X0248123Y0121471D01*
X0248123Y0100472D01*
X0248051Y0100383D01*
X0248123Y0099700D01*
X0248123Y0099013D01*
X0248204Y0098932D01*
X0248216Y0098818D01*
X0248750Y0098386D01*
X0249236Y0097900D01*
X0249350Y0097900D01*
X0251398Y0096243D01*
X0250307Y0095791D01*
X0249182Y0094666D01*
X0248573Y0093196D01*
X0248573Y0088287D01*
X0246490Y0086204D01*
X0246573Y0086404D01*
X0246573Y0093196D01*
X0245964Y0094666D01*
X0244839Y0095791D01*
X0243368Y0096400D01*
X0241777Y0096400D01*
X0240377Y0095820D01*
X0237835Y0098362D01*
X0237835Y0118900D01*
X0250473Y0131538D01*
X0250473Y0202567D01*
X0251462Y0202976D01*
X0252896Y0204411D01*
X0253473Y0205803D01*
X0253473Y0205286D01*
X0254249Y0203411D01*
X0255684Y0201976D01*
X0257558Y0201200D01*
X0259587Y0201200D01*
X0261462Y0201976D01*
X0262896Y0203411D01*
X0263673Y0205286D01*
X0263673Y0207314D01*
X0262896Y0209189D01*
X0261462Y0210624D01*
X0259587Y0211400D01*
X0257558Y0211400D01*
X0255684Y0210624D01*
X0255360Y0210300D01*
X0252473Y0213187D01*
X0251360Y0214300D01*
X0245786Y0214300D01*
X0242354Y0210868D01*
X0241800Y0210334D01*
X0241799Y0210314D01*
X0241786Y0210300D01*
X0241462Y0210624D01*
X0239587Y0211400D01*
X0237558Y0211400D01*
X0235684Y0210624D01*
X0234249Y0209189D01*
X0233673Y0207797D01*
X0233673Y0208314D01*
X0232896Y0210189D01*
X0231462Y0211624D01*
X0229587Y0212400D01*
X0227558Y0212400D01*
X0225684Y0211624D01*
X0224249Y0210189D01*
X0223473Y0208314D01*
X0223473Y0207797D01*
X0222896Y0209189D01*
X0221462Y0210624D01*
X0219587Y0211400D01*
X0217558Y0211400D01*
X0215684Y0210624D01*
X0214249Y0209189D01*
X0213673Y0207797D01*
X0213673Y0208314D01*
X0212896Y0210189D01*
X0211462Y0211624D01*
X0209587Y0212400D01*
X0207558Y0212400D01*
X0205684Y0211624D01*
X0204249Y0210189D01*
X0203473Y0208314D01*
X0203473Y0207797D01*
X0202896Y0209189D01*
X0201462Y0210624D01*
X0199587Y0211400D01*
X0197558Y0211400D01*
X0195684Y0210624D01*
X0194249Y0209189D01*
X0193673Y0207797D01*
X0193673Y0211580D01*
X0192853Y0212400D01*
X0184293Y0212400D01*
X0183473Y0211580D01*
X0183473Y0203020D01*
X0184293Y0202200D01*
X0192853Y0202200D01*
X0193673Y0203020D01*
X0193673Y0204803D01*
X0194249Y0203411D01*
X0195684Y0201976D01*
X0197558Y0201200D01*
X0199587Y0201200D01*
X0201462Y0201976D01*
X0202896Y0203411D01*
X0203673Y0205286D01*
X0203673Y0205803D01*
X0204249Y0204411D01*
X0205684Y0202976D01*
X0207558Y0202200D01*
X0209587Y0202200D01*
X0211462Y0202976D01*
X0212896Y0204411D01*
X0213473Y0205803D01*
X0213473Y0205286D01*
X0213970Y0204084D01*
X0210673Y0200787D01*
X0210673Y0095943D01*
X0210307Y0095791D01*
X0209182Y0094666D01*
X0208573Y0093196D01*
X0208573Y0086404D01*
X0209182Y0084934D01*
X0210307Y0083809D01*
X0211777Y0083200D01*
X0213368Y0083200D01*
X0214839Y0083809D01*
X0215964Y0084934D01*
X0216573Y0086404D01*
X0216573Y0093196D01*
X0215964Y0094666D01*
X0214839Y0095791D01*
X0214473Y0095943D01*
X0214473Y0199213D01*
X0216782Y0201522D01*
X0217558Y0201200D01*
X0219587Y0201200D01*
X0220673Y0201650D01*
X0220673Y0095943D01*
X0220307Y0095791D01*
X0219182Y0094666D01*
X0218573Y0093196D01*
X0218573Y0086404D01*
X0219182Y0084934D01*
X0220307Y0083809D01*
X0221777Y0083200D01*
X0223368Y0083200D01*
X0224839Y0083809D01*
X0225964Y0084934D01*
X0226573Y0086404D01*
X0226573Y0093196D01*
X0225964Y0094666D01*
X0224839Y0095791D01*
X0224473Y0095943D01*
X0224473Y0200413D01*
X0226640Y0202580D01*
X0227558Y0202200D01*
X0229587Y0202200D01*
X0231462Y0202976D01*
X0232896Y0204411D01*
X0233473Y0205803D01*
X0233473Y0205286D01*
X0234249Y0203411D01*
X0235684Y0201976D01*
X0237558Y0201200D01*
X0239512Y0201200D01*
X0242232Y0198572D01*
X0241988Y0133926D01*
X0230609Y0122762D01*
X0230598Y0122762D01*
X0230049Y0122213D01*
X0229493Y0121668D01*
X0229493Y0121657D01*
X0229485Y0121649D01*
X0229485Y0120871D01*
X0229478Y0120094D01*
X0229485Y0120086D01*
X0229485Y0095338D01*
X0229355Y0095127D01*
X0229410Y0094894D01*
X0229182Y0094666D01*
X0228573Y0093196D01*
X0228573Y0086404D01*
X0229182Y0084934D01*
X0230307Y0083809D01*
X0231777Y0083200D01*
X0233368Y0083200D01*
X0234839Y0083809D01*
X0235873Y0084843D01*
X0235873Y0083987D01*
X0216673Y0064787D01*
X0216673Y0058387D01*
X0216573Y0058287D01*
X0216573Y0063196D01*
X0215964Y0064666D01*
X0214839Y0065791D01*
X0213368Y0066400D01*
X0211777Y0066400D01*
X0210307Y0065791D01*
X0209182Y0064666D01*
X0208573Y0063196D01*
X0208573Y0056404D01*
X0209113Y0055100D01*
X0206441Y0055100D01*
X0206650Y0055511D01*
X0206864Y0056170D01*
X0206973Y0056854D01*
X0206973Y0059800D01*
X0206973Y0062746D01*
X0206864Y0063430D01*
X0206650Y0064089D01*
X0206336Y0064706D01*
X0205929Y0065266D01*
X0205439Y0065756D01*
X0204879Y0066163D01*
X0204262Y0066478D01*
X0203603Y0066692D01*
X0202919Y0066800D01*
X0202573Y0066800D01*
X0202573Y0059800D01*
X0206973Y0059800D01*
X0202573Y0059800D01*
X0202573Y0059800D01*
X0202573Y0059800D01*
X0202573Y0066800D01*
X0202227Y0066800D01*
X0201542Y0066692D01*
X0200884Y0066478D01*
X0200267Y0066163D01*
X0199706Y0065756D01*
X0199217Y0065266D01*
X0198810Y0064706D01*
X0198495Y0064089D01*
X0198281Y0063430D01*
X0198173Y0062746D01*
X0198173Y0059800D01*
X0202573Y0059800D01*
X0198173Y0059800D01*
X0198173Y0056854D01*
X0198281Y0056170D01*
X0198495Y0055511D01*
X0198705Y0055100D01*
X0196033Y0055100D01*
X0196573Y0056404D01*
X0196573Y0063196D01*
X0195964Y0064666D01*
X0194839Y0065791D01*
X0194773Y0065818D01*
X0194773Y0075723D01*
X0194777Y0075727D01*
X0195173Y0076683D01*
X0195173Y0077717D01*
X0194777Y0078673D01*
X0194108Y0079341D01*
X0199441Y0084675D01*
X0200307Y0083809D01*
X0201777Y0083200D01*
X0203368Y0083200D01*
X0204839Y0083809D01*
X0205964Y0084934D01*
X0206573Y0086404D01*
X0206573Y0093196D01*
X0205964Y0094666D01*
X0204839Y0095791D01*
X0203368Y0096400D01*
X0201777Y0096400D01*
X0200307Y0095791D01*
X0199182Y0094666D01*
X0198573Y0093196D01*
X0198573Y0090594D01*
X0196973Y0088994D01*
X0196973Y0089800D01*
X0196973Y0092746D01*
X0196864Y0093430D01*
X0196650Y0094089D01*
X0196336Y0094706D01*
X0195929Y0095266D01*
X0195439Y0095756D01*
X0194879Y0096163D01*
X0194262Y0096478D01*
X0193603Y0096692D01*
X0192919Y0096800D01*
X0192573Y0096800D01*
X0192573Y0089800D01*
X0196973Y0089800D01*
X0192573Y0089800D01*
X0192573Y0089800D01*
X0192573Y0089800D01*
X0192573Y0096800D01*
X0192227Y0096800D01*
X0191542Y0096692D01*
X0190884Y0096478D01*
X0190267Y0096163D01*
X0189706Y0095756D01*
X0189217Y0095266D01*
X0188810Y0094706D01*
X0188495Y0094089D01*
X0188281Y0093430D01*
X0188173Y0092746D01*
X0188173Y0089800D01*
X0192573Y0089800D01*
X0188173Y0089800D01*
X0188173Y0086854D01*
X0188281Y0086170D01*
X0188495Y0085511D01*
X0188810Y0084894D01*
X0189217Y0084334D01*
X0189706Y0083844D01*
X0190267Y0083437D01*
X0190884Y0083122D01*
X0191048Y0083069D01*
X0186208Y0078229D01*
X0186201Y0078227D01*
X0185871Y0077892D01*
X0185538Y0077559D01*
X0185535Y0077553D01*
X0185530Y0077548D01*
X0185353Y0077112D01*
X0185173Y0076677D01*
X0185173Y0076670D01*
X0185170Y0076663D01*
X0185173Y0076194D01*
X0185173Y0075723D01*
X0185176Y0075716D01*
X0185234Y0065801D01*
X0185030Y0065600D01*
X0184839Y0065791D01*
X0183368Y0066400D01*
X0181777Y0066400D01*
X0180307Y0065791D01*
X0179182Y0064666D01*
X0179010Y0064250D01*
X0174560Y0068700D01*
X0162750Y0068700D01*
X0162446Y0069004D01*
X0161490Y0069400D01*
X0160473Y0069400D01*
X0160473Y0083740D01*
X0161777Y0083200D01*
X0163368Y0083200D01*
X0164839Y0083809D01*
X0165964Y0084934D01*
X0166573Y0086404D01*
X0166573Y0093196D01*
X0165964Y0094666D01*
X0164839Y0095791D01*
X0163368Y0096400D01*
X0161777Y0096400D01*
X0160473Y0095860D01*
X0160473Y0096024D01*
X0154845Y0101653D01*
X0154538Y0177704D01*
X0178160Y0201325D01*
X0179273Y0202438D01*
X0179273Y0209187D01*
X0178160Y0210300D01*
X0173460Y0215000D01*
X0261827Y0215000D01*
X0266773Y0210054D01*
X0266773Y0165054D01*
X0267827Y0164000D01*
X0276773Y0155054D01*
X0276773Y0027546D01*
X0266773Y0017546D01*
X0266773Y0008600D01*
X0153767Y0008600D01*
X0157069Y0011903D01*
X0157558Y0011700D01*
X0159587Y0011700D01*
X0161462Y0012476D01*
X0162896Y0013911D01*
X0163191Y0014622D01*
X0163208Y0014512D01*
X0163476Y0013689D01*
X0163869Y0012917D01*
X0164378Y0012217D01*
X0164990Y0011605D01*
X0165690Y0011096D01*
X0166462Y0010703D01*
X0167285Y0010435D01*
X0168140Y0010300D01*
X0168373Y0010300D01*
X0168373Y0015600D01*
X0168773Y0015600D01*
X0168773Y0010300D01*
X0169006Y0010300D01*
X0169861Y0010435D01*
X0170684Y0010703D01*
X0171455Y0011096D01*
X0172156Y0011605D01*
X0172768Y0012217D01*
X0173277Y0012917D01*
X0173670Y0013689D01*
X0173793Y0014067D01*
X0173869Y0013917D01*
X0174378Y0013217D01*
X0174990Y0012605D01*
X0175690Y0012096D01*
X0176462Y0011703D01*
X0177285Y0011435D01*
X0178140Y0011300D01*
X0178373Y0011300D01*
X0178373Y0016600D01*
X0178773Y0016600D01*
X0178773Y0011300D01*
X0179006Y0011300D01*
X0179861Y0011435D01*
X0180684Y0011703D01*
X0181455Y0012096D01*
X0182156Y0012605D01*
X0182768Y0013217D01*
X0183277Y0013917D01*
X0183583Y0014519D01*
X0184249Y0012911D01*
X0185684Y0011476D01*
X0187558Y0010700D01*
X0189587Y0010700D01*
X0191462Y0011476D01*
X0192896Y0012911D01*
X0193673Y0014786D01*
X0193673Y0016814D01*
X0192896Y0018689D01*
X0191462Y0020124D01*
X0189587Y0020900D01*
X0187558Y0020900D01*
X0185684Y0020124D01*
X0184249Y0018689D01*
X0183955Y0017978D01*
X0183937Y0018088D01*
X0183670Y0018911D01*
X0183277Y0019683D01*
X0182768Y0020383D01*
X0182156Y0020995D01*
X0181455Y0021504D01*
X0180684Y0021897D01*
X0179861Y0022165D01*
X0179006Y0022300D01*
X0178773Y0022300D01*
X0178773Y0017000D01*
X0178373Y0017000D01*
X0178373Y0022300D01*
X0178140Y0022300D01*
X0177285Y0022165D01*
X0176462Y0021897D01*
X0175690Y0021504D01*
X0174990Y0020995D01*
X0174378Y0020383D01*
X0173869Y0019683D01*
X0173476Y0018911D01*
X0173353Y0018533D01*
X0173277Y0018683D01*
X0172768Y0019383D01*
X0172156Y0019995D01*
X0171455Y0020504D01*
X0170684Y0020897D01*
X0169861Y0021165D01*
X0169006Y0021300D01*
X0168773Y0021300D01*
X0168773Y0016000D01*
X0168373Y0016000D01*
X0168373Y0021300D01*
X0168140Y0021300D01*
X0167285Y0021165D01*
X0166462Y0020897D01*
X0165690Y0020504D01*
X0164990Y0019995D01*
X0164378Y0019383D01*
X0163869Y0018683D01*
X0163562Y0018081D01*
X0162896Y0019689D01*
X0161462Y0021124D01*
X0159587Y0021900D01*
X0157558Y0021900D01*
X0155684Y0021124D01*
X0154249Y0019689D01*
X0153473Y0017814D01*
X0153473Y0017297D01*
X0152896Y0018689D01*
X0151462Y0020124D01*
X0149587Y0020900D01*
X0147558Y0020900D01*
X0145684Y0020124D01*
X0144249Y0018689D01*
X0143673Y0017297D01*
X0143673Y0017814D01*
X0142896Y0019689D01*
X0141462Y0021124D01*
X0140473Y0021533D01*
X0140473Y0027213D01*
X0140873Y0027613D01*
X0142160Y0028900D01*
X0242560Y0028900D01*
X0243673Y0030013D01*
X0268473Y0054813D01*
X0268473Y0056354D02*
X0276773Y0056354D01*
X0276773Y0057952D02*
X0268473Y0057952D01*
X0268473Y0059551D02*
X0276773Y0059551D01*
X0276773Y0061149D02*
X0268473Y0061149D01*
X0268473Y0062748D02*
X0276773Y0062748D01*
X0276773Y0064346D02*
X0268473Y0064346D01*
X0267315Y0065945D02*
X0276773Y0065945D01*
X0276773Y0067543D02*
X0265716Y0067543D01*
X0264473Y0069142D02*
X0276773Y0069142D01*
X0276773Y0070740D02*
X0264473Y0070740D01*
X0264473Y0072339D02*
X0276773Y0072339D01*
X0276773Y0073937D02*
X0264473Y0073937D01*
X0264473Y0075536D02*
X0276773Y0075536D01*
X0276773Y0077134D02*
X0264473Y0077134D01*
X0264473Y0078733D02*
X0276773Y0078733D01*
X0276773Y0080332D02*
X0264473Y0080332D01*
X0264473Y0081930D02*
X0276773Y0081930D01*
X0276773Y0083529D02*
X0264473Y0083529D01*
X0266044Y0085127D02*
X0276773Y0085127D01*
X0276773Y0086726D02*
X0266573Y0086726D01*
X0266573Y0088324D02*
X0276773Y0088324D01*
X0276773Y0089923D02*
X0266573Y0089923D01*
X0266573Y0091521D02*
X0276773Y0091521D01*
X0276773Y0093120D02*
X0266573Y0093120D01*
X0265912Y0094718D02*
X0276773Y0094718D01*
X0276773Y0096317D02*
X0263570Y0096317D01*
X0261576Y0096317D02*
X0257443Y0096317D01*
X0258473Y0094718D02*
X0259234Y0094718D01*
X0258573Y0093120D02*
X0258473Y0093120D01*
X0258473Y0091521D02*
X0258573Y0091521D01*
X0258573Y0089923D02*
X0258473Y0089923D01*
X0258473Y0088324D02*
X0258573Y0088324D01*
X0258573Y0086726D02*
X0258473Y0086726D01*
X0258473Y0085127D02*
X0259102Y0085127D01*
X0260673Y0083529D02*
X0257188Y0083529D01*
X0255590Y0081930D02*
X0260673Y0081930D01*
X0260673Y0080332D02*
X0253991Y0080332D01*
X0260673Y0078733D02*
X0238493Y0078733D01*
X0236894Y0077134D02*
X0260673Y0077134D01*
X0260673Y0075536D02*
X0235296Y0075536D01*
X0233697Y0073937D02*
X0260673Y0073937D01*
X0260673Y0072339D02*
X0232099Y0072339D01*
X0230500Y0070740D02*
X0260673Y0070740D01*
X0260673Y0069142D02*
X0229223Y0069142D01*
X0229223Y0067543D02*
X0260673Y0067543D01*
X0260679Y0065945D02*
X0254467Y0065945D01*
X0256096Y0064346D02*
X0259049Y0064346D01*
X0258573Y0062748D02*
X0256573Y0062748D01*
X0256573Y0061149D02*
X0258573Y0061149D01*
X0258573Y0059551D02*
X0256573Y0059551D01*
X0256573Y0057952D02*
X0258238Y0057952D01*
X0256640Y0056354D02*
X0256552Y0056354D01*
X0248573Y0059551D02*
X0246573Y0059551D01*
X0246573Y0061149D02*
X0248573Y0061149D01*
X0248573Y0062748D02*
X0246573Y0062748D01*
X0246096Y0064346D02*
X0249049Y0064346D01*
X0250679Y0065945D02*
X0244467Y0065945D01*
X0240679Y0065945D02*
X0234467Y0065945D01*
X0236096Y0064346D02*
X0239049Y0064346D01*
X0238573Y0062748D02*
X0236573Y0062748D01*
X0236573Y0061149D02*
X0238573Y0061149D01*
X0238573Y0059551D02*
X0236573Y0059551D01*
X0236573Y0057952D02*
X0238573Y0057952D01*
X0238594Y0056354D02*
X0236552Y0056354D01*
X0235785Y0054755D02*
X0239361Y0054755D01*
X0243443Y0053157D02*
X0226817Y0053157D01*
X0228415Y0054755D02*
X0229361Y0054755D01*
X0229223Y0065945D02*
X0230679Y0065945D01*
X0222626Y0070740D02*
X0194773Y0070740D01*
X0194773Y0069142D02*
X0221028Y0069142D01*
X0219429Y0067543D02*
X0194773Y0067543D01*
X0194773Y0065945D02*
X0199966Y0065945D01*
X0198626Y0064346D02*
X0196096Y0064346D01*
X0196573Y0062748D02*
X0198173Y0062748D01*
X0198173Y0061149D02*
X0196573Y0061149D01*
X0196573Y0059551D02*
X0198173Y0059551D01*
X0198173Y0057952D02*
X0196573Y0057952D01*
X0196552Y0056354D02*
X0198252Y0056354D01*
X0202573Y0059800D02*
X0202573Y0059800D01*
X0202573Y0061149D02*
X0202573Y0061149D01*
X0202573Y0062748D02*
X0202573Y0062748D01*
X0202573Y0064346D02*
X0202573Y0064346D01*
X0202573Y0065945D02*
X0202573Y0065945D01*
X0205179Y0065945D02*
X0210679Y0065945D01*
X0209049Y0064346D02*
X0206519Y0064346D01*
X0206973Y0062748D02*
X0208573Y0062748D01*
X0208573Y0061149D02*
X0206973Y0061149D01*
X0206973Y0059551D02*
X0208573Y0059551D01*
X0208573Y0057952D02*
X0206973Y0057952D01*
X0206894Y0056354D02*
X0208594Y0056354D01*
X0216573Y0059551D02*
X0216673Y0059551D01*
X0216673Y0061149D02*
X0216573Y0061149D01*
X0216573Y0062748D02*
X0216673Y0062748D01*
X0216673Y0064346D02*
X0216096Y0064346D01*
X0214467Y0065945D02*
X0217831Y0065945D01*
X0224225Y0072339D02*
X0194773Y0072339D01*
X0194773Y0073937D02*
X0225823Y0073937D01*
X0227422Y0075536D02*
X0194773Y0075536D01*
X0195173Y0077134D02*
X0229020Y0077134D01*
X0230619Y0078733D02*
X0194717Y0078733D01*
X0195098Y0080332D02*
X0232217Y0080332D01*
X0233816Y0081930D02*
X0196697Y0081930D01*
X0198295Y0083529D02*
X0200984Y0083529D01*
X0204162Y0083529D02*
X0210984Y0083529D01*
X0209102Y0085127D02*
X0206044Y0085127D01*
X0206573Y0086726D02*
X0208573Y0086726D01*
X0208573Y0088324D02*
X0206573Y0088324D01*
X0206573Y0089923D02*
X0208573Y0089923D01*
X0208573Y0091521D02*
X0206573Y0091521D01*
X0206573Y0093120D02*
X0208573Y0093120D01*
X0209234Y0094718D02*
X0205912Y0094718D01*
X0203570Y0096317D02*
X0210673Y0096317D01*
X0210673Y0097915D02*
X0184473Y0097915D01*
X0184473Y0096317D02*
X0190568Y0096317D01*
X0192573Y0096317D02*
X0192573Y0096317D01*
X0192573Y0094718D02*
X0192573Y0094718D01*
X0192573Y0093120D02*
X0192573Y0093120D01*
X0192573Y0091521D02*
X0192573Y0091521D01*
X0192573Y0089923D02*
X0192573Y0089923D01*
X0192573Y0089800D02*
X0192573Y0089800D01*
X0196973Y0089923D02*
X0197901Y0089923D01*
X0198573Y0091521D02*
X0196973Y0091521D01*
X0196914Y0093120D02*
X0198573Y0093120D01*
X0199234Y0094718D02*
X0196327Y0094718D01*
X0194578Y0096317D02*
X0201576Y0096317D01*
X0210673Y0099514D02*
X0184473Y0099514D01*
X0184473Y0101112D02*
X0210673Y0101112D01*
X0210673Y0102711D02*
X0184473Y0102711D01*
X0184473Y0104309D02*
X0210673Y0104309D01*
X0210673Y0105908D02*
X0183752Y0105908D01*
X0184473Y0105187D02*
X0169951Y0119709D01*
X0170073Y0120004D01*
X0170073Y0121596D01*
X0169464Y0123066D01*
X0168339Y0124191D01*
X0166868Y0124800D01*
X0165277Y0124800D01*
X0163807Y0124191D01*
X0162682Y0123066D01*
X0162073Y0121596D01*
X0162073Y0120004D01*
X0162682Y0118534D01*
X0163807Y0117409D01*
X0165277Y0116800D01*
X0166868Y0116800D01*
X0167305Y0116981D01*
X0180673Y0103613D01*
X0180673Y0095943D01*
X0180307Y0095791D01*
X0179182Y0094666D01*
X0178573Y0093196D01*
X0178573Y0086404D01*
X0179182Y0084934D01*
X0180307Y0083809D01*
X0181777Y0083200D01*
X0183368Y0083200D01*
X0184839Y0083809D01*
X0185964Y0084934D01*
X0186573Y0086404D01*
X0186573Y0093196D01*
X0185964Y0094666D01*
X0184839Y0095791D01*
X0184473Y0095943D01*
X0184473Y0105187D01*
X0182154Y0107506D02*
X0210673Y0107506D01*
X0210673Y0109105D02*
X0180555Y0109105D01*
X0178957Y0110703D02*
X0210673Y0110703D01*
X0210673Y0112302D02*
X0177358Y0112302D01*
X0175760Y0113900D02*
X0210673Y0113900D01*
X0210673Y0115499D02*
X0174161Y0115499D01*
X0172563Y0117097D02*
X0183559Y0117097D01*
X0184277Y0116800D02*
X0185868Y0116800D01*
X0187339Y0117409D01*
X0188464Y0118534D01*
X0189073Y0120004D01*
X0189073Y0121596D01*
X0188464Y0123066D01*
X0187339Y0124191D01*
X0185868Y0124800D01*
X0184277Y0124800D01*
X0182807Y0124191D01*
X0181682Y0123066D01*
X0181073Y0121596D01*
X0181073Y0120004D01*
X0181682Y0118534D01*
X0182807Y0117409D01*
X0184277Y0116800D01*
X0186586Y0117097D02*
X0210673Y0117097D01*
X0210673Y0118696D02*
X0188531Y0118696D01*
X0189073Y0120294D02*
X0210673Y0120294D01*
X0210673Y0121893D02*
X0188950Y0121893D01*
X0188038Y0123491D02*
X0210673Y0123491D01*
X0210673Y0125090D02*
X0154750Y0125090D01*
X0154744Y0126688D02*
X0210673Y0126688D01*
X0210673Y0128287D02*
X0154737Y0128287D01*
X0154731Y0129885D02*
X0210673Y0129885D01*
X0210673Y0131484D02*
X0154725Y0131484D01*
X0154718Y0133082D02*
X0210673Y0133082D01*
X0210673Y0134681D02*
X0154712Y0134681D01*
X0154705Y0136279D02*
X0210673Y0136279D01*
X0210673Y0137878D02*
X0154699Y0137878D01*
X0154692Y0139476D02*
X0210673Y0139476D01*
X0210673Y0141075D02*
X0154686Y0141075D01*
X0154680Y0142673D02*
X0210673Y0142673D01*
X0210673Y0144272D02*
X0154673Y0144272D01*
X0154667Y0145870D02*
X0210673Y0145870D01*
X0210673Y0147469D02*
X0154660Y0147469D01*
X0154654Y0149068D02*
X0210673Y0149068D01*
X0210673Y0150666D02*
X0154647Y0150666D01*
X0154641Y0152265D02*
X0210673Y0152265D01*
X0210673Y0153863D02*
X0154634Y0153863D01*
X0154628Y0155462D02*
X0210673Y0155462D01*
X0210673Y0157060D02*
X0154622Y0157060D01*
X0154615Y0158659D02*
X0210673Y0158659D01*
X0210673Y0160257D02*
X0154609Y0160257D01*
X0154602Y0161856D02*
X0210673Y0161856D01*
X0210673Y0163454D02*
X0154596Y0163454D01*
X0154589Y0165053D02*
X0210673Y0165053D01*
X0210673Y0166651D02*
X0154583Y0166651D01*
X0154577Y0168250D02*
X0210673Y0168250D01*
X0210673Y0169848D02*
X0154570Y0169848D01*
X0154564Y0171447D02*
X0210673Y0171447D01*
X0210673Y0173045D02*
X0154557Y0173045D01*
X0154551Y0174644D02*
X0210673Y0174644D01*
X0210673Y0176242D02*
X0154544Y0176242D01*
X0154676Y0177841D02*
X0210673Y0177841D01*
X0210673Y0179439D02*
X0156274Y0179439D01*
X0157873Y0181038D02*
X0210673Y0181038D01*
X0210673Y0182636D02*
X0159471Y0182636D01*
X0161070Y0184235D02*
X0210673Y0184235D01*
X0210673Y0185833D02*
X0162668Y0185833D01*
X0164267Y0187432D02*
X0210673Y0187432D01*
X0210673Y0189030D02*
X0165865Y0189030D01*
X0167464Y0190629D02*
X0210673Y0190629D01*
X0210673Y0192227D02*
X0169062Y0192227D01*
X0170661Y0193826D02*
X0210673Y0193826D01*
X0210673Y0195424D02*
X0172259Y0195424D01*
X0173858Y0197023D02*
X0210673Y0197023D01*
X0210673Y0198621D02*
X0175456Y0198621D01*
X0177055Y0200220D02*
X0210673Y0200220D01*
X0211704Y0201818D02*
X0201080Y0201818D01*
X0202899Y0203417D02*
X0205243Y0203417D01*
X0203999Y0205015D02*
X0203561Y0205015D01*
X0203473Y0208212D02*
X0203301Y0208212D01*
X0204093Y0209811D02*
X0202274Y0209811D01*
X0205470Y0211409D02*
X0193673Y0211409D01*
X0193673Y0209811D02*
X0194871Y0209811D01*
X0193845Y0208212D02*
X0193673Y0208212D01*
X0193673Y0203417D02*
X0194247Y0203417D01*
X0196065Y0201818D02*
X0178653Y0201818D01*
X0178160Y0201325D02*
X0178160Y0201325D01*
X0179273Y0203417D02*
X0183473Y0203417D01*
X0183473Y0205015D02*
X0179273Y0205015D01*
X0179273Y0206614D02*
X0183473Y0206614D01*
X0183473Y0208212D02*
X0179273Y0208212D01*
X0178649Y0209811D02*
X0183473Y0209811D01*
X0183473Y0211409D02*
X0177050Y0211409D01*
X0175452Y0213008D02*
X0244494Y0213008D01*
X0242895Y0211409D02*
X0231676Y0211409D01*
X0233053Y0209811D02*
X0234871Y0209811D01*
X0233845Y0208212D02*
X0233673Y0208212D01*
X0233585Y0205015D02*
X0233147Y0205015D01*
X0234247Y0203417D02*
X0231902Y0203417D01*
X0236065Y0201818D02*
X0225878Y0201818D01*
X0224473Y0200220D02*
X0240527Y0200220D01*
X0242181Y0198621D02*
X0224473Y0198621D01*
X0224473Y0197023D02*
X0242226Y0197023D01*
X0242220Y0195424D02*
X0224473Y0195424D01*
X0224473Y0193826D02*
X0242214Y0193826D01*
X0242208Y0192227D02*
X0224473Y0192227D01*
X0224473Y0190629D02*
X0242202Y0190629D01*
X0242196Y0189030D02*
X0224473Y0189030D01*
X0224473Y0187432D02*
X0242190Y0187432D01*
X0242184Y0185833D02*
X0224473Y0185833D01*
X0224473Y0184235D02*
X0242178Y0184235D01*
X0242172Y0182636D02*
X0224473Y0182636D01*
X0224473Y0181038D02*
X0242166Y0181038D01*
X0242160Y0179439D02*
X0224473Y0179439D01*
X0224473Y0177841D02*
X0242154Y0177841D01*
X0242148Y0176242D02*
X0224473Y0176242D01*
X0224473Y0174644D02*
X0242142Y0174644D01*
X0242136Y0173045D02*
X0224473Y0173045D01*
X0224473Y0171447D02*
X0242130Y0171447D01*
X0242124Y0169848D02*
X0224473Y0169848D01*
X0224473Y0168250D02*
X0242118Y0168250D01*
X0242112Y0166651D02*
X0224473Y0166651D01*
X0224473Y0165053D02*
X0242106Y0165053D01*
X0242100Y0163454D02*
X0224473Y0163454D01*
X0224473Y0161856D02*
X0242094Y0161856D01*
X0242088Y0160257D02*
X0224473Y0160257D01*
X0224473Y0158659D02*
X0242082Y0158659D01*
X0242076Y0157060D02*
X0224473Y0157060D01*
X0224473Y0155462D02*
X0242070Y0155462D01*
X0242064Y0153863D02*
X0224473Y0153863D01*
X0224473Y0152265D02*
X0242058Y0152265D01*
X0242052Y0150666D02*
X0224473Y0150666D01*
X0224473Y0149068D02*
X0242045Y0149068D01*
X0242039Y0147469D02*
X0224473Y0147469D01*
X0224473Y0145870D02*
X0242033Y0145870D01*
X0242027Y0144272D02*
X0224473Y0144272D01*
X0224473Y0142673D02*
X0242021Y0142673D01*
X0242015Y0141075D02*
X0224473Y0141075D01*
X0224473Y0139476D02*
X0242009Y0139476D01*
X0242003Y0137878D02*
X0224473Y0137878D01*
X0224473Y0136279D02*
X0241997Y0136279D01*
X0241991Y0134681D02*
X0224473Y0134681D01*
X0224473Y0133082D02*
X0241129Y0133082D01*
X0239499Y0131484D02*
X0224473Y0131484D01*
X0224473Y0129885D02*
X0237870Y0129885D01*
X0236240Y0128287D02*
X0224473Y0128287D01*
X0224473Y0126688D02*
X0234611Y0126688D01*
X0232981Y0125090D02*
X0224473Y0125090D01*
X0224473Y0123491D02*
X0231352Y0123491D01*
X0229722Y0121893D02*
X0224473Y0121893D01*
X0224473Y0120294D02*
X0229480Y0120294D01*
X0229485Y0118696D02*
X0224473Y0118696D01*
X0224473Y0117097D02*
X0229485Y0117097D01*
X0229485Y0115499D02*
X0224473Y0115499D01*
X0224473Y0113900D02*
X0229485Y0113900D01*
X0229485Y0112302D02*
X0224473Y0112302D01*
X0224473Y0110703D02*
X0229485Y0110703D01*
X0229485Y0109105D02*
X0224473Y0109105D01*
X0224473Y0107506D02*
X0229485Y0107506D01*
X0229485Y0105908D02*
X0224473Y0105908D01*
X0224473Y0104309D02*
X0229485Y0104309D01*
X0229485Y0102711D02*
X0224473Y0102711D01*
X0224473Y0101112D02*
X0229485Y0101112D01*
X0229485Y0099514D02*
X0224473Y0099514D01*
X0224473Y0097915D02*
X0229485Y0097915D01*
X0229485Y0096317D02*
X0224473Y0096317D01*
X0225912Y0094718D02*
X0229234Y0094718D01*
X0228573Y0093120D02*
X0226573Y0093120D01*
X0226573Y0091521D02*
X0228573Y0091521D01*
X0228573Y0089923D02*
X0226573Y0089923D01*
X0226573Y0088324D02*
X0228573Y0088324D01*
X0228573Y0086726D02*
X0226573Y0086726D01*
X0226044Y0085127D02*
X0229102Y0085127D01*
X0230984Y0083529D02*
X0224162Y0083529D01*
X0220984Y0083529D02*
X0214162Y0083529D01*
X0216044Y0085127D02*
X0219102Y0085127D01*
X0218573Y0086726D02*
X0216573Y0086726D01*
X0216573Y0088324D02*
X0218573Y0088324D01*
X0218573Y0089923D02*
X0216573Y0089923D01*
X0216573Y0091521D02*
X0218573Y0091521D01*
X0218573Y0093120D02*
X0216573Y0093120D01*
X0215912Y0094718D02*
X0219234Y0094718D01*
X0220673Y0096317D02*
X0214473Y0096317D01*
X0214473Y0097915D02*
X0220673Y0097915D01*
X0220673Y0099514D02*
X0214473Y0099514D01*
X0214473Y0101112D02*
X0220673Y0101112D01*
X0220673Y0102711D02*
X0214473Y0102711D01*
X0214473Y0104309D02*
X0220673Y0104309D01*
X0220673Y0105908D02*
X0214473Y0105908D01*
X0214473Y0107506D02*
X0220673Y0107506D01*
X0220673Y0109105D02*
X0214473Y0109105D01*
X0214473Y0110703D02*
X0220673Y0110703D01*
X0220673Y0112302D02*
X0214473Y0112302D01*
X0214473Y0113900D02*
X0220673Y0113900D01*
X0220673Y0115499D02*
X0214473Y0115499D01*
X0214473Y0117097D02*
X0220673Y0117097D01*
X0220673Y0118696D02*
X0214473Y0118696D01*
X0214473Y0120294D02*
X0220673Y0120294D01*
X0220673Y0121893D02*
X0214473Y0121893D01*
X0214473Y0123491D02*
X0220673Y0123491D01*
X0220673Y0125090D02*
X0214473Y0125090D01*
X0214473Y0126688D02*
X0220673Y0126688D01*
X0220673Y0128287D02*
X0214473Y0128287D01*
X0214473Y0129885D02*
X0220673Y0129885D01*
X0220673Y0131484D02*
X0214473Y0131484D01*
X0214473Y0133082D02*
X0220673Y0133082D01*
X0220673Y0134681D02*
X0214473Y0134681D01*
X0214473Y0136279D02*
X0220673Y0136279D01*
X0220673Y0137878D02*
X0214473Y0137878D01*
X0214473Y0139476D02*
X0220673Y0139476D01*
X0220673Y0141075D02*
X0214473Y0141075D01*
X0214473Y0142673D02*
X0220673Y0142673D01*
X0220673Y0144272D02*
X0214473Y0144272D01*
X0214473Y0145870D02*
X0220673Y0145870D01*
X0220673Y0147469D02*
X0214473Y0147469D01*
X0214473Y0149068D02*
X0220673Y0149068D01*
X0220673Y0150666D02*
X0214473Y0150666D01*
X0214473Y0152265D02*
X0220673Y0152265D01*
X0220673Y0153863D02*
X0214473Y0153863D01*
X0214473Y0155462D02*
X0220673Y0155462D01*
X0220673Y0157060D02*
X0214473Y0157060D01*
X0214473Y0158659D02*
X0220673Y0158659D01*
X0220673Y0160257D02*
X0214473Y0160257D01*
X0214473Y0161856D02*
X0220673Y0161856D01*
X0220673Y0163454D02*
X0214473Y0163454D01*
X0214473Y0165053D02*
X0220673Y0165053D01*
X0220673Y0166651D02*
X0214473Y0166651D01*
X0214473Y0168250D02*
X0220673Y0168250D01*
X0220673Y0169848D02*
X0214473Y0169848D01*
X0214473Y0171447D02*
X0220673Y0171447D01*
X0220673Y0173045D02*
X0214473Y0173045D01*
X0214473Y0174644D02*
X0220673Y0174644D01*
X0220673Y0176242D02*
X0214473Y0176242D01*
X0214473Y0177841D02*
X0220673Y0177841D01*
X0220673Y0179439D02*
X0214473Y0179439D01*
X0214473Y0181038D02*
X0220673Y0181038D01*
X0220673Y0182636D02*
X0214473Y0182636D01*
X0214473Y0184235D02*
X0220673Y0184235D01*
X0220673Y0185833D02*
X0214473Y0185833D01*
X0214473Y0187432D02*
X0220673Y0187432D01*
X0220673Y0189030D02*
X0214473Y0189030D01*
X0214473Y0190629D02*
X0220673Y0190629D01*
X0220673Y0192227D02*
X0214473Y0192227D01*
X0214473Y0193826D02*
X0220673Y0193826D01*
X0220673Y0195424D02*
X0214473Y0195424D01*
X0214473Y0197023D02*
X0220673Y0197023D01*
X0220673Y0198621D02*
X0214473Y0198621D01*
X0215480Y0200220D02*
X0220673Y0200220D01*
X0213303Y0203417D02*
X0211902Y0203417D01*
X0213147Y0205015D02*
X0213585Y0205015D01*
X0213673Y0208212D02*
X0213845Y0208212D01*
X0213053Y0209811D02*
X0214871Y0209811D01*
X0211676Y0211409D02*
X0225470Y0211409D01*
X0224093Y0209811D02*
X0222274Y0209811D01*
X0223301Y0208212D02*
X0223473Y0208212D01*
X0250473Y0201818D02*
X0256065Y0201818D01*
X0254247Y0203417D02*
X0251902Y0203417D01*
X0253147Y0205015D02*
X0253585Y0205015D01*
X0250473Y0200220D02*
X0266773Y0200220D01*
X0266773Y0201818D02*
X0261080Y0201818D01*
X0262899Y0203417D02*
X0266773Y0203417D01*
X0266773Y0205015D02*
X0263561Y0205015D01*
X0263673Y0206614D02*
X0266773Y0206614D01*
X0266773Y0208212D02*
X0263301Y0208212D01*
X0262274Y0209811D02*
X0266773Y0209811D01*
X0265418Y0211409D02*
X0254250Y0211409D01*
X0252652Y0213008D02*
X0263819Y0213008D01*
X0262221Y0214606D02*
X0173853Y0214606D01*
X0144736Y0202363D02*
X0144797Y0103362D01*
X0137786Y0096350D01*
X0136673Y0095237D01*
X0136673Y0076479D01*
X0127224Y0066888D01*
X0126673Y0066337D01*
X0126673Y0066329D01*
X0126667Y0066323D01*
X0126673Y0065542D01*
X0126673Y0057835D01*
X0100608Y0084159D01*
X0100475Y0127913D01*
X0100488Y0127927D01*
X0100473Y0128697D01*
X0100470Y0129468D01*
X0100457Y0129481D01*
X0100456Y0129501D01*
X0099900Y0130034D01*
X0099354Y0130577D01*
X0099335Y0130577D01*
X0099224Y0130683D01*
X0099352Y0203309D01*
X0099684Y0202976D01*
X0101558Y0202200D01*
X0103587Y0202200D01*
X0104205Y0202456D01*
X0114373Y0192289D01*
X0114373Y0192283D01*
X0114769Y0191327D01*
X0115500Y0190596D01*
X0116456Y0190200D01*
X0117490Y0190200D01*
X0118446Y0190596D01*
X0119177Y0191327D01*
X0119573Y0192283D01*
X0119573Y0193317D01*
X0119177Y0194273D01*
X0118446Y0195004D01*
X0117490Y0195400D01*
X0117484Y0195400D01*
X0112074Y0200811D01*
X0112140Y0200800D01*
X0112373Y0200800D01*
X0112373Y0206100D01*
X0112773Y0206100D01*
X0112773Y0200800D01*
X0113006Y0200800D01*
X0113861Y0200935D01*
X0114684Y0201203D01*
X0115455Y0201596D01*
X0116156Y0202105D01*
X0116768Y0202717D01*
X0117277Y0203417D01*
X0117670Y0204189D01*
X0117937Y0205012D01*
X0117955Y0205122D01*
X0118249Y0204411D01*
X0119684Y0202976D01*
X0121558Y0202200D01*
X0123587Y0202200D01*
X0125462Y0202976D01*
X0126896Y0204411D01*
X0127473Y0205803D01*
X0127473Y0205286D01*
X0128249Y0203411D01*
X0129684Y0201976D01*
X0131558Y0201200D01*
X0133587Y0201200D01*
X0135462Y0201976D01*
X0136896Y0203411D01*
X0137673Y0205286D01*
X0137673Y0205803D01*
X0138249Y0204411D01*
X0139684Y0202976D01*
X0141558Y0202200D01*
X0143587Y0202200D01*
X0144519Y0202586D01*
X0144736Y0202363D01*
X0144736Y0201818D02*
X0135080Y0201818D01*
X0136899Y0203417D02*
X0139243Y0203417D01*
X0137999Y0205015D02*
X0137561Y0205015D01*
X0144737Y0200220D02*
X0112664Y0200220D01*
X0112773Y0201818D02*
X0112373Y0201818D01*
X0112373Y0203417D02*
X0112773Y0203417D01*
X0112773Y0205015D02*
X0112373Y0205015D01*
X0112373Y0206614D02*
X0112773Y0206614D01*
X0112773Y0208212D02*
X0112373Y0208212D01*
X0112373Y0209811D02*
X0112773Y0209811D01*
X0112773Y0211409D02*
X0112373Y0211409D01*
X0110500Y0211409D02*
X0105676Y0211409D01*
X0107053Y0209811D02*
X0108325Y0209811D01*
X0102573Y0207300D02*
X0102573Y0207200D01*
X0116973Y0192800D01*
X0119362Y0193826D02*
X0144741Y0193826D01*
X0144740Y0195424D02*
X0117460Y0195424D01*
X0115861Y0197023D02*
X0144739Y0197023D01*
X0144738Y0198621D02*
X0114263Y0198621D01*
X0115762Y0201818D02*
X0130065Y0201818D01*
X0128247Y0203417D02*
X0125902Y0203417D01*
X0127147Y0205015D02*
X0127585Y0205015D01*
X0127673Y0208212D02*
X0127845Y0208212D01*
X0127053Y0209811D02*
X0128871Y0209811D01*
X0125676Y0211409D02*
X0136895Y0211409D01*
X0138494Y0213008D02*
X0095452Y0213008D01*
X0097050Y0211409D02*
X0099470Y0211409D01*
X0089694Y0213008D02*
X0073819Y0213008D01*
X0073161Y0213666D02*
X0070184Y0214899D01*
X0066962Y0214899D01*
X0063985Y0213666D01*
X0061707Y0211388D01*
X0060474Y0208411D01*
X0060474Y0205189D01*
X0061707Y0202212D01*
X0063985Y0199934D01*
X0066962Y0198701D01*
X0070184Y0198701D01*
X0073161Y0199934D01*
X0075439Y0202212D01*
X0076672Y0205189D01*
X0076672Y0208411D01*
X0075439Y0211388D01*
X0073161Y0213666D01*
X0070891Y0214606D02*
X0140092Y0214606D01*
X0119470Y0211409D02*
X0114646Y0211409D01*
X0116820Y0209811D02*
X0118093Y0209811D01*
X0117999Y0205015D02*
X0117938Y0205015D01*
X0117277Y0203417D02*
X0119243Y0203417D01*
X0111237Y0195424D02*
X0099338Y0195424D01*
X0099335Y0193826D02*
X0112836Y0193826D01*
X0114396Y0192227D02*
X0099332Y0192227D01*
X0099329Y0190629D02*
X0115467Y0190629D01*
X0118479Y0190629D02*
X0144743Y0190629D01*
X0144742Y0192227D02*
X0119550Y0192227D01*
X0109639Y0197023D02*
X0099341Y0197023D01*
X0099343Y0198621D02*
X0108040Y0198621D01*
X0106442Y0200220D02*
X0099346Y0200220D01*
X0099349Y0201818D02*
X0104843Y0201818D01*
X0091659Y0200220D02*
X0073447Y0200220D01*
X0075045Y0201818D02*
X0090065Y0201818D01*
X0088247Y0203417D02*
X0087673Y0203417D01*
X0091645Y0198621D02*
X0010373Y0198621D01*
X0010373Y0197023D02*
X0091631Y0197023D01*
X0091617Y0195424D02*
X0010373Y0195424D01*
X0010373Y0193826D02*
X0091603Y0193826D01*
X0091590Y0192227D02*
X0010373Y0192227D01*
X0010373Y0190629D02*
X0091576Y0190629D01*
X0091562Y0189030D02*
X0056465Y0189030D01*
X0055865Y0189630D02*
X0054248Y0190300D01*
X0046498Y0190300D01*
X0044880Y0189630D01*
X0043643Y0188392D01*
X0042973Y0186775D01*
X0042973Y0185025D01*
X0043643Y0183408D01*
X0044880Y0182170D01*
X0046498Y0181500D01*
X0054248Y0181500D01*
X0055865Y0182170D01*
X0057103Y0183408D01*
X0057773Y0185025D01*
X0057773Y0186775D01*
X0057103Y0188392D01*
X0055865Y0189630D01*
X0057501Y0187432D02*
X0091548Y0187432D01*
X0091534Y0185833D02*
X0057773Y0185833D01*
X0057446Y0184235D02*
X0091520Y0184235D01*
X0091506Y0182636D02*
X0056332Y0182636D01*
X0044414Y0182636D02*
X0030732Y0182636D01*
X0031846Y0184235D02*
X0043300Y0184235D01*
X0042973Y0185833D02*
X0032173Y0185833D01*
X0031901Y0187432D02*
X0043245Y0187432D01*
X0044281Y0189030D02*
X0030865Y0189030D01*
X0026873Y0181038D02*
X0091492Y0181038D01*
X0091478Y0179439D02*
X0026873Y0179439D01*
X0026873Y0177841D02*
X0091464Y0177841D01*
X0091451Y0176242D02*
X0026873Y0176242D01*
X0027016Y0174644D02*
X0091437Y0174644D01*
X0091423Y0173045D02*
X0028615Y0173045D01*
X0030213Y0171447D02*
X0091409Y0171447D01*
X0091395Y0169848D02*
X0031812Y0169848D01*
X0033410Y0168250D02*
X0091381Y0168250D01*
X0091367Y0166651D02*
X0035009Y0166651D01*
X0036607Y0165053D02*
X0091353Y0165053D01*
X0091339Y0163454D02*
X0038206Y0163454D01*
X0039804Y0161856D02*
X0091325Y0161856D01*
X0091312Y0160257D02*
X0041403Y0160257D01*
X0043001Y0158659D02*
X0056763Y0158659D01*
X0056373Y0157060D02*
X0044600Y0157060D01*
X0046198Y0155462D02*
X0057034Y0155462D01*
X0058423Y0153863D02*
X0047797Y0153863D01*
X0049395Y0152265D02*
X0060021Y0152265D01*
X0061620Y0150666D02*
X0050994Y0150666D01*
X0052592Y0149068D02*
X0063218Y0149068D01*
X0064817Y0147469D02*
X0054191Y0147469D01*
X0055789Y0145870D02*
X0066415Y0145870D01*
X0065803Y0144272D02*
X0057388Y0144272D01*
X0058986Y0142673D02*
X0065577Y0142673D01*
X0066273Y0141075D02*
X0060585Y0141075D01*
X0062183Y0139476D02*
X0066273Y0139476D01*
X0066273Y0137878D02*
X0063782Y0137878D01*
X0065380Y0136279D02*
X0066273Y0136279D01*
X0066273Y0134681D02*
X0065673Y0134681D01*
X0065673Y0133082D02*
X0066273Y0133082D01*
X0066273Y0131484D02*
X0065673Y0131484D01*
X0065673Y0129885D02*
X0066273Y0129885D01*
X0066273Y0128287D02*
X0065673Y0128287D01*
X0065673Y0126688D02*
X0066273Y0126688D01*
X0066273Y0125090D02*
X0065673Y0125090D01*
X0065673Y0123491D02*
X0066273Y0123491D01*
X0066273Y0121893D02*
X0065673Y0121893D01*
X0065673Y0120294D02*
X0066273Y0120294D01*
X0066273Y0118696D02*
X0065673Y0118696D01*
X0065673Y0117097D02*
X0066183Y0117097D01*
X0061873Y0117097D02*
X0010373Y0117097D01*
X0010373Y0115499D02*
X0061873Y0115499D01*
X0061873Y0113900D02*
X0010373Y0113900D01*
X0010373Y0112302D02*
X0061873Y0112302D01*
X0061873Y0110703D02*
X0010373Y0110703D01*
X0010373Y0109105D02*
X0061873Y0109105D01*
X0061873Y0107506D02*
X0010373Y0107506D01*
X0010373Y0105908D02*
X0061873Y0105908D01*
X0057818Y0104309D02*
X0010373Y0104309D01*
X0010373Y0102711D02*
X0057573Y0102711D01*
X0058584Y0101112D02*
X0010373Y0101112D01*
X0010373Y0099514D02*
X0060465Y0099514D01*
X0062064Y0097915D02*
X0010373Y0097915D01*
X0010373Y0096317D02*
X0063662Y0096317D01*
X0065261Y0094718D02*
X0010373Y0094718D01*
X0010373Y0093120D02*
X0066859Y0093120D01*
X0068458Y0091521D02*
X0010373Y0091521D01*
X0010373Y0089923D02*
X0070056Y0089923D01*
X0071655Y0088324D02*
X0010373Y0088324D01*
X0010373Y0086726D02*
X0073253Y0086726D01*
X0074852Y0085127D02*
X0010373Y0085127D01*
X0010373Y0083529D02*
X0076450Y0083529D01*
X0078049Y0081930D02*
X0010373Y0081930D01*
X0010373Y0080332D02*
X0079647Y0080332D01*
X0081246Y0078733D02*
X0010373Y0078733D01*
X0010373Y0077134D02*
X0082844Y0077134D01*
X0084443Y0075536D02*
X0010373Y0075536D01*
X0010373Y0073937D02*
X0086041Y0073937D01*
X0087640Y0072339D02*
X0010373Y0072339D01*
X0010373Y0070740D02*
X0089238Y0070740D01*
X0090837Y0069142D02*
X0010373Y0069142D01*
X0010373Y0051558D02*
X0025680Y0051558D01*
X0023777Y0049960D02*
X0010373Y0049960D01*
X0010373Y0048361D02*
X0022510Y0048361D01*
X0021634Y0046763D02*
X0010373Y0046763D01*
X0010373Y0045164D02*
X0021059Y0045164D01*
X0020754Y0043566D02*
X0010373Y0043566D01*
X0010373Y0041967D02*
X0031119Y0041967D01*
X0031119Y0040369D02*
X0032719Y0040369D01*
X0032719Y0038770D02*
X0031119Y0038770D01*
X0031119Y0037172D02*
X0032719Y0037172D01*
X0032719Y0035573D02*
X0031119Y0035573D01*
X0031119Y0033975D02*
X0032719Y0033975D01*
X0032719Y0032376D02*
X0031119Y0032376D01*
X0033501Y0029179D02*
X0010373Y0029179D01*
X0010373Y0027581D02*
X0032780Y0027581D01*
X0034601Y0030778D02*
X0010373Y0030778D01*
X0010373Y0032376D02*
X0026401Y0032376D01*
X0024230Y0033975D02*
X0010373Y0033975D01*
X0010373Y0035573D02*
X0022811Y0035573D01*
X0021852Y0037172D02*
X0010373Y0037172D01*
X0010373Y0038770D02*
X0021200Y0038770D01*
X0020805Y0040369D02*
X0010373Y0040369D01*
X0034438Y0053157D02*
X0111129Y0053157D01*
X0112728Y0051558D02*
X0060625Y0051558D01*
X0062724Y0049960D02*
X0114326Y0049960D01*
X0115925Y0048361D02*
X0064114Y0048361D01*
X0065037Y0046763D02*
X0117523Y0046763D01*
X0119122Y0045164D02*
X0065583Y0045164D01*
X0065996Y0043566D02*
X0120720Y0043566D01*
X0122319Y0041967D02*
X0065996Y0041967D01*
X0065890Y0040369D02*
X0123917Y0040369D01*
X0125516Y0038770D02*
X0065462Y0038770D01*
X0064775Y0037172D02*
X0127114Y0037172D01*
X0128713Y0035573D02*
X0063852Y0035573D01*
X0062271Y0033975D02*
X0130311Y0033975D01*
X0131910Y0032376D02*
X0059841Y0032376D01*
X0053172Y0029179D02*
X0135107Y0029179D01*
X0136673Y0027581D02*
X0053893Y0027581D01*
X0054351Y0025982D02*
X0136673Y0025982D01*
X0136673Y0024384D02*
X0066429Y0024384D01*
X0069042Y0022785D02*
X0136673Y0022785D01*
X0135836Y0021187D02*
X0070522Y0021187D01*
X0071184Y0019588D02*
X0123473Y0019588D01*
X0123473Y0017990D02*
X0071672Y0017990D01*
X0071672Y0016391D02*
X0123473Y0016391D01*
X0123473Y0014793D02*
X0071508Y0014793D01*
X0070846Y0013194D02*
X0123473Y0013194D01*
X0123473Y0011596D02*
X0069822Y0011596D01*
X0068224Y0009997D02*
X0134382Y0009997D01*
X0134208Y0019588D02*
X0133673Y0019588D01*
X0140473Y0022785D02*
X0272012Y0022785D01*
X0270414Y0021187D02*
X0251310Y0021187D01*
X0251462Y0021124D02*
X0249587Y0021900D01*
X0247558Y0021900D01*
X0245684Y0021124D01*
X0244249Y0019689D01*
X0243473Y0017814D01*
X0243473Y0017297D01*
X0242896Y0018689D01*
X0241462Y0020124D01*
X0239587Y0020900D01*
X0237558Y0020900D01*
X0235684Y0020124D01*
X0234249Y0018689D01*
X0233673Y0017297D01*
X0233673Y0017814D01*
X0232896Y0019689D01*
X0231462Y0021124D01*
X0229587Y0021900D01*
X0227558Y0021900D01*
X0225684Y0021124D01*
X0224249Y0019689D01*
X0223473Y0017814D01*
X0223473Y0017297D01*
X0222896Y0018689D01*
X0221462Y0020124D01*
X0219587Y0020900D01*
X0217558Y0020900D01*
X0215684Y0020124D01*
X0214249Y0018689D01*
X0213673Y0017297D01*
X0213673Y0021080D01*
X0212853Y0021900D01*
X0204293Y0021900D01*
X0203473Y0021080D01*
X0203473Y0012520D01*
X0204293Y0011700D01*
X0212853Y0011700D01*
X0213673Y0012520D01*
X0213673Y0014303D01*
X0214249Y0012911D01*
X0215684Y0011476D01*
X0217558Y0010700D01*
X0219587Y0010700D01*
X0221462Y0011476D01*
X0222896Y0012911D01*
X0223673Y0014786D01*
X0223673Y0015303D01*
X0224249Y0013911D01*
X0225684Y0012476D01*
X0227558Y0011700D01*
X0229587Y0011700D01*
X0231462Y0012476D01*
X0232896Y0013911D01*
X0233473Y0015303D01*
X0233473Y0014786D01*
X0234249Y0012911D01*
X0235684Y0011476D01*
X0237558Y0010700D01*
X0239587Y0010700D01*
X0241462Y0011476D01*
X0242896Y0012911D01*
X0243673Y0014786D01*
X0243673Y0015303D01*
X0244249Y0013911D01*
X0245684Y0012476D01*
X0247558Y0011700D01*
X0249587Y0011700D01*
X0251462Y0012476D01*
X0252896Y0013911D01*
X0253473Y0015303D01*
X0253473Y0014786D01*
X0254249Y0012911D01*
X0255684Y0011476D01*
X0257558Y0010700D01*
X0259587Y0010700D01*
X0261462Y0011476D01*
X0262896Y0012911D01*
X0263673Y0014786D01*
X0263673Y0016814D01*
X0262896Y0018689D01*
X0261462Y0020124D01*
X0259587Y0020900D01*
X0257558Y0020900D01*
X0255684Y0020124D01*
X0254249Y0018689D01*
X0253673Y0017297D01*
X0253673Y0017814D01*
X0252896Y0019689D01*
X0251462Y0021124D01*
X0252938Y0019588D02*
X0255148Y0019588D01*
X0253960Y0017990D02*
X0253600Y0017990D01*
X0253473Y0014793D02*
X0253262Y0014793D01*
X0254132Y0013194D02*
X0252179Y0013194D01*
X0255565Y0011596D02*
X0241581Y0011596D01*
X0243014Y0013194D02*
X0244966Y0013194D01*
X0243884Y0014793D02*
X0243673Y0014793D01*
X0243545Y0017990D02*
X0243186Y0017990D01*
X0244208Y0019588D02*
X0241997Y0019588D01*
X0245836Y0021187D02*
X0231310Y0021187D01*
X0232938Y0019588D02*
X0235148Y0019588D01*
X0233960Y0017990D02*
X0233600Y0017990D01*
X0233473Y0014793D02*
X0233262Y0014793D01*
X0234132Y0013194D02*
X0232179Y0013194D01*
X0235565Y0011596D02*
X0221581Y0011596D01*
X0223014Y0013194D02*
X0224966Y0013194D01*
X0223884Y0014793D02*
X0223673Y0014793D01*
X0223545Y0017990D02*
X0223186Y0017990D01*
X0224208Y0019588D02*
X0221997Y0019588D01*
X0225836Y0021187D02*
X0213566Y0021187D01*
X0213673Y0019588D02*
X0215148Y0019588D01*
X0213960Y0017990D02*
X0213673Y0017990D01*
X0213673Y0013194D02*
X0214132Y0013194D01*
X0215565Y0011596D02*
X0191581Y0011596D01*
X0193014Y0013194D02*
X0203473Y0013194D01*
X0203473Y0014793D02*
X0193673Y0014793D01*
X0193673Y0016391D02*
X0203473Y0016391D01*
X0203473Y0017990D02*
X0193186Y0017990D01*
X0191997Y0019588D02*
X0203473Y0019588D01*
X0203580Y0021187D02*
X0181892Y0021187D01*
X0183325Y0019588D02*
X0185148Y0019588D01*
X0183960Y0017990D02*
X0183953Y0017990D01*
X0178773Y0017990D02*
X0178373Y0017990D01*
X0178373Y0019588D02*
X0178773Y0019588D01*
X0178773Y0021187D02*
X0178373Y0021187D01*
X0175253Y0021187D02*
X0169722Y0021187D01*
X0168773Y0021187D02*
X0168373Y0021187D01*
X0167424Y0021187D02*
X0161310Y0021187D01*
X0162938Y0019588D02*
X0164583Y0019588D01*
X0168373Y0019588D02*
X0168773Y0019588D01*
X0168773Y0017990D02*
X0168373Y0017990D01*
X0168373Y0016391D02*
X0168773Y0016391D01*
X0168773Y0014793D02*
X0168373Y0014793D01*
X0168373Y0013194D02*
X0168773Y0013194D01*
X0168773Y0011596D02*
X0168373Y0011596D01*
X0172143Y0011596D02*
X0176792Y0011596D01*
X0178373Y0011596D02*
X0178773Y0011596D01*
X0180353Y0011596D02*
X0185565Y0011596D01*
X0184132Y0013194D02*
X0182745Y0013194D01*
X0178773Y0013194D02*
X0178373Y0013194D01*
X0178373Y0014793D02*
X0178773Y0014793D01*
X0178773Y0016391D02*
X0178373Y0016391D01*
X0174401Y0013194D02*
X0173418Y0013194D01*
X0173821Y0019588D02*
X0172563Y0019588D01*
X0163728Y0013194D02*
X0162179Y0013194D01*
X0165003Y0011596D02*
X0156762Y0011596D01*
X0155164Y0009997D02*
X0266773Y0009997D01*
X0266773Y0011596D02*
X0261581Y0011596D01*
X0263014Y0013194D02*
X0266773Y0013194D01*
X0266773Y0014793D02*
X0263673Y0014793D01*
X0263673Y0016391D02*
X0266773Y0016391D01*
X0267217Y0017990D02*
X0263186Y0017990D01*
X0261997Y0019588D02*
X0268815Y0019588D01*
X0273611Y0024384D02*
X0140473Y0024384D01*
X0140473Y0025982D02*
X0275209Y0025982D01*
X0276773Y0027581D02*
X0140840Y0027581D01*
X0140262Y0032376D02*
X0137284Y0032376D01*
X0135685Y0033975D02*
X0242261Y0033975D01*
X0243859Y0035573D02*
X0134087Y0035573D01*
X0132488Y0037172D02*
X0245458Y0037172D01*
X0247056Y0038770D02*
X0130890Y0038770D01*
X0129291Y0040369D02*
X0248655Y0040369D01*
X0250253Y0041967D02*
X0127693Y0041967D01*
X0126094Y0043566D02*
X0251852Y0043566D01*
X0254029Y0040369D02*
X0261285Y0040369D01*
X0261707Y0041388D02*
X0260474Y0038411D01*
X0260474Y0035189D01*
X0261707Y0032212D01*
X0263985Y0029934D01*
X0266962Y0028701D01*
X0270184Y0028701D01*
X0273161Y0029934D01*
X0275439Y0032212D01*
X0276672Y0035189D01*
X0276672Y0038411D01*
X0275439Y0041388D01*
X0273161Y0043666D01*
X0270184Y0044899D01*
X0266962Y0044899D01*
X0263985Y0043666D01*
X0261707Y0041388D01*
X0262286Y0041967D02*
X0255627Y0041967D01*
X0257226Y0043566D02*
X0263885Y0043566D01*
X0260423Y0046763D02*
X0276773Y0046763D01*
X0276773Y0048361D02*
X0262021Y0048361D01*
X0258824Y0045164D02*
X0276773Y0045164D01*
X0276773Y0043566D02*
X0273261Y0043566D01*
X0274860Y0041967D02*
X0276773Y0041967D01*
X0276773Y0040369D02*
X0275861Y0040369D01*
X0276523Y0038770D02*
X0276773Y0038770D01*
X0276773Y0037172D02*
X0276672Y0037172D01*
X0276672Y0035573D02*
X0276773Y0035573D01*
X0276773Y0033975D02*
X0276169Y0033975D01*
X0276773Y0032376D02*
X0275507Y0032376D01*
X0276773Y0030778D02*
X0274005Y0030778D01*
X0271339Y0029179D02*
X0276773Y0029179D01*
X0265807Y0029179D02*
X0242839Y0029179D01*
X0244437Y0030778D02*
X0263141Y0030778D01*
X0261639Y0032376D02*
X0246036Y0032376D01*
X0247635Y0033975D02*
X0260977Y0033975D01*
X0260474Y0035573D02*
X0249233Y0035573D01*
X0250832Y0037172D02*
X0260474Y0037172D01*
X0260622Y0038770D02*
X0252430Y0038770D01*
X0246640Y0056354D02*
X0246552Y0056354D01*
X0246573Y0057952D02*
X0248238Y0057952D01*
X0235414Y0083529D02*
X0234162Y0083529D01*
X0246573Y0086726D02*
X0247011Y0086726D01*
X0246573Y0088324D02*
X0248573Y0088324D01*
X0248573Y0089923D02*
X0246573Y0089923D01*
X0246573Y0091521D02*
X0248573Y0091521D01*
X0248573Y0093120D02*
X0246573Y0093120D01*
X0245912Y0094718D02*
X0249234Y0094718D01*
X0251307Y0096317D02*
X0243570Y0096317D01*
X0241576Y0096317D02*
X0239881Y0096317D01*
X0238282Y0097915D02*
X0249221Y0097915D01*
X0248123Y0099514D02*
X0237835Y0099514D01*
X0237835Y0101112D02*
X0248123Y0101112D01*
X0248123Y0102711D02*
X0237835Y0102711D01*
X0237835Y0104309D02*
X0248123Y0104309D01*
X0248123Y0105908D02*
X0237835Y0105908D01*
X0237835Y0107506D02*
X0248123Y0107506D01*
X0248123Y0109105D02*
X0237835Y0109105D01*
X0237835Y0110703D02*
X0248123Y0110703D01*
X0248123Y0112302D02*
X0237835Y0112302D01*
X0237835Y0113900D02*
X0240772Y0113900D01*
X0242801Y0113900D02*
X0248123Y0113900D01*
X0248123Y0115499D02*
X0244589Y0115499D01*
X0244723Y0117097D02*
X0248123Y0117097D01*
X0248123Y0118696D02*
X0245582Y0118696D01*
X0247031Y0120294D02*
X0248123Y0120294D01*
X0251923Y0120294D02*
X0255855Y0120294D01*
X0254473Y0118696D02*
X0251923Y0118696D01*
X0251923Y0117097D02*
X0254473Y0117097D01*
X0254473Y0115499D02*
X0251923Y0115499D01*
X0251923Y0113900D02*
X0255260Y0113900D01*
X0256859Y0112302D02*
X0251923Y0112302D01*
X0251923Y0110703D02*
X0255264Y0110703D01*
X0253665Y0109105D02*
X0251923Y0109105D01*
X0251923Y0107506D02*
X0253473Y0107506D01*
X0253473Y0105908D02*
X0251923Y0105908D01*
X0251923Y0104309D02*
X0253851Y0104309D01*
X0255450Y0102711D02*
X0251923Y0102711D01*
X0251923Y0101112D02*
X0276773Y0101112D01*
X0276773Y0099514D02*
X0253397Y0099514D01*
X0255373Y0097915D02*
X0276773Y0097915D01*
X0276773Y0102711D02*
X0272262Y0102711D01*
X0270851Y0101300D02*
X0274073Y0104522D01*
X0274073Y0106600D01*
X0268773Y0106600D01*
X0268773Y0101300D01*
X0270851Y0101300D01*
X0268773Y0102711D02*
X0268373Y0102711D01*
X0268373Y0104309D02*
X0268773Y0104309D01*
X0268773Y0105908D02*
X0268373Y0105908D01*
X0273860Y0104309D02*
X0276773Y0104309D01*
X0276773Y0105908D02*
X0274073Y0105908D01*
X0274073Y0107506D02*
X0276773Y0107506D01*
X0276773Y0109105D02*
X0274046Y0109105D01*
X0272448Y0110703D02*
X0276773Y0110703D01*
X0276773Y0112302D02*
X0272287Y0112302D01*
X0273886Y0113900D02*
X0276773Y0113900D01*
X0276773Y0115499D02*
X0274673Y0115499D01*
X0274673Y0117097D02*
X0276773Y0117097D01*
X0276773Y0118696D02*
X0274673Y0118696D01*
X0273291Y0120294D02*
X0276773Y0120294D01*
X0276773Y0121893D02*
X0271692Y0121893D01*
X0272477Y0123491D02*
X0276773Y0123491D01*
X0276773Y0125090D02*
X0273673Y0125090D01*
X0273673Y0126688D02*
X0276773Y0126688D01*
X0276773Y0128287D02*
X0273673Y0128287D01*
X0272700Y0129885D02*
X0276773Y0129885D01*
X0276773Y0131484D02*
X0271101Y0131484D01*
X0266182Y0133082D02*
X0276773Y0133082D01*
X0276773Y0134681D02*
X0264681Y0134681D01*
X0266962Y0138701D02*
X0263985Y0139934D01*
X0261707Y0142212D01*
X0260474Y0145189D01*
X0260474Y0148411D01*
X0261707Y0151388D01*
X0263985Y0153666D01*
X0266962Y0154899D01*
X0270184Y0154899D01*
X0273161Y0153666D01*
X0275439Y0151388D01*
X0276672Y0148411D01*
X0276672Y0145189D01*
X0275439Y0142212D01*
X0273161Y0139934D01*
X0270184Y0138701D01*
X0266962Y0138701D01*
X0265089Y0139476D02*
X0250473Y0139476D01*
X0250473Y0137878D02*
X0276773Y0137878D01*
X0276773Y0139476D02*
X0272056Y0139476D01*
X0274302Y0141075D02*
X0276773Y0141075D01*
X0276773Y0142673D02*
X0275630Y0142673D01*
X0276292Y0144272D02*
X0276773Y0144272D01*
X0276773Y0145870D02*
X0276672Y0145870D01*
X0276672Y0147469D02*
X0276773Y0147469D01*
X0276773Y0149068D02*
X0276400Y0149068D01*
X0276773Y0150666D02*
X0275738Y0150666D01*
X0276773Y0152265D02*
X0274562Y0152265D01*
X0272685Y0153863D02*
X0276773Y0153863D01*
X0276366Y0155462D02*
X0250473Y0155462D01*
X0250473Y0157060D02*
X0274767Y0157060D01*
X0273169Y0158659D02*
X0250473Y0158659D01*
X0250473Y0160257D02*
X0271570Y0160257D01*
X0269972Y0161856D02*
X0250473Y0161856D01*
X0250473Y0163454D02*
X0268373Y0163454D01*
X0266775Y0165053D02*
X0250473Y0165053D01*
X0250473Y0166651D02*
X0266773Y0166651D01*
X0266773Y0168250D02*
X0250473Y0168250D01*
X0250473Y0169848D02*
X0266773Y0169848D01*
X0266773Y0171447D02*
X0250473Y0171447D01*
X0250473Y0173045D02*
X0266773Y0173045D01*
X0266773Y0174644D02*
X0250473Y0174644D01*
X0250473Y0176242D02*
X0266773Y0176242D01*
X0266773Y0177841D02*
X0250473Y0177841D01*
X0250473Y0179439D02*
X0266773Y0179439D01*
X0266773Y0181038D02*
X0250473Y0181038D01*
X0250473Y0182636D02*
X0266773Y0182636D01*
X0266773Y0184235D02*
X0250473Y0184235D01*
X0250473Y0185833D02*
X0266773Y0185833D01*
X0266773Y0187432D02*
X0250473Y0187432D01*
X0250473Y0189030D02*
X0266773Y0189030D01*
X0266773Y0190629D02*
X0250473Y0190629D01*
X0250473Y0192227D02*
X0266773Y0192227D01*
X0266773Y0193826D02*
X0250473Y0193826D01*
X0250473Y0195424D02*
X0266773Y0195424D01*
X0266773Y0197023D02*
X0250473Y0197023D01*
X0250473Y0198621D02*
X0266773Y0198621D01*
X0264460Y0153863D02*
X0250473Y0153863D01*
X0250473Y0152265D02*
X0262583Y0152265D01*
X0261408Y0150666D02*
X0250473Y0150666D01*
X0250473Y0149068D02*
X0260746Y0149068D01*
X0260474Y0147469D02*
X0250473Y0147469D01*
X0250473Y0145870D02*
X0260474Y0145870D01*
X0260853Y0144272D02*
X0250473Y0144272D01*
X0250473Y0142673D02*
X0261516Y0142673D01*
X0262844Y0141075D02*
X0250473Y0141075D01*
X0250473Y0136279D02*
X0276773Y0136279D01*
X0264669Y0123491D02*
X0263973Y0123491D01*
X0261692Y0121893D02*
X0266268Y0121893D01*
X0265855Y0120294D02*
X0263291Y0120294D01*
X0257453Y0121893D02*
X0252631Y0121893D01*
X0253845Y0123491D02*
X0254173Y0123491D01*
X0247799Y0128287D02*
X0247222Y0128287D01*
X0246350Y0126688D02*
X0245623Y0126688D01*
X0244900Y0125090D02*
X0244025Y0125090D01*
X0243451Y0123491D02*
X0242426Y0123491D01*
X0242001Y0121893D02*
X0240828Y0121893D01*
X0240548Y0120294D02*
X0239229Y0120294D01*
X0239919Y0118696D02*
X0237835Y0118696D01*
X0237835Y0117097D02*
X0239289Y0117097D01*
X0239290Y0115499D02*
X0237835Y0115499D01*
X0248820Y0129885D02*
X0249249Y0129885D01*
X0250419Y0131484D02*
X0250698Y0131484D01*
X0250473Y0133082D02*
X0252148Y0133082D01*
X0253665Y0134681D02*
X0250473Y0134681D01*
X0261696Y0102711D02*
X0264884Y0102711D01*
X0192573Y0077200D02*
X0192573Y0059800D01*
X0185233Y0065945D02*
X0184467Y0065945D01*
X0185224Y0067543D02*
X0175716Y0067543D01*
X0177315Y0065945D02*
X0180679Y0065945D01*
X0179049Y0064346D02*
X0178913Y0064346D01*
X0185214Y0069142D02*
X0162113Y0069142D01*
X0160473Y0070740D02*
X0185205Y0070740D01*
X0185195Y0072339D02*
X0160473Y0072339D01*
X0160473Y0073937D02*
X0185186Y0073937D01*
X0185177Y0075536D02*
X0160473Y0075536D01*
X0160473Y0077134D02*
X0185362Y0077134D01*
X0186712Y0078733D02*
X0160473Y0078733D01*
X0160473Y0080332D02*
X0188310Y0080332D01*
X0189909Y0081930D02*
X0160473Y0081930D01*
X0160473Y0083529D02*
X0160984Y0083529D01*
X0164162Y0083529D02*
X0170984Y0083529D01*
X0170307Y0083809D02*
X0171777Y0083200D01*
X0173368Y0083200D01*
X0174839Y0083809D01*
X0175964Y0084934D01*
X0176573Y0086404D01*
X0176573Y0093196D01*
X0175964Y0094666D01*
X0174839Y0095791D01*
X0173368Y0096400D01*
X0171777Y0096400D01*
X0170307Y0095791D01*
X0169182Y0094666D01*
X0168573Y0093196D01*
X0168573Y0086404D01*
X0169182Y0084934D01*
X0170307Y0083809D01*
X0169102Y0085127D02*
X0166044Y0085127D01*
X0166573Y0086726D02*
X0168573Y0086726D01*
X0168573Y0088324D02*
X0166573Y0088324D01*
X0166573Y0089923D02*
X0168573Y0089923D01*
X0168573Y0091521D02*
X0166573Y0091521D01*
X0166573Y0093120D02*
X0168573Y0093120D01*
X0169234Y0094718D02*
X0165912Y0094718D01*
X0163570Y0096317D02*
X0171576Y0096317D01*
X0173570Y0096317D02*
X0180673Y0096317D01*
X0180673Y0097915D02*
X0158582Y0097915D01*
X0156984Y0099514D02*
X0180673Y0099514D01*
X0180673Y0101112D02*
X0155385Y0101112D01*
X0154840Y0102711D02*
X0180673Y0102711D01*
X0179977Y0104309D02*
X0154834Y0104309D01*
X0154828Y0105908D02*
X0178378Y0105908D01*
X0176780Y0107506D02*
X0154821Y0107506D01*
X0154815Y0109105D02*
X0175181Y0109105D01*
X0173583Y0110703D02*
X0154808Y0110703D01*
X0154802Y0112302D02*
X0171984Y0112302D01*
X0170386Y0113900D02*
X0154795Y0113900D01*
X0154789Y0115499D02*
X0168787Y0115499D01*
X0170964Y0118696D02*
X0181615Y0118696D01*
X0181073Y0120294D02*
X0170073Y0120294D01*
X0169950Y0121893D02*
X0181196Y0121893D01*
X0182107Y0123491D02*
X0169038Y0123491D01*
X0163107Y0123491D02*
X0154757Y0123491D01*
X0154763Y0121893D02*
X0162196Y0121893D01*
X0162073Y0120294D02*
X0154770Y0120294D01*
X0154776Y0118696D02*
X0162615Y0118696D01*
X0164559Y0117097D02*
X0154782Y0117097D01*
X0144789Y0117097D02*
X0100508Y0117097D01*
X0100513Y0115499D02*
X0144790Y0115499D01*
X0144791Y0113900D02*
X0100518Y0113900D01*
X0100523Y0112302D02*
X0144792Y0112302D01*
X0144793Y0110703D02*
X0100527Y0110703D01*
X0100532Y0109105D02*
X0144794Y0109105D01*
X0144795Y0107506D02*
X0100537Y0107506D01*
X0100542Y0105908D02*
X0144796Y0105908D01*
X0144797Y0104309D02*
X0100547Y0104309D01*
X0100552Y0102711D02*
X0144147Y0102711D01*
X0142548Y0101112D02*
X0100556Y0101112D01*
X0100561Y0099514D02*
X0140950Y0099514D01*
X0139351Y0097915D02*
X0100566Y0097915D01*
X0100571Y0096317D02*
X0131576Y0096317D01*
X0131777Y0096400D02*
X0130307Y0095791D01*
X0129182Y0094666D01*
X0128573Y0093196D01*
X0128573Y0086404D01*
X0129182Y0084934D01*
X0130307Y0083809D01*
X0131777Y0083200D01*
X0133368Y0083200D01*
X0134839Y0083809D01*
X0135964Y0084934D01*
X0136573Y0086404D01*
X0136573Y0093196D01*
X0135964Y0094666D01*
X0134839Y0095791D01*
X0133368Y0096400D01*
X0131777Y0096400D01*
X0133570Y0096317D02*
X0137752Y0096317D01*
X0136673Y0094718D02*
X0135912Y0094718D01*
X0136573Y0093120D02*
X0136673Y0093120D01*
X0136673Y0091521D02*
X0136573Y0091521D01*
X0136573Y0089923D02*
X0136673Y0089923D01*
X0136673Y0088324D02*
X0136573Y0088324D01*
X0136573Y0086726D02*
X0136673Y0086726D01*
X0136673Y0085127D02*
X0136044Y0085127D01*
X0136673Y0083529D02*
X0134162Y0083529D01*
X0136673Y0081930D02*
X0102815Y0081930D01*
X0104398Y0080332D02*
X0136673Y0080332D01*
X0136673Y0078733D02*
X0105980Y0078733D01*
X0107563Y0077134D02*
X0136673Y0077134D01*
X0135744Y0075536D02*
X0109146Y0075536D01*
X0110729Y0073937D02*
X0134169Y0073937D01*
X0132594Y0072339D02*
X0112312Y0072339D01*
X0113894Y0070740D02*
X0131019Y0070740D01*
X0129444Y0069142D02*
X0115477Y0069142D01*
X0117060Y0067543D02*
X0127870Y0067543D01*
X0126670Y0065945D02*
X0118643Y0065945D01*
X0120226Y0064346D02*
X0126673Y0064346D01*
X0126673Y0062748D02*
X0121808Y0062748D01*
X0123391Y0061149D02*
X0126673Y0061149D01*
X0126673Y0059551D02*
X0124974Y0059551D01*
X0126557Y0057952D02*
X0126673Y0057952D01*
X0131840Y0046763D02*
X0169923Y0046763D01*
X0155836Y0021187D02*
X0141310Y0021187D01*
X0142938Y0019588D02*
X0145148Y0019588D01*
X0143960Y0017990D02*
X0143600Y0017990D01*
X0151997Y0019588D02*
X0154208Y0019588D01*
X0153545Y0017990D02*
X0153186Y0017990D01*
X0133508Y0030778D02*
X0052072Y0030778D01*
X0048024Y0033975D02*
X0047906Y0033975D01*
X0044299Y0043566D02*
X0043085Y0043566D01*
X0042779Y0045164D02*
X0044712Y0045164D01*
X0045258Y0046763D02*
X0042204Y0046763D01*
X0041329Y0048361D02*
X0046181Y0048361D01*
X0047571Y0049960D02*
X0040061Y0049960D01*
X0038159Y0051558D02*
X0049670Y0051558D01*
X0087730Y0081930D02*
X0092356Y0081930D01*
X0093954Y0080332D02*
X0089328Y0080332D01*
X0090927Y0078733D02*
X0095553Y0078733D01*
X0097151Y0077134D02*
X0092525Y0077134D01*
X0094124Y0075536D02*
X0098750Y0075536D01*
X0100348Y0073937D02*
X0095722Y0073937D01*
X0097321Y0072339D02*
X0101947Y0072339D01*
X0101232Y0083529D02*
X0130984Y0083529D01*
X0129102Y0085127D02*
X0100605Y0085127D01*
X0100600Y0086726D02*
X0128573Y0086726D01*
X0128573Y0088324D02*
X0100595Y0088324D01*
X0100590Y0089923D02*
X0128573Y0089923D01*
X0128573Y0091521D02*
X0100586Y0091521D01*
X0100581Y0093120D02*
X0128573Y0093120D01*
X0129234Y0094718D02*
X0100576Y0094718D01*
X0090742Y0094718D02*
X0074942Y0094718D01*
X0076540Y0093120D02*
X0090728Y0093120D01*
X0090714Y0091521D02*
X0078139Y0091521D01*
X0079737Y0089923D02*
X0088186Y0089923D01*
X0086859Y0088324D02*
X0081336Y0088324D01*
X0082934Y0086726D02*
X0086921Y0086726D01*
X0088549Y0085127D02*
X0084533Y0085127D01*
X0086131Y0083529D02*
X0090757Y0083529D01*
X0090700Y0089923D02*
X0090560Y0089923D01*
X0090756Y0096317D02*
X0073343Y0096317D01*
X0072925Y0097915D02*
X0090769Y0097915D01*
X0090783Y0099514D02*
X0070546Y0099514D01*
X0068948Y0101112D02*
X0085784Y0101112D01*
X0085900Y0100996D02*
X0086856Y0100600D01*
X0087890Y0100600D01*
X0088846Y0100996D01*
X0089577Y0101727D01*
X0089973Y0102683D01*
X0089973Y0103717D01*
X0089577Y0104673D01*
X0089273Y0104977D01*
X0089273Y0121023D01*
X0089577Y0121327D01*
X0089973Y0122283D01*
X0089973Y0123317D01*
X0089577Y0124273D01*
X0088846Y0125004D01*
X0087890Y0125400D01*
X0086856Y0125400D01*
X0085900Y0125004D01*
X0085169Y0124273D01*
X0084773Y0123317D01*
X0084773Y0122283D01*
X0085169Y0121327D01*
X0085473Y0121023D01*
X0085473Y0104977D01*
X0085169Y0104673D01*
X0084773Y0103717D01*
X0084773Y0102683D01*
X0085169Y0101727D01*
X0085900Y0100996D01*
X0084773Y0102711D02*
X0070160Y0102711D01*
X0071476Y0104309D02*
X0085018Y0104309D01*
X0085473Y0105908D02*
X0073075Y0105908D01*
X0074673Y0107506D02*
X0085473Y0107506D01*
X0085473Y0109105D02*
X0076272Y0109105D01*
X0077870Y0110703D02*
X0085473Y0110703D01*
X0085473Y0112302D02*
X0079469Y0112302D01*
X0081067Y0113900D02*
X0085473Y0113900D01*
X0085473Y0115499D02*
X0082632Y0115499D01*
X0082973Y0117097D02*
X0085473Y0117097D01*
X0085473Y0118696D02*
X0082973Y0118696D01*
X0082973Y0120294D02*
X0085473Y0120294D01*
X0084934Y0121893D02*
X0082973Y0121893D01*
X0082973Y0123491D02*
X0084845Y0123491D01*
X0086107Y0125090D02*
X0082973Y0125090D01*
X0082973Y0126688D02*
X0091020Y0126688D01*
X0091006Y0125090D02*
X0088639Y0125090D01*
X0089901Y0123491D02*
X0090992Y0123491D01*
X0090978Y0121893D02*
X0089811Y0121893D01*
X0089273Y0120294D02*
X0090964Y0120294D01*
X0090950Y0118696D02*
X0089273Y0118696D01*
X0089273Y0117097D02*
X0090936Y0117097D01*
X0090922Y0115499D02*
X0089273Y0115499D01*
X0089273Y0113900D02*
X0090908Y0113900D01*
X0090895Y0112302D02*
X0089273Y0112302D01*
X0089273Y0110703D02*
X0090881Y0110703D01*
X0090867Y0109105D02*
X0089273Y0109105D01*
X0089273Y0107506D02*
X0090853Y0107506D01*
X0090839Y0105908D02*
X0089273Y0105908D01*
X0089728Y0104309D02*
X0090825Y0104309D01*
X0090811Y0102711D02*
X0089973Y0102711D01*
X0090797Y0101112D02*
X0088962Y0101112D01*
X0075878Y0115499D02*
X0074932Y0115499D01*
X0074473Y0117097D02*
X0077476Y0117097D01*
X0078173Y0118696D02*
X0074473Y0118696D01*
X0074473Y0120294D02*
X0078173Y0120294D01*
X0078173Y0121893D02*
X0074473Y0121893D01*
X0074473Y0123491D02*
X0078173Y0123491D01*
X0078173Y0125090D02*
X0074473Y0125090D01*
X0074473Y0126688D02*
X0078173Y0126688D01*
X0078173Y0128287D02*
X0074473Y0128287D01*
X0074473Y0129885D02*
X0078173Y0129885D01*
X0078173Y0131484D02*
X0074473Y0131484D01*
X0074473Y0133082D02*
X0077973Y0133082D01*
X0078377Y0134681D02*
X0074473Y0134681D01*
X0074473Y0136279D02*
X0091103Y0136279D01*
X0091089Y0134681D02*
X0082769Y0134681D01*
X0083173Y0133082D02*
X0091075Y0133082D01*
X0091061Y0131484D02*
X0082973Y0131484D01*
X0082973Y0129885D02*
X0091047Y0129885D01*
X0091034Y0128287D02*
X0082973Y0128287D01*
X0091117Y0137878D02*
X0074473Y0137878D01*
X0074473Y0139476D02*
X0091131Y0139476D01*
X0091145Y0141075D02*
X0074473Y0141075D01*
X0074473Y0142673D02*
X0091159Y0142673D01*
X0091173Y0144272D02*
X0073388Y0144272D01*
X0071789Y0145870D02*
X0091186Y0145870D01*
X0091200Y0147469D02*
X0070191Y0147469D01*
X0068592Y0149068D02*
X0091214Y0149068D01*
X0091228Y0150666D02*
X0066994Y0150666D01*
X0065395Y0152265D02*
X0091242Y0152265D01*
X0091256Y0153863D02*
X0063797Y0153863D01*
X0062198Y0155462D02*
X0091270Y0155462D01*
X0091284Y0157060D02*
X0061573Y0157060D01*
X0061183Y0158659D02*
X0091298Y0158659D01*
X0099273Y0158659D02*
X0144763Y0158659D01*
X0144762Y0160257D02*
X0099276Y0160257D01*
X0099279Y0161856D02*
X0144761Y0161856D01*
X0144760Y0163454D02*
X0099282Y0163454D01*
X0099284Y0165053D02*
X0144759Y0165053D01*
X0144758Y0166651D02*
X0099287Y0166651D01*
X0099290Y0168250D02*
X0144757Y0168250D01*
X0144756Y0169848D02*
X0099293Y0169848D01*
X0099296Y0171447D02*
X0144755Y0171447D01*
X0144754Y0173045D02*
X0099298Y0173045D01*
X0099301Y0174644D02*
X0144753Y0174644D01*
X0144752Y0176242D02*
X0099304Y0176242D01*
X0099307Y0177841D02*
X0144751Y0177841D01*
X0144750Y0179439D02*
X0099310Y0179439D01*
X0099312Y0181038D02*
X0144749Y0181038D01*
X0144748Y0182636D02*
X0099315Y0182636D01*
X0099318Y0184235D02*
X0144747Y0184235D01*
X0144746Y0185833D02*
X0099321Y0185833D01*
X0099324Y0187432D02*
X0144745Y0187432D01*
X0144744Y0189030D02*
X0099327Y0189030D01*
X0077473Y0203417D02*
X0075938Y0203417D01*
X0076600Y0205015D02*
X0077473Y0205015D01*
X0077473Y0206614D02*
X0076672Y0206614D01*
X0076672Y0208212D02*
X0077473Y0208212D01*
X0077473Y0209811D02*
X0076092Y0209811D01*
X0075417Y0211409D02*
X0077473Y0211409D01*
X0087673Y0211409D02*
X0088095Y0211409D01*
X0088673Y0211987D02*
X0088673Y0211987D01*
X0066255Y0214606D02*
X0010373Y0214606D01*
X0010373Y0213008D02*
X0063327Y0213008D01*
X0061728Y0211409D02*
X0010373Y0211409D01*
X0010373Y0209811D02*
X0061053Y0209811D01*
X0060474Y0208212D02*
X0029418Y0208212D01*
X0029615Y0208148D02*
X0028897Y0208382D01*
X0028151Y0208500D01*
X0024973Y0208500D01*
X0024973Y0203900D01*
X0032573Y0203900D01*
X0032573Y0204078D01*
X0032455Y0204824D01*
X0032221Y0205543D01*
X0031878Y0206216D01*
X0031434Y0206827D01*
X0030900Y0207361D01*
X0030289Y0207805D01*
X0029615Y0208148D01*
X0031589Y0206614D02*
X0044064Y0206614D01*
X0043643Y0206192D02*
X0042973Y0204575D01*
X0042973Y0202825D01*
X0043643Y0201208D01*
X0044880Y0199970D01*
X0046498Y0199300D01*
X0054248Y0199300D01*
X0055865Y0199970D01*
X0057103Y0201208D01*
X0057773Y0202825D01*
X0057773Y0204575D01*
X0057103Y0206192D01*
X0055865Y0207430D01*
X0054248Y0208100D01*
X0046498Y0208100D01*
X0044880Y0207430D01*
X0043643Y0206192D01*
X0043155Y0205015D02*
X0032392Y0205015D01*
X0032573Y0203500D02*
X0024973Y0203500D01*
X0024973Y0203900D01*
X0024573Y0203900D01*
X0024573Y0208500D01*
X0021395Y0208500D01*
X0020649Y0208382D01*
X0019930Y0208148D01*
X0019257Y0207805D01*
X0018646Y0207361D01*
X0018112Y0206827D01*
X0017668Y0206216D01*
X0017324Y0205543D01*
X0017091Y0204824D01*
X0016973Y0204078D01*
X0016973Y0203900D01*
X0024573Y0203900D01*
X0024573Y0203500D01*
X0024973Y0203500D01*
X0024973Y0198900D01*
X0028151Y0198900D01*
X0028897Y0199018D01*
X0029615Y0199252D01*
X0030289Y0199595D01*
X0030900Y0200039D01*
X0031434Y0200573D01*
X0031878Y0201184D01*
X0032221Y0201857D01*
X0032455Y0202576D01*
X0032573Y0203322D01*
X0032573Y0203500D01*
X0032573Y0203417D02*
X0042973Y0203417D01*
X0043390Y0201818D02*
X0032201Y0201818D01*
X0031081Y0200220D02*
X0044630Y0200220D01*
X0056115Y0200220D02*
X0063699Y0200220D01*
X0062100Y0201818D02*
X0057356Y0201818D01*
X0057773Y0203417D02*
X0061208Y0203417D01*
X0060545Y0205015D02*
X0057590Y0205015D01*
X0056681Y0206614D02*
X0060474Y0206614D01*
X0024973Y0206614D02*
X0024573Y0206614D01*
X0024573Y0208212D02*
X0024973Y0208212D01*
X0020128Y0208212D02*
X0010373Y0208212D01*
X0010373Y0206614D02*
X0017957Y0206614D01*
X0017153Y0205015D02*
X0010373Y0205015D01*
X0010373Y0203417D02*
X0016973Y0203417D01*
X0016973Y0203500D02*
X0016973Y0203322D01*
X0017091Y0202576D01*
X0017324Y0201857D01*
X0017668Y0201184D01*
X0018112Y0200573D01*
X0018646Y0200039D01*
X0019257Y0199595D01*
X0019930Y0199252D01*
X0020649Y0199018D01*
X0021395Y0198900D01*
X0024573Y0198900D01*
X0024573Y0203500D01*
X0016973Y0203500D01*
X0017344Y0201818D02*
X0010373Y0201818D01*
X0010373Y0200220D02*
X0018465Y0200220D01*
X0024573Y0200220D02*
X0024973Y0200220D01*
X0024973Y0201818D02*
X0024573Y0201818D01*
X0024573Y0203417D02*
X0024973Y0203417D01*
X0024973Y0205015D02*
X0024573Y0205015D01*
X0018681Y0189030D02*
X0010373Y0189030D01*
X0010373Y0187432D02*
X0017645Y0187432D01*
X0017373Y0185833D02*
X0010373Y0185833D01*
X0010373Y0184235D02*
X0017700Y0184235D01*
X0018814Y0182636D02*
X0010373Y0182636D01*
X0010373Y0181038D02*
X0023073Y0181038D01*
X0023073Y0179439D02*
X0010373Y0179439D01*
X0010373Y0177841D02*
X0023073Y0177841D01*
X0023073Y0176242D02*
X0010373Y0176242D01*
X0010373Y0174644D02*
X0011947Y0174644D01*
X0011421Y0174117D02*
X0012647Y0175344D01*
X0014250Y0176007D01*
X0015984Y0176007D01*
X0017586Y0175344D01*
X0018812Y0174117D01*
X0019476Y0172515D01*
X0019476Y0170781D01*
X0018812Y0169179D01*
X0017586Y0167953D01*
X0015984Y0167289D01*
X0014250Y0167289D01*
X0012647Y0167953D01*
X0011421Y0169179D01*
X0010758Y0170781D01*
X0010758Y0172515D01*
X0011421Y0174117D01*
X0010977Y0173045D02*
X0010373Y0173045D01*
X0010373Y0171447D02*
X0010758Y0171447D01*
X0010373Y0169848D02*
X0011144Y0169848D01*
X0010373Y0168250D02*
X0012351Y0168250D01*
X0010373Y0166651D02*
X0023356Y0166651D01*
X0023448Y0168250D02*
X0017883Y0168250D01*
X0019089Y0169848D02*
X0024407Y0169848D01*
X0024839Y0171447D02*
X0019476Y0171447D01*
X0019256Y0173045D02*
X0023241Y0173045D01*
X0023073Y0174644D02*
X0018286Y0174644D01*
X0024141Y0165053D02*
X0010373Y0165053D01*
X0010373Y0163454D02*
X0032832Y0163454D01*
X0034430Y0161856D02*
X0010373Y0161856D01*
X0010373Y0160257D02*
X0036029Y0160257D01*
X0037627Y0158659D02*
X0010373Y0158659D01*
X0010373Y0157060D02*
X0039226Y0157060D01*
X0040824Y0155462D02*
X0010373Y0155462D01*
X0010373Y0153863D02*
X0042423Y0153863D01*
X0044021Y0152265D02*
X0010373Y0152265D01*
X0010373Y0150666D02*
X0024918Y0150666D01*
X0024904Y0150660D02*
X0023900Y0149656D01*
X0023356Y0148343D01*
X0023356Y0146922D01*
X0023900Y0145609D01*
X0024904Y0144605D01*
X0026217Y0144061D01*
X0027638Y0144061D01*
X0028951Y0144605D01*
X0029955Y0145609D01*
X0030499Y0146922D01*
X0030499Y0148343D01*
X0029955Y0149656D01*
X0028951Y0150660D01*
X0027638Y0151204D01*
X0026217Y0151204D01*
X0024904Y0150660D01*
X0023656Y0149068D02*
X0010373Y0149068D01*
X0010373Y0147469D02*
X0013786Y0147469D01*
X0014250Y0147661D02*
X0012647Y0146997D01*
X0011421Y0145771D01*
X0010758Y0144169D01*
X0010758Y0142435D01*
X0011421Y0140833D01*
X0012647Y0139606D01*
X0014250Y0138943D01*
X0015984Y0138943D01*
X0017586Y0139606D01*
X0018812Y0140833D01*
X0019476Y0142435D01*
X0019476Y0144169D01*
X0018812Y0145771D01*
X0017586Y0146997D01*
X0015984Y0147661D01*
X0014250Y0147661D01*
X0016447Y0147469D02*
X0023356Y0147469D01*
X0023792Y0145870D02*
X0018713Y0145870D01*
X0019433Y0144272D02*
X0025707Y0144272D01*
X0028148Y0144272D02*
X0052014Y0144272D01*
X0053612Y0142673D02*
X0019476Y0142673D01*
X0018912Y0141075D02*
X0055211Y0141075D01*
X0056809Y0139476D02*
X0017272Y0139476D01*
X0012961Y0139476D02*
X0010373Y0139476D01*
X0010373Y0137878D02*
X0058408Y0137878D01*
X0060006Y0136279D02*
X0010373Y0136279D01*
X0010373Y0134681D02*
X0061605Y0134681D01*
X0061873Y0133082D02*
X0010373Y0133082D01*
X0010373Y0131484D02*
X0061873Y0131484D01*
X0061873Y0129885D02*
X0010373Y0129885D01*
X0010373Y0128287D02*
X0061873Y0128287D01*
X0061873Y0126688D02*
X0010373Y0126688D01*
X0010373Y0125090D02*
X0061873Y0125090D01*
X0061873Y0123491D02*
X0010373Y0123491D01*
X0010373Y0121893D02*
X0061873Y0121893D01*
X0061873Y0120294D02*
X0010373Y0120294D01*
X0010373Y0118696D02*
X0061873Y0118696D01*
X0050415Y0145870D02*
X0030064Y0145870D01*
X0030499Y0147469D02*
X0048817Y0147469D01*
X0047218Y0149068D02*
X0030199Y0149068D01*
X0028937Y0150666D02*
X0045620Y0150666D01*
X0031233Y0165053D02*
X0029714Y0165053D01*
X0011521Y0145870D02*
X0010373Y0145870D01*
X0010373Y0144272D02*
X0010800Y0144272D01*
X0010758Y0142673D02*
X0010373Y0142673D01*
X0010373Y0141075D02*
X0011321Y0141075D01*
X0099242Y0141075D02*
X0144774Y0141075D01*
X0144773Y0142673D02*
X0099245Y0142673D01*
X0099248Y0144272D02*
X0144772Y0144272D01*
X0144771Y0145870D02*
X0099251Y0145870D01*
X0099254Y0147469D02*
X0144770Y0147469D01*
X0144769Y0149068D02*
X0099256Y0149068D01*
X0099259Y0150666D02*
X0144768Y0150666D01*
X0144767Y0152265D02*
X0099262Y0152265D01*
X0099265Y0153863D02*
X0144766Y0153863D01*
X0144765Y0155462D02*
X0099268Y0155462D01*
X0099270Y0157060D02*
X0144764Y0157060D01*
X0144775Y0139476D02*
X0099240Y0139476D01*
X0099237Y0137878D02*
X0144776Y0137878D01*
X0144777Y0136279D02*
X0099234Y0136279D01*
X0099231Y0134681D02*
X0144778Y0134681D01*
X0144779Y0133082D02*
X0099228Y0133082D01*
X0099226Y0131484D02*
X0144780Y0131484D01*
X0144781Y0129885D02*
X0100056Y0129885D01*
X0100481Y0128287D02*
X0144782Y0128287D01*
X0144783Y0126688D02*
X0100479Y0126688D01*
X0100484Y0125090D02*
X0144784Y0125090D01*
X0144785Y0123491D02*
X0100489Y0123491D01*
X0100493Y0121893D02*
X0144786Y0121893D01*
X0144787Y0120294D02*
X0100498Y0120294D01*
X0100503Y0118696D02*
X0144788Y0118696D01*
X0160181Y0096317D02*
X0161576Y0096317D01*
X0175912Y0094718D02*
X0179234Y0094718D01*
X0178573Y0093120D02*
X0176573Y0093120D01*
X0176573Y0091521D02*
X0178573Y0091521D01*
X0178573Y0089923D02*
X0176573Y0089923D01*
X0176573Y0088324D02*
X0178573Y0088324D01*
X0178573Y0086726D02*
X0176573Y0086726D01*
X0176044Y0085127D02*
X0179102Y0085127D01*
X0180984Y0083529D02*
X0174162Y0083529D01*
X0184162Y0083529D02*
X0190140Y0083529D01*
X0188691Y0085127D02*
X0186044Y0085127D01*
X0186573Y0086726D02*
X0188193Y0086726D01*
X0188173Y0088324D02*
X0186573Y0088324D01*
X0186573Y0089923D02*
X0188173Y0089923D01*
X0188173Y0091521D02*
X0186573Y0091521D01*
X0186573Y0093120D02*
X0188232Y0093120D01*
X0188818Y0094718D02*
X0185912Y0094718D01*
D21*
X0200973Y0089600D02*
X0202573Y0089600D01*
X0202573Y0089800D01*
X0200973Y0089600D02*
X0187573Y0076200D01*
X0187635Y0065550D01*
X0187635Y0064800D01*
X0182573Y0059800D01*
X0158573Y0016800D02*
X0152173Y0010400D01*
X0137373Y0010400D01*
X0132173Y0015600D01*
X0128573Y0015600D01*
X0128573Y0015800D01*
X0093373Y0070000D02*
X0060173Y0103200D01*
X0068573Y0104800D02*
X0080573Y0116800D01*
X0080573Y0133200D01*
X0241773Y0116300D02*
X0242323Y0116300D01*
X0242323Y0118675D01*
X0254973Y0132625D01*
X0263373Y0132625D01*
X0268573Y0126800D01*
D22*
X0259073Y0126800D02*
X0253973Y0126800D01*
X0250023Y0121600D01*
X0250023Y0099800D01*
X0256573Y0094500D01*
X0256573Y0085600D01*
X0252573Y0081600D01*
X0238673Y0081600D01*
X0227323Y0070250D01*
X0227323Y0056350D01*
X0222573Y0051600D01*
X0172573Y0051600D01*
X0164573Y0059600D01*
X0162573Y0059600D01*
X0162573Y0059800D01*
X0162173Y0060000D01*
X0158573Y0063600D01*
X0158573Y0095237D01*
X0152948Y0100862D01*
X0152635Y0178487D01*
X0177373Y0203225D01*
X0177373Y0208400D01*
X0171773Y0214000D01*
X0142173Y0214000D01*
X0134573Y0206400D01*
X0132573Y0206400D01*
X0132573Y0206300D01*
X0142573Y0207300D02*
X0146635Y0203137D01*
X0146698Y0102575D01*
X0138573Y0094450D01*
X0138573Y0075700D01*
X0128573Y0065550D01*
X0128573Y0055600D01*
X0130973Y0053200D01*
X0144173Y0053200D01*
X0150573Y0059600D01*
X0152573Y0059600D01*
X0152573Y0059800D01*
X0152973Y0060000D01*
X0156173Y0063200D01*
X0156173Y0079600D01*
X0148573Y0082913D02*
X0148573Y0193200D01*
X0162573Y0207200D01*
X0162573Y0207300D01*
X0167373Y0205200D02*
X0167373Y0209600D01*
X0164573Y0212400D01*
X0158573Y0212400D01*
X0152573Y0206400D01*
X0152573Y0206300D01*
X0167373Y0205200D02*
X0150723Y0189800D01*
X0150760Y0100237D01*
X0156385Y0094750D01*
X0156348Y0085688D01*
X0142573Y0071600D01*
X0142573Y0059800D01*
X0132573Y0059800D02*
X0132573Y0066600D01*
X0148573Y0082913D01*
X0160973Y0066800D02*
X0173773Y0066800D01*
X0178573Y0062000D01*
X0178573Y0055600D01*
X0180973Y0053200D01*
X0214173Y0053200D01*
X0218573Y0057600D01*
X0218573Y0064000D01*
X0237773Y0083200D01*
X0237773Y0092675D01*
X0234198Y0096425D01*
X0234198Y0120237D01*
X0246185Y0132650D01*
X0246385Y0200550D01*
X0243573Y0203262D01*
X0243685Y0209512D01*
X0246573Y0212400D01*
X0250573Y0212400D01*
X0256573Y0206400D01*
X0258573Y0206400D01*
X0258573Y0206300D01*
X0248573Y0207300D02*
X0248573Y0132325D01*
X0235935Y0119687D01*
X0235935Y0097575D01*
X0242573Y0090937D01*
X0242573Y0089800D01*
X0246173Y0083200D02*
X0237773Y0083200D01*
X0246173Y0083200D02*
X0252573Y0089600D01*
X0252573Y0089800D01*
X0262573Y0089800D02*
X0262573Y0068000D01*
X0266573Y0064000D01*
X0266573Y0055600D01*
X0241773Y0030800D01*
X0141373Y0030800D01*
X0138973Y0028400D01*
X0138573Y0028400D01*
X0070573Y0096400D01*
X0070573Y0096800D01*
X0063773Y0103600D01*
X0063773Y0135200D01*
X0024973Y0174000D01*
X0024973Y0185600D01*
X0024773Y0185900D01*
X0058973Y0157200D02*
X0058973Y0156000D01*
X0072573Y0142400D01*
X0072573Y0114400D01*
X0068173Y0116400D02*
X0066173Y0114400D01*
X0068173Y0116400D02*
X0068173Y0143200D01*
X0087373Y0122800D02*
X0087373Y0103200D01*
X0095448Y0096175D02*
X0095448Y0093250D01*
X0094973Y0092000D01*
X0095448Y0096175D02*
X0095598Y0126400D01*
X0098573Y0128675D02*
X0097323Y0129875D01*
X0097460Y0208312D01*
X0094573Y0211200D01*
X0090573Y0211200D01*
X0086973Y0207600D01*
X0082573Y0207600D01*
X0082573Y0207300D01*
X0092573Y0206300D02*
X0093573Y0206300D01*
X0093573Y0201800D01*
X0092573Y0086800D01*
X0129373Y0050000D01*
X0169373Y0050000D01*
X0170973Y0048400D01*
X0251373Y0048400D01*
X0262573Y0059600D01*
X0262573Y0059800D01*
X0252573Y0059800D02*
X0252573Y0059600D01*
X0242973Y0050000D01*
X0171773Y0050000D01*
X0170173Y0051600D01*
X0130173Y0051600D01*
X0098710Y0083375D01*
X0098573Y0128675D01*
X0089373Y0087600D02*
X0129373Y0047600D01*
X0138573Y0028400D02*
X0138573Y0016800D01*
X0182573Y0089800D02*
X0182573Y0104400D01*
X0166173Y0120800D01*
X0166073Y0120800D01*
X0212573Y0089800D02*
X0212573Y0200000D01*
X0218573Y0206000D01*
X0218573Y0206300D01*
X0222573Y0201200D02*
X0228573Y0207200D01*
X0228573Y0207300D01*
X0222573Y0201200D02*
X0222573Y0089800D01*
X0232573Y0089800D02*
X0231385Y0094800D01*
X0231385Y0120862D01*
X0243885Y0133125D01*
X0244135Y0199375D01*
X0238573Y0204750D01*
X0238573Y0206300D01*
M02*
