G75*
%MOIN*%
%OFA0B0*%
%FSLAX25Y25*%
%IPPOS*%
%LPD*%
%AMOC8*
5,1,8,0,0,1.08239X$1,22.5*
%
%ADD10OC8,0.07400*%
%ADD11R,0.06299X0.05512*%
%ADD12OC8,0.07100*%
%ADD13C,0.07400*%
%ADD14C,0.13800*%
%ADD15OC8,0.06800*%
%ADD16C,0.06000*%
%ADD17R,0.05512X0.06299*%
%ADD18C,0.06800*%
%ADD19C,0.13398*%
%ADD20C,0.19698*%
%ADD21C,0.06000*%
%ADD22C,0.08200*%
%ADD23C,0.04800*%
D10*
X0097000Y0025000D03*
X0097000Y0040000D03*
X0137000Y0040000D03*
X0137000Y0025000D03*
X0157000Y0015000D03*
X0167000Y0015000D03*
X0177000Y0015000D03*
X0187000Y0015000D03*
X0197000Y0015000D03*
X0207000Y0015000D03*
X0227000Y0015000D03*
X0237000Y0015000D03*
X0247000Y0015000D03*
X0257000Y0015000D03*
X0267000Y0015000D03*
X0277000Y0015000D03*
X0267000Y0120000D03*
X0252000Y0120000D03*
X0237000Y0120000D03*
X0202000Y0155000D03*
X0192000Y0155000D03*
X0172000Y0155000D03*
X0162000Y0155000D03*
X0161000Y0205000D03*
X0151000Y0205000D03*
X0141000Y0205000D03*
X0131000Y0205000D03*
X0121000Y0205000D03*
X0171000Y0205000D03*
X0181000Y0205000D03*
X0191000Y0205000D03*
X0207000Y0205000D03*
X0217000Y0205000D03*
X0227000Y0205000D03*
X0237000Y0205000D03*
X0247000Y0205000D03*
X0257000Y0205000D03*
X0267000Y0205000D03*
X0277000Y0205000D03*
X0267000Y0160000D03*
X0252000Y0160000D03*
X0237000Y0160000D03*
D11*
X0237000Y0144037D03*
X0237000Y0135963D03*
X0252000Y0135963D03*
X0252000Y0144037D03*
X0267000Y0144037D03*
X0267000Y0135963D03*
D12*
X0212000Y0100000D03*
X0212000Y0090000D03*
X0192000Y0090000D03*
X0192000Y0100000D03*
X0182000Y0115000D03*
X0182000Y0125000D03*
X0162000Y0125000D03*
X0162000Y0115000D03*
X0152000Y0100000D03*
X0152000Y0090000D03*
X0172000Y0090000D03*
X0172000Y0100000D03*
X0202000Y0115000D03*
X0202000Y0125000D03*
D13*
X0127000Y0118300D02*
X0127000Y0111700D01*
X0117000Y0111700D02*
X0117000Y0118300D01*
X0107000Y0118300D02*
X0107000Y0111700D01*
X0105300Y0095000D02*
X0098700Y0095000D01*
X0098700Y0085000D02*
X0105300Y0085000D01*
X0105300Y0075000D02*
X0098700Y0075000D01*
D14*
X0043000Y0085000D03*
X0117000Y0174000D03*
D15*
X0072000Y0175000D03*
X0072000Y0165000D03*
X0072000Y0155000D03*
X0072000Y0145000D03*
X0072000Y0135000D03*
X0072000Y0125000D03*
D16*
X0242500Y0100000D03*
X0261500Y0100000D03*
D17*
X0121037Y0040000D03*
X0112963Y0040000D03*
X0112963Y0025000D03*
X0121037Y0025000D03*
D18*
X0067800Y0186100D02*
X0061800Y0186100D01*
X0042200Y0186100D02*
X0036200Y0186100D01*
X0036200Y0203900D02*
X0042200Y0203900D01*
X0061800Y0203900D02*
X0067800Y0203900D01*
D19*
X0087000Y0205000D03*
X0287000Y0145000D03*
X0082000Y0015000D03*
D20*
X0050346Y0040394D03*
X0061764Y0021890D03*
X0073575Y0040394D03*
D21*
X0152000Y0042600D02*
X0152000Y0037400D01*
X0162000Y0037400D02*
X0162000Y0042600D01*
X0172000Y0042600D02*
X0172000Y0037400D01*
X0182000Y0037400D02*
X0182000Y0042600D01*
X0192000Y0042600D02*
X0192000Y0037400D01*
X0202000Y0037400D02*
X0202000Y0042600D01*
X0212000Y0042600D02*
X0212000Y0037400D01*
X0222000Y0037400D02*
X0222000Y0042600D01*
X0232000Y0042600D02*
X0232000Y0037400D01*
X0242000Y0037400D02*
X0242000Y0042600D01*
X0252000Y0042600D02*
X0252000Y0037400D01*
X0262000Y0037400D02*
X0262000Y0042600D01*
X0272000Y0042600D02*
X0272000Y0037400D01*
X0282000Y0037400D02*
X0282000Y0042600D01*
X0282000Y0067400D02*
X0282000Y0072600D01*
X0272000Y0072600D02*
X0272000Y0067400D01*
X0262000Y0067400D02*
X0262000Y0072600D01*
X0252000Y0072600D02*
X0252000Y0067400D01*
X0242000Y0067400D02*
X0242000Y0072600D01*
X0232000Y0072600D02*
X0232000Y0067400D01*
X0222000Y0067400D02*
X0222000Y0072600D01*
X0212000Y0072600D02*
X0212000Y0067400D01*
X0202000Y0067400D02*
X0202000Y0072600D01*
X0192000Y0072600D02*
X0192000Y0067400D01*
X0182000Y0067400D02*
X0182000Y0072600D01*
X0172000Y0072600D02*
X0172000Y0067400D01*
X0162000Y0067400D02*
X0162000Y0072600D01*
X0152000Y0072600D02*
X0152000Y0067400D01*
D22*
X0132000Y0060000D03*
X0102000Y0060000D03*
D23*
X0096300Y0068900D03*
X0133700Y0087300D03*
X0132300Y0104000D03*
X0126000Y0104900D03*
X0162900Y0086900D03*
X0145800Y0068000D03*
X0145800Y0062600D03*
X0152100Y0056300D03*
X0188100Y0059000D03*
X0192600Y0055400D03*
X0204300Y0080600D03*
X0212400Y0083300D03*
X0240300Y0086000D03*
X0219600Y0105800D03*
X0217800Y0112100D03*
X0210600Y0110300D03*
X0210600Y0116600D03*
X0207900Y0133700D03*
X0221400Y0137300D03*
X0231300Y0137300D03*
X0227700Y0147200D03*
X0214200Y0160700D03*
X0226800Y0164300D03*
X0243900Y0172000D03*
X0250700Y0172800D03*
X0247500Y0155300D03*
X0221400Y0185900D03*
X0222300Y0191300D03*
X0210600Y0185900D03*
X0206100Y0170500D03*
X0179100Y0164300D03*
X0167400Y0176000D03*
X0161100Y0185900D03*
X0126000Y0143600D03*
X0135000Y0134600D03*
X0238500Y0062600D03*
X0236700Y0046400D03*
X0224100Y0023900D03*
X0270900Y0023900D03*
X0267300Y0064400D03*
X0266400Y0112100D03*
X0254700Y0112100D03*
X0247500Y0112100D03*
X0248000Y0190900D03*
X0177300Y0023900D03*
M02*
