G75*
%MOIN*%
%OFA0B0*%
%FSLAX25Y25*%
%IPPOS*%
%LPD*%
%AMOC8*
5,1,8,0,0,1.08239X$1,22.5*
%
%ADD10C,0.01600*%
%ADD11C,0.01200*%
%ADD12C,0.00600*%
%ADD13C,0.00500*%
%ADD14C,0.00200*%
%ADD15C,0.00800*%
%ADD16C,0.00100*%
%ADD17C,0.00000*%
%ADD18C,0.00300*%
%ADD19C,0.00400*%
%ADD20C,0.00040*%
D10*
X0013050Y0008050D02*
X0013050Y0218050D01*
X0268050Y0218050D01*
X0273050Y0213050D01*
X0273050Y0168050D01*
X0283050Y0158050D01*
X0283050Y0028050D01*
X0273050Y0018050D01*
X0273050Y0008050D01*
X0013050Y0008050D01*
X0168050Y0113550D02*
X0192050Y0113550D01*
X0192257Y0113553D01*
X0192464Y0113560D01*
X0192670Y0113573D01*
X0192877Y0113590D01*
X0193082Y0113613D01*
X0193288Y0113641D01*
X0193492Y0113673D01*
X0193696Y0113711D01*
X0193898Y0113753D01*
X0194100Y0113801D01*
X0194300Y0113853D01*
X0194499Y0113910D01*
X0194696Y0113972D01*
X0194892Y0114039D01*
X0195086Y0114111D01*
X0195279Y0114187D01*
X0195469Y0114268D01*
X0195658Y0114354D01*
X0195844Y0114444D01*
X0196028Y0114538D01*
X0196210Y0114638D01*
X0196389Y0114741D01*
X0196566Y0114849D01*
X0196740Y0114961D01*
X0196911Y0115077D01*
X0197080Y0115198D01*
X0197245Y0115322D01*
X0197407Y0115451D01*
X0197566Y0115583D01*
X0197722Y0115719D01*
X0197875Y0115859D01*
X0198024Y0116003D01*
X0198169Y0116150D01*
X0198311Y0116301D01*
X0198449Y0116455D01*
X0198584Y0116613D01*
X0198714Y0116773D01*
X0198840Y0116937D01*
X0198963Y0117104D01*
X0199081Y0117274D01*
X0199196Y0117447D01*
X0199306Y0117622D01*
X0199411Y0117800D01*
X0199513Y0117981D01*
X0199609Y0118163D01*
X0199702Y0118349D01*
X0199790Y0118536D01*
X0199873Y0118726D01*
X0199952Y0118917D01*
X0200026Y0119110D01*
X0200095Y0119306D01*
X0200159Y0119502D01*
X0200219Y0119700D01*
X0200274Y0119900D01*
X0200324Y0120101D01*
X0200369Y0120303D01*
X0200409Y0120506D01*
X0200444Y0120710D01*
X0200474Y0120915D01*
X0200499Y0121120D01*
X0200519Y0121326D01*
X0200534Y0121533D01*
X0200544Y0121740D01*
X0200549Y0121947D01*
X0200549Y0122153D01*
X0200544Y0122360D01*
X0200534Y0122567D01*
X0200519Y0122774D01*
X0200499Y0122980D01*
X0200474Y0123185D01*
X0200444Y0123390D01*
X0200409Y0123594D01*
X0200369Y0123797D01*
X0200324Y0123999D01*
X0200274Y0124200D01*
X0200219Y0124400D01*
X0200159Y0124598D01*
X0200095Y0124794D01*
X0200026Y0124990D01*
X0199952Y0125183D01*
X0199873Y0125374D01*
X0199790Y0125564D01*
X0199702Y0125751D01*
X0199609Y0125937D01*
X0199513Y0126119D01*
X0199411Y0126300D01*
X0199306Y0126478D01*
X0199196Y0126653D01*
X0199081Y0126826D01*
X0198963Y0126996D01*
X0198840Y0127163D01*
X0198714Y0127327D01*
X0198584Y0127487D01*
X0198449Y0127645D01*
X0198311Y0127799D01*
X0198169Y0127950D01*
X0198024Y0128097D01*
X0197875Y0128241D01*
X0197722Y0128381D01*
X0197566Y0128517D01*
X0197407Y0128649D01*
X0197245Y0128778D01*
X0197080Y0128902D01*
X0196911Y0129023D01*
X0196740Y0129139D01*
X0196566Y0129251D01*
X0196389Y0129359D01*
X0196210Y0129462D01*
X0196028Y0129562D01*
X0195844Y0129656D01*
X0195658Y0129746D01*
X0195469Y0129832D01*
X0195279Y0129913D01*
X0195086Y0129989D01*
X0194892Y0130061D01*
X0194696Y0130128D01*
X0194499Y0130190D01*
X0194300Y0130247D01*
X0194100Y0130299D01*
X0193898Y0130347D01*
X0193696Y0130389D01*
X0193492Y0130427D01*
X0193288Y0130459D01*
X0193082Y0130487D01*
X0192877Y0130510D01*
X0192670Y0130527D01*
X0192464Y0130540D01*
X0192257Y0130547D01*
X0192050Y0130550D01*
X0168050Y0130550D01*
X0167843Y0130547D01*
X0167636Y0130540D01*
X0167430Y0130527D01*
X0167223Y0130510D01*
X0167018Y0130487D01*
X0166812Y0130459D01*
X0166608Y0130427D01*
X0166404Y0130389D01*
X0166202Y0130347D01*
X0166000Y0130299D01*
X0165800Y0130247D01*
X0165601Y0130190D01*
X0165404Y0130128D01*
X0165208Y0130061D01*
X0165014Y0129989D01*
X0164821Y0129913D01*
X0164631Y0129832D01*
X0164442Y0129746D01*
X0164256Y0129656D01*
X0164072Y0129562D01*
X0163890Y0129462D01*
X0163711Y0129359D01*
X0163534Y0129251D01*
X0163360Y0129139D01*
X0163189Y0129023D01*
X0163020Y0128902D01*
X0162855Y0128778D01*
X0162693Y0128649D01*
X0162534Y0128517D01*
X0162378Y0128381D01*
X0162225Y0128241D01*
X0162076Y0128097D01*
X0161931Y0127950D01*
X0161789Y0127799D01*
X0161651Y0127645D01*
X0161516Y0127487D01*
X0161386Y0127327D01*
X0161260Y0127163D01*
X0161137Y0126996D01*
X0161019Y0126826D01*
X0160904Y0126653D01*
X0160794Y0126478D01*
X0160689Y0126300D01*
X0160587Y0126119D01*
X0160491Y0125937D01*
X0160398Y0125751D01*
X0160310Y0125564D01*
X0160227Y0125374D01*
X0160148Y0125183D01*
X0160074Y0124990D01*
X0160005Y0124794D01*
X0159941Y0124598D01*
X0159881Y0124400D01*
X0159826Y0124200D01*
X0159776Y0123999D01*
X0159731Y0123797D01*
X0159691Y0123594D01*
X0159656Y0123390D01*
X0159626Y0123185D01*
X0159601Y0122980D01*
X0159581Y0122774D01*
X0159566Y0122567D01*
X0159556Y0122360D01*
X0159551Y0122153D01*
X0159551Y0121947D01*
X0159556Y0121740D01*
X0159566Y0121533D01*
X0159581Y0121326D01*
X0159601Y0121120D01*
X0159626Y0120915D01*
X0159656Y0120710D01*
X0159691Y0120506D01*
X0159731Y0120303D01*
X0159776Y0120101D01*
X0159826Y0119900D01*
X0159881Y0119700D01*
X0159941Y0119502D01*
X0160005Y0119306D01*
X0160074Y0119110D01*
X0160148Y0118917D01*
X0160227Y0118726D01*
X0160310Y0118536D01*
X0160398Y0118349D01*
X0160491Y0118163D01*
X0160587Y0117981D01*
X0160689Y0117800D01*
X0160794Y0117622D01*
X0160904Y0117447D01*
X0161019Y0117274D01*
X0161137Y0117104D01*
X0161260Y0116937D01*
X0161386Y0116773D01*
X0161516Y0116613D01*
X0161651Y0116455D01*
X0161789Y0116301D01*
X0161931Y0116150D01*
X0162076Y0116003D01*
X0162225Y0115859D01*
X0162378Y0115719D01*
X0162534Y0115583D01*
X0162693Y0115451D01*
X0162855Y0115322D01*
X0163020Y0115198D01*
X0163189Y0115077D01*
X0163360Y0114961D01*
X0163534Y0114849D01*
X0163711Y0114741D01*
X0163890Y0114638D01*
X0164072Y0114538D01*
X0164256Y0114444D01*
X0164442Y0114354D01*
X0164631Y0114268D01*
X0164821Y0114187D01*
X0165014Y0114111D01*
X0165208Y0114039D01*
X0165404Y0113972D01*
X0165601Y0113910D01*
X0165800Y0113853D01*
X0166000Y0113801D01*
X0166202Y0113753D01*
X0166404Y0113711D01*
X0166608Y0113673D01*
X0166812Y0113641D01*
X0167018Y0113613D01*
X0167223Y0113590D01*
X0167430Y0113573D01*
X0167636Y0113560D01*
X0167843Y0113553D01*
X0168050Y0113550D01*
D11*
X0169764Y0158650D02*
X0176670Y0158650D01*
X0176670Y0167858D01*
X0181274Y0167858D02*
X0181274Y0158650D01*
X0181274Y0163254D02*
X0185878Y0167858D01*
X0188179Y0167858D01*
X0195085Y0167858D02*
X0199689Y0167858D01*
X0201991Y0165556D01*
X0201991Y0158650D01*
X0195085Y0158650D01*
X0192783Y0160952D01*
X0195085Y0163254D01*
X0201991Y0163254D01*
X0206595Y0160952D02*
X0208897Y0158650D01*
X0215803Y0158650D01*
X0215803Y0167858D01*
X0220407Y0165556D02*
X0222709Y0167858D01*
X0229615Y0167858D01*
X0229615Y0172462D02*
X0229615Y0158650D01*
X0222709Y0158650D01*
X0220407Y0160952D01*
X0220407Y0165556D01*
X0206595Y0167858D02*
X0206595Y0160952D01*
X0234219Y0160952D02*
X0236521Y0158650D01*
X0243427Y0158650D01*
X0243427Y0167858D01*
X0248031Y0167858D02*
X0250333Y0167858D01*
X0250333Y0158650D01*
X0248031Y0158650D02*
X0252635Y0158650D01*
X0257238Y0158650D02*
X0257238Y0167858D01*
X0264144Y0167858D01*
X0266446Y0165556D01*
X0266446Y0158650D01*
X0271050Y0160952D02*
X0273352Y0158650D01*
X0277956Y0158650D01*
X0280258Y0160952D01*
X0280258Y0165556D01*
X0277956Y0167858D01*
X0273352Y0167858D01*
X0271050Y0165556D01*
X0271050Y0160952D01*
X0250333Y0172462D02*
X0250333Y0174764D01*
X0234219Y0167858D02*
X0234219Y0160952D01*
X0169764Y0158650D02*
X0167462Y0160952D01*
X0167462Y0167858D01*
X0162858Y0172462D02*
X0153650Y0163254D01*
X0155952Y0165556D02*
X0162858Y0158650D01*
X0153650Y0158650D02*
X0153650Y0172462D01*
D12*
X0096522Y0136816D02*
X0096522Y0113784D01*
X0055578Y0113784D01*
X0055578Y0136816D01*
X0096522Y0136816D01*
X0090875Y0132977D02*
X0090877Y0133062D01*
X0090883Y0133146D01*
X0090893Y0133231D01*
X0090907Y0133314D01*
X0090924Y0133397D01*
X0090946Y0133479D01*
X0090972Y0133560D01*
X0091001Y0133640D01*
X0091034Y0133718D01*
X0091070Y0133794D01*
X0091110Y0133869D01*
X0091154Y0133942D01*
X0091201Y0134013D01*
X0091251Y0134081D01*
X0091304Y0134147D01*
X0091361Y0134210D01*
X0091420Y0134271D01*
X0091482Y0134329D01*
X0091547Y0134384D01*
X0091614Y0134436D01*
X0091683Y0134484D01*
X0091755Y0134529D01*
X0091829Y0134571D01*
X0091905Y0134609D01*
X0091982Y0134644D01*
X0092061Y0134675D01*
X0092141Y0134703D01*
X0092223Y0134726D01*
X0092305Y0134746D01*
X0092388Y0134762D01*
X0092472Y0134774D01*
X0092557Y0134782D01*
X0092642Y0134786D01*
X0092726Y0134786D01*
X0092811Y0134782D01*
X0092896Y0134774D01*
X0092980Y0134762D01*
X0093063Y0134746D01*
X0093145Y0134726D01*
X0093227Y0134703D01*
X0093307Y0134675D01*
X0093386Y0134644D01*
X0093463Y0134609D01*
X0093539Y0134571D01*
X0093613Y0134529D01*
X0093685Y0134484D01*
X0093754Y0134436D01*
X0093821Y0134384D01*
X0093886Y0134329D01*
X0093948Y0134271D01*
X0094007Y0134210D01*
X0094064Y0134147D01*
X0094117Y0134081D01*
X0094167Y0134013D01*
X0094214Y0133942D01*
X0094258Y0133869D01*
X0094298Y0133794D01*
X0094334Y0133718D01*
X0094367Y0133640D01*
X0094396Y0133560D01*
X0094422Y0133479D01*
X0094444Y0133397D01*
X0094461Y0133314D01*
X0094475Y0133231D01*
X0094485Y0133146D01*
X0094491Y0133062D01*
X0094493Y0132977D01*
X0094491Y0132892D01*
X0094485Y0132808D01*
X0094475Y0132723D01*
X0094461Y0132640D01*
X0094444Y0132557D01*
X0094422Y0132475D01*
X0094396Y0132394D01*
X0094367Y0132314D01*
X0094334Y0132236D01*
X0094298Y0132160D01*
X0094258Y0132085D01*
X0094214Y0132012D01*
X0094167Y0131941D01*
X0094117Y0131873D01*
X0094064Y0131807D01*
X0094007Y0131744D01*
X0093948Y0131683D01*
X0093886Y0131625D01*
X0093821Y0131570D01*
X0093754Y0131518D01*
X0093685Y0131470D01*
X0093613Y0131425D01*
X0093539Y0131383D01*
X0093463Y0131345D01*
X0093386Y0131310D01*
X0093307Y0131279D01*
X0093227Y0131251D01*
X0093145Y0131228D01*
X0093063Y0131208D01*
X0092980Y0131192D01*
X0092896Y0131180D01*
X0092811Y0131172D01*
X0092726Y0131168D01*
X0092642Y0131168D01*
X0092557Y0131172D01*
X0092472Y0131180D01*
X0092388Y0131192D01*
X0092305Y0131208D01*
X0092223Y0131228D01*
X0092141Y0131251D01*
X0092061Y0131279D01*
X0091982Y0131310D01*
X0091905Y0131345D01*
X0091829Y0131383D01*
X0091755Y0131425D01*
X0091683Y0131470D01*
X0091614Y0131518D01*
X0091547Y0131570D01*
X0091482Y0131625D01*
X0091420Y0131683D01*
X0091361Y0131744D01*
X0091304Y0131807D01*
X0091251Y0131873D01*
X0091201Y0131941D01*
X0091154Y0132012D01*
X0091110Y0132085D01*
X0091070Y0132160D01*
X0091034Y0132236D01*
X0091001Y0132314D01*
X0090972Y0132394D01*
X0090946Y0132475D01*
X0090924Y0132557D01*
X0090907Y0132640D01*
X0090893Y0132723D01*
X0090883Y0132808D01*
X0090877Y0132892D01*
X0090875Y0132977D01*
X0050550Y0184050D02*
X0046550Y0184050D01*
X0037050Y0184050D01*
X0033550Y0184050D01*
X0030050Y0192050D02*
X0030050Y0193050D01*
X0029050Y0193050D01*
X0029050Y0199050D01*
X0030050Y0199050D01*
X0030050Y0200050D01*
X0033550Y0208050D02*
X0037050Y0208050D01*
X0047050Y0208050D01*
X0050550Y0208050D01*
X0054050Y0200050D02*
X0054050Y0199050D01*
X0055050Y0199050D01*
X0055050Y0193050D01*
X0054050Y0193050D01*
X0054050Y0192050D01*
X0041050Y0196050D02*
X0041052Y0196113D01*
X0041058Y0196175D01*
X0041068Y0196237D01*
X0041081Y0196299D01*
X0041099Y0196359D01*
X0041120Y0196418D01*
X0041145Y0196476D01*
X0041174Y0196532D01*
X0041206Y0196586D01*
X0041241Y0196638D01*
X0041279Y0196687D01*
X0041321Y0196735D01*
X0041365Y0196779D01*
X0041413Y0196821D01*
X0041462Y0196859D01*
X0041514Y0196894D01*
X0041568Y0196926D01*
X0041624Y0196955D01*
X0041682Y0196980D01*
X0041741Y0197001D01*
X0041801Y0197019D01*
X0041863Y0197032D01*
X0041925Y0197042D01*
X0041987Y0197048D01*
X0042050Y0197050D01*
X0042113Y0197048D01*
X0042175Y0197042D01*
X0042237Y0197032D01*
X0042299Y0197019D01*
X0042359Y0197001D01*
X0042418Y0196980D01*
X0042476Y0196955D01*
X0042532Y0196926D01*
X0042586Y0196894D01*
X0042638Y0196859D01*
X0042687Y0196821D01*
X0042735Y0196779D01*
X0042779Y0196735D01*
X0042821Y0196687D01*
X0042859Y0196638D01*
X0042894Y0196586D01*
X0042926Y0196532D01*
X0042955Y0196476D01*
X0042980Y0196418D01*
X0043001Y0196359D01*
X0043019Y0196299D01*
X0043032Y0196237D01*
X0043042Y0196175D01*
X0043048Y0196113D01*
X0043050Y0196050D01*
X0043048Y0195987D01*
X0043042Y0195925D01*
X0043032Y0195863D01*
X0043019Y0195801D01*
X0043001Y0195741D01*
X0042980Y0195682D01*
X0042955Y0195624D01*
X0042926Y0195568D01*
X0042894Y0195514D01*
X0042859Y0195462D01*
X0042821Y0195413D01*
X0042779Y0195365D01*
X0042735Y0195321D01*
X0042687Y0195279D01*
X0042638Y0195241D01*
X0042586Y0195206D01*
X0042532Y0195174D01*
X0042476Y0195145D01*
X0042418Y0195120D01*
X0042359Y0195099D01*
X0042299Y0195081D01*
X0042237Y0195068D01*
X0042175Y0195058D01*
X0042113Y0195052D01*
X0042050Y0195050D01*
X0041987Y0195052D01*
X0041925Y0195058D01*
X0041863Y0195068D01*
X0041801Y0195081D01*
X0041741Y0195099D01*
X0041682Y0195120D01*
X0041624Y0195145D01*
X0041568Y0195174D01*
X0041514Y0195206D01*
X0041462Y0195241D01*
X0041413Y0195279D01*
X0041365Y0195321D01*
X0041321Y0195365D01*
X0041279Y0195413D01*
X0041241Y0195462D01*
X0041206Y0195514D01*
X0041174Y0195568D01*
X0041145Y0195624D01*
X0041120Y0195682D01*
X0041099Y0195741D01*
X0041081Y0195801D01*
X0041068Y0195863D01*
X0041058Y0195925D01*
X0041052Y0195987D01*
X0041050Y0196050D01*
X0035050Y0196050D02*
X0035052Y0196222D01*
X0035058Y0196393D01*
X0035069Y0196565D01*
X0035084Y0196736D01*
X0035103Y0196907D01*
X0035126Y0197077D01*
X0035153Y0197247D01*
X0035185Y0197416D01*
X0035220Y0197584D01*
X0035260Y0197751D01*
X0035304Y0197917D01*
X0035351Y0198082D01*
X0035403Y0198246D01*
X0035459Y0198408D01*
X0035519Y0198569D01*
X0035583Y0198729D01*
X0035651Y0198887D01*
X0035722Y0199043D01*
X0035797Y0199197D01*
X0035877Y0199350D01*
X0035959Y0199500D01*
X0036046Y0199649D01*
X0036136Y0199795D01*
X0036230Y0199939D01*
X0036327Y0200081D01*
X0036428Y0200220D01*
X0036532Y0200357D01*
X0036639Y0200491D01*
X0036750Y0200622D01*
X0036863Y0200751D01*
X0036980Y0200877D01*
X0037100Y0201000D01*
X0037223Y0201120D01*
X0037349Y0201237D01*
X0037478Y0201350D01*
X0037609Y0201461D01*
X0037743Y0201568D01*
X0037880Y0201672D01*
X0038019Y0201773D01*
X0038161Y0201870D01*
X0038305Y0201964D01*
X0038451Y0202054D01*
X0038600Y0202141D01*
X0038750Y0202223D01*
X0038903Y0202303D01*
X0039057Y0202378D01*
X0039213Y0202449D01*
X0039371Y0202517D01*
X0039531Y0202581D01*
X0039692Y0202641D01*
X0039854Y0202697D01*
X0040018Y0202749D01*
X0040183Y0202796D01*
X0040349Y0202840D01*
X0040516Y0202880D01*
X0040684Y0202915D01*
X0040853Y0202947D01*
X0041023Y0202974D01*
X0041193Y0202997D01*
X0041364Y0203016D01*
X0041535Y0203031D01*
X0041707Y0203042D01*
X0041878Y0203048D01*
X0042050Y0203050D01*
X0042222Y0203048D01*
X0042393Y0203042D01*
X0042565Y0203031D01*
X0042736Y0203016D01*
X0042907Y0202997D01*
X0043077Y0202974D01*
X0043247Y0202947D01*
X0043416Y0202915D01*
X0043584Y0202880D01*
X0043751Y0202840D01*
X0043917Y0202796D01*
X0044082Y0202749D01*
X0044246Y0202697D01*
X0044408Y0202641D01*
X0044569Y0202581D01*
X0044729Y0202517D01*
X0044887Y0202449D01*
X0045043Y0202378D01*
X0045197Y0202303D01*
X0045350Y0202223D01*
X0045500Y0202141D01*
X0045649Y0202054D01*
X0045795Y0201964D01*
X0045939Y0201870D01*
X0046081Y0201773D01*
X0046220Y0201672D01*
X0046357Y0201568D01*
X0046491Y0201461D01*
X0046622Y0201350D01*
X0046751Y0201237D01*
X0046877Y0201120D01*
X0047000Y0201000D01*
X0047120Y0200877D01*
X0047237Y0200751D01*
X0047350Y0200622D01*
X0047461Y0200491D01*
X0047568Y0200357D01*
X0047672Y0200220D01*
X0047773Y0200081D01*
X0047870Y0199939D01*
X0047964Y0199795D01*
X0048054Y0199649D01*
X0048141Y0199500D01*
X0048223Y0199350D01*
X0048303Y0199197D01*
X0048378Y0199043D01*
X0048449Y0198887D01*
X0048517Y0198729D01*
X0048581Y0198569D01*
X0048641Y0198408D01*
X0048697Y0198246D01*
X0048749Y0198082D01*
X0048796Y0197917D01*
X0048840Y0197751D01*
X0048880Y0197584D01*
X0048915Y0197416D01*
X0048947Y0197247D01*
X0048974Y0197077D01*
X0048997Y0196907D01*
X0049016Y0196736D01*
X0049031Y0196565D01*
X0049042Y0196393D01*
X0049048Y0196222D01*
X0049050Y0196050D01*
X0049048Y0195878D01*
X0049042Y0195707D01*
X0049031Y0195535D01*
X0049016Y0195364D01*
X0048997Y0195193D01*
X0048974Y0195023D01*
X0048947Y0194853D01*
X0048915Y0194684D01*
X0048880Y0194516D01*
X0048840Y0194349D01*
X0048796Y0194183D01*
X0048749Y0194018D01*
X0048697Y0193854D01*
X0048641Y0193692D01*
X0048581Y0193531D01*
X0048517Y0193371D01*
X0048449Y0193213D01*
X0048378Y0193057D01*
X0048303Y0192903D01*
X0048223Y0192750D01*
X0048141Y0192600D01*
X0048054Y0192451D01*
X0047964Y0192305D01*
X0047870Y0192161D01*
X0047773Y0192019D01*
X0047672Y0191880D01*
X0047568Y0191743D01*
X0047461Y0191609D01*
X0047350Y0191478D01*
X0047237Y0191349D01*
X0047120Y0191223D01*
X0047000Y0191100D01*
X0046877Y0190980D01*
X0046751Y0190863D01*
X0046622Y0190750D01*
X0046491Y0190639D01*
X0046357Y0190532D01*
X0046220Y0190428D01*
X0046081Y0190327D01*
X0045939Y0190230D01*
X0045795Y0190136D01*
X0045649Y0190046D01*
X0045500Y0189959D01*
X0045350Y0189877D01*
X0045197Y0189797D01*
X0045043Y0189722D01*
X0044887Y0189651D01*
X0044729Y0189583D01*
X0044569Y0189519D01*
X0044408Y0189459D01*
X0044246Y0189403D01*
X0044082Y0189351D01*
X0043917Y0189304D01*
X0043751Y0189260D01*
X0043584Y0189220D01*
X0043416Y0189185D01*
X0043247Y0189153D01*
X0043077Y0189126D01*
X0042907Y0189103D01*
X0042736Y0189084D01*
X0042565Y0189069D01*
X0042393Y0189058D01*
X0042222Y0189052D01*
X0042050Y0189050D01*
X0041878Y0189052D01*
X0041707Y0189058D01*
X0041535Y0189069D01*
X0041364Y0189084D01*
X0041193Y0189103D01*
X0041023Y0189126D01*
X0040853Y0189153D01*
X0040684Y0189185D01*
X0040516Y0189220D01*
X0040349Y0189260D01*
X0040183Y0189304D01*
X0040018Y0189351D01*
X0039854Y0189403D01*
X0039692Y0189459D01*
X0039531Y0189519D01*
X0039371Y0189583D01*
X0039213Y0189651D01*
X0039057Y0189722D01*
X0038903Y0189797D01*
X0038750Y0189877D01*
X0038600Y0189959D01*
X0038451Y0190046D01*
X0038305Y0190136D01*
X0038161Y0190230D01*
X0038019Y0190327D01*
X0037880Y0190428D01*
X0037743Y0190532D01*
X0037609Y0190639D01*
X0037478Y0190750D01*
X0037349Y0190863D01*
X0037223Y0190980D01*
X0037100Y0191100D01*
X0036980Y0191223D01*
X0036863Y0191349D01*
X0036750Y0191478D01*
X0036639Y0191609D01*
X0036532Y0191743D01*
X0036428Y0191880D01*
X0036327Y0192019D01*
X0036230Y0192161D01*
X0036136Y0192305D01*
X0036046Y0192451D01*
X0035959Y0192600D01*
X0035877Y0192750D01*
X0035797Y0192903D01*
X0035722Y0193057D01*
X0035651Y0193213D01*
X0035583Y0193371D01*
X0035519Y0193531D01*
X0035459Y0193692D01*
X0035403Y0193854D01*
X0035351Y0194018D01*
X0035304Y0194183D01*
X0035260Y0194349D01*
X0035220Y0194516D01*
X0035185Y0194684D01*
X0035153Y0194853D01*
X0035126Y0195023D01*
X0035103Y0195193D01*
X0035084Y0195364D01*
X0035069Y0195535D01*
X0035058Y0195707D01*
X0035052Y0195878D01*
X0035050Y0196050D01*
X0168050Y0128550D02*
X0192050Y0128550D01*
X0192210Y0128548D01*
X0192369Y0128542D01*
X0192528Y0128532D01*
X0192687Y0128519D01*
X0192846Y0128501D01*
X0193004Y0128480D01*
X0193161Y0128454D01*
X0193318Y0128425D01*
X0193474Y0128392D01*
X0193629Y0128355D01*
X0193784Y0128315D01*
X0193937Y0128270D01*
X0194089Y0128222D01*
X0194240Y0128170D01*
X0194389Y0128114D01*
X0194537Y0128055D01*
X0194684Y0127992D01*
X0194829Y0127926D01*
X0194972Y0127856D01*
X0195114Y0127782D01*
X0195254Y0127706D01*
X0195392Y0127625D01*
X0195527Y0127542D01*
X0195661Y0127455D01*
X0195793Y0127364D01*
X0195922Y0127271D01*
X0196049Y0127174D01*
X0196174Y0127075D01*
X0196296Y0126972D01*
X0196415Y0126866D01*
X0196532Y0126758D01*
X0196646Y0126646D01*
X0196758Y0126532D01*
X0196866Y0126415D01*
X0196972Y0126296D01*
X0197075Y0126174D01*
X0197174Y0126049D01*
X0197271Y0125922D01*
X0197364Y0125793D01*
X0197455Y0125661D01*
X0197542Y0125527D01*
X0197625Y0125392D01*
X0197706Y0125254D01*
X0197782Y0125114D01*
X0197856Y0124972D01*
X0197926Y0124829D01*
X0197992Y0124684D01*
X0198055Y0124537D01*
X0198114Y0124389D01*
X0198170Y0124240D01*
X0198222Y0124089D01*
X0198270Y0123937D01*
X0198315Y0123784D01*
X0198355Y0123629D01*
X0198392Y0123474D01*
X0198425Y0123318D01*
X0198454Y0123161D01*
X0198480Y0123004D01*
X0198501Y0122846D01*
X0198519Y0122687D01*
X0198532Y0122528D01*
X0198542Y0122369D01*
X0198548Y0122210D01*
X0198550Y0122050D01*
X0198548Y0121890D01*
X0198542Y0121731D01*
X0198532Y0121572D01*
X0198519Y0121413D01*
X0198501Y0121254D01*
X0198480Y0121096D01*
X0198454Y0120939D01*
X0198425Y0120782D01*
X0198392Y0120626D01*
X0198355Y0120471D01*
X0198315Y0120316D01*
X0198270Y0120163D01*
X0198222Y0120011D01*
X0198170Y0119860D01*
X0198114Y0119711D01*
X0198055Y0119563D01*
X0197992Y0119416D01*
X0197926Y0119271D01*
X0197856Y0119128D01*
X0197782Y0118986D01*
X0197706Y0118846D01*
X0197625Y0118708D01*
X0197542Y0118573D01*
X0197455Y0118439D01*
X0197364Y0118307D01*
X0197271Y0118178D01*
X0197174Y0118051D01*
X0197075Y0117926D01*
X0196972Y0117804D01*
X0196866Y0117685D01*
X0196758Y0117568D01*
X0196646Y0117454D01*
X0196532Y0117342D01*
X0196415Y0117234D01*
X0196296Y0117128D01*
X0196174Y0117025D01*
X0196049Y0116926D01*
X0195922Y0116829D01*
X0195793Y0116736D01*
X0195661Y0116645D01*
X0195527Y0116558D01*
X0195392Y0116475D01*
X0195254Y0116394D01*
X0195114Y0116318D01*
X0194972Y0116244D01*
X0194829Y0116174D01*
X0194684Y0116108D01*
X0194537Y0116045D01*
X0194389Y0115986D01*
X0194240Y0115930D01*
X0194089Y0115878D01*
X0193937Y0115830D01*
X0193784Y0115785D01*
X0193629Y0115745D01*
X0193474Y0115708D01*
X0193318Y0115675D01*
X0193161Y0115646D01*
X0193004Y0115620D01*
X0192846Y0115599D01*
X0192687Y0115581D01*
X0192528Y0115568D01*
X0192369Y0115558D01*
X0192210Y0115552D01*
X0192050Y0115550D01*
X0168050Y0115550D01*
X0167890Y0115552D01*
X0167731Y0115558D01*
X0167572Y0115568D01*
X0167413Y0115581D01*
X0167254Y0115599D01*
X0167096Y0115620D01*
X0166939Y0115646D01*
X0166782Y0115675D01*
X0166626Y0115708D01*
X0166471Y0115745D01*
X0166316Y0115785D01*
X0166163Y0115830D01*
X0166011Y0115878D01*
X0165860Y0115930D01*
X0165711Y0115986D01*
X0165563Y0116045D01*
X0165416Y0116108D01*
X0165271Y0116174D01*
X0165128Y0116244D01*
X0164986Y0116318D01*
X0164846Y0116394D01*
X0164708Y0116475D01*
X0164573Y0116558D01*
X0164439Y0116645D01*
X0164307Y0116736D01*
X0164178Y0116829D01*
X0164051Y0116926D01*
X0163926Y0117025D01*
X0163804Y0117128D01*
X0163685Y0117234D01*
X0163568Y0117342D01*
X0163454Y0117454D01*
X0163342Y0117568D01*
X0163234Y0117685D01*
X0163128Y0117804D01*
X0163025Y0117926D01*
X0162926Y0118051D01*
X0162829Y0118178D01*
X0162736Y0118307D01*
X0162645Y0118439D01*
X0162558Y0118573D01*
X0162475Y0118708D01*
X0162394Y0118846D01*
X0162318Y0118986D01*
X0162244Y0119128D01*
X0162174Y0119271D01*
X0162108Y0119416D01*
X0162045Y0119563D01*
X0161986Y0119711D01*
X0161930Y0119860D01*
X0161878Y0120011D01*
X0161830Y0120163D01*
X0161785Y0120316D01*
X0161745Y0120471D01*
X0161708Y0120626D01*
X0161675Y0120782D01*
X0161646Y0120939D01*
X0161620Y0121096D01*
X0161599Y0121254D01*
X0161581Y0121413D01*
X0161568Y0121572D01*
X0161558Y0121731D01*
X0161552Y0121890D01*
X0161550Y0122050D01*
X0161552Y0122210D01*
X0161558Y0122369D01*
X0161568Y0122528D01*
X0161581Y0122687D01*
X0161599Y0122846D01*
X0161620Y0123004D01*
X0161646Y0123161D01*
X0161675Y0123318D01*
X0161708Y0123474D01*
X0161745Y0123629D01*
X0161785Y0123784D01*
X0161830Y0123937D01*
X0161878Y0124089D01*
X0161930Y0124240D01*
X0161986Y0124389D01*
X0162045Y0124537D01*
X0162108Y0124684D01*
X0162174Y0124829D01*
X0162244Y0124972D01*
X0162318Y0125114D01*
X0162394Y0125254D01*
X0162475Y0125392D01*
X0162558Y0125527D01*
X0162645Y0125661D01*
X0162736Y0125793D01*
X0162829Y0125922D01*
X0162926Y0126049D01*
X0163025Y0126174D01*
X0163128Y0126296D01*
X0163234Y0126415D01*
X0163342Y0126532D01*
X0163454Y0126646D01*
X0163568Y0126758D01*
X0163685Y0126866D01*
X0163804Y0126972D01*
X0163926Y0127075D01*
X0164051Y0127174D01*
X0164178Y0127271D01*
X0164307Y0127364D01*
X0164439Y0127455D01*
X0164573Y0127542D01*
X0164708Y0127625D01*
X0164846Y0127706D01*
X0164986Y0127782D01*
X0165128Y0127856D01*
X0165271Y0127926D01*
X0165416Y0127992D01*
X0165563Y0128055D01*
X0165711Y0128114D01*
X0165860Y0128170D01*
X0166011Y0128222D01*
X0166163Y0128270D01*
X0166316Y0128315D01*
X0166471Y0128355D01*
X0166626Y0128392D01*
X0166782Y0128425D01*
X0166939Y0128454D01*
X0167096Y0128480D01*
X0167254Y0128501D01*
X0167413Y0128519D01*
X0167572Y0128532D01*
X0167731Y0128542D01*
X0167890Y0128548D01*
X0168050Y0128550D01*
X0175050Y0122050D02*
X0177550Y0122050D01*
X0177550Y0119050D01*
X0179050Y0119050D02*
X0179050Y0125050D01*
X0181050Y0125050D01*
X0181050Y0119050D01*
X0179050Y0119050D01*
X0177550Y0122050D02*
X0177550Y0125050D01*
X0182550Y0125050D02*
X0182550Y0122050D01*
X0185050Y0122050D01*
X0182550Y0122050D02*
X0182550Y0119050D01*
D13*
X0181932Y0107019D02*
X0181932Y0103081D01*
X0182326Y0103081D02*
X0192168Y0103081D01*
X0192168Y0107019D01*
X0181932Y0107019D01*
X0179168Y0107019D02*
X0168932Y0107019D01*
X0168932Y0103081D01*
X0169326Y0103081D02*
X0179168Y0103081D01*
X0179168Y0107019D01*
X0167906Y0132800D02*
X0164904Y0132800D01*
X0166405Y0132800D02*
X0166405Y0137304D01*
X0164904Y0135803D01*
X0163303Y0136553D02*
X0163303Y0133551D01*
X0162552Y0132800D01*
X0161051Y0132800D01*
X0160300Y0133551D01*
X0160300Y0136553D01*
X0161051Y0137304D01*
X0162552Y0137304D01*
X0163303Y0136553D01*
X0161801Y0134301D02*
X0163303Y0132800D01*
X0131918Y0134581D02*
X0131918Y0138519D01*
X0121682Y0138519D01*
X0121682Y0134581D01*
X0122076Y0134581D02*
X0131918Y0134581D01*
X0131918Y0146081D02*
X0122076Y0146081D01*
X0121682Y0146081D02*
X0121682Y0150019D01*
X0131918Y0150019D01*
X0131918Y0146081D01*
X0093131Y0153163D02*
X0093131Y0157100D01*
X0082894Y0157100D01*
X0082894Y0153163D01*
X0083288Y0153163D02*
X0093131Y0153163D01*
X0080168Y0153081D02*
X0080168Y0157019D01*
X0069932Y0157019D01*
X0069932Y0153081D01*
X0070326Y0153081D02*
X0080168Y0153081D01*
X0065524Y0153081D02*
X0065524Y0157019D01*
X0055288Y0157019D01*
X0055288Y0153081D01*
X0055682Y0153081D02*
X0065524Y0153081D01*
X0065524Y0165081D02*
X0055682Y0165081D01*
X0055288Y0165081D02*
X0055288Y0169019D01*
X0065524Y0169019D01*
X0065524Y0165081D01*
X0069932Y0165081D02*
X0069932Y0169019D01*
X0080168Y0169019D01*
X0080168Y0165081D01*
X0070326Y0165081D01*
X0099925Y0179175D02*
X0267925Y0179175D01*
X0258168Y0128769D02*
X0247932Y0128769D01*
X0247932Y0124831D01*
X0248326Y0124831D02*
X0258168Y0124831D01*
X0258168Y0128769D01*
X0258168Y0117269D02*
X0247932Y0117269D01*
X0247932Y0113331D01*
X0248326Y0113331D02*
X0258168Y0113331D01*
X0258168Y0117269D01*
X0244418Y0117269D02*
X0244418Y0113331D01*
X0234576Y0113331D01*
X0234182Y0113331D02*
X0234182Y0117269D01*
X0244418Y0117269D01*
X0244418Y0124831D02*
X0234576Y0124831D01*
X0234182Y0124831D02*
X0234182Y0128769D01*
X0244418Y0128769D01*
X0244418Y0124831D01*
X0267925Y0039175D02*
X0209925Y0039175D01*
X0199175Y0039175D02*
X0137425Y0039175D01*
X0121918Y0065331D02*
X0112076Y0065331D01*
X0111682Y0065331D02*
X0111682Y0069269D01*
X0121918Y0069269D01*
X0121918Y0065331D01*
X0121918Y0079081D02*
X0112076Y0079081D01*
X0111682Y0079081D02*
X0111682Y0083019D01*
X0121918Y0083019D01*
X0121918Y0079081D01*
X0121918Y0091081D02*
X0112076Y0091081D01*
X0111682Y0091081D02*
X0111682Y0095019D01*
X0121918Y0095019D01*
X0121918Y0091081D01*
X0101918Y0091081D02*
X0101918Y0095019D01*
X0091682Y0095019D01*
X0091682Y0091081D01*
X0092076Y0091081D02*
X0101918Y0091081D01*
X0101668Y0083019D02*
X0091432Y0083019D01*
X0091432Y0079081D01*
X0091826Y0079081D02*
X0101668Y0079081D01*
X0101668Y0083019D01*
X0099925Y0071800D02*
X0093675Y0071800D01*
X0093675Y0061800D01*
X0099925Y0061800D01*
X0099925Y0071800D01*
X0082253Y0077144D02*
X0082253Y0083956D01*
X0063847Y0083956D01*
X0063847Y0077144D01*
X0082253Y0077144D01*
X0075238Y0080550D02*
X0074613Y0080550D01*
X0074394Y0078419D02*
X0071800Y0080550D01*
X0071800Y0078988D01*
X0071800Y0080550D02*
X0071800Y0082113D01*
X0071800Y0080550D02*
X0070738Y0080550D01*
X0071800Y0080550D02*
X0074394Y0082681D01*
X0074394Y0078419D01*
X0077918Y0091081D02*
X0068076Y0091081D01*
X0067682Y0091081D02*
X0067682Y0095019D01*
X0077918Y0095019D01*
X0077918Y0091081D01*
X0048739Y0092833D02*
X0048739Y0078267D01*
X0022361Y0078267D01*
X0022361Y0092833D01*
X0048739Y0092833D01*
X0031550Y0110300D02*
X0031550Y0118300D01*
X0029668Y0127831D02*
X0019826Y0127831D01*
X0019432Y0127831D02*
X0019432Y0131769D01*
X0029668Y0131769D01*
X0029668Y0127831D01*
X0031798Y0143961D02*
X0008176Y0143961D01*
X0008176Y0144158D01*
X0006995Y0142583D01*
X0008176Y0144158D02*
X0008176Y0173292D01*
X0006602Y0174867D01*
X0008176Y0173489D02*
X0031798Y0173489D01*
X0031798Y0166518D01*
X0024280Y0166518D01*
X0024280Y0150832D01*
X0031798Y0150832D01*
X0031798Y0143961D01*
X0010932Y0144158D02*
X0010932Y0173292D01*
X0031051Y0210800D02*
X0030300Y0211551D01*
X0031051Y0210800D02*
X0032552Y0210800D01*
X0033303Y0211551D01*
X0033303Y0212301D01*
X0032552Y0213052D01*
X0031051Y0213052D01*
X0030300Y0213803D01*
X0030300Y0214553D01*
X0031051Y0215304D01*
X0032552Y0215304D01*
X0033303Y0214553D01*
X0034904Y0213803D02*
X0036405Y0215304D01*
X0036405Y0210800D01*
X0034904Y0210800D02*
X0037906Y0210800D01*
X0063207Y0060373D02*
X0005727Y0060373D01*
X0005727Y0024940D01*
X0063207Y0024940D01*
X0063207Y0060373D01*
D14*
X0064400Y0084400D02*
X0065301Y0084400D01*
X0065601Y0084700D01*
X0065601Y0085901D01*
X0065301Y0086202D01*
X0064400Y0086202D01*
X0064400Y0084400D01*
X0066242Y0084400D02*
X0067443Y0084400D01*
X0066842Y0084400D02*
X0066842Y0086202D01*
X0066242Y0085601D01*
X0069782Y0095906D02*
X0069782Y0098108D01*
X0070883Y0098108D01*
X0071250Y0097741D01*
X0071250Y0097007D01*
X0070883Y0096640D01*
X0069782Y0096640D01*
X0070516Y0096640D02*
X0071250Y0095906D01*
X0071992Y0096273D02*
X0072359Y0095906D01*
X0073093Y0095906D01*
X0073460Y0096273D01*
X0073460Y0096640D01*
X0073093Y0097007D01*
X0072726Y0097007D01*
X0073093Y0097007D02*
X0073460Y0097374D01*
X0073460Y0097741D01*
X0073093Y0098108D01*
X0072359Y0098108D01*
X0071992Y0097741D01*
X0093782Y0098108D02*
X0093782Y0095906D01*
X0093782Y0096640D02*
X0094883Y0096640D01*
X0095250Y0097007D01*
X0095250Y0097741D01*
X0094883Y0098108D01*
X0093782Y0098108D01*
X0094516Y0096640D02*
X0095250Y0095906D01*
X0095992Y0097007D02*
X0097460Y0097007D01*
X0097093Y0095906D02*
X0097093Y0098108D01*
X0095992Y0097007D01*
X0095742Y0086108D02*
X0095742Y0085007D01*
X0096476Y0085374D01*
X0096843Y0085374D01*
X0097210Y0085007D01*
X0097210Y0084273D01*
X0096843Y0083906D01*
X0096109Y0083906D01*
X0095742Y0084273D01*
X0095000Y0084273D02*
X0094633Y0083906D01*
X0093899Y0083906D01*
X0093532Y0084273D01*
X0093532Y0085741D01*
X0093899Y0086108D01*
X0094633Y0086108D01*
X0095000Y0085741D01*
X0095742Y0086108D02*
X0097210Y0086108D01*
X0096517Y0074327D02*
X0095917Y0074327D01*
X0095617Y0074026D01*
X0094976Y0074327D02*
X0094976Y0073126D01*
X0094376Y0072525D01*
X0093775Y0073126D01*
X0093775Y0074327D01*
X0095617Y0072525D02*
X0096818Y0073726D01*
X0096818Y0074026D01*
X0096517Y0074327D01*
X0096818Y0072525D02*
X0095617Y0072525D01*
X0113782Y0071991D02*
X0113782Y0070523D01*
X0114149Y0070156D01*
X0114883Y0070156D01*
X0115250Y0070523D01*
X0115992Y0070523D02*
X0115992Y0070156D01*
X0115992Y0070523D02*
X0117460Y0071991D01*
X0117460Y0072358D01*
X0115992Y0072358D01*
X0115250Y0071991D02*
X0114883Y0072358D01*
X0114149Y0072358D01*
X0113782Y0071991D01*
X0114149Y0083906D02*
X0114883Y0083906D01*
X0115250Y0084273D01*
X0115992Y0083906D02*
X0117460Y0083906D01*
X0116726Y0083906D02*
X0116726Y0086108D01*
X0115992Y0085374D01*
X0115250Y0085741D02*
X0114883Y0086108D01*
X0114149Y0086108D01*
X0113782Y0085741D01*
X0113782Y0084273D01*
X0114149Y0083906D01*
X0118202Y0084273D02*
X0119670Y0085741D01*
X0119670Y0084273D01*
X0119303Y0083906D01*
X0118569Y0083906D01*
X0118202Y0084273D01*
X0118202Y0085741D01*
X0118569Y0086108D01*
X0119303Y0086108D01*
X0119670Y0085741D01*
X0117093Y0095906D02*
X0116359Y0095906D01*
X0115992Y0096273D01*
X0115992Y0097007D02*
X0116726Y0097374D01*
X0117093Y0097374D01*
X0117460Y0097007D01*
X0117460Y0096273D01*
X0117093Y0095906D01*
X0115992Y0097007D02*
X0115992Y0098108D01*
X0117460Y0098108D01*
X0115250Y0097741D02*
X0115250Y0097007D01*
X0114883Y0096640D01*
X0113782Y0096640D01*
X0114516Y0096640D02*
X0115250Y0095906D01*
X0113782Y0095906D02*
X0113782Y0098108D01*
X0114883Y0098108D01*
X0115250Y0097741D01*
X0123782Y0139406D02*
X0123782Y0141608D01*
X0124883Y0141608D01*
X0125250Y0141241D01*
X0125250Y0140507D01*
X0124883Y0140140D01*
X0123782Y0140140D01*
X0124516Y0140140D02*
X0125250Y0139406D01*
X0125992Y0139406D02*
X0127460Y0140874D01*
X0127460Y0141241D01*
X0127093Y0141608D01*
X0126359Y0141608D01*
X0125992Y0141241D01*
X0125992Y0139406D02*
X0127460Y0139406D01*
X0127093Y0150906D02*
X0126359Y0150906D01*
X0125992Y0151273D01*
X0125250Y0150906D02*
X0123782Y0150906D01*
X0124516Y0150906D02*
X0124516Y0153108D01*
X0123782Y0152374D01*
X0125992Y0152741D02*
X0126359Y0153108D01*
X0127093Y0153108D01*
X0127460Y0152741D01*
X0127460Y0152374D01*
X0127093Y0152007D01*
X0127460Y0151640D01*
X0127460Y0151273D01*
X0127093Y0150906D01*
X0127093Y0152007D02*
X0126726Y0152007D01*
X0128202Y0151640D02*
X0129303Y0151640D01*
X0129670Y0152007D01*
X0129670Y0152741D01*
X0129303Y0153108D01*
X0128202Y0153108D01*
X0128202Y0150906D01*
X0130412Y0150906D02*
X0131145Y0150906D01*
X0130779Y0150906D02*
X0130779Y0153108D01*
X0131145Y0153108D02*
X0130412Y0153108D01*
X0131885Y0153108D02*
X0133353Y0150906D01*
X0133353Y0153108D01*
X0131885Y0153108D02*
X0131885Y0150906D01*
X0088672Y0158354D02*
X0088305Y0157987D01*
X0087571Y0157987D01*
X0087204Y0158354D01*
X0087571Y0159088D02*
X0087204Y0159455D01*
X0087204Y0159822D01*
X0087571Y0160189D01*
X0088305Y0160189D01*
X0088672Y0159822D01*
X0088672Y0158354D01*
X0088672Y0159088D02*
X0087571Y0159088D01*
X0086462Y0159088D02*
X0086095Y0158721D01*
X0084994Y0158721D01*
X0084994Y0157987D02*
X0084994Y0160189D01*
X0086095Y0160189D01*
X0086462Y0159822D01*
X0086462Y0159088D01*
X0085728Y0158721D02*
X0086462Y0157987D01*
X0075710Y0158273D02*
X0075710Y0158640D01*
X0075343Y0159007D01*
X0074242Y0159007D01*
X0074242Y0158273D01*
X0074609Y0157906D01*
X0075343Y0157906D01*
X0075710Y0158273D01*
X0074976Y0159741D02*
X0075710Y0160108D01*
X0074976Y0159741D02*
X0074242Y0159007D01*
X0073500Y0159007D02*
X0073133Y0158640D01*
X0072032Y0158640D01*
X0072766Y0158640D02*
X0073500Y0157906D01*
X0073500Y0159007D02*
X0073500Y0159741D01*
X0073133Y0160108D01*
X0072032Y0160108D01*
X0072032Y0157906D01*
X0061066Y0157906D02*
X0059598Y0160108D01*
X0058856Y0160108D02*
X0057388Y0160108D01*
X0058122Y0160108D02*
X0058122Y0157906D01*
X0059598Y0157906D02*
X0061066Y0160108D01*
X0061066Y0169906D02*
X0059598Y0172108D01*
X0058856Y0171741D02*
X0058489Y0172108D01*
X0057388Y0172108D01*
X0057388Y0169906D01*
X0057388Y0170640D02*
X0058489Y0170640D01*
X0058856Y0171007D01*
X0058856Y0171741D01*
X0058122Y0170640D02*
X0058856Y0169906D01*
X0059598Y0169906D02*
X0061066Y0172108D01*
X0072032Y0172108D02*
X0072032Y0169906D01*
X0072032Y0170640D02*
X0073133Y0170640D01*
X0073500Y0171007D01*
X0073500Y0171741D01*
X0073133Y0172108D01*
X0072032Y0172108D01*
X0072766Y0170640D02*
X0073500Y0169906D01*
X0074242Y0169906D02*
X0074242Y0170273D01*
X0075710Y0171741D01*
X0075710Y0172108D01*
X0074242Y0172108D01*
X0046550Y0184050D02*
X0046550Y0185050D01*
X0037050Y0185050D01*
X0037050Y0184050D01*
X0037050Y0207050D02*
X0047050Y0207050D01*
X0047050Y0208050D01*
X0037050Y0208050D02*
X0037050Y0207050D01*
X0024843Y0134858D02*
X0024109Y0134858D01*
X0023742Y0134491D01*
X0023742Y0134124D01*
X0024109Y0133757D01*
X0025210Y0133757D01*
X0025210Y0134491D02*
X0024843Y0134858D01*
X0025210Y0134491D02*
X0025210Y0133023D01*
X0024843Y0132656D01*
X0024109Y0132656D01*
X0023742Y0133023D01*
X0023000Y0133023D02*
X0022633Y0132656D01*
X0021899Y0132656D01*
X0021532Y0133023D01*
X0021532Y0134491D01*
X0021899Y0134858D01*
X0022633Y0134858D01*
X0023000Y0134491D01*
X0021700Y0083406D02*
X0021700Y0081537D01*
X0021700Y0082471D02*
X0018898Y0082471D01*
X0019832Y0081537D01*
X0020766Y0080643D02*
X0018898Y0080643D01*
X0020766Y0080643D02*
X0021700Y0079709D01*
X0020766Y0078775D01*
X0018898Y0078775D01*
X0171032Y0108273D02*
X0171399Y0107906D01*
X0172133Y0107906D01*
X0172500Y0108273D01*
X0173242Y0108273D02*
X0173609Y0107906D01*
X0174343Y0107906D01*
X0174710Y0108273D01*
X0174710Y0108640D01*
X0174343Y0109007D01*
X0173976Y0109007D01*
X0174343Y0109007D02*
X0174710Y0109374D01*
X0174710Y0109741D01*
X0174343Y0110108D01*
X0173609Y0110108D01*
X0173242Y0109741D01*
X0172500Y0109741D02*
X0172133Y0110108D01*
X0171399Y0110108D01*
X0171032Y0109741D01*
X0171032Y0108273D01*
X0184032Y0108273D02*
X0184399Y0107906D01*
X0185133Y0107906D01*
X0185500Y0108273D01*
X0186242Y0109007D02*
X0187710Y0109007D01*
X0187343Y0110108D02*
X0186242Y0109007D01*
X0185500Y0109741D02*
X0185133Y0110108D01*
X0184399Y0110108D01*
X0184032Y0109741D01*
X0184032Y0108273D01*
X0187343Y0107906D02*
X0187343Y0110108D01*
X0236282Y0118523D02*
X0236649Y0118156D01*
X0237383Y0118156D01*
X0237750Y0118523D01*
X0238492Y0118156D02*
X0239960Y0118156D01*
X0239226Y0118156D02*
X0239226Y0120358D01*
X0238492Y0119624D01*
X0237750Y0119991D02*
X0237383Y0120358D01*
X0236649Y0120358D01*
X0236282Y0119991D01*
X0236282Y0118523D01*
X0240702Y0118156D02*
X0242170Y0118156D01*
X0241436Y0118156D02*
X0241436Y0120358D01*
X0240702Y0119624D01*
X0250032Y0120358D02*
X0250032Y0118156D01*
X0250032Y0118890D02*
X0251133Y0118890D01*
X0251500Y0119257D01*
X0251500Y0119991D01*
X0251133Y0120358D01*
X0250032Y0120358D01*
X0250766Y0118890D02*
X0251500Y0118156D01*
X0252242Y0118156D02*
X0253710Y0118156D01*
X0252976Y0118156D02*
X0252976Y0120358D01*
X0252242Y0119624D01*
X0252242Y0129656D02*
X0252242Y0131858D01*
X0253710Y0129656D01*
X0253710Y0131858D01*
X0251500Y0131491D02*
X0251500Y0130023D01*
X0251133Y0129656D01*
X0250399Y0129656D01*
X0250032Y0130023D01*
X0250032Y0131491D01*
X0250399Y0131858D01*
X0251133Y0131858D01*
X0251500Y0131491D01*
X0239960Y0131858D02*
X0239226Y0131491D01*
X0238492Y0130757D01*
X0239593Y0130757D01*
X0239960Y0130390D01*
X0239960Y0130023D01*
X0239593Y0129656D01*
X0238859Y0129656D01*
X0238492Y0130023D01*
X0238492Y0130757D01*
X0237750Y0131491D02*
X0237383Y0131858D01*
X0236649Y0131858D01*
X0236282Y0131491D01*
X0236282Y0130023D01*
X0236649Y0129656D01*
X0237383Y0129656D01*
X0237750Y0130023D01*
X0257730Y0075952D02*
X0257730Y0074117D01*
X0258097Y0073750D01*
X0258831Y0073750D01*
X0259198Y0074117D01*
X0259198Y0075952D01*
X0259940Y0075218D02*
X0260674Y0075952D01*
X0260674Y0073750D01*
X0259940Y0073750D02*
X0261408Y0073750D01*
D15*
X0272050Y0071050D02*
X0271910Y0071052D01*
X0271770Y0071058D01*
X0271630Y0071068D01*
X0271490Y0071081D01*
X0271351Y0071099D01*
X0271212Y0071121D01*
X0271075Y0071146D01*
X0270937Y0071175D01*
X0270801Y0071208D01*
X0270666Y0071245D01*
X0270532Y0071286D01*
X0270399Y0071331D01*
X0270267Y0071379D01*
X0270137Y0071431D01*
X0270008Y0071486D01*
X0269881Y0071545D01*
X0269755Y0071608D01*
X0269631Y0071674D01*
X0269510Y0071743D01*
X0269390Y0071816D01*
X0269272Y0071893D01*
X0269157Y0071972D01*
X0269043Y0072055D01*
X0268933Y0072141D01*
X0268824Y0072230D01*
X0268718Y0072322D01*
X0268615Y0072417D01*
X0268514Y0072514D01*
X0268417Y0072615D01*
X0268322Y0072718D01*
X0268230Y0072824D01*
X0268141Y0072933D01*
X0268055Y0073043D01*
X0267972Y0073157D01*
X0267893Y0073272D01*
X0267816Y0073390D01*
X0267743Y0073510D01*
X0267674Y0073631D01*
X0267608Y0073755D01*
X0267545Y0073881D01*
X0267486Y0074008D01*
X0267431Y0074137D01*
X0267379Y0074267D01*
X0267331Y0074399D01*
X0267286Y0074532D01*
X0267245Y0074666D01*
X0267208Y0074801D01*
X0267175Y0074937D01*
X0267146Y0075075D01*
X0267121Y0075212D01*
X0267099Y0075351D01*
X0267081Y0075490D01*
X0267068Y0075630D01*
X0267058Y0075770D01*
X0267052Y0075910D01*
X0267050Y0076050D01*
X0267052Y0076190D01*
X0267058Y0076330D01*
X0267068Y0076470D01*
X0267081Y0076610D01*
X0267099Y0076749D01*
X0267121Y0076888D01*
X0267146Y0077025D01*
X0267175Y0077163D01*
X0267208Y0077299D01*
X0267245Y0077434D01*
X0267286Y0077568D01*
X0267331Y0077701D01*
X0267379Y0077833D01*
X0267431Y0077963D01*
X0267486Y0078092D01*
X0267545Y0078219D01*
X0267608Y0078345D01*
X0267674Y0078469D01*
X0267743Y0078590D01*
X0267816Y0078710D01*
X0267893Y0078828D01*
X0267972Y0078943D01*
X0268055Y0079057D01*
X0268141Y0079167D01*
X0268230Y0079276D01*
X0268322Y0079382D01*
X0268417Y0079485D01*
X0268514Y0079586D01*
X0268615Y0079683D01*
X0268718Y0079778D01*
X0268824Y0079870D01*
X0268933Y0079959D01*
X0269043Y0080045D01*
X0269157Y0080128D01*
X0269272Y0080207D01*
X0269390Y0080284D01*
X0269510Y0080357D01*
X0269631Y0080426D01*
X0269755Y0080492D01*
X0269881Y0080555D01*
X0270008Y0080614D01*
X0270137Y0080669D01*
X0270267Y0080721D01*
X0270399Y0080769D01*
X0270532Y0080814D01*
X0270666Y0080855D01*
X0270801Y0080892D01*
X0270937Y0080925D01*
X0271075Y0080954D01*
X0271212Y0080979D01*
X0271351Y0081001D01*
X0271490Y0081019D01*
X0271630Y0081032D01*
X0271770Y0081042D01*
X0271910Y0081048D01*
X0272050Y0081050D01*
X0272050Y0088050D01*
X0271050Y0088050D01*
X0272050Y0071050D02*
X0272050Y0064050D01*
X0271050Y0064050D01*
X0265550Y0022550D02*
X0260550Y0022550D01*
X0258050Y0020050D01*
X0258050Y0015050D01*
X0255550Y0012550D01*
X0250550Y0012550D01*
X0248050Y0015050D01*
X0248050Y0020050D01*
X0250550Y0022550D01*
X0255550Y0022550D01*
X0258050Y0020050D01*
X0258050Y0015050D02*
X0260550Y0012550D01*
X0265550Y0012550D01*
X0268050Y0015050D01*
X0268050Y0020050D01*
X0265550Y0022550D01*
X0248050Y0020050D02*
X0245550Y0022550D01*
X0240550Y0022550D01*
X0238050Y0020050D01*
X0238050Y0015050D01*
X0235550Y0012550D01*
X0230550Y0012550D01*
X0228050Y0015050D01*
X0228050Y0020050D01*
X0230550Y0022550D01*
X0235550Y0022550D01*
X0238050Y0020050D01*
X0238050Y0015050D02*
X0240550Y0012550D01*
X0245550Y0012550D01*
X0248050Y0015050D01*
X0228050Y0015050D02*
X0225550Y0012550D01*
X0220550Y0012550D01*
X0218050Y0015050D01*
X0218050Y0020050D01*
X0220550Y0022550D01*
X0225550Y0022550D01*
X0228050Y0020050D01*
X0218050Y0020050D02*
X0215550Y0022550D01*
X0210550Y0022550D01*
X0208050Y0020050D01*
X0208050Y0015050D01*
X0210550Y0012550D01*
X0215550Y0012550D01*
X0218050Y0015050D01*
X0198050Y0015050D02*
X0195550Y0012550D01*
X0190550Y0012550D01*
X0188050Y0015050D01*
X0188050Y0020050D01*
X0190550Y0022550D01*
X0195550Y0022550D01*
X0198050Y0020050D01*
X0198050Y0015050D01*
X0188050Y0015050D02*
X0185550Y0012550D01*
X0180550Y0012550D01*
X0178050Y0015050D01*
X0178050Y0020050D01*
X0180550Y0022550D01*
X0185550Y0022550D01*
X0188050Y0020050D01*
X0178050Y0020050D02*
X0175550Y0022550D01*
X0170550Y0022550D01*
X0168050Y0020050D01*
X0168050Y0015050D01*
X0165550Y0012550D01*
X0160550Y0012550D01*
X0158050Y0015050D01*
X0158050Y0020050D01*
X0160550Y0022550D01*
X0165550Y0022550D01*
X0168050Y0020050D01*
X0168050Y0015050D02*
X0170550Y0012550D01*
X0175550Y0012550D01*
X0178050Y0015050D01*
X0158050Y0015050D02*
X0155550Y0012550D01*
X0150550Y0012550D01*
X0148050Y0015050D01*
X0148050Y0020050D01*
X0150550Y0022550D01*
X0155550Y0022550D01*
X0158050Y0020050D01*
X0148050Y0020050D02*
X0145550Y0022550D01*
X0140550Y0022550D01*
X0138050Y0020050D01*
X0138050Y0015050D01*
X0140550Y0012550D01*
X0145550Y0012550D01*
X0148050Y0015050D01*
X0133050Y0064050D02*
X0132050Y0064050D01*
X0132050Y0088050D01*
X0133050Y0088050D01*
X0078168Y0071101D02*
X0075019Y0071101D01*
X0075019Y0064999D01*
X0067932Y0064999D01*
X0075019Y0064999D02*
X0078168Y0064999D01*
X0075019Y0071101D02*
X0067932Y0071101D01*
X0038318Y0109576D02*
X0033987Y0109576D01*
X0038318Y0109576D02*
X0039893Y0111150D01*
X0039893Y0117450D01*
X0038318Y0119024D01*
X0033987Y0119024D01*
X0026113Y0119024D02*
X0020207Y0119024D01*
X0020207Y0109576D01*
X0026113Y0109576D01*
X0104550Y0203050D02*
X0109550Y0203050D01*
X0112050Y0205550D01*
X0114550Y0203050D01*
X0119550Y0203050D01*
X0122050Y0205550D01*
X0124550Y0203050D01*
X0129550Y0203050D01*
X0132050Y0205550D01*
X0134550Y0203050D01*
X0139550Y0203050D01*
X0142050Y0205550D01*
X0144550Y0203050D01*
X0149550Y0203050D01*
X0152050Y0205550D01*
X0154550Y0203050D01*
X0159550Y0203050D01*
X0162050Y0205550D01*
X0164550Y0203050D01*
X0169550Y0203050D01*
X0172050Y0205550D01*
X0174550Y0203050D01*
X0179550Y0203050D01*
X0182050Y0205550D01*
X0182050Y0210550D01*
X0179550Y0213050D01*
X0174550Y0213050D01*
X0172050Y0210550D01*
X0169550Y0213050D01*
X0164550Y0213050D01*
X0162050Y0210550D01*
X0159550Y0213050D01*
X0154550Y0213050D01*
X0152050Y0210550D01*
X0149550Y0213050D01*
X0144550Y0213050D01*
X0142050Y0210550D01*
X0139550Y0213050D01*
X0134550Y0213050D01*
X0132050Y0210550D01*
X0129550Y0213050D01*
X0124550Y0213050D01*
X0122050Y0210550D01*
X0119550Y0213050D01*
X0114550Y0213050D01*
X0112050Y0210550D01*
X0109550Y0213050D01*
X0104550Y0213050D01*
X0102050Y0210550D01*
X0102050Y0205550D01*
X0104550Y0203050D01*
X0188050Y0205550D02*
X0190550Y0203050D01*
X0195550Y0203050D01*
X0198050Y0205550D01*
X0200550Y0203050D01*
X0205550Y0203050D01*
X0208050Y0205550D01*
X0210550Y0203050D01*
X0215550Y0203050D01*
X0218050Y0205550D01*
X0220550Y0203050D01*
X0225550Y0203050D01*
X0228050Y0205550D01*
X0230550Y0203050D01*
X0235550Y0203050D01*
X0238050Y0205550D01*
X0240550Y0203050D01*
X0245550Y0203050D01*
X0248050Y0205550D01*
X0250550Y0203050D01*
X0255550Y0203050D01*
X0258050Y0205550D01*
X0260550Y0203050D01*
X0265550Y0203050D01*
X0268050Y0205550D01*
X0268050Y0210550D01*
X0265550Y0213050D01*
X0260550Y0213050D01*
X0258050Y0210550D01*
X0255550Y0213050D01*
X0250550Y0213050D01*
X0248050Y0210550D01*
X0245550Y0213050D01*
X0240550Y0213050D01*
X0238050Y0210550D01*
X0235550Y0213050D01*
X0230550Y0213050D01*
X0228050Y0210550D01*
X0225550Y0213050D01*
X0220550Y0213050D01*
X0218050Y0210550D01*
X0215550Y0213050D01*
X0210550Y0213050D01*
X0208050Y0210550D01*
X0205550Y0213050D01*
X0200550Y0213050D01*
X0198050Y0210550D01*
X0195550Y0213050D01*
X0190550Y0213050D01*
X0188050Y0210550D01*
X0188050Y0205550D01*
D16*
X0090628Y0120001D02*
X0090628Y0119751D01*
X0090377Y0119501D01*
X0090628Y0119250D01*
X0090628Y0119000D01*
X0090377Y0118750D01*
X0089877Y0118750D01*
X0089627Y0119000D01*
X0089154Y0119000D02*
X0088904Y0118750D01*
X0088404Y0118750D01*
X0088153Y0119000D01*
X0088153Y0120001D01*
X0088404Y0120251D01*
X0088904Y0120251D01*
X0089154Y0120001D01*
X0089627Y0120001D02*
X0089877Y0120251D01*
X0090377Y0120251D01*
X0090628Y0120001D01*
X0090377Y0119501D02*
X0090127Y0119501D01*
X0087672Y0120251D02*
X0087171Y0120251D01*
X0087422Y0120251D02*
X0087422Y0118750D01*
X0087672Y0118750D02*
X0087171Y0118750D01*
X0038552Y0153120D02*
X0038552Y0154121D01*
X0038302Y0154371D01*
X0037551Y0154371D01*
X0037551Y0152869D01*
X0038302Y0152869D01*
X0038552Y0153120D01*
X0037078Y0152869D02*
X0037078Y0154371D01*
X0036078Y0154371D02*
X0037078Y0152869D01*
X0036078Y0152869D02*
X0036078Y0154371D01*
X0035605Y0154121D02*
X0035355Y0154371D01*
X0034855Y0154371D01*
X0034604Y0154121D01*
X0034604Y0153120D01*
X0034855Y0152869D01*
X0035355Y0152869D01*
X0035605Y0153120D01*
X0035605Y0153620D01*
X0035105Y0153620D01*
X0035355Y0158381D02*
X0034604Y0158381D01*
X0034604Y0159883D01*
X0035355Y0159883D01*
X0035605Y0159632D01*
X0035605Y0158632D01*
X0035355Y0158381D01*
X0036078Y0159132D02*
X0037078Y0159132D01*
X0036578Y0159632D02*
X0036578Y0158632D01*
X0035355Y0160744D02*
X0034604Y0160744D01*
X0034604Y0162245D01*
X0035355Y0162245D01*
X0035605Y0161995D01*
X0035605Y0160994D01*
X0035355Y0160744D01*
X0036078Y0161494D02*
X0037078Y0161494D01*
X0036828Y0163106D02*
X0037078Y0163356D01*
X0036828Y0163106D02*
X0036328Y0163106D01*
X0036078Y0163356D01*
X0036078Y0164357D01*
X0036328Y0164607D01*
X0036828Y0164607D01*
X0037078Y0164357D01*
X0037551Y0164357D02*
X0037551Y0163356D01*
X0037801Y0163106D01*
X0038302Y0163106D01*
X0038552Y0163356D01*
X0038552Y0164357D02*
X0038302Y0164607D01*
X0037801Y0164607D01*
X0037551Y0164357D01*
X0035605Y0164607D02*
X0035605Y0163606D01*
X0035105Y0163106D01*
X0034604Y0163606D01*
X0034604Y0164607D01*
X0034600Y0134351D02*
X0034600Y0132850D01*
X0035601Y0132850D01*
X0036073Y0132850D02*
X0037074Y0132850D01*
X0036574Y0132850D02*
X0036574Y0134351D01*
X0036073Y0133851D01*
X0022574Y0121038D02*
X0022574Y0120788D01*
X0022324Y0120538D01*
X0021823Y0120538D01*
X0021573Y0120788D01*
X0021573Y0121038D01*
X0021823Y0121288D01*
X0022324Y0121288D01*
X0022574Y0121038D01*
X0022324Y0120538D02*
X0022574Y0120287D01*
X0022574Y0120037D01*
X0022324Y0119787D01*
X0021823Y0119787D01*
X0021573Y0120037D01*
X0021573Y0120287D01*
X0021823Y0120538D01*
X0021101Y0121038D02*
X0020851Y0121288D01*
X0020350Y0121288D01*
X0020100Y0121038D01*
X0020100Y0120037D01*
X0020350Y0119787D01*
X0020851Y0119787D01*
X0021101Y0120037D01*
X0073653Y0064001D02*
X0074404Y0064001D01*
X0074654Y0063751D01*
X0074654Y0062750D01*
X0074404Y0062500D01*
X0073653Y0062500D01*
X0073653Y0064001D01*
X0075127Y0063751D02*
X0075377Y0064001D01*
X0075877Y0064001D01*
X0076128Y0063751D01*
X0076128Y0063501D01*
X0075127Y0062500D01*
X0076128Y0062500D01*
D17*
X0013050Y0008050D02*
X0013050Y0218050D01*
X0267050Y0218050D01*
X0273050Y0212050D01*
X0273050Y0167050D01*
X0283050Y0157050D01*
X0283050Y0028050D01*
X0273050Y0018050D01*
X0273050Y0008050D01*
X0013050Y0008050D01*
X0061751Y0018050D02*
X0061753Y0018208D01*
X0061759Y0018366D01*
X0061769Y0018524D01*
X0061783Y0018682D01*
X0061801Y0018839D01*
X0061822Y0018996D01*
X0061848Y0019152D01*
X0061878Y0019308D01*
X0061911Y0019463D01*
X0061949Y0019616D01*
X0061990Y0019769D01*
X0062035Y0019921D01*
X0062084Y0020072D01*
X0062137Y0020221D01*
X0062193Y0020369D01*
X0062253Y0020515D01*
X0062317Y0020660D01*
X0062385Y0020803D01*
X0062456Y0020945D01*
X0062530Y0021085D01*
X0062608Y0021222D01*
X0062690Y0021358D01*
X0062774Y0021492D01*
X0062863Y0021623D01*
X0062954Y0021752D01*
X0063049Y0021879D01*
X0063146Y0022004D01*
X0063247Y0022126D01*
X0063351Y0022245D01*
X0063458Y0022362D01*
X0063568Y0022476D01*
X0063681Y0022587D01*
X0063796Y0022696D01*
X0063914Y0022801D01*
X0064035Y0022903D01*
X0064158Y0023003D01*
X0064284Y0023099D01*
X0064412Y0023192D01*
X0064542Y0023282D01*
X0064675Y0023368D01*
X0064810Y0023452D01*
X0064946Y0023531D01*
X0065085Y0023608D01*
X0065226Y0023680D01*
X0065368Y0023750D01*
X0065512Y0023815D01*
X0065658Y0023877D01*
X0065805Y0023935D01*
X0065954Y0023990D01*
X0066104Y0024041D01*
X0066255Y0024088D01*
X0066407Y0024131D01*
X0066560Y0024170D01*
X0066715Y0024206D01*
X0066870Y0024237D01*
X0067026Y0024265D01*
X0067182Y0024289D01*
X0067339Y0024309D01*
X0067497Y0024325D01*
X0067654Y0024337D01*
X0067813Y0024345D01*
X0067971Y0024349D01*
X0068129Y0024349D01*
X0068287Y0024345D01*
X0068446Y0024337D01*
X0068603Y0024325D01*
X0068761Y0024309D01*
X0068918Y0024289D01*
X0069074Y0024265D01*
X0069230Y0024237D01*
X0069385Y0024206D01*
X0069540Y0024170D01*
X0069693Y0024131D01*
X0069845Y0024088D01*
X0069996Y0024041D01*
X0070146Y0023990D01*
X0070295Y0023935D01*
X0070442Y0023877D01*
X0070588Y0023815D01*
X0070732Y0023750D01*
X0070874Y0023680D01*
X0071015Y0023608D01*
X0071154Y0023531D01*
X0071290Y0023452D01*
X0071425Y0023368D01*
X0071558Y0023282D01*
X0071688Y0023192D01*
X0071816Y0023099D01*
X0071942Y0023003D01*
X0072065Y0022903D01*
X0072186Y0022801D01*
X0072304Y0022696D01*
X0072419Y0022587D01*
X0072532Y0022476D01*
X0072642Y0022362D01*
X0072749Y0022245D01*
X0072853Y0022126D01*
X0072954Y0022004D01*
X0073051Y0021879D01*
X0073146Y0021752D01*
X0073237Y0021623D01*
X0073326Y0021492D01*
X0073410Y0021358D01*
X0073492Y0021222D01*
X0073570Y0021085D01*
X0073644Y0020945D01*
X0073715Y0020803D01*
X0073783Y0020660D01*
X0073847Y0020515D01*
X0073907Y0020369D01*
X0073963Y0020221D01*
X0074016Y0020072D01*
X0074065Y0019921D01*
X0074110Y0019769D01*
X0074151Y0019616D01*
X0074189Y0019463D01*
X0074222Y0019308D01*
X0074252Y0019152D01*
X0074278Y0018996D01*
X0074299Y0018839D01*
X0074317Y0018682D01*
X0074331Y0018524D01*
X0074341Y0018366D01*
X0074347Y0018208D01*
X0074349Y0018050D01*
X0074347Y0017892D01*
X0074341Y0017734D01*
X0074331Y0017576D01*
X0074317Y0017418D01*
X0074299Y0017261D01*
X0074278Y0017104D01*
X0074252Y0016948D01*
X0074222Y0016792D01*
X0074189Y0016637D01*
X0074151Y0016484D01*
X0074110Y0016331D01*
X0074065Y0016179D01*
X0074016Y0016028D01*
X0073963Y0015879D01*
X0073907Y0015731D01*
X0073847Y0015585D01*
X0073783Y0015440D01*
X0073715Y0015297D01*
X0073644Y0015155D01*
X0073570Y0015015D01*
X0073492Y0014878D01*
X0073410Y0014742D01*
X0073326Y0014608D01*
X0073237Y0014477D01*
X0073146Y0014348D01*
X0073051Y0014221D01*
X0072954Y0014096D01*
X0072853Y0013974D01*
X0072749Y0013855D01*
X0072642Y0013738D01*
X0072532Y0013624D01*
X0072419Y0013513D01*
X0072304Y0013404D01*
X0072186Y0013299D01*
X0072065Y0013197D01*
X0071942Y0013097D01*
X0071816Y0013001D01*
X0071688Y0012908D01*
X0071558Y0012818D01*
X0071425Y0012732D01*
X0071290Y0012648D01*
X0071154Y0012569D01*
X0071015Y0012492D01*
X0070874Y0012420D01*
X0070732Y0012350D01*
X0070588Y0012285D01*
X0070442Y0012223D01*
X0070295Y0012165D01*
X0070146Y0012110D01*
X0069996Y0012059D01*
X0069845Y0012012D01*
X0069693Y0011969D01*
X0069540Y0011930D01*
X0069385Y0011894D01*
X0069230Y0011863D01*
X0069074Y0011835D01*
X0068918Y0011811D01*
X0068761Y0011791D01*
X0068603Y0011775D01*
X0068446Y0011763D01*
X0068287Y0011755D01*
X0068129Y0011751D01*
X0067971Y0011751D01*
X0067813Y0011755D01*
X0067654Y0011763D01*
X0067497Y0011775D01*
X0067339Y0011791D01*
X0067182Y0011811D01*
X0067026Y0011835D01*
X0066870Y0011863D01*
X0066715Y0011894D01*
X0066560Y0011930D01*
X0066407Y0011969D01*
X0066255Y0012012D01*
X0066104Y0012059D01*
X0065954Y0012110D01*
X0065805Y0012165D01*
X0065658Y0012223D01*
X0065512Y0012285D01*
X0065368Y0012350D01*
X0065226Y0012420D01*
X0065085Y0012492D01*
X0064946Y0012569D01*
X0064810Y0012648D01*
X0064675Y0012732D01*
X0064542Y0012818D01*
X0064412Y0012908D01*
X0064284Y0013001D01*
X0064158Y0013097D01*
X0064035Y0013197D01*
X0063914Y0013299D01*
X0063796Y0013404D01*
X0063681Y0013513D01*
X0063568Y0013624D01*
X0063458Y0013738D01*
X0063351Y0013855D01*
X0063247Y0013974D01*
X0063146Y0014096D01*
X0063049Y0014221D01*
X0062954Y0014348D01*
X0062863Y0014477D01*
X0062774Y0014608D01*
X0062690Y0014742D01*
X0062608Y0014878D01*
X0062530Y0015015D01*
X0062456Y0015155D01*
X0062385Y0015297D01*
X0062317Y0015440D01*
X0062253Y0015585D01*
X0062193Y0015731D01*
X0062137Y0015879D01*
X0062084Y0016028D01*
X0062035Y0016179D01*
X0061990Y0016331D01*
X0061949Y0016484D01*
X0061911Y0016637D01*
X0061878Y0016792D01*
X0061848Y0016948D01*
X0061822Y0017104D01*
X0061801Y0017261D01*
X0061783Y0017418D01*
X0061769Y0017576D01*
X0061759Y0017734D01*
X0061753Y0017892D01*
X0061751Y0018050D01*
X0017035Y0144552D02*
X0017037Y0144653D01*
X0017043Y0144754D01*
X0017053Y0144855D01*
X0017067Y0144955D01*
X0017085Y0145054D01*
X0017107Y0145153D01*
X0017132Y0145251D01*
X0017162Y0145348D01*
X0017195Y0145443D01*
X0017232Y0145537D01*
X0017273Y0145630D01*
X0017317Y0145721D01*
X0017365Y0145810D01*
X0017417Y0145897D01*
X0017472Y0145982D01*
X0017530Y0146064D01*
X0017591Y0146145D01*
X0017656Y0146223D01*
X0017723Y0146298D01*
X0017793Y0146370D01*
X0017867Y0146440D01*
X0017943Y0146507D01*
X0018021Y0146571D01*
X0018102Y0146631D01*
X0018185Y0146688D01*
X0018271Y0146742D01*
X0018359Y0146793D01*
X0018448Y0146840D01*
X0018539Y0146884D01*
X0018632Y0146923D01*
X0018727Y0146960D01*
X0018822Y0146992D01*
X0018919Y0147021D01*
X0019018Y0147045D01*
X0019116Y0147066D01*
X0019216Y0147083D01*
X0019316Y0147096D01*
X0019417Y0147105D01*
X0019518Y0147110D01*
X0019619Y0147111D01*
X0019720Y0147108D01*
X0019821Y0147101D01*
X0019922Y0147090D01*
X0020022Y0147075D01*
X0020121Y0147056D01*
X0020220Y0147033D01*
X0020317Y0147007D01*
X0020414Y0146976D01*
X0020509Y0146942D01*
X0020602Y0146904D01*
X0020695Y0146862D01*
X0020785Y0146817D01*
X0020874Y0146768D01*
X0020960Y0146716D01*
X0021044Y0146660D01*
X0021127Y0146601D01*
X0021206Y0146539D01*
X0021284Y0146474D01*
X0021358Y0146406D01*
X0021430Y0146334D01*
X0021499Y0146261D01*
X0021565Y0146184D01*
X0021628Y0146105D01*
X0021688Y0146023D01*
X0021744Y0145939D01*
X0021797Y0145853D01*
X0021847Y0145765D01*
X0021893Y0145675D01*
X0021936Y0145584D01*
X0021975Y0145490D01*
X0022010Y0145395D01*
X0022041Y0145299D01*
X0022069Y0145202D01*
X0022093Y0145104D01*
X0022113Y0145005D01*
X0022129Y0144905D01*
X0022141Y0144804D01*
X0022149Y0144704D01*
X0022153Y0144603D01*
X0022153Y0144501D01*
X0022149Y0144400D01*
X0022141Y0144300D01*
X0022129Y0144199D01*
X0022113Y0144099D01*
X0022093Y0144000D01*
X0022069Y0143902D01*
X0022041Y0143805D01*
X0022010Y0143709D01*
X0021975Y0143614D01*
X0021936Y0143520D01*
X0021893Y0143429D01*
X0021847Y0143339D01*
X0021797Y0143251D01*
X0021744Y0143165D01*
X0021688Y0143081D01*
X0021628Y0142999D01*
X0021565Y0142920D01*
X0021499Y0142843D01*
X0021430Y0142770D01*
X0021358Y0142698D01*
X0021284Y0142630D01*
X0021206Y0142565D01*
X0021127Y0142503D01*
X0021044Y0142444D01*
X0020960Y0142388D01*
X0020873Y0142336D01*
X0020785Y0142287D01*
X0020695Y0142242D01*
X0020602Y0142200D01*
X0020509Y0142162D01*
X0020414Y0142128D01*
X0020317Y0142097D01*
X0020220Y0142071D01*
X0020121Y0142048D01*
X0020022Y0142029D01*
X0019922Y0142014D01*
X0019821Y0142003D01*
X0019720Y0141996D01*
X0019619Y0141993D01*
X0019518Y0141994D01*
X0019417Y0141999D01*
X0019316Y0142008D01*
X0019216Y0142021D01*
X0019116Y0142038D01*
X0019018Y0142059D01*
X0018919Y0142083D01*
X0018822Y0142112D01*
X0018727Y0142144D01*
X0018632Y0142181D01*
X0018539Y0142220D01*
X0018448Y0142264D01*
X0018359Y0142311D01*
X0018271Y0142362D01*
X0018185Y0142416D01*
X0018102Y0142473D01*
X0018021Y0142533D01*
X0017943Y0142597D01*
X0017867Y0142664D01*
X0017793Y0142734D01*
X0017723Y0142806D01*
X0017656Y0142881D01*
X0017591Y0142959D01*
X0017530Y0143040D01*
X0017472Y0143122D01*
X0017417Y0143207D01*
X0017365Y0143294D01*
X0017317Y0143383D01*
X0017273Y0143474D01*
X0017232Y0143567D01*
X0017195Y0143661D01*
X0017162Y0143756D01*
X0017132Y0143853D01*
X0017107Y0143951D01*
X0017085Y0144050D01*
X0017067Y0144149D01*
X0017053Y0144249D01*
X0017043Y0144350D01*
X0017037Y0144451D01*
X0017035Y0144552D01*
X0029633Y0148882D02*
X0029635Y0148966D01*
X0029641Y0149049D01*
X0029651Y0149132D01*
X0029665Y0149215D01*
X0029682Y0149297D01*
X0029704Y0149378D01*
X0029729Y0149457D01*
X0029758Y0149536D01*
X0029791Y0149613D01*
X0029827Y0149688D01*
X0029867Y0149762D01*
X0029910Y0149834D01*
X0029957Y0149903D01*
X0030007Y0149970D01*
X0030060Y0150035D01*
X0030116Y0150097D01*
X0030174Y0150157D01*
X0030236Y0150214D01*
X0030300Y0150267D01*
X0030367Y0150318D01*
X0030436Y0150365D01*
X0030507Y0150410D01*
X0030580Y0150450D01*
X0030655Y0150487D01*
X0030732Y0150521D01*
X0030810Y0150551D01*
X0030889Y0150577D01*
X0030970Y0150600D01*
X0031052Y0150618D01*
X0031134Y0150633D01*
X0031217Y0150644D01*
X0031300Y0150651D01*
X0031384Y0150654D01*
X0031468Y0150653D01*
X0031551Y0150648D01*
X0031635Y0150639D01*
X0031717Y0150626D01*
X0031799Y0150610D01*
X0031880Y0150589D01*
X0031961Y0150565D01*
X0032039Y0150537D01*
X0032117Y0150505D01*
X0032193Y0150469D01*
X0032267Y0150430D01*
X0032339Y0150388D01*
X0032409Y0150342D01*
X0032477Y0150293D01*
X0032542Y0150241D01*
X0032605Y0150186D01*
X0032665Y0150128D01*
X0032723Y0150067D01*
X0032777Y0150003D01*
X0032829Y0149937D01*
X0032877Y0149869D01*
X0032922Y0149798D01*
X0032963Y0149725D01*
X0033002Y0149651D01*
X0033036Y0149575D01*
X0033067Y0149497D01*
X0033094Y0149418D01*
X0033118Y0149337D01*
X0033137Y0149256D01*
X0033153Y0149174D01*
X0033165Y0149091D01*
X0033173Y0149007D01*
X0033177Y0148924D01*
X0033177Y0148840D01*
X0033173Y0148757D01*
X0033165Y0148673D01*
X0033153Y0148590D01*
X0033137Y0148508D01*
X0033118Y0148427D01*
X0033094Y0148346D01*
X0033067Y0148267D01*
X0033036Y0148189D01*
X0033002Y0148113D01*
X0032963Y0148039D01*
X0032922Y0147966D01*
X0032877Y0147895D01*
X0032829Y0147827D01*
X0032777Y0147761D01*
X0032723Y0147697D01*
X0032665Y0147636D01*
X0032605Y0147578D01*
X0032542Y0147523D01*
X0032477Y0147471D01*
X0032409Y0147422D01*
X0032339Y0147376D01*
X0032267Y0147334D01*
X0032193Y0147295D01*
X0032117Y0147259D01*
X0032039Y0147227D01*
X0031961Y0147199D01*
X0031880Y0147175D01*
X0031799Y0147154D01*
X0031717Y0147138D01*
X0031635Y0147125D01*
X0031551Y0147116D01*
X0031468Y0147111D01*
X0031384Y0147110D01*
X0031300Y0147113D01*
X0031217Y0147120D01*
X0031134Y0147131D01*
X0031052Y0147146D01*
X0030970Y0147164D01*
X0030889Y0147187D01*
X0030810Y0147213D01*
X0030732Y0147243D01*
X0030655Y0147277D01*
X0030580Y0147314D01*
X0030507Y0147354D01*
X0030436Y0147399D01*
X0030367Y0147446D01*
X0030300Y0147497D01*
X0030236Y0147550D01*
X0030174Y0147607D01*
X0030116Y0147667D01*
X0030060Y0147729D01*
X0030007Y0147794D01*
X0029957Y0147861D01*
X0029910Y0147930D01*
X0029867Y0148002D01*
X0029827Y0148076D01*
X0029791Y0148151D01*
X0029758Y0148228D01*
X0029729Y0148307D01*
X0029704Y0148386D01*
X0029682Y0148467D01*
X0029665Y0148549D01*
X0029651Y0148632D01*
X0029641Y0148715D01*
X0029635Y0148798D01*
X0029633Y0148882D01*
X0029633Y0168568D02*
X0029635Y0168652D01*
X0029641Y0168735D01*
X0029651Y0168818D01*
X0029665Y0168901D01*
X0029682Y0168983D01*
X0029704Y0169064D01*
X0029729Y0169143D01*
X0029758Y0169222D01*
X0029791Y0169299D01*
X0029827Y0169374D01*
X0029867Y0169448D01*
X0029910Y0169520D01*
X0029957Y0169589D01*
X0030007Y0169656D01*
X0030060Y0169721D01*
X0030116Y0169783D01*
X0030174Y0169843D01*
X0030236Y0169900D01*
X0030300Y0169953D01*
X0030367Y0170004D01*
X0030436Y0170051D01*
X0030507Y0170096D01*
X0030580Y0170136D01*
X0030655Y0170173D01*
X0030732Y0170207D01*
X0030810Y0170237D01*
X0030889Y0170263D01*
X0030970Y0170286D01*
X0031052Y0170304D01*
X0031134Y0170319D01*
X0031217Y0170330D01*
X0031300Y0170337D01*
X0031384Y0170340D01*
X0031468Y0170339D01*
X0031551Y0170334D01*
X0031635Y0170325D01*
X0031717Y0170312D01*
X0031799Y0170296D01*
X0031880Y0170275D01*
X0031961Y0170251D01*
X0032039Y0170223D01*
X0032117Y0170191D01*
X0032193Y0170155D01*
X0032267Y0170116D01*
X0032339Y0170074D01*
X0032409Y0170028D01*
X0032477Y0169979D01*
X0032542Y0169927D01*
X0032605Y0169872D01*
X0032665Y0169814D01*
X0032723Y0169753D01*
X0032777Y0169689D01*
X0032829Y0169623D01*
X0032877Y0169555D01*
X0032922Y0169484D01*
X0032963Y0169411D01*
X0033002Y0169337D01*
X0033036Y0169261D01*
X0033067Y0169183D01*
X0033094Y0169104D01*
X0033118Y0169023D01*
X0033137Y0168942D01*
X0033153Y0168860D01*
X0033165Y0168777D01*
X0033173Y0168693D01*
X0033177Y0168610D01*
X0033177Y0168526D01*
X0033173Y0168443D01*
X0033165Y0168359D01*
X0033153Y0168276D01*
X0033137Y0168194D01*
X0033118Y0168113D01*
X0033094Y0168032D01*
X0033067Y0167953D01*
X0033036Y0167875D01*
X0033002Y0167799D01*
X0032963Y0167725D01*
X0032922Y0167652D01*
X0032877Y0167581D01*
X0032829Y0167513D01*
X0032777Y0167447D01*
X0032723Y0167383D01*
X0032665Y0167322D01*
X0032605Y0167264D01*
X0032542Y0167209D01*
X0032477Y0167157D01*
X0032409Y0167108D01*
X0032339Y0167062D01*
X0032267Y0167020D01*
X0032193Y0166981D01*
X0032117Y0166945D01*
X0032039Y0166913D01*
X0031961Y0166885D01*
X0031880Y0166861D01*
X0031799Y0166840D01*
X0031717Y0166824D01*
X0031635Y0166811D01*
X0031551Y0166802D01*
X0031468Y0166797D01*
X0031384Y0166796D01*
X0031300Y0166799D01*
X0031217Y0166806D01*
X0031134Y0166817D01*
X0031052Y0166832D01*
X0030970Y0166850D01*
X0030889Y0166873D01*
X0030810Y0166899D01*
X0030732Y0166929D01*
X0030655Y0166963D01*
X0030580Y0167000D01*
X0030507Y0167040D01*
X0030436Y0167085D01*
X0030367Y0167132D01*
X0030300Y0167183D01*
X0030236Y0167236D01*
X0030174Y0167293D01*
X0030116Y0167353D01*
X0030060Y0167415D01*
X0030007Y0167480D01*
X0029957Y0167547D01*
X0029910Y0167616D01*
X0029867Y0167688D01*
X0029827Y0167762D01*
X0029791Y0167837D01*
X0029758Y0167914D01*
X0029729Y0167993D01*
X0029704Y0168072D01*
X0029682Y0168153D01*
X0029665Y0168235D01*
X0029651Y0168318D01*
X0029641Y0168401D01*
X0029635Y0168484D01*
X0029633Y0168568D01*
X0017035Y0172898D02*
X0017037Y0172999D01*
X0017043Y0173100D01*
X0017053Y0173201D01*
X0017067Y0173301D01*
X0017085Y0173400D01*
X0017107Y0173499D01*
X0017132Y0173597D01*
X0017162Y0173694D01*
X0017195Y0173789D01*
X0017232Y0173883D01*
X0017273Y0173976D01*
X0017317Y0174067D01*
X0017365Y0174156D01*
X0017417Y0174243D01*
X0017472Y0174328D01*
X0017530Y0174410D01*
X0017591Y0174491D01*
X0017656Y0174569D01*
X0017723Y0174644D01*
X0017793Y0174716D01*
X0017867Y0174786D01*
X0017943Y0174853D01*
X0018021Y0174917D01*
X0018102Y0174977D01*
X0018185Y0175034D01*
X0018271Y0175088D01*
X0018359Y0175139D01*
X0018448Y0175186D01*
X0018539Y0175230D01*
X0018632Y0175269D01*
X0018727Y0175306D01*
X0018822Y0175338D01*
X0018919Y0175367D01*
X0019018Y0175391D01*
X0019116Y0175412D01*
X0019216Y0175429D01*
X0019316Y0175442D01*
X0019417Y0175451D01*
X0019518Y0175456D01*
X0019619Y0175457D01*
X0019720Y0175454D01*
X0019821Y0175447D01*
X0019922Y0175436D01*
X0020022Y0175421D01*
X0020121Y0175402D01*
X0020220Y0175379D01*
X0020317Y0175353D01*
X0020414Y0175322D01*
X0020509Y0175288D01*
X0020602Y0175250D01*
X0020695Y0175208D01*
X0020785Y0175163D01*
X0020874Y0175114D01*
X0020960Y0175062D01*
X0021044Y0175006D01*
X0021127Y0174947D01*
X0021206Y0174885D01*
X0021284Y0174820D01*
X0021358Y0174752D01*
X0021430Y0174680D01*
X0021499Y0174607D01*
X0021565Y0174530D01*
X0021628Y0174451D01*
X0021688Y0174369D01*
X0021744Y0174285D01*
X0021797Y0174199D01*
X0021847Y0174111D01*
X0021893Y0174021D01*
X0021936Y0173930D01*
X0021975Y0173836D01*
X0022010Y0173741D01*
X0022041Y0173645D01*
X0022069Y0173548D01*
X0022093Y0173450D01*
X0022113Y0173351D01*
X0022129Y0173251D01*
X0022141Y0173150D01*
X0022149Y0173050D01*
X0022153Y0172949D01*
X0022153Y0172847D01*
X0022149Y0172746D01*
X0022141Y0172646D01*
X0022129Y0172545D01*
X0022113Y0172445D01*
X0022093Y0172346D01*
X0022069Y0172248D01*
X0022041Y0172151D01*
X0022010Y0172055D01*
X0021975Y0171960D01*
X0021936Y0171866D01*
X0021893Y0171775D01*
X0021847Y0171685D01*
X0021797Y0171597D01*
X0021744Y0171511D01*
X0021688Y0171427D01*
X0021628Y0171345D01*
X0021565Y0171266D01*
X0021499Y0171189D01*
X0021430Y0171116D01*
X0021358Y0171044D01*
X0021284Y0170976D01*
X0021206Y0170911D01*
X0021127Y0170849D01*
X0021044Y0170790D01*
X0020960Y0170734D01*
X0020873Y0170682D01*
X0020785Y0170633D01*
X0020695Y0170588D01*
X0020602Y0170546D01*
X0020509Y0170508D01*
X0020414Y0170474D01*
X0020317Y0170443D01*
X0020220Y0170417D01*
X0020121Y0170394D01*
X0020022Y0170375D01*
X0019922Y0170360D01*
X0019821Y0170349D01*
X0019720Y0170342D01*
X0019619Y0170339D01*
X0019518Y0170340D01*
X0019417Y0170345D01*
X0019316Y0170354D01*
X0019216Y0170367D01*
X0019116Y0170384D01*
X0019018Y0170405D01*
X0018919Y0170429D01*
X0018822Y0170458D01*
X0018727Y0170490D01*
X0018632Y0170527D01*
X0018539Y0170566D01*
X0018448Y0170610D01*
X0018359Y0170657D01*
X0018271Y0170708D01*
X0018185Y0170762D01*
X0018102Y0170819D01*
X0018021Y0170879D01*
X0017943Y0170943D01*
X0017867Y0171010D01*
X0017793Y0171080D01*
X0017723Y0171152D01*
X0017656Y0171227D01*
X0017591Y0171305D01*
X0017530Y0171386D01*
X0017472Y0171468D01*
X0017417Y0171553D01*
X0017365Y0171640D01*
X0017317Y0171729D01*
X0017273Y0171820D01*
X0017232Y0171913D01*
X0017195Y0172007D01*
X0017162Y0172102D01*
X0017132Y0172199D01*
X0017107Y0172297D01*
X0017085Y0172396D01*
X0017067Y0172495D01*
X0017053Y0172595D01*
X0017043Y0172696D01*
X0017037Y0172797D01*
X0017035Y0172898D01*
X0066751Y0208050D02*
X0066753Y0208208D01*
X0066759Y0208366D01*
X0066769Y0208524D01*
X0066783Y0208682D01*
X0066801Y0208839D01*
X0066822Y0208996D01*
X0066848Y0209152D01*
X0066878Y0209308D01*
X0066911Y0209463D01*
X0066949Y0209616D01*
X0066990Y0209769D01*
X0067035Y0209921D01*
X0067084Y0210072D01*
X0067137Y0210221D01*
X0067193Y0210369D01*
X0067253Y0210515D01*
X0067317Y0210660D01*
X0067385Y0210803D01*
X0067456Y0210945D01*
X0067530Y0211085D01*
X0067608Y0211222D01*
X0067690Y0211358D01*
X0067774Y0211492D01*
X0067863Y0211623D01*
X0067954Y0211752D01*
X0068049Y0211879D01*
X0068146Y0212004D01*
X0068247Y0212126D01*
X0068351Y0212245D01*
X0068458Y0212362D01*
X0068568Y0212476D01*
X0068681Y0212587D01*
X0068796Y0212696D01*
X0068914Y0212801D01*
X0069035Y0212903D01*
X0069158Y0213003D01*
X0069284Y0213099D01*
X0069412Y0213192D01*
X0069542Y0213282D01*
X0069675Y0213368D01*
X0069810Y0213452D01*
X0069946Y0213531D01*
X0070085Y0213608D01*
X0070226Y0213680D01*
X0070368Y0213750D01*
X0070512Y0213815D01*
X0070658Y0213877D01*
X0070805Y0213935D01*
X0070954Y0213990D01*
X0071104Y0214041D01*
X0071255Y0214088D01*
X0071407Y0214131D01*
X0071560Y0214170D01*
X0071715Y0214206D01*
X0071870Y0214237D01*
X0072026Y0214265D01*
X0072182Y0214289D01*
X0072339Y0214309D01*
X0072497Y0214325D01*
X0072654Y0214337D01*
X0072813Y0214345D01*
X0072971Y0214349D01*
X0073129Y0214349D01*
X0073287Y0214345D01*
X0073446Y0214337D01*
X0073603Y0214325D01*
X0073761Y0214309D01*
X0073918Y0214289D01*
X0074074Y0214265D01*
X0074230Y0214237D01*
X0074385Y0214206D01*
X0074540Y0214170D01*
X0074693Y0214131D01*
X0074845Y0214088D01*
X0074996Y0214041D01*
X0075146Y0213990D01*
X0075295Y0213935D01*
X0075442Y0213877D01*
X0075588Y0213815D01*
X0075732Y0213750D01*
X0075874Y0213680D01*
X0076015Y0213608D01*
X0076154Y0213531D01*
X0076290Y0213452D01*
X0076425Y0213368D01*
X0076558Y0213282D01*
X0076688Y0213192D01*
X0076816Y0213099D01*
X0076942Y0213003D01*
X0077065Y0212903D01*
X0077186Y0212801D01*
X0077304Y0212696D01*
X0077419Y0212587D01*
X0077532Y0212476D01*
X0077642Y0212362D01*
X0077749Y0212245D01*
X0077853Y0212126D01*
X0077954Y0212004D01*
X0078051Y0211879D01*
X0078146Y0211752D01*
X0078237Y0211623D01*
X0078326Y0211492D01*
X0078410Y0211358D01*
X0078492Y0211222D01*
X0078570Y0211085D01*
X0078644Y0210945D01*
X0078715Y0210803D01*
X0078783Y0210660D01*
X0078847Y0210515D01*
X0078907Y0210369D01*
X0078963Y0210221D01*
X0079016Y0210072D01*
X0079065Y0209921D01*
X0079110Y0209769D01*
X0079151Y0209616D01*
X0079189Y0209463D01*
X0079222Y0209308D01*
X0079252Y0209152D01*
X0079278Y0208996D01*
X0079299Y0208839D01*
X0079317Y0208682D01*
X0079331Y0208524D01*
X0079341Y0208366D01*
X0079347Y0208208D01*
X0079349Y0208050D01*
X0079347Y0207892D01*
X0079341Y0207734D01*
X0079331Y0207576D01*
X0079317Y0207418D01*
X0079299Y0207261D01*
X0079278Y0207104D01*
X0079252Y0206948D01*
X0079222Y0206792D01*
X0079189Y0206637D01*
X0079151Y0206484D01*
X0079110Y0206331D01*
X0079065Y0206179D01*
X0079016Y0206028D01*
X0078963Y0205879D01*
X0078907Y0205731D01*
X0078847Y0205585D01*
X0078783Y0205440D01*
X0078715Y0205297D01*
X0078644Y0205155D01*
X0078570Y0205015D01*
X0078492Y0204878D01*
X0078410Y0204742D01*
X0078326Y0204608D01*
X0078237Y0204477D01*
X0078146Y0204348D01*
X0078051Y0204221D01*
X0077954Y0204096D01*
X0077853Y0203974D01*
X0077749Y0203855D01*
X0077642Y0203738D01*
X0077532Y0203624D01*
X0077419Y0203513D01*
X0077304Y0203404D01*
X0077186Y0203299D01*
X0077065Y0203197D01*
X0076942Y0203097D01*
X0076816Y0203001D01*
X0076688Y0202908D01*
X0076558Y0202818D01*
X0076425Y0202732D01*
X0076290Y0202648D01*
X0076154Y0202569D01*
X0076015Y0202492D01*
X0075874Y0202420D01*
X0075732Y0202350D01*
X0075588Y0202285D01*
X0075442Y0202223D01*
X0075295Y0202165D01*
X0075146Y0202110D01*
X0074996Y0202059D01*
X0074845Y0202012D01*
X0074693Y0201969D01*
X0074540Y0201930D01*
X0074385Y0201894D01*
X0074230Y0201863D01*
X0074074Y0201835D01*
X0073918Y0201811D01*
X0073761Y0201791D01*
X0073603Y0201775D01*
X0073446Y0201763D01*
X0073287Y0201755D01*
X0073129Y0201751D01*
X0072971Y0201751D01*
X0072813Y0201755D01*
X0072654Y0201763D01*
X0072497Y0201775D01*
X0072339Y0201791D01*
X0072182Y0201811D01*
X0072026Y0201835D01*
X0071870Y0201863D01*
X0071715Y0201894D01*
X0071560Y0201930D01*
X0071407Y0201969D01*
X0071255Y0202012D01*
X0071104Y0202059D01*
X0070954Y0202110D01*
X0070805Y0202165D01*
X0070658Y0202223D01*
X0070512Y0202285D01*
X0070368Y0202350D01*
X0070226Y0202420D01*
X0070085Y0202492D01*
X0069946Y0202569D01*
X0069810Y0202648D01*
X0069675Y0202732D01*
X0069542Y0202818D01*
X0069412Y0202908D01*
X0069284Y0203001D01*
X0069158Y0203097D01*
X0069035Y0203197D01*
X0068914Y0203299D01*
X0068796Y0203404D01*
X0068681Y0203513D01*
X0068568Y0203624D01*
X0068458Y0203738D01*
X0068351Y0203855D01*
X0068247Y0203974D01*
X0068146Y0204096D01*
X0068049Y0204221D01*
X0067954Y0204348D01*
X0067863Y0204477D01*
X0067774Y0204608D01*
X0067690Y0204742D01*
X0067608Y0204878D01*
X0067530Y0205015D01*
X0067456Y0205155D01*
X0067385Y0205297D01*
X0067317Y0205440D01*
X0067253Y0205585D01*
X0067193Y0205731D01*
X0067137Y0205879D01*
X0067084Y0206028D01*
X0067035Y0206179D01*
X0066990Y0206331D01*
X0066949Y0206484D01*
X0066911Y0206637D01*
X0066878Y0206792D01*
X0066848Y0206948D01*
X0066822Y0207104D01*
X0066801Y0207261D01*
X0066783Y0207418D01*
X0066769Y0207576D01*
X0066759Y0207734D01*
X0066753Y0207892D01*
X0066751Y0208050D01*
X0266751Y0148050D02*
X0266753Y0148208D01*
X0266759Y0148366D01*
X0266769Y0148524D01*
X0266783Y0148682D01*
X0266801Y0148839D01*
X0266822Y0148996D01*
X0266848Y0149152D01*
X0266878Y0149308D01*
X0266911Y0149463D01*
X0266949Y0149616D01*
X0266990Y0149769D01*
X0267035Y0149921D01*
X0267084Y0150072D01*
X0267137Y0150221D01*
X0267193Y0150369D01*
X0267253Y0150515D01*
X0267317Y0150660D01*
X0267385Y0150803D01*
X0267456Y0150945D01*
X0267530Y0151085D01*
X0267608Y0151222D01*
X0267690Y0151358D01*
X0267774Y0151492D01*
X0267863Y0151623D01*
X0267954Y0151752D01*
X0268049Y0151879D01*
X0268146Y0152004D01*
X0268247Y0152126D01*
X0268351Y0152245D01*
X0268458Y0152362D01*
X0268568Y0152476D01*
X0268681Y0152587D01*
X0268796Y0152696D01*
X0268914Y0152801D01*
X0269035Y0152903D01*
X0269158Y0153003D01*
X0269284Y0153099D01*
X0269412Y0153192D01*
X0269542Y0153282D01*
X0269675Y0153368D01*
X0269810Y0153452D01*
X0269946Y0153531D01*
X0270085Y0153608D01*
X0270226Y0153680D01*
X0270368Y0153750D01*
X0270512Y0153815D01*
X0270658Y0153877D01*
X0270805Y0153935D01*
X0270954Y0153990D01*
X0271104Y0154041D01*
X0271255Y0154088D01*
X0271407Y0154131D01*
X0271560Y0154170D01*
X0271715Y0154206D01*
X0271870Y0154237D01*
X0272026Y0154265D01*
X0272182Y0154289D01*
X0272339Y0154309D01*
X0272497Y0154325D01*
X0272654Y0154337D01*
X0272813Y0154345D01*
X0272971Y0154349D01*
X0273129Y0154349D01*
X0273287Y0154345D01*
X0273446Y0154337D01*
X0273603Y0154325D01*
X0273761Y0154309D01*
X0273918Y0154289D01*
X0274074Y0154265D01*
X0274230Y0154237D01*
X0274385Y0154206D01*
X0274540Y0154170D01*
X0274693Y0154131D01*
X0274845Y0154088D01*
X0274996Y0154041D01*
X0275146Y0153990D01*
X0275295Y0153935D01*
X0275442Y0153877D01*
X0275588Y0153815D01*
X0275732Y0153750D01*
X0275874Y0153680D01*
X0276015Y0153608D01*
X0276154Y0153531D01*
X0276290Y0153452D01*
X0276425Y0153368D01*
X0276558Y0153282D01*
X0276688Y0153192D01*
X0276816Y0153099D01*
X0276942Y0153003D01*
X0277065Y0152903D01*
X0277186Y0152801D01*
X0277304Y0152696D01*
X0277419Y0152587D01*
X0277532Y0152476D01*
X0277642Y0152362D01*
X0277749Y0152245D01*
X0277853Y0152126D01*
X0277954Y0152004D01*
X0278051Y0151879D01*
X0278146Y0151752D01*
X0278237Y0151623D01*
X0278326Y0151492D01*
X0278410Y0151358D01*
X0278492Y0151222D01*
X0278570Y0151085D01*
X0278644Y0150945D01*
X0278715Y0150803D01*
X0278783Y0150660D01*
X0278847Y0150515D01*
X0278907Y0150369D01*
X0278963Y0150221D01*
X0279016Y0150072D01*
X0279065Y0149921D01*
X0279110Y0149769D01*
X0279151Y0149616D01*
X0279189Y0149463D01*
X0279222Y0149308D01*
X0279252Y0149152D01*
X0279278Y0148996D01*
X0279299Y0148839D01*
X0279317Y0148682D01*
X0279331Y0148524D01*
X0279341Y0148366D01*
X0279347Y0148208D01*
X0279349Y0148050D01*
X0279347Y0147892D01*
X0279341Y0147734D01*
X0279331Y0147576D01*
X0279317Y0147418D01*
X0279299Y0147261D01*
X0279278Y0147104D01*
X0279252Y0146948D01*
X0279222Y0146792D01*
X0279189Y0146637D01*
X0279151Y0146484D01*
X0279110Y0146331D01*
X0279065Y0146179D01*
X0279016Y0146028D01*
X0278963Y0145879D01*
X0278907Y0145731D01*
X0278847Y0145585D01*
X0278783Y0145440D01*
X0278715Y0145297D01*
X0278644Y0145155D01*
X0278570Y0145015D01*
X0278492Y0144878D01*
X0278410Y0144742D01*
X0278326Y0144608D01*
X0278237Y0144477D01*
X0278146Y0144348D01*
X0278051Y0144221D01*
X0277954Y0144096D01*
X0277853Y0143974D01*
X0277749Y0143855D01*
X0277642Y0143738D01*
X0277532Y0143624D01*
X0277419Y0143513D01*
X0277304Y0143404D01*
X0277186Y0143299D01*
X0277065Y0143197D01*
X0276942Y0143097D01*
X0276816Y0143001D01*
X0276688Y0142908D01*
X0276558Y0142818D01*
X0276425Y0142732D01*
X0276290Y0142648D01*
X0276154Y0142569D01*
X0276015Y0142492D01*
X0275874Y0142420D01*
X0275732Y0142350D01*
X0275588Y0142285D01*
X0275442Y0142223D01*
X0275295Y0142165D01*
X0275146Y0142110D01*
X0274996Y0142059D01*
X0274845Y0142012D01*
X0274693Y0141969D01*
X0274540Y0141930D01*
X0274385Y0141894D01*
X0274230Y0141863D01*
X0274074Y0141835D01*
X0273918Y0141811D01*
X0273761Y0141791D01*
X0273603Y0141775D01*
X0273446Y0141763D01*
X0273287Y0141755D01*
X0273129Y0141751D01*
X0272971Y0141751D01*
X0272813Y0141755D01*
X0272654Y0141763D01*
X0272497Y0141775D01*
X0272339Y0141791D01*
X0272182Y0141811D01*
X0272026Y0141835D01*
X0271870Y0141863D01*
X0271715Y0141894D01*
X0271560Y0141930D01*
X0271407Y0141969D01*
X0271255Y0142012D01*
X0271104Y0142059D01*
X0270954Y0142110D01*
X0270805Y0142165D01*
X0270658Y0142223D01*
X0270512Y0142285D01*
X0270368Y0142350D01*
X0270226Y0142420D01*
X0270085Y0142492D01*
X0269946Y0142569D01*
X0269810Y0142648D01*
X0269675Y0142732D01*
X0269542Y0142818D01*
X0269412Y0142908D01*
X0269284Y0143001D01*
X0269158Y0143097D01*
X0269035Y0143197D01*
X0268914Y0143299D01*
X0268796Y0143404D01*
X0268681Y0143513D01*
X0268568Y0143624D01*
X0268458Y0143738D01*
X0268351Y0143855D01*
X0268247Y0143974D01*
X0268146Y0144096D01*
X0268049Y0144221D01*
X0267954Y0144348D01*
X0267863Y0144477D01*
X0267774Y0144608D01*
X0267690Y0144742D01*
X0267608Y0144878D01*
X0267530Y0145015D01*
X0267456Y0145155D01*
X0267385Y0145297D01*
X0267317Y0145440D01*
X0267253Y0145585D01*
X0267193Y0145731D01*
X0267137Y0145879D01*
X0267084Y0146028D01*
X0267035Y0146179D01*
X0266990Y0146331D01*
X0266949Y0146484D01*
X0266911Y0146637D01*
X0266878Y0146792D01*
X0266848Y0146948D01*
X0266822Y0147104D01*
X0266801Y0147261D01*
X0266783Y0147418D01*
X0266769Y0147576D01*
X0266759Y0147734D01*
X0266753Y0147892D01*
X0266751Y0148050D01*
D18*
X0246202Y0180700D02*
X0247436Y0181934D01*
X0247436Y0183169D01*
X0246202Y0184403D01*
X0244988Y0184403D02*
X0244370Y0183786D01*
X0243136Y0185020D01*
X0242519Y0184403D01*
X0237621Y0182552D02*
X0237621Y0180700D01*
X0237621Y0182552D02*
X0237004Y0183169D01*
X0235153Y0183169D01*
X0235153Y0180700D01*
X0233932Y0180700D02*
X0232697Y0180700D01*
X0233314Y0180700D02*
X0233314Y0183169D01*
X0232697Y0183169D01*
X0231483Y0182552D02*
X0230866Y0183169D01*
X0229014Y0183169D01*
X0229014Y0179466D01*
X0229014Y0180700D02*
X0230866Y0180700D01*
X0231483Y0181317D01*
X0231483Y0182552D01*
X0233314Y0184403D02*
X0233314Y0185020D01*
X0227800Y0184403D02*
X0227800Y0180700D01*
X0225331Y0180700D02*
X0225331Y0184403D01*
X0226565Y0183169D01*
X0227800Y0184403D01*
X0224116Y0184403D02*
X0224116Y0180700D01*
X0222882Y0181934D01*
X0221648Y0180700D01*
X0221648Y0184403D01*
X0220433Y0183786D02*
X0220433Y0182552D01*
X0219816Y0181934D01*
X0217965Y0181934D01*
X0217965Y0180700D02*
X0217965Y0184403D01*
X0219816Y0184403D01*
X0220433Y0183786D01*
X0216744Y0184403D02*
X0215509Y0183169D01*
X0215509Y0181934D01*
X0216744Y0180700D01*
X0210612Y0181317D02*
X0210612Y0183786D01*
X0209994Y0184403D01*
X0208760Y0184403D01*
X0208143Y0183786D01*
X0208143Y0181317D01*
X0208760Y0180700D01*
X0209994Y0180700D01*
X0210612Y0181317D01*
X0206928Y0184403D02*
X0204460Y0180700D01*
X0203239Y0180700D02*
X0202004Y0180700D01*
X0202621Y0180700D02*
X0202621Y0184403D01*
X0202004Y0184403D02*
X0203239Y0184403D01*
X0196483Y0184403D02*
X0196483Y0180700D01*
X0195866Y0180700D02*
X0197100Y0180700D01*
X0194651Y0180700D02*
X0194651Y0182552D01*
X0194034Y0183169D01*
X0192800Y0183169D01*
X0192800Y0181934D02*
X0194651Y0181934D01*
X0194651Y0180700D02*
X0192800Y0180700D01*
X0192183Y0181317D01*
X0192800Y0181934D01*
X0190962Y0180700D02*
X0190344Y0181317D01*
X0190344Y0183786D01*
X0189727Y0183169D02*
X0190962Y0183169D01*
X0187889Y0183169D02*
X0187889Y0180700D01*
X0187272Y0180700D02*
X0188506Y0180700D01*
X0186057Y0180700D02*
X0184206Y0180700D01*
X0183589Y0181317D01*
X0183589Y0182552D01*
X0184206Y0183169D01*
X0186057Y0183169D01*
X0186057Y0180083D01*
X0185440Y0179466D01*
X0184823Y0179466D01*
X0182368Y0180700D02*
X0181133Y0180700D01*
X0181750Y0180700D02*
X0181750Y0183169D01*
X0181133Y0183169D01*
X0179919Y0183786D02*
X0179919Y0181317D01*
X0179302Y0180700D01*
X0177450Y0180700D01*
X0177450Y0184403D01*
X0179302Y0184403D01*
X0179919Y0183786D01*
X0181750Y0184403D02*
X0181750Y0185020D01*
X0187272Y0183169D02*
X0187889Y0183169D01*
X0187889Y0184403D02*
X0187889Y0185020D01*
X0195866Y0184403D02*
X0196483Y0184403D01*
X0201697Y0192834D02*
X0201080Y0193451D01*
X0202314Y0194685D01*
X0201697Y0195302D01*
X0203548Y0196517D02*
X0203548Y0198368D01*
X0204166Y0198986D01*
X0204783Y0198986D01*
X0205400Y0198368D01*
X0205400Y0197134D01*
X0204783Y0196517D01*
X0203548Y0196517D01*
X0202314Y0197751D01*
X0201697Y0198986D01*
X0195400Y0196517D02*
X0194783Y0196517D01*
X0192314Y0198986D01*
X0191697Y0198986D01*
X0191697Y0196517D01*
X0179400Y0197134D02*
X0178783Y0196517D01*
X0178166Y0196517D01*
X0177548Y0197134D01*
X0177548Y0198368D01*
X0178166Y0198986D01*
X0178783Y0198986D01*
X0179400Y0198368D01*
X0179400Y0197134D01*
X0177548Y0197134D02*
X0176931Y0196517D01*
X0176314Y0196517D01*
X0175697Y0197134D01*
X0175697Y0198368D01*
X0176314Y0198986D01*
X0176931Y0198986D01*
X0177548Y0198368D01*
X0169400Y0198368D02*
X0168783Y0198986D01*
X0166314Y0198986D01*
X0165697Y0198368D01*
X0165697Y0197134D01*
X0166314Y0196517D01*
X0166931Y0196517D01*
X0167548Y0197134D01*
X0167548Y0198986D01*
X0169400Y0198368D02*
X0169400Y0197134D01*
X0168783Y0196517D01*
X0166314Y0194685D02*
X0165697Y0195302D01*
X0166314Y0194685D02*
X0165080Y0193451D01*
X0165697Y0192834D01*
X0159400Y0192834D02*
X0159400Y0195302D01*
X0159400Y0194068D02*
X0155697Y0194068D01*
X0156931Y0192834D01*
X0155697Y0191619D02*
X0156314Y0191002D01*
X0155080Y0189768D01*
X0155697Y0189151D01*
X0149400Y0192834D02*
X0149400Y0195302D01*
X0149400Y0196517D02*
X0149400Y0198986D01*
X0149400Y0197751D02*
X0145697Y0197751D01*
X0146931Y0196517D01*
X0145697Y0194068D02*
X0149400Y0194068D01*
X0146931Y0192834D02*
X0145697Y0194068D01*
X0145697Y0191619D02*
X0146314Y0191002D01*
X0145080Y0189768D01*
X0145697Y0189151D01*
X0139400Y0192834D02*
X0139400Y0195302D01*
X0139400Y0196517D02*
X0136931Y0198986D01*
X0136314Y0198986D01*
X0135697Y0198368D01*
X0135697Y0197134D01*
X0136314Y0196517D01*
X0135697Y0194068D02*
X0139400Y0194068D01*
X0139400Y0196517D02*
X0139400Y0198986D01*
X0135697Y0194068D02*
X0136931Y0192834D01*
X0129400Y0192834D02*
X0129400Y0195302D01*
X0129400Y0194068D02*
X0125697Y0194068D01*
X0126931Y0192834D01*
X0126314Y0196517D02*
X0125697Y0197134D01*
X0125697Y0198368D01*
X0126314Y0198986D01*
X0126931Y0198986D01*
X0127548Y0198368D01*
X0128166Y0198986D01*
X0128783Y0198986D01*
X0129400Y0198368D01*
X0129400Y0197134D01*
X0128783Y0196517D01*
X0127548Y0197751D02*
X0127548Y0198368D01*
X0118900Y0199035D02*
X0118900Y0197183D01*
X0118283Y0196566D01*
X0117048Y0196566D01*
X0116431Y0197183D01*
X0116431Y0199035D01*
X0115197Y0199035D02*
X0118900Y0199035D01*
X0118900Y0195352D02*
X0117048Y0195352D01*
X0116431Y0194735D01*
X0116431Y0192883D01*
X0118900Y0192883D01*
X0118900Y0191669D02*
X0118900Y0189817D01*
X0118283Y0189200D01*
X0117048Y0189200D01*
X0116431Y0189817D01*
X0116431Y0191669D01*
X0119517Y0191669D01*
X0120134Y0191052D01*
X0120134Y0190434D01*
X0109400Y0190378D02*
X0105697Y0190378D01*
X0105697Y0192230D01*
X0106314Y0192847D01*
X0107548Y0192847D01*
X0108166Y0192230D01*
X0108166Y0190378D01*
X0108166Y0191613D02*
X0109400Y0192847D01*
X0108783Y0194061D02*
X0107548Y0194061D01*
X0106931Y0194679D01*
X0106931Y0195913D01*
X0107548Y0196530D01*
X0108166Y0196530D01*
X0108166Y0194061D01*
X0108783Y0194061D02*
X0109400Y0194679D01*
X0109400Y0195913D01*
X0109400Y0198362D02*
X0106314Y0198362D01*
X0105697Y0198979D01*
X0107548Y0198979D02*
X0107548Y0197745D01*
X0107548Y0189164D02*
X0107548Y0186695D01*
X0106931Y0186695D02*
X0105697Y0187930D01*
X0106931Y0189164D01*
X0109400Y0189164D01*
X0109400Y0186695D02*
X0106931Y0186695D01*
X0155697Y0197134D02*
X0156314Y0196517D01*
X0158783Y0196517D01*
X0156314Y0198986D01*
X0158783Y0198986D01*
X0159400Y0198368D01*
X0159400Y0197134D01*
X0158783Y0196517D01*
X0155697Y0197134D02*
X0155697Y0198368D01*
X0156314Y0198986D01*
X0211080Y0193451D02*
X0212314Y0194685D01*
X0211697Y0195302D01*
X0211697Y0196517D02*
X0213548Y0196517D01*
X0212931Y0197751D01*
X0212931Y0198368D01*
X0213548Y0198986D01*
X0214783Y0198986D01*
X0215400Y0198368D01*
X0215400Y0197134D01*
X0214783Y0196517D01*
X0211697Y0196517D02*
X0211697Y0198986D01*
X0211080Y0193451D02*
X0211697Y0192834D01*
X0221697Y0198368D02*
X0223548Y0196517D01*
X0223548Y0198986D01*
X0221697Y0198368D02*
X0225400Y0198368D01*
X0231697Y0198368D02*
X0232314Y0198986D01*
X0232931Y0198986D01*
X0233548Y0198368D01*
X0234166Y0198986D01*
X0234783Y0198986D01*
X0235400Y0198368D01*
X0235400Y0197134D01*
X0234783Y0196517D01*
X0233548Y0197751D02*
X0233548Y0198368D01*
X0231697Y0198368D02*
X0231697Y0197134D01*
X0232314Y0196517D01*
X0231697Y0195302D02*
X0232314Y0194685D01*
X0231080Y0193451D01*
X0231697Y0192834D01*
X0241697Y0197134D02*
X0242314Y0196517D01*
X0241697Y0197134D02*
X0241697Y0198368D01*
X0242314Y0198986D01*
X0242931Y0198986D01*
X0245400Y0196517D01*
X0245400Y0198986D01*
X0251697Y0197751D02*
X0252931Y0196517D01*
X0253548Y0195302D02*
X0251697Y0192834D01*
X0251697Y0191619D02*
X0255400Y0189151D01*
X0255400Y0186702D02*
X0251697Y0186702D01*
X0251697Y0187936D02*
X0251697Y0185467D01*
X0251697Y0189151D02*
X0255400Y0191619D01*
X0255400Y0192834D02*
X0253548Y0195302D01*
X0255400Y0196517D02*
X0255400Y0198986D01*
X0255400Y0197751D02*
X0251697Y0197751D01*
X0261697Y0197134D02*
X0261697Y0198368D01*
X0262314Y0198986D01*
X0264783Y0196517D01*
X0265400Y0197134D01*
X0265400Y0198368D01*
X0264783Y0198986D01*
X0262314Y0198986D01*
X0261697Y0197134D02*
X0262314Y0196517D01*
X0264783Y0196517D01*
X0265400Y0195302D02*
X0263548Y0192834D01*
X0261697Y0195302D01*
X0261697Y0191619D02*
X0265400Y0189151D01*
X0265400Y0187936D02*
X0264166Y0186702D01*
X0264166Y0187319D02*
X0264166Y0185467D01*
X0265400Y0185467D02*
X0261697Y0185467D01*
X0261697Y0187319D01*
X0262314Y0187936D01*
X0263548Y0187936D01*
X0264166Y0187319D01*
X0261697Y0189151D02*
X0265400Y0191619D01*
X0263903Y0044348D02*
X0262669Y0044348D01*
X0263286Y0044348D02*
X0263286Y0040645D01*
X0262669Y0040645D02*
X0263903Y0040645D01*
X0265124Y0040645D02*
X0265124Y0043114D01*
X0266976Y0043114D01*
X0267593Y0042497D01*
X0267593Y0040645D01*
X0263783Y0032352D02*
X0264400Y0031735D01*
X0264400Y0030500D01*
X0263783Y0029883D01*
X0262548Y0029883D02*
X0261931Y0031118D01*
X0261931Y0031735D01*
X0262548Y0032352D01*
X0263783Y0032352D01*
X0262548Y0029883D02*
X0260697Y0029883D01*
X0260697Y0032352D01*
X0261931Y0028669D02*
X0264400Y0028669D01*
X0262548Y0028669D02*
X0262548Y0026200D01*
X0261931Y0026200D02*
X0264400Y0026200D01*
X0261931Y0026200D02*
X0260697Y0027434D01*
X0261931Y0028669D01*
X0254400Y0028669D02*
X0251931Y0028669D01*
X0250697Y0027434D01*
X0251931Y0026200D01*
X0254400Y0026200D01*
X0252548Y0026200D02*
X0252548Y0028669D01*
X0252548Y0029883D02*
X0252548Y0032352D01*
X0250697Y0031735D02*
X0252548Y0029883D01*
X0250697Y0031735D02*
X0254400Y0031735D01*
X0256537Y0039411D02*
X0257154Y0039411D01*
X0257772Y0040028D01*
X0257772Y0043114D01*
X0255920Y0043114D01*
X0255303Y0042497D01*
X0255303Y0041262D01*
X0255920Y0040645D01*
X0257772Y0040645D01*
X0254088Y0041262D02*
X0254088Y0042497D01*
X0253471Y0043114D01*
X0252237Y0043114D01*
X0251620Y0042497D01*
X0251620Y0041262D01*
X0252237Y0040645D01*
X0253471Y0040645D01*
X0254088Y0041262D01*
X0250399Y0040645D02*
X0249164Y0040645D01*
X0249781Y0040645D02*
X0249781Y0044348D01*
X0249164Y0044348D01*
X0247333Y0043114D02*
X0247950Y0042497D01*
X0247950Y0040645D01*
X0246098Y0040645D01*
X0245481Y0041262D01*
X0246098Y0041879D01*
X0247950Y0041879D01*
X0247333Y0043114D02*
X0246098Y0043114D01*
X0244267Y0042497D02*
X0244267Y0040645D01*
X0244267Y0042497D02*
X0243649Y0043114D01*
X0241798Y0043114D01*
X0241798Y0040645D01*
X0240584Y0040645D02*
X0240584Y0043114D01*
X0239349Y0044348D01*
X0238115Y0043114D01*
X0238115Y0040645D01*
X0238115Y0042497D02*
X0240584Y0042497D01*
X0241314Y0032352D02*
X0241931Y0032352D01*
X0242548Y0031735D01*
X0243166Y0032352D01*
X0243783Y0032352D01*
X0244400Y0031735D01*
X0244400Y0030500D01*
X0243783Y0029883D01*
X0244400Y0028669D02*
X0241931Y0028669D01*
X0240697Y0027434D01*
X0241931Y0026200D01*
X0244400Y0026200D01*
X0242548Y0026200D02*
X0242548Y0028669D01*
X0241314Y0029883D02*
X0240697Y0030500D01*
X0240697Y0031735D01*
X0241314Y0032352D01*
X0242548Y0031735D02*
X0242548Y0031118D01*
X0234400Y0032352D02*
X0234400Y0029883D01*
X0231931Y0032352D01*
X0231314Y0032352D01*
X0230697Y0031735D01*
X0230697Y0030500D01*
X0231314Y0029883D01*
X0231931Y0028669D02*
X0234400Y0028669D01*
X0232548Y0028669D02*
X0232548Y0026200D01*
X0231931Y0026200D02*
X0230697Y0027434D01*
X0231931Y0028669D01*
X0231931Y0026200D02*
X0234400Y0026200D01*
X0224400Y0026200D02*
X0221931Y0026200D01*
X0220697Y0027434D01*
X0221931Y0028669D01*
X0224400Y0028669D01*
X0224400Y0029883D02*
X0224400Y0032352D01*
X0224400Y0031118D02*
X0220697Y0031118D01*
X0221931Y0029883D01*
X0222548Y0028669D02*
X0222548Y0026200D01*
X0214400Y0026200D02*
X0211931Y0026200D01*
X0210697Y0027434D01*
X0211931Y0028669D01*
X0214400Y0028669D01*
X0213783Y0029883D02*
X0211314Y0029883D01*
X0210697Y0030500D01*
X0210697Y0031735D01*
X0211314Y0032352D01*
X0213783Y0029883D01*
X0214400Y0030500D01*
X0214400Y0031735D01*
X0213783Y0032352D01*
X0211314Y0032352D01*
X0212548Y0028669D02*
X0212548Y0026200D01*
X0195220Y0027434D02*
X0193986Y0028669D01*
X0191517Y0028669D01*
X0192751Y0029883D02*
X0192751Y0030500D01*
X0195220Y0030500D01*
X0195220Y0029883D02*
X0195220Y0031118D01*
X0195220Y0032339D02*
X0192751Y0032339D01*
X0192751Y0034190D01*
X0193369Y0034807D01*
X0195220Y0034807D01*
X0191517Y0030500D02*
X0190900Y0030500D01*
X0191517Y0026200D02*
X0193986Y0026200D01*
X0195220Y0027434D01*
X0184440Y0026817D02*
X0184440Y0028052D01*
X0183823Y0028669D01*
X0182588Y0028669D01*
X0182588Y0027434D01*
X0181354Y0026200D02*
X0183823Y0026200D01*
X0184440Y0026817D01*
X0181354Y0026200D02*
X0180737Y0026817D01*
X0180737Y0028052D01*
X0181354Y0028669D01*
X0181971Y0029883D02*
X0181971Y0031735D01*
X0182588Y0032352D01*
X0184440Y0032352D01*
X0183823Y0033566D02*
X0182588Y0033566D01*
X0181971Y0034183D01*
X0181971Y0036035D01*
X0180737Y0036035D02*
X0184440Y0036035D01*
X0184440Y0034183D01*
X0183823Y0033566D01*
X0184440Y0029883D02*
X0181971Y0029883D01*
X0174440Y0029883D02*
X0171971Y0029883D01*
X0171971Y0031735D01*
X0172588Y0032352D01*
X0174440Y0032352D01*
X0173823Y0033566D02*
X0172588Y0033566D01*
X0171971Y0034183D01*
X0171971Y0036035D01*
X0170737Y0036035D02*
X0174440Y0036035D01*
X0174440Y0034183D01*
X0173823Y0033566D01*
X0173823Y0028669D02*
X0172588Y0028669D01*
X0172588Y0027434D01*
X0171354Y0026200D02*
X0173823Y0026200D01*
X0174440Y0026817D01*
X0174440Y0028052D01*
X0173823Y0028669D01*
X0171354Y0028669D02*
X0170737Y0028052D01*
X0170737Y0026817D01*
X0171354Y0026200D01*
X0164720Y0026817D02*
X0164103Y0026200D01*
X0164720Y0026817D02*
X0164720Y0028052D01*
X0164103Y0028669D01*
X0162869Y0028669D01*
X0162251Y0028052D01*
X0162251Y0027434D01*
X0162869Y0026200D01*
X0161017Y0026200D01*
X0161017Y0028669D01*
X0161017Y0029883D02*
X0163486Y0029883D01*
X0164720Y0031118D01*
X0163486Y0032352D01*
X0161017Y0032352D01*
X0154720Y0032342D02*
X0154103Y0031725D01*
X0154720Y0032342D02*
X0154720Y0033576D01*
X0154103Y0034193D01*
X0153486Y0034193D01*
X0152869Y0033576D01*
X0152869Y0032959D01*
X0152869Y0033576D02*
X0152251Y0034193D01*
X0151634Y0034193D01*
X0151017Y0033576D01*
X0151017Y0032342D01*
X0151634Y0031725D01*
X0154103Y0030500D02*
X0154720Y0030500D01*
X0154720Y0029883D01*
X0154103Y0029883D01*
X0154103Y0030500D01*
X0154103Y0028669D02*
X0154720Y0028052D01*
X0154720Y0026817D01*
X0154103Y0026200D01*
X0152869Y0027434D02*
X0152869Y0028052D01*
X0153486Y0028669D01*
X0154103Y0028669D01*
X0152869Y0028052D02*
X0152251Y0028669D01*
X0151634Y0028669D01*
X0151017Y0028052D01*
X0151017Y0026817D01*
X0151634Y0026200D01*
X0144860Y0026200D02*
X0141157Y0026200D01*
X0141157Y0028052D01*
X0141774Y0028669D01*
X0143009Y0028669D01*
X0143626Y0028052D01*
X0143626Y0026200D01*
X0143626Y0027434D02*
X0144860Y0028669D01*
X0144243Y0029883D02*
X0144860Y0030500D01*
X0144860Y0031735D01*
X0144243Y0032352D01*
X0143626Y0032352D01*
X0143009Y0031735D01*
X0143009Y0030500D01*
X0142391Y0029883D01*
X0141774Y0029883D01*
X0141157Y0030500D01*
X0141157Y0031735D01*
X0141774Y0032352D01*
X0141157Y0033566D02*
X0141157Y0036035D01*
X0141157Y0034801D02*
X0144860Y0034801D01*
X0144774Y0040520D02*
X0145392Y0041137D01*
X0145392Y0042372D01*
X0144774Y0042989D01*
X0143540Y0042989D01*
X0142923Y0042372D01*
X0142923Y0041137D01*
X0143540Y0040520D01*
X0144774Y0040520D01*
X0146606Y0041137D02*
X0147223Y0040520D01*
X0147840Y0041137D01*
X0148458Y0040520D01*
X0149075Y0041137D01*
X0149075Y0042989D01*
X0150289Y0042372D02*
X0150906Y0042989D01*
X0152141Y0042989D01*
X0152758Y0042372D01*
X0152758Y0041754D01*
X0150289Y0041754D01*
X0150289Y0041137D02*
X0150289Y0042372D01*
X0150289Y0041137D02*
X0150906Y0040520D01*
X0152141Y0040520D01*
X0153972Y0040520D02*
X0153972Y0042989D01*
X0153972Y0041754D02*
X0155207Y0042989D01*
X0155824Y0042989D01*
X0153486Y0037877D02*
X0151017Y0037877D01*
X0153486Y0037877D02*
X0154720Y0036642D01*
X0153486Y0035408D01*
X0151017Y0035408D01*
X0146606Y0041137D02*
X0146606Y0042989D01*
X0141709Y0043606D02*
X0141709Y0042372D01*
X0141091Y0041754D01*
X0139240Y0041754D01*
X0139240Y0040520D02*
X0139240Y0044223D01*
X0141091Y0044223D01*
X0141709Y0043606D01*
X0113963Y0042462D02*
X0113963Y0039993D01*
X0111494Y0042462D01*
X0110877Y0042462D01*
X0110260Y0041845D01*
X0110260Y0040611D01*
X0110877Y0039993D01*
X0110877Y0038779D02*
X0110260Y0038162D01*
X0110260Y0036927D01*
X0110877Y0036310D01*
X0113346Y0036310D01*
X0113963Y0036927D01*
X0113963Y0038162D01*
X0113346Y0038779D01*
X0083963Y0038162D02*
X0083346Y0038779D01*
X0083963Y0038162D02*
X0083963Y0036927D01*
X0083346Y0036310D01*
X0080877Y0036310D01*
X0080260Y0036927D01*
X0080260Y0038162D01*
X0080877Y0038779D01*
X0081494Y0039993D02*
X0080260Y0041228D01*
X0083963Y0041228D01*
X0083963Y0042462D02*
X0083963Y0039993D01*
D19*
X0084310Y0030255D02*
X0075255Y0030255D01*
X0075255Y0049152D01*
X0081948Y0055845D01*
X0084310Y0055845D01*
X0091790Y0055845D02*
X0094152Y0055845D01*
X0100845Y0049152D01*
X0100845Y0030255D01*
X0091790Y0030255D01*
X0105255Y0030255D02*
X0105255Y0049152D01*
X0111948Y0055845D01*
X0114310Y0055845D01*
X0121790Y0055845D02*
X0124152Y0055845D01*
X0130845Y0049152D01*
X0130845Y0030255D01*
X0121790Y0030255D01*
X0114310Y0030255D02*
X0105255Y0030255D01*
D20*
X0121864Y0031271D02*
X0121754Y0031613D01*
X0122032Y0031707D01*
X0122308Y0031807D01*
X0122581Y0031915D01*
X0122852Y0032029D01*
X0123120Y0032149D01*
X0123384Y0032276D01*
X0123646Y0032410D01*
X0123904Y0032549D01*
X0124158Y0032696D01*
X0124409Y0032848D01*
X0124657Y0033006D01*
X0124900Y0033170D01*
X0125139Y0033341D01*
X0125374Y0033517D01*
X0125605Y0033698D01*
X0125831Y0033885D01*
X0126052Y0034078D01*
X0126269Y0034276D01*
X0126481Y0034480D01*
X0126687Y0034688D01*
X0126889Y0034901D01*
X0127085Y0035120D01*
X0127276Y0035343D01*
X0127462Y0035570D01*
X0127642Y0035802D01*
X0127816Y0036039D01*
X0127984Y0036279D01*
X0128146Y0036524D01*
X0128303Y0036772D01*
X0128453Y0037024D01*
X0128597Y0037280D01*
X0128735Y0037539D01*
X0128866Y0037802D01*
X0128991Y0038068D01*
X0129109Y0038336D01*
X0129221Y0038608D01*
X0129326Y0038882D01*
X0129425Y0039158D01*
X0129516Y0039437D01*
X0129601Y0039718D01*
X0129679Y0040001D01*
X0129750Y0040286D01*
X0129814Y0040573D01*
X0129871Y0040861D01*
X0129921Y0041150D01*
X0129964Y0041440D01*
X0129999Y0041732D01*
X0130028Y0042024D01*
X0130050Y0042317D01*
X0130064Y0042610D01*
X0130071Y0042903D01*
X0130071Y0043197D01*
X0130064Y0043490D01*
X0130050Y0043783D01*
X0130028Y0044076D01*
X0129999Y0044368D01*
X0129964Y0044660D01*
X0129921Y0044950D01*
X0129871Y0045239D01*
X0129814Y0045527D01*
X0129750Y0045814D01*
X0129679Y0046099D01*
X0129601Y0046382D01*
X0129516Y0046663D01*
X0129425Y0046942D01*
X0129326Y0047218D01*
X0129221Y0047492D01*
X0129109Y0047764D01*
X0128991Y0048032D01*
X0128866Y0048298D01*
X0128735Y0048561D01*
X0128597Y0048820D01*
X0128453Y0049076D01*
X0128303Y0049328D01*
X0128146Y0049576D01*
X0127984Y0049821D01*
X0127816Y0050061D01*
X0127642Y0050298D01*
X0127462Y0050530D01*
X0127276Y0050757D01*
X0127085Y0050980D01*
X0126889Y0051199D01*
X0126687Y0051412D01*
X0126481Y0051620D01*
X0126269Y0051824D01*
X0126052Y0052022D01*
X0125831Y0052215D01*
X0125605Y0052402D01*
X0125374Y0052583D01*
X0125139Y0052759D01*
X0124900Y0052930D01*
X0124657Y0053094D01*
X0124409Y0053252D01*
X0124158Y0053404D01*
X0123904Y0053551D01*
X0123646Y0053690D01*
X0123384Y0053824D01*
X0123120Y0053951D01*
X0122852Y0054071D01*
X0122581Y0054185D01*
X0122308Y0054293D01*
X0122032Y0054393D01*
X0121754Y0054487D01*
X0121864Y0054829D01*
X0121865Y0054830D01*
X0122151Y0054733D01*
X0122435Y0054630D01*
X0122716Y0054519D01*
X0122995Y0054402D01*
X0123271Y0054277D01*
X0123543Y0054147D01*
X0123813Y0054009D01*
X0124079Y0053865D01*
X0124341Y0053715D01*
X0124599Y0053558D01*
X0124854Y0053395D01*
X0125105Y0053226D01*
X0125351Y0053050D01*
X0125593Y0052869D01*
X0125831Y0052682D01*
X0126063Y0052489D01*
X0126292Y0052291D01*
X0126515Y0052087D01*
X0126733Y0051877D01*
X0126946Y0051663D01*
X0127153Y0051443D01*
X0127356Y0051218D01*
X0127552Y0050988D01*
X0127743Y0050754D01*
X0127929Y0050515D01*
X0128108Y0050272D01*
X0128281Y0050024D01*
X0128448Y0049772D01*
X0128610Y0049516D01*
X0128764Y0049256D01*
X0128913Y0048993D01*
X0129054Y0048726D01*
X0129190Y0048455D01*
X0129318Y0048182D01*
X0129440Y0047905D01*
X0129556Y0047626D01*
X0129664Y0047343D01*
X0129765Y0047058D01*
X0129860Y0046771D01*
X0129947Y0046482D01*
X0130027Y0046190D01*
X0130100Y0045897D01*
X0130166Y0045602D01*
X0130225Y0045305D01*
X0130276Y0045007D01*
X0130320Y0044708D01*
X0130357Y0044408D01*
X0130387Y0044107D01*
X0130409Y0043805D01*
X0130424Y0043503D01*
X0130431Y0043201D01*
X0130431Y0042899D01*
X0130424Y0042597D01*
X0130409Y0042295D01*
X0130387Y0041993D01*
X0130357Y0041692D01*
X0130320Y0041392D01*
X0130276Y0041093D01*
X0130225Y0040795D01*
X0130166Y0040498D01*
X0130100Y0040203D01*
X0130027Y0039910D01*
X0129947Y0039618D01*
X0129860Y0039329D01*
X0129765Y0039042D01*
X0129664Y0038757D01*
X0129556Y0038474D01*
X0129440Y0038195D01*
X0129318Y0037918D01*
X0129190Y0037645D01*
X0129054Y0037374D01*
X0128913Y0037107D01*
X0128764Y0036844D01*
X0128610Y0036584D01*
X0128448Y0036328D01*
X0128281Y0036076D01*
X0128108Y0035828D01*
X0127929Y0035585D01*
X0127743Y0035346D01*
X0127552Y0035112D01*
X0127356Y0034882D01*
X0127153Y0034657D01*
X0126946Y0034437D01*
X0126733Y0034223D01*
X0126515Y0034013D01*
X0126292Y0033809D01*
X0126063Y0033611D01*
X0125831Y0033418D01*
X0125593Y0033231D01*
X0125351Y0033050D01*
X0125105Y0032874D01*
X0124854Y0032705D01*
X0124599Y0032542D01*
X0124341Y0032385D01*
X0124079Y0032235D01*
X0123813Y0032091D01*
X0123543Y0031953D01*
X0123271Y0031823D01*
X0122995Y0031698D01*
X0122716Y0031581D01*
X0122435Y0031470D01*
X0122151Y0031367D01*
X0121865Y0031270D01*
X0121853Y0031305D01*
X0122139Y0031402D01*
X0122422Y0031505D01*
X0122703Y0031615D01*
X0122980Y0031732D01*
X0123255Y0031856D01*
X0123527Y0031987D01*
X0123796Y0032124D01*
X0124061Y0032267D01*
X0124322Y0032417D01*
X0124580Y0032573D01*
X0124834Y0032736D01*
X0125084Y0032905D01*
X0125329Y0033079D01*
X0125571Y0033260D01*
X0125807Y0033447D01*
X0126040Y0033639D01*
X0126267Y0033837D01*
X0126489Y0034040D01*
X0126707Y0034249D01*
X0126919Y0034463D01*
X0127126Y0034682D01*
X0127328Y0034906D01*
X0127524Y0035135D01*
X0127714Y0035369D01*
X0127899Y0035607D01*
X0128078Y0035850D01*
X0128251Y0036097D01*
X0128417Y0036348D01*
X0128578Y0036603D01*
X0128732Y0036862D01*
X0128880Y0037125D01*
X0129022Y0037391D01*
X0129156Y0037661D01*
X0129285Y0037933D01*
X0129406Y0038209D01*
X0129521Y0038488D01*
X0129629Y0038770D01*
X0129730Y0039054D01*
X0129824Y0039340D01*
X0129911Y0039629D01*
X0129991Y0039919D01*
X0130064Y0040212D01*
X0130130Y0040506D01*
X0130189Y0040802D01*
X0130240Y0041099D01*
X0130284Y0041397D01*
X0130321Y0041696D01*
X0130350Y0041996D01*
X0130372Y0042297D01*
X0130387Y0042598D01*
X0130394Y0042899D01*
X0130394Y0043201D01*
X0130387Y0043502D01*
X0130372Y0043803D01*
X0130350Y0044104D01*
X0130321Y0044404D01*
X0130284Y0044703D01*
X0130240Y0045001D01*
X0130189Y0045298D01*
X0130130Y0045594D01*
X0130064Y0045888D01*
X0129991Y0046181D01*
X0129911Y0046471D01*
X0129824Y0046760D01*
X0129730Y0047046D01*
X0129629Y0047330D01*
X0129521Y0047612D01*
X0129406Y0047891D01*
X0129285Y0048167D01*
X0129156Y0048439D01*
X0129022Y0048709D01*
X0128880Y0048975D01*
X0128732Y0049238D01*
X0128578Y0049497D01*
X0128417Y0049752D01*
X0128251Y0050003D01*
X0128078Y0050250D01*
X0127899Y0050493D01*
X0127714Y0050731D01*
X0127524Y0050965D01*
X0127328Y0051194D01*
X0127126Y0051418D01*
X0126919Y0051637D01*
X0126707Y0051851D01*
X0126489Y0052060D01*
X0126267Y0052263D01*
X0126040Y0052461D01*
X0125807Y0052653D01*
X0125571Y0052840D01*
X0125329Y0053021D01*
X0125084Y0053195D01*
X0124834Y0053364D01*
X0124580Y0053527D01*
X0124322Y0053683D01*
X0124061Y0053833D01*
X0123796Y0053976D01*
X0123527Y0054113D01*
X0123255Y0054244D01*
X0122980Y0054368D01*
X0122703Y0054485D01*
X0122422Y0054595D01*
X0122139Y0054698D01*
X0121853Y0054795D01*
X0121842Y0054759D01*
X0122127Y0054663D01*
X0122409Y0054560D01*
X0122689Y0054450D01*
X0122966Y0054334D01*
X0123240Y0054210D01*
X0123511Y0054080D01*
X0123778Y0053944D01*
X0124043Y0053801D01*
X0124303Y0053651D01*
X0124560Y0053495D01*
X0124814Y0053333D01*
X0125063Y0053165D01*
X0125307Y0052991D01*
X0125548Y0052810D01*
X0125784Y0052624D01*
X0126016Y0052433D01*
X0126242Y0052235D01*
X0126464Y0052033D01*
X0126681Y0051825D01*
X0126893Y0051611D01*
X0127099Y0051393D01*
X0127300Y0051169D01*
X0127496Y0050941D01*
X0127685Y0050708D01*
X0127870Y0050470D01*
X0128048Y0050228D01*
X0128220Y0049982D01*
X0128386Y0049732D01*
X0128546Y0049477D01*
X0128700Y0049219D01*
X0128848Y0048957D01*
X0128989Y0048692D01*
X0129123Y0048423D01*
X0129251Y0048151D01*
X0129372Y0047876D01*
X0129487Y0047598D01*
X0129594Y0047318D01*
X0129695Y0047034D01*
X0129789Y0046749D01*
X0129876Y0046461D01*
X0129956Y0046171D01*
X0130028Y0045880D01*
X0130094Y0045586D01*
X0130152Y0045292D01*
X0130203Y0044995D01*
X0130247Y0044698D01*
X0130284Y0044400D01*
X0130313Y0044101D01*
X0130335Y0043801D01*
X0130350Y0043501D01*
X0130357Y0043200D01*
X0130357Y0042900D01*
X0130350Y0042599D01*
X0130335Y0042299D01*
X0130313Y0041999D01*
X0130284Y0041700D01*
X0130247Y0041402D01*
X0130203Y0041105D01*
X0130152Y0040808D01*
X0130094Y0040514D01*
X0130028Y0040220D01*
X0129956Y0039929D01*
X0129876Y0039639D01*
X0129789Y0039351D01*
X0129695Y0039066D01*
X0129594Y0038782D01*
X0129487Y0038502D01*
X0129372Y0038224D01*
X0129251Y0037949D01*
X0129123Y0037677D01*
X0128989Y0037408D01*
X0128848Y0037143D01*
X0128700Y0036881D01*
X0128546Y0036623D01*
X0128386Y0036368D01*
X0128220Y0036118D01*
X0128048Y0035872D01*
X0127870Y0035630D01*
X0127685Y0035392D01*
X0127496Y0035159D01*
X0127300Y0034931D01*
X0127099Y0034707D01*
X0126893Y0034489D01*
X0126681Y0034275D01*
X0126464Y0034067D01*
X0126242Y0033865D01*
X0126016Y0033667D01*
X0125784Y0033476D01*
X0125548Y0033290D01*
X0125307Y0033109D01*
X0125063Y0032935D01*
X0124814Y0032767D01*
X0124560Y0032605D01*
X0124303Y0032449D01*
X0124043Y0032299D01*
X0123778Y0032156D01*
X0123511Y0032020D01*
X0123240Y0031890D01*
X0122966Y0031766D01*
X0122689Y0031650D01*
X0122409Y0031540D01*
X0122127Y0031437D01*
X0121842Y0031341D01*
X0121830Y0031376D01*
X0122114Y0031472D01*
X0122396Y0031574D01*
X0122675Y0031684D01*
X0122951Y0031800D01*
X0123224Y0031923D01*
X0123494Y0032053D01*
X0123761Y0032189D01*
X0124025Y0032332D01*
X0124285Y0032481D01*
X0124541Y0032636D01*
X0124793Y0032798D01*
X0125042Y0032966D01*
X0125286Y0033139D01*
X0125526Y0033319D01*
X0125761Y0033504D01*
X0125992Y0033695D01*
X0126218Y0033892D01*
X0126439Y0034094D01*
X0126655Y0034302D01*
X0126866Y0034515D01*
X0127072Y0034732D01*
X0127272Y0034955D01*
X0127467Y0035183D01*
X0127656Y0035415D01*
X0127840Y0035652D01*
X0128018Y0035893D01*
X0128190Y0036139D01*
X0128355Y0036388D01*
X0128515Y0036642D01*
X0128668Y0036899D01*
X0128815Y0037160D01*
X0128956Y0037425D01*
X0129090Y0037693D01*
X0129217Y0037964D01*
X0129338Y0038238D01*
X0129452Y0038515D01*
X0129560Y0038795D01*
X0129660Y0039078D01*
X0129754Y0039362D01*
X0129840Y0039649D01*
X0129920Y0039938D01*
X0129992Y0040229D01*
X0130058Y0040521D01*
X0130116Y0040815D01*
X0130167Y0041110D01*
X0130210Y0041407D01*
X0130247Y0041704D01*
X0130276Y0042002D01*
X0130298Y0042301D01*
X0130313Y0042601D01*
X0130320Y0042900D01*
X0130320Y0043200D01*
X0130313Y0043499D01*
X0130298Y0043799D01*
X0130276Y0044098D01*
X0130247Y0044396D01*
X0130210Y0044693D01*
X0130167Y0044990D01*
X0130116Y0045285D01*
X0130058Y0045579D01*
X0129992Y0045871D01*
X0129920Y0046162D01*
X0129840Y0046451D01*
X0129754Y0046738D01*
X0129660Y0047022D01*
X0129560Y0047305D01*
X0129452Y0047585D01*
X0129338Y0047862D01*
X0129217Y0048136D01*
X0129090Y0048407D01*
X0128956Y0048675D01*
X0128815Y0048940D01*
X0128668Y0049201D01*
X0128515Y0049458D01*
X0128355Y0049712D01*
X0128190Y0049961D01*
X0128018Y0050207D01*
X0127840Y0050448D01*
X0127656Y0050685D01*
X0127467Y0050917D01*
X0127272Y0051145D01*
X0127072Y0051368D01*
X0126866Y0051585D01*
X0126655Y0051798D01*
X0126439Y0052006D01*
X0126218Y0052208D01*
X0125992Y0052405D01*
X0125761Y0052596D01*
X0125526Y0052781D01*
X0125286Y0052961D01*
X0125042Y0053134D01*
X0124793Y0053302D01*
X0124541Y0053464D01*
X0124285Y0053619D01*
X0124025Y0053768D01*
X0123761Y0053911D01*
X0123494Y0054047D01*
X0123224Y0054177D01*
X0122951Y0054300D01*
X0122675Y0054416D01*
X0122396Y0054526D01*
X0122114Y0054628D01*
X0121830Y0054724D01*
X0121819Y0054689D01*
X0122102Y0054593D01*
X0122383Y0054491D01*
X0122661Y0054382D01*
X0122936Y0054266D01*
X0123209Y0054143D01*
X0123478Y0054014D01*
X0123744Y0053878D01*
X0124007Y0053736D01*
X0124266Y0053587D01*
X0124521Y0053432D01*
X0124773Y0053271D01*
X0125020Y0053104D01*
X0125264Y0052931D01*
X0125503Y0052752D01*
X0125738Y0052567D01*
X0125968Y0052376D01*
X0126193Y0052180D01*
X0126414Y0051979D01*
X0126629Y0051772D01*
X0126840Y0051560D01*
X0127045Y0051343D01*
X0127245Y0051120D01*
X0127439Y0050894D01*
X0127628Y0050662D01*
X0127811Y0050426D01*
X0127988Y0050185D01*
X0128159Y0049940D01*
X0128324Y0049692D01*
X0128483Y0049439D01*
X0128636Y0049182D01*
X0128783Y0048922D01*
X0128923Y0048658D01*
X0129057Y0048391D01*
X0129184Y0048120D01*
X0129304Y0047847D01*
X0129418Y0047571D01*
X0129525Y0047292D01*
X0129625Y0047010D01*
X0129718Y0046727D01*
X0129805Y0046441D01*
X0129884Y0046153D01*
X0129956Y0045863D01*
X0130021Y0045571D01*
X0130079Y0045278D01*
X0130130Y0044984D01*
X0130174Y0044688D01*
X0130210Y0044392D01*
X0130239Y0044094D01*
X0130261Y0043796D01*
X0130276Y0043498D01*
X0130283Y0043199D01*
X0130283Y0042901D01*
X0130276Y0042602D01*
X0130261Y0042304D01*
X0130239Y0042006D01*
X0130210Y0041708D01*
X0130174Y0041412D01*
X0130130Y0041116D01*
X0130079Y0040822D01*
X0130021Y0040529D01*
X0129956Y0040237D01*
X0129884Y0039947D01*
X0129805Y0039659D01*
X0129718Y0039373D01*
X0129625Y0039090D01*
X0129525Y0038808D01*
X0129418Y0038529D01*
X0129304Y0038253D01*
X0129184Y0037980D01*
X0129057Y0037709D01*
X0128923Y0037442D01*
X0128783Y0037178D01*
X0128636Y0036918D01*
X0128483Y0036661D01*
X0128324Y0036408D01*
X0128159Y0036160D01*
X0127988Y0035915D01*
X0127811Y0035674D01*
X0127628Y0035438D01*
X0127439Y0035206D01*
X0127245Y0034980D01*
X0127045Y0034757D01*
X0126840Y0034540D01*
X0126629Y0034328D01*
X0126414Y0034121D01*
X0126193Y0033920D01*
X0125968Y0033724D01*
X0125738Y0033533D01*
X0125503Y0033348D01*
X0125264Y0033169D01*
X0125020Y0032996D01*
X0124773Y0032829D01*
X0124521Y0032668D01*
X0124266Y0032513D01*
X0124007Y0032364D01*
X0123744Y0032222D01*
X0123478Y0032086D01*
X0123209Y0031957D01*
X0122936Y0031834D01*
X0122661Y0031718D01*
X0122383Y0031609D01*
X0122102Y0031507D01*
X0121819Y0031411D01*
X0121808Y0031446D01*
X0122090Y0031542D01*
X0122370Y0031644D01*
X0122647Y0031752D01*
X0122922Y0031868D01*
X0123193Y0031990D01*
X0123462Y0032119D01*
X0123727Y0032255D01*
X0123989Y0032396D01*
X0124247Y0032545D01*
X0124502Y0032699D01*
X0124753Y0032860D01*
X0124999Y0033026D01*
X0125242Y0033199D01*
X0125481Y0033378D01*
X0125714Y0033562D01*
X0125944Y0033752D01*
X0126169Y0033947D01*
X0126388Y0034148D01*
X0126603Y0034355D01*
X0126813Y0034566D01*
X0127018Y0034783D01*
X0127217Y0035004D01*
X0127410Y0035230D01*
X0127599Y0035461D01*
X0127781Y0035697D01*
X0127958Y0035936D01*
X0128128Y0036180D01*
X0128293Y0036429D01*
X0128452Y0036681D01*
X0128604Y0036936D01*
X0128750Y0037196D01*
X0128890Y0037459D01*
X0129023Y0037725D01*
X0129150Y0037995D01*
X0129270Y0038267D01*
X0129384Y0038543D01*
X0129490Y0038821D01*
X0129590Y0039102D01*
X0129683Y0039384D01*
X0129769Y0039670D01*
X0129848Y0039957D01*
X0129920Y0040246D01*
X0129985Y0040536D01*
X0130043Y0040829D01*
X0130094Y0041122D01*
X0130137Y0041417D01*
X0130173Y0041712D01*
X0130202Y0042009D01*
X0130224Y0042306D01*
X0130239Y0042603D01*
X0130246Y0042901D01*
X0130246Y0043199D01*
X0130239Y0043497D01*
X0130224Y0043794D01*
X0130202Y0044091D01*
X0130173Y0044388D01*
X0130137Y0044683D01*
X0130094Y0044978D01*
X0130043Y0045271D01*
X0129985Y0045564D01*
X0129920Y0045854D01*
X0129848Y0046143D01*
X0129769Y0046430D01*
X0129683Y0046716D01*
X0129590Y0046998D01*
X0129490Y0047279D01*
X0129384Y0047557D01*
X0129270Y0047833D01*
X0129150Y0048105D01*
X0129023Y0048375D01*
X0128890Y0048641D01*
X0128750Y0048904D01*
X0128604Y0049164D01*
X0128452Y0049419D01*
X0128293Y0049671D01*
X0128128Y0049920D01*
X0127958Y0050164D01*
X0127781Y0050403D01*
X0127599Y0050639D01*
X0127410Y0050870D01*
X0127217Y0051096D01*
X0127018Y0051317D01*
X0126813Y0051534D01*
X0126603Y0051745D01*
X0126388Y0051952D01*
X0126169Y0052153D01*
X0125944Y0052348D01*
X0125714Y0052538D01*
X0125481Y0052722D01*
X0125242Y0052901D01*
X0124999Y0053074D01*
X0124753Y0053240D01*
X0124502Y0053401D01*
X0124247Y0053555D01*
X0123989Y0053704D01*
X0123727Y0053845D01*
X0123462Y0053981D01*
X0123193Y0054110D01*
X0122922Y0054232D01*
X0122647Y0054348D01*
X0122370Y0054456D01*
X0122090Y0054558D01*
X0121808Y0054654D01*
X0121796Y0054618D01*
X0122078Y0054524D01*
X0122357Y0054422D01*
X0122633Y0054313D01*
X0122907Y0054198D01*
X0123178Y0054076D01*
X0123445Y0053948D01*
X0123710Y0053813D01*
X0123971Y0053671D01*
X0124228Y0053523D01*
X0124482Y0053369D01*
X0124732Y0053209D01*
X0124978Y0053043D01*
X0125220Y0052871D01*
X0125458Y0052693D01*
X0125691Y0052509D01*
X0125920Y0052320D01*
X0126144Y0052125D01*
X0126363Y0051925D01*
X0126577Y0051719D01*
X0126786Y0051508D01*
X0126990Y0051292D01*
X0127189Y0051072D01*
X0127382Y0050846D01*
X0127570Y0050616D01*
X0127752Y0050381D01*
X0127928Y0050142D01*
X0128098Y0049899D01*
X0128262Y0049651D01*
X0128420Y0049400D01*
X0128572Y0049145D01*
X0128718Y0048886D01*
X0128857Y0048624D01*
X0128990Y0048358D01*
X0129116Y0048090D01*
X0129236Y0047818D01*
X0129349Y0047543D01*
X0129456Y0047266D01*
X0129555Y0046986D01*
X0129648Y0046704D01*
X0129734Y0046420D01*
X0129812Y0046134D01*
X0129884Y0045846D01*
X0129949Y0045556D01*
X0130007Y0045265D01*
X0130057Y0044972D01*
X0130100Y0044678D01*
X0130137Y0044384D01*
X0130166Y0044088D01*
X0130187Y0043792D01*
X0130202Y0043495D01*
X0130209Y0043198D01*
X0130209Y0042902D01*
X0130202Y0042605D01*
X0130187Y0042308D01*
X0130166Y0042012D01*
X0130137Y0041716D01*
X0130100Y0041422D01*
X0130057Y0041128D01*
X0130007Y0040835D01*
X0129949Y0040544D01*
X0129884Y0040254D01*
X0129812Y0039966D01*
X0129734Y0039680D01*
X0129648Y0039396D01*
X0129555Y0039114D01*
X0129456Y0038834D01*
X0129349Y0038557D01*
X0129236Y0038282D01*
X0129116Y0038010D01*
X0128990Y0037742D01*
X0128857Y0037476D01*
X0128718Y0037214D01*
X0128572Y0036955D01*
X0128420Y0036700D01*
X0128262Y0036449D01*
X0128098Y0036201D01*
X0127928Y0035958D01*
X0127752Y0035719D01*
X0127570Y0035484D01*
X0127382Y0035254D01*
X0127189Y0035028D01*
X0126990Y0034808D01*
X0126786Y0034592D01*
X0126577Y0034381D01*
X0126363Y0034175D01*
X0126144Y0033975D01*
X0125920Y0033780D01*
X0125691Y0033591D01*
X0125458Y0033407D01*
X0125220Y0033229D01*
X0124978Y0033057D01*
X0124732Y0032891D01*
X0124482Y0032731D01*
X0124228Y0032577D01*
X0123971Y0032429D01*
X0123710Y0032287D01*
X0123445Y0032152D01*
X0123178Y0032024D01*
X0122907Y0031902D01*
X0122633Y0031787D01*
X0122357Y0031678D01*
X0122078Y0031576D01*
X0121796Y0031482D01*
X0121785Y0031517D01*
X0122066Y0031611D01*
X0122344Y0031713D01*
X0122619Y0031821D01*
X0122892Y0031936D01*
X0123162Y0032058D01*
X0123429Y0032186D01*
X0123693Y0032320D01*
X0123953Y0032461D01*
X0124210Y0032608D01*
X0124463Y0032762D01*
X0124712Y0032922D01*
X0124957Y0033087D01*
X0125199Y0033259D01*
X0125435Y0033436D01*
X0125668Y0033620D01*
X0125896Y0033808D01*
X0126119Y0034003D01*
X0126338Y0034202D01*
X0126551Y0034407D01*
X0126760Y0034618D01*
X0126963Y0034833D01*
X0127161Y0035053D01*
X0127354Y0035278D01*
X0127541Y0035507D01*
X0127722Y0035741D01*
X0127898Y0035980D01*
X0128067Y0036222D01*
X0128231Y0036469D01*
X0128389Y0036719D01*
X0128540Y0036974D01*
X0128685Y0037232D01*
X0128824Y0037493D01*
X0128957Y0037758D01*
X0129083Y0038026D01*
X0129202Y0038296D01*
X0129315Y0038570D01*
X0129421Y0038847D01*
X0129520Y0039126D01*
X0129613Y0039407D01*
X0129698Y0039690D01*
X0129777Y0039976D01*
X0129848Y0040263D01*
X0129913Y0040552D01*
X0129970Y0040842D01*
X0130021Y0041134D01*
X0130064Y0041427D01*
X0130100Y0041721D01*
X0130129Y0042015D01*
X0130150Y0042310D01*
X0130165Y0042606D01*
X0130172Y0042902D01*
X0130172Y0043198D01*
X0130165Y0043494D01*
X0130150Y0043790D01*
X0130129Y0044085D01*
X0130100Y0044379D01*
X0130064Y0044673D01*
X0130021Y0044966D01*
X0129970Y0045258D01*
X0129913Y0045548D01*
X0129848Y0045837D01*
X0129777Y0046124D01*
X0129698Y0046410D01*
X0129613Y0046693D01*
X0129520Y0046974D01*
X0129421Y0047253D01*
X0129315Y0047530D01*
X0129202Y0047804D01*
X0129083Y0048074D01*
X0128957Y0048342D01*
X0128824Y0048607D01*
X0128685Y0048868D01*
X0128540Y0049126D01*
X0128389Y0049381D01*
X0128231Y0049631D01*
X0128067Y0049878D01*
X0127898Y0050120D01*
X0127722Y0050359D01*
X0127541Y0050593D01*
X0127354Y0050822D01*
X0127161Y0051047D01*
X0126963Y0051267D01*
X0126760Y0051482D01*
X0126551Y0051693D01*
X0126338Y0051898D01*
X0126119Y0052097D01*
X0125896Y0052292D01*
X0125668Y0052480D01*
X0125435Y0052664D01*
X0125199Y0052841D01*
X0124957Y0053013D01*
X0124712Y0053178D01*
X0124463Y0053338D01*
X0124210Y0053492D01*
X0123953Y0053639D01*
X0123693Y0053780D01*
X0123429Y0053914D01*
X0123162Y0054042D01*
X0122892Y0054164D01*
X0122619Y0054279D01*
X0122344Y0054387D01*
X0122066Y0054489D01*
X0121785Y0054583D01*
X0121774Y0054548D01*
X0122053Y0054454D01*
X0122331Y0054353D01*
X0122605Y0054245D01*
X0122877Y0054130D01*
X0123146Y0054009D01*
X0123412Y0053881D01*
X0123675Y0053747D01*
X0123935Y0053606D01*
X0124191Y0053460D01*
X0124443Y0053307D01*
X0124692Y0053147D01*
X0124936Y0052982D01*
X0125177Y0052811D01*
X0125413Y0052634D01*
X0125645Y0052452D01*
X0125872Y0052263D01*
X0126095Y0052070D01*
X0126313Y0051871D01*
X0126525Y0051666D01*
X0126733Y0051457D01*
X0126936Y0051242D01*
X0127133Y0051023D01*
X0127325Y0050799D01*
X0127512Y0050570D01*
X0127693Y0050336D01*
X0127868Y0050099D01*
X0128037Y0049857D01*
X0128200Y0049611D01*
X0128357Y0049361D01*
X0128508Y0049108D01*
X0128653Y0048851D01*
X0128791Y0048590D01*
X0128924Y0048326D01*
X0129049Y0048059D01*
X0129168Y0047789D01*
X0129281Y0047516D01*
X0129386Y0047241D01*
X0129485Y0046963D01*
X0129577Y0046682D01*
X0129663Y0046400D01*
X0129741Y0046115D01*
X0129812Y0045829D01*
X0129877Y0045541D01*
X0129934Y0045251D01*
X0129984Y0044960D01*
X0130027Y0044668D01*
X0130063Y0044375D01*
X0130092Y0044082D01*
X0130113Y0043787D01*
X0130128Y0043493D01*
X0130135Y0043198D01*
X0130135Y0042902D01*
X0130128Y0042607D01*
X0130113Y0042313D01*
X0130092Y0042018D01*
X0130063Y0041725D01*
X0130027Y0041432D01*
X0129984Y0041140D01*
X0129934Y0040849D01*
X0129877Y0040559D01*
X0129812Y0040271D01*
X0129741Y0039985D01*
X0129663Y0039700D01*
X0129577Y0039418D01*
X0129485Y0039137D01*
X0129386Y0038859D01*
X0129281Y0038584D01*
X0129168Y0038311D01*
X0129049Y0038041D01*
X0128924Y0037774D01*
X0128791Y0037510D01*
X0128653Y0037249D01*
X0128508Y0036992D01*
X0128357Y0036739D01*
X0128200Y0036489D01*
X0128037Y0036243D01*
X0127868Y0036001D01*
X0127693Y0035764D01*
X0127512Y0035530D01*
X0127325Y0035301D01*
X0127133Y0035077D01*
X0126936Y0034858D01*
X0126733Y0034643D01*
X0126525Y0034434D01*
X0126313Y0034229D01*
X0126095Y0034030D01*
X0125872Y0033837D01*
X0125645Y0033648D01*
X0125413Y0033466D01*
X0125177Y0033289D01*
X0124936Y0033118D01*
X0124692Y0032953D01*
X0124443Y0032793D01*
X0124191Y0032640D01*
X0123935Y0032494D01*
X0123675Y0032353D01*
X0123412Y0032219D01*
X0123146Y0032091D01*
X0122877Y0031970D01*
X0122605Y0031855D01*
X0122331Y0031747D01*
X0122053Y0031646D01*
X0121774Y0031552D01*
X0121762Y0031587D01*
X0122041Y0031681D01*
X0122318Y0031782D01*
X0122591Y0031890D01*
X0122863Y0032004D01*
X0123131Y0032125D01*
X0123396Y0032252D01*
X0123658Y0032386D01*
X0123917Y0032526D01*
X0124172Y0032672D01*
X0124424Y0032825D01*
X0124671Y0032983D01*
X0124915Y0033148D01*
X0125155Y0033319D01*
X0125390Y0033495D01*
X0125622Y0033677D01*
X0125848Y0033865D01*
X0126070Y0034058D01*
X0126287Y0034257D01*
X0126500Y0034460D01*
X0126707Y0034669D01*
X0126909Y0034883D01*
X0127106Y0035102D01*
X0127297Y0035325D01*
X0127483Y0035553D01*
X0127663Y0035786D01*
X0127838Y0036023D01*
X0128006Y0036264D01*
X0128169Y0036509D01*
X0128326Y0036758D01*
X0128476Y0037011D01*
X0128621Y0037267D01*
X0128759Y0037527D01*
X0128890Y0037790D01*
X0129015Y0038056D01*
X0129134Y0038326D01*
X0129246Y0038598D01*
X0129352Y0038872D01*
X0129450Y0039149D01*
X0129542Y0039429D01*
X0129627Y0039711D01*
X0129705Y0039994D01*
X0129776Y0040280D01*
X0129840Y0040567D01*
X0129897Y0040856D01*
X0129948Y0041146D01*
X0129990Y0041437D01*
X0130026Y0041729D01*
X0130055Y0042021D01*
X0130077Y0042315D01*
X0130091Y0042609D01*
X0130098Y0042903D01*
X0130098Y0043197D01*
X0130091Y0043491D01*
X0130077Y0043785D01*
X0130055Y0044079D01*
X0130026Y0044371D01*
X0129990Y0044663D01*
X0129948Y0044954D01*
X0129897Y0045244D01*
X0129840Y0045533D01*
X0129776Y0045820D01*
X0129705Y0046106D01*
X0129627Y0046389D01*
X0129542Y0046671D01*
X0129450Y0046951D01*
X0129352Y0047228D01*
X0129246Y0047502D01*
X0129134Y0047774D01*
X0129015Y0048044D01*
X0128890Y0048310D01*
X0128759Y0048573D01*
X0128621Y0048833D01*
X0128476Y0049089D01*
X0128326Y0049342D01*
X0128169Y0049591D01*
X0128006Y0049836D01*
X0127838Y0050077D01*
X0127663Y0050314D01*
X0127483Y0050547D01*
X0127297Y0050775D01*
X0127106Y0050998D01*
X0126909Y0051217D01*
X0126707Y0051431D01*
X0126500Y0051640D01*
X0126287Y0051843D01*
X0126070Y0052042D01*
X0125848Y0052235D01*
X0125622Y0052423D01*
X0125390Y0052605D01*
X0125155Y0052781D01*
X0124915Y0052952D01*
X0124671Y0053117D01*
X0124424Y0053275D01*
X0124172Y0053428D01*
X0123917Y0053574D01*
X0123658Y0053714D01*
X0123396Y0053848D01*
X0123131Y0053975D01*
X0122863Y0054096D01*
X0122591Y0054210D01*
X0122318Y0054318D01*
X0122041Y0054419D01*
X0121762Y0054513D01*
X0114236Y0054829D02*
X0114346Y0054487D01*
X0114068Y0054393D01*
X0113792Y0054293D01*
X0113519Y0054185D01*
X0113248Y0054071D01*
X0112980Y0053951D01*
X0112716Y0053824D01*
X0112454Y0053690D01*
X0112196Y0053551D01*
X0111942Y0053404D01*
X0111691Y0053252D01*
X0111443Y0053094D01*
X0111200Y0052930D01*
X0110961Y0052759D01*
X0110726Y0052583D01*
X0110495Y0052402D01*
X0110269Y0052215D01*
X0110048Y0052022D01*
X0109831Y0051824D01*
X0109619Y0051620D01*
X0109413Y0051412D01*
X0109211Y0051199D01*
X0109015Y0050980D01*
X0108824Y0050757D01*
X0108638Y0050530D01*
X0108458Y0050298D01*
X0108284Y0050061D01*
X0108116Y0049821D01*
X0107954Y0049576D01*
X0107797Y0049328D01*
X0107647Y0049076D01*
X0107503Y0048820D01*
X0107365Y0048561D01*
X0107234Y0048298D01*
X0107109Y0048032D01*
X0106991Y0047764D01*
X0106879Y0047492D01*
X0106774Y0047218D01*
X0106675Y0046942D01*
X0106584Y0046663D01*
X0106499Y0046382D01*
X0106421Y0046099D01*
X0106350Y0045814D01*
X0106286Y0045527D01*
X0106229Y0045239D01*
X0106179Y0044950D01*
X0106136Y0044660D01*
X0106101Y0044368D01*
X0106072Y0044076D01*
X0106050Y0043783D01*
X0106036Y0043490D01*
X0106029Y0043197D01*
X0106029Y0042903D01*
X0106036Y0042610D01*
X0106050Y0042317D01*
X0106072Y0042024D01*
X0106101Y0041732D01*
X0106136Y0041440D01*
X0106179Y0041150D01*
X0106229Y0040861D01*
X0106286Y0040573D01*
X0106350Y0040286D01*
X0106421Y0040001D01*
X0106499Y0039718D01*
X0106584Y0039437D01*
X0106675Y0039158D01*
X0106774Y0038882D01*
X0106879Y0038608D01*
X0106991Y0038336D01*
X0107109Y0038068D01*
X0107234Y0037802D01*
X0107365Y0037539D01*
X0107503Y0037280D01*
X0107647Y0037024D01*
X0107797Y0036772D01*
X0107954Y0036524D01*
X0108116Y0036279D01*
X0108284Y0036039D01*
X0108458Y0035802D01*
X0108638Y0035570D01*
X0108824Y0035343D01*
X0109015Y0035120D01*
X0109211Y0034901D01*
X0109413Y0034688D01*
X0109619Y0034480D01*
X0109831Y0034276D01*
X0110048Y0034078D01*
X0110269Y0033885D01*
X0110495Y0033698D01*
X0110726Y0033517D01*
X0110961Y0033341D01*
X0111200Y0033170D01*
X0111443Y0033006D01*
X0111691Y0032848D01*
X0111942Y0032696D01*
X0112196Y0032549D01*
X0112454Y0032410D01*
X0112716Y0032276D01*
X0112980Y0032149D01*
X0113248Y0032029D01*
X0113519Y0031915D01*
X0113792Y0031807D01*
X0114068Y0031707D01*
X0114346Y0031613D01*
X0114236Y0031271D01*
X0114235Y0031270D01*
X0113949Y0031367D01*
X0113665Y0031470D01*
X0113384Y0031581D01*
X0113105Y0031698D01*
X0112829Y0031823D01*
X0112557Y0031953D01*
X0112287Y0032091D01*
X0112021Y0032235D01*
X0111759Y0032385D01*
X0111501Y0032542D01*
X0111246Y0032705D01*
X0110995Y0032874D01*
X0110749Y0033050D01*
X0110507Y0033231D01*
X0110269Y0033418D01*
X0110037Y0033611D01*
X0109808Y0033809D01*
X0109585Y0034013D01*
X0109367Y0034223D01*
X0109154Y0034437D01*
X0108947Y0034657D01*
X0108744Y0034882D01*
X0108548Y0035112D01*
X0108357Y0035346D01*
X0108171Y0035585D01*
X0107992Y0035828D01*
X0107819Y0036076D01*
X0107652Y0036328D01*
X0107490Y0036584D01*
X0107336Y0036844D01*
X0107187Y0037107D01*
X0107046Y0037374D01*
X0106910Y0037645D01*
X0106782Y0037918D01*
X0106660Y0038195D01*
X0106544Y0038474D01*
X0106436Y0038757D01*
X0106335Y0039042D01*
X0106240Y0039329D01*
X0106153Y0039618D01*
X0106073Y0039910D01*
X0106000Y0040203D01*
X0105934Y0040498D01*
X0105875Y0040795D01*
X0105824Y0041093D01*
X0105780Y0041392D01*
X0105743Y0041692D01*
X0105713Y0041993D01*
X0105691Y0042295D01*
X0105676Y0042597D01*
X0105669Y0042899D01*
X0105669Y0043201D01*
X0105676Y0043503D01*
X0105691Y0043805D01*
X0105713Y0044107D01*
X0105743Y0044408D01*
X0105780Y0044708D01*
X0105824Y0045007D01*
X0105875Y0045305D01*
X0105934Y0045602D01*
X0106000Y0045897D01*
X0106073Y0046190D01*
X0106153Y0046482D01*
X0106240Y0046771D01*
X0106335Y0047058D01*
X0106436Y0047343D01*
X0106544Y0047626D01*
X0106660Y0047905D01*
X0106782Y0048182D01*
X0106910Y0048455D01*
X0107046Y0048726D01*
X0107187Y0048993D01*
X0107336Y0049256D01*
X0107490Y0049516D01*
X0107652Y0049772D01*
X0107819Y0050024D01*
X0107992Y0050272D01*
X0108171Y0050515D01*
X0108357Y0050754D01*
X0108548Y0050988D01*
X0108744Y0051218D01*
X0108947Y0051443D01*
X0109154Y0051663D01*
X0109367Y0051877D01*
X0109585Y0052087D01*
X0109808Y0052291D01*
X0110037Y0052489D01*
X0110269Y0052682D01*
X0110507Y0052869D01*
X0110749Y0053050D01*
X0110995Y0053226D01*
X0111246Y0053395D01*
X0111501Y0053558D01*
X0111759Y0053715D01*
X0112021Y0053865D01*
X0112287Y0054009D01*
X0112557Y0054147D01*
X0112829Y0054277D01*
X0113105Y0054402D01*
X0113384Y0054519D01*
X0113665Y0054630D01*
X0113949Y0054733D01*
X0114235Y0054830D01*
X0114247Y0054795D01*
X0113961Y0054698D01*
X0113678Y0054595D01*
X0113397Y0054485D01*
X0113120Y0054368D01*
X0112845Y0054244D01*
X0112573Y0054113D01*
X0112304Y0053976D01*
X0112039Y0053833D01*
X0111778Y0053683D01*
X0111520Y0053527D01*
X0111266Y0053364D01*
X0111016Y0053195D01*
X0110771Y0053021D01*
X0110529Y0052840D01*
X0110293Y0052653D01*
X0110060Y0052461D01*
X0109833Y0052263D01*
X0109611Y0052060D01*
X0109393Y0051851D01*
X0109181Y0051637D01*
X0108974Y0051418D01*
X0108772Y0051194D01*
X0108576Y0050965D01*
X0108386Y0050731D01*
X0108201Y0050493D01*
X0108022Y0050250D01*
X0107849Y0050003D01*
X0107683Y0049752D01*
X0107522Y0049497D01*
X0107368Y0049238D01*
X0107220Y0048975D01*
X0107078Y0048709D01*
X0106944Y0048439D01*
X0106815Y0048167D01*
X0106694Y0047891D01*
X0106579Y0047612D01*
X0106471Y0047330D01*
X0106370Y0047046D01*
X0106276Y0046760D01*
X0106189Y0046471D01*
X0106109Y0046181D01*
X0106036Y0045888D01*
X0105970Y0045594D01*
X0105911Y0045298D01*
X0105860Y0045001D01*
X0105816Y0044703D01*
X0105779Y0044404D01*
X0105750Y0044104D01*
X0105728Y0043803D01*
X0105713Y0043502D01*
X0105706Y0043201D01*
X0105706Y0042899D01*
X0105713Y0042598D01*
X0105728Y0042297D01*
X0105750Y0041996D01*
X0105779Y0041696D01*
X0105816Y0041397D01*
X0105860Y0041099D01*
X0105911Y0040802D01*
X0105970Y0040506D01*
X0106036Y0040212D01*
X0106109Y0039919D01*
X0106189Y0039629D01*
X0106276Y0039340D01*
X0106370Y0039054D01*
X0106471Y0038770D01*
X0106579Y0038488D01*
X0106694Y0038209D01*
X0106815Y0037933D01*
X0106944Y0037661D01*
X0107078Y0037391D01*
X0107220Y0037125D01*
X0107368Y0036862D01*
X0107522Y0036603D01*
X0107683Y0036348D01*
X0107849Y0036097D01*
X0108022Y0035850D01*
X0108201Y0035607D01*
X0108386Y0035369D01*
X0108576Y0035135D01*
X0108772Y0034906D01*
X0108974Y0034682D01*
X0109181Y0034463D01*
X0109393Y0034249D01*
X0109611Y0034040D01*
X0109833Y0033837D01*
X0110060Y0033639D01*
X0110293Y0033447D01*
X0110529Y0033260D01*
X0110771Y0033079D01*
X0111016Y0032905D01*
X0111266Y0032736D01*
X0111520Y0032573D01*
X0111778Y0032417D01*
X0112039Y0032267D01*
X0112304Y0032124D01*
X0112573Y0031987D01*
X0112845Y0031856D01*
X0113120Y0031732D01*
X0113397Y0031615D01*
X0113678Y0031505D01*
X0113961Y0031402D01*
X0114247Y0031305D01*
X0114258Y0031341D01*
X0113973Y0031437D01*
X0113691Y0031540D01*
X0113411Y0031650D01*
X0113134Y0031766D01*
X0112860Y0031890D01*
X0112589Y0032020D01*
X0112322Y0032156D01*
X0112057Y0032299D01*
X0111797Y0032449D01*
X0111540Y0032605D01*
X0111286Y0032767D01*
X0111037Y0032935D01*
X0110793Y0033109D01*
X0110552Y0033290D01*
X0110316Y0033476D01*
X0110084Y0033667D01*
X0109858Y0033865D01*
X0109636Y0034067D01*
X0109419Y0034275D01*
X0109207Y0034489D01*
X0109001Y0034707D01*
X0108800Y0034931D01*
X0108604Y0035159D01*
X0108415Y0035392D01*
X0108230Y0035630D01*
X0108052Y0035872D01*
X0107880Y0036118D01*
X0107714Y0036368D01*
X0107554Y0036623D01*
X0107400Y0036881D01*
X0107252Y0037143D01*
X0107111Y0037408D01*
X0106977Y0037677D01*
X0106849Y0037949D01*
X0106728Y0038224D01*
X0106613Y0038502D01*
X0106506Y0038782D01*
X0106405Y0039066D01*
X0106311Y0039351D01*
X0106224Y0039639D01*
X0106144Y0039929D01*
X0106072Y0040220D01*
X0106006Y0040514D01*
X0105948Y0040808D01*
X0105897Y0041105D01*
X0105853Y0041402D01*
X0105816Y0041700D01*
X0105787Y0041999D01*
X0105765Y0042299D01*
X0105750Y0042599D01*
X0105743Y0042900D01*
X0105743Y0043200D01*
X0105750Y0043501D01*
X0105765Y0043801D01*
X0105787Y0044101D01*
X0105816Y0044400D01*
X0105853Y0044698D01*
X0105897Y0044995D01*
X0105948Y0045292D01*
X0106006Y0045586D01*
X0106072Y0045880D01*
X0106144Y0046171D01*
X0106224Y0046461D01*
X0106311Y0046749D01*
X0106405Y0047034D01*
X0106506Y0047318D01*
X0106613Y0047598D01*
X0106728Y0047876D01*
X0106849Y0048151D01*
X0106977Y0048423D01*
X0107111Y0048692D01*
X0107252Y0048957D01*
X0107400Y0049219D01*
X0107554Y0049477D01*
X0107714Y0049732D01*
X0107880Y0049982D01*
X0108052Y0050228D01*
X0108230Y0050470D01*
X0108415Y0050708D01*
X0108604Y0050941D01*
X0108800Y0051169D01*
X0109001Y0051393D01*
X0109207Y0051611D01*
X0109419Y0051825D01*
X0109636Y0052033D01*
X0109858Y0052235D01*
X0110084Y0052433D01*
X0110316Y0052624D01*
X0110552Y0052810D01*
X0110793Y0052991D01*
X0111037Y0053165D01*
X0111286Y0053333D01*
X0111540Y0053495D01*
X0111797Y0053651D01*
X0112057Y0053801D01*
X0112322Y0053944D01*
X0112589Y0054080D01*
X0112860Y0054210D01*
X0113134Y0054334D01*
X0113411Y0054450D01*
X0113691Y0054560D01*
X0113973Y0054663D01*
X0114258Y0054759D01*
X0114270Y0054724D01*
X0113986Y0054628D01*
X0113704Y0054526D01*
X0113425Y0054416D01*
X0113149Y0054300D01*
X0112876Y0054177D01*
X0112606Y0054047D01*
X0112339Y0053911D01*
X0112075Y0053768D01*
X0111815Y0053619D01*
X0111559Y0053464D01*
X0111307Y0053302D01*
X0111058Y0053134D01*
X0110814Y0052961D01*
X0110574Y0052781D01*
X0110339Y0052596D01*
X0110108Y0052405D01*
X0109882Y0052208D01*
X0109661Y0052006D01*
X0109445Y0051798D01*
X0109234Y0051585D01*
X0109028Y0051368D01*
X0108828Y0051145D01*
X0108633Y0050917D01*
X0108444Y0050685D01*
X0108260Y0050448D01*
X0108082Y0050207D01*
X0107910Y0049961D01*
X0107745Y0049712D01*
X0107585Y0049458D01*
X0107432Y0049201D01*
X0107285Y0048940D01*
X0107144Y0048675D01*
X0107010Y0048407D01*
X0106883Y0048136D01*
X0106762Y0047862D01*
X0106648Y0047585D01*
X0106540Y0047305D01*
X0106440Y0047022D01*
X0106346Y0046738D01*
X0106260Y0046451D01*
X0106180Y0046162D01*
X0106108Y0045871D01*
X0106042Y0045579D01*
X0105984Y0045285D01*
X0105933Y0044990D01*
X0105890Y0044693D01*
X0105853Y0044396D01*
X0105824Y0044098D01*
X0105802Y0043799D01*
X0105787Y0043499D01*
X0105780Y0043200D01*
X0105780Y0042900D01*
X0105787Y0042601D01*
X0105802Y0042301D01*
X0105824Y0042002D01*
X0105853Y0041704D01*
X0105890Y0041407D01*
X0105933Y0041110D01*
X0105984Y0040815D01*
X0106042Y0040521D01*
X0106108Y0040229D01*
X0106180Y0039938D01*
X0106260Y0039649D01*
X0106346Y0039362D01*
X0106440Y0039078D01*
X0106540Y0038795D01*
X0106648Y0038515D01*
X0106762Y0038238D01*
X0106883Y0037964D01*
X0107010Y0037693D01*
X0107144Y0037425D01*
X0107285Y0037160D01*
X0107432Y0036899D01*
X0107585Y0036642D01*
X0107745Y0036388D01*
X0107910Y0036139D01*
X0108082Y0035893D01*
X0108260Y0035652D01*
X0108444Y0035415D01*
X0108633Y0035183D01*
X0108828Y0034955D01*
X0109028Y0034732D01*
X0109234Y0034515D01*
X0109445Y0034302D01*
X0109661Y0034094D01*
X0109882Y0033892D01*
X0110108Y0033695D01*
X0110339Y0033504D01*
X0110574Y0033319D01*
X0110814Y0033139D01*
X0111058Y0032966D01*
X0111307Y0032798D01*
X0111559Y0032636D01*
X0111815Y0032481D01*
X0112075Y0032332D01*
X0112339Y0032189D01*
X0112606Y0032053D01*
X0112876Y0031923D01*
X0113149Y0031800D01*
X0113425Y0031684D01*
X0113704Y0031574D01*
X0113986Y0031472D01*
X0114270Y0031376D01*
X0114281Y0031411D01*
X0113998Y0031507D01*
X0113717Y0031609D01*
X0113439Y0031718D01*
X0113164Y0031834D01*
X0112891Y0031957D01*
X0112622Y0032086D01*
X0112356Y0032222D01*
X0112093Y0032364D01*
X0111834Y0032513D01*
X0111579Y0032668D01*
X0111327Y0032829D01*
X0111080Y0032996D01*
X0110836Y0033169D01*
X0110597Y0033348D01*
X0110362Y0033533D01*
X0110132Y0033724D01*
X0109907Y0033920D01*
X0109686Y0034121D01*
X0109471Y0034328D01*
X0109260Y0034540D01*
X0109055Y0034757D01*
X0108855Y0034980D01*
X0108661Y0035206D01*
X0108472Y0035438D01*
X0108289Y0035674D01*
X0108112Y0035915D01*
X0107941Y0036160D01*
X0107776Y0036408D01*
X0107617Y0036661D01*
X0107464Y0036918D01*
X0107317Y0037178D01*
X0107177Y0037442D01*
X0107043Y0037709D01*
X0106916Y0037980D01*
X0106796Y0038253D01*
X0106682Y0038529D01*
X0106575Y0038808D01*
X0106475Y0039090D01*
X0106382Y0039373D01*
X0106295Y0039659D01*
X0106216Y0039947D01*
X0106144Y0040237D01*
X0106079Y0040529D01*
X0106021Y0040822D01*
X0105970Y0041116D01*
X0105926Y0041412D01*
X0105890Y0041708D01*
X0105861Y0042006D01*
X0105839Y0042304D01*
X0105824Y0042602D01*
X0105817Y0042901D01*
X0105817Y0043199D01*
X0105824Y0043498D01*
X0105839Y0043796D01*
X0105861Y0044094D01*
X0105890Y0044392D01*
X0105926Y0044688D01*
X0105970Y0044984D01*
X0106021Y0045278D01*
X0106079Y0045571D01*
X0106144Y0045863D01*
X0106216Y0046153D01*
X0106295Y0046441D01*
X0106382Y0046727D01*
X0106475Y0047010D01*
X0106575Y0047292D01*
X0106682Y0047571D01*
X0106796Y0047847D01*
X0106916Y0048120D01*
X0107043Y0048391D01*
X0107177Y0048658D01*
X0107317Y0048922D01*
X0107464Y0049182D01*
X0107617Y0049439D01*
X0107776Y0049692D01*
X0107941Y0049940D01*
X0108112Y0050185D01*
X0108289Y0050426D01*
X0108472Y0050662D01*
X0108661Y0050894D01*
X0108855Y0051120D01*
X0109055Y0051343D01*
X0109260Y0051560D01*
X0109471Y0051772D01*
X0109686Y0051979D01*
X0109907Y0052180D01*
X0110132Y0052376D01*
X0110362Y0052567D01*
X0110597Y0052752D01*
X0110836Y0052931D01*
X0111080Y0053104D01*
X0111327Y0053271D01*
X0111579Y0053432D01*
X0111834Y0053587D01*
X0112093Y0053736D01*
X0112356Y0053878D01*
X0112622Y0054014D01*
X0112891Y0054143D01*
X0113164Y0054266D01*
X0113439Y0054382D01*
X0113717Y0054491D01*
X0113998Y0054593D01*
X0114281Y0054689D01*
X0114292Y0054654D01*
X0114010Y0054558D01*
X0113730Y0054456D01*
X0113453Y0054348D01*
X0113178Y0054232D01*
X0112907Y0054110D01*
X0112638Y0053981D01*
X0112373Y0053845D01*
X0112111Y0053704D01*
X0111853Y0053555D01*
X0111598Y0053401D01*
X0111347Y0053240D01*
X0111101Y0053074D01*
X0110858Y0052901D01*
X0110619Y0052722D01*
X0110386Y0052538D01*
X0110156Y0052348D01*
X0109931Y0052153D01*
X0109712Y0051952D01*
X0109497Y0051745D01*
X0109287Y0051534D01*
X0109082Y0051317D01*
X0108883Y0051096D01*
X0108690Y0050870D01*
X0108501Y0050639D01*
X0108319Y0050403D01*
X0108142Y0050164D01*
X0107972Y0049920D01*
X0107807Y0049671D01*
X0107648Y0049419D01*
X0107496Y0049164D01*
X0107350Y0048904D01*
X0107210Y0048641D01*
X0107077Y0048375D01*
X0106950Y0048105D01*
X0106830Y0047833D01*
X0106716Y0047557D01*
X0106610Y0047279D01*
X0106510Y0046998D01*
X0106417Y0046716D01*
X0106331Y0046430D01*
X0106252Y0046143D01*
X0106180Y0045854D01*
X0106115Y0045564D01*
X0106057Y0045271D01*
X0106006Y0044978D01*
X0105963Y0044683D01*
X0105927Y0044388D01*
X0105898Y0044091D01*
X0105876Y0043794D01*
X0105861Y0043497D01*
X0105854Y0043199D01*
X0105854Y0042901D01*
X0105861Y0042603D01*
X0105876Y0042306D01*
X0105898Y0042009D01*
X0105927Y0041712D01*
X0105963Y0041417D01*
X0106006Y0041122D01*
X0106057Y0040829D01*
X0106115Y0040536D01*
X0106180Y0040246D01*
X0106252Y0039957D01*
X0106331Y0039670D01*
X0106417Y0039384D01*
X0106510Y0039102D01*
X0106610Y0038821D01*
X0106716Y0038543D01*
X0106830Y0038267D01*
X0106950Y0037995D01*
X0107077Y0037725D01*
X0107210Y0037459D01*
X0107350Y0037196D01*
X0107496Y0036936D01*
X0107648Y0036681D01*
X0107807Y0036429D01*
X0107972Y0036180D01*
X0108142Y0035936D01*
X0108319Y0035697D01*
X0108501Y0035461D01*
X0108690Y0035230D01*
X0108883Y0035004D01*
X0109082Y0034783D01*
X0109287Y0034566D01*
X0109497Y0034355D01*
X0109712Y0034148D01*
X0109931Y0033947D01*
X0110156Y0033752D01*
X0110386Y0033562D01*
X0110619Y0033378D01*
X0110858Y0033199D01*
X0111101Y0033026D01*
X0111347Y0032860D01*
X0111598Y0032699D01*
X0111853Y0032545D01*
X0112111Y0032396D01*
X0112373Y0032255D01*
X0112638Y0032119D01*
X0112907Y0031990D01*
X0113178Y0031868D01*
X0113453Y0031752D01*
X0113730Y0031644D01*
X0114010Y0031542D01*
X0114292Y0031446D01*
X0114304Y0031482D01*
X0114022Y0031576D01*
X0113743Y0031678D01*
X0113467Y0031787D01*
X0113193Y0031902D01*
X0112922Y0032024D01*
X0112655Y0032152D01*
X0112390Y0032287D01*
X0112129Y0032429D01*
X0111872Y0032577D01*
X0111618Y0032731D01*
X0111368Y0032891D01*
X0111122Y0033057D01*
X0110880Y0033229D01*
X0110642Y0033407D01*
X0110409Y0033591D01*
X0110180Y0033780D01*
X0109956Y0033975D01*
X0109737Y0034175D01*
X0109523Y0034381D01*
X0109314Y0034592D01*
X0109110Y0034808D01*
X0108911Y0035028D01*
X0108718Y0035254D01*
X0108530Y0035484D01*
X0108348Y0035719D01*
X0108172Y0035958D01*
X0108002Y0036201D01*
X0107838Y0036449D01*
X0107680Y0036700D01*
X0107528Y0036955D01*
X0107382Y0037214D01*
X0107243Y0037476D01*
X0107110Y0037742D01*
X0106984Y0038010D01*
X0106864Y0038282D01*
X0106751Y0038557D01*
X0106644Y0038834D01*
X0106545Y0039114D01*
X0106452Y0039396D01*
X0106366Y0039680D01*
X0106288Y0039966D01*
X0106216Y0040254D01*
X0106151Y0040544D01*
X0106093Y0040835D01*
X0106043Y0041128D01*
X0106000Y0041422D01*
X0105963Y0041716D01*
X0105934Y0042012D01*
X0105913Y0042308D01*
X0105898Y0042605D01*
X0105891Y0042902D01*
X0105891Y0043198D01*
X0105898Y0043495D01*
X0105913Y0043792D01*
X0105934Y0044088D01*
X0105963Y0044384D01*
X0106000Y0044678D01*
X0106043Y0044972D01*
X0106093Y0045265D01*
X0106151Y0045556D01*
X0106216Y0045846D01*
X0106288Y0046134D01*
X0106366Y0046420D01*
X0106452Y0046704D01*
X0106545Y0046986D01*
X0106644Y0047266D01*
X0106751Y0047543D01*
X0106864Y0047818D01*
X0106984Y0048090D01*
X0107110Y0048358D01*
X0107243Y0048624D01*
X0107382Y0048886D01*
X0107528Y0049145D01*
X0107680Y0049400D01*
X0107838Y0049651D01*
X0108002Y0049899D01*
X0108172Y0050142D01*
X0108348Y0050381D01*
X0108530Y0050616D01*
X0108718Y0050846D01*
X0108911Y0051072D01*
X0109110Y0051292D01*
X0109314Y0051508D01*
X0109523Y0051719D01*
X0109737Y0051925D01*
X0109956Y0052125D01*
X0110180Y0052320D01*
X0110409Y0052509D01*
X0110642Y0052693D01*
X0110880Y0052871D01*
X0111122Y0053043D01*
X0111368Y0053209D01*
X0111618Y0053369D01*
X0111872Y0053523D01*
X0112129Y0053671D01*
X0112390Y0053813D01*
X0112655Y0053948D01*
X0112922Y0054076D01*
X0113193Y0054198D01*
X0113467Y0054313D01*
X0113743Y0054422D01*
X0114022Y0054524D01*
X0114304Y0054618D01*
X0114315Y0054583D01*
X0114034Y0054489D01*
X0113756Y0054387D01*
X0113481Y0054279D01*
X0113208Y0054164D01*
X0112938Y0054042D01*
X0112671Y0053914D01*
X0112407Y0053780D01*
X0112147Y0053639D01*
X0111890Y0053492D01*
X0111637Y0053338D01*
X0111388Y0053178D01*
X0111143Y0053013D01*
X0110901Y0052841D01*
X0110665Y0052664D01*
X0110432Y0052480D01*
X0110204Y0052292D01*
X0109981Y0052097D01*
X0109762Y0051898D01*
X0109549Y0051693D01*
X0109340Y0051482D01*
X0109137Y0051267D01*
X0108939Y0051047D01*
X0108746Y0050822D01*
X0108559Y0050593D01*
X0108378Y0050359D01*
X0108202Y0050120D01*
X0108033Y0049878D01*
X0107869Y0049631D01*
X0107711Y0049381D01*
X0107560Y0049126D01*
X0107415Y0048868D01*
X0107276Y0048607D01*
X0107143Y0048342D01*
X0107017Y0048074D01*
X0106898Y0047804D01*
X0106785Y0047530D01*
X0106679Y0047253D01*
X0106580Y0046974D01*
X0106487Y0046693D01*
X0106402Y0046410D01*
X0106323Y0046124D01*
X0106252Y0045837D01*
X0106187Y0045548D01*
X0106130Y0045258D01*
X0106079Y0044966D01*
X0106036Y0044673D01*
X0106000Y0044379D01*
X0105971Y0044085D01*
X0105950Y0043790D01*
X0105935Y0043494D01*
X0105928Y0043198D01*
X0105928Y0042902D01*
X0105935Y0042606D01*
X0105950Y0042310D01*
X0105971Y0042015D01*
X0106000Y0041721D01*
X0106036Y0041427D01*
X0106079Y0041134D01*
X0106130Y0040842D01*
X0106187Y0040552D01*
X0106252Y0040263D01*
X0106323Y0039976D01*
X0106402Y0039690D01*
X0106487Y0039407D01*
X0106580Y0039126D01*
X0106679Y0038847D01*
X0106785Y0038570D01*
X0106898Y0038296D01*
X0107017Y0038026D01*
X0107143Y0037758D01*
X0107276Y0037493D01*
X0107415Y0037232D01*
X0107560Y0036974D01*
X0107711Y0036719D01*
X0107869Y0036469D01*
X0108033Y0036222D01*
X0108202Y0035980D01*
X0108378Y0035741D01*
X0108559Y0035507D01*
X0108746Y0035278D01*
X0108939Y0035053D01*
X0109137Y0034833D01*
X0109340Y0034618D01*
X0109549Y0034407D01*
X0109762Y0034202D01*
X0109981Y0034003D01*
X0110204Y0033808D01*
X0110432Y0033620D01*
X0110665Y0033436D01*
X0110901Y0033259D01*
X0111143Y0033087D01*
X0111388Y0032922D01*
X0111637Y0032762D01*
X0111890Y0032608D01*
X0112147Y0032461D01*
X0112407Y0032320D01*
X0112671Y0032186D01*
X0112938Y0032058D01*
X0113208Y0031936D01*
X0113481Y0031821D01*
X0113756Y0031713D01*
X0114034Y0031611D01*
X0114315Y0031517D01*
X0114326Y0031552D01*
X0114047Y0031646D01*
X0113769Y0031747D01*
X0113495Y0031855D01*
X0113223Y0031970D01*
X0112954Y0032091D01*
X0112688Y0032219D01*
X0112425Y0032353D01*
X0112165Y0032494D01*
X0111909Y0032640D01*
X0111657Y0032793D01*
X0111408Y0032953D01*
X0111164Y0033118D01*
X0110923Y0033289D01*
X0110687Y0033466D01*
X0110455Y0033648D01*
X0110228Y0033837D01*
X0110005Y0034030D01*
X0109787Y0034229D01*
X0109575Y0034434D01*
X0109367Y0034643D01*
X0109164Y0034858D01*
X0108967Y0035077D01*
X0108775Y0035301D01*
X0108588Y0035530D01*
X0108407Y0035764D01*
X0108232Y0036001D01*
X0108063Y0036243D01*
X0107900Y0036489D01*
X0107743Y0036739D01*
X0107592Y0036992D01*
X0107447Y0037249D01*
X0107309Y0037510D01*
X0107176Y0037774D01*
X0107051Y0038041D01*
X0106932Y0038311D01*
X0106819Y0038584D01*
X0106714Y0038859D01*
X0106615Y0039137D01*
X0106523Y0039418D01*
X0106437Y0039700D01*
X0106359Y0039985D01*
X0106288Y0040271D01*
X0106223Y0040559D01*
X0106166Y0040849D01*
X0106116Y0041140D01*
X0106073Y0041432D01*
X0106037Y0041725D01*
X0106008Y0042018D01*
X0105987Y0042313D01*
X0105972Y0042607D01*
X0105965Y0042902D01*
X0105965Y0043198D01*
X0105972Y0043493D01*
X0105987Y0043787D01*
X0106008Y0044082D01*
X0106037Y0044375D01*
X0106073Y0044668D01*
X0106116Y0044960D01*
X0106166Y0045251D01*
X0106223Y0045541D01*
X0106288Y0045829D01*
X0106359Y0046115D01*
X0106437Y0046400D01*
X0106523Y0046682D01*
X0106615Y0046963D01*
X0106714Y0047241D01*
X0106819Y0047516D01*
X0106932Y0047789D01*
X0107051Y0048059D01*
X0107176Y0048326D01*
X0107309Y0048590D01*
X0107447Y0048851D01*
X0107592Y0049108D01*
X0107743Y0049361D01*
X0107900Y0049611D01*
X0108063Y0049857D01*
X0108232Y0050099D01*
X0108407Y0050336D01*
X0108588Y0050570D01*
X0108775Y0050799D01*
X0108967Y0051023D01*
X0109164Y0051242D01*
X0109367Y0051457D01*
X0109575Y0051666D01*
X0109787Y0051871D01*
X0110005Y0052070D01*
X0110228Y0052263D01*
X0110455Y0052452D01*
X0110687Y0052634D01*
X0110923Y0052811D01*
X0111164Y0052982D01*
X0111408Y0053147D01*
X0111657Y0053307D01*
X0111909Y0053460D01*
X0112165Y0053606D01*
X0112425Y0053747D01*
X0112688Y0053881D01*
X0112954Y0054009D01*
X0113223Y0054130D01*
X0113495Y0054245D01*
X0113769Y0054353D01*
X0114047Y0054454D01*
X0114326Y0054548D01*
X0114338Y0054513D01*
X0114059Y0054419D01*
X0113782Y0054318D01*
X0113509Y0054210D01*
X0113237Y0054096D01*
X0112969Y0053975D01*
X0112704Y0053848D01*
X0112442Y0053714D01*
X0112183Y0053574D01*
X0111928Y0053428D01*
X0111676Y0053275D01*
X0111429Y0053117D01*
X0111185Y0052952D01*
X0110945Y0052781D01*
X0110710Y0052605D01*
X0110478Y0052423D01*
X0110252Y0052235D01*
X0110030Y0052042D01*
X0109813Y0051843D01*
X0109600Y0051640D01*
X0109393Y0051431D01*
X0109191Y0051217D01*
X0108994Y0050998D01*
X0108803Y0050775D01*
X0108617Y0050547D01*
X0108437Y0050314D01*
X0108262Y0050077D01*
X0108094Y0049836D01*
X0107931Y0049591D01*
X0107774Y0049342D01*
X0107624Y0049089D01*
X0107479Y0048833D01*
X0107341Y0048573D01*
X0107210Y0048310D01*
X0107085Y0048044D01*
X0106966Y0047774D01*
X0106854Y0047502D01*
X0106748Y0047228D01*
X0106650Y0046951D01*
X0106558Y0046671D01*
X0106473Y0046389D01*
X0106395Y0046106D01*
X0106324Y0045820D01*
X0106260Y0045533D01*
X0106203Y0045244D01*
X0106152Y0044954D01*
X0106110Y0044663D01*
X0106074Y0044371D01*
X0106045Y0044079D01*
X0106023Y0043785D01*
X0106009Y0043491D01*
X0106002Y0043197D01*
X0106002Y0042903D01*
X0106009Y0042609D01*
X0106023Y0042315D01*
X0106045Y0042021D01*
X0106074Y0041729D01*
X0106110Y0041437D01*
X0106152Y0041146D01*
X0106203Y0040856D01*
X0106260Y0040567D01*
X0106324Y0040280D01*
X0106395Y0039994D01*
X0106473Y0039711D01*
X0106558Y0039429D01*
X0106650Y0039149D01*
X0106748Y0038872D01*
X0106854Y0038598D01*
X0106966Y0038326D01*
X0107085Y0038056D01*
X0107210Y0037790D01*
X0107341Y0037527D01*
X0107479Y0037267D01*
X0107624Y0037011D01*
X0107774Y0036758D01*
X0107931Y0036509D01*
X0108094Y0036264D01*
X0108262Y0036023D01*
X0108437Y0035786D01*
X0108617Y0035553D01*
X0108803Y0035325D01*
X0108994Y0035102D01*
X0109191Y0034883D01*
X0109393Y0034669D01*
X0109600Y0034460D01*
X0109813Y0034257D01*
X0110030Y0034058D01*
X0110252Y0033865D01*
X0110478Y0033677D01*
X0110710Y0033495D01*
X0110945Y0033319D01*
X0111185Y0033148D01*
X0111429Y0032983D01*
X0111676Y0032825D01*
X0111928Y0032672D01*
X0112183Y0032526D01*
X0112442Y0032386D01*
X0112704Y0032252D01*
X0112969Y0032125D01*
X0113237Y0032004D01*
X0113509Y0031890D01*
X0113782Y0031782D01*
X0114059Y0031681D01*
X0114338Y0031587D01*
X0084236Y0054829D02*
X0084346Y0054487D01*
X0084068Y0054393D01*
X0083792Y0054293D01*
X0083519Y0054185D01*
X0083248Y0054071D01*
X0082980Y0053951D01*
X0082716Y0053824D01*
X0082454Y0053690D01*
X0082196Y0053551D01*
X0081942Y0053404D01*
X0081691Y0053252D01*
X0081443Y0053094D01*
X0081200Y0052930D01*
X0080961Y0052759D01*
X0080726Y0052583D01*
X0080495Y0052402D01*
X0080269Y0052215D01*
X0080048Y0052022D01*
X0079831Y0051824D01*
X0079619Y0051620D01*
X0079413Y0051412D01*
X0079211Y0051199D01*
X0079015Y0050980D01*
X0078824Y0050757D01*
X0078638Y0050530D01*
X0078458Y0050298D01*
X0078284Y0050061D01*
X0078116Y0049821D01*
X0077954Y0049576D01*
X0077797Y0049328D01*
X0077647Y0049076D01*
X0077503Y0048820D01*
X0077365Y0048561D01*
X0077234Y0048298D01*
X0077109Y0048032D01*
X0076991Y0047764D01*
X0076879Y0047492D01*
X0076774Y0047218D01*
X0076675Y0046942D01*
X0076584Y0046663D01*
X0076499Y0046382D01*
X0076421Y0046099D01*
X0076350Y0045814D01*
X0076286Y0045527D01*
X0076229Y0045239D01*
X0076179Y0044950D01*
X0076136Y0044660D01*
X0076101Y0044368D01*
X0076072Y0044076D01*
X0076050Y0043783D01*
X0076036Y0043490D01*
X0076029Y0043197D01*
X0076029Y0042903D01*
X0076036Y0042610D01*
X0076050Y0042317D01*
X0076072Y0042024D01*
X0076101Y0041732D01*
X0076136Y0041440D01*
X0076179Y0041150D01*
X0076229Y0040861D01*
X0076286Y0040573D01*
X0076350Y0040286D01*
X0076421Y0040001D01*
X0076499Y0039718D01*
X0076584Y0039437D01*
X0076675Y0039158D01*
X0076774Y0038882D01*
X0076879Y0038608D01*
X0076991Y0038336D01*
X0077109Y0038068D01*
X0077234Y0037802D01*
X0077365Y0037539D01*
X0077503Y0037280D01*
X0077647Y0037024D01*
X0077797Y0036772D01*
X0077954Y0036524D01*
X0078116Y0036279D01*
X0078284Y0036039D01*
X0078458Y0035802D01*
X0078638Y0035570D01*
X0078824Y0035343D01*
X0079015Y0035120D01*
X0079211Y0034901D01*
X0079413Y0034688D01*
X0079619Y0034480D01*
X0079831Y0034276D01*
X0080048Y0034078D01*
X0080269Y0033885D01*
X0080495Y0033698D01*
X0080726Y0033517D01*
X0080961Y0033341D01*
X0081200Y0033170D01*
X0081443Y0033006D01*
X0081691Y0032848D01*
X0081942Y0032696D01*
X0082196Y0032549D01*
X0082454Y0032410D01*
X0082716Y0032276D01*
X0082980Y0032149D01*
X0083248Y0032029D01*
X0083519Y0031915D01*
X0083792Y0031807D01*
X0084068Y0031707D01*
X0084346Y0031613D01*
X0084236Y0031271D01*
X0084235Y0031270D01*
X0083949Y0031367D01*
X0083665Y0031470D01*
X0083384Y0031581D01*
X0083105Y0031698D01*
X0082829Y0031823D01*
X0082557Y0031953D01*
X0082287Y0032091D01*
X0082021Y0032235D01*
X0081759Y0032385D01*
X0081501Y0032542D01*
X0081246Y0032705D01*
X0080995Y0032874D01*
X0080749Y0033050D01*
X0080507Y0033231D01*
X0080269Y0033418D01*
X0080037Y0033611D01*
X0079808Y0033809D01*
X0079585Y0034013D01*
X0079367Y0034223D01*
X0079154Y0034437D01*
X0078947Y0034657D01*
X0078744Y0034882D01*
X0078548Y0035112D01*
X0078357Y0035346D01*
X0078171Y0035585D01*
X0077992Y0035828D01*
X0077819Y0036076D01*
X0077652Y0036328D01*
X0077490Y0036584D01*
X0077336Y0036844D01*
X0077187Y0037107D01*
X0077046Y0037374D01*
X0076910Y0037645D01*
X0076782Y0037918D01*
X0076660Y0038195D01*
X0076544Y0038474D01*
X0076436Y0038757D01*
X0076335Y0039042D01*
X0076240Y0039329D01*
X0076153Y0039618D01*
X0076073Y0039910D01*
X0076000Y0040203D01*
X0075934Y0040498D01*
X0075875Y0040795D01*
X0075824Y0041093D01*
X0075780Y0041392D01*
X0075743Y0041692D01*
X0075713Y0041993D01*
X0075691Y0042295D01*
X0075676Y0042597D01*
X0075669Y0042899D01*
X0075669Y0043201D01*
X0075676Y0043503D01*
X0075691Y0043805D01*
X0075713Y0044107D01*
X0075743Y0044408D01*
X0075780Y0044708D01*
X0075824Y0045007D01*
X0075875Y0045305D01*
X0075934Y0045602D01*
X0076000Y0045897D01*
X0076073Y0046190D01*
X0076153Y0046482D01*
X0076240Y0046771D01*
X0076335Y0047058D01*
X0076436Y0047343D01*
X0076544Y0047626D01*
X0076660Y0047905D01*
X0076782Y0048182D01*
X0076910Y0048455D01*
X0077046Y0048726D01*
X0077187Y0048993D01*
X0077336Y0049256D01*
X0077490Y0049516D01*
X0077652Y0049772D01*
X0077819Y0050024D01*
X0077992Y0050272D01*
X0078171Y0050515D01*
X0078357Y0050754D01*
X0078548Y0050988D01*
X0078744Y0051218D01*
X0078947Y0051443D01*
X0079154Y0051663D01*
X0079367Y0051877D01*
X0079585Y0052087D01*
X0079808Y0052291D01*
X0080037Y0052489D01*
X0080269Y0052682D01*
X0080507Y0052869D01*
X0080749Y0053050D01*
X0080995Y0053226D01*
X0081246Y0053395D01*
X0081501Y0053558D01*
X0081759Y0053715D01*
X0082021Y0053865D01*
X0082287Y0054009D01*
X0082557Y0054147D01*
X0082829Y0054277D01*
X0083105Y0054402D01*
X0083384Y0054519D01*
X0083665Y0054630D01*
X0083949Y0054733D01*
X0084235Y0054830D01*
X0084247Y0054795D01*
X0083961Y0054698D01*
X0083678Y0054595D01*
X0083397Y0054485D01*
X0083120Y0054368D01*
X0082845Y0054244D01*
X0082573Y0054113D01*
X0082304Y0053976D01*
X0082039Y0053833D01*
X0081778Y0053683D01*
X0081520Y0053527D01*
X0081266Y0053364D01*
X0081016Y0053195D01*
X0080771Y0053021D01*
X0080529Y0052840D01*
X0080293Y0052653D01*
X0080060Y0052461D01*
X0079833Y0052263D01*
X0079611Y0052060D01*
X0079393Y0051851D01*
X0079181Y0051637D01*
X0078974Y0051418D01*
X0078772Y0051194D01*
X0078576Y0050965D01*
X0078386Y0050731D01*
X0078201Y0050493D01*
X0078022Y0050250D01*
X0077849Y0050003D01*
X0077683Y0049752D01*
X0077522Y0049497D01*
X0077368Y0049238D01*
X0077220Y0048975D01*
X0077078Y0048709D01*
X0076944Y0048439D01*
X0076815Y0048167D01*
X0076694Y0047891D01*
X0076579Y0047612D01*
X0076471Y0047330D01*
X0076370Y0047046D01*
X0076276Y0046760D01*
X0076189Y0046471D01*
X0076109Y0046181D01*
X0076036Y0045888D01*
X0075970Y0045594D01*
X0075911Y0045298D01*
X0075860Y0045001D01*
X0075816Y0044703D01*
X0075779Y0044404D01*
X0075750Y0044104D01*
X0075728Y0043803D01*
X0075713Y0043502D01*
X0075706Y0043201D01*
X0075706Y0042899D01*
X0075713Y0042598D01*
X0075728Y0042297D01*
X0075750Y0041996D01*
X0075779Y0041696D01*
X0075816Y0041397D01*
X0075860Y0041099D01*
X0075911Y0040802D01*
X0075970Y0040506D01*
X0076036Y0040212D01*
X0076109Y0039919D01*
X0076189Y0039629D01*
X0076276Y0039340D01*
X0076370Y0039054D01*
X0076471Y0038770D01*
X0076579Y0038488D01*
X0076694Y0038209D01*
X0076815Y0037933D01*
X0076944Y0037661D01*
X0077078Y0037391D01*
X0077220Y0037125D01*
X0077368Y0036862D01*
X0077522Y0036603D01*
X0077683Y0036348D01*
X0077849Y0036097D01*
X0078022Y0035850D01*
X0078201Y0035607D01*
X0078386Y0035369D01*
X0078576Y0035135D01*
X0078772Y0034906D01*
X0078974Y0034682D01*
X0079181Y0034463D01*
X0079393Y0034249D01*
X0079611Y0034040D01*
X0079833Y0033837D01*
X0080060Y0033639D01*
X0080293Y0033447D01*
X0080529Y0033260D01*
X0080771Y0033079D01*
X0081016Y0032905D01*
X0081266Y0032736D01*
X0081520Y0032573D01*
X0081778Y0032417D01*
X0082039Y0032267D01*
X0082304Y0032124D01*
X0082573Y0031987D01*
X0082845Y0031856D01*
X0083120Y0031732D01*
X0083397Y0031615D01*
X0083678Y0031505D01*
X0083961Y0031402D01*
X0084247Y0031305D01*
X0084258Y0031341D01*
X0083973Y0031437D01*
X0083691Y0031540D01*
X0083411Y0031650D01*
X0083134Y0031766D01*
X0082860Y0031890D01*
X0082589Y0032020D01*
X0082322Y0032156D01*
X0082057Y0032299D01*
X0081797Y0032449D01*
X0081540Y0032605D01*
X0081286Y0032767D01*
X0081037Y0032935D01*
X0080793Y0033109D01*
X0080552Y0033290D01*
X0080316Y0033476D01*
X0080084Y0033667D01*
X0079858Y0033865D01*
X0079636Y0034067D01*
X0079419Y0034275D01*
X0079207Y0034489D01*
X0079001Y0034707D01*
X0078800Y0034931D01*
X0078604Y0035159D01*
X0078415Y0035392D01*
X0078230Y0035630D01*
X0078052Y0035872D01*
X0077880Y0036118D01*
X0077714Y0036368D01*
X0077554Y0036623D01*
X0077400Y0036881D01*
X0077252Y0037143D01*
X0077111Y0037408D01*
X0076977Y0037677D01*
X0076849Y0037949D01*
X0076728Y0038224D01*
X0076613Y0038502D01*
X0076506Y0038782D01*
X0076405Y0039066D01*
X0076311Y0039351D01*
X0076224Y0039639D01*
X0076144Y0039929D01*
X0076072Y0040220D01*
X0076006Y0040514D01*
X0075948Y0040808D01*
X0075897Y0041105D01*
X0075853Y0041402D01*
X0075816Y0041700D01*
X0075787Y0041999D01*
X0075765Y0042299D01*
X0075750Y0042599D01*
X0075743Y0042900D01*
X0075743Y0043200D01*
X0075750Y0043501D01*
X0075765Y0043801D01*
X0075787Y0044101D01*
X0075816Y0044400D01*
X0075853Y0044698D01*
X0075897Y0044995D01*
X0075948Y0045292D01*
X0076006Y0045586D01*
X0076072Y0045880D01*
X0076144Y0046171D01*
X0076224Y0046461D01*
X0076311Y0046749D01*
X0076405Y0047034D01*
X0076506Y0047318D01*
X0076613Y0047598D01*
X0076728Y0047876D01*
X0076849Y0048151D01*
X0076977Y0048423D01*
X0077111Y0048692D01*
X0077252Y0048957D01*
X0077400Y0049219D01*
X0077554Y0049477D01*
X0077714Y0049732D01*
X0077880Y0049982D01*
X0078052Y0050228D01*
X0078230Y0050470D01*
X0078415Y0050708D01*
X0078604Y0050941D01*
X0078800Y0051169D01*
X0079001Y0051393D01*
X0079207Y0051611D01*
X0079419Y0051825D01*
X0079636Y0052033D01*
X0079858Y0052235D01*
X0080084Y0052433D01*
X0080316Y0052624D01*
X0080552Y0052810D01*
X0080793Y0052991D01*
X0081037Y0053165D01*
X0081286Y0053333D01*
X0081540Y0053495D01*
X0081797Y0053651D01*
X0082057Y0053801D01*
X0082322Y0053944D01*
X0082589Y0054080D01*
X0082860Y0054210D01*
X0083134Y0054334D01*
X0083411Y0054450D01*
X0083691Y0054560D01*
X0083973Y0054663D01*
X0084258Y0054759D01*
X0084270Y0054724D01*
X0083986Y0054628D01*
X0083704Y0054526D01*
X0083425Y0054416D01*
X0083149Y0054300D01*
X0082876Y0054177D01*
X0082606Y0054047D01*
X0082339Y0053911D01*
X0082075Y0053768D01*
X0081815Y0053619D01*
X0081559Y0053464D01*
X0081307Y0053302D01*
X0081058Y0053134D01*
X0080814Y0052961D01*
X0080574Y0052781D01*
X0080339Y0052596D01*
X0080108Y0052405D01*
X0079882Y0052208D01*
X0079661Y0052006D01*
X0079445Y0051798D01*
X0079234Y0051585D01*
X0079028Y0051368D01*
X0078828Y0051145D01*
X0078633Y0050917D01*
X0078444Y0050685D01*
X0078260Y0050448D01*
X0078082Y0050207D01*
X0077910Y0049961D01*
X0077745Y0049712D01*
X0077585Y0049458D01*
X0077432Y0049201D01*
X0077285Y0048940D01*
X0077144Y0048675D01*
X0077010Y0048407D01*
X0076883Y0048136D01*
X0076762Y0047862D01*
X0076648Y0047585D01*
X0076540Y0047305D01*
X0076440Y0047022D01*
X0076346Y0046738D01*
X0076260Y0046451D01*
X0076180Y0046162D01*
X0076108Y0045871D01*
X0076042Y0045579D01*
X0075984Y0045285D01*
X0075933Y0044990D01*
X0075890Y0044693D01*
X0075853Y0044396D01*
X0075824Y0044098D01*
X0075802Y0043799D01*
X0075787Y0043499D01*
X0075780Y0043200D01*
X0075780Y0042900D01*
X0075787Y0042601D01*
X0075802Y0042301D01*
X0075824Y0042002D01*
X0075853Y0041704D01*
X0075890Y0041407D01*
X0075933Y0041110D01*
X0075984Y0040815D01*
X0076042Y0040521D01*
X0076108Y0040229D01*
X0076180Y0039938D01*
X0076260Y0039649D01*
X0076346Y0039362D01*
X0076440Y0039078D01*
X0076540Y0038795D01*
X0076648Y0038515D01*
X0076762Y0038238D01*
X0076883Y0037964D01*
X0077010Y0037693D01*
X0077144Y0037425D01*
X0077285Y0037160D01*
X0077432Y0036899D01*
X0077585Y0036642D01*
X0077745Y0036388D01*
X0077910Y0036139D01*
X0078082Y0035893D01*
X0078260Y0035652D01*
X0078444Y0035415D01*
X0078633Y0035183D01*
X0078828Y0034955D01*
X0079028Y0034732D01*
X0079234Y0034515D01*
X0079445Y0034302D01*
X0079661Y0034094D01*
X0079882Y0033892D01*
X0080108Y0033695D01*
X0080339Y0033504D01*
X0080574Y0033319D01*
X0080814Y0033139D01*
X0081058Y0032966D01*
X0081307Y0032798D01*
X0081559Y0032636D01*
X0081815Y0032481D01*
X0082075Y0032332D01*
X0082339Y0032189D01*
X0082606Y0032053D01*
X0082876Y0031923D01*
X0083149Y0031800D01*
X0083425Y0031684D01*
X0083704Y0031574D01*
X0083986Y0031472D01*
X0084270Y0031376D01*
X0084281Y0031411D01*
X0083998Y0031507D01*
X0083717Y0031609D01*
X0083439Y0031718D01*
X0083164Y0031834D01*
X0082891Y0031957D01*
X0082622Y0032086D01*
X0082356Y0032222D01*
X0082093Y0032364D01*
X0081834Y0032513D01*
X0081579Y0032668D01*
X0081327Y0032829D01*
X0081080Y0032996D01*
X0080836Y0033169D01*
X0080597Y0033348D01*
X0080362Y0033533D01*
X0080132Y0033724D01*
X0079907Y0033920D01*
X0079686Y0034121D01*
X0079471Y0034328D01*
X0079260Y0034540D01*
X0079055Y0034757D01*
X0078855Y0034980D01*
X0078661Y0035206D01*
X0078472Y0035438D01*
X0078289Y0035674D01*
X0078112Y0035915D01*
X0077941Y0036160D01*
X0077776Y0036408D01*
X0077617Y0036661D01*
X0077464Y0036918D01*
X0077317Y0037178D01*
X0077177Y0037442D01*
X0077043Y0037709D01*
X0076916Y0037980D01*
X0076796Y0038253D01*
X0076682Y0038529D01*
X0076575Y0038808D01*
X0076475Y0039090D01*
X0076382Y0039373D01*
X0076295Y0039659D01*
X0076216Y0039947D01*
X0076144Y0040237D01*
X0076079Y0040529D01*
X0076021Y0040822D01*
X0075970Y0041116D01*
X0075926Y0041412D01*
X0075890Y0041708D01*
X0075861Y0042006D01*
X0075839Y0042304D01*
X0075824Y0042602D01*
X0075817Y0042901D01*
X0075817Y0043199D01*
X0075824Y0043498D01*
X0075839Y0043796D01*
X0075861Y0044094D01*
X0075890Y0044392D01*
X0075926Y0044688D01*
X0075970Y0044984D01*
X0076021Y0045278D01*
X0076079Y0045571D01*
X0076144Y0045863D01*
X0076216Y0046153D01*
X0076295Y0046441D01*
X0076382Y0046727D01*
X0076475Y0047010D01*
X0076575Y0047292D01*
X0076682Y0047571D01*
X0076796Y0047847D01*
X0076916Y0048120D01*
X0077043Y0048391D01*
X0077177Y0048658D01*
X0077317Y0048922D01*
X0077464Y0049182D01*
X0077617Y0049439D01*
X0077776Y0049692D01*
X0077941Y0049940D01*
X0078112Y0050185D01*
X0078289Y0050426D01*
X0078472Y0050662D01*
X0078661Y0050894D01*
X0078855Y0051120D01*
X0079055Y0051343D01*
X0079260Y0051560D01*
X0079471Y0051772D01*
X0079686Y0051979D01*
X0079907Y0052180D01*
X0080132Y0052376D01*
X0080362Y0052567D01*
X0080597Y0052752D01*
X0080836Y0052931D01*
X0081080Y0053104D01*
X0081327Y0053271D01*
X0081579Y0053432D01*
X0081834Y0053587D01*
X0082093Y0053736D01*
X0082356Y0053878D01*
X0082622Y0054014D01*
X0082891Y0054143D01*
X0083164Y0054266D01*
X0083439Y0054382D01*
X0083717Y0054491D01*
X0083998Y0054593D01*
X0084281Y0054689D01*
X0084292Y0054654D01*
X0084010Y0054558D01*
X0083730Y0054456D01*
X0083453Y0054348D01*
X0083178Y0054232D01*
X0082907Y0054110D01*
X0082638Y0053981D01*
X0082373Y0053845D01*
X0082111Y0053704D01*
X0081853Y0053555D01*
X0081598Y0053401D01*
X0081347Y0053240D01*
X0081101Y0053074D01*
X0080858Y0052901D01*
X0080619Y0052722D01*
X0080386Y0052538D01*
X0080156Y0052348D01*
X0079931Y0052153D01*
X0079712Y0051952D01*
X0079497Y0051745D01*
X0079287Y0051534D01*
X0079082Y0051317D01*
X0078883Y0051096D01*
X0078690Y0050870D01*
X0078501Y0050639D01*
X0078319Y0050403D01*
X0078142Y0050164D01*
X0077972Y0049920D01*
X0077807Y0049671D01*
X0077648Y0049419D01*
X0077496Y0049164D01*
X0077350Y0048904D01*
X0077210Y0048641D01*
X0077077Y0048375D01*
X0076950Y0048105D01*
X0076830Y0047833D01*
X0076716Y0047557D01*
X0076610Y0047279D01*
X0076510Y0046998D01*
X0076417Y0046716D01*
X0076331Y0046430D01*
X0076252Y0046143D01*
X0076180Y0045854D01*
X0076115Y0045564D01*
X0076057Y0045271D01*
X0076006Y0044978D01*
X0075963Y0044683D01*
X0075927Y0044388D01*
X0075898Y0044091D01*
X0075876Y0043794D01*
X0075861Y0043497D01*
X0075854Y0043199D01*
X0075854Y0042901D01*
X0075861Y0042603D01*
X0075876Y0042306D01*
X0075898Y0042009D01*
X0075927Y0041712D01*
X0075963Y0041417D01*
X0076006Y0041122D01*
X0076057Y0040829D01*
X0076115Y0040536D01*
X0076180Y0040246D01*
X0076252Y0039957D01*
X0076331Y0039670D01*
X0076417Y0039384D01*
X0076510Y0039102D01*
X0076610Y0038821D01*
X0076716Y0038543D01*
X0076830Y0038267D01*
X0076950Y0037995D01*
X0077077Y0037725D01*
X0077210Y0037459D01*
X0077350Y0037196D01*
X0077496Y0036936D01*
X0077648Y0036681D01*
X0077807Y0036429D01*
X0077972Y0036180D01*
X0078142Y0035936D01*
X0078319Y0035697D01*
X0078501Y0035461D01*
X0078690Y0035230D01*
X0078883Y0035004D01*
X0079082Y0034783D01*
X0079287Y0034566D01*
X0079497Y0034355D01*
X0079712Y0034148D01*
X0079931Y0033947D01*
X0080156Y0033752D01*
X0080386Y0033562D01*
X0080619Y0033378D01*
X0080858Y0033199D01*
X0081101Y0033026D01*
X0081347Y0032860D01*
X0081598Y0032699D01*
X0081853Y0032545D01*
X0082111Y0032396D01*
X0082373Y0032255D01*
X0082638Y0032119D01*
X0082907Y0031990D01*
X0083178Y0031868D01*
X0083453Y0031752D01*
X0083730Y0031644D01*
X0084010Y0031542D01*
X0084292Y0031446D01*
X0084304Y0031482D01*
X0084022Y0031576D01*
X0083743Y0031678D01*
X0083467Y0031787D01*
X0083193Y0031902D01*
X0082922Y0032024D01*
X0082655Y0032152D01*
X0082390Y0032287D01*
X0082129Y0032429D01*
X0081872Y0032577D01*
X0081618Y0032731D01*
X0081368Y0032891D01*
X0081122Y0033057D01*
X0080880Y0033229D01*
X0080642Y0033407D01*
X0080409Y0033591D01*
X0080180Y0033780D01*
X0079956Y0033975D01*
X0079737Y0034175D01*
X0079523Y0034381D01*
X0079314Y0034592D01*
X0079110Y0034808D01*
X0078911Y0035028D01*
X0078718Y0035254D01*
X0078530Y0035484D01*
X0078348Y0035719D01*
X0078172Y0035958D01*
X0078002Y0036201D01*
X0077838Y0036449D01*
X0077680Y0036700D01*
X0077528Y0036955D01*
X0077382Y0037214D01*
X0077243Y0037476D01*
X0077110Y0037742D01*
X0076984Y0038010D01*
X0076864Y0038282D01*
X0076751Y0038557D01*
X0076644Y0038834D01*
X0076545Y0039114D01*
X0076452Y0039396D01*
X0076366Y0039680D01*
X0076288Y0039966D01*
X0076216Y0040254D01*
X0076151Y0040544D01*
X0076093Y0040835D01*
X0076043Y0041128D01*
X0076000Y0041422D01*
X0075963Y0041716D01*
X0075934Y0042012D01*
X0075913Y0042308D01*
X0075898Y0042605D01*
X0075891Y0042902D01*
X0075891Y0043198D01*
X0075898Y0043495D01*
X0075913Y0043792D01*
X0075934Y0044088D01*
X0075963Y0044384D01*
X0076000Y0044678D01*
X0076043Y0044972D01*
X0076093Y0045265D01*
X0076151Y0045556D01*
X0076216Y0045846D01*
X0076288Y0046134D01*
X0076366Y0046420D01*
X0076452Y0046704D01*
X0076545Y0046986D01*
X0076644Y0047266D01*
X0076751Y0047543D01*
X0076864Y0047818D01*
X0076984Y0048090D01*
X0077110Y0048358D01*
X0077243Y0048624D01*
X0077382Y0048886D01*
X0077528Y0049145D01*
X0077680Y0049400D01*
X0077838Y0049651D01*
X0078002Y0049899D01*
X0078172Y0050142D01*
X0078348Y0050381D01*
X0078530Y0050616D01*
X0078718Y0050846D01*
X0078911Y0051072D01*
X0079110Y0051292D01*
X0079314Y0051508D01*
X0079523Y0051719D01*
X0079737Y0051925D01*
X0079956Y0052125D01*
X0080180Y0052320D01*
X0080409Y0052509D01*
X0080642Y0052693D01*
X0080880Y0052871D01*
X0081122Y0053043D01*
X0081368Y0053209D01*
X0081618Y0053369D01*
X0081872Y0053523D01*
X0082129Y0053671D01*
X0082390Y0053813D01*
X0082655Y0053948D01*
X0082922Y0054076D01*
X0083193Y0054198D01*
X0083467Y0054313D01*
X0083743Y0054422D01*
X0084022Y0054524D01*
X0084304Y0054618D01*
X0084315Y0054583D01*
X0084034Y0054489D01*
X0083756Y0054387D01*
X0083481Y0054279D01*
X0083208Y0054164D01*
X0082938Y0054042D01*
X0082671Y0053914D01*
X0082407Y0053780D01*
X0082147Y0053639D01*
X0081890Y0053492D01*
X0081637Y0053338D01*
X0081388Y0053178D01*
X0081143Y0053013D01*
X0080901Y0052841D01*
X0080665Y0052664D01*
X0080432Y0052480D01*
X0080204Y0052292D01*
X0079981Y0052097D01*
X0079762Y0051898D01*
X0079549Y0051693D01*
X0079340Y0051482D01*
X0079137Y0051267D01*
X0078939Y0051047D01*
X0078746Y0050822D01*
X0078559Y0050593D01*
X0078378Y0050359D01*
X0078202Y0050120D01*
X0078033Y0049878D01*
X0077869Y0049631D01*
X0077711Y0049381D01*
X0077560Y0049126D01*
X0077415Y0048868D01*
X0077276Y0048607D01*
X0077143Y0048342D01*
X0077017Y0048074D01*
X0076898Y0047804D01*
X0076785Y0047530D01*
X0076679Y0047253D01*
X0076580Y0046974D01*
X0076487Y0046693D01*
X0076402Y0046410D01*
X0076323Y0046124D01*
X0076252Y0045837D01*
X0076187Y0045548D01*
X0076130Y0045258D01*
X0076079Y0044966D01*
X0076036Y0044673D01*
X0076000Y0044379D01*
X0075971Y0044085D01*
X0075950Y0043790D01*
X0075935Y0043494D01*
X0075928Y0043198D01*
X0075928Y0042902D01*
X0075935Y0042606D01*
X0075950Y0042310D01*
X0075971Y0042015D01*
X0076000Y0041721D01*
X0076036Y0041427D01*
X0076079Y0041134D01*
X0076130Y0040842D01*
X0076187Y0040552D01*
X0076252Y0040263D01*
X0076323Y0039976D01*
X0076402Y0039690D01*
X0076487Y0039407D01*
X0076580Y0039126D01*
X0076679Y0038847D01*
X0076785Y0038570D01*
X0076898Y0038296D01*
X0077017Y0038026D01*
X0077143Y0037758D01*
X0077276Y0037493D01*
X0077415Y0037232D01*
X0077560Y0036974D01*
X0077711Y0036719D01*
X0077869Y0036469D01*
X0078033Y0036222D01*
X0078202Y0035980D01*
X0078378Y0035741D01*
X0078559Y0035507D01*
X0078746Y0035278D01*
X0078939Y0035053D01*
X0079137Y0034833D01*
X0079340Y0034618D01*
X0079549Y0034407D01*
X0079762Y0034202D01*
X0079981Y0034003D01*
X0080204Y0033808D01*
X0080432Y0033620D01*
X0080665Y0033436D01*
X0080901Y0033259D01*
X0081143Y0033087D01*
X0081388Y0032922D01*
X0081637Y0032762D01*
X0081890Y0032608D01*
X0082147Y0032461D01*
X0082407Y0032320D01*
X0082671Y0032186D01*
X0082938Y0032058D01*
X0083208Y0031936D01*
X0083481Y0031821D01*
X0083756Y0031713D01*
X0084034Y0031611D01*
X0084315Y0031517D01*
X0084326Y0031552D01*
X0084047Y0031646D01*
X0083769Y0031747D01*
X0083495Y0031855D01*
X0083223Y0031970D01*
X0082954Y0032091D01*
X0082688Y0032219D01*
X0082425Y0032353D01*
X0082165Y0032494D01*
X0081909Y0032640D01*
X0081657Y0032793D01*
X0081408Y0032953D01*
X0081164Y0033118D01*
X0080923Y0033289D01*
X0080687Y0033466D01*
X0080455Y0033648D01*
X0080228Y0033837D01*
X0080005Y0034030D01*
X0079787Y0034229D01*
X0079575Y0034434D01*
X0079367Y0034643D01*
X0079164Y0034858D01*
X0078967Y0035077D01*
X0078775Y0035301D01*
X0078588Y0035530D01*
X0078407Y0035764D01*
X0078232Y0036001D01*
X0078063Y0036243D01*
X0077900Y0036489D01*
X0077743Y0036739D01*
X0077592Y0036992D01*
X0077447Y0037249D01*
X0077309Y0037510D01*
X0077176Y0037774D01*
X0077051Y0038041D01*
X0076932Y0038311D01*
X0076819Y0038584D01*
X0076714Y0038859D01*
X0076615Y0039137D01*
X0076523Y0039418D01*
X0076437Y0039700D01*
X0076359Y0039985D01*
X0076288Y0040271D01*
X0076223Y0040559D01*
X0076166Y0040849D01*
X0076116Y0041140D01*
X0076073Y0041432D01*
X0076037Y0041725D01*
X0076008Y0042018D01*
X0075987Y0042313D01*
X0075972Y0042607D01*
X0075965Y0042902D01*
X0075965Y0043198D01*
X0075972Y0043493D01*
X0075987Y0043787D01*
X0076008Y0044082D01*
X0076037Y0044375D01*
X0076073Y0044668D01*
X0076116Y0044960D01*
X0076166Y0045251D01*
X0076223Y0045541D01*
X0076288Y0045829D01*
X0076359Y0046115D01*
X0076437Y0046400D01*
X0076523Y0046682D01*
X0076615Y0046963D01*
X0076714Y0047241D01*
X0076819Y0047516D01*
X0076932Y0047789D01*
X0077051Y0048059D01*
X0077176Y0048326D01*
X0077309Y0048590D01*
X0077447Y0048851D01*
X0077592Y0049108D01*
X0077743Y0049361D01*
X0077900Y0049611D01*
X0078063Y0049857D01*
X0078232Y0050099D01*
X0078407Y0050336D01*
X0078588Y0050570D01*
X0078775Y0050799D01*
X0078967Y0051023D01*
X0079164Y0051242D01*
X0079367Y0051457D01*
X0079575Y0051666D01*
X0079787Y0051871D01*
X0080005Y0052070D01*
X0080228Y0052263D01*
X0080455Y0052452D01*
X0080687Y0052634D01*
X0080923Y0052811D01*
X0081164Y0052982D01*
X0081408Y0053147D01*
X0081657Y0053307D01*
X0081909Y0053460D01*
X0082165Y0053606D01*
X0082425Y0053747D01*
X0082688Y0053881D01*
X0082954Y0054009D01*
X0083223Y0054130D01*
X0083495Y0054245D01*
X0083769Y0054353D01*
X0084047Y0054454D01*
X0084326Y0054548D01*
X0084338Y0054513D01*
X0084059Y0054419D01*
X0083782Y0054318D01*
X0083509Y0054210D01*
X0083237Y0054096D01*
X0082969Y0053975D01*
X0082704Y0053848D01*
X0082442Y0053714D01*
X0082183Y0053574D01*
X0081928Y0053428D01*
X0081676Y0053275D01*
X0081429Y0053117D01*
X0081185Y0052952D01*
X0080945Y0052781D01*
X0080710Y0052605D01*
X0080478Y0052423D01*
X0080252Y0052235D01*
X0080030Y0052042D01*
X0079813Y0051843D01*
X0079600Y0051640D01*
X0079393Y0051431D01*
X0079191Y0051217D01*
X0078994Y0050998D01*
X0078803Y0050775D01*
X0078617Y0050547D01*
X0078437Y0050314D01*
X0078262Y0050077D01*
X0078094Y0049836D01*
X0077931Y0049591D01*
X0077774Y0049342D01*
X0077624Y0049089D01*
X0077479Y0048833D01*
X0077341Y0048573D01*
X0077210Y0048310D01*
X0077085Y0048044D01*
X0076966Y0047774D01*
X0076854Y0047502D01*
X0076748Y0047228D01*
X0076650Y0046951D01*
X0076558Y0046671D01*
X0076473Y0046389D01*
X0076395Y0046106D01*
X0076324Y0045820D01*
X0076260Y0045533D01*
X0076203Y0045244D01*
X0076152Y0044954D01*
X0076110Y0044663D01*
X0076074Y0044371D01*
X0076045Y0044079D01*
X0076023Y0043785D01*
X0076009Y0043491D01*
X0076002Y0043197D01*
X0076002Y0042903D01*
X0076009Y0042609D01*
X0076023Y0042315D01*
X0076045Y0042021D01*
X0076074Y0041729D01*
X0076110Y0041437D01*
X0076152Y0041146D01*
X0076203Y0040856D01*
X0076260Y0040567D01*
X0076324Y0040280D01*
X0076395Y0039994D01*
X0076473Y0039711D01*
X0076558Y0039429D01*
X0076650Y0039149D01*
X0076748Y0038872D01*
X0076854Y0038598D01*
X0076966Y0038326D01*
X0077085Y0038056D01*
X0077210Y0037790D01*
X0077341Y0037527D01*
X0077479Y0037267D01*
X0077624Y0037011D01*
X0077774Y0036758D01*
X0077931Y0036509D01*
X0078094Y0036264D01*
X0078262Y0036023D01*
X0078437Y0035786D01*
X0078617Y0035553D01*
X0078803Y0035325D01*
X0078994Y0035102D01*
X0079191Y0034883D01*
X0079393Y0034669D01*
X0079600Y0034460D01*
X0079813Y0034257D01*
X0080030Y0034058D01*
X0080252Y0033865D01*
X0080478Y0033677D01*
X0080710Y0033495D01*
X0080945Y0033319D01*
X0081185Y0033148D01*
X0081429Y0032983D01*
X0081676Y0032825D01*
X0081928Y0032672D01*
X0082183Y0032526D01*
X0082442Y0032386D01*
X0082704Y0032252D01*
X0082969Y0032125D01*
X0083237Y0032004D01*
X0083509Y0031890D01*
X0083782Y0031782D01*
X0084059Y0031681D01*
X0084338Y0031587D01*
X0091864Y0031271D02*
X0091754Y0031613D01*
X0092032Y0031707D01*
X0092308Y0031807D01*
X0092581Y0031915D01*
X0092852Y0032029D01*
X0093120Y0032149D01*
X0093384Y0032276D01*
X0093646Y0032410D01*
X0093904Y0032549D01*
X0094158Y0032696D01*
X0094409Y0032848D01*
X0094657Y0033006D01*
X0094900Y0033170D01*
X0095139Y0033341D01*
X0095374Y0033517D01*
X0095605Y0033698D01*
X0095831Y0033885D01*
X0096052Y0034078D01*
X0096269Y0034276D01*
X0096481Y0034480D01*
X0096687Y0034688D01*
X0096889Y0034901D01*
X0097085Y0035120D01*
X0097276Y0035343D01*
X0097462Y0035570D01*
X0097642Y0035802D01*
X0097816Y0036039D01*
X0097984Y0036279D01*
X0098146Y0036524D01*
X0098303Y0036772D01*
X0098453Y0037024D01*
X0098597Y0037280D01*
X0098735Y0037539D01*
X0098866Y0037802D01*
X0098991Y0038068D01*
X0099109Y0038336D01*
X0099221Y0038608D01*
X0099326Y0038882D01*
X0099425Y0039158D01*
X0099516Y0039437D01*
X0099601Y0039718D01*
X0099679Y0040001D01*
X0099750Y0040286D01*
X0099814Y0040573D01*
X0099871Y0040861D01*
X0099921Y0041150D01*
X0099964Y0041440D01*
X0099999Y0041732D01*
X0100028Y0042024D01*
X0100050Y0042317D01*
X0100064Y0042610D01*
X0100071Y0042903D01*
X0100071Y0043197D01*
X0100064Y0043490D01*
X0100050Y0043783D01*
X0100028Y0044076D01*
X0099999Y0044368D01*
X0099964Y0044660D01*
X0099921Y0044950D01*
X0099871Y0045239D01*
X0099814Y0045527D01*
X0099750Y0045814D01*
X0099679Y0046099D01*
X0099601Y0046382D01*
X0099516Y0046663D01*
X0099425Y0046942D01*
X0099326Y0047218D01*
X0099221Y0047492D01*
X0099109Y0047764D01*
X0098991Y0048032D01*
X0098866Y0048298D01*
X0098735Y0048561D01*
X0098597Y0048820D01*
X0098453Y0049076D01*
X0098303Y0049328D01*
X0098146Y0049576D01*
X0097984Y0049821D01*
X0097816Y0050061D01*
X0097642Y0050298D01*
X0097462Y0050530D01*
X0097276Y0050757D01*
X0097085Y0050980D01*
X0096889Y0051199D01*
X0096687Y0051412D01*
X0096481Y0051620D01*
X0096269Y0051824D01*
X0096052Y0052022D01*
X0095831Y0052215D01*
X0095605Y0052402D01*
X0095374Y0052583D01*
X0095139Y0052759D01*
X0094900Y0052930D01*
X0094657Y0053094D01*
X0094409Y0053252D01*
X0094158Y0053404D01*
X0093904Y0053551D01*
X0093646Y0053690D01*
X0093384Y0053824D01*
X0093120Y0053951D01*
X0092852Y0054071D01*
X0092581Y0054185D01*
X0092308Y0054293D01*
X0092032Y0054393D01*
X0091754Y0054487D01*
X0091864Y0054829D01*
X0091865Y0054830D01*
X0092151Y0054733D01*
X0092435Y0054630D01*
X0092716Y0054519D01*
X0092995Y0054402D01*
X0093271Y0054277D01*
X0093543Y0054147D01*
X0093813Y0054009D01*
X0094079Y0053865D01*
X0094341Y0053715D01*
X0094599Y0053558D01*
X0094854Y0053395D01*
X0095105Y0053226D01*
X0095351Y0053050D01*
X0095593Y0052869D01*
X0095831Y0052682D01*
X0096063Y0052489D01*
X0096292Y0052291D01*
X0096515Y0052087D01*
X0096733Y0051877D01*
X0096946Y0051663D01*
X0097153Y0051443D01*
X0097356Y0051218D01*
X0097552Y0050988D01*
X0097743Y0050754D01*
X0097929Y0050515D01*
X0098108Y0050272D01*
X0098281Y0050024D01*
X0098448Y0049772D01*
X0098610Y0049516D01*
X0098764Y0049256D01*
X0098913Y0048993D01*
X0099054Y0048726D01*
X0099190Y0048455D01*
X0099318Y0048182D01*
X0099440Y0047905D01*
X0099556Y0047626D01*
X0099664Y0047343D01*
X0099765Y0047058D01*
X0099860Y0046771D01*
X0099947Y0046482D01*
X0100027Y0046190D01*
X0100100Y0045897D01*
X0100166Y0045602D01*
X0100225Y0045305D01*
X0100276Y0045007D01*
X0100320Y0044708D01*
X0100357Y0044408D01*
X0100387Y0044107D01*
X0100409Y0043805D01*
X0100424Y0043503D01*
X0100431Y0043201D01*
X0100431Y0042899D01*
X0100424Y0042597D01*
X0100409Y0042295D01*
X0100387Y0041993D01*
X0100357Y0041692D01*
X0100320Y0041392D01*
X0100276Y0041093D01*
X0100225Y0040795D01*
X0100166Y0040498D01*
X0100100Y0040203D01*
X0100027Y0039910D01*
X0099947Y0039618D01*
X0099860Y0039329D01*
X0099765Y0039042D01*
X0099664Y0038757D01*
X0099556Y0038474D01*
X0099440Y0038195D01*
X0099318Y0037918D01*
X0099190Y0037645D01*
X0099054Y0037374D01*
X0098913Y0037107D01*
X0098764Y0036844D01*
X0098610Y0036584D01*
X0098448Y0036328D01*
X0098281Y0036076D01*
X0098108Y0035828D01*
X0097929Y0035585D01*
X0097743Y0035346D01*
X0097552Y0035112D01*
X0097356Y0034882D01*
X0097153Y0034657D01*
X0096946Y0034437D01*
X0096733Y0034223D01*
X0096515Y0034013D01*
X0096292Y0033809D01*
X0096063Y0033611D01*
X0095831Y0033418D01*
X0095593Y0033231D01*
X0095351Y0033050D01*
X0095105Y0032874D01*
X0094854Y0032705D01*
X0094599Y0032542D01*
X0094341Y0032385D01*
X0094079Y0032235D01*
X0093813Y0032091D01*
X0093543Y0031953D01*
X0093271Y0031823D01*
X0092995Y0031698D01*
X0092716Y0031581D01*
X0092435Y0031470D01*
X0092151Y0031367D01*
X0091865Y0031270D01*
X0091853Y0031305D01*
X0092139Y0031402D01*
X0092422Y0031505D01*
X0092703Y0031615D01*
X0092980Y0031732D01*
X0093255Y0031856D01*
X0093527Y0031987D01*
X0093796Y0032124D01*
X0094061Y0032267D01*
X0094322Y0032417D01*
X0094580Y0032573D01*
X0094834Y0032736D01*
X0095084Y0032905D01*
X0095329Y0033079D01*
X0095571Y0033260D01*
X0095807Y0033447D01*
X0096040Y0033639D01*
X0096267Y0033837D01*
X0096489Y0034040D01*
X0096707Y0034249D01*
X0096919Y0034463D01*
X0097126Y0034682D01*
X0097328Y0034906D01*
X0097524Y0035135D01*
X0097714Y0035369D01*
X0097899Y0035607D01*
X0098078Y0035850D01*
X0098251Y0036097D01*
X0098417Y0036348D01*
X0098578Y0036603D01*
X0098732Y0036862D01*
X0098880Y0037125D01*
X0099022Y0037391D01*
X0099156Y0037661D01*
X0099285Y0037933D01*
X0099406Y0038209D01*
X0099521Y0038488D01*
X0099629Y0038770D01*
X0099730Y0039054D01*
X0099824Y0039340D01*
X0099911Y0039629D01*
X0099991Y0039919D01*
X0100064Y0040212D01*
X0100130Y0040506D01*
X0100189Y0040802D01*
X0100240Y0041099D01*
X0100284Y0041397D01*
X0100321Y0041696D01*
X0100350Y0041996D01*
X0100372Y0042297D01*
X0100387Y0042598D01*
X0100394Y0042899D01*
X0100394Y0043201D01*
X0100387Y0043502D01*
X0100372Y0043803D01*
X0100350Y0044104D01*
X0100321Y0044404D01*
X0100284Y0044703D01*
X0100240Y0045001D01*
X0100189Y0045298D01*
X0100130Y0045594D01*
X0100064Y0045888D01*
X0099991Y0046181D01*
X0099911Y0046471D01*
X0099824Y0046760D01*
X0099730Y0047046D01*
X0099629Y0047330D01*
X0099521Y0047612D01*
X0099406Y0047891D01*
X0099285Y0048167D01*
X0099156Y0048439D01*
X0099022Y0048709D01*
X0098880Y0048975D01*
X0098732Y0049238D01*
X0098578Y0049497D01*
X0098417Y0049752D01*
X0098251Y0050003D01*
X0098078Y0050250D01*
X0097899Y0050493D01*
X0097714Y0050731D01*
X0097524Y0050965D01*
X0097328Y0051194D01*
X0097126Y0051418D01*
X0096919Y0051637D01*
X0096707Y0051851D01*
X0096489Y0052060D01*
X0096267Y0052263D01*
X0096040Y0052461D01*
X0095807Y0052653D01*
X0095571Y0052840D01*
X0095329Y0053021D01*
X0095084Y0053195D01*
X0094834Y0053364D01*
X0094580Y0053527D01*
X0094322Y0053683D01*
X0094061Y0053833D01*
X0093796Y0053976D01*
X0093527Y0054113D01*
X0093255Y0054244D01*
X0092980Y0054368D01*
X0092703Y0054485D01*
X0092422Y0054595D01*
X0092139Y0054698D01*
X0091853Y0054795D01*
X0091842Y0054759D01*
X0092127Y0054663D01*
X0092409Y0054560D01*
X0092689Y0054450D01*
X0092966Y0054334D01*
X0093240Y0054210D01*
X0093511Y0054080D01*
X0093778Y0053944D01*
X0094043Y0053801D01*
X0094303Y0053651D01*
X0094560Y0053495D01*
X0094814Y0053333D01*
X0095063Y0053165D01*
X0095307Y0052991D01*
X0095548Y0052810D01*
X0095784Y0052624D01*
X0096016Y0052433D01*
X0096242Y0052235D01*
X0096464Y0052033D01*
X0096681Y0051825D01*
X0096893Y0051611D01*
X0097099Y0051393D01*
X0097300Y0051169D01*
X0097496Y0050941D01*
X0097685Y0050708D01*
X0097870Y0050470D01*
X0098048Y0050228D01*
X0098220Y0049982D01*
X0098386Y0049732D01*
X0098546Y0049477D01*
X0098700Y0049219D01*
X0098848Y0048957D01*
X0098989Y0048692D01*
X0099123Y0048423D01*
X0099251Y0048151D01*
X0099372Y0047876D01*
X0099487Y0047598D01*
X0099594Y0047318D01*
X0099695Y0047034D01*
X0099789Y0046749D01*
X0099876Y0046461D01*
X0099956Y0046171D01*
X0100028Y0045880D01*
X0100094Y0045586D01*
X0100152Y0045292D01*
X0100203Y0044995D01*
X0100247Y0044698D01*
X0100284Y0044400D01*
X0100313Y0044101D01*
X0100335Y0043801D01*
X0100350Y0043501D01*
X0100357Y0043200D01*
X0100357Y0042900D01*
X0100350Y0042599D01*
X0100335Y0042299D01*
X0100313Y0041999D01*
X0100284Y0041700D01*
X0100247Y0041402D01*
X0100203Y0041105D01*
X0100152Y0040808D01*
X0100094Y0040514D01*
X0100028Y0040220D01*
X0099956Y0039929D01*
X0099876Y0039639D01*
X0099789Y0039351D01*
X0099695Y0039066D01*
X0099594Y0038782D01*
X0099487Y0038502D01*
X0099372Y0038224D01*
X0099251Y0037949D01*
X0099123Y0037677D01*
X0098989Y0037408D01*
X0098848Y0037143D01*
X0098700Y0036881D01*
X0098546Y0036623D01*
X0098386Y0036368D01*
X0098220Y0036118D01*
X0098048Y0035872D01*
X0097870Y0035630D01*
X0097685Y0035392D01*
X0097496Y0035159D01*
X0097300Y0034931D01*
X0097099Y0034707D01*
X0096893Y0034489D01*
X0096681Y0034275D01*
X0096464Y0034067D01*
X0096242Y0033865D01*
X0096016Y0033667D01*
X0095784Y0033476D01*
X0095548Y0033290D01*
X0095307Y0033109D01*
X0095063Y0032935D01*
X0094814Y0032767D01*
X0094560Y0032605D01*
X0094303Y0032449D01*
X0094043Y0032299D01*
X0093778Y0032156D01*
X0093511Y0032020D01*
X0093240Y0031890D01*
X0092966Y0031766D01*
X0092689Y0031650D01*
X0092409Y0031540D01*
X0092127Y0031437D01*
X0091842Y0031341D01*
X0091830Y0031376D01*
X0092114Y0031472D01*
X0092396Y0031574D01*
X0092675Y0031684D01*
X0092951Y0031800D01*
X0093224Y0031923D01*
X0093494Y0032053D01*
X0093761Y0032189D01*
X0094025Y0032332D01*
X0094285Y0032481D01*
X0094541Y0032636D01*
X0094793Y0032798D01*
X0095042Y0032966D01*
X0095286Y0033139D01*
X0095526Y0033319D01*
X0095761Y0033504D01*
X0095992Y0033695D01*
X0096218Y0033892D01*
X0096439Y0034094D01*
X0096655Y0034302D01*
X0096866Y0034515D01*
X0097072Y0034732D01*
X0097272Y0034955D01*
X0097467Y0035183D01*
X0097656Y0035415D01*
X0097840Y0035652D01*
X0098018Y0035893D01*
X0098190Y0036139D01*
X0098355Y0036388D01*
X0098515Y0036642D01*
X0098668Y0036899D01*
X0098815Y0037160D01*
X0098956Y0037425D01*
X0099090Y0037693D01*
X0099217Y0037964D01*
X0099338Y0038238D01*
X0099452Y0038515D01*
X0099560Y0038795D01*
X0099660Y0039078D01*
X0099754Y0039362D01*
X0099840Y0039649D01*
X0099920Y0039938D01*
X0099992Y0040229D01*
X0100058Y0040521D01*
X0100116Y0040815D01*
X0100167Y0041110D01*
X0100210Y0041407D01*
X0100247Y0041704D01*
X0100276Y0042002D01*
X0100298Y0042301D01*
X0100313Y0042601D01*
X0100320Y0042900D01*
X0100320Y0043200D01*
X0100313Y0043499D01*
X0100298Y0043799D01*
X0100276Y0044098D01*
X0100247Y0044396D01*
X0100210Y0044693D01*
X0100167Y0044990D01*
X0100116Y0045285D01*
X0100058Y0045579D01*
X0099992Y0045871D01*
X0099920Y0046162D01*
X0099840Y0046451D01*
X0099754Y0046738D01*
X0099660Y0047022D01*
X0099560Y0047305D01*
X0099452Y0047585D01*
X0099338Y0047862D01*
X0099217Y0048136D01*
X0099090Y0048407D01*
X0098956Y0048675D01*
X0098815Y0048940D01*
X0098668Y0049201D01*
X0098515Y0049458D01*
X0098355Y0049712D01*
X0098190Y0049961D01*
X0098018Y0050207D01*
X0097840Y0050448D01*
X0097656Y0050685D01*
X0097467Y0050917D01*
X0097272Y0051145D01*
X0097072Y0051368D01*
X0096866Y0051585D01*
X0096655Y0051798D01*
X0096439Y0052006D01*
X0096218Y0052208D01*
X0095992Y0052405D01*
X0095761Y0052596D01*
X0095526Y0052781D01*
X0095286Y0052961D01*
X0095042Y0053134D01*
X0094793Y0053302D01*
X0094541Y0053464D01*
X0094285Y0053619D01*
X0094025Y0053768D01*
X0093761Y0053911D01*
X0093494Y0054047D01*
X0093224Y0054177D01*
X0092951Y0054300D01*
X0092675Y0054416D01*
X0092396Y0054526D01*
X0092114Y0054628D01*
X0091830Y0054724D01*
X0091819Y0054689D01*
X0092102Y0054593D01*
X0092383Y0054491D01*
X0092661Y0054382D01*
X0092936Y0054266D01*
X0093209Y0054143D01*
X0093478Y0054014D01*
X0093744Y0053878D01*
X0094007Y0053736D01*
X0094266Y0053587D01*
X0094521Y0053432D01*
X0094773Y0053271D01*
X0095020Y0053104D01*
X0095264Y0052931D01*
X0095503Y0052752D01*
X0095738Y0052567D01*
X0095968Y0052376D01*
X0096193Y0052180D01*
X0096414Y0051979D01*
X0096629Y0051772D01*
X0096840Y0051560D01*
X0097045Y0051343D01*
X0097245Y0051120D01*
X0097439Y0050894D01*
X0097628Y0050662D01*
X0097811Y0050426D01*
X0097988Y0050185D01*
X0098159Y0049940D01*
X0098324Y0049692D01*
X0098483Y0049439D01*
X0098636Y0049182D01*
X0098783Y0048922D01*
X0098923Y0048658D01*
X0099057Y0048391D01*
X0099184Y0048120D01*
X0099304Y0047847D01*
X0099418Y0047571D01*
X0099525Y0047292D01*
X0099625Y0047010D01*
X0099718Y0046727D01*
X0099805Y0046441D01*
X0099884Y0046153D01*
X0099956Y0045863D01*
X0100021Y0045571D01*
X0100079Y0045278D01*
X0100130Y0044984D01*
X0100174Y0044688D01*
X0100210Y0044392D01*
X0100239Y0044094D01*
X0100261Y0043796D01*
X0100276Y0043498D01*
X0100283Y0043199D01*
X0100283Y0042901D01*
X0100276Y0042602D01*
X0100261Y0042304D01*
X0100239Y0042006D01*
X0100210Y0041708D01*
X0100174Y0041412D01*
X0100130Y0041116D01*
X0100079Y0040822D01*
X0100021Y0040529D01*
X0099956Y0040237D01*
X0099884Y0039947D01*
X0099805Y0039659D01*
X0099718Y0039373D01*
X0099625Y0039090D01*
X0099525Y0038808D01*
X0099418Y0038529D01*
X0099304Y0038253D01*
X0099184Y0037980D01*
X0099057Y0037709D01*
X0098923Y0037442D01*
X0098783Y0037178D01*
X0098636Y0036918D01*
X0098483Y0036661D01*
X0098324Y0036408D01*
X0098159Y0036160D01*
X0097988Y0035915D01*
X0097811Y0035674D01*
X0097628Y0035438D01*
X0097439Y0035206D01*
X0097245Y0034980D01*
X0097045Y0034757D01*
X0096840Y0034540D01*
X0096629Y0034328D01*
X0096414Y0034121D01*
X0096193Y0033920D01*
X0095968Y0033724D01*
X0095738Y0033533D01*
X0095503Y0033348D01*
X0095264Y0033169D01*
X0095020Y0032996D01*
X0094773Y0032829D01*
X0094521Y0032668D01*
X0094266Y0032513D01*
X0094007Y0032364D01*
X0093744Y0032222D01*
X0093478Y0032086D01*
X0093209Y0031957D01*
X0092936Y0031834D01*
X0092661Y0031718D01*
X0092383Y0031609D01*
X0092102Y0031507D01*
X0091819Y0031411D01*
X0091808Y0031446D01*
X0092090Y0031542D01*
X0092370Y0031644D01*
X0092647Y0031752D01*
X0092922Y0031868D01*
X0093193Y0031990D01*
X0093462Y0032119D01*
X0093727Y0032255D01*
X0093989Y0032396D01*
X0094247Y0032545D01*
X0094502Y0032699D01*
X0094753Y0032860D01*
X0094999Y0033026D01*
X0095242Y0033199D01*
X0095481Y0033378D01*
X0095714Y0033562D01*
X0095944Y0033752D01*
X0096169Y0033947D01*
X0096388Y0034148D01*
X0096603Y0034355D01*
X0096813Y0034566D01*
X0097018Y0034783D01*
X0097217Y0035004D01*
X0097410Y0035230D01*
X0097599Y0035461D01*
X0097781Y0035697D01*
X0097958Y0035936D01*
X0098128Y0036180D01*
X0098293Y0036429D01*
X0098452Y0036681D01*
X0098604Y0036936D01*
X0098750Y0037196D01*
X0098890Y0037459D01*
X0099023Y0037725D01*
X0099150Y0037995D01*
X0099270Y0038267D01*
X0099384Y0038543D01*
X0099490Y0038821D01*
X0099590Y0039102D01*
X0099683Y0039384D01*
X0099769Y0039670D01*
X0099848Y0039957D01*
X0099920Y0040246D01*
X0099985Y0040536D01*
X0100043Y0040829D01*
X0100094Y0041122D01*
X0100137Y0041417D01*
X0100173Y0041712D01*
X0100202Y0042009D01*
X0100224Y0042306D01*
X0100239Y0042603D01*
X0100246Y0042901D01*
X0100246Y0043199D01*
X0100239Y0043497D01*
X0100224Y0043794D01*
X0100202Y0044091D01*
X0100173Y0044388D01*
X0100137Y0044683D01*
X0100094Y0044978D01*
X0100043Y0045271D01*
X0099985Y0045564D01*
X0099920Y0045854D01*
X0099848Y0046143D01*
X0099769Y0046430D01*
X0099683Y0046716D01*
X0099590Y0046998D01*
X0099490Y0047279D01*
X0099384Y0047557D01*
X0099270Y0047833D01*
X0099150Y0048105D01*
X0099023Y0048375D01*
X0098890Y0048641D01*
X0098750Y0048904D01*
X0098604Y0049164D01*
X0098452Y0049419D01*
X0098293Y0049671D01*
X0098128Y0049920D01*
X0097958Y0050164D01*
X0097781Y0050403D01*
X0097599Y0050639D01*
X0097410Y0050870D01*
X0097217Y0051096D01*
X0097018Y0051317D01*
X0096813Y0051534D01*
X0096603Y0051745D01*
X0096388Y0051952D01*
X0096169Y0052153D01*
X0095944Y0052348D01*
X0095714Y0052538D01*
X0095481Y0052722D01*
X0095242Y0052901D01*
X0094999Y0053074D01*
X0094753Y0053240D01*
X0094502Y0053401D01*
X0094247Y0053555D01*
X0093989Y0053704D01*
X0093727Y0053845D01*
X0093462Y0053981D01*
X0093193Y0054110D01*
X0092922Y0054232D01*
X0092647Y0054348D01*
X0092370Y0054456D01*
X0092090Y0054558D01*
X0091808Y0054654D01*
X0091796Y0054618D01*
X0092078Y0054524D01*
X0092357Y0054422D01*
X0092633Y0054313D01*
X0092907Y0054198D01*
X0093178Y0054076D01*
X0093445Y0053948D01*
X0093710Y0053813D01*
X0093971Y0053671D01*
X0094228Y0053523D01*
X0094482Y0053369D01*
X0094732Y0053209D01*
X0094978Y0053043D01*
X0095220Y0052871D01*
X0095458Y0052693D01*
X0095691Y0052509D01*
X0095920Y0052320D01*
X0096144Y0052125D01*
X0096363Y0051925D01*
X0096577Y0051719D01*
X0096786Y0051508D01*
X0096990Y0051292D01*
X0097189Y0051072D01*
X0097382Y0050846D01*
X0097570Y0050616D01*
X0097752Y0050381D01*
X0097928Y0050142D01*
X0098098Y0049899D01*
X0098262Y0049651D01*
X0098420Y0049400D01*
X0098572Y0049145D01*
X0098718Y0048886D01*
X0098857Y0048624D01*
X0098990Y0048358D01*
X0099116Y0048090D01*
X0099236Y0047818D01*
X0099349Y0047543D01*
X0099456Y0047266D01*
X0099555Y0046986D01*
X0099648Y0046704D01*
X0099734Y0046420D01*
X0099812Y0046134D01*
X0099884Y0045846D01*
X0099949Y0045556D01*
X0100007Y0045265D01*
X0100057Y0044972D01*
X0100100Y0044678D01*
X0100137Y0044384D01*
X0100166Y0044088D01*
X0100187Y0043792D01*
X0100202Y0043495D01*
X0100209Y0043198D01*
X0100209Y0042902D01*
X0100202Y0042605D01*
X0100187Y0042308D01*
X0100166Y0042012D01*
X0100137Y0041716D01*
X0100100Y0041422D01*
X0100057Y0041128D01*
X0100007Y0040835D01*
X0099949Y0040544D01*
X0099884Y0040254D01*
X0099812Y0039966D01*
X0099734Y0039680D01*
X0099648Y0039396D01*
X0099555Y0039114D01*
X0099456Y0038834D01*
X0099349Y0038557D01*
X0099236Y0038282D01*
X0099116Y0038010D01*
X0098990Y0037742D01*
X0098857Y0037476D01*
X0098718Y0037214D01*
X0098572Y0036955D01*
X0098420Y0036700D01*
X0098262Y0036449D01*
X0098098Y0036201D01*
X0097928Y0035958D01*
X0097752Y0035719D01*
X0097570Y0035484D01*
X0097382Y0035254D01*
X0097189Y0035028D01*
X0096990Y0034808D01*
X0096786Y0034592D01*
X0096577Y0034381D01*
X0096363Y0034175D01*
X0096144Y0033975D01*
X0095920Y0033780D01*
X0095691Y0033591D01*
X0095458Y0033407D01*
X0095220Y0033229D01*
X0094978Y0033057D01*
X0094732Y0032891D01*
X0094482Y0032731D01*
X0094228Y0032577D01*
X0093971Y0032429D01*
X0093710Y0032287D01*
X0093445Y0032152D01*
X0093178Y0032024D01*
X0092907Y0031902D01*
X0092633Y0031787D01*
X0092357Y0031678D01*
X0092078Y0031576D01*
X0091796Y0031482D01*
X0091785Y0031517D01*
X0092066Y0031611D01*
X0092344Y0031713D01*
X0092619Y0031821D01*
X0092892Y0031936D01*
X0093162Y0032058D01*
X0093429Y0032186D01*
X0093693Y0032320D01*
X0093953Y0032461D01*
X0094210Y0032608D01*
X0094463Y0032762D01*
X0094712Y0032922D01*
X0094957Y0033087D01*
X0095199Y0033259D01*
X0095435Y0033436D01*
X0095668Y0033620D01*
X0095896Y0033808D01*
X0096119Y0034003D01*
X0096338Y0034202D01*
X0096551Y0034407D01*
X0096760Y0034618D01*
X0096963Y0034833D01*
X0097161Y0035053D01*
X0097354Y0035278D01*
X0097541Y0035507D01*
X0097722Y0035741D01*
X0097898Y0035980D01*
X0098067Y0036222D01*
X0098231Y0036469D01*
X0098389Y0036719D01*
X0098540Y0036974D01*
X0098685Y0037232D01*
X0098824Y0037493D01*
X0098957Y0037758D01*
X0099083Y0038026D01*
X0099202Y0038296D01*
X0099315Y0038570D01*
X0099421Y0038847D01*
X0099520Y0039126D01*
X0099613Y0039407D01*
X0099698Y0039690D01*
X0099777Y0039976D01*
X0099848Y0040263D01*
X0099913Y0040552D01*
X0099970Y0040842D01*
X0100021Y0041134D01*
X0100064Y0041427D01*
X0100100Y0041721D01*
X0100129Y0042015D01*
X0100150Y0042310D01*
X0100165Y0042606D01*
X0100172Y0042902D01*
X0100172Y0043198D01*
X0100165Y0043494D01*
X0100150Y0043790D01*
X0100129Y0044085D01*
X0100100Y0044379D01*
X0100064Y0044673D01*
X0100021Y0044966D01*
X0099970Y0045258D01*
X0099913Y0045548D01*
X0099848Y0045837D01*
X0099777Y0046124D01*
X0099698Y0046410D01*
X0099613Y0046693D01*
X0099520Y0046974D01*
X0099421Y0047253D01*
X0099315Y0047530D01*
X0099202Y0047804D01*
X0099083Y0048074D01*
X0098957Y0048342D01*
X0098824Y0048607D01*
X0098685Y0048868D01*
X0098540Y0049126D01*
X0098389Y0049381D01*
X0098231Y0049631D01*
X0098067Y0049878D01*
X0097898Y0050120D01*
X0097722Y0050359D01*
X0097541Y0050593D01*
X0097354Y0050822D01*
X0097161Y0051047D01*
X0096963Y0051267D01*
X0096760Y0051482D01*
X0096551Y0051693D01*
X0096338Y0051898D01*
X0096119Y0052097D01*
X0095896Y0052292D01*
X0095668Y0052480D01*
X0095435Y0052664D01*
X0095199Y0052841D01*
X0094957Y0053013D01*
X0094712Y0053178D01*
X0094463Y0053338D01*
X0094210Y0053492D01*
X0093953Y0053639D01*
X0093693Y0053780D01*
X0093429Y0053914D01*
X0093162Y0054042D01*
X0092892Y0054164D01*
X0092619Y0054279D01*
X0092344Y0054387D01*
X0092066Y0054489D01*
X0091785Y0054583D01*
X0091774Y0054548D01*
X0092053Y0054454D01*
X0092331Y0054353D01*
X0092605Y0054245D01*
X0092877Y0054130D01*
X0093146Y0054009D01*
X0093412Y0053881D01*
X0093675Y0053747D01*
X0093935Y0053606D01*
X0094191Y0053460D01*
X0094443Y0053307D01*
X0094692Y0053147D01*
X0094936Y0052982D01*
X0095177Y0052811D01*
X0095413Y0052634D01*
X0095645Y0052452D01*
X0095872Y0052263D01*
X0096095Y0052070D01*
X0096313Y0051871D01*
X0096525Y0051666D01*
X0096733Y0051457D01*
X0096936Y0051242D01*
X0097133Y0051023D01*
X0097325Y0050799D01*
X0097512Y0050570D01*
X0097693Y0050336D01*
X0097868Y0050099D01*
X0098037Y0049857D01*
X0098200Y0049611D01*
X0098357Y0049361D01*
X0098508Y0049108D01*
X0098653Y0048851D01*
X0098791Y0048590D01*
X0098924Y0048326D01*
X0099049Y0048059D01*
X0099168Y0047789D01*
X0099281Y0047516D01*
X0099386Y0047241D01*
X0099485Y0046963D01*
X0099577Y0046682D01*
X0099663Y0046400D01*
X0099741Y0046115D01*
X0099812Y0045829D01*
X0099877Y0045541D01*
X0099934Y0045251D01*
X0099984Y0044960D01*
X0100027Y0044668D01*
X0100063Y0044375D01*
X0100092Y0044082D01*
X0100113Y0043787D01*
X0100128Y0043493D01*
X0100135Y0043198D01*
X0100135Y0042902D01*
X0100128Y0042607D01*
X0100113Y0042313D01*
X0100092Y0042018D01*
X0100063Y0041725D01*
X0100027Y0041432D01*
X0099984Y0041140D01*
X0099934Y0040849D01*
X0099877Y0040559D01*
X0099812Y0040271D01*
X0099741Y0039985D01*
X0099663Y0039700D01*
X0099577Y0039418D01*
X0099485Y0039137D01*
X0099386Y0038859D01*
X0099281Y0038584D01*
X0099168Y0038311D01*
X0099049Y0038041D01*
X0098924Y0037774D01*
X0098791Y0037510D01*
X0098653Y0037249D01*
X0098508Y0036992D01*
X0098357Y0036739D01*
X0098200Y0036489D01*
X0098037Y0036243D01*
X0097868Y0036001D01*
X0097693Y0035764D01*
X0097512Y0035530D01*
X0097325Y0035301D01*
X0097133Y0035077D01*
X0096936Y0034858D01*
X0096733Y0034643D01*
X0096525Y0034434D01*
X0096313Y0034229D01*
X0096095Y0034030D01*
X0095872Y0033837D01*
X0095645Y0033648D01*
X0095413Y0033466D01*
X0095177Y0033289D01*
X0094936Y0033118D01*
X0094692Y0032953D01*
X0094443Y0032793D01*
X0094191Y0032640D01*
X0093935Y0032494D01*
X0093675Y0032353D01*
X0093412Y0032219D01*
X0093146Y0032091D01*
X0092877Y0031970D01*
X0092605Y0031855D01*
X0092331Y0031747D01*
X0092053Y0031646D01*
X0091774Y0031552D01*
X0091762Y0031587D01*
X0092041Y0031681D01*
X0092318Y0031782D01*
X0092591Y0031890D01*
X0092863Y0032004D01*
X0093131Y0032125D01*
X0093396Y0032252D01*
X0093658Y0032386D01*
X0093917Y0032526D01*
X0094172Y0032672D01*
X0094424Y0032825D01*
X0094671Y0032983D01*
X0094915Y0033148D01*
X0095155Y0033319D01*
X0095390Y0033495D01*
X0095622Y0033677D01*
X0095848Y0033865D01*
X0096070Y0034058D01*
X0096287Y0034257D01*
X0096500Y0034460D01*
X0096707Y0034669D01*
X0096909Y0034883D01*
X0097106Y0035102D01*
X0097297Y0035325D01*
X0097483Y0035553D01*
X0097663Y0035786D01*
X0097838Y0036023D01*
X0098006Y0036264D01*
X0098169Y0036509D01*
X0098326Y0036758D01*
X0098476Y0037011D01*
X0098621Y0037267D01*
X0098759Y0037527D01*
X0098890Y0037790D01*
X0099015Y0038056D01*
X0099134Y0038326D01*
X0099246Y0038598D01*
X0099352Y0038872D01*
X0099450Y0039149D01*
X0099542Y0039429D01*
X0099627Y0039711D01*
X0099705Y0039994D01*
X0099776Y0040280D01*
X0099840Y0040567D01*
X0099897Y0040856D01*
X0099948Y0041146D01*
X0099990Y0041437D01*
X0100026Y0041729D01*
X0100055Y0042021D01*
X0100077Y0042315D01*
X0100091Y0042609D01*
X0100098Y0042903D01*
X0100098Y0043197D01*
X0100091Y0043491D01*
X0100077Y0043785D01*
X0100055Y0044079D01*
X0100026Y0044371D01*
X0099990Y0044663D01*
X0099948Y0044954D01*
X0099897Y0045244D01*
X0099840Y0045533D01*
X0099776Y0045820D01*
X0099705Y0046106D01*
X0099627Y0046389D01*
X0099542Y0046671D01*
X0099450Y0046951D01*
X0099352Y0047228D01*
X0099246Y0047502D01*
X0099134Y0047774D01*
X0099015Y0048044D01*
X0098890Y0048310D01*
X0098759Y0048573D01*
X0098621Y0048833D01*
X0098476Y0049089D01*
X0098326Y0049342D01*
X0098169Y0049591D01*
X0098006Y0049836D01*
X0097838Y0050077D01*
X0097663Y0050314D01*
X0097483Y0050547D01*
X0097297Y0050775D01*
X0097106Y0050998D01*
X0096909Y0051217D01*
X0096707Y0051431D01*
X0096500Y0051640D01*
X0096287Y0051843D01*
X0096070Y0052042D01*
X0095848Y0052235D01*
X0095622Y0052423D01*
X0095390Y0052605D01*
X0095155Y0052781D01*
X0094915Y0052952D01*
X0094671Y0053117D01*
X0094424Y0053275D01*
X0094172Y0053428D01*
X0093917Y0053574D01*
X0093658Y0053714D01*
X0093396Y0053848D01*
X0093131Y0053975D01*
X0092863Y0054096D01*
X0092591Y0054210D01*
X0092318Y0054318D01*
X0092041Y0054419D01*
X0091762Y0054513D01*
M02*
