G75*
%MOIN*%
%OFA0B0*%
%FSLAX25Y25*%
%IPPOS*%
%LPD*%
%AMOC8*
5,1,8,0,0,1.08239X$1,22.5*
%
%ADD10C,0.00500*%
%ADD11R,0.03740X0.01201*%
%ADD12R,0.01201X0.03740*%
%ADD13R,0.03150X0.03150*%
D10*
X0004000Y0014000D02*
X0004000Y0114000D01*
X0004015Y0115218D01*
X0004059Y0116434D01*
X0004133Y0117650D01*
X0004237Y0118863D01*
X0004370Y0120073D01*
X0004533Y0121280D01*
X0004725Y0122482D01*
X0004946Y0123680D01*
X0005196Y0124872D01*
X0005475Y0126057D01*
X0005783Y0127235D01*
X0006120Y0128405D01*
X0006485Y0129567D01*
X0006878Y0130719D01*
X0007299Y0131862D01*
X0007748Y0132993D01*
X0008224Y0134114D01*
X0008728Y0135223D01*
X0009258Y0136319D01*
X0009815Y0137402D01*
X0010398Y0138471D01*
X0011006Y0139525D01*
X0011641Y0140565D01*
X0012300Y0141588D01*
X0012984Y0142596D01*
X0013693Y0143586D01*
X0014425Y0144559D01*
X0015181Y0145513D01*
X0015960Y0146449D01*
X0016761Y0147366D01*
X0017585Y0148263D01*
X0018430Y0149139D01*
X0019296Y0149995D01*
X0020183Y0150830D01*
X0021090Y0151642D01*
X0022016Y0152432D01*
X0022962Y0153200D01*
X0023925Y0153944D01*
X0024907Y0154664D01*
X0025906Y0155361D01*
X0026921Y0156033D01*
X0027953Y0156680D01*
X0029000Y0157301D01*
X0030062Y0157897D01*
X0031138Y0158467D01*
X0032227Y0159011D01*
X0033330Y0159527D01*
X0034445Y0160017D01*
X0035571Y0160480D01*
X0036708Y0160915D01*
X0037856Y0161322D01*
X0039013Y0161701D01*
X0040179Y0162052D01*
X0041353Y0162374D01*
X0042535Y0162668D01*
X0043724Y0162933D01*
X0044918Y0163168D01*
X0046118Y0163375D01*
X0047323Y0163552D01*
X0048531Y0163700D01*
X0049743Y0163818D01*
X0050958Y0163907D01*
X0052174Y0163967D01*
X0053391Y0163996D01*
X0054609Y0163996D01*
X0055826Y0163967D01*
X0057042Y0163907D01*
X0058257Y0163818D01*
X0059469Y0163700D01*
X0060677Y0163552D01*
X0061882Y0163375D01*
X0063082Y0163168D01*
X0064276Y0162933D01*
X0065465Y0162668D01*
X0066647Y0162374D01*
X0067821Y0162052D01*
X0068987Y0161701D01*
X0070144Y0161322D01*
X0071292Y0160915D01*
X0072429Y0160480D01*
X0073555Y0160017D01*
X0074670Y0159527D01*
X0075773Y0159011D01*
X0076862Y0158467D01*
X0077938Y0157897D01*
X0079000Y0157301D01*
X0080047Y0156680D01*
X0081079Y0156033D01*
X0082094Y0155361D01*
X0083093Y0154664D01*
X0084075Y0153944D01*
X0085038Y0153200D01*
X0085984Y0152432D01*
X0086910Y0151642D01*
X0087817Y0150830D01*
X0088704Y0149995D01*
X0089570Y0149139D01*
X0090415Y0148263D01*
X0091239Y0147366D01*
X0092040Y0146449D01*
X0092819Y0145513D01*
X0093575Y0144559D01*
X0094307Y0143586D01*
X0095016Y0142596D01*
X0095700Y0141588D01*
X0096359Y0140565D01*
X0096994Y0139525D01*
X0097602Y0138471D01*
X0098185Y0137402D01*
X0098742Y0136319D01*
X0099272Y0135223D01*
X0099776Y0134114D01*
X0100252Y0132993D01*
X0100701Y0131862D01*
X0101122Y0130719D01*
X0101515Y0129567D01*
X0101880Y0128405D01*
X0102217Y0127235D01*
X0102525Y0126057D01*
X0102804Y0124872D01*
X0103054Y0123680D01*
X0103275Y0122482D01*
X0103467Y0121280D01*
X0103630Y0120073D01*
X0103763Y0118863D01*
X0103867Y0117650D01*
X0103941Y0116434D01*
X0103985Y0115218D01*
X0104000Y0114000D01*
X0104000Y0014000D01*
X0103997Y0013758D01*
X0103988Y0013517D01*
X0103974Y0013276D01*
X0103953Y0013035D01*
X0103927Y0012795D01*
X0103895Y0012555D01*
X0103857Y0012316D01*
X0103814Y0012079D01*
X0103764Y0011842D01*
X0103709Y0011607D01*
X0103649Y0011373D01*
X0103582Y0011141D01*
X0103511Y0010910D01*
X0103433Y0010681D01*
X0103350Y0010454D01*
X0103262Y0010229D01*
X0103168Y0010006D01*
X0103069Y0009786D01*
X0102964Y0009568D01*
X0102855Y0009353D01*
X0102740Y0009140D01*
X0102620Y0008930D01*
X0102495Y0008724D01*
X0102365Y0008520D01*
X0102230Y0008319D01*
X0102090Y0008122D01*
X0101946Y0007928D01*
X0101797Y0007738D01*
X0101643Y0007552D01*
X0101485Y0007369D01*
X0101323Y0007190D01*
X0101156Y0007015D01*
X0100985Y0006844D01*
X0100810Y0006677D01*
X0100631Y0006515D01*
X0100448Y0006357D01*
X0100262Y0006203D01*
X0100072Y0006054D01*
X0099878Y0005910D01*
X0099681Y0005770D01*
X0099480Y0005635D01*
X0099276Y0005505D01*
X0099070Y0005380D01*
X0098860Y0005260D01*
X0098647Y0005145D01*
X0098432Y0005036D01*
X0098214Y0004931D01*
X0097994Y0004832D01*
X0097771Y0004738D01*
X0097546Y0004650D01*
X0097319Y0004567D01*
X0097090Y0004489D01*
X0096859Y0004418D01*
X0096627Y0004351D01*
X0096393Y0004291D01*
X0096158Y0004236D01*
X0095921Y0004186D01*
X0095684Y0004143D01*
X0095445Y0004105D01*
X0095205Y0004073D01*
X0094965Y0004047D01*
X0094724Y0004026D01*
X0094483Y0004012D01*
X0094242Y0004003D01*
X0094000Y0004000D01*
X0014000Y0004000D01*
X0013758Y0004003D01*
X0013517Y0004012D01*
X0013276Y0004026D01*
X0013035Y0004047D01*
X0012795Y0004073D01*
X0012555Y0004105D01*
X0012316Y0004143D01*
X0012079Y0004186D01*
X0011842Y0004236D01*
X0011607Y0004291D01*
X0011373Y0004351D01*
X0011141Y0004418D01*
X0010910Y0004489D01*
X0010681Y0004567D01*
X0010454Y0004650D01*
X0010229Y0004738D01*
X0010006Y0004832D01*
X0009786Y0004931D01*
X0009568Y0005036D01*
X0009353Y0005145D01*
X0009140Y0005260D01*
X0008930Y0005380D01*
X0008724Y0005505D01*
X0008520Y0005635D01*
X0008319Y0005770D01*
X0008122Y0005910D01*
X0007928Y0006054D01*
X0007738Y0006203D01*
X0007552Y0006357D01*
X0007369Y0006515D01*
X0007190Y0006677D01*
X0007015Y0006844D01*
X0006844Y0007015D01*
X0006677Y0007190D01*
X0006515Y0007369D01*
X0006357Y0007552D01*
X0006203Y0007738D01*
X0006054Y0007928D01*
X0005910Y0008122D01*
X0005770Y0008319D01*
X0005635Y0008520D01*
X0005505Y0008724D01*
X0005380Y0008930D01*
X0005260Y0009140D01*
X0005145Y0009353D01*
X0005036Y0009568D01*
X0004931Y0009786D01*
X0004832Y0010006D01*
X0004738Y0010229D01*
X0004650Y0010454D01*
X0004567Y0010681D01*
X0004489Y0010910D01*
X0004418Y0011141D01*
X0004351Y0011373D01*
X0004291Y0011607D01*
X0004236Y0011842D01*
X0004186Y0012079D01*
X0004143Y0012316D01*
X0004105Y0012555D01*
X0004073Y0012795D01*
X0004047Y0013035D01*
X0004026Y0013276D01*
X0004012Y0013517D01*
X0004003Y0013758D01*
X0004000Y0014000D01*
D11*
X0048488Y0100063D03*
X0048488Y0102031D03*
X0048488Y0104000D03*
X0048488Y0105969D03*
X0048488Y0107937D03*
X0059512Y0107937D03*
X0059512Y0105969D03*
X0059512Y0104000D03*
X0059512Y0102031D03*
X0059512Y0100063D03*
D12*
X0055969Y0098488D03*
X0054000Y0098488D03*
X0052031Y0098488D03*
X0052071Y0109512D03*
X0054039Y0109512D03*
X0056008Y0109512D03*
D13*
X0056953Y0074000D03*
X0051047Y0074000D03*
X0041953Y0074000D03*
X0036047Y0074000D03*
X0026953Y0074000D03*
X0021047Y0074000D03*
X0066047Y0074000D03*
X0071953Y0074000D03*
X0081047Y0074000D03*
X0086953Y0074000D03*
M02*
