G75*
%MOIN*%
%OFA0B0*%
%FSLAX25Y25*%
%IPPOS*%
%LPD*%
%AMOC8*
5,1,8,0,0,1.08239X$1,22.5*
%
%ADD10C,0.00500*%
%ADD11C,0.05543*%
%ADD12C,0.15811*%
%ADD13C,0.01000*%
%ADD14C,0.04000*%
%ADD15C,0.01600*%
D10*
X0001800Y0011800D02*
X0001800Y0111800D01*
X0001815Y0113018D01*
X0001859Y0114234D01*
X0001933Y0115450D01*
X0002037Y0116663D01*
X0002170Y0117873D01*
X0002333Y0119080D01*
X0002525Y0120282D01*
X0002746Y0121480D01*
X0002996Y0122672D01*
X0003275Y0123857D01*
X0003583Y0125035D01*
X0003920Y0126205D01*
X0004285Y0127367D01*
X0004678Y0128519D01*
X0005099Y0129662D01*
X0005548Y0130793D01*
X0006024Y0131914D01*
X0006528Y0133023D01*
X0007058Y0134119D01*
X0007615Y0135202D01*
X0008198Y0136271D01*
X0008806Y0137325D01*
X0009441Y0138365D01*
X0010100Y0139388D01*
X0010784Y0140396D01*
X0011493Y0141386D01*
X0012225Y0142359D01*
X0012981Y0143313D01*
X0013760Y0144249D01*
X0014561Y0145166D01*
X0015385Y0146063D01*
X0016230Y0146939D01*
X0017096Y0147795D01*
X0017983Y0148630D01*
X0018890Y0149442D01*
X0019816Y0150232D01*
X0020762Y0151000D01*
X0021725Y0151744D01*
X0022707Y0152464D01*
X0023706Y0153161D01*
X0024721Y0153833D01*
X0025753Y0154480D01*
X0026800Y0155101D01*
X0027862Y0155697D01*
X0028938Y0156267D01*
X0030027Y0156811D01*
X0031130Y0157327D01*
X0032245Y0157817D01*
X0033371Y0158280D01*
X0034508Y0158715D01*
X0035656Y0159122D01*
X0036813Y0159501D01*
X0037979Y0159852D01*
X0039153Y0160174D01*
X0040335Y0160468D01*
X0041524Y0160733D01*
X0042718Y0160968D01*
X0043918Y0161175D01*
X0045123Y0161352D01*
X0046331Y0161500D01*
X0047543Y0161618D01*
X0048758Y0161707D01*
X0049974Y0161767D01*
X0051191Y0161796D01*
X0052409Y0161796D01*
X0053626Y0161767D01*
X0054842Y0161707D01*
X0056057Y0161618D01*
X0057269Y0161500D01*
X0058477Y0161352D01*
X0059682Y0161175D01*
X0060882Y0160968D01*
X0062076Y0160733D01*
X0063265Y0160468D01*
X0064447Y0160174D01*
X0065621Y0159852D01*
X0066787Y0159501D01*
X0067944Y0159122D01*
X0069092Y0158715D01*
X0070229Y0158280D01*
X0071355Y0157817D01*
X0072470Y0157327D01*
X0073573Y0156811D01*
X0074662Y0156267D01*
X0075738Y0155697D01*
X0076800Y0155101D01*
X0077847Y0154480D01*
X0078879Y0153833D01*
X0079894Y0153161D01*
X0080893Y0152464D01*
X0081875Y0151744D01*
X0082838Y0151000D01*
X0083784Y0150232D01*
X0084710Y0149442D01*
X0085617Y0148630D01*
X0086504Y0147795D01*
X0087370Y0146939D01*
X0088215Y0146063D01*
X0089039Y0145166D01*
X0089840Y0144249D01*
X0090619Y0143313D01*
X0091375Y0142359D01*
X0092107Y0141386D01*
X0092816Y0140396D01*
X0093500Y0139388D01*
X0094159Y0138365D01*
X0094794Y0137325D01*
X0095402Y0136271D01*
X0095985Y0135202D01*
X0096542Y0134119D01*
X0097072Y0133023D01*
X0097576Y0131914D01*
X0098052Y0130793D01*
X0098501Y0129662D01*
X0098922Y0128519D01*
X0099315Y0127367D01*
X0099680Y0126205D01*
X0100017Y0125035D01*
X0100325Y0123857D01*
X0100604Y0122672D01*
X0100854Y0121480D01*
X0101075Y0120282D01*
X0101267Y0119080D01*
X0101430Y0117873D01*
X0101563Y0116663D01*
X0101667Y0115450D01*
X0101741Y0114234D01*
X0101785Y0113018D01*
X0101800Y0111800D01*
X0101800Y0011800D01*
X0101797Y0011558D01*
X0101788Y0011317D01*
X0101774Y0011076D01*
X0101753Y0010835D01*
X0101727Y0010595D01*
X0101695Y0010355D01*
X0101657Y0010116D01*
X0101614Y0009879D01*
X0101564Y0009642D01*
X0101509Y0009407D01*
X0101449Y0009173D01*
X0101382Y0008941D01*
X0101311Y0008710D01*
X0101233Y0008481D01*
X0101150Y0008254D01*
X0101062Y0008029D01*
X0100968Y0007806D01*
X0100869Y0007586D01*
X0100764Y0007368D01*
X0100655Y0007153D01*
X0100540Y0006940D01*
X0100420Y0006730D01*
X0100295Y0006524D01*
X0100165Y0006320D01*
X0100030Y0006119D01*
X0099890Y0005922D01*
X0099746Y0005728D01*
X0099597Y0005538D01*
X0099443Y0005352D01*
X0099285Y0005169D01*
X0099123Y0004990D01*
X0098956Y0004815D01*
X0098785Y0004644D01*
X0098610Y0004477D01*
X0098431Y0004315D01*
X0098248Y0004157D01*
X0098062Y0004003D01*
X0097872Y0003854D01*
X0097678Y0003710D01*
X0097481Y0003570D01*
X0097280Y0003435D01*
X0097076Y0003305D01*
X0096870Y0003180D01*
X0096660Y0003060D01*
X0096447Y0002945D01*
X0096232Y0002836D01*
X0096014Y0002731D01*
X0095794Y0002632D01*
X0095571Y0002538D01*
X0095346Y0002450D01*
X0095119Y0002367D01*
X0094890Y0002289D01*
X0094659Y0002218D01*
X0094427Y0002151D01*
X0094193Y0002091D01*
X0093958Y0002036D01*
X0093721Y0001986D01*
X0093484Y0001943D01*
X0093245Y0001905D01*
X0093005Y0001873D01*
X0092765Y0001847D01*
X0092524Y0001826D01*
X0092283Y0001812D01*
X0092042Y0001803D01*
X0091800Y0001800D01*
X0011800Y0001800D01*
X0011558Y0001803D01*
X0011317Y0001812D01*
X0011076Y0001826D01*
X0010835Y0001847D01*
X0010595Y0001873D01*
X0010355Y0001905D01*
X0010116Y0001943D01*
X0009879Y0001986D01*
X0009642Y0002036D01*
X0009407Y0002091D01*
X0009173Y0002151D01*
X0008941Y0002218D01*
X0008710Y0002289D01*
X0008481Y0002367D01*
X0008254Y0002450D01*
X0008029Y0002538D01*
X0007806Y0002632D01*
X0007586Y0002731D01*
X0007368Y0002836D01*
X0007153Y0002945D01*
X0006940Y0003060D01*
X0006730Y0003180D01*
X0006524Y0003305D01*
X0006320Y0003435D01*
X0006119Y0003570D01*
X0005922Y0003710D01*
X0005728Y0003854D01*
X0005538Y0004003D01*
X0005352Y0004157D01*
X0005169Y0004315D01*
X0004990Y0004477D01*
X0004815Y0004644D01*
X0004644Y0004815D01*
X0004477Y0004990D01*
X0004315Y0005169D01*
X0004157Y0005352D01*
X0004003Y0005538D01*
X0003854Y0005728D01*
X0003710Y0005922D01*
X0003570Y0006119D01*
X0003435Y0006320D01*
X0003305Y0006524D01*
X0003180Y0006730D01*
X0003060Y0006940D01*
X0002945Y0007153D01*
X0002836Y0007368D01*
X0002731Y0007586D01*
X0002632Y0007806D01*
X0002538Y0008029D01*
X0002450Y0008254D01*
X0002367Y0008481D01*
X0002289Y0008710D01*
X0002218Y0008941D01*
X0002151Y0009173D01*
X0002091Y0009407D01*
X0002036Y0009642D01*
X0001986Y0009879D01*
X0001943Y0010116D01*
X0001905Y0010355D01*
X0001873Y0010595D01*
X0001847Y0010835D01*
X0001826Y0011076D01*
X0001812Y0011317D01*
X0001803Y0011558D01*
X0001800Y0011800D01*
D11*
X0036800Y0029028D02*
X0036800Y0034572D01*
X0046800Y0034572D02*
X0046800Y0029028D01*
X0056800Y0029028D02*
X0056800Y0034572D01*
X0066800Y0034572D02*
X0066800Y0029028D01*
D12*
X0089300Y0014300D03*
X0089300Y0111800D03*
X0014300Y0111800D03*
X0014300Y0014300D03*
D13*
X0042300Y0083700D02*
X0042300Y0090900D01*
D14*
X0042300Y0090900D03*
X0042300Y0083700D03*
D15*
X0040030Y0086521D02*
X0006850Y0086521D01*
X0006850Y0084923D02*
X0038910Y0084923D01*
X0038700Y0084416D02*
X0038700Y0082984D01*
X0039248Y0081661D01*
X0040261Y0080648D01*
X0041584Y0080100D01*
X0043016Y0080100D01*
X0044339Y0080648D01*
X0045352Y0081661D01*
X0045900Y0082984D01*
X0045900Y0084416D01*
X0045352Y0085739D01*
X0044400Y0086691D01*
X0044400Y0087909D01*
X0045352Y0088861D01*
X0045900Y0090184D01*
X0045900Y0091616D01*
X0045352Y0092939D01*
X0044339Y0093952D01*
X0043016Y0094500D01*
X0041584Y0094500D01*
X0040261Y0093952D01*
X0039248Y0092939D01*
X0038700Y0091616D01*
X0038700Y0090184D01*
X0039248Y0088861D01*
X0040200Y0087909D01*
X0040200Y0086691D01*
X0039248Y0085739D01*
X0038700Y0084416D01*
X0038700Y0083324D02*
X0006850Y0083324D01*
X0006850Y0081726D02*
X0039221Y0081726D01*
X0041519Y0080127D02*
X0006850Y0080127D01*
X0006850Y0078529D02*
X0096750Y0078529D01*
X0096750Y0080127D02*
X0043081Y0080127D01*
X0045379Y0081726D02*
X0096750Y0081726D01*
X0096750Y0083324D02*
X0045900Y0083324D01*
X0045690Y0084923D02*
X0096750Y0084923D01*
X0096750Y0086521D02*
X0044570Y0086521D01*
X0044611Y0088120D02*
X0096750Y0088120D01*
X0096750Y0089718D02*
X0045707Y0089718D01*
X0045900Y0091317D02*
X0096750Y0091317D01*
X0096750Y0092915D02*
X0045362Y0092915D01*
X0039989Y0088120D02*
X0006850Y0088120D01*
X0006850Y0089718D02*
X0038893Y0089718D01*
X0038700Y0091317D02*
X0006850Y0091317D01*
X0006850Y0092915D02*
X0039238Y0092915D01*
X0022358Y0106416D02*
X0023805Y0109909D01*
X0023805Y0113691D01*
X0022358Y0117184D01*
X0019684Y0119858D01*
X0016191Y0121305D01*
X0012409Y0121305D01*
X0008916Y0119858D01*
X0007479Y0118422D01*
X0008092Y0122293D01*
X0010272Y0129002D01*
X0013474Y0135286D01*
X0017620Y0140993D01*
X0022607Y0145980D01*
X0028314Y0150126D01*
X0034598Y0153328D01*
X0041307Y0155508D01*
X0048273Y0156611D01*
X0055327Y0156611D01*
X0062293Y0155508D01*
X0069002Y0153328D01*
X0075286Y0150126D01*
X0080993Y0145980D01*
X0085980Y0140993D01*
X0085980Y0140993D01*
X0090126Y0135286D01*
X0090126Y0135286D01*
X0093328Y0129002D01*
X0095508Y0122293D01*
X0096121Y0118422D01*
X0094684Y0119858D01*
X0091191Y0121305D01*
X0087409Y0121305D01*
X0083916Y0119858D01*
X0081242Y0117184D01*
X0079794Y0113691D01*
X0079794Y0109909D01*
X0081242Y0106416D01*
X0083916Y0103742D01*
X0087409Y0102294D01*
X0091191Y0102294D01*
X0094684Y0103742D01*
X0096750Y0105807D01*
X0096750Y0020293D01*
X0094684Y0022358D01*
X0091191Y0023805D01*
X0087409Y0023805D01*
X0083916Y0022358D01*
X0081242Y0019684D01*
X0079794Y0016191D01*
X0079794Y0012409D01*
X0081242Y0008916D01*
X0083307Y0006850D01*
X0020293Y0006850D01*
X0022358Y0008916D01*
X0023805Y0012409D01*
X0023805Y0016191D01*
X0022358Y0019684D01*
X0019684Y0022358D01*
X0016191Y0023805D01*
X0012409Y0023805D01*
X0008916Y0022358D01*
X0006850Y0020293D01*
X0006850Y0105807D01*
X0008916Y0103742D01*
X0012409Y0102294D01*
X0016191Y0102294D01*
X0019684Y0103742D01*
X0022358Y0106416D01*
X0022725Y0107302D02*
X0080875Y0107302D01*
X0080212Y0108900D02*
X0023388Y0108900D01*
X0023805Y0110499D02*
X0079794Y0110499D01*
X0079794Y0112097D02*
X0023805Y0112097D01*
X0023803Y0113696D02*
X0079797Y0113696D01*
X0080459Y0115294D02*
X0023141Y0115294D01*
X0022479Y0116893D02*
X0081121Y0116893D01*
X0082548Y0118491D02*
X0021051Y0118491D01*
X0019126Y0120090D02*
X0084474Y0120090D01*
X0092168Y0131279D02*
X0011432Y0131279D01*
X0010618Y0129681D02*
X0092982Y0129681D01*
X0093627Y0128082D02*
X0009973Y0128082D01*
X0009454Y0126484D02*
X0094146Y0126484D01*
X0094666Y0124885D02*
X0008934Y0124885D01*
X0008415Y0123287D02*
X0095185Y0123287D01*
X0095604Y0121688D02*
X0007996Y0121688D01*
X0007743Y0120090D02*
X0009474Y0120090D01*
X0007549Y0118491D02*
X0007490Y0118491D01*
X0006954Y0105703D02*
X0006850Y0105703D01*
X0006850Y0104105D02*
X0008552Y0104105D01*
X0006850Y0102506D02*
X0011898Y0102506D01*
X0016702Y0102506D02*
X0086898Y0102506D01*
X0083552Y0104105D02*
X0020048Y0104105D01*
X0021646Y0105703D02*
X0081954Y0105703D01*
X0091702Y0102506D02*
X0096750Y0102506D01*
X0096750Y0100908D02*
X0006850Y0100908D01*
X0006850Y0099309D02*
X0096750Y0099309D01*
X0096750Y0097711D02*
X0006850Y0097711D01*
X0006850Y0096112D02*
X0096750Y0096112D01*
X0096750Y0094514D02*
X0006850Y0094514D01*
X0006850Y0076930D02*
X0096750Y0076930D01*
X0096750Y0075332D02*
X0006850Y0075332D01*
X0006850Y0073733D02*
X0096750Y0073733D01*
X0096750Y0072134D02*
X0006850Y0072134D01*
X0006850Y0070536D02*
X0096750Y0070536D01*
X0096750Y0068937D02*
X0006850Y0068937D01*
X0006850Y0067339D02*
X0096750Y0067339D01*
X0096750Y0065740D02*
X0006850Y0065740D01*
X0006850Y0064142D02*
X0096750Y0064142D01*
X0096750Y0062543D02*
X0006850Y0062543D01*
X0006850Y0060945D02*
X0096750Y0060945D01*
X0096750Y0059346D02*
X0006850Y0059346D01*
X0006850Y0057748D02*
X0096750Y0057748D01*
X0096750Y0056149D02*
X0006850Y0056149D01*
X0006850Y0054551D02*
X0096750Y0054551D01*
X0096750Y0052952D02*
X0006850Y0052952D01*
X0006850Y0051354D02*
X0096750Y0051354D01*
X0096750Y0049755D02*
X0006850Y0049755D01*
X0006850Y0048157D02*
X0096750Y0048157D01*
X0096750Y0046558D02*
X0006850Y0046558D01*
X0006850Y0044960D02*
X0096750Y0044960D01*
X0096750Y0043361D02*
X0006850Y0043361D01*
X0006850Y0041763D02*
X0096750Y0041763D01*
X0096750Y0040164D02*
X0006850Y0040164D01*
X0006850Y0038566D02*
X0035019Y0038566D01*
X0034324Y0038278D02*
X0033094Y0037048D01*
X0032428Y0035441D01*
X0032428Y0028159D01*
X0033094Y0026552D01*
X0034324Y0025322D01*
X0035930Y0024657D01*
X0037670Y0024657D01*
X0039276Y0025322D01*
X0040506Y0026552D01*
X0041172Y0028159D01*
X0041172Y0035441D01*
X0040506Y0037048D01*
X0039276Y0038278D01*
X0037670Y0038943D01*
X0035930Y0038943D01*
X0034324Y0038278D01*
X0033060Y0036967D02*
X0006850Y0036967D01*
X0006850Y0035369D02*
X0032428Y0035369D01*
X0032428Y0033770D02*
X0006850Y0033770D01*
X0006850Y0032172D02*
X0032428Y0032172D01*
X0032428Y0030573D02*
X0006850Y0030573D01*
X0006850Y0028975D02*
X0032428Y0028975D01*
X0032752Y0027376D02*
X0006850Y0027376D01*
X0006850Y0025778D02*
X0033868Y0025778D01*
X0039732Y0025778D02*
X0043868Y0025778D01*
X0044324Y0025322D02*
X0045930Y0024657D01*
X0047670Y0024657D01*
X0049276Y0025322D01*
X0050506Y0026552D01*
X0051172Y0028159D01*
X0051172Y0035441D01*
X0050506Y0037048D01*
X0049276Y0038278D01*
X0047670Y0038943D01*
X0045930Y0038943D01*
X0044324Y0038278D01*
X0043094Y0037048D01*
X0042428Y0035441D01*
X0042428Y0028159D01*
X0043094Y0026552D01*
X0044324Y0025322D01*
X0042752Y0027376D02*
X0040847Y0027376D01*
X0041172Y0028975D02*
X0042428Y0028975D01*
X0042428Y0030573D02*
X0041172Y0030573D01*
X0041172Y0032172D02*
X0042428Y0032172D01*
X0042428Y0033770D02*
X0041172Y0033770D01*
X0041172Y0035369D02*
X0042428Y0035369D01*
X0043060Y0036967D02*
X0040540Y0036967D01*
X0038581Y0038566D02*
X0045019Y0038566D01*
X0048581Y0038566D02*
X0055019Y0038566D01*
X0054324Y0038278D02*
X0055930Y0038943D01*
X0057670Y0038943D01*
X0059276Y0038278D01*
X0060506Y0037048D01*
X0061172Y0035441D01*
X0061172Y0028159D01*
X0060506Y0026552D01*
X0059276Y0025322D01*
X0057670Y0024657D01*
X0055930Y0024657D01*
X0054324Y0025322D01*
X0053094Y0026552D01*
X0052428Y0028159D01*
X0052428Y0035441D01*
X0053094Y0037048D01*
X0054324Y0038278D01*
X0053060Y0036967D02*
X0050540Y0036967D01*
X0051172Y0035369D02*
X0052428Y0035369D01*
X0052428Y0033770D02*
X0051172Y0033770D01*
X0051172Y0032172D02*
X0052428Y0032172D01*
X0052428Y0030573D02*
X0051172Y0030573D01*
X0051172Y0028975D02*
X0052428Y0028975D01*
X0052752Y0027376D02*
X0050847Y0027376D01*
X0049732Y0025778D02*
X0053868Y0025778D01*
X0059732Y0025778D02*
X0063585Y0025778D01*
X0063822Y0025541D02*
X0064404Y0025118D01*
X0065045Y0024792D01*
X0065729Y0024569D01*
X0066440Y0024457D01*
X0066714Y0024457D01*
X0066714Y0031714D01*
X0066886Y0031714D01*
X0066886Y0031886D01*
X0071372Y0031886D01*
X0071372Y0034931D01*
X0071259Y0035642D01*
X0071037Y0036327D01*
X0070710Y0036968D01*
X0070287Y0037550D01*
X0069778Y0038059D01*
X0069196Y0038482D01*
X0068555Y0038808D01*
X0067871Y0039031D01*
X0067160Y0039143D01*
X0066886Y0039143D01*
X0066886Y0031886D01*
X0066714Y0031886D01*
X0066714Y0039143D01*
X0066440Y0039143D01*
X0065729Y0039031D01*
X0065045Y0038808D01*
X0064404Y0038482D01*
X0063822Y0038059D01*
X0063313Y0037550D01*
X0062890Y0036968D01*
X0062563Y0036327D01*
X0062341Y0035642D01*
X0062228Y0034931D01*
X0062228Y0031886D01*
X0066714Y0031886D01*
X0066714Y0031714D01*
X0062228Y0031714D01*
X0062228Y0028669D01*
X0062341Y0027958D01*
X0062563Y0027273D01*
X0062890Y0026632D01*
X0063313Y0026050D01*
X0063822Y0025541D01*
X0062530Y0027376D02*
X0060847Y0027376D01*
X0061172Y0028975D02*
X0062228Y0028975D01*
X0062228Y0030573D02*
X0061172Y0030573D01*
X0061172Y0032172D02*
X0062228Y0032172D01*
X0062228Y0033770D02*
X0061172Y0033770D01*
X0061172Y0035369D02*
X0062298Y0035369D01*
X0062890Y0036967D02*
X0060540Y0036967D01*
X0058581Y0038566D02*
X0064569Y0038566D01*
X0066714Y0038566D02*
X0066886Y0038566D01*
X0066886Y0036967D02*
X0066714Y0036967D01*
X0066714Y0035369D02*
X0066886Y0035369D01*
X0066886Y0033770D02*
X0066714Y0033770D01*
X0066714Y0032172D02*
X0066886Y0032172D01*
X0066886Y0031714D02*
X0071372Y0031714D01*
X0071372Y0028669D01*
X0071259Y0027958D01*
X0071037Y0027273D01*
X0070710Y0026632D01*
X0070287Y0026050D01*
X0069778Y0025541D01*
X0069196Y0025118D01*
X0068555Y0024792D01*
X0067871Y0024569D01*
X0067160Y0024457D01*
X0066886Y0024457D01*
X0066886Y0031714D01*
X0066886Y0030573D02*
X0066714Y0030573D01*
X0066714Y0028975D02*
X0066886Y0028975D01*
X0066886Y0027376D02*
X0066714Y0027376D01*
X0066714Y0025778D02*
X0066886Y0025778D01*
X0070015Y0025778D02*
X0096750Y0025778D01*
X0096750Y0027376D02*
X0071070Y0027376D01*
X0071372Y0028975D02*
X0096750Y0028975D01*
X0096750Y0030573D02*
X0071372Y0030573D01*
X0071372Y0032172D02*
X0096750Y0032172D01*
X0096750Y0033770D02*
X0071372Y0033770D01*
X0071302Y0035369D02*
X0096750Y0035369D01*
X0096750Y0036967D02*
X0070710Y0036967D01*
X0069031Y0038566D02*
X0096750Y0038566D01*
X0096750Y0024179D02*
X0006850Y0024179D01*
X0006850Y0022581D02*
X0009452Y0022581D01*
X0007539Y0020982D02*
X0006850Y0020982D01*
X0019148Y0022581D02*
X0084452Y0022581D01*
X0082539Y0020982D02*
X0021061Y0020982D01*
X0022483Y0019384D02*
X0081117Y0019384D01*
X0080455Y0017785D02*
X0023145Y0017785D01*
X0023805Y0016187D02*
X0079794Y0016187D01*
X0079794Y0014588D02*
X0023805Y0014588D01*
X0023805Y0012990D02*
X0079794Y0012990D01*
X0080216Y0011391D02*
X0023384Y0011391D01*
X0022722Y0009793D02*
X0080878Y0009793D01*
X0081963Y0008194D02*
X0021637Y0008194D01*
X0094148Y0022581D02*
X0096750Y0022581D01*
X0096750Y0020982D02*
X0096061Y0020982D01*
X0096750Y0104105D02*
X0095048Y0104105D01*
X0096646Y0105703D02*
X0096750Y0105703D01*
X0096110Y0118491D02*
X0096051Y0118491D01*
X0095857Y0120090D02*
X0094126Y0120090D01*
X0091353Y0132878D02*
X0012247Y0132878D01*
X0013061Y0134476D02*
X0090539Y0134476D01*
X0089553Y0136075D02*
X0014047Y0136075D01*
X0015208Y0137673D02*
X0088392Y0137673D01*
X0087230Y0139272D02*
X0016370Y0139272D01*
X0017531Y0140870D02*
X0086069Y0140870D01*
X0084504Y0142469D02*
X0019096Y0142469D01*
X0020695Y0144068D02*
X0082905Y0144068D01*
X0081307Y0145666D02*
X0022293Y0145666D01*
X0024375Y0147265D02*
X0079225Y0147265D01*
X0077025Y0148863D02*
X0026575Y0148863D01*
X0028972Y0150462D02*
X0074628Y0150462D01*
X0071491Y0152060D02*
X0032109Y0152060D01*
X0035615Y0153659D02*
X0067985Y0153659D01*
X0063066Y0155257D02*
X0040534Y0155257D01*
M02*
