G75*
%MOIN*%
%OFA0B0*%
%FSLAX25Y25*%
%IPPOS*%
%LPD*%
%AMOC8*
5,1,8,0,0,1.08239X$1,22.5*
%
%ADD10C,0.00400*%
%ADD11C,0.00300*%
%ADD12C,0.00000*%
%ADD13C,0.00500*%
%ADD14C,0.00200*%
%ADD15R,0.01012X0.00046*%
%ADD16R,0.01840X0.00046*%
%ADD17R,0.02438X0.00046*%
%ADD18R,0.02852X0.00046*%
%ADD19R,0.03266X0.00046*%
%ADD20R,0.03634X0.00046*%
%ADD21R,0.03910X0.00046*%
%ADD22R,0.04232X0.00046*%
%ADD23R,0.04462X0.00046*%
%ADD24R,0.04738X0.00046*%
%ADD25R,0.04968X0.00046*%
%ADD26R,0.05198X0.00046*%
%ADD27R,0.05428X0.00046*%
%ADD28R,0.05612X0.00046*%
%ADD29R,0.05750X0.00046*%
%ADD30R,0.05980X0.00046*%
%ADD31R,0.06164X0.00046*%
%ADD32R,0.06394X0.00046*%
%ADD33R,0.06532X0.00046*%
%ADD34R,0.06716X0.00046*%
%ADD35R,0.06854X0.00046*%
%ADD36R,0.07038X0.00046*%
%ADD37R,0.07176X0.00046*%
%ADD38R,0.07360X0.00046*%
%ADD39R,0.07498X0.00046*%
%ADD40R,0.07636X0.00046*%
%ADD41R,0.07774X0.00046*%
%ADD42R,0.07958X0.00046*%
%ADD43R,0.08096X0.00046*%
%ADD44R,0.08234X0.00046*%
%ADD45R,0.08326X0.00046*%
%ADD46R,0.08464X0.00046*%
%ADD47R,0.08602X0.00046*%
%ADD48R,0.04048X0.00046*%
%ADD49R,0.03496X0.00046*%
%ADD50R,0.03772X0.00046*%
%ADD51R,0.03174X0.00046*%
%ADD52R,0.03588X0.00046*%
%ADD53R,0.03036X0.00046*%
%ADD54R,0.03542X0.00046*%
%ADD55R,0.03404X0.00046*%
%ADD56R,0.02760X0.00046*%
%ADD57R,0.03312X0.00046*%
%ADD58R,0.02668X0.00046*%
%ADD59R,0.03220X0.00046*%
%ADD60R,0.02576X0.00046*%
%ADD61R,0.03220X0.00046*%
%ADD62R,0.02484X0.00046*%
%ADD63R,0.03128X0.00046*%
%ADD64R,0.02346X0.00046*%
%ADD65R,0.02300X0.00046*%
%ADD66R,0.02254X0.00046*%
%ADD67R,0.02990X0.00046*%
%ADD68R,0.02162X0.00046*%
%ADD69R,0.02944X0.00046*%
%ADD70R,0.02116X0.00046*%
%ADD71R,0.02070X0.00046*%
%ADD72R,0.02024X0.00046*%
%ADD73R,0.02898X0.00046*%
%ADD74R,0.01978X0.00046*%
%ADD75R,0.01932X0.00046*%
%ADD76R,0.02898X0.00046*%
%ADD77R,0.01886X0.00046*%
%ADD78R,0.01840X0.00046*%
%ADD79R,0.01794X0.00046*%
%ADD80R,0.01748X0.00046*%
%ADD81R,0.01702X0.00046*%
%ADD82R,0.01656X0.00046*%
%ADD83R,0.01564X0.00046*%
%ADD84R,0.01610X0.00046*%
%ADD85R,0.02990X0.00046*%
%ADD86R,0.00506X0.00046*%
%ADD87R,0.01288X0.00046*%
%ADD88R,0.01518X0.00046*%
%ADD89R,0.01564X0.00046*%
%ADD90R,0.01334X0.00046*%
%ADD91R,0.01380X0.00046*%
%ADD92R,0.03082X0.00046*%
%ADD93R,0.01426X0.00046*%
%ADD94R,0.03818X0.00046*%
%ADD95R,0.04002X0.00046*%
%ADD96R,0.01472X0.00046*%
%ADD97R,0.04278X0.00046*%
%ADD98R,0.04462X0.00046*%
%ADD99R,0.04600X0.00046*%
%ADD100R,0.04784X0.00046*%
%ADD101R,0.01426X0.00046*%
%ADD102R,0.06440X0.00046*%
%ADD103R,0.06486X0.00046*%
%ADD104R,0.06578X0.00046*%
%ADD105R,0.02208X0.00046*%
%ADD106R,0.02714X0.00046*%
%ADD107R,0.03358X0.00046*%
%ADD108R,0.02070X0.00046*%
%ADD109R,0.03404X0.00046*%
%ADD110R,0.03450X0.00046*%
%ADD111R,0.01978X0.00046*%
%ADD112R,0.03634X0.00046*%
%ADD113R,0.03680X0.00046*%
%ADD114R,0.03726X0.00046*%
%ADD115R,0.03864X0.00046*%
%ADD116R,0.03956X0.00046*%
%ADD117R,0.04094X0.00046*%
%ADD118R,0.04140X0.00046*%
%ADD119R,0.04140X0.00046*%
%ADD120R,0.04186X0.00046*%
%ADD121R,0.01748X0.00046*%
%ADD122R,0.04324X0.00046*%
%ADD123R,0.04370X0.00046*%
%ADD124R,0.04416X0.00046*%
%ADD125R,0.04508X0.00046*%
%ADD126R,0.01656X0.00046*%
%ADD127R,0.04554X0.00046*%
%ADD128R,0.04646X0.00046*%
%ADD129R,0.04692X0.00046*%
%ADD130R,0.04784X0.00046*%
%ADD131R,0.04830X0.00046*%
%ADD132R,0.04876X0.00046*%
%ADD133R,0.04922X0.00046*%
%ADD134R,0.05014X0.00046*%
%ADD135R,0.05060X0.00046*%
%ADD136R,0.05106X0.00046*%
%ADD137R,0.05152X0.00046*%
%ADD138R,0.05244X0.00046*%
%ADD139R,0.05290X0.00046*%
%ADD140R,0.05382X0.00046*%
%ADD141R,0.02162X0.00046*%
%ADD142R,0.05474X0.00046*%
%ADD143R,0.05520X0.00046*%
%ADD144R,0.05566X0.00046*%
%ADD145R,0.05612X0.00046*%
%ADD146R,0.02392X0.00046*%
%ADD147R,0.05658X0.00046*%
%ADD148R,0.05704X0.00046*%
%ADD149R,0.02484X0.00046*%
%ADD150R,0.02530X0.00046*%
%ADD151R,0.05796X0.00046*%
%ADD152R,0.01242X0.00046*%
%ADD153R,0.01150X0.00046*%
%ADD154R,0.01104X0.00046*%
%ADD155R,0.02806X0.00046*%
%ADD156R,0.01058X0.00046*%
%ADD157R,0.01012X0.00046*%
%ADD158R,0.00966X0.00046*%
%ADD159R,0.02622X0.00046*%
%ADD160R,0.02576X0.00046*%
%ADD161R,0.02392X0.00046*%
%ADD162R,0.01334X0.00046*%
%ADD163R,0.00874X0.00046*%
%ADD164R,0.03726X0.00046*%
%ADD165R,0.00552X0.00046*%
%ADD166R,0.01196X0.00046*%
%ADD167R,0.01242X0.00046*%
%ADD168R,0.05336X0.00046*%
%ADD169R,0.02668X0.00046*%
%ADD170R,0.04876X0.00046*%
%ADD171R,0.05290X0.00046*%
%ADD172R,0.05520X0.00046*%
%ADD173R,0.05704X0.00046*%
%ADD174R,0.05888X0.00046*%
%ADD175R,0.05934X0.00046*%
%ADD176R,0.02806X0.00046*%
%ADD177R,0.06026X0.00046*%
%ADD178R,0.06164X0.00046*%
%ADD179R,0.06256X0.00046*%
%ADD180R,0.06348X0.00046*%
%ADD181R,0.03128X0.00046*%
%ADD182R,0.03956X0.00046*%
%ADD183R,0.10258X0.00046*%
%ADD184R,0.10304X0.00046*%
%ADD185R,0.10350X0.00046*%
%ADD186R,0.10396X0.00046*%
%ADD187R,0.10442X0.00046*%
%ADD188R,0.10488X0.00046*%
%ADD189R,0.10534X0.00046*%
%ADD190R,0.10580X0.00046*%
%ADD191R,0.07406X0.00046*%
%ADD192R,0.00736X0.00046*%
%ADD193R,0.03312X0.00046*%
%ADD194R,0.00920X0.00046*%
%ADD195R,0.00828X0.00046*%
%ADD196R,0.00690X0.00046*%
%ADD197R,0.00230X0.00046*%
%ADD198R,0.00782X0.00046*%
%ADD199R,0.00644X0.00046*%
%ADD200R,0.00276X0.00046*%
%ADD201R,0.00414X0.00046*%
%ADD202R,0.00650X0.00050*%
%ADD203R,0.00950X0.00050*%
%ADD204R,0.00800X0.00050*%
%ADD205R,0.00550X0.00050*%
%ADD206R,0.00600X0.00050*%
%ADD207R,0.01750X0.00050*%
%ADD208R,0.01000X0.00050*%
%ADD209R,0.01200X0.00050*%
%ADD210R,0.01800X0.00050*%
%ADD211R,0.01350X0.00050*%
%ADD212R,0.01900X0.00050*%
%ADD213R,0.00700X0.00050*%
%ADD214R,0.01850X0.00050*%
%ADD215R,0.01500X0.00050*%
%ADD216R,0.01950X0.00050*%
%ADD217R,0.01650X0.00050*%
%ADD218R,0.00750X0.00050*%
%ADD219R,0.02000X0.00050*%
%ADD220R,0.02050X0.00050*%
%ADD221R,0.00850X0.00050*%
%ADD222R,0.02100X0.00050*%
%ADD223R,0.00900X0.00050*%
%ADD224R,0.00450X0.00050*%
%ADD225R,0.00300X0.00050*%
%ADD226R,0.00200X0.00050*%
%ADD227R,0.01050X0.00050*%
%ADD228R,0.00100X0.00050*%
%ADD229R,0.01100X0.00050*%
%ADD230R,0.01150X0.00050*%
%ADD231R,0.02200X0.00050*%
%ADD232R,0.01250X0.00050*%
%ADD233R,0.00150X0.00050*%
%ADD234R,0.00250X0.00050*%
%ADD235R,0.00500X0.00050*%
%ADD236R,0.01550X0.00050*%
%ADD237R,0.01600X0.00050*%
%ADD238R,0.01700X0.00050*%
%ADD239R,0.01400X0.00050*%
%ADD240R,0.01300X0.00050*%
%ADD241R,0.00400X0.00050*%
%ADD242R,0.01450X0.00050*%
%ADD243R,0.02150X0.00050*%
%ADD244R,0.00350X0.00050*%
%ADD245R,0.00050X0.00050*%
%ADD246R,0.02250X0.00050*%
%ADD247R,0.02400X0.00050*%
%ADD248R,0.02500X0.00050*%
%ADD249R,0.02650X0.00050*%
%ADD250R,0.02750X0.00050*%
%ADD251R,0.02900X0.00050*%
%ADD252R,0.03000X0.00050*%
%ADD253R,0.03150X0.00050*%
%ADD254R,0.03250X0.00050*%
%ADD255R,0.04600X0.00050*%
%ADD256R,0.04650X0.00050*%
%ADD257R,0.04750X0.00050*%
%ADD258R,0.04800X0.00050*%
%ADD259R,0.04900X0.00050*%
%ADD260R,0.04950X0.00050*%
%ADD261R,0.05000X0.00050*%
%ADD262R,0.05100X0.00050*%
%ADD263R,0.05150X0.00050*%
%ADD264R,0.05200X0.00050*%
%ADD265R,0.05250X0.00050*%
%ADD266R,0.05050X0.00050*%
%ADD267R,0.04850X0.00050*%
%ADD268R,0.05300X0.00050*%
%ADD269R,0.05350X0.00050*%
%ADD270R,0.05450X0.00050*%
%ADD271R,0.05500X0.00050*%
%ADD272R,0.05550X0.00050*%
%ADD273R,0.05650X0.00050*%
%ADD274R,0.05600X0.00050*%
%ADD275R,0.05400X0.00050*%
%ADD276R,0.05700X0.00050*%
%ADD277R,0.05900X0.00050*%
%ADD278R,0.06150X0.00050*%
%ADD279R,0.06350X0.00050*%
%ADD280R,0.06550X0.00050*%
%ADD281R,0.06850X0.00050*%
%ADD282R,0.07050X0.00050*%
%ADD283R,0.07100X0.00050*%
%ADD284R,0.07000X0.00050*%
%ADD285R,0.06950X0.00050*%
%ADD286R,0.06900X0.00050*%
%ADD287R,0.06800X0.00050*%
%ADD288R,0.06600X0.00050*%
%ADD289R,0.05750X0.00050*%
%ADD290R,0.06050X0.00050*%
%ADD291R,0.13050X0.00050*%
%ADD292R,0.12950X0.00050*%
%ADD293R,0.12850X0.00050*%
%ADD294R,0.12750X0.00050*%
%ADD295R,0.12650X0.00050*%
%ADD296R,0.12550X0.00050*%
%ADD297R,0.12450X0.00050*%
%ADD298R,0.12350X0.00050*%
%ADD299R,0.12250X0.00050*%
%ADD300R,0.12150X0.00050*%
%ADD301R,0.13150X0.00050*%
%ADD302R,0.13250X0.00050*%
%ADD303R,0.13350X0.00050*%
%ADD304R,0.13450X0.00050*%
%ADD305R,0.13550X0.00050*%
%ADD306R,0.13650X0.00050*%
%ADD307R,0.13750X0.00050*%
%ADD308R,0.13850X0.00050*%
%ADD309R,0.13950X0.00050*%
%ADD310R,0.14050X0.00050*%
%ADD311R,0.14150X0.00050*%
%ADD312R,0.14250X0.00050*%
%ADD313R,0.14350X0.00050*%
%ADD314R,0.14450X0.00050*%
%ADD315R,0.14550X0.00050*%
%ADD316R,0.14650X0.00050*%
%ADD317R,0.14750X0.00050*%
%ADD318R,0.14850X0.00050*%
%ADD319R,0.14950X0.00050*%
%ADD320R,0.03450X0.00050*%
%ADD321R,0.06750X0.00050*%
%ADD322R,0.03300X0.00050*%
%ADD323R,0.06450X0.00050*%
%ADD324R,0.03200X0.00050*%
%ADD325R,0.06250X0.00050*%
%ADD326R,0.03050X0.00050*%
%ADD327R,0.05950X0.00050*%
%ADD328R,0.02950X0.00050*%
%ADD329R,0.02850X0.00050*%
%ADD330R,0.02800X0.00050*%
%ADD331R,0.02700X0.00050*%
%ADD332R,0.02600X0.00050*%
%ADD333R,0.02450X0.00050*%
%ADD334R,0.02350X0.00050*%
%ADD335R,0.04550X0.00050*%
%ADD336R,0.04250X0.00050*%
%ADD337R,0.04050X0.00050*%
%ADD338R,0.03750X0.00050*%
%ADD339R,0.03650X0.00050*%
%ADD340R,0.03550X0.00050*%
%ADD341R,0.03350X0.00050*%
D10*
X0012000Y0074206D02*
X0012000Y0077275D01*
X0013535Y0078810D01*
X0015069Y0077275D01*
X0015069Y0074206D01*
X0016604Y0074206D02*
X0018906Y0074206D01*
X0019673Y0074973D01*
X0019673Y0078043D01*
X0018906Y0078810D01*
X0016604Y0078810D01*
X0016604Y0074206D01*
X0015069Y0076508D02*
X0012000Y0076508D01*
X0012767Y0081706D02*
X0012000Y0082473D01*
X0012767Y0081706D02*
X0014302Y0081706D01*
X0015069Y0082473D01*
X0015069Y0083241D01*
X0014302Y0084008D01*
X0013535Y0084008D01*
X0014302Y0084008D02*
X0015069Y0084775D01*
X0015069Y0085543D01*
X0014302Y0086310D01*
X0012767Y0086310D01*
X0012000Y0085543D01*
X0016604Y0084775D02*
X0016604Y0081706D01*
X0016604Y0084008D02*
X0019673Y0084008D01*
X0019673Y0084775D02*
X0019673Y0081706D01*
X0019673Y0084775D02*
X0018139Y0086310D01*
X0016604Y0084775D01*
X0021208Y0086310D02*
X0024277Y0081706D01*
X0025812Y0081706D02*
X0027346Y0081706D01*
X0026579Y0081706D02*
X0026579Y0086310D01*
X0025812Y0086310D02*
X0027346Y0086310D01*
X0028881Y0085543D02*
X0028881Y0084775D01*
X0029648Y0084008D01*
X0031183Y0084008D01*
X0031950Y0083241D01*
X0031950Y0082473D01*
X0031183Y0081706D01*
X0029648Y0081706D01*
X0028881Y0082473D01*
X0028881Y0085543D02*
X0029648Y0086310D01*
X0031183Y0086310D01*
X0031950Y0085543D01*
X0031183Y0078810D02*
X0030416Y0078043D01*
X0031183Y0078810D02*
X0032718Y0078810D01*
X0033485Y0078043D01*
X0033485Y0077275D01*
X0032718Y0076508D01*
X0033485Y0075741D01*
X0033485Y0074973D01*
X0032718Y0074206D01*
X0031183Y0074206D01*
X0030416Y0074973D01*
X0028881Y0074206D02*
X0025812Y0074206D01*
X0025812Y0078810D01*
X0024277Y0078810D02*
X0021208Y0074206D01*
X0024277Y0074206D02*
X0021208Y0078810D01*
X0021208Y0081706D02*
X0024277Y0086310D01*
X0031950Y0076508D02*
X0032718Y0076508D01*
X0035020Y0076508D02*
X0038089Y0076508D01*
X0037322Y0074206D02*
X0037322Y0078810D01*
X0035020Y0076508D01*
X0039624Y0076508D02*
X0041158Y0077275D01*
X0041926Y0077275D01*
X0042693Y0076508D01*
X0042693Y0074973D01*
X0041926Y0074206D01*
X0040391Y0074206D01*
X0039624Y0074973D01*
X0039624Y0076508D02*
X0039624Y0078810D01*
X0042693Y0078810D01*
D11*
X0040197Y0072859D02*
X0038963Y0072859D01*
X0038346Y0072242D01*
X0037131Y0071007D02*
X0037131Y0069156D01*
X0035280Y0069156D01*
X0034663Y0069773D01*
X0035280Y0070390D01*
X0037131Y0070390D01*
X0037131Y0071007D02*
X0036514Y0071625D01*
X0035280Y0071625D01*
X0033442Y0071625D02*
X0032207Y0071625D01*
X0032824Y0072242D02*
X0032824Y0069773D01*
X0033442Y0069156D01*
X0030993Y0070390D02*
X0028524Y0070390D01*
X0028524Y0069773D02*
X0028524Y0071007D01*
X0029141Y0071625D01*
X0030376Y0071625D01*
X0030993Y0071007D01*
X0030993Y0070390D01*
X0030376Y0069156D02*
X0029141Y0069156D01*
X0028524Y0069773D01*
X0027310Y0069773D02*
X0026693Y0069156D01*
X0024841Y0069156D01*
X0024841Y0072859D01*
X0026693Y0072859D01*
X0027310Y0072242D01*
X0027310Y0071625D01*
X0026693Y0071007D01*
X0024841Y0071007D01*
X0023617Y0069773D02*
X0023617Y0069156D01*
X0022999Y0069156D01*
X0022999Y0069773D01*
X0023617Y0069773D01*
X0021785Y0071625D02*
X0020551Y0069156D01*
X0019316Y0071625D01*
X0018102Y0071007D02*
X0018102Y0070390D01*
X0015633Y0070390D01*
X0015633Y0069773D02*
X0015633Y0071007D01*
X0016250Y0071625D01*
X0017485Y0071625D01*
X0018102Y0071007D01*
X0017485Y0069156D02*
X0016250Y0069156D01*
X0015633Y0069773D01*
X0014419Y0069156D02*
X0013184Y0070390D01*
X0013802Y0070390D02*
X0014419Y0071007D01*
X0014419Y0072242D01*
X0013802Y0072859D01*
X0011950Y0072859D01*
X0011950Y0069156D01*
X0011950Y0070390D02*
X0013802Y0070390D01*
X0026693Y0071007D02*
X0027310Y0070390D01*
X0027310Y0069773D01*
X0038346Y0069156D02*
X0040815Y0071625D01*
X0040815Y0072242D01*
X0040197Y0072859D01*
X0040815Y0069156D02*
X0038346Y0069156D01*
X0045348Y0067549D02*
X0048250Y0067549D01*
X0048250Y0069484D01*
X0047766Y0066537D02*
X0048250Y0066054D01*
X0048250Y0065086D01*
X0047766Y0064602D01*
X0045831Y0064602D01*
X0045348Y0065086D01*
X0045348Y0066054D01*
X0045831Y0066537D01*
X0045831Y0063591D02*
X0045348Y0063107D01*
X0045348Y0062140D01*
X0045831Y0061656D01*
X0046315Y0061656D01*
X0046799Y0062140D01*
X0046799Y0063107D01*
X0047283Y0063591D01*
X0047766Y0063591D01*
X0048250Y0063107D01*
X0048250Y0062140D01*
X0047766Y0061656D01*
X0055348Y0062140D02*
X0055831Y0061656D01*
X0056315Y0061656D01*
X0056799Y0062140D01*
X0056799Y0063107D01*
X0057283Y0063591D01*
X0057766Y0063591D01*
X0058250Y0063107D01*
X0058250Y0062140D01*
X0057766Y0061656D01*
X0055831Y0063591D02*
X0055348Y0063107D01*
X0055348Y0062140D01*
X0055348Y0064602D02*
X0055348Y0066054D01*
X0055831Y0066537D01*
X0057766Y0066537D01*
X0058250Y0066054D01*
X0058250Y0064602D01*
X0055348Y0064602D01*
X0056315Y0067549D02*
X0055348Y0068516D01*
X0056315Y0069484D01*
X0058250Y0069484D01*
X0058250Y0067549D02*
X0056315Y0067549D01*
X0056799Y0067549D02*
X0056799Y0069484D01*
X0065348Y0069000D02*
X0065348Y0068033D01*
X0065831Y0067549D01*
X0067766Y0067549D01*
X0068250Y0068033D01*
X0068250Y0069000D01*
X0067766Y0069484D01*
X0065831Y0069484D02*
X0065348Y0069000D01*
X0065831Y0066537D02*
X0065348Y0066054D01*
X0065348Y0065086D01*
X0065831Y0064602D01*
X0067766Y0064602D01*
X0068250Y0065086D01*
X0068250Y0066054D01*
X0067766Y0066537D01*
X0067283Y0063591D02*
X0065348Y0063591D01*
X0065348Y0061656D02*
X0067283Y0061656D01*
X0068250Y0062623D01*
X0067283Y0063591D01*
X0075348Y0063107D02*
X0075348Y0062140D01*
X0075831Y0061656D01*
X0077766Y0061656D01*
X0078250Y0062140D01*
X0078250Y0063107D01*
X0077766Y0063591D01*
X0076799Y0063591D01*
X0076799Y0062623D01*
X0075831Y0063591D02*
X0075348Y0063107D01*
X0075348Y0064602D02*
X0078250Y0066537D01*
X0075348Y0066537D01*
X0075348Y0067549D02*
X0075348Y0069000D01*
X0075831Y0069484D01*
X0077766Y0069484D01*
X0078250Y0069000D01*
X0078250Y0067549D01*
X0075348Y0067549D01*
X0075348Y0064602D02*
X0078250Y0064602D01*
D12*
X0101800Y0019006D02*
X0021800Y0019006D01*
X0021438Y0019010D01*
X0021075Y0019024D01*
X0020713Y0019045D01*
X0020352Y0019076D01*
X0019992Y0019115D01*
X0019633Y0019163D01*
X0019275Y0019220D01*
X0018918Y0019285D01*
X0018563Y0019359D01*
X0018210Y0019442D01*
X0017859Y0019533D01*
X0017511Y0019632D01*
X0017165Y0019740D01*
X0016821Y0019856D01*
X0016481Y0019981D01*
X0016144Y0020113D01*
X0015810Y0020254D01*
X0015479Y0020403D01*
X0015152Y0020560D01*
X0014829Y0020724D01*
X0014510Y0020896D01*
X0014196Y0021076D01*
X0013885Y0021264D01*
X0013580Y0021459D01*
X0013279Y0021661D01*
X0012983Y0021871D01*
X0012693Y0022087D01*
X0012407Y0022311D01*
X0012127Y0022541D01*
X0011853Y0022778D01*
X0011585Y0023022D01*
X0011322Y0023272D01*
X0011066Y0023528D01*
X0010816Y0023791D01*
X0010572Y0024059D01*
X0010335Y0024333D01*
X0010105Y0024613D01*
X0009881Y0024899D01*
X0009665Y0025189D01*
X0009455Y0025485D01*
X0009253Y0025786D01*
X0009058Y0026091D01*
X0008870Y0026402D01*
X0008690Y0026716D01*
X0008518Y0027035D01*
X0008354Y0027358D01*
X0008197Y0027685D01*
X0008048Y0028016D01*
X0007907Y0028350D01*
X0007775Y0028687D01*
X0007650Y0029027D01*
X0007534Y0029371D01*
X0007426Y0029717D01*
X0007327Y0030065D01*
X0007236Y0030416D01*
X0007153Y0030769D01*
X0007079Y0031124D01*
X0007014Y0031481D01*
X0006957Y0031839D01*
X0006909Y0032198D01*
X0006870Y0032558D01*
X0006839Y0032919D01*
X0006818Y0033281D01*
X0006804Y0033644D01*
X0006800Y0034006D01*
X0006800Y0119006D01*
X0006816Y0120345D01*
X0006865Y0121684D01*
X0006947Y0123021D01*
X0007061Y0124355D01*
X0007207Y0125687D01*
X0007386Y0127014D01*
X0007597Y0128337D01*
X0007841Y0129654D01*
X0008116Y0130965D01*
X0008423Y0132268D01*
X0008762Y0133564D01*
X0009132Y0134851D01*
X0009533Y0136129D01*
X0009966Y0137397D01*
X0010429Y0138654D01*
X0010923Y0139899D01*
X0011447Y0141132D01*
X0012000Y0142351D01*
X0012584Y0143557D01*
X0013196Y0144748D01*
X0013837Y0145924D01*
X0014507Y0147084D01*
X0015205Y0148227D01*
X0015930Y0149353D01*
X0016683Y0150461D01*
X0017462Y0151551D01*
X0018268Y0152621D01*
X0019099Y0153671D01*
X0019956Y0154700D01*
X0020838Y0155709D01*
X0021743Y0156695D01*
X0022673Y0157659D01*
X0023626Y0158601D01*
X0024601Y0159519D01*
X0025599Y0160412D01*
X0026618Y0161282D01*
X0027658Y0162126D01*
X0028718Y0162944D01*
X0029798Y0163737D01*
X0030896Y0164503D01*
X0032014Y0165242D01*
X0033148Y0165954D01*
X0034300Y0166637D01*
X0035468Y0167293D01*
X0036652Y0167920D01*
X0037850Y0168518D01*
X0039063Y0169086D01*
X0040289Y0169625D01*
X0041528Y0170134D01*
X0042779Y0170612D01*
X0044042Y0171060D01*
X0045314Y0171477D01*
X0046597Y0171863D01*
X0047889Y0172218D01*
X0049189Y0172541D01*
X0050496Y0172832D01*
X0051810Y0173091D01*
X0053130Y0173318D01*
X0054455Y0173513D01*
X0055785Y0173676D01*
X0057118Y0173806D01*
X0058453Y0173904D01*
X0059791Y0173969D01*
X0061130Y0174002D01*
X0062470Y0174002D01*
X0063809Y0173969D01*
X0065147Y0173904D01*
X0066482Y0173806D01*
X0067815Y0173676D01*
X0069145Y0173513D01*
X0070470Y0173318D01*
X0071790Y0173091D01*
X0073104Y0172832D01*
X0074411Y0172541D01*
X0075711Y0172218D01*
X0077003Y0171863D01*
X0078286Y0171477D01*
X0079558Y0171060D01*
X0080821Y0170612D01*
X0082072Y0170134D01*
X0083311Y0169625D01*
X0084537Y0169086D01*
X0085750Y0168518D01*
X0086948Y0167920D01*
X0088132Y0167293D01*
X0089300Y0166637D01*
X0090452Y0165954D01*
X0091586Y0165242D01*
X0092704Y0164503D01*
X0093802Y0163737D01*
X0094882Y0162944D01*
X0095942Y0162126D01*
X0096982Y0161282D01*
X0098001Y0160412D01*
X0098999Y0159519D01*
X0099974Y0158601D01*
X0100927Y0157659D01*
X0101857Y0156695D01*
X0102762Y0155709D01*
X0103644Y0154700D01*
X0104501Y0153671D01*
X0105332Y0152621D01*
X0106138Y0151551D01*
X0106917Y0150461D01*
X0107670Y0149353D01*
X0108395Y0148227D01*
X0109093Y0147084D01*
X0109763Y0145924D01*
X0110404Y0144748D01*
X0111016Y0143557D01*
X0111600Y0142351D01*
X0112153Y0141132D01*
X0112677Y0139899D01*
X0113171Y0138654D01*
X0113634Y0137397D01*
X0114067Y0136129D01*
X0114468Y0134851D01*
X0114838Y0133564D01*
X0115177Y0132268D01*
X0115484Y0130965D01*
X0115759Y0129654D01*
X0116003Y0128337D01*
X0116214Y0127014D01*
X0116393Y0125687D01*
X0116539Y0124355D01*
X0116653Y0123021D01*
X0116735Y0121684D01*
X0116784Y0120345D01*
X0116800Y0119006D01*
X0116800Y0034006D01*
X0116796Y0033644D01*
X0116782Y0033281D01*
X0116761Y0032919D01*
X0116730Y0032558D01*
X0116691Y0032198D01*
X0116643Y0031839D01*
X0116586Y0031481D01*
X0116521Y0031124D01*
X0116447Y0030769D01*
X0116364Y0030416D01*
X0116273Y0030065D01*
X0116174Y0029717D01*
X0116066Y0029371D01*
X0115950Y0029027D01*
X0115825Y0028687D01*
X0115693Y0028350D01*
X0115552Y0028016D01*
X0115403Y0027685D01*
X0115246Y0027358D01*
X0115082Y0027035D01*
X0114910Y0026716D01*
X0114730Y0026402D01*
X0114542Y0026091D01*
X0114347Y0025786D01*
X0114145Y0025485D01*
X0113935Y0025189D01*
X0113719Y0024899D01*
X0113495Y0024613D01*
X0113265Y0024333D01*
X0113028Y0024059D01*
X0112784Y0023791D01*
X0112534Y0023528D01*
X0112278Y0023272D01*
X0112015Y0023022D01*
X0111747Y0022778D01*
X0111473Y0022541D01*
X0111193Y0022311D01*
X0110907Y0022087D01*
X0110617Y0021871D01*
X0110321Y0021661D01*
X0110020Y0021459D01*
X0109715Y0021264D01*
X0109404Y0021076D01*
X0109090Y0020896D01*
X0108771Y0020724D01*
X0108448Y0020560D01*
X0108121Y0020403D01*
X0107790Y0020254D01*
X0107456Y0020113D01*
X0107119Y0019981D01*
X0106779Y0019856D01*
X0106435Y0019740D01*
X0106089Y0019632D01*
X0105741Y0019533D01*
X0105390Y0019442D01*
X0105037Y0019359D01*
X0104682Y0019285D01*
X0104325Y0019220D01*
X0103967Y0019163D01*
X0103608Y0019115D01*
X0103248Y0019076D01*
X0102887Y0019045D01*
X0102525Y0019024D01*
X0102162Y0019010D01*
X0101800Y0019006D01*
D13*
X0086800Y0019006D02*
X0086800Y0054006D01*
X0081800Y0054006D01*
X0081682Y0097037D02*
X0081682Y0100974D01*
X0091918Y0100974D01*
X0091918Y0097037D01*
X0082076Y0097037D01*
X0076918Y0097037D02*
X0076918Y0100974D01*
X0076524Y0100974D02*
X0066682Y0100974D01*
X0066682Y0097037D01*
X0076918Y0097037D01*
X0061918Y0097037D02*
X0061918Y0100974D01*
X0051682Y0100974D01*
X0051682Y0097037D01*
X0052076Y0097037D02*
X0061918Y0097037D01*
X0046918Y0097037D02*
X0046918Y0100974D01*
X0036682Y0100974D01*
X0036682Y0097037D01*
X0037076Y0097037D02*
X0046918Y0097037D01*
X0051957Y0123100D02*
X0071643Y0123100D01*
X0071643Y0134911D01*
X0051957Y0134911D01*
X0051957Y0123100D01*
X0055600Y0123306D02*
X0055600Y0127406D01*
X0052100Y0127406D01*
X0052842Y0166756D02*
X0052842Y0171260D01*
X0055845Y0171260D01*
X0054343Y0169008D02*
X0052842Y0169008D01*
X0057446Y0167507D02*
X0058197Y0168257D01*
X0060449Y0168257D01*
X0060449Y0169008D02*
X0060449Y0166756D01*
X0058197Y0166756D01*
X0057446Y0167507D01*
X0058197Y0169758D02*
X0059698Y0169758D01*
X0060449Y0169008D01*
X0062050Y0169008D02*
X0064302Y0169008D01*
X0065053Y0168257D01*
X0065053Y0167507D01*
X0064302Y0166756D01*
X0062050Y0166756D01*
X0062050Y0171260D01*
X0064302Y0171260D01*
X0065053Y0170509D01*
X0065053Y0169758D01*
X0064302Y0169008D01*
X0066654Y0169008D02*
X0066654Y0167507D01*
X0067405Y0166756D01*
X0068906Y0166756D01*
X0069656Y0167507D01*
X0069656Y0169008D01*
X0068906Y0169758D01*
X0067405Y0169758D01*
X0066654Y0169008D01*
X0041800Y0054006D02*
X0036800Y0054006D01*
X0036800Y0019006D01*
D14*
X0070965Y0093950D02*
X0071699Y0093950D01*
X0072066Y0094317D01*
X0072808Y0093950D02*
X0074276Y0093950D01*
X0073542Y0093950D02*
X0073542Y0096152D01*
X0072808Y0095418D01*
X0072066Y0095785D02*
X0071699Y0096152D01*
X0070965Y0096152D01*
X0070598Y0095785D01*
X0070598Y0094317D01*
X0070965Y0093950D01*
X0083782Y0102229D02*
X0084149Y0101862D01*
X0084883Y0101862D01*
X0085250Y0102229D01*
X0085992Y0101862D02*
X0087460Y0103330D01*
X0087460Y0103697D01*
X0087093Y0104064D01*
X0086359Y0104064D01*
X0085992Y0103697D01*
X0085250Y0103697D02*
X0084883Y0104064D01*
X0084149Y0104064D01*
X0083782Y0103697D01*
X0083782Y0102229D01*
X0085992Y0101862D02*
X0087460Y0101862D01*
X0057460Y0101862D02*
X0055992Y0101862D01*
X0056726Y0101862D02*
X0056726Y0104064D01*
X0055992Y0103330D01*
X0055250Y0103697D02*
X0055250Y0102963D01*
X0054883Y0102596D01*
X0053782Y0102596D01*
X0054516Y0102596D02*
X0055250Y0101862D01*
X0053782Y0101862D02*
X0053782Y0104064D01*
X0054883Y0104064D01*
X0055250Y0103697D01*
X0042460Y0103697D02*
X0042093Y0104064D01*
X0041359Y0104064D01*
X0040992Y0103697D01*
X0040250Y0103697D02*
X0040250Y0102963D01*
X0039883Y0102596D01*
X0038782Y0102596D01*
X0039516Y0102596D02*
X0040250Y0101862D01*
X0040992Y0101862D02*
X0042460Y0103330D01*
X0042460Y0103697D01*
X0042460Y0101862D02*
X0040992Y0101862D01*
X0040250Y0103697D02*
X0039883Y0104064D01*
X0038782Y0104064D01*
X0038782Y0101862D01*
D15*
X0062679Y0144006D03*
D16*
X0062679Y0144052D03*
X0066635Y0146582D03*
X0065209Y0148514D03*
X0064703Y0152976D03*
X0068521Y0150308D03*
X0068521Y0150262D03*
X0067049Y0162222D03*
X0062679Y0162820D03*
X0058079Y0153942D03*
X0059919Y0152470D03*
X0059965Y0152516D03*
X0059827Y0152332D03*
X0059781Y0152286D03*
X0059735Y0152194D03*
X0059735Y0148560D03*
X0059781Y0148514D03*
X0053065Y0152746D03*
D17*
X0053134Y0152424D03*
X0057596Y0159830D03*
X0057596Y0159876D03*
X0057596Y0159922D03*
X0058378Y0154402D03*
X0061046Y0153206D03*
X0060632Y0147916D03*
X0062656Y0144098D03*
X0064910Y0148100D03*
X0065784Y0145892D03*
X0068682Y0151412D03*
X0068682Y0151458D03*
X0066934Y0161394D03*
X0066934Y0161440D03*
X0062656Y0162084D03*
X0062656Y0162130D03*
D18*
X0062587Y0161348D03*
X0062587Y0161302D03*
X0062587Y0161256D03*
X0062587Y0161210D03*
X0066773Y0160428D03*
X0066773Y0160382D03*
X0066773Y0160336D03*
X0066773Y0160290D03*
X0070407Y0156932D03*
X0070407Y0156886D03*
X0068705Y0152056D03*
X0065945Y0154862D03*
X0060931Y0147870D03*
X0062679Y0144144D03*
X0065347Y0145662D03*
X0058539Y0154632D03*
X0058079Y0157346D03*
X0058033Y0157530D03*
X0058033Y0157576D03*
X0057987Y0157668D03*
X0057987Y0157714D03*
X0057987Y0157760D03*
X0057941Y0157898D03*
X0057941Y0157944D03*
X0057711Y0146674D03*
D19*
X0056446Y0147916D03*
X0056400Y0147962D03*
X0058746Y0154816D03*
X0062426Y0159692D03*
X0062426Y0159738D03*
X0062426Y0159784D03*
X0062426Y0159830D03*
X0062426Y0159876D03*
X0068682Y0152562D03*
X0069878Y0155598D03*
X0069878Y0155644D03*
X0069924Y0155690D03*
X0062196Y0147364D03*
X0062656Y0144190D03*
D20*
X0062656Y0144236D03*
X0064312Y0147870D03*
X0053594Y0151734D03*
D21*
X0059022Y0155046D03*
X0062196Y0156748D03*
X0062196Y0156794D03*
X0062196Y0156840D03*
X0062196Y0156886D03*
X0062656Y0144282D03*
D22*
X0062633Y0144328D03*
X0062679Y0153574D03*
X0068567Y0153436D03*
X0055411Y0149296D03*
D23*
X0062610Y0144374D03*
X0068498Y0153620D03*
D24*
X0068452Y0153804D03*
X0062610Y0144420D03*
X0055066Y0149894D03*
D25*
X0054905Y0150262D03*
X0062587Y0144466D03*
X0068383Y0153988D03*
D26*
X0068314Y0154126D03*
X0062610Y0144512D03*
X0054790Y0150584D03*
X0054790Y0150630D03*
D27*
X0054721Y0150906D03*
X0054721Y0150952D03*
X0054721Y0150998D03*
X0062633Y0153252D03*
X0062587Y0144558D03*
D28*
X0062587Y0144604D03*
D29*
X0062564Y0144650D03*
X0068176Y0154448D03*
X0054652Y0151596D03*
D30*
X0062541Y0144696D03*
D31*
X0062541Y0144742D03*
D32*
X0062518Y0144788D03*
D33*
X0062495Y0144834D03*
D34*
X0062495Y0144880D03*
D35*
X0062472Y0144926D03*
D36*
X0062472Y0144972D03*
D37*
X0062449Y0145018D03*
D38*
X0062449Y0145064D03*
X0063783Y0156104D03*
X0063783Y0156150D03*
X0063829Y0156288D03*
D39*
X0062426Y0145110D03*
D40*
X0062403Y0145156D03*
D41*
X0062380Y0145202D03*
D42*
X0062380Y0145248D03*
D43*
X0062357Y0145294D03*
D44*
X0062334Y0145340D03*
D45*
X0062334Y0145386D03*
D46*
X0062311Y0145432D03*
D47*
X0062288Y0145478D03*
D48*
X0059919Y0145524D03*
X0055549Y0149066D03*
X0062219Y0156472D03*
X0068567Y0153298D03*
D49*
X0068659Y0152792D03*
X0069533Y0155046D03*
X0069579Y0155092D03*
X0065577Y0155092D03*
X0062311Y0158450D03*
X0062311Y0158496D03*
X0062311Y0158542D03*
X0062311Y0158588D03*
X0062311Y0158634D03*
X0062311Y0158680D03*
X0056055Y0148376D03*
X0056101Y0148330D03*
X0053525Y0151780D03*
X0064887Y0145524D03*
D50*
X0064243Y0150814D03*
X0062219Y0157162D03*
X0062219Y0157208D03*
X0062219Y0157254D03*
X0062219Y0157300D03*
X0062219Y0157346D03*
X0055779Y0148744D03*
X0055825Y0148698D03*
X0059735Y0145570D03*
D51*
X0056676Y0147640D03*
X0056630Y0147686D03*
X0056584Y0147732D03*
X0053364Y0151964D03*
X0058470Y0156104D03*
X0062472Y0160152D03*
X0062472Y0160198D03*
X0062472Y0160244D03*
X0062472Y0160290D03*
X0062472Y0160336D03*
X0066106Y0156978D03*
X0066060Y0156794D03*
X0066014Y0156656D03*
X0066014Y0156610D03*
X0065968Y0156518D03*
X0065968Y0156472D03*
X0065922Y0156334D03*
X0065738Y0155000D03*
X0070016Y0155920D03*
X0070062Y0156012D03*
X0065094Y0145570D03*
D52*
X0059551Y0145616D03*
X0058907Y0154954D03*
X0062265Y0157944D03*
X0062265Y0157990D03*
X0062265Y0158036D03*
X0062265Y0158082D03*
X0062265Y0158128D03*
X0068659Y0152884D03*
X0069441Y0154908D03*
D53*
X0070223Y0156426D03*
X0070269Y0156518D03*
X0068705Y0152286D03*
X0066543Y0158956D03*
X0066543Y0159002D03*
X0066543Y0159048D03*
X0066589Y0159186D03*
X0066589Y0159232D03*
X0066589Y0159278D03*
X0066589Y0159324D03*
X0066635Y0159416D03*
X0066635Y0159462D03*
X0066635Y0159508D03*
X0066635Y0159554D03*
X0062541Y0160750D03*
X0062541Y0160796D03*
X0062541Y0160842D03*
X0062541Y0160888D03*
X0058309Y0156564D03*
X0058309Y0156518D03*
X0058355Y0156472D03*
X0058355Y0156426D03*
X0058631Y0154724D03*
X0053295Y0152056D03*
X0056929Y0147364D03*
X0058631Y0146030D03*
X0058723Y0145984D03*
X0065209Y0145616D03*
D54*
X0062196Y0147410D03*
X0059436Y0145662D03*
X0056032Y0148422D03*
X0062288Y0158174D03*
X0062288Y0158220D03*
X0062288Y0158266D03*
X0062288Y0158312D03*
X0062288Y0158358D03*
X0062288Y0158404D03*
X0068682Y0152838D03*
X0069464Y0154954D03*
X0069510Y0155000D03*
D55*
X0069671Y0155230D03*
X0059321Y0145708D03*
X0056285Y0148100D03*
X0056239Y0148146D03*
X0053479Y0151826D03*
D56*
X0053203Y0152240D03*
X0057849Y0158312D03*
X0057849Y0158358D03*
X0057849Y0158404D03*
X0057849Y0158450D03*
X0057803Y0158496D03*
X0057803Y0158542D03*
X0057803Y0158588D03*
X0057803Y0158634D03*
X0062633Y0161532D03*
X0066819Y0160704D03*
X0066819Y0160658D03*
X0066819Y0160612D03*
X0070453Y0157070D03*
X0068705Y0151918D03*
X0065439Y0145708D03*
D57*
X0068705Y0152608D03*
X0069763Y0155414D03*
X0069809Y0155460D03*
X0069809Y0155506D03*
X0069855Y0155552D03*
X0065669Y0155046D03*
X0059183Y0145754D03*
X0056377Y0148008D03*
X0053433Y0151872D03*
D58*
X0053203Y0152286D03*
X0057757Y0158864D03*
X0057757Y0158910D03*
X0057757Y0158956D03*
X0057711Y0159048D03*
X0057711Y0159094D03*
X0057711Y0159140D03*
X0062633Y0161670D03*
X0062633Y0161716D03*
X0062633Y0161762D03*
X0066865Y0160980D03*
X0066865Y0160934D03*
X0066865Y0160888D03*
X0070499Y0157208D03*
X0068705Y0151826D03*
X0068705Y0151780D03*
X0068705Y0151734D03*
X0065531Y0145754D03*
D59*
X0068705Y0152470D03*
X0068705Y0152516D03*
X0065945Y0156380D03*
X0065945Y0156426D03*
X0059091Y0145800D03*
X0056469Y0147870D03*
X0053387Y0151918D03*
D60*
X0058447Y0154494D03*
X0057665Y0159324D03*
X0057665Y0159370D03*
X0057665Y0159416D03*
X0057665Y0159462D03*
X0062633Y0161854D03*
X0068705Y0151688D03*
X0068705Y0151642D03*
X0064841Y0148054D03*
X0065623Y0145800D03*
X0062219Y0147272D03*
X0070545Y0157346D03*
D61*
X0070039Y0155966D03*
X0069993Y0155874D03*
X0069993Y0155828D03*
X0069947Y0155782D03*
X0069947Y0155736D03*
X0062449Y0159922D03*
X0062449Y0159968D03*
X0062449Y0160014D03*
X0062449Y0160060D03*
X0062449Y0160106D03*
X0056515Y0147824D03*
X0056561Y0147778D03*
X0058999Y0145846D03*
D62*
X0065715Y0145846D03*
X0062679Y0162038D03*
D63*
X0062495Y0160520D03*
X0062495Y0160474D03*
X0062495Y0160428D03*
X0062495Y0160382D03*
X0066405Y0158312D03*
X0066313Y0157898D03*
X0066313Y0157852D03*
X0066267Y0157668D03*
X0066267Y0157622D03*
X0066221Y0157484D03*
X0066221Y0157438D03*
X0066221Y0157392D03*
X0066175Y0157300D03*
X0066175Y0157254D03*
X0066175Y0157208D03*
X0066129Y0157162D03*
X0066129Y0157116D03*
X0066129Y0157070D03*
X0066129Y0157024D03*
X0066083Y0156932D03*
X0066083Y0156886D03*
X0066083Y0156840D03*
X0066037Y0156748D03*
X0066037Y0156702D03*
X0068705Y0152424D03*
X0068705Y0152378D03*
X0070085Y0156058D03*
X0070085Y0156104D03*
X0070131Y0156150D03*
X0070131Y0156196D03*
X0064565Y0147916D03*
X0062725Y0153758D03*
X0058447Y0156150D03*
X0058447Y0156196D03*
X0058401Y0156288D03*
X0056745Y0147594D03*
X0058815Y0145938D03*
X0058907Y0145892D03*
D64*
X0060540Y0147962D03*
X0064956Y0148146D03*
X0065876Y0145938D03*
X0068682Y0151274D03*
X0068682Y0151320D03*
X0070614Y0157576D03*
X0066980Y0161578D03*
X0066980Y0161624D03*
X0057550Y0160152D03*
X0057550Y0160106D03*
X0057550Y0160060D03*
D65*
X0057527Y0160198D03*
X0057527Y0160244D03*
X0057527Y0160290D03*
X0058309Y0154310D03*
X0064243Y0153206D03*
X0068659Y0151228D03*
X0068659Y0151182D03*
X0068659Y0151136D03*
X0065945Y0145984D03*
X0070637Y0157622D03*
X0070637Y0157668D03*
X0067003Y0161670D03*
X0062679Y0162268D03*
X0062679Y0162314D03*
X0062679Y0162360D03*
X0053111Y0152516D03*
D66*
X0053088Y0152562D03*
X0057504Y0160336D03*
X0057504Y0160382D03*
X0057504Y0160428D03*
X0058286Y0154264D03*
X0060908Y0153160D03*
X0065002Y0148192D03*
X0066014Y0146030D03*
X0070660Y0157714D03*
X0066980Y0161716D03*
D67*
X0066704Y0159922D03*
X0066658Y0159738D03*
X0066658Y0159692D03*
X0066658Y0159646D03*
X0066658Y0159600D03*
X0066612Y0159370D03*
X0070292Y0156610D03*
X0070292Y0156564D03*
X0070246Y0156472D03*
X0068728Y0152240D03*
X0058240Y0156748D03*
X0058240Y0156794D03*
X0058194Y0156932D03*
X0056998Y0147318D03*
X0057044Y0147272D03*
X0057090Y0147226D03*
X0057228Y0147088D03*
X0058562Y0146076D03*
D68*
X0060310Y0148054D03*
X0062242Y0147226D03*
X0066060Y0146076D03*
X0066106Y0146122D03*
X0060770Y0153114D03*
X0062748Y0153850D03*
X0057458Y0160566D03*
X0057458Y0160612D03*
X0053088Y0152608D03*
X0067026Y0161854D03*
X0070660Y0157760D03*
D69*
X0070361Y0156794D03*
X0070315Y0156702D03*
X0070315Y0156656D03*
X0068705Y0152194D03*
X0068705Y0152148D03*
X0065899Y0154908D03*
X0066681Y0159784D03*
X0066681Y0159830D03*
X0066681Y0159876D03*
X0066727Y0159968D03*
X0066727Y0160014D03*
X0066727Y0160060D03*
X0062587Y0161072D03*
X0058125Y0157162D03*
X0058171Y0157024D03*
X0058171Y0156978D03*
X0058217Y0156886D03*
X0058217Y0156840D03*
X0058585Y0154678D03*
X0053295Y0152102D03*
X0057297Y0147042D03*
X0057343Y0146996D03*
X0057389Y0146950D03*
X0057435Y0146904D03*
X0058263Y0146260D03*
X0058355Y0146214D03*
X0058401Y0146168D03*
X0058493Y0146122D03*
X0062219Y0147318D03*
D70*
X0065071Y0148284D03*
X0066175Y0146168D03*
X0068613Y0150814D03*
X0068613Y0150860D03*
X0070683Y0157806D03*
X0067003Y0161900D03*
X0062679Y0162498D03*
X0062679Y0162544D03*
X0057435Y0160704D03*
X0057435Y0160658D03*
X0058217Y0154172D03*
X0060701Y0153068D03*
D71*
X0058194Y0154126D03*
X0062702Y0162590D03*
X0070706Y0157852D03*
X0065094Y0148330D03*
X0066244Y0146214D03*
D72*
X0066313Y0146260D03*
X0068567Y0150584D03*
X0068567Y0150630D03*
X0067049Y0162038D03*
X0062679Y0162636D03*
X0057435Y0160796D03*
X0057435Y0160750D03*
X0058171Y0154080D03*
X0060517Y0152976D03*
X0060149Y0148146D03*
X0053065Y0152654D03*
D73*
X0058056Y0157392D03*
X0058056Y0157438D03*
X0058056Y0157484D03*
X0058102Y0157300D03*
X0058102Y0157254D03*
X0058102Y0157208D03*
X0058148Y0157116D03*
X0058148Y0157070D03*
X0057642Y0146720D03*
X0057780Y0146628D03*
X0057826Y0146582D03*
X0058056Y0146398D03*
X0058148Y0146352D03*
X0058194Y0146306D03*
X0064680Y0147962D03*
X0070338Y0156748D03*
X0070384Y0156840D03*
D74*
X0070706Y0157898D03*
X0067026Y0162084D03*
X0064588Y0153068D03*
X0065140Y0148376D03*
X0066336Y0146306D03*
X0060080Y0148192D03*
X0060310Y0152838D03*
X0057412Y0160842D03*
X0057412Y0160888D03*
X0057412Y0160934D03*
D75*
X0057389Y0160980D03*
X0062679Y0162728D03*
X0067049Y0162130D03*
X0060241Y0152792D03*
X0060195Y0152746D03*
X0060149Y0152700D03*
X0060103Y0152654D03*
X0060057Y0152608D03*
X0065163Y0148422D03*
X0066451Y0146398D03*
X0066405Y0146352D03*
X0068567Y0150446D03*
X0068567Y0150492D03*
X0068567Y0150538D03*
X0053065Y0152700D03*
D76*
X0053272Y0152148D03*
X0057504Y0146858D03*
X0057550Y0146812D03*
X0057596Y0146766D03*
X0057872Y0146536D03*
X0057964Y0146490D03*
X0058010Y0146444D03*
X0058010Y0157622D03*
X0062564Y0161118D03*
X0062564Y0161164D03*
X0066750Y0160244D03*
X0066750Y0160198D03*
X0066750Y0160152D03*
X0066750Y0160106D03*
X0068728Y0152102D03*
D77*
X0068544Y0150400D03*
X0068544Y0150354D03*
X0065186Y0148468D03*
X0066520Y0146444D03*
X0064680Y0153022D03*
X0060034Y0152562D03*
X0059896Y0152424D03*
X0059850Y0152378D03*
X0058102Y0153988D03*
X0059804Y0148468D03*
X0059850Y0148422D03*
X0059896Y0148376D03*
X0059942Y0148330D03*
X0059988Y0148284D03*
X0057366Y0161026D03*
X0062702Y0162774D03*
X0067072Y0162176D03*
X0070752Y0157944D03*
D78*
X0068475Y0150216D03*
X0068475Y0150170D03*
X0068475Y0150124D03*
X0066589Y0146536D03*
X0066543Y0146490D03*
X0059643Y0152056D03*
X0059689Y0152148D03*
X0057389Y0161072D03*
D79*
X0057366Y0161118D03*
X0057366Y0161164D03*
X0058056Y0153896D03*
X0059758Y0152240D03*
X0059666Y0152102D03*
X0059620Y0152010D03*
X0059574Y0151964D03*
X0059574Y0151918D03*
X0059528Y0151872D03*
X0059528Y0151826D03*
X0059482Y0151780D03*
X0059482Y0151734D03*
X0059436Y0151688D03*
X0059436Y0151642D03*
X0059436Y0151596D03*
X0059390Y0151550D03*
X0059390Y0151504D03*
X0059344Y0151366D03*
X0059298Y0151182D03*
X0059528Y0148882D03*
X0059574Y0148790D03*
X0059620Y0148744D03*
X0059620Y0148698D03*
X0059666Y0148652D03*
X0059712Y0148606D03*
X0065232Y0148606D03*
X0065232Y0148560D03*
X0066704Y0146628D03*
X0068452Y0150032D03*
X0068452Y0150078D03*
X0064772Y0152930D03*
X0070752Y0157990D03*
X0067072Y0162268D03*
D80*
X0064841Y0152884D03*
X0064887Y0152838D03*
X0064933Y0152792D03*
X0065255Y0148652D03*
X0066727Y0146674D03*
X0066773Y0146720D03*
X0066819Y0146766D03*
X0059551Y0148836D03*
X0059505Y0148928D03*
X0059505Y0148974D03*
X0059459Y0149020D03*
X0059459Y0149066D03*
X0059413Y0149112D03*
X0059413Y0149158D03*
X0059367Y0149250D03*
X0059367Y0149296D03*
X0059367Y0151412D03*
X0059367Y0151458D03*
X0058033Y0153850D03*
D81*
X0058010Y0153804D03*
X0057964Y0153758D03*
X0059252Y0150952D03*
X0059206Y0150538D03*
X0059206Y0150492D03*
X0059206Y0150446D03*
X0059206Y0150400D03*
X0059206Y0150354D03*
X0059206Y0150308D03*
X0059206Y0150262D03*
X0059206Y0150216D03*
X0059206Y0150170D03*
X0059206Y0150124D03*
X0059206Y0150078D03*
X0059252Y0149894D03*
X0059252Y0149848D03*
X0059252Y0149802D03*
X0059252Y0149756D03*
X0059252Y0149710D03*
X0059298Y0149572D03*
X0059298Y0149526D03*
X0059298Y0149480D03*
X0059344Y0149342D03*
X0059390Y0149204D03*
X0065278Y0148744D03*
X0065278Y0148698D03*
X0066934Y0146904D03*
X0066888Y0146858D03*
X0066842Y0146812D03*
X0068406Y0149802D03*
X0068406Y0149848D03*
X0068406Y0149894D03*
X0065002Y0152700D03*
X0064956Y0152746D03*
X0067072Y0162314D03*
X0067072Y0162360D03*
X0062702Y0162912D03*
D82*
X0062679Y0162958D03*
X0057343Y0161302D03*
X0065025Y0152654D03*
X0065071Y0152608D03*
X0065301Y0148836D03*
X0065301Y0148790D03*
X0067003Y0146996D03*
X0066957Y0146950D03*
X0068383Y0149710D03*
X0068383Y0149756D03*
X0070775Y0158082D03*
D83*
X0067095Y0162452D03*
X0067095Y0162498D03*
X0062679Y0163004D03*
X0057895Y0153620D03*
X0065255Y0152240D03*
X0065255Y0152194D03*
X0065255Y0152148D03*
X0065301Y0152056D03*
X0065301Y0152010D03*
X0065301Y0151964D03*
X0065301Y0151918D03*
X0065301Y0151872D03*
X0065301Y0151826D03*
X0065347Y0149296D03*
X0065347Y0149250D03*
X0065347Y0149204D03*
X0065347Y0149158D03*
X0065347Y0149112D03*
X0065347Y0149066D03*
X0065347Y0149020D03*
X0067187Y0147226D03*
X0067233Y0147272D03*
X0067049Y0147042D03*
X0068199Y0149204D03*
X0068245Y0149296D03*
X0068245Y0149342D03*
D84*
X0068268Y0149388D03*
X0068314Y0149526D03*
X0068314Y0149572D03*
X0067118Y0147134D03*
X0067072Y0147088D03*
X0065324Y0148882D03*
X0065324Y0148928D03*
X0065324Y0148974D03*
X0065324Y0151780D03*
X0065278Y0152102D03*
X0065232Y0152286D03*
X0065186Y0152378D03*
X0065186Y0152424D03*
X0065140Y0152470D03*
X0065140Y0152516D03*
X0065094Y0152562D03*
X0057918Y0153666D03*
X0053042Y0152838D03*
X0057320Y0161348D03*
X0057320Y0161394D03*
D85*
X0058286Y0156702D03*
X0058286Y0156656D03*
X0058286Y0156610D03*
X0062564Y0160934D03*
X0062564Y0160980D03*
X0062564Y0161026D03*
X0057136Y0147180D03*
X0057182Y0147134D03*
D86*
X0062242Y0147134D03*
X0057228Y0162038D03*
X0067164Y0163050D03*
D87*
X0057297Y0161670D03*
X0057757Y0153298D03*
X0057711Y0153252D03*
X0056929Y0151780D03*
X0065485Y0147180D03*
X0065485Y0147134D03*
D88*
X0065370Y0147686D03*
X0065370Y0149342D03*
X0065370Y0149388D03*
X0065370Y0149434D03*
X0065370Y0149480D03*
X0065370Y0149526D03*
X0065370Y0149572D03*
X0065370Y0149618D03*
X0065370Y0149664D03*
X0065370Y0149710D03*
X0065370Y0149756D03*
X0065370Y0149802D03*
X0065370Y0149848D03*
X0065370Y0149894D03*
X0065370Y0149940D03*
X0065370Y0149986D03*
X0065370Y0150032D03*
X0065370Y0150078D03*
X0065370Y0150124D03*
X0067348Y0147456D03*
X0067302Y0147410D03*
X0067302Y0147364D03*
X0067256Y0147318D03*
X0068084Y0148882D03*
X0068130Y0148974D03*
X0068130Y0149020D03*
X0068176Y0149066D03*
X0068176Y0149112D03*
X0068176Y0149158D03*
X0068222Y0149250D03*
X0062242Y0147180D03*
X0057872Y0153574D03*
X0057320Y0161440D03*
X0062702Y0163050D03*
X0070798Y0158128D03*
D89*
X0065209Y0152332D03*
X0068291Y0149480D03*
X0068291Y0149434D03*
X0067141Y0147180D03*
D90*
X0065462Y0147226D03*
X0057780Y0153344D03*
X0057274Y0161624D03*
X0062702Y0163188D03*
D91*
X0062679Y0163142D03*
X0057297Y0161578D03*
X0057803Y0153390D03*
X0065439Y0147364D03*
X0065439Y0147318D03*
X0065439Y0147272D03*
X0070821Y0158174D03*
D92*
X0070200Y0156380D03*
X0070200Y0156334D03*
X0070154Y0156242D03*
X0068728Y0152332D03*
X0065830Y0154954D03*
X0066198Y0157346D03*
X0066244Y0157530D03*
X0066244Y0157576D03*
X0066290Y0157714D03*
X0066290Y0157760D03*
X0066290Y0157806D03*
X0066336Y0157944D03*
X0066336Y0157990D03*
X0066336Y0158036D03*
X0066382Y0158128D03*
X0066382Y0158174D03*
X0066382Y0158220D03*
X0066382Y0158266D03*
X0066428Y0158358D03*
X0066428Y0158404D03*
X0066428Y0158450D03*
X0066428Y0158496D03*
X0066474Y0158542D03*
X0066474Y0158588D03*
X0066474Y0158634D03*
X0066474Y0158680D03*
X0066474Y0158726D03*
X0066520Y0158772D03*
X0066520Y0158818D03*
X0066520Y0158864D03*
X0066520Y0158910D03*
X0066566Y0159094D03*
X0066566Y0159140D03*
X0062518Y0160566D03*
X0062518Y0160612D03*
X0062518Y0160658D03*
X0062518Y0160704D03*
X0058378Y0156380D03*
X0058378Y0156334D03*
X0058424Y0156242D03*
X0053318Y0152010D03*
X0056768Y0147548D03*
X0056814Y0147502D03*
X0056860Y0147456D03*
X0056906Y0147410D03*
D93*
X0057826Y0153436D03*
X0057826Y0153482D03*
X0065416Y0147502D03*
X0065416Y0147456D03*
X0065416Y0147410D03*
X0067578Y0147824D03*
X0067624Y0147916D03*
X0067670Y0148008D03*
X0067716Y0148054D03*
X0067716Y0148100D03*
X0067762Y0148146D03*
X0067762Y0148192D03*
X0067808Y0148238D03*
X0067808Y0148284D03*
X0067992Y0148652D03*
D94*
X0068636Y0153068D03*
X0068636Y0153114D03*
X0064220Y0150768D03*
X0064220Y0150722D03*
X0064220Y0150676D03*
X0064220Y0150630D03*
X0064220Y0150584D03*
X0064220Y0150538D03*
X0064220Y0150492D03*
X0064220Y0150446D03*
X0064220Y0150400D03*
X0064220Y0150354D03*
X0064220Y0150308D03*
X0064220Y0150262D03*
X0064220Y0150216D03*
X0064220Y0150170D03*
X0062196Y0147456D03*
X0055756Y0148790D03*
X0055710Y0148836D03*
X0062196Y0157116D03*
D95*
X0062196Y0156656D03*
X0062196Y0156610D03*
X0062196Y0156564D03*
X0062196Y0156518D03*
X0062702Y0153620D03*
X0062196Y0147502D03*
X0068590Y0153252D03*
X0055618Y0148974D03*
X0055572Y0149020D03*
D96*
X0056837Y0151734D03*
X0057849Y0153528D03*
X0053019Y0152884D03*
X0057297Y0161486D03*
X0057297Y0161532D03*
X0062679Y0163096D03*
X0067095Y0162544D03*
X0062771Y0153896D03*
X0065393Y0147640D03*
X0065393Y0147594D03*
X0065393Y0147548D03*
X0067371Y0147502D03*
X0067417Y0147548D03*
X0067417Y0147594D03*
X0067463Y0147640D03*
X0067509Y0147732D03*
X0067555Y0147778D03*
X0067601Y0147870D03*
X0067647Y0147962D03*
X0067923Y0148514D03*
X0067969Y0148606D03*
X0068015Y0148698D03*
X0068015Y0148744D03*
X0068061Y0148790D03*
X0068061Y0148836D03*
X0068107Y0148928D03*
D97*
X0068544Y0153482D03*
X0062196Y0147548D03*
X0055388Y0149342D03*
X0055342Y0149388D03*
D98*
X0055250Y0149572D03*
X0062196Y0147594D03*
D99*
X0062173Y0147640D03*
X0068475Y0153712D03*
X0055135Y0149756D03*
D100*
X0062173Y0147686D03*
D101*
X0067486Y0147686D03*
X0067854Y0148330D03*
X0067854Y0148376D03*
X0067900Y0148422D03*
X0067900Y0148468D03*
X0067946Y0148560D03*
X0067118Y0162590D03*
D102*
X0062909Y0147732D03*
D103*
X0062886Y0147778D03*
X0067946Y0154770D03*
D104*
X0067900Y0154816D03*
X0062840Y0147824D03*
D105*
X0065025Y0148238D03*
X0068659Y0151044D03*
X0068659Y0151090D03*
X0067003Y0161762D03*
X0067003Y0161808D03*
X0062679Y0162406D03*
X0062679Y0162452D03*
X0057481Y0160520D03*
X0057481Y0160474D03*
X0058263Y0154218D03*
X0060425Y0148008D03*
D106*
X0064772Y0148008D03*
X0068728Y0151872D03*
X0070476Y0157116D03*
X0070476Y0157162D03*
X0066842Y0160750D03*
X0066842Y0160796D03*
X0066842Y0160842D03*
X0062610Y0161578D03*
X0062610Y0161624D03*
X0057780Y0158818D03*
X0057780Y0158772D03*
X0057780Y0158726D03*
X0057780Y0158680D03*
X0058470Y0154540D03*
D107*
X0058792Y0154862D03*
X0062380Y0159186D03*
X0062380Y0159232D03*
X0062380Y0159278D03*
X0062380Y0159324D03*
X0062380Y0159370D03*
X0062380Y0159416D03*
X0068682Y0152654D03*
X0069694Y0155276D03*
X0069740Y0155322D03*
X0069740Y0155368D03*
X0056308Y0148054D03*
D108*
X0060218Y0148100D03*
X0060586Y0153022D03*
X0064496Y0153114D03*
X0068590Y0150768D03*
X0068590Y0150722D03*
X0068590Y0150676D03*
X0067026Y0161946D03*
X0067026Y0161992D03*
D109*
X0062357Y0159140D03*
X0062357Y0159094D03*
X0062357Y0159048D03*
X0062357Y0159002D03*
X0062357Y0158956D03*
X0069625Y0155184D03*
X0056193Y0148192D03*
D110*
X0056170Y0148238D03*
X0056124Y0148284D03*
X0058838Y0154908D03*
X0062702Y0153712D03*
X0062334Y0158726D03*
X0062334Y0158772D03*
X0062334Y0158818D03*
X0062334Y0158864D03*
X0062334Y0158910D03*
X0068682Y0152746D03*
X0068682Y0152700D03*
X0069602Y0155138D03*
D111*
X0062702Y0162682D03*
X0058148Y0154034D03*
X0060402Y0152884D03*
X0060448Y0152930D03*
X0060034Y0148238D03*
D112*
X0055986Y0148468D03*
X0055940Y0148514D03*
X0062242Y0157668D03*
X0062242Y0157714D03*
X0062242Y0157760D03*
X0062242Y0157806D03*
X0062242Y0157852D03*
X0062242Y0157898D03*
X0068636Y0152930D03*
D113*
X0068659Y0152976D03*
X0069395Y0154862D03*
X0062219Y0157622D03*
X0055871Y0148606D03*
X0055917Y0148560D03*
D114*
X0055848Y0148652D03*
X0058976Y0155000D03*
X0062702Y0153666D03*
X0065462Y0155138D03*
X0062242Y0157392D03*
X0062242Y0157438D03*
X0062242Y0157484D03*
X0062242Y0157530D03*
X0062242Y0157576D03*
D115*
X0062219Y0157070D03*
X0062219Y0157024D03*
X0062219Y0156978D03*
X0062219Y0156932D03*
X0068613Y0153160D03*
X0055687Y0148882D03*
D116*
X0055641Y0148928D03*
X0068613Y0153206D03*
D117*
X0068590Y0153344D03*
X0062196Y0156334D03*
X0062196Y0156380D03*
X0062196Y0156426D03*
X0059114Y0155092D03*
X0055526Y0149112D03*
D118*
X0055503Y0149158D03*
X0068567Y0153390D03*
D119*
X0055457Y0149204D03*
D120*
X0055434Y0149250D03*
D121*
X0053065Y0152792D03*
X0059321Y0151320D03*
X0059321Y0151274D03*
X0059321Y0151228D03*
X0059275Y0151136D03*
X0059275Y0151090D03*
X0059275Y0151044D03*
X0059275Y0150998D03*
X0059229Y0150906D03*
X0059229Y0150860D03*
X0059229Y0150814D03*
X0059229Y0150768D03*
X0059229Y0150722D03*
X0059229Y0150676D03*
X0059229Y0150630D03*
X0059229Y0150584D03*
X0059229Y0150032D03*
X0059229Y0149986D03*
X0059229Y0149940D03*
X0059275Y0149664D03*
X0059275Y0149618D03*
X0059321Y0149434D03*
X0059321Y0149388D03*
X0057343Y0161210D03*
X0057343Y0161256D03*
X0062679Y0162866D03*
X0070775Y0158036D03*
X0068429Y0149986D03*
X0068429Y0149940D03*
D122*
X0068521Y0153528D03*
X0059229Y0155138D03*
X0055319Y0149434D03*
D123*
X0055296Y0149480D03*
D124*
X0055273Y0149526D03*
X0062679Y0153528D03*
X0065117Y0155230D03*
X0068521Y0153574D03*
D125*
X0055227Y0149618D03*
X0055181Y0149664D03*
D126*
X0057941Y0153712D03*
X0067095Y0162406D03*
X0068337Y0149664D03*
X0068337Y0149618D03*
D127*
X0068498Y0153666D03*
X0059344Y0155184D03*
X0055158Y0149710D03*
D128*
X0055112Y0149802D03*
X0062656Y0153482D03*
X0068452Y0153758D03*
D129*
X0055089Y0149848D03*
D130*
X0055043Y0149940D03*
X0055043Y0149986D03*
X0054997Y0150032D03*
X0068429Y0153850D03*
D131*
X0062656Y0153436D03*
X0054974Y0150078D03*
D132*
X0054951Y0150124D03*
D133*
X0054928Y0150170D03*
X0054928Y0150216D03*
X0059528Y0155230D03*
X0068406Y0153942D03*
D134*
X0062656Y0153390D03*
X0054882Y0150354D03*
X0054882Y0150308D03*
D135*
X0054859Y0150400D03*
X0068383Y0154034D03*
D136*
X0068360Y0154080D03*
X0054836Y0150446D03*
D137*
X0054813Y0150492D03*
X0054813Y0150538D03*
X0062633Y0153344D03*
D138*
X0054767Y0150722D03*
X0054767Y0150676D03*
D139*
X0054744Y0150768D03*
X0054744Y0150814D03*
D140*
X0054744Y0150860D03*
D141*
X0064404Y0153160D03*
X0068636Y0150998D03*
X0068636Y0150952D03*
X0068636Y0150906D03*
D142*
X0068268Y0154264D03*
X0054698Y0151090D03*
X0054698Y0151044D03*
D143*
X0054675Y0151136D03*
X0054675Y0151182D03*
D144*
X0054698Y0151228D03*
X0068222Y0154356D03*
D145*
X0054675Y0151366D03*
X0054675Y0151320D03*
X0054675Y0151274D03*
D146*
X0058355Y0154356D03*
X0057573Y0159968D03*
X0057573Y0160014D03*
X0068659Y0151366D03*
X0070591Y0157530D03*
D147*
X0054652Y0151412D03*
D148*
X0054675Y0151458D03*
X0054675Y0151504D03*
X0054675Y0151550D03*
D149*
X0057619Y0159646D03*
X0057619Y0159692D03*
X0057619Y0159738D03*
X0057619Y0159784D03*
X0068705Y0151550D03*
X0068705Y0151504D03*
X0070591Y0157484D03*
D150*
X0070568Y0157438D03*
X0070568Y0157392D03*
X0066934Y0161302D03*
X0066934Y0161348D03*
X0062656Y0161900D03*
X0062656Y0161946D03*
X0062656Y0161992D03*
X0057642Y0159600D03*
X0057642Y0159554D03*
X0057642Y0159508D03*
X0058424Y0154448D03*
X0068682Y0151596D03*
D151*
X0054675Y0151642D03*
X0054675Y0151688D03*
D152*
X0056998Y0151826D03*
X0062702Y0163234D03*
D153*
X0062702Y0163280D03*
X0067118Y0162774D03*
X0057274Y0161762D03*
X0057642Y0153068D03*
X0057642Y0153022D03*
X0057596Y0152976D03*
X0057044Y0151872D03*
D154*
X0057067Y0151918D03*
X0057113Y0151964D03*
X0057573Y0152930D03*
X0053019Y0152976D03*
X0057251Y0161808D03*
D155*
X0057872Y0158266D03*
X0057872Y0158220D03*
X0057872Y0158174D03*
X0057918Y0158128D03*
X0057918Y0158082D03*
X0057918Y0158036D03*
X0057918Y0157990D03*
X0057964Y0157852D03*
X0057964Y0157806D03*
X0053226Y0152194D03*
X0062610Y0161394D03*
X0062610Y0161440D03*
X0062610Y0161486D03*
X0066796Y0160566D03*
X0066796Y0160520D03*
X0066796Y0160474D03*
X0068728Y0152010D03*
X0068728Y0151964D03*
D156*
X0067118Y0162820D03*
X0062702Y0163326D03*
X0057550Y0152884D03*
X0057550Y0152838D03*
X0057504Y0152746D03*
X0057136Y0152010D03*
D157*
X0057159Y0152056D03*
X0057205Y0152102D03*
X0057205Y0152148D03*
X0057251Y0152194D03*
X0057435Y0152608D03*
X0057481Y0152700D03*
X0057527Y0152792D03*
X0057251Y0161854D03*
X0067141Y0162866D03*
X0070867Y0158266D03*
D158*
X0062702Y0163372D03*
X0057458Y0152654D03*
X0057412Y0152562D03*
X0057412Y0152516D03*
X0057366Y0152470D03*
X0057366Y0152424D03*
X0057320Y0152378D03*
X0057320Y0152332D03*
X0057274Y0152286D03*
X0057274Y0152240D03*
D159*
X0053180Y0152332D03*
X0057734Y0159002D03*
X0057688Y0159186D03*
X0057688Y0159232D03*
X0057688Y0159278D03*
X0062656Y0161808D03*
X0066888Y0161118D03*
X0066888Y0161072D03*
X0066888Y0161026D03*
X0070522Y0157300D03*
X0070522Y0157254D03*
D160*
X0066911Y0161164D03*
X0066911Y0161210D03*
X0066911Y0161256D03*
X0053157Y0152378D03*
D161*
X0053111Y0152470D03*
X0062679Y0162176D03*
X0062679Y0162222D03*
X0066957Y0161532D03*
X0066957Y0161486D03*
D162*
X0067118Y0162636D03*
X0067118Y0162682D03*
X0053042Y0152930D03*
D163*
X0053042Y0153022D03*
X0062702Y0163418D03*
X0067164Y0162912D03*
D164*
X0068636Y0153022D03*
D165*
X0053019Y0153068D03*
D166*
X0057665Y0153114D03*
D167*
X0057688Y0153160D03*
X0057688Y0153206D03*
X0057274Y0161716D03*
X0067118Y0162728D03*
X0070844Y0158220D03*
D168*
X0068291Y0154218D03*
X0062633Y0153298D03*
D169*
X0062725Y0153804D03*
D170*
X0068429Y0153896D03*
D171*
X0068314Y0154172D03*
D172*
X0068245Y0154310D03*
D173*
X0068199Y0154402D03*
D174*
X0068153Y0154494D03*
D175*
X0068130Y0154540D03*
D176*
X0070430Y0156978D03*
X0070430Y0157024D03*
X0058516Y0154586D03*
D177*
X0068084Y0154586D03*
D178*
X0068061Y0154632D03*
D179*
X0068015Y0154678D03*
D180*
X0067969Y0154724D03*
D181*
X0065991Y0156564D03*
X0066359Y0158082D03*
X0070177Y0156288D03*
X0058677Y0154770D03*
D182*
X0062219Y0156702D03*
X0065347Y0155184D03*
D183*
X0062196Y0155276D03*
X0062196Y0155322D03*
D184*
X0062173Y0155368D03*
X0062173Y0155414D03*
X0062173Y0155460D03*
X0062173Y0155506D03*
D185*
X0062196Y0155552D03*
D186*
X0062173Y0155598D03*
X0062173Y0155644D03*
X0062173Y0155690D03*
X0062173Y0155736D03*
D187*
X0062196Y0155782D03*
D188*
X0062173Y0155828D03*
X0062173Y0155874D03*
X0062173Y0155920D03*
X0062173Y0155966D03*
D189*
X0062196Y0156012D03*
D190*
X0062173Y0156058D03*
D191*
X0063806Y0156196D03*
X0063806Y0156242D03*
D192*
X0062725Y0163464D03*
X0070913Y0158312D03*
D193*
X0062403Y0159462D03*
X0062403Y0159508D03*
X0062403Y0159554D03*
X0062403Y0159600D03*
X0062403Y0159646D03*
D194*
X0057251Y0161900D03*
D195*
X0057251Y0161946D03*
D196*
X0057228Y0161992D03*
D197*
X0057228Y0162084D03*
X0062748Y0163602D03*
D198*
X0067164Y0162958D03*
D199*
X0067141Y0163004D03*
X0062725Y0163510D03*
D200*
X0067187Y0163096D03*
D201*
X0062748Y0163556D03*
D202*
X0096175Y0071831D03*
X0096425Y0069031D03*
X0096425Y0068981D03*
X0096425Y0068931D03*
X0096475Y0068881D03*
X0097425Y0068881D03*
X0097425Y0068931D03*
X0097425Y0068981D03*
X0098875Y0068931D03*
X0098875Y0068881D03*
X0098875Y0068831D03*
X0098875Y0068781D03*
X0098875Y0068731D03*
X0098875Y0068681D03*
X0098875Y0068631D03*
X0098875Y0068581D03*
X0098875Y0068531D03*
X0098875Y0068481D03*
X0098875Y0068431D03*
X0098875Y0068381D03*
X0098875Y0068331D03*
X0098875Y0068281D03*
X0098875Y0068231D03*
X0098875Y0068181D03*
X0098875Y0068131D03*
X0098875Y0068081D03*
X0098875Y0068031D03*
X0098875Y0067981D03*
X0098875Y0067931D03*
X0098875Y0067881D03*
X0098875Y0067831D03*
X0098875Y0067781D03*
X0098875Y0067731D03*
X0098875Y0067681D03*
X0098875Y0067631D03*
X0098875Y0067581D03*
X0098875Y0067531D03*
X0098875Y0067481D03*
X0098875Y0067431D03*
X0098875Y0067381D03*
X0098875Y0067331D03*
X0098875Y0067281D03*
X0098875Y0067231D03*
X0097475Y0065881D03*
X0097475Y0065831D03*
X0097475Y0065781D03*
X0097475Y0064981D03*
X0097475Y0064931D03*
X0097475Y0064881D03*
X0097475Y0064831D03*
X0097475Y0064781D03*
X0097475Y0064731D03*
X0097475Y0064681D03*
X0097475Y0064631D03*
X0097475Y0064581D03*
X0097475Y0064531D03*
X0097475Y0064481D03*
X0097475Y0064431D03*
X0097475Y0064381D03*
X0097475Y0064331D03*
X0097475Y0064281D03*
X0097475Y0064231D03*
X0097475Y0064181D03*
X0097475Y0064131D03*
X0097475Y0064081D03*
X0097475Y0064031D03*
X0097475Y0063981D03*
X0097475Y0063931D03*
X0097475Y0063881D03*
X0097475Y0063831D03*
X0097475Y0063781D03*
X0097475Y0063731D03*
X0097475Y0063681D03*
X0097475Y0063631D03*
X0097475Y0063581D03*
X0097475Y0063531D03*
X0097475Y0063481D03*
X0097475Y0063431D03*
X0097475Y0063381D03*
X0096425Y0063381D03*
X0096425Y0064031D03*
X0096425Y0064081D03*
X0096425Y0064131D03*
X0096425Y0064181D03*
X0096425Y0064231D03*
X0096425Y0064281D03*
X0096425Y0064331D03*
X0096425Y0064931D03*
X0096425Y0064981D03*
X0096425Y0065031D03*
X0096425Y0065081D03*
X0096425Y0065131D03*
X0096425Y0065181D03*
X0096425Y0065231D03*
X0096275Y0067831D03*
X0095025Y0067981D03*
X0094975Y0068031D03*
X0094975Y0068081D03*
X0094975Y0068131D03*
X0094975Y0068181D03*
X0094975Y0068831D03*
X0094975Y0068931D03*
X0094975Y0068981D03*
X0095025Y0069081D03*
X0094075Y0068931D03*
X0094075Y0068881D03*
X0094075Y0068831D03*
X0094075Y0068781D03*
X0094075Y0068731D03*
X0094075Y0068681D03*
X0094075Y0068631D03*
X0094075Y0068581D03*
X0094075Y0068481D03*
X0094075Y0068431D03*
X0094075Y0068381D03*
X0094075Y0068331D03*
X0094075Y0068281D03*
X0094075Y0068231D03*
X0094075Y0068181D03*
X0094075Y0068131D03*
X0092625Y0068181D03*
X0092625Y0068231D03*
X0092625Y0068281D03*
X0092625Y0068331D03*
X0092625Y0068381D03*
X0092625Y0068431D03*
X0092625Y0068481D03*
X0092625Y0068531D03*
X0092625Y0068581D03*
X0092625Y0068631D03*
X0092625Y0068681D03*
X0092625Y0068731D03*
X0092625Y0068781D03*
X0092625Y0068831D03*
X0092625Y0068881D03*
X0092625Y0069731D03*
X0092625Y0069781D03*
X0091625Y0069031D03*
X0091675Y0068931D03*
X0091675Y0068881D03*
X0091675Y0068831D03*
X0091675Y0068781D03*
X0091675Y0068731D03*
X0091675Y0068681D03*
X0091675Y0068631D03*
X0091675Y0068581D03*
X0091675Y0068531D03*
X0091675Y0068481D03*
X0091675Y0068431D03*
X0091675Y0068381D03*
X0091675Y0068331D03*
X0091675Y0068281D03*
X0091675Y0068231D03*
X0091675Y0068181D03*
X0091675Y0068131D03*
X0091625Y0068031D03*
X0092625Y0067331D03*
X0092625Y0067281D03*
X0092625Y0067231D03*
X0092625Y0067181D03*
X0092625Y0067131D03*
X0092625Y0067081D03*
X0092625Y0067031D03*
X0092625Y0066981D03*
X0092625Y0066931D03*
X0092625Y0066881D03*
X0092625Y0066831D03*
X0092625Y0066781D03*
X0092625Y0066731D03*
X0092625Y0066681D03*
X0092625Y0066631D03*
X0092625Y0066581D03*
X0092625Y0066531D03*
X0092625Y0066481D03*
X0092625Y0066431D03*
X0092625Y0066381D03*
X0092625Y0066331D03*
X0092625Y0066281D03*
X0092625Y0066231D03*
X0092625Y0066181D03*
X0092625Y0066131D03*
X0092625Y0066081D03*
X0092625Y0066031D03*
X0092625Y0065981D03*
X0092625Y0065931D03*
X0092625Y0065881D03*
X0092625Y0065831D03*
X0092625Y0065031D03*
X0092625Y0064981D03*
X0092625Y0064931D03*
X0092625Y0064881D03*
X0092625Y0064831D03*
X0092625Y0064781D03*
X0092625Y0064731D03*
X0092625Y0064681D03*
X0092625Y0064631D03*
X0092625Y0064581D03*
X0092625Y0064531D03*
X0092625Y0064481D03*
X0092625Y0064431D03*
X0092625Y0064381D03*
X0092625Y0064331D03*
X0092625Y0064281D03*
X0092625Y0064231D03*
X0092625Y0064181D03*
X0092625Y0064131D03*
X0092625Y0064081D03*
X0092625Y0064031D03*
X0092625Y0063981D03*
X0092625Y0063931D03*
X0092625Y0063881D03*
X0092625Y0063831D03*
X0092625Y0063781D03*
X0092625Y0063731D03*
X0092625Y0063681D03*
X0092625Y0063631D03*
X0092625Y0063581D03*
X0092625Y0063531D03*
X0092625Y0063481D03*
X0092625Y0063431D03*
X0092625Y0063381D03*
X0094075Y0063381D03*
X0094075Y0063431D03*
X0094075Y0063481D03*
X0094075Y0063531D03*
X0094075Y0063581D03*
X0094075Y0063631D03*
X0094075Y0063681D03*
X0094075Y0063731D03*
X0094075Y0063781D03*
X0094075Y0063831D03*
X0094075Y0063881D03*
X0094075Y0063931D03*
X0094075Y0063981D03*
X0094075Y0064031D03*
X0094075Y0064081D03*
X0094075Y0064131D03*
X0094075Y0064181D03*
X0094075Y0064231D03*
X0094075Y0064281D03*
X0094075Y0064331D03*
X0094075Y0064381D03*
X0094075Y0064431D03*
X0094075Y0064481D03*
X0094075Y0064531D03*
X0094075Y0064581D03*
X0094075Y0064631D03*
X0094075Y0064681D03*
X0094075Y0064731D03*
X0094075Y0064781D03*
X0094075Y0064831D03*
X0094075Y0064881D03*
X0094075Y0064931D03*
X0094075Y0064981D03*
X0094075Y0065031D03*
X0094075Y0065081D03*
X0094975Y0064281D03*
X0094975Y0063981D03*
X0099175Y0064231D03*
X0099175Y0064281D03*
X0099175Y0064331D03*
X0099175Y0064381D03*
X0099175Y0064431D03*
X0099175Y0064481D03*
X0099175Y0064531D03*
X0099175Y0064581D03*
X0099175Y0064631D03*
X0099175Y0064681D03*
X0099175Y0064731D03*
X0099175Y0064781D03*
X0099175Y0064831D03*
X0099175Y0064881D03*
X0099175Y0064931D03*
X0099175Y0064981D03*
X0099175Y0065031D03*
X0100625Y0065031D03*
X0100625Y0064981D03*
X0100625Y0064931D03*
X0100625Y0064881D03*
X0100625Y0064831D03*
X0100625Y0064781D03*
X0100625Y0064731D03*
X0100625Y0064681D03*
X0100625Y0064631D03*
X0100625Y0064581D03*
X0100625Y0064531D03*
X0100625Y0064481D03*
X0100625Y0064431D03*
X0100625Y0064381D03*
X0100625Y0064331D03*
X0100625Y0064281D03*
X0100625Y0064231D03*
X0100625Y0063431D03*
X0100625Y0063381D03*
X0102175Y0063481D03*
X0102175Y0063531D03*
X0101775Y0064681D03*
X0101725Y0064831D03*
X0101675Y0064981D03*
X0101675Y0065031D03*
X0101625Y0065131D03*
X0101625Y0065181D03*
X0101625Y0065231D03*
X0101575Y0065281D03*
X0101575Y0065331D03*
X0101575Y0065381D03*
X0101525Y0065431D03*
X0101525Y0065481D03*
X0101525Y0065531D03*
X0101475Y0065631D03*
X0101475Y0065681D03*
X0101475Y0065731D03*
X0101425Y0065831D03*
X0101425Y0065881D03*
X0100625Y0065881D03*
X0100625Y0065931D03*
X0100625Y0065981D03*
X0100625Y0066031D03*
X0100625Y0066081D03*
X0100625Y0066131D03*
X0100625Y0066181D03*
X0100625Y0066231D03*
X0100625Y0066281D03*
X0100625Y0066331D03*
X0100625Y0066381D03*
X0100625Y0066431D03*
X0100625Y0066481D03*
X0100625Y0066531D03*
X0100625Y0066581D03*
X0100625Y0066631D03*
X0100625Y0066681D03*
X0100625Y0066731D03*
X0100625Y0066781D03*
X0100625Y0066831D03*
X0100625Y0066881D03*
X0101575Y0067231D03*
X0100875Y0067881D03*
X0100875Y0068981D03*
X0100875Y0069031D03*
X0100875Y0069081D03*
X0100875Y0069131D03*
X0100925Y0069181D03*
X0101575Y0069831D03*
X0103175Y0069031D03*
X0103175Y0068981D03*
X0103125Y0068931D03*
X0103125Y0068881D03*
X0103125Y0068831D03*
X0103125Y0068781D03*
X0103125Y0068731D03*
X0103125Y0068681D03*
X0103125Y0068631D03*
X0103125Y0068581D03*
X0103125Y0068531D03*
X0103125Y0068481D03*
X0103125Y0068431D03*
X0103125Y0068381D03*
X0103125Y0068331D03*
X0103125Y0068281D03*
X0103125Y0068231D03*
X0103125Y0068181D03*
X0103125Y0068131D03*
X0103175Y0068081D03*
X0103175Y0068031D03*
X0102325Y0068031D03*
X0102325Y0068081D03*
X0102325Y0068131D03*
X0102325Y0067981D03*
X0102925Y0065631D03*
X0104225Y0065331D03*
X0104225Y0065281D03*
X0104225Y0065231D03*
X0104175Y0065131D03*
X0104175Y0065081D03*
X0104125Y0064931D03*
X0104075Y0064781D03*
X0104075Y0064731D03*
X0104025Y0064581D03*
X0104275Y0065381D03*
X0104275Y0065431D03*
X0104275Y0065481D03*
X0104325Y0065531D03*
X0104325Y0065581D03*
X0104325Y0065631D03*
X0104375Y0065731D03*
X0104375Y0065781D03*
X0104975Y0064281D03*
X0104975Y0064031D03*
X0104975Y0063981D03*
X0103675Y0063481D03*
X0100625Y0065831D03*
X0104625Y0068081D03*
X0104625Y0068131D03*
X0104625Y0068181D03*
X0104625Y0068231D03*
X0104675Y0068431D03*
X0104675Y0068481D03*
X0104675Y0068531D03*
X0104675Y0068581D03*
X0104675Y0068631D03*
X0104625Y0068831D03*
X0104625Y0068881D03*
X0104625Y0068931D03*
X0104625Y0068981D03*
X0105575Y0068981D03*
X0105575Y0069031D03*
X0105575Y0069081D03*
X0105575Y0069131D03*
X0105575Y0069181D03*
X0105575Y0069231D03*
X0105575Y0069281D03*
X0105575Y0069331D03*
X0105575Y0069381D03*
X0105575Y0069431D03*
X0105575Y0069481D03*
X0105575Y0069531D03*
X0105575Y0069581D03*
X0105575Y0069631D03*
X0105575Y0069681D03*
X0105575Y0069731D03*
X0105575Y0069781D03*
X0105575Y0068931D03*
X0105575Y0068881D03*
X0105575Y0068831D03*
X0105575Y0068781D03*
X0105575Y0068731D03*
X0105575Y0068681D03*
X0105575Y0068631D03*
X0105575Y0068581D03*
X0105575Y0068531D03*
X0105575Y0068481D03*
X0105575Y0068431D03*
X0105575Y0068381D03*
X0105575Y0068331D03*
X0105575Y0068281D03*
X0105575Y0068231D03*
X0105575Y0068181D03*
X0107075Y0068181D03*
X0107075Y0068231D03*
X0107075Y0068281D03*
X0107075Y0068331D03*
X0107075Y0068381D03*
X0107075Y0068431D03*
X0107075Y0068481D03*
X0107075Y0068531D03*
X0107075Y0068581D03*
X0107075Y0068631D03*
X0107075Y0068681D03*
X0107075Y0068731D03*
X0107075Y0068781D03*
X0107075Y0068831D03*
X0107075Y0068881D03*
X0107075Y0068931D03*
X0107075Y0068981D03*
X0107075Y0069031D03*
X0107075Y0069081D03*
X0107075Y0069131D03*
X0107075Y0069181D03*
X0107075Y0069231D03*
X0107075Y0069281D03*
X0107075Y0069331D03*
X0107075Y0069381D03*
X0107075Y0069431D03*
X0107075Y0069481D03*
X0107075Y0069531D03*
X0107075Y0069581D03*
X0107075Y0069631D03*
X0107075Y0069681D03*
X0107075Y0069731D03*
X0107075Y0069781D03*
X0108125Y0069781D03*
X0108125Y0069731D03*
X0108125Y0068981D03*
X0108125Y0068931D03*
X0108125Y0068881D03*
X0108125Y0068831D03*
X0108125Y0068781D03*
X0108125Y0068731D03*
X0108125Y0068681D03*
X0108125Y0068631D03*
X0108125Y0068581D03*
X0108125Y0068531D03*
X0108125Y0068481D03*
X0108125Y0068431D03*
X0108125Y0068381D03*
X0108125Y0068331D03*
X0108125Y0068281D03*
X0108125Y0068231D03*
X0108125Y0068181D03*
X0108125Y0068131D03*
X0108125Y0068081D03*
X0108125Y0068031D03*
X0108125Y0067981D03*
X0108125Y0067931D03*
X0108125Y0067881D03*
X0108125Y0067831D03*
X0108125Y0067781D03*
X0108125Y0067731D03*
X0108125Y0067681D03*
X0108125Y0067631D03*
X0108125Y0067581D03*
X0108125Y0067531D03*
X0108125Y0067481D03*
X0108125Y0067431D03*
X0108125Y0067381D03*
X0108125Y0067331D03*
X0108125Y0067281D03*
X0107075Y0067281D03*
X0107075Y0067331D03*
X0107475Y0065881D03*
X0107475Y0065831D03*
X0107475Y0065781D03*
X0107475Y0064931D03*
X0107475Y0064881D03*
X0107475Y0064831D03*
X0107475Y0064781D03*
X0107475Y0064731D03*
X0107475Y0064681D03*
X0107475Y0064631D03*
X0107475Y0064581D03*
X0107475Y0064531D03*
X0107475Y0064481D03*
X0107475Y0064431D03*
X0107475Y0064381D03*
X0107475Y0064331D03*
X0107475Y0064281D03*
X0107475Y0064231D03*
X0107475Y0064181D03*
X0107475Y0064131D03*
X0107475Y0064081D03*
X0107475Y0064031D03*
X0107475Y0063981D03*
X0107475Y0063931D03*
X0107475Y0063881D03*
X0107475Y0063831D03*
X0107475Y0063781D03*
X0107475Y0063731D03*
X0107475Y0063681D03*
X0107475Y0063631D03*
X0107475Y0063581D03*
X0107475Y0063531D03*
X0107475Y0063481D03*
X0107475Y0063431D03*
X0107475Y0063381D03*
X0106425Y0064031D03*
X0106425Y0064081D03*
X0106425Y0064131D03*
X0106425Y0064181D03*
X0106425Y0064231D03*
X0106425Y0064931D03*
X0106425Y0065131D03*
X0106425Y0065181D03*
X0106425Y0065231D03*
X0109225Y0065131D03*
X0109225Y0065081D03*
X0109275Y0065181D03*
X0109175Y0064331D03*
X0109225Y0064181D03*
X0109225Y0064131D03*
X0109275Y0064081D03*
X0110675Y0064931D03*
X0110675Y0064981D03*
X0110675Y0065031D03*
X0110675Y0065081D03*
X0109775Y0068131D03*
X0109775Y0068181D03*
X0109725Y0068231D03*
X0109725Y0068281D03*
X0109725Y0068331D03*
X0109725Y0068381D03*
X0109725Y0068431D03*
X0109725Y0068481D03*
X0109725Y0068531D03*
X0109725Y0068581D03*
X0109725Y0068631D03*
X0109725Y0068681D03*
X0109725Y0068731D03*
X0109725Y0068781D03*
X0109725Y0068831D03*
X0109775Y0068881D03*
X0109775Y0068931D03*
X0111875Y0068881D03*
X0111875Y0068831D03*
X0111925Y0069031D03*
X0111975Y0069131D03*
X0111875Y0068231D03*
X0111875Y0068181D03*
X0111925Y0068081D03*
X0111925Y0068031D03*
X0113175Y0067831D03*
X0113325Y0069031D03*
X0113325Y0069081D03*
X0107375Y0071831D03*
X0090225Y0069031D03*
X0090225Y0068031D03*
D203*
X0093525Y0067331D03*
X0093525Y0069731D03*
X0095775Y0067281D03*
X0098275Y0069731D03*
X0098825Y0072781D03*
X0102925Y0065181D03*
X0102175Y0063981D03*
X0103675Y0063981D03*
X0105575Y0063381D03*
X0106175Y0067331D03*
X0108975Y0069731D03*
X0110025Y0063381D03*
X0104725Y0072781D03*
X0099375Y0063931D03*
X0095575Y0063381D03*
D204*
X0096350Y0063931D03*
X0096300Y0065331D03*
X0097550Y0065231D03*
X0099300Y0065281D03*
X0100550Y0065231D03*
X0100550Y0063981D03*
X0099750Y0063381D03*
X0102150Y0063731D03*
X0103650Y0063731D03*
X0103650Y0063781D03*
X0103650Y0063681D03*
X0102900Y0065381D03*
X0102900Y0065431D03*
X0103300Y0067881D03*
X0104500Y0067881D03*
X0104500Y0069181D03*
X0107000Y0067931D03*
X0107550Y0065231D03*
X0106350Y0063931D03*
X0109400Y0063931D03*
X0109950Y0065881D03*
X0112050Y0069231D03*
X0113200Y0069231D03*
X0107350Y0071881D03*
X0104700Y0072731D03*
X0101000Y0068881D03*
X0098750Y0069181D03*
X0098850Y0072731D03*
X0096200Y0071881D03*
X0095150Y0069231D03*
X0095100Y0067881D03*
X0093950Y0067881D03*
X0092700Y0067931D03*
X0091550Y0067881D03*
X0090300Y0067881D03*
X0090300Y0069181D03*
X0091550Y0069181D03*
X0093500Y0069781D03*
X0094000Y0065231D03*
X0092700Y0065231D03*
D205*
X0090925Y0067231D03*
X0090175Y0068431D03*
X0090175Y0068481D03*
X0090175Y0068531D03*
X0090175Y0068581D03*
X0090175Y0068631D03*
X0095775Y0067231D03*
X0096175Y0071781D03*
X0098925Y0072631D03*
X0104625Y0072631D03*
X0107375Y0071781D03*
X0110575Y0067231D03*
X0112625Y0069831D03*
X0105225Y0065331D03*
X0103225Y0064831D03*
X0103225Y0064781D03*
X0103275Y0064631D03*
X0103325Y0064481D03*
X0102575Y0064681D03*
X0102575Y0064731D03*
X0102525Y0064581D03*
X0102525Y0064531D03*
X0102475Y0064431D03*
X0102175Y0063381D03*
X0102925Y0065781D03*
D206*
X0102900Y0065731D03*
X0102900Y0065681D03*
X0102600Y0064831D03*
X0102600Y0064781D03*
X0102550Y0064631D03*
X0102500Y0064481D03*
X0101850Y0064481D03*
X0101850Y0064431D03*
X0101800Y0064531D03*
X0101800Y0064581D03*
X0101800Y0064631D03*
X0101750Y0064731D03*
X0101750Y0064781D03*
X0101700Y0064881D03*
X0101700Y0064931D03*
X0101650Y0065081D03*
X0103250Y0064731D03*
X0103250Y0064681D03*
X0103300Y0064581D03*
X0103300Y0064531D03*
X0104000Y0064531D03*
X0104000Y0064481D03*
X0104050Y0064631D03*
X0104050Y0064681D03*
X0104100Y0064831D03*
X0104100Y0064881D03*
X0104150Y0064981D03*
X0104150Y0065031D03*
X0104200Y0065181D03*
X0104950Y0064231D03*
X0104950Y0064181D03*
X0104950Y0064131D03*
X0104950Y0064081D03*
X0103650Y0063431D03*
X0103650Y0063381D03*
X0102150Y0063431D03*
X0100650Y0066931D03*
X0102100Y0069231D03*
X0103900Y0069831D03*
X0104650Y0068781D03*
X0104650Y0068731D03*
X0104650Y0068681D03*
X0104650Y0068381D03*
X0104650Y0068331D03*
X0104650Y0068281D03*
X0103900Y0067231D03*
X0105650Y0065931D03*
X0106450Y0065081D03*
X0106450Y0065031D03*
X0106450Y0064981D03*
X0106450Y0064331D03*
X0106450Y0064281D03*
X0106450Y0063381D03*
X0109200Y0064231D03*
X0109200Y0064281D03*
X0109200Y0064931D03*
X0109200Y0064981D03*
X0109200Y0065031D03*
X0110500Y0063931D03*
X0112700Y0067231D03*
X0111900Y0068131D03*
X0111900Y0068931D03*
X0111900Y0068981D03*
X0111100Y0067881D03*
X0110600Y0069831D03*
X0108100Y0069831D03*
X0107050Y0069831D03*
X0105600Y0069831D03*
X0107050Y0067231D03*
X0108100Y0067231D03*
X0113350Y0068831D03*
X0113350Y0068881D03*
X0113350Y0068931D03*
X0113350Y0068981D03*
X0107350Y0086331D03*
X0096200Y0086331D03*
X0097400Y0069831D03*
X0097400Y0069781D03*
X0097400Y0069731D03*
X0097400Y0068831D03*
X0097400Y0068781D03*
X0097400Y0068731D03*
X0097400Y0068681D03*
X0097400Y0068631D03*
X0097400Y0068581D03*
X0097400Y0068531D03*
X0097400Y0068481D03*
X0097400Y0068431D03*
X0097400Y0068381D03*
X0097400Y0068331D03*
X0097400Y0068281D03*
X0097400Y0068231D03*
X0097400Y0068181D03*
X0097400Y0068131D03*
X0097400Y0068081D03*
X0097400Y0068031D03*
X0097400Y0067981D03*
X0097400Y0067931D03*
X0097400Y0067881D03*
X0097400Y0067831D03*
X0097400Y0067781D03*
X0097400Y0067731D03*
X0097400Y0067681D03*
X0097400Y0067631D03*
X0097400Y0067581D03*
X0097400Y0067531D03*
X0097400Y0067481D03*
X0097400Y0067431D03*
X0097400Y0067381D03*
X0097400Y0067331D03*
X0097400Y0067281D03*
X0097400Y0067231D03*
X0095650Y0065931D03*
X0094950Y0064231D03*
X0094950Y0064181D03*
X0094950Y0064131D03*
X0094950Y0064081D03*
X0094950Y0064031D03*
X0094950Y0068231D03*
X0094950Y0068881D03*
X0095000Y0069031D03*
X0094100Y0068531D03*
X0092600Y0069831D03*
X0090900Y0069831D03*
X0090200Y0068981D03*
X0090200Y0068931D03*
X0090200Y0068881D03*
X0090200Y0068831D03*
X0090200Y0068781D03*
X0090200Y0068731D03*
X0090200Y0068681D03*
X0090200Y0068381D03*
X0090200Y0068331D03*
X0090200Y0068281D03*
X0090200Y0068231D03*
X0090200Y0068181D03*
X0090200Y0068131D03*
X0090200Y0068081D03*
D207*
X0090925Y0067631D03*
X0090925Y0069431D03*
X0093175Y0069681D03*
X0093175Y0067381D03*
X0093175Y0065781D03*
X0095875Y0064781D03*
X0095875Y0063431D03*
X0098025Y0065581D03*
X0100075Y0065781D03*
X0100075Y0063481D03*
X0101525Y0067481D03*
X0101675Y0068481D03*
X0101625Y0068531D03*
X0101575Y0068581D03*
X0101525Y0068631D03*
X0101625Y0069581D03*
X0103875Y0069431D03*
X0103875Y0067631D03*
X0105725Y0065631D03*
X0105875Y0064781D03*
X0105875Y0063431D03*
X0108025Y0065581D03*
X0106525Y0067381D03*
X0108675Y0069531D03*
X0108675Y0069681D03*
X0110575Y0069481D03*
X0110575Y0067581D03*
X0110025Y0063631D03*
X0097975Y0069681D03*
X0095725Y0069431D03*
D208*
X0098800Y0072831D03*
X0101600Y0069781D03*
X0101550Y0067281D03*
X0102900Y0065131D03*
X0102900Y0065081D03*
X0103650Y0064081D03*
X0103650Y0064031D03*
X0102150Y0064031D03*
X0102150Y0064081D03*
X0100450Y0063931D03*
X0099750Y0063431D03*
X0105700Y0065881D03*
X0109950Y0065831D03*
X0104750Y0072831D03*
X0107300Y0086181D03*
X0096250Y0086181D03*
D209*
X0095700Y0069681D03*
X0102150Y0064381D03*
X0102150Y0064331D03*
X0103650Y0064381D03*
X0110000Y0063431D03*
X0109950Y0065781D03*
X0112700Y0067331D03*
X0112650Y0069681D03*
D210*
X0112650Y0069381D03*
X0112700Y0067581D03*
X0109950Y0065481D03*
X0108050Y0065631D03*
X0105800Y0065381D03*
X0105700Y0065581D03*
X0105850Y0064731D03*
X0105850Y0063481D03*
X0103900Y0067681D03*
X0103900Y0069381D03*
X0101650Y0069531D03*
X0100050Y0065731D03*
X0098050Y0065631D03*
X0100050Y0063531D03*
X0095850Y0063481D03*
X0095800Y0065381D03*
X0095700Y0065631D03*
X0095800Y0067581D03*
X0095700Y0069381D03*
X0096300Y0072281D03*
X0098000Y0069631D03*
X0093200Y0069631D03*
X0093200Y0067431D03*
X0093200Y0065731D03*
X0107250Y0072281D03*
X0108700Y0069631D03*
X0108700Y0069581D03*
D211*
X0110025Y0063481D03*
X0112625Y0069631D03*
X0101925Y0068281D03*
X0095775Y0067381D03*
X0095725Y0069631D03*
X0090925Y0069631D03*
X0090925Y0067431D03*
X0096275Y0086031D03*
X0107275Y0086031D03*
D212*
X0107250Y0072331D03*
X0103900Y0069331D03*
X0103900Y0067731D03*
X0105700Y0065531D03*
X0105750Y0065481D03*
X0105800Y0064681D03*
X0105800Y0063581D03*
X0106450Y0067481D03*
X0109950Y0065381D03*
X0110000Y0063831D03*
X0110050Y0063731D03*
X0110600Y0067681D03*
X0110500Y0067831D03*
X0110500Y0069231D03*
X0110600Y0069381D03*
X0112650Y0069281D03*
X0112700Y0067681D03*
X0101650Y0069481D03*
X0101600Y0069381D03*
X0101550Y0069331D03*
X0100000Y0065631D03*
X0100000Y0063631D03*
X0095800Y0063531D03*
X0095800Y0064681D03*
X0095700Y0065531D03*
X0095800Y0067631D03*
X0095750Y0067731D03*
X0095700Y0067781D03*
X0095700Y0069281D03*
X0098050Y0069531D03*
X0096300Y0072331D03*
X0093250Y0069531D03*
X0093250Y0067531D03*
X0093250Y0065631D03*
D213*
X0093500Y0065881D03*
X0094050Y0065131D03*
X0096400Y0065281D03*
X0097500Y0065131D03*
X0097500Y0065081D03*
X0097500Y0065031D03*
X0096400Y0063981D03*
X0095050Y0067931D03*
X0094050Y0067981D03*
X0094050Y0068031D03*
X0094050Y0068081D03*
X0094050Y0068981D03*
X0094050Y0069031D03*
X0094050Y0069081D03*
X0095050Y0069131D03*
X0096400Y0069081D03*
X0096450Y0068831D03*
X0097450Y0069031D03*
X0097450Y0069081D03*
X0098850Y0069031D03*
X0098850Y0068981D03*
X0100900Y0068931D03*
X0102300Y0068181D03*
X0102300Y0067931D03*
X0103200Y0067981D03*
X0103200Y0069081D03*
X0104550Y0069131D03*
X0104600Y0069081D03*
X0104600Y0069031D03*
X0104600Y0068031D03*
X0104600Y0067981D03*
X0104550Y0067931D03*
X0105600Y0068081D03*
X0105600Y0068131D03*
X0105650Y0068031D03*
X0105650Y0067981D03*
X0107050Y0068081D03*
X0107050Y0068131D03*
X0108150Y0069031D03*
X0109800Y0069031D03*
X0109800Y0068981D03*
X0109850Y0069081D03*
X0109800Y0068081D03*
X0109800Y0068031D03*
X0109850Y0067981D03*
X0109300Y0065231D03*
X0109300Y0064031D03*
X0110650Y0065131D03*
X0110650Y0065181D03*
X0110600Y0065231D03*
X0112000Y0067931D03*
X0111950Y0067981D03*
X0111950Y0069081D03*
X0113300Y0069131D03*
X0107500Y0065081D03*
X0107500Y0065031D03*
X0107500Y0064981D03*
X0106400Y0065281D03*
X0106400Y0063981D03*
X0104350Y0065681D03*
X0104400Y0065831D03*
X0104400Y0065881D03*
X0102900Y0065581D03*
X0102900Y0065531D03*
X0101500Y0065581D03*
X0101450Y0065781D03*
X0100600Y0065131D03*
X0100600Y0065081D03*
X0100600Y0064181D03*
X0100600Y0064131D03*
X0100600Y0064081D03*
X0099250Y0064031D03*
X0099200Y0064081D03*
X0099200Y0064131D03*
X0099200Y0064181D03*
X0099200Y0065081D03*
X0099200Y0065131D03*
X0099750Y0065881D03*
X0102150Y0063581D03*
X0103650Y0063581D03*
X0103650Y0063631D03*
X0103650Y0063531D03*
X0104650Y0072681D03*
X0098900Y0072681D03*
X0092650Y0069031D03*
X0092650Y0068981D03*
X0092650Y0068931D03*
X0092650Y0068131D03*
X0092650Y0068081D03*
X0092650Y0068031D03*
X0091650Y0068081D03*
X0091600Y0067981D03*
X0091650Y0068981D03*
X0091600Y0069081D03*
X0090250Y0069081D03*
X0090250Y0067981D03*
X0092650Y0065131D03*
X0092650Y0065081D03*
D214*
X0093225Y0065681D03*
X0093225Y0067481D03*
X0093225Y0069581D03*
X0090925Y0069381D03*
X0090925Y0069331D03*
X0090925Y0067731D03*
X0090925Y0067681D03*
X0095725Y0069331D03*
X0098025Y0069581D03*
X0098075Y0065731D03*
X0098075Y0065681D03*
X0100025Y0065681D03*
X0100025Y0063581D03*
X0101525Y0067531D03*
X0101525Y0069281D03*
X0105775Y0065431D03*
X0105825Y0063531D03*
X0108075Y0065681D03*
X0108075Y0065731D03*
X0109975Y0065431D03*
X0109925Y0063881D03*
X0110025Y0063681D03*
X0110575Y0067631D03*
X0110575Y0069431D03*
X0112625Y0069331D03*
X0112625Y0067781D03*
X0112725Y0067631D03*
X0106475Y0067431D03*
X0095775Y0065431D03*
X0095675Y0065581D03*
X0095825Y0064731D03*
X0096325Y0085831D03*
X0107225Y0085831D03*
D215*
X0103900Y0069581D03*
X0103900Y0067481D03*
X0106000Y0064881D03*
X0110000Y0063531D03*
X0112700Y0067431D03*
X0112650Y0069581D03*
X0108550Y0069231D03*
X0095700Y0069581D03*
X0096000Y0064881D03*
X0090900Y0069581D03*
D216*
X0090925Y0069281D03*
X0090925Y0069231D03*
X0090925Y0067831D03*
X0090925Y0067781D03*
X0093275Y0067581D03*
X0093275Y0069481D03*
X0095775Y0067681D03*
X0095725Y0065481D03*
X0095775Y0064631D03*
X0095775Y0063631D03*
X0095775Y0063581D03*
X0093275Y0065531D03*
X0093275Y0065581D03*
X0098075Y0069431D03*
X0098075Y0069481D03*
X0099975Y0065581D03*
X0099975Y0065531D03*
X0099975Y0063681D03*
X0101625Y0069431D03*
X0103875Y0069281D03*
X0103875Y0067781D03*
X0106425Y0067581D03*
X0106425Y0067531D03*
X0105775Y0064631D03*
X0105775Y0064581D03*
X0105775Y0063631D03*
X0110025Y0063781D03*
X0110575Y0067731D03*
X0110525Y0067781D03*
X0110525Y0069281D03*
X0110575Y0069331D03*
X0112675Y0067731D03*
X0107225Y0085781D03*
X0096325Y0085781D03*
D217*
X0096275Y0072231D03*
X0095725Y0069481D03*
X0097975Y0065481D03*
X0095925Y0064831D03*
X0090925Y0067581D03*
X0090925Y0069481D03*
X0101425Y0068731D03*
X0101775Y0068381D03*
X0105725Y0065681D03*
X0105925Y0064831D03*
X0107975Y0065431D03*
X0107975Y0065481D03*
X0110025Y0063581D03*
X0110575Y0067531D03*
X0110575Y0069531D03*
X0108625Y0069431D03*
X0108625Y0069381D03*
X0107275Y0072231D03*
X0112625Y0069481D03*
D218*
X0112025Y0069181D03*
X0113275Y0069181D03*
X0112025Y0067881D03*
X0110575Y0065281D03*
X0109325Y0065281D03*
X0108375Y0065881D03*
X0107525Y0065181D03*
X0107525Y0065131D03*
X0106175Y0067281D03*
X0105675Y0067931D03*
X0107025Y0067981D03*
X0107025Y0068031D03*
X0108175Y0069081D03*
X0108175Y0069131D03*
X0108975Y0069781D03*
X0109875Y0069131D03*
X0109875Y0067931D03*
X0109325Y0063981D03*
X0105025Y0063931D03*
X0105025Y0064331D03*
X0102925Y0065481D03*
X0102175Y0063681D03*
X0102175Y0063631D03*
X0100575Y0064031D03*
X0100575Y0065181D03*
X0099275Y0065231D03*
X0099225Y0065181D03*
X0098375Y0065881D03*
X0097525Y0065181D03*
X0099275Y0063981D03*
X0102275Y0067881D03*
X0103225Y0067931D03*
X0103225Y0069131D03*
X0103275Y0069181D03*
X0100975Y0069231D03*
X0098825Y0069081D03*
X0098775Y0069131D03*
X0098275Y0069781D03*
X0097475Y0069131D03*
X0096375Y0069131D03*
X0096325Y0069181D03*
X0095075Y0069181D03*
X0094025Y0069131D03*
X0093975Y0069181D03*
X0094025Y0067931D03*
X0093525Y0067281D03*
X0092675Y0067981D03*
X0092675Y0069081D03*
X0092675Y0069131D03*
X0091575Y0069131D03*
X0091575Y0067931D03*
X0090275Y0067931D03*
X0090275Y0069131D03*
X0092675Y0065181D03*
X0094025Y0065181D03*
X0095025Y0064331D03*
X0095025Y0063931D03*
X0096225Y0086281D03*
X0107325Y0086281D03*
D219*
X0107250Y0072381D03*
X0103900Y0069231D03*
X0103900Y0067831D03*
X0101500Y0067581D03*
X0099950Y0065481D03*
X0099950Y0065431D03*
X0099950Y0063831D03*
X0099950Y0063781D03*
X0099950Y0063731D03*
X0095750Y0063681D03*
X0095750Y0064531D03*
X0095750Y0064581D03*
X0093300Y0065481D03*
X0093300Y0067631D03*
X0093300Y0067681D03*
X0093300Y0069381D03*
X0093300Y0069431D03*
X0096300Y0072381D03*
X0098100Y0069381D03*
X0098100Y0069331D03*
X0105750Y0064531D03*
X0105750Y0063731D03*
X0105750Y0063681D03*
X0106400Y0067631D03*
D220*
X0106375Y0067681D03*
X0106375Y0067731D03*
X0106375Y0067781D03*
X0105725Y0064481D03*
X0105725Y0064431D03*
X0105725Y0064381D03*
X0105725Y0063831D03*
X0105725Y0063781D03*
X0099925Y0063881D03*
X0099925Y0065331D03*
X0099925Y0065381D03*
X0098125Y0069231D03*
X0098125Y0069281D03*
X0095725Y0064481D03*
X0095725Y0064431D03*
X0095725Y0063781D03*
X0095725Y0063731D03*
X0093325Y0065331D03*
X0093325Y0065381D03*
X0093325Y0065431D03*
X0093325Y0067731D03*
X0093325Y0067781D03*
X0093325Y0067831D03*
X0093325Y0069231D03*
X0093325Y0069281D03*
X0093325Y0069331D03*
D221*
X0092725Y0069181D03*
X0092725Y0067881D03*
X0092725Y0065281D03*
X0093975Y0065281D03*
X0095175Y0067831D03*
X0096275Y0069231D03*
X0095725Y0069781D03*
X0097525Y0069181D03*
X0100925Y0067831D03*
X0102225Y0067831D03*
X0102925Y0065331D03*
X0102175Y0063831D03*
X0102175Y0063781D03*
X0103675Y0063831D03*
X0103875Y0067281D03*
X0105725Y0067881D03*
X0106325Y0065331D03*
X0109425Y0065331D03*
X0110575Y0067281D03*
X0109925Y0067881D03*
X0109925Y0069181D03*
X0110575Y0069781D03*
X0112625Y0069781D03*
X0108225Y0069181D03*
X0100525Y0065281D03*
X0090925Y0067281D03*
X0090925Y0069781D03*
X0096225Y0086231D03*
X0107325Y0086231D03*
D222*
X0107200Y0085731D03*
X0096350Y0085731D03*
X0101500Y0067631D03*
X0105700Y0063881D03*
X0106350Y0067831D03*
X0112600Y0068281D03*
X0112600Y0068331D03*
X0112600Y0068381D03*
X0112600Y0068431D03*
X0112600Y0068481D03*
X0112600Y0068531D03*
X0112600Y0068581D03*
X0112600Y0068631D03*
X0112600Y0068681D03*
X0112600Y0068731D03*
X0112600Y0068781D03*
X0095700Y0064381D03*
X0095700Y0063881D03*
X0095700Y0063831D03*
D223*
X0097600Y0065281D03*
X0098350Y0065831D03*
X0099750Y0065831D03*
X0102150Y0063931D03*
X0102150Y0063881D03*
X0103650Y0063881D03*
X0103650Y0063931D03*
X0102900Y0065231D03*
X0102900Y0065281D03*
X0102200Y0068231D03*
X0103900Y0069781D03*
X0106950Y0067881D03*
X0108350Y0065831D03*
X0107600Y0065281D03*
X0110500Y0065331D03*
X0112100Y0067831D03*
X0112700Y0067281D03*
X0107350Y0071931D03*
X0096200Y0071931D03*
X0093500Y0065831D03*
D224*
X0096175Y0071731D03*
X0098975Y0072581D03*
X0102175Y0069181D03*
X0099725Y0065931D03*
X0098375Y0065931D03*
X0104575Y0072581D03*
X0107375Y0071731D03*
X0106175Y0067231D03*
X0108375Y0065931D03*
X0110525Y0063981D03*
X0113225Y0067881D03*
D225*
X0113250Y0067931D03*
X0110550Y0064031D03*
X0105200Y0065281D03*
X0107400Y0071681D03*
X0104550Y0072531D03*
X0099000Y0072531D03*
X0096150Y0071681D03*
X0096300Y0067931D03*
X0095200Y0065281D03*
D226*
X0095200Y0065231D03*
X0096300Y0067981D03*
X0102200Y0069081D03*
X0105200Y0065231D03*
X0109150Y0069181D03*
X0113250Y0067981D03*
X0110550Y0064081D03*
D227*
X0108375Y0065781D03*
X0107325Y0071981D03*
X0102925Y0065031D03*
X0103675Y0064131D03*
X0102175Y0064131D03*
X0098375Y0065781D03*
X0095675Y0065881D03*
X0096225Y0071981D03*
X0090925Y0067331D03*
X0112625Y0069731D03*
D228*
X0113250Y0068031D03*
X0110550Y0064131D03*
X0108550Y0065231D03*
X0105200Y0065181D03*
X0109150Y0069131D03*
X0107400Y0071631D03*
X0096150Y0071631D03*
X0096300Y0068031D03*
X0095200Y0065181D03*
D229*
X0095700Y0069731D03*
X0098750Y0072881D03*
X0103900Y0069731D03*
X0103900Y0067331D03*
X0102900Y0064981D03*
X0102900Y0064931D03*
X0103650Y0064231D03*
X0103650Y0064181D03*
X0102150Y0064181D03*
X0102150Y0064231D03*
X0104800Y0072881D03*
X0110600Y0067331D03*
X0107300Y0086131D03*
X0096250Y0086131D03*
X0090900Y0069731D03*
D230*
X0095775Y0067331D03*
X0096225Y0072031D03*
X0102175Y0064281D03*
X0102925Y0064881D03*
X0103675Y0064331D03*
X0103675Y0064281D03*
X0107325Y0072031D03*
X0110575Y0069731D03*
D231*
X0109950Y0064881D03*
X0109950Y0064831D03*
X0109950Y0064781D03*
X0109950Y0064731D03*
X0109950Y0064681D03*
X0109950Y0064631D03*
X0109950Y0064581D03*
X0109950Y0064531D03*
X0109950Y0064481D03*
X0109950Y0064431D03*
X0109950Y0064381D03*
X0101500Y0067731D03*
X0095700Y0068381D03*
X0095700Y0068431D03*
X0095700Y0068481D03*
X0095700Y0068531D03*
X0095700Y0068581D03*
X0095700Y0068631D03*
X0095700Y0068681D03*
X0096350Y0085681D03*
X0107200Y0085681D03*
D232*
X0107275Y0086081D03*
X0096275Y0086081D03*
X0101575Y0069731D03*
X0103875Y0069681D03*
X0103875Y0067381D03*
X0105725Y0065831D03*
X0103675Y0064431D03*
X0110575Y0067381D03*
X0110575Y0069681D03*
X0095675Y0065831D03*
X0090925Y0067381D03*
X0090925Y0069681D03*
D233*
X0098525Y0065231D03*
X0100825Y0068081D03*
X0099025Y0072481D03*
X0104525Y0072481D03*
X0111125Y0069031D03*
X0111125Y0068031D03*
D234*
X0111125Y0067981D03*
X0111125Y0069081D03*
X0108525Y0065281D03*
X0100825Y0068031D03*
X0098525Y0065281D03*
X0096175Y0086481D03*
X0107375Y0086481D03*
D235*
X0107350Y0086381D03*
X0096200Y0086381D03*
X0095700Y0069831D03*
X0096300Y0067881D03*
X0095200Y0065331D03*
X0093500Y0067231D03*
X0093500Y0069831D03*
X0098300Y0069831D03*
X0100850Y0067931D03*
X0102900Y0065881D03*
X0102900Y0065831D03*
X0109950Y0065931D03*
X0111100Y0069181D03*
X0109000Y0069831D03*
D236*
X0108575Y0069281D03*
X0107275Y0072181D03*
X0110575Y0069581D03*
X0110575Y0067481D03*
X0109975Y0065631D03*
X0107925Y0065331D03*
X0105725Y0065731D03*
X0101825Y0068331D03*
X0101375Y0068781D03*
X0097925Y0065331D03*
X0095775Y0067481D03*
X0095725Y0069531D03*
X0096275Y0072181D03*
X0112625Y0069531D03*
D237*
X0112700Y0067481D03*
X0109950Y0065581D03*
X0107950Y0065381D03*
X0108600Y0069331D03*
X0103900Y0069531D03*
X0103900Y0067531D03*
X0101550Y0067431D03*
X0101600Y0069631D03*
X0097950Y0065431D03*
X0097950Y0065381D03*
X0095700Y0065731D03*
X0090900Y0067531D03*
X0090900Y0069531D03*
X0096300Y0085931D03*
X0107250Y0085931D03*
D238*
X0107250Y0085881D03*
X0096300Y0085881D03*
X0103900Y0069481D03*
X0103900Y0067581D03*
X0101700Y0068431D03*
X0101500Y0068681D03*
X0098000Y0065531D03*
X0095700Y0065681D03*
X0095800Y0067531D03*
X0108000Y0065531D03*
X0109950Y0065531D03*
X0108650Y0069481D03*
X0112650Y0069431D03*
X0112700Y0067531D03*
D239*
X0109950Y0065681D03*
X0105700Y0065781D03*
X0103900Y0067431D03*
X0103900Y0069631D03*
X0107300Y0072131D03*
X0096250Y0072131D03*
X0095700Y0065781D03*
D240*
X0096250Y0072081D03*
X0101250Y0068831D03*
X0101550Y0067331D03*
X0107300Y0072081D03*
X0109950Y0065731D03*
X0112700Y0067381D03*
D241*
X0111100Y0067931D03*
X0111100Y0069131D03*
X0093500Y0065931D03*
D242*
X0095775Y0067431D03*
X0090925Y0067481D03*
X0101575Y0067381D03*
X0101625Y0069681D03*
X0110575Y0069631D03*
X0110575Y0067431D03*
X0107275Y0085981D03*
X0096275Y0085981D03*
D243*
X0096325Y0072431D03*
X0095725Y0068781D03*
X0095725Y0068731D03*
X0095725Y0068331D03*
X0095725Y0068281D03*
X0101475Y0067681D03*
X0101525Y0067781D03*
X0107225Y0072431D03*
D244*
X0102175Y0069131D03*
X0100825Y0067981D03*
X0096175Y0086431D03*
X0107375Y0086431D03*
D245*
X0111125Y0068981D03*
X0111125Y0068081D03*
X0102225Y0069031D03*
X0100825Y0068131D03*
D246*
X0096325Y0072481D03*
X0107225Y0072481D03*
D247*
X0107200Y0072531D03*
X0096350Y0072531D03*
D248*
X0096350Y0072581D03*
X0107200Y0072581D03*
D249*
X0107175Y0072631D03*
X0101775Y0088281D03*
X0096375Y0072631D03*
D250*
X0096375Y0072681D03*
X0101775Y0087981D03*
X0101775Y0088031D03*
X0101775Y0088081D03*
X0101775Y0088131D03*
X0101775Y0088181D03*
X0101775Y0088231D03*
X0107175Y0072681D03*
D251*
X0107150Y0072731D03*
X0096400Y0072731D03*
D252*
X0096400Y0072781D03*
X0107150Y0072781D03*
D253*
X0107125Y0072831D03*
X0096425Y0072831D03*
X0101775Y0086931D03*
X0101775Y0086981D03*
X0101775Y0087031D03*
X0101775Y0087081D03*
X0101775Y0087131D03*
D254*
X0101775Y0086881D03*
X0101775Y0086831D03*
X0101775Y0086781D03*
X0101775Y0086731D03*
X0101775Y0086681D03*
X0096425Y0072881D03*
X0107125Y0072881D03*
D255*
X0106500Y0072931D03*
X0097050Y0072931D03*
D256*
X0097025Y0072981D03*
X0106525Y0072981D03*
D257*
X0106525Y0073031D03*
X0105575Y0075381D03*
X0097975Y0075381D03*
X0097025Y0073031D03*
X0101775Y0085581D03*
D258*
X0098000Y0075531D03*
X0098000Y0075481D03*
X0098000Y0075431D03*
X0097950Y0075331D03*
X0097900Y0075281D03*
X0097900Y0075231D03*
X0097000Y0073081D03*
X0105550Y0075431D03*
X0105550Y0075481D03*
X0105550Y0075531D03*
X0105600Y0075331D03*
X0105650Y0075281D03*
X0105650Y0075231D03*
X0105700Y0075181D03*
X0106550Y0073081D03*
D259*
X0106550Y0073131D03*
X0105900Y0074781D03*
X0105850Y0074881D03*
X0105800Y0074981D03*
X0105550Y0075631D03*
X0098000Y0075631D03*
X0097750Y0074981D03*
X0097700Y0074881D03*
X0097650Y0074781D03*
X0097000Y0073131D03*
D260*
X0096975Y0073181D03*
X0097575Y0074631D03*
X0097575Y0074681D03*
X0097625Y0074731D03*
X0097675Y0074831D03*
X0098025Y0075681D03*
X0098025Y0075731D03*
X0105525Y0075731D03*
X0105525Y0075681D03*
X0105875Y0074831D03*
X0105925Y0074731D03*
X0105975Y0074681D03*
X0105975Y0074631D03*
X0106575Y0073181D03*
D261*
X0106600Y0073231D03*
X0106100Y0074431D03*
X0106050Y0074531D03*
X0106000Y0074581D03*
X0105550Y0075781D03*
X0098000Y0075781D03*
X0097550Y0074581D03*
X0097500Y0074531D03*
X0097450Y0074431D03*
X0096950Y0073231D03*
D262*
X0096950Y0073281D03*
X0097250Y0074081D03*
X0097300Y0074131D03*
X0097300Y0074181D03*
X0097350Y0074231D03*
X0098000Y0075881D03*
X0097450Y0077281D03*
X0097500Y0080881D03*
X0097550Y0080931D03*
X0106000Y0080931D03*
X0106050Y0080881D03*
X0106100Y0077281D03*
X0105550Y0075881D03*
X0106200Y0074231D03*
X0106250Y0074181D03*
X0106250Y0074131D03*
X0106300Y0074081D03*
X0106600Y0073281D03*
D263*
X0106625Y0073331D03*
X0106425Y0073831D03*
X0106375Y0073931D03*
X0106325Y0073981D03*
X0106325Y0074031D03*
X0105525Y0075931D03*
X0105525Y0075981D03*
X0106025Y0077181D03*
X0106075Y0077231D03*
X0105975Y0080981D03*
X0098025Y0075981D03*
X0098025Y0075931D03*
X0097525Y0077181D03*
X0097475Y0077231D03*
X0097225Y0074031D03*
X0097225Y0073981D03*
X0097175Y0073931D03*
X0097125Y0073831D03*
X0096925Y0073331D03*
X0097575Y0080981D03*
D264*
X0097350Y0077331D03*
X0097150Y0073881D03*
X0097100Y0073781D03*
X0097050Y0073731D03*
X0097050Y0073681D03*
X0096950Y0073381D03*
X0106200Y0077331D03*
X0106400Y0073881D03*
X0106450Y0073781D03*
X0106500Y0073731D03*
X0106500Y0073681D03*
X0106600Y0073381D03*
D265*
X0106625Y0073431D03*
X0106625Y0073481D03*
X0106575Y0073531D03*
X0106575Y0073581D03*
X0106525Y0073631D03*
X0105525Y0076031D03*
X0105525Y0076081D03*
X0105925Y0077081D03*
X0105975Y0077131D03*
X0106175Y0080831D03*
X0105925Y0081031D03*
X0105875Y0081081D03*
X0101775Y0085481D03*
X0097675Y0081081D03*
X0097625Y0081031D03*
X0097375Y0080831D03*
X0097575Y0077131D03*
X0097625Y0077081D03*
X0098025Y0076081D03*
X0098025Y0076031D03*
X0097025Y0073631D03*
X0096975Y0073581D03*
X0096975Y0073531D03*
X0096925Y0073481D03*
X0096925Y0073431D03*
D266*
X0097375Y0074281D03*
X0097375Y0074331D03*
X0097425Y0074381D03*
X0097475Y0074481D03*
X0098025Y0075831D03*
X0105525Y0075831D03*
X0106075Y0074481D03*
X0106125Y0074381D03*
X0106175Y0074331D03*
X0106175Y0074281D03*
X0101775Y0085531D03*
D267*
X0098025Y0075581D03*
X0097875Y0075181D03*
X0097825Y0075131D03*
X0097825Y0075081D03*
X0097775Y0075031D03*
X0097725Y0074931D03*
X0105525Y0075581D03*
X0105725Y0075131D03*
X0105725Y0075081D03*
X0105775Y0075031D03*
X0105825Y0074931D03*
D268*
X0105550Y0076131D03*
X0105900Y0077031D03*
X0105850Y0081131D03*
X0097700Y0081131D03*
X0097650Y0077031D03*
X0098000Y0076131D03*
D269*
X0098025Y0076181D03*
X0098025Y0076231D03*
X0097725Y0076981D03*
X0097775Y0081181D03*
X0105775Y0081181D03*
X0105825Y0076981D03*
X0105525Y0076231D03*
X0105525Y0076181D03*
D270*
X0105525Y0076281D03*
X0105525Y0076331D03*
X0105775Y0076881D03*
X0106325Y0080781D03*
X0105725Y0081231D03*
X0105675Y0081281D03*
X0097875Y0081281D03*
X0097825Y0081231D03*
X0097225Y0080781D03*
X0097775Y0076881D03*
X0098025Y0076331D03*
X0098025Y0076281D03*
D271*
X0098000Y0076381D03*
X0097850Y0076831D03*
X0105550Y0076381D03*
X0105700Y0076831D03*
D272*
X0105675Y0076781D03*
X0105525Y0076481D03*
X0105525Y0076431D03*
X0105625Y0081331D03*
X0101775Y0085431D03*
X0097925Y0081331D03*
X0097875Y0076781D03*
X0098025Y0076481D03*
X0098025Y0076431D03*
D273*
X0098025Y0076531D03*
X0098025Y0076581D03*
X0097975Y0076631D03*
X0097975Y0076681D03*
X0097075Y0080731D03*
X0097975Y0081381D03*
X0105575Y0081381D03*
X0106475Y0080731D03*
X0106525Y0077431D03*
X0105575Y0076681D03*
X0105575Y0076631D03*
X0105525Y0076581D03*
X0105525Y0076531D03*
D274*
X0105600Y0076731D03*
X0097950Y0076731D03*
D275*
X0097750Y0076931D03*
X0097200Y0077381D03*
X0105800Y0076931D03*
X0106350Y0077381D03*
D276*
X0097050Y0077431D03*
D277*
X0096900Y0077481D03*
X0096900Y0080681D03*
X0098150Y0081481D03*
X0105400Y0081481D03*
X0106650Y0080681D03*
X0106650Y0077481D03*
D278*
X0106825Y0077531D03*
X0106775Y0080631D03*
X0096775Y0080631D03*
X0096725Y0077531D03*
D279*
X0096575Y0077581D03*
X0096625Y0080581D03*
X0106925Y0080581D03*
X0106975Y0077581D03*
D280*
X0107125Y0077631D03*
X0096425Y0077631D03*
D281*
X0096275Y0077681D03*
X0095875Y0078581D03*
X0095875Y0078631D03*
X0095875Y0078681D03*
X0095875Y0078731D03*
X0095875Y0078781D03*
X0095875Y0078831D03*
X0095875Y0078881D03*
X0095875Y0079331D03*
X0095875Y0079381D03*
X0095875Y0079431D03*
X0095875Y0079481D03*
X0095875Y0079531D03*
X0095875Y0079581D03*
X0107275Y0077681D03*
X0107675Y0078581D03*
X0107675Y0078631D03*
X0107675Y0078681D03*
X0107675Y0078731D03*
X0107675Y0078781D03*
X0107675Y0078831D03*
X0107675Y0078881D03*
X0107675Y0079331D03*
X0107675Y0079381D03*
X0107675Y0079431D03*
X0107675Y0079481D03*
X0107675Y0079531D03*
X0107675Y0079581D03*
D282*
X0107575Y0080081D03*
X0107575Y0080131D03*
X0107575Y0078031D03*
X0107575Y0077981D03*
X0107525Y0077881D03*
X0107475Y0077781D03*
X0107425Y0077731D03*
X0096125Y0077731D03*
X0096075Y0077781D03*
X0096025Y0077881D03*
X0095975Y0077981D03*
X0095975Y0078031D03*
X0095975Y0080081D03*
X0095975Y0080131D03*
D283*
X0096000Y0080181D03*
X0096000Y0080231D03*
X0096050Y0080281D03*
X0096050Y0080331D03*
X0096100Y0080381D03*
X0096000Y0077931D03*
X0096050Y0077831D03*
X0107500Y0077831D03*
X0107550Y0077931D03*
X0107550Y0080181D03*
X0107550Y0080231D03*
X0107500Y0080281D03*
X0107500Y0080331D03*
X0107450Y0080381D03*
D284*
X0107400Y0080431D03*
X0107600Y0080031D03*
X0107600Y0079981D03*
X0107600Y0078181D03*
X0107600Y0078131D03*
X0107600Y0078081D03*
X0095950Y0078081D03*
X0095950Y0078131D03*
X0095950Y0078181D03*
X0095950Y0079981D03*
X0095950Y0080031D03*
X0096150Y0080431D03*
D285*
X0095925Y0079931D03*
X0095925Y0079881D03*
X0095925Y0079831D03*
X0095925Y0078331D03*
X0095925Y0078281D03*
X0095925Y0078231D03*
X0107625Y0078231D03*
X0107625Y0078281D03*
X0107625Y0078331D03*
X0107625Y0079831D03*
X0107625Y0079881D03*
X0107625Y0079931D03*
D286*
X0107650Y0079781D03*
X0107650Y0079731D03*
X0107650Y0079681D03*
X0107650Y0079631D03*
X0107650Y0078531D03*
X0107650Y0078481D03*
X0107650Y0078431D03*
X0107650Y0078381D03*
X0095900Y0078381D03*
X0095900Y0078431D03*
X0095900Y0078481D03*
X0095900Y0078531D03*
X0095900Y0079631D03*
X0095900Y0079681D03*
X0095900Y0079731D03*
X0095900Y0079781D03*
D287*
X0095850Y0079281D03*
X0095850Y0079231D03*
X0095850Y0079181D03*
X0095850Y0079131D03*
X0095850Y0079081D03*
X0095850Y0079031D03*
X0095850Y0078981D03*
X0095850Y0078931D03*
X0096300Y0080481D03*
X0107250Y0080481D03*
X0107700Y0079281D03*
X0107700Y0079231D03*
X0107700Y0079181D03*
X0107700Y0079131D03*
X0107700Y0079081D03*
X0107700Y0079031D03*
X0107700Y0078981D03*
X0107700Y0078931D03*
D288*
X0107100Y0080531D03*
X0096450Y0080531D03*
D289*
X0098075Y0081431D03*
X0101775Y0085381D03*
X0105475Y0081431D03*
D290*
X0105275Y0081531D03*
X0098275Y0081531D03*
D291*
X0101775Y0081581D03*
X0101775Y0083281D03*
D292*
X0101775Y0083231D03*
X0101775Y0083181D03*
X0101775Y0081681D03*
X0101775Y0081631D03*
D293*
X0101775Y0081731D03*
X0101775Y0081781D03*
X0101775Y0081831D03*
X0101775Y0083131D03*
D294*
X0101775Y0083081D03*
X0101775Y0083031D03*
X0101775Y0081931D03*
X0101775Y0081881D03*
D295*
X0101775Y0081981D03*
X0101775Y0082031D03*
X0101775Y0082981D03*
D296*
X0101775Y0082931D03*
X0101775Y0082881D03*
X0101775Y0082181D03*
X0101775Y0082131D03*
X0101775Y0082081D03*
D297*
X0101775Y0082231D03*
X0101775Y0082281D03*
X0101775Y0082831D03*
D298*
X0101775Y0082781D03*
X0101775Y0082731D03*
X0101775Y0082381D03*
X0101775Y0082331D03*
D299*
X0101775Y0082431D03*
X0101775Y0082481D03*
X0101775Y0082531D03*
X0101775Y0082681D03*
D300*
X0101775Y0082631D03*
X0101775Y0082581D03*
D301*
X0101775Y0083331D03*
X0101775Y0083381D03*
D302*
X0101775Y0083431D03*
D303*
X0101775Y0083481D03*
D304*
X0101775Y0083531D03*
X0101775Y0083581D03*
D305*
X0101775Y0083631D03*
D306*
X0101775Y0083681D03*
X0101775Y0083731D03*
D307*
X0101775Y0083781D03*
D308*
X0101775Y0083831D03*
X0101775Y0083881D03*
D309*
X0101775Y0083931D03*
D310*
X0101775Y0083981D03*
X0101775Y0084031D03*
D311*
X0101775Y0084081D03*
X0101775Y0085131D03*
D312*
X0101775Y0085081D03*
X0101775Y0084181D03*
X0101775Y0084131D03*
D313*
X0101775Y0084231D03*
X0101775Y0085031D03*
D314*
X0101775Y0084981D03*
X0101775Y0084281D03*
D315*
X0101775Y0084331D03*
X0101775Y0084381D03*
X0101775Y0084931D03*
D316*
X0101775Y0084881D03*
X0101775Y0084431D03*
D317*
X0101775Y0084481D03*
X0101775Y0084531D03*
X0101775Y0084831D03*
D318*
X0101775Y0084781D03*
X0101775Y0084731D03*
X0101775Y0084631D03*
X0101775Y0084581D03*
D319*
X0101775Y0084681D03*
D320*
X0101775Y0086131D03*
X0101775Y0086181D03*
X0101775Y0086231D03*
X0101775Y0086281D03*
X0101775Y0086331D03*
X0096475Y0085181D03*
X0107075Y0085181D03*
D321*
X0101775Y0085181D03*
D322*
X0096450Y0085231D03*
X0107100Y0085231D03*
D323*
X0101775Y0085231D03*
D324*
X0096450Y0085281D03*
X0107100Y0085281D03*
D325*
X0101775Y0085281D03*
D326*
X0101775Y0087181D03*
X0101775Y0087231D03*
X0101775Y0087281D03*
X0101775Y0087331D03*
X0101775Y0087381D03*
X0101775Y0087431D03*
X0096425Y0085331D03*
X0107125Y0085331D03*
D327*
X0101775Y0085331D03*
D328*
X0101775Y0087481D03*
X0101775Y0087531D03*
X0101775Y0087581D03*
X0101775Y0087631D03*
X0101775Y0087681D03*
X0096425Y0085381D03*
X0107125Y0085381D03*
D329*
X0101775Y0087731D03*
X0101775Y0087781D03*
X0101775Y0087831D03*
X0101775Y0087881D03*
X0101775Y0087931D03*
X0096425Y0085431D03*
D330*
X0107150Y0085431D03*
D331*
X0107150Y0085481D03*
X0096400Y0085481D03*
D332*
X0096400Y0085531D03*
X0107150Y0085531D03*
D333*
X0107175Y0085581D03*
X0096375Y0085581D03*
D334*
X0096375Y0085631D03*
X0107175Y0085631D03*
D335*
X0101775Y0085631D03*
D336*
X0101775Y0085681D03*
D337*
X0101775Y0085731D03*
D338*
X0101775Y0085781D03*
D339*
X0101775Y0085831D03*
D340*
X0101775Y0085881D03*
X0101775Y0085931D03*
X0101775Y0085981D03*
X0101775Y0086031D03*
X0101775Y0086081D03*
D341*
X0101775Y0086381D03*
X0101775Y0086431D03*
X0101775Y0086481D03*
X0101775Y0086531D03*
X0101775Y0086581D03*
X0101775Y0086631D03*
M02*
