G75*
%MOIN*%
%OFA0B0*%
%FSLAX24Y24*%
%IPPOS*%
%LPD*%
%AMOC8*
5,1,8,0,0,1.08239X$1,22.5*
%
%ADD10R,0.0197X0.0197*%
%ADD11R,0.0984X0.1181*%
%ADD12R,0.0433X0.0394*%
%ADD13R,0.0250X0.0800*%
%ADD14C,0.0100*%
%ADD15C,0.0400*%
%ADD16C,0.0160*%
D10*
X003633Y008948D03*
X003633Y009223D03*
X003633Y009499D03*
X003633Y009774D03*
X003633Y010050D03*
X003633Y010326D03*
X003633Y010601D03*
X003633Y010877D03*
X003633Y011152D03*
X003633Y011428D03*
X003633Y011704D03*
X003633Y011979D03*
X003633Y012255D03*
X003633Y012530D03*
X003633Y012806D03*
X003908Y012806D03*
X004184Y012806D03*
X004460Y012806D03*
X004735Y012806D03*
X005011Y012806D03*
X005286Y012806D03*
X005562Y012806D03*
X005837Y012806D03*
X006113Y012806D03*
X006389Y012806D03*
X006664Y012806D03*
X006940Y012806D03*
X006940Y012530D03*
X006940Y012255D03*
X006940Y011979D03*
X006940Y011704D03*
X006940Y011428D03*
X006940Y011152D03*
X006940Y010877D03*
X006940Y010601D03*
X006940Y010326D03*
X006940Y010050D03*
X006940Y009774D03*
X006940Y009499D03*
X006940Y009223D03*
X006940Y008948D03*
X006664Y008948D03*
X006389Y008948D03*
X006113Y008948D03*
X005837Y008948D03*
X005562Y008948D03*
X005286Y008948D03*
X005011Y008948D03*
X004735Y008948D03*
X004460Y008948D03*
X004184Y008948D03*
X003908Y008948D03*
D11*
X004696Y010208D03*
X004696Y011586D03*
X005916Y011586D03*
X005916Y010208D03*
D12*
X004377Y006680D03*
X003708Y006680D03*
D13*
X003605Y005101D03*
X003133Y005101D03*
X002660Y005101D03*
X002208Y005101D03*
X002188Y003546D03*
X002660Y003546D03*
X003133Y003546D03*
X003605Y003566D03*
X004078Y003566D03*
X004078Y005101D03*
X006735Y005101D03*
X007188Y005101D03*
X007660Y005101D03*
X008133Y005101D03*
X008605Y005101D03*
X008605Y003566D03*
X008133Y003566D03*
X007660Y003546D03*
X007188Y003546D03*
X006715Y003546D03*
D14*
X006688Y003546D01*
X006314Y003920D01*
X006314Y006164D01*
X006127Y005865D02*
X006127Y003397D01*
X006538Y002985D01*
X007174Y002985D01*
X007174Y003546D01*
X007188Y003546D01*
X007660Y003546D02*
X007660Y002798D01*
X006351Y002798D01*
X005267Y003883D01*
X005267Y006389D01*
X004668Y006987D01*
X004668Y008109D01*
X004219Y008558D01*
X004219Y008932D01*
X004184Y008948D01*
X004460Y008948D02*
X004481Y008932D01*
X004481Y008558D01*
X004893Y008147D01*
X004893Y007885D01*
X005229Y007548D01*
X005566Y007735D02*
X005566Y005977D01*
X005454Y005865D01*
X005454Y004182D01*
X005790Y003845D01*
X005528Y003359D02*
X006276Y002611D01*
X008109Y002611D01*
X008109Y003546D01*
X008133Y003566D01*
X008605Y003566D02*
X008633Y003584D01*
X009007Y003958D01*
X009007Y006837D01*
X007586Y008259D01*
X007548Y008708D02*
X007548Y012597D01*
X007324Y012822D01*
X006987Y012822D01*
X006940Y012806D01*
X006912Y012822D01*
X006688Y012822D01*
X006664Y012806D01*
X006688Y012784D01*
X006688Y012373D01*
X006688Y012336D01*
X005940Y011587D01*
X005916Y011586D01*
X005940Y011550D01*
X005940Y010241D01*
X005916Y010208D01*
X005902Y010204D01*
X004743Y010204D01*
X004696Y010208D01*
X004668Y010204D01*
X004668Y009530D01*
X004032Y009530D01*
X004032Y009343D01*
X004032Y009530D02*
X003658Y009530D01*
X003633Y009499D01*
X003633Y009223D02*
X003621Y009194D01*
X003359Y009194D01*
X003359Y006426D01*
X003845Y005940D01*
X004145Y005940D01*
X004107Y006276D02*
X004481Y006276D01*
X004481Y003958D01*
X004107Y003584D01*
X004078Y003566D01*
X004070Y003546D01*
X003883Y003359D01*
X003883Y003097D01*
X003808Y003023D01*
X003135Y003023D01*
X003135Y003509D01*
X003133Y003546D01*
X002660Y003546D01*
X002200Y003546D02*
X002188Y003546D01*
X002200Y003546D02*
X002200Y002836D01*
X004070Y002836D01*
X004668Y003434D01*
X004668Y006389D01*
X004377Y006680D01*
X004107Y006276D02*
X003733Y006650D01*
X003708Y006680D01*
X003696Y006688D01*
X003658Y006725D01*
X003658Y008109D01*
X003696Y008109D01*
X003658Y008109D02*
X003658Y008932D01*
X003633Y008948D01*
X003908Y008948D02*
X003920Y008932D01*
X003920Y008371D01*
X004332Y007960D01*
X004780Y008521D02*
X005566Y007735D01*
X005940Y007885D02*
X005042Y008782D01*
X005042Y008932D01*
X005011Y008948D01*
X005286Y008948D02*
X005304Y008969D01*
X005304Y009082D01*
X005566Y009343D01*
X006501Y009343D01*
X006950Y008969D02*
X006940Y008948D01*
X006950Y008969D02*
X007174Y008969D01*
X007174Y012149D01*
X007099Y012223D01*
X006950Y012223D01*
X006940Y012255D01*
X006912Y012298D01*
X006763Y012298D01*
X006688Y012373D01*
X006940Y012530D02*
X006950Y012523D01*
X007361Y012523D01*
X007361Y008782D01*
X005977Y007399D01*
X005977Y006015D01*
X006127Y005865D01*
X006725Y005117D02*
X006735Y005101D01*
X006725Y005117D02*
X006725Y007885D01*
X007548Y008708D01*
X007062Y007698D02*
X008595Y006164D01*
X008595Y005117D01*
X008605Y005101D01*
X008133Y005101D02*
X008109Y005117D01*
X008109Y006127D01*
X007062Y007174D01*
X007062Y006688D02*
X007660Y006089D01*
X007660Y005101D01*
X007188Y005101D02*
X007174Y005117D01*
X007174Y006015D01*
X007062Y006127D01*
X006426Y008334D02*
X006052Y008334D01*
X005603Y008782D01*
X005603Y008895D01*
X005566Y008932D01*
X005562Y008948D01*
X004780Y008895D02*
X004780Y008521D01*
X004780Y008895D02*
X004743Y008932D01*
X004735Y008948D01*
X003097Y006538D02*
X002237Y005678D01*
X002237Y005117D01*
X002208Y005101D01*
X002660Y005101D02*
X002686Y005117D01*
X002686Y005641D01*
X003172Y006127D01*
X003097Y006538D02*
X003097Y012223D01*
X003621Y012223D01*
X003633Y012255D01*
X003621Y012523D02*
X003633Y012530D01*
X003621Y012523D02*
X002686Y012523D01*
X002686Y006613D01*
X005304Y003359D02*
X005528Y003359D01*
X005916Y011586D02*
X006127Y011812D01*
X006127Y012784D01*
X006113Y012806D01*
X006089Y012822D01*
X005865Y012822D01*
X005837Y012806D01*
X005828Y012822D01*
X005603Y012822D01*
X005562Y012806D01*
X005528Y012822D01*
X005304Y012822D01*
X005286Y012806D01*
X005267Y012822D01*
X005042Y012822D01*
X005011Y012806D01*
X005005Y012822D01*
X004780Y012822D01*
X004735Y012806D01*
X004706Y012784D01*
X004706Y011587D01*
X004696Y011586D01*
X004735Y012806D02*
X004706Y012822D01*
X004481Y012822D01*
X004460Y012806D01*
X004444Y012822D01*
X004219Y012822D01*
X004184Y012806D01*
X004145Y012822D01*
X003920Y012822D01*
X003908Y012806D01*
X003883Y012822D01*
X003658Y012822D01*
X003633Y012806D01*
D15*
X004032Y009343D03*
X003696Y008109D03*
X004332Y007960D03*
X005229Y007548D03*
X005940Y007885D03*
X006426Y008334D03*
X007062Y007698D03*
X007062Y007174D03*
X007062Y006688D03*
X007062Y006127D03*
X006314Y006164D03*
X007586Y008259D03*
X006501Y009343D03*
X004145Y005940D03*
X003172Y006127D03*
X002686Y006613D03*
X005304Y003359D03*
X005790Y003845D03*
D16*
X000740Y000740D02*
X000740Y012817D01*
X003374Y012817D01*
X003374Y012733D01*
X002599Y012733D01*
X002476Y012610D01*
X002476Y006912D01*
X002381Y006817D01*
X002326Y006685D01*
X002326Y006541D01*
X002381Y006409D01*
X002482Y006308D01*
X002544Y006282D01*
X002150Y005888D01*
X002027Y005765D01*
X002027Y005661D01*
X002016Y005661D01*
X001923Y005568D01*
X001923Y004742D01*
X001867Y004686D01*
X001767Y004445D01*
X001767Y004183D01*
X001867Y003942D01*
X001903Y003906D01*
X001903Y003080D01*
X001990Y002993D01*
X001990Y002749D01*
X002113Y002626D01*
X004157Y002626D01*
X004280Y002749D01*
X004878Y003347D01*
X004878Y006476D01*
X004755Y006599D01*
X004753Y006600D01*
X004753Y006605D01*
X005057Y006302D01*
X005057Y003796D01*
X005162Y003690D01*
X005100Y003664D01*
X004999Y003563D01*
X004944Y003431D01*
X004944Y003288D01*
X004999Y003155D01*
X005100Y003054D01*
X005232Y002999D01*
X005376Y002999D01*
X005508Y003054D01*
X005522Y003068D01*
X006066Y002524D01*
X006189Y002401D01*
X008196Y002401D01*
X008319Y002524D01*
X008319Y003006D01*
X008324Y003006D01*
X008369Y003051D01*
X008414Y003006D01*
X008796Y003006D01*
X008890Y003100D01*
X008890Y003544D01*
X009217Y003871D01*
X009217Y006924D01*
X009094Y007047D01*
X007946Y008196D01*
X007946Y008330D01*
X007891Y008463D01*
X007789Y008564D01*
X007727Y008590D01*
X007758Y008621D01*
X007758Y012684D01*
X007626Y012817D01*
X009620Y012817D01*
X009620Y000740D01*
X000740Y000740D01*
X000740Y000814D02*
X009620Y000814D01*
X009620Y000973D02*
X000740Y000973D01*
X000740Y001131D02*
X009620Y001131D01*
X009620Y001290D02*
X000740Y001290D01*
X000740Y001448D02*
X009620Y001448D01*
X009620Y001607D02*
X000740Y001607D01*
X000740Y001765D02*
X009620Y001765D01*
X009620Y001924D02*
X000740Y001924D01*
X000740Y002082D02*
X009620Y002082D01*
X009620Y002241D02*
X000740Y002241D01*
X000740Y002399D02*
X009620Y002399D01*
X009620Y002558D02*
X008319Y002558D01*
X008319Y002716D02*
X009620Y002716D01*
X009620Y002875D02*
X008319Y002875D01*
X008351Y003033D02*
X008387Y003033D01*
X008824Y003033D02*
X009620Y003033D01*
X009620Y003192D02*
X008890Y003192D01*
X008890Y003350D02*
X009620Y003350D01*
X009620Y003509D02*
X008890Y003509D01*
X009013Y003667D02*
X009620Y003667D01*
X009620Y003826D02*
X009172Y003826D01*
X009217Y003984D02*
X009620Y003984D01*
X009620Y004143D02*
X009217Y004143D01*
X009217Y004301D02*
X009620Y004301D01*
X009620Y004460D02*
X009217Y004460D01*
X009217Y004618D02*
X009620Y004618D01*
X009620Y004777D02*
X009217Y004777D01*
X009217Y004935D02*
X009620Y004935D01*
X009620Y005094D02*
X009217Y005094D01*
X009217Y005252D02*
X009620Y005252D01*
X009620Y005411D02*
X009217Y005411D01*
X009217Y005569D02*
X009620Y005569D01*
X009620Y005728D02*
X009217Y005728D01*
X009217Y005886D02*
X009620Y005886D01*
X009620Y006045D02*
X009217Y006045D01*
X009217Y006203D02*
X009620Y006203D01*
X009620Y006362D02*
X009217Y006362D01*
X009217Y006520D02*
X009620Y006520D01*
X009620Y006679D02*
X009217Y006679D01*
X009217Y006837D02*
X009620Y006837D01*
X009620Y006996D02*
X009146Y006996D01*
X008987Y007154D02*
X009620Y007154D01*
X009620Y007313D02*
X008829Y007313D01*
X008670Y007471D02*
X009620Y007471D01*
X009620Y007630D02*
X008512Y007630D01*
X008353Y007788D02*
X009620Y007788D01*
X009620Y007947D02*
X008195Y007947D01*
X008036Y008105D02*
X009620Y008105D01*
X009620Y008264D02*
X007946Y008264D01*
X007908Y008422D02*
X009620Y008422D01*
X009620Y008581D02*
X007749Y008581D01*
X007758Y008739D02*
X009620Y008739D01*
X009620Y008898D02*
X007758Y008898D01*
X007758Y009056D02*
X009620Y009056D01*
X009620Y009215D02*
X007758Y009215D01*
X007758Y009373D02*
X009620Y009373D01*
X009620Y009532D02*
X007758Y009532D01*
X007758Y009690D02*
X009620Y009690D01*
X009620Y009849D02*
X007758Y009849D01*
X007758Y010007D02*
X009620Y010007D01*
X009620Y010166D02*
X007758Y010166D01*
X007758Y010324D02*
X009620Y010324D01*
X009620Y010483D02*
X007758Y010483D01*
X007758Y010641D02*
X009620Y010641D01*
X009620Y010800D02*
X007758Y010800D01*
X007758Y010958D02*
X009620Y010958D01*
X009620Y011117D02*
X007758Y011117D01*
X007758Y011275D02*
X009620Y011275D01*
X009620Y011434D02*
X007758Y011434D01*
X007758Y011592D02*
X009620Y011592D01*
X009620Y011751D02*
X007758Y011751D01*
X007758Y011909D02*
X009620Y011909D01*
X009620Y012068D02*
X007758Y012068D01*
X007758Y012226D02*
X009620Y012226D01*
X009620Y012385D02*
X007758Y012385D01*
X007758Y012543D02*
X009620Y012543D01*
X009620Y012702D02*
X007741Y012702D01*
X006681Y012032D02*
X006681Y011815D01*
X006681Y009658D01*
X006572Y009703D01*
X006568Y009703D01*
X006568Y010864D01*
X006536Y010897D01*
X006568Y010929D01*
X006568Y011919D01*
X006681Y012032D01*
X006681Y011909D02*
X006568Y011909D01*
X006568Y011751D02*
X006681Y011751D01*
X006681Y011592D02*
X006568Y011592D01*
X006568Y011434D02*
X006681Y011434D01*
X006681Y011275D02*
X006568Y011275D01*
X006568Y011117D02*
X006681Y011117D01*
X006681Y010958D02*
X006568Y010958D01*
X006568Y010800D02*
X006681Y010800D01*
X006681Y010641D02*
X006568Y010641D01*
X006568Y010483D02*
X006681Y010483D01*
X006681Y010324D02*
X006568Y010324D01*
X006568Y010166D02*
X006681Y010166D01*
X006681Y010007D02*
X006568Y010007D01*
X006568Y009849D02*
X006681Y009849D01*
X006681Y009690D02*
X006605Y009690D01*
X006508Y008689D02*
X006775Y008689D01*
X006971Y008689D01*
X006757Y008475D01*
X006731Y008537D01*
X006630Y008639D01*
X006508Y008689D01*
X006344Y008689D02*
X006222Y008639D01*
X006133Y008550D01*
X005993Y008689D01*
X006344Y008689D01*
X006164Y008581D02*
X006102Y008581D01*
X006280Y008004D02*
X006282Y008000D01*
X006284Y008003D01*
X006280Y008004D01*
X006515Y007640D02*
X006187Y007312D01*
X006187Y006501D01*
X006242Y006524D01*
X006385Y006524D01*
X006515Y006470D01*
X006515Y007640D01*
X006515Y007630D02*
X006505Y007630D01*
X006515Y007471D02*
X006347Y007471D01*
X006188Y007313D02*
X006515Y007313D01*
X006515Y007154D02*
X006187Y007154D01*
X006187Y006996D02*
X006515Y006996D01*
X006515Y006837D02*
X006187Y006837D01*
X006187Y006679D02*
X006515Y006679D01*
X006515Y006520D02*
X006396Y006520D01*
X006232Y006520D02*
X006187Y006520D01*
X005776Y005919D02*
X005917Y005778D01*
X005917Y004183D01*
X005862Y004205D01*
X005727Y004205D01*
X005664Y004269D01*
X005664Y005778D01*
X005776Y005890D01*
X005776Y005919D01*
X005772Y005886D02*
X005809Y005886D01*
X005917Y005728D02*
X005664Y005728D01*
X005664Y005569D02*
X005917Y005569D01*
X005917Y005411D02*
X005664Y005411D01*
X005664Y005252D02*
X005917Y005252D01*
X005917Y005094D02*
X005664Y005094D01*
X005664Y004935D02*
X005917Y004935D01*
X005917Y004777D02*
X005664Y004777D01*
X005664Y004618D02*
X005917Y004618D01*
X005917Y004460D02*
X005664Y004460D01*
X005664Y004301D02*
X005917Y004301D01*
X006337Y003600D02*
X006337Y003484D01*
X006430Y003390D01*
X006430Y003507D01*
X006337Y003600D01*
X006337Y003509D02*
X006429Y003509D01*
X005875Y002716D02*
X004247Y002716D01*
X004406Y002875D02*
X005716Y002875D01*
X005558Y003033D02*
X005457Y003033D01*
X005151Y003033D02*
X004564Y003033D01*
X004723Y003192D02*
X004984Y003192D01*
X004944Y003350D02*
X004878Y003350D01*
X004878Y003509D02*
X004976Y003509D01*
X004878Y003667D02*
X005107Y003667D01*
X005057Y003826D02*
X004878Y003826D01*
X004878Y003984D02*
X005057Y003984D01*
X005057Y004143D02*
X004878Y004143D01*
X004878Y004301D02*
X005057Y004301D01*
X005057Y004460D02*
X004878Y004460D01*
X004878Y004618D02*
X005057Y004618D01*
X005057Y004777D02*
X004878Y004777D01*
X004878Y004935D02*
X005057Y004935D01*
X005057Y005094D02*
X004878Y005094D01*
X004878Y005252D02*
X005057Y005252D01*
X005057Y005411D02*
X004878Y005411D01*
X004878Y005569D02*
X005057Y005569D01*
X005057Y005728D02*
X004878Y005728D01*
X004878Y005886D02*
X005057Y005886D01*
X005057Y006045D02*
X004878Y006045D01*
X004878Y006203D02*
X005057Y006203D01*
X004997Y006362D02*
X004878Y006362D01*
X004838Y006520D02*
X004834Y006520D01*
X005115Y006837D02*
X005356Y006837D01*
X005356Y006679D02*
X005274Y006679D01*
X005354Y006599D02*
X004878Y007074D01*
X004878Y007455D01*
X004924Y007344D01*
X005025Y007243D01*
X005158Y007188D01*
X005301Y007188D01*
X005356Y007211D01*
X005356Y006596D01*
X005354Y006599D01*
X005356Y006996D02*
X004957Y006996D01*
X004878Y007154D02*
X005356Y007154D01*
X004956Y007313D02*
X004878Y007313D01*
X004458Y007313D02*
X003868Y007313D01*
X003868Y007471D02*
X004458Y007471D01*
X004403Y007600D02*
X004458Y007622D01*
X004458Y007037D01*
X004094Y007037D01*
X004042Y006985D01*
X003990Y007037D01*
X003868Y007037D01*
X003868Y007791D01*
X003900Y007804D01*
X003975Y007879D01*
X004026Y007756D01*
X004128Y007654D01*
X004260Y007600D01*
X004403Y007600D01*
X004188Y007630D02*
X003868Y007630D01*
X003868Y007788D02*
X004013Y007788D01*
X003868Y007154D02*
X004458Y007154D01*
X004053Y006996D02*
X004032Y006996D01*
X003763Y006323D02*
X003891Y006196D01*
X003889Y006193D01*
X003759Y006323D01*
X003763Y006323D01*
X003879Y006203D02*
X003884Y006203D01*
X003602Y005886D02*
X003440Y005886D01*
X003477Y005923D02*
X003503Y005985D01*
X003635Y005853D01*
X003758Y005730D01*
X003845Y005730D01*
X003914Y005661D01*
X003886Y005661D01*
X003841Y005616D01*
X003796Y005661D01*
X003414Y005661D01*
X003369Y005616D01*
X003324Y005661D01*
X003004Y005661D01*
X003109Y005767D01*
X003244Y005767D01*
X003376Y005822D01*
X003477Y005923D01*
X003848Y005728D02*
X003070Y005728D01*
X002465Y006203D02*
X000740Y006203D01*
X000740Y006045D02*
X002307Y006045D01*
X002148Y005886D02*
X000740Y005886D01*
X000740Y005728D02*
X002027Y005728D01*
X001924Y005569D02*
X000740Y005569D01*
X000740Y005411D02*
X001923Y005411D01*
X001923Y005252D02*
X000740Y005252D01*
X000740Y005094D02*
X001923Y005094D01*
X001923Y004935D02*
X000740Y004935D01*
X000740Y004777D02*
X001923Y004777D01*
X001839Y004618D02*
X000740Y004618D01*
X000740Y004460D02*
X001773Y004460D01*
X001767Y004301D02*
X000740Y004301D01*
X000740Y004143D02*
X001784Y004143D01*
X001849Y003984D02*
X000740Y003984D01*
X000740Y003826D02*
X001903Y003826D01*
X001903Y003667D02*
X000740Y003667D01*
X000740Y003509D02*
X001903Y003509D01*
X001903Y003350D02*
X000740Y003350D01*
X000740Y003192D02*
X001903Y003192D01*
X001950Y003033D02*
X000740Y003033D01*
X000740Y002875D02*
X001990Y002875D01*
X002022Y002716D02*
X000740Y002716D01*
X000740Y002558D02*
X006033Y002558D01*
X007401Y003008D02*
X007424Y003031D01*
X007447Y003008D01*
X007401Y003008D01*
X007870Y003005D02*
X007870Y002821D01*
X007899Y002821D01*
X007899Y003034D01*
X007870Y003005D01*
X007898Y003033D02*
X007899Y003033D01*
X007899Y002875D02*
X007870Y002875D01*
X007744Y004106D02*
X007577Y004106D01*
X007609Y004183D01*
X007609Y004445D01*
X007569Y004541D01*
X007752Y004541D01*
X007712Y004445D01*
X007712Y004183D01*
X007744Y004106D01*
X007729Y004143D02*
X007592Y004143D01*
X007609Y004301D02*
X007712Y004301D01*
X007718Y004460D02*
X007603Y004460D01*
X007424Y005616D02*
X007450Y005643D01*
X007450Y006002D01*
X007415Y006038D01*
X007384Y005964D01*
X007384Y005656D01*
X007424Y005616D01*
X007450Y005728D02*
X007384Y005728D01*
X007384Y005886D02*
X007450Y005886D01*
X007870Y005886D02*
X007899Y005886D01*
X007899Y006040D02*
X007899Y005619D01*
X007897Y005616D01*
X007870Y005643D01*
X007870Y006069D01*
X007899Y006040D01*
X007894Y006045D02*
X007870Y006045D01*
X007870Y005728D02*
X007899Y005728D01*
X008319Y005728D02*
X008385Y005728D01*
X008324Y005661D02*
X008319Y005661D01*
X008319Y006143D01*
X008385Y006077D01*
X008385Y005633D01*
X008369Y005616D01*
X008324Y005661D01*
X008319Y005886D02*
X008385Y005886D01*
X008385Y006045D02*
X008319Y006045D01*
X008537Y006520D02*
X008797Y006520D01*
X008797Y006362D02*
X008695Y006362D01*
X008682Y006374D02*
X008797Y006260D01*
X008797Y006750D01*
X007649Y007899D01*
X007514Y007899D01*
X007382Y007954D01*
X007280Y008055D01*
X007255Y008117D01*
X007177Y008040D01*
X007266Y008003D01*
X007367Y007902D01*
X007422Y007769D01*
X007422Y007635D01*
X008682Y006374D01*
X008682Y006374D01*
X008797Y006679D02*
X008378Y006679D01*
X008220Y006837D02*
X008710Y006837D01*
X008552Y006996D02*
X008061Y006996D01*
X007903Y007154D02*
X008393Y007154D01*
X008235Y007313D02*
X007744Y007313D01*
X007586Y007471D02*
X008076Y007471D01*
X007918Y007630D02*
X007427Y007630D01*
X007414Y007788D02*
X007759Y007788D01*
X007399Y007947D02*
X007322Y007947D01*
X007260Y008105D02*
X007243Y008105D01*
X006862Y008581D02*
X006688Y008581D01*
X005825Y007543D02*
X005776Y007494D01*
X005776Y007563D01*
X005825Y007543D01*
X005132Y009206D02*
X005122Y009206D01*
X004365Y009206D01*
X004392Y009272D01*
X004392Y009320D01*
X004755Y009320D01*
X004878Y009443D01*
X004878Y009457D01*
X005254Y009457D01*
X005306Y009509D01*
X005358Y009457D01*
X005382Y009457D01*
X005356Y009430D01*
X005132Y009206D01*
X005140Y009215D02*
X004369Y009215D01*
X004808Y009373D02*
X005298Y009373D01*
X004044Y010864D02*
X004076Y010897D01*
X004044Y010929D01*
X004044Y012242D01*
X004137Y012336D01*
X004496Y012336D01*
X004496Y012548D01*
X003891Y012548D01*
X003891Y009740D01*
X004044Y009740D01*
X004044Y010864D01*
X004044Y010800D02*
X003891Y010800D01*
X003891Y010641D02*
X004044Y010641D01*
X004044Y010483D02*
X003891Y010483D01*
X003891Y010324D02*
X004044Y010324D01*
X004044Y010166D02*
X003891Y010166D01*
X003891Y010007D02*
X004044Y010007D01*
X004044Y009849D02*
X003891Y009849D01*
X003374Y009849D02*
X003307Y009849D01*
X003307Y010007D02*
X003374Y010007D01*
X003374Y010166D02*
X003307Y010166D01*
X003307Y010324D02*
X003374Y010324D01*
X003374Y010483D02*
X003307Y010483D01*
X003307Y010641D02*
X003374Y010641D01*
X003374Y010800D02*
X003307Y010800D01*
X003307Y010958D02*
X003374Y010958D01*
X003374Y011117D02*
X003307Y011117D01*
X003307Y011275D02*
X003374Y011275D01*
X003374Y011434D02*
X003307Y011434D01*
X003307Y011592D02*
X003374Y011592D01*
X003374Y011751D02*
X003307Y011751D01*
X003307Y011909D02*
X003374Y011909D01*
X003374Y012013D02*
X003307Y012013D01*
X003307Y009404D01*
X003374Y009404D01*
X003374Y012013D01*
X003891Y012068D02*
X004044Y012068D01*
X004044Y012226D02*
X003891Y012226D01*
X003891Y012385D02*
X004496Y012385D01*
X004496Y012543D02*
X003891Y012543D01*
X003891Y011909D02*
X004044Y011909D01*
X004044Y011751D02*
X003891Y011751D01*
X003891Y011592D02*
X004044Y011592D01*
X004044Y011434D02*
X003891Y011434D01*
X003891Y011275D02*
X004044Y011275D01*
X004044Y011117D02*
X003891Y011117D01*
X003891Y010958D02*
X004044Y010958D01*
X003374Y009690D02*
X003307Y009690D01*
X003307Y009532D02*
X003374Y009532D01*
X002476Y009532D02*
X000740Y009532D01*
X000740Y009690D02*
X002476Y009690D01*
X002476Y009849D02*
X000740Y009849D01*
X000740Y010007D02*
X002476Y010007D01*
X002476Y010166D02*
X000740Y010166D01*
X000740Y010324D02*
X002476Y010324D01*
X002476Y010483D02*
X000740Y010483D01*
X000740Y010641D02*
X002476Y010641D01*
X002476Y010800D02*
X000740Y010800D01*
X000740Y010958D02*
X002476Y010958D01*
X002476Y011117D02*
X000740Y011117D01*
X000740Y011275D02*
X002476Y011275D01*
X002476Y011434D02*
X000740Y011434D01*
X000740Y011592D02*
X002476Y011592D01*
X002476Y011751D02*
X000740Y011751D01*
X000740Y011909D02*
X002476Y011909D01*
X002476Y012068D02*
X000740Y012068D01*
X000740Y012226D02*
X002476Y012226D01*
X002476Y012385D02*
X000740Y012385D01*
X000740Y012543D02*
X002476Y012543D01*
X002568Y012702D02*
X000740Y012702D01*
X000740Y009373D02*
X002476Y009373D01*
X002476Y009215D02*
X000740Y009215D01*
X000740Y009056D02*
X002476Y009056D01*
X002476Y008898D02*
X000740Y008898D01*
X000740Y008739D02*
X002476Y008739D01*
X002476Y008581D02*
X000740Y008581D01*
X000740Y008422D02*
X002476Y008422D01*
X002476Y008264D02*
X000740Y008264D01*
X000740Y008105D02*
X002476Y008105D01*
X002476Y007947D02*
X000740Y007947D01*
X000740Y007788D02*
X002476Y007788D01*
X002476Y007630D02*
X000740Y007630D01*
X000740Y007471D02*
X002476Y007471D01*
X002476Y007313D02*
X000740Y007313D01*
X000740Y007154D02*
X002476Y007154D01*
X002476Y006996D02*
X000740Y006996D01*
X000740Y006837D02*
X002401Y006837D01*
X002326Y006679D02*
X000740Y006679D01*
X000740Y006520D02*
X002335Y006520D01*
X002428Y006362D02*
X000740Y006362D01*
X003041Y004541D02*
X003081Y004445D01*
X003081Y004183D01*
X003049Y004106D01*
X003216Y004106D01*
X003184Y004183D01*
X003184Y004445D01*
X003224Y004541D01*
X003041Y004541D01*
X003075Y004460D02*
X003190Y004460D01*
X003184Y004301D02*
X003081Y004301D01*
X003064Y004143D02*
X003201Y004143D01*
X004363Y003542D02*
X004363Y003425D01*
X004458Y003521D01*
X004458Y003638D01*
X004363Y003542D01*
X004363Y003509D02*
X004446Y003509D01*
X006935Y005652D02*
X006935Y005790D01*
X006964Y005778D01*
X006964Y005629D01*
X006961Y005626D01*
X006935Y005652D01*
X006935Y005728D02*
X006964Y005728D01*
X005306Y012284D02*
X005254Y012336D01*
X004916Y012336D01*
X004916Y012548D01*
X005917Y012548D01*
X005917Y012336D01*
X005358Y012336D01*
X005306Y012284D01*
X004916Y012385D02*
X005917Y012385D01*
X005917Y012543D02*
X004916Y012543D01*
X006337Y012543D02*
X006478Y012543D01*
X006478Y012548D02*
X006337Y012548D01*
X006337Y012336D01*
X006391Y012336D01*
X006478Y012422D01*
X006478Y012548D01*
X006440Y012385D02*
X006337Y012385D01*
M02*
