G75*
%MOIN*%
%OFA0B0*%
%FSLAX25Y25*%
%IPPOS*%
%LPD*%
%AMOC8*
5,1,8,0,0,1.08239X$1,22.5*
%
%ADD10C,0.05543*%
%ADD11C,0.00000*%
%ADD12C,0.15811*%
%ADD13C,0.00600*%
%ADD14C,0.02400*%
%ADD15C,0.01600*%
D10*
X0046800Y0051234D02*
X0046800Y0056778D01*
X0056800Y0056778D02*
X0056800Y0051234D01*
X0066800Y0051234D02*
X0066800Y0056778D01*
X0076800Y0056778D02*
X0076800Y0051234D01*
D11*
X0101800Y0019006D02*
X0102162Y0019010D01*
X0102525Y0019024D01*
X0102887Y0019045D01*
X0103248Y0019076D01*
X0103608Y0019115D01*
X0103967Y0019163D01*
X0104325Y0019220D01*
X0104682Y0019285D01*
X0105037Y0019359D01*
X0105390Y0019442D01*
X0105741Y0019533D01*
X0106089Y0019632D01*
X0106435Y0019740D01*
X0106779Y0019856D01*
X0107119Y0019981D01*
X0107456Y0020113D01*
X0107790Y0020254D01*
X0108121Y0020403D01*
X0108448Y0020560D01*
X0108771Y0020724D01*
X0109090Y0020896D01*
X0109404Y0021076D01*
X0109715Y0021264D01*
X0110020Y0021459D01*
X0110321Y0021661D01*
X0110617Y0021871D01*
X0110907Y0022087D01*
X0111193Y0022311D01*
X0111473Y0022541D01*
X0111747Y0022778D01*
X0112015Y0023022D01*
X0112278Y0023272D01*
X0112534Y0023528D01*
X0112784Y0023791D01*
X0113028Y0024059D01*
X0113265Y0024333D01*
X0113495Y0024613D01*
X0113719Y0024899D01*
X0113935Y0025189D01*
X0114145Y0025485D01*
X0114347Y0025786D01*
X0114542Y0026091D01*
X0114730Y0026402D01*
X0114910Y0026716D01*
X0115082Y0027035D01*
X0115246Y0027358D01*
X0115403Y0027685D01*
X0115552Y0028016D01*
X0115693Y0028350D01*
X0115825Y0028687D01*
X0115950Y0029027D01*
X0116066Y0029371D01*
X0116174Y0029717D01*
X0116273Y0030065D01*
X0116364Y0030416D01*
X0116447Y0030769D01*
X0116521Y0031124D01*
X0116586Y0031481D01*
X0116643Y0031839D01*
X0116691Y0032198D01*
X0116730Y0032558D01*
X0116761Y0032919D01*
X0116782Y0033281D01*
X0116796Y0033644D01*
X0116800Y0034006D01*
X0116800Y0119006D01*
X0116784Y0120345D01*
X0116735Y0121684D01*
X0116653Y0123021D01*
X0116539Y0124355D01*
X0116393Y0125687D01*
X0116214Y0127014D01*
X0116003Y0128337D01*
X0115759Y0129654D01*
X0115484Y0130965D01*
X0115177Y0132268D01*
X0114838Y0133564D01*
X0114468Y0134851D01*
X0114067Y0136129D01*
X0113634Y0137397D01*
X0113171Y0138654D01*
X0112677Y0139899D01*
X0112153Y0141132D01*
X0111600Y0142351D01*
X0111016Y0143557D01*
X0110404Y0144748D01*
X0109763Y0145924D01*
X0109093Y0147084D01*
X0108395Y0148227D01*
X0107670Y0149353D01*
X0106917Y0150461D01*
X0106138Y0151551D01*
X0105332Y0152621D01*
X0104501Y0153671D01*
X0103644Y0154700D01*
X0102762Y0155709D01*
X0101857Y0156695D01*
X0100927Y0157659D01*
X0099974Y0158601D01*
X0098999Y0159519D01*
X0098001Y0160412D01*
X0096982Y0161282D01*
X0095942Y0162126D01*
X0094882Y0162944D01*
X0093802Y0163737D01*
X0092704Y0164503D01*
X0091586Y0165242D01*
X0090452Y0165954D01*
X0089300Y0166637D01*
X0088132Y0167293D01*
X0086948Y0167920D01*
X0085750Y0168518D01*
X0084537Y0169086D01*
X0083311Y0169625D01*
X0082072Y0170134D01*
X0080821Y0170612D01*
X0079558Y0171060D01*
X0078286Y0171477D01*
X0077003Y0171863D01*
X0075711Y0172218D01*
X0074411Y0172541D01*
X0073104Y0172832D01*
X0071790Y0173091D01*
X0070470Y0173318D01*
X0069145Y0173513D01*
X0067815Y0173676D01*
X0066482Y0173806D01*
X0065147Y0173904D01*
X0063809Y0173969D01*
X0062470Y0174002D01*
X0061130Y0174002D01*
X0059791Y0173969D01*
X0058453Y0173904D01*
X0057118Y0173806D01*
X0055785Y0173676D01*
X0054455Y0173513D01*
X0053130Y0173318D01*
X0051810Y0173091D01*
X0050496Y0172832D01*
X0049189Y0172541D01*
X0047889Y0172218D01*
X0046597Y0171863D01*
X0045314Y0171477D01*
X0044042Y0171060D01*
X0042779Y0170612D01*
X0041528Y0170134D01*
X0040289Y0169625D01*
X0039063Y0169086D01*
X0037850Y0168518D01*
X0036652Y0167920D01*
X0035468Y0167293D01*
X0034300Y0166637D01*
X0033148Y0165954D01*
X0032014Y0165242D01*
X0030896Y0164503D01*
X0029798Y0163737D01*
X0028718Y0162944D01*
X0027658Y0162126D01*
X0026618Y0161282D01*
X0025599Y0160412D01*
X0024601Y0159519D01*
X0023626Y0158601D01*
X0022673Y0157659D01*
X0021743Y0156695D01*
X0020838Y0155709D01*
X0019956Y0154700D01*
X0019099Y0153671D01*
X0018268Y0152621D01*
X0017462Y0151551D01*
X0016683Y0150461D01*
X0015930Y0149353D01*
X0015205Y0148227D01*
X0014507Y0147084D01*
X0013837Y0145924D01*
X0013196Y0144748D01*
X0012584Y0143557D01*
X0012000Y0142351D01*
X0011447Y0141132D01*
X0010923Y0139899D01*
X0010429Y0138654D01*
X0009966Y0137397D01*
X0009533Y0136129D01*
X0009132Y0134851D01*
X0008762Y0133564D01*
X0008423Y0132268D01*
X0008116Y0130965D01*
X0007841Y0129654D01*
X0007597Y0128337D01*
X0007386Y0127014D01*
X0007207Y0125687D01*
X0007061Y0124355D01*
X0006947Y0123021D01*
X0006865Y0121684D01*
X0006816Y0120345D01*
X0006800Y0119006D01*
X0006800Y0034006D01*
X0006804Y0033644D01*
X0006818Y0033281D01*
X0006839Y0032919D01*
X0006870Y0032558D01*
X0006909Y0032198D01*
X0006957Y0031839D01*
X0007014Y0031481D01*
X0007079Y0031124D01*
X0007153Y0030769D01*
X0007236Y0030416D01*
X0007327Y0030065D01*
X0007426Y0029717D01*
X0007534Y0029371D01*
X0007650Y0029027D01*
X0007775Y0028687D01*
X0007907Y0028350D01*
X0008048Y0028016D01*
X0008197Y0027685D01*
X0008354Y0027358D01*
X0008518Y0027035D01*
X0008690Y0026716D01*
X0008870Y0026402D01*
X0009058Y0026091D01*
X0009253Y0025786D01*
X0009455Y0025485D01*
X0009665Y0025189D01*
X0009881Y0024899D01*
X0010105Y0024613D01*
X0010335Y0024333D01*
X0010572Y0024059D01*
X0010816Y0023791D01*
X0011066Y0023528D01*
X0011322Y0023272D01*
X0011585Y0023022D01*
X0011853Y0022778D01*
X0012127Y0022541D01*
X0012407Y0022311D01*
X0012693Y0022087D01*
X0012983Y0021871D01*
X0013279Y0021661D01*
X0013580Y0021459D01*
X0013885Y0021264D01*
X0014196Y0021076D01*
X0014510Y0020896D01*
X0014829Y0020724D01*
X0015152Y0020560D01*
X0015479Y0020403D01*
X0015810Y0020254D01*
X0016144Y0020113D01*
X0016481Y0019981D01*
X0016821Y0019856D01*
X0017165Y0019740D01*
X0017511Y0019632D01*
X0017859Y0019533D01*
X0018210Y0019442D01*
X0018563Y0019359D01*
X0018918Y0019285D01*
X0019275Y0019220D01*
X0019633Y0019163D01*
X0019992Y0019115D01*
X0020352Y0019076D01*
X0020713Y0019045D01*
X0021075Y0019024D01*
X0021438Y0019010D01*
X0021800Y0019006D01*
X0101800Y0019006D01*
D12*
X0101800Y0034006D03*
X0101800Y0119006D03*
X0021800Y0119006D03*
X0021800Y0034006D03*
D13*
X0046400Y0054406D02*
X0046800Y0054006D01*
X0046400Y0054406D02*
X0046400Y0058006D01*
X0035600Y0068806D01*
X0035600Y0115606D01*
X0038000Y0118006D01*
X0042200Y0110206D02*
X0042200Y0130006D01*
X0042800Y0130606D01*
X0047000Y0143806D02*
X0039800Y0151006D01*
X0041000Y0156406D02*
X0053600Y0143806D01*
X0053600Y0116806D01*
X0051200Y0111406D02*
X0071000Y0131206D01*
X0071000Y0149206D01*
X0069200Y0151006D01*
X0068600Y0148006D02*
X0056600Y0160006D01*
X0056600Y0163006D01*
X0053600Y0167806D02*
X0050600Y0164806D01*
X0053600Y0167806D02*
X0065600Y0167806D01*
X0081800Y0151606D01*
X0081800Y0133606D01*
X0072200Y0124006D01*
X0072200Y0110206D01*
X0069200Y0101806D02*
X0085400Y0101806D01*
X0086600Y0103006D01*
X0072200Y0128806D02*
X0072200Y0151006D01*
X0077000Y0147406D02*
X0077000Y0130606D01*
X0057200Y0110806D01*
X0057200Y0095206D01*
X0051200Y0081406D02*
X0056600Y0076006D01*
X0056600Y0054406D01*
X0056800Y0054006D01*
X0062600Y0060406D02*
X0062600Y0112606D01*
X0060800Y0127606D02*
X0060800Y0146206D01*
X0056000Y0151006D01*
X0054200Y0151006D01*
X0047000Y0143806D02*
X0047000Y0115006D01*
X0051200Y0111406D02*
X0051200Y0081406D01*
X0043400Y0081406D02*
X0052400Y0071806D01*
X0043400Y0081406D02*
X0039200Y0081406D01*
X0062600Y0060406D02*
X0066800Y0056206D01*
X0066800Y0054006D01*
D14*
X0052400Y0071806D03*
X0047000Y0084406D03*
X0039200Y0081406D03*
X0057200Y0095206D03*
X0069200Y0101806D03*
X0072200Y0110206D03*
X0062600Y0112606D03*
X0053600Y0116806D03*
X0051200Y0111406D03*
X0047000Y0115006D03*
X0042200Y0110206D03*
X0038000Y0118006D03*
X0042800Y0130606D03*
X0039800Y0151006D03*
X0041000Y0156406D03*
X0050600Y0164806D03*
X0056600Y0163006D03*
X0054200Y0151006D03*
X0065600Y0134806D03*
X0060800Y0127606D03*
X0072200Y0128806D03*
X0077000Y0147406D03*
X0072200Y0151006D03*
X0069200Y0151006D03*
X0068600Y0148006D03*
X0092600Y0136006D03*
X0086600Y0103006D03*
D15*
X0011328Y0025970D02*
X0013764Y0023534D01*
X0016749Y0021811D01*
X0020077Y0020919D01*
X0021800Y0020806D01*
X0101800Y0020806D01*
X0103523Y0020919D01*
X0106851Y0021811D01*
X0109836Y0023534D01*
X0112272Y0025970D01*
X0113995Y0028954D01*
X0114887Y0032283D01*
X0115000Y0034006D01*
X0115000Y0119006D01*
X0114836Y0123180D01*
X0113530Y0131425D01*
X0110950Y0139365D01*
X0107160Y0146803D01*
X0107160Y0146803D01*
X0102254Y0153557D01*
X0102254Y0153557D01*
X0096351Y0159459D01*
X0089597Y0164366D01*
X0082159Y0168156D01*
X0074219Y0170736D01*
X0065974Y0172042D01*
X0057626Y0172042D01*
X0049381Y0170736D01*
X0041441Y0168156D01*
X0034003Y0164366D01*
X0027249Y0159459D01*
X0021346Y0153557D01*
X0016440Y0146803D01*
X0012650Y0139365D01*
X0010070Y0131425D01*
X0008764Y0123180D01*
X0008600Y0119006D01*
X0008600Y0034006D01*
X0008713Y0032283D01*
X0009605Y0028954D01*
X0011328Y0025970D01*
X0011898Y0025400D02*
X0018260Y0025400D01*
X0019949Y0024700D02*
X0016529Y0026117D01*
X0013911Y0028735D01*
X0012494Y0032155D01*
X0012494Y0035857D01*
X0013911Y0039277D01*
X0016529Y0041895D01*
X0019949Y0043311D01*
X0023651Y0043311D01*
X0027071Y0041895D01*
X0029689Y0039277D01*
X0031105Y0035857D01*
X0031105Y0032155D01*
X0029689Y0028735D01*
X0027071Y0026117D01*
X0023651Y0024700D01*
X0019949Y0024700D01*
X0016069Y0022203D02*
X0107531Y0022203D01*
X0105340Y0025400D02*
X0111702Y0025400D01*
X0112866Y0026998D02*
X0107953Y0026998D01*
X0107071Y0026117D02*
X0109689Y0028735D01*
X0111105Y0032155D01*
X0111105Y0035857D01*
X0109689Y0039277D01*
X0107071Y0041895D01*
X0103651Y0043311D01*
X0099949Y0043311D01*
X0096529Y0041895D01*
X0093911Y0039277D01*
X0092494Y0035857D01*
X0092494Y0032155D01*
X0093911Y0028735D01*
X0096529Y0026117D01*
X0099949Y0024700D01*
X0103651Y0024700D01*
X0107071Y0026117D01*
X0109551Y0028597D02*
X0113789Y0028597D01*
X0114328Y0030195D02*
X0110294Y0030195D01*
X0110956Y0031794D02*
X0114756Y0031794D01*
X0114960Y0033393D02*
X0111105Y0033393D01*
X0111105Y0034991D02*
X0115000Y0034991D01*
X0115000Y0036590D02*
X0110802Y0036590D01*
X0110140Y0038188D02*
X0115000Y0038188D01*
X0115000Y0039787D02*
X0109179Y0039787D01*
X0107581Y0041385D02*
X0115000Y0041385D01*
X0115000Y0042984D02*
X0104442Y0042984D01*
X0099158Y0042984D02*
X0024442Y0042984D01*
X0027581Y0041385D02*
X0096019Y0041385D01*
X0094421Y0039787D02*
X0029179Y0039787D01*
X0030140Y0038188D02*
X0093460Y0038188D01*
X0092798Y0036590D02*
X0030802Y0036590D01*
X0031105Y0034991D02*
X0092494Y0034991D01*
X0092494Y0033393D02*
X0031105Y0033393D01*
X0030956Y0031794D02*
X0092644Y0031794D01*
X0093306Y0030195D02*
X0030294Y0030195D01*
X0029551Y0028597D02*
X0094049Y0028597D01*
X0095647Y0026998D02*
X0027953Y0026998D01*
X0025340Y0025400D02*
X0098260Y0025400D01*
X0110103Y0023801D02*
X0013497Y0023801D01*
X0015647Y0026998D02*
X0010734Y0026998D01*
X0009811Y0028597D02*
X0014049Y0028597D01*
X0013306Y0030195D02*
X0009272Y0030195D01*
X0008844Y0031794D02*
X0012644Y0031794D01*
X0012494Y0033393D02*
X0008640Y0033393D01*
X0008600Y0034991D02*
X0012494Y0034991D01*
X0012798Y0036590D02*
X0008600Y0036590D01*
X0008600Y0038188D02*
X0013460Y0038188D01*
X0014421Y0039787D02*
X0008600Y0039787D01*
X0008600Y0041385D02*
X0016019Y0041385D01*
X0019158Y0042984D02*
X0008600Y0042984D01*
X0008600Y0044582D02*
X0115000Y0044582D01*
X0115000Y0046181D02*
X0008600Y0046181D01*
X0008600Y0047779D02*
X0044356Y0047779D01*
X0044437Y0047698D02*
X0045970Y0047063D01*
X0047630Y0047063D01*
X0049163Y0047698D01*
X0050337Y0048871D01*
X0050972Y0050404D01*
X0050972Y0057607D01*
X0050337Y0059141D01*
X0049163Y0060314D01*
X0047630Y0060949D01*
X0045970Y0060949D01*
X0045893Y0060917D01*
X0037300Y0069510D01*
X0037300Y0079629D01*
X0037727Y0079202D01*
X0038683Y0078806D01*
X0039717Y0078806D01*
X0040673Y0079202D01*
X0041177Y0079706D01*
X0042664Y0079706D01*
X0049800Y0072094D01*
X0049800Y0071289D01*
X0050196Y0070333D01*
X0050927Y0069602D01*
X0051883Y0069206D01*
X0052917Y0069206D01*
X0053873Y0069602D01*
X0054604Y0070333D01*
X0054900Y0071047D01*
X0054900Y0060506D01*
X0054437Y0060314D01*
X0053263Y0059141D01*
X0052628Y0057607D01*
X0052628Y0050404D01*
X0053263Y0048871D01*
X0054437Y0047698D01*
X0055970Y0047063D01*
X0057630Y0047063D01*
X0059163Y0047698D01*
X0060337Y0048871D01*
X0060972Y0050404D01*
X0060972Y0057607D01*
X0060337Y0059141D01*
X0059163Y0060314D01*
X0058300Y0060672D01*
X0058300Y0076710D01*
X0057304Y0077706D01*
X0052900Y0082110D01*
X0052900Y0109429D01*
X0053404Y0109933D01*
X0053800Y0110889D01*
X0053800Y0111602D01*
X0069860Y0127662D01*
X0069996Y0127333D01*
X0070659Y0126670D01*
X0055500Y0111510D01*
X0055500Y0097183D01*
X0054996Y0096679D01*
X0054600Y0095723D01*
X0054600Y0094689D01*
X0054996Y0093733D01*
X0055727Y0093002D01*
X0056683Y0092606D01*
X0057717Y0092606D01*
X0058673Y0093002D01*
X0059404Y0093733D01*
X0059800Y0094689D01*
X0059800Y0095723D01*
X0059404Y0096679D01*
X0058900Y0097183D01*
X0058900Y0110102D01*
X0060260Y0111462D01*
X0060396Y0111133D01*
X0060900Y0110629D01*
X0060900Y0059702D01*
X0062736Y0057866D01*
X0062628Y0057607D01*
X0062628Y0050404D01*
X0063263Y0048871D01*
X0064437Y0047698D01*
X0065970Y0047063D01*
X0067630Y0047063D01*
X0069163Y0047698D01*
X0070337Y0048871D01*
X0070972Y0050404D01*
X0070972Y0057607D01*
X0070337Y0059141D01*
X0069163Y0060314D01*
X0067630Y0060949D01*
X0065970Y0060949D01*
X0064903Y0060507D01*
X0064300Y0061110D01*
X0064300Y0110629D01*
X0064804Y0111133D01*
X0065200Y0112089D01*
X0065200Y0113123D01*
X0064804Y0114079D01*
X0064073Y0114810D01*
X0063744Y0114946D01*
X0070500Y0121702D01*
X0070500Y0112183D01*
X0069996Y0111679D01*
X0069600Y0110723D01*
X0069600Y0109689D01*
X0069996Y0108733D01*
X0070727Y0108002D01*
X0071683Y0107606D01*
X0072717Y0107606D01*
X0073673Y0108002D01*
X0074404Y0108733D01*
X0074800Y0109689D01*
X0074800Y0110723D01*
X0074404Y0111679D01*
X0073900Y0112183D01*
X0073900Y0123302D01*
X0082504Y0131906D01*
X0083500Y0132902D01*
X0083500Y0152310D01*
X0067300Y0168510D01*
X0066304Y0169506D01*
X0052896Y0169506D01*
X0050796Y0167406D01*
X0050083Y0167406D01*
X0049127Y0167010D01*
X0048396Y0166279D01*
X0048000Y0165323D01*
X0048000Y0164289D01*
X0048396Y0163333D01*
X0049127Y0162602D01*
X0050083Y0162206D01*
X0051117Y0162206D01*
X0052073Y0162602D01*
X0052804Y0163333D01*
X0053200Y0164289D01*
X0053200Y0165002D01*
X0054304Y0166106D01*
X0064896Y0166106D01*
X0080100Y0150902D01*
X0080100Y0134310D01*
X0078700Y0132910D01*
X0078700Y0145429D01*
X0079204Y0145933D01*
X0079600Y0146889D01*
X0079600Y0147923D01*
X0079204Y0148879D01*
X0078473Y0149610D01*
X0077517Y0150006D01*
X0076483Y0150006D01*
X0075527Y0149610D01*
X0074796Y0148879D01*
X0074400Y0147923D01*
X0074400Y0146889D01*
X0074796Y0145933D01*
X0075300Y0145429D01*
X0075300Y0131310D01*
X0074336Y0130346D01*
X0073900Y0130783D01*
X0073900Y0149029D01*
X0074404Y0149533D01*
X0074800Y0150489D01*
X0074800Y0151523D01*
X0074404Y0152479D01*
X0073673Y0153210D01*
X0072717Y0153606D01*
X0071683Y0153606D01*
X0070727Y0153210D01*
X0070700Y0153183D01*
X0070673Y0153210D01*
X0069717Y0153606D01*
X0068683Y0153606D01*
X0067727Y0153210D01*
X0066996Y0152479D01*
X0066860Y0152150D01*
X0058300Y0160710D01*
X0058300Y0161029D01*
X0058804Y0161533D01*
X0059200Y0162489D01*
X0059200Y0163523D01*
X0058804Y0164479D01*
X0058073Y0165210D01*
X0057117Y0165606D01*
X0056083Y0165606D01*
X0055127Y0165210D01*
X0054396Y0164479D01*
X0054000Y0163523D01*
X0054000Y0162489D01*
X0054396Y0161533D01*
X0054900Y0161029D01*
X0054900Y0159302D01*
X0066000Y0148202D01*
X0066000Y0147489D01*
X0066396Y0146533D01*
X0067127Y0145802D01*
X0068083Y0145406D01*
X0069117Y0145406D01*
X0069300Y0145482D01*
X0069300Y0131910D01*
X0055736Y0118346D01*
X0055300Y0118783D01*
X0055300Y0144510D01*
X0043600Y0156210D01*
X0043600Y0156923D01*
X0043204Y0157879D01*
X0042473Y0158610D01*
X0041517Y0159006D01*
X0040483Y0159006D01*
X0039527Y0158610D01*
X0038796Y0157879D01*
X0038400Y0156923D01*
X0038400Y0155889D01*
X0038796Y0154933D01*
X0039527Y0154202D01*
X0040483Y0153806D01*
X0041196Y0153806D01*
X0051900Y0143102D01*
X0051900Y0118783D01*
X0051396Y0118279D01*
X0051000Y0117323D01*
X0051000Y0116289D01*
X0051396Y0115333D01*
X0052059Y0114670D01*
X0051396Y0114006D01*
X0050683Y0114006D01*
X0049727Y0113610D01*
X0048996Y0112879D01*
X0048600Y0111923D01*
X0048600Y0110889D01*
X0048996Y0109933D01*
X0049500Y0109429D01*
X0049500Y0080702D01*
X0054900Y0075302D01*
X0054900Y0072564D01*
X0054604Y0073279D01*
X0053873Y0074010D01*
X0052917Y0074406D01*
X0052293Y0074406D01*
X0045100Y0082078D01*
X0045100Y0082110D01*
X0044621Y0082589D01*
X0044159Y0083082D01*
X0044127Y0083083D01*
X0044104Y0083106D01*
X0043427Y0083106D01*
X0042751Y0083128D01*
X0042728Y0083106D01*
X0041177Y0083106D01*
X0040673Y0083610D01*
X0039717Y0084006D01*
X0038683Y0084006D01*
X0037727Y0083610D01*
X0037300Y0083183D01*
X0037300Y0114902D01*
X0037804Y0115406D01*
X0038517Y0115406D01*
X0039473Y0115802D01*
X0040204Y0116533D01*
X0040500Y0117247D01*
X0040500Y0112183D01*
X0039996Y0111679D01*
X0039600Y0110723D01*
X0039600Y0109689D01*
X0039996Y0108733D01*
X0040727Y0108002D01*
X0041683Y0107606D01*
X0042717Y0107606D01*
X0043673Y0108002D01*
X0044404Y0108733D01*
X0044800Y0109689D01*
X0044800Y0110723D01*
X0044404Y0111679D01*
X0043900Y0112183D01*
X0043900Y0128247D01*
X0044273Y0128402D01*
X0045004Y0129133D01*
X0045300Y0129847D01*
X0045300Y0116983D01*
X0044796Y0116479D01*
X0044400Y0115523D01*
X0044400Y0114489D01*
X0044796Y0113533D01*
X0045527Y0112802D01*
X0046483Y0112406D01*
X0047517Y0112406D01*
X0048473Y0112802D01*
X0049204Y0113533D01*
X0049600Y0114489D01*
X0049600Y0115523D01*
X0049204Y0116479D01*
X0048700Y0116983D01*
X0048700Y0143102D01*
X0048700Y0144510D01*
X0042400Y0150810D01*
X0042400Y0151523D01*
X0042004Y0152479D01*
X0041273Y0153210D01*
X0040317Y0153606D01*
X0039283Y0153606D01*
X0038327Y0153210D01*
X0037596Y0152479D01*
X0037200Y0151523D01*
X0037200Y0150489D01*
X0037596Y0149533D01*
X0038327Y0148802D01*
X0039283Y0148406D01*
X0039996Y0148406D01*
X0045300Y0143102D01*
X0045300Y0131364D01*
X0045004Y0132079D01*
X0044273Y0132810D01*
X0043317Y0133206D01*
X0042283Y0133206D01*
X0041327Y0132810D01*
X0040596Y0132079D01*
X0040200Y0131123D01*
X0040200Y0130089D01*
X0040500Y0129364D01*
X0040500Y0118764D01*
X0040204Y0119479D01*
X0039473Y0120210D01*
X0038517Y0120606D01*
X0037483Y0120606D01*
X0036527Y0120210D01*
X0035796Y0119479D01*
X0035400Y0118523D01*
X0035400Y0117810D01*
X0033900Y0116310D01*
X0033900Y0068102D01*
X0034896Y0067106D01*
X0043146Y0058856D01*
X0042628Y0057607D01*
X0042628Y0050404D01*
X0043263Y0048871D01*
X0044437Y0047698D01*
X0043054Y0049378D02*
X0008600Y0049378D01*
X0008600Y0050976D02*
X0042628Y0050976D01*
X0042628Y0052575D02*
X0008600Y0052575D01*
X0008600Y0054173D02*
X0042628Y0054173D01*
X0042628Y0055772D02*
X0008600Y0055772D01*
X0008600Y0057370D02*
X0042628Y0057370D01*
X0043033Y0058969D02*
X0008600Y0058969D01*
X0008600Y0060567D02*
X0041435Y0060567D01*
X0039836Y0062166D02*
X0008600Y0062166D01*
X0008600Y0063764D02*
X0038238Y0063764D01*
X0036639Y0065363D02*
X0008600Y0065363D01*
X0008600Y0066961D02*
X0035040Y0066961D01*
X0033900Y0068560D02*
X0008600Y0068560D01*
X0008600Y0070158D02*
X0033900Y0070158D01*
X0033900Y0071757D02*
X0008600Y0071757D01*
X0008600Y0073355D02*
X0033900Y0073355D01*
X0033900Y0074954D02*
X0008600Y0074954D01*
X0008600Y0076552D02*
X0033900Y0076552D01*
X0033900Y0078151D02*
X0008600Y0078151D01*
X0008600Y0079749D02*
X0033900Y0079749D01*
X0033900Y0081348D02*
X0008600Y0081348D01*
X0008600Y0082946D02*
X0033900Y0082946D01*
X0033900Y0084545D02*
X0008600Y0084545D01*
X0008600Y0086143D02*
X0033900Y0086143D01*
X0033900Y0087742D02*
X0008600Y0087742D01*
X0008600Y0089340D02*
X0033900Y0089340D01*
X0033900Y0090939D02*
X0008600Y0090939D01*
X0008600Y0092537D02*
X0033900Y0092537D01*
X0033900Y0094136D02*
X0008600Y0094136D01*
X0008600Y0095734D02*
X0033900Y0095734D01*
X0033900Y0097333D02*
X0008600Y0097333D01*
X0008600Y0098931D02*
X0033900Y0098931D01*
X0033900Y0100530D02*
X0008600Y0100530D01*
X0008600Y0102128D02*
X0033900Y0102128D01*
X0033900Y0103727D02*
X0008600Y0103727D01*
X0008600Y0105326D02*
X0033900Y0105326D01*
X0033900Y0106924D02*
X0008600Y0106924D01*
X0008600Y0108523D02*
X0033900Y0108523D01*
X0033900Y0110121D02*
X0024667Y0110121D01*
X0023651Y0109700D02*
X0027071Y0111117D01*
X0029689Y0113735D01*
X0031105Y0117155D01*
X0031105Y0120857D01*
X0029689Y0124277D01*
X0027071Y0126895D01*
X0023651Y0128311D01*
X0019949Y0128311D01*
X0016529Y0126895D01*
X0013911Y0124277D01*
X0012494Y0120857D01*
X0012494Y0117155D01*
X0013911Y0113735D01*
X0016529Y0111117D01*
X0019949Y0109700D01*
X0023651Y0109700D01*
X0027674Y0111720D02*
X0033900Y0111720D01*
X0033900Y0113318D02*
X0029272Y0113318D01*
X0030178Y0114917D02*
X0033900Y0114917D01*
X0034105Y0116515D02*
X0030840Y0116515D01*
X0031105Y0118114D02*
X0035400Y0118114D01*
X0036029Y0119712D02*
X0031105Y0119712D01*
X0030918Y0121311D02*
X0040500Y0121311D01*
X0040500Y0122909D02*
X0030255Y0122909D01*
X0029458Y0124508D02*
X0040500Y0124508D01*
X0040500Y0126106D02*
X0027860Y0126106D01*
X0025116Y0127705D02*
X0040500Y0127705D01*
X0040500Y0129303D02*
X0009734Y0129303D01*
X0009481Y0127705D02*
X0018484Y0127705D01*
X0015740Y0126106D02*
X0009227Y0126106D01*
X0008974Y0124508D02*
X0014142Y0124508D01*
X0013345Y0122909D02*
X0008753Y0122909D01*
X0008691Y0121311D02*
X0012682Y0121311D01*
X0012494Y0119712D02*
X0008628Y0119712D01*
X0008600Y0118114D02*
X0012494Y0118114D01*
X0012759Y0116515D02*
X0008600Y0116515D01*
X0008600Y0114917D02*
X0013422Y0114917D01*
X0014328Y0113318D02*
X0008600Y0113318D01*
X0008600Y0111720D02*
X0015926Y0111720D01*
X0018933Y0110121D02*
X0008600Y0110121D01*
X0009987Y0130902D02*
X0040200Y0130902D01*
X0041017Y0132500D02*
X0010419Y0132500D01*
X0010939Y0134099D02*
X0045300Y0134099D01*
X0045300Y0135697D02*
X0011458Y0135697D01*
X0011977Y0137296D02*
X0045300Y0137296D01*
X0045300Y0138894D02*
X0012497Y0138894D01*
X0013224Y0140493D02*
X0045300Y0140493D01*
X0045300Y0142091D02*
X0014039Y0142091D01*
X0014853Y0143690D02*
X0044712Y0143690D01*
X0043113Y0145288D02*
X0015668Y0145288D01*
X0016501Y0146887D02*
X0041515Y0146887D01*
X0039091Y0148485D02*
X0017662Y0148485D01*
X0018823Y0150084D02*
X0037368Y0150084D01*
X0037266Y0151682D02*
X0019985Y0151682D01*
X0021146Y0153281D02*
X0038498Y0153281D01*
X0038850Y0154879D02*
X0022669Y0154879D01*
X0024268Y0156478D02*
X0038400Y0156478D01*
X0038994Y0158076D02*
X0025866Y0158076D01*
X0027546Y0159675D02*
X0054900Y0159675D01*
X0054656Y0161273D02*
X0029746Y0161273D01*
X0031946Y0162872D02*
X0048857Y0162872D01*
X0048000Y0164470D02*
X0034207Y0164470D01*
X0037345Y0166069D02*
X0048309Y0166069D01*
X0051057Y0167667D02*
X0040482Y0167667D01*
X0044856Y0169266D02*
X0052656Y0169266D01*
X0050192Y0170864D02*
X0073408Y0170864D01*
X0069741Y0166069D02*
X0086255Y0166069D01*
X0083118Y0167667D02*
X0068143Y0167667D01*
X0066544Y0169266D02*
X0078744Y0169266D01*
X0072938Y0162872D02*
X0091654Y0162872D01*
X0093854Y0161273D02*
X0074537Y0161273D01*
X0076135Y0159675D02*
X0096054Y0159675D01*
X0097734Y0158076D02*
X0077734Y0158076D01*
X0079332Y0156478D02*
X0099332Y0156478D01*
X0100931Y0154879D02*
X0080931Y0154879D01*
X0082529Y0153281D02*
X0102454Y0153281D01*
X0103615Y0151682D02*
X0083500Y0151682D01*
X0083500Y0150084D02*
X0104777Y0150084D01*
X0105938Y0148485D02*
X0083500Y0148485D01*
X0083500Y0146887D02*
X0107099Y0146887D01*
X0107932Y0145288D02*
X0083500Y0145288D01*
X0083500Y0143690D02*
X0108747Y0143690D01*
X0109561Y0142091D02*
X0083500Y0142091D01*
X0083500Y0140493D02*
X0110376Y0140493D01*
X0111103Y0138894D02*
X0083500Y0138894D01*
X0083500Y0137296D02*
X0111623Y0137296D01*
X0112142Y0135697D02*
X0083500Y0135697D01*
X0083500Y0134099D02*
X0112661Y0134099D01*
X0113181Y0132500D02*
X0083098Y0132500D01*
X0081500Y0130902D02*
X0113613Y0130902D01*
X0113866Y0129303D02*
X0079901Y0129303D01*
X0078303Y0127705D02*
X0098484Y0127705D01*
X0099949Y0128311D02*
X0096529Y0126895D01*
X0093911Y0124277D01*
X0092494Y0120857D01*
X0092494Y0117155D01*
X0093911Y0113735D01*
X0096529Y0111117D01*
X0099949Y0109700D01*
X0103651Y0109700D01*
X0107071Y0111117D01*
X0109689Y0113735D01*
X0111105Y0117155D01*
X0111105Y0120857D01*
X0109689Y0124277D01*
X0107071Y0126895D01*
X0103651Y0128311D01*
X0099949Y0128311D01*
X0095740Y0126106D02*
X0076704Y0126106D01*
X0075106Y0124508D02*
X0094142Y0124508D01*
X0093345Y0122909D02*
X0073900Y0122909D01*
X0073900Y0121311D02*
X0092682Y0121311D01*
X0092494Y0119712D02*
X0073900Y0119712D01*
X0073900Y0118114D02*
X0092494Y0118114D01*
X0092759Y0116515D02*
X0073900Y0116515D01*
X0073900Y0114917D02*
X0093422Y0114917D01*
X0094328Y0113318D02*
X0073900Y0113318D01*
X0074363Y0111720D02*
X0095926Y0111720D01*
X0098933Y0110121D02*
X0074800Y0110121D01*
X0074194Y0108523D02*
X0115000Y0108523D01*
X0115000Y0110121D02*
X0104667Y0110121D01*
X0107674Y0111720D02*
X0115000Y0111720D01*
X0115000Y0113318D02*
X0109272Y0113318D01*
X0110178Y0114917D02*
X0115000Y0114917D01*
X0115000Y0116515D02*
X0110840Y0116515D01*
X0111105Y0118114D02*
X0115000Y0118114D01*
X0114972Y0119712D02*
X0111105Y0119712D01*
X0110918Y0121311D02*
X0114909Y0121311D01*
X0114847Y0122909D02*
X0110255Y0122909D01*
X0109458Y0124508D02*
X0114626Y0124508D01*
X0114373Y0126106D02*
X0107860Y0126106D01*
X0105116Y0127705D02*
X0114119Y0127705D01*
X0115000Y0106924D02*
X0064300Y0106924D01*
X0064300Y0105326D02*
X0085406Y0105326D01*
X0085127Y0105210D02*
X0086083Y0105606D01*
X0087117Y0105606D01*
X0088073Y0105210D01*
X0088804Y0104479D01*
X0089200Y0103523D01*
X0089200Y0102489D01*
X0088804Y0101533D01*
X0088073Y0100802D01*
X0087117Y0100406D01*
X0086404Y0100406D01*
X0086104Y0100106D01*
X0084696Y0100106D01*
X0071177Y0100106D01*
X0070673Y0099602D01*
X0069717Y0099206D01*
X0068683Y0099206D01*
X0067727Y0099602D01*
X0066996Y0100333D01*
X0066600Y0101289D01*
X0066600Y0102323D01*
X0066996Y0103279D01*
X0067727Y0104010D01*
X0068683Y0104406D01*
X0069717Y0104406D01*
X0070673Y0104010D01*
X0071177Y0103506D01*
X0084000Y0103506D01*
X0084000Y0103523D01*
X0084396Y0104479D01*
X0085127Y0105210D01*
X0084084Y0103727D02*
X0070956Y0103727D01*
X0067444Y0103727D02*
X0064300Y0103727D01*
X0064300Y0102128D02*
X0066600Y0102128D01*
X0066914Y0100530D02*
X0064300Y0100530D01*
X0064300Y0098931D02*
X0115000Y0098931D01*
X0115000Y0097333D02*
X0064300Y0097333D01*
X0064300Y0095734D02*
X0115000Y0095734D01*
X0115000Y0094136D02*
X0064300Y0094136D01*
X0064300Y0092537D02*
X0115000Y0092537D01*
X0115000Y0090939D02*
X0064300Y0090939D01*
X0064300Y0089340D02*
X0115000Y0089340D01*
X0115000Y0087742D02*
X0064300Y0087742D01*
X0064300Y0086143D02*
X0115000Y0086143D01*
X0115000Y0084545D02*
X0064300Y0084545D01*
X0064300Y0082946D02*
X0115000Y0082946D01*
X0115000Y0081348D02*
X0064300Y0081348D01*
X0064300Y0079749D02*
X0115000Y0079749D01*
X0115000Y0078151D02*
X0064300Y0078151D01*
X0064300Y0076552D02*
X0115000Y0076552D01*
X0115000Y0074954D02*
X0064300Y0074954D01*
X0064300Y0073355D02*
X0115000Y0073355D01*
X0115000Y0071757D02*
X0064300Y0071757D01*
X0064300Y0070158D02*
X0115000Y0070158D01*
X0115000Y0068560D02*
X0064300Y0068560D01*
X0064300Y0066961D02*
X0115000Y0066961D01*
X0115000Y0065363D02*
X0064300Y0065363D01*
X0064300Y0063764D02*
X0115000Y0063764D01*
X0115000Y0062166D02*
X0064300Y0062166D01*
X0064843Y0060567D02*
X0065048Y0060567D01*
X0062628Y0057370D02*
X0060972Y0057370D01*
X0060972Y0055772D02*
X0062628Y0055772D01*
X0062628Y0054173D02*
X0060972Y0054173D01*
X0060972Y0052575D02*
X0062628Y0052575D01*
X0062628Y0050976D02*
X0060972Y0050976D01*
X0060546Y0049378D02*
X0063054Y0049378D01*
X0064356Y0047779D02*
X0059244Y0047779D01*
X0054356Y0047779D02*
X0049244Y0047779D01*
X0050546Y0049378D02*
X0053054Y0049378D01*
X0052628Y0050976D02*
X0050972Y0050976D01*
X0050972Y0052575D02*
X0052628Y0052575D01*
X0052628Y0054173D02*
X0050972Y0054173D01*
X0050972Y0055772D02*
X0052628Y0055772D01*
X0052628Y0057370D02*
X0050972Y0057370D01*
X0050408Y0058969D02*
X0053192Y0058969D01*
X0054900Y0060567D02*
X0048552Y0060567D01*
X0044644Y0062166D02*
X0054900Y0062166D01*
X0054900Y0063764D02*
X0043046Y0063764D01*
X0041447Y0065363D02*
X0054900Y0065363D01*
X0054900Y0066961D02*
X0039849Y0066961D01*
X0038250Y0068560D02*
X0054900Y0068560D01*
X0054900Y0070158D02*
X0054429Y0070158D01*
X0054528Y0073355D02*
X0054900Y0073355D01*
X0054900Y0074954D02*
X0051779Y0074954D01*
X0050280Y0076552D02*
X0053649Y0076552D01*
X0052051Y0078151D02*
X0048782Y0078151D01*
X0047283Y0079749D02*
X0050452Y0079749D01*
X0049500Y0081348D02*
X0045785Y0081348D01*
X0044286Y0082946D02*
X0049500Y0082946D01*
X0049500Y0084545D02*
X0037300Y0084545D01*
X0037300Y0086143D02*
X0049500Y0086143D01*
X0049500Y0087742D02*
X0037300Y0087742D01*
X0037300Y0089340D02*
X0049500Y0089340D01*
X0049500Y0090939D02*
X0037300Y0090939D01*
X0037300Y0092537D02*
X0049500Y0092537D01*
X0049500Y0094136D02*
X0037300Y0094136D01*
X0037300Y0095734D02*
X0049500Y0095734D01*
X0049500Y0097333D02*
X0037300Y0097333D01*
X0037300Y0098931D02*
X0049500Y0098931D01*
X0049500Y0100530D02*
X0037300Y0100530D01*
X0037300Y0102128D02*
X0049500Y0102128D01*
X0049500Y0103727D02*
X0037300Y0103727D01*
X0037300Y0105326D02*
X0049500Y0105326D01*
X0049500Y0106924D02*
X0037300Y0106924D01*
X0037300Y0108523D02*
X0040206Y0108523D01*
X0039600Y0110121D02*
X0037300Y0110121D01*
X0037300Y0111720D02*
X0040037Y0111720D01*
X0040500Y0113318D02*
X0037300Y0113318D01*
X0037315Y0114917D02*
X0040500Y0114917D01*
X0040500Y0116515D02*
X0040186Y0116515D01*
X0039971Y0119712D02*
X0040500Y0119712D01*
X0043900Y0119712D02*
X0045300Y0119712D01*
X0045300Y0118114D02*
X0043900Y0118114D01*
X0043900Y0116515D02*
X0044832Y0116515D01*
X0044400Y0114917D02*
X0043900Y0114917D01*
X0043900Y0113318D02*
X0045011Y0113318D01*
X0044363Y0111720D02*
X0048600Y0111720D01*
X0048918Y0110121D02*
X0044800Y0110121D01*
X0044194Y0108523D02*
X0049500Y0108523D01*
X0052900Y0108523D02*
X0055500Y0108523D01*
X0055500Y0110121D02*
X0053482Y0110121D01*
X0053918Y0111720D02*
X0055709Y0111720D01*
X0055516Y0113318D02*
X0057308Y0113318D01*
X0057115Y0114917D02*
X0058907Y0114917D01*
X0058713Y0116515D02*
X0060505Y0116515D01*
X0060312Y0118114D02*
X0062104Y0118114D01*
X0061910Y0119712D02*
X0063702Y0119712D01*
X0063509Y0121311D02*
X0065301Y0121311D01*
X0065107Y0122909D02*
X0066899Y0122909D01*
X0066706Y0124508D02*
X0068498Y0124508D01*
X0068304Y0126106D02*
X0070096Y0126106D01*
X0070109Y0121311D02*
X0070500Y0121311D01*
X0070500Y0119712D02*
X0068510Y0119712D01*
X0066912Y0118114D02*
X0070500Y0118114D01*
X0070500Y0116515D02*
X0065313Y0116515D01*
X0063816Y0114917D02*
X0070500Y0114917D01*
X0070500Y0113318D02*
X0065119Y0113318D01*
X0065047Y0111720D02*
X0070037Y0111720D01*
X0069600Y0110121D02*
X0064300Y0110121D01*
X0064300Y0108523D02*
X0070206Y0108523D01*
X0060900Y0108523D02*
X0058900Y0108523D01*
X0058919Y0110121D02*
X0060900Y0110121D01*
X0060900Y0106924D02*
X0058900Y0106924D01*
X0058900Y0105326D02*
X0060900Y0105326D01*
X0060900Y0103727D02*
X0058900Y0103727D01*
X0058900Y0102128D02*
X0060900Y0102128D01*
X0060900Y0100530D02*
X0058900Y0100530D01*
X0058900Y0098931D02*
X0060900Y0098931D01*
X0060900Y0097333D02*
X0058900Y0097333D01*
X0059795Y0095734D02*
X0060900Y0095734D01*
X0060900Y0094136D02*
X0059571Y0094136D01*
X0060900Y0092537D02*
X0052900Y0092537D01*
X0052900Y0090939D02*
X0060900Y0090939D01*
X0060900Y0089340D02*
X0052900Y0089340D01*
X0052900Y0087742D02*
X0060900Y0087742D01*
X0060900Y0086143D02*
X0052900Y0086143D01*
X0052900Y0084545D02*
X0060900Y0084545D01*
X0060900Y0082946D02*
X0052900Y0082946D01*
X0053662Y0081348D02*
X0060900Y0081348D01*
X0060900Y0079749D02*
X0055261Y0079749D01*
X0056859Y0078151D02*
X0060900Y0078151D01*
X0060900Y0076552D02*
X0058300Y0076552D01*
X0058300Y0074954D02*
X0060900Y0074954D01*
X0060900Y0073355D02*
X0058300Y0073355D01*
X0058300Y0071757D02*
X0060900Y0071757D01*
X0060900Y0070158D02*
X0058300Y0070158D01*
X0058300Y0068560D02*
X0060900Y0068560D01*
X0060900Y0066961D02*
X0058300Y0066961D01*
X0058300Y0065363D02*
X0060900Y0065363D01*
X0060900Y0063764D02*
X0058300Y0063764D01*
X0058300Y0062166D02*
X0060900Y0062166D01*
X0060900Y0060567D02*
X0058552Y0060567D01*
X0060408Y0058969D02*
X0061633Y0058969D01*
X0068552Y0060567D02*
X0074238Y0060567D01*
X0074404Y0060688D02*
X0073822Y0060265D01*
X0073313Y0059756D01*
X0072890Y0059174D01*
X0072563Y0058532D01*
X0072341Y0057848D01*
X0072228Y0057137D01*
X0072228Y0054092D01*
X0076714Y0054092D01*
X0076714Y0061349D01*
X0076440Y0061349D01*
X0075729Y0061237D01*
X0075045Y0061014D01*
X0074404Y0060688D01*
X0076714Y0060567D02*
X0076886Y0060567D01*
X0076886Y0061349D02*
X0076886Y0054092D01*
X0076714Y0054092D01*
X0076714Y0053920D01*
X0072228Y0053920D01*
X0072228Y0050874D01*
X0072341Y0050164D01*
X0072563Y0049479D01*
X0072890Y0048838D01*
X0073313Y0048256D01*
X0073822Y0047747D01*
X0074404Y0047324D01*
X0075045Y0046998D01*
X0075729Y0046775D01*
X0076440Y0046663D01*
X0076714Y0046663D01*
X0076714Y0053920D01*
X0076886Y0053920D01*
X0076886Y0054092D01*
X0081372Y0054092D01*
X0081372Y0057137D01*
X0081259Y0057848D01*
X0081037Y0058532D01*
X0080710Y0059174D01*
X0080287Y0059756D01*
X0079778Y0060265D01*
X0079196Y0060688D01*
X0078555Y0061014D01*
X0077871Y0061237D01*
X0077160Y0061349D01*
X0076886Y0061349D01*
X0076886Y0058969D02*
X0076714Y0058969D01*
X0076714Y0057370D02*
X0076886Y0057370D01*
X0076886Y0055772D02*
X0076714Y0055772D01*
X0076714Y0054173D02*
X0076886Y0054173D01*
X0076886Y0053920D02*
X0081372Y0053920D01*
X0081372Y0050874D01*
X0081259Y0050164D01*
X0081037Y0049479D01*
X0080710Y0048838D01*
X0080287Y0048256D01*
X0079778Y0047747D01*
X0079196Y0047324D01*
X0078555Y0046998D01*
X0077871Y0046775D01*
X0077160Y0046663D01*
X0076886Y0046663D01*
X0076886Y0053920D01*
X0076886Y0052575D02*
X0076714Y0052575D01*
X0076714Y0050976D02*
X0076886Y0050976D01*
X0076886Y0049378D02*
X0076714Y0049378D01*
X0076714Y0047779D02*
X0076886Y0047779D01*
X0079810Y0047779D02*
X0115000Y0047779D01*
X0115000Y0049378D02*
X0080985Y0049378D01*
X0081372Y0050976D02*
X0115000Y0050976D01*
X0115000Y0052575D02*
X0081372Y0052575D01*
X0081372Y0054173D02*
X0115000Y0054173D01*
X0115000Y0055772D02*
X0081372Y0055772D01*
X0081335Y0057370D02*
X0115000Y0057370D01*
X0115000Y0058969D02*
X0080814Y0058969D01*
X0079362Y0060567D02*
X0115000Y0060567D01*
X0115000Y0100530D02*
X0087417Y0100530D01*
X0089051Y0102128D02*
X0115000Y0102128D01*
X0115000Y0103727D02*
X0089116Y0103727D01*
X0087794Y0105326D02*
X0115000Y0105326D01*
X0079889Y0134099D02*
X0078700Y0134099D01*
X0078700Y0135697D02*
X0080100Y0135697D01*
X0080100Y0137296D02*
X0078700Y0137296D01*
X0078700Y0138894D02*
X0080100Y0138894D01*
X0080100Y0140493D02*
X0078700Y0140493D01*
X0078700Y0142091D02*
X0080100Y0142091D01*
X0080100Y0143690D02*
X0078700Y0143690D01*
X0078700Y0145288D02*
X0080100Y0145288D01*
X0080100Y0146887D02*
X0079599Y0146887D01*
X0079367Y0148485D02*
X0080100Y0148485D01*
X0080100Y0150084D02*
X0074632Y0150084D01*
X0074633Y0148485D02*
X0073900Y0148485D01*
X0073900Y0146887D02*
X0074401Y0146887D01*
X0073900Y0145288D02*
X0075300Y0145288D01*
X0075300Y0143690D02*
X0073900Y0143690D01*
X0073900Y0142091D02*
X0075300Y0142091D01*
X0075300Y0140493D02*
X0073900Y0140493D01*
X0073900Y0138894D02*
X0075300Y0138894D01*
X0075300Y0137296D02*
X0073900Y0137296D01*
X0073900Y0135697D02*
X0075300Y0135697D01*
X0075300Y0134099D02*
X0073900Y0134099D01*
X0073900Y0132500D02*
X0075300Y0132500D01*
X0074892Y0130902D02*
X0073900Y0130902D01*
X0069300Y0132500D02*
X0062500Y0132500D01*
X0062500Y0130902D02*
X0068292Y0130902D01*
X0066693Y0129303D02*
X0062780Y0129303D01*
X0063004Y0129079D02*
X0062500Y0129583D01*
X0062500Y0145502D01*
X0062500Y0146910D01*
X0057700Y0151710D01*
X0056704Y0152706D01*
X0056177Y0152706D01*
X0055673Y0153210D01*
X0054717Y0153606D01*
X0053683Y0153606D01*
X0052727Y0153210D01*
X0051996Y0152479D01*
X0051600Y0151523D01*
X0051600Y0150489D01*
X0051996Y0149533D01*
X0052727Y0148802D01*
X0053683Y0148406D01*
X0054717Y0148406D01*
X0055673Y0148802D01*
X0055736Y0148865D01*
X0059100Y0145502D01*
X0059100Y0129583D01*
X0058596Y0129079D01*
X0058200Y0128123D01*
X0058200Y0127089D01*
X0058596Y0126133D01*
X0059327Y0125402D01*
X0060283Y0125006D01*
X0061317Y0125006D01*
X0062273Y0125402D01*
X0063004Y0126133D01*
X0063400Y0127089D01*
X0063400Y0128123D01*
X0063004Y0129079D01*
X0063400Y0127705D02*
X0065095Y0127705D01*
X0063496Y0126106D02*
X0062977Y0126106D01*
X0061898Y0124508D02*
X0055300Y0124508D01*
X0055300Y0126106D02*
X0058623Y0126106D01*
X0058200Y0127705D02*
X0055300Y0127705D01*
X0055300Y0129303D02*
X0058820Y0129303D01*
X0059100Y0130902D02*
X0055300Y0130902D01*
X0055300Y0132500D02*
X0059100Y0132500D01*
X0059100Y0134099D02*
X0055300Y0134099D01*
X0055300Y0135697D02*
X0059100Y0135697D01*
X0059100Y0137296D02*
X0055300Y0137296D01*
X0055300Y0138894D02*
X0059100Y0138894D01*
X0059100Y0140493D02*
X0055300Y0140493D01*
X0055300Y0142091D02*
X0059100Y0142091D01*
X0059100Y0143690D02*
X0055300Y0143690D01*
X0054522Y0145288D02*
X0059100Y0145288D01*
X0057715Y0146887D02*
X0052923Y0146887D01*
X0053491Y0148485D02*
X0051325Y0148485D01*
X0051768Y0150084D02*
X0049726Y0150084D01*
X0048128Y0151682D02*
X0051666Y0151682D01*
X0052898Y0153281D02*
X0046529Y0153281D01*
X0044931Y0154879D02*
X0059322Y0154879D01*
X0057724Y0156478D02*
X0043600Y0156478D01*
X0043006Y0158076D02*
X0056125Y0158076D01*
X0058544Y0161273D02*
X0069728Y0161273D01*
X0071327Y0159675D02*
X0059335Y0159675D01*
X0060934Y0158076D02*
X0072925Y0158076D01*
X0074524Y0156478D02*
X0062532Y0156478D01*
X0064131Y0154879D02*
X0076122Y0154879D01*
X0077721Y0153281D02*
X0073502Y0153281D01*
X0074734Y0151682D02*
X0079319Y0151682D01*
X0070898Y0153281D02*
X0070502Y0153281D01*
X0067898Y0153281D02*
X0065729Y0153281D01*
X0064118Y0150084D02*
X0059326Y0150084D01*
X0057728Y0151682D02*
X0062519Y0151682D01*
X0060921Y0153281D02*
X0055502Y0153281D01*
X0054909Y0148485D02*
X0056116Y0148485D01*
X0060925Y0148485D02*
X0065716Y0148485D01*
X0066249Y0146887D02*
X0062500Y0146887D01*
X0062500Y0145288D02*
X0069300Y0145288D01*
X0069300Y0143690D02*
X0062500Y0143690D01*
X0062500Y0142091D02*
X0069300Y0142091D01*
X0069300Y0140493D02*
X0062500Y0140493D01*
X0062500Y0138894D02*
X0069300Y0138894D01*
X0069300Y0137296D02*
X0062500Y0137296D01*
X0062500Y0135697D02*
X0069300Y0135697D01*
X0069300Y0134099D02*
X0062500Y0134099D01*
X0060299Y0122909D02*
X0055300Y0122909D01*
X0055300Y0121311D02*
X0058701Y0121311D01*
X0057102Y0119712D02*
X0055300Y0119712D01*
X0051900Y0119712D02*
X0048700Y0119712D01*
X0048700Y0118114D02*
X0051327Y0118114D01*
X0051000Y0116515D02*
X0049168Y0116515D01*
X0049600Y0114917D02*
X0051812Y0114917D01*
X0049435Y0113318D02*
X0048989Y0113318D01*
X0052900Y0106924D02*
X0055500Y0106924D01*
X0055500Y0105326D02*
X0052900Y0105326D01*
X0052900Y0103727D02*
X0055500Y0103727D01*
X0055500Y0102128D02*
X0052900Y0102128D01*
X0052900Y0100530D02*
X0055500Y0100530D01*
X0055500Y0098931D02*
X0052900Y0098931D01*
X0052900Y0097333D02*
X0055500Y0097333D01*
X0054605Y0095734D02*
X0052900Y0095734D01*
X0052900Y0094136D02*
X0054829Y0094136D01*
X0044121Y0078151D02*
X0037300Y0078151D01*
X0037300Y0076552D02*
X0045620Y0076552D01*
X0047119Y0074954D02*
X0037300Y0074954D01*
X0037300Y0073355D02*
X0048617Y0073355D01*
X0049800Y0071757D02*
X0037300Y0071757D01*
X0037300Y0070158D02*
X0050371Y0070158D01*
X0070408Y0058969D02*
X0072786Y0058969D01*
X0072265Y0057370D02*
X0070972Y0057370D01*
X0070972Y0055772D02*
X0072228Y0055772D01*
X0072228Y0054173D02*
X0070972Y0054173D01*
X0070972Y0052575D02*
X0072228Y0052575D01*
X0072228Y0050976D02*
X0070972Y0050976D01*
X0070546Y0049378D02*
X0072615Y0049378D01*
X0073790Y0047779D02*
X0069244Y0047779D01*
X0051900Y0121311D02*
X0048700Y0121311D01*
X0048700Y0122909D02*
X0051900Y0122909D01*
X0051900Y0124508D02*
X0048700Y0124508D01*
X0048700Y0126106D02*
X0051900Y0126106D01*
X0051900Y0127705D02*
X0048700Y0127705D01*
X0048700Y0129303D02*
X0051900Y0129303D01*
X0051900Y0130902D02*
X0048700Y0130902D01*
X0048700Y0132500D02*
X0051900Y0132500D01*
X0051900Y0134099D02*
X0048700Y0134099D01*
X0048700Y0135697D02*
X0051900Y0135697D01*
X0051900Y0137296D02*
X0048700Y0137296D01*
X0048700Y0138894D02*
X0051900Y0138894D01*
X0051900Y0140493D02*
X0048700Y0140493D01*
X0048700Y0142091D02*
X0051900Y0142091D01*
X0051312Y0143690D02*
X0048700Y0143690D01*
X0047922Y0145288D02*
X0049713Y0145288D01*
X0048115Y0146887D02*
X0046323Y0146887D01*
X0046516Y0148485D02*
X0044725Y0148485D01*
X0044918Y0150084D02*
X0043126Y0150084D01*
X0043319Y0151682D02*
X0042334Y0151682D01*
X0041721Y0153281D02*
X0041102Y0153281D01*
X0052343Y0162872D02*
X0054000Y0162872D01*
X0054392Y0164470D02*
X0053200Y0164470D01*
X0054267Y0166069D02*
X0064933Y0166069D01*
X0066531Y0164470D02*
X0058808Y0164470D01*
X0059200Y0162872D02*
X0068130Y0162872D01*
X0071340Y0164470D02*
X0089393Y0164470D01*
X0045300Y0132500D02*
X0044583Y0132500D01*
X0045075Y0129303D02*
X0045300Y0129303D01*
X0045300Y0127705D02*
X0043900Y0127705D01*
X0043900Y0126106D02*
X0045300Y0126106D01*
X0045300Y0124508D02*
X0043900Y0124508D01*
X0043900Y0122909D02*
X0045300Y0122909D01*
X0045300Y0121311D02*
X0043900Y0121311D01*
M02*
