G75*
%MOIN*%
%OFA0B0*%
%FSLAX25Y25*%
%IPPOS*%
%LPD*%
%AMOC8*
5,1,8,0,0,1.08239X$1,22.5*
%
%ADD10OC8,0.05150*%
%ADD11C,0.07400*%
%ADD12C,0.06000*%
%ADD13OC8,0.07600*%
%ADD14C,0.07050*%
%ADD15C,0.06600*%
%ADD16C,0.05543*%
%ADD17C,0.11811*%
%ADD18C,0.01600*%
%ADD19C,0.04356*%
%ADD20C,0.01000*%
%ADD21C,0.02400*%
D10*
X0169000Y0091063D03*
X0169000Y0098937D03*
D11*
X0192750Y0110000D03*
X0214000Y0110000D03*
X0192750Y0140000D03*
X0192750Y0080000D03*
X0214000Y0080000D03*
X0192750Y0050000D03*
D12*
X0059500Y0057500D02*
X0053500Y0057500D01*
X0053500Y0067500D02*
X0059500Y0067500D01*
X0059500Y0077500D02*
X0053500Y0077500D01*
X0053500Y0087500D02*
X0059500Y0087500D01*
X0059500Y0107500D02*
X0053500Y0107500D01*
X0053500Y0117500D02*
X0059500Y0117500D01*
X0059500Y0127500D02*
X0053500Y0127500D01*
X0053500Y0137500D02*
X0059500Y0137500D01*
D13*
X0054000Y0204500D03*
X0044000Y0205500D03*
X0034000Y0204500D03*
X0024000Y0205500D03*
X0064000Y0205500D03*
X0074000Y0204500D03*
X0084000Y0205500D03*
X0094000Y0204500D03*
X0110000Y0205500D03*
X0120000Y0204500D03*
X0130000Y0205500D03*
X0140000Y0204500D03*
X0150000Y0205500D03*
X0160000Y0204500D03*
X0170000Y0205500D03*
X0180000Y0204500D03*
X0190000Y0205500D03*
X0200000Y0204500D03*
X0154000Y0015500D03*
X0164000Y0014500D03*
X0144000Y0014500D03*
X0134000Y0015500D03*
X0124000Y0014500D03*
X0114000Y0015500D03*
X0104000Y0014500D03*
X0094000Y0015500D03*
X0074000Y0014500D03*
X0064000Y0015500D03*
X0054000Y0014500D03*
X0044000Y0015500D03*
X0034000Y0014500D03*
X0024000Y0015500D03*
D14*
X0250475Y0085157D02*
X0257525Y0085157D01*
X0257525Y0104843D02*
X0250475Y0104843D01*
D15*
X0086500Y0112500D03*
X0086500Y0122500D03*
X0086500Y0132500D03*
X0086500Y0082500D03*
X0086500Y0072500D03*
X0086500Y0062500D03*
D16*
X0118685Y0106752D03*
X0129315Y0106752D03*
X0129315Y0122500D03*
X0118685Y0122500D03*
X0118685Y0138248D03*
X0129315Y0138248D03*
D17*
X0124000Y0154980D03*
X0124000Y0090020D03*
D18*
X0129315Y0106752D02*
X0130250Y0107500D01*
X0142750Y0120000D01*
X0142750Y0172500D01*
X0140250Y0175000D01*
X0140250Y0203750D01*
X0140000Y0204500D01*
X0130250Y0205500D02*
X0130000Y0205500D01*
X0130250Y0205500D02*
X0130250Y0175000D01*
X0136500Y0168750D01*
X0136500Y0120000D01*
X0130250Y0113750D01*
X0125250Y0113750D01*
X0119000Y0107500D01*
X0118685Y0106752D01*
X0118685Y0122500D02*
X0114000Y0122500D01*
X0096500Y0140000D01*
X0079000Y0140000D01*
X0066500Y0127500D01*
X0056500Y0127500D01*
X0056500Y0137500D02*
X0072750Y0137500D01*
X0077750Y0142500D01*
X0097750Y0142500D01*
X0111500Y0128750D01*
X0122750Y0128750D01*
X0129000Y0122500D01*
X0129315Y0122500D01*
X0129315Y0138248D02*
X0129000Y0138750D01*
X0122750Y0145000D01*
X0107750Y0145000D01*
X0094000Y0158750D01*
X0066500Y0158750D01*
X0034000Y0191250D01*
X0034000Y0204500D01*
X0024000Y0205500D02*
X0024000Y0191250D01*
X0061500Y0153750D01*
X0092750Y0153750D01*
X0107750Y0138750D01*
X0117750Y0138750D01*
X0118685Y0138248D01*
X0167750Y0089813D02*
X0169000Y0091063D01*
X0167750Y0089813D02*
X0145250Y0067500D01*
X0115250Y0067500D01*
X0115250Y0056250D02*
X0150250Y0056250D01*
X0204000Y0110000D01*
X0214000Y0110000D01*
X0224000Y0110000D01*
X0229000Y0105000D01*
X0254000Y0105000D01*
X0254000Y0104843D01*
X0254000Y0085157D02*
X0254000Y0085000D01*
X0229000Y0085000D01*
X0224000Y0080000D01*
X0214000Y0080000D01*
X0192750Y0080000D01*
X0124000Y0015000D02*
X0124000Y0014500D01*
X0056500Y0077500D02*
X0049000Y0077500D01*
X0034000Y0062500D01*
X0034000Y0014500D01*
X0024000Y0015500D02*
X0024000Y0062500D01*
X0049000Y0087500D01*
X0056500Y0087500D01*
D19*
X0115250Y0067500D03*
X0115250Y0056250D03*
D20*
X0031788Y0009500D02*
X0018500Y0009500D01*
X0018500Y0015895D01*
X0017815Y0017549D01*
X0016549Y0018815D01*
X0008500Y0026864D01*
X0008500Y0152136D01*
X0017815Y0161451D01*
X0018500Y0163105D01*
X0018500Y0207136D01*
X0018900Y0207536D01*
X0018900Y0203388D01*
X0021888Y0200400D01*
X0021900Y0200400D01*
X0021900Y0190380D01*
X0023130Y0189150D01*
X0060630Y0151650D01*
X0091880Y0151650D01*
X0106880Y0136650D01*
X0114940Y0136650D01*
X0115233Y0135942D01*
X0116379Y0134796D01*
X0117875Y0134176D01*
X0119495Y0134176D01*
X0120991Y0134796D01*
X0122137Y0135942D01*
X0122757Y0137438D01*
X0122757Y0139058D01*
X0122137Y0140554D01*
X0120991Y0141700D01*
X0119495Y0142320D01*
X0117875Y0142320D01*
X0116379Y0141700D01*
X0115529Y0140850D01*
X0108620Y0140850D01*
X0094850Y0154620D01*
X0093620Y0155850D01*
X0062370Y0155850D01*
X0026100Y0192120D01*
X0026100Y0200400D01*
X0026112Y0200400D01*
X0028900Y0203188D01*
X0028900Y0202388D01*
X0031888Y0199400D01*
X0031900Y0199400D01*
X0031900Y0190380D01*
X0033130Y0189150D01*
X0065630Y0156650D01*
X0093130Y0156650D01*
X0106880Y0142900D01*
X0121880Y0142900D01*
X0125384Y0139397D01*
X0125243Y0139058D01*
X0125243Y0137438D01*
X0125863Y0135942D01*
X0127009Y0134796D01*
X0128505Y0134176D01*
X0130125Y0134176D01*
X0131621Y0134796D01*
X0132767Y0135942D01*
X0133387Y0137438D01*
X0133387Y0139058D01*
X0132767Y0140554D01*
X0131621Y0141700D01*
X0130125Y0142320D01*
X0128505Y0142320D01*
X0128431Y0142289D01*
X0124850Y0145870D01*
X0123620Y0147100D01*
X0108620Y0147100D01*
X0096100Y0159620D01*
X0094870Y0160850D01*
X0067370Y0160850D01*
X0036100Y0192120D01*
X0036100Y0199400D01*
X0036112Y0199400D01*
X0039100Y0202388D01*
X0039100Y0203188D01*
X0041888Y0200400D01*
X0046112Y0200400D01*
X0048900Y0203188D01*
X0048900Y0202388D01*
X0051888Y0199400D01*
X0056112Y0199400D01*
X0059100Y0202388D01*
X0059100Y0203188D01*
X0061888Y0200400D01*
X0066112Y0200400D01*
X0068900Y0203188D01*
X0068900Y0202388D01*
X0071888Y0199400D01*
X0076112Y0199400D01*
X0079100Y0202388D01*
X0079100Y0203188D01*
X0081888Y0200400D01*
X0086112Y0200400D01*
X0088900Y0203188D01*
X0088900Y0202388D01*
X0091888Y0199400D01*
X0096112Y0199400D01*
X0099100Y0202388D01*
X0099100Y0206612D01*
X0096112Y0209600D01*
X0091888Y0209600D01*
X0089100Y0206812D01*
X0089100Y0207612D01*
X0086212Y0210500D01*
X0107788Y0210500D01*
X0104900Y0207612D01*
X0104900Y0203388D01*
X0107888Y0200400D01*
X0112112Y0200400D01*
X0114900Y0203188D01*
X0114900Y0202388D01*
X0117888Y0199400D01*
X0122112Y0199400D01*
X0125100Y0202388D01*
X0125100Y0203188D01*
X0127888Y0200400D01*
X0128150Y0200400D01*
X0128150Y0174130D01*
X0129380Y0172900D01*
X0134400Y0167880D01*
X0134400Y0120870D01*
X0129380Y0115850D01*
X0124380Y0115850D01*
X0123150Y0114620D01*
X0119354Y0110824D01*
X0117875Y0110824D01*
X0116379Y0110204D01*
X0115233Y0109058D01*
X0114613Y0107562D01*
X0114613Y0105942D01*
X0115233Y0104446D01*
X0116379Y0103300D01*
X0117875Y0102680D01*
X0119495Y0102680D01*
X0120991Y0103300D01*
X0122137Y0104446D01*
X0122757Y0105942D01*
X0122757Y0107562D01*
X0122544Y0108074D01*
X0126120Y0111650D01*
X0131120Y0111650D01*
X0132350Y0112880D01*
X0132350Y0112880D01*
X0137370Y0117900D01*
X0137370Y0117900D01*
X0138600Y0119130D01*
X0138600Y0169620D01*
X0132350Y0175870D01*
X0132350Y0200638D01*
X0134900Y0203188D01*
X0134900Y0202388D01*
X0137888Y0199400D01*
X0138150Y0199400D01*
X0138150Y0174130D01*
X0139380Y0172900D01*
X0140650Y0171630D01*
X0140650Y0120870D01*
X0130464Y0110683D01*
X0130125Y0110824D01*
X0128505Y0110824D01*
X0127009Y0110204D01*
X0125863Y0109058D01*
X0125243Y0107562D01*
X0125243Y0105942D01*
X0125863Y0104446D01*
X0127009Y0103300D01*
X0128505Y0102680D01*
X0130125Y0102680D01*
X0131621Y0103300D01*
X0132767Y0104446D01*
X0133387Y0105942D01*
X0133387Y0107562D01*
X0133356Y0107636D01*
X0143620Y0117900D01*
X0144850Y0119130D01*
X0144850Y0173370D01*
X0142350Y0175870D01*
X0142350Y0199638D01*
X0145100Y0202388D01*
X0145100Y0203188D01*
X0147888Y0200400D01*
X0152112Y0200400D01*
X0154900Y0203188D01*
X0154900Y0202388D01*
X0157888Y0199400D01*
X0162112Y0199400D01*
X0165100Y0202388D01*
X0165100Y0202905D01*
X0167805Y0200200D01*
X0169500Y0200200D01*
X0169500Y0205000D01*
X0170500Y0205000D01*
X0170500Y0200200D01*
X0172195Y0200200D01*
X0174900Y0202905D01*
X0174900Y0202388D01*
X0177888Y0199400D01*
X0182112Y0199400D01*
X0185100Y0202388D01*
X0185100Y0203188D01*
X0187888Y0200400D01*
X0192112Y0200400D01*
X0194900Y0203188D01*
X0194900Y0202388D01*
X0197888Y0199400D01*
X0202112Y0199400D01*
X0205100Y0202388D01*
X0205100Y0206612D01*
X0202112Y0209600D01*
X0197888Y0209600D01*
X0195100Y0206812D01*
X0195100Y0207612D01*
X0192212Y0210500D01*
X0269500Y0210500D01*
X0269500Y0009500D01*
X0166212Y0009500D01*
X0169100Y0012388D01*
X0169100Y0016612D01*
X0166112Y0019600D01*
X0161888Y0019600D01*
X0159100Y0016812D01*
X0159100Y0017612D01*
X0156112Y0020600D01*
X0151888Y0020600D01*
X0148900Y0017612D01*
X0148900Y0016812D01*
X0146112Y0019600D01*
X0141888Y0019600D01*
X0139100Y0016812D01*
X0139100Y0017612D01*
X0136112Y0020600D01*
X0133136Y0020600D01*
X0151286Y0038750D01*
X0184497Y0038750D01*
X0185416Y0039131D01*
X0191423Y0045138D01*
X0191755Y0045000D01*
X0193745Y0045000D01*
X0195582Y0045761D01*
X0196989Y0047168D01*
X0197750Y0049005D01*
X0197750Y0050995D01*
X0196989Y0052832D01*
X0195582Y0054239D01*
X0193745Y0055000D01*
X0191755Y0055000D01*
X0189918Y0054239D01*
X0188511Y0052832D01*
X0187750Y0050995D01*
X0187750Y0049005D01*
X0187888Y0048673D01*
X0182964Y0043750D01*
X0149753Y0043750D01*
X0148834Y0043369D01*
X0148131Y0042666D01*
X0125064Y0019600D01*
X0122936Y0019600D01*
X0089000Y0053536D01*
X0089000Y0058557D01*
X0089106Y0058600D01*
X0090400Y0059894D01*
X0091100Y0061585D01*
X0091100Y0063415D01*
X0091056Y0063521D01*
X0095416Y0067881D01*
X0095416Y0067881D01*
X0096119Y0068584D01*
X0096500Y0069503D01*
X0096500Y0105497D01*
X0096119Y0106416D01*
X0091056Y0111479D01*
X0091100Y0111585D01*
X0091100Y0113415D01*
X0090400Y0115106D01*
X0089106Y0116400D01*
X0087415Y0117100D01*
X0085585Y0117100D01*
X0083894Y0116400D01*
X0082600Y0115106D01*
X0081900Y0113415D01*
X0081900Y0111585D01*
X0082600Y0109894D01*
X0083894Y0108600D01*
X0085585Y0107900D01*
X0087415Y0107900D01*
X0087521Y0107944D01*
X0091500Y0103964D01*
X0091500Y0071036D01*
X0090429Y0069964D01*
X0091100Y0071585D01*
X0091100Y0073415D01*
X0090400Y0075106D01*
X0089106Y0076400D01*
X0087415Y0077100D01*
X0085585Y0077100D01*
X0083894Y0076400D01*
X0082600Y0075106D01*
X0082557Y0075000D01*
X0073503Y0075000D01*
X0072584Y0074619D01*
X0067964Y0070000D01*
X0063081Y0070000D01*
X0061936Y0071145D01*
X0060355Y0071800D01*
X0052645Y0071800D01*
X0051064Y0071145D01*
X0049855Y0069936D01*
X0049200Y0068355D01*
X0049200Y0066645D01*
X0049855Y0065064D01*
X0051064Y0063855D01*
X0052645Y0063200D01*
X0060355Y0063200D01*
X0061936Y0063855D01*
X0063081Y0065000D01*
X0069497Y0065000D01*
X0070416Y0065381D01*
X0071119Y0066084D01*
X0075036Y0070000D01*
X0082557Y0070000D01*
X0082600Y0069894D01*
X0083894Y0068600D01*
X0085585Y0067900D01*
X0087415Y0067900D01*
X0089036Y0068571D01*
X0087521Y0067056D01*
X0087415Y0067100D01*
X0085585Y0067100D01*
X0083894Y0066400D01*
X0082600Y0065106D01*
X0081900Y0063415D01*
X0081900Y0061585D01*
X0082600Y0059894D01*
X0083894Y0058600D01*
X0084000Y0058557D01*
X0084000Y0052003D01*
X0084381Y0051084D01*
X0085084Y0050381D01*
X0114664Y0020800D01*
X0114500Y0020800D01*
X0114500Y0016000D01*
X0113500Y0016000D01*
X0113500Y0020800D01*
X0111805Y0020800D01*
X0108700Y0017695D01*
X0108700Y0017295D01*
X0106195Y0019800D01*
X0104500Y0019800D01*
X0104500Y0015000D01*
X0103500Y0015000D01*
X0103500Y0019800D01*
X0101805Y0019800D01*
X0099100Y0017095D01*
X0099100Y0017612D01*
X0096112Y0020600D01*
X0091888Y0020600D01*
X0088900Y0017612D01*
X0088900Y0013388D01*
X0091888Y0010400D01*
X0096112Y0010400D01*
X0098700Y0012988D01*
X0098700Y0012305D01*
X0101505Y0009500D01*
X0076212Y0009500D01*
X0079100Y0012388D01*
X0079100Y0016612D01*
X0076112Y0019600D01*
X0071888Y0019600D01*
X0069100Y0016812D01*
X0069100Y0017612D01*
X0066112Y0020600D01*
X0061888Y0020600D01*
X0058900Y0017612D01*
X0058900Y0016812D01*
X0056112Y0019600D01*
X0051888Y0019600D01*
X0049100Y0016812D01*
X0049100Y0017612D01*
X0046112Y0020600D01*
X0041888Y0020600D01*
X0038900Y0017612D01*
X0038900Y0016812D01*
X0036112Y0019600D01*
X0036100Y0019600D01*
X0036100Y0061630D01*
X0049761Y0075291D01*
X0049855Y0075064D01*
X0051064Y0073855D01*
X0052645Y0073200D01*
X0060355Y0073200D01*
X0061936Y0073855D01*
X0063145Y0075064D01*
X0063800Y0076645D01*
X0063800Y0078355D01*
X0063145Y0079936D01*
X0061936Y0081145D01*
X0060355Y0081800D01*
X0052645Y0081800D01*
X0051064Y0081145D01*
X0049855Y0079936D01*
X0049716Y0079600D01*
X0048130Y0079600D01*
X0033130Y0064600D01*
X0031900Y0063370D01*
X0031900Y0019600D01*
X0031888Y0019600D01*
X0029100Y0016812D01*
X0029100Y0017612D01*
X0026112Y0020600D01*
X0026100Y0020600D01*
X0026100Y0061630D01*
X0049761Y0085291D01*
X0049855Y0085064D01*
X0051064Y0083855D01*
X0052645Y0083200D01*
X0060355Y0083200D01*
X0061936Y0083855D01*
X0063145Y0085064D01*
X0063800Y0086645D01*
X0063800Y0088355D01*
X0063145Y0089936D01*
X0061936Y0091145D01*
X0060355Y0091800D01*
X0052645Y0091800D01*
X0051064Y0091145D01*
X0049855Y0089936D01*
X0049716Y0089600D01*
X0048130Y0089600D01*
X0046900Y0088370D01*
X0021900Y0063370D01*
X0021900Y0020600D01*
X0021888Y0020600D01*
X0018900Y0017612D01*
X0018900Y0013388D01*
X0021888Y0010400D01*
X0026112Y0010400D01*
X0028900Y0013188D01*
X0028900Y0012388D01*
X0031788Y0009500D01*
X0031295Y0009993D02*
X0018500Y0009993D01*
X0018500Y0010991D02*
X0021296Y0010991D01*
X0020298Y0011990D02*
X0018500Y0011990D01*
X0018500Y0012988D02*
X0019299Y0012988D01*
X0018900Y0013987D02*
X0018500Y0013987D01*
X0018500Y0014985D02*
X0018900Y0014985D01*
X0018900Y0015984D02*
X0018463Y0015984D01*
X0018050Y0016982D02*
X0018900Y0016982D01*
X0019268Y0017981D02*
X0017383Y0017981D01*
X0016385Y0018979D02*
X0020267Y0018979D01*
X0021265Y0019978D02*
X0015386Y0019978D01*
X0014388Y0020976D02*
X0021900Y0020976D01*
X0021900Y0021975D02*
X0013389Y0021975D01*
X0012391Y0022973D02*
X0021900Y0022973D01*
X0021900Y0023972D02*
X0011392Y0023972D01*
X0010394Y0024970D02*
X0021900Y0024970D01*
X0021900Y0025969D02*
X0009395Y0025969D01*
X0008500Y0026967D02*
X0021900Y0026967D01*
X0021900Y0027966D02*
X0008500Y0027966D01*
X0008500Y0028964D02*
X0021900Y0028964D01*
X0021900Y0029963D02*
X0008500Y0029963D01*
X0008500Y0030961D02*
X0021900Y0030961D01*
X0021900Y0031960D02*
X0008500Y0031960D01*
X0008500Y0032958D02*
X0021900Y0032958D01*
X0021900Y0033957D02*
X0008500Y0033957D01*
X0008500Y0034955D02*
X0021900Y0034955D01*
X0021900Y0035954D02*
X0008500Y0035954D01*
X0008500Y0036952D02*
X0021900Y0036952D01*
X0021900Y0037951D02*
X0008500Y0037951D01*
X0008500Y0038949D02*
X0021900Y0038949D01*
X0021900Y0039948D02*
X0008500Y0039948D01*
X0008500Y0040946D02*
X0021900Y0040946D01*
X0021900Y0041945D02*
X0008500Y0041945D01*
X0008500Y0042943D02*
X0021900Y0042943D01*
X0021900Y0043942D02*
X0008500Y0043942D01*
X0008500Y0044940D02*
X0021900Y0044940D01*
X0021900Y0045939D02*
X0008500Y0045939D01*
X0008500Y0046937D02*
X0021900Y0046937D01*
X0021900Y0047936D02*
X0008500Y0047936D01*
X0008500Y0048934D02*
X0021900Y0048934D01*
X0021900Y0049933D02*
X0008500Y0049933D01*
X0008500Y0050932D02*
X0021900Y0050932D01*
X0021900Y0051930D02*
X0008500Y0051930D01*
X0008500Y0052929D02*
X0021900Y0052929D01*
X0021900Y0053927D02*
X0008500Y0053927D01*
X0008500Y0054926D02*
X0021900Y0054926D01*
X0021900Y0055924D02*
X0008500Y0055924D01*
X0008500Y0056923D02*
X0021900Y0056923D01*
X0021900Y0057921D02*
X0008500Y0057921D01*
X0008500Y0058920D02*
X0021900Y0058920D01*
X0021900Y0059918D02*
X0008500Y0059918D01*
X0008500Y0060917D02*
X0021900Y0060917D01*
X0021900Y0061915D02*
X0008500Y0061915D01*
X0008500Y0062914D02*
X0021900Y0062914D01*
X0022442Y0063912D02*
X0008500Y0063912D01*
X0008500Y0064911D02*
X0023441Y0064911D01*
X0024439Y0065909D02*
X0008500Y0065909D01*
X0008500Y0066908D02*
X0025438Y0066908D01*
X0026436Y0067906D02*
X0008500Y0067906D01*
X0008500Y0068905D02*
X0027435Y0068905D01*
X0028433Y0069903D02*
X0008500Y0069903D01*
X0008500Y0070902D02*
X0029432Y0070902D01*
X0030430Y0071900D02*
X0008500Y0071900D01*
X0008500Y0072899D02*
X0031429Y0072899D01*
X0032427Y0073897D02*
X0008500Y0073897D01*
X0008500Y0074896D02*
X0033426Y0074896D01*
X0034424Y0075894D02*
X0008500Y0075894D01*
X0008500Y0076893D02*
X0035423Y0076893D01*
X0036421Y0077891D02*
X0008500Y0077891D01*
X0008500Y0078890D02*
X0037420Y0078890D01*
X0038419Y0079888D02*
X0008500Y0079888D01*
X0008500Y0080887D02*
X0039417Y0080887D01*
X0040416Y0081885D02*
X0008500Y0081885D01*
X0008500Y0082884D02*
X0041414Y0082884D01*
X0042413Y0083882D02*
X0008500Y0083882D01*
X0008500Y0084881D02*
X0043411Y0084881D01*
X0044410Y0085879D02*
X0008500Y0085879D01*
X0008500Y0086878D02*
X0045408Y0086878D01*
X0046407Y0087876D02*
X0008500Y0087876D01*
X0008500Y0088875D02*
X0047405Y0088875D01*
X0049829Y0089873D02*
X0008500Y0089873D01*
X0008500Y0090872D02*
X0050791Y0090872D01*
X0050038Y0084881D02*
X0049351Y0084881D01*
X0048352Y0083882D02*
X0051036Y0083882D01*
X0047354Y0082884D02*
X0081900Y0082884D01*
X0081900Y0083415D02*
X0081900Y0081585D01*
X0082600Y0079894D01*
X0083894Y0078600D01*
X0085585Y0077900D01*
X0087415Y0077900D01*
X0089106Y0078600D01*
X0090400Y0079894D01*
X0091100Y0081585D01*
X0091100Y0083415D01*
X0090400Y0085106D01*
X0089106Y0086400D01*
X0087415Y0087100D01*
X0085585Y0087100D01*
X0083894Y0086400D01*
X0082600Y0085106D01*
X0081900Y0083415D01*
X0082094Y0083882D02*
X0061964Y0083882D01*
X0062962Y0084881D02*
X0082507Y0084881D01*
X0083374Y0085879D02*
X0063483Y0085879D01*
X0063800Y0086878D02*
X0085049Y0086878D01*
X0087951Y0086878D02*
X0091500Y0086878D01*
X0091500Y0087876D02*
X0063800Y0087876D01*
X0063585Y0088875D02*
X0091500Y0088875D01*
X0091500Y0089873D02*
X0063171Y0089873D01*
X0062209Y0090872D02*
X0091500Y0090872D01*
X0091500Y0091870D02*
X0008500Y0091870D01*
X0008500Y0092869D02*
X0091500Y0092869D01*
X0091500Y0093868D02*
X0008500Y0093868D01*
X0008500Y0094866D02*
X0091500Y0094866D01*
X0091500Y0095865D02*
X0008500Y0095865D01*
X0008500Y0096863D02*
X0091500Y0096863D01*
X0091500Y0097862D02*
X0008500Y0097862D01*
X0008500Y0098860D02*
X0091500Y0098860D01*
X0091500Y0099859D02*
X0008500Y0099859D01*
X0008500Y0100857D02*
X0091500Y0100857D01*
X0091500Y0101856D02*
X0008500Y0101856D01*
X0008500Y0102854D02*
X0091500Y0102854D01*
X0091500Y0103853D02*
X0062136Y0103853D01*
X0061859Y0103651D02*
X0061227Y0103330D01*
X0060554Y0103111D01*
X0059854Y0103000D01*
X0057000Y0103000D01*
X0057000Y0107000D01*
X0056000Y0107000D01*
X0056000Y0108000D01*
X0057000Y0108000D01*
X0057000Y0112000D01*
X0059854Y0112000D01*
X0060554Y0111889D01*
X0061227Y0111670D01*
X0061859Y0111349D01*
X0062432Y0110932D01*
X0062932Y0110432D01*
X0063349Y0109859D01*
X0063670Y0109227D01*
X0063889Y0108554D01*
X0063977Y0108000D01*
X0057000Y0108000D01*
X0057000Y0107000D01*
X0063977Y0107000D01*
X0063889Y0106446D01*
X0063670Y0105773D01*
X0063349Y0105141D01*
X0062932Y0104568D01*
X0062432Y0104068D01*
X0061859Y0103651D01*
X0063138Y0104851D02*
X0090613Y0104851D01*
X0089615Y0105850D02*
X0063695Y0105850D01*
X0063953Y0106848D02*
X0088616Y0106848D01*
X0087618Y0107847D02*
X0057000Y0107847D01*
X0057000Y0108845D02*
X0056000Y0108845D01*
X0056000Y0108000D02*
X0056000Y0112000D01*
X0053146Y0112000D01*
X0052446Y0111889D01*
X0051773Y0111670D01*
X0051141Y0111349D01*
X0050568Y0110932D01*
X0050068Y0110432D01*
X0049651Y0109859D01*
X0049330Y0109227D01*
X0049111Y0108554D01*
X0049023Y0108000D01*
X0056000Y0108000D01*
X0056000Y0107847D02*
X0008500Y0107847D01*
X0008500Y0108845D02*
X0049205Y0108845D01*
X0049644Y0109844D02*
X0008500Y0109844D01*
X0008500Y0110842D02*
X0050478Y0110842D01*
X0052297Y0111841D02*
X0008500Y0111841D01*
X0008500Y0112839D02*
X0081900Y0112839D01*
X0081900Y0111841D02*
X0060703Y0111841D01*
X0060355Y0113200D02*
X0052645Y0113200D01*
X0051064Y0113855D01*
X0049855Y0115064D01*
X0049200Y0116645D01*
X0049200Y0118355D01*
X0049855Y0119936D01*
X0051064Y0121145D01*
X0052645Y0121800D01*
X0060355Y0121800D01*
X0061936Y0121145D01*
X0063081Y0120000D01*
X0065464Y0120000D01*
X0070084Y0124619D01*
X0071003Y0125000D01*
X0082557Y0125000D01*
X0082600Y0125106D01*
X0083894Y0126400D01*
X0085585Y0127100D01*
X0087415Y0127100D01*
X0089106Y0126400D01*
X0090400Y0125106D01*
X0091100Y0123415D01*
X0091100Y0121585D01*
X0090400Y0119894D01*
X0089106Y0118600D01*
X0087415Y0117900D01*
X0085585Y0117900D01*
X0083894Y0118600D01*
X0082600Y0119894D01*
X0082557Y0120000D01*
X0072536Y0120000D01*
X0068619Y0116084D01*
X0067916Y0115381D01*
X0066997Y0115000D01*
X0063081Y0115000D01*
X0061936Y0113855D01*
X0060355Y0113200D01*
X0061895Y0113838D02*
X0082075Y0113838D01*
X0082489Y0114836D02*
X0062917Y0114836D01*
X0062522Y0110842D02*
X0082208Y0110842D01*
X0082651Y0109844D02*
X0063356Y0109844D01*
X0063795Y0108845D02*
X0083649Y0108845D01*
X0083329Y0115835D02*
X0068370Y0115835D01*
X0069369Y0116833D02*
X0084941Y0116833D01*
X0083664Y0118830D02*
X0071366Y0118830D01*
X0070367Y0117832D02*
X0131362Y0117832D01*
X0131095Y0118830D02*
X0132360Y0118830D01*
X0131621Y0119048D02*
X0130125Y0118428D01*
X0128505Y0118428D01*
X0127009Y0119048D01*
X0125863Y0120194D01*
X0125243Y0121690D01*
X0125243Y0123287D01*
X0121880Y0126650D01*
X0112820Y0126650D01*
X0114870Y0124600D01*
X0115148Y0124600D01*
X0115233Y0124806D01*
X0116379Y0125952D01*
X0117875Y0126572D01*
X0119495Y0126572D01*
X0120991Y0125952D01*
X0122137Y0124806D01*
X0122757Y0123310D01*
X0122757Y0121690D01*
X0122137Y0120194D01*
X0120991Y0119048D01*
X0119495Y0118428D01*
X0117875Y0118428D01*
X0116379Y0119048D01*
X0115233Y0120194D01*
X0115148Y0120400D01*
X0113130Y0120400D01*
X0111900Y0121630D01*
X0095630Y0137900D01*
X0079870Y0137900D01*
X0067370Y0125400D01*
X0063284Y0125400D01*
X0063145Y0125064D01*
X0061936Y0123855D01*
X0060355Y0123200D01*
X0052645Y0123200D01*
X0051064Y0123855D01*
X0049855Y0125064D01*
X0049200Y0126645D01*
X0049200Y0128355D01*
X0049855Y0129936D01*
X0051064Y0131145D01*
X0052645Y0131800D01*
X0060355Y0131800D01*
X0061936Y0131145D01*
X0063145Y0129936D01*
X0063284Y0129600D01*
X0065630Y0129600D01*
X0071430Y0135400D01*
X0063284Y0135400D01*
X0063145Y0135064D01*
X0061936Y0133855D01*
X0060355Y0133200D01*
X0052645Y0133200D01*
X0051064Y0133855D01*
X0049855Y0135064D01*
X0049200Y0136645D01*
X0049200Y0138355D01*
X0049855Y0139936D01*
X0051064Y0141145D01*
X0052645Y0141800D01*
X0060355Y0141800D01*
X0061936Y0141145D01*
X0063145Y0139936D01*
X0063284Y0139600D01*
X0071880Y0139600D01*
X0075650Y0143370D01*
X0076880Y0144600D01*
X0098620Y0144600D01*
X0112370Y0130850D01*
X0123620Y0130850D01*
X0128076Y0126394D01*
X0128505Y0126572D01*
X0130125Y0126572D01*
X0131621Y0125952D01*
X0132767Y0124806D01*
X0133387Y0123310D01*
X0133387Y0121690D01*
X0132767Y0120194D01*
X0131621Y0119048D01*
X0132402Y0119829D02*
X0133359Y0119829D01*
X0133029Y0120827D02*
X0134357Y0120827D01*
X0134400Y0121826D02*
X0133387Y0121826D01*
X0133387Y0122824D02*
X0134400Y0122824D01*
X0134400Y0123823D02*
X0133174Y0123823D01*
X0132752Y0124821D02*
X0134400Y0124821D01*
X0134400Y0125820D02*
X0131753Y0125820D01*
X0134400Y0126818D02*
X0127651Y0126818D01*
X0126653Y0127817D02*
X0134400Y0127817D01*
X0134400Y0128815D02*
X0125654Y0128815D01*
X0124656Y0129814D02*
X0134400Y0129814D01*
X0134400Y0130812D02*
X0123657Y0130812D01*
X0121002Y0134806D02*
X0126998Y0134806D01*
X0126000Y0135805D02*
X0122000Y0135805D01*
X0122494Y0136803D02*
X0125506Y0136803D01*
X0125243Y0137802D02*
X0122757Y0137802D01*
X0122757Y0138801D02*
X0125243Y0138801D01*
X0124981Y0139799D02*
X0122450Y0139799D01*
X0121894Y0140798D02*
X0123983Y0140798D01*
X0122984Y0141796D02*
X0120759Y0141796D01*
X0121986Y0142795D02*
X0106675Y0142795D01*
X0105987Y0143793D02*
X0105677Y0143793D01*
X0104989Y0144792D02*
X0104678Y0144792D01*
X0103990Y0145790D02*
X0103680Y0145790D01*
X0102992Y0146789D02*
X0102681Y0146789D01*
X0101993Y0147787D02*
X0101683Y0147787D01*
X0100995Y0148786D02*
X0100684Y0148786D01*
X0099996Y0149784D02*
X0099686Y0149784D01*
X0098998Y0150783D02*
X0098687Y0150783D01*
X0097999Y0151781D02*
X0097689Y0151781D01*
X0097000Y0152780D02*
X0096690Y0152780D01*
X0096002Y0153778D02*
X0095692Y0153778D01*
X0095003Y0154777D02*
X0094693Y0154777D01*
X0094005Y0155775D02*
X0093695Y0155775D01*
X0096949Y0158771D02*
X0117771Y0158771D01*
X0117891Y0159062D02*
X0119918Y0161089D01*
X0122567Y0162186D01*
X0125433Y0162186D01*
X0128082Y0161089D01*
X0130109Y0159062D01*
X0131206Y0156414D01*
X0131206Y0153547D01*
X0130109Y0150899D01*
X0128082Y0148872D01*
X0125433Y0147775D01*
X0122567Y0147775D01*
X0119918Y0148872D01*
X0117891Y0150899D01*
X0116795Y0153547D01*
X0116795Y0156414D01*
X0117891Y0159062D01*
X0118599Y0159769D02*
X0095951Y0159769D01*
X0094952Y0160768D02*
X0119597Y0160768D01*
X0121554Y0161766D02*
X0066454Y0161766D01*
X0065455Y0162765D02*
X0134400Y0162765D01*
X0134400Y0163763D02*
X0064457Y0163763D01*
X0063458Y0164762D02*
X0134400Y0164762D01*
X0134400Y0165760D02*
X0062460Y0165760D01*
X0061461Y0166759D02*
X0134400Y0166759D01*
X0134400Y0167757D02*
X0060462Y0167757D01*
X0059464Y0168756D02*
X0133524Y0168756D01*
X0132526Y0169754D02*
X0058465Y0169754D01*
X0057467Y0170753D02*
X0131527Y0170753D01*
X0130529Y0171751D02*
X0056468Y0171751D01*
X0055470Y0172750D02*
X0129530Y0172750D01*
X0128532Y0173748D02*
X0054471Y0173748D01*
X0053473Y0174747D02*
X0128150Y0174747D01*
X0128150Y0175745D02*
X0052474Y0175745D01*
X0051476Y0176744D02*
X0128150Y0176744D01*
X0128150Y0177742D02*
X0050477Y0177742D01*
X0049479Y0178741D02*
X0128150Y0178741D01*
X0128150Y0179739D02*
X0048480Y0179739D01*
X0047482Y0180738D02*
X0128150Y0180738D01*
X0128150Y0181737D02*
X0046483Y0181737D01*
X0045485Y0182735D02*
X0128150Y0182735D01*
X0128150Y0183734D02*
X0044486Y0183734D01*
X0043488Y0184732D02*
X0128150Y0184732D01*
X0128150Y0185731D02*
X0042489Y0185731D01*
X0041491Y0186729D02*
X0128150Y0186729D01*
X0128150Y0187728D02*
X0040492Y0187728D01*
X0039494Y0188726D02*
X0128150Y0188726D01*
X0128150Y0189725D02*
X0038495Y0189725D01*
X0037497Y0190723D02*
X0128150Y0190723D01*
X0128150Y0191722D02*
X0036498Y0191722D01*
X0036100Y0192720D02*
X0128150Y0192720D01*
X0128150Y0193719D02*
X0036100Y0193719D01*
X0036100Y0194717D02*
X0128150Y0194717D01*
X0128150Y0195716D02*
X0036100Y0195716D01*
X0036100Y0196714D02*
X0128150Y0196714D01*
X0128150Y0197713D02*
X0036100Y0197713D01*
X0036100Y0198711D02*
X0128150Y0198711D01*
X0128150Y0199710D02*
X0122422Y0199710D01*
X0123421Y0200708D02*
X0127579Y0200708D01*
X0126581Y0201707D02*
X0124419Y0201707D01*
X0125100Y0202705D02*
X0125582Y0202705D01*
X0132421Y0200708D02*
X0136579Y0200708D01*
X0135581Y0201707D02*
X0133419Y0201707D01*
X0134418Y0202705D02*
X0134900Y0202705D01*
X0132350Y0199710D02*
X0137578Y0199710D01*
X0138150Y0198711D02*
X0132350Y0198711D01*
X0132350Y0197713D02*
X0138150Y0197713D01*
X0138150Y0196714D02*
X0132350Y0196714D01*
X0132350Y0195716D02*
X0138150Y0195716D01*
X0138150Y0194717D02*
X0132350Y0194717D01*
X0132350Y0193719D02*
X0138150Y0193719D01*
X0138150Y0192720D02*
X0132350Y0192720D01*
X0132350Y0191722D02*
X0138150Y0191722D01*
X0138150Y0190723D02*
X0132350Y0190723D01*
X0132350Y0189725D02*
X0138150Y0189725D01*
X0138150Y0188726D02*
X0132350Y0188726D01*
X0132350Y0187728D02*
X0138150Y0187728D01*
X0138150Y0186729D02*
X0132350Y0186729D01*
X0132350Y0185731D02*
X0138150Y0185731D01*
X0138150Y0184732D02*
X0132350Y0184732D01*
X0132350Y0183734D02*
X0138150Y0183734D01*
X0138150Y0182735D02*
X0132350Y0182735D01*
X0132350Y0181737D02*
X0138150Y0181737D01*
X0138150Y0180738D02*
X0132350Y0180738D01*
X0132350Y0179739D02*
X0138150Y0179739D01*
X0138150Y0178741D02*
X0132350Y0178741D01*
X0132350Y0177742D02*
X0138150Y0177742D01*
X0138150Y0176744D02*
X0132350Y0176744D01*
X0132474Y0175745D02*
X0138150Y0175745D01*
X0138150Y0174747D02*
X0133473Y0174747D01*
X0134471Y0173748D02*
X0138532Y0173748D01*
X0139530Y0172750D02*
X0135470Y0172750D01*
X0136468Y0171751D02*
X0140529Y0171751D01*
X0140650Y0170753D02*
X0137467Y0170753D01*
X0138465Y0169754D02*
X0140650Y0169754D01*
X0140650Y0168756D02*
X0138600Y0168756D01*
X0138600Y0167757D02*
X0140650Y0167757D01*
X0140650Y0166759D02*
X0138600Y0166759D01*
X0138600Y0165760D02*
X0140650Y0165760D01*
X0140650Y0164762D02*
X0138600Y0164762D01*
X0138600Y0163763D02*
X0140650Y0163763D01*
X0140650Y0162765D02*
X0138600Y0162765D01*
X0138600Y0161766D02*
X0140650Y0161766D01*
X0140650Y0160768D02*
X0138600Y0160768D01*
X0138600Y0159769D02*
X0140650Y0159769D01*
X0140650Y0158771D02*
X0138600Y0158771D01*
X0138600Y0157772D02*
X0140650Y0157772D01*
X0140650Y0156774D02*
X0138600Y0156774D01*
X0138600Y0155775D02*
X0140650Y0155775D01*
X0140650Y0154777D02*
X0138600Y0154777D01*
X0138600Y0153778D02*
X0140650Y0153778D01*
X0140650Y0152780D02*
X0138600Y0152780D01*
X0138600Y0151781D02*
X0140650Y0151781D01*
X0140650Y0150783D02*
X0138600Y0150783D01*
X0138600Y0149784D02*
X0140650Y0149784D01*
X0140650Y0148786D02*
X0138600Y0148786D01*
X0138600Y0147787D02*
X0140650Y0147787D01*
X0140650Y0146789D02*
X0138600Y0146789D01*
X0138600Y0145790D02*
X0140650Y0145790D01*
X0140650Y0144792D02*
X0138600Y0144792D01*
X0138600Y0143793D02*
X0140650Y0143793D01*
X0140650Y0142795D02*
X0138600Y0142795D01*
X0138600Y0141796D02*
X0140650Y0141796D01*
X0140650Y0140798D02*
X0138600Y0140798D01*
X0138600Y0139799D02*
X0140650Y0139799D01*
X0140650Y0138801D02*
X0138600Y0138801D01*
X0138600Y0137802D02*
X0140650Y0137802D01*
X0140650Y0136803D02*
X0138600Y0136803D01*
X0138600Y0135805D02*
X0140650Y0135805D01*
X0140650Y0134806D02*
X0138600Y0134806D01*
X0138600Y0133808D02*
X0140650Y0133808D01*
X0140650Y0132809D02*
X0138600Y0132809D01*
X0138600Y0131811D02*
X0140650Y0131811D01*
X0140650Y0130812D02*
X0138600Y0130812D01*
X0138600Y0129814D02*
X0140650Y0129814D01*
X0140650Y0128815D02*
X0138600Y0128815D01*
X0138600Y0127817D02*
X0140650Y0127817D01*
X0140650Y0126818D02*
X0138600Y0126818D01*
X0138600Y0125820D02*
X0140650Y0125820D01*
X0140650Y0124821D02*
X0138600Y0124821D01*
X0138600Y0123823D02*
X0140650Y0123823D01*
X0140650Y0122824D02*
X0138600Y0122824D01*
X0138600Y0121826D02*
X0140650Y0121826D01*
X0140607Y0120827D02*
X0138600Y0120827D01*
X0138600Y0119829D02*
X0139609Y0119829D01*
X0138610Y0118830D02*
X0138300Y0118830D01*
X0137612Y0117832D02*
X0137302Y0117832D01*
X0136613Y0116833D02*
X0136303Y0116833D01*
X0135615Y0115835D02*
X0135305Y0115835D01*
X0134616Y0114836D02*
X0134306Y0114836D01*
X0133618Y0113838D02*
X0133308Y0113838D01*
X0132619Y0112839D02*
X0132309Y0112839D01*
X0131621Y0111841D02*
X0131311Y0111841D01*
X0130622Y0110842D02*
X0125312Y0110842D01*
X0124314Y0109844D02*
X0126649Y0109844D01*
X0125775Y0108845D02*
X0123315Y0108845D01*
X0122639Y0107847D02*
X0125361Y0107847D01*
X0125243Y0106848D02*
X0122757Y0106848D01*
X0122718Y0105850D02*
X0125282Y0105850D01*
X0125695Y0104851D02*
X0122305Y0104851D01*
X0121544Y0103853D02*
X0126456Y0103853D01*
X0128085Y0102854D02*
X0119915Y0102854D01*
X0117456Y0102854D02*
X0096500Y0102854D01*
X0096500Y0101856D02*
X0166156Y0101856D01*
X0167154Y0102854D02*
X0130544Y0102854D01*
X0132174Y0103853D02*
X0194883Y0103853D01*
X0195881Y0104851D02*
X0132935Y0104851D01*
X0133348Y0105850D02*
X0189829Y0105850D01*
X0189918Y0105761D02*
X0188511Y0107168D01*
X0187750Y0109005D01*
X0187750Y0110995D01*
X0188511Y0112832D01*
X0189918Y0114239D01*
X0191755Y0115000D01*
X0193745Y0115000D01*
X0195582Y0114239D01*
X0196989Y0112832D01*
X0197750Y0110995D01*
X0197750Y0109005D01*
X0196989Y0107168D01*
X0195582Y0105761D01*
X0193745Y0105000D01*
X0191755Y0105000D01*
X0189918Y0105761D01*
X0188831Y0106848D02*
X0133387Y0106848D01*
X0133567Y0107847D02*
X0188230Y0107847D01*
X0187816Y0108845D02*
X0134565Y0108845D01*
X0135564Y0109844D02*
X0187750Y0109844D01*
X0187750Y0110842D02*
X0136562Y0110842D01*
X0137561Y0111841D02*
X0188100Y0111841D01*
X0188518Y0112839D02*
X0138559Y0112839D01*
X0139558Y0113838D02*
X0189517Y0113838D01*
X0191360Y0114836D02*
X0140556Y0114836D01*
X0141555Y0115835D02*
X0269500Y0115835D01*
X0269500Y0116833D02*
X0142553Y0116833D01*
X0143552Y0117832D02*
X0269500Y0117832D01*
X0269500Y0118830D02*
X0144550Y0118830D01*
X0144850Y0119829D02*
X0269500Y0119829D01*
X0269500Y0120827D02*
X0144850Y0120827D01*
X0144850Y0121826D02*
X0269500Y0121826D01*
X0269500Y0122824D02*
X0144850Y0122824D01*
X0144850Y0123823D02*
X0269500Y0123823D01*
X0269500Y0124821D02*
X0144850Y0124821D01*
X0144850Y0125820D02*
X0269500Y0125820D01*
X0269500Y0126818D02*
X0144850Y0126818D01*
X0144850Y0127817D02*
X0269500Y0127817D01*
X0269500Y0128815D02*
X0144850Y0128815D01*
X0144850Y0129814D02*
X0269500Y0129814D01*
X0269500Y0130812D02*
X0144850Y0130812D01*
X0144850Y0131811D02*
X0269500Y0131811D01*
X0269500Y0132809D02*
X0144850Y0132809D01*
X0144850Y0133808D02*
X0269500Y0133808D01*
X0269500Y0134806D02*
X0193200Y0134806D01*
X0193159Y0134800D02*
X0193968Y0134928D01*
X0194746Y0135181D01*
X0195475Y0135553D01*
X0196138Y0136034D01*
X0196716Y0136612D01*
X0197197Y0137275D01*
X0197569Y0138004D01*
X0197822Y0138782D01*
X0197950Y0139591D01*
X0197950Y0139614D01*
X0193136Y0139614D01*
X0193136Y0140386D01*
X0193136Y0145200D01*
X0193159Y0145200D01*
X0193968Y0145072D01*
X0194746Y0144819D01*
X0195475Y0144447D01*
X0196138Y0143966D01*
X0196716Y0143388D01*
X0197197Y0142725D01*
X0197569Y0141996D01*
X0197822Y0141218D01*
X0197950Y0140409D01*
X0197950Y0140386D01*
X0193136Y0140386D01*
X0192364Y0140386D01*
X0192364Y0145200D01*
X0192341Y0145200D01*
X0191532Y0145072D01*
X0190754Y0144819D01*
X0190025Y0144447D01*
X0189362Y0143966D01*
X0188784Y0143388D01*
X0188303Y0142725D01*
X0187931Y0141996D01*
X0187678Y0141218D01*
X0187550Y0140409D01*
X0187550Y0140386D01*
X0192364Y0140386D01*
X0192364Y0139614D01*
X0187550Y0139614D01*
X0187550Y0139591D01*
X0187678Y0138782D01*
X0187931Y0138004D01*
X0188303Y0137275D01*
X0188784Y0136612D01*
X0189362Y0136034D01*
X0190025Y0135553D01*
X0190754Y0135181D01*
X0191532Y0134928D01*
X0192341Y0134800D01*
X0192364Y0134800D01*
X0192364Y0139614D01*
X0193136Y0139614D01*
X0193136Y0134800D01*
X0193159Y0134800D01*
X0193136Y0134806D02*
X0192364Y0134806D01*
X0192300Y0134806D02*
X0144850Y0134806D01*
X0144850Y0135805D02*
X0189677Y0135805D01*
X0188645Y0136803D02*
X0144850Y0136803D01*
X0144850Y0137802D02*
X0188034Y0137802D01*
X0187675Y0138801D02*
X0144850Y0138801D01*
X0144850Y0139799D02*
X0192364Y0139799D01*
X0192750Y0140000D02*
X0169000Y0098937D01*
X0168713Y0098860D02*
X0096500Y0098860D01*
X0096500Y0097862D02*
X0164925Y0097862D01*
X0164925Y0097249D02*
X0164925Y0098650D01*
X0168713Y0098650D01*
X0168713Y0099224D01*
X0169287Y0099224D01*
X0169287Y0098650D01*
X0173075Y0098650D01*
X0173075Y0097249D01*
X0170688Y0094862D01*
X0170681Y0094862D01*
X0172875Y0092668D01*
X0172875Y0089458D01*
X0170605Y0087188D01*
X0168086Y0087188D01*
X0146731Y0066012D01*
X0146120Y0065400D01*
X0146115Y0065400D01*
X0146111Y0065396D01*
X0145246Y0065400D01*
X0118069Y0065400D01*
X0117220Y0064552D01*
X0115942Y0064022D01*
X0114558Y0064022D01*
X0113280Y0064552D01*
X0112302Y0065530D01*
X0111772Y0066808D01*
X0111772Y0068192D01*
X0112302Y0069470D01*
X0113280Y0070448D01*
X0114558Y0070978D01*
X0115942Y0070978D01*
X0117220Y0070448D01*
X0118069Y0069600D01*
X0144385Y0069600D01*
X0165125Y0090168D01*
X0165125Y0092668D01*
X0167319Y0094862D01*
X0167312Y0094862D01*
X0164925Y0097249D01*
X0165311Y0096863D02*
X0126308Y0096863D01*
X0125433Y0097225D02*
X0128082Y0096128D01*
X0130109Y0094101D01*
X0131206Y0091453D01*
X0131206Y0088586D01*
X0130109Y0085938D01*
X0128082Y0083911D01*
X0125433Y0082814D01*
X0122567Y0082814D01*
X0119918Y0083911D01*
X0117891Y0085938D01*
X0116795Y0088586D01*
X0116795Y0091453D01*
X0117891Y0094101D01*
X0119918Y0096128D01*
X0122567Y0097225D01*
X0125433Y0097225D01*
X0128345Y0095865D02*
X0166310Y0095865D01*
X0167308Y0094866D02*
X0129344Y0094866D01*
X0130205Y0093868D02*
X0166325Y0093868D01*
X0165326Y0092869D02*
X0130619Y0092869D01*
X0131033Y0091870D02*
X0165125Y0091870D01*
X0165125Y0090872D02*
X0131206Y0090872D01*
X0131206Y0089873D02*
X0164829Y0089873D01*
X0163822Y0088875D02*
X0131206Y0088875D01*
X0130911Y0087876D02*
X0162815Y0087876D01*
X0161808Y0086878D02*
X0130498Y0086878D01*
X0130050Y0085879D02*
X0160801Y0085879D01*
X0159794Y0084881D02*
X0129051Y0084881D01*
X0128012Y0083882D02*
X0158787Y0083882D01*
X0157781Y0082884D02*
X0125602Y0082884D01*
X0122398Y0082884D02*
X0096500Y0082884D01*
X0096500Y0083882D02*
X0119988Y0083882D01*
X0118949Y0084881D02*
X0096500Y0084881D01*
X0096500Y0085879D02*
X0117950Y0085879D01*
X0117502Y0086878D02*
X0096500Y0086878D01*
X0096500Y0087876D02*
X0117089Y0087876D01*
X0116795Y0088875D02*
X0096500Y0088875D01*
X0096500Y0089873D02*
X0116795Y0089873D01*
X0116795Y0090872D02*
X0096500Y0090872D01*
X0096500Y0091870D02*
X0116967Y0091870D01*
X0117381Y0092869D02*
X0096500Y0092869D01*
X0096500Y0093868D02*
X0117795Y0093868D01*
X0118656Y0094866D02*
X0096500Y0094866D01*
X0096500Y0095865D02*
X0119655Y0095865D01*
X0121692Y0096863D02*
X0096500Y0096863D01*
X0096500Y0099859D02*
X0164925Y0099859D01*
X0164925Y0099224D02*
X0164925Y0100625D01*
X0167312Y0103012D01*
X0168713Y0103012D01*
X0168713Y0099224D01*
X0164925Y0099224D01*
X0165157Y0100857D02*
X0096500Y0100857D01*
X0096500Y0103853D02*
X0115826Y0103853D01*
X0115065Y0104851D02*
X0096500Y0104851D01*
X0096354Y0105850D02*
X0114652Y0105850D01*
X0114613Y0106848D02*
X0095687Y0106848D01*
X0094689Y0107847D02*
X0114731Y0107847D01*
X0115145Y0108845D02*
X0093690Y0108845D01*
X0092692Y0109844D02*
X0116019Y0109844D01*
X0119372Y0110842D02*
X0091693Y0110842D01*
X0091100Y0111841D02*
X0120371Y0111841D01*
X0121369Y0112839D02*
X0091100Y0112839D01*
X0090925Y0113838D02*
X0122368Y0113838D01*
X0123366Y0114836D02*
X0090511Y0114836D01*
X0089671Y0115835D02*
X0124365Y0115835D01*
X0127535Y0118830D02*
X0120465Y0118830D01*
X0121772Y0119829D02*
X0126228Y0119829D01*
X0125601Y0120827D02*
X0122399Y0120827D01*
X0122757Y0121826D02*
X0125243Y0121826D01*
X0125243Y0122824D02*
X0122757Y0122824D01*
X0122544Y0123823D02*
X0124707Y0123823D01*
X0123709Y0124821D02*
X0122122Y0124821D01*
X0122710Y0125820D02*
X0121123Y0125820D01*
X0116247Y0125820D02*
X0113650Y0125820D01*
X0114648Y0124821D02*
X0115248Y0124821D01*
X0111704Y0121826D02*
X0091100Y0121826D01*
X0091100Y0122824D02*
X0110706Y0122824D01*
X0109707Y0123823D02*
X0090931Y0123823D01*
X0090517Y0124821D02*
X0108709Y0124821D01*
X0107710Y0125820D02*
X0089686Y0125820D01*
X0088095Y0126818D02*
X0106712Y0126818D01*
X0105713Y0127817D02*
X0069787Y0127817D01*
X0070785Y0128815D02*
X0083679Y0128815D01*
X0083894Y0128600D02*
X0082600Y0129894D01*
X0081900Y0131585D01*
X0081900Y0133415D01*
X0082600Y0135106D01*
X0083894Y0136400D01*
X0085585Y0137100D01*
X0087415Y0137100D01*
X0089106Y0136400D01*
X0090400Y0135106D01*
X0091100Y0133415D01*
X0091100Y0131585D01*
X0090400Y0129894D01*
X0089106Y0128600D01*
X0087415Y0127900D01*
X0085585Y0127900D01*
X0083894Y0128600D01*
X0082681Y0129814D02*
X0071784Y0129814D01*
X0072782Y0130812D02*
X0082220Y0130812D01*
X0081900Y0131811D02*
X0073781Y0131811D01*
X0074779Y0132809D02*
X0081900Y0132809D01*
X0082063Y0133808D02*
X0075778Y0133808D01*
X0076776Y0134806D02*
X0082476Y0134806D01*
X0083300Y0135805D02*
X0077775Y0135805D01*
X0078773Y0136803D02*
X0084869Y0136803D01*
X0088131Y0136803D02*
X0096727Y0136803D01*
X0097725Y0135805D02*
X0089700Y0135805D01*
X0090524Y0134806D02*
X0098724Y0134806D01*
X0099722Y0133808D02*
X0090937Y0133808D01*
X0091100Y0132809D02*
X0100721Y0132809D01*
X0101719Y0131811D02*
X0091100Y0131811D01*
X0090780Y0130812D02*
X0102718Y0130812D01*
X0103716Y0129814D02*
X0090319Y0129814D01*
X0089321Y0128815D02*
X0104715Y0128815D01*
X0110410Y0132809D02*
X0134400Y0132809D01*
X0134400Y0131811D02*
X0111409Y0131811D01*
X0109412Y0133808D02*
X0134400Y0133808D01*
X0134400Y0134806D02*
X0131632Y0134806D01*
X0132630Y0135805D02*
X0134400Y0135805D01*
X0134400Y0136803D02*
X0133124Y0136803D01*
X0133387Y0137802D02*
X0134400Y0137802D01*
X0134400Y0138801D02*
X0133387Y0138801D01*
X0133080Y0139799D02*
X0134400Y0139799D01*
X0134400Y0140798D02*
X0132524Y0140798D01*
X0131389Y0141796D02*
X0134400Y0141796D01*
X0134400Y0142795D02*
X0127925Y0142795D01*
X0126927Y0143793D02*
X0134400Y0143793D01*
X0134400Y0144792D02*
X0125928Y0144792D01*
X0124930Y0145790D02*
X0134400Y0145790D01*
X0134400Y0146789D02*
X0123931Y0146789D01*
X0122537Y0147787D02*
X0107933Y0147787D01*
X0106934Y0148786D02*
X0120126Y0148786D01*
X0119006Y0149784D02*
X0105936Y0149784D01*
X0104937Y0150783D02*
X0118008Y0150783D01*
X0117526Y0151781D02*
X0103939Y0151781D01*
X0102940Y0152780D02*
X0117112Y0152780D01*
X0116795Y0153778D02*
X0101942Y0153778D01*
X0100943Y0154777D02*
X0116795Y0154777D01*
X0116795Y0155775D02*
X0099945Y0155775D01*
X0098946Y0156774D02*
X0116944Y0156774D01*
X0117357Y0157772D02*
X0097948Y0157772D01*
X0092748Y0150783D02*
X0008500Y0150783D01*
X0008500Y0151781D02*
X0060499Y0151781D01*
X0059500Y0152780D02*
X0009144Y0152780D01*
X0010142Y0153778D02*
X0058502Y0153778D01*
X0057503Y0154777D02*
X0011141Y0154777D01*
X0012139Y0155775D02*
X0056505Y0155775D01*
X0055506Y0156774D02*
X0013138Y0156774D01*
X0014136Y0157772D02*
X0054508Y0157772D01*
X0053509Y0158771D02*
X0015135Y0158771D01*
X0016133Y0159769D02*
X0052511Y0159769D01*
X0051512Y0160768D02*
X0017132Y0160768D01*
X0017946Y0161766D02*
X0050514Y0161766D01*
X0049515Y0162765D02*
X0018359Y0162765D01*
X0018500Y0163763D02*
X0048517Y0163763D01*
X0047518Y0164762D02*
X0018500Y0164762D01*
X0018500Y0165760D02*
X0046520Y0165760D01*
X0045521Y0166759D02*
X0018500Y0166759D01*
X0018500Y0167757D02*
X0044523Y0167757D01*
X0043524Y0168756D02*
X0018500Y0168756D01*
X0018500Y0169754D02*
X0042526Y0169754D01*
X0041527Y0170753D02*
X0018500Y0170753D01*
X0018500Y0171751D02*
X0040529Y0171751D01*
X0039530Y0172750D02*
X0018500Y0172750D01*
X0018500Y0173748D02*
X0038532Y0173748D01*
X0037533Y0174747D02*
X0018500Y0174747D01*
X0018500Y0175745D02*
X0036535Y0175745D01*
X0035536Y0176744D02*
X0018500Y0176744D01*
X0018500Y0177742D02*
X0034538Y0177742D01*
X0033539Y0178741D02*
X0018500Y0178741D01*
X0018500Y0179739D02*
X0032541Y0179739D01*
X0031542Y0180738D02*
X0018500Y0180738D01*
X0018500Y0181737D02*
X0030544Y0181737D01*
X0029545Y0182735D02*
X0018500Y0182735D01*
X0018500Y0183734D02*
X0028547Y0183734D01*
X0027548Y0184732D02*
X0018500Y0184732D01*
X0018500Y0185731D02*
X0026550Y0185731D01*
X0025551Y0186729D02*
X0018500Y0186729D01*
X0018500Y0187728D02*
X0024553Y0187728D01*
X0023554Y0188726D02*
X0018500Y0188726D01*
X0018500Y0189725D02*
X0022556Y0189725D01*
X0021900Y0190723D02*
X0018500Y0190723D01*
X0018500Y0191722D02*
X0021900Y0191722D01*
X0021900Y0192720D02*
X0018500Y0192720D01*
X0018500Y0193719D02*
X0021900Y0193719D01*
X0021900Y0194717D02*
X0018500Y0194717D01*
X0018500Y0195716D02*
X0021900Y0195716D01*
X0021900Y0196714D02*
X0018500Y0196714D01*
X0018500Y0197713D02*
X0021900Y0197713D01*
X0021900Y0198711D02*
X0018500Y0198711D01*
X0018500Y0199710D02*
X0021900Y0199710D01*
X0021579Y0200708D02*
X0018500Y0200708D01*
X0018500Y0201707D02*
X0020581Y0201707D01*
X0019582Y0202705D02*
X0018500Y0202705D01*
X0018500Y0203704D02*
X0018900Y0203704D01*
X0018900Y0204702D02*
X0018500Y0204702D01*
X0018500Y0205701D02*
X0018900Y0205701D01*
X0018900Y0206699D02*
X0018500Y0206699D01*
X0026421Y0200708D02*
X0030579Y0200708D01*
X0029581Y0201707D02*
X0027419Y0201707D01*
X0028418Y0202705D02*
X0028900Y0202705D01*
X0031578Y0199710D02*
X0026100Y0199710D01*
X0026100Y0198711D02*
X0031900Y0198711D01*
X0031900Y0197713D02*
X0026100Y0197713D01*
X0026100Y0196714D02*
X0031900Y0196714D01*
X0031900Y0195716D02*
X0026100Y0195716D01*
X0026100Y0194717D02*
X0031900Y0194717D01*
X0031900Y0193719D02*
X0026100Y0193719D01*
X0026100Y0192720D02*
X0031900Y0192720D01*
X0031900Y0191722D02*
X0026498Y0191722D01*
X0027497Y0190723D02*
X0031900Y0190723D01*
X0032556Y0189725D02*
X0028495Y0189725D01*
X0029494Y0188726D02*
X0033554Y0188726D01*
X0034553Y0187728D02*
X0030492Y0187728D01*
X0031491Y0186729D02*
X0035551Y0186729D01*
X0036550Y0185731D02*
X0032489Y0185731D01*
X0033488Y0184732D02*
X0037548Y0184732D01*
X0038547Y0183734D02*
X0034486Y0183734D01*
X0035485Y0182735D02*
X0039545Y0182735D01*
X0040544Y0181737D02*
X0036483Y0181737D01*
X0037482Y0180738D02*
X0041542Y0180738D01*
X0042541Y0179739D02*
X0038480Y0179739D01*
X0039479Y0178741D02*
X0043539Y0178741D01*
X0044538Y0177742D02*
X0040477Y0177742D01*
X0041476Y0176744D02*
X0045536Y0176744D01*
X0046535Y0175745D02*
X0042474Y0175745D01*
X0043473Y0174747D02*
X0047533Y0174747D01*
X0048532Y0173748D02*
X0044471Y0173748D01*
X0045470Y0172750D02*
X0049530Y0172750D01*
X0050529Y0171751D02*
X0046468Y0171751D01*
X0047467Y0170753D02*
X0051527Y0170753D01*
X0052526Y0169754D02*
X0048465Y0169754D01*
X0049464Y0168756D02*
X0053524Y0168756D01*
X0054523Y0167757D02*
X0050462Y0167757D01*
X0051461Y0166759D02*
X0055521Y0166759D01*
X0056520Y0165760D02*
X0052460Y0165760D01*
X0053458Y0164762D02*
X0057518Y0164762D01*
X0058517Y0163763D02*
X0054457Y0163763D01*
X0055455Y0162765D02*
X0059515Y0162765D01*
X0060514Y0161766D02*
X0056454Y0161766D01*
X0057452Y0160768D02*
X0061512Y0160768D01*
X0062511Y0159769D02*
X0058451Y0159769D01*
X0059449Y0158771D02*
X0063509Y0158771D01*
X0064508Y0157772D02*
X0060448Y0157772D01*
X0061446Y0156774D02*
X0065506Y0156774D01*
X0076073Y0143793D02*
X0008500Y0143793D01*
X0008500Y0142795D02*
X0075075Y0142795D01*
X0074076Y0141796D02*
X0060365Y0141796D01*
X0062284Y0140798D02*
X0073078Y0140798D01*
X0072079Y0139799D02*
X0063202Y0139799D01*
X0062888Y0134806D02*
X0070837Y0134806D01*
X0069838Y0133808D02*
X0061823Y0133808D01*
X0062269Y0130812D02*
X0066843Y0130812D01*
X0065844Y0129814D02*
X0063196Y0129814D01*
X0067841Y0131811D02*
X0008500Y0131811D01*
X0008500Y0132809D02*
X0068840Y0132809D01*
X0068788Y0126818D02*
X0084905Y0126818D01*
X0083315Y0125820D02*
X0067790Y0125820D01*
X0069287Y0123823D02*
X0061859Y0123823D01*
X0062902Y0124821D02*
X0070571Y0124821D01*
X0068289Y0122824D02*
X0008500Y0122824D01*
X0008500Y0121826D02*
X0067290Y0121826D01*
X0066292Y0120827D02*
X0062254Y0120827D01*
X0072364Y0119829D02*
X0082666Y0119829D01*
X0088059Y0116833D02*
X0130363Y0116833D01*
X0116905Y0118830D02*
X0089336Y0118830D01*
X0090334Y0119829D02*
X0115598Y0119829D01*
X0112703Y0120827D02*
X0090786Y0120827D01*
X0108413Y0134806D02*
X0116368Y0134806D01*
X0115370Y0135805D02*
X0107415Y0135805D01*
X0106727Y0136803D02*
X0106416Y0136803D01*
X0105728Y0137802D02*
X0105418Y0137802D01*
X0104730Y0138801D02*
X0104419Y0138801D01*
X0103731Y0139799D02*
X0103421Y0139799D01*
X0102733Y0140798D02*
X0102422Y0140798D01*
X0101734Y0141796D02*
X0101424Y0141796D01*
X0100736Y0142795D02*
X0100425Y0142795D01*
X0099737Y0143793D02*
X0099427Y0143793D01*
X0098739Y0144792D02*
X0008500Y0144792D01*
X0008500Y0145790D02*
X0097740Y0145790D01*
X0096742Y0146789D02*
X0008500Y0146789D01*
X0008500Y0147787D02*
X0095743Y0147787D01*
X0094745Y0148786D02*
X0008500Y0148786D01*
X0008500Y0149784D02*
X0093746Y0149784D01*
X0107674Y0141796D02*
X0116611Y0141796D01*
X0125463Y0147787D02*
X0134400Y0147787D01*
X0134400Y0148786D02*
X0127874Y0148786D01*
X0128994Y0149784D02*
X0134400Y0149784D01*
X0134400Y0150783D02*
X0129992Y0150783D01*
X0130474Y0151781D02*
X0134400Y0151781D01*
X0134400Y0152780D02*
X0130888Y0152780D01*
X0131206Y0153778D02*
X0134400Y0153778D01*
X0134400Y0154777D02*
X0131206Y0154777D01*
X0131206Y0155775D02*
X0134400Y0155775D01*
X0134400Y0156774D02*
X0131056Y0156774D01*
X0130643Y0157772D02*
X0134400Y0157772D01*
X0134400Y0158771D02*
X0130229Y0158771D01*
X0129401Y0159769D02*
X0134400Y0159769D01*
X0134400Y0160768D02*
X0128403Y0160768D01*
X0126446Y0161766D02*
X0134400Y0161766D01*
X0144850Y0161766D02*
X0269500Y0161766D01*
X0269500Y0160768D02*
X0144850Y0160768D01*
X0144850Y0159769D02*
X0269500Y0159769D01*
X0269500Y0158771D02*
X0144850Y0158771D01*
X0144850Y0157772D02*
X0269500Y0157772D01*
X0269500Y0156774D02*
X0144850Y0156774D01*
X0144850Y0155775D02*
X0269500Y0155775D01*
X0269500Y0154777D02*
X0144850Y0154777D01*
X0144850Y0153778D02*
X0269500Y0153778D01*
X0269500Y0152780D02*
X0144850Y0152780D01*
X0144850Y0151781D02*
X0269500Y0151781D01*
X0269500Y0150783D02*
X0144850Y0150783D01*
X0144850Y0149784D02*
X0269500Y0149784D01*
X0269500Y0148786D02*
X0144850Y0148786D01*
X0144850Y0147787D02*
X0269500Y0147787D01*
X0269500Y0146789D02*
X0144850Y0146789D01*
X0144850Y0145790D02*
X0269500Y0145790D01*
X0269500Y0144792D02*
X0194800Y0144792D01*
X0193136Y0144792D02*
X0192364Y0144792D01*
X0192364Y0143793D02*
X0193136Y0143793D01*
X0193136Y0142795D02*
X0192364Y0142795D01*
X0192364Y0141796D02*
X0193136Y0141796D01*
X0193136Y0140798D02*
X0192364Y0140798D01*
X0192750Y0140000D02*
X0170000Y0205500D01*
X0170500Y0204702D02*
X0169500Y0204702D01*
X0169500Y0203704D02*
X0170500Y0203704D01*
X0170500Y0202705D02*
X0169500Y0202705D01*
X0169500Y0201707D02*
X0170500Y0201707D01*
X0170500Y0200708D02*
X0169500Y0200708D01*
X0167296Y0200708D02*
X0163421Y0200708D01*
X0164419Y0201707D02*
X0166298Y0201707D01*
X0165299Y0202705D02*
X0165100Y0202705D01*
X0162422Y0199710D02*
X0177578Y0199710D01*
X0176579Y0200708D02*
X0172704Y0200708D01*
X0173702Y0201707D02*
X0175581Y0201707D01*
X0174900Y0202705D02*
X0174701Y0202705D01*
X0182422Y0199710D02*
X0197578Y0199710D01*
X0196579Y0200708D02*
X0192421Y0200708D01*
X0193419Y0201707D02*
X0195581Y0201707D01*
X0194900Y0202705D02*
X0194418Y0202705D01*
X0195015Y0207698D02*
X0195985Y0207698D01*
X0196984Y0208696D02*
X0194016Y0208696D01*
X0193018Y0209695D02*
X0269500Y0209695D01*
X0269500Y0208696D02*
X0203016Y0208696D01*
X0204015Y0207698D02*
X0269500Y0207698D01*
X0269500Y0206699D02*
X0205013Y0206699D01*
X0205100Y0205701D02*
X0269500Y0205701D01*
X0269500Y0204702D02*
X0205100Y0204702D01*
X0205100Y0203704D02*
X0269500Y0203704D01*
X0269500Y0202705D02*
X0205100Y0202705D01*
X0204419Y0201707D02*
X0269500Y0201707D01*
X0269500Y0200708D02*
X0203421Y0200708D01*
X0202422Y0199710D02*
X0269500Y0199710D01*
X0269500Y0198711D02*
X0142350Y0198711D01*
X0142350Y0197713D02*
X0269500Y0197713D01*
X0269500Y0196714D02*
X0142350Y0196714D01*
X0142350Y0195716D02*
X0269500Y0195716D01*
X0269500Y0194717D02*
X0142350Y0194717D01*
X0142350Y0193719D02*
X0269500Y0193719D01*
X0269500Y0192720D02*
X0142350Y0192720D01*
X0142350Y0191722D02*
X0269500Y0191722D01*
X0269500Y0190723D02*
X0142350Y0190723D01*
X0142350Y0189725D02*
X0269500Y0189725D01*
X0269500Y0188726D02*
X0142350Y0188726D01*
X0142350Y0187728D02*
X0269500Y0187728D01*
X0269500Y0186729D02*
X0142350Y0186729D01*
X0142350Y0185731D02*
X0269500Y0185731D01*
X0269500Y0184732D02*
X0142350Y0184732D01*
X0142350Y0183734D02*
X0269500Y0183734D01*
X0269500Y0182735D02*
X0142350Y0182735D01*
X0142350Y0181737D02*
X0269500Y0181737D01*
X0269500Y0180738D02*
X0142350Y0180738D01*
X0142350Y0179739D02*
X0269500Y0179739D01*
X0269500Y0178741D02*
X0142350Y0178741D01*
X0142350Y0177742D02*
X0269500Y0177742D01*
X0269500Y0176744D02*
X0142350Y0176744D01*
X0142474Y0175745D02*
X0269500Y0175745D01*
X0269500Y0174747D02*
X0143473Y0174747D01*
X0144471Y0173748D02*
X0269500Y0173748D01*
X0269500Y0172750D02*
X0144850Y0172750D01*
X0144850Y0171751D02*
X0269500Y0171751D01*
X0269500Y0170753D02*
X0144850Y0170753D01*
X0144850Y0169754D02*
X0269500Y0169754D01*
X0269500Y0168756D02*
X0144850Y0168756D01*
X0144850Y0167757D02*
X0269500Y0167757D01*
X0269500Y0166759D02*
X0144850Y0166759D01*
X0144850Y0165760D02*
X0269500Y0165760D01*
X0269500Y0164762D02*
X0144850Y0164762D01*
X0144850Y0163763D02*
X0269500Y0163763D01*
X0269500Y0162765D02*
X0144850Y0162765D01*
X0144850Y0144792D02*
X0190700Y0144792D01*
X0189189Y0143793D02*
X0144850Y0143793D01*
X0144850Y0142795D02*
X0188353Y0142795D01*
X0187866Y0141796D02*
X0144850Y0141796D01*
X0144850Y0140798D02*
X0187612Y0140798D01*
X0192364Y0138801D02*
X0193136Y0138801D01*
X0193136Y0139799D02*
X0269500Y0139799D01*
X0269500Y0138801D02*
X0197825Y0138801D01*
X0197466Y0137802D02*
X0269500Y0137802D01*
X0269500Y0136803D02*
X0196855Y0136803D01*
X0195823Y0135805D02*
X0269500Y0135805D01*
X0269500Y0140798D02*
X0197888Y0140798D01*
X0197634Y0141796D02*
X0269500Y0141796D01*
X0269500Y0142795D02*
X0197147Y0142795D01*
X0196311Y0143793D02*
X0269500Y0143793D01*
X0269500Y0114836D02*
X0215390Y0114836D01*
X0214995Y0115000D02*
X0216832Y0114239D01*
X0218239Y0112832D01*
X0218542Y0112100D01*
X0224870Y0112100D01*
X0226100Y0110870D01*
X0229870Y0107100D01*
X0246188Y0107100D01*
X0246385Y0107576D01*
X0247742Y0108933D01*
X0249515Y0109668D01*
X0258485Y0109668D01*
X0260258Y0108933D01*
X0261615Y0107576D01*
X0262350Y0105802D01*
X0262350Y0103883D01*
X0261615Y0102109D01*
X0260258Y0100752D01*
X0258485Y0100018D01*
X0249515Y0100018D01*
X0247742Y0100752D01*
X0246385Y0102109D01*
X0246057Y0102900D01*
X0228130Y0102900D01*
X0223130Y0107900D01*
X0218542Y0107900D01*
X0218239Y0107168D01*
X0216832Y0105761D01*
X0214995Y0105000D01*
X0213005Y0105000D01*
X0211168Y0105761D01*
X0209761Y0107168D01*
X0209458Y0107900D01*
X0204870Y0107900D01*
X0152350Y0055380D01*
X0151120Y0054150D01*
X0118069Y0054150D01*
X0117220Y0053302D01*
X0115942Y0052772D01*
X0114558Y0052772D01*
X0113280Y0053302D01*
X0112302Y0054280D01*
X0111772Y0055558D01*
X0111772Y0056942D01*
X0112302Y0058220D01*
X0113280Y0059198D01*
X0114558Y0059728D01*
X0115942Y0059728D01*
X0117220Y0059198D01*
X0118069Y0058350D01*
X0149380Y0058350D01*
X0203130Y0112100D01*
X0209458Y0112100D01*
X0209761Y0112832D01*
X0211168Y0114239D01*
X0213005Y0115000D01*
X0214995Y0115000D01*
X0212610Y0114836D02*
X0194140Y0114836D01*
X0195983Y0113838D02*
X0210767Y0113838D01*
X0209768Y0112839D02*
X0196982Y0112839D01*
X0197400Y0111841D02*
X0202871Y0111841D01*
X0201872Y0110842D02*
X0197750Y0110842D01*
X0197750Y0109844D02*
X0200874Y0109844D01*
X0199875Y0108845D02*
X0197684Y0108845D01*
X0197270Y0107847D02*
X0198877Y0107847D01*
X0197878Y0106848D02*
X0196669Y0106848D01*
X0196880Y0105850D02*
X0195671Y0105850D01*
X0193884Y0102854D02*
X0170846Y0102854D01*
X0170688Y0103012D02*
X0173075Y0100625D01*
X0173075Y0099224D01*
X0169287Y0099224D01*
X0169287Y0103012D01*
X0170688Y0103012D01*
X0169287Y0102854D02*
X0168713Y0102854D01*
X0168713Y0101856D02*
X0169287Y0101856D01*
X0169287Y0100857D02*
X0168713Y0100857D01*
X0168713Y0099859D02*
X0169287Y0099859D01*
X0169287Y0098860D02*
X0189890Y0098860D01*
X0188892Y0097862D02*
X0173075Y0097862D01*
X0172689Y0096863D02*
X0187893Y0096863D01*
X0186895Y0095865D02*
X0171690Y0095865D01*
X0170692Y0094866D02*
X0185896Y0094866D01*
X0184898Y0093868D02*
X0171675Y0093868D01*
X0172674Y0092869D02*
X0183899Y0092869D01*
X0182901Y0091870D02*
X0172875Y0091870D01*
X0172875Y0090872D02*
X0181902Y0090872D01*
X0180904Y0089873D02*
X0172875Y0089873D01*
X0172292Y0088875D02*
X0179905Y0088875D01*
X0178907Y0087876D02*
X0171293Y0087876D01*
X0167773Y0086878D02*
X0177908Y0086878D01*
X0176910Y0085879D02*
X0166766Y0085879D01*
X0165759Y0084881D02*
X0175911Y0084881D01*
X0174913Y0083882D02*
X0164752Y0083882D01*
X0163745Y0082884D02*
X0173914Y0082884D01*
X0172916Y0081885D02*
X0162738Y0081885D01*
X0161731Y0080887D02*
X0171917Y0080887D01*
X0170919Y0079888D02*
X0160725Y0079888D01*
X0159718Y0078890D02*
X0169920Y0078890D01*
X0168921Y0077891D02*
X0158711Y0077891D01*
X0157704Y0076893D02*
X0167923Y0076893D01*
X0166924Y0075894D02*
X0156697Y0075894D01*
X0155690Y0074896D02*
X0165926Y0074896D01*
X0164927Y0073897D02*
X0154683Y0073897D01*
X0153676Y0072899D02*
X0163929Y0072899D01*
X0162930Y0071900D02*
X0152669Y0071900D01*
X0151663Y0070902D02*
X0161932Y0070902D01*
X0160933Y0069903D02*
X0150656Y0069903D01*
X0149649Y0068905D02*
X0159935Y0068905D01*
X0158936Y0067906D02*
X0148642Y0067906D01*
X0147635Y0066908D02*
X0157938Y0066908D01*
X0156939Y0065909D02*
X0146629Y0065909D01*
X0144691Y0069903D02*
X0117765Y0069903D01*
X0116126Y0070902D02*
X0145698Y0070902D01*
X0146705Y0071900D02*
X0096500Y0071900D01*
X0096500Y0070902D02*
X0114374Y0070902D01*
X0112735Y0069903D02*
X0096500Y0069903D01*
X0096252Y0068905D02*
X0112067Y0068905D01*
X0111772Y0067906D02*
X0095442Y0067906D01*
X0094443Y0066908D02*
X0111772Y0066908D01*
X0112144Y0065909D02*
X0093445Y0065909D01*
X0092446Y0064911D02*
X0112921Y0064911D01*
X0117579Y0064911D02*
X0155941Y0064911D01*
X0154942Y0063912D02*
X0091448Y0063912D01*
X0091100Y0062914D02*
X0153944Y0062914D01*
X0152945Y0061915D02*
X0091100Y0061915D01*
X0090823Y0060917D02*
X0151947Y0060917D01*
X0150948Y0059918D02*
X0090410Y0059918D01*
X0089425Y0058920D02*
X0113001Y0058920D01*
X0112178Y0057921D02*
X0089000Y0057921D01*
X0089000Y0056923D02*
X0111772Y0056923D01*
X0111772Y0055924D02*
X0089000Y0055924D01*
X0089000Y0054926D02*
X0112034Y0054926D01*
X0112654Y0053927D02*
X0089000Y0053927D01*
X0089607Y0052929D02*
X0114180Y0052929D01*
X0116320Y0052929D02*
X0188607Y0052929D01*
X0188137Y0051930D02*
X0090605Y0051930D01*
X0091604Y0050932D02*
X0187750Y0050932D01*
X0187750Y0049933D02*
X0092603Y0049933D01*
X0093601Y0048934D02*
X0187779Y0048934D01*
X0187150Y0047936D02*
X0094600Y0047936D01*
X0095598Y0046937D02*
X0186152Y0046937D01*
X0185153Y0045939D02*
X0096597Y0045939D01*
X0097595Y0044940D02*
X0184155Y0044940D01*
X0183156Y0043942D02*
X0098594Y0043942D01*
X0099592Y0042943D02*
X0148408Y0042943D01*
X0147409Y0041945D02*
X0100591Y0041945D01*
X0101589Y0040946D02*
X0146411Y0040946D01*
X0145412Y0039948D02*
X0102588Y0039948D01*
X0103586Y0038949D02*
X0144414Y0038949D01*
X0143415Y0037951D02*
X0104585Y0037951D01*
X0105583Y0036952D02*
X0142417Y0036952D01*
X0141418Y0035954D02*
X0106582Y0035954D01*
X0107580Y0034955D02*
X0140420Y0034955D01*
X0139421Y0033957D02*
X0108579Y0033957D01*
X0109577Y0032958D02*
X0138423Y0032958D01*
X0137424Y0031960D02*
X0110576Y0031960D01*
X0111574Y0030961D02*
X0136426Y0030961D01*
X0135427Y0029963D02*
X0112573Y0029963D01*
X0113571Y0028964D02*
X0134429Y0028964D01*
X0133430Y0027966D02*
X0114570Y0027966D01*
X0115568Y0026967D02*
X0132432Y0026967D01*
X0131433Y0025969D02*
X0116567Y0025969D01*
X0117565Y0024970D02*
X0130435Y0024970D01*
X0129436Y0023972D02*
X0118564Y0023972D01*
X0119562Y0022973D02*
X0128438Y0022973D01*
X0127439Y0021975D02*
X0120561Y0021975D01*
X0121559Y0020976D02*
X0126441Y0020976D01*
X0125442Y0019978D02*
X0122558Y0019978D01*
X0114500Y0019978D02*
X0113500Y0019978D01*
X0113500Y0018979D02*
X0114500Y0018979D01*
X0114500Y0017981D02*
X0113500Y0017981D01*
X0113500Y0016982D02*
X0114500Y0016982D01*
X0114000Y0015500D02*
X0104000Y0014500D01*
X0056500Y0057500D01*
X0056000Y0057921D02*
X0036100Y0057921D01*
X0036100Y0056923D02*
X0049035Y0056923D01*
X0049023Y0057000D02*
X0049111Y0056446D01*
X0049330Y0055773D01*
X0049651Y0055141D01*
X0050068Y0054568D01*
X0050568Y0054068D01*
X0051141Y0053651D01*
X0051773Y0053330D01*
X0052446Y0053111D01*
X0053146Y0053000D01*
X0056000Y0053000D01*
X0056000Y0057000D01*
X0056000Y0058000D01*
X0057000Y0058000D01*
X0057000Y0062000D01*
X0059854Y0062000D01*
X0060554Y0061889D01*
X0061227Y0061670D01*
X0061859Y0061349D01*
X0062432Y0060932D01*
X0062932Y0060432D01*
X0063349Y0059859D01*
X0063670Y0059227D01*
X0063889Y0058554D01*
X0063977Y0058000D01*
X0057000Y0058000D01*
X0057000Y0057000D01*
X0056000Y0057000D01*
X0049023Y0057000D01*
X0049023Y0058000D02*
X0049111Y0058554D01*
X0049330Y0059227D01*
X0049651Y0059859D01*
X0050068Y0060432D01*
X0050568Y0060932D01*
X0051141Y0061349D01*
X0051773Y0061670D01*
X0052446Y0061889D01*
X0053146Y0062000D01*
X0056000Y0062000D01*
X0056000Y0058000D01*
X0049023Y0058000D01*
X0049230Y0058920D02*
X0036100Y0058920D01*
X0036100Y0059918D02*
X0049695Y0059918D01*
X0050553Y0060917D02*
X0036100Y0060917D01*
X0036385Y0061915D02*
X0052610Y0061915D01*
X0051007Y0063912D02*
X0038382Y0063912D01*
X0037384Y0062914D02*
X0081900Y0062914D01*
X0081900Y0061915D02*
X0060390Y0061915D01*
X0062447Y0060917D02*
X0082177Y0060917D01*
X0082590Y0059918D02*
X0063305Y0059918D01*
X0063770Y0058920D02*
X0083575Y0058920D01*
X0084000Y0057921D02*
X0057000Y0057921D01*
X0057000Y0057000D02*
X0063977Y0057000D01*
X0063889Y0056446D01*
X0063670Y0055773D01*
X0063349Y0055141D01*
X0062932Y0054568D01*
X0062432Y0054068D01*
X0061859Y0053651D01*
X0061227Y0053330D01*
X0060554Y0053111D01*
X0059854Y0053000D01*
X0057000Y0053000D01*
X0057000Y0057000D01*
X0057000Y0056923D02*
X0056000Y0056923D01*
X0056000Y0055924D02*
X0057000Y0055924D01*
X0057000Y0054926D02*
X0056000Y0054926D01*
X0056000Y0053927D02*
X0057000Y0053927D01*
X0057000Y0058920D02*
X0056000Y0058920D01*
X0056000Y0059918D02*
X0057000Y0059918D01*
X0057000Y0060917D02*
X0056000Y0060917D01*
X0056000Y0061915D02*
X0057000Y0061915D01*
X0061993Y0063912D02*
X0082106Y0063912D01*
X0082520Y0064911D02*
X0062992Y0064911D01*
X0062179Y0070902D02*
X0068866Y0070902D01*
X0069865Y0071900D02*
X0046370Y0071900D01*
X0045372Y0070902D02*
X0050821Y0070902D01*
X0049841Y0069903D02*
X0044373Y0069903D01*
X0043375Y0068905D02*
X0049428Y0068905D01*
X0049200Y0067906D02*
X0042376Y0067906D01*
X0041378Y0066908D02*
X0049200Y0066908D01*
X0049505Y0065909D02*
X0040379Y0065909D01*
X0039381Y0064911D02*
X0050008Y0064911D01*
X0040430Y0071900D02*
X0036370Y0071900D01*
X0035372Y0070902D02*
X0039432Y0070902D01*
X0038433Y0069903D02*
X0034373Y0069903D01*
X0033375Y0068905D02*
X0037435Y0068905D01*
X0036436Y0067906D02*
X0032376Y0067906D01*
X0031378Y0066908D02*
X0035438Y0066908D01*
X0034439Y0065909D02*
X0030379Y0065909D01*
X0029381Y0064911D02*
X0033441Y0064911D01*
X0032442Y0063912D02*
X0028382Y0063912D01*
X0027384Y0062914D02*
X0031900Y0062914D01*
X0031900Y0061915D02*
X0026385Y0061915D01*
X0026100Y0060917D02*
X0031900Y0060917D01*
X0031900Y0059918D02*
X0026100Y0059918D01*
X0026100Y0058920D02*
X0031900Y0058920D01*
X0031900Y0057921D02*
X0026100Y0057921D01*
X0026100Y0056923D02*
X0031900Y0056923D01*
X0031900Y0055924D02*
X0026100Y0055924D01*
X0026100Y0054926D02*
X0031900Y0054926D01*
X0031900Y0053927D02*
X0026100Y0053927D01*
X0026100Y0052929D02*
X0031900Y0052929D01*
X0031900Y0051930D02*
X0026100Y0051930D01*
X0026100Y0050932D02*
X0031900Y0050932D01*
X0031900Y0049933D02*
X0026100Y0049933D01*
X0026100Y0048934D02*
X0031900Y0048934D01*
X0031900Y0047936D02*
X0026100Y0047936D01*
X0026100Y0046937D02*
X0031900Y0046937D01*
X0031900Y0045939D02*
X0026100Y0045939D01*
X0026100Y0044940D02*
X0031900Y0044940D01*
X0031900Y0043942D02*
X0026100Y0043942D01*
X0026100Y0042943D02*
X0031900Y0042943D01*
X0031900Y0041945D02*
X0026100Y0041945D01*
X0026100Y0040946D02*
X0031900Y0040946D01*
X0031900Y0039948D02*
X0026100Y0039948D01*
X0026100Y0038949D02*
X0031900Y0038949D01*
X0031900Y0037951D02*
X0026100Y0037951D01*
X0026100Y0036952D02*
X0031900Y0036952D01*
X0031900Y0035954D02*
X0026100Y0035954D01*
X0026100Y0034955D02*
X0031900Y0034955D01*
X0031900Y0033957D02*
X0026100Y0033957D01*
X0026100Y0032958D02*
X0031900Y0032958D01*
X0031900Y0031960D02*
X0026100Y0031960D01*
X0026100Y0030961D02*
X0031900Y0030961D01*
X0031900Y0029963D02*
X0026100Y0029963D01*
X0026100Y0028964D02*
X0031900Y0028964D01*
X0031900Y0027966D02*
X0026100Y0027966D01*
X0026100Y0026967D02*
X0031900Y0026967D01*
X0031900Y0025969D02*
X0026100Y0025969D01*
X0026100Y0024970D02*
X0031900Y0024970D01*
X0031900Y0023972D02*
X0026100Y0023972D01*
X0026100Y0022973D02*
X0031900Y0022973D01*
X0031900Y0021975D02*
X0026100Y0021975D01*
X0026100Y0020976D02*
X0031900Y0020976D01*
X0031900Y0019978D02*
X0026735Y0019978D01*
X0027733Y0018979D02*
X0031267Y0018979D01*
X0030268Y0017981D02*
X0028732Y0017981D01*
X0029100Y0016982D02*
X0029270Y0016982D01*
X0028900Y0012988D02*
X0028701Y0012988D01*
X0029298Y0011990D02*
X0027702Y0011990D01*
X0026704Y0010991D02*
X0030296Y0010991D01*
X0038730Y0016982D02*
X0038900Y0016982D01*
X0039268Y0017981D02*
X0037732Y0017981D01*
X0036733Y0018979D02*
X0040267Y0018979D01*
X0041265Y0019978D02*
X0036100Y0019978D01*
X0036100Y0020976D02*
X0114488Y0020976D01*
X0113490Y0021975D02*
X0036100Y0021975D01*
X0036100Y0022973D02*
X0112491Y0022973D01*
X0111493Y0023972D02*
X0036100Y0023972D01*
X0036100Y0024970D02*
X0110494Y0024970D01*
X0109496Y0025969D02*
X0036100Y0025969D01*
X0036100Y0026967D02*
X0108497Y0026967D01*
X0107499Y0027966D02*
X0036100Y0027966D01*
X0036100Y0028964D02*
X0106500Y0028964D01*
X0105502Y0029963D02*
X0036100Y0029963D01*
X0036100Y0030961D02*
X0104503Y0030961D01*
X0103505Y0031960D02*
X0036100Y0031960D01*
X0036100Y0032958D02*
X0102506Y0032958D01*
X0101508Y0033957D02*
X0036100Y0033957D01*
X0036100Y0034955D02*
X0100509Y0034955D01*
X0099511Y0035954D02*
X0036100Y0035954D01*
X0036100Y0036952D02*
X0098512Y0036952D01*
X0097514Y0037951D02*
X0036100Y0037951D01*
X0036100Y0038949D02*
X0096515Y0038949D01*
X0095517Y0039948D02*
X0036100Y0039948D01*
X0036100Y0040946D02*
X0094518Y0040946D01*
X0093520Y0041945D02*
X0036100Y0041945D01*
X0036100Y0042943D02*
X0092521Y0042943D01*
X0091523Y0043942D02*
X0036100Y0043942D01*
X0036100Y0044940D02*
X0090524Y0044940D01*
X0089526Y0045939D02*
X0036100Y0045939D01*
X0036100Y0046937D02*
X0088527Y0046937D01*
X0087528Y0047936D02*
X0036100Y0047936D01*
X0036100Y0048934D02*
X0086530Y0048934D01*
X0085531Y0049933D02*
X0036100Y0049933D01*
X0036100Y0050932D02*
X0084533Y0050932D01*
X0084030Y0051930D02*
X0036100Y0051930D01*
X0036100Y0052929D02*
X0084000Y0052929D01*
X0084000Y0053927D02*
X0062238Y0053927D01*
X0063192Y0054926D02*
X0084000Y0054926D01*
X0084000Y0055924D02*
X0063720Y0055924D01*
X0063965Y0056923D02*
X0084000Y0056923D01*
X0083404Y0065909D02*
X0070945Y0065909D01*
X0071943Y0066908D02*
X0085121Y0066908D01*
X0085570Y0067906D02*
X0072942Y0067906D01*
X0073940Y0068905D02*
X0083590Y0068905D01*
X0082597Y0069903D02*
X0074939Y0069903D01*
X0071862Y0073897D02*
X0061978Y0073897D01*
X0062977Y0074896D02*
X0073251Y0074896D01*
X0070863Y0072899D02*
X0047369Y0072899D01*
X0048367Y0073897D02*
X0051022Y0073897D01*
X0050023Y0074896D02*
X0049366Y0074896D01*
X0046421Y0077891D02*
X0042361Y0077891D01*
X0041363Y0076893D02*
X0045423Y0076893D01*
X0044424Y0075894D02*
X0040364Y0075894D01*
X0039366Y0074896D02*
X0043426Y0074896D01*
X0042427Y0073897D02*
X0038367Y0073897D01*
X0037369Y0072899D02*
X0041429Y0072899D01*
X0043360Y0078890D02*
X0047420Y0078890D01*
X0049835Y0079888D02*
X0044358Y0079888D01*
X0045357Y0080887D02*
X0050806Y0080887D01*
X0046355Y0081885D02*
X0081900Y0081885D01*
X0082189Y0080887D02*
X0062194Y0080887D01*
X0063165Y0079888D02*
X0082606Y0079888D01*
X0083605Y0078890D02*
X0063579Y0078890D01*
X0063800Y0077891D02*
X0091500Y0077891D01*
X0091500Y0076893D02*
X0087915Y0076893D01*
X0089611Y0075894D02*
X0091500Y0075894D01*
X0091500Y0074896D02*
X0090487Y0074896D01*
X0090900Y0073897D02*
X0091500Y0073897D01*
X0091500Y0072899D02*
X0091100Y0072899D01*
X0091100Y0071900D02*
X0091500Y0071900D01*
X0091366Y0070902D02*
X0090817Y0070902D01*
X0088371Y0067906D02*
X0087430Y0067906D01*
X0083389Y0075894D02*
X0063489Y0075894D01*
X0063800Y0076893D02*
X0085085Y0076893D01*
X0089395Y0078890D02*
X0091500Y0078890D01*
X0091500Y0079888D02*
X0090394Y0079888D01*
X0090811Y0080887D02*
X0091500Y0080887D01*
X0091500Y0081885D02*
X0091100Y0081885D01*
X0091100Y0082884D02*
X0091500Y0082884D01*
X0091500Y0083882D02*
X0090906Y0083882D01*
X0090493Y0084881D02*
X0091500Y0084881D01*
X0091500Y0085879D02*
X0089626Y0085879D01*
X0096500Y0081885D02*
X0156774Y0081885D01*
X0155767Y0080887D02*
X0096500Y0080887D01*
X0096500Y0079888D02*
X0154760Y0079888D01*
X0153753Y0078890D02*
X0096500Y0078890D01*
X0096500Y0077891D02*
X0152746Y0077891D01*
X0151739Y0076893D02*
X0096500Y0076893D01*
X0096500Y0075894D02*
X0150732Y0075894D01*
X0149725Y0074896D02*
X0096500Y0074896D01*
X0096500Y0073897D02*
X0148719Y0073897D01*
X0147712Y0072899D02*
X0096500Y0072899D01*
X0117499Y0058920D02*
X0149950Y0058920D01*
X0152894Y0055924D02*
X0269500Y0055924D01*
X0269500Y0054926D02*
X0193924Y0054926D01*
X0195894Y0053927D02*
X0269500Y0053927D01*
X0269500Y0052929D02*
X0196893Y0052929D01*
X0197363Y0051930D02*
X0269500Y0051930D01*
X0269500Y0050932D02*
X0197750Y0050932D01*
X0197750Y0049933D02*
X0269500Y0049933D01*
X0269500Y0048934D02*
X0197721Y0048934D01*
X0197307Y0047936D02*
X0269500Y0047936D01*
X0269500Y0046937D02*
X0196759Y0046937D01*
X0195760Y0045939D02*
X0269500Y0045939D01*
X0269500Y0044940D02*
X0191226Y0044940D01*
X0190227Y0043942D02*
X0269500Y0043942D01*
X0269500Y0042943D02*
X0189229Y0042943D01*
X0188230Y0041945D02*
X0269500Y0041945D01*
X0269500Y0040946D02*
X0187232Y0040946D01*
X0186233Y0039948D02*
X0269500Y0039948D01*
X0269500Y0038949D02*
X0184979Y0038949D01*
X0189606Y0053927D02*
X0117846Y0053927D01*
X0145494Y0032958D02*
X0269500Y0032958D01*
X0269500Y0031960D02*
X0144495Y0031960D01*
X0143497Y0030961D02*
X0269500Y0030961D01*
X0269500Y0029963D02*
X0142498Y0029963D01*
X0141500Y0028964D02*
X0269500Y0028964D01*
X0269500Y0027966D02*
X0140501Y0027966D01*
X0139503Y0026967D02*
X0269500Y0026967D01*
X0269500Y0025969D02*
X0138504Y0025969D01*
X0137506Y0024970D02*
X0269500Y0024970D01*
X0269500Y0023972D02*
X0136507Y0023972D01*
X0135509Y0022973D02*
X0269500Y0022973D01*
X0269500Y0021975D02*
X0134510Y0021975D01*
X0133512Y0020976D02*
X0269500Y0020976D01*
X0269500Y0019978D02*
X0156735Y0019978D01*
X0157733Y0018979D02*
X0161267Y0018979D01*
X0160268Y0017981D02*
X0158732Y0017981D01*
X0159100Y0016982D02*
X0159270Y0016982D01*
X0151265Y0019978D02*
X0136735Y0019978D01*
X0137733Y0018979D02*
X0141267Y0018979D01*
X0140268Y0017981D02*
X0138732Y0017981D01*
X0139100Y0016982D02*
X0139270Y0016982D01*
X0146733Y0018979D02*
X0150267Y0018979D01*
X0149268Y0017981D02*
X0147732Y0017981D01*
X0148730Y0016982D02*
X0148900Y0016982D01*
X0166733Y0018979D02*
X0269500Y0018979D01*
X0269500Y0017981D02*
X0167732Y0017981D01*
X0168730Y0016982D02*
X0269500Y0016982D01*
X0269500Y0015984D02*
X0169100Y0015984D01*
X0169100Y0014985D02*
X0269500Y0014985D01*
X0269500Y0013987D02*
X0169100Y0013987D01*
X0169100Y0012988D02*
X0269500Y0012988D01*
X0269500Y0011990D02*
X0168702Y0011990D01*
X0167704Y0010991D02*
X0269500Y0010991D01*
X0269500Y0009993D02*
X0166705Y0009993D01*
X0146492Y0033957D02*
X0269500Y0033957D01*
X0269500Y0034955D02*
X0147491Y0034955D01*
X0148489Y0035954D02*
X0269500Y0035954D01*
X0269500Y0036952D02*
X0149488Y0036952D01*
X0150486Y0037951D02*
X0269500Y0037951D01*
X0269500Y0056923D02*
X0153892Y0056923D01*
X0154891Y0057921D02*
X0269500Y0057921D01*
X0269500Y0058920D02*
X0155889Y0058920D01*
X0156888Y0059918D02*
X0269500Y0059918D01*
X0269500Y0060917D02*
X0157886Y0060917D01*
X0158885Y0061915D02*
X0269500Y0061915D01*
X0269500Y0062914D02*
X0159884Y0062914D01*
X0160882Y0063912D02*
X0269500Y0063912D01*
X0269500Y0064911D02*
X0161881Y0064911D01*
X0162879Y0065909D02*
X0269500Y0065909D01*
X0269500Y0066908D02*
X0163878Y0066908D01*
X0164876Y0067906D02*
X0269500Y0067906D01*
X0269500Y0068905D02*
X0165875Y0068905D01*
X0166873Y0069903D02*
X0269500Y0069903D01*
X0269500Y0070902D02*
X0167872Y0070902D01*
X0168870Y0071900D02*
X0269500Y0071900D01*
X0269500Y0072899D02*
X0169869Y0072899D01*
X0170867Y0073897D02*
X0269500Y0073897D01*
X0269500Y0074896D02*
X0171866Y0074896D01*
X0172864Y0075894D02*
X0189785Y0075894D01*
X0189918Y0075761D02*
X0188511Y0077168D01*
X0187750Y0079005D01*
X0187750Y0080995D01*
X0188511Y0082832D01*
X0189918Y0084239D01*
X0191755Y0085000D01*
X0193745Y0085000D01*
X0195582Y0084239D01*
X0196989Y0082832D01*
X0197292Y0082100D01*
X0209458Y0082100D01*
X0209761Y0082832D01*
X0211168Y0084239D01*
X0213005Y0085000D01*
X0214995Y0085000D01*
X0216832Y0084239D01*
X0218239Y0082832D01*
X0218542Y0082100D01*
X0223130Y0082100D01*
X0228130Y0087100D01*
X0246057Y0087100D01*
X0246385Y0087891D01*
X0247742Y0089248D01*
X0249515Y0089982D01*
X0258485Y0089982D01*
X0260258Y0089248D01*
X0261615Y0087891D01*
X0262350Y0086117D01*
X0262350Y0084198D01*
X0261615Y0082424D01*
X0260258Y0081067D01*
X0258485Y0080332D01*
X0249515Y0080332D01*
X0247742Y0081067D01*
X0246385Y0082424D01*
X0246188Y0082900D01*
X0229870Y0082900D01*
X0226100Y0079130D01*
X0224870Y0077900D01*
X0218542Y0077900D01*
X0218239Y0077168D01*
X0216832Y0075761D01*
X0214995Y0075000D01*
X0213005Y0075000D01*
X0211168Y0075761D01*
X0209761Y0077168D01*
X0209458Y0077900D01*
X0197292Y0077900D01*
X0196989Y0077168D01*
X0195582Y0075761D01*
X0193745Y0075000D01*
X0191755Y0075000D01*
X0189918Y0075761D01*
X0188786Y0076893D02*
X0173863Y0076893D01*
X0174861Y0077891D02*
X0188211Y0077891D01*
X0187798Y0078890D02*
X0175860Y0078890D01*
X0176858Y0079888D02*
X0187750Y0079888D01*
X0187750Y0080887D02*
X0177857Y0080887D01*
X0178855Y0081885D02*
X0188119Y0081885D01*
X0188563Y0082884D02*
X0179854Y0082884D01*
X0180852Y0083882D02*
X0189561Y0083882D01*
X0191468Y0084881D02*
X0181851Y0084881D01*
X0182849Y0085879D02*
X0226910Y0085879D01*
X0227908Y0086878D02*
X0183848Y0086878D01*
X0184846Y0087876D02*
X0246379Y0087876D01*
X0247369Y0088875D02*
X0185845Y0088875D01*
X0186843Y0089873D02*
X0249252Y0089873D01*
X0258748Y0089873D02*
X0269500Y0089873D01*
X0269500Y0088875D02*
X0260631Y0088875D01*
X0261621Y0087876D02*
X0269500Y0087876D01*
X0269500Y0086878D02*
X0262035Y0086878D01*
X0262350Y0085879D02*
X0269500Y0085879D01*
X0269500Y0084881D02*
X0262350Y0084881D01*
X0262219Y0083882D02*
X0269500Y0083882D01*
X0269500Y0082884D02*
X0261806Y0082884D01*
X0261076Y0081885D02*
X0269500Y0081885D01*
X0269500Y0080887D02*
X0259823Y0080887D01*
X0269500Y0079888D02*
X0226858Y0079888D01*
X0225860Y0078890D02*
X0269500Y0078890D01*
X0269500Y0077891D02*
X0218539Y0077891D01*
X0217964Y0076893D02*
X0269500Y0076893D01*
X0269500Y0075894D02*
X0216965Y0075894D01*
X0211035Y0075894D02*
X0195715Y0075894D01*
X0196714Y0076893D02*
X0210036Y0076893D01*
X0209462Y0077891D02*
X0197289Y0077891D01*
X0196937Y0082884D02*
X0209813Y0082884D01*
X0210811Y0083882D02*
X0195939Y0083882D01*
X0194032Y0084881D02*
X0212718Y0084881D01*
X0215282Y0084881D02*
X0225911Y0084881D01*
X0224913Y0083882D02*
X0217189Y0083882D01*
X0218187Y0082884D02*
X0223914Y0082884D01*
X0227857Y0080887D02*
X0248177Y0080887D01*
X0246924Y0081885D02*
X0228855Y0081885D01*
X0229854Y0082884D02*
X0246194Y0082884D01*
X0269500Y0090872D02*
X0187842Y0090872D01*
X0188840Y0091870D02*
X0269500Y0091870D01*
X0269500Y0092869D02*
X0189839Y0092869D01*
X0190837Y0093868D02*
X0269500Y0093868D01*
X0269500Y0094866D02*
X0191836Y0094866D01*
X0192834Y0095865D02*
X0269500Y0095865D01*
X0269500Y0096863D02*
X0193833Y0096863D01*
X0194831Y0097862D02*
X0269500Y0097862D01*
X0269500Y0098860D02*
X0195830Y0098860D01*
X0196828Y0099859D02*
X0269500Y0099859D01*
X0269500Y0100857D02*
X0260363Y0100857D01*
X0261362Y0101856D02*
X0269500Y0101856D01*
X0269500Y0102854D02*
X0261924Y0102854D01*
X0262338Y0103853D02*
X0269500Y0103853D01*
X0269500Y0104851D02*
X0262350Y0104851D01*
X0262330Y0105850D02*
X0269500Y0105850D01*
X0269500Y0106848D02*
X0261917Y0106848D01*
X0261344Y0107847D02*
X0269500Y0107847D01*
X0269500Y0108845D02*
X0260346Y0108845D01*
X0269500Y0109844D02*
X0227126Y0109844D01*
X0226128Y0110842D02*
X0269500Y0110842D01*
X0269500Y0111841D02*
X0225129Y0111841D01*
X0228125Y0108845D02*
X0247654Y0108845D01*
X0246656Y0107847D02*
X0229123Y0107847D01*
X0226179Y0104851D02*
X0201821Y0104851D01*
X0200822Y0103853D02*
X0227178Y0103853D01*
X0225181Y0105850D02*
X0216921Y0105850D01*
X0217919Y0106848D02*
X0224182Y0106848D01*
X0223183Y0107847D02*
X0218520Y0107847D01*
X0218232Y0112839D02*
X0269500Y0112839D01*
X0269500Y0113838D02*
X0217233Y0113838D01*
X0209480Y0107847D02*
X0204817Y0107847D01*
X0203818Y0106848D02*
X0210081Y0106848D01*
X0211079Y0105850D02*
X0202820Y0105850D01*
X0199824Y0102854D02*
X0246076Y0102854D01*
X0246638Y0101856D02*
X0198825Y0101856D01*
X0197827Y0100857D02*
X0247637Y0100857D01*
X0192886Y0101856D02*
X0171844Y0101856D01*
X0172843Y0100857D02*
X0191887Y0100857D01*
X0190889Y0099859D02*
X0173075Y0099859D01*
X0192364Y0135805D02*
X0193136Y0135805D01*
X0193136Y0136803D02*
X0192364Y0136803D01*
X0192364Y0137802D02*
X0193136Y0137802D01*
X0187579Y0200708D02*
X0183421Y0200708D01*
X0184419Y0201707D02*
X0186581Y0201707D01*
X0185582Y0202705D02*
X0185100Y0202705D01*
X0157578Y0199710D02*
X0142422Y0199710D01*
X0143421Y0200708D02*
X0147579Y0200708D01*
X0146581Y0201707D02*
X0144419Y0201707D01*
X0145100Y0202705D02*
X0145582Y0202705D01*
X0152421Y0200708D02*
X0156579Y0200708D01*
X0155581Y0201707D02*
X0153419Y0201707D01*
X0154418Y0202705D02*
X0154900Y0202705D01*
X0117578Y0199710D02*
X0096422Y0199710D01*
X0097421Y0200708D02*
X0107579Y0200708D01*
X0106581Y0201707D02*
X0098419Y0201707D01*
X0099100Y0202705D02*
X0105582Y0202705D01*
X0104900Y0203704D02*
X0099100Y0203704D01*
X0099100Y0204702D02*
X0104900Y0204702D01*
X0104900Y0205701D02*
X0099100Y0205701D01*
X0099013Y0206699D02*
X0104900Y0206699D01*
X0104985Y0207698D02*
X0098015Y0207698D01*
X0097016Y0208696D02*
X0105984Y0208696D01*
X0106982Y0209695D02*
X0087018Y0209695D01*
X0088016Y0208696D02*
X0090984Y0208696D01*
X0089985Y0207698D02*
X0089015Y0207698D01*
X0088900Y0202705D02*
X0088418Y0202705D01*
X0087419Y0201707D02*
X0089581Y0201707D01*
X0090579Y0200708D02*
X0086421Y0200708D01*
X0081579Y0200708D02*
X0077421Y0200708D01*
X0078419Y0201707D02*
X0080581Y0201707D01*
X0079582Y0202705D02*
X0079100Y0202705D01*
X0076422Y0199710D02*
X0091578Y0199710D01*
X0071578Y0199710D02*
X0056422Y0199710D01*
X0057421Y0200708D02*
X0061579Y0200708D01*
X0060581Y0201707D02*
X0058419Y0201707D01*
X0059100Y0202705D02*
X0059582Y0202705D01*
X0051578Y0199710D02*
X0036422Y0199710D01*
X0037421Y0200708D02*
X0041579Y0200708D01*
X0040581Y0201707D02*
X0038419Y0201707D01*
X0039100Y0202705D02*
X0039582Y0202705D01*
X0046421Y0200708D02*
X0050579Y0200708D01*
X0049581Y0201707D02*
X0047419Y0201707D01*
X0048418Y0202705D02*
X0048900Y0202705D01*
X0066421Y0200708D02*
X0070579Y0200708D01*
X0069581Y0201707D02*
X0067419Y0201707D01*
X0068418Y0202705D02*
X0068900Y0202705D01*
X0112421Y0200708D02*
X0116579Y0200708D01*
X0115581Y0201707D02*
X0113419Y0201707D01*
X0114418Y0202705D02*
X0114900Y0202705D01*
X0052635Y0141796D02*
X0008500Y0141796D01*
X0008500Y0140798D02*
X0050716Y0140798D01*
X0049798Y0139799D02*
X0008500Y0139799D01*
X0008500Y0138801D02*
X0049384Y0138801D01*
X0049200Y0137802D02*
X0008500Y0137802D01*
X0008500Y0136803D02*
X0049200Y0136803D01*
X0049548Y0135805D02*
X0008500Y0135805D01*
X0008500Y0134806D02*
X0050112Y0134806D01*
X0051177Y0133808D02*
X0008500Y0133808D01*
X0008500Y0130812D02*
X0050731Y0130812D01*
X0049804Y0129814D02*
X0008500Y0129814D01*
X0008500Y0128815D02*
X0049391Y0128815D01*
X0049200Y0127817D02*
X0008500Y0127817D01*
X0008500Y0126818D02*
X0049200Y0126818D01*
X0049542Y0125820D02*
X0008500Y0125820D01*
X0008500Y0124821D02*
X0050098Y0124821D01*
X0051141Y0123823D02*
X0008500Y0123823D01*
X0008500Y0120827D02*
X0050746Y0120827D01*
X0049810Y0119829D02*
X0008500Y0119829D01*
X0008500Y0118830D02*
X0049397Y0118830D01*
X0049200Y0117832D02*
X0008500Y0117832D01*
X0008500Y0116833D02*
X0049200Y0116833D01*
X0049535Y0115835D02*
X0008500Y0115835D01*
X0008500Y0114836D02*
X0050083Y0114836D01*
X0051105Y0113838D02*
X0008500Y0113838D01*
X0008500Y0106848D02*
X0049047Y0106848D01*
X0049023Y0107000D02*
X0056000Y0107000D01*
X0056000Y0103000D01*
X0053146Y0103000D01*
X0052446Y0103111D01*
X0051773Y0103330D01*
X0051141Y0103651D01*
X0050568Y0104068D01*
X0050068Y0104568D01*
X0049651Y0105141D01*
X0049330Y0105773D01*
X0049111Y0106446D01*
X0049023Y0107000D01*
X0049305Y0105850D02*
X0008500Y0105850D01*
X0008500Y0104851D02*
X0049862Y0104851D01*
X0050864Y0103853D02*
X0008500Y0103853D01*
X0056000Y0103853D02*
X0057000Y0103853D01*
X0057000Y0104851D02*
X0056000Y0104851D01*
X0056000Y0105850D02*
X0057000Y0105850D01*
X0057000Y0106848D02*
X0056000Y0106848D01*
X0056000Y0109844D02*
X0057000Y0109844D01*
X0057000Y0110842D02*
X0056000Y0110842D01*
X0056000Y0111841D02*
X0057000Y0111841D01*
X0079772Y0137802D02*
X0095728Y0137802D01*
X0049280Y0055924D02*
X0036100Y0055924D01*
X0036100Y0054926D02*
X0049808Y0054926D01*
X0050762Y0053927D02*
X0036100Y0053927D01*
X0046735Y0019978D02*
X0061265Y0019978D01*
X0060267Y0018979D02*
X0056733Y0018979D01*
X0057732Y0017981D02*
X0059268Y0017981D01*
X0058900Y0016982D02*
X0058730Y0016982D01*
X0051267Y0018979D02*
X0047733Y0018979D01*
X0048732Y0017981D02*
X0050268Y0017981D01*
X0049270Y0016982D02*
X0049100Y0016982D01*
X0066735Y0019978D02*
X0091265Y0019978D01*
X0090267Y0018979D02*
X0076733Y0018979D01*
X0077732Y0017981D02*
X0089268Y0017981D01*
X0088900Y0016982D02*
X0078730Y0016982D01*
X0079100Y0015984D02*
X0088900Y0015984D01*
X0088900Y0014985D02*
X0079100Y0014985D01*
X0079100Y0013987D02*
X0088900Y0013987D01*
X0089299Y0012988D02*
X0079100Y0012988D01*
X0078702Y0011990D02*
X0090298Y0011990D01*
X0091296Y0010991D02*
X0077704Y0010991D01*
X0076705Y0009993D02*
X0101012Y0009993D01*
X0100014Y0010991D02*
X0096704Y0010991D01*
X0097702Y0011990D02*
X0099015Y0011990D01*
X0103500Y0015984D02*
X0104500Y0015984D01*
X0104500Y0016982D02*
X0103500Y0016982D01*
X0103500Y0017981D02*
X0104500Y0017981D01*
X0104500Y0018979D02*
X0103500Y0018979D01*
X0100984Y0018979D02*
X0097733Y0018979D01*
X0096735Y0019978D02*
X0110982Y0019978D01*
X0109984Y0018979D02*
X0107016Y0018979D01*
X0108015Y0017981D02*
X0108985Y0017981D01*
X0113500Y0015000D02*
X0114500Y0015000D01*
X0114500Y0010200D01*
X0116195Y0010200D01*
X0118900Y0012905D01*
X0118900Y0012388D01*
X0121788Y0009500D01*
X0106495Y0009500D01*
X0109300Y0012305D01*
X0109300Y0012705D01*
X0111805Y0010200D01*
X0113500Y0010200D01*
X0113500Y0015000D01*
X0113500Y0014985D02*
X0114500Y0014985D01*
X0114500Y0013987D02*
X0113500Y0013987D01*
X0113500Y0012988D02*
X0114500Y0012988D01*
X0114500Y0011990D02*
X0113500Y0011990D01*
X0113500Y0010991D02*
X0114500Y0010991D01*
X0116986Y0010991D02*
X0120296Y0010991D01*
X0119298Y0011990D02*
X0117985Y0011990D01*
X0121295Y0009993D02*
X0106988Y0009993D01*
X0107986Y0010991D02*
X0111014Y0010991D01*
X0110015Y0011990D02*
X0108985Y0011990D01*
X0099985Y0017981D02*
X0098732Y0017981D01*
X0071267Y0018979D02*
X0067733Y0018979D01*
X0068732Y0017981D02*
X0070268Y0017981D01*
X0069270Y0016982D02*
X0069100Y0016982D01*
X0151895Y0054926D02*
X0191576Y0054926D01*
D21*
X0192750Y0050000D02*
X0184000Y0041250D01*
X0150250Y0041250D01*
X0124000Y0015000D01*
X0086500Y0052500D01*
X0086500Y0062500D01*
X0094000Y0070000D01*
X0094000Y0105000D01*
X0086500Y0112500D01*
X0086500Y0122500D02*
X0071500Y0122500D01*
X0066500Y0117500D01*
X0056500Y0117500D01*
X0074000Y0072500D02*
X0086500Y0072500D01*
X0074000Y0072500D02*
X0069000Y0067500D01*
X0056500Y0067500D01*
M02*
