G75*
%MOIN*%
%OFA0B0*%
%FSLAX25Y25*%
%IPPOS*%
%LPD*%
%AMOC8*
5,1,8,0,0,1.08239X$1,22.5*
%
%ADD10OC8,0.05950*%
%ADD11C,0.08200*%
%ADD12C,0.06800*%
%ADD13OC8,0.08400*%
%ADD14C,0.07850*%
%ADD15C,0.07400*%
%ADD16C,0.06343*%
%ADD17C,0.12611*%
%ADD18C,0.05156*%
D10*
X0169000Y0091063D03*
X0169000Y0098937D03*
D11*
X0192750Y0110000D03*
X0214000Y0110000D03*
X0192750Y0140000D03*
X0192750Y0080000D03*
X0214000Y0080000D03*
X0192750Y0050000D03*
D12*
X0059500Y0057500D02*
X0053500Y0057500D01*
X0053500Y0067500D02*
X0059500Y0067500D01*
X0059500Y0077500D02*
X0053500Y0077500D01*
X0053500Y0087500D02*
X0059500Y0087500D01*
X0059500Y0107500D02*
X0053500Y0107500D01*
X0053500Y0117500D02*
X0059500Y0117500D01*
X0059500Y0127500D02*
X0053500Y0127500D01*
X0053500Y0137500D02*
X0059500Y0137500D01*
D13*
X0024000Y0015500D03*
X0034000Y0014500D03*
X0044000Y0015500D03*
X0054000Y0014500D03*
X0064000Y0015500D03*
X0074000Y0014500D03*
X0094000Y0015500D03*
X0104000Y0014500D03*
X0114000Y0015500D03*
X0124000Y0014500D03*
X0134000Y0015500D03*
X0144000Y0014500D03*
X0154000Y0015500D03*
X0164000Y0014500D03*
X0160000Y0204500D03*
X0170000Y0205500D03*
X0180000Y0204500D03*
X0190000Y0205500D03*
X0200000Y0204500D03*
X0150000Y0205500D03*
X0140000Y0204500D03*
X0130000Y0205500D03*
X0120000Y0204500D03*
X0110000Y0205500D03*
X0094000Y0204500D03*
X0084000Y0205500D03*
X0074000Y0204500D03*
X0064000Y0205500D03*
X0054000Y0204500D03*
X0044000Y0205500D03*
X0034000Y0204500D03*
X0024000Y0205500D03*
D14*
X0250475Y0104843D02*
X0257525Y0104843D01*
X0257525Y0085157D02*
X0250475Y0085157D01*
D15*
X0086500Y0082500D03*
X0086500Y0072500D03*
X0086500Y0062500D03*
X0086500Y0112500D03*
X0086500Y0122500D03*
X0086500Y0132500D03*
D16*
X0118685Y0138248D03*
X0129315Y0138248D03*
X0129315Y0122500D03*
X0118685Y0122500D03*
X0118685Y0106752D03*
X0129315Y0106752D03*
D17*
X0124000Y0090020D03*
X0124000Y0154980D03*
D18*
X0115250Y0067500D03*
X0115250Y0056250D03*
M02*
