G75*
%MOIN*%
%OFA0B0*%
%FSLAX25Y25*%
%IPPOS*%
%LPD*%
%AMOC8*
5,1,8,0,0,1.08239X$1,22.5*
%
%ADD10C,0.01600*%
%ADD11C,0.00600*%
%ADD12C,0.00400*%
%ADD13R,0.01181X0.00591*%
%ADD14R,0.01181X0.01181*%
%ADD15C,0.00100*%
%ADD16R,0.01800X0.03000*%
%ADD17C,0.00500*%
%ADD18C,0.00300*%
%ADD19C,0.00000*%
%ADD20C,0.00394*%
D10*
X0001800Y0073108D02*
X0001821Y0074858D01*
X0001886Y0076607D01*
X0001993Y0078354D01*
X0002143Y0080097D01*
X0002336Y0081837D01*
X0002572Y0083571D01*
X0002850Y0085299D01*
X0003170Y0087020D01*
X0003533Y0088732D01*
X0003937Y0090434D01*
X0004383Y0092127D01*
X0004870Y0093808D01*
X0005399Y0095476D01*
X0005968Y0097131D01*
X0006578Y0098771D01*
X0007228Y0100396D01*
X0007918Y0102005D01*
X0008646Y0103596D01*
X0009414Y0105169D01*
X0010220Y0106722D01*
X0011064Y0108256D01*
X0011945Y0109768D01*
X0012863Y0111258D01*
X0013818Y0112725D01*
X0014808Y0114168D01*
X0015833Y0115586D01*
X0016893Y0116979D01*
X0017986Y0118345D01*
X0019113Y0119684D01*
X0020272Y0120996D01*
X0021463Y0122278D01*
X0022686Y0123530D01*
X0023938Y0124753D01*
X0025220Y0125944D01*
X0026532Y0127103D01*
X0027871Y0128230D01*
X0029237Y0129323D01*
X0030630Y0130383D01*
X0032048Y0131408D01*
X0033491Y0132398D01*
X0034958Y0133353D01*
X0036448Y0134271D01*
X0037960Y0135152D01*
X0039494Y0135996D01*
X0041047Y0136802D01*
X0042620Y0137570D01*
X0044211Y0138298D01*
X0045820Y0138988D01*
X0047445Y0139638D01*
X0049085Y0140248D01*
X0050740Y0140817D01*
X0052408Y0141346D01*
X0054089Y0141833D01*
X0055782Y0142279D01*
X0057484Y0142683D01*
X0059196Y0143046D01*
X0060917Y0143366D01*
X0062645Y0143644D01*
X0064379Y0143880D01*
X0066119Y0144073D01*
X0067862Y0144223D01*
X0069609Y0144330D01*
X0071358Y0144395D01*
X0073108Y0144416D01*
X0074858Y0144395D01*
X0076607Y0144330D01*
X0078354Y0144223D01*
X0080097Y0144073D01*
X0081837Y0143880D01*
X0083571Y0143644D01*
X0085299Y0143366D01*
X0087020Y0143046D01*
X0088732Y0142683D01*
X0090434Y0142279D01*
X0092127Y0141833D01*
X0093808Y0141346D01*
X0095476Y0140817D01*
X0097131Y0140248D01*
X0098771Y0139638D01*
X0100396Y0138988D01*
X0102005Y0138298D01*
X0103596Y0137570D01*
X0105169Y0136802D01*
X0106722Y0135996D01*
X0108256Y0135152D01*
X0109768Y0134271D01*
X0111258Y0133353D01*
X0112725Y0132398D01*
X0114168Y0131408D01*
X0115586Y0130383D01*
X0116979Y0129323D01*
X0118345Y0128230D01*
X0119684Y0127103D01*
X0120996Y0125944D01*
X0122278Y0124753D01*
X0123530Y0123530D01*
X0124753Y0122278D01*
X0125944Y0120996D01*
X0127103Y0119684D01*
X0128230Y0118345D01*
X0129323Y0116979D01*
X0130383Y0115586D01*
X0131408Y0114168D01*
X0132398Y0112725D01*
X0133353Y0111258D01*
X0134271Y0109768D01*
X0135152Y0108256D01*
X0135996Y0106722D01*
X0136802Y0105169D01*
X0137570Y0103596D01*
X0138298Y0102005D01*
X0138988Y0100396D01*
X0139638Y0098771D01*
X0140248Y0097131D01*
X0140817Y0095476D01*
X0141346Y0093808D01*
X0141833Y0092127D01*
X0142279Y0090434D01*
X0142683Y0088732D01*
X0143046Y0087020D01*
X0143366Y0085299D01*
X0143644Y0083571D01*
X0143880Y0081837D01*
X0144073Y0080097D01*
X0144223Y0078354D01*
X0144330Y0076607D01*
X0144395Y0074858D01*
X0144416Y0073108D01*
X0144395Y0071358D01*
X0144330Y0069609D01*
X0144223Y0067862D01*
X0144073Y0066119D01*
X0143880Y0064379D01*
X0143644Y0062645D01*
X0143366Y0060917D01*
X0143046Y0059196D01*
X0142683Y0057484D01*
X0142279Y0055782D01*
X0141833Y0054089D01*
X0141346Y0052408D01*
X0140817Y0050740D01*
X0140248Y0049085D01*
X0139638Y0047445D01*
X0138988Y0045820D01*
X0138298Y0044211D01*
X0137570Y0042620D01*
X0136802Y0041047D01*
X0135996Y0039494D01*
X0135152Y0037960D01*
X0134271Y0036448D01*
X0133353Y0034958D01*
X0132398Y0033491D01*
X0131408Y0032048D01*
X0130383Y0030630D01*
X0129323Y0029237D01*
X0128230Y0027871D01*
X0127103Y0026532D01*
X0125944Y0025220D01*
X0124753Y0023938D01*
X0123530Y0022686D01*
X0122278Y0021463D01*
X0120996Y0020272D01*
X0119684Y0019113D01*
X0118345Y0017986D01*
X0116979Y0016893D01*
X0115586Y0015833D01*
X0114168Y0014808D01*
X0112725Y0013818D01*
X0111258Y0012863D01*
X0109768Y0011945D01*
X0108256Y0011064D01*
X0106722Y0010220D01*
X0105169Y0009414D01*
X0103596Y0008646D01*
X0102005Y0007918D01*
X0100396Y0007228D01*
X0098771Y0006578D01*
X0097131Y0005968D01*
X0095476Y0005399D01*
X0093808Y0004870D01*
X0092127Y0004383D01*
X0090434Y0003937D01*
X0088732Y0003533D01*
X0087020Y0003170D01*
X0085299Y0002850D01*
X0083571Y0002572D01*
X0081837Y0002336D01*
X0080097Y0002143D01*
X0078354Y0001993D01*
X0076607Y0001886D01*
X0074858Y0001821D01*
X0073108Y0001800D01*
X0071358Y0001821D01*
X0069609Y0001886D01*
X0067862Y0001993D01*
X0066119Y0002143D01*
X0064379Y0002336D01*
X0062645Y0002572D01*
X0060917Y0002850D01*
X0059196Y0003170D01*
X0057484Y0003533D01*
X0055782Y0003937D01*
X0054089Y0004383D01*
X0052408Y0004870D01*
X0050740Y0005399D01*
X0049085Y0005968D01*
X0047445Y0006578D01*
X0045820Y0007228D01*
X0044211Y0007918D01*
X0042620Y0008646D01*
X0041047Y0009414D01*
X0039494Y0010220D01*
X0037960Y0011064D01*
X0036448Y0011945D01*
X0034958Y0012863D01*
X0033491Y0013818D01*
X0032048Y0014808D01*
X0030630Y0015833D01*
X0029237Y0016893D01*
X0027871Y0017986D01*
X0026532Y0019113D01*
X0025220Y0020272D01*
X0023938Y0021463D01*
X0022686Y0022686D01*
X0021463Y0023938D01*
X0020272Y0025220D01*
X0019113Y0026532D01*
X0017986Y0027871D01*
X0016893Y0029237D01*
X0015833Y0030630D01*
X0014808Y0032048D01*
X0013818Y0033491D01*
X0012863Y0034958D01*
X0011945Y0036448D01*
X0011064Y0037960D01*
X0010220Y0039494D01*
X0009414Y0041047D01*
X0008646Y0042620D01*
X0007918Y0044211D01*
X0007228Y0045820D01*
X0006578Y0047445D01*
X0005968Y0049085D01*
X0005399Y0050740D01*
X0004870Y0052408D01*
X0004383Y0054089D01*
X0003937Y0055782D01*
X0003533Y0057484D01*
X0003170Y0059196D01*
X0002850Y0060917D01*
X0002572Y0062645D01*
X0002336Y0064379D01*
X0002143Y0066119D01*
X0001993Y0067862D01*
X0001886Y0069609D01*
X0001821Y0071358D01*
X0001800Y0073108D01*
D11*
X0098605Y0127792D02*
X0102875Y0127792D01*
X0112384Y0125429D02*
X0116654Y0125429D01*
X0114519Y0127564D02*
X0114519Y0123294D01*
D12*
X0033091Y0031908D02*
X0033091Y0027304D01*
X0033091Y0028838D02*
X0035393Y0028838D01*
X0036160Y0029606D01*
X0036160Y0031140D01*
X0035393Y0031908D01*
X0033091Y0031908D01*
X0037695Y0031140D02*
X0037695Y0028071D01*
X0040764Y0031140D01*
X0040764Y0028071D01*
X0039997Y0027304D01*
X0038462Y0027304D01*
X0037695Y0028071D01*
X0037695Y0031140D02*
X0038462Y0031908D01*
X0039997Y0031908D01*
X0040764Y0031140D01*
X0042299Y0026536D02*
X0045368Y0026536D01*
X0046903Y0027304D02*
X0049972Y0027304D01*
X0048438Y0027304D02*
X0048438Y0031908D01*
X0046903Y0030373D01*
X0054847Y0037044D02*
X0054847Y0041648D01*
X0057149Y0041648D01*
X0057916Y0040880D01*
X0057916Y0039346D01*
X0057149Y0038579D01*
X0054847Y0038579D01*
X0056382Y0038579D02*
X0057916Y0037044D01*
X0059451Y0039346D02*
X0062520Y0039346D01*
X0061753Y0037044D02*
X0061753Y0041648D01*
X0059451Y0039346D01*
X0078469Y0040981D02*
X0078469Y0045585D01*
X0080771Y0045585D01*
X0081538Y0044818D01*
X0081538Y0043283D01*
X0080771Y0042516D01*
X0078469Y0042516D01*
X0080004Y0042516D02*
X0081538Y0040981D01*
X0083073Y0040981D02*
X0083073Y0041748D01*
X0086142Y0044818D01*
X0086142Y0045585D01*
X0083073Y0045585D01*
X0096379Y0033424D02*
X0097913Y0034959D01*
X0097913Y0030355D01*
X0096379Y0030355D02*
X0099448Y0030355D01*
X0086142Y0030251D02*
X0086142Y0029483D01*
X0085375Y0028716D01*
X0083840Y0028716D01*
X0083073Y0029483D01*
X0083073Y0030251D01*
X0083840Y0031018D01*
X0085375Y0031018D01*
X0086142Y0030251D01*
X0085375Y0028716D02*
X0086142Y0027949D01*
X0086142Y0027181D01*
X0085375Y0026414D01*
X0083840Y0026414D01*
X0083073Y0027181D01*
X0083073Y0027949D01*
X0083840Y0028716D01*
X0081538Y0028716D02*
X0080771Y0027949D01*
X0078469Y0027949D01*
X0080004Y0027949D02*
X0081538Y0026414D01*
X0081538Y0028716D02*
X0081538Y0030251D01*
X0080771Y0031018D01*
X0078469Y0031018D01*
X0078469Y0026414D01*
X0074845Y0008758D02*
X0074845Y0005689D01*
X0073310Y0007224D02*
X0076379Y0007224D01*
X0061379Y0007224D02*
X0058310Y0007224D01*
X0038063Y0039194D02*
X0036528Y0039194D01*
X0035761Y0039961D01*
X0038830Y0043030D01*
X0038830Y0039961D01*
X0038063Y0039194D01*
X0035761Y0039961D02*
X0035761Y0043030D01*
X0036528Y0043797D01*
X0038063Y0043797D01*
X0038830Y0043030D01*
X0034227Y0038426D02*
X0031157Y0038426D01*
X0029623Y0039961D02*
X0028855Y0039194D01*
X0027321Y0039194D01*
X0026553Y0039961D01*
X0029623Y0043030D01*
X0029623Y0039961D01*
X0029623Y0043030D02*
X0028855Y0043797D01*
X0027321Y0043797D01*
X0026553Y0043030D01*
X0026553Y0039961D01*
X0025019Y0041495D02*
X0024251Y0040728D01*
X0021949Y0040728D01*
X0021949Y0039194D02*
X0021949Y0043797D01*
X0024251Y0043797D01*
X0025019Y0043030D01*
X0025019Y0041495D01*
X0007614Y0064764D02*
X0007614Y0067834D01*
X0006079Y0066299D02*
X0009148Y0066299D01*
X0007614Y0079764D02*
X0007614Y0082834D01*
X0020989Y0082279D02*
X0023291Y0082279D01*
X0024058Y0083047D01*
X0024058Y0084581D01*
X0023291Y0085349D01*
X0020989Y0085349D01*
X0020989Y0080745D01*
X0022523Y0082279D02*
X0024058Y0080745D01*
X0025593Y0081512D02*
X0026360Y0080745D01*
X0027895Y0080745D01*
X0028662Y0081512D01*
X0028662Y0083047D01*
X0027895Y0083814D01*
X0027127Y0083814D01*
X0025593Y0083047D01*
X0025593Y0085349D01*
X0028662Y0085349D01*
X0027895Y0099249D02*
X0026360Y0099249D01*
X0025593Y0100016D01*
X0025593Y0101551D01*
X0027895Y0101551D01*
X0028662Y0100783D01*
X0028662Y0100016D01*
X0027895Y0099249D01*
X0025593Y0101551D02*
X0027127Y0103085D01*
X0028662Y0103853D01*
X0024058Y0103085D02*
X0024058Y0101551D01*
X0023291Y0100783D01*
X0020989Y0100783D01*
X0020989Y0099249D02*
X0020989Y0103853D01*
X0023291Y0103853D01*
X0024058Y0103085D01*
X0022523Y0100783D02*
X0024058Y0099249D01*
X0034409Y0128799D02*
X0034409Y0131869D01*
X0032875Y0130334D02*
X0035944Y0130334D01*
X0047875Y0130334D02*
X0050944Y0130334D01*
X0099335Y0102278D02*
X0099335Y0097674D01*
X0099335Y0099208D02*
X0101637Y0099208D01*
X0102405Y0099976D01*
X0102405Y0101510D01*
X0101637Y0102278D01*
X0099335Y0102278D01*
X0100870Y0099208D02*
X0102405Y0097674D01*
X0103939Y0097674D02*
X0107008Y0097674D01*
X0105474Y0097674D02*
X0105474Y0102278D01*
X0103939Y0100743D01*
X0116658Y0101010D02*
X0116658Y0097941D01*
X0117425Y0097174D01*
X0118960Y0097174D01*
X0119727Y0097941D01*
X0121262Y0097174D02*
X0124331Y0100243D01*
X0124331Y0101010D01*
X0123564Y0101778D01*
X0122029Y0101778D01*
X0121262Y0101010D01*
X0119727Y0101010D02*
X0118960Y0101778D01*
X0117425Y0101778D01*
X0116658Y0101010D01*
X0121262Y0097174D02*
X0124331Y0097174D01*
X0134779Y0085196D02*
X0134779Y0082127D01*
X0134779Y0070196D02*
X0134779Y0067127D01*
X0133244Y0068661D02*
X0136314Y0068661D01*
X0107008Y0065284D02*
X0103939Y0065284D01*
X0105474Y0065284D02*
X0105474Y0069888D01*
X0103939Y0068353D01*
X0102405Y0069121D02*
X0101637Y0069888D01*
X0100103Y0069888D01*
X0099335Y0069121D01*
X0099335Y0066051D01*
X0100103Y0065284D01*
X0101637Y0065284D01*
X0102405Y0066051D01*
X0101243Y0081819D02*
X0099709Y0081819D01*
X0098942Y0082587D01*
X0098942Y0085656D01*
X0099709Y0086423D01*
X0101243Y0086423D01*
X0102011Y0085656D01*
X0103545Y0085656D02*
X0104313Y0086423D01*
X0105847Y0086423D01*
X0106615Y0085656D01*
X0106615Y0084889D01*
X0105847Y0084121D01*
X0106615Y0083354D01*
X0106615Y0082587D01*
X0105847Y0081819D01*
X0104313Y0081819D01*
X0103545Y0082587D01*
X0102011Y0082587D02*
X0101243Y0081819D01*
X0105080Y0084121D02*
X0105847Y0084121D01*
D13*
X0035982Y0026080D03*
X0035982Y0023127D03*
X0024840Y0035017D03*
X0024840Y0037970D03*
D14*
X0024840Y0036494D03*
X0035982Y0024604D03*
D15*
X0038792Y0062181D02*
X0038792Y0063683D01*
X0039542Y0063683D01*
X0039792Y0063432D01*
X0039792Y0062932D01*
X0039542Y0062682D01*
X0038792Y0062682D01*
X0039292Y0062682D02*
X0039792Y0062181D01*
X0040265Y0062181D02*
X0041266Y0063182D01*
X0041266Y0063432D01*
X0041015Y0063683D01*
X0040515Y0063683D01*
X0040265Y0063432D01*
X0040265Y0062181D02*
X0041266Y0062181D01*
X0039047Y0079268D02*
X0038546Y0079268D01*
X0038296Y0079518D01*
X0037824Y0079268D02*
X0037323Y0079768D01*
X0037574Y0079768D02*
X0036823Y0079768D01*
X0036823Y0079268D02*
X0036823Y0080769D01*
X0037574Y0080769D01*
X0037824Y0080519D01*
X0037824Y0080019D01*
X0037574Y0079768D01*
X0038296Y0080519D02*
X0038546Y0080769D01*
X0039047Y0080769D01*
X0039297Y0080519D01*
X0039297Y0080269D01*
X0039047Y0080019D01*
X0039297Y0079768D01*
X0039297Y0079518D01*
X0039047Y0079268D01*
X0039047Y0080019D02*
X0038797Y0080019D01*
X0038611Y0098638D02*
X0038111Y0099138D01*
X0038361Y0099138D02*
X0037610Y0099138D01*
X0037610Y0098638D02*
X0037610Y0100139D01*
X0038361Y0100139D01*
X0038611Y0099889D01*
X0038611Y0099389D01*
X0038361Y0099138D01*
X0039084Y0098888D02*
X0040085Y0099889D01*
X0040085Y0098888D01*
X0039834Y0098638D01*
X0039334Y0098638D01*
X0039084Y0098888D01*
X0039084Y0099889D01*
X0039334Y0100139D01*
X0039834Y0100139D01*
X0040085Y0099889D01*
D16*
X0041060Y0095588D03*
X0040273Y0076218D03*
X0042242Y0059131D03*
D17*
X0029997Y0057556D02*
X0029997Y0062675D01*
X0018580Y0062675D01*
X0018580Y0057556D01*
X0029997Y0057556D01*
X0054407Y0079801D02*
X0090824Y0079801D01*
X0090824Y0142596D01*
X0054407Y0142596D01*
X0054407Y0079801D01*
X0063383Y0073895D02*
X0063383Y0053423D01*
X0083856Y0053423D01*
X0083856Y0073895D01*
X0063383Y0073895D01*
X0065650Y0069171D02*
X0065652Y0069252D01*
X0065658Y0069333D01*
X0065668Y0069414D01*
X0065682Y0069494D01*
X0065699Y0069574D01*
X0065721Y0069652D01*
X0065746Y0069729D01*
X0065775Y0069805D01*
X0065808Y0069880D01*
X0065844Y0069953D01*
X0065884Y0070024D01*
X0065927Y0070092D01*
X0065974Y0070159D01*
X0066023Y0070224D01*
X0066076Y0070285D01*
X0066132Y0070345D01*
X0066191Y0070401D01*
X0066252Y0070455D01*
X0066316Y0070505D01*
X0066382Y0070552D01*
X0066450Y0070597D01*
X0066520Y0070637D01*
X0066593Y0070674D01*
X0066667Y0070708D01*
X0066742Y0070738D01*
X0066819Y0070764D01*
X0066898Y0070787D01*
X0066977Y0070805D01*
X0067057Y0070820D01*
X0067137Y0070831D01*
X0067218Y0070838D01*
X0067300Y0070841D01*
X0067381Y0070840D01*
X0067462Y0070835D01*
X0067543Y0070826D01*
X0067623Y0070813D01*
X0067703Y0070797D01*
X0067782Y0070776D01*
X0067859Y0070752D01*
X0067936Y0070723D01*
X0068010Y0070692D01*
X0068084Y0070656D01*
X0068155Y0070617D01*
X0068224Y0070575D01*
X0068292Y0070529D01*
X0068357Y0070480D01*
X0068419Y0070428D01*
X0068479Y0070373D01*
X0068536Y0070315D01*
X0068591Y0070255D01*
X0068642Y0070192D01*
X0068690Y0070126D01*
X0068735Y0070058D01*
X0068776Y0069988D01*
X0068814Y0069916D01*
X0068849Y0069843D01*
X0068880Y0069768D01*
X0068907Y0069691D01*
X0068930Y0069613D01*
X0068950Y0069534D01*
X0068966Y0069454D01*
X0068978Y0069374D01*
X0068986Y0069293D01*
X0068990Y0069212D01*
X0068990Y0069130D01*
X0068986Y0069049D01*
X0068978Y0068968D01*
X0068966Y0068888D01*
X0068950Y0068808D01*
X0068930Y0068729D01*
X0068907Y0068651D01*
X0068880Y0068574D01*
X0068849Y0068499D01*
X0068814Y0068426D01*
X0068776Y0068354D01*
X0068735Y0068284D01*
X0068690Y0068216D01*
X0068642Y0068150D01*
X0068591Y0068087D01*
X0068536Y0068027D01*
X0068479Y0067969D01*
X0068419Y0067914D01*
X0068357Y0067862D01*
X0068292Y0067813D01*
X0068224Y0067767D01*
X0068155Y0067725D01*
X0068084Y0067686D01*
X0068010Y0067650D01*
X0067936Y0067619D01*
X0067859Y0067590D01*
X0067782Y0067566D01*
X0067703Y0067545D01*
X0067623Y0067529D01*
X0067543Y0067516D01*
X0067462Y0067507D01*
X0067381Y0067502D01*
X0067300Y0067501D01*
X0067218Y0067504D01*
X0067137Y0067511D01*
X0067057Y0067522D01*
X0066977Y0067537D01*
X0066898Y0067555D01*
X0066819Y0067578D01*
X0066742Y0067604D01*
X0066667Y0067634D01*
X0066593Y0067668D01*
X0066520Y0067705D01*
X0066450Y0067745D01*
X0066382Y0067790D01*
X0066316Y0067837D01*
X0066252Y0067887D01*
X0066191Y0067941D01*
X0066132Y0067997D01*
X0066076Y0068057D01*
X0066023Y0068118D01*
X0065974Y0068183D01*
X0065927Y0068250D01*
X0065884Y0068318D01*
X0065844Y0068389D01*
X0065808Y0068462D01*
X0065775Y0068537D01*
X0065746Y0068613D01*
X0065721Y0068690D01*
X0065699Y0068768D01*
X0065682Y0068848D01*
X0065668Y0068928D01*
X0065658Y0069009D01*
X0065652Y0069090D01*
X0065650Y0069171D01*
X0065650Y0058541D02*
X0065652Y0058622D01*
X0065658Y0058703D01*
X0065668Y0058784D01*
X0065682Y0058864D01*
X0065699Y0058944D01*
X0065721Y0059022D01*
X0065746Y0059099D01*
X0065775Y0059175D01*
X0065808Y0059250D01*
X0065844Y0059323D01*
X0065884Y0059394D01*
X0065927Y0059462D01*
X0065974Y0059529D01*
X0066023Y0059594D01*
X0066076Y0059655D01*
X0066132Y0059715D01*
X0066191Y0059771D01*
X0066252Y0059825D01*
X0066316Y0059875D01*
X0066382Y0059922D01*
X0066450Y0059967D01*
X0066520Y0060007D01*
X0066593Y0060044D01*
X0066667Y0060078D01*
X0066742Y0060108D01*
X0066819Y0060134D01*
X0066898Y0060157D01*
X0066977Y0060175D01*
X0067057Y0060190D01*
X0067137Y0060201D01*
X0067218Y0060208D01*
X0067300Y0060211D01*
X0067381Y0060210D01*
X0067462Y0060205D01*
X0067543Y0060196D01*
X0067623Y0060183D01*
X0067703Y0060167D01*
X0067782Y0060146D01*
X0067859Y0060122D01*
X0067936Y0060093D01*
X0068010Y0060062D01*
X0068084Y0060026D01*
X0068155Y0059987D01*
X0068224Y0059945D01*
X0068292Y0059899D01*
X0068357Y0059850D01*
X0068419Y0059798D01*
X0068479Y0059743D01*
X0068536Y0059685D01*
X0068591Y0059625D01*
X0068642Y0059562D01*
X0068690Y0059496D01*
X0068735Y0059428D01*
X0068776Y0059358D01*
X0068814Y0059286D01*
X0068849Y0059213D01*
X0068880Y0059138D01*
X0068907Y0059061D01*
X0068930Y0058983D01*
X0068950Y0058904D01*
X0068966Y0058824D01*
X0068978Y0058744D01*
X0068986Y0058663D01*
X0068990Y0058582D01*
X0068990Y0058500D01*
X0068986Y0058419D01*
X0068978Y0058338D01*
X0068966Y0058258D01*
X0068950Y0058178D01*
X0068930Y0058099D01*
X0068907Y0058021D01*
X0068880Y0057944D01*
X0068849Y0057869D01*
X0068814Y0057796D01*
X0068776Y0057724D01*
X0068735Y0057654D01*
X0068690Y0057586D01*
X0068642Y0057520D01*
X0068591Y0057457D01*
X0068536Y0057397D01*
X0068479Y0057339D01*
X0068419Y0057284D01*
X0068357Y0057232D01*
X0068292Y0057183D01*
X0068224Y0057137D01*
X0068155Y0057095D01*
X0068084Y0057056D01*
X0068010Y0057020D01*
X0067936Y0056989D01*
X0067859Y0056960D01*
X0067782Y0056936D01*
X0067703Y0056915D01*
X0067623Y0056899D01*
X0067543Y0056886D01*
X0067462Y0056877D01*
X0067381Y0056872D01*
X0067300Y0056871D01*
X0067218Y0056874D01*
X0067137Y0056881D01*
X0067057Y0056892D01*
X0066977Y0056907D01*
X0066898Y0056925D01*
X0066819Y0056948D01*
X0066742Y0056974D01*
X0066667Y0057004D01*
X0066593Y0057038D01*
X0066520Y0057075D01*
X0066450Y0057115D01*
X0066382Y0057160D01*
X0066316Y0057207D01*
X0066252Y0057257D01*
X0066191Y0057311D01*
X0066132Y0057367D01*
X0066076Y0057427D01*
X0066023Y0057488D01*
X0065974Y0057553D01*
X0065927Y0057620D01*
X0065884Y0057688D01*
X0065844Y0057759D01*
X0065808Y0057832D01*
X0065775Y0057907D01*
X0065746Y0057983D01*
X0065721Y0058060D01*
X0065699Y0058138D01*
X0065682Y0058218D01*
X0065668Y0058298D01*
X0065658Y0058379D01*
X0065652Y0058460D01*
X0065650Y0058541D01*
X0101100Y0046494D02*
X0101100Y0032320D01*
X0125706Y0032320D01*
X0125706Y0046494D01*
X0101100Y0046494D01*
X0117793Y0071730D02*
X0117793Y0076848D01*
X0129210Y0076848D01*
X0129210Y0071730D01*
X0117793Y0071730D01*
X0101650Y0115864D02*
X0101652Y0115929D01*
X0101658Y0115993D01*
X0101668Y0116058D01*
X0101682Y0116121D01*
X0101699Y0116184D01*
X0101720Y0116245D01*
X0101746Y0116305D01*
X0101774Y0116363D01*
X0101806Y0116419D01*
X0101842Y0116474D01*
X0101881Y0116526D01*
X0101923Y0116575D01*
X0101967Y0116622D01*
X0102015Y0116666D01*
X0102065Y0116707D01*
X0102118Y0116745D01*
X0102173Y0116780D01*
X0102230Y0116811D01*
X0102288Y0116839D01*
X0102348Y0116863D01*
X0102410Y0116884D01*
X0102473Y0116900D01*
X0102536Y0116913D01*
X0102601Y0116922D01*
X0102665Y0116927D01*
X0102730Y0116928D01*
X0102795Y0116925D01*
X0102860Y0116918D01*
X0102924Y0116907D01*
X0102987Y0116892D01*
X0103049Y0116874D01*
X0103110Y0116852D01*
X0103169Y0116826D01*
X0103227Y0116796D01*
X0103283Y0116763D01*
X0103337Y0116727D01*
X0103388Y0116687D01*
X0103437Y0116644D01*
X0103483Y0116599D01*
X0103527Y0116551D01*
X0103567Y0116500D01*
X0103604Y0116447D01*
X0103638Y0116391D01*
X0103669Y0116334D01*
X0103695Y0116275D01*
X0103719Y0116214D01*
X0103738Y0116152D01*
X0103754Y0116089D01*
X0103766Y0116026D01*
X0103774Y0115961D01*
X0103778Y0115896D01*
X0103778Y0115832D01*
X0103774Y0115767D01*
X0103766Y0115702D01*
X0103754Y0115639D01*
X0103738Y0115576D01*
X0103719Y0115514D01*
X0103695Y0115453D01*
X0103669Y0115394D01*
X0103638Y0115337D01*
X0103604Y0115281D01*
X0103567Y0115228D01*
X0103527Y0115177D01*
X0103483Y0115129D01*
X0103437Y0115084D01*
X0103388Y0115041D01*
X0103337Y0115001D01*
X0103283Y0114965D01*
X0103227Y0114932D01*
X0103169Y0114902D01*
X0103110Y0114876D01*
X0103049Y0114854D01*
X0102987Y0114836D01*
X0102924Y0114821D01*
X0102860Y0114810D01*
X0102795Y0114803D01*
X0102730Y0114800D01*
X0102665Y0114801D01*
X0102601Y0114806D01*
X0102536Y0114815D01*
X0102473Y0114828D01*
X0102410Y0114844D01*
X0102348Y0114865D01*
X0102288Y0114889D01*
X0102230Y0114917D01*
X0102173Y0114948D01*
X0102118Y0114983D01*
X0102065Y0115021D01*
X0102015Y0115062D01*
X0101967Y0115106D01*
X0101923Y0115153D01*
X0101881Y0115202D01*
X0101842Y0115254D01*
X0101806Y0115309D01*
X0101774Y0115365D01*
X0101746Y0115423D01*
X0101720Y0115483D01*
X0101699Y0115544D01*
X0101682Y0115607D01*
X0101668Y0115670D01*
X0101658Y0115735D01*
X0101652Y0115799D01*
X0101650Y0115864D01*
X0044958Y0113462D02*
X0044958Y0118580D01*
X0033541Y0118580D01*
X0033541Y0113462D01*
X0044958Y0113462D01*
X0050864Y0017793D02*
X0050864Y0012675D01*
X0062281Y0012675D01*
X0062281Y0017793D01*
X0050864Y0017793D01*
D18*
X0064253Y0078809D02*
X0065221Y0078809D01*
X0065704Y0079293D01*
X0065704Y0081711D01*
X0066716Y0081228D02*
X0067200Y0081711D01*
X0068167Y0081711D01*
X0068651Y0081228D01*
X0069663Y0081228D02*
X0070146Y0081711D01*
X0071114Y0081711D01*
X0071598Y0081228D01*
X0071598Y0080744D01*
X0069663Y0078809D01*
X0071598Y0078809D01*
X0068651Y0079293D02*
X0068167Y0078809D01*
X0067200Y0078809D01*
X0066716Y0079293D01*
X0067200Y0080260D02*
X0066716Y0080744D01*
X0066716Y0081228D01*
X0067200Y0080260D02*
X0068167Y0080260D01*
X0068651Y0079776D01*
X0068651Y0079293D01*
X0067683Y0078325D02*
X0067683Y0082195D01*
X0063769Y0081711D02*
X0063769Y0079293D01*
X0064253Y0078809D01*
D19*
X0104446Y0039013D02*
X0104448Y0039101D01*
X0104454Y0039189D01*
X0104464Y0039277D01*
X0104478Y0039365D01*
X0104495Y0039451D01*
X0104517Y0039537D01*
X0104542Y0039621D01*
X0104572Y0039705D01*
X0104604Y0039787D01*
X0104641Y0039867D01*
X0104681Y0039946D01*
X0104725Y0040023D01*
X0104772Y0040098D01*
X0104822Y0040170D01*
X0104876Y0040241D01*
X0104932Y0040308D01*
X0104992Y0040374D01*
X0105054Y0040436D01*
X0105120Y0040496D01*
X0105187Y0040552D01*
X0105258Y0040606D01*
X0105330Y0040656D01*
X0105405Y0040703D01*
X0105482Y0040747D01*
X0105561Y0040787D01*
X0105641Y0040824D01*
X0105723Y0040856D01*
X0105807Y0040886D01*
X0105891Y0040911D01*
X0105977Y0040933D01*
X0106063Y0040950D01*
X0106151Y0040964D01*
X0106239Y0040974D01*
X0106327Y0040980D01*
X0106415Y0040982D01*
X0106503Y0040980D01*
X0106591Y0040974D01*
X0106679Y0040964D01*
X0106767Y0040950D01*
X0106853Y0040933D01*
X0106939Y0040911D01*
X0107023Y0040886D01*
X0107107Y0040856D01*
X0107189Y0040824D01*
X0107269Y0040787D01*
X0107348Y0040747D01*
X0107425Y0040703D01*
X0107500Y0040656D01*
X0107572Y0040606D01*
X0107643Y0040552D01*
X0107710Y0040496D01*
X0107776Y0040436D01*
X0107838Y0040374D01*
X0107898Y0040308D01*
X0107954Y0040241D01*
X0108008Y0040170D01*
X0108058Y0040098D01*
X0108105Y0040023D01*
X0108149Y0039946D01*
X0108189Y0039867D01*
X0108226Y0039787D01*
X0108258Y0039705D01*
X0108288Y0039621D01*
X0108313Y0039537D01*
X0108335Y0039451D01*
X0108352Y0039365D01*
X0108366Y0039277D01*
X0108376Y0039189D01*
X0108382Y0039101D01*
X0108384Y0039013D01*
X0108382Y0038925D01*
X0108376Y0038837D01*
X0108366Y0038749D01*
X0108352Y0038661D01*
X0108335Y0038575D01*
X0108313Y0038489D01*
X0108288Y0038405D01*
X0108258Y0038321D01*
X0108226Y0038239D01*
X0108189Y0038159D01*
X0108149Y0038080D01*
X0108105Y0038003D01*
X0108058Y0037928D01*
X0108008Y0037856D01*
X0107954Y0037785D01*
X0107898Y0037718D01*
X0107838Y0037652D01*
X0107776Y0037590D01*
X0107710Y0037530D01*
X0107643Y0037474D01*
X0107572Y0037420D01*
X0107500Y0037370D01*
X0107425Y0037323D01*
X0107348Y0037279D01*
X0107269Y0037239D01*
X0107189Y0037202D01*
X0107107Y0037170D01*
X0107023Y0037140D01*
X0106939Y0037115D01*
X0106853Y0037093D01*
X0106767Y0037076D01*
X0106679Y0037062D01*
X0106591Y0037052D01*
X0106503Y0037046D01*
X0106415Y0037044D01*
X0106327Y0037046D01*
X0106239Y0037052D01*
X0106151Y0037062D01*
X0106063Y0037076D01*
X0105977Y0037093D01*
X0105891Y0037115D01*
X0105807Y0037140D01*
X0105723Y0037170D01*
X0105641Y0037202D01*
X0105561Y0037239D01*
X0105482Y0037279D01*
X0105405Y0037323D01*
X0105330Y0037370D01*
X0105258Y0037420D01*
X0105187Y0037474D01*
X0105120Y0037530D01*
X0105054Y0037590D01*
X0104992Y0037652D01*
X0104932Y0037718D01*
X0104876Y0037785D01*
X0104822Y0037856D01*
X0104772Y0037928D01*
X0104725Y0038003D01*
X0104681Y0038080D01*
X0104641Y0038159D01*
X0104604Y0038239D01*
X0104572Y0038321D01*
X0104542Y0038405D01*
X0104517Y0038489D01*
X0104495Y0038575D01*
X0104478Y0038661D01*
X0104464Y0038749D01*
X0104454Y0038837D01*
X0104448Y0038925D01*
X0104446Y0039013D01*
X0118619Y0039013D02*
X0118621Y0039101D01*
X0118627Y0039189D01*
X0118637Y0039277D01*
X0118651Y0039365D01*
X0118668Y0039451D01*
X0118690Y0039537D01*
X0118715Y0039621D01*
X0118745Y0039705D01*
X0118777Y0039787D01*
X0118814Y0039867D01*
X0118854Y0039946D01*
X0118898Y0040023D01*
X0118945Y0040098D01*
X0118995Y0040170D01*
X0119049Y0040241D01*
X0119105Y0040308D01*
X0119165Y0040374D01*
X0119227Y0040436D01*
X0119293Y0040496D01*
X0119360Y0040552D01*
X0119431Y0040606D01*
X0119503Y0040656D01*
X0119578Y0040703D01*
X0119655Y0040747D01*
X0119734Y0040787D01*
X0119814Y0040824D01*
X0119896Y0040856D01*
X0119980Y0040886D01*
X0120064Y0040911D01*
X0120150Y0040933D01*
X0120236Y0040950D01*
X0120324Y0040964D01*
X0120412Y0040974D01*
X0120500Y0040980D01*
X0120588Y0040982D01*
X0120676Y0040980D01*
X0120764Y0040974D01*
X0120852Y0040964D01*
X0120940Y0040950D01*
X0121026Y0040933D01*
X0121112Y0040911D01*
X0121196Y0040886D01*
X0121280Y0040856D01*
X0121362Y0040824D01*
X0121442Y0040787D01*
X0121521Y0040747D01*
X0121598Y0040703D01*
X0121673Y0040656D01*
X0121745Y0040606D01*
X0121816Y0040552D01*
X0121883Y0040496D01*
X0121949Y0040436D01*
X0122011Y0040374D01*
X0122071Y0040308D01*
X0122127Y0040241D01*
X0122181Y0040170D01*
X0122231Y0040098D01*
X0122278Y0040023D01*
X0122322Y0039946D01*
X0122362Y0039867D01*
X0122399Y0039787D01*
X0122431Y0039705D01*
X0122461Y0039621D01*
X0122486Y0039537D01*
X0122508Y0039451D01*
X0122525Y0039365D01*
X0122539Y0039277D01*
X0122549Y0039189D01*
X0122555Y0039101D01*
X0122557Y0039013D01*
X0122555Y0038925D01*
X0122549Y0038837D01*
X0122539Y0038749D01*
X0122525Y0038661D01*
X0122508Y0038575D01*
X0122486Y0038489D01*
X0122461Y0038405D01*
X0122431Y0038321D01*
X0122399Y0038239D01*
X0122362Y0038159D01*
X0122322Y0038080D01*
X0122278Y0038003D01*
X0122231Y0037928D01*
X0122181Y0037856D01*
X0122127Y0037785D01*
X0122071Y0037718D01*
X0122011Y0037652D01*
X0121949Y0037590D01*
X0121883Y0037530D01*
X0121816Y0037474D01*
X0121745Y0037420D01*
X0121673Y0037370D01*
X0121598Y0037323D01*
X0121521Y0037279D01*
X0121442Y0037239D01*
X0121362Y0037202D01*
X0121280Y0037170D01*
X0121196Y0037140D01*
X0121112Y0037115D01*
X0121026Y0037093D01*
X0120940Y0037076D01*
X0120852Y0037062D01*
X0120764Y0037052D01*
X0120676Y0037046D01*
X0120588Y0037044D01*
X0120500Y0037046D01*
X0120412Y0037052D01*
X0120324Y0037062D01*
X0120236Y0037076D01*
X0120150Y0037093D01*
X0120064Y0037115D01*
X0119980Y0037140D01*
X0119896Y0037170D01*
X0119814Y0037202D01*
X0119734Y0037239D01*
X0119655Y0037279D01*
X0119578Y0037323D01*
X0119503Y0037370D01*
X0119431Y0037420D01*
X0119360Y0037474D01*
X0119293Y0037530D01*
X0119227Y0037590D01*
X0119165Y0037652D01*
X0119105Y0037718D01*
X0119049Y0037785D01*
X0118995Y0037856D01*
X0118945Y0037928D01*
X0118898Y0038003D01*
X0118854Y0038080D01*
X0118814Y0038159D01*
X0118777Y0038239D01*
X0118745Y0038321D01*
X0118715Y0038405D01*
X0118690Y0038489D01*
X0118668Y0038575D01*
X0118651Y0038661D01*
X0118637Y0038749D01*
X0118627Y0038837D01*
X0118621Y0038925D01*
X0118619Y0039013D01*
D20*
X0111297Y0107360D02*
X0099486Y0107360D01*
X0099486Y0119171D01*
X0111297Y0119171D01*
X0111297Y0107360D01*
M02*
