G75*
%MOIN*%
%OFA0B0*%
%FSLAX25Y25*%
%IPPOS*%
%LPD*%
%AMOC8*
5,1,8,0,0,1.08239X$1,22.5*
%
%ADD10C,0.00800*%
%ADD11C,0.04000*%
D10*
X0032556Y0033344D02*
X0040824Y0041612D01*
X0040824Y0054210D01*
X0053423Y0060116D02*
X0053423Y0072714D01*
X0056572Y0063265D02*
X0056572Y0104210D01*
X0050273Y0110509D01*
X0038068Y0102635D02*
X0065627Y0130194D01*
X0094761Y0130194D01*
X0094761Y0114840D01*
X0085312Y0106572D02*
X0085312Y0040824D01*
X0099879Y0026257D01*
X0096336Y0038856D02*
X0097911Y0040431D01*
X0097911Y0042005D01*
X0088462Y0042005D01*
X0082950Y0034919D02*
X0082950Y0106572D01*
X0079013Y0110509D01*
X0071139Y0110509D01*
X0070942Y0110706D01*
X0087281Y0127045D01*
X0079801Y0123895D02*
X0063659Y0107753D01*
X0063659Y0097911D01*
X0063659Y0097517D01*
X0059722Y0093580D01*
X0059722Y0046336D01*
X0067202Y0038856D01*
X0068383Y0035706D02*
X0070352Y0037675D01*
X0070352Y0099879D01*
X0073501Y0097911D02*
X0073501Y0023895D01*
X0071533Y0021927D01*
X0050667Y0021927D01*
X0056572Y0035706D02*
X0056572Y0056966D01*
X0053423Y0060116D01*
X0062871Y0047517D02*
X0062871Y0086887D01*
X0067202Y0091218D01*
X0073501Y0097911D02*
X0076651Y0101060D01*
X0079801Y0104604D02*
X0079801Y0069564D01*
X0076651Y0066415D01*
X0097911Y0055391D02*
X0097911Y0042005D01*
X0097911Y0055391D02*
X0112871Y0070352D01*
X0112871Y0087675D01*
X0113659Y0088856D01*
X0113659Y0089249D01*
X0114840Y0090431D01*
X0114840Y0107753D01*
X0107360Y0115234D01*
X0104604Y0111297D02*
X0111690Y0104210D01*
X0111690Y0098698D01*
X0113659Y0088856D02*
X0108147Y0083344D01*
X0104604Y0088856D02*
X0104604Y0076651D01*
X0109722Y0071533D01*
X0094761Y0097123D02*
X0097911Y0100273D01*
X0097911Y0129407D01*
X0095549Y0131769D01*
X0043186Y0131769D01*
X0043186Y0126257D01*
X0033344Y0116415D01*
X0039643Y0090824D02*
X0039643Y0068777D01*
X0021533Y0050667D01*
X0020352Y0061690D02*
X0017202Y0064840D01*
X0017202Y0072714D01*
X0056572Y0035706D02*
X0068383Y0035706D01*
X0068383Y0027045D01*
X0078619Y0030588D02*
X0082950Y0034919D01*
X0085312Y0106572D02*
X0078226Y0113659D01*
X0070942Y0110706D02*
X0066808Y0106572D01*
X0066808Y0105391D01*
D11*
X0032556Y0033344D03*
X0021533Y0050667D03*
X0020352Y0061690D03*
X0017202Y0072714D03*
X0039643Y0090824D03*
X0038068Y0102635D03*
X0050273Y0110509D03*
X0063659Y0097911D03*
X0067202Y0091218D03*
X0070352Y0099879D03*
X0076651Y0101060D03*
X0079801Y0104604D03*
X0078226Y0113659D03*
X0079801Y0123895D03*
X0087281Y0127045D03*
X0094761Y0114840D03*
X0104604Y0111297D03*
X0107360Y0115234D03*
X0111690Y0098698D03*
X0113659Y0088856D03*
X0108147Y0083344D03*
X0104604Y0088856D03*
X0094761Y0097123D03*
X0109722Y0071533D03*
X0097911Y0055391D03*
X0088462Y0042005D03*
X0096336Y0038856D03*
X0099879Y0026257D03*
X0078619Y0030588D03*
X0068383Y0027045D03*
X0067202Y0038856D03*
X0062871Y0047517D03*
X0056572Y0056966D03*
X0056572Y0063265D03*
X0053423Y0072714D03*
X0040824Y0054210D03*
X0050667Y0021927D03*
X0076651Y0066415D03*
X0066808Y0105391D03*
X0033344Y0116415D03*
M02*
